<?xml version="1.0" encoding="utf-8" standalone="no"?>
<!DOCTYPE svg PUBLIC "-//W3C//DTD SVG 1.1//EN"
  "http://www.w3.org/Graphics/SVG/1.1/DTD/svg11.dtd">
<svg xmlns:xlink="http://www.w3.org/1999/xlink" width="864pt" height="576pt" viewBox="0 0 864 576" xmlns="http://www.w3.org/2000/svg" version="1.1">
 <metadata>
  <rdf:RDF xmlns:dc="http://purl.org/dc/elements/1.1/" xmlns:cc="http://creativecommons.org/ns#" xmlns:rdf="http://www.w3.org/1999/02/22-rdf-syntax-ns#">
   <cc:Work>
    <dc:type rdf:resource="http://purl.org/dc/dcmitype/StillImage"/>
    <dc:date>2025-02-25T11:09:17.969247</dc:date>
    <dc:format>image/svg+xml</dc:format>
    <dc:creator>
     <cc:Agent>
      <dc:title>Matplotlib v3.10.0, https://matplotlib.org/</dc:title>
     </cc:Agent>
    </dc:creator>
   </cc:Work>
  </rdf:RDF>
 </metadata>
 <defs>
  <style type="text/css">*{stroke-linejoin: round; stroke-linecap: butt}</style>
 </defs>
 <g id="figure_1">
  <g id="patch_1">
   <path d="M 0 576 
L 864 576 
L 864 0 
L 0 0 
z
" style="fill: #ffffff"/>
  </g>
  <g id="axes_1">
   <g id="patch_2">
    <path d="M 47.72 534.04 
L 853.2 534.04 
L 853.2 26.88 
L 47.72 26.88 
z
" style="fill: #ffffff"/>
   </g>
   <g id="matplotlib.axis_1">
    <g id="xtick_1">
     <g id="line2d_1">
      <defs>
       <path id="m814df16864" d="M 0 0 
L 0 3.5 
" style="stroke: #000000; stroke-width: 0.8"/>
      </defs>
      <g>
       <use xlink:href="#m814df16864" x="83.098049" y="534.04" style="stroke: #000000; stroke-width: 0.8"/>
      </g>
     </g>
     <g id="text_1">
      <!-- 0 -->
      <g transform="translate(79.916799 548.638438) scale(0.1 -0.1)">
       <defs>
        <path id="DejaVuSans-30" d="M 2034 4250 
Q 1547 4250 1301 3770 
Q 1056 3291 1056 2328 
Q 1056 1369 1301 889 
Q 1547 409 2034 409 
Q 2525 409 2770 889 
Q 3016 1369 3016 2328 
Q 3016 3291 2770 3770 
Q 2525 4250 2034 4250 
z
M 2034 4750 
Q 2819 4750 3233 4129 
Q 3647 3509 3647 2328 
Q 3647 1150 3233 529 
Q 2819 -91 2034 -91 
Q 1250 -91 836 529 
Q 422 1150 422 2328 
Q 422 3509 836 4129 
Q 1250 4750 2034 4750 
z
" transform="scale(0.015625)"/>
       </defs>
       <use xlink:href="#DejaVuSans-30"/>
      </g>
     </g>
    </g>
    <g id="xtick_2">
     <g id="line2d_2">
      <g>
       <use xlink:href="#m814df16864" x="229.792471" y="534.04" style="stroke: #000000; stroke-width: 0.8"/>
      </g>
     </g>
     <g id="text_2">
      <!-- 1 -->
      <g transform="translate(226.611221 548.638438) scale(0.1 -0.1)">
       <defs>
        <path id="DejaVuSans-31" d="M 794 531 
L 1825 531 
L 1825 4091 
L 703 3866 
L 703 4441 
L 1819 4666 
L 2450 4666 
L 2450 531 
L 3481 531 
L 3481 0 
L 794 0 
L 794 531 
z
" transform="scale(0.015625)"/>
       </defs>
       <use xlink:href="#DejaVuSans-31"/>
      </g>
     </g>
    </g>
    <g id="xtick_3">
     <g id="line2d_3">
      <g>
       <use xlink:href="#m814df16864" x="376.486893" y="534.04" style="stroke: #000000; stroke-width: 0.8"/>
      </g>
     </g>
     <g id="text_3">
      <!-- 2 -->
      <g transform="translate(373.305643 548.638438) scale(0.1 -0.1)">
       <defs>
        <path id="DejaVuSans-32" d="M 1228 531 
L 3431 531 
L 3431 0 
L 469 0 
L 469 531 
Q 828 903 1448 1529 
Q 2069 2156 2228 2338 
Q 2531 2678 2651 2914 
Q 2772 3150 2772 3378 
Q 2772 3750 2511 3984 
Q 2250 4219 1831 4219 
Q 1534 4219 1204 4116 
Q 875 4013 500 3803 
L 500 4441 
Q 881 4594 1212 4672 
Q 1544 4750 1819 4750 
Q 2544 4750 2975 4387 
Q 3406 4025 3406 3419 
Q 3406 3131 3298 2873 
Q 3191 2616 2906 2266 
Q 2828 2175 2409 1742 
Q 1991 1309 1228 531 
z
" transform="scale(0.015625)"/>
       </defs>
       <use xlink:href="#DejaVuSans-32"/>
      </g>
     </g>
    </g>
    <g id="xtick_4">
     <g id="line2d_4">
      <g>
       <use xlink:href="#m814df16864" x="523.181315" y="534.04" style="stroke: #000000; stroke-width: 0.8"/>
      </g>
     </g>
     <g id="text_4">
      <!-- 3 -->
      <g transform="translate(520.000065 548.638438) scale(0.1 -0.1)">
       <defs>
        <path id="DejaVuSans-33" d="M 2597 2516 
Q 3050 2419 3304 2112 
Q 3559 1806 3559 1356 
Q 3559 666 3084 287 
Q 2609 -91 1734 -91 
Q 1441 -91 1130 -33 
Q 819 25 488 141 
L 488 750 
Q 750 597 1062 519 
Q 1375 441 1716 441 
Q 2309 441 2620 675 
Q 2931 909 2931 1356 
Q 2931 1769 2642 2001 
Q 2353 2234 1838 2234 
L 1294 2234 
L 1294 2753 
L 1863 2753 
Q 2328 2753 2575 2939 
Q 2822 3125 2822 3475 
Q 2822 3834 2567 4026 
Q 2313 4219 1838 4219 
Q 1578 4219 1281 4162 
Q 984 4106 628 3988 
L 628 4550 
Q 988 4650 1302 4700 
Q 1616 4750 1894 4750 
Q 2613 4750 3031 4423 
Q 3450 4097 3450 3541 
Q 3450 3153 3228 2886 
Q 3006 2619 2597 2516 
z
" transform="scale(0.015625)"/>
       </defs>
       <use xlink:href="#DejaVuSans-33"/>
      </g>
     </g>
    </g>
    <g id="xtick_5">
     <g id="line2d_5">
      <g>
       <use xlink:href="#m814df16864" x="669.875737" y="534.04" style="stroke: #000000; stroke-width: 0.8"/>
      </g>
     </g>
     <g id="text_5">
      <!-- 4 -->
      <g transform="translate(666.694487 548.638438) scale(0.1 -0.1)">
       <defs>
        <path id="DejaVuSans-34" d="M 2419 4116 
L 825 1625 
L 2419 1625 
L 2419 4116 
z
M 2253 4666 
L 3047 4666 
L 3047 1625 
L 3713 1625 
L 3713 1100 
L 3047 1100 
L 3047 0 
L 2419 0 
L 2419 1100 
L 313 1100 
L 313 1709 
L 2253 4666 
z
" transform="scale(0.015625)"/>
       </defs>
       <use xlink:href="#DejaVuSans-34"/>
      </g>
     </g>
    </g>
    <g id="xtick_6">
     <g id="line2d_6">
      <g>
       <use xlink:href="#m814df16864" x="816.570158" y="534.04" style="stroke: #000000; stroke-width: 0.8"/>
      </g>
     </g>
     <g id="text_6">
      <!-- 5 -->
      <g transform="translate(813.388908 548.638438) scale(0.1 -0.1)">
       <defs>
        <path id="DejaVuSans-35" d="M 691 4666 
L 3169 4666 
L 3169 4134 
L 1269 4134 
L 1269 2991 
Q 1406 3038 1543 3061 
Q 1681 3084 1819 3084 
Q 2600 3084 3056 2656 
Q 3513 2228 3513 1497 
Q 3513 744 3044 326 
Q 2575 -91 1722 -91 
Q 1428 -91 1123 -41 
Q 819 9 494 109 
L 494 744 
Q 775 591 1075 516 
Q 1375 441 1709 441 
Q 2250 441 2565 725 
Q 2881 1009 2881 1497 
Q 2881 1984 2565 2268 
Q 2250 2553 1709 2553 
Q 1456 2553 1204 2497 
Q 953 2441 691 2322 
L 691 4666 
z
" transform="scale(0.015625)"/>
       </defs>
       <use xlink:href="#DejaVuSans-35"/>
      </g>
     </g>
    </g>
    <g id="text_7">
     <!-- Retention Time (min) -->
     <g transform="translate(397.61 562.316562) scale(0.1 -0.1)">
      <defs>
       <path id="DejaVuSans-52" d="M 2841 2188 
Q 3044 2119 3236 1894 
Q 3428 1669 3622 1275 
L 4263 0 
L 3584 0 
L 2988 1197 
Q 2756 1666 2539 1819 
Q 2322 1972 1947 1972 
L 1259 1972 
L 1259 0 
L 628 0 
L 628 4666 
L 2053 4666 
Q 2853 4666 3247 4331 
Q 3641 3997 3641 3322 
Q 3641 2881 3436 2590 
Q 3231 2300 2841 2188 
z
M 1259 4147 
L 1259 2491 
L 2053 2491 
Q 2509 2491 2742 2702 
Q 2975 2913 2975 3322 
Q 2975 3731 2742 3939 
Q 2509 4147 2053 4147 
L 1259 4147 
z
" transform="scale(0.015625)"/>
       <path id="DejaVuSans-65" d="M 3597 1894 
L 3597 1613 
L 953 1613 
Q 991 1019 1311 708 
Q 1631 397 2203 397 
Q 2534 397 2845 478 
Q 3156 559 3463 722 
L 3463 178 
Q 3153 47 2828 -22 
Q 2503 -91 2169 -91 
Q 1331 -91 842 396 
Q 353 884 353 1716 
Q 353 2575 817 3079 
Q 1281 3584 2069 3584 
Q 2775 3584 3186 3129 
Q 3597 2675 3597 1894 
z
M 3022 2063 
Q 3016 2534 2758 2815 
Q 2500 3097 2075 3097 
Q 1594 3097 1305 2825 
Q 1016 2553 972 2059 
L 3022 2063 
z
" transform="scale(0.015625)"/>
       <path id="DejaVuSans-74" d="M 1172 4494 
L 1172 3500 
L 2356 3500 
L 2356 3053 
L 1172 3053 
L 1172 1153 
Q 1172 725 1289 603 
Q 1406 481 1766 481 
L 2356 481 
L 2356 0 
L 1766 0 
Q 1100 0 847 248 
Q 594 497 594 1153 
L 594 3053 
L 172 3053 
L 172 3500 
L 594 3500 
L 594 4494 
L 1172 4494 
z
" transform="scale(0.015625)"/>
       <path id="DejaVuSans-6e" d="M 3513 2113 
L 3513 0 
L 2938 0 
L 2938 2094 
Q 2938 2591 2744 2837 
Q 2550 3084 2163 3084 
Q 1697 3084 1428 2787 
Q 1159 2491 1159 1978 
L 1159 0 
L 581 0 
L 581 3500 
L 1159 3500 
L 1159 2956 
Q 1366 3272 1645 3428 
Q 1925 3584 2291 3584 
Q 2894 3584 3203 3211 
Q 3513 2838 3513 2113 
z
" transform="scale(0.015625)"/>
       <path id="DejaVuSans-69" d="M 603 3500 
L 1178 3500 
L 1178 0 
L 603 0 
L 603 3500 
z
M 603 4863 
L 1178 4863 
L 1178 4134 
L 603 4134 
L 603 4863 
z
" transform="scale(0.015625)"/>
       <path id="DejaVuSans-6f" d="M 1959 3097 
Q 1497 3097 1228 2736 
Q 959 2375 959 1747 
Q 959 1119 1226 758 
Q 1494 397 1959 397 
Q 2419 397 2687 759 
Q 2956 1122 2956 1747 
Q 2956 2369 2687 2733 
Q 2419 3097 1959 3097 
z
M 1959 3584 
Q 2709 3584 3137 3096 
Q 3566 2609 3566 1747 
Q 3566 888 3137 398 
Q 2709 -91 1959 -91 
Q 1206 -91 779 398 
Q 353 888 353 1747 
Q 353 2609 779 3096 
Q 1206 3584 1959 3584 
z
" transform="scale(0.015625)"/>
       <path id="DejaVuSans-20" transform="scale(0.015625)"/>
       <path id="DejaVuSans-54" d="M -19 4666 
L 3928 4666 
L 3928 4134 
L 2272 4134 
L 2272 0 
L 1638 0 
L 1638 4134 
L -19 4134 
L -19 4666 
z
" transform="scale(0.015625)"/>
       <path id="DejaVuSans-6d" d="M 3328 2828 
Q 3544 3216 3844 3400 
Q 4144 3584 4550 3584 
Q 5097 3584 5394 3201 
Q 5691 2819 5691 2113 
L 5691 0 
L 5113 0 
L 5113 2094 
Q 5113 2597 4934 2840 
Q 4756 3084 4391 3084 
Q 3944 3084 3684 2787 
Q 3425 2491 3425 1978 
L 3425 0 
L 2847 0 
L 2847 2094 
Q 2847 2600 2669 2842 
Q 2491 3084 2119 3084 
Q 1678 3084 1418 2786 
Q 1159 2488 1159 1978 
L 1159 0 
L 581 0 
L 581 3500 
L 1159 3500 
L 1159 2956 
Q 1356 3278 1631 3431 
Q 1906 3584 2284 3584 
Q 2666 3584 2933 3390 
Q 3200 3197 3328 2828 
z
" transform="scale(0.015625)"/>
       <path id="DejaVuSans-28" d="M 1984 4856 
Q 1566 4138 1362 3434 
Q 1159 2731 1159 2009 
Q 1159 1288 1364 580 
Q 1569 -128 1984 -844 
L 1484 -844 
Q 1016 -109 783 600 
Q 550 1309 550 2009 
Q 550 2706 781 3412 
Q 1013 4119 1484 4856 
L 1984 4856 
z
" transform="scale(0.015625)"/>
       <path id="DejaVuSans-29" d="M 513 4856 
L 1013 4856 
Q 1481 4119 1714 3412 
Q 1947 2706 1947 2009 
Q 1947 1309 1714 600 
Q 1481 -109 1013 -844 
L 513 -844 
Q 928 -128 1133 580 
Q 1338 1288 1338 2009 
Q 1338 2731 1133 3434 
Q 928 4138 513 4856 
z
" transform="scale(0.015625)"/>
      </defs>
      <use xlink:href="#DejaVuSans-52"/>
      <use xlink:href="#DejaVuSans-65" transform="translate(64.982422 0)"/>
      <use xlink:href="#DejaVuSans-74" transform="translate(126.505859 0)"/>
      <use xlink:href="#DejaVuSans-65" transform="translate(165.714844 0)"/>
      <use xlink:href="#DejaVuSans-6e" transform="translate(227.238281 0)"/>
      <use xlink:href="#DejaVuSans-74" transform="translate(290.617188 0)"/>
      <use xlink:href="#DejaVuSans-69" transform="translate(329.826172 0)"/>
      <use xlink:href="#DejaVuSans-6f" transform="translate(357.609375 0)"/>
      <use xlink:href="#DejaVuSans-6e" transform="translate(418.791016 0)"/>
      <use xlink:href="#DejaVuSans-20" transform="translate(482.169922 0)"/>
      <use xlink:href="#DejaVuSans-54" transform="translate(513.957031 0)"/>
      <use xlink:href="#DejaVuSans-69" transform="translate(571.916016 0)"/>
      <use xlink:href="#DejaVuSans-6d" transform="translate(599.699219 0)"/>
      <use xlink:href="#DejaVuSans-65" transform="translate(697.111328 0)"/>
      <use xlink:href="#DejaVuSans-20" transform="translate(758.634766 0)"/>
      <use xlink:href="#DejaVuSans-28" transform="translate(790.421875 0)"/>
      <use xlink:href="#DejaVuSans-6d" transform="translate(829.435547 0)"/>
      <use xlink:href="#DejaVuSans-69" transform="translate(926.847656 0)"/>
      <use xlink:href="#DejaVuSans-6e" transform="translate(954.630859 0)"/>
      <use xlink:href="#DejaVuSans-29" transform="translate(1018.009766 0)"/>
     </g>
    </g>
   </g>
   <g id="matplotlib.axis_2">
    <g id="ytick_1">
     <g id="line2d_7">
      <defs>
       <path id="mc024ad1f1b" d="M 0 0 
L -3.5 0 
" style="stroke: #000000; stroke-width: 0.8"/>
      </defs>
      <g>
       <use xlink:href="#mc024ad1f1b" x="47.72" y="510.532796" style="stroke: #000000; stroke-width: 0.8"/>
      </g>
     </g>
     <g id="text_8">
      <!-- 0.0 -->
      <g style="fill: #0000ff" transform="translate(24.816875 514.332014) scale(0.1 -0.1)">
       <defs>
        <path id="DejaVuSans-2e" d="M 684 794 
L 1344 794 
L 1344 0 
L 684 0 
L 684 794 
z
" transform="scale(0.015625)"/>
       </defs>
       <use xlink:href="#DejaVuSans-30"/>
       <use xlink:href="#DejaVuSans-2e" transform="translate(63.623047 0)"/>
       <use xlink:href="#DejaVuSans-30" transform="translate(95.410156 0)"/>
      </g>
     </g>
    </g>
    <g id="ytick_2">
     <g id="line2d_8">
      <g>
       <use xlink:href="#mc024ad1f1b" x="47.72" y="418.412782" style="stroke: #000000; stroke-width: 0.8"/>
      </g>
     </g>
     <g id="text_9">
      <!-- 0.5 -->
      <g style="fill: #0000ff" transform="translate(24.816875 422.212001) scale(0.1 -0.1)">
       <use xlink:href="#DejaVuSans-30"/>
       <use xlink:href="#DejaVuSans-2e" transform="translate(63.623047 0)"/>
       <use xlink:href="#DejaVuSans-35" transform="translate(95.410156 0)"/>
      </g>
     </g>
    </g>
    <g id="ytick_3">
     <g id="line2d_9">
      <g>
       <use xlink:href="#mc024ad1f1b" x="47.72" y="326.292768" style="stroke: #000000; stroke-width: 0.8"/>
      </g>
     </g>
     <g id="text_10">
      <!-- 1.0 -->
      <g style="fill: #0000ff" transform="translate(24.816875 330.091987) scale(0.1 -0.1)">
       <use xlink:href="#DejaVuSans-31"/>
       <use xlink:href="#DejaVuSans-2e" transform="translate(63.623047 0)"/>
       <use xlink:href="#DejaVuSans-30" transform="translate(95.410156 0)"/>
      </g>
     </g>
    </g>
    <g id="ytick_4">
     <g id="line2d_10">
      <g>
       <use xlink:href="#mc024ad1f1b" x="47.72" y="234.172755" style="stroke: #000000; stroke-width: 0.8"/>
      </g>
     </g>
     <g id="text_11">
      <!-- 1.5 -->
      <g style="fill: #0000ff" transform="translate(24.816875 237.971973) scale(0.1 -0.1)">
       <use xlink:href="#DejaVuSans-31"/>
       <use xlink:href="#DejaVuSans-2e" transform="translate(63.623047 0)"/>
       <use xlink:href="#DejaVuSans-35" transform="translate(95.410156 0)"/>
      </g>
     </g>
    </g>
    <g id="ytick_5">
     <g id="line2d_11">
      <g>
       <use xlink:href="#mc024ad1f1b" x="47.72" y="142.052741" style="stroke: #000000; stroke-width: 0.8"/>
      </g>
     </g>
     <g id="text_12">
      <!-- 2.0 -->
      <g style="fill: #0000ff" transform="translate(24.816875 145.85196) scale(0.1 -0.1)">
       <use xlink:href="#DejaVuSans-32"/>
       <use xlink:href="#DejaVuSans-2e" transform="translate(63.623047 0)"/>
       <use xlink:href="#DejaVuSans-30" transform="translate(95.410156 0)"/>
      </g>
     </g>
    </g>
    <g id="ytick_6">
     <g id="line2d_12">
      <g>
       <use xlink:href="#mc024ad1f1b" x="47.72" y="49.932727" style="stroke: #000000; stroke-width: 0.8"/>
      </g>
     </g>
     <g id="text_13">
      <!-- 2.5 -->
      <g style="fill: #0000ff" transform="translate(24.816875 53.731946) scale(0.1 -0.1)">
       <use xlink:href="#DejaVuSans-32"/>
       <use xlink:href="#DejaVuSans-2e" transform="translate(63.623047 0)"/>
       <use xlink:href="#DejaVuSans-35" transform="translate(95.410156 0)"/>
      </g>
     </g>
    </g>
    <g id="text_14">
     <!-- Normalized Intensity -->
     <g style="fill: #0000ff" transform="translate(18.737187 332.167031) rotate(-90) scale(0.1 -0.1)">
      <defs>
       <path id="DejaVuSans-4e" d="M 628 4666 
L 1478 4666 
L 3547 763 
L 3547 4666 
L 4159 4666 
L 4159 0 
L 3309 0 
L 1241 3903 
L 1241 0 
L 628 0 
L 628 4666 
z
" transform="scale(0.015625)"/>
       <path id="DejaVuSans-72" d="M 2631 2963 
Q 2534 3019 2420 3045 
Q 2306 3072 2169 3072 
Q 1681 3072 1420 2755 
Q 1159 2438 1159 1844 
L 1159 0 
L 581 0 
L 581 3500 
L 1159 3500 
L 1159 2956 
Q 1341 3275 1631 3429 
Q 1922 3584 2338 3584 
Q 2397 3584 2469 3576 
Q 2541 3569 2628 3553 
L 2631 2963 
z
" transform="scale(0.015625)"/>
       <path id="DejaVuSans-61" d="M 2194 1759 
Q 1497 1759 1228 1600 
Q 959 1441 959 1056 
Q 959 750 1161 570 
Q 1363 391 1709 391 
Q 2188 391 2477 730 
Q 2766 1069 2766 1631 
L 2766 1759 
L 2194 1759 
z
M 3341 1997 
L 3341 0 
L 2766 0 
L 2766 531 
Q 2569 213 2275 61 
Q 1981 -91 1556 -91 
Q 1019 -91 701 211 
Q 384 513 384 1019 
Q 384 1609 779 1909 
Q 1175 2209 1959 2209 
L 2766 2209 
L 2766 2266 
Q 2766 2663 2505 2880 
Q 2244 3097 1772 3097 
Q 1472 3097 1187 3025 
Q 903 2953 641 2809 
L 641 3341 
Q 956 3463 1253 3523 
Q 1550 3584 1831 3584 
Q 2591 3584 2966 3190 
Q 3341 2797 3341 1997 
z
" transform="scale(0.015625)"/>
       <path id="DejaVuSans-6c" d="M 603 4863 
L 1178 4863 
L 1178 0 
L 603 0 
L 603 4863 
z
" transform="scale(0.015625)"/>
       <path id="DejaVuSans-7a" d="M 353 3500 
L 3084 3500 
L 3084 2975 
L 922 459 
L 3084 459 
L 3084 0 
L 275 0 
L 275 525 
L 2438 3041 
L 353 3041 
L 353 3500 
z
" transform="scale(0.015625)"/>
       <path id="DejaVuSans-64" d="M 2906 2969 
L 2906 4863 
L 3481 4863 
L 3481 0 
L 2906 0 
L 2906 525 
Q 2725 213 2448 61 
Q 2172 -91 1784 -91 
Q 1150 -91 751 415 
Q 353 922 353 1747 
Q 353 2572 751 3078 
Q 1150 3584 1784 3584 
Q 2172 3584 2448 3432 
Q 2725 3281 2906 2969 
z
M 947 1747 
Q 947 1113 1208 752 
Q 1469 391 1925 391 
Q 2381 391 2643 752 
Q 2906 1113 2906 1747 
Q 2906 2381 2643 2742 
Q 2381 3103 1925 3103 
Q 1469 3103 1208 2742 
Q 947 2381 947 1747 
z
" transform="scale(0.015625)"/>
       <path id="DejaVuSans-49" d="M 628 4666 
L 1259 4666 
L 1259 0 
L 628 0 
L 628 4666 
z
" transform="scale(0.015625)"/>
       <path id="DejaVuSans-73" d="M 2834 3397 
L 2834 2853 
Q 2591 2978 2328 3040 
Q 2066 3103 1784 3103 
Q 1356 3103 1142 2972 
Q 928 2841 928 2578 
Q 928 2378 1081 2264 
Q 1234 2150 1697 2047 
L 1894 2003 
Q 2506 1872 2764 1633 
Q 3022 1394 3022 966 
Q 3022 478 2636 193 
Q 2250 -91 1575 -91 
Q 1294 -91 989 -36 
Q 684 19 347 128 
L 347 722 
Q 666 556 975 473 
Q 1284 391 1588 391 
Q 1994 391 2212 530 
Q 2431 669 2431 922 
Q 2431 1156 2273 1281 
Q 2116 1406 1581 1522 
L 1381 1569 
Q 847 1681 609 1914 
Q 372 2147 372 2553 
Q 372 3047 722 3315 
Q 1072 3584 1716 3584 
Q 2034 3584 2315 3537 
Q 2597 3491 2834 3397 
z
" transform="scale(0.015625)"/>
       <path id="DejaVuSans-79" d="M 2059 -325 
Q 1816 -950 1584 -1140 
Q 1353 -1331 966 -1331 
L 506 -1331 
L 506 -850 
L 844 -850 
Q 1081 -850 1212 -737 
Q 1344 -625 1503 -206 
L 1606 56 
L 191 3500 
L 800 3500 
L 1894 763 
L 2988 3500 
L 3597 3500 
L 2059 -325 
z
" transform="scale(0.015625)"/>
      </defs>
      <use xlink:href="#DejaVuSans-4e"/>
      <use xlink:href="#DejaVuSans-6f" transform="translate(74.804688 0)"/>
      <use xlink:href="#DejaVuSans-72" transform="translate(135.986328 0)"/>
      <use xlink:href="#DejaVuSans-6d" transform="translate(175.349609 0)"/>
      <use xlink:href="#DejaVuSans-61" transform="translate(272.761719 0)"/>
      <use xlink:href="#DejaVuSans-6c" transform="translate(334.041016 0)"/>
      <use xlink:href="#DejaVuSans-69" transform="translate(361.824219 0)"/>
      <use xlink:href="#DejaVuSans-7a" transform="translate(389.607422 0)"/>
      <use xlink:href="#DejaVuSans-65" transform="translate(442.097656 0)"/>
      <use xlink:href="#DejaVuSans-64" transform="translate(503.621094 0)"/>
      <use xlink:href="#DejaVuSans-20" transform="translate(567.097656 0)"/>
      <use xlink:href="#DejaVuSans-49" transform="translate(598.884766 0)"/>
      <use xlink:href="#DejaVuSans-6e" transform="translate(628.376953 0)"/>
      <use xlink:href="#DejaVuSans-74" transform="translate(691.755859 0)"/>
      <use xlink:href="#DejaVuSans-65" transform="translate(730.964844 0)"/>
      <use xlink:href="#DejaVuSans-6e" transform="translate(792.488281 0)"/>
      <use xlink:href="#DejaVuSans-73" transform="translate(855.867188 0)"/>
      <use xlink:href="#DejaVuSans-69" transform="translate(907.966797 0)"/>
      <use xlink:href="#DejaVuSans-74" transform="translate(935.75 0)"/>
      <use xlink:href="#DejaVuSans-79" transform="translate(974.958984 0)"/>
     </g>
    </g>
   </g>
   <g id="line2d_13">
    <path d="M 84.332727 510.532796 
L 147.9052 510.427492 
L 152.795014 510.478763 
L 160.129735 510.548632 
L 163.797096 510.506435 
L 166.242003 510.282523 
L 171.131817 509.657846 
L 173.576724 509.634078 
L 177.244084 509.916924 
L 182.133898 510.362548 
L 187.023712 510.660869 
L 189.468619 510.987273 
L 190.691073 510.878769 
L 194.358433 509.916242 
L 195.580887 509.809448 
L 198.025794 509.973735 
L 201.693155 510.310544 
L 207.805422 510.389004 
L 215.140143 510.465927 
L 216.362597 510.39148 
L 217.58505 510.149879 
L 218.807504 509.642398 
L 222.474864 507.50493 
L 223.697318 507.263929 
L 224.919771 507.372406 
L 227.364678 508.136508 
L 229.809585 508.87336 
L 232.254492 509.323726 
L 235.921853 509.697475 
L 239.589214 509.883627 
L 245.701481 509.901494 
L 251.813749 509.810599 
L 261.593377 509.441228 
L 264.038284 509.566164 
L 266.483191 509.802028 
L 267.705644 509.824149 
L 268.928098 509.705355 
L 272.595458 508.963599 
L 273.817912 508.943622 
L 276.262819 509.382083 
L 278.707726 509.916581 
L 281.152633 510.165691 
L 284.819994 510.201101 
L 294.599622 510.053626 
L 301.934343 510.296352 
L 308.04661 510.128814 
L 314.158878 510.338732 
L 319.048692 510.225439 
L 321.493599 509.921084 
L 322.716053 509.418443 
L 323.938506 508.436051 
L 325.16096 507.137364 
L 326.383413 506.064993 
L 327.605867 505.719949 
L 328.82832 506.172777 
L 331.273227 508.031015 
L 332.495681 508.733987 
L 333.718134 509.164062 
L 336.163041 509.58316 
L 338.607948 509.790677 
L 345.942669 509.957672 
L 349.61003 509.888482 
L 350.832483 509.73913 
L 354.499844 508.937603 
L 355.722297 508.946124 
L 358.167205 509.437292 
L 360.612112 509.929777 
L 363.057019 510.127524 
L 366.724379 510.115952 
L 372.836647 510.022752 
L 380.171368 510.020357 
L 386.283635 509.505564 
L 388.728542 509.368586 
L 393.618356 509.364904 
L 396.063263 509.019274 
L 398.508171 508.674087 
L 399.730624 508.728994 
L 405.842892 509.706244 
L 419.28988 509.89417 
L 421.734787 509.649003 
L 424.179694 509.296269 
L 425.402148 509.212389 
L 426.624601 508.744344 
L 427.847055 505.007537 
L 429.069508 490.973427 
L 430.291962 459.432606 
L 432.736869 363.243226 
L 433.959322 331.063188 
L 435.181776 326.292768 
L 436.404229 347.038275 
L 440.07159 451.877796 
L 441.294044 474.087936 
L 442.516497 487.713168 
L 443.738951 495.258225 
L 444.961404 499.230859 
L 446.183858 501.36996 
L 447.406311 502.617045 
L 448.628765 503.425929 
L 453.518579 505.81832 
L 454.741032 506.296571 
L 455.963486 506.513778 
L 457.185939 506.375942 
L 459.630846 505.690911 
L 460.8533 505.714088 
L 462.075753 506.108407 
L 465.743114 507.895312 
L 466.965567 508.26238 
L 468.188021 508.474385 
L 470.632928 508.593932 
L 479.190103 508.559086 
L 482.857463 508.416589 
L 488.969731 508.739367 
L 493.859545 509.080414 
L 498.749359 509.135721 
L 502.416719 508.920373 
L 504.861626 508.79552 
L 508.528987 508.993147 
L 512.196347 509.089633 
L 519.531069 508.897414 
L 530.53315 508.480065 
L 531.755604 508.233761 
L 532.978057 507.748397 
L 535.422964 506.218553 
L 536.645418 505.705019 
L 537.867871 505.738207 
L 539.090325 506.328734 
L 542.757685 509.00036 
L 543.980139 509.531519 
L 545.202592 509.812938 
L 546.425046 509.890851 
L 551.31486 509.703308 
L 558.649581 510.281413 
L 568.429209 510.378947 
L 586.766012 510.432599 
L 603.880361 510.472011 
L 620.99471 510.491859 
L 700.454189 510.395517 
L 704.121549 510.375602 
L 711.45627 510.540821 
L 793.360656 510.599346 
L 816.587273 510.606882 
L 816.587273 510.606882 
" clip-path="url(#p998f3645c7)" style="fill: none; stroke: #0000ff; stroke-width: 1.5; stroke-linecap: square"/>
   </g>
   <g id="line2d_14">
    <path d="M 89.642332 234.169735 
L 190.05393 234.074007 
L 190.05393 234.049941 
L 191.068322 234.020812 
L 201.960138 234.157054 
L 221.566092 234.064996 
L 221.566092 234.049964 
L 222.261913 234.03276 
L 222.261913 233.957422 
L 222.95211 233.986164 
L 222.95211 233.900927 
L 223.295131 233.972376 
L 223.295131 233.876961 
L 223.98435 233.918814 
L 223.98435 233.82848 
L 224.671124 233.92546 
L 224.671124 233.849766 
L 225.356187 233.921561 
L 225.356187 233.827191 
L 226.050296 233.914825 
L 226.050296 233.831011 
L 226.73976 233.926278 
L 226.73976 233.836492 
L 227.432158 233.910258 
L 227.432158 233.816066 
L 228.122844 233.942451 
L 228.122844 233.845881 
L 228.470754 233.940219 
L 228.470754 233.852698 
L 229.509351 233.964263 
L 229.509351 233.906137 
L 230.20346 233.979203 
L 230.20346 233.929979 
L 230.894635 233.984014 
L 230.894635 233.925505 
L 232.289699 234.022532 
L 232.289699 233.960785 
L 233.336119 234.046932 
L 233.336119 233.99764 
L 234.382051 234.039173 
L 234.382051 234.003211 
L 235.42896 234.055337 
L 235.42896 234.020315 
L 236.131626 234.062217 
L 236.131626 233.999772 
L 237.175357 233.996686 
L 237.175357 234.016867 
L 238.22251 234.076513 
L 238.22251 234.032189 
L 239.276021 234.045471 
L 239.276021 234.045289 
L 240.325375 234.027787 
L 241.384509 234.069629 
L 242.438019 234.066905 
L 243.838217 234.095686 
L 243.838217 234.068793 
L 244.897351 234.05477 
L 244.897351 234.052611 
L 282.615421 234.129734 
L 282.615421 234.133264 
L 285.502856 234.140992 
L 305.43056 234.167487 
L 422.262887 234.067261 
L 422.262887 234.069934 
L 425.167926 233.999243 
L 426.983269 233.986195 
L 426.983269 233.950547 
L 428.076143 233.981467 
L 428.076143 233.941679 
L 429.526706 233.964074 
L 429.526706 233.93513 
L 430.613956 233.948577 
L 430.613956 233.894097 
L 430.999762 233.779051 
L 430.999762 233.281618 
L 431.362098 232.932975 
L 431.362098 231.345166 
L 431.720032 230.326729 
L 431.720032 226.727628 
L 432.070143 225.206837 
L 432.070143 218.076982 
L 432.414875 216.652294 
L 432.414875 205.280271 
L 432.752272 189.563184 
L 433.09138 185.848753 
L 433.09138 171.610697 
L 433.42291 167.566966 
L 433.42291 154.119548 
L 433.752728 165.806275 
L 433.752728 143.240122 
L 434.083279 156.585959 
L 434.083279 130.901054 
L 434.412119 147.529825 
L 434.412119 119.678745 
L 434.741448 137.617032 
L 434.741448 109.385395 
L 435.069799 95.966741 
L 435.397906 54.7019 
L 435.726257 80.368718 
L 435.726257 49.932727 
L 436.054608 74.60498 
L 436.054608 84.451605 
L 436.382959 123.25202 
L 436.382959 94.3159 
L 436.710821 125.989703 
L 436.710821 98.454679 
L 437.040394 87.302574 
L 437.368501 87.826728 
L 437.368501 90.114178 
L 437.696607 89.064396 
L 437.696607 89.335498 
L 438.030093 128.755926 
L 438.030093 100.793511 
L 438.358688 127.485606 
L 438.358688 102.019262 
L 438.687039 132.432678 
L 438.687039 106.196396 
L 439.01539 138.451907 
L 439.01539 114.797712 
L 439.343741 143.794083 
L 439.343741 118.710942 
L 439.672337 146.45862 
L 439.672337 122.880726 
L 440.002155 120.200534 
L 440.331239 120.311887 
L 440.331239 126.761323 
L 440.660324 126.253265 
L 440.660324 131.721919 
L 440.989164 139.032945 
L 441.322404 138.588175 
L 441.322404 142.083888 
L 441.652222 144.299121 
L 441.652222 146.105948 
L 441.982285 170.38799 
L 441.982285 156.904105 
L 442.312592 175.233243 
L 442.312592 160.094144 
L 442.643143 178.901077 
L 442.643143 165.02293 
L 442.979318 180.30644 
L 442.979318 169.194667 
L 443.310603 185.089485 
L 443.310603 172.584555 
L 443.641643 186.197182 
L 443.641643 175.243509 
L 443.972684 189.050739 
L 443.972684 177.361902 
L 444.30568 191.032522 
L 444.30568 181.604419 
L 444.637454 195.666775 
L 444.637454 183.291607 
L 444.969961 195.531519 
L 444.969961 185.906616 
L 445.30198 197.253505 
L 445.30198 186.260779 
L 445.634976 199.076656 
L 445.634976 191.441898 
L 445.968706 201.601718 
L 445.968706 193.05778 
L 446.302436 203.449117 
L 446.302436 195.678869 
L 446.635921 204.726052 
L 446.635921 196.832273 
L 446.970873 206.411988 
L 446.970873 199.332962 
L 447.305092 207.379916 
L 447.305092 200.556002 
L 447.640289 209.498128 
L 447.640289 202.209447 
L 447.981842 210.133676 
L 447.981842 203.255451 
L 448.31655 210.367408 
L 448.31655 203.254129 
L 448.651747 210.664659 
L 448.651747 204.764153 
L 448.98841 212.048991 
L 448.98841 206.417646 
L 449.323607 213.915295 
L 449.323607 208.66625 
L 449.660026 214.830959 
L 449.660026 209.863878 
L 449.998157 215.91217 
L 449.998157 210.570001 
L 450.336532 215.920031 
L 450.336532 211.851754 
L 450.675641 217.248025 
L 450.675641 212.058335 
L 451.016461 217.432286 
L 451.016461 213.087149 
L 451.354836 217.566417 
L 451.354836 213.215872 
L 451.697123 218.61888 
L 451.697123 214.097542 
L 452.03941 219.02289 
L 452.03941 214.851386 
L 452.38023 219.430106 
L 452.38023 215.427185 
L 452.720317 220.178055 
L 452.720317 216.363075 
L 453.06676 220.855142 
L 453.06676 217.023098 
L 453.408558 221.232149 
L 453.408558 217.455461 
L 453.752067 221.1777 
L 453.752067 217.811347 
L 454.094599 221.779729 
L 454.094599 218.479025 
L 454.43982 222.408332 
L 454.43982 219.709463 
L 454.783085 222.994346 
L 454.783085 219.978288 
L 455.126105 223.452451 
L 455.126105 220.497446 
L 455.469859 223.634639 
L 455.469859 220.760183 
L 455.814102 224.092553 
L 455.814102 220.999239 
L 456.159567 224.099597 
L 456.159567 221.587034 
L 456.506744 224.627723 
L 456.506744 221.678123 
L 456.852454 224.934375 
L 456.852454 222.509622 
L 457.201098 225.105836 
L 457.201098 222.797012 
L 457.550719 225.759525 
L 457.550719 223.565388 
L 457.900341 226.156046 
L 457.900341 224.037596 
L 458.255831 226.484683 
L 458.255831 224.383626 
L 458.605208 226.639825 
L 458.605208 224.580318 
L 458.955563 226.83319 
L 458.955563 224.717541 
L 459.305429 226.988081 
L 459.305429 225.197226 
L 459.65554 227.305922 
L 459.65554 225.451839 
L 460.005651 227.638264 
L 460.005651 225.851551 
L 460.355272 227.805095 
L 460.355272 226.116137 
L 460.706605 228.085643 
L 460.706605 226.491596 
L 461.056227 228.43177 
L 461.056227 226.807919 
L 461.405604 228.740825 
L 461.405604 227.050357 
L 461.754737 228.715804 
L 461.754737 227.126052 
L 462.106559 228.864083 
L 462.106559 227.276966 
L 462.455447 229.060936 
L 462.455447 227.727505 
L 462.80458 229.359979 
L 462.80458 228.039444 
L 463.159581 229.612393 
L 463.159581 228.357983 
L 463.509202 229.787482 
L 463.509202 228.525797 
L 463.860291 229.869025 
L 463.860291 228.639119 
L 464.211135 229.924398 
L 464.211135 228.785379 
L 464.562957 230.047861 
L 464.562957 228.87089 
L 464.914779 230.091886 
L 464.914779 228.954879 
L 465.267579 230.191945 
L 465.267579 229.055566 
L 465.62038 230.262438 
L 465.62038 229.165943 
L 465.973669 230.378465 
L 465.973669 229.351229 
L 466.32818 230.510409 
L 466.32818 229.519707 
L 466.681958 230.674839 
L 466.681958 229.715744 
L 467.037448 230.78257 
L 467.037448 229.821728 
L 467.392448 230.837932 
L 467.392448 229.936692 
L 467.748182 230.873742 
L 467.748182 229.906759 
L 468.108317 230.911854 
L 468.108317 230.044615 
L 468.464784 230.938091 
L 468.464784 230.055797 
L 468.82223 231.006639 
L 468.82223 230.142603 
L 469.178697 231.008683 
L 469.178697 230.212081 
L 469.536387 231.120805 
L 469.536387 230.336264 
L 469.892855 231.225848 
L 469.892855 230.445697 
L 470.251033 231.303462 
L 470.251033 230.507407 
L 470.609212 231.398817 
L 470.609212 230.646633 
L 470.96788 231.55126 
L 470.96788 230.679954 
L 471.326304 231.602595 
L 471.326304 230.748636 
L 471.688394 231.517852 
L 471.688394 230.726306 
L 472.046573 231.61751 
L 472.046573 230.859278 
L 472.40573 231.725972 
L 472.40573 231.006277 
L 472.764887 231.74079 
L 472.764887 231.115483 
L 473.129422 231.840271 
L 473.129422 231.189362 
L 473.488824 232.00394 
L 473.488824 231.343265 
L 473.84847 231.991912 
L 473.84847 231.37846 
L 474.208604 232.069547 
L 474.208604 231.357901 
L 474.568739 232.050827 
L 474.568739 231.492669 
L 474.929119 232.145837 
L 474.929119 231.510428 
L 475.289498 232.215589 
L 475.289498 231.581584 
L 475.650122 232.185082 
L 475.650122 231.571436 
L 476.011234 232.18623 
L 476.011234 231.617585 
L 476.371369 232.271106 
L 476.371369 231.698778 
L 476.732482 232.271449 
L 476.732482 231.733477 
L 477.093839 232.297326 
L 477.093839 231.80309 
L 477.456419 232.379605 
L 477.456419 231.854096 
L 477.817776 232.379876 
L 477.817776 231.856979 
L 478.186713 232.372688 
L 478.186713 231.866186 
L 478.548803 232.435729 
L 478.548803 231.944619 
L 478.910894 232.497442 
L 478.910894 232.039731 
L 479.272251 232.567027 
L 479.272251 232.094215 
L 479.634098 232.625582 
L 479.634098 232.116023 
L 479.996677 232.623636 
L 479.996677 232.146259 
L 480.359013 232.638514 
L 480.359013 232.163493 
L 480.720614 232.681119 
L 480.720614 232.203797 
L 481.08295 232.684121 
L 481.08295 232.191718 
L 481.445529 232.657788 
L 481.445529 232.230161 
L 481.807864 232.69936 
L 481.807864 232.259444 
L 482.1724 232.780671 
L 482.1724 232.335966 
L 482.534246 232.772987 
L 482.534246 232.339722 
L 482.895359 232.779951 
L 482.895359 232.387209 
L 483.262095 232.842592 
L 483.262095 232.430819 
L 483.621497 232.875525 
L 483.621497 232.497973 
L 483.982365 232.899261 
L 483.982365 232.470817 
L 484.343233 232.855745 
L 484.343233 232.450377 
L 484.703612 232.834567 
L 484.703612 232.436976 
L 485.064725 232.901576 
L 485.064725 232.543986 
L 485.426816 232.917641 
L 485.426816 232.561788 
L 485.78744 232.947241 
L 485.78744 232.553801 
L 486.149775 232.953083 
L 486.149775 232.606805 
L 486.512355 232.994575 
L 486.512355 232.589032 
L 486.874934 232.968339 
L 486.874934 232.63923 
L 487.237514 233.021475 
L 487.237514 232.668127 
L 487.601561 233.096971 
L 487.601561 232.741019 
L 487.96414 233.074451 
L 487.96414 232.740004 
L 488.332099 233.08444 
L 488.332099 232.735653 
L 488.694679 233.095209 
L 488.694679 232.753966 
L 489.057258 233.089657 
L 489.057258 232.762478 
L 489.419838 233.102163 
L 489.419838 232.776507 
L 489.782173 233.123601 
L 489.782173 232.853387 
L 490.144997 233.208765 
L 490.144997 232.903409 
L 490.507577 233.255832 
L 490.507577 232.947246 
L 490.870157 233.231726 
L 490.870157 232.927738 
L 491.232492 233.238402 
L 491.232492 232.920929 
L 491.595072 233.232549 
L 491.595072 232.987693 
L 491.957652 233.291387 
L 491.957652 233.002741 
L 492.324143 233.312042 
L 492.324143 233.032886 
L 492.686723 233.277605 
L 492.686723 233.00244 
L 493.049303 233.293965 
L 493.049303 233.020001 
L 493.417506 233.299469 
L 493.417506 233.026409 
L 493.780085 233.287806 
L 493.780085 233.012325 
L 494.142665 233.283323 
L 494.142665 233.068254 
L 494.505245 233.342932 
L 494.505245 233.100563 
L 494.867824 233.372106 
L 494.867824 233.121681 
L 495.230404 233.349361 
L 495.230404 233.102691 
L 495.592984 233.352516 
L 495.592984 233.126299 
L 495.955563 233.386907 
L 495.955563 233.134237 
L 496.318143 233.404673 
L 496.318143 233.175219 
L 496.680723 233.415351 
L 496.680723 233.19382 
L 497.043303 233.463315 
L 497.043303 233.205792 
L 497.405882 233.447859 
L 497.405882 233.233824 
L 497.768707 233.458462 
L 497.768707 233.228464 
L 498.131042 233.476524 
L 498.131042 233.271632 
L 498.499 233.502306 
L 498.499 233.27797 
L 498.86158 233.49266 
L 498.86158 233.28183 
L 499.223915 233.492986 
L 499.223915 233.258214 
L 499.586495 233.485297 
L 499.586495 233.302609 
L 499.949075 233.533069 
L 499.949075 233.324853 
L 500.311899 233.551737 
L 500.311899 233.341191 
L 500.674234 233.531438 
L 500.674234 233.314001 
L 501.036814 233.510399 
L 501.036814 233.311704 
L 501.399393 233.520409 
L 501.399393 233.331902 
L 501.761973 233.525496 
L 501.761973 233.344021 
L 502.126998 233.545512 
L 502.126998 233.371769 
L 502.489578 233.559024 
L 502.489578 233.376329 
L 502.852157 233.582257 
L 502.852157 233.401048 
L 503.214737 233.592913 
L 503.214737 233.424641 
L 503.582451 233.632563 
L 503.582451 233.425099 
L 503.945031 233.604416 
L 503.945031 233.419371 
L 504.311033 233.601529 
L 504.311033 233.414042 
L 504.673613 233.61842 
L 504.673613 233.440847 
L 505.036193 233.617037 
L 505.036193 233.437612 
L 505.398772 233.61591 
L 505.398772 233.44577 
L 505.761352 233.633826 
L 505.761352 233.439772 
L 506.123932 233.624815 
L 506.123932 233.464592 
L 506.486267 233.635349 
L 506.486267 233.438867 
L 506.848847 233.635584 
L 506.848847 233.463296 
L 507.211426 233.630594 
L 507.211426 233.471763 
L 507.574006 233.665668 
L 507.574006 233.506447 
L 507.936586 233.672601 
L 507.936586 233.50493 
L 508.298921 233.657165 
L 508.298921 233.504506 
L 508.66688 233.666655 
L 508.66688 233.513979 
L 509.029459 233.677234 
L 509.029459 233.52862 
L 509.392039 233.694152 
L 509.392039 233.527504 
L 509.754619 233.676686 
L 509.754619 233.532525 
L 510.117198 233.688289 
L 510.117198 233.541747 
L 510.479778 233.712726 
L 510.479778 233.580788 
L 510.842358 233.73682 
L 510.842358 233.594613 
L 511.204693 233.728616 
L 511.204693 233.593285 
L 511.567273 233.738835 
L 511.567273 233.60115 
L 511.929853 233.734481 
L 511.929853 233.601469 
L 512.292432 233.737146 
L 512.292432 233.618445 
L 512.654767 233.760129 
L 512.654767 233.626005 
L 513.017103 233.763752 
L 513.017103 233.636333 
L 513.379682 233.762784 
L 513.379682 233.63484 
L 513.747396 233.78585 
L 513.747396 233.646312 
L 514.109732 233.783553 
L 514.109732 233.655066 
L 514.47549 233.786206 
L 514.47549 233.656995 
L 514.838069 233.79755 
L 514.838069 233.666972 
L 515.200405 233.784317 
L 515.200405 233.645544 
L 515.562984 233.773905 
L 515.562984 233.650693 
L 515.92532 233.76875 
L 515.92532 233.646554 
L 516.287899 233.784655 
L 516.287899 233.649633 
L 516.65219 233.783127 
L 516.65219 233.661583 
L 517.01477 233.790701 
L 517.01477 233.65899 
L 517.37735 233.793413 
L 517.37735 233.650588 
L 518.102265 233.795579 
L 518.102265 233.679143 
L 518.4646 233.823924 
L 518.4646 233.712563 
L 519.195627 233.839536 
L 519.195627 233.723759 
L 519.557962 233.843571 
L 519.557962 233.725583 
L 520.283122 233.832399 
L 520.283122 233.72382 
L 521.008037 233.838464 
L 521.008037 233.724786 
L 521.370372 233.829769 
L 521.370372 233.711407 
L 521.732952 233.829813 
L 521.732952 233.714952 
L 522.457867 233.839152 
L 522.457867 233.737289 
L 523.182782 233.865398 
L 523.182782 233.76908 
L 523.917476 233.883279 
L 523.917476 233.793756 
L 524.642391 233.891799 
L 524.642391 233.790462 
L 525.367062 233.874413 
L 525.367062 233.769906 
L 526.091977 233.877672 
L 526.091977 233.769562 
L 526.816891 233.898418 
L 526.816891 233.806392 
L 527.179471 233.91588 
L 527.179471 233.815672 
L 527.904142 233.895553 
L 527.904142 233.803208 
L 528.629301 233.912645 
L 528.629301 233.824539 
L 529.359595 233.908268 
L 529.359595 233.821555 
L 530.08451 233.903616 
L 530.08451 233.809141 
L 530.809425 233.890887 
L 530.809425 233.812105 
L 531.536296 233.924236 
L 531.536296 233.845631 
L 532.261455 233.937072 
L 532.261455 233.86294 
L 532.989059 233.94893 
L 532.989059 233.870508 
L 533.714708 233.943292 
L 533.714708 233.854249 
L 534.445246 233.937164 
L 534.445246 233.860103 
L 535.169916 233.940835 
L 535.169916 233.858937 
L 535.894831 233.936016 
L 535.894831 233.858239 
L 536.619991 233.939144 
L 536.619991 233.869487 
L 537.344661 233.943181 
L 537.344661 233.877084 
L 538.069576 233.964767 
L 538.069576 233.88713 
L 538.795958 233.950719 
L 538.795958 233.874653 
L 539.526252 233.952223 
L 539.526252 233.885404 
L 540.251167 233.971214 
L 540.251167 233.894077 
L 540.976082 233.955388 
L 540.976082 233.884792 
L 541.700996 233.970409 
L 541.700996 233.911259 
L 542.425911 233.97606 
L 542.425911 233.905928 
L 543.51634 233.986856 
L 543.51634 233.922556 
L 544.247123 233.975781 
L 544.247123 233.904061 
L 544.972038 233.974842 
L 544.972038 233.915689 
L 545.696953 233.97526 
L 545.696953 233.908531 
L 546.784447 233.990814 
L 546.784447 233.932521 
L 547.509118 233.99184 
L 547.509118 233.938529 
L 548.596612 233.998015 
L 548.596612 233.93882 
L 549.326906 233.999146 
L 549.326906 233.941131 
L 550.051576 233.996218 
L 550.051576 233.938179 
L 551.139071 233.999744 
L 551.139071 233.946648 
L 551.863986 233.995691 
L 551.863986 233.93774 
L 552.952948 233.995433 
L 552.952948 233.94491 
L 554.040198 234.000609 
L 554.040198 233.949794 
L 554.773425 234.004971 
L 554.773425 233.948468 
L 555.86092 234.012366 
L 555.86092 233.960193 
L 556.585835 234.008362 
L 556.585835 233.945851 
L 557.310505 233.999805 
L 557.310505 233.943219 
L 558.035665 234.014315 
L 558.035665 233.961173 
L 558.76058 234.009535 
L 558.76058 233.949942 
L 559.852964 234.012284 
L 559.852964 233.961208 
L 560.941681 234.023429 
L 560.941681 233.974194 
L 562.028932 234.013388 
L 562.028932 233.971886 
L 563.116671 234.0242 
L 563.116671 233.974953 
L 564.206855 234.011118 
L 564.206855 233.957802 
L 565.299728 234.022978 
L 565.299728 233.967747 
L 566.386978 234.021319 
L 566.386978 233.964281 
L 567.47594 234.021854 
L 567.47594 233.975128 
L 568.56319 234.037765 
L 568.56319 234.001733 
L 569.656063 234.038515 
L 569.656063 233.998628 
L 570.743558 234.041017 
L 570.743558 233.999839 
L 571.830808 234.039194 
L 571.830808 234.003433 
L 572.918303 234.048491 
L 572.918303 234.00607 
L 574.008242 234.047235 
L 574.008242 234.002 
L 575.103561 234.043122 
L 575.103561 233.998491 
L 576.190811 234.041046 
L 576.190811 233.999012 
L 577.27855 234.039323 
L 577.27855 233.995133 
L 578.728136 234.05003 
L 578.728136 234.012382 
L 579.821253 234.049319 
L 579.821253 234.003534 
L 580.908504 234.051087 
L 580.908504 234.012929 
L 582.3598 234.054109 
L 582.3598 234.013934 
L 583.450229 234.057853 
L 583.450229 234.01709 
L 584.537724 234.057206 
L 584.537724 234.022357 
L 585.630353 234.064074 
L 585.630353 234.022628 
L 587.080182 234.065113 
L 587.080182 234.032071 
L 588.167433 234.064869 
L 588.167433 234.026808 
L 589.254927 234.059945 
L 589.254927 234.02188 
L 590.709891 234.0644 
L 590.709891 234.024515 
L 592.16021 234.076306 
L 592.16021 234.045357 
L 593.613218 234.066549 
L 593.613218 234.029399 
L 595.068427 234.069021 
L 595.068427 234.037173 
L 596.518257 234.074573 
L 596.518257 234.039882 
L 597.984468 234.068056 
L 597.984468 234.031234 
L 599.434298 234.079598 
L 599.434298 234.045098 
L 600.889506 234.079542 
L 600.889506 234.050324 
L 601.977001 234.075503 
L 601.977001 234.048841 
L 606.334559 234.049833 
L 607.784389 234.086134 
L 607.784389 234.054791 
L 609.596798 234.086985 
L 609.596798 234.053169 
L 611.051762 234.086863 
L 611.051762 234.052926 
L 612.507216 234.08279 
L 612.507216 234.056431 
L 613.960224 234.089214 
L 613.960224 234.058298 
L 615.415432 234.089324 
L 615.415432 234.062521 
L 616.865507 234.090866 
L 616.865507 234.061342 
L 618.679383 234.089678 
L 618.679383 234.060554 
L 620.497172 234.094009 
L 620.497172 234.06145 
L 621.947002 234.097134 
L 621.947002 234.070143 
L 623.396831 234.093575 
L 623.396831 234.068736 
L 625.212175 234.097987 
L 625.212175 234.072901 
L 627.030697 234.106092 
L 627.030697 234.077265 
L 628.842862 234.098449 
L 628.842862 234.071577 
L 630.660406 234.101377 
L 630.660406 234.073077 
L 632.835151 234.101573 
L 632.835151 234.080387 
L 634.285714 234.10276 
L 634.285714 234.076251 
L 636.106436 234.103477 
L 636.106436 234.078824 
L 637.919335 234.101523 
L 637.919335 234.07567 
L 639.731744 234.106225 
L 639.731744 234.085087 
L 641.187931 234.074883 
L 641.187931 234.051034 
L 643.362431 234.102952 
L 643.362431 234.082609 
L 656.798907 234.087581 
L 658.24947 234.111016 
L 658.24947 234.088302 
L 660.062124 234.090923 
L 674.94574 234.104979 
L 676.767929 234.120917 
L 676.767929 234.098651 
L 812.632391 234.08578 
L 812.632391 234.08578 
" clip-path="url(#p998f3645c7)" style="fill: none; stroke: #008000; stroke-width: 1.5; stroke-linecap: square"/>
   </g>
   <g id="patch_3">
    <path d="M 47.72 534.04 
L 47.72 26.88 
" style="fill: none; stroke: #000000; stroke-width: 0.8; stroke-linejoin: miter; stroke-linecap: square"/>
   </g>
   <g id="patch_4">
    <path d="M 853.2 534.04 
L 853.2 26.88 
" style="fill: none; stroke: #000000; stroke-width: 0.8; stroke-linejoin: miter; stroke-linecap: square"/>
   </g>
   <g id="patch_5">
    <path d="M 47.72 534.04 
L 853.2 534.04 
" style="fill: none; stroke: #000000; stroke-width: 0.8; stroke-linejoin: miter; stroke-linecap: square"/>
   </g>
   <g id="patch_6">
    <path d="M 47.72 26.88 
L 853.2 26.88 
" style="fill: none; stroke: #000000; stroke-width: 0.8; stroke-linejoin: miter; stroke-linecap: square"/>
   </g>
   <g id="patch_7">
    <path d="M 503.291931 313.164505 
Q 477.140812 318.991886 450.989693 324.819267 
L 451.859694 328.723508 
Q 445.35264 327.099926 438.845586 325.476344 
Q 444.047638 321.243564 449.249691 317.010785 
L 450.119692 320.915026 
Q 476.270811 315.087645 502.42193 309.260264 
L 503.291931 313.164505 
z
" style="stroke: #000000; stroke-linecap: round"/>
   </g>
   <g id="text_15">
    <!-- Peak: RT=2.40, Area=3.21e+04 -->
    <g style="fill: #ff0000" transform="translate(508.528987 296.670953) scale(0.1 -0.1)">
     <defs>
      <path id="DejaVuSans-50" d="M 1259 4147 
L 1259 2394 
L 2053 2394 
Q 2494 2394 2734 2622 
Q 2975 2850 2975 3272 
Q 2975 3691 2734 3919 
Q 2494 4147 2053 4147 
L 1259 4147 
z
M 628 4666 
L 2053 4666 
Q 2838 4666 3239 4311 
Q 3641 3956 3641 3272 
Q 3641 2581 3239 2228 
Q 2838 1875 2053 1875 
L 1259 1875 
L 1259 0 
L 628 0 
L 628 4666 
z
" transform="scale(0.015625)"/>
      <path id="DejaVuSans-6b" d="M 581 4863 
L 1159 4863 
L 1159 1991 
L 2875 3500 
L 3609 3500 
L 1753 1863 
L 3688 0 
L 2938 0 
L 1159 1709 
L 1159 0 
L 581 0 
L 581 4863 
z
" transform="scale(0.015625)"/>
      <path id="DejaVuSans-3a" d="M 750 794 
L 1409 794 
L 1409 0 
L 750 0 
L 750 794 
z
M 750 3309 
L 1409 3309 
L 1409 2516 
L 750 2516 
L 750 3309 
z
" transform="scale(0.015625)"/>
      <path id="DejaVuSans-3d" d="M 678 2906 
L 4684 2906 
L 4684 2381 
L 678 2381 
L 678 2906 
z
M 678 1631 
L 4684 1631 
L 4684 1100 
L 678 1100 
L 678 1631 
z
" transform="scale(0.015625)"/>
      <path id="DejaVuSans-2c" d="M 750 794 
L 1409 794 
L 1409 256 
L 897 -744 
L 494 -744 
L 750 256 
L 750 794 
z
" transform="scale(0.015625)"/>
      <path id="DejaVuSans-41" d="M 2188 4044 
L 1331 1722 
L 3047 1722 
L 2188 4044 
z
M 1831 4666 
L 2547 4666 
L 4325 0 
L 3669 0 
L 3244 1197 
L 1141 1197 
L 716 0 
L 50 0 
L 1831 4666 
z
" transform="scale(0.015625)"/>
      <path id="DejaVuSans-2b" d="M 2944 4013 
L 2944 2272 
L 4684 2272 
L 4684 1741 
L 2944 1741 
L 2944 0 
L 2419 0 
L 2419 1741 
L 678 1741 
L 678 2272 
L 2419 2272 
L 2419 4013 
L 2944 4013 
z
" transform="scale(0.015625)"/>
     </defs>
     <use xlink:href="#DejaVuSans-50"/>
     <use xlink:href="#DejaVuSans-65" transform="translate(56.677734 0)"/>
     <use xlink:href="#DejaVuSans-61" transform="translate(118.201172 0)"/>
     <use xlink:href="#DejaVuSans-6b" transform="translate(179.480469 0)"/>
     <use xlink:href="#DejaVuSans-3a" transform="translate(237.390625 0)"/>
     <use xlink:href="#DejaVuSans-20" transform="translate(271.082031 0)"/>
     <use xlink:href="#DejaVuSans-52" transform="translate(302.869141 0)"/>
     <use xlink:href="#DejaVuSans-54" transform="translate(365.101562 0)"/>
     <use xlink:href="#DejaVuSans-3d" transform="translate(426.185547 0)"/>
     <use xlink:href="#DejaVuSans-32" transform="translate(509.974609 0)"/>
     <use xlink:href="#DejaVuSans-2e" transform="translate(573.597656 0)"/>
     <use xlink:href="#DejaVuSans-34" transform="translate(605.384766 0)"/>
     <use xlink:href="#DejaVuSans-30" transform="translate(669.007812 0)"/>
     <use xlink:href="#DejaVuSans-2c" transform="translate(732.630859 0)"/>
     <use xlink:href="#DejaVuSans-20" transform="translate(764.417969 0)"/>
     <use xlink:href="#DejaVuSans-41" transform="translate(796.205078 0)"/>
     <use xlink:href="#DejaVuSans-72" transform="translate(864.613281 0)"/>
     <use xlink:href="#DejaVuSans-65" transform="translate(903.476562 0)"/>
     <use xlink:href="#DejaVuSans-61" transform="translate(965 0)"/>
     <use xlink:href="#DejaVuSans-3d" transform="translate(1026.279297 0)"/>
     <use xlink:href="#DejaVuSans-33" transform="translate(1110.068359 0)"/>
     <use xlink:href="#DejaVuSans-2e" transform="translate(1173.691406 0)"/>
     <use xlink:href="#DejaVuSans-32" transform="translate(1205.478516 0)"/>
     <use xlink:href="#DejaVuSans-31" transform="translate(1269.101562 0)"/>
     <use xlink:href="#DejaVuSans-65" transform="translate(1332.724609 0)"/>
     <use xlink:href="#DejaVuSans-2b" transform="translate(1394.248047 0)"/>
     <use xlink:href="#DejaVuSans-30" transform="translate(1478.037109 0)"/>
     <use xlink:href="#DejaVuSans-34" transform="translate(1541.660156 0)"/>
    </g>
    <!-- (82.77% of total) -->
    <g style="fill: #ff0000" transform="translate(508.528987 307.868766) scale(0.1 -0.1)">
     <defs>
      <path id="DejaVuSans-38" d="M 2034 2216 
Q 1584 2216 1326 1975 
Q 1069 1734 1069 1313 
Q 1069 891 1326 650 
Q 1584 409 2034 409 
Q 2484 409 2743 651 
Q 3003 894 3003 1313 
Q 3003 1734 2745 1975 
Q 2488 2216 2034 2216 
z
M 1403 2484 
Q 997 2584 770 2862 
Q 544 3141 544 3541 
Q 544 4100 942 4425 
Q 1341 4750 2034 4750 
Q 2731 4750 3128 4425 
Q 3525 4100 3525 3541 
Q 3525 3141 3298 2862 
Q 3072 2584 2669 2484 
Q 3125 2378 3379 2068 
Q 3634 1759 3634 1313 
Q 3634 634 3220 271 
Q 2806 -91 2034 -91 
Q 1263 -91 848 271 
Q 434 634 434 1313 
Q 434 1759 690 2068 
Q 947 2378 1403 2484 
z
M 1172 3481 
Q 1172 3119 1398 2916 
Q 1625 2713 2034 2713 
Q 2441 2713 2670 2916 
Q 2900 3119 2900 3481 
Q 2900 3844 2670 4047 
Q 2441 4250 2034 4250 
Q 1625 4250 1398 4047 
Q 1172 3844 1172 3481 
z
" transform="scale(0.015625)"/>
      <path id="DejaVuSans-37" d="M 525 4666 
L 3525 4666 
L 3525 4397 
L 1831 0 
L 1172 0 
L 2766 4134 
L 525 4134 
L 525 4666 
z
" transform="scale(0.015625)"/>
      <path id="DejaVuSans-25" d="M 4653 2053 
Q 4381 2053 4226 1822 
Q 4072 1591 4072 1178 
Q 4072 772 4226 539 
Q 4381 306 4653 306 
Q 4919 306 5073 539 
Q 5228 772 5228 1178 
Q 5228 1588 5073 1820 
Q 4919 2053 4653 2053 
z
M 4653 2450 
Q 5147 2450 5437 2106 
Q 5728 1763 5728 1178 
Q 5728 594 5436 251 
Q 5144 -91 4653 -91 
Q 4153 -91 3862 251 
Q 3572 594 3572 1178 
Q 3572 1766 3864 2108 
Q 4156 2450 4653 2450 
z
M 1428 4353 
Q 1159 4353 1004 4120 
Q 850 3888 850 3481 
Q 850 3069 1003 2837 
Q 1156 2606 1428 2606 
Q 1700 2606 1854 2837 
Q 2009 3069 2009 3481 
Q 2009 3884 1853 4118 
Q 1697 4353 1428 4353 
z
M 4250 4750 
L 4750 4750 
L 1831 -91 
L 1331 -91 
L 4250 4750 
z
M 1428 4750 
Q 1922 4750 2215 4408 
Q 2509 4066 2509 3481 
Q 2509 2891 2217 2550 
Q 1925 2209 1428 2209 
Q 931 2209 642 2551 
Q 353 2894 353 3481 
Q 353 4063 643 4406 
Q 934 4750 1428 4750 
z
" transform="scale(0.015625)"/>
      <path id="DejaVuSans-66" d="M 2375 4863 
L 2375 4384 
L 1825 4384 
Q 1516 4384 1395 4259 
Q 1275 4134 1275 3809 
L 1275 3500 
L 2222 3500 
L 2222 3053 
L 1275 3053 
L 1275 0 
L 697 0 
L 697 3053 
L 147 3053 
L 147 3500 
L 697 3500 
L 697 3744 
Q 697 4328 969 4595 
Q 1241 4863 1831 4863 
L 2375 4863 
z
" transform="scale(0.015625)"/>
     </defs>
     <use xlink:href="#DejaVuSans-28"/>
     <use xlink:href="#DejaVuSans-38" transform="translate(39.013672 0)"/>
     <use xlink:href="#DejaVuSans-32" transform="translate(102.636719 0)"/>
     <use xlink:href="#DejaVuSans-2e" transform="translate(166.259766 0)"/>
     <use xlink:href="#DejaVuSans-37" transform="translate(198.046875 0)"/>
     <use xlink:href="#DejaVuSans-37" transform="translate(261.669922 0)"/>
     <use xlink:href="#DejaVuSans-25" transform="translate(325.292969 0)"/>
     <use xlink:href="#DejaVuSans-20" transform="translate(420.3125 0)"/>
     <use xlink:href="#DejaVuSans-6f" transform="translate(452.099609 0)"/>
     <use xlink:href="#DejaVuSans-66" transform="translate(513.28125 0)"/>
     <use xlink:href="#DejaVuSans-20" transform="translate(548.486328 0)"/>
     <use xlink:href="#DejaVuSans-74" transform="translate(580.273438 0)"/>
     <use xlink:href="#DejaVuSans-6f" transform="translate(619.482422 0)"/>
     <use xlink:href="#DejaVuSans-74" transform="translate(680.664062 0)"/>
     <use xlink:href="#DejaVuSans-61" transform="translate(719.873047 0)"/>
     <use xlink:href="#DejaVuSans-6c" transform="translate(781.152344 0)"/>
     <use xlink:href="#DejaVuSans-29" transform="translate(808.935547 0)"/>
    </g>
   </g>
   <g id="text_16">
    <!-- UV &amp; MS Chromatograms: IrCp1B7, target m/z=595.1458136 -->
    <g transform="translate(266.112813 20.88) scale(0.12 -0.12)">
     <defs>
      <path id="DejaVuSans-55" d="M 556 4666 
L 1191 4666 
L 1191 1831 
Q 1191 1081 1462 751 
Q 1734 422 2344 422 
Q 2950 422 3222 751 
Q 3494 1081 3494 1831 
L 3494 4666 
L 4128 4666 
L 4128 1753 
Q 4128 841 3676 375 
Q 3225 -91 2344 -91 
Q 1459 -91 1007 375 
Q 556 841 556 1753 
L 556 4666 
z
" transform="scale(0.015625)"/>
      <path id="DejaVuSans-56" d="M 1831 0 
L 50 4666 
L 709 4666 
L 2188 738 
L 3669 4666 
L 4325 4666 
L 2547 0 
L 1831 0 
z
" transform="scale(0.015625)"/>
      <path id="DejaVuSans-26" d="M 1556 2509 
Q 1272 2256 1139 2004 
Q 1006 1753 1006 1478 
Q 1006 1022 1337 719 
Q 1669 416 2169 416 
Q 2466 416 2725 514 
Q 2984 613 3213 813 
L 1556 2509 
z
M 1997 2859 
L 3584 1234 
Q 3769 1513 3872 1830 
Q 3975 2147 3994 2503 
L 4575 2503 
Q 4538 2091 4375 1687 
Q 4213 1284 3922 891 
L 4794 0 
L 4006 0 
L 3559 459 
Q 3234 181 2878 45 
Q 2522 -91 2113 -91 
Q 1359 -91 881 339 
Q 403 769 403 1441 
Q 403 1841 612 2192 
Q 822 2544 1241 2853 
Q 1091 3050 1012 3245 
Q 934 3441 934 3628 
Q 934 4134 1281 4442 
Q 1628 4750 2203 4750 
Q 2463 4750 2720 4694 
Q 2978 4638 3244 4525 
L 3244 3956 
Q 2972 4103 2725 4179 
Q 2478 4256 2266 4256 
Q 1938 4256 1733 4082 
Q 1528 3909 1528 3634 
Q 1528 3475 1620 3314 
Q 1713 3153 1997 2859 
z
" transform="scale(0.015625)"/>
      <path id="DejaVuSans-4d" d="M 628 4666 
L 1569 4666 
L 2759 1491 
L 3956 4666 
L 4897 4666 
L 4897 0 
L 4281 0 
L 4281 4097 
L 3078 897 
L 2444 897 
L 1241 4097 
L 1241 0 
L 628 0 
L 628 4666 
z
" transform="scale(0.015625)"/>
      <path id="DejaVuSans-53" d="M 3425 4513 
L 3425 3897 
Q 3066 4069 2747 4153 
Q 2428 4238 2131 4238 
Q 1616 4238 1336 4038 
Q 1056 3838 1056 3469 
Q 1056 3159 1242 3001 
Q 1428 2844 1947 2747 
L 2328 2669 
Q 3034 2534 3370 2195 
Q 3706 1856 3706 1288 
Q 3706 609 3251 259 
Q 2797 -91 1919 -91 
Q 1588 -91 1214 -16 
Q 841 59 441 206 
L 441 856 
Q 825 641 1194 531 
Q 1563 422 1919 422 
Q 2459 422 2753 634 
Q 3047 847 3047 1241 
Q 3047 1584 2836 1778 
Q 2625 1972 2144 2069 
L 1759 2144 
Q 1053 2284 737 2584 
Q 422 2884 422 3419 
Q 422 4038 858 4394 
Q 1294 4750 2059 4750 
Q 2388 4750 2728 4690 
Q 3069 4631 3425 4513 
z
" transform="scale(0.015625)"/>
      <path id="DejaVuSans-43" d="M 4122 4306 
L 4122 3641 
Q 3803 3938 3442 4084 
Q 3081 4231 2675 4231 
Q 1875 4231 1450 3742 
Q 1025 3253 1025 2328 
Q 1025 1406 1450 917 
Q 1875 428 2675 428 
Q 3081 428 3442 575 
Q 3803 722 4122 1019 
L 4122 359 
Q 3791 134 3420 21 
Q 3050 -91 2638 -91 
Q 1578 -91 968 557 
Q 359 1206 359 2328 
Q 359 3453 968 4101 
Q 1578 4750 2638 4750 
Q 3056 4750 3426 4639 
Q 3797 4528 4122 4306 
z
" transform="scale(0.015625)"/>
      <path id="DejaVuSans-68" d="M 3513 2113 
L 3513 0 
L 2938 0 
L 2938 2094 
Q 2938 2591 2744 2837 
Q 2550 3084 2163 3084 
Q 1697 3084 1428 2787 
Q 1159 2491 1159 1978 
L 1159 0 
L 581 0 
L 581 4863 
L 1159 4863 
L 1159 2956 
Q 1366 3272 1645 3428 
Q 1925 3584 2291 3584 
Q 2894 3584 3203 3211 
Q 3513 2838 3513 2113 
z
" transform="scale(0.015625)"/>
      <path id="DejaVuSans-67" d="M 2906 1791 
Q 2906 2416 2648 2759 
Q 2391 3103 1925 3103 
Q 1463 3103 1205 2759 
Q 947 2416 947 1791 
Q 947 1169 1205 825 
Q 1463 481 1925 481 
Q 2391 481 2648 825 
Q 2906 1169 2906 1791 
z
M 3481 434 
Q 3481 -459 3084 -895 
Q 2688 -1331 1869 -1331 
Q 1566 -1331 1297 -1286 
Q 1028 -1241 775 -1147 
L 775 -588 
Q 1028 -725 1275 -790 
Q 1522 -856 1778 -856 
Q 2344 -856 2625 -561 
Q 2906 -266 2906 331 
L 2906 616 
Q 2728 306 2450 153 
Q 2172 0 1784 0 
Q 1141 0 747 490 
Q 353 981 353 1791 
Q 353 2603 747 3093 
Q 1141 3584 1784 3584 
Q 2172 3584 2450 3431 
Q 2728 3278 2906 2969 
L 2906 3500 
L 3481 3500 
L 3481 434 
z
" transform="scale(0.015625)"/>
      <path id="DejaVuSans-70" d="M 1159 525 
L 1159 -1331 
L 581 -1331 
L 581 3500 
L 1159 3500 
L 1159 2969 
Q 1341 3281 1617 3432 
Q 1894 3584 2278 3584 
Q 2916 3584 3314 3078 
Q 3713 2572 3713 1747 
Q 3713 922 3314 415 
Q 2916 -91 2278 -91 
Q 1894 -91 1617 61 
Q 1341 213 1159 525 
z
M 3116 1747 
Q 3116 2381 2855 2742 
Q 2594 3103 2138 3103 
Q 1681 3103 1420 2742 
Q 1159 2381 1159 1747 
Q 1159 1113 1420 752 
Q 1681 391 2138 391 
Q 2594 391 2855 752 
Q 3116 1113 3116 1747 
z
" transform="scale(0.015625)"/>
      <path id="DejaVuSans-42" d="M 1259 2228 
L 1259 519 
L 2272 519 
Q 2781 519 3026 730 
Q 3272 941 3272 1375 
Q 3272 1813 3026 2020 
Q 2781 2228 2272 2228 
L 1259 2228 
z
M 1259 4147 
L 1259 2741 
L 2194 2741 
Q 2656 2741 2882 2914 
Q 3109 3088 3109 3444 
Q 3109 3797 2882 3972 
Q 2656 4147 2194 4147 
L 1259 4147 
z
M 628 4666 
L 2241 4666 
Q 2963 4666 3353 4366 
Q 3744 4066 3744 3513 
Q 3744 3084 3544 2831 
Q 3344 2578 2956 2516 
Q 3422 2416 3680 2098 
Q 3938 1781 3938 1306 
Q 3938 681 3513 340 
Q 3088 0 2303 0 
L 628 0 
L 628 4666 
z
" transform="scale(0.015625)"/>
      <path id="DejaVuSans-2f" d="M 1625 4666 
L 2156 4666 
L 531 -594 
L 0 -594 
L 1625 4666 
z
" transform="scale(0.015625)"/>
      <path id="DejaVuSans-39" d="M 703 97 
L 703 672 
Q 941 559 1184 500 
Q 1428 441 1663 441 
Q 2288 441 2617 861 
Q 2947 1281 2994 2138 
Q 2813 1869 2534 1725 
Q 2256 1581 1919 1581 
Q 1219 1581 811 2004 
Q 403 2428 403 3163 
Q 403 3881 828 4315 
Q 1253 4750 1959 4750 
Q 2769 4750 3195 4129 
Q 3622 3509 3622 2328 
Q 3622 1225 3098 567 
Q 2575 -91 1691 -91 
Q 1453 -91 1209 -44 
Q 966 3 703 97 
z
M 1959 2075 
Q 2384 2075 2632 2365 
Q 2881 2656 2881 3163 
Q 2881 3666 2632 3958 
Q 2384 4250 1959 4250 
Q 1534 4250 1286 3958 
Q 1038 3666 1038 3163 
Q 1038 2656 1286 2365 
Q 1534 2075 1959 2075 
z
" transform="scale(0.015625)"/>
      <path id="DejaVuSans-36" d="M 2113 2584 
Q 1688 2584 1439 2293 
Q 1191 2003 1191 1497 
Q 1191 994 1439 701 
Q 1688 409 2113 409 
Q 2538 409 2786 701 
Q 3034 994 3034 1497 
Q 3034 2003 2786 2293 
Q 2538 2584 2113 2584 
z
M 3366 4563 
L 3366 3988 
Q 3128 4100 2886 4159 
Q 2644 4219 2406 4219 
Q 1781 4219 1451 3797 
Q 1122 3375 1075 2522 
Q 1259 2794 1537 2939 
Q 1816 3084 2150 3084 
Q 2853 3084 3261 2657 
Q 3669 2231 3669 1497 
Q 3669 778 3244 343 
Q 2819 -91 2113 -91 
Q 1303 -91 875 529 
Q 447 1150 447 2328 
Q 447 3434 972 4092 
Q 1497 4750 2381 4750 
Q 2619 4750 2861 4703 
Q 3103 4656 3366 4563 
z
" transform="scale(0.015625)"/>
     </defs>
     <use xlink:href="#DejaVuSans-55"/>
     <use xlink:href="#DejaVuSans-56" transform="translate(73.193359 0)"/>
     <use xlink:href="#DejaVuSans-20" transform="translate(141.601562 0)"/>
     <use xlink:href="#DejaVuSans-26" transform="translate(173.388672 0)"/>
     <use xlink:href="#DejaVuSans-20" transform="translate(251.367188 0)"/>
     <use xlink:href="#DejaVuSans-4d" transform="translate(283.154297 0)"/>
     <use xlink:href="#DejaVuSans-53" transform="translate(369.433594 0)"/>
     <use xlink:href="#DejaVuSans-20" transform="translate(432.910156 0)"/>
     <use xlink:href="#DejaVuSans-43" transform="translate(464.697266 0)"/>
     <use xlink:href="#DejaVuSans-68" transform="translate(534.521484 0)"/>
     <use xlink:href="#DejaVuSans-72" transform="translate(597.900391 0)"/>
     <use xlink:href="#DejaVuSans-6f" transform="translate(636.763672 0)"/>
     <use xlink:href="#DejaVuSans-6d" transform="translate(697.945312 0)"/>
     <use xlink:href="#DejaVuSans-61" transform="translate(795.357422 0)"/>
     <use xlink:href="#DejaVuSans-74" transform="translate(856.636719 0)"/>
     <use xlink:href="#DejaVuSans-6f" transform="translate(895.845703 0)"/>
     <use xlink:href="#DejaVuSans-67" transform="translate(957.027344 0)"/>
     <use xlink:href="#DejaVuSans-72" transform="translate(1020.503906 0)"/>
     <use xlink:href="#DejaVuSans-61" transform="translate(1061.617188 0)"/>
     <use xlink:href="#DejaVuSans-6d" transform="translate(1122.896484 0)"/>
     <use xlink:href="#DejaVuSans-73" transform="translate(1220.308594 0)"/>
     <use xlink:href="#DejaVuSans-3a" transform="translate(1272.408203 0)"/>
     <use xlink:href="#DejaVuSans-20" transform="translate(1306.099609 0)"/>
     <use xlink:href="#DejaVuSans-49" transform="translate(1337.886719 0)"/>
     <use xlink:href="#DejaVuSans-72" transform="translate(1367.378906 0)"/>
     <use xlink:href="#DejaVuSans-43" transform="translate(1408.492188 0)"/>
     <use xlink:href="#DejaVuSans-70" transform="translate(1478.316406 0)"/>
     <use xlink:href="#DejaVuSans-31" transform="translate(1541.792969 0)"/>
     <use xlink:href="#DejaVuSans-42" transform="translate(1605.416016 0)"/>
     <use xlink:href="#DejaVuSans-37" transform="translate(1674.019531 0)"/>
     <use xlink:href="#DejaVuSans-2c" transform="translate(1737.642578 0)"/>
     <use xlink:href="#DejaVuSans-20" transform="translate(1769.429688 0)"/>
     <use xlink:href="#DejaVuSans-74" transform="translate(1801.216797 0)"/>
     <use xlink:href="#DejaVuSans-61" transform="translate(1840.425781 0)"/>
     <use xlink:href="#DejaVuSans-72" transform="translate(1901.705078 0)"/>
     <use xlink:href="#DejaVuSans-67" transform="translate(1941.068359 0)"/>
     <use xlink:href="#DejaVuSans-65" transform="translate(2004.544922 0)"/>
     <use xlink:href="#DejaVuSans-74" transform="translate(2066.068359 0)"/>
     <use xlink:href="#DejaVuSans-20" transform="translate(2105.277344 0)"/>
     <use xlink:href="#DejaVuSans-6d" transform="translate(2137.064453 0)"/>
     <use xlink:href="#DejaVuSans-2f" transform="translate(2234.476562 0)"/>
     <use xlink:href="#DejaVuSans-7a" transform="translate(2268.167969 0)"/>
     <use xlink:href="#DejaVuSans-3d" transform="translate(2320.658203 0)"/>
     <use xlink:href="#DejaVuSans-35" transform="translate(2404.447266 0)"/>
     <use xlink:href="#DejaVuSans-39" transform="translate(2468.070312 0)"/>
     <use xlink:href="#DejaVuSans-35" transform="translate(2531.693359 0)"/>
     <use xlink:href="#DejaVuSans-2e" transform="translate(2595.316406 0)"/>
     <use xlink:href="#DejaVuSans-31" transform="translate(2627.103516 0)"/>
     <use xlink:href="#DejaVuSans-34" transform="translate(2690.726562 0)"/>
     <use xlink:href="#DejaVuSans-35" transform="translate(2754.349609 0)"/>
     <use xlink:href="#DejaVuSans-38" transform="translate(2817.972656 0)"/>
     <use xlink:href="#DejaVuSans-31" transform="translate(2881.595703 0)"/>
     <use xlink:href="#DejaVuSans-33" transform="translate(2945.21875 0)"/>
     <use xlink:href="#DejaVuSans-36" transform="translate(3008.841797 0)"/>
    </g>
   </g>
   <g id="legend_1">
    <g id="patch_8">
     <path d="M 685.971875 64.23625 
L 846.2 64.23625 
Q 848.2 64.23625 848.2 62.23625 
L 848.2 33.88 
Q 848.2 31.88 846.2 31.88 
L 685.971875 31.88 
Q 683.971875 31.88 683.971875 33.88 
L 683.971875 62.23625 
Q 683.971875 64.23625 685.971875 64.23625 
z
" style="fill: #ffffff; opacity: 0.8; stroke: #cccccc; stroke-linejoin: miter"/>
    </g>
    <g id="line2d_15">
     <path d="M 687.971875 39.978437 
L 697.971875 39.978437 
L 707.971875 39.978437 
" style="fill: none; stroke: #0000ff; stroke-width: 1.5; stroke-linecap: square"/>
    </g>
    <g id="text_17">
     <!-- UV Intensity (normalized) -->
     <g transform="translate(715.971875 43.478437) scale(0.1 -0.1)">
      <use xlink:href="#DejaVuSans-55"/>
      <use xlink:href="#DejaVuSans-56" transform="translate(73.193359 0)"/>
      <use xlink:href="#DejaVuSans-20" transform="translate(141.601562 0)"/>
      <use xlink:href="#DejaVuSans-49" transform="translate(173.388672 0)"/>
      <use xlink:href="#DejaVuSans-6e" transform="translate(202.880859 0)"/>
      <use xlink:href="#DejaVuSans-74" transform="translate(266.259766 0)"/>
      <use xlink:href="#DejaVuSans-65" transform="translate(305.46875 0)"/>
      <use xlink:href="#DejaVuSans-6e" transform="translate(366.992188 0)"/>
      <use xlink:href="#DejaVuSans-73" transform="translate(430.371094 0)"/>
      <use xlink:href="#DejaVuSans-69" transform="translate(482.470703 0)"/>
      <use xlink:href="#DejaVuSans-74" transform="translate(510.253906 0)"/>
      <use xlink:href="#DejaVuSans-79" transform="translate(549.462891 0)"/>
      <use xlink:href="#DejaVuSans-20" transform="translate(608.642578 0)"/>
      <use xlink:href="#DejaVuSans-28" transform="translate(640.429688 0)"/>
      <use xlink:href="#DejaVuSans-6e" transform="translate(679.443359 0)"/>
      <use xlink:href="#DejaVuSans-6f" transform="translate(742.822266 0)"/>
      <use xlink:href="#DejaVuSans-72" transform="translate(804.003906 0)"/>
      <use xlink:href="#DejaVuSans-6d" transform="translate(843.367188 0)"/>
      <use xlink:href="#DejaVuSans-61" transform="translate(940.779297 0)"/>
      <use xlink:href="#DejaVuSans-6c" transform="translate(1002.058594 0)"/>
      <use xlink:href="#DejaVuSans-69" transform="translate(1029.841797 0)"/>
      <use xlink:href="#DejaVuSans-7a" transform="translate(1057.625 0)"/>
      <use xlink:href="#DejaVuSans-65" transform="translate(1110.115234 0)"/>
      <use xlink:href="#DejaVuSans-64" transform="translate(1171.638672 0)"/>
      <use xlink:href="#DejaVuSans-29" transform="translate(1235.115234 0)"/>
     </g>
    </g>
    <g id="line2d_16">
     <path d="M 687.971875 54.656562 
L 697.971875 54.656562 
L 707.971875 54.656562 
" style="fill: none; stroke: #008000; stroke-width: 1.5; stroke-linecap: square"/>
    </g>
    <g id="text_18">
     <!-- MS Intensity (normalized) -->
     <g transform="translate(715.971875 58.156562) scale(0.1 -0.1)">
      <use xlink:href="#DejaVuSans-4d"/>
      <use xlink:href="#DejaVuSans-53" transform="translate(86.279297 0)"/>
      <use xlink:href="#DejaVuSans-20" transform="translate(149.755859 0)"/>
      <use xlink:href="#DejaVuSans-49" transform="translate(181.542969 0)"/>
      <use xlink:href="#DejaVuSans-6e" transform="translate(211.035156 0)"/>
      <use xlink:href="#DejaVuSans-74" transform="translate(274.414062 0)"/>
      <use xlink:href="#DejaVuSans-65" transform="translate(313.623047 0)"/>
      <use xlink:href="#DejaVuSans-6e" transform="translate(375.146484 0)"/>
      <use xlink:href="#DejaVuSans-73" transform="translate(438.525391 0)"/>
      <use xlink:href="#DejaVuSans-69" transform="translate(490.625 0)"/>
      <use xlink:href="#DejaVuSans-74" transform="translate(518.408203 0)"/>
      <use xlink:href="#DejaVuSans-79" transform="translate(557.617188 0)"/>
      <use xlink:href="#DejaVuSans-20" transform="translate(616.796875 0)"/>
      <use xlink:href="#DejaVuSans-28" transform="translate(648.583984 0)"/>
      <use xlink:href="#DejaVuSans-6e" transform="translate(687.597656 0)"/>
      <use xlink:href="#DejaVuSans-6f" transform="translate(750.976562 0)"/>
      <use xlink:href="#DejaVuSans-72" transform="translate(812.158203 0)"/>
      <use xlink:href="#DejaVuSans-6d" transform="translate(851.521484 0)"/>
      <use xlink:href="#DejaVuSans-61" transform="translate(948.933594 0)"/>
      <use xlink:href="#DejaVuSans-6c" transform="translate(1010.212891 0)"/>
      <use xlink:href="#DejaVuSans-69" transform="translate(1037.996094 0)"/>
      <use xlink:href="#DejaVuSans-7a" transform="translate(1065.779297 0)"/>
      <use xlink:href="#DejaVuSans-65" transform="translate(1118.269531 0)"/>
      <use xlink:href="#DejaVuSans-64" transform="translate(1179.792969 0)"/>
      <use xlink:href="#DejaVuSans-29" transform="translate(1243.269531 0)"/>
     </g>
    </g>
   </g>
  </g>
 </g>
 <defs>
  <clipPath id="p998f3645c7">
   <rect x="47.72" y="26.88" width="805.48" height="507.16"/>
  </clipPath>
 </defs>
</svg>
