<?xml version="1.0" encoding="utf-8" standalone="no"?>
<!DOCTYPE svg PUBLIC "-//W3C//DTD SVG 1.1//EN"
  "http://www.w3.org/Graphics/SVG/1.1/DTD/svg11.dtd">
<svg xmlns:xlink="http://www.w3.org/1999/xlink" width="864pt" height="576pt" viewBox="0 0 864 576" xmlns="http://www.w3.org/2000/svg" version="1.1">
 <metadata>
  <rdf:RDF xmlns:dc="http://purl.org/dc/elements/1.1/" xmlns:cc="http://creativecommons.org/ns#" xmlns:rdf="http://www.w3.org/1999/02/22-rdf-syntax-ns#">
   <cc:Work>
    <dc:type rdf:resource="http://purl.org/dc/dcmitype/StillImage"/>
    <dc:date>2025-02-25T11:09:03.490113</dc:date>
    <dc:format>image/svg+xml</dc:format>
    <dc:creator>
     <cc:Agent>
      <dc:title>Matplotlib v3.10.0, https://matplotlib.org/</dc:title>
     </cc:Agent>
    </dc:creator>
   </cc:Work>
  </rdf:RDF>
 </metadata>
 <defs>
  <style type="text/css">*{stroke-linejoin: round; stroke-linecap: butt}</style>
 </defs>
 <g id="figure_1">
  <g id="patch_1">
   <path d="M 0 576 
L 864 576 
L 864 0 
L 0 0 
z
" style="fill: #ffffff"/>
  </g>
  <g id="axes_1">
   <g id="patch_2">
    <path d="M 47.72 534.04 
L 853.2 534.04 
L 853.2 26.88 
L 47.72 26.88 
z
" style="fill: #ffffff"/>
   </g>
   <g id="matplotlib.axis_1">
    <g id="xtick_1">
     <g id="line2d_1">
      <defs>
       <path id="me797d48f61" d="M 0 0 
L 0 3.5 
" style="stroke: #000000; stroke-width: 0.8"/>
      </defs>
      <g>
       <use xlink:href="#me797d48f61" x="83.098041" y="534.04" style="stroke: #000000; stroke-width: 0.8"/>
      </g>
     </g>
     <g id="text_1">
      <!-- 0 -->
      <g transform="translate(79.916791 548.638438) scale(0.1 -0.1)">
       <defs>
        <path id="DejaVuSans-30" d="M 2034 4250 
Q 1547 4250 1301 3770 
Q 1056 3291 1056 2328 
Q 1056 1369 1301 889 
Q 1547 409 2034 409 
Q 2525 409 2770 889 
Q 3016 1369 3016 2328 
Q 3016 3291 2770 3770 
Q 2525 4250 2034 4250 
z
M 2034 4750 
Q 2819 4750 3233 4129 
Q 3647 3509 3647 2328 
Q 3647 1150 3233 529 
Q 2819 -91 2034 -91 
Q 1250 -91 836 529 
Q 422 1150 422 2328 
Q 422 3509 836 4129 
Q 1250 4750 2034 4750 
z
" transform="scale(0.015625)"/>
       </defs>
       <use xlink:href="#DejaVuSans-30"/>
      </g>
     </g>
    </g>
    <g id="xtick_2">
     <g id="line2d_2">
      <g>
       <use xlink:href="#me797d48f61" x="229.793442" y="534.04" style="stroke: #000000; stroke-width: 0.8"/>
      </g>
     </g>
     <g id="text_2">
      <!-- 1 -->
      <g transform="translate(226.612192 548.638438) scale(0.1 -0.1)">
       <defs>
        <path id="DejaVuSans-31" d="M 794 531 
L 1825 531 
L 1825 4091 
L 703 3866 
L 703 4441 
L 1819 4666 
L 2450 4666 
L 2450 531 
L 3481 531 
L 3481 0 
L 794 0 
L 794 531 
z
" transform="scale(0.015625)"/>
       </defs>
       <use xlink:href="#DejaVuSans-31"/>
      </g>
     </g>
    </g>
    <g id="xtick_3">
     <g id="line2d_3">
      <g>
       <use xlink:href="#me797d48f61" x="376.488844" y="534.04" style="stroke: #000000; stroke-width: 0.8"/>
      </g>
     </g>
     <g id="text_3">
      <!-- 2 -->
      <g transform="translate(373.307594 548.638438) scale(0.1 -0.1)">
       <defs>
        <path id="DejaVuSans-32" d="M 1228 531 
L 3431 531 
L 3431 0 
L 469 0 
L 469 531 
Q 828 903 1448 1529 
Q 2069 2156 2228 2338 
Q 2531 2678 2651 2914 
Q 2772 3150 2772 3378 
Q 2772 3750 2511 3984 
Q 2250 4219 1831 4219 
Q 1534 4219 1204 4116 
Q 875 4013 500 3803 
L 500 4441 
Q 881 4594 1212 4672 
Q 1544 4750 1819 4750 
Q 2544 4750 2975 4387 
Q 3406 4025 3406 3419 
Q 3406 3131 3298 2873 
Q 3191 2616 2906 2266 
Q 2828 2175 2409 1742 
Q 1991 1309 1228 531 
z
" transform="scale(0.015625)"/>
       </defs>
       <use xlink:href="#DejaVuSans-32"/>
      </g>
     </g>
    </g>
    <g id="xtick_4">
     <g id="line2d_4">
      <g>
       <use xlink:href="#me797d48f61" x="523.184245" y="534.04" style="stroke: #000000; stroke-width: 0.8"/>
      </g>
     </g>
     <g id="text_4">
      <!-- 3 -->
      <g transform="translate(520.002995 548.638438) scale(0.1 -0.1)">
       <defs>
        <path id="DejaVuSans-33" d="M 2597 2516 
Q 3050 2419 3304 2112 
Q 3559 1806 3559 1356 
Q 3559 666 3084 287 
Q 2609 -91 1734 -91 
Q 1441 -91 1130 -33 
Q 819 25 488 141 
L 488 750 
Q 750 597 1062 519 
Q 1375 441 1716 441 
Q 2309 441 2620 675 
Q 2931 909 2931 1356 
Q 2931 1769 2642 2001 
Q 2353 2234 1838 2234 
L 1294 2234 
L 1294 2753 
L 1863 2753 
Q 2328 2753 2575 2939 
Q 2822 3125 2822 3475 
Q 2822 3834 2567 4026 
Q 2313 4219 1838 4219 
Q 1578 4219 1281 4162 
Q 984 4106 628 3988 
L 628 4550 
Q 988 4650 1302 4700 
Q 1616 4750 1894 4750 
Q 2613 4750 3031 4423 
Q 3450 4097 3450 3541 
Q 3450 3153 3228 2886 
Q 3006 2619 2597 2516 
z
" transform="scale(0.015625)"/>
       </defs>
       <use xlink:href="#DejaVuSans-33"/>
      </g>
     </g>
    </g>
    <g id="xtick_5">
     <g id="line2d_5">
      <g>
       <use xlink:href="#me797d48f61" x="669.879647" y="534.04" style="stroke: #000000; stroke-width: 0.8"/>
      </g>
     </g>
     <g id="text_5">
      <!-- 4 -->
      <g transform="translate(666.698397 548.638438) scale(0.1 -0.1)">
       <defs>
        <path id="DejaVuSans-34" d="M 2419 4116 
L 825 1625 
L 2419 1625 
L 2419 4116 
z
M 2253 4666 
L 3047 4666 
L 3047 1625 
L 3713 1625 
L 3713 1100 
L 3047 1100 
L 3047 0 
L 2419 0 
L 2419 1100 
L 313 1100 
L 313 1709 
L 2253 4666 
z
" transform="scale(0.015625)"/>
       </defs>
       <use xlink:href="#DejaVuSans-34"/>
      </g>
     </g>
    </g>
    <g id="xtick_6">
     <g id="line2d_6">
      <g>
       <use xlink:href="#me797d48f61" x="816.575048" y="534.04" style="stroke: #000000; stroke-width: 0.8"/>
      </g>
     </g>
     <g id="text_6">
      <!-- 5 -->
      <g transform="translate(813.393798 548.638438) scale(0.1 -0.1)">
       <defs>
        <path id="DejaVuSans-35" d="M 691 4666 
L 3169 4666 
L 3169 4134 
L 1269 4134 
L 1269 2991 
Q 1406 3038 1543 3061 
Q 1681 3084 1819 3084 
Q 2600 3084 3056 2656 
Q 3513 2228 3513 1497 
Q 3513 744 3044 326 
Q 2575 -91 1722 -91 
Q 1428 -91 1123 -41 
Q 819 9 494 109 
L 494 744 
Q 775 591 1075 516 
Q 1375 441 1709 441 
Q 2250 441 2565 725 
Q 2881 1009 2881 1497 
Q 2881 1984 2565 2268 
Q 2250 2553 1709 2553 
Q 1456 2553 1204 2497 
Q 953 2441 691 2322 
L 691 4666 
z
" transform="scale(0.015625)"/>
       </defs>
       <use xlink:href="#DejaVuSans-35"/>
      </g>
     </g>
    </g>
    <g id="text_7">
     <!-- Retention Time (min) -->
     <g transform="translate(397.61 562.316562) scale(0.1 -0.1)">
      <defs>
       <path id="DejaVuSans-52" d="M 2841 2188 
Q 3044 2119 3236 1894 
Q 3428 1669 3622 1275 
L 4263 0 
L 3584 0 
L 2988 1197 
Q 2756 1666 2539 1819 
Q 2322 1972 1947 1972 
L 1259 1972 
L 1259 0 
L 628 0 
L 628 4666 
L 2053 4666 
Q 2853 4666 3247 4331 
Q 3641 3997 3641 3322 
Q 3641 2881 3436 2590 
Q 3231 2300 2841 2188 
z
M 1259 4147 
L 1259 2491 
L 2053 2491 
Q 2509 2491 2742 2702 
Q 2975 2913 2975 3322 
Q 2975 3731 2742 3939 
Q 2509 4147 2053 4147 
L 1259 4147 
z
" transform="scale(0.015625)"/>
       <path id="DejaVuSans-65" d="M 3597 1894 
L 3597 1613 
L 953 1613 
Q 991 1019 1311 708 
Q 1631 397 2203 397 
Q 2534 397 2845 478 
Q 3156 559 3463 722 
L 3463 178 
Q 3153 47 2828 -22 
Q 2503 -91 2169 -91 
Q 1331 -91 842 396 
Q 353 884 353 1716 
Q 353 2575 817 3079 
Q 1281 3584 2069 3584 
Q 2775 3584 3186 3129 
Q 3597 2675 3597 1894 
z
M 3022 2063 
Q 3016 2534 2758 2815 
Q 2500 3097 2075 3097 
Q 1594 3097 1305 2825 
Q 1016 2553 972 2059 
L 3022 2063 
z
" transform="scale(0.015625)"/>
       <path id="DejaVuSans-74" d="M 1172 4494 
L 1172 3500 
L 2356 3500 
L 2356 3053 
L 1172 3053 
L 1172 1153 
Q 1172 725 1289 603 
Q 1406 481 1766 481 
L 2356 481 
L 2356 0 
L 1766 0 
Q 1100 0 847 248 
Q 594 497 594 1153 
L 594 3053 
L 172 3053 
L 172 3500 
L 594 3500 
L 594 4494 
L 1172 4494 
z
" transform="scale(0.015625)"/>
       <path id="DejaVuSans-6e" d="M 3513 2113 
L 3513 0 
L 2938 0 
L 2938 2094 
Q 2938 2591 2744 2837 
Q 2550 3084 2163 3084 
Q 1697 3084 1428 2787 
Q 1159 2491 1159 1978 
L 1159 0 
L 581 0 
L 581 3500 
L 1159 3500 
L 1159 2956 
Q 1366 3272 1645 3428 
Q 1925 3584 2291 3584 
Q 2894 3584 3203 3211 
Q 3513 2838 3513 2113 
z
" transform="scale(0.015625)"/>
       <path id="DejaVuSans-69" d="M 603 3500 
L 1178 3500 
L 1178 0 
L 603 0 
L 603 3500 
z
M 603 4863 
L 1178 4863 
L 1178 4134 
L 603 4134 
L 603 4863 
z
" transform="scale(0.015625)"/>
       <path id="DejaVuSans-6f" d="M 1959 3097 
Q 1497 3097 1228 2736 
Q 959 2375 959 1747 
Q 959 1119 1226 758 
Q 1494 397 1959 397 
Q 2419 397 2687 759 
Q 2956 1122 2956 1747 
Q 2956 2369 2687 2733 
Q 2419 3097 1959 3097 
z
M 1959 3584 
Q 2709 3584 3137 3096 
Q 3566 2609 3566 1747 
Q 3566 888 3137 398 
Q 2709 -91 1959 -91 
Q 1206 -91 779 398 
Q 353 888 353 1747 
Q 353 2609 779 3096 
Q 1206 3584 1959 3584 
z
" transform="scale(0.015625)"/>
       <path id="DejaVuSans-20" transform="scale(0.015625)"/>
       <path id="DejaVuSans-54" d="M -19 4666 
L 3928 4666 
L 3928 4134 
L 2272 4134 
L 2272 0 
L 1638 0 
L 1638 4134 
L -19 4134 
L -19 4666 
z
" transform="scale(0.015625)"/>
       <path id="DejaVuSans-6d" d="M 3328 2828 
Q 3544 3216 3844 3400 
Q 4144 3584 4550 3584 
Q 5097 3584 5394 3201 
Q 5691 2819 5691 2113 
L 5691 0 
L 5113 0 
L 5113 2094 
Q 5113 2597 4934 2840 
Q 4756 3084 4391 3084 
Q 3944 3084 3684 2787 
Q 3425 2491 3425 1978 
L 3425 0 
L 2847 0 
L 2847 2094 
Q 2847 2600 2669 2842 
Q 2491 3084 2119 3084 
Q 1678 3084 1418 2786 
Q 1159 2488 1159 1978 
L 1159 0 
L 581 0 
L 581 3500 
L 1159 3500 
L 1159 2956 
Q 1356 3278 1631 3431 
Q 1906 3584 2284 3584 
Q 2666 3584 2933 3390 
Q 3200 3197 3328 2828 
z
" transform="scale(0.015625)"/>
       <path id="DejaVuSans-28" d="M 1984 4856 
Q 1566 4138 1362 3434 
Q 1159 2731 1159 2009 
Q 1159 1288 1364 580 
Q 1569 -128 1984 -844 
L 1484 -844 
Q 1016 -109 783 600 
Q 550 1309 550 2009 
Q 550 2706 781 3412 
Q 1013 4119 1484 4856 
L 1984 4856 
z
" transform="scale(0.015625)"/>
       <path id="DejaVuSans-29" d="M 513 4856 
L 1013 4856 
Q 1481 4119 1714 3412 
Q 1947 2706 1947 2009 
Q 1947 1309 1714 600 
Q 1481 -109 1013 -844 
L 513 -844 
Q 928 -128 1133 580 
Q 1338 1288 1338 2009 
Q 1338 2731 1133 3434 
Q 928 4138 513 4856 
z
" transform="scale(0.015625)"/>
      </defs>
      <use xlink:href="#DejaVuSans-52"/>
      <use xlink:href="#DejaVuSans-65" transform="translate(64.982422 0)"/>
      <use xlink:href="#DejaVuSans-74" transform="translate(126.505859 0)"/>
      <use xlink:href="#DejaVuSans-65" transform="translate(165.714844 0)"/>
      <use xlink:href="#DejaVuSans-6e" transform="translate(227.238281 0)"/>
      <use xlink:href="#DejaVuSans-74" transform="translate(290.617188 0)"/>
      <use xlink:href="#DejaVuSans-69" transform="translate(329.826172 0)"/>
      <use xlink:href="#DejaVuSans-6f" transform="translate(357.609375 0)"/>
      <use xlink:href="#DejaVuSans-6e" transform="translate(418.791016 0)"/>
      <use xlink:href="#DejaVuSans-20" transform="translate(482.169922 0)"/>
      <use xlink:href="#DejaVuSans-54" transform="translate(513.957031 0)"/>
      <use xlink:href="#DejaVuSans-69" transform="translate(571.916016 0)"/>
      <use xlink:href="#DejaVuSans-6d" transform="translate(599.699219 0)"/>
      <use xlink:href="#DejaVuSans-65" transform="translate(697.111328 0)"/>
      <use xlink:href="#DejaVuSans-20" transform="translate(758.634766 0)"/>
      <use xlink:href="#DejaVuSans-28" transform="translate(790.421875 0)"/>
      <use xlink:href="#DejaVuSans-6d" transform="translate(829.435547 0)"/>
      <use xlink:href="#DejaVuSans-69" transform="translate(926.847656 0)"/>
      <use xlink:href="#DejaVuSans-6e" transform="translate(954.630859 0)"/>
      <use xlink:href="#DejaVuSans-29" transform="translate(1018.009766 0)"/>
     </g>
    </g>
   </g>
   <g id="matplotlib.axis_2">
    <g id="ytick_1">
     <g id="line2d_7">
      <defs>
       <path id="m1d57e89745" d="M 0 0 
L -3.5 0 
" style="stroke: #000000; stroke-width: 0.8"/>
      </defs>
      <g>
       <use xlink:href="#m1d57e89745" x="47.72" y="510.654328" style="stroke: #000000; stroke-width: 0.8"/>
      </g>
     </g>
     <g id="text_8">
      <!-- 0.0 -->
      <g style="fill: #0000ff" transform="translate(24.816875 514.453546) scale(0.1 -0.1)">
       <defs>
        <path id="DejaVuSans-2e" d="M 684 794 
L 1344 794 
L 1344 0 
L 684 0 
L 684 794 
z
" transform="scale(0.015625)"/>
       </defs>
       <use xlink:href="#DejaVuSans-30"/>
       <use xlink:href="#DejaVuSans-2e" transform="translate(63.623047 0)"/>
       <use xlink:href="#DejaVuSans-30" transform="translate(95.410156 0)"/>
      </g>
     </g>
    </g>
    <g id="ytick_2">
     <g id="line2d_8">
      <g>
       <use xlink:href="#m1d57e89745" x="47.72" y="418.510007" style="stroke: #000000; stroke-width: 0.8"/>
      </g>
     </g>
     <g id="text_9">
      <!-- 0.5 -->
      <g style="fill: #0000ff" transform="translate(24.816875 422.309226) scale(0.1 -0.1)">
       <use xlink:href="#DejaVuSans-30"/>
       <use xlink:href="#DejaVuSans-2e" transform="translate(63.623047 0)"/>
       <use xlink:href="#DejaVuSans-35" transform="translate(95.410156 0)"/>
      </g>
     </g>
    </g>
    <g id="ytick_3">
     <g id="line2d_9">
      <g>
       <use xlink:href="#m1d57e89745" x="47.72" y="326.365687" style="stroke: #000000; stroke-width: 0.8"/>
      </g>
     </g>
     <g id="text_10">
      <!-- 1.0 -->
      <g style="fill: #0000ff" transform="translate(24.816875 330.164906) scale(0.1 -0.1)">
       <use xlink:href="#DejaVuSans-31"/>
       <use xlink:href="#DejaVuSans-2e" transform="translate(63.623047 0)"/>
       <use xlink:href="#DejaVuSans-30" transform="translate(95.410156 0)"/>
      </g>
     </g>
    </g>
    <g id="ytick_4">
     <g id="line2d_10">
      <g>
       <use xlink:href="#m1d57e89745" x="47.72" y="234.221367" style="stroke: #000000; stroke-width: 0.8"/>
      </g>
     </g>
     <g id="text_11">
      <!-- 1.5 -->
      <g style="fill: #0000ff" transform="translate(24.816875 238.020586) scale(0.1 -0.1)">
       <use xlink:href="#DejaVuSans-31"/>
       <use xlink:href="#DejaVuSans-2e" transform="translate(63.623047 0)"/>
       <use xlink:href="#DejaVuSans-35" transform="translate(95.410156 0)"/>
      </g>
     </g>
    </g>
    <g id="ytick_5">
     <g id="line2d_11">
      <g>
       <use xlink:href="#m1d57e89745" x="47.72" y="142.077047" style="stroke: #000000; stroke-width: 0.8"/>
      </g>
     </g>
     <g id="text_12">
      <!-- 2.0 -->
      <g style="fill: #0000ff" transform="translate(24.816875 145.876266) scale(0.1 -0.1)">
       <use xlink:href="#DejaVuSans-32"/>
       <use xlink:href="#DejaVuSans-2e" transform="translate(63.623047 0)"/>
       <use xlink:href="#DejaVuSans-30" transform="translate(95.410156 0)"/>
      </g>
     </g>
    </g>
    <g id="ytick_6">
     <g id="line2d_12">
      <g>
       <use xlink:href="#m1d57e89745" x="47.72" y="49.932727" style="stroke: #000000; stroke-width: 0.8"/>
      </g>
     </g>
     <g id="text_13">
      <!-- 2.5 -->
      <g style="fill: #0000ff" transform="translate(24.816875 53.731946) scale(0.1 -0.1)">
       <use xlink:href="#DejaVuSans-32"/>
       <use xlink:href="#DejaVuSans-2e" transform="translate(63.623047 0)"/>
       <use xlink:href="#DejaVuSans-35" transform="translate(95.410156 0)"/>
      </g>
     </g>
    </g>
    <g id="text_14">
     <!-- Normalized Intensity -->
     <g style="fill: #0000ff" transform="translate(18.737187 332.167031) rotate(-90) scale(0.1 -0.1)">
      <defs>
       <path id="DejaVuSans-4e" d="M 628 4666 
L 1478 4666 
L 3547 763 
L 3547 4666 
L 4159 4666 
L 4159 0 
L 3309 0 
L 1241 3903 
L 1241 0 
L 628 0 
L 628 4666 
z
" transform="scale(0.015625)"/>
       <path id="DejaVuSans-72" d="M 2631 2963 
Q 2534 3019 2420 3045 
Q 2306 3072 2169 3072 
Q 1681 3072 1420 2755 
Q 1159 2438 1159 1844 
L 1159 0 
L 581 0 
L 581 3500 
L 1159 3500 
L 1159 2956 
Q 1341 3275 1631 3429 
Q 1922 3584 2338 3584 
Q 2397 3584 2469 3576 
Q 2541 3569 2628 3553 
L 2631 2963 
z
" transform="scale(0.015625)"/>
       <path id="DejaVuSans-61" d="M 2194 1759 
Q 1497 1759 1228 1600 
Q 959 1441 959 1056 
Q 959 750 1161 570 
Q 1363 391 1709 391 
Q 2188 391 2477 730 
Q 2766 1069 2766 1631 
L 2766 1759 
L 2194 1759 
z
M 3341 1997 
L 3341 0 
L 2766 0 
L 2766 531 
Q 2569 213 2275 61 
Q 1981 -91 1556 -91 
Q 1019 -91 701 211 
Q 384 513 384 1019 
Q 384 1609 779 1909 
Q 1175 2209 1959 2209 
L 2766 2209 
L 2766 2266 
Q 2766 2663 2505 2880 
Q 2244 3097 1772 3097 
Q 1472 3097 1187 3025 
Q 903 2953 641 2809 
L 641 3341 
Q 956 3463 1253 3523 
Q 1550 3584 1831 3584 
Q 2591 3584 2966 3190 
Q 3341 2797 3341 1997 
z
" transform="scale(0.015625)"/>
       <path id="DejaVuSans-6c" d="M 603 4863 
L 1178 4863 
L 1178 0 
L 603 0 
L 603 4863 
z
" transform="scale(0.015625)"/>
       <path id="DejaVuSans-7a" d="M 353 3500 
L 3084 3500 
L 3084 2975 
L 922 459 
L 3084 459 
L 3084 0 
L 275 0 
L 275 525 
L 2438 3041 
L 353 3041 
L 353 3500 
z
" transform="scale(0.015625)"/>
       <path id="DejaVuSans-64" d="M 2906 2969 
L 2906 4863 
L 3481 4863 
L 3481 0 
L 2906 0 
L 2906 525 
Q 2725 213 2448 61 
Q 2172 -91 1784 -91 
Q 1150 -91 751 415 
Q 353 922 353 1747 
Q 353 2572 751 3078 
Q 1150 3584 1784 3584 
Q 2172 3584 2448 3432 
Q 2725 3281 2906 2969 
z
M 947 1747 
Q 947 1113 1208 752 
Q 1469 391 1925 391 
Q 2381 391 2643 752 
Q 2906 1113 2906 1747 
Q 2906 2381 2643 2742 
Q 2381 3103 1925 3103 
Q 1469 3103 1208 2742 
Q 947 2381 947 1747 
z
" transform="scale(0.015625)"/>
       <path id="DejaVuSans-49" d="M 628 4666 
L 1259 4666 
L 1259 0 
L 628 0 
L 628 4666 
z
" transform="scale(0.015625)"/>
       <path id="DejaVuSans-73" d="M 2834 3397 
L 2834 2853 
Q 2591 2978 2328 3040 
Q 2066 3103 1784 3103 
Q 1356 3103 1142 2972 
Q 928 2841 928 2578 
Q 928 2378 1081 2264 
Q 1234 2150 1697 2047 
L 1894 2003 
Q 2506 1872 2764 1633 
Q 3022 1394 3022 966 
Q 3022 478 2636 193 
Q 2250 -91 1575 -91 
Q 1294 -91 989 -36 
Q 684 19 347 128 
L 347 722 
Q 666 556 975 473 
Q 1284 391 1588 391 
Q 1994 391 2212 530 
Q 2431 669 2431 922 
Q 2431 1156 2273 1281 
Q 2116 1406 1581 1522 
L 1381 1569 
Q 847 1681 609 1914 
Q 372 2147 372 2553 
Q 372 3047 722 3315 
Q 1072 3584 1716 3584 
Q 2034 3584 2315 3537 
Q 2597 3491 2834 3397 
z
" transform="scale(0.015625)"/>
       <path id="DejaVuSans-79" d="M 2059 -325 
Q 1816 -950 1584 -1140 
Q 1353 -1331 966 -1331 
L 506 -1331 
L 506 -850 
L 844 -850 
Q 1081 -850 1212 -737 
Q 1344 -625 1503 -206 
L 1606 56 
L 191 3500 
L 800 3500 
L 1894 763 
L 2988 3500 
L 3597 3500 
L 2059 -325 
z
" transform="scale(0.015625)"/>
      </defs>
      <use xlink:href="#DejaVuSans-4e"/>
      <use xlink:href="#DejaVuSans-6f" transform="translate(74.804688 0)"/>
      <use xlink:href="#DejaVuSans-72" transform="translate(135.986328 0)"/>
      <use xlink:href="#DejaVuSans-6d" transform="translate(175.349609 0)"/>
      <use xlink:href="#DejaVuSans-61" transform="translate(272.761719 0)"/>
      <use xlink:href="#DejaVuSans-6c" transform="translate(334.041016 0)"/>
      <use xlink:href="#DejaVuSans-69" transform="translate(361.824219 0)"/>
      <use xlink:href="#DejaVuSans-7a" transform="translate(389.607422 0)"/>
      <use xlink:href="#DejaVuSans-65" transform="translate(442.097656 0)"/>
      <use xlink:href="#DejaVuSans-64" transform="translate(503.621094 0)"/>
      <use xlink:href="#DejaVuSans-20" transform="translate(567.097656 0)"/>
      <use xlink:href="#DejaVuSans-49" transform="translate(598.884766 0)"/>
      <use xlink:href="#DejaVuSans-6e" transform="translate(628.376953 0)"/>
      <use xlink:href="#DejaVuSans-74" transform="translate(691.755859 0)"/>
      <use xlink:href="#DejaVuSans-65" transform="translate(730.964844 0)"/>
      <use xlink:href="#DejaVuSans-6e" transform="translate(792.488281 0)"/>
      <use xlink:href="#DejaVuSans-73" transform="translate(855.867188 0)"/>
      <use xlink:href="#DejaVuSans-69" transform="translate(907.966797 0)"/>
      <use xlink:href="#DejaVuSans-74" transform="translate(935.75 0)"/>
      <use xlink:href="#DejaVuSans-79" transform="translate(974.958984 0)"/>
     </g>
    </g>
   </g>
   <g id="line2d_13">
    <path d="M 84.332727 510.654328 
L 113.671808 510.755891 
L 124.673963 510.753388 
L 135.676118 510.630063 
L 136.898579 510.408564 
L 138.121041 509.931089 
L 139.343503 509.174004 
L 141.788426 507.40978 
L 143.010888 506.745612 
L 144.23335 506.32997 
L 145.455811 506.156027 
L 146.678273 506.173436 
L 162.570275 507.789672 
L 163.792736 507.692596 
L 165.015198 507.315364 
L 166.23766 506.653957 
L 168.682583 505.023644 
L 169.905045 504.376618 
L 171.127506 503.994876 
L 172.349968 503.91716 
L 173.57243 504.116716 
L 174.794891 504.524895 
L 177.239815 505.678156 
L 179.684738 506.923425 
L 180.9072 507.449049 
L 182.129662 507.684065 
L 183.352123 507.207466 
L 184.574585 505.816511 
L 185.797047 504.165227 
L 187.019508 503.454354 
L 188.24197 504.222875 
L 189.464432 505.748231 
L 190.686893 506.805957 
L 191.909355 506.821913 
L 194.354278 505.488912 
L 195.57674 505.295228 
L 196.799202 505.627292 
L 200.466587 507.455151 
L 201.689048 507.654314 
L 202.91151 507.370038 
L 204.133972 505.295449 
L 205.356433 498.092383 
L 206.578895 482.81708 
L 207.801357 461.866051 
L 209.023818 443.507247 
L 210.24628 435.831657 
L 211.468742 440.946668 
L 212.691204 454.859069 
L 213.913665 471.336266 
L 215.136127 485.544885 
L 216.358589 495.416401 
L 217.58105 501.109277 
L 218.803512 503.800201 
L 220.025974 504.74602 
L 221.248435 504.904324 
L 222.470897 504.908159 
L 223.693359 505.107539 
L 224.91582 505.596738 
L 228.583205 507.644763 
L 229.805667 508.136504 
L 232.25059 508.7527 
L 235.917975 509.235603 
L 239.58536 509.444953 
L 243.252745 509.407993 
L 244.475207 509.261387 
L 245.697669 508.768483 
L 246.920131 507.284709 
L 248.142592 503.694381 
L 249.365054 497.047065 
L 251.809977 478.076262 
L 253.032439 471.049844 
L 254.254901 468.70896 
L 255.477362 471.123202 
L 256.699824 476.756852 
L 259.144747 489.840022 
L 260.367209 494.812237 
L 261.589671 498.310381 
L 262.812132 500.505248 
L 264.034594 501.606318 
L 265.257056 501.802414 
L 266.479517 501.331348 
L 268.924441 499.675787 
L 270.146902 499.161331 
L 271.369364 499.198342 
L 272.591826 499.84699 
L 273.814287 500.960666 
L 276.259211 503.461002 
L 277.481672 504.38687 
L 278.704134 505.003425 
L 281.149058 505.68268 
L 286.038904 506.693454 
L 287.261366 506.773416 
L 288.483828 506.631483 
L 289.706289 506.141674 
L 290.928751 505.28 
L 293.373674 503.182215 
L 294.596136 501.366878 
L 295.818598 497.08112 
L 297.041059 489.425927 
L 298.263521 480.422656 
L 299.485983 474.152837 
L 300.708444 473.499839 
L 301.930906 478.188105 
L 304.375829 492.965891 
L 305.598291 498.486039 
L 306.820753 501.855536 
L 308.043214 503.607074 
L 309.265676 504.476991 
L 311.710599 505.401679 
L 314.155523 506.050842 
L 316.600446 506.433774 
L 317.822908 506.431202 
L 319.04537 506.240402 
L 322.712755 505.301261 
L 323.935216 504.704765 
L 326.38014 502.646202 
L 327.602601 502.044662 
L 328.825063 502.145099 
L 334.937371 505.030472 
L 336.159833 505.505724 
L 337.382295 505.642473 
L 338.604756 505.026738 
L 339.827218 503.601232 
L 341.04968 501.937696 
L 342.272141 500.844629 
L 343.494603 500.690986 
L 349.606912 503.235947 
L 353.274297 505.677443 
L 354.496758 506.245665 
L 355.71922 506.61585 
L 358.164143 506.992277 
L 365.498913 507.573867 
L 366.721375 507.641417 
L 367.943837 507.589761 
L 369.166298 507.325568 
L 371.611222 506.47749 
L 372.833683 506.337871 
L 374.056145 506.533686 
L 378.945992 508.13866 
L 382.613377 508.645588 
L 385.0583 508.87809 
L 386.280762 508.831015 
L 387.503224 508.52205 
L 391.170609 506.892636 
L 392.39307 506.844534 
L 394.837994 507.422728 
L 397.282917 508.002155 
L 399.72784 508.352774 
L 402.172764 508.52884 
L 405.840149 508.393182 
L 407.06261 508.056009 
L 408.285072 504.830185 
L 409.507534 491.415882 
L 410.729995 459.375345 
L 413.174919 358.795705 
L 414.39738 327.202909 
L 415.619842 326.365687 
L 416.842304 352.314775 
L 419.287227 430.683077 
L 420.509689 461.303031 
L 421.732151 481.415029 
L 422.954612 492.786801 
L 424.177074 498.430983 
L 425.399536 500.982949 
L 426.621997 502.176178 
L 432.734306 505.941891 
L 433.956767 506.515814 
L 435.179229 506.966309 
L 436.401691 507.275145 
L 437.624152 507.402222 
L 438.846614 507.312524 
L 441.291537 506.771286 
L 442.513999 506.686393 
L 443.736461 506.885926 
L 448.626307 508.471296 
L 451.071231 508.557632 
L 453.516154 508.61841 
L 457.183539 509.208865 
L 459.628463 509.519074 
L 463.295848 509.657584 
L 473.075541 509.794411 
L 476.742926 509.618636 
L 479.187849 509.76763 
L 482.855234 510.04934 
L 491.412466 510.155369 
L 495.079851 510.296698 
L 503.637083 510.305134 
L 507.304468 510.410356 
L 515.8617 510.383674 
L 523.19647 510.499451 
L 586.764477 510.697939 
L 592.876786 510.474122 
L 600.211556 510.765514 
L 613.658634 510.768139 
L 623.438328 510.822161 
L 630.773098 510.820807 
L 650.332484 510.78993 
L 669.891871 510.86469 
L 685.783873 510.877181 
L 716.345415 510.913019 
L 816.587273 510.911458 
L 816.587273 510.911458 
" clip-path="url(#p46177aeeaf)" style="fill: none; stroke: #0000ff; stroke-width: 1.5; stroke-linecap: square"/>
   </g>
   <g id="line2d_14">
    <path d="M 89.616696 234.211733 
L 201.016206 234.191888 
L 206.492345 234.127985 
L 207.86248 234.0172 
L 207.86248 233.864484 
L 208.203791 233.865665 
L 208.203791 233.653709 
L 208.546814 233.711796 
L 208.546814 233.432979 
L 208.888859 233.542228 
L 208.888859 233.196706 
L 209.227481 233.392665 
L 209.227481 233.092637 
L 209.566591 233.337532 
L 209.566591 233.038128 
L 209.904724 233.370569 
L 209.904724 233.035686 
L 210.247503 233.298315 
L 210.247503 232.961162 
L 210.583924 233.285545 
L 210.583924 232.942391 
L 210.923279 233.260082 
L 210.923279 232.931339 
L 211.26019 233.28878 
L 211.26019 232.959858 
L 211.5971 233.306379 
L 211.5971 233.034855 
L 211.933522 233.381139 
L 211.933522 233.030521 
L 212.270677 233.349312 
L 212.270677 233.020936 
L 212.607098 233.318334 
L 212.607098 233.023654 
L 212.944009 233.338422 
L 212.944009 232.980476 
L 213.280919 233.299981 
L 213.280919 232.979445 
L 213.620274 233.28434 
L 213.620274 233.028584 
L 213.958163 233.401683 
L 213.958163 233.162886 
L 214.29654 233.488787 
L 214.29654 233.174995 
L 214.635651 233.446036 
L 214.635651 233.186879 
L 214.97574 233.451938 
L 214.97574 233.214426 
L 215.324386 233.527072 
L 215.324386 233.33118 
L 215.66423 233.587377 
L 215.66423 233.327659 
L 216.004319 233.558731 
L 216.004319 233.32468 
L 216.342941 233.535349 
L 216.342941 233.327657 
L 216.684497 233.579851 
L 216.684497 233.339184 
L 217.026053 233.58144 
L 217.026053 233.393594 
L 217.366386 233.593748 
L 217.366386 233.380917 
L 217.707208 233.626689 
L 217.707208 233.44541 
L 218.04852 233.62921 
L 218.04852 233.448355 
L 218.391053 233.654402 
L 218.391053 233.466256 
L 218.736032 233.642881 
L 218.736032 233.440424 
L 219.07881 233.635613 
L 219.07881 233.454104 
L 219.421344 233.645166 
L 219.421344 233.485546 
L 219.764367 233.69933 
L 219.764367 233.524942 
L 220.107879 233.719562 
L 220.107879 233.584364 
L 220.457747 233.751379 
L 220.457747 233.588091 
L 221.491705 233.580189 
L 221.491705 233.619518 
L 221.835217 233.81162 
L 221.835217 233.699559 
L 222.180929 233.872886 
L 222.180929 233.741653 
L 222.869908 233.902441 
L 222.869908 233.810908 
L 223.214398 233.964275 
L 223.214398 233.864466 
L 223.558154 233.945682 
L 223.558154 233.825608 
L 223.901666 233.924114 
L 223.901666 233.795709 
L 224.248356 233.821446 
L 224.592846 233.734464 
L 225.285982 233.883981 
L 225.285982 233.877735 
L 225.980584 233.996566 
L 225.980584 233.911889 
L 226.673231 233.98182 
L 226.673231 233.910155 
L 227.363922 234.018919 
L 227.363922 233.944583 
L 228.059014 234.040408 
L 228.059014 233.980904 
L 228.751661 234.054445 
L 228.751661 233.996566 
L 230.482666 234.030129 
L 230.482666 234.04928 
L 231.190472 234.085954 
L 231.190472 234.031885 
L 231.887275 234.040397 
L 232.933457 234.012522 
L 232.933457 234.017435 
L 233.629038 234.067958 
L 234.680111 234.037152 
L 242.38602 234.122299 
L 249.073619 234.153264 
L 258.157487 234.170786 
L 275.419869 234.136315 
L 281.112628 234.177069 
L 299.034161 234.115619 
L 299.034161 234.101135 
L 300.0867 234.061381 
L 301.12457 234.071811 
L 310.50403 234.132864 
L 312.277088 234.145958 
L 313.700278 234.148977 
L 395.042145 234.062674 
L 395.042145 234.004782 
L 396.129647 234.083684 
L 396.129647 234.036001 
L 397.222527 234.110743 
L 397.222527 234.082075 
L 398.311252 234.134781 
L 398.311252 234.108857 
L 399.76427 234.136369 
L 405.571941 234.093778 
L 405.571941 234.021601 
L 406.297105 233.993596 
L 406.297105 233.894897 
L 407.027404 233.917566 
L 407.027404 233.805868 
L 407.389986 233.900135 
L 407.389986 233.786611 
L 408.115394 233.879979 
L 408.115394 233.764579 
L 408.477977 233.872022 
L 408.477977 233.744913 
L 409.203141 233.882765 
L 409.203141 233.793337 
L 409.931728 233.943735 
L 409.931728 233.880219 
L 410.656892 234.013077 
L 410.656892 233.964681 
L 411.019474 234.031837 
L 411.019474 233.956883 
L 411.382057 233.982646 
L 411.382057 233.779364 
L 411.749773 233.690202 
L 411.749773 233.010592 
L 412.112355 232.719888 
L 412.112355 230.721589 
L 412.470781 229.813927 
L 412.470781 225.711007 
L 412.82285 224.500838 
L 412.82285 217.340682 
L 413.170273 204.297307 
L 413.512563 201.552553 
L 413.512563 187.610675 
L 413.849229 163.007406 
L 414.18345 163.938519 
L 414.18345 152.255274 
L 414.51547 121.15802 
L 414.846757 131.265104 
L 414.846757 123.6648 
L 415.177067 122.253572 
L 415.177067 112.384096 
L 415.506887 138.461241 
L 415.506887 109.074298 
L 415.836951 135.420548 
L 415.836951 102.306919 
L 416.166772 130.594819 
L 416.166772 98.644038 
L 416.496347 89.401078 
L 416.831057 49.932727 
L 417.160144 83.424676 
L 417.160144 52.145382 
L 417.48972 92.409743 
L 417.819051 131.040257 
L 417.819051 100.864351 
L 418.148382 132.556341 
L 418.148382 104.198917 
L 418.478202 135.406969 
L 418.478202 107.905082 
L 418.808022 137.321588 
L 418.808022 111.83483 
L 419.137353 141.108775 
L 419.137353 118.11442 
L 419.467663 147.697243 
L 419.467663 127.102416 
L 419.798216 154.444957 
L 419.798216 136.038565 
L 420.129503 162.072251 
L 420.129503 143.099376 
L 420.460546 166.781216 
L 420.460546 150.149781 
L 420.794522 171.971459 
L 420.794522 154.179005 
L 421.125565 174.529267 
L 421.125565 158.912328 
L 421.457586 158.780673 
L 421.796452 140.754798 
L 422.463427 144.72339 
L 422.463427 150.489816 
L 422.797159 155.709966 
L 423.132114 174.31726 
L 423.132114 180.748095 
L 423.466824 180.857314 
L 423.466824 182.988118 
L 423.802023 185.710676 
L 424.139178 175.564936 
L 424.477066 177.313617 
L 424.812998 177.502049 
L 424.812998 180.323038 
L 425.49122 207.101583 
L 425.49122 201.088489 
L 425.83082 209.750205 
L 425.83082 203.094715 
L 426.173598 203.491313 
L 426.515643 203.66514 
L 426.515643 204.605037 
L 426.864289 204.497757 
L 426.864289 206.030533 
L 427.2056 207.240861 
L 427.548868 207.909868 
L 427.548868 208.737716 
L 427.892379 209.020323 
L 427.892379 209.840729 
L 428.235891 217.049704 
L 428.235891 211.866202 
L 428.581848 217.22299 
L 428.581848 212.884882 
L 428.929271 218.348075 
L 428.929271 213.723993 
L 429.277429 218.986044 
L 429.277429 215.067357 
L 429.625097 219.742022 
L 429.625097 215.720669 
L 429.972276 215.824475 
L 430.31921 216.108688 
L 430.31921 216.778477 
L 430.670546 216.907093 
L 430.670546 217.464876 
L 431.021148 222.39215 
L 431.021148 218.952677 
L 431.371016 222.985069 
L 431.371016 219.859394 
L 431.720151 223.551087 
L 431.720151 220.559141 
L 432.076621 224.092103 
L 432.076621 220.719804 
L 432.427957 223.990475 
L 432.427957 221.028731 
L 432.779292 224.129466 
L 432.779292 221.297571 
L 433.134784 224.583407 
L 433.134784 222.067481 
L 433.487342 225.160512 
L 433.487342 222.651692 
L 433.840144 225.698612 
L 433.840144 223.218482 
L 434.192947 225.933854 
L 434.192947 223.675215 
L 434.546727 226.228303 
L 434.546727 223.8453 
L 434.900263 226.603516 
L 434.900263 224.177959 
L 435.255266 226.582182 
L 435.255266 224.361214 
L 435.60978 226.805296 
L 435.60978 224.528101 
L 435.963805 227.062579 
L 435.963805 224.986833 
L 436.32003 227.356964 
L 436.32003 225.464982 
L 436.675278 227.784899 
L 436.675278 225.914431 
L 437.037371 228.064259 
L 437.037371 226.219767 
L 437.394085 228.265216 
L 437.394085 226.548045 
L 437.750799 228.510227 
L 437.750799 226.74929 
L 438.107758 228.687024 
L 438.107758 227.067249 
L 438.465695 228.845427 
L 438.465695 227.284661 
L 438.823143 229.137682 
L 438.823143 227.64359 
L 439.181569 229.310259 
L 439.181569 227.799599 
L 439.540728 229.373043 
L 439.540728 227.816978 
L 439.900132 229.375013 
L 439.900132 228.025991 
L 440.258557 229.619669 
L 440.258557 228.324292 
L 440.617717 229.929367 
L 440.617717 228.67414 
L 440.976631 230.104816 
L 440.976631 228.820394 
L 441.335546 230.164087 
L 441.335546 228.871455 
L 441.69495 230.174159 
L 441.69495 228.825732 
L 442.059977 230.173802 
L 442.059977 229.137793 
L 442.423048 230.473699 
L 442.423048 229.408108 
L 442.782696 230.778048 
L 442.782696 229.555341 
L 443.1421 230.66287 
L 443.1421 229.685142 
L 443.500526 230.802504 
L 443.500526 229.838773 
L 443.858707 231.073409 
L 443.858707 230.119742 
L 444.217866 231.153108 
L 444.217866 230.232025 
L 444.577025 231.225904 
L 444.577025 230.343936 
L 444.937163 231.32259 
L 444.937163 230.426682 
L 445.296322 231.383797 
L 445.296322 230.561467 
L 445.656459 231.497183 
L 445.656459 230.686892 
L 446.01733 231.606554 
L 446.01733 230.854026 
L 446.378934 231.710839 
L 446.378934 230.839646 
L 446.740783 231.754766 
L 446.740783 230.961366 
L 447.107521 231.734398 
L 447.107521 231.01501 
L 447.469125 231.891142 
L 447.469125 231.07769 
L 447.831707 231.886276 
L 447.831707 231.22288 
L 448.194045 231.952935 
L 448.194045 231.302554 
L 448.557116 232.123815 
L 448.557116 231.420741 
L 448.919454 232.085033 
L 448.919454 231.404934 
L 449.282036 232.092851 
L 449.282036 231.393009 
L 449.644618 232.111305 
L 449.644618 231.481269 
L 450.006956 232.223889 
L 450.006956 231.553087 
L 450.369538 232.199873 
L 450.369538 231.572704 
L 450.732364 232.283107 
L 450.732364 231.616846 
L 451.094702 232.325921 
L 451.094702 231.689064 
L 451.457284 232.287951 
L 451.457284 231.709909 
L 451.819866 232.381795 
L 451.819866 231.717568 
L 452.187827 232.382527 
L 452.187827 231.882873 
L 452.550165 232.430344 
L 452.550165 231.831509 
L 452.91617 232.463848 
L 452.91617 231.894713 
L 453.278997 232.446361 
L 453.278997 231.839173 
L 453.641579 232.411519 
L 453.641579 231.849682 
L 454.004161 232.421536 
L 454.004161 231.83093 
L 454.366743 232.419886 
L 454.366743 231.87105 
L 454.729325 232.448304 
L 454.729325 231.871185 
L 455.091907 232.498336 
L 455.091907 231.931689 
L 455.454489 232.496223 
L 455.454489 231.947325 
L 455.817072 232.535633 
L 455.817072 231.977493 
L 456.179409 232.570402 
L 456.179409 232.021879 
L 456.541991 232.577689 
L 456.541991 232.05471 
L 456.904573 232.597994 
L 456.904573 232.172198 
L 457.27229 232.746657 
L 457.27229 232.275656 
L 457.634872 232.829425 
L 457.634872 232.331268 
L 457.997699 232.795006 
L 457.997699 232.315052 
L 458.361503 232.789634 
L 458.361503 232.351179 
L 458.724085 232.891148 
L 458.724085 232.371802 
L 459.086668 232.84387 
L 459.086668 232.397853 
L 459.449005 232.814313 
L 459.449005 232.366619 
L 459.811587 232.887043 
L 459.811587 232.477647 
L 460.174169 232.946269 
L 460.174169 232.562896 
L 460.536752 233.017907 
L 460.536752 232.5881 
L 460.899089 232.995286 
L 460.899089 232.598754 
L 461.261671 233.016677 
L 461.261671 232.577701 
L 461.624009 233.010704 
L 461.624009 232.684169 
L 461.986591 233.085244 
L 461.986591 232.702104 
L 462.354308 233.132932 
L 462.354308 232.797346 
L 462.720068 233.142451 
L 462.720068 232.760064 
L 463.08265 233.150035 
L 463.08265 232.79079 
L 463.445232 233.120656 
L 463.445232 232.773385 
L 463.80757 233.167091 
L 463.80757 232.83342 
L 464.169908 233.197238 
L 464.169908 232.875961 
L 464.53249 233.20711 
L 464.53249 232.878919 
L 464.895072 233.209458 
L 464.895072 232.874403 
L 465.257654 233.212286 
L 465.257654 232.897897 
L 465.621459 233.228801 
L 465.621459 232.938034 
L 465.983796 233.278401 
L 465.983796 232.947853 
L 466.346378 233.29067 
L 466.346378 233.007375 
L 466.708716 233.305143 
L 466.708716 233.029757 
L 467.071298 233.357478 
L 467.071298 233.055522 
L 467.439015 233.341303 
L 467.439015 233.034775 
L 467.801597 233.30273 
L 467.801597 232.998496 
L 468.164179 233.306648 
L 468.164179 233.024954 
L 468.526761 233.329906 
L 468.526761 233.017155 
L 468.889343 233.335157 
L 468.889343 233.041334 
L 469.251681 233.311003 
L 469.251681 233.043774 
L 469.614263 233.378992 
L 469.614263 233.09834 
L 469.976845 233.409046 
L 469.976845 233.163477 
L 470.339183 233.435445 
L 470.339183 233.1381 
L 470.701765 233.411763 
L 470.701765 233.122183 
L 471.064103 233.38848 
L 471.064103 233.132299 
L 471.42644 233.41774 
L 471.42644 233.16596 
L 471.789022 233.439006 
L 471.789022 233.189666 
L 472.151849 233.457723 
L 472.151849 233.245408 
L 472.522988 233.505044 
L 472.522988 233.280359 
L 472.886548 233.532615 
L 472.886548 233.310391 
L 473.24962 233.543645 
L 473.24962 233.29227 
L 473.611957 233.534909 
L 473.611957 233.30094 
L 473.974295 233.523757 
L 473.974295 233.296271 
L 474.336877 233.550419 
L 474.336877 233.310939 
L 474.699215 233.543195 
L 474.699215 233.342843 
L 475.061797 233.558187 
L 475.061797 233.339538 
L 475.424379 233.565848 
L 475.424379 233.338075 
L 475.786717 233.537457 
L 475.786717 233.311867 
L 476.149299 233.542793 
L 476.149299 233.340086 
L 476.511636 233.575895 
L 476.511636 233.367937 
L 476.874218 233.593366 
L 476.874218 233.375179 
L 477.236801 233.577896 
L 477.236801 233.369633 
L 477.604762 233.590923 
L 477.604762 233.39809 
L 477.967344 233.615198 
L 477.967344 233.420807 
L 478.329681 233.642648 
L 478.329681 233.439526 
L 478.692019 233.640646 
L 478.692019 233.459782 
L 479.054601 233.664658 
L 479.054601 233.467476 
L 479.416939 233.664987 
L 479.416939 233.477341 
L 479.779521 233.660444 
L 479.779521 233.492591 
L 480.141859 233.686331 
L 480.141859 233.504123 
L 480.504441 233.696561 
L 480.504441 233.532708 
L 480.866778 233.70155 
L 480.866778 233.535066 
L 481.22936 233.724127 
L 481.22936 233.556995 
L 481.594876 233.716575 
L 481.594876 233.561162 
L 481.957459 233.72604 
L 481.957459 233.558663 
L 482.320041 233.727708 
L 482.320041 233.564385 
L 482.687757 233.724112 
L 482.687757 233.569385 
L 483.050339 233.733335 
L 483.050339 233.577705 
L 483.412677 233.747251 
L 483.412677 233.594405 
L 483.775015 233.749767 
L 483.775015 233.587056 
L 484.137597 233.747321 
L 484.137597 233.591163 
L 484.500179 233.750669 
L 484.500179 233.610978 
L 484.862761 233.786211 
L 484.862761 233.611657 
L 485.225099 233.771481 
L 485.225099 233.613897 
L 485.587436 233.753748 
L 485.587436 233.611625 
L 485.950018 233.790171 
L 485.950018 233.646745 
L 486.312356 233.797356 
L 486.312356 233.654834 
L 486.674938 233.800379 
L 486.674938 233.652741 
L 487.03752 233.807519 
L 487.03752 233.67205 
L 487.399858 233.821161 
L 487.399858 233.6871 
L 487.767574 233.82842 
L 487.767574 233.699095 
L 488.129912 233.842363 
L 488.129912 233.715423 
L 488.492983 233.848623 
L 488.492983 233.708512 
L 488.855565 233.829092 
L 488.855565 233.698837 
L 489.218148 233.826259 
L 489.218148 233.693565 
L 489.58073 233.835374 
L 489.58073 233.71804 
L 489.943067 233.845193 
L 489.943067 233.711331 
L 490.305649 233.837922 
L 490.305649 233.71116 
L 490.667987 233.829634 
L 490.667987 233.6973 
L 491.030569 233.831875 
L 491.030569 233.712975 
L 491.392907 233.834329 
L 491.392907 233.711694 
L 491.755489 233.853408 
L 491.755489 233.735438 
L 492.480409 233.872028 
L 492.480409 233.756229 
L 493.213641 233.882542 
L 493.213641 233.770141 
L 493.575979 233.887097 
L 493.575979 233.758652 
L 494.302121 233.874212 
L 494.302121 233.761299 
L 495.027041 233.902597 
L 495.027041 233.793774 
L 495.389379 233.900892 
L 495.389379 233.794786 
L 496.114298 233.894492 
L 496.114298 233.798246 
L 496.839463 233.931488 
L 496.839463 233.826893 
L 497.564138 233.929275 
L 497.564138 233.827138 
L 498.294436 233.940857 
L 498.294436 233.841501 
L 499.019356 233.945523 
L 499.019356 233.864155 
L 499.381938 233.967506 
L 499.381938 233.868392 
L 500.106614 233.955825 
L 500.106614 233.859802 
L 500.831533 233.954063 
L 500.831533 233.85995 
L 501.556698 233.957473 
L 501.556698 233.872723 
L 502.281373 233.974887 
L 502.281373 233.89555 
L 503.017295 233.973882 
L 503.017295 233.882776 
L 503.742215 233.971214 
L 503.742215 233.896536 
L 504.467134 233.98465 
L 504.467134 233.895081 
L 505.192054 233.988403 
L 505.192054 233.901255 
L 505.554392 233.991803 
L 505.554392 233.895534 
L 506.279556 233.980578 
L 506.279556 233.897226 
L 507.004476 233.993515 
L 507.004476 233.905741 
L 507.729396 233.989665 
L 507.729396 233.910226 
L 508.462384 234.005324 
L 508.462384 233.933121 
L 509.187304 234.015712 
L 509.187304 233.949716 
L 509.912223 234.02049 
L 509.912223 233.957128 
L 510.637143 234.025019 
L 510.637143 233.954653 
L 511.362063 234.018925 
L 511.362063 233.94816 
L 512.086983 234.016767 
L 512.086983 233.946371 
L 512.815325 234.019194 
L 512.815325 233.958942 
L 513.545624 234.0292 
L 513.545624 233.964143 
L 513.908206 234.024031 
L 513.908206 233.958296 
L 578.519707 234.112865 
L 580.337263 234.105771 
L 581.787102 234.117026 
L 583.964795 234.087241 
L 585.420014 234.109976 
L 586.507271 234.105291 
L 587.9576 234.122205 
L 596.31068 234.128627 
L 597.76052 234.126937 
L 610.104449 234.129433 
L 610.104449 234.129755 
L 612.64179 234.154302 
L 612.64179 234.132566 
L 631.883826 234.150927 
L 682.733098 234.152277 
L 694.350885 234.157353 
L 716.136619 234.155293 
L 748.829889 234.146566 
L 757.181503 234.142943 
L 757.181503 234.149135 
L 789.127116 234.133231 
L 798.565498 234.158907 
L 798.565498 234.163228 
L 801.452219 234.170803 
L 801.452219 234.166097 
L 804.66167 234.140541 
L 804.66167 234.155625 
L 807.145957 234.097797 
L 812.44924 234.086768 
L 812.8106 234.100387 
L 812.8106 234.100387 
" clip-path="url(#p46177aeeaf)" style="fill: none; stroke: #008000; stroke-width: 1.5; stroke-linecap: square"/>
   </g>
   <g id="patch_3">
    <path d="M 47.72 534.04 
L 47.72 26.88 
" style="fill: none; stroke: #000000; stroke-width: 0.8; stroke-linejoin: miter; stroke-linecap: square"/>
   </g>
   <g id="patch_4">
    <path d="M 853.2 534.04 
L 853.2 26.88 
" style="fill: none; stroke: #000000; stroke-width: 0.8; stroke-linejoin: miter; stroke-linecap: square"/>
   </g>
   <g id="patch_5">
    <path d="M 47.72 534.04 
L 853.2 534.04 
" style="fill: none; stroke: #000000; stroke-width: 0.8; stroke-linejoin: miter; stroke-linecap: square"/>
   </g>
   <g id="patch_6">
    <path d="M 47.72 26.88 
L 853.2 26.88 
" style="fill: none; stroke: #000000; stroke-width: 0.8; stroke-linejoin: miter; stroke-linecap: square"/>
   </g>
   <g id="patch_7">
    <path d="M 484.953032 339.182 
Q 458.801738 345.011114 432.650444 350.840228 
L 433.520686 354.744416 
Q 427.013412 353.121262 420.506138 351.498108 
Q 425.708049 347.264981 430.90996 343.031854 
L 431.780202 346.936041 
Q 457.931496 341.106927 484.08279 335.277813 
L 484.953032 339.182 
z
" style="stroke: #000000; stroke-linecap: round"/>
   </g>
   <g id="text_15">
    <!-- Peak: RT=2.28, Area=6.42e+03 -->
    <g style="fill: #ff0000" transform="translate(490.190005 322.688099) scale(0.1 -0.1)">
     <defs>
      <path id="DejaVuSans-50" d="M 1259 4147 
L 1259 2394 
L 2053 2394 
Q 2494 2394 2734 2622 
Q 2975 2850 2975 3272 
Q 2975 3691 2734 3919 
Q 2494 4147 2053 4147 
L 1259 4147 
z
M 628 4666 
L 2053 4666 
Q 2838 4666 3239 4311 
Q 3641 3956 3641 3272 
Q 3641 2581 3239 2228 
Q 2838 1875 2053 1875 
L 1259 1875 
L 1259 0 
L 628 0 
L 628 4666 
z
" transform="scale(0.015625)"/>
      <path id="DejaVuSans-6b" d="M 581 4863 
L 1159 4863 
L 1159 1991 
L 2875 3500 
L 3609 3500 
L 1753 1863 
L 3688 0 
L 2938 0 
L 1159 1709 
L 1159 0 
L 581 0 
L 581 4863 
z
" transform="scale(0.015625)"/>
      <path id="DejaVuSans-3a" d="M 750 794 
L 1409 794 
L 1409 0 
L 750 0 
L 750 794 
z
M 750 3309 
L 1409 3309 
L 1409 2516 
L 750 2516 
L 750 3309 
z
" transform="scale(0.015625)"/>
      <path id="DejaVuSans-3d" d="M 678 2906 
L 4684 2906 
L 4684 2381 
L 678 2381 
L 678 2906 
z
M 678 1631 
L 4684 1631 
L 4684 1100 
L 678 1100 
L 678 1631 
z
" transform="scale(0.015625)"/>
      <path id="DejaVuSans-38" d="M 2034 2216 
Q 1584 2216 1326 1975 
Q 1069 1734 1069 1313 
Q 1069 891 1326 650 
Q 1584 409 2034 409 
Q 2484 409 2743 651 
Q 3003 894 3003 1313 
Q 3003 1734 2745 1975 
Q 2488 2216 2034 2216 
z
M 1403 2484 
Q 997 2584 770 2862 
Q 544 3141 544 3541 
Q 544 4100 942 4425 
Q 1341 4750 2034 4750 
Q 2731 4750 3128 4425 
Q 3525 4100 3525 3541 
Q 3525 3141 3298 2862 
Q 3072 2584 2669 2484 
Q 3125 2378 3379 2068 
Q 3634 1759 3634 1313 
Q 3634 634 3220 271 
Q 2806 -91 2034 -91 
Q 1263 -91 848 271 
Q 434 634 434 1313 
Q 434 1759 690 2068 
Q 947 2378 1403 2484 
z
M 1172 3481 
Q 1172 3119 1398 2916 
Q 1625 2713 2034 2713 
Q 2441 2713 2670 2916 
Q 2900 3119 2900 3481 
Q 2900 3844 2670 4047 
Q 2441 4250 2034 4250 
Q 1625 4250 1398 4047 
Q 1172 3844 1172 3481 
z
" transform="scale(0.015625)"/>
      <path id="DejaVuSans-2c" d="M 750 794 
L 1409 794 
L 1409 256 
L 897 -744 
L 494 -744 
L 750 256 
L 750 794 
z
" transform="scale(0.015625)"/>
      <path id="DejaVuSans-41" d="M 2188 4044 
L 1331 1722 
L 3047 1722 
L 2188 4044 
z
M 1831 4666 
L 2547 4666 
L 4325 0 
L 3669 0 
L 3244 1197 
L 1141 1197 
L 716 0 
L 50 0 
L 1831 4666 
z
" transform="scale(0.015625)"/>
      <path id="DejaVuSans-36" d="M 2113 2584 
Q 1688 2584 1439 2293 
Q 1191 2003 1191 1497 
Q 1191 994 1439 701 
Q 1688 409 2113 409 
Q 2538 409 2786 701 
Q 3034 994 3034 1497 
Q 3034 2003 2786 2293 
Q 2538 2584 2113 2584 
z
M 3366 4563 
L 3366 3988 
Q 3128 4100 2886 4159 
Q 2644 4219 2406 4219 
Q 1781 4219 1451 3797 
Q 1122 3375 1075 2522 
Q 1259 2794 1537 2939 
Q 1816 3084 2150 3084 
Q 2853 3084 3261 2657 
Q 3669 2231 3669 1497 
Q 3669 778 3244 343 
Q 2819 -91 2113 -91 
Q 1303 -91 875 529 
Q 447 1150 447 2328 
Q 447 3434 972 4092 
Q 1497 4750 2381 4750 
Q 2619 4750 2861 4703 
Q 3103 4656 3366 4563 
z
" transform="scale(0.015625)"/>
      <path id="DejaVuSans-2b" d="M 2944 4013 
L 2944 2272 
L 4684 2272 
L 4684 1741 
L 2944 1741 
L 2944 0 
L 2419 0 
L 2419 1741 
L 678 1741 
L 678 2272 
L 2419 2272 
L 2419 4013 
L 2944 4013 
z
" transform="scale(0.015625)"/>
     </defs>
     <use xlink:href="#DejaVuSans-50"/>
     <use xlink:href="#DejaVuSans-65" transform="translate(56.677734 0)"/>
     <use xlink:href="#DejaVuSans-61" transform="translate(118.201172 0)"/>
     <use xlink:href="#DejaVuSans-6b" transform="translate(179.480469 0)"/>
     <use xlink:href="#DejaVuSans-3a" transform="translate(237.390625 0)"/>
     <use xlink:href="#DejaVuSans-20" transform="translate(271.082031 0)"/>
     <use xlink:href="#DejaVuSans-52" transform="translate(302.869141 0)"/>
     <use xlink:href="#DejaVuSans-54" transform="translate(365.101562 0)"/>
     <use xlink:href="#DejaVuSans-3d" transform="translate(426.185547 0)"/>
     <use xlink:href="#DejaVuSans-32" transform="translate(509.974609 0)"/>
     <use xlink:href="#DejaVuSans-2e" transform="translate(573.597656 0)"/>
     <use xlink:href="#DejaVuSans-32" transform="translate(605.384766 0)"/>
     <use xlink:href="#DejaVuSans-38" transform="translate(669.007812 0)"/>
     <use xlink:href="#DejaVuSans-2c" transform="translate(732.630859 0)"/>
     <use xlink:href="#DejaVuSans-20" transform="translate(764.417969 0)"/>
     <use xlink:href="#DejaVuSans-41" transform="translate(796.205078 0)"/>
     <use xlink:href="#DejaVuSans-72" transform="translate(864.613281 0)"/>
     <use xlink:href="#DejaVuSans-65" transform="translate(903.476562 0)"/>
     <use xlink:href="#DejaVuSans-61" transform="translate(965 0)"/>
     <use xlink:href="#DejaVuSans-3d" transform="translate(1026.279297 0)"/>
     <use xlink:href="#DejaVuSans-36" transform="translate(1110.068359 0)"/>
     <use xlink:href="#DejaVuSans-2e" transform="translate(1173.691406 0)"/>
     <use xlink:href="#DejaVuSans-34" transform="translate(1205.478516 0)"/>
     <use xlink:href="#DejaVuSans-32" transform="translate(1269.101562 0)"/>
     <use xlink:href="#DejaVuSans-65" transform="translate(1332.724609 0)"/>
     <use xlink:href="#DejaVuSans-2b" transform="translate(1394.248047 0)"/>
     <use xlink:href="#DejaVuSans-30" transform="translate(1478.037109 0)"/>
     <use xlink:href="#DejaVuSans-33" transform="translate(1541.660156 0)"/>
    </g>
    <!-- (53.77% of total) -->
    <g style="fill: #ff0000" transform="translate(490.190005 333.885911) scale(0.1 -0.1)">
     <defs>
      <path id="DejaVuSans-37" d="M 525 4666 
L 3525 4666 
L 3525 4397 
L 1831 0 
L 1172 0 
L 2766 4134 
L 525 4134 
L 525 4666 
z
" transform="scale(0.015625)"/>
      <path id="DejaVuSans-25" d="M 4653 2053 
Q 4381 2053 4226 1822 
Q 4072 1591 4072 1178 
Q 4072 772 4226 539 
Q 4381 306 4653 306 
Q 4919 306 5073 539 
Q 5228 772 5228 1178 
Q 5228 1588 5073 1820 
Q 4919 2053 4653 2053 
z
M 4653 2450 
Q 5147 2450 5437 2106 
Q 5728 1763 5728 1178 
Q 5728 594 5436 251 
Q 5144 -91 4653 -91 
Q 4153 -91 3862 251 
Q 3572 594 3572 1178 
Q 3572 1766 3864 2108 
Q 4156 2450 4653 2450 
z
M 1428 4353 
Q 1159 4353 1004 4120 
Q 850 3888 850 3481 
Q 850 3069 1003 2837 
Q 1156 2606 1428 2606 
Q 1700 2606 1854 2837 
Q 2009 3069 2009 3481 
Q 2009 3884 1853 4118 
Q 1697 4353 1428 4353 
z
M 4250 4750 
L 4750 4750 
L 1831 -91 
L 1331 -91 
L 4250 4750 
z
M 1428 4750 
Q 1922 4750 2215 4408 
Q 2509 4066 2509 3481 
Q 2509 2891 2217 2550 
Q 1925 2209 1428 2209 
Q 931 2209 642 2551 
Q 353 2894 353 3481 
Q 353 4063 643 4406 
Q 934 4750 1428 4750 
z
" transform="scale(0.015625)"/>
      <path id="DejaVuSans-66" d="M 2375 4863 
L 2375 4384 
L 1825 4384 
Q 1516 4384 1395 4259 
Q 1275 4134 1275 3809 
L 1275 3500 
L 2222 3500 
L 2222 3053 
L 1275 3053 
L 1275 0 
L 697 0 
L 697 3053 
L 147 3053 
L 147 3500 
L 697 3500 
L 697 3744 
Q 697 4328 969 4595 
Q 1241 4863 1831 4863 
L 2375 4863 
z
" transform="scale(0.015625)"/>
     </defs>
     <use xlink:href="#DejaVuSans-28"/>
     <use xlink:href="#DejaVuSans-35" transform="translate(39.013672 0)"/>
     <use xlink:href="#DejaVuSans-33" transform="translate(102.636719 0)"/>
     <use xlink:href="#DejaVuSans-2e" transform="translate(166.259766 0)"/>
     <use xlink:href="#DejaVuSans-37" transform="translate(198.046875 0)"/>
     <use xlink:href="#DejaVuSans-37" transform="translate(261.669922 0)"/>
     <use xlink:href="#DejaVuSans-25" transform="translate(325.292969 0)"/>
     <use xlink:href="#DejaVuSans-20" transform="translate(420.3125 0)"/>
     <use xlink:href="#DejaVuSans-6f" transform="translate(452.099609 0)"/>
     <use xlink:href="#DejaVuSans-66" transform="translate(513.28125 0)"/>
     <use xlink:href="#DejaVuSans-20" transform="translate(548.486328 0)"/>
     <use xlink:href="#DejaVuSans-74" transform="translate(580.273438 0)"/>
     <use xlink:href="#DejaVuSans-6f" transform="translate(619.482422 0)"/>
     <use xlink:href="#DejaVuSans-74" transform="translate(680.664062 0)"/>
     <use xlink:href="#DejaVuSans-61" transform="translate(719.873047 0)"/>
     <use xlink:href="#DejaVuSans-6c" transform="translate(781.152344 0)"/>
     <use xlink:href="#DejaVuSans-29" transform="translate(808.935547 0)"/>
    </g>
   </g>
   <g id="text_16">
    <!-- UV &amp; MS Chromatograms: IrCp1A21, target m/z=551.1771137 -->
    <g transform="translate(262.3075 20.88) scale(0.12 -0.12)">
     <defs>
      <path id="DejaVuSans-55" d="M 556 4666 
L 1191 4666 
L 1191 1831 
Q 1191 1081 1462 751 
Q 1734 422 2344 422 
Q 2950 422 3222 751 
Q 3494 1081 3494 1831 
L 3494 4666 
L 4128 4666 
L 4128 1753 
Q 4128 841 3676 375 
Q 3225 -91 2344 -91 
Q 1459 -91 1007 375 
Q 556 841 556 1753 
L 556 4666 
z
" transform="scale(0.015625)"/>
      <path id="DejaVuSans-56" d="M 1831 0 
L 50 4666 
L 709 4666 
L 2188 738 
L 3669 4666 
L 4325 4666 
L 2547 0 
L 1831 0 
z
" transform="scale(0.015625)"/>
      <path id="DejaVuSans-26" d="M 1556 2509 
Q 1272 2256 1139 2004 
Q 1006 1753 1006 1478 
Q 1006 1022 1337 719 
Q 1669 416 2169 416 
Q 2466 416 2725 514 
Q 2984 613 3213 813 
L 1556 2509 
z
M 1997 2859 
L 3584 1234 
Q 3769 1513 3872 1830 
Q 3975 2147 3994 2503 
L 4575 2503 
Q 4538 2091 4375 1687 
Q 4213 1284 3922 891 
L 4794 0 
L 4006 0 
L 3559 459 
Q 3234 181 2878 45 
Q 2522 -91 2113 -91 
Q 1359 -91 881 339 
Q 403 769 403 1441 
Q 403 1841 612 2192 
Q 822 2544 1241 2853 
Q 1091 3050 1012 3245 
Q 934 3441 934 3628 
Q 934 4134 1281 4442 
Q 1628 4750 2203 4750 
Q 2463 4750 2720 4694 
Q 2978 4638 3244 4525 
L 3244 3956 
Q 2972 4103 2725 4179 
Q 2478 4256 2266 4256 
Q 1938 4256 1733 4082 
Q 1528 3909 1528 3634 
Q 1528 3475 1620 3314 
Q 1713 3153 1997 2859 
z
" transform="scale(0.015625)"/>
      <path id="DejaVuSans-4d" d="M 628 4666 
L 1569 4666 
L 2759 1491 
L 3956 4666 
L 4897 4666 
L 4897 0 
L 4281 0 
L 4281 4097 
L 3078 897 
L 2444 897 
L 1241 4097 
L 1241 0 
L 628 0 
L 628 4666 
z
" transform="scale(0.015625)"/>
      <path id="DejaVuSans-53" d="M 3425 4513 
L 3425 3897 
Q 3066 4069 2747 4153 
Q 2428 4238 2131 4238 
Q 1616 4238 1336 4038 
Q 1056 3838 1056 3469 
Q 1056 3159 1242 3001 
Q 1428 2844 1947 2747 
L 2328 2669 
Q 3034 2534 3370 2195 
Q 3706 1856 3706 1288 
Q 3706 609 3251 259 
Q 2797 -91 1919 -91 
Q 1588 -91 1214 -16 
Q 841 59 441 206 
L 441 856 
Q 825 641 1194 531 
Q 1563 422 1919 422 
Q 2459 422 2753 634 
Q 3047 847 3047 1241 
Q 3047 1584 2836 1778 
Q 2625 1972 2144 2069 
L 1759 2144 
Q 1053 2284 737 2584 
Q 422 2884 422 3419 
Q 422 4038 858 4394 
Q 1294 4750 2059 4750 
Q 2388 4750 2728 4690 
Q 3069 4631 3425 4513 
z
" transform="scale(0.015625)"/>
      <path id="DejaVuSans-43" d="M 4122 4306 
L 4122 3641 
Q 3803 3938 3442 4084 
Q 3081 4231 2675 4231 
Q 1875 4231 1450 3742 
Q 1025 3253 1025 2328 
Q 1025 1406 1450 917 
Q 1875 428 2675 428 
Q 3081 428 3442 575 
Q 3803 722 4122 1019 
L 4122 359 
Q 3791 134 3420 21 
Q 3050 -91 2638 -91 
Q 1578 -91 968 557 
Q 359 1206 359 2328 
Q 359 3453 968 4101 
Q 1578 4750 2638 4750 
Q 3056 4750 3426 4639 
Q 3797 4528 4122 4306 
z
" transform="scale(0.015625)"/>
      <path id="DejaVuSans-68" d="M 3513 2113 
L 3513 0 
L 2938 0 
L 2938 2094 
Q 2938 2591 2744 2837 
Q 2550 3084 2163 3084 
Q 1697 3084 1428 2787 
Q 1159 2491 1159 1978 
L 1159 0 
L 581 0 
L 581 4863 
L 1159 4863 
L 1159 2956 
Q 1366 3272 1645 3428 
Q 1925 3584 2291 3584 
Q 2894 3584 3203 3211 
Q 3513 2838 3513 2113 
z
" transform="scale(0.015625)"/>
      <path id="DejaVuSans-67" d="M 2906 1791 
Q 2906 2416 2648 2759 
Q 2391 3103 1925 3103 
Q 1463 3103 1205 2759 
Q 947 2416 947 1791 
Q 947 1169 1205 825 
Q 1463 481 1925 481 
Q 2391 481 2648 825 
Q 2906 1169 2906 1791 
z
M 3481 434 
Q 3481 -459 3084 -895 
Q 2688 -1331 1869 -1331 
Q 1566 -1331 1297 -1286 
Q 1028 -1241 775 -1147 
L 775 -588 
Q 1028 -725 1275 -790 
Q 1522 -856 1778 -856 
Q 2344 -856 2625 -561 
Q 2906 -266 2906 331 
L 2906 616 
Q 2728 306 2450 153 
Q 2172 0 1784 0 
Q 1141 0 747 490 
Q 353 981 353 1791 
Q 353 2603 747 3093 
Q 1141 3584 1784 3584 
Q 2172 3584 2450 3431 
Q 2728 3278 2906 2969 
L 2906 3500 
L 3481 3500 
L 3481 434 
z
" transform="scale(0.015625)"/>
      <path id="DejaVuSans-70" d="M 1159 525 
L 1159 -1331 
L 581 -1331 
L 581 3500 
L 1159 3500 
L 1159 2969 
Q 1341 3281 1617 3432 
Q 1894 3584 2278 3584 
Q 2916 3584 3314 3078 
Q 3713 2572 3713 1747 
Q 3713 922 3314 415 
Q 2916 -91 2278 -91 
Q 1894 -91 1617 61 
Q 1341 213 1159 525 
z
M 3116 1747 
Q 3116 2381 2855 2742 
Q 2594 3103 2138 3103 
Q 1681 3103 1420 2742 
Q 1159 2381 1159 1747 
Q 1159 1113 1420 752 
Q 1681 391 2138 391 
Q 2594 391 2855 752 
Q 3116 1113 3116 1747 
z
" transform="scale(0.015625)"/>
      <path id="DejaVuSans-2f" d="M 1625 4666 
L 2156 4666 
L 531 -594 
L 0 -594 
L 1625 4666 
z
" transform="scale(0.015625)"/>
     </defs>
     <use xlink:href="#DejaVuSans-55"/>
     <use xlink:href="#DejaVuSans-56" transform="translate(73.193359 0)"/>
     <use xlink:href="#DejaVuSans-20" transform="translate(141.601562 0)"/>
     <use xlink:href="#DejaVuSans-26" transform="translate(173.388672 0)"/>
     <use xlink:href="#DejaVuSans-20" transform="translate(251.367188 0)"/>
     <use xlink:href="#DejaVuSans-4d" transform="translate(283.154297 0)"/>
     <use xlink:href="#DejaVuSans-53" transform="translate(369.433594 0)"/>
     <use xlink:href="#DejaVuSans-20" transform="translate(432.910156 0)"/>
     <use xlink:href="#DejaVuSans-43" transform="translate(464.697266 0)"/>
     <use xlink:href="#DejaVuSans-68" transform="translate(534.521484 0)"/>
     <use xlink:href="#DejaVuSans-72" transform="translate(597.900391 0)"/>
     <use xlink:href="#DejaVuSans-6f" transform="translate(636.763672 0)"/>
     <use xlink:href="#DejaVuSans-6d" transform="translate(697.945312 0)"/>
     <use xlink:href="#DejaVuSans-61" transform="translate(795.357422 0)"/>
     <use xlink:href="#DejaVuSans-74" transform="translate(856.636719 0)"/>
     <use xlink:href="#DejaVuSans-6f" transform="translate(895.845703 0)"/>
     <use xlink:href="#DejaVuSans-67" transform="translate(957.027344 0)"/>
     <use xlink:href="#DejaVuSans-72" transform="translate(1020.503906 0)"/>
     <use xlink:href="#DejaVuSans-61" transform="translate(1061.617188 0)"/>
     <use xlink:href="#DejaVuSans-6d" transform="translate(1122.896484 0)"/>
     <use xlink:href="#DejaVuSans-73" transform="translate(1220.308594 0)"/>
     <use xlink:href="#DejaVuSans-3a" transform="translate(1272.408203 0)"/>
     <use xlink:href="#DejaVuSans-20" transform="translate(1306.099609 0)"/>
     <use xlink:href="#DejaVuSans-49" transform="translate(1337.886719 0)"/>
     <use xlink:href="#DejaVuSans-72" transform="translate(1367.378906 0)"/>
     <use xlink:href="#DejaVuSans-43" transform="translate(1408.492188 0)"/>
     <use xlink:href="#DejaVuSans-70" transform="translate(1478.316406 0)"/>
     <use xlink:href="#DejaVuSans-31" transform="translate(1541.792969 0)"/>
     <use xlink:href="#DejaVuSans-41" transform="translate(1605.416016 0)"/>
     <use xlink:href="#DejaVuSans-32" transform="translate(1673.824219 0)"/>
     <use xlink:href="#DejaVuSans-31" transform="translate(1737.447266 0)"/>
     <use xlink:href="#DejaVuSans-2c" transform="translate(1801.070312 0)"/>
     <use xlink:href="#DejaVuSans-20" transform="translate(1832.857422 0)"/>
     <use xlink:href="#DejaVuSans-74" transform="translate(1864.644531 0)"/>
     <use xlink:href="#DejaVuSans-61" transform="translate(1903.853516 0)"/>
     <use xlink:href="#DejaVuSans-72" transform="translate(1965.132812 0)"/>
     <use xlink:href="#DejaVuSans-67" transform="translate(2004.496094 0)"/>
     <use xlink:href="#DejaVuSans-65" transform="translate(2067.972656 0)"/>
     <use xlink:href="#DejaVuSans-74" transform="translate(2129.496094 0)"/>
     <use xlink:href="#DejaVuSans-20" transform="translate(2168.705078 0)"/>
     <use xlink:href="#DejaVuSans-6d" transform="translate(2200.492188 0)"/>
     <use xlink:href="#DejaVuSans-2f" transform="translate(2297.904297 0)"/>
     <use xlink:href="#DejaVuSans-7a" transform="translate(2331.595703 0)"/>
     <use xlink:href="#DejaVuSans-3d" transform="translate(2384.085938 0)"/>
     <use xlink:href="#DejaVuSans-35" transform="translate(2467.875 0)"/>
     <use xlink:href="#DejaVuSans-35" transform="translate(2531.498047 0)"/>
     <use xlink:href="#DejaVuSans-31" transform="translate(2595.121094 0)"/>
     <use xlink:href="#DejaVuSans-2e" transform="translate(2658.744141 0)"/>
     <use xlink:href="#DejaVuSans-31" transform="translate(2690.53125 0)"/>
     <use xlink:href="#DejaVuSans-37" transform="translate(2754.154297 0)"/>
     <use xlink:href="#DejaVuSans-37" transform="translate(2817.777344 0)"/>
     <use xlink:href="#DejaVuSans-31" transform="translate(2881.400391 0)"/>
     <use xlink:href="#DejaVuSans-31" transform="translate(2945.023438 0)"/>
     <use xlink:href="#DejaVuSans-33" transform="translate(3008.646484 0)"/>
     <use xlink:href="#DejaVuSans-37" transform="translate(3072.269531 0)"/>
    </g>
   </g>
   <g id="legend_1">
    <g id="patch_8">
     <path d="M 685.971875 64.23625 
L 846.2 64.23625 
Q 848.2 64.23625 848.2 62.23625 
L 848.2 33.88 
Q 848.2 31.88 846.2 31.88 
L 685.971875 31.88 
Q 683.971875 31.88 683.971875 33.88 
L 683.971875 62.23625 
Q 683.971875 64.23625 685.971875 64.23625 
z
" style="fill: #ffffff; opacity: 0.8; stroke: #cccccc; stroke-linejoin: miter"/>
    </g>
    <g id="line2d_15">
     <path d="M 687.971875 39.978437 
L 697.971875 39.978437 
L 707.971875 39.978437 
" style="fill: none; stroke: #0000ff; stroke-width: 1.5; stroke-linecap: square"/>
    </g>
    <g id="text_17">
     <!-- UV Intensity (normalized) -->
     <g transform="translate(715.971875 43.478437) scale(0.1 -0.1)">
      <use xlink:href="#DejaVuSans-55"/>
      <use xlink:href="#DejaVuSans-56" transform="translate(73.193359 0)"/>
      <use xlink:href="#DejaVuSans-20" transform="translate(141.601562 0)"/>
      <use xlink:href="#DejaVuSans-49" transform="translate(173.388672 0)"/>
      <use xlink:href="#DejaVuSans-6e" transform="translate(202.880859 0)"/>
      <use xlink:href="#DejaVuSans-74" transform="translate(266.259766 0)"/>
      <use xlink:href="#DejaVuSans-65" transform="translate(305.46875 0)"/>
      <use xlink:href="#DejaVuSans-6e" transform="translate(366.992188 0)"/>
      <use xlink:href="#DejaVuSans-73" transform="translate(430.371094 0)"/>
      <use xlink:href="#DejaVuSans-69" transform="translate(482.470703 0)"/>
      <use xlink:href="#DejaVuSans-74" transform="translate(510.253906 0)"/>
      <use xlink:href="#DejaVuSans-79" transform="translate(549.462891 0)"/>
      <use xlink:href="#DejaVuSans-20" transform="translate(608.642578 0)"/>
      <use xlink:href="#DejaVuSans-28" transform="translate(640.429688 0)"/>
      <use xlink:href="#DejaVuSans-6e" transform="translate(679.443359 0)"/>
      <use xlink:href="#DejaVuSans-6f" transform="translate(742.822266 0)"/>
      <use xlink:href="#DejaVuSans-72" transform="translate(804.003906 0)"/>
      <use xlink:href="#DejaVuSans-6d" transform="translate(843.367188 0)"/>
      <use xlink:href="#DejaVuSans-61" transform="translate(940.779297 0)"/>
      <use xlink:href="#DejaVuSans-6c" transform="translate(1002.058594 0)"/>
      <use xlink:href="#DejaVuSans-69" transform="translate(1029.841797 0)"/>
      <use xlink:href="#DejaVuSans-7a" transform="translate(1057.625 0)"/>
      <use xlink:href="#DejaVuSans-65" transform="translate(1110.115234 0)"/>
      <use xlink:href="#DejaVuSans-64" transform="translate(1171.638672 0)"/>
      <use xlink:href="#DejaVuSans-29" transform="translate(1235.115234 0)"/>
     </g>
    </g>
    <g id="line2d_16">
     <path d="M 687.971875 54.656562 
L 697.971875 54.656562 
L 707.971875 54.656562 
" style="fill: none; stroke: #008000; stroke-width: 1.5; stroke-linecap: square"/>
    </g>
    <g id="text_18">
     <!-- MS Intensity (normalized) -->
     <g transform="translate(715.971875 58.156562) scale(0.1 -0.1)">
      <use xlink:href="#DejaVuSans-4d"/>
      <use xlink:href="#DejaVuSans-53" transform="translate(86.279297 0)"/>
      <use xlink:href="#DejaVuSans-20" transform="translate(149.755859 0)"/>
      <use xlink:href="#DejaVuSans-49" transform="translate(181.542969 0)"/>
      <use xlink:href="#DejaVuSans-6e" transform="translate(211.035156 0)"/>
      <use xlink:href="#DejaVuSans-74" transform="translate(274.414062 0)"/>
      <use xlink:href="#DejaVuSans-65" transform="translate(313.623047 0)"/>
      <use xlink:href="#DejaVuSans-6e" transform="translate(375.146484 0)"/>
      <use xlink:href="#DejaVuSans-73" transform="translate(438.525391 0)"/>
      <use xlink:href="#DejaVuSans-69" transform="translate(490.625 0)"/>
      <use xlink:href="#DejaVuSans-74" transform="translate(518.408203 0)"/>
      <use xlink:href="#DejaVuSans-79" transform="translate(557.617188 0)"/>
      <use xlink:href="#DejaVuSans-20" transform="translate(616.796875 0)"/>
      <use xlink:href="#DejaVuSans-28" transform="translate(648.583984 0)"/>
      <use xlink:href="#DejaVuSans-6e" transform="translate(687.597656 0)"/>
      <use xlink:href="#DejaVuSans-6f" transform="translate(750.976562 0)"/>
      <use xlink:href="#DejaVuSans-72" transform="translate(812.158203 0)"/>
      <use xlink:href="#DejaVuSans-6d" transform="translate(851.521484 0)"/>
      <use xlink:href="#DejaVuSans-61" transform="translate(948.933594 0)"/>
      <use xlink:href="#DejaVuSans-6c" transform="translate(1010.212891 0)"/>
      <use xlink:href="#DejaVuSans-69" transform="translate(1037.996094 0)"/>
      <use xlink:href="#DejaVuSans-7a" transform="translate(1065.779297 0)"/>
      <use xlink:href="#DejaVuSans-65" transform="translate(1118.269531 0)"/>
      <use xlink:href="#DejaVuSans-64" transform="translate(1179.792969 0)"/>
      <use xlink:href="#DejaVuSans-29" transform="translate(1243.269531 0)"/>
     </g>
    </g>
   </g>
  </g>
 </g>
 <defs>
  <clipPath id="p46177aeeaf">
   <rect x="47.72" y="26.88" width="805.48" height="507.16"/>
  </clipPath>
 </defs>
</svg>
