<?xml version="1.0" encoding="utf-8" standalone="no"?>
<!DOCTYPE svg PUBLIC "-//W3C//DTD SVG 1.1//EN"
  "http://www.w3.org/Graphics/SVG/1.1/DTD/svg11.dtd">
<svg xmlns:xlink="http://www.w3.org/1999/xlink" width="864pt" height="576pt" viewBox="0 0 864 576" xmlns="http://www.w3.org/2000/svg" version="1.1">
 <metadata>
  <rdf:RDF xmlns:dc="http://purl.org/dc/elements/1.1/" xmlns:cc="http://creativecommons.org/ns#" xmlns:rdf="http://www.w3.org/1999/02/22-rdf-syntax-ns#">
   <cc:Work>
    <dc:type rdf:resource="http://purl.org/dc/dcmitype/StillImage"/>
    <dc:date>2025-02-07T17:19:56.046451</dc:date>
    <dc:format>image/svg+xml</dc:format>
    <dc:creator>
     <cc:Agent>
      <dc:title>Matplotlib v3.10.0, https://matplotlib.org/</dc:title>
     </cc:Agent>
    </dc:creator>
   </cc:Work>
  </rdf:RDF>
 </metadata>
 <defs>
  <style type="text/css">*{stroke-linejoin: round; stroke-linecap: butt}</style>
 </defs>
 <g id="figure_1">
  <g id="patch_1">
   <path d="M 0 576 
L 864 576 
L 864 0 
L 0 0 
z
" style="fill: #ffffff"/>
  </g>
  <g id="axes_1">
   <g id="patch_2">
    <path d="M 47.72 534.04 
L 853.2 534.04 
L 853.2 26.88 
L 47.72 26.88 
z
" style="fill: #ffffff"/>
   </g>
   <g id="matplotlib.axis_1">
    <g id="xtick_1">
     <g id="line2d_1">
      <defs>
       <path id="m201788dff7" d="M 0 0 
L 0 3.5 
" style="stroke: #000000; stroke-width: 0.8"/>
      </defs>
      <g>
       <use xlink:href="#m201788dff7" x="83.093151" y="534.04" style="stroke: #000000; stroke-width: 0.8"/>
      </g>
     </g>
     <g id="text_1">
      <!-- 0 -->
      <g transform="translate(79.911901 548.638438) scale(0.1 -0.1)">
       <defs>
        <path id="DejaVuSans-30" d="M 2034 4250 
Q 1547 4250 1301 3770 
Q 1056 3291 1056 2328 
Q 1056 1369 1301 889 
Q 1547 409 2034 409 
Q 2525 409 2770 889 
Q 3016 1369 3016 2328 
Q 3016 3291 2770 3770 
Q 2525 4250 2034 4250 
z
M 2034 4750 
Q 2819 4750 3233 4129 
Q 3647 3509 3647 2328 
Q 3647 1150 3233 529 
Q 2819 -91 2034 -91 
Q 1250 -91 836 529 
Q 422 1150 422 2328 
Q 422 3509 836 4129 
Q 1250 4750 2034 4750 
z
" transform="scale(0.015625)"/>
       </defs>
       <use xlink:href="#DejaVuSans-30"/>
      </g>
     </g>
    </g>
    <g id="xtick_2">
     <g id="line2d_2">
      <g>
       <use xlink:href="#m201788dff7" x="229.788553" y="534.04" style="stroke: #000000; stroke-width: 0.8"/>
      </g>
     </g>
     <g id="text_2">
      <!-- 1 -->
      <g transform="translate(226.607303 548.638438) scale(0.1 -0.1)">
       <defs>
        <path id="DejaVuSans-31" d="M 794 531 
L 1825 531 
L 1825 4091 
L 703 3866 
L 703 4441 
L 1819 4666 
L 2450 4666 
L 2450 531 
L 3481 531 
L 3481 0 
L 794 0 
L 794 531 
z
" transform="scale(0.015625)"/>
       </defs>
       <use xlink:href="#DejaVuSans-31"/>
      </g>
     </g>
    </g>
    <g id="xtick_3">
     <g id="line2d_3">
      <g>
       <use xlink:href="#m201788dff7" x="376.483954" y="534.04" style="stroke: #000000; stroke-width: 0.8"/>
      </g>
     </g>
     <g id="text_3">
      <!-- 2 -->
      <g transform="translate(373.302704 548.638438) scale(0.1 -0.1)">
       <defs>
        <path id="DejaVuSans-32" d="M 1228 531 
L 3431 531 
L 3431 0 
L 469 0 
L 469 531 
Q 828 903 1448 1529 
Q 2069 2156 2228 2338 
Q 2531 2678 2651 2914 
Q 2772 3150 2772 3378 
Q 2772 3750 2511 3984 
Q 2250 4219 1831 4219 
Q 1534 4219 1204 4116 
Q 875 4013 500 3803 
L 500 4441 
Q 881 4594 1212 4672 
Q 1544 4750 1819 4750 
Q 2544 4750 2975 4387 
Q 3406 4025 3406 3419 
Q 3406 3131 3298 2873 
Q 3191 2616 2906 2266 
Q 2828 2175 2409 1742 
Q 1991 1309 1228 531 
z
" transform="scale(0.015625)"/>
       </defs>
       <use xlink:href="#DejaVuSans-32"/>
      </g>
     </g>
    </g>
    <g id="xtick_4">
     <g id="line2d_4">
      <g>
       <use xlink:href="#m201788dff7" x="523.179355" y="534.04" style="stroke: #000000; stroke-width: 0.8"/>
      </g>
     </g>
     <g id="text_4">
      <!-- 3 -->
      <g transform="translate(519.998105 548.638438) scale(0.1 -0.1)">
       <defs>
        <path id="DejaVuSans-33" d="M 2597 2516 
Q 3050 2419 3304 2112 
Q 3559 1806 3559 1356 
Q 3559 666 3084 287 
Q 2609 -91 1734 -91 
Q 1441 -91 1130 -33 
Q 819 25 488 141 
L 488 750 
Q 750 597 1062 519 
Q 1375 441 1716 441 
Q 2309 441 2620 675 
Q 2931 909 2931 1356 
Q 2931 1769 2642 2001 
Q 2353 2234 1838 2234 
L 1294 2234 
L 1294 2753 
L 1863 2753 
Q 2328 2753 2575 2939 
Q 2822 3125 2822 3475 
Q 2822 3834 2567 4026 
Q 2313 4219 1838 4219 
Q 1578 4219 1281 4162 
Q 984 4106 628 3988 
L 628 4550 
Q 988 4650 1302 4700 
Q 1616 4750 1894 4750 
Q 2613 4750 3031 4423 
Q 3450 4097 3450 3541 
Q 3450 3153 3228 2886 
Q 3006 2619 2597 2516 
z
" transform="scale(0.015625)"/>
       </defs>
       <use xlink:href="#DejaVuSans-33"/>
      </g>
     </g>
    </g>
    <g id="xtick_5">
     <g id="line2d_5">
      <g>
       <use xlink:href="#m201788dff7" x="669.874757" y="534.04" style="stroke: #000000; stroke-width: 0.8"/>
      </g>
     </g>
     <g id="text_5">
      <!-- 4 -->
      <g transform="translate(666.693507 548.638438) scale(0.1 -0.1)">
       <defs>
        <path id="DejaVuSans-34" d="M 2419 4116 
L 825 1625 
L 2419 1625 
L 2419 4116 
z
M 2253 4666 
L 3047 4666 
L 3047 1625 
L 3713 1625 
L 3713 1100 
L 3047 1100 
L 3047 0 
L 2419 0 
L 2419 1100 
L 313 1100 
L 313 1709 
L 2253 4666 
z
" transform="scale(0.015625)"/>
       </defs>
       <use xlink:href="#DejaVuSans-34"/>
      </g>
     </g>
    </g>
    <g id="xtick_6">
     <g id="line2d_6">
      <g>
       <use xlink:href="#m201788dff7" x="816.570158" y="534.04" style="stroke: #000000; stroke-width: 0.8"/>
      </g>
     </g>
     <g id="text_6">
      <!-- 5 -->
      <g transform="translate(813.388908 548.638438) scale(0.1 -0.1)">
       <defs>
        <path id="DejaVuSans-35" d="M 691 4666 
L 3169 4666 
L 3169 4134 
L 1269 4134 
L 1269 2991 
Q 1406 3038 1543 3061 
Q 1681 3084 1819 3084 
Q 2600 3084 3056 2656 
Q 3513 2228 3513 1497 
Q 3513 744 3044 326 
Q 2575 -91 1722 -91 
Q 1428 -91 1123 -41 
Q 819 9 494 109 
L 494 744 
Q 775 591 1075 516 
Q 1375 441 1709 441 
Q 2250 441 2565 725 
Q 2881 1009 2881 1497 
Q 2881 1984 2565 2268 
Q 2250 2553 1709 2553 
Q 1456 2553 1204 2497 
Q 953 2441 691 2322 
L 691 4666 
z
" transform="scale(0.015625)"/>
       </defs>
       <use xlink:href="#DejaVuSans-35"/>
      </g>
     </g>
    </g>
    <g id="text_7">
     <!-- Retention Time (min) -->
     <g transform="translate(397.61 562.316562) scale(0.1 -0.1)">
      <defs>
       <path id="DejaVuSans-52" d="M 2841 2188 
Q 3044 2119 3236 1894 
Q 3428 1669 3622 1275 
L 4263 0 
L 3584 0 
L 2988 1197 
Q 2756 1666 2539 1819 
Q 2322 1972 1947 1972 
L 1259 1972 
L 1259 0 
L 628 0 
L 628 4666 
L 2053 4666 
Q 2853 4666 3247 4331 
Q 3641 3997 3641 3322 
Q 3641 2881 3436 2590 
Q 3231 2300 2841 2188 
z
M 1259 4147 
L 1259 2491 
L 2053 2491 
Q 2509 2491 2742 2702 
Q 2975 2913 2975 3322 
Q 2975 3731 2742 3939 
Q 2509 4147 2053 4147 
L 1259 4147 
z
" transform="scale(0.015625)"/>
       <path id="DejaVuSans-65" d="M 3597 1894 
L 3597 1613 
L 953 1613 
Q 991 1019 1311 708 
Q 1631 397 2203 397 
Q 2534 397 2845 478 
Q 3156 559 3463 722 
L 3463 178 
Q 3153 47 2828 -22 
Q 2503 -91 2169 -91 
Q 1331 -91 842 396 
Q 353 884 353 1716 
Q 353 2575 817 3079 
Q 1281 3584 2069 3584 
Q 2775 3584 3186 3129 
Q 3597 2675 3597 1894 
z
M 3022 2063 
Q 3016 2534 2758 2815 
Q 2500 3097 2075 3097 
Q 1594 3097 1305 2825 
Q 1016 2553 972 2059 
L 3022 2063 
z
" transform="scale(0.015625)"/>
       <path id="DejaVuSans-74" d="M 1172 4494 
L 1172 3500 
L 2356 3500 
L 2356 3053 
L 1172 3053 
L 1172 1153 
Q 1172 725 1289 603 
Q 1406 481 1766 481 
L 2356 481 
L 2356 0 
L 1766 0 
Q 1100 0 847 248 
Q 594 497 594 1153 
L 594 3053 
L 172 3053 
L 172 3500 
L 594 3500 
L 594 4494 
L 1172 4494 
z
" transform="scale(0.015625)"/>
       <path id="DejaVuSans-6e" d="M 3513 2113 
L 3513 0 
L 2938 0 
L 2938 2094 
Q 2938 2591 2744 2837 
Q 2550 3084 2163 3084 
Q 1697 3084 1428 2787 
Q 1159 2491 1159 1978 
L 1159 0 
L 581 0 
L 581 3500 
L 1159 3500 
L 1159 2956 
Q 1366 3272 1645 3428 
Q 1925 3584 2291 3584 
Q 2894 3584 3203 3211 
Q 3513 2838 3513 2113 
z
" transform="scale(0.015625)"/>
       <path id="DejaVuSans-69" d="M 603 3500 
L 1178 3500 
L 1178 0 
L 603 0 
L 603 3500 
z
M 603 4863 
L 1178 4863 
L 1178 4134 
L 603 4134 
L 603 4863 
z
" transform="scale(0.015625)"/>
       <path id="DejaVuSans-6f" d="M 1959 3097 
Q 1497 3097 1228 2736 
Q 959 2375 959 1747 
Q 959 1119 1226 758 
Q 1494 397 1959 397 
Q 2419 397 2687 759 
Q 2956 1122 2956 1747 
Q 2956 2369 2687 2733 
Q 2419 3097 1959 3097 
z
M 1959 3584 
Q 2709 3584 3137 3096 
Q 3566 2609 3566 1747 
Q 3566 888 3137 398 
Q 2709 -91 1959 -91 
Q 1206 -91 779 398 
Q 353 888 353 1747 
Q 353 2609 779 3096 
Q 1206 3584 1959 3584 
z
" transform="scale(0.015625)"/>
       <path id="DejaVuSans-20" transform="scale(0.015625)"/>
       <path id="DejaVuSans-54" d="M -19 4666 
L 3928 4666 
L 3928 4134 
L 2272 4134 
L 2272 0 
L 1638 0 
L 1638 4134 
L -19 4134 
L -19 4666 
z
" transform="scale(0.015625)"/>
       <path id="DejaVuSans-6d" d="M 3328 2828 
Q 3544 3216 3844 3400 
Q 4144 3584 4550 3584 
Q 5097 3584 5394 3201 
Q 5691 2819 5691 2113 
L 5691 0 
L 5113 0 
L 5113 2094 
Q 5113 2597 4934 2840 
Q 4756 3084 4391 3084 
Q 3944 3084 3684 2787 
Q 3425 2491 3425 1978 
L 3425 0 
L 2847 0 
L 2847 2094 
Q 2847 2600 2669 2842 
Q 2491 3084 2119 3084 
Q 1678 3084 1418 2786 
Q 1159 2488 1159 1978 
L 1159 0 
L 581 0 
L 581 3500 
L 1159 3500 
L 1159 2956 
Q 1356 3278 1631 3431 
Q 1906 3584 2284 3584 
Q 2666 3584 2933 3390 
Q 3200 3197 3328 2828 
z
" transform="scale(0.015625)"/>
       <path id="DejaVuSans-28" d="M 1984 4856 
Q 1566 4138 1362 3434 
Q 1159 2731 1159 2009 
Q 1159 1288 1364 580 
Q 1569 -128 1984 -844 
L 1484 -844 
Q 1016 -109 783 600 
Q 550 1309 550 2009 
Q 550 2706 781 3412 
Q 1013 4119 1484 4856 
L 1984 4856 
z
" transform="scale(0.015625)"/>
       <path id="DejaVuSans-29" d="M 513 4856 
L 1013 4856 
Q 1481 4119 1714 3412 
Q 1947 2706 1947 2009 
Q 1947 1309 1714 600 
Q 1481 -109 1013 -844 
L 513 -844 
Q 928 -128 1133 580 
Q 1338 1288 1338 2009 
Q 1338 2731 1133 3434 
Q 928 4138 513 4856 
z
" transform="scale(0.015625)"/>
      </defs>
      <use xlink:href="#DejaVuSans-52"/>
      <use xlink:href="#DejaVuSans-65" transform="translate(64.982422 0)"/>
      <use xlink:href="#DejaVuSans-74" transform="translate(126.505859 0)"/>
      <use xlink:href="#DejaVuSans-65" transform="translate(165.714844 0)"/>
      <use xlink:href="#DejaVuSans-6e" transform="translate(227.238281 0)"/>
      <use xlink:href="#DejaVuSans-74" transform="translate(290.617188 0)"/>
      <use xlink:href="#DejaVuSans-69" transform="translate(329.826172 0)"/>
      <use xlink:href="#DejaVuSans-6f" transform="translate(357.609375 0)"/>
      <use xlink:href="#DejaVuSans-6e" transform="translate(418.791016 0)"/>
      <use xlink:href="#DejaVuSans-20" transform="translate(482.169922 0)"/>
      <use xlink:href="#DejaVuSans-54" transform="translate(513.957031 0)"/>
      <use xlink:href="#DejaVuSans-69" transform="translate(571.916016 0)"/>
      <use xlink:href="#DejaVuSans-6d" transform="translate(599.699219 0)"/>
      <use xlink:href="#DejaVuSans-65" transform="translate(697.111328 0)"/>
      <use xlink:href="#DejaVuSans-20" transform="translate(758.634766 0)"/>
      <use xlink:href="#DejaVuSans-28" transform="translate(790.421875 0)"/>
      <use xlink:href="#DejaVuSans-6d" transform="translate(829.435547 0)"/>
      <use xlink:href="#DejaVuSans-69" transform="translate(926.847656 0)"/>
      <use xlink:href="#DejaVuSans-6e" transform="translate(954.630859 0)"/>
      <use xlink:href="#DejaVuSans-29" transform="translate(1018.009766 0)"/>
     </g>
    </g>
   </g>
   <g id="matplotlib.axis_2">
    <g id="ytick_1">
     <g id="line2d_7">
      <defs>
       <path id="m6229ba6f56" d="M 0 0 
L -3.5 0 
" style="stroke: #000000; stroke-width: 0.8"/>
      </defs>
      <g>
       <use xlink:href="#m6229ba6f56" x="47.72" y="510.692662" style="stroke: #000000; stroke-width: 0.8"/>
      </g>
     </g>
     <g id="text_8">
      <!-- 0.0 -->
      <g style="fill: #0000ff" transform="translate(24.816875 514.491881) scale(0.1 -0.1)">
       <defs>
        <path id="DejaVuSans-2e" d="M 684 794 
L 1344 794 
L 1344 0 
L 684 0 
L 684 794 
z
" transform="scale(0.015625)"/>
       </defs>
       <use xlink:href="#DejaVuSans-30"/>
       <use xlink:href="#DejaVuSans-2e" transform="translate(63.623047 0)"/>
       <use xlink:href="#DejaVuSans-30" transform="translate(95.410156 0)"/>
      </g>
     </g>
    </g>
    <g id="ytick_2">
     <g id="line2d_8">
      <g>
       <use xlink:href="#m6229ba6f56" x="47.72" y="418.540675" style="stroke: #000000; stroke-width: 0.8"/>
      </g>
     </g>
     <g id="text_9">
      <!-- 0.5 -->
      <g style="fill: #0000ff" transform="translate(24.816875 422.339894) scale(0.1 -0.1)">
       <use xlink:href="#DejaVuSans-30"/>
       <use xlink:href="#DejaVuSans-2e" transform="translate(63.623047 0)"/>
       <use xlink:href="#DejaVuSans-35" transform="translate(95.410156 0)"/>
      </g>
     </g>
    </g>
    <g id="ytick_3">
     <g id="line2d_9">
      <g>
       <use xlink:href="#m6229ba6f56" x="47.72" y="326.388688" style="stroke: #000000; stroke-width: 0.8"/>
      </g>
     </g>
     <g id="text_10">
      <!-- 1.0 -->
      <g style="fill: #0000ff" transform="translate(24.816875 330.187907) scale(0.1 -0.1)">
       <use xlink:href="#DejaVuSans-31"/>
       <use xlink:href="#DejaVuSans-2e" transform="translate(63.623047 0)"/>
       <use xlink:href="#DejaVuSans-30" transform="translate(95.410156 0)"/>
      </g>
     </g>
    </g>
    <g id="ytick_4">
     <g id="line2d_10">
      <g>
       <use xlink:href="#m6229ba6f56" x="47.72" y="234.236701" style="stroke: #000000; stroke-width: 0.8"/>
      </g>
     </g>
     <g id="text_11">
      <!-- 1.5 -->
      <g style="fill: #0000ff" transform="translate(24.816875 238.03592) scale(0.1 -0.1)">
       <use xlink:href="#DejaVuSans-31"/>
       <use xlink:href="#DejaVuSans-2e" transform="translate(63.623047 0)"/>
       <use xlink:href="#DejaVuSans-35" transform="translate(95.410156 0)"/>
      </g>
     </g>
    </g>
    <g id="ytick_5">
     <g id="line2d_11">
      <g>
       <use xlink:href="#m6229ba6f56" x="47.72" y="142.084714" style="stroke: #000000; stroke-width: 0.8"/>
      </g>
     </g>
     <g id="text_12">
      <!-- 2.0 -->
      <g style="fill: #0000ff" transform="translate(24.816875 145.883933) scale(0.1 -0.1)">
       <use xlink:href="#DejaVuSans-32"/>
       <use xlink:href="#DejaVuSans-2e" transform="translate(63.623047 0)"/>
       <use xlink:href="#DejaVuSans-30" transform="translate(95.410156 0)"/>
      </g>
     </g>
    </g>
    <g id="ytick_6">
     <g id="line2d_12">
      <g>
       <use xlink:href="#m6229ba6f56" x="47.72" y="49.932727" style="stroke: #000000; stroke-width: 0.8"/>
      </g>
     </g>
     <g id="text_13">
      <!-- 2.5 -->
      <g style="fill: #0000ff" transform="translate(24.816875 53.731946) scale(0.1 -0.1)">
       <use xlink:href="#DejaVuSans-32"/>
       <use xlink:href="#DejaVuSans-2e" transform="translate(63.623047 0)"/>
       <use xlink:href="#DejaVuSans-35" transform="translate(95.410156 0)"/>
      </g>
     </g>
    </g>
    <g id="text_14">
     <!-- Normalized Intensity -->
     <g style="fill: #0000ff" transform="translate(18.737187 332.167031) rotate(-90) scale(0.1 -0.1)">
      <defs>
       <path id="DejaVuSans-4e" d="M 628 4666 
L 1478 4666 
L 3547 763 
L 3547 4666 
L 4159 4666 
L 4159 0 
L 3309 0 
L 1241 3903 
L 1241 0 
L 628 0 
L 628 4666 
z
" transform="scale(0.015625)"/>
       <path id="DejaVuSans-72" d="M 2631 2963 
Q 2534 3019 2420 3045 
Q 2306 3072 2169 3072 
Q 1681 3072 1420 2755 
Q 1159 2438 1159 1844 
L 1159 0 
L 581 0 
L 581 3500 
L 1159 3500 
L 1159 2956 
Q 1341 3275 1631 3429 
Q 1922 3584 2338 3584 
Q 2397 3584 2469 3576 
Q 2541 3569 2628 3553 
L 2631 2963 
z
" transform="scale(0.015625)"/>
       <path id="DejaVuSans-61" d="M 2194 1759 
Q 1497 1759 1228 1600 
Q 959 1441 959 1056 
Q 959 750 1161 570 
Q 1363 391 1709 391 
Q 2188 391 2477 730 
Q 2766 1069 2766 1631 
L 2766 1759 
L 2194 1759 
z
M 3341 1997 
L 3341 0 
L 2766 0 
L 2766 531 
Q 2569 213 2275 61 
Q 1981 -91 1556 -91 
Q 1019 -91 701 211 
Q 384 513 384 1019 
Q 384 1609 779 1909 
Q 1175 2209 1959 2209 
L 2766 2209 
L 2766 2266 
Q 2766 2663 2505 2880 
Q 2244 3097 1772 3097 
Q 1472 3097 1187 3025 
Q 903 2953 641 2809 
L 641 3341 
Q 956 3463 1253 3523 
Q 1550 3584 1831 3584 
Q 2591 3584 2966 3190 
Q 3341 2797 3341 1997 
z
" transform="scale(0.015625)"/>
       <path id="DejaVuSans-6c" d="M 603 4863 
L 1178 4863 
L 1178 0 
L 603 0 
L 603 4863 
z
" transform="scale(0.015625)"/>
       <path id="DejaVuSans-7a" d="M 353 3500 
L 3084 3500 
L 3084 2975 
L 922 459 
L 3084 459 
L 3084 0 
L 275 0 
L 275 525 
L 2438 3041 
L 353 3041 
L 353 3500 
z
" transform="scale(0.015625)"/>
       <path id="DejaVuSans-64" d="M 2906 2969 
L 2906 4863 
L 3481 4863 
L 3481 0 
L 2906 0 
L 2906 525 
Q 2725 213 2448 61 
Q 2172 -91 1784 -91 
Q 1150 -91 751 415 
Q 353 922 353 1747 
Q 353 2572 751 3078 
Q 1150 3584 1784 3584 
Q 2172 3584 2448 3432 
Q 2725 3281 2906 2969 
z
M 947 1747 
Q 947 1113 1208 752 
Q 1469 391 1925 391 
Q 2381 391 2643 752 
Q 2906 1113 2906 1747 
Q 2906 2381 2643 2742 
Q 2381 3103 1925 3103 
Q 1469 3103 1208 2742 
Q 947 2381 947 1747 
z
" transform="scale(0.015625)"/>
       <path id="DejaVuSans-49" d="M 628 4666 
L 1259 4666 
L 1259 0 
L 628 0 
L 628 4666 
z
" transform="scale(0.015625)"/>
       <path id="DejaVuSans-73" d="M 2834 3397 
L 2834 2853 
Q 2591 2978 2328 3040 
Q 2066 3103 1784 3103 
Q 1356 3103 1142 2972 
Q 928 2841 928 2578 
Q 928 2378 1081 2264 
Q 1234 2150 1697 2047 
L 1894 2003 
Q 2506 1872 2764 1633 
Q 3022 1394 3022 966 
Q 3022 478 2636 193 
Q 2250 -91 1575 -91 
Q 1294 -91 989 -36 
Q 684 19 347 128 
L 347 722 
Q 666 556 975 473 
Q 1284 391 1588 391 
Q 1994 391 2212 530 
Q 2431 669 2431 922 
Q 2431 1156 2273 1281 
Q 2116 1406 1581 1522 
L 1381 1569 
Q 847 1681 609 1914 
Q 372 2147 372 2553 
Q 372 3047 722 3315 
Q 1072 3584 1716 3584 
Q 2034 3584 2315 3537 
Q 2597 3491 2834 3397 
z
" transform="scale(0.015625)"/>
       <path id="DejaVuSans-79" d="M 2059 -325 
Q 1816 -950 1584 -1140 
Q 1353 -1331 966 -1331 
L 506 -1331 
L 506 -850 
L 844 -850 
Q 1081 -850 1212 -737 
Q 1344 -625 1503 -206 
L 1606 56 
L 191 3500 
L 800 3500 
L 1894 763 
L 2988 3500 
L 3597 3500 
L 2059 -325 
z
" transform="scale(0.015625)"/>
      </defs>
      <use xlink:href="#DejaVuSans-4e"/>
      <use xlink:href="#DejaVuSans-6f" transform="translate(74.804688 0)"/>
      <use xlink:href="#DejaVuSans-72" transform="translate(135.986328 0)"/>
      <use xlink:href="#DejaVuSans-6d" transform="translate(175.349609 0)"/>
      <use xlink:href="#DejaVuSans-61" transform="translate(272.761719 0)"/>
      <use xlink:href="#DejaVuSans-6c" transform="translate(334.041016 0)"/>
      <use xlink:href="#DejaVuSans-69" transform="translate(361.824219 0)"/>
      <use xlink:href="#DejaVuSans-7a" transform="translate(389.607422 0)"/>
      <use xlink:href="#DejaVuSans-65" transform="translate(442.097656 0)"/>
      <use xlink:href="#DejaVuSans-64" transform="translate(503.621094 0)"/>
      <use xlink:href="#DejaVuSans-20" transform="translate(567.097656 0)"/>
      <use xlink:href="#DejaVuSans-49" transform="translate(598.884766 0)"/>
      <use xlink:href="#DejaVuSans-6e" transform="translate(628.376953 0)"/>
      <use xlink:href="#DejaVuSans-74" transform="translate(691.755859 0)"/>
      <use xlink:href="#DejaVuSans-65" transform="translate(730.964844 0)"/>
      <use xlink:href="#DejaVuSans-6e" transform="translate(792.488281 0)"/>
      <use xlink:href="#DejaVuSans-73" transform="translate(855.867188 0)"/>
      <use xlink:href="#DejaVuSans-69" transform="translate(907.966797 0)"/>
      <use xlink:href="#DejaVuSans-74" transform="translate(935.75 0)"/>
      <use xlink:href="#DejaVuSans-79" transform="translate(974.958984 0)"/>
     </g>
    </g>
   </g>
   <g id="line2d_13">
    <path d="M 84.332727 510.692662 
L 89.222574 510.623424 
L 103.892114 509.947946 
L 111.226884 509.982312 
L 132.008733 510.474582 
L 138.121041 510.357302 
L 156.457966 509.790982 
L 162.570275 509.926721 
L 163.792736 509.755686 
L 165.015198 509.265165 
L 166.23766 508.363189 
L 169.905045 504.737973 
L 171.127506 503.957493 
L 172.349968 503.54645 
L 173.57243 503.461075 
L 174.794891 503.648879 
L 176.017353 504.095385 
L 177.239815 504.806267 
L 179.684738 506.807667 
L 180.9072 507.817187 
L 182.129662 508.577702 
L 183.352123 508.937534 
L 185.797047 508.944422 
L 189.464432 509.545869 
L 190.686893 509.274787 
L 193.131817 508.482345 
L 194.354278 508.396158 
L 195.57674 508.578701 
L 200.466587 510.016236 
L 202.91151 510.188653 
L 216.358589 509.814892 
L 245.697669 510.039479 
L 255.477362 509.929971 
L 266.479517 509.835713 
L 272.591826 509.652893 
L 277.481672 509.763097 
L 281.149058 509.530343 
L 284.816443 509.033848 
L 287.261366 508.733873 
L 289.706289 508.755883 
L 293.373674 508.809467 
L 298.263521 508.626363 
L 301.930906 508.318315 
L 304.375829 508.425637 
L 309.265676 508.926221 
L 311.710599 508.997153 
L 317.822908 508.922241 
L 322.712755 509.130659 
L 328.825063 509.074105 
L 330.047525 508.955233 
L 332.492448 508.361115 
L 334.937371 507.673098 
L 336.159833 507.499077 
L 338.604756 507.51075 
L 342.272141 507.718283 
L 343.494603 507.679203 
L 344.717065 507.521301 
L 347.161988 506.864664 
L 349.606912 506.192247 
L 353.274297 505.583274 
L 355.71922 505.398866 
L 361.831528 505.471556 
L 363.05399 504.981088 
L 364.276452 503.937503 
L 367.943837 499.19982 
L 369.166298 498.817274 
L 370.38876 499.267284 
L 372.833683 500.841739 
L 374.056145 501.386535 
L 376.501068 502.067666 
L 380.168453 502.933891 
L 382.613377 503.241982 
L 383.835839 503.11082 
L 385.0583 502.561143 
L 386.280762 501.451952 
L 387.503224 499.722543 
L 389.948147 495.626431 
L 391.170609 494.644343 
L 392.39307 494.904212 
L 394.837994 496.942768 
L 396.060455 497.080064 
L 397.282917 496.160652 
L 398.505379 494.642406 
L 399.72784 493.326351 
L 400.950302 492.833163 
L 402.172764 493.278014 
L 403.395225 494.332544 
L 405.840149 496.6162 
L 407.06261 497.461342 
L 408.285072 498.111725 
L 410.729995 499.038201 
L 413.174919 499.6835 
L 415.619842 500.153113 
L 418.064766 500.411277 
L 420.509689 500.318195 
L 421.732151 499.805264 
L 422.954612 497.389781 
L 424.177074 488.955759 
L 425.399536 468.149056 
L 426.621997 431.62319 
L 427.844459 385.765217 
L 429.066921 345.885466 
L 430.289382 326.388688 
L 431.511844 331.603374 
L 432.734306 355.186207 
L 435.179229 414.759964 
L 436.401691 435.61192 
L 437.624152 447.253189 
L 438.846614 451.5048 
L 441.291537 452.59401 
L 442.513999 455.232903 
L 443.736461 460.142741 
L 446.181384 472.03744 
L 447.403846 476.722505 
L 448.626307 480.094457 
L 449.848769 482.496426 
L 451.071231 484.371031 
L 452.293693 485.978754 
L 453.516154 487.360244 
L 454.738616 488.456937 
L 455.961078 489.241446 
L 457.183539 489.728952 
L 458.406001 489.863042 
L 459.628463 489.499088 
L 462.073386 487.690686 
L 463.295848 487.095582 
L 464.518309 487.036779 
L 466.963233 487.51483 
L 470.630618 487.816815 
L 475.520464 488.70342 
L 476.742926 489.121679 
L 479.187849 490.326253 
L 480.410311 490.397604 
L 481.632773 489.332943 
L 482.855234 487.082034 
L 484.077696 484.5268 
L 485.300158 482.873368 
L 486.52262 482.717554 
L 487.745081 483.77568 
L 488.967543 485.251319 
L 490.190005 486.385839 
L 491.412466 486.919779 
L 492.634928 487.14718 
L 493.85739 487.491121 
L 496.302313 488.552607 
L 497.524775 488.606347 
L 498.747236 487.939233 
L 499.969698 486.425271 
L 502.414621 481.757987 
L 503.637083 479.930885 
L 506.082006 477.96043 
L 507.304468 476.093712 
L 508.52693 473.653231 
L 509.749391 472.228114 
L 510.971853 473.106054 
L 512.194315 476.036807 
L 513.416776 479.457082 
L 514.639238 481.685153 
L 515.8617 482.06709 
L 518.306623 480.244144 
L 519.529085 479.952178 
L 520.751547 480.123592 
L 521.974008 479.519919 
L 523.19647 477.099953 
L 524.418932 473.632089 
L 525.641393 471.408331 
L 526.863855 472.179608 
L 529.308778 479.121524 
L 530.53124 475.754325 
L 531.753702 456.265989 
L 532.976163 417.24181 
L 534.198625 369.852509 
L 535.421087 334.913107 
L 536.643548 327.218456 
L 537.86601 346.144558 
L 540.310933 414.609396 
L 541.533395 442.49519 
L 542.755857 461.179471 
L 543.978318 472.163172 
L 545.20078 478.10361 
L 546.423242 481.429296 
L 551.313088 490.997119 
L 552.53555 492.863832 
L 553.758012 494.381369 
L 556.202935 496.832708 
L 557.425397 497.782146 
L 558.647859 498.363397 
L 559.87032 498.463115 
L 562.315244 498.139506 
L 563.537705 498.472252 
L 567.20509 500.800975 
L 568.427552 501.219368 
L 569.650014 501.390296 
L 570.872475 501.377853 
L 574.53986 501.03918 
L 576.984784 501.074826 
L 580.652169 500.820705 
L 583.097092 501.191834 
L 585.542015 501.90074 
L 589.209401 503.272761 
L 590.431862 503.564776 
L 591.654324 503.645586 
L 592.876786 503.334325 
L 594.099247 502.469431 
L 596.544171 500.086316 
L 597.766632 499.694755 
L 598.989094 500.204193 
L 602.656479 503.429439 
L 603.878941 503.885704 
L 607.546326 504.298187 
L 609.991249 505.116145 
L 612.436172 505.835272 
L 614.881096 506.106695 
L 618.548481 506.436823 
L 620.993404 506.625996 
L 623.438328 506.558969 
L 627.105713 506.351376 
L 629.550636 506.537528 
L 634.440483 507.035878 
L 636.885406 507.195148 
L 639.330329 507.091691 
L 642.997714 506.574248 
L 644.220176 506.661533 
L 649.110023 507.56532 
L 653.999869 507.760835 
L 656.444793 507.575538 
L 658.889716 507.279793 
L 660.112178 507.297509 
L 662.557101 507.706603 
L 665.002025 508.139302 
L 667.446948 508.298598 
L 676.00418 508.41689 
L 680.894026 508.736283 
L 688.228796 508.987719 
L 694.341105 508.967253 
L 698.00849 508.924796 
L 717.567877 509.500834 
L 731.014955 509.482671 
L 733.459879 509.463286 
L 743.239572 509.931353 
L 773.801114 510.372028 
L 816.587273 510.987273 
L 816.587273 510.987273 
" clip-path="url(#p4eb0206907)" style="fill: none; stroke: #0000ff; stroke-width: 1.5; stroke-linecap: square"/>
   </g>
   <g id="line2d_14">
    <path d="M 90.687328 234.161769 
L 92.825169 234.176212 
L 92.825169 234.179426 
L 96.374953 234.205977 
L 155.297606 234.234236 
L 292.160992 234.22574 
L 366.322364 234.195919 
L 367.67245 234.013507 
L 368.687582 233.776463 
L 369.024004 233.839405 
L 369.024004 233.707542 
L 369.358714 233.812639 
L 369.358714 233.642589 
L 369.358714 233.680972 
L 370.029845 233.71913 
L 370.029845 233.775653 
L 370.364311 233.796251 
L 370.364311 233.587606 
L 370.364311 233.678171 
L 371.368441 233.508621 
L 371.70364 233.692717 
L 371.70364 233.448492 
L 372.037616 233.582744 
L 372.037616 233.438581 
L 372.373304 233.570078 
L 372.373304 233.377318 
L 372.709481 233.635182 
L 372.709481 233.567678 
L 373.392837 233.858297 
L 373.392837 233.737087 
L 373.729014 233.846793 
L 373.729014 233.706687 
L 374.067147 233.803679 
L 374.067147 233.63664 
L 374.743902 233.815676 
L 374.743902 233.743232 
L 375.083746 233.918212 
L 375.083746 233.896922 
L 375.760746 233.86511 
L 375.760746 233.886365 
L 377.119634 233.974585 
L 377.119634 233.929878 
L 377.802746 234.018612 
L 377.802746 233.97068 
L 380.535192 234.059564 
L 380.535192 234.005405 
L 381.214636 234.109709 
L 381.552525 234.026423 
L 382.239304 234.050767 
L 382.239304 234.01356 
L 382.582082 234.091975 
L 382.582082 234.035514 
L 383.61115 234.050813 
L 383.61115 234.06725 
L 387.692461 234.101482 
L 387.692461 234.058178 
L 389.381903 234.117265 
L 389.381903 234.067856 
L 391.717049 234.115003 
L 391.717049 234.044278 
L 393.739734 234.082958 
L 393.739734 234.09937 
L 395.773177 234.139999 
L 395.773177 234.10136 
L 429.136601 234.178052 
L 429.136601 234.171194 
L 431.766116 234.177054 
L 445.89704 234.168433 
L 447.873271 234.189402 
L 452.847468 234.153724 
L 455.849345 234.161155 
L 470.4272 234.137283 
L 475.20947 234.054132 
L 475.20947 234.054689 
L 477.934582 234.050296 
L 477.934582 234.04415 
L 478.960716 234.120198 
L 479.988073 234.141493 
L 479.988073 234.118349 
L 487.440444 234.052316 
L 487.440444 234.082508 
L 487.440444 234.11548 
L 489.4289 234.073936 
L 489.4289 234.083786 
L 490.099298 234.094648 
L 490.099298 234.147747 
L 491.101961 234.135276 
L 491.101961 234.110085 
L 491.101961 234.1117 
L 497.475876 234.142865 
L 498.824496 234.172369 
L 498.824496 234.173249 
L 502.565962 234.138 
L 507.238455 233.818925 
L 507.570965 233.741389 
L 508.905648 233.921329 
L 508.905648 233.897181 
L 509.909289 233.619953 
L 510.244977 233.69164 
L 510.244977 233.648244 
L 510.912441 233.522372 
L 511.906058 233.716011 
L 511.906058 233.601427 
L 512.236856 233.711403 
L 512.236856 233.526596 
L 512.566921 233.652951 
L 512.566921 233.514051 
L 512.896497 233.612861 
L 512.896497 233.490068 
L 512.896497 233.629914 
L 513.887669 233.773089 
L 513.887669 233.624026 
L 514.551221 233.760078 
L 514.551221 233.651704 
L 514.889598 233.799128 
L 514.889598 233.683987 
L 515.552906 233.764928 
L 515.552906 233.667719 
L 516.890768 233.725359 
L 516.890768 233.686062 
L 517.560433 233.540287 
L 517.560433 233.425478 
L 527.541099 234.057452 
L 527.541099 234.017753 
L 529.848862 234.049735 
L 529.848862 234.037814 
L 532.487912 233.914885 
L 532.819688 233.8503 
L 532.819688 233.64324 
L 533.150975 233.492912 
L 533.150975 232.963679 
L 533.482751 232.747842 
L 533.482751 231.262138 
L 533.814528 230.906956 
L 533.814528 227.799107 
L 534.145815 226.747255 
L 534.145815 219.906322 
L 534.481503 218.714607 
L 534.481503 207.140584 
L 534.817191 207.149717 
L 534.817191 189.118783 
L 535.145544 190.607351 
L 535.145544 169.190889 
L 535.473164 173.773521 
L 535.473164 142.75873 
L 535.800294 154.827665 
L 535.800294 122.656259 
L 536.127425 137.320994 
L 536.127425 102.630378 
L 536.454311 125.495185 
L 536.454311 83.585728 
L 536.780953 109.771696 
L 536.780953 69.404951 
L 537.10735 98.762149 
L 537.10735 56.31551 
L 537.433992 92.581371 
L 537.433992 52.293947 
L 537.760634 92.400801 
L 537.760634 49.932727 
L 538.087031 92.185856 
L 538.087031 57.296907 
L 538.413673 97.06755 
L 538.413673 52.859967 
L 538.74007 97.655775 
L 538.74007 56.607843 
L 539.066712 94.764526 
L 539.066712 59.887704 
L 539.393109 104.434554 
L 539.393109 67.361044 
L 539.72513 112.531622 
L 539.72513 78.449052 
L 540.051771 117.490399 
L 540.051771 87.649776 
L 540.378658 127.486787 
L 540.378658 100.124636 
L 540.705544 138.271198 
L 540.705544 110.794701 
L 541.032186 143.546494 
L 541.032186 119.346934 
L 541.359072 147.91012 
L 541.359072 123.783287 
L 541.685958 153.58762 
L 541.685958 133.382879 
L 542.013089 160.27923 
L 542.013089 143.963985 
L 542.34022 169.88015 
L 542.34022 148.766026 
L 542.667595 170.172861 
L 542.667595 149.915562 
L 542.994481 168.53591 
L 542.994481 149.769599 
L 543.323812 171.83609 
L 543.323812 154.75282 
L 543.654366 176.029348 
L 543.654366 157.72879 
L 543.981986 176.582292 
L 543.981986 161.880207 
L 544.309361 180.433616 
L 544.309361 163.671401 
L 544.642604 181.055177 
L 544.642604 167.397442 
L 544.969979 182.316034 
L 544.969979 167.959485 
L 545.297599 184.246535 
L 545.297599 170.303575 
L 545.624974 184.393326 
L 545.624974 173.185238 
L 545.95235 187.552039 
L 545.95235 174.920537 
L 546.282414 190.424976 
L 546.282414 178.747712 
L 546.610278 190.975434 
L 546.610278 179.437486 
L 546.938143 193.08569 
L 546.938143 182.208895 
L 547.266251 194.131127 
L 547.266251 183.405897 
L 547.59436 196.59465 
L 547.59436 187.216715 
L 547.922713 199.521411 
L 547.922713 190.208515 
L 548.251311 201.563633 
L 548.251311 191.343798 
L 548.57942 201.839275 
L 548.57942 192.112223 
L 548.908017 202.240824 
L 548.908017 194.11782 
L 549.236615 204.245341 
L 549.236615 196.135621 
L 549.570592 205.501419 
L 549.570592 197.703588 
L 549.899434 207.02044 
L 549.899434 199.325409 
L 550.228276 208.004569 
L 550.228276 201.07443 
L 550.557118 209.376557 
L 550.557118 201.279895 
L 550.886205 209.511391 
L 550.886205 202.713586 
L 551.214803 209.863799 
L 551.214803 202.957535 
L 551.5434 211.458487 
L 551.5434 204.810201 
L 551.872976 212.294969 
L 551.872976 206.647107 
L 552.20353 214.093121 
L 552.20353 208.215305 
L 552.533105 215.026886 
L 552.533105 209.054639 
L 552.866348 215.349297 
L 552.866348 210.610353 
L 553.195679 216.802014 
L 553.195679 211.721262 
L 553.526478 217.695759 
L 553.526478 213.217888 
L 553.856298 218.207692 
L 553.856298 213.850265 
L 554.186118 219.281633 
L 554.186118 215.296244 
L 554.521561 220.265017 
L 554.521561 216.817419 
L 554.85236 221.08067 
L 554.85236 217.159728 
L 555.183402 221.316599 
L 555.183402 217.254923 
L 555.513711 221.022254 
L 555.513711 217.678015 
L 555.844509 221.960226 
L 555.844509 218.457149 
L 556.175797 222.526135 
L 556.175797 218.951614 
L 556.507573 222.425608 
L 556.507573 219.0078 
L 556.840082 222.92883 
L 556.840082 219.972376 
L 557.17088 223.689493 
L 557.17088 220.9175 
L 557.502656 224.406453 
L 557.502656 221.249054 
L 557.834188 224.412835 
L 557.834188 221.746853 
L 558.165964 224.675411 
L 558.165964 222.155908 
L 558.498229 225.267532 
L 558.498229 222.644727 
L 558.83245 225.420222 
L 558.83245 223.175247 
L 559.165204 225.95774 
L 559.165204 222.949531 
L 559.503582 225.660833 
L 559.503582 223.166551 
L 559.835358 225.573813 
L 559.835358 223.384368 
L 560.169334 226.524561 
L 560.169334 224.541658 
L 560.5038 227.163296 
L 560.5038 224.977299 
L 560.837287 227.159615 
L 560.837287 225.196561 
L 561.175665 227.26495 
L 561.175665 225.356817 
L 561.508419 227.736543 
L 561.508419 225.742757 
L 561.843129 227.825961 
L 561.843129 225.516884 
L 562.176616 227.424428 
L 562.176616 225.410096 
L 562.511571 227.477727 
L 562.511571 225.422025 
L 562.848237 227.89373 
L 562.848237 226.048798 
L 563.182213 228.017515 
L 563.182213 225.795142 
L 563.517168 227.85607 
L 563.517168 225.214286 
L 563.8509 227.203646 
L 563.8509 225.074169 
L 564.184143 227.416074 
L 564.184143 225.100391 
L 564.522765 227.825216 
L 564.522765 225.183011 
L 564.856741 227.330058 
L 564.856741 225.155538 
L 565.190718 227.477779 
L 565.190718 225.082333 
L 565.523717 227.768309 
L 565.523717 225.519577 
L 565.855737 227.686952 
L 565.855737 225.634939 
L 566.189714 227.890436 
L 566.189714 225.409878 
L 566.523201 227.739961 
L 566.523201 225.914084 
L 566.856689 228.038353 
L 566.856689 226.413165 
L 567.19091 228.950478 
L 567.19091 227.043682 
L 567.526842 229.057992 
L 567.526842 227.611448 
L 567.860574 229.350241 
L 567.860574 227.820049 
L 568.195529 229.742791 
L 568.195529 228.159285 
L 568.532684 229.668617 
L 568.532684 228.363034 
L 568.868861 229.855581 
L 568.868861 228.227859 
L 569.205527 229.706999 
L 569.205527 228.380429 
L 569.54806 229.705419 
L 569.54806 228.488415 
L 569.88766 230.190714 
L 569.88766 229.036225 
L 570.22946 230.376061 
L 570.22946 229.278563 
L 570.569305 230.618443 
L 570.569305 229.357825 
L 570.910372 230.65856 
L 570.910372 229.516928 
L 571.25046 230.681955 
L 571.25046 229.73383 
L 571.589571 231.052649 
L 571.589571 229.966841 
L 571.930638 231.065479 
L 571.930638 229.963587 
L 572.271216 230.992632 
L 572.271216 229.918969 
L 572.610571 230.948314 
L 572.610571 229.970861 
L 572.952127 231.184264 
L 572.952127 230.347255 
L 573.290016 231.419614 
L 573.290016 230.504382 
L 573.630104 231.560409 
L 573.630104 230.611843 
L 573.96946 231.374662 
L 573.96946 230.572011 
L 574.311016 231.558797 
L 574.311016 230.792135 
L 574.657461 231.66686 
L 574.657461 230.921368 
L 574.998772 231.729425 
L 574.998772 230.854722 
L 575.339839 231.662722 
L 575.339839 231.044649 
L 575.681151 231.828475 
L 575.681151 230.793004 
L 576.022462 231.626924 
L 576.022462 230.851558 
L 576.363284 231.494261 
L 576.363284 230.842236 
L 576.704351 231.887923 
L 576.704351 231.25247 
L 577.045907 232.067709 
L 577.045907 231.479347 
L 577.388196 232.148722 
L 577.388196 231.466722 
L 577.729507 232.15424 
L 577.729507 231.420462 
L 578.071063 232.077884 
L 578.071063 231.467254 
L 578.412619 232.157309 
L 578.412619 231.501919 
L 578.758331 232.21965 
L 578.758331 231.50095 
L 579.100131 232.183754 
L 579.100131 231.65978 
L 579.441443 232.320454 
L 579.441443 231.788231 
L 579.788377 232.502883 
L 579.788377 231.978567 
L 580.129933 232.55194 
L 580.129933 231.92035 
L 580.471489 232.485686 
L 580.471489 232.000943 
L 580.813045 232.484083 
L 580.813045 231.985631 
L 581.15509 232.638911 
L 581.15509 232.179306 
L 581.496645 232.630663 
L 581.496645 232.096556 
L 581.838446 232.566561 
L 581.838446 232.016871 
L 582.180001 232.481346 
L 582.180001 232.043557 
L 582.521557 232.60515 
L 582.521557 232.154613 
L 582.864091 232.712798 
L 582.864091 232.213036 
L 583.205402 232.691484 
L 583.205402 232.238528 
L 583.547203 232.671434 
L 583.547203 232.145872 
L 583.889003 232.668189 
L 583.889003 232.147759 
L 584.235937 232.61607 
L 584.235937 232.281318 
L 584.577738 232.821537 
L 584.577738 232.382328 
L 584.924672 232.933459 
L 584.924672 232.569615 
L 585.266473 232.975438 
L 585.266473 232.527412 
L 585.608273 232.989546 
L 585.608273 232.618751 
L 585.949584 233.025941 
L 585.949584 232.597585 
L 586.29114 233.008207 
L 586.29114 232.605573 
L 586.632696 232.947512 
L 586.632696 232.598175 
L 586.974252 233.050079 
L 586.974252 232.731798 
L 587.315807 233.121306 
L 587.315807 232.804966 
L 587.657363 233.094888 
L 587.657363 232.752676 
L 587.998919 233.118996 
L 587.998919 232.781888 
L 588.340719 233.11899 
L 588.340719 232.809649 
L 588.682764 233.144012 
L 588.682764 232.721993 
L 589.024564 233.078946 
L 589.024564 232.813541 
L 589.366365 233.185989 
L 589.366365 232.871887 
L 589.708654 233.295232 
L 589.708654 233.008795 
L 590.056077 233.307985 
L 590.056077 232.940881 
L 590.399345 233.265433 
L 590.399345 232.957945 
L 590.741145 233.213383 
L 590.741145 232.935224 
L 591.083434 233.304609 
L 591.083434 232.941172 
L 591.425479 233.260018 
L 591.425479 232.997339 
L 591.767768 233.245709 
L 591.767768 232.90743 
L 592.110058 233.270943 
L 592.110058 233.017547 
L 592.452347 233.296068 
L 592.452347 233.013223 
L 592.798548 233.328276 
L 592.798548 233.069633 
L 593.140348 233.315525 
L 593.140348 232.982415 
L 593.482149 233.296446 
L 593.482149 233.083143 
L 593.823949 233.338303 
L 593.823949 233.101159 
L 594.165749 233.446599 
L 594.165749 233.150867 
L 594.507549 233.379093 
L 594.507549 233.062778 
L 594.84935 233.327221 
L 594.84935 233.092211 
L 595.196284 233.339851 
L 595.196284 233.075026 
L 595.538329 233.412861 
L 595.538329 233.173034 
L 595.880129 233.389929 
L 595.880129 233.227717 
L 596.222174 233.513596 
L 596.222174 233.247631 
L 596.564219 233.470191 
L 596.564219 233.201435 
L 596.921667 233.420257 
L 596.921667 233.159092 
L 597.263467 233.394782 
L 597.263467 233.160659 
L 597.604778 233.44607 
L 597.604778 233.189505 
L 597.946334 233.423065 
L 597.946334 233.220734 
L 598.28789 233.449272 
L 598.28789 233.242938 
L 598.629446 233.486451 
L 598.629446 233.252037 
L 598.971002 233.47864 
L 598.971002 233.261411 
L 599.312068 233.476328 
L 599.312068 233.284118 
L 599.65338 233.527808 
L 599.65338 233.316877 
L 599.994935 233.551162 
L 599.994935 233.386583 
L 600.343337 233.557879 
L 600.343337 233.359297 
L 600.684648 233.555117 
L 600.684648 233.356449 
L 601.026204 233.547996 
L 601.026204 233.373699 
L 601.368004 233.564393 
L 601.368004 233.396817 
L 601.714206 233.600911 
L 601.714206 233.361802 
L 602.05625 233.571205 
L 602.05625 233.404318 
L 602.397806 233.565801 
L 602.397806 233.350071 
L 602.739606 233.577133 
L 602.739606 233.35946 
L 603.081896 233.541912 
L 603.081896 233.409984 
L 603.423696 233.605686 
L 603.423696 233.42689 
L 603.765741 233.638273 
L 603.765741 233.457674 
L 604.109252 233.589422 
L 604.109252 233.376708 
L 604.451786 233.558323 
L 604.451786 233.408522 
L 605.136365 233.685141 
L 605.136365 233.491257 
L 605.484277 233.658054 
L 605.484277 233.478391 
L 605.826811 233.643647 
L 605.826811 233.485928 
L 606.169345 233.675781 
L 606.169345 233.487488 
L 606.511879 233.688023 
L 606.511879 233.513898 
L 607.196702 233.771027 
L 607.196702 233.626131 
L 607.538991 233.796503 
L 607.538991 233.622707 
L 608.566103 233.546751 
L 608.908392 233.714334 
L 608.908392 233.583786 
L 609.250926 233.749803 
L 609.250926 233.580802 
L 609.593216 233.766496 
L 609.593216 233.60502 
L 609.935749 233.718717 
L 609.935749 233.520585 
L 610.277794 233.676188 
L 610.277794 233.515198 
L 610.625707 233.670633 
L 610.625707 233.539503 
L 610.968485 233.71885 
L 610.968485 233.558887 
L 611.311263 233.717118 
L 611.311263 233.585052 
L 611.99682 233.800587 
L 611.99682 233.670806 
L 612.339353 233.801613 
L 612.339353 233.680381 
L 612.682621 233.807729 
L 612.682621 233.668551 
L 613.025643 233.796576 
L 613.025643 233.654322 
L 613.368422 233.76094 
L 613.368422 233.617472 
L 614.060824 233.588348 
L 614.060824 233.619859 
L 614.403847 233.680136 
L 614.747358 233.858696 
L 614.747358 233.727155 
L 615.090626 233.838754 
L 615.090626 233.691229 
L 615.433893 233.809721 
L 615.433893 233.685432 
L 615.782783 233.810108 
L 615.782783 233.702144 
L 616.812341 233.654339 
L 617.155608 233.814758 
L 617.155608 233.667443 
L 617.842876 233.825475 
L 617.842876 233.703955 
L 618.186143 233.836069 
L 618.186143 233.716425 
L 618.873167 233.82308 
L 618.873167 233.727182 
L 619.216678 233.864018 
L 619.216678 233.755778 
L 619.903702 233.869537 
L 619.903702 233.769968 
L 620.59097 233.891799 
L 620.59097 233.772425 
L 621.283617 233.85012 
L 621.283617 233.718765 
L 621.971129 233.829635 
L 621.971129 233.741632 
L 622.657663 233.888253 
L 622.657663 233.790168 
L 623.350066 233.909138 
L 623.350066 233.838126 
L 623.693333 233.941572 
L 623.693333 233.843736 
L 624.380356 233.902326 
L 624.380356 233.814621 
L 625.06738 233.873095 
L 625.06738 233.774528 
L 625.754403 233.899688 
L 625.754403 233.818907 
L 626.102805 233.90984 
L 626.102805 233.805693 
L 626.789584 233.87922 
L 626.789584 233.777439 
L 627.132851 233.877005 
L 627.132851 233.778927 
L 627.819386 233.901974 
L 627.819386 233.776639 
L 628.162653 233.885871 
L 628.162653 233.82114 
L 628.851143 233.893501 
L 628.851143 233.778534 
L 629.194411 233.856818 
L 629.194411 233.740324 
L 629.886568 233.870811 
L 629.886568 233.795842 
L 630.229591 233.9367 
L 630.229591 233.851379 
L 630.916615 233.88628 
L 630.916615 233.794981 
L 631.610728 233.899416 
L 631.610728 233.826336 
L 632.298241 233.949359 
L 632.298241 233.852844 
L 632.641997 233.951923 
L 632.641997 233.868413 
L 633.672777 233.916628 
L 633.672777 233.86744 
L 634.70429 233.94232 
L 634.70429 233.882175 
L 635.391558 233.936072 
L 635.391558 233.886187 
L 636.07907 233.938589 
L 636.07907 233.855987 
L 637.459718 233.957944 
L 637.459718 233.91415 
L 638.83401 233.990773 
L 638.83401 233.89553 
L 639.521522 233.959973 
L 639.521522 233.88561 
L 640.207568 233.960077 
L 640.207568 233.912514 
L 640.894347 233.994228 
L 640.894347 233.922969 
L 641.591639 233.946972 
L 641.591639 233.883744 
L 642.278173 233.971921 
L 642.278173 233.89827 
L 642.964708 233.951695 
L 642.964708 233.863712 
L 643.651487 233.970332 
L 643.651487 233.91308 
L 644.338266 233.974894 
L 644.338266 233.92551 
L 645.023578 234.027711 
L 645.023578 233.967793 
L 645.710112 234.00408 
L 645.710112 233.93088 
L 646.745782 233.981888 
L 646.745782 233.940184 
L 647.432561 234.01174 
L 647.432561 233.9366 
L 648.120073 234.016124 
L 648.120073 233.944319 
L 648.46383 234.018783 
L 648.46383 233.937672 
L 649.838854 233.969353 
L 649.838854 233.902041 
L 650.526122 233.964083 
L 650.526122 233.914367 
L 651.21339 233.969131 
L 651.21339 233.917714 
L 651.906771 234.020824 
L 651.906771 233.97387 
L 652.595506 234.011273 
L 652.595506 233.940103 
L 653.288152 234.004986 
L 653.288152 233.934004 
L 654.319421 234.049395 
L 654.319421 233.998477 
L 655.0084 233.966616 
L 671.183769 234.030625 
L 671.183769 233.978359 
L 672.21626 234.05153 
L 672.21626 233.991683 
L 673.253641 234.086177 
L 673.253641 234.016364 
L 673.941153 234.020983 
L 673.941153 233.968753 
L 674.628666 234.060717 
L 674.628666 234.015052 
L 675.317156 234.050029 
L 675.317156 233.991337 
L 676.005891 233.98736 
L 696.369169 234.020502 
L 696.369169 233.994866 
L 706.38113 233.996949 
L 706.38113 233.954047 
L 707.759578 234.064195 
L 707.759578 234.014126 
L 708.798915 234.082681 
L 708.798915 234.016279 
L 710.525764 234.086646 
L 710.525764 234.034625 
L 711.902745 234.072336 
L 711.902745 234.030088 
L 712.592458 234.033745 
L 729.856306 234.09645 
L 729.856306 234.047466 
L 730.89002 234.11503 
L 730.89002 234.070919 
L 731.922511 234.095668 
L 731.922511 234.061387 
L 732.61149 234.053395 
L 758.825469 234.102776 
L 759.857961 234.123061 
L 759.857961 234.083611 
L 760.902187 234.140692 
L 760.902187 234.091836 
L 762.277946 234.094 
L 762.277946 234.093746 
L 765.725043 234.096013 
L 766.413045 234.101467 
L 767.444313 234.007702 
L 770.893856 234.12888 
L 770.893856 234.103548 
L 771.925858 234.076478 
L 783.958793 234.102763 
L 786.021085 234.161368 
L 786.021085 234.135531 
L 791.493557 234.136648 
L 791.493557 234.133583 
L 795.169255 234.121384 
L 795.169255 234.130966 
L 795.169255 234.161178 
L 796.501249 234.04882 
L 797.494866 234.138758 
L 797.494866 234.106194 
L 806.849143 234.098328 
L 806.849143 234.118555 
L 808.187983 234.162796 
L 808.187983 234.142931 
L 809.199203 234.108836 
L 810.549534 234.124794 
L 813.608623 234.137195 
L 816.405859 234.232424 
L 816.405859 234.232424 
" clip-path="url(#p4eb0206907)" style="fill: none; stroke: #008000; stroke-width: 1.5; stroke-linecap: square"/>
   </g>
   <g id="patch_3">
    <path d="M 47.72 534.04 
L 47.72 26.88 
" style="fill: none; stroke: #000000; stroke-width: 0.8; stroke-linejoin: miter; stroke-linecap: square"/>
   </g>
   <g id="patch_4">
    <path d="M 853.2 534.04 
L 853.2 26.88 
" style="fill: none; stroke: #000000; stroke-width: 0.8; stroke-linejoin: miter; stroke-linecap: square"/>
   </g>
   <g id="patch_5">
    <path d="M 47.72 534.04 
L 853.2 534.04 
" style="fill: none; stroke: #000000; stroke-width: 0.8; stroke-linejoin: miter; stroke-linecap: square"/>
   </g>
   <g id="patch_6">
    <path d="M 47.72 26.88 
L 853.2 26.88 
" style="fill: none; stroke: #000000; stroke-width: 0.8; stroke-linejoin: miter; stroke-linecap: square"/>
   </g>
   <g id="patch_7">
    <path d="M 605.976777 333.01036 
Q 579.825483 338.84002 553.674189 344.669681 
L 554.544509 348.573851 
Q 548.037177 346.950833 541.529844 345.327814 
Q 546.731697 341.094578 551.93355 336.861341 
L 552.803869 340.765511 
Q 578.955163 334.93585 605.106457 329.10619 
L 605.976777 333.01036 
z
" style="stroke: #000000; stroke-linecap: round"/>
   </g>
   <g id="text_15">
    <!-- Peak: RT=3.10, Area=1.16e+04 -->
    <g style="fill: #ff0000" transform="translate(611.213711 316.516348) scale(0.1 -0.1)">
     <defs>
      <path id="DejaVuSans-50" d="M 1259 4147 
L 1259 2394 
L 2053 2394 
Q 2494 2394 2734 2622 
Q 2975 2850 2975 3272 
Q 2975 3691 2734 3919 
Q 2494 4147 2053 4147 
L 1259 4147 
z
M 628 4666 
L 2053 4666 
Q 2838 4666 3239 4311 
Q 3641 3956 3641 3272 
Q 3641 2581 3239 2228 
Q 2838 1875 2053 1875 
L 1259 1875 
L 1259 0 
L 628 0 
L 628 4666 
z
" transform="scale(0.015625)"/>
      <path id="DejaVuSans-6b" d="M 581 4863 
L 1159 4863 
L 1159 1991 
L 2875 3500 
L 3609 3500 
L 1753 1863 
L 3688 0 
L 2938 0 
L 1159 1709 
L 1159 0 
L 581 0 
L 581 4863 
z
" transform="scale(0.015625)"/>
      <path id="DejaVuSans-3a" d="M 750 794 
L 1409 794 
L 1409 0 
L 750 0 
L 750 794 
z
M 750 3309 
L 1409 3309 
L 1409 2516 
L 750 2516 
L 750 3309 
z
" transform="scale(0.015625)"/>
      <path id="DejaVuSans-3d" d="M 678 2906 
L 4684 2906 
L 4684 2381 
L 678 2381 
L 678 2906 
z
M 678 1631 
L 4684 1631 
L 4684 1100 
L 678 1100 
L 678 1631 
z
" transform="scale(0.015625)"/>
      <path id="DejaVuSans-2c" d="M 750 794 
L 1409 794 
L 1409 256 
L 897 -744 
L 494 -744 
L 750 256 
L 750 794 
z
" transform="scale(0.015625)"/>
      <path id="DejaVuSans-41" d="M 2188 4044 
L 1331 1722 
L 3047 1722 
L 2188 4044 
z
M 1831 4666 
L 2547 4666 
L 4325 0 
L 3669 0 
L 3244 1197 
L 1141 1197 
L 716 0 
L 50 0 
L 1831 4666 
z
" transform="scale(0.015625)"/>
      <path id="DejaVuSans-36" d="M 2113 2584 
Q 1688 2584 1439 2293 
Q 1191 2003 1191 1497 
Q 1191 994 1439 701 
Q 1688 409 2113 409 
Q 2538 409 2786 701 
Q 3034 994 3034 1497 
Q 3034 2003 2786 2293 
Q 2538 2584 2113 2584 
z
M 3366 4563 
L 3366 3988 
Q 3128 4100 2886 4159 
Q 2644 4219 2406 4219 
Q 1781 4219 1451 3797 
Q 1122 3375 1075 2522 
Q 1259 2794 1537 2939 
Q 1816 3084 2150 3084 
Q 2853 3084 3261 2657 
Q 3669 2231 3669 1497 
Q 3669 778 3244 343 
Q 2819 -91 2113 -91 
Q 1303 -91 875 529 
Q 447 1150 447 2328 
Q 447 3434 972 4092 
Q 1497 4750 2381 4750 
Q 2619 4750 2861 4703 
Q 3103 4656 3366 4563 
z
" transform="scale(0.015625)"/>
      <path id="DejaVuSans-2b" d="M 2944 4013 
L 2944 2272 
L 4684 2272 
L 4684 1741 
L 2944 1741 
L 2944 0 
L 2419 0 
L 2419 1741 
L 678 1741 
L 678 2272 
L 2419 2272 
L 2419 4013 
L 2944 4013 
z
" transform="scale(0.015625)"/>
     </defs>
     <use xlink:href="#DejaVuSans-50"/>
     <use xlink:href="#DejaVuSans-65" transform="translate(56.677734 0)"/>
     <use xlink:href="#DejaVuSans-61" transform="translate(118.201172 0)"/>
     <use xlink:href="#DejaVuSans-6b" transform="translate(179.480469 0)"/>
     <use xlink:href="#DejaVuSans-3a" transform="translate(237.390625 0)"/>
     <use xlink:href="#DejaVuSans-20" transform="translate(271.082031 0)"/>
     <use xlink:href="#DejaVuSans-52" transform="translate(302.869141 0)"/>
     <use xlink:href="#DejaVuSans-54" transform="translate(365.101562 0)"/>
     <use xlink:href="#DejaVuSans-3d" transform="translate(426.185547 0)"/>
     <use xlink:href="#DejaVuSans-33" transform="translate(509.974609 0)"/>
     <use xlink:href="#DejaVuSans-2e" transform="translate(573.597656 0)"/>
     <use xlink:href="#DejaVuSans-31" transform="translate(605.384766 0)"/>
     <use xlink:href="#DejaVuSans-30" transform="translate(669.007812 0)"/>
     <use xlink:href="#DejaVuSans-2c" transform="translate(732.630859 0)"/>
     <use xlink:href="#DejaVuSans-20" transform="translate(764.417969 0)"/>
     <use xlink:href="#DejaVuSans-41" transform="translate(796.205078 0)"/>
     <use xlink:href="#DejaVuSans-72" transform="translate(864.613281 0)"/>
     <use xlink:href="#DejaVuSans-65" transform="translate(903.476562 0)"/>
     <use xlink:href="#DejaVuSans-61" transform="translate(965 0)"/>
     <use xlink:href="#DejaVuSans-3d" transform="translate(1026.279297 0)"/>
     <use xlink:href="#DejaVuSans-31" transform="translate(1110.068359 0)"/>
     <use xlink:href="#DejaVuSans-2e" transform="translate(1173.691406 0)"/>
     <use xlink:href="#DejaVuSans-31" transform="translate(1205.478516 0)"/>
     <use xlink:href="#DejaVuSans-36" transform="translate(1269.101562 0)"/>
     <use xlink:href="#DejaVuSans-65" transform="translate(1332.724609 0)"/>
     <use xlink:href="#DejaVuSans-2b" transform="translate(1394.248047 0)"/>
     <use xlink:href="#DejaVuSans-30" transform="translate(1478.037109 0)"/>
     <use xlink:href="#DejaVuSans-34" transform="translate(1541.660156 0)"/>
    </g>
    <!-- (33.21% of total) -->
    <g style="fill: #ff0000" transform="translate(611.213711 327.714161) scale(0.1 -0.1)">
     <defs>
      <path id="DejaVuSans-25" d="M 4653 2053 
Q 4381 2053 4226 1822 
Q 4072 1591 4072 1178 
Q 4072 772 4226 539 
Q 4381 306 4653 306 
Q 4919 306 5073 539 
Q 5228 772 5228 1178 
Q 5228 1588 5073 1820 
Q 4919 2053 4653 2053 
z
M 4653 2450 
Q 5147 2450 5437 2106 
Q 5728 1763 5728 1178 
Q 5728 594 5436 251 
Q 5144 -91 4653 -91 
Q 4153 -91 3862 251 
Q 3572 594 3572 1178 
Q 3572 1766 3864 2108 
Q 4156 2450 4653 2450 
z
M 1428 4353 
Q 1159 4353 1004 4120 
Q 850 3888 850 3481 
Q 850 3069 1003 2837 
Q 1156 2606 1428 2606 
Q 1700 2606 1854 2837 
Q 2009 3069 2009 3481 
Q 2009 3884 1853 4118 
Q 1697 4353 1428 4353 
z
M 4250 4750 
L 4750 4750 
L 1831 -91 
L 1331 -91 
L 4250 4750 
z
M 1428 4750 
Q 1922 4750 2215 4408 
Q 2509 4066 2509 3481 
Q 2509 2891 2217 2550 
Q 1925 2209 1428 2209 
Q 931 2209 642 2551 
Q 353 2894 353 3481 
Q 353 4063 643 4406 
Q 934 4750 1428 4750 
z
" transform="scale(0.015625)"/>
      <path id="DejaVuSans-66" d="M 2375 4863 
L 2375 4384 
L 1825 4384 
Q 1516 4384 1395 4259 
Q 1275 4134 1275 3809 
L 1275 3500 
L 2222 3500 
L 2222 3053 
L 1275 3053 
L 1275 0 
L 697 0 
L 697 3053 
L 147 3053 
L 147 3500 
L 697 3500 
L 697 3744 
Q 697 4328 969 4595 
Q 1241 4863 1831 4863 
L 2375 4863 
z
" transform="scale(0.015625)"/>
     </defs>
     <use xlink:href="#DejaVuSans-28"/>
     <use xlink:href="#DejaVuSans-33" transform="translate(39.013672 0)"/>
     <use xlink:href="#DejaVuSans-33" transform="translate(102.636719 0)"/>
     <use xlink:href="#DejaVuSans-2e" transform="translate(166.259766 0)"/>
     <use xlink:href="#DejaVuSans-32" transform="translate(198.046875 0)"/>
     <use xlink:href="#DejaVuSans-31" transform="translate(261.669922 0)"/>
     <use xlink:href="#DejaVuSans-25" transform="translate(325.292969 0)"/>
     <use xlink:href="#DejaVuSans-20" transform="translate(420.3125 0)"/>
     <use xlink:href="#DejaVuSans-6f" transform="translate(452.099609 0)"/>
     <use xlink:href="#DejaVuSans-66" transform="translate(513.28125 0)"/>
     <use xlink:href="#DejaVuSans-20" transform="translate(548.486328 0)"/>
     <use xlink:href="#DejaVuSans-74" transform="translate(580.273438 0)"/>
     <use xlink:href="#DejaVuSans-6f" transform="translate(619.482422 0)"/>
     <use xlink:href="#DejaVuSans-74" transform="translate(680.664062 0)"/>
     <use xlink:href="#DejaVuSans-61" transform="translate(719.873047 0)"/>
     <use xlink:href="#DejaVuSans-6c" transform="translate(781.152344 0)"/>
     <use xlink:href="#DejaVuSans-29" transform="translate(808.935547 0)"/>
    </g>
   </g>
   <g id="text_16">
    <!-- UV and MS Chromatograms of IrCp3E21, target m/z = 715.1844784 -->
    <g transform="translate(246.528438 20.88) scale(0.12 -0.12)">
     <defs>
      <path id="DejaVuSans-55" d="M 556 4666 
L 1191 4666 
L 1191 1831 
Q 1191 1081 1462 751 
Q 1734 422 2344 422 
Q 2950 422 3222 751 
Q 3494 1081 3494 1831 
L 3494 4666 
L 4128 4666 
L 4128 1753 
Q 4128 841 3676 375 
Q 3225 -91 2344 -91 
Q 1459 -91 1007 375 
Q 556 841 556 1753 
L 556 4666 
z
" transform="scale(0.015625)"/>
      <path id="DejaVuSans-56" d="M 1831 0 
L 50 4666 
L 709 4666 
L 2188 738 
L 3669 4666 
L 4325 4666 
L 2547 0 
L 1831 0 
z
" transform="scale(0.015625)"/>
      <path id="DejaVuSans-4d" d="M 628 4666 
L 1569 4666 
L 2759 1491 
L 3956 4666 
L 4897 4666 
L 4897 0 
L 4281 0 
L 4281 4097 
L 3078 897 
L 2444 897 
L 1241 4097 
L 1241 0 
L 628 0 
L 628 4666 
z
" transform="scale(0.015625)"/>
      <path id="DejaVuSans-53" d="M 3425 4513 
L 3425 3897 
Q 3066 4069 2747 4153 
Q 2428 4238 2131 4238 
Q 1616 4238 1336 4038 
Q 1056 3838 1056 3469 
Q 1056 3159 1242 3001 
Q 1428 2844 1947 2747 
L 2328 2669 
Q 3034 2534 3370 2195 
Q 3706 1856 3706 1288 
Q 3706 609 3251 259 
Q 2797 -91 1919 -91 
Q 1588 -91 1214 -16 
Q 841 59 441 206 
L 441 856 
Q 825 641 1194 531 
Q 1563 422 1919 422 
Q 2459 422 2753 634 
Q 3047 847 3047 1241 
Q 3047 1584 2836 1778 
Q 2625 1972 2144 2069 
L 1759 2144 
Q 1053 2284 737 2584 
Q 422 2884 422 3419 
Q 422 4038 858 4394 
Q 1294 4750 2059 4750 
Q 2388 4750 2728 4690 
Q 3069 4631 3425 4513 
z
" transform="scale(0.015625)"/>
      <path id="DejaVuSans-43" d="M 4122 4306 
L 4122 3641 
Q 3803 3938 3442 4084 
Q 3081 4231 2675 4231 
Q 1875 4231 1450 3742 
Q 1025 3253 1025 2328 
Q 1025 1406 1450 917 
Q 1875 428 2675 428 
Q 3081 428 3442 575 
Q 3803 722 4122 1019 
L 4122 359 
Q 3791 134 3420 21 
Q 3050 -91 2638 -91 
Q 1578 -91 968 557 
Q 359 1206 359 2328 
Q 359 3453 968 4101 
Q 1578 4750 2638 4750 
Q 3056 4750 3426 4639 
Q 3797 4528 4122 4306 
z
" transform="scale(0.015625)"/>
      <path id="DejaVuSans-68" d="M 3513 2113 
L 3513 0 
L 2938 0 
L 2938 2094 
Q 2938 2591 2744 2837 
Q 2550 3084 2163 3084 
Q 1697 3084 1428 2787 
Q 1159 2491 1159 1978 
L 1159 0 
L 581 0 
L 581 4863 
L 1159 4863 
L 1159 2956 
Q 1366 3272 1645 3428 
Q 1925 3584 2291 3584 
Q 2894 3584 3203 3211 
Q 3513 2838 3513 2113 
z
" transform="scale(0.015625)"/>
      <path id="DejaVuSans-67" d="M 2906 1791 
Q 2906 2416 2648 2759 
Q 2391 3103 1925 3103 
Q 1463 3103 1205 2759 
Q 947 2416 947 1791 
Q 947 1169 1205 825 
Q 1463 481 1925 481 
Q 2391 481 2648 825 
Q 2906 1169 2906 1791 
z
M 3481 434 
Q 3481 -459 3084 -895 
Q 2688 -1331 1869 -1331 
Q 1566 -1331 1297 -1286 
Q 1028 -1241 775 -1147 
L 775 -588 
Q 1028 -725 1275 -790 
Q 1522 -856 1778 -856 
Q 2344 -856 2625 -561 
Q 2906 -266 2906 331 
L 2906 616 
Q 2728 306 2450 153 
Q 2172 0 1784 0 
Q 1141 0 747 490 
Q 353 981 353 1791 
Q 353 2603 747 3093 
Q 1141 3584 1784 3584 
Q 2172 3584 2450 3431 
Q 2728 3278 2906 2969 
L 2906 3500 
L 3481 3500 
L 3481 434 
z
" transform="scale(0.015625)"/>
      <path id="DejaVuSans-70" d="M 1159 525 
L 1159 -1331 
L 581 -1331 
L 581 3500 
L 1159 3500 
L 1159 2969 
Q 1341 3281 1617 3432 
Q 1894 3584 2278 3584 
Q 2916 3584 3314 3078 
Q 3713 2572 3713 1747 
Q 3713 922 3314 415 
Q 2916 -91 2278 -91 
Q 1894 -91 1617 61 
Q 1341 213 1159 525 
z
M 3116 1747 
Q 3116 2381 2855 2742 
Q 2594 3103 2138 3103 
Q 1681 3103 1420 2742 
Q 1159 2381 1159 1747 
Q 1159 1113 1420 752 
Q 1681 391 2138 391 
Q 2594 391 2855 752 
Q 3116 1113 3116 1747 
z
" transform="scale(0.015625)"/>
      <path id="DejaVuSans-45" d="M 628 4666 
L 3578 4666 
L 3578 4134 
L 1259 4134 
L 1259 2753 
L 3481 2753 
L 3481 2222 
L 1259 2222 
L 1259 531 
L 3634 531 
L 3634 0 
L 628 0 
L 628 4666 
z
" transform="scale(0.015625)"/>
      <path id="DejaVuSans-2f" d="M 1625 4666 
L 2156 4666 
L 531 -594 
L 0 -594 
L 1625 4666 
z
" transform="scale(0.015625)"/>
      <path id="DejaVuSans-37" d="M 525 4666 
L 3525 4666 
L 3525 4397 
L 1831 0 
L 1172 0 
L 2766 4134 
L 525 4134 
L 525 4666 
z
" transform="scale(0.015625)"/>
      <path id="DejaVuSans-38" d="M 2034 2216 
Q 1584 2216 1326 1975 
Q 1069 1734 1069 1313 
Q 1069 891 1326 650 
Q 1584 409 2034 409 
Q 2484 409 2743 651 
Q 3003 894 3003 1313 
Q 3003 1734 2745 1975 
Q 2488 2216 2034 2216 
z
M 1403 2484 
Q 997 2584 770 2862 
Q 544 3141 544 3541 
Q 544 4100 942 4425 
Q 1341 4750 2034 4750 
Q 2731 4750 3128 4425 
Q 3525 4100 3525 3541 
Q 3525 3141 3298 2862 
Q 3072 2584 2669 2484 
Q 3125 2378 3379 2068 
Q 3634 1759 3634 1313 
Q 3634 634 3220 271 
Q 2806 -91 2034 -91 
Q 1263 -91 848 271 
Q 434 634 434 1313 
Q 434 1759 690 2068 
Q 947 2378 1403 2484 
z
M 1172 3481 
Q 1172 3119 1398 2916 
Q 1625 2713 2034 2713 
Q 2441 2713 2670 2916 
Q 2900 3119 2900 3481 
Q 2900 3844 2670 4047 
Q 2441 4250 2034 4250 
Q 1625 4250 1398 4047 
Q 1172 3844 1172 3481 
z
" transform="scale(0.015625)"/>
     </defs>
     <use xlink:href="#DejaVuSans-55"/>
     <use xlink:href="#DejaVuSans-56" transform="translate(73.193359 0)"/>
     <use xlink:href="#DejaVuSans-20" transform="translate(141.601562 0)"/>
     <use xlink:href="#DejaVuSans-61" transform="translate(173.388672 0)"/>
     <use xlink:href="#DejaVuSans-6e" transform="translate(234.667969 0)"/>
     <use xlink:href="#DejaVuSans-64" transform="translate(298.046875 0)"/>
     <use xlink:href="#DejaVuSans-20" transform="translate(361.523438 0)"/>
     <use xlink:href="#DejaVuSans-4d" transform="translate(393.310547 0)"/>
     <use xlink:href="#DejaVuSans-53" transform="translate(479.589844 0)"/>
     <use xlink:href="#DejaVuSans-20" transform="translate(543.066406 0)"/>
     <use xlink:href="#DejaVuSans-43" transform="translate(574.853516 0)"/>
     <use xlink:href="#DejaVuSans-68" transform="translate(644.677734 0)"/>
     <use xlink:href="#DejaVuSans-72" transform="translate(708.056641 0)"/>
     <use xlink:href="#DejaVuSans-6f" transform="translate(746.919922 0)"/>
     <use xlink:href="#DejaVuSans-6d" transform="translate(808.101562 0)"/>
     <use xlink:href="#DejaVuSans-61" transform="translate(905.513672 0)"/>
     <use xlink:href="#DejaVuSans-74" transform="translate(966.792969 0)"/>
     <use xlink:href="#DejaVuSans-6f" transform="translate(1006.001953 0)"/>
     <use xlink:href="#DejaVuSans-67" transform="translate(1067.183594 0)"/>
     <use xlink:href="#DejaVuSans-72" transform="translate(1130.660156 0)"/>
     <use xlink:href="#DejaVuSans-61" transform="translate(1171.773438 0)"/>
     <use xlink:href="#DejaVuSans-6d" transform="translate(1233.052734 0)"/>
     <use xlink:href="#DejaVuSans-73" transform="translate(1330.464844 0)"/>
     <use xlink:href="#DejaVuSans-20" transform="translate(1382.564453 0)"/>
     <use xlink:href="#DejaVuSans-6f" transform="translate(1414.351562 0)"/>
     <use xlink:href="#DejaVuSans-66" transform="translate(1475.533203 0)"/>
     <use xlink:href="#DejaVuSans-20" transform="translate(1510.738281 0)"/>
     <use xlink:href="#DejaVuSans-49" transform="translate(1542.525391 0)"/>
     <use xlink:href="#DejaVuSans-72" transform="translate(1572.017578 0)"/>
     <use xlink:href="#DejaVuSans-43" transform="translate(1613.130859 0)"/>
     <use xlink:href="#DejaVuSans-70" transform="translate(1682.955078 0)"/>
     <use xlink:href="#DejaVuSans-33" transform="translate(1746.431641 0)"/>
     <use xlink:href="#DejaVuSans-45" transform="translate(1810.054688 0)"/>
     <use xlink:href="#DejaVuSans-32" transform="translate(1873.238281 0)"/>
     <use xlink:href="#DejaVuSans-31" transform="translate(1936.861328 0)"/>
     <use xlink:href="#DejaVuSans-2c" transform="translate(2000.484375 0)"/>
     <use xlink:href="#DejaVuSans-20" transform="translate(2032.271484 0)"/>
     <use xlink:href="#DejaVuSans-74" transform="translate(2064.058594 0)"/>
     <use xlink:href="#DejaVuSans-61" transform="translate(2103.267578 0)"/>
     <use xlink:href="#DejaVuSans-72" transform="translate(2164.546875 0)"/>
     <use xlink:href="#DejaVuSans-67" transform="translate(2203.910156 0)"/>
     <use xlink:href="#DejaVuSans-65" transform="translate(2267.386719 0)"/>
     <use xlink:href="#DejaVuSans-74" transform="translate(2328.910156 0)"/>
     <use xlink:href="#DejaVuSans-20" transform="translate(2368.119141 0)"/>
     <use xlink:href="#DejaVuSans-6d" transform="translate(2399.90625 0)"/>
     <use xlink:href="#DejaVuSans-2f" transform="translate(2497.318359 0)"/>
     <use xlink:href="#DejaVuSans-7a" transform="translate(2531.009766 0)"/>
     <use xlink:href="#DejaVuSans-20" transform="translate(2583.5 0)"/>
     <use xlink:href="#DejaVuSans-3d" transform="translate(2615.287109 0)"/>
     <use xlink:href="#DejaVuSans-20" transform="translate(2699.076172 0)"/>
     <use xlink:href="#DejaVuSans-37" transform="translate(2730.863281 0)"/>
     <use xlink:href="#DejaVuSans-31" transform="translate(2794.486328 0)"/>
     <use xlink:href="#DejaVuSans-35" transform="translate(2858.109375 0)"/>
     <use xlink:href="#DejaVuSans-2e" transform="translate(2921.732422 0)"/>
     <use xlink:href="#DejaVuSans-31" transform="translate(2953.519531 0)"/>
     <use xlink:href="#DejaVuSans-38" transform="translate(3017.142578 0)"/>
     <use xlink:href="#DejaVuSans-34" transform="translate(3080.765625 0)"/>
     <use xlink:href="#DejaVuSans-34" transform="translate(3144.388672 0)"/>
     <use xlink:href="#DejaVuSans-37" transform="translate(3208.011719 0)"/>
     <use xlink:href="#DejaVuSans-38" transform="translate(3271.634766 0)"/>
     <use xlink:href="#DejaVuSans-34" transform="translate(3335.257812 0)"/>
    </g>
   </g>
   <g id="legend_1">
    <g id="patch_8">
     <path d="M 685.971875 64.23625 
L 846.2 64.23625 
Q 848.2 64.23625 848.2 62.23625 
L 848.2 33.88 
Q 848.2 31.88 846.2 31.88 
L 685.971875 31.88 
Q 683.971875 31.88 683.971875 33.88 
L 683.971875 62.23625 
Q 683.971875 64.23625 685.971875 64.23625 
z
" style="fill: #ffffff; opacity: 0.8; stroke: #cccccc; stroke-linejoin: miter"/>
    </g>
    <g id="line2d_15">
     <path d="M 687.971875 39.978437 
L 697.971875 39.978437 
L 707.971875 39.978437 
" style="fill: none; stroke: #0000ff; stroke-width: 1.5; stroke-linecap: square"/>
    </g>
    <g id="text_17">
     <!-- UV Intensity (normalized) -->
     <g transform="translate(715.971875 43.478437) scale(0.1 -0.1)">
      <use xlink:href="#DejaVuSans-55"/>
      <use xlink:href="#DejaVuSans-56" transform="translate(73.193359 0)"/>
      <use xlink:href="#DejaVuSans-20" transform="translate(141.601562 0)"/>
      <use xlink:href="#DejaVuSans-49" transform="translate(173.388672 0)"/>
      <use xlink:href="#DejaVuSans-6e" transform="translate(202.880859 0)"/>
      <use xlink:href="#DejaVuSans-74" transform="translate(266.259766 0)"/>
      <use xlink:href="#DejaVuSans-65" transform="translate(305.46875 0)"/>
      <use xlink:href="#DejaVuSans-6e" transform="translate(366.992188 0)"/>
      <use xlink:href="#DejaVuSans-73" transform="translate(430.371094 0)"/>
      <use xlink:href="#DejaVuSans-69" transform="translate(482.470703 0)"/>
      <use xlink:href="#DejaVuSans-74" transform="translate(510.253906 0)"/>
      <use xlink:href="#DejaVuSans-79" transform="translate(549.462891 0)"/>
      <use xlink:href="#DejaVuSans-20" transform="translate(608.642578 0)"/>
      <use xlink:href="#DejaVuSans-28" transform="translate(640.429688 0)"/>
      <use xlink:href="#DejaVuSans-6e" transform="translate(679.443359 0)"/>
      <use xlink:href="#DejaVuSans-6f" transform="translate(742.822266 0)"/>
      <use xlink:href="#DejaVuSans-72" transform="translate(804.003906 0)"/>
      <use xlink:href="#DejaVuSans-6d" transform="translate(843.367188 0)"/>
      <use xlink:href="#DejaVuSans-61" transform="translate(940.779297 0)"/>
      <use xlink:href="#DejaVuSans-6c" transform="translate(1002.058594 0)"/>
      <use xlink:href="#DejaVuSans-69" transform="translate(1029.841797 0)"/>
      <use xlink:href="#DejaVuSans-7a" transform="translate(1057.625 0)"/>
      <use xlink:href="#DejaVuSans-65" transform="translate(1110.115234 0)"/>
      <use xlink:href="#DejaVuSans-64" transform="translate(1171.638672 0)"/>
      <use xlink:href="#DejaVuSans-29" transform="translate(1235.115234 0)"/>
     </g>
    </g>
    <g id="line2d_16">
     <path d="M 687.971875 54.656562 
L 697.971875 54.656562 
L 707.971875 54.656562 
" style="fill: none; stroke: #008000; stroke-width: 1.5; stroke-linecap: square"/>
    </g>
    <g id="text_18">
     <!-- MS Intensity (normalized) -->
     <g transform="translate(715.971875 58.156562) scale(0.1 -0.1)">
      <use xlink:href="#DejaVuSans-4d"/>
      <use xlink:href="#DejaVuSans-53" transform="translate(86.279297 0)"/>
      <use xlink:href="#DejaVuSans-20" transform="translate(149.755859 0)"/>
      <use xlink:href="#DejaVuSans-49" transform="translate(181.542969 0)"/>
      <use xlink:href="#DejaVuSans-6e" transform="translate(211.035156 0)"/>
      <use xlink:href="#DejaVuSans-74" transform="translate(274.414062 0)"/>
      <use xlink:href="#DejaVuSans-65" transform="translate(313.623047 0)"/>
      <use xlink:href="#DejaVuSans-6e" transform="translate(375.146484 0)"/>
      <use xlink:href="#DejaVuSans-73" transform="translate(438.525391 0)"/>
      <use xlink:href="#DejaVuSans-69" transform="translate(490.625 0)"/>
      <use xlink:href="#DejaVuSans-74" transform="translate(518.408203 0)"/>
      <use xlink:href="#DejaVuSans-79" transform="translate(557.617188 0)"/>
      <use xlink:href="#DejaVuSans-20" transform="translate(616.796875 0)"/>
      <use xlink:href="#DejaVuSans-28" transform="translate(648.583984 0)"/>
      <use xlink:href="#DejaVuSans-6e" transform="translate(687.597656 0)"/>
      <use xlink:href="#DejaVuSans-6f" transform="translate(750.976562 0)"/>
      <use xlink:href="#DejaVuSans-72" transform="translate(812.158203 0)"/>
      <use xlink:href="#DejaVuSans-6d" transform="translate(851.521484 0)"/>
      <use xlink:href="#DejaVuSans-61" transform="translate(948.933594 0)"/>
      <use xlink:href="#DejaVuSans-6c" transform="translate(1010.212891 0)"/>
      <use xlink:href="#DejaVuSans-69" transform="translate(1037.996094 0)"/>
      <use xlink:href="#DejaVuSans-7a" transform="translate(1065.779297 0)"/>
      <use xlink:href="#DejaVuSans-65" transform="translate(1118.269531 0)"/>
      <use xlink:href="#DejaVuSans-64" transform="translate(1179.792969 0)"/>
      <use xlink:href="#DejaVuSans-29" transform="translate(1243.269531 0)"/>
     </g>
    </g>
   </g>
  </g>
 </g>
 <defs>
  <clipPath id="p4eb0206907">
   <rect x="47.72" y="26.88" width="805.48" height="507.16"/>
  </clipPath>
 </defs>
</svg>
