<?xml version="1.0" encoding="utf-8" standalone="no"?>
<!DOCTYPE svg PUBLIC "-//W3C//DTD SVG 1.1//EN"
  "http://www.w3.org/Graphics/SVG/1.1/DTD/svg11.dtd">
<svg xmlns:xlink="http://www.w3.org/1999/xlink" width="864pt" height="576pt" viewBox="0 0 864 576" xmlns="http://www.w3.org/2000/svg" version="1.1">
 <metadata>
  <rdf:RDF xmlns:dc="http://purl.org/dc/elements/1.1/" xmlns:cc="http://creativecommons.org/ns#" xmlns:rdf="http://www.w3.org/1999/02/22-rdf-syntax-ns#">
   <cc:Work>
    <dc:type rdf:resource="http://purl.org/dc/dcmitype/StillImage"/>
    <dc:date>2025-02-25T11:11:54.786878</dc:date>
    <dc:format>image/svg+xml</dc:format>
    <dc:creator>
     <cc:Agent>
      <dc:title>Matplotlib v3.10.0, https://matplotlib.org/</dc:title>
     </cc:Agent>
    </dc:creator>
   </cc:Work>
  </rdf:RDF>
 </metadata>
 <defs>
  <style type="text/css">*{stroke-linejoin: round; stroke-linecap: butt}</style>
 </defs>
 <g id="figure_1">
  <g id="patch_1">
   <path d="M 0 576 
L 864 576 
L 864 0 
L 0 0 
z
" style="fill: #ffffff"/>
  </g>
  <g id="axes_1">
   <g id="patch_2">
    <path d="M 47.72 534.04 
L 853.2 534.04 
L 853.2 26.88 
L 47.72 26.88 
z
" style="fill: #ffffff"/>
   </g>
   <g id="matplotlib.axis_1">
    <g id="xtick_1">
     <g id="line2d_1">
      <defs>
       <path id="m2a5f74d56a" d="M 0 0 
L 0 3.5 
" style="stroke: #000000; stroke-width: 0.8"/>
      </defs>
      <g>
       <use xlink:href="#m2a5f74d56a" x="83.093151" y="534.04" style="stroke: #000000; stroke-width: 0.8"/>
      </g>
     </g>
     <g id="text_1">
      <!-- 0 -->
      <g transform="translate(79.911901 548.638438) scale(0.1 -0.1)">
       <defs>
        <path id="DejaVuSans-30" d="M 2034 4250 
Q 1547 4250 1301 3770 
Q 1056 3291 1056 2328 
Q 1056 1369 1301 889 
Q 1547 409 2034 409 
Q 2525 409 2770 889 
Q 3016 1369 3016 2328 
Q 3016 3291 2770 3770 
Q 2525 4250 2034 4250 
z
M 2034 4750 
Q 2819 4750 3233 4129 
Q 3647 3509 3647 2328 
Q 3647 1150 3233 529 
Q 2819 -91 2034 -91 
Q 1250 -91 836 529 
Q 422 1150 422 2328 
Q 422 3509 836 4129 
Q 1250 4750 2034 4750 
z
" transform="scale(0.015625)"/>
       </defs>
       <use xlink:href="#DejaVuSans-30"/>
      </g>
     </g>
    </g>
    <g id="xtick_2">
     <g id="line2d_2">
      <g>
       <use xlink:href="#m2a5f74d56a" x="229.788553" y="534.04" style="stroke: #000000; stroke-width: 0.8"/>
      </g>
     </g>
     <g id="text_2">
      <!-- 1 -->
      <g transform="translate(226.607303 548.638438) scale(0.1 -0.1)">
       <defs>
        <path id="DejaVuSans-31" d="M 794 531 
L 1825 531 
L 1825 4091 
L 703 3866 
L 703 4441 
L 1819 4666 
L 2450 4666 
L 2450 531 
L 3481 531 
L 3481 0 
L 794 0 
L 794 531 
z
" transform="scale(0.015625)"/>
       </defs>
       <use xlink:href="#DejaVuSans-31"/>
      </g>
     </g>
    </g>
    <g id="xtick_3">
     <g id="line2d_3">
      <g>
       <use xlink:href="#m2a5f74d56a" x="376.483954" y="534.04" style="stroke: #000000; stroke-width: 0.8"/>
      </g>
     </g>
     <g id="text_3">
      <!-- 2 -->
      <g transform="translate(373.302704 548.638438) scale(0.1 -0.1)">
       <defs>
        <path id="DejaVuSans-32" d="M 1228 531 
L 3431 531 
L 3431 0 
L 469 0 
L 469 531 
Q 828 903 1448 1529 
Q 2069 2156 2228 2338 
Q 2531 2678 2651 2914 
Q 2772 3150 2772 3378 
Q 2772 3750 2511 3984 
Q 2250 4219 1831 4219 
Q 1534 4219 1204 4116 
Q 875 4013 500 3803 
L 500 4441 
Q 881 4594 1212 4672 
Q 1544 4750 1819 4750 
Q 2544 4750 2975 4387 
Q 3406 4025 3406 3419 
Q 3406 3131 3298 2873 
Q 3191 2616 2906 2266 
Q 2828 2175 2409 1742 
Q 1991 1309 1228 531 
z
" transform="scale(0.015625)"/>
       </defs>
       <use xlink:href="#DejaVuSans-32"/>
      </g>
     </g>
    </g>
    <g id="xtick_4">
     <g id="line2d_4">
      <g>
       <use xlink:href="#m2a5f74d56a" x="523.179355" y="534.04" style="stroke: #000000; stroke-width: 0.8"/>
      </g>
     </g>
     <g id="text_4">
      <!-- 3 -->
      <g transform="translate(519.998105 548.638438) scale(0.1 -0.1)">
       <defs>
        <path id="DejaVuSans-33" d="M 2597 2516 
Q 3050 2419 3304 2112 
Q 3559 1806 3559 1356 
Q 3559 666 3084 287 
Q 2609 -91 1734 -91 
Q 1441 -91 1130 -33 
Q 819 25 488 141 
L 488 750 
Q 750 597 1062 519 
Q 1375 441 1716 441 
Q 2309 441 2620 675 
Q 2931 909 2931 1356 
Q 2931 1769 2642 2001 
Q 2353 2234 1838 2234 
L 1294 2234 
L 1294 2753 
L 1863 2753 
Q 2328 2753 2575 2939 
Q 2822 3125 2822 3475 
Q 2822 3834 2567 4026 
Q 2313 4219 1838 4219 
Q 1578 4219 1281 4162 
Q 984 4106 628 3988 
L 628 4550 
Q 988 4650 1302 4700 
Q 1616 4750 1894 4750 
Q 2613 4750 3031 4423 
Q 3450 4097 3450 3541 
Q 3450 3153 3228 2886 
Q 3006 2619 2597 2516 
z
" transform="scale(0.015625)"/>
       </defs>
       <use xlink:href="#DejaVuSans-33"/>
      </g>
     </g>
    </g>
    <g id="xtick_5">
     <g id="line2d_5">
      <g>
       <use xlink:href="#m2a5f74d56a" x="669.874757" y="534.04" style="stroke: #000000; stroke-width: 0.8"/>
      </g>
     </g>
     <g id="text_5">
      <!-- 4 -->
      <g transform="translate(666.693507 548.638438) scale(0.1 -0.1)">
       <defs>
        <path id="DejaVuSans-34" d="M 2419 4116 
L 825 1625 
L 2419 1625 
L 2419 4116 
z
M 2253 4666 
L 3047 4666 
L 3047 1625 
L 3713 1625 
L 3713 1100 
L 3047 1100 
L 3047 0 
L 2419 0 
L 2419 1100 
L 313 1100 
L 313 1709 
L 2253 4666 
z
" transform="scale(0.015625)"/>
       </defs>
       <use xlink:href="#DejaVuSans-34"/>
      </g>
     </g>
    </g>
    <g id="xtick_6">
     <g id="line2d_6">
      <g>
       <use xlink:href="#m2a5f74d56a" x="816.570158" y="534.04" style="stroke: #000000; stroke-width: 0.8"/>
      </g>
     </g>
     <g id="text_6">
      <!-- 5 -->
      <g transform="translate(813.388908 548.638438) scale(0.1 -0.1)">
       <defs>
        <path id="DejaVuSans-35" d="M 691 4666 
L 3169 4666 
L 3169 4134 
L 1269 4134 
L 1269 2991 
Q 1406 3038 1543 3061 
Q 1681 3084 1819 3084 
Q 2600 3084 3056 2656 
Q 3513 2228 3513 1497 
Q 3513 744 3044 326 
Q 2575 -91 1722 -91 
Q 1428 -91 1123 -41 
Q 819 9 494 109 
L 494 744 
Q 775 591 1075 516 
Q 1375 441 1709 441 
Q 2250 441 2565 725 
Q 2881 1009 2881 1497 
Q 2881 1984 2565 2268 
Q 2250 2553 1709 2553 
Q 1456 2553 1204 2497 
Q 953 2441 691 2322 
L 691 4666 
z
" transform="scale(0.015625)"/>
       </defs>
       <use xlink:href="#DejaVuSans-35"/>
      </g>
     </g>
    </g>
    <g id="text_7">
     <!-- Retention Time (min) -->
     <g transform="translate(397.61 562.316562) scale(0.1 -0.1)">
      <defs>
       <path id="DejaVuSans-52" d="M 2841 2188 
Q 3044 2119 3236 1894 
Q 3428 1669 3622 1275 
L 4263 0 
L 3584 0 
L 2988 1197 
Q 2756 1666 2539 1819 
Q 2322 1972 1947 1972 
L 1259 1972 
L 1259 0 
L 628 0 
L 628 4666 
L 2053 4666 
Q 2853 4666 3247 4331 
Q 3641 3997 3641 3322 
Q 3641 2881 3436 2590 
Q 3231 2300 2841 2188 
z
M 1259 4147 
L 1259 2491 
L 2053 2491 
Q 2509 2491 2742 2702 
Q 2975 2913 2975 3322 
Q 2975 3731 2742 3939 
Q 2509 4147 2053 4147 
L 1259 4147 
z
" transform="scale(0.015625)"/>
       <path id="DejaVuSans-65" d="M 3597 1894 
L 3597 1613 
L 953 1613 
Q 991 1019 1311 708 
Q 1631 397 2203 397 
Q 2534 397 2845 478 
Q 3156 559 3463 722 
L 3463 178 
Q 3153 47 2828 -22 
Q 2503 -91 2169 -91 
Q 1331 -91 842 396 
Q 353 884 353 1716 
Q 353 2575 817 3079 
Q 1281 3584 2069 3584 
Q 2775 3584 3186 3129 
Q 3597 2675 3597 1894 
z
M 3022 2063 
Q 3016 2534 2758 2815 
Q 2500 3097 2075 3097 
Q 1594 3097 1305 2825 
Q 1016 2553 972 2059 
L 3022 2063 
z
" transform="scale(0.015625)"/>
       <path id="DejaVuSans-74" d="M 1172 4494 
L 1172 3500 
L 2356 3500 
L 2356 3053 
L 1172 3053 
L 1172 1153 
Q 1172 725 1289 603 
Q 1406 481 1766 481 
L 2356 481 
L 2356 0 
L 1766 0 
Q 1100 0 847 248 
Q 594 497 594 1153 
L 594 3053 
L 172 3053 
L 172 3500 
L 594 3500 
L 594 4494 
L 1172 4494 
z
" transform="scale(0.015625)"/>
       <path id="DejaVuSans-6e" d="M 3513 2113 
L 3513 0 
L 2938 0 
L 2938 2094 
Q 2938 2591 2744 2837 
Q 2550 3084 2163 3084 
Q 1697 3084 1428 2787 
Q 1159 2491 1159 1978 
L 1159 0 
L 581 0 
L 581 3500 
L 1159 3500 
L 1159 2956 
Q 1366 3272 1645 3428 
Q 1925 3584 2291 3584 
Q 2894 3584 3203 3211 
Q 3513 2838 3513 2113 
z
" transform="scale(0.015625)"/>
       <path id="DejaVuSans-69" d="M 603 3500 
L 1178 3500 
L 1178 0 
L 603 0 
L 603 3500 
z
M 603 4863 
L 1178 4863 
L 1178 4134 
L 603 4134 
L 603 4863 
z
" transform="scale(0.015625)"/>
       <path id="DejaVuSans-6f" d="M 1959 3097 
Q 1497 3097 1228 2736 
Q 959 2375 959 1747 
Q 959 1119 1226 758 
Q 1494 397 1959 397 
Q 2419 397 2687 759 
Q 2956 1122 2956 1747 
Q 2956 2369 2687 2733 
Q 2419 3097 1959 3097 
z
M 1959 3584 
Q 2709 3584 3137 3096 
Q 3566 2609 3566 1747 
Q 3566 888 3137 398 
Q 2709 -91 1959 -91 
Q 1206 -91 779 398 
Q 353 888 353 1747 
Q 353 2609 779 3096 
Q 1206 3584 1959 3584 
z
" transform="scale(0.015625)"/>
       <path id="DejaVuSans-20" transform="scale(0.015625)"/>
       <path id="DejaVuSans-54" d="M -19 4666 
L 3928 4666 
L 3928 4134 
L 2272 4134 
L 2272 0 
L 1638 0 
L 1638 4134 
L -19 4134 
L -19 4666 
z
" transform="scale(0.015625)"/>
       <path id="DejaVuSans-6d" d="M 3328 2828 
Q 3544 3216 3844 3400 
Q 4144 3584 4550 3584 
Q 5097 3584 5394 3201 
Q 5691 2819 5691 2113 
L 5691 0 
L 5113 0 
L 5113 2094 
Q 5113 2597 4934 2840 
Q 4756 3084 4391 3084 
Q 3944 3084 3684 2787 
Q 3425 2491 3425 1978 
L 3425 0 
L 2847 0 
L 2847 2094 
Q 2847 2600 2669 2842 
Q 2491 3084 2119 3084 
Q 1678 3084 1418 2786 
Q 1159 2488 1159 1978 
L 1159 0 
L 581 0 
L 581 3500 
L 1159 3500 
L 1159 2956 
Q 1356 3278 1631 3431 
Q 1906 3584 2284 3584 
Q 2666 3584 2933 3390 
Q 3200 3197 3328 2828 
z
" transform="scale(0.015625)"/>
       <path id="DejaVuSans-28" d="M 1984 4856 
Q 1566 4138 1362 3434 
Q 1159 2731 1159 2009 
Q 1159 1288 1364 580 
Q 1569 -128 1984 -844 
L 1484 -844 
Q 1016 -109 783 600 
Q 550 1309 550 2009 
Q 550 2706 781 3412 
Q 1013 4119 1484 4856 
L 1984 4856 
z
" transform="scale(0.015625)"/>
       <path id="DejaVuSans-29" d="M 513 4856 
L 1013 4856 
Q 1481 4119 1714 3412 
Q 1947 2706 1947 2009 
Q 1947 1309 1714 600 
Q 1481 -109 1013 -844 
L 513 -844 
Q 928 -128 1133 580 
Q 1338 1288 1338 2009 
Q 1338 2731 1133 3434 
Q 928 4138 513 4856 
z
" transform="scale(0.015625)"/>
      </defs>
      <use xlink:href="#DejaVuSans-52"/>
      <use xlink:href="#DejaVuSans-65" transform="translate(64.982422 0)"/>
      <use xlink:href="#DejaVuSans-74" transform="translate(126.505859 0)"/>
      <use xlink:href="#DejaVuSans-65" transform="translate(165.714844 0)"/>
      <use xlink:href="#DejaVuSans-6e" transform="translate(227.238281 0)"/>
      <use xlink:href="#DejaVuSans-74" transform="translate(290.617188 0)"/>
      <use xlink:href="#DejaVuSans-69" transform="translate(329.826172 0)"/>
      <use xlink:href="#DejaVuSans-6f" transform="translate(357.609375 0)"/>
      <use xlink:href="#DejaVuSans-6e" transform="translate(418.791016 0)"/>
      <use xlink:href="#DejaVuSans-20" transform="translate(482.169922 0)"/>
      <use xlink:href="#DejaVuSans-54" transform="translate(513.957031 0)"/>
      <use xlink:href="#DejaVuSans-69" transform="translate(571.916016 0)"/>
      <use xlink:href="#DejaVuSans-6d" transform="translate(599.699219 0)"/>
      <use xlink:href="#DejaVuSans-65" transform="translate(697.111328 0)"/>
      <use xlink:href="#DejaVuSans-20" transform="translate(758.634766 0)"/>
      <use xlink:href="#DejaVuSans-28" transform="translate(790.421875 0)"/>
      <use xlink:href="#DejaVuSans-6d" transform="translate(829.435547 0)"/>
      <use xlink:href="#DejaVuSans-69" transform="translate(926.847656 0)"/>
      <use xlink:href="#DejaVuSans-6e" transform="translate(954.630859 0)"/>
      <use xlink:href="#DejaVuSans-29" transform="translate(1018.009766 0)"/>
     </g>
    </g>
   </g>
   <g id="matplotlib.axis_2">
    <g id="ytick_1">
     <g id="line2d_7">
      <defs>
       <path id="mb14c55871e" d="M 0 0 
L -3.5 0 
" style="stroke: #000000; stroke-width: 0.8"/>
      </defs>
      <g>
       <use xlink:href="#mb14c55871e" x="47.72" y="510.217364" style="stroke: #000000; stroke-width: 0.8"/>
      </g>
     </g>
     <g id="text_8">
      <!-- 0.0 -->
      <g style="fill: #0000ff" transform="translate(24.816875 514.016583) scale(0.1 -0.1)">
       <defs>
        <path id="DejaVuSans-2e" d="M 684 794 
L 1344 794 
L 1344 0 
L 684 0 
L 684 794 
z
" transform="scale(0.015625)"/>
       </defs>
       <use xlink:href="#DejaVuSans-30"/>
       <use xlink:href="#DejaVuSans-2e" transform="translate(63.623047 0)"/>
       <use xlink:href="#DejaVuSans-30" transform="translate(95.410156 0)"/>
      </g>
     </g>
    </g>
    <g id="ytick_2">
     <g id="line2d_8">
      <g>
       <use xlink:href="#mb14c55871e" x="47.72" y="418.160437" style="stroke: #000000; stroke-width: 0.8"/>
      </g>
     </g>
     <g id="text_9">
      <!-- 0.5 -->
      <g style="fill: #0000ff" transform="translate(24.816875 421.959655) scale(0.1 -0.1)">
       <use xlink:href="#DejaVuSans-30"/>
       <use xlink:href="#DejaVuSans-2e" transform="translate(63.623047 0)"/>
       <use xlink:href="#DejaVuSans-35" transform="translate(95.410156 0)"/>
      </g>
     </g>
    </g>
    <g id="ytick_3">
     <g id="line2d_9">
      <g>
       <use xlink:href="#mb14c55871e" x="47.72" y="326.103509" style="stroke: #000000; stroke-width: 0.8"/>
      </g>
     </g>
     <g id="text_10">
      <!-- 1.0 -->
      <g style="fill: #0000ff" transform="translate(24.816875 329.902728) scale(0.1 -0.1)">
       <use xlink:href="#DejaVuSans-31"/>
       <use xlink:href="#DejaVuSans-2e" transform="translate(63.623047 0)"/>
       <use xlink:href="#DejaVuSans-30" transform="translate(95.410156 0)"/>
      </g>
     </g>
    </g>
    <g id="ytick_4">
     <g id="line2d_10">
      <g>
       <use xlink:href="#mb14c55871e" x="47.72" y="234.046582" style="stroke: #000000; stroke-width: 0.8"/>
      </g>
     </g>
     <g id="text_11">
      <!-- 1.5 -->
      <g style="fill: #0000ff" transform="translate(24.816875 237.845801) scale(0.1 -0.1)">
       <use xlink:href="#DejaVuSans-31"/>
       <use xlink:href="#DejaVuSans-2e" transform="translate(63.623047 0)"/>
       <use xlink:href="#DejaVuSans-35" transform="translate(95.410156 0)"/>
      </g>
     </g>
    </g>
    <g id="ytick_5">
     <g id="line2d_11">
      <g>
       <use xlink:href="#mb14c55871e" x="47.72" y="141.989655" style="stroke: #000000; stroke-width: 0.8"/>
      </g>
     </g>
     <g id="text_12">
      <!-- 2.0 -->
      <g style="fill: #0000ff" transform="translate(24.816875 145.788873) scale(0.1 -0.1)">
       <use xlink:href="#DejaVuSans-32"/>
       <use xlink:href="#DejaVuSans-2e" transform="translate(63.623047 0)"/>
       <use xlink:href="#DejaVuSans-30" transform="translate(95.410156 0)"/>
      </g>
     </g>
    </g>
    <g id="ytick_6">
     <g id="line2d_12">
      <g>
       <use xlink:href="#mb14c55871e" x="47.72" y="49.932727" style="stroke: #000000; stroke-width: 0.8"/>
      </g>
     </g>
     <g id="text_13">
      <!-- 2.5 -->
      <g style="fill: #0000ff" transform="translate(24.816875 53.731946) scale(0.1 -0.1)">
       <use xlink:href="#DejaVuSans-32"/>
       <use xlink:href="#DejaVuSans-2e" transform="translate(63.623047 0)"/>
       <use xlink:href="#DejaVuSans-35" transform="translate(95.410156 0)"/>
      </g>
     </g>
    </g>
    <g id="text_14">
     <!-- Normalized Intensity -->
     <g style="fill: #0000ff" transform="translate(18.737187 332.167031) rotate(-90) scale(0.1 -0.1)">
      <defs>
       <path id="DejaVuSans-4e" d="M 628 4666 
L 1478 4666 
L 3547 763 
L 3547 4666 
L 4159 4666 
L 4159 0 
L 3309 0 
L 1241 3903 
L 1241 0 
L 628 0 
L 628 4666 
z
" transform="scale(0.015625)"/>
       <path id="DejaVuSans-72" d="M 2631 2963 
Q 2534 3019 2420 3045 
Q 2306 3072 2169 3072 
Q 1681 3072 1420 2755 
Q 1159 2438 1159 1844 
L 1159 0 
L 581 0 
L 581 3500 
L 1159 3500 
L 1159 2956 
Q 1341 3275 1631 3429 
Q 1922 3584 2338 3584 
Q 2397 3584 2469 3576 
Q 2541 3569 2628 3553 
L 2631 2963 
z
" transform="scale(0.015625)"/>
       <path id="DejaVuSans-61" d="M 2194 1759 
Q 1497 1759 1228 1600 
Q 959 1441 959 1056 
Q 959 750 1161 570 
Q 1363 391 1709 391 
Q 2188 391 2477 730 
Q 2766 1069 2766 1631 
L 2766 1759 
L 2194 1759 
z
M 3341 1997 
L 3341 0 
L 2766 0 
L 2766 531 
Q 2569 213 2275 61 
Q 1981 -91 1556 -91 
Q 1019 -91 701 211 
Q 384 513 384 1019 
Q 384 1609 779 1909 
Q 1175 2209 1959 2209 
L 2766 2209 
L 2766 2266 
Q 2766 2663 2505 2880 
Q 2244 3097 1772 3097 
Q 1472 3097 1187 3025 
Q 903 2953 641 2809 
L 641 3341 
Q 956 3463 1253 3523 
Q 1550 3584 1831 3584 
Q 2591 3584 2966 3190 
Q 3341 2797 3341 1997 
z
" transform="scale(0.015625)"/>
       <path id="DejaVuSans-6c" d="M 603 4863 
L 1178 4863 
L 1178 0 
L 603 0 
L 603 4863 
z
" transform="scale(0.015625)"/>
       <path id="DejaVuSans-7a" d="M 353 3500 
L 3084 3500 
L 3084 2975 
L 922 459 
L 3084 459 
L 3084 0 
L 275 0 
L 275 525 
L 2438 3041 
L 353 3041 
L 353 3500 
z
" transform="scale(0.015625)"/>
       <path id="DejaVuSans-64" d="M 2906 2969 
L 2906 4863 
L 3481 4863 
L 3481 0 
L 2906 0 
L 2906 525 
Q 2725 213 2448 61 
Q 2172 -91 1784 -91 
Q 1150 -91 751 415 
Q 353 922 353 1747 
Q 353 2572 751 3078 
Q 1150 3584 1784 3584 
Q 2172 3584 2448 3432 
Q 2725 3281 2906 2969 
z
M 947 1747 
Q 947 1113 1208 752 
Q 1469 391 1925 391 
Q 2381 391 2643 752 
Q 2906 1113 2906 1747 
Q 2906 2381 2643 2742 
Q 2381 3103 1925 3103 
Q 1469 3103 1208 2742 
Q 947 2381 947 1747 
z
" transform="scale(0.015625)"/>
       <path id="DejaVuSans-49" d="M 628 4666 
L 1259 4666 
L 1259 0 
L 628 0 
L 628 4666 
z
" transform="scale(0.015625)"/>
       <path id="DejaVuSans-73" d="M 2834 3397 
L 2834 2853 
Q 2591 2978 2328 3040 
Q 2066 3103 1784 3103 
Q 1356 3103 1142 2972 
Q 928 2841 928 2578 
Q 928 2378 1081 2264 
Q 1234 2150 1697 2047 
L 1894 2003 
Q 2506 1872 2764 1633 
Q 3022 1394 3022 966 
Q 3022 478 2636 193 
Q 2250 -91 1575 -91 
Q 1294 -91 989 -36 
Q 684 19 347 128 
L 347 722 
Q 666 556 975 473 
Q 1284 391 1588 391 
Q 1994 391 2212 530 
Q 2431 669 2431 922 
Q 2431 1156 2273 1281 
Q 2116 1406 1581 1522 
L 1381 1569 
Q 847 1681 609 1914 
Q 372 2147 372 2553 
Q 372 3047 722 3315 
Q 1072 3584 1716 3584 
Q 2034 3584 2315 3537 
Q 2597 3491 2834 3397 
z
" transform="scale(0.015625)"/>
       <path id="DejaVuSans-79" d="M 2059 -325 
Q 1816 -950 1584 -1140 
Q 1353 -1331 966 -1331 
L 506 -1331 
L 506 -850 
L 844 -850 
Q 1081 -850 1212 -737 
Q 1344 -625 1503 -206 
L 1606 56 
L 191 3500 
L 800 3500 
L 1894 763 
L 2988 3500 
L 3597 3500 
L 2059 -325 
z
" transform="scale(0.015625)"/>
      </defs>
      <use xlink:href="#DejaVuSans-4e"/>
      <use xlink:href="#DejaVuSans-6f" transform="translate(74.804688 0)"/>
      <use xlink:href="#DejaVuSans-72" transform="translate(135.986328 0)"/>
      <use xlink:href="#DejaVuSans-6d" transform="translate(175.349609 0)"/>
      <use xlink:href="#DejaVuSans-61" transform="translate(272.761719 0)"/>
      <use xlink:href="#DejaVuSans-6c" transform="translate(334.041016 0)"/>
      <use xlink:href="#DejaVuSans-69" transform="translate(361.824219 0)"/>
      <use xlink:href="#DejaVuSans-7a" transform="translate(389.607422 0)"/>
      <use xlink:href="#DejaVuSans-65" transform="translate(442.097656 0)"/>
      <use xlink:href="#DejaVuSans-64" transform="translate(503.621094 0)"/>
      <use xlink:href="#DejaVuSans-20" transform="translate(567.097656 0)"/>
      <use xlink:href="#DejaVuSans-49" transform="translate(598.884766 0)"/>
      <use xlink:href="#DejaVuSans-6e" transform="translate(628.376953 0)"/>
      <use xlink:href="#DejaVuSans-74" transform="translate(691.755859 0)"/>
      <use xlink:href="#DejaVuSans-65" transform="translate(730.964844 0)"/>
      <use xlink:href="#DejaVuSans-6e" transform="translate(792.488281 0)"/>
      <use xlink:href="#DejaVuSans-73" transform="translate(855.867188 0)"/>
      <use xlink:href="#DejaVuSans-69" transform="translate(907.966797 0)"/>
      <use xlink:href="#DejaVuSans-74" transform="translate(935.75 0)"/>
      <use xlink:href="#DejaVuSans-79" transform="translate(974.958984 0)"/>
     </g>
    </g>
   </g>
   <g id="line2d_13">
    <path d="M 84.332727 510.217362 
L 89.222574 510.333307 
L 95.334882 510.605391 
L 121.006578 510.974848 
L 135.676118 510.805673 
L 136.898579 510.651128 
L 138.121041 510.274555 
L 139.343503 509.414216 
L 140.565964 507.761271 
L 141.788426 505.150347 
L 145.455811 494.983059 
L 146.678273 492.907985 
L 147.900735 492.038664 
L 149.123196 492.125212 
L 152.790581 493.99961 
L 154.013043 494.259754 
L 155.235505 494.223285 
L 156.457966 493.947871 
L 158.90289 492.959557 
L 161.347813 491.694351 
L 162.570275 490.899735 
L 163.792736 489.929825 
L 165.015198 488.685878 
L 166.23766 486.917429 
L 167.460121 484.489498 
L 169.905045 479.174672 
L 171.127506 477.42995 
L 172.349968 476.648834 
L 173.57243 476.651449 
L 174.794891 477.112208 
L 176.017353 477.817927 
L 177.239815 478.771805 
L 178.462277 480.08849 
L 182.129662 485.078036 
L 183.352123 484.68246 
L 184.574585 481.917709 
L 185.797047 478.363069 
L 187.019508 476.947464 
L 188.24197 478.999683 
L 189.464432 482.88769 
L 190.686893 485.876225 
L 191.909355 486.734654 
L 194.354278 485.818181 
L 195.57674 486.245435 
L 196.799202 487.496122 
L 199.244125 490.736853 
L 200.466587 491.927892 
L 201.689048 492.566267 
L 204.133972 493.068456 
L 205.356433 493.65633 
L 206.578895 494.627602 
L 210.24628 498.027453 
L 212.691204 499.951424 
L 213.913665 500.782067 
L 215.136127 501.409368 
L 216.358589 501.639209 
L 217.58105 501.158831 
L 218.803512 499.694129 
L 221.248435 494.981506 
L 222.470897 493.451018 
L 223.693359 493.344235 
L 224.91582 494.492743 
L 227.360744 497.88299 
L 228.583205 498.883837 
L 229.805667 498.934416 
L 231.028129 497.856413 
L 232.25059 495.582427 
L 233.473052 492.244317 
L 235.917975 484.412384 
L 237.140437 481.447584 
L 238.362899 480.003285 
L 239.58536 480.309452 
L 240.807822 482.179145 
L 242.030284 485.12567 
L 244.475207 491.857652 
L 245.697669 494.668079 
L 246.920131 496.743487 
L 248.142592 498.015317 
L 249.365054 498.557199 
L 250.587516 498.584191 
L 253.032439 498.308057 
L 254.254901 498.402978 
L 256.699824 498.744831 
L 257.922286 498.611474 
L 259.144747 498.143243 
L 261.589671 496.800477 
L 262.812132 496.423063 
L 264.034594 496.313416 
L 265.257056 496.083568 
L 266.479517 495.084604 
L 267.701979 492.870079 
L 270.146902 486.823727 
L 271.369364 485.302973 
L 272.591826 485.646145 
L 275.036749 488.727321 
L 276.259211 488.197286 
L 277.481672 483.614354 
L 278.704134 473.04895 
L 279.926596 455.323289 
L 281.149058 430.813061 
L 283.593981 372.76356 
L 284.816443 348.137509 
L 286.038904 331.97564 
L 287.261366 326.103509 
L 288.483828 329.735601 
L 289.706289 340.114188 
L 290.928751 354.20001 
L 293.373674 387.399614 
L 295.818598 421.693515 
L 297.041059 435.866126 
L 298.263521 447.111627 
L 299.485983 455.877116 
L 300.708444 462.832987 
L 301.930906 468.398989 
L 303.153368 472.748814 
L 304.375829 476.01422 
L 305.598291 478.418058 
L 306.820753 480.200656 
L 308.043214 480.754779 
L 309.265676 476.270419 
L 310.488138 459.138851 
L 311.710599 424.932553 
L 312.933061 381.903609 
L 314.155523 348.605379 
L 315.377985 339.454084 
L 316.600446 354.428874 
L 319.04537 409.635174 
L 320.267831 430.349966 
L 321.490293 443.993352 
L 322.712755 453.276722 
L 323.935216 460.485877 
L 325.157678 466.33773 
L 326.38014 470.53275 
L 327.602601 472.752275 
L 328.825063 473.166649 
L 330.047525 472.215732 
L 331.269986 470.1762 
L 332.492448 467.165939 
L 333.71491 463.668292 
L 334.937371 460.908211 
L 336.159833 460.263398 
L 337.382295 462.083982 
L 339.827218 468.690936 
L 341.04968 471.3313 
L 342.272141 473.169557 
L 343.494603 474.006782 
L 344.717065 473.401604 
L 347.161988 469.268222 
L 348.38445 468.304413 
L 349.606912 468.587018 
L 350.829373 468.285164 
L 352.051835 465.458116 
L 353.274297 460.460445 
L 354.496758 456.018303 
L 355.71922 454.760361 
L 356.941682 457.111837 
L 359.386605 465.725605 
L 360.609067 468.360918 
L 361.831528 468.853817 
L 363.05399 467.644583 
L 364.276452 465.896849 
L 365.498913 464.89438 
L 366.721375 465.337696 
L 367.943837 467.076136 
L 369.166298 469.383301 
L 370.38876 471.396808 
L 371.611222 472.456204 
L 372.833683 472.351863 
L 374.056145 471.37863 
L 376.501068 468.742463 
L 377.72353 467.772383 
L 378.945992 467.417804 
L 380.168453 467.770137 
L 381.390915 468.647736 
L 382.613377 469.825167 
L 385.0583 472.546599 
L 386.280762 473.404795 
L 387.503224 473.241945 
L 388.725685 471.986917 
L 389.948147 469.708297 
L 391.170609 465.440018 
L 392.39307 456.407174 
L 393.615532 439.614938 
L 396.060455 394.224291 
L 397.282917 383.347873 
L 398.505379 387.758974 
L 399.72784 403.549583 
L 400.950302 422.994385 
L 402.172764 439.888069 
L 403.395225 451.824299 
L 404.617687 459.293388 
L 405.840149 463.74894 
L 407.06261 466.405702 
L 408.285072 467.997 
L 409.507534 468.879606 
L 410.729995 469.132619 
L 411.952457 468.721195 
L 414.39738 466.702753 
L 415.619842 466.122735 
L 416.842304 466.337095 
L 419.287227 467.893019 
L 420.509689 467.932865 
L 421.732151 466.989037 
L 422.954612 465.45142 
L 424.177074 464.094178 
L 425.399536 463.467539 
L 426.621997 463.522347 
L 427.844459 463.696649 
L 429.066921 463.240483 
L 430.289382 461.451384 
L 431.511844 457.594003 
L 432.734306 451.120119 
L 435.179229 434.718233 
L 436.401691 429.64423 
L 437.624152 428.430211 
L 438.846614 429.996018 
L 440.069076 432.117276 
L 441.291537 432.770688 
L 442.513999 431.184314 
L 443.736461 427.963751 
L 444.958922 424.343471 
L 446.181384 421.335 
L 447.403846 419.324704 
L 448.626307 418.007088 
L 449.848769 416.293151 
L 451.071231 412.094421 
L 452.293693 402.69638 
L 453.516154 386.77409 
L 454.738616 367.073246 
L 455.961078 350.455788 
L 457.183539 344.045873 
L 458.406001 350.70265 
L 459.628463 367.391287 
L 460.850924 386.687874 
L 462.073386 400.64715 
L 463.295848 405.976975 
L 465.740771 405.967288 
L 466.963233 406.269457 
L 468.185694 402.58402 
L 469.408156 392.534447 
L 470.630618 380.760452 
L 471.853079 375.843682 
L 473.075541 382.969693 
L 474.298003 400.502371 
L 476.742926 443.094367 
L 477.965388 458.90337 
L 479.187849 469.227982 
L 480.410311 475.03869 
L 481.632773 477.843977 
L 482.855234 478.688016 
L 484.077696 477.712505 
L 485.300158 474.874309 
L 486.52262 471.093928 
L 487.745081 468.186062 
L 488.967543 467.508267 
L 490.190005 468.862975 
L 491.412466 470.704615 
L 492.634928 471.401382 
L 493.85739 470.429838 
L 495.079851 468.580842 
L 496.302313 467.250712 
L 497.524775 467.529326 
L 498.747236 469.691482 
L 499.969698 473.204523 
L 501.19216 477.077179 
L 502.414621 480.384758 
L 503.637083 482.711735 
L 504.859545 484.198973 
L 506.082006 485.184175 
L 507.304468 485.814348 
L 508.52693 486.010248 
L 509.749391 485.712192 
L 513.416776 483.717202 
L 514.639238 483.543487 
L 515.8617 483.754406 
L 517.084161 484.293028 
L 518.306623 485.160697 
L 520.751547 487.655416 
L 521.974008 488.856905 
L 523.19647 489.651163 
L 524.418932 489.79949 
L 525.641393 489.180527 
L 526.863855 487.867044 
L 529.308778 484.685158 
L 530.53124 483.92936 
L 531.753702 484.158761 
L 532.976163 485.157949 
L 534.198625 486.440819 
L 535.421087 487.549806 
L 536.643548 488.234034 
L 537.86601 488.460169 
L 539.088472 488.344544 
L 541.533395 487.928818 
L 543.978318 487.742393 
L 545.20078 487.300447 
L 547.645703 486.068371 
L 548.868165 485.978363 
L 550.090627 486.38717 
L 552.53555 487.637487 
L 553.758012 487.930342 
L 554.980474 487.826207 
L 556.202935 487.30301 
L 557.425397 486.297521 
L 558.647859 484.571238 
L 559.87032 481.747115 
L 561.092782 477.572322 
L 562.315244 472.099016 
L 565.982629 452.109639 
L 567.20509 446.999422 
L 568.427552 444.292645 
L 569.650014 444.827138 
L 570.872475 449.16925 
L 572.094937 457.018067 
L 574.53986 476.058501 
L 575.762322 482.800831 
L 576.984784 486.461796 
L 578.207245 488.084365 
L 579.429707 489.302693 
L 580.652169 491.157835 
L 584.319554 498.846328 
L 585.542015 500.65516 
L 586.764477 501.835177 
L 587.986939 502.497404 
L 589.209401 502.813725 
L 590.431862 502.920759 
L 591.654324 502.832155 
L 592.876786 502.446866 
L 594.099247 501.698494 
L 596.544171 499.823219 
L 597.766632 499.421005 
L 598.989094 499.75061 
L 600.211556 500.743595 
L 602.656479 503.314422 
L 603.878941 504.26309 
L 605.101402 504.87327 
L 606.323864 505.235369 
L 608.768787 505.566865 
L 617.326019 506.043178 
L 619.770942 506.159163 
L 620.993404 505.900786 
L 622.215866 505.266818 
L 624.660789 503.493158 
L 625.883251 503.056033 
L 627.105713 503.158403 
L 629.550636 503.884139 
L 630.773098 503.805709 
L 633.218021 502.995517 
L 634.440483 502.838716 
L 635.662944 502.967638 
L 636.885406 503.293229 
L 640.552791 504.57175 
L 641.775253 504.613089 
L 644.220176 504.041395 
L 645.442638 503.97908 
L 646.665099 504.275124 
L 647.887561 504.848296 
L 651.554946 506.843758 
L 652.777408 507.314737 
L 653.999869 507.649909 
L 655.222331 507.839451 
L 656.444793 507.820251 
L 657.667255 507.48969 
L 661.33464 505.534841 
L 662.557101 505.497537 
L 663.779563 505.937021 
L 667.446948 507.904917 
L 668.66941 508.278664 
L 671.114333 508.611864 
L 674.781718 508.791801 
L 676.00418 508.776368 
L 677.226641 508.365667 
L 678.449103 506.195264 
L 679.671565 499.048852 
L 680.894026 483.041763 
L 683.33895 430.628146 
L 684.561411 412.121201 
L 685.783873 409.841118 
L 687.006335 422.900812 
L 689.451258 465.741144 
L 690.67372 482.596835 
L 691.896182 493.467844 
L 693.118643 499.456244 
L 694.341105 502.419714 
L 695.563567 503.908852 
L 696.786028 504.789297 
L 698.00849 505.321041 
L 699.230952 505.466146 
L 700.453413 505.237592 
L 701.675875 504.873548 
L 702.898337 504.72425 
L 704.120798 505.005711 
L 705.34326 505.681759 
L 707.788183 507.36799 
L 709.010645 508.017525 
L 710.233107 508.464035 
L 712.67803 508.936562 
L 718.790338 509.569839 
L 722.457723 509.784644 
L 732.237417 510.002127 
L 739.572187 509.984048 
L 750.574342 510.25324 
L 755.464189 510.40923 
L 779.913422 510.452261 
L 784.803269 510.394875 
L 793.360501 510.517009 
L 810.474964 510.603504 
L 816.587273 510.62672 
L 816.587273 510.62672 
" clip-path="url(#p71329fcc5d)" style="fill: none; stroke: #0000ff; stroke-width: 1.5; stroke-linecap: square"/>
   </g>
   <g id="line2d_14">
    <path d="M 308.566184 231.405252 
L 308.916052 231.38036 
L 309.265676 230.957943 
L 309.618479 231.240112 
L 309.618479 229.504327 
L 310.319194 228.846793 
L 311.020398 228.016516 
L 311.727714 227.780733 
L 312.079783 229.617367 
L 313.484147 230.303149 
L 313.833771 230.823605 
L 324.247922 230.378655 
L 324.596813 230.212809 
L 324.945703 229.329735 
L 325.295327 228.832178 
L 325.644951 228.870744 
L 325.644951 228.488057 
L 325.993842 227.959732 
L 325.993842 226.63054 
L 326.34151 226.03837 
L 326.34151 223.931897 
L 326.691623 222.839213 
L 326.691623 222.107234 
L 327.04687 222.963458 
L 327.04687 221.890237 
L 327.396983 221.33612 
L 327.396983 221.869129 
L 327.747096 219.641555 
L 328.097454 219.124273 
L 328.097454 219.839132 
L 328.4483 218.683121 
L 328.4483 219.720398 
L 328.799636 219.069032 
L 328.799636 221.174988 
L 329.151705 220.790282 
L 329.151705 222.295496 
L 329.858043 218.424287 
L 330.561448 210.901645 
L 330.561448 212.959402 
L 330.913517 210.754806 
L 330.913517 213.161703 
L 331.265341 206.930162 
L 331.265341 210.413324 
L 331.617165 202.938502 
L 331.617165 207.20933 
L 331.97388 200.128717 
L 331.97388 205.609122 
L 332.325704 199.380952 
L 332.325704 205.973596 
L 332.677773 198.725161 
L 332.677773 205.278303 
L 333.029109 198.117415 
L 333.029109 204.888937 
L 333.381178 198.803854 
L 333.381178 206.642396 
L 333.732513 199.345583 
L 333.732513 207.69159 
L 334.084582 200.76393 
L 334.084582 207.193374 
L 334.436651 200.774862 
L 334.436651 208.976355 
L 334.788476 204.681802 
L 334.788476 212.834885 
L 335.1403 210.51757 
L 335.1403 217.252125 
L 335.492369 211.744725 
L 335.492369 215.86381 
L 335.844438 211.54595 
L 336.195284 212.220603 
L 336.195284 213.605754 
L 336.547353 215.858185 
L 336.547353 217.021063 
L 336.904312 218.598915 
L 337.958074 220.301872 
L 337.958074 223.828541 
L 338.30941 221.531077 
L 338.30941 225.647355 
L 338.662701 222.911762 
L 339.01477 223.197199 
L 339.366595 221.28294 
L 339.721842 222.153684 
L 339.721842 221.659246 
L 340.072933 222.524232 
L 340.072933 224.961948 
L 340.425246 224.824959 
L 340.425246 225.654842 
L 340.778049 224.981929 
L 340.778049 226.203086 
L 341.131096 224.676452 
L 341.131096 225.829689 
L 341.484143 224.931321 
L 341.842079 225.582134 
L 341.842079 223.58606 
L 342.195126 220.81922 
L 342.547684 220.455946 
L 342.547684 216.408089 
L 342.547684 216.983377 
L 342.900731 219.570236 
L 342.900731 218.093488 
L 343.252556 218.632739 
L 343.252556 218.01813 
L 343.605603 216.747841 
L 343.605603 211.914555 
L 343.957916 216.999642 
L 343.957916 211.904085 
L 344.310719 217.362407 
L 344.310719 211.743158 
L 344.663032 215.208727 
L 344.663032 210.517836 
L 345.01559 215.70517 
L 345.01559 210.605763 
L 345.367659 216.016033 
L 345.367659 211.31838 
L 345.72095 216.11714 
L 345.72095 211.341728 
L 346.074242 215.230773 
L 346.074242 212.514876 
L 346.427044 218.7733 
L 346.427044 215.603776 
L 346.785714 219.879229 
L 346.785714 217.546457 
L 347.138761 219.354319 
L 347.138761 216.462196 
L 347.492053 218.841328 
L 347.492053 216.072083 
L 347.8451 219.889433 
L 347.8451 218.428725 
L 348.198147 220.277109 
L 348.198147 217.907712 
L 348.551438 220.981621 
L 348.551438 218.803825 
L 348.904485 221.042064 
L 348.904485 218.798203 
L 349.257776 221.019028 
L 349.257776 219.357598 
L 349.611312 220.771851 
L 349.611312 220.379524 
L 350.322296 224.898345 
L 350.322296 224.604031 
L 350.675832 226.111142 
L 350.675832 225.207545 
L 351.029123 226.614397 
L 351.029123 224.400212 
L 351.382904 224.857101 
L 351.382904 223.495103 
L 351.743775 224.935497 
L 352.097799 224.547158 
L 352.452069 226.91436 
L 352.806338 227.582992 
L 353.159874 227.213051 
L 353.514144 228.042197 
L 353.514144 227.640383 
L 353.868168 227.337868 
L 354.221704 227.542515 
L 354.221704 227.370442 
L 354.575485 227.462048 
L 354.929021 228.007966 
L 355.634381 230.065413 
L 355.985961 230.547255 
L 356.33803 230.782187 
L 356.695967 230.52366 
L 356.695967 230.766279 
L 357.75144 231.525954 
L 360.223013 231.544387 
L 360.929107 231.858706 
L 361.282643 231.658494 
L 361.641802 231.731176 
L 361.995338 231.686354 
L 367.295932 231.983323 
L 371.174558 231.857006 
L 371.532495 231.253419 
L 372.238345 230.975592 
L 372.591392 231.125897 
L 372.944927 231.118597 
L 374.00578 231.516073 
L 374.712118 231.56544 
L 375.420412 231.752655 
L 376.486888 231.758907 
L 376.839446 231.287369 
L 377.193471 230.616487 
L 377.900054 227.418673 
L 377.900054 227.24532 
L 378.609815 227.678606 
L 378.962373 228.451367 
L 378.962373 229.900513 
L 380.020291 231.027462 
L 380.020291 231.284836 
L 380.724185 231.235009 
L 381.433946 230.950653 
L 381.433946 231.531187 
L 381.785526 230.964354 
L 382.491131 230.784918 
L 382.8432 231.333725 
L 383.195513 231.139173 
L 383.548316 231.626533 
L 383.901362 231.32724 
L 384.254409 230.647455 
L 384.607212 230.625333 
L 384.607212 229.389527 
L 384.960259 228.643036 
L 385.313795 229.011006 
L 385.313795 229.788433 
L 385.666842 229.152087 
L 386.020378 230.39382 
L 386.377825 229.833518 
L 386.377825 228.913959 
L 386.734295 228.891945 
L 386.734295 228.430744 
L 387.087587 228.293541 
L 387.441611 228.448296 
L 387.441611 225.896828 
L 388.148683 221.856601 
L 388.148683 220.108242 
L 388.502219 217.465814 
L 388.502219 219.923793 
L 388.857711 216.606579 
L 388.857711 217.234381 
L 389.211492 211.872395 
L 389.211492 209.835819 
L 389.565761 200.770169 
L 390.274055 161.54592 
L 390.274055 167.315545 
L 390.981127 112.746037 
L 390.981127 126.601813 
L 391.339553 91.908738 
L 391.339553 112.770179 
L 391.6926 76.394356 
L 391.6926 98.854806 
L 392.045402 67.596875 
L 392.045402 94.064134 
L 392.39796 59.273708 
L 392.39796 92.84353 
L 392.750274 53.371531 
L 392.750274 80.168482 
L 393.102098 49.932727 
L 393.102098 83.82398 
L 393.4549 54.528003 
L 393.4549 93.611433 
L 393.807458 71.116435 
L 393.807458 102.703789 
L 394.160261 76.308172 
L 394.160261 109.727248 
L 394.513063 87.198731 
L 394.513063 116.910899 
L 394.86611 99.060154 
L 394.86611 129.31339 
L 395.218913 110.803123 
L 395.218913 137.570248 
L 395.572449 119.353189 
L 395.572449 141.928098 
L 395.925251 130.692953 
L 395.925251 152.499002 
L 396.283188 139.485751 
L 396.283188 161.676857 
L 396.638435 149.288304 
L 396.638435 164.689252 
L 396.989771 150.903629 
L 396.989771 168.918323 
L 397.340617 158.157429 
L 397.340617 175.814332 
L 397.689997 169.179482 
L 397.689997 186.442762 
L 398.038643 178.717324 
L 398.038643 191.762498 
L 398.386555 185.312886 
L 398.386555 196.217378 
L 398.734468 184.882736 
L 398.734468 196.056771 
L 399.081892 189.593535 
L 399.081892 197.288901 
L 399.42956 187.304036 
L 399.42956 201.469326 
L 399.776983 194.473163 
L 399.776983 203.388942 
L 400.124407 196.516478 
L 400.124407 207.905001 
L 400.471831 200.531881 
L 400.471831 206.219916 
L 400.819743 199.420321 
L 400.819743 207.843086 
L 401.173524 202.306653 
L 401.173524 209.069568 
L 401.522659 206.245968 
L 401.872038 207.475878 
L 402.222151 202.747523 
L 402.222151 209.067225 
L 402.574954 205.129412 
L 402.574954 210.52667 
L 402.926289 213.57636 
L 402.926289 218.745682 
L 403.27738 213.580508 
L 403.627982 213.799394 
L 403.627982 212.480045 
L 403.979318 210.74087 
L 403.979318 210.981975 
L 404.330653 211.238709 
L 404.330653 215.635718 
L 404.682967 213.265525 
L 404.682967 219.215211 
L 405.034791 216.890491 
L 405.034791 222.261486 
L 405.387104 219.587313 
L 405.387104 223.188344 
L 405.739418 219.208953 
L 405.739418 222.101288 
L 406.097355 219.313581 
L 406.097355 222.167932 
L 406.449913 218.732799 
L 406.449913 222.402033 
L 406.806382 220.556559 
L 406.806382 222.700572 
L 407.159918 221.231248 
L 407.159918 224.292199 
L 407.513699 222.874611 
L 407.513699 223.740865 
L 407.867235 222.170183 
L 407.867235 223.383949 
L 408.222727 221.14551 
L 408.222727 221.63242 
L 408.930776 218.425723 
L 408.930776 218.885361 
L 409.284557 217.950981 
L 409.284557 217.495927 
L 409.639315 216.176387 
L 409.639315 215.330306 
L 409.993585 215.073763 
L 409.993585 214.273603 
L 410.347854 215.191227 
L 410.347854 213.834763 
L 410.70139 215.933629 
L 410.70139 213.778493 
L 411.061283 215.285062 
L 411.061283 211.909481 
L 411.415307 215.511494 
L 411.415307 210.921064 
L 411.77031 214.346947 
L 411.77031 211.476067 
L 412.125313 215.35645 
L 412.125313 211.503709 
L 412.479827 216.202192 
L 412.479827 212.247699 
L 412.833363 215.041726 
L 412.833363 212.040585 
L 413.188855 215.873805 
L 413.188855 213.250592 
L 413.543858 217.100187 
L 413.543858 214.302702 
L 413.899105 217.210812 
L 413.899105 215.247058 
L 414.253619 217.389244 
L 414.253619 216.48334 
L 414.608377 220.12912 
L 414.608377 219.372188 
L 414.962891 220.97421 
L 414.962891 220.129276 
L 415.316916 220.802152 
L 415.316916 219.718788 
L 415.671186 221.048233 
L 415.671186 219.793237 
L 416.031567 220.88055 
L 416.031567 220.224888 
L 416.387059 220.308361 
L 416.387059 218.169632 
L 416.741573 219.870366 
L 416.741573 219.127454 
L 417.10171 220.087272 
L 417.10171 219.425303 
L 417.456224 221.267794 
L 417.456224 221.185333 
L 417.810982 221.414585 
L 417.810982 220.702637 
L 418.165496 222.478956 
L 418.165496 222.445193 
L 418.520255 223.015102 
L 418.875502 225.333528 
L 418.875502 224.982521 
L 419.231238 225.672965 
L 419.585508 226.995792 
L 419.585508 225.077062 
L 419.940511 225.18375 
L 419.940511 223.523603 
L 420.296003 223.669163 
L 420.296003 223.006149 
L 420.651005 224.16953 
L 420.651005 223.213337 
L 421.012365 223.961068 
L 421.367368 223.719846 
L 421.367368 224.205537 
L 421.723349 224.457124 
L 421.723349 225.686277 
L 422.078596 227.874691 
L 422.078596 227.732333 
L 422.433844 228.081105 
L 422.433844 226.934194 
L 422.790069 227.319586 
L 422.790069 225.960898 
L 423.145805 226.802087 
L 423.145805 227.477001 
L 423.501297 229.184676 
L 423.8563 229.771913 
L 424.211547 230.107527 
L 424.211547 228.832489 
L 424.56655 227.695504 
L 424.921553 227.000292 
L 425.276311 227.456527 
L 425.276311 228.661007 
L 425.631314 228.512931 
L 425.991207 227.928335 
L 426.345476 228.393229 
L 426.345476 228.154123 
L 426.69999 228.427865 
L 427.057683 229.197377 
L 427.412196 230.44296 
L 427.412196 229.71375 
L 427.766955 229.559294 
L 427.766955 229.437087 
L 428.122447 230.089628 
L 428.476961 230.010441 
L 428.476961 230.371662 
L 428.830986 231.442394 
L 429.185988 231.287652 
L 429.540502 231.650051 
L 429.540502 231.263145 
L 430.248552 231.28782 
L 430.602088 231.050599 
L 431.316006 231.161515 
L 432.023566 230.907363 
L 432.377836 230.291494 
L 433.085641 230.386789 
L 433.085641 230.582281 
L 433.439422 229.80684 
L 434.147227 230.074483 
L 434.501252 230.551846 
L 435.208324 230.349216 
L 435.561371 229.467557 
L 435.920774 229.841431 
L 436.62589 229.498753 
L 437.327094 225.633285 
L 437.676229 225.00568 
L 437.676229 221.213996 
L 438.025853 218.237518 
L 438.375477 216.850823 
L 439.075214 212.124899 
L 439.425083 213.332551 
L 439.775685 212.362498 
L 440.126531 215.927782 
L 440.126531 218.679999 
L 440.478111 219.64597 
L 440.834826 222.489238 
L 440.834826 225.408839 
L 441.186895 224.01197 
L 441.539208 224.773008 
L 441.891522 227.431604 
L 441.891522 226.721232 
L 442.244324 228.274533 
L 442.244324 228.085656 
L 442.598349 228.378507 
L 442.951396 226.888603 
L 443.305176 227.520517 
L 443.305176 226.361872 
L 443.659446 228.107044 
L 443.659446 228.843008 
L 444.01396 229.619231 
L 444.368718 229.611985 
L 444.368718 230.503127 
L 444.723721 230.517495 
L 445.078724 230.802549 
L 445.437638 230.902997 
L 446.15229 230.388049 
L 447.219988 229.712286 
L 447.93146 229.912947 
L 448.286952 229.647581 
L 448.642688 230.386442 
L 448.998669 230.709804 
L 449.711609 229.691188 
L 450.424549 229.736278 
L 450.424549 229.888248 
L 450.786153 229.725193 
L 450.786153 230.174004 
L 451.142134 231.165097 
L 451.498114 231.010547 
L 452.568746 231.307141 
L 453.639623 231.379985 
L 453.996337 231.001267 
L 453.996337 231.052578 
L 454.35354 231.509214 
L 455.071614 230.85947 
L 455.427106 230.834373 
L 455.427106 231.276483 
L 455.78871 231.124666 
L 455.78871 230.574855 
L 456.855675 230.670485 
L 456.855675 230.851353 
L 457.2119 230.908968 
L 457.568126 230.719188 
L 457.925329 231.891379 
L 458.638024 231.925376 
L 458.994494 231.781374 
L 460.422329 231.839387 
L 460.7854 231.155019 
L 461.142604 231.143099 
L 461.142604 231.360304 
L 461.85701 231.234646 
L 462.571906 232.17125 
L 463.288268 231.279655 
L 463.646694 231.250858 
L 463.646694 231.316381 
L 464.004142 231.421131 
L 464.004142 231.408789 
L 464.366969 231.352885 
L 464.723927 230.53517 
L 464.723927 229.968024 
L 465.081131 229.448894 
L 465.436867 228.481196 
L 465.436867 226.342696 
L 465.798227 224.589989 
L 466.152496 224.662467 
L 466.152496 222.290336 
L 466.505788 218.32243 
L 466.858345 220.626039 
L 466.858345 221.513681 
L 467.210414 217.760582 
L 467.562239 220.698676 
L 467.562239 220.495063 
L 467.914063 218.948011 
L 467.914063 215.77423 
L 468.265154 216.397806 
L 468.616245 210.779953 
L 468.968314 211.94418 
L 469.320139 211.302935 
L 470.026233 216.632482 
L 470.379769 221.750341 
L 470.379769 221.735676 
L 470.737705 221.924885 
L 471.090752 224.152521 
L 471.090752 221.599725 
L 471.444044 217.564682 
L 471.796602 217.489005 
L 472.149649 219.615901 
L 472.149649 218.304854 
L 472.507341 220.27108 
L 472.860632 223.297135 
L 473.214168 224.333877 
L 473.214168 223.571201 
L 473.567215 222.829026 
L 474.273553 222.448174 
L 474.627578 223.79958 
L 474.98087 222.521587 
L 475.334895 222.995183 
L 475.694298 222.90122 
L 476.04979 224.91582 
L 476.04979 225.95047 
L 476.404549 227.987192 
L 477.113821 229.935307 
L 477.468579 229.752706 
L 477.468579 230.534538 
L 477.823827 230.171947 
L 478.179074 230.397647 
L 478.890791 229.487535 
L 479.246039 229.374753 
L 479.601286 229.0679 
L 479.957756 229.392971 
L 480.327428 230.032819 
L 480.327428 230.634319 
L 480.689766 230.799925 
L 481.046236 231.450694 
L 481.046236 231.295779 
L 481.403439 231.651229 
L 482.118824 231.150292 
L 482.834942 229.21475 
L 483.193367 229.238191 
L 483.193367 227.746592 
L 483.55106 227.333062 
L 483.909485 228.781012 
L 483.909485 229.678496 
L 484.267422 228.496954 
L 484.625848 230.690574 
L 484.983785 229.999706 
L 485.342211 230.069849 
L 485.342211 230.030076 
L 485.706993 229.625722 
L 486.065419 229.971522 
L 486.424334 230.689471 
L 486.78227 230.734123 
L 486.78227 231.440254 
L 487.141674 231.782403 
L 487.857303 230.084442 
L 488.21524 229.502351 
L 488.572688 229.540528 
L 488.929647 229.447648 
L 489.285872 229.960922 
L 489.641364 230.038917 
L 490.00908 229.470787 
L 490.364083 229.919695 
L 490.364083 228.791885 
L 490.725198 228.99641 
L 491.08069 228.969133 
L 491.436426 230.023169 
L 491.794608 230.030362 
L 492.149611 231.088215 
L 493.574267 231.680267 
L 494.288185 231.580879 
L 498.568757 232.04126 
L 500.343282 231.986733 
L 501.769406 231.752425 
L 505.707933 231.763158 
L 506.785411 231.893806 
L 507.144326 232.27736 
L 508.221803 232.404075 
L 508.221803 232.179739 
L 508.582185 232.237711 
L 508.941833 232.159388 
L 509.302215 232.197514 
L 510.384094 232.17555 
L 510.749365 232.38277 
L 513.631441 232.445015 
L 517.600285 232.496797 
L 523.021169 232.435936 
L 525.928672 232.684588 
L 529.193867 232.769216 
L 531.0058 232.694193 
L 532.44317 232.507819 
L 532.801596 232.281943 
L 536.762372 232.198519 
L 537.484357 232.299399 
L 538.569659 232.327951 
L 541.475939 232.577906 
L 560.355393 232.512116 
L 562.903003 232.753608 
L 565.441323 232.616499 
L 579.899377 232.732045 
L 595.161811 232.735526 
L 596.9801 232.294848 
L 597.705265 232.285021 
L 598.067847 231.571333 
L 598.430429 231.473733 
L 599.518175 231.31517 
L 599.884425 230.732799 
L 603.15451 230.8663 
L 604.604594 231.192302 
L 606.055656 231.293276 
L 606.418238 231.69328 
L 606.78082 232.333201 
L 608.962914 232.197481 
L 610.053595 232.570756 
L 610.416421 232.531476 
L 610.416421 232.570235 
L 614.773275 232.80565 
L 619.133795 232.726332 
L 623.852742 232.822071 
L 652.53096 232.738299 
L 653.986667 232.121423 
L 659.435179 232.082667 
L 660.885507 232.219809 
L 674.323539 232.326943 
L 677.590201 232.605965 
L 678.320745 232.433241 
L 679.047376 232.393747 
L 679.047376 232.4539 
L 679.410202 232.587432 
L 679.772785 232.529958 
L 679.772785 232.664022 
L 680.860286 232.684364 
L 681.585695 232.395765 
L 682.310859 232.396191 
L 682.673442 232.038853 
L 683.766567 232.021027 
L 684.490998 231.5922 
L 685.212006 231.595425 
L 685.212006 230.877468 
L 685.577766 231.189378 
L 685.932769 231.166225 
L 685.932769 229.737447 
L 686.28875 229.074994 
L 686.28875 229.112257 
L 686.643264 228.165707 
L 686.643264 227.392732 
L 687.351802 227.821186 
L 687.705827 227.329403 
L 688.058141 227.495706 
L 688.774014 226.199043 
L 689.129017 227.148303 
L 689.129017 226.222225 
L 689.486221 226.989073 
L 689.486221 227.795821 
L 689.843668 229.284534 
L 689.843668 228.231799 
L 690.202339 230.018956 
L 690.202339 229.063956 
L 690.562231 228.8293 
L 690.923102 228.887639 
L 690.923102 229.566935 
L 691.284217 229.835684 
L 691.284217 230.071037 
L 691.64631 231.283593 
L 691.64631 230.432668 
L 692.007181 230.610303 
L 692.007181 230.27908 
L 692.370008 230.916262 
L 692.370008 230.222008 
L 692.732345 230.634891 
L 693.094927 230.202539 
L 693.825471 230.503984 
L 694.187808 230.411548 
L 694.914684 231.047344 
L 696.731017 231.141635 
L 697.0936 231.868311 
L 698.18159 232.038798 
L 698.911889 232.281633 
L 699.999635 232.340323 
L 701.457299 232.680533 
L 702.544801 232.502129 
L 703.270209 232.580765 
L 704.725917 232.540907 
L 707.630241 232.718549 
L 707.992823 232.533102 
L 710.898859 232.001724 
L 711.261441 232.099557 
L 711.624024 231.836235 
L 713.43669 231.856002 
L 713.43669 232.100178 
L 714.892397 232.591538 
L 717.071068 232.512902 
L 717.43365 232.815105 
L 717.796477 232.507534 
L 719.614522 232.521755 
L 719.977104 231.965198 
L 721.427433 231.889382 
L 721.427433 232.244339 
L 722.152597 232.06404 
L 723.602926 232.025502 
L 724.333469 231.986177 
L 724.696051 232.187458 
L 725.783797 232.128291 
L 726.508961 232.266171 
L 727.237549 231.873302 
L 727.962713 232.1342 
L 729.055838 232.290765 
L 729.781002 232.093799 
L 729.781002 232.525677 
L 730.145051 232.722941 
L 731.957962 232.747486 
L 732.320544 232.537533 
L 732.683126 232.518111 
L 733.045709 232.146521 
L 733.770873 232.029477 
L 733.770873 231.585066 
L 735.230003 231.67705 
L 735.230003 231.911922 
L 736.680332 231.75347 
L 737.407696 232.30956 
L 737.770278 232.367812 
L 738.495443 232.228705 
L 739.225986 232.326866 
L 739.588568 232.641696 
L 741.039141 232.410884 
L 741.039141 232.201921 
L 741.401479 232.241196 
L 741.764061 231.556811 
L 743.214634 231.832707 
L 743.577216 231.761313 
L 744.307759 231.761348 
L 744.671808 232.301898 
L 745.037813 232.124095 
L 745.763222 232.14372 
L 746.125804 232.365977 
L 746.125804 232.170391 
L 746.488386 231.969207 
L 746.850968 232.185777 
L 748.301297 231.969475 
L 748.663879 232.165026 
L 749.394422 232.31352 
L 749.757004 232.273776 
L 750.119831 232.063705 
L 751.207577 232.062913 
L 751.207577 232.160108 
L 751.570159 232.2511 
L 752.296302 231.950071 
L 752.658884 232.316812 
L 753.74663 232.218582 
L 753.74663 232.4213 
L 754.480596 232.222481 
L 755.20576 232.183289 
L 755.568587 231.993277 
L 755.931169 232.301795 
L 756.656333 232.373661 
L 757.018916 231.686208 
L 757.018916 231.71928 
L 757.744324 231.895082 
L 758.106906 231.671265 
L 759.562858 231.852225 
L 759.925685 231.772734 
L 759.925685 231.811233 
L 761.013431 232.013606 
L 762.826342 232.673247 
L 763.917267 232.710186 
L 765.010637 232.373216 
L 767.912761 232.454057 
L 768.637925 232.434418 
L 769.73105 232.203183 
L 770.819285 232.396167 
L 770.819285 232.646055 
L 771.181868 232.4647 
L 771.181868 232.484007 
L 772.995023 232.32566 
L 773.357605 232.604765 
L 773.723365 232.625623 
L 774.085703 232.454045 
L 774.085703 232.531947 
L 775.179317 231.498311 
L 775.541899 231.53733 
L 776.992228 231.807464 
L 777.35481 231.347423 
L 778.079974 232.160597 
L 779.167721 232.047843 
L 779.899731 231.988056 
L 780.262557 232.363732 
L 780.622695 232.226241 
L 780.622695 232.641676 
L 781.347859 232.517019 
L 782.075468 232.245529 
L 782.438295 231.612759 
L 782.800877 231.613142 
L 783.526041 231.954555 
L 783.888623 232.607439 
L 783.888623 232.529288 
L 784.25145 232.36884 
L 784.25145 232.481694 
L 784.98126 232.480532 
L 785.701289 231.947095 
L 787.15064 232.031919 
L 787.15064 232.278518 
L 787.873359 231.897858 
L 788.237653 231.95674 
L 788.237653 231.592403 
L 788.600235 231.152655 
L 789.324421 230.627777 
L 789.324421 231.008018 
L 789.687003 230.961458 
L 790.781596 231.463458 
L 790.781596 230.993194 
L 791.144422 230.271569 
L 791.507004 230.079692 
L 791.507004 230.287926 
L 792.230213 230.967293 
L 792.592795 231.6363 
L 792.592795 232.423031 
L 792.955622 232.673734 
L 793.318448 232.526074 
L 793.68103 232.242871 
L 794.043857 232.282522 
L 794.406195 231.420423 
L 794.769021 231.21064 
L 795.137227 231.33735 
L 795.501031 231.298947 
L 795.863858 230.766289 
L 795.863858 231.094722 
L 796.22644 228.871528 
L 796.5878 228.11563 
L 796.950382 226.334187 
L 797.312964 226.56304 
L 797.312964 224.191705 
L 797.673835 226.301663 
L 797.673835 222.406799 
L 798.036661 224.431211 
L 798.036661 219.768912 
L 798.397532 221.927008 
L 798.397532 218.001989 
L 798.75987 222.203949 
L 798.75987 215.564139 
L 799.122696 219.353314 
L 799.122696 216.227464 
L 799.482344 212.926399 
L 799.843215 212.536373 
L 799.843215 210.822896 
L 800.207753 203.646042 
L 800.568135 207.161862 
L 800.568135 204.855733 
L 800.933406 199.538884 
L 800.933406 203.66084 
L 801.291343 203.3251 
L 801.649524 202.305286 
L 801.649524 201.14294 
L 802.009417 196.401626 
L 802.365887 188.758969 
L 802.723824 196.52514 
L 802.723824 188.025724 
L 803.437741 208.877759 
L 803.437741 195.655589 
L 803.794211 197.477987 
L 804.149948 186.405871 
L 804.862154 188.785937 
L 804.862154 193.406711 
L 805.221802 201.116617 
L 805.221802 203.978222 
L 805.574849 213.521909 
L 805.574849 205.220897 
L 805.929607 205.151012 
L 806.283388 203.799668 
L 806.283388 203.098655 
L 806.636435 202.965448 
L 806.636435 206.872624 
L 806.988015 215.96734 
L 806.988015 210.692955 
L 807.341062 214.170601 
L 807.694353 214.296606 
L 807.694353 214.280337 
L 808.048133 209.248578 
L 808.400691 209.164962 
L 808.755939 212.123704 
L 808.755939 211.074689 
L 809.108497 210.03134 
L 809.463255 212.546271 
L 809.816302 213.607478 
L 810.178884 209.90696 
L 810.532665 207.789947 
L 810.887423 213.823247 
L 810.887423 213.754814 
L 811.242426 217.050368 
L 811.595717 223.634109 
L 811.950476 220.589133 
L 812.304989 223.499722 
L 812.304989 222.919134 
L 812.659259 220.204884 
L 812.659259 220.204884 
" clip-path="url(#p71329fcc5d)" style="fill: none; stroke: #008000; stroke-width: 1.5; stroke-linecap: square"/>
   </g>
   <g id="patch_3">
    <path d="M 47.72 534.04 
L 47.72 26.88 
" style="fill: none; stroke: #000000; stroke-width: 0.8; stroke-linejoin: miter; stroke-linecap: square"/>
   </g>
   <g id="patch_4">
    <path d="M 853.2 534.04 
L 853.2 26.88 
" style="fill: none; stroke: #000000; stroke-width: 0.8; stroke-linejoin: miter; stroke-linecap: square"/>
   </g>
   <g id="patch_5">
    <path d="M 47.72 534.04 
L 853.2 534.04 
" style="fill: none; stroke: #000000; stroke-width: 0.8; stroke-linejoin: miter; stroke-linecap: square"/>
   </g>
   <g id="patch_6">
    <path d="M 47.72 26.88 
L 853.2 26.88 
" style="fill: none; stroke: #000000; stroke-width: 0.8; stroke-linejoin: miter; stroke-linecap: square"/>
   </g>
   <g id="patch_7">
    <path d="M 461.725817 426.498389 
Q 435.57843 432.320401 409.431043 438.142414 
L 410.300398 442.046798 
Q 403.789882 440.422971 397.279366 438.799144 
Q 402.485849 434.566394 407.692332 430.333644 
L 408.561687 434.238029 
Q 434.709074 428.416016 460.856461 422.594004 
L 461.725817 426.498389 
z
" style="stroke: #000000; stroke-linecap: round"/>
   </g>
   <g id="text_15">
    <!-- Peak: RT=2.12, Area=5.30e+03 -->
    <g style="fill: #ff0000" transform="translate(466.963233 410.00574) scale(0.1 -0.1)">
     <defs>
      <path id="DejaVuSans-50" d="M 1259 4147 
L 1259 2394 
L 2053 2394 
Q 2494 2394 2734 2622 
Q 2975 2850 2975 3272 
Q 2975 3691 2734 3919 
Q 2494 4147 2053 4147 
L 1259 4147 
z
M 628 4666 
L 2053 4666 
Q 2838 4666 3239 4311 
Q 3641 3956 3641 3272 
Q 3641 2581 3239 2228 
Q 2838 1875 2053 1875 
L 1259 1875 
L 1259 0 
L 628 0 
L 628 4666 
z
" transform="scale(0.015625)"/>
      <path id="DejaVuSans-6b" d="M 581 4863 
L 1159 4863 
L 1159 1991 
L 2875 3500 
L 3609 3500 
L 1753 1863 
L 3688 0 
L 2938 0 
L 1159 1709 
L 1159 0 
L 581 0 
L 581 4863 
z
" transform="scale(0.015625)"/>
      <path id="DejaVuSans-3a" d="M 750 794 
L 1409 794 
L 1409 0 
L 750 0 
L 750 794 
z
M 750 3309 
L 1409 3309 
L 1409 2516 
L 750 2516 
L 750 3309 
z
" transform="scale(0.015625)"/>
      <path id="DejaVuSans-3d" d="M 678 2906 
L 4684 2906 
L 4684 2381 
L 678 2381 
L 678 2906 
z
M 678 1631 
L 4684 1631 
L 4684 1100 
L 678 1100 
L 678 1631 
z
" transform="scale(0.015625)"/>
      <path id="DejaVuSans-2c" d="M 750 794 
L 1409 794 
L 1409 256 
L 897 -744 
L 494 -744 
L 750 256 
L 750 794 
z
" transform="scale(0.015625)"/>
      <path id="DejaVuSans-41" d="M 2188 4044 
L 1331 1722 
L 3047 1722 
L 2188 4044 
z
M 1831 4666 
L 2547 4666 
L 4325 0 
L 3669 0 
L 3244 1197 
L 1141 1197 
L 716 0 
L 50 0 
L 1831 4666 
z
" transform="scale(0.015625)"/>
      <path id="DejaVuSans-2b" d="M 2944 4013 
L 2944 2272 
L 4684 2272 
L 4684 1741 
L 2944 1741 
L 2944 0 
L 2419 0 
L 2419 1741 
L 678 1741 
L 678 2272 
L 2419 2272 
L 2419 4013 
L 2944 4013 
z
" transform="scale(0.015625)"/>
     </defs>
     <use xlink:href="#DejaVuSans-50"/>
     <use xlink:href="#DejaVuSans-65" transform="translate(56.677734 0)"/>
     <use xlink:href="#DejaVuSans-61" transform="translate(118.201172 0)"/>
     <use xlink:href="#DejaVuSans-6b" transform="translate(179.480469 0)"/>
     <use xlink:href="#DejaVuSans-3a" transform="translate(237.390625 0)"/>
     <use xlink:href="#DejaVuSans-20" transform="translate(271.082031 0)"/>
     <use xlink:href="#DejaVuSans-52" transform="translate(302.869141 0)"/>
     <use xlink:href="#DejaVuSans-54" transform="translate(365.101562 0)"/>
     <use xlink:href="#DejaVuSans-3d" transform="translate(426.185547 0)"/>
     <use xlink:href="#DejaVuSans-32" transform="translate(509.974609 0)"/>
     <use xlink:href="#DejaVuSans-2e" transform="translate(573.597656 0)"/>
     <use xlink:href="#DejaVuSans-31" transform="translate(605.384766 0)"/>
     <use xlink:href="#DejaVuSans-32" transform="translate(669.007812 0)"/>
     <use xlink:href="#DejaVuSans-2c" transform="translate(732.630859 0)"/>
     <use xlink:href="#DejaVuSans-20" transform="translate(764.417969 0)"/>
     <use xlink:href="#DejaVuSans-41" transform="translate(796.205078 0)"/>
     <use xlink:href="#DejaVuSans-72" transform="translate(864.613281 0)"/>
     <use xlink:href="#DejaVuSans-65" transform="translate(903.476562 0)"/>
     <use xlink:href="#DejaVuSans-61" transform="translate(965 0)"/>
     <use xlink:href="#DejaVuSans-3d" transform="translate(1026.279297 0)"/>
     <use xlink:href="#DejaVuSans-35" transform="translate(1110.068359 0)"/>
     <use xlink:href="#DejaVuSans-2e" transform="translate(1173.691406 0)"/>
     <use xlink:href="#DejaVuSans-33" transform="translate(1205.478516 0)"/>
     <use xlink:href="#DejaVuSans-30" transform="translate(1269.101562 0)"/>
     <use xlink:href="#DejaVuSans-65" transform="translate(1332.724609 0)"/>
     <use xlink:href="#DejaVuSans-2b" transform="translate(1394.248047 0)"/>
     <use xlink:href="#DejaVuSans-30" transform="translate(1478.037109 0)"/>
     <use xlink:href="#DejaVuSans-33" transform="translate(1541.660156 0)"/>
    </g>
    <!-- (15.09% of total) -->
    <g style="fill: #ff0000" transform="translate(466.963233 421.203553) scale(0.1 -0.1)">
     <defs>
      <path id="DejaVuSans-39" d="M 703 97 
L 703 672 
Q 941 559 1184 500 
Q 1428 441 1663 441 
Q 2288 441 2617 861 
Q 2947 1281 2994 2138 
Q 2813 1869 2534 1725 
Q 2256 1581 1919 1581 
Q 1219 1581 811 2004 
Q 403 2428 403 3163 
Q 403 3881 828 4315 
Q 1253 4750 1959 4750 
Q 2769 4750 3195 4129 
Q 3622 3509 3622 2328 
Q 3622 1225 3098 567 
Q 2575 -91 1691 -91 
Q 1453 -91 1209 -44 
Q 966 3 703 97 
z
M 1959 2075 
Q 2384 2075 2632 2365 
Q 2881 2656 2881 3163 
Q 2881 3666 2632 3958 
Q 2384 4250 1959 4250 
Q 1534 4250 1286 3958 
Q 1038 3666 1038 3163 
Q 1038 2656 1286 2365 
Q 1534 2075 1959 2075 
z
" transform="scale(0.015625)"/>
      <path id="DejaVuSans-25" d="M 4653 2053 
Q 4381 2053 4226 1822 
Q 4072 1591 4072 1178 
Q 4072 772 4226 539 
Q 4381 306 4653 306 
Q 4919 306 5073 539 
Q 5228 772 5228 1178 
Q 5228 1588 5073 1820 
Q 4919 2053 4653 2053 
z
M 4653 2450 
Q 5147 2450 5437 2106 
Q 5728 1763 5728 1178 
Q 5728 594 5436 251 
Q 5144 -91 4653 -91 
Q 4153 -91 3862 251 
Q 3572 594 3572 1178 
Q 3572 1766 3864 2108 
Q 4156 2450 4653 2450 
z
M 1428 4353 
Q 1159 4353 1004 4120 
Q 850 3888 850 3481 
Q 850 3069 1003 2837 
Q 1156 2606 1428 2606 
Q 1700 2606 1854 2837 
Q 2009 3069 2009 3481 
Q 2009 3884 1853 4118 
Q 1697 4353 1428 4353 
z
M 4250 4750 
L 4750 4750 
L 1831 -91 
L 1331 -91 
L 4250 4750 
z
M 1428 4750 
Q 1922 4750 2215 4408 
Q 2509 4066 2509 3481 
Q 2509 2891 2217 2550 
Q 1925 2209 1428 2209 
Q 931 2209 642 2551 
Q 353 2894 353 3481 
Q 353 4063 643 4406 
Q 934 4750 1428 4750 
z
" transform="scale(0.015625)"/>
      <path id="DejaVuSans-66" d="M 2375 4863 
L 2375 4384 
L 1825 4384 
Q 1516 4384 1395 4259 
Q 1275 4134 1275 3809 
L 1275 3500 
L 2222 3500 
L 2222 3053 
L 1275 3053 
L 1275 0 
L 697 0 
L 697 3053 
L 147 3053 
L 147 3500 
L 697 3500 
L 697 3744 
Q 697 4328 969 4595 
Q 1241 4863 1831 4863 
L 2375 4863 
z
" transform="scale(0.015625)"/>
     </defs>
     <use xlink:href="#DejaVuSans-28"/>
     <use xlink:href="#DejaVuSans-31" transform="translate(39.013672 0)"/>
     <use xlink:href="#DejaVuSans-35" transform="translate(102.636719 0)"/>
     <use xlink:href="#DejaVuSans-2e" transform="translate(166.259766 0)"/>
     <use xlink:href="#DejaVuSans-30" transform="translate(198.046875 0)"/>
     <use xlink:href="#DejaVuSans-39" transform="translate(261.669922 0)"/>
     <use xlink:href="#DejaVuSans-25" transform="translate(325.292969 0)"/>
     <use xlink:href="#DejaVuSans-20" transform="translate(420.3125 0)"/>
     <use xlink:href="#DejaVuSans-6f" transform="translate(452.099609 0)"/>
     <use xlink:href="#DejaVuSans-66" transform="translate(513.28125 0)"/>
     <use xlink:href="#DejaVuSans-20" transform="translate(548.486328 0)"/>
     <use xlink:href="#DejaVuSans-74" transform="translate(580.273438 0)"/>
     <use xlink:href="#DejaVuSans-6f" transform="translate(619.482422 0)"/>
     <use xlink:href="#DejaVuSans-74" transform="translate(680.664062 0)"/>
     <use xlink:href="#DejaVuSans-61" transform="translate(719.873047 0)"/>
     <use xlink:href="#DejaVuSans-6c" transform="translate(781.152344 0)"/>
     <use xlink:href="#DejaVuSans-29" transform="translate(808.935547 0)"/>
    </g>
   </g>
   <g id="text_16">
    <!-- UV &amp; MS Chromatograms: IrCp1F21, target m/z=622.1600839 -->
    <g transform="translate(262.960938 20.88) scale(0.12 -0.12)">
     <defs>
      <path id="DejaVuSans-55" d="M 556 4666 
L 1191 4666 
L 1191 1831 
Q 1191 1081 1462 751 
Q 1734 422 2344 422 
Q 2950 422 3222 751 
Q 3494 1081 3494 1831 
L 3494 4666 
L 4128 4666 
L 4128 1753 
Q 4128 841 3676 375 
Q 3225 -91 2344 -91 
Q 1459 -91 1007 375 
Q 556 841 556 1753 
L 556 4666 
z
" transform="scale(0.015625)"/>
      <path id="DejaVuSans-56" d="M 1831 0 
L 50 4666 
L 709 4666 
L 2188 738 
L 3669 4666 
L 4325 4666 
L 2547 0 
L 1831 0 
z
" transform="scale(0.015625)"/>
      <path id="DejaVuSans-26" d="M 1556 2509 
Q 1272 2256 1139 2004 
Q 1006 1753 1006 1478 
Q 1006 1022 1337 719 
Q 1669 416 2169 416 
Q 2466 416 2725 514 
Q 2984 613 3213 813 
L 1556 2509 
z
M 1997 2859 
L 3584 1234 
Q 3769 1513 3872 1830 
Q 3975 2147 3994 2503 
L 4575 2503 
Q 4538 2091 4375 1687 
Q 4213 1284 3922 891 
L 4794 0 
L 4006 0 
L 3559 459 
Q 3234 181 2878 45 
Q 2522 -91 2113 -91 
Q 1359 -91 881 339 
Q 403 769 403 1441 
Q 403 1841 612 2192 
Q 822 2544 1241 2853 
Q 1091 3050 1012 3245 
Q 934 3441 934 3628 
Q 934 4134 1281 4442 
Q 1628 4750 2203 4750 
Q 2463 4750 2720 4694 
Q 2978 4638 3244 4525 
L 3244 3956 
Q 2972 4103 2725 4179 
Q 2478 4256 2266 4256 
Q 1938 4256 1733 4082 
Q 1528 3909 1528 3634 
Q 1528 3475 1620 3314 
Q 1713 3153 1997 2859 
z
" transform="scale(0.015625)"/>
      <path id="DejaVuSans-4d" d="M 628 4666 
L 1569 4666 
L 2759 1491 
L 3956 4666 
L 4897 4666 
L 4897 0 
L 4281 0 
L 4281 4097 
L 3078 897 
L 2444 897 
L 1241 4097 
L 1241 0 
L 628 0 
L 628 4666 
z
" transform="scale(0.015625)"/>
      <path id="DejaVuSans-53" d="M 3425 4513 
L 3425 3897 
Q 3066 4069 2747 4153 
Q 2428 4238 2131 4238 
Q 1616 4238 1336 4038 
Q 1056 3838 1056 3469 
Q 1056 3159 1242 3001 
Q 1428 2844 1947 2747 
L 2328 2669 
Q 3034 2534 3370 2195 
Q 3706 1856 3706 1288 
Q 3706 609 3251 259 
Q 2797 -91 1919 -91 
Q 1588 -91 1214 -16 
Q 841 59 441 206 
L 441 856 
Q 825 641 1194 531 
Q 1563 422 1919 422 
Q 2459 422 2753 634 
Q 3047 847 3047 1241 
Q 3047 1584 2836 1778 
Q 2625 1972 2144 2069 
L 1759 2144 
Q 1053 2284 737 2584 
Q 422 2884 422 3419 
Q 422 4038 858 4394 
Q 1294 4750 2059 4750 
Q 2388 4750 2728 4690 
Q 3069 4631 3425 4513 
z
" transform="scale(0.015625)"/>
      <path id="DejaVuSans-43" d="M 4122 4306 
L 4122 3641 
Q 3803 3938 3442 4084 
Q 3081 4231 2675 4231 
Q 1875 4231 1450 3742 
Q 1025 3253 1025 2328 
Q 1025 1406 1450 917 
Q 1875 428 2675 428 
Q 3081 428 3442 575 
Q 3803 722 4122 1019 
L 4122 359 
Q 3791 134 3420 21 
Q 3050 -91 2638 -91 
Q 1578 -91 968 557 
Q 359 1206 359 2328 
Q 359 3453 968 4101 
Q 1578 4750 2638 4750 
Q 3056 4750 3426 4639 
Q 3797 4528 4122 4306 
z
" transform="scale(0.015625)"/>
      <path id="DejaVuSans-68" d="M 3513 2113 
L 3513 0 
L 2938 0 
L 2938 2094 
Q 2938 2591 2744 2837 
Q 2550 3084 2163 3084 
Q 1697 3084 1428 2787 
Q 1159 2491 1159 1978 
L 1159 0 
L 581 0 
L 581 4863 
L 1159 4863 
L 1159 2956 
Q 1366 3272 1645 3428 
Q 1925 3584 2291 3584 
Q 2894 3584 3203 3211 
Q 3513 2838 3513 2113 
z
" transform="scale(0.015625)"/>
      <path id="DejaVuSans-67" d="M 2906 1791 
Q 2906 2416 2648 2759 
Q 2391 3103 1925 3103 
Q 1463 3103 1205 2759 
Q 947 2416 947 1791 
Q 947 1169 1205 825 
Q 1463 481 1925 481 
Q 2391 481 2648 825 
Q 2906 1169 2906 1791 
z
M 3481 434 
Q 3481 -459 3084 -895 
Q 2688 -1331 1869 -1331 
Q 1566 -1331 1297 -1286 
Q 1028 -1241 775 -1147 
L 775 -588 
Q 1028 -725 1275 -790 
Q 1522 -856 1778 -856 
Q 2344 -856 2625 -561 
Q 2906 -266 2906 331 
L 2906 616 
Q 2728 306 2450 153 
Q 2172 0 1784 0 
Q 1141 0 747 490 
Q 353 981 353 1791 
Q 353 2603 747 3093 
Q 1141 3584 1784 3584 
Q 2172 3584 2450 3431 
Q 2728 3278 2906 2969 
L 2906 3500 
L 3481 3500 
L 3481 434 
z
" transform="scale(0.015625)"/>
      <path id="DejaVuSans-70" d="M 1159 525 
L 1159 -1331 
L 581 -1331 
L 581 3500 
L 1159 3500 
L 1159 2969 
Q 1341 3281 1617 3432 
Q 1894 3584 2278 3584 
Q 2916 3584 3314 3078 
Q 3713 2572 3713 1747 
Q 3713 922 3314 415 
Q 2916 -91 2278 -91 
Q 1894 -91 1617 61 
Q 1341 213 1159 525 
z
M 3116 1747 
Q 3116 2381 2855 2742 
Q 2594 3103 2138 3103 
Q 1681 3103 1420 2742 
Q 1159 2381 1159 1747 
Q 1159 1113 1420 752 
Q 1681 391 2138 391 
Q 2594 391 2855 752 
Q 3116 1113 3116 1747 
z
" transform="scale(0.015625)"/>
      <path id="DejaVuSans-46" d="M 628 4666 
L 3309 4666 
L 3309 4134 
L 1259 4134 
L 1259 2759 
L 3109 2759 
L 3109 2228 
L 1259 2228 
L 1259 0 
L 628 0 
L 628 4666 
z
" transform="scale(0.015625)"/>
      <path id="DejaVuSans-2f" d="M 1625 4666 
L 2156 4666 
L 531 -594 
L 0 -594 
L 1625 4666 
z
" transform="scale(0.015625)"/>
      <path id="DejaVuSans-36" d="M 2113 2584 
Q 1688 2584 1439 2293 
Q 1191 2003 1191 1497 
Q 1191 994 1439 701 
Q 1688 409 2113 409 
Q 2538 409 2786 701 
Q 3034 994 3034 1497 
Q 3034 2003 2786 2293 
Q 2538 2584 2113 2584 
z
M 3366 4563 
L 3366 3988 
Q 3128 4100 2886 4159 
Q 2644 4219 2406 4219 
Q 1781 4219 1451 3797 
Q 1122 3375 1075 2522 
Q 1259 2794 1537 2939 
Q 1816 3084 2150 3084 
Q 2853 3084 3261 2657 
Q 3669 2231 3669 1497 
Q 3669 778 3244 343 
Q 2819 -91 2113 -91 
Q 1303 -91 875 529 
Q 447 1150 447 2328 
Q 447 3434 972 4092 
Q 1497 4750 2381 4750 
Q 2619 4750 2861 4703 
Q 3103 4656 3366 4563 
z
" transform="scale(0.015625)"/>
      <path id="DejaVuSans-38" d="M 2034 2216 
Q 1584 2216 1326 1975 
Q 1069 1734 1069 1313 
Q 1069 891 1326 650 
Q 1584 409 2034 409 
Q 2484 409 2743 651 
Q 3003 894 3003 1313 
Q 3003 1734 2745 1975 
Q 2488 2216 2034 2216 
z
M 1403 2484 
Q 997 2584 770 2862 
Q 544 3141 544 3541 
Q 544 4100 942 4425 
Q 1341 4750 2034 4750 
Q 2731 4750 3128 4425 
Q 3525 4100 3525 3541 
Q 3525 3141 3298 2862 
Q 3072 2584 2669 2484 
Q 3125 2378 3379 2068 
Q 3634 1759 3634 1313 
Q 3634 634 3220 271 
Q 2806 -91 2034 -91 
Q 1263 -91 848 271 
Q 434 634 434 1313 
Q 434 1759 690 2068 
Q 947 2378 1403 2484 
z
M 1172 3481 
Q 1172 3119 1398 2916 
Q 1625 2713 2034 2713 
Q 2441 2713 2670 2916 
Q 2900 3119 2900 3481 
Q 2900 3844 2670 4047 
Q 2441 4250 2034 4250 
Q 1625 4250 1398 4047 
Q 1172 3844 1172 3481 
z
" transform="scale(0.015625)"/>
     </defs>
     <use xlink:href="#DejaVuSans-55"/>
     <use xlink:href="#DejaVuSans-56" transform="translate(73.193359 0)"/>
     <use xlink:href="#DejaVuSans-20" transform="translate(141.601562 0)"/>
     <use xlink:href="#DejaVuSans-26" transform="translate(173.388672 0)"/>
     <use xlink:href="#DejaVuSans-20" transform="translate(251.367188 0)"/>
     <use xlink:href="#DejaVuSans-4d" transform="translate(283.154297 0)"/>
     <use xlink:href="#DejaVuSans-53" transform="translate(369.433594 0)"/>
     <use xlink:href="#DejaVuSans-20" transform="translate(432.910156 0)"/>
     <use xlink:href="#DejaVuSans-43" transform="translate(464.697266 0)"/>
     <use xlink:href="#DejaVuSans-68" transform="translate(534.521484 0)"/>
     <use xlink:href="#DejaVuSans-72" transform="translate(597.900391 0)"/>
     <use xlink:href="#DejaVuSans-6f" transform="translate(636.763672 0)"/>
     <use xlink:href="#DejaVuSans-6d" transform="translate(697.945312 0)"/>
     <use xlink:href="#DejaVuSans-61" transform="translate(795.357422 0)"/>
     <use xlink:href="#DejaVuSans-74" transform="translate(856.636719 0)"/>
     <use xlink:href="#DejaVuSans-6f" transform="translate(895.845703 0)"/>
     <use xlink:href="#DejaVuSans-67" transform="translate(957.027344 0)"/>
     <use xlink:href="#DejaVuSans-72" transform="translate(1020.503906 0)"/>
     <use xlink:href="#DejaVuSans-61" transform="translate(1061.617188 0)"/>
     <use xlink:href="#DejaVuSans-6d" transform="translate(1122.896484 0)"/>
     <use xlink:href="#DejaVuSans-73" transform="translate(1220.308594 0)"/>
     <use xlink:href="#DejaVuSans-3a" transform="translate(1272.408203 0)"/>
     <use xlink:href="#DejaVuSans-20" transform="translate(1306.099609 0)"/>
     <use xlink:href="#DejaVuSans-49" transform="translate(1337.886719 0)"/>
     <use xlink:href="#DejaVuSans-72" transform="translate(1367.378906 0)"/>
     <use xlink:href="#DejaVuSans-43" transform="translate(1408.492188 0)"/>
     <use xlink:href="#DejaVuSans-70" transform="translate(1478.316406 0)"/>
     <use xlink:href="#DejaVuSans-31" transform="translate(1541.792969 0)"/>
     <use xlink:href="#DejaVuSans-46" transform="translate(1605.416016 0)"/>
     <use xlink:href="#DejaVuSans-32" transform="translate(1662.935547 0)"/>
     <use xlink:href="#DejaVuSans-31" transform="translate(1726.558594 0)"/>
     <use xlink:href="#DejaVuSans-2c" transform="translate(1790.181641 0)"/>
     <use xlink:href="#DejaVuSans-20" transform="translate(1821.96875 0)"/>
     <use xlink:href="#DejaVuSans-74" transform="translate(1853.755859 0)"/>
     <use xlink:href="#DejaVuSans-61" transform="translate(1892.964844 0)"/>
     <use xlink:href="#DejaVuSans-72" transform="translate(1954.244141 0)"/>
     <use xlink:href="#DejaVuSans-67" transform="translate(1993.607422 0)"/>
     <use xlink:href="#DejaVuSans-65" transform="translate(2057.083984 0)"/>
     <use xlink:href="#DejaVuSans-74" transform="translate(2118.607422 0)"/>
     <use xlink:href="#DejaVuSans-20" transform="translate(2157.816406 0)"/>
     <use xlink:href="#DejaVuSans-6d" transform="translate(2189.603516 0)"/>
     <use xlink:href="#DejaVuSans-2f" transform="translate(2287.015625 0)"/>
     <use xlink:href="#DejaVuSans-7a" transform="translate(2320.707031 0)"/>
     <use xlink:href="#DejaVuSans-3d" transform="translate(2373.197266 0)"/>
     <use xlink:href="#DejaVuSans-36" transform="translate(2456.986328 0)"/>
     <use xlink:href="#DejaVuSans-32" transform="translate(2520.609375 0)"/>
     <use xlink:href="#DejaVuSans-32" transform="translate(2584.232422 0)"/>
     <use xlink:href="#DejaVuSans-2e" transform="translate(2647.855469 0)"/>
     <use xlink:href="#DejaVuSans-31" transform="translate(2679.642578 0)"/>
     <use xlink:href="#DejaVuSans-36" transform="translate(2743.265625 0)"/>
     <use xlink:href="#DejaVuSans-30" transform="translate(2806.888672 0)"/>
     <use xlink:href="#DejaVuSans-30" transform="translate(2870.511719 0)"/>
     <use xlink:href="#DejaVuSans-38" transform="translate(2934.134766 0)"/>
     <use xlink:href="#DejaVuSans-33" transform="translate(2997.757812 0)"/>
     <use xlink:href="#DejaVuSans-39" transform="translate(3061.380859 0)"/>
    </g>
   </g>
   <g id="legend_1">
    <g id="patch_8">
     <path d="M 685.971875 64.23625 
L 846.2 64.23625 
Q 848.2 64.23625 848.2 62.23625 
L 848.2 33.88 
Q 848.2 31.88 846.2 31.88 
L 685.971875 31.88 
Q 683.971875 31.88 683.971875 33.88 
L 683.971875 62.23625 
Q 683.971875 64.23625 685.971875 64.23625 
z
" style="fill: #ffffff; opacity: 0.8; stroke: #cccccc; stroke-linejoin: miter"/>
    </g>
    <g id="line2d_15">
     <path d="M 687.971875 39.978437 
L 697.971875 39.978437 
L 707.971875 39.978437 
" style="fill: none; stroke: #0000ff; stroke-width: 1.5; stroke-linecap: square"/>
    </g>
    <g id="text_17">
     <!-- UV Intensity (normalized) -->
     <g transform="translate(715.971875 43.478437) scale(0.1 -0.1)">
      <use xlink:href="#DejaVuSans-55"/>
      <use xlink:href="#DejaVuSans-56" transform="translate(73.193359 0)"/>
      <use xlink:href="#DejaVuSans-20" transform="translate(141.601562 0)"/>
      <use xlink:href="#DejaVuSans-49" transform="translate(173.388672 0)"/>
      <use xlink:href="#DejaVuSans-6e" transform="translate(202.880859 0)"/>
      <use xlink:href="#DejaVuSans-74" transform="translate(266.259766 0)"/>
      <use xlink:href="#DejaVuSans-65" transform="translate(305.46875 0)"/>
      <use xlink:href="#DejaVuSans-6e" transform="translate(366.992188 0)"/>
      <use xlink:href="#DejaVuSans-73" transform="translate(430.371094 0)"/>
      <use xlink:href="#DejaVuSans-69" transform="translate(482.470703 0)"/>
      <use xlink:href="#DejaVuSans-74" transform="translate(510.253906 0)"/>
      <use xlink:href="#DejaVuSans-79" transform="translate(549.462891 0)"/>
      <use xlink:href="#DejaVuSans-20" transform="translate(608.642578 0)"/>
      <use xlink:href="#DejaVuSans-28" transform="translate(640.429688 0)"/>
      <use xlink:href="#DejaVuSans-6e" transform="translate(679.443359 0)"/>
      <use xlink:href="#DejaVuSans-6f" transform="translate(742.822266 0)"/>
      <use xlink:href="#DejaVuSans-72" transform="translate(804.003906 0)"/>
      <use xlink:href="#DejaVuSans-6d" transform="translate(843.367188 0)"/>
      <use xlink:href="#DejaVuSans-61" transform="translate(940.779297 0)"/>
      <use xlink:href="#DejaVuSans-6c" transform="translate(1002.058594 0)"/>
      <use xlink:href="#DejaVuSans-69" transform="translate(1029.841797 0)"/>
      <use xlink:href="#DejaVuSans-7a" transform="translate(1057.625 0)"/>
      <use xlink:href="#DejaVuSans-65" transform="translate(1110.115234 0)"/>
      <use xlink:href="#DejaVuSans-64" transform="translate(1171.638672 0)"/>
      <use xlink:href="#DejaVuSans-29" transform="translate(1235.115234 0)"/>
     </g>
    </g>
    <g id="line2d_16">
     <path d="M 687.971875 54.656562 
L 697.971875 54.656562 
L 707.971875 54.656562 
" style="fill: none; stroke: #008000; stroke-width: 1.5; stroke-linecap: square"/>
    </g>
    <g id="text_18">
     <!-- MS Intensity (normalized) -->
     <g transform="translate(715.971875 58.156562) scale(0.1 -0.1)">
      <use xlink:href="#DejaVuSans-4d"/>
      <use xlink:href="#DejaVuSans-53" transform="translate(86.279297 0)"/>
      <use xlink:href="#DejaVuSans-20" transform="translate(149.755859 0)"/>
      <use xlink:href="#DejaVuSans-49" transform="translate(181.542969 0)"/>
      <use xlink:href="#DejaVuSans-6e" transform="translate(211.035156 0)"/>
      <use xlink:href="#DejaVuSans-74" transform="translate(274.414062 0)"/>
      <use xlink:href="#DejaVuSans-65" transform="translate(313.623047 0)"/>
      <use xlink:href="#DejaVuSans-6e" transform="translate(375.146484 0)"/>
      <use xlink:href="#DejaVuSans-73" transform="translate(438.525391 0)"/>
      <use xlink:href="#DejaVuSans-69" transform="translate(490.625 0)"/>
      <use xlink:href="#DejaVuSans-74" transform="translate(518.408203 0)"/>
      <use xlink:href="#DejaVuSans-79" transform="translate(557.617188 0)"/>
      <use xlink:href="#DejaVuSans-20" transform="translate(616.796875 0)"/>
      <use xlink:href="#DejaVuSans-28" transform="translate(648.583984 0)"/>
      <use xlink:href="#DejaVuSans-6e" transform="translate(687.597656 0)"/>
      <use xlink:href="#DejaVuSans-6f" transform="translate(750.976562 0)"/>
      <use xlink:href="#DejaVuSans-72" transform="translate(812.158203 0)"/>
      <use xlink:href="#DejaVuSans-6d" transform="translate(851.521484 0)"/>
      <use xlink:href="#DejaVuSans-61" transform="translate(948.933594 0)"/>
      <use xlink:href="#DejaVuSans-6c" transform="translate(1010.212891 0)"/>
      <use xlink:href="#DejaVuSans-69" transform="translate(1037.996094 0)"/>
      <use xlink:href="#DejaVuSans-7a" transform="translate(1065.779297 0)"/>
      <use xlink:href="#DejaVuSans-65" transform="translate(1118.269531 0)"/>
      <use xlink:href="#DejaVuSans-64" transform="translate(1179.792969 0)"/>
      <use xlink:href="#DejaVuSans-29" transform="translate(1243.269531 0)"/>
     </g>
    </g>
   </g>
  </g>
 </g>
 <defs>
  <clipPath id="p71329fcc5d">
   <rect x="47.72" y="26.88" width="805.48" height="507.16"/>
  </clipPath>
 </defs>
</svg>
