<?xml version="1.0" encoding="utf-8" standalone="no"?>
<!DOCTYPE svg PUBLIC "-//W3C//DTD SVG 1.1//EN"
  "http://www.w3.org/Graphics/SVG/1.1/DTD/svg11.dtd">
<svg xmlns:xlink="http://www.w3.org/1999/xlink" width="864pt" height="576pt" viewBox="0 0 864 576" xmlns="http://www.w3.org/2000/svg" version="1.1">
 <metadata>
  <rdf:RDF xmlns:dc="http://purl.org/dc/elements/1.1/" xmlns:cc="http://creativecommons.org/ns#" xmlns:rdf="http://www.w3.org/1999/02/22-rdf-syntax-ns#">
   <cc:Work>
    <dc:type rdf:resource="http://purl.org/dc/dcmitype/StillImage"/>
    <dc:date>2025-03-06T18:10:54.181819</dc:date>
    <dc:format>image/svg+xml</dc:format>
    <dc:creator>
     <cc:Agent>
      <dc:title>Matplotlib v3.10.0, https://matplotlib.org/</dc:title>
     </cc:Agent>
    </dc:creator>
   </cc:Work>
  </rdf:RDF>
 </metadata>
 <defs>
  <style type="text/css">*{stroke-linejoin: round; stroke-linecap: butt}</style>
 </defs>
 <g id="figure_1">
  <g id="patch_1">
   <path d="M 0 576 
L 864 576 
L 864 0 
L 0 0 
z
" style="fill: #ffffff"/>
  </g>
  <g id="axes_1">
   <g id="patch_2">
    <path d="M 47.72 534.04 
L 853.2 534.04 
L 853.2 26.88 
L 47.72 26.88 
z
" style="fill: #ffffff"/>
   </g>
   <g id="matplotlib.axis_1">
    <g id="xtick_1">
     <g id="line2d_1">
      <defs>
       <path id="m9faae83e90" d="M 0 0 
L 0 3.5 
" style="stroke: #000000; stroke-width: 0.8"/>
      </defs>
      <g>
       <use xlink:href="#m9faae83e90" x="83.100486" y="534.04" style="stroke: #000000; stroke-width: 0.8"/>
      </g>
     </g>
     <g id="text_1">
      <!-- 0 -->
      <g transform="translate(79.919236 548.638438) scale(0.1 -0.1)">
       <defs>
        <path id="DejaVuSans-30" d="M 2034 4250 
Q 1547 4250 1301 3770 
Q 1056 3291 1056 2328 
Q 1056 1369 1301 889 
Q 1547 409 2034 409 
Q 2525 409 2770 889 
Q 3016 1369 3016 2328 
Q 3016 3291 2770 3770 
Q 2525 4250 2034 4250 
z
M 2034 4750 
Q 2819 4750 3233 4129 
Q 3647 3509 3647 2328 
Q 3647 1150 3233 529 
Q 2819 -91 2034 -91 
Q 1250 -91 836 529 
Q 422 1150 422 2328 
Q 422 3509 836 4129 
Q 1250 4750 2034 4750 
z
" transform="scale(0.015625)"/>
       </defs>
       <use xlink:href="#DejaVuSans-30"/>
      </g>
     </g>
    </g>
    <g id="xtick_2">
     <g id="line2d_2">
      <g>
       <use xlink:href="#m9faae83e90" x="229.795887" y="534.04" style="stroke: #000000; stroke-width: 0.8"/>
      </g>
     </g>
     <g id="text_2">
      <!-- 1 -->
      <g transform="translate(226.614637 548.638438) scale(0.1 -0.1)">
       <defs>
        <path id="DejaVuSans-31" d="M 794 531 
L 1825 531 
L 1825 4091 
L 703 3866 
L 703 4441 
L 1819 4666 
L 2450 4666 
L 2450 531 
L 3481 531 
L 3481 0 
L 794 0 
L 794 531 
z
" transform="scale(0.015625)"/>
       </defs>
       <use xlink:href="#DejaVuSans-31"/>
      </g>
     </g>
    </g>
    <g id="xtick_3">
     <g id="line2d_3">
      <g>
       <use xlink:href="#m9faae83e90" x="376.491289" y="534.04" style="stroke: #000000; stroke-width: 0.8"/>
      </g>
     </g>
     <g id="text_3">
      <!-- 2 -->
      <g transform="translate(373.310039 548.638438) scale(0.1 -0.1)">
       <defs>
        <path id="DejaVuSans-32" d="M 1228 531 
L 3431 531 
L 3431 0 
L 469 0 
L 469 531 
Q 828 903 1448 1529 
Q 2069 2156 2228 2338 
Q 2531 2678 2651 2914 
Q 2772 3150 2772 3378 
Q 2772 3750 2511 3984 
Q 2250 4219 1831 4219 
Q 1534 4219 1204 4116 
Q 875 4013 500 3803 
L 500 4441 
Q 881 4594 1212 4672 
Q 1544 4750 1819 4750 
Q 2544 4750 2975 4387 
Q 3406 4025 3406 3419 
Q 3406 3131 3298 2873 
Q 3191 2616 2906 2266 
Q 2828 2175 2409 1742 
Q 1991 1309 1228 531 
z
" transform="scale(0.015625)"/>
       </defs>
       <use xlink:href="#DejaVuSans-32"/>
      </g>
     </g>
    </g>
    <g id="xtick_4">
     <g id="line2d_4">
      <g>
       <use xlink:href="#m9faae83e90" x="523.18669" y="534.04" style="stroke: #000000; stroke-width: 0.8"/>
      </g>
     </g>
     <g id="text_4">
      <!-- 3 -->
      <g transform="translate(520.00544 548.638438) scale(0.1 -0.1)">
       <defs>
        <path id="DejaVuSans-33" d="M 2597 2516 
Q 3050 2419 3304 2112 
Q 3559 1806 3559 1356 
Q 3559 666 3084 287 
Q 2609 -91 1734 -91 
Q 1441 -91 1130 -33 
Q 819 25 488 141 
L 488 750 
Q 750 597 1062 519 
Q 1375 441 1716 441 
Q 2309 441 2620 675 
Q 2931 909 2931 1356 
Q 2931 1769 2642 2001 
Q 2353 2234 1838 2234 
L 1294 2234 
L 1294 2753 
L 1863 2753 
Q 2328 2753 2575 2939 
Q 2822 3125 2822 3475 
Q 2822 3834 2567 4026 
Q 2313 4219 1838 4219 
Q 1578 4219 1281 4162 
Q 984 4106 628 3988 
L 628 4550 
Q 988 4650 1302 4700 
Q 1616 4750 1894 4750 
Q 2613 4750 3031 4423 
Q 3450 4097 3450 3541 
Q 3450 3153 3228 2886 
Q 3006 2619 2597 2516 
z
" transform="scale(0.015625)"/>
       </defs>
       <use xlink:href="#DejaVuSans-33"/>
      </g>
     </g>
    </g>
    <g id="xtick_5">
     <g id="line2d_5">
      <g>
       <use xlink:href="#m9faae83e90" x="669.882092" y="534.04" style="stroke: #000000; stroke-width: 0.8"/>
      </g>
     </g>
     <g id="text_5">
      <!-- 4 -->
      <g transform="translate(666.700842 548.638438) scale(0.1 -0.1)">
       <defs>
        <path id="DejaVuSans-34" d="M 2419 4116 
L 825 1625 
L 2419 1625 
L 2419 4116 
z
M 2253 4666 
L 3047 4666 
L 3047 1625 
L 3713 1625 
L 3713 1100 
L 3047 1100 
L 3047 0 
L 2419 0 
L 2419 1100 
L 313 1100 
L 313 1709 
L 2253 4666 
z
" transform="scale(0.015625)"/>
       </defs>
       <use xlink:href="#DejaVuSans-34"/>
      </g>
     </g>
    </g>
    <g id="xtick_6">
     <g id="line2d_6">
      <g>
       <use xlink:href="#m9faae83e90" x="816.577493" y="534.04" style="stroke: #000000; stroke-width: 0.8"/>
      </g>
     </g>
     <g id="text_6">
      <!-- 5 -->
      <g transform="translate(813.396243 548.638438) scale(0.1 -0.1)">
       <defs>
        <path id="DejaVuSans-35" d="M 691 4666 
L 3169 4666 
L 3169 4134 
L 1269 4134 
L 1269 2991 
Q 1406 3038 1543 3061 
Q 1681 3084 1819 3084 
Q 2600 3084 3056 2656 
Q 3513 2228 3513 1497 
Q 3513 744 3044 326 
Q 2575 -91 1722 -91 
Q 1428 -91 1123 -41 
Q 819 9 494 109 
L 494 744 
Q 775 591 1075 516 
Q 1375 441 1709 441 
Q 2250 441 2565 725 
Q 2881 1009 2881 1497 
Q 2881 1984 2565 2268 
Q 2250 2553 1709 2553 
Q 1456 2553 1204 2497 
Q 953 2441 691 2322 
L 691 4666 
z
" transform="scale(0.015625)"/>
       </defs>
       <use xlink:href="#DejaVuSans-35"/>
      </g>
     </g>
    </g>
    <g id="text_7">
     <!-- Retention Time (min) -->
     <g transform="translate(397.61 562.316562) scale(0.1 -0.1)">
      <defs>
       <path id="DejaVuSans-52" d="M 2841 2188 
Q 3044 2119 3236 1894 
Q 3428 1669 3622 1275 
L 4263 0 
L 3584 0 
L 2988 1197 
Q 2756 1666 2539 1819 
Q 2322 1972 1947 1972 
L 1259 1972 
L 1259 0 
L 628 0 
L 628 4666 
L 2053 4666 
Q 2853 4666 3247 4331 
Q 3641 3997 3641 3322 
Q 3641 2881 3436 2590 
Q 3231 2300 2841 2188 
z
M 1259 4147 
L 1259 2491 
L 2053 2491 
Q 2509 2491 2742 2702 
Q 2975 2913 2975 3322 
Q 2975 3731 2742 3939 
Q 2509 4147 2053 4147 
L 1259 4147 
z
" transform="scale(0.015625)"/>
       <path id="DejaVuSans-65" d="M 3597 1894 
L 3597 1613 
L 953 1613 
Q 991 1019 1311 708 
Q 1631 397 2203 397 
Q 2534 397 2845 478 
Q 3156 559 3463 722 
L 3463 178 
Q 3153 47 2828 -22 
Q 2503 -91 2169 -91 
Q 1331 -91 842 396 
Q 353 884 353 1716 
Q 353 2575 817 3079 
Q 1281 3584 2069 3584 
Q 2775 3584 3186 3129 
Q 3597 2675 3597 1894 
z
M 3022 2063 
Q 3016 2534 2758 2815 
Q 2500 3097 2075 3097 
Q 1594 3097 1305 2825 
Q 1016 2553 972 2059 
L 3022 2063 
z
" transform="scale(0.015625)"/>
       <path id="DejaVuSans-74" d="M 1172 4494 
L 1172 3500 
L 2356 3500 
L 2356 3053 
L 1172 3053 
L 1172 1153 
Q 1172 725 1289 603 
Q 1406 481 1766 481 
L 2356 481 
L 2356 0 
L 1766 0 
Q 1100 0 847 248 
Q 594 497 594 1153 
L 594 3053 
L 172 3053 
L 172 3500 
L 594 3500 
L 594 4494 
L 1172 4494 
z
" transform="scale(0.015625)"/>
       <path id="DejaVuSans-6e" d="M 3513 2113 
L 3513 0 
L 2938 0 
L 2938 2094 
Q 2938 2591 2744 2837 
Q 2550 3084 2163 3084 
Q 1697 3084 1428 2787 
Q 1159 2491 1159 1978 
L 1159 0 
L 581 0 
L 581 3500 
L 1159 3500 
L 1159 2956 
Q 1366 3272 1645 3428 
Q 1925 3584 2291 3584 
Q 2894 3584 3203 3211 
Q 3513 2838 3513 2113 
z
" transform="scale(0.015625)"/>
       <path id="DejaVuSans-69" d="M 603 3500 
L 1178 3500 
L 1178 0 
L 603 0 
L 603 3500 
z
M 603 4863 
L 1178 4863 
L 1178 4134 
L 603 4134 
L 603 4863 
z
" transform="scale(0.015625)"/>
       <path id="DejaVuSans-6f" d="M 1959 3097 
Q 1497 3097 1228 2736 
Q 959 2375 959 1747 
Q 959 1119 1226 758 
Q 1494 397 1959 397 
Q 2419 397 2687 759 
Q 2956 1122 2956 1747 
Q 2956 2369 2687 2733 
Q 2419 3097 1959 3097 
z
M 1959 3584 
Q 2709 3584 3137 3096 
Q 3566 2609 3566 1747 
Q 3566 888 3137 398 
Q 2709 -91 1959 -91 
Q 1206 -91 779 398 
Q 353 888 353 1747 
Q 353 2609 779 3096 
Q 1206 3584 1959 3584 
z
" transform="scale(0.015625)"/>
       <path id="DejaVuSans-20" transform="scale(0.015625)"/>
       <path id="DejaVuSans-54" d="M -19 4666 
L 3928 4666 
L 3928 4134 
L 2272 4134 
L 2272 0 
L 1638 0 
L 1638 4134 
L -19 4134 
L -19 4666 
z
" transform="scale(0.015625)"/>
       <path id="DejaVuSans-6d" d="M 3328 2828 
Q 3544 3216 3844 3400 
Q 4144 3584 4550 3584 
Q 5097 3584 5394 3201 
Q 5691 2819 5691 2113 
L 5691 0 
L 5113 0 
L 5113 2094 
Q 5113 2597 4934 2840 
Q 4756 3084 4391 3084 
Q 3944 3084 3684 2787 
Q 3425 2491 3425 1978 
L 3425 0 
L 2847 0 
L 2847 2094 
Q 2847 2600 2669 2842 
Q 2491 3084 2119 3084 
Q 1678 3084 1418 2786 
Q 1159 2488 1159 1978 
L 1159 0 
L 581 0 
L 581 3500 
L 1159 3500 
L 1159 2956 
Q 1356 3278 1631 3431 
Q 1906 3584 2284 3584 
Q 2666 3584 2933 3390 
Q 3200 3197 3328 2828 
z
" transform="scale(0.015625)"/>
       <path id="DejaVuSans-28" d="M 1984 4856 
Q 1566 4138 1362 3434 
Q 1159 2731 1159 2009 
Q 1159 1288 1364 580 
Q 1569 -128 1984 -844 
L 1484 -844 
Q 1016 -109 783 600 
Q 550 1309 550 2009 
Q 550 2706 781 3412 
Q 1013 4119 1484 4856 
L 1984 4856 
z
" transform="scale(0.015625)"/>
       <path id="DejaVuSans-29" d="M 513 4856 
L 1013 4856 
Q 1481 4119 1714 3412 
Q 1947 2706 1947 2009 
Q 1947 1309 1714 600 
Q 1481 -109 1013 -844 
L 513 -844 
Q 928 -128 1133 580 
Q 1338 1288 1338 2009 
Q 1338 2731 1133 3434 
Q 928 4138 513 4856 
z
" transform="scale(0.015625)"/>
      </defs>
      <use xlink:href="#DejaVuSans-52"/>
      <use xlink:href="#DejaVuSans-65" transform="translate(64.982422 0)"/>
      <use xlink:href="#DejaVuSans-74" transform="translate(126.505859 0)"/>
      <use xlink:href="#DejaVuSans-65" transform="translate(165.714844 0)"/>
      <use xlink:href="#DejaVuSans-6e" transform="translate(227.238281 0)"/>
      <use xlink:href="#DejaVuSans-74" transform="translate(290.617188 0)"/>
      <use xlink:href="#DejaVuSans-69" transform="translate(329.826172 0)"/>
      <use xlink:href="#DejaVuSans-6f" transform="translate(357.609375 0)"/>
      <use xlink:href="#DejaVuSans-6e" transform="translate(418.791016 0)"/>
      <use xlink:href="#DejaVuSans-20" transform="translate(482.169922 0)"/>
      <use xlink:href="#DejaVuSans-54" transform="translate(513.957031 0)"/>
      <use xlink:href="#DejaVuSans-69" transform="translate(571.916016 0)"/>
      <use xlink:href="#DejaVuSans-6d" transform="translate(599.699219 0)"/>
      <use xlink:href="#DejaVuSans-65" transform="translate(697.111328 0)"/>
      <use xlink:href="#DejaVuSans-20" transform="translate(758.634766 0)"/>
      <use xlink:href="#DejaVuSans-28" transform="translate(790.421875 0)"/>
      <use xlink:href="#DejaVuSans-6d" transform="translate(829.435547 0)"/>
      <use xlink:href="#DejaVuSans-69" transform="translate(926.847656 0)"/>
      <use xlink:href="#DejaVuSans-6e" transform="translate(954.630859 0)"/>
      <use xlink:href="#DejaVuSans-29" transform="translate(1018.009766 0)"/>
     </g>
    </g>
   </g>
   <g id="matplotlib.axis_2">
    <g id="ytick_1">
     <g id="line2d_7">
      <defs>
       <path id="m89d0ccafbf" d="M 0 0 
L -3.5 0 
" style="stroke: #000000; stroke-width: 0.8"/>
      </defs>
      <g>
       <use xlink:href="#m89d0ccafbf" x="47.72" y="510.940975" style="stroke: #000000; stroke-width: 0.8"/>
      </g>
     </g>
     <g id="text_8">
      <!-- 0.0 -->
      <g style="fill: #0000ff" transform="translate(24.816875 514.740194) scale(0.1 -0.1)">
       <defs>
        <path id="DejaVuSans-2e" d="M 684 794 
L 1344 794 
L 1344 0 
L 684 0 
L 684 794 
z
" transform="scale(0.015625)"/>
       </defs>
       <use xlink:href="#DejaVuSans-30"/>
       <use xlink:href="#DejaVuSans-2e" transform="translate(63.623047 0)"/>
       <use xlink:href="#DejaVuSans-30" transform="translate(95.410156 0)"/>
      </g>
     </g>
    </g>
    <g id="ytick_2">
     <g id="line2d_8">
      <g>
       <use xlink:href="#m89d0ccafbf" x="47.72" y="418.739326" style="stroke: #000000; stroke-width: 0.8"/>
      </g>
     </g>
     <g id="text_9">
      <!-- 0.5 -->
      <g style="fill: #0000ff" transform="translate(24.816875 422.538545) scale(0.1 -0.1)">
       <use xlink:href="#DejaVuSans-30"/>
       <use xlink:href="#DejaVuSans-2e" transform="translate(63.623047 0)"/>
       <use xlink:href="#DejaVuSans-35" transform="translate(95.410156 0)"/>
      </g>
     </g>
    </g>
    <g id="ytick_3">
     <g id="line2d_9">
      <g>
       <use xlink:href="#m89d0ccafbf" x="47.72" y="326.537676" style="stroke: #000000; stroke-width: 0.8"/>
      </g>
     </g>
     <g id="text_10">
      <!-- 1.0 -->
      <g style="fill: #0000ff" transform="translate(24.816875 330.336895) scale(0.1 -0.1)">
       <use xlink:href="#DejaVuSans-31"/>
       <use xlink:href="#DejaVuSans-2e" transform="translate(63.623047 0)"/>
       <use xlink:href="#DejaVuSans-30" transform="translate(95.410156 0)"/>
      </g>
     </g>
    </g>
    <g id="ytick_4">
     <g id="line2d_10">
      <g>
       <use xlink:href="#m89d0ccafbf" x="47.72" y="234.336027" style="stroke: #000000; stroke-width: 0.8"/>
      </g>
     </g>
     <g id="text_11">
      <!-- 1.5 -->
      <g style="fill: #0000ff" transform="translate(24.816875 238.135245) scale(0.1 -0.1)">
       <use xlink:href="#DejaVuSans-31"/>
       <use xlink:href="#DejaVuSans-2e" transform="translate(63.623047 0)"/>
       <use xlink:href="#DejaVuSans-35" transform="translate(95.410156 0)"/>
      </g>
     </g>
    </g>
    <g id="ytick_5">
     <g id="line2d_11">
      <g>
       <use xlink:href="#m89d0ccafbf" x="47.72" y="142.134377" style="stroke: #000000; stroke-width: 0.8"/>
      </g>
     </g>
     <g id="text_12">
      <!-- 2.0 -->
      <g style="fill: #0000ff" transform="translate(24.816875 145.933596) scale(0.1 -0.1)">
       <use xlink:href="#DejaVuSans-32"/>
       <use xlink:href="#DejaVuSans-2e" transform="translate(63.623047 0)"/>
       <use xlink:href="#DejaVuSans-30" transform="translate(95.410156 0)"/>
      </g>
     </g>
    </g>
    <g id="ytick_6">
     <g id="line2d_12">
      <g>
       <use xlink:href="#m89d0ccafbf" x="47.72" y="49.932727" style="stroke: #000000; stroke-width: 0.8"/>
      </g>
     </g>
     <g id="text_13">
      <!-- 2.5 -->
      <g style="fill: #0000ff" transform="translate(24.816875 53.731946) scale(0.1 -0.1)">
       <use xlink:href="#DejaVuSans-32"/>
       <use xlink:href="#DejaVuSans-2e" transform="translate(63.623047 0)"/>
       <use xlink:href="#DejaVuSans-35" transform="translate(95.410156 0)"/>
      </g>
     </g>
    </g>
    <g id="text_14">
     <!-- Normalized Intensity -->
     <g style="fill: #0000ff" transform="translate(18.737187 332.167031) rotate(-90) scale(0.1 -0.1)">
      <defs>
       <path id="DejaVuSans-4e" d="M 628 4666 
L 1478 4666 
L 3547 763 
L 3547 4666 
L 4159 4666 
L 4159 0 
L 3309 0 
L 1241 3903 
L 1241 0 
L 628 0 
L 628 4666 
z
" transform="scale(0.015625)"/>
       <path id="DejaVuSans-72" d="M 2631 2963 
Q 2534 3019 2420 3045 
Q 2306 3072 2169 3072 
Q 1681 3072 1420 2755 
Q 1159 2438 1159 1844 
L 1159 0 
L 581 0 
L 581 3500 
L 1159 3500 
L 1159 2956 
Q 1341 3275 1631 3429 
Q 1922 3584 2338 3584 
Q 2397 3584 2469 3576 
Q 2541 3569 2628 3553 
L 2631 2963 
z
" transform="scale(0.015625)"/>
       <path id="DejaVuSans-61" d="M 2194 1759 
Q 1497 1759 1228 1600 
Q 959 1441 959 1056 
Q 959 750 1161 570 
Q 1363 391 1709 391 
Q 2188 391 2477 730 
Q 2766 1069 2766 1631 
L 2766 1759 
L 2194 1759 
z
M 3341 1997 
L 3341 0 
L 2766 0 
L 2766 531 
Q 2569 213 2275 61 
Q 1981 -91 1556 -91 
Q 1019 -91 701 211 
Q 384 513 384 1019 
Q 384 1609 779 1909 
Q 1175 2209 1959 2209 
L 2766 2209 
L 2766 2266 
Q 2766 2663 2505 2880 
Q 2244 3097 1772 3097 
Q 1472 3097 1187 3025 
Q 903 2953 641 2809 
L 641 3341 
Q 956 3463 1253 3523 
Q 1550 3584 1831 3584 
Q 2591 3584 2966 3190 
Q 3341 2797 3341 1997 
z
" transform="scale(0.015625)"/>
       <path id="DejaVuSans-6c" d="M 603 4863 
L 1178 4863 
L 1178 0 
L 603 0 
L 603 4863 
z
" transform="scale(0.015625)"/>
       <path id="DejaVuSans-7a" d="M 353 3500 
L 3084 3500 
L 3084 2975 
L 922 459 
L 3084 459 
L 3084 0 
L 275 0 
L 275 525 
L 2438 3041 
L 353 3041 
L 353 3500 
z
" transform="scale(0.015625)"/>
       <path id="DejaVuSans-64" d="M 2906 2969 
L 2906 4863 
L 3481 4863 
L 3481 0 
L 2906 0 
L 2906 525 
Q 2725 213 2448 61 
Q 2172 -91 1784 -91 
Q 1150 -91 751 415 
Q 353 922 353 1747 
Q 353 2572 751 3078 
Q 1150 3584 1784 3584 
Q 2172 3584 2448 3432 
Q 2725 3281 2906 2969 
z
M 947 1747 
Q 947 1113 1208 752 
Q 1469 391 1925 391 
Q 2381 391 2643 752 
Q 2906 1113 2906 1747 
Q 2906 2381 2643 2742 
Q 2381 3103 1925 3103 
Q 1469 3103 1208 2742 
Q 947 2381 947 1747 
z
" transform="scale(0.015625)"/>
       <path id="DejaVuSans-49" d="M 628 4666 
L 1259 4666 
L 1259 0 
L 628 0 
L 628 4666 
z
" transform="scale(0.015625)"/>
       <path id="DejaVuSans-73" d="M 2834 3397 
L 2834 2853 
Q 2591 2978 2328 3040 
Q 2066 3103 1784 3103 
Q 1356 3103 1142 2972 
Q 928 2841 928 2578 
Q 928 2378 1081 2264 
Q 1234 2150 1697 2047 
L 1894 2003 
Q 2506 1872 2764 1633 
Q 3022 1394 3022 966 
Q 3022 478 2636 193 
Q 2250 -91 1575 -91 
Q 1294 -91 989 -36 
Q 684 19 347 128 
L 347 722 
Q 666 556 975 473 
Q 1284 391 1588 391 
Q 1994 391 2212 530 
Q 2431 669 2431 922 
Q 2431 1156 2273 1281 
Q 2116 1406 1581 1522 
L 1381 1569 
Q 847 1681 609 1914 
Q 372 2147 372 2553 
Q 372 3047 722 3315 
Q 1072 3584 1716 3584 
Q 2034 3584 2315 3537 
Q 2597 3491 2834 3397 
z
" transform="scale(0.015625)"/>
       <path id="DejaVuSans-79" d="M 2059 -325 
Q 1816 -950 1584 -1140 
Q 1353 -1331 966 -1331 
L 506 -1331 
L 506 -850 
L 844 -850 
Q 1081 -850 1212 -737 
Q 1344 -625 1503 -206 
L 1606 56 
L 191 3500 
L 800 3500 
L 1894 763 
L 2988 3500 
L 3597 3500 
L 2059 -325 
z
" transform="scale(0.015625)"/>
      </defs>
      <use xlink:href="#DejaVuSans-4e"/>
      <use xlink:href="#DejaVuSans-6f" transform="translate(74.804688 0)"/>
      <use xlink:href="#DejaVuSans-72" transform="translate(135.986328 0)"/>
      <use xlink:href="#DejaVuSans-6d" transform="translate(175.349609 0)"/>
      <use xlink:href="#DejaVuSans-61" transform="translate(272.761719 0)"/>
      <use xlink:href="#DejaVuSans-6c" transform="translate(334.041016 0)"/>
      <use xlink:href="#DejaVuSans-69" transform="translate(361.824219 0)"/>
      <use xlink:href="#DejaVuSans-7a" transform="translate(389.607422 0)"/>
      <use xlink:href="#DejaVuSans-65" transform="translate(442.097656 0)"/>
      <use xlink:href="#DejaVuSans-64" transform="translate(503.621094 0)"/>
      <use xlink:href="#DejaVuSans-20" transform="translate(567.097656 0)"/>
      <use xlink:href="#DejaVuSans-49" transform="translate(598.884766 0)"/>
      <use xlink:href="#DejaVuSans-6e" transform="translate(628.376953 0)"/>
      <use xlink:href="#DejaVuSans-74" transform="translate(691.755859 0)"/>
      <use xlink:href="#DejaVuSans-65" transform="translate(730.964844 0)"/>
      <use xlink:href="#DejaVuSans-6e" transform="translate(792.488281 0)"/>
      <use xlink:href="#DejaVuSans-73" transform="translate(855.867188 0)"/>
      <use xlink:href="#DejaVuSans-69" transform="translate(907.966797 0)"/>
      <use xlink:href="#DejaVuSans-74" transform="translate(935.75 0)"/>
      <use xlink:href="#DejaVuSans-79" transform="translate(974.958984 0)"/>
     </g>
    </g>
   </g>
   <g id="line2d_13">
    <path d="M 84.332727 510.940975 
L 149.123196 510.829339 
L 152.790581 510.465385 
L 155.235505 510.264696 
L 158.90289 510.34231 
L 163.792736 510.453224 
L 166.23766 510.169678 
L 169.905045 509.349277 
L 171.127506 509.295493 
L 172.349968 509.417857 
L 178.462277 510.652914 
L 182.129662 510.739488 
L 184.574585 510.690824 
L 187.019508 510.366669 
L 189.464432 510.056593 
L 191.909355 510.096992 
L 195.57674 510.288829 
L 216.358589 510.564098 
L 218.803512 510.299141 
L 221.248435 509.973546 
L 223.693359 510.015997 
L 228.583205 510.559234 
L 232.25059 510.680465 
L 234.695514 510.650929 
L 237.140437 510.396544 
L 239.58536 510.043154 
L 242.030284 510.012533 
L 244.475207 510.155034 
L 245.697669 510.020134 
L 246.920131 509.576368 
L 250.587516 507.276981 
L 251.809977 507.008268 
L 253.032439 507.19745 
L 254.254901 507.714085 
L 256.699824 508.949692 
L 257.922286 509.406228 
L 259.144747 509.712445 
L 261.589671 510.016662 
L 267.701979 510.301593 
L 273.814287 510.370264 
L 309.265676 510.150545 
L 311.710599 509.93203 
L 314.155523 509.631767 
L 316.600446 509.676834 
L 321.490293 510.10912 
L 323.935216 510.119127 
L 326.38014 509.949452 
L 330.047525 509.527265 
L 332.492448 509.577104 
L 344.717065 510.557428 
L 348.38445 510.617308 
L 350.829373 510.517504 
L 356.941682 509.893226 
L 363.05399 509.965382 
L 367.943837 509.667728 
L 376.501068 508.852548 
L 377.72353 508.399542 
L 380.168453 507.022491 
L 381.390915 506.570822 
L 382.613377 506.511704 
L 383.835839 506.808005 
L 387.503224 508.28422 
L 388.725685 508.601792 
L 389.948147 508.22193 
L 391.170609 504.202158 
L 392.39307 489.74313 
L 393.615532 458.097257 
L 396.060455 362.869106 
L 397.282917 331.173955 
L 398.505379 326.537676 
L 399.72784 346.796081 
L 403.395225 446.652938 
L 404.617687 467.178605 
L 405.840149 479.763401 
L 407.06261 487.10277 
L 408.285072 491.652518 
L 409.507534 494.913647 
L 410.729995 497.526138 
L 411.952457 499.664768 
L 413.174919 501.362888 
L 414.39738 502.62936 
L 415.619842 503.376933 
L 416.842304 503.331546 
L 418.064766 502.234266 
L 420.509689 498.419439 
L 421.732151 497.461309 
L 422.954612 497.774036 
L 424.177074 498.996498 
L 425.399536 500.405331 
L 426.621997 501.332049 
L 427.844459 501.506605 
L 430.289382 500.932615 
L 431.511844 501.147915 
L 432.734306 501.869484 
L 435.179229 503.798816 
L 436.401691 504.539097 
L 437.624152 505.030516 
L 438.846614 505.300655 
L 440.069076 505.383257 
L 442.513999 505.137452 
L 444.958922 504.85116 
L 447.403846 504.706851 
L 448.626307 504.378724 
L 449.848769 503.549078 
L 451.071231 501.751367 
L 452.293693 498.536781 
L 454.738616 490.014145 
L 455.961078 487.542881 
L 457.183539 487.36935 
L 458.406001 488.999064 
L 462.073386 496.66634 
L 463.295848 498.786633 
L 464.518309 500.488975 
L 465.740771 501.788679 
L 466.963233 502.766956 
L 468.185694 503.522775 
L 470.630618 504.615644 
L 471.853079 504.984755 
L 473.075541 505.225442 
L 475.520464 505.405307 
L 477.965388 505.630133 
L 485.300158 506.940456 
L 487.745081 507.083696 
L 499.969698 507.168115 
L 503.637083 507.010618 
L 504.859545 506.84641 
L 506.082006 506.542171 
L 507.304468 506.032389 
L 509.749391 504.728494 
L 510.971853 504.432758 
L 512.194315 504.597335 
L 513.416776 505.125643 
L 515.8617 506.4121 
L 517.084161 506.864835 
L 518.306623 507.14026 
L 519.529085 507.265885 
L 521.974008 507.161197 
L 525.641393 506.68269 
L 528.086317 506.718983 
L 530.53124 506.809403 
L 531.753702 506.50561 
L 532.976163 503.696918 
L 534.198625 492.527182 
L 535.421087 466.189321 
L 537.86601 382.054344 
L 539.088472 353.813251 
L 540.310933 350.503149 
L 541.533395 369.652691 
L 543.978318 431.773049 
L 545.20078 456.548362 
L 546.423242 473.135336 
L 547.645703 483.082993 
L 548.868165 488.908777 
L 550.090627 492.662997 
L 551.313088 495.494771 
L 552.53555 497.826122 
L 553.758012 499.717896 
L 554.980474 501.176018 
L 556.202935 502.280935 
L 557.425397 503.154779 
L 558.647859 503.882452 
L 559.87032 504.47632 
L 561.092782 504.897928 
L 562.315244 505.114264 
L 563.537705 505.141313 
L 567.20509 504.884715 
L 568.427552 505.015923 
L 570.872475 505.737164 
L 573.317399 506.54096 
L 575.762322 507.026537 
L 579.429707 507.406374 
L 581.87463 507.517488 
L 584.319554 507.346748 
L 586.764477 507.110195 
L 589.209401 507.250265 
L 591.654324 507.53786 
L 592.876786 507.554564 
L 595.321709 507.256584 
L 597.766632 507.000115 
L 600.211556 507.167124 
L 603.878941 507.67031 
L 607.546326 507.900161 
L 614.881096 508.08249 
L 618.548481 507.840707 
L 620.993404 507.374763 
L 623.438328 506.821149 
L 624.660789 506.753075 
L 629.550636 506.962396 
L 630.773098 506.863488 
L 635.662944 506.057109 
L 636.885406 506.220289 
L 641.775253 507.340574 
L 644.220176 507.471162 
L 650.332484 507.276366 
L 652.777408 507.302733 
L 655.222331 507.040533 
L 657.667255 506.634305 
L 660.112178 506.483433 
L 662.557101 506.563039 
L 665.002025 506.866241 
L 668.66941 507.473619 
L 671.114333 507.616354 
L 677.226641 507.492565 
L 682.116488 507.929572 
L 688.228796 508.002152 
L 701.675875 507.931914 
L 704.120798 507.775747 
L 709.010645 507.327366 
L 712.67803 507.072172 
L 715.122953 506.956194 
L 717.567877 507.23398 
L 721.235262 507.703686 
L 724.902647 507.855595 
L 733.459879 507.984895 
L 738.349725 507.638487 
L 742.01711 507.974656 
L 745.684495 508.192489 
L 757.909112 508.299258 
L 760.354036 508.215249 
L 762.798959 507.936172 
L 766.466344 507.272129 
L 767.688806 507.210969 
L 770.133729 507.468155 
L 772.578652 507.810707 
L 775.023576 507.897409 
L 781.135884 507.730183 
L 786.025731 508.063639 
L 790.915577 508.061755 
L 810.474964 508.050721 
L 816.587273 508.100825 
L 816.587273 508.100825 
" clip-path="url(#pe9a50684f3)" style="fill: none; stroke: #0000ff; stroke-width: 1.5; stroke-linecap: square"/>
   </g>
   <g id="line2d_14">
    <path d="M 90.394915 234.321868 
L 105.179855 234.334236 
L 394.036792 234.28071 
L 394.036792 234.181709 
L 394.378348 234.144146 
L 394.378348 233.921139 
L 394.71917 233.783895 
L 394.71917 233.605572 
L 395.055592 233.659303 
L 395.055592 233.275147 
L 395.386145 233.422234 
L 395.386145 233.186197 
L 395.714499 233.317427 
L 395.714499 232.951645 
L 396.041874 233.289872 
L 396.041874 233.022161 
L 396.36876 233.281565 
L 396.36876 232.873613 
L 396.697113 233.157763 
L 396.697113 232.750318 
L 397.031823 232.954809 
L 397.031823 232.586696 
L 397.358221 232.983682 
L 397.358221 232.695801 
L 398.010771 233.367409 
L 398.010771 233.034716 
L 398.337168 233.279441 
L 398.337168 233.013306 
L 398.663321 233.197614 
L 398.663321 232.887665 
L 398.989473 233.22422 
L 398.989473 232.909887 
L 399.315626 233.10519 
L 399.315626 232.820193 
L 399.641779 233.071125 
L 399.641779 232.750625 
L 399.967932 233.205164 
L 399.967932 232.967995 
L 400.620482 233.603952 
L 400.620482 233.269202 
L 400.946635 233.528802 
L 400.946635 233.213732 
L 401.27401 233.39081 
L 401.27401 233.098974 
L 401.599918 233.025447 
L 402.257603 233.025826 
L 402.257603 232.899362 
L 402.583755 233.250181 
L 402.583755 232.966048 
L 402.910153 233.203098 
L 402.910153 232.84885 
L 403.23655 232.663223 
L 403.889344 232.731595 
L 403.889344 232.724257 
L 404.215497 233.286541 
L 404.215497 232.85157 
L 404.541894 233.152562 
L 404.541894 232.922694 
L 404.868047 233.209544 
L 404.868047 232.885798 
L 405.194689 233.298155 
L 405.194689 233.020201 
L 405.521575 233.24266 
L 405.521575 232.908056 
L 405.848217 233.245143 
L 405.848217 232.737968 
L 406.174859 233.004643 
L 406.174859 232.653728 
L 406.501501 232.987012 
L 406.501501 232.602135 
L 406.833521 233.079244 
L 406.833521 232.811011 
L 407.16383 233.168775 
L 407.16383 232.910629 
L 407.490472 233.267633 
L 407.490472 232.965721 
L 407.817358 233.272247 
L 407.817358 232.997059 
L 408.144 233.32249 
L 408.144 233.009395 
L 408.470886 233.317338 
L 408.470886 232.937908 
L 408.798995 233.238428 
L 408.798995 232.937448 
L 409.125881 233.222899 
L 409.125881 232.838099 
L 409.452767 233.213124 
L 409.452767 232.847176 
L 409.779898 233.192177 
L 409.779898 232.951116 
L 410.106784 233.334902 
L 410.106784 233.10536 
L 410.433915 233.475378 
L 410.433915 233.094527 
L 410.761046 233.386527 
L 410.761046 233.03823 
L 411.088177 233.260312 
L 411.088177 232.95037 
L 411.415552 233.313487 
L 411.415552 232.907308 
L 411.748062 233.249803 
L 411.748062 232.956187 
L 412.075437 233.276542 
L 412.075437 232.975383 
L 412.402812 233.352605 
L 412.402812 232.991522 
L 412.729943 233.314003 
L 412.729943 232.998641 
L 413.057318 233.305121 
L 413.057318 232.953202 
L 413.384938 233.324162 
L 413.384938 232.999142 
L 413.712313 233.304534 
L 413.712313 232.874392 
L 414.039933 233.217288 
L 414.039933 232.894459 
L 414.367797 233.203071 
L 414.367797 232.830011 
L 414.695661 233.225049 
L 414.695661 232.964401 
L 415.684877 233.048175 
L 416.012741 233.321143 
L 416.012741 233.048319 
L 416.341095 233.343303 
L 416.341095 232.972208 
L 416.674827 233.214348 
L 416.674827 232.950277 
L 417.002935 233.266021 
L 417.002935 232.982249 
L 417.331289 233.349257 
L 417.331289 233.117396 
L 417.659642 233.403024 
L 417.659642 233.053219 
L 417.987995 233.3429 
L 417.987995 233.034319 
L 418.316348 233.257258 
L 418.316348 232.945615 
L 418.644457 233.274083 
L 418.644457 232.9833 
L 418.973299 233.287898 
L 418.973299 233.009349 
L 419.302141 233.330912 
L 419.302141 233.08571 
L 419.631228 233.402006 
L 419.631228 233.101939 
L 419.96007 233.403826 
L 419.96007 233.142587 
L 420.289646 233.410067 
L 420.289646 233.174918 
L 420.618977 233.516083 
L 420.618977 233.33812 
L 420.947575 233.59914 
L 420.947575 233.347022 
L 421.276417 233.580449 
L 421.276417 233.332251 
L 421.610882 233.521673 
L 421.610882 233.295854 
L 421.939725 233.564937 
L 421.939725 233.383684 
L 422.2693 233.622803 
L 422.2693 233.444004 
L 423.257049 233.495869 
L 423.257049 233.536789 
L 423.586625 233.785201 
L 423.586625 233.615412 
L 423.916201 233.816734 
L 423.916201 233.625749 
L 424.579508 233.810835 
L 424.579508 233.590734 
L 424.909328 233.753924 
L 424.909328 233.573885 
L 425.238904 233.669066 
L 425.238904 233.496711 
L 425.568969 233.696186 
L 425.568969 233.527543 
L 425.899278 233.701244 
L 425.899278 233.5041 
L 426.229587 233.715619 
L 426.229587 233.556659 
L 426.89754 233.832699 
L 426.89754 233.651349 
L 427.228338 233.837156 
L 427.228338 233.724247 
L 427.558892 233.862865 
L 427.558892 233.664033 
L 427.889446 233.814518 
L 427.889446 233.634382 
L 428.220244 233.715071 
L 428.220244 233.557578 
L 428.551775 233.767603 
L 428.551775 233.642033 
L 428.883307 233.810037 
L 428.883307 233.675064 
L 429.215327 233.821269 
L 429.215327 233.654719 
L 429.547348 233.777371 
L 429.547348 233.620276 
L 429.879613 233.781294 
L 429.879613 233.636693 
L 430.210656 233.828635 
L 430.210656 233.71966 
L 430.542187 233.858654 
L 430.542187 233.716667 
L 430.873963 233.886569 
L 430.873963 233.74709 
L 431.541672 233.903662 
L 431.541672 233.782585 
L 432.203513 233.943364 
L 432.203513 233.875943 
L 432.863153 234.031045 
L 432.863153 233.941186 
L 433.192729 234.040555 
L 433.192729 233.872827 
L 434.187568 233.7849 
L 434.187568 233.843796 
L 434.847697 233.95352 
L 434.847697 233.858756 
L 435.509783 233.981974 
L 435.509783 233.850096 
L 436.172357 233.964329 
L 436.172357 233.810591 
L 436.510979 233.933759 
L 436.510979 233.81267 
L 436.843488 233.895522 
L 436.843488 233.733026 
L 437.175998 233.881884 
L 437.175998 233.738659 
L 437.50973 233.839235 
L 437.50973 233.720473 
L 437.84444 233.870387 
L 437.84444 233.74756 
L 438.512638 233.941342 
L 438.512638 233.818796 
L 438.847348 233.934692 
L 438.847348 233.789524 
L 439.182302 233.898176 
L 439.182302 233.780751 
L 441.196919 233.933871 
L 441.196919 233.817461 
L 442.222075 233.762587 
L 442.222075 233.763427 
L 442.561186 233.943046 
L 442.561186 233.845673 
L 442.897852 233.956524 
L 442.897852 233.815691 
L 443.23574 233.897792 
L 443.23574 233.760578 
L 443.574118 233.852665 
L 443.574118 233.728187 
L 444.249406 233.927094 
L 444.249406 233.80482 
L 444.588028 233.92662 
L 444.588028 233.834112 
L 445.263315 233.970889 
L 445.263315 233.871613 
L 445.939337 233.915637 
L 445.939337 233.809552 
L 446.619025 233.938082 
L 446.619025 233.837255 
L 447.296514 233.993447 
L 447.296514 233.906507 
L 447.971557 234.007381 
L 447.971557 233.893684 
L 448.645622 234.006113 
L 448.645622 233.948205 
L 449.320666 234.047902 
L 449.320666 233.94415 
L 450.336042 234.062506 
L 450.336042 233.991711 
L 450.675153 234.060296 
L 450.675153 233.943522 
L 451.352886 233.995195 
L 451.352886 233.933534 
L 452.043332 234.06826 
L 452.043332 234.004719 
L 452.723021 234.07151 
L 452.723021 233.995225 
L 454.068462 234.17167 
L 454.068462 234.115978 
L 455.729543 234.175118 
L 457.3784 234.249561 
L 460.330889 234.28353 
L 460.330889 234.269746 
L 463.953288 234.201369 
L 463.953288 234.204854 
L 465.595054 234.199894 
L 471.868238 234.082516 
L 472.52959 234.147901 
L 472.52959 234.114436 
L 473.191675 234.156088 
L 473.191675 234.113817 
L 474.851778 234.058325 
L 475.517775 234.126633 
L 475.517775 234.0811 
L 484.964959 234.060652 
L 484.964959 233.978972 
L 485.646114 234.06099 
L 485.646114 233.99152 
L 485.987915 234.06451 
L 485.987915 234.016809 
L 487.015027 233.972966 
L 487.701806 234.029242 
L 487.701806 233.957855 
L 488.383206 234.029306 
L 488.383206 233.951915 
L 489.405184 234.025547 
L 489.405184 233.987542 
L 491.108318 233.941038 
L 491.794852 234.041722 
L 491.794852 233.994072 
L 492.476252 234.03963 
L 492.476252 233.986299 
L 493.498475 234.050446 
L 493.498475 233.967345 
L 494.180364 234.031905 
L 494.180364 233.960489 
L 494.86372 234.039978 
L 494.86372 233.988977 
L 495.54512 234.04366 
L 495.54512 233.983808 
L 496.232144 234.048386 
L 496.232144 233.957011 
L 497.260234 234.062786 
L 497.260234 233.988721 
L 497.941879 234.041038 
L 497.941879 233.97645 
L 498.623279 234.060479 
L 498.623279 234.000328 
L 499.304679 234.068488 
L 499.304679 233.959158 
L 499.986079 234.036922 
L 499.986079 233.969893 
L 500.326657 234.052198 
L 500.326657 233.970382 
L 501.348635 234.040912 
L 501.348635 233.976571 
L 502.375747 234.01447 
L 502.375747 233.96513 
L 502.716325 234.016943 
L 502.716325 233.889015 
L 503.402615 233.940517 
L 503.402615 233.889299 
L 504.083771 234.022893 
L 504.083771 233.958314 
L 505.105748 234.047954 
L 505.105748 233.976973 
L 506.127482 234.057134 
L 506.127482 233.97343 
L 506.808393 234.017434 
L 506.808393 233.9338 
L 507.494683 234.021028 
L 507.494683 233.957094 
L 508.175839 234.050715 
L 508.175839 233.957 
L 508.857239 234.026569 
L 508.857239 233.949203 
L 509.53815 234.057187 
L 509.53815 233.941497 
L 510.219061 233.977573 
L 510.219061 233.886433 
L 510.899972 233.987915 
L 510.899972 233.874504 
L 511.235171 233.949403 
L 511.235171 233.786596 
L 511.570126 233.861532 
L 511.570126 233.74455 
L 511.904591 233.837182 
L 511.904591 233.694898 
L 512.248592 233.829297 
L 512.248592 233.671407 
L 512.580368 233.777118 
L 512.580368 233.617467 
L 512.9119 233.752249 
L 512.9119 233.582861 
L 513.244898 233.74933 
L 513.244898 233.567937 
L 513.576185 233.74932 
L 513.576185 233.577805 
L 513.908451 233.750351 
L 513.908451 233.577185 
L 514.24096 233.741615 
L 514.24096 233.593519 
L 514.57347 233.755353 
L 514.57347 233.628616 
L 514.905979 233.780906 
L 514.905979 233.631201 
L 515.239222 233.779051 
L 515.239222 233.648829 
L 515.906442 233.86175 
L 515.906442 233.759781 
L 516.240418 233.916009 
L 516.240418 233.811198 
L 516.574884 233.943495 
L 516.574884 233.849928 
L 516.908127 233.944079 
L 516.908127 233.809404 
L 517.586838 233.921826 
L 517.586838 233.82122 
L 517.923015 233.953257 
L 517.923015 233.827339 
L 518.600014 233.904517 
L 518.600014 233.829302 
L 518.937658 233.958366 
L 518.937658 233.853754 
L 519.618569 233.986682 
L 519.618569 233.90062 
L 519.95768 234.000516 
L 519.95768 233.897641 
L 521.319258 233.955866 
L 521.319258 233.896169 
L 522.351749 233.973777 
L 522.351749 233.910313 
L 523.032905 233.904228 
L 523.032905 233.875305 
L 524.737261 233.796205 
L 524.737261 233.850095 
L 525.758994 233.847201 
L 525.758994 233.795385 
L 527.466284 233.781699 
L 528.14475 233.767272 
L 529.168684 233.875049 
L 529.168684 233.830883 
L 529.848128 233.845666 
L 529.848128 233.774439 
L 531.208484 233.775662 
L 531.208484 233.721094 
L 531.549062 233.737152 
L 531.549062 233.661163 
L 532.575685 233.519955 
L 532.91504 233.649195 
L 532.91504 233.548735 
L 533.583482 233.622145 
L 533.583482 233.529246 
L 534.251435 233.461232 
L 534.251435 233.516858 
L 535.252387 233.515766 
L 535.252387 233.549469 
L 535.587097 233.62265 
L 535.587097 233.586601 
L 535.921562 233.537611 
L 535.921562 233.39347 
L 536.256517 233.22776 
L 536.256517 232.451482 
L 536.590738 231.903559 
L 536.590738 229.860638 
L 536.924959 228.975501 
L 536.924959 224.781371 
L 537.255268 223.489703 
L 537.255268 216.313574 
L 537.588756 215.310186 
L 537.588756 203.300175 
L 537.916131 203.602321 
L 537.916131 187.704924 
L 538.242773 190.078739 
L 538.242773 172.896597 
L 538.56917 178.758883 
L 538.56917 156.056055 
L 538.895567 167.304059 
L 538.895567 136.48599 
L 539.221965 146.159758 
L 539.221965 109.429681 
L 539.548117 126.514477 
L 539.548117 89.992578 
L 539.87427 114.746155 
L 539.87427 79.49296 
L 540.200178 113.02896 
L 540.200178 77.513175 
L 540.526087 107.212121 
L 540.526087 68.938966 
L 540.85664 102.607594 
L 540.85664 63.002016 
L 541.182549 95.463679 
L 541.182549 55.351503 
L 541.508701 92.112273 
L 541.508701 49.932727 
L 541.83461 87.543375 
L 541.83461 50.463344 
L 542.160762 94.611131 
L 542.160762 55.194172 
L 542.492294 99.52921 
L 542.492294 59.600945 
L 542.818691 97.698415 
L 542.818691 62.475785 
L 543.1446 106.758525 
L 543.1446 73.806661 
L 543.470752 115.556345 
L 543.470752 86.13425 
L 543.796905 121.547417 
L 543.796905 91.058027 
L 544.122813 125.132382 
L 544.122813 99.171261 
L 544.448966 133.565793 
L 544.448966 106.580306 
L 544.774874 137.157335 
L 544.774874 115.174027 
L 545.101027 143.44361 
L 545.101027 119.731131 
L 545.427913 150.757798 
L 545.427913 127.144115 
L 545.754066 150.309303 
L 545.754066 128.74284 
L 546.080464 152.988202 
L 546.080464 131.111422 
L 546.406861 156.370255 
L 546.406861 138.623892 
L 546.733258 161.638749 
L 546.733258 143.275005 
L 547.059655 165.480666 
L 547.059655 146.608016 
L 547.391431 166.669917 
L 547.391431 153.059802 
L 547.717829 172.906854 
L 547.717829 154.034031 
L 548.044226 174.170124 
L 548.044226 157.054373 
L 548.370868 172.406389 
L 548.370868 158.603649 
L 548.697754 177.684407 
L 548.697754 162.597509 
L 549.024151 181.553916 
L 549.024151 166.55829 
L 549.350793 180.901586 
L 549.350793 167.481724 
L 549.681102 182.998335 
L 549.681102 169.953785 
L 550.007744 186.667033 
L 550.007744 173.690597 
L 550.334386 187.616179 
L 550.334386 175.911605 
L 550.661027 189.82275 
L 550.661027 176.153917 
L 550.987669 190.591322 
L 550.987669 179.721919 
L 551.3148 192.163849 
L 551.3148 179.728968 
L 551.641686 193.094118 
L 551.641686 181.485827 
L 551.968572 194.100093 
L 551.968572 183.861699 
L 552.300838 196.658282 
L 552.300838 186.029742 
L 552.627479 197.283304 
L 552.627479 187.705864 
L 552.955832 199.010657 
L 552.955832 189.733674 
L 553.282719 201.197034 
L 553.282719 192.313139 
L 553.609605 201.332765 
L 553.609605 192.073952 
L 553.936491 201.945528 
L 553.936491 193.824982 
L 554.263377 203.391762 
L 554.263377 196.20378 
L 554.590753 205.896142 
L 554.590753 197.387566 
L 554.918128 206.46232 
L 554.918128 201.13806 
L 555.245259 209.043925 
L 555.245259 201.99133 
L 555.572389 210.169051 
L 555.572389 203.284985 
L 555.89952 209.024158 
L 555.89952 202.817695 
L 556.22714 210.611448 
L 556.22714 205.094637 
L 556.554515 212.425514 
L 556.554515 206.453522 
L 556.882135 213.536758 
L 556.882135 207.920425 
L 557.215133 214.049443 
L 557.215133 209.548374 
L 557.542509 216.409776 
L 557.542509 211.628381 
L 557.869884 217.770029 
L 557.869884 212.612068 
L 558.197504 217.241717 
L 558.197504 212.693522 
L 558.530013 217.748606 
L 558.530013 214.069247 
L 558.858122 219.65548 
L 558.858122 216.123968 
L 559.185986 220.648342 
L 559.185986 216.885431 
L 559.51385 220.924505 
L 559.51385 216.303322 
L 559.841715 220.060839 
L 559.841715 216.221074 
L 560.169579 220.231424 
L 560.169579 216.716553 
L 560.497688 221.30279 
L 560.497688 217.951899 
L 560.826041 222.182319 
L 560.826041 218.77258 
L 561.154394 222.240331 
L 561.154394 219.342503 
L 561.482747 223.049823 
L 561.482747 220.080037 
L 561.8111 223.807932 
L 561.8111 220.636323 
L 562.144832 223.906243 
L 562.144832 221.017088 
L 562.47343 224.038635 
L 562.47343 221.258289 
L 562.801783 224.524955 
L 562.801783 221.643565 
L 563.130137 224.653162 
L 563.130137 221.92769 
L 563.458979 224.855036 
L 563.458979 222.493768 
L 563.787576 225.352418 
L 563.787576 222.466511 
L 564.131333 225.292996 
L 564.131333 223.065463 
L 564.460419 225.417487 
L 564.460419 223.432883 
L 564.791462 226.378901 
L 564.791462 223.825857 
L 565.120793 225.993527 
L 565.120793 224.182412 
L 565.449635 226.462592 
L 565.449635 223.908606 
L 565.778722 226.730444 
L 565.778722 224.634294 
L 566.10732 226.674014 
L 566.10732 224.65162 
L 566.436406 227.168234 
L 566.436406 224.886229 
L 566.766227 227.141749 
L 566.766227 224.984129 
L 567.100692 226.982459 
L 567.100692 225.140603 
L 567.434424 227.275265 
L 567.434424 225.303593 
L 567.764 227.731747 
L 567.764 225.98773 
L 568.094064 228.0852 
L 568.094064 226.450595 
L 568.423396 228.555198 
L 568.423396 226.84035 
L 568.75346 228.612169 
L 568.75346 226.937611 
L 569.083525 228.715199 
L 569.083525 227.158635 
L 569.413101 228.656615 
L 569.413101 227.274633 
L 569.74341 228.99397 
L 569.74341 227.419421 
L 570.073474 228.767549 
L 570.073474 227.321647 
L 570.404028 228.893541 
L 570.404028 227.297164 
L 570.733848 228.769955 
L 570.733848 227.425266 
L 571.064402 228.998925 
L 571.064402 227.465564 
L 571.394955 229.023736 
L 571.394955 227.735587 
L 571.725509 229.353554 
L 571.725509 227.945883 
L 572.061442 229.560451 
L 572.061442 228.231294 
L 572.391506 229.613281 
L 572.391506 228.170366 
L 572.722793 229.740549 
L 572.722793 228.326011 
L 573.05408 229.770516 
L 573.05408 228.502134 
L 573.384634 229.923263 
L 573.384634 228.452402 
L 573.715188 229.742797 
L 573.715188 228.442463 
L 574.047453 229.804961 
L 574.047453 228.557584 
L 574.378495 229.984627 
L 574.378495 228.846185 
L 574.709294 230.196828 
L 574.709294 228.995777 
L 575.04107 230.225925 
L 575.04107 229.130058 
L 575.372357 230.429119 
L 575.372357 229.296527 
L 575.703888 230.552028 
L 575.703888 229.529537 
L 576.035909 230.746641 
L 576.035909 229.539051 
L 576.367441 230.660918 
L 576.367441 229.479033 
L 576.699461 230.524129 
L 576.699461 229.310637 
L 577.041506 230.465919 
L 577.041506 229.541704 
L 577.373282 230.740472 
L 577.373282 229.719907 
L 577.704814 230.889606 
L 577.704814 229.803677 
L 578.037079 230.698263 
L 578.037079 229.74528 
L 578.369099 230.78639 
L 578.369099 229.799518 
L 578.701853 230.877743 
L 578.701853 229.933881 
L 579.034852 230.938979 
L 579.034852 229.881134 
L 579.367117 230.882093 
L 579.367117 230.001143 
L 579.700116 230.991995 
L 579.700116 229.955013 
L 580.033114 231.030329 
L 580.033114 230.275854 
L 580.36489 231.229516 
L 580.36489 230.420075 
L 580.697889 231.462436 
L 580.697889 230.578595 
L 581.02942 231.430161 
L 581.02942 230.570144 
L 581.362908 231.366563 
L 581.362908 230.515657 
L 581.695418 231.432074 
L 581.695418 230.637134 
L 582.032328 231.48404 
L 582.032328 230.75176 
L 582.365571 231.609472 
L 582.365571 230.786481 
L 582.697592 231.528106 
L 582.697592 230.8456 
L 583.029857 231.545847 
L 583.029857 230.678652 
L 583.361877 231.543986 
L 583.361877 230.80298 
L 583.695854 231.555914 
L 583.695854 230.769915 
L 584.030564 231.631441 
L 584.030564 230.871212 
L 584.365518 231.606036 
L 584.365518 230.851743 
L 584.69925 231.724965 
L 584.69925 230.959787 
L 585.032249 231.777461 
L 585.032249 231.19005 
L 585.366959 231.843934 
L 585.366959 231.144586 
L 585.700447 231.941332 
L 585.700447 231.253532 
L 586.034912 231.954931 
L 586.034912 231.361702 
L 586.368889 232.1163 
L 586.368889 231.385948 
L 586.703354 231.979301 
L 586.703354 231.301698 
L 587.046621 232.017123 
L 587.046621 231.226299 
L 587.381087 232.001485 
L 587.381087 231.341329 
L 587.714819 232.015972 
L 587.714819 231.323863 
L 588.050262 232.127753 
L 588.050262 231.523057 
L 588.384728 232.20425 
L 588.384728 231.618013 
L 588.721394 232.286321 
L 588.721394 231.64612 
L 589.05537 232.226672 
L 589.05537 231.711593 
L 589.389836 232.26315 
L 589.389836 231.774846 
L 589.725035 232.352097 
L 589.725035 231.792455 
L 590.059256 232.342091 
L 590.059256 231.828361 
L 590.392499 232.331006 
L 590.392499 231.82427 
L 590.727209 232.436088 
L 590.727209 231.960273 
L 591.060207 232.490942 
L 591.060207 231.947164 
L 591.394673 232.51559 
L 591.394673 231.895105 
L 591.730605 232.332239 
L 591.730605 231.767768 
L 592.07045 232.32836 
L 592.07045 231.834352 
L 592.406382 232.401903 
L 592.406382 231.924 
L 592.740603 232.489929 
L 592.740603 232.029394 
L 593.076291 232.522164 
L 593.076291 232.009104 
L 593.414669 232.582007 
L 593.414669 232.07636 
L 593.750601 232.512727 
L 593.750601 232.020762 
L 594.085067 232.582289 
L 594.085067 232.084178 
L 594.424667 232.60438 
L 594.424667 232.142329 
L 594.76011 232.59141 
L 594.76011 232.131747 
L 595.096042 232.630884 
L 595.096042 232.185004 
L 595.434175 232.70251 
L 595.434175 232.250316 
L 595.771819 232.706988 
L 595.771819 232.287922 
L 596.109952 232.772161 
L 596.109952 232.287993 
L 596.449797 232.813608 
L 596.449797 232.394998 
L 596.785485 232.810246 
L 596.785485 232.392263 
L 597.127529 232.88368 
L 597.127529 232.463931 
L 597.463462 232.854921 
L 597.463462 232.346432 
L 597.800372 232.734197 
L 597.800372 232.252407 
L 598.140217 232.656187 
L 598.140217 232.221142 
L 598.480061 232.717721 
L 598.480061 232.338322 
L 598.817949 232.801091 
L 598.817949 232.376927 
L 599.156327 232.840576 
L 599.156327 232.482034 
L 599.492015 232.869341 
L 599.492015 232.480793 
L 599.829414 232.881675 
L 599.829414 232.540002 
L 600.166325 232.92829 
L 600.166325 232.499879 
L 600.503724 232.935603 
L 600.503724 232.564658 
L 600.844057 232.911378 
L 600.844057 232.516383 
L 601.180479 232.979509 
L 601.180479 232.595455 
L 601.518367 232.985103 
L 601.518367 232.682817 
L 601.859189 233.067061 
L 601.859189 232.679257 
L 602.204168 233.059964 
L 602.204168 232.663628 
L 602.54768 232.988376 
L 602.54768 232.560619 
L 602.887035 232.928732 
L 602.887035 232.586517 
L 603.227858 233.018683 
L 603.227858 232.671668 
L 603.568435 233.091138 
L 603.568435 232.70697 
L 603.906568 233.023523 
L 603.906568 232.669153 
L 604.246168 233.006983 
L 604.246168 232.7407 
L 604.586012 233.144251 
L 604.586012 232.860734 
L 604.925612 233.180488 
L 604.925612 232.781125 
L 605.262034 233.073369 
L 605.262034 232.700291 
L 605.601634 233.009548 
L 605.601634 232.675164 
L 605.940989 233.077575 
L 605.940989 232.740735 
L 606.281811 233.115054 
L 606.281811 232.791261 
L 606.621167 233.186706 
L 606.621167 232.865398 
L 606.961256 233.206048 
L 606.961256 232.91295 
L 607.307212 233.229039 
L 607.307212 232.848297 
L 607.646079 233.176394 
L 607.646079 232.863901 
L 607.985923 233.167432 
L 607.985923 232.834844 
L 608.326256 233.191336 
L 608.326256 232.949828 
L 608.667079 233.282515 
L 608.667079 232.976574 
L 609.008145 233.324673 
L 609.008145 232.947875 
L 609.348234 233.188562 
L 609.348234 232.847327 
L 609.689057 233.155073 
L 609.689057 232.801432 
L 610.029879 233.194365 
L 610.029879 232.834001 
L 610.370946 233.16926 
L 610.370946 232.869851 
L 610.711034 233.20631 
L 610.711034 232.858894 
L 611.056747 233.258682 
L 611.056747 232.945484 
L 611.397324 233.238806 
L 611.397324 232.968012 
L 611.738147 233.319407 
L 611.738147 232.986994 
L 612.077502 233.316631 
L 612.077502 233.003353 
L 612.421258 233.294528 
L 612.421258 233.037999 
L 612.761592 233.314424 
L 612.761592 232.96926 
L 613.103636 233.306454 
L 613.103636 233.008871 
L 613.444459 233.249228 
L 613.444459 232.987246 
L 613.785281 233.334372 
L 613.785281 233.016923 
L 614.126348 233.336685 
L 614.126348 233.060378 
L 614.46717 233.361795 
L 614.46717 233.041088 
L 614.809704 233.359454 
L 614.809704 233.022155 
L 615.150771 233.308964 
L 615.150771 233.038912 
L 615.491838 233.32726 
L 615.491838 232.979654 
L 615.83266 233.308318 
L 615.83266 233.005178 
L 616.172504 233.262426 
L 616.172504 233.049878 
L 616.513082 233.377775 
L 616.513082 233.08655 
L 616.853904 233.418023 
L 616.853904 233.187098 
L 617.194482 233.421109 
L 617.194482 233.188247 
L 617.540439 233.465823 
L 617.540439 233.16515 
L 617.881261 233.424947 
L 617.881261 233.130151 
L 618.221839 233.388874 
L 618.221839 233.159221 
L 618.562661 233.445253 
L 618.562661 233.239063 
L 618.903239 233.526821 
L 618.903239 233.291204 
L 619.243817 233.563538 
L 619.243817 233.345781 
L 619.584395 233.551969 
L 619.584395 233.307053 
L 619.930107 233.513156 
L 619.930107 233.292215 
L 620.270685 233.506444 
L 620.270685 233.248827 
L 620.611018 233.521012 
L 620.611018 233.271678 
L 620.951596 233.480081 
L 620.951596 233.269466 
L 621.291929 233.519166 
L 621.291929 233.282093 
L 621.632507 233.559244 
L 621.632507 233.317037 
L 621.972596 233.526581 
L 621.972596 233.36296 
L 622.311951 233.599689 
L 622.311951 233.410318 
L 622.657663 233.640299 
L 622.657663 233.44302 
L 622.996774 233.629649 
L 622.996774 233.443783 
L 623.333929 233.637255 
L 623.333929 233.474707 
L 625.340967 233.64031 
L 625.671765 233.823472 
L 625.671765 233.64311 
L 626.003297 233.781558 
L 626.003297 233.636843 
L 626.33385 233.767497 
L 626.33385 233.625226 
L 626.999847 233.856452 
L 626.999847 233.717248 
L 627.330646 233.850103 
L 627.330646 233.688695 
L 627.668045 233.800759 
L 627.668045 233.662272 
L 627.998843 233.805076 
L 627.998843 233.658187 
L 628.33013 233.842927 
L 628.33013 233.709679 
L 628.661906 233.840413 
L 628.661906 233.703887 
L 628.994171 233.870769 
L 628.994171 233.716072 
L 629.326925 233.839318 
L 629.326925 233.680874 
L 629.659435 233.811099 
L 629.659435 233.647941 
L 629.992923 233.789609 
L 629.992923 233.640525 
L 630.325432 233.791863 
L 630.325432 233.648393 
L 630.656964 233.793878 
L 630.656964 233.657163 
L 630.988251 233.823428 
L 630.988251 233.688232 
L 631.653026 233.844601 
L 631.653026 233.714524 
L 631.987736 233.866986 
L 631.987736 233.716859 
L 632.32269 233.850688 
L 632.32269 233.711593 
L 632.662534 233.815409 
L 632.662534 233.684617 
L 632.998467 233.852223 
L 632.998467 233.728876 
L 633.669354 233.898586 
L 633.669354 233.813088 
L 634.347087 233.962743 
L 634.347087 233.84981 
L 634.686931 233.942117 
L 634.686931 233.824096 
L 635.025308 233.916724 
L 635.025308 233.797787 
L 636.027971 233.799565 
L 636.027971 233.818643 
L 636.359747 233.962864 
L 636.359747 233.823389 
L 637.021099 233.931135 
L 637.021099 233.817668 
L 637.351653 233.944378 
L 637.351653 233.83804 
L 638.017894 233.953086 
L 638.017894 233.879644 
L 638.679002 233.998041 
L 638.679002 233.896103 
L 639.012489 233.978716 
L 639.012489 233.853926 
L 639.343776 233.962865 
L 639.343776 233.814977 
L 639.675308 233.911172 
L 639.675308 233.787358 
L 640.339105 233.943363 
L 640.339105 233.837018 
L 640.672103 233.964721 
L 640.672103 233.841077 
L 641.005835 233.947995 
L 641.005835 233.802502 
L 641.341034 233.899661 
L 641.341034 233.768822 
L 641.673544 233.904174 
L 641.673544 233.756237 
L 642.344431 233.94698 
L 642.344431 233.816402 
L 642.685498 233.969374 
L 642.685498 233.853168 
L 643.021919 233.935823 
L 643.021919 233.810761 
L 643.692073 233.912546 
L 643.692073 233.794369 
L 644.375429 233.928385 
L 644.375429 233.798741 
L 645.052183 233.919947 
L 645.052183 233.806537 
L 645.730161 233.974207 
L 645.730161 233.833996 
L 646.07025 233.953346 
L 646.07025 233.836044 
L 646.40716 233.932811 
L 646.40716 233.804302 
L 647.088316 233.980062 
L 647.088316 233.917103 
L 647.428404 234.031022 
L 647.428404 233.879488 
L 647.773628 233.981778 
L 647.773628 233.861228 
L 648.113961 233.931795 
L 648.113961 233.816511 
L 648.452094 233.965561 
L 648.452094 233.827374 
L 648.791938 233.929611 
L 648.791938 233.797742 
L 649.468204 233.919658 
L 649.468204 233.835736 
L 650.139335 233.972003 
L 650.139335 233.865636 
L 650.473557 233.953192 
L 650.473557 233.829602 
L 650.807289 233.937669 
L 650.807289 233.803371 
L 651.147377 233.901851 
L 651.147377 233.775306 
L 651.817775 233.888988 
L 651.817775 233.825343 
L 652.151752 233.942415 
L 652.151752 233.83133 
L 652.828507 233.92589 
L 652.828507 233.827605 
L 653.165173 233.957746 
L 653.165173 233.858085 
L 653.83606 233.990248 
L 653.83606 233.904313 
L 654.171992 234.016822 
L 654.171992 233.862652 
L 654.507436 233.958595 
L 654.507436 233.842169 
L 654.843368 233.916714 
L 654.843368 233.786045 
L 655.179056 233.930406 
L 655.179056 233.837802 
L 655.512788 233.950231 
L 655.512788 233.818941 
L 655.850432 233.954739 
L 655.850432 233.822054 
L 656.522297 233.932571 
L 656.522297 233.7519 
L 657.193917 233.882532 
L 657.193917 233.761389 
L 657.530583 233.928126 
L 657.530583 233.828895 
L 657.871895 233.955296 
L 657.871895 233.828714 
L 658.542048 233.95907 
L 658.542048 233.815387 
L 658.878959 233.937977 
L 658.878959 233.795228 
L 659.553757 233.941963 
L 659.553757 233.819306 
L 659.889445 233.974051 
L 659.889445 233.843039 
L 660.565467 233.937199 
L 660.565467 233.816298 
L 660.904822 233.938077 
L 660.904822 233.810405 
L 661.583777 233.911417 
L 661.583777 233.786697 
L 662.25931 233.916532 
L 662.25931 233.796551 
L 662.59622 233.916004 
L 662.59622 233.807534 
L 663.276642 233.933499 
L 663.276642 233.795621 
L 663.613797 233.927942 
L 663.613797 233.796798 
L 663.954619 233.912249 
L 663.954619 233.791373 
L 664.291285 233.926338 
L 664.291285 233.779273 
L 664.631619 233.905548 
L 664.631619 233.781509 
L 664.97073 233.900105 
L 664.97073 233.767342 
L 665.311063 233.914453 
L 665.311063 233.812824 
L 665.651641 233.912316 
L 665.651641 233.780907 
L 665.988796 233.904725 
L 665.988796 233.777949 
L 666.668729 233.934587 
L 666.668729 233.812148 
L 667.009307 233.937651 
L 667.009307 233.802927 
L 667.349884 233.902768 
L 667.349884 233.75644 
L 668.036663 233.912903 
L 668.036663 233.792625 
L 668.375041 233.939414 
L 668.375041 233.811889 
L 669.056441 233.944261 
L 669.056441 233.809614 
L 669.397263 233.927184 
L 669.397263 233.804158 
L 670.077441 233.924961 
L 670.077441 233.841957 
L 670.418019 233.958514 
L 670.418019 233.82005 
L 670.763731 233.934364 
L 670.763731 233.798426 
L 671.104064 233.896734 
L 671.104064 233.779056 
L 671.444887 233.909262 
L 671.444887 233.797901 
L 672.46662 233.778743 
L 672.46662 233.777668 
L 672.807442 233.919661 
L 672.807442 233.776485 
L 673.153644 233.898463 
L 673.153644 233.783462 
L 673.494466 233.893817 
L 673.494466 233.751271 
L 673.834799 233.901264 
L 673.834799 233.780605 
L 674.175622 233.918156 
L 674.175622 233.779769 
L 674.517666 233.928372 
L 674.517666 233.806611 
L 674.858733 233.906025 
L 674.858733 233.762691 
L 675.199555 233.903686 
L 675.199555 233.799651 
L 675.880711 233.984923 
L 675.880711 233.880151 
L 676.221533 233.974136 
L 676.221533 233.815858 
L 676.573602 233.883782 
L 676.573602 233.769929 
L 676.919803 233.880715 
L 676.919803 233.733208 
L 677.260381 233.889216 
L 677.260381 233.77895 
L 677.600959 233.899366 
L 677.600959 233.760914 
L 677.941537 233.905214 
L 677.941537 233.786887 
L 678.288716 233.913199 
L 678.288716 233.781485 
L 678.629294 233.909955 
L 678.629294 233.796945 
L 678.969872 233.914484 
L 678.969872 233.793751 
L 679.651272 233.945114 
L 679.651272 233.826315 
L 680.332672 233.974803 
L 680.332672 233.858738 
L 680.673494 233.980192 
L 680.673494 233.830576 
L 681.014072 233.937417 
L 681.014072 233.825457 
L 681.695717 233.962579 
L 681.695717 233.848021 
L 682.377117 233.962886 
L 682.377117 233.817305 
L 683.058273 233.924281 
L 683.058273 233.813658 
L 683.404229 233.945119 
L 683.404229 233.831528 
L 684.085629 233.947445 
L 684.085629 233.864026 
L 684.767029 233.986255 
L 684.767029 233.839297 
L 685.107607 233.928033 
L 685.107607 233.804107 
L 685.453808 233.89458 
L 685.453808 233.755604 
L 686.134964 233.926849 
L 686.134964 233.827597 
L 686.476031 233.967372 
L 686.476031 233.874732 
L 686.816609 233.976392 
L 686.816609 233.850059 
L 687.158654 233.966048 
L 687.158654 233.833839 
L 687.49972 233.93362 
L 687.49972 233.801002 
L 687.840543 233.914243 
L 687.840543 233.785358 
L 688.181609 233.902006 
L 688.181609 233.752712 
L 688.527566 233.900171 
L 688.527566 233.755394 
L 688.868388 233.876086 
L 688.868388 233.741665 
L 689.550278 233.955291 
L 689.550278 233.84207 
L 689.8911 233.979339 
L 689.8911 233.868157 
L 690.232167 233.924843 
L 690.232167 233.80862 
L 690.572989 233.922627 
L 690.572989 233.809352 
L 690.913567 233.914395 
L 690.913567 233.783878 
L 691.254389 233.906353 
L 691.254389 233.781591 
L 691.595211 233.889647 
L 691.595211 233.762659 
L 691.935789 233.899233 
L 691.935789 233.7752 
L 692.617189 233.927273 
L 692.617189 233.780667 
L 692.963391 233.914204 
L 692.963391 233.779614 
L 693.303968 233.906892 
L 693.303968 233.784257 
L 693.65017 233.929996 
L 693.65017 233.803779 
L 693.990747 233.935423 
L 693.990747 233.805098 
L 694.671903 233.951281 
L 694.671903 233.834302 
L 695.012725 233.952818 
L 695.012725 233.848118 
L 695.353303 233.953352 
L 695.353303 233.822678 
L 695.693881 233.944635 
L 695.693881 233.840698 
L 696.376259 233.950754 
L 696.376259 233.828928 
L 696.717081 233.929668 
L 696.717081 233.781636 
L 697.398726 233.890867 
L 697.398726 233.777741 
L 697.739548 233.944815 
L 697.739548 233.847177 
L 698.420704 233.981883 
L 698.420704 233.859009 
L 699.107727 233.955861 
L 699.107727 233.847958 
L 699.789128 233.976681 
L 699.789128 233.85462 
L 700.470528 233.983312 
L 700.470528 233.885695 
L 700.811106 234.008199 
L 700.811106 233.909189 
L 701.49275 233.981219 
L 701.49275 233.881319 
L 702.17415 234.002405 
L 702.17415 233.890033 
L 702.514973 233.983717 
L 702.514973 233.867469 
L 702.860929 233.962303 
L 702.860929 233.846356 
L 703.201507 233.939995 
L 703.201507 233.820286 
L 703.542085 233.956624 
L 703.542085 233.860199 
L 704.228619 233.991973 
L 704.228619 233.876599 
L 704.910998 234.003919 
L 704.910998 233.873596 
L 705.251575 233.986497 
L 705.251575 233.890405 
L 705.592153 233.963241 
L 705.592153 233.846237 
L 705.93322 233.973167 
L 705.93322 233.856614 
L 706.614865 233.964529 
L 706.614865 233.862095 
L 707.296265 233.979471 
L 707.296265 233.895649 
L 707.637087 233.989192 
L 707.637087 233.851194 
L 707.977665 233.948796 
L 707.977665 233.852296 
L 709.005022 234.010753 
L 709.005022 233.918827 
L 709.3456 234.015372 
L 709.3456 233.916103 
L 709.685933 233.980425 
L 709.685933 233.862375 
L 710.026755 233.970481 
L 710.026755 233.835096 
L 710.707911 233.949871 
L 710.707911 233.845241 
L 711.048489 233.983588 
L 711.048489 233.889128 
L 711.394201 233.997702 
L 711.394201 233.868269 
L 711.734534 233.962181 
L 711.734534 233.846613 
L 712.41569 233.980344 
L 712.41569 233.86421 
L 712.756268 233.961293 
L 712.756268 233.841331 
L 713.09709 233.938701 
L 713.09709 233.822305 
L 713.779468 233.941176 
L 713.779468 233.813969 
L 714.466003 233.960763 
L 714.466003 233.873432 
L 714.806825 234.004019 
L 714.806825 233.882129 
L 715.147403 233.965432 
L 715.147403 233.841793 
L 715.828314 233.941546 
L 715.828314 233.881777 
L 716.168647 234.0158 
L 716.168647 233.930995 
L 716.509225 234.025275 
L 716.509225 233.910981 
L 716.849314 233.993402 
L 716.849314 233.88415 
L 717.189647 233.95406 
L 717.189647 233.865877 
L 718.556604 233.85688 
L 719.242649 233.991285 
L 719.242649 233.888813 
L 719.923316 233.956022 
L 719.923316 233.861089 
L 720.94456 234.049701 
L 720.94456 233.971779 
L 721.625227 234.011023 
L 721.625227 233.885352 
L 722.305405 233.984707 
L 722.305405 233.898377 
L 722.645738 234.014144 
L 722.645738 233.924641 
L 723.32616 233.990779 
L 723.32616 233.919662 
L 723.666249 234.028819 
L 723.666249 233.95562 
L 726.05714 234.041773 
L 726.05714 233.930426 
L 726.737317 234.02405 
L 726.737317 233.940613 
L 727.076917 234.045373 
L 727.076917 233.954633 
L 727.756606 234.009039 
L 727.756606 233.91483 
L 728.436295 234.027699 
L 728.436295 233.985145 
L 729.115739 234.127027 
L 729.115739 234.026717 
L 729.460962 234.083524 
L 729.460962 233.986761 
L 730.481228 233.968852 
L 730.481228 233.988979 
L 731.157739 234.052258 
L 731.157739 233.97556 
L 731.836205 234.036243 
L 731.836205 233.971165 
L 732.511737 234.076907 
L 732.511737 234.01389 
L 733.188248 234.02106 
L 733.188248 233.961548 
L 734.206314 233.94732 
L 735.564224 234.093935 
L 735.564224 234.038899 
L 737.579819 234.086136 
L 737.579819 234.023446 
L 739.268772 234.131322 
L 739.268772 234.082789 
L 739.950172 234.139297 
L 739.950172 234.07863 
L 740.963104 234.05228 
L 741.637903 234.15365 
L 741.637903 234.065804 
L 742.311235 234.078217 
L 742.311235 234.061177 
L 742.984322 234.044586 
L 743.653253 234.133563 
L 743.653253 234.079019 
L 746.326288 234.180573 
L 746.326288 234.120749 
L 747.325283 234.073033 
L 747.991036 234.139445 
L 747.991036 234.057634 
L 748.656789 234.126596 
L 748.656789 234.09271 
L 749.321319 234.143694 
L 749.321319 234.114075 
L 750.323248 234.151865 
L 750.323248 234.096701 
L 750.98729 234.176859 
L 750.98729 234.12575 
L 751.652798 234.160499 
L 751.652798 234.090072 
L 752.65815 234.150798 
L 752.65815 234.10015 
L 753.655434 234.120025 
L 753.655434 234.060203 
L 754.321921 234.147567 
L 754.321921 234.054087 
L 754.994519 234.071286 
L 754.994519 234.025052 
L 757.330399 234.111993 
L 757.330399 234.056463 
L 758.335751 234.108247 
L 758.670217 234.172379 
L 758.670217 234.091494 
L 760.024949 234.115206 
L 760.024949 234.033691 
L 761.037636 234.113391 
L 761.037636 234.072296 
L 761.714635 234.138296 
L 761.714635 234.085401 
L 763.072301 234.173011 
L 763.072301 234.105911 
L 763.751746 234.122255 
L 763.751746 234.044941 
L 765.116746 234.145429 
L 765.116746 234.093094 
L 765.795946 234.09126 
L 765.795946 234.022832 
L 766.815234 234.140384 
L 766.815234 234.094662 
L 767.836234 234.139673 
L 767.836234 234.070658 
L 769.195612 234.133756 
L 769.195612 234.071576 
L 770.565013 233.951332 
L 770.565013 234.00354 
L 771.244702 234.030536 
L 782.819458 234.035421 
L 786.219613 234.090171 
L 786.898079 234.14767 
L 786.898079 234.100575 
L 787.578257 234.119583 
L 787.578257 234.036674 
L 788.261124 234.092314 
L 788.261124 234.043643 
L 788.940813 234.09012 
L 788.940813 234.030002 
L 789.955212 234.086641 
L 790.97719 234.076367 
L 790.97719 234.080979 
L 791.655411 234.093572 
L 791.655411 234.076293 
L 792.673477 234.094373 
L 792.673477 234.055818 
L 793.693255 234.049148 
L 794.368787 234.032855 
L 797.428609 234.011704 
L 797.428609 234.015535 
L 798.444719 234.129642 
L 798.444719 234.083033 
L 799.123185 234.072488 
L 801.153205 234.065882 
L 802.164425 234.111234 
L 802.164425 234.030485 
L 802.50158 234.091801 
L 802.50158 234.021748 
L 803.856312 234.10684 
L 803.856312 234.073579 
L 804.191756 233.956853 
L 806.228621 234.137542 
L 806.228621 234.112817 
L 807.580664 234.072384 
L 807.580664 234.084088 
L 809.267172 234.111755 
L 809.267172 234.092187 
L 810.280348 234.143706 
L 810.280348 234.111172 
L 811.971257 234.097658 
L 811.971257 234.104465 
L 814.333542 234.313462 
L 816.399503 234.33193 
L 816.399503 234.33193 
" clip-path="url(#pe9a50684f3)" style="fill: none; stroke: #008000; stroke-width: 1.5; stroke-linecap: square"/>
   </g>
   <g id="patch_3">
    <path d="M 47.72 534.04 
L 47.72 26.88 
" style="fill: none; stroke: #000000; stroke-width: 0.8; stroke-linejoin: miter; stroke-linecap: square"/>
   </g>
   <g id="patch_4">
    <path d="M 853.2 534.04 
L 853.2 26.88 
" style="fill: none; stroke: #000000; stroke-width: 0.8; stroke-linejoin: miter; stroke-linecap: square"/>
   </g>
   <g id="patch_5">
    <path d="M 47.72 534.04 
L 853.2 534.04 
" style="fill: none; stroke: #000000; stroke-width: 0.8; stroke-linejoin: miter; stroke-linecap: square"/>
   </g>
   <g id="patch_6">
    <path d="M 47.72 26.88 
L 853.2 26.88 
" style="fill: none; stroke: #000000; stroke-width: 0.8; stroke-linejoin: miter; stroke-linecap: square"/>
   </g>
   <g id="patch_7">
    <path d="M 609.644414 356.509272 
Q 583.49312 362.342474 557.341826 368.175676 
L 558.212649 372.079734 
Q 551.704939 370.457592 545.197229 368.835451 
Q 550.398704 364.601506 555.600179 360.36756 
L 556.471002 364.271618 
Q 582.622296 358.438416 608.77359 352.605214 
L 609.644414 356.509272 
z
" style="stroke: #000000; stroke-linecap: round"/>
   </g>
   <g id="text_15">
    <!-- Peak: RT=3.13, Area=3.05e+04 -->
    <g style="fill: #ff0000" transform="translate(614.881096 340.014548) scale(0.1 -0.1)">
     <defs>
      <path id="DejaVuSans-50" d="M 1259 4147 
L 1259 2394 
L 2053 2394 
Q 2494 2394 2734 2622 
Q 2975 2850 2975 3272 
Q 2975 3691 2734 3919 
Q 2494 4147 2053 4147 
L 1259 4147 
z
M 628 4666 
L 2053 4666 
Q 2838 4666 3239 4311 
Q 3641 3956 3641 3272 
Q 3641 2581 3239 2228 
Q 2838 1875 2053 1875 
L 1259 1875 
L 1259 0 
L 628 0 
L 628 4666 
z
" transform="scale(0.015625)"/>
      <path id="DejaVuSans-6b" d="M 581 4863 
L 1159 4863 
L 1159 1991 
L 2875 3500 
L 3609 3500 
L 1753 1863 
L 3688 0 
L 2938 0 
L 1159 1709 
L 1159 0 
L 581 0 
L 581 4863 
z
" transform="scale(0.015625)"/>
      <path id="DejaVuSans-3a" d="M 750 794 
L 1409 794 
L 1409 0 
L 750 0 
L 750 794 
z
M 750 3309 
L 1409 3309 
L 1409 2516 
L 750 2516 
L 750 3309 
z
" transform="scale(0.015625)"/>
      <path id="DejaVuSans-3d" d="M 678 2906 
L 4684 2906 
L 4684 2381 
L 678 2381 
L 678 2906 
z
M 678 1631 
L 4684 1631 
L 4684 1100 
L 678 1100 
L 678 1631 
z
" transform="scale(0.015625)"/>
      <path id="DejaVuSans-2c" d="M 750 794 
L 1409 794 
L 1409 256 
L 897 -744 
L 494 -744 
L 750 256 
L 750 794 
z
" transform="scale(0.015625)"/>
      <path id="DejaVuSans-41" d="M 2188 4044 
L 1331 1722 
L 3047 1722 
L 2188 4044 
z
M 1831 4666 
L 2547 4666 
L 4325 0 
L 3669 0 
L 3244 1197 
L 1141 1197 
L 716 0 
L 50 0 
L 1831 4666 
z
" transform="scale(0.015625)"/>
      <path id="DejaVuSans-2b" d="M 2944 4013 
L 2944 2272 
L 4684 2272 
L 4684 1741 
L 2944 1741 
L 2944 0 
L 2419 0 
L 2419 1741 
L 678 1741 
L 678 2272 
L 2419 2272 
L 2419 4013 
L 2944 4013 
z
" transform="scale(0.015625)"/>
     </defs>
     <use xlink:href="#DejaVuSans-50"/>
     <use xlink:href="#DejaVuSans-65" transform="translate(56.677734 0)"/>
     <use xlink:href="#DejaVuSans-61" transform="translate(118.201172 0)"/>
     <use xlink:href="#DejaVuSans-6b" transform="translate(179.480469 0)"/>
     <use xlink:href="#DejaVuSans-3a" transform="translate(237.390625 0)"/>
     <use xlink:href="#DejaVuSans-20" transform="translate(271.082031 0)"/>
     <use xlink:href="#DejaVuSans-52" transform="translate(302.869141 0)"/>
     <use xlink:href="#DejaVuSans-54" transform="translate(365.101562 0)"/>
     <use xlink:href="#DejaVuSans-3d" transform="translate(426.185547 0)"/>
     <use xlink:href="#DejaVuSans-33" transform="translate(509.974609 0)"/>
     <use xlink:href="#DejaVuSans-2e" transform="translate(573.597656 0)"/>
     <use xlink:href="#DejaVuSans-31" transform="translate(605.384766 0)"/>
     <use xlink:href="#DejaVuSans-33" transform="translate(669.007812 0)"/>
     <use xlink:href="#DejaVuSans-2c" transform="translate(732.630859 0)"/>
     <use xlink:href="#DejaVuSans-20" transform="translate(764.417969 0)"/>
     <use xlink:href="#DejaVuSans-41" transform="translate(796.205078 0)"/>
     <use xlink:href="#DejaVuSans-72" transform="translate(864.613281 0)"/>
     <use xlink:href="#DejaVuSans-65" transform="translate(903.476562 0)"/>
     <use xlink:href="#DejaVuSans-61" transform="translate(965 0)"/>
     <use xlink:href="#DejaVuSans-3d" transform="translate(1026.279297 0)"/>
     <use xlink:href="#DejaVuSans-33" transform="translate(1110.068359 0)"/>
     <use xlink:href="#DejaVuSans-2e" transform="translate(1173.691406 0)"/>
     <use xlink:href="#DejaVuSans-30" transform="translate(1205.478516 0)"/>
     <use xlink:href="#DejaVuSans-35" transform="translate(1269.101562 0)"/>
     <use xlink:href="#DejaVuSans-65" transform="translate(1332.724609 0)"/>
     <use xlink:href="#DejaVuSans-2b" transform="translate(1394.248047 0)"/>
     <use xlink:href="#DejaVuSans-30" transform="translate(1478.037109 0)"/>
     <use xlink:href="#DejaVuSans-34" transform="translate(1541.660156 0)"/>
    </g>
    <!-- (31.71% of total) -->
    <g style="fill: #ff0000" transform="translate(614.881096 351.212361) scale(0.1 -0.1)">
     <defs>
      <path id="DejaVuSans-37" d="M 525 4666 
L 3525 4666 
L 3525 4397 
L 1831 0 
L 1172 0 
L 2766 4134 
L 525 4134 
L 525 4666 
z
" transform="scale(0.015625)"/>
      <path id="DejaVuSans-25" d="M 4653 2053 
Q 4381 2053 4226 1822 
Q 4072 1591 4072 1178 
Q 4072 772 4226 539 
Q 4381 306 4653 306 
Q 4919 306 5073 539 
Q 5228 772 5228 1178 
Q 5228 1588 5073 1820 
Q 4919 2053 4653 2053 
z
M 4653 2450 
Q 5147 2450 5437 2106 
Q 5728 1763 5728 1178 
Q 5728 594 5436 251 
Q 5144 -91 4653 -91 
Q 4153 -91 3862 251 
Q 3572 594 3572 1178 
Q 3572 1766 3864 2108 
Q 4156 2450 4653 2450 
z
M 1428 4353 
Q 1159 4353 1004 4120 
Q 850 3888 850 3481 
Q 850 3069 1003 2837 
Q 1156 2606 1428 2606 
Q 1700 2606 1854 2837 
Q 2009 3069 2009 3481 
Q 2009 3884 1853 4118 
Q 1697 4353 1428 4353 
z
M 4250 4750 
L 4750 4750 
L 1831 -91 
L 1331 -91 
L 4250 4750 
z
M 1428 4750 
Q 1922 4750 2215 4408 
Q 2509 4066 2509 3481 
Q 2509 2891 2217 2550 
Q 1925 2209 1428 2209 
Q 931 2209 642 2551 
Q 353 2894 353 3481 
Q 353 4063 643 4406 
Q 934 4750 1428 4750 
z
" transform="scale(0.015625)"/>
      <path id="DejaVuSans-66" d="M 2375 4863 
L 2375 4384 
L 1825 4384 
Q 1516 4384 1395 4259 
Q 1275 4134 1275 3809 
L 1275 3500 
L 2222 3500 
L 2222 3053 
L 1275 3053 
L 1275 0 
L 697 0 
L 697 3053 
L 147 3053 
L 147 3500 
L 697 3500 
L 697 3744 
Q 697 4328 969 4595 
Q 1241 4863 1831 4863 
L 2375 4863 
z
" transform="scale(0.015625)"/>
     </defs>
     <use xlink:href="#DejaVuSans-28"/>
     <use xlink:href="#DejaVuSans-33" transform="translate(39.013672 0)"/>
     <use xlink:href="#DejaVuSans-31" transform="translate(102.636719 0)"/>
     <use xlink:href="#DejaVuSans-2e" transform="translate(166.259766 0)"/>
     <use xlink:href="#DejaVuSans-37" transform="translate(198.046875 0)"/>
     <use xlink:href="#DejaVuSans-31" transform="translate(261.669922 0)"/>
     <use xlink:href="#DejaVuSans-25" transform="translate(325.292969 0)"/>
     <use xlink:href="#DejaVuSans-20" transform="translate(420.3125 0)"/>
     <use xlink:href="#DejaVuSans-6f" transform="translate(452.099609 0)"/>
     <use xlink:href="#DejaVuSans-66" transform="translate(513.28125 0)"/>
     <use xlink:href="#DejaVuSans-20" transform="translate(548.486328 0)"/>
     <use xlink:href="#DejaVuSans-74" transform="translate(580.273438 0)"/>
     <use xlink:href="#DejaVuSans-6f" transform="translate(619.482422 0)"/>
     <use xlink:href="#DejaVuSans-74" transform="translate(680.664062 0)"/>
     <use xlink:href="#DejaVuSans-61" transform="translate(719.873047 0)"/>
     <use xlink:href="#DejaVuSans-6c" transform="translate(781.152344 0)"/>
     <use xlink:href="#DejaVuSans-29" transform="translate(808.935547 0)"/>
    </g>
   </g>
   <g id="text_16">
    <!-- UV &amp; MS Chromatograms: IrCp2A13, target m/z=731.1783063 -->
    <g transform="translate(262.3075 20.88) scale(0.12 -0.12)">
     <defs>
      <path id="DejaVuSans-55" d="M 556 4666 
L 1191 4666 
L 1191 1831 
Q 1191 1081 1462 751 
Q 1734 422 2344 422 
Q 2950 422 3222 751 
Q 3494 1081 3494 1831 
L 3494 4666 
L 4128 4666 
L 4128 1753 
Q 4128 841 3676 375 
Q 3225 -91 2344 -91 
Q 1459 -91 1007 375 
Q 556 841 556 1753 
L 556 4666 
z
" transform="scale(0.015625)"/>
      <path id="DejaVuSans-56" d="M 1831 0 
L 50 4666 
L 709 4666 
L 2188 738 
L 3669 4666 
L 4325 4666 
L 2547 0 
L 1831 0 
z
" transform="scale(0.015625)"/>
      <path id="DejaVuSans-26" d="M 1556 2509 
Q 1272 2256 1139 2004 
Q 1006 1753 1006 1478 
Q 1006 1022 1337 719 
Q 1669 416 2169 416 
Q 2466 416 2725 514 
Q 2984 613 3213 813 
L 1556 2509 
z
M 1997 2859 
L 3584 1234 
Q 3769 1513 3872 1830 
Q 3975 2147 3994 2503 
L 4575 2503 
Q 4538 2091 4375 1687 
Q 4213 1284 3922 891 
L 4794 0 
L 4006 0 
L 3559 459 
Q 3234 181 2878 45 
Q 2522 -91 2113 -91 
Q 1359 -91 881 339 
Q 403 769 403 1441 
Q 403 1841 612 2192 
Q 822 2544 1241 2853 
Q 1091 3050 1012 3245 
Q 934 3441 934 3628 
Q 934 4134 1281 4442 
Q 1628 4750 2203 4750 
Q 2463 4750 2720 4694 
Q 2978 4638 3244 4525 
L 3244 3956 
Q 2972 4103 2725 4179 
Q 2478 4256 2266 4256 
Q 1938 4256 1733 4082 
Q 1528 3909 1528 3634 
Q 1528 3475 1620 3314 
Q 1713 3153 1997 2859 
z
" transform="scale(0.015625)"/>
      <path id="DejaVuSans-4d" d="M 628 4666 
L 1569 4666 
L 2759 1491 
L 3956 4666 
L 4897 4666 
L 4897 0 
L 4281 0 
L 4281 4097 
L 3078 897 
L 2444 897 
L 1241 4097 
L 1241 0 
L 628 0 
L 628 4666 
z
" transform="scale(0.015625)"/>
      <path id="DejaVuSans-53" d="M 3425 4513 
L 3425 3897 
Q 3066 4069 2747 4153 
Q 2428 4238 2131 4238 
Q 1616 4238 1336 4038 
Q 1056 3838 1056 3469 
Q 1056 3159 1242 3001 
Q 1428 2844 1947 2747 
L 2328 2669 
Q 3034 2534 3370 2195 
Q 3706 1856 3706 1288 
Q 3706 609 3251 259 
Q 2797 -91 1919 -91 
Q 1588 -91 1214 -16 
Q 841 59 441 206 
L 441 856 
Q 825 641 1194 531 
Q 1563 422 1919 422 
Q 2459 422 2753 634 
Q 3047 847 3047 1241 
Q 3047 1584 2836 1778 
Q 2625 1972 2144 2069 
L 1759 2144 
Q 1053 2284 737 2584 
Q 422 2884 422 3419 
Q 422 4038 858 4394 
Q 1294 4750 2059 4750 
Q 2388 4750 2728 4690 
Q 3069 4631 3425 4513 
z
" transform="scale(0.015625)"/>
      <path id="DejaVuSans-43" d="M 4122 4306 
L 4122 3641 
Q 3803 3938 3442 4084 
Q 3081 4231 2675 4231 
Q 1875 4231 1450 3742 
Q 1025 3253 1025 2328 
Q 1025 1406 1450 917 
Q 1875 428 2675 428 
Q 3081 428 3442 575 
Q 3803 722 4122 1019 
L 4122 359 
Q 3791 134 3420 21 
Q 3050 -91 2638 -91 
Q 1578 -91 968 557 
Q 359 1206 359 2328 
Q 359 3453 968 4101 
Q 1578 4750 2638 4750 
Q 3056 4750 3426 4639 
Q 3797 4528 4122 4306 
z
" transform="scale(0.015625)"/>
      <path id="DejaVuSans-68" d="M 3513 2113 
L 3513 0 
L 2938 0 
L 2938 2094 
Q 2938 2591 2744 2837 
Q 2550 3084 2163 3084 
Q 1697 3084 1428 2787 
Q 1159 2491 1159 1978 
L 1159 0 
L 581 0 
L 581 4863 
L 1159 4863 
L 1159 2956 
Q 1366 3272 1645 3428 
Q 1925 3584 2291 3584 
Q 2894 3584 3203 3211 
Q 3513 2838 3513 2113 
z
" transform="scale(0.015625)"/>
      <path id="DejaVuSans-67" d="M 2906 1791 
Q 2906 2416 2648 2759 
Q 2391 3103 1925 3103 
Q 1463 3103 1205 2759 
Q 947 2416 947 1791 
Q 947 1169 1205 825 
Q 1463 481 1925 481 
Q 2391 481 2648 825 
Q 2906 1169 2906 1791 
z
M 3481 434 
Q 3481 -459 3084 -895 
Q 2688 -1331 1869 -1331 
Q 1566 -1331 1297 -1286 
Q 1028 -1241 775 -1147 
L 775 -588 
Q 1028 -725 1275 -790 
Q 1522 -856 1778 -856 
Q 2344 -856 2625 -561 
Q 2906 -266 2906 331 
L 2906 616 
Q 2728 306 2450 153 
Q 2172 0 1784 0 
Q 1141 0 747 490 
Q 353 981 353 1791 
Q 353 2603 747 3093 
Q 1141 3584 1784 3584 
Q 2172 3584 2450 3431 
Q 2728 3278 2906 2969 
L 2906 3500 
L 3481 3500 
L 3481 434 
z
" transform="scale(0.015625)"/>
      <path id="DejaVuSans-70" d="M 1159 525 
L 1159 -1331 
L 581 -1331 
L 581 3500 
L 1159 3500 
L 1159 2969 
Q 1341 3281 1617 3432 
Q 1894 3584 2278 3584 
Q 2916 3584 3314 3078 
Q 3713 2572 3713 1747 
Q 3713 922 3314 415 
Q 2916 -91 2278 -91 
Q 1894 -91 1617 61 
Q 1341 213 1159 525 
z
M 3116 1747 
Q 3116 2381 2855 2742 
Q 2594 3103 2138 3103 
Q 1681 3103 1420 2742 
Q 1159 2381 1159 1747 
Q 1159 1113 1420 752 
Q 1681 391 2138 391 
Q 2594 391 2855 752 
Q 3116 1113 3116 1747 
z
" transform="scale(0.015625)"/>
      <path id="DejaVuSans-2f" d="M 1625 4666 
L 2156 4666 
L 531 -594 
L 0 -594 
L 1625 4666 
z
" transform="scale(0.015625)"/>
      <path id="DejaVuSans-38" d="M 2034 2216 
Q 1584 2216 1326 1975 
Q 1069 1734 1069 1313 
Q 1069 891 1326 650 
Q 1584 409 2034 409 
Q 2484 409 2743 651 
Q 3003 894 3003 1313 
Q 3003 1734 2745 1975 
Q 2488 2216 2034 2216 
z
M 1403 2484 
Q 997 2584 770 2862 
Q 544 3141 544 3541 
Q 544 4100 942 4425 
Q 1341 4750 2034 4750 
Q 2731 4750 3128 4425 
Q 3525 4100 3525 3541 
Q 3525 3141 3298 2862 
Q 3072 2584 2669 2484 
Q 3125 2378 3379 2068 
Q 3634 1759 3634 1313 
Q 3634 634 3220 271 
Q 2806 -91 2034 -91 
Q 1263 -91 848 271 
Q 434 634 434 1313 
Q 434 1759 690 2068 
Q 947 2378 1403 2484 
z
M 1172 3481 
Q 1172 3119 1398 2916 
Q 1625 2713 2034 2713 
Q 2441 2713 2670 2916 
Q 2900 3119 2900 3481 
Q 2900 3844 2670 4047 
Q 2441 4250 2034 4250 
Q 1625 4250 1398 4047 
Q 1172 3844 1172 3481 
z
" transform="scale(0.015625)"/>
      <path id="DejaVuSans-36" d="M 2113 2584 
Q 1688 2584 1439 2293 
Q 1191 2003 1191 1497 
Q 1191 994 1439 701 
Q 1688 409 2113 409 
Q 2538 409 2786 701 
Q 3034 994 3034 1497 
Q 3034 2003 2786 2293 
Q 2538 2584 2113 2584 
z
M 3366 4563 
L 3366 3988 
Q 3128 4100 2886 4159 
Q 2644 4219 2406 4219 
Q 1781 4219 1451 3797 
Q 1122 3375 1075 2522 
Q 1259 2794 1537 2939 
Q 1816 3084 2150 3084 
Q 2853 3084 3261 2657 
Q 3669 2231 3669 1497 
Q 3669 778 3244 343 
Q 2819 -91 2113 -91 
Q 1303 -91 875 529 
Q 447 1150 447 2328 
Q 447 3434 972 4092 
Q 1497 4750 2381 4750 
Q 2619 4750 2861 4703 
Q 3103 4656 3366 4563 
z
" transform="scale(0.015625)"/>
     </defs>
     <use xlink:href="#DejaVuSans-55"/>
     <use xlink:href="#DejaVuSans-56" transform="translate(73.193359 0)"/>
     <use xlink:href="#DejaVuSans-20" transform="translate(141.601562 0)"/>
     <use xlink:href="#DejaVuSans-26" transform="translate(173.388672 0)"/>
     <use xlink:href="#DejaVuSans-20" transform="translate(251.367188 0)"/>
     <use xlink:href="#DejaVuSans-4d" transform="translate(283.154297 0)"/>
     <use xlink:href="#DejaVuSans-53" transform="translate(369.433594 0)"/>
     <use xlink:href="#DejaVuSans-20" transform="translate(432.910156 0)"/>
     <use xlink:href="#DejaVuSans-43" transform="translate(464.697266 0)"/>
     <use xlink:href="#DejaVuSans-68" transform="translate(534.521484 0)"/>
     <use xlink:href="#DejaVuSans-72" transform="translate(597.900391 0)"/>
     <use xlink:href="#DejaVuSans-6f" transform="translate(636.763672 0)"/>
     <use xlink:href="#DejaVuSans-6d" transform="translate(697.945312 0)"/>
     <use xlink:href="#DejaVuSans-61" transform="translate(795.357422 0)"/>
     <use xlink:href="#DejaVuSans-74" transform="translate(856.636719 0)"/>
     <use xlink:href="#DejaVuSans-6f" transform="translate(895.845703 0)"/>
     <use xlink:href="#DejaVuSans-67" transform="translate(957.027344 0)"/>
     <use xlink:href="#DejaVuSans-72" transform="translate(1020.503906 0)"/>
     <use xlink:href="#DejaVuSans-61" transform="translate(1061.617188 0)"/>
     <use xlink:href="#DejaVuSans-6d" transform="translate(1122.896484 0)"/>
     <use xlink:href="#DejaVuSans-73" transform="translate(1220.308594 0)"/>
     <use xlink:href="#DejaVuSans-3a" transform="translate(1272.408203 0)"/>
     <use xlink:href="#DejaVuSans-20" transform="translate(1306.099609 0)"/>
     <use xlink:href="#DejaVuSans-49" transform="translate(1337.886719 0)"/>
     <use xlink:href="#DejaVuSans-72" transform="translate(1367.378906 0)"/>
     <use xlink:href="#DejaVuSans-43" transform="translate(1408.492188 0)"/>
     <use xlink:href="#DejaVuSans-70" transform="translate(1478.316406 0)"/>
     <use xlink:href="#DejaVuSans-32" transform="translate(1541.792969 0)"/>
     <use xlink:href="#DejaVuSans-41" transform="translate(1605.416016 0)"/>
     <use xlink:href="#DejaVuSans-31" transform="translate(1673.824219 0)"/>
     <use xlink:href="#DejaVuSans-33" transform="translate(1737.447266 0)"/>
     <use xlink:href="#DejaVuSans-2c" transform="translate(1801.070312 0)"/>
     <use xlink:href="#DejaVuSans-20" transform="translate(1832.857422 0)"/>
     <use xlink:href="#DejaVuSans-74" transform="translate(1864.644531 0)"/>
     <use xlink:href="#DejaVuSans-61" transform="translate(1903.853516 0)"/>
     <use xlink:href="#DejaVuSans-72" transform="translate(1965.132812 0)"/>
     <use xlink:href="#DejaVuSans-67" transform="translate(2004.496094 0)"/>
     <use xlink:href="#DejaVuSans-65" transform="translate(2067.972656 0)"/>
     <use xlink:href="#DejaVuSans-74" transform="translate(2129.496094 0)"/>
     <use xlink:href="#DejaVuSans-20" transform="translate(2168.705078 0)"/>
     <use xlink:href="#DejaVuSans-6d" transform="translate(2200.492188 0)"/>
     <use xlink:href="#DejaVuSans-2f" transform="translate(2297.904297 0)"/>
     <use xlink:href="#DejaVuSans-7a" transform="translate(2331.595703 0)"/>
     <use xlink:href="#DejaVuSans-3d" transform="translate(2384.085938 0)"/>
     <use xlink:href="#DejaVuSans-37" transform="translate(2467.875 0)"/>
     <use xlink:href="#DejaVuSans-33" transform="translate(2531.498047 0)"/>
     <use xlink:href="#DejaVuSans-31" transform="translate(2595.121094 0)"/>
     <use xlink:href="#DejaVuSans-2e" transform="translate(2658.744141 0)"/>
     <use xlink:href="#DejaVuSans-31" transform="translate(2690.53125 0)"/>
     <use xlink:href="#DejaVuSans-37" transform="translate(2754.154297 0)"/>
     <use xlink:href="#DejaVuSans-38" transform="translate(2817.777344 0)"/>
     <use xlink:href="#DejaVuSans-33" transform="translate(2881.400391 0)"/>
     <use xlink:href="#DejaVuSans-30" transform="translate(2945.023438 0)"/>
     <use xlink:href="#DejaVuSans-36" transform="translate(3008.646484 0)"/>
     <use xlink:href="#DejaVuSans-33" transform="translate(3072.269531 0)"/>
    </g>
   </g>
   <g id="legend_1">
    <g id="patch_8">
     <path d="M 685.971875 64.23625 
L 846.2 64.23625 
Q 848.2 64.23625 848.2 62.23625 
L 848.2 33.88 
Q 848.2 31.88 846.2 31.88 
L 685.971875 31.88 
Q 683.971875 31.88 683.971875 33.88 
L 683.971875 62.23625 
Q 683.971875 64.23625 685.971875 64.23625 
z
" style="fill: #ffffff; opacity: 0.8; stroke: #cccccc; stroke-linejoin: miter"/>
    </g>
    <g id="line2d_15">
     <path d="M 687.971875 39.978437 
L 697.971875 39.978437 
L 707.971875 39.978437 
" style="fill: none; stroke: #0000ff; stroke-width: 1.5; stroke-linecap: square"/>
    </g>
    <g id="text_17">
     <!-- UV Intensity (normalized) -->
     <g transform="translate(715.971875 43.478437) scale(0.1 -0.1)">
      <use xlink:href="#DejaVuSans-55"/>
      <use xlink:href="#DejaVuSans-56" transform="translate(73.193359 0)"/>
      <use xlink:href="#DejaVuSans-20" transform="translate(141.601562 0)"/>
      <use xlink:href="#DejaVuSans-49" transform="translate(173.388672 0)"/>
      <use xlink:href="#DejaVuSans-6e" transform="translate(202.880859 0)"/>
      <use xlink:href="#DejaVuSans-74" transform="translate(266.259766 0)"/>
      <use xlink:href="#DejaVuSans-65" transform="translate(305.46875 0)"/>
      <use xlink:href="#DejaVuSans-6e" transform="translate(366.992188 0)"/>
      <use xlink:href="#DejaVuSans-73" transform="translate(430.371094 0)"/>
      <use xlink:href="#DejaVuSans-69" transform="translate(482.470703 0)"/>
      <use xlink:href="#DejaVuSans-74" transform="translate(510.253906 0)"/>
      <use xlink:href="#DejaVuSans-79" transform="translate(549.462891 0)"/>
      <use xlink:href="#DejaVuSans-20" transform="translate(608.642578 0)"/>
      <use xlink:href="#DejaVuSans-28" transform="translate(640.429688 0)"/>
      <use xlink:href="#DejaVuSans-6e" transform="translate(679.443359 0)"/>
      <use xlink:href="#DejaVuSans-6f" transform="translate(742.822266 0)"/>
      <use xlink:href="#DejaVuSans-72" transform="translate(804.003906 0)"/>
      <use xlink:href="#DejaVuSans-6d" transform="translate(843.367188 0)"/>
      <use xlink:href="#DejaVuSans-61" transform="translate(940.779297 0)"/>
      <use xlink:href="#DejaVuSans-6c" transform="translate(1002.058594 0)"/>
      <use xlink:href="#DejaVuSans-69" transform="translate(1029.841797 0)"/>
      <use xlink:href="#DejaVuSans-7a" transform="translate(1057.625 0)"/>
      <use xlink:href="#DejaVuSans-65" transform="translate(1110.115234 0)"/>
      <use xlink:href="#DejaVuSans-64" transform="translate(1171.638672 0)"/>
      <use xlink:href="#DejaVuSans-29" transform="translate(1235.115234 0)"/>
     </g>
    </g>
    <g id="line2d_16">
     <path d="M 687.971875 54.656562 
L 697.971875 54.656562 
L 707.971875 54.656562 
" style="fill: none; stroke: #008000; stroke-width: 1.5; stroke-linecap: square"/>
    </g>
    <g id="text_18">
     <!-- MS Intensity (normalized) -->
     <g transform="translate(715.971875 58.156562) scale(0.1 -0.1)">
      <use xlink:href="#DejaVuSans-4d"/>
      <use xlink:href="#DejaVuSans-53" transform="translate(86.279297 0)"/>
      <use xlink:href="#DejaVuSans-20" transform="translate(149.755859 0)"/>
      <use xlink:href="#DejaVuSans-49" transform="translate(181.542969 0)"/>
      <use xlink:href="#DejaVuSans-6e" transform="translate(211.035156 0)"/>
      <use xlink:href="#DejaVuSans-74" transform="translate(274.414062 0)"/>
      <use xlink:href="#DejaVuSans-65" transform="translate(313.623047 0)"/>
      <use xlink:href="#DejaVuSans-6e" transform="translate(375.146484 0)"/>
      <use xlink:href="#DejaVuSans-73" transform="translate(438.525391 0)"/>
      <use xlink:href="#DejaVuSans-69" transform="translate(490.625 0)"/>
      <use xlink:href="#DejaVuSans-74" transform="translate(518.408203 0)"/>
      <use xlink:href="#DejaVuSans-79" transform="translate(557.617188 0)"/>
      <use xlink:href="#DejaVuSans-20" transform="translate(616.796875 0)"/>
      <use xlink:href="#DejaVuSans-28" transform="translate(648.583984 0)"/>
      <use xlink:href="#DejaVuSans-6e" transform="translate(687.597656 0)"/>
      <use xlink:href="#DejaVuSans-6f" transform="translate(750.976562 0)"/>
      <use xlink:href="#DejaVuSans-72" transform="translate(812.158203 0)"/>
      <use xlink:href="#DejaVuSans-6d" transform="translate(851.521484 0)"/>
      <use xlink:href="#DejaVuSans-61" transform="translate(948.933594 0)"/>
      <use xlink:href="#DejaVuSans-6c" transform="translate(1010.212891 0)"/>
      <use xlink:href="#DejaVuSans-69" transform="translate(1037.996094 0)"/>
      <use xlink:href="#DejaVuSans-7a" transform="translate(1065.779297 0)"/>
      <use xlink:href="#DejaVuSans-65" transform="translate(1118.269531 0)"/>
      <use xlink:href="#DejaVuSans-64" transform="translate(1179.792969 0)"/>
      <use xlink:href="#DejaVuSans-29" transform="translate(1243.269531 0)"/>
     </g>
    </g>
   </g>
  </g>
 </g>
 <defs>
  <clipPath id="pe9a50684f3">
   <rect x="47.72" y="26.88" width="805.48" height="507.16"/>
  </clipPath>
 </defs>
</svg>
