<?xml version="1.0" encoding="utf-8" standalone="no"?>
<!DOCTYPE svg PUBLIC "-//W3C//DTD SVG 1.1//EN"
  "http://www.w3.org/Graphics/SVG/1.1/DTD/svg11.dtd">
<svg xmlns:xlink="http://www.w3.org/1999/xlink" width="864pt" height="576pt" viewBox="0 0 864 576" xmlns="http://www.w3.org/2000/svg" version="1.1">
 <metadata>
  <rdf:RDF xmlns:dc="http://purl.org/dc/elements/1.1/" xmlns:cc="http://creativecommons.org/ns#" xmlns:rdf="http://www.w3.org/1999/02/22-rdf-syntax-ns#">
   <cc:Work>
    <dc:type rdf:resource="http://purl.org/dc/dcmitype/StillImage"/>
    <dc:date>2025-02-07T17:24:43.071608</dc:date>
    <dc:format>image/svg+xml</dc:format>
    <dc:creator>
     <cc:Agent>
      <dc:title>Matplotlib v3.10.0, https://matplotlib.org/</dc:title>
     </cc:Agent>
    </dc:creator>
   </cc:Work>
  </rdf:RDF>
 </metadata>
 <defs>
  <style type="text/css">*{stroke-linejoin: round; stroke-linecap: butt}</style>
 </defs>
 <g id="figure_1">
  <g id="patch_1">
   <path d="M 0 576 
L 864 576 
L 864 0 
L 0 0 
z
" style="fill: #ffffff"/>
  </g>
  <g id="axes_1">
   <g id="patch_2">
    <path d="M 47.72 534.04 
L 853.2 534.04 
L 853.2 26.88 
L 47.72 26.88 
z
" style="fill: #ffffff"/>
   </g>
   <g id="matplotlib.axis_1">
    <g id="xtick_1">
     <g id="line2d_1">
      <defs>
       <path id="ma05057927c" d="M 0 0 
L 0 3.5 
" style="stroke: #000000; stroke-width: 0.8"/>
      </defs>
      <g>
       <use xlink:href="#ma05057927c" x="83.095596" y="534.04" style="stroke: #000000; stroke-width: 0.8"/>
      </g>
     </g>
     <g id="text_1">
      <!-- 0 -->
      <g transform="translate(79.914346 548.638438) scale(0.1 -0.1)">
       <defs>
        <path id="DejaVuSans-30" d="M 2034 4250 
Q 1547 4250 1301 3770 
Q 1056 3291 1056 2328 
Q 1056 1369 1301 889 
Q 1547 409 2034 409 
Q 2525 409 2770 889 
Q 3016 1369 3016 2328 
Q 3016 3291 2770 3770 
Q 2525 4250 2034 4250 
z
M 2034 4750 
Q 2819 4750 3233 4129 
Q 3647 3509 3647 2328 
Q 3647 1150 3233 529 
Q 2819 -91 2034 -91 
Q 1250 -91 836 529 
Q 422 1150 422 2328 
Q 422 3509 836 4129 
Q 1250 4750 2034 4750 
z
" transform="scale(0.015625)"/>
       </defs>
       <use xlink:href="#DejaVuSans-30"/>
      </g>
     </g>
    </g>
    <g id="xtick_2">
     <g id="line2d_2">
      <g>
       <use xlink:href="#ma05057927c" x="229.790997" y="534.04" style="stroke: #000000; stroke-width: 0.8"/>
      </g>
     </g>
     <g id="text_2">
      <!-- 1 -->
      <g transform="translate(226.609747 548.638438) scale(0.1 -0.1)">
       <defs>
        <path id="DejaVuSans-31" d="M 794 531 
L 1825 531 
L 1825 4091 
L 703 3866 
L 703 4441 
L 1819 4666 
L 2450 4666 
L 2450 531 
L 3481 531 
L 3481 0 
L 794 0 
L 794 531 
z
" transform="scale(0.015625)"/>
       </defs>
       <use xlink:href="#DejaVuSans-31"/>
      </g>
     </g>
    </g>
    <g id="xtick_3">
     <g id="line2d_3">
      <g>
       <use xlink:href="#ma05057927c" x="376.486399" y="534.04" style="stroke: #000000; stroke-width: 0.8"/>
      </g>
     </g>
     <g id="text_3">
      <!-- 2 -->
      <g transform="translate(373.305149 548.638438) scale(0.1 -0.1)">
       <defs>
        <path id="DejaVuSans-32" d="M 1228 531 
L 3431 531 
L 3431 0 
L 469 0 
L 469 531 
Q 828 903 1448 1529 
Q 2069 2156 2228 2338 
Q 2531 2678 2651 2914 
Q 2772 3150 2772 3378 
Q 2772 3750 2511 3984 
Q 2250 4219 1831 4219 
Q 1534 4219 1204 4116 
Q 875 4013 500 3803 
L 500 4441 
Q 881 4594 1212 4672 
Q 1544 4750 1819 4750 
Q 2544 4750 2975 4387 
Q 3406 4025 3406 3419 
Q 3406 3131 3298 2873 
Q 3191 2616 2906 2266 
Q 2828 2175 2409 1742 
Q 1991 1309 1228 531 
z
" transform="scale(0.015625)"/>
       </defs>
       <use xlink:href="#DejaVuSans-32"/>
      </g>
     </g>
    </g>
    <g id="xtick_4">
     <g id="line2d_4">
      <g>
       <use xlink:href="#ma05057927c" x="523.1818" y="534.04" style="stroke: #000000; stroke-width: 0.8"/>
      </g>
     </g>
     <g id="text_4">
      <!-- 3 -->
      <g transform="translate(520.00055 548.638438) scale(0.1 -0.1)">
       <defs>
        <path id="DejaVuSans-33" d="M 2597 2516 
Q 3050 2419 3304 2112 
Q 3559 1806 3559 1356 
Q 3559 666 3084 287 
Q 2609 -91 1734 -91 
Q 1441 -91 1130 -33 
Q 819 25 488 141 
L 488 750 
Q 750 597 1062 519 
Q 1375 441 1716 441 
Q 2309 441 2620 675 
Q 2931 909 2931 1356 
Q 2931 1769 2642 2001 
Q 2353 2234 1838 2234 
L 1294 2234 
L 1294 2753 
L 1863 2753 
Q 2328 2753 2575 2939 
Q 2822 3125 2822 3475 
Q 2822 3834 2567 4026 
Q 2313 4219 1838 4219 
Q 1578 4219 1281 4162 
Q 984 4106 628 3988 
L 628 4550 
Q 988 4650 1302 4700 
Q 1616 4750 1894 4750 
Q 2613 4750 3031 4423 
Q 3450 4097 3450 3541 
Q 3450 3153 3228 2886 
Q 3006 2619 2597 2516 
z
" transform="scale(0.015625)"/>
       </defs>
       <use xlink:href="#DejaVuSans-33"/>
      </g>
     </g>
    </g>
    <g id="xtick_5">
     <g id="line2d_5">
      <g>
       <use xlink:href="#ma05057927c" x="669.877202" y="534.04" style="stroke: #000000; stroke-width: 0.8"/>
      </g>
     </g>
     <g id="text_5">
      <!-- 4 -->
      <g transform="translate(666.695952 548.638438) scale(0.1 -0.1)">
       <defs>
        <path id="DejaVuSans-34" d="M 2419 4116 
L 825 1625 
L 2419 1625 
L 2419 4116 
z
M 2253 4666 
L 3047 4666 
L 3047 1625 
L 3713 1625 
L 3713 1100 
L 3047 1100 
L 3047 0 
L 2419 0 
L 2419 1100 
L 313 1100 
L 313 1709 
L 2253 4666 
z
" transform="scale(0.015625)"/>
       </defs>
       <use xlink:href="#DejaVuSans-34"/>
      </g>
     </g>
    </g>
    <g id="xtick_6">
     <g id="line2d_6">
      <g>
       <use xlink:href="#ma05057927c" x="816.572603" y="534.04" style="stroke: #000000; stroke-width: 0.8"/>
      </g>
     </g>
     <g id="text_6">
      <!-- 5 -->
      <g transform="translate(813.391353 548.638438) scale(0.1 -0.1)">
       <defs>
        <path id="DejaVuSans-35" d="M 691 4666 
L 3169 4666 
L 3169 4134 
L 1269 4134 
L 1269 2991 
Q 1406 3038 1543 3061 
Q 1681 3084 1819 3084 
Q 2600 3084 3056 2656 
Q 3513 2228 3513 1497 
Q 3513 744 3044 326 
Q 2575 -91 1722 -91 
Q 1428 -91 1123 -41 
Q 819 9 494 109 
L 494 744 
Q 775 591 1075 516 
Q 1375 441 1709 441 
Q 2250 441 2565 725 
Q 2881 1009 2881 1497 
Q 2881 1984 2565 2268 
Q 2250 2553 1709 2553 
Q 1456 2553 1204 2497 
Q 953 2441 691 2322 
L 691 4666 
z
" transform="scale(0.015625)"/>
       </defs>
       <use xlink:href="#DejaVuSans-35"/>
      </g>
     </g>
    </g>
    <g id="text_7">
     <!-- Retention Time (min) -->
     <g transform="translate(397.61 562.316562) scale(0.1 -0.1)">
      <defs>
       <path id="DejaVuSans-52" d="M 2841 2188 
Q 3044 2119 3236 1894 
Q 3428 1669 3622 1275 
L 4263 0 
L 3584 0 
L 2988 1197 
Q 2756 1666 2539 1819 
Q 2322 1972 1947 1972 
L 1259 1972 
L 1259 0 
L 628 0 
L 628 4666 
L 2053 4666 
Q 2853 4666 3247 4331 
Q 3641 3997 3641 3322 
Q 3641 2881 3436 2590 
Q 3231 2300 2841 2188 
z
M 1259 4147 
L 1259 2491 
L 2053 2491 
Q 2509 2491 2742 2702 
Q 2975 2913 2975 3322 
Q 2975 3731 2742 3939 
Q 2509 4147 2053 4147 
L 1259 4147 
z
" transform="scale(0.015625)"/>
       <path id="DejaVuSans-65" d="M 3597 1894 
L 3597 1613 
L 953 1613 
Q 991 1019 1311 708 
Q 1631 397 2203 397 
Q 2534 397 2845 478 
Q 3156 559 3463 722 
L 3463 178 
Q 3153 47 2828 -22 
Q 2503 -91 2169 -91 
Q 1331 -91 842 396 
Q 353 884 353 1716 
Q 353 2575 817 3079 
Q 1281 3584 2069 3584 
Q 2775 3584 3186 3129 
Q 3597 2675 3597 1894 
z
M 3022 2063 
Q 3016 2534 2758 2815 
Q 2500 3097 2075 3097 
Q 1594 3097 1305 2825 
Q 1016 2553 972 2059 
L 3022 2063 
z
" transform="scale(0.015625)"/>
       <path id="DejaVuSans-74" d="M 1172 4494 
L 1172 3500 
L 2356 3500 
L 2356 3053 
L 1172 3053 
L 1172 1153 
Q 1172 725 1289 603 
Q 1406 481 1766 481 
L 2356 481 
L 2356 0 
L 1766 0 
Q 1100 0 847 248 
Q 594 497 594 1153 
L 594 3053 
L 172 3053 
L 172 3500 
L 594 3500 
L 594 4494 
L 1172 4494 
z
" transform="scale(0.015625)"/>
       <path id="DejaVuSans-6e" d="M 3513 2113 
L 3513 0 
L 2938 0 
L 2938 2094 
Q 2938 2591 2744 2837 
Q 2550 3084 2163 3084 
Q 1697 3084 1428 2787 
Q 1159 2491 1159 1978 
L 1159 0 
L 581 0 
L 581 3500 
L 1159 3500 
L 1159 2956 
Q 1366 3272 1645 3428 
Q 1925 3584 2291 3584 
Q 2894 3584 3203 3211 
Q 3513 2838 3513 2113 
z
" transform="scale(0.015625)"/>
       <path id="DejaVuSans-69" d="M 603 3500 
L 1178 3500 
L 1178 0 
L 603 0 
L 603 3500 
z
M 603 4863 
L 1178 4863 
L 1178 4134 
L 603 4134 
L 603 4863 
z
" transform="scale(0.015625)"/>
       <path id="DejaVuSans-6f" d="M 1959 3097 
Q 1497 3097 1228 2736 
Q 959 2375 959 1747 
Q 959 1119 1226 758 
Q 1494 397 1959 397 
Q 2419 397 2687 759 
Q 2956 1122 2956 1747 
Q 2956 2369 2687 2733 
Q 2419 3097 1959 3097 
z
M 1959 3584 
Q 2709 3584 3137 3096 
Q 3566 2609 3566 1747 
Q 3566 888 3137 398 
Q 2709 -91 1959 -91 
Q 1206 -91 779 398 
Q 353 888 353 1747 
Q 353 2609 779 3096 
Q 1206 3584 1959 3584 
z
" transform="scale(0.015625)"/>
       <path id="DejaVuSans-20" transform="scale(0.015625)"/>
       <path id="DejaVuSans-54" d="M -19 4666 
L 3928 4666 
L 3928 4134 
L 2272 4134 
L 2272 0 
L 1638 0 
L 1638 4134 
L -19 4134 
L -19 4666 
z
" transform="scale(0.015625)"/>
       <path id="DejaVuSans-6d" d="M 3328 2828 
Q 3544 3216 3844 3400 
Q 4144 3584 4550 3584 
Q 5097 3584 5394 3201 
Q 5691 2819 5691 2113 
L 5691 0 
L 5113 0 
L 5113 2094 
Q 5113 2597 4934 2840 
Q 4756 3084 4391 3084 
Q 3944 3084 3684 2787 
Q 3425 2491 3425 1978 
L 3425 0 
L 2847 0 
L 2847 2094 
Q 2847 2600 2669 2842 
Q 2491 3084 2119 3084 
Q 1678 3084 1418 2786 
Q 1159 2488 1159 1978 
L 1159 0 
L 581 0 
L 581 3500 
L 1159 3500 
L 1159 2956 
Q 1356 3278 1631 3431 
Q 1906 3584 2284 3584 
Q 2666 3584 2933 3390 
Q 3200 3197 3328 2828 
z
" transform="scale(0.015625)"/>
       <path id="DejaVuSans-28" d="M 1984 4856 
Q 1566 4138 1362 3434 
Q 1159 2731 1159 2009 
Q 1159 1288 1364 580 
Q 1569 -128 1984 -844 
L 1484 -844 
Q 1016 -109 783 600 
Q 550 1309 550 2009 
Q 550 2706 781 3412 
Q 1013 4119 1484 4856 
L 1984 4856 
z
" transform="scale(0.015625)"/>
       <path id="DejaVuSans-29" d="M 513 4856 
L 1013 4856 
Q 1481 4119 1714 3412 
Q 1947 2706 1947 2009 
Q 1947 1309 1714 600 
Q 1481 -109 1013 -844 
L 513 -844 
Q 928 -128 1133 580 
Q 1338 1288 1338 2009 
Q 1338 2731 1133 3434 
Q 928 4138 513 4856 
z
" transform="scale(0.015625)"/>
      </defs>
      <use xlink:href="#DejaVuSans-52"/>
      <use xlink:href="#DejaVuSans-65" transform="translate(64.982422 0)"/>
      <use xlink:href="#DejaVuSans-74" transform="translate(126.505859 0)"/>
      <use xlink:href="#DejaVuSans-65" transform="translate(165.714844 0)"/>
      <use xlink:href="#DejaVuSans-6e" transform="translate(227.238281 0)"/>
      <use xlink:href="#DejaVuSans-74" transform="translate(290.617188 0)"/>
      <use xlink:href="#DejaVuSans-69" transform="translate(329.826172 0)"/>
      <use xlink:href="#DejaVuSans-6f" transform="translate(357.609375 0)"/>
      <use xlink:href="#DejaVuSans-6e" transform="translate(418.791016 0)"/>
      <use xlink:href="#DejaVuSans-20" transform="translate(482.169922 0)"/>
      <use xlink:href="#DejaVuSans-54" transform="translate(513.957031 0)"/>
      <use xlink:href="#DejaVuSans-69" transform="translate(571.916016 0)"/>
      <use xlink:href="#DejaVuSans-6d" transform="translate(599.699219 0)"/>
      <use xlink:href="#DejaVuSans-65" transform="translate(697.111328 0)"/>
      <use xlink:href="#DejaVuSans-20" transform="translate(758.634766 0)"/>
      <use xlink:href="#DejaVuSans-28" transform="translate(790.421875 0)"/>
      <use xlink:href="#DejaVuSans-6d" transform="translate(829.435547 0)"/>
      <use xlink:href="#DejaVuSans-69" transform="translate(926.847656 0)"/>
      <use xlink:href="#DejaVuSans-6e" transform="translate(954.630859 0)"/>
      <use xlink:href="#DejaVuSans-29" transform="translate(1018.009766 0)"/>
     </g>
    </g>
   </g>
   <g id="matplotlib.axis_2">
    <g id="ytick_1">
     <g id="line2d_7">
      <defs>
       <path id="m4b9e63207b" d="M 0 0 
L -3.5 0 
" style="stroke: #000000; stroke-width: 0.8"/>
      </defs>
      <g>
       <use xlink:href="#m4b9e63207b" x="47.72" y="510.307864" style="stroke: #000000; stroke-width: 0.8"/>
      </g>
     </g>
     <g id="text_8">
      <!-- 0.0 -->
      <g style="fill: #0000ff" transform="translate(24.816875 514.107083) scale(0.1 -0.1)">
       <defs>
        <path id="DejaVuSans-2e" d="M 684 794 
L 1344 794 
L 1344 0 
L 684 0 
L 684 794 
z
" transform="scale(0.015625)"/>
       </defs>
       <use xlink:href="#DejaVuSans-30"/>
       <use xlink:href="#DejaVuSans-2e" transform="translate(63.623047 0)"/>
       <use xlink:href="#DejaVuSans-30" transform="translate(95.410156 0)"/>
      </g>
     </g>
    </g>
    <g id="ytick_2">
     <g id="line2d_8">
      <g>
       <use xlink:href="#m4b9e63207b" x="47.72" y="418.232837" style="stroke: #000000; stroke-width: 0.8"/>
      </g>
     </g>
     <g id="text_9">
      <!-- 0.5 -->
      <g style="fill: #0000ff" transform="translate(24.816875 422.032056) scale(0.1 -0.1)">
       <use xlink:href="#DejaVuSans-30"/>
       <use xlink:href="#DejaVuSans-2e" transform="translate(63.623047 0)"/>
       <use xlink:href="#DejaVuSans-35" transform="translate(95.410156 0)"/>
      </g>
     </g>
    </g>
    <g id="ytick_3">
     <g id="line2d_9">
      <g>
       <use xlink:href="#m4b9e63207b" x="47.72" y="326.157809" style="stroke: #000000; stroke-width: 0.8"/>
      </g>
     </g>
     <g id="text_10">
      <!-- 1.0 -->
      <g style="fill: #0000ff" transform="translate(24.816875 329.957028) scale(0.1 -0.1)">
       <use xlink:href="#DejaVuSans-31"/>
       <use xlink:href="#DejaVuSans-2e" transform="translate(63.623047 0)"/>
       <use xlink:href="#DejaVuSans-30" transform="translate(95.410156 0)"/>
      </g>
     </g>
    </g>
    <g id="ytick_4">
     <g id="line2d_10">
      <g>
       <use xlink:href="#m4b9e63207b" x="47.72" y="234.082782" style="stroke: #000000; stroke-width: 0.8"/>
      </g>
     </g>
     <g id="text_11">
      <!-- 1.5 -->
      <g style="fill: #0000ff" transform="translate(24.816875 237.882001) scale(0.1 -0.1)">
       <use xlink:href="#DejaVuSans-31"/>
       <use xlink:href="#DejaVuSans-2e" transform="translate(63.623047 0)"/>
       <use xlink:href="#DejaVuSans-35" transform="translate(95.410156 0)"/>
      </g>
     </g>
    </g>
    <g id="ytick_5">
     <g id="line2d_11">
      <g>
       <use xlink:href="#m4b9e63207b" x="47.72" y="142.007755" style="stroke: #000000; stroke-width: 0.8"/>
      </g>
     </g>
     <g id="text_12">
      <!-- 2.0 -->
      <g style="fill: #0000ff" transform="translate(24.816875 145.806973) scale(0.1 -0.1)">
       <use xlink:href="#DejaVuSans-32"/>
       <use xlink:href="#DejaVuSans-2e" transform="translate(63.623047 0)"/>
       <use xlink:href="#DejaVuSans-30" transform="translate(95.410156 0)"/>
      </g>
     </g>
    </g>
    <g id="ytick_6">
     <g id="line2d_12">
      <g>
       <use xlink:href="#m4b9e63207b" x="47.72" y="49.932727" style="stroke: #000000; stroke-width: 0.8"/>
      </g>
     </g>
     <g id="text_13">
      <!-- 2.5 -->
      <g style="fill: #0000ff" transform="translate(24.816875 53.731946) scale(0.1 -0.1)">
       <use xlink:href="#DejaVuSans-32"/>
       <use xlink:href="#DejaVuSans-2e" transform="translate(63.623047 0)"/>
       <use xlink:href="#DejaVuSans-35" transform="translate(95.410156 0)"/>
      </g>
     </g>
    </g>
    <g id="text_14">
     <!-- Normalized Intensity -->
     <g style="fill: #0000ff" transform="translate(18.737187 332.167031) rotate(-90) scale(0.1 -0.1)">
      <defs>
       <path id="DejaVuSans-4e" d="M 628 4666 
L 1478 4666 
L 3547 763 
L 3547 4666 
L 4159 4666 
L 4159 0 
L 3309 0 
L 1241 3903 
L 1241 0 
L 628 0 
L 628 4666 
z
" transform="scale(0.015625)"/>
       <path id="DejaVuSans-72" d="M 2631 2963 
Q 2534 3019 2420 3045 
Q 2306 3072 2169 3072 
Q 1681 3072 1420 2755 
Q 1159 2438 1159 1844 
L 1159 0 
L 581 0 
L 581 3500 
L 1159 3500 
L 1159 2956 
Q 1341 3275 1631 3429 
Q 1922 3584 2338 3584 
Q 2397 3584 2469 3576 
Q 2541 3569 2628 3553 
L 2631 2963 
z
" transform="scale(0.015625)"/>
       <path id="DejaVuSans-61" d="M 2194 1759 
Q 1497 1759 1228 1600 
Q 959 1441 959 1056 
Q 959 750 1161 570 
Q 1363 391 1709 391 
Q 2188 391 2477 730 
Q 2766 1069 2766 1631 
L 2766 1759 
L 2194 1759 
z
M 3341 1997 
L 3341 0 
L 2766 0 
L 2766 531 
Q 2569 213 2275 61 
Q 1981 -91 1556 -91 
Q 1019 -91 701 211 
Q 384 513 384 1019 
Q 384 1609 779 1909 
Q 1175 2209 1959 2209 
L 2766 2209 
L 2766 2266 
Q 2766 2663 2505 2880 
Q 2244 3097 1772 3097 
Q 1472 3097 1187 3025 
Q 903 2953 641 2809 
L 641 3341 
Q 956 3463 1253 3523 
Q 1550 3584 1831 3584 
Q 2591 3584 2966 3190 
Q 3341 2797 3341 1997 
z
" transform="scale(0.015625)"/>
       <path id="DejaVuSans-6c" d="M 603 4863 
L 1178 4863 
L 1178 0 
L 603 0 
L 603 4863 
z
" transform="scale(0.015625)"/>
       <path id="DejaVuSans-7a" d="M 353 3500 
L 3084 3500 
L 3084 2975 
L 922 459 
L 3084 459 
L 3084 0 
L 275 0 
L 275 525 
L 2438 3041 
L 353 3041 
L 353 3500 
z
" transform="scale(0.015625)"/>
       <path id="DejaVuSans-64" d="M 2906 2969 
L 2906 4863 
L 3481 4863 
L 3481 0 
L 2906 0 
L 2906 525 
Q 2725 213 2448 61 
Q 2172 -91 1784 -91 
Q 1150 -91 751 415 
Q 353 922 353 1747 
Q 353 2572 751 3078 
Q 1150 3584 1784 3584 
Q 2172 3584 2448 3432 
Q 2725 3281 2906 2969 
z
M 947 1747 
Q 947 1113 1208 752 
Q 1469 391 1925 391 
Q 2381 391 2643 752 
Q 2906 1113 2906 1747 
Q 2906 2381 2643 2742 
Q 2381 3103 1925 3103 
Q 1469 3103 1208 2742 
Q 947 2381 947 1747 
z
" transform="scale(0.015625)"/>
       <path id="DejaVuSans-49" d="M 628 4666 
L 1259 4666 
L 1259 0 
L 628 0 
L 628 4666 
z
" transform="scale(0.015625)"/>
       <path id="DejaVuSans-73" d="M 2834 3397 
L 2834 2853 
Q 2591 2978 2328 3040 
Q 2066 3103 1784 3103 
Q 1356 3103 1142 2972 
Q 928 2841 928 2578 
Q 928 2378 1081 2264 
Q 1234 2150 1697 2047 
L 1894 2003 
Q 2506 1872 2764 1633 
Q 3022 1394 3022 966 
Q 3022 478 2636 193 
Q 2250 -91 1575 -91 
Q 1294 -91 989 -36 
Q 684 19 347 128 
L 347 722 
Q 666 556 975 473 
Q 1284 391 1588 391 
Q 1994 391 2212 530 
Q 2431 669 2431 922 
Q 2431 1156 2273 1281 
Q 2116 1406 1581 1522 
L 1381 1569 
Q 847 1681 609 1914 
Q 372 2147 372 2553 
Q 372 3047 722 3315 
Q 1072 3584 1716 3584 
Q 2034 3584 2315 3537 
Q 2597 3491 2834 3397 
z
" transform="scale(0.015625)"/>
       <path id="DejaVuSans-79" d="M 2059 -325 
Q 1816 -950 1584 -1140 
Q 1353 -1331 966 -1331 
L 506 -1331 
L 506 -850 
L 844 -850 
Q 1081 -850 1212 -737 
Q 1344 -625 1503 -206 
L 1606 56 
L 191 3500 
L 800 3500 
L 1894 763 
L 2988 3500 
L 3597 3500 
L 2059 -325 
z
" transform="scale(0.015625)"/>
      </defs>
      <use xlink:href="#DejaVuSans-4e"/>
      <use xlink:href="#DejaVuSans-6f" transform="translate(74.804688 0)"/>
      <use xlink:href="#DejaVuSans-72" transform="translate(135.986328 0)"/>
      <use xlink:href="#DejaVuSans-6d" transform="translate(175.349609 0)"/>
      <use xlink:href="#DejaVuSans-61" transform="translate(272.761719 0)"/>
      <use xlink:href="#DejaVuSans-6c" transform="translate(334.041016 0)"/>
      <use xlink:href="#DejaVuSans-69" transform="translate(361.824219 0)"/>
      <use xlink:href="#DejaVuSans-7a" transform="translate(389.607422 0)"/>
      <use xlink:href="#DejaVuSans-65" transform="translate(442.097656 0)"/>
      <use xlink:href="#DejaVuSans-64" transform="translate(503.621094 0)"/>
      <use xlink:href="#DejaVuSans-20" transform="translate(567.097656 0)"/>
      <use xlink:href="#DejaVuSans-49" transform="translate(598.884766 0)"/>
      <use xlink:href="#DejaVuSans-6e" transform="translate(628.376953 0)"/>
      <use xlink:href="#DejaVuSans-74" transform="translate(691.755859 0)"/>
      <use xlink:href="#DejaVuSans-65" transform="translate(730.964844 0)"/>
      <use xlink:href="#DejaVuSans-6e" transform="translate(792.488281 0)"/>
      <use xlink:href="#DejaVuSans-73" transform="translate(855.867188 0)"/>
      <use xlink:href="#DejaVuSans-69" transform="translate(907.966797 0)"/>
      <use xlink:href="#DejaVuSans-74" transform="translate(935.75 0)"/>
      <use xlink:href="#DejaVuSans-79" transform="translate(974.958984 0)"/>
     </g>
    </g>
   </g>
   <g id="line2d_13">
    <path d="M 84.332727 510.307864 
L 89.222574 510.234936 
L 102.669652 509.549816 
L 110.004423 509.56472 
L 136.898579 510.072459 
L 139.343503 509.968606 
L 144.23335 509.468414 
L 147.900735 509.639776 
L 150.345658 509.767915 
L 151.56812 509.691299 
L 152.790581 509.098643 
L 154.013043 507.270953 
L 155.235505 503.78275 
L 156.457966 499.323287 
L 157.680428 495.518465 
L 158.90289 493.76288 
L 160.125351 494.343685 
L 161.347813 496.545365 
L 162.570275 499.297268 
L 163.792736 501.712399 
L 165.015198 503.284102 
L 166.23766 503.886929 
L 167.460121 503.728911 
L 169.905045 502.724429 
L 171.127506 502.441462 
L 172.349968 502.368773 
L 173.57243 502.442182 
L 174.794891 502.647298 
L 176.017353 503.049554 
L 177.239815 503.730969 
L 178.462277 504.697049 
L 180.9072 506.957388 
L 182.129662 507.844657 
L 183.352123 508.351898 
L 187.019508 508.970298 
L 188.24197 509.270965 
L 189.464432 509.266266 
L 190.686893 508.864318 
L 191.909355 508.299276 
L 193.131817 507.885906 
L 194.354278 507.793116 
L 195.57674 508.009603 
L 199.244125 509.274104 
L 200.466587 509.525152 
L 201.689048 509.600962 
L 204.133972 509.357186 
L 206.578895 509.068045 
L 210.24628 508.845589 
L 212.691204 508.884866 
L 220.025974 509.263093 
L 224.91582 509.348988 
L 231.028129 509.332248 
L 240.807822 509.57827 
L 250.587516 509.54997 
L 255.477362 509.554138 
L 260.367209 509.516524 
L 265.257056 509.443544 
L 286.038904 509.558752 
L 288.483828 509.476698 
L 294.596136 508.777668 
L 310.488138 509.257981 
L 327.602601 509.12341 
L 332.492448 508.63375 
L 339.827218 508.405428 
L 342.272141 508.558506 
L 343.494603 508.523242 
L 344.717065 508.116698 
L 345.939526 506.389413 
L 347.161988 500.64022 
L 348.38445 486.857224 
L 349.606912 463.863485 
L 350.829373 437.392382 
L 352.051835 417.664974 
L 353.274297 412.02049 
L 354.496758 420.437218 
L 355.71922 437.247606 
L 356.941682 455.700223 
L 358.164143 471.23918 
L 359.386605 482.200398 
L 360.609067 488.871472 
L 361.831528 492.356296 
L 363.05399 493.954001 
L 365.498913 495.864704 
L 366.721375 497.24057 
L 369.166298 500.367218 
L 370.38876 501.556629 
L 371.611222 502.302277 
L 372.833683 502.703932 
L 375.278607 503.333173 
L 380.168453 505.104828 
L 381.390915 505.116491 
L 382.613377 504.670396 
L 385.0583 503.099877 
L 386.280762 502.777753 
L 387.503224 503.032745 
L 389.948147 504.250577 
L 391.170609 504.095886 
L 392.39307 500.619003 
L 393.615532 487.357965 
L 394.837994 456.907334 
L 397.282917 361.810464 
L 398.505379 330.481912 
L 399.72784 326.157809 
L 400.950302 344.582024 
L 403.395225 401.904315 
L 404.617687 424.34037 
L 405.840149 440.582817 
L 407.06261 452.583986 
L 408.285072 462.236469 
L 409.507534 470.539207 
L 410.729995 477.744708 
L 411.952457 483.795598 
L 413.174919 488.641949 
L 414.39738 492.349899 
L 415.619842 495.061701 
L 416.842304 496.905136 
L 418.064766 497.979443 
L 419.287227 498.459413 
L 421.732151 498.932488 
L 422.954612 499.46537 
L 425.399536 501.113329 
L 426.621997 501.927532 
L 427.844459 502.59761 
L 429.066921 503.090684 
L 430.289382 503.400475 
L 431.511844 503.542525 
L 432.734306 503.515254 
L 433.956767 503.239782 
L 435.179229 502.520736 
L 436.401691 500.866363 
L 437.624152 497.224447 
L 438.846614 490.487631 
L 441.291537 472.174096 
L 442.513999 467.41165 
L 443.736461 468.64135 
L 444.958922 474.660424 
L 447.403846 490.045258 
L 448.626307 495.568308 
L 449.848769 499.101963 
L 451.071231 501.156808 
L 452.293693 502.341468 
L 453.516154 503.095537 
L 454.738616 503.646995 
L 455.961078 504.067278 
L 457.183539 504.289614 
L 458.406001 504.059748 
L 459.628463 503.057632 
L 462.073386 499.562311 
L 463.295848 498.608803 
L 464.518309 498.858016 
L 465.740771 500.035575 
L 468.185694 502.934244 
L 469.408156 503.925949 
L 470.630618 504.478555 
L 471.853079 504.605889 
L 473.075541 504.326266 
L 474.298003 503.622108 
L 475.520464 502.417638 
L 477.965388 498.878752 
L 479.187849 497.520535 
L 480.410311 497.075263 
L 481.632773 497.390269 
L 485.300158 499.022208 
L 486.52262 499.877883 
L 487.745081 501.10086 
L 490.190005 503.829711 
L 491.412466 504.841106 
L 492.634928 505.486108 
L 493.85739 505.854147 
L 496.302313 506.241155 
L 501.19216 506.617015 
L 506.082006 507.497251 
L 507.304468 507.131494 
L 508.52693 504.637876 
L 509.749391 497.222286 
L 510.971853 483.791653 
L 512.194315 468.035659 
L 513.416776 456.687794 
L 514.639238 454.134935 
L 515.8617 459.589979 
L 518.306623 478.5656 
L 519.529085 486.265614 
L 520.751547 491.729646 
L 521.974008 494.99126 
L 523.19647 495.911391 
L 524.418932 494.716406 
L 525.641393 492.657392 
L 526.863855 491.477672 
L 528.086317 492.179292 
L 529.308778 494.517156 
L 530.53124 497.504979 
L 531.753702 500.199064 
L 532.976163 502.154825 
L 534.198625 503.422224 
L 535.421087 504.25694 
L 536.643548 504.826321 
L 537.86601 505.12011 
L 539.088472 505.100815 
L 541.533395 504.778502 
L 542.755857 504.955644 
L 546.423242 506.320224 
L 547.645703 506.318286 
L 550.090627 505.805402 
L 551.313088 505.823548 
L 552.53555 506.141985 
L 556.202935 507.518365 
L 557.425397 507.78382 
L 559.87032 508.008231 
L 562.315244 508.212044 
L 567.20509 509.013589 
L 569.650014 508.959921 
L 575.762322 508.606753 
L 578.207245 508.597714 
L 586.764477 508.840838 
L 594.099247 508.814647 
L 598.989094 509.030569 
L 602.656479 508.884523 
L 607.546326 508.5931 
L 611.213711 508.787582 
L 616.103557 508.998684 
L 620.993404 508.987158 
L 628.328174 508.905431 
L 636.885406 509.009472 
L 639.330329 508.913938 
L 641.775253 508.637643 
L 645.442638 508.054095 
L 646.665099 508.010976 
L 649.110023 508.269844 
L 652.777408 508.797736 
L 656.444793 509.106996 
L 661.33464 509.210883 
L 673.559256 509.485686 
L 687.006335 509.677098 
L 712.67803 509.833434 
L 721.235262 509.964541 
L 726.125109 510.124822 
L 734.68234 510.098992 
L 739.572187 510.146571 
L 745.684495 510.163585 
L 751.796804 510.196791 
L 760.354036 510.197734 
L 816.587273 510.987273 
L 816.587273 510.987273 
" clip-path="url(#pc856a56939)" style="fill: none; stroke: #0000ff; stroke-width: 1.5; stroke-linecap: square"/>
   </g>
   <g id="line2d_14">
    <path d="M 90.653588 233.982029 
L 90.653588 233.994213 
L 92.39804 233.982538 
L 95.543434 234.032217 
L 103.93759 234.064578 
L 114.089645 234.062836 
L 131.597252 234.074386 
L 346.558826 234.050898 
L 346.558826 234.039139 
L 347.597674 233.857245 
L 348.289342 233.489349 
L 349.3233 232.767297 
L 349.666812 232.484998 
L 350.010079 232.606766 
L 350.010079 232.438575 
L 350.352858 232.653493 
L 350.352858 232.386409 
L 350.695147 232.765131 
L 350.695147 231.936404 
L 351.034258 232.13168 
L 351.034258 231.190221 
L 351.369457 231.689074 
L 351.369457 230.571099 
L 351.707834 231.160655 
L 351.707834 229.663715 
L 352.038877 230.48537 
L 352.038877 229.124601 
L 352.368941 229.878379 
L 352.368941 228.431597 
L 352.698028 229.932641 
L 352.698028 228.324361 
L 353.027115 229.532927 
L 353.027115 228.284058 
L 353.355468 229.913174 
L 353.355468 228.67154 
L 353.684066 230.184155 
L 353.684066 228.634429 
L 354.01193 230.167298 
L 354.01193 228.755729 
L 354.339794 229.845196 
L 354.339794 228.505743 
L 354.667658 229.862902 
L 354.667658 228.444916 
L 354.995523 229.750882 
L 354.995523 228.477225 
L 355.323631 229.714612 
L 355.323631 228.693086 
L 355.65174 230.049856 
L 355.65174 228.574393 
L 355.979604 229.891529 
L 355.979604 228.676729 
L 356.310402 229.983898 
L 356.310402 228.740452 
L 356.644134 230.105584 
L 356.644134 228.573369 
L 356.972488 229.956737 
L 356.972488 228.500424 
L 357.300596 229.625602 
L 357.300596 228.477807 
L 357.629194 229.997236 
L 357.629194 228.466526 
L 357.957792 229.885676 
L 357.957792 228.590387 
L 358.286878 229.907188 
L 358.286878 228.636208 
L 358.615721 229.969372 
L 358.615721 228.604643 
L 358.945296 229.99495 
L 358.945296 228.602758 
L 359.274627 229.938416 
L 359.274627 229.004018 
L 359.604203 230.279169 
L 359.604203 228.654036 
L 359.934023 230.062231 
L 359.934023 228.68815 
L 360.263599 229.759321 
L 360.263599 228.916824 
L 360.593908 230.613009 
L 360.593908 229.535097 
L 360.924217 230.959099 
L 360.924217 230.03335 
L 361.254771 230.81314 
L 361.254771 229.372228 
L 361.591926 229.091029 
L 361.922968 229.101245 
L 361.922968 229.217187 
L 362.254011 229.424303 
L 362.254011 229.245398 
L 362.585298 230.608927 
L 362.585298 229.431805 
L 362.915852 230.288066 
L 362.915852 229.042483 
L 363.247628 230.699013 
L 363.247628 229.521412 
L 363.579404 230.728308 
L 363.579404 229.621353 
L 363.910691 229.749511 
L 364.242712 229.605681 
L 364.242712 229.868358 
L 364.574488 229.847762 
L 364.574488 230.009313 
L 364.906264 231.171615 
L 364.906264 230.438063 
L 365.239018 231.343317 
L 365.239018 230.263927 
L 365.574461 231.26452 
L 365.574461 230.353469 
L 365.907216 231.160415 
L 365.907216 230.258881 
L 366.240214 231.322351 
L 366.240214 230.402366 
L 366.579814 231.227571 
L 366.579814 230.40315 
L 366.91379 231.360355 
L 366.91379 230.516155 
L 367.248745 231.512698 
L 367.248745 230.563567 
L 367.583944 231.4143 
L 367.583944 230.4424 
L 367.918898 231.326559 
L 367.918898 230.482087 
L 368.254097 231.456428 
L 368.254097 230.53283 
L 368.589296 231.512818 
L 368.589296 230.696808 
L 368.924495 231.564036 
L 368.924495 230.920449 
L 369.932537 230.940405 
L 369.932537 230.795573 
L 370.269692 231.748889 
L 370.269692 231.056727 
L 370.605869 231.971188 
L 370.605869 231.156626 
L 370.94278 231.936804 
L 370.94278 231.142671 
L 371.280424 231.831264 
L 371.280424 231.040072 
L 371.623935 231.840039 
L 371.623935 231.154262 
L 371.960846 231.960404 
L 371.960846 231.378185 
L 372.299468 232.067036 
L 372.299468 231.452031 
L 372.637356 232.251425 
L 372.637356 231.603602 
L 372.976467 232.235991 
L 372.976467 231.741953 
L 373.314111 232.400287 
L 373.314111 231.785543 
L 373.653222 232.37732 
L 373.653222 231.682504 
L 374.33291 231.515454 
L 374.33291 231.535322 
L 374.6752 231.543596 
L 374.6752 231.524224 
L 375.016266 232.247391 
L 375.016266 231.639048 
L 375.357333 232.235745 
L 375.357333 231.752164 
L 375.698889 232.432625 
L 375.698889 231.805289 
L 376.0402 232.479811 
L 376.0402 231.947811 
L 376.385179 232.48164 
L 376.385179 231.937351 
L 376.732847 232.553529 
L 376.732847 231.977569 
L 377.074892 232.49555 
L 377.074892 231.866912 
L 377.759715 231.800583 
L 377.759715 231.913443 
L 378.102004 232.028457 
L 378.444538 232.649325 
L 378.444538 231.989522 
L 378.786827 232.445875 
L 378.786827 231.797756 
L 379.129361 232.318424 
L 379.129361 231.707341 
L 379.471895 232.35823 
L 379.471895 231.906541 
L 380.499741 231.748119 
L 380.84203 232.455148 
L 380.84203 231.828051 
L 381.527342 231.923311 
L 381.527342 231.852096 
L 381.875743 231.424393 
L 382.218766 232.168713 
L 382.906279 232.087359 
L 383.592569 232.107184 
L 383.592569 232.116405 
L 383.935347 232.692659 
L 383.935347 232.160567 
L 384.278125 232.622106 
L 384.278125 232.100622 
L 384.621392 232.602306 
L 384.621392 232.094321 
L 384.964415 232.638087 
L 384.964415 232.086126 
L 385.307682 232.59875 
L 385.307682 232.089631 
L 385.650461 232.569672 
L 385.650461 232.054745 
L 385.993239 232.530704 
L 385.993239 232.07858 
L 386.336751 232.568106 
L 386.336751 232.056311 
L 386.679284 232.575744 
L 386.679284 231.980699 
L 387.026708 232.43547 
L 387.026708 231.836585 
L 387.368753 232.372401 
L 387.368753 231.772093 
L 387.710798 232.357805 
L 387.710798 231.75158 
L 388.052842 232.368299 
L 388.052842 231.732873 
L 388.394643 232.30598 
L 388.394643 231.730909 
L 388.736687 232.296271 
L 388.736687 231.72343 
L 389.079221 232.378942 
L 389.079221 231.861725 
L 389.42151 232.506978 
L 389.42151 232.009515 
L 389.764044 232.546047 
L 389.764044 231.937339 
L 390.106089 232.460134 
L 390.106089 231.882488 
L 390.448867 232.432941 
L 390.448867 231.905483 
L 390.79189 232.443246 
L 390.79189 231.981157 
L 391.134668 232.515629 
L 391.134668 232.014043 
L 391.477446 232.566295 
L 391.477446 232.159634 
L 391.820225 232.628457 
L 391.820225 232.18939 
L 392.168871 232.667245 
L 392.168871 232.2642 
L 392.51336 232.712792 
L 392.51336 232.291214 
L 392.856383 232.733467 
L 392.856383 232.22375 
L 393.204051 232.649586 
L 393.204051 232.169737 
L 393.54683 232.590896 
L 393.54683 232.160643 
L 393.889608 232.329326 
L 394.232631 232.35824 
L 394.232631 232.477965 
L 394.575653 232.504777 
L 394.575653 232.725405 
L 394.918676 233.080023 
L 394.918676 232.745447 
L 395.261454 233.14383 
L 395.261454 232.759304 
L 395.604477 233.022852 
L 395.604477 232.662831 
L 395.947255 233.005169 
L 395.947255 232.595453 
L 396.289789 232.947665 
L 396.289789 232.540337 
L 396.632078 232.943251 
L 396.632078 232.435939 
L 396.971434 232.811617 
L 396.971434 232.424574 
L 397.310789 232.701314 
L 397.310789 232.364558 
L 397.642321 232.792253 
L 397.642321 232.333831 
L 397.972141 232.759845 
L 397.972141 232.547252 
L 398.300983 232.448 
L 399.285065 232.735426 
L 399.61244 232.45291 
L 399.939571 232.784002 
L 399.939571 232.475464 
L 400.921941 233.364531 
L 400.921941 233.08058 
L 401.249072 233.277879 
L 401.576447 232.95713 
L 401.903822 232.805324 
L 402.236332 232.843584 
L 402.236332 232.722247 
L 402.890838 232.519 
L 403.218213 232.850285 
L 403.218213 232.547116 
L 403.873208 232.920928 
L 403.873208 233.094638 
L 403.873208 233.046223 
L 404.201806 232.93218 
L 404.861201 232.334971 
L 405.189066 232.518116 
L 405.189066 232.282781 
L 405.845283 232.995261 
L 405.845283 232.786534 
L 406.173392 233.0527 
L 406.173392 232.811056 
L 406.501501 232.99459 
L 406.830098 233.04572 
L 406.830098 232.922417 
L 407.164075 232.733588 
L 407.492672 232.73919 
L 407.821026 233.071543 
L 407.821026 232.706844 
L 408.150112 233.022474 
L 408.150112 232.874382 
L 408.478955 233.012587 
L 408.807552 233.030074 
L 408.807552 233.151718 
L 409.136639 233.222926 
L 409.136639 233.106614 
L 409.46597 233.221516 
L 409.46597 232.87428 
L 409.795546 232.72825 
L 410.454697 232.786523 
L 410.454697 232.787462 
L 410.784028 233.141064 
L 410.784028 232.804173 
L 411.114093 233.182033 
L 411.114093 232.774799 
L 411.444158 232.662721 
L 412.111133 232.688796 
L 412.442175 233.101621 
L 412.442175 232.777459 
L 412.771995 233.134638 
L 412.771995 232.760386 
L 413.102549 233.079846 
L 413.102549 232.794178 
L 413.433103 233.129771 
L 413.433103 232.836267 
L 413.767568 232.862638 
L 414.098855 232.510401 
L 414.430876 232.822682 
L 414.430876 232.488688 
L 415.094184 233.13162 
L 415.094184 232.748127 
L 415.427182 233.027026 
L 415.427182 232.672479 
L 415.758714 233.006668 
L 415.758714 232.702244 
L 416.091712 233.10253 
L 416.091712 232.786254 
L 416.424955 233.119388 
L 416.424955 232.865924 
L 416.757465 233.228454 
L 416.757465 232.958326 
L 417.096331 233.280817 
L 417.096331 232.907237 
L 417.428841 233.214052 
L 417.428841 232.951587 
L 417.763551 233.153423 
L 417.763551 232.971056 
L 418.096305 233.348813 
L 418.096305 233.06299 
L 418.430282 233.321702 
L 418.430282 233.045303 
L 418.764258 233.220846 
L 418.764258 232.866304 
L 419.099213 233.139659 
L 419.099213 232.850397 
L 419.434167 233.12118 
L 419.434167 232.915152 
L 419.769366 233.297853 
L 419.769366 232.988056 
L 420.105299 233.271409 
L 420.105299 233.055278 
L 420.442453 233.201628 
L 420.442453 232.909035 
L 420.777408 233.214135 
L 420.777408 233.04066 
L 421.115052 233.332642 
L 421.115052 233.156089 
L 421.789117 233.244569 
L 421.789117 233.215719 
L 422.130918 232.937441 
L 422.466361 233.199234 
L 422.466361 233.056115 
L 423.490784 233.010206 
L 423.490784 233.128561 
L 423.827939 233.183836 
L 424.167539 233.431335 
L 424.167539 233.193364 
L 424.502982 233.401057 
L 424.502982 233.237582 
L 424.84356 233.473963 
L 424.84356 233.293163 
L 425.519337 233.347611 
L 425.519337 233.296861 
L 425.519337 233.261161 
L 425.858937 233.451986 
L 425.858937 233.367861 
L 426.197559 233.119316 
L 426.879203 233.058557 
L 426.879203 232.864798 
L 427.568427 233.424867 
L 427.568427 233.220944 
L 427.910472 233.396836 
L 427.910472 233.193261 
L 428.252761 233.40016 
L 428.252761 233.220472 
L 428.594806 233.416399 
L 428.594806 233.278508 
L 428.936851 233.514853 
L 428.936851 233.298936 
L 429.278895 233.489817 
L 429.278895 233.290109 
L 429.62094 233.448357 
L 429.62094 233.259853 
L 429.963474 233.473718 
L 429.963474 233.257812 
L 430.305763 233.498948 
L 430.305763 233.263273 
L 430.648053 233.445042 
L 430.648053 233.250477 
L 430.990342 233.476676 
L 430.990342 233.25259 
L 431.332876 233.464061 
L 431.332876 233.270637 
L 431.675654 233.454852 
L 431.675654 233.206489 
L 432.018188 233.411976 
L 432.018188 233.249126 
L 432.3661 233.485853 
L 432.3661 233.310413 
L 433.050679 233.351917 
L 433.050679 233.336985 
L 433.39908 233.083358 
L 433.74137 233.266068 
L 433.74137 233.253271 
L 434.084148 233.224195 
L 434.426926 233.453855 
L 434.426926 233.241139 
L 434.769215 233.479146 
L 434.769215 233.289758 
L 435.111749 233.481129 
L 435.111749 233.272639 
L 435.454527 233.473142 
L 435.454527 233.303181 
L 435.797061 233.476469 
L 435.797061 233.283318 
L 436.482373 233.503352 
L 436.482373 233.36062 
L 436.824662 233.550913 
L 436.824662 233.403343 
L 437.167196 233.516139 
L 437.167196 233.265356 
L 437.857154 233.539458 
L 437.857154 233.304202 
L 438.541977 233.401563 
L 438.541977 233.385749 
L 439.568111 233.482853 
L 439.568111 233.56589 
L 439.909911 233.538543 
L 440.251712 233.683231 
L 440.251712 233.571553 
L 440.593512 233.663421 
L 440.593512 233.500015 
L 441.268555 233.494626 
L 441.268555 233.462778 
L 441.602776 233.278786 
L 441.935041 233.33343 
L 442.267795 233.518597 
L 442.267795 233.41774 
L 442.603728 233.592871 
L 442.603728 233.714317 
L 442.933303 233.715069 
L 442.933303 233.658857 
L 443.262146 233.389704 
L 443.920075 233.3572 
L 443.920075 233.16508 
L 444.248672 233.364235 
L 444.577025 233.28895 
L 445.234221 233.3949 
L 445.562819 233.352089 
L 445.891172 233.138916 
L 446.220258 233.117783 
L 446.549345 232.840692 
L 447.208252 233.276392 
L 447.208252 233.344192 
L 447.543451 233.61622 
L 447.543451 233.326062 
L 448.536334 233.231275 
L 448.536334 233.321455 
L 449.196953 233.537903 
L 449.196953 233.244896 
L 449.529462 233.450412 
L 449.529462 233.288367 
L 449.860749 233.392775 
L 449.860749 233.192047 
L 450.191547 233.484552 
L 450.191547 233.304967 
L 450.523812 233.498135 
L 450.523812 233.323119 
L 451.189321 233.39883 
L 451.521586 233.366997 
L 451.521586 233.393997 
L 451.853851 233.554764 
L 451.853851 233.381103 
L 452.857981 233.304178 
L 453.524956 233.377521 
L 453.524956 233.324689 
L 453.858443 233.108596 
L 454.191687 233.282625 
L 454.527863 233.041297 
L 454.862329 233.267841 
L 454.862329 233.249005 
L 455.199728 233.293324 
L 455.199728 233.238835 
L 455.536883 233.464987 
L 455.536883 233.235622 
L 455.874527 233.502465 
L 455.874527 233.301395 
L 456.211438 233.243627 
L 456.546637 233.022659 
L 456.883547 233.256281 
L 456.883547 233.081274 
L 457.219969 233.102569 
L 457.563725 233.39195 
L 457.899657 233.370642 
L 458.24048 233.554398 
L 458.24048 233.402927 
L 458.578857 233.585998 
L 458.578857 233.363027 
L 458.919924 233.527412 
L 458.919924 233.268128 
L 459.25659 233.407868 
L 459.25659 233.243089 
L 459.595945 233.451745 
L 459.595945 233.297758 
L 459.935056 233.545613 
L 459.935056 233.383853 
L 460.615967 233.260591 
L 460.957034 233.271152 
L 460.957034 233.253637 
L 461.297367 233.50452 
L 461.297367 233.296873 
L 461.640635 233.478867 
L 461.640635 233.290455 
L 462.324969 233.328958 
L 462.324969 233.322674 
L 462.672392 233.097714 
L 463.013459 233.267942 
L 463.013459 233.258028 
L 463.355259 233.21482 
L 463.355259 233.252527 
L 463.691681 233.477763 
L 463.691681 233.34806 
L 464.028102 233.554387 
L 464.028102 233.411882 
L 465.029787 233.194698 
L 465.029787 233.280076 
L 465.362786 233.539059 
L 465.362786 233.328888 
L 465.69554 233.560713 
L 465.69554 233.404497 
L 466.028783 233.500418 
L 466.028783 233.310622 
L 466.36227 233.514866 
L 466.36227 233.291808 
L 466.696492 233.455876 
L 466.696492 233.253991 
L 467.030468 233.488735 
L 467.030468 233.372522 
L 467.3642 233.587291 
L 467.3642 233.411591 
L 467.703311 233.601468 
L 467.703311 233.410832 
L 468.037776 233.550041 
L 468.037776 233.374368 
L 468.373464 233.528069 
L 468.373464 233.33915 
L 468.709152 233.519931 
L 468.709152 233.334845 
L 469.044596 233.520802 
L 469.044596 233.35496 
L 469.380284 233.566081 
L 469.380284 233.383877 
L 469.724285 233.586139 
L 469.724285 233.395741 
L 470.06584 233.570969 
L 470.06584 233.343767 
L 470.404707 233.487497 
L 470.404707 233.24675 
L 470.741373 233.433234 
L 470.741373 233.270231 
L 471.420817 233.263659 
L 471.420817 233.342911 
L 471.762862 233.341452 
L 471.762862 233.342087 
L 472.105151 233.571096 
L 472.105151 233.345793 
L 472.447685 233.501748 
L 472.447685 233.309102 
L 472.795353 233.476727 
L 472.795353 233.349717 
L 473.137887 233.57493 
L 473.137887 233.346095 
L 473.480176 233.518889 
L 473.480176 233.328126 
L 473.82271 233.485047 
L 473.82271 233.317248 
L 474.164999 233.515487 
L 474.164999 233.312588 
L 474.507533 233.483843 
L 474.507533 233.220513 
L 474.507533 233.329094 
L 475.535378 233.369345 
L 475.535378 233.15108 
L 475.878157 233.371794 
L 475.878157 233.245975 
L 476.22069 233.401176 
L 476.22069 233.269553 
L 476.563224 233.469867 
L 476.563224 233.272302 
L 476.905758 233.18827 
L 477.248047 233.110026 
L 477.248047 232.989751 
L 477.590826 232.980399 
L 477.590826 233.021292 
L 477.938738 233.182175 
L 477.938738 233.16843 
L 478.281027 233.353037 
L 478.281027 233.253323 
L 478.281027 233.168789 
L 478.623561 233.284796 
L 478.623561 233.20851 
L 478.96585 233.215295 
L 478.96585 233.190683 
L 479.307406 233.060235 
L 480.658471 233.39325 
L 480.658471 233.257578 
L 480.658471 233.439741 
L 481.664801 233.29461 
L 481.998289 233.5454 
L 481.998289 233.382551 
L 482.332999 233.523089 
L 482.332999 233.392091 
L 483.340796 233.334712 
L 483.340796 233.30609 
L 483.675751 233.452288 
L 483.675751 233.290749 
L 484.010461 233.47721 
L 484.010461 233.292755 
L 484.344926 233.450051 
L 484.344926 233.305897 
L 484.686482 233.484518 
L 484.686482 233.347271 
L 485.704548 233.277977 
L 485.704548 233.16506 
L 486.04317 233.356092 
L 486.04317 233.059115 
L 486.382281 233.208425 
L 486.382281 232.882681 
L 486.721392 233.130418 
L 486.721392 232.798251 
L 487.059525 233.088072 
L 487.059525 232.828217 
L 487.395946 233.141559 
L 487.395946 232.888921 
L 487.731145 233.258175 
L 487.731145 233.006319 
L 488.072456 233.278649 
L 488.072456 233.053924 
L 488.408633 233.307896 
L 488.408633 233.088111 
L 488.744566 233.361097 
L 488.744566 233.179402 
L 489.080498 233.400797 
L 489.080498 233.203159 
L 489.417164 233.371338 
L 489.417164 233.073866 
L 489.753097 233.293304 
L 489.753097 233.13434 
L 490.090252 233.311552 
L 490.090252 233.1426 
L 490.429363 233.458235 
L 490.429363 233.242536 
L 490.768718 233.364928 
L 490.768718 233.094587 
L 491.10734 233.289842 
L 491.10734 233.11111 
L 491.445962 233.323072 
L 491.445962 233.153114 
L 491.786784 233.43865 
L 491.786784 233.212549 
L 492.128829 233.377586 
L 492.128829 233.219166 
L 492.470874 233.414687 
L 492.470874 233.215285 
L 492.813163 233.466733 
L 492.813163 233.335754 
L 493.161075 233.486046 
L 493.161075 233.327082 
L 493.503609 233.533517 
L 493.503609 233.359387 
L 493.845898 233.507317 
L 493.845898 233.372284 
L 494.188432 233.558213 
L 494.188432 233.368258 
L 494.530966 233.521937 
L 494.530966 233.333052 
L 494.8735 233.478674 
L 494.8735 233.256827 
L 495.216278 233.451016 
L 495.216278 233.319873 
L 495.901834 233.611267 
L 495.901834 233.391883 
L 496.244857 233.51249 
L 496.244857 233.330795 
L 496.587636 233.471351 
L 496.587636 233.308853 
L 496.930169 233.518029 
L 496.930169 233.431867 
L 497.273192 233.563094 
L 497.273192 233.401733 
L 497.616459 233.583236 
L 497.616459 233.448058 
L 497.959482 233.564123 
L 497.959482 233.437655 
L 498.308128 233.628829 
L 498.308128 233.446427 
L 498.655307 233.604344 
L 498.655307 233.452494 
L 498.998819 233.632754 
L 498.998819 233.455067 
L 499.685109 233.672203 
L 499.685109 233.545477 
L 500.027887 233.679348 
L 500.027887 233.553463 
L 501.056955 233.473618 
L 501.056955 233.544917 
L 501.743245 233.770887 
L 501.743245 233.626903 
L 502.085779 233.693174 
L 502.085779 233.56293 
L 502.428802 233.65379 
L 502.428802 233.500771 
L 503.115336 233.662882 
L 503.115336 233.572863 
L 503.463982 233.717355 
L 503.463982 233.586932 
L 503.80725 233.67796 
L 503.80725 233.579321 
L 504.837785 233.445212 
L 505.868565 233.760743 
L 505.868565 233.641962 
L 506.899833 233.382143 
L 507.587346 233.520181 
L 509.312973 233.572771 
L 509.656973 233.445486 
L 510.688975 233.66179 
L 510.688975 233.479308 
L 511.032732 233.500732 
L 511.032732 232.915055 
L 511.376732 232.79775 
L 511.376732 231.591552 
L 511.72 231.153445 
L 511.72 227.911862 
L 512.063022 227.303931 
L 512.063022 221.644514 
L 512.405556 220.650047 
L 512.405556 210.479841 
L 512.741733 211.469752 
L 512.741733 195.93304 
L 513.073754 198.096296 
L 513.073754 175.288183 
L 513.405041 181.551302 
L 513.405041 155.106021 
L 513.739995 166.234538 
L 513.739995 135.778887 
L 514.069082 153.959494 
L 514.069082 122.591248 
L 514.400858 142.783684 
L 514.400858 104.958671 
L 514.728967 131.07816 
L 514.728967 95.5841 
L 515.056831 121.064191 
L 515.056831 79.260896 
L 515.384451 114.122906 
L 515.384451 67.295744 
L 515.71207 100.975963 
L 515.71207 55.09313 
L 516.039935 93.21827 
L 516.039935 50.483421 
L 516.367799 97.164888 
L 516.367799 49.932727 
L 516.695419 96.506133 
L 516.695419 59.18651 
L 517.023038 102.884066 
L 517.023038 64.563735 
L 517.350903 111.245498 
L 517.350903 74.632371 
L 517.678522 114.559473 
L 517.678522 84.309284 
L 518.006631 125.528392 
L 518.006631 98.508001 
L 518.33474 138.717318 
L 518.33474 111.769564 
L 518.668227 143.212871 
L 518.668227 116.250327 
L 518.996825 145.49601 
L 518.996825 123.39182 
L 519.325178 154.083657 
L 519.325178 133.619814 
L 519.65402 160.053324 
L 519.65402 140.22687 
L 519.982374 164.201828 
L 519.982374 147.707247 
L 520.31146 169.099734 
L 520.31146 153.927992 
L 520.641036 176.704266 
L 520.641036 158.792622 
L 520.970367 177.447497 
L 520.970367 164.387873 
L 521.299943 182.559139 
L 521.299943 167.397649 
L 521.629518 185.41375 
L 521.629518 170.792935 
L 521.959828 185.580648 
L 521.959828 170.958348 
L 522.289403 187.097783 
L 522.289403 175.441888 
L 522.619468 190.781728 
L 522.619468 178.997051 
L 522.951244 193.392738 
L 522.951244 181.937712 
L 523.282042 194.89387 
L 523.282042 182.98605 
L 523.621153 195.200281 
L 523.621153 182.486158 
L 523.952685 194.521222 
L 523.952685 184.582277 
L 524.283483 197.45447 
L 524.283483 187.42319 
L 524.614525 200.457134 
L 524.614525 190.612675 
L 524.945079 201.55556 
L 524.945079 191.084397 
L 525.276122 202.337067 
L 525.276122 192.568384 
L 525.608631 203.046414 
L 525.608631 193.551706 
L 525.939674 204.690645 
L 525.939674 196.576637 
L 526.270472 207.298232 
L 526.270472 199.331039 
L 526.602493 208.770052 
L 526.602493 201.060945 
L 526.935736 209.988614 
L 526.935736 203.969707 
L 527.269468 212.11542 
L 527.269468 206.548283 
L 527.601244 214.24724 
L 527.601244 208.877638 
L 527.93302 215.51915 
L 527.93302 210.451862 
L 528.263574 216.757892 
L 528.263574 211.923617 
L 528.600728 217.410491 
L 528.600728 212.94324 
L 528.930549 218.508589 
L 528.930549 214.389443 
L 529.260124 219.792251 
L 529.260124 215.823346 
L 529.590678 220.788881 
L 529.590678 217.048787 
L 529.920743 221.13726 
L 529.920743 217.104032 
L 530.251052 221.376952 
L 530.251052 217.063102 
L 530.581605 221.134119 
L 530.581605 218.176661 
L 530.912648 222.144858 
L 530.912648 218.591982 
L 531.244424 222.851647 
L 531.244424 219.460918 
L 531.576689 222.681231 
L 531.576689 219.301883 
L 531.909199 222.988568 
L 531.909199 219.644722 
L 532.244642 223.325949 
L 532.244642 220.14161 
L 532.576418 223.805302 
L 532.576418 220.763833 
L 532.909172 224.022822 
L 532.909172 221.190713 
L 533.242415 224.652906 
L 533.242415 221.554891 
L 533.581771 224.79309 
L 533.581771 222.39456 
L 533.916725 225.343404 
L 533.916725 222.703926 
L 534.251191 225.995889 
L 534.251191 223.377817 
L 534.585167 226.039741 
L 534.585167 223.230975 
L 534.919388 226.099844 
L 534.919388 223.706964 
L 535.254343 226.221172 
L 535.254343 223.923775 
L 535.591742 226.82112 
L 535.591742 224.56271 
L 535.926697 226.89403 
L 535.926697 225.095552 
L 536.26214 227.492277 
L 536.26214 225.549487 
L 536.596606 227.751424 
L 536.596606 225.867872 
L 536.935961 227.955614 
L 536.935961 225.874668 
L 537.270916 227.826247 
L 537.270916 226.021395 
L 537.606359 228.083492 
L 537.606359 226.35999 
L 537.941069 228.489882 
L 537.941069 226.812542 
L 538.276757 228.748553 
L 538.276757 226.75341 
L 538.617335 228.455016 
L 538.617335 226.892062 
L 538.955223 228.587851 
L 538.955223 227.037839 
L 539.292378 229.028669 
L 539.292378 227.503364 
L 539.628555 229.172648 
L 539.628555 227.80597 
L 539.96571 229.452257 
L 539.96571 228.083582 
L 540.304088 229.627872 
L 540.304088 228.224717 
L 540.641976 229.67393 
L 540.641976 228.186972 
L 540.982554 229.653308 
L 540.982554 228.506745 
L 541.323376 229.870208 
L 541.323376 228.476577 
L 541.663709 230.023203 
L 541.663709 228.474394 
L 542.005999 229.710646 
L 542.005999 228.367492 
L 542.347799 229.848708 
L 542.347799 228.477574 
L 542.689355 230.100372 
L 542.689355 228.772079 
L 543.0314 230.252058 
L 543.0314 228.865229 
L 543.372955 230.258233 
L 543.372955 228.765173 
L 543.720135 230.136401 
L 543.720135 228.906917 
L 544.061935 230.176546 
L 544.061935 229.047803 
L 544.403735 230.563065 
L 544.403735 229.252001 
L 544.742601 230.498225 
L 544.742601 229.227059 
L 545.086358 230.399671 
L 545.086358 229.20987 
L 545.427669 230.587694 
L 545.427669 229.52616 
L 545.767758 230.863873 
L 545.767758 229.664037 
L 546.108336 230.790635 
L 546.108336 229.677115 
L 546.450625 230.769112 
L 546.450625 229.752455 
L 546.79267 230.867278 
L 546.79267 229.901458 
L 547.134959 230.990063 
L 547.134959 230.128783 
L 547.477493 231.190408 
L 547.477493 230.2663 
L 547.820026 231.319466 
L 547.820026 230.21328 
L 548.162805 231.109615 
L 548.162805 230.1865 
L 548.505583 231.167568 
L 548.505583 230.265234 
L 548.85374 231.362725 
L 548.85374 230.406261 
L 549.196274 231.285244 
L 549.196274 230.511988 
L 549.539052 231.32427 
L 549.539052 230.395416 
L 549.881586 231.345285 
L 549.881586 230.637885 
L 550.224609 231.465902 
L 550.224609 230.732846 
L 550.567142 231.741425 
L 550.567142 230.942981 
L 550.909432 231.769028 
L 550.909432 230.993573 
L 551.251721 231.831326 
L 551.251721 231.122639 
L 551.594255 231.957231 
L 551.594255 231.274903 
L 551.936299 231.990495 
L 551.936299 231.352143 
L 552.2781 232.058036 
L 552.2781 231.441817 
L 552.618678 232.113869 
L 552.618678 231.569868 
L 552.958277 232.238752 
L 552.958277 231.544531 
L 553.297633 232.200415 
L 553.297633 231.606264 
L 553.636744 232.213986 
L 553.636744 231.629675 
L 553.9805 232.33176 
L 553.9805 231.73885 
L 554.320344 232.322545 
L 554.320344 231.768358 
L 554.665567 232.336413 
L 554.665567 231.795145 
L 555.008101 232.364351 
L 555.008101 231.846189 
L 555.350635 232.385527 
L 555.350635 231.69876 
L 555.693658 232.244396 
L 555.693658 231.621849 
L 556.036436 232.169809 
L 556.036436 231.639362 
L 556.379459 232.340914 
L 556.379459 231.696966 
L 556.722237 232.316009 
L 556.722237 231.729666 
L 557.065504 232.271735 
L 557.065504 231.680454 
L 557.408282 232.311858 
L 557.408282 231.815141 
L 557.751794 232.365094 
L 557.751794 231.895322 
L 558.094817 232.462293 
L 558.094817 231.952186 
L 558.438084 232.489153 
L 558.438084 232.060191 
L 558.781351 232.531421 
L 558.781351 232.012251 
L 559.129997 232.530606 
L 559.129997 232.002381 
L 559.473265 232.447446 
L 559.473265 231.949647 
L 559.817021 232.476702 
L 559.817021 231.902706 
L 560.160533 232.396896 
L 560.160533 232.063853 
L 560.504044 232.599039 
L 560.504044 232.141832 
L 560.847801 232.719995 
L 560.847801 232.25394 
L 561.191068 232.635625 
L 561.191068 232.233794 
L 561.534824 232.656375 
L 561.534824 232.3153 
L 561.878336 232.805591 
L 561.878336 232.235068 
L 562.226737 232.601634 
L 562.226737 232.227581 
L 562.570005 232.583661 
L 562.570005 232.174466 
L 562.913761 232.72781 
L 562.913761 232.381757 
L 563.257273 232.82163 
L 563.257273 232.383711 
L 563.60054 232.84424 
L 563.60054 232.43727 
L 563.943807 232.815831 
L 563.943807 232.311506 
L 564.292698 232.793473 
L 564.292698 232.374263 
L 564.637676 232.823325 
L 564.637676 232.453799 
L 565.667478 232.307065 
L 566.010745 232.886407 
L 566.010745 232.564488 
L 566.354012 232.919578 
L 566.354012 232.584286 
L 566.697769 232.999249 
L 566.697769 232.622234 
L 567.04128 232.958012 
L 567.04128 232.572404 
L 567.384792 232.854585 
L 567.384792 232.561189 
L 567.728548 232.878332 
L 567.728548 232.556722 
L 568.072305 232.957403 
L 568.072305 232.6831 
L 568.416061 232.967371 
L 568.416061 232.677076 
L 568.760306 232.973782 
L 568.760306 232.644008 
L 569.103818 232.974104 
L 569.103818 232.628975 
L 569.453197 232.972692 
L 569.453197 232.724262 
L 569.796954 233.050011 
L 569.796954 232.635866 
L 570.14071 232.980955 
L 570.14071 232.619407 
L 570.484955 232.881484 
L 570.484955 232.500411 
L 570.829934 232.865376 
L 570.829934 232.493124 
L 571.174179 232.866493 
L 571.174179 232.513806 
L 571.518424 232.887631 
L 571.518424 232.534237 
L 571.862669 232.929758 
L 571.862669 232.665099 
L 572.20667 233.037765 
L 572.20667 232.698356 
L 572.550426 233.098551 
L 572.550426 232.765914 
L 572.89516 233.036019 
L 572.89516 232.741402 
L 573.240628 233.097716 
L 573.240628 232.721646 
L 573.590252 233.051863 
L 573.590252 232.765414 
L 573.934497 233.076201 
L 573.934497 232.756717 
L 574.278743 233.122849 
L 574.278743 232.809696 
L 574.628367 233.059274 
L 574.628367 232.791938 
L 574.972856 233.064405 
L 574.972856 232.800662 
L 575.317102 233.131642 
L 575.317102 232.875917 
L 575.663058 233.14827 
L 575.663058 232.83502 
L 576.007303 233.112762 
L 576.007303 232.807433 
L 576.351549 233.117776 
L 576.351549 232.758507 
L 576.695549 233.134332 
L 576.695549 232.873045 
L 577.040283 233.189475 
L 577.040283 232.881525 
L 577.384284 233.250874 
L 577.384284 232.939644 
L 577.728529 233.193322 
L 577.728529 232.89801 
L 578.072775 233.20971 
L 578.072775 232.945158 
L 578.41702 233.263399 
L 578.41702 233.035013 
L 578.760776 233.300265 
L 578.760776 233.009331 
L 579.105021 233.274234 
L 579.105021 232.996606 
L 579.449266 233.21555 
L 579.449266 232.990247 
L 579.798891 233.261844 
L 579.798891 232.963832 
L 580.142891 233.24044 
L 580.142891 233.034881 
L 580.486892 233.284141 
L 580.486892 232.990812 
L 580.831382 233.317525 
L 580.831382 233.120041 
L 581.175382 233.356929 
L 581.175382 233.101719 
L 581.519628 233.402209 
L 581.519628 233.151604 
L 581.864362 233.346395 
L 581.864362 233.131558 
L 582.208851 233.391281 
L 582.208851 233.148614 
L 582.553097 233.392714 
L 582.553097 233.068311 
L 582.898564 233.290855 
L 582.898564 233.081308 
L 583.243054 233.308989 
L 583.243054 233.020644 
L 583.587544 233.341159 
L 583.587544 233.042791 
L 583.937168 233.256461 
L 583.937168 232.99511 
L 584.281657 233.263827 
L 584.281657 233.095902 
L 584.625903 233.387658 
L 584.625903 233.139547 
L 584.975771 233.37725 
L 584.975771 233.178478 
L 585.320505 233.331718 
L 585.320505 233.114708 
L 585.664751 233.356426 
L 585.664751 233.160243 
L 586.00924 233.376344 
L 586.00924 233.15115 
L 586.353241 233.360143 
L 586.353241 233.138543 
L 586.697486 233.37124 
L 586.697486 233.19987 
L 587.04222 233.446501 
L 587.04222 233.201792 
L 587.386955 233.424369 
L 587.386955 233.227388 
L 587.731689 233.399583 
L 587.731689 233.186436 
L 588.07569 233.43782 
L 588.07569 233.216712 
L 588.420179 233.403097 
L 588.420179 233.20289 
L 588.764424 233.387661 
L 588.764424 233.177744 
L 589.110381 233.385593 
L 589.110381 233.250076 
L 589.454626 233.435101 
L 589.454626 233.241848 
L 589.798872 233.450449 
L 589.798872 233.278084 
L 590.148496 233.451195 
L 590.148496 233.2224 
L 590.492741 233.43096 
L 590.492741 233.200842 
L 590.836742 233.391356 
L 590.836742 233.175416 
L 591.180742 233.418326 
L 591.180742 233.175739 
L 591.526943 233.410571 
L 591.526943 233.254412 
L 591.871433 233.439201 
L 591.871433 233.21241 
L 592.215678 233.462195 
L 592.215678 233.271779 
L 592.564324 233.425226 
L 592.564324 233.267432 
L 592.90857 233.507498 
L 592.90857 233.31143 
L 593.252815 233.52291 
L 593.252815 233.310419 
L 593.596571 233.486412 
L 593.596571 233.282658 
L 593.940816 233.475479 
L 593.940816 233.268879 
L 594.284817 233.478586 
L 594.284817 233.289911 
L 594.628818 233.477879 
L 594.628818 233.254121 
L 594.972818 233.44716 
L 594.972818 233.260396 
L 595.322198 233.449716 
L 595.322198 233.272068 
L 595.666443 233.507213 
L 595.666443 233.31354 
L 596.010688 233.495363 
L 596.010688 233.310284 
L 596.355178 233.47024 
L 596.355178 233.308062 
L 596.699179 233.503323 
L 596.699179 233.354804 
L 597.043424 233.541678 
L 597.043424 233.383775 
L 597.387669 233.552414 
L 597.387669 233.345914 
L 597.732159 233.493092 
L 597.732159 233.305037 
L 598.076404 233.470459 
L 598.076404 233.269855 
L 598.420894 233.474218 
L 598.420894 233.348996 
L 598.765383 233.523421 
L 598.765383 233.328534 
L 599.109629 233.542366 
L 599.109629 233.397718 
L 599.453874 233.549879 
L 599.453874 233.372188 
L 599.798364 233.582792 
L 599.798364 233.426388 
L 600.142609 233.5834 
L 600.142609 233.351435 
L 600.492477 233.549441 
L 600.492477 233.399872 
L 600.836967 233.517575 
L 600.836967 233.355848 
L 601.181457 233.562588 
L 601.181457 233.398336 
L 602.215415 233.082136 
L 603.596797 233.60809 
L 603.596797 233.458883 
L 603.941042 233.632572 
L 603.941042 233.501457 
L 604.285531 233.650419 
L 604.285531 233.49362 
L 604.630021 233.641062 
L 604.630021 233.486332 
L 604.975733 233.61322 
L 604.975733 233.482659 
L 605.319978 233.657605 
L 605.319978 233.54398 
L 605.669847 233.688892 
L 605.669847 233.56824 
L 606.014092 233.682513 
L 606.014092 233.519036 
L 606.358093 233.6501 
L 606.358093 233.466301 
L 606.702338 233.588507 
L 606.702338 233.453994 
L 607.046583 233.615281 
L 607.046583 233.476179 
L 607.390584 233.675588 
L 607.390584 233.550818 
L 608.079319 233.558597 
L 608.079319 233.52081 
L 608.767809 233.500542 
L 609.112055 233.676236 
L 609.112055 233.502525 
L 609.456055 233.603707 
L 609.456055 233.481965 
L 610.14479 233.672344 
L 610.14479 233.533207 
L 610.489035 233.717773 
L 610.489035 233.596119 
L 611.183149 233.376209 
L 611.527394 233.520557 
L 611.527394 233.349728 
L 612.56722 233.65841 
L 612.56722 233.566619 
L 613.256689 233.675121 
L 613.256689 233.490433 
L 613.945913 233.63565 
L 613.945913 233.49293 
L 614.290158 233.669986 
L 614.290158 233.543785 
L 614.634892 233.637302 
L 614.634892 233.477799 
L 615.669339 233.477713 
L 615.669339 233.50712 
L 616.019208 233.656317 
L 616.019208 233.519609 
L 616.363208 233.666793 
L 616.363208 233.534102 
L 616.708187 233.662055 
L 616.708187 233.585062 
L 617.398144 233.521088 
L 617.398144 233.555246 
L 617.742879 233.532433 
L 618.087613 233.743771 
L 618.087613 233.660884 
L 618.432836 233.759993 
L 618.432836 233.617613 
L 619.122304 233.499556 
L 619.467283 233.329124 
L 619.811773 233.47048 
L 619.811773 233.461592 
L 620.156751 233.433169 
L 620.501486 233.599787 
L 620.501486 233.433812 
L 621.542534 233.458974 
L 621.542534 233.308041 
L 622.581871 233.703711 
L 622.581871 233.587809 
L 622.925872 233.715121 
L 622.925872 233.612406 
L 623.959585 233.554494 
L 623.959585 233.590058 
L 624.648809 233.768887 
L 624.648809 233.638478 
L 624.993543 233.712689 
L 624.993543 233.570021 
L 625.684723 233.679008 
L 625.684723 233.546841 
L 626.029213 233.700538 
L 626.029213 233.623889 
L 628.099818 233.574802 
L 628.789287 233.719971 
L 628.789287 233.603784 
L 629.478266 233.697829 
L 629.478266 233.568982 
L 629.822756 233.684352 
L 629.822756 233.594175 
L 631.200715 233.694159 
L 631.200715 233.639708 
L 631.895073 233.737143 
L 631.895073 233.673965 
L 632.244697 233.773952 
L 632.244697 233.642642 
L 632.933187 233.767522 
L 632.933187 233.61335 
L 633.277433 233.744813 
L 633.277433 233.626635 
L 633.622167 233.723537 
L 633.622167 233.582174 
L 633.966412 233.719088 
L 633.966412 233.609165 
L 634.311146 233.710106 
L 634.311146 233.589046 
L 634.65588 233.615416 
L 635.000859 233.486449 
L 636.033839 233.74189 
L 636.033839 233.618138 
L 636.727953 233.717251 
L 636.727953 233.610307 
L 637.416688 233.774979 
L 637.416688 233.692413 
L 637.761178 233.817809 
L 637.761178 233.73091 
L 638.449668 233.802226 
L 638.449668 233.681766 
L 639.137914 233.76233 
L 639.137914 233.653385 
L 639.825915 233.776077 
L 639.825915 233.697332 
L 640.169672 233.811408 
L 640.169672 233.68389 
L 641.893342 233.654291 
L 642.2415 233.541142 
L 642.585256 233.65241 
L 642.585256 233.526002 
L 642.928768 233.646273 
L 644.303792 233.603935 
L 644.303792 233.634916 
L 644.647304 233.748347 
L 644.647304 233.629495 
L 644.99106 233.745404 
L 644.99106 233.633624 
L 645.678084 233.794211 
L 645.678084 233.680679 
L 646.021596 233.791956 
L 646.021596 233.697632 
L 646.365596 233.734783 
L 646.365596 233.621939 
L 646.709597 233.746633 
L 646.709597 233.635032 
L 647.401755 233.817938 
L 647.401755 233.69025 
L 647.745022 233.79358 
L 647.745022 233.646149 
L 648.432046 233.710846 
L 648.432046 233.624669 
L 649.11858 233.77019 
L 649.11858 233.67225 
L 650.491893 233.662911 
L 651.179161 233.655713 
L 651.179161 233.665294 
L 651.866674 233.819871 
L 651.866674 233.717838 
L 652.21532 233.676907 
L 652.559076 233.754205 
L 652.559076 233.70804 
L 664.613282 233.823359 
L 664.613282 233.679168 
L 665.302506 233.756662 
L 665.302506 233.687337 
L 665.646995 233.831908 
L 665.646995 233.765317 
L 665.991485 233.836761 
L 665.991485 233.773285 
L 666.680953 233.669177 
L 667.727136 233.569189 
L 667.727136 233.57275 
L 669.107784 233.82418 
L 669.107784 233.763094 
L 669.797986 233.880283 
L 669.797986 233.8135 
L 670.14272 233.872224 
L 670.14272 233.79246 
L 670.832922 233.814316 
L 670.832922 233.737412 
L 671.867858 233.730189 
L 671.867858 233.743581 
L 672.559038 233.846955 
L 672.559038 233.806446 
L 673.254619 233.878155 
L 673.254619 233.803151 
L 674.290533 233.833747 
L 674.290533 233.796343 
L 674.981713 233.758775 
L 674.981713 233.774009 
L 677.404143 233.851116 
L 677.404143 233.782709 
L 678.445925 233.792517 
L 678.445925 233.795784 
L 679.135882 233.847264 
L 679.135882 233.768825 
L 679.828529 233.868731 
L 679.828529 233.758362 
L 680.520442 233.784547 
L 680.520442 233.729931 
L 681.211377 233.84639 
L 681.211377 233.766732 
L 682.248269 233.865226 
L 682.248269 233.80593 
L 689.17327 233.843927 
L 689.863961 233.90847 
L 689.863961 233.832995 
L 690.554652 233.86454 
L 690.554652 233.786571 
L 691.245098 233.887027 
L 691.245098 233.828799 
L 695.741068 233.831606 
L 696.431759 233.734152 
L 697.122939 233.79237 
L 697.122939 233.836767 
L 697.819253 233.93254 
L 697.819253 233.858573 
L 698.510188 233.83526 
L 698.510188 233.779969 
L 699.552703 233.873122 
L 699.552703 233.822973 
L 701.625999 233.900671 
L 701.625999 233.848741 
L 702.662646 233.821931 
L 702.662646 233.84923 
L 703.353826 233.949562 
L 703.353826 233.892936 
L 704.049896 233.868239 
L 704.049896 233.805194 
L 704.740831 233.841377 
L 704.740831 233.83731 
L 705.086299 233.896931 
L 705.086299 233.845071 
L 706.123435 233.852292 
L 706.814615 233.927204 
L 706.814615 233.848247 
L 707.506039 233.909439 
L 707.506039 233.810827 
L 708.202109 233.868011 
L 708.202109 233.81389 
L 708.547332 233.910237 
L 708.547332 233.856711 
L 709.588869 233.835178 
L 710.626739 233.907429 
L 710.626739 233.835244 
L 712.00861 233.89154 
L 712.00861 233.86204 
L 712.700034 233.912758 
L 712.700034 233.850238 
L 713.735704 233.892532 
L 713.735704 233.841721 
L 714.43373 233.853999 
L 714.43373 233.813776 
L 715.815845 233.899756 
L 715.815845 233.855212 
L 716.851025 233.896477 
L 716.851025 233.875463 
L 718.582031 233.909666 
L 718.582031 233.893996 
L 719.624302 233.879695 
L 720.314748 233.914466 
L 720.314748 233.862829 
L 723.078245 233.84968 
L 723.078245 233.813071 
L 724.45816 233.823694 
L 724.45816 233.796275 
L 727.912592 233.908441 
L 727.912592 233.883865 
L 728.602549 233.854263 
L 729.292507 233.850471 
L 729.292507 233.872342 
L 729.992977 233.916688 
L 729.992977 233.875656 
L 788.655001 233.825744 
L 790.029048 233.862774 
L 790.029048 233.873949 
L 796.75381 233.874413 
L 797.422497 233.906156 
L 797.422497 233.867609 
L 798.751801 233.839341 
L 801.077657 233.846896 
L 804.752132 233.91686 
L 805.754795 233.910419 
L 805.754795 233.935043 
L 812.149003 233.914103 
L 812.149003 233.902724 
L 814.204206 233.927045 
L 814.204206 233.994761 
L 816.327622 234.072619 
L 816.327622 234.072619 
" clip-path="url(#pc856a56939)" style="fill: none; stroke: #008000; stroke-width: 1.5; stroke-linecap: square"/>
   </g>
   <g id="patch_3">
    <path d="M 47.72 534.04 
L 47.72 26.88 
" style="fill: none; stroke: #000000; stroke-width: 0.8; stroke-linejoin: miter; stroke-linecap: square"/>
   </g>
   <g id="patch_4">
    <path d="M 853.2 534.04 
L 853.2 26.88 
" style="fill: none; stroke: #000000; stroke-width: 0.8; stroke-linejoin: miter; stroke-linecap: square"/>
   </g>
   <g id="patch_5">
    <path d="M 47.72 534.04 
L 853.2 534.04 
" style="fill: none; stroke: #000000; stroke-width: 0.8; stroke-linejoin: miter; stroke-linecap: square"/>
   </g>
   <g id="patch_6">
    <path d="M 47.72 26.88 
L 853.2 26.88 
" style="fill: none; stroke: #000000; stroke-width: 0.8; stroke-linejoin: miter; stroke-linecap: square"/>
   </g>
   <g id="patch_7">
    <path d="M 583.972076 446.470069 
Q 557.820782 452.294242 531.669489 458.118415 
L 532.539028 462.022759 
Q 526.032281 460.398382 519.525534 458.774004 
Q 524.727972 454.541866 529.93041 450.309727 
L 530.799949 454.214071 
Q 556.951243 448.389898 583.102537 442.565725 
L 583.972076 446.470069 
z
" style="stroke: #000000; stroke-linecap: round"/>
   </g>
   <g id="text_15">
    <!-- Peak: RT=2.95, Area=3.14e+03 -->
    <g style="fill: #ff0000" transform="translate(589.209401 429.977161) scale(0.1 -0.1)">
     <defs>
      <path id="DejaVuSans-50" d="M 1259 4147 
L 1259 2394 
L 2053 2394 
Q 2494 2394 2734 2622 
Q 2975 2850 2975 3272 
Q 2975 3691 2734 3919 
Q 2494 4147 2053 4147 
L 1259 4147 
z
M 628 4666 
L 2053 4666 
Q 2838 4666 3239 4311 
Q 3641 3956 3641 3272 
Q 3641 2581 3239 2228 
Q 2838 1875 2053 1875 
L 1259 1875 
L 1259 0 
L 628 0 
L 628 4666 
z
" transform="scale(0.015625)"/>
      <path id="DejaVuSans-6b" d="M 581 4863 
L 1159 4863 
L 1159 1991 
L 2875 3500 
L 3609 3500 
L 1753 1863 
L 3688 0 
L 2938 0 
L 1159 1709 
L 1159 0 
L 581 0 
L 581 4863 
z
" transform="scale(0.015625)"/>
      <path id="DejaVuSans-3a" d="M 750 794 
L 1409 794 
L 1409 0 
L 750 0 
L 750 794 
z
M 750 3309 
L 1409 3309 
L 1409 2516 
L 750 2516 
L 750 3309 
z
" transform="scale(0.015625)"/>
      <path id="DejaVuSans-3d" d="M 678 2906 
L 4684 2906 
L 4684 2381 
L 678 2381 
L 678 2906 
z
M 678 1631 
L 4684 1631 
L 4684 1100 
L 678 1100 
L 678 1631 
z
" transform="scale(0.015625)"/>
      <path id="DejaVuSans-39" d="M 703 97 
L 703 672 
Q 941 559 1184 500 
Q 1428 441 1663 441 
Q 2288 441 2617 861 
Q 2947 1281 2994 2138 
Q 2813 1869 2534 1725 
Q 2256 1581 1919 1581 
Q 1219 1581 811 2004 
Q 403 2428 403 3163 
Q 403 3881 828 4315 
Q 1253 4750 1959 4750 
Q 2769 4750 3195 4129 
Q 3622 3509 3622 2328 
Q 3622 1225 3098 567 
Q 2575 -91 1691 -91 
Q 1453 -91 1209 -44 
Q 966 3 703 97 
z
M 1959 2075 
Q 2384 2075 2632 2365 
Q 2881 2656 2881 3163 
Q 2881 3666 2632 3958 
Q 2384 4250 1959 4250 
Q 1534 4250 1286 3958 
Q 1038 3666 1038 3163 
Q 1038 2656 1286 2365 
Q 1534 2075 1959 2075 
z
" transform="scale(0.015625)"/>
      <path id="DejaVuSans-2c" d="M 750 794 
L 1409 794 
L 1409 256 
L 897 -744 
L 494 -744 
L 750 256 
L 750 794 
z
" transform="scale(0.015625)"/>
      <path id="DejaVuSans-41" d="M 2188 4044 
L 1331 1722 
L 3047 1722 
L 2188 4044 
z
M 1831 4666 
L 2547 4666 
L 4325 0 
L 3669 0 
L 3244 1197 
L 1141 1197 
L 716 0 
L 50 0 
L 1831 4666 
z
" transform="scale(0.015625)"/>
      <path id="DejaVuSans-2b" d="M 2944 4013 
L 2944 2272 
L 4684 2272 
L 4684 1741 
L 2944 1741 
L 2944 0 
L 2419 0 
L 2419 1741 
L 678 1741 
L 678 2272 
L 2419 2272 
L 2419 4013 
L 2944 4013 
z
" transform="scale(0.015625)"/>
     </defs>
     <use xlink:href="#DejaVuSans-50"/>
     <use xlink:href="#DejaVuSans-65" transform="translate(56.677734 0)"/>
     <use xlink:href="#DejaVuSans-61" transform="translate(118.201172 0)"/>
     <use xlink:href="#DejaVuSans-6b" transform="translate(179.480469 0)"/>
     <use xlink:href="#DejaVuSans-3a" transform="translate(237.390625 0)"/>
     <use xlink:href="#DejaVuSans-20" transform="translate(271.082031 0)"/>
     <use xlink:href="#DejaVuSans-52" transform="translate(302.869141 0)"/>
     <use xlink:href="#DejaVuSans-54" transform="translate(365.101562 0)"/>
     <use xlink:href="#DejaVuSans-3d" transform="translate(426.185547 0)"/>
     <use xlink:href="#DejaVuSans-32" transform="translate(509.974609 0)"/>
     <use xlink:href="#DejaVuSans-2e" transform="translate(573.597656 0)"/>
     <use xlink:href="#DejaVuSans-39" transform="translate(605.384766 0)"/>
     <use xlink:href="#DejaVuSans-35" transform="translate(669.007812 0)"/>
     <use xlink:href="#DejaVuSans-2c" transform="translate(732.630859 0)"/>
     <use xlink:href="#DejaVuSans-20" transform="translate(764.417969 0)"/>
     <use xlink:href="#DejaVuSans-41" transform="translate(796.205078 0)"/>
     <use xlink:href="#DejaVuSans-72" transform="translate(864.613281 0)"/>
     <use xlink:href="#DejaVuSans-65" transform="translate(903.476562 0)"/>
     <use xlink:href="#DejaVuSans-61" transform="translate(965 0)"/>
     <use xlink:href="#DejaVuSans-3d" transform="translate(1026.279297 0)"/>
     <use xlink:href="#DejaVuSans-33" transform="translate(1110.068359 0)"/>
     <use xlink:href="#DejaVuSans-2e" transform="translate(1173.691406 0)"/>
     <use xlink:href="#DejaVuSans-31" transform="translate(1205.478516 0)"/>
     <use xlink:href="#DejaVuSans-34" transform="translate(1269.101562 0)"/>
     <use xlink:href="#DejaVuSans-65" transform="translate(1332.724609 0)"/>
     <use xlink:href="#DejaVuSans-2b" transform="translate(1394.248047 0)"/>
     <use xlink:href="#DejaVuSans-30" transform="translate(1478.037109 0)"/>
     <use xlink:href="#DejaVuSans-33" transform="translate(1541.660156 0)"/>
    </g>
    <!-- (15.92% of total) -->
    <g style="fill: #ff0000" transform="translate(589.209401 441.174974) scale(0.1 -0.1)">
     <defs>
      <path id="DejaVuSans-25" d="M 4653 2053 
Q 4381 2053 4226 1822 
Q 4072 1591 4072 1178 
Q 4072 772 4226 539 
Q 4381 306 4653 306 
Q 4919 306 5073 539 
Q 5228 772 5228 1178 
Q 5228 1588 5073 1820 
Q 4919 2053 4653 2053 
z
M 4653 2450 
Q 5147 2450 5437 2106 
Q 5728 1763 5728 1178 
Q 5728 594 5436 251 
Q 5144 -91 4653 -91 
Q 4153 -91 3862 251 
Q 3572 594 3572 1178 
Q 3572 1766 3864 2108 
Q 4156 2450 4653 2450 
z
M 1428 4353 
Q 1159 4353 1004 4120 
Q 850 3888 850 3481 
Q 850 3069 1003 2837 
Q 1156 2606 1428 2606 
Q 1700 2606 1854 2837 
Q 2009 3069 2009 3481 
Q 2009 3884 1853 4118 
Q 1697 4353 1428 4353 
z
M 4250 4750 
L 4750 4750 
L 1831 -91 
L 1331 -91 
L 4250 4750 
z
M 1428 4750 
Q 1922 4750 2215 4408 
Q 2509 4066 2509 3481 
Q 2509 2891 2217 2550 
Q 1925 2209 1428 2209 
Q 931 2209 642 2551 
Q 353 2894 353 3481 
Q 353 4063 643 4406 
Q 934 4750 1428 4750 
z
" transform="scale(0.015625)"/>
      <path id="DejaVuSans-66" d="M 2375 4863 
L 2375 4384 
L 1825 4384 
Q 1516 4384 1395 4259 
Q 1275 4134 1275 3809 
L 1275 3500 
L 2222 3500 
L 2222 3053 
L 1275 3053 
L 1275 0 
L 697 0 
L 697 3053 
L 147 3053 
L 147 3500 
L 697 3500 
L 697 3744 
Q 697 4328 969 4595 
Q 1241 4863 1831 4863 
L 2375 4863 
z
" transform="scale(0.015625)"/>
     </defs>
     <use xlink:href="#DejaVuSans-28"/>
     <use xlink:href="#DejaVuSans-31" transform="translate(39.013672 0)"/>
     <use xlink:href="#DejaVuSans-35" transform="translate(102.636719 0)"/>
     <use xlink:href="#DejaVuSans-2e" transform="translate(166.259766 0)"/>
     <use xlink:href="#DejaVuSans-39" transform="translate(198.046875 0)"/>
     <use xlink:href="#DejaVuSans-32" transform="translate(261.669922 0)"/>
     <use xlink:href="#DejaVuSans-25" transform="translate(325.292969 0)"/>
     <use xlink:href="#DejaVuSans-20" transform="translate(420.3125 0)"/>
     <use xlink:href="#DejaVuSans-6f" transform="translate(452.099609 0)"/>
     <use xlink:href="#DejaVuSans-66" transform="translate(513.28125 0)"/>
     <use xlink:href="#DejaVuSans-20" transform="translate(548.486328 0)"/>
     <use xlink:href="#DejaVuSans-74" transform="translate(580.273438 0)"/>
     <use xlink:href="#DejaVuSans-6f" transform="translate(619.482422 0)"/>
     <use xlink:href="#DejaVuSans-74" transform="translate(680.664062 0)"/>
     <use xlink:href="#DejaVuSans-61" transform="translate(719.873047 0)"/>
     <use xlink:href="#DejaVuSans-6c" transform="translate(781.152344 0)"/>
     <use xlink:href="#DejaVuSans-29" transform="translate(808.935547 0)"/>
    </g>
   </g>
   <g id="text_16">
    <!-- UV and MS Chromatograms of IrCp3J21, target m/z = 679.1844784 -->
    <g transform="translate(248.549688 20.88) scale(0.12 -0.12)">
     <defs>
      <path id="DejaVuSans-55" d="M 556 4666 
L 1191 4666 
L 1191 1831 
Q 1191 1081 1462 751 
Q 1734 422 2344 422 
Q 2950 422 3222 751 
Q 3494 1081 3494 1831 
L 3494 4666 
L 4128 4666 
L 4128 1753 
Q 4128 841 3676 375 
Q 3225 -91 2344 -91 
Q 1459 -91 1007 375 
Q 556 841 556 1753 
L 556 4666 
z
" transform="scale(0.015625)"/>
      <path id="DejaVuSans-56" d="M 1831 0 
L 50 4666 
L 709 4666 
L 2188 738 
L 3669 4666 
L 4325 4666 
L 2547 0 
L 1831 0 
z
" transform="scale(0.015625)"/>
      <path id="DejaVuSans-4d" d="M 628 4666 
L 1569 4666 
L 2759 1491 
L 3956 4666 
L 4897 4666 
L 4897 0 
L 4281 0 
L 4281 4097 
L 3078 897 
L 2444 897 
L 1241 4097 
L 1241 0 
L 628 0 
L 628 4666 
z
" transform="scale(0.015625)"/>
      <path id="DejaVuSans-53" d="M 3425 4513 
L 3425 3897 
Q 3066 4069 2747 4153 
Q 2428 4238 2131 4238 
Q 1616 4238 1336 4038 
Q 1056 3838 1056 3469 
Q 1056 3159 1242 3001 
Q 1428 2844 1947 2747 
L 2328 2669 
Q 3034 2534 3370 2195 
Q 3706 1856 3706 1288 
Q 3706 609 3251 259 
Q 2797 -91 1919 -91 
Q 1588 -91 1214 -16 
Q 841 59 441 206 
L 441 856 
Q 825 641 1194 531 
Q 1563 422 1919 422 
Q 2459 422 2753 634 
Q 3047 847 3047 1241 
Q 3047 1584 2836 1778 
Q 2625 1972 2144 2069 
L 1759 2144 
Q 1053 2284 737 2584 
Q 422 2884 422 3419 
Q 422 4038 858 4394 
Q 1294 4750 2059 4750 
Q 2388 4750 2728 4690 
Q 3069 4631 3425 4513 
z
" transform="scale(0.015625)"/>
      <path id="DejaVuSans-43" d="M 4122 4306 
L 4122 3641 
Q 3803 3938 3442 4084 
Q 3081 4231 2675 4231 
Q 1875 4231 1450 3742 
Q 1025 3253 1025 2328 
Q 1025 1406 1450 917 
Q 1875 428 2675 428 
Q 3081 428 3442 575 
Q 3803 722 4122 1019 
L 4122 359 
Q 3791 134 3420 21 
Q 3050 -91 2638 -91 
Q 1578 -91 968 557 
Q 359 1206 359 2328 
Q 359 3453 968 4101 
Q 1578 4750 2638 4750 
Q 3056 4750 3426 4639 
Q 3797 4528 4122 4306 
z
" transform="scale(0.015625)"/>
      <path id="DejaVuSans-68" d="M 3513 2113 
L 3513 0 
L 2938 0 
L 2938 2094 
Q 2938 2591 2744 2837 
Q 2550 3084 2163 3084 
Q 1697 3084 1428 2787 
Q 1159 2491 1159 1978 
L 1159 0 
L 581 0 
L 581 4863 
L 1159 4863 
L 1159 2956 
Q 1366 3272 1645 3428 
Q 1925 3584 2291 3584 
Q 2894 3584 3203 3211 
Q 3513 2838 3513 2113 
z
" transform="scale(0.015625)"/>
      <path id="DejaVuSans-67" d="M 2906 1791 
Q 2906 2416 2648 2759 
Q 2391 3103 1925 3103 
Q 1463 3103 1205 2759 
Q 947 2416 947 1791 
Q 947 1169 1205 825 
Q 1463 481 1925 481 
Q 2391 481 2648 825 
Q 2906 1169 2906 1791 
z
M 3481 434 
Q 3481 -459 3084 -895 
Q 2688 -1331 1869 -1331 
Q 1566 -1331 1297 -1286 
Q 1028 -1241 775 -1147 
L 775 -588 
Q 1028 -725 1275 -790 
Q 1522 -856 1778 -856 
Q 2344 -856 2625 -561 
Q 2906 -266 2906 331 
L 2906 616 
Q 2728 306 2450 153 
Q 2172 0 1784 0 
Q 1141 0 747 490 
Q 353 981 353 1791 
Q 353 2603 747 3093 
Q 1141 3584 1784 3584 
Q 2172 3584 2450 3431 
Q 2728 3278 2906 2969 
L 2906 3500 
L 3481 3500 
L 3481 434 
z
" transform="scale(0.015625)"/>
      <path id="DejaVuSans-70" d="M 1159 525 
L 1159 -1331 
L 581 -1331 
L 581 3500 
L 1159 3500 
L 1159 2969 
Q 1341 3281 1617 3432 
Q 1894 3584 2278 3584 
Q 2916 3584 3314 3078 
Q 3713 2572 3713 1747 
Q 3713 922 3314 415 
Q 2916 -91 2278 -91 
Q 1894 -91 1617 61 
Q 1341 213 1159 525 
z
M 3116 1747 
Q 3116 2381 2855 2742 
Q 2594 3103 2138 3103 
Q 1681 3103 1420 2742 
Q 1159 2381 1159 1747 
Q 1159 1113 1420 752 
Q 1681 391 2138 391 
Q 2594 391 2855 752 
Q 3116 1113 3116 1747 
z
" transform="scale(0.015625)"/>
      <path id="DejaVuSans-4a" d="M 628 4666 
L 1259 4666 
L 1259 325 
Q 1259 -519 939 -900 
Q 619 -1281 -91 -1281 
L -331 -1281 
L -331 -750 
L -134 -750 
Q 284 -750 456 -515 
Q 628 -281 628 325 
L 628 4666 
z
" transform="scale(0.015625)"/>
      <path id="DejaVuSans-2f" d="M 1625 4666 
L 2156 4666 
L 531 -594 
L 0 -594 
L 1625 4666 
z
" transform="scale(0.015625)"/>
      <path id="DejaVuSans-36" d="M 2113 2584 
Q 1688 2584 1439 2293 
Q 1191 2003 1191 1497 
Q 1191 994 1439 701 
Q 1688 409 2113 409 
Q 2538 409 2786 701 
Q 3034 994 3034 1497 
Q 3034 2003 2786 2293 
Q 2538 2584 2113 2584 
z
M 3366 4563 
L 3366 3988 
Q 3128 4100 2886 4159 
Q 2644 4219 2406 4219 
Q 1781 4219 1451 3797 
Q 1122 3375 1075 2522 
Q 1259 2794 1537 2939 
Q 1816 3084 2150 3084 
Q 2853 3084 3261 2657 
Q 3669 2231 3669 1497 
Q 3669 778 3244 343 
Q 2819 -91 2113 -91 
Q 1303 -91 875 529 
Q 447 1150 447 2328 
Q 447 3434 972 4092 
Q 1497 4750 2381 4750 
Q 2619 4750 2861 4703 
Q 3103 4656 3366 4563 
z
" transform="scale(0.015625)"/>
      <path id="DejaVuSans-37" d="M 525 4666 
L 3525 4666 
L 3525 4397 
L 1831 0 
L 1172 0 
L 2766 4134 
L 525 4134 
L 525 4666 
z
" transform="scale(0.015625)"/>
      <path id="DejaVuSans-38" d="M 2034 2216 
Q 1584 2216 1326 1975 
Q 1069 1734 1069 1313 
Q 1069 891 1326 650 
Q 1584 409 2034 409 
Q 2484 409 2743 651 
Q 3003 894 3003 1313 
Q 3003 1734 2745 1975 
Q 2488 2216 2034 2216 
z
M 1403 2484 
Q 997 2584 770 2862 
Q 544 3141 544 3541 
Q 544 4100 942 4425 
Q 1341 4750 2034 4750 
Q 2731 4750 3128 4425 
Q 3525 4100 3525 3541 
Q 3525 3141 3298 2862 
Q 3072 2584 2669 2484 
Q 3125 2378 3379 2068 
Q 3634 1759 3634 1313 
Q 3634 634 3220 271 
Q 2806 -91 2034 -91 
Q 1263 -91 848 271 
Q 434 634 434 1313 
Q 434 1759 690 2068 
Q 947 2378 1403 2484 
z
M 1172 3481 
Q 1172 3119 1398 2916 
Q 1625 2713 2034 2713 
Q 2441 2713 2670 2916 
Q 2900 3119 2900 3481 
Q 2900 3844 2670 4047 
Q 2441 4250 2034 4250 
Q 1625 4250 1398 4047 
Q 1172 3844 1172 3481 
z
" transform="scale(0.015625)"/>
     </defs>
     <use xlink:href="#DejaVuSans-55"/>
     <use xlink:href="#DejaVuSans-56" transform="translate(73.193359 0)"/>
     <use xlink:href="#DejaVuSans-20" transform="translate(141.601562 0)"/>
     <use xlink:href="#DejaVuSans-61" transform="translate(173.388672 0)"/>
     <use xlink:href="#DejaVuSans-6e" transform="translate(234.667969 0)"/>
     <use xlink:href="#DejaVuSans-64" transform="translate(298.046875 0)"/>
     <use xlink:href="#DejaVuSans-20" transform="translate(361.523438 0)"/>
     <use xlink:href="#DejaVuSans-4d" transform="translate(393.310547 0)"/>
     <use xlink:href="#DejaVuSans-53" transform="translate(479.589844 0)"/>
     <use xlink:href="#DejaVuSans-20" transform="translate(543.066406 0)"/>
     <use xlink:href="#DejaVuSans-43" transform="translate(574.853516 0)"/>
     <use xlink:href="#DejaVuSans-68" transform="translate(644.677734 0)"/>
     <use xlink:href="#DejaVuSans-72" transform="translate(708.056641 0)"/>
     <use xlink:href="#DejaVuSans-6f" transform="translate(746.919922 0)"/>
     <use xlink:href="#DejaVuSans-6d" transform="translate(808.101562 0)"/>
     <use xlink:href="#DejaVuSans-61" transform="translate(905.513672 0)"/>
     <use xlink:href="#DejaVuSans-74" transform="translate(966.792969 0)"/>
     <use xlink:href="#DejaVuSans-6f" transform="translate(1006.001953 0)"/>
     <use xlink:href="#DejaVuSans-67" transform="translate(1067.183594 0)"/>
     <use xlink:href="#DejaVuSans-72" transform="translate(1130.660156 0)"/>
     <use xlink:href="#DejaVuSans-61" transform="translate(1171.773438 0)"/>
     <use xlink:href="#DejaVuSans-6d" transform="translate(1233.052734 0)"/>
     <use xlink:href="#DejaVuSans-73" transform="translate(1330.464844 0)"/>
     <use xlink:href="#DejaVuSans-20" transform="translate(1382.564453 0)"/>
     <use xlink:href="#DejaVuSans-6f" transform="translate(1414.351562 0)"/>
     <use xlink:href="#DejaVuSans-66" transform="translate(1475.533203 0)"/>
     <use xlink:href="#DejaVuSans-20" transform="translate(1510.738281 0)"/>
     <use xlink:href="#DejaVuSans-49" transform="translate(1542.525391 0)"/>
     <use xlink:href="#DejaVuSans-72" transform="translate(1572.017578 0)"/>
     <use xlink:href="#DejaVuSans-43" transform="translate(1613.130859 0)"/>
     <use xlink:href="#DejaVuSans-70" transform="translate(1682.955078 0)"/>
     <use xlink:href="#DejaVuSans-33" transform="translate(1746.431641 0)"/>
     <use xlink:href="#DejaVuSans-4a" transform="translate(1810.054688 0)"/>
     <use xlink:href="#DejaVuSans-32" transform="translate(1839.546875 0)"/>
     <use xlink:href="#DejaVuSans-31" transform="translate(1903.169922 0)"/>
     <use xlink:href="#DejaVuSans-2c" transform="translate(1966.792969 0)"/>
     <use xlink:href="#DejaVuSans-20" transform="translate(1998.580078 0)"/>
     <use xlink:href="#DejaVuSans-74" transform="translate(2030.367188 0)"/>
     <use xlink:href="#DejaVuSans-61" transform="translate(2069.576172 0)"/>
     <use xlink:href="#DejaVuSans-72" transform="translate(2130.855469 0)"/>
     <use xlink:href="#DejaVuSans-67" transform="translate(2170.21875 0)"/>
     <use xlink:href="#DejaVuSans-65" transform="translate(2233.695312 0)"/>
     <use xlink:href="#DejaVuSans-74" transform="translate(2295.21875 0)"/>
     <use xlink:href="#DejaVuSans-20" transform="translate(2334.427734 0)"/>
     <use xlink:href="#DejaVuSans-6d" transform="translate(2366.214844 0)"/>
     <use xlink:href="#DejaVuSans-2f" transform="translate(2463.626953 0)"/>
     <use xlink:href="#DejaVuSans-7a" transform="translate(2497.318359 0)"/>
     <use xlink:href="#DejaVuSans-20" transform="translate(2549.808594 0)"/>
     <use xlink:href="#DejaVuSans-3d" transform="translate(2581.595703 0)"/>
     <use xlink:href="#DejaVuSans-20" transform="translate(2665.384766 0)"/>
     <use xlink:href="#DejaVuSans-36" transform="translate(2697.171875 0)"/>
     <use xlink:href="#DejaVuSans-37" transform="translate(2760.794922 0)"/>
     <use xlink:href="#DejaVuSans-39" transform="translate(2824.417969 0)"/>
     <use xlink:href="#DejaVuSans-2e" transform="translate(2888.041016 0)"/>
     <use xlink:href="#DejaVuSans-31" transform="translate(2919.828125 0)"/>
     <use xlink:href="#DejaVuSans-38" transform="translate(2983.451172 0)"/>
     <use xlink:href="#DejaVuSans-34" transform="translate(3047.074219 0)"/>
     <use xlink:href="#DejaVuSans-34" transform="translate(3110.697266 0)"/>
     <use xlink:href="#DejaVuSans-37" transform="translate(3174.320312 0)"/>
     <use xlink:href="#DejaVuSans-38" transform="translate(3237.943359 0)"/>
     <use xlink:href="#DejaVuSans-34" transform="translate(3301.566406 0)"/>
    </g>
   </g>
   <g id="legend_1">
    <g id="patch_8">
     <path d="M 685.971875 64.23625 
L 846.2 64.23625 
Q 848.2 64.23625 848.2 62.23625 
L 848.2 33.88 
Q 848.2 31.88 846.2 31.88 
L 685.971875 31.88 
Q 683.971875 31.88 683.971875 33.88 
L 683.971875 62.23625 
Q 683.971875 64.23625 685.971875 64.23625 
z
" style="fill: #ffffff; opacity: 0.8; stroke: #cccccc; stroke-linejoin: miter"/>
    </g>
    <g id="line2d_15">
     <path d="M 687.971875 39.978437 
L 697.971875 39.978437 
L 707.971875 39.978437 
" style="fill: none; stroke: #0000ff; stroke-width: 1.5; stroke-linecap: square"/>
    </g>
    <g id="text_17">
     <!-- UV Intensity (normalized) -->
     <g transform="translate(715.971875 43.478437) scale(0.1 -0.1)">
      <use xlink:href="#DejaVuSans-55"/>
      <use xlink:href="#DejaVuSans-56" transform="translate(73.193359 0)"/>
      <use xlink:href="#DejaVuSans-20" transform="translate(141.601562 0)"/>
      <use xlink:href="#DejaVuSans-49" transform="translate(173.388672 0)"/>
      <use xlink:href="#DejaVuSans-6e" transform="translate(202.880859 0)"/>
      <use xlink:href="#DejaVuSans-74" transform="translate(266.259766 0)"/>
      <use xlink:href="#DejaVuSans-65" transform="translate(305.46875 0)"/>
      <use xlink:href="#DejaVuSans-6e" transform="translate(366.992188 0)"/>
      <use xlink:href="#DejaVuSans-73" transform="translate(430.371094 0)"/>
      <use xlink:href="#DejaVuSans-69" transform="translate(482.470703 0)"/>
      <use xlink:href="#DejaVuSans-74" transform="translate(510.253906 0)"/>
      <use xlink:href="#DejaVuSans-79" transform="translate(549.462891 0)"/>
      <use xlink:href="#DejaVuSans-20" transform="translate(608.642578 0)"/>
      <use xlink:href="#DejaVuSans-28" transform="translate(640.429688 0)"/>
      <use xlink:href="#DejaVuSans-6e" transform="translate(679.443359 0)"/>
      <use xlink:href="#DejaVuSans-6f" transform="translate(742.822266 0)"/>
      <use xlink:href="#DejaVuSans-72" transform="translate(804.003906 0)"/>
      <use xlink:href="#DejaVuSans-6d" transform="translate(843.367188 0)"/>
      <use xlink:href="#DejaVuSans-61" transform="translate(940.779297 0)"/>
      <use xlink:href="#DejaVuSans-6c" transform="translate(1002.058594 0)"/>
      <use xlink:href="#DejaVuSans-69" transform="translate(1029.841797 0)"/>
      <use xlink:href="#DejaVuSans-7a" transform="translate(1057.625 0)"/>
      <use xlink:href="#DejaVuSans-65" transform="translate(1110.115234 0)"/>
      <use xlink:href="#DejaVuSans-64" transform="translate(1171.638672 0)"/>
      <use xlink:href="#DejaVuSans-29" transform="translate(1235.115234 0)"/>
     </g>
    </g>
    <g id="line2d_16">
     <path d="M 687.971875 54.656562 
L 697.971875 54.656562 
L 707.971875 54.656562 
" style="fill: none; stroke: #008000; stroke-width: 1.5; stroke-linecap: square"/>
    </g>
    <g id="text_18">
     <!-- MS Intensity (normalized) -->
     <g transform="translate(715.971875 58.156562) scale(0.1 -0.1)">
      <use xlink:href="#DejaVuSans-4d"/>
      <use xlink:href="#DejaVuSans-53" transform="translate(86.279297 0)"/>
      <use xlink:href="#DejaVuSans-20" transform="translate(149.755859 0)"/>
      <use xlink:href="#DejaVuSans-49" transform="translate(181.542969 0)"/>
      <use xlink:href="#DejaVuSans-6e" transform="translate(211.035156 0)"/>
      <use xlink:href="#DejaVuSans-74" transform="translate(274.414062 0)"/>
      <use xlink:href="#DejaVuSans-65" transform="translate(313.623047 0)"/>
      <use xlink:href="#DejaVuSans-6e" transform="translate(375.146484 0)"/>
      <use xlink:href="#DejaVuSans-73" transform="translate(438.525391 0)"/>
      <use xlink:href="#DejaVuSans-69" transform="translate(490.625 0)"/>
      <use xlink:href="#DejaVuSans-74" transform="translate(518.408203 0)"/>
      <use xlink:href="#DejaVuSans-79" transform="translate(557.617188 0)"/>
      <use xlink:href="#DejaVuSans-20" transform="translate(616.796875 0)"/>
      <use xlink:href="#DejaVuSans-28" transform="translate(648.583984 0)"/>
      <use xlink:href="#DejaVuSans-6e" transform="translate(687.597656 0)"/>
      <use xlink:href="#DejaVuSans-6f" transform="translate(750.976562 0)"/>
      <use xlink:href="#DejaVuSans-72" transform="translate(812.158203 0)"/>
      <use xlink:href="#DejaVuSans-6d" transform="translate(851.521484 0)"/>
      <use xlink:href="#DejaVuSans-61" transform="translate(948.933594 0)"/>
      <use xlink:href="#DejaVuSans-6c" transform="translate(1010.212891 0)"/>
      <use xlink:href="#DejaVuSans-69" transform="translate(1037.996094 0)"/>
      <use xlink:href="#DejaVuSans-7a" transform="translate(1065.779297 0)"/>
      <use xlink:href="#DejaVuSans-65" transform="translate(1118.269531 0)"/>
      <use xlink:href="#DejaVuSans-64" transform="translate(1179.792969 0)"/>
      <use xlink:href="#DejaVuSans-29" transform="translate(1243.269531 0)"/>
     </g>
    </g>
   </g>
  </g>
 </g>
 <defs>
  <clipPath id="pc856a56939">
   <rect x="47.72" y="26.88" width="805.48" height="507.16"/>
  </clipPath>
 </defs>
</svg>
