<?xml version="1.0" encoding="utf-8" standalone="no"?>
<!DOCTYPE svg PUBLIC "-//W3C//DTD SVG 1.1//EN"
  "http://www.w3.org/Graphics/SVG/1.1/DTD/svg11.dtd">
<svg xmlns:xlink="http://www.w3.org/1999/xlink" width="864pt" height="576pt" viewBox="0 0 864 576" xmlns="http://www.w3.org/2000/svg" version="1.1">
 <metadata>
  <rdf:RDF xmlns:dc="http://purl.org/dc/elements/1.1/" xmlns:cc="http://creativecommons.org/ns#" xmlns:rdf="http://www.w3.org/1999/02/22-rdf-syntax-ns#">
   <cc:Work>
    <dc:type rdf:resource="http://purl.org/dc/dcmitype/StillImage"/>
    <dc:date>2025-02-07T17:26:31.298532</dc:date>
    <dc:format>image/svg+xml</dc:format>
    <dc:creator>
     <cc:Agent>
      <dc:title>Matplotlib v3.10.0, https://matplotlib.org/</dc:title>
     </cc:Agent>
    </dc:creator>
   </cc:Work>
  </rdf:RDF>
 </metadata>
 <defs>
  <style type="text/css">*{stroke-linejoin: round; stroke-linecap: butt}</style>
 </defs>
 <g id="figure_1">
  <g id="patch_1">
   <path d="M 0 576 
L 864 576 
L 864 0 
L 0 0 
z
" style="fill: #ffffff"/>
  </g>
  <g id="axes_1">
   <g id="patch_2">
    <path d="M 47.72 534.04 
L 853.2 534.04 
L 853.2 26.88 
L 47.72 26.88 
z
" style="fill: #ffffff"/>
   </g>
   <g id="matplotlib.axis_1">
    <g id="xtick_1">
     <g id="line2d_1">
      <defs>
       <path id="m322df77ee6" d="M 0 0 
L 0 3.5 
" style="stroke: #000000; stroke-width: 0.8"/>
      </defs>
      <g>
       <use xlink:href="#m322df77ee6" x="83.098041" y="534.04" style="stroke: #000000; stroke-width: 0.8"/>
      </g>
     </g>
     <g id="text_1">
      <!-- 0 -->
      <g transform="translate(79.916791 548.638438) scale(0.1 -0.1)">
       <defs>
        <path id="DejaVuSans-30" d="M 2034 4250 
Q 1547 4250 1301 3770 
Q 1056 3291 1056 2328 
Q 1056 1369 1301 889 
Q 1547 409 2034 409 
Q 2525 409 2770 889 
Q 3016 1369 3016 2328 
Q 3016 3291 2770 3770 
Q 2525 4250 2034 4250 
z
M 2034 4750 
Q 2819 4750 3233 4129 
Q 3647 3509 3647 2328 
Q 3647 1150 3233 529 
Q 2819 -91 2034 -91 
Q 1250 -91 836 529 
Q 422 1150 422 2328 
Q 422 3509 836 4129 
Q 1250 4750 2034 4750 
z
" transform="scale(0.015625)"/>
       </defs>
       <use xlink:href="#DejaVuSans-30"/>
      </g>
     </g>
    </g>
    <g id="xtick_2">
     <g id="line2d_2">
      <g>
       <use xlink:href="#m322df77ee6" x="229.793442" y="534.04" style="stroke: #000000; stroke-width: 0.8"/>
      </g>
     </g>
     <g id="text_2">
      <!-- 1 -->
      <g transform="translate(226.612192 548.638438) scale(0.1 -0.1)">
       <defs>
        <path id="DejaVuSans-31" d="M 794 531 
L 1825 531 
L 1825 4091 
L 703 3866 
L 703 4441 
L 1819 4666 
L 2450 4666 
L 2450 531 
L 3481 531 
L 3481 0 
L 794 0 
L 794 531 
z
" transform="scale(0.015625)"/>
       </defs>
       <use xlink:href="#DejaVuSans-31"/>
      </g>
     </g>
    </g>
    <g id="xtick_3">
     <g id="line2d_3">
      <g>
       <use xlink:href="#m322df77ee6" x="376.488844" y="534.04" style="stroke: #000000; stroke-width: 0.8"/>
      </g>
     </g>
     <g id="text_3">
      <!-- 2 -->
      <g transform="translate(373.307594 548.638438) scale(0.1 -0.1)">
       <defs>
        <path id="DejaVuSans-32" d="M 1228 531 
L 3431 531 
L 3431 0 
L 469 0 
L 469 531 
Q 828 903 1448 1529 
Q 2069 2156 2228 2338 
Q 2531 2678 2651 2914 
Q 2772 3150 2772 3378 
Q 2772 3750 2511 3984 
Q 2250 4219 1831 4219 
Q 1534 4219 1204 4116 
Q 875 4013 500 3803 
L 500 4441 
Q 881 4594 1212 4672 
Q 1544 4750 1819 4750 
Q 2544 4750 2975 4387 
Q 3406 4025 3406 3419 
Q 3406 3131 3298 2873 
Q 3191 2616 2906 2266 
Q 2828 2175 2409 1742 
Q 1991 1309 1228 531 
z
" transform="scale(0.015625)"/>
       </defs>
       <use xlink:href="#DejaVuSans-32"/>
      </g>
     </g>
    </g>
    <g id="xtick_4">
     <g id="line2d_4">
      <g>
       <use xlink:href="#m322df77ee6" x="523.184245" y="534.04" style="stroke: #000000; stroke-width: 0.8"/>
      </g>
     </g>
     <g id="text_4">
      <!-- 3 -->
      <g transform="translate(520.002995 548.638438) scale(0.1 -0.1)">
       <defs>
        <path id="DejaVuSans-33" d="M 2597 2516 
Q 3050 2419 3304 2112 
Q 3559 1806 3559 1356 
Q 3559 666 3084 287 
Q 2609 -91 1734 -91 
Q 1441 -91 1130 -33 
Q 819 25 488 141 
L 488 750 
Q 750 597 1062 519 
Q 1375 441 1716 441 
Q 2309 441 2620 675 
Q 2931 909 2931 1356 
Q 2931 1769 2642 2001 
Q 2353 2234 1838 2234 
L 1294 2234 
L 1294 2753 
L 1863 2753 
Q 2328 2753 2575 2939 
Q 2822 3125 2822 3475 
Q 2822 3834 2567 4026 
Q 2313 4219 1838 4219 
Q 1578 4219 1281 4162 
Q 984 4106 628 3988 
L 628 4550 
Q 988 4650 1302 4700 
Q 1616 4750 1894 4750 
Q 2613 4750 3031 4423 
Q 3450 4097 3450 3541 
Q 3450 3153 3228 2886 
Q 3006 2619 2597 2516 
z
" transform="scale(0.015625)"/>
       </defs>
       <use xlink:href="#DejaVuSans-33"/>
      </g>
     </g>
    </g>
    <g id="xtick_5">
     <g id="line2d_5">
      <g>
       <use xlink:href="#m322df77ee6" x="669.879647" y="534.04" style="stroke: #000000; stroke-width: 0.8"/>
      </g>
     </g>
     <g id="text_5">
      <!-- 4 -->
      <g transform="translate(666.698397 548.638438) scale(0.1 -0.1)">
       <defs>
        <path id="DejaVuSans-34" d="M 2419 4116 
L 825 1625 
L 2419 1625 
L 2419 4116 
z
M 2253 4666 
L 3047 4666 
L 3047 1625 
L 3713 1625 
L 3713 1100 
L 3047 1100 
L 3047 0 
L 2419 0 
L 2419 1100 
L 313 1100 
L 313 1709 
L 2253 4666 
z
" transform="scale(0.015625)"/>
       </defs>
       <use xlink:href="#DejaVuSans-34"/>
      </g>
     </g>
    </g>
    <g id="xtick_6">
     <g id="line2d_6">
      <g>
       <use xlink:href="#m322df77ee6" x="816.575048" y="534.04" style="stroke: #000000; stroke-width: 0.8"/>
      </g>
     </g>
     <g id="text_6">
      <!-- 5 -->
      <g transform="translate(813.393798 548.638438) scale(0.1 -0.1)">
       <defs>
        <path id="DejaVuSans-35" d="M 691 4666 
L 3169 4666 
L 3169 4134 
L 1269 4134 
L 1269 2991 
Q 1406 3038 1543 3061 
Q 1681 3084 1819 3084 
Q 2600 3084 3056 2656 
Q 3513 2228 3513 1497 
Q 3513 744 3044 326 
Q 2575 -91 1722 -91 
Q 1428 -91 1123 -41 
Q 819 9 494 109 
L 494 744 
Q 775 591 1075 516 
Q 1375 441 1709 441 
Q 2250 441 2565 725 
Q 2881 1009 2881 1497 
Q 2881 1984 2565 2268 
Q 2250 2553 1709 2553 
Q 1456 2553 1204 2497 
Q 953 2441 691 2322 
L 691 4666 
z
" transform="scale(0.015625)"/>
       </defs>
       <use xlink:href="#DejaVuSans-35"/>
      </g>
     </g>
    </g>
    <g id="text_7">
     <!-- Retention Time (min) -->
     <g transform="translate(397.61 562.316562) scale(0.1 -0.1)">
      <defs>
       <path id="DejaVuSans-52" d="M 2841 2188 
Q 3044 2119 3236 1894 
Q 3428 1669 3622 1275 
L 4263 0 
L 3584 0 
L 2988 1197 
Q 2756 1666 2539 1819 
Q 2322 1972 1947 1972 
L 1259 1972 
L 1259 0 
L 628 0 
L 628 4666 
L 2053 4666 
Q 2853 4666 3247 4331 
Q 3641 3997 3641 3322 
Q 3641 2881 3436 2590 
Q 3231 2300 2841 2188 
z
M 1259 4147 
L 1259 2491 
L 2053 2491 
Q 2509 2491 2742 2702 
Q 2975 2913 2975 3322 
Q 2975 3731 2742 3939 
Q 2509 4147 2053 4147 
L 1259 4147 
z
" transform="scale(0.015625)"/>
       <path id="DejaVuSans-65" d="M 3597 1894 
L 3597 1613 
L 953 1613 
Q 991 1019 1311 708 
Q 1631 397 2203 397 
Q 2534 397 2845 478 
Q 3156 559 3463 722 
L 3463 178 
Q 3153 47 2828 -22 
Q 2503 -91 2169 -91 
Q 1331 -91 842 396 
Q 353 884 353 1716 
Q 353 2575 817 3079 
Q 1281 3584 2069 3584 
Q 2775 3584 3186 3129 
Q 3597 2675 3597 1894 
z
M 3022 2063 
Q 3016 2534 2758 2815 
Q 2500 3097 2075 3097 
Q 1594 3097 1305 2825 
Q 1016 2553 972 2059 
L 3022 2063 
z
" transform="scale(0.015625)"/>
       <path id="DejaVuSans-74" d="M 1172 4494 
L 1172 3500 
L 2356 3500 
L 2356 3053 
L 1172 3053 
L 1172 1153 
Q 1172 725 1289 603 
Q 1406 481 1766 481 
L 2356 481 
L 2356 0 
L 1766 0 
Q 1100 0 847 248 
Q 594 497 594 1153 
L 594 3053 
L 172 3053 
L 172 3500 
L 594 3500 
L 594 4494 
L 1172 4494 
z
" transform="scale(0.015625)"/>
       <path id="DejaVuSans-6e" d="M 3513 2113 
L 3513 0 
L 2938 0 
L 2938 2094 
Q 2938 2591 2744 2837 
Q 2550 3084 2163 3084 
Q 1697 3084 1428 2787 
Q 1159 2491 1159 1978 
L 1159 0 
L 581 0 
L 581 3500 
L 1159 3500 
L 1159 2956 
Q 1366 3272 1645 3428 
Q 1925 3584 2291 3584 
Q 2894 3584 3203 3211 
Q 3513 2838 3513 2113 
z
" transform="scale(0.015625)"/>
       <path id="DejaVuSans-69" d="M 603 3500 
L 1178 3500 
L 1178 0 
L 603 0 
L 603 3500 
z
M 603 4863 
L 1178 4863 
L 1178 4134 
L 603 4134 
L 603 4863 
z
" transform="scale(0.015625)"/>
       <path id="DejaVuSans-6f" d="M 1959 3097 
Q 1497 3097 1228 2736 
Q 959 2375 959 1747 
Q 959 1119 1226 758 
Q 1494 397 1959 397 
Q 2419 397 2687 759 
Q 2956 1122 2956 1747 
Q 2956 2369 2687 2733 
Q 2419 3097 1959 3097 
z
M 1959 3584 
Q 2709 3584 3137 3096 
Q 3566 2609 3566 1747 
Q 3566 888 3137 398 
Q 2709 -91 1959 -91 
Q 1206 -91 779 398 
Q 353 888 353 1747 
Q 353 2609 779 3096 
Q 1206 3584 1959 3584 
z
" transform="scale(0.015625)"/>
       <path id="DejaVuSans-20" transform="scale(0.015625)"/>
       <path id="DejaVuSans-54" d="M -19 4666 
L 3928 4666 
L 3928 4134 
L 2272 4134 
L 2272 0 
L 1638 0 
L 1638 4134 
L -19 4134 
L -19 4666 
z
" transform="scale(0.015625)"/>
       <path id="DejaVuSans-6d" d="M 3328 2828 
Q 3544 3216 3844 3400 
Q 4144 3584 4550 3584 
Q 5097 3584 5394 3201 
Q 5691 2819 5691 2113 
L 5691 0 
L 5113 0 
L 5113 2094 
Q 5113 2597 4934 2840 
Q 4756 3084 4391 3084 
Q 3944 3084 3684 2787 
Q 3425 2491 3425 1978 
L 3425 0 
L 2847 0 
L 2847 2094 
Q 2847 2600 2669 2842 
Q 2491 3084 2119 3084 
Q 1678 3084 1418 2786 
Q 1159 2488 1159 1978 
L 1159 0 
L 581 0 
L 581 3500 
L 1159 3500 
L 1159 2956 
Q 1356 3278 1631 3431 
Q 1906 3584 2284 3584 
Q 2666 3584 2933 3390 
Q 3200 3197 3328 2828 
z
" transform="scale(0.015625)"/>
       <path id="DejaVuSans-28" d="M 1984 4856 
Q 1566 4138 1362 3434 
Q 1159 2731 1159 2009 
Q 1159 1288 1364 580 
Q 1569 -128 1984 -844 
L 1484 -844 
Q 1016 -109 783 600 
Q 550 1309 550 2009 
Q 550 2706 781 3412 
Q 1013 4119 1484 4856 
L 1984 4856 
z
" transform="scale(0.015625)"/>
       <path id="DejaVuSans-29" d="M 513 4856 
L 1013 4856 
Q 1481 4119 1714 3412 
Q 1947 2706 1947 2009 
Q 1947 1309 1714 600 
Q 1481 -109 1013 -844 
L 513 -844 
Q 928 -128 1133 580 
Q 1338 1288 1338 2009 
Q 1338 2731 1133 3434 
Q 928 4138 513 4856 
z
" transform="scale(0.015625)"/>
      </defs>
      <use xlink:href="#DejaVuSans-52"/>
      <use xlink:href="#DejaVuSans-65" transform="translate(64.982422 0)"/>
      <use xlink:href="#DejaVuSans-74" transform="translate(126.505859 0)"/>
      <use xlink:href="#DejaVuSans-65" transform="translate(165.714844 0)"/>
      <use xlink:href="#DejaVuSans-6e" transform="translate(227.238281 0)"/>
      <use xlink:href="#DejaVuSans-74" transform="translate(290.617188 0)"/>
      <use xlink:href="#DejaVuSans-69" transform="translate(329.826172 0)"/>
      <use xlink:href="#DejaVuSans-6f" transform="translate(357.609375 0)"/>
      <use xlink:href="#DejaVuSans-6e" transform="translate(418.791016 0)"/>
      <use xlink:href="#DejaVuSans-20" transform="translate(482.169922 0)"/>
      <use xlink:href="#DejaVuSans-54" transform="translate(513.957031 0)"/>
      <use xlink:href="#DejaVuSans-69" transform="translate(571.916016 0)"/>
      <use xlink:href="#DejaVuSans-6d" transform="translate(599.699219 0)"/>
      <use xlink:href="#DejaVuSans-65" transform="translate(697.111328 0)"/>
      <use xlink:href="#DejaVuSans-20" transform="translate(758.634766 0)"/>
      <use xlink:href="#DejaVuSans-28" transform="translate(790.421875 0)"/>
      <use xlink:href="#DejaVuSans-6d" transform="translate(829.435547 0)"/>
      <use xlink:href="#DejaVuSans-69" transform="translate(926.847656 0)"/>
      <use xlink:href="#DejaVuSans-6e" transform="translate(954.630859 0)"/>
      <use xlink:href="#DejaVuSans-29" transform="translate(1018.009766 0)"/>
     </g>
    </g>
   </g>
   <g id="matplotlib.axis_2">
    <g id="ytick_1">
     <g id="line2d_7">
      <defs>
       <path id="m6eac734b9d" d="M 0 0 
L -3.5 0 
" style="stroke: #000000; stroke-width: 0.8"/>
      </defs>
      <g>
       <use xlink:href="#m6eac734b9d" x="47.72" y="510.930177" style="stroke: #000000; stroke-width: 0.8"/>
      </g>
     </g>
     <g id="text_8">
      <!-- 0.0 -->
      <g style="fill: #0000ff" transform="translate(24.816875 514.729395) scale(0.1 -0.1)">
       <defs>
        <path id="DejaVuSans-2e" d="M 684 794 
L 1344 794 
L 1344 0 
L 684 0 
L 684 794 
z
" transform="scale(0.015625)"/>
       </defs>
       <use xlink:href="#DejaVuSans-30"/>
       <use xlink:href="#DejaVuSans-2e" transform="translate(63.623047 0)"/>
       <use xlink:href="#DejaVuSans-30" transform="translate(95.410156 0)"/>
      </g>
     </g>
    </g>
    <g id="ytick_2">
     <g id="line2d_8">
      <g>
       <use xlink:href="#m6eac734b9d" x="47.72" y="418.730687" style="stroke: #000000; stroke-width: 0.8"/>
      </g>
     </g>
     <g id="text_9">
      <!-- 0.5 -->
      <g style="fill: #0000ff" transform="translate(24.816875 422.529905) scale(0.1 -0.1)">
       <use xlink:href="#DejaVuSans-30"/>
       <use xlink:href="#DejaVuSans-2e" transform="translate(63.623047 0)"/>
       <use xlink:href="#DejaVuSans-35" transform="translate(95.410156 0)"/>
      </g>
     </g>
    </g>
    <g id="ytick_3">
     <g id="line2d_9">
      <g>
       <use xlink:href="#m6eac734b9d" x="47.72" y="326.531197" style="stroke: #000000; stroke-width: 0.8"/>
      </g>
     </g>
     <g id="text_10">
      <!-- 1.0 -->
      <g style="fill: #0000ff" transform="translate(24.816875 330.330416) scale(0.1 -0.1)">
       <use xlink:href="#DejaVuSans-31"/>
       <use xlink:href="#DejaVuSans-2e" transform="translate(63.623047 0)"/>
       <use xlink:href="#DejaVuSans-30" transform="translate(95.410156 0)"/>
      </g>
     </g>
    </g>
    <g id="ytick_4">
     <g id="line2d_10">
      <g>
       <use xlink:href="#m6eac734b9d" x="47.72" y="234.331707" style="stroke: #000000; stroke-width: 0.8"/>
      </g>
     </g>
     <g id="text_11">
      <!-- 1.5 -->
      <g style="fill: #0000ff" transform="translate(24.816875 238.130926) scale(0.1 -0.1)">
       <use xlink:href="#DejaVuSans-31"/>
       <use xlink:href="#DejaVuSans-2e" transform="translate(63.623047 0)"/>
       <use xlink:href="#DejaVuSans-35" transform="translate(95.410156 0)"/>
      </g>
     </g>
    </g>
    <g id="ytick_5">
     <g id="line2d_11">
      <g>
       <use xlink:href="#m6eac734b9d" x="47.72" y="142.132217" style="stroke: #000000; stroke-width: 0.8"/>
      </g>
     </g>
     <g id="text_12">
      <!-- 2.0 -->
      <g style="fill: #0000ff" transform="translate(24.816875 145.931436) scale(0.1 -0.1)">
       <use xlink:href="#DejaVuSans-32"/>
       <use xlink:href="#DejaVuSans-2e" transform="translate(63.623047 0)"/>
       <use xlink:href="#DejaVuSans-30" transform="translate(95.410156 0)"/>
      </g>
     </g>
    </g>
    <g id="ytick_6">
     <g id="line2d_12">
      <g>
       <use xlink:href="#m6eac734b9d" x="47.72" y="49.932727" style="stroke: #000000; stroke-width: 0.8"/>
      </g>
     </g>
     <g id="text_13">
      <!-- 2.5 -->
      <g style="fill: #0000ff" transform="translate(24.816875 53.731946) scale(0.1 -0.1)">
       <use xlink:href="#DejaVuSans-32"/>
       <use xlink:href="#DejaVuSans-2e" transform="translate(63.623047 0)"/>
       <use xlink:href="#DejaVuSans-35" transform="translate(95.410156 0)"/>
      </g>
     </g>
    </g>
    <g id="text_14">
     <!-- Normalized Intensity -->
     <g style="fill: #0000ff" transform="translate(18.737187 332.167031) rotate(-90) scale(0.1 -0.1)">
      <defs>
       <path id="DejaVuSans-4e" d="M 628 4666 
L 1478 4666 
L 3547 763 
L 3547 4666 
L 4159 4666 
L 4159 0 
L 3309 0 
L 1241 3903 
L 1241 0 
L 628 0 
L 628 4666 
z
" transform="scale(0.015625)"/>
       <path id="DejaVuSans-72" d="M 2631 2963 
Q 2534 3019 2420 3045 
Q 2306 3072 2169 3072 
Q 1681 3072 1420 2755 
Q 1159 2438 1159 1844 
L 1159 0 
L 581 0 
L 581 3500 
L 1159 3500 
L 1159 2956 
Q 1341 3275 1631 3429 
Q 1922 3584 2338 3584 
Q 2397 3584 2469 3576 
Q 2541 3569 2628 3553 
L 2631 2963 
z
" transform="scale(0.015625)"/>
       <path id="DejaVuSans-61" d="M 2194 1759 
Q 1497 1759 1228 1600 
Q 959 1441 959 1056 
Q 959 750 1161 570 
Q 1363 391 1709 391 
Q 2188 391 2477 730 
Q 2766 1069 2766 1631 
L 2766 1759 
L 2194 1759 
z
M 3341 1997 
L 3341 0 
L 2766 0 
L 2766 531 
Q 2569 213 2275 61 
Q 1981 -91 1556 -91 
Q 1019 -91 701 211 
Q 384 513 384 1019 
Q 384 1609 779 1909 
Q 1175 2209 1959 2209 
L 2766 2209 
L 2766 2266 
Q 2766 2663 2505 2880 
Q 2244 3097 1772 3097 
Q 1472 3097 1187 3025 
Q 903 2953 641 2809 
L 641 3341 
Q 956 3463 1253 3523 
Q 1550 3584 1831 3584 
Q 2591 3584 2966 3190 
Q 3341 2797 3341 1997 
z
" transform="scale(0.015625)"/>
       <path id="DejaVuSans-6c" d="M 603 4863 
L 1178 4863 
L 1178 0 
L 603 0 
L 603 4863 
z
" transform="scale(0.015625)"/>
       <path id="DejaVuSans-7a" d="M 353 3500 
L 3084 3500 
L 3084 2975 
L 922 459 
L 3084 459 
L 3084 0 
L 275 0 
L 275 525 
L 2438 3041 
L 353 3041 
L 353 3500 
z
" transform="scale(0.015625)"/>
       <path id="DejaVuSans-64" d="M 2906 2969 
L 2906 4863 
L 3481 4863 
L 3481 0 
L 2906 0 
L 2906 525 
Q 2725 213 2448 61 
Q 2172 -91 1784 -91 
Q 1150 -91 751 415 
Q 353 922 353 1747 
Q 353 2572 751 3078 
Q 1150 3584 1784 3584 
Q 2172 3584 2448 3432 
Q 2725 3281 2906 2969 
z
M 947 1747 
Q 947 1113 1208 752 
Q 1469 391 1925 391 
Q 2381 391 2643 752 
Q 2906 1113 2906 1747 
Q 2906 2381 2643 2742 
Q 2381 3103 1925 3103 
Q 1469 3103 1208 2742 
Q 947 2381 947 1747 
z
" transform="scale(0.015625)"/>
       <path id="DejaVuSans-49" d="M 628 4666 
L 1259 4666 
L 1259 0 
L 628 0 
L 628 4666 
z
" transform="scale(0.015625)"/>
       <path id="DejaVuSans-73" d="M 2834 3397 
L 2834 2853 
Q 2591 2978 2328 3040 
Q 2066 3103 1784 3103 
Q 1356 3103 1142 2972 
Q 928 2841 928 2578 
Q 928 2378 1081 2264 
Q 1234 2150 1697 2047 
L 1894 2003 
Q 2506 1872 2764 1633 
Q 3022 1394 3022 966 
Q 3022 478 2636 193 
Q 2250 -91 1575 -91 
Q 1294 -91 989 -36 
Q 684 19 347 128 
L 347 722 
Q 666 556 975 473 
Q 1284 391 1588 391 
Q 1994 391 2212 530 
Q 2431 669 2431 922 
Q 2431 1156 2273 1281 
Q 2116 1406 1581 1522 
L 1381 1569 
Q 847 1681 609 1914 
Q 372 2147 372 2553 
Q 372 3047 722 3315 
Q 1072 3584 1716 3584 
Q 2034 3584 2315 3537 
Q 2597 3491 2834 3397 
z
" transform="scale(0.015625)"/>
       <path id="DejaVuSans-79" d="M 2059 -325 
Q 1816 -950 1584 -1140 
Q 1353 -1331 966 -1331 
L 506 -1331 
L 506 -850 
L 844 -850 
Q 1081 -850 1212 -737 
Q 1344 -625 1503 -206 
L 1606 56 
L 191 3500 
L 800 3500 
L 1894 763 
L 2988 3500 
L 3597 3500 
L 2059 -325 
z
" transform="scale(0.015625)"/>
      </defs>
      <use xlink:href="#DejaVuSans-4e"/>
      <use xlink:href="#DejaVuSans-6f" transform="translate(74.804688 0)"/>
      <use xlink:href="#DejaVuSans-72" transform="translate(135.986328 0)"/>
      <use xlink:href="#DejaVuSans-6d" transform="translate(175.349609 0)"/>
      <use xlink:href="#DejaVuSans-61" transform="translate(272.761719 0)"/>
      <use xlink:href="#DejaVuSans-6c" transform="translate(334.041016 0)"/>
      <use xlink:href="#DejaVuSans-69" transform="translate(361.824219 0)"/>
      <use xlink:href="#DejaVuSans-7a" transform="translate(389.607422 0)"/>
      <use xlink:href="#DejaVuSans-65" transform="translate(442.097656 0)"/>
      <use xlink:href="#DejaVuSans-64" transform="translate(503.621094 0)"/>
      <use xlink:href="#DejaVuSans-20" transform="translate(567.097656 0)"/>
      <use xlink:href="#DejaVuSans-49" transform="translate(598.884766 0)"/>
      <use xlink:href="#DejaVuSans-6e" transform="translate(628.376953 0)"/>
      <use xlink:href="#DejaVuSans-74" transform="translate(691.755859 0)"/>
      <use xlink:href="#DejaVuSans-65" transform="translate(730.964844 0)"/>
      <use xlink:href="#DejaVuSans-6e" transform="translate(792.488281 0)"/>
      <use xlink:href="#DejaVuSans-73" transform="translate(855.867188 0)"/>
      <use xlink:href="#DejaVuSans-69" transform="translate(907.966797 0)"/>
      <use xlink:href="#DejaVuSans-74" transform="translate(935.75 0)"/>
      <use xlink:href="#DejaVuSans-79" transform="translate(974.958984 0)"/>
     </g>
    </g>
   </g>
   <g id="line2d_13">
    <path d="M 84.332727 510.930177 
L 92.889959 510.82355 
L 102.669652 510.644581 
L 113.671808 510.667711 
L 127.118886 510.741632 
L 162.570275 510.654283 
L 165.015198 510.462811 
L 167.460121 509.881651 
L 169.905045 509.249064 
L 172.349968 508.948356 
L 174.794891 508.982662 
L 177.239815 509.295953 
L 183.352123 510.502523 
L 188.24197 510.847708 
L 189.464432 510.819463 
L 194.354278 510.320242 
L 196.799202 510.458751 
L 200.466587 510.713046 
L 205.356433 510.680231 
L 217.58105 510.616885 
L 300.708444 510.640143 
L 361.831528 510.681018 
L 371.611222 510.783546 
L 380.168453 510.668069 
L 382.613377 510.289518 
L 386.280762 509.369094 
L 387.503224 509.243774 
L 389.948147 509.337886 
L 394.837994 509.731072 
L 403.395225 509.97632 
L 408.285072 509.92536 
L 411.952457 509.94388 
L 416.842304 510.001051 
L 419.287227 509.859251 
L 425.399536 509.262249 
L 427.844459 509.416123 
L 431.511844 509.706938 
L 437.624152 509.832266 
L 441.291537 509.808892 
L 448.626307 509.532795 
L 452.293693 509.555554 
L 454.738616 509.21172 
L 457.183539 508.893551 
L 463.295848 508.615988 
L 465.740771 508.373165 
L 466.963233 508.459695 
L 473.075541 509.443337 
L 476.742926 509.432486 
L 482.855234 509.320827 
L 487.745081 509.237795 
L 490.190005 509.033863 
L 496.302313 508.231381 
L 497.524775 508.063971 
L 498.747236 507.595929 
L 499.969698 506.641763 
L 503.637083 502.276818 
L 504.859545 501.307276 
L 506.082006 500.850357 
L 507.304468 500.895881 
L 508.52693 501.349916 
L 512.194315 503.463556 
L 513.416776 503.868354 
L 514.639238 503.787382 
L 515.8617 502.541599 
L 517.084161 498.04584 
L 518.306623 486.526859 
L 519.529085 465.439619 
L 521.974008 409.533253 
L 523.19647 385.384887 
L 525.641393 343.893841 
L 526.863855 329.410004 
L 528.086317 326.531197 
L 529.308778 337.32835 
L 531.753702 375.233726 
L 532.976163 381.081797 
L 534.198625 370.105208 
L 535.421087 349.766532 
L 536.643548 335.030627 
L 537.86601 337.15336 
L 539.088472 356.794604 
L 541.533395 416.465879 
L 542.755857 441.178159 
L 543.978318 458.637963 
L 545.20078 469.834772 
L 546.423242 476.715434 
L 547.645703 481.054321 
L 548.868165 484.142111 
L 552.53555 492.485661 
L 553.758012 495.304024 
L 554.980474 497.770473 
L 556.202935 499.730945 
L 557.425397 501.215106 
L 558.647859 502.359868 
L 561.092782 504.111904 
L 562.315244 504.811081 
L 563.537705 505.371882 
L 564.760167 505.775865 
L 575.762322 508.237199 
L 580.652169 508.83191 
L 585.542015 509.187494 
L 596.544171 509.681531 
L 602.656479 509.430726 
L 614.881096 509.915551 
L 635.662944 510.169034 
L 644.220176 510.264056 
L 652.777408 510.299592 
L 671.114333 510.395238 
L 770.133729 510.772487 
L 776.246037 510.749206 
L 788.470654 510.871996 
L 816.587273 510.987273 
L 816.587273 510.987273 
" clip-path="url(#p4c0febc3fb)" style="fill: none; stroke: #0000ff; stroke-width: 1.5; stroke-linecap: square"/>
   </g>
   <g id="line2d_14">
    <path d="M 94.880371 234.323058 
L 137.421304 234.3224 
L 384.054415 234.292295 
L 384.054415 234.275614 
L 384.398904 234.281091 
L 384.398904 234.230823 
L 385.781509 233.974095 
L 386.125265 234.058184 
L 386.125265 233.955482 
L 386.469021 234.012897 
L 386.469021 233.86606 
L 387.154088 233.977243 
L 387.154088 233.865141 
L 387.497356 234.017703 
L 387.497356 233.902033 
L 387.845513 233.99725 
L 387.845513 233.820773 
L 388.18878 233.91736 
L 388.18878 233.742117 
L 388.531803 233.851494 
L 388.531803 233.724273 
L 388.874826 233.885437 
L 388.874826 233.721797 
L 389.215892 233.917407 
L 389.215892 233.781911 
L 389.559404 233.920919 
L 389.559404 233.791127 
L 389.902916 233.94555 
L 389.902916 233.789852 
L 390.245939 233.928753 
L 390.245939 233.766602 
L 391.618763 233.713785 
L 391.618763 233.778651 
L 392.650276 233.87534 
L 392.650276 233.730471 
L 392.998922 233.890185 
L 392.998922 233.725347 
L 393.685457 233.719007 
L 393.685457 233.722022 
L 394.02848 233.584572 
L 394.37028 233.625468 
L 394.713303 233.798943 
L 394.713303 233.668521 
L 395.400082 233.968136 
L 395.400082 233.872556 
L 395.743593 233.912717 
L 396.090283 233.772561 
L 396.433795 233.880654 
L 396.433795 233.725774 
L 397.808331 234.007644 
L 397.808331 233.900624 
L 398.500733 233.990282 
L 398.500733 233.881281 
L 398.844245 234.006772 
L 398.844245 233.894354 
L 399.187512 234.004151 
L 399.187512 233.883761 
L 399.531024 233.967244 
L 399.531024 233.83549 
L 399.874536 233.93934 
L 399.874536 233.839431 
L 401.250783 233.899396 
L 401.250783 233.938338 
L 401.594539 234.05998 
L 401.594539 233.941921 
L 401.938296 234.032118 
L 401.938296 233.942471 
L 402.626052 233.879088 
L 402.626052 233.881328 
L 402.969564 233.850806 
L 403.317966 234.022115 
L 403.317966 233.902635 
L 404.005967 234.050448 
L 404.005967 233.95051 
L 404.349723 234.059033 
L 404.349723 233.961395 
L 404.698859 234.029075 
L 404.698859 233.923283 
L 405.730861 233.868559 
L 405.730861 233.889519 
L 406.419107 234.046529 
L 406.419107 233.942337 
L 407.105641 234.038226 
L 407.105641 233.923867 
L 407.794131 234.024165 
L 407.794131 233.946303 
L 408.487267 234.064298 
L 408.487267 233.972556 
L 408.831023 234.066616 
L 408.831023 233.948483 
L 409.519758 234.070375 
L 409.519758 233.992211 
L 410.208249 234.090805 
L 410.208249 233.986344 
L 410.896495 233.932471 
L 411.240984 234.032154 
L 412.273476 233.933937 
L 412.617721 234.031252 
L 412.617721 233.941038 
L 420.891586 233.979307 
L 421.923344 234.048356 
L 422.610856 234.148811 
L 422.610856 234.086592 
L 423.641636 234.0574 
L 423.641636 233.993872 
L 424.67755 234.038458 
L 425.364084 234.117132 
L 425.364084 234.090729 
L 426.397309 234.07369 
L 426.397309 234.008755 
L 429.148092 234.121308 
L 429.148092 234.121179 
L 430.178383 234.026123 
L 431.207451 234.096117 
L 431.207451 234.086695 
L 431.89423 234.034234 
L 432.237742 234.096826 
L 432.237742 234.045095 
L 435.335949 234.00282 
L 436.023461 234.098576 
L 440.159293 234.100011 
L 440.50305 234.028106 
L 440.84705 234.123452 
L 440.84705 234.055393 
L 442.566565 234.13726 
L 442.566565 234.099716 
L 443.254811 234.051637 
L 443.254811 234.061875 
L 445.668195 234.067016 
L 445.668195 234.051167 
L 452.208854 234.150896 
L 452.208854 234.071714 
L 453.583634 234.137309 
L 453.583634 234.04778 
L 455.308283 233.983652 
L 455.308283 234.011304 
L 456.339063 234.025765 
L 456.339063 234.021527 
L 457.030243 233.888002 
L 457.71751 233.873269 
L 457.71751 233.879024 
L 458.4038 234.052359 
L 459.433602 233.819787 
L 461.156784 233.994643 
L 462.186341 233.85354 
L 463.559166 234.108207 
L 463.559166 234.010388 
L 464.588968 233.982931 
L 464.588968 234.00028 
L 465.967904 234.113575 
L 465.967904 234.042582 
L 467.685219 234.11925 
L 467.685219 234.083278 
L 468.032887 234.161439 
L 468.032887 234.114462 
L 469.405956 234.021549 
L 469.405956 234.057051 
L 469.749467 234.162692 
L 469.749467 234.084863 
L 470.092979 234.146074 
L 470.092979 234.097354 
L 471.129138 233.994895 
L 471.129138 234.029098 
L 471.81665 234.134379 
L 472.847674 234.076719 
L 472.847674 234.080298 
L 473.534942 234.129984 
L 473.534942 234.067285 
L 474.222455 234.130871 
L 474.222455 234.085544 
L 475.253479 234.040192 
L 475.253479 234.040352 
L 475.947593 234.13577 
L 475.947593 234.068305 
L 476.978617 234.158384 
L 476.978617 234.110321 
L 477.666374 234.163159 
L 477.666374 234.091053 
L 478.354131 234.119187 
L 478.354131 234.035516 
L 479.385155 234.158067 
L 479.385155 234.100061 
L 480.416423 234.137224 
L 481.800739 234.0624 
L 482.144251 233.989769 
L 482.487518 234.074002 
L 482.487518 234.045186 
L 482.830785 233.966307 
L 483.174541 234.075185 
L 483.862298 233.975515 
L 486.274704 234.086725 
L 486.274704 234.084558 
L 486.962217 234.056299 
L 487.305973 233.993311 
L 488.681487 234.160613 
L 488.681487 234.1004 
L 493.504098 234.068656 
L 493.504098 233.943893 
L 493.84761 233.967394 
L 493.84761 233.837334 
L 494.191122 233.860895 
L 494.191122 233.713161 
L 494.191122 233.792844 
L 494.534389 233.628552 
L 494.877656 233.663034 
L 494.877656 233.443175 
L 495.220923 233.468214 
L 495.220923 233.176853 
L 495.564191 233.211105 
L 495.564191 232.873322 
L 495.907213 232.727305 
L 496.598882 232.727814 
L 496.942149 233.00404 
L 496.942149 232.766452 
L 497.285172 232.981434 
L 497.285172 232.819311 
L 497.628195 233.019399 
L 497.628195 232.849887 
L 497.628195 233.111201 
L 497.976107 232.906978 
L 498.31913 233.139885 
L 498.31913 232.939049 
L 498.31913 233.184799 
L 498.662153 233.170721 
L 498.662153 233.244926 
L 500.034488 233.304558 
L 500.034488 233.137021 
L 500.034488 233.30985 
L 501.080427 233.208977 
L 501.080427 232.945583 
L 501.428828 232.960889 
L 501.428828 232.526489 
L 502.455696 231.594328 
L 502.797741 231.832752 
L 502.797741 231.25319 
L 503.14003 231.481085 
L 503.14003 230.793242 
L 503.481341 231.045581 
L 503.481341 230.371439 
L 503.822653 230.707577 
L 503.822653 230.184291 
L 504.16372 230.696703 
L 504.16372 229.990527 
L 504.504542 230.487845 
L 504.504542 229.880462 
L 504.845364 230.324383 
L 504.845364 229.580477 
L 505.187653 230.400499 
L 505.187653 229.886187 
L 505.528476 230.549644 
L 505.528476 230.007448 
L 505.869543 230.717209 
L 505.869543 230.046465 
L 506.214521 230.761762 
L 506.214521 230.125815 
L 506.560722 230.741166 
L 506.560722 230.357147 
L 506.901789 230.984012 
L 506.901789 230.494841 
L 507.242611 231.140012 
L 507.242611 230.708611 
L 507.582945 231.152635 
L 507.582945 230.717886 
L 507.921322 231.260409 
L 507.921322 230.812256 
L 507.921322 231.485006 
L 508.260189 231.555367 
L 508.260189 231.478504 
L 508.600766 231.918483 
L 508.600766 231.206315 
L 509.282656 231.072083 
L 509.282656 230.451927 
L 509.623233 230.895366 
L 509.623233 230.236022 
L 509.964056 230.584854 
L 509.964056 229.861807 
L 510.305122 230.493349 
L 510.305122 229.768483 
L 510.645945 230.357092 
L 510.645945 229.739803 
L 510.986767 230.442913 
L 510.986767 229.614106 
L 510.986767 230.457412 
L 511.327834 229.818295 
L 511.67428 230.482485 
L 511.67428 229.998041 
L 512.015346 230.871687 
L 512.015346 230.308285 
L 512.015346 231.116394 
L 512.697236 231.378459 
L 512.697236 231.344449 
L 512.697236 231.462143 
L 513.038302 231.607147 
L 513.038302 231.751395 
L 513.379614 232.330198 
L 513.379614 231.671267 
L 513.379614 231.775892 
L 513.72068 232.214443 
L 513.72068 231.826097 
L 514.063459 231.866557 
L 514.063459 232.024976 
L 514.404525 231.96291 
L 514.404525 231.638789 
L 514.750238 231.882904 
L 514.750238 231.470584 
L 514.750238 231.977416 
L 515.774416 231.818237 
L 515.774416 231.401656 
L 516.457039 231.36116 
L 516.457039 231.428844 
L 516.803484 231.367714 
L 516.803484 231.42236 
L 517.144551 231.897604 
L 517.144551 231.595663 
L 517.828152 231.666768 
L 517.828152 231.836676 
L 518.168974 231.882565 
L 518.168974 232.052883 
L 518.510041 232.242361 
L 518.849885 232.048406 
L 519.518816 232.210593 
L 519.518816 232.273673 
L 519.850348 232.686633 
L 520.182368 232.985031 
L 520.182368 232.820599 
L 520.84861 233.299577 
L 520.84861 233.225172 
L 521.509717 233.497903 
L 522.829487 233.722358 
L 522.829487 233.580048 
L 523.156618 233.590318 
L 523.483504 233.468801 
L 524.137276 233.424207 
L 524.463918 233.341303 
L 524.790804 233.417834 
L 525.117446 233.696537 
L 525.770974 233.774523 
L 526.097616 234.129354 
L 527.409806 234.072433 
L 528.715884 233.855757 
L 529.042526 233.718992 
L 530.371831 233.7921 
L 530.698228 233.883006 
L 532.989366 233.93086 
L 534.296422 233.738185 
L 534.296422 233.463273 
L 534.623064 232.586892 
L 534.94995 232.367248 
L 534.94995 230.537239 
L 535.277081 229.443066 
L 535.277081 225.833794 
L 535.603967 225.791126 
L 535.603967 217.576212 
L 535.930609 217.617824 
L 535.930609 206.344371 
L 536.257739 207.116473 
L 536.257739 188.155708 
L 536.590005 192.859504 
L 536.590005 170.619639 
L 536.921536 178.007146 
L 536.921536 149.32718 
L 537.248667 162.006668 
L 537.248667 126.510204 
L 537.576042 143.26943 
L 537.576042 100.924396 
L 537.902928 127.528654 
L 537.902928 82.032254 
L 538.22957 111.577061 
L 538.22957 67.416346 
L 538.556701 105.942769 
L 538.556701 58.062316 
L 538.883587 104.496042 
L 538.883587 55.213061 
L 539.210473 97.289755 
L 539.210473 54.432538 
L 539.537115 97.862016 
L 539.537115 49.932727 
L 539.863757 99.864954 
L 539.863757 58.967319 
L 540.191132 104.812961 
L 540.191132 65.769771 
L 540.518018 112.111892 
L 540.518018 72.111862 
L 540.844905 115.474882 
L 540.844905 76.51484 
L 541.171791 117.244179 
L 541.171791 83.216691 
L 541.504056 125.874506 
L 541.504056 89.328465 
L 541.831187 127.573917 
L 541.831187 94.971683 
L 542.158073 130.185656 
L 542.158073 101.809308 
L 542.484959 140.364955 
L 542.484959 110.134771 
L 542.81209 145.913615 
L 542.81209 119.509276 
L 543.139221 149.697946 
L 543.139221 126.629992 
L 543.466107 157.565427 
L 543.466107 131.95118 
L 543.793238 161.091847 
L 543.793238 140.053958 
L 544.120368 163.717841 
L 544.120368 145.603755 
L 544.449211 173.40376 
L 544.449211 151.678254 
L 544.776586 174.583938 
L 544.776586 155.742094 
L 545.103961 176.79006 
L 545.103961 155.699252 
L 545.431336 177.084275 
L 545.431336 155.531912 
L 545.758712 173.687627 
L 545.758712 154.225837 
L 546.086087 174.775442 
L 546.086087 158.676291 
L 546.41933 179.777336 
L 546.41933 166.957514 
L 546.749884 186.317212 
L 546.749884 169.86256 
L 547.077992 187.950121 
L 547.077992 171.455588 
L 547.407079 186.464691 
L 547.407079 172.612342 
L 547.734699 189.56788 
L 547.734699 176.470912 
L 548.062563 193.471 
L 548.062563 180.07451 
L 548.390427 194.20081 
L 548.390427 180.775327 
L 548.718291 193.417534 
L 548.718291 181.596612 
L 549.0464 195.765488 
L 549.0464 184.150527 
L 549.374264 198.814817 
L 549.374264 187.514705 
L 549.702617 199.71794 
L 549.702617 189.105456 
L 550.031215 201.757879 
L 550.031215 192.331298 
L 550.359813 204.316103 
L 550.359813 195.220906 
L 550.687922 206.669232 
L 550.687922 197.393495 
L 551.016764 206.611038 
L 551.016764 197.370439 
L 551.350985 206.866104 
L 551.350985 198.18185 
L 551.680316 207.52047 
L 551.680316 199.920353 
L 552.009403 209.361296 
L 552.009403 201.085642 
L 552.338734 209.379432 
L 552.338734 202.186657 
L 552.667821 210.415928 
L 552.667821 203.671176 
L 552.996907 212.754673 
L 552.996907 205.377742 
L 553.32795 212.960829 
L 553.32795 206.343497 
L 553.657281 213.425712 
L 553.657281 207.01383 
L 553.987346 214.93802 
L 553.987346 209.702431 
L 554.31741 216.198526 
L 554.31741 210.777662 
L 554.647719 217.464619 
L 554.647719 211.401319 
L 554.977051 216.762153 
L 554.977051 211.301911 
L 555.306626 216.946262 
L 555.306626 212.106971 
L 555.63718 218.307764 
L 555.63718 212.906748 
L 555.967 218.987777 
L 555.967 214.602602 
L 556.301955 219.770603 
L 556.301955 214.358767 
L 556.635687 220.012102 
L 556.635687 215.457681 
L 556.965996 220.43613 
L 556.965996 215.879137 
L 557.296794 221.396251 
L 557.296794 217.422255 
L 557.630281 221.7575 
L 557.630281 217.175325 
L 557.961569 221.772573 
L 557.961569 218.199543 
L 558.292856 222.325954 
L 558.292856 218.459768 
L 558.623409 222.87949 
L 558.623409 219.076143 
L 558.954696 223.122418 
L 558.954696 219.283116 
L 559.285495 223.270049 
L 559.285495 219.355992 
L 559.635852 222.918487 
L 559.635852 219.163349 
L 559.967384 222.285922 
L 559.967384 219.701427 
L 560.300382 223.750041 
L 560.300382 220.741316 
L 560.633381 224.478307 
L 560.633381 222.265875 
L 560.965157 224.837735 
L 560.965157 222.000165 
L 561.30329 225.302048 
L 561.30329 222.13371 
L 561.636777 225.261803 
L 561.636777 222.272147 
L 561.968553 225.175237 
L 561.968553 222.133859 
L 562.301552 225.123171 
L 562.301552 221.944585 
L 562.633817 225.204049 
L 562.633817 222.493683 
L 562.968283 225.533775 
L 562.968283 223.185793 
L 563.302259 226.318256 
L 563.302259 223.503074 
L 563.63648 226.382985 
L 563.63648 224.059841 
L 563.969968 226.723545 
L 563.969968 223.800266 
L 564.302477 226.56211 
L 564.302477 224.179998 
L 564.636209 226.686752 
L 564.636209 224.24332 
L 564.970919 227.39766 
L 564.970919 224.59284 
L 565.304407 226.943666 
L 565.304407 224.473959 
L 565.63985 226.939699 
L 565.63985 224.856108 
L 565.97456 227.824659 
L 565.97456 226.28303 
L 566.319539 228.604841 
L 566.319539 226.294592 
L 566.654738 228.24222 
L 566.654738 226.11611 
L 566.991404 227.947211 
L 566.991404 226.142961 
L 567.327092 228.452851 
L 567.327092 226.698522 
L 567.665469 228.905213 
L 567.665469 226.892272 
L 568.003847 228.765459 
L 568.003847 226.866601 
L 568.339535 228.727802 
L 568.339535 226.898121 
L 568.675712 228.960696 
L 568.675712 226.98263 
L 569.015067 228.882932 
L 569.015067 227.419706 
L 569.350022 229.219294 
L 569.350022 227.260174 
L 569.684976 229.337569 
L 569.684976 227.977284 
L 570.02262 229.616112 
L 570.02262 228.183013 
L 570.360264 230.039529 
L 570.360264 228.479991 
L 570.696441 229.838505 
L 570.696441 228.257988 
L 571.033351 229.765421 
L 571.033351 228.051165 
L 571.376374 229.596678 
L 571.376374 228.158092 
L 571.714996 227.955339 
L 572.052151 227.936047 
L 572.052151 228.215154 
L 572.392729 228.245114 
L 572.392729 228.409814 
L 572.730617 230.07561 
L 572.730617 228.518744 
L 573.067039 230.004564 
L 573.067039 228.570062 
L 573.403949 229.860368 
L 573.403949 228.600735 
L 573.744038 230.193742 
L 573.744038 228.910285 
L 574.081193 230.297993 
L 574.081193 228.926181 
L 574.426905 230.345273 
L 574.426905 229.075075 
L 574.766016 230.392704 
L 574.766016 229.091978 
L 575.108305 230.481715 
L 575.108305 229.113006 
L 575.449372 230.317201 
L 575.449372 229.092486 
L 575.788727 230.403841 
L 575.788727 229.304867 
L 576.12955 230.741484 
L 576.12955 229.677057 
L 576.47624 230.870457 
L 576.47624 229.901187 
L 576.817306 231.171804 
L 576.817306 230.037459 
L 577.158618 231.086196 
L 577.158618 230.055016 
L 577.499685 229.768207 
L 577.840996 229.801792 
L 577.840996 229.594315 
L 578.182063 229.71207 
L 578.182063 229.703111 
L 578.523374 231.068574 
L 578.523374 229.856852 
L 578.864685 231.225105 
L 578.864685 230.184106 
L 579.205997 231.359398 
L 579.205997 230.326045 
L 579.547552 231.459287 
L 579.547552 230.463896 
L 579.888864 231.460731 
L 579.888864 230.407967 
L 580.230419 231.456365 
L 580.230419 230.588704 
L 580.571731 231.439675 
L 580.571731 230.422973 
L 580.913042 231.458692 
L 580.913042 230.460235 
L 581.254353 231.415326 
L 581.254353 230.625211 
L 581.601533 231.738912 
L 581.601533 230.713014 
L 581.943088 231.737635 
L 581.943088 230.696361 
L 582.284644 231.543572 
L 582.284644 230.601656 
L 582.6262 231.566741 
L 582.6262 230.652362 
L 582.967756 231.6768 
L 582.967756 230.794339 
L 583.309556 231.680852 
L 583.309556 230.920107 
L 583.651601 231.844514 
L 583.651601 231.006526 
L 583.993401 231.911697 
L 583.993401 231.108846 
L 584.335201 231.94438 
L 584.335201 231.223803 
L 584.677002 232.046094 
L 584.677002 231.201519 
L 585.018802 232.00642 
L 585.018802 231.145342 
L 585.360358 231.830503 
L 585.360358 231.040757 
L 585.702402 231.882934 
L 585.702402 231.169508 
L 586.044203 231.985054 
L 586.044203 231.272951 
L 586.386248 232.050679 
L 586.386248 231.226802 
L 586.733427 231.915963 
L 586.733427 231.259042 
L 587.075227 232.027453 
L 587.075227 231.341368 
L 587.417027 232.287802 
L 587.417027 231.546994 
L 587.758827 232.278017 
L 587.758827 231.614562 
L 588.100872 232.354498 
L 588.100872 231.577359 
L 588.442673 232.372829 
L 588.442673 231.65137 
L 588.784717 232.250386 
L 588.784717 231.488194 
L 589.126518 232.183493 
L 589.126518 231.543233 
L 589.468562 232.273381 
L 589.468562 231.677162 
L 589.815497 232.419834 
L 589.815497 231.782157 
L 590.157786 232.454863 
L 590.157786 231.869918 
L 590.499831 232.526124 
L 590.499831 231.905847 
L 590.841876 232.562694 
L 590.841876 231.858764 
L 591.184165 232.433937 
L 591.184165 231.846709 
L 591.52621 232.420566 
L 591.52621 231.717069 
L 591.873878 232.407495 
L 591.873878 231.804044 
L 592.216167 232.400173 
L 592.216167 231.847137 
L 593.242791 231.956517 
L 593.584835 232.623432 
L 593.584835 232.113373 
L 593.927369 232.760487 
L 593.927369 232.095839 
L 594.269414 232.655047 
L 594.269414 232.062176 
L 594.612192 232.616852 
L 594.612192 232.106229 
L 594.954481 232.697577 
L 594.954481 232.189618 
L 595.639304 232.165564 
L 595.639304 232.126099 
L 595.981838 232.192342 
L 595.981838 232.148293 
L 596.324616 232.766937 
L 596.324616 232.244289 
L 596.66715 232.797812 
L 596.66715 232.227011 
L 597.015307 232.80539 
L 597.015307 232.338055 
L 597.358086 232.872107 
L 597.358086 232.391042 
L 597.702086 232.932804 
L 597.702086 232.43593 
L 598.044865 232.85818 
L 598.044865 232.373447 
L 598.387398 232.86921 
L 598.387398 232.41829 
L 598.730666 232.926313 
L 598.730666 232.459829 
L 599.073199 232.929552 
L 599.073199 232.470541 
L 599.758756 232.526061 
L 599.758756 232.614267 
L 600.101779 232.635619 
L 600.101779 232.628585 
L 600.444312 233.099573 
L 600.444312 232.648162 
L 600.787091 233.078307 
L 600.787091 232.643375 
L 601.130113 233.063632 
L 601.130113 232.633983 
L 601.472647 233.078073 
L 601.472647 232.539158 
L 601.820071 232.995757 
L 601.820071 232.541893 
L 602.167983 232.911852 
L 602.167983 232.526578 
L 602.510517 233.070293 
L 602.510517 232.677578 
L 602.853051 233.172739 
L 602.853051 232.793955 
L 603.19534 233.187893 
L 603.19534 232.711546 
L 603.538118 233.087825 
L 603.538118 232.671515 
L 603.880652 233.098429 
L 603.880652 232.677361 
L 604.223675 233.132715 
L 604.223675 232.741612 
L 604.566698 233.148145 
L 604.566698 232.70982 
L 604.909231 233.112561 
L 604.909231 232.759164 
L 605.594788 232.704699 
L 605.594788 232.742912 
L 605.937322 232.767683 
L 605.937322 232.684114 
L 606.279855 233.138082 
L 606.279855 232.730368 
L 606.622634 233.164421 
L 606.622634 232.686349 
L 606.965167 232.72956 
L 607.313569 232.267075 
L 607.656347 232.683634 
L 607.656347 232.315323 
L 608.342393 233.245245 
L 608.342393 232.847425 
L 608.685904 233.176328 
L 608.685904 232.818407 
L 609.028927 233.229824 
L 609.028927 232.812828 
L 609.37195 233.231905 
L 609.37195 232.896967 
L 609.714973 233.297401 
L 609.714973 232.990877 
L 610.057751 233.417708 
L 610.057751 233.059997 
L 610.400774 233.409363 
L 610.400774 233.106151 
L 610.743796 233.418245 
L 610.743796 233.077235 
L 611.087064 233.412483 
L 611.087064 233.100462 
L 611.430331 233.40465 
L 611.430331 233.04815 
L 611.773354 233.348618 
L 611.773354 233.034975 
L 612.116621 233.359602 
L 612.116621 233.023972 
L 612.465511 233.388918 
L 612.465511 233.061012 
L 612.81318 233.388392 
L 612.81318 233.026557 
L 613.156447 233.379189 
L 613.156447 233.062778 
L 613.499714 233.405518 
L 613.499714 233.122934 
L 613.842981 233.487631 
L 613.842981 233.14676 
L 614.186249 233.449639 
L 614.186249 233.120273 
L 614.52976 233.4152 
L 614.52976 233.097619 
L 614.872783 233.419344 
L 614.872783 233.08946 
L 615.215806 233.454055 
L 615.215806 233.173991 
L 615.559073 233.475845 
L 615.559073 233.155744 
L 615.90234 233.47966 
L 615.90234 233.180134 
L 616.245852 233.427043 
L 616.245852 233.148751 
L 616.589364 233.470563 
L 616.589364 233.181308 
L 616.932631 233.462693 
L 616.932631 233.221451 
L 617.276143 233.535505 
L 617.276143 233.232541 
L 617.625033 233.532121 
L 617.625033 233.227215 
L 617.968545 233.465685 
L 617.968545 233.132445 
L 618.312057 233.435874 
L 618.312057 233.189445 
L 618.655324 233.512018 
L 618.655324 233.20439 
L 618.998836 233.509886 
L 618.998836 233.267233 
L 619.342347 233.50203 
L 619.342347 233.238512 
L 619.685615 233.572784 
L 619.685615 233.313122 
L 620.029126 233.560344 
L 620.029126 233.313902 
L 620.372638 233.55259 
L 620.372638 233.216103 
L 620.716394 233.487678 
L 620.716394 233.214903 
L 621.059662 233.477235 
L 621.059662 233.27877 
L 621.403173 233.587697 
L 621.403173 233.369893 
L 621.746441 233.652166 
L 621.746441 233.40537 
L 622.089952 233.619285 
L 622.089952 233.389969 
L 622.433709 233.602272 
L 622.433709 233.405386 
L 622.782844 233.658584 
L 622.782844 233.411478 
L 623.126355 233.678159 
L 623.126355 233.424127 
L 623.474757 233.623124 
L 623.474757 233.305077 
L 624.16178 233.177091 
L 624.505292 233.165946 
L 624.505292 233.254203 
L 624.849048 233.622744 
L 624.849048 233.393604 
L 625.192316 233.666601 
L 625.192316 233.38384 
L 625.535827 233.61718 
L 625.535827 233.383429 
L 625.879583 233.643777 
L 625.879583 233.433268 
L 626.223095 233.671267 
L 626.223095 233.444783 
L 626.566607 233.673478 
L 626.566607 233.435353 
L 626.910363 233.626093 
L 626.910363 233.495455 
L 627.254119 233.732198 
L 627.254119 233.539496 
L 627.597876 233.769765 
L 627.597876 233.592519 
L 627.952634 233.775908 
L 627.952634 233.527675 
L 628.296146 233.738701 
L 628.296146 233.538027 
L 628.639902 233.731103 
L 628.639902 233.513595 
L 629.671171 233.565666 
L 630.014682 233.760214 
L 630.014682 233.555758 
L 630.358194 233.736843 
L 630.358194 233.560074 
L 630.701461 233.73312 
L 630.701461 233.560595 
L 631.046685 233.534424 
L 631.390196 233.362554 
L 631.734197 233.512277 
L 631.734197 233.333693 
L 632.421709 233.779981 
L 632.421709 233.604392 
L 632.76571 233.783795 
L 632.76571 233.593031 
L 633.114356 233.798359 
L 633.114356 233.597999 
L 633.458357 233.77997 
L 633.458357 233.609388 
L 633.802113 233.776824 
L 633.802113 233.558368 
L 634.145625 233.737356 
L 634.145625 233.571947 
L 634.489381 233.736175 
L 634.489381 233.549727 
L 634.833137 233.760625 
L 634.833137 233.632618 
L 635.176894 233.815287 
L 635.176894 233.656379 
L 635.520894 233.840834 
L 635.520894 233.644875 
L 635.864895 233.798261 
L 635.864895 233.597869 
L 636.213052 233.766159 
L 636.213052 233.595783 
L 636.556808 233.591199 
L 636.90032 233.383364 
L 637.244076 233.574967 
L 637.244076 233.36142 
L 637.587588 233.563831 
L 638.27999 233.551425 
L 638.27999 233.574795 
L 638.623502 233.356144 
L 638.966769 233.5439 
L 639.310525 233.313106 
L 639.65526 233.545831 
L 639.998282 233.618618 
L 640.341305 233.818011 
L 640.341305 233.628014 
L 640.684328 233.787543 
L 640.684328 233.600003 
L 641.712907 233.390032 
L 642.055685 233.574293 
L 642.398708 233.621061 
L 642.741486 233.850729 
L 642.741486 233.735129 
L 643.089155 233.932934 
L 643.089155 233.739433 
L 643.437312 233.723154 
L 644.466624 233.232014 
L 645.841405 233.852212 
L 645.841405 233.663892 
L 646.184672 233.813793 
L 646.184672 233.630669 
L 646.528428 233.800775 
L 646.528428 233.647827 
L 646.87194 233.832109 
L 646.87194 233.674321 
L 647.215207 233.847328 
L 647.215207 233.677567 
L 647.558963 233.821566 
L 647.558963 233.683484 
L 647.902231 233.837608 
L 647.902231 233.702387 
L 648.245742 233.851221 
L 648.245742 233.682931 
L 649.282145 233.689979 
L 649.282145 233.725344 
L 649.625902 233.892864 
L 649.625902 233.714836 
L 649.969658 233.858369 
L 649.969658 233.712882 
L 651.005572 233.678869 
L 651.005572 233.692188 
L 651.349817 233.882393 
L 651.349817 233.732419 
L 651.693573 233.886641 
L 651.693573 233.682313 
L 652.03733 233.806442 
L 652.03733 233.659021 
L 652.38133 233.803457 
L 652.38133 233.654551 
L 653.068598 233.740398 
L 653.412354 233.758721 
L 653.761245 233.900128 
L 653.761245 233.73771 
L 655.823293 233.736951 
L 655.823293 233.757504 
L 656.16705 233.917335 
L 656.16705 233.763937 
L 656.510806 233.926282 
L 656.510806 233.77227 
L 656.854073 233.899001 
L 656.854073 233.739826 
L 657.197829 233.879368 
L 657.197829 233.744417 
L 657.541585 233.876149 
L 657.541585 233.740262 
L 658.228853 233.929313 
L 658.228853 233.79971 
L 658.57261 233.940717 
L 658.57261 233.863679 
L 658.921745 233.958275 
L 658.921745 233.778132 
L 659.609502 233.720304 
L 659.953013 233.56469 
L 660.297014 233.728931 
L 660.297014 233.717881 
L 660.641504 233.738502 
L 660.985504 233.896178 
L 660.985504 233.737768 
L 660.985504 233.891185 
L 663.050487 233.725083 
L 663.394976 233.895872 
L 663.394976 233.769375 
L 663.744356 233.953722 
L 663.744356 233.792848 
L 665.815695 233.75478 
L 667.535699 233.770451 
L 667.879944 233.909867 
L 667.879944 233.788306 
L 668.56819 233.960497 
L 668.56819 233.841785 
L 668.912191 233.963946 
L 668.912191 233.810442 
L 669.261815 233.797343 
L 669.60606 233.913394 
L 669.60606 233.766971 
L 670.293572 233.921235 
L 670.293572 233.831622 
L 671.326308 233.799193 
L 671.326308 233.76903 
L 672.359288 233.655283 
L 673.392513 233.959796 
L 673.392513 233.810651 
L 673.741648 233.870326 
L 673.741648 233.712301 
L 674.085893 233.832341 
L 674.085893 233.701592 
L 674.780007 233.718982 
L 674.780007 233.724906 
L 675.124007 233.750601 
L 675.468008 233.908964 
L 675.468008 233.746436 
L 676.156743 233.6989 
L 676.502211 233.561106 
L 677.534457 233.901321 
L 677.534457 233.775261 
L 677.878458 233.900259 
L 677.878458 233.756101 
L 679.94833 233.59018 
L 679.94833 233.759139 
L 680.980577 233.995982 
L 680.980577 233.932119 
L 681.324822 233.984699 
L 681.324822 233.86297 
L 681.669067 233.979645 
L 681.669067 233.855332 
L 682.357069 233.983632 
L 682.357069 233.892136 
L 682.701558 234.013793 
L 682.701558 233.894039 
L 683.390293 233.981207 
L 683.390293 233.861353 
L 684.084162 233.967212 
L 684.084162 233.846926 
L 684.428408 233.963767 
L 684.428408 233.848758 
L 687.189215 233.96213 
L 687.189215 233.832815 
L 687.878194 233.952698 
L 687.878194 233.843976 
L 688.222684 233.971034 
L 688.222684 233.861966 
L 688.567174 233.97616 
L 688.567174 233.878649 
L 689.255909 233.993204 
L 689.255909 233.85318 
L 689.952223 233.974286 
L 689.952223 233.84661 
L 690.296713 233.986323 
L 690.296713 233.860904 
L 690.640958 233.972778 
L 690.640958 233.848096 
L 691.329693 233.997741 
L 691.329693 233.877978 
L 692.364384 233.857939 
L 692.364384 233.862797 
L 692.709119 234.012804 
L 692.709119 233.889164 
L 693.397853 233.994164 
L 693.397853 233.890028 
L 693.747233 234.011658 
L 693.747233 233.915142 
L 694.091967 233.986125 
L 694.091967 233.890985 
L 695.475794 233.879153 
L 695.475794 233.908314 
L 696.165262 233.905404 
L 696.854242 234.029598 
L 696.854242 233.904328 
L 697.887955 233.755802 
L 698.232445 233.893736 
L 698.232445 233.892115 
L 698.577668 233.890172 
L 698.577668 233.894145 
L 699.267136 234.020408 
L 699.267136 233.888774 
L 699.611626 233.990962 
L 699.611626 233.866349 
L 699.956116 233.973797 
L 699.956116 233.878668 
L 700.995942 233.947598 
L 700.995942 233.897059 
L 702.029166 233.780287 
L 702.029166 233.803484 
L 702.718146 233.950812 
L 702.718146 233.886813 
L 704.441817 233.994157 
L 704.441817 233.913281 
L 704.791685 234.026651 
L 704.791685 233.919899 
L 705.136419 233.899343 
L 705.486288 233.75433 
L 705.831022 233.84293 
L 705.831022 233.710481 
L 706.865469 234.026252 
L 706.865469 233.924122 
L 707.554938 234.024758 
L 707.554938 233.911468 
L 708.589629 233.830064 
L 708.589629 233.842363 
L 708.933874 233.898094 
L 709.278364 233.794209 
L 709.623098 233.915903 
L 709.623098 233.83084 
L 710.312811 233.896332 
L 710.312811 233.912082 
L 721.017664 233.90997 
L 721.707132 233.877824 
L 721.707132 233.920377 
L 722.396356 234.043611 
L 722.396356 233.971825 
L 723.084846 234.060789 
L 723.084846 233.943275 
L 723.773826 234.044446 
L 723.773826 233.963956 
L 724.462561 234.078649 
L 724.462561 233.982048 
L 725.156185 234.040724 
L 725.156185 233.949205 
L 725.156185 234.019042 
L 725.844676 234.019345 
L 725.844676 234.005966 
L 726.538301 233.896299 
L 726.538301 233.896913 
L 726.882546 233.891593 
L 726.882546 233.912177 
L 727.570792 234.075526 
L 727.570792 234.009203 
L 727.915037 234.086659 
L 727.915037 233.973765 
L 728.603772 234.017257 
L 728.603772 233.916301 
L 729.292507 234.040231 
L 729.292507 233.959819 
L 729.636752 234.074577 
L 729.636752 233.97601 
L 730.325242 234.034298 
L 730.325242 233.946058 
L 731.013977 234.035127 
L 731.013977 233.924639 
L 735.495277 233.965367 
L 735.839767 233.830131 
L 736.877392 233.882833 
L 736.877392 233.927272 
L 737.565883 234.050691 
L 737.565883 233.973179 
L 737.909884 234.05686 
L 737.909884 233.96334 
L 738.59813 233.963537 
L 738.59813 233.954573 
L 738.94213 233.853321 
L 739.286375 233.953527 
L 739.286375 233.920514 
L 739.630132 233.92583 
L 740.318622 234.06484 
L 740.318622 233.979331 
L 741.006624 234.048881 
L 741.006624 233.951593 
L 741.69927 234.03298 
L 741.69927 233.972444 
L 742.043271 234.081315 
L 742.043271 233.985294 
L 744.114121 234.085016 
L 744.114121 233.955023 
L 744.802367 234.021129 
L 744.802367 233.918377 
L 745.146123 234.028457 
L 745.146123 233.959746 
L 746.177881 233.984607 
L 746.177881 234.010627 
L 746.871017 234.134497 
L 746.871017 234.019988 
L 747.215017 234.072517 
L 747.215017 234.017544 
L 748.590531 233.916534 
L 748.590531 233.94639 
L 749.622289 233.935455 
L 749.96629 233.868493 
L 750.654047 234.013877 
L 752.036651 234.00665 
L 752.724163 234.088451 
L 752.724163 234.00738 
L 757.20473 234.01502 
L 757.548486 234.08386 
L 757.548486 234.022988 
L 758.580244 234.034957 
L 758.580244 234.041662 
L 758.924244 234.13713 
L 758.924244 234.058263 
L 759.612001 234.078798 
L 759.612001 234.001374 
L 762.01805 233.970165 
L 763.054698 234.061519 
L 764.778613 234.034837 
L 764.778613 234.070621 
L 769.938869 234.026393 
L 770.282625 233.96771 
L 771.314627 234.105477 
L 771.314627 234.03922 
L 772.00165 234.131016 
L 772.00165 234.037932 
L 773.042699 233.935517 
L 773.386699 233.887165 
L 774.761724 234.09287 
L 774.761724 234.061797 
L 775.448748 234.162561 
L 775.448748 234.09878 
L 776.135771 234.098577 
L 776.135771 234.019778 
L 777.165818 234.005613 
L 777.165818 234.033966 
L 777.509085 234.125018 
L 777.509085 234.03428 
L 778.201487 234.057148 
L 778.201487 234.0016 
L 781.299694 234.006791 
L 781.643206 233.929557 
L 782.673252 234.097562 
L 782.673252 234.030015 
L 783.365654 234.099869 
L 783.365654 234.019802 
L 783.365654 234.100782 
L 784.395945 234.090165 
L 784.395945 234.021457 
L 784.395945 233.995887 
L 784.739212 234.088607 
L 785.082724 233.990586 
L 785.425991 234.03536 
L 785.425991 234.011415 
L 785.769258 233.949482 
L 786.798816 234.03648 
L 786.798816 234.030732 
L 787.48535 233.964252 
L 788.862086 234.06666 
L 788.862086 234.063493 
L 789.204865 234.140566 
L 789.204865 234.058223 
L 789.547398 234.092282 
L 789.547398 234.005725 
L 790.568643 233.9961 
L 791.242708 234.074206 
L 795.924736 234.085725 
L 795.924736 234.138975 
L 796.921776 234.083715 
L 796.921776 234.020031 
L 797.585817 234.076896 
L 797.918327 233.979874 
L 799.914851 234.053784 
L 800.57767 234.044462 
L 801.914554 234.137526 
L 801.914554 234.060733 
L 802.246819 234.152326 
L 802.246819 234.092858 
L 803.584192 234.08578 
L 804.91912 234.054396 
L 805.586585 234.097016 
L 805.586585 234.05973 
L 809.611417 234.056957 
L 809.946616 233.997773 
L 810.951969 234.086406 
L 810.951969 234.022423 
L 811.9605 234.029181 
L 811.9605 234.040489 
L 812.635299 234.131906 
L 814.008368 234.22794 
L 816.464293 234.324024 
L 816.464293 234.324024 
" clip-path="url(#p4c0febc3fb)" style="fill: none; stroke: #008000; stroke-width: 1.5; stroke-linecap: square"/>
   </g>
   <g id="patch_3">
    <path d="M 47.72 534.04 
L 47.72 26.88 
" style="fill: none; stroke: #000000; stroke-width: 0.8; stroke-linejoin: miter; stroke-linecap: square"/>
   </g>
   <g id="patch_4">
    <path d="M 853.2 534.04 
L 853.2 26.88 
" style="fill: none; stroke: #000000; stroke-width: 0.8; stroke-linejoin: miter; stroke-linecap: square"/>
   </g>
   <g id="patch_5">
    <path d="M 47.72 534.04 
L 853.2 534.04 
" style="fill: none; stroke: #000000; stroke-width: 0.8; stroke-linejoin: miter; stroke-linecap: square"/>
   </g>
   <g id="patch_6">
    <path d="M 47.72 26.88 
L 853.2 26.88 
" style="fill: none; stroke: #000000; stroke-width: 0.8; stroke-linejoin: miter; stroke-linecap: square"/>
   </g>
   <g id="patch_7">
    <path d="M 607.199479 343.651585 
Q 581.048185 349.484634 554.896892 355.317682 
L 555.767693 359.221744 
Q 549.26 357.599565 542.752306 355.977385 
Q 547.953797 351.743471 553.155289 347.509557 
L 554.02609 351.413619 
Q 580.177384 345.580571 606.328678 339.747523 
L 607.199479 343.651585 
z
" style="stroke: #000000; stroke-linecap: round"/>
   </g>
   <g id="text_15">
    <!-- Peak: RT=3.11, Area=6.35e+04 -->
    <g style="fill: #ff0000" transform="translate(612.436172 327.156893) scale(0.1 -0.1)">
     <defs>
      <path id="DejaVuSans-50" d="M 1259 4147 
L 1259 2394 
L 2053 2394 
Q 2494 2394 2734 2622 
Q 2975 2850 2975 3272 
Q 2975 3691 2734 3919 
Q 2494 4147 2053 4147 
L 1259 4147 
z
M 628 4666 
L 2053 4666 
Q 2838 4666 3239 4311 
Q 3641 3956 3641 3272 
Q 3641 2581 3239 2228 
Q 2838 1875 2053 1875 
L 1259 1875 
L 1259 0 
L 628 0 
L 628 4666 
z
" transform="scale(0.015625)"/>
      <path id="DejaVuSans-6b" d="M 581 4863 
L 1159 4863 
L 1159 1991 
L 2875 3500 
L 3609 3500 
L 1753 1863 
L 3688 0 
L 2938 0 
L 1159 1709 
L 1159 0 
L 581 0 
L 581 4863 
z
" transform="scale(0.015625)"/>
      <path id="DejaVuSans-3a" d="M 750 794 
L 1409 794 
L 1409 0 
L 750 0 
L 750 794 
z
M 750 3309 
L 1409 3309 
L 1409 2516 
L 750 2516 
L 750 3309 
z
" transform="scale(0.015625)"/>
      <path id="DejaVuSans-3d" d="M 678 2906 
L 4684 2906 
L 4684 2381 
L 678 2381 
L 678 2906 
z
M 678 1631 
L 4684 1631 
L 4684 1100 
L 678 1100 
L 678 1631 
z
" transform="scale(0.015625)"/>
      <path id="DejaVuSans-2c" d="M 750 794 
L 1409 794 
L 1409 256 
L 897 -744 
L 494 -744 
L 750 256 
L 750 794 
z
" transform="scale(0.015625)"/>
      <path id="DejaVuSans-41" d="M 2188 4044 
L 1331 1722 
L 3047 1722 
L 2188 4044 
z
M 1831 4666 
L 2547 4666 
L 4325 0 
L 3669 0 
L 3244 1197 
L 1141 1197 
L 716 0 
L 50 0 
L 1831 4666 
z
" transform="scale(0.015625)"/>
      <path id="DejaVuSans-36" d="M 2113 2584 
Q 1688 2584 1439 2293 
Q 1191 2003 1191 1497 
Q 1191 994 1439 701 
Q 1688 409 2113 409 
Q 2538 409 2786 701 
Q 3034 994 3034 1497 
Q 3034 2003 2786 2293 
Q 2538 2584 2113 2584 
z
M 3366 4563 
L 3366 3988 
Q 3128 4100 2886 4159 
Q 2644 4219 2406 4219 
Q 1781 4219 1451 3797 
Q 1122 3375 1075 2522 
Q 1259 2794 1537 2939 
Q 1816 3084 2150 3084 
Q 2853 3084 3261 2657 
Q 3669 2231 3669 1497 
Q 3669 778 3244 343 
Q 2819 -91 2113 -91 
Q 1303 -91 875 529 
Q 447 1150 447 2328 
Q 447 3434 972 4092 
Q 1497 4750 2381 4750 
Q 2619 4750 2861 4703 
Q 3103 4656 3366 4563 
z
" transform="scale(0.015625)"/>
      <path id="DejaVuSans-2b" d="M 2944 4013 
L 2944 2272 
L 4684 2272 
L 4684 1741 
L 2944 1741 
L 2944 0 
L 2419 0 
L 2419 1741 
L 678 1741 
L 678 2272 
L 2419 2272 
L 2419 4013 
L 2944 4013 
z
" transform="scale(0.015625)"/>
     </defs>
     <use xlink:href="#DejaVuSans-50"/>
     <use xlink:href="#DejaVuSans-65" transform="translate(56.677734 0)"/>
     <use xlink:href="#DejaVuSans-61" transform="translate(118.201172 0)"/>
     <use xlink:href="#DejaVuSans-6b" transform="translate(179.480469 0)"/>
     <use xlink:href="#DejaVuSans-3a" transform="translate(237.390625 0)"/>
     <use xlink:href="#DejaVuSans-20" transform="translate(271.082031 0)"/>
     <use xlink:href="#DejaVuSans-52" transform="translate(302.869141 0)"/>
     <use xlink:href="#DejaVuSans-54" transform="translate(365.101562 0)"/>
     <use xlink:href="#DejaVuSans-3d" transform="translate(426.185547 0)"/>
     <use xlink:href="#DejaVuSans-33" transform="translate(509.974609 0)"/>
     <use xlink:href="#DejaVuSans-2e" transform="translate(573.597656 0)"/>
     <use xlink:href="#DejaVuSans-31" transform="translate(605.384766 0)"/>
     <use xlink:href="#DejaVuSans-31" transform="translate(669.007812 0)"/>
     <use xlink:href="#DejaVuSans-2c" transform="translate(732.630859 0)"/>
     <use xlink:href="#DejaVuSans-20" transform="translate(764.417969 0)"/>
     <use xlink:href="#DejaVuSans-41" transform="translate(796.205078 0)"/>
     <use xlink:href="#DejaVuSans-72" transform="translate(864.613281 0)"/>
     <use xlink:href="#DejaVuSans-65" transform="translate(903.476562 0)"/>
     <use xlink:href="#DejaVuSans-61" transform="translate(965 0)"/>
     <use xlink:href="#DejaVuSans-3d" transform="translate(1026.279297 0)"/>
     <use xlink:href="#DejaVuSans-36" transform="translate(1110.068359 0)"/>
     <use xlink:href="#DejaVuSans-2e" transform="translate(1173.691406 0)"/>
     <use xlink:href="#DejaVuSans-33" transform="translate(1205.478516 0)"/>
     <use xlink:href="#DejaVuSans-35" transform="translate(1269.101562 0)"/>
     <use xlink:href="#DejaVuSans-65" transform="translate(1332.724609 0)"/>
     <use xlink:href="#DejaVuSans-2b" transform="translate(1394.248047 0)"/>
     <use xlink:href="#DejaVuSans-30" transform="translate(1478.037109 0)"/>
     <use xlink:href="#DejaVuSans-34" transform="translate(1541.660156 0)"/>
    </g>
    <!-- (89.30% of total) -->
    <g style="fill: #ff0000" transform="translate(612.436172 338.354706) scale(0.1 -0.1)">
     <defs>
      <path id="DejaVuSans-38" d="M 2034 2216 
Q 1584 2216 1326 1975 
Q 1069 1734 1069 1313 
Q 1069 891 1326 650 
Q 1584 409 2034 409 
Q 2484 409 2743 651 
Q 3003 894 3003 1313 
Q 3003 1734 2745 1975 
Q 2488 2216 2034 2216 
z
M 1403 2484 
Q 997 2584 770 2862 
Q 544 3141 544 3541 
Q 544 4100 942 4425 
Q 1341 4750 2034 4750 
Q 2731 4750 3128 4425 
Q 3525 4100 3525 3541 
Q 3525 3141 3298 2862 
Q 3072 2584 2669 2484 
Q 3125 2378 3379 2068 
Q 3634 1759 3634 1313 
Q 3634 634 3220 271 
Q 2806 -91 2034 -91 
Q 1263 -91 848 271 
Q 434 634 434 1313 
Q 434 1759 690 2068 
Q 947 2378 1403 2484 
z
M 1172 3481 
Q 1172 3119 1398 2916 
Q 1625 2713 2034 2713 
Q 2441 2713 2670 2916 
Q 2900 3119 2900 3481 
Q 2900 3844 2670 4047 
Q 2441 4250 2034 4250 
Q 1625 4250 1398 4047 
Q 1172 3844 1172 3481 
z
" transform="scale(0.015625)"/>
      <path id="DejaVuSans-39" d="M 703 97 
L 703 672 
Q 941 559 1184 500 
Q 1428 441 1663 441 
Q 2288 441 2617 861 
Q 2947 1281 2994 2138 
Q 2813 1869 2534 1725 
Q 2256 1581 1919 1581 
Q 1219 1581 811 2004 
Q 403 2428 403 3163 
Q 403 3881 828 4315 
Q 1253 4750 1959 4750 
Q 2769 4750 3195 4129 
Q 3622 3509 3622 2328 
Q 3622 1225 3098 567 
Q 2575 -91 1691 -91 
Q 1453 -91 1209 -44 
Q 966 3 703 97 
z
M 1959 2075 
Q 2384 2075 2632 2365 
Q 2881 2656 2881 3163 
Q 2881 3666 2632 3958 
Q 2384 4250 1959 4250 
Q 1534 4250 1286 3958 
Q 1038 3666 1038 3163 
Q 1038 2656 1286 2365 
Q 1534 2075 1959 2075 
z
" transform="scale(0.015625)"/>
      <path id="DejaVuSans-25" d="M 4653 2053 
Q 4381 2053 4226 1822 
Q 4072 1591 4072 1178 
Q 4072 772 4226 539 
Q 4381 306 4653 306 
Q 4919 306 5073 539 
Q 5228 772 5228 1178 
Q 5228 1588 5073 1820 
Q 4919 2053 4653 2053 
z
M 4653 2450 
Q 5147 2450 5437 2106 
Q 5728 1763 5728 1178 
Q 5728 594 5436 251 
Q 5144 -91 4653 -91 
Q 4153 -91 3862 251 
Q 3572 594 3572 1178 
Q 3572 1766 3864 2108 
Q 4156 2450 4653 2450 
z
M 1428 4353 
Q 1159 4353 1004 4120 
Q 850 3888 850 3481 
Q 850 3069 1003 2837 
Q 1156 2606 1428 2606 
Q 1700 2606 1854 2837 
Q 2009 3069 2009 3481 
Q 2009 3884 1853 4118 
Q 1697 4353 1428 4353 
z
M 4250 4750 
L 4750 4750 
L 1831 -91 
L 1331 -91 
L 4250 4750 
z
M 1428 4750 
Q 1922 4750 2215 4408 
Q 2509 4066 2509 3481 
Q 2509 2891 2217 2550 
Q 1925 2209 1428 2209 
Q 931 2209 642 2551 
Q 353 2894 353 3481 
Q 353 4063 643 4406 
Q 934 4750 1428 4750 
z
" transform="scale(0.015625)"/>
      <path id="DejaVuSans-66" d="M 2375 4863 
L 2375 4384 
L 1825 4384 
Q 1516 4384 1395 4259 
Q 1275 4134 1275 3809 
L 1275 3500 
L 2222 3500 
L 2222 3053 
L 1275 3053 
L 1275 0 
L 697 0 
L 697 3053 
L 147 3053 
L 147 3500 
L 697 3500 
L 697 3744 
Q 697 4328 969 4595 
Q 1241 4863 1831 4863 
L 2375 4863 
z
" transform="scale(0.015625)"/>
     </defs>
     <use xlink:href="#DejaVuSans-28"/>
     <use xlink:href="#DejaVuSans-38" transform="translate(39.013672 0)"/>
     <use xlink:href="#DejaVuSans-39" transform="translate(102.636719 0)"/>
     <use xlink:href="#DejaVuSans-2e" transform="translate(166.259766 0)"/>
     <use xlink:href="#DejaVuSans-33" transform="translate(198.046875 0)"/>
     <use xlink:href="#DejaVuSans-30" transform="translate(261.669922 0)"/>
     <use xlink:href="#DejaVuSans-25" transform="translate(325.292969 0)"/>
     <use xlink:href="#DejaVuSans-20" transform="translate(420.3125 0)"/>
     <use xlink:href="#DejaVuSans-6f" transform="translate(452.099609 0)"/>
     <use xlink:href="#DejaVuSans-66" transform="translate(513.28125 0)"/>
     <use xlink:href="#DejaVuSans-20" transform="translate(548.486328 0)"/>
     <use xlink:href="#DejaVuSans-74" transform="translate(580.273438 0)"/>
     <use xlink:href="#DejaVuSans-6f" transform="translate(619.482422 0)"/>
     <use xlink:href="#DejaVuSans-74" transform="translate(680.664062 0)"/>
     <use xlink:href="#DejaVuSans-61" transform="translate(719.873047 0)"/>
     <use xlink:href="#DejaVuSans-6c" transform="translate(781.152344 0)"/>
     <use xlink:href="#DejaVuSans-29" transform="translate(808.935547 0)"/>
    </g>
   </g>
   <g id="text_16">
    <!-- UV and MS Chromatograms of IrCp3L14, target m/z = 835.0303403 -->
    <g transform="translate(246.976563 20.88) scale(0.12 -0.12)">
     <defs>
      <path id="DejaVuSans-55" d="M 556 4666 
L 1191 4666 
L 1191 1831 
Q 1191 1081 1462 751 
Q 1734 422 2344 422 
Q 2950 422 3222 751 
Q 3494 1081 3494 1831 
L 3494 4666 
L 4128 4666 
L 4128 1753 
Q 4128 841 3676 375 
Q 3225 -91 2344 -91 
Q 1459 -91 1007 375 
Q 556 841 556 1753 
L 556 4666 
z
" transform="scale(0.015625)"/>
      <path id="DejaVuSans-56" d="M 1831 0 
L 50 4666 
L 709 4666 
L 2188 738 
L 3669 4666 
L 4325 4666 
L 2547 0 
L 1831 0 
z
" transform="scale(0.015625)"/>
      <path id="DejaVuSans-4d" d="M 628 4666 
L 1569 4666 
L 2759 1491 
L 3956 4666 
L 4897 4666 
L 4897 0 
L 4281 0 
L 4281 4097 
L 3078 897 
L 2444 897 
L 1241 4097 
L 1241 0 
L 628 0 
L 628 4666 
z
" transform="scale(0.015625)"/>
      <path id="DejaVuSans-53" d="M 3425 4513 
L 3425 3897 
Q 3066 4069 2747 4153 
Q 2428 4238 2131 4238 
Q 1616 4238 1336 4038 
Q 1056 3838 1056 3469 
Q 1056 3159 1242 3001 
Q 1428 2844 1947 2747 
L 2328 2669 
Q 3034 2534 3370 2195 
Q 3706 1856 3706 1288 
Q 3706 609 3251 259 
Q 2797 -91 1919 -91 
Q 1588 -91 1214 -16 
Q 841 59 441 206 
L 441 856 
Q 825 641 1194 531 
Q 1563 422 1919 422 
Q 2459 422 2753 634 
Q 3047 847 3047 1241 
Q 3047 1584 2836 1778 
Q 2625 1972 2144 2069 
L 1759 2144 
Q 1053 2284 737 2584 
Q 422 2884 422 3419 
Q 422 4038 858 4394 
Q 1294 4750 2059 4750 
Q 2388 4750 2728 4690 
Q 3069 4631 3425 4513 
z
" transform="scale(0.015625)"/>
      <path id="DejaVuSans-43" d="M 4122 4306 
L 4122 3641 
Q 3803 3938 3442 4084 
Q 3081 4231 2675 4231 
Q 1875 4231 1450 3742 
Q 1025 3253 1025 2328 
Q 1025 1406 1450 917 
Q 1875 428 2675 428 
Q 3081 428 3442 575 
Q 3803 722 4122 1019 
L 4122 359 
Q 3791 134 3420 21 
Q 3050 -91 2638 -91 
Q 1578 -91 968 557 
Q 359 1206 359 2328 
Q 359 3453 968 4101 
Q 1578 4750 2638 4750 
Q 3056 4750 3426 4639 
Q 3797 4528 4122 4306 
z
" transform="scale(0.015625)"/>
      <path id="DejaVuSans-68" d="M 3513 2113 
L 3513 0 
L 2938 0 
L 2938 2094 
Q 2938 2591 2744 2837 
Q 2550 3084 2163 3084 
Q 1697 3084 1428 2787 
Q 1159 2491 1159 1978 
L 1159 0 
L 581 0 
L 581 4863 
L 1159 4863 
L 1159 2956 
Q 1366 3272 1645 3428 
Q 1925 3584 2291 3584 
Q 2894 3584 3203 3211 
Q 3513 2838 3513 2113 
z
" transform="scale(0.015625)"/>
      <path id="DejaVuSans-67" d="M 2906 1791 
Q 2906 2416 2648 2759 
Q 2391 3103 1925 3103 
Q 1463 3103 1205 2759 
Q 947 2416 947 1791 
Q 947 1169 1205 825 
Q 1463 481 1925 481 
Q 2391 481 2648 825 
Q 2906 1169 2906 1791 
z
M 3481 434 
Q 3481 -459 3084 -895 
Q 2688 -1331 1869 -1331 
Q 1566 -1331 1297 -1286 
Q 1028 -1241 775 -1147 
L 775 -588 
Q 1028 -725 1275 -790 
Q 1522 -856 1778 -856 
Q 2344 -856 2625 -561 
Q 2906 -266 2906 331 
L 2906 616 
Q 2728 306 2450 153 
Q 2172 0 1784 0 
Q 1141 0 747 490 
Q 353 981 353 1791 
Q 353 2603 747 3093 
Q 1141 3584 1784 3584 
Q 2172 3584 2450 3431 
Q 2728 3278 2906 2969 
L 2906 3500 
L 3481 3500 
L 3481 434 
z
" transform="scale(0.015625)"/>
      <path id="DejaVuSans-70" d="M 1159 525 
L 1159 -1331 
L 581 -1331 
L 581 3500 
L 1159 3500 
L 1159 2969 
Q 1341 3281 1617 3432 
Q 1894 3584 2278 3584 
Q 2916 3584 3314 3078 
Q 3713 2572 3713 1747 
Q 3713 922 3314 415 
Q 2916 -91 2278 -91 
Q 1894 -91 1617 61 
Q 1341 213 1159 525 
z
M 3116 1747 
Q 3116 2381 2855 2742 
Q 2594 3103 2138 3103 
Q 1681 3103 1420 2742 
Q 1159 2381 1159 1747 
Q 1159 1113 1420 752 
Q 1681 391 2138 391 
Q 2594 391 2855 752 
Q 3116 1113 3116 1747 
z
" transform="scale(0.015625)"/>
      <path id="DejaVuSans-4c" d="M 628 4666 
L 1259 4666 
L 1259 531 
L 3531 531 
L 3531 0 
L 628 0 
L 628 4666 
z
" transform="scale(0.015625)"/>
      <path id="DejaVuSans-2f" d="M 1625 4666 
L 2156 4666 
L 531 -594 
L 0 -594 
L 1625 4666 
z
" transform="scale(0.015625)"/>
     </defs>
     <use xlink:href="#DejaVuSans-55"/>
     <use xlink:href="#DejaVuSans-56" transform="translate(73.193359 0)"/>
     <use xlink:href="#DejaVuSans-20" transform="translate(141.601562 0)"/>
     <use xlink:href="#DejaVuSans-61" transform="translate(173.388672 0)"/>
     <use xlink:href="#DejaVuSans-6e" transform="translate(234.667969 0)"/>
     <use xlink:href="#DejaVuSans-64" transform="translate(298.046875 0)"/>
     <use xlink:href="#DejaVuSans-20" transform="translate(361.523438 0)"/>
     <use xlink:href="#DejaVuSans-4d" transform="translate(393.310547 0)"/>
     <use xlink:href="#DejaVuSans-53" transform="translate(479.589844 0)"/>
     <use xlink:href="#DejaVuSans-20" transform="translate(543.066406 0)"/>
     <use xlink:href="#DejaVuSans-43" transform="translate(574.853516 0)"/>
     <use xlink:href="#DejaVuSans-68" transform="translate(644.677734 0)"/>
     <use xlink:href="#DejaVuSans-72" transform="translate(708.056641 0)"/>
     <use xlink:href="#DejaVuSans-6f" transform="translate(746.919922 0)"/>
     <use xlink:href="#DejaVuSans-6d" transform="translate(808.101562 0)"/>
     <use xlink:href="#DejaVuSans-61" transform="translate(905.513672 0)"/>
     <use xlink:href="#DejaVuSans-74" transform="translate(966.792969 0)"/>
     <use xlink:href="#DejaVuSans-6f" transform="translate(1006.001953 0)"/>
     <use xlink:href="#DejaVuSans-67" transform="translate(1067.183594 0)"/>
     <use xlink:href="#DejaVuSans-72" transform="translate(1130.660156 0)"/>
     <use xlink:href="#DejaVuSans-61" transform="translate(1171.773438 0)"/>
     <use xlink:href="#DejaVuSans-6d" transform="translate(1233.052734 0)"/>
     <use xlink:href="#DejaVuSans-73" transform="translate(1330.464844 0)"/>
     <use xlink:href="#DejaVuSans-20" transform="translate(1382.564453 0)"/>
     <use xlink:href="#DejaVuSans-6f" transform="translate(1414.351562 0)"/>
     <use xlink:href="#DejaVuSans-66" transform="translate(1475.533203 0)"/>
     <use xlink:href="#DejaVuSans-20" transform="translate(1510.738281 0)"/>
     <use xlink:href="#DejaVuSans-49" transform="translate(1542.525391 0)"/>
     <use xlink:href="#DejaVuSans-72" transform="translate(1572.017578 0)"/>
     <use xlink:href="#DejaVuSans-43" transform="translate(1613.130859 0)"/>
     <use xlink:href="#DejaVuSans-70" transform="translate(1682.955078 0)"/>
     <use xlink:href="#DejaVuSans-33" transform="translate(1746.431641 0)"/>
     <use xlink:href="#DejaVuSans-4c" transform="translate(1810.054688 0)"/>
     <use xlink:href="#DejaVuSans-31" transform="translate(1865.767578 0)"/>
     <use xlink:href="#DejaVuSans-34" transform="translate(1929.390625 0)"/>
     <use xlink:href="#DejaVuSans-2c" transform="translate(1993.013672 0)"/>
     <use xlink:href="#DejaVuSans-20" transform="translate(2024.800781 0)"/>
     <use xlink:href="#DejaVuSans-74" transform="translate(2056.587891 0)"/>
     <use xlink:href="#DejaVuSans-61" transform="translate(2095.796875 0)"/>
     <use xlink:href="#DejaVuSans-72" transform="translate(2157.076172 0)"/>
     <use xlink:href="#DejaVuSans-67" transform="translate(2196.439453 0)"/>
     <use xlink:href="#DejaVuSans-65" transform="translate(2259.916016 0)"/>
     <use xlink:href="#DejaVuSans-74" transform="translate(2321.439453 0)"/>
     <use xlink:href="#DejaVuSans-20" transform="translate(2360.648438 0)"/>
     <use xlink:href="#DejaVuSans-6d" transform="translate(2392.435547 0)"/>
     <use xlink:href="#DejaVuSans-2f" transform="translate(2489.847656 0)"/>
     <use xlink:href="#DejaVuSans-7a" transform="translate(2523.539062 0)"/>
     <use xlink:href="#DejaVuSans-20" transform="translate(2576.029297 0)"/>
     <use xlink:href="#DejaVuSans-3d" transform="translate(2607.816406 0)"/>
     <use xlink:href="#DejaVuSans-20" transform="translate(2691.605469 0)"/>
     <use xlink:href="#DejaVuSans-38" transform="translate(2723.392578 0)"/>
     <use xlink:href="#DejaVuSans-33" transform="translate(2787.015625 0)"/>
     <use xlink:href="#DejaVuSans-35" transform="translate(2850.638672 0)"/>
     <use xlink:href="#DejaVuSans-2e" transform="translate(2914.261719 0)"/>
     <use xlink:href="#DejaVuSans-30" transform="translate(2946.048828 0)"/>
     <use xlink:href="#DejaVuSans-33" transform="translate(3009.671875 0)"/>
     <use xlink:href="#DejaVuSans-30" transform="translate(3073.294922 0)"/>
     <use xlink:href="#DejaVuSans-33" transform="translate(3136.917969 0)"/>
     <use xlink:href="#DejaVuSans-34" transform="translate(3200.541016 0)"/>
     <use xlink:href="#DejaVuSans-30" transform="translate(3264.164062 0)"/>
     <use xlink:href="#DejaVuSans-33" transform="translate(3327.787109 0)"/>
    </g>
   </g>
   <g id="legend_1">
    <g id="patch_8">
     <path d="M 685.971875 64.23625 
L 846.2 64.23625 
Q 848.2 64.23625 848.2 62.23625 
L 848.2 33.88 
Q 848.2 31.88 846.2 31.88 
L 685.971875 31.88 
Q 683.971875 31.88 683.971875 33.88 
L 683.971875 62.23625 
Q 683.971875 64.23625 685.971875 64.23625 
z
" style="fill: #ffffff; opacity: 0.8; stroke: #cccccc; stroke-linejoin: miter"/>
    </g>
    <g id="line2d_15">
     <path d="M 687.971875 39.978437 
L 697.971875 39.978437 
L 707.971875 39.978437 
" style="fill: none; stroke: #0000ff; stroke-width: 1.5; stroke-linecap: square"/>
    </g>
    <g id="text_17">
     <!-- UV Intensity (normalized) -->
     <g transform="translate(715.971875 43.478437) scale(0.1 -0.1)">
      <use xlink:href="#DejaVuSans-55"/>
      <use xlink:href="#DejaVuSans-56" transform="translate(73.193359 0)"/>
      <use xlink:href="#DejaVuSans-20" transform="translate(141.601562 0)"/>
      <use xlink:href="#DejaVuSans-49" transform="translate(173.388672 0)"/>
      <use xlink:href="#DejaVuSans-6e" transform="translate(202.880859 0)"/>
      <use xlink:href="#DejaVuSans-74" transform="translate(266.259766 0)"/>
      <use xlink:href="#DejaVuSans-65" transform="translate(305.46875 0)"/>
      <use xlink:href="#DejaVuSans-6e" transform="translate(366.992188 0)"/>
      <use xlink:href="#DejaVuSans-73" transform="translate(430.371094 0)"/>
      <use xlink:href="#DejaVuSans-69" transform="translate(482.470703 0)"/>
      <use xlink:href="#DejaVuSans-74" transform="translate(510.253906 0)"/>
      <use xlink:href="#DejaVuSans-79" transform="translate(549.462891 0)"/>
      <use xlink:href="#DejaVuSans-20" transform="translate(608.642578 0)"/>
      <use xlink:href="#DejaVuSans-28" transform="translate(640.429688 0)"/>
      <use xlink:href="#DejaVuSans-6e" transform="translate(679.443359 0)"/>
      <use xlink:href="#DejaVuSans-6f" transform="translate(742.822266 0)"/>
      <use xlink:href="#DejaVuSans-72" transform="translate(804.003906 0)"/>
      <use xlink:href="#DejaVuSans-6d" transform="translate(843.367188 0)"/>
      <use xlink:href="#DejaVuSans-61" transform="translate(940.779297 0)"/>
      <use xlink:href="#DejaVuSans-6c" transform="translate(1002.058594 0)"/>
      <use xlink:href="#DejaVuSans-69" transform="translate(1029.841797 0)"/>
      <use xlink:href="#DejaVuSans-7a" transform="translate(1057.625 0)"/>
      <use xlink:href="#DejaVuSans-65" transform="translate(1110.115234 0)"/>
      <use xlink:href="#DejaVuSans-64" transform="translate(1171.638672 0)"/>
      <use xlink:href="#DejaVuSans-29" transform="translate(1235.115234 0)"/>
     </g>
    </g>
    <g id="line2d_16">
     <path d="M 687.971875 54.656562 
L 697.971875 54.656562 
L 707.971875 54.656562 
" style="fill: none; stroke: #008000; stroke-width: 1.5; stroke-linecap: square"/>
    </g>
    <g id="text_18">
     <!-- MS Intensity (normalized) -->
     <g transform="translate(715.971875 58.156562) scale(0.1 -0.1)">
      <use xlink:href="#DejaVuSans-4d"/>
      <use xlink:href="#DejaVuSans-53" transform="translate(86.279297 0)"/>
      <use xlink:href="#DejaVuSans-20" transform="translate(149.755859 0)"/>
      <use xlink:href="#DejaVuSans-49" transform="translate(181.542969 0)"/>
      <use xlink:href="#DejaVuSans-6e" transform="translate(211.035156 0)"/>
      <use xlink:href="#DejaVuSans-74" transform="translate(274.414062 0)"/>
      <use xlink:href="#DejaVuSans-65" transform="translate(313.623047 0)"/>
      <use xlink:href="#DejaVuSans-6e" transform="translate(375.146484 0)"/>
      <use xlink:href="#DejaVuSans-73" transform="translate(438.525391 0)"/>
      <use xlink:href="#DejaVuSans-69" transform="translate(490.625 0)"/>
      <use xlink:href="#DejaVuSans-74" transform="translate(518.408203 0)"/>
      <use xlink:href="#DejaVuSans-79" transform="translate(557.617188 0)"/>
      <use xlink:href="#DejaVuSans-20" transform="translate(616.796875 0)"/>
      <use xlink:href="#DejaVuSans-28" transform="translate(648.583984 0)"/>
      <use xlink:href="#DejaVuSans-6e" transform="translate(687.597656 0)"/>
      <use xlink:href="#DejaVuSans-6f" transform="translate(750.976562 0)"/>
      <use xlink:href="#DejaVuSans-72" transform="translate(812.158203 0)"/>
      <use xlink:href="#DejaVuSans-6d" transform="translate(851.521484 0)"/>
      <use xlink:href="#DejaVuSans-61" transform="translate(948.933594 0)"/>
      <use xlink:href="#DejaVuSans-6c" transform="translate(1010.212891 0)"/>
      <use xlink:href="#DejaVuSans-69" transform="translate(1037.996094 0)"/>
      <use xlink:href="#DejaVuSans-7a" transform="translate(1065.779297 0)"/>
      <use xlink:href="#DejaVuSans-65" transform="translate(1118.269531 0)"/>
      <use xlink:href="#DejaVuSans-64" transform="translate(1179.792969 0)"/>
      <use xlink:href="#DejaVuSans-29" transform="translate(1243.269531 0)"/>
     </g>
    </g>
   </g>
  </g>
 </g>
 <defs>
  <clipPath id="p4c0febc3fb">
   <rect x="47.72" y="26.88" width="805.48" height="507.16"/>
  </clipPath>
 </defs>
</svg>
