<?xml version="1.0" encoding="utf-8" standalone="no"?>
<!DOCTYPE svg PUBLIC "-//W3C//DTD SVG 1.1//EN"
  "http://www.w3.org/Graphics/SVG/1.1/DTD/svg11.dtd">
<svg xmlns:xlink="http://www.w3.org/1999/xlink" width="864pt" height="576pt" viewBox="0 0 864 576" xmlns="http://www.w3.org/2000/svg" version="1.1">
 <metadata>
  <rdf:RDF xmlns:dc="http://purl.org/dc/elements/1.1/" xmlns:cc="http://creativecommons.org/ns#" xmlns:rdf="http://www.w3.org/1999/02/22-rdf-syntax-ns#">
   <cc:Work>
    <dc:type rdf:resource="http://purl.org/dc/dcmitype/StillImage"/>
    <dc:date>2025-02-25T11:11:40.458289</dc:date>
    <dc:format>image/svg+xml</dc:format>
    <dc:creator>
     <cc:Agent>
      <dc:title>Matplotlib v3.10.0, https://matplotlib.org/</dc:title>
     </cc:Agent>
    </dc:creator>
   </cc:Work>
  </rdf:RDF>
 </metadata>
 <defs>
  <style type="text/css">*{stroke-linejoin: round; stroke-linecap: butt}</style>
 </defs>
 <g id="figure_1">
  <g id="patch_1">
   <path d="M 0 576 
L 864 576 
L 864 0 
L 0 0 
z
" style="fill: #ffffff"/>
  </g>
  <g id="axes_1">
   <g id="patch_2">
    <path d="M 47.72 534.04 
L 853.2 534.04 
L 853.2 26.88 
L 47.72 26.88 
z
" style="fill: #ffffff"/>
   </g>
   <g id="matplotlib.axis_1">
    <g id="xtick_1">
     <g id="line2d_1">
      <defs>
       <path id="md427030408" d="M 0 0 
L 0 3.5 
" style="stroke: #000000; stroke-width: 0.8"/>
      </defs>
      <g>
       <use xlink:href="#md427030408" x="83.098041" y="534.04" style="stroke: #000000; stroke-width: 0.8"/>
      </g>
     </g>
     <g id="text_1">
      <!-- 0 -->
      <g transform="translate(79.916791 548.638438) scale(0.1 -0.1)">
       <defs>
        <path id="DejaVuSans-30" d="M 2034 4250 
Q 1547 4250 1301 3770 
Q 1056 3291 1056 2328 
Q 1056 1369 1301 889 
Q 1547 409 2034 409 
Q 2525 409 2770 889 
Q 3016 1369 3016 2328 
Q 3016 3291 2770 3770 
Q 2525 4250 2034 4250 
z
M 2034 4750 
Q 2819 4750 3233 4129 
Q 3647 3509 3647 2328 
Q 3647 1150 3233 529 
Q 2819 -91 2034 -91 
Q 1250 -91 836 529 
Q 422 1150 422 2328 
Q 422 3509 836 4129 
Q 1250 4750 2034 4750 
z
" transform="scale(0.015625)"/>
       </defs>
       <use xlink:href="#DejaVuSans-30"/>
      </g>
     </g>
    </g>
    <g id="xtick_2">
     <g id="line2d_2">
      <g>
       <use xlink:href="#md427030408" x="229.793442" y="534.04" style="stroke: #000000; stroke-width: 0.8"/>
      </g>
     </g>
     <g id="text_2">
      <!-- 1 -->
      <g transform="translate(226.612192 548.638438) scale(0.1 -0.1)">
       <defs>
        <path id="DejaVuSans-31" d="M 794 531 
L 1825 531 
L 1825 4091 
L 703 3866 
L 703 4441 
L 1819 4666 
L 2450 4666 
L 2450 531 
L 3481 531 
L 3481 0 
L 794 0 
L 794 531 
z
" transform="scale(0.015625)"/>
       </defs>
       <use xlink:href="#DejaVuSans-31"/>
      </g>
     </g>
    </g>
    <g id="xtick_3">
     <g id="line2d_3">
      <g>
       <use xlink:href="#md427030408" x="376.488844" y="534.04" style="stroke: #000000; stroke-width: 0.8"/>
      </g>
     </g>
     <g id="text_3">
      <!-- 2 -->
      <g transform="translate(373.307594 548.638438) scale(0.1 -0.1)">
       <defs>
        <path id="DejaVuSans-32" d="M 1228 531 
L 3431 531 
L 3431 0 
L 469 0 
L 469 531 
Q 828 903 1448 1529 
Q 2069 2156 2228 2338 
Q 2531 2678 2651 2914 
Q 2772 3150 2772 3378 
Q 2772 3750 2511 3984 
Q 2250 4219 1831 4219 
Q 1534 4219 1204 4116 
Q 875 4013 500 3803 
L 500 4441 
Q 881 4594 1212 4672 
Q 1544 4750 1819 4750 
Q 2544 4750 2975 4387 
Q 3406 4025 3406 3419 
Q 3406 3131 3298 2873 
Q 3191 2616 2906 2266 
Q 2828 2175 2409 1742 
Q 1991 1309 1228 531 
z
" transform="scale(0.015625)"/>
       </defs>
       <use xlink:href="#DejaVuSans-32"/>
      </g>
     </g>
    </g>
    <g id="xtick_4">
     <g id="line2d_4">
      <g>
       <use xlink:href="#md427030408" x="523.184245" y="534.04" style="stroke: #000000; stroke-width: 0.8"/>
      </g>
     </g>
     <g id="text_4">
      <!-- 3 -->
      <g transform="translate(520.002995 548.638438) scale(0.1 -0.1)">
       <defs>
        <path id="DejaVuSans-33" d="M 2597 2516 
Q 3050 2419 3304 2112 
Q 3559 1806 3559 1356 
Q 3559 666 3084 287 
Q 2609 -91 1734 -91 
Q 1441 -91 1130 -33 
Q 819 25 488 141 
L 488 750 
Q 750 597 1062 519 
Q 1375 441 1716 441 
Q 2309 441 2620 675 
Q 2931 909 2931 1356 
Q 2931 1769 2642 2001 
Q 2353 2234 1838 2234 
L 1294 2234 
L 1294 2753 
L 1863 2753 
Q 2328 2753 2575 2939 
Q 2822 3125 2822 3475 
Q 2822 3834 2567 4026 
Q 2313 4219 1838 4219 
Q 1578 4219 1281 4162 
Q 984 4106 628 3988 
L 628 4550 
Q 988 4650 1302 4700 
Q 1616 4750 1894 4750 
Q 2613 4750 3031 4423 
Q 3450 4097 3450 3541 
Q 3450 3153 3228 2886 
Q 3006 2619 2597 2516 
z
" transform="scale(0.015625)"/>
       </defs>
       <use xlink:href="#DejaVuSans-33"/>
      </g>
     </g>
    </g>
    <g id="xtick_5">
     <g id="line2d_5">
      <g>
       <use xlink:href="#md427030408" x="669.879647" y="534.04" style="stroke: #000000; stroke-width: 0.8"/>
      </g>
     </g>
     <g id="text_5">
      <!-- 4 -->
      <g transform="translate(666.698397 548.638438) scale(0.1 -0.1)">
       <defs>
        <path id="DejaVuSans-34" d="M 2419 4116 
L 825 1625 
L 2419 1625 
L 2419 4116 
z
M 2253 4666 
L 3047 4666 
L 3047 1625 
L 3713 1625 
L 3713 1100 
L 3047 1100 
L 3047 0 
L 2419 0 
L 2419 1100 
L 313 1100 
L 313 1709 
L 2253 4666 
z
" transform="scale(0.015625)"/>
       </defs>
       <use xlink:href="#DejaVuSans-34"/>
      </g>
     </g>
    </g>
    <g id="xtick_6">
     <g id="line2d_6">
      <g>
       <use xlink:href="#md427030408" x="816.575048" y="534.04" style="stroke: #000000; stroke-width: 0.8"/>
      </g>
     </g>
     <g id="text_6">
      <!-- 5 -->
      <g transform="translate(813.393798 548.638438) scale(0.1 -0.1)">
       <defs>
        <path id="DejaVuSans-35" d="M 691 4666 
L 3169 4666 
L 3169 4134 
L 1269 4134 
L 1269 2991 
Q 1406 3038 1543 3061 
Q 1681 3084 1819 3084 
Q 2600 3084 3056 2656 
Q 3513 2228 3513 1497 
Q 3513 744 3044 326 
Q 2575 -91 1722 -91 
Q 1428 -91 1123 -41 
Q 819 9 494 109 
L 494 744 
Q 775 591 1075 516 
Q 1375 441 1709 441 
Q 2250 441 2565 725 
Q 2881 1009 2881 1497 
Q 2881 1984 2565 2268 
Q 2250 2553 1709 2553 
Q 1456 2553 1204 2497 
Q 953 2441 691 2322 
L 691 4666 
z
" transform="scale(0.015625)"/>
       </defs>
       <use xlink:href="#DejaVuSans-35"/>
      </g>
     </g>
    </g>
    <g id="text_7">
     <!-- Retention Time (min) -->
     <g transform="translate(397.61 562.316562) scale(0.1 -0.1)">
      <defs>
       <path id="DejaVuSans-52" d="M 2841 2188 
Q 3044 2119 3236 1894 
Q 3428 1669 3622 1275 
L 4263 0 
L 3584 0 
L 2988 1197 
Q 2756 1666 2539 1819 
Q 2322 1972 1947 1972 
L 1259 1972 
L 1259 0 
L 628 0 
L 628 4666 
L 2053 4666 
Q 2853 4666 3247 4331 
Q 3641 3997 3641 3322 
Q 3641 2881 3436 2590 
Q 3231 2300 2841 2188 
z
M 1259 4147 
L 1259 2491 
L 2053 2491 
Q 2509 2491 2742 2702 
Q 2975 2913 2975 3322 
Q 2975 3731 2742 3939 
Q 2509 4147 2053 4147 
L 1259 4147 
z
" transform="scale(0.015625)"/>
       <path id="DejaVuSans-65" d="M 3597 1894 
L 3597 1613 
L 953 1613 
Q 991 1019 1311 708 
Q 1631 397 2203 397 
Q 2534 397 2845 478 
Q 3156 559 3463 722 
L 3463 178 
Q 3153 47 2828 -22 
Q 2503 -91 2169 -91 
Q 1331 -91 842 396 
Q 353 884 353 1716 
Q 353 2575 817 3079 
Q 1281 3584 2069 3584 
Q 2775 3584 3186 3129 
Q 3597 2675 3597 1894 
z
M 3022 2063 
Q 3016 2534 2758 2815 
Q 2500 3097 2075 3097 
Q 1594 3097 1305 2825 
Q 1016 2553 972 2059 
L 3022 2063 
z
" transform="scale(0.015625)"/>
       <path id="DejaVuSans-74" d="M 1172 4494 
L 1172 3500 
L 2356 3500 
L 2356 3053 
L 1172 3053 
L 1172 1153 
Q 1172 725 1289 603 
Q 1406 481 1766 481 
L 2356 481 
L 2356 0 
L 1766 0 
Q 1100 0 847 248 
Q 594 497 594 1153 
L 594 3053 
L 172 3053 
L 172 3500 
L 594 3500 
L 594 4494 
L 1172 4494 
z
" transform="scale(0.015625)"/>
       <path id="DejaVuSans-6e" d="M 3513 2113 
L 3513 0 
L 2938 0 
L 2938 2094 
Q 2938 2591 2744 2837 
Q 2550 3084 2163 3084 
Q 1697 3084 1428 2787 
Q 1159 2491 1159 1978 
L 1159 0 
L 581 0 
L 581 3500 
L 1159 3500 
L 1159 2956 
Q 1366 3272 1645 3428 
Q 1925 3584 2291 3584 
Q 2894 3584 3203 3211 
Q 3513 2838 3513 2113 
z
" transform="scale(0.015625)"/>
       <path id="DejaVuSans-69" d="M 603 3500 
L 1178 3500 
L 1178 0 
L 603 0 
L 603 3500 
z
M 603 4863 
L 1178 4863 
L 1178 4134 
L 603 4134 
L 603 4863 
z
" transform="scale(0.015625)"/>
       <path id="DejaVuSans-6f" d="M 1959 3097 
Q 1497 3097 1228 2736 
Q 959 2375 959 1747 
Q 959 1119 1226 758 
Q 1494 397 1959 397 
Q 2419 397 2687 759 
Q 2956 1122 2956 1747 
Q 2956 2369 2687 2733 
Q 2419 3097 1959 3097 
z
M 1959 3584 
Q 2709 3584 3137 3096 
Q 3566 2609 3566 1747 
Q 3566 888 3137 398 
Q 2709 -91 1959 -91 
Q 1206 -91 779 398 
Q 353 888 353 1747 
Q 353 2609 779 3096 
Q 1206 3584 1959 3584 
z
" transform="scale(0.015625)"/>
       <path id="DejaVuSans-20" transform="scale(0.015625)"/>
       <path id="DejaVuSans-54" d="M -19 4666 
L 3928 4666 
L 3928 4134 
L 2272 4134 
L 2272 0 
L 1638 0 
L 1638 4134 
L -19 4134 
L -19 4666 
z
" transform="scale(0.015625)"/>
       <path id="DejaVuSans-6d" d="M 3328 2828 
Q 3544 3216 3844 3400 
Q 4144 3584 4550 3584 
Q 5097 3584 5394 3201 
Q 5691 2819 5691 2113 
L 5691 0 
L 5113 0 
L 5113 2094 
Q 5113 2597 4934 2840 
Q 4756 3084 4391 3084 
Q 3944 3084 3684 2787 
Q 3425 2491 3425 1978 
L 3425 0 
L 2847 0 
L 2847 2094 
Q 2847 2600 2669 2842 
Q 2491 3084 2119 3084 
Q 1678 3084 1418 2786 
Q 1159 2488 1159 1978 
L 1159 0 
L 581 0 
L 581 3500 
L 1159 3500 
L 1159 2956 
Q 1356 3278 1631 3431 
Q 1906 3584 2284 3584 
Q 2666 3584 2933 3390 
Q 3200 3197 3328 2828 
z
" transform="scale(0.015625)"/>
       <path id="DejaVuSans-28" d="M 1984 4856 
Q 1566 4138 1362 3434 
Q 1159 2731 1159 2009 
Q 1159 1288 1364 580 
Q 1569 -128 1984 -844 
L 1484 -844 
Q 1016 -109 783 600 
Q 550 1309 550 2009 
Q 550 2706 781 3412 
Q 1013 4119 1484 4856 
L 1984 4856 
z
" transform="scale(0.015625)"/>
       <path id="DejaVuSans-29" d="M 513 4856 
L 1013 4856 
Q 1481 4119 1714 3412 
Q 1947 2706 1947 2009 
Q 1947 1309 1714 600 
Q 1481 -109 1013 -844 
L 513 -844 
Q 928 -128 1133 580 
Q 1338 1288 1338 2009 
Q 1338 2731 1133 3434 
Q 928 4138 513 4856 
z
" transform="scale(0.015625)"/>
      </defs>
      <use xlink:href="#DejaVuSans-52"/>
      <use xlink:href="#DejaVuSans-65" transform="translate(64.982422 0)"/>
      <use xlink:href="#DejaVuSans-74" transform="translate(126.505859 0)"/>
      <use xlink:href="#DejaVuSans-65" transform="translate(165.714844 0)"/>
      <use xlink:href="#DejaVuSans-6e" transform="translate(227.238281 0)"/>
      <use xlink:href="#DejaVuSans-74" transform="translate(290.617188 0)"/>
      <use xlink:href="#DejaVuSans-69" transform="translate(329.826172 0)"/>
      <use xlink:href="#DejaVuSans-6f" transform="translate(357.609375 0)"/>
      <use xlink:href="#DejaVuSans-6e" transform="translate(418.791016 0)"/>
      <use xlink:href="#DejaVuSans-20" transform="translate(482.169922 0)"/>
      <use xlink:href="#DejaVuSans-54" transform="translate(513.957031 0)"/>
      <use xlink:href="#DejaVuSans-69" transform="translate(571.916016 0)"/>
      <use xlink:href="#DejaVuSans-6d" transform="translate(599.699219 0)"/>
      <use xlink:href="#DejaVuSans-65" transform="translate(697.111328 0)"/>
      <use xlink:href="#DejaVuSans-20" transform="translate(758.634766 0)"/>
      <use xlink:href="#DejaVuSans-28" transform="translate(790.421875 0)"/>
      <use xlink:href="#DejaVuSans-6d" transform="translate(829.435547 0)"/>
      <use xlink:href="#DejaVuSans-69" transform="translate(926.847656 0)"/>
      <use xlink:href="#DejaVuSans-6e" transform="translate(954.630859 0)"/>
      <use xlink:href="#DejaVuSans-29" transform="translate(1018.009766 0)"/>
     </g>
    </g>
   </g>
   <g id="matplotlib.axis_2">
    <g id="ytick_1">
     <g id="line2d_7">
      <defs>
       <path id="m1ff78dd775" d="M 0 0 
L -3.5 0 
" style="stroke: #000000; stroke-width: 0.8"/>
      </defs>
      <g>
       <use xlink:href="#m1ff78dd775" x="47.72" y="510.644388" style="stroke: #000000; stroke-width: 0.8"/>
      </g>
     </g>
     <g id="text_8">
      <!-- 0.0 -->
      <g style="fill: #0000ff" transform="translate(24.816875 514.443607) scale(0.1 -0.1)">
       <defs>
        <path id="DejaVuSans-2e" d="M 684 794 
L 1344 794 
L 1344 0 
L 684 0 
L 684 794 
z
" transform="scale(0.015625)"/>
       </defs>
       <use xlink:href="#DejaVuSans-30"/>
       <use xlink:href="#DejaVuSans-2e" transform="translate(63.623047 0)"/>
       <use xlink:href="#DejaVuSans-30" transform="translate(95.410156 0)"/>
      </g>
     </g>
    </g>
    <g id="ytick_2">
     <g id="line2d_8">
      <g>
       <use xlink:href="#m1ff78dd775" x="47.72" y="418.502056" style="stroke: #000000; stroke-width: 0.8"/>
      </g>
     </g>
     <g id="text_9">
      <!-- 0.5 -->
      <g style="fill: #0000ff" transform="translate(24.816875 422.301275) scale(0.1 -0.1)">
       <use xlink:href="#DejaVuSans-30"/>
       <use xlink:href="#DejaVuSans-2e" transform="translate(63.623047 0)"/>
       <use xlink:href="#DejaVuSans-35" transform="translate(95.410156 0)"/>
      </g>
     </g>
    </g>
    <g id="ytick_3">
     <g id="line2d_9">
      <g>
       <use xlink:href="#m1ff78dd775" x="47.72" y="326.359724" style="stroke: #000000; stroke-width: 0.8"/>
      </g>
     </g>
     <g id="text_10">
      <!-- 1.0 -->
      <g style="fill: #0000ff" transform="translate(24.816875 330.158943) scale(0.1 -0.1)">
       <use xlink:href="#DejaVuSans-31"/>
       <use xlink:href="#DejaVuSans-2e" transform="translate(63.623047 0)"/>
       <use xlink:href="#DejaVuSans-30" transform="translate(95.410156 0)"/>
      </g>
     </g>
    </g>
    <g id="ytick_4">
     <g id="line2d_10">
      <g>
       <use xlink:href="#m1ff78dd775" x="47.72" y="234.217392" style="stroke: #000000; stroke-width: 0.8"/>
      </g>
     </g>
     <g id="text_11">
      <!-- 1.5 -->
      <g style="fill: #0000ff" transform="translate(24.816875 238.01661) scale(0.1 -0.1)">
       <use xlink:href="#DejaVuSans-31"/>
       <use xlink:href="#DejaVuSans-2e" transform="translate(63.623047 0)"/>
       <use xlink:href="#DejaVuSans-35" transform="translate(95.410156 0)"/>
      </g>
     </g>
    </g>
    <g id="ytick_5">
     <g id="line2d_11">
      <g>
       <use xlink:href="#m1ff78dd775" x="47.72" y="142.075059" style="stroke: #000000; stroke-width: 0.8"/>
      </g>
     </g>
     <g id="text_12">
      <!-- 2.0 -->
      <g style="fill: #0000ff" transform="translate(24.816875 145.874278) scale(0.1 -0.1)">
       <use xlink:href="#DejaVuSans-32"/>
       <use xlink:href="#DejaVuSans-2e" transform="translate(63.623047 0)"/>
       <use xlink:href="#DejaVuSans-30" transform="translate(95.410156 0)"/>
      </g>
     </g>
    </g>
    <g id="ytick_6">
     <g id="line2d_12">
      <g>
       <use xlink:href="#m1ff78dd775" x="47.72" y="49.932727" style="stroke: #000000; stroke-width: 0.8"/>
      </g>
     </g>
     <g id="text_13">
      <!-- 2.5 -->
      <g style="fill: #0000ff" transform="translate(24.816875 53.731946) scale(0.1 -0.1)">
       <use xlink:href="#DejaVuSans-32"/>
       <use xlink:href="#DejaVuSans-2e" transform="translate(63.623047 0)"/>
       <use xlink:href="#DejaVuSans-35" transform="translate(95.410156 0)"/>
      </g>
     </g>
    </g>
    <g id="text_14">
     <!-- Normalized Intensity -->
     <g style="fill: #0000ff" transform="translate(18.737187 332.167031) rotate(-90) scale(0.1 -0.1)">
      <defs>
       <path id="DejaVuSans-4e" d="M 628 4666 
L 1478 4666 
L 3547 763 
L 3547 4666 
L 4159 4666 
L 4159 0 
L 3309 0 
L 1241 3903 
L 1241 0 
L 628 0 
L 628 4666 
z
" transform="scale(0.015625)"/>
       <path id="DejaVuSans-72" d="M 2631 2963 
Q 2534 3019 2420 3045 
Q 2306 3072 2169 3072 
Q 1681 3072 1420 2755 
Q 1159 2438 1159 1844 
L 1159 0 
L 581 0 
L 581 3500 
L 1159 3500 
L 1159 2956 
Q 1341 3275 1631 3429 
Q 1922 3584 2338 3584 
Q 2397 3584 2469 3576 
Q 2541 3569 2628 3553 
L 2631 2963 
z
" transform="scale(0.015625)"/>
       <path id="DejaVuSans-61" d="M 2194 1759 
Q 1497 1759 1228 1600 
Q 959 1441 959 1056 
Q 959 750 1161 570 
Q 1363 391 1709 391 
Q 2188 391 2477 730 
Q 2766 1069 2766 1631 
L 2766 1759 
L 2194 1759 
z
M 3341 1997 
L 3341 0 
L 2766 0 
L 2766 531 
Q 2569 213 2275 61 
Q 1981 -91 1556 -91 
Q 1019 -91 701 211 
Q 384 513 384 1019 
Q 384 1609 779 1909 
Q 1175 2209 1959 2209 
L 2766 2209 
L 2766 2266 
Q 2766 2663 2505 2880 
Q 2244 3097 1772 3097 
Q 1472 3097 1187 3025 
Q 903 2953 641 2809 
L 641 3341 
Q 956 3463 1253 3523 
Q 1550 3584 1831 3584 
Q 2591 3584 2966 3190 
Q 3341 2797 3341 1997 
z
" transform="scale(0.015625)"/>
       <path id="DejaVuSans-6c" d="M 603 4863 
L 1178 4863 
L 1178 0 
L 603 0 
L 603 4863 
z
" transform="scale(0.015625)"/>
       <path id="DejaVuSans-7a" d="M 353 3500 
L 3084 3500 
L 3084 2975 
L 922 459 
L 3084 459 
L 3084 0 
L 275 0 
L 275 525 
L 2438 3041 
L 353 3041 
L 353 3500 
z
" transform="scale(0.015625)"/>
       <path id="DejaVuSans-64" d="M 2906 2969 
L 2906 4863 
L 3481 4863 
L 3481 0 
L 2906 0 
L 2906 525 
Q 2725 213 2448 61 
Q 2172 -91 1784 -91 
Q 1150 -91 751 415 
Q 353 922 353 1747 
Q 353 2572 751 3078 
Q 1150 3584 1784 3584 
Q 2172 3584 2448 3432 
Q 2725 3281 2906 2969 
z
M 947 1747 
Q 947 1113 1208 752 
Q 1469 391 1925 391 
Q 2381 391 2643 752 
Q 2906 1113 2906 1747 
Q 2906 2381 2643 2742 
Q 2381 3103 1925 3103 
Q 1469 3103 1208 2742 
Q 947 2381 947 1747 
z
" transform="scale(0.015625)"/>
       <path id="DejaVuSans-49" d="M 628 4666 
L 1259 4666 
L 1259 0 
L 628 0 
L 628 4666 
z
" transform="scale(0.015625)"/>
       <path id="DejaVuSans-73" d="M 2834 3397 
L 2834 2853 
Q 2591 2978 2328 3040 
Q 2066 3103 1784 3103 
Q 1356 3103 1142 2972 
Q 928 2841 928 2578 
Q 928 2378 1081 2264 
Q 1234 2150 1697 2047 
L 1894 2003 
Q 2506 1872 2764 1633 
Q 3022 1394 3022 966 
Q 3022 478 2636 193 
Q 2250 -91 1575 -91 
Q 1294 -91 989 -36 
Q 684 19 347 128 
L 347 722 
Q 666 556 975 473 
Q 1284 391 1588 391 
Q 1994 391 2212 530 
Q 2431 669 2431 922 
Q 2431 1156 2273 1281 
Q 2116 1406 1581 1522 
L 1381 1569 
Q 847 1681 609 1914 
Q 372 2147 372 2553 
Q 372 3047 722 3315 
Q 1072 3584 1716 3584 
Q 2034 3584 2315 3537 
Q 2597 3491 2834 3397 
z
" transform="scale(0.015625)"/>
       <path id="DejaVuSans-79" d="M 2059 -325 
Q 1816 -950 1584 -1140 
Q 1353 -1331 966 -1331 
L 506 -1331 
L 506 -850 
L 844 -850 
Q 1081 -850 1212 -737 
Q 1344 -625 1503 -206 
L 1606 56 
L 191 3500 
L 800 3500 
L 1894 763 
L 2988 3500 
L 3597 3500 
L 2059 -325 
z
" transform="scale(0.015625)"/>
      </defs>
      <use xlink:href="#DejaVuSans-4e"/>
      <use xlink:href="#DejaVuSans-6f" transform="translate(74.804688 0)"/>
      <use xlink:href="#DejaVuSans-72" transform="translate(135.986328 0)"/>
      <use xlink:href="#DejaVuSans-6d" transform="translate(175.349609 0)"/>
      <use xlink:href="#DejaVuSans-61" transform="translate(272.761719 0)"/>
      <use xlink:href="#DejaVuSans-6c" transform="translate(334.041016 0)"/>
      <use xlink:href="#DejaVuSans-69" transform="translate(361.824219 0)"/>
      <use xlink:href="#DejaVuSans-7a" transform="translate(389.607422 0)"/>
      <use xlink:href="#DejaVuSans-65" transform="translate(442.097656 0)"/>
      <use xlink:href="#DejaVuSans-64" transform="translate(503.621094 0)"/>
      <use xlink:href="#DejaVuSans-20" transform="translate(567.097656 0)"/>
      <use xlink:href="#DejaVuSans-49" transform="translate(598.884766 0)"/>
      <use xlink:href="#DejaVuSans-6e" transform="translate(628.376953 0)"/>
      <use xlink:href="#DejaVuSans-74" transform="translate(691.755859 0)"/>
      <use xlink:href="#DejaVuSans-65" transform="translate(730.964844 0)"/>
      <use xlink:href="#DejaVuSans-6e" transform="translate(792.488281 0)"/>
      <use xlink:href="#DejaVuSans-73" transform="translate(855.867188 0)"/>
      <use xlink:href="#DejaVuSans-69" transform="translate(907.966797 0)"/>
      <use xlink:href="#DejaVuSans-74" transform="translate(935.75 0)"/>
      <use xlink:href="#DejaVuSans-79" transform="translate(974.958984 0)"/>
     </g>
    </g>
   </g>
   <g id="line2d_13">
    <path d="M 84.332727 510.644388 
L 111.226884 510.716304 
L 118.561654 510.865145 
L 133.231194 510.760576 
L 136.898579 510.697355 
L 138.121041 510.577087 
L 139.343503 510.203419 
L 140.565964 509.290746 
L 141.788426 507.618429 
L 145.455811 500.765938 
L 146.678273 499.525098 
L 147.900735 499.094921 
L 149.123196 499.221166 
L 151.56812 499.928946 
L 152.790581 500.141928 
L 155.235505 500.160749 
L 158.90289 499.961059 
L 161.347813 500.135955 
L 163.792736 500.410212 
L 165.015198 500.260935 
L 166.23766 499.832424 
L 168.682583 498.690894 
L 169.905045 498.293951 
L 171.127506 498.14248 
L 172.349968 498.274681 
L 173.57243 498.686257 
L 174.794891 499.338141 
L 177.239815 501.12519 
L 180.9072 504.014389 
L 182.129662 504.765294 
L 183.352123 505.273211 
L 184.574585 505.658975 
L 185.797047 506.393342 
L 187.019508 507.870142 
L 188.24197 509.738919 
L 189.464432 510.903245 
L 190.686893 510.431149 
L 191.909355 508.462141 
L 193.131817 506.067618 
L 194.354278 504.336965 
L 195.57674 503.737537 
L 196.799202 504.121249 
L 200.466587 506.925484 
L 201.689048 507.440264 
L 202.91151 507.671919 
L 205.356433 507.883646 
L 207.801357 508.351764 
L 211.468742 509.151877 
L 213.913665 509.490254 
L 215.136127 509.571334 
L 216.358589 509.525675 
L 217.58105 509.267032 
L 221.248435 507.779434 
L 222.470897 507.716058 
L 223.693359 508.013297 
L 227.360744 509.448174 
L 228.583205 509.701929 
L 231.028129 509.870697 
L 253.032439 510.079378 
L 264.034594 510.016126 
L 266.479517 509.836637 
L 267.701979 509.5048 
L 268.924441 508.863352 
L 271.369364 507.050522 
L 272.591826 506.507782 
L 273.814287 506.526605 
L 275.036749 507.025501 
L 277.481672 508.383772 
L 278.704134 508.821252 
L 279.926596 509.029898 
L 282.371519 509.001358 
L 287.261366 508.488454 
L 288.483828 508.24806 
L 289.706289 507.803053 
L 293.373674 505.626895 
L 294.596136 505.549665 
L 295.818598 506.04654 
L 299.485983 508.439254 
L 300.708444 508.798113 
L 301.930906 508.824839 
L 303.153368 508.593058 
L 305.598291 507.941493 
L 306.820753 507.810942 
L 308.043214 507.889172 
L 310.488138 508.174403 
L 311.710599 507.879228 
L 315.377985 505.782513 
L 316.600446 505.701436 
L 319.04537 506.023483 
L 321.490293 506.191409 
L 322.712755 506.512276 
L 326.38014 508.091319 
L 327.602601 508.355847 
L 328.825063 508.274764 
L 330.047525 507.602658 
L 331.269986 506.119376 
L 332.492448 503.616175 
L 333.71491 499.213524 
L 334.937371 491.439529 
L 337.382295 470.497391 
L 338.604756 466.00075 
L 339.827218 469.024696 
L 341.04968 477.539691 
L 342.272141 487.693842 
L 343.494603 496.260163 
L 344.717065 501.73842 
L 345.939526 504.233619 
L 347.161988 504.796094 
L 348.38445 504.664813 
L 349.606912 504.686337 
L 350.829373 505.120927 
L 354.496758 507.106785 
L 355.71922 507.504349 
L 356.941682 507.752856 
L 358.164143 507.826489 
L 359.386605 507.560468 
L 360.609067 506.771576 
L 363.05399 504.510766 
L 364.276452 504.073678 
L 365.498913 504.398296 
L 369.166298 506.889278 
L 370.38876 507.396015 
L 371.611222 507.680413 
L 372.833683 507.801648 
L 375.278607 507.702283 
L 376.501068 507.510708 
L 377.72353 507.143695 
L 378.945992 506.367072 
L 380.168453 505.008159 
L 381.390915 503.334852 
L 382.613377 502.041108 
L 383.835839 501.73006 
L 385.0583 502.480041 
L 388.725685 506.592888 
L 389.948147 506.989583 
L 391.170609 506.045375 
L 392.39307 503.42686 
L 394.837994 496.332879 
L 396.060455 494.682889 
L 397.282917 495.10999 
L 398.505379 496.974786 
L 399.72784 499.285125 
L 400.950302 501.292011 
L 402.172764 502.702923 
L 403.395225 503.573986 
L 404.617687 504.089956 
L 405.840149 504.389236 
L 407.06261 504.498604 
L 408.285072 504.379986 
L 409.507534 504.032224 
L 411.952457 503.135744 
L 413.174919 502.938974 
L 414.39738 503.033069 
L 416.842304 503.780242 
L 418.064766 504.161541 
L 419.287227 504.40484 
L 420.509689 504.476115 
L 421.732151 504.345953 
L 422.954612 503.821847 
L 424.177074 502.570984 
L 426.621997 498.544383 
L 427.844459 497.380273 
L 429.066921 497.54379 
L 430.289382 498.75852 
L 432.734306 501.825579 
L 433.956767 502.857073 
L 435.179229 503.473276 
L 436.401691 503.786988 
L 438.846614 503.979635 
L 441.291537 504.028234 
L 442.513999 503.830713 
L 443.736461 503.212093 
L 444.958922 502.117869 
L 446.181384 500.867223 
L 447.403846 500.001829 
L 448.626307 499.813584 
L 449.848769 500.026886 
L 451.071231 500.032146 
L 452.293693 499.493692 
L 454.738616 497.897245 
L 455.961078 497.424381 
L 457.183539 497.142975 
L 458.406001 497.095766 
L 459.628463 497.509569 
L 460.850924 498.508842 
L 464.518309 502.682012 
L 465.740771 503.49634 
L 466.963233 503.717723 
L 468.185694 503.232525 
L 469.408156 502.105195 
L 470.630618 500.627898 
L 471.853079 498.870618 
L 473.075541 495.877797 
L 474.298003 489.57123 
L 475.520464 478.384403 
L 477.965388 448.809669 
L 479.187849 438.409815 
L 480.410311 434.711126 
L 481.632773 438.213781 
L 482.855234 447.581277 
L 485.300158 471.988944 
L 486.52262 479.414386 
L 487.745081 474.457093 
L 488.967543 447.886908 
L 491.412466 352.352246 
L 492.634928 326.359724 
L 493.85739 333.351205 
L 495.079851 365.39847 
L 496.302313 406.068445 
L 497.524775 441.683278 
L 498.747236 466.12027 
L 499.969698 479.714585 
L 501.19216 485.976233 
L 502.414621 488.738407 
L 504.859545 492.337285 
L 506.082006 493.796517 
L 507.304468 494.398969 
L 508.52693 494.103713 
L 509.749391 493.420419 
L 510.971853 492.91605 
L 512.194315 492.902589 
L 513.416776 493.502178 
L 514.639238 494.705154 
L 518.306623 499.52917 
L 519.529085 500.664441 
L 520.751547 501.433729 
L 521.974008 501.927749 
L 523.19647 502.24143 
L 524.418932 502.41659 
L 526.863855 502.420766 
L 529.308778 502.440945 
L 532.976163 502.791172 
L 534.198625 502.686685 
L 535.421087 502.341096 
L 536.643548 501.654155 
L 539.088472 499.540093 
L 540.310933 498.751106 
L 541.533395 498.46846 
L 543.978318 498.604661 
L 547.645703 498.225055 
L 548.868165 498.565952 
L 551.313088 499.736159 
L 552.53555 500.131788 
L 553.758012 500.267406 
L 554.980474 500.161246 
L 556.202935 499.781777 
L 557.425397 498.917576 
L 558.647859 497.254313 
L 559.87032 494.717892 
L 562.315244 489.036453 
L 563.537705 487.152875 
L 564.760167 486.134231 
L 567.20509 485.021794 
L 568.427552 484.258323 
L 569.650014 483.80028 
L 570.872475 484.461105 
L 573.317399 488.04248 
L 574.53986 487.608435 
L 576.984784 482.072314 
L 578.207245 481.915261 
L 579.429707 485.084683 
L 581.87463 495.661423 
L 583.097092 500.012384 
L 584.319554 503.021217 
L 585.542015 504.928556 
L 586.764477 506.119429 
L 587.986939 506.89315 
L 589.209401 507.419796 
L 591.654324 508.055354 
L 596.544171 508.810442 
L 600.211556 509.204319 
L 602.656479 509.186869 
L 605.101402 509.074587 
L 607.546326 509.216688 
L 612.436172 509.650709 
L 620.993404 510.06472 
L 631.995559 510.121779 
L 639.330329 510.100295 
L 649.110023 510.323408 
L 661.33464 510.538534 
L 663.779563 510.485967 
L 666.224486 510.16219 
L 668.66941 509.77064 
L 669.891871 509.748605 
L 672.336795 510.036583 
L 674.781718 510.357593 
L 677.226641 510.479018 
L 685.783873 510.593054 
L 690.67372 510.59042 
L 695.563567 510.587333 
L 698.00849 510.61287 
L 699.230952 510.499998 
L 700.453413 510.134041 
L 701.675875 509.386745 
L 704.120798 507.270713 
L 705.34326 506.662077 
L 706.565722 506.716357 
L 707.788183 507.330563 
L 710.233107 509.048442 
L 711.455568 509.697942 
L 712.67803 510.121862 
L 713.900492 510.36573 
L 716.345415 510.568883 
L 721.235262 510.690739 
L 729.792494 510.77094 
L 735.904802 510.866086 
L 740.794649 510.789625 
L 743.239572 510.533181 
L 744.462034 510.196887 
L 746.906957 509.182979 
L 748.129419 508.846707 
L 749.35188 508.830421 
L 750.574342 509.110874 
L 754.241727 510.329746 
L 756.68665 510.680165 
L 761.576497 510.858556 
L 768.911267 510.925751 
L 816.587273 510.987273 
L 816.587273 510.987273 
" clip-path="url(#p184fb42c4a)" style="fill: none; stroke: #0000ff; stroke-width: 1.5; stroke-linecap: square"/>
   </g>
   <g id="line2d_14">
    <path d="M 304.731566 234.194251 
L 337.383762 234.087778 
L 337.741698 234.055504 
L 337.741698 233.919485 
L 338.098657 233.91706 
L 338.098657 233.776175 
L 338.453905 233.801255 
L 338.453905 233.639724 
L 338.806218 233.732337 
L 338.806218 233.549498 
L 339.158287 233.657181 
L 339.158287 233.428035 
L 339.509378 233.574508 
L 339.509378 233.392817 
L 339.85998 233.546062 
L 339.85998 233.354668 
L 340.215227 233.589851 
L 340.215227 233.351829 
L 340.91472 233.253343 
L 341.264833 233.307573 
L 341.972883 233.381505 
L 341.972883 233.360748 
L 342.323974 233.144791 
L 342.675554 233.359132 
L 343.028601 233.473601 
L 343.382137 233.718895 
L 343.382137 233.558624 
L 343.736406 233.721986 
L 343.736406 233.563 
L 344.804349 233.689118 
L 345.519489 233.867527 
L 346.597455 233.819767 
L 346.962727 233.856431 
L 347.323109 233.762719 
L 348.405476 234.005693 
L 348.405476 233.917743 
L 353.852276 233.934146 
L 355.303094 233.971699 
L 355.303094 234.018646 
L 357.483966 234.069263 
L 359.296876 234.061859 
L 360.748183 234.117898 
L 362.569162 234.124797 
L 366.556832 234.170934 
L 396.679265 234.135227 
L 398.499511 234.146801 
L 407.573844 234.187 
L 489.708844 234.184785 
L 489.708844 234.150107 
L 490.067025 234.078083 
L 490.067025 233.812491 
L 490.425206 233.611571 
L 490.425206 232.72283 
L 490.782898 232.173901 
L 490.782898 229.787129 
L 491.140346 228.760633 
L 491.140346 223.788261 
L 491.494127 221.980475 
L 491.494127 213.32771 
L 491.844973 211.476023 
L 491.844973 196.731741 
L 492.196064 195.630905 
L 492.196064 172.208138 
L 492.542265 174.094771 
L 492.542265 145.8571 
L 492.885288 152.276568 
L 492.885288 119.842998 
L 493.221954 134.891978 
L 493.221954 95.173003 
L 493.557397 115.727419 
L 493.557397 77.198959 
L 493.897486 103.794419 
L 493.897486 66.061 
L 494.231463 98.51134 
L 494.231463 59.784348 
L 494.56495 93.500807 
L 494.56495 54.815786 
L 494.899171 85.552456 
L 494.899171 49.932727 
L 495.233637 86.960783 
L 495.233637 54.380675 
L 495.567613 92.921459 
L 495.567613 68.337068 
L 495.902812 107.109205 
L 495.902812 76.108239 
L 496.237767 113.648294 
L 496.237767 84.280761 
L 496.572477 117.082514 
L 496.572477 93.843208 
L 496.910365 129.404011 
L 496.910365 108.884969 
L 497.246787 142.119868 
L 497.246787 124.464423 
L 497.583453 152.343219 
L 497.583453 136.596518 
L 497.923542 158.958127 
L 497.923542 144.536921 
L 498.265097 165.495586 
L 498.265097 152.467196 
L 498.606653 172.132282 
L 498.606653 161.215056 
L 498.955299 178.602147 
L 498.955299 166.562621 
L 499.300033 182.163078 
L 499.300033 171.174517 
L 499.643545 185.119978 
L 499.643545 174.363619 
L 499.990969 189.277774 
L 499.990969 178.176484 
L 500.339126 189.772777 
L 500.339126 182.371808 
L 500.686061 194.633241 
L 500.686061 186.477834 
L 501.037152 198.089159 
L 501.037152 191.031916 
L 501.386531 199.48102 
L 501.386531 193.226133 
L 501.736644 201.789125 
L 501.736644 195.340969 
L 502.090913 203.86835 
L 502.090913 198.15346 
L 502.442004 205.198955 
L 502.442004 200.397911 
L 502.794073 207.869256 
L 502.794073 202.976196 
L 503.146142 209.92625 
L 503.146142 205.200773 
L 503.498211 211.340043 
L 503.498211 206.247274 
L 503.855659 211.87896 
L 503.855659 207.278882 
L 504.208462 212.558774 
L 504.208462 207.986746 
L 504.561509 213.526595 
L 504.561509 209.886933 
L 504.914311 214.859935 
L 504.914311 211.186825 
L 505.268091 215.903919 
L 505.268091 212.152025 
L 505.622361 216.397759 
L 505.622361 212.48191 
L 505.97663 216.948705 
L 505.97663 213.355262 
L 506.331144 217.905285 
L 506.331144 214.247524 
L 506.687369 218.794908 
L 506.687369 215.690484 
L 507.043839 219.718508 
L 507.043839 216.614731 
L 507.400309 220.877516 
L 507.400309 217.954414 
L 507.757268 221.682945 
L 507.757268 218.601102 
L 508.115694 222.101886 
L 508.115694 219.103861 
L 508.474853 222.217897 
L 508.474853 219.470837 
L 508.841102 222.902457 
L 508.841102 220.143412 
L 509.200506 223.266477 
L 509.200506 220.899029 
L 509.558687 223.929514 
L 509.558687 221.480558 
L 509.917602 224.369222 
L 509.917602 221.950643 
L 510.277984 224.571975 
L 510.277984 222.196282 
L 510.636654 224.778596 
L 510.636654 222.74181 
L 510.995813 225.374044 
L 510.995813 223.12154 
L 511.358395 225.665555 
L 511.358395 223.555301 
L 511.717555 225.823322 
L 511.717555 223.910956 
L 512.076958 226.320188 
L 512.076958 224.309384 
L 512.435629 226.601819 
L 512.435629 224.586368 
L 512.795521 226.646594 
L 512.795521 224.913586 
L 513.154925 227.013211 
L 513.154925 225.276771 
L 513.515062 227.386932 
L 513.515062 225.821734 
L 513.880334 227.681134 
L 513.880334 226.12758 
L 514.239982 227.99316 
L 514.239982 226.492839 
L 514.601097 228.10854 
L 514.601097 226.807042 
L 514.961479 228.449771 
L 514.961479 227.16356 
L 515.321861 228.791024 
L 515.321861 227.668578 
L 515.681509 229.082167 
L 515.681509 227.747803 
L 516.041646 229.086636 
L 516.041646 227.905597 
L 516.402028 229.24818 
L 516.402028 228.064824 
L 516.762899 229.440001 
L 516.762899 228.427186 
L 517.124258 229.65839 
L 517.124258 228.52943 
L 517.485862 229.735829 
L 517.485862 228.719793 
L 517.848445 229.834047 
L 517.848445 228.863501 
L 518.211027 230.051462 
L 518.211027 229.19159 
L 518.573609 230.351749 
L 518.573609 229.402565 
L 518.94157 230.481667 
L 518.94157 229.601568 
L 519.304152 230.573929 
L 519.304152 229.677704 
L 519.666734 230.716166 
L 519.666734 229.809887 
L 520.029316 230.747751 
L 520.029316 229.883499 
L 520.391898 230.809569 
L 520.391898 230.081966 
L 520.75448 231.024888 
L 520.75448 230.294219 
L 521.117063 231.193946 
L 521.117063 230.409392 
L 521.485024 231.256176 
L 521.485024 230.510037 
L 521.84785 231.260718 
L 521.84785 230.638991 
L 522.210432 231.478091 
L 522.210432 230.747294 
L 522.573014 231.574276 
L 522.573014 230.965883 
L 522.935597 231.707207 
L 522.935597 231.099127 
L 523.298179 231.810744 
L 523.298179 231.198301 
L 523.660761 231.919952 
L 523.660761 231.334337 
L 524.028477 232.026241 
L 524.028477 231.4159 
L 524.391059 232.038463 
L 524.391059 231.489185 
L 524.753886 232.092096 
L 524.753886 231.574795 
L 525.124292 232.234849 
L 525.124292 231.786883 
L 525.486874 232.350132 
L 525.486874 231.85028 
L 525.849456 232.395721 
L 525.849456 231.891331 
L 526.212038 232.371018 
L 526.212038 231.895269 
L 526.57462 232.42676 
L 526.57462 231.890537 
L 526.937203 232.383705 
L 526.937203 232.035099 
L 527.299785 232.508497 
L 527.299785 232.104629 
L 527.663589 232.646962 
L 527.663589 232.267168 
L 528.026416 232.644621 
L 528.026416 232.280751 
L 528.388998 232.695057 
L 528.388998 232.322235 
L 528.751336 232.746682 
L 528.751336 232.387044 
L 529.119297 232.794429 
L 529.119297 232.472368 
L 529.481879 232.86245 
L 529.481879 232.499633 
L 529.844461 232.878441 
L 529.844461 232.550167 
L 530.210955 232.886562 
L 530.210955 232.616543 
L 530.573537 232.985452 
L 530.573537 232.675743 
L 530.936119 233.052729 
L 530.936119 232.738866 
L 531.298701 233.036522 
L 531.298701 232.768728 
L 531.661284 233.134107 
L 531.661284 232.792363 
L 532.023866 233.086543 
L 532.023866 232.828597 
L 532.386448 233.135433 
L 532.386448 232.821359 
L 532.749519 233.150645 
L 532.749519 232.950262 
L 533.112101 233.240689 
L 533.112101 232.9092 
L 533.474683 233.217848 
L 533.474683 232.968586 
L 533.837265 233.241194 
L 533.837265 232.955355 
L 534.205226 233.291415 
L 534.205226 233.056624 
L 534.567564 233.324086 
L 534.567564 233.100892 
L 534.930146 233.365309 
L 534.930146 233.135152 
L 535.292973 233.400125 
L 535.292973 233.198236 
L 535.655555 233.398284 
L 535.655555 233.176232 
L 536.018137 233.430583 
L 536.018137 233.205356 
L 536.380719 233.425482 
L 536.380719 233.212569 
L 536.743301 233.445178 
L 536.743301 233.210594 
L 537.105639 233.428335 
L 537.105639 233.203409 
L 537.468465 233.44642 
L 537.468465 233.279763 
L 537.831048 233.512984 
L 537.831048 233.31273 
L 538.19363 233.543935 
L 538.19363 233.346359 
L 538.556212 233.546578 
L 538.556212 233.385535 
L 538.918794 233.591598 
L 538.918794 233.39409 
L 539.286755 233.590917 
L 539.286755 233.422732 
L 539.649337 233.568904 
L 539.649337 233.410299 
L 540.011919 233.608446 
L 540.011919 233.464982 
L 540.740751 233.701031 
L 540.740751 233.543659 
L 541.103333 233.679023 
L 541.103333 233.553125 
L 541.828253 233.748497 
L 541.828253 233.656005 
L 542.191079 233.772698 
L 542.191079 233.646781 
L 542.553662 233.760659 
L 542.553662 233.636505 
L 543.278826 233.782333 
L 543.278826 233.652254 
L 543.641408 233.760757 
L 543.641408 233.642285 
L 544.371951 233.791641 
L 544.371951 233.680752 
L 545.097115 233.84205 
L 545.097115 233.711439 
L 545.459942 233.850589 
L 545.459942 233.703104 
L 545.822524 233.792067 
L 545.822524 233.651423 
L 546.184862 233.765444 
L 546.184862 233.639615 
L 546.910026 233.844909 
L 546.910026 233.747954 
L 547.273342 233.860587 
L 547.273342 233.733962 
L 547.636168 233.841814 
L 547.636168 233.715849 
L 547.99875 233.815287 
L 547.99875 233.712926 
L 548.361333 233.734675 
L 548.723915 233.598646 
L 549.818262 233.89084 
L 549.818262 233.780223 
L 550.54685 233.911514 
L 550.54685 233.808627 
L 550.909432 233.920513 
L 550.909432 233.836685 
L 551.997178 233.83897 
L 551.997178 233.850299 
L 552.722342 233.983837 
L 552.722342 233.879205 
L 553.810089 233.851037 
L 553.810089 233.860249 
L 554.540632 233.949377 
L 554.540632 233.862675 
L 557.078707 233.870342 
L 557.078707 233.873963 
L 558.891617 233.857102 
L 559.622161 233.752672 
L 560.713574 233.853202 
L 563.61472 233.990473 
L 564.340618 233.908442 
L 568.3344 233.940171 
L 569.059565 233.887155 
L 570.520651 233.999078 
L 570.520651 233.954659 
L 578.497458 233.965652 
L 580.283963 234.067994 
L 582.068268 234.040781 
L 603.118081 234.06417 
L 604.568898 234.064889 
L 607.474934 234.086874 
L 610.384637 234.059233 
L 612.922712 234.0899 
L 614.373285 234.0882 
L 616.916983 234.055392 
L 631.444474 234.080714 
L 631.444474 234.099094 
L 635.070295 234.088284 
L 636.888829 234.061451 
L 640.518562 234.153833 
L 642.700656 234.08627 
L 646.331856 234.140283 
L 649.234958 234.127541 
L 726.950515 234.132354 
L 729.494213 234.10044 
L 737.850472 234.151898 
L 742.570396 234.063004 
L 742.570396 234.096796 
L 747.288854 233.899958 
L 747.288854 233.938856 
L 748.383691 233.850223 
L 748.383691 233.878048 
L 748.746273 233.809351 
L 748.746273 233.872505 
L 749.1091 233.867151 
L 749.1091 233.901472 
L 749.1091 234.01081 
L 750.560162 233.775929 
L 750.560162 233.869789 
L 751.285326 233.907103 
L 751.285326 233.905873 
L 752.010979 233.781927 
L 752.010979 233.864436 
L 752.741767 233.865631 
L 752.741767 233.901965 
L 753.467175 233.897221 
L 753.467175 233.936395 
L 754.559323 233.901722 
L 754.559323 233.953696 
L 755.648781 233.878797 
L 755.648781 233.937476 
L 756.373945 233.911932 
L 756.373945 233.976854 
L 757.829897 233.918636 
L 757.829897 233.958771 
L 759.280714 233.91237 
L 759.280714 233.970672 
L 760.006123 233.935124 
L 760.006123 233.995197 
L 761.094358 233.94279 
L 761.094358 233.992665 
L 764.369333 233.910796 
L 764.369333 233.976331 
L 765.820395 233.953402 
L 765.820395 233.982007 
L 766.545804 233.926494 
L 766.545804 233.976834 
L 768.728876 233.943226 
L 768.728876 233.991558 
L 770.179449 233.987681 
L 770.179449 234.031283 
L 771.630511 233.971761 
L 771.630511 234.002971 
L 773.091108 233.98039 
L 773.091108 234.007184 
L 774.179588 234.039096 
L 774.179588 234.043435 
L 778.538642 234.005235 
L 778.538642 234.050591 
L 779.264051 234.053475 
L 780.351553 234.029819 
L 781.803348 234.003813 
L 781.803348 234.030819 
L 783.260278 233.994174 
L 783.260278 234.036937 
L 784.346802 233.990526 
L 784.346802 234.034373 
L 785.43137 234.027309 
L 785.43137 234.096177 
L 786.872897 233.988873 
L 786.872897 234.009807 
L 787.956487 233.953293 
L 787.956487 233.995567 
L 790.131491 233.989376 
L 790.131491 234.016107 
L 791.58402 234.000603 
L 791.58402 234.035774 
L 791.58402 234.055621 
L 792.308939 234.080364 
L 792.308939 234.063638 
L 793.402554 234.001455 
L 793.402554 234.031743 
L 795.584403 233.916278 
L 795.584403 233.95215 
L 798.482615 233.92007 
L 798.482615 233.989792 
L 799.199956 233.994464 
L 800.277189 233.913115 
L 800.277189 233.969355 
L 800.997708 233.931286 
L 800.997708 233.969903 
L 809.474991 234.056383 
L 810.178151 233.980133 
L 811.939718 234.040801 
L 812.648012 234.000903 
L 812.648012 233.983202 
" clip-path="url(#p184fb42c4a)" style="fill: none; stroke: #008000; stroke-width: 1.5; stroke-linecap: square"/>
   </g>
   <g id="patch_3">
    <path d="M 47.72 534.04 
L 47.72 26.88 
" style="fill: none; stroke: #000000; stroke-width: 0.8; stroke-linejoin: miter; stroke-linecap: square"/>
   </g>
   <g id="patch_4">
    <path d="M 853.2 534.04 
L 853.2 26.88 
" style="fill: none; stroke: #000000; stroke-width: 0.8; stroke-linejoin: miter; stroke-linecap: square"/>
   </g>
   <g id="patch_5">
    <path d="M 47.72 534.04 
L 853.2 534.04 
" style="fill: none; stroke: #000000; stroke-width: 0.8; stroke-linejoin: miter; stroke-linecap: square"/>
   </g>
   <g id="patch_6">
    <path d="M 47.72 26.88 
L 853.2 26.88 
" style="fill: none; stroke: #000000; stroke-width: 0.8; stroke-linejoin: miter; stroke-linecap: square"/>
   </g>
   <g id="patch_7">
    <path d="M 563.190569 352.266064 
Q 537.039275 358.095036 510.887981 363.924008 
L 511.758203 367.8282 
Q 505.250944 366.205011 498.743686 364.581822 
Q 503.945612 360.348723 509.147538 356.115625 
L 510.017759 360.019817 
Q 536.169053 354.190844 562.320347 348.361872 
L 563.190569 352.266064 
z
" style="stroke: #000000; stroke-linecap: round"/>
   </g>
   <g id="text_15">
    <!-- Peak: RT=2.81, Area=7.66e+03 -->
    <g style="fill: #ff0000" transform="translate(568.427552 335.772191) scale(0.1 -0.1)">
     <defs>
      <path id="DejaVuSans-50" d="M 1259 4147 
L 1259 2394 
L 2053 2394 
Q 2494 2394 2734 2622 
Q 2975 2850 2975 3272 
Q 2975 3691 2734 3919 
Q 2494 4147 2053 4147 
L 1259 4147 
z
M 628 4666 
L 2053 4666 
Q 2838 4666 3239 4311 
Q 3641 3956 3641 3272 
Q 3641 2581 3239 2228 
Q 2838 1875 2053 1875 
L 1259 1875 
L 1259 0 
L 628 0 
L 628 4666 
z
" transform="scale(0.015625)"/>
      <path id="DejaVuSans-6b" d="M 581 4863 
L 1159 4863 
L 1159 1991 
L 2875 3500 
L 3609 3500 
L 1753 1863 
L 3688 0 
L 2938 0 
L 1159 1709 
L 1159 0 
L 581 0 
L 581 4863 
z
" transform="scale(0.015625)"/>
      <path id="DejaVuSans-3a" d="M 750 794 
L 1409 794 
L 1409 0 
L 750 0 
L 750 794 
z
M 750 3309 
L 1409 3309 
L 1409 2516 
L 750 2516 
L 750 3309 
z
" transform="scale(0.015625)"/>
      <path id="DejaVuSans-3d" d="M 678 2906 
L 4684 2906 
L 4684 2381 
L 678 2381 
L 678 2906 
z
M 678 1631 
L 4684 1631 
L 4684 1100 
L 678 1100 
L 678 1631 
z
" transform="scale(0.015625)"/>
      <path id="DejaVuSans-38" d="M 2034 2216 
Q 1584 2216 1326 1975 
Q 1069 1734 1069 1313 
Q 1069 891 1326 650 
Q 1584 409 2034 409 
Q 2484 409 2743 651 
Q 3003 894 3003 1313 
Q 3003 1734 2745 1975 
Q 2488 2216 2034 2216 
z
M 1403 2484 
Q 997 2584 770 2862 
Q 544 3141 544 3541 
Q 544 4100 942 4425 
Q 1341 4750 2034 4750 
Q 2731 4750 3128 4425 
Q 3525 4100 3525 3541 
Q 3525 3141 3298 2862 
Q 3072 2584 2669 2484 
Q 3125 2378 3379 2068 
Q 3634 1759 3634 1313 
Q 3634 634 3220 271 
Q 2806 -91 2034 -91 
Q 1263 -91 848 271 
Q 434 634 434 1313 
Q 434 1759 690 2068 
Q 947 2378 1403 2484 
z
M 1172 3481 
Q 1172 3119 1398 2916 
Q 1625 2713 2034 2713 
Q 2441 2713 2670 2916 
Q 2900 3119 2900 3481 
Q 2900 3844 2670 4047 
Q 2441 4250 2034 4250 
Q 1625 4250 1398 4047 
Q 1172 3844 1172 3481 
z
" transform="scale(0.015625)"/>
      <path id="DejaVuSans-2c" d="M 750 794 
L 1409 794 
L 1409 256 
L 897 -744 
L 494 -744 
L 750 256 
L 750 794 
z
" transform="scale(0.015625)"/>
      <path id="DejaVuSans-41" d="M 2188 4044 
L 1331 1722 
L 3047 1722 
L 2188 4044 
z
M 1831 4666 
L 2547 4666 
L 4325 0 
L 3669 0 
L 3244 1197 
L 1141 1197 
L 716 0 
L 50 0 
L 1831 4666 
z
" transform="scale(0.015625)"/>
      <path id="DejaVuSans-37" d="M 525 4666 
L 3525 4666 
L 3525 4397 
L 1831 0 
L 1172 0 
L 2766 4134 
L 525 4134 
L 525 4666 
z
" transform="scale(0.015625)"/>
      <path id="DejaVuSans-36" d="M 2113 2584 
Q 1688 2584 1439 2293 
Q 1191 2003 1191 1497 
Q 1191 994 1439 701 
Q 1688 409 2113 409 
Q 2538 409 2786 701 
Q 3034 994 3034 1497 
Q 3034 2003 2786 2293 
Q 2538 2584 2113 2584 
z
M 3366 4563 
L 3366 3988 
Q 3128 4100 2886 4159 
Q 2644 4219 2406 4219 
Q 1781 4219 1451 3797 
Q 1122 3375 1075 2522 
Q 1259 2794 1537 2939 
Q 1816 3084 2150 3084 
Q 2853 3084 3261 2657 
Q 3669 2231 3669 1497 
Q 3669 778 3244 343 
Q 2819 -91 2113 -91 
Q 1303 -91 875 529 
Q 447 1150 447 2328 
Q 447 3434 972 4092 
Q 1497 4750 2381 4750 
Q 2619 4750 2861 4703 
Q 3103 4656 3366 4563 
z
" transform="scale(0.015625)"/>
      <path id="DejaVuSans-2b" d="M 2944 4013 
L 2944 2272 
L 4684 2272 
L 4684 1741 
L 2944 1741 
L 2944 0 
L 2419 0 
L 2419 1741 
L 678 1741 
L 678 2272 
L 2419 2272 
L 2419 4013 
L 2944 4013 
z
" transform="scale(0.015625)"/>
     </defs>
     <use xlink:href="#DejaVuSans-50"/>
     <use xlink:href="#DejaVuSans-65" transform="translate(56.677734 0)"/>
     <use xlink:href="#DejaVuSans-61" transform="translate(118.201172 0)"/>
     <use xlink:href="#DejaVuSans-6b" transform="translate(179.480469 0)"/>
     <use xlink:href="#DejaVuSans-3a" transform="translate(237.390625 0)"/>
     <use xlink:href="#DejaVuSans-20" transform="translate(271.082031 0)"/>
     <use xlink:href="#DejaVuSans-52" transform="translate(302.869141 0)"/>
     <use xlink:href="#DejaVuSans-54" transform="translate(365.101562 0)"/>
     <use xlink:href="#DejaVuSans-3d" transform="translate(426.185547 0)"/>
     <use xlink:href="#DejaVuSans-32" transform="translate(509.974609 0)"/>
     <use xlink:href="#DejaVuSans-2e" transform="translate(573.597656 0)"/>
     <use xlink:href="#DejaVuSans-38" transform="translate(605.384766 0)"/>
     <use xlink:href="#DejaVuSans-31" transform="translate(669.007812 0)"/>
     <use xlink:href="#DejaVuSans-2c" transform="translate(732.630859 0)"/>
     <use xlink:href="#DejaVuSans-20" transform="translate(764.417969 0)"/>
     <use xlink:href="#DejaVuSans-41" transform="translate(796.205078 0)"/>
     <use xlink:href="#DejaVuSans-72" transform="translate(864.613281 0)"/>
     <use xlink:href="#DejaVuSans-65" transform="translate(903.476562 0)"/>
     <use xlink:href="#DejaVuSans-61" transform="translate(965 0)"/>
     <use xlink:href="#DejaVuSans-3d" transform="translate(1026.279297 0)"/>
     <use xlink:href="#DejaVuSans-37" transform="translate(1110.068359 0)"/>
     <use xlink:href="#DejaVuSans-2e" transform="translate(1173.691406 0)"/>
     <use xlink:href="#DejaVuSans-36" transform="translate(1205.478516 0)"/>
     <use xlink:href="#DejaVuSans-36" transform="translate(1269.101562 0)"/>
     <use xlink:href="#DejaVuSans-65" transform="translate(1332.724609 0)"/>
     <use xlink:href="#DejaVuSans-2b" transform="translate(1394.248047 0)"/>
     <use xlink:href="#DejaVuSans-30" transform="translate(1478.037109 0)"/>
     <use xlink:href="#DejaVuSans-33" transform="translate(1541.660156 0)"/>
    </g>
    <!-- (49.90% of total) -->
    <g style="fill: #ff0000" transform="translate(568.427552 346.970003) scale(0.1 -0.1)">
     <defs>
      <path id="DejaVuSans-39" d="M 703 97 
L 703 672 
Q 941 559 1184 500 
Q 1428 441 1663 441 
Q 2288 441 2617 861 
Q 2947 1281 2994 2138 
Q 2813 1869 2534 1725 
Q 2256 1581 1919 1581 
Q 1219 1581 811 2004 
Q 403 2428 403 3163 
Q 403 3881 828 4315 
Q 1253 4750 1959 4750 
Q 2769 4750 3195 4129 
Q 3622 3509 3622 2328 
Q 3622 1225 3098 567 
Q 2575 -91 1691 -91 
Q 1453 -91 1209 -44 
Q 966 3 703 97 
z
M 1959 2075 
Q 2384 2075 2632 2365 
Q 2881 2656 2881 3163 
Q 2881 3666 2632 3958 
Q 2384 4250 1959 4250 
Q 1534 4250 1286 3958 
Q 1038 3666 1038 3163 
Q 1038 2656 1286 2365 
Q 1534 2075 1959 2075 
z
" transform="scale(0.015625)"/>
      <path id="DejaVuSans-25" d="M 4653 2053 
Q 4381 2053 4226 1822 
Q 4072 1591 4072 1178 
Q 4072 772 4226 539 
Q 4381 306 4653 306 
Q 4919 306 5073 539 
Q 5228 772 5228 1178 
Q 5228 1588 5073 1820 
Q 4919 2053 4653 2053 
z
M 4653 2450 
Q 5147 2450 5437 2106 
Q 5728 1763 5728 1178 
Q 5728 594 5436 251 
Q 5144 -91 4653 -91 
Q 4153 -91 3862 251 
Q 3572 594 3572 1178 
Q 3572 1766 3864 2108 
Q 4156 2450 4653 2450 
z
M 1428 4353 
Q 1159 4353 1004 4120 
Q 850 3888 850 3481 
Q 850 3069 1003 2837 
Q 1156 2606 1428 2606 
Q 1700 2606 1854 2837 
Q 2009 3069 2009 3481 
Q 2009 3884 1853 4118 
Q 1697 4353 1428 4353 
z
M 4250 4750 
L 4750 4750 
L 1831 -91 
L 1331 -91 
L 4250 4750 
z
M 1428 4750 
Q 1922 4750 2215 4408 
Q 2509 4066 2509 3481 
Q 2509 2891 2217 2550 
Q 1925 2209 1428 2209 
Q 931 2209 642 2551 
Q 353 2894 353 3481 
Q 353 4063 643 4406 
Q 934 4750 1428 4750 
z
" transform="scale(0.015625)"/>
      <path id="DejaVuSans-66" d="M 2375 4863 
L 2375 4384 
L 1825 4384 
Q 1516 4384 1395 4259 
Q 1275 4134 1275 3809 
L 1275 3500 
L 2222 3500 
L 2222 3053 
L 1275 3053 
L 1275 0 
L 697 0 
L 697 3053 
L 147 3053 
L 147 3500 
L 697 3500 
L 697 3744 
Q 697 4328 969 4595 
Q 1241 4863 1831 4863 
L 2375 4863 
z
" transform="scale(0.015625)"/>
     </defs>
     <use xlink:href="#DejaVuSans-28"/>
     <use xlink:href="#DejaVuSans-34" transform="translate(39.013672 0)"/>
     <use xlink:href="#DejaVuSans-39" transform="translate(102.636719 0)"/>
     <use xlink:href="#DejaVuSans-2e" transform="translate(166.259766 0)"/>
     <use xlink:href="#DejaVuSans-39" transform="translate(198.046875 0)"/>
     <use xlink:href="#DejaVuSans-30" transform="translate(261.669922 0)"/>
     <use xlink:href="#DejaVuSans-25" transform="translate(325.292969 0)"/>
     <use xlink:href="#DejaVuSans-20" transform="translate(420.3125 0)"/>
     <use xlink:href="#DejaVuSans-6f" transform="translate(452.099609 0)"/>
     <use xlink:href="#DejaVuSans-66" transform="translate(513.28125 0)"/>
     <use xlink:href="#DejaVuSans-20" transform="translate(548.486328 0)"/>
     <use xlink:href="#DejaVuSans-74" transform="translate(580.273438 0)"/>
     <use xlink:href="#DejaVuSans-6f" transform="translate(619.482422 0)"/>
     <use xlink:href="#DejaVuSans-74" transform="translate(680.664062 0)"/>
     <use xlink:href="#DejaVuSans-61" transform="translate(719.873047 0)"/>
     <use xlink:href="#DejaVuSans-6c" transform="translate(781.152344 0)"/>
     <use xlink:href="#DejaVuSans-29" transform="translate(808.935547 0)"/>
    </g>
   </g>
   <g id="text_16">
    <!-- UV &amp; MS Chromatograms: IrCp1F11, target m/z=722.1549986 -->
    <g transform="translate(262.960938 20.88) scale(0.12 -0.12)">
     <defs>
      <path id="DejaVuSans-55" d="M 556 4666 
L 1191 4666 
L 1191 1831 
Q 1191 1081 1462 751 
Q 1734 422 2344 422 
Q 2950 422 3222 751 
Q 3494 1081 3494 1831 
L 3494 4666 
L 4128 4666 
L 4128 1753 
Q 4128 841 3676 375 
Q 3225 -91 2344 -91 
Q 1459 -91 1007 375 
Q 556 841 556 1753 
L 556 4666 
z
" transform="scale(0.015625)"/>
      <path id="DejaVuSans-56" d="M 1831 0 
L 50 4666 
L 709 4666 
L 2188 738 
L 3669 4666 
L 4325 4666 
L 2547 0 
L 1831 0 
z
" transform="scale(0.015625)"/>
      <path id="DejaVuSans-26" d="M 1556 2509 
Q 1272 2256 1139 2004 
Q 1006 1753 1006 1478 
Q 1006 1022 1337 719 
Q 1669 416 2169 416 
Q 2466 416 2725 514 
Q 2984 613 3213 813 
L 1556 2509 
z
M 1997 2859 
L 3584 1234 
Q 3769 1513 3872 1830 
Q 3975 2147 3994 2503 
L 4575 2503 
Q 4538 2091 4375 1687 
Q 4213 1284 3922 891 
L 4794 0 
L 4006 0 
L 3559 459 
Q 3234 181 2878 45 
Q 2522 -91 2113 -91 
Q 1359 -91 881 339 
Q 403 769 403 1441 
Q 403 1841 612 2192 
Q 822 2544 1241 2853 
Q 1091 3050 1012 3245 
Q 934 3441 934 3628 
Q 934 4134 1281 4442 
Q 1628 4750 2203 4750 
Q 2463 4750 2720 4694 
Q 2978 4638 3244 4525 
L 3244 3956 
Q 2972 4103 2725 4179 
Q 2478 4256 2266 4256 
Q 1938 4256 1733 4082 
Q 1528 3909 1528 3634 
Q 1528 3475 1620 3314 
Q 1713 3153 1997 2859 
z
" transform="scale(0.015625)"/>
      <path id="DejaVuSans-4d" d="M 628 4666 
L 1569 4666 
L 2759 1491 
L 3956 4666 
L 4897 4666 
L 4897 0 
L 4281 0 
L 4281 4097 
L 3078 897 
L 2444 897 
L 1241 4097 
L 1241 0 
L 628 0 
L 628 4666 
z
" transform="scale(0.015625)"/>
      <path id="DejaVuSans-53" d="M 3425 4513 
L 3425 3897 
Q 3066 4069 2747 4153 
Q 2428 4238 2131 4238 
Q 1616 4238 1336 4038 
Q 1056 3838 1056 3469 
Q 1056 3159 1242 3001 
Q 1428 2844 1947 2747 
L 2328 2669 
Q 3034 2534 3370 2195 
Q 3706 1856 3706 1288 
Q 3706 609 3251 259 
Q 2797 -91 1919 -91 
Q 1588 -91 1214 -16 
Q 841 59 441 206 
L 441 856 
Q 825 641 1194 531 
Q 1563 422 1919 422 
Q 2459 422 2753 634 
Q 3047 847 3047 1241 
Q 3047 1584 2836 1778 
Q 2625 1972 2144 2069 
L 1759 2144 
Q 1053 2284 737 2584 
Q 422 2884 422 3419 
Q 422 4038 858 4394 
Q 1294 4750 2059 4750 
Q 2388 4750 2728 4690 
Q 3069 4631 3425 4513 
z
" transform="scale(0.015625)"/>
      <path id="DejaVuSans-43" d="M 4122 4306 
L 4122 3641 
Q 3803 3938 3442 4084 
Q 3081 4231 2675 4231 
Q 1875 4231 1450 3742 
Q 1025 3253 1025 2328 
Q 1025 1406 1450 917 
Q 1875 428 2675 428 
Q 3081 428 3442 575 
Q 3803 722 4122 1019 
L 4122 359 
Q 3791 134 3420 21 
Q 3050 -91 2638 -91 
Q 1578 -91 968 557 
Q 359 1206 359 2328 
Q 359 3453 968 4101 
Q 1578 4750 2638 4750 
Q 3056 4750 3426 4639 
Q 3797 4528 4122 4306 
z
" transform="scale(0.015625)"/>
      <path id="DejaVuSans-68" d="M 3513 2113 
L 3513 0 
L 2938 0 
L 2938 2094 
Q 2938 2591 2744 2837 
Q 2550 3084 2163 3084 
Q 1697 3084 1428 2787 
Q 1159 2491 1159 1978 
L 1159 0 
L 581 0 
L 581 4863 
L 1159 4863 
L 1159 2956 
Q 1366 3272 1645 3428 
Q 1925 3584 2291 3584 
Q 2894 3584 3203 3211 
Q 3513 2838 3513 2113 
z
" transform="scale(0.015625)"/>
      <path id="DejaVuSans-67" d="M 2906 1791 
Q 2906 2416 2648 2759 
Q 2391 3103 1925 3103 
Q 1463 3103 1205 2759 
Q 947 2416 947 1791 
Q 947 1169 1205 825 
Q 1463 481 1925 481 
Q 2391 481 2648 825 
Q 2906 1169 2906 1791 
z
M 3481 434 
Q 3481 -459 3084 -895 
Q 2688 -1331 1869 -1331 
Q 1566 -1331 1297 -1286 
Q 1028 -1241 775 -1147 
L 775 -588 
Q 1028 -725 1275 -790 
Q 1522 -856 1778 -856 
Q 2344 -856 2625 -561 
Q 2906 -266 2906 331 
L 2906 616 
Q 2728 306 2450 153 
Q 2172 0 1784 0 
Q 1141 0 747 490 
Q 353 981 353 1791 
Q 353 2603 747 3093 
Q 1141 3584 1784 3584 
Q 2172 3584 2450 3431 
Q 2728 3278 2906 2969 
L 2906 3500 
L 3481 3500 
L 3481 434 
z
" transform="scale(0.015625)"/>
      <path id="DejaVuSans-70" d="M 1159 525 
L 1159 -1331 
L 581 -1331 
L 581 3500 
L 1159 3500 
L 1159 2969 
Q 1341 3281 1617 3432 
Q 1894 3584 2278 3584 
Q 2916 3584 3314 3078 
Q 3713 2572 3713 1747 
Q 3713 922 3314 415 
Q 2916 -91 2278 -91 
Q 1894 -91 1617 61 
Q 1341 213 1159 525 
z
M 3116 1747 
Q 3116 2381 2855 2742 
Q 2594 3103 2138 3103 
Q 1681 3103 1420 2742 
Q 1159 2381 1159 1747 
Q 1159 1113 1420 752 
Q 1681 391 2138 391 
Q 2594 391 2855 752 
Q 3116 1113 3116 1747 
z
" transform="scale(0.015625)"/>
      <path id="DejaVuSans-46" d="M 628 4666 
L 3309 4666 
L 3309 4134 
L 1259 4134 
L 1259 2759 
L 3109 2759 
L 3109 2228 
L 1259 2228 
L 1259 0 
L 628 0 
L 628 4666 
z
" transform="scale(0.015625)"/>
      <path id="DejaVuSans-2f" d="M 1625 4666 
L 2156 4666 
L 531 -594 
L 0 -594 
L 1625 4666 
z
" transform="scale(0.015625)"/>
     </defs>
     <use xlink:href="#DejaVuSans-55"/>
     <use xlink:href="#DejaVuSans-56" transform="translate(73.193359 0)"/>
     <use xlink:href="#DejaVuSans-20" transform="translate(141.601562 0)"/>
     <use xlink:href="#DejaVuSans-26" transform="translate(173.388672 0)"/>
     <use xlink:href="#DejaVuSans-20" transform="translate(251.367188 0)"/>
     <use xlink:href="#DejaVuSans-4d" transform="translate(283.154297 0)"/>
     <use xlink:href="#DejaVuSans-53" transform="translate(369.433594 0)"/>
     <use xlink:href="#DejaVuSans-20" transform="translate(432.910156 0)"/>
     <use xlink:href="#DejaVuSans-43" transform="translate(464.697266 0)"/>
     <use xlink:href="#DejaVuSans-68" transform="translate(534.521484 0)"/>
     <use xlink:href="#DejaVuSans-72" transform="translate(597.900391 0)"/>
     <use xlink:href="#DejaVuSans-6f" transform="translate(636.763672 0)"/>
     <use xlink:href="#DejaVuSans-6d" transform="translate(697.945312 0)"/>
     <use xlink:href="#DejaVuSans-61" transform="translate(795.357422 0)"/>
     <use xlink:href="#DejaVuSans-74" transform="translate(856.636719 0)"/>
     <use xlink:href="#DejaVuSans-6f" transform="translate(895.845703 0)"/>
     <use xlink:href="#DejaVuSans-67" transform="translate(957.027344 0)"/>
     <use xlink:href="#DejaVuSans-72" transform="translate(1020.503906 0)"/>
     <use xlink:href="#DejaVuSans-61" transform="translate(1061.617188 0)"/>
     <use xlink:href="#DejaVuSans-6d" transform="translate(1122.896484 0)"/>
     <use xlink:href="#DejaVuSans-73" transform="translate(1220.308594 0)"/>
     <use xlink:href="#DejaVuSans-3a" transform="translate(1272.408203 0)"/>
     <use xlink:href="#DejaVuSans-20" transform="translate(1306.099609 0)"/>
     <use xlink:href="#DejaVuSans-49" transform="translate(1337.886719 0)"/>
     <use xlink:href="#DejaVuSans-72" transform="translate(1367.378906 0)"/>
     <use xlink:href="#DejaVuSans-43" transform="translate(1408.492188 0)"/>
     <use xlink:href="#DejaVuSans-70" transform="translate(1478.316406 0)"/>
     <use xlink:href="#DejaVuSans-31" transform="translate(1541.792969 0)"/>
     <use xlink:href="#DejaVuSans-46" transform="translate(1605.416016 0)"/>
     <use xlink:href="#DejaVuSans-31" transform="translate(1662.935547 0)"/>
     <use xlink:href="#DejaVuSans-31" transform="translate(1726.558594 0)"/>
     <use xlink:href="#DejaVuSans-2c" transform="translate(1790.181641 0)"/>
     <use xlink:href="#DejaVuSans-20" transform="translate(1821.96875 0)"/>
     <use xlink:href="#DejaVuSans-74" transform="translate(1853.755859 0)"/>
     <use xlink:href="#DejaVuSans-61" transform="translate(1892.964844 0)"/>
     <use xlink:href="#DejaVuSans-72" transform="translate(1954.244141 0)"/>
     <use xlink:href="#DejaVuSans-67" transform="translate(1993.607422 0)"/>
     <use xlink:href="#DejaVuSans-65" transform="translate(2057.083984 0)"/>
     <use xlink:href="#DejaVuSans-74" transform="translate(2118.607422 0)"/>
     <use xlink:href="#DejaVuSans-20" transform="translate(2157.816406 0)"/>
     <use xlink:href="#DejaVuSans-6d" transform="translate(2189.603516 0)"/>
     <use xlink:href="#DejaVuSans-2f" transform="translate(2287.015625 0)"/>
     <use xlink:href="#DejaVuSans-7a" transform="translate(2320.707031 0)"/>
     <use xlink:href="#DejaVuSans-3d" transform="translate(2373.197266 0)"/>
     <use xlink:href="#DejaVuSans-37" transform="translate(2456.986328 0)"/>
     <use xlink:href="#DejaVuSans-32" transform="translate(2520.609375 0)"/>
     <use xlink:href="#DejaVuSans-32" transform="translate(2584.232422 0)"/>
     <use xlink:href="#DejaVuSans-2e" transform="translate(2647.855469 0)"/>
     <use xlink:href="#DejaVuSans-31" transform="translate(2679.642578 0)"/>
     <use xlink:href="#DejaVuSans-35" transform="translate(2743.265625 0)"/>
     <use xlink:href="#DejaVuSans-34" transform="translate(2806.888672 0)"/>
     <use xlink:href="#DejaVuSans-39" transform="translate(2870.511719 0)"/>
     <use xlink:href="#DejaVuSans-39" transform="translate(2934.134766 0)"/>
     <use xlink:href="#DejaVuSans-38" transform="translate(2997.757812 0)"/>
     <use xlink:href="#DejaVuSans-36" transform="translate(3061.380859 0)"/>
    </g>
   </g>
   <g id="legend_1">
    <g id="patch_8">
     <path d="M 685.971875 64.23625 
L 846.2 64.23625 
Q 848.2 64.23625 848.2 62.23625 
L 848.2 33.88 
Q 848.2 31.88 846.2 31.88 
L 685.971875 31.88 
Q 683.971875 31.88 683.971875 33.88 
L 683.971875 62.23625 
Q 683.971875 64.23625 685.971875 64.23625 
z
" style="fill: #ffffff; opacity: 0.8; stroke: #cccccc; stroke-linejoin: miter"/>
    </g>
    <g id="line2d_15">
     <path d="M 687.971875 39.978437 
L 697.971875 39.978437 
L 707.971875 39.978437 
" style="fill: none; stroke: #0000ff; stroke-width: 1.5; stroke-linecap: square"/>
    </g>
    <g id="text_17">
     <!-- UV Intensity (normalized) -->
     <g transform="translate(715.971875 43.478437) scale(0.1 -0.1)">
      <use xlink:href="#DejaVuSans-55"/>
      <use xlink:href="#DejaVuSans-56" transform="translate(73.193359 0)"/>
      <use xlink:href="#DejaVuSans-20" transform="translate(141.601562 0)"/>
      <use xlink:href="#DejaVuSans-49" transform="translate(173.388672 0)"/>
      <use xlink:href="#DejaVuSans-6e" transform="translate(202.880859 0)"/>
      <use xlink:href="#DejaVuSans-74" transform="translate(266.259766 0)"/>
      <use xlink:href="#DejaVuSans-65" transform="translate(305.46875 0)"/>
      <use xlink:href="#DejaVuSans-6e" transform="translate(366.992188 0)"/>
      <use xlink:href="#DejaVuSans-73" transform="translate(430.371094 0)"/>
      <use xlink:href="#DejaVuSans-69" transform="translate(482.470703 0)"/>
      <use xlink:href="#DejaVuSans-74" transform="translate(510.253906 0)"/>
      <use xlink:href="#DejaVuSans-79" transform="translate(549.462891 0)"/>
      <use xlink:href="#DejaVuSans-20" transform="translate(608.642578 0)"/>
      <use xlink:href="#DejaVuSans-28" transform="translate(640.429688 0)"/>
      <use xlink:href="#DejaVuSans-6e" transform="translate(679.443359 0)"/>
      <use xlink:href="#DejaVuSans-6f" transform="translate(742.822266 0)"/>
      <use xlink:href="#DejaVuSans-72" transform="translate(804.003906 0)"/>
      <use xlink:href="#DejaVuSans-6d" transform="translate(843.367188 0)"/>
      <use xlink:href="#DejaVuSans-61" transform="translate(940.779297 0)"/>
      <use xlink:href="#DejaVuSans-6c" transform="translate(1002.058594 0)"/>
      <use xlink:href="#DejaVuSans-69" transform="translate(1029.841797 0)"/>
      <use xlink:href="#DejaVuSans-7a" transform="translate(1057.625 0)"/>
      <use xlink:href="#DejaVuSans-65" transform="translate(1110.115234 0)"/>
      <use xlink:href="#DejaVuSans-64" transform="translate(1171.638672 0)"/>
      <use xlink:href="#DejaVuSans-29" transform="translate(1235.115234 0)"/>
     </g>
    </g>
    <g id="line2d_16">
     <path d="M 687.971875 54.656562 
L 697.971875 54.656562 
L 707.971875 54.656562 
" style="fill: none; stroke: #008000; stroke-width: 1.5; stroke-linecap: square"/>
    </g>
    <g id="text_18">
     <!-- MS Intensity (normalized) -->
     <g transform="translate(715.971875 58.156562) scale(0.1 -0.1)">
      <use xlink:href="#DejaVuSans-4d"/>
      <use xlink:href="#DejaVuSans-53" transform="translate(86.279297 0)"/>
      <use xlink:href="#DejaVuSans-20" transform="translate(149.755859 0)"/>
      <use xlink:href="#DejaVuSans-49" transform="translate(181.542969 0)"/>
      <use xlink:href="#DejaVuSans-6e" transform="translate(211.035156 0)"/>
      <use xlink:href="#DejaVuSans-74" transform="translate(274.414062 0)"/>
      <use xlink:href="#DejaVuSans-65" transform="translate(313.623047 0)"/>
      <use xlink:href="#DejaVuSans-6e" transform="translate(375.146484 0)"/>
      <use xlink:href="#DejaVuSans-73" transform="translate(438.525391 0)"/>
      <use xlink:href="#DejaVuSans-69" transform="translate(490.625 0)"/>
      <use xlink:href="#DejaVuSans-74" transform="translate(518.408203 0)"/>
      <use xlink:href="#DejaVuSans-79" transform="translate(557.617188 0)"/>
      <use xlink:href="#DejaVuSans-20" transform="translate(616.796875 0)"/>
      <use xlink:href="#DejaVuSans-28" transform="translate(648.583984 0)"/>
      <use xlink:href="#DejaVuSans-6e" transform="translate(687.597656 0)"/>
      <use xlink:href="#DejaVuSans-6f" transform="translate(750.976562 0)"/>
      <use xlink:href="#DejaVuSans-72" transform="translate(812.158203 0)"/>
      <use xlink:href="#DejaVuSans-6d" transform="translate(851.521484 0)"/>
      <use xlink:href="#DejaVuSans-61" transform="translate(948.933594 0)"/>
      <use xlink:href="#DejaVuSans-6c" transform="translate(1010.212891 0)"/>
      <use xlink:href="#DejaVuSans-69" transform="translate(1037.996094 0)"/>
      <use xlink:href="#DejaVuSans-7a" transform="translate(1065.779297 0)"/>
      <use xlink:href="#DejaVuSans-65" transform="translate(1118.269531 0)"/>
      <use xlink:href="#DejaVuSans-64" transform="translate(1179.792969 0)"/>
      <use xlink:href="#DejaVuSans-29" transform="translate(1243.269531 0)"/>
     </g>
    </g>
   </g>
  </g>
 </g>
 <defs>
  <clipPath id="p184fb42c4a">
   <rect x="47.72" y="26.88" width="805.48" height="507.16"/>
  </clipPath>
 </defs>
</svg>
