<?xml version="1.0" encoding="utf-8" standalone="no"?>
<!DOCTYPE svg PUBLIC "-//W3C//DTD SVG 1.1//EN"
  "http://www.w3.org/Graphics/SVG/1.1/DTD/svg11.dtd">
<svg xmlns:xlink="http://www.w3.org/1999/xlink" width="864pt" height="576pt" viewBox="0 0 864 576" xmlns="http://www.w3.org/2000/svg" version="1.1">
 <metadata>
  <rdf:RDF xmlns:dc="http://purl.org/dc/elements/1.1/" xmlns:cc="http://creativecommons.org/ns#" xmlns:rdf="http://www.w3.org/1999/02/22-rdf-syntax-ns#">
   <cc:Work>
    <dc:type rdf:resource="http://purl.org/dc/dcmitype/StillImage"/>
    <dc:date>2025-02-07T17:24:35.795323</dc:date>
    <dc:format>image/svg+xml</dc:format>
    <dc:creator>
     <cc:Agent>
      <dc:title>Matplotlib v3.10.0, https://matplotlib.org/</dc:title>
     </cc:Agent>
    </dc:creator>
   </cc:Work>
  </rdf:RDF>
 </metadata>
 <defs>
  <style type="text/css">*{stroke-linejoin: round; stroke-linecap: butt}</style>
 </defs>
 <g id="figure_1">
  <g id="patch_1">
   <path d="M 0 576 
L 864 576 
L 864 0 
L 0 0 
z
" style="fill: #ffffff"/>
  </g>
  <g id="axes_1">
   <g id="patch_2">
    <path d="M 47.72 534.04 
L 853.2 534.04 
L 853.2 26.88 
L 47.72 26.88 
z
" style="fill: #ffffff"/>
   </g>
   <g id="matplotlib.axis_1">
    <g id="xtick_1">
     <g id="line2d_1">
      <defs>
       <path id="m4df2c1646d" d="M 0 0 
L 0 3.5 
" style="stroke: #000000; stroke-width: 0.8"/>
      </defs>
      <g>
       <use xlink:href="#m4df2c1646d" x="83.095596" y="534.04" style="stroke: #000000; stroke-width: 0.8"/>
      </g>
     </g>
     <g id="text_1">
      <!-- 0 -->
      <g transform="translate(79.914346 548.638438) scale(0.1 -0.1)">
       <defs>
        <path id="DejaVuSans-30" d="M 2034 4250 
Q 1547 4250 1301 3770 
Q 1056 3291 1056 2328 
Q 1056 1369 1301 889 
Q 1547 409 2034 409 
Q 2525 409 2770 889 
Q 3016 1369 3016 2328 
Q 3016 3291 2770 3770 
Q 2525 4250 2034 4250 
z
M 2034 4750 
Q 2819 4750 3233 4129 
Q 3647 3509 3647 2328 
Q 3647 1150 3233 529 
Q 2819 -91 2034 -91 
Q 1250 -91 836 529 
Q 422 1150 422 2328 
Q 422 3509 836 4129 
Q 1250 4750 2034 4750 
z
" transform="scale(0.015625)"/>
       </defs>
       <use xlink:href="#DejaVuSans-30"/>
      </g>
     </g>
    </g>
    <g id="xtick_2">
     <g id="line2d_2">
      <g>
       <use xlink:href="#m4df2c1646d" x="229.790997" y="534.04" style="stroke: #000000; stroke-width: 0.8"/>
      </g>
     </g>
     <g id="text_2">
      <!-- 1 -->
      <g transform="translate(226.609747 548.638438) scale(0.1 -0.1)">
       <defs>
        <path id="DejaVuSans-31" d="M 794 531 
L 1825 531 
L 1825 4091 
L 703 3866 
L 703 4441 
L 1819 4666 
L 2450 4666 
L 2450 531 
L 3481 531 
L 3481 0 
L 794 0 
L 794 531 
z
" transform="scale(0.015625)"/>
       </defs>
       <use xlink:href="#DejaVuSans-31"/>
      </g>
     </g>
    </g>
    <g id="xtick_3">
     <g id="line2d_3">
      <g>
       <use xlink:href="#m4df2c1646d" x="376.486399" y="534.04" style="stroke: #000000; stroke-width: 0.8"/>
      </g>
     </g>
     <g id="text_3">
      <!-- 2 -->
      <g transform="translate(373.305149 548.638438) scale(0.1 -0.1)">
       <defs>
        <path id="DejaVuSans-32" d="M 1228 531 
L 3431 531 
L 3431 0 
L 469 0 
L 469 531 
Q 828 903 1448 1529 
Q 2069 2156 2228 2338 
Q 2531 2678 2651 2914 
Q 2772 3150 2772 3378 
Q 2772 3750 2511 3984 
Q 2250 4219 1831 4219 
Q 1534 4219 1204 4116 
Q 875 4013 500 3803 
L 500 4441 
Q 881 4594 1212 4672 
Q 1544 4750 1819 4750 
Q 2544 4750 2975 4387 
Q 3406 4025 3406 3419 
Q 3406 3131 3298 2873 
Q 3191 2616 2906 2266 
Q 2828 2175 2409 1742 
Q 1991 1309 1228 531 
z
" transform="scale(0.015625)"/>
       </defs>
       <use xlink:href="#DejaVuSans-32"/>
      </g>
     </g>
    </g>
    <g id="xtick_4">
     <g id="line2d_4">
      <g>
       <use xlink:href="#m4df2c1646d" x="523.1818" y="534.04" style="stroke: #000000; stroke-width: 0.8"/>
      </g>
     </g>
     <g id="text_4">
      <!-- 3 -->
      <g transform="translate(520.00055 548.638438) scale(0.1 -0.1)">
       <defs>
        <path id="DejaVuSans-33" d="M 2597 2516 
Q 3050 2419 3304 2112 
Q 3559 1806 3559 1356 
Q 3559 666 3084 287 
Q 2609 -91 1734 -91 
Q 1441 -91 1130 -33 
Q 819 25 488 141 
L 488 750 
Q 750 597 1062 519 
Q 1375 441 1716 441 
Q 2309 441 2620 675 
Q 2931 909 2931 1356 
Q 2931 1769 2642 2001 
Q 2353 2234 1838 2234 
L 1294 2234 
L 1294 2753 
L 1863 2753 
Q 2328 2753 2575 2939 
Q 2822 3125 2822 3475 
Q 2822 3834 2567 4026 
Q 2313 4219 1838 4219 
Q 1578 4219 1281 4162 
Q 984 4106 628 3988 
L 628 4550 
Q 988 4650 1302 4700 
Q 1616 4750 1894 4750 
Q 2613 4750 3031 4423 
Q 3450 4097 3450 3541 
Q 3450 3153 3228 2886 
Q 3006 2619 2597 2516 
z
" transform="scale(0.015625)"/>
       </defs>
       <use xlink:href="#DejaVuSans-33"/>
      </g>
     </g>
    </g>
    <g id="xtick_5">
     <g id="line2d_5">
      <g>
       <use xlink:href="#m4df2c1646d" x="669.877202" y="534.04" style="stroke: #000000; stroke-width: 0.8"/>
      </g>
     </g>
     <g id="text_5">
      <!-- 4 -->
      <g transform="translate(666.695952 548.638438) scale(0.1 -0.1)">
       <defs>
        <path id="DejaVuSans-34" d="M 2419 4116 
L 825 1625 
L 2419 1625 
L 2419 4116 
z
M 2253 4666 
L 3047 4666 
L 3047 1625 
L 3713 1625 
L 3713 1100 
L 3047 1100 
L 3047 0 
L 2419 0 
L 2419 1100 
L 313 1100 
L 313 1709 
L 2253 4666 
z
" transform="scale(0.015625)"/>
       </defs>
       <use xlink:href="#DejaVuSans-34"/>
      </g>
     </g>
    </g>
    <g id="xtick_6">
     <g id="line2d_6">
      <g>
       <use xlink:href="#m4df2c1646d" x="816.572603" y="534.04" style="stroke: #000000; stroke-width: 0.8"/>
      </g>
     </g>
     <g id="text_6">
      <!-- 5 -->
      <g transform="translate(813.391353 548.638438) scale(0.1 -0.1)">
       <defs>
        <path id="DejaVuSans-35" d="M 691 4666 
L 3169 4666 
L 3169 4134 
L 1269 4134 
L 1269 2991 
Q 1406 3038 1543 3061 
Q 1681 3084 1819 3084 
Q 2600 3084 3056 2656 
Q 3513 2228 3513 1497 
Q 3513 744 3044 326 
Q 2575 -91 1722 -91 
Q 1428 -91 1123 -41 
Q 819 9 494 109 
L 494 744 
Q 775 591 1075 516 
Q 1375 441 1709 441 
Q 2250 441 2565 725 
Q 2881 1009 2881 1497 
Q 2881 1984 2565 2268 
Q 2250 2553 1709 2553 
Q 1456 2553 1204 2497 
Q 953 2441 691 2322 
L 691 4666 
z
" transform="scale(0.015625)"/>
       </defs>
       <use xlink:href="#DejaVuSans-35"/>
      </g>
     </g>
    </g>
    <g id="text_7">
     <!-- Retention Time (min) -->
     <g transform="translate(397.61 562.316562) scale(0.1 -0.1)">
      <defs>
       <path id="DejaVuSans-52" d="M 2841 2188 
Q 3044 2119 3236 1894 
Q 3428 1669 3622 1275 
L 4263 0 
L 3584 0 
L 2988 1197 
Q 2756 1666 2539 1819 
Q 2322 1972 1947 1972 
L 1259 1972 
L 1259 0 
L 628 0 
L 628 4666 
L 2053 4666 
Q 2853 4666 3247 4331 
Q 3641 3997 3641 3322 
Q 3641 2881 3436 2590 
Q 3231 2300 2841 2188 
z
M 1259 4147 
L 1259 2491 
L 2053 2491 
Q 2509 2491 2742 2702 
Q 2975 2913 2975 3322 
Q 2975 3731 2742 3939 
Q 2509 4147 2053 4147 
L 1259 4147 
z
" transform="scale(0.015625)"/>
       <path id="DejaVuSans-65" d="M 3597 1894 
L 3597 1613 
L 953 1613 
Q 991 1019 1311 708 
Q 1631 397 2203 397 
Q 2534 397 2845 478 
Q 3156 559 3463 722 
L 3463 178 
Q 3153 47 2828 -22 
Q 2503 -91 2169 -91 
Q 1331 -91 842 396 
Q 353 884 353 1716 
Q 353 2575 817 3079 
Q 1281 3584 2069 3584 
Q 2775 3584 3186 3129 
Q 3597 2675 3597 1894 
z
M 3022 2063 
Q 3016 2534 2758 2815 
Q 2500 3097 2075 3097 
Q 1594 3097 1305 2825 
Q 1016 2553 972 2059 
L 3022 2063 
z
" transform="scale(0.015625)"/>
       <path id="DejaVuSans-74" d="M 1172 4494 
L 1172 3500 
L 2356 3500 
L 2356 3053 
L 1172 3053 
L 1172 1153 
Q 1172 725 1289 603 
Q 1406 481 1766 481 
L 2356 481 
L 2356 0 
L 1766 0 
Q 1100 0 847 248 
Q 594 497 594 1153 
L 594 3053 
L 172 3053 
L 172 3500 
L 594 3500 
L 594 4494 
L 1172 4494 
z
" transform="scale(0.015625)"/>
       <path id="DejaVuSans-6e" d="M 3513 2113 
L 3513 0 
L 2938 0 
L 2938 2094 
Q 2938 2591 2744 2837 
Q 2550 3084 2163 3084 
Q 1697 3084 1428 2787 
Q 1159 2491 1159 1978 
L 1159 0 
L 581 0 
L 581 3500 
L 1159 3500 
L 1159 2956 
Q 1366 3272 1645 3428 
Q 1925 3584 2291 3584 
Q 2894 3584 3203 3211 
Q 3513 2838 3513 2113 
z
" transform="scale(0.015625)"/>
       <path id="DejaVuSans-69" d="M 603 3500 
L 1178 3500 
L 1178 0 
L 603 0 
L 603 3500 
z
M 603 4863 
L 1178 4863 
L 1178 4134 
L 603 4134 
L 603 4863 
z
" transform="scale(0.015625)"/>
       <path id="DejaVuSans-6f" d="M 1959 3097 
Q 1497 3097 1228 2736 
Q 959 2375 959 1747 
Q 959 1119 1226 758 
Q 1494 397 1959 397 
Q 2419 397 2687 759 
Q 2956 1122 2956 1747 
Q 2956 2369 2687 2733 
Q 2419 3097 1959 3097 
z
M 1959 3584 
Q 2709 3584 3137 3096 
Q 3566 2609 3566 1747 
Q 3566 888 3137 398 
Q 2709 -91 1959 -91 
Q 1206 -91 779 398 
Q 353 888 353 1747 
Q 353 2609 779 3096 
Q 1206 3584 1959 3584 
z
" transform="scale(0.015625)"/>
       <path id="DejaVuSans-20" transform="scale(0.015625)"/>
       <path id="DejaVuSans-54" d="M -19 4666 
L 3928 4666 
L 3928 4134 
L 2272 4134 
L 2272 0 
L 1638 0 
L 1638 4134 
L -19 4134 
L -19 4666 
z
" transform="scale(0.015625)"/>
       <path id="DejaVuSans-6d" d="M 3328 2828 
Q 3544 3216 3844 3400 
Q 4144 3584 4550 3584 
Q 5097 3584 5394 3201 
Q 5691 2819 5691 2113 
L 5691 0 
L 5113 0 
L 5113 2094 
Q 5113 2597 4934 2840 
Q 4756 3084 4391 3084 
Q 3944 3084 3684 2787 
Q 3425 2491 3425 1978 
L 3425 0 
L 2847 0 
L 2847 2094 
Q 2847 2600 2669 2842 
Q 2491 3084 2119 3084 
Q 1678 3084 1418 2786 
Q 1159 2488 1159 1978 
L 1159 0 
L 581 0 
L 581 3500 
L 1159 3500 
L 1159 2956 
Q 1356 3278 1631 3431 
Q 1906 3584 2284 3584 
Q 2666 3584 2933 3390 
Q 3200 3197 3328 2828 
z
" transform="scale(0.015625)"/>
       <path id="DejaVuSans-28" d="M 1984 4856 
Q 1566 4138 1362 3434 
Q 1159 2731 1159 2009 
Q 1159 1288 1364 580 
Q 1569 -128 1984 -844 
L 1484 -844 
Q 1016 -109 783 600 
Q 550 1309 550 2009 
Q 550 2706 781 3412 
Q 1013 4119 1484 4856 
L 1984 4856 
z
" transform="scale(0.015625)"/>
       <path id="DejaVuSans-29" d="M 513 4856 
L 1013 4856 
Q 1481 4119 1714 3412 
Q 1947 2706 1947 2009 
Q 1947 1309 1714 600 
Q 1481 -109 1013 -844 
L 513 -844 
Q 928 -128 1133 580 
Q 1338 1288 1338 2009 
Q 1338 2731 1133 3434 
Q 928 4138 513 4856 
z
" transform="scale(0.015625)"/>
      </defs>
      <use xlink:href="#DejaVuSans-52"/>
      <use xlink:href="#DejaVuSans-65" transform="translate(64.982422 0)"/>
      <use xlink:href="#DejaVuSans-74" transform="translate(126.505859 0)"/>
      <use xlink:href="#DejaVuSans-65" transform="translate(165.714844 0)"/>
      <use xlink:href="#DejaVuSans-6e" transform="translate(227.238281 0)"/>
      <use xlink:href="#DejaVuSans-74" transform="translate(290.617188 0)"/>
      <use xlink:href="#DejaVuSans-69" transform="translate(329.826172 0)"/>
      <use xlink:href="#DejaVuSans-6f" transform="translate(357.609375 0)"/>
      <use xlink:href="#DejaVuSans-6e" transform="translate(418.791016 0)"/>
      <use xlink:href="#DejaVuSans-20" transform="translate(482.169922 0)"/>
      <use xlink:href="#DejaVuSans-54" transform="translate(513.957031 0)"/>
      <use xlink:href="#DejaVuSans-69" transform="translate(571.916016 0)"/>
      <use xlink:href="#DejaVuSans-6d" transform="translate(599.699219 0)"/>
      <use xlink:href="#DejaVuSans-65" transform="translate(697.111328 0)"/>
      <use xlink:href="#DejaVuSans-20" transform="translate(758.634766 0)"/>
      <use xlink:href="#DejaVuSans-28" transform="translate(790.421875 0)"/>
      <use xlink:href="#DejaVuSans-6d" transform="translate(829.435547 0)"/>
      <use xlink:href="#DejaVuSans-69" transform="translate(926.847656 0)"/>
      <use xlink:href="#DejaVuSans-6e" transform="translate(954.630859 0)"/>
      <use xlink:href="#DejaVuSans-29" transform="translate(1018.009766 0)"/>
     </g>
    </g>
   </g>
   <g id="matplotlib.axis_2">
    <g id="ytick_1">
     <g id="line2d_7">
      <defs>
       <path id="m4fe9f9a1d4" d="M 0 0 
L -3.5 0 
" style="stroke: #000000; stroke-width: 0.8"/>
      </defs>
      <g>
       <use xlink:href="#m4fe9f9a1d4" x="47.72" y="510.812909" style="stroke: #000000; stroke-width: 0.8"/>
      </g>
     </g>
     <g id="text_8">
      <!-- 0.0 -->
      <g style="fill: #0000ff" transform="translate(24.816875 514.612128) scale(0.1 -0.1)">
       <defs>
        <path id="DejaVuSans-2e" d="M 684 794 
L 1344 794 
L 1344 0 
L 684 0 
L 684 794 
z
" transform="scale(0.015625)"/>
       </defs>
       <use xlink:href="#DejaVuSans-30"/>
       <use xlink:href="#DejaVuSans-2e" transform="translate(63.623047 0)"/>
       <use xlink:href="#DejaVuSans-30" transform="translate(95.410156 0)"/>
      </g>
     </g>
    </g>
    <g id="ytick_2">
     <g id="line2d_8">
      <g>
       <use xlink:href="#m4fe9f9a1d4" x="47.72" y="418.636873" style="stroke: #000000; stroke-width: 0.8"/>
      </g>
     </g>
     <g id="text_9">
      <!-- 0.5 -->
      <g style="fill: #0000ff" transform="translate(24.816875 422.436092) scale(0.1 -0.1)">
       <use xlink:href="#DejaVuSans-30"/>
       <use xlink:href="#DejaVuSans-2e" transform="translate(63.623047 0)"/>
       <use xlink:href="#DejaVuSans-35" transform="translate(95.410156 0)"/>
      </g>
     </g>
    </g>
    <g id="ytick_3">
     <g id="line2d_9">
      <g>
       <use xlink:href="#m4fe9f9a1d4" x="47.72" y="326.460836" style="stroke: #000000; stroke-width: 0.8"/>
      </g>
     </g>
     <g id="text_10">
      <!-- 1.0 -->
      <g style="fill: #0000ff" transform="translate(24.816875 330.260055) scale(0.1 -0.1)">
       <use xlink:href="#DejaVuSans-31"/>
       <use xlink:href="#DejaVuSans-2e" transform="translate(63.623047 0)"/>
       <use xlink:href="#DejaVuSans-30" transform="translate(95.410156 0)"/>
      </g>
     </g>
    </g>
    <g id="ytick_4">
     <g id="line2d_10">
      <g>
       <use xlink:href="#m4fe9f9a1d4" x="47.72" y="234.2848" style="stroke: #000000; stroke-width: 0.8"/>
      </g>
     </g>
     <g id="text_11">
      <!-- 1.5 -->
      <g style="fill: #0000ff" transform="translate(24.816875 238.084019) scale(0.1 -0.1)">
       <use xlink:href="#DejaVuSans-31"/>
       <use xlink:href="#DejaVuSans-2e" transform="translate(63.623047 0)"/>
       <use xlink:href="#DejaVuSans-35" transform="translate(95.410156 0)"/>
      </g>
     </g>
    </g>
    <g id="ytick_5">
     <g id="line2d_11">
      <g>
       <use xlink:href="#m4fe9f9a1d4" x="47.72" y="142.108764" style="stroke: #000000; stroke-width: 0.8"/>
      </g>
     </g>
     <g id="text_12">
      <!-- 2.0 -->
      <g style="fill: #0000ff" transform="translate(24.816875 145.907982) scale(0.1 -0.1)">
       <use xlink:href="#DejaVuSans-32"/>
       <use xlink:href="#DejaVuSans-2e" transform="translate(63.623047 0)"/>
       <use xlink:href="#DejaVuSans-30" transform="translate(95.410156 0)"/>
      </g>
     </g>
    </g>
    <g id="ytick_6">
     <g id="line2d_12">
      <g>
       <use xlink:href="#m4fe9f9a1d4" x="47.72" y="49.932727" style="stroke: #000000; stroke-width: 0.8"/>
      </g>
     </g>
     <g id="text_13">
      <!-- 2.5 -->
      <g style="fill: #0000ff" transform="translate(24.816875 53.731946) scale(0.1 -0.1)">
       <use xlink:href="#DejaVuSans-32"/>
       <use xlink:href="#DejaVuSans-2e" transform="translate(63.623047 0)"/>
       <use xlink:href="#DejaVuSans-35" transform="translate(95.410156 0)"/>
      </g>
     </g>
    </g>
    <g id="text_14">
     <!-- Normalized Intensity -->
     <g style="fill: #0000ff" transform="translate(18.737187 332.167031) rotate(-90) scale(0.1 -0.1)">
      <defs>
       <path id="DejaVuSans-4e" d="M 628 4666 
L 1478 4666 
L 3547 763 
L 3547 4666 
L 4159 4666 
L 4159 0 
L 3309 0 
L 1241 3903 
L 1241 0 
L 628 0 
L 628 4666 
z
" transform="scale(0.015625)"/>
       <path id="DejaVuSans-72" d="M 2631 2963 
Q 2534 3019 2420 3045 
Q 2306 3072 2169 3072 
Q 1681 3072 1420 2755 
Q 1159 2438 1159 1844 
L 1159 0 
L 581 0 
L 581 3500 
L 1159 3500 
L 1159 2956 
Q 1341 3275 1631 3429 
Q 1922 3584 2338 3584 
Q 2397 3584 2469 3576 
Q 2541 3569 2628 3553 
L 2631 2963 
z
" transform="scale(0.015625)"/>
       <path id="DejaVuSans-61" d="M 2194 1759 
Q 1497 1759 1228 1600 
Q 959 1441 959 1056 
Q 959 750 1161 570 
Q 1363 391 1709 391 
Q 2188 391 2477 730 
Q 2766 1069 2766 1631 
L 2766 1759 
L 2194 1759 
z
M 3341 1997 
L 3341 0 
L 2766 0 
L 2766 531 
Q 2569 213 2275 61 
Q 1981 -91 1556 -91 
Q 1019 -91 701 211 
Q 384 513 384 1019 
Q 384 1609 779 1909 
Q 1175 2209 1959 2209 
L 2766 2209 
L 2766 2266 
Q 2766 2663 2505 2880 
Q 2244 3097 1772 3097 
Q 1472 3097 1187 3025 
Q 903 2953 641 2809 
L 641 3341 
Q 956 3463 1253 3523 
Q 1550 3584 1831 3584 
Q 2591 3584 2966 3190 
Q 3341 2797 3341 1997 
z
" transform="scale(0.015625)"/>
       <path id="DejaVuSans-6c" d="M 603 4863 
L 1178 4863 
L 1178 0 
L 603 0 
L 603 4863 
z
" transform="scale(0.015625)"/>
       <path id="DejaVuSans-7a" d="M 353 3500 
L 3084 3500 
L 3084 2975 
L 922 459 
L 3084 459 
L 3084 0 
L 275 0 
L 275 525 
L 2438 3041 
L 353 3041 
L 353 3500 
z
" transform="scale(0.015625)"/>
       <path id="DejaVuSans-64" d="M 2906 2969 
L 2906 4863 
L 3481 4863 
L 3481 0 
L 2906 0 
L 2906 525 
Q 2725 213 2448 61 
Q 2172 -91 1784 -91 
Q 1150 -91 751 415 
Q 353 922 353 1747 
Q 353 2572 751 3078 
Q 1150 3584 1784 3584 
Q 2172 3584 2448 3432 
Q 2725 3281 2906 2969 
z
M 947 1747 
Q 947 1113 1208 752 
Q 1469 391 1925 391 
Q 2381 391 2643 752 
Q 2906 1113 2906 1747 
Q 2906 2381 2643 2742 
Q 2381 3103 1925 3103 
Q 1469 3103 1208 2742 
Q 947 2381 947 1747 
z
" transform="scale(0.015625)"/>
       <path id="DejaVuSans-49" d="M 628 4666 
L 1259 4666 
L 1259 0 
L 628 0 
L 628 4666 
z
" transform="scale(0.015625)"/>
       <path id="DejaVuSans-73" d="M 2834 3397 
L 2834 2853 
Q 2591 2978 2328 3040 
Q 2066 3103 1784 3103 
Q 1356 3103 1142 2972 
Q 928 2841 928 2578 
Q 928 2378 1081 2264 
Q 1234 2150 1697 2047 
L 1894 2003 
Q 2506 1872 2764 1633 
Q 3022 1394 3022 966 
Q 3022 478 2636 193 
Q 2250 -91 1575 -91 
Q 1294 -91 989 -36 
Q 684 19 347 128 
L 347 722 
Q 666 556 975 473 
Q 1284 391 1588 391 
Q 1994 391 2212 530 
Q 2431 669 2431 922 
Q 2431 1156 2273 1281 
Q 2116 1406 1581 1522 
L 1381 1569 
Q 847 1681 609 1914 
Q 372 2147 372 2553 
Q 372 3047 722 3315 
Q 1072 3584 1716 3584 
Q 2034 3584 2315 3537 
Q 2597 3491 2834 3397 
z
" transform="scale(0.015625)"/>
       <path id="DejaVuSans-79" d="M 2059 -325 
Q 1816 -950 1584 -1140 
Q 1353 -1331 966 -1331 
L 506 -1331 
L 506 -850 
L 844 -850 
Q 1081 -850 1212 -737 
Q 1344 -625 1503 -206 
L 1606 56 
L 191 3500 
L 800 3500 
L 1894 763 
L 2988 3500 
L 3597 3500 
L 2059 -325 
z
" transform="scale(0.015625)"/>
      </defs>
      <use xlink:href="#DejaVuSans-4e"/>
      <use xlink:href="#DejaVuSans-6f" transform="translate(74.804688 0)"/>
      <use xlink:href="#DejaVuSans-72" transform="translate(135.986328 0)"/>
      <use xlink:href="#DejaVuSans-6d" transform="translate(175.349609 0)"/>
      <use xlink:href="#DejaVuSans-61" transform="translate(272.761719 0)"/>
      <use xlink:href="#DejaVuSans-6c" transform="translate(334.041016 0)"/>
      <use xlink:href="#DejaVuSans-69" transform="translate(361.824219 0)"/>
      <use xlink:href="#DejaVuSans-7a" transform="translate(389.607422 0)"/>
      <use xlink:href="#DejaVuSans-65" transform="translate(442.097656 0)"/>
      <use xlink:href="#DejaVuSans-64" transform="translate(503.621094 0)"/>
      <use xlink:href="#DejaVuSans-20" transform="translate(567.097656 0)"/>
      <use xlink:href="#DejaVuSans-49" transform="translate(598.884766 0)"/>
      <use xlink:href="#DejaVuSans-6e" transform="translate(628.376953 0)"/>
      <use xlink:href="#DejaVuSans-74" transform="translate(691.755859 0)"/>
      <use xlink:href="#DejaVuSans-65" transform="translate(730.964844 0)"/>
      <use xlink:href="#DejaVuSans-6e" transform="translate(792.488281 0)"/>
      <use xlink:href="#DejaVuSans-73" transform="translate(855.867188 0)"/>
      <use xlink:href="#DejaVuSans-69" transform="translate(907.966797 0)"/>
      <use xlink:href="#DejaVuSans-74" transform="translate(935.75 0)"/>
      <use xlink:href="#DejaVuSans-79" transform="translate(974.958984 0)"/>
     </g>
    </g>
   </g>
   <g id="line2d_13">
    <path d="M 84.332727 510.812909 
L 91.667497 510.71835 
L 100.224729 510.542176 
L 112.449346 510.553174 
L 138.121041 510.721802 
L 149.123196 510.528754 
L 150.345658 510.306963 
L 151.56812 509.657053 
L 152.790581 508.358835 
L 156.457966 502.673503 
L 157.680428 501.702113 
L 158.90289 501.589947 
L 160.125351 502.184976 
L 161.347813 503.207337 
L 163.792736 505.482452 
L 165.015198 506.374159 
L 166.23766 506.974517 
L 167.460121 507.290175 
L 169.905045 507.430641 
L 173.57243 507.592319 
L 176.017353 507.958394 
L 178.462277 508.626944 
L 180.9072 509.377016 
L 182.129662 509.557791 
L 183.352123 509.466542 
L 185.797047 508.91986 
L 187.019508 508.946746 
L 190.686893 509.762859 
L 204.133972 510.547846 
L 216.358589 510.488145 
L 295.818598 510.541795 
L 327.602601 510.489075 
L 331.269986 510.297811 
L 336.159833 510.409952 
L 344.717065 510.470853 
L 352.051835 510.313944 
L 356.941682 510.129752 
L 361.831528 510.187094 
L 363.05399 509.50229 
L 364.276452 507.309745 
L 365.498913 503.092206 
L 366.721375 497.768902 
L 367.943837 493.459087 
L 369.166298 491.918207 
L 370.38876 493.364711 
L 371.611222 496.693959 
L 372.833683 500.463026 
L 374.056145 503.665917 
L 375.278607 505.934442 
L 376.501068 507.350074 
L 377.72353 508.170077 
L 378.945992 508.638556 
L 380.168453 508.910525 
L 382.613377 509.108464 
L 387.503224 509.157468 
L 389.948147 509.299845 
L 391.170609 509.236214 
L 392.39307 508.978482 
L 393.615532 508.326422 
L 394.837994 506.781641 
L 396.060455 503.844485 
L 398.505379 496.146438 
L 399.72784 494.325907 
L 400.950302 494.924399 
L 402.172764 497.321523 
L 404.617687 503.157388 
L 405.840149 505.207906 
L 407.06261 506.521428 
L 408.285072 507.307371 
L 409.507534 507.803484 
L 411.952457 508.504054 
L 414.39738 509.064302 
L 416.842304 509.419298 
L 419.287227 509.547454 
L 425.399536 509.725911 
L 429.066921 509.811618 
L 430.289382 509.720948 
L 432.734306 509.2242 
L 435.179229 508.741759 
L 436.401691 508.653225 
L 438.846614 508.785149 
L 447.403846 509.738703 
L 451.071231 509.912339 
L 453.516154 509.830293 
L 457.183539 509.644754 
L 468.185694 509.888662 
L 470.630618 509.670954 
L 474.298003 509.190536 
L 476.742926 509.267188 
L 481.632773 509.620074 
L 484.077696 509.653352 
L 486.52262 509.421784 
L 491.412466 508.548909 
L 492.634928 508.131141 
L 493.85739 507.436214 
L 496.302313 505.59742 
L 497.524775 505.068055 
L 498.747236 505.109187 
L 499.969698 505.662937 
L 502.414621 507.322334 
L 503.637083 507.979901 
L 504.859545 508.423055 
L 506.082006 508.690539 
L 507.304468 508.802431 
L 508.52693 508.66709 
L 509.749391 508.052806 
L 510.971853 506.73485 
L 513.416776 502.732965 
L 514.639238 501.213479 
L 515.8617 500.609878 
L 517.084161 500.585717 
L 518.306623 498.733754 
L 519.529085 488.70411 
L 520.751547 462.549577 
L 521.974008 419.279568 
L 523.19647 370.708616 
L 524.418932 335.505612 
L 525.641393 326.460836 
L 526.863855 343.286606 
L 530.53124 440.234332 
L 531.753702 461.112515 
L 532.976163 474.427025 
L 534.198625 482.730748 
L 535.421087 488.309278 
L 536.643548 492.506596 
L 537.86601 495.80037 
L 539.088472 498.219902 
L 540.310933 499.811341 
L 541.533395 500.853841 
L 543.978318 502.647486 
L 547.645703 505.647872 
L 548.868165 506.46155 
L 550.090627 507.112232 
L 551.313088 507.605193 
L 552.53555 507.953722 
L 553.758012 508.151692 
L 554.980474 508.181644 
L 558.647859 507.93254 
L 559.87032 508.081085 
L 562.315244 508.717832 
L 564.760167 509.35855 
L 567.20509 509.689354 
L 570.872475 509.747133 
L 575.762322 509.774604 
L 597.766632 510.298355 
L 602.656479 510.242905 
L 607.546326 510.225267 
L 617.326019 510.360242 
L 656.444793 510.438659 
L 668.66941 510.498746 
L 720.0128 510.6572 
L 737.127264 510.725168 
L 786.025731 510.854733 
L 816.587273 510.987273 
L 816.587273 510.987273 
" clip-path="url(#p98c7e76a3a)" style="fill: none; stroke: #0000ff; stroke-width: 1.5; stroke-linecap: square"/>
   </g>
   <g id="line2d_14">
    <path d="M 92.739107 234.27843 
L 365.89279 234.257057 
L 365.89279 234.201033 
L 366.238992 234.167774 
L 366.238992 234.016184 
L 366.583726 233.984461 
L 366.583726 233.725072 
L 366.932861 233.724624 
L 366.932861 233.389737 
L 367.276862 233.476318 
L 367.276862 233.053283 
L 367.618662 233.23406 
L 367.618662 232.692476 
L 367.953861 232.936798 
L 367.953861 232.34833 
L 368.286126 232.723574 
L 368.286126 232.242133 
L 368.622792 232.739414 
L 368.622792 232.162921 
L 368.952612 232.69096 
L 368.952612 232.060049 
L 369.282188 232.514389 
L 369.282188 231.947715 
L 369.61103 232.541208 
L 369.61103 231.99639 
L 369.939872 232.580303 
L 369.939872 231.924048 
L 370.268714 232.475376 
L 370.268714 231.989857 
L 370.597312 232.553974 
L 370.597312 232.093002 
L 370.92591 232.70783 
L 370.92591 232.211147 
L 371.254263 232.67507 
L 371.254263 232.108794 
L 371.583105 232.604812 
L 371.583105 232.061907 
L 371.917326 232.579849 
L 371.917326 232.099831 
L 372.246168 232.594417 
L 372.246168 232.049339 
L 372.574766 232.667611 
L 372.574766 232.136828 
L 372.904342 232.645551 
L 372.904342 232.225405 
L 373.234162 232.77996 
L 373.234162 232.153084 
L 373.563493 232.694579 
L 373.563493 232.235087 
L 373.892824 232.717363 
L 373.892824 232.157722 
L 374.2224 232.788631 
L 374.2224 232.2007 
L 374.552709 232.657351 
L 374.552709 232.249444 
L 374.883263 232.794475 
L 374.883263 232.150606 
L 375.213572 232.73601 
L 375.213572 232.310101 
L 375.54437 232.739521 
L 375.54437 232.221799 
L 375.875413 232.813239 
L 375.875413 232.300763 
L 376.2067 232.744718 
L 376.2067 232.267758 
L 376.53872 232.805872 
L 376.53872 232.326257 
L 376.875386 232.857264 
L 376.875386 232.324255 
L 377.206673 232.818815 
L 377.206673 232.30621 
L 377.539183 232.811343 
L 377.539183 232.375408 
L 377.871203 232.916596 
L 377.871203 232.487664 
L 378.204691 232.999679 
L 378.204691 232.580706 
L 378.538668 232.986374 
L 378.538668 232.492655 
L 378.871911 232.927717 
L 378.871911 232.500424 
L 379.211021 232.950149 
L 379.211021 232.517382 
L 379.545487 232.995767 
L 379.545487 232.563619 
L 379.880686 232.96972 
L 379.880686 232.566036 
L 380.216129 233.023484 
L 380.216129 232.58966 
L 380.551573 232.99163 
L 380.551573 232.595413 
L 380.888239 232.988886 
L 380.888239 232.654754 
L 381.225883 233.088591 
L 381.225883 232.722128 
L 381.562304 233.154709 
L 381.562304 232.777999 
L 381.905083 233.098768 
L 381.905083 232.739692 
L 382.242482 233.146925 
L 382.242482 232.812759 
L 382.581837 233.216663 
L 382.581837 232.969361 
L 382.91997 233.335702 
L 382.91997 232.948647 
L 383.260059 233.275734 
L 383.260059 232.872095 
L 383.598192 233.129874 
L 383.598192 232.799359 
L 383.93877 233.181004 
L 383.93877 232.823256 
L 384.279103 233.226204 
L 384.279103 232.933089 
L 384.621637 233.292059 
L 384.621637 233.07341 
L 384.962215 233.456518 
L 384.962215 233.0994 
L 385.303037 233.385468 
L 385.303037 233.059623 
L 385.643615 233.260585 
L 385.643615 232.961483 
L 385.984437 233.305704 
L 385.984437 233.07115 
L 386.326971 233.406696 
L 386.326971 233.157149 
L 386.668038 233.471928 
L 386.668038 233.19784 
L 387.015706 233.467315 
L 387.015706 233.126136 
L 387.358484 233.411409 
L 387.358484 233.108256 
L 387.700529 233.412477 
L 387.700529 233.188739 
L 388.043063 233.51287 
L 388.043063 233.275402 
L 388.385596 233.577218 
L 388.385596 233.286321 
L 388.728375 233.523404 
L 388.728375 233.32128 
L 389.071153 233.557682 
L 389.071153 233.320223 
L 389.413687 233.593212 
L 389.413687 233.344186 
L 389.756465 233.567588 
L 389.756465 233.320225 
L 390.099488 233.558063 
L 390.099488 233.322515 
L 390.44251 233.565401 
L 390.44251 233.361367 
L 390.785289 233.608949 
L 390.785289 233.385604 
L 391.128311 233.624707 
L 391.128311 233.398726 
L 391.471823 233.602462 
L 391.471823 233.403967 
L 391.814846 233.634593 
L 391.814846 233.416256 
L 392.168382 233.630732 
L 392.168382 233.451386 
L 392.511405 233.647954 
L 392.511405 233.445532 
L 392.854427 233.689901 
L 392.854427 233.466147 
L 393.197695 233.653315 
L 393.197695 233.470885 
L 393.540962 233.680054 
L 393.540962 233.486976 
L 393.884229 233.73288 
L 393.884229 233.575966 
L 394.227741 233.779532 
L 394.227741 233.595986 
L 394.571008 233.789077 
L 394.571008 233.635788 
L 394.913542 233.79639 
L 394.913542 233.633529 
L 395.256809 233.812515 
L 395.256809 233.65085 
L 395.599832 233.801147 
L 395.599832 233.649548 
L 395.942366 233.80815 
L 395.942366 233.657093 
L 396.627678 233.868784 
L 396.627678 233.767809 
L 396.969967 233.918311 
L 396.969967 233.799027 
L 397.31739 233.919942 
L 397.31739 233.8092 
L 398.001969 233.937316 
L 398.001969 233.834097 
L 398.679702 233.972381 
L 398.679702 233.847247 
L 399.346188 233.935608 
L 399.346188 233.855796 
L 400.009007 233.977516 
L 400.009007 233.898923 
L 400.668402 234.032776 
L 400.668402 233.982004 
L 400.997489 233.982482 
L 401.327309 233.854933 
L 402.320193 234.07439 
L 402.320193 233.988908 
L 404.963644 233.94251 
L 404.963644 233.95024 
L 405.625973 234.032084 
L 405.625973 233.959065 
L 406.620568 233.858792 
L 407.956963 234.070187 
L 407.956963 234.001483 
L 408.623694 234.068526 
L 408.623694 233.983249 
L 409.293603 234.051124 
L 409.293603 233.960353 
L 409.961556 234.060514 
L 409.961556 233.963181 
L 410.296022 234.049172 
L 410.296022 233.93903 
L 410.968375 234.032226 
L 410.968375 233.95468 
L 411.640974 234.050047 
L 411.640974 233.976337 
L 412.318218 234.07228 
L 412.318218 234.018803 
L 412.998884 234.085475 
L 412.998884 234.007489 
L 413.674417 234.089068 
L 413.674417 233.992678 
L 414.356795 234.051133 
L 414.356795 233.995473 
L 415.035016 234.096161 
L 415.035016 234.035816 
L 415.715683 234.099052 
L 415.715683 234.038894 
L 416.400017 234.092853 
L 416.400017 234.016827 
L 417.08484 234.061897 
L 417.08484 233.999012 
L 417.776509 234.073516 
L 417.776509 234.010233 
L 418.806066 234.090616 
L 418.806066 234.021956 
L 419.835624 234.114816 
L 419.835624 234.035791 
L 420.524114 234.078134 
L 420.524114 234.000859 
L 421.211137 234.101259 
L 421.211137 234.051628 
L 421.902806 234.13571 
L 421.902806 234.072535 
L 422.595697 234.091658 
L 422.595697 234.032905 
L 423.626966 234.118866 
L 423.626966 234.06116 
L 424.658724 234.130875 
L 424.658724 234.079838 
L 425.690237 234.126584 
L 425.690237 234.075394 
L 426.722484 234.113802 
L 426.722484 234.071422 
L 427.760598 234.129646 
L 427.760598 234.095316 
L 428.793089 234.129856 
L 428.793089 234.0808 
L 429.826069 234.129722 
L 429.826069 234.085897 
L 431.203784 234.112551 
L 431.203784 234.073711 
L 432.243121 234.140212 
L 432.243121 234.084207 
L 432.937723 234.103264 
L 432.937723 234.049571 
L 433.625725 234.118625 
L 433.625725 234.03627 
L 434.314215 234.06449 
L 434.314215 233.959516 
L 434.657971 234.029979 
L 434.657971 233.906395 
L 435.001239 233.94532 
L 435.001239 233.779839 
L 435.34475 233.862683 
L 435.34475 233.727676 
L 435.687773 233.842811 
L 435.687773 233.713322 
L 436.030796 233.868173 
L 436.030796 233.720913 
L 436.373574 233.84661 
L 436.373574 233.686318 
L 436.716352 233.814278 
L 436.716352 233.662802 
L 437.059131 233.819421 
L 437.059131 233.674173 
L 437.402398 233.839532 
L 437.402398 233.720562 
L 437.746154 233.853018 
L 437.746154 233.717491 
L 438.094067 233.865277 
L 438.094067 233.69593 
L 438.4366 233.824696 
L 438.4366 233.69122 
L 439.122157 233.861095 
L 439.122157 233.719727 
L 439.46518 233.857646 
L 439.46518 233.740593 
L 440.150736 233.898273 
L 440.150736 233.800769 
L 440.49327 233.914277 
L 440.49327 233.790634 
L 441.179071 233.92368 
L 441.179071 233.795974 
L 441.869028 233.928545 
L 441.869028 233.833999 
L 442.555074 233.983981 
L 442.555074 233.871673 
L 442.898097 233.972908 
L 442.898097 233.907165 
L 444.618345 233.918251 
L 444.618345 233.927825 
L 445.647657 233.962633 
L 446.333703 234.014153 
L 446.333703 233.955431 
L 447.019993 234.001809 
L 447.019993 233.935905 
L 447.707261 233.944217 
L 447.707261 233.891511 
L 448.743908 233.98396 
L 448.743908 233.949333 
L 449.774688 233.946003 
L 449.774688 233.90938 
L 450.80669 233.991287 
L 450.80669 233.948944 
L 452.183915 234.021062 
L 452.183915 233.961754 
L 453.567987 234.05738 
L 453.567987 234.010705 
L 454.600967 234.056757 
L 454.600967 234.002254 
L 455.63957 234.036527 
L 455.63957 233.997054 
L 456.672061 234.01444 
L 456.672061 233.93179 
L 457.359818 233.97885 
L 457.359818 233.897291 
L 457.703574 233.99227 
L 457.703574 233.885723 
L 458.391087 233.947563 
L 458.391087 233.854486 
L 459.084223 233.942213 
L 459.084223 233.855015 
L 459.771735 233.946893 
L 459.771735 233.875195 
L 460.459492 233.993252 
L 460.459492 233.917488 
L 461.147493 233.99813 
L 461.147493 233.930924 
L 461.835739 234.019453 
L 461.835739 233.945806 
L 462.523985 234.014146 
L 462.523985 233.95999 
L 463.212476 234.035757 
L 463.212476 233.98196 
L 463.907567 234.087117 
L 463.907567 234.019844 
L 464.596058 234.04652 
L 464.596058 233.995982 
L 465.284059 234.087031 
L 465.284059 234.02223 
L 466.322907 234.07007 
L 466.322907 234.031814 
L 467.700377 234.10976 
L 467.700377 234.076333 
L 468.389112 234.110939 
L 468.389112 234.051924 
L 472.869434 234.108275 
L 472.869434 234.043382 
L 473.556457 234.081245 
L 473.556457 234.024374 
L 474.248371 234.056185 
L 474.248371 233.976662 
L 474.934661 234.017083 
L 474.934661 233.921106 
L 475.277684 233.97701 
L 475.277684 233.867715 
L 475.620706 233.918102 
L 475.620706 233.802217 
L 476.306263 233.846824 
L 476.306263 233.74653 
L 476.991819 233.85588 
L 476.991819 233.767957 
L 477.334598 233.866221 
L 477.334598 233.778171 
L 478.020888 233.851406 
L 478.020888 233.770877 
L 478.36391 233.847733 
L 478.36391 233.806593 
L 479.399091 233.845986 
L 480.085625 233.952244 
L 480.085625 233.902708 
L 483.867677 234.051117 
L 483.867677 234.00359 
L 484.903836 234.053481 
L 484.903836 234.005845 
L 485.591348 234.057376 
L 485.591348 234.016354 
L 491.093159 234.056415 
L 491.776026 234.121408 
L 491.776026 234.037214 
L 492.122961 234.063891 
L 492.122961 233.992134 
L 493.83563 233.758599 
L 493.83563 233.631831 
L 494.177675 233.672872 
L 494.177675 233.540406 
L 495.209188 233.286563 
L 495.209188 233.214011 
L 495.551477 233.265459 
L 495.551477 233.136967 
L 496.226031 233.225711 
L 496.226031 233.025955 
L 496.56612 233.058255 
L 496.56612 232.863292 
L 496.904253 232.974693 
L 496.904253 232.723736 
L 497.241164 232.938209 
L 497.241164 232.779379 
L 497.578318 232.964444 
L 497.578318 232.599181 
L 497.912784 232.845039 
L 497.912784 232.562494 
L 498.248472 232.743552 
L 498.248472 232.543353 
L 498.581959 232.860508 
L 498.581959 232.563886 
L 498.914225 232.835737 
L 498.914225 232.577914 
L 499.247223 232.771822 
L 499.247223 232.512787 
L 499.579977 232.812031 
L 499.579977 232.503742 
L 499.91811 232.776519 
L 499.91811 232.459913 
L 500.252087 232.72521 
L 500.252087 232.439841 
L 500.584596 232.737792 
L 500.584596 232.482614 
L 500.917106 232.776058 
L 500.917106 232.51487 
L 501.249615 232.834086 
L 501.249615 232.631162 
L 501.581636 232.833481 
L 501.581636 232.598557 
L 501.917079 232.862735 
L 501.917079 232.583122 
L 502.919987 233.097881 
L 502.919987 232.921255 
L 503.255675 233.120452 
L 503.255675 232.955778 
L 503.255675 233.130031 
L 504.272274 233.271129 
L 504.272274 233.103533 
L 504.610407 233.279697 
L 504.610407 233.084222 
L 504.954408 233.310499 
L 504.954408 233.128538 
L 505.631163 233.391106 
L 505.631163 233.215649 
L 505.972963 233.394519 
L 505.972963 233.250614 
L 506.315986 233.409591 
L 506.315986 233.255721 
L 506.657786 233.430047 
L 506.657786 233.302016 
L 506.999586 233.438223 
L 506.999586 233.300624 
L 507.681964 233.466976 
L 507.681964 233.328144 
L 508.02352 233.421028 
L 508.02352 233.293357 
L 508.36532 233.376459 
L 508.36532 233.214098 
L 509.048921 233.25487 
L 509.048921 233.141147 
L 509.732766 233.254931 
L 509.732766 233.206667 
L 510.423701 233.269019 
L 510.423701 233.159489 
L 511.455703 233.33743 
L 511.455703 233.298195 
L 512.482082 233.475811 
L 512.482082 233.372016 
L 513.166172 233.555752 
L 513.166172 233.483256 
L 514.193529 233.706124 
L 514.193529 233.682214 
L 515.206949 233.756927 
L 515.206949 233.748166 
L 515.87368 233.838249 
L 515.87368 233.757695 
L 517.201762 233.922712 
L 517.201762 233.915917 
L 518.867978 233.953375 
L 519.532263 234.07173 
L 519.532263 234.025517 
L 521.198234 234.140705 
L 521.198234 234.033989 
L 521.530988 233.936526 
L 521.530988 233.499703 
L 521.863498 233.315068 
L 521.863498 231.947794 
L 522.195029 231.558231 
L 522.195029 228.315346 
L 522.527294 227.916327 
L 522.527294 222.30656 
L 522.859315 221.646788 
L 522.859315 212.290576 
L 523.188646 211.72876 
L 523.188646 196.891488 
L 523.516266 199.924094 
L 523.516266 182.081104 
L 523.843641 185.99728 
L 523.843641 165.142876 
L 524.170527 174.624223 
L 524.170527 147.167985 
L 524.497169 161.968365 
L 524.497169 126.818136 
L 524.823811 142.03704 
L 524.823811 103.387469 
L 525.155587 125.668106 
L 525.155587 87.31081 
L 525.482229 116.715866 
L 525.482229 76.432243 
L 525.808626 109.989661 
L 525.808626 65.016724 
L 526.134779 95.877354 
L 526.134779 60.42896 
L 526.464354 97.512934 
L 526.464354 55.908682 
L 526.790752 98.377129 
L 526.790752 56.488183 
L 527.116904 96.031107 
L 527.116904 53.191554 
L 527.443302 93.321441 
L 527.443302 49.932727 
L 527.769699 94.444269 
L 527.769699 51.627826 
L 528.096096 94.324109 
L 528.096096 58.253097 
L 528.422249 100.084343 
L 528.422249 58.409743 
L 528.748402 102.6703 
L 528.748402 69.93924 
L 529.074799 108.972435 
L 529.074799 74.629548 
L 529.401196 117.803284 
L 529.401196 79.081805 
L 529.727349 115.858227 
L 529.727349 84.555458 
L 530.05937 125.80699 
L 530.05937 95.231868 
L 530.385767 133.251634 
L 530.385767 105.354334 
L 530.712409 141.313252 
L 530.712409 110.781476 
L 531.038806 144.910883 
L 531.038806 116.546341 
L 531.365203 147.346037 
L 531.365203 121.013677 
L 531.691845 149.66935 
L 531.691845 125.485223 
L 532.018487 154.631879 
L 532.018487 133.313835 
L 532.344884 159.562256 
L 532.344884 138.739334 
L 532.673971 163.422683 
L 532.673971 136.230326 
L 533.000613 158.118275 
L 533.000613 136.31099 
L 533.32701 159.695502 
L 533.32701 140.347605 
L 533.653896 168.482942 
L 533.653896 148.674119 
L 533.980538 170.998779 
L 533.980538 149.63438 
L 534.30718 167.81502 
L 534.30718 147.308815 
L 534.634066 168.977269 
L 534.634066 154.354702 
L 534.966086 177.0839 
L 534.966086 160.706465 
L 535.292728 181.612317 
L 535.292728 163.272446 
L 535.619614 178.757087 
L 535.619614 160.932155 
L 535.946745 180.186004 
L 535.946745 166.26193 
L 536.27681 185.5598 
L 536.27681 168.926792 
L 536.603696 185.526567 
L 536.603696 170.566377 
L 536.930582 186.191759 
L 536.930582 171.77369 
L 537.257713 187.993517 
L 537.257713 173.355749 
L 537.585088 188.747289 
L 537.585088 175.216645 
L 537.912219 189.164248 
L 537.912219 177.732857 
L 538.23935 193.215005 
L 538.23935 180.889446 
L 538.567214 195.445353 
L 538.567214 184.344598 
L 538.894345 197.497734 
L 538.894345 187.302264 
L 539.221965 198.759179 
L 539.221965 187.759323 
L 539.549095 198.843295 
L 539.549095 188.438193 
L 539.882338 200.456794 
L 539.882338 190.715038 
L 540.210203 201.991821 
L 540.210203 192.900233 
L 540.537822 203.742011 
L 540.537822 194.580726 
L 540.865442 206.095568 
L 540.865442 196.372608 
L 541.193551 206.098592 
L 541.193551 198.842035 
L 541.521659 208.200646 
L 541.521659 200.478488 
L 541.849279 209.835384 
L 541.849279 203.224913 
L 542.177143 211.38351 
L 542.177143 203.682382 
L 542.505497 211.30868 
L 542.505497 205.181535 
L 542.83385 212.587479 
L 542.83385 206.125071 
L 543.163914 214.401991 
L 543.163914 208.548925 
L 543.492023 215.323831 
L 543.492023 209.211238 
L 543.820376 215.897422 
L 543.820376 210.145024 
L 544.149219 216.340866 
L 544.149219 211.152096 
L 544.477572 218.033672 
L 544.477572 212.972065 
L 544.831597 218.774647 
L 544.831597 214.053333 
L 545.160439 219.691357 
L 545.160439 215.39058 
L 545.489281 220.264977 
L 545.489281 216.044979 
L 545.818368 221.271958 
L 545.818368 217.32417 
L 546.148188 221.454686 
L 546.148188 217.263141 
L 546.477519 221.622116 
L 546.477519 217.045861 
L 546.80685 221.056558 
L 546.80685 217.286275 
L 547.135937 221.885427 
L 547.135937 217.608666 
L 547.466735 221.803908 
L 547.466735 218.345735 
L 547.796555 222.442568 
L 547.796555 218.646634 
L 548.125886 222.975446 
L 548.125886 219.262675 
L 548.455951 222.926511 
L 548.455951 219.214159 
L 548.785527 223.095243 
L 548.785527 220.335307 
L 549.116325 224.187944 
L 549.116325 220.979399 
L 549.446878 224.831017 
L 549.446878 221.564148 
L 549.782077 224.273448 
L 549.782077 221.545535 
L 550.112387 224.924121 
L 550.112387 221.847375 
L 550.442696 225.189057 
L 550.442696 222.56028 
L 550.773249 225.365763 
L 550.773249 222.423199 
L 551.104048 225.52073 
L 551.104048 223.035211 
L 551.434846 225.897356 
L 551.434846 223.509193 
L 551.767355 226.480509 
L 551.767355 224.21506 
L 552.097909 226.653956 
L 552.097909 223.989669 
L 552.428463 226.672332 
L 552.428463 224.261033 
L 552.760972 226.636982 
L 552.760972 224.145053 
L 553.093237 226.64243 
L 553.093237 224.14699 
L 553.425747 226.710933 
L 553.425747 224.129982 
L 553.757523 226.811404 
L 553.757523 224.672207 
L 554.093944 227.288304 
L 554.093944 224.887981 
L 554.426698 227.311862 
L 554.426698 225.307417 
L 554.764098 227.72677 
L 554.764098 225.394533 
L 555.095874 227.638807 
L 555.095874 225.721974 
L 555.429117 227.750327 
L 555.429117 225.33615 
L 555.762116 227.704753 
L 555.762116 225.827207 
L 556.094625 227.940456 
L 556.094625 225.867905 
L 556.42689 228.239749 
L 556.42689 226.424632 
L 556.7594 228.284932 
L 556.7594 226.393763 
L 557.091909 228.489367 
L 557.091909 226.640557 
L 557.425152 228.449056 
L 557.425152 226.655922 
L 557.757906 228.481495 
L 557.757906 226.969225 
L 558.091883 228.923038 
L 558.091883 227.289376 
L 558.426348 229.341901 
L 558.426348 227.817679 
L 558.76277 229.409924 
L 558.76277 227.70277 
L 559.096991 229.343794 
L 559.096991 227.87842 
L 559.432923 229.586236 
L 559.432923 228.006715 
L 559.773012 229.602937 
L 559.773012 228.174911 
L 560.108945 229.624826 
L 560.108945 228.004774 
L 560.444388 229.690969 
L 560.444388 228.299181 
L 560.778854 229.847568 
L 560.778854 228.49712 
L 561.113808 230.083893 
L 561.113808 228.540327 
L 561.451452 230.055352 
L 561.451452 228.564305 
L 561.786407 229.817977 
L 561.786407 228.426807 
L 562.121117 229.971873 
L 562.121117 228.621865 
L 562.456071 230.049986 
L 562.456071 228.964928 
L 562.800316 230.352723 
L 562.800316 229.096254 
L 563.136249 230.385432 
L 563.136249 229.097279 
L 563.470225 230.382759 
L 563.470225 229.079854 
L 563.80738 230.22406 
L 563.80738 229.134716 
L 564.144046 230.481964 
L 564.144046 229.08534 
L 564.480468 230.476537 
L 564.480468 229.290068 
L 564.82349 230.41199 
L 564.82349 229.24615 
L 565.160645 230.626083 
L 565.160645 229.368621 
L 565.496578 230.611929 
L 565.496578 229.535723 
L 565.833244 230.733233 
L 565.833244 229.513895 
L 566.171132 230.751758 
L 566.171132 229.501377 
L 566.50951 230.668004 
L 566.50951 229.435951 
L 566.848131 230.667298 
L 566.848131 229.411445 
L 567.184064 230.704944 
L 567.184064 229.655255 
L 567.522197 230.908295 
L 567.522197 229.799577 
L 567.859107 231.030408 
L 567.859107 229.873626 
L 568.199441 230.772567 
L 568.199441 229.628972 
L 568.536107 230.706351 
L 568.536107 229.69673 
L 568.873262 230.81719 
L 568.873262 230.044369 
L 569.211883 231.046139 
L 569.211883 230.127314 
L 569.548794 231.239395 
L 569.548794 230.320005 
L 569.893039 231.249731 
L 569.893039 230.382943 
L 570.230438 231.270483 
L 570.230438 230.326788 
L 570.567838 231.354812 
L 570.567838 230.397745 
L 570.907193 231.359451 
L 570.907193 230.42958 
L 571.247527 231.339386 
L 571.247527 230.340828 
L 571.584682 231.275019 
L 571.584682 230.388056 
L 571.923303 231.419254 
L 571.923303 230.415168 
L 572.267793 231.379556 
L 572.267793 230.405901 
L 572.610327 231.338179 
L 572.610327 230.342756 
L 572.951394 231.363594 
L 572.951394 230.347982 
L 573.290016 231.367941 
L 573.290016 230.384583 
L 573.628637 231.335374 
L 573.628637 230.435025 
L 573.96946 231.486117 
L 573.96946 230.503008 
L 574.311016 231.517319 
L 574.311016 230.754114 
L 574.648659 231.644256 
L 574.648659 230.758633 
L 574.994861 231.73847 
L 574.994861 230.821436 
L 575.333238 231.661396 
L 575.333238 230.679255 
L 575.673082 231.566345 
L 575.673082 230.683869 
L 576.012927 231.578571 
L 576.012927 230.767217 
L 576.352282 231.717896 
L 576.352282 230.825753 
L 576.690659 231.747975 
L 576.690659 230.97384 
L 577.032704 231.779494 
L 577.032704 230.924121 
L 577.373527 231.796716 
L 577.373527 230.91616 
L 577.714349 231.684662 
L 577.714349 230.96147 
L 578.053949 231.903483 
L 578.053949 231.143461 
L 578.395505 232.033469 
L 578.395505 231.291315 
L 578.736571 232.009383 
L 578.736571 231.270879 
L 579.080083 232.024741 
L 579.080083 231.302681 
L 579.425551 232.100065 
L 579.425551 231.425889 
L 579.768818 232.151005 
L 579.768818 231.454972 
L 580.116731 232.184602 
L 580.116731 231.401084 
L 580.458531 232.107052 
L 580.458531 231.346293 
L 580.801554 232.085108 
L 580.801554 231.368209 
L 581.143109 232.133791 
L 581.143109 231.434236 
L 581.48491 232.188256 
L 581.48491 231.495027 
L 581.82671 232.154545 
L 581.82671 231.450942 
L 582.168999 232.139135 
L 582.168999 231.520433 
L 582.512022 232.216022 
L 582.512022 231.618874 
L 582.855045 232.292858 
L 582.855045 231.729638 
L 583.197823 232.35042 
L 583.197823 231.746133 
L 583.540846 232.366565 
L 583.540846 231.721363 
L 583.883868 232.305395 
L 583.883868 231.79941 
L 584.225424 232.447735 
L 584.225424 231.821694 
L 584.568691 232.490998 
L 584.568691 231.855712 
L 584.911959 232.385827 
L 584.911959 231.811894 
L 585.26036 232.449871 
L 585.26036 231.963741 
L 585.604117 232.58744 
L 585.604117 231.969193 
L 585.947139 232.527894 
L 585.947139 231.959443 
L 586.290407 232.47987 
L 586.290407 231.81326 
L 586.63294 232.443189 
L 586.63294 231.82327 
L 586.974985 232.433227 
L 586.974985 231.798919 
L 587.318497 232.4461 
L 587.318497 231.805533 
L 587.662009 232.409427 
L 587.662009 231.790891 
L 588.005276 232.409669 
L 588.005276 231.822219 
L 588.348787 232.470777 
L 588.348787 231.865617 
L 588.692544 232.428732 
L 588.692544 231.91086 
L 589.036055 232.540789 
L 589.036055 232.007874 
L 589.383479 232.629386 
L 589.383479 232.101744 
L 589.726746 232.646579 
L 589.726746 232.149687 
L 590.070258 232.667479 
L 590.070258 232.139198 
L 590.418904 232.722291 
L 590.418904 232.158387 
L 590.763883 232.644363 
L 590.763883 232.107608 
L 591.10715 232.660782 
L 591.10715 232.131114 
L 591.450662 232.717281 
L 591.450662 232.281701 
L 591.794173 232.8237 
L 591.794173 232.313843 
L 592.137685 232.826663 
L 592.137685 232.301441 
L 592.481441 232.74885 
L 592.481441 232.272029 
L 592.824709 232.784066 
L 592.824709 232.280984 
L 593.16822 232.785892 
L 593.16822 232.310077 
L 593.511732 232.80699 
L 593.511732 232.318277 
L 593.855244 232.827304 
L 593.855244 232.336794 
L 594.198756 232.799456 
L 594.198756 232.355519 
L 594.542512 232.815217 
L 594.542512 232.322364 
L 594.886024 232.831884 
L 594.886024 232.437997 
L 595.229291 232.887435 
L 595.229291 232.517776 
L 595.578426 233.016022 
L 595.578426 232.580015 
L 595.921938 233.026117 
L 595.921938 232.566094 
L 596.265694 232.971506 
L 596.265694 232.555642 
L 596.60945 232.960464 
L 596.60945 232.532579 
L 596.954429 232.973583 
L 596.954429 232.549262 
L 597.302586 232.970268 
L 597.302586 232.612204 
L 597.646098 233.026567 
L 597.646098 232.646804 
L 597.989854 233.060566 
L 597.989854 232.683184 
L 598.33361 233.080665 
L 598.33361 232.630746 
L 598.677611 233.012897 
L 598.677611 232.60991 
L 599.021367 232.988034 
L 599.021367 232.581523 
L 599.365123 233.023008 
L 599.365123 232.645574 
L 599.709124 233.067871 
L 599.709124 232.760503 
L 600.053369 233.129378 
L 600.053369 232.772712 
L 600.397859 233.186508 
L 600.397859 232.722857 
L 600.747483 233.050191 
L 600.747483 232.670444 
L 601.091484 233.023926 
L 601.091484 232.599339 
L 601.435729 233.051313 
L 601.435729 232.69093 
L 601.779974 233.080258 
L 601.779974 232.712718 
L 602.12373 233.130808 
L 602.12373 232.737484 
L 602.46822 233.083393 
L 602.46822 232.746058 
L 602.811732 233.11975 
L 602.811732 232.793355 
L 603.155732 233.187761 
L 603.155732 232.850297 
L 603.499978 233.224272 
L 603.499978 232.875582 
L 603.844223 233.178899 
L 603.844223 232.861666 
L 604.188223 233.225826 
L 604.188223 232.846858 
L 604.532224 233.222551 
L 604.532224 232.895891 
L 604.875736 233.22457 
L 604.875736 232.832575 
L 605.219492 233.220353 
L 605.219492 232.877933 
L 605.563493 233.227818 
L 605.563493 232.923109 
L 605.912383 233.297558 
L 605.912383 232.929046 
L 606.256629 233.261513 
L 606.256629 232.933082 
L 606.600385 233.233154 
L 606.600385 232.926691 
L 606.944141 233.27347 
L 606.944141 232.950484 
L 607.288142 233.291938 
L 607.288142 232.911169 
L 607.632143 233.235791 
L 607.632143 232.858322 
L 607.983233 233.182535 
L 607.983233 232.881568 
L 608.327234 233.270366 
L 608.327234 232.949634 
L 608.671479 233.338868 
L 608.671479 233.009448 
L 609.014991 233.302364 
L 609.014991 232.983489 
L 609.359236 233.306468 
L 609.359236 232.961884 
L 609.703237 233.280111 
L 609.703237 232.987523 
L 610.047238 233.296774 
L 610.047238 232.993549 
L 610.391239 233.328845 
L 610.391239 233.064172 
L 610.735484 233.366798 
L 610.735484 233.077996 
L 611.084863 233.373329 
L 611.084863 233.097265 
L 611.428864 233.389409 
L 611.428864 233.070627 
L 611.773109 233.379077 
L 611.773109 233.117408 
L 612.117354 233.401097 
L 612.117354 233.085775 
L 612.461355 233.396377 
L 612.461355 233.099605 
L 612.805845 233.370506 
L 612.805845 233.073731 
L 613.15009 233.37127 
L 613.15009 233.110157 
L 613.494335 233.398933 
L 613.494335 233.095637 
L 613.838825 233.405225 
L 613.838825 233.127821 
L 614.182826 233.39305 
L 614.182826 233.106311 
L 614.52756 233.413985 
L 614.52756 233.141035 
L 614.871561 233.435455 
L 614.871561 233.151628 
L 615.216295 233.459861 
L 615.216295 233.198887 
L 615.560051 233.472887 
L 615.560051 233.203837 
L 615.904785 233.489693 
L 615.904785 233.229483 
L 616.254654 233.479633 
L 616.254654 233.204221 
L 616.598899 233.443184 
L 616.598899 233.186824 
L 616.943389 233.447954 
L 616.943389 233.159444 
L 617.288123 233.436496 
L 617.288123 233.221462 
L 617.632613 233.471412 
L 617.632613 233.161699 
L 617.982481 233.464159 
L 617.982481 233.180225 
L 618.326971 233.429111 
L 618.326971 233.190644 
L 618.67146 233.500168 
L 618.67146 233.208778 
L 619.016195 233.482901 
L 619.016195 233.250795 
L 619.360684 233.484272 
L 619.360684 233.267527 
L 619.705419 233.568946 
L 619.705419 233.303691 
L 620.049908 233.531567 
L 620.049908 233.295034 
L 620.394398 233.500919 
L 620.394398 233.260056 
L 620.739132 233.518994 
L 620.739132 233.249513 
L 621.083622 233.493905 
L 621.083622 233.278301 
L 621.434713 233.511733 
L 621.434713 233.297276 
L 621.779203 233.563107 
L 621.779203 233.350452 
L 622.123448 233.569365 
L 622.123448 233.30377 
L 622.467937 233.531818 
L 622.467937 233.34401 
L 622.812427 233.574406 
L 622.812427 233.367244 
L 623.156917 233.640861 
L 623.156917 233.383218 
L 623.501407 233.564812 
L 623.501407 233.287987 
L 623.847119 233.500803 
L 623.847119 233.263318 
L 624.191364 233.526796 
L 624.191364 233.314576 
L 624.535854 233.570095 
L 624.535854 233.35078 
L 624.880343 233.584305 
L 624.880343 233.33394 
L 625.224589 233.559851 
L 625.224589 233.340419 
L 625.569078 233.552904 
L 625.569078 233.311249 
L 625.913323 233.547352 
L 625.913323 233.376779 
L 626.257569 233.60342 
L 626.257569 233.368259 
L 626.607682 233.611199 
L 626.607682 233.430268 
L 626.951927 233.578933 
L 626.951927 233.397582 
L 627.296417 233.647444 
L 627.296417 233.432298 
L 627.640906 233.63333 
L 627.640906 233.437188 
L 627.985151 233.630888 
L 627.985151 233.419516 
L 628.329886 233.640685 
L 628.329886 233.416883 
L 628.674375 233.634547 
L 628.674375 233.431533 
L 629.018621 233.639094 
L 629.018621 233.397383 
L 629.36311 233.629233 
L 629.36311 233.423597 
L 629.707844 233.621665 
L 629.707844 233.447636 
L 630.056735 233.677045 
L 630.056735 233.40882 
L 630.400736 233.627897 
L 630.400736 233.42854 
L 630.744981 233.608586 
L 630.744981 233.410566 
L 631.089471 233.669415 
L 631.089471 233.482973 
L 631.43396 233.68747 
L 631.43396 233.503304 
L 631.78334 233.72189 
L 631.78334 233.524132 
L 632.127585 233.699832 
L 632.127585 233.483306 
L 632.472564 233.663832 
L 632.472564 233.480068 
L 632.817054 233.66312 
L 632.817054 233.506319 
L 633.161299 233.72728 
L 633.161299 233.58712 
L 633.505544 233.766563 
L 633.505544 233.602075 
L 633.850278 233.774678 
L 633.850278 233.536492 
L 634.194523 233.682467 
L 634.194523 233.493641 
L 634.539013 233.676699 
L 634.539013 233.467536 
L 634.883258 233.697683 
L 634.883258 233.517429 
L 635.227748 233.697208 
L 635.227748 233.496712 
L 635.571993 233.692853 
L 635.571993 233.505357 
L 635.915994 233.676031 
L 635.915994 233.471193 
L 636.260484 233.668951 
L 636.260484 233.453383 
L 636.604729 233.652865 
L 636.604729 233.453927 
L 636.954597 233.664695 
L 636.954597 233.483854 
L 637.298843 233.692733 
L 637.298843 233.497215 
L 637.643577 233.7105 
L 637.643577 233.503639 
L 637.988066 233.692477 
L 637.988066 233.501434 
L 638.332312 233.69863 
L 638.332312 233.481547 
L 638.676312 233.690927 
L 638.676312 233.453984 
L 639.020313 233.664163 
L 639.020313 233.451022 
L 639.364314 233.661573 
L 639.364314 233.462022 
L 639.709781 233.677763 
L 639.709781 233.499703 
L 640.058183 233.711196 
L 640.058183 233.546007 
L 640.401695 233.74778 
L 640.401695 233.579866 
L 640.745451 233.766611 
L 640.745451 233.563375 
L 641.088718 233.727974 
L 641.088718 233.544338 
L 641.431985 233.725314 
L 641.431985 233.579594 
L 641.775253 233.781807 
L 641.775253 233.63395 
L 642.123899 233.834811 
L 642.123899 233.679504 
L 642.466922 233.802678 
L 642.466922 233.633428 
L 642.810922 233.780286 
L 642.810922 233.576512 
L 643.154189 233.731142 
L 643.154189 233.570596 
L 643.497946 233.733555 
L 643.497946 233.554865 
L 643.841457 233.738054 
L 643.841457 233.563305 
L 644.185214 233.735336 
L 644.185214 233.580258 
L 644.52897 233.757219 
L 644.52897 233.579722 
L 644.872482 233.764916 
L 644.872482 233.571433 
L 645.217216 233.73766 
L 645.217216 233.559354 
L 645.560972 233.752529 
L 645.560972 233.564304 
L 645.904484 233.760963 
L 645.904484 233.611501 
L 646.24824 233.800391 
L 646.24824 233.622884 
L 646.591996 233.797474 
L 646.591996 233.616416 
L 646.935997 233.755054 
L 646.935997 233.593097 
L 647.284887 233.757227 
L 647.284887 233.606065 
L 647.628644 233.777559 
L 647.628644 233.62525 
L 647.972644 233.778421 
L 647.972644 233.618419 
L 648.318601 233.778701 
L 648.318601 233.646699 
L 648.667736 233.798431 
L 648.667736 233.655937 
L 649.011737 233.814047 
L 649.011737 233.650118 
L 649.355982 233.79083 
L 649.355982 233.640258 
L 649.700472 233.791213 
L 649.700472 233.645059 
L 650.044472 233.810497 
L 650.044472 233.641908 
L 650.388718 233.800182 
L 650.388718 233.632136 
L 650.732718 233.792969 
L 650.732718 233.642089 
L 651.076719 233.820005 
L 651.076719 233.667416 
L 651.421209 233.828365 
L 651.421209 233.662389 
L 651.765943 233.807342 
L 651.765943 233.649437 
L 652.110188 233.80199 
L 652.110188 233.648534 
L 652.459568 233.79664 
L 652.459568 233.656603 
L 652.803813 233.794233 
L 652.803813 233.603749 
L 653.147814 233.75654 
L 653.147814 233.61805 
L 653.49157 233.774692 
L 653.49157 233.633398 
L 653.835815 233.826418 
L 653.835815 233.687132 
L 654.179327 233.835775 
L 654.179327 233.67225 
L 654.523083 233.834269 
L 654.523083 233.684023 
L 654.866595 233.828588 
L 654.866595 233.680042 
L 655.210107 233.840883 
L 655.210107 233.682654 
L 655.554107 233.82418 
L 655.554107 233.685323 
L 655.897619 233.833084 
L 655.897619 233.656548 
L 656.241375 233.804917 
L 656.241375 233.645446 
L 656.584887 233.782596 
L 656.584887 233.63188 
L 656.928643 233.815067 
L 656.928643 233.676532 
L 657.272644 233.842243 
L 657.272644 233.679933 
L 657.621779 233.822236 
L 657.621779 233.657661 
L 657.966024 233.794748 
L 657.966024 233.639087 
L 658.310269 233.805867 
L 658.310269 233.661491 
L 658.654026 233.814338 
L 658.654026 233.668999 
L 658.998026 233.820608 
L 658.998026 233.674116 
L 659.348628 233.826301 
L 659.348628 233.692182 
L 659.693118 233.842834 
L 659.693118 233.683973 
L 660.036874 233.819523 
L 660.036874 233.650137 
L 660.381364 233.780717 
L 660.381364 233.625722 
L 661.070343 233.837586 
L 661.070343 233.690787 
L 661.414833 233.836401 
L 661.414833 233.709486 
L 662.103568 233.872083 
L 662.103568 233.745378 
L 662.448302 233.872448 
L 662.448302 233.740914 
L 662.798415 233.854704 
L 662.798415 233.699244 
L 663.142905 233.829174 
L 663.142905 233.696752 
L 663.48715 233.834551 
L 663.48715 233.70771 
L 663.83164 233.865898 
L 663.83164 233.729105 
L 664.176129 233.857772 
L 664.176129 233.724605 
L 664.520619 233.857172 
L 664.520619 233.706059 
L 664.865109 233.844757 
L 664.865109 233.725354 
L 665.209599 233.856335 
L 665.209599 233.711179 
L 665.554333 233.856056 
L 665.554333 233.724796 
L 666.243312 233.880821 
L 666.243312 233.763095 
L 666.587557 233.894336 
L 666.587557 233.743743 
L 666.932047 233.859072 
L 666.932047 233.721741 
L 667.276781 233.851371 
L 667.276781 233.723359 
L 667.97114 233.918688 
L 667.97114 233.764475 
L 668.315874 233.893968 
L 668.315874 233.757593 
L 668.665742 233.865567 
L 668.665742 233.710413 
L 669.010232 233.851509 
L 669.010232 233.705151 
L 669.355211 233.83081 
L 669.355211 233.686221 
L 669.6997 233.832303 
L 669.6997 233.707422 
L 670.04419 233.852751 
L 670.04419 233.727332 
L 670.389169 233.867201 
L 670.389169 233.737547 
L 670.734147 233.867385 
L 670.734147 233.718304 
L 671.079126 233.846775 
L 671.079126 233.718639 
L 671.768594 233.898964 
L 671.768594 233.773075 
L 672.113573 233.893186 
L 672.113573 233.769585 
L 672.458552 233.880303 
L 672.458552 233.75621 
L 672.803286 233.891253 
L 672.803286 233.76167 
L 673.499111 233.880258 
L 673.499111 233.759293 
L 673.84409 233.901978 
L 673.84409 233.778501 
L 674.189313 233.903267 
L 674.189313 233.758319 
L 674.534536 233.870182 
L 674.534536 233.714396 
L 674.880004 233.850946 
L 674.880004 233.719908 
L 675.224983 233.874854 
L 675.224983 233.740794 
L 675.570206 233.890518 
L 675.570206 233.736422 
L 675.91494 233.860079 
L 675.91494 233.730091 
L 676.260163 233.873065 
L 676.260163 233.72898 
L 676.605386 233.873409 
L 676.605386 233.763328 
L 676.950121 233.890745 
L 676.950121 233.755667 
L 677.295099 233.914189 
L 677.295099 233.796261 
L 677.644968 233.895779 
L 677.644968 233.762643 
L 677.990191 233.896495 
L 677.990191 233.75226 
L 678.340548 233.867941 
L 678.340548 233.74766 
L 678.685772 233.886465 
L 678.685772 233.764557 
L 679.03075 233.893641 
L 679.03075 233.76177 
L 679.376462 233.879308 
L 679.376462 233.757352 
L 679.72193 233.881969 
L 679.72193 233.74072 
L 680.412621 233.904817 
L 680.412621 233.732848 
L 680.7576 233.878559 
L 680.7576 233.756592 
L 681.102578 233.869223 
L 681.102578 233.725938 
L 681.448046 233.899045 
L 681.448046 233.768825 
L 681.793269 233.891017 
L 681.793269 233.750306 
L 682.138737 233.886727 
L 682.138737 233.756212 
L 682.48396 233.892534 
L 682.48396 233.760683 
L 683.17514 233.899121 
L 683.17514 233.786821 
L 683.870965 233.901878 
L 683.870965 233.800508 
L 684.561656 233.914991 
L 684.561656 233.786815 
L 685.251858 233.913384 
L 685.251858 233.774505 
L 685.94206 233.88892 
L 685.94206 233.746975 
L 686.287283 233.887678 
L 686.287283 233.779257 
L 686.632995 233.89119 
L 686.632995 233.76199 
L 686.983108 233.895607 
L 686.983108 233.771279 
L 687.328576 233.88688 
L 687.328576 233.764432 
L 688.019756 233.912893 
L 688.019756 233.794722 
L 688.365223 233.924568 
L 688.365223 233.820404 
L 689.061048 233.934665 
L 689.061048 233.81162 
L 689.751495 233.931048 
L 689.751495 233.798119 
L 690.096718 233.919637 
L 690.096718 233.825671 
L 690.44243 233.915617 
L 690.44243 233.77041 
L 690.787653 233.897321 
L 690.787653 233.768872 
L 691.4781 233.906173 
L 691.4781 233.766816 
L 691.823078 233.892074 
L 691.823078 233.777005 
L 692.514014 233.932514 
L 692.514014 233.794149 
L 692.859237 233.913404 
L 692.859237 233.787928 
L 693.204949 233.888198 
L 693.204949 233.76025 
L 693.549928 233.907466 
L 693.549928 233.764431 
L 693.90053 233.888625 
L 693.90053 233.738871 
L 694.245753 233.862566 
L 694.245753 233.735006 
L 694.591221 233.875633 
L 694.591221 233.745328 
L 694.936444 233.895613 
L 694.936444 233.789616 
L 695.281911 233.908339 
L 695.281911 233.775076 
L 695.627135 233.909501 
L 695.627135 233.800114 
L 695.972602 233.916253 
L 695.972602 233.798243 
L 696.663538 233.939618 
L 696.663538 233.804299 
L 697.008272 233.917641 
L 697.008272 233.807281 
L 697.698718 233.948117 
L 697.698718 233.842918 
L 698.04932 233.961914 
L 698.04932 233.829842 
L 698.739522 233.911303 
L 698.739522 233.786377 
L 699.435592 233.92626 
L 699.435592 233.814506 
L 699.780815 233.940156 
L 699.780815 233.814082 
L 700.471261 233.930543 
L 700.471261 233.815575 
L 701.161708 233.940935 
L 701.161708 233.826427 
L 701.852154 233.946732 
L 701.852154 233.795198 
L 702.543089 233.915704 
L 702.543089 233.799543 
L 702.888312 233.95381 
L 702.888312 233.849005 
L 703.579003 233.946891 
L 703.579003 233.823933 
L 703.924226 233.938787 
L 703.924226 233.82857 
L 704.620785 233.930862 
L 704.620785 233.811595 
L 705.311965 233.929009 
L 705.311965 233.826254 
L 706.008035 233.951601 
L 706.008035 233.838744 
L 706.699214 233.931714 
L 706.699214 233.825831 
L 707.390394 233.962703 
L 707.390394 233.836281 
L 707.735617 233.951259 
L 707.735617 233.830511 
L 708.426797 233.964516 
L 708.426797 233.864464 
L 708.77202 233.975143 
L 708.77202 233.866577 
L 709.468335 233.964386 
L 709.468335 233.864745 
L 710.15927 233.968931 
L 710.15927 233.877212 
L 710.850205 233.977712 
L 710.850205 233.876521 
L 711.541141 233.97897 
L 711.541141 233.87231 
L 711.886364 233.980126 
L 711.886364 233.86135 
L 712.577055 233.953208 
L 712.577055 233.839565 
L 712.922522 233.960283 
L 712.922522 233.866516 
L 713.613458 233.988333 
L 713.613458 233.89971 
L 714.304393 233.970536 
L 714.304393 233.87185 
L 715.000218 233.954291 
L 715.000218 233.864549 
L 715.691398 233.971435 
L 715.691398 233.882065 
L 716.036866 233.992832 
L 716.036866 233.888317 
L 716.727801 233.992166 
L 716.727801 233.886272 
L 717.423382 233.979628 
L 717.423382 233.88464 
L 718.113828 233.979029 
L 718.113828 233.886432 
L 718.804763 233.985992 
L 718.804763 233.875591 
L 719.495454 233.984327 
L 719.495454 233.889687 
L 720.19128 234.009504 
L 720.19128 233.917071 
L 721.227194 233.863189 
L 721.917884 233.969632 
L 721.917884 233.866407 
L 722.607353 233.969457 
L 722.607353 233.885942 
L 723.297066 233.987812 
L 723.297066 233.912828 
L 723.987512 234.002165 
L 723.987512 233.937983 
L 724.677225 234.012343 
L 724.677225 233.935026 
L 725.372317 234.004815 
L 725.372317 233.924698 
L 726.062518 234.004704 
L 726.062518 233.900235 
L 726.75761 233.982228 
L 726.75761 233.885542 
L 727.447568 234.004856 
L 727.447568 233.9254 
L 727.792302 234.02044 
L 727.792302 233.925589 
L 728.482748 233.999817 
L 728.482748 233.896132 
L 729.172705 233.985689 
L 729.172705 233.898464 
L 729.862663 233.994835 
L 729.862663 233.91082 
L 730.55751 234.035007 
L 730.55751 233.945147 
L 731.247956 234.022709 
L 731.247956 233.924986 
L 731.937425 234.016334 
L 731.937425 233.937585 
L 732.282159 234.030833 
L 732.282159 233.921812 
L 732.972361 233.994947 
L 732.972361 233.916598 
L 733.662074 234.018486 
L 733.662074 233.942574 
L 734.352276 234.019079 
L 734.352276 233.927988 
L 735.041988 233.992857 
L 735.041988 233.91502 
L 735.73708 234.02284 
L 735.73708 233.940136 
L 736.426549 234.005315 
L 736.426549 233.923004 
L 737.120907 234.0156 
L 737.120907 233.927911 
L 737.81062 233.982564 
L 737.81062 233.912718 
L 738.500333 234.029296 
L 738.500333 233.955717 
L 739.190045 234.017506 
L 739.190045 233.940848 
L 739.879514 234.018556 
L 739.879514 233.929156 
L 740.575095 234.009616 
L 740.575095 233.91938 
L 741.264074 234.005753 
L 741.264074 233.910462 
L 741.953298 234.017297 
L 741.953298 233.948393 
L 742.642766 234.03569 
L 742.642766 233.950756 
L 743.333457 234.019257 
L 743.333457 233.930046 
L 744.021947 234.005296 
L 744.021947 233.920866 
L 744.711171 234.009562 
L 744.711171 233.933426 
L 745.400395 234.050071 
L 745.400395 233.97671 
L 746.095976 234.049348 
L 746.095976 233.976051 
L 747.826248 233.95036 
L 748.515961 234.055157 
L 748.515961 233.981147 
L 749.205674 234.050157 
L 749.205674 233.963858 
L 749.894898 234.045955 
L 749.894898 233.954231 
L 750.239388 234.04107 
L 750.239388 233.950047 
L 750.93399 234.008768 
L 750.93399 233.929053 
L 751.623703 234.024806 
L 751.623703 233.951634 
L 751.968437 234.028411 
L 751.968437 233.950452 
L 753.00264 233.967251 
L 753.00264 233.981174 
L 753.34713 234.084564 
L 753.34713 234.008859 
L 754.036354 234.059534 
L 754.036354 233.985379 
L 754.381332 234.064974 
L 754.381332 233.986851 
L 755.759291 233.950272 
L 755.759291 233.96562 
L 756.109404 234.056479 
L 756.109404 233.979364 
L 757.493231 233.95281 
L 757.493231 233.985143 
L 758.18221 234.058163 
L 758.18221 234.004073 
L 758.871189 234.098012 
L 758.871189 234.03158 
L 759.559924 234.081674 
L 759.559924 234.001668 
L 760.249148 234.047204 
L 760.249148 233.973391 
L 760.937883 234.067337 
L 760.937883 233.990767 
L 761.289219 234.063704 
L 761.289219 233.995485 
L 763.012156 234.026521 
L 763.701625 234.106665 
L 763.701625 234.054274 
L 764.735094 233.982528 
L 765.424562 234.06695 
L 765.424562 233.991032 
L 766.114764 234.034933 
L 766.114764 233.977438 
L 766.814501 234.071161 
L 766.814501 234.018094 
L 767.847481 234.072574 
L 767.847481 234.026393 
L 768.538416 234.085722 
L 768.538416 234.018702 
L 769.571397 233.949053 
L 770.260376 234.086508 
L 770.260376 234.00663 
L 770.948866 234.092882 
L 770.948866 234.007708 
L 771.293112 234.089529 
L 771.293112 234.0285 
L 772.332204 233.990438 
L 773.020694 234.089988 
L 773.020694 234.020983 
L 773.710407 234.05655 
L 773.710407 234.008165 
L 774.398898 234.087592 
L 774.398898 234.042338 
L 774.743632 234.087152 
L 774.743632 234.013245 
L 778.542798 234.014131 
L 779.231778 234.074383 
L 779.231778 234.016179 
L 779.920513 234.073931 
L 779.920513 233.994468 
L 780.953493 234.081184 
L 780.953493 234.021079 
L 781.641983 234.102715 
L 781.641983 234.028159 
L 782.680587 234.092783 
L 782.680587 234.039776 
L 783.369566 234.064564 
L 783.369566 234.004741 
L 783.713322 234.0674 
L 783.713322 233.997894 
L 792.305027 234.052418 
L 792.305027 233.992294 
L 792.975425 234.092287 
L 792.975425 234.023638 
L 793.643623 234.075211 
L 793.643623 234.016827 
L 794.311087 234.089578 
L 794.311087 234.055248 
L 796.309812 234.013853 
L 796.309812 234.020791 
L 796.978743 234.088394 
L 796.978743 234.041078 
L 797.650119 234.106855 
L 797.650119 234.072064 
L 798.645203 234.074731 
L 799.310955 234.117896 
L 799.310955 234.064697 
L 800.304572 234.095615 
L 800.304572 234.055775 
L 800.970325 234.099643 
L 800.970325 234.052666 
L 802.638496 234.084126 
L 802.638496 234.032994 
L 810.686939 234.058432 
L 810.686939 234.039677 
L 811.021894 234.092971 
L 811.021894 234.04098 
L 812.713781 234.038803 
L 812.713781 234.072067 
L 813.387602 234.137736 
L 814.442586 234.272432 
L 816.568202 234.274185 
L 816.568202 234.274185 
" clip-path="url(#p98c7e76a3a)" style="fill: none; stroke: #008000; stroke-width: 1.5; stroke-linecap: square"/>
   </g>
   <g id="patch_3">
    <path d="M 47.72 534.04 
L 47.72 26.88 
" style="fill: none; stroke: #000000; stroke-width: 0.8; stroke-linejoin: miter; stroke-linecap: square"/>
   </g>
   <g id="patch_4">
    <path d="M 853.2 534.04 
L 853.2 26.88 
" style="fill: none; stroke: #000000; stroke-width: 0.8; stroke-linejoin: miter; stroke-linecap: square"/>
   </g>
   <g id="patch_5">
    <path d="M 47.72 534.04 
L 853.2 534.04 
" style="fill: none; stroke: #000000; stroke-width: 0.8; stroke-linejoin: miter; stroke-linecap: square"/>
   </g>
   <g id="patch_6">
    <path d="M 47.72 26.88 
L 853.2 26.88 
" style="fill: none; stroke: #000000; stroke-width: 0.8; stroke-linejoin: miter; stroke-linecap: square"/>
   </g>
   <g id="patch_7">
    <path d="M 594.974744 330.147942 
Q 568.82345 335.979318 542.672156 341.810693 
L 543.542719 345.714809 
Q 537.035204 344.092215 530.527689 342.469621 
Q 535.729359 338.236042 540.931029 334.002462 
L 541.801592 337.906578 
Q 567.952886 332.075202 594.10418 326.243826 
L 594.974744 330.147942 
z
" style="stroke: #000000; stroke-linecap: round"/>
   </g>
   <g id="text_15">
    <!-- Peak: RT=3.03, Area=2.44e+04 -->
    <g style="fill: #ff0000" transform="translate(600.211556 313.653586) scale(0.1 -0.1)">
     <defs>
      <path id="DejaVuSans-50" d="M 1259 4147 
L 1259 2394 
L 2053 2394 
Q 2494 2394 2734 2622 
Q 2975 2850 2975 3272 
Q 2975 3691 2734 3919 
Q 2494 4147 2053 4147 
L 1259 4147 
z
M 628 4666 
L 2053 4666 
Q 2838 4666 3239 4311 
Q 3641 3956 3641 3272 
Q 3641 2581 3239 2228 
Q 2838 1875 2053 1875 
L 1259 1875 
L 1259 0 
L 628 0 
L 628 4666 
z
" transform="scale(0.015625)"/>
      <path id="DejaVuSans-6b" d="M 581 4863 
L 1159 4863 
L 1159 1991 
L 2875 3500 
L 3609 3500 
L 1753 1863 
L 3688 0 
L 2938 0 
L 1159 1709 
L 1159 0 
L 581 0 
L 581 4863 
z
" transform="scale(0.015625)"/>
      <path id="DejaVuSans-3a" d="M 750 794 
L 1409 794 
L 1409 0 
L 750 0 
L 750 794 
z
M 750 3309 
L 1409 3309 
L 1409 2516 
L 750 2516 
L 750 3309 
z
" transform="scale(0.015625)"/>
      <path id="DejaVuSans-3d" d="M 678 2906 
L 4684 2906 
L 4684 2381 
L 678 2381 
L 678 2906 
z
M 678 1631 
L 4684 1631 
L 4684 1100 
L 678 1100 
L 678 1631 
z
" transform="scale(0.015625)"/>
      <path id="DejaVuSans-2c" d="M 750 794 
L 1409 794 
L 1409 256 
L 897 -744 
L 494 -744 
L 750 256 
L 750 794 
z
" transform="scale(0.015625)"/>
      <path id="DejaVuSans-41" d="M 2188 4044 
L 1331 1722 
L 3047 1722 
L 2188 4044 
z
M 1831 4666 
L 2547 4666 
L 4325 0 
L 3669 0 
L 3244 1197 
L 1141 1197 
L 716 0 
L 50 0 
L 1831 4666 
z
" transform="scale(0.015625)"/>
      <path id="DejaVuSans-2b" d="M 2944 4013 
L 2944 2272 
L 4684 2272 
L 4684 1741 
L 2944 1741 
L 2944 0 
L 2419 0 
L 2419 1741 
L 678 1741 
L 678 2272 
L 2419 2272 
L 2419 4013 
L 2944 4013 
z
" transform="scale(0.015625)"/>
     </defs>
     <use xlink:href="#DejaVuSans-50"/>
     <use xlink:href="#DejaVuSans-65" transform="translate(56.677734 0)"/>
     <use xlink:href="#DejaVuSans-61" transform="translate(118.201172 0)"/>
     <use xlink:href="#DejaVuSans-6b" transform="translate(179.480469 0)"/>
     <use xlink:href="#DejaVuSans-3a" transform="translate(237.390625 0)"/>
     <use xlink:href="#DejaVuSans-20" transform="translate(271.082031 0)"/>
     <use xlink:href="#DejaVuSans-52" transform="translate(302.869141 0)"/>
     <use xlink:href="#DejaVuSans-54" transform="translate(365.101562 0)"/>
     <use xlink:href="#DejaVuSans-3d" transform="translate(426.185547 0)"/>
     <use xlink:href="#DejaVuSans-33" transform="translate(509.974609 0)"/>
     <use xlink:href="#DejaVuSans-2e" transform="translate(573.597656 0)"/>
     <use xlink:href="#DejaVuSans-30" transform="translate(605.384766 0)"/>
     <use xlink:href="#DejaVuSans-33" transform="translate(669.007812 0)"/>
     <use xlink:href="#DejaVuSans-2c" transform="translate(732.630859 0)"/>
     <use xlink:href="#DejaVuSans-20" transform="translate(764.417969 0)"/>
     <use xlink:href="#DejaVuSans-41" transform="translate(796.205078 0)"/>
     <use xlink:href="#DejaVuSans-72" transform="translate(864.613281 0)"/>
     <use xlink:href="#DejaVuSans-65" transform="translate(903.476562 0)"/>
     <use xlink:href="#DejaVuSans-61" transform="translate(965 0)"/>
     <use xlink:href="#DejaVuSans-3d" transform="translate(1026.279297 0)"/>
     <use xlink:href="#DejaVuSans-32" transform="translate(1110.068359 0)"/>
     <use xlink:href="#DejaVuSans-2e" transform="translate(1173.691406 0)"/>
     <use xlink:href="#DejaVuSans-34" transform="translate(1205.478516 0)"/>
     <use xlink:href="#DejaVuSans-34" transform="translate(1269.101562 0)"/>
     <use xlink:href="#DejaVuSans-65" transform="translate(1332.724609 0)"/>
     <use xlink:href="#DejaVuSans-2b" transform="translate(1394.248047 0)"/>
     <use xlink:href="#DejaVuSans-30" transform="translate(1478.037109 0)"/>
     <use xlink:href="#DejaVuSans-34" transform="translate(1541.660156 0)"/>
    </g>
    <!-- (75.51% of total) -->
    <g style="fill: #ff0000" transform="translate(600.211556 324.851398) scale(0.1 -0.1)">
     <defs>
      <path id="DejaVuSans-37" d="M 525 4666 
L 3525 4666 
L 3525 4397 
L 1831 0 
L 1172 0 
L 2766 4134 
L 525 4134 
L 525 4666 
z
" transform="scale(0.015625)"/>
      <path id="DejaVuSans-25" d="M 4653 2053 
Q 4381 2053 4226 1822 
Q 4072 1591 4072 1178 
Q 4072 772 4226 539 
Q 4381 306 4653 306 
Q 4919 306 5073 539 
Q 5228 772 5228 1178 
Q 5228 1588 5073 1820 
Q 4919 2053 4653 2053 
z
M 4653 2450 
Q 5147 2450 5437 2106 
Q 5728 1763 5728 1178 
Q 5728 594 5436 251 
Q 5144 -91 4653 -91 
Q 4153 -91 3862 251 
Q 3572 594 3572 1178 
Q 3572 1766 3864 2108 
Q 4156 2450 4653 2450 
z
M 1428 4353 
Q 1159 4353 1004 4120 
Q 850 3888 850 3481 
Q 850 3069 1003 2837 
Q 1156 2606 1428 2606 
Q 1700 2606 1854 2837 
Q 2009 3069 2009 3481 
Q 2009 3884 1853 4118 
Q 1697 4353 1428 4353 
z
M 4250 4750 
L 4750 4750 
L 1831 -91 
L 1331 -91 
L 4250 4750 
z
M 1428 4750 
Q 1922 4750 2215 4408 
Q 2509 4066 2509 3481 
Q 2509 2891 2217 2550 
Q 1925 2209 1428 2209 
Q 931 2209 642 2551 
Q 353 2894 353 3481 
Q 353 4063 643 4406 
Q 934 4750 1428 4750 
z
" transform="scale(0.015625)"/>
      <path id="DejaVuSans-66" d="M 2375 4863 
L 2375 4384 
L 1825 4384 
Q 1516 4384 1395 4259 
Q 1275 4134 1275 3809 
L 1275 3500 
L 2222 3500 
L 2222 3053 
L 1275 3053 
L 1275 0 
L 697 0 
L 697 3053 
L 147 3053 
L 147 3500 
L 697 3500 
L 697 3744 
Q 697 4328 969 4595 
Q 1241 4863 1831 4863 
L 2375 4863 
z
" transform="scale(0.015625)"/>
     </defs>
     <use xlink:href="#DejaVuSans-28"/>
     <use xlink:href="#DejaVuSans-37" transform="translate(39.013672 0)"/>
     <use xlink:href="#DejaVuSans-35" transform="translate(102.636719 0)"/>
     <use xlink:href="#DejaVuSans-2e" transform="translate(166.259766 0)"/>
     <use xlink:href="#DejaVuSans-35" transform="translate(198.046875 0)"/>
     <use xlink:href="#DejaVuSans-31" transform="translate(261.669922 0)"/>
     <use xlink:href="#DejaVuSans-25" transform="translate(325.292969 0)"/>
     <use xlink:href="#DejaVuSans-20" transform="translate(420.3125 0)"/>
     <use xlink:href="#DejaVuSans-6f" transform="translate(452.099609 0)"/>
     <use xlink:href="#DejaVuSans-66" transform="translate(513.28125 0)"/>
     <use xlink:href="#DejaVuSans-20" transform="translate(548.486328 0)"/>
     <use xlink:href="#DejaVuSans-74" transform="translate(580.273438 0)"/>
     <use xlink:href="#DejaVuSans-6f" transform="translate(619.482422 0)"/>
     <use xlink:href="#DejaVuSans-74" transform="translate(680.664062 0)"/>
     <use xlink:href="#DejaVuSans-61" transform="translate(719.873047 0)"/>
     <use xlink:href="#DejaVuSans-6c" transform="translate(781.152344 0)"/>
     <use xlink:href="#DejaVuSans-29" transform="translate(808.935547 0)"/>
    </g>
   </g>
   <g id="text_16">
    <!-- UV and MS Chromatograms of IrCp3J18, target m/z = 737.1091206 -->
    <g transform="translate(248.549688 20.88) scale(0.12 -0.12)">
     <defs>
      <path id="DejaVuSans-55" d="M 556 4666 
L 1191 4666 
L 1191 1831 
Q 1191 1081 1462 751 
Q 1734 422 2344 422 
Q 2950 422 3222 751 
Q 3494 1081 3494 1831 
L 3494 4666 
L 4128 4666 
L 4128 1753 
Q 4128 841 3676 375 
Q 3225 -91 2344 -91 
Q 1459 -91 1007 375 
Q 556 841 556 1753 
L 556 4666 
z
" transform="scale(0.015625)"/>
      <path id="DejaVuSans-56" d="M 1831 0 
L 50 4666 
L 709 4666 
L 2188 738 
L 3669 4666 
L 4325 4666 
L 2547 0 
L 1831 0 
z
" transform="scale(0.015625)"/>
      <path id="DejaVuSans-4d" d="M 628 4666 
L 1569 4666 
L 2759 1491 
L 3956 4666 
L 4897 4666 
L 4897 0 
L 4281 0 
L 4281 4097 
L 3078 897 
L 2444 897 
L 1241 4097 
L 1241 0 
L 628 0 
L 628 4666 
z
" transform="scale(0.015625)"/>
      <path id="DejaVuSans-53" d="M 3425 4513 
L 3425 3897 
Q 3066 4069 2747 4153 
Q 2428 4238 2131 4238 
Q 1616 4238 1336 4038 
Q 1056 3838 1056 3469 
Q 1056 3159 1242 3001 
Q 1428 2844 1947 2747 
L 2328 2669 
Q 3034 2534 3370 2195 
Q 3706 1856 3706 1288 
Q 3706 609 3251 259 
Q 2797 -91 1919 -91 
Q 1588 -91 1214 -16 
Q 841 59 441 206 
L 441 856 
Q 825 641 1194 531 
Q 1563 422 1919 422 
Q 2459 422 2753 634 
Q 3047 847 3047 1241 
Q 3047 1584 2836 1778 
Q 2625 1972 2144 2069 
L 1759 2144 
Q 1053 2284 737 2584 
Q 422 2884 422 3419 
Q 422 4038 858 4394 
Q 1294 4750 2059 4750 
Q 2388 4750 2728 4690 
Q 3069 4631 3425 4513 
z
" transform="scale(0.015625)"/>
      <path id="DejaVuSans-43" d="M 4122 4306 
L 4122 3641 
Q 3803 3938 3442 4084 
Q 3081 4231 2675 4231 
Q 1875 4231 1450 3742 
Q 1025 3253 1025 2328 
Q 1025 1406 1450 917 
Q 1875 428 2675 428 
Q 3081 428 3442 575 
Q 3803 722 4122 1019 
L 4122 359 
Q 3791 134 3420 21 
Q 3050 -91 2638 -91 
Q 1578 -91 968 557 
Q 359 1206 359 2328 
Q 359 3453 968 4101 
Q 1578 4750 2638 4750 
Q 3056 4750 3426 4639 
Q 3797 4528 4122 4306 
z
" transform="scale(0.015625)"/>
      <path id="DejaVuSans-68" d="M 3513 2113 
L 3513 0 
L 2938 0 
L 2938 2094 
Q 2938 2591 2744 2837 
Q 2550 3084 2163 3084 
Q 1697 3084 1428 2787 
Q 1159 2491 1159 1978 
L 1159 0 
L 581 0 
L 581 4863 
L 1159 4863 
L 1159 2956 
Q 1366 3272 1645 3428 
Q 1925 3584 2291 3584 
Q 2894 3584 3203 3211 
Q 3513 2838 3513 2113 
z
" transform="scale(0.015625)"/>
      <path id="DejaVuSans-67" d="M 2906 1791 
Q 2906 2416 2648 2759 
Q 2391 3103 1925 3103 
Q 1463 3103 1205 2759 
Q 947 2416 947 1791 
Q 947 1169 1205 825 
Q 1463 481 1925 481 
Q 2391 481 2648 825 
Q 2906 1169 2906 1791 
z
M 3481 434 
Q 3481 -459 3084 -895 
Q 2688 -1331 1869 -1331 
Q 1566 -1331 1297 -1286 
Q 1028 -1241 775 -1147 
L 775 -588 
Q 1028 -725 1275 -790 
Q 1522 -856 1778 -856 
Q 2344 -856 2625 -561 
Q 2906 -266 2906 331 
L 2906 616 
Q 2728 306 2450 153 
Q 2172 0 1784 0 
Q 1141 0 747 490 
Q 353 981 353 1791 
Q 353 2603 747 3093 
Q 1141 3584 1784 3584 
Q 2172 3584 2450 3431 
Q 2728 3278 2906 2969 
L 2906 3500 
L 3481 3500 
L 3481 434 
z
" transform="scale(0.015625)"/>
      <path id="DejaVuSans-70" d="M 1159 525 
L 1159 -1331 
L 581 -1331 
L 581 3500 
L 1159 3500 
L 1159 2969 
Q 1341 3281 1617 3432 
Q 1894 3584 2278 3584 
Q 2916 3584 3314 3078 
Q 3713 2572 3713 1747 
Q 3713 922 3314 415 
Q 2916 -91 2278 -91 
Q 1894 -91 1617 61 
Q 1341 213 1159 525 
z
M 3116 1747 
Q 3116 2381 2855 2742 
Q 2594 3103 2138 3103 
Q 1681 3103 1420 2742 
Q 1159 2381 1159 1747 
Q 1159 1113 1420 752 
Q 1681 391 2138 391 
Q 2594 391 2855 752 
Q 3116 1113 3116 1747 
z
" transform="scale(0.015625)"/>
      <path id="DejaVuSans-4a" d="M 628 4666 
L 1259 4666 
L 1259 325 
Q 1259 -519 939 -900 
Q 619 -1281 -91 -1281 
L -331 -1281 
L -331 -750 
L -134 -750 
Q 284 -750 456 -515 
Q 628 -281 628 325 
L 628 4666 
z
" transform="scale(0.015625)"/>
      <path id="DejaVuSans-38" d="M 2034 2216 
Q 1584 2216 1326 1975 
Q 1069 1734 1069 1313 
Q 1069 891 1326 650 
Q 1584 409 2034 409 
Q 2484 409 2743 651 
Q 3003 894 3003 1313 
Q 3003 1734 2745 1975 
Q 2488 2216 2034 2216 
z
M 1403 2484 
Q 997 2584 770 2862 
Q 544 3141 544 3541 
Q 544 4100 942 4425 
Q 1341 4750 2034 4750 
Q 2731 4750 3128 4425 
Q 3525 4100 3525 3541 
Q 3525 3141 3298 2862 
Q 3072 2584 2669 2484 
Q 3125 2378 3379 2068 
Q 3634 1759 3634 1313 
Q 3634 634 3220 271 
Q 2806 -91 2034 -91 
Q 1263 -91 848 271 
Q 434 634 434 1313 
Q 434 1759 690 2068 
Q 947 2378 1403 2484 
z
M 1172 3481 
Q 1172 3119 1398 2916 
Q 1625 2713 2034 2713 
Q 2441 2713 2670 2916 
Q 2900 3119 2900 3481 
Q 2900 3844 2670 4047 
Q 2441 4250 2034 4250 
Q 1625 4250 1398 4047 
Q 1172 3844 1172 3481 
z
" transform="scale(0.015625)"/>
      <path id="DejaVuSans-2f" d="M 1625 4666 
L 2156 4666 
L 531 -594 
L 0 -594 
L 1625 4666 
z
" transform="scale(0.015625)"/>
      <path id="DejaVuSans-39" d="M 703 97 
L 703 672 
Q 941 559 1184 500 
Q 1428 441 1663 441 
Q 2288 441 2617 861 
Q 2947 1281 2994 2138 
Q 2813 1869 2534 1725 
Q 2256 1581 1919 1581 
Q 1219 1581 811 2004 
Q 403 2428 403 3163 
Q 403 3881 828 4315 
Q 1253 4750 1959 4750 
Q 2769 4750 3195 4129 
Q 3622 3509 3622 2328 
Q 3622 1225 3098 567 
Q 2575 -91 1691 -91 
Q 1453 -91 1209 -44 
Q 966 3 703 97 
z
M 1959 2075 
Q 2384 2075 2632 2365 
Q 2881 2656 2881 3163 
Q 2881 3666 2632 3958 
Q 2384 4250 1959 4250 
Q 1534 4250 1286 3958 
Q 1038 3666 1038 3163 
Q 1038 2656 1286 2365 
Q 1534 2075 1959 2075 
z
" transform="scale(0.015625)"/>
      <path id="DejaVuSans-36" d="M 2113 2584 
Q 1688 2584 1439 2293 
Q 1191 2003 1191 1497 
Q 1191 994 1439 701 
Q 1688 409 2113 409 
Q 2538 409 2786 701 
Q 3034 994 3034 1497 
Q 3034 2003 2786 2293 
Q 2538 2584 2113 2584 
z
M 3366 4563 
L 3366 3988 
Q 3128 4100 2886 4159 
Q 2644 4219 2406 4219 
Q 1781 4219 1451 3797 
Q 1122 3375 1075 2522 
Q 1259 2794 1537 2939 
Q 1816 3084 2150 3084 
Q 2853 3084 3261 2657 
Q 3669 2231 3669 1497 
Q 3669 778 3244 343 
Q 2819 -91 2113 -91 
Q 1303 -91 875 529 
Q 447 1150 447 2328 
Q 447 3434 972 4092 
Q 1497 4750 2381 4750 
Q 2619 4750 2861 4703 
Q 3103 4656 3366 4563 
z
" transform="scale(0.015625)"/>
     </defs>
     <use xlink:href="#DejaVuSans-55"/>
     <use xlink:href="#DejaVuSans-56" transform="translate(73.193359 0)"/>
     <use xlink:href="#DejaVuSans-20" transform="translate(141.601562 0)"/>
     <use xlink:href="#DejaVuSans-61" transform="translate(173.388672 0)"/>
     <use xlink:href="#DejaVuSans-6e" transform="translate(234.667969 0)"/>
     <use xlink:href="#DejaVuSans-64" transform="translate(298.046875 0)"/>
     <use xlink:href="#DejaVuSans-20" transform="translate(361.523438 0)"/>
     <use xlink:href="#DejaVuSans-4d" transform="translate(393.310547 0)"/>
     <use xlink:href="#DejaVuSans-53" transform="translate(479.589844 0)"/>
     <use xlink:href="#DejaVuSans-20" transform="translate(543.066406 0)"/>
     <use xlink:href="#DejaVuSans-43" transform="translate(574.853516 0)"/>
     <use xlink:href="#DejaVuSans-68" transform="translate(644.677734 0)"/>
     <use xlink:href="#DejaVuSans-72" transform="translate(708.056641 0)"/>
     <use xlink:href="#DejaVuSans-6f" transform="translate(746.919922 0)"/>
     <use xlink:href="#DejaVuSans-6d" transform="translate(808.101562 0)"/>
     <use xlink:href="#DejaVuSans-61" transform="translate(905.513672 0)"/>
     <use xlink:href="#DejaVuSans-74" transform="translate(966.792969 0)"/>
     <use xlink:href="#DejaVuSans-6f" transform="translate(1006.001953 0)"/>
     <use xlink:href="#DejaVuSans-67" transform="translate(1067.183594 0)"/>
     <use xlink:href="#DejaVuSans-72" transform="translate(1130.660156 0)"/>
     <use xlink:href="#DejaVuSans-61" transform="translate(1171.773438 0)"/>
     <use xlink:href="#DejaVuSans-6d" transform="translate(1233.052734 0)"/>
     <use xlink:href="#DejaVuSans-73" transform="translate(1330.464844 0)"/>
     <use xlink:href="#DejaVuSans-20" transform="translate(1382.564453 0)"/>
     <use xlink:href="#DejaVuSans-6f" transform="translate(1414.351562 0)"/>
     <use xlink:href="#DejaVuSans-66" transform="translate(1475.533203 0)"/>
     <use xlink:href="#DejaVuSans-20" transform="translate(1510.738281 0)"/>
     <use xlink:href="#DejaVuSans-49" transform="translate(1542.525391 0)"/>
     <use xlink:href="#DejaVuSans-72" transform="translate(1572.017578 0)"/>
     <use xlink:href="#DejaVuSans-43" transform="translate(1613.130859 0)"/>
     <use xlink:href="#DejaVuSans-70" transform="translate(1682.955078 0)"/>
     <use xlink:href="#DejaVuSans-33" transform="translate(1746.431641 0)"/>
     <use xlink:href="#DejaVuSans-4a" transform="translate(1810.054688 0)"/>
     <use xlink:href="#DejaVuSans-31" transform="translate(1839.546875 0)"/>
     <use xlink:href="#DejaVuSans-38" transform="translate(1903.169922 0)"/>
     <use xlink:href="#DejaVuSans-2c" transform="translate(1966.792969 0)"/>
     <use xlink:href="#DejaVuSans-20" transform="translate(1998.580078 0)"/>
     <use xlink:href="#DejaVuSans-74" transform="translate(2030.367188 0)"/>
     <use xlink:href="#DejaVuSans-61" transform="translate(2069.576172 0)"/>
     <use xlink:href="#DejaVuSans-72" transform="translate(2130.855469 0)"/>
     <use xlink:href="#DejaVuSans-67" transform="translate(2170.21875 0)"/>
     <use xlink:href="#DejaVuSans-65" transform="translate(2233.695312 0)"/>
     <use xlink:href="#DejaVuSans-74" transform="translate(2295.21875 0)"/>
     <use xlink:href="#DejaVuSans-20" transform="translate(2334.427734 0)"/>
     <use xlink:href="#DejaVuSans-6d" transform="translate(2366.214844 0)"/>
     <use xlink:href="#DejaVuSans-2f" transform="translate(2463.626953 0)"/>
     <use xlink:href="#DejaVuSans-7a" transform="translate(2497.318359 0)"/>
     <use xlink:href="#DejaVuSans-20" transform="translate(2549.808594 0)"/>
     <use xlink:href="#DejaVuSans-3d" transform="translate(2581.595703 0)"/>
     <use xlink:href="#DejaVuSans-20" transform="translate(2665.384766 0)"/>
     <use xlink:href="#DejaVuSans-37" transform="translate(2697.171875 0)"/>
     <use xlink:href="#DejaVuSans-33" transform="translate(2760.794922 0)"/>
     <use xlink:href="#DejaVuSans-37" transform="translate(2824.417969 0)"/>
     <use xlink:href="#DejaVuSans-2e" transform="translate(2888.041016 0)"/>
     <use xlink:href="#DejaVuSans-31" transform="translate(2919.828125 0)"/>
     <use xlink:href="#DejaVuSans-30" transform="translate(2983.451172 0)"/>
     <use xlink:href="#DejaVuSans-39" transform="translate(3047.074219 0)"/>
     <use xlink:href="#DejaVuSans-31" transform="translate(3110.697266 0)"/>
     <use xlink:href="#DejaVuSans-32" transform="translate(3174.320312 0)"/>
     <use xlink:href="#DejaVuSans-30" transform="translate(3237.943359 0)"/>
     <use xlink:href="#DejaVuSans-36" transform="translate(3301.566406 0)"/>
    </g>
   </g>
   <g id="legend_1">
    <g id="patch_8">
     <path d="M 685.971875 64.23625 
L 846.2 64.23625 
Q 848.2 64.23625 848.2 62.23625 
L 848.2 33.88 
Q 848.2 31.88 846.2 31.88 
L 685.971875 31.88 
Q 683.971875 31.88 683.971875 33.88 
L 683.971875 62.23625 
Q 683.971875 64.23625 685.971875 64.23625 
z
" style="fill: #ffffff; opacity: 0.8; stroke: #cccccc; stroke-linejoin: miter"/>
    </g>
    <g id="line2d_15">
     <path d="M 687.971875 39.978437 
L 697.971875 39.978437 
L 707.971875 39.978437 
" style="fill: none; stroke: #0000ff; stroke-width: 1.5; stroke-linecap: square"/>
    </g>
    <g id="text_17">
     <!-- UV Intensity (normalized) -->
     <g transform="translate(715.971875 43.478437) scale(0.1 -0.1)">
      <use xlink:href="#DejaVuSans-55"/>
      <use xlink:href="#DejaVuSans-56" transform="translate(73.193359 0)"/>
      <use xlink:href="#DejaVuSans-20" transform="translate(141.601562 0)"/>
      <use xlink:href="#DejaVuSans-49" transform="translate(173.388672 0)"/>
      <use xlink:href="#DejaVuSans-6e" transform="translate(202.880859 0)"/>
      <use xlink:href="#DejaVuSans-74" transform="translate(266.259766 0)"/>
      <use xlink:href="#DejaVuSans-65" transform="translate(305.46875 0)"/>
      <use xlink:href="#DejaVuSans-6e" transform="translate(366.992188 0)"/>
      <use xlink:href="#DejaVuSans-73" transform="translate(430.371094 0)"/>
      <use xlink:href="#DejaVuSans-69" transform="translate(482.470703 0)"/>
      <use xlink:href="#DejaVuSans-74" transform="translate(510.253906 0)"/>
      <use xlink:href="#DejaVuSans-79" transform="translate(549.462891 0)"/>
      <use xlink:href="#DejaVuSans-20" transform="translate(608.642578 0)"/>
      <use xlink:href="#DejaVuSans-28" transform="translate(640.429688 0)"/>
      <use xlink:href="#DejaVuSans-6e" transform="translate(679.443359 0)"/>
      <use xlink:href="#DejaVuSans-6f" transform="translate(742.822266 0)"/>
      <use xlink:href="#DejaVuSans-72" transform="translate(804.003906 0)"/>
      <use xlink:href="#DejaVuSans-6d" transform="translate(843.367188 0)"/>
      <use xlink:href="#DejaVuSans-61" transform="translate(940.779297 0)"/>
      <use xlink:href="#DejaVuSans-6c" transform="translate(1002.058594 0)"/>
      <use xlink:href="#DejaVuSans-69" transform="translate(1029.841797 0)"/>
      <use xlink:href="#DejaVuSans-7a" transform="translate(1057.625 0)"/>
      <use xlink:href="#DejaVuSans-65" transform="translate(1110.115234 0)"/>
      <use xlink:href="#DejaVuSans-64" transform="translate(1171.638672 0)"/>
      <use xlink:href="#DejaVuSans-29" transform="translate(1235.115234 0)"/>
     </g>
    </g>
    <g id="line2d_16">
     <path d="M 687.971875 54.656562 
L 697.971875 54.656562 
L 707.971875 54.656562 
" style="fill: none; stroke: #008000; stroke-width: 1.5; stroke-linecap: square"/>
    </g>
    <g id="text_18">
     <!-- MS Intensity (normalized) -->
     <g transform="translate(715.971875 58.156562) scale(0.1 -0.1)">
      <use xlink:href="#DejaVuSans-4d"/>
      <use xlink:href="#DejaVuSans-53" transform="translate(86.279297 0)"/>
      <use xlink:href="#DejaVuSans-20" transform="translate(149.755859 0)"/>
      <use xlink:href="#DejaVuSans-49" transform="translate(181.542969 0)"/>
      <use xlink:href="#DejaVuSans-6e" transform="translate(211.035156 0)"/>
      <use xlink:href="#DejaVuSans-74" transform="translate(274.414062 0)"/>
      <use xlink:href="#DejaVuSans-65" transform="translate(313.623047 0)"/>
      <use xlink:href="#DejaVuSans-6e" transform="translate(375.146484 0)"/>
      <use xlink:href="#DejaVuSans-73" transform="translate(438.525391 0)"/>
      <use xlink:href="#DejaVuSans-69" transform="translate(490.625 0)"/>
      <use xlink:href="#DejaVuSans-74" transform="translate(518.408203 0)"/>
      <use xlink:href="#DejaVuSans-79" transform="translate(557.617188 0)"/>
      <use xlink:href="#DejaVuSans-20" transform="translate(616.796875 0)"/>
      <use xlink:href="#DejaVuSans-28" transform="translate(648.583984 0)"/>
      <use xlink:href="#DejaVuSans-6e" transform="translate(687.597656 0)"/>
      <use xlink:href="#DejaVuSans-6f" transform="translate(750.976562 0)"/>
      <use xlink:href="#DejaVuSans-72" transform="translate(812.158203 0)"/>
      <use xlink:href="#DejaVuSans-6d" transform="translate(851.521484 0)"/>
      <use xlink:href="#DejaVuSans-61" transform="translate(948.933594 0)"/>
      <use xlink:href="#DejaVuSans-6c" transform="translate(1010.212891 0)"/>
      <use xlink:href="#DejaVuSans-69" transform="translate(1037.996094 0)"/>
      <use xlink:href="#DejaVuSans-7a" transform="translate(1065.779297 0)"/>
      <use xlink:href="#DejaVuSans-65" transform="translate(1118.269531 0)"/>
      <use xlink:href="#DejaVuSans-64" transform="translate(1179.792969 0)"/>
      <use xlink:href="#DejaVuSans-29" transform="translate(1243.269531 0)"/>
     </g>
    </g>
   </g>
  </g>
 </g>
 <defs>
  <clipPath id="p98c7e76a3a">
   <rect x="47.72" y="26.88" width="805.48" height="507.16"/>
  </clipPath>
 </defs>
</svg>
