<?xml version="1.0" encoding="utf-8" standalone="no"?>
<!DOCTYPE svg PUBLIC "-//W3C//DTD SVG 1.1//EN"
  "http://www.w3.org/Graphics/SVG/1.1/DTD/svg11.dtd">
<svg xmlns:xlink="http://www.w3.org/1999/xlink" width="864pt" height="576pt" viewBox="0 0 864 576" xmlns="http://www.w3.org/2000/svg" version="1.1">
 <metadata>
  <rdf:RDF xmlns:dc="http://purl.org/dc/elements/1.1/" xmlns:cc="http://creativecommons.org/ns#" xmlns:rdf="http://www.w3.org/1999/02/22-rdf-syntax-ns#">
   <cc:Work>
    <dc:type rdf:resource="http://purl.org/dc/dcmitype/StillImage"/>
    <dc:date>2025-02-06T15:09:26.712425</dc:date>
    <dc:format>image/svg+xml</dc:format>
    <dc:creator>
     <cc:Agent>
      <dc:title>Matplotlib v3.10.0, https://matplotlib.org/</dc:title>
     </cc:Agent>
    </dc:creator>
   </cc:Work>
  </rdf:RDF>
 </metadata>
 <defs>
  <style type="text/css">*{stroke-linejoin: round; stroke-linecap: butt}</style>
 </defs>
 <g id="figure_1">
  <g id="patch_1">
   <path d="M 0 576 
L 864 576 
L 864 0 
L 0 0 
z
" style="fill: #ffffff"/>
  </g>
  <g id="axes_1">
   <g id="patch_2">
    <path d="M 47.72 534.04 
L 853.2 534.04 
L 853.2 26.88 
L 47.72 26.88 
z
" style="fill: #ffffff"/>
   </g>
   <g id="matplotlib.axis_1">
    <g id="xtick_1">
     <g id="line2d_1">
      <defs>
       <path id="m3881db1ba5" d="M 0 0 
L 0 3.5 
" style="stroke: #000000; stroke-width: 0.8"/>
      </defs>
      <g>
       <use xlink:href="#m3881db1ba5" x="83.100486" y="534.04" style="stroke: #000000; stroke-width: 0.8"/>
      </g>
     </g>
     <g id="text_1">
      <!-- 0 -->
      <g transform="translate(79.919236 548.638438) scale(0.1 -0.1)">
       <defs>
        <path id="DejaVuSans-30" d="M 2034 4250 
Q 1547 4250 1301 3770 
Q 1056 3291 1056 2328 
Q 1056 1369 1301 889 
Q 1547 409 2034 409 
Q 2525 409 2770 889 
Q 3016 1369 3016 2328 
Q 3016 3291 2770 3770 
Q 2525 4250 2034 4250 
z
M 2034 4750 
Q 2819 4750 3233 4129 
Q 3647 3509 3647 2328 
Q 3647 1150 3233 529 
Q 2819 -91 2034 -91 
Q 1250 -91 836 529 
Q 422 1150 422 2328 
Q 422 3509 836 4129 
Q 1250 4750 2034 4750 
z
" transform="scale(0.015625)"/>
       </defs>
       <use xlink:href="#DejaVuSans-30"/>
      </g>
     </g>
    </g>
    <g id="xtick_2">
     <g id="line2d_2">
      <g>
       <use xlink:href="#m3881db1ba5" x="229.795887" y="534.04" style="stroke: #000000; stroke-width: 0.8"/>
      </g>
     </g>
     <g id="text_2">
      <!-- 1 -->
      <g transform="translate(226.614637 548.638438) scale(0.1 -0.1)">
       <defs>
        <path id="DejaVuSans-31" d="M 794 531 
L 1825 531 
L 1825 4091 
L 703 3866 
L 703 4441 
L 1819 4666 
L 2450 4666 
L 2450 531 
L 3481 531 
L 3481 0 
L 794 0 
L 794 531 
z
" transform="scale(0.015625)"/>
       </defs>
       <use xlink:href="#DejaVuSans-31"/>
      </g>
     </g>
    </g>
    <g id="xtick_3">
     <g id="line2d_3">
      <g>
       <use xlink:href="#m3881db1ba5" x="376.491289" y="534.04" style="stroke: #000000; stroke-width: 0.8"/>
      </g>
     </g>
     <g id="text_3">
      <!-- 2 -->
      <g transform="translate(373.310039 548.638438) scale(0.1 -0.1)">
       <defs>
        <path id="DejaVuSans-32" d="M 1228 531 
L 3431 531 
L 3431 0 
L 469 0 
L 469 531 
Q 828 903 1448 1529 
Q 2069 2156 2228 2338 
Q 2531 2678 2651 2914 
Q 2772 3150 2772 3378 
Q 2772 3750 2511 3984 
Q 2250 4219 1831 4219 
Q 1534 4219 1204 4116 
Q 875 4013 500 3803 
L 500 4441 
Q 881 4594 1212 4672 
Q 1544 4750 1819 4750 
Q 2544 4750 2975 4387 
Q 3406 4025 3406 3419 
Q 3406 3131 3298 2873 
Q 3191 2616 2906 2266 
Q 2828 2175 2409 1742 
Q 1991 1309 1228 531 
z
" transform="scale(0.015625)"/>
       </defs>
       <use xlink:href="#DejaVuSans-32"/>
      </g>
     </g>
    </g>
    <g id="xtick_4">
     <g id="line2d_4">
      <g>
       <use xlink:href="#m3881db1ba5" x="523.18669" y="534.04" style="stroke: #000000; stroke-width: 0.8"/>
      </g>
     </g>
     <g id="text_4">
      <!-- 3 -->
      <g transform="translate(520.00544 548.638438) scale(0.1 -0.1)">
       <defs>
        <path id="DejaVuSans-33" d="M 2597 2516 
Q 3050 2419 3304 2112 
Q 3559 1806 3559 1356 
Q 3559 666 3084 287 
Q 2609 -91 1734 -91 
Q 1441 -91 1130 -33 
Q 819 25 488 141 
L 488 750 
Q 750 597 1062 519 
Q 1375 441 1716 441 
Q 2309 441 2620 675 
Q 2931 909 2931 1356 
Q 2931 1769 2642 2001 
Q 2353 2234 1838 2234 
L 1294 2234 
L 1294 2753 
L 1863 2753 
Q 2328 2753 2575 2939 
Q 2822 3125 2822 3475 
Q 2822 3834 2567 4026 
Q 2313 4219 1838 4219 
Q 1578 4219 1281 4162 
Q 984 4106 628 3988 
L 628 4550 
Q 988 4650 1302 4700 
Q 1616 4750 1894 4750 
Q 2613 4750 3031 4423 
Q 3450 4097 3450 3541 
Q 3450 3153 3228 2886 
Q 3006 2619 2597 2516 
z
" transform="scale(0.015625)"/>
       </defs>
       <use xlink:href="#DejaVuSans-33"/>
      </g>
     </g>
    </g>
    <g id="xtick_5">
     <g id="line2d_5">
      <g>
       <use xlink:href="#m3881db1ba5" x="669.882092" y="534.04" style="stroke: #000000; stroke-width: 0.8"/>
      </g>
     </g>
     <g id="text_5">
      <!-- 4 -->
      <g transform="translate(666.700842 548.638438) scale(0.1 -0.1)">
       <defs>
        <path id="DejaVuSans-34" d="M 2419 4116 
L 825 1625 
L 2419 1625 
L 2419 4116 
z
M 2253 4666 
L 3047 4666 
L 3047 1625 
L 3713 1625 
L 3713 1100 
L 3047 1100 
L 3047 0 
L 2419 0 
L 2419 1100 
L 313 1100 
L 313 1709 
L 2253 4666 
z
" transform="scale(0.015625)"/>
       </defs>
       <use xlink:href="#DejaVuSans-34"/>
      </g>
     </g>
    </g>
    <g id="xtick_6">
     <g id="line2d_6">
      <g>
       <use xlink:href="#m3881db1ba5" x="816.577493" y="534.04" style="stroke: #000000; stroke-width: 0.8"/>
      </g>
     </g>
     <g id="text_6">
      <!-- 5 -->
      <g transform="translate(813.396243 548.638438) scale(0.1 -0.1)">
       <defs>
        <path id="DejaVuSans-35" d="M 691 4666 
L 3169 4666 
L 3169 4134 
L 1269 4134 
L 1269 2991 
Q 1406 3038 1543 3061 
Q 1681 3084 1819 3084 
Q 2600 3084 3056 2656 
Q 3513 2228 3513 1497 
Q 3513 744 3044 326 
Q 2575 -91 1722 -91 
Q 1428 -91 1123 -41 
Q 819 9 494 109 
L 494 744 
Q 775 591 1075 516 
Q 1375 441 1709 441 
Q 2250 441 2565 725 
Q 2881 1009 2881 1497 
Q 2881 1984 2565 2268 
Q 2250 2553 1709 2553 
Q 1456 2553 1204 2497 
Q 953 2441 691 2322 
L 691 4666 
z
" transform="scale(0.015625)"/>
       </defs>
       <use xlink:href="#DejaVuSans-35"/>
      </g>
     </g>
    </g>
    <g id="text_7">
     <!-- Retention Time (min) -->
     <g transform="translate(397.61 562.316562) scale(0.1 -0.1)">
      <defs>
       <path id="DejaVuSans-52" d="M 2841 2188 
Q 3044 2119 3236 1894 
Q 3428 1669 3622 1275 
L 4263 0 
L 3584 0 
L 2988 1197 
Q 2756 1666 2539 1819 
Q 2322 1972 1947 1972 
L 1259 1972 
L 1259 0 
L 628 0 
L 628 4666 
L 2053 4666 
Q 2853 4666 3247 4331 
Q 3641 3997 3641 3322 
Q 3641 2881 3436 2590 
Q 3231 2300 2841 2188 
z
M 1259 4147 
L 1259 2491 
L 2053 2491 
Q 2509 2491 2742 2702 
Q 2975 2913 2975 3322 
Q 2975 3731 2742 3939 
Q 2509 4147 2053 4147 
L 1259 4147 
z
" transform="scale(0.015625)"/>
       <path id="DejaVuSans-65" d="M 3597 1894 
L 3597 1613 
L 953 1613 
Q 991 1019 1311 708 
Q 1631 397 2203 397 
Q 2534 397 2845 478 
Q 3156 559 3463 722 
L 3463 178 
Q 3153 47 2828 -22 
Q 2503 -91 2169 -91 
Q 1331 -91 842 396 
Q 353 884 353 1716 
Q 353 2575 817 3079 
Q 1281 3584 2069 3584 
Q 2775 3584 3186 3129 
Q 3597 2675 3597 1894 
z
M 3022 2063 
Q 3016 2534 2758 2815 
Q 2500 3097 2075 3097 
Q 1594 3097 1305 2825 
Q 1016 2553 972 2059 
L 3022 2063 
z
" transform="scale(0.015625)"/>
       <path id="DejaVuSans-74" d="M 1172 4494 
L 1172 3500 
L 2356 3500 
L 2356 3053 
L 1172 3053 
L 1172 1153 
Q 1172 725 1289 603 
Q 1406 481 1766 481 
L 2356 481 
L 2356 0 
L 1766 0 
Q 1100 0 847 248 
Q 594 497 594 1153 
L 594 3053 
L 172 3053 
L 172 3500 
L 594 3500 
L 594 4494 
L 1172 4494 
z
" transform="scale(0.015625)"/>
       <path id="DejaVuSans-6e" d="M 3513 2113 
L 3513 0 
L 2938 0 
L 2938 2094 
Q 2938 2591 2744 2837 
Q 2550 3084 2163 3084 
Q 1697 3084 1428 2787 
Q 1159 2491 1159 1978 
L 1159 0 
L 581 0 
L 581 3500 
L 1159 3500 
L 1159 2956 
Q 1366 3272 1645 3428 
Q 1925 3584 2291 3584 
Q 2894 3584 3203 3211 
Q 3513 2838 3513 2113 
z
" transform="scale(0.015625)"/>
       <path id="DejaVuSans-69" d="M 603 3500 
L 1178 3500 
L 1178 0 
L 603 0 
L 603 3500 
z
M 603 4863 
L 1178 4863 
L 1178 4134 
L 603 4134 
L 603 4863 
z
" transform="scale(0.015625)"/>
       <path id="DejaVuSans-6f" d="M 1959 3097 
Q 1497 3097 1228 2736 
Q 959 2375 959 1747 
Q 959 1119 1226 758 
Q 1494 397 1959 397 
Q 2419 397 2687 759 
Q 2956 1122 2956 1747 
Q 2956 2369 2687 2733 
Q 2419 3097 1959 3097 
z
M 1959 3584 
Q 2709 3584 3137 3096 
Q 3566 2609 3566 1747 
Q 3566 888 3137 398 
Q 2709 -91 1959 -91 
Q 1206 -91 779 398 
Q 353 888 353 1747 
Q 353 2609 779 3096 
Q 1206 3584 1959 3584 
z
" transform="scale(0.015625)"/>
       <path id="DejaVuSans-20" transform="scale(0.015625)"/>
       <path id="DejaVuSans-54" d="M -19 4666 
L 3928 4666 
L 3928 4134 
L 2272 4134 
L 2272 0 
L 1638 0 
L 1638 4134 
L -19 4134 
L -19 4666 
z
" transform="scale(0.015625)"/>
       <path id="DejaVuSans-6d" d="M 3328 2828 
Q 3544 3216 3844 3400 
Q 4144 3584 4550 3584 
Q 5097 3584 5394 3201 
Q 5691 2819 5691 2113 
L 5691 0 
L 5113 0 
L 5113 2094 
Q 5113 2597 4934 2840 
Q 4756 3084 4391 3084 
Q 3944 3084 3684 2787 
Q 3425 2491 3425 1978 
L 3425 0 
L 2847 0 
L 2847 2094 
Q 2847 2600 2669 2842 
Q 2491 3084 2119 3084 
Q 1678 3084 1418 2786 
Q 1159 2488 1159 1978 
L 1159 0 
L 581 0 
L 581 3500 
L 1159 3500 
L 1159 2956 
Q 1356 3278 1631 3431 
Q 1906 3584 2284 3584 
Q 2666 3584 2933 3390 
Q 3200 3197 3328 2828 
z
" transform="scale(0.015625)"/>
       <path id="DejaVuSans-28" d="M 1984 4856 
Q 1566 4138 1362 3434 
Q 1159 2731 1159 2009 
Q 1159 1288 1364 580 
Q 1569 -128 1984 -844 
L 1484 -844 
Q 1016 -109 783 600 
Q 550 1309 550 2009 
Q 550 2706 781 3412 
Q 1013 4119 1484 4856 
L 1984 4856 
z
" transform="scale(0.015625)"/>
       <path id="DejaVuSans-29" d="M 513 4856 
L 1013 4856 
Q 1481 4119 1714 3412 
Q 1947 2706 1947 2009 
Q 1947 1309 1714 600 
Q 1481 -109 1013 -844 
L 513 -844 
Q 928 -128 1133 580 
Q 1338 1288 1338 2009 
Q 1338 2731 1133 3434 
Q 928 4138 513 4856 
z
" transform="scale(0.015625)"/>
      </defs>
      <use xlink:href="#DejaVuSans-52"/>
      <use xlink:href="#DejaVuSans-65" transform="translate(64.982422 0)"/>
      <use xlink:href="#DejaVuSans-74" transform="translate(126.505859 0)"/>
      <use xlink:href="#DejaVuSans-65" transform="translate(165.714844 0)"/>
      <use xlink:href="#DejaVuSans-6e" transform="translate(227.238281 0)"/>
      <use xlink:href="#DejaVuSans-74" transform="translate(290.617188 0)"/>
      <use xlink:href="#DejaVuSans-69" transform="translate(329.826172 0)"/>
      <use xlink:href="#DejaVuSans-6f" transform="translate(357.609375 0)"/>
      <use xlink:href="#DejaVuSans-6e" transform="translate(418.791016 0)"/>
      <use xlink:href="#DejaVuSans-20" transform="translate(482.169922 0)"/>
      <use xlink:href="#DejaVuSans-54" transform="translate(513.957031 0)"/>
      <use xlink:href="#DejaVuSans-69" transform="translate(571.916016 0)"/>
      <use xlink:href="#DejaVuSans-6d" transform="translate(599.699219 0)"/>
      <use xlink:href="#DejaVuSans-65" transform="translate(697.111328 0)"/>
      <use xlink:href="#DejaVuSans-20" transform="translate(758.634766 0)"/>
      <use xlink:href="#DejaVuSans-28" transform="translate(790.421875 0)"/>
      <use xlink:href="#DejaVuSans-6d" transform="translate(829.435547 0)"/>
      <use xlink:href="#DejaVuSans-69" transform="translate(926.847656 0)"/>
      <use xlink:href="#DejaVuSans-6e" transform="translate(954.630859 0)"/>
      <use xlink:href="#DejaVuSans-29" transform="translate(1018.009766 0)"/>
     </g>
    </g>
   </g>
   <g id="matplotlib.axis_2">
    <g id="ytick_1">
     <g id="line2d_7">
      <defs>
       <path id="m2b50636b7d" d="M 0 0 
L -3.5 0 
" style="stroke: #000000; stroke-width: 0.8"/>
      </defs>
      <g>
       <use xlink:href="#m2b50636b7d" x="47.72" y="510.485382" style="stroke: #000000; stroke-width: 0.8"/>
      </g>
     </g>
     <g id="text_8">
      <!-- 0.0 -->
      <g style="fill: #0000ff" transform="translate(24.816875 514.284601) scale(0.1 -0.1)">
       <defs>
        <path id="DejaVuSans-2e" d="M 684 794 
L 1344 794 
L 1344 0 
L 684 0 
L 684 794 
z
" transform="scale(0.015625)"/>
       </defs>
       <use xlink:href="#DejaVuSans-30"/>
       <use xlink:href="#DejaVuSans-2e" transform="translate(63.623047 0)"/>
       <use xlink:href="#DejaVuSans-30" transform="translate(95.410156 0)"/>
      </g>
     </g>
    </g>
    <g id="ytick_2">
     <g id="line2d_8">
      <g>
       <use xlink:href="#m2b50636b7d" x="47.72" y="418.374851" style="stroke: #000000; stroke-width: 0.8"/>
      </g>
     </g>
     <g id="text_9">
      <!-- 0.5 -->
      <g style="fill: #0000ff" transform="translate(24.816875 422.17407) scale(0.1 -0.1)">
       <use xlink:href="#DejaVuSans-30"/>
       <use xlink:href="#DejaVuSans-2e" transform="translate(63.623047 0)"/>
       <use xlink:href="#DejaVuSans-35" transform="translate(95.410156 0)"/>
      </g>
     </g>
    </g>
    <g id="ytick_3">
     <g id="line2d_9">
      <g>
       <use xlink:href="#m2b50636b7d" x="47.72" y="326.26432" style="stroke: #000000; stroke-width: 0.8"/>
      </g>
     </g>
     <g id="text_10">
      <!-- 1.0 -->
      <g style="fill: #0000ff" transform="translate(24.816875 330.063539) scale(0.1 -0.1)">
       <use xlink:href="#DejaVuSans-31"/>
       <use xlink:href="#DejaVuSans-2e" transform="translate(63.623047 0)"/>
       <use xlink:href="#DejaVuSans-30" transform="translate(95.410156 0)"/>
      </g>
     </g>
    </g>
    <g id="ytick_4">
     <g id="line2d_10">
      <g>
       <use xlink:href="#m2b50636b7d" x="47.72" y="234.153789" style="stroke: #000000; stroke-width: 0.8"/>
      </g>
     </g>
     <g id="text_11">
      <!-- 1.5 -->
      <g style="fill: #0000ff" transform="translate(24.816875 237.953008) scale(0.1 -0.1)">
       <use xlink:href="#DejaVuSans-31"/>
       <use xlink:href="#DejaVuSans-2e" transform="translate(63.623047 0)"/>
       <use xlink:href="#DejaVuSans-35" transform="translate(95.410156 0)"/>
      </g>
     </g>
    </g>
    <g id="ytick_5">
     <g id="line2d_11">
      <g>
       <use xlink:href="#m2b50636b7d" x="47.72" y="142.043258" style="stroke: #000000; stroke-width: 0.8"/>
      </g>
     </g>
     <g id="text_12">
      <!-- 2.0 -->
      <g style="fill: #0000ff" transform="translate(24.816875 145.842477) scale(0.1 -0.1)">
       <use xlink:href="#DejaVuSans-32"/>
       <use xlink:href="#DejaVuSans-2e" transform="translate(63.623047 0)"/>
       <use xlink:href="#DejaVuSans-30" transform="translate(95.410156 0)"/>
      </g>
     </g>
    </g>
    <g id="ytick_6">
     <g id="line2d_12">
      <g>
       <use xlink:href="#m2b50636b7d" x="47.72" y="49.932727" style="stroke: #000000; stroke-width: 0.8"/>
      </g>
     </g>
     <g id="text_13">
      <!-- 2.5 -->
      <g style="fill: #0000ff" transform="translate(24.816875 53.731946) scale(0.1 -0.1)">
       <use xlink:href="#DejaVuSans-32"/>
       <use xlink:href="#DejaVuSans-2e" transform="translate(63.623047 0)"/>
       <use xlink:href="#DejaVuSans-35" transform="translate(95.410156 0)"/>
      </g>
     </g>
    </g>
    <g id="text_14">
     <!-- Normalized Intensity -->
     <g style="fill: #0000ff" transform="translate(18.737187 332.167031) rotate(-90) scale(0.1 -0.1)">
      <defs>
       <path id="DejaVuSans-4e" d="M 628 4666 
L 1478 4666 
L 3547 763 
L 3547 4666 
L 4159 4666 
L 4159 0 
L 3309 0 
L 1241 3903 
L 1241 0 
L 628 0 
L 628 4666 
z
" transform="scale(0.015625)"/>
       <path id="DejaVuSans-72" d="M 2631 2963 
Q 2534 3019 2420 3045 
Q 2306 3072 2169 3072 
Q 1681 3072 1420 2755 
Q 1159 2438 1159 1844 
L 1159 0 
L 581 0 
L 581 3500 
L 1159 3500 
L 1159 2956 
Q 1341 3275 1631 3429 
Q 1922 3584 2338 3584 
Q 2397 3584 2469 3576 
Q 2541 3569 2628 3553 
L 2631 2963 
z
" transform="scale(0.015625)"/>
       <path id="DejaVuSans-61" d="M 2194 1759 
Q 1497 1759 1228 1600 
Q 959 1441 959 1056 
Q 959 750 1161 570 
Q 1363 391 1709 391 
Q 2188 391 2477 730 
Q 2766 1069 2766 1631 
L 2766 1759 
L 2194 1759 
z
M 3341 1997 
L 3341 0 
L 2766 0 
L 2766 531 
Q 2569 213 2275 61 
Q 1981 -91 1556 -91 
Q 1019 -91 701 211 
Q 384 513 384 1019 
Q 384 1609 779 1909 
Q 1175 2209 1959 2209 
L 2766 2209 
L 2766 2266 
Q 2766 2663 2505 2880 
Q 2244 3097 1772 3097 
Q 1472 3097 1187 3025 
Q 903 2953 641 2809 
L 641 3341 
Q 956 3463 1253 3523 
Q 1550 3584 1831 3584 
Q 2591 3584 2966 3190 
Q 3341 2797 3341 1997 
z
" transform="scale(0.015625)"/>
       <path id="DejaVuSans-6c" d="M 603 4863 
L 1178 4863 
L 1178 0 
L 603 0 
L 603 4863 
z
" transform="scale(0.015625)"/>
       <path id="DejaVuSans-7a" d="M 353 3500 
L 3084 3500 
L 3084 2975 
L 922 459 
L 3084 459 
L 3084 0 
L 275 0 
L 275 525 
L 2438 3041 
L 353 3041 
L 353 3500 
z
" transform="scale(0.015625)"/>
       <path id="DejaVuSans-64" d="M 2906 2969 
L 2906 4863 
L 3481 4863 
L 3481 0 
L 2906 0 
L 2906 525 
Q 2725 213 2448 61 
Q 2172 -91 1784 -91 
Q 1150 -91 751 415 
Q 353 922 353 1747 
Q 353 2572 751 3078 
Q 1150 3584 1784 3584 
Q 2172 3584 2448 3432 
Q 2725 3281 2906 2969 
z
M 947 1747 
Q 947 1113 1208 752 
Q 1469 391 1925 391 
Q 2381 391 2643 752 
Q 2906 1113 2906 1747 
Q 2906 2381 2643 2742 
Q 2381 3103 1925 3103 
Q 1469 3103 1208 2742 
Q 947 2381 947 1747 
z
" transform="scale(0.015625)"/>
       <path id="DejaVuSans-49" d="M 628 4666 
L 1259 4666 
L 1259 0 
L 628 0 
L 628 4666 
z
" transform="scale(0.015625)"/>
       <path id="DejaVuSans-73" d="M 2834 3397 
L 2834 2853 
Q 2591 2978 2328 3040 
Q 2066 3103 1784 3103 
Q 1356 3103 1142 2972 
Q 928 2841 928 2578 
Q 928 2378 1081 2264 
Q 1234 2150 1697 2047 
L 1894 2003 
Q 2506 1872 2764 1633 
Q 3022 1394 3022 966 
Q 3022 478 2636 193 
Q 2250 -91 1575 -91 
Q 1294 -91 989 -36 
Q 684 19 347 128 
L 347 722 
Q 666 556 975 473 
Q 1284 391 1588 391 
Q 1994 391 2212 530 
Q 2431 669 2431 922 
Q 2431 1156 2273 1281 
Q 2116 1406 1581 1522 
L 1381 1569 
Q 847 1681 609 1914 
Q 372 2147 372 2553 
Q 372 3047 722 3315 
Q 1072 3584 1716 3584 
Q 2034 3584 2315 3537 
Q 2597 3491 2834 3397 
z
" transform="scale(0.015625)"/>
       <path id="DejaVuSans-79" d="M 2059 -325 
Q 1816 -950 1584 -1140 
Q 1353 -1331 966 -1331 
L 506 -1331 
L 506 -850 
L 844 -850 
Q 1081 -850 1212 -737 
Q 1344 -625 1503 -206 
L 1606 56 
L 191 3500 
L 800 3500 
L 1894 763 
L 2988 3500 
L 3597 3500 
L 2059 -325 
z
" transform="scale(0.015625)"/>
      </defs>
      <use xlink:href="#DejaVuSans-4e"/>
      <use xlink:href="#DejaVuSans-6f" transform="translate(74.804688 0)"/>
      <use xlink:href="#DejaVuSans-72" transform="translate(135.986328 0)"/>
      <use xlink:href="#DejaVuSans-6d" transform="translate(175.349609 0)"/>
      <use xlink:href="#DejaVuSans-61" transform="translate(272.761719 0)"/>
      <use xlink:href="#DejaVuSans-6c" transform="translate(334.041016 0)"/>
      <use xlink:href="#DejaVuSans-69" transform="translate(361.824219 0)"/>
      <use xlink:href="#DejaVuSans-7a" transform="translate(389.607422 0)"/>
      <use xlink:href="#DejaVuSans-65" transform="translate(442.097656 0)"/>
      <use xlink:href="#DejaVuSans-64" transform="translate(503.621094 0)"/>
      <use xlink:href="#DejaVuSans-20" transform="translate(567.097656 0)"/>
      <use xlink:href="#DejaVuSans-49" transform="translate(598.884766 0)"/>
      <use xlink:href="#DejaVuSans-6e" transform="translate(628.376953 0)"/>
      <use xlink:href="#DejaVuSans-74" transform="translate(691.755859 0)"/>
      <use xlink:href="#DejaVuSans-65" transform="translate(730.964844 0)"/>
      <use xlink:href="#DejaVuSans-6e" transform="translate(792.488281 0)"/>
      <use xlink:href="#DejaVuSans-73" transform="translate(855.867188 0)"/>
      <use xlink:href="#DejaVuSans-69" transform="translate(907.966797 0)"/>
      <use xlink:href="#DejaVuSans-74" transform="translate(935.75 0)"/>
      <use xlink:href="#DejaVuSans-79" transform="translate(974.958984 0)"/>
     </g>
    </g>
   </g>
   <g id="line2d_13">
    <path d="M 84.332727 510.485382 
L 90.445036 510.532203 
L 95.334882 510.71624 
L 100.224729 510.598621 
L 111.226884 510.659996 
L 161.347813 510.593648 
L 162.570275 510.461896 
L 163.792736 510.216752 
L 165.015198 509.788106 
L 168.682583 507.899261 
L 169.905045 507.479077 
L 172.349968 507.024558 
L 174.794891 506.699909 
L 176.017353 506.677796 
L 177.239815 506.877828 
L 178.462277 507.338684 
L 182.129662 509.378755 
L 183.352123 509.79259 
L 184.574585 509.944137 
L 187.019508 509.969181 
L 190.686893 510.469359 
L 193.131817 510.107748 
L 194.354278 509.944372 
L 195.57674 509.933381 
L 198.021663 510.28645 
L 200.466587 510.705875 
L 202.91151 510.878658 
L 207.801357 510.808079 
L 222.470897 510.619332 
L 228.583205 510.675128 
L 231.028129 510.428847 
L 233.473052 509.75925 
L 234.695514 509.419844 
L 235.917975 509.230068 
L 237.140437 509.241183 
L 239.58536 509.684661 
L 242.030284 510.168284 
L 244.475207 510.41736 
L 250.587516 510.607567 
L 262.812132 510.773956 
L 286.038904 510.83827 
L 290.928751 510.647747 
L 303.153368 509.843182 
L 306.820753 510.12663 
L 310.488138 510.410413 
L 315.377985 510.534457 
L 319.04537 510.345828 
L 321.490293 510.293186 
L 332.492448 510.763829 
L 348.38445 510.705772 
L 355.71922 510.655133 
L 360.609067 510.839714 
L 371.611222 510.837546 
L 382.613377 510.82367 
L 385.0583 510.886738 
L 386.280762 510.619678 
L 387.503224 509.938073 
L 389.948147 507.930444 
L 391.170609 507.329517 
L 392.39307 507.277598 
L 393.615532 507.659518 
L 396.060455 508.725603 
L 397.282917 509.049021 
L 399.72784 509.249883 
L 402.172764 509.450505 
L 409.507534 510.505687 
L 411.952457 510.507539 
L 421.732151 509.970332 
L 426.621997 509.753929 
L 429.066921 509.908429 
L 433.956767 510.471575 
L 435.179229 510.270343 
L 436.401691 509.128551 
L 437.624152 505.677094 
L 438.846614 498.249722 
L 440.069076 486.561064 
L 441.291537 473.239732 
L 442.513999 462.955 
L 443.736461 459.368697 
L 444.958922 462.850366 
L 446.181384 470.869818 
L 447.403846 480.07016 
L 448.626307 488.030296 
L 449.848769 493.809228 
L 451.071231 497.567486 
L 452.293693 499.927529 
L 453.516154 501.501481 
L 454.738616 502.684327 
L 455.961078 503.645455 
L 457.183539 504.421124 
L 458.406001 505.015578 
L 459.628463 505.44769 
L 460.850924 505.741106 
L 462.073386 505.904007 
L 464.518309 505.864066 
L 469.408156 505.264651 
L 475.520464 504.209993 
L 476.742926 503.922975 
L 477.965388 503.504904 
L 480.410311 502.305051 
L 484.077696 500.186679 
L 485.300158 499.29602 
L 486.52262 498.185962 
L 487.745081 496.774768 
L 488.967543 494.964839 
L 490.190005 492.59564 
L 491.412466 489.256788 
L 492.634928 483.683703 
L 493.85739 472.798855 
L 495.079851 452.013152 
L 496.302313 418.991915 
L 497.524775 378.954774 
L 498.747236 344.710209 
L 499.969698 328.421277 
L 501.19216 331.792142 
L 502.414621 344.180322 
L 503.637083 351.045332 
L 504.859545 345.643694 
L 506.082006 333.494645 
L 507.304468 326.26432 
L 508.52693 332.153177 
L 509.749391 351.374867 
L 513.416776 429.693513 
L 514.639238 447.780442 
L 515.8617 460.602675 
L 517.084161 469.274087 
L 518.306623 474.671154 
L 519.529085 477.447961 
L 520.751547 478.588781 
L 521.974008 479.491801 
L 523.19647 481.303237 
L 524.418932 484.232705 
L 525.641393 487.520828 
L 526.863855 489.97318 
L 528.086317 490.65183 
L 529.308778 489.506899 
L 530.53124 487.52434 
L 531.753702 485.975488 
L 532.976163 485.532099 
L 534.198625 486.266835 
L 535.421087 488.077114 
L 537.86601 493.283221 
L 539.088472 495.045146 
L 540.310933 495.564145 
L 541.533395 495.32859 
L 542.755857 495.226894 
L 543.978318 495.776324 
L 546.423242 498.073824 
L 548.868165 500.414929 
L 551.313088 503.221558 
L 552.53555 504.649053 
L 553.758012 505.862147 
L 554.980474 506.775735 
L 556.202935 507.406981 
L 557.425397 507.828955 
L 559.87032 508.301243 
L 561.092782 508.392835 
L 562.315244 508.362915 
L 567.20509 507.760264 
L 568.427552 507.918869 
L 574.53986 509.335681 
L 576.984784 509.584528 
L 584.319554 509.900995 
L 592.876786 510.171864 
L 597.766632 510.221961 
L 602.656479 510.209293 
L 606.323864 510.156347 
L 611.213711 509.741795 
L 614.881096 509.961445 
L 619.770942 510.198269 
L 625.883251 510.232828 
L 628.328174 510.257921 
L 629.550636 510.056316 
L 630.773098 509.63265 
L 633.218021 508.597578 
L 634.440483 508.392753 
L 635.662944 508.502495 
L 640.552791 509.759204 
L 642.997714 510.029908 
L 649.110023 510.415641 
L 652.777408 510.699041 
L 656.444793 510.665088 
L 658.889716 510.439842 
L 661.33464 509.806352 
L 663.779563 509.122711 
L 665.002025 509.023682 
L 666.224486 509.116198 
L 671.114333 509.94659 
L 673.559256 510.045332 
L 677.226641 510.148248 
L 683.33895 510.437247 
L 699.230952 510.584348 
L 720.0128 510.601599 
L 726.125109 510.581508 
L 762.798959 510.82723 
L 782.358346 510.837199 
L 797.027886 510.839548 
L 799.472809 510.72758 
L 803.140194 510.454616 
L 805.585118 510.545139 
L 810.474964 510.860394 
L 816.587273 510.987273 
L 816.587273 510.987273 
" clip-path="url(#p1b3683bbb1)" style="fill: none; stroke: #0000ff; stroke-width: 1.5; stroke-linecap: square"/>
   </g>
   <g id="line2d_14">
    <path d="M 96.511135 234.124644 
L 294.926201 234.016421 
L 307.326363 233.996101 
L 387.419363 234.100113 
L 387.419363 234.088924 
L 420.529493 234.100646 
L 485.457366 233.996289 
L 485.457366 233.894714 
L 488.594448 233.997158 
L 492.436156 233.951394 
L 493.47916 233.997225 
L 493.47916 233.960826 
L 494.174252 233.908219 
L 494.174252 233.929021 
L 495.911125 234.009003 
L 495.911125 233.972822 
L 497.303265 233.856931 
L 498.340646 233.906148 
L 500.048913 233.730329 
L 500.387046 233.827658 
L 501.732732 233.740435 
L 501.732732 233.791525 
L 503.736591 233.859446 
L 513.273993 233.800271 
L 529.402419 233.484559 
L 529.732728 232.808012 
L 530.063526 231.497883 
L 530.395547 231.160734 
L 530.395547 227.948121 
L 530.726834 220.833318 
L 531.057632 219.91676 
L 531.057632 207.777889 
L 531.394298 207.324101 
L 531.394298 197.118105 
L 531.725829 195.888452 
L 531.725829 182.588167 
L 532.056872 150.094145 
L 532.388159 145.99774 
L 532.388159 125.762523 
L 532.719935 120.751973 
L 532.719935 98.51881 
L 533.052934 125.972387 
L 533.052934 87.650826 
L 533.38471 114.985012 
L 533.38471 67.877733 
L 533.715997 104.900202 
L 533.715997 56.504296 
L 534.04704 92.315192 
L 534.04704 49.932727 
L 534.379549 94.71452 
L 534.379549 53.637174 
L 534.712303 101.655075 
L 534.712303 62.366923 
L 535.044813 107.005666 
L 535.044813 71.618209 
L 535.376834 114.094947 
L 535.376834 76.968327 
L 535.708854 119.65751 
L 535.708854 89.606534 
L 536.381697 95.046557 
L 536.381697 111.241966 
L 536.715185 113.400322 
L 536.715185 121.79369 
L 537.049161 160.122385 
L 537.049161 138.496611 
L 537.38216 164.356902 
L 537.38216 146.960532 
L 537.715892 172.976608 
L 537.715892 156.452359 
L 538.048646 179.309306 
L 538.048646 164.25481 
L 538.383845 183.287822 
L 538.383845 167.124279 
L 538.717332 185.104074 
L 538.717332 170.887554 
L 539.049597 187.427473 
L 539.049597 173.463964 
L 539.049597 187.024689 
L 539.383085 186.62429 
L 539.383085 189.424757 
L 539.383085 186.837099 
L 539.716328 201.431017 
L 539.716328 192.891777 
L 540.049816 193.745905 
L 540.049816 193.402233 
L 540.384037 196.354354 
L 540.384037 184.649079 
L 540.717769 197.192929 
L 540.717769 187.019059 
L 541.052968 200.404207 
L 541.052968 190.270862 
L 541.393545 189.877997 
L 541.728255 190.05307 
L 541.728255 190.799824 
L 542.064432 190.712139 
L 542.064432 192.020758 
L 542.401832 204.934758 
L 542.401832 195.52253 
L 542.401832 204.374296 
L 542.736542 204.498724 
L 542.736542 204.6599 
L 543.073208 195.237845 
L 543.073208 203.432076 
L 543.40914 205.423917 
L 543.40914 198.288222 
L 543.743361 209.914814 
L 544.078805 200.489709 
L 544.413515 208.231895 
L 544.413515 201.421133 
L 544.413515 208.165265 
L 545.082446 212.636445 
L 545.082446 206.122141 
L 545.417889 212.770429 
L 545.417889 207.743032 
L 545.752355 215.659744 
L 545.752355 209.543219 
L 546.086576 216.437044 
L 546.086576 211.307503 
L 546.428621 218.033917 
L 546.428621 212.970441 
L 546.764798 213.355854 
L 546.764798 212.399787 
L 547.10073 217.83339 
L 547.10073 213.37652 
L 547.10073 217.578742 
L 547.436418 223.695398 
L 547.436418 221.000568 
L 547.773328 221.261252 
L 547.773328 222.215407 
L 548.113417 223.080781 
L 548.113417 219.175951 
L 548.450328 219.23241 
L 548.450328 218.247314 
L 548.785771 218.548729 
L 548.785771 217.731758 
L 549.12097 222.951433 
L 549.12097 223.250003 
L 549.46057 226.775817 
L 549.46057 224.565907 
L 549.80017 224.728784 
L 549.80017 224.966217 
L 550.137325 226.071267 
L 550.137325 223.812298 
L 550.475458 226.690341 
L 550.475458 224.284089 
L 550.814324 224.830039 
L 551.154168 224.006238 
L 551.154168 224.132847 
L 551.498414 225.14672 
L 551.838014 227.237577 
L 551.838014 225.972486 
L 552.176635 225.636366 
L 552.51648 225.567602 
L 552.51648 224.908649 
L 552.856813 227.600259 
L 553.197391 225.453508 
L 553.540414 227.881571 
L 553.540414 226.783705 
L 553.882214 226.496343 
L 553.882214 226.821316 
L 554.224014 227.139006 
L 554.224014 226.852209 
L 554.566303 228.639143 
L 554.566303 227.543865 
L 554.909082 227.229336 
L 555.596594 227.53617 
L 555.596594 226.091402 
L 555.939372 225.502417 
L 556.281906 227.612857 
L 556.281906 227.603788 
L 556.629819 227.569229 
L 556.629819 227.993746 
L 556.973086 229.761306 
L 556.973086 228.448585 
L 557.316109 228.475109 
L 557.659376 228.838949 
L 557.659376 229.159922 
L 558.002643 228.006846 
L 558.002643 229.194298 
L 558.346155 230.716814 
L 558.346155 229.481295 
L 558.689422 230.320466 
L 558.689422 230.103417 
L 559.033178 230.351373 
L 559.033178 229.254452 
L 559.376935 230.524201 
L 559.376935 229.514918 
L 559.722402 230.885405 
L 559.722402 229.538651 
L 560.410893 229.548903 
L 560.410893 229.470855 
L 560.755382 229.609656 
L 560.755382 229.895646 
L 561.099628 230.829926 
L 561.099628 229.800218 
L 561.444117 231.027907 
L 561.444117 230.273314 
L 562.13872 230.445897 
L 562.13872 230.76102 
L 562.483699 229.599409 
L 562.828922 229.554518 
L 562.828922 230.329131 
L 563.174145 229.515361 
L 563.519124 229.346561 
L 563.864103 229.645037 
L 564.20957 229.689954 
L 564.554793 229.034935 
L 565.245973 230.978458 
L 565.245973 231.24792 
L 565.596086 232.201604 
L 565.596086 231.502038 
L 565.596086 232.034264 
L 565.941798 232.126036 
L 565.941798 232.019249 
L 566.287511 231.371846 
L 566.632978 232.151701 
L 566.632978 231.66042 
L 566.985536 231.429881 
L 566.985536 231.693994 
L 567.331737 231.684283 
L 567.677938 230.953356 
L 568.02414 231.612905 
L 568.02414 231.209447 
L 568.370096 231.654969 
L 568.716297 232.353861 
L 568.716297 231.540741 
L 569.062499 232.039271 
L 569.062499 231.562437 
L 569.409922 232.161538 
L 569.409922 231.721513 
L 569.756368 232.565355 
L 569.756368 232.103649 
L 570.102813 232.112259 
L 570.795949 231.883147 
L 570.795949 231.965916 
L 571.142884 232.451781 
L 571.142884 232.06798 
L 571.489574 232.22928 
L 571.83602 232.240262 
L 571.83602 232.369692 
L 572.187844 232.480628 
L 572.534534 232.865312 
L 572.534534 232.39645 
L 573.228648 232.200656 
L 573.575827 232.271273 
L 573.575827 232.409785 
L 573.922762 232.74515 
L 573.922762 232.442051 
L 574.27043 232.95107 
L 574.27043 232.434022 
L 574.618098 232.76657 
L 574.618098 232.542727 
L 574.965277 232.550826 
L 575.312456 232.159057 
L 575.659635 232.631328 
L 575.659635 232.376083 
L 576.355216 232.312002 
L 576.70264 232.29581 
L 577.050797 231.95196 
L 577.408978 231.784504 
L 578.105048 232.47665 
L 578.105048 232.659927 
L 578.453205 232.619438 
L 578.801362 233.046287 
L 578.801362 232.822288 
L 579.149274 232.728053 
L 579.49792 232.98976 
L 579.846567 232.676161 
L 580.195457 232.93354 
L 580.543859 232.888918 
L 580.892505 232.640872 
L 581.590041 232.699034 
L 581.590041 232.58923 
L 581.938932 232.925141 
L 581.938932 232.907653 
L 582.293446 232.891112 
L 582.642092 232.697132 
L 582.990738 232.838303 
L 583.339629 232.6401 
L 583.339629 232.817722 
L 584.036432 232.946826 
L 584.036432 233.217749 
L 584.385078 233.446475 
L 584.385078 233.320168 
L 584.735191 233.230365 
L 585.084081 233.446081 
L 585.084081 233.145516 
L 585.432727 233.143914 
L 585.432727 233.148444 
L 585.781618 233.47988 
L 585.781618 233.229305 
L 586.130264 233.24389 
L 586.479399 232.995982 
L 586.841492 232.963177 
L 587.196006 232.540281 
L 587.549542 232.515726 
L 587.898677 232.872117 
L 587.898677 233.080139 
L 588.247323 233.614296 
L 588.946082 233.600337 
L 588.946082 233.436763 
L 588.946082 233.575335 
L 589.294728 233.394623 
L 589.644352 233.429114 
L 589.993976 233.270169 
L 590.343845 233.484809 
L 590.343845 233.332769 
L 591.042604 233.699062 
L 591.042604 233.481841 
L 592.097099 233.207848 
L 592.097099 233.236796 
L 592.446724 233.374576 
L 592.796348 233.267363 
L 593.146216 233.303854 
L 593.495596 233.129099 
L 593.844975 233.108985 
L 594.195088 233.279514 
L 594.195088 233.460566 
L 594.544712 233.74085 
L 594.894581 233.573877 
L 595.244205 233.713269 
L 595.244205 233.570086 
L 595.594562 233.428898 
L 595.944431 233.564472 
L 595.944431 233.564224 
L 596.295033 233.377915 
L 596.295033 233.525378 
L 597.000393 233.725225 
L 597.704776 233.430321 
L 598.054889 233.396361 
L 598.405002 233.227594 
L 598.755604 233.241892 
L 599.105472 233.401015 
L 599.105472 233.398882 
L 599.455096 233.371033 
L 600.856037 233.790895 
L 601.912978 233.460453 
L 602.964539 233.690095 
L 602.964539 233.549713 
L 602.964539 233.665451 
L 603.315141 233.528866 
L 604.366947 233.897059 
L 604.366947 233.768566 
L 604.717305 233.782117 
L 604.717305 233.700465 
L 606.115557 233.538929 
L 606.115557 233.611738 
L 606.464447 233.700836 
L 606.464447 233.678882 
L 607.167607 233.715557 
L 607.866611 233.549214 
L 608.215746 233.425851 
L 608.917683 233.494003 
L 609.266574 233.598303 
L 609.266574 233.735482 
L 609.615464 233.680601 
L 610.313979 233.71541 
L 611.012005 233.697615 
L 612.416613 233.796308 
L 612.765993 233.715696 
L 613.815598 233.778586 
L 614.865937 233.784821 
L 614.865937 233.849716 
L 615.216295 233.801083 
L 615.216295 233.838508 
L 615.565674 233.919852 
L 615.565674 233.830621 
L 616.265167 233.757932 
L 617.320151 233.650537 
L 617.320151 233.776734 
L 620.124478 233.73939 
L 620.824215 233.653626 
L 620.824215 233.718247 
L 622.928561 233.962788 
L 622.928561 233.899767 
L 623.97401 233.801298 
L 625.710639 233.766075 
L 628.844053 233.834331 
L 629.191721 233.933817 
L 629.888035 233.872812 
L 630.937641 233.818671 
L 631.988958 233.756495 
L 631.988958 233.759455 
L 632.339071 233.814125 
L 632.687962 233.742487 
L 633.385254 233.905151 
L 633.733655 233.823615 
L 634.430458 233.828983 
L 636.171244 233.863783 
L 637.220605 233.809246 
L 637.916919 233.807112 
L 638.960412 233.989536 
L 640.003906 233.763471 
L 640.701931 233.864157 
L 640.701931 233.849501 
L 640.701931 233.904267 
L 643.831922 233.961757 
L 643.831922 234.017462 
L 644.876393 233.949231 
L 645.571974 233.803123 
L 646.97047 233.895906 
L 646.97047 233.895217 
L 647.66874 233.819389 
L 650.113664 233.990371 
L 654.662688 233.963795 
L 654.662688 233.963428 
L 656.41472 233.95684 
L 657.113235 234.005666 
L 657.113235 233.926805 
L 658.866 233.850659 
L 658.866 233.894374 
L 660.614121 233.79066 
L 661.318748 233.774771 
L 661.318748 233.822232 
L 664.115251 233.961965 
L 664.115251 233.957653 
L 664.814743 233.943199 
L 664.814743 234.003865 
L 665.515214 234.006844 
L 665.515214 233.998045 
L 666.926424 233.695516 
L 669.378437 233.95325 
L 669.378437 233.87121 
L 670.080375 233.743504 
L 671.137071 233.955353 
L 672.188632 233.899198 
L 672.889347 233.926463 
L 672.889347 233.91026 
L 675.695875 233.858519 
L 676.757216 233.952251 
L 676.757216 233.908085 
L 677.107329 233.940095 
L 677.107329 233.882113 
L 678.858383 233.790101 
L 679.9097 233.950318 
L 679.9097 233.941098 
L 680.610171 234.020996 
L 680.610171 234.016666 
L 681.666378 233.781875 
L 682.01698 233.743587 
L 682.01698 233.812566 
L 683.770234 233.926486 
L 683.770234 234.009464 
L 684.470705 234.036084 
L 684.470705 234.005944 
L 689.386468 233.904206 
L 689.386468 233.985124 
L 692.194707 233.902994 
L 692.194707 233.952293 
L 692.545064 234.01504 
L 692.545064 233.963044 
L 693.595403 233.807907 
L 696.405354 233.856236 
L 696.405354 233.805033 
L 696.755467 233.74459 
L 696.755467 233.876959 
L 697.10558 233.759607 
L 697.10558 233.826657 
L 698.855411 233.935408 
L 698.855411 234.017161 
L 699.906239 233.828734 
L 699.906239 233.907398 
L 700.6116 233.864122 
L 701.31207 233.885409 
L 701.31207 233.817624 
L 702.011807 233.787835 
L 703.061902 233.779963 
L 703.761395 233.762462 
L 703.761395 233.851626 
L 704.461132 233.877824 
L 704.461132 233.83048 
L 707.969108 233.798639 
L 707.969108 233.778112 
L 709.018224 233.788502 
L 709.018224 233.862808 
L 709.717961 233.934689 
L 709.717961 233.929242 
L 710.423077 233.758086 
L 711.12257 233.817514 
L 712.520088 233.876335 
L 712.520088 233.897689 
L 712.869712 233.813605 
L 714.267475 233.946971 
L 714.267475 233.917912 
L 715.320992 233.761432 
L 716.7234 233.861145 
L 717.072535 233.751043 
L 717.072535 233.81324 
L 718.120429 233.839771 
L 718.120429 233.839699 
L 719.518192 233.902646 
L 719.518192 233.95881 
L 720.571221 233.929608 
L 720.571221 233.858311 
L 721.26998 233.728766 
L 721.26998 233.72942 
L 723.713681 233.891686 
L 723.713681 233.848601 
L 724.760352 233.715909 
L 724.760352 233.740446 
L 725.816804 233.973238 
L 726.862497 233.805727 
L 727.21041 233.716288 
L 727.21041 233.738093 
L 728.623576 233.960634 
L 729.667558 233.799976 
L 729.667558 233.812072 
L 730.020849 233.951925 
L 730.020849 233.855798 
L 734.887958 233.808103 
L 735.592585 233.730261 
L 735.592585 233.79862 
L 737.675904 233.678676 
L 737.675904 233.706368 
L 738.369529 233.337019 
L 738.369529 233.45234 
L 738.716219 233.344383 
L 738.716219 233.494802 
L 740.103224 232.504045 
L 740.103224 232.753939 
L 740.80345 232.261756 
L 740.80345 232.422121 
L 741.495853 231.945019 
L 741.495853 232.225862 
L 741.842787 231.836187 
L 741.842787 232.013625 
L 742.189477 231.604863 
L 742.189477 231.92424 
L 742.535679 231.622079 
L 742.535679 232.115241 
L 742.883102 231.864883 
L 742.883102 232.196449 
L 743.229792 231.688522 
L 743.229792 231.857659 
L 743.922439 231.153512 
L 743.922439 231.524348 
L 744.268885 231.291068 
L 744.268885 231.696315 
L 744.614841 231.453451 
L 744.614841 231.849135 
L 744.961532 231.463997 
L 744.961532 231.698738 
L 745.307733 231.085262 
L 745.307733 231.26054 
L 745.659557 230.72167 
L 745.659557 231.039916 
L 746.010159 230.328288 
L 746.010159 230.600458 
L 746.356605 229.989418 
L 746.356605 230.462289 
L 746.702561 229.92188 
L 746.702561 230.5185 
L 747.048518 229.906997 
L 747.048518 230.427684 
L 747.394475 229.709617 
L 747.394475 230.016888 
L 747.740676 229.144258 
L 747.740676 229.555875 
L 748.086877 228.71079 
L 748.086877 229.211513 
L 748.433078 228.536796 
L 748.433078 229.302072 
L 748.779035 228.615208 
L 748.779035 229.28365 
L 749.124992 228.576482 
L 749.124992 229.111861 
L 749.470948 228.048861 
L 749.470948 228.798182 
L 749.817638 228.165393 
L 749.817638 228.724347 
L 750.16335 227.965531 
L 750.16335 228.926041 
L 750.509552 228.192717 
L 750.509552 228.824829 
L 750.860643 228.317946 
L 750.860643 229.059259 
L 751.207822 228.455656 
L 751.207822 229.291944 
L 751.554023 229.138917 
L 751.554023 229.908532 
L 751.900224 229.755777 
L 751.900224 230.51091 
L 752.246914 230.001583 
L 752.246914 230.392485 
L 752.592626 229.803809 
L 752.592626 230.175987 
L 752.938094 229.521605 
L 752.938094 230.130209 
L 753.284784 229.870157 
L 753.284784 230.528608 
L 753.632941 230.121256 
L 753.632941 230.927728 
L 753.979142 230.475976 
L 753.979142 230.774056 
L 754.32461 230.364888 
L 754.32461 231.08331 
L 754.670322 230.569011 
L 754.670322 231.061964 
L 755.016523 230.853001 
L 755.016523 231.300697 
L 755.362724 230.677601 
L 755.362724 231.078503 
L 755.708681 230.740095 
L 755.708681 231.144219 
L 756.065395 230.841974 
L 756.065395 231.446588 
L 756.411108 231.360479 
L 756.411108 231.786423 
L 756.757309 231.463698 
L 756.757309 231.730821 
L 757.10351 231.266587 
L 757.10351 231.603695 
L 757.449711 231.260441 
L 757.449711 231.555606 
L 757.795668 231.398694 
L 757.795668 231.94806 
L 758.141869 231.822462 
L 758.141869 232.225577 
L 758.48807 231.995391 
L 758.48807 232.231438 
L 759.180717 231.608654 
L 759.180717 231.900569 
L 759.527407 231.532459 
L 759.527407 231.695103 
L 759.873119 231.603236 
L 759.873119 231.939855 
L 760.219076 231.640609 
L 760.219076 232.05935 
L 760.565277 231.820316 
L 760.565277 231.94728 
L 760.911234 231.776945 
L 760.911234 232.123721 
L 761.262814 231.925959 
L 761.262814 232.247949 
L 761.609015 232.10419 
L 761.609015 232.35234 
L 761.954727 232.09289 
L 761.954727 232.350786 
L 762.300683 232.077594 
L 762.300683 232.193394 
L 762.646885 232.002011 
L 762.646885 232.18521 
L 762.993575 231.897842 
L 762.993575 232.151305 
L 763.339042 232.02911 
L 763.339042 232.24814 
L 763.684755 231.905581 
L 763.684755 232.273472 
L 764.030711 232.012897 
L 764.030711 232.270835 
L 764.377157 232.153146 
L 764.377157 232.651353 
L 764.723114 232.398577 
L 764.723114 232.789124 
L 765.069315 232.609451 
L 765.069315 232.764317 
L 765.41576 232.543873 
L 765.41576 232.77814 
L 765.766362 232.551722 
L 765.766362 232.773057 
L 766.463899 232.278875 
L 766.463899 232.468422 
L 766.811323 232.177724 
L 766.811323 232.431007 
L 767.157035 232.362893 
L 767.157035 232.728927 
L 767.503236 232.444866 
L 767.503236 232.682374 
L 767.848948 232.53963 
L 767.848948 232.742503 
L 768.194905 232.54925 
L 768.194905 232.872175 
L 768.54135 232.979491 
L 768.887796 232.679779 
L 768.887796 232.768412 
L 769.233997 232.646304 
L 769.233997 232.771751 
L 769.579954 232.571337 
L 769.579954 232.754383 
L 769.926155 232.70318 
L 769.926155 232.75747 
L 770.272356 232.537513 
L 770.272356 232.743406 
L 770.618313 232.559084 
L 770.618313 232.642002 
L 770.964514 232.569397 
L 770.964514 232.726463 
L 771.310715 232.558094 
L 771.310715 232.814431 
L 771.661562 232.685643 
L 771.661562 232.829228 
L 772.007274 232.727713 
L 772.007274 232.920327 
L 772.352986 232.79606 
L 772.352986 233.06738 
L 772.699187 232.801672 
L 772.699187 232.908005 
L 773.3911 232.518032 
L 773.3911 232.78572 
L 773.736812 232.722267 
L 773.736812 232.878774 
L 774.082525 232.865211 
L 774.082525 233.022414 
L 774.774438 232.680731 
L 774.774438 232.690127 
L 775.120395 232.618132 
L 775.120395 232.875967 
L 775.466596 232.691878 
L 775.466596 232.85178 
L 775.816953 232.801338 
L 775.816953 232.975806 
L 776.16291 232.722938 
L 776.16291 233.00754 
L 776.508378 232.824933 
L 776.508378 233.046422 
L 776.859469 232.842978 
L 776.859469 232.877602 
L 777.550648 232.704745 
L 777.550648 232.9279 
L 778.241828 233.15423 
L 778.933008 232.9687 
L 778.933008 233.132011 
L 779.27872 232.986254 
L 779.27872 233.028968 
L 780.31659 232.936493 
L 780.662302 232.78253 
L 780.662302 233.018108 
L 781.00777 232.808105 
L 781.00777 232.993125 
L 781.353482 232.890235 
L 781.353482 233.050891 
L 781.698705 232.857433 
L 781.698705 232.998857 
L 782.049307 232.735511 
L 782.049307 232.977738 
L 782.41189 232.708258 
L 782.41189 232.844223 
L 782.757113 232.767036 
L 782.757113 233.053424 
L 783.102336 232.862677 
L 783.102336 233.190564 
L 783.447559 233.267471 
L 784.138005 232.804553 
L 784.138005 232.87236 
L 784.483718 232.732831 
L 784.483718 232.88394 
L 784.830408 232.722382 
L 784.830408 232.978988 
L 785.175631 232.89559 
L 785.175631 233.100618 
L 785.521099 232.982104 
L 785.521099 233.182531 
L 786.211789 232.841114 
L 786.211789 233.041518 
L 786.557257 232.822232 
L 786.557257 233.077474 
L 786.908104 233.0196 
L 786.908104 233.219685 
L 787.604418 232.984175 
L 787.604418 233.038923 
L 787.949641 232.729965 
L 787.949641 232.811368 
L 788.294864 232.741128 
L 788.294864 232.935184 
L 788.640576 232.834247 
L 788.640576 232.98879 
L 788.985799 232.887705 
L 788.985799 233.052605 
L 789.331267 232.917159 
L 789.331267 233.010174 
L 789.678202 233.013318 
L 789.678202 233.144512 
L 790.023425 233.032267 
L 790.023425 233.202654 
L 790.369137 233.11208 
L 791.060317 232.859097 
L 791.060317 232.937981 
L 791.40554 232.789518 
L 791.40554 233.138924 
L 792.095986 232.925726 
L 792.446833 232.653409 
L 792.446833 232.937681 
L 792.791323 232.716408 
L 792.791323 232.993459 
L 793.136057 232.888367 
L 793.136057 233.024349 
L 793.481036 232.76869 
L 793.481036 232.979598 
L 794.170748 232.852852 
L 794.170748 232.96308 
L 794.515483 232.837803 
L 794.515483 232.87708 
L 794.864618 232.880746 
L 794.864618 233.305715 
L 795.209352 233.286152 
L 795.209352 233.420652 
L 795.898576 232.932413 
L 795.898576 233.138123 
L 796.243554 233.039071 
L 796.243554 233.388541 
L 796.588044 233.268033 
L 796.588044 233.382001 
L 796.934734 233.341606 
L 796.934734 233.498349 
L 797.278735 233.46037 
L 797.628115 233.20221 
L 797.628115 233.203118 
L 798.316116 233.059233 
L 798.316116 233.376292 
L 798.659872 233.219554 
L 798.659872 233.227954 
L 799.003873 233.192132 
L 799.003873 233.364266 
L 799.344695 233.174971 
L 799.344695 233.451421 
L 800.030985 233.217199 
L 800.030985 233.420602 
L 800.372052 233.291731 
L 800.372052 233.406545 
L 800.711652 233.406353 
L 800.711652 233.578494 
L 801.050763 233.462811 
L 801.050763 233.597493 
L 801.38914 233.448931 
L 801.726051 233.237428 
L 801.726051 233.263787 
L 802.400849 233.169536 
L 802.400849 233.313793 
L 802.743139 233.360494 
L 802.743139 233.487295 
L 803.080049 233.302789 
L 803.080049 233.448857 
L 803.414759 233.215551 
L 803.414759 233.451189 
L 803.751425 233.354539 
L 803.751425 233.584652 
L 804.087602 233.577897 
L 804.087602 233.74377 
L 804.7602 233.468346 
L 805.765553 233.577956 
L 805.765553 233.495269 
L 806.769683 233.011697 
L 807.110016 233.138338 
L 807.446193 233.372675 
L 807.786038 233.211269 
L 808.459859 233.222027 
L 808.795546 233.036679 
L 808.795546 233.197528 
L 809.808967 233.442984 
L 809.808967 233.413313 
L 810.146367 233.309549 
L 811.155631 233.633212 
L 811.495231 233.057132 
L 811.83263 232.873401 
L 811.83263 232.744135 
L 812.171252 232.53015 
L 812.171252 233.086035 
L 812.509385 233.054163 
L 812.509385 233.193181 
L 812.853386 233.265027 
L 816.045722 233.350857 
L 816.404881 233.678046 
L 816.404881 233.678046 
" clip-path="url(#p1b3683bbb1)" style="fill: none; stroke: #008000; stroke-width: 1.5; stroke-linecap: square"/>
   </g>
   <g id="patch_3">
    <path d="M 47.72 534.04 
L 47.72 26.88 
" style="fill: none; stroke: #000000; stroke-width: 0.8; stroke-linejoin: miter; stroke-linecap: square"/>
   </g>
   <g id="patch_4">
    <path d="M 853.2 534.04 
L 853.2 26.88 
" style="fill: none; stroke: #000000; stroke-width: 0.8; stroke-linejoin: miter; stroke-linecap: square"/>
   </g>
   <g id="patch_5">
    <path d="M 47.72 534.04 
L 853.2 534.04 
" style="fill: none; stroke: #000000; stroke-width: 0.8; stroke-linejoin: miter; stroke-linecap: square"/>
   </g>
   <g id="patch_6">
    <path d="M 47.72 26.88 
L 853.2 26.88 
" style="fill: none; stroke: #000000; stroke-width: 0.8; stroke-linejoin: miter; stroke-linecap: square"/>
   </g>
   <g id="patch_7">
    <path d="M 602.309181 473.140334 
Q 576.157888 478.967038 550.006594 484.793743 
L 550.876493 488.698007 
Q 544.369476 487.074256 537.862459 485.450505 
Q 543.064627 481.21786 548.266795 476.985216 
L 549.136694 480.889479 
Q 575.287988 475.062775 601.439282 469.23607 
L 602.309181 473.140334 
z
" style="stroke: #000000; stroke-linecap: round"/>
   </g>
   <g id="text_15">
    <!-- Peak: RT=3.08, Area=1.43e+04 -->
    <g style="fill: #ff0000" transform="translate(607.546326 456.646917) scale(0.1 -0.1)">
     <defs>
      <path id="DejaVuSans-50" d="M 1259 4147 
L 1259 2394 
L 2053 2394 
Q 2494 2394 2734 2622 
Q 2975 2850 2975 3272 
Q 2975 3691 2734 3919 
Q 2494 4147 2053 4147 
L 1259 4147 
z
M 628 4666 
L 2053 4666 
Q 2838 4666 3239 4311 
Q 3641 3956 3641 3272 
Q 3641 2581 3239 2228 
Q 2838 1875 2053 1875 
L 1259 1875 
L 1259 0 
L 628 0 
L 628 4666 
z
" transform="scale(0.015625)"/>
      <path id="DejaVuSans-6b" d="M 581 4863 
L 1159 4863 
L 1159 1991 
L 2875 3500 
L 3609 3500 
L 1753 1863 
L 3688 0 
L 2938 0 
L 1159 1709 
L 1159 0 
L 581 0 
L 581 4863 
z
" transform="scale(0.015625)"/>
      <path id="DejaVuSans-3a" d="M 750 794 
L 1409 794 
L 1409 0 
L 750 0 
L 750 794 
z
M 750 3309 
L 1409 3309 
L 1409 2516 
L 750 2516 
L 750 3309 
z
" transform="scale(0.015625)"/>
      <path id="DejaVuSans-3d" d="M 678 2906 
L 4684 2906 
L 4684 2381 
L 678 2381 
L 678 2906 
z
M 678 1631 
L 4684 1631 
L 4684 1100 
L 678 1100 
L 678 1631 
z
" transform="scale(0.015625)"/>
      <path id="DejaVuSans-38" d="M 2034 2216 
Q 1584 2216 1326 1975 
Q 1069 1734 1069 1313 
Q 1069 891 1326 650 
Q 1584 409 2034 409 
Q 2484 409 2743 651 
Q 3003 894 3003 1313 
Q 3003 1734 2745 1975 
Q 2488 2216 2034 2216 
z
M 1403 2484 
Q 997 2584 770 2862 
Q 544 3141 544 3541 
Q 544 4100 942 4425 
Q 1341 4750 2034 4750 
Q 2731 4750 3128 4425 
Q 3525 4100 3525 3541 
Q 3525 3141 3298 2862 
Q 3072 2584 2669 2484 
Q 3125 2378 3379 2068 
Q 3634 1759 3634 1313 
Q 3634 634 3220 271 
Q 2806 -91 2034 -91 
Q 1263 -91 848 271 
Q 434 634 434 1313 
Q 434 1759 690 2068 
Q 947 2378 1403 2484 
z
M 1172 3481 
Q 1172 3119 1398 2916 
Q 1625 2713 2034 2713 
Q 2441 2713 2670 2916 
Q 2900 3119 2900 3481 
Q 2900 3844 2670 4047 
Q 2441 4250 2034 4250 
Q 1625 4250 1398 4047 
Q 1172 3844 1172 3481 
z
" transform="scale(0.015625)"/>
      <path id="DejaVuSans-2c" d="M 750 794 
L 1409 794 
L 1409 256 
L 897 -744 
L 494 -744 
L 750 256 
L 750 794 
z
" transform="scale(0.015625)"/>
      <path id="DejaVuSans-41" d="M 2188 4044 
L 1331 1722 
L 3047 1722 
L 2188 4044 
z
M 1831 4666 
L 2547 4666 
L 4325 0 
L 3669 0 
L 3244 1197 
L 1141 1197 
L 716 0 
L 50 0 
L 1831 4666 
z
" transform="scale(0.015625)"/>
      <path id="DejaVuSans-2b" d="M 2944 4013 
L 2944 2272 
L 4684 2272 
L 4684 1741 
L 2944 1741 
L 2944 0 
L 2419 0 
L 2419 1741 
L 678 1741 
L 678 2272 
L 2419 2272 
L 2419 4013 
L 2944 4013 
z
" transform="scale(0.015625)"/>
     </defs>
     <use xlink:href="#DejaVuSans-50"/>
     <use xlink:href="#DejaVuSans-65" transform="translate(56.677734 0)"/>
     <use xlink:href="#DejaVuSans-61" transform="translate(118.201172 0)"/>
     <use xlink:href="#DejaVuSans-6b" transform="translate(179.480469 0)"/>
     <use xlink:href="#DejaVuSans-3a" transform="translate(237.390625 0)"/>
     <use xlink:href="#DejaVuSans-20" transform="translate(271.082031 0)"/>
     <use xlink:href="#DejaVuSans-52" transform="translate(302.869141 0)"/>
     <use xlink:href="#DejaVuSans-54" transform="translate(365.101562 0)"/>
     <use xlink:href="#DejaVuSans-3d" transform="translate(426.185547 0)"/>
     <use xlink:href="#DejaVuSans-33" transform="translate(509.974609 0)"/>
     <use xlink:href="#DejaVuSans-2e" transform="translate(573.597656 0)"/>
     <use xlink:href="#DejaVuSans-30" transform="translate(605.384766 0)"/>
     <use xlink:href="#DejaVuSans-38" transform="translate(669.007812 0)"/>
     <use xlink:href="#DejaVuSans-2c" transform="translate(732.630859 0)"/>
     <use xlink:href="#DejaVuSans-20" transform="translate(764.417969 0)"/>
     <use xlink:href="#DejaVuSans-41" transform="translate(796.205078 0)"/>
     <use xlink:href="#DejaVuSans-72" transform="translate(864.613281 0)"/>
     <use xlink:href="#DejaVuSans-65" transform="translate(903.476562 0)"/>
     <use xlink:href="#DejaVuSans-61" transform="translate(965 0)"/>
     <use xlink:href="#DejaVuSans-3d" transform="translate(1026.279297 0)"/>
     <use xlink:href="#DejaVuSans-31" transform="translate(1110.068359 0)"/>
     <use xlink:href="#DejaVuSans-2e" transform="translate(1173.691406 0)"/>
     <use xlink:href="#DejaVuSans-34" transform="translate(1205.478516 0)"/>
     <use xlink:href="#DejaVuSans-33" transform="translate(1269.101562 0)"/>
     <use xlink:href="#DejaVuSans-65" transform="translate(1332.724609 0)"/>
     <use xlink:href="#DejaVuSans-2b" transform="translate(1394.248047 0)"/>
     <use xlink:href="#DejaVuSans-30" transform="translate(1478.037109 0)"/>
     <use xlink:href="#DejaVuSans-34" transform="translate(1541.660156 0)"/>
    </g>
    <!-- (48.55% of total) -->
    <g style="fill: #ff0000" transform="translate(607.546326 467.844729) scale(0.1 -0.1)">
     <defs>
      <path id="DejaVuSans-25" d="M 4653 2053 
Q 4381 2053 4226 1822 
Q 4072 1591 4072 1178 
Q 4072 772 4226 539 
Q 4381 306 4653 306 
Q 4919 306 5073 539 
Q 5228 772 5228 1178 
Q 5228 1588 5073 1820 
Q 4919 2053 4653 2053 
z
M 4653 2450 
Q 5147 2450 5437 2106 
Q 5728 1763 5728 1178 
Q 5728 594 5436 251 
Q 5144 -91 4653 -91 
Q 4153 -91 3862 251 
Q 3572 594 3572 1178 
Q 3572 1766 3864 2108 
Q 4156 2450 4653 2450 
z
M 1428 4353 
Q 1159 4353 1004 4120 
Q 850 3888 850 3481 
Q 850 3069 1003 2837 
Q 1156 2606 1428 2606 
Q 1700 2606 1854 2837 
Q 2009 3069 2009 3481 
Q 2009 3884 1853 4118 
Q 1697 4353 1428 4353 
z
M 4250 4750 
L 4750 4750 
L 1831 -91 
L 1331 -91 
L 4250 4750 
z
M 1428 4750 
Q 1922 4750 2215 4408 
Q 2509 4066 2509 3481 
Q 2509 2891 2217 2550 
Q 1925 2209 1428 2209 
Q 931 2209 642 2551 
Q 353 2894 353 3481 
Q 353 4063 643 4406 
Q 934 4750 1428 4750 
z
" transform="scale(0.015625)"/>
      <path id="DejaVuSans-66" d="M 2375 4863 
L 2375 4384 
L 1825 4384 
Q 1516 4384 1395 4259 
Q 1275 4134 1275 3809 
L 1275 3500 
L 2222 3500 
L 2222 3053 
L 1275 3053 
L 1275 0 
L 697 0 
L 697 3053 
L 147 3053 
L 147 3500 
L 697 3500 
L 697 3744 
Q 697 4328 969 4595 
Q 1241 4863 1831 4863 
L 2375 4863 
z
" transform="scale(0.015625)"/>
     </defs>
     <use xlink:href="#DejaVuSans-28"/>
     <use xlink:href="#DejaVuSans-34" transform="translate(39.013672 0)"/>
     <use xlink:href="#DejaVuSans-38" transform="translate(102.636719 0)"/>
     <use xlink:href="#DejaVuSans-2e" transform="translate(166.259766 0)"/>
     <use xlink:href="#DejaVuSans-35" transform="translate(198.046875 0)"/>
     <use xlink:href="#DejaVuSans-35" transform="translate(261.669922 0)"/>
     <use xlink:href="#DejaVuSans-25" transform="translate(325.292969 0)"/>
     <use xlink:href="#DejaVuSans-20" transform="translate(420.3125 0)"/>
     <use xlink:href="#DejaVuSans-6f" transform="translate(452.099609 0)"/>
     <use xlink:href="#DejaVuSans-66" transform="translate(513.28125 0)"/>
     <use xlink:href="#DejaVuSans-20" transform="translate(548.486328 0)"/>
     <use xlink:href="#DejaVuSans-74" transform="translate(580.273438 0)"/>
     <use xlink:href="#DejaVuSans-6f" transform="translate(619.482422 0)"/>
     <use xlink:href="#DejaVuSans-74" transform="translate(680.664062 0)"/>
     <use xlink:href="#DejaVuSans-61" transform="translate(719.873047 0)"/>
     <use xlink:href="#DejaVuSans-6c" transform="translate(781.152344 0)"/>
     <use xlink:href="#DejaVuSans-29" transform="translate(808.935547 0)"/>
    </g>
   </g>
   <g id="text_16">
    <!-- UV and MS Chromatograms of IrCp4M14, target m/z = 805.0961403 -->
    <g transform="translate(245.142813 20.88) scale(0.12 -0.12)">
     <defs>
      <path id="DejaVuSans-55" d="M 556 4666 
L 1191 4666 
L 1191 1831 
Q 1191 1081 1462 751 
Q 1734 422 2344 422 
Q 2950 422 3222 751 
Q 3494 1081 3494 1831 
L 3494 4666 
L 4128 4666 
L 4128 1753 
Q 4128 841 3676 375 
Q 3225 -91 2344 -91 
Q 1459 -91 1007 375 
Q 556 841 556 1753 
L 556 4666 
z
" transform="scale(0.015625)"/>
      <path id="DejaVuSans-56" d="M 1831 0 
L 50 4666 
L 709 4666 
L 2188 738 
L 3669 4666 
L 4325 4666 
L 2547 0 
L 1831 0 
z
" transform="scale(0.015625)"/>
      <path id="DejaVuSans-4d" d="M 628 4666 
L 1569 4666 
L 2759 1491 
L 3956 4666 
L 4897 4666 
L 4897 0 
L 4281 0 
L 4281 4097 
L 3078 897 
L 2444 897 
L 1241 4097 
L 1241 0 
L 628 0 
L 628 4666 
z
" transform="scale(0.015625)"/>
      <path id="DejaVuSans-53" d="M 3425 4513 
L 3425 3897 
Q 3066 4069 2747 4153 
Q 2428 4238 2131 4238 
Q 1616 4238 1336 4038 
Q 1056 3838 1056 3469 
Q 1056 3159 1242 3001 
Q 1428 2844 1947 2747 
L 2328 2669 
Q 3034 2534 3370 2195 
Q 3706 1856 3706 1288 
Q 3706 609 3251 259 
Q 2797 -91 1919 -91 
Q 1588 -91 1214 -16 
Q 841 59 441 206 
L 441 856 
Q 825 641 1194 531 
Q 1563 422 1919 422 
Q 2459 422 2753 634 
Q 3047 847 3047 1241 
Q 3047 1584 2836 1778 
Q 2625 1972 2144 2069 
L 1759 2144 
Q 1053 2284 737 2584 
Q 422 2884 422 3419 
Q 422 4038 858 4394 
Q 1294 4750 2059 4750 
Q 2388 4750 2728 4690 
Q 3069 4631 3425 4513 
z
" transform="scale(0.015625)"/>
      <path id="DejaVuSans-43" d="M 4122 4306 
L 4122 3641 
Q 3803 3938 3442 4084 
Q 3081 4231 2675 4231 
Q 1875 4231 1450 3742 
Q 1025 3253 1025 2328 
Q 1025 1406 1450 917 
Q 1875 428 2675 428 
Q 3081 428 3442 575 
Q 3803 722 4122 1019 
L 4122 359 
Q 3791 134 3420 21 
Q 3050 -91 2638 -91 
Q 1578 -91 968 557 
Q 359 1206 359 2328 
Q 359 3453 968 4101 
Q 1578 4750 2638 4750 
Q 3056 4750 3426 4639 
Q 3797 4528 4122 4306 
z
" transform="scale(0.015625)"/>
      <path id="DejaVuSans-68" d="M 3513 2113 
L 3513 0 
L 2938 0 
L 2938 2094 
Q 2938 2591 2744 2837 
Q 2550 3084 2163 3084 
Q 1697 3084 1428 2787 
Q 1159 2491 1159 1978 
L 1159 0 
L 581 0 
L 581 4863 
L 1159 4863 
L 1159 2956 
Q 1366 3272 1645 3428 
Q 1925 3584 2291 3584 
Q 2894 3584 3203 3211 
Q 3513 2838 3513 2113 
z
" transform="scale(0.015625)"/>
      <path id="DejaVuSans-67" d="M 2906 1791 
Q 2906 2416 2648 2759 
Q 2391 3103 1925 3103 
Q 1463 3103 1205 2759 
Q 947 2416 947 1791 
Q 947 1169 1205 825 
Q 1463 481 1925 481 
Q 2391 481 2648 825 
Q 2906 1169 2906 1791 
z
M 3481 434 
Q 3481 -459 3084 -895 
Q 2688 -1331 1869 -1331 
Q 1566 -1331 1297 -1286 
Q 1028 -1241 775 -1147 
L 775 -588 
Q 1028 -725 1275 -790 
Q 1522 -856 1778 -856 
Q 2344 -856 2625 -561 
Q 2906 -266 2906 331 
L 2906 616 
Q 2728 306 2450 153 
Q 2172 0 1784 0 
Q 1141 0 747 490 
Q 353 981 353 1791 
Q 353 2603 747 3093 
Q 1141 3584 1784 3584 
Q 2172 3584 2450 3431 
Q 2728 3278 2906 2969 
L 2906 3500 
L 3481 3500 
L 3481 434 
z
" transform="scale(0.015625)"/>
      <path id="DejaVuSans-70" d="M 1159 525 
L 1159 -1331 
L 581 -1331 
L 581 3500 
L 1159 3500 
L 1159 2969 
Q 1341 3281 1617 3432 
Q 1894 3584 2278 3584 
Q 2916 3584 3314 3078 
Q 3713 2572 3713 1747 
Q 3713 922 3314 415 
Q 2916 -91 2278 -91 
Q 1894 -91 1617 61 
Q 1341 213 1159 525 
z
M 3116 1747 
Q 3116 2381 2855 2742 
Q 2594 3103 2138 3103 
Q 1681 3103 1420 2742 
Q 1159 2381 1159 1747 
Q 1159 1113 1420 752 
Q 1681 391 2138 391 
Q 2594 391 2855 752 
Q 3116 1113 3116 1747 
z
" transform="scale(0.015625)"/>
      <path id="DejaVuSans-2f" d="M 1625 4666 
L 2156 4666 
L 531 -594 
L 0 -594 
L 1625 4666 
z
" transform="scale(0.015625)"/>
      <path id="DejaVuSans-39" d="M 703 97 
L 703 672 
Q 941 559 1184 500 
Q 1428 441 1663 441 
Q 2288 441 2617 861 
Q 2947 1281 2994 2138 
Q 2813 1869 2534 1725 
Q 2256 1581 1919 1581 
Q 1219 1581 811 2004 
Q 403 2428 403 3163 
Q 403 3881 828 4315 
Q 1253 4750 1959 4750 
Q 2769 4750 3195 4129 
Q 3622 3509 3622 2328 
Q 3622 1225 3098 567 
Q 2575 -91 1691 -91 
Q 1453 -91 1209 -44 
Q 966 3 703 97 
z
M 1959 2075 
Q 2384 2075 2632 2365 
Q 2881 2656 2881 3163 
Q 2881 3666 2632 3958 
Q 2384 4250 1959 4250 
Q 1534 4250 1286 3958 
Q 1038 3666 1038 3163 
Q 1038 2656 1286 2365 
Q 1534 2075 1959 2075 
z
" transform="scale(0.015625)"/>
      <path id="DejaVuSans-36" d="M 2113 2584 
Q 1688 2584 1439 2293 
Q 1191 2003 1191 1497 
Q 1191 994 1439 701 
Q 1688 409 2113 409 
Q 2538 409 2786 701 
Q 3034 994 3034 1497 
Q 3034 2003 2786 2293 
Q 2538 2584 2113 2584 
z
M 3366 4563 
L 3366 3988 
Q 3128 4100 2886 4159 
Q 2644 4219 2406 4219 
Q 1781 4219 1451 3797 
Q 1122 3375 1075 2522 
Q 1259 2794 1537 2939 
Q 1816 3084 2150 3084 
Q 2853 3084 3261 2657 
Q 3669 2231 3669 1497 
Q 3669 778 3244 343 
Q 2819 -91 2113 -91 
Q 1303 -91 875 529 
Q 447 1150 447 2328 
Q 447 3434 972 4092 
Q 1497 4750 2381 4750 
Q 2619 4750 2861 4703 
Q 3103 4656 3366 4563 
z
" transform="scale(0.015625)"/>
     </defs>
     <use xlink:href="#DejaVuSans-55"/>
     <use xlink:href="#DejaVuSans-56" transform="translate(73.193359 0)"/>
     <use xlink:href="#DejaVuSans-20" transform="translate(141.601562 0)"/>
     <use xlink:href="#DejaVuSans-61" transform="translate(173.388672 0)"/>
     <use xlink:href="#DejaVuSans-6e" transform="translate(234.667969 0)"/>
     <use xlink:href="#DejaVuSans-64" transform="translate(298.046875 0)"/>
     <use xlink:href="#DejaVuSans-20" transform="translate(361.523438 0)"/>
     <use xlink:href="#DejaVuSans-4d" transform="translate(393.310547 0)"/>
     <use xlink:href="#DejaVuSans-53" transform="translate(479.589844 0)"/>
     <use xlink:href="#DejaVuSans-20" transform="translate(543.066406 0)"/>
     <use xlink:href="#DejaVuSans-43" transform="translate(574.853516 0)"/>
     <use xlink:href="#DejaVuSans-68" transform="translate(644.677734 0)"/>
     <use xlink:href="#DejaVuSans-72" transform="translate(708.056641 0)"/>
     <use xlink:href="#DejaVuSans-6f" transform="translate(746.919922 0)"/>
     <use xlink:href="#DejaVuSans-6d" transform="translate(808.101562 0)"/>
     <use xlink:href="#DejaVuSans-61" transform="translate(905.513672 0)"/>
     <use xlink:href="#DejaVuSans-74" transform="translate(966.792969 0)"/>
     <use xlink:href="#DejaVuSans-6f" transform="translate(1006.001953 0)"/>
     <use xlink:href="#DejaVuSans-67" transform="translate(1067.183594 0)"/>
     <use xlink:href="#DejaVuSans-72" transform="translate(1130.660156 0)"/>
     <use xlink:href="#DejaVuSans-61" transform="translate(1171.773438 0)"/>
     <use xlink:href="#DejaVuSans-6d" transform="translate(1233.052734 0)"/>
     <use xlink:href="#DejaVuSans-73" transform="translate(1330.464844 0)"/>
     <use xlink:href="#DejaVuSans-20" transform="translate(1382.564453 0)"/>
     <use xlink:href="#DejaVuSans-6f" transform="translate(1414.351562 0)"/>
     <use xlink:href="#DejaVuSans-66" transform="translate(1475.533203 0)"/>
     <use xlink:href="#DejaVuSans-20" transform="translate(1510.738281 0)"/>
     <use xlink:href="#DejaVuSans-49" transform="translate(1542.525391 0)"/>
     <use xlink:href="#DejaVuSans-72" transform="translate(1572.017578 0)"/>
     <use xlink:href="#DejaVuSans-43" transform="translate(1613.130859 0)"/>
     <use xlink:href="#DejaVuSans-70" transform="translate(1682.955078 0)"/>
     <use xlink:href="#DejaVuSans-34" transform="translate(1746.431641 0)"/>
     <use xlink:href="#DejaVuSans-4d" transform="translate(1810.054688 0)"/>
     <use xlink:href="#DejaVuSans-31" transform="translate(1896.333984 0)"/>
     <use xlink:href="#DejaVuSans-34" transform="translate(1959.957031 0)"/>
     <use xlink:href="#DejaVuSans-2c" transform="translate(2023.580078 0)"/>
     <use xlink:href="#DejaVuSans-20" transform="translate(2055.367188 0)"/>
     <use xlink:href="#DejaVuSans-74" transform="translate(2087.154297 0)"/>
     <use xlink:href="#DejaVuSans-61" transform="translate(2126.363281 0)"/>
     <use xlink:href="#DejaVuSans-72" transform="translate(2187.642578 0)"/>
     <use xlink:href="#DejaVuSans-67" transform="translate(2227.005859 0)"/>
     <use xlink:href="#DejaVuSans-65" transform="translate(2290.482422 0)"/>
     <use xlink:href="#DejaVuSans-74" transform="translate(2352.005859 0)"/>
     <use xlink:href="#DejaVuSans-20" transform="translate(2391.214844 0)"/>
     <use xlink:href="#DejaVuSans-6d" transform="translate(2423.001953 0)"/>
     <use xlink:href="#DejaVuSans-2f" transform="translate(2520.414062 0)"/>
     <use xlink:href="#DejaVuSans-7a" transform="translate(2554.105469 0)"/>
     <use xlink:href="#DejaVuSans-20" transform="translate(2606.595703 0)"/>
     <use xlink:href="#DejaVuSans-3d" transform="translate(2638.382812 0)"/>
     <use xlink:href="#DejaVuSans-20" transform="translate(2722.171875 0)"/>
     <use xlink:href="#DejaVuSans-38" transform="translate(2753.958984 0)"/>
     <use xlink:href="#DejaVuSans-30" transform="translate(2817.582031 0)"/>
     <use xlink:href="#DejaVuSans-35" transform="translate(2881.205078 0)"/>
     <use xlink:href="#DejaVuSans-2e" transform="translate(2944.828125 0)"/>
     <use xlink:href="#DejaVuSans-30" transform="translate(2976.615234 0)"/>
     <use xlink:href="#DejaVuSans-39" transform="translate(3040.238281 0)"/>
     <use xlink:href="#DejaVuSans-36" transform="translate(3103.861328 0)"/>
     <use xlink:href="#DejaVuSans-31" transform="translate(3167.484375 0)"/>
     <use xlink:href="#DejaVuSans-34" transform="translate(3231.107422 0)"/>
     <use xlink:href="#DejaVuSans-30" transform="translate(3294.730469 0)"/>
     <use xlink:href="#DejaVuSans-33" transform="translate(3358.353516 0)"/>
    </g>
   </g>
   <g id="legend_1">
    <g id="patch_8">
     <path d="M 685.971875 64.23625 
L 846.2 64.23625 
Q 848.2 64.23625 848.2 62.23625 
L 848.2 33.88 
Q 848.2 31.88 846.2 31.88 
L 685.971875 31.88 
Q 683.971875 31.88 683.971875 33.88 
L 683.971875 62.23625 
Q 683.971875 64.23625 685.971875 64.23625 
z
" style="fill: #ffffff; opacity: 0.8; stroke: #cccccc; stroke-linejoin: miter"/>
    </g>
    <g id="line2d_15">
     <path d="M 687.971875 39.978437 
L 697.971875 39.978437 
L 707.971875 39.978437 
" style="fill: none; stroke: #0000ff; stroke-width: 1.5; stroke-linecap: square"/>
    </g>
    <g id="text_17">
     <!-- UV Intensity (normalized) -->
     <g transform="translate(715.971875 43.478437) scale(0.1 -0.1)">
      <use xlink:href="#DejaVuSans-55"/>
      <use xlink:href="#DejaVuSans-56" transform="translate(73.193359 0)"/>
      <use xlink:href="#DejaVuSans-20" transform="translate(141.601562 0)"/>
      <use xlink:href="#DejaVuSans-49" transform="translate(173.388672 0)"/>
      <use xlink:href="#DejaVuSans-6e" transform="translate(202.880859 0)"/>
      <use xlink:href="#DejaVuSans-74" transform="translate(266.259766 0)"/>
      <use xlink:href="#DejaVuSans-65" transform="translate(305.46875 0)"/>
      <use xlink:href="#DejaVuSans-6e" transform="translate(366.992188 0)"/>
      <use xlink:href="#DejaVuSans-73" transform="translate(430.371094 0)"/>
      <use xlink:href="#DejaVuSans-69" transform="translate(482.470703 0)"/>
      <use xlink:href="#DejaVuSans-74" transform="translate(510.253906 0)"/>
      <use xlink:href="#DejaVuSans-79" transform="translate(549.462891 0)"/>
      <use xlink:href="#DejaVuSans-20" transform="translate(608.642578 0)"/>
      <use xlink:href="#DejaVuSans-28" transform="translate(640.429688 0)"/>
      <use xlink:href="#DejaVuSans-6e" transform="translate(679.443359 0)"/>
      <use xlink:href="#DejaVuSans-6f" transform="translate(742.822266 0)"/>
      <use xlink:href="#DejaVuSans-72" transform="translate(804.003906 0)"/>
      <use xlink:href="#DejaVuSans-6d" transform="translate(843.367188 0)"/>
      <use xlink:href="#DejaVuSans-61" transform="translate(940.779297 0)"/>
      <use xlink:href="#DejaVuSans-6c" transform="translate(1002.058594 0)"/>
      <use xlink:href="#DejaVuSans-69" transform="translate(1029.841797 0)"/>
      <use xlink:href="#DejaVuSans-7a" transform="translate(1057.625 0)"/>
      <use xlink:href="#DejaVuSans-65" transform="translate(1110.115234 0)"/>
      <use xlink:href="#DejaVuSans-64" transform="translate(1171.638672 0)"/>
      <use xlink:href="#DejaVuSans-29" transform="translate(1235.115234 0)"/>
     </g>
    </g>
    <g id="line2d_16">
     <path d="M 687.971875 54.656562 
L 697.971875 54.656562 
L 707.971875 54.656562 
" style="fill: none; stroke: #008000; stroke-width: 1.5; stroke-linecap: square"/>
    </g>
    <g id="text_18">
     <!-- MS Intensity (normalized) -->
     <g transform="translate(715.971875 58.156562) scale(0.1 -0.1)">
      <use xlink:href="#DejaVuSans-4d"/>
      <use xlink:href="#DejaVuSans-53" transform="translate(86.279297 0)"/>
      <use xlink:href="#DejaVuSans-20" transform="translate(149.755859 0)"/>
      <use xlink:href="#DejaVuSans-49" transform="translate(181.542969 0)"/>
      <use xlink:href="#DejaVuSans-6e" transform="translate(211.035156 0)"/>
      <use xlink:href="#DejaVuSans-74" transform="translate(274.414062 0)"/>
      <use xlink:href="#DejaVuSans-65" transform="translate(313.623047 0)"/>
      <use xlink:href="#DejaVuSans-6e" transform="translate(375.146484 0)"/>
      <use xlink:href="#DejaVuSans-73" transform="translate(438.525391 0)"/>
      <use xlink:href="#DejaVuSans-69" transform="translate(490.625 0)"/>
      <use xlink:href="#DejaVuSans-74" transform="translate(518.408203 0)"/>
      <use xlink:href="#DejaVuSans-79" transform="translate(557.617188 0)"/>
      <use xlink:href="#DejaVuSans-20" transform="translate(616.796875 0)"/>
      <use xlink:href="#DejaVuSans-28" transform="translate(648.583984 0)"/>
      <use xlink:href="#DejaVuSans-6e" transform="translate(687.597656 0)"/>
      <use xlink:href="#DejaVuSans-6f" transform="translate(750.976562 0)"/>
      <use xlink:href="#DejaVuSans-72" transform="translate(812.158203 0)"/>
      <use xlink:href="#DejaVuSans-6d" transform="translate(851.521484 0)"/>
      <use xlink:href="#DejaVuSans-61" transform="translate(948.933594 0)"/>
      <use xlink:href="#DejaVuSans-6c" transform="translate(1010.212891 0)"/>
      <use xlink:href="#DejaVuSans-69" transform="translate(1037.996094 0)"/>
      <use xlink:href="#DejaVuSans-7a" transform="translate(1065.779297 0)"/>
      <use xlink:href="#DejaVuSans-65" transform="translate(1118.269531 0)"/>
      <use xlink:href="#DejaVuSans-64" transform="translate(1179.792969 0)"/>
      <use xlink:href="#DejaVuSans-29" transform="translate(1243.269531 0)"/>
     </g>
    </g>
   </g>
  </g>
 </g>
 <defs>
  <clipPath id="p1b3683bbb1">
   <rect x="47.72" y="26.88" width="805.48" height="507.16"/>
  </clipPath>
 </defs>
</svg>
