<?xml version="1.0" encoding="utf-8" standalone="no"?>
<!DOCTYPE svg PUBLIC "-//W3C//DTD SVG 1.1//EN"
  "http://www.w3.org/Graphics/SVG/1.1/DTD/svg11.dtd">
<svg xmlns:xlink="http://www.w3.org/1999/xlink" width="864pt" height="576pt" viewBox="0 0 864 576" xmlns="http://www.w3.org/2000/svg" version="1.1">
 <metadata>
  <rdf:RDF xmlns:dc="http://purl.org/dc/elements/1.1/" xmlns:cc="http://creativecommons.org/ns#" xmlns:rdf="http://www.w3.org/1999/02/22-rdf-syntax-ns#">
   <cc:Work>
    <dc:type rdf:resource="http://purl.org/dc/dcmitype/StillImage"/>
    <dc:date>2025-02-25T11:15:35.395659</dc:date>
    <dc:format>image/svg+xml</dc:format>
    <dc:creator>
     <cc:Agent>
      <dc:title>Matplotlib v3.10.0, https://matplotlib.org/</dc:title>
     </cc:Agent>
    </dc:creator>
   </cc:Work>
  </rdf:RDF>
 </metadata>
 <defs>
  <style type="text/css">*{stroke-linejoin: round; stroke-linecap: butt}</style>
 </defs>
 <g id="figure_1">
  <g id="patch_1">
   <path d="M 0 576 
L 864 576 
L 864 0 
L 0 0 
z
" style="fill: #ffffff"/>
  </g>
  <g id="axes_1">
   <g id="patch_2">
    <path d="M 47.72 534.04 
L 853.2 534.04 
L 853.2 26.88 
L 47.72 26.88 
z
" style="fill: #ffffff"/>
   </g>
   <g id="matplotlib.axis_1">
    <g id="xtick_1">
     <g id="line2d_1">
      <defs>
       <path id="m36bcdccff1" d="M 0 0 
L 0 3.5 
" style="stroke: #000000; stroke-width: 0.8"/>
      </defs>
      <g>
       <use xlink:href="#m36bcdccff1" x="83.095596" y="534.04" style="stroke: #000000; stroke-width: 0.8"/>
      </g>
     </g>
     <g id="text_1">
      <!-- 0 -->
      <g transform="translate(79.914346 548.638438) scale(0.1 -0.1)">
       <defs>
        <path id="DejaVuSans-30" d="M 2034 4250 
Q 1547 4250 1301 3770 
Q 1056 3291 1056 2328 
Q 1056 1369 1301 889 
Q 1547 409 2034 409 
Q 2525 409 2770 889 
Q 3016 1369 3016 2328 
Q 3016 3291 2770 3770 
Q 2525 4250 2034 4250 
z
M 2034 4750 
Q 2819 4750 3233 4129 
Q 3647 3509 3647 2328 
Q 3647 1150 3233 529 
Q 2819 -91 2034 -91 
Q 1250 -91 836 529 
Q 422 1150 422 2328 
Q 422 3509 836 4129 
Q 1250 4750 2034 4750 
z
" transform="scale(0.015625)"/>
       </defs>
       <use xlink:href="#DejaVuSans-30"/>
      </g>
     </g>
    </g>
    <g id="xtick_2">
     <g id="line2d_2">
      <g>
       <use xlink:href="#m36bcdccff1" x="229.790997" y="534.04" style="stroke: #000000; stroke-width: 0.8"/>
      </g>
     </g>
     <g id="text_2">
      <!-- 1 -->
      <g transform="translate(226.609747 548.638438) scale(0.1 -0.1)">
       <defs>
        <path id="DejaVuSans-31" d="M 794 531 
L 1825 531 
L 1825 4091 
L 703 3866 
L 703 4441 
L 1819 4666 
L 2450 4666 
L 2450 531 
L 3481 531 
L 3481 0 
L 794 0 
L 794 531 
z
" transform="scale(0.015625)"/>
       </defs>
       <use xlink:href="#DejaVuSans-31"/>
      </g>
     </g>
    </g>
    <g id="xtick_3">
     <g id="line2d_3">
      <g>
       <use xlink:href="#m36bcdccff1" x="376.486399" y="534.04" style="stroke: #000000; stroke-width: 0.8"/>
      </g>
     </g>
     <g id="text_3">
      <!-- 2 -->
      <g transform="translate(373.305149 548.638438) scale(0.1 -0.1)">
       <defs>
        <path id="DejaVuSans-32" d="M 1228 531 
L 3431 531 
L 3431 0 
L 469 0 
L 469 531 
Q 828 903 1448 1529 
Q 2069 2156 2228 2338 
Q 2531 2678 2651 2914 
Q 2772 3150 2772 3378 
Q 2772 3750 2511 3984 
Q 2250 4219 1831 4219 
Q 1534 4219 1204 4116 
Q 875 4013 500 3803 
L 500 4441 
Q 881 4594 1212 4672 
Q 1544 4750 1819 4750 
Q 2544 4750 2975 4387 
Q 3406 4025 3406 3419 
Q 3406 3131 3298 2873 
Q 3191 2616 2906 2266 
Q 2828 2175 2409 1742 
Q 1991 1309 1228 531 
z
" transform="scale(0.015625)"/>
       </defs>
       <use xlink:href="#DejaVuSans-32"/>
      </g>
     </g>
    </g>
    <g id="xtick_4">
     <g id="line2d_4">
      <g>
       <use xlink:href="#m36bcdccff1" x="523.1818" y="534.04" style="stroke: #000000; stroke-width: 0.8"/>
      </g>
     </g>
     <g id="text_4">
      <!-- 3 -->
      <g transform="translate(520.00055 548.638438) scale(0.1 -0.1)">
       <defs>
        <path id="DejaVuSans-33" d="M 2597 2516 
Q 3050 2419 3304 2112 
Q 3559 1806 3559 1356 
Q 3559 666 3084 287 
Q 2609 -91 1734 -91 
Q 1441 -91 1130 -33 
Q 819 25 488 141 
L 488 750 
Q 750 597 1062 519 
Q 1375 441 1716 441 
Q 2309 441 2620 675 
Q 2931 909 2931 1356 
Q 2931 1769 2642 2001 
Q 2353 2234 1838 2234 
L 1294 2234 
L 1294 2753 
L 1863 2753 
Q 2328 2753 2575 2939 
Q 2822 3125 2822 3475 
Q 2822 3834 2567 4026 
Q 2313 4219 1838 4219 
Q 1578 4219 1281 4162 
Q 984 4106 628 3988 
L 628 4550 
Q 988 4650 1302 4700 
Q 1616 4750 1894 4750 
Q 2613 4750 3031 4423 
Q 3450 4097 3450 3541 
Q 3450 3153 3228 2886 
Q 3006 2619 2597 2516 
z
" transform="scale(0.015625)"/>
       </defs>
       <use xlink:href="#DejaVuSans-33"/>
      </g>
     </g>
    </g>
    <g id="xtick_5">
     <g id="line2d_5">
      <g>
       <use xlink:href="#m36bcdccff1" x="669.877202" y="534.04" style="stroke: #000000; stroke-width: 0.8"/>
      </g>
     </g>
     <g id="text_5">
      <!-- 4 -->
      <g transform="translate(666.695952 548.638438) scale(0.1 -0.1)">
       <defs>
        <path id="DejaVuSans-34" d="M 2419 4116 
L 825 1625 
L 2419 1625 
L 2419 4116 
z
M 2253 4666 
L 3047 4666 
L 3047 1625 
L 3713 1625 
L 3713 1100 
L 3047 1100 
L 3047 0 
L 2419 0 
L 2419 1100 
L 313 1100 
L 313 1709 
L 2253 4666 
z
" transform="scale(0.015625)"/>
       </defs>
       <use xlink:href="#DejaVuSans-34"/>
      </g>
     </g>
    </g>
    <g id="xtick_6">
     <g id="line2d_6">
      <g>
       <use xlink:href="#m36bcdccff1" x="816.572603" y="534.04" style="stroke: #000000; stroke-width: 0.8"/>
      </g>
     </g>
     <g id="text_6">
      <!-- 5 -->
      <g transform="translate(813.391353 548.638438) scale(0.1 -0.1)">
       <defs>
        <path id="DejaVuSans-35" d="M 691 4666 
L 3169 4666 
L 3169 4134 
L 1269 4134 
L 1269 2991 
Q 1406 3038 1543 3061 
Q 1681 3084 1819 3084 
Q 2600 3084 3056 2656 
Q 3513 2228 3513 1497 
Q 3513 744 3044 326 
Q 2575 -91 1722 -91 
Q 1428 -91 1123 -41 
Q 819 9 494 109 
L 494 744 
Q 775 591 1075 516 
Q 1375 441 1709 441 
Q 2250 441 2565 725 
Q 2881 1009 2881 1497 
Q 2881 1984 2565 2268 
Q 2250 2553 1709 2553 
Q 1456 2553 1204 2497 
Q 953 2441 691 2322 
L 691 4666 
z
" transform="scale(0.015625)"/>
       </defs>
       <use xlink:href="#DejaVuSans-35"/>
      </g>
     </g>
    </g>
    <g id="text_7">
     <!-- Retention Time (min) -->
     <g transform="translate(397.61 562.316562) scale(0.1 -0.1)">
      <defs>
       <path id="DejaVuSans-52" d="M 2841 2188 
Q 3044 2119 3236 1894 
Q 3428 1669 3622 1275 
L 4263 0 
L 3584 0 
L 2988 1197 
Q 2756 1666 2539 1819 
Q 2322 1972 1947 1972 
L 1259 1972 
L 1259 0 
L 628 0 
L 628 4666 
L 2053 4666 
Q 2853 4666 3247 4331 
Q 3641 3997 3641 3322 
Q 3641 2881 3436 2590 
Q 3231 2300 2841 2188 
z
M 1259 4147 
L 1259 2491 
L 2053 2491 
Q 2509 2491 2742 2702 
Q 2975 2913 2975 3322 
Q 2975 3731 2742 3939 
Q 2509 4147 2053 4147 
L 1259 4147 
z
" transform="scale(0.015625)"/>
       <path id="DejaVuSans-65" d="M 3597 1894 
L 3597 1613 
L 953 1613 
Q 991 1019 1311 708 
Q 1631 397 2203 397 
Q 2534 397 2845 478 
Q 3156 559 3463 722 
L 3463 178 
Q 3153 47 2828 -22 
Q 2503 -91 2169 -91 
Q 1331 -91 842 396 
Q 353 884 353 1716 
Q 353 2575 817 3079 
Q 1281 3584 2069 3584 
Q 2775 3584 3186 3129 
Q 3597 2675 3597 1894 
z
M 3022 2063 
Q 3016 2534 2758 2815 
Q 2500 3097 2075 3097 
Q 1594 3097 1305 2825 
Q 1016 2553 972 2059 
L 3022 2063 
z
" transform="scale(0.015625)"/>
       <path id="DejaVuSans-74" d="M 1172 4494 
L 1172 3500 
L 2356 3500 
L 2356 3053 
L 1172 3053 
L 1172 1153 
Q 1172 725 1289 603 
Q 1406 481 1766 481 
L 2356 481 
L 2356 0 
L 1766 0 
Q 1100 0 847 248 
Q 594 497 594 1153 
L 594 3053 
L 172 3053 
L 172 3500 
L 594 3500 
L 594 4494 
L 1172 4494 
z
" transform="scale(0.015625)"/>
       <path id="DejaVuSans-6e" d="M 3513 2113 
L 3513 0 
L 2938 0 
L 2938 2094 
Q 2938 2591 2744 2837 
Q 2550 3084 2163 3084 
Q 1697 3084 1428 2787 
Q 1159 2491 1159 1978 
L 1159 0 
L 581 0 
L 581 3500 
L 1159 3500 
L 1159 2956 
Q 1366 3272 1645 3428 
Q 1925 3584 2291 3584 
Q 2894 3584 3203 3211 
Q 3513 2838 3513 2113 
z
" transform="scale(0.015625)"/>
       <path id="DejaVuSans-69" d="M 603 3500 
L 1178 3500 
L 1178 0 
L 603 0 
L 603 3500 
z
M 603 4863 
L 1178 4863 
L 1178 4134 
L 603 4134 
L 603 4863 
z
" transform="scale(0.015625)"/>
       <path id="DejaVuSans-6f" d="M 1959 3097 
Q 1497 3097 1228 2736 
Q 959 2375 959 1747 
Q 959 1119 1226 758 
Q 1494 397 1959 397 
Q 2419 397 2687 759 
Q 2956 1122 2956 1747 
Q 2956 2369 2687 2733 
Q 2419 3097 1959 3097 
z
M 1959 3584 
Q 2709 3584 3137 3096 
Q 3566 2609 3566 1747 
Q 3566 888 3137 398 
Q 2709 -91 1959 -91 
Q 1206 -91 779 398 
Q 353 888 353 1747 
Q 353 2609 779 3096 
Q 1206 3584 1959 3584 
z
" transform="scale(0.015625)"/>
       <path id="DejaVuSans-20" transform="scale(0.015625)"/>
       <path id="DejaVuSans-54" d="M -19 4666 
L 3928 4666 
L 3928 4134 
L 2272 4134 
L 2272 0 
L 1638 0 
L 1638 4134 
L -19 4134 
L -19 4666 
z
" transform="scale(0.015625)"/>
       <path id="DejaVuSans-6d" d="M 3328 2828 
Q 3544 3216 3844 3400 
Q 4144 3584 4550 3584 
Q 5097 3584 5394 3201 
Q 5691 2819 5691 2113 
L 5691 0 
L 5113 0 
L 5113 2094 
Q 5113 2597 4934 2840 
Q 4756 3084 4391 3084 
Q 3944 3084 3684 2787 
Q 3425 2491 3425 1978 
L 3425 0 
L 2847 0 
L 2847 2094 
Q 2847 2600 2669 2842 
Q 2491 3084 2119 3084 
Q 1678 3084 1418 2786 
Q 1159 2488 1159 1978 
L 1159 0 
L 581 0 
L 581 3500 
L 1159 3500 
L 1159 2956 
Q 1356 3278 1631 3431 
Q 1906 3584 2284 3584 
Q 2666 3584 2933 3390 
Q 3200 3197 3328 2828 
z
" transform="scale(0.015625)"/>
       <path id="DejaVuSans-28" d="M 1984 4856 
Q 1566 4138 1362 3434 
Q 1159 2731 1159 2009 
Q 1159 1288 1364 580 
Q 1569 -128 1984 -844 
L 1484 -844 
Q 1016 -109 783 600 
Q 550 1309 550 2009 
Q 550 2706 781 3412 
Q 1013 4119 1484 4856 
L 1984 4856 
z
" transform="scale(0.015625)"/>
       <path id="DejaVuSans-29" d="M 513 4856 
L 1013 4856 
Q 1481 4119 1714 3412 
Q 1947 2706 1947 2009 
Q 1947 1309 1714 600 
Q 1481 -109 1013 -844 
L 513 -844 
Q 928 -128 1133 580 
Q 1338 1288 1338 2009 
Q 1338 2731 1133 3434 
Q 928 4138 513 4856 
z
" transform="scale(0.015625)"/>
      </defs>
      <use xlink:href="#DejaVuSans-52"/>
      <use xlink:href="#DejaVuSans-65" transform="translate(64.982422 0)"/>
      <use xlink:href="#DejaVuSans-74" transform="translate(126.505859 0)"/>
      <use xlink:href="#DejaVuSans-65" transform="translate(165.714844 0)"/>
      <use xlink:href="#DejaVuSans-6e" transform="translate(227.238281 0)"/>
      <use xlink:href="#DejaVuSans-74" transform="translate(290.617188 0)"/>
      <use xlink:href="#DejaVuSans-69" transform="translate(329.826172 0)"/>
      <use xlink:href="#DejaVuSans-6f" transform="translate(357.609375 0)"/>
      <use xlink:href="#DejaVuSans-6e" transform="translate(418.791016 0)"/>
      <use xlink:href="#DejaVuSans-20" transform="translate(482.169922 0)"/>
      <use xlink:href="#DejaVuSans-54" transform="translate(513.957031 0)"/>
      <use xlink:href="#DejaVuSans-69" transform="translate(571.916016 0)"/>
      <use xlink:href="#DejaVuSans-6d" transform="translate(599.699219 0)"/>
      <use xlink:href="#DejaVuSans-65" transform="translate(697.111328 0)"/>
      <use xlink:href="#DejaVuSans-20" transform="translate(758.634766 0)"/>
      <use xlink:href="#DejaVuSans-28" transform="translate(790.421875 0)"/>
      <use xlink:href="#DejaVuSans-6d" transform="translate(829.435547 0)"/>
      <use xlink:href="#DejaVuSans-69" transform="translate(926.847656 0)"/>
      <use xlink:href="#DejaVuSans-6e" transform="translate(954.630859 0)"/>
      <use xlink:href="#DejaVuSans-29" transform="translate(1018.009766 0)"/>
     </g>
    </g>
   </g>
   <g id="matplotlib.axis_2">
    <g id="ytick_1">
     <g id="line2d_7">
      <defs>
       <path id="m54d2fc6636" d="M 0 0 
L -3.5 0 
" style="stroke: #000000; stroke-width: 0.8"/>
      </defs>
      <g>
       <use xlink:href="#m54d2fc6636" x="47.72" y="510.675039" style="stroke: #000000; stroke-width: 0.8"/>
      </g>
     </g>
     <g id="text_8">
      <!-- 0.0 -->
      <g style="fill: #0000ff" transform="translate(24.816875 514.474258) scale(0.1 -0.1)">
       <defs>
        <path id="DejaVuSans-2e" d="M 684 794 
L 1344 794 
L 1344 0 
L 684 0 
L 684 794 
z
" transform="scale(0.015625)"/>
       </defs>
       <use xlink:href="#DejaVuSans-30"/>
       <use xlink:href="#DejaVuSans-2e" transform="translate(63.623047 0)"/>
       <use xlink:href="#DejaVuSans-30" transform="translate(95.410156 0)"/>
      </g>
     </g>
    </g>
    <g id="ytick_2">
     <g id="line2d_8">
      <g>
       <use xlink:href="#m54d2fc6636" x="47.72" y="418.526577" style="stroke: #000000; stroke-width: 0.8"/>
      </g>
     </g>
     <g id="text_9">
      <!-- 0.5 -->
      <g style="fill: #0000ff" transform="translate(24.816875 422.325795) scale(0.1 -0.1)">
       <use xlink:href="#DejaVuSans-30"/>
       <use xlink:href="#DejaVuSans-2e" transform="translate(63.623047 0)"/>
       <use xlink:href="#DejaVuSans-35" transform="translate(95.410156 0)"/>
      </g>
     </g>
    </g>
    <g id="ytick_3">
     <g id="line2d_9">
      <g>
       <use xlink:href="#m54d2fc6636" x="47.72" y="326.378114" style="stroke: #000000; stroke-width: 0.8"/>
      </g>
     </g>
     <g id="text_10">
      <!-- 1.0 -->
      <g style="fill: #0000ff" transform="translate(24.816875 330.177333) scale(0.1 -0.1)">
       <use xlink:href="#DejaVuSans-31"/>
       <use xlink:href="#DejaVuSans-2e" transform="translate(63.623047 0)"/>
       <use xlink:href="#DejaVuSans-30" transform="translate(95.410156 0)"/>
      </g>
     </g>
    </g>
    <g id="ytick_4">
     <g id="line2d_10">
      <g>
       <use xlink:href="#m54d2fc6636" x="47.72" y="234.229652" style="stroke: #000000; stroke-width: 0.8"/>
      </g>
     </g>
     <g id="text_11">
      <!-- 1.5 -->
      <g style="fill: #0000ff" transform="translate(24.816875 238.028871) scale(0.1 -0.1)">
       <use xlink:href="#DejaVuSans-31"/>
       <use xlink:href="#DejaVuSans-2e" transform="translate(63.623047 0)"/>
       <use xlink:href="#DejaVuSans-35" transform="translate(95.410156 0)"/>
      </g>
     </g>
    </g>
    <g id="ytick_5">
     <g id="line2d_11">
      <g>
       <use xlink:href="#m54d2fc6636" x="47.72" y="142.08119" style="stroke: #000000; stroke-width: 0.8"/>
      </g>
     </g>
     <g id="text_12">
      <!-- 2.0 -->
      <g style="fill: #0000ff" transform="translate(24.816875 145.880408) scale(0.1 -0.1)">
       <use xlink:href="#DejaVuSans-32"/>
       <use xlink:href="#DejaVuSans-2e" transform="translate(63.623047 0)"/>
       <use xlink:href="#DejaVuSans-30" transform="translate(95.410156 0)"/>
      </g>
     </g>
    </g>
    <g id="ytick_6">
     <g id="line2d_12">
      <g>
       <use xlink:href="#m54d2fc6636" x="47.72" y="49.932727" style="stroke: #000000; stroke-width: 0.8"/>
      </g>
     </g>
     <g id="text_13">
      <!-- 2.5 -->
      <g style="fill: #0000ff" transform="translate(24.816875 53.731946) scale(0.1 -0.1)">
       <use xlink:href="#DejaVuSans-32"/>
       <use xlink:href="#DejaVuSans-2e" transform="translate(63.623047 0)"/>
       <use xlink:href="#DejaVuSans-35" transform="translate(95.410156 0)"/>
      </g>
     </g>
    </g>
    <g id="text_14">
     <!-- Normalized Intensity -->
     <g style="fill: #0000ff" transform="translate(18.737187 332.167031) rotate(-90) scale(0.1 -0.1)">
      <defs>
       <path id="DejaVuSans-4e" d="M 628 4666 
L 1478 4666 
L 3547 763 
L 3547 4666 
L 4159 4666 
L 4159 0 
L 3309 0 
L 1241 3903 
L 1241 0 
L 628 0 
L 628 4666 
z
" transform="scale(0.015625)"/>
       <path id="DejaVuSans-72" d="M 2631 2963 
Q 2534 3019 2420 3045 
Q 2306 3072 2169 3072 
Q 1681 3072 1420 2755 
Q 1159 2438 1159 1844 
L 1159 0 
L 581 0 
L 581 3500 
L 1159 3500 
L 1159 2956 
Q 1341 3275 1631 3429 
Q 1922 3584 2338 3584 
Q 2397 3584 2469 3576 
Q 2541 3569 2628 3553 
L 2631 2963 
z
" transform="scale(0.015625)"/>
       <path id="DejaVuSans-61" d="M 2194 1759 
Q 1497 1759 1228 1600 
Q 959 1441 959 1056 
Q 959 750 1161 570 
Q 1363 391 1709 391 
Q 2188 391 2477 730 
Q 2766 1069 2766 1631 
L 2766 1759 
L 2194 1759 
z
M 3341 1997 
L 3341 0 
L 2766 0 
L 2766 531 
Q 2569 213 2275 61 
Q 1981 -91 1556 -91 
Q 1019 -91 701 211 
Q 384 513 384 1019 
Q 384 1609 779 1909 
Q 1175 2209 1959 2209 
L 2766 2209 
L 2766 2266 
Q 2766 2663 2505 2880 
Q 2244 3097 1772 3097 
Q 1472 3097 1187 3025 
Q 903 2953 641 2809 
L 641 3341 
Q 956 3463 1253 3523 
Q 1550 3584 1831 3584 
Q 2591 3584 2966 3190 
Q 3341 2797 3341 1997 
z
" transform="scale(0.015625)"/>
       <path id="DejaVuSans-6c" d="M 603 4863 
L 1178 4863 
L 1178 0 
L 603 0 
L 603 4863 
z
" transform="scale(0.015625)"/>
       <path id="DejaVuSans-7a" d="M 353 3500 
L 3084 3500 
L 3084 2975 
L 922 459 
L 3084 459 
L 3084 0 
L 275 0 
L 275 525 
L 2438 3041 
L 353 3041 
L 353 3500 
z
" transform="scale(0.015625)"/>
       <path id="DejaVuSans-64" d="M 2906 2969 
L 2906 4863 
L 3481 4863 
L 3481 0 
L 2906 0 
L 2906 525 
Q 2725 213 2448 61 
Q 2172 -91 1784 -91 
Q 1150 -91 751 415 
Q 353 922 353 1747 
Q 353 2572 751 3078 
Q 1150 3584 1784 3584 
Q 2172 3584 2448 3432 
Q 2725 3281 2906 2969 
z
M 947 1747 
Q 947 1113 1208 752 
Q 1469 391 1925 391 
Q 2381 391 2643 752 
Q 2906 1113 2906 1747 
Q 2906 2381 2643 2742 
Q 2381 3103 1925 3103 
Q 1469 3103 1208 2742 
Q 947 2381 947 1747 
z
" transform="scale(0.015625)"/>
       <path id="DejaVuSans-49" d="M 628 4666 
L 1259 4666 
L 1259 0 
L 628 0 
L 628 4666 
z
" transform="scale(0.015625)"/>
       <path id="DejaVuSans-73" d="M 2834 3397 
L 2834 2853 
Q 2591 2978 2328 3040 
Q 2066 3103 1784 3103 
Q 1356 3103 1142 2972 
Q 928 2841 928 2578 
Q 928 2378 1081 2264 
Q 1234 2150 1697 2047 
L 1894 2003 
Q 2506 1872 2764 1633 
Q 3022 1394 3022 966 
Q 3022 478 2636 193 
Q 2250 -91 1575 -91 
Q 1294 -91 989 -36 
Q 684 19 347 128 
L 347 722 
Q 666 556 975 473 
Q 1284 391 1588 391 
Q 1994 391 2212 530 
Q 2431 669 2431 922 
Q 2431 1156 2273 1281 
Q 2116 1406 1581 1522 
L 1381 1569 
Q 847 1681 609 1914 
Q 372 2147 372 2553 
Q 372 3047 722 3315 
Q 1072 3584 1716 3584 
Q 2034 3584 2315 3537 
Q 2597 3491 2834 3397 
z
" transform="scale(0.015625)"/>
       <path id="DejaVuSans-79" d="M 2059 -325 
Q 1816 -950 1584 -1140 
Q 1353 -1331 966 -1331 
L 506 -1331 
L 506 -850 
L 844 -850 
Q 1081 -850 1212 -737 
Q 1344 -625 1503 -206 
L 1606 56 
L 191 3500 
L 800 3500 
L 1894 763 
L 2988 3500 
L 3597 3500 
L 2059 -325 
z
" transform="scale(0.015625)"/>
      </defs>
      <use xlink:href="#DejaVuSans-4e"/>
      <use xlink:href="#DejaVuSans-6f" transform="translate(74.804688 0)"/>
      <use xlink:href="#DejaVuSans-72" transform="translate(135.986328 0)"/>
      <use xlink:href="#DejaVuSans-6d" transform="translate(175.349609 0)"/>
      <use xlink:href="#DejaVuSans-61" transform="translate(272.761719 0)"/>
      <use xlink:href="#DejaVuSans-6c" transform="translate(334.041016 0)"/>
      <use xlink:href="#DejaVuSans-69" transform="translate(361.824219 0)"/>
      <use xlink:href="#DejaVuSans-7a" transform="translate(389.607422 0)"/>
      <use xlink:href="#DejaVuSans-65" transform="translate(442.097656 0)"/>
      <use xlink:href="#DejaVuSans-64" transform="translate(503.621094 0)"/>
      <use xlink:href="#DejaVuSans-20" transform="translate(567.097656 0)"/>
      <use xlink:href="#DejaVuSans-49" transform="translate(598.884766 0)"/>
      <use xlink:href="#DejaVuSans-6e" transform="translate(628.376953 0)"/>
      <use xlink:href="#DejaVuSans-74" transform="translate(691.755859 0)"/>
      <use xlink:href="#DejaVuSans-65" transform="translate(730.964844 0)"/>
      <use xlink:href="#DejaVuSans-6e" transform="translate(792.488281 0)"/>
      <use xlink:href="#DejaVuSans-73" transform="translate(855.867188 0)"/>
      <use xlink:href="#DejaVuSans-69" transform="translate(907.966797 0)"/>
      <use xlink:href="#DejaVuSans-74" transform="translate(935.75 0)"/>
      <use xlink:href="#DejaVuSans-79" transform="translate(974.958984 0)"/>
     </g>
    </g>
   </g>
   <g id="line2d_13">
    <path d="M 84.332727 510.675039 
L 90.445036 510.78522 
L 96.557344 510.856351 
L 140.565964 510.757073 
L 143.010888 510.344489 
L 147.900735 509.127093 
L 150.345658 509.022585 
L 157.680428 509.322217 
L 163.792736 509.445018 
L 166.23766 509.161346 
L 169.905045 508.470487 
L 172.349968 508.321175 
L 174.794891 508.544118 
L 182.129662 509.660922 
L 183.352123 509.416179 
L 184.574585 508.958573 
L 185.797047 508.649207 
L 187.019508 508.82597 
L 189.464432 510.099096 
L 190.686893 510.370246 
L 191.909355 510.158333 
L 194.354278 509.245246 
L 195.57674 509.024797 
L 196.799202 509.051481 
L 199.244125 509.525537 
L 201.689048 509.975736 
L 204.133972 510.179719 
L 205.356433 510.16976 
L 206.578895 510.035233 
L 210.24628 509.245015 
L 211.468742 509.197326 
L 213.913665 509.551864 
L 216.358589 509.959229 
L 218.803512 510.042369 
L 221.248435 510.091654 
L 228.583205 510.594543 
L 237.140437 510.659315 
L 244.475207 510.621273 
L 250.587516 510.70807 
L 262.812132 510.536388 
L 264.034594 510.329445 
L 265.257056 509.873912 
L 266.479517 509.05659 
L 267.701979 507.563931 
L 268.924441 504.55922 
L 270.146902 499.089422 
L 272.591826 483.407936 
L 273.814287 477.868147 
L 275.036749 476.438677 
L 276.259211 479.084075 
L 277.481672 484.461282 
L 279.926596 496.678774 
L 281.149058 501.286544 
L 282.371519 504.453255 
L 283.593981 506.38274 
L 284.816443 507.428223 
L 286.038904 507.942452 
L 287.261366 508.186475 
L 289.706289 508.297376 
L 292.151213 508.29657 
L 293.373674 508.464013 
L 298.263521 509.694103 
L 300.708444 509.911511 
L 303.153368 509.86305 
L 306.820753 509.581134 
L 308.043214 509.324216 
L 310.488138 508.529874 
L 311.710599 508.341351 
L 312.933061 508.460367 
L 316.600446 509.516621 
L 317.822908 509.606592 
L 322.712755 509.233197 
L 327.602601 509.794724 
L 328.825063 509.731034 
L 330.047525 509.397864 
L 332.492448 508.121996 
L 333.71491 507.72615 
L 334.937371 507.784921 
L 336.159833 508.226061 
L 338.604756 509.371946 
L 339.827218 509.738556 
L 341.04968 509.894232 
L 342.272141 509.872507 
L 348.38445 509.290113 
L 353.274297 509.610935 
L 356.941682 509.467025 
L 359.386605 509.58963 
L 363.05399 509.802246 
L 367.943837 509.790571 
L 372.833683 510.088319 
L 388.725685 510.01849 
L 393.615532 510.059723 
L 399.72784 509.92348 
L 402.172764 509.915468 
L 407.06261 509.612593 
L 414.39738 509.71834 
L 418.064766 510.021583 
L 419.287227 509.984387 
L 420.509689 509.542649 
L 421.732151 508.272391 
L 424.177074 503.886349 
L 425.399536 502.558898 
L 426.621997 502.645989 
L 427.844459 503.82214 
L 429.066921 505.374964 
L 430.289382 506.73487 
L 431.511844 507.691189 
L 432.734306 508.296616 
L 433.956767 508.676606 
L 436.401691 509.068708 
L 437.624152 509.07088 
L 438.846614 507.759245 
L 440.069076 500.343322 
L 441.291537 478.466248 
L 442.513999 437.787417 
L 443.736461 386.735066 
L 444.958922 344.108365 
L 446.181384 326.378114 
L 447.403846 337.538488 
L 448.626307 369.25583 
L 449.848769 408.176968 
L 451.071231 443.300084 
L 452.293693 469.244902 
L 453.516154 485.590671 
L 454.738616 494.546747 
L 455.961078 498.901221 
L 457.183539 500.895962 
L 458.406001 501.798325 
L 459.628463 501.984688 
L 460.850924 501.529415 
L 462.073386 500.819958 
L 463.295848 500.51793 
L 464.518309 501.029147 
L 465.740771 502.213132 
L 466.963233 503.576562 
L 468.185694 504.668808 
L 469.408156 505.353331 
L 475.520464 507.413167 
L 477.965388 507.782692 
L 481.632773 508.023219 
L 484.077696 507.999328 
L 490.190005 507.584118 
L 491.412466 507.429398 
L 492.634928 507.119226 
L 493.85739 506.376381 
L 495.079851 504.56017 
L 496.302313 500.816214 
L 497.524775 494.921299 
L 498.747236 488.217321 
L 499.969698 483.282337 
L 501.19216 482.218019 
L 502.414621 485.204323 
L 506.082006 501.217981 
L 507.304468 504.504463 
L 508.52693 506.522404 
L 509.749391 507.689306 
L 510.971853 508.368409 
L 512.194315 508.793589 
L 514.639238 509.317224 
L 517.084161 509.640798 
L 518.306623 509.694489 
L 519.529085 509.598534 
L 523.19647 508.959028 
L 524.418932 509.045163 
L 530.53124 510.243092 
L 534.198625 510.389385 
L 542.755857 510.476396 
L 570.872475 510.578329 
L 579.429707 510.685354 
L 620.993404 510.679042 
L 631.995559 510.300515 
L 635.662944 510.310479 
L 644.220176 510.778309 
L 655.222331 510.796042 
L 662.557101 510.807959 
L 672.336795 510.876573 
L 744.462034 510.957213 
L 783.580807 510.969792 
L 816.587273 510.984669 
L 816.587273 510.984669 
" clip-path="url(#pea86e8f64b)" style="fill: none; stroke: #0000ff; stroke-width: 1.5; stroke-linecap: square"/>
   </g>
   <g id="line2d_14">
    <path d="M 205.470122 234.216746 
L 271.413128 234.128491 
L 272.821404 233.935836 
L 274.207187 233.833336 
L 274.885653 233.769832 
L 282.016272 234.009686 
L 283.054875 233.963519 
L 296.820038 234.078761 
L 297.529555 234.06559 
L 308.992578 234.175303 
L 433.0475 234.215027 
L 442.428916 234.176283 
L 442.428916 234.029455 
L 442.791498 233.272774 
L 443.152369 233.025239 
L 443.152369 231.08417 
L 443.506393 230.407259 
L 443.506393 226.578725 
L 443.854795 218.656915 
L 444.199285 217.093322 
L 444.199285 208.079516 
L 444.871394 173.312553 
L 445.202681 178.510679 
L 445.202681 156.869244 
L 445.533479 137.634948 
L 445.863789 150.434773 
L 445.863789 143.690936 
L 446.193364 110.280865 
L 446.851293 88.517456 
L 447.185759 54.221447 
L 447.51509 81.821168 
L 448.173019 150.932534 
L 448.173019 125.224408 
L 448.501616 119.248463 
L 448.830459 85.329482 
L 449.159301 83.746886 
L 449.488143 53.403992 
L 449.817474 49.932727 
L 450.476381 128.038331 
L 450.476381 135.213389 
L 450.808891 166.077401 
L 450.808891 144.483021 
L 451.138222 168.670708 
L 451.138222 147.094795 
L 451.468286 149.304383 
L 451.797862 149.865625 
L 451.797862 154.30226 
L 452.13355 154.851792 
L 452.13355 158.097452 
L 452.464348 180.639661 
L 452.464348 163.479745 
L 452.794902 182.51892 
L 452.794902 167.362318 
L 453.125211 169.350993 
L 453.455765 170.138299 
L 453.455765 173.788594 
L 453.787296 174.280392 
L 453.787296 176.597238 
L 454.119072 180.123133 
L 454.450848 167.758444 
L 454.783847 182.372771 
L 454.783847 171.604069 
L 455.116357 174.095136 
L 455.449844 177.937201 
L 455.783576 191.185079 
L 455.783576 182.201908 
L 456.119264 183.090516 
L 456.454219 185.261515 
L 456.790151 196.746549 
L 456.790151 189.130135 
L 457.131462 190.062537 
L 457.468128 204.255134 
L 457.804794 196.879696 
L 458.142683 207.229434 
L 458.480082 207.264129 
L 458.480082 208.122213 
L 458.817237 215.695308 
L 458.817237 210.724801 
L 459.15537 217.417887 
L 459.15537 211.801921 
L 459.493747 217.778552 
L 459.493747 212.808695 
L 459.836037 212.376889 
L 460.174658 212.334316 
L 460.174658 213.128193 
L 460.513525 213.420314 
L 460.513525 213.964248 
L 460.853614 214.811323 
L 461.196392 214.910823 
L 461.196392 215.469546 
L 461.537459 210.930548 
L 461.881215 217.149381 
L 462.227905 217.278192 
L 462.227905 217.74169 
L 462.573128 222.611961 
L 462.573128 218.409013 
L 462.91884 222.382806 
L 462.91884 218.436887 
L 463.26113 222.530534 
L 463.26113 218.125747 
L 463.60513 222.249841 
L 463.60513 218.011171 
L 463.950843 217.330725 
L 464.292887 217.384069 
L 464.292887 217.144669 
L 464.637133 217.193566 
L 464.637133 217.331927 
L 464.980644 221.905994 
L 464.980644 217.783021 
L 465.665956 217.602227 
L 465.665956 217.895535 
L 466.008735 213.785455 
L 466.353224 213.87064 
L 466.704315 214.482295 
L 467.049049 214.698357 
L 467.049049 215.325541 
L 467.748542 224.914507 
L 467.748542 221.829793 
L 468.096944 225.159257 
L 468.096944 222.213933 
L 468.445101 225.394902 
L 468.445101 222.736542 
L 468.793502 223.126663 
L 469.142882 223.182537 
L 469.142882 223.879365 
L 469.495195 224.017267 
L 469.495195 224.394504 
L 469.84433 227.342369 
L 469.84433 225.141035 
L 470.193954 227.480559 
L 470.193954 225.493534 
L 470.544067 228.014341 
L 470.544067 225.92224 
L 470.89418 228.190561 
L 470.89418 226.35575 
L 471.244782 228.423633 
L 471.244782 226.591505 
L 471.594895 228.761994 
L 471.594895 227.037953 
L 471.945497 229.011576 
L 471.945497 227.408689 
L 472.300989 229.303637 
L 472.300989 227.763948 
L 472.651347 229.559246 
L 472.651347 227.973798 
L 473.001949 229.651949 
L 473.001949 228.232497 
L 473.353284 229.808216 
L 473.353284 228.434374 
L 473.704131 230.042691 
L 473.704131 228.669515 
L 474.055222 230.169256 
L 474.055222 228.825029 
L 474.406557 230.266104 
L 474.406557 229.039426 
L 474.758626 230.448037 
L 474.758626 229.176321 
L 475.11094 230.549941 
L 475.11094 229.316985 
L 475.463987 230.62365 
L 475.463987 229.414485 
L 475.817523 230.688088 
L 475.817523 229.599314 
L 476.17057 230.885515 
L 476.17057 229.768853 
L 476.524594 231.017228 
L 476.524594 229.987052 
L 476.879597 231.103649 
L 476.879597 230.06788 
L 477.594982 229.973266 
L 477.594982 230.031514 
L 477.950718 230.103724 
L 478.306699 231.307094 
L 478.306699 230.401956 
L 478.66268 231.415955 
L 478.66268 230.547428 
L 479.022084 231.560539 
L 479.022084 230.773811 
L 479.378064 231.727018 
L 479.378064 230.88564 
L 479.734534 231.808633 
L 479.734534 230.995447 
L 480.091249 231.82938 
L 480.091249 230.988461 
L 480.447718 231.859768 
L 480.447718 231.061186 
L 480.804433 231.889833 
L 480.804433 231.217557 
L 481.161636 232.067479 
L 481.161636 231.322941 
L 481.519084 232.137603 
L 481.519084 231.473101 
L 481.876776 232.133228 
L 481.876776 231.41336 
L 482.240336 232.160743 
L 482.240336 231.52657 
L 482.957677 231.485175 
L 482.957677 231.587925 
L 483.316592 230.89694 
L 483.675262 230.81936 
L 484.034421 231.588816 
L 484.034421 231.021442 
L 484.752495 232.576359 
L 484.752495 231.997221 
L 485.111165 232.621442 
L 485.111165 232.094099 
L 485.829239 232.047606 
L 485.829239 232.112404 
L 486.189132 232.100491 
L 486.189132 232.10144 
L 486.54878 232.757022 
L 486.54878 232.248015 
L 486.908673 232.778592 
L 486.908673 232.309936 
L 487.272966 232.83625 
L 487.272966 232.349768 
L 487.634326 232.878177 
L 487.634326 232.409152 
L 487.994463 232.88909 
L 487.994463 232.442047 
L 488.35509 232.928222 
L 488.35509 232.466388 
L 488.714982 232.944823 
L 488.714982 232.530951 
L 489.075608 232.979813 
L 489.075608 232.571769 
L 489.439169 233.025567 
L 489.439169 232.637992 
L 490.523492 232.646868 
L 490.523492 232.655359 
L 490.884852 233.118499 
L 490.884852 232.720663 
L 491.247434 233.135096 
L 491.247434 232.742696 
L 491.608549 233.127235 
L 491.608549 232.781511 
L 491.970642 233.187149 
L 491.970642 232.863623 
L 492.33787 233.257987 
L 492.33787 232.922129 
L 492.700452 233.26148 
L 492.700452 232.941523 
L 493.062545 233.286692 
L 493.062545 232.952246 
L 493.425372 233.304765 
L 493.425372 232.996816 
L 493.788198 233.321717 
L 493.788198 232.984614 
L 494.150536 233.318466 
L 494.150536 233.003271 
L 494.513118 233.325187 
L 494.513118 233.002732 
L 494.8757 233.322442 
L 494.8757 233.030796 
L 495.238282 233.340936 
L 495.238282 233.061784 
L 495.600864 233.388468 
L 495.600864 233.095556 
L 495.963691 233.389491 
L 495.963691 233.102442 
L 496.326273 233.398541 
L 496.326273 233.109909 
L 496.688855 233.408729 
L 496.688855 233.146035 
L 497.051193 233.440512 
L 497.051193 233.171991 
L 497.419154 233.462922 
L 497.419154 233.203274 
L 498.507145 233.194657 
L 498.507145 233.212073 
L 498.869727 233.505902 
L 498.869727 233.253801 
L 499.232309 233.513163 
L 499.232309 233.272019 
L 499.592446 233.519624 
L 499.592446 233.276027 
L 499.955028 233.53142 
L 499.955028 233.321637 
L 500.312721 233.563494 
L 500.312721 233.363145 
L 500.670902 233.624018 
L 500.670902 233.437041 
L 501.027127 233.416328 
L 501.380174 233.161103 
L 501.731999 233.373093 
L 501.731999 233.15885 
L 502.440049 233.166934 
L 502.790406 233.432072 
L 502.790406 233.24129 
L 503.140764 233.49487 
L 504.194526 233.537058 
L 504.546839 233.740569 
L 504.546839 233.584323 
L 504.899152 233.768016 
L 504.899152 233.588312 
L 505.252444 233.746953 
L 505.252444 233.59421 
L 505.969784 233.567775 
L 505.969784 233.573346 
L 506.324298 233.38623 
L 506.67979 233.564225 
L 507.034304 233.561367 
L 507.034304 233.589929 
L 507.394441 233.785143 
L 507.394441 233.639099 
L 507.750422 233.816584 
L 507.750422 233.657525 
L 508.10518 233.812269 
L 508.10518 233.672139 
L 509.171167 233.673642 
L 509.171167 233.677169 
L 509.52617 233.83638 
L 509.52617 233.710452 
L 509.881906 233.859415 
L 509.881906 233.723057 
L 510.238376 233.861977 
L 510.238376 233.745541 
L 510.59509 233.87907 
L 510.59509 233.748904 
L 510.956939 233.879506 
L 510.956939 233.74676 
L 511.313653 233.860108 
L 511.313653 233.725983 
L 511.67159 233.856827 
L 511.67159 233.727238 
L 512.395776 233.88233 
L 512.395776 233.761758 
L 512.755425 233.895643 
L 512.755425 233.769126 
L 513.476188 233.896138 
L 513.476188 233.777411 
L 513.838281 233.910584 
L 513.838281 233.776553 
L 514.198418 233.8897 
L 514.198418 233.772715 
L 514.561001 233.891754 
L 514.561001 233.766385 
L 514.923094 233.900407 
L 514.923094 233.767739 
L 515.286409 233.886016 
L 515.286409 233.760829 
L 515.651681 233.883706 
L 515.651681 233.749205 
L 516.376845 233.899493 
L 516.376845 233.766833 
L 517.46997 233.756297 
L 517.46997 233.770822 
L 517.832553 233.907506 
L 517.832553 233.791211 
L 518.557717 233.920458 
L 518.557717 233.815226 
L 519.282881 233.950772 
L 519.282881 233.838515 
L 519.645463 233.95017 
L 519.645463 233.843539 
L 520.008045 233.936386 
L 520.008045 233.830135 
L 521.095792 233.836892 
L 521.095792 233.850616 
L 521.458374 233.971837 
L 521.458374 233.866789 
L 521.820956 233.968072 
L 521.820956 233.861656 
L 522.554677 233.971843 
L 522.554677 233.880767 
L 525.084195 233.876354 
L 525.084195 233.88748 
L 525.802025 233.987511 
L 525.802025 233.909557 
L 526.5245 234.001963 
L 526.5245 233.928313 
L 527.247952 234.00992 
L 527.247952 233.926312 
L 527.978251 234.013207 
L 527.978251 233.920617 
L 528.702682 233.9897 
L 528.702682 233.91637 
L 529.427846 234.007826 
L 529.427846 233.931781 
L 530.152766 234.013309 
L 530.152766 233.933254 
L 530.518526 234.01412 
L 530.518526 233.935942 
L 533.788367 233.949532 
L 534.513531 234.041359 
L 534.513531 233.978139 
L 541.049545 233.980993 
L 541.774464 233.914023 
L 543.592754 234.01066 
L 543.592754 234.009324 
L 544.317674 234.070242 
L 544.317674 234.020146 
L 545.406643 234.076609 
L 545.406643 234.022659 
L 547.949852 234.015349 
L 548.678439 234.087336 
L 548.678439 234.031884 
L 549.403359 234.084848 
L 549.403359 234.026721 
L 550.491105 234.092239 
L 550.491105 234.042663 
L 553.035292 234.052043 
L 553.035292 234.054862 
L 574.096351 234.080808 
L 574.821271 234.087532 
L 575.909017 234.026435 
L 576.996275 234.075541 
L 576.996275 234.07655 
L 577.724129 234.082235 
L 578.816765 234.03889 
L 579.541685 234.055829 
L 591.154093 234.112675 
L 592.603932 234.075153 
L 592.603932 234.081447 
L 593.696568 234.088633 
L 595.509479 234.151523 
L 595.509479 234.12055 
L 596.598203 234.158281 
L 596.598203 234.123575 
L 602.768945 234.129435 
L 602.768945 234.130981 
L 603.495332 234.135716 
L 605.313133 234.057067 
L 606.763706 234.094421 
L 608.213545 234.077614 
L 610.034035 234.128632 
L 610.034035 234.104625 
L 630.73569 234.114363 
L 631.824904 234.140804 
L 631.824904 234.144756 
L 632.91265 234.12358 
L 639.086815 234.098516 
L 641.625623 234.15629 
L 641.625623 234.154784 
L 644.164432 234.107063 
L 812.732118 234.180411 
L 812.732118 234.173768 
" clip-path="url(#pea86e8f64b)" style="fill: none; stroke: #008000; stroke-width: 1.5; stroke-linecap: square"/>
   </g>
   <g id="patch_3">
    <path d="M 47.72 534.04 
L 47.72 26.88 
" style="fill: none; stroke: #000000; stroke-width: 0.8; stroke-linejoin: miter; stroke-linecap: square"/>
   </g>
   <g id="patch_4">
    <path d="M 853.2 534.04 
L 853.2 26.88 
" style="fill: none; stroke: #000000; stroke-width: 0.8; stroke-linejoin: miter; stroke-linecap: square"/>
   </g>
   <g id="patch_5">
    <path d="M 47.72 534.04 
L 853.2 534.04 
" style="fill: none; stroke: #000000; stroke-width: 0.8; stroke-linejoin: miter; stroke-linecap: square"/>
   </g>
   <g id="patch_6">
    <path d="M 47.72 26.88 
L 853.2 26.88 
" style="fill: none; stroke: #000000; stroke-width: 0.8; stroke-linejoin: miter; stroke-linecap: square"/>
   </g>
   <g id="patch_7">
    <path d="M 517.959518 395.043423 
Q 491.808224 400.872833 465.65693 406.702242 
L 466.527214 410.60642 
Q 460.019909 408.98334 453.512604 407.360259 
Q 458.714483 403.127073 463.916362 398.893886 
L 464.786646 402.798064 
Q 490.93794 396.968655 517.089234 391.139245 
L 517.959518 395.043423 
z
" style="stroke: #000000; stroke-linecap: round"/>
   </g>
   <g id="text_15">
    <!-- Peak: RT=2.50, Area=1.96e+04 -->
    <g style="fill: #ff0000" transform="translate(523.19647 378.549463) scale(0.1 -0.1)">
     <defs>
      <path id="DejaVuSans-50" d="M 1259 4147 
L 1259 2394 
L 2053 2394 
Q 2494 2394 2734 2622 
Q 2975 2850 2975 3272 
Q 2975 3691 2734 3919 
Q 2494 4147 2053 4147 
L 1259 4147 
z
M 628 4666 
L 2053 4666 
Q 2838 4666 3239 4311 
Q 3641 3956 3641 3272 
Q 3641 2581 3239 2228 
Q 2838 1875 2053 1875 
L 1259 1875 
L 1259 0 
L 628 0 
L 628 4666 
z
" transform="scale(0.015625)"/>
      <path id="DejaVuSans-6b" d="M 581 4863 
L 1159 4863 
L 1159 1991 
L 2875 3500 
L 3609 3500 
L 1753 1863 
L 3688 0 
L 2938 0 
L 1159 1709 
L 1159 0 
L 581 0 
L 581 4863 
z
" transform="scale(0.015625)"/>
      <path id="DejaVuSans-3a" d="M 750 794 
L 1409 794 
L 1409 0 
L 750 0 
L 750 794 
z
M 750 3309 
L 1409 3309 
L 1409 2516 
L 750 2516 
L 750 3309 
z
" transform="scale(0.015625)"/>
      <path id="DejaVuSans-3d" d="M 678 2906 
L 4684 2906 
L 4684 2381 
L 678 2381 
L 678 2906 
z
M 678 1631 
L 4684 1631 
L 4684 1100 
L 678 1100 
L 678 1631 
z
" transform="scale(0.015625)"/>
      <path id="DejaVuSans-2c" d="M 750 794 
L 1409 794 
L 1409 256 
L 897 -744 
L 494 -744 
L 750 256 
L 750 794 
z
" transform="scale(0.015625)"/>
      <path id="DejaVuSans-41" d="M 2188 4044 
L 1331 1722 
L 3047 1722 
L 2188 4044 
z
M 1831 4666 
L 2547 4666 
L 4325 0 
L 3669 0 
L 3244 1197 
L 1141 1197 
L 716 0 
L 50 0 
L 1831 4666 
z
" transform="scale(0.015625)"/>
      <path id="DejaVuSans-39" d="M 703 97 
L 703 672 
Q 941 559 1184 500 
Q 1428 441 1663 441 
Q 2288 441 2617 861 
Q 2947 1281 2994 2138 
Q 2813 1869 2534 1725 
Q 2256 1581 1919 1581 
Q 1219 1581 811 2004 
Q 403 2428 403 3163 
Q 403 3881 828 4315 
Q 1253 4750 1959 4750 
Q 2769 4750 3195 4129 
Q 3622 3509 3622 2328 
Q 3622 1225 3098 567 
Q 2575 -91 1691 -91 
Q 1453 -91 1209 -44 
Q 966 3 703 97 
z
M 1959 2075 
Q 2384 2075 2632 2365 
Q 2881 2656 2881 3163 
Q 2881 3666 2632 3958 
Q 2384 4250 1959 4250 
Q 1534 4250 1286 3958 
Q 1038 3666 1038 3163 
Q 1038 2656 1286 2365 
Q 1534 2075 1959 2075 
z
" transform="scale(0.015625)"/>
      <path id="DejaVuSans-36" d="M 2113 2584 
Q 1688 2584 1439 2293 
Q 1191 2003 1191 1497 
Q 1191 994 1439 701 
Q 1688 409 2113 409 
Q 2538 409 2786 701 
Q 3034 994 3034 1497 
Q 3034 2003 2786 2293 
Q 2538 2584 2113 2584 
z
M 3366 4563 
L 3366 3988 
Q 3128 4100 2886 4159 
Q 2644 4219 2406 4219 
Q 1781 4219 1451 3797 
Q 1122 3375 1075 2522 
Q 1259 2794 1537 2939 
Q 1816 3084 2150 3084 
Q 2853 3084 3261 2657 
Q 3669 2231 3669 1497 
Q 3669 778 3244 343 
Q 2819 -91 2113 -91 
Q 1303 -91 875 529 
Q 447 1150 447 2328 
Q 447 3434 972 4092 
Q 1497 4750 2381 4750 
Q 2619 4750 2861 4703 
Q 3103 4656 3366 4563 
z
" transform="scale(0.015625)"/>
      <path id="DejaVuSans-2b" d="M 2944 4013 
L 2944 2272 
L 4684 2272 
L 4684 1741 
L 2944 1741 
L 2944 0 
L 2419 0 
L 2419 1741 
L 678 1741 
L 678 2272 
L 2419 2272 
L 2419 4013 
L 2944 4013 
z
" transform="scale(0.015625)"/>
     </defs>
     <use xlink:href="#DejaVuSans-50"/>
     <use xlink:href="#DejaVuSans-65" transform="translate(56.677734 0)"/>
     <use xlink:href="#DejaVuSans-61" transform="translate(118.201172 0)"/>
     <use xlink:href="#DejaVuSans-6b" transform="translate(179.480469 0)"/>
     <use xlink:href="#DejaVuSans-3a" transform="translate(237.390625 0)"/>
     <use xlink:href="#DejaVuSans-20" transform="translate(271.082031 0)"/>
     <use xlink:href="#DejaVuSans-52" transform="translate(302.869141 0)"/>
     <use xlink:href="#DejaVuSans-54" transform="translate(365.101562 0)"/>
     <use xlink:href="#DejaVuSans-3d" transform="translate(426.185547 0)"/>
     <use xlink:href="#DejaVuSans-32" transform="translate(509.974609 0)"/>
     <use xlink:href="#DejaVuSans-2e" transform="translate(573.597656 0)"/>
     <use xlink:href="#DejaVuSans-35" transform="translate(605.384766 0)"/>
     <use xlink:href="#DejaVuSans-30" transform="translate(669.007812 0)"/>
     <use xlink:href="#DejaVuSans-2c" transform="translate(732.630859 0)"/>
     <use xlink:href="#DejaVuSans-20" transform="translate(764.417969 0)"/>
     <use xlink:href="#DejaVuSans-41" transform="translate(796.205078 0)"/>
     <use xlink:href="#DejaVuSans-72" transform="translate(864.613281 0)"/>
     <use xlink:href="#DejaVuSans-65" transform="translate(903.476562 0)"/>
     <use xlink:href="#DejaVuSans-61" transform="translate(965 0)"/>
     <use xlink:href="#DejaVuSans-3d" transform="translate(1026.279297 0)"/>
     <use xlink:href="#DejaVuSans-31" transform="translate(1110.068359 0)"/>
     <use xlink:href="#DejaVuSans-2e" transform="translate(1173.691406 0)"/>
     <use xlink:href="#DejaVuSans-39" transform="translate(1205.478516 0)"/>
     <use xlink:href="#DejaVuSans-36" transform="translate(1269.101562 0)"/>
     <use xlink:href="#DejaVuSans-65" transform="translate(1332.724609 0)"/>
     <use xlink:href="#DejaVuSans-2b" transform="translate(1394.248047 0)"/>
     <use xlink:href="#DejaVuSans-30" transform="translate(1478.037109 0)"/>
     <use xlink:href="#DejaVuSans-34" transform="translate(1541.660156 0)"/>
    </g>
    <!-- (68.92% of total) -->
    <g style="fill: #ff0000" transform="translate(523.19647 389.747275) scale(0.1 -0.1)">
     <defs>
      <path id="DejaVuSans-38" d="M 2034 2216 
Q 1584 2216 1326 1975 
Q 1069 1734 1069 1313 
Q 1069 891 1326 650 
Q 1584 409 2034 409 
Q 2484 409 2743 651 
Q 3003 894 3003 1313 
Q 3003 1734 2745 1975 
Q 2488 2216 2034 2216 
z
M 1403 2484 
Q 997 2584 770 2862 
Q 544 3141 544 3541 
Q 544 4100 942 4425 
Q 1341 4750 2034 4750 
Q 2731 4750 3128 4425 
Q 3525 4100 3525 3541 
Q 3525 3141 3298 2862 
Q 3072 2584 2669 2484 
Q 3125 2378 3379 2068 
Q 3634 1759 3634 1313 
Q 3634 634 3220 271 
Q 2806 -91 2034 -91 
Q 1263 -91 848 271 
Q 434 634 434 1313 
Q 434 1759 690 2068 
Q 947 2378 1403 2484 
z
M 1172 3481 
Q 1172 3119 1398 2916 
Q 1625 2713 2034 2713 
Q 2441 2713 2670 2916 
Q 2900 3119 2900 3481 
Q 2900 3844 2670 4047 
Q 2441 4250 2034 4250 
Q 1625 4250 1398 4047 
Q 1172 3844 1172 3481 
z
" transform="scale(0.015625)"/>
      <path id="DejaVuSans-25" d="M 4653 2053 
Q 4381 2053 4226 1822 
Q 4072 1591 4072 1178 
Q 4072 772 4226 539 
Q 4381 306 4653 306 
Q 4919 306 5073 539 
Q 5228 772 5228 1178 
Q 5228 1588 5073 1820 
Q 4919 2053 4653 2053 
z
M 4653 2450 
Q 5147 2450 5437 2106 
Q 5728 1763 5728 1178 
Q 5728 594 5436 251 
Q 5144 -91 4653 -91 
Q 4153 -91 3862 251 
Q 3572 594 3572 1178 
Q 3572 1766 3864 2108 
Q 4156 2450 4653 2450 
z
M 1428 4353 
Q 1159 4353 1004 4120 
Q 850 3888 850 3481 
Q 850 3069 1003 2837 
Q 1156 2606 1428 2606 
Q 1700 2606 1854 2837 
Q 2009 3069 2009 3481 
Q 2009 3884 1853 4118 
Q 1697 4353 1428 4353 
z
M 4250 4750 
L 4750 4750 
L 1831 -91 
L 1331 -91 
L 4250 4750 
z
M 1428 4750 
Q 1922 4750 2215 4408 
Q 2509 4066 2509 3481 
Q 2509 2891 2217 2550 
Q 1925 2209 1428 2209 
Q 931 2209 642 2551 
Q 353 2894 353 3481 
Q 353 4063 643 4406 
Q 934 4750 1428 4750 
z
" transform="scale(0.015625)"/>
      <path id="DejaVuSans-66" d="M 2375 4863 
L 2375 4384 
L 1825 4384 
Q 1516 4384 1395 4259 
Q 1275 4134 1275 3809 
L 1275 3500 
L 2222 3500 
L 2222 3053 
L 1275 3053 
L 1275 0 
L 697 0 
L 697 3053 
L 147 3053 
L 147 3500 
L 697 3500 
L 697 3744 
Q 697 4328 969 4595 
Q 1241 4863 1831 4863 
L 2375 4863 
z
" transform="scale(0.015625)"/>
     </defs>
     <use xlink:href="#DejaVuSans-28"/>
     <use xlink:href="#DejaVuSans-36" transform="translate(39.013672 0)"/>
     <use xlink:href="#DejaVuSans-38" transform="translate(102.636719 0)"/>
     <use xlink:href="#DejaVuSans-2e" transform="translate(166.259766 0)"/>
     <use xlink:href="#DejaVuSans-39" transform="translate(198.046875 0)"/>
     <use xlink:href="#DejaVuSans-32" transform="translate(261.669922 0)"/>
     <use xlink:href="#DejaVuSans-25" transform="translate(325.292969 0)"/>
     <use xlink:href="#DejaVuSans-20" transform="translate(420.3125 0)"/>
     <use xlink:href="#DejaVuSans-6f" transform="translate(452.099609 0)"/>
     <use xlink:href="#DejaVuSans-66" transform="translate(513.28125 0)"/>
     <use xlink:href="#DejaVuSans-20" transform="translate(548.486328 0)"/>
     <use xlink:href="#DejaVuSans-74" transform="translate(580.273438 0)"/>
     <use xlink:href="#DejaVuSans-6f" transform="translate(619.482422 0)"/>
     <use xlink:href="#DejaVuSans-74" transform="translate(680.664062 0)"/>
     <use xlink:href="#DejaVuSans-61" transform="translate(719.873047 0)"/>
     <use xlink:href="#DejaVuSans-6c" transform="translate(781.152344 0)"/>
     <use xlink:href="#DejaVuSans-29" transform="translate(808.935547 0)"/>
    </g>
   </g>
   <g id="text_16">
    <!-- UV &amp; MS Chromatograms: IrCp1M8, target m/z=667.0668912 -->
    <g transform="translate(265.0525 20.88) scale(0.12 -0.12)">
     <defs>
      <path id="DejaVuSans-55" d="M 556 4666 
L 1191 4666 
L 1191 1831 
Q 1191 1081 1462 751 
Q 1734 422 2344 422 
Q 2950 422 3222 751 
Q 3494 1081 3494 1831 
L 3494 4666 
L 4128 4666 
L 4128 1753 
Q 4128 841 3676 375 
Q 3225 -91 2344 -91 
Q 1459 -91 1007 375 
Q 556 841 556 1753 
L 556 4666 
z
" transform="scale(0.015625)"/>
      <path id="DejaVuSans-56" d="M 1831 0 
L 50 4666 
L 709 4666 
L 2188 738 
L 3669 4666 
L 4325 4666 
L 2547 0 
L 1831 0 
z
" transform="scale(0.015625)"/>
      <path id="DejaVuSans-26" d="M 1556 2509 
Q 1272 2256 1139 2004 
Q 1006 1753 1006 1478 
Q 1006 1022 1337 719 
Q 1669 416 2169 416 
Q 2466 416 2725 514 
Q 2984 613 3213 813 
L 1556 2509 
z
M 1997 2859 
L 3584 1234 
Q 3769 1513 3872 1830 
Q 3975 2147 3994 2503 
L 4575 2503 
Q 4538 2091 4375 1687 
Q 4213 1284 3922 891 
L 4794 0 
L 4006 0 
L 3559 459 
Q 3234 181 2878 45 
Q 2522 -91 2113 -91 
Q 1359 -91 881 339 
Q 403 769 403 1441 
Q 403 1841 612 2192 
Q 822 2544 1241 2853 
Q 1091 3050 1012 3245 
Q 934 3441 934 3628 
Q 934 4134 1281 4442 
Q 1628 4750 2203 4750 
Q 2463 4750 2720 4694 
Q 2978 4638 3244 4525 
L 3244 3956 
Q 2972 4103 2725 4179 
Q 2478 4256 2266 4256 
Q 1938 4256 1733 4082 
Q 1528 3909 1528 3634 
Q 1528 3475 1620 3314 
Q 1713 3153 1997 2859 
z
" transform="scale(0.015625)"/>
      <path id="DejaVuSans-4d" d="M 628 4666 
L 1569 4666 
L 2759 1491 
L 3956 4666 
L 4897 4666 
L 4897 0 
L 4281 0 
L 4281 4097 
L 3078 897 
L 2444 897 
L 1241 4097 
L 1241 0 
L 628 0 
L 628 4666 
z
" transform="scale(0.015625)"/>
      <path id="DejaVuSans-53" d="M 3425 4513 
L 3425 3897 
Q 3066 4069 2747 4153 
Q 2428 4238 2131 4238 
Q 1616 4238 1336 4038 
Q 1056 3838 1056 3469 
Q 1056 3159 1242 3001 
Q 1428 2844 1947 2747 
L 2328 2669 
Q 3034 2534 3370 2195 
Q 3706 1856 3706 1288 
Q 3706 609 3251 259 
Q 2797 -91 1919 -91 
Q 1588 -91 1214 -16 
Q 841 59 441 206 
L 441 856 
Q 825 641 1194 531 
Q 1563 422 1919 422 
Q 2459 422 2753 634 
Q 3047 847 3047 1241 
Q 3047 1584 2836 1778 
Q 2625 1972 2144 2069 
L 1759 2144 
Q 1053 2284 737 2584 
Q 422 2884 422 3419 
Q 422 4038 858 4394 
Q 1294 4750 2059 4750 
Q 2388 4750 2728 4690 
Q 3069 4631 3425 4513 
z
" transform="scale(0.015625)"/>
      <path id="DejaVuSans-43" d="M 4122 4306 
L 4122 3641 
Q 3803 3938 3442 4084 
Q 3081 4231 2675 4231 
Q 1875 4231 1450 3742 
Q 1025 3253 1025 2328 
Q 1025 1406 1450 917 
Q 1875 428 2675 428 
Q 3081 428 3442 575 
Q 3803 722 4122 1019 
L 4122 359 
Q 3791 134 3420 21 
Q 3050 -91 2638 -91 
Q 1578 -91 968 557 
Q 359 1206 359 2328 
Q 359 3453 968 4101 
Q 1578 4750 2638 4750 
Q 3056 4750 3426 4639 
Q 3797 4528 4122 4306 
z
" transform="scale(0.015625)"/>
      <path id="DejaVuSans-68" d="M 3513 2113 
L 3513 0 
L 2938 0 
L 2938 2094 
Q 2938 2591 2744 2837 
Q 2550 3084 2163 3084 
Q 1697 3084 1428 2787 
Q 1159 2491 1159 1978 
L 1159 0 
L 581 0 
L 581 4863 
L 1159 4863 
L 1159 2956 
Q 1366 3272 1645 3428 
Q 1925 3584 2291 3584 
Q 2894 3584 3203 3211 
Q 3513 2838 3513 2113 
z
" transform="scale(0.015625)"/>
      <path id="DejaVuSans-67" d="M 2906 1791 
Q 2906 2416 2648 2759 
Q 2391 3103 1925 3103 
Q 1463 3103 1205 2759 
Q 947 2416 947 1791 
Q 947 1169 1205 825 
Q 1463 481 1925 481 
Q 2391 481 2648 825 
Q 2906 1169 2906 1791 
z
M 3481 434 
Q 3481 -459 3084 -895 
Q 2688 -1331 1869 -1331 
Q 1566 -1331 1297 -1286 
Q 1028 -1241 775 -1147 
L 775 -588 
Q 1028 -725 1275 -790 
Q 1522 -856 1778 -856 
Q 2344 -856 2625 -561 
Q 2906 -266 2906 331 
L 2906 616 
Q 2728 306 2450 153 
Q 2172 0 1784 0 
Q 1141 0 747 490 
Q 353 981 353 1791 
Q 353 2603 747 3093 
Q 1141 3584 1784 3584 
Q 2172 3584 2450 3431 
Q 2728 3278 2906 2969 
L 2906 3500 
L 3481 3500 
L 3481 434 
z
" transform="scale(0.015625)"/>
      <path id="DejaVuSans-70" d="M 1159 525 
L 1159 -1331 
L 581 -1331 
L 581 3500 
L 1159 3500 
L 1159 2969 
Q 1341 3281 1617 3432 
Q 1894 3584 2278 3584 
Q 2916 3584 3314 3078 
Q 3713 2572 3713 1747 
Q 3713 922 3314 415 
Q 2916 -91 2278 -91 
Q 1894 -91 1617 61 
Q 1341 213 1159 525 
z
M 3116 1747 
Q 3116 2381 2855 2742 
Q 2594 3103 2138 3103 
Q 1681 3103 1420 2742 
Q 1159 2381 1159 1747 
Q 1159 1113 1420 752 
Q 1681 391 2138 391 
Q 2594 391 2855 752 
Q 3116 1113 3116 1747 
z
" transform="scale(0.015625)"/>
      <path id="DejaVuSans-2f" d="M 1625 4666 
L 2156 4666 
L 531 -594 
L 0 -594 
L 1625 4666 
z
" transform="scale(0.015625)"/>
      <path id="DejaVuSans-37" d="M 525 4666 
L 3525 4666 
L 3525 4397 
L 1831 0 
L 1172 0 
L 2766 4134 
L 525 4134 
L 525 4666 
z
" transform="scale(0.015625)"/>
     </defs>
     <use xlink:href="#DejaVuSans-55"/>
     <use xlink:href="#DejaVuSans-56" transform="translate(73.193359 0)"/>
     <use xlink:href="#DejaVuSans-20" transform="translate(141.601562 0)"/>
     <use xlink:href="#DejaVuSans-26" transform="translate(173.388672 0)"/>
     <use xlink:href="#DejaVuSans-20" transform="translate(251.367188 0)"/>
     <use xlink:href="#DejaVuSans-4d" transform="translate(283.154297 0)"/>
     <use xlink:href="#DejaVuSans-53" transform="translate(369.433594 0)"/>
     <use xlink:href="#DejaVuSans-20" transform="translate(432.910156 0)"/>
     <use xlink:href="#DejaVuSans-43" transform="translate(464.697266 0)"/>
     <use xlink:href="#DejaVuSans-68" transform="translate(534.521484 0)"/>
     <use xlink:href="#DejaVuSans-72" transform="translate(597.900391 0)"/>
     <use xlink:href="#DejaVuSans-6f" transform="translate(636.763672 0)"/>
     <use xlink:href="#DejaVuSans-6d" transform="translate(697.945312 0)"/>
     <use xlink:href="#DejaVuSans-61" transform="translate(795.357422 0)"/>
     <use xlink:href="#DejaVuSans-74" transform="translate(856.636719 0)"/>
     <use xlink:href="#DejaVuSans-6f" transform="translate(895.845703 0)"/>
     <use xlink:href="#DejaVuSans-67" transform="translate(957.027344 0)"/>
     <use xlink:href="#DejaVuSans-72" transform="translate(1020.503906 0)"/>
     <use xlink:href="#DejaVuSans-61" transform="translate(1061.617188 0)"/>
     <use xlink:href="#DejaVuSans-6d" transform="translate(1122.896484 0)"/>
     <use xlink:href="#DejaVuSans-73" transform="translate(1220.308594 0)"/>
     <use xlink:href="#DejaVuSans-3a" transform="translate(1272.408203 0)"/>
     <use xlink:href="#DejaVuSans-20" transform="translate(1306.099609 0)"/>
     <use xlink:href="#DejaVuSans-49" transform="translate(1337.886719 0)"/>
     <use xlink:href="#DejaVuSans-72" transform="translate(1367.378906 0)"/>
     <use xlink:href="#DejaVuSans-43" transform="translate(1408.492188 0)"/>
     <use xlink:href="#DejaVuSans-70" transform="translate(1478.316406 0)"/>
     <use xlink:href="#DejaVuSans-31" transform="translate(1541.792969 0)"/>
     <use xlink:href="#DejaVuSans-4d" transform="translate(1605.416016 0)"/>
     <use xlink:href="#DejaVuSans-38" transform="translate(1691.695312 0)"/>
     <use xlink:href="#DejaVuSans-2c" transform="translate(1755.318359 0)"/>
     <use xlink:href="#DejaVuSans-20" transform="translate(1787.105469 0)"/>
     <use xlink:href="#DejaVuSans-74" transform="translate(1818.892578 0)"/>
     <use xlink:href="#DejaVuSans-61" transform="translate(1858.101562 0)"/>
     <use xlink:href="#DejaVuSans-72" transform="translate(1919.380859 0)"/>
     <use xlink:href="#DejaVuSans-67" transform="translate(1958.744141 0)"/>
     <use xlink:href="#DejaVuSans-65" transform="translate(2022.220703 0)"/>
     <use xlink:href="#DejaVuSans-74" transform="translate(2083.744141 0)"/>
     <use xlink:href="#DejaVuSans-20" transform="translate(2122.953125 0)"/>
     <use xlink:href="#DejaVuSans-6d" transform="translate(2154.740234 0)"/>
     <use xlink:href="#DejaVuSans-2f" transform="translate(2252.152344 0)"/>
     <use xlink:href="#DejaVuSans-7a" transform="translate(2285.84375 0)"/>
     <use xlink:href="#DejaVuSans-3d" transform="translate(2338.333984 0)"/>
     <use xlink:href="#DejaVuSans-36" transform="translate(2422.123047 0)"/>
     <use xlink:href="#DejaVuSans-36" transform="translate(2485.746094 0)"/>
     <use xlink:href="#DejaVuSans-37" transform="translate(2549.369141 0)"/>
     <use xlink:href="#DejaVuSans-2e" transform="translate(2612.992188 0)"/>
     <use xlink:href="#DejaVuSans-30" transform="translate(2644.779297 0)"/>
     <use xlink:href="#DejaVuSans-36" transform="translate(2708.402344 0)"/>
     <use xlink:href="#DejaVuSans-36" transform="translate(2772.025391 0)"/>
     <use xlink:href="#DejaVuSans-38" transform="translate(2835.648438 0)"/>
     <use xlink:href="#DejaVuSans-39" transform="translate(2899.271484 0)"/>
     <use xlink:href="#DejaVuSans-31" transform="translate(2962.894531 0)"/>
     <use xlink:href="#DejaVuSans-32" transform="translate(3026.517578 0)"/>
    </g>
   </g>
   <g id="legend_1">
    <g id="patch_8">
     <path d="M 685.971875 64.23625 
L 846.2 64.23625 
Q 848.2 64.23625 848.2 62.23625 
L 848.2 33.88 
Q 848.2 31.88 846.2 31.88 
L 685.971875 31.88 
Q 683.971875 31.88 683.971875 33.88 
L 683.971875 62.23625 
Q 683.971875 64.23625 685.971875 64.23625 
z
" style="fill: #ffffff; opacity: 0.8; stroke: #cccccc; stroke-linejoin: miter"/>
    </g>
    <g id="line2d_15">
     <path d="M 687.971875 39.978437 
L 697.971875 39.978437 
L 707.971875 39.978437 
" style="fill: none; stroke: #0000ff; stroke-width: 1.5; stroke-linecap: square"/>
    </g>
    <g id="text_17">
     <!-- UV Intensity (normalized) -->
     <g transform="translate(715.971875 43.478437) scale(0.1 -0.1)">
      <use xlink:href="#DejaVuSans-55"/>
      <use xlink:href="#DejaVuSans-56" transform="translate(73.193359 0)"/>
      <use xlink:href="#DejaVuSans-20" transform="translate(141.601562 0)"/>
      <use xlink:href="#DejaVuSans-49" transform="translate(173.388672 0)"/>
      <use xlink:href="#DejaVuSans-6e" transform="translate(202.880859 0)"/>
      <use xlink:href="#DejaVuSans-74" transform="translate(266.259766 0)"/>
      <use xlink:href="#DejaVuSans-65" transform="translate(305.46875 0)"/>
      <use xlink:href="#DejaVuSans-6e" transform="translate(366.992188 0)"/>
      <use xlink:href="#DejaVuSans-73" transform="translate(430.371094 0)"/>
      <use xlink:href="#DejaVuSans-69" transform="translate(482.470703 0)"/>
      <use xlink:href="#DejaVuSans-74" transform="translate(510.253906 0)"/>
      <use xlink:href="#DejaVuSans-79" transform="translate(549.462891 0)"/>
      <use xlink:href="#DejaVuSans-20" transform="translate(608.642578 0)"/>
      <use xlink:href="#DejaVuSans-28" transform="translate(640.429688 0)"/>
      <use xlink:href="#DejaVuSans-6e" transform="translate(679.443359 0)"/>
      <use xlink:href="#DejaVuSans-6f" transform="translate(742.822266 0)"/>
      <use xlink:href="#DejaVuSans-72" transform="translate(804.003906 0)"/>
      <use xlink:href="#DejaVuSans-6d" transform="translate(843.367188 0)"/>
      <use xlink:href="#DejaVuSans-61" transform="translate(940.779297 0)"/>
      <use xlink:href="#DejaVuSans-6c" transform="translate(1002.058594 0)"/>
      <use xlink:href="#DejaVuSans-69" transform="translate(1029.841797 0)"/>
      <use xlink:href="#DejaVuSans-7a" transform="translate(1057.625 0)"/>
      <use xlink:href="#DejaVuSans-65" transform="translate(1110.115234 0)"/>
      <use xlink:href="#DejaVuSans-64" transform="translate(1171.638672 0)"/>
      <use xlink:href="#DejaVuSans-29" transform="translate(1235.115234 0)"/>
     </g>
    </g>
    <g id="line2d_16">
     <path d="M 687.971875 54.656562 
L 697.971875 54.656562 
L 707.971875 54.656562 
" style="fill: none; stroke: #008000; stroke-width: 1.5; stroke-linecap: square"/>
    </g>
    <g id="text_18">
     <!-- MS Intensity (normalized) -->
     <g transform="translate(715.971875 58.156562) scale(0.1 -0.1)">
      <use xlink:href="#DejaVuSans-4d"/>
      <use xlink:href="#DejaVuSans-53" transform="translate(86.279297 0)"/>
      <use xlink:href="#DejaVuSans-20" transform="translate(149.755859 0)"/>
      <use xlink:href="#DejaVuSans-49" transform="translate(181.542969 0)"/>
      <use xlink:href="#DejaVuSans-6e" transform="translate(211.035156 0)"/>
      <use xlink:href="#DejaVuSans-74" transform="translate(274.414062 0)"/>
      <use xlink:href="#DejaVuSans-65" transform="translate(313.623047 0)"/>
      <use xlink:href="#DejaVuSans-6e" transform="translate(375.146484 0)"/>
      <use xlink:href="#DejaVuSans-73" transform="translate(438.525391 0)"/>
      <use xlink:href="#DejaVuSans-69" transform="translate(490.625 0)"/>
      <use xlink:href="#DejaVuSans-74" transform="translate(518.408203 0)"/>
      <use xlink:href="#DejaVuSans-79" transform="translate(557.617188 0)"/>
      <use xlink:href="#DejaVuSans-20" transform="translate(616.796875 0)"/>
      <use xlink:href="#DejaVuSans-28" transform="translate(648.583984 0)"/>
      <use xlink:href="#DejaVuSans-6e" transform="translate(687.597656 0)"/>
      <use xlink:href="#DejaVuSans-6f" transform="translate(750.976562 0)"/>
      <use xlink:href="#DejaVuSans-72" transform="translate(812.158203 0)"/>
      <use xlink:href="#DejaVuSans-6d" transform="translate(851.521484 0)"/>
      <use xlink:href="#DejaVuSans-61" transform="translate(948.933594 0)"/>
      <use xlink:href="#DejaVuSans-6c" transform="translate(1010.212891 0)"/>
      <use xlink:href="#DejaVuSans-69" transform="translate(1037.996094 0)"/>
      <use xlink:href="#DejaVuSans-7a" transform="translate(1065.779297 0)"/>
      <use xlink:href="#DejaVuSans-65" transform="translate(1118.269531 0)"/>
      <use xlink:href="#DejaVuSans-64" transform="translate(1179.792969 0)"/>
      <use xlink:href="#DejaVuSans-29" transform="translate(1243.269531 0)"/>
     </g>
    </g>
   </g>
  </g>
 </g>
 <defs>
  <clipPath id="pea86e8f64b">
   <rect x="47.72" y="26.88" width="805.48" height="507.16"/>
  </clipPath>
 </defs>
</svg>
