<?xml version="1.0" encoding="utf-8" standalone="no"?>
<!DOCTYPE svg PUBLIC "-//W3C//DTD SVG 1.1//EN"
  "http://www.w3.org/Graphics/SVG/1.1/DTD/svg11.dtd">
<svg xmlns:xlink="http://www.w3.org/1999/xlink" width="864pt" height="576pt" viewBox="0 0 864 576" xmlns="http://www.w3.org/2000/svg" version="1.1">
 <metadata>
  <rdf:RDF xmlns:dc="http://purl.org/dc/elements/1.1/" xmlns:cc="http://creativecommons.org/ns#" xmlns:rdf="http://www.w3.org/1999/02/22-rdf-syntax-ns#">
   <cc:Work>
    <dc:type rdf:resource="http://purl.org/dc/dcmitype/StillImage"/>
    <dc:date>2025-02-25T11:14:51.745674</dc:date>
    <dc:format>image/svg+xml</dc:format>
    <dc:creator>
     <cc:Agent>
      <dc:title>Matplotlib v3.10.0, https://matplotlib.org/</dc:title>
     </cc:Agent>
    </dc:creator>
   </cc:Work>
  </rdf:RDF>
 </metadata>
 <defs>
  <style type="text/css">*{stroke-linejoin: round; stroke-linecap: butt}</style>
 </defs>
 <g id="figure_1">
  <g id="patch_1">
   <path d="M 0 576 
L 864 576 
L 864 0 
L 0 0 
z
" style="fill: #ffffff"/>
  </g>
  <g id="axes_1">
   <g id="patch_2">
    <path d="M 47.72 534.04 
L 853.2 534.04 
L 853.2 26.88 
L 47.72 26.88 
z
" style="fill: #ffffff"/>
   </g>
   <g id="matplotlib.axis_1">
    <g id="xtick_1">
     <g id="line2d_1">
      <defs>
       <path id="m61f1a34b5d" d="M 0 0 
L 0 3.5 
" style="stroke: #000000; stroke-width: 0.8"/>
      </defs>
      <g>
       <use xlink:href="#m61f1a34b5d" x="83.100486" y="534.04" style="stroke: #000000; stroke-width: 0.8"/>
      </g>
     </g>
     <g id="text_1">
      <!-- 0 -->
      <g transform="translate(79.919236 548.638438) scale(0.1 -0.1)">
       <defs>
        <path id="DejaVuSans-30" d="M 2034 4250 
Q 1547 4250 1301 3770 
Q 1056 3291 1056 2328 
Q 1056 1369 1301 889 
Q 1547 409 2034 409 
Q 2525 409 2770 889 
Q 3016 1369 3016 2328 
Q 3016 3291 2770 3770 
Q 2525 4250 2034 4250 
z
M 2034 4750 
Q 2819 4750 3233 4129 
Q 3647 3509 3647 2328 
Q 3647 1150 3233 529 
Q 2819 -91 2034 -91 
Q 1250 -91 836 529 
Q 422 1150 422 2328 
Q 422 3509 836 4129 
Q 1250 4750 2034 4750 
z
" transform="scale(0.015625)"/>
       </defs>
       <use xlink:href="#DejaVuSans-30"/>
      </g>
     </g>
    </g>
    <g id="xtick_2">
     <g id="line2d_2">
      <g>
       <use xlink:href="#m61f1a34b5d" x="229.795887" y="534.04" style="stroke: #000000; stroke-width: 0.8"/>
      </g>
     </g>
     <g id="text_2">
      <!-- 1 -->
      <g transform="translate(226.614637 548.638438) scale(0.1 -0.1)">
       <defs>
        <path id="DejaVuSans-31" d="M 794 531 
L 1825 531 
L 1825 4091 
L 703 3866 
L 703 4441 
L 1819 4666 
L 2450 4666 
L 2450 531 
L 3481 531 
L 3481 0 
L 794 0 
L 794 531 
z
" transform="scale(0.015625)"/>
       </defs>
       <use xlink:href="#DejaVuSans-31"/>
      </g>
     </g>
    </g>
    <g id="xtick_3">
     <g id="line2d_3">
      <g>
       <use xlink:href="#m61f1a34b5d" x="376.491289" y="534.04" style="stroke: #000000; stroke-width: 0.8"/>
      </g>
     </g>
     <g id="text_3">
      <!-- 2 -->
      <g transform="translate(373.310039 548.638438) scale(0.1 -0.1)">
       <defs>
        <path id="DejaVuSans-32" d="M 1228 531 
L 3431 531 
L 3431 0 
L 469 0 
L 469 531 
Q 828 903 1448 1529 
Q 2069 2156 2228 2338 
Q 2531 2678 2651 2914 
Q 2772 3150 2772 3378 
Q 2772 3750 2511 3984 
Q 2250 4219 1831 4219 
Q 1534 4219 1204 4116 
Q 875 4013 500 3803 
L 500 4441 
Q 881 4594 1212 4672 
Q 1544 4750 1819 4750 
Q 2544 4750 2975 4387 
Q 3406 4025 3406 3419 
Q 3406 3131 3298 2873 
Q 3191 2616 2906 2266 
Q 2828 2175 2409 1742 
Q 1991 1309 1228 531 
z
" transform="scale(0.015625)"/>
       </defs>
       <use xlink:href="#DejaVuSans-32"/>
      </g>
     </g>
    </g>
    <g id="xtick_4">
     <g id="line2d_4">
      <g>
       <use xlink:href="#m61f1a34b5d" x="523.18669" y="534.04" style="stroke: #000000; stroke-width: 0.8"/>
      </g>
     </g>
     <g id="text_4">
      <!-- 3 -->
      <g transform="translate(520.00544 548.638438) scale(0.1 -0.1)">
       <defs>
        <path id="DejaVuSans-33" d="M 2597 2516 
Q 3050 2419 3304 2112 
Q 3559 1806 3559 1356 
Q 3559 666 3084 287 
Q 2609 -91 1734 -91 
Q 1441 -91 1130 -33 
Q 819 25 488 141 
L 488 750 
Q 750 597 1062 519 
Q 1375 441 1716 441 
Q 2309 441 2620 675 
Q 2931 909 2931 1356 
Q 2931 1769 2642 2001 
Q 2353 2234 1838 2234 
L 1294 2234 
L 1294 2753 
L 1863 2753 
Q 2328 2753 2575 2939 
Q 2822 3125 2822 3475 
Q 2822 3834 2567 4026 
Q 2313 4219 1838 4219 
Q 1578 4219 1281 4162 
Q 984 4106 628 3988 
L 628 4550 
Q 988 4650 1302 4700 
Q 1616 4750 1894 4750 
Q 2613 4750 3031 4423 
Q 3450 4097 3450 3541 
Q 3450 3153 3228 2886 
Q 3006 2619 2597 2516 
z
" transform="scale(0.015625)"/>
       </defs>
       <use xlink:href="#DejaVuSans-33"/>
      </g>
     </g>
    </g>
    <g id="xtick_5">
     <g id="line2d_5">
      <g>
       <use xlink:href="#m61f1a34b5d" x="669.882092" y="534.04" style="stroke: #000000; stroke-width: 0.8"/>
      </g>
     </g>
     <g id="text_5">
      <!-- 4 -->
      <g transform="translate(666.700842 548.638438) scale(0.1 -0.1)">
       <defs>
        <path id="DejaVuSans-34" d="M 2419 4116 
L 825 1625 
L 2419 1625 
L 2419 4116 
z
M 2253 4666 
L 3047 4666 
L 3047 1625 
L 3713 1625 
L 3713 1100 
L 3047 1100 
L 3047 0 
L 2419 0 
L 2419 1100 
L 313 1100 
L 313 1709 
L 2253 4666 
z
" transform="scale(0.015625)"/>
       </defs>
       <use xlink:href="#DejaVuSans-34"/>
      </g>
     </g>
    </g>
    <g id="xtick_6">
     <g id="line2d_6">
      <g>
       <use xlink:href="#m61f1a34b5d" x="816.577493" y="534.04" style="stroke: #000000; stroke-width: 0.8"/>
      </g>
     </g>
     <g id="text_6">
      <!-- 5 -->
      <g transform="translate(813.396243 548.638438) scale(0.1 -0.1)">
       <defs>
        <path id="DejaVuSans-35" d="M 691 4666 
L 3169 4666 
L 3169 4134 
L 1269 4134 
L 1269 2991 
Q 1406 3038 1543 3061 
Q 1681 3084 1819 3084 
Q 2600 3084 3056 2656 
Q 3513 2228 3513 1497 
Q 3513 744 3044 326 
Q 2575 -91 1722 -91 
Q 1428 -91 1123 -41 
Q 819 9 494 109 
L 494 744 
Q 775 591 1075 516 
Q 1375 441 1709 441 
Q 2250 441 2565 725 
Q 2881 1009 2881 1497 
Q 2881 1984 2565 2268 
Q 2250 2553 1709 2553 
Q 1456 2553 1204 2497 
Q 953 2441 691 2322 
L 691 4666 
z
" transform="scale(0.015625)"/>
       </defs>
       <use xlink:href="#DejaVuSans-35"/>
      </g>
     </g>
    </g>
    <g id="text_7">
     <!-- Retention Time (min) -->
     <g transform="translate(397.61 562.316562) scale(0.1 -0.1)">
      <defs>
       <path id="DejaVuSans-52" d="M 2841 2188 
Q 3044 2119 3236 1894 
Q 3428 1669 3622 1275 
L 4263 0 
L 3584 0 
L 2988 1197 
Q 2756 1666 2539 1819 
Q 2322 1972 1947 1972 
L 1259 1972 
L 1259 0 
L 628 0 
L 628 4666 
L 2053 4666 
Q 2853 4666 3247 4331 
Q 3641 3997 3641 3322 
Q 3641 2881 3436 2590 
Q 3231 2300 2841 2188 
z
M 1259 4147 
L 1259 2491 
L 2053 2491 
Q 2509 2491 2742 2702 
Q 2975 2913 2975 3322 
Q 2975 3731 2742 3939 
Q 2509 4147 2053 4147 
L 1259 4147 
z
" transform="scale(0.015625)"/>
       <path id="DejaVuSans-65" d="M 3597 1894 
L 3597 1613 
L 953 1613 
Q 991 1019 1311 708 
Q 1631 397 2203 397 
Q 2534 397 2845 478 
Q 3156 559 3463 722 
L 3463 178 
Q 3153 47 2828 -22 
Q 2503 -91 2169 -91 
Q 1331 -91 842 396 
Q 353 884 353 1716 
Q 353 2575 817 3079 
Q 1281 3584 2069 3584 
Q 2775 3584 3186 3129 
Q 3597 2675 3597 1894 
z
M 3022 2063 
Q 3016 2534 2758 2815 
Q 2500 3097 2075 3097 
Q 1594 3097 1305 2825 
Q 1016 2553 972 2059 
L 3022 2063 
z
" transform="scale(0.015625)"/>
       <path id="DejaVuSans-74" d="M 1172 4494 
L 1172 3500 
L 2356 3500 
L 2356 3053 
L 1172 3053 
L 1172 1153 
Q 1172 725 1289 603 
Q 1406 481 1766 481 
L 2356 481 
L 2356 0 
L 1766 0 
Q 1100 0 847 248 
Q 594 497 594 1153 
L 594 3053 
L 172 3053 
L 172 3500 
L 594 3500 
L 594 4494 
L 1172 4494 
z
" transform="scale(0.015625)"/>
       <path id="DejaVuSans-6e" d="M 3513 2113 
L 3513 0 
L 2938 0 
L 2938 2094 
Q 2938 2591 2744 2837 
Q 2550 3084 2163 3084 
Q 1697 3084 1428 2787 
Q 1159 2491 1159 1978 
L 1159 0 
L 581 0 
L 581 3500 
L 1159 3500 
L 1159 2956 
Q 1366 3272 1645 3428 
Q 1925 3584 2291 3584 
Q 2894 3584 3203 3211 
Q 3513 2838 3513 2113 
z
" transform="scale(0.015625)"/>
       <path id="DejaVuSans-69" d="M 603 3500 
L 1178 3500 
L 1178 0 
L 603 0 
L 603 3500 
z
M 603 4863 
L 1178 4863 
L 1178 4134 
L 603 4134 
L 603 4863 
z
" transform="scale(0.015625)"/>
       <path id="DejaVuSans-6f" d="M 1959 3097 
Q 1497 3097 1228 2736 
Q 959 2375 959 1747 
Q 959 1119 1226 758 
Q 1494 397 1959 397 
Q 2419 397 2687 759 
Q 2956 1122 2956 1747 
Q 2956 2369 2687 2733 
Q 2419 3097 1959 3097 
z
M 1959 3584 
Q 2709 3584 3137 3096 
Q 3566 2609 3566 1747 
Q 3566 888 3137 398 
Q 2709 -91 1959 -91 
Q 1206 -91 779 398 
Q 353 888 353 1747 
Q 353 2609 779 3096 
Q 1206 3584 1959 3584 
z
" transform="scale(0.015625)"/>
       <path id="DejaVuSans-20" transform="scale(0.015625)"/>
       <path id="DejaVuSans-54" d="M -19 4666 
L 3928 4666 
L 3928 4134 
L 2272 4134 
L 2272 0 
L 1638 0 
L 1638 4134 
L -19 4134 
L -19 4666 
z
" transform="scale(0.015625)"/>
       <path id="DejaVuSans-6d" d="M 3328 2828 
Q 3544 3216 3844 3400 
Q 4144 3584 4550 3584 
Q 5097 3584 5394 3201 
Q 5691 2819 5691 2113 
L 5691 0 
L 5113 0 
L 5113 2094 
Q 5113 2597 4934 2840 
Q 4756 3084 4391 3084 
Q 3944 3084 3684 2787 
Q 3425 2491 3425 1978 
L 3425 0 
L 2847 0 
L 2847 2094 
Q 2847 2600 2669 2842 
Q 2491 3084 2119 3084 
Q 1678 3084 1418 2786 
Q 1159 2488 1159 1978 
L 1159 0 
L 581 0 
L 581 3500 
L 1159 3500 
L 1159 2956 
Q 1356 3278 1631 3431 
Q 1906 3584 2284 3584 
Q 2666 3584 2933 3390 
Q 3200 3197 3328 2828 
z
" transform="scale(0.015625)"/>
       <path id="DejaVuSans-28" d="M 1984 4856 
Q 1566 4138 1362 3434 
Q 1159 2731 1159 2009 
Q 1159 1288 1364 580 
Q 1569 -128 1984 -844 
L 1484 -844 
Q 1016 -109 783 600 
Q 550 1309 550 2009 
Q 550 2706 781 3412 
Q 1013 4119 1484 4856 
L 1984 4856 
z
" transform="scale(0.015625)"/>
       <path id="DejaVuSans-29" d="M 513 4856 
L 1013 4856 
Q 1481 4119 1714 3412 
Q 1947 2706 1947 2009 
Q 1947 1309 1714 600 
Q 1481 -109 1013 -844 
L 513 -844 
Q 928 -128 1133 580 
Q 1338 1288 1338 2009 
Q 1338 2731 1133 3434 
Q 928 4138 513 4856 
z
" transform="scale(0.015625)"/>
      </defs>
      <use xlink:href="#DejaVuSans-52"/>
      <use xlink:href="#DejaVuSans-65" transform="translate(64.982422 0)"/>
      <use xlink:href="#DejaVuSans-74" transform="translate(126.505859 0)"/>
      <use xlink:href="#DejaVuSans-65" transform="translate(165.714844 0)"/>
      <use xlink:href="#DejaVuSans-6e" transform="translate(227.238281 0)"/>
      <use xlink:href="#DejaVuSans-74" transform="translate(290.617188 0)"/>
      <use xlink:href="#DejaVuSans-69" transform="translate(329.826172 0)"/>
      <use xlink:href="#DejaVuSans-6f" transform="translate(357.609375 0)"/>
      <use xlink:href="#DejaVuSans-6e" transform="translate(418.791016 0)"/>
      <use xlink:href="#DejaVuSans-20" transform="translate(482.169922 0)"/>
      <use xlink:href="#DejaVuSans-54" transform="translate(513.957031 0)"/>
      <use xlink:href="#DejaVuSans-69" transform="translate(571.916016 0)"/>
      <use xlink:href="#DejaVuSans-6d" transform="translate(599.699219 0)"/>
      <use xlink:href="#DejaVuSans-65" transform="translate(697.111328 0)"/>
      <use xlink:href="#DejaVuSans-20" transform="translate(758.634766 0)"/>
      <use xlink:href="#DejaVuSans-28" transform="translate(790.421875 0)"/>
      <use xlink:href="#DejaVuSans-6d" transform="translate(829.435547 0)"/>
      <use xlink:href="#DejaVuSans-69" transform="translate(926.847656 0)"/>
      <use xlink:href="#DejaVuSans-6e" transform="translate(954.630859 0)"/>
      <use xlink:href="#DejaVuSans-29" transform="translate(1018.009766 0)"/>
     </g>
    </g>
   </g>
   <g id="matplotlib.axis_2">
    <g id="ytick_1">
     <g id="line2d_7">
      <defs>
       <path id="m8e7f2bb9be" d="M 0 0 
L -3.5 0 
" style="stroke: #000000; stroke-width: 0.8"/>
      </defs>
      <g>
       <use xlink:href="#m8e7f2bb9be" x="47.72" y="510.65738" style="stroke: #000000; stroke-width: 0.8"/>
      </g>
     </g>
     <g id="text_8">
      <!-- 0.0 -->
      <g style="fill: #0000ff" transform="translate(24.816875 514.456599) scale(0.1 -0.1)">
       <defs>
        <path id="DejaVuSans-2e" d="M 684 794 
L 1344 794 
L 1344 0 
L 684 0 
L 684 794 
z
" transform="scale(0.015625)"/>
       </defs>
       <use xlink:href="#DejaVuSans-30"/>
       <use xlink:href="#DejaVuSans-2e" transform="translate(63.623047 0)"/>
       <use xlink:href="#DejaVuSans-30" transform="translate(95.410156 0)"/>
      </g>
     </g>
    </g>
    <g id="ytick_2">
     <g id="line2d_8">
      <g>
       <use xlink:href="#m8e7f2bb9be" x="47.72" y="418.51245" style="stroke: #000000; stroke-width: 0.8"/>
      </g>
     </g>
     <g id="text_9">
      <!-- 0.5 -->
      <g style="fill: #0000ff" transform="translate(24.816875 422.311668) scale(0.1 -0.1)">
       <use xlink:href="#DejaVuSans-30"/>
       <use xlink:href="#DejaVuSans-2e" transform="translate(63.623047 0)"/>
       <use xlink:href="#DejaVuSans-35" transform="translate(95.410156 0)"/>
      </g>
     </g>
    </g>
    <g id="ytick_3">
     <g id="line2d_9">
      <g>
       <use xlink:href="#m8e7f2bb9be" x="47.72" y="326.367519" style="stroke: #000000; stroke-width: 0.8"/>
      </g>
     </g>
     <g id="text_10">
      <!-- 1.0 -->
      <g style="fill: #0000ff" transform="translate(24.816875 330.166738) scale(0.1 -0.1)">
       <use xlink:href="#DejaVuSans-31"/>
       <use xlink:href="#DejaVuSans-2e" transform="translate(63.623047 0)"/>
       <use xlink:href="#DejaVuSans-30" transform="translate(95.410156 0)"/>
      </g>
     </g>
    </g>
    <g id="ytick_4">
     <g id="line2d_10">
      <g>
       <use xlink:href="#m8e7f2bb9be" x="47.72" y="234.222588" style="stroke: #000000; stroke-width: 0.8"/>
      </g>
     </g>
     <g id="text_11">
      <!-- 1.5 -->
      <g style="fill: #0000ff" transform="translate(24.816875 238.021807) scale(0.1 -0.1)">
       <use xlink:href="#DejaVuSans-31"/>
       <use xlink:href="#DejaVuSans-2e" transform="translate(63.623047 0)"/>
       <use xlink:href="#DejaVuSans-35" transform="translate(95.410156 0)"/>
      </g>
     </g>
    </g>
    <g id="ytick_5">
     <g id="line2d_11">
      <g>
       <use xlink:href="#m8e7f2bb9be" x="47.72" y="142.077658" style="stroke: #000000; stroke-width: 0.8"/>
      </g>
     </g>
     <g id="text_12">
      <!-- 2.0 -->
      <g style="fill: #0000ff" transform="translate(24.816875 145.876877) scale(0.1 -0.1)">
       <use xlink:href="#DejaVuSans-32"/>
       <use xlink:href="#DejaVuSans-2e" transform="translate(63.623047 0)"/>
       <use xlink:href="#DejaVuSans-30" transform="translate(95.410156 0)"/>
      </g>
     </g>
    </g>
    <g id="ytick_6">
     <g id="line2d_12">
      <g>
       <use xlink:href="#m8e7f2bb9be" x="47.72" y="49.932727" style="stroke: #000000; stroke-width: 0.8"/>
      </g>
     </g>
     <g id="text_13">
      <!-- 2.5 -->
      <g style="fill: #0000ff" transform="translate(24.816875 53.731946) scale(0.1 -0.1)">
       <use xlink:href="#DejaVuSans-32"/>
       <use xlink:href="#DejaVuSans-2e" transform="translate(63.623047 0)"/>
       <use xlink:href="#DejaVuSans-35" transform="translate(95.410156 0)"/>
      </g>
     </g>
    </g>
    <g id="text_14">
     <!-- Normalized Intensity -->
     <g style="fill: #0000ff" transform="translate(18.737187 332.167031) rotate(-90) scale(0.1 -0.1)">
      <defs>
       <path id="DejaVuSans-4e" d="M 628 4666 
L 1478 4666 
L 3547 763 
L 3547 4666 
L 4159 4666 
L 4159 0 
L 3309 0 
L 1241 3903 
L 1241 0 
L 628 0 
L 628 4666 
z
" transform="scale(0.015625)"/>
       <path id="DejaVuSans-72" d="M 2631 2963 
Q 2534 3019 2420 3045 
Q 2306 3072 2169 3072 
Q 1681 3072 1420 2755 
Q 1159 2438 1159 1844 
L 1159 0 
L 581 0 
L 581 3500 
L 1159 3500 
L 1159 2956 
Q 1341 3275 1631 3429 
Q 1922 3584 2338 3584 
Q 2397 3584 2469 3576 
Q 2541 3569 2628 3553 
L 2631 2963 
z
" transform="scale(0.015625)"/>
       <path id="DejaVuSans-61" d="M 2194 1759 
Q 1497 1759 1228 1600 
Q 959 1441 959 1056 
Q 959 750 1161 570 
Q 1363 391 1709 391 
Q 2188 391 2477 730 
Q 2766 1069 2766 1631 
L 2766 1759 
L 2194 1759 
z
M 3341 1997 
L 3341 0 
L 2766 0 
L 2766 531 
Q 2569 213 2275 61 
Q 1981 -91 1556 -91 
Q 1019 -91 701 211 
Q 384 513 384 1019 
Q 384 1609 779 1909 
Q 1175 2209 1959 2209 
L 2766 2209 
L 2766 2266 
Q 2766 2663 2505 2880 
Q 2244 3097 1772 3097 
Q 1472 3097 1187 3025 
Q 903 2953 641 2809 
L 641 3341 
Q 956 3463 1253 3523 
Q 1550 3584 1831 3584 
Q 2591 3584 2966 3190 
Q 3341 2797 3341 1997 
z
" transform="scale(0.015625)"/>
       <path id="DejaVuSans-6c" d="M 603 4863 
L 1178 4863 
L 1178 0 
L 603 0 
L 603 4863 
z
" transform="scale(0.015625)"/>
       <path id="DejaVuSans-7a" d="M 353 3500 
L 3084 3500 
L 3084 2975 
L 922 459 
L 3084 459 
L 3084 0 
L 275 0 
L 275 525 
L 2438 3041 
L 353 3041 
L 353 3500 
z
" transform="scale(0.015625)"/>
       <path id="DejaVuSans-64" d="M 2906 2969 
L 2906 4863 
L 3481 4863 
L 3481 0 
L 2906 0 
L 2906 525 
Q 2725 213 2448 61 
Q 2172 -91 1784 -91 
Q 1150 -91 751 415 
Q 353 922 353 1747 
Q 353 2572 751 3078 
Q 1150 3584 1784 3584 
Q 2172 3584 2448 3432 
Q 2725 3281 2906 2969 
z
M 947 1747 
Q 947 1113 1208 752 
Q 1469 391 1925 391 
Q 2381 391 2643 752 
Q 2906 1113 2906 1747 
Q 2906 2381 2643 2742 
Q 2381 3103 1925 3103 
Q 1469 3103 1208 2742 
Q 947 2381 947 1747 
z
" transform="scale(0.015625)"/>
       <path id="DejaVuSans-49" d="M 628 4666 
L 1259 4666 
L 1259 0 
L 628 0 
L 628 4666 
z
" transform="scale(0.015625)"/>
       <path id="DejaVuSans-73" d="M 2834 3397 
L 2834 2853 
Q 2591 2978 2328 3040 
Q 2066 3103 1784 3103 
Q 1356 3103 1142 2972 
Q 928 2841 928 2578 
Q 928 2378 1081 2264 
Q 1234 2150 1697 2047 
L 1894 2003 
Q 2506 1872 2764 1633 
Q 3022 1394 3022 966 
Q 3022 478 2636 193 
Q 2250 -91 1575 -91 
Q 1294 -91 989 -36 
Q 684 19 347 128 
L 347 722 
Q 666 556 975 473 
Q 1284 391 1588 391 
Q 1994 391 2212 530 
Q 2431 669 2431 922 
Q 2431 1156 2273 1281 
Q 2116 1406 1581 1522 
L 1381 1569 
Q 847 1681 609 1914 
Q 372 2147 372 2553 
Q 372 3047 722 3315 
Q 1072 3584 1716 3584 
Q 2034 3584 2315 3537 
Q 2597 3491 2834 3397 
z
" transform="scale(0.015625)"/>
       <path id="DejaVuSans-79" d="M 2059 -325 
Q 1816 -950 1584 -1140 
Q 1353 -1331 966 -1331 
L 506 -1331 
L 506 -850 
L 844 -850 
Q 1081 -850 1212 -737 
Q 1344 -625 1503 -206 
L 1606 56 
L 191 3500 
L 800 3500 
L 1894 763 
L 2988 3500 
L 3597 3500 
L 2059 -325 
z
" transform="scale(0.015625)"/>
      </defs>
      <use xlink:href="#DejaVuSans-4e"/>
      <use xlink:href="#DejaVuSans-6f" transform="translate(74.804688 0)"/>
      <use xlink:href="#DejaVuSans-72" transform="translate(135.986328 0)"/>
      <use xlink:href="#DejaVuSans-6d" transform="translate(175.349609 0)"/>
      <use xlink:href="#DejaVuSans-61" transform="translate(272.761719 0)"/>
      <use xlink:href="#DejaVuSans-6c" transform="translate(334.041016 0)"/>
      <use xlink:href="#DejaVuSans-69" transform="translate(361.824219 0)"/>
      <use xlink:href="#DejaVuSans-7a" transform="translate(389.607422 0)"/>
      <use xlink:href="#DejaVuSans-65" transform="translate(442.097656 0)"/>
      <use xlink:href="#DejaVuSans-64" transform="translate(503.621094 0)"/>
      <use xlink:href="#DejaVuSans-20" transform="translate(567.097656 0)"/>
      <use xlink:href="#DejaVuSans-49" transform="translate(598.884766 0)"/>
      <use xlink:href="#DejaVuSans-6e" transform="translate(628.376953 0)"/>
      <use xlink:href="#DejaVuSans-74" transform="translate(691.755859 0)"/>
      <use xlink:href="#DejaVuSans-65" transform="translate(730.964844 0)"/>
      <use xlink:href="#DejaVuSans-6e" transform="translate(792.488281 0)"/>
      <use xlink:href="#DejaVuSans-73" transform="translate(855.867188 0)"/>
      <use xlink:href="#DejaVuSans-69" transform="translate(907.966797 0)"/>
      <use xlink:href="#DejaVuSans-74" transform="translate(935.75 0)"/>
      <use xlink:href="#DejaVuSans-79" transform="translate(974.958984 0)"/>
     </g>
    </g>
   </g>
   <g id="line2d_13">
    <path d="M 84.332727 510.65738 
L 102.669652 510.764095 
L 133.231194 510.8643 
L 139.343503 510.748528 
L 141.788426 510.577771 
L 149.123196 509.756993 
L 163.792736 510.05577 
L 165.015198 509.878873 
L 167.460121 509.151938 
L 169.905045 508.334966 
L 171.127506 508.074701 
L 172.349968 507.961319 
L 174.794891 508.110563 
L 178.462277 508.797666 
L 180.9072 509.247943 
L 182.129662 509.161129 
L 183.352123 507.981654 
L 184.574585 504.825516 
L 185.797047 500.210603 
L 187.019508 496.372554 
L 188.24197 495.355645 
L 189.464432 497.243334 
L 191.909355 503.555781 
L 193.131817 505.625969 
L 194.354278 506.772994 
L 195.57674 507.372697 
L 198.021663 508.10058 
L 200.466587 508.674818 
L 202.91151 508.952688 
L 207.801357 509.28883 
L 215.136127 509.960264 
L 217.58105 509.875952 
L 220.025974 509.336931 
L 221.248435 509.005178 
L 222.470897 508.794602 
L 223.693359 508.794834 
L 226.138282 509.31041 
L 228.583205 509.868928 
L 231.028129 510.129708 
L 237.140437 510.474259 
L 240.807822 510.388162 
L 246.920131 510.07736 
L 251.809977 510.131973 
L 256.699824 510.217437 
L 265.257056 509.820994 
L 266.479517 509.649514 
L 268.924441 508.962688 
L 270.146902 508.576722 
L 271.369364 508.322869 
L 273.814287 508.282829 
L 275.036749 508.229192 
L 276.259211 507.946337 
L 278.704134 507.063206 
L 279.926596 506.930577 
L 281.149058 507.140022 
L 283.593981 507.948491 
L 284.816443 508.066054 
L 286.038904 507.728859 
L 287.261366 506.942022 
L 288.483828 505.972439 
L 289.706289 505.217089 
L 290.928751 504.954488 
L 292.151213 505.227745 
L 294.596136 506.563494 
L 295.818598 506.787491 
L 297.041059 506.168998 
L 299.485983 503.610884 
L 300.708444 503.120574 
L 301.930906 503.617011 
L 303.153368 504.792166 
L 304.375829 506.141423 
L 305.598291 507.273005 
L 306.820753 508.023483 
L 308.043214 508.3856 
L 309.265676 508.309018 
L 310.488138 507.586576 
L 311.710599 506.126995 
L 312.933061 504.355525 
L 314.155523 503.054154 
L 315.377985 502.726178 
L 316.600446 503.267662 
L 319.04537 505.06629 
L 320.267831 505.670645 
L 321.490293 506.041245 
L 322.712755 506.183561 
L 323.935216 505.876295 
L 325.157678 504.899693 
L 326.38014 503.492372 
L 327.602601 502.310902 
L 328.825063 501.853372 
L 330.047525 502.106182 
L 331.269986 502.753812 
L 334.937371 505.108236 
L 336.159833 505.735565 
L 337.382295 506.163649 
L 338.604756 506.377708 
L 339.827218 506.324028 
L 341.04968 505.596694 
L 342.272141 503.224603 
L 343.494603 498.488156 
L 344.717065 492.355413 
L 345.939526 487.401023 
L 347.161988 485.839548 
L 348.38445 487.937635 
L 352.051835 500.818511 
L 353.274297 503.44385 
L 354.496758 504.817307 
L 355.71922 503.923918 
L 356.941682 497.271296 
L 358.164143 480.960947 
L 360.609067 434.102384 
L 361.831528 423.160819 
L 363.05399 426.729975 
L 364.276452 439.101054 
L 365.498913 450.299428 
L 366.721375 451.635723 
L 367.943837 441.243201 
L 369.166298 425.728028 
L 370.38876 414.890892 
L 371.611222 414.681172 
L 372.833683 424.870217 
L 376.501068 473.330841 
L 377.72353 483.907947 
L 378.945992 490.60693 
L 380.168453 494.52851 
L 381.390915 496.747119 
L 382.613377 497.947913 
L 383.835839 498.50322 
L 386.280762 498.966388 
L 388.725685 499.848211 
L 389.948147 499.873673 
L 391.170609 499.076844 
L 393.615532 496.247355 
L 394.837994 495.814791 
L 396.060455 496.560585 
L 398.505379 499.608663 
L 399.72784 500.580039 
L 400.950302 500.842487 
L 403.395225 500.449764 
L 404.617687 500.477523 
L 405.840149 500.830314 
L 409.507534 502.535323 
L 410.729995 502.834447 
L 413.174919 502.980949 
L 415.619842 502.820763 
L 416.842304 502.594954 
L 418.064766 502.188966 
L 421.732151 500.422251 
L 422.954612 500.465802 
L 424.177074 500.991893 
L 426.621997 502.486438 
L 427.844459 502.942785 
L 429.066921 503.01309 
L 430.289382 502.67869 
L 431.511844 501.977291 
L 432.734306 500.945104 
L 435.179229 498.209505 
L 436.401691 496.760618 
L 437.624152 495.489218 
L 438.846614 494.75256 
L 440.069076 494.911037 
L 441.291537 495.999184 
L 442.513999 497.61041 
L 443.736461 499.029506 
L 444.958922 499.523973 
L 446.181384 498.837997 
L 447.403846 497.534191 
L 448.626307 496.608078 
L 449.848769 496.69152 
L 451.071231 497.729405 
L 453.516154 500.79642 
L 454.738616 501.999054 
L 455.961078 502.769103 
L 457.183539 503.181038 
L 458.406001 503.314121 
L 459.628463 503.15542 
L 460.850924 502.369525 
L 462.073386 498.478106 
L 463.295848 484.267816 
L 464.518309 451.435251 
L 466.963233 353.301907 
L 468.185694 326.367519 
L 469.408156 330.380734 
L 470.630618 358.856801 
L 473.075541 434.001711 
L 474.298003 461.585521 
L 475.520464 479.353816 
L 476.742926 489.406291 
L 477.965388 494.606636 
L 479.187849 497.271885 
L 480.410311 498.819171 
L 481.632773 499.940003 
L 484.077696 501.74732 
L 486.52262 503.098696 
L 488.967543 504.003481 
L 491.412466 504.58938 
L 493.85739 504.918361 
L 495.079851 504.908613 
L 496.302313 504.714409 
L 498.747236 504.09145 
L 499.969698 504.015435 
L 501.19216 504.240476 
L 504.859545 505.602419 
L 506.082006 505.776827 
L 509.749391 505.950742 
L 513.416776 506.591763 
L 515.8617 506.637865 
L 517.084161 506.513523 
L 518.306623 506.07892 
L 519.529085 504.74498 
L 520.751547 501.878347 
L 523.19647 493.605406 
L 524.418932 491.405728 
L 525.641393 491.817414 
L 526.863855 494.207697 
L 529.308778 500.337982 
L 530.53124 502.720871 
L 531.753702 504.464326 
L 532.976163 505.676615 
L 534.198625 506.502003 
L 535.421087 507.066756 
L 537.86601 507.749927 
L 540.310933 508.149221 
L 543.978318 508.448876 
L 554.980474 508.869242 
L 556.202935 508.751959 
L 559.87032 508.007842 
L 561.092782 508.017457 
L 564.760167 508.550461 
L 569.650014 508.429159 
L 575.762322 509.432372 
L 587.986939 509.831561 
L 595.321709 509.777536 
L 600.211556 509.661358 
L 605.101402 509.752515 
L 611.213711 509.663531 
L 616.103557 509.789735 
L 619.770942 509.710206 
L 622.215866 509.482926 
L 624.660789 509.18675 
L 625.883251 509.14907 
L 628.328174 509.418107 
L 631.995559 510.022171 
L 634.440483 510.183194 
L 649.110023 510.507974 
L 661.33464 510.565164 
L 717.567877 510.641985 
L 721.235262 510.548268 
L 726.125109 510.669122 
L 733.459879 510.83823 
L 744.462034 510.852352 
L 789.693116 510.939767 
L 799.472809 510.888689 
L 816.587273 510.987273 
L 816.587273 510.987273 
" clip-path="url(#paff5ac637e)" style="fill: none; stroke: #0000ff; stroke-width: 1.5; stroke-linecap: square"/>
   </g>
   <g id="line2d_14">
    <path d="M 186.397031 234.013303 
L 186.743965 234.060911 
L 186.743965 233.843526 
L 187.096034 233.887116 
L 187.096034 233.629533 
L 187.445658 233.631705 
L 187.445658 233.265499 
L 187.794304 233.348448 
L 187.794304 232.907385 
L 188.143195 233.146745 
L 188.143195 232.711117 
L 188.489396 232.988539 
L 188.489396 232.495585 
L 188.83413 232.856581 
L 188.83413 232.417919 
L 189.18131 232.778876 
L 189.18131 232.32662 
L 189.529956 232.750006 
L 189.529956 232.270559 
L 189.874934 232.698563 
L 189.874934 232.210322 
L 190.225047 232.680789 
L 190.225047 232.332041 
L 190.574427 232.826795 
L 190.574427 232.39667 
L 190.920383 232.895661 
L 190.920383 232.467195 
L 191.275142 232.88229 
L 191.275142 232.543844 
L 191.623788 232.9725 
L 191.623788 232.563976 
L 191.970234 232.997543 
L 191.970234 232.599877 
L 192.318635 232.960341 
L 192.318635 232.603934 
L 192.665814 233.049741 
L 192.665814 232.695796 
L 193.012749 233.111013 
L 193.012749 232.74815 
L 193.359928 233.13601 
L 193.359928 232.801504 
L 193.708085 233.169447 
L 193.708085 232.890049 
L 194.054286 233.264356 
L 194.054286 232.953821 
L 194.402199 233.277071 
L 194.402199 232.970791 
L 194.753045 233.258042 
L 194.753045 232.981035 
L 195.106337 233.298575 
L 195.106337 233.023216 
L 195.458161 233.340042 
L 195.458161 233.088171 
L 195.807052 233.387214 
L 195.807052 233.110183 
L 196.159365 233.423747 
L 196.159365 233.187186 
L 196.509234 233.441789 
L 196.509234 233.209196 
L 196.856413 233.495912 
L 196.856413 233.247693 
L 197.204081 233.482948 
L 197.204081 233.280591 
L 197.552238 233.538067 
L 197.552238 233.350717 
L 197.903818 233.605486 
L 197.903818 233.432426 
L 198.251242 233.651655 
L 198.251242 233.466513 
L 198.600132 233.665525 
L 198.600132 233.502557 
L 198.949023 233.706496 
L 198.949023 233.54003 
L 199.29938 233.729326 
L 199.29938 233.573533 
L 199.651449 233.73666 
L 199.651449 233.599933 
L 200.010364 233.777351 
L 200.010364 233.641844 
L 200.3639 233.812782 
L 200.3639 233.683302 
L 201.070238 233.856572 
L 201.070238 233.753843 
L 201.773887 233.898481 
L 201.773887 233.789061 
L 202.474358 233.947356 
L 202.474358 233.856494 
L 203.17654 233.965274 
L 203.17654 233.88601 
L 203.87701 233.962771 
L 203.87701 233.887644 
L 204.582371 233.978938 
L 204.582371 233.908834 
L 204.941041 233.995674 
L 204.941041 233.913193 
L 211.326447 234.062127 
L 212.391456 234.074717 
L 212.391456 234.092177 
L 214.526607 234.148767 
L 230.362132 234.208739 
L 278.636899 234.126328 
L 278.636899 234.107553 
L 280.087227 234.070996 
L 280.087227 234.017732 
L 281.180108 234.023636 
L 281.180108 233.951532 
L 282.291326 234.025593 
L 282.291326 233.976846 
L 283.378828 234.051423 
L 283.378828 233.998737 
L 284.829156 234.082258 
L 284.829156 234.039549 
L 286.284864 234.112737 
L 286.284864 234.07312 
L 287.736659 234.11734 
L 287.736659 234.090047 
L 289.186988 234.080387 
L 289.186988 234.045642 
L 291.008455 234.057162 
L 291.008455 234.028456 
L 291.73362 234.023343 
L 291.73362 233.967911 
L 292.821366 234.003797 
L 292.821366 233.926783 
L 293.54653 233.966948 
L 293.54653 233.900919 
L 294.273162 233.963816 
L 294.273162 233.896597 
L 295.360908 233.996618 
L 295.360908 233.947944 
L 296.091451 234.022618 
L 296.091451 233.969043 
L 296.819305 234.001842 
L 296.819305 233.958545 
L 298.269389 234.103231 
L 298.269389 234.083964 
L 299.719962 234.104642 
L 299.719962 234.076384 
L 301.179826 234.102736 
L 301.179826 234.084216 
L 303.709343 234.112527 
L 303.709343 234.087913 
L 306.977961 234.157251 
L 306.977961 234.15201 
L 340.385394 234.20537 
L 345.829994 234.092917 
L 345.829994 234.021965 
L 346.896958 234.017784 
L 346.896958 233.947742 
L 347.247316 234.025911 
L 347.247316 233.936045 
L 349.329657 233.932372 
L 349.329657 233.937962 
L 350.025482 234.013958 
L 350.025482 233.930366 
L 350.72253 234.001134 
L 350.72253 233.92261 
L 351.073621 234.002781 
L 351.073621 233.910313 
L 351.43058 233.960143 
L 351.43058 233.892521 
L 352.493144 233.885161 
L 353.202416 234.008977 
L 353.202416 233.958096 
L 353.915111 234.015227 
L 353.915111 233.938554 
L 354.98941 234.051845 
L 354.98941 233.99018 
L 356.066644 234.052606 
L 356.066644 234.002478 
L 357.156101 234.075235 
L 357.156101 234.024125 
L 358.60643 234.107697 
L 358.60643 234.070735 
L 360.408583 234.127131 
L 361.479215 234.174385 
L 366.708906 234.110736 
L 366.708906 234.116075 
L 368.469495 233.831094 
L 368.469495 233.90407 
L 369.173633 233.781462 
L 369.173633 233.88328 
L 369.875326 233.756551 
L 369.875326 233.862244 
L 370.224706 233.792407 
L 370.224706 233.915875 
L 370.572374 233.858605 
L 370.572374 233.980701 
L 371.271866 233.986038 
L 372.64029 234.10716 
L 373.664224 234.065101 
L 397.788527 234.174892 
L 397.788527 234.161056 
L 397.788527 234.166103 
L 401.01387 234.095827 
L 402.098438 233.920256 
L 403.180072 233.65305 
L 403.180072 233.720664 
L 403.899858 233.53511 
L 403.899858 233.634162 
L 404.618665 233.506504 
L 404.618665 233.643549 
L 404.978558 233.543321 
L 404.978558 233.668447 
L 405.338206 233.578224 
L 405.338206 233.705237 
L 406.059703 233.649979 
L 406.059703 233.758571 
L 406.784623 233.740976 
L 406.784623 233.832881 
L 407.505875 233.816171 
L 407.505875 233.878227 
L 408.226883 233.855179 
L 408.226883 233.898281 
L 409.309984 233.890947 
L 409.309984 233.928023 
L 410.39553 233.960025 
L 410.39553 233.993839 
L 411.492567 234.004829 
L 411.492567 234.033986 
L 413.302788 234.057241 
L 413.302788 234.066863 
L 418.714382 234.079434 
L 418.714382 234.079716 
L 424.122552 234.138699 
L 424.122552 234.13381 
L 438.175972 233.947973 
L 438.175972 233.867978 
L 438.530974 233.758495 
L 438.530974 233.595996 
L 438.885733 233.422418 
L 438.885733 233.142135 
L 439.242692 232.950879 
L 439.242692 232.540004 
L 439.596717 232.288063 
L 439.596717 231.692479 
L 439.950497 231.457293 
L 439.950497 230.701147 
L 440.304277 230.522296 
L 440.304277 229.616151 
L 440.65708 229.737358 
L 440.65708 228.843691 
L 441.010127 229.066124 
L 441.010127 228.214349 
L 441.363174 228.553251 
L 441.363174 227.543597 
L 441.720866 228.171784 
L 441.720866 227.377276 
L 442.073179 228.007228 
L 442.073179 227.415009 
L 442.425004 228.308686 
L 442.425004 227.612904 
L 442.777562 228.459642 
L 442.777562 227.956083 
L 443.130609 228.798492 
L 443.130609 228.192305 
L 443.483656 229.138545 
L 443.483656 228.706099 
L 443.836947 229.562032 
L 443.836947 229.184523 
L 444.190972 230.076973 
L 444.190972 229.718562 
L 444.545486 230.454852 
L 444.545486 230.133594 
L 444.900733 230.885444 
L 444.900733 230.628939 
L 445.257203 231.205911 
L 445.257203 230.936091 
L 445.613673 231.417779 
L 445.613673 231.133924 
L 445.971365 231.589637 
L 445.971365 231.377863 
L 446.69384 232.071036 
L 446.69384 231.861281 
L 447.052266 232.168446 
L 447.052266 231.945655 
L 447.410936 232.207275 
L 447.410936 231.875666 
L 447.770095 232.058034 
L 447.770095 231.610012 
L 448.128766 231.734701 
L 448.128766 231.143919 
L 448.486947 231.125816 
L 448.486947 230.341223 
L 448.844639 230.338053 
L 448.844639 229.287306 
L 449.200131 229.221145 
L 449.200131 228.248004 
L 449.558068 228.458185 
L 449.558068 227.393409 
L 449.911359 227.8534 
L 449.911359 226.954351 
L 450.264895 227.450493 
L 450.264895 226.278023 
L 450.617942 226.954178 
L 450.617942 225.905509 
L 450.972456 226.58445 
L 450.972456 225.669155 
L 451.325258 226.627435 
L 451.325258 225.650659 
L 451.683929 226.816633 
L 451.683929 226.00948 
L 452.037465 227.053503 
L 452.037465 226.371391 
L 452.391245 227.407516 
L 452.391245 226.903335 
L 452.746248 228.06768 
L 452.746248 227.392584 
L 453.101495 228.481525 
L 453.101495 228.105757 
L 453.457476 228.809055 
L 453.457476 228.344551 
L 453.813701 229.361699 
L 453.813701 228.867787 
L 454.170416 229.668643 
L 454.170416 229.270823 
L 454.527619 230.018722 
L 454.527619 229.579771 
L 455.242759 230.67833 
L 455.242759 230.3549 
L 455.600207 230.95296 
L 455.600207 230.757168 
L 455.959122 231.223252 
L 455.959122 231.001232 
L 456.318036 231.488631 
L 456.318036 231.323783 
L 456.683063 231.762164 
L 456.683063 231.562711 
L 457.044179 231.876758 
L 457.044179 231.670862 
L 457.404316 231.984093 
L 457.404316 231.731126 
L 457.765431 232.031975 
L 457.765431 231.856731 
L 458.125813 232.133597 
L 458.125813 231.925352 
L 458.48595 232.212626 
L 458.48595 231.978959 
L 458.84731 232.233867 
L 458.84731 231.961808 
L 459.208425 232.243013 
L 459.208425 231.984439 
L 459.569784 232.253103 
L 459.569784 231.969056 
L 459.9309 232.227263 
L 459.9309 231.931795 
L 460.297394 232.223422 
L 460.297394 231.886915 
L 460.658509 232.13991 
L 460.658509 231.889798 
L 461.020602 232.142617 
L 461.020602 231.878129 
L 461.382206 232.234818 
L 461.382206 231.956698 
L 461.749434 232.216394 
L 461.749434 231.997193 
L 462.11006 232.282555 
L 462.11006 231.975043 
L 462.47093 232.313763 
L 462.47093 232.099013 
L 462.83229 232.39194 
L 462.83229 232.140042 
L 463.192672 232.452778 
L 463.192672 232.17587 
L 463.552076 232.452168 
L 463.552076 232.126677 
L 463.912457 232.381713 
L 463.912457 232.075259 
L 464.27235 232.368606 
L 464.27235 232.026265 
L 464.630776 232.383088 
L 464.630776 232.055463 
L 464.989446 232.3987 
L 464.989446 232.044243 
L 465.349094 232.31602 
L 465.349094 231.738922 
L 465.707276 231.83634 
L 465.707276 230.455738 
L 466.064234 230.209152 
L 466.064234 226.88494 
L 466.417037 225.868706 
L 466.417037 219.203671 
L 466.771306 217.703781 
L 466.771306 206.609277 
L 467.117996 205.499478 
L 467.117996 188.943676 
L 467.455885 190.656481 
L 467.455885 167.546589 
L 467.790839 172.985593 
L 467.790839 143.662629 
L 468.12286 153.562493 
L 468.12286 118.465903 
L 468.456592 135.88444 
L 468.456592 96.408287 
L 468.786901 120.200984 
L 468.786901 80.153429 
L 469.120389 109.609255 
L 469.120389 67.298669 
L 469.450209 100.510959 
L 469.450209 60.200999 
L 469.780273 95.978594 
L 469.780273 54.85583 
L 470.110582 94.660447 
L 470.110582 53.939365 
L 470.439914 94.722094 
L 470.439914 49.932727 
L 470.769489 90.222431 
L 470.769489 52.965418 
L 471.09931 96.225988 
L 471.09931 52.113676 
L 471.428885 100.826951 
L 471.428885 63.502108 
L 471.764084 102.968461 
L 471.764084 64.708051 
L 472.094149 109.643914 
L 472.094149 77.076591 
L 472.424213 118.761069 
L 472.424213 85.285102 
L 472.756234 126.238447 
L 472.756234 98.88939 
L 473.086788 131.729172 
L 473.086788 105.153079 
L 473.418319 140.002513 
L 473.418319 114.383325 
L 473.750584 143.804157 
L 473.750584 121.081732 
L 474.081872 149.006356 
L 474.081872 126.972433 
L 474.414381 154.797188 
L 474.414381 132.682575 
L 474.74738 158.12257 
L 474.74738 138.617654 
L 475.081356 162.520686 
L 475.081356 143.564447 
L 475.41411 167.262213 
L 475.41411 151.250139 
L 475.747842 172.559343 
L 475.747842 155.085809 
L 476.082063 174.824189 
L 476.082063 159.779373 
L 476.417262 177.364253 
L 476.417262 163.017907 
L 476.759307 182.994549 
L 476.759307 169.594889 
L 477.095973 186.292693 
L 477.095973 174.560539 
L 477.433861 189.500328 
L 477.433861 177.954953 
L 477.771505 192.275835 
L 477.771505 182.127789 
L 478.108171 195.093082 
L 478.108171 185.870605 
L 478.445571 198.269537 
L 478.445571 188.310633 
L 478.786393 200.126969 
L 478.786393 190.476539 
L 479.12746 201.421818 
L 479.12746 192.025796 
L 479.466815 203.540854 
L 479.466815 194.165969 
L 479.807882 204.815024 
L 479.807882 196.025349 
L 480.150905 206.199097 
L 480.150905 198.533999 
L 480.492216 208.277758 
L 480.492216 200.613919 
L 480.834261 209.853131 
L 480.834261 202.515243 
L 481.181195 210.703216 
L 481.181195 203.787592 
L 481.52593 211.827177 
L 481.52593 205.069638 
L 481.878977 212.548215 
L 481.878977 206.528602 
L 482.229334 213.436532 
L 482.229334 207.598341 
L 482.575535 214.528059 
L 482.575535 209.60921 
L 482.923937 215.942498 
L 482.923937 211.104725 
L 483.273072 217.369099 
L 483.273072 212.169962 
L 483.621229 217.509049 
L 483.621229 212.56203 
L 483.970853 217.943248 
L 483.970853 213.215029 
L 484.322188 218.789314 
L 484.322188 214.348788 
L 484.672057 219.546635 
L 484.672057 215.361119 
L 485.021926 220.369087 
L 485.021926 216.138404 
L 485.372528 220.721405 
L 485.372528 216.800825 
L 485.723619 221.237152 
L 485.723619 217.240839 
L 486.075199 221.527333 
L 486.075199 218.218326 
L 486.426779 222.28502 
L 486.426779 218.711233 
L 486.783982 222.791316 
L 486.783982 219.512112 
L 487.136295 223.020463 
L 487.136295 219.627322 
L 487.489342 223.323935 
L 487.489342 220.18056 
L 487.842389 223.730939 
L 487.842389 220.70549 
L 488.195681 224.203124 
L 488.195681 221.540455 
L 488.549216 224.836944 
L 488.549216 222.01706 
L 488.903241 225.118619 
L 488.903241 222.473387 
L 489.257022 225.291968 
L 489.257022 222.668642 
L 489.612025 225.63809 
L 489.612025 223.060462 
L 489.968494 225.823586 
L 489.968494 223.395432 
L 490.323008 226.175854 
L 490.323008 223.8443 
L 490.678011 226.64032 
L 490.678011 224.386798 
L 491.033503 226.783581 
L 491.033503 224.685847 
L 491.388995 227.03775 
L 491.388995 224.978938 
L 491.750355 227.360667 
L 491.750355 225.408693 
L 492.106335 227.728048 
L 492.106335 225.803113 
L 492.462072 227.926288 
L 492.462072 226.080678 
L 492.818297 228.149239 
L 492.818297 226.363461 
L 493.17819 228.456907 
L 493.17819 226.824246 
L 493.534904 228.71585 
L 493.534904 227.099887 
L 493.891374 228.808193 
L 493.891374 227.318666 
L 494.248088 228.966748 
L 494.248088 227.448259 
L 494.605536 229.125214 
L 494.605536 227.761507 
L 494.962984 229.287175 
L 494.962984 227.991985 
L 495.32141 229.685084 
L 495.32141 228.321282 
L 495.678613 229.671628 
L 495.678613 228.531031 
L 496.035816 229.862438 
L 496.035816 228.59467 
L 496.394242 230.086241 
L 496.394242 228.832515 
L 496.758047 230.037267 
L 496.758047 229.015522 
L 497.116961 230.245085 
L 497.116961 229.044328 
L 497.474898 230.410287 
L 497.474898 229.368179 
L 497.835035 230.479115 
L 497.835035 229.505671 
L 498.193461 230.691096 
L 498.193461 229.7981 
L 498.551887 230.961033 
L 498.551887 230.031849 
L 498.910802 231.024132 
L 498.910802 230.221119 
L 499.269961 231.137087 
L 499.269961 230.207251 
L 499.628142 231.171464 
L 499.628142 230.302167 
L 499.986812 231.20123 
L 499.986812 230.363571 
L 500.345238 231.253858 
L 500.345238 230.476936 
L 500.702197 231.416184 
L 500.702197 230.594446 
L 501.059889 231.493741 
L 501.059889 230.704218 
L 501.418071 231.625294 
L 501.418071 230.850862 
L 501.781386 231.761606 
L 501.781386 230.991649 
L 502.138834 231.885839 
L 502.138834 231.040577 
L 502.496771 231.892895 
L 502.496771 231.105031 
L 502.855197 231.943364 
L 502.855197 231.213008 
L 503.213133 231.989912 
L 503.213133 231.256388 
L 503.571559 232.060403 
L 503.571559 231.352873 
L 503.930474 232.093424 
L 503.930474 231.405873 
L 504.289633 232.142019 
L 504.289633 231.426432 
L 504.649526 232.099589 
L 504.649526 231.464312 
L 505.009174 232.235646 
L 505.009174 231.579019 
L 505.373712 232.279269 
L 505.373712 231.705051 
L 505.735072 232.310338 
L 505.735072 231.701467 
L 506.096431 232.344095 
L 506.096431 231.752205 
L 506.458036 232.397341 
L 506.458036 231.855038 
L 506.825752 232.464887 
L 506.825752 231.889856 
L 507.187845 232.482391 
L 507.187845 231.894489 
L 507.550427 232.494921 
L 507.550427 231.945775 
L 507.913498 232.532014 
L 507.913498 232.00895 
L 508.276081 232.577707 
L 508.276081 232.029149 
L 508.638663 232.581797 
L 508.638663 232.12039 
L 509.001245 232.666938 
L 509.001245 232.177222 
L 509.363827 232.688776 
L 509.363827 232.221102 
L 509.726654 232.725059 
L 509.726654 232.230941 
L 510.089236 232.728082 
L 510.089236 232.288275 
L 510.451573 232.754396 
L 510.451573 232.279858 
L 510.814156 232.785355 
L 510.814156 232.342343 
L 511.176249 232.835989 
L 511.176249 232.39554 
L 511.538831 232.858308 
L 511.538831 232.448355 
L 511.907281 232.913751 
L 511.907281 232.499904 
L 512.269863 232.952575 
L 512.269863 232.532469 
L 512.63269 232.941338 
L 512.63269 232.555505 
L 512.995516 232.944403 
L 512.995516 232.554136 
L 513.358098 232.995027 
L 513.358098 232.60811 
L 513.72068 232.992397 
L 513.72068 232.635645 
L 514.083263 233.039117 
L 514.083263 232.6607 
L 514.446823 233.058193 
L 514.446823 232.66593 
L 514.81405 233.033375 
L 514.81405 232.666875 
L 515.176877 233.052302 
L 515.176877 232.690412 
L 515.539459 233.091613 
L 515.539459 232.748729 
L 515.902286 233.139604 
L 515.902286 232.768448 
L 516.264868 233.139096 
L 516.264868 232.832681 
L 516.627694 233.17443 
L 516.627694 232.827763 
L 516.995411 233.206873 
L 516.995411 232.865551 
L 517.358237 233.181579 
L 517.358237 232.876964 
L 517.721064 233.200764 
L 517.721064 232.89072 
L 518.083891 233.235823 
L 518.083891 232.937737 
L 518.446473 233.267411 
L 518.446473 232.955787 
L 518.809055 233.255245 
L 518.809055 232.967636 
L 519.171882 233.268347 
L 519.171882 232.983471 
L 519.534464 233.297408 
L 519.534464 233.011274 
L 519.89729 233.32071 
L 519.89729 233.019679 
L 520.260117 233.301206 
L 520.260117 233.051039 
L 520.622944 233.325384 
L 520.622944 233.05081 
L 520.98577 233.37112 
L 520.98577 233.090349 
L 521.348352 233.365142 
L 521.348352 233.11766 
L 521.711179 233.403084 
L 521.711179 233.14079 
L 522.078895 233.43296 
L 522.078895 233.196254 
L 522.440011 233.474977 
L 522.440011 233.207731 
L 522.799414 233.463761 
L 522.799414 233.258043 
L 523.156862 233.50416 
L 523.156862 233.281309 
L 523.511865 233.540098 
L 523.511865 233.351876 
L 523.864667 233.565947 
L 523.864667 233.349577 
L 524.215269 233.583017 
L 524.215269 233.389074 
L 525.263408 233.376711 
L 525.263408 233.391228 
L 525.610098 233.609388 
L 525.610098 233.448878 
L 525.955077 233.633024 
L 525.955077 233.463654 
L 527.67997 233.451572 
L 527.67997 233.449195 
L 528.02446 233.247882 
L 528.37115 233.471374 
L 528.719796 233.415091 
L 528.719796 233.493084 
L 529.770135 233.497698 
L 530.121471 233.701097 
L 530.121471 233.498081 
L 530.472562 233.694362 
L 530.472562 233.507627 
L 530.824875 233.697053 
L 530.824875 233.521651 
L 531.178411 233.722438 
L 531.178411 233.551299 
L 531.532925 233.731172 
L 531.532925 233.557981 
L 531.892818 233.730861 
L 531.892818 233.579895 
L 532.247332 233.759293 
L 532.247332 233.587874 
L 532.602824 233.753254 
L 532.602824 233.603074 
L 532.959049 233.753131 
L 532.959049 233.603818 
L 533.316008 233.775713 
L 533.316008 233.621248 
L 533.6737 233.768676 
L 533.6737 233.609744 
L 534.03237 233.747755 
L 534.03237 233.586201 
L 534.394219 233.752255 
L 534.394219 233.596054 
L 534.7524 233.746214 
L 534.7524 233.605169 
L 535.111315 233.772876 
L 535.111315 233.617747 
L 535.470474 233.769509 
L 535.470474 233.635029 
L 535.830611 233.794176 
L 535.830611 233.640892 
L 536.191727 233.783278 
L 536.191727 233.644886 
L 536.551619 233.786337 
L 536.551619 233.641709 
L 536.917135 233.790099 
L 536.917135 233.651695 
L 538.001703 233.662838 
L 538.001703 233.685647 
L 538.364285 233.839311 
L 538.364285 233.717894 
L 538.726868 233.853741 
L 538.726868 233.694178 
L 539.089694 233.82221 
L 539.089694 233.691887 
L 539.453743 233.810047 
L 539.453743 233.677814 
L 539.816325 233.823933 
L 539.816325 233.703666 
L 540.54149 233.867163 
L 540.54149 233.752547 
L 540.904072 233.865548 
L 540.904072 233.734843 
L 541.266654 233.84336 
L 541.266654 233.712476 
L 541.997197 233.857365 
L 541.997197 233.741141 
L 542.360024 233.867993 
L 542.360024 233.746973 
L 542.722606 233.870662 
L 542.722606 233.7515 
L 543.44777 233.879076 
L 543.44777 233.759231 
L 544.172934 233.890318 
L 544.172934 233.777351 
L 544.538695 233.886188 
L 544.538695 233.778809 
L 545.263859 233.884776 
L 545.263859 233.786304 
L 545.626441 233.896725 
L 545.626441 233.77836 
L 545.989023 233.895733 
L 545.989023 233.778121 
L 546.351606 233.884735 
L 546.351606 233.767255 
L 547.083616 233.898955 
L 547.083616 233.808274 
L 547.809269 233.938626 
L 547.809269 233.834475 
L 548.171851 233.933102 
L 548.171851 233.816121 
L 548.897015 233.912822 
L 548.897015 233.825581 
L 549.259842 233.948183 
L 549.259842 233.852483 
L 549.985006 233.945732 
L 549.985006 233.837849 
L 550.71017 233.940596 
L 550.71017 233.848606 
L 551.435335 233.950927 
L 551.435335 233.871709 
L 552.166122 233.966752 
L 552.166122 233.86763 
L 552.891287 233.951706 
L 552.891287 233.865654 
L 553.616451 233.960207 
L 553.616451 233.872972 
L 554.346505 233.961987 
L 554.346505 233.880104 
L 555.071669 233.961316 
L 555.071669 233.876177 
L 555.814192 233.979445 
L 555.814192 233.902908 
L 556.539357 233.989493 
L 556.539357 233.90111 
L 557.2699 233.982859 
L 557.2699 233.920104 
L 557.99482 233.995583 
L 557.99482 233.924248 
L 558.71436 233.951669 
L 559.739028 233.931792 
L 560.406003 234.035948 
L 564.049428 234.099895 
L 580.948249 234.047501 
L 582.024015 234.095606 
L 582.024015 234.042115 
L 583.112006 234.09471 
L 583.112006 234.042345 
L 584.19853 234.059449 
L 590.367805 234.050109 
L 591.456774 234.075546 
L 591.456774 234.046338 
L 592.181938 234.05472 
L 596.904308 234.095981 
L 596.904308 234.055965 
L 597.997433 234.101547 
L 597.997433 234.06513 
L 599.447762 234.102935 
L 599.447762 234.061991 
L 600.172926 234.101763 
L 600.172926 234.061055 
L 662.571037 234.074561 
L 663.664163 234.057768 
L 665.114491 234.045052 
L 675.978997 234.074075 
L 677.767214 234.135438 
L 679.198717 234.10269 
L 684.890009 234.105722 
L 693.720339 234.090093 
L 696.1858 234.118292 
L 700.756828 234.102308 
L 704.977988 234.073834 
L 718.899382 234.061248 
L 718.899382 234.001264 
L 719.613055 234.0623 
L 719.613055 233.998907 
L 720.325995 234.081385 
L 720.325995 234.02364 
L 722.814927 234.002427 
L 723.531289 233.959216 
L 724.591653 234.015612 
L 726.002129 233.886521 
L 729.168305 233.62857 
L 730.920337 233.644942 
L 732.668701 233.77313 
L 735.81434 233.524699 
L 736.162741 233.642077 
L 736.162741 233.611496 
L 737.208191 233.467367 
L 737.903771 233.210753 
L 739.300556 232.823272 
L 739.64798 232.652581 
L 740.343071 231.891875 
L 740.690984 231.358485 
L 741.385342 229.547565 
L 742.427613 225.117458 
L 744.172799 215.284163 
L 744.866913 213.439472 
L 745.214826 213.457448 
L 745.562005 213.256932 
L 745.909428 213.766861 
L 746.256852 214.047823 
L 747.297411 217.902292 
L 749.037952 224.656881 
L 750.078267 227.227724 
L 751.463072 229.456509 
L 752.155474 230.175957 
L 753.197745 230.760579 
L 754.587684 231.103463 
L 755.625798 231.581359 
L 756.664646 232.028889 
L 758.049206 232.308704 
L 758.742587 232.357319 
L 760.48435 232.618484 
L 761.181887 232.757614 
L 762.232715 232.857534 
L 762.583072 233.17042 
L 763.636101 233.335564 
L 763.993304 233.139192 
L 766.813523 233.561034 
L 767.165836 233.40935 
L 768.582425 233.525221 
L 771.066712 233.750881 
L 772.126341 233.841079 
L 772.126341 233.866165 
L 772.831702 233.987255 
L 773.895733 233.829327 
L 777.76678 234.008886 
L 778.467739 233.984002 
L 812.201569 234.183128 
L 812.201569 234.172632 
" clip-path="url(#paff5ac637e)" style="fill: none; stroke: #008000; stroke-width: 1.5; stroke-linecap: square"/>
   </g>
   <g id="patch_3">
    <path d="M 47.72 534.04 
L 47.72 26.88 
" style="fill: none; stroke: #000000; stroke-width: 0.8; stroke-linejoin: miter; stroke-linecap: square"/>
   </g>
   <g id="patch_4">
    <path d="M 853.2 534.04 
L 853.2 26.88 
" style="fill: none; stroke: #000000; stroke-width: 0.8; stroke-linejoin: miter; stroke-linecap: square"/>
   </g>
   <g id="patch_5">
    <path d="M 47.72 534.04 
L 853.2 534.04 
" style="fill: none; stroke: #000000; stroke-width: 0.8; stroke-linejoin: miter; stroke-linecap: square"/>
   </g>
   <g id="patch_6">
    <path d="M 47.72 26.88 
L 853.2 26.88 
" style="fill: none; stroke: #000000; stroke-width: 0.8; stroke-linejoin: miter; stroke-linecap: square"/>
   </g>
   <g id="patch_7">
    <path d="M 538.741349 345.723913 
Q 512.590055 351.55307 486.438761 357.382228 
L 487.309009 361.286414 
Q 480.801731 359.663271 474.294452 358.040128 
Q 479.496358 353.806992 484.698265 349.573856 
L 485.568513 353.478042 
Q 511.719807 347.648884 537.8711 341.819727 
L 538.741349 345.723913 
z
" style="stroke: #000000; stroke-linecap: round"/>
   </g>
   <g id="text_15">
    <!-- Peak: RT=2.64, Area=1.66e+04 -->
    <g style="fill: #ff0000" transform="translate(543.978318 329.230003) scale(0.1 -0.1)">
     <defs>
      <path id="DejaVuSans-50" d="M 1259 4147 
L 1259 2394 
L 2053 2394 
Q 2494 2394 2734 2622 
Q 2975 2850 2975 3272 
Q 2975 3691 2734 3919 
Q 2494 4147 2053 4147 
L 1259 4147 
z
M 628 4666 
L 2053 4666 
Q 2838 4666 3239 4311 
Q 3641 3956 3641 3272 
Q 3641 2581 3239 2228 
Q 2838 1875 2053 1875 
L 1259 1875 
L 1259 0 
L 628 0 
L 628 4666 
z
" transform="scale(0.015625)"/>
      <path id="DejaVuSans-6b" d="M 581 4863 
L 1159 4863 
L 1159 1991 
L 2875 3500 
L 3609 3500 
L 1753 1863 
L 3688 0 
L 2938 0 
L 1159 1709 
L 1159 0 
L 581 0 
L 581 4863 
z
" transform="scale(0.015625)"/>
      <path id="DejaVuSans-3a" d="M 750 794 
L 1409 794 
L 1409 0 
L 750 0 
L 750 794 
z
M 750 3309 
L 1409 3309 
L 1409 2516 
L 750 2516 
L 750 3309 
z
" transform="scale(0.015625)"/>
      <path id="DejaVuSans-3d" d="M 678 2906 
L 4684 2906 
L 4684 2381 
L 678 2381 
L 678 2906 
z
M 678 1631 
L 4684 1631 
L 4684 1100 
L 678 1100 
L 678 1631 
z
" transform="scale(0.015625)"/>
      <path id="DejaVuSans-36" d="M 2113 2584 
Q 1688 2584 1439 2293 
Q 1191 2003 1191 1497 
Q 1191 994 1439 701 
Q 1688 409 2113 409 
Q 2538 409 2786 701 
Q 3034 994 3034 1497 
Q 3034 2003 2786 2293 
Q 2538 2584 2113 2584 
z
M 3366 4563 
L 3366 3988 
Q 3128 4100 2886 4159 
Q 2644 4219 2406 4219 
Q 1781 4219 1451 3797 
Q 1122 3375 1075 2522 
Q 1259 2794 1537 2939 
Q 1816 3084 2150 3084 
Q 2853 3084 3261 2657 
Q 3669 2231 3669 1497 
Q 3669 778 3244 343 
Q 2819 -91 2113 -91 
Q 1303 -91 875 529 
Q 447 1150 447 2328 
Q 447 3434 972 4092 
Q 1497 4750 2381 4750 
Q 2619 4750 2861 4703 
Q 3103 4656 3366 4563 
z
" transform="scale(0.015625)"/>
      <path id="DejaVuSans-2c" d="M 750 794 
L 1409 794 
L 1409 256 
L 897 -744 
L 494 -744 
L 750 256 
L 750 794 
z
" transform="scale(0.015625)"/>
      <path id="DejaVuSans-41" d="M 2188 4044 
L 1331 1722 
L 3047 1722 
L 2188 4044 
z
M 1831 4666 
L 2547 4666 
L 4325 0 
L 3669 0 
L 3244 1197 
L 1141 1197 
L 716 0 
L 50 0 
L 1831 4666 
z
" transform="scale(0.015625)"/>
      <path id="DejaVuSans-2b" d="M 2944 4013 
L 2944 2272 
L 4684 2272 
L 4684 1741 
L 2944 1741 
L 2944 0 
L 2419 0 
L 2419 1741 
L 678 1741 
L 678 2272 
L 2419 2272 
L 2419 4013 
L 2944 4013 
z
" transform="scale(0.015625)"/>
     </defs>
     <use xlink:href="#DejaVuSans-50"/>
     <use xlink:href="#DejaVuSans-65" transform="translate(56.677734 0)"/>
     <use xlink:href="#DejaVuSans-61" transform="translate(118.201172 0)"/>
     <use xlink:href="#DejaVuSans-6b" transform="translate(179.480469 0)"/>
     <use xlink:href="#DejaVuSans-3a" transform="translate(237.390625 0)"/>
     <use xlink:href="#DejaVuSans-20" transform="translate(271.082031 0)"/>
     <use xlink:href="#DejaVuSans-52" transform="translate(302.869141 0)"/>
     <use xlink:href="#DejaVuSans-54" transform="translate(365.101562 0)"/>
     <use xlink:href="#DejaVuSans-3d" transform="translate(426.185547 0)"/>
     <use xlink:href="#DejaVuSans-32" transform="translate(509.974609 0)"/>
     <use xlink:href="#DejaVuSans-2e" transform="translate(573.597656 0)"/>
     <use xlink:href="#DejaVuSans-36" transform="translate(605.384766 0)"/>
     <use xlink:href="#DejaVuSans-34" transform="translate(669.007812 0)"/>
     <use xlink:href="#DejaVuSans-2c" transform="translate(732.630859 0)"/>
     <use xlink:href="#DejaVuSans-20" transform="translate(764.417969 0)"/>
     <use xlink:href="#DejaVuSans-41" transform="translate(796.205078 0)"/>
     <use xlink:href="#DejaVuSans-72" transform="translate(864.613281 0)"/>
     <use xlink:href="#DejaVuSans-65" transform="translate(903.476562 0)"/>
     <use xlink:href="#DejaVuSans-61" transform="translate(965 0)"/>
     <use xlink:href="#DejaVuSans-3d" transform="translate(1026.279297 0)"/>
     <use xlink:href="#DejaVuSans-31" transform="translate(1110.068359 0)"/>
     <use xlink:href="#DejaVuSans-2e" transform="translate(1173.691406 0)"/>
     <use xlink:href="#DejaVuSans-36" transform="translate(1205.478516 0)"/>
     <use xlink:href="#DejaVuSans-36" transform="translate(1269.101562 0)"/>
     <use xlink:href="#DejaVuSans-65" transform="translate(1332.724609 0)"/>
     <use xlink:href="#DejaVuSans-2b" transform="translate(1394.248047 0)"/>
     <use xlink:href="#DejaVuSans-30" transform="translate(1478.037109 0)"/>
     <use xlink:href="#DejaVuSans-34" transform="translate(1541.660156 0)"/>
    </g>
    <!-- (37.31% of total) -->
    <g style="fill: #ff0000" transform="translate(543.978318 340.427815) scale(0.1 -0.1)">
     <defs>
      <path id="DejaVuSans-37" d="M 525 4666 
L 3525 4666 
L 3525 4397 
L 1831 0 
L 1172 0 
L 2766 4134 
L 525 4134 
L 525 4666 
z
" transform="scale(0.015625)"/>
      <path id="DejaVuSans-25" d="M 4653 2053 
Q 4381 2053 4226 1822 
Q 4072 1591 4072 1178 
Q 4072 772 4226 539 
Q 4381 306 4653 306 
Q 4919 306 5073 539 
Q 5228 772 5228 1178 
Q 5228 1588 5073 1820 
Q 4919 2053 4653 2053 
z
M 4653 2450 
Q 5147 2450 5437 2106 
Q 5728 1763 5728 1178 
Q 5728 594 5436 251 
Q 5144 -91 4653 -91 
Q 4153 -91 3862 251 
Q 3572 594 3572 1178 
Q 3572 1766 3864 2108 
Q 4156 2450 4653 2450 
z
M 1428 4353 
Q 1159 4353 1004 4120 
Q 850 3888 850 3481 
Q 850 3069 1003 2837 
Q 1156 2606 1428 2606 
Q 1700 2606 1854 2837 
Q 2009 3069 2009 3481 
Q 2009 3884 1853 4118 
Q 1697 4353 1428 4353 
z
M 4250 4750 
L 4750 4750 
L 1831 -91 
L 1331 -91 
L 4250 4750 
z
M 1428 4750 
Q 1922 4750 2215 4408 
Q 2509 4066 2509 3481 
Q 2509 2891 2217 2550 
Q 1925 2209 1428 2209 
Q 931 2209 642 2551 
Q 353 2894 353 3481 
Q 353 4063 643 4406 
Q 934 4750 1428 4750 
z
" transform="scale(0.015625)"/>
      <path id="DejaVuSans-66" d="M 2375 4863 
L 2375 4384 
L 1825 4384 
Q 1516 4384 1395 4259 
Q 1275 4134 1275 3809 
L 1275 3500 
L 2222 3500 
L 2222 3053 
L 1275 3053 
L 1275 0 
L 697 0 
L 697 3053 
L 147 3053 
L 147 3500 
L 697 3500 
L 697 3744 
Q 697 4328 969 4595 
Q 1241 4863 1831 4863 
L 2375 4863 
z
" transform="scale(0.015625)"/>
     </defs>
     <use xlink:href="#DejaVuSans-28"/>
     <use xlink:href="#DejaVuSans-33" transform="translate(39.013672 0)"/>
     <use xlink:href="#DejaVuSans-37" transform="translate(102.636719 0)"/>
     <use xlink:href="#DejaVuSans-2e" transform="translate(166.259766 0)"/>
     <use xlink:href="#DejaVuSans-33" transform="translate(198.046875 0)"/>
     <use xlink:href="#DejaVuSans-31" transform="translate(261.669922 0)"/>
     <use xlink:href="#DejaVuSans-25" transform="translate(325.292969 0)"/>
     <use xlink:href="#DejaVuSans-20" transform="translate(420.3125 0)"/>
     <use xlink:href="#DejaVuSans-6f" transform="translate(452.099609 0)"/>
     <use xlink:href="#DejaVuSans-66" transform="translate(513.28125 0)"/>
     <use xlink:href="#DejaVuSans-20" transform="translate(548.486328 0)"/>
     <use xlink:href="#DejaVuSans-74" transform="translate(580.273438 0)"/>
     <use xlink:href="#DejaVuSans-6f" transform="translate(619.482422 0)"/>
     <use xlink:href="#DejaVuSans-74" transform="translate(680.664062 0)"/>
     <use xlink:href="#DejaVuSans-61" transform="translate(719.873047 0)"/>
     <use xlink:href="#DejaVuSans-6c" transform="translate(781.152344 0)"/>
     <use xlink:href="#DejaVuSans-29" transform="translate(808.935547 0)"/>
    </g>
   </g>
   <g id="text_16">
    <!-- UV &amp; MS Chromatograms: IrCp1K23, target m/z=621.1381414 -->
    <g transform="translate(262.477188 20.88) scale(0.12 -0.12)">
     <defs>
      <path id="DejaVuSans-55" d="M 556 4666 
L 1191 4666 
L 1191 1831 
Q 1191 1081 1462 751 
Q 1734 422 2344 422 
Q 2950 422 3222 751 
Q 3494 1081 3494 1831 
L 3494 4666 
L 4128 4666 
L 4128 1753 
Q 4128 841 3676 375 
Q 3225 -91 2344 -91 
Q 1459 -91 1007 375 
Q 556 841 556 1753 
L 556 4666 
z
" transform="scale(0.015625)"/>
      <path id="DejaVuSans-56" d="M 1831 0 
L 50 4666 
L 709 4666 
L 2188 738 
L 3669 4666 
L 4325 4666 
L 2547 0 
L 1831 0 
z
" transform="scale(0.015625)"/>
      <path id="DejaVuSans-26" d="M 1556 2509 
Q 1272 2256 1139 2004 
Q 1006 1753 1006 1478 
Q 1006 1022 1337 719 
Q 1669 416 2169 416 
Q 2466 416 2725 514 
Q 2984 613 3213 813 
L 1556 2509 
z
M 1997 2859 
L 3584 1234 
Q 3769 1513 3872 1830 
Q 3975 2147 3994 2503 
L 4575 2503 
Q 4538 2091 4375 1687 
Q 4213 1284 3922 891 
L 4794 0 
L 4006 0 
L 3559 459 
Q 3234 181 2878 45 
Q 2522 -91 2113 -91 
Q 1359 -91 881 339 
Q 403 769 403 1441 
Q 403 1841 612 2192 
Q 822 2544 1241 2853 
Q 1091 3050 1012 3245 
Q 934 3441 934 3628 
Q 934 4134 1281 4442 
Q 1628 4750 2203 4750 
Q 2463 4750 2720 4694 
Q 2978 4638 3244 4525 
L 3244 3956 
Q 2972 4103 2725 4179 
Q 2478 4256 2266 4256 
Q 1938 4256 1733 4082 
Q 1528 3909 1528 3634 
Q 1528 3475 1620 3314 
Q 1713 3153 1997 2859 
z
" transform="scale(0.015625)"/>
      <path id="DejaVuSans-4d" d="M 628 4666 
L 1569 4666 
L 2759 1491 
L 3956 4666 
L 4897 4666 
L 4897 0 
L 4281 0 
L 4281 4097 
L 3078 897 
L 2444 897 
L 1241 4097 
L 1241 0 
L 628 0 
L 628 4666 
z
" transform="scale(0.015625)"/>
      <path id="DejaVuSans-53" d="M 3425 4513 
L 3425 3897 
Q 3066 4069 2747 4153 
Q 2428 4238 2131 4238 
Q 1616 4238 1336 4038 
Q 1056 3838 1056 3469 
Q 1056 3159 1242 3001 
Q 1428 2844 1947 2747 
L 2328 2669 
Q 3034 2534 3370 2195 
Q 3706 1856 3706 1288 
Q 3706 609 3251 259 
Q 2797 -91 1919 -91 
Q 1588 -91 1214 -16 
Q 841 59 441 206 
L 441 856 
Q 825 641 1194 531 
Q 1563 422 1919 422 
Q 2459 422 2753 634 
Q 3047 847 3047 1241 
Q 3047 1584 2836 1778 
Q 2625 1972 2144 2069 
L 1759 2144 
Q 1053 2284 737 2584 
Q 422 2884 422 3419 
Q 422 4038 858 4394 
Q 1294 4750 2059 4750 
Q 2388 4750 2728 4690 
Q 3069 4631 3425 4513 
z
" transform="scale(0.015625)"/>
      <path id="DejaVuSans-43" d="M 4122 4306 
L 4122 3641 
Q 3803 3938 3442 4084 
Q 3081 4231 2675 4231 
Q 1875 4231 1450 3742 
Q 1025 3253 1025 2328 
Q 1025 1406 1450 917 
Q 1875 428 2675 428 
Q 3081 428 3442 575 
Q 3803 722 4122 1019 
L 4122 359 
Q 3791 134 3420 21 
Q 3050 -91 2638 -91 
Q 1578 -91 968 557 
Q 359 1206 359 2328 
Q 359 3453 968 4101 
Q 1578 4750 2638 4750 
Q 3056 4750 3426 4639 
Q 3797 4528 4122 4306 
z
" transform="scale(0.015625)"/>
      <path id="DejaVuSans-68" d="M 3513 2113 
L 3513 0 
L 2938 0 
L 2938 2094 
Q 2938 2591 2744 2837 
Q 2550 3084 2163 3084 
Q 1697 3084 1428 2787 
Q 1159 2491 1159 1978 
L 1159 0 
L 581 0 
L 581 4863 
L 1159 4863 
L 1159 2956 
Q 1366 3272 1645 3428 
Q 1925 3584 2291 3584 
Q 2894 3584 3203 3211 
Q 3513 2838 3513 2113 
z
" transform="scale(0.015625)"/>
      <path id="DejaVuSans-67" d="M 2906 1791 
Q 2906 2416 2648 2759 
Q 2391 3103 1925 3103 
Q 1463 3103 1205 2759 
Q 947 2416 947 1791 
Q 947 1169 1205 825 
Q 1463 481 1925 481 
Q 2391 481 2648 825 
Q 2906 1169 2906 1791 
z
M 3481 434 
Q 3481 -459 3084 -895 
Q 2688 -1331 1869 -1331 
Q 1566 -1331 1297 -1286 
Q 1028 -1241 775 -1147 
L 775 -588 
Q 1028 -725 1275 -790 
Q 1522 -856 1778 -856 
Q 2344 -856 2625 -561 
Q 2906 -266 2906 331 
L 2906 616 
Q 2728 306 2450 153 
Q 2172 0 1784 0 
Q 1141 0 747 490 
Q 353 981 353 1791 
Q 353 2603 747 3093 
Q 1141 3584 1784 3584 
Q 2172 3584 2450 3431 
Q 2728 3278 2906 2969 
L 2906 3500 
L 3481 3500 
L 3481 434 
z
" transform="scale(0.015625)"/>
      <path id="DejaVuSans-70" d="M 1159 525 
L 1159 -1331 
L 581 -1331 
L 581 3500 
L 1159 3500 
L 1159 2969 
Q 1341 3281 1617 3432 
Q 1894 3584 2278 3584 
Q 2916 3584 3314 3078 
Q 3713 2572 3713 1747 
Q 3713 922 3314 415 
Q 2916 -91 2278 -91 
Q 1894 -91 1617 61 
Q 1341 213 1159 525 
z
M 3116 1747 
Q 3116 2381 2855 2742 
Q 2594 3103 2138 3103 
Q 1681 3103 1420 2742 
Q 1159 2381 1159 1747 
Q 1159 1113 1420 752 
Q 1681 391 2138 391 
Q 2594 391 2855 752 
Q 3116 1113 3116 1747 
z
" transform="scale(0.015625)"/>
      <path id="DejaVuSans-4b" d="M 628 4666 
L 1259 4666 
L 1259 2694 
L 3353 4666 
L 4166 4666 
L 1850 2491 
L 4331 0 
L 3500 0 
L 1259 2247 
L 1259 0 
L 628 0 
L 628 4666 
z
" transform="scale(0.015625)"/>
      <path id="DejaVuSans-2f" d="M 1625 4666 
L 2156 4666 
L 531 -594 
L 0 -594 
L 1625 4666 
z
" transform="scale(0.015625)"/>
      <path id="DejaVuSans-38" d="M 2034 2216 
Q 1584 2216 1326 1975 
Q 1069 1734 1069 1313 
Q 1069 891 1326 650 
Q 1584 409 2034 409 
Q 2484 409 2743 651 
Q 3003 894 3003 1313 
Q 3003 1734 2745 1975 
Q 2488 2216 2034 2216 
z
M 1403 2484 
Q 997 2584 770 2862 
Q 544 3141 544 3541 
Q 544 4100 942 4425 
Q 1341 4750 2034 4750 
Q 2731 4750 3128 4425 
Q 3525 4100 3525 3541 
Q 3525 3141 3298 2862 
Q 3072 2584 2669 2484 
Q 3125 2378 3379 2068 
Q 3634 1759 3634 1313 
Q 3634 634 3220 271 
Q 2806 -91 2034 -91 
Q 1263 -91 848 271 
Q 434 634 434 1313 
Q 434 1759 690 2068 
Q 947 2378 1403 2484 
z
M 1172 3481 
Q 1172 3119 1398 2916 
Q 1625 2713 2034 2713 
Q 2441 2713 2670 2916 
Q 2900 3119 2900 3481 
Q 2900 3844 2670 4047 
Q 2441 4250 2034 4250 
Q 1625 4250 1398 4047 
Q 1172 3844 1172 3481 
z
" transform="scale(0.015625)"/>
     </defs>
     <use xlink:href="#DejaVuSans-55"/>
     <use xlink:href="#DejaVuSans-56" transform="translate(73.193359 0)"/>
     <use xlink:href="#DejaVuSans-20" transform="translate(141.601562 0)"/>
     <use xlink:href="#DejaVuSans-26" transform="translate(173.388672 0)"/>
     <use xlink:href="#DejaVuSans-20" transform="translate(251.367188 0)"/>
     <use xlink:href="#DejaVuSans-4d" transform="translate(283.154297 0)"/>
     <use xlink:href="#DejaVuSans-53" transform="translate(369.433594 0)"/>
     <use xlink:href="#DejaVuSans-20" transform="translate(432.910156 0)"/>
     <use xlink:href="#DejaVuSans-43" transform="translate(464.697266 0)"/>
     <use xlink:href="#DejaVuSans-68" transform="translate(534.521484 0)"/>
     <use xlink:href="#DejaVuSans-72" transform="translate(597.900391 0)"/>
     <use xlink:href="#DejaVuSans-6f" transform="translate(636.763672 0)"/>
     <use xlink:href="#DejaVuSans-6d" transform="translate(697.945312 0)"/>
     <use xlink:href="#DejaVuSans-61" transform="translate(795.357422 0)"/>
     <use xlink:href="#DejaVuSans-74" transform="translate(856.636719 0)"/>
     <use xlink:href="#DejaVuSans-6f" transform="translate(895.845703 0)"/>
     <use xlink:href="#DejaVuSans-67" transform="translate(957.027344 0)"/>
     <use xlink:href="#DejaVuSans-72" transform="translate(1020.503906 0)"/>
     <use xlink:href="#DejaVuSans-61" transform="translate(1061.617188 0)"/>
     <use xlink:href="#DejaVuSans-6d" transform="translate(1122.896484 0)"/>
     <use xlink:href="#DejaVuSans-73" transform="translate(1220.308594 0)"/>
     <use xlink:href="#DejaVuSans-3a" transform="translate(1272.408203 0)"/>
     <use xlink:href="#DejaVuSans-20" transform="translate(1306.099609 0)"/>
     <use xlink:href="#DejaVuSans-49" transform="translate(1337.886719 0)"/>
     <use xlink:href="#DejaVuSans-72" transform="translate(1367.378906 0)"/>
     <use xlink:href="#DejaVuSans-43" transform="translate(1408.492188 0)"/>
     <use xlink:href="#DejaVuSans-70" transform="translate(1478.316406 0)"/>
     <use xlink:href="#DejaVuSans-31" transform="translate(1541.792969 0)"/>
     <use xlink:href="#DejaVuSans-4b" transform="translate(1605.416016 0)"/>
     <use xlink:href="#DejaVuSans-32" transform="translate(1670.992188 0)"/>
     <use xlink:href="#DejaVuSans-33" transform="translate(1734.615234 0)"/>
     <use xlink:href="#DejaVuSans-2c" transform="translate(1798.238281 0)"/>
     <use xlink:href="#DejaVuSans-20" transform="translate(1830.025391 0)"/>
     <use xlink:href="#DejaVuSans-74" transform="translate(1861.8125 0)"/>
     <use xlink:href="#DejaVuSans-61" transform="translate(1901.021484 0)"/>
     <use xlink:href="#DejaVuSans-72" transform="translate(1962.300781 0)"/>
     <use xlink:href="#DejaVuSans-67" transform="translate(2001.664062 0)"/>
     <use xlink:href="#DejaVuSans-65" transform="translate(2065.140625 0)"/>
     <use xlink:href="#DejaVuSans-74" transform="translate(2126.664062 0)"/>
     <use xlink:href="#DejaVuSans-20" transform="translate(2165.873047 0)"/>
     <use xlink:href="#DejaVuSans-6d" transform="translate(2197.660156 0)"/>
     <use xlink:href="#DejaVuSans-2f" transform="translate(2295.072266 0)"/>
     <use xlink:href="#DejaVuSans-7a" transform="translate(2328.763672 0)"/>
     <use xlink:href="#DejaVuSans-3d" transform="translate(2381.253906 0)"/>
     <use xlink:href="#DejaVuSans-36" transform="translate(2465.042969 0)"/>
     <use xlink:href="#DejaVuSans-32" transform="translate(2528.666016 0)"/>
     <use xlink:href="#DejaVuSans-31" transform="translate(2592.289062 0)"/>
     <use xlink:href="#DejaVuSans-2e" transform="translate(2655.912109 0)"/>
     <use xlink:href="#DejaVuSans-31" transform="translate(2687.699219 0)"/>
     <use xlink:href="#DejaVuSans-33" transform="translate(2751.322266 0)"/>
     <use xlink:href="#DejaVuSans-38" transform="translate(2814.945312 0)"/>
     <use xlink:href="#DejaVuSans-31" transform="translate(2878.568359 0)"/>
     <use xlink:href="#DejaVuSans-34" transform="translate(2942.191406 0)"/>
     <use xlink:href="#DejaVuSans-31" transform="translate(3005.814453 0)"/>
     <use xlink:href="#DejaVuSans-34" transform="translate(3069.4375 0)"/>
    </g>
   </g>
   <g id="legend_1">
    <g id="patch_8">
     <path d="M 685.971875 64.23625 
L 846.2 64.23625 
Q 848.2 64.23625 848.2 62.23625 
L 848.2 33.88 
Q 848.2 31.88 846.2 31.88 
L 685.971875 31.88 
Q 683.971875 31.88 683.971875 33.88 
L 683.971875 62.23625 
Q 683.971875 64.23625 685.971875 64.23625 
z
" style="fill: #ffffff; opacity: 0.8; stroke: #cccccc; stroke-linejoin: miter"/>
    </g>
    <g id="line2d_15">
     <path d="M 687.971875 39.978437 
L 697.971875 39.978437 
L 707.971875 39.978437 
" style="fill: none; stroke: #0000ff; stroke-width: 1.5; stroke-linecap: square"/>
    </g>
    <g id="text_17">
     <!-- UV Intensity (normalized) -->
     <g transform="translate(715.971875 43.478437) scale(0.1 -0.1)">
      <use xlink:href="#DejaVuSans-55"/>
      <use xlink:href="#DejaVuSans-56" transform="translate(73.193359 0)"/>
      <use xlink:href="#DejaVuSans-20" transform="translate(141.601562 0)"/>
      <use xlink:href="#DejaVuSans-49" transform="translate(173.388672 0)"/>
      <use xlink:href="#DejaVuSans-6e" transform="translate(202.880859 0)"/>
      <use xlink:href="#DejaVuSans-74" transform="translate(266.259766 0)"/>
      <use xlink:href="#DejaVuSans-65" transform="translate(305.46875 0)"/>
      <use xlink:href="#DejaVuSans-6e" transform="translate(366.992188 0)"/>
      <use xlink:href="#DejaVuSans-73" transform="translate(430.371094 0)"/>
      <use xlink:href="#DejaVuSans-69" transform="translate(482.470703 0)"/>
      <use xlink:href="#DejaVuSans-74" transform="translate(510.253906 0)"/>
      <use xlink:href="#DejaVuSans-79" transform="translate(549.462891 0)"/>
      <use xlink:href="#DejaVuSans-20" transform="translate(608.642578 0)"/>
      <use xlink:href="#DejaVuSans-28" transform="translate(640.429688 0)"/>
      <use xlink:href="#DejaVuSans-6e" transform="translate(679.443359 0)"/>
      <use xlink:href="#DejaVuSans-6f" transform="translate(742.822266 0)"/>
      <use xlink:href="#DejaVuSans-72" transform="translate(804.003906 0)"/>
      <use xlink:href="#DejaVuSans-6d" transform="translate(843.367188 0)"/>
      <use xlink:href="#DejaVuSans-61" transform="translate(940.779297 0)"/>
      <use xlink:href="#DejaVuSans-6c" transform="translate(1002.058594 0)"/>
      <use xlink:href="#DejaVuSans-69" transform="translate(1029.841797 0)"/>
      <use xlink:href="#DejaVuSans-7a" transform="translate(1057.625 0)"/>
      <use xlink:href="#DejaVuSans-65" transform="translate(1110.115234 0)"/>
      <use xlink:href="#DejaVuSans-64" transform="translate(1171.638672 0)"/>
      <use xlink:href="#DejaVuSans-29" transform="translate(1235.115234 0)"/>
     </g>
    </g>
    <g id="line2d_16">
     <path d="M 687.971875 54.656562 
L 697.971875 54.656562 
L 707.971875 54.656562 
" style="fill: none; stroke: #008000; stroke-width: 1.5; stroke-linecap: square"/>
    </g>
    <g id="text_18">
     <!-- MS Intensity (normalized) -->
     <g transform="translate(715.971875 58.156562) scale(0.1 -0.1)">
      <use xlink:href="#DejaVuSans-4d"/>
      <use xlink:href="#DejaVuSans-53" transform="translate(86.279297 0)"/>
      <use xlink:href="#DejaVuSans-20" transform="translate(149.755859 0)"/>
      <use xlink:href="#DejaVuSans-49" transform="translate(181.542969 0)"/>
      <use xlink:href="#DejaVuSans-6e" transform="translate(211.035156 0)"/>
      <use xlink:href="#DejaVuSans-74" transform="translate(274.414062 0)"/>
      <use xlink:href="#DejaVuSans-65" transform="translate(313.623047 0)"/>
      <use xlink:href="#DejaVuSans-6e" transform="translate(375.146484 0)"/>
      <use xlink:href="#DejaVuSans-73" transform="translate(438.525391 0)"/>
      <use xlink:href="#DejaVuSans-69" transform="translate(490.625 0)"/>
      <use xlink:href="#DejaVuSans-74" transform="translate(518.408203 0)"/>
      <use xlink:href="#DejaVuSans-79" transform="translate(557.617188 0)"/>
      <use xlink:href="#DejaVuSans-20" transform="translate(616.796875 0)"/>
      <use xlink:href="#DejaVuSans-28" transform="translate(648.583984 0)"/>
      <use xlink:href="#DejaVuSans-6e" transform="translate(687.597656 0)"/>
      <use xlink:href="#DejaVuSans-6f" transform="translate(750.976562 0)"/>
      <use xlink:href="#DejaVuSans-72" transform="translate(812.158203 0)"/>
      <use xlink:href="#DejaVuSans-6d" transform="translate(851.521484 0)"/>
      <use xlink:href="#DejaVuSans-61" transform="translate(948.933594 0)"/>
      <use xlink:href="#DejaVuSans-6c" transform="translate(1010.212891 0)"/>
      <use xlink:href="#DejaVuSans-69" transform="translate(1037.996094 0)"/>
      <use xlink:href="#DejaVuSans-7a" transform="translate(1065.779297 0)"/>
      <use xlink:href="#DejaVuSans-65" transform="translate(1118.269531 0)"/>
      <use xlink:href="#DejaVuSans-64" transform="translate(1179.792969 0)"/>
      <use xlink:href="#DejaVuSans-29" transform="translate(1243.269531 0)"/>
     </g>
    </g>
   </g>
  </g>
 </g>
 <defs>
  <clipPath id="paff5ac637e">
   <rect x="47.72" y="26.88" width="805.48" height="507.16"/>
  </clipPath>
 </defs>
</svg>
