<?xml version="1.0" encoding="utf-8" standalone="no"?>
<!DOCTYPE svg PUBLIC "-//W3C//DTD SVG 1.1//EN"
  "http://www.w3.org/Graphics/SVG/1.1/DTD/svg11.dtd">
<svg xmlns:xlink="http://www.w3.org/1999/xlink" width="864pt" height="576pt" viewBox="0 0 864 576" xmlns="http://www.w3.org/2000/svg" version="1.1">
 <metadata>
  <rdf:RDF xmlns:dc="http://purl.org/dc/elements/1.1/" xmlns:cc="http://creativecommons.org/ns#" xmlns:rdf="http://www.w3.org/1999/02/22-rdf-syntax-ns#">
   <cc:Work>
    <dc:type rdf:resource="http://purl.org/dc/dcmitype/StillImage"/>
    <dc:date>2025-02-06T15:10:23.306438</dc:date>
    <dc:format>image/svg+xml</dc:format>
    <dc:creator>
     <cc:Agent>
      <dc:title>Matplotlib v3.10.0, https://matplotlib.org/</dc:title>
     </cc:Agent>
    </dc:creator>
   </cc:Work>
  </rdf:RDF>
 </metadata>
 <defs>
  <style type="text/css">*{stroke-linejoin: round; stroke-linecap: butt}</style>
 </defs>
 <g id="figure_1">
  <g id="patch_1">
   <path d="M 0 576 
L 864 576 
L 864 0 
L 0 0 
z
" style="fill: #ffffff"/>
  </g>
  <g id="axes_1">
   <g id="patch_2">
    <path d="M 47.72 534.04 
L 853.2 534.04 
L 853.2 26.88 
L 47.72 26.88 
z
" style="fill: #ffffff"/>
   </g>
   <g id="matplotlib.axis_1">
    <g id="xtick_1">
     <g id="line2d_1">
      <defs>
       <path id="mfed32b5855" d="M 0 0 
L 0 3.5 
" style="stroke: #000000; stroke-width: 0.8"/>
      </defs>
      <g>
       <use xlink:href="#mfed32b5855" x="83.098041" y="534.04" style="stroke: #000000; stroke-width: 0.8"/>
      </g>
     </g>
     <g id="text_1">
      <!-- 0 -->
      <g transform="translate(79.916791 548.638438) scale(0.1 -0.1)">
       <defs>
        <path id="DejaVuSans-30" d="M 2034 4250 
Q 1547 4250 1301 3770 
Q 1056 3291 1056 2328 
Q 1056 1369 1301 889 
Q 1547 409 2034 409 
Q 2525 409 2770 889 
Q 3016 1369 3016 2328 
Q 3016 3291 2770 3770 
Q 2525 4250 2034 4250 
z
M 2034 4750 
Q 2819 4750 3233 4129 
Q 3647 3509 3647 2328 
Q 3647 1150 3233 529 
Q 2819 -91 2034 -91 
Q 1250 -91 836 529 
Q 422 1150 422 2328 
Q 422 3509 836 4129 
Q 1250 4750 2034 4750 
z
" transform="scale(0.015625)"/>
       </defs>
       <use xlink:href="#DejaVuSans-30"/>
      </g>
     </g>
    </g>
    <g id="xtick_2">
     <g id="line2d_2">
      <g>
       <use xlink:href="#mfed32b5855" x="229.793442" y="534.04" style="stroke: #000000; stroke-width: 0.8"/>
      </g>
     </g>
     <g id="text_2">
      <!-- 1 -->
      <g transform="translate(226.612192 548.638438) scale(0.1 -0.1)">
       <defs>
        <path id="DejaVuSans-31" d="M 794 531 
L 1825 531 
L 1825 4091 
L 703 3866 
L 703 4441 
L 1819 4666 
L 2450 4666 
L 2450 531 
L 3481 531 
L 3481 0 
L 794 0 
L 794 531 
z
" transform="scale(0.015625)"/>
       </defs>
       <use xlink:href="#DejaVuSans-31"/>
      </g>
     </g>
    </g>
    <g id="xtick_3">
     <g id="line2d_3">
      <g>
       <use xlink:href="#mfed32b5855" x="376.488844" y="534.04" style="stroke: #000000; stroke-width: 0.8"/>
      </g>
     </g>
     <g id="text_3">
      <!-- 2 -->
      <g transform="translate(373.307594 548.638438) scale(0.1 -0.1)">
       <defs>
        <path id="DejaVuSans-32" d="M 1228 531 
L 3431 531 
L 3431 0 
L 469 0 
L 469 531 
Q 828 903 1448 1529 
Q 2069 2156 2228 2338 
Q 2531 2678 2651 2914 
Q 2772 3150 2772 3378 
Q 2772 3750 2511 3984 
Q 2250 4219 1831 4219 
Q 1534 4219 1204 4116 
Q 875 4013 500 3803 
L 500 4441 
Q 881 4594 1212 4672 
Q 1544 4750 1819 4750 
Q 2544 4750 2975 4387 
Q 3406 4025 3406 3419 
Q 3406 3131 3298 2873 
Q 3191 2616 2906 2266 
Q 2828 2175 2409 1742 
Q 1991 1309 1228 531 
z
" transform="scale(0.015625)"/>
       </defs>
       <use xlink:href="#DejaVuSans-32"/>
      </g>
     </g>
    </g>
    <g id="xtick_4">
     <g id="line2d_4">
      <g>
       <use xlink:href="#mfed32b5855" x="523.184245" y="534.04" style="stroke: #000000; stroke-width: 0.8"/>
      </g>
     </g>
     <g id="text_4">
      <!-- 3 -->
      <g transform="translate(520.002995 548.638438) scale(0.1 -0.1)">
       <defs>
        <path id="DejaVuSans-33" d="M 2597 2516 
Q 3050 2419 3304 2112 
Q 3559 1806 3559 1356 
Q 3559 666 3084 287 
Q 2609 -91 1734 -91 
Q 1441 -91 1130 -33 
Q 819 25 488 141 
L 488 750 
Q 750 597 1062 519 
Q 1375 441 1716 441 
Q 2309 441 2620 675 
Q 2931 909 2931 1356 
Q 2931 1769 2642 2001 
Q 2353 2234 1838 2234 
L 1294 2234 
L 1294 2753 
L 1863 2753 
Q 2328 2753 2575 2939 
Q 2822 3125 2822 3475 
Q 2822 3834 2567 4026 
Q 2313 4219 1838 4219 
Q 1578 4219 1281 4162 
Q 984 4106 628 3988 
L 628 4550 
Q 988 4650 1302 4700 
Q 1616 4750 1894 4750 
Q 2613 4750 3031 4423 
Q 3450 4097 3450 3541 
Q 3450 3153 3228 2886 
Q 3006 2619 2597 2516 
z
" transform="scale(0.015625)"/>
       </defs>
       <use xlink:href="#DejaVuSans-33"/>
      </g>
     </g>
    </g>
    <g id="xtick_5">
     <g id="line2d_5">
      <g>
       <use xlink:href="#mfed32b5855" x="669.879647" y="534.04" style="stroke: #000000; stroke-width: 0.8"/>
      </g>
     </g>
     <g id="text_5">
      <!-- 4 -->
      <g transform="translate(666.698397 548.638438) scale(0.1 -0.1)">
       <defs>
        <path id="DejaVuSans-34" d="M 2419 4116 
L 825 1625 
L 2419 1625 
L 2419 4116 
z
M 2253 4666 
L 3047 4666 
L 3047 1625 
L 3713 1625 
L 3713 1100 
L 3047 1100 
L 3047 0 
L 2419 0 
L 2419 1100 
L 313 1100 
L 313 1709 
L 2253 4666 
z
" transform="scale(0.015625)"/>
       </defs>
       <use xlink:href="#DejaVuSans-34"/>
      </g>
     </g>
    </g>
    <g id="xtick_6">
     <g id="line2d_6">
      <g>
       <use xlink:href="#mfed32b5855" x="816.575048" y="534.04" style="stroke: #000000; stroke-width: 0.8"/>
      </g>
     </g>
     <g id="text_6">
      <!-- 5 -->
      <g transform="translate(813.393798 548.638438) scale(0.1 -0.1)">
       <defs>
        <path id="DejaVuSans-35" d="M 691 4666 
L 3169 4666 
L 3169 4134 
L 1269 4134 
L 1269 2991 
Q 1406 3038 1543 3061 
Q 1681 3084 1819 3084 
Q 2600 3084 3056 2656 
Q 3513 2228 3513 1497 
Q 3513 744 3044 326 
Q 2575 -91 1722 -91 
Q 1428 -91 1123 -41 
Q 819 9 494 109 
L 494 744 
Q 775 591 1075 516 
Q 1375 441 1709 441 
Q 2250 441 2565 725 
Q 2881 1009 2881 1497 
Q 2881 1984 2565 2268 
Q 2250 2553 1709 2553 
Q 1456 2553 1204 2497 
Q 953 2441 691 2322 
L 691 4666 
z
" transform="scale(0.015625)"/>
       </defs>
       <use xlink:href="#DejaVuSans-35"/>
      </g>
     </g>
    </g>
    <g id="text_7">
     <!-- Retention Time (min) -->
     <g transform="translate(397.61 562.316562) scale(0.1 -0.1)">
      <defs>
       <path id="DejaVuSans-52" d="M 2841 2188 
Q 3044 2119 3236 1894 
Q 3428 1669 3622 1275 
L 4263 0 
L 3584 0 
L 2988 1197 
Q 2756 1666 2539 1819 
Q 2322 1972 1947 1972 
L 1259 1972 
L 1259 0 
L 628 0 
L 628 4666 
L 2053 4666 
Q 2853 4666 3247 4331 
Q 3641 3997 3641 3322 
Q 3641 2881 3436 2590 
Q 3231 2300 2841 2188 
z
M 1259 4147 
L 1259 2491 
L 2053 2491 
Q 2509 2491 2742 2702 
Q 2975 2913 2975 3322 
Q 2975 3731 2742 3939 
Q 2509 4147 2053 4147 
L 1259 4147 
z
" transform="scale(0.015625)"/>
       <path id="DejaVuSans-65" d="M 3597 1894 
L 3597 1613 
L 953 1613 
Q 991 1019 1311 708 
Q 1631 397 2203 397 
Q 2534 397 2845 478 
Q 3156 559 3463 722 
L 3463 178 
Q 3153 47 2828 -22 
Q 2503 -91 2169 -91 
Q 1331 -91 842 396 
Q 353 884 353 1716 
Q 353 2575 817 3079 
Q 1281 3584 2069 3584 
Q 2775 3584 3186 3129 
Q 3597 2675 3597 1894 
z
M 3022 2063 
Q 3016 2534 2758 2815 
Q 2500 3097 2075 3097 
Q 1594 3097 1305 2825 
Q 1016 2553 972 2059 
L 3022 2063 
z
" transform="scale(0.015625)"/>
       <path id="DejaVuSans-74" d="M 1172 4494 
L 1172 3500 
L 2356 3500 
L 2356 3053 
L 1172 3053 
L 1172 1153 
Q 1172 725 1289 603 
Q 1406 481 1766 481 
L 2356 481 
L 2356 0 
L 1766 0 
Q 1100 0 847 248 
Q 594 497 594 1153 
L 594 3053 
L 172 3053 
L 172 3500 
L 594 3500 
L 594 4494 
L 1172 4494 
z
" transform="scale(0.015625)"/>
       <path id="DejaVuSans-6e" d="M 3513 2113 
L 3513 0 
L 2938 0 
L 2938 2094 
Q 2938 2591 2744 2837 
Q 2550 3084 2163 3084 
Q 1697 3084 1428 2787 
Q 1159 2491 1159 1978 
L 1159 0 
L 581 0 
L 581 3500 
L 1159 3500 
L 1159 2956 
Q 1366 3272 1645 3428 
Q 1925 3584 2291 3584 
Q 2894 3584 3203 3211 
Q 3513 2838 3513 2113 
z
" transform="scale(0.015625)"/>
       <path id="DejaVuSans-69" d="M 603 3500 
L 1178 3500 
L 1178 0 
L 603 0 
L 603 3500 
z
M 603 4863 
L 1178 4863 
L 1178 4134 
L 603 4134 
L 603 4863 
z
" transform="scale(0.015625)"/>
       <path id="DejaVuSans-6f" d="M 1959 3097 
Q 1497 3097 1228 2736 
Q 959 2375 959 1747 
Q 959 1119 1226 758 
Q 1494 397 1959 397 
Q 2419 397 2687 759 
Q 2956 1122 2956 1747 
Q 2956 2369 2687 2733 
Q 2419 3097 1959 3097 
z
M 1959 3584 
Q 2709 3584 3137 3096 
Q 3566 2609 3566 1747 
Q 3566 888 3137 398 
Q 2709 -91 1959 -91 
Q 1206 -91 779 398 
Q 353 888 353 1747 
Q 353 2609 779 3096 
Q 1206 3584 1959 3584 
z
" transform="scale(0.015625)"/>
       <path id="DejaVuSans-20" transform="scale(0.015625)"/>
       <path id="DejaVuSans-54" d="M -19 4666 
L 3928 4666 
L 3928 4134 
L 2272 4134 
L 2272 0 
L 1638 0 
L 1638 4134 
L -19 4134 
L -19 4666 
z
" transform="scale(0.015625)"/>
       <path id="DejaVuSans-6d" d="M 3328 2828 
Q 3544 3216 3844 3400 
Q 4144 3584 4550 3584 
Q 5097 3584 5394 3201 
Q 5691 2819 5691 2113 
L 5691 0 
L 5113 0 
L 5113 2094 
Q 5113 2597 4934 2840 
Q 4756 3084 4391 3084 
Q 3944 3084 3684 2787 
Q 3425 2491 3425 1978 
L 3425 0 
L 2847 0 
L 2847 2094 
Q 2847 2600 2669 2842 
Q 2491 3084 2119 3084 
Q 1678 3084 1418 2786 
Q 1159 2488 1159 1978 
L 1159 0 
L 581 0 
L 581 3500 
L 1159 3500 
L 1159 2956 
Q 1356 3278 1631 3431 
Q 1906 3584 2284 3584 
Q 2666 3584 2933 3390 
Q 3200 3197 3328 2828 
z
" transform="scale(0.015625)"/>
       <path id="DejaVuSans-28" d="M 1984 4856 
Q 1566 4138 1362 3434 
Q 1159 2731 1159 2009 
Q 1159 1288 1364 580 
Q 1569 -128 1984 -844 
L 1484 -844 
Q 1016 -109 783 600 
Q 550 1309 550 2009 
Q 550 2706 781 3412 
Q 1013 4119 1484 4856 
L 1984 4856 
z
" transform="scale(0.015625)"/>
       <path id="DejaVuSans-29" d="M 513 4856 
L 1013 4856 
Q 1481 4119 1714 3412 
Q 1947 2706 1947 2009 
Q 1947 1309 1714 600 
Q 1481 -109 1013 -844 
L 513 -844 
Q 928 -128 1133 580 
Q 1338 1288 1338 2009 
Q 1338 2731 1133 3434 
Q 928 4138 513 4856 
z
" transform="scale(0.015625)"/>
      </defs>
      <use xlink:href="#DejaVuSans-52"/>
      <use xlink:href="#DejaVuSans-65" transform="translate(64.982422 0)"/>
      <use xlink:href="#DejaVuSans-74" transform="translate(126.505859 0)"/>
      <use xlink:href="#DejaVuSans-65" transform="translate(165.714844 0)"/>
      <use xlink:href="#DejaVuSans-6e" transform="translate(227.238281 0)"/>
      <use xlink:href="#DejaVuSans-74" transform="translate(290.617188 0)"/>
      <use xlink:href="#DejaVuSans-69" transform="translate(329.826172 0)"/>
      <use xlink:href="#DejaVuSans-6f" transform="translate(357.609375 0)"/>
      <use xlink:href="#DejaVuSans-6e" transform="translate(418.791016 0)"/>
      <use xlink:href="#DejaVuSans-20" transform="translate(482.169922 0)"/>
      <use xlink:href="#DejaVuSans-54" transform="translate(513.957031 0)"/>
      <use xlink:href="#DejaVuSans-69" transform="translate(571.916016 0)"/>
      <use xlink:href="#DejaVuSans-6d" transform="translate(599.699219 0)"/>
      <use xlink:href="#DejaVuSans-65" transform="translate(697.111328 0)"/>
      <use xlink:href="#DejaVuSans-20" transform="translate(758.634766 0)"/>
      <use xlink:href="#DejaVuSans-28" transform="translate(790.421875 0)"/>
      <use xlink:href="#DejaVuSans-6d" transform="translate(829.435547 0)"/>
      <use xlink:href="#DejaVuSans-69" transform="translate(926.847656 0)"/>
      <use xlink:href="#DejaVuSans-6e" transform="translate(954.630859 0)"/>
      <use xlink:href="#DejaVuSans-29" transform="translate(1018.009766 0)"/>
     </g>
    </g>
   </g>
   <g id="matplotlib.axis_2">
    <g id="ytick_1">
     <g id="line2d_7">
      <defs>
       <path id="m3049c0ef62" d="M 0 0 
L -3.5 0 
" style="stroke: #000000; stroke-width: 0.8"/>
      </defs>
      <g>
       <use xlink:href="#m3049c0ef62" x="47.72" y="510.369374" style="stroke: #000000; stroke-width: 0.8"/>
      </g>
     </g>
     <g id="text_8">
      <!-- 0.0 -->
      <g style="fill: #0000ff" transform="translate(24.816875 514.168593) scale(0.1 -0.1)">
       <defs>
        <path id="DejaVuSans-2e" d="M 684 794 
L 1344 794 
L 1344 0 
L 684 0 
L 684 794 
z
" transform="scale(0.015625)"/>
       </defs>
       <use xlink:href="#DejaVuSans-30"/>
       <use xlink:href="#DejaVuSans-2e" transform="translate(63.623047 0)"/>
       <use xlink:href="#DejaVuSans-30" transform="translate(95.410156 0)"/>
      </g>
     </g>
    </g>
    <g id="ytick_2">
     <g id="line2d_8">
      <g>
       <use xlink:href="#m3049c0ef62" x="47.72" y="418.282045" style="stroke: #000000; stroke-width: 0.8"/>
      </g>
     </g>
     <g id="text_9">
      <!-- 0.5 -->
      <g style="fill: #0000ff" transform="translate(24.816875 422.081264) scale(0.1 -0.1)">
       <use xlink:href="#DejaVuSans-30"/>
       <use xlink:href="#DejaVuSans-2e" transform="translate(63.623047 0)"/>
       <use xlink:href="#DejaVuSans-35" transform="translate(95.410156 0)"/>
      </g>
     </g>
    </g>
    <g id="ytick_3">
     <g id="line2d_9">
      <g>
       <use xlink:href="#m3049c0ef62" x="47.72" y="326.194716" style="stroke: #000000; stroke-width: 0.8"/>
      </g>
     </g>
     <g id="text_10">
      <!-- 1.0 -->
      <g style="fill: #0000ff" transform="translate(24.816875 329.993934) scale(0.1 -0.1)">
       <use xlink:href="#DejaVuSans-31"/>
       <use xlink:href="#DejaVuSans-2e" transform="translate(63.623047 0)"/>
       <use xlink:href="#DejaVuSans-30" transform="translate(95.410156 0)"/>
      </g>
     </g>
    </g>
    <g id="ytick_4">
     <g id="line2d_10">
      <g>
       <use xlink:href="#m3049c0ef62" x="47.72" y="234.107386" style="stroke: #000000; stroke-width: 0.8"/>
      </g>
     </g>
     <g id="text_11">
      <!-- 1.5 -->
      <g style="fill: #0000ff" transform="translate(24.816875 237.906605) scale(0.1 -0.1)">
       <use xlink:href="#DejaVuSans-31"/>
       <use xlink:href="#DejaVuSans-2e" transform="translate(63.623047 0)"/>
       <use xlink:href="#DejaVuSans-35" transform="translate(95.410156 0)"/>
      </g>
     </g>
    </g>
    <g id="ytick_5">
     <g id="line2d_11">
      <g>
       <use xlink:href="#m3049c0ef62" x="47.72" y="142.020057" style="stroke: #000000; stroke-width: 0.8"/>
      </g>
     </g>
     <g id="text_12">
      <!-- 2.0 -->
      <g style="fill: #0000ff" transform="translate(24.816875 145.819275) scale(0.1 -0.1)">
       <use xlink:href="#DejaVuSans-32"/>
       <use xlink:href="#DejaVuSans-2e" transform="translate(63.623047 0)"/>
       <use xlink:href="#DejaVuSans-30" transform="translate(95.410156 0)"/>
      </g>
     </g>
    </g>
    <g id="ytick_6">
     <g id="line2d_12">
      <g>
       <use xlink:href="#m3049c0ef62" x="47.72" y="49.932727" style="stroke: #000000; stroke-width: 0.8"/>
      </g>
     </g>
     <g id="text_13">
      <!-- 2.5 -->
      <g style="fill: #0000ff" transform="translate(24.816875 53.731946) scale(0.1 -0.1)">
       <use xlink:href="#DejaVuSans-32"/>
       <use xlink:href="#DejaVuSans-2e" transform="translate(63.623047 0)"/>
       <use xlink:href="#DejaVuSans-35" transform="translate(95.410156 0)"/>
      </g>
     </g>
    </g>
    <g id="text_14">
     <!-- Normalized Intensity -->
     <g style="fill: #0000ff" transform="translate(18.737187 332.167031) rotate(-90) scale(0.1 -0.1)">
      <defs>
       <path id="DejaVuSans-4e" d="M 628 4666 
L 1478 4666 
L 3547 763 
L 3547 4666 
L 4159 4666 
L 4159 0 
L 3309 0 
L 1241 3903 
L 1241 0 
L 628 0 
L 628 4666 
z
" transform="scale(0.015625)"/>
       <path id="DejaVuSans-72" d="M 2631 2963 
Q 2534 3019 2420 3045 
Q 2306 3072 2169 3072 
Q 1681 3072 1420 2755 
Q 1159 2438 1159 1844 
L 1159 0 
L 581 0 
L 581 3500 
L 1159 3500 
L 1159 2956 
Q 1341 3275 1631 3429 
Q 1922 3584 2338 3584 
Q 2397 3584 2469 3576 
Q 2541 3569 2628 3553 
L 2631 2963 
z
" transform="scale(0.015625)"/>
       <path id="DejaVuSans-61" d="M 2194 1759 
Q 1497 1759 1228 1600 
Q 959 1441 959 1056 
Q 959 750 1161 570 
Q 1363 391 1709 391 
Q 2188 391 2477 730 
Q 2766 1069 2766 1631 
L 2766 1759 
L 2194 1759 
z
M 3341 1997 
L 3341 0 
L 2766 0 
L 2766 531 
Q 2569 213 2275 61 
Q 1981 -91 1556 -91 
Q 1019 -91 701 211 
Q 384 513 384 1019 
Q 384 1609 779 1909 
Q 1175 2209 1959 2209 
L 2766 2209 
L 2766 2266 
Q 2766 2663 2505 2880 
Q 2244 3097 1772 3097 
Q 1472 3097 1187 3025 
Q 903 2953 641 2809 
L 641 3341 
Q 956 3463 1253 3523 
Q 1550 3584 1831 3584 
Q 2591 3584 2966 3190 
Q 3341 2797 3341 1997 
z
" transform="scale(0.015625)"/>
       <path id="DejaVuSans-6c" d="M 603 4863 
L 1178 4863 
L 1178 0 
L 603 0 
L 603 4863 
z
" transform="scale(0.015625)"/>
       <path id="DejaVuSans-7a" d="M 353 3500 
L 3084 3500 
L 3084 2975 
L 922 459 
L 3084 459 
L 3084 0 
L 275 0 
L 275 525 
L 2438 3041 
L 353 3041 
L 353 3500 
z
" transform="scale(0.015625)"/>
       <path id="DejaVuSans-64" d="M 2906 2969 
L 2906 4863 
L 3481 4863 
L 3481 0 
L 2906 0 
L 2906 525 
Q 2725 213 2448 61 
Q 2172 -91 1784 -91 
Q 1150 -91 751 415 
Q 353 922 353 1747 
Q 353 2572 751 3078 
Q 1150 3584 1784 3584 
Q 2172 3584 2448 3432 
Q 2725 3281 2906 2969 
z
M 947 1747 
Q 947 1113 1208 752 
Q 1469 391 1925 391 
Q 2381 391 2643 752 
Q 2906 1113 2906 1747 
Q 2906 2381 2643 2742 
Q 2381 3103 1925 3103 
Q 1469 3103 1208 2742 
Q 947 2381 947 1747 
z
" transform="scale(0.015625)"/>
       <path id="DejaVuSans-49" d="M 628 4666 
L 1259 4666 
L 1259 0 
L 628 0 
L 628 4666 
z
" transform="scale(0.015625)"/>
       <path id="DejaVuSans-73" d="M 2834 3397 
L 2834 2853 
Q 2591 2978 2328 3040 
Q 2066 3103 1784 3103 
Q 1356 3103 1142 2972 
Q 928 2841 928 2578 
Q 928 2378 1081 2264 
Q 1234 2150 1697 2047 
L 1894 2003 
Q 2506 1872 2764 1633 
Q 3022 1394 3022 966 
Q 3022 478 2636 193 
Q 2250 -91 1575 -91 
Q 1294 -91 989 -36 
Q 684 19 347 128 
L 347 722 
Q 666 556 975 473 
Q 1284 391 1588 391 
Q 1994 391 2212 530 
Q 2431 669 2431 922 
Q 2431 1156 2273 1281 
Q 2116 1406 1581 1522 
L 1381 1569 
Q 847 1681 609 1914 
Q 372 2147 372 2553 
Q 372 3047 722 3315 
Q 1072 3584 1716 3584 
Q 2034 3584 2315 3537 
Q 2597 3491 2834 3397 
z
" transform="scale(0.015625)"/>
       <path id="DejaVuSans-79" d="M 2059 -325 
Q 1816 -950 1584 -1140 
Q 1353 -1331 966 -1331 
L 506 -1331 
L 506 -850 
L 844 -850 
Q 1081 -850 1212 -737 
Q 1344 -625 1503 -206 
L 1606 56 
L 191 3500 
L 800 3500 
L 1894 763 
L 2988 3500 
L 3597 3500 
L 2059 -325 
z
" transform="scale(0.015625)"/>
      </defs>
      <use xlink:href="#DejaVuSans-4e"/>
      <use xlink:href="#DejaVuSans-6f" transform="translate(74.804688 0)"/>
      <use xlink:href="#DejaVuSans-72" transform="translate(135.986328 0)"/>
      <use xlink:href="#DejaVuSans-6d" transform="translate(175.349609 0)"/>
      <use xlink:href="#DejaVuSans-61" transform="translate(272.761719 0)"/>
      <use xlink:href="#DejaVuSans-6c" transform="translate(334.041016 0)"/>
      <use xlink:href="#DejaVuSans-69" transform="translate(361.824219 0)"/>
      <use xlink:href="#DejaVuSans-7a" transform="translate(389.607422 0)"/>
      <use xlink:href="#DejaVuSans-65" transform="translate(442.097656 0)"/>
      <use xlink:href="#DejaVuSans-64" transform="translate(503.621094 0)"/>
      <use xlink:href="#DejaVuSans-20" transform="translate(567.097656 0)"/>
      <use xlink:href="#DejaVuSans-49" transform="translate(598.884766 0)"/>
      <use xlink:href="#DejaVuSans-6e" transform="translate(628.376953 0)"/>
      <use xlink:href="#DejaVuSans-74" transform="translate(691.755859 0)"/>
      <use xlink:href="#DejaVuSans-65" transform="translate(730.964844 0)"/>
      <use xlink:href="#DejaVuSans-6e" transform="translate(792.488281 0)"/>
      <use xlink:href="#DejaVuSans-73" transform="translate(855.867188 0)"/>
      <use xlink:href="#DejaVuSans-69" transform="translate(907.966797 0)"/>
      <use xlink:href="#DejaVuSans-74" transform="translate(935.75 0)"/>
      <use xlink:href="#DejaVuSans-79" transform="translate(974.958984 0)"/>
     </g>
    </g>
   </g>
   <g id="line2d_13">
    <path d="M 84.332727 510.369374 
L 94.112421 510.327098 
L 102.669652 509.827789 
L 112.449346 509.858502 
L 121.006578 509.934452 
L 135.676118 509.822036 
L 147.900735 509.755524 
L 163.792736 509.709886 
L 165.015198 509.36491 
L 166.23766 508.687334 
L 169.905045 505.813385 
L 171.127506 505.116803 
L 172.349968 504.629395 
L 173.57243 504.328208 
L 174.794891 504.212965 
L 176.017353 504.322058 
L 177.239815 504.70949 
L 178.462277 505.391714 
L 183.352123 508.94914 
L 187.019508 510.338617 
L 188.24197 510.787832 
L 189.464432 510.987273 
L 190.686893 510.745106 
L 194.354278 508.929097 
L 195.57674 508.744695 
L 196.799202 508.846053 
L 201.689048 509.912849 
L 204.133972 509.991704 
L 210.24628 509.865398 
L 213.913665 509.818826 
L 220.025974 509.484385 
L 231.028129 509.799352 
L 235.917975 509.760046 
L 237.140437 509.608311 
L 238.362899 509.292636 
L 242.030284 507.866797 
L 243.252745 507.713856 
L 244.475207 507.8433 
L 250.587516 509.382388 
L 254.254901 509.623861 
L 262.812132 509.836943 
L 277.481672 509.910483 
L 295.818598 510.00678 
L 298.263521 510.011467 
L 304.375829 509.734716 
L 310.488138 509.756277 
L 314.155523 509.656849 
L 321.490293 509.210636 
L 326.38014 509.464776 
L 328.825063 509.364104 
L 333.71491 508.699225 
L 336.159833 508.756732 
L 341.04968 509.042311 
L 344.717065 508.943431 
L 353.274297 508.394494 
L 363.05399 508.439024 
L 372.833683 508.03162 
L 376.501068 507.790834 
L 377.72353 507.566708 
L 378.945992 506.531485 
L 380.168453 502.904201 
L 381.390915 494.548571 
L 382.613377 481.391321 
L 383.835839 466.846399 
L 385.0583 455.945052 
L 386.280762 451.959706 
L 387.503224 454.799442 
L 388.725685 461.936174 
L 389.948147 470.325048 
L 391.170609 477.78735 
L 392.39307 483.396815 
L 393.615532 487.180451 
L 394.837994 489.612709 
L 396.060455 491.217965 
L 397.282917 492.380634 
L 399.72784 494.144622 
L 402.172764 495.516678 
L 404.617687 496.421261 
L 410.729995 498.019611 
L 413.174919 498.259717 
L 415.619842 498.294382 
L 416.842304 498.193934 
L 418.064766 497.916139 
L 421.732151 496.586036 
L 422.954612 496.514195 
L 424.177074 496.686682 
L 426.621997 497.244257 
L 429.066921 497.49565 
L 431.511844 497.364064 
L 432.734306 497.173131 
L 433.956767 496.869351 
L 435.179229 496.422984 
L 436.401691 495.80325 
L 437.624152 494.868095 
L 438.846614 493.100989 
L 440.069076 489.503355 
L 441.291537 483.189441 
L 443.736461 465.543814 
L 444.958922 458.98447 
L 446.181384 456.546273 
L 447.403846 458.122613 
L 448.626307 462.298049 
L 451.071231 472.191411 
L 452.293693 476.077518 
L 453.516154 478.887102 
L 454.738616 480.705031 
L 455.961078 481.752685 
L 457.183539 482.302356 
L 458.406001 482.57612 
L 459.628463 482.673489 
L 460.850924 482.579504 
L 462.073386 482.246586 
L 463.295848 481.687626 
L 466.963233 479.527656 
L 468.185694 478.72908 
L 469.408156 477.781356 
L 470.630618 476.611955 
L 471.853079 475.16887 
L 473.075541 473.322494 
L 474.298003 470.645198 
L 475.520464 466.30535 
L 476.742926 459.580553 
L 479.187849 443.097766 
L 480.410311 439.202282 
L 481.632773 441.430988 
L 482.855234 449.286675 
L 485.300158 471.43751 
L 486.52262 480.870063 
L 487.745081 487.861427 
L 488.967543 492.647971 
L 490.190005 495.844072 
L 491.412466 498.045131 
L 492.634928 499.662166 
L 493.85739 500.917597 
L 495.079851 501.908944 
L 496.302313 502.673654 
L 497.524775 503.220321 
L 498.747236 503.537514 
L 499.969698 503.623866 
L 502.414621 503.341413 
L 504.859545 502.791284 
L 506.082006 502.331548 
L 507.304468 501.670222 
L 508.52693 500.768547 
L 510.971853 498.540902 
L 512.194315 497.757932 
L 513.416776 497.554292 
L 514.639238 497.901872 
L 515.8617 498.519361 
L 517.084161 498.723479 
L 518.306623 496.452807 
L 519.529085 487.370962 
L 520.751547 466.629429 
L 521.974008 433.217837 
L 523.19647 393.055984 
L 524.418932 357.153012 
L 525.641393 334.544581 
L 526.863855 326.194716 
L 528.086317 327.434899 
L 529.308778 335.319262 
L 530.53124 350.594409 
L 531.753702 373.519159 
L 534.198625 427.270455 
L 535.421087 448.484047 
L 536.643548 463.182437 
L 537.86601 472.624129 
L 539.088472 478.950024 
L 540.310933 483.734447 
L 541.533395 487.603925 
L 542.755857 490.666396 
L 543.978318 493.040324 
L 546.423242 496.883938 
L 548.868165 500.548209 
L 550.090627 502.120794 
L 551.313088 503.375169 
L 552.53555 504.302154 
L 553.758012 504.962614 
L 556.202935 505.839238 
L 558.647859 506.479479 
L 559.87032 506.670803 
L 561.092782 506.67638 
L 564.760167 506.050353 
L 565.982629 506.12146 
L 572.094937 507.429252 
L 578.207245 508.014399 
L 587.986939 508.695786 
L 594.099247 508.765269 
L 601.434017 508.684569 
L 603.878941 508.789823 
L 606.323864 508.612439 
L 608.768787 508.21816 
L 609.991249 508.148204 
L 612.436172 508.379632 
L 616.103557 508.851878 
L 619.770942 509.004941 
L 640.552791 509.383203 
L 644.220176 509.279016 
L 647.887561 509.192349 
L 662.557101 509.488777 
L 669.891871 509.462182 
L 684.561411 509.319369 
L 689.451258 509.243792 
L 709.010645 509.537005 
L 724.902647 509.491222 
L 728.570032 509.421567 
L 732.237417 509.323936 
L 749.35188 509.748675 
L 764.021421 509.801357 
L 776.246037 509.796942 
L 814.142349 509.693604 
L 816.587273 509.65476 
L 816.587273 509.65476 
" clip-path="url(#p7d3686f768)" style="fill: none; stroke: #0000ff; stroke-width: 1.5; stroke-linecap: square"/>
   </g>
   <g id="line2d_14">
    <path d="M 91.378996 234.098512 
L 96.616511 234.100242 
L 382.211187 234.035586 
L 383.24979 233.814905 
L 383.24979 233.701421 
L 383.592324 233.719905 
L 383.592324 233.484419 
L 383.931924 233.525034 
L 383.931924 233.354605 
L 384.266145 233.472408 
L 384.266145 233.166694 
L 384.597921 233.316333 
L 384.597921 233.048768 
L 384.927986 233.166657 
L 384.927986 232.817736 
L 385.257561 233.005028 
L 385.257561 232.72927 
L 385.586404 232.903211 
L 385.586404 232.580892 
L 386.24311 232.592495 
L 386.24311 232.480401 
L 386.571219 232.121949 
L 386.899572 232.42941 
L 386.899572 232.424993 
L 387.227192 232.521157 
L 387.560435 232.883916 
L 387.560435 232.522657 
L 387.888543 232.790413 
L 387.888543 232.454855 
L 388.216163 232.764513 
L 388.216163 232.434895 
L 388.544027 232.691802 
L 388.544027 232.126537 
L 388.87507 232.456005 
L 388.87507 232.264526 
L 389.530798 232.550644 
L 389.858663 232.530991 
L 389.858663 232.309245 
L 390.187016 232.442286 
L 390.187016 232.049702 
L 390.515125 232.525763 
L 390.515125 232.283441 
L 390.843478 232.675642 
L 390.843478 232.444766 
L 391.171587 232.820778 
L 391.171587 232.342317 
L 391.500184 232.599372 
L 391.500184 232.331763 
L 391.828782 232.652613 
L 391.828782 232.467234 
L 392.15738 232.912935 
L 392.15738 232.551442 
L 392.491601 232.819193 
L 392.491601 232.494173 
L 392.819954 232.751355 
L 392.819954 232.427342 
L 393.148796 232.652804 
L 393.148796 232.47946 
L 393.477394 232.827922 
L 393.477394 232.473343 
L 393.806969 232.787787 
L 393.806969 232.563345 
L 394.136301 232.77494 
L 394.136301 232.391888 
L 394.465632 232.743993 
L 394.465632 232.383368 
L 394.795207 232.729233 
L 394.795207 232.364707 
L 395.124539 232.763151 
L 395.124539 232.496111 
L 395.783445 233.181049 
L 395.783445 232.865767 
L 396.771928 232.630077 
L 396.771928 232.70147 
L 397.436703 232.76579 
L 397.766767 232.447977 
L 398.096832 232.672151 
L 398.430808 232.671761 
L 398.430808 232.69358 
L 398.761118 233.056263 
L 398.761118 232.889111 
L 399.091671 233.125308 
L 399.091671 232.958709 
L 399.422225 233.238363 
L 399.422225 232.960241 
L 399.752779 233.230768 
L 399.752779 233.063886 
L 400.083332 233.256464 
L 400.083332 233.083384 
L 400.413886 233.330035 
L 400.413886 233.059479 
L 400.744439 233.299641 
L 400.744439 233.100432 
L 401.075238 233.307117 
L 401.075238 233.097176 
L 401.075238 233.347357 
L 401.405791 233.111553 
L 402.403564 233.000613 
L 402.735096 233.227438 
L 402.735096 233.029607 
L 403.06565 233.268917 
L 403.06565 232.998416 
L 403.396937 233.261468 
L 403.396937 233.117033 
L 403.728468 233.366108 
L 403.728468 233.165556 
L 404.722085 233.097766 
L 405.053617 233.37229 
L 405.053617 233.130987 
L 405.385148 233.365974 
L 405.385148 233.152868 
L 405.71668 233.312492 
L 405.71668 233.147924 
L 406.048212 233.421553 
L 406.048212 233.20674 
L 406.379743 233.4759 
L 406.379743 233.31643 
L 406.711519 233.496686 
L 406.711519 233.253285 
L 407.043785 233.457471 
L 407.043785 233.233571 
L 407.381428 233.397687 
L 407.381428 233.186444 
L 407.713938 233.377069 
L 407.713938 233.1956 
L 408.046692 233.403728 
L 408.046692 233.20678 
L 409.048622 233.242949 
L 409.048622 233.269595 
L 409.381131 233.503973 
L 409.381131 233.23227 
L 409.713396 233.432327 
L 409.713396 233.181303 
L 410.047373 233.382 
L 410.047373 233.195447 
L 410.379149 233.46639 
L 410.379149 233.166523 
L 410.712148 233.407015 
L 410.712148 233.193724 
L 411.044902 233.335634 
L 411.044902 233.143292 
L 411.378145 233.449573 
L 411.378145 233.225282 
L 411.710899 233.415517 
L 411.710899 233.237487 
L 412.044631 233.429621 
L 412.044631 233.257446 
L 412.383742 233.492016 
L 412.383742 233.235694 
L 412.717474 233.448616 
L 412.717474 233.3062 
L 413.049983 233.455907 
L 413.049983 233.237143 
L 413.717203 233.299981 
L 413.717203 233.263826 
L 414.051668 233.033677 
L 414.386134 232.972504 
L 414.719866 233.180965 
L 414.719866 233.01853 
L 415.721795 233.52879 
L 415.721795 233.357913 
L 416.054794 233.571093 
L 416.054794 233.364705 
L 416.388526 233.492294 
L 416.388526 233.314593 
L 416.722014 233.482489 
L 416.722014 233.261334 
L 417.400724 233.327199 
L 417.400724 233.32152 
L 417.734945 233.292441 
L 417.734945 233.40122 
L 418.068922 233.57642 
L 418.068922 233.378198 
L 418.403876 233.561657 
L 418.403876 233.326248 
L 419.073541 233.194584 
L 419.073541 233.213895 
L 420.414581 233.300093 
L 420.748802 233.578294 
L 420.748802 233.395868 
L 421.083757 233.576709 
L 421.083757 233.437668 
L 421.755133 233.201691 
L 422.091065 233.404771 
L 422.091065 233.230594 
L 422.431888 233.21562 
L 422.767087 233.425287 
L 423.101552 233.40113 
L 423.101552 233.433914 
L 423.437974 233.603996 
L 423.437974 233.461548 
L 423.773417 233.609438 
L 423.773417 233.473238 
L 424.108372 233.648948 
L 424.108372 233.511535 
L 427.137143 233.490297 
L 427.479187 233.668802 
L 427.479187 233.507918 
L 427.815853 233.653636 
L 427.815853 233.508444 
L 428.823651 233.49038 
L 428.823651 233.49753 
L 429.159828 233.673698 
L 429.159828 233.529096 
L 429.497227 233.65879 
L 429.497227 233.50269 
L 429.83316 233.653559 
L 429.83316 233.468309 
L 430.168848 233.61887 
L 430.168848 233.474117 
L 430.506247 233.622248 
L 430.506247 233.479686 
L 431.850466 233.615014 
L 431.850466 233.481662 
L 432.187865 233.65297 
L 432.187865 233.499393 
L 432.529666 233.667651 
L 432.529666 233.531801 
L 432.867309 233.679793 
L 432.867309 233.45329 
L 433.205442 233.599318 
L 433.205442 233.441139 
L 433.543331 233.564809 
L 433.543331 233.418292 
L 433.88073 233.620755 
L 433.88073 233.480598 
L 434.218619 233.62883 
L 434.218619 233.473518 
L 434.55504 233.635968 
L 434.55504 233.484599 
L 434.911754 233.604157 
L 434.911754 233.408297 
L 435.24842 233.58741 
L 435.24842 233.430945 
L 435.24842 233.578032 
L 435.585086 233.609 
L 435.922241 233.392183 
L 436.259885 233.516504 
L 436.259885 233.349961 
L 436.601685 233.348745 
L 436.601685 233.390399 
L 436.940552 233.596912 
L 436.940552 233.41575 
L 437.27844 233.606701 
L 437.27844 233.462572 
L 438.633417 233.175256 
L 438.97155 233.393278 
L 438.97155 233.237635 
L 439.647082 233.530043 
L 439.647082 233.358428 
L 440.323837 233.395497 
L 440.323837 233.364091 
L 441.675879 233.398636 
L 441.675879 233.364759 
L 442.013768 233.622824 
L 442.013768 233.45945 
L 442.352634 233.611124 
L 442.352634 233.394734 
L 442.695657 233.523771 
L 442.695657 233.332296 
L 443.035257 233.440937 
L 443.035257 233.346446 
L 443.37339 233.366758 
L 443.711034 233.220133 
L 444.049655 233.393499 
L 444.049655 233.293424 
L 444.388033 233.482279 
L 444.725921 233.644793 
L 444.725921 233.500032 
L 445.064299 233.671098 
L 445.064299 233.552363 
L 445.407321 233.693287 
L 445.407321 233.578225 
L 446.076986 233.527309 
L 446.076986 233.537613 
L 446.411696 233.335771 
L 446.411696 233.437513 
L 446.74665 233.629124 
L 446.74665 233.475043 
L 447.414359 233.620621 
L 447.414359 233.430227 
L 447.753714 233.587018 
L 447.753714 233.432742 
L 448.421667 233.440493 
L 448.421667 233.511785 
L 449.434599 233.561725 
L 450.102063 233.373513 
L 450.773195 233.425416 
L 450.773195 233.385529 
L 451.108394 233.287113 
L 452.116191 233.441725 
L 452.116191 233.577483 
L 452.451635 233.547417 
L 452.794413 233.378899 
L 453.132546 233.515583 
L 453.132546 233.377768 
L 454.482388 233.733103 
L 454.482388 233.600631 
L 454.818076 233.53397 
L 455.16281 233.339499 
L 455.500454 233.490922 
L 455.500454 233.376923 
L 455.839565 233.482782 
L 456.179409 233.654259 
L 456.179409 233.510527 
L 456.520721 233.602159 
L 456.520721 233.483442 
L 457.200654 233.666235 
L 457.200654 233.523374 
L 457.542454 233.694463 
L 457.542454 233.547313 
L 457.889878 233.656363 
L 457.889878 233.526625 
L 458.229233 233.681293 
L 458.229233 233.537367 
L 459.931144 233.63701 
L 459.931144 233.486419 
L 460.272944 233.672033 
L 460.272944 233.536269 
L 460.614011 233.672531 
L 460.614011 233.503003 
L 460.955811 233.670933 
L 460.955811 233.514915 
L 461.296389 233.669997 
L 461.296389 233.518659 
L 461.637212 233.694476 
L 461.637212 233.582182 
L 461.978034 233.719809 
L 461.978034 233.567258 
L 462.319345 233.710462 
L 462.319345 233.594507 
L 462.661146 233.681875 
L 462.661146 233.553515 
L 463.006613 233.699244 
L 463.006613 233.566482 
L 463.34768 233.643928 
L 463.34768 233.510394 
L 463.692414 233.633068 
L 463.692414 233.494156 
L 464.373814 233.708661 
L 464.373814 233.621224 
L 464.71537 233.716834 
L 464.71537 233.589412 
L 465.055703 233.6952 
L 465.055703 233.537411 
L 465.736126 233.547698 
L 465.736126 233.563989 
L 467.101126 233.558109 
L 467.442438 233.706028 
L 467.442438 233.583422 
L 468.133128 233.303495 
L 468.473217 233.448096 
L 468.473217 233.330742 
L 468.814529 233.560218 
L 469.157307 233.738088 
L 469.157307 233.594646 
L 469.499107 233.701401 
L 469.499107 233.566266 
L 469.840907 233.675068 
L 469.840907 233.537633 
L 470.182952 233.65851 
L 470.182952 233.522743 
L 472.232042 233.467134 
L 472.232042 233.497179 
L 472.913198 233.751057 
L 472.913198 233.582971 
L 473.939088 233.524328 
L 473.939088 233.562676 
L 474.281377 233.720519 
L 474.281377 233.592031 
L 474.96131 233.762118 
L 474.96131 233.595002 
L 475.303355 233.716229 
L 475.303355 233.565822 
L 475.645156 233.640467 
L 475.645156 233.545197 
L 477.357091 233.280303 
L 478.387137 233.607514 
L 478.387137 233.46926 
L 480.438672 233.662965 
L 480.438672 233.520302 
L 480.780228 233.668353 
L 480.780228 233.529354 
L 481.12105 233.674288 
L 481.12105 233.529871 
L 481.462606 233.678175 
L 481.462606 233.548362 
L 481.808563 233.680223 
L 481.808563 233.519974 
L 482.492897 233.436833 
L 482.492897 233.48016 
L 484.54541 233.478832 
L 484.54541 233.501882 
L 484.88501 233.643488 
L 484.88501 233.460729 
L 485.568121 233.537135 
L 485.910166 233.423948 
L 486.252455 233.636468 
L 486.593522 233.492577 
L 487.278834 233.536685 
L 487.278834 233.4812 
L 487.621368 233.618042 
L 487.621368 233.456334 
L 487.961457 233.594134 
L 487.961457 233.509123 
L 488.991503 233.465736 
L 488.991503 233.629771 
L 490.359438 233.680297 
L 490.359438 233.515447 
L 490.701727 233.631185 
L 490.701727 233.506517 
L 491.04206 233.616737 
L 491.04206 233.47008 
L 491.383616 233.640368 
L 491.383616 233.476909 
L 492.07284 233.319716 
L 493.099463 233.668949 
L 493.099463 233.487993 
L 494.127798 233.547625 
L 494.469354 233.651782 
L 494.469354 233.522945 
L 495.149776 233.535592 
L 495.149776 233.517043 
L 495.49231 233.384273 
L 496.858289 233.62502 
L 496.858289 233.531537 
L 497.203756 233.67213 
L 497.203756 233.55175 
L 497.545801 233.681758 
L 497.545801 233.557653 
L 497.884912 233.496952 
L 498.226957 233.319332 
L 498.569001 233.456091 
L 498.569001 233.269237 
L 498.916669 233.430066 
L 499.257981 233.622197 
L 499.257981 233.480513 
L 499.600515 233.67119 
L 499.600515 233.597179 
L 499.940114 233.692646 
L 499.940114 233.572259 
L 500.280692 233.723502 
L 500.280692 233.579904 
L 501.643248 233.511427 
L 501.980647 233.355801 
L 502.321714 233.505854 
L 502.321714 233.312673 
L 503.343203 233.697885 
L 503.343203 233.545815 
L 503.680114 233.692062 
L 503.680114 233.576216 
L 504.022892 233.684462 
L 504.022892 233.537619 
L 504.361514 233.670282 
L 504.361514 233.516448 
L 504.699891 233.608312 
L 504.699891 233.427719 
L 505.377135 233.6006 
L 505.377135 233.469564 
L 505.713801 233.622337 
L 505.713801 233.473906 
L 506.056335 233.583091 
L 506.056335 233.443267 
L 506.392023 233.581286 
L 506.392023 233.446149 
L 506.7282 233.606348 
L 506.7282 233.47508 
L 507.405443 233.664286 
L 507.405443 233.46836 
L 507.744554 233.567149 
L 507.744554 233.419803 
L 508.764821 233.472643 
L 509.107844 233.568766 
L 509.107844 233.443153 
L 509.443287 233.572297 
L 509.443287 233.428515 
L 510.115152 233.688691 
L 510.115152 233.58889 
L 510.452551 233.731514 
L 510.452551 233.530041 
L 510.788728 233.65034 
L 510.788728 233.533264 
L 511.126372 233.633621 
L 511.126372 233.437031 
L 511.464505 233.597354 
L 511.464505 233.437969 
L 512.472058 233.26648 
L 513.474721 233.659846 
L 513.474721 233.529895 
L 514.145608 233.36376 
L 514.478607 233.17756 
L 515.478336 233.486362 
L 515.478336 233.312591 
L 515.81109 233.526945 
L 515.81109 233.413445 
L 517.144551 233.598945 
L 517.144551 233.412185 
L 517.478772 233.556518 
L 517.478772 233.402227 
L 517.812993 233.534518 
L 517.812993 233.371779 
L 518.483391 233.631734 
L 518.483391 233.497777 
L 518.817612 233.664509 
L 518.817612 233.538206 
L 519.159168 233.662811 
L 519.159168 233.507358 
L 519.4951 233.63354 
L 519.4951 233.49989 
L 519.831277 233.624143 
L 519.831277 233.492608 
L 520.499719 233.699841 
L 520.499719 233.602 
L 520.832962 233.736649 
L 520.832962 233.619161 
L 521.499693 233.734213 
L 521.499693 233.625553 
L 522.497222 233.519355 
L 522.829731 233.715149 
L 522.829731 233.578832 
L 523.161018 233.664847 
L 523.161018 233.500766 
L 523.494751 233.650742 
L 523.494751 233.497861 
L 523.494751 233.640517 
L 524.158547 233.714979 
L 524.158547 233.782338 
L 524.487145 233.557598 
L 524.487145 233.573751 
L 525.470004 233.432758 
L 525.797135 233.558052 
L 526.124266 233.366227 
L 526.778038 233.428996 
L 527.105169 233.306539 
L 527.105169 233.509147 
L 527.758941 233.229824 
L 528.085828 232.560128 
L 528.085828 232.741826 
L 528.412714 232.553669 
L 528.412714 231.314532 
L 528.739356 230.975876 
L 528.739356 228.375476 
L 529.071621 220.889651 
L 529.398507 219.660669 
L 529.398507 210.858223 
L 529.726127 209.222115 
L 529.726127 196.598578 
L 530.053257 200.090469 
L 530.053257 177.236523 
L 530.380388 181.848483 
L 530.380388 153.408455 
L 530.707519 164.043097 
L 530.707519 131.732009 
L 531.034405 149.318023 
L 531.034405 109.261459 
L 531.362025 132.288859 
L 531.362025 91.883985 
L 531.689156 122.436833 
L 531.689156 72.939382 
L 532.016531 109.973936 
L 532.016531 63.581624 
L 532.346351 100.157362 
L 532.346351 49.932727 
L 532.672993 97.983498 
L 532.672993 52.178063 
L 532.999879 98.404273 
L 532.999879 55.928497 
L 533.326765 106.347321 
L 533.326765 61.890476 
L 533.653652 109.200054 
L 533.653652 65.587347 
L 533.986161 109.837316 
L 533.986161 66.774751 
L 534.312803 114.84158 
L 534.312803 81.121039 
L 534.639934 125.260229 
L 534.639934 89.40425 
L 534.96682 131.028163 
L 534.96682 94.6639 
L 535.294195 129.012262 
L 535.294195 97.094599 
L 535.621326 135.846516 
L 535.621326 109.539907 
L 535.948701 144.339104 
L 535.948701 116.508586 
L 536.276076 149.761913 
L 536.276076 123.40208 
L 536.603452 152.053624 
L 536.603452 130.421248 
L 536.930827 159.89549 
L 536.930827 138.580024 
L 537.258447 165.300239 
L 537.258447 142.608352 
L 537.586066 167.032994 
L 537.586066 146.950058 
L 537.913931 169.944266 
L 537.913931 151.304815 
L 538.241795 176.055374 
L 538.241795 155.045671 
L 538.569903 176.745824 
L 538.569903 159.658849 
L 538.903147 179.55008 
L 538.903147 162.619299 
L 539.231744 183.642351 
L 539.231744 168.743247 
L 539.560097 187.083196 
L 539.560097 170.801698 
L 539.888451 187.642564 
L 539.888451 173.168062 
L 540.217293 188.808014 
L 540.217293 175.126673 
L 540.545646 191.206036 
L 540.545646 177.829221 
L 540.878156 193.048031 
L 540.878156 180.372347 
L 541.206753 195.20655 
L 541.206753 182.828828 
L 541.535595 197.362255 
L 541.535595 184.099965 
L 541.864682 197.100367 
L 541.864682 184.718433 
L 542.194258 198.365945 
L 542.194258 186.45474 
L 542.523834 199.823905 
L 542.523834 189.979616 
L 542.853409 202.812093 
L 542.853409 191.833234 
L 543.18274 203.921416 
L 543.18274 195.139354 
L 543.512316 205.82907 
L 543.512316 194.916063 
L 543.848004 206.311391 
L 543.848004 197.332061 
L 544.178069 207.439958 
L 544.178069 199.243551 
L 544.508378 209.924003 
L 544.508378 201.731547 
L 544.839909 210.456811 
L 544.839909 202.813961 
L 545.170952 210.825116 
L 545.170952 203.816448 
L 545.502239 203.983533 
L 545.83426 204.708203 
L 545.83426 205.463067 
L 546.166525 205.844748 
L 546.166525 208.032459 
L 546.499034 216.281626 
L 546.499034 210.156207 
L 546.831055 217.162304 
L 546.831055 211.126086 
L 547.162831 216.317901 
L 547.162831 211.646442 
L 547.49583 217.984447 
L 547.49583 212.375368 
L 547.829317 218.683474 
L 547.829317 214.143644 
L 548.162805 219.264312 
L 548.162805 213.807045 
L 548.496292 219.511652 
L 548.496292 215.058706 
L 548.833936 220.076724 
L 548.833936 215.581602 
L 549.167424 220.730286 
L 549.167424 216.660255 
L 549.501645 221.202025 
L 549.501645 216.996795 
L 549.835621 221.509754 
L 549.835621 217.859561 
L 550.171065 221.992892 
L 550.171065 218.344613 
L 550.510909 222.74572 
L 550.510909 219.136544 
L 550.847575 223.184002 
L 550.847575 219.788965 
L 551.182041 223.60724 
L 551.182041 219.963171 
L 551.515773 223.924314 
L 551.515773 220.440608 
L 551.849994 224.191433 
L 551.849994 220.817267 
L 552.194728 224.604134 
L 552.194728 221.756904 
L 552.532616 225.312605 
L 552.532616 222.109734 
L 552.870016 225.642869 
L 552.870016 222.538494 
L 553.208149 225.171459 
L 553.208149 222.486463 
L 553.546281 225.658753 
L 553.546281 222.93493 
L 553.890771 226.102574 
L 553.890771 223.515713 
L 554.229882 226.418605 
L 554.229882 223.827031 
L 554.569971 226.594739 
L 554.569971 224.322102 
L 554.907859 227.113114 
L 554.907859 224.615507 
L 555.249171 227.35114 
L 555.249171 224.958396 
L 555.590482 227.182163 
L 555.590482 225.016813 
L 555.931793 227.51266 
L 555.931793 225.477926 
L 556.273593 227.853773 
L 556.273593 225.854527 
L 556.615149 228.110262 
L 556.615149 226.041814 
L 556.956705 228.107003 
L 556.956705 225.942914 
L 557.298261 228.119853 
L 557.298261 226.082709 
L 557.644706 228.067069 
L 557.644706 226.222529 
L 557.986262 228.516574 
L 557.986262 226.407939 
L 558.327818 228.456968 
L 558.327818 226.821122 
L 558.669863 228.684667 
L 558.669863 226.915593 
L 559.016064 228.804373 
L 559.016064 227.083327 
L 559.35762 228.800177 
L 559.35762 227.241984 
L 559.69942 229.070029 
L 559.69942 227.615386 
L 560.04122 229.406386 
L 560.04122 227.889825 
L 560.385221 227.687917 
L 560.727266 227.681544 
L 560.727266 227.95588 
L 561.069311 228.142349 
L 561.411111 230.018354 
L 561.411111 228.777551 
L 561.7534 230.133463 
L 561.7534 228.816616 
L 562.095689 230.337072 
L 562.095689 229.010855 
L 562.437979 230.279881 
L 562.437979 228.989733 
L 562.784669 230.283657 
L 562.784669 229.261783 
L 563.126958 230.491133 
L 563.126958 229.248596 
L 563.469247 230.592316 
L 563.469247 229.549999 
L 563.811292 230.536507 
L 563.811292 229.549471 
L 564.15896 230.712159 
L 564.15896 229.611653 
L 564.50125 229.353436 
L 565.185339 229.492887 
L 565.185339 229.601041 
L 565.527384 230.95667 
L 565.527384 230.134174 
L 565.869673 231.133825 
L 565.869673 230.266961 
L 566.211473 231.397334 
L 566.211473 230.53668 
L 566.553274 231.435203 
L 566.553274 230.514055 
L 566.895074 231.469902 
L 566.895074 230.562242 
L 567.237119 231.456263 
L 567.237119 230.5778 
L 567.579408 231.597075 
L 567.579408 230.735586 
L 567.921208 231.552045 
L 567.921208 230.720185 
L 568.947832 230.815703 
L 568.947832 230.796894 
L 569.295255 231.634458 
L 569.295255 230.739994 
L 569.637545 231.534473 
L 569.637545 230.79012 
L 569.980078 231.651631 
L 569.980078 230.943326 
L 570.322368 231.87237 
L 570.322368 231.116586 
L 570.664901 231.854071 
L 570.664901 231.135972 
L 571.007435 231.855609 
L 571.007435 231.171521 
L 571.350213 231.978493 
L 571.350213 231.348269 
L 571.692747 232.084627 
L 571.692747 231.450775 
L 572.03577 232.150466 
L 572.03577 231.404597 
L 572.378304 232.095656 
L 572.378304 231.404155 
L 572.720837 232.080359 
L 572.720837 231.349054 
L 573.406394 231.262042 
L 573.406394 231.324336 
L 573.748928 230.541326 
L 574.091706 231.238872 
L 574.091706 231.50341 
L 574.440108 231.569562 
L 574.440108 231.539417 
L 574.78313 232.32587 
L 574.78313 231.701824 
L 575.125909 232.248287 
L 575.125909 231.583141 
L 575.469176 232.26292 
L 575.469176 231.637864 
L 575.812198 232.301258 
L 575.812198 231.699116 
L 576.154977 232.311073 
L 576.154977 231.728158 
L 576.841022 231.675656 
L 576.841022 231.724514 
L 577.184045 231.749488 
L 577.526823 232.464885 
L 577.526823 231.925584 
L 577.874491 232.478576 
L 577.874491 231.970673 
L 578.217514 232.60372 
L 578.217514 232.1064 
L 579.246827 231.938006 
L 579.246827 231.953789 
L 579.595473 232.054246 
L 579.938496 231.472582 
L 580.283719 232.060472 
L 580.283719 231.554172 
L 580.970498 232.68538 
L 580.970498 232.172818 
L 581.313765 232.708298 
L 581.313765 232.168965 
L 581.657277 232.695073 
L 581.657277 232.243824 
L 582.0003 232.743933 
L 582.0003 232.293621 
L 582.343811 232.814838 
L 582.343811 232.379487 
L 582.687323 232.866231 
L 582.687323 232.440285 
L 583.03059 232.877735 
L 583.03059 232.438244 
L 583.373857 232.884936 
L 583.373857 232.469553 
L 584.403904 232.456094 
L 584.403904 232.475491 
L 584.752794 232.894721 
L 584.752794 232.491922 
L 585.09655 232.909539 
L 585.09655 232.529061 
L 585.440062 232.925887 
L 585.440062 232.57341 
L 585.783329 233.006544 
L 585.783329 232.663051 
L 586.127086 233.03099 
L 586.127086 232.636206 
L 587.163489 232.635902 
L 587.163489 232.692879 
L 587.507245 233.098172 
L 587.507245 232.749261 
L 587.851001 233.094123 
L 587.851001 232.74623 
L 588.194513 233.062536 
L 588.194513 232.788753 
L 588.53778 233.126146 
L 588.53778 232.843002 
L 588.881536 233.209213 
L 588.881536 232.917772 
L 589.225048 233.191746 
L 589.225048 232.880463 
L 589.918428 232.820564 
L 589.918428 232.8441 
L 590.26194 232.879647 
L 590.605696 233.252038 
L 590.605696 232.911384 
L 590.949452 233.212681 
L 590.949452 232.929655 
L 591.292964 233.243326 
L 591.292964 232.952113 
L 591.636965 233.29131 
L 591.636965 233.013616 
L 591.980232 233.292964 
L 591.980232 232.949213 
L 592.323988 233.224525 
L 592.323988 232.943768 
L 592.667989 232.941341 
L 593.011745 232.627742 
L 593.355013 232.96796 
L 593.355013 232.69779 
L 594.04277 233.332006 
L 594.04277 233.064417 
L 594.38677 233.343044 
L 594.38677 233.043279 
L 594.730771 233.316314 
L 594.730771 233.055765 
L 595.081373 233.323523 
L 595.081373 233.032305 
L 595.425374 233.329007 
L 595.425374 233.067032 
L 595.76913 233.329408 
L 595.76913 233.080045 
L 596.112886 233.3503 
L 596.112886 233.11368 
L 596.456887 233.335942 
L 596.456887 233.131227 
L 596.800888 233.360704 
L 596.800888 233.142149 
L 597.144888 233.388177 
L 597.144888 233.153635 
L 597.488889 233.337535 
L 597.488889 233.109395 
L 597.832645 233.361558 
L 597.832645 233.133244 
L 598.176646 233.386603 
L 598.176646 233.195236 
L 598.520647 233.453022 
L 598.520647 233.185564 
L 598.864892 233.414497 
L 598.864892 233.158919 
L 599.208648 233.380969 
L 599.208648 233.141785 
L 599.552893 233.393323 
L 599.552893 233.191925 
L 599.901295 233.457061 
L 599.901295 233.277136 
L 600.25043 233.512077 
L 600.25043 233.338909 
L 600.593942 233.498982 
L 600.593942 233.31091 
L 601.28121 233.199953 
L 601.624477 233.237053 
L 601.624477 233.227965 
L 601.967744 233.509129 
L 601.967744 233.317079 
L 602.311256 233.520585 
L 602.311256 233.3221 
L 602.654768 233.516947 
L 602.654768 233.318193 
L 602.998035 233.510946 
L 602.998035 233.327524 
L 603.685547 233.311464 
L 604.029059 233.075161 
L 605.059105 233.558769 
L 605.059105 233.516971 
L 605.407996 233.554186 
L 605.407996 233.370814 
L 605.751507 233.537521 
L 605.751507 233.356574 
L 606.095019 233.56388 
L 606.095019 233.38907 
L 606.438775 233.575134 
L 606.438775 233.419953 
L 606.782776 233.615241 
L 606.782776 233.468861 
L 607.819913 233.33054 
L 608.163669 233.545097 
L 608.163669 233.387401 
L 608.507425 233.584526 
L 608.507425 233.407559 
L 608.851181 233.619306 
L 608.851181 233.418785 
L 608.851181 233.542612 
L 609.195182 233.33192 
L 609.538938 233.513869 
L 609.538938 233.316978 
L 610.226695 233.590752 
L 610.226695 233.408754 
L 610.576319 233.611193 
L 610.576319 233.439615 
L 610.920809 233.38356 
L 611.264565 233.199778 
L 611.608321 233.391191 
L 611.608321 233.224361 
L 612.640812 233.679251 
L 612.640812 233.516311 
L 612.984569 233.645517 
L 612.984569 233.498967 
L 613.328814 233.643095 
L 613.328814 233.462752 
L 613.672815 233.62765 
L 613.672815 233.47066 
L 614.016815 233.605454 
L 614.016815 233.44472 
L 614.706039 233.411957 
L 614.706039 233.437084 
L 615.05004 233.490709 
L 615.394285 233.709762 
L 615.394285 233.566023 
L 616.432155 233.450469 
L 616.776156 233.60575 
L 616.776156 233.479107 
L 617.120157 233.673542 
L 617.120157 233.551042 
L 617.464157 233.710834 
L 617.464157 233.529154 
L 617.808158 233.660393 
L 617.808158 233.510798 
L 618.841138 233.488454 
L 618.841138 233.511439 
L 619.185139 233.676029 
L 619.185139 233.54064 
L 619.534274 233.694256 
L 619.534274 233.568717 
L 619.878519 233.704685 
L 619.878519 233.535868 
L 620.22252 233.491222 
L 620.566765 233.331003 
L 620.916145 233.452199 
L 620.916145 233.318613 
L 624.699663 233.735576 
L 624.699663 233.619891 
L 625.043664 233.763768 
L 625.043664 233.666024 
L 625.38742 233.780135 
L 625.38742 233.643232 
L 629.177296 233.544608 
L 629.177296 233.536804 
L 629.865053 233.67448 
L 629.865053 233.573037 
L 630.558189 233.771859 
L 630.558189 233.668773 
L 630.558189 233.759812 
L 632.626349 233.634749 
L 632.626349 233.674442 
L 633.314106 233.819033 
L 633.314106 233.684526 
L 634.002108 233.786387 
L 634.002108 233.679645 
L 634.345864 233.816505 
L 634.345864 233.669763 
L 635.033621 233.776669 
L 635.033621 233.681904 
L 635.377377 233.796797 
L 635.377377 233.6968 
L 636.759003 233.690575 
L 637.10276 233.8023 
L 637.10276 233.669216 
L 637.446516 233.771603 
L 637.446516 233.672689 
L 638.134273 233.788277 
L 638.134273 233.642735 
L 639.170187 233.616289 
L 639.170187 233.66966 
L 639.513454 233.814896 
L 639.513454 233.721154 
L 640.199744 233.820359 
L 640.199744 233.72586 
L 640.543011 233.819022 
L 640.543011 233.680657 
L 640.886034 233.782665 
L 640.886034 233.652959 
L 642.951261 233.492774 
L 642.951261 233.49578 
L 643.980818 233.813476 
L 643.980818 233.715132 
L 646.04091 233.723897 
L 646.384422 233.827727 
L 646.384422 233.7097 
L 647.077069 233.780114 
L 647.077069 233.683876 
L 647.077069 233.784218 
L 647.764581 233.789829 
L 648.457228 233.696952 
L 648.457228 233.737039 
L 651.552257 233.696404 
L 652.244903 233.553957 
L 653.61895 233.701553 
L 653.61895 233.690007 
L 654.305729 233.850168 
L 654.305729 233.754519 
L 654.992508 233.846027 
L 654.992508 233.72332 
L 655.335776 233.79202 
L 655.335776 233.696684 
L 656.366555 233.619154 
L 656.710067 233.747018 
L 657.059691 233.660972 
L 657.747937 233.827179 
L 662.228259 233.707469 
L 662.91626 233.825835 
L 662.91626 233.771287 
L 663.604506 233.856776 
L 663.604506 233.755043 
L 663.948752 233.827024 
L 663.948752 233.729871 
L 665.669 233.738662 
L 665.669 233.768165 
L 666.357001 233.847599 
L 666.357001 233.755098 
L 667.045247 233.855968 
L 667.045247 233.773549 
L 667.739361 233.828156 
L 667.739361 233.762804 
L 668.427118 233.857169 
L 668.427118 233.78613 
L 669.115364 233.819451 
L 669.115364 233.730039 
L 669.80361 233.75751 
L 669.80361 233.699218 
L 670.147366 233.760718 
L 670.147366 233.640705 
L 670.835367 233.656836 
L 670.835367 233.567491 
L 671.179612 233.64523 
L 671.179612 233.528896 
L 671.872748 233.591441 
L 671.872748 233.479136 
L 671.872748 233.599384 
L 672.910374 233.604633 
L 672.910374 233.563172 
L 673.59862 233.707647 
L 673.59862 233.621436 
L 674.982691 233.689518 
L 674.982691 233.610392 
L 675.671181 233.74961 
L 675.671181 233.665819 
L 676.359427 233.756914 
L 676.359427 233.644889 
L 676.703672 233.733524 
L 676.703672 233.652415 
L 677.741542 233.653369 
L 677.741542 233.684318 
L 678.085543 233.80008 
L 678.085543 233.684484 
L 678.773789 233.803171 
L 678.773789 233.740604 
L 679.462279 233.827766 
L 679.462279 233.734978 
L 680.151014 233.826226 
L 680.151014 233.775382 
L 680.495504 233.864408 
L 680.495504 233.754664 
L 680.839994 233.817108 
L 680.839994 233.761656 
L 681.873218 233.757111 
L 682.566598 233.801082 
L 682.566598 233.725325 
L 683.260712 233.857187 
L 683.260712 233.803322 
L 683.605202 233.879342 
L 683.605202 233.818428 
L 687.391166 233.576509 
L 687.735411 233.680936 
L 687.735411 233.612317 
L 688.42928 233.67976 
L 688.42928 233.568588 
L 689.117526 233.631406 
L 689.117526 233.574891 
L 689.805528 233.626346 
L 689.805528 233.600221 
L 690.494018 233.7192 
L 690.494018 233.628819 
L 691.182753 233.594448 
L 691.182753 233.627022 
L 691.870999 233.694181 
L 692.220134 233.61089 
L 692.564379 233.705415 
L 692.564379 233.604182 
L 693.257759 233.673773 
L 693.94625 233.652481 
L 693.94625 233.751463 
L 694.978741 233.788406 
L 694.978741 233.731207 
L 697.387479 233.792136 
L 697.387479 233.704203 
L 697.73148 233.662853 
L 698.770084 233.868088 
L 698.770084 233.775735 
L 699.458818 233.851015 
L 699.458818 233.779543 
L 699.802575 233.864616 
L 699.802575 233.797823 
L 701.179067 233.754901 
L 701.179067 233.791457 
L 702.211558 233.777171 
L 702.560693 233.883738 
L 702.560693 233.80194 
L 703.248939 233.843939 
L 703.248939 233.767916 
L 703.9587 233.909167 
L 703.9587 233.802808 
L 706.367683 233.843981 
L 706.367683 233.753636 
L 708.087931 233.859951 
L 708.087931 233.789334 
L 708.431932 233.798753 
L 708.781556 233.685914 
L 709.814047 233.866752 
L 709.814047 233.819076 
L 712.573632 233.815399 
L 712.917633 233.883074 
L 712.917633 233.800098 
L 715.332483 233.781032 
L 715.676484 233.873476 
L 715.676484 233.779599 
L 716.020729 233.828347 
L 716.020729 233.744429 
L 718.08669 233.780913 
L 718.08669 233.794144 
L 718.43069 233.874722 
L 718.43069 233.823867 
L 719.811094 233.781139 
L 720.155584 233.877569 
L 720.155584 233.866778 
L 720.848475 233.802343 
L 720.848475 233.815707 
L 721.192231 233.807042 
L 721.192231 233.827038 
L 721.879988 233.929029 
L 721.879988 233.854014 
L 722.567501 233.871956 
L 722.567501 233.795372 
L 723.59828 233.912866 
L 723.59828 233.846662 
L 723.942036 233.915772 
L 723.942036 233.840299 
L 727.727511 233.756337 
L 727.727511 233.781777 
L 728.769538 233.840303 
L 731.178521 233.828898 
L 732.208811 233.731621 
L 733.589215 233.868695 
L 742.174808 233.914347 
L 742.174808 233.856151 
L 744.250548 233.78459 
L 745.626062 233.962363 
L 745.626062 233.88884 
L 745.96884 233.945591 
L 745.96884 233.889058 
L 751.116626 233.907998 
L 751.116626 233.922396 
L 753.520719 233.835948 
L 754.205787 233.753677 
L 756.60988 233.900479 
L 757.295436 233.814735 
L 758.324994 233.867554 
L 758.324994 233.859691 
L 759.696107 233.857709 
L 760.391932 233.886532 
L 782.71286 233.885357 
L 782.71286 233.863199 
L 783.398661 233.853811 
L 783.398661 233.886039 
L 784.084217 233.839408 
L 785.112796 233.849585 
L 785.112796 233.855296 
L 785.798353 233.874131 
L 786.833533 233.872634 
L 787.861135 233.902297 
L 787.861135 233.882955 
L 788.888736 233.860767 
L 789.915848 233.935181 
L 789.915848 233.9177 
L 795.334776 233.882257 
L 795.667042 233.807102 
L 797.018595 233.893879 
L 801.34122 233.79872 
L 801.34122 233.834716 
L 802.004772 233.872673 
L 803.663897 233.942613 
L 803.663897 233.923468 
L 805.326445 233.856684 
L 805.326445 233.873479 
L 806.667241 233.874631 
L 806.667241 233.902399 
L 808.338835 233.917813 
L 809.013145 233.902257 
L 809.681831 233.944705 
L 809.681831 233.88394 
L 812.704734 233.9036 
L 812.704734 233.90441 
L 815.826657 233.978098 
L 816.534951 234.099701 
L 816.534951 234.099701 
" clip-path="url(#p7d3686f768)" style="fill: none; stroke: #008000; stroke-width: 1.5; stroke-linecap: square"/>
   </g>
   <g id="patch_3">
    <path d="M 47.72 534.04 
L 47.72 26.88 
" style="fill: none; stroke: #000000; stroke-width: 0.8; stroke-linejoin: miter; stroke-linecap: square"/>
   </g>
   <g id="patch_4">
    <path d="M 853.2 534.04 
L 853.2 26.88 
" style="fill: none; stroke: #000000; stroke-width: 0.8; stroke-linejoin: miter; stroke-linecap: square"/>
   </g>
   <g id="patch_5">
    <path d="M 47.72 534.04 
L 853.2 534.04 
" style="fill: none; stroke: #000000; stroke-width: 0.8; stroke-linejoin: miter; stroke-linecap: square"/>
   </g>
   <g id="patch_6">
    <path d="M 47.72 26.88 
L 853.2 26.88 
" style="fill: none; stroke: #000000; stroke-width: 0.8; stroke-linejoin: miter; stroke-linecap: square"/>
   </g>
   <g id="patch_7">
    <path d="M 599.86414 360.396965 
Q 573.712847 366.222015 547.561553 372.047065 
L 548.431217 375.951381 
Q 541.924376 374.327221 535.417536 372.70306 
Q 540.61988 368.470747 545.822225 364.238433 
L 546.691889 368.142749 
Q 572.843183 362.317699 598.994476 356.492648 
L 599.86414 360.396965 
z
" style="stroke: #000000; stroke-linecap: round"/>
   </g>
   <g id="text_15">
    <!-- Peak: RT=3.06, Area=1.29e+04 -->
    <g style="fill: #ff0000" transform="translate(605.101402 343.90388) scale(0.1 -0.1)">
     <defs>
      <path id="DejaVuSans-50" d="M 1259 4147 
L 1259 2394 
L 2053 2394 
Q 2494 2394 2734 2622 
Q 2975 2850 2975 3272 
Q 2975 3691 2734 3919 
Q 2494 4147 2053 4147 
L 1259 4147 
z
M 628 4666 
L 2053 4666 
Q 2838 4666 3239 4311 
Q 3641 3956 3641 3272 
Q 3641 2581 3239 2228 
Q 2838 1875 2053 1875 
L 1259 1875 
L 1259 0 
L 628 0 
L 628 4666 
z
" transform="scale(0.015625)"/>
      <path id="DejaVuSans-6b" d="M 581 4863 
L 1159 4863 
L 1159 1991 
L 2875 3500 
L 3609 3500 
L 1753 1863 
L 3688 0 
L 2938 0 
L 1159 1709 
L 1159 0 
L 581 0 
L 581 4863 
z
" transform="scale(0.015625)"/>
      <path id="DejaVuSans-3a" d="M 750 794 
L 1409 794 
L 1409 0 
L 750 0 
L 750 794 
z
M 750 3309 
L 1409 3309 
L 1409 2516 
L 750 2516 
L 750 3309 
z
" transform="scale(0.015625)"/>
      <path id="DejaVuSans-3d" d="M 678 2906 
L 4684 2906 
L 4684 2381 
L 678 2381 
L 678 2906 
z
M 678 1631 
L 4684 1631 
L 4684 1100 
L 678 1100 
L 678 1631 
z
" transform="scale(0.015625)"/>
      <path id="DejaVuSans-36" d="M 2113 2584 
Q 1688 2584 1439 2293 
Q 1191 2003 1191 1497 
Q 1191 994 1439 701 
Q 1688 409 2113 409 
Q 2538 409 2786 701 
Q 3034 994 3034 1497 
Q 3034 2003 2786 2293 
Q 2538 2584 2113 2584 
z
M 3366 4563 
L 3366 3988 
Q 3128 4100 2886 4159 
Q 2644 4219 2406 4219 
Q 1781 4219 1451 3797 
Q 1122 3375 1075 2522 
Q 1259 2794 1537 2939 
Q 1816 3084 2150 3084 
Q 2853 3084 3261 2657 
Q 3669 2231 3669 1497 
Q 3669 778 3244 343 
Q 2819 -91 2113 -91 
Q 1303 -91 875 529 
Q 447 1150 447 2328 
Q 447 3434 972 4092 
Q 1497 4750 2381 4750 
Q 2619 4750 2861 4703 
Q 3103 4656 3366 4563 
z
" transform="scale(0.015625)"/>
      <path id="DejaVuSans-2c" d="M 750 794 
L 1409 794 
L 1409 256 
L 897 -744 
L 494 -744 
L 750 256 
L 750 794 
z
" transform="scale(0.015625)"/>
      <path id="DejaVuSans-41" d="M 2188 4044 
L 1331 1722 
L 3047 1722 
L 2188 4044 
z
M 1831 4666 
L 2547 4666 
L 4325 0 
L 3669 0 
L 3244 1197 
L 1141 1197 
L 716 0 
L 50 0 
L 1831 4666 
z
" transform="scale(0.015625)"/>
      <path id="DejaVuSans-39" d="M 703 97 
L 703 672 
Q 941 559 1184 500 
Q 1428 441 1663 441 
Q 2288 441 2617 861 
Q 2947 1281 2994 2138 
Q 2813 1869 2534 1725 
Q 2256 1581 1919 1581 
Q 1219 1581 811 2004 
Q 403 2428 403 3163 
Q 403 3881 828 4315 
Q 1253 4750 1959 4750 
Q 2769 4750 3195 4129 
Q 3622 3509 3622 2328 
Q 3622 1225 3098 567 
Q 2575 -91 1691 -91 
Q 1453 -91 1209 -44 
Q 966 3 703 97 
z
M 1959 2075 
Q 2384 2075 2632 2365 
Q 2881 2656 2881 3163 
Q 2881 3666 2632 3958 
Q 2384 4250 1959 4250 
Q 1534 4250 1286 3958 
Q 1038 3666 1038 3163 
Q 1038 2656 1286 2365 
Q 1534 2075 1959 2075 
z
" transform="scale(0.015625)"/>
      <path id="DejaVuSans-2b" d="M 2944 4013 
L 2944 2272 
L 4684 2272 
L 4684 1741 
L 2944 1741 
L 2944 0 
L 2419 0 
L 2419 1741 
L 678 1741 
L 678 2272 
L 2419 2272 
L 2419 4013 
L 2944 4013 
z
" transform="scale(0.015625)"/>
     </defs>
     <use xlink:href="#DejaVuSans-50"/>
     <use xlink:href="#DejaVuSans-65" transform="translate(56.677734 0)"/>
     <use xlink:href="#DejaVuSans-61" transform="translate(118.201172 0)"/>
     <use xlink:href="#DejaVuSans-6b" transform="translate(179.480469 0)"/>
     <use xlink:href="#DejaVuSans-3a" transform="translate(237.390625 0)"/>
     <use xlink:href="#DejaVuSans-20" transform="translate(271.082031 0)"/>
     <use xlink:href="#DejaVuSans-52" transform="translate(302.869141 0)"/>
     <use xlink:href="#DejaVuSans-54" transform="translate(365.101562 0)"/>
     <use xlink:href="#DejaVuSans-3d" transform="translate(426.185547 0)"/>
     <use xlink:href="#DejaVuSans-33" transform="translate(509.974609 0)"/>
     <use xlink:href="#DejaVuSans-2e" transform="translate(573.597656 0)"/>
     <use xlink:href="#DejaVuSans-30" transform="translate(605.384766 0)"/>
     <use xlink:href="#DejaVuSans-36" transform="translate(669.007812 0)"/>
     <use xlink:href="#DejaVuSans-2c" transform="translate(732.630859 0)"/>
     <use xlink:href="#DejaVuSans-20" transform="translate(764.417969 0)"/>
     <use xlink:href="#DejaVuSans-41" transform="translate(796.205078 0)"/>
     <use xlink:href="#DejaVuSans-72" transform="translate(864.613281 0)"/>
     <use xlink:href="#DejaVuSans-65" transform="translate(903.476562 0)"/>
     <use xlink:href="#DejaVuSans-61" transform="translate(965 0)"/>
     <use xlink:href="#DejaVuSans-3d" transform="translate(1026.279297 0)"/>
     <use xlink:href="#DejaVuSans-31" transform="translate(1110.068359 0)"/>
     <use xlink:href="#DejaVuSans-2e" transform="translate(1173.691406 0)"/>
     <use xlink:href="#DejaVuSans-32" transform="translate(1205.478516 0)"/>
     <use xlink:href="#DejaVuSans-39" transform="translate(1269.101562 0)"/>
     <use xlink:href="#DejaVuSans-65" transform="translate(1332.724609 0)"/>
     <use xlink:href="#DejaVuSans-2b" transform="translate(1394.248047 0)"/>
     <use xlink:href="#DejaVuSans-30" transform="translate(1478.037109 0)"/>
     <use xlink:href="#DejaVuSans-34" transform="translate(1541.660156 0)"/>
    </g>
    <!-- (41.33% of total) -->
    <g style="fill: #ff0000" transform="translate(605.101402 355.101693) scale(0.1 -0.1)">
     <defs>
      <path id="DejaVuSans-25" d="M 4653 2053 
Q 4381 2053 4226 1822 
Q 4072 1591 4072 1178 
Q 4072 772 4226 539 
Q 4381 306 4653 306 
Q 4919 306 5073 539 
Q 5228 772 5228 1178 
Q 5228 1588 5073 1820 
Q 4919 2053 4653 2053 
z
M 4653 2450 
Q 5147 2450 5437 2106 
Q 5728 1763 5728 1178 
Q 5728 594 5436 251 
Q 5144 -91 4653 -91 
Q 4153 -91 3862 251 
Q 3572 594 3572 1178 
Q 3572 1766 3864 2108 
Q 4156 2450 4653 2450 
z
M 1428 4353 
Q 1159 4353 1004 4120 
Q 850 3888 850 3481 
Q 850 3069 1003 2837 
Q 1156 2606 1428 2606 
Q 1700 2606 1854 2837 
Q 2009 3069 2009 3481 
Q 2009 3884 1853 4118 
Q 1697 4353 1428 4353 
z
M 4250 4750 
L 4750 4750 
L 1831 -91 
L 1331 -91 
L 4250 4750 
z
M 1428 4750 
Q 1922 4750 2215 4408 
Q 2509 4066 2509 3481 
Q 2509 2891 2217 2550 
Q 1925 2209 1428 2209 
Q 931 2209 642 2551 
Q 353 2894 353 3481 
Q 353 4063 643 4406 
Q 934 4750 1428 4750 
z
" transform="scale(0.015625)"/>
      <path id="DejaVuSans-66" d="M 2375 4863 
L 2375 4384 
L 1825 4384 
Q 1516 4384 1395 4259 
Q 1275 4134 1275 3809 
L 1275 3500 
L 2222 3500 
L 2222 3053 
L 1275 3053 
L 1275 0 
L 697 0 
L 697 3053 
L 147 3053 
L 147 3500 
L 697 3500 
L 697 3744 
Q 697 4328 969 4595 
Q 1241 4863 1831 4863 
L 2375 4863 
z
" transform="scale(0.015625)"/>
     </defs>
     <use xlink:href="#DejaVuSans-28"/>
     <use xlink:href="#DejaVuSans-34" transform="translate(39.013672 0)"/>
     <use xlink:href="#DejaVuSans-31" transform="translate(102.636719 0)"/>
     <use xlink:href="#DejaVuSans-2e" transform="translate(166.259766 0)"/>
     <use xlink:href="#DejaVuSans-33" transform="translate(198.046875 0)"/>
     <use xlink:href="#DejaVuSans-33" transform="translate(261.669922 0)"/>
     <use xlink:href="#DejaVuSans-25" transform="translate(325.292969 0)"/>
     <use xlink:href="#DejaVuSans-20" transform="translate(420.3125 0)"/>
     <use xlink:href="#DejaVuSans-6f" transform="translate(452.099609 0)"/>
     <use xlink:href="#DejaVuSans-66" transform="translate(513.28125 0)"/>
     <use xlink:href="#DejaVuSans-20" transform="translate(548.486328 0)"/>
     <use xlink:href="#DejaVuSans-74" transform="translate(580.273438 0)"/>
     <use xlink:href="#DejaVuSans-6f" transform="translate(619.482422 0)"/>
     <use xlink:href="#DejaVuSans-74" transform="translate(680.664062 0)"/>
     <use xlink:href="#DejaVuSans-61" transform="translate(719.873047 0)"/>
     <use xlink:href="#DejaVuSans-6c" transform="translate(781.152344 0)"/>
     <use xlink:href="#DejaVuSans-29" transform="translate(808.935547 0)"/>
    </g>
   </g>
   <g id="text_16">
    <!-- UV and MS Chromatograms of IrCp4N14, target m/z = 775.0855756 -->
    <g transform="translate(245.830938 20.88) scale(0.12 -0.12)">
     <defs>
      <path id="DejaVuSans-55" d="M 556 4666 
L 1191 4666 
L 1191 1831 
Q 1191 1081 1462 751 
Q 1734 422 2344 422 
Q 2950 422 3222 751 
Q 3494 1081 3494 1831 
L 3494 4666 
L 4128 4666 
L 4128 1753 
Q 4128 841 3676 375 
Q 3225 -91 2344 -91 
Q 1459 -91 1007 375 
Q 556 841 556 1753 
L 556 4666 
z
" transform="scale(0.015625)"/>
      <path id="DejaVuSans-56" d="M 1831 0 
L 50 4666 
L 709 4666 
L 2188 738 
L 3669 4666 
L 4325 4666 
L 2547 0 
L 1831 0 
z
" transform="scale(0.015625)"/>
      <path id="DejaVuSans-4d" d="M 628 4666 
L 1569 4666 
L 2759 1491 
L 3956 4666 
L 4897 4666 
L 4897 0 
L 4281 0 
L 4281 4097 
L 3078 897 
L 2444 897 
L 1241 4097 
L 1241 0 
L 628 0 
L 628 4666 
z
" transform="scale(0.015625)"/>
      <path id="DejaVuSans-53" d="M 3425 4513 
L 3425 3897 
Q 3066 4069 2747 4153 
Q 2428 4238 2131 4238 
Q 1616 4238 1336 4038 
Q 1056 3838 1056 3469 
Q 1056 3159 1242 3001 
Q 1428 2844 1947 2747 
L 2328 2669 
Q 3034 2534 3370 2195 
Q 3706 1856 3706 1288 
Q 3706 609 3251 259 
Q 2797 -91 1919 -91 
Q 1588 -91 1214 -16 
Q 841 59 441 206 
L 441 856 
Q 825 641 1194 531 
Q 1563 422 1919 422 
Q 2459 422 2753 634 
Q 3047 847 3047 1241 
Q 3047 1584 2836 1778 
Q 2625 1972 2144 2069 
L 1759 2144 
Q 1053 2284 737 2584 
Q 422 2884 422 3419 
Q 422 4038 858 4394 
Q 1294 4750 2059 4750 
Q 2388 4750 2728 4690 
Q 3069 4631 3425 4513 
z
" transform="scale(0.015625)"/>
      <path id="DejaVuSans-43" d="M 4122 4306 
L 4122 3641 
Q 3803 3938 3442 4084 
Q 3081 4231 2675 4231 
Q 1875 4231 1450 3742 
Q 1025 3253 1025 2328 
Q 1025 1406 1450 917 
Q 1875 428 2675 428 
Q 3081 428 3442 575 
Q 3803 722 4122 1019 
L 4122 359 
Q 3791 134 3420 21 
Q 3050 -91 2638 -91 
Q 1578 -91 968 557 
Q 359 1206 359 2328 
Q 359 3453 968 4101 
Q 1578 4750 2638 4750 
Q 3056 4750 3426 4639 
Q 3797 4528 4122 4306 
z
" transform="scale(0.015625)"/>
      <path id="DejaVuSans-68" d="M 3513 2113 
L 3513 0 
L 2938 0 
L 2938 2094 
Q 2938 2591 2744 2837 
Q 2550 3084 2163 3084 
Q 1697 3084 1428 2787 
Q 1159 2491 1159 1978 
L 1159 0 
L 581 0 
L 581 4863 
L 1159 4863 
L 1159 2956 
Q 1366 3272 1645 3428 
Q 1925 3584 2291 3584 
Q 2894 3584 3203 3211 
Q 3513 2838 3513 2113 
z
" transform="scale(0.015625)"/>
      <path id="DejaVuSans-67" d="M 2906 1791 
Q 2906 2416 2648 2759 
Q 2391 3103 1925 3103 
Q 1463 3103 1205 2759 
Q 947 2416 947 1791 
Q 947 1169 1205 825 
Q 1463 481 1925 481 
Q 2391 481 2648 825 
Q 2906 1169 2906 1791 
z
M 3481 434 
Q 3481 -459 3084 -895 
Q 2688 -1331 1869 -1331 
Q 1566 -1331 1297 -1286 
Q 1028 -1241 775 -1147 
L 775 -588 
Q 1028 -725 1275 -790 
Q 1522 -856 1778 -856 
Q 2344 -856 2625 -561 
Q 2906 -266 2906 331 
L 2906 616 
Q 2728 306 2450 153 
Q 2172 0 1784 0 
Q 1141 0 747 490 
Q 353 981 353 1791 
Q 353 2603 747 3093 
Q 1141 3584 1784 3584 
Q 2172 3584 2450 3431 
Q 2728 3278 2906 2969 
L 2906 3500 
L 3481 3500 
L 3481 434 
z
" transform="scale(0.015625)"/>
      <path id="DejaVuSans-70" d="M 1159 525 
L 1159 -1331 
L 581 -1331 
L 581 3500 
L 1159 3500 
L 1159 2969 
Q 1341 3281 1617 3432 
Q 1894 3584 2278 3584 
Q 2916 3584 3314 3078 
Q 3713 2572 3713 1747 
Q 3713 922 3314 415 
Q 2916 -91 2278 -91 
Q 1894 -91 1617 61 
Q 1341 213 1159 525 
z
M 3116 1747 
Q 3116 2381 2855 2742 
Q 2594 3103 2138 3103 
Q 1681 3103 1420 2742 
Q 1159 2381 1159 1747 
Q 1159 1113 1420 752 
Q 1681 391 2138 391 
Q 2594 391 2855 752 
Q 3116 1113 3116 1747 
z
" transform="scale(0.015625)"/>
      <path id="DejaVuSans-2f" d="M 1625 4666 
L 2156 4666 
L 531 -594 
L 0 -594 
L 1625 4666 
z
" transform="scale(0.015625)"/>
      <path id="DejaVuSans-37" d="M 525 4666 
L 3525 4666 
L 3525 4397 
L 1831 0 
L 1172 0 
L 2766 4134 
L 525 4134 
L 525 4666 
z
" transform="scale(0.015625)"/>
      <path id="DejaVuSans-38" d="M 2034 2216 
Q 1584 2216 1326 1975 
Q 1069 1734 1069 1313 
Q 1069 891 1326 650 
Q 1584 409 2034 409 
Q 2484 409 2743 651 
Q 3003 894 3003 1313 
Q 3003 1734 2745 1975 
Q 2488 2216 2034 2216 
z
M 1403 2484 
Q 997 2584 770 2862 
Q 544 3141 544 3541 
Q 544 4100 942 4425 
Q 1341 4750 2034 4750 
Q 2731 4750 3128 4425 
Q 3525 4100 3525 3541 
Q 3525 3141 3298 2862 
Q 3072 2584 2669 2484 
Q 3125 2378 3379 2068 
Q 3634 1759 3634 1313 
Q 3634 634 3220 271 
Q 2806 -91 2034 -91 
Q 1263 -91 848 271 
Q 434 634 434 1313 
Q 434 1759 690 2068 
Q 947 2378 1403 2484 
z
M 1172 3481 
Q 1172 3119 1398 2916 
Q 1625 2713 2034 2713 
Q 2441 2713 2670 2916 
Q 2900 3119 2900 3481 
Q 2900 3844 2670 4047 
Q 2441 4250 2034 4250 
Q 1625 4250 1398 4047 
Q 1172 3844 1172 3481 
z
" transform="scale(0.015625)"/>
     </defs>
     <use xlink:href="#DejaVuSans-55"/>
     <use xlink:href="#DejaVuSans-56" transform="translate(73.193359 0)"/>
     <use xlink:href="#DejaVuSans-20" transform="translate(141.601562 0)"/>
     <use xlink:href="#DejaVuSans-61" transform="translate(173.388672 0)"/>
     <use xlink:href="#DejaVuSans-6e" transform="translate(234.667969 0)"/>
     <use xlink:href="#DejaVuSans-64" transform="translate(298.046875 0)"/>
     <use xlink:href="#DejaVuSans-20" transform="translate(361.523438 0)"/>
     <use xlink:href="#DejaVuSans-4d" transform="translate(393.310547 0)"/>
     <use xlink:href="#DejaVuSans-53" transform="translate(479.589844 0)"/>
     <use xlink:href="#DejaVuSans-20" transform="translate(543.066406 0)"/>
     <use xlink:href="#DejaVuSans-43" transform="translate(574.853516 0)"/>
     <use xlink:href="#DejaVuSans-68" transform="translate(644.677734 0)"/>
     <use xlink:href="#DejaVuSans-72" transform="translate(708.056641 0)"/>
     <use xlink:href="#DejaVuSans-6f" transform="translate(746.919922 0)"/>
     <use xlink:href="#DejaVuSans-6d" transform="translate(808.101562 0)"/>
     <use xlink:href="#DejaVuSans-61" transform="translate(905.513672 0)"/>
     <use xlink:href="#DejaVuSans-74" transform="translate(966.792969 0)"/>
     <use xlink:href="#DejaVuSans-6f" transform="translate(1006.001953 0)"/>
     <use xlink:href="#DejaVuSans-67" transform="translate(1067.183594 0)"/>
     <use xlink:href="#DejaVuSans-72" transform="translate(1130.660156 0)"/>
     <use xlink:href="#DejaVuSans-61" transform="translate(1171.773438 0)"/>
     <use xlink:href="#DejaVuSans-6d" transform="translate(1233.052734 0)"/>
     <use xlink:href="#DejaVuSans-73" transform="translate(1330.464844 0)"/>
     <use xlink:href="#DejaVuSans-20" transform="translate(1382.564453 0)"/>
     <use xlink:href="#DejaVuSans-6f" transform="translate(1414.351562 0)"/>
     <use xlink:href="#DejaVuSans-66" transform="translate(1475.533203 0)"/>
     <use xlink:href="#DejaVuSans-20" transform="translate(1510.738281 0)"/>
     <use xlink:href="#DejaVuSans-49" transform="translate(1542.525391 0)"/>
     <use xlink:href="#DejaVuSans-72" transform="translate(1572.017578 0)"/>
     <use xlink:href="#DejaVuSans-43" transform="translate(1613.130859 0)"/>
     <use xlink:href="#DejaVuSans-70" transform="translate(1682.955078 0)"/>
     <use xlink:href="#DejaVuSans-34" transform="translate(1746.431641 0)"/>
     <use xlink:href="#DejaVuSans-4e" transform="translate(1810.054688 0)"/>
     <use xlink:href="#DejaVuSans-31" transform="translate(1884.859375 0)"/>
     <use xlink:href="#DejaVuSans-34" transform="translate(1948.482422 0)"/>
     <use xlink:href="#DejaVuSans-2c" transform="translate(2012.105469 0)"/>
     <use xlink:href="#DejaVuSans-20" transform="translate(2043.892578 0)"/>
     <use xlink:href="#DejaVuSans-74" transform="translate(2075.679688 0)"/>
     <use xlink:href="#DejaVuSans-61" transform="translate(2114.888672 0)"/>
     <use xlink:href="#DejaVuSans-72" transform="translate(2176.167969 0)"/>
     <use xlink:href="#DejaVuSans-67" transform="translate(2215.53125 0)"/>
     <use xlink:href="#DejaVuSans-65" transform="translate(2279.007812 0)"/>
     <use xlink:href="#DejaVuSans-74" transform="translate(2340.53125 0)"/>
     <use xlink:href="#DejaVuSans-20" transform="translate(2379.740234 0)"/>
     <use xlink:href="#DejaVuSans-6d" transform="translate(2411.527344 0)"/>
     <use xlink:href="#DejaVuSans-2f" transform="translate(2508.939453 0)"/>
     <use xlink:href="#DejaVuSans-7a" transform="translate(2542.630859 0)"/>
     <use xlink:href="#DejaVuSans-20" transform="translate(2595.121094 0)"/>
     <use xlink:href="#DejaVuSans-3d" transform="translate(2626.908203 0)"/>
     <use xlink:href="#DejaVuSans-20" transform="translate(2710.697266 0)"/>
     <use xlink:href="#DejaVuSans-37" transform="translate(2742.484375 0)"/>
     <use xlink:href="#DejaVuSans-37" transform="translate(2806.107422 0)"/>
     <use xlink:href="#DejaVuSans-35" transform="translate(2869.730469 0)"/>
     <use xlink:href="#DejaVuSans-2e" transform="translate(2933.353516 0)"/>
     <use xlink:href="#DejaVuSans-30" transform="translate(2965.140625 0)"/>
     <use xlink:href="#DejaVuSans-38" transform="translate(3028.763672 0)"/>
     <use xlink:href="#DejaVuSans-35" transform="translate(3092.386719 0)"/>
     <use xlink:href="#DejaVuSans-35" transform="translate(3156.009766 0)"/>
     <use xlink:href="#DejaVuSans-37" transform="translate(3219.632812 0)"/>
     <use xlink:href="#DejaVuSans-35" transform="translate(3283.255859 0)"/>
     <use xlink:href="#DejaVuSans-36" transform="translate(3346.878906 0)"/>
    </g>
   </g>
   <g id="legend_1">
    <g id="patch_8">
     <path d="M 685.971875 64.23625 
L 846.2 64.23625 
Q 848.2 64.23625 848.2 62.23625 
L 848.2 33.88 
Q 848.2 31.88 846.2 31.88 
L 685.971875 31.88 
Q 683.971875 31.88 683.971875 33.88 
L 683.971875 62.23625 
Q 683.971875 64.23625 685.971875 64.23625 
z
" style="fill: #ffffff; opacity: 0.8; stroke: #cccccc; stroke-linejoin: miter"/>
    </g>
    <g id="line2d_15">
     <path d="M 687.971875 39.978437 
L 697.971875 39.978437 
L 707.971875 39.978437 
" style="fill: none; stroke: #0000ff; stroke-width: 1.5; stroke-linecap: square"/>
    </g>
    <g id="text_17">
     <!-- UV Intensity (normalized) -->
     <g transform="translate(715.971875 43.478437) scale(0.1 -0.1)">
      <use xlink:href="#DejaVuSans-55"/>
      <use xlink:href="#DejaVuSans-56" transform="translate(73.193359 0)"/>
      <use xlink:href="#DejaVuSans-20" transform="translate(141.601562 0)"/>
      <use xlink:href="#DejaVuSans-49" transform="translate(173.388672 0)"/>
      <use xlink:href="#DejaVuSans-6e" transform="translate(202.880859 0)"/>
      <use xlink:href="#DejaVuSans-74" transform="translate(266.259766 0)"/>
      <use xlink:href="#DejaVuSans-65" transform="translate(305.46875 0)"/>
      <use xlink:href="#DejaVuSans-6e" transform="translate(366.992188 0)"/>
      <use xlink:href="#DejaVuSans-73" transform="translate(430.371094 0)"/>
      <use xlink:href="#DejaVuSans-69" transform="translate(482.470703 0)"/>
      <use xlink:href="#DejaVuSans-74" transform="translate(510.253906 0)"/>
      <use xlink:href="#DejaVuSans-79" transform="translate(549.462891 0)"/>
      <use xlink:href="#DejaVuSans-20" transform="translate(608.642578 0)"/>
      <use xlink:href="#DejaVuSans-28" transform="translate(640.429688 0)"/>
      <use xlink:href="#DejaVuSans-6e" transform="translate(679.443359 0)"/>
      <use xlink:href="#DejaVuSans-6f" transform="translate(742.822266 0)"/>
      <use xlink:href="#DejaVuSans-72" transform="translate(804.003906 0)"/>
      <use xlink:href="#DejaVuSans-6d" transform="translate(843.367188 0)"/>
      <use xlink:href="#DejaVuSans-61" transform="translate(940.779297 0)"/>
      <use xlink:href="#DejaVuSans-6c" transform="translate(1002.058594 0)"/>
      <use xlink:href="#DejaVuSans-69" transform="translate(1029.841797 0)"/>
      <use xlink:href="#DejaVuSans-7a" transform="translate(1057.625 0)"/>
      <use xlink:href="#DejaVuSans-65" transform="translate(1110.115234 0)"/>
      <use xlink:href="#DejaVuSans-64" transform="translate(1171.638672 0)"/>
      <use xlink:href="#DejaVuSans-29" transform="translate(1235.115234 0)"/>
     </g>
    </g>
    <g id="line2d_16">
     <path d="M 687.971875 54.656562 
L 697.971875 54.656562 
L 707.971875 54.656562 
" style="fill: none; stroke: #008000; stroke-width: 1.5; stroke-linecap: square"/>
    </g>
    <g id="text_18">
     <!-- MS Intensity (normalized) -->
     <g transform="translate(715.971875 58.156562) scale(0.1 -0.1)">
      <use xlink:href="#DejaVuSans-4d"/>
      <use xlink:href="#DejaVuSans-53" transform="translate(86.279297 0)"/>
      <use xlink:href="#DejaVuSans-20" transform="translate(149.755859 0)"/>
      <use xlink:href="#DejaVuSans-49" transform="translate(181.542969 0)"/>
      <use xlink:href="#DejaVuSans-6e" transform="translate(211.035156 0)"/>
      <use xlink:href="#DejaVuSans-74" transform="translate(274.414062 0)"/>
      <use xlink:href="#DejaVuSans-65" transform="translate(313.623047 0)"/>
      <use xlink:href="#DejaVuSans-6e" transform="translate(375.146484 0)"/>
      <use xlink:href="#DejaVuSans-73" transform="translate(438.525391 0)"/>
      <use xlink:href="#DejaVuSans-69" transform="translate(490.625 0)"/>
      <use xlink:href="#DejaVuSans-74" transform="translate(518.408203 0)"/>
      <use xlink:href="#DejaVuSans-79" transform="translate(557.617188 0)"/>
      <use xlink:href="#DejaVuSans-20" transform="translate(616.796875 0)"/>
      <use xlink:href="#DejaVuSans-28" transform="translate(648.583984 0)"/>
      <use xlink:href="#DejaVuSans-6e" transform="translate(687.597656 0)"/>
      <use xlink:href="#DejaVuSans-6f" transform="translate(750.976562 0)"/>
      <use xlink:href="#DejaVuSans-72" transform="translate(812.158203 0)"/>
      <use xlink:href="#DejaVuSans-6d" transform="translate(851.521484 0)"/>
      <use xlink:href="#DejaVuSans-61" transform="translate(948.933594 0)"/>
      <use xlink:href="#DejaVuSans-6c" transform="translate(1010.212891 0)"/>
      <use xlink:href="#DejaVuSans-69" transform="translate(1037.996094 0)"/>
      <use xlink:href="#DejaVuSans-7a" transform="translate(1065.779297 0)"/>
      <use xlink:href="#DejaVuSans-65" transform="translate(1118.269531 0)"/>
      <use xlink:href="#DejaVuSans-64" transform="translate(1179.792969 0)"/>
      <use xlink:href="#DejaVuSans-29" transform="translate(1243.269531 0)"/>
     </g>
    </g>
   </g>
  </g>
 </g>
 <defs>
  <clipPath id="p7d3686f768">
   <rect x="47.72" y="26.88" width="805.48" height="507.16"/>
  </clipPath>
 </defs>
</svg>
