<?xml version="1.0" encoding="utf-8" standalone="no"?>
<!DOCTYPE svg PUBLIC "-//W3C//DTD SVG 1.1//EN"
  "http://www.w3.org/Graphics/SVG/1.1/DTD/svg11.dtd">
<svg xmlns:xlink="http://www.w3.org/1999/xlink" width="864pt" height="576pt" viewBox="0 0 864 576" xmlns="http://www.w3.org/2000/svg" version="1.1">
 <metadata>
  <rdf:RDF xmlns:dc="http://purl.org/dc/elements/1.1/" xmlns:cc="http://creativecommons.org/ns#" xmlns:rdf="http://www.w3.org/1999/02/22-rdf-syntax-ns#">
   <cc:Work>
    <dc:type rdf:resource="http://purl.org/dc/dcmitype/StillImage"/>
    <dc:date>2025-03-06T18:14:43.263679</dc:date>
    <dc:format>image/svg+xml</dc:format>
    <dc:creator>
     <cc:Agent>
      <dc:title>Matplotlib v3.10.0, https://matplotlib.org/</dc:title>
     </cc:Agent>
    </dc:creator>
   </cc:Work>
  </rdf:RDF>
 </metadata>
 <defs>
  <style type="text/css">*{stroke-linejoin: round; stroke-linecap: butt}</style>
 </defs>
 <g id="figure_1">
  <g id="patch_1">
   <path d="M 0 576 
L 864 576 
L 864 0 
L 0 0 
z
" style="fill: #ffffff"/>
  </g>
  <g id="axes_1">
   <g id="patch_2">
    <path d="M 47.72 534.04 
L 853.2 534.04 
L 853.2 26.88 
L 47.72 26.88 
z
" style="fill: #ffffff"/>
   </g>
   <g id="matplotlib.axis_1">
    <g id="xtick_1">
     <g id="line2d_1">
      <defs>
       <path id="m3ecede047f" d="M 0 0 
L 0 3.5 
" style="stroke: #000000; stroke-width: 0.8"/>
      </defs>
      <g>
       <use xlink:href="#m3ecede047f" x="83.098041" y="534.04" style="stroke: #000000; stroke-width: 0.8"/>
      </g>
     </g>
     <g id="text_1">
      <!-- 0 -->
      <g transform="translate(79.916791 548.638438) scale(0.1 -0.1)">
       <defs>
        <path id="DejaVuSans-30" d="M 2034 4250 
Q 1547 4250 1301 3770 
Q 1056 3291 1056 2328 
Q 1056 1369 1301 889 
Q 1547 409 2034 409 
Q 2525 409 2770 889 
Q 3016 1369 3016 2328 
Q 3016 3291 2770 3770 
Q 2525 4250 2034 4250 
z
M 2034 4750 
Q 2819 4750 3233 4129 
Q 3647 3509 3647 2328 
Q 3647 1150 3233 529 
Q 2819 -91 2034 -91 
Q 1250 -91 836 529 
Q 422 1150 422 2328 
Q 422 3509 836 4129 
Q 1250 4750 2034 4750 
z
" transform="scale(0.015625)"/>
       </defs>
       <use xlink:href="#DejaVuSans-30"/>
      </g>
     </g>
    </g>
    <g id="xtick_2">
     <g id="line2d_2">
      <g>
       <use xlink:href="#m3ecede047f" x="229.793442" y="534.04" style="stroke: #000000; stroke-width: 0.8"/>
      </g>
     </g>
     <g id="text_2">
      <!-- 1 -->
      <g transform="translate(226.612192 548.638438) scale(0.1 -0.1)">
       <defs>
        <path id="DejaVuSans-31" d="M 794 531 
L 1825 531 
L 1825 4091 
L 703 3866 
L 703 4441 
L 1819 4666 
L 2450 4666 
L 2450 531 
L 3481 531 
L 3481 0 
L 794 0 
L 794 531 
z
" transform="scale(0.015625)"/>
       </defs>
       <use xlink:href="#DejaVuSans-31"/>
      </g>
     </g>
    </g>
    <g id="xtick_3">
     <g id="line2d_3">
      <g>
       <use xlink:href="#m3ecede047f" x="376.488844" y="534.04" style="stroke: #000000; stroke-width: 0.8"/>
      </g>
     </g>
     <g id="text_3">
      <!-- 2 -->
      <g transform="translate(373.307594 548.638438) scale(0.1 -0.1)">
       <defs>
        <path id="DejaVuSans-32" d="M 1228 531 
L 3431 531 
L 3431 0 
L 469 0 
L 469 531 
Q 828 903 1448 1529 
Q 2069 2156 2228 2338 
Q 2531 2678 2651 2914 
Q 2772 3150 2772 3378 
Q 2772 3750 2511 3984 
Q 2250 4219 1831 4219 
Q 1534 4219 1204 4116 
Q 875 4013 500 3803 
L 500 4441 
Q 881 4594 1212 4672 
Q 1544 4750 1819 4750 
Q 2544 4750 2975 4387 
Q 3406 4025 3406 3419 
Q 3406 3131 3298 2873 
Q 3191 2616 2906 2266 
Q 2828 2175 2409 1742 
Q 1991 1309 1228 531 
z
" transform="scale(0.015625)"/>
       </defs>
       <use xlink:href="#DejaVuSans-32"/>
      </g>
     </g>
    </g>
    <g id="xtick_4">
     <g id="line2d_4">
      <g>
       <use xlink:href="#m3ecede047f" x="523.184245" y="534.04" style="stroke: #000000; stroke-width: 0.8"/>
      </g>
     </g>
     <g id="text_4">
      <!-- 3 -->
      <g transform="translate(520.002995 548.638438) scale(0.1 -0.1)">
       <defs>
        <path id="DejaVuSans-33" d="M 2597 2516 
Q 3050 2419 3304 2112 
Q 3559 1806 3559 1356 
Q 3559 666 3084 287 
Q 2609 -91 1734 -91 
Q 1441 -91 1130 -33 
Q 819 25 488 141 
L 488 750 
Q 750 597 1062 519 
Q 1375 441 1716 441 
Q 2309 441 2620 675 
Q 2931 909 2931 1356 
Q 2931 1769 2642 2001 
Q 2353 2234 1838 2234 
L 1294 2234 
L 1294 2753 
L 1863 2753 
Q 2328 2753 2575 2939 
Q 2822 3125 2822 3475 
Q 2822 3834 2567 4026 
Q 2313 4219 1838 4219 
Q 1578 4219 1281 4162 
Q 984 4106 628 3988 
L 628 4550 
Q 988 4650 1302 4700 
Q 1616 4750 1894 4750 
Q 2613 4750 3031 4423 
Q 3450 4097 3450 3541 
Q 3450 3153 3228 2886 
Q 3006 2619 2597 2516 
z
" transform="scale(0.015625)"/>
       </defs>
       <use xlink:href="#DejaVuSans-33"/>
      </g>
     </g>
    </g>
    <g id="xtick_5">
     <g id="line2d_5">
      <g>
       <use xlink:href="#m3ecede047f" x="669.879647" y="534.04" style="stroke: #000000; stroke-width: 0.8"/>
      </g>
     </g>
     <g id="text_5">
      <!-- 4 -->
      <g transform="translate(666.698397 548.638438) scale(0.1 -0.1)">
       <defs>
        <path id="DejaVuSans-34" d="M 2419 4116 
L 825 1625 
L 2419 1625 
L 2419 4116 
z
M 2253 4666 
L 3047 4666 
L 3047 1625 
L 3713 1625 
L 3713 1100 
L 3047 1100 
L 3047 0 
L 2419 0 
L 2419 1100 
L 313 1100 
L 313 1709 
L 2253 4666 
z
" transform="scale(0.015625)"/>
       </defs>
       <use xlink:href="#DejaVuSans-34"/>
      </g>
     </g>
    </g>
    <g id="xtick_6">
     <g id="line2d_6">
      <g>
       <use xlink:href="#m3ecede047f" x="816.575048" y="534.04" style="stroke: #000000; stroke-width: 0.8"/>
      </g>
     </g>
     <g id="text_6">
      <!-- 5 -->
      <g transform="translate(813.393798 548.638438) scale(0.1 -0.1)">
       <defs>
        <path id="DejaVuSans-35" d="M 691 4666 
L 3169 4666 
L 3169 4134 
L 1269 4134 
L 1269 2991 
Q 1406 3038 1543 3061 
Q 1681 3084 1819 3084 
Q 2600 3084 3056 2656 
Q 3513 2228 3513 1497 
Q 3513 744 3044 326 
Q 2575 -91 1722 -91 
Q 1428 -91 1123 -41 
Q 819 9 494 109 
L 494 744 
Q 775 591 1075 516 
Q 1375 441 1709 441 
Q 2250 441 2565 725 
Q 2881 1009 2881 1497 
Q 2881 1984 2565 2268 
Q 2250 2553 1709 2553 
Q 1456 2553 1204 2497 
Q 953 2441 691 2322 
L 691 4666 
z
" transform="scale(0.015625)"/>
       </defs>
       <use xlink:href="#DejaVuSans-35"/>
      </g>
     </g>
    </g>
    <g id="text_7">
     <!-- Retention Time (min) -->
     <g transform="translate(397.61 562.316562) scale(0.1 -0.1)">
      <defs>
       <path id="DejaVuSans-52" d="M 2841 2188 
Q 3044 2119 3236 1894 
Q 3428 1669 3622 1275 
L 4263 0 
L 3584 0 
L 2988 1197 
Q 2756 1666 2539 1819 
Q 2322 1972 1947 1972 
L 1259 1972 
L 1259 0 
L 628 0 
L 628 4666 
L 2053 4666 
Q 2853 4666 3247 4331 
Q 3641 3997 3641 3322 
Q 3641 2881 3436 2590 
Q 3231 2300 2841 2188 
z
M 1259 4147 
L 1259 2491 
L 2053 2491 
Q 2509 2491 2742 2702 
Q 2975 2913 2975 3322 
Q 2975 3731 2742 3939 
Q 2509 4147 2053 4147 
L 1259 4147 
z
" transform="scale(0.015625)"/>
       <path id="DejaVuSans-65" d="M 3597 1894 
L 3597 1613 
L 953 1613 
Q 991 1019 1311 708 
Q 1631 397 2203 397 
Q 2534 397 2845 478 
Q 3156 559 3463 722 
L 3463 178 
Q 3153 47 2828 -22 
Q 2503 -91 2169 -91 
Q 1331 -91 842 396 
Q 353 884 353 1716 
Q 353 2575 817 3079 
Q 1281 3584 2069 3584 
Q 2775 3584 3186 3129 
Q 3597 2675 3597 1894 
z
M 3022 2063 
Q 3016 2534 2758 2815 
Q 2500 3097 2075 3097 
Q 1594 3097 1305 2825 
Q 1016 2553 972 2059 
L 3022 2063 
z
" transform="scale(0.015625)"/>
       <path id="DejaVuSans-74" d="M 1172 4494 
L 1172 3500 
L 2356 3500 
L 2356 3053 
L 1172 3053 
L 1172 1153 
Q 1172 725 1289 603 
Q 1406 481 1766 481 
L 2356 481 
L 2356 0 
L 1766 0 
Q 1100 0 847 248 
Q 594 497 594 1153 
L 594 3053 
L 172 3053 
L 172 3500 
L 594 3500 
L 594 4494 
L 1172 4494 
z
" transform="scale(0.015625)"/>
       <path id="DejaVuSans-6e" d="M 3513 2113 
L 3513 0 
L 2938 0 
L 2938 2094 
Q 2938 2591 2744 2837 
Q 2550 3084 2163 3084 
Q 1697 3084 1428 2787 
Q 1159 2491 1159 1978 
L 1159 0 
L 581 0 
L 581 3500 
L 1159 3500 
L 1159 2956 
Q 1366 3272 1645 3428 
Q 1925 3584 2291 3584 
Q 2894 3584 3203 3211 
Q 3513 2838 3513 2113 
z
" transform="scale(0.015625)"/>
       <path id="DejaVuSans-69" d="M 603 3500 
L 1178 3500 
L 1178 0 
L 603 0 
L 603 3500 
z
M 603 4863 
L 1178 4863 
L 1178 4134 
L 603 4134 
L 603 4863 
z
" transform="scale(0.015625)"/>
       <path id="DejaVuSans-6f" d="M 1959 3097 
Q 1497 3097 1228 2736 
Q 959 2375 959 1747 
Q 959 1119 1226 758 
Q 1494 397 1959 397 
Q 2419 397 2687 759 
Q 2956 1122 2956 1747 
Q 2956 2369 2687 2733 
Q 2419 3097 1959 3097 
z
M 1959 3584 
Q 2709 3584 3137 3096 
Q 3566 2609 3566 1747 
Q 3566 888 3137 398 
Q 2709 -91 1959 -91 
Q 1206 -91 779 398 
Q 353 888 353 1747 
Q 353 2609 779 3096 
Q 1206 3584 1959 3584 
z
" transform="scale(0.015625)"/>
       <path id="DejaVuSans-20" transform="scale(0.015625)"/>
       <path id="DejaVuSans-54" d="M -19 4666 
L 3928 4666 
L 3928 4134 
L 2272 4134 
L 2272 0 
L 1638 0 
L 1638 4134 
L -19 4134 
L -19 4666 
z
" transform="scale(0.015625)"/>
       <path id="DejaVuSans-6d" d="M 3328 2828 
Q 3544 3216 3844 3400 
Q 4144 3584 4550 3584 
Q 5097 3584 5394 3201 
Q 5691 2819 5691 2113 
L 5691 0 
L 5113 0 
L 5113 2094 
Q 5113 2597 4934 2840 
Q 4756 3084 4391 3084 
Q 3944 3084 3684 2787 
Q 3425 2491 3425 1978 
L 3425 0 
L 2847 0 
L 2847 2094 
Q 2847 2600 2669 2842 
Q 2491 3084 2119 3084 
Q 1678 3084 1418 2786 
Q 1159 2488 1159 1978 
L 1159 0 
L 581 0 
L 581 3500 
L 1159 3500 
L 1159 2956 
Q 1356 3278 1631 3431 
Q 1906 3584 2284 3584 
Q 2666 3584 2933 3390 
Q 3200 3197 3328 2828 
z
" transform="scale(0.015625)"/>
       <path id="DejaVuSans-28" d="M 1984 4856 
Q 1566 4138 1362 3434 
Q 1159 2731 1159 2009 
Q 1159 1288 1364 580 
Q 1569 -128 1984 -844 
L 1484 -844 
Q 1016 -109 783 600 
Q 550 1309 550 2009 
Q 550 2706 781 3412 
Q 1013 4119 1484 4856 
L 1984 4856 
z
" transform="scale(0.015625)"/>
       <path id="DejaVuSans-29" d="M 513 4856 
L 1013 4856 
Q 1481 4119 1714 3412 
Q 1947 2706 1947 2009 
Q 1947 1309 1714 600 
Q 1481 -109 1013 -844 
L 513 -844 
Q 928 -128 1133 580 
Q 1338 1288 1338 2009 
Q 1338 2731 1133 3434 
Q 928 4138 513 4856 
z
" transform="scale(0.015625)"/>
      </defs>
      <use xlink:href="#DejaVuSans-52"/>
      <use xlink:href="#DejaVuSans-65" transform="translate(64.982422 0)"/>
      <use xlink:href="#DejaVuSans-74" transform="translate(126.505859 0)"/>
      <use xlink:href="#DejaVuSans-65" transform="translate(165.714844 0)"/>
      <use xlink:href="#DejaVuSans-6e" transform="translate(227.238281 0)"/>
      <use xlink:href="#DejaVuSans-74" transform="translate(290.617188 0)"/>
      <use xlink:href="#DejaVuSans-69" transform="translate(329.826172 0)"/>
      <use xlink:href="#DejaVuSans-6f" transform="translate(357.609375 0)"/>
      <use xlink:href="#DejaVuSans-6e" transform="translate(418.791016 0)"/>
      <use xlink:href="#DejaVuSans-20" transform="translate(482.169922 0)"/>
      <use xlink:href="#DejaVuSans-54" transform="translate(513.957031 0)"/>
      <use xlink:href="#DejaVuSans-69" transform="translate(571.916016 0)"/>
      <use xlink:href="#DejaVuSans-6d" transform="translate(599.699219 0)"/>
      <use xlink:href="#DejaVuSans-65" transform="translate(697.111328 0)"/>
      <use xlink:href="#DejaVuSans-20" transform="translate(758.634766 0)"/>
      <use xlink:href="#DejaVuSans-28" transform="translate(790.421875 0)"/>
      <use xlink:href="#DejaVuSans-6d" transform="translate(829.435547 0)"/>
      <use xlink:href="#DejaVuSans-69" transform="translate(926.847656 0)"/>
      <use xlink:href="#DejaVuSans-6e" transform="translate(954.630859 0)"/>
      <use xlink:href="#DejaVuSans-29" transform="translate(1018.009766 0)"/>
     </g>
    </g>
   </g>
   <g id="matplotlib.axis_2">
    <g id="ytick_1">
     <g id="line2d_7">
      <defs>
       <path id="m1fe64f6c82" d="M 0 0 
L -3.5 0 
" style="stroke: #000000; stroke-width: 0.8"/>
      </defs>
      <g>
       <use xlink:href="#m1fe64f6c82" x="47.72" y="510.974372" style="stroke: #000000; stroke-width: 0.8"/>
      </g>
     </g>
     <g id="text_8">
      <!-- 0.0 -->
      <g style="fill: #0000ff" transform="translate(24.816875 514.773591) scale(0.1 -0.1)">
       <defs>
        <path id="DejaVuSans-2e" d="M 684 794 
L 1344 794 
L 1344 0 
L 684 0 
L 684 794 
z
" transform="scale(0.015625)"/>
       </defs>
       <use xlink:href="#DejaVuSans-30"/>
       <use xlink:href="#DejaVuSans-2e" transform="translate(63.623047 0)"/>
       <use xlink:href="#DejaVuSans-30" transform="translate(95.410156 0)"/>
      </g>
     </g>
    </g>
    <g id="ytick_2">
     <g id="line2d_8">
      <g>
       <use xlink:href="#m1fe64f6c82" x="47.72" y="418.766043" style="stroke: #000000; stroke-width: 0.8"/>
      </g>
     </g>
     <g id="text_9">
      <!-- 0.5 -->
      <g style="fill: #0000ff" transform="translate(24.816875 422.565262) scale(0.1 -0.1)">
       <use xlink:href="#DejaVuSans-30"/>
       <use xlink:href="#DejaVuSans-2e" transform="translate(63.623047 0)"/>
       <use xlink:href="#DejaVuSans-35" transform="translate(95.410156 0)"/>
      </g>
     </g>
    </g>
    <g id="ytick_3">
     <g id="line2d_9">
      <g>
       <use xlink:href="#m1fe64f6c82" x="47.72" y="326.557714" style="stroke: #000000; stroke-width: 0.8"/>
      </g>
     </g>
     <g id="text_10">
      <!-- 1.0 -->
      <g style="fill: #0000ff" transform="translate(24.816875 330.356933) scale(0.1 -0.1)">
       <use xlink:href="#DejaVuSans-31"/>
       <use xlink:href="#DejaVuSans-2e" transform="translate(63.623047 0)"/>
       <use xlink:href="#DejaVuSans-30" transform="translate(95.410156 0)"/>
      </g>
     </g>
    </g>
    <g id="ytick_4">
     <g id="line2d_10">
      <g>
       <use xlink:href="#m1fe64f6c82" x="47.72" y="234.349385" style="stroke: #000000; stroke-width: 0.8"/>
      </g>
     </g>
     <g id="text_11">
      <!-- 1.5 -->
      <g style="fill: #0000ff" transform="translate(24.816875 238.148604) scale(0.1 -0.1)">
       <use xlink:href="#DejaVuSans-31"/>
       <use xlink:href="#DejaVuSans-2e" transform="translate(63.623047 0)"/>
       <use xlink:href="#DejaVuSans-35" transform="translate(95.410156 0)"/>
      </g>
     </g>
    </g>
    <g id="ytick_5">
     <g id="line2d_11">
      <g>
       <use xlink:href="#m1fe64f6c82" x="47.72" y="142.141056" style="stroke: #000000; stroke-width: 0.8"/>
      </g>
     </g>
     <g id="text_12">
      <!-- 2.0 -->
      <g style="fill: #0000ff" transform="translate(24.816875 145.940275) scale(0.1 -0.1)">
       <use xlink:href="#DejaVuSans-32"/>
       <use xlink:href="#DejaVuSans-2e" transform="translate(63.623047 0)"/>
       <use xlink:href="#DejaVuSans-30" transform="translate(95.410156 0)"/>
      </g>
     </g>
    </g>
    <g id="ytick_6">
     <g id="line2d_12">
      <g>
       <use xlink:href="#m1fe64f6c82" x="47.72" y="49.932727" style="stroke: #000000; stroke-width: 0.8"/>
      </g>
     </g>
     <g id="text_13">
      <!-- 2.5 -->
      <g style="fill: #0000ff" transform="translate(24.816875 53.731946) scale(0.1 -0.1)">
       <use xlink:href="#DejaVuSans-32"/>
       <use xlink:href="#DejaVuSans-2e" transform="translate(63.623047 0)"/>
       <use xlink:href="#DejaVuSans-35" transform="translate(95.410156 0)"/>
      </g>
     </g>
    </g>
    <g id="text_14">
     <!-- Normalized Intensity -->
     <g style="fill: #0000ff" transform="translate(18.737187 332.167031) rotate(-90) scale(0.1 -0.1)">
      <defs>
       <path id="DejaVuSans-4e" d="M 628 4666 
L 1478 4666 
L 3547 763 
L 3547 4666 
L 4159 4666 
L 4159 0 
L 3309 0 
L 1241 3903 
L 1241 0 
L 628 0 
L 628 4666 
z
" transform="scale(0.015625)"/>
       <path id="DejaVuSans-72" d="M 2631 2963 
Q 2534 3019 2420 3045 
Q 2306 3072 2169 3072 
Q 1681 3072 1420 2755 
Q 1159 2438 1159 1844 
L 1159 0 
L 581 0 
L 581 3500 
L 1159 3500 
L 1159 2956 
Q 1341 3275 1631 3429 
Q 1922 3584 2338 3584 
Q 2397 3584 2469 3576 
Q 2541 3569 2628 3553 
L 2631 2963 
z
" transform="scale(0.015625)"/>
       <path id="DejaVuSans-61" d="M 2194 1759 
Q 1497 1759 1228 1600 
Q 959 1441 959 1056 
Q 959 750 1161 570 
Q 1363 391 1709 391 
Q 2188 391 2477 730 
Q 2766 1069 2766 1631 
L 2766 1759 
L 2194 1759 
z
M 3341 1997 
L 3341 0 
L 2766 0 
L 2766 531 
Q 2569 213 2275 61 
Q 1981 -91 1556 -91 
Q 1019 -91 701 211 
Q 384 513 384 1019 
Q 384 1609 779 1909 
Q 1175 2209 1959 2209 
L 2766 2209 
L 2766 2266 
Q 2766 2663 2505 2880 
Q 2244 3097 1772 3097 
Q 1472 3097 1187 3025 
Q 903 2953 641 2809 
L 641 3341 
Q 956 3463 1253 3523 
Q 1550 3584 1831 3584 
Q 2591 3584 2966 3190 
Q 3341 2797 3341 1997 
z
" transform="scale(0.015625)"/>
       <path id="DejaVuSans-6c" d="M 603 4863 
L 1178 4863 
L 1178 0 
L 603 0 
L 603 4863 
z
" transform="scale(0.015625)"/>
       <path id="DejaVuSans-7a" d="M 353 3500 
L 3084 3500 
L 3084 2975 
L 922 459 
L 3084 459 
L 3084 0 
L 275 0 
L 275 525 
L 2438 3041 
L 353 3041 
L 353 3500 
z
" transform="scale(0.015625)"/>
       <path id="DejaVuSans-64" d="M 2906 2969 
L 2906 4863 
L 3481 4863 
L 3481 0 
L 2906 0 
L 2906 525 
Q 2725 213 2448 61 
Q 2172 -91 1784 -91 
Q 1150 -91 751 415 
Q 353 922 353 1747 
Q 353 2572 751 3078 
Q 1150 3584 1784 3584 
Q 2172 3584 2448 3432 
Q 2725 3281 2906 2969 
z
M 947 1747 
Q 947 1113 1208 752 
Q 1469 391 1925 391 
Q 2381 391 2643 752 
Q 2906 1113 2906 1747 
Q 2906 2381 2643 2742 
Q 2381 3103 1925 3103 
Q 1469 3103 1208 2742 
Q 947 2381 947 1747 
z
" transform="scale(0.015625)"/>
       <path id="DejaVuSans-49" d="M 628 4666 
L 1259 4666 
L 1259 0 
L 628 0 
L 628 4666 
z
" transform="scale(0.015625)"/>
       <path id="DejaVuSans-73" d="M 2834 3397 
L 2834 2853 
Q 2591 2978 2328 3040 
Q 2066 3103 1784 3103 
Q 1356 3103 1142 2972 
Q 928 2841 928 2578 
Q 928 2378 1081 2264 
Q 1234 2150 1697 2047 
L 1894 2003 
Q 2506 1872 2764 1633 
Q 3022 1394 3022 966 
Q 3022 478 2636 193 
Q 2250 -91 1575 -91 
Q 1294 -91 989 -36 
Q 684 19 347 128 
L 347 722 
Q 666 556 975 473 
Q 1284 391 1588 391 
Q 1994 391 2212 530 
Q 2431 669 2431 922 
Q 2431 1156 2273 1281 
Q 2116 1406 1581 1522 
L 1381 1569 
Q 847 1681 609 1914 
Q 372 2147 372 2553 
Q 372 3047 722 3315 
Q 1072 3584 1716 3584 
Q 2034 3584 2315 3537 
Q 2597 3491 2834 3397 
z
" transform="scale(0.015625)"/>
       <path id="DejaVuSans-79" d="M 2059 -325 
Q 1816 -950 1584 -1140 
Q 1353 -1331 966 -1331 
L 506 -1331 
L 506 -850 
L 844 -850 
Q 1081 -850 1212 -737 
Q 1344 -625 1503 -206 
L 1606 56 
L 191 3500 
L 800 3500 
L 1894 763 
L 2988 3500 
L 3597 3500 
L 2059 -325 
z
" transform="scale(0.015625)"/>
      </defs>
      <use xlink:href="#DejaVuSans-4e"/>
      <use xlink:href="#DejaVuSans-6f" transform="translate(74.804688 0)"/>
      <use xlink:href="#DejaVuSans-72" transform="translate(135.986328 0)"/>
      <use xlink:href="#DejaVuSans-6d" transform="translate(175.349609 0)"/>
      <use xlink:href="#DejaVuSans-61" transform="translate(272.761719 0)"/>
      <use xlink:href="#DejaVuSans-6c" transform="translate(334.041016 0)"/>
      <use xlink:href="#DejaVuSans-69" transform="translate(361.824219 0)"/>
      <use xlink:href="#DejaVuSans-7a" transform="translate(389.607422 0)"/>
      <use xlink:href="#DejaVuSans-65" transform="translate(442.097656 0)"/>
      <use xlink:href="#DejaVuSans-64" transform="translate(503.621094 0)"/>
      <use xlink:href="#DejaVuSans-20" transform="translate(567.097656 0)"/>
      <use xlink:href="#DejaVuSans-49" transform="translate(598.884766 0)"/>
      <use xlink:href="#DejaVuSans-6e" transform="translate(628.376953 0)"/>
      <use xlink:href="#DejaVuSans-74" transform="translate(691.755859 0)"/>
      <use xlink:href="#DejaVuSans-65" transform="translate(730.964844 0)"/>
      <use xlink:href="#DejaVuSans-6e" transform="translate(792.488281 0)"/>
      <use xlink:href="#DejaVuSans-73" transform="translate(855.867188 0)"/>
      <use xlink:href="#DejaVuSans-69" transform="translate(907.966797 0)"/>
      <use xlink:href="#DejaVuSans-74" transform="translate(935.75 0)"/>
      <use xlink:href="#DejaVuSans-79" transform="translate(974.958984 0)"/>
     </g>
    </g>
   </g>
   <g id="line2d_13">
    <path d="M 84.332727 510.974372 
L 162.570275 510.88731 
L 165.015198 510.646736 
L 167.460121 509.97671 
L 168.682583 509.612769 
L 169.905045 509.399444 
L 171.127506 509.413016 
L 172.349968 509.634934 
L 176.017353 510.561103 
L 178.462277 510.776545 
L 184.574585 510.898702 
L 188.24197 510.670638 
L 190.686893 510.512924 
L 194.354278 510.589341 
L 198.021663 510.717081 
L 209.023818 510.584841 
L 213.913665 510.259119 
L 217.58105 509.915778 
L 220.025974 510.01845 
L 224.91582 510.655455 
L 226.138282 510.396996 
L 227.360744 509.459465 
L 228.583205 507.573782 
L 232.25059 499.806775 
L 233.473052 498.355962 
L 234.695514 497.852805 
L 235.917975 498.29005 
L 237.140437 499.550577 
L 240.807822 505.076724 
L 242.030284 506.473352 
L 243.252745 507.469155 
L 244.475207 508.138781 
L 245.697669 508.588805 
L 248.142592 509.162961 
L 251.809977 509.722404 
L 255.477362 510.074982 
L 260.367209 510.316355 
L 270.146902 510.522319 
L 288.483828 510.426064 
L 292.151213 510.414856 
L 297.041059 510.470953 
L 300.708444 510.155351 
L 303.153368 510.070486 
L 311.710599 510.475102 
L 314.155523 510.299174 
L 319.04537 509.506226 
L 321.490293 509.740934 
L 325.157678 510.266302 
L 328.825063 510.439382 
L 338.604756 510.537253 
L 341.04968 510.449381 
L 347.161988 509.775591 
L 349.606912 509.820083 
L 350.829373 509.569557 
L 352.051835 508.616068 
L 353.274297 506.242055 
L 354.496758 501.590079 
L 355.71922 493.9726 
L 356.941682 483.210758 
L 358.164143 469.809879 
L 361.831528 426.386304 
L 363.05399 415.552657 
L 364.276452 408.235021 
L 365.498913 404.775013 
L 366.721375 405.06922 
L 367.943837 408.661372 
L 369.166298 414.863728 
L 370.38876 422.885131 
L 375.278607 459.130275 
L 376.501068 466.862684 
L 377.72353 473.619441 
L 378.945992 479.381725 
L 380.168453 484.203264 
L 381.390915 488.182238 
L 382.613377 491.435931 
L 383.835839 494.081944 
L 385.0583 496.227852 
L 386.280762 497.967343 
L 387.503224 499.379616 
L 388.725685 500.530531 
L 389.948147 501.474414 
L 392.39307 502.904045 
L 394.837994 503.891645 
L 397.282917 504.536789 
L 398.505379 504.658924 
L 399.72784 504.54898 
L 402.172764 503.911009 
L 403.395225 503.788526 
L 404.617687 503.961147 
L 409.507534 505.521737 
L 410.729995 505.568348 
L 411.952457 505.074447 
L 413.174919 503.492005 
L 414.39738 499.861868 
L 415.619842 492.44046 
L 416.842304 479.640969 
L 418.064766 462.88841 
L 419.287227 447.737649 
L 420.509689 440.448971 
L 421.732151 443.416013 
L 422.954612 454.149347 
L 425.399536 480.326756 
L 426.621997 489.632489 
L 427.844459 495.60707 
L 429.066921 499.071836 
L 430.289382 500.996682 
L 431.511844 502.103063 
L 432.734306 502.814417 
L 435.179229 503.819655 
L 437.624152 504.640717 
L 438.846614 504.939146 
L 441.291537 505.194673 
L 449.848769 505.384789 
L 453.516154 504.711396 
L 454.738616 504.732629 
L 457.183539 505.244617 
L 459.628463 505.66715 
L 460.850924 505.641307 
L 462.073386 505.235269 
L 463.295848 504.277815 
L 465.740771 501.611453 
L 466.963233 500.887871 
L 468.185694 500.911937 
L 469.408156 501.510856 
L 471.853079 503.192911 
L 473.075541 503.864075 
L 474.298003 504.35162 
L 475.520464 504.661196 
L 476.742926 504.757561 
L 477.965388 504.574427 
L 479.187849 504.105283 
L 481.632773 502.898415 
L 484.077696 502.210189 
L 485.300158 501.244551 
L 486.52262 498.637685 
L 488.967543 489.859777 
L 490.190005 487.413892 
L 491.412466 487.997157 
L 492.634928 490.987499 
L 495.079851 498.528172 
L 496.302313 501.164932 
L 497.524775 502.796365 
L 498.747236 503.667473 
L 499.969698 504.058685 
L 502.414621 504.234208 
L 504.859545 504.475159 
L 512.194315 505.828892 
L 515.8617 506.124967 
L 518.306623 506.131753 
L 519.529085 506.033593 
L 520.751547 505.775331 
L 521.974008 505.267544 
L 524.418932 503.849229 
L 528.086317 502.236108 
L 529.308778 501.5092 
L 530.53124 501.021115 
L 531.753702 501.115602 
L 532.976163 501.807911 
L 535.421087 503.808686 
L 536.643548 504.584897 
L 537.86601 505.06916 
L 539.088472 505.163909 
L 540.310933 504.707586 
L 541.533395 503.709209 
L 542.755857 502.566399 
L 543.978318 501.85794 
L 545.20078 501.900313 
L 546.423242 502.570882 
L 548.868165 504.303117 
L 550.090627 504.825878 
L 551.313088 505.053334 
L 552.53555 505.063385 
L 553.758012 504.929082 
L 554.980474 504.675911 
L 558.647859 503.596763 
L 559.87032 503.542651 
L 561.092782 503.733072 
L 563.537705 504.306111 
L 564.760167 504.412271 
L 565.982629 504.114811 
L 567.20509 502.81832 
L 568.427552 499.896669 
L 570.872475 491.843244 
L 572.094937 490.13968 
L 573.317399 491.11934 
L 574.53986 493.939808 
L 575.762322 497.245875 
L 576.984784 500.012617 
L 578.207245 501.84059 
L 579.429707 502.813212 
L 580.652169 503.219139 
L 583.097092 503.365781 
L 586.764477 503.38774 
L 589.209401 503.122945 
L 591.654324 502.48489 
L 594.099247 501.703276 
L 595.321709 501.489734 
L 596.544171 501.465168 
L 602.656479 501.962163 
L 605.101402 501.725789 
L 607.546326 501.328763 
L 609.991249 500.738884 
L 612.436172 499.931617 
L 614.881096 498.819778 
L 616.103557 498.106427 
L 617.326019 497.236331 
L 618.548481 496.084275 
L 619.770942 494.400991 
L 620.993404 491.66074 
L 622.215866 486.394104 
L 623.438328 475.10887 
L 624.660789 452.796027 
L 625.883251 417.319626 
L 627.105713 375.047203 
L 628.328174 340.312823 
L 629.550636 326.557714 
L 630.773098 337.279519 
L 631.995559 365.249931 
L 633.218021 398.945857 
L 634.440483 429.247754 
L 635.662944 452.080169 
L 636.885406 467.473286 
L 638.107868 477.382436 
L 639.330329 483.920659 
L 640.552791 488.516788 
L 641.775253 491.868909 
L 642.997714 494.30464 
L 644.220176 496.101738 
L 646.665099 498.860564 
L 649.110023 501.262894 
L 650.332484 502.252216 
L 651.554946 503.024446 
L 652.777408 503.562027 
L 653.999869 503.884162 
L 656.444793 504.11152 
L 658.889716 504.29453 
L 661.33464 504.845219 
L 663.779563 505.520822 
L 666.224486 505.89535 
L 682.116488 506.97517 
L 689.451258 507.341443 
L 691.896182 507.207632 
L 693.118643 506.953606 
L 696.786028 505.728845 
L 698.00849 505.585324 
L 699.230952 505.672116 
L 702.898337 506.367583 
L 705.34326 506.490078 
L 709.010645 506.396716 
L 711.455568 506.043836 
L 713.900492 505.666721 
L 715.122953 505.72633 
L 717.567877 506.273113 
L 720.0128 506.770321 
L 722.457723 506.941649 
L 731.014955 506.993082 
L 733.459879 506.769045 
L 735.904802 506.485041 
L 737.127264 506.460801 
L 739.572187 506.741507 
L 743.239572 507.284192 
L 745.684495 507.426536 
L 749.35188 507.37852 
L 754.241727 507.07635 
L 760.354036 507.22432 
L 762.798959 506.881176 
L 765.243882 506.381304 
L 766.466344 506.273067 
L 767.688806 506.334078 
L 772.578652 507.110889 
L 775.023576 507.160452 
L 779.913422 507.100888 
L 786.025731 507.304389 
L 789.693116 507.220904 
L 793.360501 507.056642 
L 803.140194 507.295679 
L 812.919888 507.125483 
L 816.587273 506.858721 
L 816.587273 506.858721 
" clip-path="url(#pca7fb0b449)" style="fill: none; stroke: #0000ff; stroke-width: 1.5; stroke-linecap: square"/>
   </g>
   <g id="line2d_14">
    <path d="M 89.449707 234.320607 
L 117.374399 234.334242 
L 247.173914 234.298972 
L 247.173914 234.314517 
L 250.150852 234.299741 
L 301.682257 234.324816 
L 327.942935 234.324316 
L 358.385409 234.287606 
L 384.248542 234.068102 
L 392.788903 234.042661 
L 403.343882 234.28105 
L 417.916848 234.252815 
L 418.904352 233.650376 
L 418.904352 233.34893 
L 419.23295 233.170566 
L 419.570594 233.070595 
L 419.570594 232.479324 
L 419.897969 232.64088 
L 419.897969 231.930011 
L 420.225344 232.005739 
L 420.225344 231.78075 
L 420.55272 232.173459 
L 420.55272 231.413138 
L 420.879361 232.164528 
L 420.879361 231.276109 
L 421.206003 230.432064 
L 421.532645 230.394574 
L 421.532645 230.08705 
L 421.859287 230.986206 
L 421.859287 231.422285 
L 422.185928 231.702327 
L 422.185928 231.29796 
L 422.513793 230.540738 
L 422.840434 230.532513 
L 422.840434 230.874412 
L 423.166832 230.706378 
L 423.166832 231.446284 
L 423.819871 231.199865 
L 423.819871 230.718831 
L 424.146757 230.180309 
L 424.146757 229.684231 
L 424.478777 230.690229 
L 424.478777 229.211931 
L 424.805419 230.003804 
L 424.805419 229.962253 
L 424.805419 230.586937 
L 425.132061 229.460735 
L 425.458703 230.822639 
L 425.458703 229.907519 
L 425.786078 230.573536 
L 425.786078 230.003865 
L 426.112964 231.102019 
L 426.112964 230.374162 
L 426.112964 230.990259 
L 426.43985 230.690534 
L 426.43985 230.806394 
L 426.766981 229.507001 
L 427.094112 230.398565 
L 427.094112 229.957082 
L 427.421243 230.006484 
L 427.421243 229.799949 
L 427.751552 231.004056 
L 427.751552 230.345487 
L 428.078927 230.047128 
L 428.406302 230.241122 
L 428.406302 230.153733 
L 428.733433 229.9092 
L 428.733433 230.035652 
L 429.061053 230.548317 
L 429.393807 230.425265 
L 429.393807 230.25933 
L 429.721427 230.634736 
L 429.721427 230.297198 
L 430.048802 230.865741 
L 430.048802 230.003286 
L 430.376422 231.012773 
L 430.376422 229.955265 
L 430.704286 230.786841 
L 430.704286 229.653542 
L 431.031906 230.555121 
L 431.031906 229.765257 
L 431.35977 230.942095 
L 431.35977 230.35217 
L 431.687634 231.377711 
L 431.687634 230.181997 
L 431.687634 230.63683 
L 432.015498 230.504657 
L 432.343362 230.606368 
L 432.343362 230.893337 
L 432.671716 231.414004 
L 432.671716 230.528033 
L 433.001536 231.316118 
L 433.001536 230.800269 
L 433.329644 231.339079 
L 433.329644 230.611694 
L 433.658242 231.484915 
L 433.658242 230.680784 
L 433.986595 230.749308 
L 434.320572 231.289766 
L 434.64917 231.346808 
L 434.64917 231.070787 
L 434.978012 231.735351 
L 434.978012 230.791673 
L 435.306854 231.41337 
L 435.306854 230.67445 
L 435.635941 231.74077 
L 435.635941 230.98056 
L 435.965272 230.899622 
L 436.294603 230.614732 
L 436.628335 231.407456 
L 436.628335 230.593229 
L 436.957666 231.09959 
L 436.957666 231.705326 
L 437.287242 231.896397 
L 437.287242 231.157337 
L 437.616818 231.877239 
L 437.616818 231.52261 
L 437.946393 231.751409 
L 437.946393 231.141414 
L 438.275969 231.754605 
L 438.275969 231.233351 
L 438.275969 231.538132 
L 438.606278 231.661736 
L 438.606278 231.81222 
L 438.936343 231.882131 
L 438.936343 232.106481 
L 439.272031 232.383993 
L 439.272031 231.983126 
L 439.602584 232.527792 
L 439.602584 232.095497 
L 439.602584 232.352759 
L 439.932894 232.268809 
L 440.265159 231.693617 
L 440.595957 232.150431 
L 440.595957 231.674942 
L 440.92651 232.274891 
L 441.257797 232.382296 
L 441.58884 232.511681 
L 441.58884 232.17198 
L 441.920372 232.708331 
L 441.920372 232.092045 
L 442.251414 232.514355 
L 442.251414 232.016185 
L 442.583435 231.972234 
L 442.914722 232.042401 
L 442.914722 232.387613 
L 443.247232 232.415484 
L 443.247232 232.648034 
L 443.578763 233.113388 
L 443.578763 232.672393 
L 443.910539 233.029313 
L 443.910539 232.808153 
L 444.252829 233.130569 
L 444.252829 232.814522 
L 444.584849 233.155386 
L 444.584849 232.730387 
L 444.917114 232.994365 
L 444.917114 232.796589 
L 445.250113 233.133361 
L 445.250113 232.874088 
L 445.582867 233.228204 
L 445.582867 232.691694 
L 445.915865 232.45907 
L 446.249353 232.753639 
L 446.249353 232.60018 
L 446.581618 233.281086 
L 446.914617 233.376071 
L 446.914617 233.005184 
L 446.914617 233.126959 
L 447.581347 233.361778 
L 447.913857 233.470071 
L 447.913857 233.090853 
L 447.913857 233.243456 
L 448.246366 233.239479 
L 448.246366 233.109817 
L 448.580343 233.082566 
L 448.580343 233.140091 
L 448.91383 232.918289 
L 449.252941 232.929817 
L 449.252941 233.126281 
L 449.58594 233.234865 
L 449.920161 233.377756 
L 450.586158 233.367879 
L 450.586158 233.422918 
L 450.919401 233.582181 
L 450.919401 233.371789 
L 451.585643 233.530535 
L 451.585643 233.36489 
L 452.251395 233.432223 
L 452.251395 233.231013 
L 452.584394 233.083333 
L 452.584394 233.293909 
L 453.249902 233.257283 
L 453.249902 233.681116 
L 453.587057 233.769787 
L 454.258188 233.891795 
L 454.258188 233.717422 
L 455.593361 233.802809 
L 455.927582 233.670185 
L 455.927582 233.723178 
L 456.261559 233.78334 
L 456.261559 233.853045 
L 457.262266 233.879968 
L 457.262266 233.863338 
L 457.262266 234.048367 
L 457.595264 234.082963 
L 457.595264 234.002363 
L 457.928996 233.839407 
L 458.262484 233.860277 
L 458.262484 233.724016 
L 458.596216 233.630948 
L 459.602057 234.043772 
L 459.602057 233.906954 
L 459.9353 233.93508 
L 459.9353 233.736569 
L 460.268788 233.670941 
L 460.603254 233.444647 
L 461.605183 233.754978 
L 461.938915 233.660138 
L 462.278026 233.757914 
L 462.278026 233.557584 
L 462.945246 233.747185 
L 462.945246 233.652339 
L 462.945246 233.831511 
L 463.612954 233.865462 
L 463.612954 233.814647 
L 463.945708 233.77632 
L 463.945708 233.619029 
L 464.285064 233.888079 
L 464.618796 233.749192 
L 464.953261 233.910708 
L 464.953261 233.825073 
L 466.622166 234.090058 
L 468.610622 234.185848 
L 469.937237 234.108505 
L 470.598345 234.132266 
L 471.928139 234.045871 
L 472.923222 234.11671 
L 473.587019 234.185316 
L 473.587019 234.087569 
L 477.926513 234.042422 
L 477.926513 233.996389 
L 478.260979 234.04033 
L 478.260979 233.979294 
L 479.269999 233.979306 
L 479.269999 234.009407 
L 479.610332 234.114072 
L 480.949906 234.040952 
L 481.28486 234.147386 
L 481.28486 234.124012 
L 483.28603 233.946914 
L 483.28603 233.954305 
L 483.616828 234.067078 
L 483.94836 234.15225 
L 483.94836 234.071554 
L 484.285759 233.977338 
L 486.605502 234.091979 
L 486.605502 234.075618 
L 487.939942 233.991597 
L 488.60545 234.162021 
L 496.51062 234.098872 
L 496.51062 234.114843 
L 499.152605 234.146972 
L 499.152605 234.165088 
L 502.136389 234.154619 
L 502.802142 234.144135 
L 503.469361 233.938135 
L 503.469361 233.976347 
L 503.469361 234.01631 
L 503.803338 233.966081 
L 503.803338 234.156469 
L 505.486668 233.793756 
L 505.486668 233.851197 
L 506.495443 234.061382 
L 507.168041 233.942623 
L 508.177795 233.937223 
L 508.177795 233.985676 
L 509.193416 234.163682 
L 514.594007 234.035494 
L 514.594007 234.112504 
L 514.594007 234.224364 
L 515.26685 234.17537 
L 515.26685 234.07506 
L 516.279293 233.932578 
L 516.279293 233.983016 
L 517.978759 234.057652 
L 518.989735 234.004285 
L 518.989735 234.036094 
L 519.671135 234.177983 
L 519.671135 234.129366 
L 520.346178 233.987671 
L 521.362777 233.975661 
L 525.077349 234.081333 
L 525.40937 234.023363 
L 526.399319 234.078547 
L 530.352761 234.256601 
L 530.352761 234.230124 
L 532.994989 234.062922 
L 534.317693 234.15815 
L 536.628879 234.109865 
L 536.628879 234.008578 
L 536.96041 234.002218 
L 536.96041 234.079512 
L 537.956717 234.061397 
L 538.62198 234.022844 
L 539.632223 234.107701 
L 541.977882 234.001792 
L 541.977882 234.108805 
L 543.32748 234.106032 
L 543.663168 233.956368 
L 544.331365 234.057442 
L 544.331365 234.009545 
L 544.331365 234.147411 
L 546.967726 234.228333 
L 547.298769 234.251371 
L 547.298769 234.210233 
L 548.290674 234.068554 
L 548.290674 234.081049 
L 550.608706 234.197353 
L 550.608706 234.068611 
L 553.938692 233.856077 
L 553.938692 233.809173 
L 554.613735 233.779726 
L 554.613735 233.859204 
L 554.948934 234.023008 
L 554.948934 233.950445 
L 556.301955 234.026148 
L 556.301955 234.018018 
L 556.643266 233.883875 
L 559.34784 234.15628 
L 561.029214 234.127469 
L 563.385387 234.113438 
L 564.402964 233.992978 
L 565.07654 233.997702 
L 565.07654 234.071843 
L 566.421003 234.149567 
L 566.421003 234.137824 
L 567.439314 234.117717 
L 567.439314 234.12741 
L 568.782066 234.113551 
L 568.782066 233.963093 
L 569.118487 233.951976 
L 569.118487 233.642436 
L 569.459554 233.519525 
L 569.459554 232.566153 
L 569.794753 232.246132 
L 569.794753 230.103846 
L 570.129708 228.711462 
L 570.129708 224.879374 
L 570.466129 222.578615 
L 570.466129 214.911318 
L 570.799617 212.606941 
L 570.799617 201.98296 
L 571.129926 199.71662 
L 571.129926 184.464181 
L 571.459501 186.357077 
L 571.459501 165.971422 
L 571.788099 169.304889 
L 571.788099 138.643484 
L 572.116208 142.343932 
L 572.116208 110.19981 
L 572.443828 122.293151 
L 572.443828 86.269555 
L 572.771692 108.416099 
L 572.771692 76.115717 
L 573.098823 99.435961 
L 573.098823 70.76199 
L 573.426198 103.975079 
L 573.426198 61.610761 
L 573.753818 93.094371 
L 573.753818 56.661172 
L 574.080948 82.246261 
L 574.080948 49.932727 
L 574.413458 93.334561 
L 574.413458 61.96879 
L 574.741811 96.790259 
L 574.741811 69.628262 
L 575.068942 101.585889 
L 575.068942 73.981212 
L 575.396317 109.562444 
L 575.396317 89.849869 
L 575.723692 121.095377 
L 575.723692 96.722759 
L 576.051556 130.135859 
L 576.051556 104.040349 
L 576.379421 133.529189 
L 576.379421 111.96511 
L 576.707285 141.82922 
L 576.707285 123.629829 
L 577.038817 153.303633 
L 577.038817 136.694483 
L 577.366925 163.721177 
L 577.366925 145.675924 
L 577.695278 163.674823 
L 577.695278 146.568875 
L 578.023632 164.973331 
L 578.023632 149.004038 
L 578.35174 168.501191 
L 578.35174 156.198385 
L 578.680583 176.680076 
L 578.680583 161.912844 
L 579.008936 180.046545 
L 579.008936 166.235846 
L 579.342912 181.05946 
L 579.342912 170.804768 
L 579.671999 184.824511 
L 579.671999 174.443477 
L 580.000597 188.343951 
L 580.000597 179.59201 
L 580.329928 190.18555 
L 580.329928 183.145813 
L 580.659015 193.571293 
L 580.659015 185.391967 
L 580.989079 196.661657 
L 580.989079 187.03607 
L 581.317921 196.076506 
L 581.317921 187.188056 
L 581.647008 196.342729 
L 581.647008 188.365328 
L 581.976339 199.184905 
L 581.976339 189.786735 
L 582.306159 199.70267 
L 582.306159 191.841895 
L 582.636224 199.198057 
L 582.636224 192.401816 
L 582.966044 202.547254 
L 582.966044 195.762224 
L 583.296598 204.946588 
L 583.296598 199.321748 
L 583.62764 206.301667 
L 583.62764 199.250854 
L 583.958439 205.998032 
L 583.958439 200.742372 
L 584.294616 207.468043 
L 584.294616 202.902512 
L 584.624925 211.365282 
L 584.624925 206.965463 
L 584.956701 212.849713 
L 584.956701 208.156341 
L 585.28701 213.18241 
L 585.28701 207.281876 
L 585.618297 212.544702 
L 585.618297 207.776154 
L 585.94934 213.332247 
L 585.94934 209.433201 
L 586.285272 214.787284 
L 586.285272 211.583226 
L 586.617782 216.569406 
L 586.617782 211.956904 
L 586.617782 215.241286 
L 586.948335 211.329901 
L 587.279867 215.220582 
L 587.279867 212.000294 
L 587.611888 217.139905 
L 587.611888 214.211803 
L 587.943175 219.152478 
L 587.943175 216.107922 
L 588.275929 220.077534 
L 588.275929 216.293703 
L 588.607705 220.665386 
L 588.607705 216.266623 
L 588.939725 219.453072 
L 588.939725 216.242542 
L 589.277614 220.01071 
L 589.277614 217.335522 
L 589.610123 221.820102 
L 589.610123 219.116518 
L 589.610123 221.838378 
L 589.941655 221.997883 
L 589.941655 222.130634 
L 589.941655 221.528531 
L 590.272942 224.651656 
L 590.272942 222.480742 
L 590.604718 222.7762 
L 590.604718 223.443861 
L 590.935761 224.012069 
L 590.935761 221.845212 
L 591.266804 224.551382 
L 591.266804 221.856918 
L 591.598335 224.471074 
L 591.598335 222.418543 
L 591.930356 224.783444 
L 591.930356 222.999143 
L 591.930356 224.99265 
L 592.262376 224.763968 
L 592.262376 225.131209 
L 592.593419 225.153581 
L 592.593419 224.775156 
L 592.924462 225.492879 
L 592.924462 223.751743 
L 593.25526 225.781494 
L 593.25526 223.737939 
L 593.586547 225.942739 
L 593.586547 224.093083 
L 593.918078 226.32551 
L 593.918078 224.705046 
L 593.918078 226.342071 
L 594.254744 226.76256 
L 594.254744 227.347072 
L 594.591655 225.563536 
L 594.923675 227.370337 
L 594.923675 226.435157 
L 595.254229 226.69343 
L 595.254229 227.051191 
L 595.584783 228.762087 
L 595.584783 227.433546 
L 595.915336 229.244636 
L 595.915336 227.897336 
L 596.5784 228.236209 
L 596.5784 228.696794 
L 596.91042 228.717051 
L 596.91042 229.106335 
L 597.242441 229.660869 
L 597.57275 229.645362 
L 597.57275 229.787124 
L 597.903548 229.853069 
L 598.23508 230.543248 
L 598.23508 229.2853 
L 598.23508 230.155319 
L 598.565144 230.059271 
L 598.565144 230.177657 
L 598.895942 230.184138 
L 598.895942 230.623266 
L 599.232608 230.652039 
L 599.232608 229.605781 
L 599.232608 230.244199 
L 599.563162 230.135886 
L 599.563162 229.844351 
L 599.894205 230.052315 
L 599.894205 230.028658 
L 600.225736 229.508485 
L 600.557023 230.705504 
L 600.557023 229.83966 
L 600.887577 230.074265 
L 601.217642 230.781578 
L 601.217642 230.202791 
L 601.548195 230.108914 
L 601.548195 230.474711 
L 601.879971 231.36054 
L 601.879971 230.669558 
L 602.210036 231.382749 
L 602.210036 230.646261 
L 602.541079 231.103011 
L 602.541079 230.70354 
L 602.872855 231.277262 
L 602.872855 230.711511 
L 603.202919 231.58137 
L 603.202919 230.854613 
L 603.533717 231.416301 
L 603.533717 231.045272 
L 603.863538 231.737768 
L 603.863538 231.152045 
L 604.204115 231.788197 
L 604.204115 231.246061 
L 604.534425 231.837928 
L 604.534425 231.236661 
L 604.865223 231.869707 
L 604.865223 231.311363 
L 605.195532 231.79591 
L 605.195532 231.253387 
L 605.525352 231.917245 
L 605.525352 231.291534 
L 605.855417 231.989398 
L 605.855417 231.38519 
L 606.185481 231.945747 
L 606.185481 231.208429 
L 606.847078 231.209829 
L 606.847078 231.488795 
L 607.17812 231.555278 
L 607.17812 231.670086 
L 607.508185 232.277997 
L 607.508185 231.950284 
L 607.83825 232.411892 
L 607.83825 231.731009 
L 608.167825 232.304001 
L 608.167825 231.461869 
L 608.498134 231.331232 
L 608.498134 231.043371 
L 608.828199 231.7378 
L 608.828199 231.277427 
L 608.828199 231.929086 
L 609.16462 232.420321 
L 609.16462 231.947954 
L 609.494196 232.472977 
L 609.494196 232.21911 
L 609.824994 231.824527 
L 610.155059 232.403515 
L 610.155059 232.182834 
L 610.484635 232.090114 
L 610.484635 231.929269 
L 610.81421 232.388462 
L 610.81421 232.044442 
L 611.144275 232.477763 
L 611.144275 232.079871 
L 611.474095 232.200721 
L 612.133735 231.601484 
L 612.463556 231.699808 
L 613.128086 232.55026 
L 613.128086 232.18717 
L 613.459373 232.586109 
L 613.459373 232.193152 
L 613.788704 232.311842 
L 614.124147 231.881601 
L 614.453723 232.163785 
L 614.453723 231.894414 
L 614.783543 231.994245 
L 615.112874 232.364756 
L 615.44245 232.353047 
L 615.44245 232.383272 
L 615.44245 232.759787 
L 616.430444 232.804268 
L 616.430444 232.615407 
L 616.75953 233.036136 
L 616.75953 232.647934 
L 616.75953 233.011045 
L 617.088862 233.10629 
L 617.088862 232.979257 
L 617.418437 232.929039 
L 617.418437 233.109263 
L 617.747524 233.165695 
L 617.747524 232.923291 
L 618.076855 233.251193 
L 618.076855 232.807931 
L 618.406431 233.100287 
L 618.406431 232.831211 
L 618.735762 233.168611 
L 618.735762 232.869684 
L 619.399314 233.191521 
L 619.399314 232.847387 
L 619.727912 233.242655 
L 620.05651 233.157983 
L 620.05651 232.761217 
L 620.385596 232.973838 
L 620.385596 232.661178 
L 620.385596 232.849944 
L 620.714194 233.003298 
L 620.714194 233.157449 
L 621.042792 233.281524 
L 621.371878 232.970591 
L 621.70072 233.250335 
L 621.70072 232.936968 
L 622.029074 232.867511 
L 622.029074 233.127958 
L 622.363295 232.929705 
L 622.363295 232.783029 
L 622.691648 233.17355 
L 622.691648 233.35722 
L 623.020001 233.621998 
L 623.020001 233.377249 
L 624.011173 233.145578 
L 624.339037 233.34533 
L 624.339037 233.606189 
L 624.666657 233.714278 
L 624.666657 233.583155 
L 624.994521 233.579029 
L 624.994521 233.733474 
L 624.994521 233.702154 
L 625.322385 233.707371 
L 625.322385 233.904349 
L 625.977869 233.827215 
L 625.977869 233.584502 
L 626.305245 233.636706 
L 626.305245 233.310615 
L 626.632864 233.513158 
L 626.632864 233.423698 
L 627.28737 233.397821 
L 627.614746 233.730294 
L 627.614746 233.43609 
L 627.941876 233.229955 
L 628.595893 233.143024 
L 628.927914 233.06045 
L 629.581442 233.244729 
L 629.581442 233.100726 
L 629.907839 233.074672 
L 630.234725 233.458596 
L 630.888009 233.288239 
L 630.888009 233.332718 
L 631.214651 233.275987 
L 631.541293 233.421901 
L 631.541293 233.544535 
L 632.199221 233.366036 
L 632.199221 233.204072 
L 632.525619 233.317383 
L 632.852016 233.001654 
L 633.178658 233.23792 
L 633.505544 233.065496 
L 633.83732 233.293101 
L 633.83732 233.461332 
L 634.490604 233.258868 
L 634.490604 233.546084 
L 634.817245 233.435469 
L 634.817245 233.55836 
L 636.124301 233.737764 
L 636.450943 233.767719 
L 636.450943 233.939862 
L 636.777585 233.762337 
L 637.757999 233.670227 
L 637.757999 233.807736 
L 638.411772 233.712035 
L 639.07239 233.835026 
L 639.731297 233.763804 
L 640.058428 233.752863 
L 640.058428 233.836778 
L 640.71709 234.099947 
L 640.71709 234.04445 
L 642.026835 233.817013 
L 642.026835 233.855937 
L 642.354211 233.585165 
L 642.681341 233.690278 
L 642.681341 233.663714 
L 643.008717 233.458147 
L 643.336092 233.72357 
L 643.996466 233.762793 
L 644.97908 233.452836 
L 645.306455 233.489947 
L 646.617668 234.060615 
L 646.945288 234.110019 
L 647.273396 233.953688 
L 647.273396 233.978042 
L 647.92888 234.006374 
L 647.92888 233.890234 
L 647.92888 234.040503 
L 649.574069 233.87666 
L 651.547611 234.001709 
L 651.87572 233.756896 
L 651.87572 233.781579 
L 652.203829 233.713026 
L 652.203829 233.796318 
L 652.532671 233.837307 
L 652.532671 234.077781 
L 652.861269 234.053537 
L 652.861269 234.227975 
L 653.523598 233.925518 
L 654.196441 233.914878 
L 654.196441 233.98432 
L 654.525772 234.001292 
L 654.525772 233.958713 
L 654.855104 233.854576 
L 655.513522 233.884604 
L 655.513522 234.045674 
L 655.842364 234.056014 
L 655.842364 233.945908 
L 656.502004 233.645945 
L 657.162378 233.756782 
L 657.162378 233.930632 
L 657.492198 234.040956 
L 657.492198 234.026642 
L 658.151838 234.014045 
L 658.817591 233.815133 
L 660.474027 233.994427 
L 660.804336 234.03603 
L 660.804336 233.970239 
L 661.465198 233.848655 
L 661.795508 233.934919 
L 661.795508 233.832175 
L 662.785946 233.97271 
L 664.114028 233.683217 
L 664.77538 233.97126 
L 664.77538 233.951322 
L 664.77538 234.036683 
L 665.43771 233.956238 
L 665.43771 234.015318 
L 665.768508 233.993569 
L 665.768508 234.016073 
L 666.100284 234.148545 
L 666.100284 234.099097 
L 667.096101 234.06469 
L 667.096101 233.958513 
L 671.09184 233.91106 
L 671.09184 233.797357 
L 671.759059 234.001861 
L 671.759059 233.911253 
L 672.757566 234.012346 
L 673.089831 233.891405 
L 674.430627 233.997811 
L 674.430627 233.904261 
L 674.765337 233.761272 
L 675.099803 233.793051 
L 675.099803 233.712761 
L 675.099803 233.644138 
L 675.433779 233.949614 
L 675.433779 233.981515 
L 676.100265 234.105975 
L 677.10195 233.891948 
L 677.10195 233.905409 
L 677.770881 233.988513 
L 677.770881 234.024162 
L 678.105347 233.986459 
L 678.444458 233.834384 
L 679.789655 234.011305 
L 679.789655 233.956615 
L 680.122653 234.043138 
L 680.122653 234.031887 
L 680.45663 233.983647 
L 680.45663 233.828639 
L 680.791584 233.674851 
L 681.127517 233.601814 
L 681.127517 233.61122 
L 681.797915 233.881326 
L 682.804979 233.89724 
L 682.804979 233.823016 
L 683.138466 233.874827 
L 683.138466 234.002422 
L 684.15262 233.905929 
L 684.48733 234.046861 
L 684.48733 234.018417 
L 686.163814 234.016745 
L 686.163814 234.043346 
L 686.836413 233.801479 
L 686.836413 233.841083 
L 687.174546 233.769773 
L 688.187966 233.989033 
L 688.187966 233.972458 
L 689.207255 234.042706 
L 689.207255 233.962143 
L 689.879853 233.889209 
L 689.879853 233.897689 
L 691.566361 233.943185 
L 691.566361 234.003597 
L 692.57856 234.033496 
L 693.590513 233.884562 
L 693.590513 233.944081 
L 694.939133 233.932596 
L 694.939133 234.03546 
L 695.27531 233.95381 
L 695.947664 233.975506 
L 695.947664 233.867834 
L 696.623441 233.818537 
L 696.623441 233.751308 
L 697.631238 233.947194 
L 697.631238 233.881253 
L 698.294057 233.799728 
L 699.290363 233.568161 
L 699.290363 233.673622 
L 700.279335 233.641404 
L 700.608666 233.772352 
L 700.608666 233.617027 
L 700.938486 233.523302 
L 700.938486 233.67239 
L 701.599593 233.780626 
L 701.930147 233.580182 
L 701.930147 233.615446 
L 702.592232 233.565227 
L 702.923519 233.741335 
L 702.923519 233.703793 
L 703.59245 233.555058 
L 703.925449 233.473732 
L 703.925449 233.533471 
L 704.259181 233.655216 
L 705.259155 233.949385 
L 706.941262 233.88246 
L 707.278417 233.778116 
L 707.617039 233.811622 
L 707.617039 233.714582 
L 707.952971 233.682462 
L 707.952971 233.701257 
L 708.291104 233.764599 
L 708.633882 233.649805 
L 708.633882 233.721184 
L 709.310393 233.835049 
L 709.310393 233.779169 
L 709.990081 233.665348 
L 709.990081 233.708006 
L 710.670259 234.075524 
L 710.670259 234.001558 
L 711.010592 233.986061 
L 711.010592 233.831518 
L 711.691259 233.723077 
L 711.691259 233.681177 
L 712.710303 233.927601 
L 713.050392 233.965667 
L 713.050392 233.913866 
L 713.735215 233.794538 
L 714.415393 233.943461 
L 715.100705 233.70279 
L 715.781127 233.882732 
L 717.821415 234.078353 
L 717.821415 234.027529 
L 718.160526 233.874978 
L 720.54726 233.932899 
L 720.54726 233.798722 
L 721.226949 233.892633 
L 721.567038 233.977133 
L 721.567038 233.890474 
L 723.271883 233.731622 
L 723.271883 233.756156 
L 724.295817 233.950489 
L 724.295817 233.872843 
L 725.315594 233.918659 
L 727.354905 233.71221 
L 727.354905 233.79408 
L 728.374438 233.925818 
L 728.374438 233.895909 
L 728.714527 233.968918 
L 728.714527 233.835957 
L 729.744818 233.83707 
L 729.744818 233.738783 
L 730.764351 233.969524 
L 731.10395 233.916766 
L 731.10395 233.803102 
L 731.783395 233.89442 
L 732.123239 233.968521 
L 732.123239 233.95857 
L 732.462839 233.886742 
L 732.462839 233.888937 
L 733.82295 234.041175 
L 733.82295 234.014713 
L 734.847862 233.981112 
L 734.847862 234.060825 
L 735.186728 234.085407 
L 735.186728 233.981324 
L 735.865928 233.927002 
L 735.865928 233.938359 
L 738.250217 234.076869 
L 738.250217 233.997571 
L 738.929661 233.879707 
L 738.929661 233.935964 
L 741.649638 233.974452 
L 742.328349 233.755073 
L 742.328349 233.781412 
L 743.006571 233.759138 
L 743.006571 233.973205 
L 744.708237 234.151848 
L 744.708237 234.037375 
L 745.382303 233.947594 
L 745.382303 233.80587 
L 745.720925 233.914191 
L 746.058324 233.835508 
L 746.058324 233.868203 
L 746.058324 233.998215 
L 746.401347 233.984381 
L 746.401347 234.037702 
L 746.740947 234.153209 
L 746.740947 234.124323 
L 747.080302 234.004506 
L 747.418191 234.014483 
L 747.418191 233.947003 
L 747.755345 233.818406 
L 748.094945 233.887487 
L 748.769255 234.149139 
L 748.769255 234.17346 
L 751.137408 233.902937 
L 751.137408 233.972076 
L 751.81294 233.980948 
L 751.81294 234.012088 
L 753.161804 234.112022 
L 753.161804 233.997865 
L 753.838315 233.914111 
L 754.521915 234.071509 
L 754.521915 234.056181 
L 755.196959 233.869112 
L 755.196959 233.830024 
L 757.231135 234.06447 
L 757.570735 234.155621 
L 757.570735 234.102022 
L 758.249445 233.981179 
L 758.249445 233.996813 
L 758.589045 233.8868 
L 758.589045 233.948379 
L 759.613468 234.029461 
L 759.613468 233.990438 
L 760.628111 233.911831 
L 760.628111 233.972673 
L 761.307311 234.079033 
L 761.993112 233.989964 
L 761.993112 234.014884 
L 762.332467 234.108207 
L 763.350778 233.874603 
L 763.350778 233.901372 
L 763.690378 233.928924 
L 763.690378 233.904817 
L 764.368111 233.654892 
L 764.368111 233.665125 
L 764.712845 233.645745 
L 764.712845 233.710772 
L 765.052689 233.89042 
L 765.731889 233.745785 
L 766.071489 233.755732 
L 766.071489 233.916138 
L 766.411089 233.936055 
L 766.411089 233.856808 
L 766.751666 233.559076 
L 767.430133 233.593864 
L 767.430133 233.855974 
L 767.769733 233.74334 
L 767.769733 233.744056 
L 768.788777 234.001795 
L 768.788777 233.955658 
L 769.128376 233.838478 
L 769.128376 233.925455 
L 770.157934 233.82077 
L 770.837622 233.85423 
L 770.837622 233.858773 
L 771.855444 233.98825 
L 771.855444 233.95769 
L 772.534399 233.843727 
L 772.534399 233.726395 
L 773.21311 233.643534 
L 773.21311 233.657092 
L 773.892799 233.760233 
L 774.916733 233.633541 
L 774.916733 233.928936 
L 775.25511 233.990159 
L 775.25511 233.912288 
L 776.274643 233.745338 
L 776.274643 233.751253 
L 776.953843 233.867271 
L 776.953843 233.838639 
L 776.953843 233.978057 
L 777.292465 233.847713 
L 777.632553 233.704875 
L 777.970197 233.512691 
L 778.647197 233.652633 
L 778.647197 233.781158 
L 780.013909 233.730803 
L 780.013909 233.825549 
L 780.353753 233.701618 
L 780.353753 233.79572 
L 781.366929 233.79724 
L 781.366929 233.689061 
L 781.704084 233.60517 
L 781.704084 233.677331 
L 782.043684 233.708818 
L 782.043684 233.700519 
L 782.043684 233.892717 
L 782.381817 233.899568 
L 782.381817 233.837444 
L 782.719705 233.674179 
L 782.719705 233.758462 
L 783.394504 233.678392 
L 783.394504 233.758491 
L 784.072237 233.668205 
L 784.072237 233.819384 
L 784.751192 233.888355 
L 785.094704 233.734401 
L 785.094704 233.759538 
L 785.769747 233.617945 
L 785.769747 233.723702 
L 786.445769 233.497944 
L 786.445769 233.735075 
L 786.788302 233.769161 
L 786.788302 233.976843 
L 787.124479 234.010339 
L 787.124479 233.926067 
L 787.798789 233.827116 
L 788.466009 233.944586 
L 788.466009 233.873739 
L 789.133228 233.727966 
L 789.133228 233.840517 
L 789.467938 233.960456 
L 790.800177 233.610659 
L 790.800177 233.853537 
L 791.466419 233.667616 
L 791.797217 233.50699 
L 791.797217 233.777038 
L 792.456368 233.598536 
L 792.456368 233.715866 
L 793.116008 234.02787 
L 793.116008 233.910091 
L 793.773448 233.617698 
L 794.102291 233.570677 
L 794.102291 233.687235 
L 794.764376 233.650811 
L 795.098352 233.805075 
L 795.098352 233.72319 
L 796.082679 233.532785 
L 796.082679 233.689335 
L 796.410787 233.695428 
L 796.410787 233.812598 
L 797.06676 233.811901 
L 797.06676 233.811625 
L 797.394624 233.276906 
L 798.050353 233.23822 
L 798.378217 233.628356 
L 798.378217 233.60903 
L 798.706081 233.572095 
L 799.034434 233.402305 
L 799.362299 233.588369 
L 799.362299 233.585873 
L 799.690163 233.613048 
L 799.690163 233.758656 
L 800.023406 233.834736 
L 800.023406 233.729152 
L 800.35127 233.694756 
L 800.679379 233.822769 
L 800.679379 233.739637 
L 801.008466 233.609692 
L 801.008466 233.687009 
L 801.336574 233.646761 
L 801.336574 233.791302 
L 801.664439 234.010882 
L 802.649498 233.438795 
L 802.649498 233.842147 
L 803.31085 233.834609 
L 803.31085 233.64632 
L 803.638714 233.730622 
L 803.638714 233.569535 
L 803.967067 233.559242 
L 803.967067 233.626896 
L 804.623774 233.777973 
L 805.286103 233.464921 
L 805.286103 233.557351 
L 805.943054 233.8204 
L 805.943054 233.8784 
L 806.271408 233.654634 
L 806.271408 233.693747 
L 806.928114 233.553775 
L 806.928114 233.478555 
L 807.256712 233.622174 
L 807.256712 233.613536 
L 807.585309 233.556702 
L 808.243238 233.822636 
L 808.571836 233.635902 
L 808.571836 233.478795 
L 808.900678 233.448188 
L 808.900678 233.603959 
L 809.229276 233.667755 
L 809.229276 233.789625 
L 809.557629 233.9585 
L 809.557629 233.909052 
L 810.220448 233.884752 
L 810.220448 233.798804 
L 810.549046 233.795449 
L 810.549046 233.579909 
L 811.206974 233.367723 
L 811.206974 233.497379 
L 811.535083 233.462001 
L 811.535083 233.587023 
L 811.869549 233.706401 
L 811.869549 233.630721 
L 812.197902 233.517815 
L 812.197902 233.650437 
L 812.526744 233.570117 
L 812.855586 233.466884 
L 812.855586 233.536226 
L 813.846758 233.871304 
L 814.186113 234.211529 
L 814.877782 234.327949 
L 814.877782 234.325301 
L 816.253785 234.329911 
L 816.253785 234.329911 
" clip-path="url(#pca7fb0b449)" style="fill: none; stroke: #008000; stroke-width: 1.5; stroke-linecap: square"/>
   </g>
   <g id="patch_3">
    <path d="M 47.72 534.04 
L 47.72 26.88 
" style="fill: none; stroke: #000000; stroke-width: 0.8; stroke-linejoin: miter; stroke-linecap: square"/>
   </g>
   <g id="patch_4">
    <path d="M 853.2 534.04 
L 853.2 26.88 
" style="fill: none; stroke: #000000; stroke-width: 0.8; stroke-linejoin: miter; stroke-linecap: square"/>
   </g>
   <g id="patch_5">
    <path d="M 47.72 534.04 
L 853.2 534.04 
" style="fill: none; stroke: #000000; stroke-width: 0.8; stroke-linejoin: miter; stroke-linecap: square"/>
   </g>
   <g id="patch_6">
    <path d="M 47.72 26.88 
L 853.2 26.88 
" style="fill: none; stroke: #000000; stroke-width: 0.8; stroke-linejoin: miter; stroke-linecap: square"/>
   </g>
   <g id="patch_7">
    <path d="M 642.650913 480.795149 
Q 616.499619 486.628827 590.348325 492.462506 
L 591.219216 496.366548 
Q 584.711455 494.744525 578.203695 493.122501 
Q 583.405119 488.888461 588.606543 484.654421 
L 589.477434 488.558463 
Q 615.628728 482.724785 641.780022 476.891106 
L 642.650913 480.795149 
z
" style="stroke: #000000; stroke-linecap: round"/>
   </g>
   <g id="text_15">
    <!-- Peak: RT=3.35, Area=1.11e+04 -->
    <g style="fill: #ff0000" transform="translate(647.887561 464.30033) scale(0.1 -0.1)">
     <defs>
      <path id="DejaVuSans-50" d="M 1259 4147 
L 1259 2394 
L 2053 2394 
Q 2494 2394 2734 2622 
Q 2975 2850 2975 3272 
Q 2975 3691 2734 3919 
Q 2494 4147 2053 4147 
L 1259 4147 
z
M 628 4666 
L 2053 4666 
Q 2838 4666 3239 4311 
Q 3641 3956 3641 3272 
Q 3641 2581 3239 2228 
Q 2838 1875 2053 1875 
L 1259 1875 
L 1259 0 
L 628 0 
L 628 4666 
z
" transform="scale(0.015625)"/>
      <path id="DejaVuSans-6b" d="M 581 4863 
L 1159 4863 
L 1159 1991 
L 2875 3500 
L 3609 3500 
L 1753 1863 
L 3688 0 
L 2938 0 
L 1159 1709 
L 1159 0 
L 581 0 
L 581 4863 
z
" transform="scale(0.015625)"/>
      <path id="DejaVuSans-3a" d="M 750 794 
L 1409 794 
L 1409 0 
L 750 0 
L 750 794 
z
M 750 3309 
L 1409 3309 
L 1409 2516 
L 750 2516 
L 750 3309 
z
" transform="scale(0.015625)"/>
      <path id="DejaVuSans-3d" d="M 678 2906 
L 4684 2906 
L 4684 2381 
L 678 2381 
L 678 2906 
z
M 678 1631 
L 4684 1631 
L 4684 1100 
L 678 1100 
L 678 1631 
z
" transform="scale(0.015625)"/>
      <path id="DejaVuSans-2c" d="M 750 794 
L 1409 794 
L 1409 256 
L 897 -744 
L 494 -744 
L 750 256 
L 750 794 
z
" transform="scale(0.015625)"/>
      <path id="DejaVuSans-41" d="M 2188 4044 
L 1331 1722 
L 3047 1722 
L 2188 4044 
z
M 1831 4666 
L 2547 4666 
L 4325 0 
L 3669 0 
L 3244 1197 
L 1141 1197 
L 716 0 
L 50 0 
L 1831 4666 
z
" transform="scale(0.015625)"/>
      <path id="DejaVuSans-2b" d="M 2944 4013 
L 2944 2272 
L 4684 2272 
L 4684 1741 
L 2944 1741 
L 2944 0 
L 2419 0 
L 2419 1741 
L 678 1741 
L 678 2272 
L 2419 2272 
L 2419 4013 
L 2944 4013 
z
" transform="scale(0.015625)"/>
     </defs>
     <use xlink:href="#DejaVuSans-50"/>
     <use xlink:href="#DejaVuSans-65" transform="translate(56.677734 0)"/>
     <use xlink:href="#DejaVuSans-61" transform="translate(118.201172 0)"/>
     <use xlink:href="#DejaVuSans-6b" transform="translate(179.480469 0)"/>
     <use xlink:href="#DejaVuSans-3a" transform="translate(237.390625 0)"/>
     <use xlink:href="#DejaVuSans-20" transform="translate(271.082031 0)"/>
     <use xlink:href="#DejaVuSans-52" transform="translate(302.869141 0)"/>
     <use xlink:href="#DejaVuSans-54" transform="translate(365.101562 0)"/>
     <use xlink:href="#DejaVuSans-3d" transform="translate(426.185547 0)"/>
     <use xlink:href="#DejaVuSans-33" transform="translate(509.974609 0)"/>
     <use xlink:href="#DejaVuSans-2e" transform="translate(573.597656 0)"/>
     <use xlink:href="#DejaVuSans-33" transform="translate(605.384766 0)"/>
     <use xlink:href="#DejaVuSans-35" transform="translate(669.007812 0)"/>
     <use xlink:href="#DejaVuSans-2c" transform="translate(732.630859 0)"/>
     <use xlink:href="#DejaVuSans-20" transform="translate(764.417969 0)"/>
     <use xlink:href="#DejaVuSans-41" transform="translate(796.205078 0)"/>
     <use xlink:href="#DejaVuSans-72" transform="translate(864.613281 0)"/>
     <use xlink:href="#DejaVuSans-65" transform="translate(903.476562 0)"/>
     <use xlink:href="#DejaVuSans-61" transform="translate(965 0)"/>
     <use xlink:href="#DejaVuSans-3d" transform="translate(1026.279297 0)"/>
     <use xlink:href="#DejaVuSans-31" transform="translate(1110.068359 0)"/>
     <use xlink:href="#DejaVuSans-2e" transform="translate(1173.691406 0)"/>
     <use xlink:href="#DejaVuSans-31" transform="translate(1205.478516 0)"/>
     <use xlink:href="#DejaVuSans-31" transform="translate(1269.101562 0)"/>
     <use xlink:href="#DejaVuSans-65" transform="translate(1332.724609 0)"/>
     <use xlink:href="#DejaVuSans-2b" transform="translate(1394.248047 0)"/>
     <use xlink:href="#DejaVuSans-30" transform="translate(1478.037109 0)"/>
     <use xlink:href="#DejaVuSans-34" transform="translate(1541.660156 0)"/>
    </g>
    <!-- (7.60% of total) -->
    <g style="fill: #ff0000" transform="translate(647.887561 475.498142) scale(0.1 -0.1)">
     <defs>
      <path id="DejaVuSans-37" d="M 525 4666 
L 3525 4666 
L 3525 4397 
L 1831 0 
L 1172 0 
L 2766 4134 
L 525 4134 
L 525 4666 
z
" transform="scale(0.015625)"/>
      <path id="DejaVuSans-36" d="M 2113 2584 
Q 1688 2584 1439 2293 
Q 1191 2003 1191 1497 
Q 1191 994 1439 701 
Q 1688 409 2113 409 
Q 2538 409 2786 701 
Q 3034 994 3034 1497 
Q 3034 2003 2786 2293 
Q 2538 2584 2113 2584 
z
M 3366 4563 
L 3366 3988 
Q 3128 4100 2886 4159 
Q 2644 4219 2406 4219 
Q 1781 4219 1451 3797 
Q 1122 3375 1075 2522 
Q 1259 2794 1537 2939 
Q 1816 3084 2150 3084 
Q 2853 3084 3261 2657 
Q 3669 2231 3669 1497 
Q 3669 778 3244 343 
Q 2819 -91 2113 -91 
Q 1303 -91 875 529 
Q 447 1150 447 2328 
Q 447 3434 972 4092 
Q 1497 4750 2381 4750 
Q 2619 4750 2861 4703 
Q 3103 4656 3366 4563 
z
" transform="scale(0.015625)"/>
      <path id="DejaVuSans-25" d="M 4653 2053 
Q 4381 2053 4226 1822 
Q 4072 1591 4072 1178 
Q 4072 772 4226 539 
Q 4381 306 4653 306 
Q 4919 306 5073 539 
Q 5228 772 5228 1178 
Q 5228 1588 5073 1820 
Q 4919 2053 4653 2053 
z
M 4653 2450 
Q 5147 2450 5437 2106 
Q 5728 1763 5728 1178 
Q 5728 594 5436 251 
Q 5144 -91 4653 -91 
Q 4153 -91 3862 251 
Q 3572 594 3572 1178 
Q 3572 1766 3864 2108 
Q 4156 2450 4653 2450 
z
M 1428 4353 
Q 1159 4353 1004 4120 
Q 850 3888 850 3481 
Q 850 3069 1003 2837 
Q 1156 2606 1428 2606 
Q 1700 2606 1854 2837 
Q 2009 3069 2009 3481 
Q 2009 3884 1853 4118 
Q 1697 4353 1428 4353 
z
M 4250 4750 
L 4750 4750 
L 1831 -91 
L 1331 -91 
L 4250 4750 
z
M 1428 4750 
Q 1922 4750 2215 4408 
Q 2509 4066 2509 3481 
Q 2509 2891 2217 2550 
Q 1925 2209 1428 2209 
Q 931 2209 642 2551 
Q 353 2894 353 3481 
Q 353 4063 643 4406 
Q 934 4750 1428 4750 
z
" transform="scale(0.015625)"/>
      <path id="DejaVuSans-66" d="M 2375 4863 
L 2375 4384 
L 1825 4384 
Q 1516 4384 1395 4259 
Q 1275 4134 1275 3809 
L 1275 3500 
L 2222 3500 
L 2222 3053 
L 1275 3053 
L 1275 0 
L 697 0 
L 697 3053 
L 147 3053 
L 147 3500 
L 697 3500 
L 697 3744 
Q 697 4328 969 4595 
Q 1241 4863 1831 4863 
L 2375 4863 
z
" transform="scale(0.015625)"/>
     </defs>
     <use xlink:href="#DejaVuSans-28"/>
     <use xlink:href="#DejaVuSans-37" transform="translate(39.013672 0)"/>
     <use xlink:href="#DejaVuSans-2e" transform="translate(102.636719 0)"/>
     <use xlink:href="#DejaVuSans-36" transform="translate(134.423828 0)"/>
     <use xlink:href="#DejaVuSans-30" transform="translate(198.046875 0)"/>
     <use xlink:href="#DejaVuSans-25" transform="translate(261.669922 0)"/>
     <use xlink:href="#DejaVuSans-20" transform="translate(356.689453 0)"/>
     <use xlink:href="#DejaVuSans-6f" transform="translate(388.476562 0)"/>
     <use xlink:href="#DejaVuSans-66" transform="translate(449.658203 0)"/>
     <use xlink:href="#DejaVuSans-20" transform="translate(484.863281 0)"/>
     <use xlink:href="#DejaVuSans-74" transform="translate(516.650391 0)"/>
     <use xlink:href="#DejaVuSans-6f" transform="translate(555.859375 0)"/>
     <use xlink:href="#DejaVuSans-74" transform="translate(617.041016 0)"/>
     <use xlink:href="#DejaVuSans-61" transform="translate(656.25 0)"/>
     <use xlink:href="#DejaVuSans-6c" transform="translate(717.529297 0)"/>
     <use xlink:href="#DejaVuSans-29" transform="translate(745.3125 0)"/>
    </g>
   </g>
   <g id="text_16">
    <!-- UV &amp; MS Chromatograms: IrCp2C15, target m/z=865.2150858 -->
    <g transform="translate(262.222188 20.88) scale(0.12 -0.12)">
     <defs>
      <path id="DejaVuSans-55" d="M 556 4666 
L 1191 4666 
L 1191 1831 
Q 1191 1081 1462 751 
Q 1734 422 2344 422 
Q 2950 422 3222 751 
Q 3494 1081 3494 1831 
L 3494 4666 
L 4128 4666 
L 4128 1753 
Q 4128 841 3676 375 
Q 3225 -91 2344 -91 
Q 1459 -91 1007 375 
Q 556 841 556 1753 
L 556 4666 
z
" transform="scale(0.015625)"/>
      <path id="DejaVuSans-56" d="M 1831 0 
L 50 4666 
L 709 4666 
L 2188 738 
L 3669 4666 
L 4325 4666 
L 2547 0 
L 1831 0 
z
" transform="scale(0.015625)"/>
      <path id="DejaVuSans-26" d="M 1556 2509 
Q 1272 2256 1139 2004 
Q 1006 1753 1006 1478 
Q 1006 1022 1337 719 
Q 1669 416 2169 416 
Q 2466 416 2725 514 
Q 2984 613 3213 813 
L 1556 2509 
z
M 1997 2859 
L 3584 1234 
Q 3769 1513 3872 1830 
Q 3975 2147 3994 2503 
L 4575 2503 
Q 4538 2091 4375 1687 
Q 4213 1284 3922 891 
L 4794 0 
L 4006 0 
L 3559 459 
Q 3234 181 2878 45 
Q 2522 -91 2113 -91 
Q 1359 -91 881 339 
Q 403 769 403 1441 
Q 403 1841 612 2192 
Q 822 2544 1241 2853 
Q 1091 3050 1012 3245 
Q 934 3441 934 3628 
Q 934 4134 1281 4442 
Q 1628 4750 2203 4750 
Q 2463 4750 2720 4694 
Q 2978 4638 3244 4525 
L 3244 3956 
Q 2972 4103 2725 4179 
Q 2478 4256 2266 4256 
Q 1938 4256 1733 4082 
Q 1528 3909 1528 3634 
Q 1528 3475 1620 3314 
Q 1713 3153 1997 2859 
z
" transform="scale(0.015625)"/>
      <path id="DejaVuSans-4d" d="M 628 4666 
L 1569 4666 
L 2759 1491 
L 3956 4666 
L 4897 4666 
L 4897 0 
L 4281 0 
L 4281 4097 
L 3078 897 
L 2444 897 
L 1241 4097 
L 1241 0 
L 628 0 
L 628 4666 
z
" transform="scale(0.015625)"/>
      <path id="DejaVuSans-53" d="M 3425 4513 
L 3425 3897 
Q 3066 4069 2747 4153 
Q 2428 4238 2131 4238 
Q 1616 4238 1336 4038 
Q 1056 3838 1056 3469 
Q 1056 3159 1242 3001 
Q 1428 2844 1947 2747 
L 2328 2669 
Q 3034 2534 3370 2195 
Q 3706 1856 3706 1288 
Q 3706 609 3251 259 
Q 2797 -91 1919 -91 
Q 1588 -91 1214 -16 
Q 841 59 441 206 
L 441 856 
Q 825 641 1194 531 
Q 1563 422 1919 422 
Q 2459 422 2753 634 
Q 3047 847 3047 1241 
Q 3047 1584 2836 1778 
Q 2625 1972 2144 2069 
L 1759 2144 
Q 1053 2284 737 2584 
Q 422 2884 422 3419 
Q 422 4038 858 4394 
Q 1294 4750 2059 4750 
Q 2388 4750 2728 4690 
Q 3069 4631 3425 4513 
z
" transform="scale(0.015625)"/>
      <path id="DejaVuSans-43" d="M 4122 4306 
L 4122 3641 
Q 3803 3938 3442 4084 
Q 3081 4231 2675 4231 
Q 1875 4231 1450 3742 
Q 1025 3253 1025 2328 
Q 1025 1406 1450 917 
Q 1875 428 2675 428 
Q 3081 428 3442 575 
Q 3803 722 4122 1019 
L 4122 359 
Q 3791 134 3420 21 
Q 3050 -91 2638 -91 
Q 1578 -91 968 557 
Q 359 1206 359 2328 
Q 359 3453 968 4101 
Q 1578 4750 2638 4750 
Q 3056 4750 3426 4639 
Q 3797 4528 4122 4306 
z
" transform="scale(0.015625)"/>
      <path id="DejaVuSans-68" d="M 3513 2113 
L 3513 0 
L 2938 0 
L 2938 2094 
Q 2938 2591 2744 2837 
Q 2550 3084 2163 3084 
Q 1697 3084 1428 2787 
Q 1159 2491 1159 1978 
L 1159 0 
L 581 0 
L 581 4863 
L 1159 4863 
L 1159 2956 
Q 1366 3272 1645 3428 
Q 1925 3584 2291 3584 
Q 2894 3584 3203 3211 
Q 3513 2838 3513 2113 
z
" transform="scale(0.015625)"/>
      <path id="DejaVuSans-67" d="M 2906 1791 
Q 2906 2416 2648 2759 
Q 2391 3103 1925 3103 
Q 1463 3103 1205 2759 
Q 947 2416 947 1791 
Q 947 1169 1205 825 
Q 1463 481 1925 481 
Q 2391 481 2648 825 
Q 2906 1169 2906 1791 
z
M 3481 434 
Q 3481 -459 3084 -895 
Q 2688 -1331 1869 -1331 
Q 1566 -1331 1297 -1286 
Q 1028 -1241 775 -1147 
L 775 -588 
Q 1028 -725 1275 -790 
Q 1522 -856 1778 -856 
Q 2344 -856 2625 -561 
Q 2906 -266 2906 331 
L 2906 616 
Q 2728 306 2450 153 
Q 2172 0 1784 0 
Q 1141 0 747 490 
Q 353 981 353 1791 
Q 353 2603 747 3093 
Q 1141 3584 1784 3584 
Q 2172 3584 2450 3431 
Q 2728 3278 2906 2969 
L 2906 3500 
L 3481 3500 
L 3481 434 
z
" transform="scale(0.015625)"/>
      <path id="DejaVuSans-70" d="M 1159 525 
L 1159 -1331 
L 581 -1331 
L 581 3500 
L 1159 3500 
L 1159 2969 
Q 1341 3281 1617 3432 
Q 1894 3584 2278 3584 
Q 2916 3584 3314 3078 
Q 3713 2572 3713 1747 
Q 3713 922 3314 415 
Q 2916 -91 2278 -91 
Q 1894 -91 1617 61 
Q 1341 213 1159 525 
z
M 3116 1747 
Q 3116 2381 2855 2742 
Q 2594 3103 2138 3103 
Q 1681 3103 1420 2742 
Q 1159 2381 1159 1747 
Q 1159 1113 1420 752 
Q 1681 391 2138 391 
Q 2594 391 2855 752 
Q 3116 1113 3116 1747 
z
" transform="scale(0.015625)"/>
      <path id="DejaVuSans-2f" d="M 1625 4666 
L 2156 4666 
L 531 -594 
L 0 -594 
L 1625 4666 
z
" transform="scale(0.015625)"/>
      <path id="DejaVuSans-38" d="M 2034 2216 
Q 1584 2216 1326 1975 
Q 1069 1734 1069 1313 
Q 1069 891 1326 650 
Q 1584 409 2034 409 
Q 2484 409 2743 651 
Q 3003 894 3003 1313 
Q 3003 1734 2745 1975 
Q 2488 2216 2034 2216 
z
M 1403 2484 
Q 997 2584 770 2862 
Q 544 3141 544 3541 
Q 544 4100 942 4425 
Q 1341 4750 2034 4750 
Q 2731 4750 3128 4425 
Q 3525 4100 3525 3541 
Q 3525 3141 3298 2862 
Q 3072 2584 2669 2484 
Q 3125 2378 3379 2068 
Q 3634 1759 3634 1313 
Q 3634 634 3220 271 
Q 2806 -91 2034 -91 
Q 1263 -91 848 271 
Q 434 634 434 1313 
Q 434 1759 690 2068 
Q 947 2378 1403 2484 
z
M 1172 3481 
Q 1172 3119 1398 2916 
Q 1625 2713 2034 2713 
Q 2441 2713 2670 2916 
Q 2900 3119 2900 3481 
Q 2900 3844 2670 4047 
Q 2441 4250 2034 4250 
Q 1625 4250 1398 4047 
Q 1172 3844 1172 3481 
z
" transform="scale(0.015625)"/>
     </defs>
     <use xlink:href="#DejaVuSans-55"/>
     <use xlink:href="#DejaVuSans-56" transform="translate(73.193359 0)"/>
     <use xlink:href="#DejaVuSans-20" transform="translate(141.601562 0)"/>
     <use xlink:href="#DejaVuSans-26" transform="translate(173.388672 0)"/>
     <use xlink:href="#DejaVuSans-20" transform="translate(251.367188 0)"/>
     <use xlink:href="#DejaVuSans-4d" transform="translate(283.154297 0)"/>
     <use xlink:href="#DejaVuSans-53" transform="translate(369.433594 0)"/>
     <use xlink:href="#DejaVuSans-20" transform="translate(432.910156 0)"/>
     <use xlink:href="#DejaVuSans-43" transform="translate(464.697266 0)"/>
     <use xlink:href="#DejaVuSans-68" transform="translate(534.521484 0)"/>
     <use xlink:href="#DejaVuSans-72" transform="translate(597.900391 0)"/>
     <use xlink:href="#DejaVuSans-6f" transform="translate(636.763672 0)"/>
     <use xlink:href="#DejaVuSans-6d" transform="translate(697.945312 0)"/>
     <use xlink:href="#DejaVuSans-61" transform="translate(795.357422 0)"/>
     <use xlink:href="#DejaVuSans-74" transform="translate(856.636719 0)"/>
     <use xlink:href="#DejaVuSans-6f" transform="translate(895.845703 0)"/>
     <use xlink:href="#DejaVuSans-67" transform="translate(957.027344 0)"/>
     <use xlink:href="#DejaVuSans-72" transform="translate(1020.503906 0)"/>
     <use xlink:href="#DejaVuSans-61" transform="translate(1061.617188 0)"/>
     <use xlink:href="#DejaVuSans-6d" transform="translate(1122.896484 0)"/>
     <use xlink:href="#DejaVuSans-73" transform="translate(1220.308594 0)"/>
     <use xlink:href="#DejaVuSans-3a" transform="translate(1272.408203 0)"/>
     <use xlink:href="#DejaVuSans-20" transform="translate(1306.099609 0)"/>
     <use xlink:href="#DejaVuSans-49" transform="translate(1337.886719 0)"/>
     <use xlink:href="#DejaVuSans-72" transform="translate(1367.378906 0)"/>
     <use xlink:href="#DejaVuSans-43" transform="translate(1408.492188 0)"/>
     <use xlink:href="#DejaVuSans-70" transform="translate(1478.316406 0)"/>
     <use xlink:href="#DejaVuSans-32" transform="translate(1541.792969 0)"/>
     <use xlink:href="#DejaVuSans-43" transform="translate(1605.416016 0)"/>
     <use xlink:href="#DejaVuSans-31" transform="translate(1675.240234 0)"/>
     <use xlink:href="#DejaVuSans-35" transform="translate(1738.863281 0)"/>
     <use xlink:href="#DejaVuSans-2c" transform="translate(1802.486328 0)"/>
     <use xlink:href="#DejaVuSans-20" transform="translate(1834.273438 0)"/>
     <use xlink:href="#DejaVuSans-74" transform="translate(1866.060547 0)"/>
     <use xlink:href="#DejaVuSans-61" transform="translate(1905.269531 0)"/>
     <use xlink:href="#DejaVuSans-72" transform="translate(1966.548828 0)"/>
     <use xlink:href="#DejaVuSans-67" transform="translate(2005.912109 0)"/>
     <use xlink:href="#DejaVuSans-65" transform="translate(2069.388672 0)"/>
     <use xlink:href="#DejaVuSans-74" transform="translate(2130.912109 0)"/>
     <use xlink:href="#DejaVuSans-20" transform="translate(2170.121094 0)"/>
     <use xlink:href="#DejaVuSans-6d" transform="translate(2201.908203 0)"/>
     <use xlink:href="#DejaVuSans-2f" transform="translate(2299.320312 0)"/>
     <use xlink:href="#DejaVuSans-7a" transform="translate(2333.011719 0)"/>
     <use xlink:href="#DejaVuSans-3d" transform="translate(2385.501953 0)"/>
     <use xlink:href="#DejaVuSans-38" transform="translate(2469.291016 0)"/>
     <use xlink:href="#DejaVuSans-36" transform="translate(2532.914062 0)"/>
     <use xlink:href="#DejaVuSans-35" transform="translate(2596.537109 0)"/>
     <use xlink:href="#DejaVuSans-2e" transform="translate(2660.160156 0)"/>
     <use xlink:href="#DejaVuSans-32" transform="translate(2691.947266 0)"/>
     <use xlink:href="#DejaVuSans-31" transform="translate(2755.570312 0)"/>
     <use xlink:href="#DejaVuSans-35" transform="translate(2819.193359 0)"/>
     <use xlink:href="#DejaVuSans-30" transform="translate(2882.816406 0)"/>
     <use xlink:href="#DejaVuSans-38" transform="translate(2946.439453 0)"/>
     <use xlink:href="#DejaVuSans-35" transform="translate(3010.0625 0)"/>
     <use xlink:href="#DejaVuSans-38" transform="translate(3073.685547 0)"/>
    </g>
   </g>
   <g id="legend_1">
    <g id="patch_8">
     <path d="M 685.971875 64.23625 
L 846.2 64.23625 
Q 848.2 64.23625 848.2 62.23625 
L 848.2 33.88 
Q 848.2 31.88 846.2 31.88 
L 685.971875 31.88 
Q 683.971875 31.88 683.971875 33.88 
L 683.971875 62.23625 
Q 683.971875 64.23625 685.971875 64.23625 
z
" style="fill: #ffffff; opacity: 0.8; stroke: #cccccc; stroke-linejoin: miter"/>
    </g>
    <g id="line2d_15">
     <path d="M 687.971875 39.978437 
L 697.971875 39.978437 
L 707.971875 39.978437 
" style="fill: none; stroke: #0000ff; stroke-width: 1.5; stroke-linecap: square"/>
    </g>
    <g id="text_17">
     <!-- UV Intensity (normalized) -->
     <g transform="translate(715.971875 43.478437) scale(0.1 -0.1)">
      <use xlink:href="#DejaVuSans-55"/>
      <use xlink:href="#DejaVuSans-56" transform="translate(73.193359 0)"/>
      <use xlink:href="#DejaVuSans-20" transform="translate(141.601562 0)"/>
      <use xlink:href="#DejaVuSans-49" transform="translate(173.388672 0)"/>
      <use xlink:href="#DejaVuSans-6e" transform="translate(202.880859 0)"/>
      <use xlink:href="#DejaVuSans-74" transform="translate(266.259766 0)"/>
      <use xlink:href="#DejaVuSans-65" transform="translate(305.46875 0)"/>
      <use xlink:href="#DejaVuSans-6e" transform="translate(366.992188 0)"/>
      <use xlink:href="#DejaVuSans-73" transform="translate(430.371094 0)"/>
      <use xlink:href="#DejaVuSans-69" transform="translate(482.470703 0)"/>
      <use xlink:href="#DejaVuSans-74" transform="translate(510.253906 0)"/>
      <use xlink:href="#DejaVuSans-79" transform="translate(549.462891 0)"/>
      <use xlink:href="#DejaVuSans-20" transform="translate(608.642578 0)"/>
      <use xlink:href="#DejaVuSans-28" transform="translate(640.429688 0)"/>
      <use xlink:href="#DejaVuSans-6e" transform="translate(679.443359 0)"/>
      <use xlink:href="#DejaVuSans-6f" transform="translate(742.822266 0)"/>
      <use xlink:href="#DejaVuSans-72" transform="translate(804.003906 0)"/>
      <use xlink:href="#DejaVuSans-6d" transform="translate(843.367188 0)"/>
      <use xlink:href="#DejaVuSans-61" transform="translate(940.779297 0)"/>
      <use xlink:href="#DejaVuSans-6c" transform="translate(1002.058594 0)"/>
      <use xlink:href="#DejaVuSans-69" transform="translate(1029.841797 0)"/>
      <use xlink:href="#DejaVuSans-7a" transform="translate(1057.625 0)"/>
      <use xlink:href="#DejaVuSans-65" transform="translate(1110.115234 0)"/>
      <use xlink:href="#DejaVuSans-64" transform="translate(1171.638672 0)"/>
      <use xlink:href="#DejaVuSans-29" transform="translate(1235.115234 0)"/>
     </g>
    </g>
    <g id="line2d_16">
     <path d="M 687.971875 54.656562 
L 697.971875 54.656562 
L 707.971875 54.656562 
" style="fill: none; stroke: #008000; stroke-width: 1.5; stroke-linecap: square"/>
    </g>
    <g id="text_18">
     <!-- MS Intensity (normalized) -->
     <g transform="translate(715.971875 58.156562) scale(0.1 -0.1)">
      <use xlink:href="#DejaVuSans-4d"/>
      <use xlink:href="#DejaVuSans-53" transform="translate(86.279297 0)"/>
      <use xlink:href="#DejaVuSans-20" transform="translate(149.755859 0)"/>
      <use xlink:href="#DejaVuSans-49" transform="translate(181.542969 0)"/>
      <use xlink:href="#DejaVuSans-6e" transform="translate(211.035156 0)"/>
      <use xlink:href="#DejaVuSans-74" transform="translate(274.414062 0)"/>
      <use xlink:href="#DejaVuSans-65" transform="translate(313.623047 0)"/>
      <use xlink:href="#DejaVuSans-6e" transform="translate(375.146484 0)"/>
      <use xlink:href="#DejaVuSans-73" transform="translate(438.525391 0)"/>
      <use xlink:href="#DejaVuSans-69" transform="translate(490.625 0)"/>
      <use xlink:href="#DejaVuSans-74" transform="translate(518.408203 0)"/>
      <use xlink:href="#DejaVuSans-79" transform="translate(557.617188 0)"/>
      <use xlink:href="#DejaVuSans-20" transform="translate(616.796875 0)"/>
      <use xlink:href="#DejaVuSans-28" transform="translate(648.583984 0)"/>
      <use xlink:href="#DejaVuSans-6e" transform="translate(687.597656 0)"/>
      <use xlink:href="#DejaVuSans-6f" transform="translate(750.976562 0)"/>
      <use xlink:href="#DejaVuSans-72" transform="translate(812.158203 0)"/>
      <use xlink:href="#DejaVuSans-6d" transform="translate(851.521484 0)"/>
      <use xlink:href="#DejaVuSans-61" transform="translate(948.933594 0)"/>
      <use xlink:href="#DejaVuSans-6c" transform="translate(1010.212891 0)"/>
      <use xlink:href="#DejaVuSans-69" transform="translate(1037.996094 0)"/>
      <use xlink:href="#DejaVuSans-7a" transform="translate(1065.779297 0)"/>
      <use xlink:href="#DejaVuSans-65" transform="translate(1118.269531 0)"/>
      <use xlink:href="#DejaVuSans-64" transform="translate(1179.792969 0)"/>
      <use xlink:href="#DejaVuSans-29" transform="translate(1243.269531 0)"/>
     </g>
    </g>
   </g>
  </g>
 </g>
 <defs>
  <clipPath id="pca7fb0b449">
   <rect x="47.72" y="26.88" width="805.48" height="507.16"/>
  </clipPath>
 </defs>
</svg>
