<?xml version="1.0" encoding="utf-8" standalone="no"?>
<!DOCTYPE svg PUBLIC "-//W3C//DTD SVG 1.1//EN"
  "http://www.w3.org/Graphics/SVG/1.1/DTD/svg11.dtd">
<svg xmlns:xlink="http://www.w3.org/1999/xlink" width="864pt" height="576pt" viewBox="0 0 864 576" xmlns="http://www.w3.org/2000/svg" version="1.1">
 <metadata>
  <rdf:RDF xmlns:dc="http://purl.org/dc/elements/1.1/" xmlns:cc="http://creativecommons.org/ns#" xmlns:rdf="http://www.w3.org/1999/02/22-rdf-syntax-ns#">
   <cc:Work>
    <dc:type rdf:resource="http://purl.org/dc/dcmitype/StillImage"/>
    <dc:date>2025-02-07T17:26:55.697911</dc:date>
    <dc:format>image/svg+xml</dc:format>
    <dc:creator>
     <cc:Agent>
      <dc:title>Matplotlib v3.10.0, https://matplotlib.org/</dc:title>
     </cc:Agent>
    </dc:creator>
   </cc:Work>
  </rdf:RDF>
 </metadata>
 <defs>
  <style type="text/css">*{stroke-linejoin: round; stroke-linecap: butt}</style>
 </defs>
 <g id="figure_1">
  <g id="patch_1">
   <path d="M 0 576 
L 864 576 
L 864 0 
L 0 0 
z
" style="fill: #ffffff"/>
  </g>
  <g id="axes_1">
   <g id="patch_2">
    <path d="M 47.72 534.04 
L 853.2 534.04 
L 853.2 26.88 
L 47.72 26.88 
z
" style="fill: #ffffff"/>
   </g>
   <g id="matplotlib.axis_1">
    <g id="xtick_1">
     <g id="line2d_1">
      <defs>
       <path id="m4bc905f287" d="M 0 0 
L 0 3.5 
" style="stroke: #000000; stroke-width: 0.8"/>
      </defs>
      <g>
       <use xlink:href="#m4bc905f287" x="83.100486" y="534.04" style="stroke: #000000; stroke-width: 0.8"/>
      </g>
     </g>
     <g id="text_1">
      <!-- 0 -->
      <g transform="translate(79.919236 548.638438) scale(0.1 -0.1)">
       <defs>
        <path id="DejaVuSans-30" d="M 2034 4250 
Q 1547 4250 1301 3770 
Q 1056 3291 1056 2328 
Q 1056 1369 1301 889 
Q 1547 409 2034 409 
Q 2525 409 2770 889 
Q 3016 1369 3016 2328 
Q 3016 3291 2770 3770 
Q 2525 4250 2034 4250 
z
M 2034 4750 
Q 2819 4750 3233 4129 
Q 3647 3509 3647 2328 
Q 3647 1150 3233 529 
Q 2819 -91 2034 -91 
Q 1250 -91 836 529 
Q 422 1150 422 2328 
Q 422 3509 836 4129 
Q 1250 4750 2034 4750 
z
" transform="scale(0.015625)"/>
       </defs>
       <use xlink:href="#DejaVuSans-30"/>
      </g>
     </g>
    </g>
    <g id="xtick_2">
     <g id="line2d_2">
      <g>
       <use xlink:href="#m4bc905f287" x="229.795887" y="534.04" style="stroke: #000000; stroke-width: 0.8"/>
      </g>
     </g>
     <g id="text_2">
      <!-- 1 -->
      <g transform="translate(226.614637 548.638438) scale(0.1 -0.1)">
       <defs>
        <path id="DejaVuSans-31" d="M 794 531 
L 1825 531 
L 1825 4091 
L 703 3866 
L 703 4441 
L 1819 4666 
L 2450 4666 
L 2450 531 
L 3481 531 
L 3481 0 
L 794 0 
L 794 531 
z
" transform="scale(0.015625)"/>
       </defs>
       <use xlink:href="#DejaVuSans-31"/>
      </g>
     </g>
    </g>
    <g id="xtick_3">
     <g id="line2d_3">
      <g>
       <use xlink:href="#m4bc905f287" x="376.491289" y="534.04" style="stroke: #000000; stroke-width: 0.8"/>
      </g>
     </g>
     <g id="text_3">
      <!-- 2 -->
      <g transform="translate(373.310039 548.638438) scale(0.1 -0.1)">
       <defs>
        <path id="DejaVuSans-32" d="M 1228 531 
L 3431 531 
L 3431 0 
L 469 0 
L 469 531 
Q 828 903 1448 1529 
Q 2069 2156 2228 2338 
Q 2531 2678 2651 2914 
Q 2772 3150 2772 3378 
Q 2772 3750 2511 3984 
Q 2250 4219 1831 4219 
Q 1534 4219 1204 4116 
Q 875 4013 500 3803 
L 500 4441 
Q 881 4594 1212 4672 
Q 1544 4750 1819 4750 
Q 2544 4750 2975 4387 
Q 3406 4025 3406 3419 
Q 3406 3131 3298 2873 
Q 3191 2616 2906 2266 
Q 2828 2175 2409 1742 
Q 1991 1309 1228 531 
z
" transform="scale(0.015625)"/>
       </defs>
       <use xlink:href="#DejaVuSans-32"/>
      </g>
     </g>
    </g>
    <g id="xtick_4">
     <g id="line2d_4">
      <g>
       <use xlink:href="#m4bc905f287" x="523.18669" y="534.04" style="stroke: #000000; stroke-width: 0.8"/>
      </g>
     </g>
     <g id="text_4">
      <!-- 3 -->
      <g transform="translate(520.00544 548.638438) scale(0.1 -0.1)">
       <defs>
        <path id="DejaVuSans-33" d="M 2597 2516 
Q 3050 2419 3304 2112 
Q 3559 1806 3559 1356 
Q 3559 666 3084 287 
Q 2609 -91 1734 -91 
Q 1441 -91 1130 -33 
Q 819 25 488 141 
L 488 750 
Q 750 597 1062 519 
Q 1375 441 1716 441 
Q 2309 441 2620 675 
Q 2931 909 2931 1356 
Q 2931 1769 2642 2001 
Q 2353 2234 1838 2234 
L 1294 2234 
L 1294 2753 
L 1863 2753 
Q 2328 2753 2575 2939 
Q 2822 3125 2822 3475 
Q 2822 3834 2567 4026 
Q 2313 4219 1838 4219 
Q 1578 4219 1281 4162 
Q 984 4106 628 3988 
L 628 4550 
Q 988 4650 1302 4700 
Q 1616 4750 1894 4750 
Q 2613 4750 3031 4423 
Q 3450 4097 3450 3541 
Q 3450 3153 3228 2886 
Q 3006 2619 2597 2516 
z
" transform="scale(0.015625)"/>
       </defs>
       <use xlink:href="#DejaVuSans-33"/>
      </g>
     </g>
    </g>
    <g id="xtick_5">
     <g id="line2d_5">
      <g>
       <use xlink:href="#m4bc905f287" x="669.882092" y="534.04" style="stroke: #000000; stroke-width: 0.8"/>
      </g>
     </g>
     <g id="text_5">
      <!-- 4 -->
      <g transform="translate(666.700842 548.638438) scale(0.1 -0.1)">
       <defs>
        <path id="DejaVuSans-34" d="M 2419 4116 
L 825 1625 
L 2419 1625 
L 2419 4116 
z
M 2253 4666 
L 3047 4666 
L 3047 1625 
L 3713 1625 
L 3713 1100 
L 3047 1100 
L 3047 0 
L 2419 0 
L 2419 1100 
L 313 1100 
L 313 1709 
L 2253 4666 
z
" transform="scale(0.015625)"/>
       </defs>
       <use xlink:href="#DejaVuSans-34"/>
      </g>
     </g>
    </g>
    <g id="xtick_6">
     <g id="line2d_6">
      <g>
       <use xlink:href="#m4bc905f287" x="816.577493" y="534.04" style="stroke: #000000; stroke-width: 0.8"/>
      </g>
     </g>
     <g id="text_6">
      <!-- 5 -->
      <g transform="translate(813.396243 548.638438) scale(0.1 -0.1)">
       <defs>
        <path id="DejaVuSans-35" d="M 691 4666 
L 3169 4666 
L 3169 4134 
L 1269 4134 
L 1269 2991 
Q 1406 3038 1543 3061 
Q 1681 3084 1819 3084 
Q 2600 3084 3056 2656 
Q 3513 2228 3513 1497 
Q 3513 744 3044 326 
Q 2575 -91 1722 -91 
Q 1428 -91 1123 -41 
Q 819 9 494 109 
L 494 744 
Q 775 591 1075 516 
Q 1375 441 1709 441 
Q 2250 441 2565 725 
Q 2881 1009 2881 1497 
Q 2881 1984 2565 2268 
Q 2250 2553 1709 2553 
Q 1456 2553 1204 2497 
Q 953 2441 691 2322 
L 691 4666 
z
" transform="scale(0.015625)"/>
       </defs>
       <use xlink:href="#DejaVuSans-35"/>
      </g>
     </g>
    </g>
    <g id="text_7">
     <!-- Retention Time (min) -->
     <g transform="translate(397.61 562.316562) scale(0.1 -0.1)">
      <defs>
       <path id="DejaVuSans-52" d="M 2841 2188 
Q 3044 2119 3236 1894 
Q 3428 1669 3622 1275 
L 4263 0 
L 3584 0 
L 2988 1197 
Q 2756 1666 2539 1819 
Q 2322 1972 1947 1972 
L 1259 1972 
L 1259 0 
L 628 0 
L 628 4666 
L 2053 4666 
Q 2853 4666 3247 4331 
Q 3641 3997 3641 3322 
Q 3641 2881 3436 2590 
Q 3231 2300 2841 2188 
z
M 1259 4147 
L 1259 2491 
L 2053 2491 
Q 2509 2491 2742 2702 
Q 2975 2913 2975 3322 
Q 2975 3731 2742 3939 
Q 2509 4147 2053 4147 
L 1259 4147 
z
" transform="scale(0.015625)"/>
       <path id="DejaVuSans-65" d="M 3597 1894 
L 3597 1613 
L 953 1613 
Q 991 1019 1311 708 
Q 1631 397 2203 397 
Q 2534 397 2845 478 
Q 3156 559 3463 722 
L 3463 178 
Q 3153 47 2828 -22 
Q 2503 -91 2169 -91 
Q 1331 -91 842 396 
Q 353 884 353 1716 
Q 353 2575 817 3079 
Q 1281 3584 2069 3584 
Q 2775 3584 3186 3129 
Q 3597 2675 3597 1894 
z
M 3022 2063 
Q 3016 2534 2758 2815 
Q 2500 3097 2075 3097 
Q 1594 3097 1305 2825 
Q 1016 2553 972 2059 
L 3022 2063 
z
" transform="scale(0.015625)"/>
       <path id="DejaVuSans-74" d="M 1172 4494 
L 1172 3500 
L 2356 3500 
L 2356 3053 
L 1172 3053 
L 1172 1153 
Q 1172 725 1289 603 
Q 1406 481 1766 481 
L 2356 481 
L 2356 0 
L 1766 0 
Q 1100 0 847 248 
Q 594 497 594 1153 
L 594 3053 
L 172 3053 
L 172 3500 
L 594 3500 
L 594 4494 
L 1172 4494 
z
" transform="scale(0.015625)"/>
       <path id="DejaVuSans-6e" d="M 3513 2113 
L 3513 0 
L 2938 0 
L 2938 2094 
Q 2938 2591 2744 2837 
Q 2550 3084 2163 3084 
Q 1697 3084 1428 2787 
Q 1159 2491 1159 1978 
L 1159 0 
L 581 0 
L 581 3500 
L 1159 3500 
L 1159 2956 
Q 1366 3272 1645 3428 
Q 1925 3584 2291 3584 
Q 2894 3584 3203 3211 
Q 3513 2838 3513 2113 
z
" transform="scale(0.015625)"/>
       <path id="DejaVuSans-69" d="M 603 3500 
L 1178 3500 
L 1178 0 
L 603 0 
L 603 3500 
z
M 603 4863 
L 1178 4863 
L 1178 4134 
L 603 4134 
L 603 4863 
z
" transform="scale(0.015625)"/>
       <path id="DejaVuSans-6f" d="M 1959 3097 
Q 1497 3097 1228 2736 
Q 959 2375 959 1747 
Q 959 1119 1226 758 
Q 1494 397 1959 397 
Q 2419 397 2687 759 
Q 2956 1122 2956 1747 
Q 2956 2369 2687 2733 
Q 2419 3097 1959 3097 
z
M 1959 3584 
Q 2709 3584 3137 3096 
Q 3566 2609 3566 1747 
Q 3566 888 3137 398 
Q 2709 -91 1959 -91 
Q 1206 -91 779 398 
Q 353 888 353 1747 
Q 353 2609 779 3096 
Q 1206 3584 1959 3584 
z
" transform="scale(0.015625)"/>
       <path id="DejaVuSans-20" transform="scale(0.015625)"/>
       <path id="DejaVuSans-54" d="M -19 4666 
L 3928 4666 
L 3928 4134 
L 2272 4134 
L 2272 0 
L 1638 0 
L 1638 4134 
L -19 4134 
L -19 4666 
z
" transform="scale(0.015625)"/>
       <path id="DejaVuSans-6d" d="M 3328 2828 
Q 3544 3216 3844 3400 
Q 4144 3584 4550 3584 
Q 5097 3584 5394 3201 
Q 5691 2819 5691 2113 
L 5691 0 
L 5113 0 
L 5113 2094 
Q 5113 2597 4934 2840 
Q 4756 3084 4391 3084 
Q 3944 3084 3684 2787 
Q 3425 2491 3425 1978 
L 3425 0 
L 2847 0 
L 2847 2094 
Q 2847 2600 2669 2842 
Q 2491 3084 2119 3084 
Q 1678 3084 1418 2786 
Q 1159 2488 1159 1978 
L 1159 0 
L 581 0 
L 581 3500 
L 1159 3500 
L 1159 2956 
Q 1356 3278 1631 3431 
Q 1906 3584 2284 3584 
Q 2666 3584 2933 3390 
Q 3200 3197 3328 2828 
z
" transform="scale(0.015625)"/>
       <path id="DejaVuSans-28" d="M 1984 4856 
Q 1566 4138 1362 3434 
Q 1159 2731 1159 2009 
Q 1159 1288 1364 580 
Q 1569 -128 1984 -844 
L 1484 -844 
Q 1016 -109 783 600 
Q 550 1309 550 2009 
Q 550 2706 781 3412 
Q 1013 4119 1484 4856 
L 1984 4856 
z
" transform="scale(0.015625)"/>
       <path id="DejaVuSans-29" d="M 513 4856 
L 1013 4856 
Q 1481 4119 1714 3412 
Q 1947 2706 1947 2009 
Q 1947 1309 1714 600 
Q 1481 -109 1013 -844 
L 513 -844 
Q 928 -128 1133 580 
Q 1338 1288 1338 2009 
Q 1338 2731 1133 3434 
Q 928 4138 513 4856 
z
" transform="scale(0.015625)"/>
      </defs>
      <use xlink:href="#DejaVuSans-52"/>
      <use xlink:href="#DejaVuSans-65" transform="translate(64.982422 0)"/>
      <use xlink:href="#DejaVuSans-74" transform="translate(126.505859 0)"/>
      <use xlink:href="#DejaVuSans-65" transform="translate(165.714844 0)"/>
      <use xlink:href="#DejaVuSans-6e" transform="translate(227.238281 0)"/>
      <use xlink:href="#DejaVuSans-74" transform="translate(290.617188 0)"/>
      <use xlink:href="#DejaVuSans-69" transform="translate(329.826172 0)"/>
      <use xlink:href="#DejaVuSans-6f" transform="translate(357.609375 0)"/>
      <use xlink:href="#DejaVuSans-6e" transform="translate(418.791016 0)"/>
      <use xlink:href="#DejaVuSans-20" transform="translate(482.169922 0)"/>
      <use xlink:href="#DejaVuSans-54" transform="translate(513.957031 0)"/>
      <use xlink:href="#DejaVuSans-69" transform="translate(571.916016 0)"/>
      <use xlink:href="#DejaVuSans-6d" transform="translate(599.699219 0)"/>
      <use xlink:href="#DejaVuSans-65" transform="translate(697.111328 0)"/>
      <use xlink:href="#DejaVuSans-20" transform="translate(758.634766 0)"/>
      <use xlink:href="#DejaVuSans-28" transform="translate(790.421875 0)"/>
      <use xlink:href="#DejaVuSans-6d" transform="translate(829.435547 0)"/>
      <use xlink:href="#DejaVuSans-69" transform="translate(926.847656 0)"/>
      <use xlink:href="#DejaVuSans-6e" transform="translate(954.630859 0)"/>
      <use xlink:href="#DejaVuSans-29" transform="translate(1018.009766 0)"/>
     </g>
    </g>
   </g>
   <g id="matplotlib.axis_2">
    <g id="ytick_1">
     <g id="line2d_7">
      <defs>
       <path id="m830269a699" d="M 0 0 
L -3.5 0 
" style="stroke: #000000; stroke-width: 0.8"/>
      </defs>
      <g>
       <use xlink:href="#m830269a699" x="47.72" y="510.959185" style="stroke: #000000; stroke-width: 0.8"/>
      </g>
     </g>
     <g id="text_8">
      <!-- 0.0 -->
      <g style="fill: #0000ff" transform="translate(24.816875 514.758404) scale(0.1 -0.1)">
       <defs>
        <path id="DejaVuSans-2e" d="M 684 794 
L 1344 794 
L 1344 0 
L 684 0 
L 684 794 
z
" transform="scale(0.015625)"/>
       </defs>
       <use xlink:href="#DejaVuSans-30"/>
       <use xlink:href="#DejaVuSans-2e" transform="translate(63.623047 0)"/>
       <use xlink:href="#DejaVuSans-30" transform="translate(95.410156 0)"/>
      </g>
     </g>
    </g>
    <g id="ytick_2">
     <g id="line2d_8">
      <g>
       <use xlink:href="#m830269a699" x="47.72" y="418.753894" style="stroke: #000000; stroke-width: 0.8"/>
      </g>
     </g>
     <g id="text_9">
      <!-- 0.5 -->
      <g style="fill: #0000ff" transform="translate(24.816875 422.553112) scale(0.1 -0.1)">
       <use xlink:href="#DejaVuSans-30"/>
       <use xlink:href="#DejaVuSans-2e" transform="translate(63.623047 0)"/>
       <use xlink:href="#DejaVuSans-35" transform="translate(95.410156 0)"/>
      </g>
     </g>
    </g>
    <g id="ytick_3">
     <g id="line2d_9">
      <g>
       <use xlink:href="#m830269a699" x="47.72" y="326.548602" style="stroke: #000000; stroke-width: 0.8"/>
      </g>
     </g>
     <g id="text_10">
      <!-- 1.0 -->
      <g style="fill: #0000ff" transform="translate(24.816875 330.347821) scale(0.1 -0.1)">
       <use xlink:href="#DejaVuSans-31"/>
       <use xlink:href="#DejaVuSans-2e" transform="translate(63.623047 0)"/>
       <use xlink:href="#DejaVuSans-30" transform="translate(95.410156 0)"/>
      </g>
     </g>
    </g>
    <g id="ytick_4">
     <g id="line2d_10">
      <g>
       <use xlink:href="#m830269a699" x="47.72" y="234.34331" style="stroke: #000000; stroke-width: 0.8"/>
      </g>
     </g>
     <g id="text_11">
      <!-- 1.5 -->
      <g style="fill: #0000ff" transform="translate(24.816875 238.142529) scale(0.1 -0.1)">
       <use xlink:href="#DejaVuSans-31"/>
       <use xlink:href="#DejaVuSans-2e" transform="translate(63.623047 0)"/>
       <use xlink:href="#DejaVuSans-35" transform="translate(95.410156 0)"/>
      </g>
     </g>
    </g>
    <g id="ytick_5">
     <g id="line2d_11">
      <g>
       <use xlink:href="#m830269a699" x="47.72" y="142.138019" style="stroke: #000000; stroke-width: 0.8"/>
      </g>
     </g>
     <g id="text_12">
      <!-- 2.0 -->
      <g style="fill: #0000ff" transform="translate(24.816875 145.937238) scale(0.1 -0.1)">
       <use xlink:href="#DejaVuSans-32"/>
       <use xlink:href="#DejaVuSans-2e" transform="translate(63.623047 0)"/>
       <use xlink:href="#DejaVuSans-30" transform="translate(95.410156 0)"/>
      </g>
     </g>
    </g>
    <g id="ytick_6">
     <g id="line2d_12">
      <g>
       <use xlink:href="#m830269a699" x="47.72" y="49.932727" style="stroke: #000000; stroke-width: 0.8"/>
      </g>
     </g>
     <g id="text_13">
      <!-- 2.5 -->
      <g style="fill: #0000ff" transform="translate(24.816875 53.731946) scale(0.1 -0.1)">
       <use xlink:href="#DejaVuSans-32"/>
       <use xlink:href="#DejaVuSans-2e" transform="translate(63.623047 0)"/>
       <use xlink:href="#DejaVuSans-35" transform="translate(95.410156 0)"/>
      </g>
     </g>
    </g>
    <g id="text_14">
     <!-- Normalized Intensity -->
     <g style="fill: #0000ff" transform="translate(18.737187 332.167031) rotate(-90) scale(0.1 -0.1)">
      <defs>
       <path id="DejaVuSans-4e" d="M 628 4666 
L 1478 4666 
L 3547 763 
L 3547 4666 
L 4159 4666 
L 4159 0 
L 3309 0 
L 1241 3903 
L 1241 0 
L 628 0 
L 628 4666 
z
" transform="scale(0.015625)"/>
       <path id="DejaVuSans-72" d="M 2631 2963 
Q 2534 3019 2420 3045 
Q 2306 3072 2169 3072 
Q 1681 3072 1420 2755 
Q 1159 2438 1159 1844 
L 1159 0 
L 581 0 
L 581 3500 
L 1159 3500 
L 1159 2956 
Q 1341 3275 1631 3429 
Q 1922 3584 2338 3584 
Q 2397 3584 2469 3576 
Q 2541 3569 2628 3553 
L 2631 2963 
z
" transform="scale(0.015625)"/>
       <path id="DejaVuSans-61" d="M 2194 1759 
Q 1497 1759 1228 1600 
Q 959 1441 959 1056 
Q 959 750 1161 570 
Q 1363 391 1709 391 
Q 2188 391 2477 730 
Q 2766 1069 2766 1631 
L 2766 1759 
L 2194 1759 
z
M 3341 1997 
L 3341 0 
L 2766 0 
L 2766 531 
Q 2569 213 2275 61 
Q 1981 -91 1556 -91 
Q 1019 -91 701 211 
Q 384 513 384 1019 
Q 384 1609 779 1909 
Q 1175 2209 1959 2209 
L 2766 2209 
L 2766 2266 
Q 2766 2663 2505 2880 
Q 2244 3097 1772 3097 
Q 1472 3097 1187 3025 
Q 903 2953 641 2809 
L 641 3341 
Q 956 3463 1253 3523 
Q 1550 3584 1831 3584 
Q 2591 3584 2966 3190 
Q 3341 2797 3341 1997 
z
" transform="scale(0.015625)"/>
       <path id="DejaVuSans-6c" d="M 603 4863 
L 1178 4863 
L 1178 0 
L 603 0 
L 603 4863 
z
" transform="scale(0.015625)"/>
       <path id="DejaVuSans-7a" d="M 353 3500 
L 3084 3500 
L 3084 2975 
L 922 459 
L 3084 459 
L 3084 0 
L 275 0 
L 275 525 
L 2438 3041 
L 353 3041 
L 353 3500 
z
" transform="scale(0.015625)"/>
       <path id="DejaVuSans-64" d="M 2906 2969 
L 2906 4863 
L 3481 4863 
L 3481 0 
L 2906 0 
L 2906 525 
Q 2725 213 2448 61 
Q 2172 -91 1784 -91 
Q 1150 -91 751 415 
Q 353 922 353 1747 
Q 353 2572 751 3078 
Q 1150 3584 1784 3584 
Q 2172 3584 2448 3432 
Q 2725 3281 2906 2969 
z
M 947 1747 
Q 947 1113 1208 752 
Q 1469 391 1925 391 
Q 2381 391 2643 752 
Q 2906 1113 2906 1747 
Q 2906 2381 2643 2742 
Q 2381 3103 1925 3103 
Q 1469 3103 1208 2742 
Q 947 2381 947 1747 
z
" transform="scale(0.015625)"/>
       <path id="DejaVuSans-49" d="M 628 4666 
L 1259 4666 
L 1259 0 
L 628 0 
L 628 4666 
z
" transform="scale(0.015625)"/>
       <path id="DejaVuSans-73" d="M 2834 3397 
L 2834 2853 
Q 2591 2978 2328 3040 
Q 2066 3103 1784 3103 
Q 1356 3103 1142 2972 
Q 928 2841 928 2578 
Q 928 2378 1081 2264 
Q 1234 2150 1697 2047 
L 1894 2003 
Q 2506 1872 2764 1633 
Q 3022 1394 3022 966 
Q 3022 478 2636 193 
Q 2250 -91 1575 -91 
Q 1294 -91 989 -36 
Q 684 19 347 128 
L 347 722 
Q 666 556 975 473 
Q 1284 391 1588 391 
Q 1994 391 2212 530 
Q 2431 669 2431 922 
Q 2431 1156 2273 1281 
Q 2116 1406 1581 1522 
L 1381 1569 
Q 847 1681 609 1914 
Q 372 2147 372 2553 
Q 372 3047 722 3315 
Q 1072 3584 1716 3584 
Q 2034 3584 2315 3537 
Q 2597 3491 2834 3397 
z
" transform="scale(0.015625)"/>
       <path id="DejaVuSans-79" d="M 2059 -325 
Q 1816 -950 1584 -1140 
Q 1353 -1331 966 -1331 
L 506 -1331 
L 506 -850 
L 844 -850 
Q 1081 -850 1212 -737 
Q 1344 -625 1503 -206 
L 1606 56 
L 191 3500 
L 800 3500 
L 1894 763 
L 2988 3500 
L 3597 3500 
L 2059 -325 
z
" transform="scale(0.015625)"/>
      </defs>
      <use xlink:href="#DejaVuSans-4e"/>
      <use xlink:href="#DejaVuSans-6f" transform="translate(74.804688 0)"/>
      <use xlink:href="#DejaVuSans-72" transform="translate(135.986328 0)"/>
      <use xlink:href="#DejaVuSans-6d" transform="translate(175.349609 0)"/>
      <use xlink:href="#DejaVuSans-61" transform="translate(272.761719 0)"/>
      <use xlink:href="#DejaVuSans-6c" transform="translate(334.041016 0)"/>
      <use xlink:href="#DejaVuSans-69" transform="translate(361.824219 0)"/>
      <use xlink:href="#DejaVuSans-7a" transform="translate(389.607422 0)"/>
      <use xlink:href="#DejaVuSans-65" transform="translate(442.097656 0)"/>
      <use xlink:href="#DejaVuSans-64" transform="translate(503.621094 0)"/>
      <use xlink:href="#DejaVuSans-20" transform="translate(567.097656 0)"/>
      <use xlink:href="#DejaVuSans-49" transform="translate(598.884766 0)"/>
      <use xlink:href="#DejaVuSans-6e" transform="translate(628.376953 0)"/>
      <use xlink:href="#DejaVuSans-74" transform="translate(691.755859 0)"/>
      <use xlink:href="#DejaVuSans-65" transform="translate(730.964844 0)"/>
      <use xlink:href="#DejaVuSans-6e" transform="translate(792.488281 0)"/>
      <use xlink:href="#DejaVuSans-73" transform="translate(855.867188 0)"/>
      <use xlink:href="#DejaVuSans-69" transform="translate(907.966797 0)"/>
      <use xlink:href="#DejaVuSans-74" transform="translate(935.75 0)"/>
      <use xlink:href="#DejaVuSans-79" transform="translate(974.958984 0)"/>
     </g>
    </g>
   </g>
   <g id="line2d_13">
    <path d="M 84.332727 510.959185 
L 100.224729 510.850854 
L 117.339193 510.85975 
L 145.455811 510.861503 
L 163.792736 510.755469 
L 166.23766 510.518321 
L 169.905045 509.99067 
L 172.349968 509.860511 
L 176.017353 510.006314 
L 183.352123 510.636891 
L 188.24197 510.260294 
L 196.799202 510.564355 
L 206.578895 510.749811 
L 277.481672 510.774837 
L 311.710599 510.574317 
L 322.712755 510.594908 
L 328.825063 510.514717 
L 333.71491 510.420624 
L 342.272141 510.535152 
L 350.829373 510.386181 
L 359.386605 509.959113 
L 361.831528 510.075505 
L 363.05399 510.022311 
L 364.276452 509.727505 
L 367.943837 508.011739 
L 369.166298 507.951377 
L 370.38876 508.270749 
L 374.056145 509.740451 
L 375.278607 510.028036 
L 377.72353 510.274262 
L 382.613377 510.294435 
L 387.503224 510.127934 
L 391.170609 509.85788 
L 393.615532 509.386728 
L 396.060455 508.699954 
L 397.282917 508.51518 
L 398.505379 508.534089 
L 400.950302 509.0094 
L 403.395225 509.445164 
L 405.840149 509.445304 
L 408.285072 509.315925 
L 410.729995 509.408928 
L 414.39738 509.622547 
L 415.619842 509.454945 
L 416.842304 508.771603 
L 418.064766 506.789754 
L 419.287227 502.455595 
L 420.509689 495.486255 
L 421.732151 487.367462 
L 422.954612 480.847969 
L 424.177074 478.150687 
L 425.399536 479.600616 
L 426.621997 483.700242 
L 427.844459 488.300504 
L 429.066921 491.899205 
L 430.289382 494.201391 
L 433.956767 498.85025 
L 436.401691 502.495429 
L 437.624152 504.051258 
L 438.846614 505.240239 
L 440.069076 506.054865 
L 441.291537 506.567649 
L 443.736461 507.148803 
L 448.626307 508.207451 
L 449.848769 508.257346 
L 451.071231 508.058531 
L 453.516154 507.277027 
L 454.738616 507.103394 
L 455.961078 507.208706 
L 458.406001 507.91962 
L 460.850924 508.566587 
L 463.295848 508.836418 
L 474.298003 509.384852 
L 476.742926 508.926414 
L 479.187849 508.32386 
L 480.410311 508.144361 
L 481.632773 508.113467 
L 484.077696 508.473999 
L 486.52262 508.932865 
L 488.967543 509.084525 
L 493.85739 509.023364 
L 495.079851 508.886202 
L 498.747236 508.045585 
L 499.969698 508.00824 
L 501.19216 508.193215 
L 504.859545 509.12578 
L 507.304468 509.459913 
L 509.749391 509.512491 
L 510.971853 509.307269 
L 512.194315 508.782717 
L 513.416776 507.916397 
L 515.8617 505.968438 
L 517.084161 505.392439 
L 518.306623 505.25946 
L 519.529085 505.537615 
L 520.751547 506.035668 
L 521.974008 506.376759 
L 523.19647 506.147454 
L 524.418932 505.260543 
L 525.641393 504.113778 
L 526.863855 503.264775 
L 528.086317 503.026373 
L 529.308778 503.395222 
L 530.53124 504.186838 
L 532.976163 506.082998 
L 534.198625 506.84334 
L 535.421087 507.41079 
L 536.643548 507.809367 
L 537.86601 508.042385 
L 539.088472 507.883187 
L 540.310933 505.954339 
L 541.533395 498.154713 
L 542.755857 478.220222 
L 543.978318 442.893579 
L 546.423242 355.315421 
L 547.645703 329.504559 
L 548.868165 326.548602 
L 550.090627 343.931038 
L 553.758012 432.480355 
L 554.980474 453.10171 
L 556.202935 467.119632 
L 557.425397 476.230634 
L 558.647859 482.305789 
L 559.87032 486.806736 
L 561.092782 490.563268 
L 562.315244 493.786921 
L 563.537705 496.335367 
L 564.760167 498.105135 
L 565.982629 499.278159 
L 568.427552 501.267366 
L 572.094937 504.580124 
L 574.53986 506.21157 
L 576.984784 507.355268 
L 579.429707 508.04903 
L 581.87463 508.35342 
L 583.097092 508.282704 
L 584.319554 507.989675 
L 586.764477 507.07156 
L 587.986939 506.826431 
L 589.209401 506.91111 
L 590.431862 507.301849 
L 594.099247 508.910965 
L 595.321709 509.250108 
L 597.766632 509.618134 
L 601.434017 509.865541 
L 611.213711 510.108736 
L 618.548481 510.175589 
L 623.438328 510.166132 
L 631.995559 510.405489 
L 649.110023 510.496303 
L 665.002025 510.611803 
L 683.33895 510.687483 
L 704.120798 510.782332 
L 816.587273 510.987273 
L 816.587273 510.987273 
" clip-path="url(#pabcebecdd7)" style="fill: none; stroke: #0000ff; stroke-width: 1.5; stroke-linecap: square"/>
   </g>
   <g id="line2d_14">
    <path d="M 91.363838 234.339561 
L 158.445445 234.339173 
L 364.681575 234.297722 
L 364.681575 234.294097 
L 364.681575 234.286806 
L 366.3962 234.219518 
L 366.3962 234.174502 
L 366.738 234.212335 
L 366.738 234.130756 
L 367.420868 234.047167 
L 367.420868 233.873717 
L 367.762912 233.936758 
L 367.762912 233.739529 
L 368.106669 233.829223 
L 368.106669 233.62519 
L 368.444557 233.765446 
L 368.444557 233.52923 
L 368.780978 233.709442 
L 368.780978 233.446032 
L 369.116666 233.651864 
L 369.116666 233.393313 
L 369.450398 233.625552 
L 369.450398 233.318198 
L 369.783642 233.5784 
L 369.783642 233.326642 
L 370.116396 233.591914 
L 370.116396 233.260023 
L 370.449394 233.545339 
L 370.449394 233.28479 
L 370.781904 233.524607 
L 370.781904 233.279479 
L 371.113924 233.604809 
L 371.113924 233.328048 
L 371.452057 233.605461 
L 371.452057 233.318867 
L 371.785545 233.573706 
L 371.785545 233.243611 
L 372.118543 233.559486 
L 372.118543 233.359243 
L 372.453009 233.621858 
L 372.453009 233.386218 
L 372.786985 233.728818 
L 372.786985 233.480753 
L 373.121206 233.679788 
L 373.121206 233.527344 
L 373.456161 233.763799 
L 373.456161 233.553442 
L 376.161958 233.849586 
L 376.161958 233.656688 
L 376.51256 233.819386 
L 376.51256 233.67532 
L 376.851915 233.865005 
L 376.851915 233.711718 
L 377.193226 233.90571 
L 377.193226 233.762556 
L 377.534782 233.912355 
L 377.534782 233.790215 
L 377.877316 233.964241 
L 377.877316 233.84456 
L 378.221072 233.982074 
L 378.221072 233.832499 
L 378.560183 233.959709 
L 378.560183 233.811515 
L 379.242806 233.959952 
L 379.242806 233.847082 
L 379.585095 233.997622 
L 379.585095 233.855714 
L 379.927384 233.972799 
L 379.927384 233.852665 
L 380.269673 233.964991 
L 380.269673 233.844043 
L 380.608295 234.005894 
L 380.608295 233.894213 
L 381.290673 234.044787 
L 381.290673 233.952292 
L 382.319008 233.944995 
L 382.319008 233.957731 
L 383.000408 234.086956 
L 383.000408 233.997016 
L 383.683031 234.087912 
L 383.683031 233.995166 
L 384.366387 234.02854 
L 385.050476 233.955443 
L 387.792702 233.988367 
L 389.843015 233.972623 
L 391.209727 234.170649 
L 391.209727 234.122013 
L 392.238551 234.196856 
L 392.238551 234.137799 
L 394.631153 234.064056 
L 408.296319 234.153477 
L 430.816997 234.194559 
L 430.816997 234.064963 
L 431.144861 233.938205 
L 431.47517 233.933971 
L 431.47517 233.803811 
L 431.803279 233.72716 
L 432.465853 233.460633 
L 432.79494 233.619582 
L 432.79494 233.334027 
L 433.123537 233.464667 
L 433.123537 233.595289 
L 433.780733 233.532575 
L 433.780733 233.664531 
L 434.442329 233.840456 
L 434.442329 233.653885 
L 434.771171 233.838222 
L 434.771171 233.710486 
L 435.758431 233.671988 
L 436.088007 233.644294 
L 436.417583 233.831054 
L 436.417583 233.709791 
L 437.411933 234.073485 
L 437.411933 233.922355 
L 437.742242 234.03286 
L 437.742242 233.94708 
L 439.395988 234.035313 
L 439.395988 233.967931 
L 439.727275 234.088781 
L 439.727275 233.978484 
L 440.722359 233.874226 
L 441.386645 234.033712 
L 441.386645 233.987041 
L 443.060195 233.953825 
L 443.728637 234.084817 
L 443.728637 234.005529 
L 444.396101 234.130059 
L 444.396101 234.060114 
L 445.066499 234.131037 
L 445.066499 234.02552 
L 445.734941 234.070184 
L 445.734941 233.983715 
L 446.40485 234.098055 
L 446.40485 234.042362 
L 447.752003 234.061885 
L 450.115755 234.061173 
L 450.115755 234.094296 
L 451.131865 234.17731 
L 451.131865 234.139929 
L 452.150909 234.195163 
L 452.150909 234.135512 
L 452.83891 234.125343 
L 453.860888 234.051492 
L 453.860888 234.056912 
L 454.201222 233.962907 
L 455.217087 234.071061 
L 455.886507 234.026868 
L 456.887459 234.039695 
L 457.220213 234.069716 
L 457.563725 233.981957 
L 457.899413 234.063879 
L 457.899413 233.986561 
L 462.312255 234.237005 
L 462.312255 234.194505 
L 463.681168 234.246742 
L 463.681168 234.239793 
L 465.045679 234.137964 
L 477.3478 234.230814 
L 481.446714 234.23273 
L 481.446714 234.243692 
L 486.855374 234.232924 
L 503.810428 234.187714 
L 505.151469 234.166045 
L 505.151469 234.212331 
L 508.55309 234.155876 
L 508.55309 234.187596 
L 510.259158 234.207695 
L 515.727229 234.156395 
L 515.727229 234.137761 
L 516.743095 234.085296 
L 516.743095 234.007932 
L 517.411781 234.088343 
L 517.411781 234.0158 
L 518.40931 234.066774 
L 518.40931 234.104754 
L 519.414907 234.18774 
L 520.405834 234.257401 
L 520.405834 234.247088 
L 523.709415 234.254905 
L 523.709415 234.237864 
L 527.344038 234.279795 
L 528.989227 234.216271 
L 529.644955 234.216556 
L 529.644955 234.215401 
L 531.944161 234.054364 
L 531.944161 234.060436 
L 532.601112 234.109187 
L 535.898091 234.022417 
L 535.898091 233.941357 
L 536.556754 233.836795 
L 536.556754 233.590295 
L 536.886574 233.692818 
L 536.886574 233.452377 
L 537.216394 233.603165 
L 537.216394 233.281671 
L 537.546703 233.472398 
L 537.546703 233.14096 
L 537.877012 233.353147 
L 537.877012 232.982202 
L 538.207566 233.278839 
L 538.207566 232.948457 
L 538.543743 233.252229 
L 538.543743 232.923377 
L 538.874541 233.292253 
L 538.874541 232.967861 
L 539.204361 233.314541 
L 539.204361 232.934363 
L 539.540538 233.286253 
L 539.540538 232.950542 
L 539.871825 233.293895 
L 539.871825 232.975268 
L 540.202379 233.3818 
L 540.202379 233.111973 
L 540.53391 233.436531 
L 540.53391 233.180037 
L 540.865442 233.503797 
L 540.865442 233.279123 
L 541.199174 233.567963 
L 541.199174 233.354978 
L 541.530461 233.635911 
L 541.530461 233.44683 
L 541.862971 233.699264 
L 541.862971 233.513803 
L 542.196947 233.738669 
L 542.196947 233.544555 
L 542.529457 233.761302 
L 542.529457 233.594537 
L 542.862211 233.791404 
L 542.862211 233.659145 
L 543.194231 233.84064 
L 543.194231 233.711905 
L 543.53212 233.859688 
L 543.53212 233.705964 
L 543.86414 233.820174 
L 543.86414 233.450389 
L 544.195672 233.436466 
L 544.195672 232.410438 
L 544.525981 232.220753 
L 544.525981 229.829883 
L 544.854823 229.503437 
L 544.854823 225.350561 
L 545.183177 225.194966 
L 545.183177 216.217727 
L 545.511774 216.694707 
L 545.511774 203.883471 
L 545.838905 205.141565 
L 545.838905 188.722009 
L 546.166036 194.054125 
L 546.166036 170.755924 
L 546.492678 179.772806 
L 546.492678 154.060081 
L 546.819319 165.12823 
L 546.819319 134.406124 
L 547.145717 151.693167 
L 547.145717 118.720227 
L 547.472114 139.679999 
L 547.472114 106.25249 
L 547.798756 134.947412 
L 547.798756 94.79375 
L 548.127598 125.922781 
L 548.127598 84.498368 
L 548.460596 117.374688 
L 548.460596 78.152275 
L 548.786994 117.438248 
L 548.786994 76.357028 
L 549.113146 119.677342 
L 549.113146 74.647304 
L 549.439544 112.893438 
L 549.439544 73.333672 
L 549.765696 112.01525 
L 549.765696 66.298966 
L 550.092094 110.784855 
L 550.092094 62.672955 
L 550.418247 102.658007 
L 550.418247 62.26282 
L 550.744644 103.744789 
L 550.744644 59.713969 
L 551.070797 106.292777 
L 551.070797 59.830101 
L 551.397194 49.932727 
L 551.723347 53.539827 
L 551.723347 59.399685 
L 552.049744 61.697762 
L 552.049744 72.764508 
L 552.375897 125.300513 
L 552.375897 80.500843 
L 552.702049 119.923277 
L 552.702049 77.635638 
L 553.028447 115.363143 
L 553.028447 77.983749 
L 553.359978 123.099519 
L 553.359978 85.857937 
L 553.686131 128.229172 
L 553.686131 90.775598 
L 554.012528 128.54854 
L 554.012528 93.99965 
L 554.338926 132.273641 
L 554.338926 97.982166 
L 554.665323 135.52857 
L 554.665323 104.192704 
L 554.99172 139.29857 
L 554.99172 107.288033 
L 555.317873 142.370099 
L 555.317873 111.573178 
L 555.64427 143.031626 
L 555.64427 113.306276 
L 555.970667 145.29052 
L 555.970667 113.838983 
L 556.297065 145.740759 
L 556.297065 117.458198 
L 556.623707 147.618619 
L 556.623707 118.069306 
L 556.950104 149.849462 
L 556.950104 122.455407 
L 557.276501 119.742334 
L 557.604365 121.008162 
L 557.604365 129.950982 
L 557.931007 130.667326 
L 557.931007 132.896516 
L 558.263028 165.714211 
L 558.263028 141.357376 
L 558.592359 163.534771 
L 558.592359 141.575348 
L 558.918756 167.276862 
L 558.918756 144.902732 
L 559.245398 170.344701 
L 559.245398 147.671007 
L 559.571795 170.364163 
L 559.571795 151.002831 
L 559.898437 174.078019 
L 559.898437 154.062022 
L 560.224834 177.039654 
L 560.224834 156.426758 
L 560.568346 177.613322 
L 560.568346 157.009816 
L 560.894988 176.978947 
L 560.894988 156.764424 
L 561.221629 177.4891 
L 561.221629 157.973798 
L 561.548271 179.280815 
L 561.548271 160.352813 
L 561.874913 181.270133 
L 561.874913 164.24474 
L 562.201555 183.716977 
L 562.201555 166.708235 
L 562.528196 185.74659 
L 562.528196 168.145053 
L 562.854838 186.343097 
L 562.854838 170.041976 
L 563.186859 187.52727 
L 563.186859 171.755647 
L 563.513501 189.773993 
L 563.513501 175.365712 
L 563.840142 191.638821 
L 563.840142 175.871573 
L 564.166784 192.012453 
L 564.166784 178.278218 
L 564.49367 192.897339 
L 564.49367 180.437612 
L 564.820557 196.287578 
L 564.820557 183.812384 
L 565.147198 197.209209 
L 565.147198 185.154064 
L 565.474574 198.284297 
L 565.474574 187.168951 
L 565.801704 200.478808 
L 565.801704 190.739126 
L 566.128835 203.118499 
L 566.128835 192.239168 
L 566.455966 192.748784 
L 566.783341 192.199413 
L 566.783341 194.028811 
L 567.110472 194.30405 
L 567.110472 196.502187 
L 567.437603 208.066409 
L 567.437603 200.801668 
L 567.764733 210.077053 
L 567.764733 202.359827 
L 568.099199 211.603625 
L 568.099199 203.194821 
L 568.426574 211.121243 
L 568.426574 205.022939 
L 568.757617 213.095296 
L 568.757617 205.692798 
L 569.085236 214.243375 
L 569.085236 206.208611 
L 569.412612 212.598078 
L 569.412612 206.170982 
L 569.740231 213.941098 
L 569.740231 207.653859 
L 570.067851 216.054643 
L 570.067851 210.273534 
L 570.395715 216.932805 
L 570.395715 210.377793 
L 570.723335 216.815041 
L 570.723335 210.822575 
L 571.052422 216.809001 
L 571.052422 211.506481 
L 571.38053 218.313065 
L 571.38053 213.368372 
L 571.708884 219.835447 
L 571.708884 214.452042 
L 572.036503 219.81215 
L 572.036503 214.352686 
L 572.364612 219.439824 
L 572.364612 213.66188 
L 572.692721 219.043402 
L 572.692721 214.076833 
L 573.026208 219.509893 
L 573.026208 214.971217 
L 573.354317 220.561745 
L 573.354317 215.855478 
L 573.682181 220.876556 
L 573.682181 216.07375 
L 574.01249 220.805066 
L 574.01249 216.3381 
L 574.341088 221.200953 
L 574.341088 216.584383 
L 574.66993 221.368683 
L 574.66993 217.121281 
L 574.998039 221.682538 
L 574.998039 216.837783 
L 575.326148 216.651135 
L 575.65499 212.399403 
L 575.983832 216.584278 
L 575.983832 213.252497 
L 576.641272 224.052745 
L 576.641272 220.517256 
L 576.971826 224.130896 
L 576.971826 220.547984 
L 577.301157 224.28899 
L 577.301157 220.621177 
L 577.630243 224.289118 
L 577.630243 221.051604 
L 577.964954 224.652769 
L 577.964954 221.406525 
L 578.297708 221.071962 
L 578.627039 220.872038 
L 578.957592 220.900534 
L 578.957592 221.199835 
L 579.287413 225.138336 
L 579.287413 222.349115 
L 579.616744 225.622515 
L 579.616744 222.424404 
L 579.947053 225.679359 
L 579.947053 222.537816 
L 580.277118 225.724153 
L 580.277118 222.816388 
L 580.606938 226.030497 
L 580.606938 222.908345 
L 580.936758 226.159125 
L 580.936758 223.467853 
L 581.596398 223.480948 
L 581.596398 224.048217 
L 581.926218 224.093035 
L 582.256283 227.016107 
L 582.256283 224.627327 
L 582.587326 227.059725 
L 582.587326 224.999017 
L 582.923747 227.70738 
L 582.923747 225.149129 
L 583.253812 227.626183 
L 583.253812 225.428436 
L 583.584365 227.445774 
L 583.584365 224.855754 
L 583.914919 227.47798 
L 583.914919 225.140131 
L 584.245228 227.487248 
L 584.245228 225.311656 
L 584.576026 227.752099 
L 584.576026 225.381088 
L 584.90658 227.662853 
L 584.90658 225.42944 
L 585.2386 227.744901 
L 585.2386 225.576345 
L 585.569888 228.010302 
L 585.569888 225.857391 
L 585.901664 228.118961 
L 585.901664 226.026118 
L 586.233195 228.311554 
L 586.233195 226.245932 
L 586.564971 228.461034 
L 586.564971 226.426132 
L 586.896503 228.530317 
L 586.896503 226.664737 
L 587.228524 228.877007 
L 587.228524 226.815692 
L 587.563478 228.796111 
L 587.563478 226.759329 
L 587.899655 228.609227 
L 587.899655 226.397633 
L 588.230942 228.456166 
L 588.230942 226.682809 
L 588.561985 228.810941 
L 588.561985 226.661765 
L 588.893027 228.830704 
L 588.893027 227.05769 
L 589.225293 228.883992 
L 589.225293 226.996269 
L 589.557313 229.286074 
L 589.557313 227.236164 
L 589.889089 229.079182 
L 589.889089 227.184733 
L 590.220621 228.951412 
L 590.220621 227.18339 
L 590.552886 229.233406 
L 590.552886 227.569224 
L 590.884906 229.552731 
L 590.884906 228.029988 
L 591.216194 229.728006 
L 591.216194 228.151629 
L 591.547236 229.77826 
L 591.547236 228.268649 
L 591.879257 229.820337 
L 591.879257 228.417454 
L 592.210788 230.040496 
L 592.210788 228.629916 
L 592.544031 230.19405 
L 592.544031 228.667762 
L 592.883142 230.061907 
L 592.883142 228.568022 
L 593.215407 230.093389 
L 593.215407 228.695272 
L 593.548895 230.303772 
L 593.548895 229.036318 
L 593.883116 230.563434 
L 593.883116 229.006689 
L 594.216359 230.416566 
L 594.216359 229.044332 
L 594.55058 230.35029 
L 594.55058 228.985386 
L 594.884557 230.517501 
L 594.884557 229.196508 
L 595.217555 230.65292 
L 595.217555 229.24724 
L 595.550554 230.566052 
L 595.550554 229.186329 
L 595.88453 230.489124 
L 595.88453 228.950939 
L 596.21924 230.384186 
L 596.21924 229.052014 
L 596.552239 230.44499 
L 596.552239 229.167891 
L 596.885971 230.62328 
L 596.885971 229.34871 
L 597.225082 230.697151 
L 597.225082 229.451768 
L 597.558325 230.683424 
L 597.558325 229.493991 
L 597.897436 230.775176 
L 597.897436 229.540181 
L 598.233368 230.814513 
L 598.233368 229.618139 
L 598.569545 230.841339 
L 598.569545 229.739819 
L 598.903522 231.021597 
L 598.903522 229.8468 
L 599.236765 231.089298 
L 599.236765 229.986573 
L 599.571964 231.129338 
L 599.571964 229.968683 
L 599.907163 231.131329 
L 599.907163 230.071021 
L 600.242362 231.174995 
L 600.242362 230.103571 
L 600.577316 231.258402 
L 600.577316 230.143613 
L 600.91276 231.200227 
L 600.91276 230.184623 
L 601.249181 231.246466 
L 601.249181 230.162454 
L 601.583891 231.285043 
L 601.583891 230.136126 
L 601.919824 231.181313 
L 601.919824 230.084829 
L 602.255756 231.177594 
L 602.255756 230.094317 
L 602.590955 231.298979 
L 602.590955 230.152514 
L 602.931044 231.255149 
L 602.931044 230.217763 
L 603.265509 231.310367 
L 603.265509 230.292088 
L 603.601197 231.426837 
L 603.601197 230.407936 
L 603.937619 231.434002 
L 603.937619 230.402254 
L 604.273551 231.431581 
L 604.273551 230.556358 
L 604.60875 231.568392 
L 604.60875 230.627066 
L 604.945416 231.668147 
L 604.945416 230.717902 
L 605.282571 231.631936 
L 605.282571 230.626185 
L 605.623393 231.612999 
L 605.623393 230.708685 
L 605.960304 231.605114 
L 605.960304 230.700699 
L 606.298681 231.730403 
L 606.298681 230.837618 
L 606.634369 231.744398 
L 606.634369 230.937592 
L 606.973236 231.846931 
L 606.973236 230.985944 
L 607.311124 231.849709 
L 607.311124 231.021538 
L 607.64999 231.880657 
L 607.64999 231.030314 
L 607.992769 231.881477 
L 607.992769 231.067862 
L 608.331635 231.895634 
L 608.331635 230.994449 
L 608.670257 231.855705 
L 608.670257 231.022069 
L 609.009857 231.856282 
L 609.009857 231.044821 
L 609.347256 231.96487 
L 609.347256 231.145441 
L 609.686367 231.971449 
L 609.686367 231.228404 
L 610.023033 232.047909 
L 610.023033 231.309581 
L 610.362144 232.13943 
L 610.362144 231.343929 
L 610.697832 232.055738 
L 610.697832 231.378157 
L 611.037187 231.099408 
L 611.375565 231.091303 
L 611.375565 231.196392 
L 611.715409 231.290255 
L 612.052564 232.29454 
L 612.052564 231.587384 
L 612.393875 232.30631 
L 612.393875 231.580463 
L 612.73103 232.21946 
L 612.73103 231.483437 
L 613.073808 232.196134 
L 613.073808 231.517429 
L 613.410719 232.256269 
L 613.410719 231.494635 
L 613.74983 232.206333 
L 613.74983 231.464197 
L 614.087474 232.153926 
L 614.087474 231.465872 
L 614.424873 232.261253 
L 614.424873 231.602863 
L 614.769363 232.316243 
L 614.769363 231.634776 
L 615.111408 232.353047 
L 615.111408 231.590929 
L 615.452474 231.451037 
L 615.791096 231.523082 
L 615.791096 231.456118 
L 616.132408 231.423745 
L 616.132408 231.491722 
L 616.472007 232.304701 
L 616.472007 231.595675 
L 616.811118 232.348058 
L 616.811118 231.748447 
L 617.493007 231.734068 
L 617.493007 231.820908 
L 617.834808 231.829051 
L 617.834808 231.759733 
L 618.182231 232.438693 
L 618.182231 231.802501 
L 618.52232 232.408467 
L 618.52232 231.802853 
L 618.86412 232.531281 
L 618.86412 231.872752 
L 619.206165 232.542719 
L 619.206165 231.91083 
L 619.547232 232.506217 
L 619.547232 231.930047 
L 619.888788 232.613943 
L 619.888788 232.002911 
L 620.227654 232.661418 
L 620.227654 232.019859 
L 620.569454 232.578111 
L 620.569454 232.033485 
L 620.911499 232.627797 
L 620.911499 231.995474 
L 621.252566 232.650529 
L 621.252566 231.99031 
L 621.594611 232.536804 
L 621.594611 231.91079 
L 621.934944 232.526552 
L 621.934944 231.943423 
L 622.276989 232.599498 
L 622.276989 232.009114 
L 622.619034 232.680561 
L 622.619034 232.10279 
L 622.959612 232.70129 
L 622.959612 232.191807 
L 623.303612 232.811861 
L 623.303612 232.269401 
L 623.649569 232.851199 
L 623.649569 232.34628 
L 623.991125 232.881079 
L 623.991125 232.29341 
L 624.332925 232.82078 
L 624.332925 232.249994 
L 624.674481 232.786392 
L 624.674481 232.228408 
L 625.016526 232.772631 
L 625.016526 232.220964 
L 625.358081 232.7859 
L 625.358081 232.223726 
L 625.699637 232.776253 
L 625.699637 232.345571 
L 626.041437 232.901654 
L 626.041437 232.375885 
L 626.383482 232.922051 
L 626.383482 232.378918 
L 626.726505 232.835872 
L 626.726505 232.27095 
L 627.068061 232.822607 
L 627.068061 232.33623 
L 627.409861 232.855415 
L 627.409861 232.377122 
L 628.441619 232.405947 
L 628.788553 232.969785 
L 628.788553 232.467659 
L 629.130843 232.926811 
L 629.130843 232.44251 
L 629.472643 232.956777 
L 629.472643 232.437188 
L 629.814688 232.926363 
L 629.814688 232.507793 
L 630.499022 232.415784 
L 630.499022 232.522384 
L 630.841066 232.523603 
L 630.841066 232.509965 
L 631.183356 233.07315 
L 631.183356 232.644913 
L 631.525645 233.06173 
L 631.525645 232.619112 
L 631.86769 233.060699 
L 631.86769 232.5881 
L 632.209979 233.002389 
L 632.209979 232.60119 
L 632.894558 232.518334 
L 633.237091 232.524586 
L 633.237091 232.49304 
L 633.584515 232.99862 
L 633.584515 232.578179 
L 633.926804 233.064009 
L 633.926804 232.640318 
L 634.269093 233.071368 
L 634.269093 232.672403 
L 634.611383 233.073039 
L 634.611383 232.625773 
L 634.953672 233.065558 
L 634.953672 232.657275 
L 635.296206 233.057997 
L 635.296206 232.640329 
L 635.638495 233.123686 
L 635.638495 232.726168 
L 635.981029 233.1536 
L 635.981029 232.807833 
L 636.323563 233.268465 
L 636.323563 232.793942 
L 636.665852 233.185729 
L 636.665852 232.773177 
L 637.008141 233.121597 
L 637.008141 232.724289 
L 637.350675 233.161736 
L 637.350675 232.80311 
L 637.692964 233.204032 
L 637.692964 232.805089 
L 638.035253 233.171055 
L 638.035253 232.766113 
L 638.377787 233.142041 
L 638.377787 232.752669 
L 638.7257 233.168452 
L 638.7257 232.803886 
L 639.067989 233.221801 
L 639.067989 232.788477 
L 639.410523 233.18607 
L 639.410523 232.814708 
L 639.752812 233.200629 
L 639.752812 232.843158 
L 640.095346 233.262793 
L 640.095346 232.873676 
L 640.438613 233.252584 
L 640.438613 232.880318 
L 640.780902 233.237508 
L 640.780902 232.862938 
L 641.122947 233.265746 
L 641.122947 232.799721 
L 641.465236 233.159328 
L 641.465236 232.794313 
L 641.807526 233.149537 
L 641.807526 232.801176 
L 642.149815 233.280262 
L 642.149815 232.872191 
L 642.492104 233.256717 
L 642.492104 232.895934 
L 642.834638 233.227358 
L 642.834638 232.831335 
L 643.177172 232.820154 
L 643.524595 232.345491 
L 643.872019 232.733069 
L 643.872019 232.438848 
L 644.214308 232.915547 
L 644.556842 233.371307 
L 644.556842 232.971282 
L 644.898887 233.276653 
L 644.898887 232.912861 
L 645.241176 233.212689 
L 645.241176 232.868406 
L 645.583221 233.294511 
L 645.583221 232.956922 
L 645.92551 233.321105 
L 645.92551 232.978585 
L 646.267799 233.323958 
L 646.267799 232.976147 
L 646.609844 233.308652 
L 646.609844 232.974002 
L 646.952133 233.333658 
L 646.952133 233.007836 
L 647.294667 233.351601 
L 647.294667 233.005118 
L 647.636956 233.356709 
L 647.636956 233.04454 
L 647.97949 233.398567 
L 647.97949 233.016915 
L 648.322024 233.354722 
L 648.322024 233.017105 
L 648.664313 233.332087 
L 648.664313 233.024948 
L 649.012226 233.394684 
L 649.012226 233.108579 
L 649.35476 233.467467 
L 649.35476 233.191017 
L 649.697293 233.493079 
L 649.697293 233.18286 
L 650.039827 233.484188 
L 650.039827 233.16258 
L 650.382361 233.431901 
L 650.382361 233.076028 
L 650.725139 233.382811 
L 650.725139 233.103381 
L 651.067428 233.424998 
L 651.067428 233.102118 
L 651.410207 233.467901 
L 651.410207 233.142851 
L 651.752496 233.442905 
L 651.752496 233.097747 
L 652.780342 233.066761 
L 653.122875 233.424262 
L 653.122875 233.111199 
L 653.465409 233.383835 
L 653.465409 233.066951 
L 653.807943 233.429804 
L 653.807943 233.12443 
L 654.157078 233.446261 
L 654.157078 233.147277 
L 654.499612 233.475955 
L 654.499612 233.151647 
L 654.84239 233.456898 
L 654.84239 233.162779 
L 655.184924 233.450059 
L 655.184924 233.104557 
L 655.527458 233.405184 
L 655.527458 233.138776 
L 655.869747 233.422387 
L 655.869747 233.169955 
L 656.212281 233.495518 
L 656.212281 233.176766 
L 656.554814 233.447682 
L 656.554814 233.186911 
L 656.897348 233.464607 
L 656.897348 233.172316 
L 657.239882 233.510849 
L 657.239882 233.231 
L 657.58266 233.501867 
L 657.58266 233.195206 
L 657.925194 233.498091 
L 657.925194 233.225032 
L 658.267483 233.515323 
L 658.267483 233.217378 
L 658.615151 233.540972 
L 658.615151 233.233803 
L 658.95793 233.492896 
L 658.95793 233.17547 
L 659.305842 233.463988 
L 659.305842 233.195425 
L 659.648376 233.49643 
L 659.648376 233.199494 
L 659.991399 233.514467 
L 659.991399 233.186228 
L 660.333932 233.453618 
L 660.333932 233.144822 
L 660.676711 233.468078 
L 660.676711 233.199051 
L 661.019244 233.53367 
L 661.019244 233.246299 
L 661.362023 233.567922 
L 661.362023 233.285088 
L 661.70529 233.558953 
L 661.70529 233.28821 
L 662.048068 233.562361 
L 662.048068 233.283227 
L 662.391091 233.552501 
L 662.391091 233.249637 
L 662.733869 233.522499 
L 662.733869 233.251688 
L 663.076892 233.541251 
L 663.076892 233.232688 
L 663.41967 233.504266 
L 663.41967 233.235587 
L 663.762448 233.50481 
L 663.762448 233.199852 
L 664.107183 233.506014 
L 664.107183 233.245177 
L 664.455584 233.517384 
L 664.455584 233.210841 
L 664.798362 233.503173 
L 664.798362 233.209448 
L 665.141141 233.467553 
L 665.141141 233.17521 
L 665.483919 233.49192 
L 665.483919 233.22061 
L 665.826942 233.519029 
L 665.826942 233.274967 
L 666.169964 233.548895 
L 666.169964 233.277725 
L 666.512987 233.540278 
L 666.512987 233.266625 
L 666.85601 233.542716 
L 666.85601 233.290688 
L 667.198788 233.558415 
L 667.198788 233.261496 
L 667.541566 233.531015 
L 667.541566 233.24514 
L 667.884345 233.522646 
L 667.884345 233.22795 
L 668.227367 233.532492 
L 668.227367 233.296401 
L 668.913168 233.216023 
L 668.913168 233.269909 
L 669.256191 233.223018 
L 669.604837 233.584081 
L 669.604837 233.352158 
L 669.94786 233.592129 
L 669.94786 233.344605 
L 670.29235 233.649418 
L 670.29235 233.336728 
L 670.635861 233.547896 
L 670.635861 233.29302 
L 671.327041 233.210193 
L 671.327041 233.256542 
L 671.669575 233.27724 
L 671.669575 233.274316 
L 672.012598 233.585522 
L 672.012598 233.338258 
L 672.355621 233.601397 
L 672.355621 233.337525 
L 672.698643 233.599964 
L 672.698643 233.331153 
L 673.041666 233.586335 
L 673.041666 233.307214 
L 673.384444 233.567375 
L 673.384444 233.30291 
L 673.727223 233.571439 
L 673.727223 233.331749 
L 674.070001 233.599805 
L 674.070001 233.318348 
L 674.412535 233.576932 
L 674.412535 233.353301 
L 674.760936 233.596984 
L 674.760936 233.367195 
L 675.103714 233.648999 
L 675.103714 233.401038 
L 675.446737 233.640288 
L 675.446737 233.331196 
L 675.789515 233.580724 
L 675.789515 233.331962 
L 676.132538 233.606134 
L 676.132538 233.348541 
L 676.476783 233.658628 
L 676.476783 233.429876 
L 676.819806 233.669525 
L 676.819806 233.373174 
L 677.162584 233.625003 
L 677.162584 233.343767 
L 677.505363 233.565586 
L 677.505363 233.311028 
L 677.848385 233.586976 
L 677.848385 233.30248 
L 678.191164 233.585339 
L 678.191164 233.342414 
L 678.534186 233.614876 
L 678.534186 233.379835 
L 678.87672 233.651872 
L 678.87672 233.399478 
L 679.219498 233.643997 
L 679.219498 233.371384 
L 679.915324 233.2928 
L 680.258102 233.325473 
L 680.60088 233.646413 
L 680.60088 233.404662 
L 680.943903 233.656841 
L 680.943903 233.408121 
L 681.286681 233.631748 
L 681.286681 233.393199 
L 681.629704 233.630074 
L 681.629704 233.405621 
L 681.972727 233.644617 
L 681.972727 233.422817 
L 682.315994 233.677586 
L 682.315994 233.472477 
L 682.667574 233.708368 
L 682.667574 233.449793 
L 683.010841 233.663539 
L 683.010841 233.422209 
L 683.353864 233.633088 
L 683.353864 233.3917 
L 683.697131 233.651643 
L 683.697131 233.440443 
L 684.040154 233.649854 
L 684.040154 233.394609 
L 684.383421 233.635828 
L 684.383421 233.385671 
L 684.726688 233.614269 
L 684.726688 233.373487 
L 685.075334 233.625464 
L 685.075334 233.419987 
L 685.418846 233.671951 
L 685.418846 233.418791 
L 685.761869 233.684949 
L 685.761869 233.424708 
L 686.105136 233.62491 
L 686.105136 233.390403 
L 686.448648 233.643065 
L 686.448648 233.36941 
L 686.79216 233.614586 
L 686.79216 233.374818 
L 687.135671 233.626782 
L 687.135671 233.380686 
L 687.479183 233.645145 
L 687.479183 233.398321 
L 687.822695 233.652905 
L 687.822695 233.372788 
L 688.166206 233.612333 
L 688.166206 233.379805 
L 688.509718 233.623278 
L 688.509718 233.346161 
L 688.85323 233.616112 
L 688.85323 233.402986 
L 689.196497 233.650678 
L 689.196497 233.429375 
L 689.544899 233.695749 
L 689.544899 233.457684 
L 689.888166 233.67505 
L 689.888166 233.415477 
L 690.237057 233.636096 
L 690.237057 233.395832 
L 690.580324 233.640571 
L 690.580324 233.418376 
L 690.923835 233.678951 
L 690.923835 233.460082 
L 691.26857 233.708126 
L 691.26857 233.491491 
L 691.612081 233.722279 
L 691.612081 233.45659 
L 691.955593 233.68466 
L 691.955593 233.429161 
L 692.299105 233.640569 
L 692.299105 233.421071 
L 692.643106 233.67222 
L 692.643106 233.468587 
L 692.986862 233.729419 
L 692.986862 233.53495 
L 693.330374 233.76232 
L 693.330374 233.551462 
L 693.673641 233.76853 
L 693.673641 233.532708 
L 694.017153 233.729468 
L 694.017153 233.488248 
L 694.360664 233.700185 
L 694.360664 233.440155 
L 694.704176 233.663921 
L 694.704176 233.423286 
L 695.047688 233.656035 
L 695.047688 233.431595 
L 695.396578 233.682499 
L 695.396578 233.445747 
L 695.740335 233.688525 
L 695.740335 233.499416 
L 696.084091 233.725582 
L 696.084091 233.510971 
L 696.427602 233.761255 
L 696.427602 233.51166 
L 696.771603 233.699539 
L 696.771603 233.505189 
L 697.120005 233.709414 
L 697.120005 233.452465 
L 697.484054 233.695851 
L 697.484054 233.455439 
L 697.82781 233.642049 
L 697.82781 233.393495 
L 698.171322 233.636883 
L 698.171322 233.451759 
L 698.515078 233.691008 
L 698.515078 233.474753 
L 698.858834 233.728028 
L 698.858834 233.48851 
L 699.202346 233.682931 
L 699.202346 233.457476 
L 699.545613 233.686836 
L 699.545613 233.4444 
L 699.889369 233.68211 
L 699.889369 233.45202 
L 700.233126 233.680885 
L 700.233126 233.452001 
L 700.582016 233.700304 
L 700.582016 233.465069 
L 700.925772 233.699651 
L 700.925772 233.477081 
L 701.269529 233.707047 
L 701.269529 233.484055 
L 701.613285 233.713914 
L 701.613285 233.496334 
L 701.956797 233.693718 
L 701.956797 233.465083 
L 702.300553 233.699081 
L 702.300553 233.496249 
L 702.644065 233.70712 
L 702.644065 233.536335 
L 702.987821 233.764579 
L 702.987821 233.516079 
L 704.018601 233.395642 
L 704.362357 233.673616 
L 704.362357 233.484779 
L 704.705868 233.71893 
L 704.705868 233.478441 
L 705.04938 233.735449 
L 705.04938 233.481173 
L 705.392647 233.668945 
L 705.392647 233.452222 
L 705.741782 233.682227 
L 705.741782 233.460557 
L 706.085539 233.724719 
L 706.085539 233.48362 
L 706.429295 233.689559 
L 706.429295 233.4823 
L 707.465453 233.494371 
L 707.808965 233.716127 
L 707.808965 233.475417 
L 708.152966 233.683127 
L 708.152966 233.508051 
L 708.496722 233.722985 
L 708.496722 233.516646 
L 708.840723 233.749978 
L 708.840723 233.560655 
L 709.184235 233.760071 
L 709.184235 233.541801 
L 709.527991 233.753103 
L 709.527991 233.554708 
L 709.871747 233.742728 
L 709.871747 233.52323 
L 710.215748 233.756811 
L 710.215748 233.574146 
L 710.559259 233.783838 
L 710.559259 233.597189 
L 710.909861 233.806598 
L 710.909861 233.613525 
L 711.253129 233.807913 
L 711.253129 233.598879 
L 711.596885 233.776467 
L 711.596885 233.561882 
L 711.940641 233.737137 
L 711.940641 233.524471 
L 712.284397 233.733462 
L 712.284397 233.520398 
L 712.628398 233.727632 
L 712.628398 233.532585 
L 712.972154 233.748881 
L 712.972154 233.488813 
L 713.315911 233.713921 
L 713.315911 233.507119 
L 713.659667 233.694171 
L 713.659667 233.453577 
L 714.003912 233.693888 
L 714.003912 233.452312 
L 714.347668 233.660245 
L 714.347668 233.461849 
L 714.691424 233.690924 
L 714.691424 233.505206 
L 715.035181 233.735895 
L 715.035181 233.512713 
L 715.378937 233.730742 
L 715.378937 233.539339 
L 715.722449 233.748951 
L 715.722449 233.57273 
L 716.071584 233.79434 
L 716.071584 233.588598 
L 716.415584 233.779671 
L 716.415584 233.577291 
L 716.759341 233.760523 
L 716.759341 233.576504 
L 717.102852 233.787163 
L 717.102852 233.559302 
L 717.446609 233.751486 
L 717.446609 233.523972 
L 717.790365 233.710467 
L 717.790365 233.509756 
L 718.134121 233.737128 
L 718.134121 233.515608 
L 718.477877 233.756077 
L 718.477877 233.561766 
L 718.821389 233.754047 
L 718.821389 233.576181 
L 719.165145 233.803622 
L 719.165145 233.6118 
L 719.514769 233.817029 
L 719.514769 233.630339 
L 719.858525 233.805316 
L 719.858525 233.598916 
L 720.202282 233.782531 
L 720.202282 233.561624 
L 720.546038 233.743891 
L 720.546038 233.552603 
L 720.88955 233.759791 
L 720.88955 233.601576 
L 721.238196 233.816722 
L 721.238196 233.650588 
L 721.581707 233.844374 
L 721.581707 233.619789 
L 721.927909 233.776941 
L 721.927909 233.588664 
L 722.271176 233.751855 
L 722.271176 233.555081 
L 722.614688 233.764256 
L 722.614688 233.560343 
L 722.958444 233.753087 
L 722.958444 233.60098 
L 723.989223 233.534747 
L 724.332491 233.783621 
L 724.332491 233.5892 
L 724.676002 233.784387 
L 724.676002 233.608676 
L 725.019514 233.800905 
L 725.019514 233.604377 
L 725.362781 233.792062 
L 725.362781 233.599587 
L 725.706049 233.778783 
L 725.706049 233.615474 
L 726.04956 233.807914 
L 726.04956 233.622965 
L 726.398695 233.817067 
L 726.398695 233.57876 
L 726.742452 233.744568 
L 726.742452 233.531599 
L 727.085963 233.708416 
L 727.085963 233.545565 
L 727.429475 233.78018 
L 727.429475 233.54238 
L 727.778366 233.762582 
L 727.778366 233.559181 
L 728.121877 233.728634 
L 728.121877 233.525832 
L 729.152168 233.58301 
L 729.496169 233.807454 
L 729.496169 233.605732 
L 729.839436 233.811757 
L 729.839436 233.61622 
L 730.182459 233.780618 
L 730.182459 233.590498 
L 730.525726 233.79214 
L 730.525726 233.570691 
L 730.869238 233.758038 
L 730.869238 233.584787 
L 731.212505 233.766219 
L 731.212505 233.582516 
L 731.561151 233.805026 
L 731.561151 233.582849 
L 731.904907 233.763885 
L 731.904907 233.572443 
L 732.248419 233.755372 
L 732.248419 233.543815 
L 732.591686 233.765488 
L 732.591686 233.579721 
L 732.935198 233.781678 
L 732.935198 233.592721 
L 733.278465 233.793893 
L 733.278465 233.633159 
L 733.621977 233.830742 
L 733.621977 233.650278 
L 733.965244 233.847516 
L 733.965244 233.656385 
L 734.309489 233.822464 
L 734.309489 233.634125 
L 734.652757 233.817389 
L 734.652757 233.637078 
L 734.996024 233.835448 
L 734.996024 233.644654 
L 735.339291 233.814941 
L 735.339291 233.628564 
L 735.683047 233.787449 
L 735.683047 233.584987 
L 736.026315 233.76349 
L 736.026315 233.605099 
L 736.370071 233.798289 
L 736.370071 233.596856 
L 736.720428 233.793445 
L 736.720428 233.630287 
L 737.06394 233.795025 
L 737.06394 233.591307 
L 737.407452 233.8052 
L 737.407452 233.654164 
L 737.750475 233.840224 
L 737.750475 233.692257 
L 738.094231 233.884732 
L 738.094231 233.691229 
L 738.442877 233.841375 
L 738.442877 233.651071 
L 738.786144 233.795508 
L 738.786144 233.638312 
L 739.129656 233.835882 
L 739.129656 233.670884 
L 739.473168 233.848518 
L 739.473168 233.676225 
L 739.81619 233.828848 
L 739.81619 233.62313 
L 740.159702 233.801716 
L 740.159702 233.610266 
L 740.502969 233.786286 
L 740.502969 233.622923 
L 740.846237 233.825017 
L 740.846237 233.606581 
L 741.189504 233.791913 
L 741.189504 233.647242 
L 741.533504 233.814658 
L 741.533504 233.629474 
L 741.882151 233.830867 
L 741.882151 233.631454 
L 742.225662 233.780363 
L 742.225662 233.618758 
L 743.255709 233.646967 
L 743.255709 233.629283 
L 743.599465 233.830093 
L 743.599465 233.650671 
L 743.942976 233.826726 
L 743.942976 233.674615 
L 744.286244 233.860374 
L 744.286244 233.650588 
L 744.629266 233.82247 
L 744.629266 233.654014 
L 744.972534 233.805323 
L 744.972534 233.646017 
L 745.315801 233.845219 
L 745.315801 233.663641 
L 745.659557 233.846115 
L 745.659557 233.675477 
L 746.00258 233.824814 
L 746.00258 233.648723 
L 746.346092 233.836639 
L 746.346092 233.667345 
L 746.689359 233.845173 
L 746.689359 233.688103 
L 747.038005 233.861965 
L 747.038005 233.679165 
L 747.381761 233.82767 
L 747.381761 233.684312 
L 747.725273 233.848905 
L 747.725273 233.679779 
L 748.06854 233.85971 
L 748.06854 233.726674 
L 748.411563 233.871094 
L 748.411563 233.679535 
L 748.755075 233.846249 
L 748.755075 233.683298 
L 749.098586 233.848533 
L 749.098586 233.660452 
L 749.441854 233.859554 
L 749.441854 233.680335 
L 749.785121 233.847898 
L 749.785121 233.644855 
L 750.128633 233.828865 
L 750.128633 233.659564 
L 750.472144 233.842638 
L 750.472144 233.675321 
L 750.815901 233.86135 
L 750.815901 233.660013 
L 751.158923 233.824286 
L 751.158923 233.641306 
L 751.50219 233.801481 
L 751.50219 233.598414 
L 751.845458 233.795745 
L 751.845458 233.634796 
L 752.198749 233.825753 
L 752.198749 233.666361 
L 752.542261 233.866318 
L 752.542261 233.712965 
L 752.885528 233.87027 
L 752.885528 233.682366 
L 753.228795 233.847041 
L 753.228795 233.692448 
L 753.572063 233.844818 
L 753.572063 233.710566 
L 753.915085 233.890184 
L 753.915085 233.719335 
L 754.258353 233.870591 
L 754.258353 233.699704 
L 754.601375 233.83429 
L 754.601375 233.660981 
L 755.630444 233.652276 
L 755.630444 233.660045 
L 755.973466 233.82322 
L 755.973466 233.675953 
L 756.316245 233.85408 
L 756.316245 233.676669 
L 756.659267 233.842332 
L 756.659267 233.714584 
L 757.002779 233.849857 
L 757.002779 233.672704 
L 757.351181 233.850757 
L 757.351181 233.708758 
L 757.695181 233.86412 
L 757.695181 233.718271 
L 758.038693 233.90876 
L 758.038693 233.733371 
L 758.382205 233.870959 
L 758.382205 233.709908 
L 758.725472 233.873158 
L 758.725472 233.70262 
L 759.068739 233.870573 
L 759.068739 233.674348 
L 759.411518 233.83493 
L 759.411518 233.688604 
L 759.75454 233.86745 
L 759.75454 233.714408 
L 760.102208 233.913119 
L 760.102208 233.754533 
L 760.445231 233.897454 
L 760.445231 233.739076 
L 760.787765 233.893772 
L 760.787765 233.739736 
L 761.131032 233.901971 
L 761.131032 233.745258 
L 761.474055 233.8878 
L 761.474055 233.749198 
L 761.817078 233.894702 
L 761.817078 233.747071 
L 762.160345 233.897335 
L 762.160345 233.750204 
L 763.195525 233.704931 
L 763.883038 233.726964 
L 763.883038 233.724102 
L 764.226061 233.525913 
L 764.569328 233.695035 
L 764.913084 233.684935 
L 765.256351 233.883712 
L 765.256351 233.724396 
L 765.599374 233.881477 
L 765.599374 233.724673 
L 765.942641 233.892841 
L 765.942641 233.74706 
L 766.285909 233.905787 
L 766.285909 233.756567 
L 766.62942 233.913764 
L 766.62942 233.748972 
L 767.664112 233.747595 
L 767.664112 233.777124 
L 768.007379 233.934485 
L 768.007379 233.797189 
L 768.350402 233.949364 
L 768.350402 233.788756 
L 768.693425 233.920201 
L 768.693425 233.79071 
L 769.036447 233.93904 
L 769.036447 233.766425 
L 769.379226 233.925319 
L 769.379226 233.76158 
L 769.722493 233.880809 
L 769.722493 233.724948 
L 770.066983 233.890431 
L 770.066983 233.703695 
L 770.414895 233.871679 
L 770.414895 233.728424 
L 770.758407 233.882125 
L 770.758407 233.724212 
L 771.101674 233.909562 
L 771.101674 233.766805 
L 771.445186 233.912257 
L 771.445186 233.764567 
L 771.788453 233.916709 
L 771.788453 233.781667 
L 772.131231 233.915638 
L 772.131231 233.767422 
L 772.474499 233.905877 
L 772.474499 233.760352 
L 772.822656 233.895063 
L 772.822656 233.75543 
L 773.165678 233.910559 
L 773.165678 233.753822 
L 773.508701 233.903247 
L 773.508701 233.77571 
L 773.851968 233.921444 
L 773.851968 233.770997 
L 774.195236 233.924373 
L 774.195236 233.794136 
L 774.538747 233.932658 
L 774.538747 233.788379 
L 774.882015 233.934515 
L 774.882015 233.815049 
L 775.225771 233.944656 
L 775.225771 233.803068 
L 775.569038 233.955571 
L 775.569038 233.815873 
L 775.912794 233.944102 
L 775.912794 233.785128 
L 776.257284 233.913142 
L 776.257284 233.741233 
L 776.600307 233.875142 
L 776.600307 233.733561 
L 776.943574 233.895862 
L 776.943574 233.760135 
L 777.286597 233.921911 
L 777.286597 233.788666 
L 777.629619 233.926854 
L 777.629619 233.779398 
L 777.983155 233.923416 
L 777.983155 233.799737 
L 778.326667 233.94842 
L 778.326667 233.760511 
L 778.670179 233.905011 
L 778.670179 233.775986 
L 779.013446 233.909044 
L 779.013446 233.772697 
L 779.356713 233.968162 
L 779.356713 233.828939 
L 779.699981 233.947715 
L 779.699981 233.804529 
L 780.043248 233.938587 
L 780.043248 233.764821 
L 780.386515 233.902933 
L 780.386515 233.776476 
L 780.729538 233.911802 
L 780.729538 233.76142 
L 781.072805 233.933748 
L 781.072805 233.784798 
L 781.416072 233.925282 
L 781.416072 233.759194 
L 781.75934 233.914135 
L 781.75934 233.778979 
L 782.102362 233.928054 
L 782.102362 233.771626 
L 782.445874 233.940901 
L 782.445874 233.770352 
L 782.788897 233.900259 
L 782.788897 233.763117 
L 783.137543 233.915092 
L 783.137543 233.757271 
L 783.480566 233.925885 
L 783.480566 233.783777 
L 783.823833 233.922535 
L 783.823833 233.772102 
L 784.166856 233.929606 
L 784.166856 233.791428 
L 784.509878 233.939756 
L 784.509878 233.785693 
L 784.853146 233.93709 
L 784.853146 233.79636 
L 785.196168 233.935177 
L 785.196168 233.792436 
L 785.538947 233.945779 
L 785.538947 233.827204 
L 785.881725 233.971141 
L 785.881725 233.805868 
L 786.224992 233.937573 
L 786.224992 233.817917 
L 786.568259 233.942508 
L 786.568259 233.770872 
L 786.916416 233.918702 
L 786.916416 233.784152 
L 787.259439 233.912542 
L 787.259439 233.755207 
L 787.602462 233.925238 
L 787.602462 233.806826 
L 787.945729 233.947996 
L 787.945729 233.803095 
L 788.293886 233.962612 
L 788.293886 233.813726 
L 788.63642 233.948603 
L 788.63642 233.819368 
L 788.978954 233.95905 
L 788.978954 233.827007 
L 789.321487 233.968875 
L 789.321487 233.808165 
L 789.663777 233.927225 
L 789.663777 233.759242 
L 790.3486 233.749893 
L 790.3486 233.794669 
L 790.686244 233.816159 
L 791.026821 233.963526 
L 791.026821 233.817901 
L 791.363976 233.914885 
L 791.363976 233.784262 
L 791.701865 233.929711 
L 791.701865 233.810745 
L 792.038775 233.94136 
L 792.038775 233.80818 
L 792.373241 233.947552 
L 792.373241 233.816689 
L 792.707951 233.952861 
L 792.707951 233.823645 
L 793.041683 233.975443 
L 793.041683 233.855941 
L 793.379571 233.983944 
L 793.379571 233.843636 
L 793.713303 233.967421 
L 793.713303 233.814851 
L 794.046791 233.937832 
L 794.046791 233.789042 
L 794.379789 233.915371 
L 794.379789 233.772775 
L 794.713032 233.920892 
L 794.713032 233.787524 
L 795.377318 233.967784 
L 795.377318 233.823649 
L 796.377292 233.788086 
L 796.377292 233.818642 
L 797.04011 233.96733 
L 797.04011 233.842777 
L 797.703174 233.789831 
L 798.035683 233.638238 
L 798.373083 233.789909 
L 798.705103 233.647005 
L 799.037124 233.887293 
L 800.363495 233.885766 
L 800.695271 233.996346 
L 800.695271 233.863067 
L 801.028025 234.011899 
L 801.028025 233.89727 
L 801.361024 234.006398 
L 801.361024 233.863977 
L 801.693289 233.996433 
L 801.693289 233.84429 
L 802.356841 233.981117 
L 802.356841 233.828567 
L 802.68935 233.975703 
L 802.68935 233.876773 
L 803.02186 233.975406 
L 803.02186 233.846978 
L 803.359504 233.994076 
L 803.359504 233.870384 
L 804.025746 233.997878 
L 804.025746 233.861227 
L 804.359478 233.969557 
L 804.359478 233.834495 
L 804.698344 233.949135 
L 804.698344 233.833557 
L 806.705382 233.836585 
L 807.040825 233.967189 
L 807.040825 233.839565 
L 807.375535 233.980441 
L 807.375535 233.866717 
L 807.711223 233.993896 
L 807.711223 233.850174 
L 808.047155 233.976867 
L 808.047155 233.875575 
L 808.387 233.981798 
L 808.387 233.865907 
L 811.748525 233.833072 
L 812.087391 233.719918 
L 812.764146 233.863532 
L 812.764146 233.837169 
L 814.142105 234.167167 
L 814.491729 234.328024 
L 816.241805 234.32709 
L 816.241805 234.32709 
" clip-path="url(#pabcebecdd7)" style="fill: none; stroke: #008000; stroke-width: 1.5; stroke-linecap: square"/>
   </g>
   <g id="patch_3">
    <path d="M 47.72 534.04 
L 47.72 26.88 
" style="fill: none; stroke: #000000; stroke-width: 0.8; stroke-linejoin: miter; stroke-linecap: square"/>
   </g>
   <g id="patch_4">
    <path d="M 853.2 534.04 
L 853.2 26.88 
" style="fill: none; stroke: #000000; stroke-width: 0.8; stroke-linejoin: miter; stroke-linecap: square"/>
   </g>
   <g id="patch_5">
    <path d="M 47.72 534.04 
L 853.2 534.04 
" style="fill: none; stroke: #000000; stroke-width: 0.8; stroke-linejoin: miter; stroke-linecap: square"/>
   </g>
   <g id="patch_6">
    <path d="M 47.72 26.88 
L 853.2 26.88 
" style="fill: none; stroke: #000000; stroke-width: 0.8; stroke-linejoin: miter; stroke-linecap: square"/>
   </g>
   <g id="patch_7">
    <path d="M 619.424125 360.064953 
Q 593.272832 365.898415 567.121538 371.731877 
L 567.992398 375.635926 
Q 561.48466 374.013849 554.976923 372.391772 
Q 560.17837 368.157775 565.379817 363.923778 
L 566.250677 367.827827 
Q 592.401971 361.994365 618.553265 356.160903 
L 619.424125 360.064953 
z
" style="stroke: #000000; stroke-linecap: round"/>
   </g>
   <g id="text_15">
    <!-- Peak: RT=3.19, Area=7.23e+04 -->
    <g style="fill: #ff0000" transform="translate(624.660789 343.570177) scale(0.1 -0.1)">
     <defs>
      <path id="DejaVuSans-50" d="M 1259 4147 
L 1259 2394 
L 2053 2394 
Q 2494 2394 2734 2622 
Q 2975 2850 2975 3272 
Q 2975 3691 2734 3919 
Q 2494 4147 2053 4147 
L 1259 4147 
z
M 628 4666 
L 2053 4666 
Q 2838 4666 3239 4311 
Q 3641 3956 3641 3272 
Q 3641 2581 3239 2228 
Q 2838 1875 2053 1875 
L 1259 1875 
L 1259 0 
L 628 0 
L 628 4666 
z
" transform="scale(0.015625)"/>
      <path id="DejaVuSans-6b" d="M 581 4863 
L 1159 4863 
L 1159 1991 
L 2875 3500 
L 3609 3500 
L 1753 1863 
L 3688 0 
L 2938 0 
L 1159 1709 
L 1159 0 
L 581 0 
L 581 4863 
z
" transform="scale(0.015625)"/>
      <path id="DejaVuSans-3a" d="M 750 794 
L 1409 794 
L 1409 0 
L 750 0 
L 750 794 
z
M 750 3309 
L 1409 3309 
L 1409 2516 
L 750 2516 
L 750 3309 
z
" transform="scale(0.015625)"/>
      <path id="DejaVuSans-3d" d="M 678 2906 
L 4684 2906 
L 4684 2381 
L 678 2381 
L 678 2906 
z
M 678 1631 
L 4684 1631 
L 4684 1100 
L 678 1100 
L 678 1631 
z
" transform="scale(0.015625)"/>
      <path id="DejaVuSans-39" d="M 703 97 
L 703 672 
Q 941 559 1184 500 
Q 1428 441 1663 441 
Q 2288 441 2617 861 
Q 2947 1281 2994 2138 
Q 2813 1869 2534 1725 
Q 2256 1581 1919 1581 
Q 1219 1581 811 2004 
Q 403 2428 403 3163 
Q 403 3881 828 4315 
Q 1253 4750 1959 4750 
Q 2769 4750 3195 4129 
Q 3622 3509 3622 2328 
Q 3622 1225 3098 567 
Q 2575 -91 1691 -91 
Q 1453 -91 1209 -44 
Q 966 3 703 97 
z
M 1959 2075 
Q 2384 2075 2632 2365 
Q 2881 2656 2881 3163 
Q 2881 3666 2632 3958 
Q 2384 4250 1959 4250 
Q 1534 4250 1286 3958 
Q 1038 3666 1038 3163 
Q 1038 2656 1286 2365 
Q 1534 2075 1959 2075 
z
" transform="scale(0.015625)"/>
      <path id="DejaVuSans-2c" d="M 750 794 
L 1409 794 
L 1409 256 
L 897 -744 
L 494 -744 
L 750 256 
L 750 794 
z
" transform="scale(0.015625)"/>
      <path id="DejaVuSans-41" d="M 2188 4044 
L 1331 1722 
L 3047 1722 
L 2188 4044 
z
M 1831 4666 
L 2547 4666 
L 4325 0 
L 3669 0 
L 3244 1197 
L 1141 1197 
L 716 0 
L 50 0 
L 1831 4666 
z
" transform="scale(0.015625)"/>
      <path id="DejaVuSans-37" d="M 525 4666 
L 3525 4666 
L 3525 4397 
L 1831 0 
L 1172 0 
L 2766 4134 
L 525 4134 
L 525 4666 
z
" transform="scale(0.015625)"/>
      <path id="DejaVuSans-2b" d="M 2944 4013 
L 2944 2272 
L 4684 2272 
L 4684 1741 
L 2944 1741 
L 2944 0 
L 2419 0 
L 2419 1741 
L 678 1741 
L 678 2272 
L 2419 2272 
L 2419 4013 
L 2944 4013 
z
" transform="scale(0.015625)"/>
     </defs>
     <use xlink:href="#DejaVuSans-50"/>
     <use xlink:href="#DejaVuSans-65" transform="translate(56.677734 0)"/>
     <use xlink:href="#DejaVuSans-61" transform="translate(118.201172 0)"/>
     <use xlink:href="#DejaVuSans-6b" transform="translate(179.480469 0)"/>
     <use xlink:href="#DejaVuSans-3a" transform="translate(237.390625 0)"/>
     <use xlink:href="#DejaVuSans-20" transform="translate(271.082031 0)"/>
     <use xlink:href="#DejaVuSans-52" transform="translate(302.869141 0)"/>
     <use xlink:href="#DejaVuSans-54" transform="translate(365.101562 0)"/>
     <use xlink:href="#DejaVuSans-3d" transform="translate(426.185547 0)"/>
     <use xlink:href="#DejaVuSans-33" transform="translate(509.974609 0)"/>
     <use xlink:href="#DejaVuSans-2e" transform="translate(573.597656 0)"/>
     <use xlink:href="#DejaVuSans-31" transform="translate(605.384766 0)"/>
     <use xlink:href="#DejaVuSans-39" transform="translate(669.007812 0)"/>
     <use xlink:href="#DejaVuSans-2c" transform="translate(732.630859 0)"/>
     <use xlink:href="#DejaVuSans-20" transform="translate(764.417969 0)"/>
     <use xlink:href="#DejaVuSans-41" transform="translate(796.205078 0)"/>
     <use xlink:href="#DejaVuSans-72" transform="translate(864.613281 0)"/>
     <use xlink:href="#DejaVuSans-65" transform="translate(903.476562 0)"/>
     <use xlink:href="#DejaVuSans-61" transform="translate(965 0)"/>
     <use xlink:href="#DejaVuSans-3d" transform="translate(1026.279297 0)"/>
     <use xlink:href="#DejaVuSans-37" transform="translate(1110.068359 0)"/>
     <use xlink:href="#DejaVuSans-2e" transform="translate(1173.691406 0)"/>
     <use xlink:href="#DejaVuSans-32" transform="translate(1205.478516 0)"/>
     <use xlink:href="#DejaVuSans-33" transform="translate(1269.101562 0)"/>
     <use xlink:href="#DejaVuSans-65" transform="translate(1332.724609 0)"/>
     <use xlink:href="#DejaVuSans-2b" transform="translate(1394.248047 0)"/>
     <use xlink:href="#DejaVuSans-30" transform="translate(1478.037109 0)"/>
     <use xlink:href="#DejaVuSans-34" transform="translate(1541.660156 0)"/>
    </g>
    <!-- (70.67% of total) -->
    <g style="fill: #ff0000" transform="translate(624.660789 354.76799) scale(0.1 -0.1)">
     <defs>
      <path id="DejaVuSans-36" d="M 2113 2584 
Q 1688 2584 1439 2293 
Q 1191 2003 1191 1497 
Q 1191 994 1439 701 
Q 1688 409 2113 409 
Q 2538 409 2786 701 
Q 3034 994 3034 1497 
Q 3034 2003 2786 2293 
Q 2538 2584 2113 2584 
z
M 3366 4563 
L 3366 3988 
Q 3128 4100 2886 4159 
Q 2644 4219 2406 4219 
Q 1781 4219 1451 3797 
Q 1122 3375 1075 2522 
Q 1259 2794 1537 2939 
Q 1816 3084 2150 3084 
Q 2853 3084 3261 2657 
Q 3669 2231 3669 1497 
Q 3669 778 3244 343 
Q 2819 -91 2113 -91 
Q 1303 -91 875 529 
Q 447 1150 447 2328 
Q 447 3434 972 4092 
Q 1497 4750 2381 4750 
Q 2619 4750 2861 4703 
Q 3103 4656 3366 4563 
z
" transform="scale(0.015625)"/>
      <path id="DejaVuSans-25" d="M 4653 2053 
Q 4381 2053 4226 1822 
Q 4072 1591 4072 1178 
Q 4072 772 4226 539 
Q 4381 306 4653 306 
Q 4919 306 5073 539 
Q 5228 772 5228 1178 
Q 5228 1588 5073 1820 
Q 4919 2053 4653 2053 
z
M 4653 2450 
Q 5147 2450 5437 2106 
Q 5728 1763 5728 1178 
Q 5728 594 5436 251 
Q 5144 -91 4653 -91 
Q 4153 -91 3862 251 
Q 3572 594 3572 1178 
Q 3572 1766 3864 2108 
Q 4156 2450 4653 2450 
z
M 1428 4353 
Q 1159 4353 1004 4120 
Q 850 3888 850 3481 
Q 850 3069 1003 2837 
Q 1156 2606 1428 2606 
Q 1700 2606 1854 2837 
Q 2009 3069 2009 3481 
Q 2009 3884 1853 4118 
Q 1697 4353 1428 4353 
z
M 4250 4750 
L 4750 4750 
L 1831 -91 
L 1331 -91 
L 4250 4750 
z
M 1428 4750 
Q 1922 4750 2215 4408 
Q 2509 4066 2509 3481 
Q 2509 2891 2217 2550 
Q 1925 2209 1428 2209 
Q 931 2209 642 2551 
Q 353 2894 353 3481 
Q 353 4063 643 4406 
Q 934 4750 1428 4750 
z
" transform="scale(0.015625)"/>
      <path id="DejaVuSans-66" d="M 2375 4863 
L 2375 4384 
L 1825 4384 
Q 1516 4384 1395 4259 
Q 1275 4134 1275 3809 
L 1275 3500 
L 2222 3500 
L 2222 3053 
L 1275 3053 
L 1275 0 
L 697 0 
L 697 3053 
L 147 3053 
L 147 3500 
L 697 3500 
L 697 3744 
Q 697 4328 969 4595 
Q 1241 4863 1831 4863 
L 2375 4863 
z
" transform="scale(0.015625)"/>
     </defs>
     <use xlink:href="#DejaVuSans-28"/>
     <use xlink:href="#DejaVuSans-37" transform="translate(39.013672 0)"/>
     <use xlink:href="#DejaVuSans-30" transform="translate(102.636719 0)"/>
     <use xlink:href="#DejaVuSans-2e" transform="translate(166.259766 0)"/>
     <use xlink:href="#DejaVuSans-36" transform="translate(198.046875 0)"/>
     <use xlink:href="#DejaVuSans-37" transform="translate(261.669922 0)"/>
     <use xlink:href="#DejaVuSans-25" transform="translate(325.292969 0)"/>
     <use xlink:href="#DejaVuSans-20" transform="translate(420.3125 0)"/>
     <use xlink:href="#DejaVuSans-6f" transform="translate(452.099609 0)"/>
     <use xlink:href="#DejaVuSans-66" transform="translate(513.28125 0)"/>
     <use xlink:href="#DejaVuSans-20" transform="translate(548.486328 0)"/>
     <use xlink:href="#DejaVuSans-74" transform="translate(580.273438 0)"/>
     <use xlink:href="#DejaVuSans-6f" transform="translate(619.482422 0)"/>
     <use xlink:href="#DejaVuSans-74" transform="translate(680.664062 0)"/>
     <use xlink:href="#DejaVuSans-61" transform="translate(719.873047 0)"/>
     <use xlink:href="#DejaVuSans-6c" transform="translate(781.152344 0)"/>
     <use xlink:href="#DejaVuSans-29" transform="translate(808.935547 0)"/>
    </g>
   </g>
   <g id="text_16">
    <!-- UV and MS Chromatograms of IrCp3L24, target m/z = 759.1106414 -->
    <g transform="translate(246.976563 20.88) scale(0.12 -0.12)">
     <defs>
      <path id="DejaVuSans-55" d="M 556 4666 
L 1191 4666 
L 1191 1831 
Q 1191 1081 1462 751 
Q 1734 422 2344 422 
Q 2950 422 3222 751 
Q 3494 1081 3494 1831 
L 3494 4666 
L 4128 4666 
L 4128 1753 
Q 4128 841 3676 375 
Q 3225 -91 2344 -91 
Q 1459 -91 1007 375 
Q 556 841 556 1753 
L 556 4666 
z
" transform="scale(0.015625)"/>
      <path id="DejaVuSans-56" d="M 1831 0 
L 50 4666 
L 709 4666 
L 2188 738 
L 3669 4666 
L 4325 4666 
L 2547 0 
L 1831 0 
z
" transform="scale(0.015625)"/>
      <path id="DejaVuSans-4d" d="M 628 4666 
L 1569 4666 
L 2759 1491 
L 3956 4666 
L 4897 4666 
L 4897 0 
L 4281 0 
L 4281 4097 
L 3078 897 
L 2444 897 
L 1241 4097 
L 1241 0 
L 628 0 
L 628 4666 
z
" transform="scale(0.015625)"/>
      <path id="DejaVuSans-53" d="M 3425 4513 
L 3425 3897 
Q 3066 4069 2747 4153 
Q 2428 4238 2131 4238 
Q 1616 4238 1336 4038 
Q 1056 3838 1056 3469 
Q 1056 3159 1242 3001 
Q 1428 2844 1947 2747 
L 2328 2669 
Q 3034 2534 3370 2195 
Q 3706 1856 3706 1288 
Q 3706 609 3251 259 
Q 2797 -91 1919 -91 
Q 1588 -91 1214 -16 
Q 841 59 441 206 
L 441 856 
Q 825 641 1194 531 
Q 1563 422 1919 422 
Q 2459 422 2753 634 
Q 3047 847 3047 1241 
Q 3047 1584 2836 1778 
Q 2625 1972 2144 2069 
L 1759 2144 
Q 1053 2284 737 2584 
Q 422 2884 422 3419 
Q 422 4038 858 4394 
Q 1294 4750 2059 4750 
Q 2388 4750 2728 4690 
Q 3069 4631 3425 4513 
z
" transform="scale(0.015625)"/>
      <path id="DejaVuSans-43" d="M 4122 4306 
L 4122 3641 
Q 3803 3938 3442 4084 
Q 3081 4231 2675 4231 
Q 1875 4231 1450 3742 
Q 1025 3253 1025 2328 
Q 1025 1406 1450 917 
Q 1875 428 2675 428 
Q 3081 428 3442 575 
Q 3803 722 4122 1019 
L 4122 359 
Q 3791 134 3420 21 
Q 3050 -91 2638 -91 
Q 1578 -91 968 557 
Q 359 1206 359 2328 
Q 359 3453 968 4101 
Q 1578 4750 2638 4750 
Q 3056 4750 3426 4639 
Q 3797 4528 4122 4306 
z
" transform="scale(0.015625)"/>
      <path id="DejaVuSans-68" d="M 3513 2113 
L 3513 0 
L 2938 0 
L 2938 2094 
Q 2938 2591 2744 2837 
Q 2550 3084 2163 3084 
Q 1697 3084 1428 2787 
Q 1159 2491 1159 1978 
L 1159 0 
L 581 0 
L 581 4863 
L 1159 4863 
L 1159 2956 
Q 1366 3272 1645 3428 
Q 1925 3584 2291 3584 
Q 2894 3584 3203 3211 
Q 3513 2838 3513 2113 
z
" transform="scale(0.015625)"/>
      <path id="DejaVuSans-67" d="M 2906 1791 
Q 2906 2416 2648 2759 
Q 2391 3103 1925 3103 
Q 1463 3103 1205 2759 
Q 947 2416 947 1791 
Q 947 1169 1205 825 
Q 1463 481 1925 481 
Q 2391 481 2648 825 
Q 2906 1169 2906 1791 
z
M 3481 434 
Q 3481 -459 3084 -895 
Q 2688 -1331 1869 -1331 
Q 1566 -1331 1297 -1286 
Q 1028 -1241 775 -1147 
L 775 -588 
Q 1028 -725 1275 -790 
Q 1522 -856 1778 -856 
Q 2344 -856 2625 -561 
Q 2906 -266 2906 331 
L 2906 616 
Q 2728 306 2450 153 
Q 2172 0 1784 0 
Q 1141 0 747 490 
Q 353 981 353 1791 
Q 353 2603 747 3093 
Q 1141 3584 1784 3584 
Q 2172 3584 2450 3431 
Q 2728 3278 2906 2969 
L 2906 3500 
L 3481 3500 
L 3481 434 
z
" transform="scale(0.015625)"/>
      <path id="DejaVuSans-70" d="M 1159 525 
L 1159 -1331 
L 581 -1331 
L 581 3500 
L 1159 3500 
L 1159 2969 
Q 1341 3281 1617 3432 
Q 1894 3584 2278 3584 
Q 2916 3584 3314 3078 
Q 3713 2572 3713 1747 
Q 3713 922 3314 415 
Q 2916 -91 2278 -91 
Q 1894 -91 1617 61 
Q 1341 213 1159 525 
z
M 3116 1747 
Q 3116 2381 2855 2742 
Q 2594 3103 2138 3103 
Q 1681 3103 1420 2742 
Q 1159 2381 1159 1747 
Q 1159 1113 1420 752 
Q 1681 391 2138 391 
Q 2594 391 2855 752 
Q 3116 1113 3116 1747 
z
" transform="scale(0.015625)"/>
      <path id="DejaVuSans-4c" d="M 628 4666 
L 1259 4666 
L 1259 531 
L 3531 531 
L 3531 0 
L 628 0 
L 628 4666 
z
" transform="scale(0.015625)"/>
      <path id="DejaVuSans-2f" d="M 1625 4666 
L 2156 4666 
L 531 -594 
L 0 -594 
L 1625 4666 
z
" transform="scale(0.015625)"/>
     </defs>
     <use xlink:href="#DejaVuSans-55"/>
     <use xlink:href="#DejaVuSans-56" transform="translate(73.193359 0)"/>
     <use xlink:href="#DejaVuSans-20" transform="translate(141.601562 0)"/>
     <use xlink:href="#DejaVuSans-61" transform="translate(173.388672 0)"/>
     <use xlink:href="#DejaVuSans-6e" transform="translate(234.667969 0)"/>
     <use xlink:href="#DejaVuSans-64" transform="translate(298.046875 0)"/>
     <use xlink:href="#DejaVuSans-20" transform="translate(361.523438 0)"/>
     <use xlink:href="#DejaVuSans-4d" transform="translate(393.310547 0)"/>
     <use xlink:href="#DejaVuSans-53" transform="translate(479.589844 0)"/>
     <use xlink:href="#DejaVuSans-20" transform="translate(543.066406 0)"/>
     <use xlink:href="#DejaVuSans-43" transform="translate(574.853516 0)"/>
     <use xlink:href="#DejaVuSans-68" transform="translate(644.677734 0)"/>
     <use xlink:href="#DejaVuSans-72" transform="translate(708.056641 0)"/>
     <use xlink:href="#DejaVuSans-6f" transform="translate(746.919922 0)"/>
     <use xlink:href="#DejaVuSans-6d" transform="translate(808.101562 0)"/>
     <use xlink:href="#DejaVuSans-61" transform="translate(905.513672 0)"/>
     <use xlink:href="#DejaVuSans-74" transform="translate(966.792969 0)"/>
     <use xlink:href="#DejaVuSans-6f" transform="translate(1006.001953 0)"/>
     <use xlink:href="#DejaVuSans-67" transform="translate(1067.183594 0)"/>
     <use xlink:href="#DejaVuSans-72" transform="translate(1130.660156 0)"/>
     <use xlink:href="#DejaVuSans-61" transform="translate(1171.773438 0)"/>
     <use xlink:href="#DejaVuSans-6d" transform="translate(1233.052734 0)"/>
     <use xlink:href="#DejaVuSans-73" transform="translate(1330.464844 0)"/>
     <use xlink:href="#DejaVuSans-20" transform="translate(1382.564453 0)"/>
     <use xlink:href="#DejaVuSans-6f" transform="translate(1414.351562 0)"/>
     <use xlink:href="#DejaVuSans-66" transform="translate(1475.533203 0)"/>
     <use xlink:href="#DejaVuSans-20" transform="translate(1510.738281 0)"/>
     <use xlink:href="#DejaVuSans-49" transform="translate(1542.525391 0)"/>
     <use xlink:href="#DejaVuSans-72" transform="translate(1572.017578 0)"/>
     <use xlink:href="#DejaVuSans-43" transform="translate(1613.130859 0)"/>
     <use xlink:href="#DejaVuSans-70" transform="translate(1682.955078 0)"/>
     <use xlink:href="#DejaVuSans-33" transform="translate(1746.431641 0)"/>
     <use xlink:href="#DejaVuSans-4c" transform="translate(1810.054688 0)"/>
     <use xlink:href="#DejaVuSans-32" transform="translate(1865.767578 0)"/>
     <use xlink:href="#DejaVuSans-34" transform="translate(1929.390625 0)"/>
     <use xlink:href="#DejaVuSans-2c" transform="translate(1993.013672 0)"/>
     <use xlink:href="#DejaVuSans-20" transform="translate(2024.800781 0)"/>
     <use xlink:href="#DejaVuSans-74" transform="translate(2056.587891 0)"/>
     <use xlink:href="#DejaVuSans-61" transform="translate(2095.796875 0)"/>
     <use xlink:href="#DejaVuSans-72" transform="translate(2157.076172 0)"/>
     <use xlink:href="#DejaVuSans-67" transform="translate(2196.439453 0)"/>
     <use xlink:href="#DejaVuSans-65" transform="translate(2259.916016 0)"/>
     <use xlink:href="#DejaVuSans-74" transform="translate(2321.439453 0)"/>
     <use xlink:href="#DejaVuSans-20" transform="translate(2360.648438 0)"/>
     <use xlink:href="#DejaVuSans-6d" transform="translate(2392.435547 0)"/>
     <use xlink:href="#DejaVuSans-2f" transform="translate(2489.847656 0)"/>
     <use xlink:href="#DejaVuSans-7a" transform="translate(2523.539062 0)"/>
     <use xlink:href="#DejaVuSans-20" transform="translate(2576.029297 0)"/>
     <use xlink:href="#DejaVuSans-3d" transform="translate(2607.816406 0)"/>
     <use xlink:href="#DejaVuSans-20" transform="translate(2691.605469 0)"/>
     <use xlink:href="#DejaVuSans-37" transform="translate(2723.392578 0)"/>
     <use xlink:href="#DejaVuSans-35" transform="translate(2787.015625 0)"/>
     <use xlink:href="#DejaVuSans-39" transform="translate(2850.638672 0)"/>
     <use xlink:href="#DejaVuSans-2e" transform="translate(2914.261719 0)"/>
     <use xlink:href="#DejaVuSans-31" transform="translate(2946.048828 0)"/>
     <use xlink:href="#DejaVuSans-31" transform="translate(3009.671875 0)"/>
     <use xlink:href="#DejaVuSans-30" transform="translate(3073.294922 0)"/>
     <use xlink:href="#DejaVuSans-36" transform="translate(3136.917969 0)"/>
     <use xlink:href="#DejaVuSans-34" transform="translate(3200.541016 0)"/>
     <use xlink:href="#DejaVuSans-31" transform="translate(3264.164062 0)"/>
     <use xlink:href="#DejaVuSans-34" transform="translate(3327.787109 0)"/>
    </g>
   </g>
   <g id="legend_1">
    <g id="patch_8">
     <path d="M 685.971875 64.23625 
L 846.2 64.23625 
Q 848.2 64.23625 848.2 62.23625 
L 848.2 33.88 
Q 848.2 31.88 846.2 31.88 
L 685.971875 31.88 
Q 683.971875 31.88 683.971875 33.88 
L 683.971875 62.23625 
Q 683.971875 64.23625 685.971875 64.23625 
z
" style="fill: #ffffff; opacity: 0.8; stroke: #cccccc; stroke-linejoin: miter"/>
    </g>
    <g id="line2d_15">
     <path d="M 687.971875 39.978437 
L 697.971875 39.978437 
L 707.971875 39.978437 
" style="fill: none; stroke: #0000ff; stroke-width: 1.5; stroke-linecap: square"/>
    </g>
    <g id="text_17">
     <!-- UV Intensity (normalized) -->
     <g transform="translate(715.971875 43.478437) scale(0.1 -0.1)">
      <use xlink:href="#DejaVuSans-55"/>
      <use xlink:href="#DejaVuSans-56" transform="translate(73.193359 0)"/>
      <use xlink:href="#DejaVuSans-20" transform="translate(141.601562 0)"/>
      <use xlink:href="#DejaVuSans-49" transform="translate(173.388672 0)"/>
      <use xlink:href="#DejaVuSans-6e" transform="translate(202.880859 0)"/>
      <use xlink:href="#DejaVuSans-74" transform="translate(266.259766 0)"/>
      <use xlink:href="#DejaVuSans-65" transform="translate(305.46875 0)"/>
      <use xlink:href="#DejaVuSans-6e" transform="translate(366.992188 0)"/>
      <use xlink:href="#DejaVuSans-73" transform="translate(430.371094 0)"/>
      <use xlink:href="#DejaVuSans-69" transform="translate(482.470703 0)"/>
      <use xlink:href="#DejaVuSans-74" transform="translate(510.253906 0)"/>
      <use xlink:href="#DejaVuSans-79" transform="translate(549.462891 0)"/>
      <use xlink:href="#DejaVuSans-20" transform="translate(608.642578 0)"/>
      <use xlink:href="#DejaVuSans-28" transform="translate(640.429688 0)"/>
      <use xlink:href="#DejaVuSans-6e" transform="translate(679.443359 0)"/>
      <use xlink:href="#DejaVuSans-6f" transform="translate(742.822266 0)"/>
      <use xlink:href="#DejaVuSans-72" transform="translate(804.003906 0)"/>
      <use xlink:href="#DejaVuSans-6d" transform="translate(843.367188 0)"/>
      <use xlink:href="#DejaVuSans-61" transform="translate(940.779297 0)"/>
      <use xlink:href="#DejaVuSans-6c" transform="translate(1002.058594 0)"/>
      <use xlink:href="#DejaVuSans-69" transform="translate(1029.841797 0)"/>
      <use xlink:href="#DejaVuSans-7a" transform="translate(1057.625 0)"/>
      <use xlink:href="#DejaVuSans-65" transform="translate(1110.115234 0)"/>
      <use xlink:href="#DejaVuSans-64" transform="translate(1171.638672 0)"/>
      <use xlink:href="#DejaVuSans-29" transform="translate(1235.115234 0)"/>
     </g>
    </g>
    <g id="line2d_16">
     <path d="M 687.971875 54.656562 
L 697.971875 54.656562 
L 707.971875 54.656562 
" style="fill: none; stroke: #008000; stroke-width: 1.5; stroke-linecap: square"/>
    </g>
    <g id="text_18">
     <!-- MS Intensity (normalized) -->
     <g transform="translate(715.971875 58.156562) scale(0.1 -0.1)">
      <use xlink:href="#DejaVuSans-4d"/>
      <use xlink:href="#DejaVuSans-53" transform="translate(86.279297 0)"/>
      <use xlink:href="#DejaVuSans-20" transform="translate(149.755859 0)"/>
      <use xlink:href="#DejaVuSans-49" transform="translate(181.542969 0)"/>
      <use xlink:href="#DejaVuSans-6e" transform="translate(211.035156 0)"/>
      <use xlink:href="#DejaVuSans-74" transform="translate(274.414062 0)"/>
      <use xlink:href="#DejaVuSans-65" transform="translate(313.623047 0)"/>
      <use xlink:href="#DejaVuSans-6e" transform="translate(375.146484 0)"/>
      <use xlink:href="#DejaVuSans-73" transform="translate(438.525391 0)"/>
      <use xlink:href="#DejaVuSans-69" transform="translate(490.625 0)"/>
      <use xlink:href="#DejaVuSans-74" transform="translate(518.408203 0)"/>
      <use xlink:href="#DejaVuSans-79" transform="translate(557.617188 0)"/>
      <use xlink:href="#DejaVuSans-20" transform="translate(616.796875 0)"/>
      <use xlink:href="#DejaVuSans-28" transform="translate(648.583984 0)"/>
      <use xlink:href="#DejaVuSans-6e" transform="translate(687.597656 0)"/>
      <use xlink:href="#DejaVuSans-6f" transform="translate(750.976562 0)"/>
      <use xlink:href="#DejaVuSans-72" transform="translate(812.158203 0)"/>
      <use xlink:href="#DejaVuSans-6d" transform="translate(851.521484 0)"/>
      <use xlink:href="#DejaVuSans-61" transform="translate(948.933594 0)"/>
      <use xlink:href="#DejaVuSans-6c" transform="translate(1010.212891 0)"/>
      <use xlink:href="#DejaVuSans-69" transform="translate(1037.996094 0)"/>
      <use xlink:href="#DejaVuSans-7a" transform="translate(1065.779297 0)"/>
      <use xlink:href="#DejaVuSans-65" transform="translate(1118.269531 0)"/>
      <use xlink:href="#DejaVuSans-64" transform="translate(1179.792969 0)"/>
      <use xlink:href="#DejaVuSans-29" transform="translate(1243.269531 0)"/>
     </g>
    </g>
   </g>
  </g>
 </g>
 <defs>
  <clipPath id="pabcebecdd7">
   <rect x="47.72" y="26.88" width="805.48" height="507.16"/>
  </clipPath>
 </defs>
</svg>
