<?xml version="1.0" encoding="utf-8" standalone="no"?>
<!DOCTYPE svg PUBLIC "-//W3C//DTD SVG 1.1//EN"
  "http://www.w3.org/Graphics/SVG/1.1/DTD/svg11.dtd">
<svg xmlns:xlink="http://www.w3.org/1999/xlink" width="864pt" height="576pt" viewBox="0 0 864 576" xmlns="http://www.w3.org/2000/svg" version="1.1">
 <metadata>
  <rdf:RDF xmlns:dc="http://purl.org/dc/elements/1.1/" xmlns:cc="http://creativecommons.org/ns#" xmlns:rdf="http://www.w3.org/1999/02/22-rdf-syntax-ns#">
   <cc:Work>
    <dc:type rdf:resource="http://purl.org/dc/dcmitype/StillImage"/>
    <dc:date>2025-02-25T11:11:14.139656</dc:date>
    <dc:format>image/svg+xml</dc:format>
    <dc:creator>
     <cc:Agent>
      <dc:title>Matplotlib v3.10.0, https://matplotlib.org/</dc:title>
     </cc:Agent>
    </dc:creator>
   </cc:Work>
  </rdf:RDF>
 </metadata>
 <defs>
  <style type="text/css">*{stroke-linejoin: round; stroke-linecap: butt}</style>
 </defs>
 <g id="figure_1">
  <g id="patch_1">
   <path d="M 0 576 
L 864 576 
L 864 0 
L 0 0 
z
" style="fill: #ffffff"/>
  </g>
  <g id="axes_1">
   <g id="patch_2">
    <path d="M 47.72 534.04 
L 853.2 534.04 
L 853.2 26.88 
L 47.72 26.88 
z
" style="fill: #ffffff"/>
   </g>
   <g id="matplotlib.axis_1">
    <g id="xtick_1">
     <g id="line2d_1">
      <defs>
       <path id="me47c8ce62c" d="M 0 0 
L 0 3.5 
" style="stroke: #000000; stroke-width: 0.8"/>
      </defs>
      <g>
       <use xlink:href="#me47c8ce62c" x="83.093151" y="534.04" style="stroke: #000000; stroke-width: 0.8"/>
      </g>
     </g>
     <g id="text_1">
      <!-- 0 -->
      <g transform="translate(79.911901 548.638438) scale(0.1 -0.1)">
       <defs>
        <path id="DejaVuSans-30" d="M 2034 4250 
Q 1547 4250 1301 3770 
Q 1056 3291 1056 2328 
Q 1056 1369 1301 889 
Q 1547 409 2034 409 
Q 2525 409 2770 889 
Q 3016 1369 3016 2328 
Q 3016 3291 2770 3770 
Q 2525 4250 2034 4250 
z
M 2034 4750 
Q 2819 4750 3233 4129 
Q 3647 3509 3647 2328 
Q 3647 1150 3233 529 
Q 2819 -91 2034 -91 
Q 1250 -91 836 529 
Q 422 1150 422 2328 
Q 422 3509 836 4129 
Q 1250 4750 2034 4750 
z
" transform="scale(0.015625)"/>
       </defs>
       <use xlink:href="#DejaVuSans-30"/>
      </g>
     </g>
    </g>
    <g id="xtick_2">
     <g id="line2d_2">
      <g>
       <use xlink:href="#me47c8ce62c" x="229.788553" y="534.04" style="stroke: #000000; stroke-width: 0.8"/>
      </g>
     </g>
     <g id="text_2">
      <!-- 1 -->
      <g transform="translate(226.607303 548.638438) scale(0.1 -0.1)">
       <defs>
        <path id="DejaVuSans-31" d="M 794 531 
L 1825 531 
L 1825 4091 
L 703 3866 
L 703 4441 
L 1819 4666 
L 2450 4666 
L 2450 531 
L 3481 531 
L 3481 0 
L 794 0 
L 794 531 
z
" transform="scale(0.015625)"/>
       </defs>
       <use xlink:href="#DejaVuSans-31"/>
      </g>
     </g>
    </g>
    <g id="xtick_3">
     <g id="line2d_3">
      <g>
       <use xlink:href="#me47c8ce62c" x="376.483954" y="534.04" style="stroke: #000000; stroke-width: 0.8"/>
      </g>
     </g>
     <g id="text_3">
      <!-- 2 -->
      <g transform="translate(373.302704 548.638438) scale(0.1 -0.1)">
       <defs>
        <path id="DejaVuSans-32" d="M 1228 531 
L 3431 531 
L 3431 0 
L 469 0 
L 469 531 
Q 828 903 1448 1529 
Q 2069 2156 2228 2338 
Q 2531 2678 2651 2914 
Q 2772 3150 2772 3378 
Q 2772 3750 2511 3984 
Q 2250 4219 1831 4219 
Q 1534 4219 1204 4116 
Q 875 4013 500 3803 
L 500 4441 
Q 881 4594 1212 4672 
Q 1544 4750 1819 4750 
Q 2544 4750 2975 4387 
Q 3406 4025 3406 3419 
Q 3406 3131 3298 2873 
Q 3191 2616 2906 2266 
Q 2828 2175 2409 1742 
Q 1991 1309 1228 531 
z
" transform="scale(0.015625)"/>
       </defs>
       <use xlink:href="#DejaVuSans-32"/>
      </g>
     </g>
    </g>
    <g id="xtick_4">
     <g id="line2d_4">
      <g>
       <use xlink:href="#me47c8ce62c" x="523.179355" y="534.04" style="stroke: #000000; stroke-width: 0.8"/>
      </g>
     </g>
     <g id="text_4">
      <!-- 3 -->
      <g transform="translate(519.998105 548.638438) scale(0.1 -0.1)">
       <defs>
        <path id="DejaVuSans-33" d="M 2597 2516 
Q 3050 2419 3304 2112 
Q 3559 1806 3559 1356 
Q 3559 666 3084 287 
Q 2609 -91 1734 -91 
Q 1441 -91 1130 -33 
Q 819 25 488 141 
L 488 750 
Q 750 597 1062 519 
Q 1375 441 1716 441 
Q 2309 441 2620 675 
Q 2931 909 2931 1356 
Q 2931 1769 2642 2001 
Q 2353 2234 1838 2234 
L 1294 2234 
L 1294 2753 
L 1863 2753 
Q 2328 2753 2575 2939 
Q 2822 3125 2822 3475 
Q 2822 3834 2567 4026 
Q 2313 4219 1838 4219 
Q 1578 4219 1281 4162 
Q 984 4106 628 3988 
L 628 4550 
Q 988 4650 1302 4700 
Q 1616 4750 1894 4750 
Q 2613 4750 3031 4423 
Q 3450 4097 3450 3541 
Q 3450 3153 3228 2886 
Q 3006 2619 2597 2516 
z
" transform="scale(0.015625)"/>
       </defs>
       <use xlink:href="#DejaVuSans-33"/>
      </g>
     </g>
    </g>
    <g id="xtick_5">
     <g id="line2d_5">
      <g>
       <use xlink:href="#me47c8ce62c" x="669.874757" y="534.04" style="stroke: #000000; stroke-width: 0.8"/>
      </g>
     </g>
     <g id="text_5">
      <!-- 4 -->
      <g transform="translate(666.693507 548.638438) scale(0.1 -0.1)">
       <defs>
        <path id="DejaVuSans-34" d="M 2419 4116 
L 825 1625 
L 2419 1625 
L 2419 4116 
z
M 2253 4666 
L 3047 4666 
L 3047 1625 
L 3713 1625 
L 3713 1100 
L 3047 1100 
L 3047 0 
L 2419 0 
L 2419 1100 
L 313 1100 
L 313 1709 
L 2253 4666 
z
" transform="scale(0.015625)"/>
       </defs>
       <use xlink:href="#DejaVuSans-34"/>
      </g>
     </g>
    </g>
    <g id="xtick_6">
     <g id="line2d_6">
      <g>
       <use xlink:href="#me47c8ce62c" x="816.570158" y="534.04" style="stroke: #000000; stroke-width: 0.8"/>
      </g>
     </g>
     <g id="text_6">
      <!-- 5 -->
      <g transform="translate(813.388908 548.638438) scale(0.1 -0.1)">
       <defs>
        <path id="DejaVuSans-35" d="M 691 4666 
L 3169 4666 
L 3169 4134 
L 1269 4134 
L 1269 2991 
Q 1406 3038 1543 3061 
Q 1681 3084 1819 3084 
Q 2600 3084 3056 2656 
Q 3513 2228 3513 1497 
Q 3513 744 3044 326 
Q 2575 -91 1722 -91 
Q 1428 -91 1123 -41 
Q 819 9 494 109 
L 494 744 
Q 775 591 1075 516 
Q 1375 441 1709 441 
Q 2250 441 2565 725 
Q 2881 1009 2881 1497 
Q 2881 1984 2565 2268 
Q 2250 2553 1709 2553 
Q 1456 2553 1204 2497 
Q 953 2441 691 2322 
L 691 4666 
z
" transform="scale(0.015625)"/>
       </defs>
       <use xlink:href="#DejaVuSans-35"/>
      </g>
     </g>
    </g>
    <g id="text_7">
     <!-- Retention Time (min) -->
     <g transform="translate(397.61 562.316562) scale(0.1 -0.1)">
      <defs>
       <path id="DejaVuSans-52" d="M 2841 2188 
Q 3044 2119 3236 1894 
Q 3428 1669 3622 1275 
L 4263 0 
L 3584 0 
L 2988 1197 
Q 2756 1666 2539 1819 
Q 2322 1972 1947 1972 
L 1259 1972 
L 1259 0 
L 628 0 
L 628 4666 
L 2053 4666 
Q 2853 4666 3247 4331 
Q 3641 3997 3641 3322 
Q 3641 2881 3436 2590 
Q 3231 2300 2841 2188 
z
M 1259 4147 
L 1259 2491 
L 2053 2491 
Q 2509 2491 2742 2702 
Q 2975 2913 2975 3322 
Q 2975 3731 2742 3939 
Q 2509 4147 2053 4147 
L 1259 4147 
z
" transform="scale(0.015625)"/>
       <path id="DejaVuSans-65" d="M 3597 1894 
L 3597 1613 
L 953 1613 
Q 991 1019 1311 708 
Q 1631 397 2203 397 
Q 2534 397 2845 478 
Q 3156 559 3463 722 
L 3463 178 
Q 3153 47 2828 -22 
Q 2503 -91 2169 -91 
Q 1331 -91 842 396 
Q 353 884 353 1716 
Q 353 2575 817 3079 
Q 1281 3584 2069 3584 
Q 2775 3584 3186 3129 
Q 3597 2675 3597 1894 
z
M 3022 2063 
Q 3016 2534 2758 2815 
Q 2500 3097 2075 3097 
Q 1594 3097 1305 2825 
Q 1016 2553 972 2059 
L 3022 2063 
z
" transform="scale(0.015625)"/>
       <path id="DejaVuSans-74" d="M 1172 4494 
L 1172 3500 
L 2356 3500 
L 2356 3053 
L 1172 3053 
L 1172 1153 
Q 1172 725 1289 603 
Q 1406 481 1766 481 
L 2356 481 
L 2356 0 
L 1766 0 
Q 1100 0 847 248 
Q 594 497 594 1153 
L 594 3053 
L 172 3053 
L 172 3500 
L 594 3500 
L 594 4494 
L 1172 4494 
z
" transform="scale(0.015625)"/>
       <path id="DejaVuSans-6e" d="M 3513 2113 
L 3513 0 
L 2938 0 
L 2938 2094 
Q 2938 2591 2744 2837 
Q 2550 3084 2163 3084 
Q 1697 3084 1428 2787 
Q 1159 2491 1159 1978 
L 1159 0 
L 581 0 
L 581 3500 
L 1159 3500 
L 1159 2956 
Q 1366 3272 1645 3428 
Q 1925 3584 2291 3584 
Q 2894 3584 3203 3211 
Q 3513 2838 3513 2113 
z
" transform="scale(0.015625)"/>
       <path id="DejaVuSans-69" d="M 603 3500 
L 1178 3500 
L 1178 0 
L 603 0 
L 603 3500 
z
M 603 4863 
L 1178 4863 
L 1178 4134 
L 603 4134 
L 603 4863 
z
" transform="scale(0.015625)"/>
       <path id="DejaVuSans-6f" d="M 1959 3097 
Q 1497 3097 1228 2736 
Q 959 2375 959 1747 
Q 959 1119 1226 758 
Q 1494 397 1959 397 
Q 2419 397 2687 759 
Q 2956 1122 2956 1747 
Q 2956 2369 2687 2733 
Q 2419 3097 1959 3097 
z
M 1959 3584 
Q 2709 3584 3137 3096 
Q 3566 2609 3566 1747 
Q 3566 888 3137 398 
Q 2709 -91 1959 -91 
Q 1206 -91 779 398 
Q 353 888 353 1747 
Q 353 2609 779 3096 
Q 1206 3584 1959 3584 
z
" transform="scale(0.015625)"/>
       <path id="DejaVuSans-20" transform="scale(0.015625)"/>
       <path id="DejaVuSans-54" d="M -19 4666 
L 3928 4666 
L 3928 4134 
L 2272 4134 
L 2272 0 
L 1638 0 
L 1638 4134 
L -19 4134 
L -19 4666 
z
" transform="scale(0.015625)"/>
       <path id="DejaVuSans-6d" d="M 3328 2828 
Q 3544 3216 3844 3400 
Q 4144 3584 4550 3584 
Q 5097 3584 5394 3201 
Q 5691 2819 5691 2113 
L 5691 0 
L 5113 0 
L 5113 2094 
Q 5113 2597 4934 2840 
Q 4756 3084 4391 3084 
Q 3944 3084 3684 2787 
Q 3425 2491 3425 1978 
L 3425 0 
L 2847 0 
L 2847 2094 
Q 2847 2600 2669 2842 
Q 2491 3084 2119 3084 
Q 1678 3084 1418 2786 
Q 1159 2488 1159 1978 
L 1159 0 
L 581 0 
L 581 3500 
L 1159 3500 
L 1159 2956 
Q 1356 3278 1631 3431 
Q 1906 3584 2284 3584 
Q 2666 3584 2933 3390 
Q 3200 3197 3328 2828 
z
" transform="scale(0.015625)"/>
       <path id="DejaVuSans-28" d="M 1984 4856 
Q 1566 4138 1362 3434 
Q 1159 2731 1159 2009 
Q 1159 1288 1364 580 
Q 1569 -128 1984 -844 
L 1484 -844 
Q 1016 -109 783 600 
Q 550 1309 550 2009 
Q 550 2706 781 3412 
Q 1013 4119 1484 4856 
L 1984 4856 
z
" transform="scale(0.015625)"/>
       <path id="DejaVuSans-29" d="M 513 4856 
L 1013 4856 
Q 1481 4119 1714 3412 
Q 1947 2706 1947 2009 
Q 1947 1309 1714 600 
Q 1481 -109 1013 -844 
L 513 -844 
Q 928 -128 1133 580 
Q 1338 1288 1338 2009 
Q 1338 2731 1133 3434 
Q 928 4138 513 4856 
z
" transform="scale(0.015625)"/>
      </defs>
      <use xlink:href="#DejaVuSans-52"/>
      <use xlink:href="#DejaVuSans-65" transform="translate(64.982422 0)"/>
      <use xlink:href="#DejaVuSans-74" transform="translate(126.505859 0)"/>
      <use xlink:href="#DejaVuSans-65" transform="translate(165.714844 0)"/>
      <use xlink:href="#DejaVuSans-6e" transform="translate(227.238281 0)"/>
      <use xlink:href="#DejaVuSans-74" transform="translate(290.617188 0)"/>
      <use xlink:href="#DejaVuSans-69" transform="translate(329.826172 0)"/>
      <use xlink:href="#DejaVuSans-6f" transform="translate(357.609375 0)"/>
      <use xlink:href="#DejaVuSans-6e" transform="translate(418.791016 0)"/>
      <use xlink:href="#DejaVuSans-20" transform="translate(482.169922 0)"/>
      <use xlink:href="#DejaVuSans-54" transform="translate(513.957031 0)"/>
      <use xlink:href="#DejaVuSans-69" transform="translate(571.916016 0)"/>
      <use xlink:href="#DejaVuSans-6d" transform="translate(599.699219 0)"/>
      <use xlink:href="#DejaVuSans-65" transform="translate(697.111328 0)"/>
      <use xlink:href="#DejaVuSans-20" transform="translate(758.634766 0)"/>
      <use xlink:href="#DejaVuSans-28" transform="translate(790.421875 0)"/>
      <use xlink:href="#DejaVuSans-6d" transform="translate(829.435547 0)"/>
      <use xlink:href="#DejaVuSans-69" transform="translate(926.847656 0)"/>
      <use xlink:href="#DejaVuSans-6e" transform="translate(954.630859 0)"/>
      <use xlink:href="#DejaVuSans-29" transform="translate(1018.009766 0)"/>
     </g>
    </g>
   </g>
   <g id="matplotlib.axis_2">
    <g id="ytick_1">
     <g id="line2d_7">
      <defs>
       <path id="mdb5715d361" d="M 0 0 
L -3.5 0 
" style="stroke: #000000; stroke-width: 0.8"/>
      </defs>
      <g>
       <use xlink:href="#mdb5715d361" x="47.72" y="510.83705" style="stroke: #000000; stroke-width: 0.8"/>
      </g>
     </g>
     <g id="text_8">
      <!-- 0.0 -->
      <g style="fill: #0000ff" transform="translate(24.816875 514.636269) scale(0.1 -0.1)">
       <defs>
        <path id="DejaVuSans-2e" d="M 684 794 
L 1344 794 
L 1344 0 
L 684 0 
L 684 794 
z
" transform="scale(0.015625)"/>
       </defs>
       <use xlink:href="#DejaVuSans-30"/>
       <use xlink:href="#DejaVuSans-2e" transform="translate(63.623047 0)"/>
       <use xlink:href="#DejaVuSans-30" transform="translate(95.410156 0)"/>
      </g>
     </g>
    </g>
    <g id="ytick_2">
     <g id="line2d_8">
      <g>
       <use xlink:href="#mdb5715d361" x="47.72" y="418.656186" style="stroke: #000000; stroke-width: 0.8"/>
      </g>
     </g>
     <g id="text_9">
      <!-- 0.5 -->
      <g style="fill: #0000ff" transform="translate(24.816875 422.455405) scale(0.1 -0.1)">
       <use xlink:href="#DejaVuSans-30"/>
       <use xlink:href="#DejaVuSans-2e" transform="translate(63.623047 0)"/>
       <use xlink:href="#DejaVuSans-35" transform="translate(95.410156 0)"/>
      </g>
     </g>
    </g>
    <g id="ytick_3">
     <g id="line2d_9">
      <g>
       <use xlink:href="#mdb5715d361" x="47.72" y="326.475321" style="stroke: #000000; stroke-width: 0.8"/>
      </g>
     </g>
     <g id="text_10">
      <!-- 1.0 -->
      <g style="fill: #0000ff" transform="translate(24.816875 330.27454) scale(0.1 -0.1)">
       <use xlink:href="#DejaVuSans-31"/>
       <use xlink:href="#DejaVuSans-2e" transform="translate(63.623047 0)"/>
       <use xlink:href="#DejaVuSans-30" transform="translate(95.410156 0)"/>
      </g>
     </g>
    </g>
    <g id="ytick_4">
     <g id="line2d_10">
      <g>
       <use xlink:href="#mdb5715d361" x="47.72" y="234.294457" style="stroke: #000000; stroke-width: 0.8"/>
      </g>
     </g>
     <g id="text_11">
      <!-- 1.5 -->
      <g style="fill: #0000ff" transform="translate(24.816875 238.093675) scale(0.1 -0.1)">
       <use xlink:href="#DejaVuSans-31"/>
       <use xlink:href="#DejaVuSans-2e" transform="translate(63.623047 0)"/>
       <use xlink:href="#DejaVuSans-35" transform="translate(95.410156 0)"/>
      </g>
     </g>
    </g>
    <g id="ytick_5">
     <g id="line2d_11">
      <g>
       <use xlink:href="#mdb5715d361" x="47.72" y="142.113592" style="stroke: #000000; stroke-width: 0.8"/>
      </g>
     </g>
     <g id="text_12">
      <!-- 2.0 -->
      <g style="fill: #0000ff" transform="translate(24.816875 145.912811) scale(0.1 -0.1)">
       <use xlink:href="#DejaVuSans-32"/>
       <use xlink:href="#DejaVuSans-2e" transform="translate(63.623047 0)"/>
       <use xlink:href="#DejaVuSans-30" transform="translate(95.410156 0)"/>
      </g>
     </g>
    </g>
    <g id="ytick_6">
     <g id="line2d_12">
      <g>
       <use xlink:href="#mdb5715d361" x="47.72" y="49.932727" style="stroke: #000000; stroke-width: 0.8"/>
      </g>
     </g>
     <g id="text_13">
      <!-- 2.5 -->
      <g style="fill: #0000ff" transform="translate(24.816875 53.731946) scale(0.1 -0.1)">
       <use xlink:href="#DejaVuSans-32"/>
       <use xlink:href="#DejaVuSans-2e" transform="translate(63.623047 0)"/>
       <use xlink:href="#DejaVuSans-35" transform="translate(95.410156 0)"/>
      </g>
     </g>
    </g>
    <g id="text_14">
     <!-- Normalized Intensity -->
     <g style="fill: #0000ff" transform="translate(18.737187 332.167031) rotate(-90) scale(0.1 -0.1)">
      <defs>
       <path id="DejaVuSans-4e" d="M 628 4666 
L 1478 4666 
L 3547 763 
L 3547 4666 
L 4159 4666 
L 4159 0 
L 3309 0 
L 1241 3903 
L 1241 0 
L 628 0 
L 628 4666 
z
" transform="scale(0.015625)"/>
       <path id="DejaVuSans-72" d="M 2631 2963 
Q 2534 3019 2420 3045 
Q 2306 3072 2169 3072 
Q 1681 3072 1420 2755 
Q 1159 2438 1159 1844 
L 1159 0 
L 581 0 
L 581 3500 
L 1159 3500 
L 1159 2956 
Q 1341 3275 1631 3429 
Q 1922 3584 2338 3584 
Q 2397 3584 2469 3576 
Q 2541 3569 2628 3553 
L 2631 2963 
z
" transform="scale(0.015625)"/>
       <path id="DejaVuSans-61" d="M 2194 1759 
Q 1497 1759 1228 1600 
Q 959 1441 959 1056 
Q 959 750 1161 570 
Q 1363 391 1709 391 
Q 2188 391 2477 730 
Q 2766 1069 2766 1631 
L 2766 1759 
L 2194 1759 
z
M 3341 1997 
L 3341 0 
L 2766 0 
L 2766 531 
Q 2569 213 2275 61 
Q 1981 -91 1556 -91 
Q 1019 -91 701 211 
Q 384 513 384 1019 
Q 384 1609 779 1909 
Q 1175 2209 1959 2209 
L 2766 2209 
L 2766 2266 
Q 2766 2663 2505 2880 
Q 2244 3097 1772 3097 
Q 1472 3097 1187 3025 
Q 903 2953 641 2809 
L 641 3341 
Q 956 3463 1253 3523 
Q 1550 3584 1831 3584 
Q 2591 3584 2966 3190 
Q 3341 2797 3341 1997 
z
" transform="scale(0.015625)"/>
       <path id="DejaVuSans-6c" d="M 603 4863 
L 1178 4863 
L 1178 0 
L 603 0 
L 603 4863 
z
" transform="scale(0.015625)"/>
       <path id="DejaVuSans-7a" d="M 353 3500 
L 3084 3500 
L 3084 2975 
L 922 459 
L 3084 459 
L 3084 0 
L 275 0 
L 275 525 
L 2438 3041 
L 353 3041 
L 353 3500 
z
" transform="scale(0.015625)"/>
       <path id="DejaVuSans-64" d="M 2906 2969 
L 2906 4863 
L 3481 4863 
L 3481 0 
L 2906 0 
L 2906 525 
Q 2725 213 2448 61 
Q 2172 -91 1784 -91 
Q 1150 -91 751 415 
Q 353 922 353 1747 
Q 353 2572 751 3078 
Q 1150 3584 1784 3584 
Q 2172 3584 2448 3432 
Q 2725 3281 2906 2969 
z
M 947 1747 
Q 947 1113 1208 752 
Q 1469 391 1925 391 
Q 2381 391 2643 752 
Q 2906 1113 2906 1747 
Q 2906 2381 2643 2742 
Q 2381 3103 1925 3103 
Q 1469 3103 1208 2742 
Q 947 2381 947 1747 
z
" transform="scale(0.015625)"/>
       <path id="DejaVuSans-49" d="M 628 4666 
L 1259 4666 
L 1259 0 
L 628 0 
L 628 4666 
z
" transform="scale(0.015625)"/>
       <path id="DejaVuSans-73" d="M 2834 3397 
L 2834 2853 
Q 2591 2978 2328 3040 
Q 2066 3103 1784 3103 
Q 1356 3103 1142 2972 
Q 928 2841 928 2578 
Q 928 2378 1081 2264 
Q 1234 2150 1697 2047 
L 1894 2003 
Q 2506 1872 2764 1633 
Q 3022 1394 3022 966 
Q 3022 478 2636 193 
Q 2250 -91 1575 -91 
Q 1294 -91 989 -36 
Q 684 19 347 128 
L 347 722 
Q 666 556 975 473 
Q 1284 391 1588 391 
Q 1994 391 2212 530 
Q 2431 669 2431 922 
Q 2431 1156 2273 1281 
Q 2116 1406 1581 1522 
L 1381 1569 
Q 847 1681 609 1914 
Q 372 2147 372 2553 
Q 372 3047 722 3315 
Q 1072 3584 1716 3584 
Q 2034 3584 2315 3537 
Q 2597 3491 2834 3397 
z
" transform="scale(0.015625)"/>
       <path id="DejaVuSans-79" d="M 2059 -325 
Q 1816 -950 1584 -1140 
Q 1353 -1331 966 -1331 
L 506 -1331 
L 506 -850 
L 844 -850 
Q 1081 -850 1212 -737 
Q 1344 -625 1503 -206 
L 1606 56 
L 191 3500 
L 800 3500 
L 1894 763 
L 2988 3500 
L 3597 3500 
L 2059 -325 
z
" transform="scale(0.015625)"/>
      </defs>
      <use xlink:href="#DejaVuSans-4e"/>
      <use xlink:href="#DejaVuSans-6f" transform="translate(74.804688 0)"/>
      <use xlink:href="#DejaVuSans-72" transform="translate(135.986328 0)"/>
      <use xlink:href="#DejaVuSans-6d" transform="translate(175.349609 0)"/>
      <use xlink:href="#DejaVuSans-61" transform="translate(272.761719 0)"/>
      <use xlink:href="#DejaVuSans-6c" transform="translate(334.041016 0)"/>
      <use xlink:href="#DejaVuSans-69" transform="translate(361.824219 0)"/>
      <use xlink:href="#DejaVuSans-7a" transform="translate(389.607422 0)"/>
      <use xlink:href="#DejaVuSans-65" transform="translate(442.097656 0)"/>
      <use xlink:href="#DejaVuSans-64" transform="translate(503.621094 0)"/>
      <use xlink:href="#DejaVuSans-20" transform="translate(567.097656 0)"/>
      <use xlink:href="#DejaVuSans-49" transform="translate(598.884766 0)"/>
      <use xlink:href="#DejaVuSans-6e" transform="translate(628.376953 0)"/>
      <use xlink:href="#DejaVuSans-74" transform="translate(691.755859 0)"/>
      <use xlink:href="#DejaVuSans-65" transform="translate(730.964844 0)"/>
      <use xlink:href="#DejaVuSans-6e" transform="translate(792.488281 0)"/>
      <use xlink:href="#DejaVuSans-73" transform="translate(855.867188 0)"/>
      <use xlink:href="#DejaVuSans-69" transform="translate(907.966797 0)"/>
      <use xlink:href="#DejaVuSans-74" transform="translate(935.75 0)"/>
      <use xlink:href="#DejaVuSans-79" transform="translate(974.958984 0)"/>
     </g>
    </g>
   </g>
   <g id="line2d_13">
    <path d="M 84.332727 510.83705 
L 110.004423 510.943993 
L 125.896424 510.967901 
L 139.343503 510.841682 
L 145.455811 510.75693 
L 162.570275 510.683609 
L 163.792736 510.530189 
L 165.015198 510.199137 
L 166.23766 509.675737 
L 171.127506 507.025265 
L 172.349968 506.778851 
L 173.57243 506.810532 
L 174.794891 507.061292 
L 177.239815 507.92415 
L 180.9072 509.296072 
L 182.129662 509.495903 
L 183.352123 509.312656 
L 184.574585 508.789665 
L 185.797047 508.402399 
L 187.019508 508.678158 
L 189.464432 510.428777 
L 190.686893 510.519768 
L 191.909355 509.75029 
L 193.131817 508.623145 
L 194.354278 507.736716 
L 195.57674 507.389426 
L 196.799202 507.544442 
L 200.466587 508.876966 
L 201.689048 509.008165 
L 202.91151 508.831112 
L 206.578895 507.483016 
L 207.801357 507.337654 
L 212.691204 507.566043 
L 216.358589 506.806728 
L 217.58105 506.742183 
L 220.025974 506.964392 
L 221.248435 507.242425 
L 223.693359 508.107492 
L 226.138282 509.051231 
L 228.583205 509.714972 
L 231.028129 510.074056 
L 234.695514 510.285236 
L 237.140437 510.224963 
L 242.030284 509.842212 
L 250.587516 509.837271 
L 262.812132 508.713525 
L 264.034594 508.124786 
L 265.257056 506.992767 
L 267.701979 503.658242 
L 268.924441 502.410436 
L 270.146902 502.066155 
L 271.369364 502.687081 
L 273.814287 505.324224 
L 275.036749 506.267624 
L 276.259211 506.512944 
L 278.704134 505.87645 
L 279.926596 505.866472 
L 281.149058 506.285047 
L 283.593981 507.604809 
L 284.816443 508.085936 
L 286.038904 508.365244 
L 287.261366 508.490627 
L 288.483828 508.496885 
L 290.928751 508.167269 
L 293.373674 507.750389 
L 295.818598 507.601406 
L 297.041059 507.249659 
L 298.263521 506.058436 
L 299.485983 503.684426 
L 300.708444 500.682747 
L 301.930906 498.367776 
L 303.153368 497.79557 
L 304.375829 498.994043 
L 305.598291 501.010319 
L 306.820753 502.514925 
L 308.043214 502.678351 
L 310.488138 500.909373 
L 311.710599 500.960047 
L 312.933061 502.083217 
L 315.377985 505.520163 
L 316.600446 506.693767 
L 317.822908 506.977189 
L 319.04537 506.252063 
L 321.490293 503.451799 
L 322.712755 502.772981 
L 323.935216 503.032326 
L 325.157678 503.990726 
L 326.38014 505.205817 
L 327.602601 506.256442 
L 328.825063 506.731795 
L 330.047525 506.182913 
L 331.269986 504.43576 
L 332.492448 502.052612 
L 333.71491 500.163438 
L 334.937371 499.644234 
L 336.159833 500.545861 
L 339.827218 505.568957 
L 341.04968 506.537775 
L 342.272141 507.009528 
L 343.494603 507.004394 
L 344.717065 506.560565 
L 347.161988 505.253717 
L 348.38445 505.017761 
L 349.606912 505.207456 
L 353.274297 506.493527 
L 354.496758 506.646115 
L 355.71922 506.62085 
L 358.164143 506.266753 
L 361.831528 505.429943 
L 364.276452 504.830851 
L 365.498913 504.732376 
L 367.943837 504.97131 
L 370.38876 505.147448 
L 372.833683 504.98242 
L 376.501068 504.538243 
L 377.72353 504.143212 
L 378.945992 503.310061 
L 380.168453 501.882799 
L 382.613377 497.957419 
L 383.835839 495.953408 
L 385.0583 493.305428 
L 386.280762 488.597355 
L 387.503224 481.020438 
L 388.725685 471.902048 
L 389.948147 464.307477 
L 391.170609 460.814518 
L 392.39307 461.832451 
L 393.615532 465.907929 
L 396.060455 476.364452 
L 397.282917 480.937012 
L 398.505379 484.684717 
L 399.72784 487.525884 
L 400.950302 489.416093 
L 402.172764 490.164826 
L 403.395225 489.198071 
L 404.617687 485.814765 
L 405.840149 480.126119 
L 407.06261 473.702048 
L 408.285072 468.885141 
L 409.507534 467.250169 
L 410.729995 468.707034 
L 411.952457 471.944659 
L 413.174919 475.51513 
L 414.39738 478.532953 
L 415.619842 480.68356 
L 416.842304 481.903416 
L 418.064766 482.168722 
L 419.287227 481.543134 
L 422.954612 477.796589 
L 424.177074 477.064562 
L 427.844459 475.655343 
L 429.066921 474.870002 
L 430.289382 473.925892 
L 431.511844 472.744342 
L 432.734306 471.136954 
L 433.956767 469.252227 
L 435.179229 467.723493 
L 436.401691 467.148205 
L 437.624152 467.584917 
L 441.291537 470.629394 
L 442.513999 471.152556 
L 443.736461 471.347877 
L 446.181384 471.249128 
L 447.403846 471.058512 
L 448.626307 469.856944 
L 449.848769 465.652595 
L 451.071231 457.094575 
L 452.293693 446.074098 
L 453.516154 437.366373 
L 454.738616 434.920953 
L 455.961078 439.031925 
L 458.406001 455.326116 
L 459.628463 462.007411 
L 460.850924 466.396217 
L 462.073386 468.845641 
L 463.295848 469.311009 
L 464.518309 464.719436 
L 465.740771 447.895402 
L 466.963233 414.073688 
L 468.185694 370.797125 
L 469.408156 336.501476 
L 470.630618 326.475321 
L 471.853079 342.209742 
L 475.520464 435.558512 
L 476.742926 454.34613 
L 477.965388 464.9931 
L 479.187849 470.198963 
L 480.410311 472.5635 
L 481.632773 473.827543 
L 486.52262 477.849971 
L 487.745081 478.310848 
L 488.967543 478.5474 
L 490.190005 478.995444 
L 491.412466 479.938992 
L 492.634928 481.313922 
L 496.302313 486.008377 
L 498.747236 488.722137 
L 499.969698 489.861682 
L 501.19216 490.82462 
L 503.637083 492.313626 
L 507.304468 494.108367 
L 512.194315 496.296214 
L 515.8617 497.759656 
L 518.306623 498.579363 
L 523.19647 499.927331 
L 525.641393 500.424574 
L 529.308778 500.798271 
L 530.53124 501.072464 
L 532.976163 501.954829 
L 535.421087 502.878347 
L 537.86601 503.511143 
L 552.53555 505.854219 
L 559.87032 506.662482 
L 568.427552 507.551052 
L 578.207245 508.178829 
L 589.209401 508.717676 
L 625.883251 509.792226 
L 635.662944 509.83214 
L 640.552791 509.853959 
L 645.442638 509.906334 
L 650.332484 509.870608 
L 660.112178 510.32311 
L 701.675875 510.684923 
L 754.241727 510.928782 
L 771.356191 510.840615 
L 777.468499 510.8154 
L 793.360501 510.953073 
L 816.587273 510.97549 
L 816.587273 510.97549 
" clip-path="url(#pd58c9c28eb)" style="fill: none; stroke: #0000ff; stroke-width: 1.5; stroke-linecap: square"/>
   </g>
   <g id="line2d_14">
    <path d="M 189.395974 234.281914 
L 299.922402 234.169532 
L 302.441406 233.981003 
L 302.441406 233.816566 
L 302.79592 233.894613 
L 302.79592 233.732068 
L 303.1497 233.817 
L 303.1497 233.67428 
L 303.502747 233.821757 
L 303.502747 233.614739 
L 303.854327 233.771679 
L 303.854327 233.605222 
L 304.206152 233.740472 
L 304.206152 233.594955 
L 304.557976 233.815053 
L 304.557976 233.665104 
L 304.910045 233.833155 
L 304.910045 233.644247 
L 305.262114 233.78884 
L 305.262114 233.619658 
L 305.614672 233.767972 
L 305.614672 233.605591 
L 305.96723 233.801939 
L 305.96723 233.619457 
L 306.326145 233.790518 
L 306.326145 233.641536 
L 306.68017 233.819205 
L 306.68017 233.679871 
L 307.034195 233.865742 
L 307.034195 233.720252 
L 307.388708 233.871411 
L 307.388708 233.738929 
L 307.743956 233.891898 
L 307.743956 233.785859 
L 308.099692 233.921529 
L 308.099692 233.798171 
L 308.455429 233.927762 
L 308.455429 233.786643 
L 309.167635 233.965436 
L 309.167635 233.895786 
L 309.526794 234.039487 
L 309.526794 233.967299 
L 310.239489 234.064197 
L 310.239489 233.988434 
L 310.952918 234.05705 
L 310.952918 233.975533 
L 311.66928 234.094423 
L 311.66928 234.033393 
L 319.889357 234.209673 
L 322.059471 234.19938 
L 328.151487 234.270437 
L 357.412574 234.278261 
L 367.196913 234.22105 
L 370.799507 234.218509 
L 370.799507 234.230693 
L 377.304715 234.216256 
L 377.304715 234.229369 
L 380.18459 234.234462 
L 380.18459 234.244215 
L 395.578316 234.234894 
L 395.578316 234.223711 
L 400.410218 234.207545 
L 402.850007 234.225816 
L 403.895212 234.202544 
L 403.895212 234.22743 
L 406.690982 234.235913 
L 406.690982 234.235071 
L 412.219443 234.208148 
L 416.36261 234.242583 
L 416.36261 234.241903 
L 418.098261 234.206853 
L 418.098261 234.228706 
L 429.879124 234.148954 
L 430.575927 234.185368 
L 430.575927 234.169661 
L 432.648733 234.209417 
L 445.424925 234.138188 
L 445.424925 234.106404 
L 446.804106 233.816457 
L 448.182309 233.679873 
L 448.182309 233.760997 
L 449.221646 233.534901 
L 449.221646 233.715581 
L 450.60425 233.829863 
L 450.60425 233.918933 
L 451.638453 233.801286 
L 451.638453 233.889543 
L 453.016656 233.893382 
L 453.016656 233.820057 
L 453.710281 233.760982 
L 453.710281 233.603709 
L 454.053793 233.671117 
L 454.053793 233.516622 
L 454.39706 233.61674 
L 454.39706 233.438526 
L 454.740083 233.509367 
L 454.740083 233.372597 
L 455.080905 233.460806 
L 455.080905 233.276165 
L 455.420016 233.435756 
L 455.420016 233.279035 
L 456.09457 233.415844 
L 456.09457 233.261651 
L 456.435637 233.418992 
L 456.435637 233.265764 
L 456.774015 233.359065 
L 456.774015 233.218382 
L 457.110925 233.344686 
L 457.110925 233.177734 
L 457.448569 233.312325 
L 457.448569 233.23226 
L 458.131192 233.265087 
L 458.131192 233.355002 
L 459.852662 233.66815 
L 460.53993 233.779809 
L 461.229643 233.794075 
L 461.5778 233.732832 
L 462.265801 233.878482 
L 462.265801 233.809595 
L 462.609802 233.914943 
L 462.609802 233.786653 
L 462.953803 233.888169 
L 462.953803 233.711359 
L 463.297804 233.809974 
L 463.297804 233.658562 
L 463.642049 233.763467 
L 463.642049 233.579803 
L 463.991428 233.693528 
L 463.991428 233.511548 
L 464.335918 233.594272 
L 464.335918 233.449865 
L 464.680163 233.63479 
L 464.680163 233.479855 
L 465.368898 233.792306 
L 465.368898 233.632625 
L 465.713388 233.617857 
L 466.402612 233.450228 
L 466.746857 233.469763 
L 467.091591 233.678355 
L 467.091591 233.650446 
L 467.436325 233.746345 
L 467.436325 233.274107 
L 467.78106 233.140612 
L 467.78106 231.759763 
L 468.125549 231.320131 
L 468.125549 228.226137 
L 468.469305 227.411226 
L 468.469305 221.281918 
L 468.813062 219.571321 
L 468.813062 208.396875 
L 469.161463 207.742591 
L 469.161463 191.703592 
L 469.501797 191.766389 
L 469.501797 171.943533 
L 469.836018 176.642018 
L 469.836018 147.959045 
L 470.169016 155.495542 
L 470.169016 123.369063 
L 470.500548 133.724562 
L 470.500548 97.04282 
L 470.831346 117.406113 
L 470.831346 82.916115 
L 471.162144 109.669165 
L 471.162144 73.49918 
L 471.495143 102.8101 
L 471.495143 67.423572 
L 471.824229 97.351756 
L 471.824229 56.312967 
L 472.154049 93.629048 
L 472.154049 54.8693 
L 472.483625 88.270865 
L 472.483625 49.932727 
L 472.813445 90.483105 
L 472.813445 51.917519 
L 473.143265 92.741493 
L 473.143265 62.91024 
L 473.473575 104.215688 
L 473.473575 73.672356 
L 473.804128 113.32581 
L 473.804128 85.49374 
L 474.140061 119.318428 
L 474.140061 94.72125 
L 474.471592 129.21226 
L 474.471592 105.264248 
L 474.802146 137.309737 
L 474.802146 114.026134 
L 475.133678 141.901704 
L 475.133678 121.483253 
L 475.465454 147.612642 
L 475.465454 128.813225 
L 475.798208 158.178254 
L 475.798208 138.182762 
L 476.130962 161.98415 
L 476.130962 145.614757 
L 476.463716 166.470703 
L 476.463716 149.099081 
L 476.797448 171.828102 
L 476.797448 157.47934 
L 477.131913 176.738918 
L 477.131913 165.092537 
L 477.466623 182.627818 
L 477.466623 170.292188 
L 477.801578 185.256183 
L 477.801578 176.032735 
L 478.137021 191.54788 
L 478.137021 180.187783 
L 478.473687 195.299944 
L 478.473687 185.456275 
L 478.80962 196.065319 
L 478.80962 185.272372 
L 479.152154 198.017833 
L 479.152154 188.845749 
L 479.491998 201.239894 
L 479.491998 193.910721 
L 479.833065 204.797958 
L 479.833065 196.501501 
L 480.178288 206.317843 
L 480.178288 198.063014 
L 480.519355 207.353335 
L 480.519355 199.836926 
L 480.859199 208.35868 
L 480.859199 201.581039 
L 481.200999 209.178738 
L 481.200999 202.846866 
L 481.543044 210.840976 
L 481.543044 205.185444 
L 481.886556 212.045938 
L 481.886556 206.902232 
L 482.230557 214.053147 
L 482.230557 208.761988 
L 482.573335 215.436524 
L 482.573335 211.172688 
L 482.917336 217.397494 
L 482.917336 212.432092 
L 483.261092 218.459338 
L 483.261092 213.292154 
L 483.605337 218.161949 
L 483.605337 213.631256 
L 483.949338 218.711038 
L 483.949338 213.290351 
L 484.298473 218.354865 
L 484.298473 213.906474 
L 484.642718 218.631542 
L 484.642718 214.67486 
L 484.986963 219.845717 
L 484.986963 216.22531 
L 485.331453 220.853279 
L 485.331453 217.456786 
L 485.676187 221.430598 
L 485.676187 218.117758 
L 486.020921 221.979193 
L 486.020921 218.632355 
L 486.369567 222.126439 
L 486.369567 218.799893 
L 486.714302 222.361623 
L 486.714302 219.355378 
L 487.059036 222.975718 
L 487.059036 219.988347 
L 487.404259 223.680685 
L 487.404259 220.502557 
L 487.749482 223.777389 
L 487.749482 220.95621 
L 488.09495 224.309708 
L 488.09495 221.089404 
L 488.439928 224.466741 
L 488.439928 221.755179 
L 488.785396 224.908434 
L 488.785396 222.133901 
L 489.131108 225.417678 
L 489.131108 222.749737 
L 489.482199 225.564774 
L 489.482199 222.888998 
L 489.827911 225.700797 
L 489.827911 223.212253 
L 490.173624 226.034542 
L 490.173624 223.785051 
L 490.519091 226.265269 
L 490.519091 224.220009 
L 490.864559 226.680961 
L 490.864559 224.689759 
L 491.210271 227.167602 
L 491.210271 225.588656 
L 491.555983 227.827711 
L 491.555983 225.906427 
L 491.901451 228.039928 
L 491.901451 226.250925 
L 492.247163 228.04994 
L 492.247163 226.165989 
L 492.592631 228.245308 
L 492.592631 226.751435 
L 492.938587 228.539471 
L 492.938587 226.901161 
L 493.284055 228.740142 
L 493.284055 227.089541 
L 493.630012 228.657729 
L 493.630012 227.186147 
L 493.975968 228.954408 
L 493.975968 227.644341 
L 494.32217 229.328567 
L 494.32217 227.654496 
L 494.674483 229.284294 
L 494.674483 227.930268 
L 495.020929 229.344843 
L 495.020929 228.045277 
L 495.371042 229.765548 
L 495.371042 228.549881 
L 495.717487 229.868406 
L 495.717487 228.592416 
L 496.064422 229.921098 
L 496.064422 228.687632 
L 496.411112 229.940417 
L 496.411112 228.957034 
L 496.757558 230.310169 
L 496.757558 229.335479 
L 497.104492 230.630196 
L 497.104492 229.535335 
L 497.451671 230.625857 
L 497.451671 229.587621 
L 497.798851 230.689597 
L 497.798851 229.732547 
L 498.146519 230.922734 
L 498.146519 229.938931 
L 498.493942 230.936786 
L 498.493942 230.019867 
L 498.841366 230.982088 
L 498.841366 230.082843 
L 499.188789 231.154391 
L 499.188789 230.298834 
L 499.536702 231.232362 
L 499.536702 230.478905 
L 499.890971 231.358789 
L 499.890971 230.547828 
L 500.23864 231.495574 
L 500.23864 230.761029 
L 500.586797 231.569888 
L 500.586797 230.813412 
L 500.934709 231.59305 
L 500.934709 230.908741 
L 501.282866 231.6426 
L 501.282866 231.004968 
L 501.631757 231.775696 
L 501.631757 231.146786 
L 501.980647 231.921217 
L 501.980647 231.230231 
L 502.328805 231.904753 
L 502.328805 231.243631 
L 502.677695 231.745753 
L 502.677695 231.235036 
L 503.026586 231.993605 
L 503.026586 231.443806 
L 503.377188 232.224162 
L 503.377188 231.704124 
L 503.730479 232.191779 
L 503.730479 231.606524 
L 504.07937 232.204151 
L 504.07937 231.667027 
L 504.433639 232.399689 
L 504.433639 231.896119 
L 504.788153 232.479917 
L 504.788153 231.902649 
L 505.137777 232.404717 
L 505.137777 231.902137 
L 505.487401 232.454102 
L 505.487401 231.943796 
L 505.83727 232.506776 
L 505.83727 232.040154 
L 506.187627 232.536669 
L 506.187627 232.099285 
L 506.537251 232.648407 
L 506.537251 232.213258 
L 506.887364 232.69743 
L 506.887364 232.262019 
L 507.237722 232.743537 
L 507.237722 232.292179 
L 507.587835 232.799449 
L 507.587835 232.367306 
L 507.938681 232.811452 
L 507.938681 232.368896 
L 508.289039 232.832143 
L 508.289039 232.44945 
L 508.639641 232.903391 
L 508.639641 232.552418 
L 508.990487 232.978737 
L 508.990487 232.606969 
L 509.341089 232.997178 
L 509.341089 232.63841 
L 509.69707 233.035334 
L 509.69707 232.687779 
L 510.048161 233.075252 
L 510.048161 232.748229 
L 510.399252 233.128264 
L 510.399252 232.797212 
L 510.750343 233.131565 
L 510.750343 232.819768 
L 511.101679 233.162106 
L 511.101679 232.825934 
L 511.453014 233.16484 
L 511.453014 232.829099 
L 511.804349 233.159284 
L 511.804349 232.829005 
L 512.160819 233.200281 
L 512.160819 232.919344 
L 512.512155 233.271467 
L 512.512155 233.004047 
L 512.864224 233.321762 
L 512.864224 233.007642 
L 513.216537 233.274804 
L 513.216537 232.974954 
L 513.569095 233.261109 
L 513.569095 232.990012 
L 513.921164 233.289009 
L 513.921164 233.045413 
L 514.273478 233.396714 
L 514.273478 233.135899 
L 514.631414 233.411808 
L 514.631414 233.152692 
L 514.98275 233.449929 
L 514.98275 233.165975 
L 515.335797 233.445391 
L 515.335797 233.227951 
L 515.688844 233.482303 
L 515.688844 233.218288 
L 516.041891 233.476092 
L 516.041891 233.236129 
L 516.394693 233.474361 
L 516.394693 233.256073 
L 516.747251 233.50839 
L 516.747251 233.287642 
L 517.100542 233.509422 
L 517.100542 233.28389 
L 517.453834 233.533053 
L 517.453834 233.272393 
L 517.807125 233.528381 
L 517.807125 233.307248 
L 518.160661 233.531247 
L 518.160661 233.324295 
L 518.513953 233.577807 
L 518.513953 233.349585 
L 518.867244 233.59138 
L 518.867244 233.390161 
L 519.220291 233.574612 
L 519.220291 233.386535 
L 519.57945 233.613844 
L 519.57945 233.380593 
L 519.932497 233.60207 
L 519.932497 233.441992 
L 520.286033 233.651063 
L 520.286033 233.482027 
L 520.639814 233.700005 
L 520.639814 233.508121 
L 520.993105 233.68615 
L 520.993105 233.488374 
L 521.347619 233.667532 
L 521.347619 233.512105 
L 521.701399 233.691726 
L 521.701399 233.542245 
L 522.055669 233.711305 
L 522.055669 233.522914 
L 522.409694 233.703503 
L 522.409694 233.529598 
L 522.764452 233.685303 
L 522.764452 233.547835 
L 523.11921 233.724686 
L 523.11921 233.549818 
L 523.478614 233.730472 
L 523.478614 233.565418 
L 523.833617 233.728124 
L 523.833617 233.594188 
L 524.188131 233.761871 
L 524.188131 233.617153 
L 524.548512 233.780982 
L 524.548512 233.652286 
L 524.903271 233.798139 
L 524.903271 233.636865 
L 525.258763 233.795513 
L 525.258763 233.678034 
L 525.613521 233.821659 
L 525.613521 233.66562 
L 525.97048 233.838486 
L 525.97048 233.700348 
L 526.326705 233.831128 
L 526.326705 233.703737 
L 526.682197 233.840367 
L 526.682197 233.700248 
L 527.037444 233.842322 
L 527.037444 233.687644 
L 527.39367 233.823143 
L 527.39367 233.691002 
L 527.748428 233.818489 
L 527.748428 233.694633 
L 528.104654 233.851261 
L 528.104654 233.74405 
L 528.460879 233.884364 
L 528.460879 233.762477 
L 528.817104 233.876212 
L 528.817104 233.762271 
L 529.533467 233.874069 
L 529.533467 233.765341 
L 529.889203 233.889001 
L 529.889203 233.768898 
L 530.600676 233.882978 
L 530.600676 233.752049 
L 531.312637 233.90475 
L 531.312637 233.788775 
L 531.668863 233.914792 
L 531.668863 233.811283 
L 532.380824 233.935051 
L 532.380824 233.831357 
L 533.093275 233.919364 
L 533.093275 233.835545 
L 533.811594 233.957236 
L 533.811594 233.863382 
L 534.531135 233.955785 
L 534.531135 233.852788 
L 534.888338 233.940566 
L 534.888338 233.824725 
L 535.603722 233.938876 
L 535.603722 233.831731 
L 536.319107 233.956362 
L 536.319107 233.855729 
L 537.03547 233.972783 
L 537.03547 233.885172 
L 537.752566 233.963247 
L 537.752566 233.901676 
L 538.469662 233.972118 
L 538.469662 233.917189 
L 539.188469 233.980599 
L 539.188469 233.907069 
L 539.9129 234.002738 
L 539.9129 233.930419 
L 540.630974 234.015409 
L 540.630974 233.934541 
L 541.351493 234.013423 
L 541.351493 233.945057 
L 542.071034 234.0244 
L 542.071034 233.963739 
L 542.795464 234.056329 
L 542.795464 233.999283 
L 543.515005 234.053297 
L 543.515005 233.974344 
L 544.235524 234.022066 
L 544.235524 233.960824 
L 544.963134 234.054092 
L 544.963134 233.980913 
L 545.685119 234.043558 
L 545.685119 233.970415 
L 546.410528 234.064431 
L 546.410528 233.981838 
L 551.489367 234.036643 
L 552.214776 234.08769 
L 552.214776 234.023902 
L 553.307901 234.096968 
L 553.307901 234.043559 
L 554.035266 234.097058 
L 554.035266 234.052332 
L 555.128636 234.029276 
L 555.854045 234.113347 
L 555.854045 234.060251 
L 556.942525 234.105224 
L 556.942525 234.052621 
L 557.667689 234.109936 
L 557.667689 234.058424 
L 558.393098 234.111776 
L 558.393098 234.057973 
L 559.481333 234.102463 
L 559.481333 234.05753 
L 560.212121 234.117013 
L 560.212121 234.0651 
L 561.300356 234.097031 
L 561.300356 234.060833 
L 562.388591 234.118277 
L 562.388591 234.062737 
L 563.481228 234.112411 
L 563.481228 234.066048 
L 564.206881 234.119174 
L 564.206881 234.070996 
L 565.300251 234.161404 
L 565.300251 234.104564 
L 566.388241 234.131873 
L 566.388241 234.095022 
L 567.477944 234.124111 
L 567.477944 234.08019 
L 568.566179 234.1261 
L 568.566179 234.088742 
L 570.022131 234.148146 
L 570.022131 234.10375 
L 571.110122 234.141722 
L 571.110122 234.099305 
L 572.198113 234.146462 
L 572.198113 234.098988 
L 573.651864 234.165508 
L 573.651864 234.129596 
L 574.740833 234.172825 
L 574.740833 234.130339 
L 575.834203 234.150096 
L 575.834203 234.111083 
L 577.284531 234.163346 
L 577.284531 234.123048 
L 579.097442 234.172719 
L 579.097442 234.140752 
L 580.190567 234.160477 
L 580.190567 234.121935 
L 581.642118 234.158145 
L 581.642118 234.119675 
L 583.092691 234.182746 
L 583.092691 234.145618 
L 584.547176 234.166827 
L 584.547176 234.128078 
L 585.640057 234.161011 
L 585.640057 234.129731 
L 593.260639 234.154147 
L 594.710967 234.173703 
L 594.710967 234.140637 
L 596.169608 234.171624 
L 596.169608 234.142107 
L 597.620181 234.170214 
L 597.620181 234.145252 
L 599.433092 234.174006 
L 599.433092 234.14207 
L 600.888555 234.187869 
L 600.888555 234.163366 
L 603.428341 234.198598 
L 603.428341 234.159517 
L 604.878425 234.177 
L 604.878425 234.151371 
L 607.425302 234.160301 
L 608.875631 234.187694 
L 608.875631 234.165656 
L 611.782644 234.166927 
L 611.782644 234.167261 
L 613.958137 234.2059 
L 613.958137 234.175828 
L 618.680262 234.190303 
L 620.492928 234.215909 
L 620.492928 234.182206 
L 622.674289 234.203733 
L 622.674289 234.171309 
L 624.490867 234.201322 
L 624.490867 234.175989 
L 626.671983 234.207415 
L 626.671983 234.181685 
L 628.485138 234.199405 
L 628.485138 234.180502 
L 630.298049 234.215345 
L 630.298049 234.192545 
L 631.758646 234.206404 
L 631.758646 234.185369 
L 640.11026 234.203 
L 640.11026 234.173951 
L 642.652491 234.163453 
L 643.740238 234.165485 
L 644.827984 234.135976 
L 646.64774 234.213389 
L 646.64774 234.207289 
L 657.907835 234.181091 
L 675.337938 234.210459 
L 677.156472 234.219814 
L 677.156472 234.204939 
L 678.244218 234.200011 
L 678.244218 234.199641 
L 680.060797 234.203515 
L 708.024607 234.220017 
L 708.024607 234.202331 
L 709.47518 234.23508 
L 709.47518 234.222465 
L 710.928687 234.232869 
L 710.928687 234.214191 
L 749.790744 234.222302 
L 749.790744 234.228937 
L 751.604144 234.227815 
L 754.148087 234.210838 
L 758.147248 234.214923 
L 780.305833 234.22371 
L 782.11801 234.221298 
L 785.749943 234.215573 
L 788.293153 234.235328 
L 790.837584 234.25005 
L 812.750943 234.205932 
L 812.750943 234.205932 
" clip-path="url(#pd58c9c28eb)" style="fill: none; stroke: #008000; stroke-width: 1.5; stroke-linecap: square"/>
   </g>
   <g id="patch_3">
    <path d="M 47.72 534.04 
L 47.72 26.88 
" style="fill: none; stroke: #000000; stroke-width: 0.8; stroke-linejoin: miter; stroke-linecap: square"/>
   </g>
   <g id="patch_4">
    <path d="M 853.2 534.04 
L 853.2 26.88 
" style="fill: none; stroke: #000000; stroke-width: 0.8; stroke-linejoin: miter; stroke-linecap: square"/>
   </g>
   <g id="patch_5">
    <path d="M 47.72 534.04 
L 853.2 534.04 
" style="fill: none; stroke: #000000; stroke-width: 0.8; stroke-linejoin: miter; stroke-linecap: square"/>
   </g>
   <g id="patch_6">
    <path d="M 47.72 26.88 
L 853.2 26.88 
" style="fill: none; stroke: #000000; stroke-width: 0.8; stroke-linejoin: miter; stroke-linecap: square"/>
   </g>
   <g id="patch_7">
    <path d="M 541.186454 360.404837 
Q 515.03516 366.236557 488.883866 372.068277 
L 489.754479 375.972382 
Q 483.246927 374.349873 476.739375 372.727364 
Q 481.941008 368.493716 487.142641 364.260067 
L 488.013254 368.164172 
Q 514.164548 362.332452 540.315842 356.500732 
L 541.186454 360.404837 
z
" style="stroke: #000000; stroke-linecap: round"/>
   </g>
   <g id="text_15">
    <!-- Peak: RT=2.66, Area=1.78e+04 -->
    <g style="fill: #ff0000" transform="translate(546.423242 343.910411) scale(0.1 -0.1)">
     <defs>
      <path id="DejaVuSans-50" d="M 1259 4147 
L 1259 2394 
L 2053 2394 
Q 2494 2394 2734 2622 
Q 2975 2850 2975 3272 
Q 2975 3691 2734 3919 
Q 2494 4147 2053 4147 
L 1259 4147 
z
M 628 4666 
L 2053 4666 
Q 2838 4666 3239 4311 
Q 3641 3956 3641 3272 
Q 3641 2581 3239 2228 
Q 2838 1875 2053 1875 
L 1259 1875 
L 1259 0 
L 628 0 
L 628 4666 
z
" transform="scale(0.015625)"/>
      <path id="DejaVuSans-6b" d="M 581 4863 
L 1159 4863 
L 1159 1991 
L 2875 3500 
L 3609 3500 
L 1753 1863 
L 3688 0 
L 2938 0 
L 1159 1709 
L 1159 0 
L 581 0 
L 581 4863 
z
" transform="scale(0.015625)"/>
      <path id="DejaVuSans-3a" d="M 750 794 
L 1409 794 
L 1409 0 
L 750 0 
L 750 794 
z
M 750 3309 
L 1409 3309 
L 1409 2516 
L 750 2516 
L 750 3309 
z
" transform="scale(0.015625)"/>
      <path id="DejaVuSans-3d" d="M 678 2906 
L 4684 2906 
L 4684 2381 
L 678 2381 
L 678 2906 
z
M 678 1631 
L 4684 1631 
L 4684 1100 
L 678 1100 
L 678 1631 
z
" transform="scale(0.015625)"/>
      <path id="DejaVuSans-36" d="M 2113 2584 
Q 1688 2584 1439 2293 
Q 1191 2003 1191 1497 
Q 1191 994 1439 701 
Q 1688 409 2113 409 
Q 2538 409 2786 701 
Q 3034 994 3034 1497 
Q 3034 2003 2786 2293 
Q 2538 2584 2113 2584 
z
M 3366 4563 
L 3366 3988 
Q 3128 4100 2886 4159 
Q 2644 4219 2406 4219 
Q 1781 4219 1451 3797 
Q 1122 3375 1075 2522 
Q 1259 2794 1537 2939 
Q 1816 3084 2150 3084 
Q 2853 3084 3261 2657 
Q 3669 2231 3669 1497 
Q 3669 778 3244 343 
Q 2819 -91 2113 -91 
Q 1303 -91 875 529 
Q 447 1150 447 2328 
Q 447 3434 972 4092 
Q 1497 4750 2381 4750 
Q 2619 4750 2861 4703 
Q 3103 4656 3366 4563 
z
" transform="scale(0.015625)"/>
      <path id="DejaVuSans-2c" d="M 750 794 
L 1409 794 
L 1409 256 
L 897 -744 
L 494 -744 
L 750 256 
L 750 794 
z
" transform="scale(0.015625)"/>
      <path id="DejaVuSans-41" d="M 2188 4044 
L 1331 1722 
L 3047 1722 
L 2188 4044 
z
M 1831 4666 
L 2547 4666 
L 4325 0 
L 3669 0 
L 3244 1197 
L 1141 1197 
L 716 0 
L 50 0 
L 1831 4666 
z
" transform="scale(0.015625)"/>
      <path id="DejaVuSans-37" d="M 525 4666 
L 3525 4666 
L 3525 4397 
L 1831 0 
L 1172 0 
L 2766 4134 
L 525 4134 
L 525 4666 
z
" transform="scale(0.015625)"/>
      <path id="DejaVuSans-38" d="M 2034 2216 
Q 1584 2216 1326 1975 
Q 1069 1734 1069 1313 
Q 1069 891 1326 650 
Q 1584 409 2034 409 
Q 2484 409 2743 651 
Q 3003 894 3003 1313 
Q 3003 1734 2745 1975 
Q 2488 2216 2034 2216 
z
M 1403 2484 
Q 997 2584 770 2862 
Q 544 3141 544 3541 
Q 544 4100 942 4425 
Q 1341 4750 2034 4750 
Q 2731 4750 3128 4425 
Q 3525 4100 3525 3541 
Q 3525 3141 3298 2862 
Q 3072 2584 2669 2484 
Q 3125 2378 3379 2068 
Q 3634 1759 3634 1313 
Q 3634 634 3220 271 
Q 2806 -91 2034 -91 
Q 1263 -91 848 271 
Q 434 634 434 1313 
Q 434 1759 690 2068 
Q 947 2378 1403 2484 
z
M 1172 3481 
Q 1172 3119 1398 2916 
Q 1625 2713 2034 2713 
Q 2441 2713 2670 2916 
Q 2900 3119 2900 3481 
Q 2900 3844 2670 4047 
Q 2441 4250 2034 4250 
Q 1625 4250 1398 4047 
Q 1172 3844 1172 3481 
z
" transform="scale(0.015625)"/>
      <path id="DejaVuSans-2b" d="M 2944 4013 
L 2944 2272 
L 4684 2272 
L 4684 1741 
L 2944 1741 
L 2944 0 
L 2419 0 
L 2419 1741 
L 678 1741 
L 678 2272 
L 2419 2272 
L 2419 4013 
L 2944 4013 
z
" transform="scale(0.015625)"/>
     </defs>
     <use xlink:href="#DejaVuSans-50"/>
     <use xlink:href="#DejaVuSans-65" transform="translate(56.677734 0)"/>
     <use xlink:href="#DejaVuSans-61" transform="translate(118.201172 0)"/>
     <use xlink:href="#DejaVuSans-6b" transform="translate(179.480469 0)"/>
     <use xlink:href="#DejaVuSans-3a" transform="translate(237.390625 0)"/>
     <use xlink:href="#DejaVuSans-20" transform="translate(271.082031 0)"/>
     <use xlink:href="#DejaVuSans-52" transform="translate(302.869141 0)"/>
     <use xlink:href="#DejaVuSans-54" transform="translate(365.101562 0)"/>
     <use xlink:href="#DejaVuSans-3d" transform="translate(426.185547 0)"/>
     <use xlink:href="#DejaVuSans-32" transform="translate(509.974609 0)"/>
     <use xlink:href="#DejaVuSans-2e" transform="translate(573.597656 0)"/>
     <use xlink:href="#DejaVuSans-36" transform="translate(605.384766 0)"/>
     <use xlink:href="#DejaVuSans-36" transform="translate(669.007812 0)"/>
     <use xlink:href="#DejaVuSans-2c" transform="translate(732.630859 0)"/>
     <use xlink:href="#DejaVuSans-20" transform="translate(764.417969 0)"/>
     <use xlink:href="#DejaVuSans-41" transform="translate(796.205078 0)"/>
     <use xlink:href="#DejaVuSans-72" transform="translate(864.613281 0)"/>
     <use xlink:href="#DejaVuSans-65" transform="translate(903.476562 0)"/>
     <use xlink:href="#DejaVuSans-61" transform="translate(965 0)"/>
     <use xlink:href="#DejaVuSans-3d" transform="translate(1026.279297 0)"/>
     <use xlink:href="#DejaVuSans-31" transform="translate(1110.068359 0)"/>
     <use xlink:href="#DejaVuSans-2e" transform="translate(1173.691406 0)"/>
     <use xlink:href="#DejaVuSans-37" transform="translate(1205.478516 0)"/>
     <use xlink:href="#DejaVuSans-38" transform="translate(1269.101562 0)"/>
     <use xlink:href="#DejaVuSans-65" transform="translate(1332.724609 0)"/>
     <use xlink:href="#DejaVuSans-2b" transform="translate(1394.248047 0)"/>
     <use xlink:href="#DejaVuSans-30" transform="translate(1478.037109 0)"/>
     <use xlink:href="#DejaVuSans-34" transform="translate(1541.660156 0)"/>
    </g>
    <!-- (48.13% of total) -->
    <g style="fill: #ff0000" transform="translate(546.423242 355.108224) scale(0.1 -0.1)">
     <defs>
      <path id="DejaVuSans-25" d="M 4653 2053 
Q 4381 2053 4226 1822 
Q 4072 1591 4072 1178 
Q 4072 772 4226 539 
Q 4381 306 4653 306 
Q 4919 306 5073 539 
Q 5228 772 5228 1178 
Q 5228 1588 5073 1820 
Q 4919 2053 4653 2053 
z
M 4653 2450 
Q 5147 2450 5437 2106 
Q 5728 1763 5728 1178 
Q 5728 594 5436 251 
Q 5144 -91 4653 -91 
Q 4153 -91 3862 251 
Q 3572 594 3572 1178 
Q 3572 1766 3864 2108 
Q 4156 2450 4653 2450 
z
M 1428 4353 
Q 1159 4353 1004 4120 
Q 850 3888 850 3481 
Q 850 3069 1003 2837 
Q 1156 2606 1428 2606 
Q 1700 2606 1854 2837 
Q 2009 3069 2009 3481 
Q 2009 3884 1853 4118 
Q 1697 4353 1428 4353 
z
M 4250 4750 
L 4750 4750 
L 1831 -91 
L 1331 -91 
L 4250 4750 
z
M 1428 4750 
Q 1922 4750 2215 4408 
Q 2509 4066 2509 3481 
Q 2509 2891 2217 2550 
Q 1925 2209 1428 2209 
Q 931 2209 642 2551 
Q 353 2894 353 3481 
Q 353 4063 643 4406 
Q 934 4750 1428 4750 
z
" transform="scale(0.015625)"/>
      <path id="DejaVuSans-66" d="M 2375 4863 
L 2375 4384 
L 1825 4384 
Q 1516 4384 1395 4259 
Q 1275 4134 1275 3809 
L 1275 3500 
L 2222 3500 
L 2222 3053 
L 1275 3053 
L 1275 0 
L 697 0 
L 697 3053 
L 147 3053 
L 147 3500 
L 697 3500 
L 697 3744 
Q 697 4328 969 4595 
Q 1241 4863 1831 4863 
L 2375 4863 
z
" transform="scale(0.015625)"/>
     </defs>
     <use xlink:href="#DejaVuSans-28"/>
     <use xlink:href="#DejaVuSans-34" transform="translate(39.013672 0)"/>
     <use xlink:href="#DejaVuSans-38" transform="translate(102.636719 0)"/>
     <use xlink:href="#DejaVuSans-2e" transform="translate(166.259766 0)"/>
     <use xlink:href="#DejaVuSans-31" transform="translate(198.046875 0)"/>
     <use xlink:href="#DejaVuSans-33" transform="translate(261.669922 0)"/>
     <use xlink:href="#DejaVuSans-25" transform="translate(325.292969 0)"/>
     <use xlink:href="#DejaVuSans-20" transform="translate(420.3125 0)"/>
     <use xlink:href="#DejaVuSans-6f" transform="translate(452.099609 0)"/>
     <use xlink:href="#DejaVuSans-66" transform="translate(513.28125 0)"/>
     <use xlink:href="#DejaVuSans-20" transform="translate(548.486328 0)"/>
     <use xlink:href="#DejaVuSans-74" transform="translate(580.273438 0)"/>
     <use xlink:href="#DejaVuSans-6f" transform="translate(619.482422 0)"/>
     <use xlink:href="#DejaVuSans-74" transform="translate(680.664062 0)"/>
     <use xlink:href="#DejaVuSans-61" transform="translate(719.873047 0)"/>
     <use xlink:href="#DejaVuSans-6c" transform="translate(781.152344 0)"/>
     <use xlink:href="#DejaVuSans-29" transform="translate(808.935547 0)"/>
    </g>
   </g>
   <g id="text_16">
    <!-- UV &amp; MS Chromatograms: IrCp1E17, target m/z=659.141871 -->
    <g transform="translate(266.438125 20.88) scale(0.12 -0.12)">
     <defs>
      <path id="DejaVuSans-55" d="M 556 4666 
L 1191 4666 
L 1191 1831 
Q 1191 1081 1462 751 
Q 1734 422 2344 422 
Q 2950 422 3222 751 
Q 3494 1081 3494 1831 
L 3494 4666 
L 4128 4666 
L 4128 1753 
Q 4128 841 3676 375 
Q 3225 -91 2344 -91 
Q 1459 -91 1007 375 
Q 556 841 556 1753 
L 556 4666 
z
" transform="scale(0.015625)"/>
      <path id="DejaVuSans-56" d="M 1831 0 
L 50 4666 
L 709 4666 
L 2188 738 
L 3669 4666 
L 4325 4666 
L 2547 0 
L 1831 0 
z
" transform="scale(0.015625)"/>
      <path id="DejaVuSans-26" d="M 1556 2509 
Q 1272 2256 1139 2004 
Q 1006 1753 1006 1478 
Q 1006 1022 1337 719 
Q 1669 416 2169 416 
Q 2466 416 2725 514 
Q 2984 613 3213 813 
L 1556 2509 
z
M 1997 2859 
L 3584 1234 
Q 3769 1513 3872 1830 
Q 3975 2147 3994 2503 
L 4575 2503 
Q 4538 2091 4375 1687 
Q 4213 1284 3922 891 
L 4794 0 
L 4006 0 
L 3559 459 
Q 3234 181 2878 45 
Q 2522 -91 2113 -91 
Q 1359 -91 881 339 
Q 403 769 403 1441 
Q 403 1841 612 2192 
Q 822 2544 1241 2853 
Q 1091 3050 1012 3245 
Q 934 3441 934 3628 
Q 934 4134 1281 4442 
Q 1628 4750 2203 4750 
Q 2463 4750 2720 4694 
Q 2978 4638 3244 4525 
L 3244 3956 
Q 2972 4103 2725 4179 
Q 2478 4256 2266 4256 
Q 1938 4256 1733 4082 
Q 1528 3909 1528 3634 
Q 1528 3475 1620 3314 
Q 1713 3153 1997 2859 
z
" transform="scale(0.015625)"/>
      <path id="DejaVuSans-4d" d="M 628 4666 
L 1569 4666 
L 2759 1491 
L 3956 4666 
L 4897 4666 
L 4897 0 
L 4281 0 
L 4281 4097 
L 3078 897 
L 2444 897 
L 1241 4097 
L 1241 0 
L 628 0 
L 628 4666 
z
" transform="scale(0.015625)"/>
      <path id="DejaVuSans-53" d="M 3425 4513 
L 3425 3897 
Q 3066 4069 2747 4153 
Q 2428 4238 2131 4238 
Q 1616 4238 1336 4038 
Q 1056 3838 1056 3469 
Q 1056 3159 1242 3001 
Q 1428 2844 1947 2747 
L 2328 2669 
Q 3034 2534 3370 2195 
Q 3706 1856 3706 1288 
Q 3706 609 3251 259 
Q 2797 -91 1919 -91 
Q 1588 -91 1214 -16 
Q 841 59 441 206 
L 441 856 
Q 825 641 1194 531 
Q 1563 422 1919 422 
Q 2459 422 2753 634 
Q 3047 847 3047 1241 
Q 3047 1584 2836 1778 
Q 2625 1972 2144 2069 
L 1759 2144 
Q 1053 2284 737 2584 
Q 422 2884 422 3419 
Q 422 4038 858 4394 
Q 1294 4750 2059 4750 
Q 2388 4750 2728 4690 
Q 3069 4631 3425 4513 
z
" transform="scale(0.015625)"/>
      <path id="DejaVuSans-43" d="M 4122 4306 
L 4122 3641 
Q 3803 3938 3442 4084 
Q 3081 4231 2675 4231 
Q 1875 4231 1450 3742 
Q 1025 3253 1025 2328 
Q 1025 1406 1450 917 
Q 1875 428 2675 428 
Q 3081 428 3442 575 
Q 3803 722 4122 1019 
L 4122 359 
Q 3791 134 3420 21 
Q 3050 -91 2638 -91 
Q 1578 -91 968 557 
Q 359 1206 359 2328 
Q 359 3453 968 4101 
Q 1578 4750 2638 4750 
Q 3056 4750 3426 4639 
Q 3797 4528 4122 4306 
z
" transform="scale(0.015625)"/>
      <path id="DejaVuSans-68" d="M 3513 2113 
L 3513 0 
L 2938 0 
L 2938 2094 
Q 2938 2591 2744 2837 
Q 2550 3084 2163 3084 
Q 1697 3084 1428 2787 
Q 1159 2491 1159 1978 
L 1159 0 
L 581 0 
L 581 4863 
L 1159 4863 
L 1159 2956 
Q 1366 3272 1645 3428 
Q 1925 3584 2291 3584 
Q 2894 3584 3203 3211 
Q 3513 2838 3513 2113 
z
" transform="scale(0.015625)"/>
      <path id="DejaVuSans-67" d="M 2906 1791 
Q 2906 2416 2648 2759 
Q 2391 3103 1925 3103 
Q 1463 3103 1205 2759 
Q 947 2416 947 1791 
Q 947 1169 1205 825 
Q 1463 481 1925 481 
Q 2391 481 2648 825 
Q 2906 1169 2906 1791 
z
M 3481 434 
Q 3481 -459 3084 -895 
Q 2688 -1331 1869 -1331 
Q 1566 -1331 1297 -1286 
Q 1028 -1241 775 -1147 
L 775 -588 
Q 1028 -725 1275 -790 
Q 1522 -856 1778 -856 
Q 2344 -856 2625 -561 
Q 2906 -266 2906 331 
L 2906 616 
Q 2728 306 2450 153 
Q 2172 0 1784 0 
Q 1141 0 747 490 
Q 353 981 353 1791 
Q 353 2603 747 3093 
Q 1141 3584 1784 3584 
Q 2172 3584 2450 3431 
Q 2728 3278 2906 2969 
L 2906 3500 
L 3481 3500 
L 3481 434 
z
" transform="scale(0.015625)"/>
      <path id="DejaVuSans-70" d="M 1159 525 
L 1159 -1331 
L 581 -1331 
L 581 3500 
L 1159 3500 
L 1159 2969 
Q 1341 3281 1617 3432 
Q 1894 3584 2278 3584 
Q 2916 3584 3314 3078 
Q 3713 2572 3713 1747 
Q 3713 922 3314 415 
Q 2916 -91 2278 -91 
Q 1894 -91 1617 61 
Q 1341 213 1159 525 
z
M 3116 1747 
Q 3116 2381 2855 2742 
Q 2594 3103 2138 3103 
Q 1681 3103 1420 2742 
Q 1159 2381 1159 1747 
Q 1159 1113 1420 752 
Q 1681 391 2138 391 
Q 2594 391 2855 752 
Q 3116 1113 3116 1747 
z
" transform="scale(0.015625)"/>
      <path id="DejaVuSans-45" d="M 628 4666 
L 3578 4666 
L 3578 4134 
L 1259 4134 
L 1259 2753 
L 3481 2753 
L 3481 2222 
L 1259 2222 
L 1259 531 
L 3634 531 
L 3634 0 
L 628 0 
L 628 4666 
z
" transform="scale(0.015625)"/>
      <path id="DejaVuSans-2f" d="M 1625 4666 
L 2156 4666 
L 531 -594 
L 0 -594 
L 1625 4666 
z
" transform="scale(0.015625)"/>
      <path id="DejaVuSans-39" d="M 703 97 
L 703 672 
Q 941 559 1184 500 
Q 1428 441 1663 441 
Q 2288 441 2617 861 
Q 2947 1281 2994 2138 
Q 2813 1869 2534 1725 
Q 2256 1581 1919 1581 
Q 1219 1581 811 2004 
Q 403 2428 403 3163 
Q 403 3881 828 4315 
Q 1253 4750 1959 4750 
Q 2769 4750 3195 4129 
Q 3622 3509 3622 2328 
Q 3622 1225 3098 567 
Q 2575 -91 1691 -91 
Q 1453 -91 1209 -44 
Q 966 3 703 97 
z
M 1959 2075 
Q 2384 2075 2632 2365 
Q 2881 2656 2881 3163 
Q 2881 3666 2632 3958 
Q 2384 4250 1959 4250 
Q 1534 4250 1286 3958 
Q 1038 3666 1038 3163 
Q 1038 2656 1286 2365 
Q 1534 2075 1959 2075 
z
" transform="scale(0.015625)"/>
     </defs>
     <use xlink:href="#DejaVuSans-55"/>
     <use xlink:href="#DejaVuSans-56" transform="translate(73.193359 0)"/>
     <use xlink:href="#DejaVuSans-20" transform="translate(141.601562 0)"/>
     <use xlink:href="#DejaVuSans-26" transform="translate(173.388672 0)"/>
     <use xlink:href="#DejaVuSans-20" transform="translate(251.367188 0)"/>
     <use xlink:href="#DejaVuSans-4d" transform="translate(283.154297 0)"/>
     <use xlink:href="#DejaVuSans-53" transform="translate(369.433594 0)"/>
     <use xlink:href="#DejaVuSans-20" transform="translate(432.910156 0)"/>
     <use xlink:href="#DejaVuSans-43" transform="translate(464.697266 0)"/>
     <use xlink:href="#DejaVuSans-68" transform="translate(534.521484 0)"/>
     <use xlink:href="#DejaVuSans-72" transform="translate(597.900391 0)"/>
     <use xlink:href="#DejaVuSans-6f" transform="translate(636.763672 0)"/>
     <use xlink:href="#DejaVuSans-6d" transform="translate(697.945312 0)"/>
     <use xlink:href="#DejaVuSans-61" transform="translate(795.357422 0)"/>
     <use xlink:href="#DejaVuSans-74" transform="translate(856.636719 0)"/>
     <use xlink:href="#DejaVuSans-6f" transform="translate(895.845703 0)"/>
     <use xlink:href="#DejaVuSans-67" transform="translate(957.027344 0)"/>
     <use xlink:href="#DejaVuSans-72" transform="translate(1020.503906 0)"/>
     <use xlink:href="#DejaVuSans-61" transform="translate(1061.617188 0)"/>
     <use xlink:href="#DejaVuSans-6d" transform="translate(1122.896484 0)"/>
     <use xlink:href="#DejaVuSans-73" transform="translate(1220.308594 0)"/>
     <use xlink:href="#DejaVuSans-3a" transform="translate(1272.408203 0)"/>
     <use xlink:href="#DejaVuSans-20" transform="translate(1306.099609 0)"/>
     <use xlink:href="#DejaVuSans-49" transform="translate(1337.886719 0)"/>
     <use xlink:href="#DejaVuSans-72" transform="translate(1367.378906 0)"/>
     <use xlink:href="#DejaVuSans-43" transform="translate(1408.492188 0)"/>
     <use xlink:href="#DejaVuSans-70" transform="translate(1478.316406 0)"/>
     <use xlink:href="#DejaVuSans-31" transform="translate(1541.792969 0)"/>
     <use xlink:href="#DejaVuSans-45" transform="translate(1605.416016 0)"/>
     <use xlink:href="#DejaVuSans-31" transform="translate(1668.599609 0)"/>
     <use xlink:href="#DejaVuSans-37" transform="translate(1732.222656 0)"/>
     <use xlink:href="#DejaVuSans-2c" transform="translate(1795.845703 0)"/>
     <use xlink:href="#DejaVuSans-20" transform="translate(1827.632812 0)"/>
     <use xlink:href="#DejaVuSans-74" transform="translate(1859.419922 0)"/>
     <use xlink:href="#DejaVuSans-61" transform="translate(1898.628906 0)"/>
     <use xlink:href="#DejaVuSans-72" transform="translate(1959.908203 0)"/>
     <use xlink:href="#DejaVuSans-67" transform="translate(1999.271484 0)"/>
     <use xlink:href="#DejaVuSans-65" transform="translate(2062.748047 0)"/>
     <use xlink:href="#DejaVuSans-74" transform="translate(2124.271484 0)"/>
     <use xlink:href="#DejaVuSans-20" transform="translate(2163.480469 0)"/>
     <use xlink:href="#DejaVuSans-6d" transform="translate(2195.267578 0)"/>
     <use xlink:href="#DejaVuSans-2f" transform="translate(2292.679688 0)"/>
     <use xlink:href="#DejaVuSans-7a" transform="translate(2326.371094 0)"/>
     <use xlink:href="#DejaVuSans-3d" transform="translate(2378.861328 0)"/>
     <use xlink:href="#DejaVuSans-36" transform="translate(2462.650391 0)"/>
     <use xlink:href="#DejaVuSans-35" transform="translate(2526.273438 0)"/>
     <use xlink:href="#DejaVuSans-39" transform="translate(2589.896484 0)"/>
     <use xlink:href="#DejaVuSans-2e" transform="translate(2653.519531 0)"/>
     <use xlink:href="#DejaVuSans-31" transform="translate(2685.306641 0)"/>
     <use xlink:href="#DejaVuSans-34" transform="translate(2748.929688 0)"/>
     <use xlink:href="#DejaVuSans-31" transform="translate(2812.552734 0)"/>
     <use xlink:href="#DejaVuSans-38" transform="translate(2876.175781 0)"/>
     <use xlink:href="#DejaVuSans-37" transform="translate(2939.798828 0)"/>
     <use xlink:href="#DejaVuSans-31" transform="translate(3003.421875 0)"/>
    </g>
   </g>
   <g id="legend_1">
    <g id="patch_8">
     <path d="M 685.971875 64.23625 
L 846.2 64.23625 
Q 848.2 64.23625 848.2 62.23625 
L 848.2 33.88 
Q 848.2 31.88 846.2 31.88 
L 685.971875 31.88 
Q 683.971875 31.88 683.971875 33.88 
L 683.971875 62.23625 
Q 683.971875 64.23625 685.971875 64.23625 
z
" style="fill: #ffffff; opacity: 0.8; stroke: #cccccc; stroke-linejoin: miter"/>
    </g>
    <g id="line2d_15">
     <path d="M 687.971875 39.978437 
L 697.971875 39.978437 
L 707.971875 39.978437 
" style="fill: none; stroke: #0000ff; stroke-width: 1.5; stroke-linecap: square"/>
    </g>
    <g id="text_17">
     <!-- UV Intensity (normalized) -->
     <g transform="translate(715.971875 43.478437) scale(0.1 -0.1)">
      <use xlink:href="#DejaVuSans-55"/>
      <use xlink:href="#DejaVuSans-56" transform="translate(73.193359 0)"/>
      <use xlink:href="#DejaVuSans-20" transform="translate(141.601562 0)"/>
      <use xlink:href="#DejaVuSans-49" transform="translate(173.388672 0)"/>
      <use xlink:href="#DejaVuSans-6e" transform="translate(202.880859 0)"/>
      <use xlink:href="#DejaVuSans-74" transform="translate(266.259766 0)"/>
      <use xlink:href="#DejaVuSans-65" transform="translate(305.46875 0)"/>
      <use xlink:href="#DejaVuSans-6e" transform="translate(366.992188 0)"/>
      <use xlink:href="#DejaVuSans-73" transform="translate(430.371094 0)"/>
      <use xlink:href="#DejaVuSans-69" transform="translate(482.470703 0)"/>
      <use xlink:href="#DejaVuSans-74" transform="translate(510.253906 0)"/>
      <use xlink:href="#DejaVuSans-79" transform="translate(549.462891 0)"/>
      <use xlink:href="#DejaVuSans-20" transform="translate(608.642578 0)"/>
      <use xlink:href="#DejaVuSans-28" transform="translate(640.429688 0)"/>
      <use xlink:href="#DejaVuSans-6e" transform="translate(679.443359 0)"/>
      <use xlink:href="#DejaVuSans-6f" transform="translate(742.822266 0)"/>
      <use xlink:href="#DejaVuSans-72" transform="translate(804.003906 0)"/>
      <use xlink:href="#DejaVuSans-6d" transform="translate(843.367188 0)"/>
      <use xlink:href="#DejaVuSans-61" transform="translate(940.779297 0)"/>
      <use xlink:href="#DejaVuSans-6c" transform="translate(1002.058594 0)"/>
      <use xlink:href="#DejaVuSans-69" transform="translate(1029.841797 0)"/>
      <use xlink:href="#DejaVuSans-7a" transform="translate(1057.625 0)"/>
      <use xlink:href="#DejaVuSans-65" transform="translate(1110.115234 0)"/>
      <use xlink:href="#DejaVuSans-64" transform="translate(1171.638672 0)"/>
      <use xlink:href="#DejaVuSans-29" transform="translate(1235.115234 0)"/>
     </g>
    </g>
    <g id="line2d_16">
     <path d="M 687.971875 54.656562 
L 697.971875 54.656562 
L 707.971875 54.656562 
" style="fill: none; stroke: #008000; stroke-width: 1.5; stroke-linecap: square"/>
    </g>
    <g id="text_18">
     <!-- MS Intensity (normalized) -->
     <g transform="translate(715.971875 58.156562) scale(0.1 -0.1)">
      <use xlink:href="#DejaVuSans-4d"/>
      <use xlink:href="#DejaVuSans-53" transform="translate(86.279297 0)"/>
      <use xlink:href="#DejaVuSans-20" transform="translate(149.755859 0)"/>
      <use xlink:href="#DejaVuSans-49" transform="translate(181.542969 0)"/>
      <use xlink:href="#DejaVuSans-6e" transform="translate(211.035156 0)"/>
      <use xlink:href="#DejaVuSans-74" transform="translate(274.414062 0)"/>
      <use xlink:href="#DejaVuSans-65" transform="translate(313.623047 0)"/>
      <use xlink:href="#DejaVuSans-6e" transform="translate(375.146484 0)"/>
      <use xlink:href="#DejaVuSans-73" transform="translate(438.525391 0)"/>
      <use xlink:href="#DejaVuSans-69" transform="translate(490.625 0)"/>
      <use xlink:href="#DejaVuSans-74" transform="translate(518.408203 0)"/>
      <use xlink:href="#DejaVuSans-79" transform="translate(557.617188 0)"/>
      <use xlink:href="#DejaVuSans-20" transform="translate(616.796875 0)"/>
      <use xlink:href="#DejaVuSans-28" transform="translate(648.583984 0)"/>
      <use xlink:href="#DejaVuSans-6e" transform="translate(687.597656 0)"/>
      <use xlink:href="#DejaVuSans-6f" transform="translate(750.976562 0)"/>
      <use xlink:href="#DejaVuSans-72" transform="translate(812.158203 0)"/>
      <use xlink:href="#DejaVuSans-6d" transform="translate(851.521484 0)"/>
      <use xlink:href="#DejaVuSans-61" transform="translate(948.933594 0)"/>
      <use xlink:href="#DejaVuSans-6c" transform="translate(1010.212891 0)"/>
      <use xlink:href="#DejaVuSans-69" transform="translate(1037.996094 0)"/>
      <use xlink:href="#DejaVuSans-7a" transform="translate(1065.779297 0)"/>
      <use xlink:href="#DejaVuSans-65" transform="translate(1118.269531 0)"/>
      <use xlink:href="#DejaVuSans-64" transform="translate(1179.792969 0)"/>
      <use xlink:href="#DejaVuSans-29" transform="translate(1243.269531 0)"/>
     </g>
    </g>
   </g>
  </g>
 </g>
 <defs>
  <clipPath id="pd58c9c28eb">
   <rect x="47.72" y="26.88" width="805.48" height="507.16"/>
  </clipPath>
 </defs>
</svg>
