<?xml version="1.0" encoding="utf-8" standalone="no"?>
<!DOCTYPE svg PUBLIC "-//W3C//DTD SVG 1.1//EN"
  "http://www.w3.org/Graphics/SVG/1.1/DTD/svg11.dtd">
<svg xmlns:xlink="http://www.w3.org/1999/xlink" width="864pt" height="576pt" viewBox="0 0 864 576" xmlns="http://www.w3.org/2000/svg" version="1.1">
 <metadata>
  <rdf:RDF xmlns:dc="http://purl.org/dc/elements/1.1/" xmlns:cc="http://creativecommons.org/ns#" xmlns:rdf="http://www.w3.org/1999/02/22-rdf-syntax-ns#">
   <cc:Work>
    <dc:type rdf:resource="http://purl.org/dc/dcmitype/StillImage"/>
    <dc:date>2025-03-06T18:12:32.255440</dc:date>
    <dc:format>image/svg+xml</dc:format>
    <dc:creator>
     <cc:Agent>
      <dc:title>Matplotlib v3.10.0, https://matplotlib.org/</dc:title>
     </cc:Agent>
    </dc:creator>
   </cc:Work>
  </rdf:RDF>
 </metadata>
 <defs>
  <style type="text/css">*{stroke-linejoin: round; stroke-linecap: butt}</style>
 </defs>
 <g id="figure_1">
  <g id="patch_1">
   <path d="M 0 576 
L 864 576 
L 864 0 
L 0 0 
z
" style="fill: #ffffff"/>
  </g>
  <g id="axes_1">
   <g id="patch_2">
    <path d="M 47.72 534.04 
L 853.2 534.04 
L 853.2 26.88 
L 47.72 26.88 
z
" style="fill: #ffffff"/>
   </g>
   <g id="matplotlib.axis_1">
    <g id="xtick_1">
     <g id="line2d_1">
      <defs>
       <path id="m829bcccbef" d="M 0 0 
L 0 3.5 
" style="stroke: #000000; stroke-width: 0.8"/>
      </defs>
      <g>
       <use xlink:href="#m829bcccbef" x="83.100486" y="534.04" style="stroke: #000000; stroke-width: 0.8"/>
      </g>
     </g>
     <g id="text_1">
      <!-- 0 -->
      <g transform="translate(79.919236 548.638438) scale(0.1 -0.1)">
       <defs>
        <path id="DejaVuSans-30" d="M 2034 4250 
Q 1547 4250 1301 3770 
Q 1056 3291 1056 2328 
Q 1056 1369 1301 889 
Q 1547 409 2034 409 
Q 2525 409 2770 889 
Q 3016 1369 3016 2328 
Q 3016 3291 2770 3770 
Q 2525 4250 2034 4250 
z
M 2034 4750 
Q 2819 4750 3233 4129 
Q 3647 3509 3647 2328 
Q 3647 1150 3233 529 
Q 2819 -91 2034 -91 
Q 1250 -91 836 529 
Q 422 1150 422 2328 
Q 422 3509 836 4129 
Q 1250 4750 2034 4750 
z
" transform="scale(0.015625)"/>
       </defs>
       <use xlink:href="#DejaVuSans-30"/>
      </g>
     </g>
    </g>
    <g id="xtick_2">
     <g id="line2d_2">
      <g>
       <use xlink:href="#m829bcccbef" x="229.795887" y="534.04" style="stroke: #000000; stroke-width: 0.8"/>
      </g>
     </g>
     <g id="text_2">
      <!-- 1 -->
      <g transform="translate(226.614637 548.638438) scale(0.1 -0.1)">
       <defs>
        <path id="DejaVuSans-31" d="M 794 531 
L 1825 531 
L 1825 4091 
L 703 3866 
L 703 4441 
L 1819 4666 
L 2450 4666 
L 2450 531 
L 3481 531 
L 3481 0 
L 794 0 
L 794 531 
z
" transform="scale(0.015625)"/>
       </defs>
       <use xlink:href="#DejaVuSans-31"/>
      </g>
     </g>
    </g>
    <g id="xtick_3">
     <g id="line2d_3">
      <g>
       <use xlink:href="#m829bcccbef" x="376.491289" y="534.04" style="stroke: #000000; stroke-width: 0.8"/>
      </g>
     </g>
     <g id="text_3">
      <!-- 2 -->
      <g transform="translate(373.310039 548.638438) scale(0.1 -0.1)">
       <defs>
        <path id="DejaVuSans-32" d="M 1228 531 
L 3431 531 
L 3431 0 
L 469 0 
L 469 531 
Q 828 903 1448 1529 
Q 2069 2156 2228 2338 
Q 2531 2678 2651 2914 
Q 2772 3150 2772 3378 
Q 2772 3750 2511 3984 
Q 2250 4219 1831 4219 
Q 1534 4219 1204 4116 
Q 875 4013 500 3803 
L 500 4441 
Q 881 4594 1212 4672 
Q 1544 4750 1819 4750 
Q 2544 4750 2975 4387 
Q 3406 4025 3406 3419 
Q 3406 3131 3298 2873 
Q 3191 2616 2906 2266 
Q 2828 2175 2409 1742 
Q 1991 1309 1228 531 
z
" transform="scale(0.015625)"/>
       </defs>
       <use xlink:href="#DejaVuSans-32"/>
      </g>
     </g>
    </g>
    <g id="xtick_4">
     <g id="line2d_4">
      <g>
       <use xlink:href="#m829bcccbef" x="523.18669" y="534.04" style="stroke: #000000; stroke-width: 0.8"/>
      </g>
     </g>
     <g id="text_4">
      <!-- 3 -->
      <g transform="translate(520.00544 548.638438) scale(0.1 -0.1)">
       <defs>
        <path id="DejaVuSans-33" d="M 2597 2516 
Q 3050 2419 3304 2112 
Q 3559 1806 3559 1356 
Q 3559 666 3084 287 
Q 2609 -91 1734 -91 
Q 1441 -91 1130 -33 
Q 819 25 488 141 
L 488 750 
Q 750 597 1062 519 
Q 1375 441 1716 441 
Q 2309 441 2620 675 
Q 2931 909 2931 1356 
Q 2931 1769 2642 2001 
Q 2353 2234 1838 2234 
L 1294 2234 
L 1294 2753 
L 1863 2753 
Q 2328 2753 2575 2939 
Q 2822 3125 2822 3475 
Q 2822 3834 2567 4026 
Q 2313 4219 1838 4219 
Q 1578 4219 1281 4162 
Q 984 4106 628 3988 
L 628 4550 
Q 988 4650 1302 4700 
Q 1616 4750 1894 4750 
Q 2613 4750 3031 4423 
Q 3450 4097 3450 3541 
Q 3450 3153 3228 2886 
Q 3006 2619 2597 2516 
z
" transform="scale(0.015625)"/>
       </defs>
       <use xlink:href="#DejaVuSans-33"/>
      </g>
     </g>
    </g>
    <g id="xtick_5">
     <g id="line2d_5">
      <g>
       <use xlink:href="#m829bcccbef" x="669.882092" y="534.04" style="stroke: #000000; stroke-width: 0.8"/>
      </g>
     </g>
     <g id="text_5">
      <!-- 4 -->
      <g transform="translate(666.700842 548.638438) scale(0.1 -0.1)">
       <defs>
        <path id="DejaVuSans-34" d="M 2419 4116 
L 825 1625 
L 2419 1625 
L 2419 4116 
z
M 2253 4666 
L 3047 4666 
L 3047 1625 
L 3713 1625 
L 3713 1100 
L 3047 1100 
L 3047 0 
L 2419 0 
L 2419 1100 
L 313 1100 
L 313 1709 
L 2253 4666 
z
" transform="scale(0.015625)"/>
       </defs>
       <use xlink:href="#DejaVuSans-34"/>
      </g>
     </g>
    </g>
    <g id="xtick_6">
     <g id="line2d_6">
      <g>
       <use xlink:href="#m829bcccbef" x="816.577493" y="534.04" style="stroke: #000000; stroke-width: 0.8"/>
      </g>
     </g>
     <g id="text_6">
      <!-- 5 -->
      <g transform="translate(813.396243 548.638438) scale(0.1 -0.1)">
       <defs>
        <path id="DejaVuSans-35" d="M 691 4666 
L 3169 4666 
L 3169 4134 
L 1269 4134 
L 1269 2991 
Q 1406 3038 1543 3061 
Q 1681 3084 1819 3084 
Q 2600 3084 3056 2656 
Q 3513 2228 3513 1497 
Q 3513 744 3044 326 
Q 2575 -91 1722 -91 
Q 1428 -91 1123 -41 
Q 819 9 494 109 
L 494 744 
Q 775 591 1075 516 
Q 1375 441 1709 441 
Q 2250 441 2565 725 
Q 2881 1009 2881 1497 
Q 2881 1984 2565 2268 
Q 2250 2553 1709 2553 
Q 1456 2553 1204 2497 
Q 953 2441 691 2322 
L 691 4666 
z
" transform="scale(0.015625)"/>
       </defs>
       <use xlink:href="#DejaVuSans-35"/>
      </g>
     </g>
    </g>
    <g id="text_7">
     <!-- Retention Time (min) -->
     <g transform="translate(397.61 562.316562) scale(0.1 -0.1)">
      <defs>
       <path id="DejaVuSans-52" d="M 2841 2188 
Q 3044 2119 3236 1894 
Q 3428 1669 3622 1275 
L 4263 0 
L 3584 0 
L 2988 1197 
Q 2756 1666 2539 1819 
Q 2322 1972 1947 1972 
L 1259 1972 
L 1259 0 
L 628 0 
L 628 4666 
L 2053 4666 
Q 2853 4666 3247 4331 
Q 3641 3997 3641 3322 
Q 3641 2881 3436 2590 
Q 3231 2300 2841 2188 
z
M 1259 4147 
L 1259 2491 
L 2053 2491 
Q 2509 2491 2742 2702 
Q 2975 2913 2975 3322 
Q 2975 3731 2742 3939 
Q 2509 4147 2053 4147 
L 1259 4147 
z
" transform="scale(0.015625)"/>
       <path id="DejaVuSans-65" d="M 3597 1894 
L 3597 1613 
L 953 1613 
Q 991 1019 1311 708 
Q 1631 397 2203 397 
Q 2534 397 2845 478 
Q 3156 559 3463 722 
L 3463 178 
Q 3153 47 2828 -22 
Q 2503 -91 2169 -91 
Q 1331 -91 842 396 
Q 353 884 353 1716 
Q 353 2575 817 3079 
Q 1281 3584 2069 3584 
Q 2775 3584 3186 3129 
Q 3597 2675 3597 1894 
z
M 3022 2063 
Q 3016 2534 2758 2815 
Q 2500 3097 2075 3097 
Q 1594 3097 1305 2825 
Q 1016 2553 972 2059 
L 3022 2063 
z
" transform="scale(0.015625)"/>
       <path id="DejaVuSans-74" d="M 1172 4494 
L 1172 3500 
L 2356 3500 
L 2356 3053 
L 1172 3053 
L 1172 1153 
Q 1172 725 1289 603 
Q 1406 481 1766 481 
L 2356 481 
L 2356 0 
L 1766 0 
Q 1100 0 847 248 
Q 594 497 594 1153 
L 594 3053 
L 172 3053 
L 172 3500 
L 594 3500 
L 594 4494 
L 1172 4494 
z
" transform="scale(0.015625)"/>
       <path id="DejaVuSans-6e" d="M 3513 2113 
L 3513 0 
L 2938 0 
L 2938 2094 
Q 2938 2591 2744 2837 
Q 2550 3084 2163 3084 
Q 1697 3084 1428 2787 
Q 1159 2491 1159 1978 
L 1159 0 
L 581 0 
L 581 3500 
L 1159 3500 
L 1159 2956 
Q 1366 3272 1645 3428 
Q 1925 3584 2291 3584 
Q 2894 3584 3203 3211 
Q 3513 2838 3513 2113 
z
" transform="scale(0.015625)"/>
       <path id="DejaVuSans-69" d="M 603 3500 
L 1178 3500 
L 1178 0 
L 603 0 
L 603 3500 
z
M 603 4863 
L 1178 4863 
L 1178 4134 
L 603 4134 
L 603 4863 
z
" transform="scale(0.015625)"/>
       <path id="DejaVuSans-6f" d="M 1959 3097 
Q 1497 3097 1228 2736 
Q 959 2375 959 1747 
Q 959 1119 1226 758 
Q 1494 397 1959 397 
Q 2419 397 2687 759 
Q 2956 1122 2956 1747 
Q 2956 2369 2687 2733 
Q 2419 3097 1959 3097 
z
M 1959 3584 
Q 2709 3584 3137 3096 
Q 3566 2609 3566 1747 
Q 3566 888 3137 398 
Q 2709 -91 1959 -91 
Q 1206 -91 779 398 
Q 353 888 353 1747 
Q 353 2609 779 3096 
Q 1206 3584 1959 3584 
z
" transform="scale(0.015625)"/>
       <path id="DejaVuSans-20" transform="scale(0.015625)"/>
       <path id="DejaVuSans-54" d="M -19 4666 
L 3928 4666 
L 3928 4134 
L 2272 4134 
L 2272 0 
L 1638 0 
L 1638 4134 
L -19 4134 
L -19 4666 
z
" transform="scale(0.015625)"/>
       <path id="DejaVuSans-6d" d="M 3328 2828 
Q 3544 3216 3844 3400 
Q 4144 3584 4550 3584 
Q 5097 3584 5394 3201 
Q 5691 2819 5691 2113 
L 5691 0 
L 5113 0 
L 5113 2094 
Q 5113 2597 4934 2840 
Q 4756 3084 4391 3084 
Q 3944 3084 3684 2787 
Q 3425 2491 3425 1978 
L 3425 0 
L 2847 0 
L 2847 2094 
Q 2847 2600 2669 2842 
Q 2491 3084 2119 3084 
Q 1678 3084 1418 2786 
Q 1159 2488 1159 1978 
L 1159 0 
L 581 0 
L 581 3500 
L 1159 3500 
L 1159 2956 
Q 1356 3278 1631 3431 
Q 1906 3584 2284 3584 
Q 2666 3584 2933 3390 
Q 3200 3197 3328 2828 
z
" transform="scale(0.015625)"/>
       <path id="DejaVuSans-28" d="M 1984 4856 
Q 1566 4138 1362 3434 
Q 1159 2731 1159 2009 
Q 1159 1288 1364 580 
Q 1569 -128 1984 -844 
L 1484 -844 
Q 1016 -109 783 600 
Q 550 1309 550 2009 
Q 550 2706 781 3412 
Q 1013 4119 1484 4856 
L 1984 4856 
z
" transform="scale(0.015625)"/>
       <path id="DejaVuSans-29" d="M 513 4856 
L 1013 4856 
Q 1481 4119 1714 3412 
Q 1947 2706 1947 2009 
Q 1947 1309 1714 600 
Q 1481 -109 1013 -844 
L 513 -844 
Q 928 -128 1133 580 
Q 1338 1288 1338 2009 
Q 1338 2731 1133 3434 
Q 928 4138 513 4856 
z
" transform="scale(0.015625)"/>
      </defs>
      <use xlink:href="#DejaVuSans-52"/>
      <use xlink:href="#DejaVuSans-65" transform="translate(64.982422 0)"/>
      <use xlink:href="#DejaVuSans-74" transform="translate(126.505859 0)"/>
      <use xlink:href="#DejaVuSans-65" transform="translate(165.714844 0)"/>
      <use xlink:href="#DejaVuSans-6e" transform="translate(227.238281 0)"/>
      <use xlink:href="#DejaVuSans-74" transform="translate(290.617188 0)"/>
      <use xlink:href="#DejaVuSans-69" transform="translate(329.826172 0)"/>
      <use xlink:href="#DejaVuSans-6f" transform="translate(357.609375 0)"/>
      <use xlink:href="#DejaVuSans-6e" transform="translate(418.791016 0)"/>
      <use xlink:href="#DejaVuSans-20" transform="translate(482.169922 0)"/>
      <use xlink:href="#DejaVuSans-54" transform="translate(513.957031 0)"/>
      <use xlink:href="#DejaVuSans-69" transform="translate(571.916016 0)"/>
      <use xlink:href="#DejaVuSans-6d" transform="translate(599.699219 0)"/>
      <use xlink:href="#DejaVuSans-65" transform="translate(697.111328 0)"/>
      <use xlink:href="#DejaVuSans-20" transform="translate(758.634766 0)"/>
      <use xlink:href="#DejaVuSans-28" transform="translate(790.421875 0)"/>
      <use xlink:href="#DejaVuSans-6d" transform="translate(829.435547 0)"/>
      <use xlink:href="#DejaVuSans-69" transform="translate(926.847656 0)"/>
      <use xlink:href="#DejaVuSans-6e" transform="translate(954.630859 0)"/>
      <use xlink:href="#DejaVuSans-29" transform="translate(1018.009766 0)"/>
     </g>
    </g>
   </g>
   <g id="matplotlib.axis_2">
    <g id="ytick_1">
     <g id="line2d_7">
      <defs>
       <path id="mefcaad12db" d="M 0 0 
L -3.5 0 
" style="stroke: #000000; stroke-width: 0.8"/>
      </defs>
      <g>
       <use xlink:href="#mefcaad12db" x="47.72" y="510.987273" style="stroke: #000000; stroke-width: 0.8"/>
      </g>
     </g>
     <g id="text_8">
      <!-- 0.0 -->
      <g style="fill: #0000ff" transform="translate(24.816875 514.786491) scale(0.1 -0.1)">
       <defs>
        <path id="DejaVuSans-2e" d="M 684 794 
L 1344 794 
L 1344 0 
L 684 0 
L 684 794 
z
" transform="scale(0.015625)"/>
       </defs>
       <use xlink:href="#DejaVuSans-30"/>
       <use xlink:href="#DejaVuSans-2e" transform="translate(63.623047 0)"/>
       <use xlink:href="#DejaVuSans-30" transform="translate(95.410156 0)"/>
      </g>
     </g>
    </g>
    <g id="ytick_2">
     <g id="line2d_8">
      <g>
       <use xlink:href="#mefcaad12db" x="47.72" y="418.776364" style="stroke: #000000; stroke-width: 0.8"/>
      </g>
     </g>
     <g id="text_9">
      <!-- 0.5 -->
      <g style="fill: #0000ff" transform="translate(24.816875 422.575582) scale(0.1 -0.1)">
       <use xlink:href="#DejaVuSans-30"/>
       <use xlink:href="#DejaVuSans-2e" transform="translate(63.623047 0)"/>
       <use xlink:href="#DejaVuSans-35" transform="translate(95.410156 0)"/>
      </g>
     </g>
    </g>
    <g id="ytick_3">
     <g id="line2d_9">
      <g>
       <use xlink:href="#mefcaad12db" x="47.72" y="326.565455" style="stroke: #000000; stroke-width: 0.8"/>
      </g>
     </g>
     <g id="text_10">
      <!-- 1.0 -->
      <g style="fill: #0000ff" transform="translate(24.816875 330.364673) scale(0.1 -0.1)">
       <use xlink:href="#DejaVuSans-31"/>
       <use xlink:href="#DejaVuSans-2e" transform="translate(63.623047 0)"/>
       <use xlink:href="#DejaVuSans-30" transform="translate(95.410156 0)"/>
      </g>
     </g>
    </g>
    <g id="ytick_4">
     <g id="line2d_10">
      <g>
       <use xlink:href="#mefcaad12db" x="47.72" y="234.354545" style="stroke: #000000; stroke-width: 0.8"/>
      </g>
     </g>
     <g id="text_11">
      <!-- 1.5 -->
      <g style="fill: #0000ff" transform="translate(24.816875 238.153764) scale(0.1 -0.1)">
       <use xlink:href="#DejaVuSans-31"/>
       <use xlink:href="#DejaVuSans-2e" transform="translate(63.623047 0)"/>
       <use xlink:href="#DejaVuSans-35" transform="translate(95.410156 0)"/>
      </g>
     </g>
    </g>
    <g id="ytick_5">
     <g id="line2d_11">
      <g>
       <use xlink:href="#mefcaad12db" x="47.72" y="142.143636" style="stroke: #000000; stroke-width: 0.8"/>
      </g>
     </g>
     <g id="text_12">
      <!-- 2.0 -->
      <g style="fill: #0000ff" transform="translate(24.816875 145.942855) scale(0.1 -0.1)">
       <use xlink:href="#DejaVuSans-32"/>
       <use xlink:href="#DejaVuSans-2e" transform="translate(63.623047 0)"/>
       <use xlink:href="#DejaVuSans-30" transform="translate(95.410156 0)"/>
      </g>
     </g>
    </g>
    <g id="ytick_6">
     <g id="line2d_12">
      <g>
       <use xlink:href="#mefcaad12db" x="47.72" y="49.932727" style="stroke: #000000; stroke-width: 0.8"/>
      </g>
     </g>
     <g id="text_13">
      <!-- 2.5 -->
      <g style="fill: #0000ff" transform="translate(24.816875 53.731946) scale(0.1 -0.1)">
       <use xlink:href="#DejaVuSans-32"/>
       <use xlink:href="#DejaVuSans-2e" transform="translate(63.623047 0)"/>
       <use xlink:href="#DejaVuSans-35" transform="translate(95.410156 0)"/>
      </g>
     </g>
    </g>
    <g id="text_14">
     <!-- Normalized Intensity -->
     <g style="fill: #0000ff" transform="translate(18.737187 332.167031) rotate(-90) scale(0.1 -0.1)">
      <defs>
       <path id="DejaVuSans-4e" d="M 628 4666 
L 1478 4666 
L 3547 763 
L 3547 4666 
L 4159 4666 
L 4159 0 
L 3309 0 
L 1241 3903 
L 1241 0 
L 628 0 
L 628 4666 
z
" transform="scale(0.015625)"/>
       <path id="DejaVuSans-72" d="M 2631 2963 
Q 2534 3019 2420 3045 
Q 2306 3072 2169 3072 
Q 1681 3072 1420 2755 
Q 1159 2438 1159 1844 
L 1159 0 
L 581 0 
L 581 3500 
L 1159 3500 
L 1159 2956 
Q 1341 3275 1631 3429 
Q 1922 3584 2338 3584 
Q 2397 3584 2469 3576 
Q 2541 3569 2628 3553 
L 2631 2963 
z
" transform="scale(0.015625)"/>
       <path id="DejaVuSans-61" d="M 2194 1759 
Q 1497 1759 1228 1600 
Q 959 1441 959 1056 
Q 959 750 1161 570 
Q 1363 391 1709 391 
Q 2188 391 2477 730 
Q 2766 1069 2766 1631 
L 2766 1759 
L 2194 1759 
z
M 3341 1997 
L 3341 0 
L 2766 0 
L 2766 531 
Q 2569 213 2275 61 
Q 1981 -91 1556 -91 
Q 1019 -91 701 211 
Q 384 513 384 1019 
Q 384 1609 779 1909 
Q 1175 2209 1959 2209 
L 2766 2209 
L 2766 2266 
Q 2766 2663 2505 2880 
Q 2244 3097 1772 3097 
Q 1472 3097 1187 3025 
Q 903 2953 641 2809 
L 641 3341 
Q 956 3463 1253 3523 
Q 1550 3584 1831 3584 
Q 2591 3584 2966 3190 
Q 3341 2797 3341 1997 
z
" transform="scale(0.015625)"/>
       <path id="DejaVuSans-6c" d="M 603 4863 
L 1178 4863 
L 1178 0 
L 603 0 
L 603 4863 
z
" transform="scale(0.015625)"/>
       <path id="DejaVuSans-7a" d="M 353 3500 
L 3084 3500 
L 3084 2975 
L 922 459 
L 3084 459 
L 3084 0 
L 275 0 
L 275 525 
L 2438 3041 
L 353 3041 
L 353 3500 
z
" transform="scale(0.015625)"/>
       <path id="DejaVuSans-64" d="M 2906 2969 
L 2906 4863 
L 3481 4863 
L 3481 0 
L 2906 0 
L 2906 525 
Q 2725 213 2448 61 
Q 2172 -91 1784 -91 
Q 1150 -91 751 415 
Q 353 922 353 1747 
Q 353 2572 751 3078 
Q 1150 3584 1784 3584 
Q 2172 3584 2448 3432 
Q 2725 3281 2906 2969 
z
M 947 1747 
Q 947 1113 1208 752 
Q 1469 391 1925 391 
Q 2381 391 2643 752 
Q 2906 1113 2906 1747 
Q 2906 2381 2643 2742 
Q 2381 3103 1925 3103 
Q 1469 3103 1208 2742 
Q 947 2381 947 1747 
z
" transform="scale(0.015625)"/>
       <path id="DejaVuSans-49" d="M 628 4666 
L 1259 4666 
L 1259 0 
L 628 0 
L 628 4666 
z
" transform="scale(0.015625)"/>
       <path id="DejaVuSans-73" d="M 2834 3397 
L 2834 2853 
Q 2591 2978 2328 3040 
Q 2066 3103 1784 3103 
Q 1356 3103 1142 2972 
Q 928 2841 928 2578 
Q 928 2378 1081 2264 
Q 1234 2150 1697 2047 
L 1894 2003 
Q 2506 1872 2764 1633 
Q 3022 1394 3022 966 
Q 3022 478 2636 193 
Q 2250 -91 1575 -91 
Q 1294 -91 989 -36 
Q 684 19 347 128 
L 347 722 
Q 666 556 975 473 
Q 1284 391 1588 391 
Q 1994 391 2212 530 
Q 2431 669 2431 922 
Q 2431 1156 2273 1281 
Q 2116 1406 1581 1522 
L 1381 1569 
Q 847 1681 609 1914 
Q 372 2147 372 2553 
Q 372 3047 722 3315 
Q 1072 3584 1716 3584 
Q 2034 3584 2315 3537 
Q 2597 3491 2834 3397 
z
" transform="scale(0.015625)"/>
       <path id="DejaVuSans-79" d="M 2059 -325 
Q 1816 -950 1584 -1140 
Q 1353 -1331 966 -1331 
L 506 -1331 
L 506 -850 
L 844 -850 
Q 1081 -850 1212 -737 
Q 1344 -625 1503 -206 
L 1606 56 
L 191 3500 
L 800 3500 
L 1894 763 
L 2988 3500 
L 3597 3500 
L 2059 -325 
z
" transform="scale(0.015625)"/>
      </defs>
      <use xlink:href="#DejaVuSans-4e"/>
      <use xlink:href="#DejaVuSans-6f" transform="translate(74.804688 0)"/>
      <use xlink:href="#DejaVuSans-72" transform="translate(135.986328 0)"/>
      <use xlink:href="#DejaVuSans-6d" transform="translate(175.349609 0)"/>
      <use xlink:href="#DejaVuSans-61" transform="translate(272.761719 0)"/>
      <use xlink:href="#DejaVuSans-6c" transform="translate(334.041016 0)"/>
      <use xlink:href="#DejaVuSans-69" transform="translate(361.824219 0)"/>
      <use xlink:href="#DejaVuSans-7a" transform="translate(389.607422 0)"/>
      <use xlink:href="#DejaVuSans-65" transform="translate(442.097656 0)"/>
      <use xlink:href="#DejaVuSans-64" transform="translate(503.621094 0)"/>
      <use xlink:href="#DejaVuSans-20" transform="translate(567.097656 0)"/>
      <use xlink:href="#DejaVuSans-49" transform="translate(598.884766 0)"/>
      <use xlink:href="#DejaVuSans-6e" transform="translate(628.376953 0)"/>
      <use xlink:href="#DejaVuSans-74" transform="translate(691.755859 0)"/>
      <use xlink:href="#DejaVuSans-65" transform="translate(730.964844 0)"/>
      <use xlink:href="#DejaVuSans-6e" transform="translate(792.488281 0)"/>
      <use xlink:href="#DejaVuSans-73" transform="translate(855.867188 0)"/>
      <use xlink:href="#DejaVuSans-69" transform="translate(907.966797 0)"/>
      <use xlink:href="#DejaVuSans-74" transform="translate(935.75 0)"/>
      <use xlink:href="#DejaVuSans-79" transform="translate(974.958984 0)"/>
     </g>
    </g>
   </g>
   <g id="line2d_13">
    <path d="M 84.332727 510.987273 
L 94.112421 510.877236 
L 103.892114 510.818752 
L 165.015198 510.681614 
L 169.905045 510.033438 
L 172.349968 510.186228 
L 176.017353 510.587457 
L 180.9072 510.764198 
L 184.574585 510.83033 
L 188.24197 510.586791 
L 190.686893 510.446699 
L 194.354278 510.511957 
L 199.244125 510.595102 
L 209.023818 510.441845 
L 212.691204 510.448525 
L 217.58105 510.54008 
L 222.470897 510.414442 
L 227.360744 510.613713 
L 229.805667 510.296452 
L 232.25059 509.935658 
L 234.695514 509.994754 
L 239.58536 510.506057 
L 243.252745 510.581715 
L 257.922286 510.44863 
L 298.263521 510.031274 
L 303.153368 509.796683 
L 314.155523 509.983134 
L 319.04537 509.656122 
L 322.712755 509.791915 
L 327.602601 509.949946 
L 339.827218 510.13959 
L 344.717065 510.262232 
L 354.496758 510.162343 
L 367.943837 509.554487 
L 372.833683 509.312197 
L 378.945992 509.339406 
L 383.835839 509.368654 
L 386.280762 509.122256 
L 389.948147 508.455713 
L 391.170609 508.437658 
L 394.837994 508.831856 
L 398.505379 509.052959 
L 403.395225 509.096002 
L 405.840149 508.954524 
L 407.06261 508.744828 
L 409.507534 507.931596 
L 410.729995 507.477535 
L 411.952457 507.176926 
L 415.619842 506.754202 
L 416.842304 506.232397 
L 419.287227 504.980473 
L 420.509689 504.590752 
L 421.732151 504.495674 
L 422.954612 504.732658 
L 424.177074 505.244582 
L 427.844459 507.071682 
L 429.066921 507.434844 
L 430.289382 507.459486 
L 431.511844 506.680974 
L 432.734306 504.55637 
L 435.179229 497.832852 
L 436.401691 495.058995 
L 437.624152 490.111612 
L 438.846614 475.319692 
L 440.069076 443.450114 
L 442.513999 352.272813 
L 443.736461 326.565455 
L 444.958922 328.913941 
L 446.181384 354.658047 
L 448.626307 426.918382 
L 449.848769 454.422834 
L 451.071231 472.427636 
L 452.293693 482.862288 
L 453.516154 488.626043 
L 454.738616 492.084697 
L 455.961078 494.607925 
L 457.183539 496.745908 
L 458.406001 498.601391 
L 459.628463 500.143205 
L 460.850924 501.371319 
L 462.073386 502.339292 
L 463.295848 503.104748 
L 464.518309 503.690057 
L 465.740771 504.087563 
L 466.963233 504.298857 
L 468.185694 504.364403 
L 469.408156 504.300651 
L 470.630618 503.97126 
L 471.853079 503.159995 
L 474.298003 500.757758 
L 475.520464 500.223405 
L 477.965388 500.556674 
L 479.187849 499.443535 
L 480.410311 496.312696 
L 481.632773 491.96011 
L 482.855234 488.368909 
L 484.077696 487.17492 
L 485.300158 488.601505 
L 486.52262 491.681819 
L 487.745081 495.140236 
L 488.967543 498.0694 
L 490.190005 500.116821 
L 491.412466 501.347655 
L 492.634928 502.021752 
L 495.079851 502.694792 
L 498.747236 503.314882 
L 506.082006 504.242897 
L 510.971853 504.42358 
L 513.416776 504.358849 
L 518.306623 503.962954 
L 520.751547 504.123729 
L 524.418932 504.429398 
L 528.086317 504.339484 
L 530.53124 504.056775 
L 534.198625 503.154214 
L 535.421087 503.231001 
L 536.643548 503.662528 
L 539.088472 504.839885 
L 540.310933 504.774655 
L 541.533395 503.838053 
L 542.755857 502.372113 
L 543.978318 501.228383 
L 545.20078 501.100747 
L 546.423242 502.040209 
L 548.868165 505.124003 
L 550.090627 506.316483 
L 551.313088 507.027834 
L 552.53555 507.310751 
L 554.980474 507.209287 
L 557.425397 507.156185 
L 565.982629 507.745239 
L 568.427552 507.955176 
L 570.872475 507.765846 
L 574.53986 507.293443 
L 576.984784 507.351927 
L 578.207245 507.382058 
L 579.429707 506.873756 
L 580.652169 505.12879 
L 581.87463 502.002386 
L 583.097092 498.504906 
L 584.319554 496.217133 
L 585.542015 496.062927 
L 586.764477 497.786588 
L 589.209401 502.936603 
L 590.431862 504.812173 
L 591.654324 505.928957 
L 592.876786 506.478596 
L 595.321709 506.920527 
L 598.989094 507.462414 
L 600.211556 506.919084 
L 601.434017 504.22227 
L 602.656479 497.686228 
L 605.101402 478.084508 
L 606.323864 473.082897 
L 607.546326 474.525497 
L 608.768787 480.78552 
L 609.991249 488.690165 
L 611.213711 495.629787 
L 612.436172 500.45045 
L 613.658634 503.22208 
L 614.881096 504.592048 
L 616.103557 505.251292 
L 620.993404 506.828292 
L 622.215866 507.062847 
L 623.438328 507.142685 
L 629.550636 506.920777 
L 634.440483 507.518462 
L 639.330329 507.616451 
L 642.997714 508.009577 
L 646.665099 508.154906 
L 649.110023 508.065396 
L 656.444793 507.51716 
L 658.889716 507.72038 
L 663.779563 508.297949 
L 668.66941 508.486636 
L 671.114333 508.46466 
L 673.559256 508.145167 
L 676.00418 507.740134 
L 677.226641 507.705939 
L 679.671565 508.001791 
L 683.33895 508.508527 
L 687.006335 508.670275 
L 694.341105 508.710746 
L 700.453413 508.586833 
L 705.34326 508.225994 
L 711.455568 508.289916 
L 713.900492 508.187756 
L 716.345415 508.286924 
L 720.0128 508.477123 
L 740.794649 508.540981 
L 745.684495 508.693645 
L 764.021421 508.719547 
L 771.356191 508.657963 
L 804.362656 508.310375 
L 812.919888 508.089625 
L 816.587273 508.188352 
L 816.587273 508.188352 
" clip-path="url(#pd6d905e6f5)" style="fill: none; stroke: #0000ff; stroke-width: 1.5; stroke-linecap: square"/>
   </g>
   <g id="line2d_14">
    <path d="M 89.274162 234.323598 
L 100.060675 234.341818 
L 108.536735 234.329237 
L 201.047745 234.290142 
L 210.595171 234.299216 
L 422.814518 234.160314 
L 422.814518 234.129271 
L 423.479293 233.999491 
L 423.479293 233.947489 
L 424.478533 233.91648 
L 424.478533 233.821269 
L 425.143552 233.848968 
L 425.143552 233.853099 
L 425.814439 233.883014 
L 425.814439 233.775552 
L 426.147927 233.618937 
L 426.479947 233.49625 
L 426.479947 233.551131 
L 426.479947 233.629925 
L 426.813679 233.70365 
L 427.148389 233.871452 
L 427.148389 233.800047 
L 429.826803 233.913619 
L 429.826803 233.917417 
L 430.498912 233.922748 
L 430.498912 233.885473 
L 431.164909 233.835143 
L 431.831884 233.865191 
L 433.832076 233.871655 
L 433.832076 233.875504 
L 434.166297 234.005288 
L 435.166026 234.06857 
L 437.16304 234.302029 
L 437.16304 234.295764 
L 440.451217 234.24742 
L 440.451217 234.150214 
L 440.780059 233.995125 
L 440.780059 233.564362 
L 441.108657 233.269471 
L 441.108657 232.149358 
L 441.437255 231.840266 
L 441.437255 230.066486 
L 441.765853 229.885525 
L 441.765853 227.313452 
L 442.094695 227.46563 
L 442.094695 224.170029 
L 442.422559 224.909608 
L 442.422559 221.535554 
L 442.74969 223.247902 
L 442.74969 220.077593 
L 443.076331 222.488773 
L 443.076331 218.947137 
L 443.402973 221.727366 
L 443.402973 218.253358 
L 443.729615 220.993438 
L 443.729615 217.84596 
L 444.057724 221.307485 
L 444.057724 217.200278 
L 444.384121 220.441309 
L 444.384121 216.366871 
L 444.710518 219.539751 
L 444.710518 215.024794 
L 445.040583 218.67097 
L 445.040583 213.786557 
L 445.372359 217.698757 
L 445.372359 213.346549 
L 445.698756 217.147555 
L 445.698756 213.972326 
L 446.025154 218.251499 
L 446.025154 214.264623 
L 446.351551 217.779928 
L 446.351551 214.343683 
L 446.677948 217.593783 
L 446.677948 214.794326 
L 447.004345 218.587114 
L 447.004345 215.635952 
L 447.330743 219.750174 
L 447.330743 216.52523 
L 447.65714 220.116281 
L 447.65714 216.797953 
L 447.983537 220.562071 
L 447.983537 217.471568 
L 448.310179 221.262539 
L 448.310179 217.415081 
L 448.636576 220.858289 
L 448.636576 216.488065 
L 448.963218 219.788285 
L 448.963218 214.955985 
L 449.28986 218.769174 
L 449.28986 215.067415 
L 449.616257 219.030847 
L 449.616257 215.868123 
L 449.942899 220.643342 
L 449.942899 217.062318 
L 450.274919 220.980329 
L 450.274919 217.949094 
L 450.601561 221.187155 
L 450.601561 217.590601 
L 450.928203 221.234873 
L 450.928203 217.778363 
L 451.255089 221.58361 
L 451.255089 218.159035 
L 451.581731 221.647885 
L 451.581731 218.752831 
L 451.908617 222.219387 
L 451.908617 218.986798 
L 452.235259 222.228633 
L 452.235259 218.802166 
L 452.562145 221.742296 
L 452.562145 218.527279 
L 452.889031 221.610792 
L 452.889031 217.926317 
L 453.216162 220.785143 
L 453.216162 218.065349 
L 453.543293 221.46608 
L 453.543293 218.786758 
L 453.870179 222.514146 
L 453.870179 220.101581 
L 454.19731 222.768617 
L 454.19731 219.979225 
L 454.528597 222.846408 
L 454.528597 219.42291 
L 454.855728 222.163313 
L 454.855728 218.958289 
L 455.188482 221.60126 
L 455.188482 218.619354 
L 455.529549 222.345328 
L 455.529549 220.069715 
L 455.856924 223.430633 
L 455.856924 221.177944 
L 456.184544 223.951631 
L 456.184544 221.225068 
L 456.511919 224.130206 
L 456.511919 221.252669 
L 456.839294 223.94736 
L 456.839294 221.765105 
L 457.166914 224.160557 
L 457.166914 221.91107 
L 457.494533 224.439412 
L 457.494533 221.836128 
L 457.822398 223.879748 
L 457.822398 221.748224 
L 458.150262 224.05694 
L 458.150262 222.096987 
L 458.477882 224.436675 
L 458.477882 222.670867 
L 458.805501 225.18004 
L 458.805501 222.62714 
L 459.13361 225.060613 
L 459.13361 222.589101 
L 459.461963 224.679213 
L 459.461963 222.461046 
L 459.789583 225.106571 
L 459.789583 222.642384 
L 460.122826 225.563186 
L 460.122826 223.564993 
L 460.450935 225.72433 
L 460.450935 223.673714 
L 460.779044 226.396523 
L 460.779044 224.217894 
L 461.107152 226.228952 
L 461.107152 224.051086 
L 461.435505 226.116094 
L 461.435505 223.574702 
L 461.763859 225.400652 
L 461.763859 222.773393 
L 462.092456 225.096066 
L 462.092456 223.184461 
L 462.42081 225.64648 
L 462.42081 223.490981 
L 462.749407 226.011088 
L 462.749407 223.567499 
L 463.08265 225.191343 
L 463.08265 222.77672 
L 463.411004 224.96849 
L 463.411004 223.422966 
L 463.74009 225.853527 
L 463.74009 224.316308 
L 464.068688 226.28811 
L 464.068688 224.675449 
L 464.397775 226.450493 
L 464.397775 224.089145 
L 464.726617 225.733817 
L 464.726617 224.172382 
L 465.060838 226.3216 
L 465.060838 224.444017 
L 465.38968 226.792556 
L 465.38968 224.865079 
L 465.7195 227.072644 
L 465.7195 224.938824 
L 466.049076 226.872838 
L 466.049076 225.017894 
L 466.379874 227.154846 
L 466.379874 225.101725 
L 466.709205 227.08007 
L 466.709205 225.110587 
L 467.038536 227.072468 
L 467.038536 225.449226 
L 467.368845 227.209415 
L 467.368845 225.362542 
L 467.699155 227.321348 
L 467.699155 225.425695 
L 468.028975 226.995191 
L 468.028975 225.882126 
L 468.359039 227.673281 
L 468.359039 225.771259 
L 468.689349 227.56968 
L 468.689349 226.011339 
L 469.020147 227.17706 
L 469.020147 225.925306 
L 469.3507 227.834273 
L 469.3507 226.681786 
L 469.681498 228.087585 
L 469.681498 226.907086 
L 470.017431 228.267859 
L 470.017431 227.115076 
L 470.348474 228.276946 
L 470.348474 227.291231 
L 470.678783 228.621625 
L 470.678783 227.394252 
L 471.009825 228.68296 
L 471.009825 227.503019 
L 471.340379 228.834886 
L 471.340379 227.537234 
L 471.670933 228.818263 
L 471.670933 227.332273 
L 472.007599 228.707204 
L 472.007599 227.642731 
L 472.33913 229.111763 
L 472.33913 227.897851 
L 472.669928 229.440757 
L 472.669928 228.3483 
L 473.001215 229.387333 
L 473.001215 228.174409 
L 473.332747 229.418073 
L 473.332747 228.469182 
L 473.665012 229.719527 
L 473.665012 228.354849 
L 473.996788 229.422742 
L 473.996788 228.098143 
L 474.328564 229.112781 
L 474.328564 227.984058 
L 474.660585 229.472071 
L 474.660585 228.470944 
L 474.997251 229.996242 
L 474.997251 229.008318 
L 475.328049 230.087412 
L 475.328049 229.058396 
L 475.659581 230.163709 
L 475.659581 229.003971 
L 475.990379 229.989099 
L 475.990379 229.015656 
L 476.320443 230.190121 
L 476.320443 229.362198 
L 476.650997 230.378106 
L 476.650997 229.432068 
L 476.981062 230.477879 
L 476.981062 229.388997 
L 477.311615 230.490119 
L 477.311615 229.519582 
L 477.641435 230.488305 
L 477.641435 229.380371 
L 477.971989 230.496836 
L 477.971989 229.38921 
L 478.302298 230.309497 
L 478.302298 229.307269 
L 478.632852 230.400298 
L 478.632852 229.270197 
L 478.96365 230.151159 
L 478.96365 229.333623 
L 479.295182 230.307312 
L 479.295182 228.939529 
L 479.62598 229.975407 
L 479.62598 229.057037 
L 479.962401 230.053406 
L 479.962401 229.426625 
L 480.293199 230.784607 
L 480.293199 229.791861 
L 480.623997 230.783166 
L 480.623997 229.842788 
L 480.960419 230.584079 
L 480.960419 229.727173 
L 481.29195 230.729127 
L 481.29195 230.030437 
L 481.623727 231.102367 
L 481.623727 230.454956 
L 481.956236 231.228906 
L 481.956236 230.253145 
L 482.28899 231.007245 
L 482.28899 230.075336 
L 482.620522 230.756038 
L 482.620522 230.371726 
L 482.951809 231.466803 
L 482.951809 230.784864 
L 483.282118 231.622534 
L 483.282118 230.962152 
L 483.611449 231.50025 
L 483.611449 230.866401 
L 483.94078 231.65252 
L 483.94078 231.258045 
L 484.269378 232.066484 
L 484.269378 231.487787 
L 484.597976 232.11289 
L 484.597976 231.369436 
L 484.932686 231.880483 
L 484.932686 231.36658 
L 485.261039 232.180458 
L 485.261039 231.562896 
L 485.589392 232.298575 
L 485.589392 231.670269 
L 485.917745 232.035319 
L 485.917745 231.297052 
L 486.246099 231.865337 
L 486.246099 231.395623 
L 486.574207 232.038744 
L 486.574207 231.71782 
L 486.902316 232.430338 
L 486.902316 232.005417 
L 487.230914 232.474036 
L 487.230914 231.833932 
L 487.559756 232.166232 
L 487.559756 231.516101 
L 487.887865 232.041691 
L 487.887865 231.34733 
L 488.216951 232.028311 
L 488.216951 231.430926 
L 488.545794 231.22522 
L 488.875125 231.275147 
L 489.2047 231.055923 
L 489.2047 231.125148 
L 489.534032 231.727266 
L 489.534032 230.757238 
L 489.868497 231.058508 
L 489.868497 230.584341 
L 490.202963 231.194424 
L 490.202963 230.705955 
L 490.533272 231.62728 
L 490.533272 231.30359 
L 490.862603 231.931104 
L 490.862603 231.144266 
L 491.192912 231.680504 
L 491.192912 230.816541 
L 491.523466 231.450818 
L 491.523466 230.723472 
L 491.854019 231.531233 
L 491.854019 230.92119 
L 492.18384 231.802459 
L 492.18384 231.134268 
L 492.514393 231.867353 
L 492.514393 231.108284 
L 492.844947 231.834051 
L 492.844947 231.036056 
L 493.175989 231.624271 
L 493.175989 230.966879 
L 493.507277 231.59816 
L 493.507277 230.855149 
L 493.838319 231.625414 
L 493.838319 231.255395 
L 494.169851 231.873484 
L 494.169851 231.321557 
L 494.500893 231.950856 
L 494.500893 231.075997 
L 494.838537 231.479253 
L 494.838537 230.730417 
L 495.169824 231.362629 
L 495.169824 230.756324 
L 495.501601 231.535389 
L 495.501601 231.020123 
L 495.832888 231.717634 
L 495.832888 231.055378 
L 496.164175 231.633637 
L 496.164175 230.900906 
L 496.496929 231.464408 
L 496.496929 231.106178 
L 496.829438 231.632656 
L 496.829438 230.838587 
L 497.16097 231.603313 
L 497.16097 230.852121 
L 497.492502 231.23422 
L 497.492502 230.724932 
L 497.83039 231.514591 
L 497.83039 230.967504 
L 498.162655 231.603253 
L 498.162655 230.718894 
L 498.495654 231.307811 
L 498.495654 230.459143 
L 498.828163 231.058637 
L 498.828163 230.353584 
L 499.161406 231.227472 
L 499.161406 230.594603 
L 499.494649 231.516073 
L 499.494649 230.896295 
L 499.834249 231.665527 
L 499.834249 230.825918 
L 500.167248 231.48012 
L 500.167248 230.739903 
L 500.498779 231.330942 
L 500.498779 230.552729 
L 500.831533 231.446589 
L 500.831533 230.758352 
L 501.16551 231.572798 
L 501.16551 230.786052 
L 501.498509 231.626206 
L 501.498509 230.765211 
L 501.831996 231.48037 
L 501.831996 230.687518 
L 502.164017 231.404495 
L 502.164017 230.662686 
L 502.496282 231.414057 
L 502.496282 230.532652 
L 502.830503 231.271348 
L 502.830503 230.504697 
L 503.162279 231.215304 
L 503.162279 230.511952 
L 503.497967 231.362608 
L 503.497967 230.87813 
L 503.831943 231.69295 
L 503.831943 230.910036 
L 504.164697 231.770228 
L 504.164697 231.193773 
L 504.501608 231.691303 
L 504.501608 231.233951 
L 504.842919 232.084393 
L 504.842919 231.365749 
L 505.175429 231.925588 
L 505.175429 231.077226 
L 505.508183 231.508903 
L 505.508183 230.895455 
L 505.842159 231.553511 
L 505.842159 230.886036 
L 506.176136 231.669178 
L 506.176136 230.990108 
L 506.508646 231.595998 
L 506.508646 231.029269 
L 506.845556 231.712651 
L 506.845556 230.889537 
L 507.178554 231.563845 
L 507.178554 230.857502 
L 507.511064 231.289101 
L 507.511064 230.454759 
L 507.843574 231.440951 
L 507.843574 230.791102 
L 508.175839 231.455054 
L 508.175839 230.901463 
L 508.507859 231.667319 
L 508.507859 230.653339 
L 508.840369 231.449752 
L 508.840369 230.889288 
L 509.172389 231.610185 
L 509.172389 231.108755 
L 509.503921 231.964019 
L 509.503921 231.277083 
L 509.841565 231.802145 
L 509.841565 231.133372 
L 510.173341 231.637528 
L 510.173341 231.022586 
L 510.505117 231.581113 
L 510.505117 231.136135 
L 510.836893 231.648441 
L 510.836893 231.062663 
L 511.171359 231.674324 
L 511.171359 231.068394 
L 511.503379 231.637323 
L 511.503379 231.258867 
L 511.838578 231.995899 
L 511.838578 231.205388 
L 512.170355 231.836362 
L 512.170355 231.099583 
L 512.503598 231.605902 
L 512.503598 230.741749 
L 512.835863 231.597511 
L 512.835863 231.009556 
L 513.168128 231.719556 
L 513.168128 230.97893 
L 513.501126 231.809339 
L 513.501126 231.172475 
L 513.83388 231.719324 
L 513.83388 230.913276 
L 514.183993 231.641174 
L 514.183993 230.933925 
L 514.526038 231.547394 
L 514.526038 230.941336 
L 514.86466 231.697895 
L 514.86466 230.962586 
L 515.19717 231.631815 
L 515.19717 230.85259 
L 515.52919 231.522834 
L 515.52919 230.746145 
L 515.863656 231.560809 
L 515.863656 230.921067 
L 516.196899 231.581131 
L 516.196899 231.071185 
L 516.529653 231.898036 
L 516.529653 231.060176 
L 516.861429 231.724728 
L 516.861429 231.321025 
L 517.194183 231.742293 
L 517.194183 231.043348 
L 517.526693 231.767443 
L 517.526693 231.088309 
L 517.858713 231.598027 
L 517.858713 231.058793 
L 518.190734 231.721399 
L 518.190734 230.792548 
L 518.523243 231.424747 
L 518.523243 230.776746 
L 518.855019 231.314252 
L 518.855019 230.805758 
L 519.187529 231.785417 
L 519.187529 231.135459 
L 519.521506 231.846171 
L 519.521506 231.305304 
L 519.858416 231.807471 
L 519.858416 231.073243 
L 520.191415 231.70948 
L 520.191415 231.127017 
L 520.524169 231.724273 
L 520.524169 231.220515 
L 520.856434 231.8647 
L 520.856434 231.156976 
L 521.190166 231.700468 
L 521.190166 231.075231 
L 521.524142 231.600266 
L 521.524142 230.940602 
L 521.856163 231.71493 
L 521.856163 231.044148 
L 522.189161 231.593734 
L 522.189161 230.69925 
L 522.521671 231.4816 
L 522.521671 230.816221 
L 522.853936 231.475285 
L 522.853936 230.973095 
L 523.187913 231.710367 
L 523.187913 231.004262 
L 523.525557 231.64253 
L 523.525557 230.977036 
L 523.865645 231.593253 
L 523.865645 231.26946 
L 524.200844 231.906374 
L 524.200844 231.41344 
L 524.533354 232.149702 
L 524.533354 231.526581 
L 524.872709 231.967957 
L 524.872709 231.30538 
L 525.205219 231.826745 
L 525.205219 231.241949 
L 525.536995 231.805583 
L 525.536995 231.127695 
L 525.86926 231.864771 
L 525.86926 231.226529 
L 526.202014 231.764894 
L 526.202014 231.238449 
L 526.535013 232.011533 
L 526.535013 231.2442 
L 526.535013 231.704962 
L 527.203699 231.435718 
L 527.203699 231.452587 
L 527.536453 231.527614 
L 527.536453 231.069053 
L 527.870674 231.687116 
L 527.870674 231.090613 
L 528.202939 231.783094 
L 528.202939 231.265799 
L 528.536427 231.895027 
L 528.536427 231.375607 
L 528.868448 232.037864 
L 528.868448 231.566941 
L 529.200468 232.240229 
L 529.200468 231.708543 
L 529.532978 232.227246 
L 529.532978 231.617065 
L 529.872822 232.060918 
L 529.872822 231.335407 
L 530.204598 231.831918 
L 530.204598 231.434901 
L 530.536863 232.056 
L 530.536863 231.411929 
L 530.870351 231.988091 
L 530.870351 231.131166 
L 531.203838 231.606405 
L 531.203838 231.097292 
L 531.542705 231.728175 
L 531.542705 231.176987 
L 531.875214 232.032519 
L 531.875214 231.416318 
L 532.209191 231.883384 
L 532.209191 231.540411 
L 532.543901 232.143675 
L 532.543901 231.437325 
L 532.875677 232.035582 
L 532.875677 231.434907 
L 533.20892 231.788128 
L 533.20892 230.978203 
L 533.54143 231.697353 
L 533.54143 231.15636 
L 533.875651 231.703848 
L 533.875651 231.298344 
L 534.207916 232.208154 
L 534.207916 231.624834 
L 534.540425 232.061188 
L 534.540425 231.489456 
L 534.878069 231.914081 
L 534.878069 231.351601 
L 535.21009 231.89932 
L 535.21009 231.224281 
L 535.541866 231.933453 
L 535.541866 231.471907 
L 535.874864 231.930235 
L 535.874864 231.309358 
L 536.207863 232.06423 
L 536.207863 231.358437 
L 536.539639 231.889998 
L 536.539639 231.296331 
L 536.872882 231.843449 
L 536.872882 231.395669 
L 537.205636 232.023973 
L 537.205636 231.41138 
L 537.537168 232.140904 
L 537.537168 231.840608 
L 537.870166 232.327363 
L 537.870166 231.75866 
L 538.202431 232.343481 
L 538.202431 231.840669 
L 538.534941 232.20398 
L 538.534941 231.585489 
L 538.867451 232.202194 
L 538.867451 231.695958 
L 539.201427 232.120003 
L 539.201427 231.5601 
L 539.536382 232.148556 
L 539.536382 231.507186 
L 539.87427 232.082153 
L 539.87427 231.512885 
L 540.208247 232.10874 
L 540.208247 231.334744 
L 540.540512 231.93626 
L 540.540512 231.265625 
L 540.873266 231.852578 
L 540.873266 231.282835 
L 541.205531 232.137826 
L 541.205531 231.606557 
L 541.537551 232.163115 
L 541.537551 231.547042 
L 541.869572 232.108461 
L 541.869572 231.510178 
L 542.207705 232.048896 
L 542.207705 231.349143 
L 542.540948 231.880527 
L 542.540948 231.236332 
L 542.872724 231.629472 
L 542.872724 231.013904 
L 543.206945 231.679198 
L 543.206945 231.062952 
L 543.540188 231.711366 
L 543.540188 231.377404 
L 543.872942 232.009376 
L 543.872942 231.455277 
L 544.204474 232.187129 
L 544.204474 231.708406 
L 544.204474 232.051929 
L 544.536983 232.12267 
L 544.536983 232.317138 
L 544.874627 232.306364 
L 545.206159 232.457841 
L 545.206159 231.949896 
L 545.537691 232.426252 
L 545.537691 231.918046 
L 545.868 232.375567 
L 545.868 232.001764 
L 546.198309 232.394775 
L 546.198309 231.98355 
L 546.530085 232.584043 
L 546.530085 232.17803 
L 546.860639 232.529724 
L 546.860639 232.16235 
L 547.191192 232.550178 
L 547.191192 232.084166 
L 547.52199 232.491146 
L 547.52199 232.039702 
L 547.853033 232.453513 
L 547.853033 232.004179 
L 548.183587 232.421165 
L 548.183587 231.901002 
L 548.514874 232.381682 
L 548.514874 231.826953 
L 548.846161 232.345982 
L 548.846161 231.82176 
L 549.177203 232.364352 
L 549.177203 231.906087 
L 549.509469 232.526045 
L 549.509469 232.070754 
L 549.847357 232.557754 
L 549.847357 232.175577 
L 550.179378 232.573275 
L 550.179378 232.059008 
L 550.517999 232.489202 
L 550.517999 231.985108 
L 550.852465 232.28324 
L 550.852465 231.787383 
L 551.184486 232.251043 
L 551.184486 231.677122 
L 551.518218 232.16792 
L 551.518218 231.636633 
L 551.850238 232.162819 
L 551.850238 231.632999 
L 552.184215 232.183845 
L 552.184215 231.581873 
L 552.51648 232.205816 
L 552.51648 231.606002 
L 552.848745 232.099901 
L 552.848745 231.591766 
L 553.181254 232.114392 
L 553.181254 231.634208 
L 553.513764 232.250406 
L 553.513764 231.702662 
L 553.845785 232.215192 
L 553.845785 231.74639 
L 554.178783 232.184764 
L 554.178783 231.660657 
L 554.512515 232.246047 
L 554.512515 231.578094 
L 554.850893 232.12466 
L 554.850893 231.61809 
L 555.183158 232.097683 
L 555.183158 231.754246 
L 555.516156 232.38379 
L 555.516156 231.848865 
L 555.849888 232.431153 
L 555.849888 232.028948 
L 556.183131 232.337701 
L 556.183131 231.730004 
L 556.515396 232.273072 
L 556.515396 231.747197 
L 556.84815 232.030961 
L 556.84815 231.591462 
L 557.179927 232.238218 
L 557.179927 231.82861 
L 557.513659 232.283894 
L 557.513659 232.005972 
L 557.845679 232.509813 
L 557.845679 232.060363 
L 558.178433 232.498166 
L 558.178433 232.13596 
L 558.511432 232.623027 
L 558.511432 232.193687 
L 559.178407 232.150503 
L 559.178407 231.972499 
L 559.512872 231.492468 
L 559.856629 231.887548 
L 559.856629 231.880591 
L 560.190116 231.863264 
L 560.190116 231.992161 
L 560.522626 232.466461 
L 560.522626 232.01369 
L 560.855624 232.547031 
L 560.855624 232.047416 
L 561.1874 232.501041 
L 561.1874 232.032651 
L 561.519177 232.534872 
L 561.519177 232.059081 
L 561.850708 232.63747 
L 561.850708 232.272302 
L 562.182973 232.788669 
L 562.182973 232.265356 
L 562.51695 232.689883 
L 562.51695 232.093477 
L 562.849948 232.48452 
L 562.849948 232.077544 
L 563.182458 232.572935 
L 563.182458 232.080922 
L 563.51619 232.545759 
L 563.51619 231.957 
L 563.848944 232.195873 
L 563.848944 231.825156 
L 564.181698 232.332447 
L 564.181698 232.042158 
L 564.513963 232.611639 
L 564.513963 232.400587 
L 564.851607 232.799061 
L 564.851607 232.363047 
L 565.185339 232.675194 
L 565.185339 232.250064 
L 565.518827 232.467697 
L 565.518827 232.096208 
L 565.85207 232.582213 
L 565.85207 232.23167 
L 566.185068 232.685679 
L 566.185068 232.341813 
L 566.517089 232.613615 
L 566.517089 232.022516 
L 566.849109 232.397675 
L 566.849109 231.917931 
L 567.180886 232.318301 
L 567.180886 231.881611 
L 567.513395 232.465013 
L 567.513395 231.999379 
L 567.846394 232.416258 
L 567.846394 232.0386 
L 568.178903 232.50889 
L 568.178903 231.971638 
L 568.511413 232.475303 
L 568.511413 232.144657 
L 568.849546 232.57026 
L 568.849546 232.224843 
L 569.1823 232.685512 
L 569.1823 232.312263 
L 569.516521 232.717885 
L 569.516521 232.185365 
L 569.854165 232.511255 
L 569.854165 231.956452 
L 570.187408 232.341506 
L 570.187408 231.890301 
L 570.519428 232.378988 
L 570.519428 232.007039 
L 570.852671 232.590372 
L 570.852671 232.161766 
L 571.184692 232.591508 
L 571.184692 232.177909 
L 571.520136 232.646922 
L 571.520136 232.1799 
L 571.852645 232.60162 
L 571.852645 232.144149 
L 572.186866 232.61153 
L 572.186866 232.2331 
L 572.520109 232.714748 
L 572.520109 232.438378 
L 572.852863 232.943855 
L 572.852863 232.50764 
L 573.185862 232.800157 
L 573.185862 232.437552 
L 573.518127 232.757014 
L 573.518127 232.202296 
L 573.850392 232.615534 
L 573.850392 232.277578 
L 574.18388 232.573203 
L 574.18388 232.299057 
L 574.518101 232.878551 
L 574.518101 232.482308 
L 574.855744 232.912859 
L 574.855744 232.664287 
L 575.18801 232.924767 
L 575.18801 232.476878 
L 575.520764 232.85211 
L 575.520764 232.433626 
L 575.85474 232.737929 
L 575.85474 232.361005 
L 576.187005 232.785748 
L 576.187005 232.58645 
L 576.51927 233.042205 
L 576.51927 232.774569 
L 576.85178 233.199289 
L 576.85178 232.767075 
L 577.185512 233.02782 
L 577.185512 232.774609 
L 577.516799 233.048945 
L 577.516799 232.713124 
L 577.847353 233.101491 
L 577.847353 232.779355 
L 578.177906 233.054431 
L 578.177906 232.803972 
L 578.512861 233.067702 
L 578.512861 232.854761 
L 578.843903 233.159326 
L 578.843903 232.901506 
L 578.843903 233.136252 
L 579.504277 233.11971 
L 579.504277 233.015868 
L 579.839476 233.070647 
L 579.839476 232.841253 
L 580.170763 233.098188 
L 580.170763 232.817053 
L 580.502295 233.015924 
L 580.502295 232.717951 
L 580.833093 232.925123 
L 580.833093 232.694856 
L 581.165358 232.927223 
L 581.165358 232.652734 
L 581.497868 232.952276 
L 581.497868 232.680008 
L 581.830377 232.928735 
L 581.830377 232.728014 
L 582.16362 233.097324 
L 582.16362 232.750173 
L 582.497108 233.06759 
L 582.497108 232.826354 
L 582.831573 233.106847 
L 582.831573 232.861056 
L 583.165061 233.247877 
L 583.165061 233.137964 
L 583.497571 233.242384 
L 583.82788 233.502889 
L 584.158189 233.641998 
L 584.487031 233.85341 
L 586.792105 234.055791 
L 587.775453 234.109353 
L 587.775453 233.981472 
L 588.431181 233.882305 
L 589.415508 234.155065 
L 589.415508 234.026258 
L 590.077593 233.933843 
L 590.077593 233.871543 
L 591.392473 233.775432 
L 591.392473 233.633352 
L 591.721559 233.534813 
L 592.380466 233.518999 
L 592.380466 233.503991 
L 592.710286 233.491492 
L 593.039373 233.322277 
L 593.369682 233.493174 
L 593.369682 233.19624 
L 593.698769 233.125723 
L 594.699965 233.546971 
L 594.699965 233.299899 
L 595.030519 233.399369 
L 595.030519 233.178634 
L 595.361317 233.456109 
L 595.361317 233.229876 
L 596.352733 233.099395 
L 596.352733 233.189226 
L 597.346105 233.130803 
L 597.346105 233.032349 
L 597.677148 233.282621 
L 597.677148 233.045216 
L 598.008924 233.333865 
L 598.008924 233.085235 
L 598.339967 233.318778 
L 598.339967 233.039218 
L 598.672965 233.156402 
L 598.672965 232.824871 
L 599.004741 233.095367 
L 599.004741 232.882582 
L 599.337251 233.174869 
L 599.337251 233.017489 
L 599.675384 233.274919 
L 599.675384 233.089374 
L 600.008382 233.333809 
L 600.008382 232.954457 
L 600.342115 233.149337 
L 600.342115 232.869317 
L 600.67438 233.033325 
L 600.67438 232.814083 
L 601.006889 233.144317 
L 601.006889 232.832759 
L 601.339154 233.181459 
L 601.339154 233.005117 
L 601.671908 233.202806 
L 601.671908 233.066742 
L 602.005151 233.41321 
L 602.005151 233.004362 
L 602.339617 233.153765 
L 602.339617 232.885912 
L 602.672371 233.05175 
L 602.672371 232.692148 
L 603.012949 233.032028 
L 603.012949 232.645769 
L 603.346925 232.855702 
L 603.346925 232.047556 
L 603.678701 232.166768 
L 603.678701 231.100426 
L 604.011456 230.641886 
L 604.011456 227.126034 
L 604.346899 226.428086 
L 604.346899 220.240917 
L 604.684787 218.416613 
L 604.684787 211.014598 
L 605.016319 211.056969 
L 605.016319 198.078495 
L 605.345406 199.89153 
L 605.345406 183.208543 
L 605.674003 185.094236 
L 605.674003 161.2062 
L 606.001623 165.625283 
L 606.001623 139.649524 
L 606.329243 145.398306 
L 606.329243 115.901639 
L 606.656374 130.324315 
L 606.656374 101.655838 
L 606.983504 121.368623 
L 606.983504 87.797307 
L 607.31088 108.599223 
L 607.31088 76.715858 
L 607.637766 99.607166 
L 607.637766 59.708355 
L 607.964652 93.761581 
L 607.964652 52.646135 
L 608.291294 80.29784 
L 608.291294 53.042493 
L 608.617936 86.66958 
L 608.617936 49.932727 
L 608.944822 95.29835 
L 608.944822 65.100327 
L 609.271464 93.38357 
L 609.271464 65.278752 
L 609.603729 105.008594 
L 609.603729 69.91926 
L 609.930859 103.201749 
L 609.930859 79.101257 
L 610.257746 112.425417 
L 610.257746 90.444248 
L 610.584876 125.693869 
L 610.584876 108.735311 
L 610.911763 139.458091 
L 610.911763 117.596018 
L 611.238893 143.015446 
L 611.238893 122.475048 
L 611.57067 145.808156 
L 611.57067 125.840752 
L 611.8978 153.445686 
L 611.8978 132.998923 
L 612.22542 157.207562 
L 612.22542 141.195244 
L 612.552795 161.025186 
L 612.552795 145.247306 
L 612.880659 166.137126 
L 612.880659 151.94614 
L 613.208035 168.94302 
L 613.208035 158.652182 
L 613.535654 175.050147 
L 613.535654 160.508946 
L 613.86303 176.884686 
L 613.86303 164.237642 
L 614.191138 175.499272 
L 614.191138 161.570422 
L 614.524626 178.508665 
L 614.524626 167.41385 
L 614.852735 183.112319 
L 614.852735 173.885713 
L 615.181088 189.065969 
L 615.181088 175.027189 
L 615.509197 187.290683 
L 615.509197 175.94599 
L 615.838039 187.933431 
L 615.838039 176.491539 
L 616.166147 190.115445 
L 616.166147 180.746809 
L 616.494745 192.536079 
L 616.494745 182.244433 
L 616.823098 195.212565 
L 616.823098 187.315662 
L 617.151696 197.688098 
L 617.151696 189.457072 
L 617.479805 201.530425 
L 617.479805 191.251946 
L 617.808403 201.049574 
L 617.808403 191.638638 
L 618.137245 200.199893 
L 618.137245 192.724175 
L 618.465842 203.050467 
L 618.465842 193.850271 
L 618.794929 202.580819 
L 618.794929 196.994222 
L 619.123771 204.363769 
L 619.123771 197.675979 
L 619.458726 207.247353 
L 619.458726 200.618551 
L 619.787323 207.29825 
L 619.787323 201.590498 
L 620.11641 208.73123 
L 620.11641 203.318045 
L 620.445497 210.662203 
L 620.445497 204.328228 
L 620.775317 210.700122 
L 620.775317 203.235151 
L 621.105137 208.527514 
L 621.105137 203.790436 
L 621.439847 210.071041 
L 621.439847 203.718189 
L 621.769423 211.318628 
L 621.769423 206.341227 
L 622.101199 211.655793 
L 622.101199 205.995188 
L 622.431753 213.060392 
L 622.431753 207.719341 
L 622.762062 213.70864 
L 622.762062 208.596867 
L 623.092126 214.196825 
L 623.092126 208.968676 
L 623.421947 215.154507 
L 623.421947 210.657753 
L 623.752989 216.570344 
L 623.752989 213.56197 
L 624.082809 218.739612 
L 624.082809 213.939895 
L 624.418742 218.440544 
L 624.418742 213.643338 
L 624.749784 216.536869 
L 624.749784 213.383632 
L 625.081316 218.182725 
L 625.081316 214.546437 
L 625.411625 219.27588 
L 625.411625 216.401086 
L 625.742912 219.776827 
L 625.742912 217.072491 
L 626.074444 220.840725 
L 626.074444 217.606369 
L 626.40622 221.665628 
L 626.40622 218.677958 
L 626.737263 221.60588 
L 626.737263 219.156443 
L 627.06855 222.53747 
L 627.06855 219.941715 
L 627.399837 223.514364 
L 627.399837 220.688835 
L 627.733324 223.300297 
L 627.733324 220.820188 
L 628.065834 223.417919 
L 628.065834 221.397326 
L 628.398099 224.438813 
L 628.398099 221.922131 
L 628.730364 224.447133 
L 628.730364 222.477155 
L 629.063852 224.295809 
L 629.063852 222.739762 
L 629.402963 225.808805 
L 629.402963 224.197636 
L 629.735472 226.190978 
L 629.735472 224.691422 
L 630.067737 226.527114 
L 630.067737 224.182815 
L 630.40098 226.013392 
L 630.40098 224.46491 
L 630.739358 226.415508 
L 630.739358 224.375827 
L 631.072601 226.378485 
L 631.072601 224.88876 
L 631.407555 226.567621 
L 631.407555 225.059089 
L 631.740554 227.033305 
L 631.740554 225.840969 
L 632.073308 227.800039 
L 632.073308 226.380109 
L 632.405573 227.896455 
L 632.405573 226.552278 
L 632.740038 228.136547 
L 632.740038 226.48666 
L 633.074748 228.266642 
L 633.074748 227.107851 
L 633.407503 228.817957 
L 633.407503 227.482039 
L 633.740746 229.144755 
L 633.740746 227.774601 
L 634.075211 228.902309 
L 634.075211 227.199179 
L 634.416767 228.488122 
L 634.416767 227.192716 
L 634.750743 228.590633 
L 634.750743 227.368046 
L 635.083986 229.003694 
L 635.083986 227.988964 
L 635.417718 229.240202 
L 635.417718 228.123379 
L 635.749984 229.482718 
L 635.749984 228.394336 
L 636.084694 229.517197 
L 636.084694 228.603625 
L 636.418181 229.593368 
L 636.418181 228.668307 
L 636.751913 229.600607 
L 636.751913 228.572179 
L 637.08809 229.70894 
L 637.08809 228.928129 
L 637.421822 229.784748 
L 637.421822 228.878336 
L 637.756532 229.892854 
L 637.756532 229.172617 
L 638.090509 230.086324 
L 638.090509 229.226031 
L 638.424241 230.275286 
L 638.424241 229.421405 
L 638.758951 230.104711 
L 638.758951 229.42105 
L 639.093172 230.49477 
L 639.093172 229.928381 
L 639.431549 231.01608 
L 639.431549 230.279245 
L 639.763081 230.946824 
L 639.763081 230.169018 
L 640.101458 230.892531 
L 640.101458 230.136514 
L 640.434701 230.872038 
L 640.434701 230.40666 
L 640.766477 231.284862 
L 640.766477 230.418094 
L 641.099476 231.158831 
L 641.099476 230.522122 
L 641.431741 231.175136 
L 641.431741 230.467656 
L 641.764495 231.359427 
L 641.764495 230.772678 
L 642.09945 231.458928 
L 642.09945 230.68655 
L 642.432937 231.389269 
L 642.432937 230.653085 
L 642.766914 231.253625 
L 642.766914 230.696133 
L 643.101135 231.520644 
L 643.101135 230.893141 
L 643.434378 231.699571 
L 643.434378 230.84551 
L 643.76811 231.476149 
L 643.76811 230.671232 
L 644.10282 231.379596 
L 644.10282 230.689381 
L 644.441442 231.479186 
L 644.441442 230.896178 
L 644.774929 231.626563 
L 644.774929 231.013382 
L 645.108172 231.684267 
L 645.108172 230.952524 
L 645.440437 231.510147 
L 645.440437 230.873589 
L 645.775881 231.419622 
L 645.775881 230.489804 
L 646.110346 231.381231 
L 646.110346 230.771724 
L 646.444078 231.476365 
L 646.444078 230.974724 
L 646.780011 231.841418 
L 646.780011 231.242381 
L 647.115699 231.843097 
L 647.115699 231.348246 
L 647.449675 231.935347 
L 647.449675 231.164143 
L 647.783896 231.640234 
L 647.783896 230.897512 
L 648.119095 231.447483 
L 648.119095 230.913091 
L 648.45625 231.84524 
L 648.45625 231.329896 
L 648.790227 232.172286 
L 648.790227 231.60761 
L 649.126159 232.165016 
L 649.126159 231.448247 
L 649.464781 232.067129 
L 649.464781 231.617335 
L 649.806337 232.144374 
L 649.806337 231.49978 
L 650.140313 232.070358 
L 650.140313 231.590035 
L 650.473068 232.075462 
L 650.473068 231.664214 
L 650.808022 232.297029 
L 650.808022 231.744073 
L 651.142977 232.219123 
L 651.142977 231.751428 
L 651.476709 232.144753 
L 651.476709 231.507877 
L 651.810685 232.178662 
L 651.810685 231.743527 
L 652.14564 232.243407 
L 652.14564 231.825386 
L 652.479372 232.296226 
L 652.479372 231.820341 
L 652.813593 232.19746 
L 652.813593 231.609285 
L 653.148303 232.145117 
L 653.148303 231.918827 
L 653.480812 232.446199 
L 653.480812 232.193525 
L 653.817234 232.719265 
L 653.817234 232.288674 
L 654.493011 232.251718 
L 654.493011 232.128649 
L 654.829432 232.136181 
L 655.164386 232.51486 
L 655.164386 232.027509 
L 655.497874 232.497651 
L 655.497874 232.24671 
L 655.832584 232.627726 
L 655.832584 232.273435 
L 656.16705 232.803511 
L 656.16705 232.468235 
L 656.500782 232.654989 
L 656.500782 232.295519 
L 656.834514 232.680867 
L 656.834514 232.228809 
L 657.169468 232.592436 
L 657.169468 232.26891 
L 657.504912 232.666125 
L 657.504912 232.378145 
L 657.83791 232.798962 
L 657.83791 232.389982 
L 658.174821 232.847416 
L 658.174821 232.498423 
L 658.510753 232.795123 
L 658.510753 232.446994 
L 658.851575 232.934081 
L 658.851575 232.603556 
L 659.186774 232.92039 
L 659.186774 232.570786 
L 659.527841 232.951966 
L 659.527841 232.52094 
L 659.864018 232.786394 
L 659.864018 232.435232 
L 660.201907 232.732408 
L 660.201907 232.2992 
L 660.535883 232.53719 
L 660.535883 232.187116 
L 660.870838 232.589418 
L 660.870838 232.234045 
L 661.204814 232.540776 
L 661.204814 232.269675 
L 661.540747 232.664362 
L 661.540747 232.331167 
L 661.875457 232.757963 
L 661.875457 232.388155 
L 662.209922 232.833011 
L 662.209922 232.516055 
L 662.545366 232.790291 
L 662.545366 232.452794 
L 663.214541 232.462991 
L 663.214541 232.37639 
L 663.550718 232.457934 
L 663.884695 232.885532 
L 663.884695 232.457604 
L 664.218671 232.912315 
L 664.218671 232.605206 
L 664.560227 232.900672 
L 664.560227 232.591169 
L 664.895426 233.03021 
L 664.895426 232.645883 
L 665.232581 233.027245 
L 665.232581 232.744182 
L 665.56998 233.044183 
L 665.56998 232.825414 
L 665.905424 233.257937 
L 665.905424 233.012196 
L 666.239645 233.210323 
L 666.239645 232.952697 
L 666.574599 233.195794 
L 666.574599 232.778743 
L 666.909065 233.031453 
L 666.909065 232.765011 
L 667.243286 233.096767 
L 667.243286 232.888416 
L 667.577507 233.220049 
L 667.577507 232.864914 
L 667.914906 233.198667 
L 667.914906 232.757636 
L 668.251083 232.946057 
L 668.251083 232.629334 
L 668.590683 232.996086 
L 668.590683 232.686759 
L 668.926371 233.115536 
L 668.926371 232.876081 
L 669.262304 233.276313 
L 669.262304 232.977309 
L 669.603126 233.278052 
L 669.603126 233.127904 
L 669.94077 233.371819 
L 669.94077 232.972689 
L 670.276213 233.258729 
L 670.276213 232.923861 
L 670.611657 233.064734 
L 670.611657 232.851812 
L 670.946122 233.18655 
L 670.946122 232.820984 
L 671.280832 233.098931 
L 671.280832 232.968429 
L 671.616276 233.177772 
L 671.616276 232.945389 
L 671.951719 233.295446 
L 671.951719 233.116922 
L 672.28863 232.98527 
L 672.960006 232.976616 
L 673.297894 233.265301 
L 673.297894 232.979008 
L 673.636027 233.250901 
L 673.636027 232.919217 
L 673.972448 233.173714 
L 673.972448 232.947438 
L 674.308136 233.228257 
L 674.308136 233.029412 
L 674.649692 233.338957 
L 674.649692 233.154019 
L 674.985869 233.352178 
L 674.985869 233.192912 
L 675.321802 233.442863 
L 675.321802 233.34538 
L 675.657734 233.503153 
L 675.657734 233.321048 
L 675.997578 233.441242 
L 675.997578 233.107634 
L 676.333266 233.172546 
L 676.333266 232.946933 
L 676.669932 233.124593 
L 676.669932 232.808157 
L 677.004887 233.169733 
L 677.004887 232.865337 
L 677.339841 233.116879 
L 677.339841 232.964153 
L 677.678219 233.301649 
L 677.678219 233.083844 
L 678.01464 233.374143 
L 678.01464 233.123283 
L 678.350573 233.265476 
L 678.350573 232.999101 
L 678.685283 233.227172 
L 678.685283 232.912636 
L 679.021949 233.156414 
L 679.021949 232.950463 
L 679.356659 233.23929 
L 679.356659 232.954721 
L 679.697725 233.331768 
L 679.697725 233.097914 
L 680.033658 233.36037 
L 680.033658 233.095914 
L 680.36959 233.393014 
L 680.36959 233.150873 
L 680.705767 233.340527 
L 680.705767 233.186786 
L 681.043167 233.412666 
L 681.043167 233.185553 
L 682.048519 233.072627 
L 682.048519 233.089874 
L 682.383229 233.368841 
L 682.383229 233.233284 
L 682.720384 233.251797 
L 683.056561 232.992698 
L 683.391516 233.169614 
L 683.391516 232.915052 
L 684.063381 233.479305 
L 684.063381 233.21768 
L 684.749671 233.292372 
L 684.749671 233.238234 
L 685.085603 233.25759 
L 685.085603 233.404623 
L 685.419824 233.603194 
L 685.419824 233.403959 
L 685.755023 233.499342 
L 685.755023 233.25556 
L 686.092667 233.402177 
L 686.092667 233.268639 
L 686.764776 233.619787 
L 686.764776 233.374471 
L 687.103887 233.481662 
L 687.103887 233.258996 
L 688.114863 233.717764 
L 688.114863 233.617458 
L 688.449818 233.741389 
L 688.449818 233.63242 
L 688.787461 233.71834 
L 688.787461 233.53143 
L 689.125594 233.66854 
L 689.125594 233.435833 
L 689.46226 233.557602 
L 689.46226 233.432632 
L 689.804061 233.575031 
L 689.804061 233.376912 
L 690.145372 233.597025 
L 690.145372 233.459128 
L 690.481549 233.561219 
L 690.481549 233.456497 
L 691.495214 233.500385 
L 691.495214 233.524458 
L 691.834569 233.726598 
L 691.834569 233.540806 
L 692.173436 233.665189 
L 692.173436 233.540395 
L 692.51817 233.63249 
L 692.51817 233.511568 
L 692.51817 233.681514 
L 693.53208 233.711352 
L 693.53208 233.54561 
L 693.868012 233.665409 
L 693.868012 233.45495 
L 694.205901 233.651357 
L 694.205901 233.426079 
L 694.542322 233.612062 
L 694.542322 233.458154 
L 694.883389 233.69849 
L 694.883389 233.580383 
L 695.222989 233.764264 
L 695.222989 233.619281 
L 695.898032 233.555991 
L 696.234698 233.570814 
L 696.234698 233.55943 
L 696.572586 233.778889 
L 696.572586 233.66711 
L 696.910475 233.81165 
L 696.910475 233.630153 
L 697.246896 233.776794 
L 697.246896 233.666355 
L 697.585518 233.76202 
L 697.585518 233.551739 
L 697.923651 233.765798 
L 697.923651 233.623659 
L 698.597227 233.845894 
L 698.597227 233.673911 
L 698.932915 233.828112 
L 698.932915 233.736298 
L 699.273249 233.80924 
L 699.273249 233.608838 
L 700.978338 233.423108 
L 702.331359 233.842375 
L 702.331359 233.736488 
L 702.669003 233.873217 
L 702.669003 233.749047 
L 703.00738 233.877578 
L 703.00738 233.755821 
L 703.345269 233.866822 
L 703.345269 233.64918 
L 704.017623 233.793721 
L 704.017623 233.736432 
L 704.352822 233.92888 
L 704.352822 233.88613 
L 705.708287 233.774516 
L 705.708287 233.706109 
L 706.04862 233.803557 
L 707.062041 233.912558 
L 707.062041 233.724614 
L 707.738307 233.83397 
L 707.738307 233.737588 
L 708.078151 233.820053 
L 708.418729 233.705675 
L 708.757595 233.762025 
L 708.757595 233.628656 
L 709.438996 233.644414 
L 709.438996 233.685994 
L 710.122107 233.862411 
L 710.122107 233.842719 
L 710.79984 233.758118 
L 710.79984 233.899599 
L 711.140173 233.909559 
L 711.140173 233.804074 
L 711.480507 233.695954 
L 711.818395 233.785635 
L 711.818395 233.707686 
L 712.156772 233.670045 
L 712.156772 233.699263 
L 712.494905 233.830377 
L 712.494905 233.728054 
L 713.849637 233.878819 
L 713.849637 233.741946 
L 714.189971 233.867626 
L 714.189971 233.832431 
L 715.212193 233.831741 
L 715.212193 233.827397 
L 715.551059 233.721199 
L 716.232949 233.812866 
L 716.576705 233.975117 
L 716.576705 233.85172 
L 717.255171 233.758934 
L 717.593304 233.757916 
L 717.593304 233.765442 
L 717.931681 233.961909 
L 717.931681 233.923393 
L 718.610637 234.021757 
L 718.610637 233.916527 
L 719.629192 233.759885 
L 720.310347 233.832006 
L 720.310347 233.789437 
L 720.990036 233.944404 
L 720.990036 233.893161 
L 721.329147 233.962579 
L 721.329147 233.848833 
L 722.007613 233.923789 
L 722.007613 233.813773 
L 722.686324 233.968994 
L 722.686324 233.863045 
L 722.686324 233.930412 
L 723.026657 233.815921 
L 723.36699 233.902968 
L 723.36699 233.764792 
L 724.044234 233.971806 
L 724.044234 233.844675 
L 724.382856 233.96716 
L 724.382856 233.883554 
L 726.76739 233.864623 
L 726.76739 233.919071 
L 727.446834 234.007442 
L 727.446834 233.870719 
L 728.122855 233.925395 
L 728.122855 233.861801 
L 728.462944 233.958442 
L 728.462944 233.804891 
L 729.139455 233.93541 
L 729.139455 233.788984 
L 729.479299 233.918119 
L 729.479299 233.805103 
L 731.521788 233.988641 
L 731.521788 233.919698 
L 732.20221 233.924634 
L 732.20221 233.994224 
L 733.895075 234.003455 
L 733.895075 233.896442 
L 734.232474 233.983094 
L 734.232474 233.894744 
L 735.601387 234.019146 
L 736.615297 233.932104 
L 737.291562 234.125052 
L 739.664605 233.893345 
L 739.664605 233.903285 
L 740.683894 234.032536 
L 740.683894 234.001009 
L 741.693891 234.032926 
L 741.693891 233.958398 
L 742.372847 233.926367 
L 742.372847 233.966945 
L 743.056936 233.978292 
L 743.733691 234.062378 
L 743.733691 234.006899 
L 745.079377 233.880432 
L 745.760044 233.804944 
L 746.439977 234.003598 
L 746.439977 233.941207 
L 747.115265 234.006947 
L 747.115265 233.972815 
L 748.799572 234.057106 
L 748.799572 234.040049 
L 751.165525 233.937113 
L 751.165525 234.027247 
L 752.180168 234.095647 
L 752.180168 234.053008 
L 755.215785 233.860808 
L 755.215785 233.894464 
L 755.895229 234.071401 
L 756.231895 233.959418 
L 758.596869 234.092546 
L 758.596869 234.048307 
L 760.626155 234.131858 
L 760.626155 234.145955 
L 762.663021 233.925274 
L 762.663021 233.998871 
L 763.337575 233.903332 
L 763.337575 233.999209 
L 763.674975 233.939519 
L 763.674975 233.970391 
L 764.012863 234.117744 
L 764.350507 234.006307 
L 764.350507 234.070077 
L 765.360016 233.988511 
L 765.694726 234.089751 
L 765.694726 234.020128 
L 766.034815 234.004794 
L 766.034815 234.025068 
L 766.373437 234.134345 
L 766.373437 234.081655 
L 767.381479 234.004588 
L 767.381479 233.880424 
L 769.078989 234.167771 
L 769.078989 234.103149 
L 771.444697 234.063711 
L 771.444697 234.098299 
L 771.781118 233.990774 
L 772.79185 234.042864 
L 773.802092 234.084857 
L 773.802092 233.955303 
L 773.802092 234.028198 
L 774.8094 234.067048 
L 774.8094 234.096406 
L 775.145088 234.127919 
L 775.145088 234.067798 
L 775.820132 233.914126 
L 776.842354 233.978375 
L 778.865284 234.071974 
L 778.865284 234.05526 
L 780.209258 234.108167 
L 780.209258 234.075068 
L 781.225124 234.060557 
L 781.225124 234.073754 
L 781.225124 234.156675 
L 782.230476 234.078997 
L 782.230476 233.964389 
L 783.579829 234.046023 
L 783.579829 233.975929 
L 784.250961 234.090927 
L 784.250961 234.022609 
L 784.587871 234.084516 
L 784.587871 234.059089 
L 785.258514 233.946137 
L 785.258514 233.988249 
L 785.603737 233.970084 
L 785.603737 233.980767 
L 786.278536 234.114589 
L 786.278536 234.097609 
L 787.624711 233.96851 
L 788.632264 233.972169 
L 789.30095 233.741597 
L 789.633704 233.728934 
L 789.633704 233.786412 
L 789.967192 233.915414 
L 790.630499 234.108056 
L 790.630499 234.059795 
L 795.580736 234.133322 
L 795.580736 234.104703 
L 796.90075 233.95419 
L 797.887276 233.986506 
L 798.215385 233.924986 
L 799.201423 234.105327 
L 799.201423 234.025255 
L 800.188194 234.135853 
L 801.180344 233.972331 
L 801.180344 234.020884 
L 801.838517 234.090683 
L 802.496201 234.057421 
L 805.796115 234.043801 
L 805.796115 234.031242 
L 807.120774 234.032351 
L 807.120774 234.070497 
L 808.111212 234.008738 
L 808.111212 234.050892 
L 808.770364 234.149964 
L 808.770364 234.100512 
L 809.762025 234.123722 
L 809.762025 234.162163 
L 810.093556 234.226578 
L 810.093556 234.18695 
L 812.413055 234.060054 
L 812.743364 233.982239 
L 813.747494 234.107918 
L 815.126676 234.34521 
L 816.515392 234.347712 
L 816.515392 234.347712 
" clip-path="url(#pd6d905e6f5)" style="fill: none; stroke: #008000; stroke-width: 1.5; stroke-linecap: square"/>
   </g>
   <g id="patch_3">
    <path d="M 47.72 534.04 
L 47.72 26.88 
" style="fill: none; stroke: #000000; stroke-width: 0.8; stroke-linejoin: miter; stroke-linecap: square"/>
   </g>
   <g id="patch_4">
    <path d="M 853.2 534.04 
L 853.2 26.88 
" style="fill: none; stroke: #000000; stroke-width: 0.8; stroke-linejoin: miter; stroke-linecap: square"/>
   </g>
   <g id="patch_5">
    <path d="M 47.72 534.04 
L 853.2 534.04 
" style="fill: none; stroke: #000000; stroke-width: 0.8; stroke-linejoin: miter; stroke-linecap: square"/>
   </g>
   <g id="patch_6">
    <path d="M 47.72 26.88 
L 853.2 26.88 
" style="fill: none; stroke: #000000; stroke-width: 0.8; stroke-linejoin: miter; stroke-linecap: square"/>
   </g>
   <g id="patch_7">
    <path d="M 676.879853 467.640382 
Q 650.728559 473.474244 624.577265 479.308107 
L 625.448182 483.212144 
Q 618.940402 481.590166 612.432622 479.968188 
Q 617.634026 475.734111 622.835431 471.500033 
L 623.706348 475.40407 
Q 649.857642 469.570208 676.008936 463.736345 
L 676.879853 467.640382 
z
" style="stroke: #000000; stroke-linecap: round"/>
   </g>
   <g id="text_15">
    <!-- Peak: RT=3.58, Area=1.28e+04 -->
    <g style="fill: #ff0000" transform="translate(682.116488 451.145526) scale(0.1 -0.1)">
     <defs>
      <path id="DejaVuSans-50" d="M 1259 4147 
L 1259 2394 
L 2053 2394 
Q 2494 2394 2734 2622 
Q 2975 2850 2975 3272 
Q 2975 3691 2734 3919 
Q 2494 4147 2053 4147 
L 1259 4147 
z
M 628 4666 
L 2053 4666 
Q 2838 4666 3239 4311 
Q 3641 3956 3641 3272 
Q 3641 2581 3239 2228 
Q 2838 1875 2053 1875 
L 1259 1875 
L 1259 0 
L 628 0 
L 628 4666 
z
" transform="scale(0.015625)"/>
      <path id="DejaVuSans-6b" d="M 581 4863 
L 1159 4863 
L 1159 1991 
L 2875 3500 
L 3609 3500 
L 1753 1863 
L 3688 0 
L 2938 0 
L 1159 1709 
L 1159 0 
L 581 0 
L 581 4863 
z
" transform="scale(0.015625)"/>
      <path id="DejaVuSans-3a" d="M 750 794 
L 1409 794 
L 1409 0 
L 750 0 
L 750 794 
z
M 750 3309 
L 1409 3309 
L 1409 2516 
L 750 2516 
L 750 3309 
z
" transform="scale(0.015625)"/>
      <path id="DejaVuSans-3d" d="M 678 2906 
L 4684 2906 
L 4684 2381 
L 678 2381 
L 678 2906 
z
M 678 1631 
L 4684 1631 
L 4684 1100 
L 678 1100 
L 678 1631 
z
" transform="scale(0.015625)"/>
      <path id="DejaVuSans-38" d="M 2034 2216 
Q 1584 2216 1326 1975 
Q 1069 1734 1069 1313 
Q 1069 891 1326 650 
Q 1584 409 2034 409 
Q 2484 409 2743 651 
Q 3003 894 3003 1313 
Q 3003 1734 2745 1975 
Q 2488 2216 2034 2216 
z
M 1403 2484 
Q 997 2584 770 2862 
Q 544 3141 544 3541 
Q 544 4100 942 4425 
Q 1341 4750 2034 4750 
Q 2731 4750 3128 4425 
Q 3525 4100 3525 3541 
Q 3525 3141 3298 2862 
Q 3072 2584 2669 2484 
Q 3125 2378 3379 2068 
Q 3634 1759 3634 1313 
Q 3634 634 3220 271 
Q 2806 -91 2034 -91 
Q 1263 -91 848 271 
Q 434 634 434 1313 
Q 434 1759 690 2068 
Q 947 2378 1403 2484 
z
M 1172 3481 
Q 1172 3119 1398 2916 
Q 1625 2713 2034 2713 
Q 2441 2713 2670 2916 
Q 2900 3119 2900 3481 
Q 2900 3844 2670 4047 
Q 2441 4250 2034 4250 
Q 1625 4250 1398 4047 
Q 1172 3844 1172 3481 
z
" transform="scale(0.015625)"/>
      <path id="DejaVuSans-2c" d="M 750 794 
L 1409 794 
L 1409 256 
L 897 -744 
L 494 -744 
L 750 256 
L 750 794 
z
" transform="scale(0.015625)"/>
      <path id="DejaVuSans-41" d="M 2188 4044 
L 1331 1722 
L 3047 1722 
L 2188 4044 
z
M 1831 4666 
L 2547 4666 
L 4325 0 
L 3669 0 
L 3244 1197 
L 1141 1197 
L 716 0 
L 50 0 
L 1831 4666 
z
" transform="scale(0.015625)"/>
      <path id="DejaVuSans-2b" d="M 2944 4013 
L 2944 2272 
L 4684 2272 
L 4684 1741 
L 2944 1741 
L 2944 0 
L 2419 0 
L 2419 1741 
L 678 1741 
L 678 2272 
L 2419 2272 
L 2419 4013 
L 2944 4013 
z
" transform="scale(0.015625)"/>
     </defs>
     <use xlink:href="#DejaVuSans-50"/>
     <use xlink:href="#DejaVuSans-65" transform="translate(56.677734 0)"/>
     <use xlink:href="#DejaVuSans-61" transform="translate(118.201172 0)"/>
     <use xlink:href="#DejaVuSans-6b" transform="translate(179.480469 0)"/>
     <use xlink:href="#DejaVuSans-3a" transform="translate(237.390625 0)"/>
     <use xlink:href="#DejaVuSans-20" transform="translate(271.082031 0)"/>
     <use xlink:href="#DejaVuSans-52" transform="translate(302.869141 0)"/>
     <use xlink:href="#DejaVuSans-54" transform="translate(365.101562 0)"/>
     <use xlink:href="#DejaVuSans-3d" transform="translate(426.185547 0)"/>
     <use xlink:href="#DejaVuSans-33" transform="translate(509.974609 0)"/>
     <use xlink:href="#DejaVuSans-2e" transform="translate(573.597656 0)"/>
     <use xlink:href="#DejaVuSans-35" transform="translate(605.384766 0)"/>
     <use xlink:href="#DejaVuSans-38" transform="translate(669.007812 0)"/>
     <use xlink:href="#DejaVuSans-2c" transform="translate(732.630859 0)"/>
     <use xlink:href="#DejaVuSans-20" transform="translate(764.417969 0)"/>
     <use xlink:href="#DejaVuSans-41" transform="translate(796.205078 0)"/>
     <use xlink:href="#DejaVuSans-72" transform="translate(864.613281 0)"/>
     <use xlink:href="#DejaVuSans-65" transform="translate(903.476562 0)"/>
     <use xlink:href="#DejaVuSans-61" transform="translate(965 0)"/>
     <use xlink:href="#DejaVuSans-3d" transform="translate(1026.279297 0)"/>
     <use xlink:href="#DejaVuSans-31" transform="translate(1110.068359 0)"/>
     <use xlink:href="#DejaVuSans-2e" transform="translate(1173.691406 0)"/>
     <use xlink:href="#DejaVuSans-32" transform="translate(1205.478516 0)"/>
     <use xlink:href="#DejaVuSans-38" transform="translate(1269.101562 0)"/>
     <use xlink:href="#DejaVuSans-65" transform="translate(1332.724609 0)"/>
     <use xlink:href="#DejaVuSans-2b" transform="translate(1394.248047 0)"/>
     <use xlink:href="#DejaVuSans-30" transform="translate(1478.037109 0)"/>
     <use xlink:href="#DejaVuSans-34" transform="translate(1541.660156 0)"/>
    </g>
    <!-- (14.03% of total) -->
    <g style="fill: #ff0000" transform="translate(682.116488 462.343339) scale(0.1 -0.1)">
     <defs>
      <path id="DejaVuSans-25" d="M 4653 2053 
Q 4381 2053 4226 1822 
Q 4072 1591 4072 1178 
Q 4072 772 4226 539 
Q 4381 306 4653 306 
Q 4919 306 5073 539 
Q 5228 772 5228 1178 
Q 5228 1588 5073 1820 
Q 4919 2053 4653 2053 
z
M 4653 2450 
Q 5147 2450 5437 2106 
Q 5728 1763 5728 1178 
Q 5728 594 5436 251 
Q 5144 -91 4653 -91 
Q 4153 -91 3862 251 
Q 3572 594 3572 1178 
Q 3572 1766 3864 2108 
Q 4156 2450 4653 2450 
z
M 1428 4353 
Q 1159 4353 1004 4120 
Q 850 3888 850 3481 
Q 850 3069 1003 2837 
Q 1156 2606 1428 2606 
Q 1700 2606 1854 2837 
Q 2009 3069 2009 3481 
Q 2009 3884 1853 4118 
Q 1697 4353 1428 4353 
z
M 4250 4750 
L 4750 4750 
L 1831 -91 
L 1331 -91 
L 4250 4750 
z
M 1428 4750 
Q 1922 4750 2215 4408 
Q 2509 4066 2509 3481 
Q 2509 2891 2217 2550 
Q 1925 2209 1428 2209 
Q 931 2209 642 2551 
Q 353 2894 353 3481 
Q 353 4063 643 4406 
Q 934 4750 1428 4750 
z
" transform="scale(0.015625)"/>
      <path id="DejaVuSans-66" d="M 2375 4863 
L 2375 4384 
L 1825 4384 
Q 1516 4384 1395 4259 
Q 1275 4134 1275 3809 
L 1275 3500 
L 2222 3500 
L 2222 3053 
L 1275 3053 
L 1275 0 
L 697 0 
L 697 3053 
L 147 3053 
L 147 3500 
L 697 3500 
L 697 3744 
Q 697 4328 969 4595 
Q 1241 4863 1831 4863 
L 2375 4863 
z
" transform="scale(0.015625)"/>
     </defs>
     <use xlink:href="#DejaVuSans-28"/>
     <use xlink:href="#DejaVuSans-31" transform="translate(39.013672 0)"/>
     <use xlink:href="#DejaVuSans-34" transform="translate(102.636719 0)"/>
     <use xlink:href="#DejaVuSans-2e" transform="translate(166.259766 0)"/>
     <use xlink:href="#DejaVuSans-30" transform="translate(198.046875 0)"/>
     <use xlink:href="#DejaVuSans-33" transform="translate(261.669922 0)"/>
     <use xlink:href="#DejaVuSans-25" transform="translate(325.292969 0)"/>
     <use xlink:href="#DejaVuSans-20" transform="translate(420.3125 0)"/>
     <use xlink:href="#DejaVuSans-6f" transform="translate(452.099609 0)"/>
     <use xlink:href="#DejaVuSans-66" transform="translate(513.28125 0)"/>
     <use xlink:href="#DejaVuSans-20" transform="translate(548.486328 0)"/>
     <use xlink:href="#DejaVuSans-74" transform="translate(580.273438 0)"/>
     <use xlink:href="#DejaVuSans-6f" transform="translate(619.482422 0)"/>
     <use xlink:href="#DejaVuSans-74" transform="translate(680.664062 0)"/>
     <use xlink:href="#DejaVuSans-61" transform="translate(719.873047 0)"/>
     <use xlink:href="#DejaVuSans-6c" transform="translate(781.152344 0)"/>
     <use xlink:href="#DejaVuSans-29" transform="translate(808.935547 0)"/>
    </g>
   </g>
   <g id="text_16">
    <!-- UV &amp; MS Chromatograms: IrCp2B11, target m/z=839.2346784 -->
    <g transform="translate(262.295313 20.88) scale(0.12 -0.12)">
     <defs>
      <path id="DejaVuSans-55" d="M 556 4666 
L 1191 4666 
L 1191 1831 
Q 1191 1081 1462 751 
Q 1734 422 2344 422 
Q 2950 422 3222 751 
Q 3494 1081 3494 1831 
L 3494 4666 
L 4128 4666 
L 4128 1753 
Q 4128 841 3676 375 
Q 3225 -91 2344 -91 
Q 1459 -91 1007 375 
Q 556 841 556 1753 
L 556 4666 
z
" transform="scale(0.015625)"/>
      <path id="DejaVuSans-56" d="M 1831 0 
L 50 4666 
L 709 4666 
L 2188 738 
L 3669 4666 
L 4325 4666 
L 2547 0 
L 1831 0 
z
" transform="scale(0.015625)"/>
      <path id="DejaVuSans-26" d="M 1556 2509 
Q 1272 2256 1139 2004 
Q 1006 1753 1006 1478 
Q 1006 1022 1337 719 
Q 1669 416 2169 416 
Q 2466 416 2725 514 
Q 2984 613 3213 813 
L 1556 2509 
z
M 1997 2859 
L 3584 1234 
Q 3769 1513 3872 1830 
Q 3975 2147 3994 2503 
L 4575 2503 
Q 4538 2091 4375 1687 
Q 4213 1284 3922 891 
L 4794 0 
L 4006 0 
L 3559 459 
Q 3234 181 2878 45 
Q 2522 -91 2113 -91 
Q 1359 -91 881 339 
Q 403 769 403 1441 
Q 403 1841 612 2192 
Q 822 2544 1241 2853 
Q 1091 3050 1012 3245 
Q 934 3441 934 3628 
Q 934 4134 1281 4442 
Q 1628 4750 2203 4750 
Q 2463 4750 2720 4694 
Q 2978 4638 3244 4525 
L 3244 3956 
Q 2972 4103 2725 4179 
Q 2478 4256 2266 4256 
Q 1938 4256 1733 4082 
Q 1528 3909 1528 3634 
Q 1528 3475 1620 3314 
Q 1713 3153 1997 2859 
z
" transform="scale(0.015625)"/>
      <path id="DejaVuSans-4d" d="M 628 4666 
L 1569 4666 
L 2759 1491 
L 3956 4666 
L 4897 4666 
L 4897 0 
L 4281 0 
L 4281 4097 
L 3078 897 
L 2444 897 
L 1241 4097 
L 1241 0 
L 628 0 
L 628 4666 
z
" transform="scale(0.015625)"/>
      <path id="DejaVuSans-53" d="M 3425 4513 
L 3425 3897 
Q 3066 4069 2747 4153 
Q 2428 4238 2131 4238 
Q 1616 4238 1336 4038 
Q 1056 3838 1056 3469 
Q 1056 3159 1242 3001 
Q 1428 2844 1947 2747 
L 2328 2669 
Q 3034 2534 3370 2195 
Q 3706 1856 3706 1288 
Q 3706 609 3251 259 
Q 2797 -91 1919 -91 
Q 1588 -91 1214 -16 
Q 841 59 441 206 
L 441 856 
Q 825 641 1194 531 
Q 1563 422 1919 422 
Q 2459 422 2753 634 
Q 3047 847 3047 1241 
Q 3047 1584 2836 1778 
Q 2625 1972 2144 2069 
L 1759 2144 
Q 1053 2284 737 2584 
Q 422 2884 422 3419 
Q 422 4038 858 4394 
Q 1294 4750 2059 4750 
Q 2388 4750 2728 4690 
Q 3069 4631 3425 4513 
z
" transform="scale(0.015625)"/>
      <path id="DejaVuSans-43" d="M 4122 4306 
L 4122 3641 
Q 3803 3938 3442 4084 
Q 3081 4231 2675 4231 
Q 1875 4231 1450 3742 
Q 1025 3253 1025 2328 
Q 1025 1406 1450 917 
Q 1875 428 2675 428 
Q 3081 428 3442 575 
Q 3803 722 4122 1019 
L 4122 359 
Q 3791 134 3420 21 
Q 3050 -91 2638 -91 
Q 1578 -91 968 557 
Q 359 1206 359 2328 
Q 359 3453 968 4101 
Q 1578 4750 2638 4750 
Q 3056 4750 3426 4639 
Q 3797 4528 4122 4306 
z
" transform="scale(0.015625)"/>
      <path id="DejaVuSans-68" d="M 3513 2113 
L 3513 0 
L 2938 0 
L 2938 2094 
Q 2938 2591 2744 2837 
Q 2550 3084 2163 3084 
Q 1697 3084 1428 2787 
Q 1159 2491 1159 1978 
L 1159 0 
L 581 0 
L 581 4863 
L 1159 4863 
L 1159 2956 
Q 1366 3272 1645 3428 
Q 1925 3584 2291 3584 
Q 2894 3584 3203 3211 
Q 3513 2838 3513 2113 
z
" transform="scale(0.015625)"/>
      <path id="DejaVuSans-67" d="M 2906 1791 
Q 2906 2416 2648 2759 
Q 2391 3103 1925 3103 
Q 1463 3103 1205 2759 
Q 947 2416 947 1791 
Q 947 1169 1205 825 
Q 1463 481 1925 481 
Q 2391 481 2648 825 
Q 2906 1169 2906 1791 
z
M 3481 434 
Q 3481 -459 3084 -895 
Q 2688 -1331 1869 -1331 
Q 1566 -1331 1297 -1286 
Q 1028 -1241 775 -1147 
L 775 -588 
Q 1028 -725 1275 -790 
Q 1522 -856 1778 -856 
Q 2344 -856 2625 -561 
Q 2906 -266 2906 331 
L 2906 616 
Q 2728 306 2450 153 
Q 2172 0 1784 0 
Q 1141 0 747 490 
Q 353 981 353 1791 
Q 353 2603 747 3093 
Q 1141 3584 1784 3584 
Q 2172 3584 2450 3431 
Q 2728 3278 2906 2969 
L 2906 3500 
L 3481 3500 
L 3481 434 
z
" transform="scale(0.015625)"/>
      <path id="DejaVuSans-70" d="M 1159 525 
L 1159 -1331 
L 581 -1331 
L 581 3500 
L 1159 3500 
L 1159 2969 
Q 1341 3281 1617 3432 
Q 1894 3584 2278 3584 
Q 2916 3584 3314 3078 
Q 3713 2572 3713 1747 
Q 3713 922 3314 415 
Q 2916 -91 2278 -91 
Q 1894 -91 1617 61 
Q 1341 213 1159 525 
z
M 3116 1747 
Q 3116 2381 2855 2742 
Q 2594 3103 2138 3103 
Q 1681 3103 1420 2742 
Q 1159 2381 1159 1747 
Q 1159 1113 1420 752 
Q 1681 391 2138 391 
Q 2594 391 2855 752 
Q 3116 1113 3116 1747 
z
" transform="scale(0.015625)"/>
      <path id="DejaVuSans-42" d="M 1259 2228 
L 1259 519 
L 2272 519 
Q 2781 519 3026 730 
Q 3272 941 3272 1375 
Q 3272 1813 3026 2020 
Q 2781 2228 2272 2228 
L 1259 2228 
z
M 1259 4147 
L 1259 2741 
L 2194 2741 
Q 2656 2741 2882 2914 
Q 3109 3088 3109 3444 
Q 3109 3797 2882 3972 
Q 2656 4147 2194 4147 
L 1259 4147 
z
M 628 4666 
L 2241 4666 
Q 2963 4666 3353 4366 
Q 3744 4066 3744 3513 
Q 3744 3084 3544 2831 
Q 3344 2578 2956 2516 
Q 3422 2416 3680 2098 
Q 3938 1781 3938 1306 
Q 3938 681 3513 340 
Q 3088 0 2303 0 
L 628 0 
L 628 4666 
z
" transform="scale(0.015625)"/>
      <path id="DejaVuSans-2f" d="M 1625 4666 
L 2156 4666 
L 531 -594 
L 0 -594 
L 1625 4666 
z
" transform="scale(0.015625)"/>
      <path id="DejaVuSans-39" d="M 703 97 
L 703 672 
Q 941 559 1184 500 
Q 1428 441 1663 441 
Q 2288 441 2617 861 
Q 2947 1281 2994 2138 
Q 2813 1869 2534 1725 
Q 2256 1581 1919 1581 
Q 1219 1581 811 2004 
Q 403 2428 403 3163 
Q 403 3881 828 4315 
Q 1253 4750 1959 4750 
Q 2769 4750 3195 4129 
Q 3622 3509 3622 2328 
Q 3622 1225 3098 567 
Q 2575 -91 1691 -91 
Q 1453 -91 1209 -44 
Q 966 3 703 97 
z
M 1959 2075 
Q 2384 2075 2632 2365 
Q 2881 2656 2881 3163 
Q 2881 3666 2632 3958 
Q 2384 4250 1959 4250 
Q 1534 4250 1286 3958 
Q 1038 3666 1038 3163 
Q 1038 2656 1286 2365 
Q 1534 2075 1959 2075 
z
" transform="scale(0.015625)"/>
      <path id="DejaVuSans-36" d="M 2113 2584 
Q 1688 2584 1439 2293 
Q 1191 2003 1191 1497 
Q 1191 994 1439 701 
Q 1688 409 2113 409 
Q 2538 409 2786 701 
Q 3034 994 3034 1497 
Q 3034 2003 2786 2293 
Q 2538 2584 2113 2584 
z
M 3366 4563 
L 3366 3988 
Q 3128 4100 2886 4159 
Q 2644 4219 2406 4219 
Q 1781 4219 1451 3797 
Q 1122 3375 1075 2522 
Q 1259 2794 1537 2939 
Q 1816 3084 2150 3084 
Q 2853 3084 3261 2657 
Q 3669 2231 3669 1497 
Q 3669 778 3244 343 
Q 2819 -91 2113 -91 
Q 1303 -91 875 529 
Q 447 1150 447 2328 
Q 447 3434 972 4092 
Q 1497 4750 2381 4750 
Q 2619 4750 2861 4703 
Q 3103 4656 3366 4563 
z
" transform="scale(0.015625)"/>
      <path id="DejaVuSans-37" d="M 525 4666 
L 3525 4666 
L 3525 4397 
L 1831 0 
L 1172 0 
L 2766 4134 
L 525 4134 
L 525 4666 
z
" transform="scale(0.015625)"/>
     </defs>
     <use xlink:href="#DejaVuSans-55"/>
     <use xlink:href="#DejaVuSans-56" transform="translate(73.193359 0)"/>
     <use xlink:href="#DejaVuSans-20" transform="translate(141.601562 0)"/>
     <use xlink:href="#DejaVuSans-26" transform="translate(173.388672 0)"/>
     <use xlink:href="#DejaVuSans-20" transform="translate(251.367188 0)"/>
     <use xlink:href="#DejaVuSans-4d" transform="translate(283.154297 0)"/>
     <use xlink:href="#DejaVuSans-53" transform="translate(369.433594 0)"/>
     <use xlink:href="#DejaVuSans-20" transform="translate(432.910156 0)"/>
     <use xlink:href="#DejaVuSans-43" transform="translate(464.697266 0)"/>
     <use xlink:href="#DejaVuSans-68" transform="translate(534.521484 0)"/>
     <use xlink:href="#DejaVuSans-72" transform="translate(597.900391 0)"/>
     <use xlink:href="#DejaVuSans-6f" transform="translate(636.763672 0)"/>
     <use xlink:href="#DejaVuSans-6d" transform="translate(697.945312 0)"/>
     <use xlink:href="#DejaVuSans-61" transform="translate(795.357422 0)"/>
     <use xlink:href="#DejaVuSans-74" transform="translate(856.636719 0)"/>
     <use xlink:href="#DejaVuSans-6f" transform="translate(895.845703 0)"/>
     <use xlink:href="#DejaVuSans-67" transform="translate(957.027344 0)"/>
     <use xlink:href="#DejaVuSans-72" transform="translate(1020.503906 0)"/>
     <use xlink:href="#DejaVuSans-61" transform="translate(1061.617188 0)"/>
     <use xlink:href="#DejaVuSans-6d" transform="translate(1122.896484 0)"/>
     <use xlink:href="#DejaVuSans-73" transform="translate(1220.308594 0)"/>
     <use xlink:href="#DejaVuSans-3a" transform="translate(1272.408203 0)"/>
     <use xlink:href="#DejaVuSans-20" transform="translate(1306.099609 0)"/>
     <use xlink:href="#DejaVuSans-49" transform="translate(1337.886719 0)"/>
     <use xlink:href="#DejaVuSans-72" transform="translate(1367.378906 0)"/>
     <use xlink:href="#DejaVuSans-43" transform="translate(1408.492188 0)"/>
     <use xlink:href="#DejaVuSans-70" transform="translate(1478.316406 0)"/>
     <use xlink:href="#DejaVuSans-32" transform="translate(1541.792969 0)"/>
     <use xlink:href="#DejaVuSans-42" transform="translate(1605.416016 0)"/>
     <use xlink:href="#DejaVuSans-31" transform="translate(1674.019531 0)"/>
     <use xlink:href="#DejaVuSans-31" transform="translate(1737.642578 0)"/>
     <use xlink:href="#DejaVuSans-2c" transform="translate(1801.265625 0)"/>
     <use xlink:href="#DejaVuSans-20" transform="translate(1833.052734 0)"/>
     <use xlink:href="#DejaVuSans-74" transform="translate(1864.839844 0)"/>
     <use xlink:href="#DejaVuSans-61" transform="translate(1904.048828 0)"/>
     <use xlink:href="#DejaVuSans-72" transform="translate(1965.328125 0)"/>
     <use xlink:href="#DejaVuSans-67" transform="translate(2004.691406 0)"/>
     <use xlink:href="#DejaVuSans-65" transform="translate(2068.167969 0)"/>
     <use xlink:href="#DejaVuSans-74" transform="translate(2129.691406 0)"/>
     <use xlink:href="#DejaVuSans-20" transform="translate(2168.900391 0)"/>
     <use xlink:href="#DejaVuSans-6d" transform="translate(2200.6875 0)"/>
     <use xlink:href="#DejaVuSans-2f" transform="translate(2298.099609 0)"/>
     <use xlink:href="#DejaVuSans-7a" transform="translate(2331.791016 0)"/>
     <use xlink:href="#DejaVuSans-3d" transform="translate(2384.28125 0)"/>
     <use xlink:href="#DejaVuSans-38" transform="translate(2468.070312 0)"/>
     <use xlink:href="#DejaVuSans-33" transform="translate(2531.693359 0)"/>
     <use xlink:href="#DejaVuSans-39" transform="translate(2595.316406 0)"/>
     <use xlink:href="#DejaVuSans-2e" transform="translate(2658.939453 0)"/>
     <use xlink:href="#DejaVuSans-32" transform="translate(2690.726562 0)"/>
     <use xlink:href="#DejaVuSans-33" transform="translate(2754.349609 0)"/>
     <use xlink:href="#DejaVuSans-34" transform="translate(2817.972656 0)"/>
     <use xlink:href="#DejaVuSans-36" transform="translate(2881.595703 0)"/>
     <use xlink:href="#DejaVuSans-37" transform="translate(2945.21875 0)"/>
     <use xlink:href="#DejaVuSans-38" transform="translate(3008.841797 0)"/>
     <use xlink:href="#DejaVuSans-34" transform="translate(3072.464844 0)"/>
    </g>
   </g>
   <g id="legend_1">
    <g id="patch_8">
     <path d="M 685.971875 64.23625 
L 846.2 64.23625 
Q 848.2 64.23625 848.2 62.23625 
L 848.2 33.88 
Q 848.2 31.88 846.2 31.88 
L 685.971875 31.88 
Q 683.971875 31.88 683.971875 33.88 
L 683.971875 62.23625 
Q 683.971875 64.23625 685.971875 64.23625 
z
" style="fill: #ffffff; opacity: 0.8; stroke: #cccccc; stroke-linejoin: miter"/>
    </g>
    <g id="line2d_15">
     <path d="M 687.971875 39.978437 
L 697.971875 39.978437 
L 707.971875 39.978437 
" style="fill: none; stroke: #0000ff; stroke-width: 1.5; stroke-linecap: square"/>
    </g>
    <g id="text_17">
     <!-- UV Intensity (normalized) -->
     <g transform="translate(715.971875 43.478437) scale(0.1 -0.1)">
      <use xlink:href="#DejaVuSans-55"/>
      <use xlink:href="#DejaVuSans-56" transform="translate(73.193359 0)"/>
      <use xlink:href="#DejaVuSans-20" transform="translate(141.601562 0)"/>
      <use xlink:href="#DejaVuSans-49" transform="translate(173.388672 0)"/>
      <use xlink:href="#DejaVuSans-6e" transform="translate(202.880859 0)"/>
      <use xlink:href="#DejaVuSans-74" transform="translate(266.259766 0)"/>
      <use xlink:href="#DejaVuSans-65" transform="translate(305.46875 0)"/>
      <use xlink:href="#DejaVuSans-6e" transform="translate(366.992188 0)"/>
      <use xlink:href="#DejaVuSans-73" transform="translate(430.371094 0)"/>
      <use xlink:href="#DejaVuSans-69" transform="translate(482.470703 0)"/>
      <use xlink:href="#DejaVuSans-74" transform="translate(510.253906 0)"/>
      <use xlink:href="#DejaVuSans-79" transform="translate(549.462891 0)"/>
      <use xlink:href="#DejaVuSans-20" transform="translate(608.642578 0)"/>
      <use xlink:href="#DejaVuSans-28" transform="translate(640.429688 0)"/>
      <use xlink:href="#DejaVuSans-6e" transform="translate(679.443359 0)"/>
      <use xlink:href="#DejaVuSans-6f" transform="translate(742.822266 0)"/>
      <use xlink:href="#DejaVuSans-72" transform="translate(804.003906 0)"/>
      <use xlink:href="#DejaVuSans-6d" transform="translate(843.367188 0)"/>
      <use xlink:href="#DejaVuSans-61" transform="translate(940.779297 0)"/>
      <use xlink:href="#DejaVuSans-6c" transform="translate(1002.058594 0)"/>
      <use xlink:href="#DejaVuSans-69" transform="translate(1029.841797 0)"/>
      <use xlink:href="#DejaVuSans-7a" transform="translate(1057.625 0)"/>
      <use xlink:href="#DejaVuSans-65" transform="translate(1110.115234 0)"/>
      <use xlink:href="#DejaVuSans-64" transform="translate(1171.638672 0)"/>
      <use xlink:href="#DejaVuSans-29" transform="translate(1235.115234 0)"/>
     </g>
    </g>
    <g id="line2d_16">
     <path d="M 687.971875 54.656562 
L 697.971875 54.656562 
L 707.971875 54.656562 
" style="fill: none; stroke: #008000; stroke-width: 1.5; stroke-linecap: square"/>
    </g>
    <g id="text_18">
     <!-- MS Intensity (normalized) -->
     <g transform="translate(715.971875 58.156562) scale(0.1 -0.1)">
      <use xlink:href="#DejaVuSans-4d"/>
      <use xlink:href="#DejaVuSans-53" transform="translate(86.279297 0)"/>
      <use xlink:href="#DejaVuSans-20" transform="translate(149.755859 0)"/>
      <use xlink:href="#DejaVuSans-49" transform="translate(181.542969 0)"/>
      <use xlink:href="#DejaVuSans-6e" transform="translate(211.035156 0)"/>
      <use xlink:href="#DejaVuSans-74" transform="translate(274.414062 0)"/>
      <use xlink:href="#DejaVuSans-65" transform="translate(313.623047 0)"/>
      <use xlink:href="#DejaVuSans-6e" transform="translate(375.146484 0)"/>
      <use xlink:href="#DejaVuSans-73" transform="translate(438.525391 0)"/>
      <use xlink:href="#DejaVuSans-69" transform="translate(490.625 0)"/>
      <use xlink:href="#DejaVuSans-74" transform="translate(518.408203 0)"/>
      <use xlink:href="#DejaVuSans-79" transform="translate(557.617188 0)"/>
      <use xlink:href="#DejaVuSans-20" transform="translate(616.796875 0)"/>
      <use xlink:href="#DejaVuSans-28" transform="translate(648.583984 0)"/>
      <use xlink:href="#DejaVuSans-6e" transform="translate(687.597656 0)"/>
      <use xlink:href="#DejaVuSans-6f" transform="translate(750.976562 0)"/>
      <use xlink:href="#DejaVuSans-72" transform="translate(812.158203 0)"/>
      <use xlink:href="#DejaVuSans-6d" transform="translate(851.521484 0)"/>
      <use xlink:href="#DejaVuSans-61" transform="translate(948.933594 0)"/>
      <use xlink:href="#DejaVuSans-6c" transform="translate(1010.212891 0)"/>
      <use xlink:href="#DejaVuSans-69" transform="translate(1037.996094 0)"/>
      <use xlink:href="#DejaVuSans-7a" transform="translate(1065.779297 0)"/>
      <use xlink:href="#DejaVuSans-65" transform="translate(1118.269531 0)"/>
      <use xlink:href="#DejaVuSans-64" transform="translate(1179.792969 0)"/>
      <use xlink:href="#DejaVuSans-29" transform="translate(1243.269531 0)"/>
     </g>
    </g>
   </g>
  </g>
 </g>
 <defs>
  <clipPath id="pd6d905e6f5">
   <rect x="47.72" y="26.88" width="805.48" height="507.16"/>
  </clipPath>
 </defs>
</svg>
