<?xml version="1.0" encoding="utf-8" standalone="no"?>
<!DOCTYPE svg PUBLIC "-//W3C//DTD SVG 1.1//EN"
  "http://www.w3.org/Graphics/SVG/1.1/DTD/svg11.dtd">
<svg xmlns:xlink="http://www.w3.org/1999/xlink" width="864pt" height="576pt" viewBox="0 0 864 576" xmlns="http://www.w3.org/2000/svg" version="1.1">
 <metadata>
  <rdf:RDF xmlns:dc="http://purl.org/dc/elements/1.1/" xmlns:cc="http://creativecommons.org/ns#" xmlns:rdf="http://www.w3.org/1999/02/22-rdf-syntax-ns#">
   <cc:Work>
    <dc:type rdf:resource="http://purl.org/dc/dcmitype/StillImage"/>
    <dc:date>2025-03-06T18:20:57.420892</dc:date>
    <dc:format>image/svg+xml</dc:format>
    <dc:creator>
     <cc:Agent>
      <dc:title>Matplotlib v3.10.0, https://matplotlib.org/</dc:title>
     </cc:Agent>
    </dc:creator>
   </cc:Work>
  </rdf:RDF>
 </metadata>
 <defs>
  <style type="text/css">*{stroke-linejoin: round; stroke-linecap: butt}</style>
 </defs>
 <g id="figure_1">
  <g id="patch_1">
   <path d="M 0 576 
L 864 576 
L 864 0 
L 0 0 
z
" style="fill: #ffffff"/>
  </g>
  <g id="axes_1">
   <g id="patch_2">
    <path d="M 47.72 534.04 
L 853.2 534.04 
L 853.2 26.88 
L 47.72 26.88 
z
" style="fill: #ffffff"/>
   </g>
   <g id="matplotlib.axis_1">
    <g id="xtick_1">
     <g id="line2d_1">
      <defs>
       <path id="m6ee9d1d62a" d="M 0 0 
L 0 3.5 
" style="stroke: #000000; stroke-width: 0.8"/>
      </defs>
      <g>
       <use xlink:href="#m6ee9d1d62a" x="83.100486" y="534.04" style="stroke: #000000; stroke-width: 0.8"/>
      </g>
     </g>
     <g id="text_1">
      <!-- 0 -->
      <g transform="translate(79.919236 548.638438) scale(0.1 -0.1)">
       <defs>
        <path id="DejaVuSans-30" d="M 2034 4250 
Q 1547 4250 1301 3770 
Q 1056 3291 1056 2328 
Q 1056 1369 1301 889 
Q 1547 409 2034 409 
Q 2525 409 2770 889 
Q 3016 1369 3016 2328 
Q 3016 3291 2770 3770 
Q 2525 4250 2034 4250 
z
M 2034 4750 
Q 2819 4750 3233 4129 
Q 3647 3509 3647 2328 
Q 3647 1150 3233 529 
Q 2819 -91 2034 -91 
Q 1250 -91 836 529 
Q 422 1150 422 2328 
Q 422 3509 836 4129 
Q 1250 4750 2034 4750 
z
" transform="scale(0.015625)"/>
       </defs>
       <use xlink:href="#DejaVuSans-30"/>
      </g>
     </g>
    </g>
    <g id="xtick_2">
     <g id="line2d_2">
      <g>
       <use xlink:href="#m6ee9d1d62a" x="229.795887" y="534.04" style="stroke: #000000; stroke-width: 0.8"/>
      </g>
     </g>
     <g id="text_2">
      <!-- 1 -->
      <g transform="translate(226.614637 548.638438) scale(0.1 -0.1)">
       <defs>
        <path id="DejaVuSans-31" d="M 794 531 
L 1825 531 
L 1825 4091 
L 703 3866 
L 703 4441 
L 1819 4666 
L 2450 4666 
L 2450 531 
L 3481 531 
L 3481 0 
L 794 0 
L 794 531 
z
" transform="scale(0.015625)"/>
       </defs>
       <use xlink:href="#DejaVuSans-31"/>
      </g>
     </g>
    </g>
    <g id="xtick_3">
     <g id="line2d_3">
      <g>
       <use xlink:href="#m6ee9d1d62a" x="376.491289" y="534.04" style="stroke: #000000; stroke-width: 0.8"/>
      </g>
     </g>
     <g id="text_3">
      <!-- 2 -->
      <g transform="translate(373.310039 548.638438) scale(0.1 -0.1)">
       <defs>
        <path id="DejaVuSans-32" d="M 1228 531 
L 3431 531 
L 3431 0 
L 469 0 
L 469 531 
Q 828 903 1448 1529 
Q 2069 2156 2228 2338 
Q 2531 2678 2651 2914 
Q 2772 3150 2772 3378 
Q 2772 3750 2511 3984 
Q 2250 4219 1831 4219 
Q 1534 4219 1204 4116 
Q 875 4013 500 3803 
L 500 4441 
Q 881 4594 1212 4672 
Q 1544 4750 1819 4750 
Q 2544 4750 2975 4387 
Q 3406 4025 3406 3419 
Q 3406 3131 3298 2873 
Q 3191 2616 2906 2266 
Q 2828 2175 2409 1742 
Q 1991 1309 1228 531 
z
" transform="scale(0.015625)"/>
       </defs>
       <use xlink:href="#DejaVuSans-32"/>
      </g>
     </g>
    </g>
    <g id="xtick_4">
     <g id="line2d_4">
      <g>
       <use xlink:href="#m6ee9d1d62a" x="523.18669" y="534.04" style="stroke: #000000; stroke-width: 0.8"/>
      </g>
     </g>
     <g id="text_4">
      <!-- 3 -->
      <g transform="translate(520.00544 548.638438) scale(0.1 -0.1)">
       <defs>
        <path id="DejaVuSans-33" d="M 2597 2516 
Q 3050 2419 3304 2112 
Q 3559 1806 3559 1356 
Q 3559 666 3084 287 
Q 2609 -91 1734 -91 
Q 1441 -91 1130 -33 
Q 819 25 488 141 
L 488 750 
Q 750 597 1062 519 
Q 1375 441 1716 441 
Q 2309 441 2620 675 
Q 2931 909 2931 1356 
Q 2931 1769 2642 2001 
Q 2353 2234 1838 2234 
L 1294 2234 
L 1294 2753 
L 1863 2753 
Q 2328 2753 2575 2939 
Q 2822 3125 2822 3475 
Q 2822 3834 2567 4026 
Q 2313 4219 1838 4219 
Q 1578 4219 1281 4162 
Q 984 4106 628 3988 
L 628 4550 
Q 988 4650 1302 4700 
Q 1616 4750 1894 4750 
Q 2613 4750 3031 4423 
Q 3450 4097 3450 3541 
Q 3450 3153 3228 2886 
Q 3006 2619 2597 2516 
z
" transform="scale(0.015625)"/>
       </defs>
       <use xlink:href="#DejaVuSans-33"/>
      </g>
     </g>
    </g>
    <g id="xtick_5">
     <g id="line2d_5">
      <g>
       <use xlink:href="#m6ee9d1d62a" x="669.882092" y="534.04" style="stroke: #000000; stroke-width: 0.8"/>
      </g>
     </g>
     <g id="text_5">
      <!-- 4 -->
      <g transform="translate(666.700842 548.638438) scale(0.1 -0.1)">
       <defs>
        <path id="DejaVuSans-34" d="M 2419 4116 
L 825 1625 
L 2419 1625 
L 2419 4116 
z
M 2253 4666 
L 3047 4666 
L 3047 1625 
L 3713 1625 
L 3713 1100 
L 3047 1100 
L 3047 0 
L 2419 0 
L 2419 1100 
L 313 1100 
L 313 1709 
L 2253 4666 
z
" transform="scale(0.015625)"/>
       </defs>
       <use xlink:href="#DejaVuSans-34"/>
      </g>
     </g>
    </g>
    <g id="xtick_6">
     <g id="line2d_6">
      <g>
       <use xlink:href="#m6ee9d1d62a" x="816.577493" y="534.04" style="stroke: #000000; stroke-width: 0.8"/>
      </g>
     </g>
     <g id="text_6">
      <!-- 5 -->
      <g transform="translate(813.396243 548.638438) scale(0.1 -0.1)">
       <defs>
        <path id="DejaVuSans-35" d="M 691 4666 
L 3169 4666 
L 3169 4134 
L 1269 4134 
L 1269 2991 
Q 1406 3038 1543 3061 
Q 1681 3084 1819 3084 
Q 2600 3084 3056 2656 
Q 3513 2228 3513 1497 
Q 3513 744 3044 326 
Q 2575 -91 1722 -91 
Q 1428 -91 1123 -41 
Q 819 9 494 109 
L 494 744 
Q 775 591 1075 516 
Q 1375 441 1709 441 
Q 2250 441 2565 725 
Q 2881 1009 2881 1497 
Q 2881 1984 2565 2268 
Q 2250 2553 1709 2553 
Q 1456 2553 1204 2497 
Q 953 2441 691 2322 
L 691 4666 
z
" transform="scale(0.015625)"/>
       </defs>
       <use xlink:href="#DejaVuSans-35"/>
      </g>
     </g>
    </g>
    <g id="text_7">
     <!-- Retention Time (min) -->
     <g transform="translate(397.61 562.316562) scale(0.1 -0.1)">
      <defs>
       <path id="DejaVuSans-52" d="M 2841 2188 
Q 3044 2119 3236 1894 
Q 3428 1669 3622 1275 
L 4263 0 
L 3584 0 
L 2988 1197 
Q 2756 1666 2539 1819 
Q 2322 1972 1947 1972 
L 1259 1972 
L 1259 0 
L 628 0 
L 628 4666 
L 2053 4666 
Q 2853 4666 3247 4331 
Q 3641 3997 3641 3322 
Q 3641 2881 3436 2590 
Q 3231 2300 2841 2188 
z
M 1259 4147 
L 1259 2491 
L 2053 2491 
Q 2509 2491 2742 2702 
Q 2975 2913 2975 3322 
Q 2975 3731 2742 3939 
Q 2509 4147 2053 4147 
L 1259 4147 
z
" transform="scale(0.015625)"/>
       <path id="DejaVuSans-65" d="M 3597 1894 
L 3597 1613 
L 953 1613 
Q 991 1019 1311 708 
Q 1631 397 2203 397 
Q 2534 397 2845 478 
Q 3156 559 3463 722 
L 3463 178 
Q 3153 47 2828 -22 
Q 2503 -91 2169 -91 
Q 1331 -91 842 396 
Q 353 884 353 1716 
Q 353 2575 817 3079 
Q 1281 3584 2069 3584 
Q 2775 3584 3186 3129 
Q 3597 2675 3597 1894 
z
M 3022 2063 
Q 3016 2534 2758 2815 
Q 2500 3097 2075 3097 
Q 1594 3097 1305 2825 
Q 1016 2553 972 2059 
L 3022 2063 
z
" transform="scale(0.015625)"/>
       <path id="DejaVuSans-74" d="M 1172 4494 
L 1172 3500 
L 2356 3500 
L 2356 3053 
L 1172 3053 
L 1172 1153 
Q 1172 725 1289 603 
Q 1406 481 1766 481 
L 2356 481 
L 2356 0 
L 1766 0 
Q 1100 0 847 248 
Q 594 497 594 1153 
L 594 3053 
L 172 3053 
L 172 3500 
L 594 3500 
L 594 4494 
L 1172 4494 
z
" transform="scale(0.015625)"/>
       <path id="DejaVuSans-6e" d="M 3513 2113 
L 3513 0 
L 2938 0 
L 2938 2094 
Q 2938 2591 2744 2837 
Q 2550 3084 2163 3084 
Q 1697 3084 1428 2787 
Q 1159 2491 1159 1978 
L 1159 0 
L 581 0 
L 581 3500 
L 1159 3500 
L 1159 2956 
Q 1366 3272 1645 3428 
Q 1925 3584 2291 3584 
Q 2894 3584 3203 3211 
Q 3513 2838 3513 2113 
z
" transform="scale(0.015625)"/>
       <path id="DejaVuSans-69" d="M 603 3500 
L 1178 3500 
L 1178 0 
L 603 0 
L 603 3500 
z
M 603 4863 
L 1178 4863 
L 1178 4134 
L 603 4134 
L 603 4863 
z
" transform="scale(0.015625)"/>
       <path id="DejaVuSans-6f" d="M 1959 3097 
Q 1497 3097 1228 2736 
Q 959 2375 959 1747 
Q 959 1119 1226 758 
Q 1494 397 1959 397 
Q 2419 397 2687 759 
Q 2956 1122 2956 1747 
Q 2956 2369 2687 2733 
Q 2419 3097 1959 3097 
z
M 1959 3584 
Q 2709 3584 3137 3096 
Q 3566 2609 3566 1747 
Q 3566 888 3137 398 
Q 2709 -91 1959 -91 
Q 1206 -91 779 398 
Q 353 888 353 1747 
Q 353 2609 779 3096 
Q 1206 3584 1959 3584 
z
" transform="scale(0.015625)"/>
       <path id="DejaVuSans-20" transform="scale(0.015625)"/>
       <path id="DejaVuSans-54" d="M -19 4666 
L 3928 4666 
L 3928 4134 
L 2272 4134 
L 2272 0 
L 1638 0 
L 1638 4134 
L -19 4134 
L -19 4666 
z
" transform="scale(0.015625)"/>
       <path id="DejaVuSans-6d" d="M 3328 2828 
Q 3544 3216 3844 3400 
Q 4144 3584 4550 3584 
Q 5097 3584 5394 3201 
Q 5691 2819 5691 2113 
L 5691 0 
L 5113 0 
L 5113 2094 
Q 5113 2597 4934 2840 
Q 4756 3084 4391 3084 
Q 3944 3084 3684 2787 
Q 3425 2491 3425 1978 
L 3425 0 
L 2847 0 
L 2847 2094 
Q 2847 2600 2669 2842 
Q 2491 3084 2119 3084 
Q 1678 3084 1418 2786 
Q 1159 2488 1159 1978 
L 1159 0 
L 581 0 
L 581 3500 
L 1159 3500 
L 1159 2956 
Q 1356 3278 1631 3431 
Q 1906 3584 2284 3584 
Q 2666 3584 2933 3390 
Q 3200 3197 3328 2828 
z
" transform="scale(0.015625)"/>
       <path id="DejaVuSans-28" d="M 1984 4856 
Q 1566 4138 1362 3434 
Q 1159 2731 1159 2009 
Q 1159 1288 1364 580 
Q 1569 -128 1984 -844 
L 1484 -844 
Q 1016 -109 783 600 
Q 550 1309 550 2009 
Q 550 2706 781 3412 
Q 1013 4119 1484 4856 
L 1984 4856 
z
" transform="scale(0.015625)"/>
       <path id="DejaVuSans-29" d="M 513 4856 
L 1013 4856 
Q 1481 4119 1714 3412 
Q 1947 2706 1947 2009 
Q 1947 1309 1714 600 
Q 1481 -109 1013 -844 
L 513 -844 
Q 928 -128 1133 580 
Q 1338 1288 1338 2009 
Q 1338 2731 1133 3434 
Q 928 4138 513 4856 
z
" transform="scale(0.015625)"/>
      </defs>
      <use xlink:href="#DejaVuSans-52"/>
      <use xlink:href="#DejaVuSans-65" transform="translate(64.982422 0)"/>
      <use xlink:href="#DejaVuSans-74" transform="translate(126.505859 0)"/>
      <use xlink:href="#DejaVuSans-65" transform="translate(165.714844 0)"/>
      <use xlink:href="#DejaVuSans-6e" transform="translate(227.238281 0)"/>
      <use xlink:href="#DejaVuSans-74" transform="translate(290.617188 0)"/>
      <use xlink:href="#DejaVuSans-69" transform="translate(329.826172 0)"/>
      <use xlink:href="#DejaVuSans-6f" transform="translate(357.609375 0)"/>
      <use xlink:href="#DejaVuSans-6e" transform="translate(418.791016 0)"/>
      <use xlink:href="#DejaVuSans-20" transform="translate(482.169922 0)"/>
      <use xlink:href="#DejaVuSans-54" transform="translate(513.957031 0)"/>
      <use xlink:href="#DejaVuSans-69" transform="translate(571.916016 0)"/>
      <use xlink:href="#DejaVuSans-6d" transform="translate(599.699219 0)"/>
      <use xlink:href="#DejaVuSans-65" transform="translate(697.111328 0)"/>
      <use xlink:href="#DejaVuSans-20" transform="translate(758.634766 0)"/>
      <use xlink:href="#DejaVuSans-28" transform="translate(790.421875 0)"/>
      <use xlink:href="#DejaVuSans-6d" transform="translate(829.435547 0)"/>
      <use xlink:href="#DejaVuSans-69" transform="translate(926.847656 0)"/>
      <use xlink:href="#DejaVuSans-6e" transform="translate(954.630859 0)"/>
      <use xlink:href="#DejaVuSans-29" transform="translate(1018.009766 0)"/>
     </g>
    </g>
   </g>
   <g id="matplotlib.axis_2">
    <g id="ytick_1">
     <g id="line2d_7">
      <defs>
       <path id="m60b815dcac" d="M 0 0 
L -3.5 0 
" style="stroke: #000000; stroke-width: 0.8"/>
      </defs>
      <g>
       <use xlink:href="#m60b815dcac" x="47.72" y="510.987273" style="stroke: #000000; stroke-width: 0.8"/>
      </g>
     </g>
     <g id="text_8">
      <!-- 0.0 -->
      <g style="fill: #0000ff" transform="translate(24.816875 514.786491) scale(0.1 -0.1)">
       <defs>
        <path id="DejaVuSans-2e" d="M 684 794 
L 1344 794 
L 1344 0 
L 684 0 
L 684 794 
z
" transform="scale(0.015625)"/>
       </defs>
       <use xlink:href="#DejaVuSans-30"/>
       <use xlink:href="#DejaVuSans-2e" transform="translate(63.623047 0)"/>
       <use xlink:href="#DejaVuSans-30" transform="translate(95.410156 0)"/>
      </g>
     </g>
    </g>
    <g id="ytick_2">
     <g id="line2d_8">
      <g>
       <use xlink:href="#m60b815dcac" x="47.72" y="418.776364" style="stroke: #000000; stroke-width: 0.8"/>
      </g>
     </g>
     <g id="text_9">
      <!-- 0.5 -->
      <g style="fill: #0000ff" transform="translate(24.816875 422.575582) scale(0.1 -0.1)">
       <use xlink:href="#DejaVuSans-30"/>
       <use xlink:href="#DejaVuSans-2e" transform="translate(63.623047 0)"/>
       <use xlink:href="#DejaVuSans-35" transform="translate(95.410156 0)"/>
      </g>
     </g>
    </g>
    <g id="ytick_3">
     <g id="line2d_9">
      <g>
       <use xlink:href="#m60b815dcac" x="47.72" y="326.565455" style="stroke: #000000; stroke-width: 0.8"/>
      </g>
     </g>
     <g id="text_10">
      <!-- 1.0 -->
      <g style="fill: #0000ff" transform="translate(24.816875 330.364673) scale(0.1 -0.1)">
       <use xlink:href="#DejaVuSans-31"/>
       <use xlink:href="#DejaVuSans-2e" transform="translate(63.623047 0)"/>
       <use xlink:href="#DejaVuSans-30" transform="translate(95.410156 0)"/>
      </g>
     </g>
    </g>
    <g id="ytick_4">
     <g id="line2d_10">
      <g>
       <use xlink:href="#m60b815dcac" x="47.72" y="234.354545" style="stroke: #000000; stroke-width: 0.8"/>
      </g>
     </g>
     <g id="text_11">
      <!-- 1.5 -->
      <g style="fill: #0000ff" transform="translate(24.816875 238.153764) scale(0.1 -0.1)">
       <use xlink:href="#DejaVuSans-31"/>
       <use xlink:href="#DejaVuSans-2e" transform="translate(63.623047 0)"/>
       <use xlink:href="#DejaVuSans-35" transform="translate(95.410156 0)"/>
      </g>
     </g>
    </g>
    <g id="ytick_5">
     <g id="line2d_11">
      <g>
       <use xlink:href="#m60b815dcac" x="47.72" y="142.143636" style="stroke: #000000; stroke-width: 0.8"/>
      </g>
     </g>
     <g id="text_12">
      <!-- 2.0 -->
      <g style="fill: #0000ff" transform="translate(24.816875 145.942855) scale(0.1 -0.1)">
       <use xlink:href="#DejaVuSans-32"/>
       <use xlink:href="#DejaVuSans-2e" transform="translate(63.623047 0)"/>
       <use xlink:href="#DejaVuSans-30" transform="translate(95.410156 0)"/>
      </g>
     </g>
    </g>
    <g id="ytick_6">
     <g id="line2d_12">
      <g>
       <use xlink:href="#m60b815dcac" x="47.72" y="49.932727" style="stroke: #000000; stroke-width: 0.8"/>
      </g>
     </g>
     <g id="text_13">
      <!-- 2.5 -->
      <g style="fill: #0000ff" transform="translate(24.816875 53.731946) scale(0.1 -0.1)">
       <use xlink:href="#DejaVuSans-32"/>
       <use xlink:href="#DejaVuSans-2e" transform="translate(63.623047 0)"/>
       <use xlink:href="#DejaVuSans-35" transform="translate(95.410156 0)"/>
      </g>
     </g>
    </g>
    <g id="text_14">
     <!-- Normalized Intensity -->
     <g style="fill: #0000ff" transform="translate(18.737187 332.167031) rotate(-90) scale(0.1 -0.1)">
      <defs>
       <path id="DejaVuSans-4e" d="M 628 4666 
L 1478 4666 
L 3547 763 
L 3547 4666 
L 4159 4666 
L 4159 0 
L 3309 0 
L 1241 3903 
L 1241 0 
L 628 0 
L 628 4666 
z
" transform="scale(0.015625)"/>
       <path id="DejaVuSans-72" d="M 2631 2963 
Q 2534 3019 2420 3045 
Q 2306 3072 2169 3072 
Q 1681 3072 1420 2755 
Q 1159 2438 1159 1844 
L 1159 0 
L 581 0 
L 581 3500 
L 1159 3500 
L 1159 2956 
Q 1341 3275 1631 3429 
Q 1922 3584 2338 3584 
Q 2397 3584 2469 3576 
Q 2541 3569 2628 3553 
L 2631 2963 
z
" transform="scale(0.015625)"/>
       <path id="DejaVuSans-61" d="M 2194 1759 
Q 1497 1759 1228 1600 
Q 959 1441 959 1056 
Q 959 750 1161 570 
Q 1363 391 1709 391 
Q 2188 391 2477 730 
Q 2766 1069 2766 1631 
L 2766 1759 
L 2194 1759 
z
M 3341 1997 
L 3341 0 
L 2766 0 
L 2766 531 
Q 2569 213 2275 61 
Q 1981 -91 1556 -91 
Q 1019 -91 701 211 
Q 384 513 384 1019 
Q 384 1609 779 1909 
Q 1175 2209 1959 2209 
L 2766 2209 
L 2766 2266 
Q 2766 2663 2505 2880 
Q 2244 3097 1772 3097 
Q 1472 3097 1187 3025 
Q 903 2953 641 2809 
L 641 3341 
Q 956 3463 1253 3523 
Q 1550 3584 1831 3584 
Q 2591 3584 2966 3190 
Q 3341 2797 3341 1997 
z
" transform="scale(0.015625)"/>
       <path id="DejaVuSans-6c" d="M 603 4863 
L 1178 4863 
L 1178 0 
L 603 0 
L 603 4863 
z
" transform="scale(0.015625)"/>
       <path id="DejaVuSans-7a" d="M 353 3500 
L 3084 3500 
L 3084 2975 
L 922 459 
L 3084 459 
L 3084 0 
L 275 0 
L 275 525 
L 2438 3041 
L 353 3041 
L 353 3500 
z
" transform="scale(0.015625)"/>
       <path id="DejaVuSans-64" d="M 2906 2969 
L 2906 4863 
L 3481 4863 
L 3481 0 
L 2906 0 
L 2906 525 
Q 2725 213 2448 61 
Q 2172 -91 1784 -91 
Q 1150 -91 751 415 
Q 353 922 353 1747 
Q 353 2572 751 3078 
Q 1150 3584 1784 3584 
Q 2172 3584 2448 3432 
Q 2725 3281 2906 2969 
z
M 947 1747 
Q 947 1113 1208 752 
Q 1469 391 1925 391 
Q 2381 391 2643 752 
Q 2906 1113 2906 1747 
Q 2906 2381 2643 2742 
Q 2381 3103 1925 3103 
Q 1469 3103 1208 2742 
Q 947 2381 947 1747 
z
" transform="scale(0.015625)"/>
       <path id="DejaVuSans-49" d="M 628 4666 
L 1259 4666 
L 1259 0 
L 628 0 
L 628 4666 
z
" transform="scale(0.015625)"/>
       <path id="DejaVuSans-73" d="M 2834 3397 
L 2834 2853 
Q 2591 2978 2328 3040 
Q 2066 3103 1784 3103 
Q 1356 3103 1142 2972 
Q 928 2841 928 2578 
Q 928 2378 1081 2264 
Q 1234 2150 1697 2047 
L 1894 2003 
Q 2506 1872 2764 1633 
Q 3022 1394 3022 966 
Q 3022 478 2636 193 
Q 2250 -91 1575 -91 
Q 1294 -91 989 -36 
Q 684 19 347 128 
L 347 722 
Q 666 556 975 473 
Q 1284 391 1588 391 
Q 1994 391 2212 530 
Q 2431 669 2431 922 
Q 2431 1156 2273 1281 
Q 2116 1406 1581 1522 
L 1381 1569 
Q 847 1681 609 1914 
Q 372 2147 372 2553 
Q 372 3047 722 3315 
Q 1072 3584 1716 3584 
Q 2034 3584 2315 3537 
Q 2597 3491 2834 3397 
z
" transform="scale(0.015625)"/>
       <path id="DejaVuSans-79" d="M 2059 -325 
Q 1816 -950 1584 -1140 
Q 1353 -1331 966 -1331 
L 506 -1331 
L 506 -850 
L 844 -850 
Q 1081 -850 1212 -737 
Q 1344 -625 1503 -206 
L 1606 56 
L 191 3500 
L 800 3500 
L 1894 763 
L 2988 3500 
L 3597 3500 
L 2059 -325 
z
" transform="scale(0.015625)"/>
      </defs>
      <use xlink:href="#DejaVuSans-4e"/>
      <use xlink:href="#DejaVuSans-6f" transform="translate(74.804688 0)"/>
      <use xlink:href="#DejaVuSans-72" transform="translate(135.986328 0)"/>
      <use xlink:href="#DejaVuSans-6d" transform="translate(175.349609 0)"/>
      <use xlink:href="#DejaVuSans-61" transform="translate(272.761719 0)"/>
      <use xlink:href="#DejaVuSans-6c" transform="translate(334.041016 0)"/>
      <use xlink:href="#DejaVuSans-69" transform="translate(361.824219 0)"/>
      <use xlink:href="#DejaVuSans-7a" transform="translate(389.607422 0)"/>
      <use xlink:href="#DejaVuSans-65" transform="translate(442.097656 0)"/>
      <use xlink:href="#DejaVuSans-64" transform="translate(503.621094 0)"/>
      <use xlink:href="#DejaVuSans-20" transform="translate(567.097656 0)"/>
      <use xlink:href="#DejaVuSans-49" transform="translate(598.884766 0)"/>
      <use xlink:href="#DejaVuSans-6e" transform="translate(628.376953 0)"/>
      <use xlink:href="#DejaVuSans-74" transform="translate(691.755859 0)"/>
      <use xlink:href="#DejaVuSans-65" transform="translate(730.964844 0)"/>
      <use xlink:href="#DejaVuSans-6e" transform="translate(792.488281 0)"/>
      <use xlink:href="#DejaVuSans-73" transform="translate(855.867188 0)"/>
      <use xlink:href="#DejaVuSans-69" transform="translate(907.966797 0)"/>
      <use xlink:href="#DejaVuSans-74" transform="translate(935.75 0)"/>
      <use xlink:href="#DejaVuSans-79" transform="translate(974.958984 0)"/>
     </g>
    </g>
   </g>
   <g id="line2d_13">
    <path d="M 84.332727 510.987273 
L 89.222574 510.89894 
L 99.002267 510.370013 
L 110.004423 510.390486 
L 123.451501 510.503732 
L 132.008733 510.365801 
L 143.010888 510.148712 
L 155.235505 510.082352 
L 160.125351 510.077771 
L 162.570275 510.08786 
L 163.792736 509.942503 
L 165.015198 509.502406 
L 166.23766 508.701245 
L 167.460121 507.718138 
L 168.682583 506.927935 
L 169.905045 506.655326 
L 171.127506 506.955836 
L 174.794891 508.93852 
L 176.017353 509.345363 
L 178.462277 509.77099 
L 182.129662 510.124007 
L 183.352123 510.17537 
L 184.574585 510.109521 
L 185.797047 509.875744 
L 189.464432 508.730013 
L 190.686893 508.580988 
L 191.909355 508.621939 
L 196.799202 509.232344 
L 200.466587 509.138348 
L 202.91151 508.912165 
L 204.133972 508.44667 
L 205.356433 507.508467 
L 207.801357 505.013498 
L 209.023818 504.370787 
L 210.24628 504.477258 
L 211.468742 505.182649 
L 213.913665 507.093859 
L 215.136127 507.790971 
L 216.358589 508.204009 
L 224.91582 509.632747 
L 226.138282 509.396216 
L 227.360744 508.760064 
L 229.805667 506.92761 
L 231.028129 506.379066 
L 232.25059 506.351244 
L 233.473052 506.77189 
L 237.140437 508.645588 
L 238.362899 509.021287 
L 240.807822 509.350915 
L 243.252745 509.380075 
L 253.032439 509.015861 
L 259.144747 508.836938 
L 275.036749 508.495143 
L 279.926596 508.364122 
L 287.261366 508.140882 
L 292.151213 507.856511 
L 306.820753 507.88283 
L 311.710599 507.903811 
L 312.933061 507.778999 
L 314.155523 507.48179 
L 317.822908 506.050526 
L 319.04537 505.913016 
L 320.267831 506.06906 
L 325.157678 507.426961 
L 327.602601 507.659544 
L 337.382295 508.025534 
L 343.494603 508.943483 
L 350.829373 508.796251 
L 352.051835 508.624679 
L 353.274297 508.246472 
L 354.496758 507.396483 
L 355.71922 505.631961 
L 356.941682 502.400226 
L 358.164143 497.1635 
L 359.386605 489.536547 
L 360.609067 479.427885 
L 361.831528 467.165915 
L 365.498913 427.095423 
L 366.721375 416.788478 
L 367.943837 409.673853 
L 369.166298 406.150579 
L 370.38876 406.187092 
L 371.611222 409.395088 
L 372.833683 415.131525 
L 374.056145 422.626275 
L 378.945992 456.720593 
L 380.168453 464.054461 
L 381.390915 470.463526 
L 382.613377 475.87506 
L 383.835839 480.218107 
L 385.0583 483.40734 
L 386.280762 485.466751 
L 387.503224 486.653409 
L 388.725685 487.354445 
L 393.615532 489.439714 
L 397.282917 491.506444 
L 398.505379 491.91147 
L 400.950302 492.184562 
L 402.172764 492.289769 
L 403.395225 492.141798 
L 404.617687 489.727867 
L 405.840149 479.014433 
L 407.06261 451.865466 
L 409.507534 359.688534 
L 410.729995 328.710826 
L 411.952457 326.565455 
L 413.174919 349.754576 
L 415.619842 418.139453 
L 416.842304 442.566099 
L 418.064766 457.647433 
L 419.287227 466.492649 
L 420.509689 472.344324 
L 421.732151 477.031455 
L 422.954612 481.079826 
L 424.177074 484.408553 
L 425.399536 486.881803 
L 426.621997 488.533642 
L 427.844459 489.559381 
L 436.401691 494.229604 
L 437.624152 494.691064 
L 438.846614 495.012059 
L 440.069076 495.181461 
L 441.291537 495.18625 
L 442.513999 495.024255 
L 446.181384 494.288817 
L 447.403846 494.305511 
L 449.848769 494.598937 
L 451.071231 494.613356 
L 452.293693 494.42201 
L 454.738616 493.739463 
L 455.961078 493.601297 
L 457.183539 493.73849 
L 459.628463 494.54692 
L 460.850924 494.983832 
L 462.073386 495.239653 
L 463.295848 494.915145 
L 464.518309 493.410017 
L 465.740771 490.4615 
L 466.963233 486.711344 
L 468.185694 483.493653 
L 469.408156 481.945939 
L 470.630618 482.340686 
L 471.853079 484.132041 
L 474.298003 488.569766 
L 475.520464 490.14587 
L 476.742926 491.187994 
L 477.965388 491.895449 
L 480.410311 492.981858 
L 482.855234 493.811612 
L 484.077696 494.050801 
L 486.52262 494.232697 
L 487.745081 494.264082 
L 488.967543 493.98736 
L 490.190005 492.212801 
L 491.412466 486.964398 
L 492.634928 477.540504 
L 493.85739 466.608902 
L 495.079851 458.931799 
L 496.302313 457.646099 
L 497.524775 462.284235 
L 499.969698 477.611394 
L 501.19216 483.508933 
L 502.414621 487.269155 
L 503.637083 489.326689 
L 504.859545 490.29693 
L 506.082006 490.65386 
L 509.749391 490.792321 
L 512.194315 491.342683 
L 513.416776 491.63466 
L 514.639238 491.796954 
L 521.974008 491.979182 
L 528.086317 491.408579 
L 529.308778 490.852334 
L 530.53124 489.739366 
L 532.976163 486.9278 
L 534.198625 486.038031 
L 537.86601 484.128796 
L 539.088472 484.075625 
L 540.310933 484.780225 
L 543.978318 488.425102 
L 545.20078 489.03581 
L 546.423242 489.192924 
L 547.645703 489.001136 
L 552.53555 487.373715 
L 553.758012 486.905752 
L 554.980474 486.286037 
L 556.202935 485.428116 
L 557.425397 484.253836 
L 558.647859 482.69289 
L 559.87032 480.355584 
L 561.092782 475.334129 
L 562.315244 463.563831 
L 563.537705 442.28016 
L 564.760167 415.750521 
L 565.982629 394.888451 
L 567.20509 389.143164 
L 568.427552 399.71363 
L 572.094937 461.521308 
L 573.317399 474.361182 
L 574.53986 482.158664 
L 575.762322 486.652377 
L 576.984784 489.376765 
L 578.207245 491.260862 
L 579.429707 492.714672 
L 580.652169 493.840277 
L 581.87463 494.601842 
L 583.097092 494.960517 
L 584.319554 494.984184 
L 585.542015 494.877603 
L 586.764477 494.889919 
L 587.986939 495.157149 
L 590.431862 496.038133 
L 591.654324 496.241363 
L 592.876786 496.191152 
L 595.321709 495.925447 
L 596.544171 495.998947 
L 598.989094 496.583667 
L 601.434017 497.188769 
L 607.546326 498.194511 
L 612.436172 499.388954 
L 614.881096 499.67198 
L 617.326019 499.693458 
L 619.770942 499.474709 
L 620.993404 499.251299 
L 622.215866 498.906627 
L 623.438328 498.407167 
L 627.105713 496.429278 
L 629.550636 495.049118 
L 630.773098 494.594958 
L 631.995559 494.483907 
L 634.440483 494.967784 
L 636.885406 495.512701 
L 639.330329 496.376269 
L 640.552791 496.80199 
L 641.775253 497.041613 
L 645.442638 497.131712 
L 646.665099 497.149341 
L 647.887561 497.002491 
L 649.110023 496.588495 
L 651.554946 495.366803 
L 652.777408 494.957239 
L 653.999869 494.809581 
L 655.222331 494.886378 
L 656.444793 495.136801 
L 658.889716 495.998274 
L 661.33464 496.929302 
L 663.779563 497.648302 
L 666.224486 498.175202 
L 669.891871 498.68317 
L 685.783873 499.78867 
L 690.67372 499.825233 
L 700.453413 499.481082 
L 701.675875 499.081419 
L 702.898337 498.175793 
L 704.120798 496.632423 
L 705.34326 494.735088 
L 706.565722 493.145638 
L 707.788183 492.439406 
L 709.010645 492.675954 
L 712.67803 494.891463 
L 715.122953 496.030986 
L 717.567877 497.323574 
L 718.790338 497.818008 
L 720.0128 498.107181 
L 721.235262 498.201319 
L 726.125109 498.103917 
L 728.570032 498.401134 
L 731.014955 498.749659 
L 732.237417 498.770341 
L 733.459879 498.611284 
L 735.904802 498.052803 
L 737.127264 497.949255 
L 738.349725 498.068542 
L 744.462034 499.441949 
L 748.129419 499.639451 
L 760.354036 499.866552 
L 767.688806 499.101997 
L 781.135884 498.744476 
L 786.025731 498.742602 
L 792.138039 498.652814 
L 797.027886 498.63428 
L 801.917733 498.355519 
L 805.585118 497.971133 
L 810.474964 497.311846 
L 812.919888 497.311096 
L 816.587273 497.57582 
L 816.587273 497.57582 
" clip-path="url(#pfb27f5ec6c)" style="fill: none; stroke: #0000ff; stroke-width: 1.5; stroke-linecap: square"/>
   </g>
   <g id="line2d_14">
    <path d="M 89.646035 234.189367 
L 90.323034 234.282482 
L 115.696204 234.322188 
L 124.177154 234.308132 
L 127.564351 234.317425 
L 169.309461 234.246909 
L 173.578298 234.082819 
L 175.223731 234.229057 
L 183.432561 234.217936 
L 184.090001 234.252565 
L 187.705065 234.148119 
L 188.033173 234.220686 
L 193.620557 234.230278 
L 201.846012 234.254534 
L 204.145463 234.282906 
L 206.450048 234.226917 
L 214.686016 234.27787 
L 260.05377 234.285523 
L 264.721862 234.278179 
L 294.628164 234.278906 
L 372.366703 234.195038 
L 378.278283 234.139772 
L 379.924939 234.158964 
L 407.522989 234.238825 
L 408.190698 234.137695 
L 408.190698 233.896874 
L 408.523941 233.738983 
L 408.523941 232.894946 
L 408.85694 231.431895 
L 408.85694 230.764139 
L 409.190672 228.588009 
L 409.524648 227.923131 
L 409.524648 225.84647 
L 409.86107 226.358439 
L 409.86107 223.102726 
L 409.86107 223.803518 
L 410.190156 219.949204 
L 410.518754 221.925966 
L 410.518754 218.119713 
L 410.518754 219.943755 
L 410.846863 216.499142 
L 410.846863 218.810438 
L 411.179128 218.509924 
L 411.179128 215.97743 
L 411.506259 219.688527 
L 411.506259 214.472247 
L 411.833634 219.609567 
L 411.833634 215.762453 
L 412.160765 220.463195 
L 412.160765 216.629765 
L 412.487895 216.583944 
L 412.487895 217.064853 
L 412.814782 217.956713 
L 412.814782 212.361385 
L 412.814782 215.311895 
L 413.141912 211.225684 
L 413.141912 213.558 
L 413.469043 214.103829 
L 413.469043 216.591161 
L 413.795929 214.862373 
L 414.122816 214.703981 
L 414.122816 214.325113 
L 414.122816 215.384932 
L 414.450191 220.958821 
L 414.450191 217.318159 
L 414.7827 217.35321 
L 414.7827 216.098256 
L 415.111298 210.987918 
L 415.438429 211.003884 
L 415.438429 211.328536 
L 415.438429 210.060357 
L 415.765804 215.466581 
L 415.765804 217.328771 
L 415.765804 216.792212 
L 416.093179 221.16498 
L 416.093179 217.556326 
L 416.420555 216.625071 
L 416.748419 217.401811 
L 416.748419 213.821656 
L 417.076039 217.437702 
L 417.076039 214.877707 
L 417.076039 219.161338 
L 417.403658 219.435624 
L 417.403658 219.60409 
L 417.403658 219.179922 
L 417.731278 218.908343 
L 418.059387 217.232744 
L 418.387495 217.181462 
L 418.387495 219.43231 
L 418.715604 220.970282 
L 419.043957 223.804806 
L 419.043957 221.612917 
L 419.372066 223.796511 
L 419.372066 222.476671 
L 419.710199 225.1137 
L 419.710199 223.089308 
L 419.710199 224.700705 
L 420.038308 224.551632 
L 420.038308 224.765675 
L 420.36715 224.839126 
L 420.36715 224.74383 
L 420.712129 223.310059 
L 421.040726 225.204411 
L 421.040726 223.69373 
L 421.040726 225.283256 
L 421.369324 225.987809 
L 421.698166 223.959935 
L 422.027253 223.751005 
L 422.356584 223.884299 
L 422.356584 223.756027 
L 422.686649 224.033836 
L 422.686649 226.412704 
L 423.01598 225.05869 
L 423.346044 226.712171 
L 423.346044 224.981862 
L 423.676354 226.443987 
L 423.676354 224.563663 
L 423.676354 225.641284 
L 424.006663 225.680155 
L 424.006663 225.857949 
L 424.006663 225.43019 
L 424.336483 227.546114 
L 424.336483 225.905608 
L 424.671926 227.540936 
L 424.671926 225.996647 
L 425.00248 228.010177 
L 425.00248 226.748624 
L 425.334012 227.007495 
L 425.334012 227.164124 
L 425.665054 227.55896 
L 425.665054 227.011719 
L 425.996097 228.449726 
L 425.996097 226.3525 
L 426.328117 227.769843 
L 426.328117 226.221506 
L 426.328117 226.281773 
L 426.659894 228.191908 
L 426.659894 227.211494 
L 426.991425 227.323444 
L 426.991425 228.057451 
L 427.32369 228.319225 
L 427.32369 227.958762 
L 427.655711 228.082287 
L 427.655711 227.580426 
L 427.987976 227.596852 
L 427.987976 225.612461 
L 427.987976 227.244764 
L 428.319997 225.626074 
L 428.656907 227.438734 
L 428.656907 226.081336 
L 428.656907 227.434533 
L 428.989906 225.876836 
L 428.989906 227.26856 
L 429.322415 227.410943 
L 429.322415 227.925967 
L 429.661281 229.86619 
L 429.661281 228.52416 
L 429.994036 228.545139 
L 429.994036 228.477589 
L 429.994036 228.258058 
L 430.327034 227.862585 
L 430.327034 228.373401 
L 430.327034 228.074808 
L 430.660033 229.428545 
L 430.660033 228.617516 
L 430.991809 227.870849 
L 431.325052 227.896823 
L 431.325052 228.151042 
L 431.65805 229.878108 
L 431.65805 229.106605 
L 431.991049 228.055122 
L 431.991049 228.969327 
L 432.325025 229.461389 
L 432.325025 228.393801 
L 432.325025 229.586844 
L 432.659247 230.478582 
L 432.659247 229.57265 
L 432.99249 228.164952 
L 432.99249 229.070874 
L 433.325733 229.130252 
L 433.325733 228.21107 
L 433.325733 229.054755 
L 433.658731 230.354881 
L 433.658731 229.564139 
L 433.99173 229.665476 
L 433.99173 229.869514 
L 434.325951 229.844779 
L 434.325951 229.912941 
L 434.325951 229.62456 
L 434.664573 230.640139 
L 434.664573 229.788833 
L 434.999772 230.778175 
L 434.999772 229.708687 
L 435.332526 230.491401 
L 435.332526 229.774981 
L 435.666013 228.868173 
L 435.666013 229.579653 
L 435.998767 230.046043 
L 435.998767 229.226328 
L 435.998767 230.187187 
L 436.331766 231.175207 
L 436.331766 230.050117 
L 436.66452 229.857121 
L 436.66452 229.964495 
L 436.99923 229.928419 
L 436.99923 230.549755 
L 437.33174 231.248024 
L 437.33174 230.363792 
L 437.664249 230.567406 
L 438.001893 229.664568 
L 438.335136 229.674827 
L 438.667401 229.446638 
L 438.667401 229.569384 
L 438.667401 230.246106 
L 439.001133 229.680152 
L 439.001133 230.480573 
L 439.335354 229.784557 
L 439.335354 230.430354 
L 439.672265 230.864514 
L 440.005019 231.692658 
L 440.005019 230.83121 
L 440.345352 231.697462 
L 440.345352 231.132016 
L 440.678351 231.207942 
L 440.678351 231.461858 
L 441.011349 231.67571 
L 441.011349 230.908088 
L 441.011349 231.450844 
L 441.344592 231.435065 
L 441.344592 231.301554 
L 441.676857 230.497197 
L 441.676857 230.988759 
L 442.013523 231.203762 
L 442.013523 230.573333 
L 442.013523 231.288481 
L 442.346277 231.051679 
L 442.679276 231.268052 
L 442.679276 230.322615 
L 442.679276 230.816915 
L 443.012763 230.052533 
L 443.347473 231.198664 
L 443.347473 230.633338 
L 443.347473 231.447747 
L 443.682183 231.626416 
L 443.682183 231.780226 
L 443.682183 231.56571 
L 444.015916 232.23433 
L 444.015916 231.522198 
L 444.350381 232.214925 
L 444.350381 231.684643 
L 444.688025 231.562982 
L 444.688025 231.643395 
L 445.022246 231.734509 
L 445.022246 231.646743 
L 445.690932 231.813969 
L 445.690932 231.338175 
L 446.025154 232.039362 
L 446.025154 231.586776 
L 446.025154 232.056406 
L 446.36402 232.042374 
L 446.36402 231.893754 
L 446.698485 231.444808 
L 446.698485 231.990828 
L 447.03344 232.107903 
L 447.03344 231.714021 
L 447.367661 232.403582 
L 447.367661 232.206577 
L 447.700904 231.591497 
L 448.034636 232.020038 
L 448.034636 231.504612 
L 448.034636 232.074732 
L 448.367635 231.867569 
L 448.367635 231.882935 
L 448.700878 231.934974 
L 448.700878 231.758915 
L 449.034365 231.691149 
L 449.034365 232.097713 
L 449.367608 232.043358 
L 449.367608 232.047756 
L 449.705986 231.806824 
L 449.705986 232.176606 
L 450.038251 231.606787 
L 450.372961 232.258549 
L 450.372961 231.986966 
L 450.707182 232.091367 
L 450.707182 232.293003 
L 450.707182 232.254351 
L 451.041647 232.17202 
L 451.041647 232.281694 
L 451.375379 231.736233 
L 451.375379 232.018538 
L 451.708622 232.057606 
L 451.708622 231.631808 
L 451.708622 232.111478 
L 452.041621 232.671813 
L 452.041621 232.226764 
L 452.375353 232.636837 
L 452.375353 232.431604 
L 453.377527 232.55435 
L 453.377527 232.491734 
L 453.712482 232.666825 
L 453.712482 232.19178 
L 453.712482 232.413278 
L 454.045236 231.972279 
L 454.045236 232.427135 
L 454.384835 232.391696 
L 454.384835 232.517774 
L 454.72468 232.186256 
L 454.72468 232.560792 
L 455.058656 232.663297 
L 455.058656 232.188573 
L 455.392877 232.556207 
L 455.392877 232.435078 
L 455.727832 232.106944 
L 456.06083 232.051607 
L 456.06083 232.098382 
L 456.39334 231.739058 
L 457.058848 232.881684 
L 457.058848 232.723232 
L 457.393069 232.618488 
L 457.725579 232.755135 
L 457.725579 232.494609 
L 458.060778 232.755358 
L 458.060778 232.392816 
L 458.394021 232.898202 
L 458.394021 232.718107 
L 458.726286 232.491692 
L 459.060507 232.545954 
L 459.060507 232.716021 
L 459.060507 232.652617 
L 459.39375 232.440678 
L 459.39375 232.715862 
L 460.06537 232.580833 
L 460.06537 232.655008 
L 460.397391 232.475491 
L 460.397391 232.818208 
L 461.064366 233.016806 
L 461.064366 232.90836 
L 461.396631 232.389593 
L 461.729141 232.319816 
L 461.729141 232.459817 
L 462.063362 232.705178 
L 462.063362 232.865515 
L 462.729359 232.939141 
L 462.729359 232.833114 
L 463.063335 232.774449 
L 463.063335 232.896583 
L 463.063335 232.799877 
L 463.3956 232.941897 
L 463.3956 232.901013 
L 463.728355 233.162351 
L 463.728355 232.906222 
L 464.066976 233.300881 
L 464.066976 233.086551 
L 464.399975 232.744504 
L 464.399975 232.858977 
L 464.737863 232.605167 
L 465.071595 232.633737 
L 465.071595 232.511747 
L 465.406305 232.814616 
L 465.406305 232.601748 
L 465.738815 232.775038 
L 465.738815 232.473185 
L 465.738815 232.816672 
L 466.073281 232.902746 
L 466.406035 233.221114 
L 466.406035 233.040946 
L 466.740989 233.003881 
L 466.740989 233.037889 
L 467.074721 233.181034 
L 467.074721 233.038486 
L 467.074721 233.230373 
L 467.40772 233.3692 
L 467.740718 233.089159 
L 468.073717 233.055319 
L 468.406226 233.168649 
L 468.406226 232.913419 
L 469.073202 233.391318 
L 469.073202 233.315221 
L 469.073202 233.503173 
L 469.404733 233.498044 
L 469.404733 233.615699 
L 470.074887 233.759971 
L 470.408863 233.687208 
L 470.408863 233.831925 
L 470.741617 233.691775 
L 471.073638 233.682294 
L 471.406392 233.510413 
L 471.406392 233.698207 
L 471.738168 233.491588 
L 472.070922 233.661565 
L 472.070922 233.556289 
L 472.403921 233.49962 
L 472.736919 233.259032 
L 473.742761 233.059632 
L 474.076493 233.308807 
L 474.748358 233.291216 
L 475.083068 233.313336 
L 475.747842 233.064632 
L 477.078614 233.715238 
L 477.078614 233.500634 
L 477.078614 233.647562 
L 477.413324 233.616999 
L 477.413324 233.485801 
L 478.078099 233.33433 
L 478.412075 233.065682 
L 478.744096 233.256176 
L 478.744096 233.21341 
L 478.744096 233.448639 
L 479.077583 233.640238 
L 479.077583 233.636484 
L 479.410337 233.493585 
L 479.749204 233.477958 
L 479.749204 233.268857 
L 480.082936 233.138481 
L 480.416668 233.337691 
L 480.416668 233.134042 
L 481.083643 233.545951 
L 481.083643 233.302164 
L 481.083643 233.48791 
L 481.418353 233.444781 
L 481.752574 233.26109 
L 482.086551 233.590203 
L 482.086551 233.373793 
L 482.420527 233.147332 
L 482.754504 233.319648 
L 482.754504 233.180019 
L 483.086524 233.061365 
L 483.086524 233.098225 
L 483.086524 233.254734 
L 483.422457 233.321494 
L 483.754477 233.128986 
L 484.093344 233.367175 
L 484.093344 233.021966 
L 484.42732 233.248747 
L 484.42732 233.193296 
L 484.76692 233.152067 
L 484.76692 233.180041 
L 485.10163 232.972112 
L 485.10163 233.23069 
L 485.435118 232.851595 
L 485.76885 233.226315 
L 485.76885 233.066397 
L 486.101604 233.288755 
L 486.101604 233.142649 
L 486.434602 233.498351 
L 486.434602 233.175592 
L 486.434602 233.334878 
L 486.767845 233.410619 
L 486.767845 233.285298 
L 487.433109 233.477642 
L 487.433109 233.377698 
L 487.765374 233.298911 
L 488.099106 233.382678 
L 488.099106 233.105131 
L 488.099106 233.237329 
L 489.098102 233.398278 
L 489.098102 233.115781 
L 489.432323 232.981252 
L 489.769478 233.241537 
L 489.769478 232.919523 
L 490.101987 232.882253 
L 490.436453 233.107147 
L 490.436453 232.923002 
L 490.769696 232.848151 
L 490.769696 232.91959 
L 491.102205 233.203843 
L 491.102205 233.030239 
L 491.102205 233.297688 
L 491.434715 233.030439 
L 491.434715 233.309601 
L 491.768692 233.227123 
L 492.10169 232.998019 
L 492.435667 233.259749 
L 492.435667 233.023336 
L 492.774289 233.128293 
L 493.107532 233.43482 
L 493.107532 233.229514 
L 493.440775 233.515714 
L 493.440775 233.347523 
L 493.440775 233.588442 
L 493.77524 233.457784 
L 493.77524 233.709192 
L 494.107994 233.556095 
L 494.440748 233.728716 
L 494.777903 233.71659 
L 495.444878 234.00815 
L 496.106475 234.191341 
L 496.436539 234.269515 
L 496.766115 234.188085 
L 501.39191 233.832754 
L 502.053751 233.825064 
L 502.053751 233.981869 
L 503.384278 234.042409 
L 503.384278 233.988127 
L 503.716788 233.892538 
L 505.384959 234.038416 
L 505.384959 233.935525 
L 505.384959 233.952526 
L 506.0512 233.894676 
L 506.384199 233.774687 
L 507.049218 233.850709 
L 507.049218 233.782942 
L 507.383684 233.79821 
L 507.383684 233.68936 
L 508.049681 233.621217 
L 508.049681 233.752547 
L 508.049681 233.735631 
L 508.715678 233.925494 
L 508.715678 233.832986 
L 509.381186 233.893011 
L 509.381186 233.735921 
L 509.719808 233.459724 
L 510.053784 233.555891 
L 510.053784 233.492948 
L 510.392895 233.453749 
L 510.727605 233.66019 
L 511.395069 233.449247 
L 512.0618 233.665674 
L 512.393332 233.936545 
L 512.725352 233.888865 
L 512.725352 233.715303 
L 512.725352 233.741399 
L 513.057373 233.5163 
L 513.390371 233.324521 
L 513.390371 233.481421 
L 513.723125 233.560011 
L 514.05539 233.389437 
L 514.05539 233.512182 
L 514.387656 233.617704 
L 514.387656 233.397047 
L 516.055582 233.531465 
L 516.388581 233.283284 
L 516.72109 233.507397 
L 516.72109 233.30869 
L 517.055311 233.175373 
L 517.388799 233.199721 
L 517.721553 233.41523 
L 517.721553 233.237659 
L 518.72226 233.068529 
L 519.392903 233.297323 
L 519.392903 233.255295 
L 519.732013 233.372971 
L 520.065501 233.104146 
L 520.398744 233.442379 
L 521.396762 233.62628 
L 521.396762 233.406652 
L 521.396762 233.505519 
L 521.728782 233.483902 
L 521.728782 233.353359 
L 522.063492 233.399965 
L 522.063492 233.39684 
L 522.729734 233.214138 
L 523.061755 233.473629 
L 523.061755 233.426389 
L 523.394264 233.211388 
L 523.394264 233.507811 
L 523.728241 233.551229 
L 523.728241 233.34555 
L 524.060017 233.592121 
L 524.393504 233.318115 
L 524.731882 233.332405 
L 525.065614 233.097609 
L 525.398368 233.203243 
L 525.398368 233.339682 
L 525.732344 233.496457 
L 526.065587 233.659849 
L 526.065587 233.632465 
L 526.397608 233.658404 
L 526.397608 233.462649 
L 526.730851 233.611002 
L 526.730851 233.645972 
L 527.396115 233.634636 
L 527.396115 233.395752 
L 527.728135 233.170087 
L 528.0604 233.439 
L 528.0604 233.07928 
L 528.734466 232.966939 
L 528.734466 233.188598 
L 529.068442 232.889217 
L 529.400952 233.157151 
L 530.072083 233.378506 
L 530.072083 233.206095 
L 530.405815 233.475885 
L 530.405815 233.298648 
L 530.738814 233.475792 
L 530.738814 233.247359 
L 531.073279 233.145995 
L 531.4075 233.432576 
L 531.4075 233.132577 
L 531.740255 233.156396 
L 532.073009 233.404969 
L 532.073009 233.296219 
L 532.073009 233.185465 
L 532.405029 233.50097 
L 532.405029 233.393493 
L 533.737023 233.561828 
L 533.737023 233.358812 
L 534.069533 233.506482 
L 534.069533 233.490704 
L 534.741153 233.531314 
L 534.741153 233.619038 
L 535.074397 233.55207 
L 535.074397 233.639116 
L 535.407151 233.636229 
L 535.407151 233.402435 
L 535.740149 233.602118 
L 535.740149 233.529538 
L 536.07217 233.628946 
L 536.07217 233.491606 
L 536.40688 233.705079 
L 536.40688 233.400676 
L 536.740856 233.495706 
L 536.740856 233.307554 
L 537.411499 233.381639 
L 537.74572 233.212699 
L 538.077985 233.198148 
L 538.077985 233.351803 
L 539.079425 233.524021 
L 539.079425 233.316718 
L 539.410224 233.428637 
L 539.410224 233.554607 
L 540.076465 233.910333 
L 541.06397 233.732893 
L 541.06397 233.486698 
L 541.392812 233.552104 
L 541.392812 233.434743 
L 541.392812 233.573093 
L 542.382028 233.504906 
L 542.712093 233.702305 
L 542.712093 233.675697 
L 543.371244 233.761368 
L 543.371244 233.480465 
L 544.031129 233.477736 
L 544.031129 233.490236 
L 544.361438 233.484129 
L 544.361438 233.502444 
L 544.361438 233.69129 
L 545.027191 233.581359 
L 545.027191 233.621292 
L 545.027191 233.680715 
L 546.359674 233.590837 
L 546.691694 233.381672 
L 547.02347 233.533464 
L 547.02347 233.397229 
L 547.02347 233.479012 
L 547.356714 233.543275 
L 547.356714 233.708816 
L 547.69069 233.430008 
L 547.69069 233.51836 
L 548.023444 233.551635 
L 548.023444 233.394051 
L 548.355465 233.329844 
L 548.355465 233.411182 
L 548.687974 233.493427 
L 548.687974 233.318762 
L 548.687974 233.481437 
L 549.020484 233.405523 
L 549.020484 233.585058 
L 549.354705 233.459802 
L 549.354705 233.40806 
L 549.692349 233.581264 
L 549.692349 233.394411 
L 550.024858 233.631629 
L 550.024858 233.534021 
L 550.35859 233.480885 
L 551.02361 233.288359 
L 551.357831 232.932661 
L 551.692052 233.186139 
L 552.025295 233.275593 
L 552.025295 233.646018 
L 552.690314 233.321248 
L 553.024046 233.483569 
L 553.024046 233.335701 
L 553.024046 233.449687 
L 553.356066 233.701772 
L 553.356066 233.612701 
L 553.690287 233.690943 
L 553.690287 233.617043 
L 554.022797 233.575731 
L 554.354818 233.36098 
L 554.354818 233.375255 
L 554.693928 233.372854 
L 554.693928 233.060065 
L 554.693928 233.166868 
L 555.360659 233.33681 
L 555.360659 233.224989 
L 555.700259 233.454689 
L 555.700259 233.399632 
L 556.033991 233.161158 
L 556.033991 233.31539 
L 556.701455 233.5188 
L 557.035921 233.506016 
L 557.035921 233.215992 
L 557.368675 233.42061 
L 557.368675 233.24628 
L 557.701918 233.295563 
L 558.034916 233.46778 
L 558.034916 233.238084 
L 558.366937 233.38926 
L 558.366937 233.286194 
L 558.699935 233.031682 
L 558.699935 233.100157 
L 559.032201 233.134716 
L 559.36471 233.514233 
L 559.36471 233.499254 
L 559.704065 233.510205 
L 559.704065 233.432044 
L 560.036331 233.218075 
L 560.370307 232.860487 
L 560.702817 233.11629 
L 560.702817 232.948352 
L 560.702817 233.173908 
L 561.368814 233.429039 
L 561.368814 233.193842 
L 562.035055 232.958651 
L 562.035055 232.963836 
L 562.367809 233.402213 
L 562.367809 233.193597 
L 562.701297 233.407172 
L 562.701297 233.382562 
L 563.034051 233.398472 
L 563.034051 233.151502 
L 563.034051 233.362837 
L 563.367783 233.340709 
L 563.367783 233.36718 
L 563.700293 232.876168 
L 564.033536 232.790079 
L 564.033536 231.741897 
L 564.366045 231.188119 
L 564.366045 228.773476 
L 564.708335 224.421626 
L 565.041822 217.666953 
L 565.373354 214.73161 
L 565.373354 200.794415 
L 565.705619 200.739808 
L 565.705619 186.190271 
L 566.035928 191.849239 
L 566.035928 168.72054 
L 566.365015 177.828866 
L 566.365015 155.057867 
L 566.693612 148.343937 
L 566.693612 134.747045 
L 567.021721 132.313517 
L 567.021721 96.444963 
L 567.021721 107.740441 
L 567.349341 107.885635 
L 567.349341 84.836881 
L 567.676961 112.221446 
L 567.676961 71.615788 
L 568.004336 105.063354 
L 568.004336 62.989547 
L 568.331466 95.062558 
L 568.331466 49.932727 
L 568.659086 89.269954 
L 568.659086 55.564488 
L 568.986217 98.377068 
L 568.986217 75.312497 
L 569.313837 78.877897 
L 569.313837 76.921119 
L 569.313837 79.445269 
L 569.646346 82.731381 
L 569.646346 72.97977 
L 569.973722 75.685889 
L 570.301341 78.228545 
L 570.301341 90.392516 
L 570.629205 128.016993 
L 570.629205 107.685167 
L 570.956825 139.530225 
L 570.956825 126.09601 
L 570.956825 127.394434 
L 571.284934 153.938774 
L 571.284934 136.264622 
L 571.612554 159.632417 
L 571.612554 138.753395 
L 571.940418 161.714921 
L 571.940418 143.035164 
L 572.269016 166.116247 
L 572.269016 148.903199 
L 572.597369 170.012076 
L 572.597369 152.921843 
L 572.925722 170.750482 
L 572.925722 158.400409 
L 573.254075 158.931819 
L 573.254075 161.961293 
L 573.582917 164.167874 
L 573.582917 166.964454 
L 573.582917 164.755085 
L 573.91616 182.508721 
L 573.91616 171.122977 
L 574.245247 173.548454 
L 574.245247 175.598449 
L 574.579713 161.191888 
L 574.579713 174.594188 
L 574.909044 159.438668 
L 574.909044 171.511349 
L 575.23813 175.298719 
L 575.23813 178.497477 
L 575.567462 182.984305 
L 575.567462 185.559058 
L 575.896548 185.679454 
L 575.896548 187.224838 
L 576.226124 175.591368 
L 576.226124 186.527876 
L 576.555455 179.653113 
L 576.555455 177.217836 
L 576.884542 192.277367 
L 577.214362 193.987514 
L 577.543449 184.657466 
L 577.873513 194.639615 
L 577.873513 188.307877 
L 577.873513 195.95014 
L 578.204067 206.089824 
L 578.204067 199.324379 
L 578.534132 208.350429 
L 578.534132 203.255025 
L 578.864685 203.127631 
L 578.864685 201.987994 
L 579.194994 203.768025 
L 579.194994 198.017503 
L 579.194994 203.784936 
L 579.861481 205.041109 
L 579.861481 204.778149 
L 579.861481 204.78403 
L 580.193012 204.91967 
L 580.193012 207.739695 
L 580.193012 205.825978 
L 580.525277 212.550687 
L 580.525277 208.326966 
L 580.855831 214.483722 
L 580.855831 210.275171 
L 581.186874 211.012469 
L 581.186874 209.570237 
L 581.51865 210.751713 
L 581.51865 205.606419 
L 581.51865 210.801672 
L 581.856294 204.331741 
L 581.856294 209.708399 
L 582.189292 209.8419 
L 582.189292 211.611716 
L 582.521802 217.697455 
L 582.521802 213.433679 
L 582.853822 217.951984 
L 582.853822 214.194223 
L 583.185843 219.165676 
L 583.185843 216.067553 
L 583.517619 216.321163 
L 583.517619 215.969485 
L 583.84964 211.580766 
L 583.84964 215.111697 
L 584.182883 214.898045 
L 584.182883 215.69804 
L 584.521015 220.364457 
L 584.521015 217.879441 
L 584.853281 218.063504 
L 584.853281 218.701094 
L 585.187013 219.118237 
L 585.187013 219.373643 
L 585.520256 216.11599 
L 585.520256 219.411039 
L 585.853988 220.605421 
L 585.853988 216.673507 
L 586.187964 220.582755 
L 586.520963 220.39235 
L 586.520963 221.097153 
L 586.852983 218.390847 
L 586.852983 221.051973 
L 587.186471 221.864831 
L 587.186471 219.613182 
L 587.519714 220.398844 
L 587.519714 222.62504 
L 587.853446 220.128851 
L 588.187178 223.729845 
L 588.521399 224.303783 
L 588.521399 225.131409 
L 588.853664 222.620421 
L 589.187641 224.850198 
L 589.187641 223.018882 
L 589.187641 224.783633 
L 589.526018 227.257673 
L 589.526018 225.053587 
L 589.857794 225.153653 
L 590.197639 225.477038 
L 590.197639 223.622523 
L 590.197639 225.334556 
L 590.529904 226.349327 
L 590.529904 226.986124 
L 590.529904 226.74208 
L 590.862902 228.692658 
L 590.862902 226.656071 
L 591.196145 226.412354 
L 591.196145 226.625185 
L 591.52841 226.293912 
L 591.52841 226.844746 
L 591.52841 226.59412 
L 591.861653 226.881425 
L 592.194652 225.673501 
L 592.194652 225.794876 
L 592.528139 227.423991 
L 592.528139 226.571375 
L 592.861138 228.425152 
L 592.861138 228.399013 
L 593.193159 227.015819 
L 593.193159 228.126614 
L 593.526402 227.629682 
L 593.526402 227.547791 
L 593.858911 228.888409 
L 593.858911 227.726068 
L 594.192399 228.047746 
L 594.192399 228.255032 
L 594.192399 228.232884 
L 594.532488 228.117791 
L 594.532488 228.19103 
L 594.532488 227.998151 
L 594.865731 229.272056 
L 594.865731 228.419486 
L 595.198974 228.667109 
L 595.198974 228.88724 
L 595.532217 229.000542 
L 595.532217 227.75315 
L 595.532217 228.93571 
L 596.199436 229.174108 
L 596.199436 229.275486 
L 596.199436 229.186055 
L 596.531946 228.039593 
L 596.531946 228.954256 
L 596.866656 228.88602 
L 596.866656 228.976158 
L 597.200144 229.44706 
L 597.532898 228.615024 
L 597.866385 229.876339 
L 597.866385 228.708275 
L 597.866385 229.625829 
L 598.198406 230.854818 
L 598.198406 230.06367 
L 598.865381 230.35043 
L 598.865381 229.500736 
L 599.19789 229.265703 
L 599.19789 228.767712 
L 599.536023 228.792734 
L 599.536023 228.607312 
L 599.875379 229.587942 
L 600.207399 230.709792 
L 600.207399 230.220437 
L 600.207399 230.314132 
L 600.542109 230.385365 
L 600.875597 230.760528 
L 600.875597 230.065598 
L 601.210062 230.712449 
L 601.210062 229.965334 
L 601.542816 229.964599 
L 601.542816 229.671762 
L 601.877526 229.724231 
L 601.877526 229.523361 
L 602.211747 230.081608 
L 602.211747 230.341816 
L 602.211747 230.332665 
L 602.545479 230.08247 
L 602.879211 229.351639 
L 602.879211 229.390479 
L 603.213677 230.342839 
L 603.213677 229.910176 
L 603.546676 231.096039 
L 603.546676 230.915822 
L 603.880163 230.6424 
L 604.213895 230.328706 
L 604.213895 230.58762 
L 604.888205 230.242644 
L 605.221204 231.14681 
L 605.221204 230.705423 
L 605.221204 230.786277 
L 605.554691 231.623936 
L 605.554691 230.88424 
L 606.223133 231.021274 
L 606.223133 230.218467 
L 606.223133 231.158331 
L 606.556621 230.621105 
L 606.556621 231.027505 
L 606.889864 230.896856 
L 606.889864 231.001802 
L 607.223596 231.234237 
L 607.223596 231.308452 
L 607.557083 231.543014 
L 607.557083 231.456292 
L 607.89106 230.583634 
L 608.225036 231.181168 
L 608.225036 230.745185 
L 608.558524 230.455785 
L 608.558524 230.752106 
L 608.897635 231.714674 
L 608.897635 231.322553 
L 609.231122 231.289332 
L 609.231122 231.389366 
L 609.5695 231.80338 
L 609.5695 231.149281 
L 609.903965 231.501122 
L 610.237453 231.174615 
L 610.570207 230.181776 
L 610.903694 230.793262 
L 610.903694 230.43591 
L 610.903694 230.770375 
L 611.236693 231.141459 
L 611.236693 231.737778 
L 611.236693 231.557591 
L 611.572136 232.262052 
L 611.572136 231.875757 
L 611.907091 232.121358 
L 612.575533 231.612735 
L 612.575533 231.635277 
L 612.909754 230.98438 
L 612.909754 231.355488 
L 613.242019 231.848785 
L 613.242019 231.445043 
L 613.57624 232.07797 
L 613.57624 231.989687 
L 613.911439 231.50805 
L 614.582571 231.48658 
L 614.582571 231.905716 
L 614.916792 231.637714 
L 615.251502 232.159104 
L 615.251502 231.492252 
L 615.251502 231.740874 
L 615.586456 231.88823 
L 615.586456 232.404822 
L 615.91921 232.419831 
L 615.91921 232.598727 
L 616.251475 232.609462 
L 616.251475 232.102677 
L 616.251475 232.194974 
L 616.583496 232.142381 
L 616.583496 232.253644 
L 616.915516 232.355409 
L 616.915516 232.352759 
L 617.586403 232.410339 
L 617.586403 232.481508 
L 617.920869 232.542349 
L 617.920869 232.118555 
L 618.253134 232.546762 
L 618.253134 232.086039 
L 618.253134 232.414268 
L 618.585888 232.557757 
L 618.585888 232.749648 
L 618.919865 232.58791 
L 619.254575 232.627756 
L 619.254575 232.081933 
L 619.254575 232.243895 
L 619.593686 232.356194 
L 619.926684 232.791528 
L 619.926684 232.458672 
L 620.260416 232.858352 
L 620.260416 232.495377 
L 620.593904 232.135448 
L 620.593904 232.477209 
L 621.260634 231.818712 
L 621.260634 232.114047 
L 621.594366 232.43491 
L 621.594366 232.367899 
L 621.594366 232.848625 
L 621.928343 232.62796 
L 622.262319 232.70787 
L 622.262319 232.505367 
L 622.595807 232.728851 
L 622.595807 232.28874 
L 622.929539 232.579264 
L 623.262049 232.486262 
L 623.59627 232.082341 
L 623.928779 232.198231 
L 623.928779 232.385734 
L 624.262022 232.288443 
L 624.262022 232.295044 
L 624.262022 232.506608 
L 624.603089 232.870102 
L 624.603089 232.732809 
L 624.936577 232.859144 
L 624.936577 232.977983 
L 625.271287 233.092284 
L 625.271287 232.768932 
L 625.605263 232.929925 
L 625.605263 232.526495 
L 625.605263 232.811329 
L 625.938506 232.598289 
L 625.938506 232.858806 
L 626.272483 232.887796 
L 626.272483 233.03645 
L 626.272483 233.035306 
L 626.605726 233.320557 
L 626.605726 233.141243 
L 626.938235 233.042277 
L 627.271967 233.099333 
L 627.6101 232.780156 
L 628.275853 232.912021 
L 628.275853 232.882393 
L 628.942828 233.135243 
L 628.942828 232.87695 
L 629.276316 232.8607 
L 629.276316 233.123038 
L 629.614693 233.257159 
L 629.614693 232.810491 
L 629.947447 233.15935 
L 629.947447 233.15095 
L 630.281912 233.153 
L 630.281912 232.945519 
L 630.614178 233.34609 
L 630.614178 233.123005 
L 630.946687 233.468874 
L 630.946687 233.212571 
L 630.946687 233.365856 
L 631.279197 233.146869 
L 632.282104 232.919408 
L 632.282104 232.75695 
L 632.616081 232.908612 
L 632.616081 232.496757 
L 633.619722 233.279224 
L 633.619722 233.155703 
L 633.953209 233.034083 
L 633.953209 232.856387 
L 634.288164 232.789981 
L 634.288164 232.570268 
L 635.293027 232.946425 
L 635.293027 232.685753 
L 635.960491 232.253961 
L 635.960491 232.457596 
L 636.293735 232.239278 
L 636.629178 232.562297 
L 636.629178 232.804116 
L 637.303732 233.160479 
L 637.303732 232.893006 
L 637.637709 233.045234 
L 637.637709 232.920628 
L 638.640861 233.33585 
L 638.640861 233.307441 
L 638.97386 233.417428 
L 638.97386 233.240262 
L 639.64548 233.402766 
L 639.64548 233.165098 
L 639.978723 233.323536 
L 639.978723 233.291457 
L 640.313678 233.257934 
L 640.313678 233.032245 
L 641.317563 232.941963 
L 641.651051 233.225595 
L 641.651051 233.099213 
L 641.985027 233.088957 
L 641.985027 232.956131 
L 642.319248 233.244915 
L 642.652247 233.237533 
L 642.652247 233.366529 
L 643.322156 233.414532 
L 643.322156 233.200321 
L 643.655399 233.293879 
L 643.655399 233.217611 
L 645.668549 233.36124 
L 645.668549 233.546458 
L 646.003992 233.599798 
L 646.003992 233.507337 
L 646.336502 233.306375 
L 646.671701 233.311859 
L 647.013256 233.047768 
L 647.68341 233.506273 
L 648.686073 233.58009 
L 648.686073 233.474643 
L 649.356227 233.541679 
L 650.028336 233.466286 
L 650.028336 233.312484 
L 650.363046 233.402796 
L 650.363046 233.175957 
L 650.697267 233.476892 
L 650.697267 233.3086 
L 650.697267 233.490525 
L 652.031706 233.682557 
L 652.031706 233.473493 
L 652.366172 233.295921 
L 652.366172 233.423561 
L 652.700148 233.491106 
L 652.700148 233.394896 
L 652.700148 233.632604 
L 653.033636 233.803186 
L 653.033636 233.680273 
L 653.36859 233.453112 
L 654.03312 233.609252 
L 654.366119 233.784388 
L 654.366119 233.737153 
L 654.703029 233.461416 
L 654.703029 233.463092 
L 655.36487 233.551852 
L 655.36487 233.826585 
L 656.0272 233.823851 
L 657.028152 233.315988 
L 657.360417 233.271249 
L 658.026903 233.650678 
L 658.026903 233.77602 
L 658.691188 233.799112 
L 658.691188 233.783898 
L 658.691188 233.665722 
L 661.024134 233.731452 
L 661.024134 233.721548 
L 661.689153 233.537862 
L 662.354173 233.82971 
L 662.354173 233.659098 
L 662.688149 233.424428 
L 663.021148 233.517338 
L 663.021148 233.454785 
L 663.35488 233.318786 
L 663.688123 233.521047 
L 663.688123 233.700737 
L 664.697387 233.624176 
L 664.697387 233.638139 
L 665.369986 233.608913 
L 666.038428 233.768863 
L 666.038428 233.746276 
L 666.371426 233.811104 
L 666.371426 233.773121 
L 667.378735 233.27859 
L 668.382865 233.538408 
L 669.054485 233.385155 
L 669.054485 233.535965 
L 669.388706 233.440273 
L 669.388706 233.633451 
L 670.400171 233.934507 
L 670.400171 233.79362 
L 670.737081 233.816204 
L 670.737081 233.619009 
L 670.737081 233.67266 
L 672.075677 233.470506 
L 672.075677 233.591727 
L 672.746319 233.673469 
L 672.746319 233.806989 
L 673.081763 233.651047 
L 673.081763 233.731584 
L 673.75754 233.891634 
L 673.75754 233.817837 
L 675.44527 233.676123 
L 675.44527 233.735259 
L 676.117869 233.591952 
L 677.79313 233.966716 
L 677.79313 233.877094 
L 678.463039 233.679521 
L 678.463039 233.68405 
L 678.800928 233.759544 
L 679.13686 233.853936 
L 679.13686 233.837698 
L 680.150281 233.727358 
L 681.164435 233.896255 
L 681.164435 233.869353 
L 681.164435 233.751735 
L 681.504035 233.855552 
L 681.504035 233.756005 
L 681.842657 233.67695 
L 681.842657 233.724946 
L 682.519411 233.91577 
L 682.519411 233.981287 
L 683.532099 233.85295 
L 683.867542 233.685175 
L 683.867542 233.499143 
L 684.204942 233.550554 
L 684.204942 233.457723 
L 684.883408 233.579686 
L 684.883408 233.688241 
L 685.556495 233.768903 
L 685.556495 233.823222 
L 686.228116 233.815036 
L 686.228116 233.695281 
L 686.900714 233.818558 
L 686.900714 233.893482 
L 686.900714 233.883207 
L 687.575757 233.96199 
L 687.575757 233.914987 
L 688.246644 233.711252 
L 688.246644 233.783706 
L 689.253708 233.619835 
L 689.591352 233.357089 
L 689.591352 233.529312 
L 690.61113 233.845135 
L 690.948529 233.68932 
L 691.285195 233.848201 
L 691.285195 233.821271 
L 691.624551 233.599478 
L 691.960239 233.65483 
L 692.300816 233.521276 
L 692.300816 233.523703 
L 692.636504 233.546219 
L 692.636504 233.676498 
L 692.97317 233.775715 
L 693.648703 233.885302 
L 695.341812 233.784379 
L 695.680678 233.855465 
L 695.680678 233.808011 
L 696.6963 233.727558 
L 696.6963 233.746841 
L 697.03541 233.70399 
L 697.03541 233.741805 
L 697.372321 233.838157 
L 697.372321 233.768457 
L 699.738029 233.931783 
L 699.738029 233.742975 
L 701.096184 233.950667 
L 701.778562 233.696818 
L 701.778562 233.739898 
L 702.115961 233.623164 
L 702.452138 233.817208 
L 703.129626 233.619699 
L 703.129626 233.675106 
L 703.804181 233.929446 
L 703.804181 233.880855 
L 704.143536 233.687281 
L 705.501447 233.896612 
L 705.501447 233.870385 
L 705.501447 234.012334 
L 705.839335 234.047001 
L 706.519513 233.756689 
L 706.86009 233.841652 
L 707.535623 233.82369 
L 707.535623 233.950857 
L 707.870333 234.03813 
L 707.870333 233.917654 
L 708.20382 233.888892 
L 708.20382 233.774905 
L 709.196704 234.023938 
L 709.196704 233.861004 
L 709.533614 233.710932 
L 710.537255 233.765405 
L 710.537255 233.827779 
L 710.868787 233.835496 
L 710.868787 233.808351 
L 711.199585 233.643392 
L 711.861915 233.714847 
L 711.861915 233.706908 
L 712.52889 233.820599 
L 712.863844 233.857748 
L 712.863844 234.014326 
L 714.537639 233.760068 
L 714.537639 233.769397 
L 714.876261 233.85022 
L 715.22075 233.658348 
L 715.896772 233.74709 
L 715.896772 233.875657 
L 716.573526 233.731601 
L 717.932904 233.940436 
L 717.932904 233.93798 
L 717.932904 234.057775 
L 718.272504 233.986403 
L 718.272504 233.762077 
L 718.61137 233.770227 
L 718.61137 233.747496 
L 718.950481 233.891165 
L 718.950481 233.87577 
L 719.289592 233.802278 
L 719.635059 233.929521 
L 719.635059 233.796687 
L 719.974904 233.755709 
L 719.974904 233.872561 
L 720.66046 233.823322 
L 722.359438 233.918924 
L 722.359438 233.855254 
L 722.359438 233.917497 
L 722.699526 234.060443 
L 725.075992 233.798592 
L 725.075992 233.833794 
L 726.101882 234.033027 
L 726.101882 234.032096 
L 727.459792 234.081282 
L 728.143393 233.912685 
L 728.819414 233.891837 
L 728.819414 234.001222 
L 729.501059 233.875773 
L 729.838214 233.994936 
L 730.175858 233.899585 
L 730.175858 233.990901 
L 730.521325 233.870723 
L 731.199791 233.756424 
L 731.539636 233.761028 
L 731.539636 233.896344 
L 732.559658 234.027989 
L 732.559658 233.990367 
L 733.915123 233.987239 
L 734.253012 234.021252 
L 734.253012 234.139097 
L 734.253012 234.137178 
L 735.270344 234.078428 
L 735.270344 234.143885 
L 736.300391 234.070041 
L 736.300391 233.962511 
L 736.980568 233.853599 
L 736.980568 233.974419 
L 737.659279 234.018808 
L 737.659279 233.964492 
L 738.337256 233.828896 
L 738.337256 233.833361 
L 738.676856 233.973736 
L 738.676856 234.054537 
L 739.356789 234.051284 
L 740.036967 233.826314 
L 740.036967 233.88303 
L 740.3751 234.038774 
L 740.719101 233.909408 
L 740.719101 233.921998 
L 741.397078 233.890135 
L 741.397078 233.875502 
L 741.7357 233.7458 
L 742.07261 233.801695 
L 742.07261 233.684125 
L 742.410499 233.81986 
L 742.410499 233.774958 
L 743.428809 234.001058 
L 743.428809 233.807971 
L 743.428809 233.871228 
L 744.103852 233.868482 
L 744.443941 233.903334 
L 744.443941 233.821866 
L 744.783786 233.760783 
L 744.783786 233.85067 
L 746.82872 233.835383 
L 746.82872 233.695359 
L 747.168564 233.617167 
L 747.168564 233.710676 
L 747.506208 233.6745 
L 747.506208 233.799658 
L 748.182963 233.959327 
L 750.214449 233.654676 
L 750.214449 233.785994 
L 750.554049 233.68668 
L 750.554049 233.708558 
L 751.236672 233.761446 
L 751.910737 233.524796 
L 751.910737 233.696189 
L 752.249359 233.72178 
L 752.249359 233.516621 
L 752.922202 233.234073 
L 752.922202 233.453761 
L 753.258623 233.535773 
L 753.258623 233.839749 
L 753.594556 233.716703 
L 753.594556 233.889608 
L 754.273022 233.679234 
L 754.273022 233.757049 
L 754.611155 233.648184 
L 754.611155 233.787613 
L 754.947332 233.691754 
L 754.947332 233.791575 
L 755.287421 233.7275 
L 755.287421 233.835331 
L 755.287421 233.845047 
L 755.623598 234.016477 
L 755.623598 234.10438 
L 756.981264 233.911079 
L 756.981264 233.993138 
L 758.337952 233.924532 
L 758.337952 233.985074 
L 760.031795 233.709512 
L 760.031795 233.843676 
L 760.368705 233.826764 
L 760.368705 234.054503 
L 761.051572 234.041724 
L 761.051572 234.125657 
L 761.730283 233.89264 
L 762.405815 233.75112 
L 762.405815 233.859264 
L 763.084281 233.833231 
L 763.084281 233.961174 
L 763.421192 233.912717 
L 763.421192 234.013473 
L 764.767367 233.928982 
L 764.767367 234.009395 
L 765.777609 234.105328 
L 766.120387 234.107244 
L 766.120387 234.048654 
L 766.457787 233.94984 
L 766.457787 234.009697 
L 768.146251 233.954613 
L 768.146251 234.006598 
L 768.146251 234.045005 
L 769.157227 234.154194 
L 769.831292 234.0651 
L 769.831292 234.138446 
L 770.507313 234.130871 
L 770.847402 234.205444 
L 770.847402 234.179804 
L 772.203357 233.98062 
L 772.203357 234.055773 
L 772.881089 233.957064 
L 773.553688 233.714959 
L 774.560263 234.080997 
L 774.560263 234.117889 
L 775.234328 234.172941 
L 775.234328 234.097948 
L 776.58906 233.990849 
L 776.58906 234.059244 
L 776.924015 233.979069 
L 776.924015 233.982371 
L 777.60297 234.020588 
L 777.941103 233.958209 
L 777.941103 234.007603 
L 778.954523 233.984471 
L 779.626388 234.029697 
L 780.634186 234.072848 
L 780.634186 234.064075 
L 781.321454 233.899349 
L 781.321454 233.921876 
L 782.674963 234.054003 
L 782.674963 234.112338 
L 783.012607 234.113033 
L 783.012607 234.034331 
L 783.347806 233.931972 
L 783.347806 233.962123 
L 784.019916 233.985563 
L 784.019916 234.046825 
L 784.693248 234.051785 
L 784.693248 234.008696 
L 785.02918 233.948835 
L 785.02918 233.95889 
L 785.699333 234.155029 
L 786.035755 234.014994 
L 786.376822 233.84058 
L 787.053577 233.842483 
L 787.402223 233.843215 
L 787.402223 234.001376 
L 789.085797 234.022281 
L 789.085797 234.038139 
L 790.08577 234.157867 
L 791.078898 234.00709 
L 791.078898 233.932531 
L 791.746851 233.971873 
L 792.406736 234.062948 
L 792.406736 233.988121 
L 793.395708 233.870905 
L 793.395708 233.860988 
L 793.724305 233.911703 
L 793.724305 233.895168 
L 794.053392 233.828785 
L 794.382234 233.981785 
L 795.040163 233.905885 
L 796.030602 234.115973 
L 796.693909 234.004535 
L 797.352816 233.991575 
L 797.352816 234.036965 
L 798.009523 234.129245 
L 798.33812 233.887428 
L 798.33812 233.88969 
L 799.324402 233.826676 
L 799.324402 233.847589 
L 799.324402 234.149441 
L 800.638793 234.046727 
L 800.638793 233.99966 
L 803.936017 234.073833 
L 803.936017 233.952588 
L 805.586585 234.189582 
L 805.586585 234.103794 
L 806.585825 233.897293 
L 807.576019 234.149708 
L 807.576019 234.032902 
L 808.236637 233.764593 
L 808.897744 233.94315 
L 809.229031 233.96996 
L 809.229031 234.117759 
L 809.229031 234.117547 
L 809.558852 234.001658 
L 809.558852 234.065747 
L 811.215776 233.942481 
L 811.877617 234.017737 
L 811.877617 234.003617 
L 812.209148 233.913552 
L 812.209148 233.941827 
L 812.87319 233.980744 
L 812.87319 234.07119 
L 816.305862 234.231476 
L 816.305862 234.231476 
" clip-path="url(#pfb27f5ec6c)" style="fill: none; stroke: #008000; stroke-width: 1.5; stroke-linecap: square"/>
   </g>
   <g id="patch_3">
    <path d="M 47.72 534.04 
L 47.72 26.88 
" style="fill: none; stroke: #000000; stroke-width: 0.8; stroke-linejoin: miter; stroke-linecap: square"/>
   </g>
   <g id="patch_4">
    <path d="M 853.2 534.04 
L 853.2 26.88 
" style="fill: none; stroke: #000000; stroke-width: 0.8; stroke-linejoin: miter; stroke-linecap: square"/>
   </g>
   <g id="patch_5">
    <path d="M 47.72 534.04 
L 853.2 534.04 
" style="fill: none; stroke: #000000; stroke-width: 0.8; stroke-linejoin: miter; stroke-linecap: square"/>
   </g>
   <g id="patch_6">
    <path d="M 47.72 26.88 
L 853.2 26.88 
" style="fill: none; stroke: #000000; stroke-width: 0.8; stroke-linejoin: miter; stroke-linecap: square"/>
   </g>
   <g id="patch_7">
    <path d="M 636.538617 386.568492 
Q 610.387324 392.402354 584.23603 398.236216 
L 585.106947 402.140253 
Q 578.599167 400.518275 572.091386 398.896297 
Q 577.292791 394.66222 582.494195 390.428143 
L 583.365112 394.33218 
Q 609.516406 388.498317 635.6677 382.664455 
L 636.538617 386.568492 
z
" style="stroke: #000000; stroke-linecap: round"/>
   </g>
   <g id="text_15">
    <!-- Peak: RT=3.31, Area=1.02e+04 -->
    <g style="fill: #ff0000" transform="translate(641.775253 370.073636) scale(0.1 -0.1)">
     <defs>
      <path id="DejaVuSans-50" d="M 1259 4147 
L 1259 2394 
L 2053 2394 
Q 2494 2394 2734 2622 
Q 2975 2850 2975 3272 
Q 2975 3691 2734 3919 
Q 2494 4147 2053 4147 
L 1259 4147 
z
M 628 4666 
L 2053 4666 
Q 2838 4666 3239 4311 
Q 3641 3956 3641 3272 
Q 3641 2581 3239 2228 
Q 2838 1875 2053 1875 
L 1259 1875 
L 1259 0 
L 628 0 
L 628 4666 
z
" transform="scale(0.015625)"/>
      <path id="DejaVuSans-6b" d="M 581 4863 
L 1159 4863 
L 1159 1991 
L 2875 3500 
L 3609 3500 
L 1753 1863 
L 3688 0 
L 2938 0 
L 1159 1709 
L 1159 0 
L 581 0 
L 581 4863 
z
" transform="scale(0.015625)"/>
      <path id="DejaVuSans-3a" d="M 750 794 
L 1409 794 
L 1409 0 
L 750 0 
L 750 794 
z
M 750 3309 
L 1409 3309 
L 1409 2516 
L 750 2516 
L 750 3309 
z
" transform="scale(0.015625)"/>
      <path id="DejaVuSans-3d" d="M 678 2906 
L 4684 2906 
L 4684 2381 
L 678 2381 
L 678 2906 
z
M 678 1631 
L 4684 1631 
L 4684 1100 
L 678 1100 
L 678 1631 
z
" transform="scale(0.015625)"/>
      <path id="DejaVuSans-2c" d="M 750 794 
L 1409 794 
L 1409 256 
L 897 -744 
L 494 -744 
L 750 256 
L 750 794 
z
" transform="scale(0.015625)"/>
      <path id="DejaVuSans-41" d="M 2188 4044 
L 1331 1722 
L 3047 1722 
L 2188 4044 
z
M 1831 4666 
L 2547 4666 
L 4325 0 
L 3669 0 
L 3244 1197 
L 1141 1197 
L 716 0 
L 50 0 
L 1831 4666 
z
" transform="scale(0.015625)"/>
      <path id="DejaVuSans-2b" d="M 2944 4013 
L 2944 2272 
L 4684 2272 
L 4684 1741 
L 2944 1741 
L 2944 0 
L 2419 0 
L 2419 1741 
L 678 1741 
L 678 2272 
L 2419 2272 
L 2419 4013 
L 2944 4013 
z
" transform="scale(0.015625)"/>
     </defs>
     <use xlink:href="#DejaVuSans-50"/>
     <use xlink:href="#DejaVuSans-65" transform="translate(56.677734 0)"/>
     <use xlink:href="#DejaVuSans-61" transform="translate(118.201172 0)"/>
     <use xlink:href="#DejaVuSans-6b" transform="translate(179.480469 0)"/>
     <use xlink:href="#DejaVuSans-3a" transform="translate(237.390625 0)"/>
     <use xlink:href="#DejaVuSans-20" transform="translate(271.082031 0)"/>
     <use xlink:href="#DejaVuSans-52" transform="translate(302.869141 0)"/>
     <use xlink:href="#DejaVuSans-54" transform="translate(365.101562 0)"/>
     <use xlink:href="#DejaVuSans-3d" transform="translate(426.185547 0)"/>
     <use xlink:href="#DejaVuSans-33" transform="translate(509.974609 0)"/>
     <use xlink:href="#DejaVuSans-2e" transform="translate(573.597656 0)"/>
     <use xlink:href="#DejaVuSans-33" transform="translate(605.384766 0)"/>
     <use xlink:href="#DejaVuSans-31" transform="translate(669.007812 0)"/>
     <use xlink:href="#DejaVuSans-2c" transform="translate(732.630859 0)"/>
     <use xlink:href="#DejaVuSans-20" transform="translate(764.417969 0)"/>
     <use xlink:href="#DejaVuSans-41" transform="translate(796.205078 0)"/>
     <use xlink:href="#DejaVuSans-72" transform="translate(864.613281 0)"/>
     <use xlink:href="#DejaVuSans-65" transform="translate(903.476562 0)"/>
     <use xlink:href="#DejaVuSans-61" transform="translate(965 0)"/>
     <use xlink:href="#DejaVuSans-3d" transform="translate(1026.279297 0)"/>
     <use xlink:href="#DejaVuSans-31" transform="translate(1110.068359 0)"/>
     <use xlink:href="#DejaVuSans-2e" transform="translate(1173.691406 0)"/>
     <use xlink:href="#DejaVuSans-30" transform="translate(1205.478516 0)"/>
     <use xlink:href="#DejaVuSans-32" transform="translate(1269.101562 0)"/>
     <use xlink:href="#DejaVuSans-65" transform="translate(1332.724609 0)"/>
     <use xlink:href="#DejaVuSans-2b" transform="translate(1394.248047 0)"/>
     <use xlink:href="#DejaVuSans-30" transform="translate(1478.037109 0)"/>
     <use xlink:href="#DejaVuSans-34" transform="translate(1541.660156 0)"/>
    </g>
    <!-- (17.05% of total) -->
    <g style="fill: #ff0000" transform="translate(641.775253 381.271448) scale(0.1 -0.1)">
     <defs>
      <path id="DejaVuSans-37" d="M 525 4666 
L 3525 4666 
L 3525 4397 
L 1831 0 
L 1172 0 
L 2766 4134 
L 525 4134 
L 525 4666 
z
" transform="scale(0.015625)"/>
      <path id="DejaVuSans-25" d="M 4653 2053 
Q 4381 2053 4226 1822 
Q 4072 1591 4072 1178 
Q 4072 772 4226 539 
Q 4381 306 4653 306 
Q 4919 306 5073 539 
Q 5228 772 5228 1178 
Q 5228 1588 5073 1820 
Q 4919 2053 4653 2053 
z
M 4653 2450 
Q 5147 2450 5437 2106 
Q 5728 1763 5728 1178 
Q 5728 594 5436 251 
Q 5144 -91 4653 -91 
Q 4153 -91 3862 251 
Q 3572 594 3572 1178 
Q 3572 1766 3864 2108 
Q 4156 2450 4653 2450 
z
M 1428 4353 
Q 1159 4353 1004 4120 
Q 850 3888 850 3481 
Q 850 3069 1003 2837 
Q 1156 2606 1428 2606 
Q 1700 2606 1854 2837 
Q 2009 3069 2009 3481 
Q 2009 3884 1853 4118 
Q 1697 4353 1428 4353 
z
M 4250 4750 
L 4750 4750 
L 1831 -91 
L 1331 -91 
L 4250 4750 
z
M 1428 4750 
Q 1922 4750 2215 4408 
Q 2509 4066 2509 3481 
Q 2509 2891 2217 2550 
Q 1925 2209 1428 2209 
Q 931 2209 642 2551 
Q 353 2894 353 3481 
Q 353 4063 643 4406 
Q 934 4750 1428 4750 
z
" transform="scale(0.015625)"/>
      <path id="DejaVuSans-66" d="M 2375 4863 
L 2375 4384 
L 1825 4384 
Q 1516 4384 1395 4259 
Q 1275 4134 1275 3809 
L 1275 3500 
L 2222 3500 
L 2222 3053 
L 1275 3053 
L 1275 0 
L 697 0 
L 697 3053 
L 147 3053 
L 147 3500 
L 697 3500 
L 697 3744 
Q 697 4328 969 4595 
Q 1241 4863 1831 4863 
L 2375 4863 
z
" transform="scale(0.015625)"/>
     </defs>
     <use xlink:href="#DejaVuSans-28"/>
     <use xlink:href="#DejaVuSans-31" transform="translate(39.013672 0)"/>
     <use xlink:href="#DejaVuSans-37" transform="translate(102.636719 0)"/>
     <use xlink:href="#DejaVuSans-2e" transform="translate(166.259766 0)"/>
     <use xlink:href="#DejaVuSans-30" transform="translate(198.046875 0)"/>
     <use xlink:href="#DejaVuSans-35" transform="translate(261.669922 0)"/>
     <use xlink:href="#DejaVuSans-25" transform="translate(325.292969 0)"/>
     <use xlink:href="#DejaVuSans-20" transform="translate(420.3125 0)"/>
     <use xlink:href="#DejaVuSans-6f" transform="translate(452.099609 0)"/>
     <use xlink:href="#DejaVuSans-66" transform="translate(513.28125 0)"/>
     <use xlink:href="#DejaVuSans-20" transform="translate(548.486328 0)"/>
     <use xlink:href="#DejaVuSans-74" transform="translate(580.273438 0)"/>
     <use xlink:href="#DejaVuSans-6f" transform="translate(619.482422 0)"/>
     <use xlink:href="#DejaVuSans-74" transform="translate(680.664062 0)"/>
     <use xlink:href="#DejaVuSans-61" transform="translate(719.873047 0)"/>
     <use xlink:href="#DejaVuSans-6c" transform="translate(781.152344 0)"/>
     <use xlink:href="#DejaVuSans-29" transform="translate(808.935547 0)"/>
    </g>
   </g>
   <g id="text_16">
    <!-- UV &amp; MS Chromatograms: IrCp2F8, target m/z=768.1757838 -->
    <g transform="translate(266.778438 20.88) scale(0.12 -0.12)">
     <defs>
      <path id="DejaVuSans-55" d="M 556 4666 
L 1191 4666 
L 1191 1831 
Q 1191 1081 1462 751 
Q 1734 422 2344 422 
Q 2950 422 3222 751 
Q 3494 1081 3494 1831 
L 3494 4666 
L 4128 4666 
L 4128 1753 
Q 4128 841 3676 375 
Q 3225 -91 2344 -91 
Q 1459 -91 1007 375 
Q 556 841 556 1753 
L 556 4666 
z
" transform="scale(0.015625)"/>
      <path id="DejaVuSans-56" d="M 1831 0 
L 50 4666 
L 709 4666 
L 2188 738 
L 3669 4666 
L 4325 4666 
L 2547 0 
L 1831 0 
z
" transform="scale(0.015625)"/>
      <path id="DejaVuSans-26" d="M 1556 2509 
Q 1272 2256 1139 2004 
Q 1006 1753 1006 1478 
Q 1006 1022 1337 719 
Q 1669 416 2169 416 
Q 2466 416 2725 514 
Q 2984 613 3213 813 
L 1556 2509 
z
M 1997 2859 
L 3584 1234 
Q 3769 1513 3872 1830 
Q 3975 2147 3994 2503 
L 4575 2503 
Q 4538 2091 4375 1687 
Q 4213 1284 3922 891 
L 4794 0 
L 4006 0 
L 3559 459 
Q 3234 181 2878 45 
Q 2522 -91 2113 -91 
Q 1359 -91 881 339 
Q 403 769 403 1441 
Q 403 1841 612 2192 
Q 822 2544 1241 2853 
Q 1091 3050 1012 3245 
Q 934 3441 934 3628 
Q 934 4134 1281 4442 
Q 1628 4750 2203 4750 
Q 2463 4750 2720 4694 
Q 2978 4638 3244 4525 
L 3244 3956 
Q 2972 4103 2725 4179 
Q 2478 4256 2266 4256 
Q 1938 4256 1733 4082 
Q 1528 3909 1528 3634 
Q 1528 3475 1620 3314 
Q 1713 3153 1997 2859 
z
" transform="scale(0.015625)"/>
      <path id="DejaVuSans-4d" d="M 628 4666 
L 1569 4666 
L 2759 1491 
L 3956 4666 
L 4897 4666 
L 4897 0 
L 4281 0 
L 4281 4097 
L 3078 897 
L 2444 897 
L 1241 4097 
L 1241 0 
L 628 0 
L 628 4666 
z
" transform="scale(0.015625)"/>
      <path id="DejaVuSans-53" d="M 3425 4513 
L 3425 3897 
Q 3066 4069 2747 4153 
Q 2428 4238 2131 4238 
Q 1616 4238 1336 4038 
Q 1056 3838 1056 3469 
Q 1056 3159 1242 3001 
Q 1428 2844 1947 2747 
L 2328 2669 
Q 3034 2534 3370 2195 
Q 3706 1856 3706 1288 
Q 3706 609 3251 259 
Q 2797 -91 1919 -91 
Q 1588 -91 1214 -16 
Q 841 59 441 206 
L 441 856 
Q 825 641 1194 531 
Q 1563 422 1919 422 
Q 2459 422 2753 634 
Q 3047 847 3047 1241 
Q 3047 1584 2836 1778 
Q 2625 1972 2144 2069 
L 1759 2144 
Q 1053 2284 737 2584 
Q 422 2884 422 3419 
Q 422 4038 858 4394 
Q 1294 4750 2059 4750 
Q 2388 4750 2728 4690 
Q 3069 4631 3425 4513 
z
" transform="scale(0.015625)"/>
      <path id="DejaVuSans-43" d="M 4122 4306 
L 4122 3641 
Q 3803 3938 3442 4084 
Q 3081 4231 2675 4231 
Q 1875 4231 1450 3742 
Q 1025 3253 1025 2328 
Q 1025 1406 1450 917 
Q 1875 428 2675 428 
Q 3081 428 3442 575 
Q 3803 722 4122 1019 
L 4122 359 
Q 3791 134 3420 21 
Q 3050 -91 2638 -91 
Q 1578 -91 968 557 
Q 359 1206 359 2328 
Q 359 3453 968 4101 
Q 1578 4750 2638 4750 
Q 3056 4750 3426 4639 
Q 3797 4528 4122 4306 
z
" transform="scale(0.015625)"/>
      <path id="DejaVuSans-68" d="M 3513 2113 
L 3513 0 
L 2938 0 
L 2938 2094 
Q 2938 2591 2744 2837 
Q 2550 3084 2163 3084 
Q 1697 3084 1428 2787 
Q 1159 2491 1159 1978 
L 1159 0 
L 581 0 
L 581 4863 
L 1159 4863 
L 1159 2956 
Q 1366 3272 1645 3428 
Q 1925 3584 2291 3584 
Q 2894 3584 3203 3211 
Q 3513 2838 3513 2113 
z
" transform="scale(0.015625)"/>
      <path id="DejaVuSans-67" d="M 2906 1791 
Q 2906 2416 2648 2759 
Q 2391 3103 1925 3103 
Q 1463 3103 1205 2759 
Q 947 2416 947 1791 
Q 947 1169 1205 825 
Q 1463 481 1925 481 
Q 2391 481 2648 825 
Q 2906 1169 2906 1791 
z
M 3481 434 
Q 3481 -459 3084 -895 
Q 2688 -1331 1869 -1331 
Q 1566 -1331 1297 -1286 
Q 1028 -1241 775 -1147 
L 775 -588 
Q 1028 -725 1275 -790 
Q 1522 -856 1778 -856 
Q 2344 -856 2625 -561 
Q 2906 -266 2906 331 
L 2906 616 
Q 2728 306 2450 153 
Q 2172 0 1784 0 
Q 1141 0 747 490 
Q 353 981 353 1791 
Q 353 2603 747 3093 
Q 1141 3584 1784 3584 
Q 2172 3584 2450 3431 
Q 2728 3278 2906 2969 
L 2906 3500 
L 3481 3500 
L 3481 434 
z
" transform="scale(0.015625)"/>
      <path id="DejaVuSans-70" d="M 1159 525 
L 1159 -1331 
L 581 -1331 
L 581 3500 
L 1159 3500 
L 1159 2969 
Q 1341 3281 1617 3432 
Q 1894 3584 2278 3584 
Q 2916 3584 3314 3078 
Q 3713 2572 3713 1747 
Q 3713 922 3314 415 
Q 2916 -91 2278 -91 
Q 1894 -91 1617 61 
Q 1341 213 1159 525 
z
M 3116 1747 
Q 3116 2381 2855 2742 
Q 2594 3103 2138 3103 
Q 1681 3103 1420 2742 
Q 1159 2381 1159 1747 
Q 1159 1113 1420 752 
Q 1681 391 2138 391 
Q 2594 391 2855 752 
Q 3116 1113 3116 1747 
z
" transform="scale(0.015625)"/>
      <path id="DejaVuSans-46" d="M 628 4666 
L 3309 4666 
L 3309 4134 
L 1259 4134 
L 1259 2759 
L 3109 2759 
L 3109 2228 
L 1259 2228 
L 1259 0 
L 628 0 
L 628 4666 
z
" transform="scale(0.015625)"/>
      <path id="DejaVuSans-38" d="M 2034 2216 
Q 1584 2216 1326 1975 
Q 1069 1734 1069 1313 
Q 1069 891 1326 650 
Q 1584 409 2034 409 
Q 2484 409 2743 651 
Q 3003 894 3003 1313 
Q 3003 1734 2745 1975 
Q 2488 2216 2034 2216 
z
M 1403 2484 
Q 997 2584 770 2862 
Q 544 3141 544 3541 
Q 544 4100 942 4425 
Q 1341 4750 2034 4750 
Q 2731 4750 3128 4425 
Q 3525 4100 3525 3541 
Q 3525 3141 3298 2862 
Q 3072 2584 2669 2484 
Q 3125 2378 3379 2068 
Q 3634 1759 3634 1313 
Q 3634 634 3220 271 
Q 2806 -91 2034 -91 
Q 1263 -91 848 271 
Q 434 634 434 1313 
Q 434 1759 690 2068 
Q 947 2378 1403 2484 
z
M 1172 3481 
Q 1172 3119 1398 2916 
Q 1625 2713 2034 2713 
Q 2441 2713 2670 2916 
Q 2900 3119 2900 3481 
Q 2900 3844 2670 4047 
Q 2441 4250 2034 4250 
Q 1625 4250 1398 4047 
Q 1172 3844 1172 3481 
z
" transform="scale(0.015625)"/>
      <path id="DejaVuSans-2f" d="M 1625 4666 
L 2156 4666 
L 531 -594 
L 0 -594 
L 1625 4666 
z
" transform="scale(0.015625)"/>
      <path id="DejaVuSans-36" d="M 2113 2584 
Q 1688 2584 1439 2293 
Q 1191 2003 1191 1497 
Q 1191 994 1439 701 
Q 1688 409 2113 409 
Q 2538 409 2786 701 
Q 3034 994 3034 1497 
Q 3034 2003 2786 2293 
Q 2538 2584 2113 2584 
z
M 3366 4563 
L 3366 3988 
Q 3128 4100 2886 4159 
Q 2644 4219 2406 4219 
Q 1781 4219 1451 3797 
Q 1122 3375 1075 2522 
Q 1259 2794 1537 2939 
Q 1816 3084 2150 3084 
Q 2853 3084 3261 2657 
Q 3669 2231 3669 1497 
Q 3669 778 3244 343 
Q 2819 -91 2113 -91 
Q 1303 -91 875 529 
Q 447 1150 447 2328 
Q 447 3434 972 4092 
Q 1497 4750 2381 4750 
Q 2619 4750 2861 4703 
Q 3103 4656 3366 4563 
z
" transform="scale(0.015625)"/>
     </defs>
     <use xlink:href="#DejaVuSans-55"/>
     <use xlink:href="#DejaVuSans-56" transform="translate(73.193359 0)"/>
     <use xlink:href="#DejaVuSans-20" transform="translate(141.601562 0)"/>
     <use xlink:href="#DejaVuSans-26" transform="translate(173.388672 0)"/>
     <use xlink:href="#DejaVuSans-20" transform="translate(251.367188 0)"/>
     <use xlink:href="#DejaVuSans-4d" transform="translate(283.154297 0)"/>
     <use xlink:href="#DejaVuSans-53" transform="translate(369.433594 0)"/>
     <use xlink:href="#DejaVuSans-20" transform="translate(432.910156 0)"/>
     <use xlink:href="#DejaVuSans-43" transform="translate(464.697266 0)"/>
     <use xlink:href="#DejaVuSans-68" transform="translate(534.521484 0)"/>
     <use xlink:href="#DejaVuSans-72" transform="translate(597.900391 0)"/>
     <use xlink:href="#DejaVuSans-6f" transform="translate(636.763672 0)"/>
     <use xlink:href="#DejaVuSans-6d" transform="translate(697.945312 0)"/>
     <use xlink:href="#DejaVuSans-61" transform="translate(795.357422 0)"/>
     <use xlink:href="#DejaVuSans-74" transform="translate(856.636719 0)"/>
     <use xlink:href="#DejaVuSans-6f" transform="translate(895.845703 0)"/>
     <use xlink:href="#DejaVuSans-67" transform="translate(957.027344 0)"/>
     <use xlink:href="#DejaVuSans-72" transform="translate(1020.503906 0)"/>
     <use xlink:href="#DejaVuSans-61" transform="translate(1061.617188 0)"/>
     <use xlink:href="#DejaVuSans-6d" transform="translate(1122.896484 0)"/>
     <use xlink:href="#DejaVuSans-73" transform="translate(1220.308594 0)"/>
     <use xlink:href="#DejaVuSans-3a" transform="translate(1272.408203 0)"/>
     <use xlink:href="#DejaVuSans-20" transform="translate(1306.099609 0)"/>
     <use xlink:href="#DejaVuSans-49" transform="translate(1337.886719 0)"/>
     <use xlink:href="#DejaVuSans-72" transform="translate(1367.378906 0)"/>
     <use xlink:href="#DejaVuSans-43" transform="translate(1408.492188 0)"/>
     <use xlink:href="#DejaVuSans-70" transform="translate(1478.316406 0)"/>
     <use xlink:href="#DejaVuSans-32" transform="translate(1541.792969 0)"/>
     <use xlink:href="#DejaVuSans-46" transform="translate(1605.416016 0)"/>
     <use xlink:href="#DejaVuSans-38" transform="translate(1662.935547 0)"/>
     <use xlink:href="#DejaVuSans-2c" transform="translate(1726.558594 0)"/>
     <use xlink:href="#DejaVuSans-20" transform="translate(1758.345703 0)"/>
     <use xlink:href="#DejaVuSans-74" transform="translate(1790.132812 0)"/>
     <use xlink:href="#DejaVuSans-61" transform="translate(1829.341797 0)"/>
     <use xlink:href="#DejaVuSans-72" transform="translate(1890.621094 0)"/>
     <use xlink:href="#DejaVuSans-67" transform="translate(1929.984375 0)"/>
     <use xlink:href="#DejaVuSans-65" transform="translate(1993.460938 0)"/>
     <use xlink:href="#DejaVuSans-74" transform="translate(2054.984375 0)"/>
     <use xlink:href="#DejaVuSans-20" transform="translate(2094.193359 0)"/>
     <use xlink:href="#DejaVuSans-6d" transform="translate(2125.980469 0)"/>
     <use xlink:href="#DejaVuSans-2f" transform="translate(2223.392578 0)"/>
     <use xlink:href="#DejaVuSans-7a" transform="translate(2257.083984 0)"/>
     <use xlink:href="#DejaVuSans-3d" transform="translate(2309.574219 0)"/>
     <use xlink:href="#DejaVuSans-37" transform="translate(2393.363281 0)"/>
     <use xlink:href="#DejaVuSans-36" transform="translate(2456.986328 0)"/>
     <use xlink:href="#DejaVuSans-38" transform="translate(2520.609375 0)"/>
     <use xlink:href="#DejaVuSans-2e" transform="translate(2584.232422 0)"/>
     <use xlink:href="#DejaVuSans-31" transform="translate(2616.019531 0)"/>
     <use xlink:href="#DejaVuSans-37" transform="translate(2679.642578 0)"/>
     <use xlink:href="#DejaVuSans-35" transform="translate(2743.265625 0)"/>
     <use xlink:href="#DejaVuSans-37" transform="translate(2806.888672 0)"/>
     <use xlink:href="#DejaVuSans-38" transform="translate(2870.511719 0)"/>
     <use xlink:href="#DejaVuSans-33" transform="translate(2934.134766 0)"/>
     <use xlink:href="#DejaVuSans-38" transform="translate(2997.757812 0)"/>
    </g>
   </g>
   <g id="legend_1">
    <g id="patch_8">
     <path d="M 685.971875 64.23625 
L 846.2 64.23625 
Q 848.2 64.23625 848.2 62.23625 
L 848.2 33.88 
Q 848.2 31.88 846.2 31.88 
L 685.971875 31.88 
Q 683.971875 31.88 683.971875 33.88 
L 683.971875 62.23625 
Q 683.971875 64.23625 685.971875 64.23625 
z
" style="fill: #ffffff; opacity: 0.8; stroke: #cccccc; stroke-linejoin: miter"/>
    </g>
    <g id="line2d_15">
     <path d="M 687.971875 39.978437 
L 697.971875 39.978437 
L 707.971875 39.978437 
" style="fill: none; stroke: #0000ff; stroke-width: 1.5; stroke-linecap: square"/>
    </g>
    <g id="text_17">
     <!-- UV Intensity (normalized) -->
     <g transform="translate(715.971875 43.478437) scale(0.1 -0.1)">
      <use xlink:href="#DejaVuSans-55"/>
      <use xlink:href="#DejaVuSans-56" transform="translate(73.193359 0)"/>
      <use xlink:href="#DejaVuSans-20" transform="translate(141.601562 0)"/>
      <use xlink:href="#DejaVuSans-49" transform="translate(173.388672 0)"/>
      <use xlink:href="#DejaVuSans-6e" transform="translate(202.880859 0)"/>
      <use xlink:href="#DejaVuSans-74" transform="translate(266.259766 0)"/>
      <use xlink:href="#DejaVuSans-65" transform="translate(305.46875 0)"/>
      <use xlink:href="#DejaVuSans-6e" transform="translate(366.992188 0)"/>
      <use xlink:href="#DejaVuSans-73" transform="translate(430.371094 0)"/>
      <use xlink:href="#DejaVuSans-69" transform="translate(482.470703 0)"/>
      <use xlink:href="#DejaVuSans-74" transform="translate(510.253906 0)"/>
      <use xlink:href="#DejaVuSans-79" transform="translate(549.462891 0)"/>
      <use xlink:href="#DejaVuSans-20" transform="translate(608.642578 0)"/>
      <use xlink:href="#DejaVuSans-28" transform="translate(640.429688 0)"/>
      <use xlink:href="#DejaVuSans-6e" transform="translate(679.443359 0)"/>
      <use xlink:href="#DejaVuSans-6f" transform="translate(742.822266 0)"/>
      <use xlink:href="#DejaVuSans-72" transform="translate(804.003906 0)"/>
      <use xlink:href="#DejaVuSans-6d" transform="translate(843.367188 0)"/>
      <use xlink:href="#DejaVuSans-61" transform="translate(940.779297 0)"/>
      <use xlink:href="#DejaVuSans-6c" transform="translate(1002.058594 0)"/>
      <use xlink:href="#DejaVuSans-69" transform="translate(1029.841797 0)"/>
      <use xlink:href="#DejaVuSans-7a" transform="translate(1057.625 0)"/>
      <use xlink:href="#DejaVuSans-65" transform="translate(1110.115234 0)"/>
      <use xlink:href="#DejaVuSans-64" transform="translate(1171.638672 0)"/>
      <use xlink:href="#DejaVuSans-29" transform="translate(1235.115234 0)"/>
     </g>
    </g>
    <g id="line2d_16">
     <path d="M 687.971875 54.656562 
L 697.971875 54.656562 
L 707.971875 54.656562 
" style="fill: none; stroke: #008000; stroke-width: 1.5; stroke-linecap: square"/>
    </g>
    <g id="text_18">
     <!-- MS Intensity (normalized) -->
     <g transform="translate(715.971875 58.156562) scale(0.1 -0.1)">
      <use xlink:href="#DejaVuSans-4d"/>
      <use xlink:href="#DejaVuSans-53" transform="translate(86.279297 0)"/>
      <use xlink:href="#DejaVuSans-20" transform="translate(149.755859 0)"/>
      <use xlink:href="#DejaVuSans-49" transform="translate(181.542969 0)"/>
      <use xlink:href="#DejaVuSans-6e" transform="translate(211.035156 0)"/>
      <use xlink:href="#DejaVuSans-74" transform="translate(274.414062 0)"/>
      <use xlink:href="#DejaVuSans-65" transform="translate(313.623047 0)"/>
      <use xlink:href="#DejaVuSans-6e" transform="translate(375.146484 0)"/>
      <use xlink:href="#DejaVuSans-73" transform="translate(438.525391 0)"/>
      <use xlink:href="#DejaVuSans-69" transform="translate(490.625 0)"/>
      <use xlink:href="#DejaVuSans-74" transform="translate(518.408203 0)"/>
      <use xlink:href="#DejaVuSans-79" transform="translate(557.617188 0)"/>
      <use xlink:href="#DejaVuSans-20" transform="translate(616.796875 0)"/>
      <use xlink:href="#DejaVuSans-28" transform="translate(648.583984 0)"/>
      <use xlink:href="#DejaVuSans-6e" transform="translate(687.597656 0)"/>
      <use xlink:href="#DejaVuSans-6f" transform="translate(750.976562 0)"/>
      <use xlink:href="#DejaVuSans-72" transform="translate(812.158203 0)"/>
      <use xlink:href="#DejaVuSans-6d" transform="translate(851.521484 0)"/>
      <use xlink:href="#DejaVuSans-61" transform="translate(948.933594 0)"/>
      <use xlink:href="#DejaVuSans-6c" transform="translate(1010.212891 0)"/>
      <use xlink:href="#DejaVuSans-69" transform="translate(1037.996094 0)"/>
      <use xlink:href="#DejaVuSans-7a" transform="translate(1065.779297 0)"/>
      <use xlink:href="#DejaVuSans-65" transform="translate(1118.269531 0)"/>
      <use xlink:href="#DejaVuSans-64" transform="translate(1179.792969 0)"/>
      <use xlink:href="#DejaVuSans-29" transform="translate(1243.269531 0)"/>
     </g>
    </g>
   </g>
  </g>
 </g>
 <defs>
  <clipPath id="pfb27f5ec6c">
   <rect x="47.72" y="26.88" width="805.48" height="507.16"/>
  </clipPath>
 </defs>
</svg>
