<?xml version="1.0" encoding="utf-8" standalone="no"?>
<!DOCTYPE svg PUBLIC "-//W3C//DTD SVG 1.1//EN"
  "http://www.w3.org/Graphics/SVG/1.1/DTD/svg11.dtd">
<svg xmlns:xlink="http://www.w3.org/1999/xlink" width="864pt" height="576pt" viewBox="0 0 864 576" xmlns="http://www.w3.org/2000/svg" version="1.1">
 <metadata>
  <rdf:RDF xmlns:dc="http://purl.org/dc/elements/1.1/" xmlns:cc="http://creativecommons.org/ns#" xmlns:rdf="http://www.w3.org/1999/02/22-rdf-syntax-ns#">
   <cc:Work>
    <dc:type rdf:resource="http://purl.org/dc/dcmitype/StillImage"/>
    <dc:date>2025-02-06T15:08:13.873618</dc:date>
    <dc:format>image/svg+xml</dc:format>
    <dc:creator>
     <cc:Agent>
      <dc:title>Matplotlib v3.10.0, https://matplotlib.org/</dc:title>
     </cc:Agent>
    </dc:creator>
   </cc:Work>
  </rdf:RDF>
 </metadata>
 <defs>
  <style type="text/css">*{stroke-linejoin: round; stroke-linecap: butt}</style>
 </defs>
 <g id="figure_1">
  <g id="patch_1">
   <path d="M 0 576 
L 864 576 
L 864 0 
L 0 0 
z
" style="fill: #ffffff"/>
  </g>
  <g id="axes_1">
   <g id="patch_2">
    <path d="M 47.72 534.04 
L 853.2 534.04 
L 853.2 26.88 
L 47.72 26.88 
z
" style="fill: #ffffff"/>
   </g>
   <g id="matplotlib.axis_1">
    <g id="xtick_1">
     <g id="line2d_1">
      <defs>
       <path id="m40cf6f292d" d="M 0 0 
L 0 3.5 
" style="stroke: #000000; stroke-width: 0.8"/>
      </defs>
      <g>
       <use xlink:href="#m40cf6f292d" x="83.100486" y="534.04" style="stroke: #000000; stroke-width: 0.8"/>
      </g>
     </g>
     <g id="text_1">
      <!-- 0 -->
      <g transform="translate(79.919236 548.638438) scale(0.1 -0.1)">
       <defs>
        <path id="DejaVuSans-30" d="M 2034 4250 
Q 1547 4250 1301 3770 
Q 1056 3291 1056 2328 
Q 1056 1369 1301 889 
Q 1547 409 2034 409 
Q 2525 409 2770 889 
Q 3016 1369 3016 2328 
Q 3016 3291 2770 3770 
Q 2525 4250 2034 4250 
z
M 2034 4750 
Q 2819 4750 3233 4129 
Q 3647 3509 3647 2328 
Q 3647 1150 3233 529 
Q 2819 -91 2034 -91 
Q 1250 -91 836 529 
Q 422 1150 422 2328 
Q 422 3509 836 4129 
Q 1250 4750 2034 4750 
z
" transform="scale(0.015625)"/>
       </defs>
       <use xlink:href="#DejaVuSans-30"/>
      </g>
     </g>
    </g>
    <g id="xtick_2">
     <g id="line2d_2">
      <g>
       <use xlink:href="#m40cf6f292d" x="229.795887" y="534.04" style="stroke: #000000; stroke-width: 0.8"/>
      </g>
     </g>
     <g id="text_2">
      <!-- 1 -->
      <g transform="translate(226.614637 548.638438) scale(0.1 -0.1)">
       <defs>
        <path id="DejaVuSans-31" d="M 794 531 
L 1825 531 
L 1825 4091 
L 703 3866 
L 703 4441 
L 1819 4666 
L 2450 4666 
L 2450 531 
L 3481 531 
L 3481 0 
L 794 0 
L 794 531 
z
" transform="scale(0.015625)"/>
       </defs>
       <use xlink:href="#DejaVuSans-31"/>
      </g>
     </g>
    </g>
    <g id="xtick_3">
     <g id="line2d_3">
      <g>
       <use xlink:href="#m40cf6f292d" x="376.491289" y="534.04" style="stroke: #000000; stroke-width: 0.8"/>
      </g>
     </g>
     <g id="text_3">
      <!-- 2 -->
      <g transform="translate(373.310039 548.638438) scale(0.1 -0.1)">
       <defs>
        <path id="DejaVuSans-32" d="M 1228 531 
L 3431 531 
L 3431 0 
L 469 0 
L 469 531 
Q 828 903 1448 1529 
Q 2069 2156 2228 2338 
Q 2531 2678 2651 2914 
Q 2772 3150 2772 3378 
Q 2772 3750 2511 3984 
Q 2250 4219 1831 4219 
Q 1534 4219 1204 4116 
Q 875 4013 500 3803 
L 500 4441 
Q 881 4594 1212 4672 
Q 1544 4750 1819 4750 
Q 2544 4750 2975 4387 
Q 3406 4025 3406 3419 
Q 3406 3131 3298 2873 
Q 3191 2616 2906 2266 
Q 2828 2175 2409 1742 
Q 1991 1309 1228 531 
z
" transform="scale(0.015625)"/>
       </defs>
       <use xlink:href="#DejaVuSans-32"/>
      </g>
     </g>
    </g>
    <g id="xtick_4">
     <g id="line2d_4">
      <g>
       <use xlink:href="#m40cf6f292d" x="523.18669" y="534.04" style="stroke: #000000; stroke-width: 0.8"/>
      </g>
     </g>
     <g id="text_4">
      <!-- 3 -->
      <g transform="translate(520.00544 548.638438) scale(0.1 -0.1)">
       <defs>
        <path id="DejaVuSans-33" d="M 2597 2516 
Q 3050 2419 3304 2112 
Q 3559 1806 3559 1356 
Q 3559 666 3084 287 
Q 2609 -91 1734 -91 
Q 1441 -91 1130 -33 
Q 819 25 488 141 
L 488 750 
Q 750 597 1062 519 
Q 1375 441 1716 441 
Q 2309 441 2620 675 
Q 2931 909 2931 1356 
Q 2931 1769 2642 2001 
Q 2353 2234 1838 2234 
L 1294 2234 
L 1294 2753 
L 1863 2753 
Q 2328 2753 2575 2939 
Q 2822 3125 2822 3475 
Q 2822 3834 2567 4026 
Q 2313 4219 1838 4219 
Q 1578 4219 1281 4162 
Q 984 4106 628 3988 
L 628 4550 
Q 988 4650 1302 4700 
Q 1616 4750 1894 4750 
Q 2613 4750 3031 4423 
Q 3450 4097 3450 3541 
Q 3450 3153 3228 2886 
Q 3006 2619 2597 2516 
z
" transform="scale(0.015625)"/>
       </defs>
       <use xlink:href="#DejaVuSans-33"/>
      </g>
     </g>
    </g>
    <g id="xtick_5">
     <g id="line2d_5">
      <g>
       <use xlink:href="#m40cf6f292d" x="669.882092" y="534.04" style="stroke: #000000; stroke-width: 0.8"/>
      </g>
     </g>
     <g id="text_5">
      <!-- 4 -->
      <g transform="translate(666.700842 548.638438) scale(0.1 -0.1)">
       <defs>
        <path id="DejaVuSans-34" d="M 2419 4116 
L 825 1625 
L 2419 1625 
L 2419 4116 
z
M 2253 4666 
L 3047 4666 
L 3047 1625 
L 3713 1625 
L 3713 1100 
L 3047 1100 
L 3047 0 
L 2419 0 
L 2419 1100 
L 313 1100 
L 313 1709 
L 2253 4666 
z
" transform="scale(0.015625)"/>
       </defs>
       <use xlink:href="#DejaVuSans-34"/>
      </g>
     </g>
    </g>
    <g id="xtick_6">
     <g id="line2d_6">
      <g>
       <use xlink:href="#m40cf6f292d" x="816.577493" y="534.04" style="stroke: #000000; stroke-width: 0.8"/>
      </g>
     </g>
     <g id="text_6">
      <!-- 5 -->
      <g transform="translate(813.396243 548.638438) scale(0.1 -0.1)">
       <defs>
        <path id="DejaVuSans-35" d="M 691 4666 
L 3169 4666 
L 3169 4134 
L 1269 4134 
L 1269 2991 
Q 1406 3038 1543 3061 
Q 1681 3084 1819 3084 
Q 2600 3084 3056 2656 
Q 3513 2228 3513 1497 
Q 3513 744 3044 326 
Q 2575 -91 1722 -91 
Q 1428 -91 1123 -41 
Q 819 9 494 109 
L 494 744 
Q 775 591 1075 516 
Q 1375 441 1709 441 
Q 2250 441 2565 725 
Q 2881 1009 2881 1497 
Q 2881 1984 2565 2268 
Q 2250 2553 1709 2553 
Q 1456 2553 1204 2497 
Q 953 2441 691 2322 
L 691 4666 
z
" transform="scale(0.015625)"/>
       </defs>
       <use xlink:href="#DejaVuSans-35"/>
      </g>
     </g>
    </g>
    <g id="text_7">
     <!-- Retention Time (min) -->
     <g transform="translate(397.61 562.316562) scale(0.1 -0.1)">
      <defs>
       <path id="DejaVuSans-52" d="M 2841 2188 
Q 3044 2119 3236 1894 
Q 3428 1669 3622 1275 
L 4263 0 
L 3584 0 
L 2988 1197 
Q 2756 1666 2539 1819 
Q 2322 1972 1947 1972 
L 1259 1972 
L 1259 0 
L 628 0 
L 628 4666 
L 2053 4666 
Q 2853 4666 3247 4331 
Q 3641 3997 3641 3322 
Q 3641 2881 3436 2590 
Q 3231 2300 2841 2188 
z
M 1259 4147 
L 1259 2491 
L 2053 2491 
Q 2509 2491 2742 2702 
Q 2975 2913 2975 3322 
Q 2975 3731 2742 3939 
Q 2509 4147 2053 4147 
L 1259 4147 
z
" transform="scale(0.015625)"/>
       <path id="DejaVuSans-65" d="M 3597 1894 
L 3597 1613 
L 953 1613 
Q 991 1019 1311 708 
Q 1631 397 2203 397 
Q 2534 397 2845 478 
Q 3156 559 3463 722 
L 3463 178 
Q 3153 47 2828 -22 
Q 2503 -91 2169 -91 
Q 1331 -91 842 396 
Q 353 884 353 1716 
Q 353 2575 817 3079 
Q 1281 3584 2069 3584 
Q 2775 3584 3186 3129 
Q 3597 2675 3597 1894 
z
M 3022 2063 
Q 3016 2534 2758 2815 
Q 2500 3097 2075 3097 
Q 1594 3097 1305 2825 
Q 1016 2553 972 2059 
L 3022 2063 
z
" transform="scale(0.015625)"/>
       <path id="DejaVuSans-74" d="M 1172 4494 
L 1172 3500 
L 2356 3500 
L 2356 3053 
L 1172 3053 
L 1172 1153 
Q 1172 725 1289 603 
Q 1406 481 1766 481 
L 2356 481 
L 2356 0 
L 1766 0 
Q 1100 0 847 248 
Q 594 497 594 1153 
L 594 3053 
L 172 3053 
L 172 3500 
L 594 3500 
L 594 4494 
L 1172 4494 
z
" transform="scale(0.015625)"/>
       <path id="DejaVuSans-6e" d="M 3513 2113 
L 3513 0 
L 2938 0 
L 2938 2094 
Q 2938 2591 2744 2837 
Q 2550 3084 2163 3084 
Q 1697 3084 1428 2787 
Q 1159 2491 1159 1978 
L 1159 0 
L 581 0 
L 581 3500 
L 1159 3500 
L 1159 2956 
Q 1366 3272 1645 3428 
Q 1925 3584 2291 3584 
Q 2894 3584 3203 3211 
Q 3513 2838 3513 2113 
z
" transform="scale(0.015625)"/>
       <path id="DejaVuSans-69" d="M 603 3500 
L 1178 3500 
L 1178 0 
L 603 0 
L 603 3500 
z
M 603 4863 
L 1178 4863 
L 1178 4134 
L 603 4134 
L 603 4863 
z
" transform="scale(0.015625)"/>
       <path id="DejaVuSans-6f" d="M 1959 3097 
Q 1497 3097 1228 2736 
Q 959 2375 959 1747 
Q 959 1119 1226 758 
Q 1494 397 1959 397 
Q 2419 397 2687 759 
Q 2956 1122 2956 1747 
Q 2956 2369 2687 2733 
Q 2419 3097 1959 3097 
z
M 1959 3584 
Q 2709 3584 3137 3096 
Q 3566 2609 3566 1747 
Q 3566 888 3137 398 
Q 2709 -91 1959 -91 
Q 1206 -91 779 398 
Q 353 888 353 1747 
Q 353 2609 779 3096 
Q 1206 3584 1959 3584 
z
" transform="scale(0.015625)"/>
       <path id="DejaVuSans-20" transform="scale(0.015625)"/>
       <path id="DejaVuSans-54" d="M -19 4666 
L 3928 4666 
L 3928 4134 
L 2272 4134 
L 2272 0 
L 1638 0 
L 1638 4134 
L -19 4134 
L -19 4666 
z
" transform="scale(0.015625)"/>
       <path id="DejaVuSans-6d" d="M 3328 2828 
Q 3544 3216 3844 3400 
Q 4144 3584 4550 3584 
Q 5097 3584 5394 3201 
Q 5691 2819 5691 2113 
L 5691 0 
L 5113 0 
L 5113 2094 
Q 5113 2597 4934 2840 
Q 4756 3084 4391 3084 
Q 3944 3084 3684 2787 
Q 3425 2491 3425 1978 
L 3425 0 
L 2847 0 
L 2847 2094 
Q 2847 2600 2669 2842 
Q 2491 3084 2119 3084 
Q 1678 3084 1418 2786 
Q 1159 2488 1159 1978 
L 1159 0 
L 581 0 
L 581 3500 
L 1159 3500 
L 1159 2956 
Q 1356 3278 1631 3431 
Q 1906 3584 2284 3584 
Q 2666 3584 2933 3390 
Q 3200 3197 3328 2828 
z
" transform="scale(0.015625)"/>
       <path id="DejaVuSans-28" d="M 1984 4856 
Q 1566 4138 1362 3434 
Q 1159 2731 1159 2009 
Q 1159 1288 1364 580 
Q 1569 -128 1984 -844 
L 1484 -844 
Q 1016 -109 783 600 
Q 550 1309 550 2009 
Q 550 2706 781 3412 
Q 1013 4119 1484 4856 
L 1984 4856 
z
" transform="scale(0.015625)"/>
       <path id="DejaVuSans-29" d="M 513 4856 
L 1013 4856 
Q 1481 4119 1714 3412 
Q 1947 2706 1947 2009 
Q 1947 1309 1714 600 
Q 1481 -109 1013 -844 
L 513 -844 
Q 928 -128 1133 580 
Q 1338 1288 1338 2009 
Q 1338 2731 1133 3434 
Q 928 4138 513 4856 
z
" transform="scale(0.015625)"/>
      </defs>
      <use xlink:href="#DejaVuSans-52"/>
      <use xlink:href="#DejaVuSans-65" transform="translate(64.982422 0)"/>
      <use xlink:href="#DejaVuSans-74" transform="translate(126.505859 0)"/>
      <use xlink:href="#DejaVuSans-65" transform="translate(165.714844 0)"/>
      <use xlink:href="#DejaVuSans-6e" transform="translate(227.238281 0)"/>
      <use xlink:href="#DejaVuSans-74" transform="translate(290.617188 0)"/>
      <use xlink:href="#DejaVuSans-69" transform="translate(329.826172 0)"/>
      <use xlink:href="#DejaVuSans-6f" transform="translate(357.609375 0)"/>
      <use xlink:href="#DejaVuSans-6e" transform="translate(418.791016 0)"/>
      <use xlink:href="#DejaVuSans-20" transform="translate(482.169922 0)"/>
      <use xlink:href="#DejaVuSans-54" transform="translate(513.957031 0)"/>
      <use xlink:href="#DejaVuSans-69" transform="translate(571.916016 0)"/>
      <use xlink:href="#DejaVuSans-6d" transform="translate(599.699219 0)"/>
      <use xlink:href="#DejaVuSans-65" transform="translate(697.111328 0)"/>
      <use xlink:href="#DejaVuSans-20" transform="translate(758.634766 0)"/>
      <use xlink:href="#DejaVuSans-28" transform="translate(790.421875 0)"/>
      <use xlink:href="#DejaVuSans-6d" transform="translate(829.435547 0)"/>
      <use xlink:href="#DejaVuSans-69" transform="translate(926.847656 0)"/>
      <use xlink:href="#DejaVuSans-6e" transform="translate(954.630859 0)"/>
      <use xlink:href="#DejaVuSans-29" transform="translate(1018.009766 0)"/>
     </g>
    </g>
   </g>
   <g id="matplotlib.axis_2">
    <g id="ytick_1">
     <g id="line2d_7">
      <defs>
       <path id="m61b20b7de3" d="M 0 0 
L -3.5 0 
" style="stroke: #000000; stroke-width: 0.8"/>
      </defs>
      <g>
       <use xlink:href="#m61b20b7de3" x="47.72" y="510.967535" style="stroke: #000000; stroke-width: 0.8"/>
      </g>
     </g>
     <g id="text_8">
      <!-- 0.0 -->
      <g style="fill: #0000ff" transform="translate(24.816875 514.766754) scale(0.1 -0.1)">
       <defs>
        <path id="DejaVuSans-2e" d="M 684 794 
L 1344 794 
L 1344 0 
L 684 0 
L 684 794 
z
" transform="scale(0.015625)"/>
       </defs>
       <use xlink:href="#DejaVuSans-30"/>
       <use xlink:href="#DejaVuSans-2e" transform="translate(63.623047 0)"/>
       <use xlink:href="#DejaVuSans-30" transform="translate(95.410156 0)"/>
      </g>
     </g>
    </g>
    <g id="ytick_2">
     <g id="line2d_8">
      <g>
       <use xlink:href="#m61b20b7de3" x="47.72" y="418.760574" style="stroke: #000000; stroke-width: 0.8"/>
      </g>
     </g>
     <g id="text_9">
      <!-- 0.5 -->
      <g style="fill: #0000ff" transform="translate(24.816875 422.559792) scale(0.1 -0.1)">
       <use xlink:href="#DejaVuSans-30"/>
       <use xlink:href="#DejaVuSans-2e" transform="translate(63.623047 0)"/>
       <use xlink:href="#DejaVuSans-35" transform="translate(95.410156 0)"/>
      </g>
     </g>
    </g>
    <g id="ytick_3">
     <g id="line2d_9">
      <g>
       <use xlink:href="#m61b20b7de3" x="47.72" y="326.553612" style="stroke: #000000; stroke-width: 0.8"/>
      </g>
     </g>
     <g id="text_10">
      <!-- 1.0 -->
      <g style="fill: #0000ff" transform="translate(24.816875 330.352831) scale(0.1 -0.1)">
       <use xlink:href="#DejaVuSans-31"/>
       <use xlink:href="#DejaVuSans-2e" transform="translate(63.623047 0)"/>
       <use xlink:href="#DejaVuSans-30" transform="translate(95.410156 0)"/>
      </g>
     </g>
    </g>
    <g id="ytick_4">
     <g id="line2d_10">
      <g>
       <use xlink:href="#m61b20b7de3" x="47.72" y="234.34665" style="stroke: #000000; stroke-width: 0.8"/>
      </g>
     </g>
     <g id="text_11">
      <!-- 1.5 -->
      <g style="fill: #0000ff" transform="translate(24.816875 238.145869) scale(0.1 -0.1)">
       <use xlink:href="#DejaVuSans-31"/>
       <use xlink:href="#DejaVuSans-2e" transform="translate(63.623047 0)"/>
       <use xlink:href="#DejaVuSans-35" transform="translate(95.410156 0)"/>
      </g>
     </g>
    </g>
    <g id="ytick_5">
     <g id="line2d_11">
      <g>
       <use xlink:href="#m61b20b7de3" x="47.72" y="142.139689" style="stroke: #000000; stroke-width: 0.8"/>
      </g>
     </g>
     <g id="text_12">
      <!-- 2.0 -->
      <g style="fill: #0000ff" transform="translate(24.816875 145.938908) scale(0.1 -0.1)">
       <use xlink:href="#DejaVuSans-32"/>
       <use xlink:href="#DejaVuSans-2e" transform="translate(63.623047 0)"/>
       <use xlink:href="#DejaVuSans-30" transform="translate(95.410156 0)"/>
      </g>
     </g>
    </g>
    <g id="ytick_6">
     <g id="line2d_12">
      <g>
       <use xlink:href="#m61b20b7de3" x="47.72" y="49.932727" style="stroke: #000000; stroke-width: 0.8"/>
      </g>
     </g>
     <g id="text_13">
      <!-- 2.5 -->
      <g style="fill: #0000ff" transform="translate(24.816875 53.731946) scale(0.1 -0.1)">
       <use xlink:href="#DejaVuSans-32"/>
       <use xlink:href="#DejaVuSans-2e" transform="translate(63.623047 0)"/>
       <use xlink:href="#DejaVuSans-35" transform="translate(95.410156 0)"/>
      </g>
     </g>
    </g>
    <g id="text_14">
     <!-- Normalized Intensity -->
     <g style="fill: #0000ff" transform="translate(18.737187 332.167031) rotate(-90) scale(0.1 -0.1)">
      <defs>
       <path id="DejaVuSans-4e" d="M 628 4666 
L 1478 4666 
L 3547 763 
L 3547 4666 
L 4159 4666 
L 4159 0 
L 3309 0 
L 1241 3903 
L 1241 0 
L 628 0 
L 628 4666 
z
" transform="scale(0.015625)"/>
       <path id="DejaVuSans-72" d="M 2631 2963 
Q 2534 3019 2420 3045 
Q 2306 3072 2169 3072 
Q 1681 3072 1420 2755 
Q 1159 2438 1159 1844 
L 1159 0 
L 581 0 
L 581 3500 
L 1159 3500 
L 1159 2956 
Q 1341 3275 1631 3429 
Q 1922 3584 2338 3584 
Q 2397 3584 2469 3576 
Q 2541 3569 2628 3553 
L 2631 2963 
z
" transform="scale(0.015625)"/>
       <path id="DejaVuSans-61" d="M 2194 1759 
Q 1497 1759 1228 1600 
Q 959 1441 959 1056 
Q 959 750 1161 570 
Q 1363 391 1709 391 
Q 2188 391 2477 730 
Q 2766 1069 2766 1631 
L 2766 1759 
L 2194 1759 
z
M 3341 1997 
L 3341 0 
L 2766 0 
L 2766 531 
Q 2569 213 2275 61 
Q 1981 -91 1556 -91 
Q 1019 -91 701 211 
Q 384 513 384 1019 
Q 384 1609 779 1909 
Q 1175 2209 1959 2209 
L 2766 2209 
L 2766 2266 
Q 2766 2663 2505 2880 
Q 2244 3097 1772 3097 
Q 1472 3097 1187 3025 
Q 903 2953 641 2809 
L 641 3341 
Q 956 3463 1253 3523 
Q 1550 3584 1831 3584 
Q 2591 3584 2966 3190 
Q 3341 2797 3341 1997 
z
" transform="scale(0.015625)"/>
       <path id="DejaVuSans-6c" d="M 603 4863 
L 1178 4863 
L 1178 0 
L 603 0 
L 603 4863 
z
" transform="scale(0.015625)"/>
       <path id="DejaVuSans-7a" d="M 353 3500 
L 3084 3500 
L 3084 2975 
L 922 459 
L 3084 459 
L 3084 0 
L 275 0 
L 275 525 
L 2438 3041 
L 353 3041 
L 353 3500 
z
" transform="scale(0.015625)"/>
       <path id="DejaVuSans-64" d="M 2906 2969 
L 2906 4863 
L 3481 4863 
L 3481 0 
L 2906 0 
L 2906 525 
Q 2725 213 2448 61 
Q 2172 -91 1784 -91 
Q 1150 -91 751 415 
Q 353 922 353 1747 
Q 353 2572 751 3078 
Q 1150 3584 1784 3584 
Q 2172 3584 2448 3432 
Q 2725 3281 2906 2969 
z
M 947 1747 
Q 947 1113 1208 752 
Q 1469 391 1925 391 
Q 2381 391 2643 752 
Q 2906 1113 2906 1747 
Q 2906 2381 2643 2742 
Q 2381 3103 1925 3103 
Q 1469 3103 1208 2742 
Q 947 2381 947 1747 
z
" transform="scale(0.015625)"/>
       <path id="DejaVuSans-49" d="M 628 4666 
L 1259 4666 
L 1259 0 
L 628 0 
L 628 4666 
z
" transform="scale(0.015625)"/>
       <path id="DejaVuSans-73" d="M 2834 3397 
L 2834 2853 
Q 2591 2978 2328 3040 
Q 2066 3103 1784 3103 
Q 1356 3103 1142 2972 
Q 928 2841 928 2578 
Q 928 2378 1081 2264 
Q 1234 2150 1697 2047 
L 1894 2003 
Q 2506 1872 2764 1633 
Q 3022 1394 3022 966 
Q 3022 478 2636 193 
Q 2250 -91 1575 -91 
Q 1294 -91 989 -36 
Q 684 19 347 128 
L 347 722 
Q 666 556 975 473 
Q 1284 391 1588 391 
Q 1994 391 2212 530 
Q 2431 669 2431 922 
Q 2431 1156 2273 1281 
Q 2116 1406 1581 1522 
L 1381 1569 
Q 847 1681 609 1914 
Q 372 2147 372 2553 
Q 372 3047 722 3315 
Q 1072 3584 1716 3584 
Q 2034 3584 2315 3537 
Q 2597 3491 2834 3397 
z
" transform="scale(0.015625)"/>
       <path id="DejaVuSans-79" d="M 2059 -325 
Q 1816 -950 1584 -1140 
Q 1353 -1331 966 -1331 
L 506 -1331 
L 506 -850 
L 844 -850 
Q 1081 -850 1212 -737 
Q 1344 -625 1503 -206 
L 1606 56 
L 191 3500 
L 800 3500 
L 1894 763 
L 2988 3500 
L 3597 3500 
L 2059 -325 
z
" transform="scale(0.015625)"/>
      </defs>
      <use xlink:href="#DejaVuSans-4e"/>
      <use xlink:href="#DejaVuSans-6f" transform="translate(74.804688 0)"/>
      <use xlink:href="#DejaVuSans-72" transform="translate(135.986328 0)"/>
      <use xlink:href="#DejaVuSans-6d" transform="translate(175.349609 0)"/>
      <use xlink:href="#DejaVuSans-61" transform="translate(272.761719 0)"/>
      <use xlink:href="#DejaVuSans-6c" transform="translate(334.041016 0)"/>
      <use xlink:href="#DejaVuSans-69" transform="translate(361.824219 0)"/>
      <use xlink:href="#DejaVuSans-7a" transform="translate(389.607422 0)"/>
      <use xlink:href="#DejaVuSans-65" transform="translate(442.097656 0)"/>
      <use xlink:href="#DejaVuSans-64" transform="translate(503.621094 0)"/>
      <use xlink:href="#DejaVuSans-20" transform="translate(567.097656 0)"/>
      <use xlink:href="#DejaVuSans-49" transform="translate(598.884766 0)"/>
      <use xlink:href="#DejaVuSans-6e" transform="translate(628.376953 0)"/>
      <use xlink:href="#DejaVuSans-74" transform="translate(691.755859 0)"/>
      <use xlink:href="#DejaVuSans-65" transform="translate(730.964844 0)"/>
      <use xlink:href="#DejaVuSans-6e" transform="translate(792.488281 0)"/>
      <use xlink:href="#DejaVuSans-73" transform="translate(855.867188 0)"/>
      <use xlink:href="#DejaVuSans-69" transform="translate(907.966797 0)"/>
      <use xlink:href="#DejaVuSans-74" transform="translate(935.75 0)"/>
      <use xlink:href="#DejaVuSans-79" transform="translate(974.958984 0)"/>
     </g>
    </g>
   </g>
   <g id="line2d_13">
    <path d="M 84.332727 510.967535 
L 96.557344 510.860862 
L 102.669652 510.74196 
L 114.894269 510.757893 
L 129.563809 510.798427 
L 151.56812 510.676799 
L 156.457966 510.596173 
L 163.792736 510.696213 
L 166.23766 510.399013 
L 171.127506 509.394608 
L 173.57243 509.210827 
L 176.017353 509.253073 
L 178.462277 509.566788 
L 183.352123 510.504394 
L 189.464432 510.987273 
L 191.909355 510.802993 
L 194.354278 510.506802 
L 196.799202 510.490798 
L 202.91151 510.773187 
L 220.025974 510.621417 
L 235.917975 510.639109 
L 240.807822 510.395744 
L 245.697669 510.588716 
L 251.809977 510.707038 
L 264.034594 510.724642 
L 270.146902 510.594179 
L 283.593981 510.735951 
L 299.485983 510.719457 
L 304.375829 510.463187 
L 319.04537 510.671242 
L 331.269986 510.606891 
L 336.159833 510.376854 
L 347.161988 510.639565 
L 356.941682 510.48959 
L 361.831528 510.553057 
L 364.276452 510.297862 
L 366.721375 509.573444 
L 367.943837 509.17026 
L 369.166298 508.92299 
L 370.38876 508.900325 
L 372.833683 509.321193 
L 375.278607 509.7947 
L 377.72353 509.978467 
L 378.945992 509.85203 
L 380.168453 509.26345 
L 381.390915 507.58787 
L 382.613377 504.27312 
L 385.0583 495.589007 
L 386.280762 493.566883 
L 387.503224 494.285285 
L 388.725685 497.032557 
L 389.948147 500.476857 
L 391.170609 503.469196 
L 392.39307 505.460024 
L 393.615532 506.452392 
L 394.837994 506.62938 
L 396.060455 506.071861 
L 398.505379 503.679182 
L 399.72784 503.018788 
L 400.950302 503.319169 
L 402.172764 504.413385 
L 403.395225 505.700082 
L 404.617687 506.32625 
L 405.840149 505.520142 
L 407.06261 503.234646 
L 408.285072 500.475566 
L 409.507534 498.643084 
L 410.729995 498.488436 
L 411.952457 499.783003 
L 415.619842 505.623062 
L 416.842304 506.976486 
L 418.064766 507.947084 
L 419.287227 508.612081 
L 420.509689 509.055703 
L 422.954612 509.54995 
L 426.621997 509.857172 
L 430.289382 509.887578 
L 432.734306 509.641062 
L 433.956767 509.31712 
L 436.401691 508.472108 
L 437.624152 508.272944 
L 438.846614 508.32875 
L 443.736461 509.199826 
L 448.626307 509.61955 
L 452.293693 509.748396 
L 457.183539 509.662132 
L 464.518309 509.331177 
L 468.185694 508.750862 
L 470.630618 508.696176 
L 476.742926 509.21416 
L 482.855234 509.017828 
L 485.300158 509.048124 
L 487.745081 508.830525 
L 491.412466 508.305628 
L 496.302313 508.059205 
L 497.524775 507.859348 
L 498.747236 507.531181 
L 499.969698 506.960243 
L 501.19216 505.922429 
L 502.414621 504.217619 
L 504.859545 499.861802 
L 506.082006 498.684017 
L 507.304468 498.913709 
L 508.52693 500.365886 
L 510.971853 504.380106 
L 512.194315 505.887724 
L 513.416776 506.826238 
L 514.639238 507.238602 
L 515.8617 507.228099 
L 517.084161 506.883173 
L 518.306623 505.97828 
L 519.529085 503.819507 
L 520.751547 500.005397 
L 521.974008 495.487008 
L 523.19647 492.258348 
L 524.418932 491.77508 
L 525.641393 493.9499 
L 528.086317 501.179072 
L 529.308778 503.930692 
L 530.53124 505.540707 
L 531.753702 506.145465 
L 532.976163 505.413405 
L 534.198625 500.617724 
L 535.421087 485.397686 
L 536.643548 453.554256 
L 539.088472 360.140162 
L 540.310933 329.922764 
L 541.533395 326.553612 
L 542.755857 347.366316 
L 545.20078 415.873238 
L 546.423242 443.995142 
L 547.645703 463.455614 
L 548.868165 475.758042 
L 550.090627 483.523841 
L 551.313088 488.918896 
L 552.53555 493.161058 
L 553.758012 496.685544 
L 554.980474 499.51771 
L 556.202935 501.614686 
L 557.425397 503.06753 
L 558.647859 504.104186 
L 561.092782 505.742011 
L 563.537705 507.110434 
L 564.760167 507.622819 
L 567.20509 508.297692 
L 570.872475 508.850718 
L 575.762322 509.323671 
L 583.097092 509.653549 
L 587.986939 509.998796 
L 592.876786 510.09453 
L 601.434017 510.208982 
L 617.326019 510.432537 
L 639.330329 510.524649 
L 652.777408 510.544961 
L 658.889716 510.451819 
L 667.446948 510.6217 
L 771.356191 510.779376 
L 816.587273 510.776293 
L 816.587273 510.776293 
" clip-path="url(#pb81e693dfa)" style="fill: none; stroke: #0000ff; stroke-width: 1.5; stroke-linecap: square"/>
   </g>
   <g id="line2d_14">
    <path d="M 90.357507 234.341202 
L 366.578347 234.252012 
L 366.578347 234.205349 
L 367.617928 234.189803 
L 367.617928 234.123855 
L 368.309597 234.126813 
L 368.309597 234.074519 
L 369.005422 234.137857 
L 369.005422 234.073493 
L 369.694646 234.097341 
L 369.694646 234.006321 
L 370.726159 234.126583 
L 370.726159 234.088183 
L 371.757184 234.125057 
L 371.757184 234.084688 
L 378.308356 234.13102 
L 379.349893 234.163519 
L 379.349893 234.124708 
L 380.386541 234.155267 
L 380.386541 234.119414 
L 381.422455 234.14528 
L 381.422455 234.094751 
L 382.457635 234.160232 
L 382.457635 234.094318 
L 383.833638 234.116452 
L 383.833638 233.972431 
L 384.18204 234.006117 
L 384.18204 233.846122 
L 384.524573 233.898054 
L 384.524573 233.642894 
L 384.866618 233.756122 
L 384.866618 233.488123 
L 385.208174 233.600023 
L 385.208174 233.248819 
L 385.543373 233.463315 
L 385.543373 233.038563 
L 385.876372 233.262839 
L 385.876372 232.80254 
L 386.208148 233.14102 
L 386.208148 232.673642 
L 386.538457 233.06211 
L 386.538457 232.526735 
L 386.868277 232.957159 
L 386.868277 232.457353 
L 387.20152 232.889689 
L 387.20152 232.42352 
L 387.530362 232.952853 
L 387.530362 232.48575 
L 387.859449 232.986929 
L 387.859449 232.570553 
L 388.188291 233.035624 
L 388.188291 232.56335 
L 388.517378 233.039952 
L 388.517378 232.444244 
L 388.846709 232.899204 
L 388.846709 232.415224 
L 389.18093 232.883031 
L 389.18093 232.386487 
L 389.510017 232.93876 
L 389.510017 232.523551 
L 390.498744 232.377829 
L 390.828808 232.916586 
L 390.828808 232.440398 
L 391.160584 232.991146 
L 391.160584 232.56023 
L 391.490894 233.096073 
L 391.490894 232.592327 
L 391.821447 233.061405 
L 391.821447 232.570365 
L 392.152734 233.004693 
L 392.152734 232.592791 
L 392.484266 233.059986 
L 392.484266 232.61673 
L 393.479594 232.692037 
L 393.812104 233.124804 
L 393.812104 232.711619 
L 394.149992 233.168043 
L 394.149992 232.768841 
L 394.482991 233.15095 
L 394.482991 232.755027 
L 394.816723 233.194901 
L 394.816723 232.823668 
L 395.81963 233.052055 
L 396.154096 233.412331 
L 396.154096 233.091512 
L 396.492229 233.419942 
L 396.492229 233.100684 
L 396.829139 233.379658 
L 396.829139 233.120993 
L 397.165316 233.445963 
L 397.165316 233.138246 
L 397.502471 233.499846 
L 397.502471 233.254525 
L 397.839382 233.508803 
L 397.839382 233.230449 
L 398.177759 233.544163 
L 398.177759 233.26196 
L 398.516381 233.540821 
L 398.516381 233.303859 
L 398.85378 233.58695 
L 398.85378 233.331889 
L 399.195825 233.59796 
L 399.195825 233.35154 
L 399.531757 233.612261 
L 399.531757 233.355987 
L 399.865734 233.614276 
L 399.865734 233.431049 
L 400.2002 233.683387 
L 400.2002 233.484329 
L 400.533443 233.767382 
L 400.533443 233.57241 
L 400.865952 233.776751 
L 400.865952 233.608033 
L 401.197728 233.806594 
L 401.197728 233.568549 
L 401.529504 233.784698 
L 401.529504 233.548674 
L 401.860791 233.719695 
L 401.860791 233.528926 
L 402.192323 233.760023 
L 402.192323 233.560783 
L 402.524099 233.814684 
L 402.524099 233.627678 
L 402.855875 233.815561 
L 402.855875 233.57841 
L 403.187407 233.779977 
L 403.187407 233.577135 
L 403.519427 233.764587 
L 403.519427 233.620584 
L 403.851204 233.851849 
L 403.851204 233.615059 
L 404.856556 233.534495 
L 404.856556 233.60041 
L 405.193955 233.786406 
L 405.193955 233.598643 
L 405.527688 233.832122 
L 405.527688 233.683748 
L 405.862398 233.846561 
L 405.862398 233.676495 
L 406.198086 233.867907 
L 406.198086 233.719986 
L 406.533773 233.864251 
L 406.533773 233.730248 
L 406.871173 233.903102 
L 406.871173 233.745368 
L 407.207105 233.912084 
L 407.207105 233.805556 
L 407.543527 233.947925 
L 407.543527 233.818173 
L 407.880193 233.973939 
L 407.880193 233.819841 
L 408.216614 233.941954 
L 408.216614 233.763299 
L 408.552791 233.906167 
L 408.552791 233.767133 
L 408.889946 233.792138 
L 409.22979 233.633873 
L 409.563523 233.82066 
L 409.563523 233.644684 
L 410.227319 233.579687 
L 410.227319 233.72925 
L 410.557873 233.724604 
L 410.557873 233.779508 
L 410.888671 233.987476 
L 411.21898 233.824894 
L 411.87862 233.796979 
L 412.209663 233.974546 
L 412.209663 233.78988 
L 412.539728 233.923382 
L 412.539728 233.764834 
L 412.870037 233.895034 
L 412.870037 233.730782 
L 413.200102 233.916238 
L 413.200102 233.800053 
L 414.529651 233.742879 
L 414.861916 233.551443 
L 415.19687 233.683164 
L 415.19687 233.494058 
L 415.529136 233.70779 
L 415.861645 233.721148 
L 416.194888 233.577571 
L 416.528131 233.608879 
L 416.861374 233.481843 
L 418.197769 233.980535 
L 418.197769 233.85593 
L 418.868656 233.991417 
L 418.868656 233.905356 
L 422.945811 234.100918 
L 422.945811 234.00328 
L 423.636012 234.07724 
L 423.636012 233.993754 
L 424.32817 234.096904 
L 424.32817 234.024972 
L 425.015927 234.127502 
L 425.015927 234.053189 
L 425.70344 234.15523 
L 425.70344 234.083348 
L 426.392174 234.151967 
L 426.392174 234.081287 
L 427.08042 234.157591 
L 427.08042 234.106555 
L 427.768422 234.181514 
L 427.768422 234.130734 
L 428.456668 234.161781 
L 428.456668 234.10623 
L 429.494782 234.169582 
L 429.494782 234.120997 
L 433.286614 234.134637 
L 433.286614 234.157048 
L 433.980239 234.161459 
L 455.284323 234.232617 
L 455.284323 234.192347 
L 456.668883 234.206474 
L 456.668883 234.173164 
L 457.358596 234.201525 
L 457.358596 234.158244 
L 459.774425 234.137429 
L 460.815473 234.205698 
L 460.815473 234.166168 
L 461.849186 234.179718 
L 462.883145 234.13492 
L 464.612194 234.197031 
L 465.653487 234.219416 
L 465.653487 234.181094 
L 466.689646 234.216711 
L 466.689646 234.166377 
L 467.723604 234.183715 
L 467.723604 234.1167 
L 468.412583 234.147748 
L 468.412583 234.06798 
L 469.100829 234.119296 
L 469.100829 234.027027 
L 469.789564 234.087502 
L 469.789564 233.993431 
L 470.478054 234.049194 
L 470.478054 233.939723 
L 471.170946 234.011482 
L 471.170946 233.914052 
L 471.858458 234.018537 
L 471.858458 233.882232 
L 472.546215 233.993317 
L 472.546215 233.882844 
L 482.562577 234.184652 
L 482.562577 234.115484 
L 483.598736 234.177172 
L 483.598736 234.111185 
L 484.641984 234.163969 
L 484.641984 234.125923 
L 485.678632 234.193159 
L 485.678632 234.135918 
L 486.719925 234.194032 
L 486.719925 234.153191 
L 487.756817 234.173393 
L 487.756817 234.13138 
L 489.139421 234.147361 
L 489.139421 234.106748 
L 490.175824 234.148144 
L 490.175824 234.106408 
L 491.562096 234.160111 
L 491.562096 234.125154 
L 492.597276 234.147882 
L 492.597276 234.11722 
L 493.291879 234.172368 
L 493.291879 234.140354 
L 495.016283 234.175636 
L 495.016283 234.121373 
L 498.470715 233.738769 
L 498.470715 233.841362 
L 499.15945 233.907289 
L 499.15945 233.820097 
L 500.880187 233.70292 
L 500.880187 233.675594 
L 501.568189 233.613657 
L 501.568189 233.516729 
L 502.605325 233.576747 
L 502.605325 233.700511 
L 508.764087 234.01057 
L 511.468417 234.095971 
L 511.468417 234.094968 
L 513.532177 234.137612 
L 513.532177 234.139469 
L 515.935292 234.185534 
L 515.935292 234.159341 
L 517.308361 234.155429 
L 517.308361 234.085826 
L 517.992939 234.072052 
L 517.992939 233.987709 
L 518.334984 234.061465 
L 518.334984 233.960837 
L 518.676785 234.008878 
L 518.676785 233.878748 
L 519.018829 233.944365 
L 519.018829 233.809789 
L 519.356718 233.903284 
L 519.356718 233.729555 
L 519.69534 233.874218 
L 519.69534 233.749818 
L 520.032006 233.880748 
L 520.032006 233.692699 
L 520.370627 233.872314 
L 520.370627 233.68701 
L 520.709005 233.811966 
L 520.709005 233.668626 
L 521.048116 233.847483 
L 521.048116 233.706243 
L 521.384782 233.895523 
L 521.384782 233.773659 
L 522.058847 233.962146 
L 522.058847 233.854516 
L 522.740492 234.069688 
L 522.740492 234.01492 
L 523.738998 234.087558 
L 528.677988 234.290349 
L 528.677988 234.280959 
L 536.649661 234.202403 
L 536.649661 234.179037 
L 537.324459 233.900652 
L 537.324459 233.103839 
L 537.656236 232.886682 
L 537.656236 230.849284 
L 537.986789 230.366491 
L 537.986789 226.277498 
L 538.315876 225.738954 
L 538.315876 218.156006 
L 538.644963 206.120732 
L 538.97356 185.600169 
L 539.301425 185.560843 
L 539.301425 165.498618 
L 539.628555 166.209565 
L 539.628555 150.73722 
L 539.955686 168.129725 
L 539.955686 135.369697 
L 540.282572 149.865331 
L 540.282572 117.414955 
L 540.609214 141.533607 
L 540.609214 100.482727 
L 540.935611 130.373223 
L 540.935611 88.437886 
L 541.262253 70.57386 
L 541.58865 67.304722 
L 541.58865 57.438549 
L 541.915292 54.694797 
L 541.915292 49.932727 
L 542.247068 97.198284 
L 542.247068 50.595597 
L 542.574932 95.246839 
L 542.574932 50.287688 
L 542.90133 95.338558 
L 542.90133 51.472761 
L 543.227727 98.711677 
L 543.227727 55.591684 
L 543.554124 102.184742 
L 543.554124 57.53022 
L 543.880521 102.93571 
L 543.880521 50.386386 
L 544.206919 94.746607 
L 544.206919 53.353148 
L 544.533561 101.437424 
L 544.533561 62.320208 
L 544.859958 76.179084 
L 545.1866 76.191614 
L 545.1866 81.115784 
L 545.512997 79.736138 
L 545.512997 80.637631 
L 545.839639 119.864717 
L 545.839639 89.795143 
L 546.16628 129.585902 
L 546.16628 91.028788 
L 546.492922 130.541821 
L 546.492922 101.075698 
L 546.819319 133.488039 
L 546.819319 102.434409 
L 547.155741 140.952983 
L 547.155741 114.927123 
L 547.482627 145.695506 
L 547.482627 119.625134 
L 547.809024 149.184039 
L 547.809024 123.432441 
L 548.135911 150.185647 
L 548.135911 122.648991 
L 548.462552 149.500991 
L 548.462552 123.809794 
L 548.789439 150.773333 
L 548.789439 130.363749 
L 549.116325 158.603896 
L 549.116325 133.285507 
L 549.443211 160.926407 
L 549.443211 137.604542 
L 549.770097 159.893741 
L 549.770097 138.105375 
L 550.096984 166.078162 
L 550.096984 140.599268 
L 550.42387 165.071402 
L 550.42387 144.816474 
L 550.750756 167.884782 
L 550.750756 144.85772 
L 551.077887 170.527971 
L 551.077887 152.000428 
L 551.405018 172.171509 
L 551.405018 153.712948 
L 551.732148 175.88101 
L 551.732148 159.499073 
L 552.064658 179.21146 
L 552.064658 162.087862 
L 552.391789 180.993077 
L 552.391789 164.117438 
L 552.719164 181.252867 
L 552.719164 164.786767 
L 553.046295 183.403295 
L 553.046295 167.712892 
L 553.37367 185.229826 
L 553.37367 171.171486 
L 553.701045 187.290774 
L 553.701045 172.726353 
L 554.02842 190.377126 
L 554.02842 174.578584 
L 554.355796 188.733574 
L 554.355796 175.397819 
L 554.684149 190.77527 
L 554.684149 176.635988 
L 555.011524 193.125971 
L 555.011524 180.899117 
L 555.339388 194.76136 
L 555.339388 182.32961 
L 555.667008 196.28189 
L 555.667008 184.093941 
L 555.994628 197.661307 
L 555.994628 187.389501 
L 556.322247 200.070202 
L 556.322247 190.041674 
L 556.661847 202.643807 
L 556.661847 192.921801 
L 556.995335 204.789185 
L 556.995335 195.382877 
L 557.323199 194.794129 
L 557.651552 195.88931 
L 557.979661 195.474925 
L 557.979661 196.18007 
L 558.308259 207.106781 
L 558.308259 198.566938 
L 558.637101 208.253654 
L 558.637101 200.374697 
L 558.965454 209.650039 
L 558.965454 201.725996 
L 559.294296 209.806345 
L 559.294296 202.703748 
L 559.623138 210.875003 
L 559.623138 204.016644 
L 559.951736 212.398673 
L 559.951736 205.822865 
L 560.281067 213.261794 
L 560.281067 207.043602 
L 560.60991 214.340078 
L 560.60991 208.835597 
L 560.938752 215.667806 
L 560.938752 209.782886 
L 561.268327 216.114754 
L 561.268327 211.103092 
L 561.597903 217.013535 
L 561.597903 211.81124 
L 561.934325 211.617377 
L 562.263656 211.700986 
L 562.263656 211.613608 
L 562.593231 211.591988 
L 562.593231 211.765578 
L 562.923052 218.519067 
L 562.923052 213.241016 
L 563.25385 218.470953 
L 563.25385 213.834881 
L 563.584648 219.282859 
L 563.584648 215.105328 
L 563.915446 220.57456 
L 563.915446 216.110047 
L 564.246244 220.953338 
L 564.246244 216.630242 
L 564.577776 220.828196 
L 564.577776 216.896914 
L 564.909063 221.815939 
L 564.909063 217.667694 
L 565.243528 222.290167 
L 565.243528 218.513709 
L 565.574571 222.620141 
L 565.574571 218.974725 
L 565.906103 222.973028 
L 565.906103 219.278926 
L 566.238857 223.299855 
L 566.238857 219.572975 
L 566.569655 223.215071 
L 566.569655 219.76311 
L 566.907299 223.556816 
L 566.907299 220.218523 
L 567.23883 224.010007 
L 567.23883 220.68428 
L 567.57134 224.424352 
L 567.57134 221.281039 
L 567.902871 224.576189 
L 567.902871 221.598967 
L 568.235625 225.147606 
L 568.235625 222.115591 
L 568.56838 225.332563 
L 568.56838 222.408941 
L 568.9004 225.577302 
L 568.9004 222.59521 
L 569.23291 225.537856 
L 569.23291 222.725151 
L 569.565664 225.757419 
L 569.565664 223.13288 
L 569.899885 226.023888 
L 569.899885 223.727045 
L 570.233861 226.712992 
L 570.233861 224.102697 
L 570.567104 226.866163 
L 570.567104 224.373941 
L 570.900347 226.861733 
L 570.900347 224.44737 
L 571.234568 226.964124 
L 571.234568 224.293224 
L 571.569278 226.862929 
L 571.569278 224.647444 
L 571.909856 227.045108 
L 571.909856 224.799284 
L 572.244566 227.557936 
L 572.244566 225.237225 
L 572.58001 227.460673 
L 572.58001 225.361909 
L 572.913497 227.77845 
L 572.913497 225.660589 
L 573.247718 227.934616 
L 573.247718 225.831841 
L 573.583162 227.997051 
L 573.583162 226.135786 
L 573.919583 228.230341 
L 573.919583 226.425054 
L 574.259917 228.658976 
L 574.259917 226.794021 
L 574.595605 228.874469 
L 574.595605 226.894305 
L 574.931782 228.864324 
L 574.931782 227.078018 
L 575.266003 228.993949 
L 575.266003 227.067357 
L 575.602913 229.156816 
L 575.602913 227.335212 
L 575.93909 229.078959 
L 575.93909 227.286599 
L 576.291892 229.198097 
L 576.291892 227.559002 
L 576.631003 229.311529 
L 576.631003 227.676032 
L 576.974515 229.490869 
L 576.974515 227.841375 
L 577.311914 229.4303 
L 577.311914 227.852447 
L 577.652003 229.575132 
L 577.652003 227.938698 
L 577.989403 229.666202 
L 577.989403 228.07719 
L 578.328025 229.729182 
L 578.328025 228.332244 
L 578.664691 230.052465 
L 578.664691 228.445952 
L 579.004046 230.12911 
L 579.004046 228.694361 
L 579.342668 230.113379 
L 579.342668 228.641863 
L 579.681534 230.171402 
L 579.681534 228.749457 
L 580.021134 230.267522 
L 580.021134 228.867159 
L 580.360489 230.296252 
L 580.360489 229.009593 
L 580.700334 230.36976 
L 580.700334 228.991348 
L 581.038467 230.418468 
L 581.038467 229.269545 
L 581.377333 230.609913 
L 581.377333 229.416002 
L 581.716199 230.810958 
L 581.716199 229.705706 
L 582.060689 230.892926 
L 582.060689 229.620632 
L 582.400533 230.879376 
L 582.400533 229.74847 
L 582.744779 230.864829 
L 582.744779 229.707406 
L 583.086823 230.985345 
L 583.086823 229.863154 
L 583.426912 230.995175 
L 583.426912 229.825687 
L 583.767246 230.971795 
L 583.767246 229.891124 
L 584.110024 230.993466 
L 584.110024 229.826757 
L 584.452069 230.94899 
L 584.452069 229.911844 
L 584.796069 231.020508 
L 584.796069 230.006866 
L 585.138848 231.211679 
L 585.138848 230.208096 
L 585.481626 231.260846 
L 585.481626 230.172923 
L 585.823915 231.198735 
L 585.823915 230.144514 
L 586.164493 231.208838 
L 586.164493 230.131506 
L 586.506538 231.217833 
L 586.506538 230.165881 
L 586.847605 231.219114 
L 586.847605 230.199075 
L 587.196006 231.303722 
L 587.196006 230.3006 
L 587.538784 231.414855 
L 587.538784 230.514622 
L 587.886208 231.578812 
L 587.886208 230.573171 
L 588.229231 231.59068 
L 588.229231 230.589191 
L 588.572009 231.481351 
L 588.572009 230.4957 
L 588.915276 231.479053 
L 588.915276 230.538645 
L 589.601566 230.564653 
L 589.601566 230.686414 
L 589.944344 230.701341 
L 589.944344 230.868619 
L 590.287856 231.86861 
L 590.287856 230.991465 
L 590.630634 231.890386 
L 590.630634 231.082922 
L 590.972679 230.917891 
L 591.658725 231.012022 
L 591.658725 230.980104 
L 592.002725 231.970195 
L 592.002725 231.199291 
L 592.352105 231.995444 
L 592.352105 231.356833 
L 592.695372 232.224422 
L 592.695372 231.45228 
L 593.039128 232.25572 
L 593.039128 231.475959 
L 593.38264 232.123098 
L 593.38264 231.272818 
L 593.726396 232.053283 
L 593.726396 231.339399 
L 594.069908 232.13794 
L 594.069908 231.496839 
L 594.41342 232.370665 
L 594.41342 231.668598 
L 594.756932 232.330551 
L 594.756932 231.63552 
L 595.100688 232.306239 
L 595.100688 231.648185 
L 595.443955 232.357574 
L 595.443955 231.760136 
L 595.787467 232.43411 
L 595.787467 231.801566 
L 596.130734 232.478213 
L 596.130734 231.778937 
L 596.474001 232.429056 
L 596.474001 231.772839 
L 596.817513 232.420164 
L 596.817513 231.778264 
L 597.160536 232.49377 
L 597.160536 231.869077 
L 597.509426 232.557818 
L 597.509426 231.954298 
L 597.852449 232.568113 
L 597.852449 231.93773 
L 598.196205 232.554296 
L 598.196205 231.974544 
L 598.539473 232.570575 
L 598.539473 232.035632 
L 598.883229 232.685968 
L 598.883229 232.121809 
L 599.22674 232.705151 
L 599.22674 232.145233 
L 599.570252 232.699811 
L 599.570252 232.145864 
L 599.914253 232.722205 
L 599.914253 232.206327 
L 600.258009 232.777684 
L 600.258009 232.231611 
L 600.601765 232.774536 
L 600.601765 232.251108 
L 600.945277 232.752184 
L 600.945277 232.253798 
L 601.289033 232.813414 
L 601.289033 232.242472 
L 601.633034 232.780212 
L 601.633034 232.264394 
L 601.97679 232.736835 
L 601.97679 232.213816 
L 602.320547 232.795001 
L 602.320547 232.294318 
L 602.674327 232.839195 
L 602.674327 232.353821 
L 603.017839 232.858036 
L 603.017839 232.362588 
L 603.362817 232.868518 
L 603.362817 232.43217 
L 603.706329 232.957128 
L 603.706329 232.502659 
L 604.050085 232.990558 
L 604.050085 232.515122 
L 604.393353 232.962185 
L 604.393353 232.459998 
L 604.736375 232.931344 
L 604.736375 232.538152 
L 605.079643 233.03617 
L 605.079643 232.560675 
L 605.423154 233.081451 
L 605.423154 232.671434 
L 605.766666 233.076106 
L 605.766666 232.611472 
L 606.109933 233.080583 
L 606.109933 232.658709 
L 606.453689 233.085997 
L 606.453689 232.657625 
L 606.797446 233.113905 
L 606.797446 232.651231 
L 607.141446 233.078122 
L 607.141446 232.66649 
L 607.485203 233.108173 
L 607.485203 232.679221 
L 607.834582 233.145875 
L 607.834582 232.730329 
L 608.178583 233.146138 
L 608.178583 232.731756 
L 608.522584 233.175778 
L 608.522584 232.710081 
L 608.866584 233.100618 
L 608.866584 232.700948 
L 609.210585 233.112436 
L 609.210585 232.720462 
L 609.55483 233.195989 
L 609.55483 232.815483 
L 609.899075 233.232607 
L 609.899075 232.878169 
L 610.243321 233.259747 
L 610.243321 232.874598 
L 610.58781 233.26556 
L 610.58781 232.783098 
L 610.932056 233.131054 
L 610.932056 232.74921 
L 611.276545 233.105156 
L 611.276545 232.712381 
L 611.62079 233.170739 
L 611.62079 232.799086 
L 611.96528 233.172417 
L 611.96528 232.858978 
L 612.30977 233.262806 
L 612.30977 232.917824 
L 612.654015 233.297038 
L 612.654015 232.941102 
L 613.004128 233.275957 
L 613.004128 232.94228 
L 613.348373 233.307756 
L 613.348373 232.931882 
L 613.693596 233.294475 
L 613.693596 232.931424 
L 614.038575 233.260772 
L 614.038575 232.88974 
L 614.388933 233.28082 
L 614.388933 232.958305 
L 614.733422 233.324275 
L 614.733422 232.993838 
L 615.078157 233.352777 
L 615.078157 233.020203 
L 615.422402 233.333102 
L 615.422402 233.007226 
L 615.767136 233.354036 
L 615.767136 233.039553 
L 616.11187 233.358469 
L 616.11187 233.040293 
L 616.45636 233.367345 
L 616.45636 233.034618 
L 617.492274 233.110824 
L 617.492274 233.114929 
L 617.837253 233.470042 
L 617.837253 233.152933 
L 618.187121 233.413454 
L 618.187121 233.085538 
L 618.531611 233.406633 
L 618.531611 233.055492 
L 618.87659 233.377363 
L 618.87659 233.10835 
L 619.222791 233.42946 
L 619.222791 233.130397 
L 619.567769 233.460036 
L 619.567769 233.172324 
L 619.912504 233.456263 
L 619.912504 233.155554 
L 620.257482 233.440098 
L 620.257482 233.098612 
L 620.602216 233.381832 
L 620.602216 233.081795 
L 620.946706 233.377839 
L 620.946706 233.108335 
L 621.291685 233.469179 
L 621.291685 233.188731 
L 621.636663 233.475969 
L 621.636663 233.192194 
L 621.981642 233.485563 
L 621.981642 233.232597 
L 622.326376 233.513244 
L 622.326376 233.228693 
L 622.671111 233.526836 
L 622.671111 233.263267 
L 623.015845 233.523074 
L 623.015845 233.29051 
L 623.365713 233.573486 
L 623.365713 233.310245 
L 623.710692 233.589303 
L 623.710692 233.294326 
L 624.055182 233.516631 
L 624.055182 233.25102 
L 624.406028 233.517163 
L 624.406028 233.215736 
L 624.750518 233.507221 
L 624.750518 233.247571 
L 625.095008 233.529971 
L 625.095008 233.256251 
L 625.439986 233.548598 
L 625.439986 233.287451 
L 625.784965 233.562351 
L 625.784965 233.281196 
L 626.129699 233.562545 
L 626.129699 233.271847 
L 626.473944 233.523341 
L 626.473944 233.266417 
L 626.818679 233.548479 
L 626.818679 233.325374 
L 627.163413 233.608854 
L 627.163413 233.338417 
L 627.507902 233.615322 
L 627.507902 233.377071 
L 627.852392 233.608346 
L 627.852392 233.37514 
L 628.197126 233.64019 
L 628.197126 233.350499 
L 628.547239 233.600337 
L 628.547239 233.31446 
L 628.891729 233.571293 
L 628.891729 233.385574 
L 629.235974 233.649683 
L 629.235974 233.403491 
L 629.580708 233.654554 
L 629.580708 233.410051 
L 629.925443 233.606926 
L 629.925443 233.41794 
L 630.27091 233.64871 
L 630.27091 233.409775 
L 630.615645 233.649977 
L 630.615645 233.432451 
L 630.960134 233.644318 
L 630.960134 233.429841 
L 631.304868 233.698191 
L 631.304868 233.447064 
L 631.649358 233.66901 
L 631.649358 233.421301 
L 631.994092 233.650358 
L 631.994092 233.412359 
L 632.338827 233.658759 
L 632.338827 233.38989 
L 632.683561 233.630812 
L 632.683561 233.381504 
L 633.02805 233.612813 
L 633.02805 233.385111 
L 633.37254 233.65619 
L 633.37254 233.44161 
L 633.727787 233.687939 
L 633.727787 233.503493 
L 634.072766 233.730331 
L 634.072766 233.490191 
L 634.417745 233.712524 
L 634.417745 233.48762 
L 634.762235 233.670195 
L 634.762235 233.47359 
L 635.107947 233.699667 
L 635.107947 233.441541 
L 635.452681 233.6799 
L 635.452681 233.472625 
L 635.797415 233.673865 
L 635.797415 233.48094 
L 636.141905 233.71526 
L 636.141905 233.495968 
L 636.48615 233.699355 
L 636.48615 233.484357 
L 636.830884 233.693652 
L 636.830884 233.548204 
L 637.175374 233.745253 
L 637.175374 233.587991 
L 637.519619 233.797724 
L 637.519619 233.603739 
L 637.863864 233.764225 
L 637.863864 233.556468 
L 638.207621 233.730917 
L 638.207621 233.554654 
L 638.551621 233.747046 
L 638.551621 233.542228 
L 638.901245 233.764686 
L 638.901245 233.565393 
L 639.245246 233.748871 
L 639.245246 233.548943 
L 639.589491 233.762033 
L 639.589491 233.577313 
L 639.934714 233.777055 
L 639.934714 233.596782 
L 640.278226 233.81237 
L 640.278226 233.625976 
L 640.621982 233.829297 
L 640.621982 233.606065 
L 640.965494 233.76705 
L 640.965494 233.569094 
L 641.309006 233.75011 
L 641.309006 233.591262 
L 641.652518 233.799524 
L 641.652518 233.63682 
L 641.996029 233.827893 
L 641.996029 233.638128 
L 642.339541 233.780602 
L 642.339541 233.62493 
L 642.683542 233.80202 
L 642.683542 233.630313 
L 643.027053 233.817935 
L 643.027053 233.676934 
L 643.371054 233.84673 
L 643.371054 233.647881 
L 643.714566 233.803804 
L 643.714566 233.605139 
L 644.063945 233.745077 
L 644.063945 233.574687 
L 644.407946 233.784903 
L 644.407946 233.62544 
L 644.756348 233.836241 
L 644.756348 233.669451 
L 645.100104 233.85333 
L 645.100104 233.6766 
L 645.444349 233.848577 
L 645.444349 233.688213 
L 645.788105 233.866967 
L 645.788105 233.676134 
L 646.131862 233.843452 
L 646.131862 233.667681 
L 646.475862 233.822766 
L 646.475862 233.680194 
L 646.820108 233.861966 
L 646.820108 233.721125 
L 647.163864 233.897237 
L 647.163864 233.748344 
L 647.508353 233.889636 
L 647.508353 233.73145 
L 647.852843 233.891096 
L 647.852843 233.720359 
L 648.197088 233.878823 
L 648.197088 233.688221 
L 648.541334 233.844606 
L 648.541334 233.654559 
L 648.885823 233.827378 
L 648.885823 233.661135 
L 649.235203 233.846458 
L 649.235203 233.677924 
L 649.579448 233.85653 
L 649.579448 233.701825 
L 649.923938 233.850421 
L 649.923938 233.703053 
L 650.268672 233.868059 
L 650.268672 233.698992 
L 650.612917 233.864718 
L 650.612917 233.732092 
L 650.958629 233.883759 
L 650.958629 233.718714 
L 651.302875 233.89978 
L 651.302875 233.725977 
L 651.647364 233.872604 
L 651.647364 233.695804 
L 651.991854 233.857053 
L 651.991854 233.664948 
L 652.336344 233.842654 
L 652.336344 233.697639 
L 652.680589 233.86591 
L 652.680589 233.736036 
L 653.024834 233.907792 
L 653.024834 233.731701 
L 653.369079 233.879194 
L 653.369079 233.710528 
L 653.71308 233.843079 
L 653.71308 233.696991 
L 654.057081 233.867132 
L 654.057081 233.673383 
L 654.40646 233.857782 
L 654.40646 233.711488 
L 654.754617 233.862659 
L 654.754617 233.712706 
L 655.098374 233.900898 
L 655.098374 233.755564 
L 655.442374 233.892756 
L 655.442374 233.725689 
L 655.786375 233.872807 
L 655.786375 233.715218 
L 656.130131 233.834613 
L 656.130131 233.703066 
L 656.473643 233.856819 
L 656.473643 233.693422 
L 657.160911 233.881576 
L 657.160911 233.749864 
L 657.504667 233.890889 
L 657.504667 233.739675 
L 657.848423 233.874489 
L 657.848423 233.729678 
L 658.192424 233.876912 
L 658.192424 233.735821 
L 658.53618 233.888843 
L 658.53618 233.720318 
L 658.879937 233.85855 
L 658.879937 233.711465 
L 659.223448 233.858609 
L 659.223448 233.696087 
L 659.572828 233.856485 
L 659.572828 233.699798 
L 659.916584 233.832958 
L 659.916584 233.668631 
L 660.26034 233.835011 
L 660.26034 233.700715 
L 660.604585 233.857878 
L 660.604585 233.715506 
L 660.948586 233.88177 
L 660.948586 233.747284 
L 661.292342 233.886093 
L 661.292342 233.756374 
L 662.3263 233.749207 
L 662.670546 233.931819 
L 662.670546 233.80478 
L 663.014791 233.940274 
L 663.014791 233.778568 
L 663.359036 233.930032 
L 663.359036 233.748913 
L 663.703281 233.88755 
L 663.703281 233.75619 
L 664.047527 233.909407 
L 664.047527 233.76541 
L 664.392016 233.940947 
L 664.392016 233.78902 
L 664.74164 233.920175 
L 664.74164 233.784394 
L 665.091509 233.922644 
L 665.091509 233.753932 
L 665.435754 233.898277 
L 665.435754 233.782575 
L 665.779999 233.909378 
L 665.779999 233.785184 
L 666.124489 233.949956 
L 666.124489 233.84999 
L 666.46849 233.965904 
L 666.46849 233.83835 
L 666.812979 233.971537 
L 666.812979 233.810246 
L 667.157469 233.913296 
L 667.157469 233.784572 
L 667.502203 233.913228 
L 667.502203 233.772296 
L 667.846693 233.937355 
L 667.846693 233.811329 
L 668.191916 233.927529 
L 668.191916 233.793371 
L 668.536895 233.932923 
L 668.536895 233.797411 
L 668.881384 233.933566 
L 668.881384 233.795193 
L 669.226363 233.940896 
L 669.226363 233.817978 
L 669.570853 233.947356 
L 669.570853 233.820971 
L 669.920966 233.974046 
L 669.920966 233.858251 
L 670.2657 233.973889 
L 670.2657 233.840264 
L 670.610679 233.964312 
L 670.610679 233.831194 
L 670.956391 233.944346 
L 670.956391 233.818847 
L 671.300881 233.960373 
L 671.300881 233.818148 
L 671.645859 233.943581 
L 671.645859 233.775529 
L 671.990349 233.911291 
L 671.990349 233.77097 
L 672.335572 233.915061 
L 672.335572 233.758339 
L 672.680551 233.923568 
L 672.680551 233.764531 
L 673.715731 233.752659 
L 673.715731 233.772853 
L 674.060955 233.920403 
L 674.060955 233.774002 
L 674.410823 233.928567 
L 674.410823 233.775089 
L 674.755802 233.914653 
L 674.755802 233.779519 
L 675.106404 233.904394 
L 675.106404 233.772661 
L 675.451138 233.941184 
L 675.451138 233.822792 
L 675.796117 233.965557 
L 675.796117 233.84581 
L 676.141095 233.970642 
L 676.141095 233.829818 
L 676.48583 233.944641 
L 676.48583 233.775648 
L 676.831053 233.910234 
L 676.831053 233.789273 
L 677.176276 233.912819 
L 677.176276 233.793977 
L 677.521255 233.956433 
L 677.521255 233.814982 
L 677.866233 233.933552 
L 677.866233 233.808104 
L 678.55668 233.95655 
L 678.55668 233.833369 
L 678.902147 233.968147 
L 678.902147 233.838463 
L 679.247371 233.954135 
L 679.247371 233.82943 
L 679.592105 233.967625 
L 679.592105 233.816254 
L 679.937328 233.95641 
L 679.937328 233.81887 
L 680.977887 233.80638 
L 681.32311 233.946699 
L 681.32311 233.835816 
L 681.668089 233.951519 
L 681.668089 233.812668 
L 682.013557 233.952532 
L 682.013557 233.83047 
L 682.358535 233.944531 
L 682.358535 233.807988 
L 682.703514 233.948857 
L 682.703514 233.81351 
L 683.048737 233.938253 
L 683.048737 233.815995 
L 683.394205 233.958289 
L 683.394205 233.831268 
L 683.739428 233.978804 
L 683.739428 233.841163 
L 684.090275 233.960899 
L 684.090275 233.82355 
L 684.435987 233.960157 
L 684.435987 233.832206 
L 684.780966 233.956447 
L 684.780966 233.823236 
L 685.126189 233.953413 
L 685.126189 233.82265 
L 685.822747 233.976736 
L 685.822747 233.862539 
L 686.167971 233.961579 
L 686.167971 233.831123 
L 686.858906 233.947545 
L 686.858906 233.837983 
L 687.204129 233.957023 
L 687.204129 233.826061 
L 687.549108 233.945025 
L 687.549108 233.818944 
L 688.240043 233.974569 
L 688.240043 233.848472 
L 688.585511 233.978634 
L 688.585511 233.844958 
L 688.930489 233.973101 
L 688.930489 233.851688 
L 689.275957 233.96059 
L 689.275957 233.841209 
L 690.312116 233.787092 
L 690.312116 233.797512 
L 690.662718 233.97579 
L 690.662718 233.844967 
L 691.007941 233.972964 
L 691.007941 233.859989 
L 692.043366 233.840488 
L 692.389078 233.975176 
L 692.389078 233.854474 
L 693.080013 233.971548 
L 693.080013 233.817759 
L 693.425726 233.93103 
L 693.425726 233.790335 
L 694.12204 233.964448 
L 694.12204 233.840297 
L 694.467507 233.963875 
L 694.467507 233.836979 
L 694.812975 233.958067 
L 694.812975 233.807637 
L 695.50391 233.966829 
L 695.50391 233.836406 
L 695.854512 233.979911 
L 695.854512 233.861758 
L 696.19998 233.978861 
L 696.19998 233.861879 
L 697.236383 233.78678 
L 697.581362 233.955709 
L 697.581362 233.843497 
L 698.272053 233.985312 
L 698.272053 233.876725 
L 698.962743 233.993224 
L 698.962743 233.87666 
L 699.308211 233.990817 
L 699.308211 233.870969 
L 699.653434 233.984415 
L 699.653434 233.857985 
L 700.344125 233.99846 
L 700.344125 233.867507 
L 700.689593 233.997121 
L 700.689593 233.872017 
L 701.040195 233.977144 
L 701.040195 233.855057 
L 704.497805 233.807062 
L 704.497805 233.838819 
L 704.843273 233.985614 
L 704.843273 233.875577 
L 705.533475 234.009432 
L 705.533475 233.883203 
L 705.878943 233.997582 
L 705.878943 233.875275 
L 706.229545 233.989486 
L 706.229545 233.869621 
L 707.266192 233.831858 
L 707.611415 233.959263 
L 707.611415 233.825639 
L 707.956883 233.964012 
L 707.956883 233.850283 
L 708.302106 233.966936 
L 708.302106 233.834764 
L 708.647329 233.964752 
L 708.647329 233.837559 
L 709.33802 233.99854 
L 709.33802 233.887281 
L 709.683488 234.017301 
L 709.683488 233.896907 
L 710.028711 234.016792 
L 710.028711 233.897213 
L 710.37369 234.011297 
L 710.37369 233.891645 
L 710.719402 234.002775 
L 710.719402 233.883029 
L 711.06487 233.999468 
L 711.06487 233.864787 
L 711.415472 233.950795 
L 711.415472 233.833475 
L 711.760939 233.949548 
L 711.760939 233.82151 
L 712.456276 233.966045 
L 712.456276 233.873337 
L 712.801499 233.996903 
L 712.801499 233.889663 
L 713.146722 233.996748 
L 713.146722 233.883183 
L 713.837413 233.99347 
L 713.837413 233.873408 
L 714.182636 234.011108 
L 714.182636 233.872977 
L 714.873082 234.010991 
L 714.873082 233.911593 
L 715.218305 234.047755 
L 715.218305 233.929443 
L 715.563529 234.031011 
L 715.563529 233.917253 
L 715.908752 234.008364 
L 715.908752 233.891317 
L 716.604577 233.990516 
L 716.604577 233.892947 
L 717.295023 234.002171 
L 717.295023 233.877162 
L 717.639758 233.983082 
L 717.639758 233.865438 
L 718.329959 233.96967 
L 718.329959 233.835785 
L 718.675183 233.960846 
L 718.675183 233.834953 
L 719.020406 233.956992 
L 719.020406 233.844513 
L 720.401054 233.894215 
L 720.401054 233.91911 
L 720.746522 234.023996 
L 720.746522 233.883666 
L 721.436234 233.984673 
L 721.436234 233.872128 
L 721.787081 234.010545 
L 721.787081 233.909627 
L 722.131815 234.023592 
L 722.131815 233.906526 
L 723.85622 233.895097 
L 724.551067 234.038146 
L 724.551067 233.925238 
L 724.895801 234.03147 
L 724.895801 233.918631 
L 725.585025 234.02237 
L 725.585025 233.910143 
L 725.929759 234.00813 
L 725.929759 233.896665 
L 726.618983 234.03269 
L 726.618983 233.932534 
L 726.969341 234.045101 
L 726.969341 233.960158 
L 727.658564 234.033826 
L 727.658564 233.936501 
L 728.003299 234.046713 
L 728.003299 233.932613 
L 728.692523 234.021434 
L 728.692523 233.902112 
L 729.381013 234.026936 
L 729.381013 233.930719 
L 730.070237 234.048886 
L 730.070237 233.96248 
L 730.759705 234.044472 
L 730.759705 233.904183 
L 731.449663 234.005508 
L 731.449663 233.898078 
L 731.793908 233.905568 
L 732.143776 233.784979 
L 733.177245 234.006316 
L 733.177245 233.906142 
L 733.872582 234.035678 
L 733.872582 233.934497 
L 734.216827 234.042791 
L 734.216827 233.926562 
L 734.561317 234.021154 
L 734.561317 233.914133 
L 735.593563 233.910966 
L 735.593563 233.912599 
L 735.93952 234.042967 
L 735.93952 233.912968 
L 736.627521 234.029942 
L 736.627521 233.905821 
L 739.728173 234.01682 
L 739.728173 233.902092 
L 740.415441 234.045191 
L 740.415441 233.976617 
L 740.758953 234.098969 
L 740.758953 233.985308 
L 741.102709 234.079848 
L 741.102709 233.989689 
L 742.133 233.949955 
L 742.133 233.952208 
L 742.824913 234.081594 
L 742.824913 233.985339 
L 743.511936 234.046619 
L 743.511936 233.948646 
L 744.199204 234.053575 
L 744.199204 233.965489 
L 744.89234 234.064994 
L 744.89234 233.973193 
L 745.579119 234.060687 
L 745.579119 233.96106 
L 746.266143 234.041075 
L 746.266143 233.964077 
L 746.609654 234.076249 
L 746.609654 233.965718 
L 747.296678 234.048051 
L 747.296678 233.971224 
L 747.645568 234.083386 
L 747.645568 233.969666 
L 747.989325 234.070485 
L 747.989325 233.965092 
L 748.332592 234.031759 
L 748.332592 233.936174 
L 751.773821 233.998112 
L 752.4606 234.067547 
L 752.4606 233.977562 
L 753.154959 234.050858 
L 753.154959 233.965465 
L 753.842227 234.045979 
L 753.842227 233.965974 
L 754.529495 234.080032 
L 754.529495 233.990249 
L 755.216763 234.053333 
L 755.216763 233.971695 
L 756.247053 233.986434 
L 756.934077 234.062648 
L 756.934077 233.974675 
L 757.621589 234.079104 
L 757.621589 233.986496 
L 758.31448 234.054973 
L 758.31448 233.976109 
L 758.657992 234.064546 
L 758.657992 233.979302 
L 759.689261 233.993932 
L 760.37604 234.080079 
L 760.37604 233.995958 
L 761.063552 234.090623 
L 761.063552 234.015047 
L 761.751065 234.093036 
L 761.751065 234.007895 
L 762.438333 234.078848 
L 762.438333 233.98918 
L 762.781844 234.051992 
L 762.781844 234.007694 
L 764.510405 233.99464 
L 764.510405 234.000433 
L 764.853917 234.112289 
L 764.853917 234.02975 
L 765.541674 234.081003 
L 765.541674 233.977801 
L 766.229431 234.070832 
L 766.229431 233.967627 
L 766.573432 234.06979 
L 766.573432 233.963959 
L 767.261188 234.054115 
L 767.261188 233.958463 
L 767.950168 234.065552 
L 767.950168 233.969951 
L 768.64257 234.066223 
L 768.64257 233.989091 
L 768.986326 234.084081 
L 768.986326 234.014835 
L 770.018084 233.992269 
L 770.018084 233.998793 
L 770.705352 234.127196 
L 770.705352 234.052703 
L 771.39262 234.12082 
L 771.39262 234.041482 
L 771.736621 234.114178 
L 771.736621 234.043092 
L 772.768134 234.013839 
L 772.768134 234.015959 
L 773.46127 234.113443 
L 773.46127 234.022051 
L 773.80527 234.094359 
L 773.80527 234.031243 
L 774.492538 233.968817 
L 774.492538 233.985752 
L 774.84094 233.996218 
L 775.184452 234.114511 
L 775.184452 234.037754 
L 777.246744 234.025351 
L 777.934746 234.112506 
L 777.934746 234.016645 
L 778.627393 234.080634 
L 778.627393 233.987317 
L 779.317106 234.073286 
L 779.317106 234.014863 
L 780.004374 234.09973 
L 780.004374 233.997953 
L 780.69213 234.076472 
L 780.69213 234.004613 
L 781.379398 234.091196 
L 781.379398 234.01459 
L 782.067155 234.098088 
L 782.067155 234.008135 
L 782.754179 234.118181 
L 782.754179 234.057963 
L 783.441447 234.146037 
L 783.441447 234.066654 
L 784.134094 234.110752 
L 784.134094 234.055933 
L 784.482006 234.124199 
L 784.482006 234.05316 
L 790.672308 233.980422 
L 790.672308 233.964541 
L 791.015575 233.904491 
L 791.700887 233.989047 
L 792.384976 234.049372 
L 792.384976 234.048543 
L 793.063932 234.097575 
L 793.063932 234.04208 
L 794.081264 234.157336 
L 794.081264 234.076879 
L 794.416952 234.12563 
L 794.416952 234.048192 
L 796.087324 234.054007 
L 796.753076 234.162776 
L 796.753076 234.073214 
L 797.418829 234.166995 
L 797.418829 234.096622 
L 798.085315 234.153167 
L 798.085315 234.083374 
L 798.416847 234.141134 
L 798.416847 234.07485 
L 803.742134 234.015158 
L 804.746509 234.135055 
L 804.746509 234.077081 
L 805.412506 234.138462 
L 809.775961 234.028095 
L 809.775961 234.066224 
L 810.110426 234.169955 
L 810.110426 234.114336 
L 811.790089 234.031343 
L 811.790089 234.046128 
L 812.125288 234.123766 
L 812.125288 234.071138 
L 813.473663 234.084428 
L 814.904187 234.33435 
L 816.345714 234.340614 
L 816.345714 234.338568 
" clip-path="url(#pb81e693dfa)" style="fill: none; stroke: #008000; stroke-width: 1.5; stroke-linecap: square"/>
   </g>
   <g id="patch_3">
    <path d="M 47.72 534.04 
L 47.72 26.88 
" style="fill: none; stroke: #000000; stroke-width: 0.8; stroke-linejoin: miter; stroke-linecap: square"/>
   </g>
   <g id="patch_4">
    <path d="M 853.2 534.04 
L 853.2 26.88 
" style="fill: none; stroke: #000000; stroke-width: 0.8; stroke-linejoin: miter; stroke-linecap: square"/>
   </g>
   <g id="patch_5">
    <path d="M 47.72 534.04 
L 853.2 534.04 
" style="fill: none; stroke: #000000; stroke-width: 0.8; stroke-linejoin: miter; stroke-linecap: square"/>
   </g>
   <g id="patch_6">
    <path d="M 47.72 26.88 
L 853.2 26.88 
" style="fill: none; stroke: #000000; stroke-width: 0.8; stroke-linejoin: miter; stroke-linecap: square"/>
   </g>
   <g id="patch_7">
    <path d="M 609.644441 313.409207 
Q 583.493147 319.242788 557.341853 325.076369 
L 558.21273 328.980414 
Q 551.70498 327.358366 545.197229 325.736319 
Q 550.398664 321.502298 555.600098 317.268277 
L 556.470976 321.172323 
Q 582.622269 315.338742 608.773563 309.505161 
L 609.644441 313.409207 
z
" style="stroke: #000000; stroke-linecap: round"/>
   </g>
   <g id="text_15">
    <!-- Peak: RT=3.13, Area=3.56e+04 -->
    <g style="fill: #ff0000" transform="translate(614.881096 296.914407) scale(0.1 -0.1)">
     <defs>
      <path id="DejaVuSans-50" d="M 1259 4147 
L 1259 2394 
L 2053 2394 
Q 2494 2394 2734 2622 
Q 2975 2850 2975 3272 
Q 2975 3691 2734 3919 
Q 2494 4147 2053 4147 
L 1259 4147 
z
M 628 4666 
L 2053 4666 
Q 2838 4666 3239 4311 
Q 3641 3956 3641 3272 
Q 3641 2581 3239 2228 
Q 2838 1875 2053 1875 
L 1259 1875 
L 1259 0 
L 628 0 
L 628 4666 
z
" transform="scale(0.015625)"/>
      <path id="DejaVuSans-6b" d="M 581 4863 
L 1159 4863 
L 1159 1991 
L 2875 3500 
L 3609 3500 
L 1753 1863 
L 3688 0 
L 2938 0 
L 1159 1709 
L 1159 0 
L 581 0 
L 581 4863 
z
" transform="scale(0.015625)"/>
      <path id="DejaVuSans-3a" d="M 750 794 
L 1409 794 
L 1409 0 
L 750 0 
L 750 794 
z
M 750 3309 
L 1409 3309 
L 1409 2516 
L 750 2516 
L 750 3309 
z
" transform="scale(0.015625)"/>
      <path id="DejaVuSans-3d" d="M 678 2906 
L 4684 2906 
L 4684 2381 
L 678 2381 
L 678 2906 
z
M 678 1631 
L 4684 1631 
L 4684 1100 
L 678 1100 
L 678 1631 
z
" transform="scale(0.015625)"/>
      <path id="DejaVuSans-2c" d="M 750 794 
L 1409 794 
L 1409 256 
L 897 -744 
L 494 -744 
L 750 256 
L 750 794 
z
" transform="scale(0.015625)"/>
      <path id="DejaVuSans-41" d="M 2188 4044 
L 1331 1722 
L 3047 1722 
L 2188 4044 
z
M 1831 4666 
L 2547 4666 
L 4325 0 
L 3669 0 
L 3244 1197 
L 1141 1197 
L 716 0 
L 50 0 
L 1831 4666 
z
" transform="scale(0.015625)"/>
      <path id="DejaVuSans-36" d="M 2113 2584 
Q 1688 2584 1439 2293 
Q 1191 2003 1191 1497 
Q 1191 994 1439 701 
Q 1688 409 2113 409 
Q 2538 409 2786 701 
Q 3034 994 3034 1497 
Q 3034 2003 2786 2293 
Q 2538 2584 2113 2584 
z
M 3366 4563 
L 3366 3988 
Q 3128 4100 2886 4159 
Q 2644 4219 2406 4219 
Q 1781 4219 1451 3797 
Q 1122 3375 1075 2522 
Q 1259 2794 1537 2939 
Q 1816 3084 2150 3084 
Q 2853 3084 3261 2657 
Q 3669 2231 3669 1497 
Q 3669 778 3244 343 
Q 2819 -91 2113 -91 
Q 1303 -91 875 529 
Q 447 1150 447 2328 
Q 447 3434 972 4092 
Q 1497 4750 2381 4750 
Q 2619 4750 2861 4703 
Q 3103 4656 3366 4563 
z
" transform="scale(0.015625)"/>
      <path id="DejaVuSans-2b" d="M 2944 4013 
L 2944 2272 
L 4684 2272 
L 4684 1741 
L 2944 1741 
L 2944 0 
L 2419 0 
L 2419 1741 
L 678 1741 
L 678 2272 
L 2419 2272 
L 2419 4013 
L 2944 4013 
z
" transform="scale(0.015625)"/>
     </defs>
     <use xlink:href="#DejaVuSans-50"/>
     <use xlink:href="#DejaVuSans-65" transform="translate(56.677734 0)"/>
     <use xlink:href="#DejaVuSans-61" transform="translate(118.201172 0)"/>
     <use xlink:href="#DejaVuSans-6b" transform="translate(179.480469 0)"/>
     <use xlink:href="#DejaVuSans-3a" transform="translate(237.390625 0)"/>
     <use xlink:href="#DejaVuSans-20" transform="translate(271.082031 0)"/>
     <use xlink:href="#DejaVuSans-52" transform="translate(302.869141 0)"/>
     <use xlink:href="#DejaVuSans-54" transform="translate(365.101562 0)"/>
     <use xlink:href="#DejaVuSans-3d" transform="translate(426.185547 0)"/>
     <use xlink:href="#DejaVuSans-33" transform="translate(509.974609 0)"/>
     <use xlink:href="#DejaVuSans-2e" transform="translate(573.597656 0)"/>
     <use xlink:href="#DejaVuSans-31" transform="translate(605.384766 0)"/>
     <use xlink:href="#DejaVuSans-33" transform="translate(669.007812 0)"/>
     <use xlink:href="#DejaVuSans-2c" transform="translate(732.630859 0)"/>
     <use xlink:href="#DejaVuSans-20" transform="translate(764.417969 0)"/>
     <use xlink:href="#DejaVuSans-41" transform="translate(796.205078 0)"/>
     <use xlink:href="#DejaVuSans-72" transform="translate(864.613281 0)"/>
     <use xlink:href="#DejaVuSans-65" transform="translate(903.476562 0)"/>
     <use xlink:href="#DejaVuSans-61" transform="translate(965 0)"/>
     <use xlink:href="#DejaVuSans-3d" transform="translate(1026.279297 0)"/>
     <use xlink:href="#DejaVuSans-33" transform="translate(1110.068359 0)"/>
     <use xlink:href="#DejaVuSans-2e" transform="translate(1173.691406 0)"/>
     <use xlink:href="#DejaVuSans-35" transform="translate(1205.478516 0)"/>
     <use xlink:href="#DejaVuSans-36" transform="translate(1269.101562 0)"/>
     <use xlink:href="#DejaVuSans-65" transform="translate(1332.724609 0)"/>
     <use xlink:href="#DejaVuSans-2b" transform="translate(1394.248047 0)"/>
     <use xlink:href="#DejaVuSans-30" transform="translate(1478.037109 0)"/>
     <use xlink:href="#DejaVuSans-34" transform="translate(1541.660156 0)"/>
    </g>
    <!-- (71.86% of total) -->
    <g style="fill: #ff0000" transform="translate(614.881096 308.11222) scale(0.1 -0.1)">
     <defs>
      <path id="DejaVuSans-37" d="M 525 4666 
L 3525 4666 
L 3525 4397 
L 1831 0 
L 1172 0 
L 2766 4134 
L 525 4134 
L 525 4666 
z
" transform="scale(0.015625)"/>
      <path id="DejaVuSans-38" d="M 2034 2216 
Q 1584 2216 1326 1975 
Q 1069 1734 1069 1313 
Q 1069 891 1326 650 
Q 1584 409 2034 409 
Q 2484 409 2743 651 
Q 3003 894 3003 1313 
Q 3003 1734 2745 1975 
Q 2488 2216 2034 2216 
z
M 1403 2484 
Q 997 2584 770 2862 
Q 544 3141 544 3541 
Q 544 4100 942 4425 
Q 1341 4750 2034 4750 
Q 2731 4750 3128 4425 
Q 3525 4100 3525 3541 
Q 3525 3141 3298 2862 
Q 3072 2584 2669 2484 
Q 3125 2378 3379 2068 
Q 3634 1759 3634 1313 
Q 3634 634 3220 271 
Q 2806 -91 2034 -91 
Q 1263 -91 848 271 
Q 434 634 434 1313 
Q 434 1759 690 2068 
Q 947 2378 1403 2484 
z
M 1172 3481 
Q 1172 3119 1398 2916 
Q 1625 2713 2034 2713 
Q 2441 2713 2670 2916 
Q 2900 3119 2900 3481 
Q 2900 3844 2670 4047 
Q 2441 4250 2034 4250 
Q 1625 4250 1398 4047 
Q 1172 3844 1172 3481 
z
" transform="scale(0.015625)"/>
      <path id="DejaVuSans-25" d="M 4653 2053 
Q 4381 2053 4226 1822 
Q 4072 1591 4072 1178 
Q 4072 772 4226 539 
Q 4381 306 4653 306 
Q 4919 306 5073 539 
Q 5228 772 5228 1178 
Q 5228 1588 5073 1820 
Q 4919 2053 4653 2053 
z
M 4653 2450 
Q 5147 2450 5437 2106 
Q 5728 1763 5728 1178 
Q 5728 594 5436 251 
Q 5144 -91 4653 -91 
Q 4153 -91 3862 251 
Q 3572 594 3572 1178 
Q 3572 1766 3864 2108 
Q 4156 2450 4653 2450 
z
M 1428 4353 
Q 1159 4353 1004 4120 
Q 850 3888 850 3481 
Q 850 3069 1003 2837 
Q 1156 2606 1428 2606 
Q 1700 2606 1854 2837 
Q 2009 3069 2009 3481 
Q 2009 3884 1853 4118 
Q 1697 4353 1428 4353 
z
M 4250 4750 
L 4750 4750 
L 1831 -91 
L 1331 -91 
L 4250 4750 
z
M 1428 4750 
Q 1922 4750 2215 4408 
Q 2509 4066 2509 3481 
Q 2509 2891 2217 2550 
Q 1925 2209 1428 2209 
Q 931 2209 642 2551 
Q 353 2894 353 3481 
Q 353 4063 643 4406 
Q 934 4750 1428 4750 
z
" transform="scale(0.015625)"/>
      <path id="DejaVuSans-66" d="M 2375 4863 
L 2375 4384 
L 1825 4384 
Q 1516 4384 1395 4259 
Q 1275 4134 1275 3809 
L 1275 3500 
L 2222 3500 
L 2222 3053 
L 1275 3053 
L 1275 0 
L 697 0 
L 697 3053 
L 147 3053 
L 147 3500 
L 697 3500 
L 697 3744 
Q 697 4328 969 4595 
Q 1241 4863 1831 4863 
L 2375 4863 
z
" transform="scale(0.015625)"/>
     </defs>
     <use xlink:href="#DejaVuSans-28"/>
     <use xlink:href="#DejaVuSans-37" transform="translate(39.013672 0)"/>
     <use xlink:href="#DejaVuSans-31" transform="translate(102.636719 0)"/>
     <use xlink:href="#DejaVuSans-2e" transform="translate(166.259766 0)"/>
     <use xlink:href="#DejaVuSans-38" transform="translate(198.046875 0)"/>
     <use xlink:href="#DejaVuSans-36" transform="translate(261.669922 0)"/>
     <use xlink:href="#DejaVuSans-25" transform="translate(325.292969 0)"/>
     <use xlink:href="#DejaVuSans-20" transform="translate(420.3125 0)"/>
     <use xlink:href="#DejaVuSans-6f" transform="translate(452.099609 0)"/>
     <use xlink:href="#DejaVuSans-66" transform="translate(513.28125 0)"/>
     <use xlink:href="#DejaVuSans-20" transform="translate(548.486328 0)"/>
     <use xlink:href="#DejaVuSans-74" transform="translate(580.273438 0)"/>
     <use xlink:href="#DejaVuSans-6f" transform="translate(619.482422 0)"/>
     <use xlink:href="#DejaVuSans-74" transform="translate(680.664062 0)"/>
     <use xlink:href="#DejaVuSans-61" transform="translate(719.873047 0)"/>
     <use xlink:href="#DejaVuSans-6c" transform="translate(781.152344 0)"/>
     <use xlink:href="#DejaVuSans-29" transform="translate(808.935547 0)"/>
    </g>
   </g>
   <g id="text_16">
    <!-- UV and MS Chromatograms of IrCp4L8, target m/z = 735.1294912 -->
    <g transform="translate(250.794063 20.88) scale(0.12 -0.12)">
     <defs>
      <path id="DejaVuSans-55" d="M 556 4666 
L 1191 4666 
L 1191 1831 
Q 1191 1081 1462 751 
Q 1734 422 2344 422 
Q 2950 422 3222 751 
Q 3494 1081 3494 1831 
L 3494 4666 
L 4128 4666 
L 4128 1753 
Q 4128 841 3676 375 
Q 3225 -91 2344 -91 
Q 1459 -91 1007 375 
Q 556 841 556 1753 
L 556 4666 
z
" transform="scale(0.015625)"/>
      <path id="DejaVuSans-56" d="M 1831 0 
L 50 4666 
L 709 4666 
L 2188 738 
L 3669 4666 
L 4325 4666 
L 2547 0 
L 1831 0 
z
" transform="scale(0.015625)"/>
      <path id="DejaVuSans-4d" d="M 628 4666 
L 1569 4666 
L 2759 1491 
L 3956 4666 
L 4897 4666 
L 4897 0 
L 4281 0 
L 4281 4097 
L 3078 897 
L 2444 897 
L 1241 4097 
L 1241 0 
L 628 0 
L 628 4666 
z
" transform="scale(0.015625)"/>
      <path id="DejaVuSans-53" d="M 3425 4513 
L 3425 3897 
Q 3066 4069 2747 4153 
Q 2428 4238 2131 4238 
Q 1616 4238 1336 4038 
Q 1056 3838 1056 3469 
Q 1056 3159 1242 3001 
Q 1428 2844 1947 2747 
L 2328 2669 
Q 3034 2534 3370 2195 
Q 3706 1856 3706 1288 
Q 3706 609 3251 259 
Q 2797 -91 1919 -91 
Q 1588 -91 1214 -16 
Q 841 59 441 206 
L 441 856 
Q 825 641 1194 531 
Q 1563 422 1919 422 
Q 2459 422 2753 634 
Q 3047 847 3047 1241 
Q 3047 1584 2836 1778 
Q 2625 1972 2144 2069 
L 1759 2144 
Q 1053 2284 737 2584 
Q 422 2884 422 3419 
Q 422 4038 858 4394 
Q 1294 4750 2059 4750 
Q 2388 4750 2728 4690 
Q 3069 4631 3425 4513 
z
" transform="scale(0.015625)"/>
      <path id="DejaVuSans-43" d="M 4122 4306 
L 4122 3641 
Q 3803 3938 3442 4084 
Q 3081 4231 2675 4231 
Q 1875 4231 1450 3742 
Q 1025 3253 1025 2328 
Q 1025 1406 1450 917 
Q 1875 428 2675 428 
Q 3081 428 3442 575 
Q 3803 722 4122 1019 
L 4122 359 
Q 3791 134 3420 21 
Q 3050 -91 2638 -91 
Q 1578 -91 968 557 
Q 359 1206 359 2328 
Q 359 3453 968 4101 
Q 1578 4750 2638 4750 
Q 3056 4750 3426 4639 
Q 3797 4528 4122 4306 
z
" transform="scale(0.015625)"/>
      <path id="DejaVuSans-68" d="M 3513 2113 
L 3513 0 
L 2938 0 
L 2938 2094 
Q 2938 2591 2744 2837 
Q 2550 3084 2163 3084 
Q 1697 3084 1428 2787 
Q 1159 2491 1159 1978 
L 1159 0 
L 581 0 
L 581 4863 
L 1159 4863 
L 1159 2956 
Q 1366 3272 1645 3428 
Q 1925 3584 2291 3584 
Q 2894 3584 3203 3211 
Q 3513 2838 3513 2113 
z
" transform="scale(0.015625)"/>
      <path id="DejaVuSans-67" d="M 2906 1791 
Q 2906 2416 2648 2759 
Q 2391 3103 1925 3103 
Q 1463 3103 1205 2759 
Q 947 2416 947 1791 
Q 947 1169 1205 825 
Q 1463 481 1925 481 
Q 2391 481 2648 825 
Q 2906 1169 2906 1791 
z
M 3481 434 
Q 3481 -459 3084 -895 
Q 2688 -1331 1869 -1331 
Q 1566 -1331 1297 -1286 
Q 1028 -1241 775 -1147 
L 775 -588 
Q 1028 -725 1275 -790 
Q 1522 -856 1778 -856 
Q 2344 -856 2625 -561 
Q 2906 -266 2906 331 
L 2906 616 
Q 2728 306 2450 153 
Q 2172 0 1784 0 
Q 1141 0 747 490 
Q 353 981 353 1791 
Q 353 2603 747 3093 
Q 1141 3584 1784 3584 
Q 2172 3584 2450 3431 
Q 2728 3278 2906 2969 
L 2906 3500 
L 3481 3500 
L 3481 434 
z
" transform="scale(0.015625)"/>
      <path id="DejaVuSans-70" d="M 1159 525 
L 1159 -1331 
L 581 -1331 
L 581 3500 
L 1159 3500 
L 1159 2969 
Q 1341 3281 1617 3432 
Q 1894 3584 2278 3584 
Q 2916 3584 3314 3078 
Q 3713 2572 3713 1747 
Q 3713 922 3314 415 
Q 2916 -91 2278 -91 
Q 1894 -91 1617 61 
Q 1341 213 1159 525 
z
M 3116 1747 
Q 3116 2381 2855 2742 
Q 2594 3103 2138 3103 
Q 1681 3103 1420 2742 
Q 1159 2381 1159 1747 
Q 1159 1113 1420 752 
Q 1681 391 2138 391 
Q 2594 391 2855 752 
Q 3116 1113 3116 1747 
z
" transform="scale(0.015625)"/>
      <path id="DejaVuSans-4c" d="M 628 4666 
L 1259 4666 
L 1259 531 
L 3531 531 
L 3531 0 
L 628 0 
L 628 4666 
z
" transform="scale(0.015625)"/>
      <path id="DejaVuSans-2f" d="M 1625 4666 
L 2156 4666 
L 531 -594 
L 0 -594 
L 1625 4666 
z
" transform="scale(0.015625)"/>
      <path id="DejaVuSans-39" d="M 703 97 
L 703 672 
Q 941 559 1184 500 
Q 1428 441 1663 441 
Q 2288 441 2617 861 
Q 2947 1281 2994 2138 
Q 2813 1869 2534 1725 
Q 2256 1581 1919 1581 
Q 1219 1581 811 2004 
Q 403 2428 403 3163 
Q 403 3881 828 4315 
Q 1253 4750 1959 4750 
Q 2769 4750 3195 4129 
Q 3622 3509 3622 2328 
Q 3622 1225 3098 567 
Q 2575 -91 1691 -91 
Q 1453 -91 1209 -44 
Q 966 3 703 97 
z
M 1959 2075 
Q 2384 2075 2632 2365 
Q 2881 2656 2881 3163 
Q 2881 3666 2632 3958 
Q 2384 4250 1959 4250 
Q 1534 4250 1286 3958 
Q 1038 3666 1038 3163 
Q 1038 2656 1286 2365 
Q 1534 2075 1959 2075 
z
" transform="scale(0.015625)"/>
     </defs>
     <use xlink:href="#DejaVuSans-55"/>
     <use xlink:href="#DejaVuSans-56" transform="translate(73.193359 0)"/>
     <use xlink:href="#DejaVuSans-20" transform="translate(141.601562 0)"/>
     <use xlink:href="#DejaVuSans-61" transform="translate(173.388672 0)"/>
     <use xlink:href="#DejaVuSans-6e" transform="translate(234.667969 0)"/>
     <use xlink:href="#DejaVuSans-64" transform="translate(298.046875 0)"/>
     <use xlink:href="#DejaVuSans-20" transform="translate(361.523438 0)"/>
     <use xlink:href="#DejaVuSans-4d" transform="translate(393.310547 0)"/>
     <use xlink:href="#DejaVuSans-53" transform="translate(479.589844 0)"/>
     <use xlink:href="#DejaVuSans-20" transform="translate(543.066406 0)"/>
     <use xlink:href="#DejaVuSans-43" transform="translate(574.853516 0)"/>
     <use xlink:href="#DejaVuSans-68" transform="translate(644.677734 0)"/>
     <use xlink:href="#DejaVuSans-72" transform="translate(708.056641 0)"/>
     <use xlink:href="#DejaVuSans-6f" transform="translate(746.919922 0)"/>
     <use xlink:href="#DejaVuSans-6d" transform="translate(808.101562 0)"/>
     <use xlink:href="#DejaVuSans-61" transform="translate(905.513672 0)"/>
     <use xlink:href="#DejaVuSans-74" transform="translate(966.792969 0)"/>
     <use xlink:href="#DejaVuSans-6f" transform="translate(1006.001953 0)"/>
     <use xlink:href="#DejaVuSans-67" transform="translate(1067.183594 0)"/>
     <use xlink:href="#DejaVuSans-72" transform="translate(1130.660156 0)"/>
     <use xlink:href="#DejaVuSans-61" transform="translate(1171.773438 0)"/>
     <use xlink:href="#DejaVuSans-6d" transform="translate(1233.052734 0)"/>
     <use xlink:href="#DejaVuSans-73" transform="translate(1330.464844 0)"/>
     <use xlink:href="#DejaVuSans-20" transform="translate(1382.564453 0)"/>
     <use xlink:href="#DejaVuSans-6f" transform="translate(1414.351562 0)"/>
     <use xlink:href="#DejaVuSans-66" transform="translate(1475.533203 0)"/>
     <use xlink:href="#DejaVuSans-20" transform="translate(1510.738281 0)"/>
     <use xlink:href="#DejaVuSans-49" transform="translate(1542.525391 0)"/>
     <use xlink:href="#DejaVuSans-72" transform="translate(1572.017578 0)"/>
     <use xlink:href="#DejaVuSans-43" transform="translate(1613.130859 0)"/>
     <use xlink:href="#DejaVuSans-70" transform="translate(1682.955078 0)"/>
     <use xlink:href="#DejaVuSans-34" transform="translate(1746.431641 0)"/>
     <use xlink:href="#DejaVuSans-4c" transform="translate(1810.054688 0)"/>
     <use xlink:href="#DejaVuSans-38" transform="translate(1865.767578 0)"/>
     <use xlink:href="#DejaVuSans-2c" transform="translate(1929.390625 0)"/>
     <use xlink:href="#DejaVuSans-20" transform="translate(1961.177734 0)"/>
     <use xlink:href="#DejaVuSans-74" transform="translate(1992.964844 0)"/>
     <use xlink:href="#DejaVuSans-61" transform="translate(2032.173828 0)"/>
     <use xlink:href="#DejaVuSans-72" transform="translate(2093.453125 0)"/>
     <use xlink:href="#DejaVuSans-67" transform="translate(2132.816406 0)"/>
     <use xlink:href="#DejaVuSans-65" transform="translate(2196.292969 0)"/>
     <use xlink:href="#DejaVuSans-74" transform="translate(2257.816406 0)"/>
     <use xlink:href="#DejaVuSans-20" transform="translate(2297.025391 0)"/>
     <use xlink:href="#DejaVuSans-6d" transform="translate(2328.8125 0)"/>
     <use xlink:href="#DejaVuSans-2f" transform="translate(2426.224609 0)"/>
     <use xlink:href="#DejaVuSans-7a" transform="translate(2459.916016 0)"/>
     <use xlink:href="#DejaVuSans-20" transform="translate(2512.40625 0)"/>
     <use xlink:href="#DejaVuSans-3d" transform="translate(2544.193359 0)"/>
     <use xlink:href="#DejaVuSans-20" transform="translate(2627.982422 0)"/>
     <use xlink:href="#DejaVuSans-37" transform="translate(2659.769531 0)"/>
     <use xlink:href="#DejaVuSans-33" transform="translate(2723.392578 0)"/>
     <use xlink:href="#DejaVuSans-35" transform="translate(2787.015625 0)"/>
     <use xlink:href="#DejaVuSans-2e" transform="translate(2850.638672 0)"/>
     <use xlink:href="#DejaVuSans-31" transform="translate(2882.425781 0)"/>
     <use xlink:href="#DejaVuSans-32" transform="translate(2946.048828 0)"/>
     <use xlink:href="#DejaVuSans-39" transform="translate(3009.671875 0)"/>
     <use xlink:href="#DejaVuSans-34" transform="translate(3073.294922 0)"/>
     <use xlink:href="#DejaVuSans-39" transform="translate(3136.917969 0)"/>
     <use xlink:href="#DejaVuSans-31" transform="translate(3200.541016 0)"/>
     <use xlink:href="#DejaVuSans-32" transform="translate(3264.164062 0)"/>
    </g>
   </g>
   <g id="legend_1">
    <g id="patch_8">
     <path d="M 685.971875 64.23625 
L 846.2 64.23625 
Q 848.2 64.23625 848.2 62.23625 
L 848.2 33.88 
Q 848.2 31.88 846.2 31.88 
L 685.971875 31.88 
Q 683.971875 31.88 683.971875 33.88 
L 683.971875 62.23625 
Q 683.971875 64.23625 685.971875 64.23625 
z
" style="fill: #ffffff; opacity: 0.8; stroke: #cccccc; stroke-linejoin: miter"/>
    </g>
    <g id="line2d_15">
     <path d="M 687.971875 39.978437 
L 697.971875 39.978437 
L 707.971875 39.978437 
" style="fill: none; stroke: #0000ff; stroke-width: 1.5; stroke-linecap: square"/>
    </g>
    <g id="text_17">
     <!-- UV Intensity (normalized) -->
     <g transform="translate(715.971875 43.478437) scale(0.1 -0.1)">
      <use xlink:href="#DejaVuSans-55"/>
      <use xlink:href="#DejaVuSans-56" transform="translate(73.193359 0)"/>
      <use xlink:href="#DejaVuSans-20" transform="translate(141.601562 0)"/>
      <use xlink:href="#DejaVuSans-49" transform="translate(173.388672 0)"/>
      <use xlink:href="#DejaVuSans-6e" transform="translate(202.880859 0)"/>
      <use xlink:href="#DejaVuSans-74" transform="translate(266.259766 0)"/>
      <use xlink:href="#DejaVuSans-65" transform="translate(305.46875 0)"/>
      <use xlink:href="#DejaVuSans-6e" transform="translate(366.992188 0)"/>
      <use xlink:href="#DejaVuSans-73" transform="translate(430.371094 0)"/>
      <use xlink:href="#DejaVuSans-69" transform="translate(482.470703 0)"/>
      <use xlink:href="#DejaVuSans-74" transform="translate(510.253906 0)"/>
      <use xlink:href="#DejaVuSans-79" transform="translate(549.462891 0)"/>
      <use xlink:href="#DejaVuSans-20" transform="translate(608.642578 0)"/>
      <use xlink:href="#DejaVuSans-28" transform="translate(640.429688 0)"/>
      <use xlink:href="#DejaVuSans-6e" transform="translate(679.443359 0)"/>
      <use xlink:href="#DejaVuSans-6f" transform="translate(742.822266 0)"/>
      <use xlink:href="#DejaVuSans-72" transform="translate(804.003906 0)"/>
      <use xlink:href="#DejaVuSans-6d" transform="translate(843.367188 0)"/>
      <use xlink:href="#DejaVuSans-61" transform="translate(940.779297 0)"/>
      <use xlink:href="#DejaVuSans-6c" transform="translate(1002.058594 0)"/>
      <use xlink:href="#DejaVuSans-69" transform="translate(1029.841797 0)"/>
      <use xlink:href="#DejaVuSans-7a" transform="translate(1057.625 0)"/>
      <use xlink:href="#DejaVuSans-65" transform="translate(1110.115234 0)"/>
      <use xlink:href="#DejaVuSans-64" transform="translate(1171.638672 0)"/>
      <use xlink:href="#DejaVuSans-29" transform="translate(1235.115234 0)"/>
     </g>
    </g>
    <g id="line2d_16">
     <path d="M 687.971875 54.656562 
L 697.971875 54.656562 
L 707.971875 54.656562 
" style="fill: none; stroke: #008000; stroke-width: 1.5; stroke-linecap: square"/>
    </g>
    <g id="text_18">
     <!-- MS Intensity (normalized) -->
     <g transform="translate(715.971875 58.156562) scale(0.1 -0.1)">
      <use xlink:href="#DejaVuSans-4d"/>
      <use xlink:href="#DejaVuSans-53" transform="translate(86.279297 0)"/>
      <use xlink:href="#DejaVuSans-20" transform="translate(149.755859 0)"/>
      <use xlink:href="#DejaVuSans-49" transform="translate(181.542969 0)"/>
      <use xlink:href="#DejaVuSans-6e" transform="translate(211.035156 0)"/>
      <use xlink:href="#DejaVuSans-74" transform="translate(274.414062 0)"/>
      <use xlink:href="#DejaVuSans-65" transform="translate(313.623047 0)"/>
      <use xlink:href="#DejaVuSans-6e" transform="translate(375.146484 0)"/>
      <use xlink:href="#DejaVuSans-73" transform="translate(438.525391 0)"/>
      <use xlink:href="#DejaVuSans-69" transform="translate(490.625 0)"/>
      <use xlink:href="#DejaVuSans-74" transform="translate(518.408203 0)"/>
      <use xlink:href="#DejaVuSans-79" transform="translate(557.617188 0)"/>
      <use xlink:href="#DejaVuSans-20" transform="translate(616.796875 0)"/>
      <use xlink:href="#DejaVuSans-28" transform="translate(648.583984 0)"/>
      <use xlink:href="#DejaVuSans-6e" transform="translate(687.597656 0)"/>
      <use xlink:href="#DejaVuSans-6f" transform="translate(750.976562 0)"/>
      <use xlink:href="#DejaVuSans-72" transform="translate(812.158203 0)"/>
      <use xlink:href="#DejaVuSans-6d" transform="translate(851.521484 0)"/>
      <use xlink:href="#DejaVuSans-61" transform="translate(948.933594 0)"/>
      <use xlink:href="#DejaVuSans-6c" transform="translate(1010.212891 0)"/>
      <use xlink:href="#DejaVuSans-69" transform="translate(1037.996094 0)"/>
      <use xlink:href="#DejaVuSans-7a" transform="translate(1065.779297 0)"/>
      <use xlink:href="#DejaVuSans-65" transform="translate(1118.269531 0)"/>
      <use xlink:href="#DejaVuSans-64" transform="translate(1179.792969 0)"/>
      <use xlink:href="#DejaVuSans-29" transform="translate(1243.269531 0)"/>
     </g>
    </g>
   </g>
  </g>
 </g>
 <defs>
  <clipPath id="pb81e693dfa">
   <rect x="47.72" y="26.88" width="805.48" height="507.16"/>
  </clipPath>
 </defs>
</svg>
