<?xml version="1.0" encoding="utf-8" standalone="no"?>
<!DOCTYPE svg PUBLIC "-//W3C//DTD SVG 1.1//EN"
  "http://www.w3.org/Graphics/SVG/1.1/DTD/svg11.dtd">
<svg xmlns:xlink="http://www.w3.org/1999/xlink" width="864pt" height="576pt" viewBox="0 0 864 576" xmlns="http://www.w3.org/2000/svg" version="1.1">
 <metadata>
  <rdf:RDF xmlns:dc="http://purl.org/dc/elements/1.1/" xmlns:cc="http://creativecommons.org/ns#" xmlns:rdf="http://www.w3.org/1999/02/22-rdf-syntax-ns#">
   <cc:Work>
    <dc:type rdf:resource="http://purl.org/dc/dcmitype/StillImage"/>
    <dc:date>2025-02-06T14:58:07.693035</dc:date>
    <dc:format>image/svg+xml</dc:format>
    <dc:creator>
     <cc:Agent>
      <dc:title>Matplotlib v3.10.0, https://matplotlib.org/</dc:title>
     </cc:Agent>
    </dc:creator>
   </cc:Work>
  </rdf:RDF>
 </metadata>
 <defs>
  <style type="text/css">*{stroke-linejoin: round; stroke-linecap: butt}</style>
 </defs>
 <g id="figure_1">
  <g id="patch_1">
   <path d="M 0 576 
L 864 576 
L 864 0 
L 0 0 
z
" style="fill: #ffffff"/>
  </g>
  <g id="axes_1">
   <g id="patch_2">
    <path d="M 47.72 534.04 
L 853.2 534.04 
L 853.2 26.88 
L 47.72 26.88 
z
" style="fill: #ffffff"/>
   </g>
   <g id="matplotlib.axis_1">
    <g id="xtick_1">
     <g id="line2d_1">
      <defs>
       <path id="m8e6924a62a" d="M 0 0 
L 0 3.5 
" style="stroke: #000000; stroke-width: 0.8"/>
      </defs>
      <g>
       <use xlink:href="#m8e6924a62a" x="83.093151" y="534.04" style="stroke: #000000; stroke-width: 0.8"/>
      </g>
     </g>
     <g id="text_1">
      <!-- 0 -->
      <g transform="translate(79.911901 548.638438) scale(0.1 -0.1)">
       <defs>
        <path id="DejaVuSans-30" d="M 2034 4250 
Q 1547 4250 1301 3770 
Q 1056 3291 1056 2328 
Q 1056 1369 1301 889 
Q 1547 409 2034 409 
Q 2525 409 2770 889 
Q 3016 1369 3016 2328 
Q 3016 3291 2770 3770 
Q 2525 4250 2034 4250 
z
M 2034 4750 
Q 2819 4750 3233 4129 
Q 3647 3509 3647 2328 
Q 3647 1150 3233 529 
Q 2819 -91 2034 -91 
Q 1250 -91 836 529 
Q 422 1150 422 2328 
Q 422 3509 836 4129 
Q 1250 4750 2034 4750 
z
" transform="scale(0.015625)"/>
       </defs>
       <use xlink:href="#DejaVuSans-30"/>
      </g>
     </g>
    </g>
    <g id="xtick_2">
     <g id="line2d_2">
      <g>
       <use xlink:href="#m8e6924a62a" x="229.788553" y="534.04" style="stroke: #000000; stroke-width: 0.8"/>
      </g>
     </g>
     <g id="text_2">
      <!-- 1 -->
      <g transform="translate(226.607303 548.638438) scale(0.1 -0.1)">
       <defs>
        <path id="DejaVuSans-31" d="M 794 531 
L 1825 531 
L 1825 4091 
L 703 3866 
L 703 4441 
L 1819 4666 
L 2450 4666 
L 2450 531 
L 3481 531 
L 3481 0 
L 794 0 
L 794 531 
z
" transform="scale(0.015625)"/>
       </defs>
       <use xlink:href="#DejaVuSans-31"/>
      </g>
     </g>
    </g>
    <g id="xtick_3">
     <g id="line2d_3">
      <g>
       <use xlink:href="#m8e6924a62a" x="376.483954" y="534.04" style="stroke: #000000; stroke-width: 0.8"/>
      </g>
     </g>
     <g id="text_3">
      <!-- 2 -->
      <g transform="translate(373.302704 548.638438) scale(0.1 -0.1)">
       <defs>
        <path id="DejaVuSans-32" d="M 1228 531 
L 3431 531 
L 3431 0 
L 469 0 
L 469 531 
Q 828 903 1448 1529 
Q 2069 2156 2228 2338 
Q 2531 2678 2651 2914 
Q 2772 3150 2772 3378 
Q 2772 3750 2511 3984 
Q 2250 4219 1831 4219 
Q 1534 4219 1204 4116 
Q 875 4013 500 3803 
L 500 4441 
Q 881 4594 1212 4672 
Q 1544 4750 1819 4750 
Q 2544 4750 2975 4387 
Q 3406 4025 3406 3419 
Q 3406 3131 3298 2873 
Q 3191 2616 2906 2266 
Q 2828 2175 2409 1742 
Q 1991 1309 1228 531 
z
" transform="scale(0.015625)"/>
       </defs>
       <use xlink:href="#DejaVuSans-32"/>
      </g>
     </g>
    </g>
    <g id="xtick_4">
     <g id="line2d_4">
      <g>
       <use xlink:href="#m8e6924a62a" x="523.179355" y="534.04" style="stroke: #000000; stroke-width: 0.8"/>
      </g>
     </g>
     <g id="text_4">
      <!-- 3 -->
      <g transform="translate(519.998105 548.638438) scale(0.1 -0.1)">
       <defs>
        <path id="DejaVuSans-33" d="M 2597 2516 
Q 3050 2419 3304 2112 
Q 3559 1806 3559 1356 
Q 3559 666 3084 287 
Q 2609 -91 1734 -91 
Q 1441 -91 1130 -33 
Q 819 25 488 141 
L 488 750 
Q 750 597 1062 519 
Q 1375 441 1716 441 
Q 2309 441 2620 675 
Q 2931 909 2931 1356 
Q 2931 1769 2642 2001 
Q 2353 2234 1838 2234 
L 1294 2234 
L 1294 2753 
L 1863 2753 
Q 2328 2753 2575 2939 
Q 2822 3125 2822 3475 
Q 2822 3834 2567 4026 
Q 2313 4219 1838 4219 
Q 1578 4219 1281 4162 
Q 984 4106 628 3988 
L 628 4550 
Q 988 4650 1302 4700 
Q 1616 4750 1894 4750 
Q 2613 4750 3031 4423 
Q 3450 4097 3450 3541 
Q 3450 3153 3228 2886 
Q 3006 2619 2597 2516 
z
" transform="scale(0.015625)"/>
       </defs>
       <use xlink:href="#DejaVuSans-33"/>
      </g>
     </g>
    </g>
    <g id="xtick_5">
     <g id="line2d_5">
      <g>
       <use xlink:href="#m8e6924a62a" x="669.874757" y="534.04" style="stroke: #000000; stroke-width: 0.8"/>
      </g>
     </g>
     <g id="text_5">
      <!-- 4 -->
      <g transform="translate(666.693507 548.638438) scale(0.1 -0.1)">
       <defs>
        <path id="DejaVuSans-34" d="M 2419 4116 
L 825 1625 
L 2419 1625 
L 2419 4116 
z
M 2253 4666 
L 3047 4666 
L 3047 1625 
L 3713 1625 
L 3713 1100 
L 3047 1100 
L 3047 0 
L 2419 0 
L 2419 1100 
L 313 1100 
L 313 1709 
L 2253 4666 
z
" transform="scale(0.015625)"/>
       </defs>
       <use xlink:href="#DejaVuSans-34"/>
      </g>
     </g>
    </g>
    <g id="xtick_6">
     <g id="line2d_6">
      <g>
       <use xlink:href="#m8e6924a62a" x="816.570158" y="534.04" style="stroke: #000000; stroke-width: 0.8"/>
      </g>
     </g>
     <g id="text_6">
      <!-- 5 -->
      <g transform="translate(813.388908 548.638438) scale(0.1 -0.1)">
       <defs>
        <path id="DejaVuSans-35" d="M 691 4666 
L 3169 4666 
L 3169 4134 
L 1269 4134 
L 1269 2991 
Q 1406 3038 1543 3061 
Q 1681 3084 1819 3084 
Q 2600 3084 3056 2656 
Q 3513 2228 3513 1497 
Q 3513 744 3044 326 
Q 2575 -91 1722 -91 
Q 1428 -91 1123 -41 
Q 819 9 494 109 
L 494 744 
Q 775 591 1075 516 
Q 1375 441 1709 441 
Q 2250 441 2565 725 
Q 2881 1009 2881 1497 
Q 2881 1984 2565 2268 
Q 2250 2553 1709 2553 
Q 1456 2553 1204 2497 
Q 953 2441 691 2322 
L 691 4666 
z
" transform="scale(0.015625)"/>
       </defs>
       <use xlink:href="#DejaVuSans-35"/>
      </g>
     </g>
    </g>
    <g id="text_7">
     <!-- Retention Time (min) -->
     <g transform="translate(397.61 562.316562) scale(0.1 -0.1)">
      <defs>
       <path id="DejaVuSans-52" d="M 2841 2188 
Q 3044 2119 3236 1894 
Q 3428 1669 3622 1275 
L 4263 0 
L 3584 0 
L 2988 1197 
Q 2756 1666 2539 1819 
Q 2322 1972 1947 1972 
L 1259 1972 
L 1259 0 
L 628 0 
L 628 4666 
L 2053 4666 
Q 2853 4666 3247 4331 
Q 3641 3997 3641 3322 
Q 3641 2881 3436 2590 
Q 3231 2300 2841 2188 
z
M 1259 4147 
L 1259 2491 
L 2053 2491 
Q 2509 2491 2742 2702 
Q 2975 2913 2975 3322 
Q 2975 3731 2742 3939 
Q 2509 4147 2053 4147 
L 1259 4147 
z
" transform="scale(0.015625)"/>
       <path id="DejaVuSans-65" d="M 3597 1894 
L 3597 1613 
L 953 1613 
Q 991 1019 1311 708 
Q 1631 397 2203 397 
Q 2534 397 2845 478 
Q 3156 559 3463 722 
L 3463 178 
Q 3153 47 2828 -22 
Q 2503 -91 2169 -91 
Q 1331 -91 842 396 
Q 353 884 353 1716 
Q 353 2575 817 3079 
Q 1281 3584 2069 3584 
Q 2775 3584 3186 3129 
Q 3597 2675 3597 1894 
z
M 3022 2063 
Q 3016 2534 2758 2815 
Q 2500 3097 2075 3097 
Q 1594 3097 1305 2825 
Q 1016 2553 972 2059 
L 3022 2063 
z
" transform="scale(0.015625)"/>
       <path id="DejaVuSans-74" d="M 1172 4494 
L 1172 3500 
L 2356 3500 
L 2356 3053 
L 1172 3053 
L 1172 1153 
Q 1172 725 1289 603 
Q 1406 481 1766 481 
L 2356 481 
L 2356 0 
L 1766 0 
Q 1100 0 847 248 
Q 594 497 594 1153 
L 594 3053 
L 172 3053 
L 172 3500 
L 594 3500 
L 594 4494 
L 1172 4494 
z
" transform="scale(0.015625)"/>
       <path id="DejaVuSans-6e" d="M 3513 2113 
L 3513 0 
L 2938 0 
L 2938 2094 
Q 2938 2591 2744 2837 
Q 2550 3084 2163 3084 
Q 1697 3084 1428 2787 
Q 1159 2491 1159 1978 
L 1159 0 
L 581 0 
L 581 3500 
L 1159 3500 
L 1159 2956 
Q 1366 3272 1645 3428 
Q 1925 3584 2291 3584 
Q 2894 3584 3203 3211 
Q 3513 2838 3513 2113 
z
" transform="scale(0.015625)"/>
       <path id="DejaVuSans-69" d="M 603 3500 
L 1178 3500 
L 1178 0 
L 603 0 
L 603 3500 
z
M 603 4863 
L 1178 4863 
L 1178 4134 
L 603 4134 
L 603 4863 
z
" transform="scale(0.015625)"/>
       <path id="DejaVuSans-6f" d="M 1959 3097 
Q 1497 3097 1228 2736 
Q 959 2375 959 1747 
Q 959 1119 1226 758 
Q 1494 397 1959 397 
Q 2419 397 2687 759 
Q 2956 1122 2956 1747 
Q 2956 2369 2687 2733 
Q 2419 3097 1959 3097 
z
M 1959 3584 
Q 2709 3584 3137 3096 
Q 3566 2609 3566 1747 
Q 3566 888 3137 398 
Q 2709 -91 1959 -91 
Q 1206 -91 779 398 
Q 353 888 353 1747 
Q 353 2609 779 3096 
Q 1206 3584 1959 3584 
z
" transform="scale(0.015625)"/>
       <path id="DejaVuSans-20" transform="scale(0.015625)"/>
       <path id="DejaVuSans-54" d="M -19 4666 
L 3928 4666 
L 3928 4134 
L 2272 4134 
L 2272 0 
L 1638 0 
L 1638 4134 
L -19 4134 
L -19 4666 
z
" transform="scale(0.015625)"/>
       <path id="DejaVuSans-6d" d="M 3328 2828 
Q 3544 3216 3844 3400 
Q 4144 3584 4550 3584 
Q 5097 3584 5394 3201 
Q 5691 2819 5691 2113 
L 5691 0 
L 5113 0 
L 5113 2094 
Q 5113 2597 4934 2840 
Q 4756 3084 4391 3084 
Q 3944 3084 3684 2787 
Q 3425 2491 3425 1978 
L 3425 0 
L 2847 0 
L 2847 2094 
Q 2847 2600 2669 2842 
Q 2491 3084 2119 3084 
Q 1678 3084 1418 2786 
Q 1159 2488 1159 1978 
L 1159 0 
L 581 0 
L 581 3500 
L 1159 3500 
L 1159 2956 
Q 1356 3278 1631 3431 
Q 1906 3584 2284 3584 
Q 2666 3584 2933 3390 
Q 3200 3197 3328 2828 
z
" transform="scale(0.015625)"/>
       <path id="DejaVuSans-28" d="M 1984 4856 
Q 1566 4138 1362 3434 
Q 1159 2731 1159 2009 
Q 1159 1288 1364 580 
Q 1569 -128 1984 -844 
L 1484 -844 
Q 1016 -109 783 600 
Q 550 1309 550 2009 
Q 550 2706 781 3412 
Q 1013 4119 1484 4856 
L 1984 4856 
z
" transform="scale(0.015625)"/>
       <path id="DejaVuSans-29" d="M 513 4856 
L 1013 4856 
Q 1481 4119 1714 3412 
Q 1947 2706 1947 2009 
Q 1947 1309 1714 600 
Q 1481 -109 1013 -844 
L 513 -844 
Q 928 -128 1133 580 
Q 1338 1288 1338 2009 
Q 1338 2731 1133 3434 
Q 928 4138 513 4856 
z
" transform="scale(0.015625)"/>
      </defs>
      <use xlink:href="#DejaVuSans-52"/>
      <use xlink:href="#DejaVuSans-65" transform="translate(64.982422 0)"/>
      <use xlink:href="#DejaVuSans-74" transform="translate(126.505859 0)"/>
      <use xlink:href="#DejaVuSans-65" transform="translate(165.714844 0)"/>
      <use xlink:href="#DejaVuSans-6e" transform="translate(227.238281 0)"/>
      <use xlink:href="#DejaVuSans-74" transform="translate(290.617188 0)"/>
      <use xlink:href="#DejaVuSans-69" transform="translate(329.826172 0)"/>
      <use xlink:href="#DejaVuSans-6f" transform="translate(357.609375 0)"/>
      <use xlink:href="#DejaVuSans-6e" transform="translate(418.791016 0)"/>
      <use xlink:href="#DejaVuSans-20" transform="translate(482.169922 0)"/>
      <use xlink:href="#DejaVuSans-54" transform="translate(513.957031 0)"/>
      <use xlink:href="#DejaVuSans-69" transform="translate(571.916016 0)"/>
      <use xlink:href="#DejaVuSans-6d" transform="translate(599.699219 0)"/>
      <use xlink:href="#DejaVuSans-65" transform="translate(697.111328 0)"/>
      <use xlink:href="#DejaVuSans-20" transform="translate(758.634766 0)"/>
      <use xlink:href="#DejaVuSans-28" transform="translate(790.421875 0)"/>
      <use xlink:href="#DejaVuSans-6d" transform="translate(829.435547 0)"/>
      <use xlink:href="#DejaVuSans-69" transform="translate(926.847656 0)"/>
      <use xlink:href="#DejaVuSans-6e" transform="translate(954.630859 0)"/>
      <use xlink:href="#DejaVuSans-29" transform="translate(1018.009766 0)"/>
     </g>
    </g>
   </g>
   <g id="matplotlib.axis_2">
    <g id="ytick_1">
     <g id="line2d_7">
      <defs>
       <path id="mb40c38ed60" d="M 0 0 
L -3.5 0 
" style="stroke: #000000; stroke-width: 0.8"/>
      </defs>
      <g>
       <use xlink:href="#mb40c38ed60" x="47.72" y="510.987272" style="stroke: #000000; stroke-width: 0.8"/>
      </g>
     </g>
     <g id="text_8">
      <!-- 0.0 -->
      <g style="fill: #0000ff" transform="translate(24.816875 514.786491) scale(0.1 -0.1)">
       <defs>
        <path id="DejaVuSans-2e" d="M 684 794 
L 1344 794 
L 1344 0 
L 684 0 
L 684 794 
z
" transform="scale(0.015625)"/>
       </defs>
       <use xlink:href="#DejaVuSans-30"/>
       <use xlink:href="#DejaVuSans-2e" transform="translate(63.623047 0)"/>
       <use xlink:href="#DejaVuSans-30" transform="translate(95.410156 0)"/>
      </g>
     </g>
    </g>
    <g id="ytick_2">
     <g id="line2d_8">
      <g>
       <use xlink:href="#mb40c38ed60" x="47.72" y="418.776363" style="stroke: #000000; stroke-width: 0.8"/>
      </g>
     </g>
     <g id="text_9">
      <!-- 0.5 -->
      <g style="fill: #0000ff" transform="translate(24.816875 422.575582) scale(0.1 -0.1)">
       <use xlink:href="#DejaVuSans-30"/>
       <use xlink:href="#DejaVuSans-2e" transform="translate(63.623047 0)"/>
       <use xlink:href="#DejaVuSans-35" transform="translate(95.410156 0)"/>
      </g>
     </g>
    </g>
    <g id="ytick_3">
     <g id="line2d_9">
      <g>
       <use xlink:href="#mb40c38ed60" x="47.72" y="326.565454" style="stroke: #000000; stroke-width: 0.8"/>
      </g>
     </g>
     <g id="text_10">
      <!-- 1.0 -->
      <g style="fill: #0000ff" transform="translate(24.816875 330.364673) scale(0.1 -0.1)">
       <use xlink:href="#DejaVuSans-31"/>
       <use xlink:href="#DejaVuSans-2e" transform="translate(63.623047 0)"/>
       <use xlink:href="#DejaVuSans-30" transform="translate(95.410156 0)"/>
      </g>
     </g>
    </g>
    <g id="ytick_4">
     <g id="line2d_10">
      <g>
       <use xlink:href="#mb40c38ed60" x="47.72" y="234.354545" style="stroke: #000000; stroke-width: 0.8"/>
      </g>
     </g>
     <g id="text_11">
      <!-- 1.5 -->
      <g style="fill: #0000ff" transform="translate(24.816875 238.153764) scale(0.1 -0.1)">
       <use xlink:href="#DejaVuSans-31"/>
       <use xlink:href="#DejaVuSans-2e" transform="translate(63.623047 0)"/>
       <use xlink:href="#DejaVuSans-35" transform="translate(95.410156 0)"/>
      </g>
     </g>
    </g>
    <g id="ytick_5">
     <g id="line2d_11">
      <g>
       <use xlink:href="#mb40c38ed60" x="47.72" y="142.143636" style="stroke: #000000; stroke-width: 0.8"/>
      </g>
     </g>
     <g id="text_12">
      <!-- 2.0 -->
      <g style="fill: #0000ff" transform="translate(24.816875 145.942855) scale(0.1 -0.1)">
       <use xlink:href="#DejaVuSans-32"/>
       <use xlink:href="#DejaVuSans-2e" transform="translate(63.623047 0)"/>
       <use xlink:href="#DejaVuSans-30" transform="translate(95.410156 0)"/>
      </g>
     </g>
    </g>
    <g id="ytick_6">
     <g id="line2d_12">
      <g>
       <use xlink:href="#mb40c38ed60" x="47.72" y="49.932727" style="stroke: #000000; stroke-width: 0.8"/>
      </g>
     </g>
     <g id="text_13">
      <!-- 2.5 -->
      <g style="fill: #0000ff" transform="translate(24.816875 53.731946) scale(0.1 -0.1)">
       <use xlink:href="#DejaVuSans-32"/>
       <use xlink:href="#DejaVuSans-2e" transform="translate(63.623047 0)"/>
       <use xlink:href="#DejaVuSans-35" transform="translate(95.410156 0)"/>
      </g>
     </g>
    </g>
    <g id="text_14">
     <!-- Normalized Intensity -->
     <g style="fill: #0000ff" transform="translate(18.737187 332.167031) rotate(-90) scale(0.1 -0.1)">
      <defs>
       <path id="DejaVuSans-4e" d="M 628 4666 
L 1478 4666 
L 3547 763 
L 3547 4666 
L 4159 4666 
L 4159 0 
L 3309 0 
L 1241 3903 
L 1241 0 
L 628 0 
L 628 4666 
z
" transform="scale(0.015625)"/>
       <path id="DejaVuSans-72" d="M 2631 2963 
Q 2534 3019 2420 3045 
Q 2306 3072 2169 3072 
Q 1681 3072 1420 2755 
Q 1159 2438 1159 1844 
L 1159 0 
L 581 0 
L 581 3500 
L 1159 3500 
L 1159 2956 
Q 1341 3275 1631 3429 
Q 1922 3584 2338 3584 
Q 2397 3584 2469 3576 
Q 2541 3569 2628 3553 
L 2631 2963 
z
" transform="scale(0.015625)"/>
       <path id="DejaVuSans-61" d="M 2194 1759 
Q 1497 1759 1228 1600 
Q 959 1441 959 1056 
Q 959 750 1161 570 
Q 1363 391 1709 391 
Q 2188 391 2477 730 
Q 2766 1069 2766 1631 
L 2766 1759 
L 2194 1759 
z
M 3341 1997 
L 3341 0 
L 2766 0 
L 2766 531 
Q 2569 213 2275 61 
Q 1981 -91 1556 -91 
Q 1019 -91 701 211 
Q 384 513 384 1019 
Q 384 1609 779 1909 
Q 1175 2209 1959 2209 
L 2766 2209 
L 2766 2266 
Q 2766 2663 2505 2880 
Q 2244 3097 1772 3097 
Q 1472 3097 1187 3025 
Q 903 2953 641 2809 
L 641 3341 
Q 956 3463 1253 3523 
Q 1550 3584 1831 3584 
Q 2591 3584 2966 3190 
Q 3341 2797 3341 1997 
z
" transform="scale(0.015625)"/>
       <path id="DejaVuSans-6c" d="M 603 4863 
L 1178 4863 
L 1178 0 
L 603 0 
L 603 4863 
z
" transform="scale(0.015625)"/>
       <path id="DejaVuSans-7a" d="M 353 3500 
L 3084 3500 
L 3084 2975 
L 922 459 
L 3084 459 
L 3084 0 
L 275 0 
L 275 525 
L 2438 3041 
L 353 3041 
L 353 3500 
z
" transform="scale(0.015625)"/>
       <path id="DejaVuSans-64" d="M 2906 2969 
L 2906 4863 
L 3481 4863 
L 3481 0 
L 2906 0 
L 2906 525 
Q 2725 213 2448 61 
Q 2172 -91 1784 -91 
Q 1150 -91 751 415 
Q 353 922 353 1747 
Q 353 2572 751 3078 
Q 1150 3584 1784 3584 
Q 2172 3584 2448 3432 
Q 2725 3281 2906 2969 
z
M 947 1747 
Q 947 1113 1208 752 
Q 1469 391 1925 391 
Q 2381 391 2643 752 
Q 2906 1113 2906 1747 
Q 2906 2381 2643 2742 
Q 2381 3103 1925 3103 
Q 1469 3103 1208 2742 
Q 947 2381 947 1747 
z
" transform="scale(0.015625)"/>
       <path id="DejaVuSans-49" d="M 628 4666 
L 1259 4666 
L 1259 0 
L 628 0 
L 628 4666 
z
" transform="scale(0.015625)"/>
       <path id="DejaVuSans-73" d="M 2834 3397 
L 2834 2853 
Q 2591 2978 2328 3040 
Q 2066 3103 1784 3103 
Q 1356 3103 1142 2972 
Q 928 2841 928 2578 
Q 928 2378 1081 2264 
Q 1234 2150 1697 2047 
L 1894 2003 
Q 2506 1872 2764 1633 
Q 3022 1394 3022 966 
Q 3022 478 2636 193 
Q 2250 -91 1575 -91 
Q 1294 -91 989 -36 
Q 684 19 347 128 
L 347 722 
Q 666 556 975 473 
Q 1284 391 1588 391 
Q 1994 391 2212 530 
Q 2431 669 2431 922 
Q 2431 1156 2273 1281 
Q 2116 1406 1581 1522 
L 1381 1569 
Q 847 1681 609 1914 
Q 372 2147 372 2553 
Q 372 3047 722 3315 
Q 1072 3584 1716 3584 
Q 2034 3584 2315 3537 
Q 2597 3491 2834 3397 
z
" transform="scale(0.015625)"/>
       <path id="DejaVuSans-79" d="M 2059 -325 
Q 1816 -950 1584 -1140 
Q 1353 -1331 966 -1331 
L 506 -1331 
L 506 -850 
L 844 -850 
Q 1081 -850 1212 -737 
Q 1344 -625 1503 -206 
L 1606 56 
L 191 3500 
L 800 3500 
L 1894 763 
L 2988 3500 
L 3597 3500 
L 2059 -325 
z
" transform="scale(0.015625)"/>
      </defs>
      <use xlink:href="#DejaVuSans-4e"/>
      <use xlink:href="#DejaVuSans-6f" transform="translate(74.804688 0)"/>
      <use xlink:href="#DejaVuSans-72" transform="translate(135.986328 0)"/>
      <use xlink:href="#DejaVuSans-6d" transform="translate(175.349609 0)"/>
      <use xlink:href="#DejaVuSans-61" transform="translate(272.761719 0)"/>
      <use xlink:href="#DejaVuSans-6c" transform="translate(334.041016 0)"/>
      <use xlink:href="#DejaVuSans-69" transform="translate(361.824219 0)"/>
      <use xlink:href="#DejaVuSans-7a" transform="translate(389.607422 0)"/>
      <use xlink:href="#DejaVuSans-65" transform="translate(442.097656 0)"/>
      <use xlink:href="#DejaVuSans-64" transform="translate(503.621094 0)"/>
      <use xlink:href="#DejaVuSans-20" transform="translate(567.097656 0)"/>
      <use xlink:href="#DejaVuSans-49" transform="translate(598.884766 0)"/>
      <use xlink:href="#DejaVuSans-6e" transform="translate(628.376953 0)"/>
      <use xlink:href="#DejaVuSans-74" transform="translate(691.755859 0)"/>
      <use xlink:href="#DejaVuSans-65" transform="translate(730.964844 0)"/>
      <use xlink:href="#DejaVuSans-6e" transform="translate(792.488281 0)"/>
      <use xlink:href="#DejaVuSans-73" transform="translate(855.867188 0)"/>
      <use xlink:href="#DejaVuSans-69" transform="translate(907.966797 0)"/>
      <use xlink:href="#DejaVuSans-74" transform="translate(935.75 0)"/>
      <use xlink:href="#DejaVuSans-79" transform="translate(974.958984 0)"/>
     </g>
    </g>
   </g>
   <g id="line2d_13">
    <path d="M 84.332727 510.987273 
L 89.222574 510.880246 
L 95.334882 510.545202 
L 99.002267 509.905688 
L 101.447191 509.709728 
L 107.559499 509.521102 
L 111.226884 509.622769 
L 121.006578 510.052054 
L 128.341348 510.077563 
L 139.343503 509.889996 
L 144.23335 509.693102 
L 145.455811 508.721062 
L 146.678273 505.274368 
L 147.900735 497.822299 
L 150.345658 477.303287 
L 151.56812 472.107702 
L 152.790581 473.153823 
L 154.013043 478.931995 
L 156.457966 493.528216 
L 157.680428 498.622224 
L 158.90289 501.727924 
L 160.125351 503.353987 
L 161.347813 504.120709 
L 162.570275 504.437029 
L 163.792736 504.370484 
L 165.015198 503.77077 
L 166.23766 502.57197 
L 168.682583 499.341169 
L 169.905045 497.98569 
L 171.127506 497.039894 
L 172.349968 496.490543 
L 173.57243 496.271857 
L 174.794891 496.351304 
L 176.017353 496.773273 
L 177.239815 497.624321 
L 178.462277 498.936558 
L 182.129662 504.016543 
L 183.352123 505.156426 
L 184.574585 505.832429 
L 185.797047 506.378995 
L 189.464432 508.540309 
L 190.686893 508.400359 
L 191.909355 507.633022 
L 193.131817 506.693882 
L 194.354278 506.039967 
L 195.57674 505.877261 
L 196.799202 506.161328 
L 200.466587 507.819009 
L 201.689048 508.142945 
L 202.91151 508.293785 
L 212.691204 508.476905 
L 215.136127 508.392381 
L 217.58105 508.023575 
L 220.025974 507.505352 
L 221.248435 507.416371 
L 222.470897 507.519279 
L 228.583205 508.7012 
L 231.028129 508.741487 
L 237.140437 508.596048 
L 238.362899 508.40356 
L 240.807822 507.584751 
L 242.030284 507.171492 
L 243.252745 506.96885 
L 244.475207 507.044776 
L 246.920131 507.751855 
L 249.365054 508.468389 
L 251.809977 508.858165 
L 255.477362 509.121145 
L 261.589671 509.333532 
L 270.146902 509.39765 
L 276.259211 509.428382 
L 286.038904 509.465631 
L 289.706289 509.218585 
L 294.596136 508.896132 
L 298.263521 508.860798 
L 309.265676 509.026269 
L 311.710599 508.779632 
L 316.600446 507.822597 
L 317.822908 507.778682 
L 320.267831 508.080893 
L 323.935216 508.772044 
L 326.38014 508.964774 
L 336.159833 509.146252 
L 338.604756 509.155004 
L 339.827218 509.056896 
L 341.04968 508.777349 
L 342.272141 508.252751 
L 344.717065 506.683149 
L 345.939526 505.884252 
L 347.161988 505.225792 
L 348.38445 504.76743 
L 349.606912 504.518747 
L 350.829373 504.464823 
L 353.274297 504.804808 
L 355.71922 505.228203 
L 358.164143 505.606158 
L 360.609067 506.309368 
L 363.05399 507.030877 
L 365.498913 507.471864 
L 367.943837 507.642102 
L 369.166298 507.609253 
L 370.38876 507.098888 
L 371.611222 504.550718 
L 372.833683 497.375084 
L 374.056145 484.545411 
L 375.278607 469.276298 
L 376.501068 457.67617 
L 377.72353 454.228646 
L 378.945992 458.914875 
L 381.390915 477.806317 
L 382.613377 485.11727 
L 383.835839 488.916865 
L 385.0583 488.430804 
L 386.280762 482.947311 
L 387.503224 472.285811 
L 388.725685 456.908632 
L 391.170609 420.903412 
L 392.39307 410.188209 
L 393.615532 410.330992 
L 394.837994 420.764628 
L 398.505379 468.745448 
L 399.72784 479.33486 
L 400.950302 486.447758 
L 402.172764 491.086806 
L 403.395225 494.180789 
L 404.617687 496.37172 
L 405.840149 498.061251 
L 407.06261 499.481929 
L 408.285072 500.727514 
L 409.507534 501.795173 
L 410.729995 502.656551 
L 411.952457 503.314981 
L 414.39738 504.221187 
L 416.842304 504.838547 
L 418.064766 504.84565 
L 419.287227 504.270358 
L 420.509689 502.956692 
L 421.732151 501.275347 
L 422.954612 499.99791 
L 424.177074 499.726083 
L 425.399536 500.496749 
L 429.066921 504.505144 
L 430.289382 505.27262 
L 431.511844 505.608208 
L 432.734306 504.747521 
L 433.956767 500.431658 
L 435.179229 490.304699 
L 437.624152 461.081952 
L 438.846614 453.617519 
L 440.069076 455.409448 
L 441.291537 464.268906 
L 443.736461 486.377632 
L 444.958922 494.065889 
L 446.181384 498.791738 
L 447.403846 501.318324 
L 448.626307 502.522148 
L 449.848769 503.040862 
L 453.516154 503.707096 
L 455.961078 504.503559 
L 459.628463 505.785631 
L 462.073386 506.303192 
L 463.295848 506.378947 
L 468.185694 506.287941 
L 475.520464 507.389297 
L 480.410311 507.512738 
L 482.855234 507.32954 
L 484.077696 507.104449 
L 485.300158 506.607463 
L 486.52262 505.71089 
L 487.745081 504.56189 
L 488.967543 503.573345 
L 490.190005 503.11315 
L 491.412466 503.25893 
L 492.634928 503.836763 
L 495.079851 505.342882 
L 496.302313 505.962309 
L 497.524775 506.420351 
L 499.969698 506.927713 
L 502.414621 507.135689 
L 504.859545 507.143792 
L 506.082006 507.011862 
L 507.304468 506.711733 
L 508.52693 506.190526 
L 510.971853 504.951092 
L 512.194315 504.726642 
L 513.416776 504.926227 
L 515.8617 506.038156 
L 517.084161 506.581447 
L 518.306623 506.972707 
L 519.529085 507.17812 
L 520.751547 507.165935 
L 521.974008 506.920013 
L 524.418932 506.136388 
L 525.641393 505.935099 
L 528.086317 505.902718 
L 529.308778 504.263194 
L 530.53124 495.863701 
L 531.753702 472.554373 
L 532.976163 430.966744 
L 534.198625 380.662028 
L 535.421087 340.747145 
L 536.643548 326.565454 
L 537.86601 340.068487 
L 539.088472 371.423161 
L 540.310933 407.336497 
L 541.533395 438.16182 
L 542.755857 460.180288 
L 543.978318 474.131963 
L 545.20078 482.599375 
L 546.423242 488.055115 
L 547.645703 492.073634 
L 548.868165 495.375936 
L 550.090627 498.171928 
L 551.313088 500.458578 
L 552.53555 502.199259 
L 553.758012 503.421871 
L 554.980474 504.246396 
L 557.425397 505.323653 
L 559.87032 506.128978 
L 562.315244 506.692909 
L 568.427552 507.761505 
L 572.094937 508.149051 
L 574.53986 508.189242 
L 578.207245 507.834343 
L 579.429707 507.875465 
L 581.87463 508.283978 
L 584.319554 508.705091 
L 586.764477 508.910448 
L 594.099247 509.111479 
L 596.544171 509.040229 
L 600.211556 508.805803 
L 602.656479 508.915449 
L 607.546326 509.27057 
L 614.881096 509.403519 
L 622.215866 509.303795 
L 625.883251 509.372084 
L 629.550636 509.409244 
L 635.662944 509.507063 
L 646.665099 509.622176 
L 651.554946 509.689298 
L 658.889716 509.825591 
L 668.66941 509.861942 
L 679.671565 509.702756 
L 684.561411 509.67853 
L 720.0128 509.846373 
L 732.237417 509.909012 
L 751.796804 510.227406 
L 776.246037 510.282778 
L 814.142349 510.118812 
L 816.587273 510.070844 
L 816.587273 510.070844 
" clip-path="url(#p6e509fad28)" style="fill: none; stroke: #0000ff; stroke-width: 1.5; stroke-linecap: square"/>
   </g>
   <g id="line2d_14">
    <path d="M 89.96852 234.35002 
L 223.561333 234.345158 
L 374.512368 234.202686 
L 374.855635 234.150926 
L 374.855635 233.971436 
L 375.198169 233.956314 
L 375.198169 233.640951 
L 375.540458 233.678368 
L 375.540458 233.278135 
L 375.877613 233.397466 
L 375.877613 232.99033 
L 376.212079 233.220125 
L 376.212079 232.803791 
L 376.544344 233.172158 
L 376.544344 232.770559 
L 376.875386 233.121212 
L 376.875386 232.645316 
L 377.204962 233.030721 
L 377.204962 232.563 
L 377.539427 232.916545 
L 377.539427 232.526401 
L 377.86827 232.993229 
L 377.86827 232.655199 
L 378.196623 233.107337 
L 378.196623 232.706328 
L 378.524732 233.132606 
L 378.524732 232.702548 
L 378.85553 233.061554 
L 378.85553 232.646985 
L 379.184616 233.088588 
L 379.184616 232.621161 
L 379.512236 233.060183 
L 379.512236 232.544631 
L 379.840345 233.001197 
L 379.840345 232.571083 
L 380.168209 233.016663 
L 380.168209 232.575319 
L 380.496807 233.041154 
L 380.496807 232.637838 
L 380.82516 233.042952 
L 380.82516 232.650184 
L 381.153513 233.129933 
L 381.153513 232.668158 
L 381.482111 233.005622 
L 381.482111 232.626024 
L 381.811931 233.022179 
L 381.811931 232.6032 
L 382.140773 233.050659 
L 382.140773 232.64585 
L 382.475239 233.055011 
L 382.475239 232.640124 
L 382.804325 233.048201 
L 382.804325 232.633432 
L 383.133901 233.087014 
L 383.133901 232.623681 
L 383.463232 233.040908 
L 383.463232 232.572675 
L 383.792808 233.010423 
L 383.792808 232.666845 
L 384.123362 233.136554 
L 384.123362 232.674689 
L 384.453671 233.084727 
L 384.453671 232.747644 
L 384.784224 233.077437 
L 384.784224 232.663937 
L 385.114289 233.134486 
L 385.114289 232.763833 
L 385.444843 233.132979 
L 385.444843 232.74159 
L 385.777108 233.14986 
L 385.777108 232.787494 
L 386.439926 232.78616 
L 386.439926 232.88404 
L 386.770969 232.973788 
L 387.10299 233.425393 
L 387.10299 233.042542 
L 387.440145 233.366316 
L 387.440145 233.033531 
L 387.772899 233.343244 
L 387.772899 233.10832 
L 388.108098 233.50526 
L 388.108098 233.237159 
L 388.439629 233.578369 
L 388.439629 233.38477 
L 388.771894 233.602567 
L 388.771894 233.422937 
L 389.105137 233.699608 
L 389.105137 233.45944 
L 389.769912 233.781085 
L 389.769912 233.643442 
L 390.761573 233.788994 
L 391.091393 233.998278 
L 391.091393 233.903871 
L 391.751522 234.005843 
L 392.080365 233.993936 
L 392.742939 233.824692 
L 393.39989 233.783218 
L 393.39989 233.791501 
L 394.055863 233.980366 
L 396.023537 233.939037 
L 396.351401 234.025871 
L 396.351401 233.905234 
L 397.345507 233.856578 
L 398.00148 234.043964 
L 398.00148 233.914323 
L 398.657942 234.045445 
L 398.657942 233.949179 
L 398.986051 234.05224 
L 398.986051 233.94535 
L 399.314648 234.029015 
L 399.314648 233.893614 
L 399.643246 233.982784 
L 399.643246 233.863489 
L 400.301908 234.020954 
L 400.301908 233.827887 
L 400.630995 233.972865 
L 400.630995 233.887386 
L 401.289168 234.09429 
L 401.289168 233.971493 
L 401.6185 234.059998 
L 401.6185 233.933285 
L 401.947342 234.041359 
L 401.947342 233.983338 
L 402.942915 233.855367 
L 403.273224 233.800422 
L 404.265618 234.076909 
L 404.265618 233.972439 
L 404.92697 234.064473 
L 404.92697 233.971048 
L 405.920098 233.92062 
L 405.920098 233.934352 
L 406.587562 234.08203 
L 406.587562 234.00508 
L 407.257471 234.104289 
L 407.257471 234.022676 
L 407.922001 234.126728 
L 407.922001 234.046837 
L 410.255436 234.141273 
L 410.255436 234.071084 
L 411.260299 234.171778 
L 411.260299 234.11054 
L 414.633071 234.119595 
L 414.633071 234.130833 
L 415.312271 234.185239 
L 415.312271 234.143511 
L 416.668714 234.194487 
L 416.668714 234.144325 
L 417.355004 234.201106 
L 417.355004 234.148705 
L 418.035915 234.182075 
L 418.035915 234.131445 
L 418.715604 234.191217 
L 418.715604 234.157794 
L 420.76445 234.188287 
L 421.449028 234.248461 
L 421.449028 234.1919 
L 422.48592 234.200867 
L 422.48592 234.149117 
L 423.169765 234.141341 
L 436.762561 234.213919 
L 436.762561 234.127229 
L 437.440294 234.09012 
L 437.440294 233.937583 
L 437.777205 234.004421 
L 437.777205 233.831616 
L 438.107514 233.915321 
L 438.107514 233.776037 
L 438.4366 233.904477 
L 438.4366 233.723129 
L 438.765198 233.874866 
L 438.765198 233.668416 
L 439.093062 233.816525 
L 439.093062 233.640639 
L 440.075922 233.659968 
L 440.075922 233.655065 
L 440.403052 233.834948 
L 440.403052 233.702396 
L 440.730428 233.892681 
L 440.730428 233.658379 
L 441.06147 233.847516 
L 441.06147 233.638826 
L 441.388601 233.612778 
L 441.718421 233.457055 
L 442.045796 233.675146 
L 442.045796 233.53886 
L 442.70617 233.885406 
L 442.70617 233.740583 
L 443.690007 233.666867 
L 445.00342 233.728133 
L 445.00342 233.550036 
L 445.332018 233.754013 
L 445.332018 233.608618 
L 445.660615 233.82462 
L 445.660615 233.69699 
L 445.989213 233.876339 
L 445.989213 233.69218 
L 446.318055 233.846307 
L 446.318055 233.720801 
L 446.975984 233.976037 
L 446.975984 233.881282 
L 446.975984 234.000487 
L 447.971068 234.013679 
L 447.971068 233.893641 
L 448.300644 233.998377 
L 448.300644 233.840194 
L 449.292305 233.82589 
L 449.292305 233.886 
L 449.623103 234.024932 
L 449.623103 233.926025 
L 450.2891 234.066619 
L 450.2891 233.928688 
L 450.620387 234.028003 
L 450.620387 233.916833 
L 451.282717 234.050755 
L 451.282717 233.954957 
L 451.946269 234.068145 
L 451.946269 233.970615 
L 452.278534 234.062337 
L 452.278534 233.943838 
L 452.950154 234.039187 
L 452.950154 233.953793 
L 453.617863 234.096496 
L 453.617863 234.059426 
L 453.951351 234.166768 
L 453.951351 234.075234 
L 454.618326 234.108741 
L 454.618326 234.018055 
L 455.6227 234.144293 
L 455.6227 234.105172 
L 456.291387 234.16664 
L 456.291387 234.095681 
L 458.993516 234.090857 
L 459.671982 234.176511 
L 459.671982 234.103012 
L 460.696161 234.227602 
L 460.696161 234.171751 
L 461.036738 234.212572 
L 461.036738 234.141552 
L 463.427873 234.172178 
L 463.427873 234.173 
L 464.798253 234.227728 
L 464.798253 234.188779 
L 465.828788 234.211736 
L 465.828788 234.183759 
L 467.197945 234.174031 
L 467.197945 234.144253 
L 468.573459 234.100941 
L 470.286128 234.101218 
L 472.342064 234.148276 
L 472.342064 234.147216 
L 473.720756 234.158526 
L 474.74958 234.199222 
L 474.74958 234.172379 
L 511.453258 234.190546 
L 511.453258 234.128697 
L 512.822905 234.057681 
L 512.822905 233.987224 
L 513.50406 234.028446 
L 513.50406 233.967207 
L 514.531173 234.061842 
L 514.531173 234.010058 
L 515.21135 234.071975 
L 515.21135 234.014072 
L 516.580018 234.140973 
L 516.580018 234.110138 
L 518.983378 234.214032 
L 518.983378 234.175391 
L 521.388694 234.220792 
L 521.388694 234.187271 
L 522.761518 234.236076 
L 522.761518 234.218112 
L 524.826745 234.242283 
L 524.826745 234.208752 
L 526.197613 234.195045 
L 526.197613 234.142213 
L 526.881947 234.157337 
L 526.881947 234.091133 
L 527.566281 234.139104 
L 527.566281 234.063012 
L 528.269686 234.1143 
L 528.269686 234.055979 
L 528.611975 234.130875 
L 528.611975 234.057381 
L 529.989934 234.066051 
L 529.989934 234.012779 
L 530.674757 234.126859 
L 530.674757 234.084655 
L 531.360069 234.129134 
L 531.360069 234.066221 
L 532.387181 234.133469 
L 532.387181 234.029651 
L 532.729715 234.032 
L 532.729715 233.731382 
L 533.072004 233.611789 
L 533.072004 232.451745 
L 533.413805 232.030684 
L 533.413805 229.436306 
L 533.755116 228.629798 
L 533.755116 223.565374 
L 534.088114 222.612763 
L 534.088114 213.018153 
L 534.418424 212.565678 
L 534.418424 198.862898 
L 534.751911 200.773416 
L 534.751911 182.151801 
L 535.079775 186.344665 
L 535.079775 161.740653 
L 535.407151 169.721716 
L 535.407151 140.596032 
L 535.734037 153.885566 
L 535.734037 122.774802 
L 536.060679 141.680013 
L 536.060679 103.887216 
L 536.38732 126.703072 
L 536.38732 87.726511 
L 536.713718 117.099237 
L 536.713718 75.136 
L 537.040359 109.444953 
L 537.040359 70.535933 
L 537.367001 105.447519 
L 537.367001 64.406321 
L 537.693398 103.616 
L 537.693398 57.731758 
L 538.02004 95.522042 
L 538.02004 53.418051 
L 538.346437 91.377206 
L 538.346437 49.932727 
L 538.672835 95.88266 
L 538.672835 53.883531 
L 538.999476 95.93604 
L 538.999476 53.665691 
L 539.325874 96.025165 
L 539.325874 55.451321 
L 539.657894 97.788732 
L 539.657894 60.299765 
L 539.984536 104.002599 
L 539.984536 70.049608 
L 540.310933 112.210379 
L 540.310933 79.272596 
L 540.637575 118.187195 
L 540.637575 86.619867 
L 540.964461 123.492324 
L 540.964461 93.643953 
L 541.291103 128.396641 
L 541.291103 101.134157 
L 541.617745 136.256193 
L 541.617745 106.660426 
L 541.944387 138.18549 
L 541.944387 111.080664 
L 542.271028 142.077927 
L 542.271028 115.801835 
L 542.600604 146.28829 
L 542.600604 121.972472 
L 542.92749 152.278748 
L 542.92749 124.16609 
L 543.254866 149.820747 
L 543.254866 126.42791 
L 543.581752 152.083524 
L 543.581752 128.904952 
L 543.908638 157.627664 
L 543.908638 135.066835 
L 544.235524 159.99123 
L 544.235524 140.315606 
L 544.567789 163.894019 
L 544.567789 145.31692 
L 544.894676 169.135175 
L 544.894676 151.017475 
L 545.221806 172.282065 
L 545.221806 153.689447 
L 545.549915 173.449211 
L 545.549915 155.614301 
L 545.876801 174.305541 
L 545.876801 155.455993 
L 546.203932 174.686901 
L 546.203932 156.896895 
L 546.531552 176.694172 
L 546.531552 158.744464 
L 546.858927 177.662732 
L 546.858927 162.793828 
L 547.186302 181.579049 
L 547.186302 166.51739 
L 547.513678 185.696337 
L 547.513678 172.262827 
L 547.841053 187.782056 
L 547.841053 174.399228 
L 548.168673 189.375424 
L 548.168673 176.575592 
L 548.496292 190.542689 
L 548.496292 177.652867 
L 548.823912 191.500552 
L 548.823912 179.038939 
L 549.151532 192.127014 
L 549.151532 181.14209 
L 549.484775 194.330404 
L 549.484775 183.987146 
L 549.812395 196.651038 
L 549.812395 185.07562 
L 550.140014 196.701938 
L 550.140014 186.906986 
L 550.467878 197.8004 
L 550.467878 188.439541 
L 550.795743 200.408992 
L 550.795743 190.37287 
L 551.127274 201.391273 
L 551.127274 192.872901 
L 551.455383 203.047805 
L 551.455383 193.783572 
L 551.783736 204.293121 
L 551.783736 195.529361 
L 552.112334 204.365371 
L 552.112334 195.541453 
L 552.440687 205.53479 
L 552.440687 198.427956 
L 552.769774 207.425944 
L 552.769774 200.724552 
L 553.098372 209.875071 
L 553.098372 202.92865 
L 553.427214 210.458801 
L 553.427214 203.889462 
L 553.756056 211.556377 
L 553.756056 204.385286 
L 554.085143 211.636883 
L 554.085143 205.430382 
L 554.419608 212.329735 
L 554.419608 205.894512 
L 554.748939 213.318441 
L 554.748939 207.239921 
L 555.078515 214.069741 
L 555.078515 208.866162 
L 555.408335 215.160932 
L 555.408335 209.877024 
L 555.737666 216.274201 
L 555.737666 211.185516 
L 556.067486 216.681849 
L 556.067486 211.763181 
L 556.397796 217.450164 
L 556.397796 212.959652 
L 556.727371 218.203769 
L 556.727371 213.357525 
L 557.056947 218.555473 
L 557.056947 213.698999 
L 557.387501 218.599617 
L 557.387501 214.714701 
L 557.718299 219.87778 
L 557.718299 215.682056 
L 558.048608 220.691661 
L 558.048608 216.857712 
L 558.379406 220.845647 
L 558.379406 216.675233 
L 558.709715 221.105896 
L 558.709715 217.639661 
L 559.041002 221.863816 
L 559.041002 218.17264 
L 559.377668 222.502102 
L 559.377668 218.987009 
L 559.7092 222.735408 
L 559.7092 219.204311 
L 560.040242 223.145801 
L 560.040242 220.30354 
L 560.372263 223.943077 
L 560.372263 220.589799 
L 560.703061 224.210597 
L 560.703061 220.937144 
L 561.038749 223.780412 
L 561.038749 220.941565 
L 561.37077 224.329305 
L 561.37077 221.240265 
L 561.703035 224.73641 
L 561.703035 221.834727 
L 562.034811 224.849547 
L 562.034811 222.099887 
L 562.366831 225.128914 
L 562.366831 222.318679 
L 562.699097 225.39096 
L 562.699097 222.821732 
L 563.031851 225.648486 
L 563.031851 223.152375 
L 563.364849 225.966729 
L 563.364849 223.669285 
L 563.698826 226.277413 
L 563.698826 224.07387 
L 564.032802 226.607818 
L 564.032802 224.508439 
L 564.37118 226.856946 
L 564.37118 224.68698 
L 564.704178 227.012561 
L 564.704178 224.857494 
L 565.03791 226.949095 
L 565.03791 224.876425 
L 565.372131 227.089615 
L 565.372131 225.005683 
L 565.70733 227.369085 
L 565.70733 225.257986 
L 566.041796 227.481214 
L 566.041796 225.633338 
L 566.376506 227.917095 
L 566.376506 225.859125 
L 566.710238 228.0422 
L 566.710238 226.191851 
L 567.04617 228.115335 
L 567.04617 226.068198 
L 567.380636 228.084827 
L 567.380636 226.440002 
L 567.71559 228.34292 
L 567.71559 226.717111 
L 568.049567 228.652453 
L 568.049567 227.087506 
L 568.38501 228.944963 
L 568.38501 227.201537 
L 568.719965 228.891807 
L 568.719965 227.336404 
L 569.055897 228.936318 
L 569.055897 227.092922 
L 569.395742 228.827503 
L 569.395742 227.376356 
L 569.734364 229.194577 
L 569.734364 227.672251 
L 570.072007 229.44286 
L 570.072007 227.844197 
L 570.408673 229.273174 
L 570.408673 227.806574 
L 570.745339 229.367343 
L 570.745339 227.952182 
L 571.087629 229.66004 
L 571.087629 228.32296 
L 571.424539 229.770219 
L 571.424539 228.319861 
L 571.760472 229.837311 
L 571.760472 228.411142 
L 572.100071 229.946196 
L 572.100071 228.616823 
L 572.437471 230.09357 
L 572.437471 228.691971 
L 572.776337 230.166456 
L 572.776337 228.814594 
L 573.113981 230.168197 
L 573.113981 228.807852 
L 573.454559 230.191259 
L 573.454559 229.051829 
L 573.792692 230.330902 
L 573.792692 229.107465 
L 574.131803 230.55498 
L 574.131803 229.192573 
L 574.474336 230.343524 
L 574.474336 229.278281 
L 574.813692 230.549191 
L 574.813692 229.347962 
L 575.151336 230.764694 
L 575.151336 229.570957 
L 575.491914 230.711239 
L 575.491914 229.705047 
L 575.830046 230.855952 
L 575.830046 229.733837 
L 576.169891 230.963223 
L 576.169891 229.958026 
L 576.50729 230.868035 
L 576.50729 229.773015 
L 576.848357 230.807693 
L 576.848357 229.775797 
L 577.187468 230.794584 
L 577.187468 229.830889 
L 577.529513 230.982805 
L 577.529513 230.057443 
L 577.868379 231.107183 
L 577.868379 230.079656 
L 578.206756 231.079222 
L 578.206756 230.124558 
L 578.54929 231.135078 
L 578.54929 230.128452 
L 578.887668 231.210265 
L 578.887668 230.301594 
L 579.230201 231.333541 
L 579.230201 230.368314 
L 579.574936 231.421558 
L 579.574936 230.311309 
L 579.917225 231.244434 
L 579.917225 230.220568 
L 580.256091 231.276192 
L 580.256091 230.345142 
L 580.597158 231.469484 
L 580.597158 230.567583 
L 580.941648 231.561817 
L 580.941648 230.806644 
L 581.283692 231.702241 
L 581.283692 230.861214 
L 581.625982 231.765128 
L 581.625982 230.881226 
L 581.968516 231.643188 
L 581.968516 230.852642 
L 582.309338 231.70755 
L 582.309338 230.927509 
L 582.651627 231.813733 
L 582.651627 230.890057 
L 582.994161 231.694288 
L 582.994161 230.921073 
L 583.336695 231.780976 
L 583.336695 230.970187 
L 583.676783 231.834835 
L 583.676783 231.06813 
L 584.019806 231.812038 
L 584.019806 231.009423 
L 584.359895 231.833781 
L 584.359895 231.156068 
L 584.707808 231.951788 
L 584.707808 231.241968 
L 585.05083 231.967205 
L 585.05083 231.203498 
L 585.393609 231.895226 
L 585.393609 231.163627 
L 585.735898 231.871105 
L 585.735898 231.221886 
L 586.078676 232.023389 
L 586.078676 231.307097 
L 586.421699 232.125017 
L 586.421699 231.457073 
L 586.764722 232.151391 
L 586.764722 231.555655 
L 587.107744 232.292552 
L 587.107744 231.585 
L 587.451012 232.260489 
L 587.451012 231.555635 
L 587.79379 232.176232 
L 587.79379 231.475929 
L 588.136568 232.166136 
L 588.136568 231.492433 
L 588.479835 232.229205 
L 588.479835 231.528202 
L 588.82457 232.266405 
L 588.82457 231.500285 
L 589.167837 232.213226 
L 589.167837 231.58327 
L 589.511104 232.289138 
L 589.511104 231.730286 
L 589.859506 232.462155 
L 589.859506 231.907235 
L 590.202773 232.55553 
L 590.202773 231.958736 
L 590.54604 232.493842 
L 590.54604 231.857295 
L 590.888818 232.454644 
L 590.888818 231.88157 
L 591.232086 232.441487 
L 591.232086 231.881089 
L 591.575353 232.559094 
L 591.575353 231.92928 
L 591.91862 232.479791 
L 591.91862 232.003848 
L 592.262132 232.606535 
L 592.262132 231.976795 
L 592.605155 232.560951 
L 592.605155 231.984538 
L 592.948422 232.510797 
L 592.948422 232.011853 
L 593.291934 232.608703 
L 593.291934 232.079173 
L 593.635201 232.707204 
L 593.635201 232.196542 
L 593.978713 232.705846 
L 593.978713 232.195004 
L 594.32198 232.773367 
L 594.32198 232.231618 
L 594.665247 232.729813 
L 594.665247 232.197036 
L 595.016338 232.72218 
L 595.016338 232.241005 
L 595.359605 232.78452 
L 595.359605 232.242281 
L 595.702872 232.74307 
L 595.702872 232.296113 
L 596.04614 232.776865 
L 596.04614 232.318368 
L 596.389407 232.874154 
L 596.389407 232.47862 
L 596.733163 232.933538 
L 596.733163 232.529179 
L 597.076675 233.008369 
L 597.076675 232.511868 
L 597.420431 232.96782 
L 597.420431 232.543415 
L 597.763943 232.972427 
L 597.763943 232.505794 
L 598.107455 233.008305 
L 598.107455 232.509972 
L 598.450966 232.971663 
L 598.450966 232.527587 
L 598.794478 232.945584 
L 598.794478 232.529585 
L 599.137745 232.959659 
L 599.137745 232.56928 
L 599.481257 232.986441 
L 599.481257 232.640265 
L 599.824769 233.059784 
L 599.824769 232.75746 
L 600.178305 233.161397 
L 600.178305 232.805567 
L 600.521572 233.206564 
L 600.521572 232.809568 
L 600.864595 233.158959 
L 600.864595 232.783906 
L 601.207617 233.149132 
L 601.207617 232.812246 
L 601.55064 233.216521 
L 601.55064 232.873974 
L 601.893418 233.242826 
L 601.893418 232.904704 
L 602.236441 233.258063 
L 602.236441 232.91949 
L 602.579219 233.292148 
L 602.579219 232.994416 
L 602.921998 233.351831 
L 602.921998 232.985795 
L 603.26502 233.358367 
L 603.26502 233.041562 
L 603.607554 233.338094 
L 603.607554 233.013429 
L 603.950332 233.334008 
L 603.950332 233.001866 
L 604.293111 233.33034 
L 604.293111 232.997366 
L 604.636378 233.339155 
L 604.636378 233.006696 
L 604.979156 233.295859 
L 604.979156 232.995518 
L 605.327558 233.340898 
L 605.327558 233.003438 
L 605.67058 233.342322 
L 605.67058 233.01249 
L 606.014092 233.29341 
L 606.014092 232.952261 
L 606.357359 233.258293 
L 606.357359 232.978631 
L 606.700871 233.345952 
L 606.700871 233.059037 
L 607.043894 233.404715 
L 607.043894 233.082302 
L 607.388139 233.383822 
L 607.388139 233.048746 
L 607.731162 233.318715 
L 607.731162 232.99741 
L 608.074674 233.334588 
L 608.074674 233.029029 
L 608.417941 233.360218 
L 608.417941 233.100118 
L 608.761208 233.408035 
L 608.761208 233.167266 
L 609.104475 233.463398 
L 609.104475 233.198636 
L 609.447743 233.472512 
L 609.447743 233.185646 
L 609.791254 233.449598 
L 609.791254 233.15328 
L 610.134766 233.439691 
L 610.134766 233.174113 
L 610.483657 233.448095 
L 610.483657 233.156602 
L 610.827168 233.448352 
L 610.827168 233.158276 
L 611.17068 233.439394 
L 611.17068 233.202523 
L 611.518837 233.489547 
L 611.518837 233.267449 
L 611.862593 233.542965 
L 611.862593 233.254386 
L 612.206105 233.497329 
L 612.206105 233.202754 
L 612.549617 233.44175 
L 612.549617 233.175332 
L 612.893373 233.472732 
L 612.893373 233.21661 
L 613.237129 233.505793 
L 613.237129 233.256503 
L 613.580641 233.505002 
L 613.580641 233.186773 
L 613.924153 233.43293 
L 613.924153 233.184864 
L 614.267664 233.435701 
L 614.267664 233.183132 
L 614.611421 233.503103 
L 614.611421 233.268337 
L 614.954688 233.522952 
L 614.954688 233.287353 
L 615.298444 233.562534 
L 615.298444 233.289666 
L 615.647335 233.552734 
L 615.647335 233.265748 
L 615.992558 233.520831 
L 615.992558 233.300378 
L 616.33607 233.547599 
L 616.33607 233.318485 
L 616.679826 233.620034 
L 616.679826 233.374436 
L 617.023582 233.598989 
L 617.023582 233.355961 
L 617.367338 233.594866 
L 617.367338 233.377356 
L 617.711095 233.603272 
L 617.711095 233.347162 
L 618.054851 233.623862 
L 618.054851 233.387929 
L 618.398363 233.59372 
L 618.398363 233.35645 
L 618.742363 233.577263 
L 618.742363 233.379339 
L 619.085875 233.619364 
L 619.085875 233.352688 
L 619.429142 233.597133 
L 619.429142 233.413188 
L 619.772654 233.616822 
L 619.772654 233.432425 
L 620.116166 233.706951 
L 620.116166 233.493479 
L 620.460166 233.697147 
L 620.460166 233.476406 
L 620.809057 233.660185 
L 620.809057 233.466914 
L 621.152569 233.690961 
L 621.152569 233.478135 
L 621.495836 233.691545 
L 621.495836 233.488811 
L 621.839103 233.677013 
L 621.839103 233.464026 
L 622.187505 233.692853 
L 622.187505 233.475377 
L 622.530772 233.681504 
L 622.530772 233.497253 
L 622.874528 233.719912 
L 622.874528 233.548399 
L 623.217795 233.772755 
L 623.217795 233.576057 
L 623.561552 233.777878 
L 623.561552 233.598131 
L 623.905063 233.757532 
L 623.905063 233.562618 
L 624.248331 233.770783 
L 624.248331 233.545778 
L 624.593798 233.72604 
L 624.593798 233.579166 
L 624.93731 233.76591 
L 624.93731 233.562824 
L 625.280577 233.770619 
L 625.280577 233.597855 
L 625.624089 233.767108 
L 625.624089 233.595234 
L 625.97298 233.780263 
L 625.97298 233.621664 
L 626.316247 233.795333 
L 626.316247 233.598648 
L 626.659759 233.767447 
L 626.659759 233.591307 
L 627.003515 233.765649 
L 627.003515 233.557083 
L 627.346782 233.744695 
L 627.346782 233.564586 
L 627.690294 233.740133 
L 627.690294 233.540884 
L 628.033805 233.732966 
L 628.033805 233.552756 
L 628.376828 233.733689 
L 628.376828 233.554526 
L 628.72034 233.759174 
L 628.72034 233.615319 
L 629.063607 233.802614 
L 629.063607 233.64129 
L 629.406874 233.824961 
L 629.406874 233.638149 
L 629.750142 233.794316 
L 629.750142 233.62274 
L 630.093409 233.792888 
L 630.093409 233.660303 
L 630.436676 233.841715 
L 630.436676 233.693993 
L 630.781166 233.861414 
L 630.781166 233.714761 
L 631.130301 233.852052 
L 631.130301 233.679885 
L 631.473568 233.835852 
L 631.473568 233.665446 
L 631.81708 233.809182 
L 631.81708 233.661573 
L 632.160103 233.830311 
L 632.160103 233.665401 
L 632.503614 233.826475 
L 632.503614 233.655704 
L 632.846882 233.797543 
L 632.846882 233.652597 
L 633.190149 233.824261 
L 633.190149 233.65686 
L 633.533416 233.819066 
L 633.533416 233.677052 
L 633.876683 233.83369 
L 633.876683 233.651292 
L 634.220195 233.840399 
L 634.220195 233.725044 
L 634.563707 233.878546 
L 634.563707 233.721033 
L 634.906974 233.87328 
L 634.906974 233.701425 
L 635.250241 233.812229 
L 635.250241 233.683388 
L 635.936776 233.899113 
L 635.936776 233.770547 
L 636.285422 233.899719 
L 636.285422 233.762301 
L 636.628689 233.905249 
L 636.628689 233.741778 
L 636.976357 233.901292 
L 636.976357 233.745191 
L 637.319624 233.863605 
L 637.319624 233.701455 
L 637.662892 233.845043 
L 637.662892 233.690876 
L 638.006159 233.846189 
L 638.006159 233.713933 
L 638.692204 233.906139 
L 638.692204 233.787259 
L 639.035472 233.925271 
L 639.035472 233.791697 
L 639.378494 233.92334 
L 639.378494 233.772937 
L 639.721517 233.90622 
L 639.721517 233.762755 
L 640.06454 233.900417 
L 640.06454 233.750511 
L 640.407563 233.891276 
L 640.407563 233.767608 
L 640.750585 233.912711 
L 640.750585 233.769627 
L 641.093364 233.9075 
L 641.093364 233.789378 
L 641.784543 233.931442 
L 641.784543 233.810317 
L 642.127322 233.935937 
L 642.127322 233.800949 
L 642.470589 233.920539 
L 642.470589 233.779131 
L 642.813612 233.907742 
L 642.813612 233.757636 
L 643.157612 233.895289 
L 643.157612 233.722966 
L 643.50088 233.869817 
L 643.50088 233.732856 
L 644.18717 233.912103 
L 644.18717 233.773247 
L 644.530437 233.918738 
L 644.530437 233.805152 
L 645.216238 233.959157 
L 645.216238 233.806271 
L 645.559505 233.927907 
L 645.559505 233.800612 
L 645.902772 233.933355 
L 645.902772 233.796596 
L 646.24604 233.929537 
L 646.24604 233.785748 
L 646.937953 233.922598 
L 646.937953 233.789004 
L 647.281709 233.923742 
L 647.281709 233.790622 
L 647.625221 233.909898 
L 647.625221 233.780143 
L 647.968733 233.926819 
L 647.968733 233.792918 
L 648.312733 233.936085 
L 648.312733 233.776397 
L 648.661379 233.916213 
L 648.661379 233.791834 
L 649.004647 233.927346 
L 649.004647 233.8074 
L 649.348158 233.949284 
L 649.348158 233.82831 
L 649.69167 233.947816 
L 649.69167 233.829064 
L 650.378693 233.940578 
L 650.378693 233.805572 
L 650.72245 233.925813 
L 650.72245 233.823962 
L 651.066206 233.928331 
L 651.066206 233.792144 
L 651.409718 233.936484 
L 651.409718 233.797073 
L 652.103342 233.930246 
L 652.103342 233.800061 
L 652.446854 233.94693 
L 652.446854 233.848287 
L 652.79061 233.966205 
L 652.79061 233.849191 
L 653.821146 233.831178 
L 653.821146 233.832777 
L 654.164657 233.998636 
L 654.164657 233.856675 
L 654.851192 233.97458 
L 654.851192 233.849109 
L 655.194704 233.984929 
L 655.194704 233.840849 
L 655.881482 233.967767 
L 655.881482 233.830421 
L 656.224994 233.972809 
L 656.224994 233.881436 
L 656.917152 234.016986 
L 656.917152 233.907369 
L 657.604909 233.980619 
L 657.604909 233.865609 
L 658.293155 233.986103 
L 658.293155 233.863677 
L 658.985313 233.986795 
L 658.985313 233.883531 
L 659.672825 233.979071 
L 659.672825 233.90576 
L 660.016337 234.024117 
L 660.016337 233.921913 
L 660.360093 234.018545 
L 660.360093 233.89952 
L 660.703849 233.981709 
L 660.703849 233.857353 
L 661.048095 233.968217 
L 661.048095 233.842333 
L 661.391851 233.967925 
L 661.391851 233.839632 
L 662.084987 233.968351 
L 662.084987 233.842574 
L 662.772254 233.983496 
L 662.772254 233.887512 
L 663.459767 234.029155 
L 663.459767 233.930067 
L 663.803279 234.031515 
L 663.803279 233.927881 
L 664.147035 234.006242 
L 664.147035 233.890923 
L 664.834303 233.982449 
L 664.834303 233.901183 
L 665.529639 234.02495 
L 665.529639 233.908295 
L 666.217151 234.010445 
L 666.217151 233.897772 
L 666.560908 234.008607 
L 666.560908 233.883841 
L 666.904908 233.999895 
L 666.904908 233.869108 
L 667.5978 233.987128 
L 667.5978 233.867851 
L 667.9418 233.9839 
L 667.9418 233.869215 
L 668.974781 233.861934 
L 668.974781 233.872582 
L 669.667427 234.014891 
L 669.667427 233.932866 
L 670.370587 234.025347 
L 670.370587 233.90742 
L 671.058833 234.033682 
L 671.058833 233.928391 
L 671.402589 234.032362 
L 671.402589 233.934302 
L 672.090346 234.038041 
L 672.090346 233.947138 
L 672.784216 234.050179 
L 672.784216 233.947626 
L 673.127727 234.042666 
L 673.127727 233.908501 
L 673.471973 233.997469 
L 673.471973 233.87963 
L 674.160952 234.051525 
L 674.160952 233.943987 
L 674.848709 234.065803 
L 674.848709 233.972814 
L 675.19271 234.077295 
L 675.19271 233.994728 
L 675.880467 234.062464 
L 675.880467 233.970734 
L 676.224223 234.059072 
L 676.224223 233.959668 
L 676.911735 234.007985 
L 676.911735 233.891701 
L 677.60536 234.031908 
L 677.60536 233.911118 
L 677.949361 234.031902 
L 677.949361 233.923626 
L 678.642252 234.031818 
L 678.642252 233.93327 
L 679.330253 234.047805 
L 679.330253 233.955209 
L 680.01801 234.025344 
L 680.01801 233.913612 
L 680.705767 234.012627 
L 680.705767 233.93128 
L 681.393524 234.082303 
L 681.393524 233.97157 
L 681.737036 234.064367 
L 681.737036 233.958329 
L 682.080792 234.023279 
L 682.080792 233.90264 
L 682.773683 234.000776 
L 682.773683 233.920457 
L 683.461929 234.054626 
L 683.461929 233.981987 
L 684.149931 234.08139 
L 684.149931 233.994709 
L 684.83891 234.053535 
L 684.83891 233.943077 
L 685.526912 234.035109 
L 685.526912 233.928696 
L 686.220047 234.029214 
L 686.220047 233.918339 
L 686.908049 234.02937 
L 686.908049 233.951232 
L 687.59605 234.059856 
L 687.59605 233.945357 
L 688.289431 234.026435 
L 688.289431 233.932848 
L 688.977432 234.05858 
L 688.977432 233.95201 
L 689.665433 234.023984 
L 689.665433 233.926896 
L 690.353435 234.048105 
L 690.353435 233.968987 
L 690.697191 234.066314 
L 690.697191 233.972243 
L 691.384948 234.035739 
L 691.384948 233.926926 
L 692.072949 234.048915 
L 692.072949 233.932584 
L 692.41695 234.046045 
L 692.41695 233.95123 
L 693.110819 234.064155 
L 693.110819 233.985293 
L 693.798821 234.062449 
L 693.798821 233.989242 
L 694.500514 234.050584 
L 694.500514 233.933965 
L 695.188026 234.024285 
L 695.188026 233.943255 
L 695.875783 234.062714 
L 695.875783 233.965794 
L 696.56354 234.035018 
L 696.56354 233.935185 
L 697.252031 234.05412 
L 697.252031 233.964535 
L 697.596031 234.065421 
L 697.596031 233.966894 
L 698.291123 234.070886 
L 698.291123 233.981139 
L 698.640258 234.073501 
L 698.640258 233.972929 
L 699.328015 234.041191 
L 699.328015 233.965998 
L 699.672016 234.068028 
L 699.672016 233.980766 
L 700.360262 234.021769 
L 700.360262 233.950444 
L 701.04973 234.070275 
L 701.04973 233.981039 
L 701.737732 234.053143 
L 701.737732 233.965497 
L 702.769489 233.957241 
L 702.769489 233.963588 
L 703.462869 234.072925 
L 703.462869 233.977305 
L 704.150626 234.052198 
L 704.150626 233.954747 
L 704.838872 234.058566 
L 704.838872 233.959473 
L 705.526874 234.06066 
L 705.526874 233.965252 
L 705.870874 234.069989 
L 705.870874 233.978454 
L 706.558876 234.031538 
L 706.558876 233.934868 
L 707.246633 234.057485 
L 707.246633 233.9688 
L 707.934879 234.052 
L 707.934879 233.963416 
L 708.633638 234.081916 
L 708.633638 234.02201 
L 708.977394 234.113262 
L 708.977394 234.012409 
L 710.01013 233.95158 
L 710.01013 233.96929 
L 710.698376 234.072066 
L 710.698376 233.973477 
L 711.386133 234.062463 
L 711.386133 233.991109 
L 712.075845 234.091942 
L 712.075845 234.000859 
L 712.764091 234.052321 
L 712.764091 233.942445 
L 713.451848 234.032147 
L 713.451848 233.946424 
L 714.145229 234.071549 
L 714.145229 233.994666 
L 714.833474 234.078806 
L 714.833474 234.019236 
L 715.521476 234.100698 
L 715.521476 234.016361 
L 716.209722 234.092657 
L 716.209722 234.011318 
L 716.897479 234.086977 
L 716.897479 233.996583 
L 717.585236 234.06732 
L 717.585236 233.987997 
L 717.928747 234.074271 
L 717.928747 233.962455 
L 718.61626 234.057586 
L 718.61626 233.993544 
L 719.328222 234.099081 
L 719.328222 234.018658 
L 720.015979 234.112341 
L 720.015979 234.042696 
L 720.704469 234.097194 
L 720.704469 234.02303 
L 721.392715 234.087783 
L 721.392715 234.014274 
L 722.080227 234.060096 
L 722.080227 233.973327 
L 722.767251 234.050779 
L 722.767251 233.985477 
L 723.454519 234.06773 
L 723.454519 234.000091 
L 724.16428 234.099137 
L 724.16428 234.019103 
L 724.851303 234.077932 
L 724.851303 233.995311 
L 725.538327 234.09394 
L 725.538327 234.030748 
L 726.225595 234.087121 
L 726.225595 234.009045 
L 726.912863 234.023659 
L 727.25613 233.931941 
L 728.293756 234.098151 
L 728.293756 234.016918 
L 728.980535 234.0783 
L 728.980535 234.000148 
L 729.672937 234.090057 
L 729.672937 234.013961 
L 730.359716 234.077747 
L 730.359716 234.008014 
L 731.046739 234.109574 
L 731.046739 234.032844 
L 732.07703 234.006977 
L 732.07703 234.023028 
L 732.763809 234.143799 
L 732.763809 234.075042 
L 733.449854 234.134193 
L 733.449854 234.048128 
L 734.136389 234.108341 
L 734.136389 234.063934 
L 734.827569 234.135979 
L 734.827569 234.069425 
L 735.513859 234.128581 
L 735.513859 234.054079 
L 736.200149 234.105091 
L 736.200149 234.039489 
L 736.886194 234.135834 
L 736.886194 234.069099 
L 737.571995 234.135697 
L 737.571995 234.065682 
L 738.263175 234.102894 
L 738.263175 234.028301 
L 738.949465 234.116605 
L 738.949465 234.045368 
L 739.640645 234.116227 
L 739.640645 234.040256 
L 740.326201 234.092977 
L 740.326201 234.025078 
L 741.011513 234.124573 
L 741.011513 234.044901 
L 741.69707 234.133598 
L 741.69707 234.063234 
L 742.382626 234.107819 
L 742.382626 234.035822 
L 743.068183 234.10562 
L 743.068183 234.056895 
L 743.753495 234.122774 
L 743.753495 234.075962 
L 744.786964 234.12892 
L 744.786964 234.072776 
L 745.129498 234.146213 
L 745.129498 234.056917 
L 746.502322 234.038222 
L 747.187879 234.101245 
L 747.187879 234.035732 
L 748.220859 234.113085 
L 748.220859 234.074014 
L 748.906171 234.127309 
L 748.906171 234.052193 
L 749.939395 234.11263 
L 749.939395 234.05594 
L 750.624708 234.085987 
L 750.624708 234.004201 
L 751.652798 234.080667 
L 751.652798 234.015172 
L 752.681133 234.088923 
L 752.681133 234.038817 
L 753.366445 234.115357 
L 753.366445 234.040935 
L 754.052246 234.089401 
L 754.052246 234.038883 
L 754.737802 234.101354 
L 754.737802 234.041037 
L 755.771027 234.111685 
L 755.771027 234.049441 
L 756.456583 234.102749 
L 756.456583 234.068164 
L 757.141895 234.11639 
L 757.141895 234.064706 
L 758.517409 234.12716 
L 758.517409 234.083144 
L 759.545499 234.142467 
L 759.545499 234.098567 
L 760.236679 234.146415 
L 760.236679 234.085332 
L 761.265258 234.149736 
L 761.265258 234.09038 
L 761.951059 234.102841 
L 761.951059 234.039398 
L 762.981839 234.114186 
L 762.981839 234.050959 
L 764.010418 234.159166 
L 764.010418 234.083316 
L 764.696219 234.129058 
L 764.696219 234.064217 
L 765.392045 234.109997 
L 765.392045 234.035466 
L 766.077846 234.066205 
L 773.970792 234.146341 
L 773.970792 234.088536 
L 774.656593 234.154143 
L 774.656593 234.113737 
L 782.903808 234.159204 
L 782.903808 234.079175 
L 783.589854 234.14378 
L 783.589854 234.0865 
L 784.27541 234.155712 
L 784.27541 234.100283 
L 784.962189 234.138937 
L 784.962189 234.084034 
L 785.653613 234.167774 
L 785.653613 234.102878 
L 786.344549 234.13433 
L 786.344549 234.08232 
L 787.372639 234.197221 
L 787.372639 234.140333 
L 788.400485 234.163931 
L 788.400485 234.11141 
L 789.085308 234.118704 
L 789.085308 234.084334 
L 789.769886 234.089113 
L 794.181506 234.162401 
L 794.181506 234.112485 
L 794.851171 234.153412 
L 794.851171 234.129759 
L 813.536497 234.173324 
L 813.536497 234.192931 
L 815.293175 234.350315 
L 816.355494 234.349143 
L 816.355494 234.349143 
" clip-path="url(#p6e509fad28)" style="fill: none; stroke: #008000; stroke-width: 1.5; stroke-linecap: square"/>
   </g>
   <g id="patch_3">
    <path d="M 47.72 534.04 
L 47.72 26.88 
" style="fill: none; stroke: #000000; stroke-width: 0.8; stroke-linejoin: miter; stroke-linecap: square"/>
   </g>
   <g id="patch_4">
    <path d="M 853.2 534.04 
L 853.2 26.88 
" style="fill: none; stroke: #000000; stroke-width: 0.8; stroke-linejoin: miter; stroke-linecap: square"/>
   </g>
   <g id="patch_5">
    <path d="M 47.72 534.04 
L 853.2 534.04 
" style="fill: none; stroke: #000000; stroke-width: 0.8; stroke-linejoin: miter; stroke-linecap: square"/>
   </g>
   <g id="patch_6">
    <path d="M 47.72 26.88 
L 853.2 26.88 
" style="fill: none; stroke: #000000; stroke-width: 0.8; stroke-linejoin: miter; stroke-linecap: square"/>
   </g>
   <g id="patch_7">
    <path d="M 605.977075 326.923349 
Q 579.825782 332.757212 553.674488 338.591074 
L 554.545405 342.495111 
Q 548.037625 340.873133 541.529844 339.251155 
Q 546.731249 335.017078 551.932653 330.783 
L 552.80357 334.687037 
Q 578.954864 328.853175 605.106158 323.019312 
L 605.977075 326.923349 
z
" style="stroke: #000000; stroke-linecap: round"/>
   </g>
   <g id="text_15">
    <!-- Peak: RT=3.10, Area=5.42e+03 -->
    <g style="fill: #ff0000" transform="translate(611.213711 310.428493) scale(0.1 -0.1)">
     <defs>
      <path id="DejaVuSans-50" d="M 1259 4147 
L 1259 2394 
L 2053 2394 
Q 2494 2394 2734 2622 
Q 2975 2850 2975 3272 
Q 2975 3691 2734 3919 
Q 2494 4147 2053 4147 
L 1259 4147 
z
M 628 4666 
L 2053 4666 
Q 2838 4666 3239 4311 
Q 3641 3956 3641 3272 
Q 3641 2581 3239 2228 
Q 2838 1875 2053 1875 
L 1259 1875 
L 1259 0 
L 628 0 
L 628 4666 
z
" transform="scale(0.015625)"/>
      <path id="DejaVuSans-6b" d="M 581 4863 
L 1159 4863 
L 1159 1991 
L 2875 3500 
L 3609 3500 
L 1753 1863 
L 3688 0 
L 2938 0 
L 1159 1709 
L 1159 0 
L 581 0 
L 581 4863 
z
" transform="scale(0.015625)"/>
      <path id="DejaVuSans-3a" d="M 750 794 
L 1409 794 
L 1409 0 
L 750 0 
L 750 794 
z
M 750 3309 
L 1409 3309 
L 1409 2516 
L 750 2516 
L 750 3309 
z
" transform="scale(0.015625)"/>
      <path id="DejaVuSans-3d" d="M 678 2906 
L 4684 2906 
L 4684 2381 
L 678 2381 
L 678 2906 
z
M 678 1631 
L 4684 1631 
L 4684 1100 
L 678 1100 
L 678 1631 
z
" transform="scale(0.015625)"/>
      <path id="DejaVuSans-2c" d="M 750 794 
L 1409 794 
L 1409 256 
L 897 -744 
L 494 -744 
L 750 256 
L 750 794 
z
" transform="scale(0.015625)"/>
      <path id="DejaVuSans-41" d="M 2188 4044 
L 1331 1722 
L 3047 1722 
L 2188 4044 
z
M 1831 4666 
L 2547 4666 
L 4325 0 
L 3669 0 
L 3244 1197 
L 1141 1197 
L 716 0 
L 50 0 
L 1831 4666 
z
" transform="scale(0.015625)"/>
      <path id="DejaVuSans-2b" d="M 2944 4013 
L 2944 2272 
L 4684 2272 
L 4684 1741 
L 2944 1741 
L 2944 0 
L 2419 0 
L 2419 1741 
L 678 1741 
L 678 2272 
L 2419 2272 
L 2419 4013 
L 2944 4013 
z
" transform="scale(0.015625)"/>
     </defs>
     <use xlink:href="#DejaVuSans-50"/>
     <use xlink:href="#DejaVuSans-65" transform="translate(56.677734 0)"/>
     <use xlink:href="#DejaVuSans-61" transform="translate(118.201172 0)"/>
     <use xlink:href="#DejaVuSans-6b" transform="translate(179.480469 0)"/>
     <use xlink:href="#DejaVuSans-3a" transform="translate(237.390625 0)"/>
     <use xlink:href="#DejaVuSans-20" transform="translate(271.082031 0)"/>
     <use xlink:href="#DejaVuSans-52" transform="translate(302.869141 0)"/>
     <use xlink:href="#DejaVuSans-54" transform="translate(365.101562 0)"/>
     <use xlink:href="#DejaVuSans-3d" transform="translate(426.185547 0)"/>
     <use xlink:href="#DejaVuSans-33" transform="translate(509.974609 0)"/>
     <use xlink:href="#DejaVuSans-2e" transform="translate(573.597656 0)"/>
     <use xlink:href="#DejaVuSans-31" transform="translate(605.384766 0)"/>
     <use xlink:href="#DejaVuSans-30" transform="translate(669.007812 0)"/>
     <use xlink:href="#DejaVuSans-2c" transform="translate(732.630859 0)"/>
     <use xlink:href="#DejaVuSans-20" transform="translate(764.417969 0)"/>
     <use xlink:href="#DejaVuSans-41" transform="translate(796.205078 0)"/>
     <use xlink:href="#DejaVuSans-72" transform="translate(864.613281 0)"/>
     <use xlink:href="#DejaVuSans-65" transform="translate(903.476562 0)"/>
     <use xlink:href="#DejaVuSans-61" transform="translate(965 0)"/>
     <use xlink:href="#DejaVuSans-3d" transform="translate(1026.279297 0)"/>
     <use xlink:href="#DejaVuSans-35" transform="translate(1110.068359 0)"/>
     <use xlink:href="#DejaVuSans-2e" transform="translate(1173.691406 0)"/>
     <use xlink:href="#DejaVuSans-34" transform="translate(1205.478516 0)"/>
     <use xlink:href="#DejaVuSans-32" transform="translate(1269.101562 0)"/>
     <use xlink:href="#DejaVuSans-65" transform="translate(1332.724609 0)"/>
     <use xlink:href="#DejaVuSans-2b" transform="translate(1394.248047 0)"/>
     <use xlink:href="#DejaVuSans-30" transform="translate(1478.037109 0)"/>
     <use xlink:href="#DejaVuSans-33" transform="translate(1541.660156 0)"/>
    </g>
    <!-- (35.53% of total) -->
    <g style="fill: #ff0000" transform="translate(611.213711 321.626306) scale(0.1 -0.1)">
     <defs>
      <path id="DejaVuSans-25" d="M 4653 2053 
Q 4381 2053 4226 1822 
Q 4072 1591 4072 1178 
Q 4072 772 4226 539 
Q 4381 306 4653 306 
Q 4919 306 5073 539 
Q 5228 772 5228 1178 
Q 5228 1588 5073 1820 
Q 4919 2053 4653 2053 
z
M 4653 2450 
Q 5147 2450 5437 2106 
Q 5728 1763 5728 1178 
Q 5728 594 5436 251 
Q 5144 -91 4653 -91 
Q 4153 -91 3862 251 
Q 3572 594 3572 1178 
Q 3572 1766 3864 2108 
Q 4156 2450 4653 2450 
z
M 1428 4353 
Q 1159 4353 1004 4120 
Q 850 3888 850 3481 
Q 850 3069 1003 2837 
Q 1156 2606 1428 2606 
Q 1700 2606 1854 2837 
Q 2009 3069 2009 3481 
Q 2009 3884 1853 4118 
Q 1697 4353 1428 4353 
z
M 4250 4750 
L 4750 4750 
L 1831 -91 
L 1331 -91 
L 4250 4750 
z
M 1428 4750 
Q 1922 4750 2215 4408 
Q 2509 4066 2509 3481 
Q 2509 2891 2217 2550 
Q 1925 2209 1428 2209 
Q 931 2209 642 2551 
Q 353 2894 353 3481 
Q 353 4063 643 4406 
Q 934 4750 1428 4750 
z
" transform="scale(0.015625)"/>
      <path id="DejaVuSans-66" d="M 2375 4863 
L 2375 4384 
L 1825 4384 
Q 1516 4384 1395 4259 
Q 1275 4134 1275 3809 
L 1275 3500 
L 2222 3500 
L 2222 3053 
L 1275 3053 
L 1275 0 
L 697 0 
L 697 3053 
L 147 3053 
L 147 3500 
L 697 3500 
L 697 3744 
Q 697 4328 969 4595 
Q 1241 4863 1831 4863 
L 2375 4863 
z
" transform="scale(0.015625)"/>
     </defs>
     <use xlink:href="#DejaVuSans-28"/>
     <use xlink:href="#DejaVuSans-33" transform="translate(39.013672 0)"/>
     <use xlink:href="#DejaVuSans-35" transform="translate(102.636719 0)"/>
     <use xlink:href="#DejaVuSans-2e" transform="translate(166.259766 0)"/>
     <use xlink:href="#DejaVuSans-35" transform="translate(198.046875 0)"/>
     <use xlink:href="#DejaVuSans-33" transform="translate(261.669922 0)"/>
     <use xlink:href="#DejaVuSans-25" transform="translate(325.292969 0)"/>
     <use xlink:href="#DejaVuSans-20" transform="translate(420.3125 0)"/>
     <use xlink:href="#DejaVuSans-6f" transform="translate(452.099609 0)"/>
     <use xlink:href="#DejaVuSans-66" transform="translate(513.28125 0)"/>
     <use xlink:href="#DejaVuSans-20" transform="translate(548.486328 0)"/>
     <use xlink:href="#DejaVuSans-74" transform="translate(580.273438 0)"/>
     <use xlink:href="#DejaVuSans-6f" transform="translate(619.482422 0)"/>
     <use xlink:href="#DejaVuSans-74" transform="translate(680.664062 0)"/>
     <use xlink:href="#DejaVuSans-61" transform="translate(719.873047 0)"/>
     <use xlink:href="#DejaVuSans-6c" transform="translate(781.152344 0)"/>
     <use xlink:href="#DejaVuSans-29" transform="translate(808.935547 0)"/>
    </g>
   </g>
   <g id="text_16">
    <!-- UV and MS Chromatograms of IrCp4A20, target m/z = 621.2553638 -->
    <g transform="translate(246.215313 20.88) scale(0.12 -0.12)">
     <defs>
      <path id="DejaVuSans-55" d="M 556 4666 
L 1191 4666 
L 1191 1831 
Q 1191 1081 1462 751 
Q 1734 422 2344 422 
Q 2950 422 3222 751 
Q 3494 1081 3494 1831 
L 3494 4666 
L 4128 4666 
L 4128 1753 
Q 4128 841 3676 375 
Q 3225 -91 2344 -91 
Q 1459 -91 1007 375 
Q 556 841 556 1753 
L 556 4666 
z
" transform="scale(0.015625)"/>
      <path id="DejaVuSans-56" d="M 1831 0 
L 50 4666 
L 709 4666 
L 2188 738 
L 3669 4666 
L 4325 4666 
L 2547 0 
L 1831 0 
z
" transform="scale(0.015625)"/>
      <path id="DejaVuSans-4d" d="M 628 4666 
L 1569 4666 
L 2759 1491 
L 3956 4666 
L 4897 4666 
L 4897 0 
L 4281 0 
L 4281 4097 
L 3078 897 
L 2444 897 
L 1241 4097 
L 1241 0 
L 628 0 
L 628 4666 
z
" transform="scale(0.015625)"/>
      <path id="DejaVuSans-53" d="M 3425 4513 
L 3425 3897 
Q 3066 4069 2747 4153 
Q 2428 4238 2131 4238 
Q 1616 4238 1336 4038 
Q 1056 3838 1056 3469 
Q 1056 3159 1242 3001 
Q 1428 2844 1947 2747 
L 2328 2669 
Q 3034 2534 3370 2195 
Q 3706 1856 3706 1288 
Q 3706 609 3251 259 
Q 2797 -91 1919 -91 
Q 1588 -91 1214 -16 
Q 841 59 441 206 
L 441 856 
Q 825 641 1194 531 
Q 1563 422 1919 422 
Q 2459 422 2753 634 
Q 3047 847 3047 1241 
Q 3047 1584 2836 1778 
Q 2625 1972 2144 2069 
L 1759 2144 
Q 1053 2284 737 2584 
Q 422 2884 422 3419 
Q 422 4038 858 4394 
Q 1294 4750 2059 4750 
Q 2388 4750 2728 4690 
Q 3069 4631 3425 4513 
z
" transform="scale(0.015625)"/>
      <path id="DejaVuSans-43" d="M 4122 4306 
L 4122 3641 
Q 3803 3938 3442 4084 
Q 3081 4231 2675 4231 
Q 1875 4231 1450 3742 
Q 1025 3253 1025 2328 
Q 1025 1406 1450 917 
Q 1875 428 2675 428 
Q 3081 428 3442 575 
Q 3803 722 4122 1019 
L 4122 359 
Q 3791 134 3420 21 
Q 3050 -91 2638 -91 
Q 1578 -91 968 557 
Q 359 1206 359 2328 
Q 359 3453 968 4101 
Q 1578 4750 2638 4750 
Q 3056 4750 3426 4639 
Q 3797 4528 4122 4306 
z
" transform="scale(0.015625)"/>
      <path id="DejaVuSans-68" d="M 3513 2113 
L 3513 0 
L 2938 0 
L 2938 2094 
Q 2938 2591 2744 2837 
Q 2550 3084 2163 3084 
Q 1697 3084 1428 2787 
Q 1159 2491 1159 1978 
L 1159 0 
L 581 0 
L 581 4863 
L 1159 4863 
L 1159 2956 
Q 1366 3272 1645 3428 
Q 1925 3584 2291 3584 
Q 2894 3584 3203 3211 
Q 3513 2838 3513 2113 
z
" transform="scale(0.015625)"/>
      <path id="DejaVuSans-67" d="M 2906 1791 
Q 2906 2416 2648 2759 
Q 2391 3103 1925 3103 
Q 1463 3103 1205 2759 
Q 947 2416 947 1791 
Q 947 1169 1205 825 
Q 1463 481 1925 481 
Q 2391 481 2648 825 
Q 2906 1169 2906 1791 
z
M 3481 434 
Q 3481 -459 3084 -895 
Q 2688 -1331 1869 -1331 
Q 1566 -1331 1297 -1286 
Q 1028 -1241 775 -1147 
L 775 -588 
Q 1028 -725 1275 -790 
Q 1522 -856 1778 -856 
Q 2344 -856 2625 -561 
Q 2906 -266 2906 331 
L 2906 616 
Q 2728 306 2450 153 
Q 2172 0 1784 0 
Q 1141 0 747 490 
Q 353 981 353 1791 
Q 353 2603 747 3093 
Q 1141 3584 1784 3584 
Q 2172 3584 2450 3431 
Q 2728 3278 2906 2969 
L 2906 3500 
L 3481 3500 
L 3481 434 
z
" transform="scale(0.015625)"/>
      <path id="DejaVuSans-70" d="M 1159 525 
L 1159 -1331 
L 581 -1331 
L 581 3500 
L 1159 3500 
L 1159 2969 
Q 1341 3281 1617 3432 
Q 1894 3584 2278 3584 
Q 2916 3584 3314 3078 
Q 3713 2572 3713 1747 
Q 3713 922 3314 415 
Q 2916 -91 2278 -91 
Q 1894 -91 1617 61 
Q 1341 213 1159 525 
z
M 3116 1747 
Q 3116 2381 2855 2742 
Q 2594 3103 2138 3103 
Q 1681 3103 1420 2742 
Q 1159 2381 1159 1747 
Q 1159 1113 1420 752 
Q 1681 391 2138 391 
Q 2594 391 2855 752 
Q 3116 1113 3116 1747 
z
" transform="scale(0.015625)"/>
      <path id="DejaVuSans-2f" d="M 1625 4666 
L 2156 4666 
L 531 -594 
L 0 -594 
L 1625 4666 
z
" transform="scale(0.015625)"/>
      <path id="DejaVuSans-36" d="M 2113 2584 
Q 1688 2584 1439 2293 
Q 1191 2003 1191 1497 
Q 1191 994 1439 701 
Q 1688 409 2113 409 
Q 2538 409 2786 701 
Q 3034 994 3034 1497 
Q 3034 2003 2786 2293 
Q 2538 2584 2113 2584 
z
M 3366 4563 
L 3366 3988 
Q 3128 4100 2886 4159 
Q 2644 4219 2406 4219 
Q 1781 4219 1451 3797 
Q 1122 3375 1075 2522 
Q 1259 2794 1537 2939 
Q 1816 3084 2150 3084 
Q 2853 3084 3261 2657 
Q 3669 2231 3669 1497 
Q 3669 778 3244 343 
Q 2819 -91 2113 -91 
Q 1303 -91 875 529 
Q 447 1150 447 2328 
Q 447 3434 972 4092 
Q 1497 4750 2381 4750 
Q 2619 4750 2861 4703 
Q 3103 4656 3366 4563 
z
" transform="scale(0.015625)"/>
      <path id="DejaVuSans-38" d="M 2034 2216 
Q 1584 2216 1326 1975 
Q 1069 1734 1069 1313 
Q 1069 891 1326 650 
Q 1584 409 2034 409 
Q 2484 409 2743 651 
Q 3003 894 3003 1313 
Q 3003 1734 2745 1975 
Q 2488 2216 2034 2216 
z
M 1403 2484 
Q 997 2584 770 2862 
Q 544 3141 544 3541 
Q 544 4100 942 4425 
Q 1341 4750 2034 4750 
Q 2731 4750 3128 4425 
Q 3525 4100 3525 3541 
Q 3525 3141 3298 2862 
Q 3072 2584 2669 2484 
Q 3125 2378 3379 2068 
Q 3634 1759 3634 1313 
Q 3634 634 3220 271 
Q 2806 -91 2034 -91 
Q 1263 -91 848 271 
Q 434 634 434 1313 
Q 434 1759 690 2068 
Q 947 2378 1403 2484 
z
M 1172 3481 
Q 1172 3119 1398 2916 
Q 1625 2713 2034 2713 
Q 2441 2713 2670 2916 
Q 2900 3119 2900 3481 
Q 2900 3844 2670 4047 
Q 2441 4250 2034 4250 
Q 1625 4250 1398 4047 
Q 1172 3844 1172 3481 
z
" transform="scale(0.015625)"/>
     </defs>
     <use xlink:href="#DejaVuSans-55"/>
     <use xlink:href="#DejaVuSans-56" transform="translate(73.193359 0)"/>
     <use xlink:href="#DejaVuSans-20" transform="translate(141.601562 0)"/>
     <use xlink:href="#DejaVuSans-61" transform="translate(173.388672 0)"/>
     <use xlink:href="#DejaVuSans-6e" transform="translate(234.667969 0)"/>
     <use xlink:href="#DejaVuSans-64" transform="translate(298.046875 0)"/>
     <use xlink:href="#DejaVuSans-20" transform="translate(361.523438 0)"/>
     <use xlink:href="#DejaVuSans-4d" transform="translate(393.310547 0)"/>
     <use xlink:href="#DejaVuSans-53" transform="translate(479.589844 0)"/>
     <use xlink:href="#DejaVuSans-20" transform="translate(543.066406 0)"/>
     <use xlink:href="#DejaVuSans-43" transform="translate(574.853516 0)"/>
     <use xlink:href="#DejaVuSans-68" transform="translate(644.677734 0)"/>
     <use xlink:href="#DejaVuSans-72" transform="translate(708.056641 0)"/>
     <use xlink:href="#DejaVuSans-6f" transform="translate(746.919922 0)"/>
     <use xlink:href="#DejaVuSans-6d" transform="translate(808.101562 0)"/>
     <use xlink:href="#DejaVuSans-61" transform="translate(905.513672 0)"/>
     <use xlink:href="#DejaVuSans-74" transform="translate(966.792969 0)"/>
     <use xlink:href="#DejaVuSans-6f" transform="translate(1006.001953 0)"/>
     <use xlink:href="#DejaVuSans-67" transform="translate(1067.183594 0)"/>
     <use xlink:href="#DejaVuSans-72" transform="translate(1130.660156 0)"/>
     <use xlink:href="#DejaVuSans-61" transform="translate(1171.773438 0)"/>
     <use xlink:href="#DejaVuSans-6d" transform="translate(1233.052734 0)"/>
     <use xlink:href="#DejaVuSans-73" transform="translate(1330.464844 0)"/>
     <use xlink:href="#DejaVuSans-20" transform="translate(1382.564453 0)"/>
     <use xlink:href="#DejaVuSans-6f" transform="translate(1414.351562 0)"/>
     <use xlink:href="#DejaVuSans-66" transform="translate(1475.533203 0)"/>
     <use xlink:href="#DejaVuSans-20" transform="translate(1510.738281 0)"/>
     <use xlink:href="#DejaVuSans-49" transform="translate(1542.525391 0)"/>
     <use xlink:href="#DejaVuSans-72" transform="translate(1572.017578 0)"/>
     <use xlink:href="#DejaVuSans-43" transform="translate(1613.130859 0)"/>
     <use xlink:href="#DejaVuSans-70" transform="translate(1682.955078 0)"/>
     <use xlink:href="#DejaVuSans-34" transform="translate(1746.431641 0)"/>
     <use xlink:href="#DejaVuSans-41" transform="translate(1810.054688 0)"/>
     <use xlink:href="#DejaVuSans-32" transform="translate(1878.462891 0)"/>
     <use xlink:href="#DejaVuSans-30" transform="translate(1942.085938 0)"/>
     <use xlink:href="#DejaVuSans-2c" transform="translate(2005.708984 0)"/>
     <use xlink:href="#DejaVuSans-20" transform="translate(2037.496094 0)"/>
     <use xlink:href="#DejaVuSans-74" transform="translate(2069.283203 0)"/>
     <use xlink:href="#DejaVuSans-61" transform="translate(2108.492188 0)"/>
     <use xlink:href="#DejaVuSans-72" transform="translate(2169.771484 0)"/>
     <use xlink:href="#DejaVuSans-67" transform="translate(2209.134766 0)"/>
     <use xlink:href="#DejaVuSans-65" transform="translate(2272.611328 0)"/>
     <use xlink:href="#DejaVuSans-74" transform="translate(2334.134766 0)"/>
     <use xlink:href="#DejaVuSans-20" transform="translate(2373.34375 0)"/>
     <use xlink:href="#DejaVuSans-6d" transform="translate(2405.130859 0)"/>
     <use xlink:href="#DejaVuSans-2f" transform="translate(2502.542969 0)"/>
     <use xlink:href="#DejaVuSans-7a" transform="translate(2536.234375 0)"/>
     <use xlink:href="#DejaVuSans-20" transform="translate(2588.724609 0)"/>
     <use xlink:href="#DejaVuSans-3d" transform="translate(2620.511719 0)"/>
     <use xlink:href="#DejaVuSans-20" transform="translate(2704.300781 0)"/>
     <use xlink:href="#DejaVuSans-36" transform="translate(2736.087891 0)"/>
     <use xlink:href="#DejaVuSans-32" transform="translate(2799.710938 0)"/>
     <use xlink:href="#DejaVuSans-31" transform="translate(2863.333984 0)"/>
     <use xlink:href="#DejaVuSans-2e" transform="translate(2926.957031 0)"/>
     <use xlink:href="#DejaVuSans-32" transform="translate(2958.744141 0)"/>
     <use xlink:href="#DejaVuSans-35" transform="translate(3022.367188 0)"/>
     <use xlink:href="#DejaVuSans-35" transform="translate(3085.990234 0)"/>
     <use xlink:href="#DejaVuSans-33" transform="translate(3149.613281 0)"/>
     <use xlink:href="#DejaVuSans-36" transform="translate(3213.236328 0)"/>
     <use xlink:href="#DejaVuSans-33" transform="translate(3276.859375 0)"/>
     <use xlink:href="#DejaVuSans-38" transform="translate(3340.482422 0)"/>
    </g>
   </g>
   <g id="legend_1">
    <g id="patch_8">
     <path d="M 685.971875 64.23625 
L 846.2 64.23625 
Q 848.2 64.23625 848.2 62.23625 
L 848.2 33.88 
Q 848.2 31.88 846.2 31.88 
L 685.971875 31.88 
Q 683.971875 31.88 683.971875 33.88 
L 683.971875 62.23625 
Q 683.971875 64.23625 685.971875 64.23625 
z
" style="fill: #ffffff; opacity: 0.8; stroke: #cccccc; stroke-linejoin: miter"/>
    </g>
    <g id="line2d_15">
     <path d="M 687.971875 39.978437 
L 697.971875 39.978437 
L 707.971875 39.978437 
" style="fill: none; stroke: #0000ff; stroke-width: 1.5; stroke-linecap: square"/>
    </g>
    <g id="text_17">
     <!-- UV Intensity (normalized) -->
     <g transform="translate(715.971875 43.478437) scale(0.1 -0.1)">
      <use xlink:href="#DejaVuSans-55"/>
      <use xlink:href="#DejaVuSans-56" transform="translate(73.193359 0)"/>
      <use xlink:href="#DejaVuSans-20" transform="translate(141.601562 0)"/>
      <use xlink:href="#DejaVuSans-49" transform="translate(173.388672 0)"/>
      <use xlink:href="#DejaVuSans-6e" transform="translate(202.880859 0)"/>
      <use xlink:href="#DejaVuSans-74" transform="translate(266.259766 0)"/>
      <use xlink:href="#DejaVuSans-65" transform="translate(305.46875 0)"/>
      <use xlink:href="#DejaVuSans-6e" transform="translate(366.992188 0)"/>
      <use xlink:href="#DejaVuSans-73" transform="translate(430.371094 0)"/>
      <use xlink:href="#DejaVuSans-69" transform="translate(482.470703 0)"/>
      <use xlink:href="#DejaVuSans-74" transform="translate(510.253906 0)"/>
      <use xlink:href="#DejaVuSans-79" transform="translate(549.462891 0)"/>
      <use xlink:href="#DejaVuSans-20" transform="translate(608.642578 0)"/>
      <use xlink:href="#DejaVuSans-28" transform="translate(640.429688 0)"/>
      <use xlink:href="#DejaVuSans-6e" transform="translate(679.443359 0)"/>
      <use xlink:href="#DejaVuSans-6f" transform="translate(742.822266 0)"/>
      <use xlink:href="#DejaVuSans-72" transform="translate(804.003906 0)"/>
      <use xlink:href="#DejaVuSans-6d" transform="translate(843.367188 0)"/>
      <use xlink:href="#DejaVuSans-61" transform="translate(940.779297 0)"/>
      <use xlink:href="#DejaVuSans-6c" transform="translate(1002.058594 0)"/>
      <use xlink:href="#DejaVuSans-69" transform="translate(1029.841797 0)"/>
      <use xlink:href="#DejaVuSans-7a" transform="translate(1057.625 0)"/>
      <use xlink:href="#DejaVuSans-65" transform="translate(1110.115234 0)"/>
      <use xlink:href="#DejaVuSans-64" transform="translate(1171.638672 0)"/>
      <use xlink:href="#DejaVuSans-29" transform="translate(1235.115234 0)"/>
     </g>
    </g>
    <g id="line2d_16">
     <path d="M 687.971875 54.656562 
L 697.971875 54.656562 
L 707.971875 54.656562 
" style="fill: none; stroke: #008000; stroke-width: 1.5; stroke-linecap: square"/>
    </g>
    <g id="text_18">
     <!-- MS Intensity (normalized) -->
     <g transform="translate(715.971875 58.156562) scale(0.1 -0.1)">
      <use xlink:href="#DejaVuSans-4d"/>
      <use xlink:href="#DejaVuSans-53" transform="translate(86.279297 0)"/>
      <use xlink:href="#DejaVuSans-20" transform="translate(149.755859 0)"/>
      <use xlink:href="#DejaVuSans-49" transform="translate(181.542969 0)"/>
      <use xlink:href="#DejaVuSans-6e" transform="translate(211.035156 0)"/>
      <use xlink:href="#DejaVuSans-74" transform="translate(274.414062 0)"/>
      <use xlink:href="#DejaVuSans-65" transform="translate(313.623047 0)"/>
      <use xlink:href="#DejaVuSans-6e" transform="translate(375.146484 0)"/>
      <use xlink:href="#DejaVuSans-73" transform="translate(438.525391 0)"/>
      <use xlink:href="#DejaVuSans-69" transform="translate(490.625 0)"/>
      <use xlink:href="#DejaVuSans-74" transform="translate(518.408203 0)"/>
      <use xlink:href="#DejaVuSans-79" transform="translate(557.617188 0)"/>
      <use xlink:href="#DejaVuSans-20" transform="translate(616.796875 0)"/>
      <use xlink:href="#DejaVuSans-28" transform="translate(648.583984 0)"/>
      <use xlink:href="#DejaVuSans-6e" transform="translate(687.597656 0)"/>
      <use xlink:href="#DejaVuSans-6f" transform="translate(750.976562 0)"/>
      <use xlink:href="#DejaVuSans-72" transform="translate(812.158203 0)"/>
      <use xlink:href="#DejaVuSans-6d" transform="translate(851.521484 0)"/>
      <use xlink:href="#DejaVuSans-61" transform="translate(948.933594 0)"/>
      <use xlink:href="#DejaVuSans-6c" transform="translate(1010.212891 0)"/>
      <use xlink:href="#DejaVuSans-69" transform="translate(1037.996094 0)"/>
      <use xlink:href="#DejaVuSans-7a" transform="translate(1065.779297 0)"/>
      <use xlink:href="#DejaVuSans-65" transform="translate(1118.269531 0)"/>
      <use xlink:href="#DejaVuSans-64" transform="translate(1179.792969 0)"/>
      <use xlink:href="#DejaVuSans-29" transform="translate(1243.269531 0)"/>
     </g>
    </g>
   </g>
  </g>
 </g>
 <defs>
  <clipPath id="p6e509fad28">
   <rect x="47.72" y="26.88" width="805.48" height="507.16"/>
  </clipPath>
 </defs>
</svg>
