<?xml version="1.0" encoding="utf-8" standalone="no"?>
<!DOCTYPE svg PUBLIC "-//W3C//DTD SVG 1.1//EN"
  "http://www.w3.org/Graphics/SVG/1.1/DTD/svg11.dtd">
<svg xmlns:xlink="http://www.w3.org/1999/xlink" width="864pt" height="576pt" viewBox="0 0 864 576" xmlns="http://www.w3.org/2000/svg" version="1.1">
 <metadata>
  <rdf:RDF xmlns:dc="http://purl.org/dc/elements/1.1/" xmlns:cc="http://creativecommons.org/ns#" xmlns:rdf="http://www.w3.org/1999/02/22-rdf-syntax-ns#">
   <cc:Work>
    <dc:type rdf:resource="http://purl.org/dc/dcmitype/StillImage"/>
    <dc:date>2025-03-06T18:11:34.957644</dc:date>
    <dc:format>image/svg+xml</dc:format>
    <dc:creator>
     <cc:Agent>
      <dc:title>Matplotlib v3.10.0, https://matplotlib.org/</dc:title>
     </cc:Agent>
    </dc:creator>
   </cc:Work>
  </rdf:RDF>
 </metadata>
 <defs>
  <style type="text/css">*{stroke-linejoin: round; stroke-linecap: butt}</style>
 </defs>
 <g id="figure_1">
  <g id="patch_1">
   <path d="M 0 576 
L 864 576 
L 864 0 
L 0 0 
z
" style="fill: #ffffff"/>
  </g>
  <g id="axes_1">
   <g id="patch_2">
    <path d="M 47.72 534.04 
L 853.2 534.04 
L 853.2 26.88 
L 47.72 26.88 
z
" style="fill: #ffffff"/>
   </g>
   <g id="matplotlib.axis_1">
    <g id="xtick_1">
     <g id="line2d_1">
      <defs>
       <path id="m272d27b2d8" d="M 0 0 
L 0 3.5 
" style="stroke: #000000; stroke-width: 0.8"/>
      </defs>
      <g>
       <use xlink:href="#m272d27b2d8" x="83.098041" y="534.04" style="stroke: #000000; stroke-width: 0.8"/>
      </g>
     </g>
     <g id="text_1">
      <!-- 0 -->
      <g transform="translate(79.916791 548.638438) scale(0.1 -0.1)">
       <defs>
        <path id="DejaVuSans-30" d="M 2034 4250 
Q 1547 4250 1301 3770 
Q 1056 3291 1056 2328 
Q 1056 1369 1301 889 
Q 1547 409 2034 409 
Q 2525 409 2770 889 
Q 3016 1369 3016 2328 
Q 3016 3291 2770 3770 
Q 2525 4250 2034 4250 
z
M 2034 4750 
Q 2819 4750 3233 4129 
Q 3647 3509 3647 2328 
Q 3647 1150 3233 529 
Q 2819 -91 2034 -91 
Q 1250 -91 836 529 
Q 422 1150 422 2328 
Q 422 3509 836 4129 
Q 1250 4750 2034 4750 
z
" transform="scale(0.015625)"/>
       </defs>
       <use xlink:href="#DejaVuSans-30"/>
      </g>
     </g>
    </g>
    <g id="xtick_2">
     <g id="line2d_2">
      <g>
       <use xlink:href="#m272d27b2d8" x="229.793442" y="534.04" style="stroke: #000000; stroke-width: 0.8"/>
      </g>
     </g>
     <g id="text_2">
      <!-- 1 -->
      <g transform="translate(226.612192 548.638438) scale(0.1 -0.1)">
       <defs>
        <path id="DejaVuSans-31" d="M 794 531 
L 1825 531 
L 1825 4091 
L 703 3866 
L 703 4441 
L 1819 4666 
L 2450 4666 
L 2450 531 
L 3481 531 
L 3481 0 
L 794 0 
L 794 531 
z
" transform="scale(0.015625)"/>
       </defs>
       <use xlink:href="#DejaVuSans-31"/>
      </g>
     </g>
    </g>
    <g id="xtick_3">
     <g id="line2d_3">
      <g>
       <use xlink:href="#m272d27b2d8" x="376.488844" y="534.04" style="stroke: #000000; stroke-width: 0.8"/>
      </g>
     </g>
     <g id="text_3">
      <!-- 2 -->
      <g transform="translate(373.307594 548.638438) scale(0.1 -0.1)">
       <defs>
        <path id="DejaVuSans-32" d="M 1228 531 
L 3431 531 
L 3431 0 
L 469 0 
L 469 531 
Q 828 903 1448 1529 
Q 2069 2156 2228 2338 
Q 2531 2678 2651 2914 
Q 2772 3150 2772 3378 
Q 2772 3750 2511 3984 
Q 2250 4219 1831 4219 
Q 1534 4219 1204 4116 
Q 875 4013 500 3803 
L 500 4441 
Q 881 4594 1212 4672 
Q 1544 4750 1819 4750 
Q 2544 4750 2975 4387 
Q 3406 4025 3406 3419 
Q 3406 3131 3298 2873 
Q 3191 2616 2906 2266 
Q 2828 2175 2409 1742 
Q 1991 1309 1228 531 
z
" transform="scale(0.015625)"/>
       </defs>
       <use xlink:href="#DejaVuSans-32"/>
      </g>
     </g>
    </g>
    <g id="xtick_4">
     <g id="line2d_4">
      <g>
       <use xlink:href="#m272d27b2d8" x="523.184245" y="534.04" style="stroke: #000000; stroke-width: 0.8"/>
      </g>
     </g>
     <g id="text_4">
      <!-- 3 -->
      <g transform="translate(520.002995 548.638438) scale(0.1 -0.1)">
       <defs>
        <path id="DejaVuSans-33" d="M 2597 2516 
Q 3050 2419 3304 2112 
Q 3559 1806 3559 1356 
Q 3559 666 3084 287 
Q 2609 -91 1734 -91 
Q 1441 -91 1130 -33 
Q 819 25 488 141 
L 488 750 
Q 750 597 1062 519 
Q 1375 441 1716 441 
Q 2309 441 2620 675 
Q 2931 909 2931 1356 
Q 2931 1769 2642 2001 
Q 2353 2234 1838 2234 
L 1294 2234 
L 1294 2753 
L 1863 2753 
Q 2328 2753 2575 2939 
Q 2822 3125 2822 3475 
Q 2822 3834 2567 4026 
Q 2313 4219 1838 4219 
Q 1578 4219 1281 4162 
Q 984 4106 628 3988 
L 628 4550 
Q 988 4650 1302 4700 
Q 1616 4750 1894 4750 
Q 2613 4750 3031 4423 
Q 3450 4097 3450 3541 
Q 3450 3153 3228 2886 
Q 3006 2619 2597 2516 
z
" transform="scale(0.015625)"/>
       </defs>
       <use xlink:href="#DejaVuSans-33"/>
      </g>
     </g>
    </g>
    <g id="xtick_5">
     <g id="line2d_5">
      <g>
       <use xlink:href="#m272d27b2d8" x="669.879647" y="534.04" style="stroke: #000000; stroke-width: 0.8"/>
      </g>
     </g>
     <g id="text_5">
      <!-- 4 -->
      <g transform="translate(666.698397 548.638438) scale(0.1 -0.1)">
       <defs>
        <path id="DejaVuSans-34" d="M 2419 4116 
L 825 1625 
L 2419 1625 
L 2419 4116 
z
M 2253 4666 
L 3047 4666 
L 3047 1625 
L 3713 1625 
L 3713 1100 
L 3047 1100 
L 3047 0 
L 2419 0 
L 2419 1100 
L 313 1100 
L 313 1709 
L 2253 4666 
z
" transform="scale(0.015625)"/>
       </defs>
       <use xlink:href="#DejaVuSans-34"/>
      </g>
     </g>
    </g>
    <g id="xtick_6">
     <g id="line2d_6">
      <g>
       <use xlink:href="#m272d27b2d8" x="816.575048" y="534.04" style="stroke: #000000; stroke-width: 0.8"/>
      </g>
     </g>
     <g id="text_6">
      <!-- 5 -->
      <g transform="translate(813.393798 548.638438) scale(0.1 -0.1)">
       <defs>
        <path id="DejaVuSans-35" d="M 691 4666 
L 3169 4666 
L 3169 4134 
L 1269 4134 
L 1269 2991 
Q 1406 3038 1543 3061 
Q 1681 3084 1819 3084 
Q 2600 3084 3056 2656 
Q 3513 2228 3513 1497 
Q 3513 744 3044 326 
Q 2575 -91 1722 -91 
Q 1428 -91 1123 -41 
Q 819 9 494 109 
L 494 744 
Q 775 591 1075 516 
Q 1375 441 1709 441 
Q 2250 441 2565 725 
Q 2881 1009 2881 1497 
Q 2881 1984 2565 2268 
Q 2250 2553 1709 2553 
Q 1456 2553 1204 2497 
Q 953 2441 691 2322 
L 691 4666 
z
" transform="scale(0.015625)"/>
       </defs>
       <use xlink:href="#DejaVuSans-35"/>
      </g>
     </g>
    </g>
    <g id="text_7">
     <!-- Retention Time (min) -->
     <g transform="translate(397.61 562.316562) scale(0.1 -0.1)">
      <defs>
       <path id="DejaVuSans-52" d="M 2841 2188 
Q 3044 2119 3236 1894 
Q 3428 1669 3622 1275 
L 4263 0 
L 3584 0 
L 2988 1197 
Q 2756 1666 2539 1819 
Q 2322 1972 1947 1972 
L 1259 1972 
L 1259 0 
L 628 0 
L 628 4666 
L 2053 4666 
Q 2853 4666 3247 4331 
Q 3641 3997 3641 3322 
Q 3641 2881 3436 2590 
Q 3231 2300 2841 2188 
z
M 1259 4147 
L 1259 2491 
L 2053 2491 
Q 2509 2491 2742 2702 
Q 2975 2913 2975 3322 
Q 2975 3731 2742 3939 
Q 2509 4147 2053 4147 
L 1259 4147 
z
" transform="scale(0.015625)"/>
       <path id="DejaVuSans-65" d="M 3597 1894 
L 3597 1613 
L 953 1613 
Q 991 1019 1311 708 
Q 1631 397 2203 397 
Q 2534 397 2845 478 
Q 3156 559 3463 722 
L 3463 178 
Q 3153 47 2828 -22 
Q 2503 -91 2169 -91 
Q 1331 -91 842 396 
Q 353 884 353 1716 
Q 353 2575 817 3079 
Q 1281 3584 2069 3584 
Q 2775 3584 3186 3129 
Q 3597 2675 3597 1894 
z
M 3022 2063 
Q 3016 2534 2758 2815 
Q 2500 3097 2075 3097 
Q 1594 3097 1305 2825 
Q 1016 2553 972 2059 
L 3022 2063 
z
" transform="scale(0.015625)"/>
       <path id="DejaVuSans-74" d="M 1172 4494 
L 1172 3500 
L 2356 3500 
L 2356 3053 
L 1172 3053 
L 1172 1153 
Q 1172 725 1289 603 
Q 1406 481 1766 481 
L 2356 481 
L 2356 0 
L 1766 0 
Q 1100 0 847 248 
Q 594 497 594 1153 
L 594 3053 
L 172 3053 
L 172 3500 
L 594 3500 
L 594 4494 
L 1172 4494 
z
" transform="scale(0.015625)"/>
       <path id="DejaVuSans-6e" d="M 3513 2113 
L 3513 0 
L 2938 0 
L 2938 2094 
Q 2938 2591 2744 2837 
Q 2550 3084 2163 3084 
Q 1697 3084 1428 2787 
Q 1159 2491 1159 1978 
L 1159 0 
L 581 0 
L 581 3500 
L 1159 3500 
L 1159 2956 
Q 1366 3272 1645 3428 
Q 1925 3584 2291 3584 
Q 2894 3584 3203 3211 
Q 3513 2838 3513 2113 
z
" transform="scale(0.015625)"/>
       <path id="DejaVuSans-69" d="M 603 3500 
L 1178 3500 
L 1178 0 
L 603 0 
L 603 3500 
z
M 603 4863 
L 1178 4863 
L 1178 4134 
L 603 4134 
L 603 4863 
z
" transform="scale(0.015625)"/>
       <path id="DejaVuSans-6f" d="M 1959 3097 
Q 1497 3097 1228 2736 
Q 959 2375 959 1747 
Q 959 1119 1226 758 
Q 1494 397 1959 397 
Q 2419 397 2687 759 
Q 2956 1122 2956 1747 
Q 2956 2369 2687 2733 
Q 2419 3097 1959 3097 
z
M 1959 3584 
Q 2709 3584 3137 3096 
Q 3566 2609 3566 1747 
Q 3566 888 3137 398 
Q 2709 -91 1959 -91 
Q 1206 -91 779 398 
Q 353 888 353 1747 
Q 353 2609 779 3096 
Q 1206 3584 1959 3584 
z
" transform="scale(0.015625)"/>
       <path id="DejaVuSans-20" transform="scale(0.015625)"/>
       <path id="DejaVuSans-54" d="M -19 4666 
L 3928 4666 
L 3928 4134 
L 2272 4134 
L 2272 0 
L 1638 0 
L 1638 4134 
L -19 4134 
L -19 4666 
z
" transform="scale(0.015625)"/>
       <path id="DejaVuSans-6d" d="M 3328 2828 
Q 3544 3216 3844 3400 
Q 4144 3584 4550 3584 
Q 5097 3584 5394 3201 
Q 5691 2819 5691 2113 
L 5691 0 
L 5113 0 
L 5113 2094 
Q 5113 2597 4934 2840 
Q 4756 3084 4391 3084 
Q 3944 3084 3684 2787 
Q 3425 2491 3425 1978 
L 3425 0 
L 2847 0 
L 2847 2094 
Q 2847 2600 2669 2842 
Q 2491 3084 2119 3084 
Q 1678 3084 1418 2786 
Q 1159 2488 1159 1978 
L 1159 0 
L 581 0 
L 581 3500 
L 1159 3500 
L 1159 2956 
Q 1356 3278 1631 3431 
Q 1906 3584 2284 3584 
Q 2666 3584 2933 3390 
Q 3200 3197 3328 2828 
z
" transform="scale(0.015625)"/>
       <path id="DejaVuSans-28" d="M 1984 4856 
Q 1566 4138 1362 3434 
Q 1159 2731 1159 2009 
Q 1159 1288 1364 580 
Q 1569 -128 1984 -844 
L 1484 -844 
Q 1016 -109 783 600 
Q 550 1309 550 2009 
Q 550 2706 781 3412 
Q 1013 4119 1484 4856 
L 1984 4856 
z
" transform="scale(0.015625)"/>
       <path id="DejaVuSans-29" d="M 513 4856 
L 1013 4856 
Q 1481 4119 1714 3412 
Q 1947 2706 1947 2009 
Q 1947 1309 1714 600 
Q 1481 -109 1013 -844 
L 513 -844 
Q 928 -128 1133 580 
Q 1338 1288 1338 2009 
Q 1338 2731 1133 3434 
Q 928 4138 513 4856 
z
" transform="scale(0.015625)"/>
      </defs>
      <use xlink:href="#DejaVuSans-52"/>
      <use xlink:href="#DejaVuSans-65" transform="translate(64.982422 0)"/>
      <use xlink:href="#DejaVuSans-74" transform="translate(126.505859 0)"/>
      <use xlink:href="#DejaVuSans-65" transform="translate(165.714844 0)"/>
      <use xlink:href="#DejaVuSans-6e" transform="translate(227.238281 0)"/>
      <use xlink:href="#DejaVuSans-74" transform="translate(290.617188 0)"/>
      <use xlink:href="#DejaVuSans-69" transform="translate(329.826172 0)"/>
      <use xlink:href="#DejaVuSans-6f" transform="translate(357.609375 0)"/>
      <use xlink:href="#DejaVuSans-6e" transform="translate(418.791016 0)"/>
      <use xlink:href="#DejaVuSans-20" transform="translate(482.169922 0)"/>
      <use xlink:href="#DejaVuSans-54" transform="translate(513.957031 0)"/>
      <use xlink:href="#DejaVuSans-69" transform="translate(571.916016 0)"/>
      <use xlink:href="#DejaVuSans-6d" transform="translate(599.699219 0)"/>
      <use xlink:href="#DejaVuSans-65" transform="translate(697.111328 0)"/>
      <use xlink:href="#DejaVuSans-20" transform="translate(758.634766 0)"/>
      <use xlink:href="#DejaVuSans-28" transform="translate(790.421875 0)"/>
      <use xlink:href="#DejaVuSans-6d" transform="translate(829.435547 0)"/>
      <use xlink:href="#DejaVuSans-69" transform="translate(926.847656 0)"/>
      <use xlink:href="#DejaVuSans-6e" transform="translate(954.630859 0)"/>
      <use xlink:href="#DejaVuSans-29" transform="translate(1018.009766 0)"/>
     </g>
    </g>
   </g>
   <g id="matplotlib.axis_2">
    <g id="ytick_1">
     <g id="line2d_7">
      <defs>
       <path id="m70f0a85be9" d="M 0 0 
L -3.5 0 
" style="stroke: #000000; stroke-width: 0.8"/>
      </defs>
      <g>
       <use xlink:href="#m70f0a85be9" x="47.72" y="510.987273" style="stroke: #000000; stroke-width: 0.8"/>
      </g>
     </g>
     <g id="text_8">
      <!-- 0.0 -->
      <g style="fill: #0000ff" transform="translate(24.816875 514.786491) scale(0.1 -0.1)">
       <defs>
        <path id="DejaVuSans-2e" d="M 684 794 
L 1344 794 
L 1344 0 
L 684 0 
L 684 794 
z
" transform="scale(0.015625)"/>
       </defs>
       <use xlink:href="#DejaVuSans-30"/>
       <use xlink:href="#DejaVuSans-2e" transform="translate(63.623047 0)"/>
       <use xlink:href="#DejaVuSans-30" transform="translate(95.410156 0)"/>
      </g>
     </g>
    </g>
    <g id="ytick_2">
     <g id="line2d_8">
      <g>
       <use xlink:href="#m70f0a85be9" x="47.72" y="418.776364" style="stroke: #000000; stroke-width: 0.8"/>
      </g>
     </g>
     <g id="text_9">
      <!-- 0.5 -->
      <g style="fill: #0000ff" transform="translate(24.816875 422.575582) scale(0.1 -0.1)">
       <use xlink:href="#DejaVuSans-30"/>
       <use xlink:href="#DejaVuSans-2e" transform="translate(63.623047 0)"/>
       <use xlink:href="#DejaVuSans-35" transform="translate(95.410156 0)"/>
      </g>
     </g>
    </g>
    <g id="ytick_3">
     <g id="line2d_9">
      <g>
       <use xlink:href="#m70f0a85be9" x="47.72" y="326.565455" style="stroke: #000000; stroke-width: 0.8"/>
      </g>
     </g>
     <g id="text_10">
      <!-- 1.0 -->
      <g style="fill: #0000ff" transform="translate(24.816875 330.364673) scale(0.1 -0.1)">
       <use xlink:href="#DejaVuSans-31"/>
       <use xlink:href="#DejaVuSans-2e" transform="translate(63.623047 0)"/>
       <use xlink:href="#DejaVuSans-30" transform="translate(95.410156 0)"/>
      </g>
     </g>
    </g>
    <g id="ytick_4">
     <g id="line2d_10">
      <g>
       <use xlink:href="#m70f0a85be9" x="47.72" y="234.354545" style="stroke: #000000; stroke-width: 0.8"/>
      </g>
     </g>
     <g id="text_11">
      <!-- 1.5 -->
      <g style="fill: #0000ff" transform="translate(24.816875 238.153764) scale(0.1 -0.1)">
       <use xlink:href="#DejaVuSans-31"/>
       <use xlink:href="#DejaVuSans-2e" transform="translate(63.623047 0)"/>
       <use xlink:href="#DejaVuSans-35" transform="translate(95.410156 0)"/>
      </g>
     </g>
    </g>
    <g id="ytick_5">
     <g id="line2d_11">
      <g>
       <use xlink:href="#m70f0a85be9" x="47.72" y="142.143636" style="stroke: #000000; stroke-width: 0.8"/>
      </g>
     </g>
     <g id="text_12">
      <!-- 2.0 -->
      <g style="fill: #0000ff" transform="translate(24.816875 145.942855) scale(0.1 -0.1)">
       <use xlink:href="#DejaVuSans-32"/>
       <use xlink:href="#DejaVuSans-2e" transform="translate(63.623047 0)"/>
       <use xlink:href="#DejaVuSans-30" transform="translate(95.410156 0)"/>
      </g>
     </g>
    </g>
    <g id="ytick_6">
     <g id="line2d_12">
      <g>
       <use xlink:href="#m70f0a85be9" x="47.72" y="49.932727" style="stroke: #000000; stroke-width: 0.8"/>
      </g>
     </g>
     <g id="text_13">
      <!-- 2.5 -->
      <g style="fill: #0000ff" transform="translate(24.816875 53.731946) scale(0.1 -0.1)">
       <use xlink:href="#DejaVuSans-32"/>
       <use xlink:href="#DejaVuSans-2e" transform="translate(63.623047 0)"/>
       <use xlink:href="#DejaVuSans-35" transform="translate(95.410156 0)"/>
      </g>
     </g>
    </g>
    <g id="text_14">
     <!-- Normalized Intensity -->
     <g style="fill: #0000ff" transform="translate(18.737187 332.167031) rotate(-90) scale(0.1 -0.1)">
      <defs>
       <path id="DejaVuSans-4e" d="M 628 4666 
L 1478 4666 
L 3547 763 
L 3547 4666 
L 4159 4666 
L 4159 0 
L 3309 0 
L 1241 3903 
L 1241 0 
L 628 0 
L 628 4666 
z
" transform="scale(0.015625)"/>
       <path id="DejaVuSans-72" d="M 2631 2963 
Q 2534 3019 2420 3045 
Q 2306 3072 2169 3072 
Q 1681 3072 1420 2755 
Q 1159 2438 1159 1844 
L 1159 0 
L 581 0 
L 581 3500 
L 1159 3500 
L 1159 2956 
Q 1341 3275 1631 3429 
Q 1922 3584 2338 3584 
Q 2397 3584 2469 3576 
Q 2541 3569 2628 3553 
L 2631 2963 
z
" transform="scale(0.015625)"/>
       <path id="DejaVuSans-61" d="M 2194 1759 
Q 1497 1759 1228 1600 
Q 959 1441 959 1056 
Q 959 750 1161 570 
Q 1363 391 1709 391 
Q 2188 391 2477 730 
Q 2766 1069 2766 1631 
L 2766 1759 
L 2194 1759 
z
M 3341 1997 
L 3341 0 
L 2766 0 
L 2766 531 
Q 2569 213 2275 61 
Q 1981 -91 1556 -91 
Q 1019 -91 701 211 
Q 384 513 384 1019 
Q 384 1609 779 1909 
Q 1175 2209 1959 2209 
L 2766 2209 
L 2766 2266 
Q 2766 2663 2505 2880 
Q 2244 3097 1772 3097 
Q 1472 3097 1187 3025 
Q 903 2953 641 2809 
L 641 3341 
Q 956 3463 1253 3523 
Q 1550 3584 1831 3584 
Q 2591 3584 2966 3190 
Q 3341 2797 3341 1997 
z
" transform="scale(0.015625)"/>
       <path id="DejaVuSans-6c" d="M 603 4863 
L 1178 4863 
L 1178 0 
L 603 0 
L 603 4863 
z
" transform="scale(0.015625)"/>
       <path id="DejaVuSans-7a" d="M 353 3500 
L 3084 3500 
L 3084 2975 
L 922 459 
L 3084 459 
L 3084 0 
L 275 0 
L 275 525 
L 2438 3041 
L 353 3041 
L 353 3500 
z
" transform="scale(0.015625)"/>
       <path id="DejaVuSans-64" d="M 2906 2969 
L 2906 4863 
L 3481 4863 
L 3481 0 
L 2906 0 
L 2906 525 
Q 2725 213 2448 61 
Q 2172 -91 1784 -91 
Q 1150 -91 751 415 
Q 353 922 353 1747 
Q 353 2572 751 3078 
Q 1150 3584 1784 3584 
Q 2172 3584 2448 3432 
Q 2725 3281 2906 2969 
z
M 947 1747 
Q 947 1113 1208 752 
Q 1469 391 1925 391 
Q 2381 391 2643 752 
Q 2906 1113 2906 1747 
Q 2906 2381 2643 2742 
Q 2381 3103 1925 3103 
Q 1469 3103 1208 2742 
Q 947 2381 947 1747 
z
" transform="scale(0.015625)"/>
       <path id="DejaVuSans-49" d="M 628 4666 
L 1259 4666 
L 1259 0 
L 628 0 
L 628 4666 
z
" transform="scale(0.015625)"/>
       <path id="DejaVuSans-73" d="M 2834 3397 
L 2834 2853 
Q 2591 2978 2328 3040 
Q 2066 3103 1784 3103 
Q 1356 3103 1142 2972 
Q 928 2841 928 2578 
Q 928 2378 1081 2264 
Q 1234 2150 1697 2047 
L 1894 2003 
Q 2506 1872 2764 1633 
Q 3022 1394 3022 966 
Q 3022 478 2636 193 
Q 2250 -91 1575 -91 
Q 1294 -91 989 -36 
Q 684 19 347 128 
L 347 722 
Q 666 556 975 473 
Q 1284 391 1588 391 
Q 1994 391 2212 530 
Q 2431 669 2431 922 
Q 2431 1156 2273 1281 
Q 2116 1406 1581 1522 
L 1381 1569 
Q 847 1681 609 1914 
Q 372 2147 372 2553 
Q 372 3047 722 3315 
Q 1072 3584 1716 3584 
Q 2034 3584 2315 3537 
Q 2597 3491 2834 3397 
z
" transform="scale(0.015625)"/>
       <path id="DejaVuSans-79" d="M 2059 -325 
Q 1816 -950 1584 -1140 
Q 1353 -1331 966 -1331 
L 506 -1331 
L 506 -850 
L 844 -850 
Q 1081 -850 1212 -737 
Q 1344 -625 1503 -206 
L 1606 56 
L 191 3500 
L 800 3500 
L 1894 763 
L 2988 3500 
L 3597 3500 
L 2059 -325 
z
" transform="scale(0.015625)"/>
      </defs>
      <use xlink:href="#DejaVuSans-4e"/>
      <use xlink:href="#DejaVuSans-6f" transform="translate(74.804688 0)"/>
      <use xlink:href="#DejaVuSans-72" transform="translate(135.986328 0)"/>
      <use xlink:href="#DejaVuSans-6d" transform="translate(175.349609 0)"/>
      <use xlink:href="#DejaVuSans-61" transform="translate(272.761719 0)"/>
      <use xlink:href="#DejaVuSans-6c" transform="translate(334.041016 0)"/>
      <use xlink:href="#DejaVuSans-69" transform="translate(361.824219 0)"/>
      <use xlink:href="#DejaVuSans-7a" transform="translate(389.607422 0)"/>
      <use xlink:href="#DejaVuSans-65" transform="translate(442.097656 0)"/>
      <use xlink:href="#DejaVuSans-64" transform="translate(503.621094 0)"/>
      <use xlink:href="#DejaVuSans-20" transform="translate(567.097656 0)"/>
      <use xlink:href="#DejaVuSans-49" transform="translate(598.884766 0)"/>
      <use xlink:href="#DejaVuSans-6e" transform="translate(628.376953 0)"/>
      <use xlink:href="#DejaVuSans-74" transform="translate(691.755859 0)"/>
      <use xlink:href="#DejaVuSans-65" transform="translate(730.964844 0)"/>
      <use xlink:href="#DejaVuSans-6e" transform="translate(792.488281 0)"/>
      <use xlink:href="#DejaVuSans-73" transform="translate(855.867188 0)"/>
      <use xlink:href="#DejaVuSans-69" transform="translate(907.966797 0)"/>
      <use xlink:href="#DejaVuSans-74" transform="translate(935.75 0)"/>
      <use xlink:href="#DejaVuSans-79" transform="translate(974.958984 0)"/>
     </g>
    </g>
   </g>
   <g id="line2d_13">
    <path d="M 84.332727 510.987273 
L 90.445036 510.906481 
L 94.112421 510.674164 
L 116.116731 510.973221 
L 140.565964 510.761221 
L 145.455811 510.498652 
L 147.900735 510.372148 
L 149.123196 510.114819 
L 150.345658 509.603658 
L 151.56812 508.820292 
L 154.013043 507.031315 
L 155.235505 506.516567 
L 156.457966 506.433006 
L 157.680428 506.691065 
L 161.347813 507.834732 
L 162.570275 508.031863 
L 163.792736 508.103241 
L 165.015198 508.027279 
L 167.460121 507.444912 
L 168.682583 507.110028 
L 169.905045 506.9223 
L 171.127506 506.954429 
L 172.349968 507.192321 
L 177.239815 508.638663 
L 179.684738 508.806804 
L 183.352123 508.723238 
L 184.574585 508.598749 
L 185.797047 508.314369 
L 189.464432 506.78509 
L 190.686893 506.614652 
L 191.909355 506.772295 
L 196.799202 508.300749 
L 199.244125 508.62137 
L 207.801357 509.167865 
L 210.24628 509.331951 
L 213.913665 509.376934 
L 216.358589 509.179448 
L 218.803512 508.925609 
L 220.025974 509.012876 
L 222.470897 509.587613 
L 224.91582 510.151005 
L 226.138282 510.301675 
L 227.360744 510.309847 
L 228.583205 510.051658 
L 229.805667 509.349374 
L 231.028129 508.140539 
L 232.25059 506.6537 
L 233.473052 505.361533 
L 234.695514 504.706893 
L 235.917975 504.84755 
L 237.140437 505.617801 
L 239.58536 507.719514 
L 240.807822 508.545607 
L 242.030284 509.110366 
L 243.252745 509.455043 
L 245.697669 509.7732 
L 251.809977 510.122713 
L 257.922286 510.285696 
L 281.149058 510.324284 
L 283.593981 510.111374 
L 287.261366 509.564066 
L 289.706289 509.548751 
L 297.041059 510.13059 
L 300.708444 510.009382 
L 303.153368 509.948393 
L 312.933061 510.150048 
L 314.155523 509.992923 
L 316.600446 509.32936 
L 317.822908 508.965943 
L 319.04537 508.759299 
L 320.267831 508.775121 
L 322.712755 509.227088 
L 325.157678 509.646913 
L 328.825063 509.957351 
L 333.71491 510.122447 
L 341.04968 510.146398 
L 343.494603 509.960493 
L 345.939526 509.802453 
L 348.38445 510.050834 
L 350.829373 510.358597 
L 353.274297 510.420807 
L 354.496758 510.307531 
L 355.71922 509.929972 
L 356.941682 509.08245 
L 359.386605 506.366503 
L 360.609067 505.384217 
L 361.831528 505.107783 
L 363.05399 505.458104 
L 366.721375 507.442913 
L 367.943837 507.825796 
L 369.166298 508.009782 
L 370.38876 508.004846 
L 372.833683 507.584663 
L 374.056145 507.376874 
L 375.278607 507.305872 
L 380.168453 507.499363 
L 383.835839 506.915977 
L 385.0583 506.945533 
L 389.948147 507.565623 
L 391.170609 507.441243 
L 392.39307 507.035337 
L 393.615532 505.459478 
L 394.837994 498.984121 
L 396.060455 480.31586 
L 397.282917 444.085093 
L 399.72784 350.533788 
L 400.950302 326.565455 
L 402.172764 330.410117 
L 403.395225 356.437177 
L 405.840149 427.008109 
L 407.06261 453.955516 
L 408.285072 472.005413 
L 409.507534 482.85409 
L 410.729995 488.962336 
L 411.952457 492.297481 
L 413.174919 494.023382 
L 414.39738 494.693862 
L 415.619842 494.547124 
L 416.842304 493.807265 
L 418.064766 492.919242 
L 419.287227 492.466638 
L 420.509689 492.755823 
L 421.732151 493.468192 
L 422.954612 493.838798 
L 424.177074 493.387932 
L 425.399536 492.503526 
L 426.621997 492.141403 
L 427.844459 492.972149 
L 429.066921 494.9175 
L 431.511844 499.661199 
L 432.734306 501.395965 
L 433.956767 502.51122 
L 435.179229 503.171775 
L 436.401691 503.583318 
L 437.624152 503.85427 
L 438.846614 503.985515 
L 440.069076 503.929641 
L 441.291537 503.554922 
L 442.513999 502.491682 
L 443.736461 499.804977 
L 444.958922 492.971313 
L 446.181384 477.205505 
L 447.403846 448.790103 
L 448.626307 411.534007 
L 449.848769 377.845098 
L 451.071231 360.723258 
L 452.293693 364.827902 
L 453.516154 385.074132 
L 455.961078 436.957888 
L 457.183539 456.241756 
L 458.406001 469.302356 
L 459.628463 477.671503 
L 460.850924 483.212038 
L 462.073386 487.272585 
L 463.295848 490.52391 
L 464.518309 493.157905 
L 465.740771 495.17276 
L 466.963233 496.589905 
L 468.185694 497.537266 
L 469.408156 498.196939 
L 473.075541 499.626907 
L 475.520464 500.623024 
L 476.742926 500.922661 
L 477.965388 500.918467 
L 480.410311 500.642551 
L 481.632773 500.867883 
L 482.855234 501.393677 
L 485.300158 502.677746 
L 486.52262 503.170997 
L 488.967543 503.767249 
L 491.412466 504.024629 
L 497.524775 504.105924 
L 498.747236 503.923914 
L 499.969698 503.194261 
L 501.19216 501.686875 
L 502.414621 499.727122 
L 503.637083 498.159727 
L 504.859545 497.672304 
L 506.082006 498.218077 
L 507.304468 499.168807 
L 508.52693 499.956684 
L 512.194315 501.427139 
L 513.416776 501.744701 
L 514.639238 501.573517 
L 515.8617 500.858749 
L 517.084161 500.000212 
L 518.306623 499.564299 
L 519.529085 499.818485 
L 520.751547 500.601475 
L 523.19647 502.438796 
L 524.418932 503.087624 
L 525.641393 503.449644 
L 526.863855 503.517345 
L 529.308778 503.296536 
L 530.53124 503.393432 
L 531.753702 503.727421 
L 535.421087 505.218742 
L 536.643548 505.550471 
L 537.86601 505.723492 
L 540.310933 505.717419 
L 542.755857 505.481603 
L 543.978318 505.249049 
L 545.20078 504.004269 
L 546.423242 497.821865 
L 547.645703 479.351403 
L 548.868165 443.865226 
L 550.090627 397.656472 
L 551.313088 357.448103 
L 552.53555 339.19641 
L 553.758012 347.568765 
L 554.980474 375.1256 
L 556.202935 409.277506 
L 557.425397 439.72701 
L 558.647859 461.753368 
L 559.87032 475.425661 
L 561.092782 483.13273 
L 562.315244 487.489407 
L 563.537705 490.361347 
L 565.982629 495.030314 
L 567.20509 497.193469 
L 568.427552 499.092649 
L 569.650014 500.609003 
L 570.872475 501.736845 
L 572.094937 502.565936 
L 573.317399 503.205125 
L 574.53986 503.708111 
L 575.762322 504.065735 
L 578.207245 504.402151 
L 580.652169 504.739259 
L 585.542015 505.668412 
L 587.986939 505.890634 
L 590.431862 505.798378 
L 594.099247 505.238741 
L 595.321709 505.221823 
L 597.766632 505.591864 
L 600.211556 506.072684 
L 601.434017 506.138846 
L 605.101402 505.851312 
L 607.546326 506.110437 
L 611.213711 506.70374 
L 613.658634 506.872743 
L 617.326019 506.862067 
L 618.548481 506.749597 
L 620.993404 506.163007 
L 622.215866 505.83519 
L 623.438328 505.660094 
L 625.883251 505.774513 
L 628.328174 505.978462 
L 629.550636 505.987746 
L 630.773098 505.877336 
L 634.440483 505.207042 
L 635.662944 505.287198 
L 640.552791 506.368284 
L 642.997714 506.504803 
L 646.665099 506.305137 
L 649.110023 506.244766 
L 651.554946 506.271413 
L 653.999869 506.008277 
L 656.444793 505.562042 
L 657.667255 505.491706 
L 660.112178 505.697024 
L 667.446948 506.605632 
L 669.891871 506.730918 
L 676.00418 506.798172 
L 679.671565 507.100938 
L 683.33895 507.110078 
L 688.228796 507.147512 
L 691.896182 507.186776 
L 699.230952 506.907504 
L 702.898337 506.597714 
L 707.788183 506.027647 
L 710.233107 505.807804 
L 712.67803 505.480735 
L 713.900492 505.477587 
L 716.345415 505.918779 
L 718.790338 506.445621 
L 721.235262 506.656819 
L 729.792494 506.700922 
L 732.237417 506.724424 
L 734.68234 506.340357 
L 735.904802 506.125263 
L 737.127264 506.039754 
L 738.349725 506.120251 
L 743.239572 506.915058 
L 746.906957 507.055026 
L 759.131574 507.024705 
L 761.576497 506.681161 
L 765.243882 506.147565 
L 766.466344 506.133917 
L 768.911267 506.414796 
L 771.356191 506.768058 
L 773.801114 506.865197 
L 779.913422 506.573463 
L 786.025731 506.938546 
L 800.695271 506.93439 
L 816.587273 506.456704 
L 816.587273 506.456704 
" clip-path="url(#p46f9029abd)" style="fill: none; stroke: #0000ff; stroke-width: 1.5; stroke-linecap: square"/>
   </g>
   <g id="line2d_14">
    <path d="M 89.481002 234.230464 
L 89.481002 234.270216 
L 97.083736 234.328261 
L 97.083736 234.338247 
L 127.867277 234.34779 
L 127.867277 234.348124 
L 194.042551 234.327428 
L 194.042551 234.322974 
L 196.343223 234.228458 
L 196.343223 234.243537 
L 197.654436 234.282649 
L 210.148483 234.34084 
L 397.763344 234.157636 
L 397.763344 234.01214 
L 398.1027 234.027674 
L 398.1027 233.823403 
L 398.438877 233.870728 
L 398.438877 233.630354 
L 398.770408 233.69436 
L 398.770408 233.446217 
L 399.098762 233.613038 
L 399.098762 233.432078 
L 399.753757 233.791619 
L 399.753757 233.632192 
L 400.080643 233.808085 
L 400.080643 233.670676 
L 401.060324 233.764688 
L 401.060324 233.774927 
L 401.389899 233.961049 
L 401.389899 233.895631 
L 402.047828 234.018423 
L 402.047828 233.894426 
L 403.679325 233.716925 
L 404.331876 233.898672 
L 404.331876 233.753921 
L 405.637709 233.945391 
L 405.637709 233.779911 
L 405.964106 233.875215 
L 405.964106 233.733359 
L 406.948921 233.758195 
L 406.948921 233.780176 
L 407.930069 233.601415 
L 408.256955 233.772011 
L 408.256955 233.598536 
L 408.583597 233.807913 
L 408.583597 233.673518 
L 409.236881 233.86064 
L 409.236881 233.530656 
L 409.563767 233.653383 
L 409.563767 233.551156 
L 409.890653 233.64017 
L 409.890653 233.456652 
L 410.21754 233.78286 
L 410.21754 233.501157 
L 411.201621 233.420147 
L 411.201621 233.450015 
L 411.534131 233.649464 
L 411.534131 233.399567 
L 411.861261 233.648157 
L 411.861261 233.394585 
L 412.188392 233.607495 
L 412.188392 233.446632 
L 412.515523 233.608751 
L 412.515523 233.389122 
L 412.842654 233.377175 
L 413.170029 233.136479 
L 413.824535 233.399369 
L 414.151666 233.665567 
L 414.151666 233.532104 
L 414.479285 233.674034 
L 414.479285 233.551982 
L 414.808128 233.754461 
L 414.808128 233.499743 
L 415.135503 233.703859 
L 415.135503 233.478967 
L 415.135503 233.552445 
L 415.790987 233.506092 
L 415.790987 233.532983 
L 416.118607 233.346014 
L 416.779469 233.377133 
L 416.779469 233.32682 
L 417.107578 233.607412 
L 417.107578 233.401979 
L 417.435687 233.640502 
L 417.435687 233.488953 
L 417.765018 233.72574 
L 417.765018 233.430019 
L 418.093127 233.636765 
L 418.093127 233.506059 
L 418.420991 233.666116 
L 418.420991 233.536957 
L 418.7491 233.81815 
L 418.7491 233.62432 
L 419.077208 233.752235 
L 419.077208 233.546319 
L 419.405806 233.699943 
L 419.405806 233.530259 
L 419.733915 233.741894 
L 419.733915 233.535592 
L 420.062512 233.716974 
L 420.062512 233.560871 
L 420.391355 233.750468 
L 420.391355 233.614022 
L 420.719708 233.829109 
L 420.719708 233.691489 
L 421.04855 233.831492 
L 421.04855 233.693427 
L 421.387416 233.830777 
L 421.387416 233.650411 
L 421.716259 233.787688 
L 421.716259 233.622501 
L 422.373943 233.840973 
L 422.373943 233.700137 
L 422.703274 233.867359 
L 422.703274 233.693775 
L 423.032605 233.787873 
L 423.032605 233.631666 
L 423.361936 233.795359 
L 423.361936 233.657773 
L 423.692979 233.813537 
L 423.692979 233.672413 
L 424.022799 233.827651 
L 424.022799 233.653182 
L 424.351886 233.792521 
L 424.351886 233.638808 
L 424.681706 233.802571 
L 424.681706 233.666425 
L 425.011282 233.859857 
L 425.011282 233.74403 
L 425.341346 233.909756 
L 425.341346 233.711982 
L 425.670922 233.834269 
L 425.670922 233.65293 
L 426.000253 233.765812 
L 426.000253 233.612218 
L 427.324913 233.879358 
L 427.324913 233.708382 
L 427.654244 233.825217 
L 427.654244 233.675969 
L 427.984553 233.798511 
L 427.984553 233.645147 
L 428.313151 233.813936 
L 428.313151 233.688328 
L 428.641504 233.869895 
L 428.641504 233.713649 
L 428.969857 233.886271 
L 428.969857 233.730597 
L 429.29821 233.888254 
L 429.29821 233.738492 
L 429.629986 233.898435 
L 429.629986 233.788655 
L 429.958584 233.932137 
L 429.958584 233.826101 
L 430.287182 233.953724 
L 430.287182 233.789906 
L 430.61578 233.8761 
L 430.61578 233.715454 
L 430.9456 233.836383 
L 430.9456 233.666746 
L 431.608418 233.850477 
L 431.608418 233.751403 
L 431.93775 233.919833 
L 431.93775 233.818795 
L 432.266592 233.937129 
L 432.266592 233.830398 
L 432.595679 233.925169 
L 432.595679 233.74583 
L 432.925254 233.859161 
L 432.925254 233.707217 
L 433.255074 233.827087 
L 433.255074 233.677758 
L 433.585139 233.837595 
L 433.585139 233.675032 
L 433.915937 233.823606 
L 433.915937 233.673373 
L 434.246491 233.811465 
L 434.246491 233.705283 
L 434.90882 233.900136 
L 434.90882 233.738282 
L 435.573106 233.893306 
L 435.573106 233.767614 
L 435.905371 233.939663 
L 435.905371 233.789676 
L 436.574791 233.894188 
L 436.574791 233.767266 
L 436.907545 233.934433 
L 436.907545 233.843627 
L 437.240299 233.971364 
L 437.240299 233.848027 
L 437.574031 233.984281 
L 437.574031 233.838651 
L 437.907519 233.943138 
L 437.907519 233.805674 
L 438.241007 233.941845 
L 438.241007 233.823553 
L 438.908715 233.980042 
L 438.908715 233.863379 
L 439.583758 233.98221 
L 439.583758 233.89039 
L 439.91749 234.0293 
L 439.91749 233.893147 
L 440.251712 234.004138 
L 440.251712 233.886949 
L 440.586422 233.978744 
L 440.586422 233.852837 
L 441.260976 234.003305 
L 441.260976 233.926854 
L 441.597642 234.039388 
L 441.597642 233.953831 
L 441.934063 234.034104 
L 441.934063 233.913861 
L 442.605684 233.99579 
L 442.605684 233.911169 
L 443.277793 234.016525 
L 443.277793 233.935678 
L 443.951859 234.01069 
L 443.951859 233.919323 
L 444.624946 234.059908 
L 444.624946 233.973488 
L 445.299745 234.069913 
L 445.299745 233.968118 
L 445.635188 234.05782 
L 445.635188 233.941698 
L 445.972588 234.03652 
L 445.972588 233.954357 
L 450.94874 234.286996 
L 461.757502 234.220291 
L 464.053285 234.226166 
L 464.053285 234.239834 
L 467.344641 234.2613 
L 467.344641 234.227429 
L 470.313267 234.19645 
L 470.313267 234.197224 
L 471.30835 234.217531 
L 471.30835 234.195272 
L 472.630076 234.221863 
L 472.630076 234.179668 
L 474.286267 234.209536 
L 474.286267 234.253347 
L 476.279613 234.240275 
L 476.279613 234.198376 
L 477.278853 234.215579 
L 479.284913 234.189148 
L 480.964331 234.199486 
L 480.964331 234.162801 
L 481.966016 234.179252 
L 481.966016 234.124612 
L 484.976939 234.107866 
L 485.648315 234.108372 
L 485.648315 234.138311 
L 485.990849 234.21053 
L 485.990849 234.158996 
L 487.01356 234.123514 
L 487.01356 234.12968 
L 487.690804 234.170988 
L 487.690804 234.112803 
L 488.705447 234.184119 
L 488.705447 234.13713 
L 489.379512 234.182033 
L 489.379512 234.108413 
L 490.7362 234.16925 
L 490.7362 234.121076 
L 498.563378 234.17101 
L 498.563378 234.099462 
L 499.244045 234.13561 
L 499.244045 234.077764 
L 502.31389 234.101532 
L 502.999936 234.177688 
L 502.999936 234.132925 
L 503.676202 234.157184 
L 503.676202 234.097249 
L 509.29757 234.156917 
L 509.29757 234.14819 
L 510.289964 234.110043 
L 510.289964 234.115391 
L 510.952294 234.148288 
L 510.952294 234.087854 
L 514.277145 234.088983 
L 514.939475 234.163371 
L 514.939475 234.103241 
L 515.272473 234.136765 
L 515.272473 234.058187 
L 517.277066 234.052358 
L 517.608109 234.136463 
L 517.608109 234.036002 
L 518.271172 234.086139 
L 518.271172 234.013579 
L 518.932524 234.138432 
L 518.932524 234.081892 
L 519.591186 234.156854 
L 519.591186 234.105713 
L 519.921006 234.165645 
L 519.921006 234.101422 
L 520.909244 234.054622 
L 520.909244 234.081426 
L 521.578909 234.213943 
L 521.578909 234.143074 
L 522.56788 234.164348 
L 522.56788 234.152631 
L 523.889606 234.096978 
L 524.553158 234.118751 
L 524.553158 234.054755 
L 525.548731 234.171748 
L 525.548731 234.089288 
L 525.883441 234.156972 
L 525.883441 234.096297 
L 527.560414 234.077584 
L 527.895124 233.995799 
L 529.235675 234.147525 
L 529.235675 234.052562 
L 529.904117 234.082574 
L 529.904117 234.00448 
L 530.242494 234.092987 
L 530.242494 233.986803 
L 531.242713 233.947073 
L 531.242713 233.954576 
L 531.574244 234.059667 
L 531.574244 233.964398 
L 532.234618 234.054704 
L 532.234618 233.948826 
L 532.896214 234.055742 
L 532.896214 234.001255 
L 533.557077 234.130425 
L 533.557077 234.039571 
L 533.887875 234.107625 
L 533.887875 234.030364 
L 534.553628 233.981747 
L 534.553628 233.99438 
L 534.886137 233.992977 
L 534.886137 234.020862 
L 535.552624 234.168447 
L 535.552624 234.105742 
L 535.887578 234.158791 
L 535.887578 234.079446 
L 536.898309 234.078152 
L 536.898309 234.088852 
L 537.572375 234.154742 
L 537.572375 234.08565 
L 538.581884 234.186679 
L 538.581884 234.130407 
L 539.265973 234.135923 
L 539.265973 234.070278 
L 540.282817 234.167968 
L 540.282817 234.105125 
L 541.307973 234.180687 
L 541.307973 234.132336 
L 541.988884 234.162438 
L 541.988884 234.079595 
L 542.669795 234.090574 
L 542.669795 234.012233 
L 543.350462 234.072281 
L 543.350462 234.004336 
L 544.371462 233.93955 
L 545.052373 234.020587 
L 545.052373 233.944388 
L 545.733773 234.027363 
L 545.733773 233.931953 
L 546.425198 234.015007 
L 546.425198 233.955815 
L 546.764064 234.031668 
L 546.764064 233.941265 
L 547.443997 233.996911 
L 547.443997 233.895404 
L 548.124908 233.91906 
L 548.124908 233.864034 
L 548.464753 233.919644 
L 548.464753 233.864132 
L 548.805331 233.839344 
L 548.805331 233.520324 
L 549.14273 233.359957 
L 549.14273 232.598921 
L 549.482085 232.269872 
L 549.482085 230.254516 
L 549.820952 229.722783 
L 549.820952 225.254079 
L 550.151505 224.17827 
L 550.151505 217.241302 
L 550.479859 217.292804 
L 550.479859 206.37627 
L 550.806989 206.346902 
L 550.806989 192.487969 
L 551.13412 194.275349 
L 551.13412 173.212155 
L 551.466141 177.152986 
L 551.466141 154.517122 
L 551.792782 162.384476 
L 551.792782 138.171948 
L 552.11918 153.987179 
L 552.11918 120.976818 
L 552.445332 135.83583 
L 552.445332 102.461732 
L 552.773686 123.740738 
L 552.773686 82.240655 
L 553.099838 110.725546 
L 553.099838 72.632002 
L 553.425747 101.451361 
L 553.425747 62.365369 
L 553.754833 102.131214 
L 553.754833 63.271174 
L 554.080986 104.043365 
L 554.080986 59.012581 
L 554.407139 93.173961 
L 554.407139 52.69823 
L 554.733292 94.702533 
L 554.733292 49.932727 
L 555.0592 98.30355 
L 555.0592 60.435092 
L 555.385353 98.290145 
L 555.385353 58.515671 
L 555.711261 101.984849 
L 555.711261 68.530191 
L 556.037414 108.819196 
L 556.037414 78.823282 
L 556.36919 119.8855 
L 556.36919 85.123609 
L 556.695343 119.696038 
L 556.695343 89.560788 
L 557.02174 124.472549 
L 557.02174 94.806684 
L 557.34936 130.697445 
L 557.34936 101.815667 
L 557.675513 136.653952 
L 557.675513 108.819059 
L 558.001665 138.528119 
L 558.001665 117.760054 
L 558.328063 148.757291 
L 558.328063 123.093284 
L 558.654215 151.19021 
L 558.654215 131.081201 
L 558.980613 156.042554 
L 558.980613 131.609242 
L 559.306765 158.649704 
L 559.306765 138.912373 
L 559.633407 162.246305 
L 559.633407 142.551252 
L 559.959804 168.685925 
L 559.959804 150.273016 
L 560.286202 169.52459 
L 560.286202 147.756359 
L 560.612843 167.587361 
L 560.612843 152.064913 
L 560.939485 169.590753 
L 560.939485 153.678648 
L 561.271261 176.029647 
L 561.271261 157.885123 
L 561.597903 172.668281 
L 561.597903 159.438973 
L 561.924545 178.827318 
L 561.924545 163.020419 
L 562.251187 183.48948 
L 562.251187 168.833966 
L 562.577828 184.510076 
L 562.577828 169.20889 
L 562.907893 185.932785 
L 562.907893 169.899285 
L 563.234535 184.947724 
L 563.234535 172.388212 
L 563.561177 187.308013 
L 563.561177 175.165864 
L 563.888063 189.780186 
L 563.888063 177.107269 
L 564.214949 188.929855 
L 564.214949 176.337803 
L 564.541835 189.36948 
L 564.541835 179.222806 
L 564.868477 193.754558 
L 564.868477 183.784452 
L 565.195608 197.654506 
L 565.195608 186.293516 
L 565.52225 197.914024 
L 565.52225 187.649279 
L 565.849136 198.1508 
L 565.849136 187.971245 
L 566.181401 199.684197 
L 566.181401 190.760708 
L 566.508287 200.598774 
L 566.508287 193.374591 
L 566.835418 204.157831 
L 566.835418 195.496442 
L 567.162304 204.683833 
L 567.162304 196.747235 
L 567.489435 205.538478 
L 567.489435 197.271592 
L 567.81681 206.045189 
L 567.81681 198.799021 
L 568.143941 208.196079 
L 568.143941 200.640927 
L 568.471316 208.697567 
L 568.471316 201.770578 
L 568.798936 209.869875 
L 568.798936 202.698183 
L 569.126067 210.902625 
L 569.126067 204.85899 
L 569.453686 212.124121 
L 569.453686 207.784141 
L 569.781306 215.241961 
L 569.781306 208.84565 
L 570.108926 215.353216 
L 570.108926 210.605208 
L 570.436546 215.86562 
L 570.436546 209.719447 
L 570.764165 216.248239 
L 570.764165 210.630054 
L 571.097408 215.310487 
L 571.097408 210.293735 
L 571.425517 216.697403 
L 571.425517 211.521171 
L 571.757293 217.539119 
L 571.757293 213.543312 
L 572.084913 218.413353 
L 572.084913 213.734469 
L 572.413022 219.302182 
L 572.413022 215.247165 
L 572.740641 219.846431 
L 572.740641 216.158666 
L 573.06875 220.561356 
L 573.06875 216.375238 
L 573.396859 220.727513 
L 573.396859 216.653005 
L 573.725456 220.778357 
L 573.725456 218.113336 
L 574.053565 222.466644 
L 574.053565 219.515306 
L 574.382163 223.854632 
L 574.382163 220.636207 
L 574.711005 223.89598 
L 574.711005 220.41096 
L 575.039603 223.812354 
L 575.039603 221.007605 
L 575.369178 224.484535 
L 575.369178 220.851987 
L 575.698265 224.320001 
L 575.698265 221.301578 
L 576.032731 224.226708 
L 576.032731 221.479966 
L 576.362062 225.042169 
L 576.362062 222.476198 
L 576.690659 225.53486 
L 576.690659 222.809656 
L 577.020235 225.608062 
L 577.020235 223.422122 
L 577.349077 226.089663 
L 577.349077 223.653568 
L 577.678164 226.232018 
L 577.678164 224.100381 
L 578.00774 226.580321 
L 578.00774 224.282553 
L 578.337071 226.659752 
L 578.337071 224.833228 
L 578.666891 226.957016 
L 578.666891 224.630738 
L 578.996467 226.938325 
L 578.996467 224.889913 
L 579.326042 226.953219 
L 579.326042 224.698325 
L 579.655618 226.836842 
L 579.655618 224.822301 
L 579.985438 227.135745 
L 579.985438 225.011282 
L 580.315014 227.556229 
L 580.315014 225.641196 
L 580.645567 227.769038 
L 580.645567 225.31846 
L 580.981011 227.577596 
L 580.981011 225.233445 
L 581.314987 227.538104 
L 581.314987 225.470694 
L 581.645052 227.897205 
L 581.645052 225.777271 
L 581.974872 228.163696 
L 581.974872 226.408815 
L 582.304203 228.625439 
L 582.304203 226.782137 
L 582.634513 228.996957 
L 582.634513 227.222283 
L 582.964577 228.998975 
L 582.964577 227.229792 
L 583.295131 229.118992 
L 583.295131 227.346261 
L 583.624951 229.042658 
L 583.624951 227.309003 
L 583.955505 229.113922 
L 583.955505 227.546057 
L 584.286303 229.262511 
L 584.286303 227.719087 
L 584.617101 229.377061 
L 584.617101 227.955694 
L 584.948144 229.553394 
L 584.948144 227.981627 
L 585.278453 229.57353 
L 585.278453 228.327631 
L 585.609495 229.731535 
L 585.609495 228.133341 
L 585.945672 229.70623 
L 585.945672 228.339299 
L 586.276959 229.732799 
L 586.276959 228.358786 
L 586.607513 229.887625 
L 586.607513 228.676945 
L 586.938067 230.146579 
L 586.938067 228.876413 
L 587.268865 230.315465 
L 587.268865 229.128048 
L 587.599418 230.407672 
L 587.599418 229.116733 
L 587.931439 230.418966 
L 587.931439 229.168928 
L 588.263704 230.503516 
L 588.263704 229.22197 
L 588.595236 230.460949 
L 588.595236 229.320492 
L 588.927012 230.552537 
L 588.927012 229.344408 
L 589.260255 230.665136 
L 589.260255 229.526722 
L 589.598143 230.669432 
L 589.598143 229.456199 
L 589.929919 230.650506 
L 589.929919 229.553235 
L 590.260962 230.774475 
L 590.260962 229.471595 
L 590.592738 230.693852 
L 590.592738 229.687186 
L 590.930382 230.756139 
L 590.930382 229.6555 
L 591.262647 230.956091 
L 591.262647 230.041239 
L 591.595157 231.071321 
L 591.595157 230.050806 
L 591.927666 231.10645 
L 591.927666 230.221487 
L 592.261154 231.198295 
L 592.261154 230.219436 
L 592.593663 231.26604 
L 592.593663 230.376346 
L 592.926662 231.297937 
L 592.926662 230.302556 
L 593.260394 231.326027 
L 593.260394 230.477704 
L 593.593393 231.436169 
L 593.593393 230.424432 
L 593.927614 231.455055 
L 593.927614 230.503565 
L 594.25939 231.329502 
L 594.25939 230.60407 
L 594.592388 231.633098 
L 594.592388 230.651461 
L 594.92612 231.592279 
L 594.92612 230.827392 
L 595.260097 231.591847 
L 595.260097 230.763001 
L 595.593095 231.670848 
L 595.593095 230.981373 
L 595.932451 231.755202 
L 595.932451 231.069185 
L 596.266916 231.889149 
L 596.266916 231.138868 
L 596.600648 231.796182 
L 596.600648 231.150479 
L 596.935358 231.809623 
L 596.935358 231.138674 
L 597.270313 231.902805 
L 597.270313 231.270252 
L 597.604289 231.982323 
L 597.604289 231.251248 
L 597.939244 231.944896 
L 597.939244 231.126067 
L 598.272976 231.778886 
L 598.272976 230.997848 
L 598.608419 231.74333 
L 598.608419 231.050965 
L 598.94753 231.914619 
L 598.94753 231.252281 
L 599.281751 231.977457 
L 599.281751 231.328582 
L 599.614505 232.006781 
L 599.614505 231.273031 
L 599.947993 231.940188 
L 599.947993 231.409398 
L 600.28417 232.07442 
L 600.28417 231.522233 
L 600.620347 232.199756 
L 600.620347 231.586755 
L 600.959458 232.226627 
L 600.959458 231.575646 
L 601.294657 232.161803 
L 601.294657 231.58377 
L 601.630589 232.250868 
L 601.630589 231.546486 
L 601.965788 232.239461 
L 601.965788 231.606464 
L 602.301232 232.28806 
L 602.301232 231.613708 
L 602.635697 232.29097 
L 602.635697 231.632404 
L 602.972608 232.264865 
L 602.972608 231.634963 
L 603.309029 232.312074 
L 603.309029 231.764858 
L 603.643739 232.415395 
L 603.643739 231.863903 
L 603.980894 232.416246 
L 603.980894 231.813756 
L 604.31976 232.380921 
L 604.31976 231.802245 
L 604.655937 232.359108 
L 604.655937 231.845509 
L 604.99407 232.465942 
L 604.99407 231.901946 
L 605.330981 232.454975 
L 605.330981 231.926518 
L 605.67058 232.520254 
L 605.67058 231.956638 
L 606.015315 232.525739 
L 606.015315 231.963061 
L 606.353448 232.513164 
L 606.353448 232.01152 
L 606.691825 232.563559 
L 606.691825 232.125966 
L 607.02898 232.720143 
L 607.02898 232.205618 
L 607.364668 232.704417 
L 607.364668 232.1192 
L 607.701823 232.561623 
L 607.701823 232.066968 
L 608.0402 232.583692 
L 608.0402 232.066499 
L 608.375888 232.662964 
L 608.375888 232.124959 
L 608.720133 232.656076 
L 608.720133 232.073668 
L 609.057533 232.620652 
L 609.057533 232.168109 
L 609.39591 232.692462 
L 609.39591 232.224588 
L 609.733065 232.818798 
L 609.733065 232.395968 
L 610.069242 232.834676 
L 610.069242 232.395957 
L 610.406153 232.896889 
L 610.406153 232.422503 
L 610.741596 232.800461 
L 610.741596 232.419494 
L 611.086086 232.875547 
L 611.086086 232.344115 
L 611.423241 232.843053 
L 611.423241 232.473604 
L 611.764063 232.858432 
L 611.764063 232.253166 
L 612.101707 232.746192 
L 612.101707 232.294497 
L 612.439106 232.705552 
L 612.439106 232.240169 
L 612.775528 232.8377 
L 612.775528 232.485588 
L 613.114639 232.928455 
L 613.114639 232.510958 
L 613.454727 233.018688 
L 613.454727 232.610156 
L 613.793349 232.98747 
L 613.793349 232.592374 
L 614.133194 233.043696 
L 614.133194 232.627037 
L 614.474016 233.052171 
L 614.474016 232.679475 
L 614.81166 233.079443 
L 614.81166 232.638849 
L 615.150526 233.030916 
L 615.150526 232.720394 
L 615.491104 233.108797 
L 615.491104 232.689292 
L 615.831682 233.0833 
L 615.831682 232.689965 
L 616.176905 233.00569 
L 616.176905 232.601686 
L 616.517238 233.01649 
L 616.517238 232.690711 
L 616.862462 233.13251 
L 616.862462 232.733335 
L 617.203039 233.129208 
L 617.203039 232.763592 
L 617.543862 233.123531 
L 617.543862 232.794641 
L 617.88175 233.205029 
L 617.88175 232.869532 
L 618.222328 233.243416 
L 618.222328 232.827177 
L 618.56315 233.138237 
L 618.56315 232.820629 
L 618.903239 233.113625 
L 618.903239 232.783955 
L 619.243573 233.163339 
L 619.243573 232.84019 
L 619.584395 233.147376 
L 619.584395 232.907252 
L 619.924973 233.223921 
L 619.924973 232.972002 
L 620.265306 233.314873 
L 620.265306 233.038087 
L 620.607351 233.334676 
L 620.607351 232.974689 
L 620.948173 233.26731 
L 620.948173 232.966038 
L 621.29413 233.272989 
L 621.29413 232.945991 
L 621.634708 233.325371 
L 621.634708 233.020284 
L 621.975041 233.300082 
L 621.975041 233.044037 
L 622.315619 233.378124 
L 622.315619 233.102608 
L 622.656197 233.402 
L 622.656197 233.178256 
L 622.996774 233.432003 
L 622.996774 233.208549 
L 623.336619 233.49929 
L 623.336619 233.314337 
L 623.674996 233.583063 
L 623.674996 233.372248 
L 624.009462 233.598309 
L 624.009462 233.383905 
L 624.342705 233.583372 
L 624.342705 233.364941 
L 624.675214 233.577589 
L 624.675214 233.333892 
L 625.006501 233.572599 
L 625.006501 233.348346 
L 625.338033 233.552766 
L 625.338033 233.328243 
L 625.669076 233.566383 
L 625.669076 233.337226 
L 625.999874 233.573379 
L 625.999874 233.406936 
L 626.336295 233.646209 
L 626.336295 233.472899 
L 626.673695 233.692633 
L 626.673695 233.460087 
L 627.006449 233.644291 
L 627.006449 233.392148 
L 627.338225 233.598147 
L 627.338225 233.41976 
L 627.67049 233.666275 
L 627.67049 233.477274 
L 628.002266 233.720637 
L 628.002266 233.551079 
L 628.335998 233.701974 
L 628.335998 233.528042 
L 628.668263 233.704613 
L 628.668263 233.525029 
L 629.000039 233.694831 
L 629.000039 233.544862 
L 629.333282 233.700961 
L 629.333282 233.514945 
L 629.666525 233.714699 
L 629.666525 233.510883 
L 630.000746 233.687907 
L 630.000746 233.494417 
L 630.335456 233.697623 
L 630.335456 233.54601 
L 630.66821 233.735798 
L 630.66821 233.531366 
L 631.00292 233.740533 
L 631.00292 233.463462 
L 631.344232 233.608665 
L 631.344232 233.405562 
L 631.678208 233.616664 
L 631.678208 233.420311 
L 632.012185 233.668421 
L 632.012185 233.4486 
L 632.349095 233.663901 
L 632.349095 233.497358 
L 633.023405 233.836377 
L 633.023405 233.693996 
L 633.362516 233.858776 
L 633.362516 233.704669 
L 633.702605 233.822519 
L 633.702605 233.614216 
L 634.048561 233.765915 
L 634.048561 233.583595 
L 634.388161 233.745087 
L 634.388161 233.563337 
L 635.39278 233.65647 
L 635.724312 233.833152 
L 635.724312 233.711801 
L 636.056088 233.865123 
L 636.056088 233.708412 
L 636.392509 233.873879 
L 636.392509 233.726707 
L 636.723308 233.852826 
L 636.723308 233.684665 
L 637.054106 233.830376 
L 637.054106 233.670187 
L 637.384904 233.818874 
L 637.384904 233.679631 
L 637.714968 233.840565 
L 637.714968 233.686086 
L 638.047478 233.846459 
L 638.047478 233.685129 
L 638.379743 233.79541 
L 638.379743 233.652013 
L 638.712497 233.805535 
L 638.712497 233.647047 
L 639.045251 233.785481 
L 639.045251 233.652667 
L 639.378739 233.812152 
L 639.378739 233.661365 
L 639.71296 233.81167 
L 639.71296 233.662018 
L 640.046447 233.819735 
L 640.046447 233.662572 
L 640.381402 233.806663 
L 640.381402 233.659255 
L 640.715867 233.831938 
L 640.715867 233.663438 
L 641.050822 233.817412 
L 641.050822 233.643092 
L 641.390911 233.786611 
L 641.390911 233.656835 
L 641.733689 233.843536 
L 641.733689 233.71356 
L 642.071333 233.881694 
L 642.071333 233.719318 
L 642.405798 233.862888 
L 642.405798 233.721966 
L 642.742464 233.842351 
L 642.742464 233.703941 
L 643.078397 233.852531 
L 643.078397 233.726072 
L 643.417997 233.84296 
L 643.417997 233.706352 
L 643.757597 233.84695 
L 643.757597 233.750231 
L 644.09793 233.856043 
L 644.09793 233.726552 
L 644.436796 233.852972 
L 644.436796 233.702748 
L 645.117463 233.825196 
L 645.117463 233.735282 
L 645.457307 233.893982 
L 645.457307 233.735723 
L 645.797396 233.860009 
L 645.797396 233.741486 
L 646.137485 233.85194 
L 646.137485 233.697667 
L 646.482953 233.855847 
L 646.482953 233.727168 
L 646.823041 233.86208 
L 646.823041 233.71142 
L 647.163375 233.876217 
L 647.163375 233.736068 
L 647.859689 233.912467 
L 647.859689 233.773528 
L 648.200022 233.898307 
L 648.200022 233.751655 
L 648.538155 233.882257 
L 648.538155 233.749388 
L 648.877755 233.874971 
L 648.877755 233.729936 
L 649.213199 233.870585 
L 649.213199 233.750076 
L 649.888975 233.923546 
L 649.888975 233.784557 
L 650.227108 233.908534 
L 650.227108 233.781967 
L 650.564263 233.880412 
L 650.564263 233.76264 
L 650.900685 233.890254 
L 650.900685 233.760713 
L 651.583552 233.920598 
L 651.583552 233.792576 
L 651.919973 233.911053 
L 651.919973 233.778882 
L 652.25884 233.895259 
L 652.25884 233.756849 
L 652.596728 233.896336 
L 652.596728 233.741581 
L 652.93266 233.86873 
L 652.93266 233.71743 
L 653.267859 233.861555 
L 653.267859 233.725473 
L 655.962654 233.875269 
L 655.962654 233.757077 
L 656.297608 233.920492 
L 656.297608 233.788047 
L 656.639164 233.886512 
L 656.639164 233.753931 
L 656.974363 233.894901 
L 656.974363 233.774205 
L 657.312985 233.907335 
L 657.312985 233.793854 
L 657.653318 233.91247 
L 657.653318 233.793642 
L 657.993652 233.915941 
L 657.993652 233.768896 
L 658.333252 233.892087 
L 658.333252 233.752035 
L 659.011718 233.902317 
L 659.011718 233.785226 
L 659.352051 233.931933 
L 659.352051 233.827151 
L 659.698497 233.912415 
L 659.698497 233.794072 
L 660.037363 233.907399 
L 660.037363 233.7915 
L 660.375741 233.890703 
L 660.375741 233.772305 
L 661.054696 233.906179 
L 661.054696 233.797143 
L 661.392829 233.916434 
L 661.392829 233.794683 
L 661.738541 233.905661 
L 661.738541 233.755681 
L 662.419208 233.904067 
L 662.419208 233.766187 
L 662.758318 233.893097 
L 662.758318 233.773141 
L 663.43165 233.945338 
L 663.43165 233.80571 
L 663.767583 233.912234 
L 663.767583 233.772073 
L 664.438959 233.947943 
L 664.438959 233.786061 
L 664.776358 233.914131 
L 664.776358 233.781446 
L 665.111313 233.872623 
L 665.111313 233.74116 
L 665.444556 233.896537 
L 665.444556 233.797365 
L 666.117154 233.939431 
L 666.117154 233.824908 
L 666.451864 233.924982 
L 666.451864 233.806347 
L 666.794398 233.924773 
L 666.794398 233.748982 
L 667.490712 233.904836 
L 667.490712 233.733254 
L 667.829823 233.912034 
L 667.829823 233.787863 
L 668.170156 233.896264 
L 668.170156 233.777856 
L 668.510734 233.941112 
L 668.510734 233.812065 
L 668.851312 233.947678 
L 668.851312 233.787628 
L 669.532223 233.921143 
L 669.532223 233.800195 
L 669.872801 233.950631 
L 669.872801 233.859819 
L 670.213134 233.963462 
L 670.213134 233.836975 
L 670.558602 233.923217 
L 670.558602 233.805832 
L 670.89918 233.919972 
L 670.89918 233.795136 
L 671.239758 233.924031 
L 671.239758 233.818878 
L 671.926292 233.949453 
L 671.926292 233.816766 
L 672.26687 233.942964 
L 672.26687 233.816525 
L 672.948025 233.959298 
L 672.948025 233.849415 
L 673.288603 233.98362 
L 673.288603 233.895545 
L 673.969759 233.985694 
L 673.969759 233.853851 
L 674.310581 233.953007 
L 674.310581 233.830656 
L 674.651159 233.942573 
L 674.651159 233.810272 
L 674.991737 233.941018 
L 674.991737 233.785179 
L 675.332315 233.923895 
L 675.332315 233.794784 
L 676.013715 233.995445 
L 676.013715 233.87073 
L 676.694626 233.997059 
L 676.694626 233.887093 
L 677.041072 234.012603 
L 677.041072 233.906602 
L 677.381405 234.004743 
L 677.381405 233.882649 
L 678.062805 233.97371 
L 678.062805 233.861713 
L 678.403627 233.970138 
L 678.403627 233.857928 
L 679.085028 233.940016 
L 679.085028 233.803865 
L 679.772051 233.932822 
L 679.772051 233.802405 
L 680.112873 233.931532 
L 680.112873 233.813139 
L 680.453696 233.923563 
L 680.453696 233.804963 
L 681.136807 233.958802 
L 681.136807 233.876741 
L 681.477385 234.001021 
L 681.477385 233.869904 
L 682.164164 233.967831 
L 682.164164 233.833674 
L 682.504986 233.954191 
L 682.504986 233.823629 
L 683.186387 233.92443 
L 683.186387 233.829167 
L 684.208853 233.793227 
L 684.549431 233.949865 
L 684.549431 233.826279 
L 685.231076 233.956847 
L 685.231076 233.817876 
L 685.571654 233.94088 
L 685.571654 233.813606 
L 686.253054 233.982182 
L 686.253054 233.836374 
L 686.593876 233.954509 
L 686.593876 233.802423 
L 686.934454 233.902338 
L 686.934454 233.779537 
L 687.285545 233.931219 
L 687.285545 233.797597 
L 687.966945 233.977645 
L 687.966945 233.838196 
L 688.307768 233.975485 
L 688.307768 233.853791 
L 688.989168 233.997375 
L 688.989168 233.906315 
L 689.670812 234.040862 
L 689.670812 233.932085 
L 690.011635 234.024039 
L 690.011635 233.897362 
L 690.693524 233.964549 
L 690.693524 233.863259 
L 691.375168 233.953338 
L 691.375168 233.846404 
L 692.058035 233.985067 
L 692.058035 233.868879 
L 692.744814 233.956792 
L 692.744814 233.881597 
L 693.085881 233.999721 
L 693.085881 233.898886 
L 693.426459 233.986696 
L 693.426459 233.866841 
L 694.108104 233.958103 
L 694.108104 233.859444 
L 694.448926 233.981084 
L 694.448926 233.893545 
L 695.130326 233.978894 
L 695.130326 233.883766 
L 695.470904 233.958057 
L 695.470904 233.836004 
L 696.152304 233.946639 
L 696.152304 233.875652 
L 696.839328 234.002575 
L 696.839328 233.896431 
L 697.526107 233.971553 
L 697.526107 233.894318 
L 698.207751 234.001768 
L 698.207751 233.881428 
L 698.889151 233.972169 
L 698.889151 233.889246 
L 699.229729 234.013274 
L 699.229729 233.893987 
L 699.911618 233.965187 
L 699.911618 233.845945 
L 700.252441 233.960116 
L 700.252441 233.859915 
L 700.934085 233.964521 
L 700.934085 233.878961 
L 701.615485 233.995862 
L 701.615485 233.874848 
L 702.296885 233.964896 
L 702.296885 233.843352 
L 702.98342 233.98796 
L 702.98342 233.872236 
L 703.324242 233.999239 
L 703.324242 233.886858 
L 704.005642 234.00565 
L 704.005642 233.889204 
L 704.346465 233.997354 
L 704.346465 233.88809 
L 705.027865 233.981234 
L 705.027865 233.904212 
L 705.709021 233.986099 
L 705.709021 233.861271 
L 706.396288 233.965142 
L 706.396288 233.871683 
L 706.736622 233.997425 
L 706.736622 233.902499 
L 707.419244 234.018457 
L 707.419244 233.897889 
L 708.105534 233.948382 
L 708.105534 233.832455 
L 708.78669 233.964018 
L 708.78669 233.897301 
L 709.127512 234.029684 
L 709.127512 233.954527 
L 709.808668 234.024131 
L 709.808668 233.904006 
L 710.489824 234.025126 
L 710.489824 233.950358 
L 710.830157 234.053533 
L 710.830157 233.94589 
L 711.511313 233.970098 
L 711.511313 233.871624 
L 711.85189 233.974041 
L 711.85189 233.866621 
L 712.533046 233.957385 
L 712.533046 233.884053 
L 713.219336 233.984926 
L 713.219336 233.903353 
L 713.906115 233.994481 
L 713.906115 233.908069 
L 714.246448 233.984523 
L 714.246448 233.853381 
L 714.927115 233.92295 
L 714.927115 233.829421 
L 715.607048 233.995749 
L 715.607048 233.906722 
L 715.948115 234.016915 
L 715.948115 233.914582 
L 716.630249 234.004292 
L 716.630249 233.901848 
L 716.969849 234.030492 
L 716.969849 233.944255 
L 717.650515 234.017495 
L 717.650515 233.899144 
L 718.336561 233.996298 
L 718.336561 233.905229 
L 719.017472 233.987914 
L 719.017472 233.891527 
L 719.698138 234.017591 
L 719.698138 233.922758 
L 720.038716 234.008929 
L 720.038716 233.906006 
L 720.719627 234.007169 
L 720.719627 233.929285 
L 721.060694 234.033408 
L 721.060694 233.928774 
L 721.742828 233.988908 
L 721.742828 233.901163 
L 722.429118 234.028478 
L 722.429118 233.933366 
L 723.115163 233.980991 
L 723.115163 233.890808 
L 723.796564 234.004978 
L 723.796564 233.894851 
L 724.47723 233.991146 
L 724.47723 233.906635 
L 724.817319 234.017131 
L 724.817319 233.940721 
L 725.497497 233.983764 
L 725.497497 233.882141 
L 726.518008 234.080791 
L 726.518008 233.997449 
L 726.858097 234.062706 
L 726.858097 233.941905 
L 727.538519 233.97717 
L 727.538519 233.911818 
L 728.22432 234.050794 
L 728.22432 233.957996 
L 728.904742 234.002326 
L 728.904742 233.923758 
L 729.584431 234.035423 
L 729.584431 233.911485 
L 730.264364 233.983683 
L 730.264364 233.92657 
L 730.604208 234.051157 
L 730.604208 233.955828 
L 730.949187 234.045437 
L 730.949187 233.960134 
L 731.628875 234.032562 
L 731.628875 233.946366 
L 731.96872 234.043874 
L 731.96872 233.975325 
L 732.988497 233.951785 
L 733.333965 234.046362 
L 733.333965 233.983064 
L 738.437254 234.079175 
L 738.437254 234.052179 
L 738.777098 234.005317 
L 739.795897 234.125957 
L 739.795897 234.085205 
L 740.478031 234.154829 
L 740.478031 234.083154 
L 741.497075 234.093241 
L 741.497075 234.030706 
L 742.850096 234.047358 
L 742.850096 234.073736 
L 743.535163 234.168233 
L 743.535163 234.089951 
L 744.212407 234.046731 
L 744.212407 233.965771 
L 744.891362 234.032373 
L 744.891362 233.99303 
L 746.242671 234.119964 
L 746.242671 234.053535 
L 746.917226 234.077661 
L 746.917226 234.008958 
L 747.591047 234.096138 
L 747.591047 234.011767 
L 748.952135 234.129617 
L 748.952135 234.05837 
L 749.624978 234.100639 
L 749.624978 234.05142 
L 750.631798 234.15874 
L 750.631798 234.09085 
L 751.304641 234.023764 
L 751.304641 234.023781 
L 751.64204 233.999698 
L 751.977728 234.127794 
L 751.977728 234.06999 
L 753.666926 234.110793 
L 753.666926 234.031586 
L 754.678879 234.137131 
L 754.678879 234.064977 
L 755.363213 234.105447 
L 755.363213 234.050599 
L 756.377857 234.133869 
L 756.377857 234.092688 
L 760.109543 234.084148 
L 760.787276 234.142885 
L 760.787276 234.090643 
L 761.465987 234.114685 
L 761.465987 234.027202 
L 762.145675 234.038914 
L 765.539229 234.134471 
L 765.539229 234.027668 
L 766.222096 234.090481 
L 766.222096 234.017914 
L 766.90154 234.091982 
L 766.90154 234.052033 
L 767.581229 234.128225 
L 767.581229 234.073002 
L 768.25994 234.091237 
L 768.25994 234.009626 
L 769.643522 234.094955 
L 769.643522 234.042442 
L 770.663299 234.074423 
L 770.663299 234.030853 
L 771.342255 234.09729 
L 771.342255 234.017201 
L 771.682099 234.083779 
L 771.682099 233.987355 
L 773.382054 234.103993 
L 773.382054 234.049105 
L 774.407699 234.124071 
L 774.407699 234.064696 
L 775.098635 234.13041 
L 775.098635 234.057551 
L 775.777835 234.138379 
L 775.777835 234.060154 
L 776.796879 234.145099 
L 776.796879 234.098995 
L 777.8147 234.120786 
L 777.8147 234.082694 
L 778.493655 234.124337 
L 778.493655 234.077545 
L 779.519545 234.116585 
L 779.519545 234.0762 
L 788.004896 234.143528 
L 788.004896 234.051578 
L 790.016824 234.013104 
L 790.016824 234.096509 
L 790.347866 234.022033 
L 791.010196 234.071346 
L 791.010196 233.997536 
L 791.671792 234.099266 
L 791.671792 234.063906 
L 792.331433 234.138607 
L 792.331433 234.079864 
L 793.976622 234.114277 
L 793.976622 234.082199 
L 795.955054 234.070024 
L 795.955054 234.001914 
L 797.267733 233.977089 
L 808.122948 234.125113 
L 808.122948 234.043334 
L 808.780388 233.946128 
L 810.100402 234.146131 
L 810.100402 234.111309 
L 810.757842 234.149241 
L 810.757842 234.107826 
L 811.415282 234.109839 
L 811.415282 234.017769 
L 811.744369 234.086544 
L 811.744369 234.000824 
L 813.723534 234.271078 
L 814.410068 234.346288 
L 814.410068 234.345878 
L 816.47285 234.34915 
L 816.47285 234.34915 
" clip-path="url(#p46f9029abd)" style="fill: none; stroke: #008000; stroke-width: 1.5; stroke-linecap: square"/>
   </g>
   <g id="patch_3">
    <path d="M 47.72 534.04 
L 47.72 26.88 
" style="fill: none; stroke: #000000; stroke-width: 0.8; stroke-linejoin: miter; stroke-linecap: square"/>
   </g>
   <g id="patch_4">
    <path d="M 853.2 534.04 
L 853.2 26.88 
" style="fill: none; stroke: #000000; stroke-width: 0.8; stroke-linejoin: miter; stroke-linecap: square"/>
   </g>
   <g id="patch_5">
    <path d="M 47.72 534.04 
L 853.2 534.04 
" style="fill: none; stroke: #000000; stroke-width: 0.8; stroke-linejoin: miter; stroke-linecap: square"/>
   </g>
   <g id="patch_6">
    <path d="M 47.72 26.88 
L 853.2 26.88 
" style="fill: none; stroke: #000000; stroke-width: 0.8; stroke-linejoin: miter; stroke-linecap: square"/>
   </g>
   <g id="patch_7">
    <path d="M 623.091539 361.980462 
Q 596.940245 367.814324 570.788951 373.648186 
L 571.659869 377.552223 
Q 565.152088 375.930245 558.644308 374.308267 
Q 563.845712 370.07419 569.047117 365.840113 
L 569.918034 369.74415 
Q 596.069328 363.910287 622.220622 358.076425 
L 623.091539 361.980462 
z
" style="stroke: #000000; stroke-linecap: round"/>
   </g>
   <g id="text_15">
    <!-- Peak: RT=3.22, Area=2.46e+04 -->
    <g style="fill: #ff0000" transform="translate(628.328174 345.485606) scale(0.1 -0.1)">
     <defs>
      <path id="DejaVuSans-50" d="M 1259 4147 
L 1259 2394 
L 2053 2394 
Q 2494 2394 2734 2622 
Q 2975 2850 2975 3272 
Q 2975 3691 2734 3919 
Q 2494 4147 2053 4147 
L 1259 4147 
z
M 628 4666 
L 2053 4666 
Q 2838 4666 3239 4311 
Q 3641 3956 3641 3272 
Q 3641 2581 3239 2228 
Q 2838 1875 2053 1875 
L 1259 1875 
L 1259 0 
L 628 0 
L 628 4666 
z
" transform="scale(0.015625)"/>
      <path id="DejaVuSans-6b" d="M 581 4863 
L 1159 4863 
L 1159 1991 
L 2875 3500 
L 3609 3500 
L 1753 1863 
L 3688 0 
L 2938 0 
L 1159 1709 
L 1159 0 
L 581 0 
L 581 4863 
z
" transform="scale(0.015625)"/>
      <path id="DejaVuSans-3a" d="M 750 794 
L 1409 794 
L 1409 0 
L 750 0 
L 750 794 
z
M 750 3309 
L 1409 3309 
L 1409 2516 
L 750 2516 
L 750 3309 
z
" transform="scale(0.015625)"/>
      <path id="DejaVuSans-3d" d="M 678 2906 
L 4684 2906 
L 4684 2381 
L 678 2381 
L 678 2906 
z
M 678 1631 
L 4684 1631 
L 4684 1100 
L 678 1100 
L 678 1631 
z
" transform="scale(0.015625)"/>
      <path id="DejaVuSans-2c" d="M 750 794 
L 1409 794 
L 1409 256 
L 897 -744 
L 494 -744 
L 750 256 
L 750 794 
z
" transform="scale(0.015625)"/>
      <path id="DejaVuSans-41" d="M 2188 4044 
L 1331 1722 
L 3047 1722 
L 2188 4044 
z
M 1831 4666 
L 2547 4666 
L 4325 0 
L 3669 0 
L 3244 1197 
L 1141 1197 
L 716 0 
L 50 0 
L 1831 4666 
z
" transform="scale(0.015625)"/>
      <path id="DejaVuSans-36" d="M 2113 2584 
Q 1688 2584 1439 2293 
Q 1191 2003 1191 1497 
Q 1191 994 1439 701 
Q 1688 409 2113 409 
Q 2538 409 2786 701 
Q 3034 994 3034 1497 
Q 3034 2003 2786 2293 
Q 2538 2584 2113 2584 
z
M 3366 4563 
L 3366 3988 
Q 3128 4100 2886 4159 
Q 2644 4219 2406 4219 
Q 1781 4219 1451 3797 
Q 1122 3375 1075 2522 
Q 1259 2794 1537 2939 
Q 1816 3084 2150 3084 
Q 2853 3084 3261 2657 
Q 3669 2231 3669 1497 
Q 3669 778 3244 343 
Q 2819 -91 2113 -91 
Q 1303 -91 875 529 
Q 447 1150 447 2328 
Q 447 3434 972 4092 
Q 1497 4750 2381 4750 
Q 2619 4750 2861 4703 
Q 3103 4656 3366 4563 
z
" transform="scale(0.015625)"/>
      <path id="DejaVuSans-2b" d="M 2944 4013 
L 2944 2272 
L 4684 2272 
L 4684 1741 
L 2944 1741 
L 2944 0 
L 2419 0 
L 2419 1741 
L 678 1741 
L 678 2272 
L 2419 2272 
L 2419 4013 
L 2944 4013 
z
" transform="scale(0.015625)"/>
     </defs>
     <use xlink:href="#DejaVuSans-50"/>
     <use xlink:href="#DejaVuSans-65" transform="translate(56.677734 0)"/>
     <use xlink:href="#DejaVuSans-61" transform="translate(118.201172 0)"/>
     <use xlink:href="#DejaVuSans-6b" transform="translate(179.480469 0)"/>
     <use xlink:href="#DejaVuSans-3a" transform="translate(237.390625 0)"/>
     <use xlink:href="#DejaVuSans-20" transform="translate(271.082031 0)"/>
     <use xlink:href="#DejaVuSans-52" transform="translate(302.869141 0)"/>
     <use xlink:href="#DejaVuSans-54" transform="translate(365.101562 0)"/>
     <use xlink:href="#DejaVuSans-3d" transform="translate(426.185547 0)"/>
     <use xlink:href="#DejaVuSans-33" transform="translate(509.974609 0)"/>
     <use xlink:href="#DejaVuSans-2e" transform="translate(573.597656 0)"/>
     <use xlink:href="#DejaVuSans-32" transform="translate(605.384766 0)"/>
     <use xlink:href="#DejaVuSans-32" transform="translate(669.007812 0)"/>
     <use xlink:href="#DejaVuSans-2c" transform="translate(732.630859 0)"/>
     <use xlink:href="#DejaVuSans-20" transform="translate(764.417969 0)"/>
     <use xlink:href="#DejaVuSans-41" transform="translate(796.205078 0)"/>
     <use xlink:href="#DejaVuSans-72" transform="translate(864.613281 0)"/>
     <use xlink:href="#DejaVuSans-65" transform="translate(903.476562 0)"/>
     <use xlink:href="#DejaVuSans-61" transform="translate(965 0)"/>
     <use xlink:href="#DejaVuSans-3d" transform="translate(1026.279297 0)"/>
     <use xlink:href="#DejaVuSans-32" transform="translate(1110.068359 0)"/>
     <use xlink:href="#DejaVuSans-2e" transform="translate(1173.691406 0)"/>
     <use xlink:href="#DejaVuSans-34" transform="translate(1205.478516 0)"/>
     <use xlink:href="#DejaVuSans-36" transform="translate(1269.101562 0)"/>
     <use xlink:href="#DejaVuSans-65" transform="translate(1332.724609 0)"/>
     <use xlink:href="#DejaVuSans-2b" transform="translate(1394.248047 0)"/>
     <use xlink:href="#DejaVuSans-30" transform="translate(1478.037109 0)"/>
     <use xlink:href="#DejaVuSans-34" transform="translate(1541.660156 0)"/>
    </g>
    <!-- (24.62% of total) -->
    <g style="fill: #ff0000" transform="translate(628.328174 356.683418) scale(0.1 -0.1)">
     <defs>
      <path id="DejaVuSans-25" d="M 4653 2053 
Q 4381 2053 4226 1822 
Q 4072 1591 4072 1178 
Q 4072 772 4226 539 
Q 4381 306 4653 306 
Q 4919 306 5073 539 
Q 5228 772 5228 1178 
Q 5228 1588 5073 1820 
Q 4919 2053 4653 2053 
z
M 4653 2450 
Q 5147 2450 5437 2106 
Q 5728 1763 5728 1178 
Q 5728 594 5436 251 
Q 5144 -91 4653 -91 
Q 4153 -91 3862 251 
Q 3572 594 3572 1178 
Q 3572 1766 3864 2108 
Q 4156 2450 4653 2450 
z
M 1428 4353 
Q 1159 4353 1004 4120 
Q 850 3888 850 3481 
Q 850 3069 1003 2837 
Q 1156 2606 1428 2606 
Q 1700 2606 1854 2837 
Q 2009 3069 2009 3481 
Q 2009 3884 1853 4118 
Q 1697 4353 1428 4353 
z
M 4250 4750 
L 4750 4750 
L 1831 -91 
L 1331 -91 
L 4250 4750 
z
M 1428 4750 
Q 1922 4750 2215 4408 
Q 2509 4066 2509 3481 
Q 2509 2891 2217 2550 
Q 1925 2209 1428 2209 
Q 931 2209 642 2551 
Q 353 2894 353 3481 
Q 353 4063 643 4406 
Q 934 4750 1428 4750 
z
" transform="scale(0.015625)"/>
      <path id="DejaVuSans-66" d="M 2375 4863 
L 2375 4384 
L 1825 4384 
Q 1516 4384 1395 4259 
Q 1275 4134 1275 3809 
L 1275 3500 
L 2222 3500 
L 2222 3053 
L 1275 3053 
L 1275 0 
L 697 0 
L 697 3053 
L 147 3053 
L 147 3500 
L 697 3500 
L 697 3744 
Q 697 4328 969 4595 
Q 1241 4863 1831 4863 
L 2375 4863 
z
" transform="scale(0.015625)"/>
     </defs>
     <use xlink:href="#DejaVuSans-28"/>
     <use xlink:href="#DejaVuSans-32" transform="translate(39.013672 0)"/>
     <use xlink:href="#DejaVuSans-34" transform="translate(102.636719 0)"/>
     <use xlink:href="#DejaVuSans-2e" transform="translate(166.259766 0)"/>
     <use xlink:href="#DejaVuSans-36" transform="translate(198.046875 0)"/>
     <use xlink:href="#DejaVuSans-32" transform="translate(261.669922 0)"/>
     <use xlink:href="#DejaVuSans-25" transform="translate(325.292969 0)"/>
     <use xlink:href="#DejaVuSans-20" transform="translate(420.3125 0)"/>
     <use xlink:href="#DejaVuSans-6f" transform="translate(452.099609 0)"/>
     <use xlink:href="#DejaVuSans-66" transform="translate(513.28125 0)"/>
     <use xlink:href="#DejaVuSans-20" transform="translate(548.486328 0)"/>
     <use xlink:href="#DejaVuSans-74" transform="translate(580.273438 0)"/>
     <use xlink:href="#DejaVuSans-6f" transform="translate(619.482422 0)"/>
     <use xlink:href="#DejaVuSans-74" transform="translate(680.664062 0)"/>
     <use xlink:href="#DejaVuSans-61" transform="translate(719.873047 0)"/>
     <use xlink:href="#DejaVuSans-6c" transform="translate(781.152344 0)"/>
     <use xlink:href="#DejaVuSans-29" transform="translate(808.935547 0)"/>
    </g>
   </g>
   <g id="text_16">
    <!-- UV &amp; MS Chromatograms: IrCp2A21, target m/z=689.2241137 -->
    <g transform="translate(262.3075 20.88) scale(0.12 -0.12)">
     <defs>
      <path id="DejaVuSans-55" d="M 556 4666 
L 1191 4666 
L 1191 1831 
Q 1191 1081 1462 751 
Q 1734 422 2344 422 
Q 2950 422 3222 751 
Q 3494 1081 3494 1831 
L 3494 4666 
L 4128 4666 
L 4128 1753 
Q 4128 841 3676 375 
Q 3225 -91 2344 -91 
Q 1459 -91 1007 375 
Q 556 841 556 1753 
L 556 4666 
z
" transform="scale(0.015625)"/>
      <path id="DejaVuSans-56" d="M 1831 0 
L 50 4666 
L 709 4666 
L 2188 738 
L 3669 4666 
L 4325 4666 
L 2547 0 
L 1831 0 
z
" transform="scale(0.015625)"/>
      <path id="DejaVuSans-26" d="M 1556 2509 
Q 1272 2256 1139 2004 
Q 1006 1753 1006 1478 
Q 1006 1022 1337 719 
Q 1669 416 2169 416 
Q 2466 416 2725 514 
Q 2984 613 3213 813 
L 1556 2509 
z
M 1997 2859 
L 3584 1234 
Q 3769 1513 3872 1830 
Q 3975 2147 3994 2503 
L 4575 2503 
Q 4538 2091 4375 1687 
Q 4213 1284 3922 891 
L 4794 0 
L 4006 0 
L 3559 459 
Q 3234 181 2878 45 
Q 2522 -91 2113 -91 
Q 1359 -91 881 339 
Q 403 769 403 1441 
Q 403 1841 612 2192 
Q 822 2544 1241 2853 
Q 1091 3050 1012 3245 
Q 934 3441 934 3628 
Q 934 4134 1281 4442 
Q 1628 4750 2203 4750 
Q 2463 4750 2720 4694 
Q 2978 4638 3244 4525 
L 3244 3956 
Q 2972 4103 2725 4179 
Q 2478 4256 2266 4256 
Q 1938 4256 1733 4082 
Q 1528 3909 1528 3634 
Q 1528 3475 1620 3314 
Q 1713 3153 1997 2859 
z
" transform="scale(0.015625)"/>
      <path id="DejaVuSans-4d" d="M 628 4666 
L 1569 4666 
L 2759 1491 
L 3956 4666 
L 4897 4666 
L 4897 0 
L 4281 0 
L 4281 4097 
L 3078 897 
L 2444 897 
L 1241 4097 
L 1241 0 
L 628 0 
L 628 4666 
z
" transform="scale(0.015625)"/>
      <path id="DejaVuSans-53" d="M 3425 4513 
L 3425 3897 
Q 3066 4069 2747 4153 
Q 2428 4238 2131 4238 
Q 1616 4238 1336 4038 
Q 1056 3838 1056 3469 
Q 1056 3159 1242 3001 
Q 1428 2844 1947 2747 
L 2328 2669 
Q 3034 2534 3370 2195 
Q 3706 1856 3706 1288 
Q 3706 609 3251 259 
Q 2797 -91 1919 -91 
Q 1588 -91 1214 -16 
Q 841 59 441 206 
L 441 856 
Q 825 641 1194 531 
Q 1563 422 1919 422 
Q 2459 422 2753 634 
Q 3047 847 3047 1241 
Q 3047 1584 2836 1778 
Q 2625 1972 2144 2069 
L 1759 2144 
Q 1053 2284 737 2584 
Q 422 2884 422 3419 
Q 422 4038 858 4394 
Q 1294 4750 2059 4750 
Q 2388 4750 2728 4690 
Q 3069 4631 3425 4513 
z
" transform="scale(0.015625)"/>
      <path id="DejaVuSans-43" d="M 4122 4306 
L 4122 3641 
Q 3803 3938 3442 4084 
Q 3081 4231 2675 4231 
Q 1875 4231 1450 3742 
Q 1025 3253 1025 2328 
Q 1025 1406 1450 917 
Q 1875 428 2675 428 
Q 3081 428 3442 575 
Q 3803 722 4122 1019 
L 4122 359 
Q 3791 134 3420 21 
Q 3050 -91 2638 -91 
Q 1578 -91 968 557 
Q 359 1206 359 2328 
Q 359 3453 968 4101 
Q 1578 4750 2638 4750 
Q 3056 4750 3426 4639 
Q 3797 4528 4122 4306 
z
" transform="scale(0.015625)"/>
      <path id="DejaVuSans-68" d="M 3513 2113 
L 3513 0 
L 2938 0 
L 2938 2094 
Q 2938 2591 2744 2837 
Q 2550 3084 2163 3084 
Q 1697 3084 1428 2787 
Q 1159 2491 1159 1978 
L 1159 0 
L 581 0 
L 581 4863 
L 1159 4863 
L 1159 2956 
Q 1366 3272 1645 3428 
Q 1925 3584 2291 3584 
Q 2894 3584 3203 3211 
Q 3513 2838 3513 2113 
z
" transform="scale(0.015625)"/>
      <path id="DejaVuSans-67" d="M 2906 1791 
Q 2906 2416 2648 2759 
Q 2391 3103 1925 3103 
Q 1463 3103 1205 2759 
Q 947 2416 947 1791 
Q 947 1169 1205 825 
Q 1463 481 1925 481 
Q 2391 481 2648 825 
Q 2906 1169 2906 1791 
z
M 3481 434 
Q 3481 -459 3084 -895 
Q 2688 -1331 1869 -1331 
Q 1566 -1331 1297 -1286 
Q 1028 -1241 775 -1147 
L 775 -588 
Q 1028 -725 1275 -790 
Q 1522 -856 1778 -856 
Q 2344 -856 2625 -561 
Q 2906 -266 2906 331 
L 2906 616 
Q 2728 306 2450 153 
Q 2172 0 1784 0 
Q 1141 0 747 490 
Q 353 981 353 1791 
Q 353 2603 747 3093 
Q 1141 3584 1784 3584 
Q 2172 3584 2450 3431 
Q 2728 3278 2906 2969 
L 2906 3500 
L 3481 3500 
L 3481 434 
z
" transform="scale(0.015625)"/>
      <path id="DejaVuSans-70" d="M 1159 525 
L 1159 -1331 
L 581 -1331 
L 581 3500 
L 1159 3500 
L 1159 2969 
Q 1341 3281 1617 3432 
Q 1894 3584 2278 3584 
Q 2916 3584 3314 3078 
Q 3713 2572 3713 1747 
Q 3713 922 3314 415 
Q 2916 -91 2278 -91 
Q 1894 -91 1617 61 
Q 1341 213 1159 525 
z
M 3116 1747 
Q 3116 2381 2855 2742 
Q 2594 3103 2138 3103 
Q 1681 3103 1420 2742 
Q 1159 2381 1159 1747 
Q 1159 1113 1420 752 
Q 1681 391 2138 391 
Q 2594 391 2855 752 
Q 3116 1113 3116 1747 
z
" transform="scale(0.015625)"/>
      <path id="DejaVuSans-2f" d="M 1625 4666 
L 2156 4666 
L 531 -594 
L 0 -594 
L 1625 4666 
z
" transform="scale(0.015625)"/>
      <path id="DejaVuSans-38" d="M 2034 2216 
Q 1584 2216 1326 1975 
Q 1069 1734 1069 1313 
Q 1069 891 1326 650 
Q 1584 409 2034 409 
Q 2484 409 2743 651 
Q 3003 894 3003 1313 
Q 3003 1734 2745 1975 
Q 2488 2216 2034 2216 
z
M 1403 2484 
Q 997 2584 770 2862 
Q 544 3141 544 3541 
Q 544 4100 942 4425 
Q 1341 4750 2034 4750 
Q 2731 4750 3128 4425 
Q 3525 4100 3525 3541 
Q 3525 3141 3298 2862 
Q 3072 2584 2669 2484 
Q 3125 2378 3379 2068 
Q 3634 1759 3634 1313 
Q 3634 634 3220 271 
Q 2806 -91 2034 -91 
Q 1263 -91 848 271 
Q 434 634 434 1313 
Q 434 1759 690 2068 
Q 947 2378 1403 2484 
z
M 1172 3481 
Q 1172 3119 1398 2916 
Q 1625 2713 2034 2713 
Q 2441 2713 2670 2916 
Q 2900 3119 2900 3481 
Q 2900 3844 2670 4047 
Q 2441 4250 2034 4250 
Q 1625 4250 1398 4047 
Q 1172 3844 1172 3481 
z
" transform="scale(0.015625)"/>
      <path id="DejaVuSans-39" d="M 703 97 
L 703 672 
Q 941 559 1184 500 
Q 1428 441 1663 441 
Q 2288 441 2617 861 
Q 2947 1281 2994 2138 
Q 2813 1869 2534 1725 
Q 2256 1581 1919 1581 
Q 1219 1581 811 2004 
Q 403 2428 403 3163 
Q 403 3881 828 4315 
Q 1253 4750 1959 4750 
Q 2769 4750 3195 4129 
Q 3622 3509 3622 2328 
Q 3622 1225 3098 567 
Q 2575 -91 1691 -91 
Q 1453 -91 1209 -44 
Q 966 3 703 97 
z
M 1959 2075 
Q 2384 2075 2632 2365 
Q 2881 2656 2881 3163 
Q 2881 3666 2632 3958 
Q 2384 4250 1959 4250 
Q 1534 4250 1286 3958 
Q 1038 3666 1038 3163 
Q 1038 2656 1286 2365 
Q 1534 2075 1959 2075 
z
" transform="scale(0.015625)"/>
      <path id="DejaVuSans-37" d="M 525 4666 
L 3525 4666 
L 3525 4397 
L 1831 0 
L 1172 0 
L 2766 4134 
L 525 4134 
L 525 4666 
z
" transform="scale(0.015625)"/>
     </defs>
     <use xlink:href="#DejaVuSans-55"/>
     <use xlink:href="#DejaVuSans-56" transform="translate(73.193359 0)"/>
     <use xlink:href="#DejaVuSans-20" transform="translate(141.601562 0)"/>
     <use xlink:href="#DejaVuSans-26" transform="translate(173.388672 0)"/>
     <use xlink:href="#DejaVuSans-20" transform="translate(251.367188 0)"/>
     <use xlink:href="#DejaVuSans-4d" transform="translate(283.154297 0)"/>
     <use xlink:href="#DejaVuSans-53" transform="translate(369.433594 0)"/>
     <use xlink:href="#DejaVuSans-20" transform="translate(432.910156 0)"/>
     <use xlink:href="#DejaVuSans-43" transform="translate(464.697266 0)"/>
     <use xlink:href="#DejaVuSans-68" transform="translate(534.521484 0)"/>
     <use xlink:href="#DejaVuSans-72" transform="translate(597.900391 0)"/>
     <use xlink:href="#DejaVuSans-6f" transform="translate(636.763672 0)"/>
     <use xlink:href="#DejaVuSans-6d" transform="translate(697.945312 0)"/>
     <use xlink:href="#DejaVuSans-61" transform="translate(795.357422 0)"/>
     <use xlink:href="#DejaVuSans-74" transform="translate(856.636719 0)"/>
     <use xlink:href="#DejaVuSans-6f" transform="translate(895.845703 0)"/>
     <use xlink:href="#DejaVuSans-67" transform="translate(957.027344 0)"/>
     <use xlink:href="#DejaVuSans-72" transform="translate(1020.503906 0)"/>
     <use xlink:href="#DejaVuSans-61" transform="translate(1061.617188 0)"/>
     <use xlink:href="#DejaVuSans-6d" transform="translate(1122.896484 0)"/>
     <use xlink:href="#DejaVuSans-73" transform="translate(1220.308594 0)"/>
     <use xlink:href="#DejaVuSans-3a" transform="translate(1272.408203 0)"/>
     <use xlink:href="#DejaVuSans-20" transform="translate(1306.099609 0)"/>
     <use xlink:href="#DejaVuSans-49" transform="translate(1337.886719 0)"/>
     <use xlink:href="#DejaVuSans-72" transform="translate(1367.378906 0)"/>
     <use xlink:href="#DejaVuSans-43" transform="translate(1408.492188 0)"/>
     <use xlink:href="#DejaVuSans-70" transform="translate(1478.316406 0)"/>
     <use xlink:href="#DejaVuSans-32" transform="translate(1541.792969 0)"/>
     <use xlink:href="#DejaVuSans-41" transform="translate(1605.416016 0)"/>
     <use xlink:href="#DejaVuSans-32" transform="translate(1673.824219 0)"/>
     <use xlink:href="#DejaVuSans-31" transform="translate(1737.447266 0)"/>
     <use xlink:href="#DejaVuSans-2c" transform="translate(1801.070312 0)"/>
     <use xlink:href="#DejaVuSans-20" transform="translate(1832.857422 0)"/>
     <use xlink:href="#DejaVuSans-74" transform="translate(1864.644531 0)"/>
     <use xlink:href="#DejaVuSans-61" transform="translate(1903.853516 0)"/>
     <use xlink:href="#DejaVuSans-72" transform="translate(1965.132812 0)"/>
     <use xlink:href="#DejaVuSans-67" transform="translate(2004.496094 0)"/>
     <use xlink:href="#DejaVuSans-65" transform="translate(2067.972656 0)"/>
     <use xlink:href="#DejaVuSans-74" transform="translate(2129.496094 0)"/>
     <use xlink:href="#DejaVuSans-20" transform="translate(2168.705078 0)"/>
     <use xlink:href="#DejaVuSans-6d" transform="translate(2200.492188 0)"/>
     <use xlink:href="#DejaVuSans-2f" transform="translate(2297.904297 0)"/>
     <use xlink:href="#DejaVuSans-7a" transform="translate(2331.595703 0)"/>
     <use xlink:href="#DejaVuSans-3d" transform="translate(2384.085938 0)"/>
     <use xlink:href="#DejaVuSans-36" transform="translate(2467.875 0)"/>
     <use xlink:href="#DejaVuSans-38" transform="translate(2531.498047 0)"/>
     <use xlink:href="#DejaVuSans-39" transform="translate(2595.121094 0)"/>
     <use xlink:href="#DejaVuSans-2e" transform="translate(2658.744141 0)"/>
     <use xlink:href="#DejaVuSans-32" transform="translate(2690.53125 0)"/>
     <use xlink:href="#DejaVuSans-32" transform="translate(2754.154297 0)"/>
     <use xlink:href="#DejaVuSans-34" transform="translate(2817.777344 0)"/>
     <use xlink:href="#DejaVuSans-31" transform="translate(2881.400391 0)"/>
     <use xlink:href="#DejaVuSans-31" transform="translate(2945.023438 0)"/>
     <use xlink:href="#DejaVuSans-33" transform="translate(3008.646484 0)"/>
     <use xlink:href="#DejaVuSans-37" transform="translate(3072.269531 0)"/>
    </g>
   </g>
   <g id="legend_1">
    <g id="patch_8">
     <path d="M 685.971875 64.23625 
L 846.2 64.23625 
Q 848.2 64.23625 848.2 62.23625 
L 848.2 33.88 
Q 848.2 31.88 846.2 31.88 
L 685.971875 31.88 
Q 683.971875 31.88 683.971875 33.88 
L 683.971875 62.23625 
Q 683.971875 64.23625 685.971875 64.23625 
z
" style="fill: #ffffff; opacity: 0.8; stroke: #cccccc; stroke-linejoin: miter"/>
    </g>
    <g id="line2d_15">
     <path d="M 687.971875 39.978437 
L 697.971875 39.978437 
L 707.971875 39.978437 
" style="fill: none; stroke: #0000ff; stroke-width: 1.5; stroke-linecap: square"/>
    </g>
    <g id="text_17">
     <!-- UV Intensity (normalized) -->
     <g transform="translate(715.971875 43.478437) scale(0.1 -0.1)">
      <use xlink:href="#DejaVuSans-55"/>
      <use xlink:href="#DejaVuSans-56" transform="translate(73.193359 0)"/>
      <use xlink:href="#DejaVuSans-20" transform="translate(141.601562 0)"/>
      <use xlink:href="#DejaVuSans-49" transform="translate(173.388672 0)"/>
      <use xlink:href="#DejaVuSans-6e" transform="translate(202.880859 0)"/>
      <use xlink:href="#DejaVuSans-74" transform="translate(266.259766 0)"/>
      <use xlink:href="#DejaVuSans-65" transform="translate(305.46875 0)"/>
      <use xlink:href="#DejaVuSans-6e" transform="translate(366.992188 0)"/>
      <use xlink:href="#DejaVuSans-73" transform="translate(430.371094 0)"/>
      <use xlink:href="#DejaVuSans-69" transform="translate(482.470703 0)"/>
      <use xlink:href="#DejaVuSans-74" transform="translate(510.253906 0)"/>
      <use xlink:href="#DejaVuSans-79" transform="translate(549.462891 0)"/>
      <use xlink:href="#DejaVuSans-20" transform="translate(608.642578 0)"/>
      <use xlink:href="#DejaVuSans-28" transform="translate(640.429688 0)"/>
      <use xlink:href="#DejaVuSans-6e" transform="translate(679.443359 0)"/>
      <use xlink:href="#DejaVuSans-6f" transform="translate(742.822266 0)"/>
      <use xlink:href="#DejaVuSans-72" transform="translate(804.003906 0)"/>
      <use xlink:href="#DejaVuSans-6d" transform="translate(843.367188 0)"/>
      <use xlink:href="#DejaVuSans-61" transform="translate(940.779297 0)"/>
      <use xlink:href="#DejaVuSans-6c" transform="translate(1002.058594 0)"/>
      <use xlink:href="#DejaVuSans-69" transform="translate(1029.841797 0)"/>
      <use xlink:href="#DejaVuSans-7a" transform="translate(1057.625 0)"/>
      <use xlink:href="#DejaVuSans-65" transform="translate(1110.115234 0)"/>
      <use xlink:href="#DejaVuSans-64" transform="translate(1171.638672 0)"/>
      <use xlink:href="#DejaVuSans-29" transform="translate(1235.115234 0)"/>
     </g>
    </g>
    <g id="line2d_16">
     <path d="M 687.971875 54.656562 
L 697.971875 54.656562 
L 707.971875 54.656562 
" style="fill: none; stroke: #008000; stroke-width: 1.5; stroke-linecap: square"/>
    </g>
    <g id="text_18">
     <!-- MS Intensity (normalized) -->
     <g transform="translate(715.971875 58.156562) scale(0.1 -0.1)">
      <use xlink:href="#DejaVuSans-4d"/>
      <use xlink:href="#DejaVuSans-53" transform="translate(86.279297 0)"/>
      <use xlink:href="#DejaVuSans-20" transform="translate(149.755859 0)"/>
      <use xlink:href="#DejaVuSans-49" transform="translate(181.542969 0)"/>
      <use xlink:href="#DejaVuSans-6e" transform="translate(211.035156 0)"/>
      <use xlink:href="#DejaVuSans-74" transform="translate(274.414062 0)"/>
      <use xlink:href="#DejaVuSans-65" transform="translate(313.623047 0)"/>
      <use xlink:href="#DejaVuSans-6e" transform="translate(375.146484 0)"/>
      <use xlink:href="#DejaVuSans-73" transform="translate(438.525391 0)"/>
      <use xlink:href="#DejaVuSans-69" transform="translate(490.625 0)"/>
      <use xlink:href="#DejaVuSans-74" transform="translate(518.408203 0)"/>
      <use xlink:href="#DejaVuSans-79" transform="translate(557.617188 0)"/>
      <use xlink:href="#DejaVuSans-20" transform="translate(616.796875 0)"/>
      <use xlink:href="#DejaVuSans-28" transform="translate(648.583984 0)"/>
      <use xlink:href="#DejaVuSans-6e" transform="translate(687.597656 0)"/>
      <use xlink:href="#DejaVuSans-6f" transform="translate(750.976562 0)"/>
      <use xlink:href="#DejaVuSans-72" transform="translate(812.158203 0)"/>
      <use xlink:href="#DejaVuSans-6d" transform="translate(851.521484 0)"/>
      <use xlink:href="#DejaVuSans-61" transform="translate(948.933594 0)"/>
      <use xlink:href="#DejaVuSans-6c" transform="translate(1010.212891 0)"/>
      <use xlink:href="#DejaVuSans-69" transform="translate(1037.996094 0)"/>
      <use xlink:href="#DejaVuSans-7a" transform="translate(1065.779297 0)"/>
      <use xlink:href="#DejaVuSans-65" transform="translate(1118.269531 0)"/>
      <use xlink:href="#DejaVuSans-64" transform="translate(1179.792969 0)"/>
      <use xlink:href="#DejaVuSans-29" transform="translate(1243.269531 0)"/>
     </g>
    </g>
   </g>
  </g>
 </g>
 <defs>
  <clipPath id="p46f9029abd">
   <rect x="47.72" y="26.88" width="805.48" height="507.16"/>
  </clipPath>
 </defs>
</svg>
