<?xml version="1.0" encoding="utf-8" standalone="no"?>
<!DOCTYPE svg PUBLIC "-//W3C//DTD SVG 1.1//EN"
  "http://www.w3.org/Graphics/SVG/1.1/DTD/svg11.dtd">
<svg xmlns:xlink="http://www.w3.org/1999/xlink" width="864pt" height="576pt" viewBox="0 0 864 576" xmlns="http://www.w3.org/2000/svg" version="1.1">
 <metadata>
  <rdf:RDF xmlns:dc="http://purl.org/dc/elements/1.1/" xmlns:cc="http://creativecommons.org/ns#" xmlns:rdf="http://www.w3.org/1999/02/22-rdf-syntax-ns#">
   <cc:Work>
    <dc:type rdf:resource="http://purl.org/dc/dcmitype/StillImage"/>
    <dc:date>2025-03-06T18:22:46.592028</dc:date>
    <dc:format>image/svg+xml</dc:format>
    <dc:creator>
     <cc:Agent>
      <dc:title>Matplotlib v3.10.0, https://matplotlib.org/</dc:title>
     </cc:Agent>
    </dc:creator>
   </cc:Work>
  </rdf:RDF>
 </metadata>
 <defs>
  <style type="text/css">*{stroke-linejoin: round; stroke-linecap: butt}</style>
 </defs>
 <g id="figure_1">
  <g id="patch_1">
   <path d="M 0 576 
L 864 576 
L 864 0 
L 0 0 
z
" style="fill: #ffffff"/>
  </g>
  <g id="axes_1">
   <g id="patch_2">
    <path d="M 47.72 534.04 
L 853.2 534.04 
L 853.2 26.88 
L 47.72 26.88 
z
" style="fill: #ffffff"/>
   </g>
   <g id="matplotlib.axis_1">
    <g id="xtick_1">
     <g id="line2d_1">
      <defs>
       <path id="m38440810ef" d="M 0 0 
L 0 3.5 
" style="stroke: #000000; stroke-width: 0.8"/>
      </defs>
      <g>
       <use xlink:href="#m38440810ef" x="83.093151" y="534.04" style="stroke: #000000; stroke-width: 0.8"/>
      </g>
     </g>
     <g id="text_1">
      <!-- 0 -->
      <g transform="translate(79.911901 548.638438) scale(0.1 -0.1)">
       <defs>
        <path id="DejaVuSans-30" d="M 2034 4250 
Q 1547 4250 1301 3770 
Q 1056 3291 1056 2328 
Q 1056 1369 1301 889 
Q 1547 409 2034 409 
Q 2525 409 2770 889 
Q 3016 1369 3016 2328 
Q 3016 3291 2770 3770 
Q 2525 4250 2034 4250 
z
M 2034 4750 
Q 2819 4750 3233 4129 
Q 3647 3509 3647 2328 
Q 3647 1150 3233 529 
Q 2819 -91 2034 -91 
Q 1250 -91 836 529 
Q 422 1150 422 2328 
Q 422 3509 836 4129 
Q 1250 4750 2034 4750 
z
" transform="scale(0.015625)"/>
       </defs>
       <use xlink:href="#DejaVuSans-30"/>
      </g>
     </g>
    </g>
    <g id="xtick_2">
     <g id="line2d_2">
      <g>
       <use xlink:href="#m38440810ef" x="229.788553" y="534.04" style="stroke: #000000; stroke-width: 0.8"/>
      </g>
     </g>
     <g id="text_2">
      <!-- 1 -->
      <g transform="translate(226.607303 548.638438) scale(0.1 -0.1)">
       <defs>
        <path id="DejaVuSans-31" d="M 794 531 
L 1825 531 
L 1825 4091 
L 703 3866 
L 703 4441 
L 1819 4666 
L 2450 4666 
L 2450 531 
L 3481 531 
L 3481 0 
L 794 0 
L 794 531 
z
" transform="scale(0.015625)"/>
       </defs>
       <use xlink:href="#DejaVuSans-31"/>
      </g>
     </g>
    </g>
    <g id="xtick_3">
     <g id="line2d_3">
      <g>
       <use xlink:href="#m38440810ef" x="376.483954" y="534.04" style="stroke: #000000; stroke-width: 0.8"/>
      </g>
     </g>
     <g id="text_3">
      <!-- 2 -->
      <g transform="translate(373.302704 548.638438) scale(0.1 -0.1)">
       <defs>
        <path id="DejaVuSans-32" d="M 1228 531 
L 3431 531 
L 3431 0 
L 469 0 
L 469 531 
Q 828 903 1448 1529 
Q 2069 2156 2228 2338 
Q 2531 2678 2651 2914 
Q 2772 3150 2772 3378 
Q 2772 3750 2511 3984 
Q 2250 4219 1831 4219 
Q 1534 4219 1204 4116 
Q 875 4013 500 3803 
L 500 4441 
Q 881 4594 1212 4672 
Q 1544 4750 1819 4750 
Q 2544 4750 2975 4387 
Q 3406 4025 3406 3419 
Q 3406 3131 3298 2873 
Q 3191 2616 2906 2266 
Q 2828 2175 2409 1742 
Q 1991 1309 1228 531 
z
" transform="scale(0.015625)"/>
       </defs>
       <use xlink:href="#DejaVuSans-32"/>
      </g>
     </g>
    </g>
    <g id="xtick_4">
     <g id="line2d_4">
      <g>
       <use xlink:href="#m38440810ef" x="523.179355" y="534.04" style="stroke: #000000; stroke-width: 0.8"/>
      </g>
     </g>
     <g id="text_4">
      <!-- 3 -->
      <g transform="translate(519.998105 548.638438) scale(0.1 -0.1)">
       <defs>
        <path id="DejaVuSans-33" d="M 2597 2516 
Q 3050 2419 3304 2112 
Q 3559 1806 3559 1356 
Q 3559 666 3084 287 
Q 2609 -91 1734 -91 
Q 1441 -91 1130 -33 
Q 819 25 488 141 
L 488 750 
Q 750 597 1062 519 
Q 1375 441 1716 441 
Q 2309 441 2620 675 
Q 2931 909 2931 1356 
Q 2931 1769 2642 2001 
Q 2353 2234 1838 2234 
L 1294 2234 
L 1294 2753 
L 1863 2753 
Q 2328 2753 2575 2939 
Q 2822 3125 2822 3475 
Q 2822 3834 2567 4026 
Q 2313 4219 1838 4219 
Q 1578 4219 1281 4162 
Q 984 4106 628 3988 
L 628 4550 
Q 988 4650 1302 4700 
Q 1616 4750 1894 4750 
Q 2613 4750 3031 4423 
Q 3450 4097 3450 3541 
Q 3450 3153 3228 2886 
Q 3006 2619 2597 2516 
z
" transform="scale(0.015625)"/>
       </defs>
       <use xlink:href="#DejaVuSans-33"/>
      </g>
     </g>
    </g>
    <g id="xtick_5">
     <g id="line2d_5">
      <g>
       <use xlink:href="#m38440810ef" x="669.874757" y="534.04" style="stroke: #000000; stroke-width: 0.8"/>
      </g>
     </g>
     <g id="text_5">
      <!-- 4 -->
      <g transform="translate(666.693507 548.638438) scale(0.1 -0.1)">
       <defs>
        <path id="DejaVuSans-34" d="M 2419 4116 
L 825 1625 
L 2419 1625 
L 2419 4116 
z
M 2253 4666 
L 3047 4666 
L 3047 1625 
L 3713 1625 
L 3713 1100 
L 3047 1100 
L 3047 0 
L 2419 0 
L 2419 1100 
L 313 1100 
L 313 1709 
L 2253 4666 
z
" transform="scale(0.015625)"/>
       </defs>
       <use xlink:href="#DejaVuSans-34"/>
      </g>
     </g>
    </g>
    <g id="xtick_6">
     <g id="line2d_6">
      <g>
       <use xlink:href="#m38440810ef" x="816.570158" y="534.04" style="stroke: #000000; stroke-width: 0.8"/>
      </g>
     </g>
     <g id="text_6">
      <!-- 5 -->
      <g transform="translate(813.388908 548.638438) scale(0.1 -0.1)">
       <defs>
        <path id="DejaVuSans-35" d="M 691 4666 
L 3169 4666 
L 3169 4134 
L 1269 4134 
L 1269 2991 
Q 1406 3038 1543 3061 
Q 1681 3084 1819 3084 
Q 2600 3084 3056 2656 
Q 3513 2228 3513 1497 
Q 3513 744 3044 326 
Q 2575 -91 1722 -91 
Q 1428 -91 1123 -41 
Q 819 9 494 109 
L 494 744 
Q 775 591 1075 516 
Q 1375 441 1709 441 
Q 2250 441 2565 725 
Q 2881 1009 2881 1497 
Q 2881 1984 2565 2268 
Q 2250 2553 1709 2553 
Q 1456 2553 1204 2497 
Q 953 2441 691 2322 
L 691 4666 
z
" transform="scale(0.015625)"/>
       </defs>
       <use xlink:href="#DejaVuSans-35"/>
      </g>
     </g>
    </g>
    <g id="text_7">
     <!-- Retention Time (min) -->
     <g transform="translate(397.61 562.316562) scale(0.1 -0.1)">
      <defs>
       <path id="DejaVuSans-52" d="M 2841 2188 
Q 3044 2119 3236 1894 
Q 3428 1669 3622 1275 
L 4263 0 
L 3584 0 
L 2988 1197 
Q 2756 1666 2539 1819 
Q 2322 1972 1947 1972 
L 1259 1972 
L 1259 0 
L 628 0 
L 628 4666 
L 2053 4666 
Q 2853 4666 3247 4331 
Q 3641 3997 3641 3322 
Q 3641 2881 3436 2590 
Q 3231 2300 2841 2188 
z
M 1259 4147 
L 1259 2491 
L 2053 2491 
Q 2509 2491 2742 2702 
Q 2975 2913 2975 3322 
Q 2975 3731 2742 3939 
Q 2509 4147 2053 4147 
L 1259 4147 
z
" transform="scale(0.015625)"/>
       <path id="DejaVuSans-65" d="M 3597 1894 
L 3597 1613 
L 953 1613 
Q 991 1019 1311 708 
Q 1631 397 2203 397 
Q 2534 397 2845 478 
Q 3156 559 3463 722 
L 3463 178 
Q 3153 47 2828 -22 
Q 2503 -91 2169 -91 
Q 1331 -91 842 396 
Q 353 884 353 1716 
Q 353 2575 817 3079 
Q 1281 3584 2069 3584 
Q 2775 3584 3186 3129 
Q 3597 2675 3597 1894 
z
M 3022 2063 
Q 3016 2534 2758 2815 
Q 2500 3097 2075 3097 
Q 1594 3097 1305 2825 
Q 1016 2553 972 2059 
L 3022 2063 
z
" transform="scale(0.015625)"/>
       <path id="DejaVuSans-74" d="M 1172 4494 
L 1172 3500 
L 2356 3500 
L 2356 3053 
L 1172 3053 
L 1172 1153 
Q 1172 725 1289 603 
Q 1406 481 1766 481 
L 2356 481 
L 2356 0 
L 1766 0 
Q 1100 0 847 248 
Q 594 497 594 1153 
L 594 3053 
L 172 3053 
L 172 3500 
L 594 3500 
L 594 4494 
L 1172 4494 
z
" transform="scale(0.015625)"/>
       <path id="DejaVuSans-6e" d="M 3513 2113 
L 3513 0 
L 2938 0 
L 2938 2094 
Q 2938 2591 2744 2837 
Q 2550 3084 2163 3084 
Q 1697 3084 1428 2787 
Q 1159 2491 1159 1978 
L 1159 0 
L 581 0 
L 581 3500 
L 1159 3500 
L 1159 2956 
Q 1366 3272 1645 3428 
Q 1925 3584 2291 3584 
Q 2894 3584 3203 3211 
Q 3513 2838 3513 2113 
z
" transform="scale(0.015625)"/>
       <path id="DejaVuSans-69" d="M 603 3500 
L 1178 3500 
L 1178 0 
L 603 0 
L 603 3500 
z
M 603 4863 
L 1178 4863 
L 1178 4134 
L 603 4134 
L 603 4863 
z
" transform="scale(0.015625)"/>
       <path id="DejaVuSans-6f" d="M 1959 3097 
Q 1497 3097 1228 2736 
Q 959 2375 959 1747 
Q 959 1119 1226 758 
Q 1494 397 1959 397 
Q 2419 397 2687 759 
Q 2956 1122 2956 1747 
Q 2956 2369 2687 2733 
Q 2419 3097 1959 3097 
z
M 1959 3584 
Q 2709 3584 3137 3096 
Q 3566 2609 3566 1747 
Q 3566 888 3137 398 
Q 2709 -91 1959 -91 
Q 1206 -91 779 398 
Q 353 888 353 1747 
Q 353 2609 779 3096 
Q 1206 3584 1959 3584 
z
" transform="scale(0.015625)"/>
       <path id="DejaVuSans-20" transform="scale(0.015625)"/>
       <path id="DejaVuSans-54" d="M -19 4666 
L 3928 4666 
L 3928 4134 
L 2272 4134 
L 2272 0 
L 1638 0 
L 1638 4134 
L -19 4134 
L -19 4666 
z
" transform="scale(0.015625)"/>
       <path id="DejaVuSans-6d" d="M 3328 2828 
Q 3544 3216 3844 3400 
Q 4144 3584 4550 3584 
Q 5097 3584 5394 3201 
Q 5691 2819 5691 2113 
L 5691 0 
L 5113 0 
L 5113 2094 
Q 5113 2597 4934 2840 
Q 4756 3084 4391 3084 
Q 3944 3084 3684 2787 
Q 3425 2491 3425 1978 
L 3425 0 
L 2847 0 
L 2847 2094 
Q 2847 2600 2669 2842 
Q 2491 3084 2119 3084 
Q 1678 3084 1418 2786 
Q 1159 2488 1159 1978 
L 1159 0 
L 581 0 
L 581 3500 
L 1159 3500 
L 1159 2956 
Q 1356 3278 1631 3431 
Q 1906 3584 2284 3584 
Q 2666 3584 2933 3390 
Q 3200 3197 3328 2828 
z
" transform="scale(0.015625)"/>
       <path id="DejaVuSans-28" d="M 1984 4856 
Q 1566 4138 1362 3434 
Q 1159 2731 1159 2009 
Q 1159 1288 1364 580 
Q 1569 -128 1984 -844 
L 1484 -844 
Q 1016 -109 783 600 
Q 550 1309 550 2009 
Q 550 2706 781 3412 
Q 1013 4119 1484 4856 
L 1984 4856 
z
" transform="scale(0.015625)"/>
       <path id="DejaVuSans-29" d="M 513 4856 
L 1013 4856 
Q 1481 4119 1714 3412 
Q 1947 2706 1947 2009 
Q 1947 1309 1714 600 
Q 1481 -109 1013 -844 
L 513 -844 
Q 928 -128 1133 580 
Q 1338 1288 1338 2009 
Q 1338 2731 1133 3434 
Q 928 4138 513 4856 
z
" transform="scale(0.015625)"/>
      </defs>
      <use xlink:href="#DejaVuSans-52"/>
      <use xlink:href="#DejaVuSans-65" transform="translate(64.982422 0)"/>
      <use xlink:href="#DejaVuSans-74" transform="translate(126.505859 0)"/>
      <use xlink:href="#DejaVuSans-65" transform="translate(165.714844 0)"/>
      <use xlink:href="#DejaVuSans-6e" transform="translate(227.238281 0)"/>
      <use xlink:href="#DejaVuSans-74" transform="translate(290.617188 0)"/>
      <use xlink:href="#DejaVuSans-69" transform="translate(329.826172 0)"/>
      <use xlink:href="#DejaVuSans-6f" transform="translate(357.609375 0)"/>
      <use xlink:href="#DejaVuSans-6e" transform="translate(418.791016 0)"/>
      <use xlink:href="#DejaVuSans-20" transform="translate(482.169922 0)"/>
      <use xlink:href="#DejaVuSans-54" transform="translate(513.957031 0)"/>
      <use xlink:href="#DejaVuSans-69" transform="translate(571.916016 0)"/>
      <use xlink:href="#DejaVuSans-6d" transform="translate(599.699219 0)"/>
      <use xlink:href="#DejaVuSans-65" transform="translate(697.111328 0)"/>
      <use xlink:href="#DejaVuSans-20" transform="translate(758.634766 0)"/>
      <use xlink:href="#DejaVuSans-28" transform="translate(790.421875 0)"/>
      <use xlink:href="#DejaVuSans-6d" transform="translate(829.435547 0)"/>
      <use xlink:href="#DejaVuSans-69" transform="translate(926.847656 0)"/>
      <use xlink:href="#DejaVuSans-6e" transform="translate(954.630859 0)"/>
      <use xlink:href="#DejaVuSans-29" transform="translate(1018.009766 0)"/>
     </g>
    </g>
   </g>
   <g id="matplotlib.axis_2">
    <g id="ytick_1">
     <g id="line2d_7">
      <defs>
       <path id="m9546d70609" d="M 0 0 
L -3.5 0 
" style="stroke: #000000; stroke-width: 0.8"/>
      </defs>
      <g>
       <use xlink:href="#m9546d70609" x="47.72" y="510.987273" style="stroke: #000000; stroke-width: 0.8"/>
      </g>
     </g>
     <g id="text_8">
      <!-- 0.0 -->
      <g style="fill: #0000ff" transform="translate(24.816875 514.786491) scale(0.1 -0.1)">
       <defs>
        <path id="DejaVuSans-2e" d="M 684 794 
L 1344 794 
L 1344 0 
L 684 0 
L 684 794 
z
" transform="scale(0.015625)"/>
       </defs>
       <use xlink:href="#DejaVuSans-30"/>
       <use xlink:href="#DejaVuSans-2e" transform="translate(63.623047 0)"/>
       <use xlink:href="#DejaVuSans-30" transform="translate(95.410156 0)"/>
      </g>
     </g>
    </g>
    <g id="ytick_2">
     <g id="line2d_8">
      <g>
       <use xlink:href="#m9546d70609" x="47.72" y="418.776364" style="stroke: #000000; stroke-width: 0.8"/>
      </g>
     </g>
     <g id="text_9">
      <!-- 0.5 -->
      <g style="fill: #0000ff" transform="translate(24.816875 422.575582) scale(0.1 -0.1)">
       <use xlink:href="#DejaVuSans-30"/>
       <use xlink:href="#DejaVuSans-2e" transform="translate(63.623047 0)"/>
       <use xlink:href="#DejaVuSans-35" transform="translate(95.410156 0)"/>
      </g>
     </g>
    </g>
    <g id="ytick_3">
     <g id="line2d_9">
      <g>
       <use xlink:href="#m9546d70609" x="47.72" y="326.565455" style="stroke: #000000; stroke-width: 0.8"/>
      </g>
     </g>
     <g id="text_10">
      <!-- 1.0 -->
      <g style="fill: #0000ff" transform="translate(24.816875 330.364673) scale(0.1 -0.1)">
       <use xlink:href="#DejaVuSans-31"/>
       <use xlink:href="#DejaVuSans-2e" transform="translate(63.623047 0)"/>
       <use xlink:href="#DejaVuSans-30" transform="translate(95.410156 0)"/>
      </g>
     </g>
    </g>
    <g id="ytick_4">
     <g id="line2d_10">
      <g>
       <use xlink:href="#m9546d70609" x="47.72" y="234.354545" style="stroke: #000000; stroke-width: 0.8"/>
      </g>
     </g>
     <g id="text_11">
      <!-- 1.5 -->
      <g style="fill: #0000ff" transform="translate(24.816875 238.153764) scale(0.1 -0.1)">
       <use xlink:href="#DejaVuSans-31"/>
       <use xlink:href="#DejaVuSans-2e" transform="translate(63.623047 0)"/>
       <use xlink:href="#DejaVuSans-35" transform="translate(95.410156 0)"/>
      </g>
     </g>
    </g>
    <g id="ytick_5">
     <g id="line2d_11">
      <g>
       <use xlink:href="#m9546d70609" x="47.72" y="142.143636" style="stroke: #000000; stroke-width: 0.8"/>
      </g>
     </g>
     <g id="text_12">
      <!-- 2.0 -->
      <g style="fill: #0000ff" transform="translate(24.816875 145.942855) scale(0.1 -0.1)">
       <use xlink:href="#DejaVuSans-32"/>
       <use xlink:href="#DejaVuSans-2e" transform="translate(63.623047 0)"/>
       <use xlink:href="#DejaVuSans-30" transform="translate(95.410156 0)"/>
      </g>
     </g>
    </g>
    <g id="ytick_6">
     <g id="line2d_12">
      <g>
       <use xlink:href="#m9546d70609" x="47.72" y="49.932727" style="stroke: #000000; stroke-width: 0.8"/>
      </g>
     </g>
     <g id="text_13">
      <!-- 2.5 -->
      <g style="fill: #0000ff" transform="translate(24.816875 53.731946) scale(0.1 -0.1)">
       <use xlink:href="#DejaVuSans-32"/>
       <use xlink:href="#DejaVuSans-2e" transform="translate(63.623047 0)"/>
       <use xlink:href="#DejaVuSans-35" transform="translate(95.410156 0)"/>
      </g>
     </g>
    </g>
    <g id="text_14">
     <!-- Normalized Intensity -->
     <g style="fill: #0000ff" transform="translate(18.737187 332.167031) rotate(-90) scale(0.1 -0.1)">
      <defs>
       <path id="DejaVuSans-4e" d="M 628 4666 
L 1478 4666 
L 3547 763 
L 3547 4666 
L 4159 4666 
L 4159 0 
L 3309 0 
L 1241 3903 
L 1241 0 
L 628 0 
L 628 4666 
z
" transform="scale(0.015625)"/>
       <path id="DejaVuSans-72" d="M 2631 2963 
Q 2534 3019 2420 3045 
Q 2306 3072 2169 3072 
Q 1681 3072 1420 2755 
Q 1159 2438 1159 1844 
L 1159 0 
L 581 0 
L 581 3500 
L 1159 3500 
L 1159 2956 
Q 1341 3275 1631 3429 
Q 1922 3584 2338 3584 
Q 2397 3584 2469 3576 
Q 2541 3569 2628 3553 
L 2631 2963 
z
" transform="scale(0.015625)"/>
       <path id="DejaVuSans-61" d="M 2194 1759 
Q 1497 1759 1228 1600 
Q 959 1441 959 1056 
Q 959 750 1161 570 
Q 1363 391 1709 391 
Q 2188 391 2477 730 
Q 2766 1069 2766 1631 
L 2766 1759 
L 2194 1759 
z
M 3341 1997 
L 3341 0 
L 2766 0 
L 2766 531 
Q 2569 213 2275 61 
Q 1981 -91 1556 -91 
Q 1019 -91 701 211 
Q 384 513 384 1019 
Q 384 1609 779 1909 
Q 1175 2209 1959 2209 
L 2766 2209 
L 2766 2266 
Q 2766 2663 2505 2880 
Q 2244 3097 1772 3097 
Q 1472 3097 1187 3025 
Q 903 2953 641 2809 
L 641 3341 
Q 956 3463 1253 3523 
Q 1550 3584 1831 3584 
Q 2591 3584 2966 3190 
Q 3341 2797 3341 1997 
z
" transform="scale(0.015625)"/>
       <path id="DejaVuSans-6c" d="M 603 4863 
L 1178 4863 
L 1178 0 
L 603 0 
L 603 4863 
z
" transform="scale(0.015625)"/>
       <path id="DejaVuSans-7a" d="M 353 3500 
L 3084 3500 
L 3084 2975 
L 922 459 
L 3084 459 
L 3084 0 
L 275 0 
L 275 525 
L 2438 3041 
L 353 3041 
L 353 3500 
z
" transform="scale(0.015625)"/>
       <path id="DejaVuSans-64" d="M 2906 2969 
L 2906 4863 
L 3481 4863 
L 3481 0 
L 2906 0 
L 2906 525 
Q 2725 213 2448 61 
Q 2172 -91 1784 -91 
Q 1150 -91 751 415 
Q 353 922 353 1747 
Q 353 2572 751 3078 
Q 1150 3584 1784 3584 
Q 2172 3584 2448 3432 
Q 2725 3281 2906 2969 
z
M 947 1747 
Q 947 1113 1208 752 
Q 1469 391 1925 391 
Q 2381 391 2643 752 
Q 2906 1113 2906 1747 
Q 2906 2381 2643 2742 
Q 2381 3103 1925 3103 
Q 1469 3103 1208 2742 
Q 947 2381 947 1747 
z
" transform="scale(0.015625)"/>
       <path id="DejaVuSans-49" d="M 628 4666 
L 1259 4666 
L 1259 0 
L 628 0 
L 628 4666 
z
" transform="scale(0.015625)"/>
       <path id="DejaVuSans-73" d="M 2834 3397 
L 2834 2853 
Q 2591 2978 2328 3040 
Q 2066 3103 1784 3103 
Q 1356 3103 1142 2972 
Q 928 2841 928 2578 
Q 928 2378 1081 2264 
Q 1234 2150 1697 2047 
L 1894 2003 
Q 2506 1872 2764 1633 
Q 3022 1394 3022 966 
Q 3022 478 2636 193 
Q 2250 -91 1575 -91 
Q 1294 -91 989 -36 
Q 684 19 347 128 
L 347 722 
Q 666 556 975 473 
Q 1284 391 1588 391 
Q 1994 391 2212 530 
Q 2431 669 2431 922 
Q 2431 1156 2273 1281 
Q 2116 1406 1581 1522 
L 1381 1569 
Q 847 1681 609 1914 
Q 372 2147 372 2553 
Q 372 3047 722 3315 
Q 1072 3584 1716 3584 
Q 2034 3584 2315 3537 
Q 2597 3491 2834 3397 
z
" transform="scale(0.015625)"/>
       <path id="DejaVuSans-79" d="M 2059 -325 
Q 1816 -950 1584 -1140 
Q 1353 -1331 966 -1331 
L 506 -1331 
L 506 -850 
L 844 -850 
Q 1081 -850 1212 -737 
Q 1344 -625 1503 -206 
L 1606 56 
L 191 3500 
L 800 3500 
L 1894 763 
L 2988 3500 
L 3597 3500 
L 2059 -325 
z
" transform="scale(0.015625)"/>
      </defs>
      <use xlink:href="#DejaVuSans-4e"/>
      <use xlink:href="#DejaVuSans-6f" transform="translate(74.804688 0)"/>
      <use xlink:href="#DejaVuSans-72" transform="translate(135.986328 0)"/>
      <use xlink:href="#DejaVuSans-6d" transform="translate(175.349609 0)"/>
      <use xlink:href="#DejaVuSans-61" transform="translate(272.761719 0)"/>
      <use xlink:href="#DejaVuSans-6c" transform="translate(334.041016 0)"/>
      <use xlink:href="#DejaVuSans-69" transform="translate(361.824219 0)"/>
      <use xlink:href="#DejaVuSans-7a" transform="translate(389.607422 0)"/>
      <use xlink:href="#DejaVuSans-65" transform="translate(442.097656 0)"/>
      <use xlink:href="#DejaVuSans-64" transform="translate(503.621094 0)"/>
      <use xlink:href="#DejaVuSans-20" transform="translate(567.097656 0)"/>
      <use xlink:href="#DejaVuSans-49" transform="translate(598.884766 0)"/>
      <use xlink:href="#DejaVuSans-6e" transform="translate(628.376953 0)"/>
      <use xlink:href="#DejaVuSans-74" transform="translate(691.755859 0)"/>
      <use xlink:href="#DejaVuSans-65" transform="translate(730.964844 0)"/>
      <use xlink:href="#DejaVuSans-6e" transform="translate(792.488281 0)"/>
      <use xlink:href="#DejaVuSans-73" transform="translate(855.867188 0)"/>
      <use xlink:href="#DejaVuSans-69" transform="translate(907.966797 0)"/>
      <use xlink:href="#DejaVuSans-74" transform="translate(935.75 0)"/>
      <use xlink:href="#DejaVuSans-79" transform="translate(974.958984 0)"/>
     </g>
    </g>
   </g>
   <g id="line2d_13">
    <path d="M 84.332727 510.987273 
L 89.222574 510.892751 
L 99.002267 510.29973 
L 107.559499 510.428963 
L 119.784116 510.507126 
L 140.565964 510.030629 
L 162.570275 510.02536 
L 163.792736 509.903733 
L 165.015198 509.51992 
L 166.23766 508.756608 
L 168.682583 506.753805 
L 169.905045 506.231189 
L 171.127506 506.304358 
L 172.349968 506.844662 
L 174.794891 508.274746 
L 176.017353 508.814137 
L 177.239815 509.186403 
L 179.684738 509.602466 
L 180.9072 509.716487 
L 182.129662 509.561062 
L 183.352123 508.623198 
L 184.574585 506.610604 
L 185.797047 504.106344 
L 187.019508 502.274815 
L 188.24197 501.875776 
L 189.464432 502.79385 
L 191.909355 505.946115 
L 193.131817 507.14781 
L 194.354278 507.899672 
L 195.57674 508.294037 
L 198.021663 508.533295 
L 201.689048 508.491282 
L 205.356433 508.164956 
L 207.801357 507.941879 
L 209.023818 507.931756 
L 210.24628 508.042693 
L 213.913665 508.723584 
L 215.136127 508.720735 
L 218.803512 508.027744 
L 220.025974 508.113 
L 223.693359 509.163917 
L 224.91582 509.122623 
L 226.138282 508.524928 
L 227.360744 507.374802 
L 228.583205 506.005691 
L 229.805667 504.943061 
L 231.028129 504.580683 
L 232.25059 504.964137 
L 233.473052 505.838123 
L 235.917975 507.736115 
L 237.140437 508.371605 
L 238.362899 508.754893 
L 239.58536 508.938129 
L 242.030284 508.939885 
L 246.920131 508.681059 
L 255.477362 508.650953 
L 268.924441 508.26342 
L 272.591826 508.117315 
L 276.259211 507.940371 
L 279.926596 507.84773 
L 284.816443 507.572143 
L 288.483828 507.456103 
L 293.373674 507.284511 
L 297.041059 507.214757 
L 303.153368 506.793813 
L 309.265676 507.196918 
L 310.488138 507.180392 
L 311.710599 507.009312 
L 312.933061 506.508048 
L 314.155523 505.576145 
L 316.600446 503.218003 
L 317.822908 502.523974 
L 319.04537 502.420491 
L 320.267831 502.794002 
L 322.712755 503.981232 
L 323.935216 504.424414 
L 325.157678 504.695783 
L 327.602601 504.897384 
L 334.937371 505.10157 
L 337.382295 505.433483 
L 342.272141 506.389117 
L 344.717065 506.438542 
L 348.38445 506.265208 
L 350.829373 505.778783 
L 353.274297 505.008016 
L 354.496758 504.377284 
L 355.71922 503.248261 
L 356.941682 501.243978 
L 358.164143 497.981882 
L 359.386605 493.184241 
L 360.609067 486.795947 
L 361.831528 479.061471 
L 365.498913 454.164667 
L 366.721375 447.880243 
L 367.943837 443.575113 
L 369.166298 441.455412 
L 370.38876 441.486238 
L 371.611222 443.43584 
L 372.833683 446.922936 
L 374.056145 451.478636 
L 378.945992 471.568258 
L 380.168453 475.678605 
L 381.390915 479.279293 
L 382.613377 482.369051 
L 383.835839 484.842335 
L 385.0583 486.399425 
L 386.280762 485.783061 
L 387.503224 478.712313 
L 388.725685 457.951841 
L 389.948147 420.20933 
L 391.170609 374.237026 
L 392.39307 338.13411 
L 393.615532 326.565455 
L 394.837994 341.308793 
L 396.060455 372.808865 
L 397.282917 408.228263 
L 398.505379 438.220919 
L 399.72784 459.095648 
L 400.950302 471.532288 
L 402.172764 478.21181 
L 403.395225 481.859476 
L 404.617687 484.228889 
L 405.840149 485.986639 
L 407.06261 487.136282 
L 408.285072 487.564279 
L 409.507534 487.416819 
L 410.729995 487.141385 
L 411.952457 487.179498 
L 413.174919 487.514771 
L 414.39738 487.509571 
L 415.619842 486.399037 
L 416.842304 484.05171 
L 419.287227 477.656335 
L 421.732151 470.814778 
L 422.954612 468.953834 
L 424.177074 469.319186 
L 425.399536 471.163908 
L 426.621997 472.565586 
L 427.844459 472.186613 
L 429.066921 470.552274 
L 430.289382 469.444589 
L 431.511844 470.223459 
L 432.734306 472.862733 
L 433.956767 476.292798 
L 435.179229 479.349338 
L 436.401691 481.488344 
L 437.624152 482.880494 
L 440.069076 485.179585 
L 442.513999 487.594081 
L 443.736461 488.461859 
L 444.958922 488.885859 
L 446.181384 488.722759 
L 447.403846 487.849491 
L 449.848769 484.740718 
L 451.071231 483.575255 
L 452.293693 483.1914 
L 453.516154 483.493179 
L 457.183539 485.671211 
L 458.406001 486.091796 
L 460.850924 486.39475 
L 462.073386 486.907327 
L 463.295848 487.624035 
L 464.518309 487.828844 
L 465.740771 486.878493 
L 468.185694 482.71832 
L 469.408156 481.23599 
L 470.630618 480.912098 
L 471.853079 481.722001 
L 473.075541 483.328848 
L 475.520464 487.184407 
L 476.742926 488.791974 
L 477.965388 490.044256 
L 479.187849 491.014881 
L 481.632773 492.544229 
L 482.855234 493.121277 
L 484.077696 493.40725 
L 485.300158 493.328963 
L 487.745081 492.857805 
L 490.190005 492.841514 
L 491.412466 492.02803 
L 492.634928 489.963397 
L 493.85739 486.888768 
L 496.302313 480.140557 
L 497.524775 477.152402 
L 498.747236 475.168946 
L 499.969698 475.042147 
L 501.19216 477.047536 
L 502.414621 480.576078 
L 503.637083 484.551481 
L 504.859545 488.044288 
L 506.082006 490.581614 
L 507.304468 492.083457 
L 508.52693 492.697041 
L 509.749391 492.734089 
L 510.971853 492.618616 
L 512.194315 492.721685 
L 513.416776 493.183398 
L 515.8617 494.571814 
L 517.084161 495.002107 
L 518.306623 495.071474 
L 521.974008 494.556629 
L 523.19647 494.603607 
L 524.418932 494.435943 
L 525.641393 493.571125 
L 526.863855 491.741324 
L 528.086317 488.336926 
L 529.308778 480.926688 
L 530.53124 466.350917 
L 532.976163 426.529461 
L 534.198625 417.739574 
L 535.421087 422.409959 
L 536.643548 436.684822 
L 537.86601 453.827761 
L 539.088472 468.509311 
L 540.310933 478.492762 
L 541.533395 484.093958 
L 542.755857 486.837919 
L 543.978318 488.295715 
L 546.423242 490.711138 
L 548.868165 493.126518 
L 550.090627 493.876527 
L 551.313088 493.961217 
L 552.53555 493.225493 
L 553.758012 491.842166 
L 554.980474 490.273252 
L 556.202935 489.025741 
L 557.425397 488.457917 
L 558.647859 488.673112 
L 559.87032 489.460017 
L 561.092782 490.380608 
L 562.315244 491.032762 
L 563.537705 491.287743 
L 567.20509 491.385625 
L 569.650014 491.812669 
L 570.872475 491.856659 
L 572.094937 491.610017 
L 574.53986 490.512814 
L 575.762322 490.323203 
L 576.984784 490.738727 
L 579.429707 492.565402 
L 580.652169 493.182277 
L 581.87463 493.21237 
L 583.097092 492.653991 
L 586.764477 490.048045 
L 587.986939 489.436383 
L 589.209401 489.171929 
L 590.431862 489.437199 
L 591.654324 490.190029 
L 594.099247 491.984081 
L 595.321709 492.504595 
L 596.544171 492.650686 
L 597.766632 492.47637 
L 601.434017 491.45401 
L 602.656479 491.441965 
L 603.878941 491.776838 
L 605.101402 492.493228 
L 606.323864 493.530661 
L 608.768787 495.918604 
L 609.991249 496.932238 
L 611.213711 497.705382 
L 612.436172 498.238633 
L 613.658634 498.572828 
L 616.103557 498.851429 
L 617.326019 498.854098 
L 618.548481 498.68956 
L 619.770942 498.179583 
L 620.993404 497.193719 
L 623.438328 494.544653 
L 624.660789 493.636122 
L 625.883251 493.250815 
L 627.105713 493.24939 
L 628.328174 493.445335 
L 629.550636 493.768881 
L 633.218021 495.207027 
L 634.440483 495.390747 
L 636.885406 495.241199 
L 638.107868 495.366394 
L 640.552791 496.219526 
L 642.997714 496.989186 
L 644.220176 497.223382 
L 645.442638 497.343972 
L 646.665099 497.268147 
L 647.887561 496.890474 
L 649.110023 496.197482 
L 650.332484 495.351251 
L 651.554946 494.641997 
L 652.777408 494.323636 
L 653.999869 494.470695 
L 655.222331 494.969857 
L 657.667255 496.241113 
L 658.889716 496.728064 
L 661.33464 497.300756 
L 669.891871 498.640881 
L 673.559256 498.873902 
L 687.006335 499.45431 
L 694.341105 499.530495 
L 698.00849 499.639136 
L 700.453413 499.519791 
L 702.898337 499.228356 
L 710.233107 497.92799 
L 712.67803 497.083846 
L 713.900492 496.91874 
L 715.122953 497.074595 
L 718.790338 498.273607 
L 720.0128 498.444355 
L 722.457723 498.346113 
L 724.902647 498.156779 
L 727.34757 498.262516 
L 731.014955 498.707067 
L 732.237417 498.735168 
L 734.68234 498.431314 
L 735.904802 498.247816 
L 737.127264 498.187078 
L 738.349725 498.288086 
L 744.462034 499.327442 
L 749.35188 499.472122 
L 755.464189 499.730671 
L 759.131574 499.858591 
L 762.798959 499.668578 
L 766.466344 499.425946 
L 776.246037 499.033587 
L 781.135884 498.801575 
L 787.248192 498.624853 
L 804.362656 497.744878 
L 811.697426 496.955706 
L 816.587273 497.161773 
L 816.587273 497.161773 
" clip-path="url(#pbc138c3b2e)" style="fill: none; stroke: #0000ff; stroke-width: 1.5; stroke-linecap: square"/>
   </g>
   <g id="line2d_14">
    <path d="M 90.635495 234.231114 
L 90.976318 234.260459 
L 104.148342 234.300279 
L 110.237913 234.265329 
L 118.35897 234.292087 
L 160.07303 234.314963 
L 162.449007 234.28871 
L 169.165455 234.234787 
L 169.49332 234.059209 
L 169.832675 234.041574 
L 171.143398 233.805889 
L 172.783698 233.76613 
L 173.111073 233.921522 
L 174.423508 233.867475 
L 174.756751 234.094803 
L 174.756751 234.067981 
L 203.038891 234.172016 
L 230.406385 234.260499 
L 233.709721 234.278205 
L 241.323212 234.244403 
L 241.984564 234.250576 
L 271.290393 234.266563 
L 285.752359 234.262589 
L 285.752359 234.274736 
L 301.616489 234.273009 
L 312.439431 234.304526 
L 325.291415 234.27715 
L 333.07654 234.254584 
L 333.07654 234.260203 
L 341.525462 234.271594 
L 341.525462 234.256719 
L 355.704306 234.251648 
L 387.863361 234.205029 
L 389.522975 234.20375 
L 389.860619 234.150002 
L 390.193128 233.617792 
L 390.525638 233.459124 
L 390.525638 231.659534 
L 390.858392 231.159405 
L 390.858392 229.589961 
L 391.19139 229.426645 
L 391.19139 227.2952 
L 391.524633 226.942838 
L 391.524633 222.929974 
L 391.856899 223.829949 
L 391.856899 218.613738 
L 392.187208 220.734255 
L 392.187208 215.183762 
L 392.516539 218.320176 
L 392.516539 213.48987 
L 392.844892 217.737621 
L 392.844892 211.809697 
L 393.173001 216.690937 
L 393.173001 211.79862 
L 393.500621 216.371949 
L 393.500621 209.598019 
L 393.832886 214.551847 
L 393.832886 208.017856 
L 394.160261 212.858595 
L 394.160261 207.680654 
L 394.487881 208.939567 
L 394.82039 202.397226 
L 395.147521 209.270354 
L 395.147521 202.235647 
L 395.474896 199.511453 
L 395.802271 206.179732 
L 396.129647 206.22251 
L 396.129647 208.452828 
L 396.456777 209.684408 
L 396.456777 207.639428 
L 396.784397 214.355431 
L 396.784397 209.587647 
L 397.111772 216.331207 
L 397.439148 211.463572 
L 397.766767 211.346707 
L 397.766767 210.25031 
L 398.094632 203.243406 
L 398.423963 202.161621 
L 398.751827 208.71109 
L 398.751827 203.027731 
L 399.079936 202.898535 
L 399.741532 215.046695 
L 400.069885 215.253222 
L 400.069885 216.188288 
L 400.398238 218.062898 
L 400.398238 213.60879 
L 400.726592 219.150546 
L 400.726592 213.409027 
L 401.055434 213.480491 
L 401.055434 212.328806 
L 401.386232 216.822334 
L 401.386232 212.648452 
L 401.715563 218.302533 
L 401.715563 217.885226 
L 402.044894 218.760156 
L 402.044894 214.477619 
L 402.373981 218.583786 
L 402.373981 214.275962 
L 402.703801 219.452684 
L 402.703801 215.107882 
L 403.033377 219.736769 
L 403.033377 215.67905 
L 403.367598 220.122591 
L 403.367598 216.140761 
L 403.697418 221.027794 
L 403.697418 216.371243 
L 404.027727 220.606658 
L 404.027727 215.561343 
L 404.369772 216.066996 
L 404.369772 215.002126 
L 404.70546 214.138502 
L 405.036502 214.540254 
L 405.036502 215.25559 
L 405.36779 218.896875 
L 405.36779 216.160853 
L 405.698588 222.0858 
L 405.698588 217.113594 
L 406.02963 216.563374 
L 406.360917 216.615822 
L 406.360917 216.974438 
L 406.693182 216.869336 
L 406.693182 217.037422 
L 407.02667 222.042958 
L 407.02667 218.117621 
L 407.358691 221.534602 
L 407.358691 218.029391 
L 407.690956 222.333385 
L 407.690956 218.1836 
L 408.023221 221.912563 
L 408.023221 218.209342 
L 408.355975 221.577575 
L 408.355975 218.064582 
L 408.689707 219.374908 
L 409.02295 219.995061 
L 409.02295 219.753765 
L 409.356438 219.658716 
L 409.356438 220.298531 
L 409.69457 223.076429 
L 409.69457 220.170022 
L 410.028791 224.289787 
L 410.028791 221.489049 
L 410.36399 221.493989 
L 410.699678 221.874823 
L 410.699678 222.338901 
L 411.031943 219.49604 
L 411.364942 222.830557 
L 411.703075 222.708924 
L 411.703075 221.751922 
L 412.03534 224.491532 
L 412.03534 222.425808 
L 412.368339 225.281823 
L 412.368339 222.741341 
L 412.704271 226.162017 
L 412.704271 224.32708 
L 413.038981 226.676372 
L 413.038981 224.718164 
L 413.374425 227.487861 
L 413.374425 225.304925 
L 413.709868 224.842829 
L 414.044089 222.982387 
L 414.376354 224.795844 
L 414.376354 222.325799 
L 415.050664 227.1538 
L 415.050664 225.250012 
L 415.383907 227.55951 
L 415.383907 225.545082 
L 415.717639 227.461144 
L 415.717639 225.740331 
L 415.717639 227.118632 
L 416.053083 227.089311 
L 416.053083 226.745205 
L 416.387304 226.667851 
L 416.387304 226.753806 
L 416.722747 227.437217 
L 416.722747 225.808798 
L 417.056235 228.213536 
L 417.056235 226.402353 
L 417.389478 227.79238 
L 417.389478 226.160997 
L 417.723454 226.624188 
L 418.058898 226.601033 
L 418.058898 227.191719 
L 418.392385 227.660655 
L 418.727584 228.664933 
L 418.727584 227.811306 
L 419.061072 229.244134 
L 419.061072 228.039249 
L 419.394559 229.469847 
L 419.394559 228.442293 
L 419.732692 229.661772 
L 419.732692 228.465395 
L 420.06618 228.045928 
L 420.399912 228.0929 
L 420.399912 228.321502 
L 421.066887 228.024462 
L 421.40013 228.39796 
L 421.40013 228.001496 
L 421.733129 229.281273 
L 421.733129 230.043529 
L 422.070283 229.981711 
L 422.070283 230.115272 
L 422.40426 230.59123 
L 422.40426 229.539076 
L 422.737503 230.582756 
L 422.737503 229.56778 
L 423.070257 230.693526 
L 423.070257 229.552716 
L 423.403989 230.755248 
L 423.403989 229.833429 
L 423.403989 230.61571 
L 423.738944 230.364987 
L 423.738944 230.678917 
L 424.071942 230.668133 
L 424.071942 230.133283 
L 424.404207 228.77587 
L 424.739651 229.567057 
L 424.739651 228.630458 
L 424.739651 230.140341 
L 425.070204 231.466265 
L 425.070204 230.901386 
L 425.401003 230.977132 
L 425.401003 230.836723 
L 425.731312 230.761793 
L 425.731312 229.706905 
L 425.731312 230.538023 
L 426.060887 230.715632 
L 426.39193 230.937869 
L 426.39193 231.163771 
L 426.721995 231.321037 
L 426.721995 230.003955 
L 427.052304 230.989304 
L 427.052304 229.803437 
L 427.382124 230.674946 
L 427.382124 229.681462 
L 427.712678 230.957548 
L 427.712678 229.979883 
L 428.043476 230.867248 
L 428.043476 229.958554 
L 428.374763 230.991826 
L 428.374763 230.328613 
L 428.705072 230.166815 
L 429.037826 230.495946 
L 429.037826 230.859028 
L 429.369113 230.185063 
L 429.706757 230.815499 
L 429.706757 231.61745 
L 430.039511 231.576546 
L 430.039511 231.314281 
L 430.706242 231.350047 
L 430.706242 231.197372 
L 431.038996 231.219831 
L 431.038996 232.29267 
L 431.37175 231.479191 
L 432.044593 230.982747 
L 432.044593 231.116049 
L 432.376858 231.306027 
L 432.709856 232.240155 
L 432.709856 231.976885 
L 433.042855 232.382707 
L 433.042855 231.719064 
L 433.37512 232.48716 
L 433.37512 231.691785 
L 433.708119 230.895383 
L 434.041606 231.026488 
L 434.373871 230.500921 
L 434.711515 231.448591 
L 434.711515 232.235626 
L 435.043536 232.167165 
L 435.043536 232.167748 
L 435.375801 232.711669 
L 435.375801 232.077587 
L 436.376508 232.145115 
L 436.376508 232.246194 
L 436.710729 232.541978 
L 436.710729 232.191191 
L 437.043483 232.64769 
L 437.043483 231.826169 
L 437.377704 232.32186 
L 437.377704 232.050483 
L 438.044679 232.084059 
L 438.044679 232.548371 
L 438.376944 231.827734 
L 438.709698 232.242791 
L 439.044408 231.797746 
L 439.044408 231.911156 
L 439.376673 232.621693 
L 439.376673 232.056849 
L 439.714806 231.988006 
L 439.714806 232.293931 
L 440.04756 232.52981 
L 440.04756 232.083491 
L 440.388383 232.693987 
L 440.720892 232.828661 
L 440.720892 232.319481 
L 441.055602 232.316522 
L 441.055602 232.357619 
L 441.389579 232.671375 
L 441.389579 232.393249 
L 441.725756 232.850616 
L 441.725756 232.794264 
L 442.058265 232.874425 
L 442.058265 232.810591 
L 442.058265 233.113142 
L 442.391753 232.608508 
L 442.724996 232.603173 
L 443.057017 232.205483 
L 443.390749 232.34142 
L 443.390749 232.021224 
L 443.724725 232.470785 
L 443.724725 232.153094 
L 444.057235 232.458044 
L 444.057235 232.147404 
L 444.389989 232.533327 
L 444.389989 232.129152 
L 444.730322 232.9837 
L 444.730322 232.553713 
L 445.399009 232.391399 
L 445.399009 232.508938 
L 445.732985 232.440008 
L 445.732985 233.015599 
L 446.065495 232.649623 
L 446.398738 232.643266 
L 446.398738 232.68227 
L 446.732714 232.980705 
L 446.732714 232.608156 
L 447.065957 232.510869 
L 447.398956 232.882616 
L 447.398956 232.52529 
L 447.73391 231.927241 
L 448.066665 232.343793 
L 448.066665 232.572194 
L 448.401864 232.543853 
L 448.401864 232.309005 
L 448.734373 232.879504 
L 448.734373 232.745058 
L 449.067861 232.587172 
L 449.406972 232.572454 
L 449.406972 232.994505 
L 450.07957 232.416243 
L 450.413546 232.637708 
L 450.747523 232.137222 
L 451.080522 232.255817 
L 451.080522 232.788266 
L 451.414987 233.016351 
L 451.414987 233.353557 
L 451.747741 233.415293 
L 451.747741 233.268969 
L 452.079517 233.404185 
L 452.079517 233.176827 
L 452.411293 233.47317 
L 452.411293 233.251624 
L 453.076557 233.321143 
L 453.076557 233.201602 
L 453.410045 233.230289 
L 453.741821 233.550385 
L 453.741821 233.326711 
L 454.075553 233.389309 
L 454.075553 233.22756 
L 454.40904 233.178954 
L 454.748151 232.932927 
L 455.417327 232.833646 
L 456.084546 232.640178 
L 456.751032 233.187498 
L 457.41654 233.307719 
L 457.748806 233.012643 
L 458.081804 233.127072 
L 458.081804 233.059203 
L 458.414558 232.537349 
L 458.74829 232.732413 
L 458.74829 232.862076 
L 459.082511 232.638007 
L 459.417221 232.777881 
L 459.760733 233.100253 
L 459.760733 233.084305 
L 460.096176 233.110486 
L 460.429664 233.481682 
L 460.763152 233.457007 
L 461.096884 233.161433 
L 461.430371 233.215386 
L 461.430371 232.91989 
L 461.430371 233.009135 
L 461.762881 232.96712 
L 461.762881 233.237597 
L 462.4301 233.307413 
L 462.762854 232.918916 
L 463.097075 232.798372 
L 463.097075 232.621595 
L 463.430074 232.591885 
L 463.430074 232.356405 
L 463.762583 232.85123 
L 464.766714 233.307321 
L 464.766714 232.939999 
L 464.766714 233.100377 
L 465.099468 232.857512 
L 465.434667 232.933654 
L 465.434667 232.80405 
L 465.768643 233.062844 
L 466.102864 232.829815 
L 466.102864 232.908492 
L 466.437819 233.262627 
L 466.437819 233.064335 
L 466.769839 232.88298 
L 467.103327 232.850219 
L 467.103327 233.067416 
L 467.437792 232.748786 
L 467.77128 232.827788 
L 468.108924 233.146499 
L 468.108924 233.322689 
L 468.446812 233.32179 
L 468.446812 233.461982 
L 469.447519 233.311722 
L 469.447519 233.382165 
L 469.785408 233.673042 
L 470.117428 233.47989 
L 471.114957 233.593692 
L 472.113953 233.858153 
L 472.445729 233.802768 
L 472.445729 233.86998 
L 472.777505 233.907466 
L 472.777505 233.617991 
L 473.445213 233.787295 
L 473.445213 233.652912 
L 473.777968 233.957394 
L 473.777968 233.716597 
L 474.111211 233.67812 
L 474.111211 233.454579 
L 474.443476 233.16725 
L 475.116074 232.9576 
L 475.783294 233.249439 
L 476.115314 233.239698 
L 476.449291 233.026737 
L 476.781556 233.232839 
L 476.781556 233.015606 
L 477.115532 233.275467 
L 477.115532 233.228297 
L 477.448531 233.039311 
L 477.795955 233.057865 
L 477.795955 233.223824 
L 478.127975 232.935546 
L 478.459751 232.841387 
L 478.792994 233.284215 
L 478.792994 233.03352 
L 479.125504 233.153985 
L 479.125504 233.292622 
L 479.458258 233.327367 
L 479.458258 233.14135 
L 479.795902 233.33301 
L 479.795902 233.053939 
L 480.130612 232.8568 
L 480.130612 233.068884 
L 480.463121 233.189483 
L 480.463121 232.944409 
L 480.796854 233.433811 
L 481.463584 232.937508 
L 481.798294 233.1781 
L 481.798294 232.916648 
L 482.465758 233.476513 
L 482.465758 233.199114 
L 482.798512 233.368135 
L 482.798512 233.278602 
L 483.131755 233.247603 
L 483.46402 233.014862 
L 484.131484 232.850905 
L 484.803105 233.309417 
L 485.136837 232.920117 
L 485.469836 233.196981 
L 485.469836 232.938989 
L 485.802101 232.624138 
L 485.802101 232.718131 
L 486.468098 233.396611 
L 486.800607 233.243369 
L 487.138985 233.303742 
L 487.138985 232.949244 
L 487.47345 232.966254 
L 487.47345 232.948209 
L 487.806449 233.174041 
L 487.806449 232.918141 
L 488.139203 233.279848 
L 488.139203 233.091485 
L 488.471957 233.022093 
L 488.806911 232.740772 
L 488.806911 233.024768 
L 489.13991 233.096503 
L 489.472175 233.449674 
L 489.810308 233.430386 
L 489.810308 233.098895 
L 490.144284 233.353588 
L 490.144284 233.126615 
L 490.478261 233.361995 
L 490.478261 233.044996 
L 490.810526 233.375502 
L 490.810526 233.167826 
L 490.810526 233.355882 
L 491.142791 233.179928 
L 491.477501 233.12758 
L 491.810989 233.353817 
L 491.810989 233.059123 
L 492.143987 232.870637 
L 492.477719 233.214051 
L 492.477719 232.971381 
L 492.810962 232.675417 
L 493.81167 232.392758 
L 493.81167 232.542895 
L 494.145157 232.908769 
L 494.145157 233.083008 
L 494.145157 232.807558 
L 494.479623 233.186519 
L 494.479623 233.131491 
L 494.818733 233.115778 
L 494.818733 233.260272 
L 495.153443 233.510261 
L 495.153443 233.312771 
L 495.82433 233.344619 
L 495.82433 233.3965 
L 496.158307 233.632786 
L 496.158307 233.572966 
L 496.823815 233.349135 
L 497.157058 233.356948 
L 497.157058 233.191939 
L 497.488834 233.170414 
L 497.488834 233.311627 
L 497.821344 233.456601 
L 497.821344 233.235393 
L 497.821344 233.453263 
L 498.487096 233.30365 
L 498.487096 233.35547 
L 498.487096 233.290557 
L 498.819362 233.562019 
L 498.819362 233.431915 
L 499.151627 233.236253 
L 499.482914 233.467549 
L 499.482914 233.162152 
L 499.482914 233.191703 
L 499.822514 233.429028 
L 500.157224 232.80869 
L 500.489489 232.925035 
L 501.154508 232.318124 
L 501.489462 232.290864 
L 501.821972 232.845283 
L 501.821972 232.609987 
L 502.155948 232.857636 
L 502.155948 232.819424 
L 502.155948 233.09261 
L 502.489436 232.716871 
L 502.823168 232.9555 
L 502.823168 232.609854 
L 504.154429 232.481542 
L 504.154429 232.51931 
L 504.487183 232.966204 
L 504.487183 232.69954 
L 504.832895 232.992338 
L 505.165405 232.903077 
L 505.498159 233.005385 
L 505.498159 232.687436 
L 505.832135 233.073895 
L 505.832135 232.950223 
L 506.164645 233.180038 
L 506.830153 232.992206 
L 506.830153 233.05014 
L 507.161929 232.584776 
L 507.496639 232.556144 
L 507.496639 232.679073 
L 507.830371 232.806258 
L 508.831078 233.144307 
L 508.831078 233.520918 
L 509.163832 233.437283 
L 509.163832 233.292469 
L 509.497564 233.062189 
L 509.835697 233.047288 
L 509.835697 232.866971 
L 510.168696 232.873215 
L 510.168696 232.843233 
L 510.502428 233.107475 
L 510.502428 232.72108 
L 510.835182 232.990714 
L 510.835182 232.756144 
L 511.167447 233.051836 
L 511.167447 232.6193 
L 511.50069 232.987927 
L 511.50069 232.788336 
L 511.832711 233.041585 
L 511.832711 232.822657 
L 512.167176 233.268681 
L 512.167176 232.801844 
L 512.500908 232.776257 
L 512.835374 232.608963 
L 512.835374 232.632113 
L 513.17424 232.596544 
L 513.17424 232.839329 
L 513.508706 232.901427 
L 513.842193 232.80591 
L 513.842193 233.146065 
L 514.175436 232.860354 
L 514.84779 233.388564 
L 514.84779 233.097402 
L 515.847764 233.104438 
L 515.847764 232.857637 
L 516.181251 233.220681 
L 516.181251 232.959477 
L 516.51425 233.302507 
L 516.51425 232.862804 
L 516.846026 233.000487 
L 517.512023 232.774259 
L 517.512023 233.023712 
L 518.51273 233.117491 
L 518.51273 232.978193 
L 518.845484 233.279174 
L 518.845484 233.098589 
L 519.179216 233.390509 
L 519.179216 233.224869 
L 519.512459 233.458128 
L 519.512459 233.172874 
L 519.852304 233.357693 
L 519.852304 233.180031 
L 520.184569 233.331532 
L 520.184569 233.131843 
L 520.184569 233.364344 
L 520.516589 233.370797 
L 520.516589 233.320898 
L 520.84861 233.020133 
L 520.84861 233.25432 
L 521.18112 232.9249 
L 521.514118 232.890272 
L 521.514118 233.130222 
L 521.847606 233.171033 
L 521.847606 233.332841 
L 522.180849 232.916414 
L 522.513847 232.854986 
L 522.853692 232.912248 
L 522.853692 232.48431 
L 523.185223 232.773003 
L 523.518222 233.158029 
L 523.518222 232.87233 
L 523.850976 233.312898 
L 523.850976 232.91402 
L 524.518684 232.963682 
L 524.518684 232.863989 
L 524.856573 232.81257 
L 524.856573 233.007254 
L 525.189571 233.06983 
L 525.521836 232.706562 
L 526.190279 232.875253 
L 526.190279 233.00759 
L 526.5245 233.352206 
L 526.857254 233.041283 
L 526.857254 233.129849 
L 527.19123 233.244281 
L 527.19123 233.002076 
L 527.525451 233.392661 
L 527.525451 233.501779 
L 527.859428 233.221742 
L 528.192426 233.455864 
L 528.192426 233.193668 
L 528.52518 233.410472 
L 528.52518 233.123043 
L 528.860379 233.054794 
L 529.194111 233.109753 
L 529.194111 233.239412 
L 529.526132 233.101955 
L 529.863287 233.599079 
L 530.527328 233.127212 
L 530.857882 233.193541 
L 530.857882 233.01921 
L 531.188924 233.218744 
L 531.188924 232.962917 
L 531.519478 232.957885 
L 531.519478 231.975279 
L 531.850521 231.726903 
L 531.850521 228.924677 
L 532.185964 228.375687 
L 532.185964 224.287711 
L 532.51774 223.674385 
L 532.51774 214.18139 
L 532.850005 213.396393 
L 532.850005 199.794895 
L 533.181781 200.81876 
L 533.181781 181.003193 
L 533.512579 185.809764 
L 533.512579 162.362739 
L 533.8424 170.696008 
L 533.8424 141.580712 
L 534.171731 153.370398 
L 534.171731 120.971054 
L 534.500329 138.858446 
L 534.500329 100.000281 
L 534.833572 123.103949 
L 534.833572 87.765252 
L 535.16168 115.758362 
L 535.16168 71.872766 
L 535.489545 106.438235 
L 535.489545 70.761979 
L 535.817409 105.039204 
L 535.817409 61.84779 
L 536.145028 105.544595 
L 536.145028 61.81259 
L 536.473137 96.141803 
L 536.473137 49.932727 
L 536.800757 94.496453 
L 536.800757 63.113269 
L 537.128621 108.578393 
L 537.128621 72.525931 
L 537.456485 120.016585 
L 537.456485 86.059921 
L 537.784594 118.715312 
L 537.784594 83.984054 
L 538.112947 123.761519 
L 538.112947 93.498385 
L 538.441545 129.057769 
L 538.441545 102.664986 
L 538.769654 138.717013 
L 538.769654 111.570059 
L 539.098251 145.22637 
L 539.098251 122.429252 
L 539.426849 151.647431 
L 539.426849 128.424407 
L 539.76107 157.390084 
L 539.76107 135.329178 
L 540.090157 159.768133 
L 540.090157 138.251701 
L 540.419243 164.667388 
L 540.419243 144.5236 
L 540.74833 167.58627 
L 540.74833 145.554909 
L 541.077661 168.974182 
L 541.077661 150.586103 
L 541.411149 171.769178 
L 541.411149 155.151261 
L 541.741458 178.798048 
L 541.741458 160.246503 
L 542.071034 178.265095 
L 542.071034 161.134845 
L 542.400365 179.371169 
L 542.400365 161.53685 
L 542.729941 180.115038 
L 542.729941 166.596759 
L 543.059516 183.98766 
L 543.059516 169.661944 
L 543.39007 187.355452 
L 543.39007 169.448049 
L 543.720135 184.36879 
L 543.720135 172.957331 
L 544.050933 187.697125 
L 544.050933 174.825947 
L 544.381975 192.824846 
L 544.381975 180.201111 
L 544.717663 192.084049 
L 544.717663 180.077544 
L 545.048706 193.775434 
L 545.048706 181.847223 
L 545.379259 195.629567 
L 545.379259 185.1523 
L 545.709813 197.870705 
L 545.709813 187.590937 
L 546.040367 200.122044 
L 546.040367 189.638369 
L 546.372632 201.825823 
L 546.372632 191.834365 
L 546.70343 202.264051 
L 546.70343 192.065058 
L 547.036429 203.217818 
L 547.036429 192.630375 
L 547.368938 202.897185 
L 547.368938 193.369161 
L 547.700225 203.5688 
L 547.700225 193.804583 
L 548.032246 204.331024 
L 548.032246 196.902534 
L 548.032246 204.64509 
L 548.365489 196.210156 
L 548.698487 205.794401 
L 548.698487 198.382894 
L 549.032708 206.244509 
L 549.032708 202.554242 
L 549.364729 212.065944 
L 549.364729 205.485847 
L 549.702862 212.977423 
L 549.702862 204.911375 
L 550.036594 211.183346 
L 550.036594 204.880684 
L 550.368859 212.067961 
L 550.368859 205.833546 
L 550.706014 214.086834 
L 550.706014 208.321765 
L 551.038279 214.581568 
L 551.038279 208.009687 
L 551.371767 214.748546 
L 551.371767 209.357886 
L 552.039231 210.000599 
L 552.039231 211.738774 
L 552.371985 211.757396 
L 552.371985 212.806617 
L 552.70645 218.906303 
L 552.70645 214.938705 
L 553.038715 213.488214 
L 553.372203 213.820161 
L 553.372203 213.646758 
L 553.704713 213.429099 
L 553.704713 212.178847 
L 554.039667 218.651247 
L 554.039667 214.273296 
L 554.372177 219.053844 
L 554.372177 215.229365 
L 554.710309 220.861756 
L 554.710309 216.688897 
L 555.043308 216.632863 
L 555.375573 216.970859 
L 555.375573 218.055513 
L 555.708083 218.286173 
L 555.708083 219.044513 
L 556.052817 223.800642 
L 556.052817 220.128104 
L 556.052817 222.382034 
L 556.387282 222.136377 
L 556.387282 221.980192 
L 556.720281 221.833649 
L 556.720281 222.426234 
L 557.053769 223.326559 
L 557.053769 220.209734 
L 557.386523 224.220077 
L 557.386523 221.825369 
L 557.719521 224.927892 
L 557.719521 222.545459 
L 558.054231 225.741331 
L 558.054231 223.584015 
L 558.386252 226.121667 
L 558.386252 223.852778 
L 558.719739 226.588574 
L 558.719739 224.735731 
L 559.058606 226.935775 
L 559.058606 224.792254 
L 559.058606 226.682195 
L 559.391115 226.598265 
L 559.391115 226.888243 
L 559.729004 226.951382 
L 559.729004 227.4137 
L 560.062736 225.836152 
L 560.39549 225.884551 
L 560.39549 225.588822 
L 560.728733 225.322579 
L 560.728733 225.745738 
L 561.061976 228.302797 
L 561.061976 226.339035 
L 561.39693 227.201147 
L 561.730907 227.466539 
L 561.730907 227.313929 
L 562.063661 225.63964 
L 562.727947 225.89333 
L 563.060701 225.738328 
L 563.060701 225.452145 
L 563.394188 225.615056 
L 563.394188 227.387061 
L 563.726453 228.679697 
L 563.726453 227.261537 
L 564.06043 229.287034 
L 564.39245 229.731664 
L 564.39245 228.595365 
L 564.730339 230.299762 
L 564.730339 229.079661 
L 565.062848 228.460991 
L 565.397314 228.367982 
L 565.397314 228.196644 
L 565.734958 228.096941 
L 565.734958 228.318489 
L 566.06869 230.197099 
L 566.06869 228.735312 
L 566.401688 230.121942 
L 566.401688 229.152399 
L 566.734443 229.090728 
L 566.734443 228.617627 
L 567.067686 229.918119 
L 567.067686 228.85451 
L 567.067686 229.317643 
L 567.401418 230.706721 
L 567.401418 229.802026 
L 567.734661 230.951857 
L 567.734661 230.543781 
L 568.067904 230.411752 
L 568.067904 230.578717 
L 568.407993 229.140646 
L 568.741969 230.145811 
L 568.741969 229.080777 
L 569.074479 230.305186 
L 569.407233 230.630832 
L 569.407233 229.298627 
L 569.746588 230.10989 
L 569.746588 229.276445 
L 570.081054 230.735578 
L 570.081054 229.661633 
L 570.413808 231.071401 
L 570.413808 230.076168 
L 570.746073 230.88651 
L 570.746073 229.925575 
L 571.414759 230.088618 
L 571.414759 230.594286 
L 571.748491 229.465987 
L 572.080512 230.362103 
L 572.080512 230.071391 
L 572.412777 229.999112 
L 572.412777 230.062738 
L 572.746754 231.163448 
L 572.746754 230.301022 
L 573.079263 231.498037 
L 573.079263 230.452982 
L 573.412262 231.18842 
L 573.412262 230.306796 
L 573.744282 231.36701 
L 573.744282 230.64965 
L 574.078503 231.867531 
L 574.078503 231.095386 
L 574.078503 231.794451 
L 574.411502 230.843042 
L 574.74939 231.62329 
L 574.74939 230.693132 
L 574.74939 231.435526 
L 575.0819 231.683759 
L 575.0819 232.00432 
L 575.414165 231.196739 
L 575.746919 231.035625 
L 575.746919 230.710092 
L 576.07894 230.714048 
L 576.07894 230.369127 
L 576.412183 231.159629 
L 576.412183 231.678731 
L 576.745915 230.869364 
L 577.085026 231.64766 
L 577.085026 231.108123 
L 577.418269 231.460084 
L 577.418269 231.653119 
L 577.752245 231.049738 
L 578.087933 231.154044 
L 578.087933 230.926976 
L 578.42191 230.813096 
L 578.42191 230.886648 
L 578.756131 231.059414 
L 579.088885 230.359274 
L 579.088885 230.98478 
L 579.422128 231.155079 
L 579.422128 231.075457 
L 579.422128 231.595368 
L 579.761483 232.157951 
L 579.761483 231.932171 
L 580.093015 231.814325 
L 580.426258 231.958857 
L 580.426258 231.418973 
L 580.758523 231.193845 
L 581.091521 230.684525 
L 581.424765 231.577288 
L 581.424765 231.038889 
L 581.424765 231.619649 
L 581.758986 232.318661 
L 581.758986 232.219866 
L 582.093207 232.241093 
L 582.093207 232.13093 
L 582.427183 231.941768 
L 582.760182 231.884427 
L 582.760182 231.958163 
L 583.094403 232.017308 
L 583.094403 232.141856 
L 583.426668 232.513796 
L 583.426668 231.907988 
L 583.7604 231.88561 
L 584.094376 231.225774 
L 584.426152 231.186688 
L 584.765263 230.41854 
L 585.098995 230.965453 
L 585.098995 231.192557 
L 585.438351 231.095441 
L 585.772816 231.652252 
L 585.772816 231.620041 
L 586.10557 231.70111 
L 586.10557 231.686371 
L 586.10557 232.261986 
L 586.43808 232.317339 
L 586.43808 232.64166 
L 586.772056 231.944175 
L 587.106033 231.958437 
L 587.438787 232.145135 
L 587.438787 231.609534 
L 587.771297 232.121697 
L 587.771297 232.348611 
L 588.436071 232.051047 
L 588.436071 231.866084 
L 588.769559 231.183532 
L 589.104513 231.667741 
L 589.437023 231.012544 
L 589.775156 231.251817 
L 590.108643 231.991796 
L 590.108643 231.65284 
L 590.440908 232.142225 
L 590.440908 232.637604 
L 590.774151 233.107879 
L 590.774151 232.617515 
L 591.107395 233.006041 
L 591.107395 232.756264 
L 591.440149 232.966561 
L 591.440149 232.656635 
L 591.773147 233.108858 
L 591.773147 232.718638 
L 592.107613 232.579032 
L 592.440122 232.640753 
L 592.440122 232.527636 
L 592.774099 232.408396 
L 592.774099 232.49973 
L 593.106853 232.897528 
L 593.106853 232.473974 
L 593.440829 232.380125 
L 593.774806 232.533557 
L 593.774806 232.468912 
L 594.109027 232.31606 
L 594.109027 232.85746 
L 594.442759 233.355687 
L 594.442759 232.846607 
L 594.787004 232.898151 
L 595.119269 233.095345 
L 595.119269 232.416602 
L 595.452512 232.136166 
L 595.785266 232.098922 
L 596.118754 232.478781 
L 596.118754 231.949288 
L 596.786462 232.328176 
L 597.118972 231.861656 
L 597.451971 232.51415 
L 597.784969 232.628444 
L 597.784969 232.556789 
L 598.117968 232.523835 
L 598.451211 232.109059 
L 598.784943 232.269136 
L 599.453874 233.170278 
L 599.453874 233.050822 
L 599.793229 233.103719 
L 599.793229 232.897691 
L 600.129651 232.954853 
L 600.46216 232.737173 
L 600.794914 233.12613 
L 600.794914 232.681021 
L 601.128891 232.621886 
L 601.462378 232.705109 
L 601.462378 232.929844 
L 601.79611 232.506699 
L 601.79611 232.780141 
L 602.128131 232.893953 
L 602.128131 232.710596 
L 602.465041 232.786042 
L 602.465041 232.93117 
L 602.797551 232.902533 
L 603.130305 233.115061 
L 603.46257 233.025413 
L 603.46257 232.77523 
L 603.796302 232.958662 
L 603.796302 232.623916 
L 604.131012 232.903672 
L 604.131012 232.688346 
L 604.802877 232.93517 
L 604.802877 232.745447 
L 605.135631 232.490587 
L 605.469119 232.567107 
L 605.802362 232.956153 
L 605.802362 232.599634 
L 605.802362 232.847806 
L 606.134138 232.792971 
L 606.134138 232.98726 
L 606.467137 232.62405 
L 607.802554 233.138582 
L 608.472707 232.733197 
L 608.805217 232.272028 
L 609.138704 232.501422 
L 609.138704 232.336797 
L 609.472436 232.285236 
L 609.812036 232.608221 
L 609.812036 232.843648 
L 610.145035 232.766938 
L 610.480723 233.058762 
L 610.480723 232.828664 
L 610.820323 233.091534 
L 610.820323 232.699323 
L 611.157966 233.120787 
L 611.157966 232.806506 
L 611.823719 232.77622 
L 611.823719 232.90418 
L 612.490939 232.325311 
L 612.823448 232.52838 
L 612.823448 232.124879 
L 613.157914 231.996357 
L 613.157914 232.353381 
L 613.493602 232.985119 
L 613.493602 232.85669 
L 613.826356 233.124604 
L 613.826356 233.117568 
L 614.161555 233.225003 
L 614.161555 232.645356 
L 614.497243 232.813287 
L 614.497243 232.490181 
L 614.836354 232.967682 
L 614.836354 232.545127 
L 615.17033 233.04563 
L 615.17033 232.704817 
L 615.506263 233.123972 
L 615.506263 232.689396 
L 615.840973 232.976789 
L 615.840973 232.804897 
L 616.173971 233.102759 
L 616.173971 232.782814 
L 616.507459 233.208435 
L 616.507459 232.974312 
L 616.840946 233.209704 
L 616.840946 233.00681 
L 617.174189 232.915702 
L 617.506699 232.375498 
L 617.840675 232.740959 
L 617.840675 232.4545 
L 618.175141 232.806113 
L 618.510584 233.231431 
L 618.510584 232.83145 
L 618.510584 233.046803 
L 618.843339 232.641067 
L 619.183427 233.003269 
L 619.183427 232.788142 
L 619.856026 232.711666 
L 619.856026 232.747317 
L 620.191225 232.758813 
L 620.191225 232.677815 
L 620.191225 233.021142 
L 620.52569 233.120128 
L 620.859178 232.755143 
L 621.193643 232.960943 
L 621.193643 232.671262 
L 621.526397 232.759266 
L 621.526397 232.55768 
L 621.526397 232.727279 
L 621.860374 232.877305 
L 622.193373 232.618106 
L 622.527105 232.869517 
L 623.195058 232.960169 
L 623.195058 232.830714 
L 623.530501 233.025145 
L 623.530501 232.8884 
L 623.864967 233.047465 
L 623.864967 233.010888 
L 624.533653 233.592387 
L 624.533653 233.258828 
L 624.874475 233.406968 
L 625.206985 233.519741 
L 625.206985 233.257732 
L 625.540228 233.215155 
L 625.872493 233.3366 
L 625.872493 232.899596 
L 626.207448 232.681635 
L 626.540446 232.697273 
L 626.872467 232.852277 
L 627.206443 232.623342 
L 627.540909 232.989751 
L 627.540909 232.896467 
L 627.874641 233.124453 
L 627.874641 232.974325 
L 628.210084 233.15618 
L 628.210084 232.990518 
L 628.543327 233.198708 
L 628.543327 232.952794 
L 628.876326 233.390646 
L 628.876326 233.204669 
L 628.876326 233.318933 
L 629.211525 233.072503 
L 629.550636 233.273102 
L 629.550636 232.979691 
L 629.889747 233.144434 
L 629.889747 232.863063 
L 630.222745 233.172176 
L 630.222745 232.829473 
L 630.556477 233.028337 
L 630.556477 232.771448 
L 630.889476 232.929577 
L 631.223452 232.762459 
L 631.223452 232.968842 
L 631.556451 232.88568 
L 631.556451 232.936505 
L 631.891895 233.110372 
L 631.891895 233.009154 
L 632.22636 233.141845 
L 632.22636 232.869672 
L 632.22636 233.092984 
L 632.894313 232.515322 
L 633.228779 232.875741 
L 633.228779 232.83536 
L 633.563244 232.646727 
L 633.563244 232.819312 
L 634.232175 232.484982 
L 634.904529 233.306951 
L 634.904529 233.252562 
L 635.571993 232.769232 
L 635.907192 232.824847 
L 635.907192 233.213243 
L 636.241658 233.432859 
L 636.241658 233.212481 
L 636.577101 232.978699 
L 636.577101 232.815318 
L 636.911078 232.403271 
L 637.246032 232.658892 
L 637.246032 232.826703 
L 637.912763 233.122282 
L 637.912763 232.880217 
L 638.245761 232.793222 
L 638.245761 232.592779 
L 638.245761 233.108194 
L 638.913225 232.680326 
L 638.913225 232.704346 
L 639.587291 233.082135 
L 639.587291 233.578422 
L 639.927135 233.562186 
L 639.927135 233.246647 
L 640.260378 232.978855 
L 640.260378 232.984718 
L 640.593621 233.01003 
L 640.593621 232.754503 
L 640.92662 233.120132 
L 640.92662 232.960756 
L 641.259618 233.064522 
L 641.259618 232.904216 
L 641.593839 233.161149 
L 641.593839 232.984678 
L 641.926349 233.396358 
L 641.926349 233.216823 
L 642.261792 233.378547 
L 642.261792 233.310663 
L 642.594791 233.397245 
L 642.594791 233.183174 
L 642.928034 233.060054 
L 643.263233 233.2114 
L 643.263233 233.011734 
L 643.596476 232.636978 
L 643.596476 232.849063 
L 643.931431 233.237693 
L 643.931431 233.098484 
L 644.264918 233.378329 
L 644.264918 233.638985 
L 644.598895 233.548053 
L 644.598895 233.314125 
L 644.598895 233.412385 
L 645.272471 233.684123 
L 645.272471 233.651639 
L 645.605714 233.238888 
L 645.938713 233.219796 
L 645.938713 233.101525 
L 646.27489 232.995062 
L 646.27489 232.875354 
L 646.608622 233.185524 
L 646.942598 233.056728 
L 647.278286 233.185984 
L 647.278286 233.48756 
L 647.612752 233.303934 
L 647.612752 233.308503 
L 647.945995 233.262991 
L 648.281438 233.078292 
L 648.61517 232.986536 
L 649.28948 233.41206 
L 649.962812 233.373535 
L 650.297522 233.626172 
L 650.297522 233.583235 
L 650.632232 233.234704 
L 650.966453 233.410796 
L 650.966453 233.256595 
L 651.30043 232.827489 
L 651.634406 232.591715 
L 651.634406 233.019766 
L 651.968627 232.658573 
L 652.303093 232.822508 
L 652.303093 233.082014 
L 652.637069 233.364245 
L 652.97129 233.264096 
L 653.636309 233.489298 
L 653.636309 233.36985 
L 653.968085 233.791603 
L 653.968085 233.573964 
L 654.629926 233.728178 
L 654.629926 233.340493 
L 654.965859 233.307414 
L 655.296412 232.963297 
L 655.296412 233.082757 
L 655.626966 232.812399 
L 655.626966 233.046729 
L 655.95752 233.065186 
L 656.289296 233.300302 
L 656.289296 233.148613 
L 656.957249 232.889781 
L 657.288047 232.99825 
L 657.288047 233.153114 
L 657.619579 233.572099 
L 657.619579 233.503929 
L 657.951599 233.692532 
L 657.951599 233.373758 
L 658.283375 233.388615 
L 658.283375 233.165886 
L 658.614173 233.351114 
L 658.947172 233.087095 
L 658.947172 233.418246 
L 659.278948 233.071543 
L 659.949101 232.854167 
L 659.949101 233.206743 
L 660.280878 232.928598 
L 660.612165 233.102558 
L 661.277428 233.018222 
L 661.277428 233.316188 
L 661.612383 233.274348 
L 661.944648 233.685602 
L 662.9456 233.592388 
L 662.9456 233.242354 
L 662.9456 233.475318 
L 663.280065 233.444139 
L 663.280065 233.472949 
L 663.615264 233.603297 
L 663.615264 233.523247 
L 663.949241 233.587203 
L 663.949241 233.51112 
L 663.949241 233.40861 
L 664.618661 233.086253 
L 664.618661 233.225257 
L 664.957038 233.329391 
L 664.957038 233.49972 
L 665.297616 233.484222 
L 665.297616 233.68703 
L 665.632081 233.395202 
L 665.96508 233.396384 
L 666.300523 233.011373 
L 666.635233 233.019156 
L 666.635233 233.206577 
L 666.970921 233.105057 
L 667.304164 233.354132 
L 667.304164 233.351205 
L 667.975785 233.458185 
L 668.311473 233.309933 
L 668.311473 233.15289 
L 668.645205 233.20196 
L 668.645205 233.115676 
L 669.315847 233.686359 
L 669.315847 233.560118 
L 669.992113 233.585728 
L 670.329268 233.339417 
L 670.329268 233.452179 
L 670.664712 233.498588 
L 671.001133 233.254539 
L 671.335599 233.558677 
L 671.670798 233.174927 
L 671.670798 233.295814 
L 672.343151 233.155418 
L 672.343151 233.234344 
L 674.038217 232.955377 
L 674.372682 233.240105 
L 674.372682 233.418286 
L 674.709593 233.564987 
L 674.709593 233.563876 
L 674.709593 233.783544 
L 675.050904 233.713982 
L 675.050904 233.861761 
L 676.063836 233.423079 
L 676.063836 233.547513 
L 676.399279 233.567033 
L 676.736434 233.431629 
L 676.736434 233.599622 
L 677.074567 233.636634 
L 677.409033 233.882564 
L 677.409033 233.705811 
L 677.409033 233.762841 
L 678.759364 233.140564 
L 679.094318 233.053026 
L 679.765939 233.431399 
L 680.108962 233.357733 
L 680.108962 233.414496 
L 680.446116 233.463471 
L 680.782049 233.783642 
L 681.120182 233.490197 
L 681.45587 233.628622 
L 681.45587 233.505676 
L 681.791558 233.509341 
L 681.791558 233.38473 
L 682.806445 233.083906 
L 683.482711 233.353681 
L 683.482711 233.312425 
L 683.822067 233.461647 
L 683.822067 233.305034 
L 684.496132 233.661247 
L 684.496132 233.374734 
L 684.496132 233.579624 
L 685.174354 233.204856 
L 685.513465 233.475575 
L 685.513465 233.357247 
L 686.186063 233.473019 
L 686.521018 233.672618 
L 686.521018 233.619853 
L 686.857439 233.618501 
L 686.857439 233.812631 
L 687.192149 233.691582 
L 687.192149 233.515572 
L 687.529793 233.69189 
L 687.865725 233.614321 
L 687.865725 233.643149 
L 688.203369 233.740277 
L 688.203369 233.582823 
L 688.539791 233.541397 
L 688.539791 233.55494 
L 688.874745 233.656964 
L 688.874745 233.498846 
L 688.874745 233.689244 
L 689.211411 233.588988 
L 689.211411 233.626477 
L 689.887432 233.64422 
L 689.887432 233.709243 
L 690.569566 233.279882 
L 690.569566 233.426656 
L 690.905988 233.244596 
L 691.582498 233.21395 
L 692.25803 233.588879 
L 692.596897 233.514276 
L 692.596897 233.568407 
L 695.646205 233.698583 
L 695.646205 233.494547 
L 695.984338 233.672332 
L 695.984338 233.758188 
L 696.32027 233.596418 
L 696.65767 233.633856 
L 696.997025 233.417531 
L 697.336625 233.345383 
L 697.336625 233.181304 
L 698.010201 233.541582 
L 698.685489 233.84094 
L 698.685489 233.71517 
L 699.022889 233.680617 
L 699.360777 233.808762 
L 699.700866 233.696282 
L 700.037532 233.702632 
L 700.037532 233.616229 
L 700.728956 233.444171 
L 700.728956 233.445997 
L 701.744577 233.859754 
L 701.744577 233.96664 
L 702.421088 233.760265 
L 702.421088 233.434518 
L 702.758243 233.494396 
L 703.097598 233.628455 
L 703.097598 233.623909 
L 703.097598 233.972519 
L 704.792174 233.635537 
L 704.792174 233.742414 
L 705.131774 233.682784 
L 705.814886 233.877996 
L 706.154975 233.645285 
L 706.495063 233.865003 
L 706.495063 233.778801 
L 706.834419 233.788828 
L 706.834419 233.9279 
L 707.173774 233.971265 
L 707.514841 233.678013 
L 707.514841 233.78859 
L 708.195019 233.875411 
L 709.21553 233.642133 
L 709.553662 233.791541 
L 709.553662 233.652523 
L 709.893751 233.382404 
L 710.232373 233.444053 
L 710.232373 233.427568 
L 710.575885 233.276336 
L 710.922086 233.464943 
L 710.922086 233.704437 
L 711.261686 233.483094 
L 711.600797 233.560263 
L 711.94113 233.819607 
L 711.94113 233.74931 
L 712.282197 233.589955 
L 712.282197 233.852622 
L 713.64622 233.636494 
L 714.326642 233.88939 
L 714.326642 233.815716 
L 714.326642 233.956456 
L 714.666975 233.875086 
L 715.007309 233.748139 
L 715.007309 233.821949 
L 716.368642 233.830669 
L 716.707264 233.6951 
L 717.389153 233.765841 
L 717.389153 233.606071 
L 717.729486 233.80416 
L 717.729486 233.675719 
L 718.408686 233.82756 
L 718.408686 233.721984 
L 719.087641 233.547209 
L 719.087641 233.635797 
L 719.426263 233.493692 
L 719.771975 233.581983 
L 719.771975 233.778745 
L 720.112309 233.846914 
L 720.112309 233.724987 
L 720.450686 233.983071 
L 720.450686 233.919538 
L 721.135753 233.713189 
L 721.475842 233.709251 
L 721.475842 233.862468 
L 721.816176 233.835709 
L 721.816176 233.953286 
L 722.839132 233.764 
L 723.178731 233.654977 
L 724.878442 233.859105 
L 724.878442 233.850166 
L 725.556419 233.73285 
L 726.581087 233.852275 
L 726.927532 233.898836 
L 726.927532 233.832487 
L 727.603309 233.872599 
L 727.603309 233.952192 
L 728.279819 233.868765 
L 728.620153 234.005957 
L 728.620153 233.967526 
L 729.298619 234.066766 
L 729.979286 233.747199 
L 729.979286 233.833051 
L 730.319619 233.795155 
L 730.319619 234.017641 
L 730.656529 234.084587 
L 730.656529 234.028653 
L 731.002242 233.855376 
L 731.679974 233.810623 
L 732.020063 234.011308 
L 732.020063 233.975209 
L 732.697307 233.78321 
L 733.037396 233.646839 
L 733.377485 233.658717 
L 733.377485 233.648074 
L 734.057907 234.004673 
L 734.394817 234.095251 
L 734.394817 234.056727 
L 736.783996 233.683016 
L 736.783996 233.705011 
L 738.136283 233.840965 
L 738.136283 233.699792 
L 738.473438 233.806352 
L 738.473438 233.803506 
L 739.826215 233.721294 
L 739.826215 233.767227 
L 739.826215 233.819254 
L 740.843058 233.87266 
L 740.843058 233.777685 
L 741.864058 233.672115 
L 741.864058 233.747451 
L 743.561324 233.858591 
L 743.561324 233.819115 
L 743.900435 233.8184 
L 743.900435 233.88336 
L 744.239057 233.967879 
L 744.239057 233.918838 
L 744.585502 233.882032 
L 744.585502 234.001588 
L 745.943168 233.925322 
L 747.303768 233.847414 
L 747.303768 233.902874 
L 747.981501 234.062646 
L 748.662168 233.933147 
L 748.662168 233.915003 
L 749.680234 233.745774 
L 749.680234 233.918812 
L 751.032032 233.744829 
L 751.032032 233.868977 
L 751.377499 234.013133 
L 751.722478 233.901262 
L 751.722478 233.950855 
L 752.060367 233.990741 
L 752.396788 233.882427 
L 752.736877 233.902776 
L 753.414854 233.718505 
L 753.414854 233.763483 
L 754.092587 233.80943 
L 754.092587 233.904897 
L 755.442673 233.911985 
L 756.467585 234.123714 
L 757.481984 233.623025 
L 757.821584 233.534138 
L 757.821584 233.635816 
L 758.50005 233.943283 
L 758.836961 233.835785 
L 759.174604 233.902703 
L 759.174604 233.899216 
L 759.851848 233.734541 
L 759.851848 233.798438 
L 760.872604 233.97532 
L 760.872604 233.890484 
L 761.209514 233.811543 
L 761.209514 233.858088 
L 761.895071 233.679686 
L 761.895071 233.747517 
L 762.232959 233.756473 
L 762.574515 233.897966 
L 762.574515 233.869628 
L 762.912892 233.881967 
L 762.912892 233.81445 
L 763.588914 233.782541 
L 764.603312 233.896404 
L 764.603312 233.738869 
L 764.939734 233.622369 
L 765.616489 233.553509 
L 765.616489 233.728356 
L 766.296422 233.983998 
L 766.296422 234.055545 
L 766.975866 233.923844 
L 766.975866 233.983998 
L 766.975866 233.973749 
L 767.649931 233.907767 
L 767.985375 233.897813 
L 768.321307 233.732829 
L 768.660907 233.92048 
L 768.660907 233.831039 
L 769.674328 233.88089 
L 769.674328 233.95494 
L 771.023681 233.9932 
L 771.023681 233.936904 
L 771.359614 233.789401 
L 771.359614 233.805393 
L 773.05639 233.753729 
L 773.05639 233.795192 
L 774.073967 233.969771 
L 774.409411 234.035211 
L 775.415741 233.746416 
L 776.771451 233.856326 
L 777.108362 234.012459 
L 777.108362 234.099792 
L 777.445272 234.182616 
L 777.445272 234.080169 
L 779.470402 233.725426 
L 779.470402 233.735792 
L 779.807068 233.732953 
L 779.807068 233.800226 
L 780.141289 233.854982 
L 780.141289 234.047044 
L 780.478933 234.164333 
L 780.478933 234.132418 
L 780.814132 233.902604 
L 780.814132 233.908688 
L 781.149576 233.937791 
L 781.149576 233.855356 
L 781.488931 233.852065 
L 781.488931 234.05643 
L 781.828775 233.92644 
L 782.16593 234.018173 
L 782.16593 233.957901 
L 783.175684 234.101892 
L 783.175684 233.954899 
L 784.529438 233.811152 
L 784.529438 233.826838 
L 784.864881 233.653917 
L 784.864881 233.719382 
L 785.538213 233.791857 
L 785.538213 233.760829 
L 785.876346 233.887796 
L 787.225944 233.910143 
L 787.225944 233.945439 
L 787.225944 233.954498 
L 788.906339 233.941873 
L 789.901912 233.905152 
L 789.901912 233.935401 
L 790.564975 233.96147 
L 791.555169 233.85192 
L 791.555169 233.978188 
L 791.89208 233.978104 
L 791.89208 233.834978 
L 792.550253 233.866863 
L 792.550253 233.895283 
L 792.879095 234.065875 
L 793.866844 233.78424 
L 793.866844 233.880924 
L 794.853127 233.686343 
L 795.510322 233.95758 
L 795.510322 233.928094 
L 795.839164 233.596259 
L 796.49636 233.591695 
L 796.49636 233.862646 
L 797.164313 233.69908 
L 797.49291 233.694708 
L 797.49291 233.710009 
L 797.821508 233.897138 
L 798.15035 233.830176 
L 798.15035 233.834506 
L 798.807546 233.866078 
L 798.807546 233.719728 
L 799.136388 233.735261 
L 799.136388 233.850452 
L 799.464985 233.883456 
L 799.464985 233.72809 
L 799.793339 233.591465 
L 799.793339 233.714089 
L 800.122181 233.605797 
L 800.451023 233.743134 
L 800.451023 233.940012 
L 801.108952 233.888121 
L 801.108952 233.976762 
L 802.103547 233.910332 
L 802.103547 233.762352 
L 803.091785 233.597808 
L 803.091785 233.722421 
L 803.421849 233.87612 
L 803.421849 234.06106 
L 803.750936 233.915745 
L 803.750936 233.948823 
L 804.080756 233.938837 
L 804.080756 233.735464 
L 804.410821 233.657207 
L 804.740152 233.866382 
L 805.738903 233.89897 
L 805.738903 233.981975 
L 806.068479 233.789419 
L 806.398544 233.876116 
L 806.398544 234.007104 
L 806.733498 233.854563 
L 807.394605 234.006532 
L 807.394605 233.961915 
L 808.054246 233.892946 
L 808.054246 233.911855 
L 808.715109 234.003348 
L 808.715109 234.09721 
L 809.707503 234.049957 
L 809.707503 233.990183 
L 811.030206 233.839957 
L 812.028713 233.958058 
L 812.028713 233.773809 
L 812.36 233.747423 
L 812.690309 233.917714 
L 813.695173 234.022457 
L 814.041374 234.303039 
L 816.482141 234.334521 
L 816.482141 234.334521 
" clip-path="url(#pbc138c3b2e)" style="fill: none; stroke: #008000; stroke-width: 1.5; stroke-linecap: square"/>
   </g>
   <g id="patch_3">
    <path d="M 47.72 534.04 
L 47.72 26.88 
" style="fill: none; stroke: #000000; stroke-width: 0.8; stroke-linejoin: miter; stroke-linecap: square"/>
   </g>
   <g id="patch_4">
    <path d="M 853.2 534.04 
L 853.2 26.88 
" style="fill: none; stroke: #000000; stroke-width: 0.8; stroke-linejoin: miter; stroke-linecap: square"/>
   </g>
   <g id="patch_5">
    <path d="M 47.72 534.04 
L 853.2 534.04 
" style="fill: none; stroke: #000000; stroke-width: 0.8; stroke-linejoin: miter; stroke-linecap: square"/>
   </g>
   <g id="patch_6">
    <path d="M 47.72 26.88 
L 853.2 26.88 
" style="fill: none; stroke: #000000; stroke-width: 0.8; stroke-linejoin: miter; stroke-linecap: square"/>
   </g>
   <g id="patch_7">
    <path d="M 604.754614 423.539683 
Q 578.60332 429.373546 552.452026 435.207408 
L 553.322943 439.111445 
Q 546.815163 437.489467 540.307383 435.867489 
Q 545.508787 431.633412 550.710192 427.399335 
L 551.581109 431.303371 
Q 577.732403 425.469509 603.883697 419.635646 
L 604.754614 423.539683 
z
" style="stroke: #000000; stroke-linecap: round"/>
   </g>
   <g id="text_15">
    <!-- Peak: RT=3.09, Area=8.09e+03 -->
    <g style="fill: #ff0000" transform="translate(609.991249 407.044827) scale(0.1 -0.1)">
     <defs>
      <path id="DejaVuSans-50" d="M 1259 4147 
L 1259 2394 
L 2053 2394 
Q 2494 2394 2734 2622 
Q 2975 2850 2975 3272 
Q 2975 3691 2734 3919 
Q 2494 4147 2053 4147 
L 1259 4147 
z
M 628 4666 
L 2053 4666 
Q 2838 4666 3239 4311 
Q 3641 3956 3641 3272 
Q 3641 2581 3239 2228 
Q 2838 1875 2053 1875 
L 1259 1875 
L 1259 0 
L 628 0 
L 628 4666 
z
" transform="scale(0.015625)"/>
      <path id="DejaVuSans-6b" d="M 581 4863 
L 1159 4863 
L 1159 1991 
L 2875 3500 
L 3609 3500 
L 1753 1863 
L 3688 0 
L 2938 0 
L 1159 1709 
L 1159 0 
L 581 0 
L 581 4863 
z
" transform="scale(0.015625)"/>
      <path id="DejaVuSans-3a" d="M 750 794 
L 1409 794 
L 1409 0 
L 750 0 
L 750 794 
z
M 750 3309 
L 1409 3309 
L 1409 2516 
L 750 2516 
L 750 3309 
z
" transform="scale(0.015625)"/>
      <path id="DejaVuSans-3d" d="M 678 2906 
L 4684 2906 
L 4684 2381 
L 678 2381 
L 678 2906 
z
M 678 1631 
L 4684 1631 
L 4684 1100 
L 678 1100 
L 678 1631 
z
" transform="scale(0.015625)"/>
      <path id="DejaVuSans-39" d="M 703 97 
L 703 672 
Q 941 559 1184 500 
Q 1428 441 1663 441 
Q 2288 441 2617 861 
Q 2947 1281 2994 2138 
Q 2813 1869 2534 1725 
Q 2256 1581 1919 1581 
Q 1219 1581 811 2004 
Q 403 2428 403 3163 
Q 403 3881 828 4315 
Q 1253 4750 1959 4750 
Q 2769 4750 3195 4129 
Q 3622 3509 3622 2328 
Q 3622 1225 3098 567 
Q 2575 -91 1691 -91 
Q 1453 -91 1209 -44 
Q 966 3 703 97 
z
M 1959 2075 
Q 2384 2075 2632 2365 
Q 2881 2656 2881 3163 
Q 2881 3666 2632 3958 
Q 2384 4250 1959 4250 
Q 1534 4250 1286 3958 
Q 1038 3666 1038 3163 
Q 1038 2656 1286 2365 
Q 1534 2075 1959 2075 
z
" transform="scale(0.015625)"/>
      <path id="DejaVuSans-2c" d="M 750 794 
L 1409 794 
L 1409 256 
L 897 -744 
L 494 -744 
L 750 256 
L 750 794 
z
" transform="scale(0.015625)"/>
      <path id="DejaVuSans-41" d="M 2188 4044 
L 1331 1722 
L 3047 1722 
L 2188 4044 
z
M 1831 4666 
L 2547 4666 
L 4325 0 
L 3669 0 
L 3244 1197 
L 1141 1197 
L 716 0 
L 50 0 
L 1831 4666 
z
" transform="scale(0.015625)"/>
      <path id="DejaVuSans-38" d="M 2034 2216 
Q 1584 2216 1326 1975 
Q 1069 1734 1069 1313 
Q 1069 891 1326 650 
Q 1584 409 2034 409 
Q 2484 409 2743 651 
Q 3003 894 3003 1313 
Q 3003 1734 2745 1975 
Q 2488 2216 2034 2216 
z
M 1403 2484 
Q 997 2584 770 2862 
Q 544 3141 544 3541 
Q 544 4100 942 4425 
Q 1341 4750 2034 4750 
Q 2731 4750 3128 4425 
Q 3525 4100 3525 3541 
Q 3525 3141 3298 2862 
Q 3072 2584 2669 2484 
Q 3125 2378 3379 2068 
Q 3634 1759 3634 1313 
Q 3634 634 3220 271 
Q 2806 -91 2034 -91 
Q 1263 -91 848 271 
Q 434 634 434 1313 
Q 434 1759 690 2068 
Q 947 2378 1403 2484 
z
M 1172 3481 
Q 1172 3119 1398 2916 
Q 1625 2713 2034 2713 
Q 2441 2713 2670 2916 
Q 2900 3119 2900 3481 
Q 2900 3844 2670 4047 
Q 2441 4250 2034 4250 
Q 1625 4250 1398 4047 
Q 1172 3844 1172 3481 
z
" transform="scale(0.015625)"/>
      <path id="DejaVuSans-2b" d="M 2944 4013 
L 2944 2272 
L 4684 2272 
L 4684 1741 
L 2944 1741 
L 2944 0 
L 2419 0 
L 2419 1741 
L 678 1741 
L 678 2272 
L 2419 2272 
L 2419 4013 
L 2944 4013 
z
" transform="scale(0.015625)"/>
     </defs>
     <use xlink:href="#DejaVuSans-50"/>
     <use xlink:href="#DejaVuSans-65" transform="translate(56.677734 0)"/>
     <use xlink:href="#DejaVuSans-61" transform="translate(118.201172 0)"/>
     <use xlink:href="#DejaVuSans-6b" transform="translate(179.480469 0)"/>
     <use xlink:href="#DejaVuSans-3a" transform="translate(237.390625 0)"/>
     <use xlink:href="#DejaVuSans-20" transform="translate(271.082031 0)"/>
     <use xlink:href="#DejaVuSans-52" transform="translate(302.869141 0)"/>
     <use xlink:href="#DejaVuSans-54" transform="translate(365.101562 0)"/>
     <use xlink:href="#DejaVuSans-3d" transform="translate(426.185547 0)"/>
     <use xlink:href="#DejaVuSans-33" transform="translate(509.974609 0)"/>
     <use xlink:href="#DejaVuSans-2e" transform="translate(573.597656 0)"/>
     <use xlink:href="#DejaVuSans-30" transform="translate(605.384766 0)"/>
     <use xlink:href="#DejaVuSans-39" transform="translate(669.007812 0)"/>
     <use xlink:href="#DejaVuSans-2c" transform="translate(732.630859 0)"/>
     <use xlink:href="#DejaVuSans-20" transform="translate(764.417969 0)"/>
     <use xlink:href="#DejaVuSans-41" transform="translate(796.205078 0)"/>
     <use xlink:href="#DejaVuSans-72" transform="translate(864.613281 0)"/>
     <use xlink:href="#DejaVuSans-65" transform="translate(903.476562 0)"/>
     <use xlink:href="#DejaVuSans-61" transform="translate(965 0)"/>
     <use xlink:href="#DejaVuSans-3d" transform="translate(1026.279297 0)"/>
     <use xlink:href="#DejaVuSans-38" transform="translate(1110.068359 0)"/>
     <use xlink:href="#DejaVuSans-2e" transform="translate(1173.691406 0)"/>
     <use xlink:href="#DejaVuSans-30" transform="translate(1205.478516 0)"/>
     <use xlink:href="#DejaVuSans-39" transform="translate(1269.101562 0)"/>
     <use xlink:href="#DejaVuSans-65" transform="translate(1332.724609 0)"/>
     <use xlink:href="#DejaVuSans-2b" transform="translate(1394.248047 0)"/>
     <use xlink:href="#DejaVuSans-30" transform="translate(1478.037109 0)"/>
     <use xlink:href="#DejaVuSans-33" transform="translate(1541.660156 0)"/>
    </g>
    <!-- (14.42% of total) -->
    <g style="fill: #ff0000" transform="translate(609.991249 418.24264) scale(0.1 -0.1)">
     <defs>
      <path id="DejaVuSans-25" d="M 4653 2053 
Q 4381 2053 4226 1822 
Q 4072 1591 4072 1178 
Q 4072 772 4226 539 
Q 4381 306 4653 306 
Q 4919 306 5073 539 
Q 5228 772 5228 1178 
Q 5228 1588 5073 1820 
Q 4919 2053 4653 2053 
z
M 4653 2450 
Q 5147 2450 5437 2106 
Q 5728 1763 5728 1178 
Q 5728 594 5436 251 
Q 5144 -91 4653 -91 
Q 4153 -91 3862 251 
Q 3572 594 3572 1178 
Q 3572 1766 3864 2108 
Q 4156 2450 4653 2450 
z
M 1428 4353 
Q 1159 4353 1004 4120 
Q 850 3888 850 3481 
Q 850 3069 1003 2837 
Q 1156 2606 1428 2606 
Q 1700 2606 1854 2837 
Q 2009 3069 2009 3481 
Q 2009 3884 1853 4118 
Q 1697 4353 1428 4353 
z
M 4250 4750 
L 4750 4750 
L 1831 -91 
L 1331 -91 
L 4250 4750 
z
M 1428 4750 
Q 1922 4750 2215 4408 
Q 2509 4066 2509 3481 
Q 2509 2891 2217 2550 
Q 1925 2209 1428 2209 
Q 931 2209 642 2551 
Q 353 2894 353 3481 
Q 353 4063 643 4406 
Q 934 4750 1428 4750 
z
" transform="scale(0.015625)"/>
      <path id="DejaVuSans-66" d="M 2375 4863 
L 2375 4384 
L 1825 4384 
Q 1516 4384 1395 4259 
Q 1275 4134 1275 3809 
L 1275 3500 
L 2222 3500 
L 2222 3053 
L 1275 3053 
L 1275 0 
L 697 0 
L 697 3053 
L 147 3053 
L 147 3500 
L 697 3500 
L 697 3744 
Q 697 4328 969 4595 
Q 1241 4863 1831 4863 
L 2375 4863 
z
" transform="scale(0.015625)"/>
     </defs>
     <use xlink:href="#DejaVuSans-28"/>
     <use xlink:href="#DejaVuSans-31" transform="translate(39.013672 0)"/>
     <use xlink:href="#DejaVuSans-34" transform="translate(102.636719 0)"/>
     <use xlink:href="#DejaVuSans-2e" transform="translate(166.259766 0)"/>
     <use xlink:href="#DejaVuSans-34" transform="translate(198.046875 0)"/>
     <use xlink:href="#DejaVuSans-32" transform="translate(261.669922 0)"/>
     <use xlink:href="#DejaVuSans-25" transform="translate(325.292969 0)"/>
     <use xlink:href="#DejaVuSans-20" transform="translate(420.3125 0)"/>
     <use xlink:href="#DejaVuSans-6f" transform="translate(452.099609 0)"/>
     <use xlink:href="#DejaVuSans-66" transform="translate(513.28125 0)"/>
     <use xlink:href="#DejaVuSans-20" transform="translate(548.486328 0)"/>
     <use xlink:href="#DejaVuSans-74" transform="translate(580.273438 0)"/>
     <use xlink:href="#DejaVuSans-6f" transform="translate(619.482422 0)"/>
     <use xlink:href="#DejaVuSans-74" transform="translate(680.664062 0)"/>
     <use xlink:href="#DejaVuSans-61" transform="translate(719.873047 0)"/>
     <use xlink:href="#DejaVuSans-6c" transform="translate(781.152344 0)"/>
     <use xlink:href="#DejaVuSans-29" transform="translate(808.935547 0)"/>
    </g>
   </g>
   <g id="text_16">
    <!-- UV &amp; MS Chromatograms: IrCp2G1, target m/z=839.099384 -->
    <g transform="translate(269.397813 20.88) scale(0.12 -0.12)">
     <defs>
      <path id="DejaVuSans-55" d="M 556 4666 
L 1191 4666 
L 1191 1831 
Q 1191 1081 1462 751 
Q 1734 422 2344 422 
Q 2950 422 3222 751 
Q 3494 1081 3494 1831 
L 3494 4666 
L 4128 4666 
L 4128 1753 
Q 4128 841 3676 375 
Q 3225 -91 2344 -91 
Q 1459 -91 1007 375 
Q 556 841 556 1753 
L 556 4666 
z
" transform="scale(0.015625)"/>
      <path id="DejaVuSans-56" d="M 1831 0 
L 50 4666 
L 709 4666 
L 2188 738 
L 3669 4666 
L 4325 4666 
L 2547 0 
L 1831 0 
z
" transform="scale(0.015625)"/>
      <path id="DejaVuSans-26" d="M 1556 2509 
Q 1272 2256 1139 2004 
Q 1006 1753 1006 1478 
Q 1006 1022 1337 719 
Q 1669 416 2169 416 
Q 2466 416 2725 514 
Q 2984 613 3213 813 
L 1556 2509 
z
M 1997 2859 
L 3584 1234 
Q 3769 1513 3872 1830 
Q 3975 2147 3994 2503 
L 4575 2503 
Q 4538 2091 4375 1687 
Q 4213 1284 3922 891 
L 4794 0 
L 4006 0 
L 3559 459 
Q 3234 181 2878 45 
Q 2522 -91 2113 -91 
Q 1359 -91 881 339 
Q 403 769 403 1441 
Q 403 1841 612 2192 
Q 822 2544 1241 2853 
Q 1091 3050 1012 3245 
Q 934 3441 934 3628 
Q 934 4134 1281 4442 
Q 1628 4750 2203 4750 
Q 2463 4750 2720 4694 
Q 2978 4638 3244 4525 
L 3244 3956 
Q 2972 4103 2725 4179 
Q 2478 4256 2266 4256 
Q 1938 4256 1733 4082 
Q 1528 3909 1528 3634 
Q 1528 3475 1620 3314 
Q 1713 3153 1997 2859 
z
" transform="scale(0.015625)"/>
      <path id="DejaVuSans-4d" d="M 628 4666 
L 1569 4666 
L 2759 1491 
L 3956 4666 
L 4897 4666 
L 4897 0 
L 4281 0 
L 4281 4097 
L 3078 897 
L 2444 897 
L 1241 4097 
L 1241 0 
L 628 0 
L 628 4666 
z
" transform="scale(0.015625)"/>
      <path id="DejaVuSans-53" d="M 3425 4513 
L 3425 3897 
Q 3066 4069 2747 4153 
Q 2428 4238 2131 4238 
Q 1616 4238 1336 4038 
Q 1056 3838 1056 3469 
Q 1056 3159 1242 3001 
Q 1428 2844 1947 2747 
L 2328 2669 
Q 3034 2534 3370 2195 
Q 3706 1856 3706 1288 
Q 3706 609 3251 259 
Q 2797 -91 1919 -91 
Q 1588 -91 1214 -16 
Q 841 59 441 206 
L 441 856 
Q 825 641 1194 531 
Q 1563 422 1919 422 
Q 2459 422 2753 634 
Q 3047 847 3047 1241 
Q 3047 1584 2836 1778 
Q 2625 1972 2144 2069 
L 1759 2144 
Q 1053 2284 737 2584 
Q 422 2884 422 3419 
Q 422 4038 858 4394 
Q 1294 4750 2059 4750 
Q 2388 4750 2728 4690 
Q 3069 4631 3425 4513 
z
" transform="scale(0.015625)"/>
      <path id="DejaVuSans-43" d="M 4122 4306 
L 4122 3641 
Q 3803 3938 3442 4084 
Q 3081 4231 2675 4231 
Q 1875 4231 1450 3742 
Q 1025 3253 1025 2328 
Q 1025 1406 1450 917 
Q 1875 428 2675 428 
Q 3081 428 3442 575 
Q 3803 722 4122 1019 
L 4122 359 
Q 3791 134 3420 21 
Q 3050 -91 2638 -91 
Q 1578 -91 968 557 
Q 359 1206 359 2328 
Q 359 3453 968 4101 
Q 1578 4750 2638 4750 
Q 3056 4750 3426 4639 
Q 3797 4528 4122 4306 
z
" transform="scale(0.015625)"/>
      <path id="DejaVuSans-68" d="M 3513 2113 
L 3513 0 
L 2938 0 
L 2938 2094 
Q 2938 2591 2744 2837 
Q 2550 3084 2163 3084 
Q 1697 3084 1428 2787 
Q 1159 2491 1159 1978 
L 1159 0 
L 581 0 
L 581 4863 
L 1159 4863 
L 1159 2956 
Q 1366 3272 1645 3428 
Q 1925 3584 2291 3584 
Q 2894 3584 3203 3211 
Q 3513 2838 3513 2113 
z
" transform="scale(0.015625)"/>
      <path id="DejaVuSans-67" d="M 2906 1791 
Q 2906 2416 2648 2759 
Q 2391 3103 1925 3103 
Q 1463 3103 1205 2759 
Q 947 2416 947 1791 
Q 947 1169 1205 825 
Q 1463 481 1925 481 
Q 2391 481 2648 825 
Q 2906 1169 2906 1791 
z
M 3481 434 
Q 3481 -459 3084 -895 
Q 2688 -1331 1869 -1331 
Q 1566 -1331 1297 -1286 
Q 1028 -1241 775 -1147 
L 775 -588 
Q 1028 -725 1275 -790 
Q 1522 -856 1778 -856 
Q 2344 -856 2625 -561 
Q 2906 -266 2906 331 
L 2906 616 
Q 2728 306 2450 153 
Q 2172 0 1784 0 
Q 1141 0 747 490 
Q 353 981 353 1791 
Q 353 2603 747 3093 
Q 1141 3584 1784 3584 
Q 2172 3584 2450 3431 
Q 2728 3278 2906 2969 
L 2906 3500 
L 3481 3500 
L 3481 434 
z
" transform="scale(0.015625)"/>
      <path id="DejaVuSans-70" d="M 1159 525 
L 1159 -1331 
L 581 -1331 
L 581 3500 
L 1159 3500 
L 1159 2969 
Q 1341 3281 1617 3432 
Q 1894 3584 2278 3584 
Q 2916 3584 3314 3078 
Q 3713 2572 3713 1747 
Q 3713 922 3314 415 
Q 2916 -91 2278 -91 
Q 1894 -91 1617 61 
Q 1341 213 1159 525 
z
M 3116 1747 
Q 3116 2381 2855 2742 
Q 2594 3103 2138 3103 
Q 1681 3103 1420 2742 
Q 1159 2381 1159 1747 
Q 1159 1113 1420 752 
Q 1681 391 2138 391 
Q 2594 391 2855 752 
Q 3116 1113 3116 1747 
z
" transform="scale(0.015625)"/>
      <path id="DejaVuSans-47" d="M 3809 666 
L 3809 1919 
L 2778 1919 
L 2778 2438 
L 4434 2438 
L 4434 434 
Q 4069 175 3628 42 
Q 3188 -91 2688 -91 
Q 1594 -91 976 548 
Q 359 1188 359 2328 
Q 359 3472 976 4111 
Q 1594 4750 2688 4750 
Q 3144 4750 3555 4637 
Q 3966 4525 4313 4306 
L 4313 3634 
Q 3963 3931 3569 4081 
Q 3175 4231 2741 4231 
Q 1884 4231 1454 3753 
Q 1025 3275 1025 2328 
Q 1025 1384 1454 906 
Q 1884 428 2741 428 
Q 3075 428 3337 486 
Q 3600 544 3809 666 
z
" transform="scale(0.015625)"/>
      <path id="DejaVuSans-2f" d="M 1625 4666 
L 2156 4666 
L 531 -594 
L 0 -594 
L 1625 4666 
z
" transform="scale(0.015625)"/>
     </defs>
     <use xlink:href="#DejaVuSans-55"/>
     <use xlink:href="#DejaVuSans-56" transform="translate(73.193359 0)"/>
     <use xlink:href="#DejaVuSans-20" transform="translate(141.601562 0)"/>
     <use xlink:href="#DejaVuSans-26" transform="translate(173.388672 0)"/>
     <use xlink:href="#DejaVuSans-20" transform="translate(251.367188 0)"/>
     <use xlink:href="#DejaVuSans-4d" transform="translate(283.154297 0)"/>
     <use xlink:href="#DejaVuSans-53" transform="translate(369.433594 0)"/>
     <use xlink:href="#DejaVuSans-20" transform="translate(432.910156 0)"/>
     <use xlink:href="#DejaVuSans-43" transform="translate(464.697266 0)"/>
     <use xlink:href="#DejaVuSans-68" transform="translate(534.521484 0)"/>
     <use xlink:href="#DejaVuSans-72" transform="translate(597.900391 0)"/>
     <use xlink:href="#DejaVuSans-6f" transform="translate(636.763672 0)"/>
     <use xlink:href="#DejaVuSans-6d" transform="translate(697.945312 0)"/>
     <use xlink:href="#DejaVuSans-61" transform="translate(795.357422 0)"/>
     <use xlink:href="#DejaVuSans-74" transform="translate(856.636719 0)"/>
     <use xlink:href="#DejaVuSans-6f" transform="translate(895.845703 0)"/>
     <use xlink:href="#DejaVuSans-67" transform="translate(957.027344 0)"/>
     <use xlink:href="#DejaVuSans-72" transform="translate(1020.503906 0)"/>
     <use xlink:href="#DejaVuSans-61" transform="translate(1061.617188 0)"/>
     <use xlink:href="#DejaVuSans-6d" transform="translate(1122.896484 0)"/>
     <use xlink:href="#DejaVuSans-73" transform="translate(1220.308594 0)"/>
     <use xlink:href="#DejaVuSans-3a" transform="translate(1272.408203 0)"/>
     <use xlink:href="#DejaVuSans-20" transform="translate(1306.099609 0)"/>
     <use xlink:href="#DejaVuSans-49" transform="translate(1337.886719 0)"/>
     <use xlink:href="#DejaVuSans-72" transform="translate(1367.378906 0)"/>
     <use xlink:href="#DejaVuSans-43" transform="translate(1408.492188 0)"/>
     <use xlink:href="#DejaVuSans-70" transform="translate(1478.316406 0)"/>
     <use xlink:href="#DejaVuSans-32" transform="translate(1541.792969 0)"/>
     <use xlink:href="#DejaVuSans-47" transform="translate(1605.416016 0)"/>
     <use xlink:href="#DejaVuSans-31" transform="translate(1682.90625 0)"/>
     <use xlink:href="#DejaVuSans-2c" transform="translate(1746.529297 0)"/>
     <use xlink:href="#DejaVuSans-20" transform="translate(1778.316406 0)"/>
     <use xlink:href="#DejaVuSans-74" transform="translate(1810.103516 0)"/>
     <use xlink:href="#DejaVuSans-61" transform="translate(1849.3125 0)"/>
     <use xlink:href="#DejaVuSans-72" transform="translate(1910.591797 0)"/>
     <use xlink:href="#DejaVuSans-67" transform="translate(1949.955078 0)"/>
     <use xlink:href="#DejaVuSans-65" transform="translate(2013.431641 0)"/>
     <use xlink:href="#DejaVuSans-74" transform="translate(2074.955078 0)"/>
     <use xlink:href="#DejaVuSans-20" transform="translate(2114.164062 0)"/>
     <use xlink:href="#DejaVuSans-6d" transform="translate(2145.951172 0)"/>
     <use xlink:href="#DejaVuSans-2f" transform="translate(2243.363281 0)"/>
     <use xlink:href="#DejaVuSans-7a" transform="translate(2277.054688 0)"/>
     <use xlink:href="#DejaVuSans-3d" transform="translate(2329.544922 0)"/>
     <use xlink:href="#DejaVuSans-38" transform="translate(2413.333984 0)"/>
     <use xlink:href="#DejaVuSans-33" transform="translate(2476.957031 0)"/>
     <use xlink:href="#DejaVuSans-39" transform="translate(2540.580078 0)"/>
     <use xlink:href="#DejaVuSans-2e" transform="translate(2604.203125 0)"/>
     <use xlink:href="#DejaVuSans-30" transform="translate(2635.990234 0)"/>
     <use xlink:href="#DejaVuSans-39" transform="translate(2699.613281 0)"/>
     <use xlink:href="#DejaVuSans-39" transform="translate(2763.236328 0)"/>
     <use xlink:href="#DejaVuSans-33" transform="translate(2826.859375 0)"/>
     <use xlink:href="#DejaVuSans-38" transform="translate(2890.482422 0)"/>
     <use xlink:href="#DejaVuSans-34" transform="translate(2954.105469 0)"/>
    </g>
   </g>
   <g id="legend_1">
    <g id="patch_8">
     <path d="M 685.971875 64.23625 
L 846.2 64.23625 
Q 848.2 64.23625 848.2 62.23625 
L 848.2 33.88 
Q 848.2 31.88 846.2 31.88 
L 685.971875 31.88 
Q 683.971875 31.88 683.971875 33.88 
L 683.971875 62.23625 
Q 683.971875 64.23625 685.971875 64.23625 
z
" style="fill: #ffffff; opacity: 0.8; stroke: #cccccc; stroke-linejoin: miter"/>
    </g>
    <g id="line2d_15">
     <path d="M 687.971875 39.978437 
L 697.971875 39.978437 
L 707.971875 39.978437 
" style="fill: none; stroke: #0000ff; stroke-width: 1.5; stroke-linecap: square"/>
    </g>
    <g id="text_17">
     <!-- UV Intensity (normalized) -->
     <g transform="translate(715.971875 43.478437) scale(0.1 -0.1)">
      <use xlink:href="#DejaVuSans-55"/>
      <use xlink:href="#DejaVuSans-56" transform="translate(73.193359 0)"/>
      <use xlink:href="#DejaVuSans-20" transform="translate(141.601562 0)"/>
      <use xlink:href="#DejaVuSans-49" transform="translate(173.388672 0)"/>
      <use xlink:href="#DejaVuSans-6e" transform="translate(202.880859 0)"/>
      <use xlink:href="#DejaVuSans-74" transform="translate(266.259766 0)"/>
      <use xlink:href="#DejaVuSans-65" transform="translate(305.46875 0)"/>
      <use xlink:href="#DejaVuSans-6e" transform="translate(366.992188 0)"/>
      <use xlink:href="#DejaVuSans-73" transform="translate(430.371094 0)"/>
      <use xlink:href="#DejaVuSans-69" transform="translate(482.470703 0)"/>
      <use xlink:href="#DejaVuSans-74" transform="translate(510.253906 0)"/>
      <use xlink:href="#DejaVuSans-79" transform="translate(549.462891 0)"/>
      <use xlink:href="#DejaVuSans-20" transform="translate(608.642578 0)"/>
      <use xlink:href="#DejaVuSans-28" transform="translate(640.429688 0)"/>
      <use xlink:href="#DejaVuSans-6e" transform="translate(679.443359 0)"/>
      <use xlink:href="#DejaVuSans-6f" transform="translate(742.822266 0)"/>
      <use xlink:href="#DejaVuSans-72" transform="translate(804.003906 0)"/>
      <use xlink:href="#DejaVuSans-6d" transform="translate(843.367188 0)"/>
      <use xlink:href="#DejaVuSans-61" transform="translate(940.779297 0)"/>
      <use xlink:href="#DejaVuSans-6c" transform="translate(1002.058594 0)"/>
      <use xlink:href="#DejaVuSans-69" transform="translate(1029.841797 0)"/>
      <use xlink:href="#DejaVuSans-7a" transform="translate(1057.625 0)"/>
      <use xlink:href="#DejaVuSans-65" transform="translate(1110.115234 0)"/>
      <use xlink:href="#DejaVuSans-64" transform="translate(1171.638672 0)"/>
      <use xlink:href="#DejaVuSans-29" transform="translate(1235.115234 0)"/>
     </g>
    </g>
    <g id="line2d_16">
     <path d="M 687.971875 54.656562 
L 697.971875 54.656562 
L 707.971875 54.656562 
" style="fill: none; stroke: #008000; stroke-width: 1.5; stroke-linecap: square"/>
    </g>
    <g id="text_18">
     <!-- MS Intensity (normalized) -->
     <g transform="translate(715.971875 58.156562) scale(0.1 -0.1)">
      <use xlink:href="#DejaVuSans-4d"/>
      <use xlink:href="#DejaVuSans-53" transform="translate(86.279297 0)"/>
      <use xlink:href="#DejaVuSans-20" transform="translate(149.755859 0)"/>
      <use xlink:href="#DejaVuSans-49" transform="translate(181.542969 0)"/>
      <use xlink:href="#DejaVuSans-6e" transform="translate(211.035156 0)"/>
      <use xlink:href="#DejaVuSans-74" transform="translate(274.414062 0)"/>
      <use xlink:href="#DejaVuSans-65" transform="translate(313.623047 0)"/>
      <use xlink:href="#DejaVuSans-6e" transform="translate(375.146484 0)"/>
      <use xlink:href="#DejaVuSans-73" transform="translate(438.525391 0)"/>
      <use xlink:href="#DejaVuSans-69" transform="translate(490.625 0)"/>
      <use xlink:href="#DejaVuSans-74" transform="translate(518.408203 0)"/>
      <use xlink:href="#DejaVuSans-79" transform="translate(557.617188 0)"/>
      <use xlink:href="#DejaVuSans-20" transform="translate(616.796875 0)"/>
      <use xlink:href="#DejaVuSans-28" transform="translate(648.583984 0)"/>
      <use xlink:href="#DejaVuSans-6e" transform="translate(687.597656 0)"/>
      <use xlink:href="#DejaVuSans-6f" transform="translate(750.976562 0)"/>
      <use xlink:href="#DejaVuSans-72" transform="translate(812.158203 0)"/>
      <use xlink:href="#DejaVuSans-6d" transform="translate(851.521484 0)"/>
      <use xlink:href="#DejaVuSans-61" transform="translate(948.933594 0)"/>
      <use xlink:href="#DejaVuSans-6c" transform="translate(1010.212891 0)"/>
      <use xlink:href="#DejaVuSans-69" transform="translate(1037.996094 0)"/>
      <use xlink:href="#DejaVuSans-7a" transform="translate(1065.779297 0)"/>
      <use xlink:href="#DejaVuSans-65" transform="translate(1118.269531 0)"/>
      <use xlink:href="#DejaVuSans-64" transform="translate(1179.792969 0)"/>
      <use xlink:href="#DejaVuSans-29" transform="translate(1243.269531 0)"/>
     </g>
    </g>
   </g>
  </g>
 </g>
 <defs>
  <clipPath id="pbc138c3b2e">
   <rect x="47.72" y="26.88" width="805.48" height="507.16"/>
  </clipPath>
 </defs>
</svg>
