<?xml version="1.0" encoding="utf-8" standalone="no"?>
<!DOCTYPE svg PUBLIC "-//W3C//DTD SVG 1.1//EN"
  "http://www.w3.org/Graphics/SVG/1.1/DTD/svg11.dtd">
<svg xmlns:xlink="http://www.w3.org/1999/xlink" width="864pt" height="576pt" viewBox="0 0 864 576" xmlns="http://www.w3.org/2000/svg" version="1.1">
 <metadata>
  <rdf:RDF xmlns:dc="http://purl.org/dc/elements/1.1/" xmlns:cc="http://creativecommons.org/ns#" xmlns:rdf="http://www.w3.org/1999/02/22-rdf-syntax-ns#">
   <cc:Work>
    <dc:type rdf:resource="http://purl.org/dc/dcmitype/StillImage"/>
    <dc:date>2025-02-07T17:23:32.060961</dc:date>
    <dc:format>image/svg+xml</dc:format>
    <dc:creator>
     <cc:Agent>
      <dc:title>Matplotlib v3.10.0, https://matplotlib.org/</dc:title>
     </cc:Agent>
    </dc:creator>
   </cc:Work>
  </rdf:RDF>
 </metadata>
 <defs>
  <style type="text/css">*{stroke-linejoin: round; stroke-linecap: butt}</style>
 </defs>
 <g id="figure_1">
  <g id="patch_1">
   <path d="M 0 576 
L 864 576 
L 864 0 
L 0 0 
z
" style="fill: #ffffff"/>
  </g>
  <g id="axes_1">
   <g id="patch_2">
    <path d="M 47.72 534.04 
L 853.2 534.04 
L 853.2 26.88 
L 47.72 26.88 
z
" style="fill: #ffffff"/>
   </g>
   <g id="matplotlib.axis_1">
    <g id="xtick_1">
     <g id="line2d_1">
      <defs>
       <path id="m67e4bd379e" d="M 0 0 
L 0 3.5 
" style="stroke: #000000; stroke-width: 0.8"/>
      </defs>
      <g>
       <use xlink:href="#m67e4bd379e" x="83.100486" y="534.04" style="stroke: #000000; stroke-width: 0.8"/>
      </g>
     </g>
     <g id="text_1">
      <!-- 0 -->
      <g transform="translate(79.919236 548.638438) scale(0.1 -0.1)">
       <defs>
        <path id="DejaVuSans-30" d="M 2034 4250 
Q 1547 4250 1301 3770 
Q 1056 3291 1056 2328 
Q 1056 1369 1301 889 
Q 1547 409 2034 409 
Q 2525 409 2770 889 
Q 3016 1369 3016 2328 
Q 3016 3291 2770 3770 
Q 2525 4250 2034 4250 
z
M 2034 4750 
Q 2819 4750 3233 4129 
Q 3647 3509 3647 2328 
Q 3647 1150 3233 529 
Q 2819 -91 2034 -91 
Q 1250 -91 836 529 
Q 422 1150 422 2328 
Q 422 3509 836 4129 
Q 1250 4750 2034 4750 
z
" transform="scale(0.015625)"/>
       </defs>
       <use xlink:href="#DejaVuSans-30"/>
      </g>
     </g>
    </g>
    <g id="xtick_2">
     <g id="line2d_2">
      <g>
       <use xlink:href="#m67e4bd379e" x="229.795887" y="534.04" style="stroke: #000000; stroke-width: 0.8"/>
      </g>
     </g>
     <g id="text_2">
      <!-- 1 -->
      <g transform="translate(226.614637 548.638438) scale(0.1 -0.1)">
       <defs>
        <path id="DejaVuSans-31" d="M 794 531 
L 1825 531 
L 1825 4091 
L 703 3866 
L 703 4441 
L 1819 4666 
L 2450 4666 
L 2450 531 
L 3481 531 
L 3481 0 
L 794 0 
L 794 531 
z
" transform="scale(0.015625)"/>
       </defs>
       <use xlink:href="#DejaVuSans-31"/>
      </g>
     </g>
    </g>
    <g id="xtick_3">
     <g id="line2d_3">
      <g>
       <use xlink:href="#m67e4bd379e" x="376.491289" y="534.04" style="stroke: #000000; stroke-width: 0.8"/>
      </g>
     </g>
     <g id="text_3">
      <!-- 2 -->
      <g transform="translate(373.310039 548.638438) scale(0.1 -0.1)">
       <defs>
        <path id="DejaVuSans-32" d="M 1228 531 
L 3431 531 
L 3431 0 
L 469 0 
L 469 531 
Q 828 903 1448 1529 
Q 2069 2156 2228 2338 
Q 2531 2678 2651 2914 
Q 2772 3150 2772 3378 
Q 2772 3750 2511 3984 
Q 2250 4219 1831 4219 
Q 1534 4219 1204 4116 
Q 875 4013 500 3803 
L 500 4441 
Q 881 4594 1212 4672 
Q 1544 4750 1819 4750 
Q 2544 4750 2975 4387 
Q 3406 4025 3406 3419 
Q 3406 3131 3298 2873 
Q 3191 2616 2906 2266 
Q 2828 2175 2409 1742 
Q 1991 1309 1228 531 
z
" transform="scale(0.015625)"/>
       </defs>
       <use xlink:href="#DejaVuSans-32"/>
      </g>
     </g>
    </g>
    <g id="xtick_4">
     <g id="line2d_4">
      <g>
       <use xlink:href="#m67e4bd379e" x="523.18669" y="534.04" style="stroke: #000000; stroke-width: 0.8"/>
      </g>
     </g>
     <g id="text_4">
      <!-- 3 -->
      <g transform="translate(520.00544 548.638438) scale(0.1 -0.1)">
       <defs>
        <path id="DejaVuSans-33" d="M 2597 2516 
Q 3050 2419 3304 2112 
Q 3559 1806 3559 1356 
Q 3559 666 3084 287 
Q 2609 -91 1734 -91 
Q 1441 -91 1130 -33 
Q 819 25 488 141 
L 488 750 
Q 750 597 1062 519 
Q 1375 441 1716 441 
Q 2309 441 2620 675 
Q 2931 909 2931 1356 
Q 2931 1769 2642 2001 
Q 2353 2234 1838 2234 
L 1294 2234 
L 1294 2753 
L 1863 2753 
Q 2328 2753 2575 2939 
Q 2822 3125 2822 3475 
Q 2822 3834 2567 4026 
Q 2313 4219 1838 4219 
Q 1578 4219 1281 4162 
Q 984 4106 628 3988 
L 628 4550 
Q 988 4650 1302 4700 
Q 1616 4750 1894 4750 
Q 2613 4750 3031 4423 
Q 3450 4097 3450 3541 
Q 3450 3153 3228 2886 
Q 3006 2619 2597 2516 
z
" transform="scale(0.015625)"/>
       </defs>
       <use xlink:href="#DejaVuSans-33"/>
      </g>
     </g>
    </g>
    <g id="xtick_5">
     <g id="line2d_5">
      <g>
       <use xlink:href="#m67e4bd379e" x="669.882092" y="534.04" style="stroke: #000000; stroke-width: 0.8"/>
      </g>
     </g>
     <g id="text_5">
      <!-- 4 -->
      <g transform="translate(666.700842 548.638438) scale(0.1 -0.1)">
       <defs>
        <path id="DejaVuSans-34" d="M 2419 4116 
L 825 1625 
L 2419 1625 
L 2419 4116 
z
M 2253 4666 
L 3047 4666 
L 3047 1625 
L 3713 1625 
L 3713 1100 
L 3047 1100 
L 3047 0 
L 2419 0 
L 2419 1100 
L 313 1100 
L 313 1709 
L 2253 4666 
z
" transform="scale(0.015625)"/>
       </defs>
       <use xlink:href="#DejaVuSans-34"/>
      </g>
     </g>
    </g>
    <g id="xtick_6">
     <g id="line2d_6">
      <g>
       <use xlink:href="#m67e4bd379e" x="816.577493" y="534.04" style="stroke: #000000; stroke-width: 0.8"/>
      </g>
     </g>
     <g id="text_6">
      <!-- 5 -->
      <g transform="translate(813.396243 548.638438) scale(0.1 -0.1)">
       <defs>
        <path id="DejaVuSans-35" d="M 691 4666 
L 3169 4666 
L 3169 4134 
L 1269 4134 
L 1269 2991 
Q 1406 3038 1543 3061 
Q 1681 3084 1819 3084 
Q 2600 3084 3056 2656 
Q 3513 2228 3513 1497 
Q 3513 744 3044 326 
Q 2575 -91 1722 -91 
Q 1428 -91 1123 -41 
Q 819 9 494 109 
L 494 744 
Q 775 591 1075 516 
Q 1375 441 1709 441 
Q 2250 441 2565 725 
Q 2881 1009 2881 1497 
Q 2881 1984 2565 2268 
Q 2250 2553 1709 2553 
Q 1456 2553 1204 2497 
Q 953 2441 691 2322 
L 691 4666 
z
" transform="scale(0.015625)"/>
       </defs>
       <use xlink:href="#DejaVuSans-35"/>
      </g>
     </g>
    </g>
    <g id="text_7">
     <!-- Retention Time (min) -->
     <g transform="translate(397.61 562.316562) scale(0.1 -0.1)">
      <defs>
       <path id="DejaVuSans-52" d="M 2841 2188 
Q 3044 2119 3236 1894 
Q 3428 1669 3622 1275 
L 4263 0 
L 3584 0 
L 2988 1197 
Q 2756 1666 2539 1819 
Q 2322 1972 1947 1972 
L 1259 1972 
L 1259 0 
L 628 0 
L 628 4666 
L 2053 4666 
Q 2853 4666 3247 4331 
Q 3641 3997 3641 3322 
Q 3641 2881 3436 2590 
Q 3231 2300 2841 2188 
z
M 1259 4147 
L 1259 2491 
L 2053 2491 
Q 2509 2491 2742 2702 
Q 2975 2913 2975 3322 
Q 2975 3731 2742 3939 
Q 2509 4147 2053 4147 
L 1259 4147 
z
" transform="scale(0.015625)"/>
       <path id="DejaVuSans-65" d="M 3597 1894 
L 3597 1613 
L 953 1613 
Q 991 1019 1311 708 
Q 1631 397 2203 397 
Q 2534 397 2845 478 
Q 3156 559 3463 722 
L 3463 178 
Q 3153 47 2828 -22 
Q 2503 -91 2169 -91 
Q 1331 -91 842 396 
Q 353 884 353 1716 
Q 353 2575 817 3079 
Q 1281 3584 2069 3584 
Q 2775 3584 3186 3129 
Q 3597 2675 3597 1894 
z
M 3022 2063 
Q 3016 2534 2758 2815 
Q 2500 3097 2075 3097 
Q 1594 3097 1305 2825 
Q 1016 2553 972 2059 
L 3022 2063 
z
" transform="scale(0.015625)"/>
       <path id="DejaVuSans-74" d="M 1172 4494 
L 1172 3500 
L 2356 3500 
L 2356 3053 
L 1172 3053 
L 1172 1153 
Q 1172 725 1289 603 
Q 1406 481 1766 481 
L 2356 481 
L 2356 0 
L 1766 0 
Q 1100 0 847 248 
Q 594 497 594 1153 
L 594 3053 
L 172 3053 
L 172 3500 
L 594 3500 
L 594 4494 
L 1172 4494 
z
" transform="scale(0.015625)"/>
       <path id="DejaVuSans-6e" d="M 3513 2113 
L 3513 0 
L 2938 0 
L 2938 2094 
Q 2938 2591 2744 2837 
Q 2550 3084 2163 3084 
Q 1697 3084 1428 2787 
Q 1159 2491 1159 1978 
L 1159 0 
L 581 0 
L 581 3500 
L 1159 3500 
L 1159 2956 
Q 1366 3272 1645 3428 
Q 1925 3584 2291 3584 
Q 2894 3584 3203 3211 
Q 3513 2838 3513 2113 
z
" transform="scale(0.015625)"/>
       <path id="DejaVuSans-69" d="M 603 3500 
L 1178 3500 
L 1178 0 
L 603 0 
L 603 3500 
z
M 603 4863 
L 1178 4863 
L 1178 4134 
L 603 4134 
L 603 4863 
z
" transform="scale(0.015625)"/>
       <path id="DejaVuSans-6f" d="M 1959 3097 
Q 1497 3097 1228 2736 
Q 959 2375 959 1747 
Q 959 1119 1226 758 
Q 1494 397 1959 397 
Q 2419 397 2687 759 
Q 2956 1122 2956 1747 
Q 2956 2369 2687 2733 
Q 2419 3097 1959 3097 
z
M 1959 3584 
Q 2709 3584 3137 3096 
Q 3566 2609 3566 1747 
Q 3566 888 3137 398 
Q 2709 -91 1959 -91 
Q 1206 -91 779 398 
Q 353 888 353 1747 
Q 353 2609 779 3096 
Q 1206 3584 1959 3584 
z
" transform="scale(0.015625)"/>
       <path id="DejaVuSans-20" transform="scale(0.015625)"/>
       <path id="DejaVuSans-54" d="M -19 4666 
L 3928 4666 
L 3928 4134 
L 2272 4134 
L 2272 0 
L 1638 0 
L 1638 4134 
L -19 4134 
L -19 4666 
z
" transform="scale(0.015625)"/>
       <path id="DejaVuSans-6d" d="M 3328 2828 
Q 3544 3216 3844 3400 
Q 4144 3584 4550 3584 
Q 5097 3584 5394 3201 
Q 5691 2819 5691 2113 
L 5691 0 
L 5113 0 
L 5113 2094 
Q 5113 2597 4934 2840 
Q 4756 3084 4391 3084 
Q 3944 3084 3684 2787 
Q 3425 2491 3425 1978 
L 3425 0 
L 2847 0 
L 2847 2094 
Q 2847 2600 2669 2842 
Q 2491 3084 2119 3084 
Q 1678 3084 1418 2786 
Q 1159 2488 1159 1978 
L 1159 0 
L 581 0 
L 581 3500 
L 1159 3500 
L 1159 2956 
Q 1356 3278 1631 3431 
Q 1906 3584 2284 3584 
Q 2666 3584 2933 3390 
Q 3200 3197 3328 2828 
z
" transform="scale(0.015625)"/>
       <path id="DejaVuSans-28" d="M 1984 4856 
Q 1566 4138 1362 3434 
Q 1159 2731 1159 2009 
Q 1159 1288 1364 580 
Q 1569 -128 1984 -844 
L 1484 -844 
Q 1016 -109 783 600 
Q 550 1309 550 2009 
Q 550 2706 781 3412 
Q 1013 4119 1484 4856 
L 1984 4856 
z
" transform="scale(0.015625)"/>
       <path id="DejaVuSans-29" d="M 513 4856 
L 1013 4856 
Q 1481 4119 1714 3412 
Q 1947 2706 1947 2009 
Q 1947 1309 1714 600 
Q 1481 -109 1013 -844 
L 513 -844 
Q 928 -128 1133 580 
Q 1338 1288 1338 2009 
Q 1338 2731 1133 3434 
Q 928 4138 513 4856 
z
" transform="scale(0.015625)"/>
      </defs>
      <use xlink:href="#DejaVuSans-52"/>
      <use xlink:href="#DejaVuSans-65" transform="translate(64.982422 0)"/>
      <use xlink:href="#DejaVuSans-74" transform="translate(126.505859 0)"/>
      <use xlink:href="#DejaVuSans-65" transform="translate(165.714844 0)"/>
      <use xlink:href="#DejaVuSans-6e" transform="translate(227.238281 0)"/>
      <use xlink:href="#DejaVuSans-74" transform="translate(290.617188 0)"/>
      <use xlink:href="#DejaVuSans-69" transform="translate(329.826172 0)"/>
      <use xlink:href="#DejaVuSans-6f" transform="translate(357.609375 0)"/>
      <use xlink:href="#DejaVuSans-6e" transform="translate(418.791016 0)"/>
      <use xlink:href="#DejaVuSans-20" transform="translate(482.169922 0)"/>
      <use xlink:href="#DejaVuSans-54" transform="translate(513.957031 0)"/>
      <use xlink:href="#DejaVuSans-69" transform="translate(571.916016 0)"/>
      <use xlink:href="#DejaVuSans-6d" transform="translate(599.699219 0)"/>
      <use xlink:href="#DejaVuSans-65" transform="translate(697.111328 0)"/>
      <use xlink:href="#DejaVuSans-20" transform="translate(758.634766 0)"/>
      <use xlink:href="#DejaVuSans-28" transform="translate(790.421875 0)"/>
      <use xlink:href="#DejaVuSans-6d" transform="translate(829.435547 0)"/>
      <use xlink:href="#DejaVuSans-69" transform="translate(926.847656 0)"/>
      <use xlink:href="#DejaVuSans-6e" transform="translate(954.630859 0)"/>
      <use xlink:href="#DejaVuSans-29" transform="translate(1018.009766 0)"/>
     </g>
    </g>
   </g>
   <g id="matplotlib.axis_2">
    <g id="ytick_1">
     <g id="line2d_7">
      <defs>
       <path id="m61d39b41bd" d="M 0 0 
L -3.5 0 
" style="stroke: #000000; stroke-width: 0.8"/>
      </defs>
      <g>
       <use xlink:href="#m61d39b41bd" x="47.72" y="510.881201" style="stroke: #000000; stroke-width: 0.8"/>
      </g>
     </g>
     <g id="text_8">
      <!-- 0.0 -->
      <g style="fill: #0000ff" transform="translate(24.816875 514.68042) scale(0.1 -0.1)">
       <defs>
        <path id="DejaVuSans-2e" d="M 684 794 
L 1344 794 
L 1344 0 
L 684 0 
L 684 794 
z
" transform="scale(0.015625)"/>
       </defs>
       <use xlink:href="#DejaVuSans-30"/>
       <use xlink:href="#DejaVuSans-2e" transform="translate(63.623047 0)"/>
       <use xlink:href="#DejaVuSans-30" transform="translate(95.410156 0)"/>
      </g>
     </g>
    </g>
    <g id="ytick_2">
     <g id="line2d_8">
      <g>
       <use xlink:href="#m61d39b41bd" x="47.72" y="418.691506" style="stroke: #000000; stroke-width: 0.8"/>
      </g>
     </g>
     <g id="text_9">
      <!-- 0.5 -->
      <g style="fill: #0000ff" transform="translate(24.816875 422.490725) scale(0.1 -0.1)">
       <use xlink:href="#DejaVuSans-30"/>
       <use xlink:href="#DejaVuSans-2e" transform="translate(63.623047 0)"/>
       <use xlink:href="#DejaVuSans-35" transform="translate(95.410156 0)"/>
      </g>
     </g>
    </g>
    <g id="ytick_3">
     <g id="line2d_9">
      <g>
       <use xlink:href="#m61d39b41bd" x="47.72" y="326.501812" style="stroke: #000000; stroke-width: 0.8"/>
      </g>
     </g>
     <g id="text_10">
      <!-- 1.0 -->
      <g style="fill: #0000ff" transform="translate(24.816875 330.30103) scale(0.1 -0.1)">
       <use xlink:href="#DejaVuSans-31"/>
       <use xlink:href="#DejaVuSans-2e" transform="translate(63.623047 0)"/>
       <use xlink:href="#DejaVuSans-30" transform="translate(95.410156 0)"/>
      </g>
     </g>
    </g>
    <g id="ytick_4">
     <g id="line2d_10">
      <g>
       <use xlink:href="#m61d39b41bd" x="47.72" y="234.312117" style="stroke: #000000; stroke-width: 0.8"/>
      </g>
     </g>
     <g id="text_11">
      <!-- 1.5 -->
      <g style="fill: #0000ff" transform="translate(24.816875 238.111336) scale(0.1 -0.1)">
       <use xlink:href="#DejaVuSans-31"/>
       <use xlink:href="#DejaVuSans-2e" transform="translate(63.623047 0)"/>
       <use xlink:href="#DejaVuSans-35" transform="translate(95.410156 0)"/>
      </g>
     </g>
    </g>
    <g id="ytick_5">
     <g id="line2d_11">
      <g>
       <use xlink:href="#m61d39b41bd" x="47.72" y="142.122422" style="stroke: #000000; stroke-width: 0.8"/>
      </g>
     </g>
     <g id="text_12">
      <!-- 2.0 -->
      <g style="fill: #0000ff" transform="translate(24.816875 145.921641) scale(0.1 -0.1)">
       <use xlink:href="#DejaVuSans-32"/>
       <use xlink:href="#DejaVuSans-2e" transform="translate(63.623047 0)"/>
       <use xlink:href="#DejaVuSans-30" transform="translate(95.410156 0)"/>
      </g>
     </g>
    </g>
    <g id="ytick_6">
     <g id="line2d_12">
      <g>
       <use xlink:href="#m61d39b41bd" x="47.72" y="49.932727" style="stroke: #000000; stroke-width: 0.8"/>
      </g>
     </g>
     <g id="text_13">
      <!-- 2.5 -->
      <g style="fill: #0000ff" transform="translate(24.816875 53.731946) scale(0.1 -0.1)">
       <use xlink:href="#DejaVuSans-32"/>
       <use xlink:href="#DejaVuSans-2e" transform="translate(63.623047 0)"/>
       <use xlink:href="#DejaVuSans-35" transform="translate(95.410156 0)"/>
      </g>
     </g>
    </g>
    <g id="text_14">
     <!-- Normalized Intensity -->
     <g style="fill: #0000ff" transform="translate(18.737187 332.167031) rotate(-90) scale(0.1 -0.1)">
      <defs>
       <path id="DejaVuSans-4e" d="M 628 4666 
L 1478 4666 
L 3547 763 
L 3547 4666 
L 4159 4666 
L 4159 0 
L 3309 0 
L 1241 3903 
L 1241 0 
L 628 0 
L 628 4666 
z
" transform="scale(0.015625)"/>
       <path id="DejaVuSans-72" d="M 2631 2963 
Q 2534 3019 2420 3045 
Q 2306 3072 2169 3072 
Q 1681 3072 1420 2755 
Q 1159 2438 1159 1844 
L 1159 0 
L 581 0 
L 581 3500 
L 1159 3500 
L 1159 2956 
Q 1341 3275 1631 3429 
Q 1922 3584 2338 3584 
Q 2397 3584 2469 3576 
Q 2541 3569 2628 3553 
L 2631 2963 
z
" transform="scale(0.015625)"/>
       <path id="DejaVuSans-61" d="M 2194 1759 
Q 1497 1759 1228 1600 
Q 959 1441 959 1056 
Q 959 750 1161 570 
Q 1363 391 1709 391 
Q 2188 391 2477 730 
Q 2766 1069 2766 1631 
L 2766 1759 
L 2194 1759 
z
M 3341 1997 
L 3341 0 
L 2766 0 
L 2766 531 
Q 2569 213 2275 61 
Q 1981 -91 1556 -91 
Q 1019 -91 701 211 
Q 384 513 384 1019 
Q 384 1609 779 1909 
Q 1175 2209 1959 2209 
L 2766 2209 
L 2766 2266 
Q 2766 2663 2505 2880 
Q 2244 3097 1772 3097 
Q 1472 3097 1187 3025 
Q 903 2953 641 2809 
L 641 3341 
Q 956 3463 1253 3523 
Q 1550 3584 1831 3584 
Q 2591 3584 2966 3190 
Q 3341 2797 3341 1997 
z
" transform="scale(0.015625)"/>
       <path id="DejaVuSans-6c" d="M 603 4863 
L 1178 4863 
L 1178 0 
L 603 0 
L 603 4863 
z
" transform="scale(0.015625)"/>
       <path id="DejaVuSans-7a" d="M 353 3500 
L 3084 3500 
L 3084 2975 
L 922 459 
L 3084 459 
L 3084 0 
L 275 0 
L 275 525 
L 2438 3041 
L 353 3041 
L 353 3500 
z
" transform="scale(0.015625)"/>
       <path id="DejaVuSans-64" d="M 2906 2969 
L 2906 4863 
L 3481 4863 
L 3481 0 
L 2906 0 
L 2906 525 
Q 2725 213 2448 61 
Q 2172 -91 1784 -91 
Q 1150 -91 751 415 
Q 353 922 353 1747 
Q 353 2572 751 3078 
Q 1150 3584 1784 3584 
Q 2172 3584 2448 3432 
Q 2725 3281 2906 2969 
z
M 947 1747 
Q 947 1113 1208 752 
Q 1469 391 1925 391 
Q 2381 391 2643 752 
Q 2906 1113 2906 1747 
Q 2906 2381 2643 2742 
Q 2381 3103 1925 3103 
Q 1469 3103 1208 2742 
Q 947 2381 947 1747 
z
" transform="scale(0.015625)"/>
       <path id="DejaVuSans-49" d="M 628 4666 
L 1259 4666 
L 1259 0 
L 628 0 
L 628 4666 
z
" transform="scale(0.015625)"/>
       <path id="DejaVuSans-73" d="M 2834 3397 
L 2834 2853 
Q 2591 2978 2328 3040 
Q 2066 3103 1784 3103 
Q 1356 3103 1142 2972 
Q 928 2841 928 2578 
Q 928 2378 1081 2264 
Q 1234 2150 1697 2047 
L 1894 2003 
Q 2506 1872 2764 1633 
Q 3022 1394 3022 966 
Q 3022 478 2636 193 
Q 2250 -91 1575 -91 
Q 1294 -91 989 -36 
Q 684 19 347 128 
L 347 722 
Q 666 556 975 473 
Q 1284 391 1588 391 
Q 1994 391 2212 530 
Q 2431 669 2431 922 
Q 2431 1156 2273 1281 
Q 2116 1406 1581 1522 
L 1381 1569 
Q 847 1681 609 1914 
Q 372 2147 372 2553 
Q 372 3047 722 3315 
Q 1072 3584 1716 3584 
Q 2034 3584 2315 3537 
Q 2597 3491 2834 3397 
z
" transform="scale(0.015625)"/>
       <path id="DejaVuSans-79" d="M 2059 -325 
Q 1816 -950 1584 -1140 
Q 1353 -1331 966 -1331 
L 506 -1331 
L 506 -850 
L 844 -850 
Q 1081 -850 1212 -737 
Q 1344 -625 1503 -206 
L 1606 56 
L 191 3500 
L 800 3500 
L 1894 763 
L 2988 3500 
L 3597 3500 
L 2059 -325 
z
" transform="scale(0.015625)"/>
      </defs>
      <use xlink:href="#DejaVuSans-4e"/>
      <use xlink:href="#DejaVuSans-6f" transform="translate(74.804688 0)"/>
      <use xlink:href="#DejaVuSans-72" transform="translate(135.986328 0)"/>
      <use xlink:href="#DejaVuSans-6d" transform="translate(175.349609 0)"/>
      <use xlink:href="#DejaVuSans-61" transform="translate(272.761719 0)"/>
      <use xlink:href="#DejaVuSans-6c" transform="translate(334.041016 0)"/>
      <use xlink:href="#DejaVuSans-69" transform="translate(361.824219 0)"/>
      <use xlink:href="#DejaVuSans-7a" transform="translate(389.607422 0)"/>
      <use xlink:href="#DejaVuSans-65" transform="translate(442.097656 0)"/>
      <use xlink:href="#DejaVuSans-64" transform="translate(503.621094 0)"/>
      <use xlink:href="#DejaVuSans-20" transform="translate(567.097656 0)"/>
      <use xlink:href="#DejaVuSans-49" transform="translate(598.884766 0)"/>
      <use xlink:href="#DejaVuSans-6e" transform="translate(628.376953 0)"/>
      <use xlink:href="#DejaVuSans-74" transform="translate(691.755859 0)"/>
      <use xlink:href="#DejaVuSans-65" transform="translate(730.964844 0)"/>
      <use xlink:href="#DejaVuSans-6e" transform="translate(792.488281 0)"/>
      <use xlink:href="#DejaVuSans-73" transform="translate(855.867188 0)"/>
      <use xlink:href="#DejaVuSans-69" transform="translate(907.966797 0)"/>
      <use xlink:href="#DejaVuSans-74" transform="translate(935.75 0)"/>
      <use xlink:href="#DejaVuSans-79" transform="translate(974.958984 0)"/>
     </g>
    </g>
   </g>
   <g id="line2d_13">
    <path d="M 84.332727 510.881201 
L 90.445036 510.767663 
L 100.224729 510.229921 
L 107.559499 510.129513 
L 113.671808 510.24067 
L 122.229039 510.419885 
L 140.565964 510.407226 
L 156.457966 510.337947 
L 163.792736 510.300709 
L 165.015198 510.160817 
L 166.23766 509.835926 
L 168.682583 508.682582 
L 171.127506 507.584523 
L 172.349968 507.233735 
L 173.57243 507.018624 
L 174.794891 506.947522 
L 176.017353 507.05392 
L 177.239815 507.36748 
L 179.684738 508.494816 
L 182.129662 509.666875 
L 184.574585 510.355927 
L 187.019508 510.859473 
L 188.24197 510.987273 
L 189.464432 510.85525 
L 193.131817 509.704241 
L 194.354278 509.603214 
L 195.57674 509.703002 
L 200.466587 510.538304 
L 202.91151 510.594509 
L 216.358589 510.152703 
L 224.91582 510.207456 
L 231.028129 510.16786 
L 237.140437 509.657413 
L 246.920131 510.235073 
L 260.367209 510.245527 
L 282.371519 510.24427 
L 297.041059 510.21463 
L 334.937371 509.879704 
L 342.272141 509.537872 
L 343.494603 508.677903 
L 344.717065 504.910959 
L 345.939526 495.505902 
L 348.38445 463.826172 
L 349.606912 452.753323 
L 350.829373 451.133076 
L 352.051835 458.185019 
L 354.496758 481.992658 
L 355.71922 491.751992 
L 356.941682 498.389601 
L 358.164143 502.36333 
L 359.386605 504.559521 
L 360.609067 505.759172 
L 361.831528 506.463884 
L 363.05399 506.932607 
L 365.498913 507.531334 
L 372.833683 508.815489 
L 374.056145 508.739686 
L 375.278607 508.280296 
L 377.72353 506.68351 
L 378.945992 506.149087 
L 380.168453 506.054217 
L 381.390915 506.353168 
L 385.0583 507.850259 
L 387.503224 508.447729 
L 389.948147 508.808018 
L 392.39307 508.944178 
L 396.060455 508.851381 
L 397.282917 508.767782 
L 398.505379 508.496449 
L 399.72784 507.831424 
L 403.395225 504.583197 
L 404.617687 504.349116 
L 405.840149 504.764655 
L 409.507534 507.226016 
L 410.729995 507.824005 
L 411.952457 508.246534 
L 414.39738 508.711321 
L 419.287227 509.151601 
L 421.732151 509.215907 
L 426.621997 508.86621 
L 429.066921 509.065413 
L 432.734306 509.453401 
L 435.179229 509.402761 
L 440.069076 508.954978 
L 442.513999 508.945771 
L 443.736461 508.788079 
L 447.403846 507.833335 
L 448.626307 507.832436 
L 449.848769 508.083183 
L 453.516154 509.139339 
L 455.961078 509.390341 
L 466.963233 509.586557 
L 469.408156 509.430559 
L 471.853079 508.994349 
L 474.298003 508.588277 
L 476.742926 508.482969 
L 477.965388 508.259414 
L 480.410311 507.542387 
L 481.632773 507.426209 
L 482.855234 507.563844 
L 488.967543 509.061544 
L 491.412466 509.201011 
L 495.079851 509.199146 
L 498.747236 509.510555 
L 499.969698 509.422108 
L 501.19216 507.569163 
L 502.414621 498.529362 
L 503.637083 473.79553 
L 504.859545 430.226759 
L 506.082006 378.494241 
L 507.304468 338.815882 
L 508.52693 326.501812 
L 509.749391 342.367465 
L 510.971853 375.39663 
L 512.194315 411.845368 
L 513.416776 442.26691 
L 514.639238 463.328299 
L 515.8617 476.093875 
L 517.084161 483.408659 
L 518.306623 487.870914 
L 519.529085 490.852082 
L 520.751547 492.57762 
L 521.974008 492.906201 
L 523.19647 492.124937 
L 524.418932 491.178176 
L 525.641393 491.193398 
L 526.863855 492.740186 
L 528.086317 495.520873 
L 529.308778 498.708851 
L 530.53124 501.514638 
L 531.753702 503.532217 
L 532.976163 504.763999 
L 534.198625 505.447354 
L 535.421087 505.830939 
L 536.643548 506.027605 
L 537.86601 506.04591 
L 540.310933 505.897812 
L 541.533395 506.068599 
L 542.755857 506.487237 
L 546.423242 508.064314 
L 548.868165 508.634132 
L 551.313088 508.874796 
L 556.202935 509.100565 
L 559.87032 509.393546 
L 568.427552 509.541429 
L 574.53986 509.819821 
L 585.542015 510.015506 
L 597.766632 510.131335 
L 601.434017 510.12428 
L 607.546326 510.003478 
L 619.770942 510.169051 
L 630.773098 510.121933 
L 640.552791 510.144565 
L 647.887561 510.107159 
L 656.444793 510.105809 
L 666.224486 510.189404 
L 706.565722 510.361421 
L 720.0128 510.393298 
L 728.570032 510.47883 
L 734.68234 510.468778 
L 738.349725 510.409285 
L 742.01711 510.339789 
L 754.241727 510.508722 
L 777.468499 510.57093 
L 793.360501 510.73053 
L 816.587273 510.915942 
L 816.587273 510.915942 
" clip-path="url(#pc91ec4267c)" style="fill: none; stroke: #0000ff; stroke-width: 1.5; stroke-linecap: square"/>
   </g>
   <g id="line2d_14">
    <path d="M 90.699308 234.298976 
L 99.421327 234.307931 
L 134.072982 234.308742 
L 344.280401 234.253597 
L 344.280401 234.230755 
L 346.366899 234.231946 
L 346.366899 234.189013 
L 346.712856 234.196876 
L 346.712856 234.096954 
L 347.058568 234.063164 
L 347.058568 233.744278 
L 347.403791 233.710028 
L 347.403791 233.148934 
L 347.747792 233.075827 
L 347.747792 232.308428 
L 348.090081 232.486363 
L 348.090081 231.693598 
L 348.428458 232.127959 
L 348.428458 231.247076 
L 348.764391 231.858837 
L 348.764391 230.915058 
L 349.095189 231.519691 
L 349.095189 230.506091 
L 349.425743 231.364491 
L 349.425743 230.510982 
L 349.754096 231.345278 
L 349.754096 230.402327 
L 350.08196 231.397532 
L 350.08196 230.630247 
L 350.40958 231.527649 
L 350.40958 230.664339 
L 350.736711 231.635068 
L 350.736711 230.555086 
L 351.064086 231.196919 
L 351.064086 229.793383 
L 351.396595 230.532851 
L 351.396595 229.284024 
L 351.723971 230.153781 
L 351.723971 228.970763 
L 352.051346 230.306914 
L 352.051346 229.436922 
L 352.379699 230.633569 
L 352.379699 229.772348 
L 352.707074 231.085267 
L 352.707074 230.47052 
L 353.03445 231.496703 
L 353.03445 230.225194 
L 353.36158 231.318933 
L 353.36158 230.484568 
L 353.688711 231.090725 
L 353.688711 230.008588 
L 354.016575 231.395845 
L 354.016575 230.49474 
L 354.344195 231.410556 
L 354.344195 230.463329 
L 354.67157 231.540917 
L 354.67157 230.37914 
L 354.999434 231.21348 
L 354.999434 230.251564 
L 355.327054 231.267365 
L 355.327054 230.377515 
L 355.655163 231.566114 
L 355.655163 230.762132 
L 355.983272 231.669673 
L 355.983272 230.787397 
L 356.317004 231.703769 
L 356.317004 230.615712 
L 356.644868 231.468116 
L 356.644868 230.659398 
L 356.973466 231.547306 
L 356.973466 230.640452 
L 357.305486 231.6624 
L 357.305486 230.779892 
L 357.634573 231.550475 
L 357.634573 230.707703 
L 357.96366 231.604677 
L 357.96366 230.804572 
L 358.292502 231.681486 
L 358.292502 230.852408 
L 358.622077 231.655455 
L 358.622077 230.792407 
L 358.951653 231.589657 
L 358.951653 230.799801 
L 359.281473 231.670976 
L 359.281473 230.919823 
L 359.611049 231.811089 
L 359.611049 231.047929 
L 359.94038 231.84106 
L 359.94038 231.221118 
L 360.2702 231.952124 
L 360.2702 231.100386 
L 360.600265 231.91298 
L 360.600265 231.116152 
L 360.931797 231.767527 
L 360.931797 231.087236 
L 361.267973 231.95759 
L 361.267973 231.157603 
L 361.599505 231.941088 
L 361.599505 231.077762 
L 361.931281 231.840539 
L 361.931281 231.136225 
L 362.262813 231.974168 
L 362.262813 231.203972 
L 362.594589 232.009345 
L 362.594589 231.254486 
L 362.926854 231.962408 
L 362.926854 231.114886 
L 363.258875 231.89245 
L 363.258875 231.105906 
L 363.592118 231.827472 
L 363.592118 231.075128 
L 363.924872 231.896674 
L 363.924872 231.249211 
L 364.257381 232.049132 
L 364.257381 231.262202 
L 364.590624 232.015965 
L 364.590624 231.291111 
L 364.923378 231.954117 
L 364.923378 231.190139 
L 365.258577 232.000007 
L 365.258577 231.315291 
L 365.596466 232.051202 
L 365.596466 231.416713 
L 365.931909 232.236464 
L 365.931909 231.6061 
L 366.271754 232.304434 
L 366.271754 231.719041 
L 366.606708 232.408037 
L 366.606708 231.829796 
L 366.941907 232.4995 
L 366.941907 231.887676 
L 367.95166 231.732764 
L 367.95166 231.79433 
L 368.288326 232.459928 
L 368.288326 231.981211 
L 368.624259 232.605793 
L 368.624259 232.160517 
L 368.963125 232.701348 
L 368.963125 232.155306 
L 369.300036 232.729305 
L 369.300036 232.250682 
L 369.638169 232.691789 
L 369.638169 232.248312 
L 369.977035 232.773015 
L 369.977035 232.254778 
L 370.316146 232.719828 
L 370.316146 232.217662 
L 370.655257 232.689447 
L 370.655257 232.270032 
L 370.993145 232.784034 
L 370.993145 232.376698 
L 371.338857 232.881466 
L 371.338857 232.471954 
L 371.679924 232.931412 
L 371.679924 232.474446 
L 372.020502 232.912039 
L 372.020502 232.467591 
L 372.360346 232.876056 
L 372.360346 232.296944 
L 372.70288 232.741009 
L 372.70288 232.250741 
L 373.04248 232.715832 
L 373.04248 232.271421 
L 373.387948 232.847966 
L 373.387948 232.435825 
L 373.730481 232.919263 
L 373.730481 232.448942 
L 374.073015 232.935006 
L 374.073015 232.585227 
L 374.415793 233.004862 
L 374.415793 232.559182 
L 374.757838 233.02735 
L 374.757838 232.623667 
L 375.100861 232.981821 
L 375.100861 232.531016 
L 375.443639 233.00915 
L 375.443639 232.635538 
L 375.786417 233.026712 
L 375.786417 232.674155 
L 376.12944 233.156853 
L 376.12944 232.797179 
L 376.477842 233.175556 
L 376.477842 232.862182 
L 376.821109 233.229773 
L 376.821109 232.894252 
L 377.164621 233.235857 
L 377.164621 232.809888 
L 377.507643 233.155538 
L 377.507643 232.788344 
L 377.850666 233.114033 
L 377.850666 232.791177 
L 378.193933 233.241748 
L 378.193933 232.871405 
L 378.536712 233.243552 
L 378.536712 232.944754 
L 378.87949 233.298952 
L 378.87949 233.066601 
L 379.222268 233.45126 
L 379.222268 233.165965 
L 379.564802 233.494468 
L 379.564802 233.195128 
L 379.907336 233.436143 
L 379.907336 233.178902 
L 380.250114 233.483643 
L 380.250114 233.267599 
L 380.592648 233.565409 
L 380.592648 233.271923 
L 380.933959 233.509528 
L 380.933959 233.215818 
L 381.276737 233.405247 
L 381.276737 233.146051 
L 381.623916 233.438831 
L 381.623916 233.207052 
L 381.967917 233.496962 
L 381.967917 233.245891 
L 382.310451 233.501013 
L 382.310451 233.248479 
L 382.657874 233.485263 
L 382.657874 233.22593 
L 383.000408 233.489596 
L 383.000408 233.22307 
L 383.342942 233.460202 
L 383.342942 233.170171 
L 383.685476 233.425734 
L 383.685476 233.120946 
L 384.028254 233.38096 
L 384.028254 233.147035 
L 384.371032 233.417735 
L 384.371032 233.149263 
L 384.71381 233.471263 
L 384.71381 233.236691 
L 385.056589 233.500968 
L 385.056589 233.261006 
L 385.399367 233.519871 
L 385.399367 233.27532 
L 385.742879 233.532255 
L 385.742879 233.259317 
L 386.085657 233.517738 
L 386.085657 233.295121 
L 386.428924 233.543833 
L 386.428924 233.287891 
L 386.777326 233.537471 
L 386.777326 233.291877 
L 387.121082 233.524427 
L 387.121082 233.273719 
L 387.464838 233.512312 
L 387.464838 233.25214 
L 387.80835 233.521016 
L 387.80835 233.276413 
L 388.153329 233.514728 
L 388.153329 233.307651 
L 388.497085 233.591977 
L 388.497085 233.374594 
L 388.840841 233.623924 
L 388.840841 233.460455 
L 389.184353 233.688798 
L 389.184353 233.464895 
L 389.528109 233.680854 
L 389.528109 233.469813 
L 389.871621 233.646195 
L 389.871621 233.445463 
L 390.215377 233.673536 
L 390.215377 233.42503 
L 390.559622 233.647499 
L 390.559622 233.456744 
L 390.903867 233.64893 
L 390.903867 233.478833 
L 391.247868 233.74033 
L 391.247868 233.572645 
L 391.591869 233.757438 
L 391.591869 233.593035 
L 391.941737 233.761306 
L 391.941737 233.555111 
L 392.286227 233.717262 
L 392.286227 233.51744 
L 392.630472 233.701102 
L 392.630472 233.534844 
L 392.978874 233.733626 
L 392.978874 233.56281 
L 393.323119 233.787561 
L 393.323119 233.632383 
L 393.667364 233.809723 
L 393.667364 233.620508 
L 394.01161 233.796819 
L 394.01161 233.599963 
L 394.356344 233.751136 
L 394.356344 233.587413 
L 394.701322 233.774159 
L 394.701322 233.628501 
L 395.045568 233.815712 
L 395.045568 233.647776 
L 395.390057 233.811224 
L 395.390057 233.664966 
L 395.734547 233.804891 
L 395.734547 233.642992 
L 396.078792 233.811836 
L 396.078792 233.670664 
L 396.423282 233.822411 
L 396.423282 233.690007 
L 396.767283 233.845263 
L 396.767283 233.721405 
L 397.116907 233.866044 
L 397.116907 233.727134 
L 397.461641 233.85995 
L 397.461641 233.713697 
L 397.806375 233.838912 
L 397.806375 233.677164 
L 398.495599 233.875647 
L 398.495599 233.71863 
L 398.839844 233.885255 
L 398.839844 233.748484 
L 399.184334 233.883847 
L 399.184334 233.754278 
L 399.528824 233.913091 
L 399.528824 233.757246 
L 399.873313 233.874902 
L 399.873313 233.694448 
L 400.562048 233.875813 
L 400.562048 233.745435 
L 400.906538 233.928322 
L 400.906538 233.801288 
L 401.250539 233.908769 
L 401.250539 233.782784 
L 401.59674 233.925362 
L 401.59674 233.765576 
L 401.94074 233.884478 
L 401.94074 233.745885 
L 402.294765 233.869962 
L 402.294765 233.720868 
L 402.638033 233.871633 
L 402.638033 233.764592 
L 402.981544 233.891757 
L 402.981544 233.739273 
L 403.324323 233.884617 
L 403.324323 233.783781 
L 404.007923 233.941764 
L 404.007923 233.817856 
L 404.347279 233.925342 
L 404.347279 233.802969 
L 404.689323 233.91581 
L 404.689323 233.743862 
L 405.363633 233.9104 
L 405.363633 233.779787 
L 405.699566 233.954071 
L 405.699566 233.816537 
L 406.035254 233.90388 
L 406.035254 233.776199 
L 406.370697 233.922518 
L 406.370697 233.784801 
L 406.709808 233.920722 
L 406.709808 233.796217 
L 407.044273 233.923924 
L 407.044273 233.790558 
L 407.385096 233.930929 
L 407.385096 233.811138 
L 407.72274 233.932637 
L 407.72274 233.781592 
L 408.059406 233.907439 
L 408.059406 233.744096 
L 408.396072 233.857015 
L 408.396072 233.729488 
L 408.734205 233.880476 
L 408.734205 233.757508 
L 409.074049 233.899411 
L 409.074049 233.779322 
L 409.411693 233.913092 
L 409.411693 233.793763 
L 410.091381 233.947012 
L 410.091381 233.822801 
L 410.430248 233.942083 
L 410.430248 233.819799 
L 411.112626 233.932497 
L 411.112626 233.792583 
L 411.453693 233.911779 
L 411.453693 233.798499 
L 412.139249 233.948121 
L 412.139249 233.831947 
L 412.487651 233.948505 
L 412.487651 233.820742 
L 413.17443 233.923988 
L 413.17443 233.806303 
L 413.517697 233.949653 
L 413.517697 233.840191 
L 413.861698 233.948839 
L 413.861698 233.806303 
L 414.204721 233.92949 
L 414.204721 233.79184 
L 414.892233 233.962787 
L 414.892233 233.838624 
L 415.235989 233.966463 
L 415.235989 233.854571 
L 415.929858 233.959755 
L 415.929858 233.85793 
L 416.273859 233.980641 
L 416.273859 233.853535 
L 416.961861 233.955126 
L 416.961861 233.825581 
L 417.655485 233.918373 
L 417.655485 233.804839 
L 418.346176 233.955544 
L 418.346176 233.84021 
L 418.69091 233.954385 
L 418.69091 233.830032 
L 419.379401 233.946606 
L 419.379401 233.854479 
L 419.724379 233.983442 
L 419.724379 233.853499 
L 420.068625 233.971318 
L 420.068625 233.875736 
L 420.413359 233.967575 
L 420.413359 233.826532 
L 420.758093 233.948432 
L 420.758093 233.815652 
L 421.447561 233.94728 
L 421.447561 233.819622 
L 421.792051 233.943522 
L 421.792051 233.814417 
L 422.481275 233.940374 
L 422.481275 233.849803 
L 422.831388 233.977707 
L 422.831388 233.883024 
L 423.520612 233.966348 
L 423.520612 233.85871 
L 423.864857 233.962713 
L 423.864857 233.840685 
L 424.558726 233.931175 
L 424.558726 233.799367 
L 424.903461 233.922119 
L 424.903461 233.77687 
L 425.247706 233.871091 
L 425.247706 233.719077 
L 425.591951 233.843628 
L 425.591951 233.699168 
L 425.935952 233.836227 
L 425.935952 233.679649 
L 426.279952 233.825821 
L 426.279952 233.654273 
L 426.623709 233.784131 
L 426.623709 233.654812 
L 426.96722 233.798885 
L 426.96722 233.591016 
L 427.311221 233.74816 
L 427.311221 233.552212 
L 427.655222 233.670486 
L 427.655222 233.516481 
L 428.004357 233.709602 
L 428.004357 233.527648 
L 428.348358 233.717429 
L 428.348358 233.545602 
L 428.692114 233.709983 
L 428.692114 233.585714 
L 429.036115 233.782122 
L 429.036115 233.625786 
L 429.380115 233.811623 
L 429.380115 233.64434 
L 429.723872 233.781534 
L 429.723872 233.625471 
L 430.067628 233.807602 
L 430.067628 233.673444 
L 430.411384 233.843001 
L 430.411384 233.677892 
L 430.755629 233.843665 
L 430.755629 233.708446 
L 431.100119 233.856235 
L 431.100119 233.728105 
L 431.44412 233.891965 
L 431.44412 233.772924 
L 431.788609 233.9061 
L 431.788609 233.780255 
L 432.133343 233.912409 
L 432.133343 233.793001 
L 432.477833 233.907904 
L 432.477833 233.78135 
L 433.172436 233.956068 
L 433.172436 233.857209 
L 433.516681 233.983351 
L 433.516681 233.880511 
L 434.205661 233.978486 
L 434.205661 233.880866 
L 435.241086 233.879417 
L 435.58582 233.997071 
L 435.58582 233.887507 
L 436.281156 233.979993 
L 436.281156 233.893871 
L 436.970624 233.981263 
L 436.970624 233.885486 
L 437.660826 234.01513 
L 437.660826 233.928959 
L 439.732165 233.939156 
L 439.732165 233.796994 
L 440.076166 233.883126 
L 440.076166 233.727644 
L 440.420167 233.828941 
L 440.420167 233.661138 
L 440.764167 233.798561 
L 440.764167 233.647595 
L 441.108168 233.776784 
L 441.108168 233.583776 
L 441.451924 233.757802 
L 441.451924 233.553962 
L 441.795925 233.71276 
L 441.795925 233.550788 
L 442.139681 233.744894 
L 442.139681 233.588666 
L 442.483927 233.786825 
L 442.483927 233.635811 
L 442.827438 233.815657 
L 442.827438 233.633856 
L 443.171194 233.773552 
L 443.171194 233.618415 
L 443.864575 233.860633 
L 443.864575 233.730187 
L 444.20882 233.882939 
L 444.20882 233.755839 
L 444.9 233.893606 
L 444.9 233.783163 
L 445.592647 233.916167 
L 445.592647 233.806612 
L 446.280648 233.950988 
L 446.280648 233.840151 
L 446.968894 233.993618 
L 446.968894 233.906046 
L 447.656406 234.014921 
L 447.656406 233.925462 
L 448.344163 234.030764 
L 448.344163 233.95558 
L 449.036321 234.07903 
L 449.036321 233.999574 
L 449.722367 234.082184 
L 449.722367 234.005704 
L 450.407923 234.094435 
L 450.407923 234.011065 
L 451.093724 234.074799 
L 451.093724 233.991165 
L 451.77977 234.082257 
L 451.77977 234.010376 
L 452.466304 234.083916 
L 452.466304 233.998267 
L 453.153572 234.043515 
L 453.153572 233.959114 
L 453.846708 234.042241 
L 453.846708 233.960084 
L 454.190709 234.044667 
L 454.190709 233.93501 
L 454.878465 234.008768 
L 454.878465 233.919477 
L 455.222955 234.023877 
L 455.222955 233.9218 
L 455.911446 234.010596 
L 455.911446 233.898078 
L 456.599936 233.989347 
L 456.599936 233.891755 
L 457.288182 234.018118 
L 457.288182 233.921024 
L 457.977161 234.007941 
L 457.977161 233.895552 
L 458.670542 233.98717 
L 458.670542 233.91115 
L 459.364166 234.02184 
L 459.364166 233.94322 
L 459.708901 234.016218 
L 459.708901 233.894131 
L 460.39788 233.976662 
L 460.39788 233.886994 
L 460.74237 234.001692 
L 460.74237 233.904366 
L 461.432083 234.010048 
L 461.432083 233.912179 
L 462.121551 233.994945 
L 462.121551 233.898447 
L 462.811019 234.004334 
L 462.811019 233.924896 
L 463.155754 234.018149 
L 463.155754 233.913443 
L 463.8462 233.965968 
L 463.8462 233.857884 
L 464.541047 233.982788 
L 464.541047 233.906978 
L 464.88627 234.010118 
L 464.88627 233.954908 
L 468.682747 234.01132 
L 468.682747 233.901758 
L 469.728441 234.052792 
L 469.728441 233.94195 
L 470.417665 233.894185 
L 470.417665 233.830221 
L 470.762399 233.904156 
L 470.762399 233.818407 
L 471.451867 233.826609 
L 471.451867 233.75296 
L 472.142314 233.743796 
L 472.142314 233.666106 
L 473.176516 233.728864 
L 473.176516 233.669234 
L 474.20803 233.700711 
L 474.20803 233.63528 
L 474.557409 233.668515 
L 474.557409 233.542338 
L 475.244433 233.59773 
L 475.244433 233.498794 
L 475.5877 233.607232 
L 475.5877 233.490583 
L 476.960035 233.613728 
L 476.960035 233.524653 
L 477.303058 233.639366 
L 477.303058 233.534673 
L 477.988859 233.658792 
L 477.988859 233.597055 
L 478.675882 233.740202 
L 478.675882 233.641182 
L 479.019394 233.736318 
L 479.019394 233.65888 
L 479.712286 233.73784 
L 479.712286 233.602049 
L 480.060687 233.677917 
L 480.060687 233.51097 
L 480.40371 233.580343 
L 480.40371 233.420343 
L 480.747222 233.52725 
L 480.747222 233.296595 
L 481.090489 233.452574 
L 481.090489 233.184507 
L 481.431067 233.365165 
L 481.431067 233.124792 
L 481.771155 233.347551 
L 481.771155 233.054535 
L 482.112467 233.316125 
L 482.112467 232.997671 
L 482.452067 233.244957 
L 482.452067 232.9605 
L 482.7902 233.266723 
L 482.7902 232.969506 
L 483.126376 233.273398 
L 483.126376 232.933574 
L 483.463776 233.210965 
L 483.463776 232.873524 
L 483.80362 233.168656 
L 483.80362 232.912769 
L 484.141509 233.258171 
L 484.141509 233.014594 
L 484.479642 233.358825 
L 484.479642 233.038233 
L 484.821442 233.321776 
L 484.821442 233.037482 
L 485.158841 233.311719 
L 485.158841 233.120674 
L 485.499664 233.479674 
L 485.499664 233.275919 
L 485.839752 233.564143 
L 485.839752 233.389595 
L 486.182042 233.576422 
L 486.182042 233.31542 
L 486.52482 233.521388 
L 486.52482 233.341918 
L 486.867843 233.516584 
L 486.867843 233.30356 
L 487.210376 233.560933 
L 487.210376 233.345526 
L 487.553399 233.550873 
L 487.553399 233.366726 
L 487.895933 233.607975 
L 487.895933 233.450245 
L 488.238956 233.656802 
L 488.238956 233.469287 
L 488.581978 233.668721 
L 488.581978 233.506846 
L 488.925246 233.677361 
L 488.925246 233.50814 
L 489.268268 233.696344 
L 489.268268 233.554282 
L 489.61178 233.719249 
L 489.61178 233.570431 
L 489.96116 233.76902 
L 489.96116 233.610735 
L 490.309072 233.766099 
L 490.309072 233.58329 
L 490.652829 233.734099 
L 490.652829 233.593535 
L 490.996096 233.764256 
L 490.996096 233.636715 
L 491.340097 233.820066 
L 491.340097 233.691757 
L 491.683608 233.836473 
L 491.683608 233.703068 
L 492.371365 233.869062 
L 492.371365 233.758942 
L 492.715366 233.880096 
L 492.715366 233.752144 
L 493.059122 233.854878 
L 493.059122 233.731049 
L 493.403123 233.83323 
L 493.403123 233.700602 
L 493.746879 233.83175 
L 493.746879 233.713074 
L 494.091124 233.808657 
L 494.091124 233.686392 
L 494.434636 233.818086 
L 494.434636 233.693202 
L 495.127772 233.83727 
L 495.127772 233.734892 
L 495.832643 233.885927 
L 495.832643 233.747993 
L 496.520645 233.889703 
L 496.520645 233.795661 
L 496.86489 233.925644 
L 496.86489 233.827281 
L 497.553136 233.902208 
L 497.553136 233.816497 
L 498.240893 233.909995 
L 498.240893 233.833611 
L 498.929383 233.965619 
L 498.929383 233.903615 
L 499.618362 233.970599 
L 499.618362 233.887126 
L 500.335214 233.94303 
L 500.335214 233.877197 
L 500.679704 233.958262 
L 500.679704 233.84139 
L 501.369906 233.958018 
L 501.369906 233.899343 
L 502.059863 234.005491 
L 502.059863 233.915903 
L 502.74982 234.010039 
L 502.74982 233.923337 
L 503.439289 233.991432 
L 503.439289 233.9133 
L 504.128513 234.014328 
L 504.128513 233.902987 
L 504.473491 233.926257 
L 504.473491 233.652455 
L 504.817737 233.528927 
L 504.817737 232.633751 
L 505.170539 232.391981 
L 505.170539 230.113106 
L 505.517963 229.496262 
L 505.517963 225.637282 
L 505.855362 224.92345 
L 505.855362 218.002978 
L 506.186405 217.662779 
L 506.186405 207.899573 
L 506.515736 208.027047 
L 506.515736 193.56439 
L 506.843844 195.892727 
L 506.843844 176.976295 
L 507.170975 181.709976 
L 507.170975 158.425347 
L 507.498106 167.016189 
L 507.498106 138.95888 
L 507.824992 153.540691 
L 507.824992 116.577855 
L 508.151634 133.025334 
L 508.151634 99.025081 
L 508.478031 121.252185 
L 508.478031 78.669794 
L 508.804673 111.14088 
L 508.804673 77.009921 
L 509.13107 106.691218 
L 509.13107 63.656685 
L 509.457468 102.207824 
L 509.457468 60.23335 
L 509.787288 94.21125 
L 509.787288 49.932727 
L 510.113685 91.816831 
L 510.113685 52.121335 
L 510.445461 93.080429 
L 510.445461 53.390251 
L 510.771858 99.664768 
L 510.771858 64.904803 
L 511.098256 104.353152 
L 511.098256 69.75302 
L 511.424897 108.749544 
L 511.424897 78.732802 
L 511.751295 114.974383 
L 511.751295 85.015681 
L 512.077692 123.860357 
L 512.077692 89.567571 
L 512.405556 123.162075 
L 512.405556 94.526062 
L 512.731953 126.677867 
L 512.731953 98.207454 
L 513.058595 138.536209 
L 513.058595 107.819622 
L 513.385237 139.126648 
L 513.385237 115.015293 
L 513.711879 143.670432 
L 513.711879 118.776174 
L 514.03852 148.695598 
L 514.03852 125.978631 
L 514.365162 154.336374 
L 514.365162 133.017224 
L 514.692048 156.557013 
L 514.692048 135.976258 
L 515.018935 159.700472 
L 515.018935 141.016682 
L 515.350955 164.115778 
L 515.350955 149.06672 
L 515.677842 171.408241 
L 515.677842 149.264134 
L 516.004972 167.702783 
L 516.004972 153.465105 
L 516.331859 171.589169 
L 516.331859 152.854184 
L 516.658989 178.303092 
L 516.658989 161.29506 
L 516.985876 177.778758 
L 516.985876 159.451916 
L 517.313006 178.83335 
L 517.313006 163.921902 
L 517.640137 181.298225 
L 517.640137 164.791142 
L 517.967023 182.822069 
L 517.967023 170.503306 
L 518.294643 186.042185 
L 518.294643 171.924229 
L 518.621774 188.543183 
L 518.621774 176.137396 
L 518.949149 190.698053 
L 518.949149 177.457218 
L 519.279703 194.198333 
L 519.279703 183.104737 
L 519.606833 196.663939 
L 519.606833 185.578226 
L 519.935676 198.266708 
L 519.935676 187.37233 
L 520.26843 198.136822 
L 520.26843 188.127068 
L 520.596294 199.711876 
L 520.596294 191.413488 
L 520.923914 201.889724 
L 520.923914 193.564549 
L 521.252022 203.90677 
L 521.252022 194.994591 
L 521.579887 204.509486 
L 521.579887 197.062447 
L 521.90824 206.428133 
L 521.90824 200.025007 
L 522.236104 209.231546 
L 522.236104 202.048216 
L 522.564457 210.608033 
L 522.564457 204.023848 
L 522.895011 211.553595 
L 522.895011 204.271238 
L 523.223609 211.3232 
L 523.223609 204.559405 
L 523.551962 211.69993 
L 523.551962 205.736603 
L 523.881048 213.406219 
L 523.881048 208.762648 
L 524.209646 215.658058 
L 524.209646 209.780007 
L 524.538488 215.64083 
L 524.538488 209.618934 
L 524.86733 215.440455 
L 524.86733 209.379322 
L 525.201552 215.440703 
L 525.201552 210.172789 
L 525.530638 216.01112 
L 525.530638 211.523414 
L 525.859236 217.870687 
L 525.859236 213.624774 
L 526.187834 219.717073 
L 526.187834 216.176356 
L 526.51692 221.020284 
L 526.51692 216.608941 
L 526.846251 221.293105 
L 526.846251 217.866085 
L 527.175583 222.182725 
L 527.175583 218.841809 
L 527.505647 223.61558 
L 527.505647 220.544892 
L 527.834978 223.888488 
L 527.834978 220.240386 
L 528.165043 223.633397 
L 528.165043 220.664652 
L 528.497553 223.934156 
L 528.497553 221.590683 
L 528.827373 225.135349 
L 528.827373 222.468019 
L 529.157193 225.548716 
L 529.157193 223.016393 
L 529.487013 225.549419 
L 529.487013 222.749925 
L 529.816589 225.67152 
L 529.816589 222.480255 
L 530.153255 224.864419 
L 530.153255 222.449922 
L 530.483319 225.457933 
L 530.483319 222.815369 
L 530.813873 225.747037 
L 530.813873 223.431468 
L 531.145405 225.920704 
L 531.145405 223.305581 
L 531.476447 226.019338 
L 531.476447 223.7762 
L 531.80749 226.512782 
L 531.80749 224.000033 
L 532.138288 226.729149 
L 532.138288 224.256107 
L 532.46982 226.630569 
L 532.46982 224.224661 
L 532.80184 226.877332 
L 532.80184 224.998504 
L 533.133127 227.175708 
L 533.133127 225.141618 
L 533.464659 227.569261 
L 533.464659 225.182569 
L 533.796435 226.887377 
L 533.796435 225.20541 
L 534.130167 227.451188 
L 534.130167 225.403927 
L 534.461943 227.823737 
L 534.461943 225.8865 
L 534.795186 227.83513 
L 534.795186 225.784786 
L 535.132586 227.963177 
L 535.132586 226.125132 
L 535.46534 228.216243 
L 535.46534 226.127272 
L 535.801761 228.007473 
L 535.801761 226.234381 
L 536.135738 228.175289 
L 536.135738 226.311464 
L 536.469959 228.48962 
L 536.469959 226.945965 
L 536.803691 228.6425 
L 536.803691 226.955088 
L 537.137912 228.778379 
L 537.137912 227.149849 
L 537.471155 229.00466 
L 537.471155 227.459024 
L 537.808799 229.175843 
L 537.808799 227.647709 
L 538.143509 229.339383 
L 538.143509 227.832889 
L 538.478219 229.373507 
L 538.478219 228.082032 
L 538.813173 229.759562 
L 538.813173 228.234047 
L 539.147394 229.740335 
L 539.147394 228.494706 
L 539.482593 229.821132 
L 539.482593 228.365769 
L 539.816325 229.904203 
L 539.816325 228.63215 
L 540.157881 230.044668 
L 540.157881 228.626528 
L 540.496503 230.041782 
L 540.496503 228.68078 
L 540.831702 229.990192 
L 540.831702 228.309033 
L 541.167635 229.754928 
L 541.167635 228.677645 
L 541.501367 230.051598 
L 541.501367 228.825751 
L 541.838521 230.517018 
L 541.838521 229.414416 
L 542.176899 230.585814 
L 542.176899 229.435443 
L 542.514543 230.706594 
L 542.514543 229.623174 
L 542.849497 230.776657 
L 542.849497 229.61319 
L 543.186652 230.818357 
L 543.186652 229.711903 
L 543.526497 230.879143 
L 543.526497 229.735856 
L 543.866585 230.875824 
L 543.866585 229.80235 
L 544.202518 230.907438 
L 544.202518 229.873158 
L 544.53845 231.031332 
L 544.53845 230.090536 
L 544.875605 231.175188 
L 544.875605 230.130536 
L 545.219117 231.164838 
L 545.219117 230.069905 
L 545.559206 231.078158 
L 545.559206 230.03382 
L 545.898806 231.032416 
L 545.898806 229.998209 
L 546.238161 231.122046 
L 546.238161 230.107413 
L 546.578005 231.110999 
L 546.578005 230.092448 
L 546.917361 231.070256 
L 546.917361 230.043308 
L 547.255005 231.039362 
L 547.255005 230.144423 
L 547.593382 231.143977 
L 547.593382 230.242105 
L 547.932737 231.188794 
L 547.932737 230.308786 
L 548.271359 231.241719 
L 548.271359 230.467962 
L 548.611693 231.344864 
L 548.611693 230.536964 
L 548.952759 231.441363 
L 548.952759 230.445118 
L 549.300672 231.323335 
L 549.300672 230.528404 
L 549.640272 231.425023 
L 549.640272 230.429811 
L 549.977916 231.436619 
L 549.977916 230.426268 
L 550.322895 231.217068 
L 550.322895 230.368242 
L 550.665184 231.335391 
L 550.665184 230.399358 
L 551.002828 231.373462 
L 551.002828 230.534703 
L 551.34365 231.372133 
L 551.34365 230.507357 
L 551.681294 231.459494 
L 551.681294 230.555637 
L 552.018938 231.44291 
L 552.018938 230.582326 
L 552.358293 231.440124 
L 552.358293 230.420225 
L 552.699849 231.328521 
L 552.699849 230.598477 
L 553.04605 231.493083 
L 553.04605 230.780648 
L 553.386139 231.801499 
L 553.386139 230.947333 
L 553.72525 231.692428 
L 553.72525 230.910083 
L 554.064605 231.69331 
L 554.064605 230.949576 
L 554.406894 231.868979 
L 554.406894 231.036653 
L 554.747472 231.832695 
L 554.747472 231.062826 
L 555.087072 231.837682 
L 555.087072 231.105268 
L 555.436696 231.99246 
L 555.436696 231.145585 
L 555.779474 231.946394 
L 555.779474 231.18649 
L 556.118585 231.927982 
L 556.118585 231.172191 
L 556.457696 231.942276 
L 556.457696 231.254988 
L 556.799008 231.999123 
L 556.799008 231.219347 
L 557.138852 231.946745 
L 557.138852 231.310258 
L 557.481386 231.999389 
L 557.481386 231.287884 
L 557.823675 232.000202 
L 557.823675 231.321146 
L 558.165475 232.043731 
L 558.165475 231.333625 
L 558.508498 232.013792 
L 558.508498 231.307927 
L 558.851521 232.03214 
L 558.851521 231.293683 
L 559.195766 231.979873 
L 559.195766 231.36296 
L 559.5383 232.090975 
L 559.5383 231.498434 
L 559.881567 232.25104 
L 559.881567 231.620908 
L 560.229479 232.20514 
L 560.229479 231.612608 
L 560.575925 232.189025 
L 560.575925 231.532402 
L 560.918948 232.192709 
L 560.918948 231.605794 
L 561.261237 232.25365 
L 561.261237 231.572358 
L 561.604504 232.161654 
L 561.604504 231.537516 
L 561.947772 232.160156 
L 561.947772 231.488923 
L 562.291039 232.159377 
L 562.291039 231.566029 
L 562.634551 232.1818 
L 562.634551 231.588434 
L 562.977329 232.24957 
L 562.977329 231.574275 
L 563.320841 232.233865 
L 563.320841 231.502935 
L 563.66313 232.097657 
L 563.66313 231.476463 
L 564.006397 232.189154 
L 564.006397 231.456529 
L 564.349664 232.224099 
L 564.349664 231.643966 
L 564.692932 232.291385 
L 564.692932 231.682825 
L 565.036199 232.438847 
L 565.036199 231.899074 
L 565.380933 232.541844 
L 565.380933 231.882305 
L 565.729579 232.485547 
L 565.729579 231.93375 
L 566.072602 232.442362 
L 566.072602 231.938699 
L 566.415625 232.583806 
L 566.415625 232.062073 
L 566.758403 232.614944 
L 566.758403 232.118192 
L 567.100937 232.63261 
L 567.100937 232.164904 
L 567.44347 232.718822 
L 567.44347 232.206892 
L 567.786493 232.737836 
L 567.786493 232.218803 
L 568.129271 232.701852 
L 568.129271 232.175124 
L 568.472294 232.682046 
L 568.472294 232.223476 
L 568.815561 232.775655 
L 568.815561 232.348523 
L 569.158829 232.886841 
L 569.158829 232.369837 
L 569.501851 232.799013 
L 569.501851 232.22707 
L 569.845363 232.669151 
L 569.845363 232.12319 
L 570.188386 232.646104 
L 570.188386 232.164959 
L 570.531653 232.709418 
L 570.531653 232.196605 
L 570.880299 232.717915 
L 570.880299 232.238294 
L 571.223566 232.75664 
L 571.223566 232.306254 
L 571.568301 232.775427 
L 571.568301 232.367165 
L 571.912057 232.857004 
L 571.912057 232.361358 
L 572.259969 232.813542 
L 572.259969 232.33614 
L 572.603237 232.777181 
L 572.603237 232.310866 
L 572.946993 232.80478 
L 572.946993 232.354744 
L 573.290505 232.886431 
L 573.290505 232.398644 
L 573.634261 232.862709 
L 573.634261 232.362621 
L 573.978506 232.781847 
L 573.978506 232.331787 
L 574.322262 232.776296 
L 574.322262 232.330865 
L 574.665774 232.868533 
L 574.665774 232.544415 
L 575.00953 232.987726 
L 575.00953 232.612336 
L 575.353775 233.061237 
L 575.353775 232.623115 
L 575.697532 233.006179 
L 575.697532 232.56061 
L 576.046911 232.980355 
L 576.046911 232.518529 
L 576.390667 232.913049 
L 576.390667 232.500342 
L 576.734424 232.961282 
L 576.734424 232.522503 
L 577.078669 232.983676 
L 577.078669 232.56473 
L 577.42267 232.957977 
L 577.42267 232.497 
L 577.76667 232.940892 
L 577.76667 232.508357 
L 578.110671 232.960311 
L 578.110671 232.608667 
L 578.454916 233.040471 
L 578.454916 232.574706 
L 578.799161 233.0027 
L 578.799161 232.583777 
L 579.142918 232.948632 
L 579.142918 232.59741 
L 579.487163 233.070925 
L 579.487163 232.687488 
L 579.831408 233.107707 
L 579.831408 232.750078 
L 580.177365 233.148015 
L 580.177365 232.685775 
L 580.52161 233.097757 
L 580.52161 232.668218 
L 580.866344 232.999179 
L 580.866344 232.66283 
L 581.216213 233.102219 
L 581.216213 232.713633 
L 581.560702 233.141685 
L 581.560702 232.836512 
L 581.905436 233.184115 
L 581.905436 232.822979 
L 582.249437 233.14708 
L 582.249437 232.730323 
L 582.595394 233.074343 
L 582.595394 232.725589 
L 582.945262 233.105135 
L 582.945262 232.807945 
L 583.289997 233.207601 
L 583.289997 232.855585 
L 583.634975 233.189497 
L 583.634975 232.809205 
L 583.978976 233.15215 
L 583.978976 232.806432 
L 584.323221 233.166 
L 584.323221 232.843283 
L 584.6682 233.240529 
L 584.6682 232.92643 
L 585.014157 233.284581 
L 585.014157 232.889821 
L 585.359135 233.20449 
L 585.359135 232.798084 
L 585.703869 233.116443 
L 585.703869 232.757583 
L 586.048115 233.14695 
L 586.048115 232.826338 
L 586.398228 233.21772 
L 586.398228 232.887378 
L 586.742717 233.269349 
L 586.742717 232.933612 
L 587.087207 233.279951 
L 587.087207 232.974361 
L 587.431941 233.332715 
L 587.431941 232.995723 
L 587.77692 233.317213 
L 587.77692 233.016928 
L 588.121654 233.31928 
L 588.121654 232.967249 
L 588.466388 233.295418 
L 588.466388 233.020407 
L 588.811367 233.308796 
L 588.811367 232.97768 
L 589.156101 233.313156 
L 589.156101 232.969873 
L 589.500835 233.247745 
L 589.500835 232.942917 
L 589.846059 233.29507 
L 589.846059 232.980332 
L 590.190548 233.33149 
L 590.190548 233.056778 
L 590.535282 233.358698 
L 590.535282 232.981507 
L 590.880261 233.306301 
L 590.880261 233.017794 
L 591.225484 233.295362 
L 591.225484 233.010467 
L 591.575842 233.377436 
L 591.575842 233.10159 
L 591.920576 233.407017 
L 591.920576 233.176846 
L 592.265555 233.472533 
L 592.265555 233.202406 
L 592.610533 233.49017 
L 592.610533 233.172861 
L 592.955268 233.420402 
L 592.955268 233.128132 
L 593.300002 233.416075 
L 593.300002 233.142374 
L 593.645225 233.441704 
L 593.645225 233.147731 
L 593.995338 233.419694 
L 593.995338 233.158367 
L 594.340561 233.423157 
L 594.340561 233.134609 
L 594.685295 233.438713 
L 594.685295 233.164621 
L 595.030274 233.403832 
L 595.030274 233.145814 
L 595.375008 233.427849 
L 595.375008 233.148301 
L 595.719987 233.430539 
L 595.719987 233.160456 
L 596.06521 233.432646 
L 596.06521 233.214326 
L 596.410189 233.486511 
L 596.410189 233.231714 
L 596.760791 233.511836 
L 596.760791 233.262102 
L 597.105525 233.504502 
L 597.105525 233.26015 
L 597.450504 233.512307 
L 597.450504 233.316094 
L 597.795482 233.543096 
L 597.795482 233.27443 
L 598.140217 233.491519 
L 598.140217 233.239962 
L 598.485929 233.45043 
L 598.485929 233.221487 
L 598.830663 233.475452 
L 598.830663 233.245828 
L 599.175642 233.528361 
L 599.175642 233.304503 
L 599.520376 233.550536 
L 599.520376 233.320524 
L 599.865354 233.581306 
L 599.865354 233.358532 
L 600.210578 233.575413 
L 600.210578 233.320635 
L 600.555556 233.531132 
L 600.555556 233.308478 
L 600.90078 233.509724 
L 600.90078 233.286272 
L 601.246003 233.555434 
L 601.246003 233.330698 
L 601.590981 233.535924 
L 601.590981 233.28227 
L 601.941339 233.516166 
L 601.941339 233.228875 
L 602.286562 233.479501 
L 602.286562 233.277631 
L 602.631296 233.563348 
L 602.631296 233.341665 
L 602.97603 233.617148 
L 602.97603 233.345482 
L 603.321009 233.570975 
L 603.321009 233.302695 
L 603.665743 233.52719 
L 603.665743 233.291444 
L 604.010722 233.552602 
L 604.010722 233.352072 
L 604.355456 233.617369 
L 604.355456 233.397544 
L 604.705569 233.63722 
L 604.705569 233.421965 
L 605.050059 233.619173 
L 605.050059 233.393473 
L 605.395038 233.608364 
L 605.395038 233.37077 
L 605.740261 233.600621 
L 605.740261 233.395401 
L 606.084995 233.612717 
L 606.084995 233.367509 
L 606.429729 233.597874 
L 606.429729 233.396355 
L 606.774708 233.594117 
L 606.774708 233.34195 
L 607.12531 233.587004 
L 607.12531 233.365184 
L 607.470289 233.556122 
L 607.470289 233.324367 
L 607.815267 233.578046 
L 607.815267 233.372169 
L 608.160001 233.605392 
L 608.160001 233.414322 
L 608.50498 233.660058 
L 608.50498 233.433662 
L 608.849959 233.625482 
L 608.849959 233.44044 
L 609.195182 233.651207 
L 609.195182 233.435084 
L 609.540161 233.671185 
L 609.540161 233.465419 
L 609.885139 233.627444 
L 609.885139 233.427786 
L 610.230118 233.632753 
L 610.230118 233.423804 
L 610.576075 233.651257 
L 610.576075 233.479889 
L 610.921053 233.658652 
L 610.921053 233.498424 
L 611.266032 233.708639 
L 611.266032 233.494746 
L 611.611255 233.685068 
L 611.611255 233.475792 
L 611.956967 233.638942 
L 611.956967 233.478136 
L 612.307325 233.694724 
L 612.307325 233.496432 
L 612.652304 233.718902 
L 612.652304 233.554086 
L 612.997527 233.717777 
L 612.997527 233.510096 
L 613.34275 233.717664 
L 613.34275 233.517796 
L 613.687973 233.702878 
L 613.687973 233.50546 
L 614.033196 233.702905 
L 614.033196 233.491261 
L 614.378909 233.700141 
L 614.378909 233.507118 
L 614.724132 233.695824 
L 614.724132 233.504433 
L 615.06911 233.703682 
L 615.06911 233.50022 
L 615.414089 233.671555 
L 615.414089 233.488564 
L 615.759068 233.679804 
L 615.759068 233.502888 
L 616.104535 233.68778 
L 616.104535 233.534925 
L 616.449759 233.734355 
L 616.449759 233.530594 
L 616.794493 233.711499 
L 616.794493 233.537436 
L 617.139716 233.717584 
L 617.139716 233.566275 
L 617.495697 233.778437 
L 617.495697 233.58661 
L 617.841164 233.772772 
L 617.841164 233.587088 
L 618.186388 233.727162 
L 618.186388 233.549328 
L 618.531366 233.746667 
L 618.531366 233.55722 
L 618.877323 233.723023 
L 618.877323 233.545322 
L 619.223035 233.715641 
L 619.223035 233.546658 
L 619.568503 233.741893 
L 619.568503 233.5786 
L 619.913482 233.75898 
L 619.913482 233.585356 
L 620.258949 233.754661 
L 620.258949 233.588389 
L 620.604172 233.754093 
L 620.604172 233.581603 
L 620.949151 233.767148 
L 620.949151 233.592227 
L 621.294374 233.731487 
L 621.294374 233.55599 
L 621.639842 233.735012 
L 621.639842 233.544102 
L 621.98531 233.717841 
L 621.98531 233.548494 
L 622.330288 233.72599 
L 622.330288 233.558327 
L 622.68089 233.747967 
L 622.68089 233.593678 
L 623.026113 233.796796 
L 623.026113 233.63935 
L 623.371337 233.801691 
L 623.371337 233.650961 
L 623.71656 233.808589 
L 623.71656 233.648888 
L 624.061294 233.788084 
L 624.061294 233.623409 
L 624.406273 233.773103 
L 624.406273 233.588675 
L 624.751251 233.743836 
L 624.751251 233.583248 
L 625.096719 233.740322 
L 625.096719 233.559854 
L 625.441209 233.743779 
L 625.441209 233.606319 
L 625.786432 233.786865 
L 625.786432 233.598493 
L 626.131655 233.783675 
L 626.131655 233.618425 
L 626.476634 233.740985 
L 626.476634 233.583871 
L 626.821857 233.773598 
L 626.821857 233.633869 
L 627.171725 233.804726 
L 627.171725 233.639063 
L 627.516949 233.797067 
L 627.516949 233.661475 
L 627.866817 233.792905 
L 627.866817 233.625601 
L 628.211551 233.805674 
L 628.211551 233.685381 
L 628.55653 233.8353 
L 628.55653 233.670936 
L 628.901509 233.839947 
L 628.901509 233.693717 
L 629.246732 233.818524 
L 629.246732 233.672645 
L 629.591711 233.83913 
L 629.591711 233.646721 
L 629.937178 233.789656 
L 629.937178 233.630902 
L 630.282157 233.77321 
L 630.282157 233.621137 
L 630.627136 233.809961 
L 630.627136 233.682096 
L 630.97187 233.839788 
L 630.97187 233.674621 
L 631.316604 233.838125 
L 631.316604 233.686992 
L 631.661583 233.822612 
L 631.661583 233.689694 
L 632.006561 233.858342 
L 632.006561 233.716831 
L 632.353007 233.87602 
L 632.353007 233.736783 
L 632.697986 233.854266 
L 632.697986 233.696914 
L 633.048588 233.839385 
L 633.048588 233.684195 
L 633.393566 233.812963 
L 633.393566 233.674121 
L 634.083768 233.869417 
L 634.083768 233.739031 
L 634.428502 233.897949 
L 634.428502 233.728335 
L 634.774948 233.840507 
L 634.774948 233.714066 
L 635.125061 233.842796 
L 635.125061 233.678876 
L 635.815019 233.850493 
L 635.815019 233.727174 
L 636.159997 233.896081 
L 636.159997 233.782336 
L 636.505954 233.87317 
L 636.505954 233.742029 
L 636.850933 233.878952 
L 636.850933 233.728576 
L 637.1964 233.866536 
L 637.1964 233.718062 
L 637.541379 233.845228 
L 637.541379 233.698261 
L 637.886602 233.843676 
L 637.886602 233.669457 
L 638.236715 233.821048 
L 638.236715 233.669234 
L 638.581449 233.822581 
L 638.581449 233.640055 
L 638.926428 233.818448 
L 638.926428 233.704576 
L 639.270918 233.856411 
L 639.270918 233.714322 
L 639.61663 233.88491 
L 639.61663 233.727547 
L 639.96112 233.83331 
L 639.96112 233.691369 
L 640.305854 233.819065 
L 640.305854 233.652519 
L 640.650099 233.808398 
L 640.650099 233.684869 
L 640.994833 233.83242 
L 640.994833 233.707594 
L 641.338589 233.888077 
L 641.338589 233.728611 
L 641.682835 233.855585 
L 641.682835 233.689853 
L 642.027324 233.822163 
L 642.027324 233.665033 
L 642.371814 233.824775 
L 642.371814 233.709926 
L 642.716304 233.8517 
L 642.716304 233.691768 
L 643.060549 233.847814 
L 643.060549 233.736646 
L 643.410417 233.860009 
L 643.410417 233.732009 
L 643.755396 233.891455 
L 643.755396 233.753697 
L 644.444131 233.897178 
L 644.444131 233.763872 
L 644.788621 233.906202 
L 644.788621 233.781331 
L 645.133355 233.899831 
L 645.133355 233.767188 
L 645.483468 233.905768 
L 645.483468 233.776844 
L 645.828447 233.888499 
L 645.828447 233.753363 
L 646.172936 233.892807 
L 646.172936 233.744635 
L 646.517915 233.869378 
L 646.517915 233.73048 
L 647.207872 233.910964 
L 647.207872 233.790617 
L 647.552607 233.914751 
L 647.552607 233.794951 
L 647.89783 233.909782 
L 647.89783 233.75449 
L 648.59341 233.891214 
L 648.59341 233.747364 
L 648.938634 233.881238 
L 648.938634 233.755757 
L 649.283612 233.888004 
L 649.283612 233.752511 
L 649.628591 233.896044 
L 649.628591 233.783596 
L 649.97357 233.906659 
L 649.97357 233.778118 
L 650.319282 233.903565 
L 650.319282 233.768065 
L 650.664261 233.894115 
L 650.664261 233.788091 
L 651.354707 233.9083 
L 651.354707 233.778044 
L 652.044175 233.898075 
L 652.044175 233.791796 
L 652.388665 233.92171 
L 652.388665 233.784772 
L 653.0774 233.894194 
L 653.0774 233.784004 
L 653.42189 233.9316 
L 653.42189 233.819964 
L 653.772247 233.942862 
L 653.772247 233.808677 
L 654.116492 233.925025 
L 654.116492 233.795745 
L 654.804738 233.927387 
L 654.804738 233.804081 
L 655.148983 233.931732 
L 655.148983 233.814273 
L 655.493229 233.926386 
L 655.493229 233.802507 
L 656.180986 233.957789 
L 656.180986 233.817783 
L 656.525231 233.946954 
L 656.525231 233.843822 
L 656.8773 233.925319 
L 656.8773 233.808433 
L 657.221789 233.947161 
L 657.221789 233.833035 
L 657.916148 233.951599 
L 657.916148 233.825761 
L 658.605372 233.942585 
L 658.605372 233.823296 
L 658.955485 233.950638 
L 658.955485 233.843706 
L 659.300463 233.947691 
L 659.300463 233.805632 
L 659.645198 233.93112 
L 659.645198 233.808644 
L 659.989932 233.914544 
L 659.989932 233.784453 
L 660.334666 233.915979 
L 660.334666 233.791284 
L 661.024868 233.923109 
L 661.024868 233.82494 
L 661.370091 233.950593 
L 661.370091 233.825144 
L 661.718248 233.929554 
L 661.718248 233.817661 
L 662.40845 233.921443 
L 662.40845 233.792915 
L 662.753429 233.918607 
L 662.753429 233.820238 
L 663.443386 233.953 
L 663.443386 233.853114 
L 664.138722 233.956247 
L 664.138722 233.837128 
L 664.828924 233.933185 
L 664.828924 233.835372 
L 665.518881 233.970187 
L 665.518881 233.844109 
L 666.209083 233.926349 
L 666.209083 233.817628 
L 666.904419 233.967086 
L 666.904419 233.846914 
L 667.249643 233.962255 
L 667.249643 233.843748 
L 667.59511 233.951736 
L 667.59511 233.825502 
L 668.28629 233.959884 
L 668.28629 233.869549 
L 668.631513 233.989111 
L 668.631513 233.877893 
L 668.976492 233.989298 
L 668.976492 233.852775 
L 669.332717 233.948036 
L 669.332717 233.826846 
L 670.023653 233.973144 
L 670.023653 233.874028 
L 670.36912 233.99342 
L 670.36912 233.86612 
L 670.714588 233.95072 
L 670.714588 233.826845 
L 671.405279 233.94237 
L 671.405279 233.858757 
L 671.750502 233.972075 
L 671.750502 233.858402 
L 672.441193 233.945246 
L 672.441193 233.848731 
L 673.132862 233.969257 
L 673.132862 233.869721 
L 673.478574 233.978371 
L 673.478574 233.864402 
L 674.169754 233.964174 
L 674.169754 233.846876 
L 674.520356 233.963132 
L 674.520356 233.857714 
L 675.212025 233.974673 
L 675.212025 233.854083 
L 675.902715 233.96653 
L 675.902715 233.883507 
L 676.247694 234.008552 
L 676.247694 233.900541 
L 676.593162 233.99325 
L 676.593162 233.869493 
L 676.938629 233.963271 
L 676.938629 233.835767 
L 677.629809 233.958365 
L 677.629809 233.839251 
L 681.096222 234.006806 
L 681.096222 233.892716 
L 681.788868 233.994393 
L 681.788868 233.884077 
L 682.134581 234.000796 
L 682.134581 233.888139 
L 682.82576 233.988855 
L 682.82576 233.880091 
L 683.51694 234.007858 
L 683.51694 233.912375 
L 683.862897 234.023522 
L 683.862897 233.917145 
L 684.208609 233.982071 
L 684.208609 233.863993 
L 684.904923 233.981217 
L 684.904923 233.878882 
L 685.250635 233.997036 
L 685.250635 233.90295 
L 685.942304 234.007704 
L 685.942304 233.901283 
L 686.633728 233.976243 
L 686.633728 233.866864 
L 686.979196 233.967574 
L 686.979196 233.854369 
L 687.670865 233.956893 
L 687.670865 233.864714 
L 688.3618 233.999904 
L 688.3618 233.889389 
L 688.708001 233.987043 
L 688.708001 233.883675 
L 689.403827 233.965278 
L 689.403827 233.860292 
L 690.100874 233.984123 
L 690.100874 233.910464 
L 690.792299 234.013438 
L 690.792299 233.922122 
L 691.484212 234.002452 
L 691.484212 233.913366 
L 692.176125 234.011806 
L 692.176125 233.923737 
L 692.868039 233.976842 
L 692.868039 233.898701 
L 693.559218 234.024551 
L 693.559218 233.931808 
L 694.251132 234.009077 
L 694.251132 233.928983 
L 694.942556 234.033516 
L 694.942556 233.93313 
L 695.638381 234.005473 
L 695.638381 233.921716 
L 696.329806 234.008579 
L 696.329806 233.892756 
L 697.021719 233.977564 
L 697.021719 233.907548 
L 697.367187 234.014694 
L 697.367187 233.893799 
L 697.713877 233.983269 
L 697.713877 233.880078 
L 698.75517 234.018999 
L 698.75517 233.95446 
L 699.446349 234.038837 
L 699.446349 233.95887 
L 700.138018 234.03997 
L 700.138018 233.958007 
L 700.835066 234.03047 
L 700.835066 233.943858 
L 701.52649 234.010965 
L 701.52649 233.928957 
L 702.217914 234.006943 
L 702.217914 233.913731 
L 702.909583 234.0114 
L 702.909583 233.931836 
L 703.601008 234.022191 
L 703.601008 233.918232 
L 704.292676 233.996846 
L 704.292676 233.901712 
L 704.984345 234.01396 
L 704.984345 233.919984 
L 705.681148 234.027028 
L 705.681148 233.946473 
L 706.372817 234.019487 
L 706.372817 233.943869 
L 707.063508 234.026177 
L 707.063508 233.949397 
L 707.755177 234.027724 
L 707.755177 233.942687 
L 708.447335 234.014083 
L 708.447335 233.917046 
L 709.137292 234.019831 
L 709.137292 233.949099 
L 710.180052 233.925719 
L 710.180052 233.937755 
L 710.876855 234.039085 
L 710.876855 233.966179 
L 711.568035 234.035992 
L 711.568035 233.942183 
L 712.259215 234.026542 
L 712.259215 233.957714 
L 712.604682 234.053516 
L 712.604682 233.985989 
L 713.641574 234.053064 
L 713.641574 233.99101 
L 714.332265 234.046326 
L 714.332265 233.964496 
L 715.023201 234.034929 
L 715.023201 233.947257 
L 715.71438 234.050694 
L 715.71438 233.997991 
L 716.41045 234.065935 
L 716.41045 233.963814 
L 717.100652 234.025345 
L 717.100652 233.952082 
L 717.791587 234.061086 
L 717.791587 233.992597 
L 719.178592 234.014094 
L 719.869039 234.080635 
L 719.869039 234.018277 
L 720.561441 234.083503 
L 720.561441 234.00931 
L 721.257755 234.066416 
L 721.257755 233.987335 
L 721.947957 234.054809 
L 721.947957 233.977064 
L 722.639137 234.051254 
L 722.639137 233.973577 
L 723.330806 234.043916 
L 723.330806 233.968131 
L 724.366475 234.098923 
L 724.366475 234.050674 
L 725.056921 234.092384 
L 725.056921 234.023809 
L 725.749079 234.064194 
L 725.749079 233.992879 
L 726.444171 234.072629 
L 726.444171 234.011734 
L 727.134373 234.067746 
L 727.134373 233.996279 
L 727.825797 234.08519 
L 727.825797 234.016737 
L 728.521133 234.072389 
L 728.521133 234.02023 
L 729.211335 234.108131 
L 729.211335 234.05237 
L 729.556069 234.101781 
L 729.556069 234.041963 
L 730.592717 234.017768 
L 730.93794 234.110811 
L 730.93794 234.029674 
L 731.63401 234.080049 
L 731.63401 234.014777 
L 732.324701 234.097538 
L 732.324701 234.032771 
L 733.016369 234.097665 
L 733.016369 234.032363 
L 733.706327 234.103897 
L 733.706327 234.031674 
L 734.396529 234.076966 
L 734.396529 234.016271 
L 735.087464 234.098312 
L 735.087464 234.03447 
L 736.122156 234.133828 
L 736.122156 234.073446 
L 736.466645 234.127997 
L 736.466645 234.061992 
L 737.507694 234.017787 
L 738.202052 234.097716 
L 738.202052 234.029708 
L 739.235766 234.126827 
L 739.235766 234.073859 
L 739.580255 234.126632 
L 739.580255 234.067775 
L 741.647927 234.034337 
L 742.341552 234.115549 
L 742.341552 234.048221 
L 743.030042 234.076776 
L 743.030042 234.024823 
L 744.062533 234.114769 
L 744.062533 234.065757 
L 744.406534 234.130173 
L 744.406534 234.067815 
L 745.78327 234.06208 
L 746.816495 234.128944 
L 746.816495 234.084068 
L 747.511098 234.116079 
L 747.511098 234.057297 
L 748.893946 234.120946 
L 748.893946 234.065524 
L 749.583659 234.115436 
L 749.583659 234.075225 
L 758.908108 234.122962 
L 758.908108 234.070665 
L 759.957469 234.155077 
L 759.957469 234.092765 
L 760.646204 234.119894 
L 760.646204 234.055942 
L 761.680406 234.13153 
L 761.680406 234.080234 
L 763.064478 234.140239 
L 763.064478 234.076089 
L 764.09868 234.150865 
L 764.09868 234.097409 
L 765.488375 234.180238 
L 765.488375 234.129097 
L 766.522577 234.160948 
L 766.522577 234.112742 
L 767.21718 234.138591 
L 767.21718 234.077556 
L 768.256761 234.130718 
L 768.256761 234.088588 
L 769.294876 234.162119 
L 769.294876 234.110012 
L 770.328345 234.144321 
L 770.328345 234.072613 
L 771.017569 234.119796 
L 771.017569 234.069708 
L 771.706548 234.138226 
L 771.706548 234.094763 
L 772.395772 234.143114 
L 772.395772 234.094644 
L 773.435598 234.169859 
L 773.435598 234.118439 
L 774.480069 234.134221 
L 774.480069 234.080306 
L 775.514761 234.124454 
L 775.514761 234.07631 
L 776.552875 234.167463 
L 776.552875 234.11558 
L 777.93059 234.160557 
L 777.93059 234.117756 
L 778.624214 234.152699 
L 778.624214 234.09708 
L 779.665996 234.145859 
L 779.665996 234.096686 
L 780.354487 234.154154 
L 780.354487 234.092041 
L 781.386244 234.158087 
L 781.386244 234.096061 
L 782.420202 234.15612 
L 782.420202 234.110062 
L 783.108693 234.16698 
L 783.108693 234.13138 
L 785.882214 234.129994 
L 786.569482 234.174031 
L 786.569482 234.13201 
L 787.608574 234.182108 
L 787.608574 234.123984 
L 788.29682 234.149729 
L 788.29682 234.082667 
L 789.333712 234.138795 
L 789.333712 234.094792 
L 790.022202 234.141186 
L 790.022202 234.093354 
L 791.38867 234.158504 
L 791.38867 234.113746 
L 792.741691 234.175491 
L 792.741691 234.120856 
L 793.774182 234.161787 
L 793.774182 234.086262 
L 794.108892 234.131008 
L 794.108892 234.0836 
L 795.112533 234.057213 
L 796.778259 234.179372 
L 796.778259 234.119173 
L 797.447924 234.107632 
L 810.855394 234.09462 
L 811.53435 234.082934 
L 811.53435 234.11718 
L 816.397791 234.307837 
L 816.397791 234.307837 
" clip-path="url(#pc91ec4267c)" style="fill: none; stroke: #008000; stroke-width: 1.5; stroke-linecap: square"/>
   </g>
   <g id="patch_3">
    <path d="M 47.72 534.04 
L 47.72 26.88 
" style="fill: none; stroke: #000000; stroke-width: 0.8; stroke-linejoin: miter; stroke-linecap: square"/>
   </g>
   <g id="patch_4">
    <path d="M 853.2 534.04 
L 853.2 26.88 
" style="fill: none; stroke: #000000; stroke-width: 0.8; stroke-linejoin: miter; stroke-linecap: square"/>
   </g>
   <g id="patch_5">
    <path d="M 47.72 534.04 
L 853.2 534.04 
" style="fill: none; stroke: #000000; stroke-width: 0.8; stroke-linejoin: miter; stroke-linecap: square"/>
   </g>
   <g id="patch_6">
    <path d="M 47.72 26.88 
L 853.2 26.88 
" style="fill: none; stroke: #000000; stroke-width: 0.8; stroke-linejoin: miter; stroke-linecap: square"/>
   </g>
   <g id="patch_7">
    <path d="M 577.860349 329.226265 
Q 551.709055 335.058615 525.557762 340.890964 
L 526.428464 344.795049 
Q 519.920845 343.172696 513.413226 341.550344 
Q 518.614792 337.316569 523.816357 333.082795 
L 524.687059 336.98688 
Q 550.838353 331.15453 576.989647 325.32218 
L 577.860349 329.226265 
z
" style="stroke: #000000; stroke-linecap: round"/>
   </g>
   <g id="text_15">
    <!-- Peak: RT=2.91, Area=1.27e+04 -->
    <g style="fill: #ff0000" transform="translate(583.097092 312.731713) scale(0.1 -0.1)">
     <defs>
      <path id="DejaVuSans-50" d="M 1259 4147 
L 1259 2394 
L 2053 2394 
Q 2494 2394 2734 2622 
Q 2975 2850 2975 3272 
Q 2975 3691 2734 3919 
Q 2494 4147 2053 4147 
L 1259 4147 
z
M 628 4666 
L 2053 4666 
Q 2838 4666 3239 4311 
Q 3641 3956 3641 3272 
Q 3641 2581 3239 2228 
Q 2838 1875 2053 1875 
L 1259 1875 
L 1259 0 
L 628 0 
L 628 4666 
z
" transform="scale(0.015625)"/>
      <path id="DejaVuSans-6b" d="M 581 4863 
L 1159 4863 
L 1159 1991 
L 2875 3500 
L 3609 3500 
L 1753 1863 
L 3688 0 
L 2938 0 
L 1159 1709 
L 1159 0 
L 581 0 
L 581 4863 
z
" transform="scale(0.015625)"/>
      <path id="DejaVuSans-3a" d="M 750 794 
L 1409 794 
L 1409 0 
L 750 0 
L 750 794 
z
M 750 3309 
L 1409 3309 
L 1409 2516 
L 750 2516 
L 750 3309 
z
" transform="scale(0.015625)"/>
      <path id="DejaVuSans-3d" d="M 678 2906 
L 4684 2906 
L 4684 2381 
L 678 2381 
L 678 2906 
z
M 678 1631 
L 4684 1631 
L 4684 1100 
L 678 1100 
L 678 1631 
z
" transform="scale(0.015625)"/>
      <path id="DejaVuSans-39" d="M 703 97 
L 703 672 
Q 941 559 1184 500 
Q 1428 441 1663 441 
Q 2288 441 2617 861 
Q 2947 1281 2994 2138 
Q 2813 1869 2534 1725 
Q 2256 1581 1919 1581 
Q 1219 1581 811 2004 
Q 403 2428 403 3163 
Q 403 3881 828 4315 
Q 1253 4750 1959 4750 
Q 2769 4750 3195 4129 
Q 3622 3509 3622 2328 
Q 3622 1225 3098 567 
Q 2575 -91 1691 -91 
Q 1453 -91 1209 -44 
Q 966 3 703 97 
z
M 1959 2075 
Q 2384 2075 2632 2365 
Q 2881 2656 2881 3163 
Q 2881 3666 2632 3958 
Q 2384 4250 1959 4250 
Q 1534 4250 1286 3958 
Q 1038 3666 1038 3163 
Q 1038 2656 1286 2365 
Q 1534 2075 1959 2075 
z
" transform="scale(0.015625)"/>
      <path id="DejaVuSans-2c" d="M 750 794 
L 1409 794 
L 1409 256 
L 897 -744 
L 494 -744 
L 750 256 
L 750 794 
z
" transform="scale(0.015625)"/>
      <path id="DejaVuSans-41" d="M 2188 4044 
L 1331 1722 
L 3047 1722 
L 2188 4044 
z
M 1831 4666 
L 2547 4666 
L 4325 0 
L 3669 0 
L 3244 1197 
L 1141 1197 
L 716 0 
L 50 0 
L 1831 4666 
z
" transform="scale(0.015625)"/>
      <path id="DejaVuSans-37" d="M 525 4666 
L 3525 4666 
L 3525 4397 
L 1831 0 
L 1172 0 
L 2766 4134 
L 525 4134 
L 525 4666 
z
" transform="scale(0.015625)"/>
      <path id="DejaVuSans-2b" d="M 2944 4013 
L 2944 2272 
L 4684 2272 
L 4684 1741 
L 2944 1741 
L 2944 0 
L 2419 0 
L 2419 1741 
L 678 1741 
L 678 2272 
L 2419 2272 
L 2419 4013 
L 2944 4013 
z
" transform="scale(0.015625)"/>
     </defs>
     <use xlink:href="#DejaVuSans-50"/>
     <use xlink:href="#DejaVuSans-65" transform="translate(56.677734 0)"/>
     <use xlink:href="#DejaVuSans-61" transform="translate(118.201172 0)"/>
     <use xlink:href="#DejaVuSans-6b" transform="translate(179.480469 0)"/>
     <use xlink:href="#DejaVuSans-3a" transform="translate(237.390625 0)"/>
     <use xlink:href="#DejaVuSans-20" transform="translate(271.082031 0)"/>
     <use xlink:href="#DejaVuSans-52" transform="translate(302.869141 0)"/>
     <use xlink:href="#DejaVuSans-54" transform="translate(365.101562 0)"/>
     <use xlink:href="#DejaVuSans-3d" transform="translate(426.185547 0)"/>
     <use xlink:href="#DejaVuSans-32" transform="translate(509.974609 0)"/>
     <use xlink:href="#DejaVuSans-2e" transform="translate(573.597656 0)"/>
     <use xlink:href="#DejaVuSans-39" transform="translate(605.384766 0)"/>
     <use xlink:href="#DejaVuSans-31" transform="translate(669.007812 0)"/>
     <use xlink:href="#DejaVuSans-2c" transform="translate(732.630859 0)"/>
     <use xlink:href="#DejaVuSans-20" transform="translate(764.417969 0)"/>
     <use xlink:href="#DejaVuSans-41" transform="translate(796.205078 0)"/>
     <use xlink:href="#DejaVuSans-72" transform="translate(864.613281 0)"/>
     <use xlink:href="#DejaVuSans-65" transform="translate(903.476562 0)"/>
     <use xlink:href="#DejaVuSans-61" transform="translate(965 0)"/>
     <use xlink:href="#DejaVuSans-3d" transform="translate(1026.279297 0)"/>
     <use xlink:href="#DejaVuSans-31" transform="translate(1110.068359 0)"/>
     <use xlink:href="#DejaVuSans-2e" transform="translate(1173.691406 0)"/>
     <use xlink:href="#DejaVuSans-32" transform="translate(1205.478516 0)"/>
     <use xlink:href="#DejaVuSans-37" transform="translate(1269.101562 0)"/>
     <use xlink:href="#DejaVuSans-65" transform="translate(1332.724609 0)"/>
     <use xlink:href="#DejaVuSans-2b" transform="translate(1394.248047 0)"/>
     <use xlink:href="#DejaVuSans-30" transform="translate(1478.037109 0)"/>
     <use xlink:href="#DejaVuSans-34" transform="translate(1541.660156 0)"/>
    </g>
    <!-- (62.41% of total) -->
    <g style="fill: #ff0000" transform="translate(583.097092 323.929526) scale(0.1 -0.1)">
     <defs>
      <path id="DejaVuSans-36" d="M 2113 2584 
Q 1688 2584 1439 2293 
Q 1191 2003 1191 1497 
Q 1191 994 1439 701 
Q 1688 409 2113 409 
Q 2538 409 2786 701 
Q 3034 994 3034 1497 
Q 3034 2003 2786 2293 
Q 2538 2584 2113 2584 
z
M 3366 4563 
L 3366 3988 
Q 3128 4100 2886 4159 
Q 2644 4219 2406 4219 
Q 1781 4219 1451 3797 
Q 1122 3375 1075 2522 
Q 1259 2794 1537 2939 
Q 1816 3084 2150 3084 
Q 2853 3084 3261 2657 
Q 3669 2231 3669 1497 
Q 3669 778 3244 343 
Q 2819 -91 2113 -91 
Q 1303 -91 875 529 
Q 447 1150 447 2328 
Q 447 3434 972 4092 
Q 1497 4750 2381 4750 
Q 2619 4750 2861 4703 
Q 3103 4656 3366 4563 
z
" transform="scale(0.015625)"/>
      <path id="DejaVuSans-25" d="M 4653 2053 
Q 4381 2053 4226 1822 
Q 4072 1591 4072 1178 
Q 4072 772 4226 539 
Q 4381 306 4653 306 
Q 4919 306 5073 539 
Q 5228 772 5228 1178 
Q 5228 1588 5073 1820 
Q 4919 2053 4653 2053 
z
M 4653 2450 
Q 5147 2450 5437 2106 
Q 5728 1763 5728 1178 
Q 5728 594 5436 251 
Q 5144 -91 4653 -91 
Q 4153 -91 3862 251 
Q 3572 594 3572 1178 
Q 3572 1766 3864 2108 
Q 4156 2450 4653 2450 
z
M 1428 4353 
Q 1159 4353 1004 4120 
Q 850 3888 850 3481 
Q 850 3069 1003 2837 
Q 1156 2606 1428 2606 
Q 1700 2606 1854 2837 
Q 2009 3069 2009 3481 
Q 2009 3884 1853 4118 
Q 1697 4353 1428 4353 
z
M 4250 4750 
L 4750 4750 
L 1831 -91 
L 1331 -91 
L 4250 4750 
z
M 1428 4750 
Q 1922 4750 2215 4408 
Q 2509 4066 2509 3481 
Q 2509 2891 2217 2550 
Q 1925 2209 1428 2209 
Q 931 2209 642 2551 
Q 353 2894 353 3481 
Q 353 4063 643 4406 
Q 934 4750 1428 4750 
z
" transform="scale(0.015625)"/>
      <path id="DejaVuSans-66" d="M 2375 4863 
L 2375 4384 
L 1825 4384 
Q 1516 4384 1395 4259 
Q 1275 4134 1275 3809 
L 1275 3500 
L 2222 3500 
L 2222 3053 
L 1275 3053 
L 1275 0 
L 697 0 
L 697 3053 
L 147 3053 
L 147 3500 
L 697 3500 
L 697 3744 
Q 697 4328 969 4595 
Q 1241 4863 1831 4863 
L 2375 4863 
z
" transform="scale(0.015625)"/>
     </defs>
     <use xlink:href="#DejaVuSans-28"/>
     <use xlink:href="#DejaVuSans-36" transform="translate(39.013672 0)"/>
     <use xlink:href="#DejaVuSans-32" transform="translate(102.636719 0)"/>
     <use xlink:href="#DejaVuSans-2e" transform="translate(166.259766 0)"/>
     <use xlink:href="#DejaVuSans-34" transform="translate(198.046875 0)"/>
     <use xlink:href="#DejaVuSans-31" transform="translate(261.669922 0)"/>
     <use xlink:href="#DejaVuSans-25" transform="translate(325.292969 0)"/>
     <use xlink:href="#DejaVuSans-20" transform="translate(420.3125 0)"/>
     <use xlink:href="#DejaVuSans-6f" transform="translate(452.099609 0)"/>
     <use xlink:href="#DejaVuSans-66" transform="translate(513.28125 0)"/>
     <use xlink:href="#DejaVuSans-20" transform="translate(548.486328 0)"/>
     <use xlink:href="#DejaVuSans-74" transform="translate(580.273438 0)"/>
     <use xlink:href="#DejaVuSans-6f" transform="translate(619.482422 0)"/>
     <use xlink:href="#DejaVuSans-74" transform="translate(680.664062 0)"/>
     <use xlink:href="#DejaVuSans-61" transform="translate(719.873047 0)"/>
     <use xlink:href="#DejaVuSans-6c" transform="translate(781.152344 0)"/>
     <use xlink:href="#DejaVuSans-29" transform="translate(808.935547 0)"/>
    </g>
   </g>
   <g id="text_16">
    <!-- UV and MS Chromatograms of IrCp3I15, target m/z = 749.1335857 -->
    <g transform="translate(248.549688 20.88) scale(0.12 -0.12)">
     <defs>
      <path id="DejaVuSans-55" d="M 556 4666 
L 1191 4666 
L 1191 1831 
Q 1191 1081 1462 751 
Q 1734 422 2344 422 
Q 2950 422 3222 751 
Q 3494 1081 3494 1831 
L 3494 4666 
L 4128 4666 
L 4128 1753 
Q 4128 841 3676 375 
Q 3225 -91 2344 -91 
Q 1459 -91 1007 375 
Q 556 841 556 1753 
L 556 4666 
z
" transform="scale(0.015625)"/>
      <path id="DejaVuSans-56" d="M 1831 0 
L 50 4666 
L 709 4666 
L 2188 738 
L 3669 4666 
L 4325 4666 
L 2547 0 
L 1831 0 
z
" transform="scale(0.015625)"/>
      <path id="DejaVuSans-4d" d="M 628 4666 
L 1569 4666 
L 2759 1491 
L 3956 4666 
L 4897 4666 
L 4897 0 
L 4281 0 
L 4281 4097 
L 3078 897 
L 2444 897 
L 1241 4097 
L 1241 0 
L 628 0 
L 628 4666 
z
" transform="scale(0.015625)"/>
      <path id="DejaVuSans-53" d="M 3425 4513 
L 3425 3897 
Q 3066 4069 2747 4153 
Q 2428 4238 2131 4238 
Q 1616 4238 1336 4038 
Q 1056 3838 1056 3469 
Q 1056 3159 1242 3001 
Q 1428 2844 1947 2747 
L 2328 2669 
Q 3034 2534 3370 2195 
Q 3706 1856 3706 1288 
Q 3706 609 3251 259 
Q 2797 -91 1919 -91 
Q 1588 -91 1214 -16 
Q 841 59 441 206 
L 441 856 
Q 825 641 1194 531 
Q 1563 422 1919 422 
Q 2459 422 2753 634 
Q 3047 847 3047 1241 
Q 3047 1584 2836 1778 
Q 2625 1972 2144 2069 
L 1759 2144 
Q 1053 2284 737 2584 
Q 422 2884 422 3419 
Q 422 4038 858 4394 
Q 1294 4750 2059 4750 
Q 2388 4750 2728 4690 
Q 3069 4631 3425 4513 
z
" transform="scale(0.015625)"/>
      <path id="DejaVuSans-43" d="M 4122 4306 
L 4122 3641 
Q 3803 3938 3442 4084 
Q 3081 4231 2675 4231 
Q 1875 4231 1450 3742 
Q 1025 3253 1025 2328 
Q 1025 1406 1450 917 
Q 1875 428 2675 428 
Q 3081 428 3442 575 
Q 3803 722 4122 1019 
L 4122 359 
Q 3791 134 3420 21 
Q 3050 -91 2638 -91 
Q 1578 -91 968 557 
Q 359 1206 359 2328 
Q 359 3453 968 4101 
Q 1578 4750 2638 4750 
Q 3056 4750 3426 4639 
Q 3797 4528 4122 4306 
z
" transform="scale(0.015625)"/>
      <path id="DejaVuSans-68" d="M 3513 2113 
L 3513 0 
L 2938 0 
L 2938 2094 
Q 2938 2591 2744 2837 
Q 2550 3084 2163 3084 
Q 1697 3084 1428 2787 
Q 1159 2491 1159 1978 
L 1159 0 
L 581 0 
L 581 4863 
L 1159 4863 
L 1159 2956 
Q 1366 3272 1645 3428 
Q 1925 3584 2291 3584 
Q 2894 3584 3203 3211 
Q 3513 2838 3513 2113 
z
" transform="scale(0.015625)"/>
      <path id="DejaVuSans-67" d="M 2906 1791 
Q 2906 2416 2648 2759 
Q 2391 3103 1925 3103 
Q 1463 3103 1205 2759 
Q 947 2416 947 1791 
Q 947 1169 1205 825 
Q 1463 481 1925 481 
Q 2391 481 2648 825 
Q 2906 1169 2906 1791 
z
M 3481 434 
Q 3481 -459 3084 -895 
Q 2688 -1331 1869 -1331 
Q 1566 -1331 1297 -1286 
Q 1028 -1241 775 -1147 
L 775 -588 
Q 1028 -725 1275 -790 
Q 1522 -856 1778 -856 
Q 2344 -856 2625 -561 
Q 2906 -266 2906 331 
L 2906 616 
Q 2728 306 2450 153 
Q 2172 0 1784 0 
Q 1141 0 747 490 
Q 353 981 353 1791 
Q 353 2603 747 3093 
Q 1141 3584 1784 3584 
Q 2172 3584 2450 3431 
Q 2728 3278 2906 2969 
L 2906 3500 
L 3481 3500 
L 3481 434 
z
" transform="scale(0.015625)"/>
      <path id="DejaVuSans-70" d="M 1159 525 
L 1159 -1331 
L 581 -1331 
L 581 3500 
L 1159 3500 
L 1159 2969 
Q 1341 3281 1617 3432 
Q 1894 3584 2278 3584 
Q 2916 3584 3314 3078 
Q 3713 2572 3713 1747 
Q 3713 922 3314 415 
Q 2916 -91 2278 -91 
Q 1894 -91 1617 61 
Q 1341 213 1159 525 
z
M 3116 1747 
Q 3116 2381 2855 2742 
Q 2594 3103 2138 3103 
Q 1681 3103 1420 2742 
Q 1159 2381 1159 1747 
Q 1159 1113 1420 752 
Q 1681 391 2138 391 
Q 2594 391 2855 752 
Q 3116 1113 3116 1747 
z
" transform="scale(0.015625)"/>
      <path id="DejaVuSans-2f" d="M 1625 4666 
L 2156 4666 
L 531 -594 
L 0 -594 
L 1625 4666 
z
" transform="scale(0.015625)"/>
      <path id="DejaVuSans-38" d="M 2034 2216 
Q 1584 2216 1326 1975 
Q 1069 1734 1069 1313 
Q 1069 891 1326 650 
Q 1584 409 2034 409 
Q 2484 409 2743 651 
Q 3003 894 3003 1313 
Q 3003 1734 2745 1975 
Q 2488 2216 2034 2216 
z
M 1403 2484 
Q 997 2584 770 2862 
Q 544 3141 544 3541 
Q 544 4100 942 4425 
Q 1341 4750 2034 4750 
Q 2731 4750 3128 4425 
Q 3525 4100 3525 3541 
Q 3525 3141 3298 2862 
Q 3072 2584 2669 2484 
Q 3125 2378 3379 2068 
Q 3634 1759 3634 1313 
Q 3634 634 3220 271 
Q 2806 -91 2034 -91 
Q 1263 -91 848 271 
Q 434 634 434 1313 
Q 434 1759 690 2068 
Q 947 2378 1403 2484 
z
M 1172 3481 
Q 1172 3119 1398 2916 
Q 1625 2713 2034 2713 
Q 2441 2713 2670 2916 
Q 2900 3119 2900 3481 
Q 2900 3844 2670 4047 
Q 2441 4250 2034 4250 
Q 1625 4250 1398 4047 
Q 1172 3844 1172 3481 
z
" transform="scale(0.015625)"/>
     </defs>
     <use xlink:href="#DejaVuSans-55"/>
     <use xlink:href="#DejaVuSans-56" transform="translate(73.193359 0)"/>
     <use xlink:href="#DejaVuSans-20" transform="translate(141.601562 0)"/>
     <use xlink:href="#DejaVuSans-61" transform="translate(173.388672 0)"/>
     <use xlink:href="#DejaVuSans-6e" transform="translate(234.667969 0)"/>
     <use xlink:href="#DejaVuSans-64" transform="translate(298.046875 0)"/>
     <use xlink:href="#DejaVuSans-20" transform="translate(361.523438 0)"/>
     <use xlink:href="#DejaVuSans-4d" transform="translate(393.310547 0)"/>
     <use xlink:href="#DejaVuSans-53" transform="translate(479.589844 0)"/>
     <use xlink:href="#DejaVuSans-20" transform="translate(543.066406 0)"/>
     <use xlink:href="#DejaVuSans-43" transform="translate(574.853516 0)"/>
     <use xlink:href="#DejaVuSans-68" transform="translate(644.677734 0)"/>
     <use xlink:href="#DejaVuSans-72" transform="translate(708.056641 0)"/>
     <use xlink:href="#DejaVuSans-6f" transform="translate(746.919922 0)"/>
     <use xlink:href="#DejaVuSans-6d" transform="translate(808.101562 0)"/>
     <use xlink:href="#DejaVuSans-61" transform="translate(905.513672 0)"/>
     <use xlink:href="#DejaVuSans-74" transform="translate(966.792969 0)"/>
     <use xlink:href="#DejaVuSans-6f" transform="translate(1006.001953 0)"/>
     <use xlink:href="#DejaVuSans-67" transform="translate(1067.183594 0)"/>
     <use xlink:href="#DejaVuSans-72" transform="translate(1130.660156 0)"/>
     <use xlink:href="#DejaVuSans-61" transform="translate(1171.773438 0)"/>
     <use xlink:href="#DejaVuSans-6d" transform="translate(1233.052734 0)"/>
     <use xlink:href="#DejaVuSans-73" transform="translate(1330.464844 0)"/>
     <use xlink:href="#DejaVuSans-20" transform="translate(1382.564453 0)"/>
     <use xlink:href="#DejaVuSans-6f" transform="translate(1414.351562 0)"/>
     <use xlink:href="#DejaVuSans-66" transform="translate(1475.533203 0)"/>
     <use xlink:href="#DejaVuSans-20" transform="translate(1510.738281 0)"/>
     <use xlink:href="#DejaVuSans-49" transform="translate(1542.525391 0)"/>
     <use xlink:href="#DejaVuSans-72" transform="translate(1572.017578 0)"/>
     <use xlink:href="#DejaVuSans-43" transform="translate(1613.130859 0)"/>
     <use xlink:href="#DejaVuSans-70" transform="translate(1682.955078 0)"/>
     <use xlink:href="#DejaVuSans-33" transform="translate(1746.431641 0)"/>
     <use xlink:href="#DejaVuSans-49" transform="translate(1810.054688 0)"/>
     <use xlink:href="#DejaVuSans-31" transform="translate(1839.546875 0)"/>
     <use xlink:href="#DejaVuSans-35" transform="translate(1903.169922 0)"/>
     <use xlink:href="#DejaVuSans-2c" transform="translate(1966.792969 0)"/>
     <use xlink:href="#DejaVuSans-20" transform="translate(1998.580078 0)"/>
     <use xlink:href="#DejaVuSans-74" transform="translate(2030.367188 0)"/>
     <use xlink:href="#DejaVuSans-61" transform="translate(2069.576172 0)"/>
     <use xlink:href="#DejaVuSans-72" transform="translate(2130.855469 0)"/>
     <use xlink:href="#DejaVuSans-67" transform="translate(2170.21875 0)"/>
     <use xlink:href="#DejaVuSans-65" transform="translate(2233.695312 0)"/>
     <use xlink:href="#DejaVuSans-74" transform="translate(2295.21875 0)"/>
     <use xlink:href="#DejaVuSans-20" transform="translate(2334.427734 0)"/>
     <use xlink:href="#DejaVuSans-6d" transform="translate(2366.214844 0)"/>
     <use xlink:href="#DejaVuSans-2f" transform="translate(2463.626953 0)"/>
     <use xlink:href="#DejaVuSans-7a" transform="translate(2497.318359 0)"/>
     <use xlink:href="#DejaVuSans-20" transform="translate(2549.808594 0)"/>
     <use xlink:href="#DejaVuSans-3d" transform="translate(2581.595703 0)"/>
     <use xlink:href="#DejaVuSans-20" transform="translate(2665.384766 0)"/>
     <use xlink:href="#DejaVuSans-37" transform="translate(2697.171875 0)"/>
     <use xlink:href="#DejaVuSans-34" transform="translate(2760.794922 0)"/>
     <use xlink:href="#DejaVuSans-39" transform="translate(2824.417969 0)"/>
     <use xlink:href="#DejaVuSans-2e" transform="translate(2888.041016 0)"/>
     <use xlink:href="#DejaVuSans-31" transform="translate(2919.828125 0)"/>
     <use xlink:href="#DejaVuSans-33" transform="translate(2983.451172 0)"/>
     <use xlink:href="#DejaVuSans-33" transform="translate(3047.074219 0)"/>
     <use xlink:href="#DejaVuSans-35" transform="translate(3110.697266 0)"/>
     <use xlink:href="#DejaVuSans-38" transform="translate(3174.320312 0)"/>
     <use xlink:href="#DejaVuSans-35" transform="translate(3237.943359 0)"/>
     <use xlink:href="#DejaVuSans-37" transform="translate(3301.566406 0)"/>
    </g>
   </g>
   <g id="legend_1">
    <g id="patch_8">
     <path d="M 685.971875 64.23625 
L 846.2 64.23625 
Q 848.2 64.23625 848.2 62.23625 
L 848.2 33.88 
Q 848.2 31.88 846.2 31.88 
L 685.971875 31.88 
Q 683.971875 31.88 683.971875 33.88 
L 683.971875 62.23625 
Q 683.971875 64.23625 685.971875 64.23625 
z
" style="fill: #ffffff; opacity: 0.8; stroke: #cccccc; stroke-linejoin: miter"/>
    </g>
    <g id="line2d_15">
     <path d="M 687.971875 39.978437 
L 697.971875 39.978437 
L 707.971875 39.978437 
" style="fill: none; stroke: #0000ff; stroke-width: 1.5; stroke-linecap: square"/>
    </g>
    <g id="text_17">
     <!-- UV Intensity (normalized) -->
     <g transform="translate(715.971875 43.478437) scale(0.1 -0.1)">
      <use xlink:href="#DejaVuSans-55"/>
      <use xlink:href="#DejaVuSans-56" transform="translate(73.193359 0)"/>
      <use xlink:href="#DejaVuSans-20" transform="translate(141.601562 0)"/>
      <use xlink:href="#DejaVuSans-49" transform="translate(173.388672 0)"/>
      <use xlink:href="#DejaVuSans-6e" transform="translate(202.880859 0)"/>
      <use xlink:href="#DejaVuSans-74" transform="translate(266.259766 0)"/>
      <use xlink:href="#DejaVuSans-65" transform="translate(305.46875 0)"/>
      <use xlink:href="#DejaVuSans-6e" transform="translate(366.992188 0)"/>
      <use xlink:href="#DejaVuSans-73" transform="translate(430.371094 0)"/>
      <use xlink:href="#DejaVuSans-69" transform="translate(482.470703 0)"/>
      <use xlink:href="#DejaVuSans-74" transform="translate(510.253906 0)"/>
      <use xlink:href="#DejaVuSans-79" transform="translate(549.462891 0)"/>
      <use xlink:href="#DejaVuSans-20" transform="translate(608.642578 0)"/>
      <use xlink:href="#DejaVuSans-28" transform="translate(640.429688 0)"/>
      <use xlink:href="#DejaVuSans-6e" transform="translate(679.443359 0)"/>
      <use xlink:href="#DejaVuSans-6f" transform="translate(742.822266 0)"/>
      <use xlink:href="#DejaVuSans-72" transform="translate(804.003906 0)"/>
      <use xlink:href="#DejaVuSans-6d" transform="translate(843.367188 0)"/>
      <use xlink:href="#DejaVuSans-61" transform="translate(940.779297 0)"/>
      <use xlink:href="#DejaVuSans-6c" transform="translate(1002.058594 0)"/>
      <use xlink:href="#DejaVuSans-69" transform="translate(1029.841797 0)"/>
      <use xlink:href="#DejaVuSans-7a" transform="translate(1057.625 0)"/>
      <use xlink:href="#DejaVuSans-65" transform="translate(1110.115234 0)"/>
      <use xlink:href="#DejaVuSans-64" transform="translate(1171.638672 0)"/>
      <use xlink:href="#DejaVuSans-29" transform="translate(1235.115234 0)"/>
     </g>
    </g>
    <g id="line2d_16">
     <path d="M 687.971875 54.656562 
L 697.971875 54.656562 
L 707.971875 54.656562 
" style="fill: none; stroke: #008000; stroke-width: 1.5; stroke-linecap: square"/>
    </g>
    <g id="text_18">
     <!-- MS Intensity (normalized) -->
     <g transform="translate(715.971875 58.156562) scale(0.1 -0.1)">
      <use xlink:href="#DejaVuSans-4d"/>
      <use xlink:href="#DejaVuSans-53" transform="translate(86.279297 0)"/>
      <use xlink:href="#DejaVuSans-20" transform="translate(149.755859 0)"/>
      <use xlink:href="#DejaVuSans-49" transform="translate(181.542969 0)"/>
      <use xlink:href="#DejaVuSans-6e" transform="translate(211.035156 0)"/>
      <use xlink:href="#DejaVuSans-74" transform="translate(274.414062 0)"/>
      <use xlink:href="#DejaVuSans-65" transform="translate(313.623047 0)"/>
      <use xlink:href="#DejaVuSans-6e" transform="translate(375.146484 0)"/>
      <use xlink:href="#DejaVuSans-73" transform="translate(438.525391 0)"/>
      <use xlink:href="#DejaVuSans-69" transform="translate(490.625 0)"/>
      <use xlink:href="#DejaVuSans-74" transform="translate(518.408203 0)"/>
      <use xlink:href="#DejaVuSans-79" transform="translate(557.617188 0)"/>
      <use xlink:href="#DejaVuSans-20" transform="translate(616.796875 0)"/>
      <use xlink:href="#DejaVuSans-28" transform="translate(648.583984 0)"/>
      <use xlink:href="#DejaVuSans-6e" transform="translate(687.597656 0)"/>
      <use xlink:href="#DejaVuSans-6f" transform="translate(750.976562 0)"/>
      <use xlink:href="#DejaVuSans-72" transform="translate(812.158203 0)"/>
      <use xlink:href="#DejaVuSans-6d" transform="translate(851.521484 0)"/>
      <use xlink:href="#DejaVuSans-61" transform="translate(948.933594 0)"/>
      <use xlink:href="#DejaVuSans-6c" transform="translate(1010.212891 0)"/>
      <use xlink:href="#DejaVuSans-69" transform="translate(1037.996094 0)"/>
      <use xlink:href="#DejaVuSans-7a" transform="translate(1065.779297 0)"/>
      <use xlink:href="#DejaVuSans-65" transform="translate(1118.269531 0)"/>
      <use xlink:href="#DejaVuSans-64" transform="translate(1179.792969 0)"/>
      <use xlink:href="#DejaVuSans-29" transform="translate(1243.269531 0)"/>
     </g>
    </g>
   </g>
  </g>
 </g>
 <defs>
  <clipPath id="pc91ec4267c">
   <rect x="47.72" y="26.88" width="805.48" height="507.16"/>
  </clipPath>
 </defs>
</svg>
