<?xml version="1.0" encoding="utf-8" standalone="no"?>
<!DOCTYPE svg PUBLIC "-//W3C//DTD SVG 1.1//EN"
  "http://www.w3.org/Graphics/SVG/1.1/DTD/svg11.dtd">
<svg xmlns:xlink="http://www.w3.org/1999/xlink" width="864pt" height="576pt" viewBox="0 0 864 576" xmlns="http://www.w3.org/2000/svg" version="1.1">
 <metadata>
  <rdf:RDF xmlns:dc="http://purl.org/dc/elements/1.1/" xmlns:cc="http://creativecommons.org/ns#" xmlns:rdf="http://www.w3.org/1999/02/22-rdf-syntax-ns#">
   <cc:Work>
    <dc:type rdf:resource="http://purl.org/dc/dcmitype/StillImage"/>
    <dc:date>2025-02-06T15:01:06.880866</dc:date>
    <dc:format>image/svg+xml</dc:format>
    <dc:creator>
     <cc:Agent>
      <dc:title>Matplotlib v3.10.0, https://matplotlib.org/</dc:title>
     </cc:Agent>
    </dc:creator>
   </cc:Work>
  </rdf:RDF>
 </metadata>
 <defs>
  <style type="text/css">*{stroke-linejoin: round; stroke-linecap: butt}</style>
 </defs>
 <g id="figure_1">
  <g id="patch_1">
   <path d="M 0 576 
L 864 576 
L 864 0 
L 0 0 
z
" style="fill: #ffffff"/>
  </g>
  <g id="axes_1">
   <g id="patch_2">
    <path d="M 47.72 534.04 
L 853.2 534.04 
L 853.2 26.88 
L 47.72 26.88 
z
" style="fill: #ffffff"/>
   </g>
   <g id="matplotlib.axis_1">
    <g id="xtick_1">
     <g id="line2d_1">
      <defs>
       <path id="m659bab6fb0" d="M 0 0 
L 0 3.5 
" style="stroke: #000000; stroke-width: 0.8"/>
      </defs>
      <g>
       <use xlink:href="#m659bab6fb0" x="83.098041" y="534.04" style="stroke: #000000; stroke-width: 0.8"/>
      </g>
     </g>
     <g id="text_1">
      <!-- 0 -->
      <g transform="translate(79.916791 548.638438) scale(0.1 -0.1)">
       <defs>
        <path id="DejaVuSans-30" d="M 2034 4250 
Q 1547 4250 1301 3770 
Q 1056 3291 1056 2328 
Q 1056 1369 1301 889 
Q 1547 409 2034 409 
Q 2525 409 2770 889 
Q 3016 1369 3016 2328 
Q 3016 3291 2770 3770 
Q 2525 4250 2034 4250 
z
M 2034 4750 
Q 2819 4750 3233 4129 
Q 3647 3509 3647 2328 
Q 3647 1150 3233 529 
Q 2819 -91 2034 -91 
Q 1250 -91 836 529 
Q 422 1150 422 2328 
Q 422 3509 836 4129 
Q 1250 4750 2034 4750 
z
" transform="scale(0.015625)"/>
       </defs>
       <use xlink:href="#DejaVuSans-30"/>
      </g>
     </g>
    </g>
    <g id="xtick_2">
     <g id="line2d_2">
      <g>
       <use xlink:href="#m659bab6fb0" x="229.793442" y="534.04" style="stroke: #000000; stroke-width: 0.8"/>
      </g>
     </g>
     <g id="text_2">
      <!-- 1 -->
      <g transform="translate(226.612192 548.638438) scale(0.1 -0.1)">
       <defs>
        <path id="DejaVuSans-31" d="M 794 531 
L 1825 531 
L 1825 4091 
L 703 3866 
L 703 4441 
L 1819 4666 
L 2450 4666 
L 2450 531 
L 3481 531 
L 3481 0 
L 794 0 
L 794 531 
z
" transform="scale(0.015625)"/>
       </defs>
       <use xlink:href="#DejaVuSans-31"/>
      </g>
     </g>
    </g>
    <g id="xtick_3">
     <g id="line2d_3">
      <g>
       <use xlink:href="#m659bab6fb0" x="376.488844" y="534.04" style="stroke: #000000; stroke-width: 0.8"/>
      </g>
     </g>
     <g id="text_3">
      <!-- 2 -->
      <g transform="translate(373.307594 548.638438) scale(0.1 -0.1)">
       <defs>
        <path id="DejaVuSans-32" d="M 1228 531 
L 3431 531 
L 3431 0 
L 469 0 
L 469 531 
Q 828 903 1448 1529 
Q 2069 2156 2228 2338 
Q 2531 2678 2651 2914 
Q 2772 3150 2772 3378 
Q 2772 3750 2511 3984 
Q 2250 4219 1831 4219 
Q 1534 4219 1204 4116 
Q 875 4013 500 3803 
L 500 4441 
Q 881 4594 1212 4672 
Q 1544 4750 1819 4750 
Q 2544 4750 2975 4387 
Q 3406 4025 3406 3419 
Q 3406 3131 3298 2873 
Q 3191 2616 2906 2266 
Q 2828 2175 2409 1742 
Q 1991 1309 1228 531 
z
" transform="scale(0.015625)"/>
       </defs>
       <use xlink:href="#DejaVuSans-32"/>
      </g>
     </g>
    </g>
    <g id="xtick_4">
     <g id="line2d_4">
      <g>
       <use xlink:href="#m659bab6fb0" x="523.184245" y="534.04" style="stroke: #000000; stroke-width: 0.8"/>
      </g>
     </g>
     <g id="text_4">
      <!-- 3 -->
      <g transform="translate(520.002995 548.638438) scale(0.1 -0.1)">
       <defs>
        <path id="DejaVuSans-33" d="M 2597 2516 
Q 3050 2419 3304 2112 
Q 3559 1806 3559 1356 
Q 3559 666 3084 287 
Q 2609 -91 1734 -91 
Q 1441 -91 1130 -33 
Q 819 25 488 141 
L 488 750 
Q 750 597 1062 519 
Q 1375 441 1716 441 
Q 2309 441 2620 675 
Q 2931 909 2931 1356 
Q 2931 1769 2642 2001 
Q 2353 2234 1838 2234 
L 1294 2234 
L 1294 2753 
L 1863 2753 
Q 2328 2753 2575 2939 
Q 2822 3125 2822 3475 
Q 2822 3834 2567 4026 
Q 2313 4219 1838 4219 
Q 1578 4219 1281 4162 
Q 984 4106 628 3988 
L 628 4550 
Q 988 4650 1302 4700 
Q 1616 4750 1894 4750 
Q 2613 4750 3031 4423 
Q 3450 4097 3450 3541 
Q 3450 3153 3228 2886 
Q 3006 2619 2597 2516 
z
" transform="scale(0.015625)"/>
       </defs>
       <use xlink:href="#DejaVuSans-33"/>
      </g>
     </g>
    </g>
    <g id="xtick_5">
     <g id="line2d_5">
      <g>
       <use xlink:href="#m659bab6fb0" x="669.879647" y="534.04" style="stroke: #000000; stroke-width: 0.8"/>
      </g>
     </g>
     <g id="text_5">
      <!-- 4 -->
      <g transform="translate(666.698397 548.638438) scale(0.1 -0.1)">
       <defs>
        <path id="DejaVuSans-34" d="M 2419 4116 
L 825 1625 
L 2419 1625 
L 2419 4116 
z
M 2253 4666 
L 3047 4666 
L 3047 1625 
L 3713 1625 
L 3713 1100 
L 3047 1100 
L 3047 0 
L 2419 0 
L 2419 1100 
L 313 1100 
L 313 1709 
L 2253 4666 
z
" transform="scale(0.015625)"/>
       </defs>
       <use xlink:href="#DejaVuSans-34"/>
      </g>
     </g>
    </g>
    <g id="xtick_6">
     <g id="line2d_6">
      <g>
       <use xlink:href="#m659bab6fb0" x="816.575048" y="534.04" style="stroke: #000000; stroke-width: 0.8"/>
      </g>
     </g>
     <g id="text_6">
      <!-- 5 -->
      <g transform="translate(813.393798 548.638438) scale(0.1 -0.1)">
       <defs>
        <path id="DejaVuSans-35" d="M 691 4666 
L 3169 4666 
L 3169 4134 
L 1269 4134 
L 1269 2991 
Q 1406 3038 1543 3061 
Q 1681 3084 1819 3084 
Q 2600 3084 3056 2656 
Q 3513 2228 3513 1497 
Q 3513 744 3044 326 
Q 2575 -91 1722 -91 
Q 1428 -91 1123 -41 
Q 819 9 494 109 
L 494 744 
Q 775 591 1075 516 
Q 1375 441 1709 441 
Q 2250 441 2565 725 
Q 2881 1009 2881 1497 
Q 2881 1984 2565 2268 
Q 2250 2553 1709 2553 
Q 1456 2553 1204 2497 
Q 953 2441 691 2322 
L 691 4666 
z
" transform="scale(0.015625)"/>
       </defs>
       <use xlink:href="#DejaVuSans-35"/>
      </g>
     </g>
    </g>
    <g id="text_7">
     <!-- Retention Time (min) -->
     <g transform="translate(397.61 562.316562) scale(0.1 -0.1)">
      <defs>
       <path id="DejaVuSans-52" d="M 2841 2188 
Q 3044 2119 3236 1894 
Q 3428 1669 3622 1275 
L 4263 0 
L 3584 0 
L 2988 1197 
Q 2756 1666 2539 1819 
Q 2322 1972 1947 1972 
L 1259 1972 
L 1259 0 
L 628 0 
L 628 4666 
L 2053 4666 
Q 2853 4666 3247 4331 
Q 3641 3997 3641 3322 
Q 3641 2881 3436 2590 
Q 3231 2300 2841 2188 
z
M 1259 4147 
L 1259 2491 
L 2053 2491 
Q 2509 2491 2742 2702 
Q 2975 2913 2975 3322 
Q 2975 3731 2742 3939 
Q 2509 4147 2053 4147 
L 1259 4147 
z
" transform="scale(0.015625)"/>
       <path id="DejaVuSans-65" d="M 3597 1894 
L 3597 1613 
L 953 1613 
Q 991 1019 1311 708 
Q 1631 397 2203 397 
Q 2534 397 2845 478 
Q 3156 559 3463 722 
L 3463 178 
Q 3153 47 2828 -22 
Q 2503 -91 2169 -91 
Q 1331 -91 842 396 
Q 353 884 353 1716 
Q 353 2575 817 3079 
Q 1281 3584 2069 3584 
Q 2775 3584 3186 3129 
Q 3597 2675 3597 1894 
z
M 3022 2063 
Q 3016 2534 2758 2815 
Q 2500 3097 2075 3097 
Q 1594 3097 1305 2825 
Q 1016 2553 972 2059 
L 3022 2063 
z
" transform="scale(0.015625)"/>
       <path id="DejaVuSans-74" d="M 1172 4494 
L 1172 3500 
L 2356 3500 
L 2356 3053 
L 1172 3053 
L 1172 1153 
Q 1172 725 1289 603 
Q 1406 481 1766 481 
L 2356 481 
L 2356 0 
L 1766 0 
Q 1100 0 847 248 
Q 594 497 594 1153 
L 594 3053 
L 172 3053 
L 172 3500 
L 594 3500 
L 594 4494 
L 1172 4494 
z
" transform="scale(0.015625)"/>
       <path id="DejaVuSans-6e" d="M 3513 2113 
L 3513 0 
L 2938 0 
L 2938 2094 
Q 2938 2591 2744 2837 
Q 2550 3084 2163 3084 
Q 1697 3084 1428 2787 
Q 1159 2491 1159 1978 
L 1159 0 
L 581 0 
L 581 3500 
L 1159 3500 
L 1159 2956 
Q 1366 3272 1645 3428 
Q 1925 3584 2291 3584 
Q 2894 3584 3203 3211 
Q 3513 2838 3513 2113 
z
" transform="scale(0.015625)"/>
       <path id="DejaVuSans-69" d="M 603 3500 
L 1178 3500 
L 1178 0 
L 603 0 
L 603 3500 
z
M 603 4863 
L 1178 4863 
L 1178 4134 
L 603 4134 
L 603 4863 
z
" transform="scale(0.015625)"/>
       <path id="DejaVuSans-6f" d="M 1959 3097 
Q 1497 3097 1228 2736 
Q 959 2375 959 1747 
Q 959 1119 1226 758 
Q 1494 397 1959 397 
Q 2419 397 2687 759 
Q 2956 1122 2956 1747 
Q 2956 2369 2687 2733 
Q 2419 3097 1959 3097 
z
M 1959 3584 
Q 2709 3584 3137 3096 
Q 3566 2609 3566 1747 
Q 3566 888 3137 398 
Q 2709 -91 1959 -91 
Q 1206 -91 779 398 
Q 353 888 353 1747 
Q 353 2609 779 3096 
Q 1206 3584 1959 3584 
z
" transform="scale(0.015625)"/>
       <path id="DejaVuSans-20" transform="scale(0.015625)"/>
       <path id="DejaVuSans-54" d="M -19 4666 
L 3928 4666 
L 3928 4134 
L 2272 4134 
L 2272 0 
L 1638 0 
L 1638 4134 
L -19 4134 
L -19 4666 
z
" transform="scale(0.015625)"/>
       <path id="DejaVuSans-6d" d="M 3328 2828 
Q 3544 3216 3844 3400 
Q 4144 3584 4550 3584 
Q 5097 3584 5394 3201 
Q 5691 2819 5691 2113 
L 5691 0 
L 5113 0 
L 5113 2094 
Q 5113 2597 4934 2840 
Q 4756 3084 4391 3084 
Q 3944 3084 3684 2787 
Q 3425 2491 3425 1978 
L 3425 0 
L 2847 0 
L 2847 2094 
Q 2847 2600 2669 2842 
Q 2491 3084 2119 3084 
Q 1678 3084 1418 2786 
Q 1159 2488 1159 1978 
L 1159 0 
L 581 0 
L 581 3500 
L 1159 3500 
L 1159 2956 
Q 1356 3278 1631 3431 
Q 1906 3584 2284 3584 
Q 2666 3584 2933 3390 
Q 3200 3197 3328 2828 
z
" transform="scale(0.015625)"/>
       <path id="DejaVuSans-28" d="M 1984 4856 
Q 1566 4138 1362 3434 
Q 1159 2731 1159 2009 
Q 1159 1288 1364 580 
Q 1569 -128 1984 -844 
L 1484 -844 
Q 1016 -109 783 600 
Q 550 1309 550 2009 
Q 550 2706 781 3412 
Q 1013 4119 1484 4856 
L 1984 4856 
z
" transform="scale(0.015625)"/>
       <path id="DejaVuSans-29" d="M 513 4856 
L 1013 4856 
Q 1481 4119 1714 3412 
Q 1947 2706 1947 2009 
Q 1947 1309 1714 600 
Q 1481 -109 1013 -844 
L 513 -844 
Q 928 -128 1133 580 
Q 1338 1288 1338 2009 
Q 1338 2731 1133 3434 
Q 928 4138 513 4856 
z
" transform="scale(0.015625)"/>
      </defs>
      <use xlink:href="#DejaVuSans-52"/>
      <use xlink:href="#DejaVuSans-65" transform="translate(64.982422 0)"/>
      <use xlink:href="#DejaVuSans-74" transform="translate(126.505859 0)"/>
      <use xlink:href="#DejaVuSans-65" transform="translate(165.714844 0)"/>
      <use xlink:href="#DejaVuSans-6e" transform="translate(227.238281 0)"/>
      <use xlink:href="#DejaVuSans-74" transform="translate(290.617188 0)"/>
      <use xlink:href="#DejaVuSans-69" transform="translate(329.826172 0)"/>
      <use xlink:href="#DejaVuSans-6f" transform="translate(357.609375 0)"/>
      <use xlink:href="#DejaVuSans-6e" transform="translate(418.791016 0)"/>
      <use xlink:href="#DejaVuSans-20" transform="translate(482.169922 0)"/>
      <use xlink:href="#DejaVuSans-54" transform="translate(513.957031 0)"/>
      <use xlink:href="#DejaVuSans-69" transform="translate(571.916016 0)"/>
      <use xlink:href="#DejaVuSans-6d" transform="translate(599.699219 0)"/>
      <use xlink:href="#DejaVuSans-65" transform="translate(697.111328 0)"/>
      <use xlink:href="#DejaVuSans-20" transform="translate(758.634766 0)"/>
      <use xlink:href="#DejaVuSans-28" transform="translate(790.421875 0)"/>
      <use xlink:href="#DejaVuSans-6d" transform="translate(829.435547 0)"/>
      <use xlink:href="#DejaVuSans-69" transform="translate(926.847656 0)"/>
      <use xlink:href="#DejaVuSans-6e" transform="translate(954.630859 0)"/>
      <use xlink:href="#DejaVuSans-29" transform="translate(1018.009766 0)"/>
     </g>
    </g>
   </g>
   <g id="matplotlib.axis_2">
    <g id="ytick_1">
     <g id="line2d_7">
      <defs>
       <path id="m95d673074e" d="M 0 0 
L -3.5 0 
" style="stroke: #000000; stroke-width: 0.8"/>
      </defs>
      <g>
       <use xlink:href="#m95d673074e" x="47.72" y="510.987273" style="stroke: #000000; stroke-width: 0.8"/>
      </g>
     </g>
     <g id="text_8">
      <!-- 0.0 -->
      <g style="fill: #0000ff" transform="translate(24.816875 514.786491) scale(0.1 -0.1)">
       <defs>
        <path id="DejaVuSans-2e" d="M 684 794 
L 1344 794 
L 1344 0 
L 684 0 
L 684 794 
z
" transform="scale(0.015625)"/>
       </defs>
       <use xlink:href="#DejaVuSans-30"/>
       <use xlink:href="#DejaVuSans-2e" transform="translate(63.623047 0)"/>
       <use xlink:href="#DejaVuSans-30" transform="translate(95.410156 0)"/>
      </g>
     </g>
    </g>
    <g id="ytick_2">
     <g id="line2d_8">
      <g>
       <use xlink:href="#m95d673074e" x="47.72" y="418.776364" style="stroke: #000000; stroke-width: 0.8"/>
      </g>
     </g>
     <g id="text_9">
      <!-- 0.5 -->
      <g style="fill: #0000ff" transform="translate(24.816875 422.575582) scale(0.1 -0.1)">
       <use xlink:href="#DejaVuSans-30"/>
       <use xlink:href="#DejaVuSans-2e" transform="translate(63.623047 0)"/>
       <use xlink:href="#DejaVuSans-35" transform="translate(95.410156 0)"/>
      </g>
     </g>
    </g>
    <g id="ytick_3">
     <g id="line2d_9">
      <g>
       <use xlink:href="#m95d673074e" x="47.72" y="326.565455" style="stroke: #000000; stroke-width: 0.8"/>
      </g>
     </g>
     <g id="text_10">
      <!-- 1.0 -->
      <g style="fill: #0000ff" transform="translate(24.816875 330.364673) scale(0.1 -0.1)">
       <use xlink:href="#DejaVuSans-31"/>
       <use xlink:href="#DejaVuSans-2e" transform="translate(63.623047 0)"/>
       <use xlink:href="#DejaVuSans-30" transform="translate(95.410156 0)"/>
      </g>
     </g>
    </g>
    <g id="ytick_4">
     <g id="line2d_10">
      <g>
       <use xlink:href="#m95d673074e" x="47.72" y="234.354545" style="stroke: #000000; stroke-width: 0.8"/>
      </g>
     </g>
     <g id="text_11">
      <!-- 1.5 -->
      <g style="fill: #0000ff" transform="translate(24.816875 238.153764) scale(0.1 -0.1)">
       <use xlink:href="#DejaVuSans-31"/>
       <use xlink:href="#DejaVuSans-2e" transform="translate(63.623047 0)"/>
       <use xlink:href="#DejaVuSans-35" transform="translate(95.410156 0)"/>
      </g>
     </g>
    </g>
    <g id="ytick_5">
     <g id="line2d_11">
      <g>
       <use xlink:href="#m95d673074e" x="47.72" y="142.143636" style="stroke: #000000; stroke-width: 0.8"/>
      </g>
     </g>
     <g id="text_12">
      <!-- 2.0 -->
      <g style="fill: #0000ff" transform="translate(24.816875 145.942855) scale(0.1 -0.1)">
       <use xlink:href="#DejaVuSans-32"/>
       <use xlink:href="#DejaVuSans-2e" transform="translate(63.623047 0)"/>
       <use xlink:href="#DejaVuSans-30" transform="translate(95.410156 0)"/>
      </g>
     </g>
    </g>
    <g id="ytick_6">
     <g id="line2d_12">
      <g>
       <use xlink:href="#m95d673074e" x="47.72" y="49.932727" style="stroke: #000000; stroke-width: 0.8"/>
      </g>
     </g>
     <g id="text_13">
      <!-- 2.5 -->
      <g style="fill: #0000ff" transform="translate(24.816875 53.731946) scale(0.1 -0.1)">
       <use xlink:href="#DejaVuSans-32"/>
       <use xlink:href="#DejaVuSans-2e" transform="translate(63.623047 0)"/>
       <use xlink:href="#DejaVuSans-35" transform="translate(95.410156 0)"/>
      </g>
     </g>
    </g>
    <g id="text_14">
     <!-- Normalized Intensity -->
     <g style="fill: #0000ff" transform="translate(18.737187 332.167031) rotate(-90) scale(0.1 -0.1)">
      <defs>
       <path id="DejaVuSans-4e" d="M 628 4666 
L 1478 4666 
L 3547 763 
L 3547 4666 
L 4159 4666 
L 4159 0 
L 3309 0 
L 1241 3903 
L 1241 0 
L 628 0 
L 628 4666 
z
" transform="scale(0.015625)"/>
       <path id="DejaVuSans-72" d="M 2631 2963 
Q 2534 3019 2420 3045 
Q 2306 3072 2169 3072 
Q 1681 3072 1420 2755 
Q 1159 2438 1159 1844 
L 1159 0 
L 581 0 
L 581 3500 
L 1159 3500 
L 1159 2956 
Q 1341 3275 1631 3429 
Q 1922 3584 2338 3584 
Q 2397 3584 2469 3576 
Q 2541 3569 2628 3553 
L 2631 2963 
z
" transform="scale(0.015625)"/>
       <path id="DejaVuSans-61" d="M 2194 1759 
Q 1497 1759 1228 1600 
Q 959 1441 959 1056 
Q 959 750 1161 570 
Q 1363 391 1709 391 
Q 2188 391 2477 730 
Q 2766 1069 2766 1631 
L 2766 1759 
L 2194 1759 
z
M 3341 1997 
L 3341 0 
L 2766 0 
L 2766 531 
Q 2569 213 2275 61 
Q 1981 -91 1556 -91 
Q 1019 -91 701 211 
Q 384 513 384 1019 
Q 384 1609 779 1909 
Q 1175 2209 1959 2209 
L 2766 2209 
L 2766 2266 
Q 2766 2663 2505 2880 
Q 2244 3097 1772 3097 
Q 1472 3097 1187 3025 
Q 903 2953 641 2809 
L 641 3341 
Q 956 3463 1253 3523 
Q 1550 3584 1831 3584 
Q 2591 3584 2966 3190 
Q 3341 2797 3341 1997 
z
" transform="scale(0.015625)"/>
       <path id="DejaVuSans-6c" d="M 603 4863 
L 1178 4863 
L 1178 0 
L 603 0 
L 603 4863 
z
" transform="scale(0.015625)"/>
       <path id="DejaVuSans-7a" d="M 353 3500 
L 3084 3500 
L 3084 2975 
L 922 459 
L 3084 459 
L 3084 0 
L 275 0 
L 275 525 
L 2438 3041 
L 353 3041 
L 353 3500 
z
" transform="scale(0.015625)"/>
       <path id="DejaVuSans-64" d="M 2906 2969 
L 2906 4863 
L 3481 4863 
L 3481 0 
L 2906 0 
L 2906 525 
Q 2725 213 2448 61 
Q 2172 -91 1784 -91 
Q 1150 -91 751 415 
Q 353 922 353 1747 
Q 353 2572 751 3078 
Q 1150 3584 1784 3584 
Q 2172 3584 2448 3432 
Q 2725 3281 2906 2969 
z
M 947 1747 
Q 947 1113 1208 752 
Q 1469 391 1925 391 
Q 2381 391 2643 752 
Q 2906 1113 2906 1747 
Q 2906 2381 2643 2742 
Q 2381 3103 1925 3103 
Q 1469 3103 1208 2742 
Q 947 2381 947 1747 
z
" transform="scale(0.015625)"/>
       <path id="DejaVuSans-49" d="M 628 4666 
L 1259 4666 
L 1259 0 
L 628 0 
L 628 4666 
z
" transform="scale(0.015625)"/>
       <path id="DejaVuSans-73" d="M 2834 3397 
L 2834 2853 
Q 2591 2978 2328 3040 
Q 2066 3103 1784 3103 
Q 1356 3103 1142 2972 
Q 928 2841 928 2578 
Q 928 2378 1081 2264 
Q 1234 2150 1697 2047 
L 1894 2003 
Q 2506 1872 2764 1633 
Q 3022 1394 3022 966 
Q 3022 478 2636 193 
Q 2250 -91 1575 -91 
Q 1294 -91 989 -36 
Q 684 19 347 128 
L 347 722 
Q 666 556 975 473 
Q 1284 391 1588 391 
Q 1994 391 2212 530 
Q 2431 669 2431 922 
Q 2431 1156 2273 1281 
Q 2116 1406 1581 1522 
L 1381 1569 
Q 847 1681 609 1914 
Q 372 2147 372 2553 
Q 372 3047 722 3315 
Q 1072 3584 1716 3584 
Q 2034 3584 2315 3537 
Q 2597 3491 2834 3397 
z
" transform="scale(0.015625)"/>
       <path id="DejaVuSans-79" d="M 2059 -325 
Q 1816 -950 1584 -1140 
Q 1353 -1331 966 -1331 
L 506 -1331 
L 506 -850 
L 844 -850 
Q 1081 -850 1212 -737 
Q 1344 -625 1503 -206 
L 1606 56 
L 191 3500 
L 800 3500 
L 1894 763 
L 2988 3500 
L 3597 3500 
L 2059 -325 
z
" transform="scale(0.015625)"/>
      </defs>
      <use xlink:href="#DejaVuSans-4e"/>
      <use xlink:href="#DejaVuSans-6f" transform="translate(74.804688 0)"/>
      <use xlink:href="#DejaVuSans-72" transform="translate(135.986328 0)"/>
      <use xlink:href="#DejaVuSans-6d" transform="translate(175.349609 0)"/>
      <use xlink:href="#DejaVuSans-61" transform="translate(272.761719 0)"/>
      <use xlink:href="#DejaVuSans-6c" transform="translate(334.041016 0)"/>
      <use xlink:href="#DejaVuSans-69" transform="translate(361.824219 0)"/>
      <use xlink:href="#DejaVuSans-7a" transform="translate(389.607422 0)"/>
      <use xlink:href="#DejaVuSans-65" transform="translate(442.097656 0)"/>
      <use xlink:href="#DejaVuSans-64" transform="translate(503.621094 0)"/>
      <use xlink:href="#DejaVuSans-20" transform="translate(567.097656 0)"/>
      <use xlink:href="#DejaVuSans-49" transform="translate(598.884766 0)"/>
      <use xlink:href="#DejaVuSans-6e" transform="translate(628.376953 0)"/>
      <use xlink:href="#DejaVuSans-74" transform="translate(691.755859 0)"/>
      <use xlink:href="#DejaVuSans-65" transform="translate(730.964844 0)"/>
      <use xlink:href="#DejaVuSans-6e" transform="translate(792.488281 0)"/>
      <use xlink:href="#DejaVuSans-73" transform="translate(855.867188 0)"/>
      <use xlink:href="#DejaVuSans-69" transform="translate(907.966797 0)"/>
      <use xlink:href="#DejaVuSans-74" transform="translate(935.75 0)"/>
      <use xlink:href="#DejaVuSans-79" transform="translate(974.958984 0)"/>
     </g>
    </g>
   </g>
   <g id="line2d_13">
    <path d="M 84.332727 510.987273 
L 94.112421 510.900891 
L 103.892114 510.582945 
L 112.449346 510.584427 
L 127.118886 510.718661 
L 141.788426 510.621086 
L 162.570275 510.340096 
L 163.792736 510.230076 
L 165.015198 509.985046 
L 167.460121 509.088387 
L 169.905045 508.153098 
L 171.127506 507.85406 
L 172.349968 507.688305 
L 174.794891 507.672351 
L 177.239815 508.02146 
L 179.684738 508.75116 
L 182.129662 509.523779 
L 183.352123 509.723526 
L 190.686893 509.972882 
L 195.57674 509.4865 
L 198.021663 509.694095 
L 201.689048 510.004038 
L 205.356433 509.979069 
L 213.913665 509.889666 
L 226.138282 510.064392 
L 231.028129 510.182661 
L 233.473052 510.006694 
L 237.140437 509.458399 
L 239.58536 509.470198 
L 245.697669 510.085092 
L 250.587516 510.204977 
L 265.257056 510.199469 
L 284.816443 509.947124 
L 289.706289 509.833007 
L 300.708444 509.887916 
L 306.820753 509.756591 
L 314.155523 509.788923 
L 321.490293 509.627168 
L 327.602601 509.795233 
L 334.937371 509.713759 
L 341.04968 509.387095 
L 345.939526 509.511924 
L 350.829373 509.489631 
L 355.71922 509.547153 
L 360.609067 509.302466 
L 363.05399 508.965846 
L 365.498913 508.488477 
L 366.721375 508.367682 
L 369.166298 508.45335 
L 372.833683 508.86419 
L 374.056145 508.895899 
L 376.501068 508.601689 
L 378.945992 508.21064 
L 381.390915 508.174758 
L 394.837994 508.728659 
L 397.282917 508.594769 
L 399.72784 508.172832 
L 400.950302 507.744537 
L 402.172764 506.896578 
L 403.395225 505.417802 
L 404.617687 503.509695 
L 405.840149 501.832646 
L 407.06261 501.044699 
L 408.285072 501.349089 
L 409.507534 502.466106 
L 411.952457 505.154749 
L 413.174919 505.947892 
L 414.39738 506.199715 
L 415.619842 506.05623 
L 418.064766 505.605962 
L 419.287227 505.645399 
L 421.732151 506.178754 
L 424.177074 506.695091 
L 431.511844 507.826009 
L 433.956767 507.873228 
L 437.624152 507.555141 
L 440.069076 507.323785 
L 441.291537 507.068125 
L 442.513999 506.563108 
L 443.736461 505.710283 
L 444.958922 504.412971 
L 447.403846 500.999386 
L 448.626307 499.919648 
L 449.848769 499.866371 
L 451.071231 500.719648 
L 453.516154 503.298771 
L 454.738616 504.290828 
L 455.961078 504.922986 
L 457.183539 505.247447 
L 459.628463 505.409231 
L 462.073386 505.600549 
L 465.740771 506.114215 
L 468.185694 506.173352 
L 470.630618 505.987868 
L 477.965388 505.165405 
L 481.632773 505.070778 
L 482.855234 504.77793 
L 485.300158 503.646641 
L 486.52262 503.072647 
L 488.967543 502.209108 
L 490.190005 501.321141 
L 491.412466 499.381171 
L 493.85739 493.274743 
L 495.079851 491.486951 
L 496.302313 491.710016 
L 497.524775 493.548131 
L 498.747236 495.946629 
L 499.969698 497.820514 
L 501.19216 498.439134 
L 502.414621 497.674439 
L 504.859545 494.722202 
L 506.082006 494.244399 
L 507.304468 494.830451 
L 508.52693 496.185305 
L 510.971853 499.438362 
L 512.194315 500.66231 
L 513.416776 501.468757 
L 514.639238 501.961481 
L 517.084161 502.499585 
L 518.306623 502.533856 
L 519.529085 502.19732 
L 520.751547 501.33413 
L 523.19647 498.694008 
L 524.418932 497.727434 
L 525.641393 497.374371 
L 526.863855 497.62485 
L 528.086317 498.313661 
L 530.53124 500.088763 
L 531.753702 500.698519 
L 532.976163 500.823007 
L 534.198625 500.351394 
L 536.643548 498.603186 
L 537.86601 498.349967 
L 539.088472 498.910456 
L 540.310933 500.082642 
L 542.755857 502.67866 
L 543.978318 503.594099 
L 545.20078 504.197123 
L 546.423242 504.547345 
L 547.645703 504.674429 
L 548.868165 504.455695 
L 550.090627 503.560487 
L 551.313088 501.737478 
L 552.53555 499.216472 
L 553.758012 495.83959 
L 554.980474 488.305677 
L 556.202935 469.443302 
L 557.425397 434.29183 
L 558.647859 388.358678 
L 559.87032 347.269897 
L 561.092782 326.565455 
L 562.315244 331.746373 
L 563.537705 356.797382 
L 565.982629 421.450935 
L 567.20509 445.6021 
L 568.427552 461.908855 
L 569.650014 472.238657 
L 570.872475 478.997971 
L 572.094937 484.010743 
L 573.317399 488.212182 
L 574.53986 491.861795 
L 575.762322 494.927039 
L 576.984784 497.372027 
L 578.207245 499.252018 
L 579.429707 500.659217 
L 580.652169 501.641413 
L 581.87463 502.215343 
L 583.097092 502.467992 
L 585.542015 502.749446 
L 587.986939 503.421356 
L 591.654324 504.744218 
L 594.099247 505.352357 
L 601.434017 506.65593 
L 603.878941 506.867126 
L 606.323864 506.868155 
L 608.768787 506.587761 
L 611.213711 506.272198 
L 612.436172 506.279454 
L 614.881096 506.643134 
L 618.548481 507.260654 
L 622.215866 507.556835 
L 631.995559 507.942566 
L 638.107868 507.985208 
L 644.220176 508.319435 
L 662.557101 508.639269 
L 671.114333 508.83387 
L 678.449103 509.037769 
L 691.896182 509.250869 
L 698.00849 509.222796 
L 706.565722 509.465547 
L 717.567877 509.621786 
L 729.792494 509.760092 
L 792.138039 510.223325 
L 816.587273 510.334733 
L 816.587273 510.334733 
" clip-path="url(#p1ea91259e0)" style="fill: none; stroke: #0000ff; stroke-width: 1.5; stroke-linecap: square"/>
   </g>
   <g id="line2d_14">
    <path d="M 91.058711 234.349427 
L 139.829554 234.351865 
L 389.583853 234.260159 
L 392.329502 234.288617 
L 392.329502 234.290723 
L 394.388861 234.300118 
L 394.388861 234.280394 
L 397.135733 234.2661 
L 399.197536 234.297872 
L 399.197536 234.289196 
L 401.94343 234.299329 
L 401.94343 234.288255 
L 404.689568 234.250323 
L 404.689568 234.169919 
L 405.373902 234.051395 
L 405.373902 233.830875 
L 405.715458 233.850254 
L 405.715458 233.610538 
L 406.056524 233.650049 
L 406.056524 233.363608 
L 406.393924 233.490946 
L 406.393924 233.187386 
L 406.728145 233.370798 
L 406.728145 233.00644 
L 407.060165 233.255106 
L 407.060165 232.89835 
L 407.391208 233.18698 
L 407.391208 232.863388 
L 407.726896 233.231681 
L 407.726896 232.795858 
L 408.05965 233.140139 
L 408.05965 232.77499 
L 408.388737 233.085313 
L 408.388737 232.683688 
L 408.718313 233.116736 
L 408.718313 232.737778 
L 409.047644 233.064954 
L 409.047644 232.64115 
L 409.377953 232.976401 
L 409.377953 232.579145 
L 409.70704 232.941857 
L 409.70704 232.504043 
L 410.036371 232.968835 
L 410.036371 232.590637 
L 410.365702 232.972992 
L 410.365702 232.65149 
L 410.695522 233.090763 
L 410.695522 232.686758 
L 411.025098 233.112303 
L 411.025098 232.786504 
L 411.354673 233.157732 
L 411.354673 232.865528 
L 411.684983 233.250556 
L 411.684983 232.90146 
L 412.015292 233.206283 
L 412.015292 232.867717 
L 412.346334 233.201448 
L 412.346334 232.884383 
L 412.682511 233.174878 
L 412.682511 232.925707 
L 413.014043 233.28188 
L 413.014043 232.958866 
L 413.345085 233.287805 
L 413.345085 233.029872 
L 413.678573 233.31892 
L 413.678573 233.036434 
L 414.012061 233.377445 
L 414.012061 233.065984 
L 414.344326 233.405354 
L 414.344326 233.144595 
L 414.677569 233.425547 
L 414.677569 233.121858 
L 415.010812 233.446875 
L 415.010812 233.199224 
L 415.34381 233.489796 
L 415.34381 233.214855 
L 415.677542 233.511124 
L 415.677542 233.244056 
L 416.011519 233.497528 
L 416.011519 233.229219 
L 416.348185 233.522631 
L 416.348185 233.30411 
L 416.684606 233.576042 
L 416.684606 233.352528 
L 417.020783 233.596094 
L 417.020783 233.415469 
L 417.357449 233.634174 
L 417.357449 233.442543 
L 417.703161 233.666548 
L 417.703161 233.521209 
L 418.040561 233.684903 
L 418.040561 233.472307 
L 418.377471 233.667508 
L 418.377471 233.457572 
L 418.717316 233.62461 
L 418.717316 233.450534 
L 419.060338 233.66984 
L 419.060338 233.450731 
L 419.399938 233.67618 
L 419.399938 233.471824 
L 419.741249 233.655075 
L 419.741249 233.45706 
L 420.081338 233.681939 
L 420.081338 233.483616 
L 420.421916 233.685466 
L 420.421916 233.541112 
L 420.762738 233.742882 
L 420.762738 233.551305 
L 421.103805 233.735801 
L 421.103805 233.592283 
L 421.445117 233.751541 
L 421.445117 233.600678 
L 421.786183 233.786429 
L 421.786183 233.642137 
L 422.127495 233.790139 
L 422.127495 233.620329 
L 422.468806 233.785756 
L 422.468806 233.628184 
L 422.815007 233.794068 
L 422.815007 233.644835 
L 423.156318 233.833918 
L 423.156318 233.699678 
L 423.49763 233.864815 
L 423.49763 233.728043 
L 423.838941 233.878553 
L 423.838941 233.716207 
L 424.521808 233.884076 
L 424.521808 233.781278 
L 424.863119 233.930938 
L 424.863119 233.802835 
L 425.204675 233.911145 
L 425.204675 233.792075 
L 425.546231 233.904656 
L 425.546231 233.74688 
L 425.887542 233.877879 
L 425.887542 233.758504 
L 426.570898 233.94248 
L 426.570898 233.849975 
L 426.912454 233.989874 
L 426.912454 233.861847 
L 427.25401 233.968001 
L 427.25401 233.86299 
L 427.9425 233.988129 
L 427.9425 233.912052 
L 428.284545 234.024755 
L 428.284545 233.926172 
L 428.967901 234.012953 
L 428.967901 233.932718 
L 429.651746 234.036453 
L 429.651746 233.972383 
L 430.677392 234.124112 
L 430.677392 234.060024 
L 431.024815 234.102749 
L 431.024815 234.02385 
L 433.082218 234.086891 
L 433.082218 234.093936 
L 433.767041 234.143563 
L 433.767041 234.077718 
L 434.79342 234.141599 
L 434.79342 234.093292 
L 435.478243 234.157177 
L 435.478243 234.108273 
L 436.505111 234.185741 
L 436.505111 234.14618 
L 437.874024 234.196987 
L 437.874024 234.146552 
L 439.591093 234.202637 
L 439.591093 234.168169 
L 441.646296 234.205987 
L 441.646296 234.173929 
L 442.673408 234.209339 
L 442.673408 234.166762 
L 443.7103 234.207972 
L 443.7103 234.172073 
L 445.07799 234.23774 
L 445.07799 234.213094 
L 447.128303 234.201397 
L 448.494282 234.221894 
L 448.494282 234.17953 
L 449.495967 234.225792 
L 462.486822 234.210054 
L 463.512712 234.209747 
L 466.931204 234.24814 
L 466.931204 234.2581 
L 469.326985 234.226569 
L 469.326985 234.188177 
L 470.694919 234.23014 
L 470.694919 234.219986 
L 482.319796 234.209522 
L 482.319796 234.172908 
L 484.717044 234.204146 
L 484.717044 234.190659 
L 486.080577 234.169458 
L 486.080577 234.129593 
L 489.460928 234.163623 
L 489.460928 234.119373 
L 489.460928 234.153918 
L 491.466744 234.113208 
L 492.469407 234.170243 
L 492.469407 234.123037 
L 495.824086 234.174484 
L 497.145567 234.204418 
L 497.145567 234.175639 
L 498.464114 234.217975 
L 498.464114 234.175246 
L 500.783613 234.168468 
L 500.783613 234.127976 
L 502.112429 234.181483 
L 502.112429 234.138523 
L 505.463196 234.168761 
L 505.463196 234.14507 
L 506.452168 234.101141 
L 507.439917 234.179038 
L 507.439917 234.139026 
L 508.097846 234.116561 
L 512.395776 234.158081 
L 512.395776 234.126306 
L 515.395208 234.10829 
L 516.062917 234.137664 
L 516.062917 234.10639 
L 517.396378 234.153437 
L 517.396378 234.077661 
L 518.399775 234.152907 
L 518.399775 234.092591 
L 519.408061 234.159378 
L 519.408061 234.148387 
L 522.108968 234.149907 
L 522.787923 234.146002 
L 522.787923 234.118858 
L 524.136054 234.160362 
L 532.093301 234.141899 
L 532.093301 234.066639 
L 533.761228 234.138223 
L 533.761228 234.073761 
L 534.435294 234.106305 
L 534.435294 234.030398 
L 535.105447 234.091795 
L 535.105447 234.008188 
L 535.779512 234.055474 
L 535.779512 233.961306 
L 536.44991 234.025729 
L 536.44991 233.954562 
L 536.785354 234.01312 
L 536.785354 233.885363 
L 537.123487 233.95727 
L 537.123487 233.832135 
L 538.80975 233.947418 
L 538.80975 233.848436 
L 539.480882 233.975254 
L 539.480882 233.865009 
L 539.814858 233.953912 
L 539.814858 233.844414 
L 540.831702 233.890056 
L 541.495743 234.032503 
L 541.495743 233.938281 
L 541.827275 234.036659 
L 541.827275 233.974024 
L 542.828715 234.000885 
L 542.828715 233.957127 
L 543.498135 234.083132 
L 543.498135 234.023819 
L 544.176846 234.046434 
L 544.176846 233.944403 
L 544.848222 233.984871 
L 544.848222 233.903651 
L 545.526199 233.999265 
L 545.526199 233.90255 
L 546.202954 233.947454 
L 546.202954 233.847001 
L 546.544021 233.961407 
L 546.544021 233.873023 
L 547.222487 233.951042 
L 547.222487 233.856603 
L 547.908533 233.953826 
L 547.908533 233.845178 
L 548.249111 233.921847 
L 548.249111 233.796606 
L 548.930266 233.868478 
L 548.930266 233.782885 
L 549.616801 233.900812 
L 549.616801 233.850084 
L 549.616801 233.949648 
L 551.321401 233.759584 
L 551.321401 233.706248 
L 552.343379 233.696516 
L 552.343379 233.685953 
L 553.02429 233.691323 
L 553.02429 233.71297 
L 553.364868 233.732847 
L 553.364868 233.714185 
L 554.040889 233.501302 
L 554.712021 233.527974 
L 554.712021 233.467256 
L 555.04233 233.503499 
L 555.04233 233.415017 
L 556.03668 233.39658 
L 557.025407 233.639097 
L 557.025407 233.443276 
L 557.35425 233.504889 
L 557.35425 233.142416 
L 557.683336 233.084012 
L 557.683336 231.748216 
L 558.013156 231.278723 
L 558.013156 228.478698 
L 558.342732 227.664312 
L 558.342732 222.355252 
L 558.672308 221.300236 
L 558.672308 211.880494 
L 559.000417 211.82746 
L 559.000417 196.956418 
L 559.333415 196.916612 
L 559.333415 180.364292 
L 559.660301 184.058629 
L 559.660301 160.96228 
L 559.987188 169.195836 
L 559.987188 146.015556 
L 560.313585 156.720535 
L 560.313585 127.28033 
L 560.640227 142.741641 
L 560.640227 113.829279 
L 560.966379 131.708279 
L 560.966379 92.802089 
L 561.292777 117.927482 
L 561.292777 85.7698 
L 561.618929 107.955534 
L 561.618929 72.817418 
L 561.945327 108.874349 
L 561.945327 67.390529 
L 562.271479 94.269563 
L 562.271479 60.953 
L 562.597877 96.252084 
L 562.597877 49.932727 
L 562.92403 87.659165 
L 562.92403 54.792942 
L 563.250182 89.071348 
L 563.250182 50.35419 
L 563.576824 97.816893 
L 563.576824 58.679327 
L 563.902977 95.28031 
L 563.902977 64.742352 
L 564.238176 105.886654 
L 564.238176 63.767898 
L 564.564329 108.484288 
L 564.564329 69.671383 
L 564.890481 101.760151 
L 564.890481 63.895863 
L 565.216879 103.350511 
L 565.216879 70.025202 
L 565.543031 113.124971 
L 565.543031 80.173699 
L 565.869184 118.327949 
L 565.869184 87.530865 
L 566.195581 122.713242 
L 566.195581 89.232196 
L 566.521979 122.130904 
L 566.521979 92.336487 
L 566.848376 129.439399 
L 566.848376 98.937594 
L 567.174773 130.442303 
L 567.174773 110.118111 
L 567.501171 139.624885 
L 567.501171 110.227013 
L 567.827568 139.180835 
L 567.827568 116.581694 
L 568.153965 140.188692 
L 568.153965 118.344062 
L 568.480362 145.760187 
L 568.480362 125.254312 
L 568.80676 152.924357 
L 568.80676 133.178373 
L 569.138536 154.728196 
L 569.138536 134.715601 
L 569.465177 156.321847 
L 569.465177 135.414061 
L 569.791575 157.231804 
L 569.791575 142.271405 
L 570.117972 164.984624 
L 570.117972 147.985503 
L 570.445103 165.484288 
L 570.445103 147.87539 
L 570.7715 164.960282 
L 570.7715 147.880039 
L 571.098142 168.169182 
L 571.098142 153.205974 
L 571.424784 171.176202 
L 571.424784 157.253116 
L 571.751181 173.969278 
L 571.751181 155.854337 
L 572.078067 174.862292 
L 572.078067 159.683585 
L 572.404709 174.874704 
L 572.404709 161.09566 
L 572.731351 179.658354 
L 572.731351 161.230127 
L 573.060926 178.982034 
L 573.060926 162.922705 
L 573.387568 177.726766 
L 573.387568 164.645608 
L 573.714454 183.189571 
L 573.714454 168.98739 
L 574.046719 187.355911 
L 574.046719 174.734414 
L 574.373361 188.641662 
L 574.373361 176.44761 
L 574.700492 190.157373 
L 574.700492 178.904192 
L 575.027378 193.163027 
L 575.027378 181.384899 
L 575.354509 194.802418 
L 575.354509 184.630952 
L 575.68164 194.819836 
L 575.68164 184.85834 
L 576.008526 196.703775 
L 576.008526 186.572367 
L 576.335901 198.608627 
L 576.335901 189.341475 
L 576.663032 199.343215 
L 576.663032 190.54847 
L 576.990163 200.990592 
L 576.990163 190.432168 
L 577.317538 201.684263 
L 577.317538 193.891512 
L 577.644669 203.609415 
L 577.644669 194.957658 
L 577.972044 205.076046 
L 577.972044 196.649317 
L 578.299419 205.346 
L 578.299419 197.338399 
L 578.626794 206.554289 
L 578.626794 199.159112 
L 578.959793 207.924558 
L 578.959793 200.596564 
L 579.287168 208.588949 
L 579.287168 201.945482 
L 579.616255 210.3879 
L 579.616255 203.770928 
L 579.943874 211.744515 
L 579.943874 204.136665 
L 580.271983 210.964893 
L 580.271983 205.112863 
L 580.599358 211.991266 
L 580.599358 206.78012 
L 580.926978 214.568675 
L 580.926978 208.70081 
L 581.254842 215.128941 
L 581.254842 208.717777 
L 581.582707 214.329931 
L 581.582707 208.72981 
L 581.916683 214.649486 
L 581.916683 210.051365 
L 582.244547 216.463579 
L 582.244547 210.703683 
L 582.574123 216.553845 
L 582.574123 212.246074 
L 582.902476 216.73725 
L 582.902476 212.224266 
L 583.230585 218.268311 
L 583.230585 213.853736 
L 583.558938 218.858176 
L 583.558938 214.25662 
L 583.893404 219.091341 
L 583.893404 214.174807 
L 584.222001 219.273799 
L 584.222001 214.894776 
L 584.550599 219.8237 
L 584.550599 215.85314 
L 584.879197 220.874532 
L 584.879197 216.149128 
L 585.208039 220.564755 
L 585.208039 216.41785 
L 585.537126 220.322333 
L 585.537126 216.688008 
L 585.865723 221.458106 
L 585.865723 217.542027 
L 586.19481 221.873277 
L 586.19481 217.876163 
L 586.523408 221.777237 
L 586.523408 218.551118 
L 586.852005 222.063707 
L 586.852005 218.691034 
L 587.181581 222.750668 
L 587.181581 219.777042 
L 587.510668 223.108435 
L 587.510668 220.599895 
L 587.83951 224.228134 
L 587.83951 221.75336 
L 588.168597 224.734062 
L 588.168597 221.516978 
L 588.499639 224.293914 
L 588.499639 221.503248 
L 588.834349 224.343226 
L 588.834349 221.012205 
L 589.164169 223.937012 
L 589.164169 221.818504 
L 589.494234 224.633465 
L 589.494234 221.679995 
L 589.823565 225.084531 
L 589.823565 222.515626 
L 590.158031 224.983014 
L 590.158031 222.598312 
L 590.487606 225.365739 
L 590.487606 223.158394 
L 590.817671 226.180049 
L 590.817671 223.828258 
L 591.147736 226.277829 
L 591.147736 223.830294 
L 591.478289 226.08777 
L 591.478289 223.510329 
L 591.808599 225.889771 
L 591.808599 223.661125 
L 592.138419 226.492183 
L 592.138419 224.369905 
L 592.468728 226.94149 
L 592.468728 225.160068 
L 592.799526 227.282993 
L 592.799526 225.119193 
L 593.13008 227.215452 
L 593.13008 225.259049 
L 593.460633 227.33941 
L 593.460633 225.750731 
L 593.797055 227.829066 
L 593.797055 225.990235 
L 594.127853 228.041059 
L 594.127853 225.86656 
L 594.458895 227.613539 
L 594.458895 225.757878 
L 594.789205 227.741015 
L 594.789205 226.052264 
L 595.120003 228.016857 
L 595.120003 226.295402 
L 595.451534 228.238588 
L 595.451534 226.496362 
L 595.782577 228.181403 
L 595.782577 226.659373 
L 596.115087 228.514053 
L 596.115087 226.780252 
L 596.446863 228.482478 
L 596.446863 226.727343 
L 596.777905 228.402763 
L 596.777905 226.753179 
L 597.109192 228.590603 
L 597.109192 227.083322 
L 597.441457 228.846714 
L 597.441457 227.312788 
L 597.7725 228.931843 
L 597.7725 227.447491 
L 598.104276 229.073838 
L 598.104276 227.822784 
L 598.437275 229.478453 
L 598.437275 227.944763 
L 598.77443 229.461932 
L 598.77443 227.788882 
L 599.110607 229.187577 
L 599.110607 227.823327 
L 599.443361 229.339795 
L 599.443361 228.050523 
L 599.775381 229.688564 
L 599.775381 228.377704 
L 600.107402 229.649121 
L 600.107402 228.325067 
L 600.440156 229.639665 
L 600.440156 228.274607 
L 600.773399 229.496972 
L 600.773399 228.261098 
L 601.10542 229.742564 
L 601.10542 228.337377 
L 601.439396 229.85033 
L 601.439396 228.679938 
L 601.772639 230.051202 
L 601.772639 228.516824 
L 602.105149 229.874287 
L 602.105149 228.749926 
L 602.43668 230.079324 
L 602.43668 228.750779 
L 602.769434 230.226561 
L 602.769434 229.219523 
L 603.102677 230.296513 
L 603.102677 229.084394 
L 603.434698 230.448399 
L 603.434698 229.230431 
L 603.772342 230.308293 
L 603.772342 229.259977 
L 604.10583 230.499053 
L 604.10583 229.484386 
L 604.440295 230.770862 
L 604.440295 229.691212 
L 604.774027 230.734768 
L 604.774027 229.692228 
L 605.108248 230.700475 
L 605.108248 229.652288 
L 605.440758 230.633366 
L 605.440758 229.740344 
L 605.774979 230.809583 
L 605.774979 229.835693 
L 606.108955 230.874075 
L 606.108955 230.007041 
L 606.441465 230.953722 
L 606.441465 230.013238 
L 606.77593 230.981756 
L 606.77593 230.084743 
L 607.110151 231.081666 
L 607.110151 230.294936 
L 607.443639 231.22871 
L 607.443639 230.429346 
L 607.782261 231.397044 
L 607.782261 230.512587 
L 608.11966 231.304667 
L 608.11966 230.557879 
L 608.456326 231.374935 
L 608.456326 230.558862 
L 608.798126 231.512001 
L 608.798126 230.69321 
L 609.133081 231.461608 
L 609.133081 230.689307 
L 609.469991 231.529685 
L 609.469991 230.759234 
L 609.807391 231.626076 
L 609.807391 230.819614 
L 610.142834 231.674758 
L 610.142834 230.832346 
L 610.4773 231.632217 
L 610.4773 230.806382 
L 610.812988 231.635057 
L 610.812988 230.692737 
L 611.14672 231.522488 
L 611.14672 230.681078 
L 611.481674 231.496805 
L 611.481674 230.729539 
L 611.815895 231.670737 
L 611.815895 230.799223 
L 612.149627 231.619194 
L 612.149627 230.831783 
L 612.483604 231.655804 
L 612.483604 230.889781 
L 612.817336 231.739484 
L 612.817336 230.986911 
L 613.152535 231.800475 
L 613.152535 230.976885 
L 613.487978 231.714111 
L 613.487978 231.046695 
L 613.828801 231.819246 
L 613.828801 231.020067 
L 614.164244 231.848678 
L 614.164244 231.193832 
L 614.497732 231.922681 
L 614.497732 231.280492 
L 614.831219 232.09825 
L 614.831219 231.447509 
L 615.16544 232.153106 
L 615.16544 231.399498 
L 615.499661 232.07393 
L 615.499661 231.406702 
L 615.83486 232.017496 
L 615.83486 231.352976 
L 616.171526 232.118615 
L 616.171526 231.435679 
L 616.507214 232.060122 
L 616.507214 231.429405 
L 616.841435 232.130856 
L 616.841435 231.532967 
L 617.17859 232.195762 
L 617.17859 231.585762 
L 617.513789 232.259087 
L 617.513789 231.558915 
L 617.85559 232.11551 
L 617.85559 231.520005 
L 618.191766 232.194315 
L 618.191766 231.541247 
L 618.530388 232.180105 
L 618.530388 231.646284 
L 618.871455 232.240795 
L 618.871455 231.715402 
L 619.207877 232.346101 
L 619.207877 231.813518 
L 619.546254 232.398618 
L 619.546254 231.84418 
L 619.883898 232.430821 
L 619.883898 231.797618 
L 620.223498 232.37826 
L 620.223498 231.761357 
L 620.563831 232.298256 
L 620.563831 231.689115 
L 620.900253 232.328389 
L 620.900253 231.762213 
L 621.236185 232.332502 
L 621.236185 231.873191 
L 621.575785 232.447527 
L 621.575785 231.954051 
L 621.916118 232.515842 
L 621.916118 231.990407 
L 622.254251 232.497413 
L 622.254251 231.974093 
L 622.592629 232.511155 
L 622.592629 232.030422 
L 622.92905 232.625562 
L 622.92905 232.100526 
L 623.26865 232.652382 
L 623.26865 232.063154 
L 623.62732 232.53332 
L 623.62732 232.084097 
L 623.972054 232.632033 
L 623.972054 232.108928 
L 624.312143 232.686645 
L 624.312143 232.218105 
L 624.65321 232.671174 
L 624.65321 232.165219 
L 624.99501 232.641923 
L 624.99501 232.145447 
L 625.339989 232.611941 
L 625.339989 232.255417 
L 625.681545 232.767877 
L 625.681545 232.291588 
L 626.019433 232.813591 
L 626.019433 232.415525 
L 626.361233 232.748443 
L 626.361233 232.165074 
L 626.702056 232.711582 
L 626.702056 232.194951 
L 627.041167 232.627617 
L 627.041167 232.26379 
L 627.382722 232.818897 
L 627.382722 232.308032 
L 627.722322 232.811321 
L 627.722322 232.361311 
L 628.063878 232.800865 
L 628.063878 232.364655 
L 628.404945 232.819439 
L 628.404945 232.362143 
L 628.746501 232.8256 
L 628.746501 232.417861 
L 629.093191 232.863985 
L 629.093191 232.411038 
L 629.434502 232.857369 
L 629.434502 232.41214 
L 629.776302 232.801408 
L 629.776302 232.412982 
L 630.117614 232.899855 
L 630.117614 232.502897 
L 630.459414 232.964991 
L 630.459414 232.575957 
L 630.80097 232.997158 
L 630.80097 232.619504 
L 631.142526 233.052872 
L 631.142526 232.616845 
L 631.484081 232.965709 
L 631.484081 232.59698 
L 631.825393 232.990688 
L 631.825393 232.497994 
L 632.166948 232.902439 
L 632.166948 232.559251 
L 632.508504 232.911741 
L 632.508504 232.503434 
L 632.85006 232.970838 
L 632.85006 232.586884 
L 633.191616 232.954246 
L 633.191616 232.61609 
L 633.533172 233.030242 
L 633.533172 232.669579 
L 633.874727 233.077747 
L 633.874727 232.718933 
L 634.221662 233.031313 
L 634.221662 232.590549 
L 634.563462 232.980631 
L 634.563462 232.57679 
L 634.905018 232.947444 
L 634.905018 232.590701 
L 635.246574 233.052171 
L 635.246574 232.702691 
L 635.58813 233.122045 
L 635.58813 232.870904 
L 635.929685 233.261311 
L 635.929685 232.908976 
L 636.271241 233.250735 
L 636.271241 232.919824 
L 636.612553 233.171204 
L 636.612553 232.85059 
L 636.954108 233.211053 
L 636.954108 232.909453 
L 637.295664 233.226691 
L 637.295664 232.908192 
L 637.63722 233.23742 
L 637.63722 232.880703 
L 637.979509 233.194676 
L 637.979509 232.834041 
L 638.321065 233.134324 
L 638.321065 232.791096 
L 638.667755 233.137566 
L 638.667755 232.808485 
L 639.009066 233.187368 
L 639.009066 232.918673 
L 639.355757 233.272064 
L 639.355757 232.956877 
L 639.697312 233.290444 
L 639.697312 232.926243 
L 640.038868 233.241688 
L 640.038868 232.894893 
L 640.380179 233.212364 
L 640.380179 232.894648 
L 640.721491 233.228502 
L 640.721491 232.976164 
L 641.063047 233.331818 
L 641.063047 232.966332 
L 641.404358 233.242493 
L 641.404358 232.966466 
L 641.745914 233.203724 
L 641.745914 232.865402 
L 642.087469 233.242154 
L 642.087469 232.970301 
L 642.429025 233.273897 
L 642.429025 232.991665 
L 642.770337 233.33446 
L 642.770337 233.049761 
L 643.112137 233.35231 
L 643.112137 233.022732 
L 643.453693 233.320367 
L 643.453693 232.955286 
L 643.795493 233.23856 
L 643.795493 232.943808 
L 644.137293 233.267529 
L 644.137293 233.035233 
L 644.484228 233.36591 
L 644.484228 233.092254 
L 644.830918 233.401203 
L 644.830918 233.137236 
L 645.172229 233.379761 
L 645.172229 233.161448 
L 645.514763 233.42854 
L 645.514763 233.119417 
L 645.856563 233.429075 
L 645.856563 233.149749 
L 646.198119 233.390838 
L 646.198119 233.142329 
L 646.539919 233.475571 
L 646.539919 233.256443 
L 646.881475 233.532947 
L 646.881475 233.204866 
L 647.223275 233.447358 
L 647.223275 233.109242 
L 647.565076 233.286836 
L 647.565076 233.064356 
L 647.906631 233.40965 
L 647.906631 233.163294 
L 648.248432 233.492343 
L 648.248432 233.272861 
L 648.589988 233.507846 
L 648.589988 233.196805 
L 648.931788 233.448834 
L 648.931788 233.191972 
L 649.274811 233.425646 
L 649.274811 233.163108 
L 649.62199 233.487718 
L 649.62199 233.256001 
L 649.96379 233.497702 
L 649.96379 233.27596 
L 650.305835 233.532272 
L 650.305835 233.257147 
L 650.647635 233.502584 
L 650.647635 233.259914 
L 650.98968 233.489188 
L 650.98968 233.262036 
L 651.336614 233.514882 
L 651.336614 233.261235 
L 651.678415 233.505246 
L 651.678415 233.272433 
L 652.02046 233.512116 
L 652.02046 233.258126 
L 652.36226 233.511643 
L 652.36226 233.264165 
L 652.704549 233.476131 
L 652.704549 233.228649 
L 653.046349 233.483535 
L 653.046349 233.245666 
L 653.388394 233.480642 
L 653.388394 233.257177 
L 653.730194 233.490392 
L 653.730194 233.256089 
L 654.071995 233.485764 
L 654.071995 233.30439 
L 654.413795 233.563051 
L 654.413795 233.318884 
L 654.761219 233.568303 
L 654.761219 233.325434 
L 655.103263 233.537948 
L 655.103263 233.254379 
L 655.445308 233.494929 
L 655.445308 233.262265 
L 655.787353 233.515511 
L 655.787353 233.277686 
L 656.129153 233.549734 
L 656.129153 233.312889 
L 656.471198 233.551647 
L 656.471198 233.302951 
L 656.812998 233.54644 
L 656.812998 233.350864 
L 657.154799 233.599478 
L 657.154799 233.325228 
L 657.497088 233.565086 
L 657.497088 233.349208 
L 657.839133 233.553053 
L 657.839133 233.296188 
L 658.181177 233.555466 
L 658.181177 233.323038 
L 658.523222 233.535957 
L 658.523222 233.295832 
L 658.865022 233.559152 
L 658.865022 233.334159 
L 659.207067 233.583117 
L 659.207067 233.343971 
L 659.549112 233.58434 
L 659.549112 233.386767 
L 659.896536 233.609889 
L 659.896536 233.411247 
L 660.23858 233.648603 
L 660.23858 233.402288 
L 660.58087 233.588688 
L 660.58087 233.395557 
L 660.922914 233.579688 
L 660.922914 233.382994 
L 661.265204 233.612459 
L 661.265204 233.401892 
L 661.607249 233.590999 
L 661.607249 233.413425 
L 661.949538 233.60476 
L 661.949538 233.37596 
L 662.292072 233.612411 
L 662.292072 233.425212 
L 662.634361 233.609392 
L 662.634361 233.394682 
L 662.976406 233.641899 
L 662.976406 233.446655 
L 663.318695 233.657316 
L 663.318695 233.455045 
L 663.66074 233.6545 
L 663.66074 233.455358 
L 664.002784 233.653601 
L 664.002784 233.418463 
L 664.344829 233.63445 
L 664.344829 233.429411 
L 664.686874 233.622948 
L 664.686874 233.401462 
L 665.034053 233.640946 
L 665.034053 233.430121 
L 665.376098 233.655958 
L 665.376098 233.482586 
L 665.718143 233.686497 
L 665.718143 233.503808 
L 666.060432 233.704586 
L 666.060432 233.504872 
L 666.402477 233.70259 
L 666.402477 233.504262 
L 666.744521 233.68211 
L 666.744521 233.494997 
L 667.086811 233.698967 
L 667.086811 233.471288 
L 667.428856 233.687573 
L 667.428856 233.460299 
L 667.7709 233.664689 
L 667.7709 233.459032 
L 668.112945 233.676941 
L 668.112945 233.435226 
L 668.455234 233.657373 
L 668.455234 233.459484 
L 668.797524 233.666834 
L 668.797524 233.459046 
L 669.139813 233.675978 
L 669.139813 233.479429 
L 669.481858 233.670818 
L 669.481858 233.468939 
L 669.824147 233.679142 
L 669.824147 233.499931 
L 670.171571 233.701872 
L 670.171571 233.477851 
L 670.515327 233.672598 
L 670.515327 233.446256 
L 670.857861 233.628569 
L 670.857861 233.446754 
L 671.20015 233.676132 
L 671.20015 233.447805 
L 671.542684 233.66247 
L 671.542684 233.466839 
L 671.885462 233.64333 
L 671.885462 233.416045 
L 672.22824 233.66172 
L 672.22824 233.471897 
L 672.574441 233.687723 
L 672.574441 233.500222 
L 672.91673 233.71432 
L 672.91673 233.439076 
L 673.259509 233.635692 
L 673.259509 233.400603 
L 673.602042 233.59292 
L 673.602042 233.415212 
L 673.944332 233.686678 
L 673.944332 233.492323 
L 674.286866 233.717676 
L 674.286866 233.521833 
L 674.629399 233.707444 
L 674.629399 233.521568 
L 674.976823 233.727527 
L 674.976823 233.547587 
L 675.324735 233.741557 
L 675.324735 233.566771 
L 675.667269 233.74926 
L 675.667269 233.584261 
L 676.009803 233.746262 
L 676.009803 233.57177 
L 676.352581 233.748364 
L 676.352581 233.577387 
L 676.694626 233.734149 
L 676.694626 233.587131 
L 677.03716 233.758858 
L 677.03716 233.585025 
L 677.379938 233.757857 
L 677.379938 233.551203 
L 677.722716 233.701937 
L 677.722716 233.544677 
L 678.065495 233.702731 
L 678.065495 233.527461 
L 678.408273 233.740018 
L 678.408273 233.546321 
L 678.750807 233.70042 
L 678.750807 233.537662 
L 679.093585 233.711308 
L 679.093585 233.530176 
L 679.436608 233.734806 
L 679.436608 233.541301 
L 679.779141 233.728223 
L 679.779141 233.575598 
L 680.12192 233.75568 
L 680.12192 233.563134 
L 680.471299 233.742386 
L 680.471299 233.564973 
L 680.813833 233.726787 
L 680.813833 233.521749 
L 681.156611 233.716071 
L 681.156611 233.554658 
L 681.499389 233.705972 
L 681.499389 233.516653 
L 681.841923 233.725852 
L 681.841923 233.524655 
L 682.184457 233.715777 
L 682.184457 233.560026 
L 682.526991 233.740736 
L 682.526991 233.558825 
L 682.870013 233.767447 
L 682.870013 233.626504 
L 683.212547 233.800703 
L 683.212547 233.629402 
L 683.555325 233.812245 
L 683.555325 233.61348 
L 683.898104 233.755799 
L 683.898104 233.602307 
L 684.246505 233.755422 
L 684.246505 233.594965 
L 684.589284 233.779877 
L 684.589284 233.569461 
L 684.931817 233.733359 
L 684.931817 233.581168 
L 685.274596 233.728504 
L 685.274596 233.572395 
L 685.622508 233.766202 
L 685.622508 233.57699 
L 685.965531 233.761788 
L 685.965531 233.595364 
L 686.308554 233.762637 
L 686.308554 233.61277 
L 686.652799 233.795879 
L 686.652799 233.62316 
L 686.995577 233.791125 
L 686.995577 233.620846 
L 687.3386 233.780664 
L 687.3386 233.627296 
L 687.681623 233.784133 
L 687.681623 233.641272 
L 688.024401 233.810087 
L 688.024401 233.646823 
L 688.367424 233.806671 
L 688.367424 233.620607 
L 688.710202 233.775839 
L 688.710202 233.621992 
L 689.053225 233.785032 
L 689.053225 233.635958 
L 689.396247 233.827035 
L 689.396247 233.690279 
L 689.739026 233.847175 
L 689.739026 233.719224 
L 690.081804 233.850288 
L 690.081804 233.691415 
L 690.429961 233.814434 
L 690.429961 233.667769 
L 690.778118 233.807023 
L 690.778118 233.643691 
L 691.121141 233.782129 
L 691.121141 233.622738 
L 691.463919 233.766377 
L 691.463919 233.603686 
L 691.806942 233.78969 
L 691.806942 233.662842 
L 692.14972 233.824371 
L 692.14972 233.676688 
L 692.492743 233.828959 
L 692.492743 233.656622 
L 692.837233 233.798192 
L 692.837233 233.648185 
L 693.180011 233.810572 
L 693.180011 233.667841 
L 693.522789 233.839033 
L 693.522789 233.656152 
L 693.866056 233.817117 
L 693.866056 233.63382 
L 694.208835 233.767722 
L 694.208835 233.599505 
L 694.551613 233.796085 
L 694.551613 233.645128 
L 694.894391 233.822533 
L 694.894391 233.670785 
L 695.236925 233.830634 
L 695.236925 233.680679 
L 695.579948 233.819747 
L 695.579948 233.654671 
L 695.92786 233.808284 
L 695.92786 233.653625 
L 696.270638 233.805582 
L 696.270638 233.661907 
L 696.613661 233.79173 
L 696.613661 233.640228 
L 696.956684 233.785638 
L 696.956684 233.642477 
L 697.299218 233.797431 
L 697.299218 233.664667 
L 697.641507 233.830983 
L 697.641507 233.66581 
L 697.984285 233.814497 
L 697.984285 233.684885 
L 698.327063 233.838568 
L 698.327063 233.681483 
L 698.669597 233.84887 
L 698.669597 233.682628 
L 699.012131 233.813164 
L 699.012131 233.656634 
L 699.354665 233.807638 
L 699.354665 233.641074 
L 699.697198 233.775482 
L 699.697198 233.63722 
L 700.039977 233.798451 
L 700.039977 233.642587 
L 700.38251 233.807074 
L 700.38251 233.686951 
L 700.725533 233.828053 
L 700.725533 233.693663 
L 701.073446 233.86749 
L 701.073446 233.72688 
L 701.416469 233.876738 
L 701.416469 233.734994 
L 701.759247 233.862032 
L 701.759247 233.702886 
L 702.102514 233.857998 
L 702.102514 233.696826 
L 702.451405 233.839669 
L 702.451405 233.693713 
L 702.794427 233.836714 
L 702.794427 233.662602 
L 703.137206 233.814765 
L 703.137206 233.67887 
L 703.479984 233.841911 
L 703.479984 233.700533 
L 703.822762 233.871869 
L 703.822762 233.74922 
L 704.16554 233.87046 
L 704.16554 233.723531 
L 704.508563 233.862894 
L 704.508563 233.728607 
L 704.851097 233.856927 
L 704.851097 233.720415 
L 705.19412 233.861869 
L 705.19412 233.685425 
L 705.537142 233.824652 
L 705.537142 233.676983 
L 706.228078 233.893267 
L 706.228078 233.725496 
L 706.5711 233.856811 
L 706.5711 233.736694 
L 707.257146 233.90549 
L 707.257146 233.795665 
L 707.600169 233.913951 
L 707.600169 233.740925 
L 707.943436 233.853697 
L 707.943436 233.708896 
L 708.286703 233.819912 
L 708.286703 233.686591 
L 708.62997 233.846662 
L 708.62997 233.697597 
L 708.97446 233.842255 
L 708.97446 233.668947 
L 709.317483 233.807538 
L 709.317483 233.671199 
L 709.66075 233.81391 
L 709.66075 233.651497 
L 710.003773 233.826734 
L 710.003773 233.700531 
L 710.352908 233.856698 
L 710.352908 233.724788 
L 710.695931 233.894244 
L 710.695931 233.78388 
L 711.039198 233.910529 
L 711.039198 233.781196 
L 711.3876 233.921231 
L 711.3876 233.781412 
L 711.730867 233.900046 
L 711.730867 233.773275 
L 712.073645 233.890076 
L 712.073645 233.739372 
L 712.417157 233.868646 
L 712.417157 233.712399 
L 712.760179 233.833109 
L 712.760179 233.71241 
L 713.103691 233.858584 
L 713.103691 233.710546 
L 713.446958 233.872599 
L 713.446958 233.767967 
L 713.789981 233.887128 
L 713.789981 233.742642 
L 714.133248 233.891625 
L 714.133248 233.768037 
L 714.476516 233.873727 
L 714.476516 233.745675 
L 714.820027 233.902532 
L 714.820027 233.752049 
L 715.164273 233.868069 
L 715.164273 233.73587 
L 715.507784 233.866066 
L 715.507784 233.738586 
L 716.194319 233.901015 
L 716.194319 233.769897 
L 716.54272 233.888348 
L 716.54272 233.732844 
L 716.885743 233.849204 
L 716.885743 233.712132 
L 717.22901 233.845296 
L 717.22901 233.715484 
L 717.572033 233.880714 
L 717.572033 233.734375 
L 717.9153 233.876835 
L 717.9153 233.740074 
L 718.258568 233.86346 
L 718.258568 233.714482 
L 718.60159 233.854768 
L 718.60159 233.732035 
L 719.288369 233.908182 
L 719.288369 233.781669 
L 719.631637 233.905823 
L 719.631637 233.772976 
L 719.975148 233.887651 
L 719.975148 233.736029 
L 720.324039 233.864561 
L 720.324039 233.729241 
L 721.010818 233.897157 
L 721.010818 233.768023 
L 721.353841 233.87683 
L 721.353841 233.736169 
L 721.702242 233.856042 
L 721.702242 233.70293 
L 722.388777 233.884826 
L 722.388777 233.75027 
L 722.732044 233.894785 
L 722.732044 233.771986 
L 723.075311 233.907638 
L 723.075311 233.754096 
L 723.418334 233.887837 
L 723.418334 233.748263 
L 723.761846 233.873546 
L 723.761846 233.710758 
L 724.105113 233.866661 
L 724.105113 233.745092 
L 724.448625 233.876967 
L 724.448625 233.732338 
L 724.792136 233.88731 
L 724.792136 233.772976 
L 725.478671 233.942015 
L 725.478671 233.806424 
L 725.821938 233.924725 
L 725.821938 233.764933 
L 726.165205 233.883983 
L 726.165205 233.739745 
L 726.508228 233.877863 
L 726.508228 233.713962 
L 726.856874 233.862683 
L 726.856874 233.70968 
L 727.199897 233.858203 
L 727.199897 233.719981 
L 727.54292 233.869643 
L 727.54292 233.748197 
L 727.885942 233.893092 
L 727.885942 233.760234 
L 728.22921 233.892743 
L 728.22921 233.770437 
L 728.572232 233.892828 
L 728.572232 233.755175 
L 728.9155 233.892397 
L 728.9155 233.766504 
L 729.258522 233.900249 
L 729.258522 233.739011 
L 729.60179 233.885621 
L 729.60179 233.753152 
L 729.945057 233.880995 
L 729.945057 233.754109 
L 730.28808 233.90416 
L 730.28808 233.758192 
L 730.974614 233.893392 
L 730.974614 233.77251 
L 731.318126 233.920867 
L 731.318126 233.774658 
L 732.016151 233.901818 
L 732.016151 233.764344 
L 732.359663 233.922797 
L 732.359663 233.822575 
L 732.702441 233.925612 
L 732.702441 233.791326 
L 733.045953 233.928978 
L 733.045953 233.790892 
L 733.38922 233.904245 
L 733.38922 233.787155 
L 733.732243 233.924883 
L 733.732243 233.806294 
L 734.075755 233.942191 
L 734.075755 233.807759 
L 734.419022 233.934819 
L 734.419022 233.81284 
L 734.762289 233.926873 
L 734.762289 233.786589 
L 735.105801 233.907617 
L 735.105801 233.754638 
L 735.792091 233.915818 
L 735.792091 233.771675 
L 736.137559 233.925122 
L 736.137559 233.774427 
L 736.481315 233.889135 
L 736.481315 233.744939 
L 736.824827 233.902646 
L 736.824827 233.785191 
L 737.173228 233.940143 
L 737.173228 233.834163 
L 737.516495 233.969003 
L 737.516495 233.830527 
L 737.859763 233.947707 
L 737.859763 233.825459 
L 738.202785 233.920822 
L 738.202785 233.791309 
L 738.545808 233.916875 
L 738.545808 233.787277 
L 738.88932 233.9159 
L 738.88932 233.797714 
L 739.232587 233.921417 
L 739.232587 233.795855 
L 739.57561 233.92414 
L 739.57561 233.800653 
L 740.261411 233.940068 
L 740.261411 233.825246 
L 740.947945 233.942037 
L 740.947945 233.817894 
L 741.291457 233.933881 
L 741.291457 233.810879 
L 741.63448 233.923751 
L 741.63448 233.793992 
L 741.977258 233.920708 
L 741.977258 233.781102 
L 742.327127 233.899025 
L 742.327127 233.768893 
L 742.670394 233.888528 
L 742.670394 233.759452 
L 743.356439 233.926547 
L 743.356439 233.80732 
L 743.699462 233.927399 
L 743.699462 233.805752 
L 744.042485 233.929097 
L 744.042485 233.795183 
L 744.72853 233.951388 
L 744.72853 233.822538 
L 745.072042 233.939326 
L 745.072042 233.803477 
L 745.415309 233.895641 
L 745.415309 233.775446 
L 746.102088 233.954091 
L 746.102088 233.845362 
L 746.445111 233.972242 
L 746.445111 233.846671 
L 747.131401 233.960149 
L 747.131401 233.846302 
L 747.48567 233.973822 
L 747.48567 233.860268 
L 747.828449 233.97349 
L 747.828449 233.865044 
L 748.171471 233.962847 
L 748.171471 233.847114 
L 748.514494 233.96159 
L 748.514494 233.8417 
L 749.20054 233.962228 
L 749.20054 233.837655 
L 749.543807 233.959132 
L 749.543807 233.843667 
L 750.230586 233.978027 
L 750.230586 233.835195 
L 750.573853 233.936171 
L 750.573853 233.82428 
L 750.916876 233.915567 
L 750.916876 233.787631 
L 751.603166 233.914365 
L 751.603166 233.803999 
L 751.946433 233.930531 
L 751.946433 233.824529 
L 752.289945 233.93677 
L 752.289945 233.825385 
L 752.982103 233.930687 
L 752.982103 233.827189 
L 753.668637 233.956003 
L 753.668637 233.8431 
L 754.01166 233.954022 
L 754.01166 233.829673 
L 754.699661 233.947509 
L 754.699661 233.852528 
L 755.391086 233.995319 
L 755.391086 233.882949 
L 755.734353 233.98353 
L 755.734353 233.864527 
L 756.420398 233.982382 
L 756.420398 233.871389 
L 756.763421 233.987785 
L 756.763421 233.855717 
L 757.106444 233.961703 
L 757.106444 233.831168 
L 757.797868 233.975149 
L 757.797868 233.879637 
L 758.141624 234.001236 
L 758.141624 233.865366 
L 758.485136 233.963494 
L 758.485136 233.841468 
L 759.171182 233.959062 
L 759.171182 233.862875 
L 759.51396 233.9926 
L 759.51396 233.867714 
L 759.857227 233.973869 
L 759.857227 233.861662 
L 760.543762 233.964484 
L 760.543762 233.862025 
L 761.229807 233.984904 
L 761.229807 233.873427 
L 761.916097 233.962362 
L 761.916097 233.835565 
L 762.602632 233.954931 
L 762.602632 233.821132 
L 763.294056 233.974147 
L 763.294056 233.870972 
L 763.980346 233.996887 
L 763.980346 233.878826 
L 764.323369 233.988052 
L 764.323369 233.876426 
L 764.666636 233.963801 
L 764.666636 233.841767 
L 765.359283 233.961388 
L 765.359283 233.867374 
L 766.045573 234.012395 
L 766.045573 233.878737 
L 766.731618 233.968915 
L 766.731618 233.864054 
L 767.074396 233.993906 
L 767.074396 233.908506 
L 767.761664 234.01341 
L 767.761664 233.901367 
L 768.453578 234.005235 
L 768.453578 233.887172 
L 768.7966 233.992381 
L 768.7966 233.893031 
L 769.139623 233.980876 
L 769.139623 233.846905 
L 769.825913 233.957689 
L 769.825913 233.840056 
L 770.169425 233.960823 
L 770.169425 233.8538 
L 770.85547 233.955345 
L 770.85547 233.858014 
L 771.542005 233.99105 
L 771.542005 233.897543 
L 772.228295 233.984402 
L 772.228295 233.860289 
L 772.576696 233.960851 
L 772.576696 233.842952 
L 773.611143 233.816855 
L 773.611143 233.83836 
L 774.297922 234.014298 
L 774.297922 233.914292 
L 774.640945 234.016318 
L 774.640945 233.90721 
L 775.33457 234.000947 
L 775.33457 233.90165 
L 775.677837 234.015672 
L 775.677837 233.900957 
L 776.021104 234.010875 
L 776.021104 233.90089 
L 776.707883 233.993501 
L 776.707883 233.905427 
L 777.394173 234.012691 
L 777.394173 233.905939 
L 778.081197 233.97877 
L 778.081197 233.873545 
L 778.773355 234.022195 
L 778.773355 233.904728 
L 779.460134 233.994747 
L 779.460134 233.892526 
L 780.147157 234.017638 
L 780.147157 233.910955 
L 780.834425 234.004883 
L 780.834425 233.918557 
L 781.177937 234.025346 
L 781.177937 233.9203 
L 781.869606 234.000541 
L 781.869606 233.905378 
L 782.212628 234.017638 
L 782.212628 233.910668 
L 782.898918 233.998287 
L 782.898918 233.915248 
L 783.590587 234.018277 
L 783.590587 233.911382 
L 784.279078 233.97387 
L 784.279078 233.888852 
L 784.966345 234.015965 
L 784.966345 233.931167 
L 785.309368 234.019724 
L 785.309368 233.902752 
L 785.995658 234.006337 
L 785.995658 233.916749 
L 786.338925 234.032539 
L 786.338925 233.924155 
L 787.024726 234.012877 
L 787.024726 233.919012 
L 787.367749 234.030668 
L 787.367749 233.925033 
L 788.054039 234.013361 
L 788.054039 233.889032 
L 788.74473 234.006014 
L 788.74473 233.90978 
L 789.087753 234.025722 
L 789.087753 233.930161 
L 789.430531 234.013346 
L 789.430531 233.881511 
L 790.115354 233.988918 
L 790.115354 233.887772 
L 790.796754 234.029391 
L 790.796754 233.928647 
L 791.134887 234.036961 
L 791.134887 233.931015 
L 791.814087 234.025338 
L 791.814087 233.946219 
L 792.492309 234.060922 
L 792.492309 233.971661 
L 793.160995 234.040384 
L 793.160995 233.948637 
L 793.835305 234.020534 
L 793.835305 233.906896 
L 794.503258 234.01887 
L 794.503258 233.916194 
L 794.835034 234.037794 
L 794.835034 233.92925 
L 795.500298 234.028517 
L 795.500298 233.92452 
L 795.500298 234.025674 
L 797.492421 233.950275 
L 798.155974 234.05206 
L 798.155974 233.973348 
L 798.487505 234.049684 
L 798.487505 233.93829 
L 799.155947 234.010115 
L 799.155947 233.913689 
L 799.819255 234.045643 
L 799.819255 233.945167 
L 800.483296 234.043902 
L 800.483296 233.956562 
L 801.153205 234.053426 
L 801.153205 233.972297 
L 801.816024 234.045471 
L 801.816024 233.941635 
L 802.482265 234.033485 
L 802.482265 233.942529 
L 803.14704 234.060074 
L 803.14704 233.968233 
L 803.81866 234.072601 
L 803.81866 233.976142 
L 804.151904 234.058499 
L 804.151904 233.951346 
L 804.819857 234.035744 
L 804.819857 233.956557 
L 805.488054 234.053852 
L 805.488054 233.960329 
L 806.489495 233.92197 
L 806.82396 234.03886 
L 806.82396 233.945029 
L 807.492402 234.086571 
L 807.492402 233.979984 
L 808.164023 234.052627 
L 808.164023 233.961203 
L 808.838577 234.043295 
L 808.838577 233.949485 
L 809.515087 234.017239 
L 809.515087 233.9257 
L 810.186708 234.007764 
L 810.186708 233.952738 
L 810.858328 234.070931 
L 810.858328 233.999755 
L 811.528482 234.037482 
L 811.528482 233.959109 
L 812.202058 234.043338 
L 812.202058 233.96499 
L 812.876613 234.08506 
L 812.876613 234.014752 
L 815.652334 234.344886 
L 816.352805 234.344184 
L 816.352805 234.34501 
" clip-path="url(#p1ea91259e0)" style="fill: none; stroke: #008000; stroke-width: 1.5; stroke-linecap: square"/>
   </g>
   <g id="patch_3">
    <path d="M 47.72 534.04 
L 47.72 26.88 
" style="fill: none; stroke: #000000; stroke-width: 0.8; stroke-linejoin: miter; stroke-linecap: square"/>
   </g>
   <g id="patch_4">
    <path d="M 853.2 534.04 
L 853.2 26.88 
" style="fill: none; stroke: #000000; stroke-width: 0.8; stroke-linejoin: miter; stroke-linecap: square"/>
   </g>
   <g id="patch_5">
    <path d="M 47.72 534.04 
L 853.2 534.04 
" style="fill: none; stroke: #000000; stroke-width: 0.8; stroke-linejoin: miter; stroke-linecap: square"/>
   </g>
   <g id="patch_6">
    <path d="M 47.72 26.88 
L 853.2 26.88 
" style="fill: none; stroke: #000000; stroke-width: 0.8; stroke-linejoin: miter; stroke-linecap: square"/>
   </g>
   <g id="patch_7">
    <path d="M 630.426309 318.601235 
Q 604.275015 324.435097 578.123721 330.26896 
L 578.994639 334.172996 
Q 572.486858 332.551018 565.979078 330.92904 
Q 571.180482 326.694963 576.381887 322.460886 
L 577.252804 326.364923 
Q 603.404098 320.53106 629.555392 314.697198 
L 630.426309 318.601235 
z
" style="stroke: #000000; stroke-linecap: round"/>
   </g>
   <g id="text_15">
    <!-- Peak: RT=3.27, Area=2.64e+04 -->
    <g style="fill: #ff0000" transform="translate(635.662944 302.106379) scale(0.1 -0.1)">
     <defs>
      <path id="DejaVuSans-50" d="M 1259 4147 
L 1259 2394 
L 2053 2394 
Q 2494 2394 2734 2622 
Q 2975 2850 2975 3272 
Q 2975 3691 2734 3919 
Q 2494 4147 2053 4147 
L 1259 4147 
z
M 628 4666 
L 2053 4666 
Q 2838 4666 3239 4311 
Q 3641 3956 3641 3272 
Q 3641 2581 3239 2228 
Q 2838 1875 2053 1875 
L 1259 1875 
L 1259 0 
L 628 0 
L 628 4666 
z
" transform="scale(0.015625)"/>
      <path id="DejaVuSans-6b" d="M 581 4863 
L 1159 4863 
L 1159 1991 
L 2875 3500 
L 3609 3500 
L 1753 1863 
L 3688 0 
L 2938 0 
L 1159 1709 
L 1159 0 
L 581 0 
L 581 4863 
z
" transform="scale(0.015625)"/>
      <path id="DejaVuSans-3a" d="M 750 794 
L 1409 794 
L 1409 0 
L 750 0 
L 750 794 
z
M 750 3309 
L 1409 3309 
L 1409 2516 
L 750 2516 
L 750 3309 
z
" transform="scale(0.015625)"/>
      <path id="DejaVuSans-3d" d="M 678 2906 
L 4684 2906 
L 4684 2381 
L 678 2381 
L 678 2906 
z
M 678 1631 
L 4684 1631 
L 4684 1100 
L 678 1100 
L 678 1631 
z
" transform="scale(0.015625)"/>
      <path id="DejaVuSans-37" d="M 525 4666 
L 3525 4666 
L 3525 4397 
L 1831 0 
L 1172 0 
L 2766 4134 
L 525 4134 
L 525 4666 
z
" transform="scale(0.015625)"/>
      <path id="DejaVuSans-2c" d="M 750 794 
L 1409 794 
L 1409 256 
L 897 -744 
L 494 -744 
L 750 256 
L 750 794 
z
" transform="scale(0.015625)"/>
      <path id="DejaVuSans-41" d="M 2188 4044 
L 1331 1722 
L 3047 1722 
L 2188 4044 
z
M 1831 4666 
L 2547 4666 
L 4325 0 
L 3669 0 
L 3244 1197 
L 1141 1197 
L 716 0 
L 50 0 
L 1831 4666 
z
" transform="scale(0.015625)"/>
      <path id="DejaVuSans-36" d="M 2113 2584 
Q 1688 2584 1439 2293 
Q 1191 2003 1191 1497 
Q 1191 994 1439 701 
Q 1688 409 2113 409 
Q 2538 409 2786 701 
Q 3034 994 3034 1497 
Q 3034 2003 2786 2293 
Q 2538 2584 2113 2584 
z
M 3366 4563 
L 3366 3988 
Q 3128 4100 2886 4159 
Q 2644 4219 2406 4219 
Q 1781 4219 1451 3797 
Q 1122 3375 1075 2522 
Q 1259 2794 1537 2939 
Q 1816 3084 2150 3084 
Q 2853 3084 3261 2657 
Q 3669 2231 3669 1497 
Q 3669 778 3244 343 
Q 2819 -91 2113 -91 
Q 1303 -91 875 529 
Q 447 1150 447 2328 
Q 447 3434 972 4092 
Q 1497 4750 2381 4750 
Q 2619 4750 2861 4703 
Q 3103 4656 3366 4563 
z
" transform="scale(0.015625)"/>
      <path id="DejaVuSans-2b" d="M 2944 4013 
L 2944 2272 
L 4684 2272 
L 4684 1741 
L 2944 1741 
L 2944 0 
L 2419 0 
L 2419 1741 
L 678 1741 
L 678 2272 
L 2419 2272 
L 2419 4013 
L 2944 4013 
z
" transform="scale(0.015625)"/>
     </defs>
     <use xlink:href="#DejaVuSans-50"/>
     <use xlink:href="#DejaVuSans-65" transform="translate(56.677734 0)"/>
     <use xlink:href="#DejaVuSans-61" transform="translate(118.201172 0)"/>
     <use xlink:href="#DejaVuSans-6b" transform="translate(179.480469 0)"/>
     <use xlink:href="#DejaVuSans-3a" transform="translate(237.390625 0)"/>
     <use xlink:href="#DejaVuSans-20" transform="translate(271.082031 0)"/>
     <use xlink:href="#DejaVuSans-52" transform="translate(302.869141 0)"/>
     <use xlink:href="#DejaVuSans-54" transform="translate(365.101562 0)"/>
     <use xlink:href="#DejaVuSans-3d" transform="translate(426.185547 0)"/>
     <use xlink:href="#DejaVuSans-33" transform="translate(509.974609 0)"/>
     <use xlink:href="#DejaVuSans-2e" transform="translate(573.597656 0)"/>
     <use xlink:href="#DejaVuSans-32" transform="translate(605.384766 0)"/>
     <use xlink:href="#DejaVuSans-37" transform="translate(669.007812 0)"/>
     <use xlink:href="#DejaVuSans-2c" transform="translate(732.630859 0)"/>
     <use xlink:href="#DejaVuSans-20" transform="translate(764.417969 0)"/>
     <use xlink:href="#DejaVuSans-41" transform="translate(796.205078 0)"/>
     <use xlink:href="#DejaVuSans-72" transform="translate(864.613281 0)"/>
     <use xlink:href="#DejaVuSans-65" transform="translate(903.476562 0)"/>
     <use xlink:href="#DejaVuSans-61" transform="translate(965 0)"/>
     <use xlink:href="#DejaVuSans-3d" transform="translate(1026.279297 0)"/>
     <use xlink:href="#DejaVuSans-32" transform="translate(1110.068359 0)"/>
     <use xlink:href="#DejaVuSans-2e" transform="translate(1173.691406 0)"/>
     <use xlink:href="#DejaVuSans-36" transform="translate(1205.478516 0)"/>
     <use xlink:href="#DejaVuSans-34" transform="translate(1269.101562 0)"/>
     <use xlink:href="#DejaVuSans-65" transform="translate(1332.724609 0)"/>
     <use xlink:href="#DejaVuSans-2b" transform="translate(1394.248047 0)"/>
     <use xlink:href="#DejaVuSans-30" transform="translate(1478.037109 0)"/>
     <use xlink:href="#DejaVuSans-34" transform="translate(1541.660156 0)"/>
    </g>
    <!-- (54.19% of total) -->
    <g style="fill: #ff0000" transform="translate(635.662944 313.304191) scale(0.1 -0.1)">
     <defs>
      <path id="DejaVuSans-39" d="M 703 97 
L 703 672 
Q 941 559 1184 500 
Q 1428 441 1663 441 
Q 2288 441 2617 861 
Q 2947 1281 2994 2138 
Q 2813 1869 2534 1725 
Q 2256 1581 1919 1581 
Q 1219 1581 811 2004 
Q 403 2428 403 3163 
Q 403 3881 828 4315 
Q 1253 4750 1959 4750 
Q 2769 4750 3195 4129 
Q 3622 3509 3622 2328 
Q 3622 1225 3098 567 
Q 2575 -91 1691 -91 
Q 1453 -91 1209 -44 
Q 966 3 703 97 
z
M 1959 2075 
Q 2384 2075 2632 2365 
Q 2881 2656 2881 3163 
Q 2881 3666 2632 3958 
Q 2384 4250 1959 4250 
Q 1534 4250 1286 3958 
Q 1038 3666 1038 3163 
Q 1038 2656 1286 2365 
Q 1534 2075 1959 2075 
z
" transform="scale(0.015625)"/>
      <path id="DejaVuSans-25" d="M 4653 2053 
Q 4381 2053 4226 1822 
Q 4072 1591 4072 1178 
Q 4072 772 4226 539 
Q 4381 306 4653 306 
Q 4919 306 5073 539 
Q 5228 772 5228 1178 
Q 5228 1588 5073 1820 
Q 4919 2053 4653 2053 
z
M 4653 2450 
Q 5147 2450 5437 2106 
Q 5728 1763 5728 1178 
Q 5728 594 5436 251 
Q 5144 -91 4653 -91 
Q 4153 -91 3862 251 
Q 3572 594 3572 1178 
Q 3572 1766 3864 2108 
Q 4156 2450 4653 2450 
z
M 1428 4353 
Q 1159 4353 1004 4120 
Q 850 3888 850 3481 
Q 850 3069 1003 2837 
Q 1156 2606 1428 2606 
Q 1700 2606 1854 2837 
Q 2009 3069 2009 3481 
Q 2009 3884 1853 4118 
Q 1697 4353 1428 4353 
z
M 4250 4750 
L 4750 4750 
L 1831 -91 
L 1331 -91 
L 4250 4750 
z
M 1428 4750 
Q 1922 4750 2215 4408 
Q 2509 4066 2509 3481 
Q 2509 2891 2217 2550 
Q 1925 2209 1428 2209 
Q 931 2209 642 2551 
Q 353 2894 353 3481 
Q 353 4063 643 4406 
Q 934 4750 1428 4750 
z
" transform="scale(0.015625)"/>
      <path id="DejaVuSans-66" d="M 2375 4863 
L 2375 4384 
L 1825 4384 
Q 1516 4384 1395 4259 
Q 1275 4134 1275 3809 
L 1275 3500 
L 2222 3500 
L 2222 3053 
L 1275 3053 
L 1275 0 
L 697 0 
L 697 3053 
L 147 3053 
L 147 3500 
L 697 3500 
L 697 3744 
Q 697 4328 969 4595 
Q 1241 4863 1831 4863 
L 2375 4863 
z
" transform="scale(0.015625)"/>
     </defs>
     <use xlink:href="#DejaVuSans-28"/>
     <use xlink:href="#DejaVuSans-35" transform="translate(39.013672 0)"/>
     <use xlink:href="#DejaVuSans-34" transform="translate(102.636719 0)"/>
     <use xlink:href="#DejaVuSans-2e" transform="translate(166.259766 0)"/>
     <use xlink:href="#DejaVuSans-31" transform="translate(198.046875 0)"/>
     <use xlink:href="#DejaVuSans-39" transform="translate(261.669922 0)"/>
     <use xlink:href="#DejaVuSans-25" transform="translate(325.292969 0)"/>
     <use xlink:href="#DejaVuSans-20" transform="translate(420.3125 0)"/>
     <use xlink:href="#DejaVuSans-6f" transform="translate(452.099609 0)"/>
     <use xlink:href="#DejaVuSans-66" transform="translate(513.28125 0)"/>
     <use xlink:href="#DejaVuSans-20" transform="translate(548.486328 0)"/>
     <use xlink:href="#DejaVuSans-74" transform="translate(580.273438 0)"/>
     <use xlink:href="#DejaVuSans-6f" transform="translate(619.482422 0)"/>
     <use xlink:href="#DejaVuSans-74" transform="translate(680.664062 0)"/>
     <use xlink:href="#DejaVuSans-61" transform="translate(719.873047 0)"/>
     <use xlink:href="#DejaVuSans-6c" transform="translate(781.152344 0)"/>
     <use xlink:href="#DejaVuSans-29" transform="translate(808.935547 0)"/>
    </g>
   </g>
   <g id="text_16">
    <!-- UV and MS Chromatograms of IrCp4E2, target m/z = 747.1907127 -->
    <g transform="translate(250.345938 20.88) scale(0.12 -0.12)">
     <defs>
      <path id="DejaVuSans-55" d="M 556 4666 
L 1191 4666 
L 1191 1831 
Q 1191 1081 1462 751 
Q 1734 422 2344 422 
Q 2950 422 3222 751 
Q 3494 1081 3494 1831 
L 3494 4666 
L 4128 4666 
L 4128 1753 
Q 4128 841 3676 375 
Q 3225 -91 2344 -91 
Q 1459 -91 1007 375 
Q 556 841 556 1753 
L 556 4666 
z
" transform="scale(0.015625)"/>
      <path id="DejaVuSans-56" d="M 1831 0 
L 50 4666 
L 709 4666 
L 2188 738 
L 3669 4666 
L 4325 4666 
L 2547 0 
L 1831 0 
z
" transform="scale(0.015625)"/>
      <path id="DejaVuSans-4d" d="M 628 4666 
L 1569 4666 
L 2759 1491 
L 3956 4666 
L 4897 4666 
L 4897 0 
L 4281 0 
L 4281 4097 
L 3078 897 
L 2444 897 
L 1241 4097 
L 1241 0 
L 628 0 
L 628 4666 
z
" transform="scale(0.015625)"/>
      <path id="DejaVuSans-53" d="M 3425 4513 
L 3425 3897 
Q 3066 4069 2747 4153 
Q 2428 4238 2131 4238 
Q 1616 4238 1336 4038 
Q 1056 3838 1056 3469 
Q 1056 3159 1242 3001 
Q 1428 2844 1947 2747 
L 2328 2669 
Q 3034 2534 3370 2195 
Q 3706 1856 3706 1288 
Q 3706 609 3251 259 
Q 2797 -91 1919 -91 
Q 1588 -91 1214 -16 
Q 841 59 441 206 
L 441 856 
Q 825 641 1194 531 
Q 1563 422 1919 422 
Q 2459 422 2753 634 
Q 3047 847 3047 1241 
Q 3047 1584 2836 1778 
Q 2625 1972 2144 2069 
L 1759 2144 
Q 1053 2284 737 2584 
Q 422 2884 422 3419 
Q 422 4038 858 4394 
Q 1294 4750 2059 4750 
Q 2388 4750 2728 4690 
Q 3069 4631 3425 4513 
z
" transform="scale(0.015625)"/>
      <path id="DejaVuSans-43" d="M 4122 4306 
L 4122 3641 
Q 3803 3938 3442 4084 
Q 3081 4231 2675 4231 
Q 1875 4231 1450 3742 
Q 1025 3253 1025 2328 
Q 1025 1406 1450 917 
Q 1875 428 2675 428 
Q 3081 428 3442 575 
Q 3803 722 4122 1019 
L 4122 359 
Q 3791 134 3420 21 
Q 3050 -91 2638 -91 
Q 1578 -91 968 557 
Q 359 1206 359 2328 
Q 359 3453 968 4101 
Q 1578 4750 2638 4750 
Q 3056 4750 3426 4639 
Q 3797 4528 4122 4306 
z
" transform="scale(0.015625)"/>
      <path id="DejaVuSans-68" d="M 3513 2113 
L 3513 0 
L 2938 0 
L 2938 2094 
Q 2938 2591 2744 2837 
Q 2550 3084 2163 3084 
Q 1697 3084 1428 2787 
Q 1159 2491 1159 1978 
L 1159 0 
L 581 0 
L 581 4863 
L 1159 4863 
L 1159 2956 
Q 1366 3272 1645 3428 
Q 1925 3584 2291 3584 
Q 2894 3584 3203 3211 
Q 3513 2838 3513 2113 
z
" transform="scale(0.015625)"/>
      <path id="DejaVuSans-67" d="M 2906 1791 
Q 2906 2416 2648 2759 
Q 2391 3103 1925 3103 
Q 1463 3103 1205 2759 
Q 947 2416 947 1791 
Q 947 1169 1205 825 
Q 1463 481 1925 481 
Q 2391 481 2648 825 
Q 2906 1169 2906 1791 
z
M 3481 434 
Q 3481 -459 3084 -895 
Q 2688 -1331 1869 -1331 
Q 1566 -1331 1297 -1286 
Q 1028 -1241 775 -1147 
L 775 -588 
Q 1028 -725 1275 -790 
Q 1522 -856 1778 -856 
Q 2344 -856 2625 -561 
Q 2906 -266 2906 331 
L 2906 616 
Q 2728 306 2450 153 
Q 2172 0 1784 0 
Q 1141 0 747 490 
Q 353 981 353 1791 
Q 353 2603 747 3093 
Q 1141 3584 1784 3584 
Q 2172 3584 2450 3431 
Q 2728 3278 2906 2969 
L 2906 3500 
L 3481 3500 
L 3481 434 
z
" transform="scale(0.015625)"/>
      <path id="DejaVuSans-70" d="M 1159 525 
L 1159 -1331 
L 581 -1331 
L 581 3500 
L 1159 3500 
L 1159 2969 
Q 1341 3281 1617 3432 
Q 1894 3584 2278 3584 
Q 2916 3584 3314 3078 
Q 3713 2572 3713 1747 
Q 3713 922 3314 415 
Q 2916 -91 2278 -91 
Q 1894 -91 1617 61 
Q 1341 213 1159 525 
z
M 3116 1747 
Q 3116 2381 2855 2742 
Q 2594 3103 2138 3103 
Q 1681 3103 1420 2742 
Q 1159 2381 1159 1747 
Q 1159 1113 1420 752 
Q 1681 391 2138 391 
Q 2594 391 2855 752 
Q 3116 1113 3116 1747 
z
" transform="scale(0.015625)"/>
      <path id="DejaVuSans-45" d="M 628 4666 
L 3578 4666 
L 3578 4134 
L 1259 4134 
L 1259 2753 
L 3481 2753 
L 3481 2222 
L 1259 2222 
L 1259 531 
L 3634 531 
L 3634 0 
L 628 0 
L 628 4666 
z
" transform="scale(0.015625)"/>
      <path id="DejaVuSans-2f" d="M 1625 4666 
L 2156 4666 
L 531 -594 
L 0 -594 
L 1625 4666 
z
" transform="scale(0.015625)"/>
     </defs>
     <use xlink:href="#DejaVuSans-55"/>
     <use xlink:href="#DejaVuSans-56" transform="translate(73.193359 0)"/>
     <use xlink:href="#DejaVuSans-20" transform="translate(141.601562 0)"/>
     <use xlink:href="#DejaVuSans-61" transform="translate(173.388672 0)"/>
     <use xlink:href="#DejaVuSans-6e" transform="translate(234.667969 0)"/>
     <use xlink:href="#DejaVuSans-64" transform="translate(298.046875 0)"/>
     <use xlink:href="#DejaVuSans-20" transform="translate(361.523438 0)"/>
     <use xlink:href="#DejaVuSans-4d" transform="translate(393.310547 0)"/>
     <use xlink:href="#DejaVuSans-53" transform="translate(479.589844 0)"/>
     <use xlink:href="#DejaVuSans-20" transform="translate(543.066406 0)"/>
     <use xlink:href="#DejaVuSans-43" transform="translate(574.853516 0)"/>
     <use xlink:href="#DejaVuSans-68" transform="translate(644.677734 0)"/>
     <use xlink:href="#DejaVuSans-72" transform="translate(708.056641 0)"/>
     <use xlink:href="#DejaVuSans-6f" transform="translate(746.919922 0)"/>
     <use xlink:href="#DejaVuSans-6d" transform="translate(808.101562 0)"/>
     <use xlink:href="#DejaVuSans-61" transform="translate(905.513672 0)"/>
     <use xlink:href="#DejaVuSans-74" transform="translate(966.792969 0)"/>
     <use xlink:href="#DejaVuSans-6f" transform="translate(1006.001953 0)"/>
     <use xlink:href="#DejaVuSans-67" transform="translate(1067.183594 0)"/>
     <use xlink:href="#DejaVuSans-72" transform="translate(1130.660156 0)"/>
     <use xlink:href="#DejaVuSans-61" transform="translate(1171.773438 0)"/>
     <use xlink:href="#DejaVuSans-6d" transform="translate(1233.052734 0)"/>
     <use xlink:href="#DejaVuSans-73" transform="translate(1330.464844 0)"/>
     <use xlink:href="#DejaVuSans-20" transform="translate(1382.564453 0)"/>
     <use xlink:href="#DejaVuSans-6f" transform="translate(1414.351562 0)"/>
     <use xlink:href="#DejaVuSans-66" transform="translate(1475.533203 0)"/>
     <use xlink:href="#DejaVuSans-20" transform="translate(1510.738281 0)"/>
     <use xlink:href="#DejaVuSans-49" transform="translate(1542.525391 0)"/>
     <use xlink:href="#DejaVuSans-72" transform="translate(1572.017578 0)"/>
     <use xlink:href="#DejaVuSans-43" transform="translate(1613.130859 0)"/>
     <use xlink:href="#DejaVuSans-70" transform="translate(1682.955078 0)"/>
     <use xlink:href="#DejaVuSans-34" transform="translate(1746.431641 0)"/>
     <use xlink:href="#DejaVuSans-45" transform="translate(1810.054688 0)"/>
     <use xlink:href="#DejaVuSans-32" transform="translate(1873.238281 0)"/>
     <use xlink:href="#DejaVuSans-2c" transform="translate(1936.861328 0)"/>
     <use xlink:href="#DejaVuSans-20" transform="translate(1968.648438 0)"/>
     <use xlink:href="#DejaVuSans-74" transform="translate(2000.435547 0)"/>
     <use xlink:href="#DejaVuSans-61" transform="translate(2039.644531 0)"/>
     <use xlink:href="#DejaVuSans-72" transform="translate(2100.923828 0)"/>
     <use xlink:href="#DejaVuSans-67" transform="translate(2140.287109 0)"/>
     <use xlink:href="#DejaVuSans-65" transform="translate(2203.763672 0)"/>
     <use xlink:href="#DejaVuSans-74" transform="translate(2265.287109 0)"/>
     <use xlink:href="#DejaVuSans-20" transform="translate(2304.496094 0)"/>
     <use xlink:href="#DejaVuSans-6d" transform="translate(2336.283203 0)"/>
     <use xlink:href="#DejaVuSans-2f" transform="translate(2433.695312 0)"/>
     <use xlink:href="#DejaVuSans-7a" transform="translate(2467.386719 0)"/>
     <use xlink:href="#DejaVuSans-20" transform="translate(2519.876953 0)"/>
     <use xlink:href="#DejaVuSans-3d" transform="translate(2551.664062 0)"/>
     <use xlink:href="#DejaVuSans-20" transform="translate(2635.453125 0)"/>
     <use xlink:href="#DejaVuSans-37" transform="translate(2667.240234 0)"/>
     <use xlink:href="#DejaVuSans-34" transform="translate(2730.863281 0)"/>
     <use xlink:href="#DejaVuSans-37" transform="translate(2794.486328 0)"/>
     <use xlink:href="#DejaVuSans-2e" transform="translate(2858.109375 0)"/>
     <use xlink:href="#DejaVuSans-31" transform="translate(2889.896484 0)"/>
     <use xlink:href="#DejaVuSans-39" transform="translate(2953.519531 0)"/>
     <use xlink:href="#DejaVuSans-30" transform="translate(3017.142578 0)"/>
     <use xlink:href="#DejaVuSans-37" transform="translate(3080.765625 0)"/>
     <use xlink:href="#DejaVuSans-31" transform="translate(3144.388672 0)"/>
     <use xlink:href="#DejaVuSans-32" transform="translate(3208.011719 0)"/>
     <use xlink:href="#DejaVuSans-37" transform="translate(3271.634766 0)"/>
    </g>
   </g>
   <g id="legend_1">
    <g id="patch_8">
     <path d="M 685.971875 64.23625 
L 846.2 64.23625 
Q 848.2 64.23625 848.2 62.23625 
L 848.2 33.88 
Q 848.2 31.88 846.2 31.88 
L 685.971875 31.88 
Q 683.971875 31.88 683.971875 33.88 
L 683.971875 62.23625 
Q 683.971875 64.23625 685.971875 64.23625 
z
" style="fill: #ffffff; opacity: 0.8; stroke: #cccccc; stroke-linejoin: miter"/>
    </g>
    <g id="line2d_15">
     <path d="M 687.971875 39.978437 
L 697.971875 39.978437 
L 707.971875 39.978437 
" style="fill: none; stroke: #0000ff; stroke-width: 1.5; stroke-linecap: square"/>
    </g>
    <g id="text_17">
     <!-- UV Intensity (normalized) -->
     <g transform="translate(715.971875 43.478437) scale(0.1 -0.1)">
      <use xlink:href="#DejaVuSans-55"/>
      <use xlink:href="#DejaVuSans-56" transform="translate(73.193359 0)"/>
      <use xlink:href="#DejaVuSans-20" transform="translate(141.601562 0)"/>
      <use xlink:href="#DejaVuSans-49" transform="translate(173.388672 0)"/>
      <use xlink:href="#DejaVuSans-6e" transform="translate(202.880859 0)"/>
      <use xlink:href="#DejaVuSans-74" transform="translate(266.259766 0)"/>
      <use xlink:href="#DejaVuSans-65" transform="translate(305.46875 0)"/>
      <use xlink:href="#DejaVuSans-6e" transform="translate(366.992188 0)"/>
      <use xlink:href="#DejaVuSans-73" transform="translate(430.371094 0)"/>
      <use xlink:href="#DejaVuSans-69" transform="translate(482.470703 0)"/>
      <use xlink:href="#DejaVuSans-74" transform="translate(510.253906 0)"/>
      <use xlink:href="#DejaVuSans-79" transform="translate(549.462891 0)"/>
      <use xlink:href="#DejaVuSans-20" transform="translate(608.642578 0)"/>
      <use xlink:href="#DejaVuSans-28" transform="translate(640.429688 0)"/>
      <use xlink:href="#DejaVuSans-6e" transform="translate(679.443359 0)"/>
      <use xlink:href="#DejaVuSans-6f" transform="translate(742.822266 0)"/>
      <use xlink:href="#DejaVuSans-72" transform="translate(804.003906 0)"/>
      <use xlink:href="#DejaVuSans-6d" transform="translate(843.367188 0)"/>
      <use xlink:href="#DejaVuSans-61" transform="translate(940.779297 0)"/>
      <use xlink:href="#DejaVuSans-6c" transform="translate(1002.058594 0)"/>
      <use xlink:href="#DejaVuSans-69" transform="translate(1029.841797 0)"/>
      <use xlink:href="#DejaVuSans-7a" transform="translate(1057.625 0)"/>
      <use xlink:href="#DejaVuSans-65" transform="translate(1110.115234 0)"/>
      <use xlink:href="#DejaVuSans-64" transform="translate(1171.638672 0)"/>
      <use xlink:href="#DejaVuSans-29" transform="translate(1235.115234 0)"/>
     </g>
    </g>
    <g id="line2d_16">
     <path d="M 687.971875 54.656562 
L 697.971875 54.656562 
L 707.971875 54.656562 
" style="fill: none; stroke: #008000; stroke-width: 1.5; stroke-linecap: square"/>
    </g>
    <g id="text_18">
     <!-- MS Intensity (normalized) -->
     <g transform="translate(715.971875 58.156562) scale(0.1 -0.1)">
      <use xlink:href="#DejaVuSans-4d"/>
      <use xlink:href="#DejaVuSans-53" transform="translate(86.279297 0)"/>
      <use xlink:href="#DejaVuSans-20" transform="translate(149.755859 0)"/>
      <use xlink:href="#DejaVuSans-49" transform="translate(181.542969 0)"/>
      <use xlink:href="#DejaVuSans-6e" transform="translate(211.035156 0)"/>
      <use xlink:href="#DejaVuSans-74" transform="translate(274.414062 0)"/>
      <use xlink:href="#DejaVuSans-65" transform="translate(313.623047 0)"/>
      <use xlink:href="#DejaVuSans-6e" transform="translate(375.146484 0)"/>
      <use xlink:href="#DejaVuSans-73" transform="translate(438.525391 0)"/>
      <use xlink:href="#DejaVuSans-69" transform="translate(490.625 0)"/>
      <use xlink:href="#DejaVuSans-74" transform="translate(518.408203 0)"/>
      <use xlink:href="#DejaVuSans-79" transform="translate(557.617188 0)"/>
      <use xlink:href="#DejaVuSans-20" transform="translate(616.796875 0)"/>
      <use xlink:href="#DejaVuSans-28" transform="translate(648.583984 0)"/>
      <use xlink:href="#DejaVuSans-6e" transform="translate(687.597656 0)"/>
      <use xlink:href="#DejaVuSans-6f" transform="translate(750.976562 0)"/>
      <use xlink:href="#DejaVuSans-72" transform="translate(812.158203 0)"/>
      <use xlink:href="#DejaVuSans-6d" transform="translate(851.521484 0)"/>
      <use xlink:href="#DejaVuSans-61" transform="translate(948.933594 0)"/>
      <use xlink:href="#DejaVuSans-6c" transform="translate(1010.212891 0)"/>
      <use xlink:href="#DejaVuSans-69" transform="translate(1037.996094 0)"/>
      <use xlink:href="#DejaVuSans-7a" transform="translate(1065.779297 0)"/>
      <use xlink:href="#DejaVuSans-65" transform="translate(1118.269531 0)"/>
      <use xlink:href="#DejaVuSans-64" transform="translate(1179.792969 0)"/>
      <use xlink:href="#DejaVuSans-29" transform="translate(1243.269531 0)"/>
     </g>
    </g>
   </g>
  </g>
 </g>
 <defs>
  <clipPath id="p1ea91259e0">
   <rect x="47.72" y="26.88" width="805.48" height="507.16"/>
  </clipPath>
 </defs>
</svg>
