<?xml version="1.0" encoding="utf-8" standalone="no"?>
<!DOCTYPE svg PUBLIC "-//W3C//DTD SVG 1.1//EN"
  "http://www.w3.org/Graphics/SVG/1.1/DTD/svg11.dtd">
<svg xmlns:xlink="http://www.w3.org/1999/xlink" width="864pt" height="576pt" viewBox="0 0 864 576" xmlns="http://www.w3.org/2000/svg" version="1.1">
 <metadata>
  <rdf:RDF xmlns:dc="http://purl.org/dc/elements/1.1/" xmlns:cc="http://creativecommons.org/ns#" xmlns:rdf="http://www.w3.org/1999/02/22-rdf-syntax-ns#">
   <cc:Work>
    <dc:type rdf:resource="http://purl.org/dc/dcmitype/StillImage"/>
    <dc:date>2025-03-06T18:34:26.555449</dc:date>
    <dc:format>image/svg+xml</dc:format>
    <dc:creator>
     <cc:Agent>
      <dc:title>Matplotlib v3.10.0, https://matplotlib.org/</dc:title>
     </cc:Agent>
    </dc:creator>
   </cc:Work>
  </rdf:RDF>
 </metadata>
 <defs>
  <style type="text/css">*{stroke-linejoin: round; stroke-linecap: butt}</style>
 </defs>
 <g id="figure_1">
  <g id="patch_1">
   <path d="M 0 576 
L 864 576 
L 864 0 
L 0 0 
z
" style="fill: #ffffff"/>
  </g>
  <g id="axes_1">
   <g id="patch_2">
    <path d="M 47.72 534.04 
L 853.2 534.04 
L 853.2 26.88 
L 47.72 26.88 
z
" style="fill: #ffffff"/>
   </g>
   <g id="matplotlib.axis_1">
    <g id="xtick_1">
     <g id="line2d_1">
      <defs>
       <path id="m7f4c4803e3" d="M 0 0 
L 0 3.5 
" style="stroke: #000000; stroke-width: 0.8"/>
      </defs>
      <g>
       <use xlink:href="#m7f4c4803e3" x="83.093151" y="534.04" style="stroke: #000000; stroke-width: 0.8"/>
      </g>
     </g>
     <g id="text_1">
      <!-- 0 -->
      <g transform="translate(79.911901 548.638438) scale(0.1 -0.1)">
       <defs>
        <path id="DejaVuSans-30" d="M 2034 4250 
Q 1547 4250 1301 3770 
Q 1056 3291 1056 2328 
Q 1056 1369 1301 889 
Q 1547 409 2034 409 
Q 2525 409 2770 889 
Q 3016 1369 3016 2328 
Q 3016 3291 2770 3770 
Q 2525 4250 2034 4250 
z
M 2034 4750 
Q 2819 4750 3233 4129 
Q 3647 3509 3647 2328 
Q 3647 1150 3233 529 
Q 2819 -91 2034 -91 
Q 1250 -91 836 529 
Q 422 1150 422 2328 
Q 422 3509 836 4129 
Q 1250 4750 2034 4750 
z
" transform="scale(0.015625)"/>
       </defs>
       <use xlink:href="#DejaVuSans-30"/>
      </g>
     </g>
    </g>
    <g id="xtick_2">
     <g id="line2d_2">
      <g>
       <use xlink:href="#m7f4c4803e3" x="229.788553" y="534.04" style="stroke: #000000; stroke-width: 0.8"/>
      </g>
     </g>
     <g id="text_2">
      <!-- 1 -->
      <g transform="translate(226.607303 548.638438) scale(0.1 -0.1)">
       <defs>
        <path id="DejaVuSans-31" d="M 794 531 
L 1825 531 
L 1825 4091 
L 703 3866 
L 703 4441 
L 1819 4666 
L 2450 4666 
L 2450 531 
L 3481 531 
L 3481 0 
L 794 0 
L 794 531 
z
" transform="scale(0.015625)"/>
       </defs>
       <use xlink:href="#DejaVuSans-31"/>
      </g>
     </g>
    </g>
    <g id="xtick_3">
     <g id="line2d_3">
      <g>
       <use xlink:href="#m7f4c4803e3" x="376.483954" y="534.04" style="stroke: #000000; stroke-width: 0.8"/>
      </g>
     </g>
     <g id="text_3">
      <!-- 2 -->
      <g transform="translate(373.302704 548.638438) scale(0.1 -0.1)">
       <defs>
        <path id="DejaVuSans-32" d="M 1228 531 
L 3431 531 
L 3431 0 
L 469 0 
L 469 531 
Q 828 903 1448 1529 
Q 2069 2156 2228 2338 
Q 2531 2678 2651 2914 
Q 2772 3150 2772 3378 
Q 2772 3750 2511 3984 
Q 2250 4219 1831 4219 
Q 1534 4219 1204 4116 
Q 875 4013 500 3803 
L 500 4441 
Q 881 4594 1212 4672 
Q 1544 4750 1819 4750 
Q 2544 4750 2975 4387 
Q 3406 4025 3406 3419 
Q 3406 3131 3298 2873 
Q 3191 2616 2906 2266 
Q 2828 2175 2409 1742 
Q 1991 1309 1228 531 
z
" transform="scale(0.015625)"/>
       </defs>
       <use xlink:href="#DejaVuSans-32"/>
      </g>
     </g>
    </g>
    <g id="xtick_4">
     <g id="line2d_4">
      <g>
       <use xlink:href="#m7f4c4803e3" x="523.179355" y="534.04" style="stroke: #000000; stroke-width: 0.8"/>
      </g>
     </g>
     <g id="text_4">
      <!-- 3 -->
      <g transform="translate(519.998105 548.638438) scale(0.1 -0.1)">
       <defs>
        <path id="DejaVuSans-33" d="M 2597 2516 
Q 3050 2419 3304 2112 
Q 3559 1806 3559 1356 
Q 3559 666 3084 287 
Q 2609 -91 1734 -91 
Q 1441 -91 1130 -33 
Q 819 25 488 141 
L 488 750 
Q 750 597 1062 519 
Q 1375 441 1716 441 
Q 2309 441 2620 675 
Q 2931 909 2931 1356 
Q 2931 1769 2642 2001 
Q 2353 2234 1838 2234 
L 1294 2234 
L 1294 2753 
L 1863 2753 
Q 2328 2753 2575 2939 
Q 2822 3125 2822 3475 
Q 2822 3834 2567 4026 
Q 2313 4219 1838 4219 
Q 1578 4219 1281 4162 
Q 984 4106 628 3988 
L 628 4550 
Q 988 4650 1302 4700 
Q 1616 4750 1894 4750 
Q 2613 4750 3031 4423 
Q 3450 4097 3450 3541 
Q 3450 3153 3228 2886 
Q 3006 2619 2597 2516 
z
" transform="scale(0.015625)"/>
       </defs>
       <use xlink:href="#DejaVuSans-33"/>
      </g>
     </g>
    </g>
    <g id="xtick_5">
     <g id="line2d_5">
      <g>
       <use xlink:href="#m7f4c4803e3" x="669.874757" y="534.04" style="stroke: #000000; stroke-width: 0.8"/>
      </g>
     </g>
     <g id="text_5">
      <!-- 4 -->
      <g transform="translate(666.693507 548.638438) scale(0.1 -0.1)">
       <defs>
        <path id="DejaVuSans-34" d="M 2419 4116 
L 825 1625 
L 2419 1625 
L 2419 4116 
z
M 2253 4666 
L 3047 4666 
L 3047 1625 
L 3713 1625 
L 3713 1100 
L 3047 1100 
L 3047 0 
L 2419 0 
L 2419 1100 
L 313 1100 
L 313 1709 
L 2253 4666 
z
" transform="scale(0.015625)"/>
       </defs>
       <use xlink:href="#DejaVuSans-34"/>
      </g>
     </g>
    </g>
    <g id="xtick_6">
     <g id="line2d_6">
      <g>
       <use xlink:href="#m7f4c4803e3" x="816.570158" y="534.04" style="stroke: #000000; stroke-width: 0.8"/>
      </g>
     </g>
     <g id="text_6">
      <!-- 5 -->
      <g transform="translate(813.388908 548.638438) scale(0.1 -0.1)">
       <defs>
        <path id="DejaVuSans-35" d="M 691 4666 
L 3169 4666 
L 3169 4134 
L 1269 4134 
L 1269 2991 
Q 1406 3038 1543 3061 
Q 1681 3084 1819 3084 
Q 2600 3084 3056 2656 
Q 3513 2228 3513 1497 
Q 3513 744 3044 326 
Q 2575 -91 1722 -91 
Q 1428 -91 1123 -41 
Q 819 9 494 109 
L 494 744 
Q 775 591 1075 516 
Q 1375 441 1709 441 
Q 2250 441 2565 725 
Q 2881 1009 2881 1497 
Q 2881 1984 2565 2268 
Q 2250 2553 1709 2553 
Q 1456 2553 1204 2497 
Q 953 2441 691 2322 
L 691 4666 
z
" transform="scale(0.015625)"/>
       </defs>
       <use xlink:href="#DejaVuSans-35"/>
      </g>
     </g>
    </g>
    <g id="text_7">
     <!-- Retention Time (min) -->
     <g transform="translate(397.61 562.316562) scale(0.1 -0.1)">
      <defs>
       <path id="DejaVuSans-52" d="M 2841 2188 
Q 3044 2119 3236 1894 
Q 3428 1669 3622 1275 
L 4263 0 
L 3584 0 
L 2988 1197 
Q 2756 1666 2539 1819 
Q 2322 1972 1947 1972 
L 1259 1972 
L 1259 0 
L 628 0 
L 628 4666 
L 2053 4666 
Q 2853 4666 3247 4331 
Q 3641 3997 3641 3322 
Q 3641 2881 3436 2590 
Q 3231 2300 2841 2188 
z
M 1259 4147 
L 1259 2491 
L 2053 2491 
Q 2509 2491 2742 2702 
Q 2975 2913 2975 3322 
Q 2975 3731 2742 3939 
Q 2509 4147 2053 4147 
L 1259 4147 
z
" transform="scale(0.015625)"/>
       <path id="DejaVuSans-65" d="M 3597 1894 
L 3597 1613 
L 953 1613 
Q 991 1019 1311 708 
Q 1631 397 2203 397 
Q 2534 397 2845 478 
Q 3156 559 3463 722 
L 3463 178 
Q 3153 47 2828 -22 
Q 2503 -91 2169 -91 
Q 1331 -91 842 396 
Q 353 884 353 1716 
Q 353 2575 817 3079 
Q 1281 3584 2069 3584 
Q 2775 3584 3186 3129 
Q 3597 2675 3597 1894 
z
M 3022 2063 
Q 3016 2534 2758 2815 
Q 2500 3097 2075 3097 
Q 1594 3097 1305 2825 
Q 1016 2553 972 2059 
L 3022 2063 
z
" transform="scale(0.015625)"/>
       <path id="DejaVuSans-74" d="M 1172 4494 
L 1172 3500 
L 2356 3500 
L 2356 3053 
L 1172 3053 
L 1172 1153 
Q 1172 725 1289 603 
Q 1406 481 1766 481 
L 2356 481 
L 2356 0 
L 1766 0 
Q 1100 0 847 248 
Q 594 497 594 1153 
L 594 3053 
L 172 3053 
L 172 3500 
L 594 3500 
L 594 4494 
L 1172 4494 
z
" transform="scale(0.015625)"/>
       <path id="DejaVuSans-6e" d="M 3513 2113 
L 3513 0 
L 2938 0 
L 2938 2094 
Q 2938 2591 2744 2837 
Q 2550 3084 2163 3084 
Q 1697 3084 1428 2787 
Q 1159 2491 1159 1978 
L 1159 0 
L 581 0 
L 581 3500 
L 1159 3500 
L 1159 2956 
Q 1366 3272 1645 3428 
Q 1925 3584 2291 3584 
Q 2894 3584 3203 3211 
Q 3513 2838 3513 2113 
z
" transform="scale(0.015625)"/>
       <path id="DejaVuSans-69" d="M 603 3500 
L 1178 3500 
L 1178 0 
L 603 0 
L 603 3500 
z
M 603 4863 
L 1178 4863 
L 1178 4134 
L 603 4134 
L 603 4863 
z
" transform="scale(0.015625)"/>
       <path id="DejaVuSans-6f" d="M 1959 3097 
Q 1497 3097 1228 2736 
Q 959 2375 959 1747 
Q 959 1119 1226 758 
Q 1494 397 1959 397 
Q 2419 397 2687 759 
Q 2956 1122 2956 1747 
Q 2956 2369 2687 2733 
Q 2419 3097 1959 3097 
z
M 1959 3584 
Q 2709 3584 3137 3096 
Q 3566 2609 3566 1747 
Q 3566 888 3137 398 
Q 2709 -91 1959 -91 
Q 1206 -91 779 398 
Q 353 888 353 1747 
Q 353 2609 779 3096 
Q 1206 3584 1959 3584 
z
" transform="scale(0.015625)"/>
       <path id="DejaVuSans-20" transform="scale(0.015625)"/>
       <path id="DejaVuSans-54" d="M -19 4666 
L 3928 4666 
L 3928 4134 
L 2272 4134 
L 2272 0 
L 1638 0 
L 1638 4134 
L -19 4134 
L -19 4666 
z
" transform="scale(0.015625)"/>
       <path id="DejaVuSans-6d" d="M 3328 2828 
Q 3544 3216 3844 3400 
Q 4144 3584 4550 3584 
Q 5097 3584 5394 3201 
Q 5691 2819 5691 2113 
L 5691 0 
L 5113 0 
L 5113 2094 
Q 5113 2597 4934 2840 
Q 4756 3084 4391 3084 
Q 3944 3084 3684 2787 
Q 3425 2491 3425 1978 
L 3425 0 
L 2847 0 
L 2847 2094 
Q 2847 2600 2669 2842 
Q 2491 3084 2119 3084 
Q 1678 3084 1418 2786 
Q 1159 2488 1159 1978 
L 1159 0 
L 581 0 
L 581 3500 
L 1159 3500 
L 1159 2956 
Q 1356 3278 1631 3431 
Q 1906 3584 2284 3584 
Q 2666 3584 2933 3390 
Q 3200 3197 3328 2828 
z
" transform="scale(0.015625)"/>
       <path id="DejaVuSans-28" d="M 1984 4856 
Q 1566 4138 1362 3434 
Q 1159 2731 1159 2009 
Q 1159 1288 1364 580 
Q 1569 -128 1984 -844 
L 1484 -844 
Q 1016 -109 783 600 
Q 550 1309 550 2009 
Q 550 2706 781 3412 
Q 1013 4119 1484 4856 
L 1984 4856 
z
" transform="scale(0.015625)"/>
       <path id="DejaVuSans-29" d="M 513 4856 
L 1013 4856 
Q 1481 4119 1714 3412 
Q 1947 2706 1947 2009 
Q 1947 1309 1714 600 
Q 1481 -109 1013 -844 
L 513 -844 
Q 928 -128 1133 580 
Q 1338 1288 1338 2009 
Q 1338 2731 1133 3434 
Q 928 4138 513 4856 
z
" transform="scale(0.015625)"/>
      </defs>
      <use xlink:href="#DejaVuSans-52"/>
      <use xlink:href="#DejaVuSans-65" transform="translate(64.982422 0)"/>
      <use xlink:href="#DejaVuSans-74" transform="translate(126.505859 0)"/>
      <use xlink:href="#DejaVuSans-65" transform="translate(165.714844 0)"/>
      <use xlink:href="#DejaVuSans-6e" transform="translate(227.238281 0)"/>
      <use xlink:href="#DejaVuSans-74" transform="translate(290.617188 0)"/>
      <use xlink:href="#DejaVuSans-69" transform="translate(329.826172 0)"/>
      <use xlink:href="#DejaVuSans-6f" transform="translate(357.609375 0)"/>
      <use xlink:href="#DejaVuSans-6e" transform="translate(418.791016 0)"/>
      <use xlink:href="#DejaVuSans-20" transform="translate(482.169922 0)"/>
      <use xlink:href="#DejaVuSans-54" transform="translate(513.957031 0)"/>
      <use xlink:href="#DejaVuSans-69" transform="translate(571.916016 0)"/>
      <use xlink:href="#DejaVuSans-6d" transform="translate(599.699219 0)"/>
      <use xlink:href="#DejaVuSans-65" transform="translate(697.111328 0)"/>
      <use xlink:href="#DejaVuSans-20" transform="translate(758.634766 0)"/>
      <use xlink:href="#DejaVuSans-28" transform="translate(790.421875 0)"/>
      <use xlink:href="#DejaVuSans-6d" transform="translate(829.435547 0)"/>
      <use xlink:href="#DejaVuSans-69" transform="translate(926.847656 0)"/>
      <use xlink:href="#DejaVuSans-6e" transform="translate(954.630859 0)"/>
      <use xlink:href="#DejaVuSans-29" transform="translate(1018.009766 0)"/>
     </g>
    </g>
   </g>
   <g id="matplotlib.axis_2">
    <g id="ytick_1">
     <g id="line2d_7">
      <defs>
       <path id="m49e870f27f" d="M 0 0 
L -3.5 0 
" style="stroke: #000000; stroke-width: 0.8"/>
      </defs>
      <g>
       <use xlink:href="#m49e870f27f" x="47.72" y="510.987273" style="stroke: #000000; stroke-width: 0.8"/>
      </g>
     </g>
     <g id="text_8">
      <!-- 0.0 -->
      <g style="fill: #0000ff" transform="translate(24.816875 514.786491) scale(0.1 -0.1)">
       <defs>
        <path id="DejaVuSans-2e" d="M 684 794 
L 1344 794 
L 1344 0 
L 684 0 
L 684 794 
z
" transform="scale(0.015625)"/>
       </defs>
       <use xlink:href="#DejaVuSans-30"/>
       <use xlink:href="#DejaVuSans-2e" transform="translate(63.623047 0)"/>
       <use xlink:href="#DejaVuSans-30" transform="translate(95.410156 0)"/>
      </g>
     </g>
    </g>
    <g id="ytick_2">
     <g id="line2d_8">
      <g>
       <use xlink:href="#m49e870f27f" x="47.72" y="418.776364" style="stroke: #000000; stroke-width: 0.8"/>
      </g>
     </g>
     <g id="text_9">
      <!-- 0.5 -->
      <g style="fill: #0000ff" transform="translate(24.816875 422.575582) scale(0.1 -0.1)">
       <use xlink:href="#DejaVuSans-30"/>
       <use xlink:href="#DejaVuSans-2e" transform="translate(63.623047 0)"/>
       <use xlink:href="#DejaVuSans-35" transform="translate(95.410156 0)"/>
      </g>
     </g>
    </g>
    <g id="ytick_3">
     <g id="line2d_9">
      <g>
       <use xlink:href="#m49e870f27f" x="47.72" y="326.565455" style="stroke: #000000; stroke-width: 0.8"/>
      </g>
     </g>
     <g id="text_10">
      <!-- 1.0 -->
      <g style="fill: #0000ff" transform="translate(24.816875 330.364673) scale(0.1 -0.1)">
       <use xlink:href="#DejaVuSans-31"/>
       <use xlink:href="#DejaVuSans-2e" transform="translate(63.623047 0)"/>
       <use xlink:href="#DejaVuSans-30" transform="translate(95.410156 0)"/>
      </g>
     </g>
    </g>
    <g id="ytick_4">
     <g id="line2d_10">
      <g>
       <use xlink:href="#m49e870f27f" x="47.72" y="234.354545" style="stroke: #000000; stroke-width: 0.8"/>
      </g>
     </g>
     <g id="text_11">
      <!-- 1.5 -->
      <g style="fill: #0000ff" transform="translate(24.816875 238.153764) scale(0.1 -0.1)">
       <use xlink:href="#DejaVuSans-31"/>
       <use xlink:href="#DejaVuSans-2e" transform="translate(63.623047 0)"/>
       <use xlink:href="#DejaVuSans-35" transform="translate(95.410156 0)"/>
      </g>
     </g>
    </g>
    <g id="ytick_5">
     <g id="line2d_11">
      <g>
       <use xlink:href="#m49e870f27f" x="47.72" y="142.143636" style="stroke: #000000; stroke-width: 0.8"/>
      </g>
     </g>
     <g id="text_12">
      <!-- 2.0 -->
      <g style="fill: #0000ff" transform="translate(24.816875 145.942855) scale(0.1 -0.1)">
       <use xlink:href="#DejaVuSans-32"/>
       <use xlink:href="#DejaVuSans-2e" transform="translate(63.623047 0)"/>
       <use xlink:href="#DejaVuSans-30" transform="translate(95.410156 0)"/>
      </g>
     </g>
    </g>
    <g id="ytick_6">
     <g id="line2d_12">
      <g>
       <use xlink:href="#m49e870f27f" x="47.72" y="49.932727" style="stroke: #000000; stroke-width: 0.8"/>
      </g>
     </g>
     <g id="text_13">
      <!-- 2.5 -->
      <g style="fill: #0000ff" transform="translate(24.816875 53.731946) scale(0.1 -0.1)">
       <use xlink:href="#DejaVuSans-32"/>
       <use xlink:href="#DejaVuSans-2e" transform="translate(63.623047 0)"/>
       <use xlink:href="#DejaVuSans-35" transform="translate(95.410156 0)"/>
      </g>
     </g>
    </g>
    <g id="text_14">
     <!-- Normalized Intensity -->
     <g style="fill: #0000ff" transform="translate(18.737187 332.167031) rotate(-90) scale(0.1 -0.1)">
      <defs>
       <path id="DejaVuSans-4e" d="M 628 4666 
L 1478 4666 
L 3547 763 
L 3547 4666 
L 4159 4666 
L 4159 0 
L 3309 0 
L 1241 3903 
L 1241 0 
L 628 0 
L 628 4666 
z
" transform="scale(0.015625)"/>
       <path id="DejaVuSans-72" d="M 2631 2963 
Q 2534 3019 2420 3045 
Q 2306 3072 2169 3072 
Q 1681 3072 1420 2755 
Q 1159 2438 1159 1844 
L 1159 0 
L 581 0 
L 581 3500 
L 1159 3500 
L 1159 2956 
Q 1341 3275 1631 3429 
Q 1922 3584 2338 3584 
Q 2397 3584 2469 3576 
Q 2541 3569 2628 3553 
L 2631 2963 
z
" transform="scale(0.015625)"/>
       <path id="DejaVuSans-61" d="M 2194 1759 
Q 1497 1759 1228 1600 
Q 959 1441 959 1056 
Q 959 750 1161 570 
Q 1363 391 1709 391 
Q 2188 391 2477 730 
Q 2766 1069 2766 1631 
L 2766 1759 
L 2194 1759 
z
M 3341 1997 
L 3341 0 
L 2766 0 
L 2766 531 
Q 2569 213 2275 61 
Q 1981 -91 1556 -91 
Q 1019 -91 701 211 
Q 384 513 384 1019 
Q 384 1609 779 1909 
Q 1175 2209 1959 2209 
L 2766 2209 
L 2766 2266 
Q 2766 2663 2505 2880 
Q 2244 3097 1772 3097 
Q 1472 3097 1187 3025 
Q 903 2953 641 2809 
L 641 3341 
Q 956 3463 1253 3523 
Q 1550 3584 1831 3584 
Q 2591 3584 2966 3190 
Q 3341 2797 3341 1997 
z
" transform="scale(0.015625)"/>
       <path id="DejaVuSans-6c" d="M 603 4863 
L 1178 4863 
L 1178 0 
L 603 0 
L 603 4863 
z
" transform="scale(0.015625)"/>
       <path id="DejaVuSans-7a" d="M 353 3500 
L 3084 3500 
L 3084 2975 
L 922 459 
L 3084 459 
L 3084 0 
L 275 0 
L 275 525 
L 2438 3041 
L 353 3041 
L 353 3500 
z
" transform="scale(0.015625)"/>
       <path id="DejaVuSans-64" d="M 2906 2969 
L 2906 4863 
L 3481 4863 
L 3481 0 
L 2906 0 
L 2906 525 
Q 2725 213 2448 61 
Q 2172 -91 1784 -91 
Q 1150 -91 751 415 
Q 353 922 353 1747 
Q 353 2572 751 3078 
Q 1150 3584 1784 3584 
Q 2172 3584 2448 3432 
Q 2725 3281 2906 2969 
z
M 947 1747 
Q 947 1113 1208 752 
Q 1469 391 1925 391 
Q 2381 391 2643 752 
Q 2906 1113 2906 1747 
Q 2906 2381 2643 2742 
Q 2381 3103 1925 3103 
Q 1469 3103 1208 2742 
Q 947 2381 947 1747 
z
" transform="scale(0.015625)"/>
       <path id="DejaVuSans-49" d="M 628 4666 
L 1259 4666 
L 1259 0 
L 628 0 
L 628 4666 
z
" transform="scale(0.015625)"/>
       <path id="DejaVuSans-73" d="M 2834 3397 
L 2834 2853 
Q 2591 2978 2328 3040 
Q 2066 3103 1784 3103 
Q 1356 3103 1142 2972 
Q 928 2841 928 2578 
Q 928 2378 1081 2264 
Q 1234 2150 1697 2047 
L 1894 2003 
Q 2506 1872 2764 1633 
Q 3022 1394 3022 966 
Q 3022 478 2636 193 
Q 2250 -91 1575 -91 
Q 1294 -91 989 -36 
Q 684 19 347 128 
L 347 722 
Q 666 556 975 473 
Q 1284 391 1588 391 
Q 1994 391 2212 530 
Q 2431 669 2431 922 
Q 2431 1156 2273 1281 
Q 2116 1406 1581 1522 
L 1381 1569 
Q 847 1681 609 1914 
Q 372 2147 372 2553 
Q 372 3047 722 3315 
Q 1072 3584 1716 3584 
Q 2034 3584 2315 3537 
Q 2597 3491 2834 3397 
z
" transform="scale(0.015625)"/>
       <path id="DejaVuSans-79" d="M 2059 -325 
Q 1816 -950 1584 -1140 
Q 1353 -1331 966 -1331 
L 506 -1331 
L 506 -850 
L 844 -850 
Q 1081 -850 1212 -737 
Q 1344 -625 1503 -206 
L 1606 56 
L 191 3500 
L 800 3500 
L 1894 763 
L 2988 3500 
L 3597 3500 
L 2059 -325 
z
" transform="scale(0.015625)"/>
      </defs>
      <use xlink:href="#DejaVuSans-4e"/>
      <use xlink:href="#DejaVuSans-6f" transform="translate(74.804688 0)"/>
      <use xlink:href="#DejaVuSans-72" transform="translate(135.986328 0)"/>
      <use xlink:href="#DejaVuSans-6d" transform="translate(175.349609 0)"/>
      <use xlink:href="#DejaVuSans-61" transform="translate(272.761719 0)"/>
      <use xlink:href="#DejaVuSans-6c" transform="translate(334.041016 0)"/>
      <use xlink:href="#DejaVuSans-69" transform="translate(361.824219 0)"/>
      <use xlink:href="#DejaVuSans-7a" transform="translate(389.607422 0)"/>
      <use xlink:href="#DejaVuSans-65" transform="translate(442.097656 0)"/>
      <use xlink:href="#DejaVuSans-64" transform="translate(503.621094 0)"/>
      <use xlink:href="#DejaVuSans-20" transform="translate(567.097656 0)"/>
      <use xlink:href="#DejaVuSans-49" transform="translate(598.884766 0)"/>
      <use xlink:href="#DejaVuSans-6e" transform="translate(628.376953 0)"/>
      <use xlink:href="#DejaVuSans-74" transform="translate(691.755859 0)"/>
      <use xlink:href="#DejaVuSans-65" transform="translate(730.964844 0)"/>
      <use xlink:href="#DejaVuSans-6e" transform="translate(792.488281 0)"/>
      <use xlink:href="#DejaVuSans-73" transform="translate(855.867188 0)"/>
      <use xlink:href="#DejaVuSans-69" transform="translate(907.966797 0)"/>
      <use xlink:href="#DejaVuSans-74" transform="translate(935.75 0)"/>
      <use xlink:href="#DejaVuSans-79" transform="translate(974.958984 0)"/>
     </g>
    </g>
   </g>
   <g id="line2d_13">
    <path d="M 84.332727 510.987273 
L 90.445036 510.907653 
L 99.002267 510.658812 
L 110.004423 510.673106 
L 125.896424 510.729334 
L 147.900735 510.596153 
L 155.235505 510.575519 
L 163.792736 510.443455 
L 165.015198 510.201726 
L 168.682583 509.085431 
L 169.905045 509.010001 
L 172.349968 509.337337 
L 176.017353 509.920971 
L 179.684738 510.212013 
L 185.797047 510.498997 
L 199.244125 510.411482 
L 204.133972 510.068682 
L 207.801357 509.729274 
L 210.24628 509.733058 
L 221.248435 510.415096 
L 222.470897 510.396129 
L 223.693359 510.216445 
L 224.91582 509.801273 
L 228.583205 508.003496 
L 229.805667 507.831962 
L 231.028129 507.997189 
L 233.473052 508.869669 
L 235.917975 509.66019 
L 238.362899 510.048466 
L 242.030284 510.197412 
L 250.587516 510.112609 
L 279.926596 509.754247 
L 286.038904 509.615863 
L 290.928751 509.481335 
L 297.041059 509.405572 
L 301.930906 508.928309 
L 304.375829 509.055196 
L 308.043214 509.368441 
L 311.710599 509.466793 
L 314.155523 509.379899 
L 319.04537 508.942838 
L 321.490293 509.078477 
L 325.157678 509.372618 
L 330.047525 509.43446 
L 336.159833 509.512623 
L 341.04968 509.819508 
L 343.494603 509.613425 
L 345.939526 509.431369 
L 348.38445 509.63368 
L 350.829373 509.864344 
L 353.274297 509.823031 
L 354.496758 509.635883 
L 355.71922 509.234574 
L 356.941682 508.464203 
L 358.164143 507.125447 
L 359.386605 505.030719 
L 360.609067 502.082648 
L 361.831528 498.342592 
L 365.498913 485.460632 
L 366.721375 482.037037 
L 367.943837 479.646423 
L 369.166298 478.436777 
L 370.38876 478.393777 
L 371.611222 479.373211 
L 372.833683 481.149687 
L 374.056145 483.46638 
L 378.945992 493.768061 
L 380.168453 495.893966 
L 381.390915 497.721566 
L 382.613377 499.249758 
L 383.835839 500.459666 
L 385.0583 501.308316 
L 386.280762 501.800232 
L 389.948147 502.658929 
L 392.39307 503.785583 
L 394.837994 504.862263 
L 397.282917 505.518694 
L 399.72784 505.87916 
L 404.617687 506.331685 
L 405.840149 506.376442 
L 407.06261 506.304946 
L 408.285072 506.048747 
L 411.952457 504.880276 
L 413.174919 504.807094 
L 421.732151 505.464041 
L 422.954612 504.532476 
L 424.177074 499.917881 
L 425.399536 487.710202 
L 426.621997 467.2447 
L 427.844459 444.669778 
L 429.066921 429.663208 
L 430.289382 428.125226 
L 431.511844 438.714616 
L 433.956767 471.873851 
L 435.179229 484.592596 
L 436.401691 492.759177 
L 437.624152 497.310917 
L 438.846614 499.642335 
L 440.069076 500.872426 
L 441.291537 501.646339 
L 443.736461 502.742973 
L 446.181384 503.554513 
L 448.626307 504.114344 
L 451.071231 504.409118 
L 453.516154 504.44832 
L 459.628463 504.276048 
L 463.295848 504.665893 
L 464.518309 504.406399 
L 465.740771 503.739956 
L 468.185694 502.103281 
L 469.408156 501.730795 
L 470.630618 501.773965 
L 474.298003 502.619596 
L 475.520464 502.218287 
L 476.742926 500.905903 
L 477.965388 498.601327 
L 480.410311 492.817876 
L 481.632773 490.615241 
L 482.855234 489.423588 
L 484.077696 489.353137 
L 485.300158 490.300819 
L 486.52262 491.958762 
L 488.967543 495.733641 
L 490.190005 497.179559 
L 491.412466 498.103385 
L 492.634928 498.493884 
L 493.85739 498.484629 
L 495.079851 498.349833 
L 496.302313 498.383036 
L 497.524775 498.721725 
L 499.969698 499.836777 
L 501.19216 500.156101 
L 502.414621 500.11831 
L 506.082006 499.223144 
L 507.304468 499.39871 
L 508.52693 499.892633 
L 513.416776 502.47395 
L 515.8617 503.28181 
L 518.306623 503.662068 
L 520.751547 503.627787 
L 523.19647 503.28351 
L 526.863855 502.661739 
L 529.308778 502.617517 
L 532.976163 502.80192 
L 535.421087 503.354502 
L 539.088472 504.369001 
L 542.755857 505.086274 
L 545.20078 505.356297 
L 547.645703 505.449636 
L 548.868165 505.407584 
L 550.090627 505.202907 
L 551.313088 504.662344 
L 552.53555 503.683558 
L 553.758012 502.443271 
L 554.980474 501.375289 
L 556.202935 500.826224 
L 557.425397 500.459404 
L 558.647859 498.184221 
L 559.87032 488.96639 
L 561.092782 466.13566 
L 562.315244 427.349921 
L 563.537705 380.677989 
L 564.760167 342.407864 
L 565.982629 326.565455 
L 567.20509 336.189575 
L 568.427552 363.670991 
L 570.872475 428.421817 
L 572.094937 452.252 
L 573.317399 468.671272 
L 574.53986 479.377812 
L 575.762322 486.373766 
L 576.984784 491.14862 
L 578.207245 494.555948 
L 579.429707 497.012012 
L 580.652169 498.721561 
L 581.87463 499.819163 
L 583.097092 500.419339 
L 584.319554 500.528332 
L 585.542015 499.569924 
L 586.764477 495.003224 
L 587.986939 481.399436 
L 589.209401 454.380512 
L 590.431862 418.374564 
L 591.654324 387.510984 
L 592.876786 375.444107 
L 594.099247 385.245428 
L 595.321709 409.396803 
L 596.544171 436.969126 
L 597.766632 460.046062 
L 598.989094 475.746506 
L 600.211556 484.905553 
L 601.434017 489.812374 
L 602.656479 492.570421 
L 603.878941 494.470916 
L 606.323864 497.526588 
L 608.768787 499.978358 
L 609.991249 500.963111 
L 611.213711 501.786128 
L 612.436172 502.433846 
L 613.658634 502.892651 
L 616.103557 503.350091 
L 620.993404 503.785922 
L 622.215866 503.721426 
L 625.883251 503.06848 
L 627.105713 503.033813 
L 629.550636 503.375692 
L 631.995559 503.82619 
L 633.218021 503.87283 
L 634.440483 503.718806 
L 636.885406 503.150243 
L 638.107868 503.038408 
L 640.552791 503.278229 
L 642.997714 503.542553 
L 645.442638 503.610258 
L 646.665099 503.544468 
L 647.887561 503.347816 
L 651.554946 502.326972 
L 652.777408 502.153222 
L 655.222331 502.160183 
L 657.667255 502.525924 
L 662.557101 503.67495 
L 665.002025 503.980927 
L 672.336795 504.440621 
L 676.00418 504.584561 
L 679.671565 504.822656 
L 684.561411 504.930655 
L 690.67372 505.240403 
L 704.120798 505.036242 
L 715.122953 504.611541 
L 718.790338 504.789565 
L 722.457723 504.693651 
L 727.34757 504.595756 
L 734.68234 504.643416 
L 738.349725 504.502699 
L 754.241727 504.757193 
L 760.354036 504.740886 
L 761.576497 504.567025 
L 764.021421 503.895706 
L 765.243882 503.561271 
L 766.466344 503.388365 
L 767.688806 503.419796 
L 772.578652 504.136213 
L 775.023576 504.12416 
L 778.690961 503.748629 
L 783.580807 503.315189 
L 786.025731 503.316699 
L 795.805424 503.997247 
L 801.917733 503.987633 
L 805.585118 503.813425 
L 811.697426 503.086832 
L 814.142349 503.195125 
L 816.587273 503.40758 
L 816.587273 503.40758 
" clip-path="url(#p8c8931c1c2)" style="fill: none; stroke: #0000ff; stroke-width: 1.5; stroke-linecap: square"/>
   </g>
   <g id="line2d_14">
    <path d="M 89.626964 234.272788 
L 91.306138 234.314723 
L 113.159596 234.332674 
L 140.473302 234.332173 
L 162.041682 234.339133 
L 162.041682 234.336561 
L 279.590419 234.322728 
L 307.387242 234.320943 
L 426.74131 234.236523 
L 426.74131 234.077649 
L 427.072841 233.627306 
L 427.406329 233.478295 
L 427.406329 232.835635 
L 427.738594 232.623304 
L 427.738594 231.48448 
L 428.070614 231.666454 
L 428.070614 229.856904 
L 428.408503 230.351991 
L 428.408503 228.575059 
L 428.739301 229.353322 
L 428.739301 226.883988 
L 429.068388 228.598781 
L 429.068388 225.517042 
L 429.396741 226.865622 
L 429.396741 224.263196 
L 429.724361 226.436543 
L 429.724361 223.668562 
L 430.052714 226.334057 
L 430.052714 223.930433 
L 430.380089 226.709488 
L 430.380089 224.543284 
L 430.707464 226.946417 
L 430.707464 224.286006 
L 431.034595 226.780184 
L 431.034595 224.047326 
L 431.361726 226.167397 
L 431.361726 222.959547 
L 431.689101 225.842466 
L 431.689101 223.454873 
L 432.016232 223.327809 
L 432.343118 223.397495 
L 432.343118 223.826681 
L 432.670493 223.841305 
L 432.670493 223.460445 
L 432.997624 226.136405 
L 432.997624 223.310327 
L 433.330378 223.636587 
L 433.657998 223.619028 
L 433.657998 223.871521 
L 433.985617 224.099686 
L 433.985617 224.282305 
L 434.313237 226.685229 
L 434.313237 224.083111 
L 434.640857 226.793875 
L 434.640857 223.931384 
L 434.974344 226.598716 
L 434.974344 224.26162 
L 435.302453 226.822678 
L 435.302453 224.508931 
L 435.630317 227.272337 
L 435.630317 225.161411 
L 435.958182 227.769971 
L 435.958182 225.491917 
L 436.286535 227.741626 
L 436.286535 225.139556 
L 436.615133 227.362537 
L 436.615133 225.193437 
L 436.94373 227.437956 
L 436.94373 225.568253 
L 437.272572 228.243068 
L 437.272572 225.994048 
L 437.601415 228.023739 
L 437.601415 225.928681 
L 438.265456 225.235933 
L 438.265456 225.5583 
L 438.594542 225.452671 
L 438.594542 225.756173 
L 438.924118 228.149474 
L 438.924118 226.685069 
L 439.253694 228.526731 
L 439.253694 226.754969 
L 439.583514 228.705832 
L 439.583514 227.229485 
L 439.91309 228.962918 
L 439.91309 227.494009 
L 440.24291 229.605096 
L 440.24291 228.54391 
L 440.57273 230.058393 
L 440.57273 228.165904 
L 440.903284 229.587049 
L 440.903284 228.163165 
L 441.233593 229.175942 
L 441.233593 227.297763 
L 441.564391 229.282875 
L 441.564391 228.127053 
L 441.895189 229.606732 
L 441.895189 228.279247 
L 442.226232 230.203274 
L 442.226232 228.926139 
L 442.557519 230.276082 
L 442.557519 228.730585 
L 442.889295 230.257486 
L 442.889295 228.819029 
L 443.225716 229.977275 
L 443.225716 228.610309 
L 443.557248 230.191186 
L 443.557248 228.973903 
L 443.889268 230.431501 
L 443.889268 229.19587 
L 444.2208 230.670351 
L 444.2208 229.42976 
L 444.557955 230.497867 
L 444.557955 229.264284 
L 444.889487 230.632758 
L 444.889487 229.656935 
L 445.221018 230.905591 
L 445.221018 230.000713 
L 445.553283 231.337166 
L 445.553283 230.293317 
L 445.886037 231.25023 
L 445.886037 230.063755 
L 446.218058 230.939808 
L 446.218058 229.816031 
L 446.549834 230.912538 
L 446.549834 229.952629 
L 446.881121 231.114725 
L 446.881121 230.0976 
L 447.213631 231.215241 
L 447.213631 230.41486 
L 447.213631 231.255964 
L 447.546385 231.297831 
L 447.546385 231.575617 
L 447.879628 230.490567 
L 448.216783 231.101514 
L 448.216783 230.606606 
L 448.549537 230.653942 
L 448.549537 230.878235 
L 448.880824 231.932992 
L 448.880824 231.033512 
L 449.213578 231.698924 
L 449.213578 230.780021 
L 449.545354 231.496659 
L 449.545354 230.770055 
L 449.87713 231.926293 
L 449.87713 231.183168 
L 450.541905 231.051038 
L 450.541905 231.151756 
L 450.873437 231.159059 
L 450.873437 231.137518 
L 451.205702 232.148811 
L 451.205702 231.451493 
L 451.537233 232.092388 
L 451.537233 231.32164 
L 451.869254 232.124768 
L 451.869254 231.437111 
L 452.20103 232.081899 
L 452.20103 231.462403 
L 452.532317 232.241247 
L 452.532317 231.680395 
L 452.865805 232.368674 
L 452.865805 231.464145 
L 453.202471 232.145582 
L 453.202471 231.570169 
L 453.533513 231.693865 
L 453.871891 231.66154 
L 453.871891 232.085615 
L 454.204645 232.119523 
L 454.536421 232.654735 
L 454.536421 232.150428 
L 455.20364 232.416163 
L 455.535661 232.300734 
L 455.535661 232.382214 
L 455.867681 232.905449 
L 455.867681 232.24779 
L 456.199702 232.679778 
L 456.199702 232.378842 
L 456.532456 232.238186 
L 456.864232 232.257681 
L 456.864232 232.475765 
L 457.197475 232.491877 
L 457.197475 232.32202 
L 457.528518 232.945129 
L 457.528518 232.446386 
L 457.860783 232.851307 
L 457.860783 232.380005 
L 458.198671 232.502863 
L 458.863446 232.55057 
L 458.863446 232.586687 
L 459.1962 233.038219 
L 459.1962 232.445796 
L 459.529688 232.910007 
L 459.529688 232.451099 
L 459.860975 232.2874 
L 460.192751 232.282526 
L 460.192751 232.589039 
L 460.525749 232.577939 
L 460.525749 232.699334 
L 460.857281 233.342649 
L 460.857281 232.979248 
L 461.189057 233.316262 
L 461.189057 232.815669 
L 461.522056 233.167225 
L 461.522056 232.85987 
L 461.855299 233.246694 
L 461.855299 232.910722 
L 462.19172 233.385537 
L 462.19172 233.004923 
L 462.523252 233.296743 
L 462.523252 232.808878 
L 462.856984 233.153286 
L 462.856984 232.773636 
L 463.193894 233.127124 
L 463.193894 232.797011 
L 463.525915 233.290105 
L 463.525915 232.993427 
L 463.856958 233.367439 
L 463.856958 233.119468 
L 464.188734 233.459362 
L 464.188734 233.190499 
L 464.521243 233.447893 
L 464.521243 233.136855 
L 465.185284 233.102972 
L 465.185284 233.103269 
L 465.517794 232.851431 
L 465.850304 233.234865 
L 466.515812 233.136779 
L 466.847832 232.846841 
L 467.179119 233.123988 
L 467.179119 232.948713 
L 467.512362 233.121895 
L 467.512362 233.384241 
L 467.843894 233.674014 
L 467.843894 233.343217 
L 468.18056 233.574949 
L 468.18056 233.484111 
L 468.844601 233.139191 
L 469.177355 233.366637 
L 469.508887 233.427573 
L 469.840174 233.762425 
L 470.17195 233.728921 
L 470.504215 233.548858 
L 470.841615 233.751604 
L 470.841615 233.561292 
L 471.505167 233.926259 
L 471.505167 233.765157 
L 471.505167 233.922811 
L 473.169915 233.593691 
L 473.502669 233.813637 
L 473.502669 233.613992 
L 475.164239 233.717261 
L 475.164239 233.611144 
L 475.496504 233.772257 
L 475.496504 233.621452 
L 475.827791 233.805733 
L 475.827791 233.600834 
L 476.159323 233.738377 
L 476.159323 233.584974 
L 476.491343 233.756531 
L 476.491343 233.597135 
L 476.491343 233.783208 
L 476.822875 233.61982 
L 477.486672 233.716208 
L 477.819915 233.594212 
L 478.157314 233.792729 
L 478.488601 233.59515 
L 479.154598 233.613751 
L 479.486619 233.441811 
L 479.822796 233.474059 
L 480.487571 233.851409 
L 481.150389 233.948927 
L 481.482899 233.871003 
L 481.814186 233.923421 
L 482.144984 233.849772 
L 482.808781 233.964882 
L 486.461007 234.036115 
L 488.126 234.139179 
L 488.126 234.200467 
L 489.450904 233.866806 
L 489.450904 233.95771 
L 489.783658 233.984936 
L 489.783658 234.092513 
L 490.446966 234.072148 
L 490.446966 233.934801 
L 491.110518 233.764314 
L 492.105358 234.041307 
L 492.4364 233.981695 
L 492.767687 234.038167 
L 493.769861 233.877693 
L 493.769861 233.944459 
L 494.763478 234.045942 
L 494.763478 233.918947 
L 496.421136 233.903549 
L 496.752668 233.809463 
L 498.092486 233.87171 
L 498.424506 233.816494 
L 499.748921 233.982761 
L 499.748921 233.901344 
L 500.080698 233.951247 
L 500.412474 233.794931 
L 501.07627 233.933066 
L 501.07627 233.896859 
L 501.408535 234.064536 
L 501.408535 233.970092 
L 502.071599 233.767577 
L 502.071599 233.882156 
L 503.072795 233.865635 
L 503.072795 233.68519 
L 503.405793 233.844122 
L 503.405793 233.692148 
L 504.401611 233.77767 
L 504.401611 233.903282 
L 504.73412 233.864371 
L 505.067608 233.663543 
L 506.069537 233.580579 
L 506.069537 233.788133 
L 506.400824 233.921412 
L 506.400824 233.836927 
L 507.39762 233.651088 
L 508.067529 233.937886 
L 508.067529 233.833803 
L 508.400527 233.951765 
L 508.400527 233.836168 
L 508.732303 233.937909 
L 508.732303 233.779987 
L 509.063101 233.882112 
L 509.063101 233.709754 
L 509.395855 233.814707 
L 509.395855 233.732315 
L 509.729099 233.746975 
L 510.06063 233.627285 
L 510.06063 233.746702 
L 510.392895 233.755194 
L 510.392895 233.713963 
L 510.724916 233.909446 
L 510.724916 233.894094 
L 511.05767 233.934319 
L 511.05767 233.738195 
L 511.38969 233.891817 
L 511.38969 233.759017 
L 511.722934 233.890382 
L 511.722934 233.729745 
L 512.055199 233.922177 
L 512.055199 233.767478 
L 512.718995 234.022648 
L 512.718995 233.91903 
L 513.389882 233.870757 
L 513.389882 233.716938 
L 513.721658 233.545612 
L 514.053434 233.637876 
L 514.384966 233.438159 
L 514.716009 233.696112 
L 515.048029 233.744409 
L 515.38714 233.947851 
L 515.38714 233.737673 
L 515.71965 233.708773 
L 516.052159 233.548535 
L 516.716201 233.509949 
L 516.716201 233.580608 
L 517.381709 233.823659 
L 517.381709 233.734674 
L 518.05064 233.947183 
L 518.05064 233.770523 
L 518.38266 233.891129 
L 518.38266 233.762325 
L 518.714192 233.830474 
L 518.714192 233.673539 
L 519.046701 233.858628 
L 519.046701 233.747699 
L 519.711721 233.987724 
L 519.711721 233.849325 
L 520.04423 233.986435 
L 520.04423 233.849531 
L 520.375762 233.999813 
L 520.375762 233.812262 
L 520.707293 233.930635 
L 520.707293 233.738967 
L 521.041025 233.828681 
L 521.041025 233.697782 
L 521.373535 233.850087 
L 521.373535 233.665832 
L 522.035865 233.754688 
L 522.035865 233.708741 
L 522.368619 233.721203 
L 522.368619 233.866284 
L 522.700395 234.006261 
L 522.700395 233.892525 
L 523.702814 233.726077 
L 523.702814 233.657077 
L 524.035323 233.822021 
L 524.035323 233.693897 
L 524.70401 233.941589 
L 524.70401 233.844311 
L 525.036519 233.781153 
L 525.701049 233.932852 
L 526.033803 233.91294 
L 526.033803 233.718257 
L 526.697111 233.604925 
L 527.028643 233.662608 
L 527.360174 233.81902 
L 527.360174 233.656095 
L 527.693173 233.834535 
L 527.693173 233.706025 
L 528.36406 233.635556 
L 528.36406 233.638068 
L 529.029568 233.448425 
L 530.024652 233.872462 
L 530.024652 233.82903 
L 530.688449 233.64391 
L 531.352734 233.957149 
L 531.352734 233.902732 
L 532.017998 233.947071 
L 532.017998 233.923356 
L 534.024057 233.866453 
L 534.024057 233.896844 
L 534.688099 233.930314 
L 534.688099 233.867956 
L 535.352873 233.913493 
L 536.017159 233.848978 
L 538.017106 234.022009 
L 538.017106 233.931994 
L 538.350594 234.061755 
L 538.350594 233.993515 
L 539.348123 233.769597 
L 539.348123 233.772427 
L 540.011675 233.893687 
L 540.34394 233.811631 
L 541.672022 233.881029 
L 542.006977 233.716432 
L 543.013063 234.003225 
L 543.013063 233.928667 
L 543.67906 233.773514 
L 544.343345 233.970173 
L 544.343345 233.867991 
L 545.00812 233.875065 
L 545.00812 233.754471 
L 545.339896 233.947047 
L 545.339896 233.863639 
L 546.005404 234.046766 
L 546.005404 233.975834 
L 547.334709 233.927066 
L 547.334709 233.757671 
L 548.004374 233.620911 
L 548.33615 233.752119 
L 548.33615 233.66158 
L 548.66817 233.689256 
L 549.00288 233.843918 
L 549.00288 233.738934 
L 549.667411 233.821414 
L 549.667411 233.654669 
L 549.99992 233.87887 
L 549.99992 233.781272 
L 550.662739 233.957844 
L 550.662739 233.784412 
L 550.662739 233.878845 
L 550.996471 233.774374 
L 550.996471 233.869909 
L 552.331399 233.790018 
L 552.663664 233.857293 
L 552.663664 233.736 
L 553.000819 233.810241 
L 553.000819 233.684652 
L 553.33284 233.830829 
L 553.33284 233.771676 
L 553.664371 233.829063 
L 553.996636 233.751034 
L 554.663367 233.986588 
L 554.663367 233.951386 
L 555.993405 233.879996 
L 555.993405 233.93473 
L 556.325426 234.048335 
L 556.325426 233.959473 
L 558.324151 233.963773 
L 558.324151 233.990173 
L 558.98917 234.015461 
L 558.98917 233.9782 
L 559.984743 233.934535 
L 560.316763 234.044043 
L 560.316763 233.982695 
L 561.985179 233.861137 
L 561.985179 233.865839 
L 562.649465 233.982704 
L 563.655062 233.962582 
L 563.655062 233.809155 
L 563.987571 233.848329 
L 564.319347 233.769348 
L 564.651368 233.869557 
L 564.651368 233.692082 
L 565.315409 233.885926 
L 565.315409 233.774745 
L 565.981651 234.01172 
L 565.981651 233.920719 
L 567.987466 233.836293 
L 567.987466 233.749243 
L 568.319486 233.836886 
L 568.319486 233.706949 
L 569.988391 233.846725 
L 569.988391 233.796227 
L 570.653655 233.993264 
L 570.653655 233.941871 
L 571.985404 233.821787 
L 571.985404 233.91459 
L 572.649446 234.011998 
L 572.649446 233.958326 
L 573.320333 234.010808 
L 573.320333 233.914748 
L 573.98364 233.750215 
L 574.981414 234.054803 
L 574.981414 233.987221 
L 575.313434 233.936277 
L 575.313434 234.016133 
L 576.309496 233.862656 
L 577.640757 233.625584 
L 577.640757 233.681495 
L 578.312866 233.898131 
L 578.312866 233.868622 
L 581.313521 233.881719 
L 581.313521 233.887119 
L 581.647008 234.050693 
L 581.647008 233.871771 
L 581.979762 233.936972 
L 581.979762 233.755356 
L 582.646004 233.705386 
L 582.646004 233.766917 
L 582.984137 233.872468 
L 583.647933 234.036773 
L 583.647933 233.875623 
L 583.979954 233.903069 
L 583.979954 233.780931 
L 583.979954 233.887641 
L 584.31173 233.860868 
L 584.31173 233.953772 
L 584.645218 233.971536 
L 584.645218 233.929071 
L 584.976749 233.813067 
L 585.310237 233.86599 
L 585.310237 233.707986 
L 585.974033 233.720429 
L 585.974033 233.711669 
L 586.307276 233.513946 
L 586.638319 233.702625 
L 587.302605 233.811676 
L 587.640493 233.642444 
L 588.641445 233.906436 
L 588.641445 233.832507 
L 589.305242 233.971948 
L 589.305242 233.694987 
L 589.637996 233.711041 
L 589.637996 233.172391 
L 589.969527 232.990675 
L 589.969527 231.834448 
L 590.302037 231.712254 
L 590.302037 229.410162 
L 590.63259 229.097074 
L 590.63259 224.934704 
L 590.962411 225.018038 
L 590.962411 215.970069 
L 591.292964 216.088991 
L 591.292964 204.709378 
L 591.62254 205.933496 
L 591.62254 189.436774 
L 591.950404 195.204285 
L 591.950404 170.001724 
L 592.278513 178.273653 
L 592.278513 150.521447 
L 592.605888 159.354639 
L 592.605888 126.591963 
L 592.938398 146.289069 
L 592.938398 108.366664 
L 593.265284 131.885418 
L 593.265284 92.143745 
L 593.591926 122.956546 
L 593.591926 85.82631 
L 593.918812 121.159615 
L 593.918812 71.327892 
L 594.245454 109.409872 
L 594.245454 61.330146 
L 594.572095 95.852531 
L 594.572095 49.932727 
L 594.898982 100.53371 
L 594.898982 58.968237 
L 595.225623 104.15565 
L 595.225623 69.823803 
L 595.556911 114.850959 
L 595.556911 78.571863 
L 595.883552 123.35514 
L 595.883552 91.665052 
L 596.214106 129.588945 
L 596.214106 98.963 
L 596.540748 137.30573 
L 596.540748 106.483495 
L 596.867634 139.337903 
L 596.867634 114.305349 
L 597.19452 146.029737 
L 597.19452 118.520261 
L 597.521895 151.510334 
L 597.521895 127.579757 
L 597.854405 155.874596 
L 597.854405 130.924492 
L 598.18178 158.583077 
L 598.18178 139.653917 
L 598.509155 166.499784 
L 598.509155 143.190491 
L 598.836286 170.544526 
L 598.836286 154.659133 
L 599.163661 174.86069 
L 599.163661 155.738571 
L 599.491281 156.191913 
L 599.818901 157.396402 
L 599.818901 156.94497 
L 600.146276 157.874401 
L 600.146276 162.45355 
L 600.473896 185.204396 
L 600.473896 169.332407 
L 600.80176 187.888822 
L 600.80176 172.982699 
L 601.12938 188.47841 
L 601.12938 174.782093 
L 601.457489 191.563841 
L 601.457489 176.79931 
L 601.785353 192.123036 
L 601.785353 178.107012 
L 602.113462 192.815771 
L 602.113462 179.749699 
L 602.441326 194.430622 
L 602.441326 180.671371 
L 602.774813 195.430708 
L 602.774813 184.690564 
L 603.102677 197.239368 
L 603.102677 186.409556 
L 603.430786 200.244382 
L 603.430786 190.51059 
L 603.759139 202.241518 
L 603.759139 191.587144 
L 604.087493 202.685295 
L 604.087493 192.928026 
L 604.415601 203.470064 
L 604.415601 193.041291 
L 604.744199 203.817883 
L 604.744199 193.576649 
L 605.073041 203.511903 
L 605.073041 194.392523 
L 605.406529 204.547492 
L 605.406529 196.652776 
L 605.735371 207.259357 
L 605.735371 199.610788 
L 606.064213 209.011352 
L 606.064213 200.991129 
L 606.392811 209.538597 
L 606.392811 200.871368 
L 606.721898 208.984356 
L 606.721898 201.656669 
L 607.050495 209.625369 
L 607.050495 202.246347 
L 607.380315 211.106238 
L 607.380315 204.628468 
L 607.71527 212.361358 
L 607.71527 206.201214 
L 608.045335 213.881466 
L 608.045335 208.230436 
L 608.375155 215.058978 
L 608.375155 208.513919 
L 608.706197 215.359217 
L 608.706197 209.570893 
L 609.036262 215.549529 
L 609.036262 209.778613 
L 609.365838 216.224406 
L 609.365838 211.172081 
L 609.695902 217.038605 
L 609.695902 211.759622 
L 610.0267 217.668499 
L 610.0267 213.261141 
L 610.356276 218.704093 
L 610.356276 213.953237 
L 610.68683 219.310229 
L 610.68683 214.691701 
L 611.017628 219.508877 
L 611.017628 214.821935 
L 611.347693 220.01821 
L 611.347693 216.273503 
L 611.678491 216.776097 
L 612.008555 216.812843 
L 612.008555 217.3772 
L 612.339842 217.582372 
L 612.675775 222.071667 
L 612.675775 218.077419 
L 613.008773 222.22933 
L 613.008773 218.366586 
L 613.340061 222.50691 
L 613.340061 218.8295 
L 613.671348 223.08167 
L 613.671348 219.478466 
L 614.003124 223.148948 
L 614.003124 219.684065 
L 614.339545 223.492732 
L 614.339545 220.578084 
L 614.671321 224.375823 
L 614.671321 221.60363 
L 615.002608 225.080437 
L 615.002608 222.194352 
L 615.334874 225.113327 
L 615.334874 221.901878 
L 615.666161 224.799305 
L 615.666161 222.26407 
L 615.998426 225.279727 
L 615.998426 222.557622 
L 616.330446 225.928956 
L 616.330446 223.22085 
L 616.664423 225.910669 
L 616.664423 223.274549 
L 616.996688 226.190563 
L 616.996688 224.030664 
L 617.329687 226.870333 
L 617.329687 224.733748 
L 617.667575 227.470739 
L 617.667575 225.186584 
L 618.001062 227.385323 
L 618.001062 224.824752 
L 618.333817 226.987455 
L 618.333817 224.317598 
L 618.66706 226.566962 
L 618.66706 224.385425 
L 618.998591 226.915274 
L 618.998591 224.647863 
L 619.332568 227.417068 
L 619.332568 224.918277 
L 619.666055 227.046872 
L 619.666055 225.325056 
L 620.000032 227.535267 
L 620.000032 225.430076 
L 620.33303 228.116576 
L 620.33303 226.435613 
L 620.665295 228.248 
L 620.665295 226.66672 
L 620.997316 228.788556 
L 620.997316 227.295225 
L 621.329337 229.165482 
L 621.329337 227.480931 
L 621.662824 229.304837 
L 621.662824 227.66817 
L 621.995823 229.167232 
L 621.995823 227.337657 
L 622.329066 229.171591 
L 622.329066 227.664749 
L 622.672578 229.4331 
L 622.672578 227.822813 
L 623.006554 229.627624 
L 623.006554 228.086164 
L 623.33833 229.633741 
L 623.33833 228.074089 
L 623.671084 229.733614 
L 623.671084 228.399629 
L 624.003838 229.88001 
L 624.003838 228.215543 
L 624.337081 229.767776 
L 624.337081 228.130186 
L 624.669102 229.43607 
L 624.669102 228.104382 
L 625.002834 229.721259 
L 625.002834 228.57869 
L 625.335099 230.239762 
L 625.335099 229.122351 
L 625.668587 230.53376 
L 625.668587 229.301188 
L 626.000852 230.521514 
L 626.000852 229.14786 
L 626.332628 230.483869 
L 626.332628 229.440579 
L 626.665382 230.796397 
L 626.665382 229.87939 
L 626.999603 231.298419 
L 626.999603 230.305092 
L 627.333335 231.556022 
L 627.333335 230.709578 
L 627.670979 231.631996 
L 627.670979 230.455927 
L 628.003244 231.51531 
L 628.003244 230.596008 
L 628.336976 230.397335 
L 628.668997 230.381111 
L 628.668997 230.758825 
L 629.001017 230.773665 
L 629.333527 231.865917 
L 629.333527 231.220426 
L 629.666525 232.068802 
L 629.666525 231.304607 
L 629.998546 232.161486 
L 629.998546 231.200166 
L 630.330811 231.954924 
L 630.330811 231.15051 
L 630.663321 231.920509 
L 630.663321 231.364139 
L 630.994852 232.32853 
L 630.994852 231.267759 
L 631.332985 232.050136 
L 631.332985 231.264308 
L 631.667206 231.895127 
L 631.667206 231.11097 
L 631.998982 232.078854 
L 631.998982 231.345394 
L 632.331492 232.187086 
L 632.331492 231.348662 
L 633.002868 231.224923 
L 633.002868 231.300451 
L 633.336844 231.228595 
L 633.336844 231.449161 
L 633.669598 232.35231 
L 633.669598 231.697379 
L 634.002597 232.390935 
L 634.002597 231.779129 
L 634.334617 232.393618 
L 634.334617 231.70305 
L 634.668594 232.406163 
L 634.668594 231.878669 
L 635.001593 232.514331 
L 635.001593 231.7709 
L 635.335814 231.820825 
L 636.000344 231.592499 
L 636.333098 232.240585 
L 636.333098 231.75323 
L 636.664874 232.339497 
L 636.664874 231.979993 
L 636.998361 232.771631 
L 636.998361 232.253684 
L 637.332582 232.908161 
L 637.332582 232.305829 
L 637.672427 232.68412 
L 637.672427 232.125209 
L 638.004936 232.618152 
L 638.004936 232.217604 
L 638.337935 232.840206 
L 638.337935 232.428843 
L 638.670689 232.913833 
L 638.670689 232.472877 
L 639.00271 232.820727 
L 639.00271 232.317617 
L 640.335193 232.560492 
L 640.667702 232.435006 
L 640.667702 232.556702 
L 640.999967 232.615267 
L 640.999967 232.597186 
L 641.331988 233.01204 
L 641.331988 232.738842 
L 641.99823 232.573218 
L 641.99823 232.638909 
L 642.331962 232.631497 
L 642.331962 232.632177 
L 642.670339 233.136051 
L 642.670339 232.702691 
L 643.00236 233.039938 
L 643.00236 232.703433 
L 643.00236 233.121144 
L 643.670068 233.059483 
L 644.003067 232.550796 
L 644.336799 233.024984 
L 644.336799 232.616712 
L 644.669797 233.012591 
L 645.002796 233.073079 
L 645.002796 232.730531 
L 645.336284 233.089425 
L 645.336284 232.680735 
L 646.003259 232.92095 
L 646.003259 232.889078 
L 646.671701 232.86215 
L 647.004455 232.628429 
L 647.339165 233.015626 
L 647.339165 232.703023 
L 647.678276 232.648672 
L 648.010052 233.004571 
L 648.010052 232.898034 
L 648.010052 232.797097 
L 648.349652 233.243039 
L 648.684362 233.2938 
L 648.684362 233.267195 
L 649.016871 233.005031 
L 649.683357 233.038571 
L 649.683357 233.108588 
L 650.682108 232.995059 
L 650.682108 233.00373 
L 651.014374 233.443545 
L 651.014374 233.173115 
L 651.347128 233.527379 
L 651.347128 233.159786 
L 651.678904 233.45114 
L 651.678904 233.153024 
L 652.010924 233.144309 
L 652.342456 232.861686 
L 652.679611 232.997011 
L 652.679611 232.922147 
L 653.011631 232.924973 
L 653.673961 233.383027 
L 654.004759 233.44045 
L 654.004759 233.625384 
L 654.335802 233.416804 
L 654.665133 233.575601 
L 654.665133 233.516062 
L 654.995687 233.401191 
L 655.325507 233.555542 
L 655.325507 233.548875 
L 655.655327 233.536749 
L 655.655327 233.573993 
L 655.985147 233.681255 
L 655.985147 233.479022 
L 657.311518 233.297805 
L 658.969421 233.310578 
L 658.969421 233.472509 
L 659.300219 233.558632 
L 659.631017 233.340693 
L 659.962304 233.487795 
L 659.962304 233.275306 
L 660.958121 233.028776 
L 661.289897 233.156541 
L 661.954917 233.405604 
L 662.286937 233.454275 
L 662.286937 233.350881 
L 662.624581 233.408798 
L 662.95758 233.571941 
L 663.290823 233.518193 
L 663.290823 233.613725 
L 663.623088 233.581652 
L 663.95413 233.723708 
L 663.95413 233.532933 
L 664.621106 233.358388 
L 664.955571 233.562618 
L 664.955571 233.396263 
L 665.621813 233.757792 
L 665.621813 233.500651 
L 665.957012 233.65583 
L 665.957012 233.455058 
L 666.962609 233.478466 
L 666.962609 233.486668 
L 667.967961 233.316314 
L 668.301449 233.615049 
L 668.301449 233.477068 
L 668.968179 233.790585 
L 668.968179 233.729172 
L 669.635888 233.743163 
L 669.970109 233.620977 
L 669.970109 233.62969 
L 670.305308 233.796108 
L 670.305308 233.679898 
L 670.639284 233.644771 
L 670.639284 233.738313 
L 671.307237 233.852022 
L 671.307237 233.799374 
L 671.642681 233.80622 
L 671.642681 233.671265 
L 671.975924 233.782495 
L 671.975924 233.559912 
L 672.309167 233.790597 
L 672.309167 233.626456 
L 672.984699 233.492424 
L 672.984699 233.576461 
L 673.317942 233.561852 
L 673.317942 233.591471 
L 673.317942 233.816454 
L 673.987118 233.721217 
L 673.987118 233.676 
L 674.655071 233.580134 
L 674.655071 233.595778 
L 674.989781 233.726058 
L 675.323513 233.888732 
L 675.323513 233.783444 
L 675.993911 233.728689 
L 676.328377 233.515925 
L 676.66382 233.535598 
L 676.66382 233.718388 
L 677.002197 233.623509 
L 677.336418 233.894778 
L 678.342504 233.658517 
L 678.342504 233.605051 
L 678.678681 233.777575 
L 678.678681 233.666479 
L 679.345412 233.918055 
L 679.345412 233.829636 
L 680.015565 233.983334 
L 680.015565 233.736642 
L 680.351253 233.785988 
L 680.351253 233.653781 
L 680.685719 233.743842 
L 680.685719 233.577786 
L 681.018962 233.814595 
L 681.018962 233.642894 
L 681.686671 233.600698 
L 682.022603 233.601457 
L 682.022603 233.714997 
L 682.357313 233.902864 
L 682.357313 233.768893 
L 683.368533 233.76485 
L 683.703732 233.956854 
L 683.703732 233.8253 
L 684.706884 233.629608 
L 685.042083 233.83748 
L 685.381928 233.721607 
L 685.716638 233.895352 
L 686.722479 233.811819 
L 688.748832 233.975947 
L 688.748832 233.854181 
L 689.083297 233.956052 
L 689.083297 233.811279 
L 689.418007 233.970916 
L 689.418007 233.867249 
L 690.093784 234.009565 
L 690.093784 233.872059 
L 690.762471 233.886632 
L 690.762471 233.742349 
L 691.434824 233.853844 
L 691.434824 233.753369 
L 691.768801 233.673914 
L 691.768801 233.727884 
L 692.110357 233.897384 
L 692.110357 233.804819 
L 692.447512 233.893375 
L 692.447512 234.013889 
L 692.789312 234.027198 
L 692.789312 233.863197 
L 693.462155 233.841471 
L 693.79662 233.67016 
L 693.79662 233.828047 
L 694.467507 233.929163 
L 694.804173 233.991866 
L 695.14035 233.837508 
L 695.477261 233.874095 
L 696.151571 233.681087 
L 696.825147 233.779238 
L 697.160346 233.914677 
L 697.497256 233.851674 
L 697.836612 234.000986 
L 697.836612 233.846126 
L 698.174011 233.835389 
L 698.174011 233.853321 
L 698.510677 233.979309 
L 698.510677 233.861768 
L 698.847343 233.900598 
L 699.182053 233.801576 
L 699.517986 233.898803 
L 699.517986 233.75498 
L 700.869539 233.845716 
L 700.869539 233.965507 
L 701.542138 234.070348 
L 701.542138 234.037025 
L 702.215714 233.921992 
L 702.215714 234.0047 
L 702.553602 233.906235 
L 702.89687 233.963122 
L 702.89687 233.944273 
L 703.234025 233.836298 
L 703.572402 233.893217 
L 703.911024 233.808335 
L 704.248179 233.924769 
L 704.248179 233.906683 
L 704.924445 233.825225 
L 704.924445 233.910644 
L 705.261111 233.819666 
L 705.934442 234.03719 
L 705.934442 234.018724 
L 706.606063 233.96793 
L 707.280128 233.768143 
L 708.294527 233.971162 
L 708.632904 233.817264 
L 709.31186 233.886966 
L 709.649259 234.019762 
L 709.649259 234.000326 
L 709.984947 233.873012 
L 710.321857 234.012949 
L 710.321857 233.952456 
L 714.370162 233.899526 
L 714.709272 233.802464 
L 716.733913 234.062508 
L 716.733913 233.996128 
L 717.409446 233.962395 
L 717.746845 233.893308 
L 718.765889 234.055441 
L 718.765889 234.044247 
L 720.114264 233.95723 
L 720.454598 234.050945 
L 720.454598 233.954426 
L 720.790286 233.87672 
L 721.129152 233.970516 
L 721.129152 233.94753 
L 721.466796 233.907453 
L 721.804195 234.067054 
L 721.804195 233.987851 
L 723.834949 234.045398 
L 723.834949 233.953759 
L 724.510481 234.058283 
L 724.510481 234.014257 
L 725.186258 233.918025 
L 725.186258 234.015214 
L 725.526347 234.014998 
L 725.526347 234.052069 
L 725.864969 234.16707 
L 725.864969 234.149732 
L 729.243608 233.873203 
L 729.921341 233.964819 
L 730.259963 233.908623 
L 731.269961 234.034405 
L 732.614424 234.106349 
L 733.633224 233.963936 
L 734.305333 233.942813 
L 734.98331 233.948907 
L 736.32973 233.87109 
L 737.001106 233.919431 
L 738.687369 234.021165 
L 739.025013 233.915736 
L 740.032322 234.053262 
L 743.744204 234.055684 
L 743.744204 234.172461 
L 744.41827 234.165577 
L 744.41827 234.112713 
L 746.098665 234.022109 
L 747.112331 234.008559 
L 747.112331 234.140483 
L 747.784685 234.083918 
L 747.784685 234.108725 
L 748.79346 234.086482 
L 748.79346 234.065673 
L 748.79346 234.026486 
L 749.473149 234.088282 
L 756.549246 233.972545 
L 756.8842 233.900983 
L 757.557532 233.968377 
L 758.229886 233.893129 
L 759.241595 234.109871 
L 759.241595 233.984662 
L 759.241595 234.045381 
L 760.923703 234.103023 
L 762.262298 233.993815 
L 762.262298 234.034464 
L 762.934897 233.984818 
L 762.934897 234.023233 
L 763.270096 234.043894 
L 763.614341 234.13723 
L 763.952718 234.018519 
L 765.289602 234.063134 
L 765.964401 234.074533 
L 765.964401 234.135353 
L 766.634555 234.046433 
L 767.306909 234.050768 
L 767.306909 234.009653 
L 768.313239 234.145304 
L 768.655039 234.034225 
L 768.988527 234.086136 
L 768.988527 234.034077 
L 769.664059 234.011233 
L 770.999721 234.005139 
L 771.334186 233.901873 
L 772.336605 234.129434 
L 773.343913 233.980442 
L 773.683024 234.0429 
L 773.683024 234.007742 
L 774.017979 233.979312 
L 774.017979 234.018908 
L 774.688621 234.158377 
L 774.688621 234.100453 
L 776.028439 234.120065 
L 776.699815 234.209989 
L 776.699815 234.123653 
L 776.699815 234.161211 
L 777.033547 234.069188 
L 778.044034 234.104009 
L 779.054521 233.948519 
L 781.059602 234.132558 
L 781.059602 234.071029 
L 783.739238 234.108559 
L 783.739238 234.100176 
L 785.742853 233.955844 
L 785.742853 233.980075 
L 786.075118 234.17872 
L 786.74625 234.128951 
L 786.74625 234.06318 
L 787.416159 233.982482 
L 788.426646 234.141671 
L 788.765756 234.021126 
L 789.099977 234.081454 
L 789.099977 233.952009 
L 789.767686 233.84148 
L 790.433928 234.100397 
L 793.409888 234.156577 
L 793.409888 234.053483 
L 793.409888 234.064829 
L 794.403505 233.947815 
L 795.06119 234.096978 
L 796.046494 233.983943 
L 796.703445 233.894043 
L 797.031798 234.002874 
L 797.031798 233.999917 
L 797.365285 233.932132 
L 797.693394 234.134805 
L 798.021747 234.072686 
L 798.021747 234.100206 
L 798.3501 234.182098 
L 799.669381 233.994336 
L 800.326821 233.81197 
L 801.970543 234.078699 
L 801.970543 234.073032 
L 802.299385 233.976131 
L 804.936235 234.172677 
L 805.925206 234.064116 
L 808.905324 234.111839 
L 808.905324 234.052002 
L 809.565697 234.148996 
L 810.8862 234.000435 
L 811.878839 234.1768 
L 812.209148 234.097441 
L 812.209148 234.125103 
L 812.539213 234.184941 
L 813.20032 234.110767 
L 815.242076 234.215637 
L 815.583632 234.34432 
L 815.583632 234.34432 
" clip-path="url(#p8c8931c1c2)" style="fill: none; stroke: #008000; stroke-width: 1.5; stroke-linecap: square"/>
   </g>
   <g id="patch_3">
    <path d="M 47.72 534.04 
L 47.72 26.88 
" style="fill: none; stroke: #000000; stroke-width: 0.8; stroke-linejoin: miter; stroke-linecap: square"/>
   </g>
   <g id="patch_4">
    <path d="M 853.2 534.04 
L 853.2 26.88 
" style="fill: none; stroke: #000000; stroke-width: 0.8; stroke-linejoin: miter; stroke-linecap: square"/>
   </g>
   <g id="patch_5">
    <path d="M 47.72 534.04 
L 853.2 534.04 
" style="fill: none; stroke: #000000; stroke-width: 0.8; stroke-linejoin: miter; stroke-linecap: square"/>
   </g>
   <g id="patch_6">
    <path d="M 47.72 26.88 
L 853.2 26.88 
" style="fill: none; stroke: #000000; stroke-width: 0.8; stroke-linejoin: miter; stroke-linecap: square"/>
   </g>
   <g id="patch_7">
    <path d="M 662.210313 372.100289 
Q 636.059019 377.934152 609.907725 383.768014 
L 610.778642 387.672051 
Q 604.270862 386.050073 597.763082 384.428095 
Q 602.964486 380.194018 608.16589 375.959941 
L 609.036808 379.863977 
Q 635.188102 374.030115 661.339395 368.196252 
L 662.210313 372.100289 
z
" style="stroke: #000000; stroke-linecap: round"/>
   </g>
   <g id="text_15">
    <!-- Peak: RT=3.48, Area=2.70e+04 -->
    <g style="fill: #ff0000" transform="translate(667.446948 355.605433) scale(0.1 -0.1)">
     <defs>
      <path id="DejaVuSans-50" d="M 1259 4147 
L 1259 2394 
L 2053 2394 
Q 2494 2394 2734 2622 
Q 2975 2850 2975 3272 
Q 2975 3691 2734 3919 
Q 2494 4147 2053 4147 
L 1259 4147 
z
M 628 4666 
L 2053 4666 
Q 2838 4666 3239 4311 
Q 3641 3956 3641 3272 
Q 3641 2581 3239 2228 
Q 2838 1875 2053 1875 
L 1259 1875 
L 1259 0 
L 628 0 
L 628 4666 
z
" transform="scale(0.015625)"/>
      <path id="DejaVuSans-6b" d="M 581 4863 
L 1159 4863 
L 1159 1991 
L 2875 3500 
L 3609 3500 
L 1753 1863 
L 3688 0 
L 2938 0 
L 1159 1709 
L 1159 0 
L 581 0 
L 581 4863 
z
" transform="scale(0.015625)"/>
      <path id="DejaVuSans-3a" d="M 750 794 
L 1409 794 
L 1409 0 
L 750 0 
L 750 794 
z
M 750 3309 
L 1409 3309 
L 1409 2516 
L 750 2516 
L 750 3309 
z
" transform="scale(0.015625)"/>
      <path id="DejaVuSans-3d" d="M 678 2906 
L 4684 2906 
L 4684 2381 
L 678 2381 
L 678 2906 
z
M 678 1631 
L 4684 1631 
L 4684 1100 
L 678 1100 
L 678 1631 
z
" transform="scale(0.015625)"/>
      <path id="DejaVuSans-38" d="M 2034 2216 
Q 1584 2216 1326 1975 
Q 1069 1734 1069 1313 
Q 1069 891 1326 650 
Q 1584 409 2034 409 
Q 2484 409 2743 651 
Q 3003 894 3003 1313 
Q 3003 1734 2745 1975 
Q 2488 2216 2034 2216 
z
M 1403 2484 
Q 997 2584 770 2862 
Q 544 3141 544 3541 
Q 544 4100 942 4425 
Q 1341 4750 2034 4750 
Q 2731 4750 3128 4425 
Q 3525 4100 3525 3541 
Q 3525 3141 3298 2862 
Q 3072 2584 2669 2484 
Q 3125 2378 3379 2068 
Q 3634 1759 3634 1313 
Q 3634 634 3220 271 
Q 2806 -91 2034 -91 
Q 1263 -91 848 271 
Q 434 634 434 1313 
Q 434 1759 690 2068 
Q 947 2378 1403 2484 
z
M 1172 3481 
Q 1172 3119 1398 2916 
Q 1625 2713 2034 2713 
Q 2441 2713 2670 2916 
Q 2900 3119 2900 3481 
Q 2900 3844 2670 4047 
Q 2441 4250 2034 4250 
Q 1625 4250 1398 4047 
Q 1172 3844 1172 3481 
z
" transform="scale(0.015625)"/>
      <path id="DejaVuSans-2c" d="M 750 794 
L 1409 794 
L 1409 256 
L 897 -744 
L 494 -744 
L 750 256 
L 750 794 
z
" transform="scale(0.015625)"/>
      <path id="DejaVuSans-41" d="M 2188 4044 
L 1331 1722 
L 3047 1722 
L 2188 4044 
z
M 1831 4666 
L 2547 4666 
L 4325 0 
L 3669 0 
L 3244 1197 
L 1141 1197 
L 716 0 
L 50 0 
L 1831 4666 
z
" transform="scale(0.015625)"/>
      <path id="DejaVuSans-37" d="M 525 4666 
L 3525 4666 
L 3525 4397 
L 1831 0 
L 1172 0 
L 2766 4134 
L 525 4134 
L 525 4666 
z
" transform="scale(0.015625)"/>
      <path id="DejaVuSans-2b" d="M 2944 4013 
L 2944 2272 
L 4684 2272 
L 4684 1741 
L 2944 1741 
L 2944 0 
L 2419 0 
L 2419 1741 
L 678 1741 
L 678 2272 
L 2419 2272 
L 2419 4013 
L 2944 4013 
z
" transform="scale(0.015625)"/>
     </defs>
     <use xlink:href="#DejaVuSans-50"/>
     <use xlink:href="#DejaVuSans-65" transform="translate(56.677734 0)"/>
     <use xlink:href="#DejaVuSans-61" transform="translate(118.201172 0)"/>
     <use xlink:href="#DejaVuSans-6b" transform="translate(179.480469 0)"/>
     <use xlink:href="#DejaVuSans-3a" transform="translate(237.390625 0)"/>
     <use xlink:href="#DejaVuSans-20" transform="translate(271.082031 0)"/>
     <use xlink:href="#DejaVuSans-52" transform="translate(302.869141 0)"/>
     <use xlink:href="#DejaVuSans-54" transform="translate(365.101562 0)"/>
     <use xlink:href="#DejaVuSans-3d" transform="translate(426.185547 0)"/>
     <use xlink:href="#DejaVuSans-33" transform="translate(509.974609 0)"/>
     <use xlink:href="#DejaVuSans-2e" transform="translate(573.597656 0)"/>
     <use xlink:href="#DejaVuSans-34" transform="translate(605.384766 0)"/>
     <use xlink:href="#DejaVuSans-38" transform="translate(669.007812 0)"/>
     <use xlink:href="#DejaVuSans-2c" transform="translate(732.630859 0)"/>
     <use xlink:href="#DejaVuSans-20" transform="translate(764.417969 0)"/>
     <use xlink:href="#DejaVuSans-41" transform="translate(796.205078 0)"/>
     <use xlink:href="#DejaVuSans-72" transform="translate(864.613281 0)"/>
     <use xlink:href="#DejaVuSans-65" transform="translate(903.476562 0)"/>
     <use xlink:href="#DejaVuSans-61" transform="translate(965 0)"/>
     <use xlink:href="#DejaVuSans-3d" transform="translate(1026.279297 0)"/>
     <use xlink:href="#DejaVuSans-32" transform="translate(1110.068359 0)"/>
     <use xlink:href="#DejaVuSans-2e" transform="translate(1173.691406 0)"/>
     <use xlink:href="#DejaVuSans-37" transform="translate(1205.478516 0)"/>
     <use xlink:href="#DejaVuSans-30" transform="translate(1269.101562 0)"/>
     <use xlink:href="#DejaVuSans-65" transform="translate(1332.724609 0)"/>
     <use xlink:href="#DejaVuSans-2b" transform="translate(1394.248047 0)"/>
     <use xlink:href="#DejaVuSans-30" transform="translate(1478.037109 0)"/>
     <use xlink:href="#DejaVuSans-34" transform="translate(1541.660156 0)"/>
    </g>
    <!-- (36.35% of total) -->
    <g style="fill: #ff0000" transform="translate(667.446948 366.803246) scale(0.1 -0.1)">
     <defs>
      <path id="DejaVuSans-36" d="M 2113 2584 
Q 1688 2584 1439 2293 
Q 1191 2003 1191 1497 
Q 1191 994 1439 701 
Q 1688 409 2113 409 
Q 2538 409 2786 701 
Q 3034 994 3034 1497 
Q 3034 2003 2786 2293 
Q 2538 2584 2113 2584 
z
M 3366 4563 
L 3366 3988 
Q 3128 4100 2886 4159 
Q 2644 4219 2406 4219 
Q 1781 4219 1451 3797 
Q 1122 3375 1075 2522 
Q 1259 2794 1537 2939 
Q 1816 3084 2150 3084 
Q 2853 3084 3261 2657 
Q 3669 2231 3669 1497 
Q 3669 778 3244 343 
Q 2819 -91 2113 -91 
Q 1303 -91 875 529 
Q 447 1150 447 2328 
Q 447 3434 972 4092 
Q 1497 4750 2381 4750 
Q 2619 4750 2861 4703 
Q 3103 4656 3366 4563 
z
" transform="scale(0.015625)"/>
      <path id="DejaVuSans-25" d="M 4653 2053 
Q 4381 2053 4226 1822 
Q 4072 1591 4072 1178 
Q 4072 772 4226 539 
Q 4381 306 4653 306 
Q 4919 306 5073 539 
Q 5228 772 5228 1178 
Q 5228 1588 5073 1820 
Q 4919 2053 4653 2053 
z
M 4653 2450 
Q 5147 2450 5437 2106 
Q 5728 1763 5728 1178 
Q 5728 594 5436 251 
Q 5144 -91 4653 -91 
Q 4153 -91 3862 251 
Q 3572 594 3572 1178 
Q 3572 1766 3864 2108 
Q 4156 2450 4653 2450 
z
M 1428 4353 
Q 1159 4353 1004 4120 
Q 850 3888 850 3481 
Q 850 3069 1003 2837 
Q 1156 2606 1428 2606 
Q 1700 2606 1854 2837 
Q 2009 3069 2009 3481 
Q 2009 3884 1853 4118 
Q 1697 4353 1428 4353 
z
M 4250 4750 
L 4750 4750 
L 1831 -91 
L 1331 -91 
L 4250 4750 
z
M 1428 4750 
Q 1922 4750 2215 4408 
Q 2509 4066 2509 3481 
Q 2509 2891 2217 2550 
Q 1925 2209 1428 2209 
Q 931 2209 642 2551 
Q 353 2894 353 3481 
Q 353 4063 643 4406 
Q 934 4750 1428 4750 
z
" transform="scale(0.015625)"/>
      <path id="DejaVuSans-66" d="M 2375 4863 
L 2375 4384 
L 1825 4384 
Q 1516 4384 1395 4259 
Q 1275 4134 1275 3809 
L 1275 3500 
L 2222 3500 
L 2222 3053 
L 1275 3053 
L 1275 0 
L 697 0 
L 697 3053 
L 147 3053 
L 147 3500 
L 697 3500 
L 697 3744 
Q 697 4328 969 4595 
Q 1241 4863 1831 4863 
L 2375 4863 
z
" transform="scale(0.015625)"/>
     </defs>
     <use xlink:href="#DejaVuSans-28"/>
     <use xlink:href="#DejaVuSans-33" transform="translate(39.013672 0)"/>
     <use xlink:href="#DejaVuSans-36" transform="translate(102.636719 0)"/>
     <use xlink:href="#DejaVuSans-2e" transform="translate(166.259766 0)"/>
     <use xlink:href="#DejaVuSans-33" transform="translate(198.046875 0)"/>
     <use xlink:href="#DejaVuSans-35" transform="translate(261.669922 0)"/>
     <use xlink:href="#DejaVuSans-25" transform="translate(325.292969 0)"/>
     <use xlink:href="#DejaVuSans-20" transform="translate(420.3125 0)"/>
     <use xlink:href="#DejaVuSans-6f" transform="translate(452.099609 0)"/>
     <use xlink:href="#DejaVuSans-66" transform="translate(513.28125 0)"/>
     <use xlink:href="#DejaVuSans-20" transform="translate(548.486328 0)"/>
     <use xlink:href="#DejaVuSans-74" transform="translate(580.273438 0)"/>
     <use xlink:href="#DejaVuSans-6f" transform="translate(619.482422 0)"/>
     <use xlink:href="#DejaVuSans-74" transform="translate(680.664062 0)"/>
     <use xlink:href="#DejaVuSans-61" transform="translate(719.873047 0)"/>
     <use xlink:href="#DejaVuSans-6c" transform="translate(781.152344 0)"/>
     <use xlink:href="#DejaVuSans-29" transform="translate(808.935547 0)"/>
    </g>
   </g>
   <g id="text_16">
    <!-- UV &amp; MS Chromatograms: IrCp2L2, target m/z=859.0856256 -->
    <g transform="translate(266.88625 20.88) scale(0.12 -0.12)">
     <defs>
      <path id="DejaVuSans-55" d="M 556 4666 
L 1191 4666 
L 1191 1831 
Q 1191 1081 1462 751 
Q 1734 422 2344 422 
Q 2950 422 3222 751 
Q 3494 1081 3494 1831 
L 3494 4666 
L 4128 4666 
L 4128 1753 
Q 4128 841 3676 375 
Q 3225 -91 2344 -91 
Q 1459 -91 1007 375 
Q 556 841 556 1753 
L 556 4666 
z
" transform="scale(0.015625)"/>
      <path id="DejaVuSans-56" d="M 1831 0 
L 50 4666 
L 709 4666 
L 2188 738 
L 3669 4666 
L 4325 4666 
L 2547 0 
L 1831 0 
z
" transform="scale(0.015625)"/>
      <path id="DejaVuSans-26" d="M 1556 2509 
Q 1272 2256 1139 2004 
Q 1006 1753 1006 1478 
Q 1006 1022 1337 719 
Q 1669 416 2169 416 
Q 2466 416 2725 514 
Q 2984 613 3213 813 
L 1556 2509 
z
M 1997 2859 
L 3584 1234 
Q 3769 1513 3872 1830 
Q 3975 2147 3994 2503 
L 4575 2503 
Q 4538 2091 4375 1687 
Q 4213 1284 3922 891 
L 4794 0 
L 4006 0 
L 3559 459 
Q 3234 181 2878 45 
Q 2522 -91 2113 -91 
Q 1359 -91 881 339 
Q 403 769 403 1441 
Q 403 1841 612 2192 
Q 822 2544 1241 2853 
Q 1091 3050 1012 3245 
Q 934 3441 934 3628 
Q 934 4134 1281 4442 
Q 1628 4750 2203 4750 
Q 2463 4750 2720 4694 
Q 2978 4638 3244 4525 
L 3244 3956 
Q 2972 4103 2725 4179 
Q 2478 4256 2266 4256 
Q 1938 4256 1733 4082 
Q 1528 3909 1528 3634 
Q 1528 3475 1620 3314 
Q 1713 3153 1997 2859 
z
" transform="scale(0.015625)"/>
      <path id="DejaVuSans-4d" d="M 628 4666 
L 1569 4666 
L 2759 1491 
L 3956 4666 
L 4897 4666 
L 4897 0 
L 4281 0 
L 4281 4097 
L 3078 897 
L 2444 897 
L 1241 4097 
L 1241 0 
L 628 0 
L 628 4666 
z
" transform="scale(0.015625)"/>
      <path id="DejaVuSans-53" d="M 3425 4513 
L 3425 3897 
Q 3066 4069 2747 4153 
Q 2428 4238 2131 4238 
Q 1616 4238 1336 4038 
Q 1056 3838 1056 3469 
Q 1056 3159 1242 3001 
Q 1428 2844 1947 2747 
L 2328 2669 
Q 3034 2534 3370 2195 
Q 3706 1856 3706 1288 
Q 3706 609 3251 259 
Q 2797 -91 1919 -91 
Q 1588 -91 1214 -16 
Q 841 59 441 206 
L 441 856 
Q 825 641 1194 531 
Q 1563 422 1919 422 
Q 2459 422 2753 634 
Q 3047 847 3047 1241 
Q 3047 1584 2836 1778 
Q 2625 1972 2144 2069 
L 1759 2144 
Q 1053 2284 737 2584 
Q 422 2884 422 3419 
Q 422 4038 858 4394 
Q 1294 4750 2059 4750 
Q 2388 4750 2728 4690 
Q 3069 4631 3425 4513 
z
" transform="scale(0.015625)"/>
      <path id="DejaVuSans-43" d="M 4122 4306 
L 4122 3641 
Q 3803 3938 3442 4084 
Q 3081 4231 2675 4231 
Q 1875 4231 1450 3742 
Q 1025 3253 1025 2328 
Q 1025 1406 1450 917 
Q 1875 428 2675 428 
Q 3081 428 3442 575 
Q 3803 722 4122 1019 
L 4122 359 
Q 3791 134 3420 21 
Q 3050 -91 2638 -91 
Q 1578 -91 968 557 
Q 359 1206 359 2328 
Q 359 3453 968 4101 
Q 1578 4750 2638 4750 
Q 3056 4750 3426 4639 
Q 3797 4528 4122 4306 
z
" transform="scale(0.015625)"/>
      <path id="DejaVuSans-68" d="M 3513 2113 
L 3513 0 
L 2938 0 
L 2938 2094 
Q 2938 2591 2744 2837 
Q 2550 3084 2163 3084 
Q 1697 3084 1428 2787 
Q 1159 2491 1159 1978 
L 1159 0 
L 581 0 
L 581 4863 
L 1159 4863 
L 1159 2956 
Q 1366 3272 1645 3428 
Q 1925 3584 2291 3584 
Q 2894 3584 3203 3211 
Q 3513 2838 3513 2113 
z
" transform="scale(0.015625)"/>
      <path id="DejaVuSans-67" d="M 2906 1791 
Q 2906 2416 2648 2759 
Q 2391 3103 1925 3103 
Q 1463 3103 1205 2759 
Q 947 2416 947 1791 
Q 947 1169 1205 825 
Q 1463 481 1925 481 
Q 2391 481 2648 825 
Q 2906 1169 2906 1791 
z
M 3481 434 
Q 3481 -459 3084 -895 
Q 2688 -1331 1869 -1331 
Q 1566 -1331 1297 -1286 
Q 1028 -1241 775 -1147 
L 775 -588 
Q 1028 -725 1275 -790 
Q 1522 -856 1778 -856 
Q 2344 -856 2625 -561 
Q 2906 -266 2906 331 
L 2906 616 
Q 2728 306 2450 153 
Q 2172 0 1784 0 
Q 1141 0 747 490 
Q 353 981 353 1791 
Q 353 2603 747 3093 
Q 1141 3584 1784 3584 
Q 2172 3584 2450 3431 
Q 2728 3278 2906 2969 
L 2906 3500 
L 3481 3500 
L 3481 434 
z
" transform="scale(0.015625)"/>
      <path id="DejaVuSans-70" d="M 1159 525 
L 1159 -1331 
L 581 -1331 
L 581 3500 
L 1159 3500 
L 1159 2969 
Q 1341 3281 1617 3432 
Q 1894 3584 2278 3584 
Q 2916 3584 3314 3078 
Q 3713 2572 3713 1747 
Q 3713 922 3314 415 
Q 2916 -91 2278 -91 
Q 1894 -91 1617 61 
Q 1341 213 1159 525 
z
M 3116 1747 
Q 3116 2381 2855 2742 
Q 2594 3103 2138 3103 
Q 1681 3103 1420 2742 
Q 1159 2381 1159 1747 
Q 1159 1113 1420 752 
Q 1681 391 2138 391 
Q 2594 391 2855 752 
Q 3116 1113 3116 1747 
z
" transform="scale(0.015625)"/>
      <path id="DejaVuSans-4c" d="M 628 4666 
L 1259 4666 
L 1259 531 
L 3531 531 
L 3531 0 
L 628 0 
L 628 4666 
z
" transform="scale(0.015625)"/>
      <path id="DejaVuSans-2f" d="M 1625 4666 
L 2156 4666 
L 531 -594 
L 0 -594 
L 1625 4666 
z
" transform="scale(0.015625)"/>
      <path id="DejaVuSans-39" d="M 703 97 
L 703 672 
Q 941 559 1184 500 
Q 1428 441 1663 441 
Q 2288 441 2617 861 
Q 2947 1281 2994 2138 
Q 2813 1869 2534 1725 
Q 2256 1581 1919 1581 
Q 1219 1581 811 2004 
Q 403 2428 403 3163 
Q 403 3881 828 4315 
Q 1253 4750 1959 4750 
Q 2769 4750 3195 4129 
Q 3622 3509 3622 2328 
Q 3622 1225 3098 567 
Q 2575 -91 1691 -91 
Q 1453 -91 1209 -44 
Q 966 3 703 97 
z
M 1959 2075 
Q 2384 2075 2632 2365 
Q 2881 2656 2881 3163 
Q 2881 3666 2632 3958 
Q 2384 4250 1959 4250 
Q 1534 4250 1286 3958 
Q 1038 3666 1038 3163 
Q 1038 2656 1286 2365 
Q 1534 2075 1959 2075 
z
" transform="scale(0.015625)"/>
     </defs>
     <use xlink:href="#DejaVuSans-55"/>
     <use xlink:href="#DejaVuSans-56" transform="translate(73.193359 0)"/>
     <use xlink:href="#DejaVuSans-20" transform="translate(141.601562 0)"/>
     <use xlink:href="#DejaVuSans-26" transform="translate(173.388672 0)"/>
     <use xlink:href="#DejaVuSans-20" transform="translate(251.367188 0)"/>
     <use xlink:href="#DejaVuSans-4d" transform="translate(283.154297 0)"/>
     <use xlink:href="#DejaVuSans-53" transform="translate(369.433594 0)"/>
     <use xlink:href="#DejaVuSans-20" transform="translate(432.910156 0)"/>
     <use xlink:href="#DejaVuSans-43" transform="translate(464.697266 0)"/>
     <use xlink:href="#DejaVuSans-68" transform="translate(534.521484 0)"/>
     <use xlink:href="#DejaVuSans-72" transform="translate(597.900391 0)"/>
     <use xlink:href="#DejaVuSans-6f" transform="translate(636.763672 0)"/>
     <use xlink:href="#DejaVuSans-6d" transform="translate(697.945312 0)"/>
     <use xlink:href="#DejaVuSans-61" transform="translate(795.357422 0)"/>
     <use xlink:href="#DejaVuSans-74" transform="translate(856.636719 0)"/>
     <use xlink:href="#DejaVuSans-6f" transform="translate(895.845703 0)"/>
     <use xlink:href="#DejaVuSans-67" transform="translate(957.027344 0)"/>
     <use xlink:href="#DejaVuSans-72" transform="translate(1020.503906 0)"/>
     <use xlink:href="#DejaVuSans-61" transform="translate(1061.617188 0)"/>
     <use xlink:href="#DejaVuSans-6d" transform="translate(1122.896484 0)"/>
     <use xlink:href="#DejaVuSans-73" transform="translate(1220.308594 0)"/>
     <use xlink:href="#DejaVuSans-3a" transform="translate(1272.408203 0)"/>
     <use xlink:href="#DejaVuSans-20" transform="translate(1306.099609 0)"/>
     <use xlink:href="#DejaVuSans-49" transform="translate(1337.886719 0)"/>
     <use xlink:href="#DejaVuSans-72" transform="translate(1367.378906 0)"/>
     <use xlink:href="#DejaVuSans-43" transform="translate(1408.492188 0)"/>
     <use xlink:href="#DejaVuSans-70" transform="translate(1478.316406 0)"/>
     <use xlink:href="#DejaVuSans-32" transform="translate(1541.792969 0)"/>
     <use xlink:href="#DejaVuSans-4c" transform="translate(1605.416016 0)"/>
     <use xlink:href="#DejaVuSans-32" transform="translate(1661.128906 0)"/>
     <use xlink:href="#DejaVuSans-2c" transform="translate(1724.751953 0)"/>
     <use xlink:href="#DejaVuSans-20" transform="translate(1756.539062 0)"/>
     <use xlink:href="#DejaVuSans-74" transform="translate(1788.326172 0)"/>
     <use xlink:href="#DejaVuSans-61" transform="translate(1827.535156 0)"/>
     <use xlink:href="#DejaVuSans-72" transform="translate(1888.814453 0)"/>
     <use xlink:href="#DejaVuSans-67" transform="translate(1928.177734 0)"/>
     <use xlink:href="#DejaVuSans-65" transform="translate(1991.654297 0)"/>
     <use xlink:href="#DejaVuSans-74" transform="translate(2053.177734 0)"/>
     <use xlink:href="#DejaVuSans-20" transform="translate(2092.386719 0)"/>
     <use xlink:href="#DejaVuSans-6d" transform="translate(2124.173828 0)"/>
     <use xlink:href="#DejaVuSans-2f" transform="translate(2221.585938 0)"/>
     <use xlink:href="#DejaVuSans-7a" transform="translate(2255.277344 0)"/>
     <use xlink:href="#DejaVuSans-3d" transform="translate(2307.767578 0)"/>
     <use xlink:href="#DejaVuSans-38" transform="translate(2391.556641 0)"/>
     <use xlink:href="#DejaVuSans-35" transform="translate(2455.179688 0)"/>
     <use xlink:href="#DejaVuSans-39" transform="translate(2518.802734 0)"/>
     <use xlink:href="#DejaVuSans-2e" transform="translate(2582.425781 0)"/>
     <use xlink:href="#DejaVuSans-30" transform="translate(2614.212891 0)"/>
     <use xlink:href="#DejaVuSans-38" transform="translate(2677.835938 0)"/>
     <use xlink:href="#DejaVuSans-35" transform="translate(2741.458984 0)"/>
     <use xlink:href="#DejaVuSans-36" transform="translate(2805.082031 0)"/>
     <use xlink:href="#DejaVuSans-32" transform="translate(2868.705078 0)"/>
     <use xlink:href="#DejaVuSans-35" transform="translate(2932.328125 0)"/>
     <use xlink:href="#DejaVuSans-36" transform="translate(2995.951172 0)"/>
    </g>
   </g>
   <g id="legend_1">
    <g id="patch_8">
     <path d="M 685.971875 64.23625 
L 846.2 64.23625 
Q 848.2 64.23625 848.2 62.23625 
L 848.2 33.88 
Q 848.2 31.88 846.2 31.88 
L 685.971875 31.88 
Q 683.971875 31.88 683.971875 33.88 
L 683.971875 62.23625 
Q 683.971875 64.23625 685.971875 64.23625 
z
" style="fill: #ffffff; opacity: 0.8; stroke: #cccccc; stroke-linejoin: miter"/>
    </g>
    <g id="line2d_15">
     <path d="M 687.971875 39.978437 
L 697.971875 39.978437 
L 707.971875 39.978437 
" style="fill: none; stroke: #0000ff; stroke-width: 1.5; stroke-linecap: square"/>
    </g>
    <g id="text_17">
     <!-- UV Intensity (normalized) -->
     <g transform="translate(715.971875 43.478437) scale(0.1 -0.1)">
      <use xlink:href="#DejaVuSans-55"/>
      <use xlink:href="#DejaVuSans-56" transform="translate(73.193359 0)"/>
      <use xlink:href="#DejaVuSans-20" transform="translate(141.601562 0)"/>
      <use xlink:href="#DejaVuSans-49" transform="translate(173.388672 0)"/>
      <use xlink:href="#DejaVuSans-6e" transform="translate(202.880859 0)"/>
      <use xlink:href="#DejaVuSans-74" transform="translate(266.259766 0)"/>
      <use xlink:href="#DejaVuSans-65" transform="translate(305.46875 0)"/>
      <use xlink:href="#DejaVuSans-6e" transform="translate(366.992188 0)"/>
      <use xlink:href="#DejaVuSans-73" transform="translate(430.371094 0)"/>
      <use xlink:href="#DejaVuSans-69" transform="translate(482.470703 0)"/>
      <use xlink:href="#DejaVuSans-74" transform="translate(510.253906 0)"/>
      <use xlink:href="#DejaVuSans-79" transform="translate(549.462891 0)"/>
      <use xlink:href="#DejaVuSans-20" transform="translate(608.642578 0)"/>
      <use xlink:href="#DejaVuSans-28" transform="translate(640.429688 0)"/>
      <use xlink:href="#DejaVuSans-6e" transform="translate(679.443359 0)"/>
      <use xlink:href="#DejaVuSans-6f" transform="translate(742.822266 0)"/>
      <use xlink:href="#DejaVuSans-72" transform="translate(804.003906 0)"/>
      <use xlink:href="#DejaVuSans-6d" transform="translate(843.367188 0)"/>
      <use xlink:href="#DejaVuSans-61" transform="translate(940.779297 0)"/>
      <use xlink:href="#DejaVuSans-6c" transform="translate(1002.058594 0)"/>
      <use xlink:href="#DejaVuSans-69" transform="translate(1029.841797 0)"/>
      <use xlink:href="#DejaVuSans-7a" transform="translate(1057.625 0)"/>
      <use xlink:href="#DejaVuSans-65" transform="translate(1110.115234 0)"/>
      <use xlink:href="#DejaVuSans-64" transform="translate(1171.638672 0)"/>
      <use xlink:href="#DejaVuSans-29" transform="translate(1235.115234 0)"/>
     </g>
    </g>
    <g id="line2d_16">
     <path d="M 687.971875 54.656562 
L 697.971875 54.656562 
L 707.971875 54.656562 
" style="fill: none; stroke: #008000; stroke-width: 1.5; stroke-linecap: square"/>
    </g>
    <g id="text_18">
     <!-- MS Intensity (normalized) -->
     <g transform="translate(715.971875 58.156562) scale(0.1 -0.1)">
      <use xlink:href="#DejaVuSans-4d"/>
      <use xlink:href="#DejaVuSans-53" transform="translate(86.279297 0)"/>
      <use xlink:href="#DejaVuSans-20" transform="translate(149.755859 0)"/>
      <use xlink:href="#DejaVuSans-49" transform="translate(181.542969 0)"/>
      <use xlink:href="#DejaVuSans-6e" transform="translate(211.035156 0)"/>
      <use xlink:href="#DejaVuSans-74" transform="translate(274.414062 0)"/>
      <use xlink:href="#DejaVuSans-65" transform="translate(313.623047 0)"/>
      <use xlink:href="#DejaVuSans-6e" transform="translate(375.146484 0)"/>
      <use xlink:href="#DejaVuSans-73" transform="translate(438.525391 0)"/>
      <use xlink:href="#DejaVuSans-69" transform="translate(490.625 0)"/>
      <use xlink:href="#DejaVuSans-74" transform="translate(518.408203 0)"/>
      <use xlink:href="#DejaVuSans-79" transform="translate(557.617188 0)"/>
      <use xlink:href="#DejaVuSans-20" transform="translate(616.796875 0)"/>
      <use xlink:href="#DejaVuSans-28" transform="translate(648.583984 0)"/>
      <use xlink:href="#DejaVuSans-6e" transform="translate(687.597656 0)"/>
      <use xlink:href="#DejaVuSans-6f" transform="translate(750.976562 0)"/>
      <use xlink:href="#DejaVuSans-72" transform="translate(812.158203 0)"/>
      <use xlink:href="#DejaVuSans-6d" transform="translate(851.521484 0)"/>
      <use xlink:href="#DejaVuSans-61" transform="translate(948.933594 0)"/>
      <use xlink:href="#DejaVuSans-6c" transform="translate(1010.212891 0)"/>
      <use xlink:href="#DejaVuSans-69" transform="translate(1037.996094 0)"/>
      <use xlink:href="#DejaVuSans-7a" transform="translate(1065.779297 0)"/>
      <use xlink:href="#DejaVuSans-65" transform="translate(1118.269531 0)"/>
      <use xlink:href="#DejaVuSans-64" transform="translate(1179.792969 0)"/>
      <use xlink:href="#DejaVuSans-29" transform="translate(1243.269531 0)"/>
     </g>
    </g>
   </g>
  </g>
 </g>
 <defs>
  <clipPath id="p8c8931c1c2">
   <rect x="47.72" y="26.88" width="805.48" height="507.16"/>
  </clipPath>
 </defs>
</svg>
