<?xml version="1.0" encoding="utf-8" standalone="no"?>
<!DOCTYPE svg PUBLIC "-//W3C//DTD SVG 1.1//EN"
  "http://www.w3.org/Graphics/SVG/1.1/DTD/svg11.dtd">
<svg xmlns:xlink="http://www.w3.org/1999/xlink" width="864pt" height="576pt" viewBox="0 0 864 576" xmlns="http://www.w3.org/2000/svg" version="1.1">
 <metadata>
  <rdf:RDF xmlns:dc="http://purl.org/dc/elements/1.1/" xmlns:cc="http://creativecommons.org/ns#" xmlns:rdf="http://www.w3.org/1999/02/22-rdf-syntax-ns#">
   <cc:Work>
    <dc:type rdf:resource="http://purl.org/dc/dcmitype/StillImage"/>
    <dc:date>2025-02-06T15:10:45.746108</dc:date>
    <dc:format>image/svg+xml</dc:format>
    <dc:creator>
     <cc:Agent>
      <dc:title>Matplotlib v3.10.0, https://matplotlib.org/</dc:title>
     </cc:Agent>
    </dc:creator>
   </cc:Work>
  </rdf:RDF>
 </metadata>
 <defs>
  <style type="text/css">*{stroke-linejoin: round; stroke-linecap: butt}</style>
 </defs>
 <g id="figure_1">
  <g id="patch_1">
   <path d="M 0 576 
L 864 576 
L 864 0 
L 0 0 
z
" style="fill: #ffffff"/>
  </g>
  <g id="axes_1">
   <g id="patch_2">
    <path d="M 47.72 534.04 
L 853.2 534.04 
L 853.2 26.88 
L 47.72 26.88 
z
" style="fill: #ffffff"/>
   </g>
   <g id="matplotlib.axis_1">
    <g id="xtick_1">
     <g id="line2d_1">
      <defs>
       <path id="m8a24af8f86" d="M 0 0 
L 0 3.5 
" style="stroke: #000000; stroke-width: 0.8"/>
      </defs>
      <g>
       <use xlink:href="#m8a24af8f86" x="83.100486" y="534.04" style="stroke: #000000; stroke-width: 0.8"/>
      </g>
     </g>
     <g id="text_1">
      <!-- 0 -->
      <g transform="translate(79.919236 548.638438) scale(0.1 -0.1)">
       <defs>
        <path id="DejaVuSans-30" d="M 2034 4250 
Q 1547 4250 1301 3770 
Q 1056 3291 1056 2328 
Q 1056 1369 1301 889 
Q 1547 409 2034 409 
Q 2525 409 2770 889 
Q 3016 1369 3016 2328 
Q 3016 3291 2770 3770 
Q 2525 4250 2034 4250 
z
M 2034 4750 
Q 2819 4750 3233 4129 
Q 3647 3509 3647 2328 
Q 3647 1150 3233 529 
Q 2819 -91 2034 -91 
Q 1250 -91 836 529 
Q 422 1150 422 2328 
Q 422 3509 836 4129 
Q 1250 4750 2034 4750 
z
" transform="scale(0.015625)"/>
       </defs>
       <use xlink:href="#DejaVuSans-30"/>
      </g>
     </g>
    </g>
    <g id="xtick_2">
     <g id="line2d_2">
      <g>
       <use xlink:href="#m8a24af8f86" x="229.795887" y="534.04" style="stroke: #000000; stroke-width: 0.8"/>
      </g>
     </g>
     <g id="text_2">
      <!-- 1 -->
      <g transform="translate(226.614637 548.638438) scale(0.1 -0.1)">
       <defs>
        <path id="DejaVuSans-31" d="M 794 531 
L 1825 531 
L 1825 4091 
L 703 3866 
L 703 4441 
L 1819 4666 
L 2450 4666 
L 2450 531 
L 3481 531 
L 3481 0 
L 794 0 
L 794 531 
z
" transform="scale(0.015625)"/>
       </defs>
       <use xlink:href="#DejaVuSans-31"/>
      </g>
     </g>
    </g>
    <g id="xtick_3">
     <g id="line2d_3">
      <g>
       <use xlink:href="#m8a24af8f86" x="376.491289" y="534.04" style="stroke: #000000; stroke-width: 0.8"/>
      </g>
     </g>
     <g id="text_3">
      <!-- 2 -->
      <g transform="translate(373.310039 548.638438) scale(0.1 -0.1)">
       <defs>
        <path id="DejaVuSans-32" d="M 1228 531 
L 3431 531 
L 3431 0 
L 469 0 
L 469 531 
Q 828 903 1448 1529 
Q 2069 2156 2228 2338 
Q 2531 2678 2651 2914 
Q 2772 3150 2772 3378 
Q 2772 3750 2511 3984 
Q 2250 4219 1831 4219 
Q 1534 4219 1204 4116 
Q 875 4013 500 3803 
L 500 4441 
Q 881 4594 1212 4672 
Q 1544 4750 1819 4750 
Q 2544 4750 2975 4387 
Q 3406 4025 3406 3419 
Q 3406 3131 3298 2873 
Q 3191 2616 2906 2266 
Q 2828 2175 2409 1742 
Q 1991 1309 1228 531 
z
" transform="scale(0.015625)"/>
       </defs>
       <use xlink:href="#DejaVuSans-32"/>
      </g>
     </g>
    </g>
    <g id="xtick_4">
     <g id="line2d_4">
      <g>
       <use xlink:href="#m8a24af8f86" x="523.18669" y="534.04" style="stroke: #000000; stroke-width: 0.8"/>
      </g>
     </g>
     <g id="text_4">
      <!-- 3 -->
      <g transform="translate(520.00544 548.638438) scale(0.1 -0.1)">
       <defs>
        <path id="DejaVuSans-33" d="M 2597 2516 
Q 3050 2419 3304 2112 
Q 3559 1806 3559 1356 
Q 3559 666 3084 287 
Q 2609 -91 1734 -91 
Q 1441 -91 1130 -33 
Q 819 25 488 141 
L 488 750 
Q 750 597 1062 519 
Q 1375 441 1716 441 
Q 2309 441 2620 675 
Q 2931 909 2931 1356 
Q 2931 1769 2642 2001 
Q 2353 2234 1838 2234 
L 1294 2234 
L 1294 2753 
L 1863 2753 
Q 2328 2753 2575 2939 
Q 2822 3125 2822 3475 
Q 2822 3834 2567 4026 
Q 2313 4219 1838 4219 
Q 1578 4219 1281 4162 
Q 984 4106 628 3988 
L 628 4550 
Q 988 4650 1302 4700 
Q 1616 4750 1894 4750 
Q 2613 4750 3031 4423 
Q 3450 4097 3450 3541 
Q 3450 3153 3228 2886 
Q 3006 2619 2597 2516 
z
" transform="scale(0.015625)"/>
       </defs>
       <use xlink:href="#DejaVuSans-33"/>
      </g>
     </g>
    </g>
    <g id="xtick_5">
     <g id="line2d_5">
      <g>
       <use xlink:href="#m8a24af8f86" x="669.882092" y="534.04" style="stroke: #000000; stroke-width: 0.8"/>
      </g>
     </g>
     <g id="text_5">
      <!-- 4 -->
      <g transform="translate(666.700842 548.638438) scale(0.1 -0.1)">
       <defs>
        <path id="DejaVuSans-34" d="M 2419 4116 
L 825 1625 
L 2419 1625 
L 2419 4116 
z
M 2253 4666 
L 3047 4666 
L 3047 1625 
L 3713 1625 
L 3713 1100 
L 3047 1100 
L 3047 0 
L 2419 0 
L 2419 1100 
L 313 1100 
L 313 1709 
L 2253 4666 
z
" transform="scale(0.015625)"/>
       </defs>
       <use xlink:href="#DejaVuSans-34"/>
      </g>
     </g>
    </g>
    <g id="xtick_6">
     <g id="line2d_6">
      <g>
       <use xlink:href="#m8a24af8f86" x="816.577493" y="534.04" style="stroke: #000000; stroke-width: 0.8"/>
      </g>
     </g>
     <g id="text_6">
      <!-- 5 -->
      <g transform="translate(813.396243 548.638438) scale(0.1 -0.1)">
       <defs>
        <path id="DejaVuSans-35" d="M 691 4666 
L 3169 4666 
L 3169 4134 
L 1269 4134 
L 1269 2991 
Q 1406 3038 1543 3061 
Q 1681 3084 1819 3084 
Q 2600 3084 3056 2656 
Q 3513 2228 3513 1497 
Q 3513 744 3044 326 
Q 2575 -91 1722 -91 
Q 1428 -91 1123 -41 
Q 819 9 494 109 
L 494 744 
Q 775 591 1075 516 
Q 1375 441 1709 441 
Q 2250 441 2565 725 
Q 2881 1009 2881 1497 
Q 2881 1984 2565 2268 
Q 2250 2553 1709 2553 
Q 1456 2553 1204 2497 
Q 953 2441 691 2322 
L 691 4666 
z
" transform="scale(0.015625)"/>
       </defs>
       <use xlink:href="#DejaVuSans-35"/>
      </g>
     </g>
    </g>
    <g id="text_7">
     <!-- Retention Time (min) -->
     <g transform="translate(397.61 562.316562) scale(0.1 -0.1)">
      <defs>
       <path id="DejaVuSans-52" d="M 2841 2188 
Q 3044 2119 3236 1894 
Q 3428 1669 3622 1275 
L 4263 0 
L 3584 0 
L 2988 1197 
Q 2756 1666 2539 1819 
Q 2322 1972 1947 1972 
L 1259 1972 
L 1259 0 
L 628 0 
L 628 4666 
L 2053 4666 
Q 2853 4666 3247 4331 
Q 3641 3997 3641 3322 
Q 3641 2881 3436 2590 
Q 3231 2300 2841 2188 
z
M 1259 4147 
L 1259 2491 
L 2053 2491 
Q 2509 2491 2742 2702 
Q 2975 2913 2975 3322 
Q 2975 3731 2742 3939 
Q 2509 4147 2053 4147 
L 1259 4147 
z
" transform="scale(0.015625)"/>
       <path id="DejaVuSans-65" d="M 3597 1894 
L 3597 1613 
L 953 1613 
Q 991 1019 1311 708 
Q 1631 397 2203 397 
Q 2534 397 2845 478 
Q 3156 559 3463 722 
L 3463 178 
Q 3153 47 2828 -22 
Q 2503 -91 2169 -91 
Q 1331 -91 842 396 
Q 353 884 353 1716 
Q 353 2575 817 3079 
Q 1281 3584 2069 3584 
Q 2775 3584 3186 3129 
Q 3597 2675 3597 1894 
z
M 3022 2063 
Q 3016 2534 2758 2815 
Q 2500 3097 2075 3097 
Q 1594 3097 1305 2825 
Q 1016 2553 972 2059 
L 3022 2063 
z
" transform="scale(0.015625)"/>
       <path id="DejaVuSans-74" d="M 1172 4494 
L 1172 3500 
L 2356 3500 
L 2356 3053 
L 1172 3053 
L 1172 1153 
Q 1172 725 1289 603 
Q 1406 481 1766 481 
L 2356 481 
L 2356 0 
L 1766 0 
Q 1100 0 847 248 
Q 594 497 594 1153 
L 594 3053 
L 172 3053 
L 172 3500 
L 594 3500 
L 594 4494 
L 1172 4494 
z
" transform="scale(0.015625)"/>
       <path id="DejaVuSans-6e" d="M 3513 2113 
L 3513 0 
L 2938 0 
L 2938 2094 
Q 2938 2591 2744 2837 
Q 2550 3084 2163 3084 
Q 1697 3084 1428 2787 
Q 1159 2491 1159 1978 
L 1159 0 
L 581 0 
L 581 3500 
L 1159 3500 
L 1159 2956 
Q 1366 3272 1645 3428 
Q 1925 3584 2291 3584 
Q 2894 3584 3203 3211 
Q 3513 2838 3513 2113 
z
" transform="scale(0.015625)"/>
       <path id="DejaVuSans-69" d="M 603 3500 
L 1178 3500 
L 1178 0 
L 603 0 
L 603 3500 
z
M 603 4863 
L 1178 4863 
L 1178 4134 
L 603 4134 
L 603 4863 
z
" transform="scale(0.015625)"/>
       <path id="DejaVuSans-6f" d="M 1959 3097 
Q 1497 3097 1228 2736 
Q 959 2375 959 1747 
Q 959 1119 1226 758 
Q 1494 397 1959 397 
Q 2419 397 2687 759 
Q 2956 1122 2956 1747 
Q 2956 2369 2687 2733 
Q 2419 3097 1959 3097 
z
M 1959 3584 
Q 2709 3584 3137 3096 
Q 3566 2609 3566 1747 
Q 3566 888 3137 398 
Q 2709 -91 1959 -91 
Q 1206 -91 779 398 
Q 353 888 353 1747 
Q 353 2609 779 3096 
Q 1206 3584 1959 3584 
z
" transform="scale(0.015625)"/>
       <path id="DejaVuSans-20" transform="scale(0.015625)"/>
       <path id="DejaVuSans-54" d="M -19 4666 
L 3928 4666 
L 3928 4134 
L 2272 4134 
L 2272 0 
L 1638 0 
L 1638 4134 
L -19 4134 
L -19 4666 
z
" transform="scale(0.015625)"/>
       <path id="DejaVuSans-6d" d="M 3328 2828 
Q 3544 3216 3844 3400 
Q 4144 3584 4550 3584 
Q 5097 3584 5394 3201 
Q 5691 2819 5691 2113 
L 5691 0 
L 5113 0 
L 5113 2094 
Q 5113 2597 4934 2840 
Q 4756 3084 4391 3084 
Q 3944 3084 3684 2787 
Q 3425 2491 3425 1978 
L 3425 0 
L 2847 0 
L 2847 2094 
Q 2847 2600 2669 2842 
Q 2491 3084 2119 3084 
Q 1678 3084 1418 2786 
Q 1159 2488 1159 1978 
L 1159 0 
L 581 0 
L 581 3500 
L 1159 3500 
L 1159 2956 
Q 1356 3278 1631 3431 
Q 1906 3584 2284 3584 
Q 2666 3584 2933 3390 
Q 3200 3197 3328 2828 
z
" transform="scale(0.015625)"/>
       <path id="DejaVuSans-28" d="M 1984 4856 
Q 1566 4138 1362 3434 
Q 1159 2731 1159 2009 
Q 1159 1288 1364 580 
Q 1569 -128 1984 -844 
L 1484 -844 
Q 1016 -109 783 600 
Q 550 1309 550 2009 
Q 550 2706 781 3412 
Q 1013 4119 1484 4856 
L 1984 4856 
z
" transform="scale(0.015625)"/>
       <path id="DejaVuSans-29" d="M 513 4856 
L 1013 4856 
Q 1481 4119 1714 3412 
Q 1947 2706 1947 2009 
Q 1947 1309 1714 600 
Q 1481 -109 1013 -844 
L 513 -844 
Q 928 -128 1133 580 
Q 1338 1288 1338 2009 
Q 1338 2731 1133 3434 
Q 928 4138 513 4856 
z
" transform="scale(0.015625)"/>
      </defs>
      <use xlink:href="#DejaVuSans-52"/>
      <use xlink:href="#DejaVuSans-65" transform="translate(64.982422 0)"/>
      <use xlink:href="#DejaVuSans-74" transform="translate(126.505859 0)"/>
      <use xlink:href="#DejaVuSans-65" transform="translate(165.714844 0)"/>
      <use xlink:href="#DejaVuSans-6e" transform="translate(227.238281 0)"/>
      <use xlink:href="#DejaVuSans-74" transform="translate(290.617188 0)"/>
      <use xlink:href="#DejaVuSans-69" transform="translate(329.826172 0)"/>
      <use xlink:href="#DejaVuSans-6f" transform="translate(357.609375 0)"/>
      <use xlink:href="#DejaVuSans-6e" transform="translate(418.791016 0)"/>
      <use xlink:href="#DejaVuSans-20" transform="translate(482.169922 0)"/>
      <use xlink:href="#DejaVuSans-54" transform="translate(513.957031 0)"/>
      <use xlink:href="#DejaVuSans-69" transform="translate(571.916016 0)"/>
      <use xlink:href="#DejaVuSans-6d" transform="translate(599.699219 0)"/>
      <use xlink:href="#DejaVuSans-65" transform="translate(697.111328 0)"/>
      <use xlink:href="#DejaVuSans-20" transform="translate(758.634766 0)"/>
      <use xlink:href="#DejaVuSans-28" transform="translate(790.421875 0)"/>
      <use xlink:href="#DejaVuSans-6d" transform="translate(829.435547 0)"/>
      <use xlink:href="#DejaVuSans-69" transform="translate(926.847656 0)"/>
      <use xlink:href="#DejaVuSans-6e" transform="translate(954.630859 0)"/>
      <use xlink:href="#DejaVuSans-29" transform="translate(1018.009766 0)"/>
     </g>
    </g>
   </g>
   <g id="matplotlib.axis_2">
    <g id="ytick_1">
     <g id="line2d_7">
      <defs>
       <path id="m7bddb94834" d="M 0 0 
L -3.5 0 
" style="stroke: #000000; stroke-width: 0.8"/>
      </defs>
      <g>
       <use xlink:href="#m7bddb94834" x="47.72" y="510.092013" style="stroke: #000000; stroke-width: 0.8"/>
      </g>
     </g>
     <g id="text_8">
      <!-- 0.0 -->
      <g style="fill: #0000ff" transform="translate(24.816875 513.891232) scale(0.1 -0.1)">
       <defs>
        <path id="DejaVuSans-2e" d="M 684 794 
L 1344 794 
L 1344 0 
L 684 0 
L 684 794 
z
" transform="scale(0.015625)"/>
       </defs>
       <use xlink:href="#DejaVuSans-30"/>
       <use xlink:href="#DejaVuSans-2e" transform="translate(63.623047 0)"/>
       <use xlink:href="#DejaVuSans-30" transform="translate(95.410156 0)"/>
      </g>
     </g>
    </g>
    <g id="ytick_2">
     <g id="line2d_8">
      <g>
       <use xlink:href="#m7bddb94834" x="47.72" y="418.060156" style="stroke: #000000; stroke-width: 0.8"/>
      </g>
     </g>
     <g id="text_9">
      <!-- 0.5 -->
      <g style="fill: #0000ff" transform="translate(24.816875 421.859375) scale(0.1 -0.1)">
       <use xlink:href="#DejaVuSans-30"/>
       <use xlink:href="#DejaVuSans-2e" transform="translate(63.623047 0)"/>
       <use xlink:href="#DejaVuSans-35" transform="translate(95.410156 0)"/>
      </g>
     </g>
    </g>
    <g id="ytick_3">
     <g id="line2d_9">
      <g>
       <use xlink:href="#m7bddb94834" x="47.72" y="326.028299" style="stroke: #000000; stroke-width: 0.8"/>
      </g>
     </g>
     <g id="text_10">
      <!-- 1.0 -->
      <g style="fill: #0000ff" transform="translate(24.816875 329.827518) scale(0.1 -0.1)">
       <use xlink:href="#DejaVuSans-31"/>
       <use xlink:href="#DejaVuSans-2e" transform="translate(63.623047 0)"/>
       <use xlink:href="#DejaVuSans-30" transform="translate(95.410156 0)"/>
      </g>
     </g>
    </g>
    <g id="ytick_4">
     <g id="line2d_10">
      <g>
       <use xlink:href="#m7bddb94834" x="47.72" y="233.996442" style="stroke: #000000; stroke-width: 0.8"/>
      </g>
     </g>
     <g id="text_11">
      <!-- 1.5 -->
      <g style="fill: #0000ff" transform="translate(24.816875 237.79566) scale(0.1 -0.1)">
       <use xlink:href="#DejaVuSans-31"/>
       <use xlink:href="#DejaVuSans-2e" transform="translate(63.623047 0)"/>
       <use xlink:href="#DejaVuSans-35" transform="translate(95.410156 0)"/>
      </g>
     </g>
    </g>
    <g id="ytick_5">
     <g id="line2d_11">
      <g>
       <use xlink:href="#m7bddb94834" x="47.72" y="141.964584" style="stroke: #000000; stroke-width: 0.8"/>
      </g>
     </g>
     <g id="text_12">
      <!-- 2.0 -->
      <g style="fill: #0000ff" transform="translate(24.816875 145.763803) scale(0.1 -0.1)">
       <use xlink:href="#DejaVuSans-32"/>
       <use xlink:href="#DejaVuSans-2e" transform="translate(63.623047 0)"/>
       <use xlink:href="#DejaVuSans-30" transform="translate(95.410156 0)"/>
      </g>
     </g>
    </g>
    <g id="ytick_6">
     <g id="line2d_12">
      <g>
       <use xlink:href="#m7bddb94834" x="47.72" y="49.932727" style="stroke: #000000; stroke-width: 0.8"/>
      </g>
     </g>
     <g id="text_13">
      <!-- 2.5 -->
      <g style="fill: #0000ff" transform="translate(24.816875 53.731946) scale(0.1 -0.1)">
       <use xlink:href="#DejaVuSans-32"/>
       <use xlink:href="#DejaVuSans-2e" transform="translate(63.623047 0)"/>
       <use xlink:href="#DejaVuSans-35" transform="translate(95.410156 0)"/>
      </g>
     </g>
    </g>
    <g id="text_14">
     <!-- Normalized Intensity -->
     <g style="fill: #0000ff" transform="translate(18.737187 332.167031) rotate(-90) scale(0.1 -0.1)">
      <defs>
       <path id="DejaVuSans-4e" d="M 628 4666 
L 1478 4666 
L 3547 763 
L 3547 4666 
L 4159 4666 
L 4159 0 
L 3309 0 
L 1241 3903 
L 1241 0 
L 628 0 
L 628 4666 
z
" transform="scale(0.015625)"/>
       <path id="DejaVuSans-72" d="M 2631 2963 
Q 2534 3019 2420 3045 
Q 2306 3072 2169 3072 
Q 1681 3072 1420 2755 
Q 1159 2438 1159 1844 
L 1159 0 
L 581 0 
L 581 3500 
L 1159 3500 
L 1159 2956 
Q 1341 3275 1631 3429 
Q 1922 3584 2338 3584 
Q 2397 3584 2469 3576 
Q 2541 3569 2628 3553 
L 2631 2963 
z
" transform="scale(0.015625)"/>
       <path id="DejaVuSans-61" d="M 2194 1759 
Q 1497 1759 1228 1600 
Q 959 1441 959 1056 
Q 959 750 1161 570 
Q 1363 391 1709 391 
Q 2188 391 2477 730 
Q 2766 1069 2766 1631 
L 2766 1759 
L 2194 1759 
z
M 3341 1997 
L 3341 0 
L 2766 0 
L 2766 531 
Q 2569 213 2275 61 
Q 1981 -91 1556 -91 
Q 1019 -91 701 211 
Q 384 513 384 1019 
Q 384 1609 779 1909 
Q 1175 2209 1959 2209 
L 2766 2209 
L 2766 2266 
Q 2766 2663 2505 2880 
Q 2244 3097 1772 3097 
Q 1472 3097 1187 3025 
Q 903 2953 641 2809 
L 641 3341 
Q 956 3463 1253 3523 
Q 1550 3584 1831 3584 
Q 2591 3584 2966 3190 
Q 3341 2797 3341 1997 
z
" transform="scale(0.015625)"/>
       <path id="DejaVuSans-6c" d="M 603 4863 
L 1178 4863 
L 1178 0 
L 603 0 
L 603 4863 
z
" transform="scale(0.015625)"/>
       <path id="DejaVuSans-7a" d="M 353 3500 
L 3084 3500 
L 3084 2975 
L 922 459 
L 3084 459 
L 3084 0 
L 275 0 
L 275 525 
L 2438 3041 
L 353 3041 
L 353 3500 
z
" transform="scale(0.015625)"/>
       <path id="DejaVuSans-64" d="M 2906 2969 
L 2906 4863 
L 3481 4863 
L 3481 0 
L 2906 0 
L 2906 525 
Q 2725 213 2448 61 
Q 2172 -91 1784 -91 
Q 1150 -91 751 415 
Q 353 922 353 1747 
Q 353 2572 751 3078 
Q 1150 3584 1784 3584 
Q 2172 3584 2448 3432 
Q 2725 3281 2906 2969 
z
M 947 1747 
Q 947 1113 1208 752 
Q 1469 391 1925 391 
Q 2381 391 2643 752 
Q 2906 1113 2906 1747 
Q 2906 2381 2643 2742 
Q 2381 3103 1925 3103 
Q 1469 3103 1208 2742 
Q 947 2381 947 1747 
z
" transform="scale(0.015625)"/>
       <path id="DejaVuSans-49" d="M 628 4666 
L 1259 4666 
L 1259 0 
L 628 0 
L 628 4666 
z
" transform="scale(0.015625)"/>
       <path id="DejaVuSans-73" d="M 2834 3397 
L 2834 2853 
Q 2591 2978 2328 3040 
Q 2066 3103 1784 3103 
Q 1356 3103 1142 2972 
Q 928 2841 928 2578 
Q 928 2378 1081 2264 
Q 1234 2150 1697 2047 
L 1894 2003 
Q 2506 1872 2764 1633 
Q 3022 1394 3022 966 
Q 3022 478 2636 193 
Q 2250 -91 1575 -91 
Q 1294 -91 989 -36 
Q 684 19 347 128 
L 347 722 
Q 666 556 975 473 
Q 1284 391 1588 391 
Q 1994 391 2212 530 
Q 2431 669 2431 922 
Q 2431 1156 2273 1281 
Q 2116 1406 1581 1522 
L 1381 1569 
Q 847 1681 609 1914 
Q 372 2147 372 2553 
Q 372 3047 722 3315 
Q 1072 3584 1716 3584 
Q 2034 3584 2315 3537 
Q 2597 3491 2834 3397 
z
" transform="scale(0.015625)"/>
       <path id="DejaVuSans-79" d="M 2059 -325 
Q 1816 -950 1584 -1140 
Q 1353 -1331 966 -1331 
L 506 -1331 
L 506 -850 
L 844 -850 
Q 1081 -850 1212 -737 
Q 1344 -625 1503 -206 
L 1606 56 
L 191 3500 
L 800 3500 
L 1894 763 
L 2988 3500 
L 3597 3500 
L 2059 -325 
z
" transform="scale(0.015625)"/>
      </defs>
      <use xlink:href="#DejaVuSans-4e"/>
      <use xlink:href="#DejaVuSans-6f" transform="translate(74.804688 0)"/>
      <use xlink:href="#DejaVuSans-72" transform="translate(135.986328 0)"/>
      <use xlink:href="#DejaVuSans-6d" transform="translate(175.349609 0)"/>
      <use xlink:href="#DejaVuSans-61" transform="translate(272.761719 0)"/>
      <use xlink:href="#DejaVuSans-6c" transform="translate(334.041016 0)"/>
      <use xlink:href="#DejaVuSans-69" transform="translate(361.824219 0)"/>
      <use xlink:href="#DejaVuSans-7a" transform="translate(389.607422 0)"/>
      <use xlink:href="#DejaVuSans-65" transform="translate(442.097656 0)"/>
      <use xlink:href="#DejaVuSans-64" transform="translate(503.621094 0)"/>
      <use xlink:href="#DejaVuSans-20" transform="translate(567.097656 0)"/>
      <use xlink:href="#DejaVuSans-49" transform="translate(598.884766 0)"/>
      <use xlink:href="#DejaVuSans-6e" transform="translate(628.376953 0)"/>
      <use xlink:href="#DejaVuSans-74" transform="translate(691.755859 0)"/>
      <use xlink:href="#DejaVuSans-65" transform="translate(730.964844 0)"/>
      <use xlink:href="#DejaVuSans-6e" transform="translate(792.488281 0)"/>
      <use xlink:href="#DejaVuSans-73" transform="translate(855.867188 0)"/>
      <use xlink:href="#DejaVuSans-69" transform="translate(907.966797 0)"/>
      <use xlink:href="#DejaVuSans-74" transform="translate(935.75 0)"/>
      <use xlink:href="#DejaVuSans-79" transform="translate(974.958984 0)"/>
     </g>
    </g>
   </g>
   <g id="line2d_13">
    <path d="M 84.332727 510.092013 
L 89.222574 509.994307 
L 95.334882 509.695593 
L 99.002267 509.049656 
L 101.447191 508.865774 
L 107.559499 508.712645 
L 112.449346 508.843792 
L 122.229039 509.262456 
L 132.008733 509.384238 
L 138.121041 509.269092 
L 155.235505 508.79985 
L 163.792736 508.924163 
L 165.015198 508.342219 
L 166.23766 507.116424 
L 167.460121 505.322478 
L 169.905045 501.532349 
L 171.127506 500.183404 
L 172.349968 499.314243 
L 173.57243 498.852592 
L 174.794891 498.739922 
L 176.017353 499.004435 
L 177.239815 499.733552 
L 178.462277 500.966308 
L 183.352123 507.331206 
L 184.574585 508.224374 
L 187.019508 509.789708 
L 188.24197 510.599352 
L 189.464432 510.987273 
L 190.686893 510.596842 
L 191.909355 509.53232 
L 193.131817 508.303725 
L 194.354278 507.417234 
L 195.57674 507.098725 
L 196.799202 507.296027 
L 201.689048 509.277284 
L 202.91151 509.399299 
L 204.133972 509.331313 
L 207.801357 508.822827 
L 210.24628 508.826075 
L 213.913665 508.913098 
L 221.248435 508.52333 
L 229.805667 508.933453 
L 235.917975 508.935045 
L 237.140437 508.795569 
L 238.362899 508.424988 
L 239.58536 507.727493 
L 242.030284 505.787128 
L 243.252745 505.146091 
L 244.475207 505.041337 
L 245.697669 505.429838 
L 249.365054 507.343621 
L 250.587516 507.745866 
L 253.032439 508.220798 
L 256.699824 508.607272 
L 260.367209 508.771817 
L 270.146902 508.857778 
L 277.481672 508.75518 
L 278.704134 508.071408 
L 279.926596 503.840205 
L 281.149058 489.589143 
L 282.371519 459.008246 
L 284.816443 366.826513 
L 286.038904 334.388855 
L 287.261366 326.028299 
L 288.483828 339.696192 
L 290.928751 391.92351 
L 292.151213 412.734015 
L 293.373674 426.418493 
L 294.596136 435.092192 
L 298.263521 455.403509 
L 300.708444 470.338359 
L 301.930906 476.977141 
L 303.153368 482.624341 
L 304.375829 487.244889 
L 305.598291 490.942951 
L 306.820753 493.870303 
L 308.043214 496.169498 
L 309.265676 497.958883 
L 310.488138 499.342472 
L 311.710599 500.39724 
L 312.933061 501.099612 
L 314.155523 501.266978 
L 315.377985 500.688683 
L 316.600446 499.417251 
L 317.822908 497.892517 
L 319.04537 496.724058 
L 320.267831 496.350372 
L 321.490293 496.850192 
L 322.712755 497.980697 
L 325.157678 500.676753 
L 326.38014 501.757317 
L 327.602601 502.572607 
L 328.825063 503.154489 
L 330.047525 503.551965 
L 332.492448 504.021583 
L 336.159833 504.483748 
L 339.827218 504.688329 
L 342.272141 504.552881 
L 344.717065 504.003589 
L 347.161988 503.228758 
L 348.38445 502.620866 
L 349.606912 501.371052 
L 350.829373 499.017037 
L 353.274297 492.567435 
L 354.496758 490.746813 
L 355.71922 490.794454 
L 356.941682 492.317605 
L 359.386605 496.43837 
L 360.609067 497.867859 
L 361.831528 498.715589 
L 363.05399 499.161243 
L 365.498913 499.564373 
L 371.611222 500.278635 
L 376.501068 501.606221 
L 377.72353 501.667437 
L 378.945992 501.523304 
L 382.613377 500.570845 
L 383.835839 500.555294 
L 387.503224 501.088165 
L 389.948147 501.024433 
L 394.837994 500.478313 
L 396.060455 500.199107 
L 398.505379 499.400649 
L 399.72784 499.135111 
L 400.950302 499.001184 
L 402.172764 498.71915 
L 403.395225 497.891024 
L 404.617687 496.417994 
L 405.840149 494.735914 
L 407.06261 493.510616 
L 408.285072 493.081713 
L 409.507534 493.242964 
L 410.729995 493.537924 
L 411.952457 493.681407 
L 413.174919 493.650296 
L 414.39738 493.471948 
L 415.619842 493.061032 
L 416.842304 492.217305 
L 418.064766 490.718923 
L 419.287227 488.554202 
L 425.399536 476.250158 
L 426.621997 474.695172 
L 427.844459 474.471528 
L 429.066921 475.56224 
L 430.289382 477.514261 
L 432.734306 481.860974 
L 433.956767 483.539654 
L 435.179229 484.66271 
L 436.401691 485.209709 
L 437.624152 485.259808 
L 438.846614 484.952552 
L 440.069076 484.421038 
L 442.513999 482.967912 
L 447.403846 479.81684 
L 448.626307 478.665929 
L 451.071231 476.018189 
L 452.293693 475.004379 
L 455.961078 472.693492 
L 457.183539 471.454357 
L 459.628463 468.118839 
L 462.073386 464.878213 
L 465.740771 460.611952 
L 466.963233 458.828399 
L 468.185694 456.693091 
L 469.408156 454.163853 
L 470.630618 451.092347 
L 471.853079 447.062872 
L 473.075541 441.383093 
L 474.298003 433.276591 
L 475.520464 422.106077 
L 479.187849 379.841918 
L 480.410311 375.644464 
L 481.632773 382.57159 
L 482.855234 399.087067 
L 485.300158 441.525656 
L 486.52262 458.980053 
L 487.745081 471.752214 
L 488.967543 480.394509 
L 490.190005 486.097007 
L 491.412466 489.98101 
L 492.634928 492.774149 
L 493.85739 494.812478 
L 495.079851 496.2623 
L 497.524775 498.272404 
L 502.414621 502.138359 
L 503.637083 502.789816 
L 504.859545 503.242936 
L 506.082006 503.527214 
L 508.52693 503.736917 
L 509.749391 503.69881 
L 510.971853 503.459546 
L 512.194315 501.829635 
L 513.416776 494.400894 
L 514.639238 474.174665 
L 515.8617 438.932735 
L 517.084161 398.272156 
L 518.306623 369.049897 
L 519.529085 362.649378 
L 520.751547 377.952707 
L 523.19647 433.297283 
L 524.418932 456.144428 
L 525.641393 471.902867 
L 526.863855 481.774555 
L 528.086317 487.834807 
L 529.308778 491.817465 
L 530.53124 494.747606 
L 531.753702 497.059843 
L 532.976163 498.847388 
L 534.198625 500.090139 
L 535.421087 500.8326 
L 536.643548 501.241064 
L 541.533395 502.343005 
L 542.755857 502.481196 
L 543.978318 502.363647 
L 547.645703 501.396136 
L 548.868165 501.408 
L 550.090627 501.715054 
L 551.313088 502.279253 
L 554.980474 504.312371 
L 556.202935 504.706569 
L 557.425397 504.829461 
L 559.87032 504.512855 
L 561.092782 504.379563 
L 562.315244 504.420163 
L 564.760167 504.966283 
L 567.20509 505.55439 
L 568.427552 505.706398 
L 569.650014 505.733501 
L 570.872475 505.589976 
L 572.094937 505.22335 
L 574.53986 504.178946 
L 575.762322 503.969533 
L 576.984784 504.165943 
L 579.429707 505.294324 
L 580.652169 505.837232 
L 581.87463 506.212657 
L 584.319554 506.545443 
L 586.764477 506.67011 
L 587.986939 506.635205 
L 589.209401 506.41833 
L 590.431862 505.965889 
L 592.876786 504.857839 
L 594.099247 504.632366 
L 595.321709 504.739614 
L 601.434017 506.307704 
L 605.101402 506.934876 
L 607.546326 507.145123 
L 613.658634 507.390498 
L 617.326019 507.56617 
L 619.770942 507.448047 
L 623.438328 507.073256 
L 625.883251 506.818467 
L 629.550636 505.934875 
L 630.773098 505.868393 
L 634.440483 506.079584 
L 636.885406 506.455788 
L 639.330329 506.942471 
L 640.552791 507.047349 
L 642.997714 506.902505 
L 645.442638 506.664583 
L 647.887561 506.747946 
L 651.554946 507.367403 
L 653.999869 507.696281 
L 658.889716 507.98195 
L 665.002025 508.160778 
L 668.66941 508.09582 
L 671.114333 507.901523 
L 672.336795 507.701992 
L 673.559256 507.369091 
L 676.00418 506.471354 
L 677.226641 506.192012 
L 678.449103 506.16858 
L 680.894026 506.635801 
L 683.33895 507.015232 
L 687.006335 507.110632 
L 689.451258 506.967645 
L 693.118643 506.372525 
L 694.341105 506.420846 
L 696.786028 506.942241 
L 699.230952 507.53885 
L 701.675875 507.913713 
L 704.120798 508.07992 
L 707.788183 508.105404 
L 720.0128 507.713994 
L 729.792494 508.103077 
L 735.904802 508.325229 
L 739.572187 508.348206 
L 746.906957 507.999649 
L 748.129419 507.65294 
L 749.35188 507.045162 
L 750.574342 506.306188 
L 751.796804 505.722032 
L 753.019265 505.544237 
L 754.241727 505.819141 
L 759.131574 507.997654 
L 761.576497 508.401679 
L 764.021421 508.502246 
L 770.133729 508.562183 
L 776.246037 508.749687 
L 787.248192 508.789976 
L 792.138039 508.603075 
L 804.362656 508.762194 
L 809.252503 508.433743 
L 816.587273 507.740557 
L 816.587273 507.740557 
" clip-path="url(#pf4008d884f)" style="fill: none; stroke: #0000ff; stroke-width: 1.5; stroke-linecap: square"/>
   </g>
   <g id="line2d_14">
    <path d="M 91.396355 233.987363 
L 190.802294 233.966357 
L 211.268503 233.967068 
L 283.105485 233.90279 
L 283.105485 233.810612 
L 283.444841 233.763549 
L 283.444841 233.451978 
L 283.786885 233.421846 
L 283.786885 232.912394 
L 284.123062 232.905668 
L 284.123062 232.33632 
L 284.464863 232.585105 
L 284.464863 232.02544 
L 284.799817 232.448502 
L 284.799817 231.834658 
L 285.468504 231.759001 
L 285.468504 231.813326 
L 285.80028 231.773883 
L 285.80028 231.836479 
L 286.130589 232.46879 
L 286.130589 232.027885 
L 286.460654 232.508797 
L 286.460654 232.171141 
L 286.78974 232.752227 
L 286.78974 232.255343 
L 287.118582 232.753095 
L 287.118582 232.375408 
L 288.767439 232.376179 
L 288.767439 232.484749 
L 289.095547 232.514681 
L 289.095547 232.394939 
L 289.752254 232.383207 
L 289.752254 232.276952 
L 290.081096 231.806944 
L 290.409694 232.276906 
L 290.409694 232.157989 
L 290.738291 232.134792 
L 290.738291 232.17703 
L 291.066889 232.665117 
L 291.066889 232.056402 
L 291.395731 232.572138 
L 291.395731 232.10596 
L 291.725062 232.535185 
L 291.725062 231.92273 
L 292.053905 232.551278 
L 292.053905 232.15871 
L 292.382991 232.641648 
L 292.382991 232.13598 
L 292.712567 232.714678 
L 292.712567 232.302609 
L 293.042387 232.778781 
L 293.042387 232.298051 
L 293.372207 232.790185 
L 293.372207 232.189443 
L 293.707651 232.546508 
L 293.707651 231.957432 
L 294.03796 231.798325 
L 294.700534 231.916401 
L 294.700534 231.914636 
L 295.030354 232.617975 
L 295.030354 232.106395 
L 295.689995 232.206906 
L 296.350368 232.065538 
L 297.010498 232.129709 
L 297.010498 232.038624 
L 297.340807 232.657724 
L 297.340807 232.133816 
L 297.671361 232.596165 
L 297.671361 232.104244 
L 298.001914 232.62293 
L 298.001914 232.068892 
L 298.332223 232.593688 
L 298.332223 232.136795 
L 298.6684 232.679386 
L 298.6684 232.117873 
L 298.998954 232.65591 
L 298.998954 232.07843 
L 299.992082 231.985538 
L 299.992082 232.113031 
L 300.323613 232.594794 
L 300.323613 232.052317 
L 300.65539 232.602421 
L 300.65539 232.158157 
L 300.986677 232.594224 
L 300.986677 232.132427 
L 301.318697 232.677518 
L 301.318697 232.133947 
L 301.982738 231.947666 
L 301.982738 231.956549 
L 302.315248 231.971613 
L 302.647758 232.573631 
L 302.647758 232.069299 
L 302.980512 232.575964 
L 302.980512 231.990457 
L 303.312777 232.486251 
L 303.312777 232.000302 
L 303.655066 232.530304 
L 303.655066 231.962903 
L 303.987331 232.55307 
L 303.987331 232.148107 
L 304.319841 232.02436 
L 304.987305 232.066826 
L 305.321526 232.673277 
L 305.321526 232.113341 
L 305.655013 232.648953 
L 305.655013 232.106714 
L 305.990212 232.485047 
L 305.990212 231.966968 
L 306.325656 232.535945 
L 306.325656 232.048982 
L 306.660366 232.540664 
L 306.660366 232.052243 
L 306.995565 232.563958 
L 306.995565 232.07095 
L 307.665474 232.075191 
L 307.665474 232.182918 
L 308.001162 232.152897 
L 308.337339 232.587702 
L 308.337339 232.094246 
L 308.679384 232.515673 
L 308.679384 232.030998 
L 309.016783 232.526656 
L 309.016783 232.057316 
L 309.354182 232.584199 
L 309.354182 232.121552 
L 309.691826 232.599794 
L 309.691826 232.082818 
L 310.028737 232.548914 
L 310.028737 232.089225 
L 310.36687 232.571233 
L 310.36687 232.150009 
L 310.705491 232.66518 
L 310.705491 232.290465 
L 311.382735 232.243322 
L 311.382735 232.256508 
L 312.742602 232.310563 
L 312.742602 232.248317 
L 313.083913 232.746737 
L 313.083913 232.328802 
L 313.426202 232.761831 
L 313.426202 232.384194 
L 313.775582 232.809637 
L 313.775582 232.464465 
L 314.11616 232.875588 
L 314.11616 232.556355 
L 314.456248 232.946705 
L 314.456248 232.615368 
L 315.480182 232.514029 
L 315.822716 232.924919 
L 315.822716 232.626536 
L 316.163538 232.964164 
L 316.163538 232.689385 
L 316.506317 233.093743 
L 316.506317 232.698811 
L 316.848606 233.03012 
L 316.848606 232.706533 
L 317.191629 232.978642 
L 317.191629 232.694612 
L 317.533673 233.085563 
L 317.533673 232.772756 
L 318.218741 232.778448 
L 318.218741 232.700027 
L 318.561275 232.693543 
L 318.561275 232.767192 
L 319.593277 232.940408 
L 319.593277 232.933875 
L 319.935811 233.22566 
L 319.935811 232.945556 
L 320.279567 233.245236 
L 320.279567 232.98359 
L 320.622345 233.241907 
L 320.622345 232.984146 
L 320.964634 233.265022 
L 320.964634 232.956839 
L 321.307168 233.2099 
L 321.307168 232.992486 
L 321.991013 232.932649 
L 321.991013 232.947976 
L 322.332569 232.973503 
L 322.332569 232.970941 
L 322.674858 233.263403 
L 322.674858 233.057716 
L 323.017148 233.332602 
L 323.017148 233.046395 
L 323.364082 233.285613 
L 323.364082 233.03421 
L 323.706127 233.254238 
L 323.706127 233.03408 
L 324.055018 233.330138 
L 324.055018 233.158423 
L 324.397551 233.423946 
L 324.397551 233.187552 
L 324.739841 233.402968 
L 324.739841 233.120226 
L 325.080907 233.303103 
L 325.080907 233.138673 
L 325.423441 233.391556 
L 325.423441 233.182658 
L 326.108509 233.218903 
L 326.108509 233.204993 
L 326.451042 233.009608 
L 326.791865 233.24811 
L 326.791865 233.219489 
L 327.134398 233.229563 
L 327.134398 233.227916 
L 327.477177 233.426054 
L 327.477177 233.205461 
L 327.819955 233.452232 
L 327.819955 233.196795 
L 328.162733 233.368857 
L 328.162733 233.102807 
L 328.505512 233.316417 
L 328.505512 233.115911 
L 328.848534 233.355781 
L 328.848534 233.183718 
L 329.196691 233.437933 
L 329.196691 233.283182 
L 329.53947 233.484371 
L 329.53947 233.28764 
L 329.882248 233.4867 
L 329.882248 233.334644 
L 330.225271 233.490854 
L 330.225271 233.284289 
L 330.568049 233.503828 
L 330.568049 233.300202 
L 330.911561 233.453897 
L 330.911561 233.267021 
L 331.253605 233.494781 
L 331.253605 233.278924 
L 331.940873 233.223344 
L 332.284141 233.000073 
L 332.627652 232.998789 
L 332.971164 233.219529 
L 332.971164 233.031893 
L 333.65721 233.503694 
L 333.65721 233.327547 
L 334.000721 233.515175 
L 334.000721 233.342641 
L 334.349367 233.492903 
L 334.349367 233.327889 
L 334.692879 233.518212 
L 334.692879 233.348139 
L 335.036391 233.504681 
L 335.036391 233.327883 
L 335.378191 233.490929 
L 335.378191 233.266182 
L 335.721703 233.447822 
L 335.721703 233.289215 
L 336.06497 233.483499 
L 336.06497 233.332275 
L 336.408237 233.553329 
L 336.408237 233.345132 
L 336.751993 233.509218 
L 336.751993 233.332632 
L 337.095261 233.496898 
L 337.095261 233.361511 
L 337.438528 233.54832 
L 337.438528 233.405435 
L 337.785952 233.575505 
L 337.785952 233.375179 
L 338.47322 233.542165 
L 338.47322 233.364288 
L 338.816976 233.556881 
L 338.816976 233.377832 
L 339.160732 233.516208 
L 339.160732 233.350779 
L 339.509134 233.513729 
L 339.509134 233.357536 
L 339.852645 233.526883 
L 339.852645 233.374933 
L 340.196157 233.523101 
L 340.196157 233.340245 
L 340.537468 233.494337 
L 340.537468 233.337863 
L 340.88098 233.479804 
L 340.88098 233.320588 
L 341.224492 233.506167 
L 341.224492 233.373716 
L 341.568248 233.549407 
L 341.568248 233.401456 
L 341.91176 233.5729 
L 341.91176 233.39537 
L 342.255516 233.519599 
L 342.255516 233.324833 
L 342.600006 233.487026 
L 342.600006 233.325122 
L 342.943762 233.508813 
L 342.943762 233.316451 
L 342.943762 233.475721 
L 343.973808 233.555558 
L 343.973808 233.32928 
L 344.317075 233.470277 
L 344.317075 233.326381 
L 344.666455 233.461894 
L 344.666455 233.303986 
L 345.009233 233.522976 
L 345.009233 233.331674 
L 345.352989 233.465717 
L 345.352989 233.286872 
L 345.696501 233.445209 
L 345.696501 233.216879 
L 346.040013 233.398659 
L 346.040013 233.186973 
L 346.383036 233.38074 
L 346.383036 233.242125 
L 346.726303 233.456806 
L 346.726303 233.234414 
L 347.070304 233.464054 
L 347.070304 233.246977 
L 347.413571 233.401092 
L 347.413571 233.190689 
L 347.757571 233.429793 
L 347.757571 233.223084 
L 348.101572 233.437696 
L 348.101572 233.208422 
L 348.449485 233.414939 
L 348.449485 233.180949 
L 348.792997 233.377393 
L 348.792997 233.152971 
L 349.136753 233.378359 
L 349.136753 233.232547 
L 349.48002 233.454201 
L 349.48002 233.217248 
L 349.828666 233.43943 
L 349.828666 233.185109 
L 350.172178 233.342098 
L 350.172178 233.090564 
L 350.515445 233.319905 
L 350.515445 233.104946 
L 350.858957 233.337978 
L 350.858957 233.09459 
L 351.202469 233.333069 
L 351.202469 233.075833 
L 351.545736 233.286438 
L 351.545736 233.061283 
L 351.889003 233.303614 
L 351.889003 233.020656 
L 352.919049 232.852503 
L 352.919049 232.743862 
L 353.262316 233.038099 
L 353.262316 232.641047 
L 353.605095 232.958933 
L 353.605095 232.457126 
L 353.947873 232.816961 
L 353.947873 232.300133 
L 354.290407 232.621572 
L 354.290407 232.111467 
L 354.631474 232.564215 
L 354.631474 231.979327 
L 354.978653 232.388675 
L 354.978653 231.746571 
L 355.31703 232.211748 
L 355.31703 231.521896 
L 355.66152 232.095539 
L 355.66152 231.525213 
L 355.99843 232.192751 
L 355.99843 231.558809 
L 356.334363 232.282951 
L 356.334363 231.619227 
L 356.67274 232.218456 
L 356.67274 231.538548 
L 357.009406 232.194353 
L 357.009406 231.518603 
L 357.34705 232.168955 
L 357.34705 231.564195 
L 357.684449 232.258855 
L 357.684449 231.595971 
L 358.022093 232.292316 
L 358.022093 231.60617 
L 358.358515 232.237862 
L 358.358515 231.55656 
L 358.696648 232.202045 
L 358.696648 231.520355 
L 359.036736 232.238534 
L 359.036736 231.62354 
L 359.377559 232.295058 
L 359.377559 231.71606 
L 359.715936 232.370893 
L 359.715936 231.734056 
L 360.06067 232.289339 
L 360.06067 231.761106 
L 360.401004 232.387755 
L 360.401004 231.921848 
L 360.741826 232.549238 
L 360.741826 232.147562 
L 361.082893 232.709506 
L 361.082893 232.20753 
L 361.426649 232.677757 
L 361.426649 232.228122 
L 361.768449 232.736567 
L 361.768449 232.300138 
L 362.113917 232.765289 
L 362.113917 232.292995 
L 362.456451 232.762225 
L 362.456451 232.222284 
L 362.798984 232.638051 
L 362.798984 232.19232 
L 363.141518 232.651631 
L 363.141518 232.15788 
L 363.484052 232.659193 
L 363.484052 232.21524 
L 363.826586 232.714162 
L 363.826586 232.286267 
L 364.16912 232.781911 
L 364.16912 232.436144 
L 364.511898 232.900925 
L 364.511898 232.553422 
L 364.854676 233.010692 
L 364.854676 232.650468 
L 365.203322 233.031297 
L 365.203322 232.646894 
L 365.5461 232.963021 
L 365.5461 232.537151 
L 365.888634 232.913233 
L 365.888634 232.512398 
L 366.231168 232.884801 
L 366.231168 232.529099 
L 366.573702 232.943936 
L 366.573702 232.587385 
L 366.91648 232.98865 
L 366.91648 232.684024 
L 367.259258 233.077332 
L 367.259258 232.722423 
L 367.602036 233.06833 
L 367.602036 232.854333 
L 367.94457 233.193603 
L 367.94457 232.86233 
L 368.287348 233.254344 
L 368.287348 232.990243 
L 368.630127 233.214418 
L 368.630127 232.928601 
L 368.972905 233.247615 
L 368.972905 233.002838 
L 369.657972 233.058015 
L 370.000751 232.888297 
L 370.348908 233.174942 
L 371.034464 233.205089 
L 371.034464 233.161072 
L 371.378465 233.383968 
L 371.378465 233.189901 
L 372.068667 233.385684 
L 372.068667 233.178803 
L 372.41169 233.3709 
L 372.41169 233.188191 
L 372.754468 233.427337 
L 372.754468 233.196238 
L 373.097002 233.401783 
L 373.097002 233.21381 
L 373.440024 233.421166 
L 373.440024 233.188597 
L 373.782803 233.334133 
L 373.782803 233.160076 
L 374.468604 233.094387 
L 374.468604 233.150482 
L 375.845584 233.46093 
L 375.845584 233.300929 
L 376.188363 233.460956 
L 376.188363 233.276852 
L 376.53163 233.425834 
L 376.53163 233.277752 
L 376.874897 233.446409 
L 376.874897 233.264347 
L 377.21792 233.425195 
L 377.21792 233.27102 
L 377.905921 233.217237 
L 377.905921 233.263152 
L 378.249433 233.308369 
L 378.592945 233.552599 
L 378.592945 233.410863 
L 378.936457 233.361185 
L 379.279968 233.146525 
L 380.314904 233.164765 
L 380.664039 233.389686 
L 380.664039 233.373436 
L 381.007796 233.430316 
L 381.351796 233.569965 
L 381.351796 233.425256 
L 381.695553 233.563083 
L 381.695553 233.419929 
L 382.039064 233.555462 
L 382.039064 233.440207 
L 382.726332 233.577281 
L 382.726332 233.48258 
L 383.413845 233.603299 
L 383.413845 233.530656 
L 383.757356 233.615116 
L 383.757356 233.493773 
L 384.44438 233.606336 
L 384.44438 233.564239 
L 385.131892 233.695939 
L 385.131892 233.603701 
L 385.823561 233.600438 
L 385.823561 233.495292 
L 386.168051 233.59707 
L 386.168051 233.476687 
L 386.855074 233.63555 
L 386.855074 233.576494 
L 387.89001 233.577289 
L 387.89001 233.510961 
L 388.576789 233.629993 
L 388.576789 233.523106 
L 389.263813 233.656768 
L 389.263813 233.589355 
L 389.606836 233.684488 
L 389.606836 233.59775 
L 390.637126 233.667592 
L 390.637126 233.620251 
L 391.329529 233.674915 
L 391.329529 233.651456 
L 392.361042 233.713846 
L 392.361042 233.645042 
L 393.39231 233.727206 
L 393.39231 233.650522 
L 394.079334 233.718478 
L 394.079334 233.648998 
L 394.766846 233.723082 
L 394.766846 233.656807 
L 395.454114 233.706195 
L 395.454114 233.654361 
L 396.14725 233.754433 
L 396.14725 233.697218 
L 396.835252 233.704756 
L 396.835252 233.623296 
L 397.867009 233.759686 
L 397.867009 233.699066 
L 398.554522 233.704105 
L 398.554522 233.654743 
L 399.242034 233.708353 
L 399.242034 233.636743 
L 399.929547 233.667937 
L 399.929547 233.540842 
L 400.966439 233.478986 
L 400.966439 233.533704 
L 401.658841 233.688491 
L 401.658841 233.56407 
L 402.34562 233.638825 
L 402.34562 233.516129 
L 402.689132 233.627172 
L 402.689132 233.546433 
L 403.376155 233.653402 
L 403.376155 233.552094 
L 403.719422 233.644656 
L 403.719422 233.512171 
L 404.406935 233.655442 
L 404.406935 233.576577 
L 404.750691 233.696515 
L 404.750691 233.610486 
L 405.438692 233.636515 
L 405.438692 233.557614 
L 405.782449 233.463601 
L 406.125716 233.437709 
L 407.519078 232.886602 
L 407.519078 232.970272 
L 407.8621 232.963298 
L 407.8621 233.208528 
L 408.204634 232.962567 
L 408.204634 233.134108 
L 408.889946 232.790088 
L 409.922437 232.812879 
L 410.265216 233.059312 
L 410.607749 232.960398 
L 410.607749 233.211463 
L 411.293306 232.979578 
L 411.293306 233.132043 
L 411.641463 232.951955 
L 411.641463 233.126532 
L 411.983997 232.98508 
L 411.983997 233.147851 
L 412.327019 233.072542 
L 412.327019 233.27741 
L 412.670042 233.199398 
L 412.670042 233.330212 
L 413.01282 233.250664 
L 413.01282 233.36426 
L 413.356088 233.288834 
L 413.356088 233.395135 
L 413.698866 233.330475 
L 413.698866 233.42162 
L 415.412268 233.53783 
L 415.756269 233.473084 
L 415.756269 233.539003 
L 418.159873 233.592803 
L 418.159873 233.633937 
L 419.187963 233.626491 
L 419.187963 233.652739 
L 421.242921 233.680585 
L 421.242921 233.704744 
L 425.006636 233.852336 
L 425.006636 233.809472 
L 425.006636 233.825497 
L 428.062302 233.790427 
L 428.062302 233.790862 
L 429.066187 233.794763 
L 431.408179 233.840014 
L 431.408179 233.816106 
L 433.767041 233.81309 
L 433.767041 233.815541 
L 439.868592 233.854929 
L 439.868592 233.857811 
L 440.894971 233.849073 
L 440.894971 233.789015 
L 446.035422 233.850074 
L 446.035422 233.830167 
L 447.062779 233.816822 
L 447.062779 233.818047 
L 448.780338 233.875333 
L 448.780338 233.851589 
L 452.207631 233.825705 
L 453.243056 233.862406 
L 467.652212 233.741831 
L 468.343392 233.704813 
L 471.092464 233.578973 
L 471.092464 233.652705 
L 475.898939 233.77846 
L 477.608184 233.847248 
L 477.608184 233.826393 
L 477.608184 233.842671 
L 488.528679 233.798666 
L 488.528679 233.82552 
L 489.89857 233.764081 
L 490.926171 233.796447 
L 490.926171 233.725007 
L 491.953528 233.740271 
L 491.953528 233.721997 
L 495.045133 233.678594 
L 495.729467 233.774569 
L 495.729467 233.723277 
L 496.75658 233.714783 
L 496.75658 233.642321 
L 498.127448 233.75262 
L 498.127448 233.677049 
L 499.160184 233.774344 
L 499.160184 233.71418 
L 500.872608 233.7982 
L 500.872608 233.756481 
L 502.243721 233.810438 
L 502.243721 233.780493 
L 507.05802 233.744428 
L 507.05802 233.683259 
L 508.087577 233.757818 
L 508.087577 233.712643 
L 509.122269 233.77523 
L 509.122269 233.74467 
L 510.154026 233.799208 
L 510.154026 233.747553 
L 510.840561 233.749084 
L 515.309392 233.811145 
L 515.309392 233.740838 
L 515.65217 233.750674 
L 515.65217 233.500768 
L 515.994704 233.4355 
L 515.994704 232.489647 
L 516.338215 232.221823 
L 516.338215 229.918997 
L 516.679771 229.503504 
L 516.679771 224.739644 
L 517.020838 224.807693 
L 517.020838 215.976329 
L 517.356281 216.235853 
L 517.356281 203.734829 
L 517.687813 206.528692 
L 517.687813 187.370859 
L 518.016655 165.913309 
L 518.345008 162.805158 
L 518.345008 144.454943 
L 518.672873 140.249358 
L 518.672873 121.82389 
L 519.000492 145.535563 
L 519.000492 105.912365 
L 519.333246 130.358933 
L 519.333246 86.811932 
L 519.660377 116.272039 
L 519.660377 72.86552 
L 519.990442 109.88892 
L 519.990442 59.696384 
L 520.317328 100.037925 
L 520.317328 52.654083 
L 520.645192 95.227239 
L 520.645192 49.932727 
L 520.972079 98.775709 
L 520.972079 52.242605 
L 521.298965 99.688568 
L 521.298965 52.343342 
L 521.626096 96.246327 
L 521.626096 52.73388 
L 521.952982 101.29042 
L 521.952982 59.696547 
L 522.279868 108.480488 
L 522.279868 71.983259 
L 522.607243 116.045258 
L 522.607243 80.227247 
L 522.934374 123.434349 
L 522.934374 89.810254 
L 523.26126 131.272911 
L 523.26126 97.676819 
L 523.588636 100.534017 
L 523.915766 102.326498 
L 523.915766 108.234047 
L 524.248765 107.608153 
L 524.248765 116.762086 
L 524.576385 154.120026 
L 524.576385 130.447061 
L 524.904004 160.30468 
L 524.904004 134.390011 
L 525.23138 161.526765 
L 525.23138 134.826333 
L 525.559244 159.426902 
L 525.559244 137.06749 
L 525.886864 163.749571 
L 525.886864 142.792136 
L 526.214728 169.581605 
L 526.214728 148.979005 
L 526.542592 172.259205 
L 526.542592 151.040532 
L 526.870701 173.830754 
L 526.870701 154.926491 
L 527.198565 176.380684 
L 527.198565 156.44964 
L 527.526674 178.409863 
L 527.526674 158.205157 
L 527.854782 177.964773 
L 527.854782 159.738819 
L 528.182891 179.448624 
L 528.182891 162.169458 
L 528.511244 183.334789 
L 528.511244 165.574063 
L 528.843509 184.924884 
L 528.843509 170.584197 
L 529.17773 189.339569 
L 529.17773 174.102691 
L 529.506084 191.30749 
L 529.506084 177.037211 
L 529.835415 193.254361 
L 529.835415 179.105231 
L 530.493588 180.364331 
L 530.493588 181.620605 
L 530.822186 181.270799 
L 530.822186 183.970422 
L 531.151761 199.050836 
L 531.151761 188.309278 
L 531.480848 201.722084 
L 531.480848 191.198438 
L 531.810424 203.232843 
L 531.810424 192.589056 
L 532.140488 204.096949 
L 532.140488 194.30802 
L 532.470798 205.02449 
L 532.470798 195.063432 
L 532.800373 206.466749 
L 532.800373 197.387009 
L 533.130193 207.796124 
L 533.130193 199.597336 
L 533.460503 209.327489 
L 533.460503 200.862586 
L 533.790323 209.821011 
L 533.790323 202.018019 
L 534.126011 202.404698 
L 534.457053 202.551853 
L 534.457053 203.917368 
L 534.787363 204.102717 
L 534.787363 204.744285 
L 535.45067 205.506115 
L 535.45067 205.980207 
L 535.782691 206.444014 
L 535.782691 207.5748 
L 536.1152 215.794134 
L 536.1152 210.038102 
L 536.447465 217.048254 
L 536.447465 211.243265 
L 536.780953 217.716619 
L 536.780953 212.180656 
L 537.113952 218.082238 
L 537.113952 212.27483 
L 537.447195 218.106884 
L 537.447195 213.173779 
L 537.782638 219.011581 
L 537.782638 214.175807 
L 538.115637 220.151545 
L 538.115637 215.406979 
L 538.449124 220.838266 
L 538.449124 216.408324 
L 538.783834 221.381967 
L 538.783834 217.277735 
L 539.121967 222.235367 
L 539.121967 218.130271 
L 539.455699 222.62071 
L 539.455699 218.941532 
L 539.791387 222.923207 
L 539.791387 218.946491 
L 540.127075 223.22769 
L 540.127075 219.760098 
L 540.461296 223.558407 
L 540.461296 219.983123 
L 540.796251 223.831936 
L 540.796251 220.678355 
L 541.132428 224.297831 
L 541.132428 221.481413 
L 541.466893 225.346529 
L 541.466893 222.19528 
L 541.802581 225.481419 
L 541.802581 222.410298 
L 542.138269 225.37237 
L 542.138269 222.415972 
L 542.475424 222.588509 
L 542.812579 222.552609 
L 542.812579 223.181344 
L 543.149 223.308933 
L 543.149 223.682298 
L 543.485177 226.834007 
L 543.485177 224.523758 
L 543.822332 227.08064 
L 543.822332 224.750034 
L 544.166578 227.440671 
L 544.166578 225.485471 
L 544.506666 227.776463 
L 544.506666 225.714978 
L 544.845533 227.942045 
L 544.845533 225.696652 
L 545.191734 227.873533 
L 545.191734 225.666913 
L 545.531089 227.766846 
L 545.531089 225.923651 
L 545.872645 228.249874 
L 545.872645 226.230144 
L 546.212245 228.658404 
L 546.212245 226.971682 
L 546.553801 228.910813 
L 546.553801 226.967663 
L 546.893645 226.995907 
L 547.234712 226.893832 
L 547.234712 227.012614 
L 547.575779 227.041376 
L 547.575779 227.426118 
L 547.91709 229.472705 
L 547.91709 228.063742 
L 548.256934 229.76698 
L 548.256934 228.264099 
L 548.598001 229.920451 
L 548.598001 228.561683 
L 548.939068 230.160211 
L 548.939068 228.91655 
L 549.284536 230.478636 
L 549.284536 229.168681 
L 549.625847 230.542738 
L 549.625847 229.086171 
L 549.967158 230.385863 
L 549.967158 229.220085 
L 550.308225 230.50353 
L 550.308225 229.259803 
L 550.649292 230.578874 
L 550.649292 229.433726 
L 550.990359 230.621154 
L 550.990359 229.47397 
L 551.331425 230.819521 
L 551.331425 229.690857 
L 551.672737 230.789745 
L 551.672737 229.793411 
L 552.013804 230.946607 
L 552.013804 229.950116 
L 552.355115 230.053304 
L 553.037737 229.958254 
L 553.379293 231.120942 
L 553.379293 230.161582 
L 553.726961 231.220821 
L 553.726961 230.101157 
L 554.068762 231.186401 
L 554.068762 230.14779 
L 554.415452 231.214444 
L 554.415452 230.233157 
L 554.757252 231.401334 
L 554.757252 230.367947 
L 555.099052 231.365184 
L 555.099052 230.399926 
L 555.440853 231.417461 
L 555.440853 230.474869 
L 555.782653 231.453576 
L 555.782653 230.642694 
L 556.124698 231.522094 
L 556.124698 230.624805 
L 556.466742 231.518449 
L 556.466742 230.633075 
L 556.808787 231.472041 
L 556.808787 230.60766 
L 557.150832 231.483024 
L 557.150832 230.602305 
L 557.493121 231.530195 
L 557.493121 230.744778 
L 557.835411 231.648259 
L 557.835411 230.789972 
L 558.1777 231.705949 
L 558.1777 230.910721 
L 558.520234 231.720101 
L 558.520234 230.91532 
L 558.862767 231.797908 
L 558.862767 231.042314 
L 559.209457 231.842336 
L 559.209457 231.065599 
L 559.557126 231.905196 
L 559.557126 231.141657 
L 559.899415 231.848801 
L 559.899415 231.125503 
L 560.241949 231.878722 
L 560.241949 231.104652 
L 560.584238 231.850381 
L 560.584238 231.225064 
L 560.926772 231.954785 
L 560.926772 231.255355 
L 561.269061 232.064757 
L 561.269061 231.307156 
L 561.61135 231.938959 
L 561.61135 231.267662 
L 561.953639 231.926241 
L 561.953639 231.195699 
L 562.295929 231.985114 
L 562.295929 231.396961 
L 562.638462 232.045601 
L 562.638462 231.504634 
L 563.66533 231.417727 
L 563.66533 231.470293 
L 564.007375 232.221932 
L 564.007375 231.642838 
L 564.349664 232.330823 
L 564.349664 231.784609 
L 564.697577 232.373917 
L 564.697577 231.630832 
L 565.040111 232.220153 
L 565.040111 231.599514 
L 565.382644 231.442976 
L 565.725178 231.467013 
L 565.725178 231.618568 
L 566.067712 231.702771 
L 566.41049 231.760766 
L 566.753024 231.692923 
L 566.753024 231.732695 
L 567.095558 231.772957 
L 567.095558 231.708099 
L 567.439803 232.362652 
L 567.439803 231.848477 
L 567.782826 232.41472 
L 567.782826 231.878016 
L 568.125359 232.466572 
L 568.125359 231.83434 
L 568.468382 232.346359 
L 568.468382 231.866196 
L 568.810916 232.395579 
L 568.810916 231.812414 
L 569.153694 232.472847 
L 569.153694 232.095631 
L 569.501118 232.605812 
L 569.501118 232.069014 
L 569.84903 232.682362 
L 569.84903 232.202708 
L 570.191809 232.633848 
L 570.191809 232.115404 
L 570.534587 232.652959 
L 570.534587 232.148291 
L 570.877365 232.619812 
L 570.877365 232.118145 
L 571.220388 232.60068 
L 571.220388 232.180508 
L 571.906189 232.11027 
L 571.906189 232.114154 
L 572.248967 232.120177 
L 572.248967 232.096783 
L 572.592234 232.659637 
L 572.592234 232.281117 
L 572.935013 232.754561 
L 572.935013 232.314682 
L 573.278035 232.772349 
L 573.278035 232.371552 
L 573.623014 232.772835 
L 573.623014 232.40242 
L 573.965548 232.857166 
L 573.965548 232.513839 
L 574.998772 232.487329 
L 575.341062 232.916463 
L 575.341062 232.597959 
L 575.683351 232.978318 
L 575.683351 232.685882 
L 576.022706 233.070875 
L 576.022706 232.760842 
L 576.362795 233.090689 
L 576.362795 232.742976 
L 576.702884 233.046979 
L 576.702884 232.70378 
L 577.03955 232.989325 
L 577.03955 232.728376 
L 577.377683 233.076743 
L 577.377683 232.781703 
L 577.715571 232.829276 
L 578.051015 232.474305 
L 578.385236 232.699404 
L 578.385236 232.456594 
L 578.721168 232.795451 
L 579.061257 232.851645 
L 579.396701 232.594807 
L 579.7319 232.805319 
L 579.7319 232.549326 
L 580.078345 232.830871 
L 581.439679 232.757865 
L 582.124257 232.788785 
L 582.124257 232.824207 
L 582.466546 233.182682 
L 582.466546 232.94489 
L 582.80908 233.18105 
L 582.80908 232.918085 
L 583.151614 233.198246 
L 583.151614 232.896094 
L 583.494148 233.183397 
L 583.494148 232.916677 
L 583.836926 233.152669 
L 583.836926 232.893885 
L 584.179704 233.184062 
L 584.179704 232.930831 
L 584.522482 233.219148 
L 584.522482 232.995711 
L 584.865261 233.247654 
L 584.865261 232.993052 
L 585.213662 233.262652 
L 585.213662 233.034085 
L 585.556685 233.022343 
L 585.899708 232.752811 
L 586.242486 233.017349 
L 586.242486 232.698342 
L 586.928287 233.187935 
L 586.928287 232.977318 
L 587.27131 233.289319 
L 587.27131 233.029394 
L 587.614333 233.332821 
L 587.614333 233.124704 
L 587.957844 233.317766 
L 587.957844 233.037599 
L 588.300867 233.303473 
L 588.300867 233.06933 
L 588.64389 233.295353 
L 588.64389 233.056952 
L 588.987157 233.341582 
L 588.987157 233.132937 
L 589.330424 233.343346 
L 589.330424 233.111757 
L 589.673936 233.339761 
L 589.673936 233.104849 
L 590.017203 233.325641 
L 590.017203 233.111783 
L 590.365849 233.347369 
L 590.365849 233.164733 
L 590.713028 233.406455 
L 590.713028 233.172067 
L 591.056051 233.403021 
L 591.056051 233.194972 
L 591.399563 233.388033 
L 591.399563 233.131313 
L 591.74283 233.341672 
L 591.74283 233.125099 
L 592.086097 233.313329 
L 592.086097 233.078676 
L 592.429365 233.301038 
L 592.429365 233.134124 
L 592.772632 233.340534 
L 592.772632 233.100012 
L 593.116144 233.368448 
L 593.116144 233.220151 
L 593.459655 233.398031 
L 593.459655 233.20541 
L 593.803656 233.462624 
L 593.803656 233.188913 
L 594.146923 233.367292 
L 594.146923 233.127948 
L 595.176969 233.10751 
L 595.525616 233.331552 
L 595.525616 233.1689 
L 595.869127 233.338819 
L 595.869127 233.148476 
L 596.213861 233.386107 
L 596.213861 233.207043 
L 596.557618 233.404157 
L 596.557618 233.171517 
L 596.901129 233.368281 
L 596.901129 233.156308 
L 597.244886 233.350599 
L 597.244886 233.119436 
L 597.592554 233.363559 
L 597.592554 233.154752 
L 597.936065 233.378742 
L 597.936065 233.156582 
L 598.279577 233.364369 
L 598.279577 233.183614 
L 598.623089 233.376231 
L 598.623089 233.152987 
L 598.966601 233.386774 
L 598.966601 233.191197 
L 599.310112 233.379964 
L 599.310112 233.231983 
L 599.653624 233.447005 
L 599.653624 233.238543 
L 599.997136 233.472407 
L 599.997136 233.290188 
L 600.340403 233.451251 
L 600.340403 233.273957 
L 600.689538 233.474026 
L 600.689538 233.294019 
L 601.375828 233.373781 
L 601.718851 233.163228 
L 602.061874 233.334054 
L 602.061874 233.329165 
L 602.404896 233.334785 
L 602.404896 233.277282 
L 602.747675 233.495129 
L 602.747675 233.330211 
L 603.43372 233.270531 
L 603.43372 233.310407 
L 603.776743 233.307989 
L 603.776743 233.336735 
L 604.12001 233.552898 
L 604.12001 233.396401 
L 604.463033 233.558697 
L 604.463033 233.404362 
L 605.149078 233.586654 
L 605.149078 233.45872 
L 605.492346 233.601996 
L 605.492346 233.450002 
L 605.840747 233.584892 
L 605.840747 233.416465 
L 606.184014 233.54558 
L 606.184014 233.383146 
L 606.527282 233.543627 
L 606.527282 233.400807 
L 606.870549 233.561628 
L 606.870549 233.402985 
L 607.214305 233.581441 
L 607.214305 233.431555 
L 607.557817 233.571468 
L 607.557817 233.42347 
L 607.901084 233.562379 
L 607.901084 233.40674 
L 608.249241 233.549846 
L 608.249241 233.385873 
L 608.936509 233.59164 
L 608.936509 233.442315 
L 609.280265 233.601212 
L 609.280265 233.423174 
L 609.623533 233.537886 
L 609.623533 233.405398 
L 609.967044 233.564138 
L 609.967044 233.400091 
L 610.310801 233.566938 
L 610.310801 233.418387 
L 610.654557 233.551164 
L 610.654557 233.40479 
L 611.004914 233.566129 
L 611.004914 233.416859 
L 611.34867 233.568795 
L 611.34867 233.456145 
L 611.692427 233.598958 
L 611.692427 233.449437 
L 612.036427 233.612305 
L 612.036427 233.459069 
L 612.379939 233.559464 
L 612.379939 233.416245 
L 612.723695 233.56462 
L 612.723695 233.438845 
L 613.067207 233.576382 
L 613.067207 233.448019 
L 613.410963 233.595945 
L 613.410963 233.495349 
L 614.098476 233.630694 
L 614.098476 233.4887 
L 614.785988 233.593801 
L 614.785988 233.452094 
L 615.129744 233.589049 
L 615.129744 233.453334 
L 615.473256 233.595035 
L 615.473256 233.473346 
L 616.166147 233.641777 
L 616.166147 233.522722 
L 616.509904 233.649147 
L 616.509904 233.510957 
L 617.197905 233.651259 
L 617.197905 233.524249 
L 617.541661 233.636431 
L 617.541661 233.50023 
L 618.229174 233.617172 
L 618.229174 233.526975 
L 618.57293 233.661453 
L 618.57293 233.518235 
L 618.916931 233.613764 
L 618.916931 233.480971 
L 619.604199 233.623122 
L 619.604199 233.526202 
L 620.291956 233.681926 
L 620.291956 233.546637 
L 620.984358 233.633797 
L 620.984358 233.50857 
L 621.333737 233.639681 
L 621.333737 233.548182 
L 621.677249 233.644361 
L 621.677249 233.506275 
L 622.02125 233.641713 
L 622.02125 233.526456 
L 622.708273 233.631823 
L 622.708273 233.527734 
L 623.395786 233.663454 
L 623.395786 233.559858 
L 623.739053 233.646625 
L 623.739053 233.524703 
L 624.08232 233.641341 
L 624.08232 233.522207 
L 624.769099 233.689612 
L 624.769099 233.588864 
L 625.800368 233.541212 
L 626.14388 233.667853 
L 626.14388 233.573314 
L 626.492526 233.67096 
L 626.492526 233.540526 
L 627.179305 233.607335 
L 627.179305 233.506891 
L 627.865839 233.653776 
L 627.865839 233.559454 
L 628.552863 233.655317 
L 628.552863 233.564145 
L 629.239397 233.622419 
L 629.239397 233.524049 
L 634.058586 233.608798 
L 634.403564 233.468762 
L 635.434099 233.725237 
L 635.434099 233.616733 
L 636.464146 233.700139 
L 636.464146 233.642095 
L 637.499571 233.60074 
L 638.186594 233.676396 
L 638.186594 233.581648 
L 638.873129 233.717971 
L 638.873129 233.654284 
L 639.559663 233.761382 
L 639.559663 233.677476 
L 641.282356 233.480202 
L 641.974025 233.652874 
L 644.717962 233.629222 
L 645.404008 233.732688 
L 645.404008 233.674078 
L 647.809568 233.6115 
L 648.152346 233.727171 
L 648.152346 233.604364 
L 648.842548 233.711354 
L 648.842548 233.626989 
L 649.185326 233.755998 
L 649.185326 233.674972 
L 650.556684 233.642203 
L 650.556684 233.643673 
L 651.24224 233.755459 
L 651.24224 233.648217 
L 652.619221 233.738266 
L 652.619221 233.724769 
L 653.306489 233.621613 
L 653.99229 233.688707 
L 655.364381 233.648088 
L 655.364381 233.683603 
L 655.707159 233.796402 
L 655.707159 233.706704 
L 656.049938 233.769833 
L 656.049938 233.692856 
L 658.456965 233.61983 
L 658.456965 233.669811 
L 660.180391 233.664796 
L 660.523903 233.759931 
L 660.523903 233.660348 
L 660.867415 233.730577 
L 660.867415 233.668482 
L 668.446188 233.802613 
L 668.446188 233.727152 
L 669.133701 233.733175 
L 669.133701 233.66083 
L 670.164725 233.789615 
L 670.164725 233.716751 
L 670.507992 233.794195 
L 670.507992 233.716004 
L 671.884239 233.701654 
L 672.572241 233.772544 
L 672.572241 233.718831 
L 673.265132 233.804736 
L 673.265132 233.727221 
L 673.608888 233.786148 
L 673.608888 233.704063 
L 674.640157 233.647652 
L 675.327914 233.582318 
L 676.704161 233.713955 
L 676.704161 233.671013 
L 677.047917 233.605762 
L 678.084076 233.788023 
L 678.084076 233.724777 
L 679.459101 233.687027 
L 679.459101 233.70978 
L 680.151992 233.789994 
L 680.151992 233.705166 
L 680.839994 233.724344 
L 681.18375 233.640024 
L 682.558775 233.799649 
L 682.558775 233.728099 
L 684.971425 233.656236 
L 684.971425 233.658234 
L 685.658938 233.801331 
L 685.658938 233.710271 
L 686.689962 233.694067 
L 686.689962 233.703201 
L 687.37723 233.761346 
L 687.37723 233.707162 
L 687.720741 233.783235 
L 687.720741 233.71514 
L 689.100901 233.780146 
L 689.100901 233.716529 
L 690.480571 233.702419 
L 691.168328 233.724161 
L 691.168328 233.739629 
L 691.856085 233.811101 
L 691.856085 233.762365 
L 692.199597 233.814084 
L 692.199597 233.74144 
L 693.925468 233.741847 
L 693.925468 233.779468 
L 694.61298 233.809565 
L 694.61298 233.73063 
L 695.300248 233.803322 
L 695.300248 233.747484 
L 697.364253 233.72817 
L 697.708009 233.654073 
L 698.051765 233.738488 
L 698.051765 233.663259 
L 699.774947 233.823467 
L 699.774947 233.767812 
L 700.467349 233.823924 
L 700.467349 233.765258 
L 701.498374 233.716998 
L 701.498374 233.730812 
L 703.215932 233.78843 
L 703.215932 233.732534 
L 703.559688 233.814716 
L 703.559688 233.767964 
L 705.285804 233.749067 
L 705.285804 233.772849 
L 705.629561 233.835287 
L 705.629561 233.782446 
L 706.661074 233.710022 
L 707.348586 233.791197 
L 707.348586 233.718726 
L 708.379855 233.824639 
L 708.379855 233.776709 
L 709.072991 233.794609 
L 709.072991 233.742595 
L 711.140662 233.753665 
L 711.828175 233.794763 
L 711.828175 233.751465 
L 712.859443 233.817857 
L 712.859443 233.756908 
L 713.548667 233.813482 
L 713.548667 233.737491 
L 714.241559 233.732993 
L 715.959362 233.759936 
L 717.333653 233.835453 
L 717.333653 233.821925 
L 718.364433 233.752564 
L 718.364433 233.774886 
L 719.051701 233.824897 
L 719.051701 233.782779 
L 719.743859 233.793373 
L 719.743859 233.745974 
L 721.117172 233.838644 
L 721.117172 233.770061 
L 722.147463 233.838197 
L 722.147463 233.79723 
L 728.683232 233.779047 
L 729.722813 233.807149 
L 729.722813 233.764137 
L 731.450152 233.82738 
L 731.450152 233.756627 
L 732.480198 233.809527 
L 732.480198 233.752945 
L 733.166243 233.798279 
L 733.166243 233.758917 
L 735.230003 233.736107 
L 735.915804 233.784242 
L 736.602828 233.749217 
L 737.636052 233.785055 
L 737.636052 233.793044 
L 738.321364 233.839193 
L 738.321364 233.791419 
L 740.039901 233.831169 
L 740.039901 233.788488 
L 741.41028 233.88033 
L 741.41028 233.833704 
L 744.834396 233.820098 
L 744.834396 233.780456 
L 745.524842 233.855276 
L 745.524842 233.800728 
L 746.895955 233.787981 
L 746.895955 233.82781 
L 747.923312 233.800287 
L 748.60789 233.812526 
L 749.982671 233.79813 
L 749.982671 233.807923 
L 750.672628 233.85416 
L 750.672628 233.826387 
L 751.356962 233.840344 
L 752.383341 233.77666 
L 754.43561 233.88421 
L 754.43561 233.830271 
L 757.17808 233.884913 
L 757.17808 233.853154 
L 758.546993 233.853854 
L 758.546993 233.870546 
L 759.231816 233.871918 
L 759.231816 233.830951 
L 763.004088 233.825031 
L 763.004088 233.823836 
L 766.440672 233.760651 
L 766.440672 233.764482 
L 767.810074 233.879633 
L 767.810074 233.835226 
L 768.495141 233.825592 
L 769.180209 233.795333 
L 769.865032 233.824521 
L 770.550099 233.790423 
L 771.58308 233.791511 
L 772.953704 233.760565 
L 772.953704 233.790906 
L 774.668328 233.870545 
L 774.668328 233.832485 
L 780.843716 233.82622 
L 781.534162 233.877907 
L 781.534162 233.827575 
L 782.561763 233.829969 
L 786.336481 233.846771 
L 786.336481 233.863244 
L 787.021059 233.905117 
L 787.021059 233.893833 
L 790.106063 233.875363 
L 790.789908 233.885802 
L 792.15931 233.828144 
L 792.83582 233.813173 
L 793.841173 233.738389 
L 794.843102 233.872091 
L 795.509833 233.813744 
L 796.174608 233.874039 
L 796.174608 233.840076 
L 797.177515 233.789073 
L 799.167683 233.861075 
L 805.826187 233.757056 
L 807.499248 233.902022 
L 807.499248 233.863373 
L 808.167201 233.770406 
L 808.167201 233.804447 
L 809.172309 233.816214 
L 810.176439 233.836867 
L 811.18008 233.875356 
L 811.852434 233.839638 
L 811.852434 233.876557 
L 814.582436 233.947626 
L 816.340824 233.985915 
L 816.340824 233.985915 
" clip-path="url(#pf4008d884f)" style="fill: none; stroke: #008000; stroke-width: 1.5; stroke-linecap: square"/>
   </g>
   <g id="patch_3">
    <path d="M 47.72 534.04 
L 47.72 26.88 
" style="fill: none; stroke: #000000; stroke-width: 0.8; stroke-linejoin: miter; stroke-linecap: square"/>
   </g>
   <g id="patch_4">
    <path d="M 853.2 534.04 
L 853.2 26.88 
" style="fill: none; stroke: #000000; stroke-width: 0.8; stroke-linejoin: miter; stroke-linecap: square"/>
   </g>
   <g id="patch_5">
    <path d="M 47.72 534.04 
L 853.2 534.04 
" style="fill: none; stroke: #000000; stroke-width: 0.8; stroke-linejoin: miter; stroke-linecap: square"/>
   </g>
   <g id="patch_6">
    <path d="M 47.72 26.88 
L 853.2 26.88 
" style="fill: none; stroke: #000000; stroke-width: 0.8; stroke-linejoin: miter; stroke-linecap: square"/>
   </g>
   <g id="patch_7">
    <path d="M 588.861704 364.840812 
Q 562.714317 370.661037 536.56693 376.481262 
L 537.436032 380.385703 
Q 530.925706 378.761433 524.415381 377.137163 
Q 529.622054 372.904771 534.828728 368.672379 
L 535.697829 372.57682 
Q 561.845216 366.756595 587.992603 360.93637 
L 588.861704 364.840812 
z
" style="stroke: #000000; stroke-linecap: round"/>
   </g>
   <g id="text_15">
    <!-- Peak: RT=2.98, Area=4.40e+03 -->
    <g style="fill: #ff0000" transform="translate(594.099247 348.348523) scale(0.1 -0.1)">
     <defs>
      <path id="DejaVuSans-50" d="M 1259 4147 
L 1259 2394 
L 2053 2394 
Q 2494 2394 2734 2622 
Q 2975 2850 2975 3272 
Q 2975 3691 2734 3919 
Q 2494 4147 2053 4147 
L 1259 4147 
z
M 628 4666 
L 2053 4666 
Q 2838 4666 3239 4311 
Q 3641 3956 3641 3272 
Q 3641 2581 3239 2228 
Q 2838 1875 2053 1875 
L 1259 1875 
L 1259 0 
L 628 0 
L 628 4666 
z
" transform="scale(0.015625)"/>
      <path id="DejaVuSans-6b" d="M 581 4863 
L 1159 4863 
L 1159 1991 
L 2875 3500 
L 3609 3500 
L 1753 1863 
L 3688 0 
L 2938 0 
L 1159 1709 
L 1159 0 
L 581 0 
L 581 4863 
z
" transform="scale(0.015625)"/>
      <path id="DejaVuSans-3a" d="M 750 794 
L 1409 794 
L 1409 0 
L 750 0 
L 750 794 
z
M 750 3309 
L 1409 3309 
L 1409 2516 
L 750 2516 
L 750 3309 
z
" transform="scale(0.015625)"/>
      <path id="DejaVuSans-3d" d="M 678 2906 
L 4684 2906 
L 4684 2381 
L 678 2381 
L 678 2906 
z
M 678 1631 
L 4684 1631 
L 4684 1100 
L 678 1100 
L 678 1631 
z
" transform="scale(0.015625)"/>
      <path id="DejaVuSans-39" d="M 703 97 
L 703 672 
Q 941 559 1184 500 
Q 1428 441 1663 441 
Q 2288 441 2617 861 
Q 2947 1281 2994 2138 
Q 2813 1869 2534 1725 
Q 2256 1581 1919 1581 
Q 1219 1581 811 2004 
Q 403 2428 403 3163 
Q 403 3881 828 4315 
Q 1253 4750 1959 4750 
Q 2769 4750 3195 4129 
Q 3622 3509 3622 2328 
Q 3622 1225 3098 567 
Q 2575 -91 1691 -91 
Q 1453 -91 1209 -44 
Q 966 3 703 97 
z
M 1959 2075 
Q 2384 2075 2632 2365 
Q 2881 2656 2881 3163 
Q 2881 3666 2632 3958 
Q 2384 4250 1959 4250 
Q 1534 4250 1286 3958 
Q 1038 3666 1038 3163 
Q 1038 2656 1286 2365 
Q 1534 2075 1959 2075 
z
" transform="scale(0.015625)"/>
      <path id="DejaVuSans-38" d="M 2034 2216 
Q 1584 2216 1326 1975 
Q 1069 1734 1069 1313 
Q 1069 891 1326 650 
Q 1584 409 2034 409 
Q 2484 409 2743 651 
Q 3003 894 3003 1313 
Q 3003 1734 2745 1975 
Q 2488 2216 2034 2216 
z
M 1403 2484 
Q 997 2584 770 2862 
Q 544 3141 544 3541 
Q 544 4100 942 4425 
Q 1341 4750 2034 4750 
Q 2731 4750 3128 4425 
Q 3525 4100 3525 3541 
Q 3525 3141 3298 2862 
Q 3072 2584 2669 2484 
Q 3125 2378 3379 2068 
Q 3634 1759 3634 1313 
Q 3634 634 3220 271 
Q 2806 -91 2034 -91 
Q 1263 -91 848 271 
Q 434 634 434 1313 
Q 434 1759 690 2068 
Q 947 2378 1403 2484 
z
M 1172 3481 
Q 1172 3119 1398 2916 
Q 1625 2713 2034 2713 
Q 2441 2713 2670 2916 
Q 2900 3119 2900 3481 
Q 2900 3844 2670 4047 
Q 2441 4250 2034 4250 
Q 1625 4250 1398 4047 
Q 1172 3844 1172 3481 
z
" transform="scale(0.015625)"/>
      <path id="DejaVuSans-2c" d="M 750 794 
L 1409 794 
L 1409 256 
L 897 -744 
L 494 -744 
L 750 256 
L 750 794 
z
" transform="scale(0.015625)"/>
      <path id="DejaVuSans-41" d="M 2188 4044 
L 1331 1722 
L 3047 1722 
L 2188 4044 
z
M 1831 4666 
L 2547 4666 
L 4325 0 
L 3669 0 
L 3244 1197 
L 1141 1197 
L 716 0 
L 50 0 
L 1831 4666 
z
" transform="scale(0.015625)"/>
      <path id="DejaVuSans-2b" d="M 2944 4013 
L 2944 2272 
L 4684 2272 
L 4684 1741 
L 2944 1741 
L 2944 0 
L 2419 0 
L 2419 1741 
L 678 1741 
L 678 2272 
L 2419 2272 
L 2419 4013 
L 2944 4013 
z
" transform="scale(0.015625)"/>
     </defs>
     <use xlink:href="#DejaVuSans-50"/>
     <use xlink:href="#DejaVuSans-65" transform="translate(56.677734 0)"/>
     <use xlink:href="#DejaVuSans-61" transform="translate(118.201172 0)"/>
     <use xlink:href="#DejaVuSans-6b" transform="translate(179.480469 0)"/>
     <use xlink:href="#DejaVuSans-3a" transform="translate(237.390625 0)"/>
     <use xlink:href="#DejaVuSans-20" transform="translate(271.082031 0)"/>
     <use xlink:href="#DejaVuSans-52" transform="translate(302.869141 0)"/>
     <use xlink:href="#DejaVuSans-54" transform="translate(365.101562 0)"/>
     <use xlink:href="#DejaVuSans-3d" transform="translate(426.185547 0)"/>
     <use xlink:href="#DejaVuSans-32" transform="translate(509.974609 0)"/>
     <use xlink:href="#DejaVuSans-2e" transform="translate(573.597656 0)"/>
     <use xlink:href="#DejaVuSans-39" transform="translate(605.384766 0)"/>
     <use xlink:href="#DejaVuSans-38" transform="translate(669.007812 0)"/>
     <use xlink:href="#DejaVuSans-2c" transform="translate(732.630859 0)"/>
     <use xlink:href="#DejaVuSans-20" transform="translate(764.417969 0)"/>
     <use xlink:href="#DejaVuSans-41" transform="translate(796.205078 0)"/>
     <use xlink:href="#DejaVuSans-72" transform="translate(864.613281 0)"/>
     <use xlink:href="#DejaVuSans-65" transform="translate(903.476562 0)"/>
     <use xlink:href="#DejaVuSans-61" transform="translate(965 0)"/>
     <use xlink:href="#DejaVuSans-3d" transform="translate(1026.279297 0)"/>
     <use xlink:href="#DejaVuSans-34" transform="translate(1110.068359 0)"/>
     <use xlink:href="#DejaVuSans-2e" transform="translate(1173.691406 0)"/>
     <use xlink:href="#DejaVuSans-34" transform="translate(1205.478516 0)"/>
     <use xlink:href="#DejaVuSans-30" transform="translate(1269.101562 0)"/>
     <use xlink:href="#DejaVuSans-65" transform="translate(1332.724609 0)"/>
     <use xlink:href="#DejaVuSans-2b" transform="translate(1394.248047 0)"/>
     <use xlink:href="#DejaVuSans-30" transform="translate(1478.037109 0)"/>
     <use xlink:href="#DejaVuSans-33" transform="translate(1541.660156 0)"/>
    </g>
    <!-- (17.41% of total) -->
    <g style="fill: #ff0000" transform="translate(594.099247 359.546335) scale(0.1 -0.1)">
     <defs>
      <path id="DejaVuSans-37" d="M 525 4666 
L 3525 4666 
L 3525 4397 
L 1831 0 
L 1172 0 
L 2766 4134 
L 525 4134 
L 525 4666 
z
" transform="scale(0.015625)"/>
      <path id="DejaVuSans-25" d="M 4653 2053 
Q 4381 2053 4226 1822 
Q 4072 1591 4072 1178 
Q 4072 772 4226 539 
Q 4381 306 4653 306 
Q 4919 306 5073 539 
Q 5228 772 5228 1178 
Q 5228 1588 5073 1820 
Q 4919 2053 4653 2053 
z
M 4653 2450 
Q 5147 2450 5437 2106 
Q 5728 1763 5728 1178 
Q 5728 594 5436 251 
Q 5144 -91 4653 -91 
Q 4153 -91 3862 251 
Q 3572 594 3572 1178 
Q 3572 1766 3864 2108 
Q 4156 2450 4653 2450 
z
M 1428 4353 
Q 1159 4353 1004 4120 
Q 850 3888 850 3481 
Q 850 3069 1003 2837 
Q 1156 2606 1428 2606 
Q 1700 2606 1854 2837 
Q 2009 3069 2009 3481 
Q 2009 3884 1853 4118 
Q 1697 4353 1428 4353 
z
M 4250 4750 
L 4750 4750 
L 1831 -91 
L 1331 -91 
L 4250 4750 
z
M 1428 4750 
Q 1922 4750 2215 4408 
Q 2509 4066 2509 3481 
Q 2509 2891 2217 2550 
Q 1925 2209 1428 2209 
Q 931 2209 642 2551 
Q 353 2894 353 3481 
Q 353 4063 643 4406 
Q 934 4750 1428 4750 
z
" transform="scale(0.015625)"/>
      <path id="DejaVuSans-66" d="M 2375 4863 
L 2375 4384 
L 1825 4384 
Q 1516 4384 1395 4259 
Q 1275 4134 1275 3809 
L 1275 3500 
L 2222 3500 
L 2222 3053 
L 1275 3053 
L 1275 0 
L 697 0 
L 697 3053 
L 147 3053 
L 147 3500 
L 697 3500 
L 697 3744 
Q 697 4328 969 4595 
Q 1241 4863 1831 4863 
L 2375 4863 
z
" transform="scale(0.015625)"/>
     </defs>
     <use xlink:href="#DejaVuSans-28"/>
     <use xlink:href="#DejaVuSans-31" transform="translate(39.013672 0)"/>
     <use xlink:href="#DejaVuSans-37" transform="translate(102.636719 0)"/>
     <use xlink:href="#DejaVuSans-2e" transform="translate(166.259766 0)"/>
     <use xlink:href="#DejaVuSans-34" transform="translate(198.046875 0)"/>
     <use xlink:href="#DejaVuSans-31" transform="translate(261.669922 0)"/>
     <use xlink:href="#DejaVuSans-25" transform="translate(325.292969 0)"/>
     <use xlink:href="#DejaVuSans-20" transform="translate(420.3125 0)"/>
     <use xlink:href="#DejaVuSans-6f" transform="translate(452.099609 0)"/>
     <use xlink:href="#DejaVuSans-66" transform="translate(513.28125 0)"/>
     <use xlink:href="#DejaVuSans-20" transform="translate(548.486328 0)"/>
     <use xlink:href="#DejaVuSans-74" transform="translate(580.273438 0)"/>
     <use xlink:href="#DejaVuSans-6f" transform="translate(619.482422 0)"/>
     <use xlink:href="#DejaVuSans-74" transform="translate(680.664062 0)"/>
     <use xlink:href="#DejaVuSans-61" transform="translate(719.873047 0)"/>
     <use xlink:href="#DejaVuSans-6c" transform="translate(781.152344 0)"/>
     <use xlink:href="#DejaVuSans-29" transform="translate(808.935547 0)"/>
    </g>
   </g>
   <g id="text_16">
    <!-- UV and MS Chromatograms of IrCp4N23, target m/z = 683.1345766 -->
    <g transform="translate(245.830938 20.88) scale(0.12 -0.12)">
     <defs>
      <path id="DejaVuSans-55" d="M 556 4666 
L 1191 4666 
L 1191 1831 
Q 1191 1081 1462 751 
Q 1734 422 2344 422 
Q 2950 422 3222 751 
Q 3494 1081 3494 1831 
L 3494 4666 
L 4128 4666 
L 4128 1753 
Q 4128 841 3676 375 
Q 3225 -91 2344 -91 
Q 1459 -91 1007 375 
Q 556 841 556 1753 
L 556 4666 
z
" transform="scale(0.015625)"/>
      <path id="DejaVuSans-56" d="M 1831 0 
L 50 4666 
L 709 4666 
L 2188 738 
L 3669 4666 
L 4325 4666 
L 2547 0 
L 1831 0 
z
" transform="scale(0.015625)"/>
      <path id="DejaVuSans-4d" d="M 628 4666 
L 1569 4666 
L 2759 1491 
L 3956 4666 
L 4897 4666 
L 4897 0 
L 4281 0 
L 4281 4097 
L 3078 897 
L 2444 897 
L 1241 4097 
L 1241 0 
L 628 0 
L 628 4666 
z
" transform="scale(0.015625)"/>
      <path id="DejaVuSans-53" d="M 3425 4513 
L 3425 3897 
Q 3066 4069 2747 4153 
Q 2428 4238 2131 4238 
Q 1616 4238 1336 4038 
Q 1056 3838 1056 3469 
Q 1056 3159 1242 3001 
Q 1428 2844 1947 2747 
L 2328 2669 
Q 3034 2534 3370 2195 
Q 3706 1856 3706 1288 
Q 3706 609 3251 259 
Q 2797 -91 1919 -91 
Q 1588 -91 1214 -16 
Q 841 59 441 206 
L 441 856 
Q 825 641 1194 531 
Q 1563 422 1919 422 
Q 2459 422 2753 634 
Q 3047 847 3047 1241 
Q 3047 1584 2836 1778 
Q 2625 1972 2144 2069 
L 1759 2144 
Q 1053 2284 737 2584 
Q 422 2884 422 3419 
Q 422 4038 858 4394 
Q 1294 4750 2059 4750 
Q 2388 4750 2728 4690 
Q 3069 4631 3425 4513 
z
" transform="scale(0.015625)"/>
      <path id="DejaVuSans-43" d="M 4122 4306 
L 4122 3641 
Q 3803 3938 3442 4084 
Q 3081 4231 2675 4231 
Q 1875 4231 1450 3742 
Q 1025 3253 1025 2328 
Q 1025 1406 1450 917 
Q 1875 428 2675 428 
Q 3081 428 3442 575 
Q 3803 722 4122 1019 
L 4122 359 
Q 3791 134 3420 21 
Q 3050 -91 2638 -91 
Q 1578 -91 968 557 
Q 359 1206 359 2328 
Q 359 3453 968 4101 
Q 1578 4750 2638 4750 
Q 3056 4750 3426 4639 
Q 3797 4528 4122 4306 
z
" transform="scale(0.015625)"/>
      <path id="DejaVuSans-68" d="M 3513 2113 
L 3513 0 
L 2938 0 
L 2938 2094 
Q 2938 2591 2744 2837 
Q 2550 3084 2163 3084 
Q 1697 3084 1428 2787 
Q 1159 2491 1159 1978 
L 1159 0 
L 581 0 
L 581 4863 
L 1159 4863 
L 1159 2956 
Q 1366 3272 1645 3428 
Q 1925 3584 2291 3584 
Q 2894 3584 3203 3211 
Q 3513 2838 3513 2113 
z
" transform="scale(0.015625)"/>
      <path id="DejaVuSans-67" d="M 2906 1791 
Q 2906 2416 2648 2759 
Q 2391 3103 1925 3103 
Q 1463 3103 1205 2759 
Q 947 2416 947 1791 
Q 947 1169 1205 825 
Q 1463 481 1925 481 
Q 2391 481 2648 825 
Q 2906 1169 2906 1791 
z
M 3481 434 
Q 3481 -459 3084 -895 
Q 2688 -1331 1869 -1331 
Q 1566 -1331 1297 -1286 
Q 1028 -1241 775 -1147 
L 775 -588 
Q 1028 -725 1275 -790 
Q 1522 -856 1778 -856 
Q 2344 -856 2625 -561 
Q 2906 -266 2906 331 
L 2906 616 
Q 2728 306 2450 153 
Q 2172 0 1784 0 
Q 1141 0 747 490 
Q 353 981 353 1791 
Q 353 2603 747 3093 
Q 1141 3584 1784 3584 
Q 2172 3584 2450 3431 
Q 2728 3278 2906 2969 
L 2906 3500 
L 3481 3500 
L 3481 434 
z
" transform="scale(0.015625)"/>
      <path id="DejaVuSans-70" d="M 1159 525 
L 1159 -1331 
L 581 -1331 
L 581 3500 
L 1159 3500 
L 1159 2969 
Q 1341 3281 1617 3432 
Q 1894 3584 2278 3584 
Q 2916 3584 3314 3078 
Q 3713 2572 3713 1747 
Q 3713 922 3314 415 
Q 2916 -91 2278 -91 
Q 1894 -91 1617 61 
Q 1341 213 1159 525 
z
M 3116 1747 
Q 3116 2381 2855 2742 
Q 2594 3103 2138 3103 
Q 1681 3103 1420 2742 
Q 1159 2381 1159 1747 
Q 1159 1113 1420 752 
Q 1681 391 2138 391 
Q 2594 391 2855 752 
Q 3116 1113 3116 1747 
z
" transform="scale(0.015625)"/>
      <path id="DejaVuSans-2f" d="M 1625 4666 
L 2156 4666 
L 531 -594 
L 0 -594 
L 1625 4666 
z
" transform="scale(0.015625)"/>
      <path id="DejaVuSans-36" d="M 2113 2584 
Q 1688 2584 1439 2293 
Q 1191 2003 1191 1497 
Q 1191 994 1439 701 
Q 1688 409 2113 409 
Q 2538 409 2786 701 
Q 3034 994 3034 1497 
Q 3034 2003 2786 2293 
Q 2538 2584 2113 2584 
z
M 3366 4563 
L 3366 3988 
Q 3128 4100 2886 4159 
Q 2644 4219 2406 4219 
Q 1781 4219 1451 3797 
Q 1122 3375 1075 2522 
Q 1259 2794 1537 2939 
Q 1816 3084 2150 3084 
Q 2853 3084 3261 2657 
Q 3669 2231 3669 1497 
Q 3669 778 3244 343 
Q 2819 -91 2113 -91 
Q 1303 -91 875 529 
Q 447 1150 447 2328 
Q 447 3434 972 4092 
Q 1497 4750 2381 4750 
Q 2619 4750 2861 4703 
Q 3103 4656 3366 4563 
z
" transform="scale(0.015625)"/>
     </defs>
     <use xlink:href="#DejaVuSans-55"/>
     <use xlink:href="#DejaVuSans-56" transform="translate(73.193359 0)"/>
     <use xlink:href="#DejaVuSans-20" transform="translate(141.601562 0)"/>
     <use xlink:href="#DejaVuSans-61" transform="translate(173.388672 0)"/>
     <use xlink:href="#DejaVuSans-6e" transform="translate(234.667969 0)"/>
     <use xlink:href="#DejaVuSans-64" transform="translate(298.046875 0)"/>
     <use xlink:href="#DejaVuSans-20" transform="translate(361.523438 0)"/>
     <use xlink:href="#DejaVuSans-4d" transform="translate(393.310547 0)"/>
     <use xlink:href="#DejaVuSans-53" transform="translate(479.589844 0)"/>
     <use xlink:href="#DejaVuSans-20" transform="translate(543.066406 0)"/>
     <use xlink:href="#DejaVuSans-43" transform="translate(574.853516 0)"/>
     <use xlink:href="#DejaVuSans-68" transform="translate(644.677734 0)"/>
     <use xlink:href="#DejaVuSans-72" transform="translate(708.056641 0)"/>
     <use xlink:href="#DejaVuSans-6f" transform="translate(746.919922 0)"/>
     <use xlink:href="#DejaVuSans-6d" transform="translate(808.101562 0)"/>
     <use xlink:href="#DejaVuSans-61" transform="translate(905.513672 0)"/>
     <use xlink:href="#DejaVuSans-74" transform="translate(966.792969 0)"/>
     <use xlink:href="#DejaVuSans-6f" transform="translate(1006.001953 0)"/>
     <use xlink:href="#DejaVuSans-67" transform="translate(1067.183594 0)"/>
     <use xlink:href="#DejaVuSans-72" transform="translate(1130.660156 0)"/>
     <use xlink:href="#DejaVuSans-61" transform="translate(1171.773438 0)"/>
     <use xlink:href="#DejaVuSans-6d" transform="translate(1233.052734 0)"/>
     <use xlink:href="#DejaVuSans-73" transform="translate(1330.464844 0)"/>
     <use xlink:href="#DejaVuSans-20" transform="translate(1382.564453 0)"/>
     <use xlink:href="#DejaVuSans-6f" transform="translate(1414.351562 0)"/>
     <use xlink:href="#DejaVuSans-66" transform="translate(1475.533203 0)"/>
     <use xlink:href="#DejaVuSans-20" transform="translate(1510.738281 0)"/>
     <use xlink:href="#DejaVuSans-49" transform="translate(1542.525391 0)"/>
     <use xlink:href="#DejaVuSans-72" transform="translate(1572.017578 0)"/>
     <use xlink:href="#DejaVuSans-43" transform="translate(1613.130859 0)"/>
     <use xlink:href="#DejaVuSans-70" transform="translate(1682.955078 0)"/>
     <use xlink:href="#DejaVuSans-34" transform="translate(1746.431641 0)"/>
     <use xlink:href="#DejaVuSans-4e" transform="translate(1810.054688 0)"/>
     <use xlink:href="#DejaVuSans-32" transform="translate(1884.859375 0)"/>
     <use xlink:href="#DejaVuSans-33" transform="translate(1948.482422 0)"/>
     <use xlink:href="#DejaVuSans-2c" transform="translate(2012.105469 0)"/>
     <use xlink:href="#DejaVuSans-20" transform="translate(2043.892578 0)"/>
     <use xlink:href="#DejaVuSans-74" transform="translate(2075.679688 0)"/>
     <use xlink:href="#DejaVuSans-61" transform="translate(2114.888672 0)"/>
     <use xlink:href="#DejaVuSans-72" transform="translate(2176.167969 0)"/>
     <use xlink:href="#DejaVuSans-67" transform="translate(2215.53125 0)"/>
     <use xlink:href="#DejaVuSans-65" transform="translate(2279.007812 0)"/>
     <use xlink:href="#DejaVuSans-74" transform="translate(2340.53125 0)"/>
     <use xlink:href="#DejaVuSans-20" transform="translate(2379.740234 0)"/>
     <use xlink:href="#DejaVuSans-6d" transform="translate(2411.527344 0)"/>
     <use xlink:href="#DejaVuSans-2f" transform="translate(2508.939453 0)"/>
     <use xlink:href="#DejaVuSans-7a" transform="translate(2542.630859 0)"/>
     <use xlink:href="#DejaVuSans-20" transform="translate(2595.121094 0)"/>
     <use xlink:href="#DejaVuSans-3d" transform="translate(2626.908203 0)"/>
     <use xlink:href="#DejaVuSans-20" transform="translate(2710.697266 0)"/>
     <use xlink:href="#DejaVuSans-36" transform="translate(2742.484375 0)"/>
     <use xlink:href="#DejaVuSans-38" transform="translate(2806.107422 0)"/>
     <use xlink:href="#DejaVuSans-33" transform="translate(2869.730469 0)"/>
     <use xlink:href="#DejaVuSans-2e" transform="translate(2933.353516 0)"/>
     <use xlink:href="#DejaVuSans-31" transform="translate(2965.140625 0)"/>
     <use xlink:href="#DejaVuSans-33" transform="translate(3028.763672 0)"/>
     <use xlink:href="#DejaVuSans-34" transform="translate(3092.386719 0)"/>
     <use xlink:href="#DejaVuSans-35" transform="translate(3156.009766 0)"/>
     <use xlink:href="#DejaVuSans-37" transform="translate(3219.632812 0)"/>
     <use xlink:href="#DejaVuSans-36" transform="translate(3283.255859 0)"/>
     <use xlink:href="#DejaVuSans-36" transform="translate(3346.878906 0)"/>
    </g>
   </g>
   <g id="legend_1">
    <g id="patch_8">
     <path d="M 685.971875 64.23625 
L 846.2 64.23625 
Q 848.2 64.23625 848.2 62.23625 
L 848.2 33.88 
Q 848.2 31.88 846.2 31.88 
L 685.971875 31.88 
Q 683.971875 31.88 683.971875 33.88 
L 683.971875 62.23625 
Q 683.971875 64.23625 685.971875 64.23625 
z
" style="fill: #ffffff; opacity: 0.8; stroke: #cccccc; stroke-linejoin: miter"/>
    </g>
    <g id="line2d_15">
     <path d="M 687.971875 39.978437 
L 697.971875 39.978437 
L 707.971875 39.978437 
" style="fill: none; stroke: #0000ff; stroke-width: 1.5; stroke-linecap: square"/>
    </g>
    <g id="text_17">
     <!-- UV Intensity (normalized) -->
     <g transform="translate(715.971875 43.478437) scale(0.1 -0.1)">
      <use xlink:href="#DejaVuSans-55"/>
      <use xlink:href="#DejaVuSans-56" transform="translate(73.193359 0)"/>
      <use xlink:href="#DejaVuSans-20" transform="translate(141.601562 0)"/>
      <use xlink:href="#DejaVuSans-49" transform="translate(173.388672 0)"/>
      <use xlink:href="#DejaVuSans-6e" transform="translate(202.880859 0)"/>
      <use xlink:href="#DejaVuSans-74" transform="translate(266.259766 0)"/>
      <use xlink:href="#DejaVuSans-65" transform="translate(305.46875 0)"/>
      <use xlink:href="#DejaVuSans-6e" transform="translate(366.992188 0)"/>
      <use xlink:href="#DejaVuSans-73" transform="translate(430.371094 0)"/>
      <use xlink:href="#DejaVuSans-69" transform="translate(482.470703 0)"/>
      <use xlink:href="#DejaVuSans-74" transform="translate(510.253906 0)"/>
      <use xlink:href="#DejaVuSans-79" transform="translate(549.462891 0)"/>
      <use xlink:href="#DejaVuSans-20" transform="translate(608.642578 0)"/>
      <use xlink:href="#DejaVuSans-28" transform="translate(640.429688 0)"/>
      <use xlink:href="#DejaVuSans-6e" transform="translate(679.443359 0)"/>
      <use xlink:href="#DejaVuSans-6f" transform="translate(742.822266 0)"/>
      <use xlink:href="#DejaVuSans-72" transform="translate(804.003906 0)"/>
      <use xlink:href="#DejaVuSans-6d" transform="translate(843.367188 0)"/>
      <use xlink:href="#DejaVuSans-61" transform="translate(940.779297 0)"/>
      <use xlink:href="#DejaVuSans-6c" transform="translate(1002.058594 0)"/>
      <use xlink:href="#DejaVuSans-69" transform="translate(1029.841797 0)"/>
      <use xlink:href="#DejaVuSans-7a" transform="translate(1057.625 0)"/>
      <use xlink:href="#DejaVuSans-65" transform="translate(1110.115234 0)"/>
      <use xlink:href="#DejaVuSans-64" transform="translate(1171.638672 0)"/>
      <use xlink:href="#DejaVuSans-29" transform="translate(1235.115234 0)"/>
     </g>
    </g>
    <g id="line2d_16">
     <path d="M 687.971875 54.656562 
L 697.971875 54.656562 
L 707.971875 54.656562 
" style="fill: none; stroke: #008000; stroke-width: 1.5; stroke-linecap: square"/>
    </g>
    <g id="text_18">
     <!-- MS Intensity (normalized) -->
     <g transform="translate(715.971875 58.156562) scale(0.1 -0.1)">
      <use xlink:href="#DejaVuSans-4d"/>
      <use xlink:href="#DejaVuSans-53" transform="translate(86.279297 0)"/>
      <use xlink:href="#DejaVuSans-20" transform="translate(149.755859 0)"/>
      <use xlink:href="#DejaVuSans-49" transform="translate(181.542969 0)"/>
      <use xlink:href="#DejaVuSans-6e" transform="translate(211.035156 0)"/>
      <use xlink:href="#DejaVuSans-74" transform="translate(274.414062 0)"/>
      <use xlink:href="#DejaVuSans-65" transform="translate(313.623047 0)"/>
      <use xlink:href="#DejaVuSans-6e" transform="translate(375.146484 0)"/>
      <use xlink:href="#DejaVuSans-73" transform="translate(438.525391 0)"/>
      <use xlink:href="#DejaVuSans-69" transform="translate(490.625 0)"/>
      <use xlink:href="#DejaVuSans-74" transform="translate(518.408203 0)"/>
      <use xlink:href="#DejaVuSans-79" transform="translate(557.617188 0)"/>
      <use xlink:href="#DejaVuSans-20" transform="translate(616.796875 0)"/>
      <use xlink:href="#DejaVuSans-28" transform="translate(648.583984 0)"/>
      <use xlink:href="#DejaVuSans-6e" transform="translate(687.597656 0)"/>
      <use xlink:href="#DejaVuSans-6f" transform="translate(750.976562 0)"/>
      <use xlink:href="#DejaVuSans-72" transform="translate(812.158203 0)"/>
      <use xlink:href="#DejaVuSans-6d" transform="translate(851.521484 0)"/>
      <use xlink:href="#DejaVuSans-61" transform="translate(948.933594 0)"/>
      <use xlink:href="#DejaVuSans-6c" transform="translate(1010.212891 0)"/>
      <use xlink:href="#DejaVuSans-69" transform="translate(1037.996094 0)"/>
      <use xlink:href="#DejaVuSans-7a" transform="translate(1065.779297 0)"/>
      <use xlink:href="#DejaVuSans-65" transform="translate(1118.269531 0)"/>
      <use xlink:href="#DejaVuSans-64" transform="translate(1179.792969 0)"/>
      <use xlink:href="#DejaVuSans-29" transform="translate(1243.269531 0)"/>
     </g>
    </g>
   </g>
  </g>
 </g>
 <defs>
  <clipPath id="pf4008d884f">
   <rect x="47.72" y="26.88" width="805.48" height="507.16"/>
  </clipPath>
 </defs>
</svg>
