<?xml version="1.0" encoding="utf-8" standalone="no"?>
<!DOCTYPE svg PUBLIC "-//W3C//DTD SVG 1.1//EN"
  "http://www.w3.org/Graphics/SVG/1.1/DTD/svg11.dtd">
<svg xmlns:xlink="http://www.w3.org/1999/xlink" width="864pt" height="576pt" viewBox="0 0 864 576" xmlns="http://www.w3.org/2000/svg" version="1.1">
 <metadata>
  <rdf:RDF xmlns:dc="http://purl.org/dc/elements/1.1/" xmlns:cc="http://creativecommons.org/ns#" xmlns:rdf="http://www.w3.org/1999/02/22-rdf-syntax-ns#">
   <cc:Work>
    <dc:type rdf:resource="http://purl.org/dc/dcmitype/StillImage"/>
    <dc:date>2025-02-25T11:15:24.865536</dc:date>
    <dc:format>image/svg+xml</dc:format>
    <dc:creator>
     <cc:Agent>
      <dc:title>Matplotlib v3.10.0, https://matplotlib.org/</dc:title>
     </cc:Agent>
    </dc:creator>
   </cc:Work>
  </rdf:RDF>
 </metadata>
 <defs>
  <style type="text/css">*{stroke-linejoin: round; stroke-linecap: butt}</style>
 </defs>
 <g id="figure_1">
  <g id="patch_1">
   <path d="M 0 576 
L 864 576 
L 864 0 
L 0 0 
z
" style="fill: #ffffff"/>
  </g>
  <g id="axes_1">
   <g id="patch_2">
    <path d="M 47.72 534.04 
L 853.2 534.04 
L 853.2 26.88 
L 47.72 26.88 
z
" style="fill: #ffffff"/>
   </g>
   <g id="matplotlib.axis_1">
    <g id="xtick_1">
     <g id="line2d_1">
      <defs>
       <path id="ma9701db7f1" d="M 0 0 
L 0 3.5 
" style="stroke: #000000; stroke-width: 0.8"/>
      </defs>
      <g>
       <use xlink:href="#ma9701db7f1" x="83.095596" y="534.04" style="stroke: #000000; stroke-width: 0.8"/>
      </g>
     </g>
     <g id="text_1">
      <!-- 0 -->
      <g transform="translate(79.914346 548.638438) scale(0.1 -0.1)">
       <defs>
        <path id="DejaVuSans-30" d="M 2034 4250 
Q 1547 4250 1301 3770 
Q 1056 3291 1056 2328 
Q 1056 1369 1301 889 
Q 1547 409 2034 409 
Q 2525 409 2770 889 
Q 3016 1369 3016 2328 
Q 3016 3291 2770 3770 
Q 2525 4250 2034 4250 
z
M 2034 4750 
Q 2819 4750 3233 4129 
Q 3647 3509 3647 2328 
Q 3647 1150 3233 529 
Q 2819 -91 2034 -91 
Q 1250 -91 836 529 
Q 422 1150 422 2328 
Q 422 3509 836 4129 
Q 1250 4750 2034 4750 
z
" transform="scale(0.015625)"/>
       </defs>
       <use xlink:href="#DejaVuSans-30"/>
      </g>
     </g>
    </g>
    <g id="xtick_2">
     <g id="line2d_2">
      <g>
       <use xlink:href="#ma9701db7f1" x="229.790997" y="534.04" style="stroke: #000000; stroke-width: 0.8"/>
      </g>
     </g>
     <g id="text_2">
      <!-- 1 -->
      <g transform="translate(226.609747 548.638438) scale(0.1 -0.1)">
       <defs>
        <path id="DejaVuSans-31" d="M 794 531 
L 1825 531 
L 1825 4091 
L 703 3866 
L 703 4441 
L 1819 4666 
L 2450 4666 
L 2450 531 
L 3481 531 
L 3481 0 
L 794 0 
L 794 531 
z
" transform="scale(0.015625)"/>
       </defs>
       <use xlink:href="#DejaVuSans-31"/>
      </g>
     </g>
    </g>
    <g id="xtick_3">
     <g id="line2d_3">
      <g>
       <use xlink:href="#ma9701db7f1" x="376.486399" y="534.04" style="stroke: #000000; stroke-width: 0.8"/>
      </g>
     </g>
     <g id="text_3">
      <!-- 2 -->
      <g transform="translate(373.305149 548.638438) scale(0.1 -0.1)">
       <defs>
        <path id="DejaVuSans-32" d="M 1228 531 
L 3431 531 
L 3431 0 
L 469 0 
L 469 531 
Q 828 903 1448 1529 
Q 2069 2156 2228 2338 
Q 2531 2678 2651 2914 
Q 2772 3150 2772 3378 
Q 2772 3750 2511 3984 
Q 2250 4219 1831 4219 
Q 1534 4219 1204 4116 
Q 875 4013 500 3803 
L 500 4441 
Q 881 4594 1212 4672 
Q 1544 4750 1819 4750 
Q 2544 4750 2975 4387 
Q 3406 4025 3406 3419 
Q 3406 3131 3298 2873 
Q 3191 2616 2906 2266 
Q 2828 2175 2409 1742 
Q 1991 1309 1228 531 
z
" transform="scale(0.015625)"/>
       </defs>
       <use xlink:href="#DejaVuSans-32"/>
      </g>
     </g>
    </g>
    <g id="xtick_4">
     <g id="line2d_4">
      <g>
       <use xlink:href="#ma9701db7f1" x="523.1818" y="534.04" style="stroke: #000000; stroke-width: 0.8"/>
      </g>
     </g>
     <g id="text_4">
      <!-- 3 -->
      <g transform="translate(520.00055 548.638438) scale(0.1 -0.1)">
       <defs>
        <path id="DejaVuSans-33" d="M 2597 2516 
Q 3050 2419 3304 2112 
Q 3559 1806 3559 1356 
Q 3559 666 3084 287 
Q 2609 -91 1734 -91 
Q 1441 -91 1130 -33 
Q 819 25 488 141 
L 488 750 
Q 750 597 1062 519 
Q 1375 441 1716 441 
Q 2309 441 2620 675 
Q 2931 909 2931 1356 
Q 2931 1769 2642 2001 
Q 2353 2234 1838 2234 
L 1294 2234 
L 1294 2753 
L 1863 2753 
Q 2328 2753 2575 2939 
Q 2822 3125 2822 3475 
Q 2822 3834 2567 4026 
Q 2313 4219 1838 4219 
Q 1578 4219 1281 4162 
Q 984 4106 628 3988 
L 628 4550 
Q 988 4650 1302 4700 
Q 1616 4750 1894 4750 
Q 2613 4750 3031 4423 
Q 3450 4097 3450 3541 
Q 3450 3153 3228 2886 
Q 3006 2619 2597 2516 
z
" transform="scale(0.015625)"/>
       </defs>
       <use xlink:href="#DejaVuSans-33"/>
      </g>
     </g>
    </g>
    <g id="xtick_5">
     <g id="line2d_5">
      <g>
       <use xlink:href="#ma9701db7f1" x="669.877202" y="534.04" style="stroke: #000000; stroke-width: 0.8"/>
      </g>
     </g>
     <g id="text_5">
      <!-- 4 -->
      <g transform="translate(666.695952 548.638438) scale(0.1 -0.1)">
       <defs>
        <path id="DejaVuSans-34" d="M 2419 4116 
L 825 1625 
L 2419 1625 
L 2419 4116 
z
M 2253 4666 
L 3047 4666 
L 3047 1625 
L 3713 1625 
L 3713 1100 
L 3047 1100 
L 3047 0 
L 2419 0 
L 2419 1100 
L 313 1100 
L 313 1709 
L 2253 4666 
z
" transform="scale(0.015625)"/>
       </defs>
       <use xlink:href="#DejaVuSans-34"/>
      </g>
     </g>
    </g>
    <g id="xtick_6">
     <g id="line2d_6">
      <g>
       <use xlink:href="#ma9701db7f1" x="816.572603" y="534.04" style="stroke: #000000; stroke-width: 0.8"/>
      </g>
     </g>
     <g id="text_6">
      <!-- 5 -->
      <g transform="translate(813.391353 548.638438) scale(0.1 -0.1)">
       <defs>
        <path id="DejaVuSans-35" d="M 691 4666 
L 3169 4666 
L 3169 4134 
L 1269 4134 
L 1269 2991 
Q 1406 3038 1543 3061 
Q 1681 3084 1819 3084 
Q 2600 3084 3056 2656 
Q 3513 2228 3513 1497 
Q 3513 744 3044 326 
Q 2575 -91 1722 -91 
Q 1428 -91 1123 -41 
Q 819 9 494 109 
L 494 744 
Q 775 591 1075 516 
Q 1375 441 1709 441 
Q 2250 441 2565 725 
Q 2881 1009 2881 1497 
Q 2881 1984 2565 2268 
Q 2250 2553 1709 2553 
Q 1456 2553 1204 2497 
Q 953 2441 691 2322 
L 691 4666 
z
" transform="scale(0.015625)"/>
       </defs>
       <use xlink:href="#DejaVuSans-35"/>
      </g>
     </g>
    </g>
    <g id="text_7">
     <!-- Retention Time (min) -->
     <g transform="translate(397.61 562.316562) scale(0.1 -0.1)">
      <defs>
       <path id="DejaVuSans-52" d="M 2841 2188 
Q 3044 2119 3236 1894 
Q 3428 1669 3622 1275 
L 4263 0 
L 3584 0 
L 2988 1197 
Q 2756 1666 2539 1819 
Q 2322 1972 1947 1972 
L 1259 1972 
L 1259 0 
L 628 0 
L 628 4666 
L 2053 4666 
Q 2853 4666 3247 4331 
Q 3641 3997 3641 3322 
Q 3641 2881 3436 2590 
Q 3231 2300 2841 2188 
z
M 1259 4147 
L 1259 2491 
L 2053 2491 
Q 2509 2491 2742 2702 
Q 2975 2913 2975 3322 
Q 2975 3731 2742 3939 
Q 2509 4147 2053 4147 
L 1259 4147 
z
" transform="scale(0.015625)"/>
       <path id="DejaVuSans-65" d="M 3597 1894 
L 3597 1613 
L 953 1613 
Q 991 1019 1311 708 
Q 1631 397 2203 397 
Q 2534 397 2845 478 
Q 3156 559 3463 722 
L 3463 178 
Q 3153 47 2828 -22 
Q 2503 -91 2169 -91 
Q 1331 -91 842 396 
Q 353 884 353 1716 
Q 353 2575 817 3079 
Q 1281 3584 2069 3584 
Q 2775 3584 3186 3129 
Q 3597 2675 3597 1894 
z
M 3022 2063 
Q 3016 2534 2758 2815 
Q 2500 3097 2075 3097 
Q 1594 3097 1305 2825 
Q 1016 2553 972 2059 
L 3022 2063 
z
" transform="scale(0.015625)"/>
       <path id="DejaVuSans-74" d="M 1172 4494 
L 1172 3500 
L 2356 3500 
L 2356 3053 
L 1172 3053 
L 1172 1153 
Q 1172 725 1289 603 
Q 1406 481 1766 481 
L 2356 481 
L 2356 0 
L 1766 0 
Q 1100 0 847 248 
Q 594 497 594 1153 
L 594 3053 
L 172 3053 
L 172 3500 
L 594 3500 
L 594 4494 
L 1172 4494 
z
" transform="scale(0.015625)"/>
       <path id="DejaVuSans-6e" d="M 3513 2113 
L 3513 0 
L 2938 0 
L 2938 2094 
Q 2938 2591 2744 2837 
Q 2550 3084 2163 3084 
Q 1697 3084 1428 2787 
Q 1159 2491 1159 1978 
L 1159 0 
L 581 0 
L 581 3500 
L 1159 3500 
L 1159 2956 
Q 1366 3272 1645 3428 
Q 1925 3584 2291 3584 
Q 2894 3584 3203 3211 
Q 3513 2838 3513 2113 
z
" transform="scale(0.015625)"/>
       <path id="DejaVuSans-69" d="M 603 3500 
L 1178 3500 
L 1178 0 
L 603 0 
L 603 3500 
z
M 603 4863 
L 1178 4863 
L 1178 4134 
L 603 4134 
L 603 4863 
z
" transform="scale(0.015625)"/>
       <path id="DejaVuSans-6f" d="M 1959 3097 
Q 1497 3097 1228 2736 
Q 959 2375 959 1747 
Q 959 1119 1226 758 
Q 1494 397 1959 397 
Q 2419 397 2687 759 
Q 2956 1122 2956 1747 
Q 2956 2369 2687 2733 
Q 2419 3097 1959 3097 
z
M 1959 3584 
Q 2709 3584 3137 3096 
Q 3566 2609 3566 1747 
Q 3566 888 3137 398 
Q 2709 -91 1959 -91 
Q 1206 -91 779 398 
Q 353 888 353 1747 
Q 353 2609 779 3096 
Q 1206 3584 1959 3584 
z
" transform="scale(0.015625)"/>
       <path id="DejaVuSans-20" transform="scale(0.015625)"/>
       <path id="DejaVuSans-54" d="M -19 4666 
L 3928 4666 
L 3928 4134 
L 2272 4134 
L 2272 0 
L 1638 0 
L 1638 4134 
L -19 4134 
L -19 4666 
z
" transform="scale(0.015625)"/>
       <path id="DejaVuSans-6d" d="M 3328 2828 
Q 3544 3216 3844 3400 
Q 4144 3584 4550 3584 
Q 5097 3584 5394 3201 
Q 5691 2819 5691 2113 
L 5691 0 
L 5113 0 
L 5113 2094 
Q 5113 2597 4934 2840 
Q 4756 3084 4391 3084 
Q 3944 3084 3684 2787 
Q 3425 2491 3425 1978 
L 3425 0 
L 2847 0 
L 2847 2094 
Q 2847 2600 2669 2842 
Q 2491 3084 2119 3084 
Q 1678 3084 1418 2786 
Q 1159 2488 1159 1978 
L 1159 0 
L 581 0 
L 581 3500 
L 1159 3500 
L 1159 2956 
Q 1356 3278 1631 3431 
Q 1906 3584 2284 3584 
Q 2666 3584 2933 3390 
Q 3200 3197 3328 2828 
z
" transform="scale(0.015625)"/>
       <path id="DejaVuSans-28" d="M 1984 4856 
Q 1566 4138 1362 3434 
Q 1159 2731 1159 2009 
Q 1159 1288 1364 580 
Q 1569 -128 1984 -844 
L 1484 -844 
Q 1016 -109 783 600 
Q 550 1309 550 2009 
Q 550 2706 781 3412 
Q 1013 4119 1484 4856 
L 1984 4856 
z
" transform="scale(0.015625)"/>
       <path id="DejaVuSans-29" d="M 513 4856 
L 1013 4856 
Q 1481 4119 1714 3412 
Q 1947 2706 1947 2009 
Q 1947 1309 1714 600 
Q 1481 -109 1013 -844 
L 513 -844 
Q 928 -128 1133 580 
Q 1338 1288 1338 2009 
Q 1338 2731 1133 3434 
Q 928 4138 513 4856 
z
" transform="scale(0.015625)"/>
      </defs>
      <use xlink:href="#DejaVuSans-52"/>
      <use xlink:href="#DejaVuSans-65" transform="translate(64.982422 0)"/>
      <use xlink:href="#DejaVuSans-74" transform="translate(126.505859 0)"/>
      <use xlink:href="#DejaVuSans-65" transform="translate(165.714844 0)"/>
      <use xlink:href="#DejaVuSans-6e" transform="translate(227.238281 0)"/>
      <use xlink:href="#DejaVuSans-74" transform="translate(290.617188 0)"/>
      <use xlink:href="#DejaVuSans-69" transform="translate(329.826172 0)"/>
      <use xlink:href="#DejaVuSans-6f" transform="translate(357.609375 0)"/>
      <use xlink:href="#DejaVuSans-6e" transform="translate(418.791016 0)"/>
      <use xlink:href="#DejaVuSans-20" transform="translate(482.169922 0)"/>
      <use xlink:href="#DejaVuSans-54" transform="translate(513.957031 0)"/>
      <use xlink:href="#DejaVuSans-69" transform="translate(571.916016 0)"/>
      <use xlink:href="#DejaVuSans-6d" transform="translate(599.699219 0)"/>
      <use xlink:href="#DejaVuSans-65" transform="translate(697.111328 0)"/>
      <use xlink:href="#DejaVuSans-20" transform="translate(758.634766 0)"/>
      <use xlink:href="#DejaVuSans-28" transform="translate(790.421875 0)"/>
      <use xlink:href="#DejaVuSans-6d" transform="translate(829.435547 0)"/>
      <use xlink:href="#DejaVuSans-69" transform="translate(926.847656 0)"/>
      <use xlink:href="#DejaVuSans-6e" transform="translate(954.630859 0)"/>
      <use xlink:href="#DejaVuSans-29" transform="translate(1018.009766 0)"/>
     </g>
    </g>
   </g>
   <g id="matplotlib.axis_2">
    <g id="ytick_1">
     <g id="line2d_7">
      <defs>
       <path id="ma1089317e9" d="M 0 0 
L -3.5 0 
" style="stroke: #000000; stroke-width: 0.8"/>
      </defs>
      <g>
       <use xlink:href="#ma1089317e9" x="47.72" y="510.791971" style="stroke: #000000; stroke-width: 0.8"/>
      </g>
     </g>
     <g id="text_8">
      <!-- 0.0 -->
      <g style="fill: #0000ff" transform="translate(24.816875 514.59119) scale(0.1 -0.1)">
       <defs>
        <path id="DejaVuSans-2e" d="M 684 794 
L 1344 794 
L 1344 0 
L 684 0 
L 684 794 
z
" transform="scale(0.015625)"/>
       </defs>
       <use xlink:href="#DejaVuSans-30"/>
       <use xlink:href="#DejaVuSans-2e" transform="translate(63.623047 0)"/>
       <use xlink:href="#DejaVuSans-30" transform="translate(95.410156 0)"/>
      </g>
     </g>
    </g>
    <g id="ytick_2">
     <g id="line2d_8">
      <g>
       <use xlink:href="#ma1089317e9" x="47.72" y="418.620123" style="stroke: #000000; stroke-width: 0.8"/>
      </g>
     </g>
     <g id="text_9">
      <!-- 0.5 -->
      <g style="fill: #0000ff" transform="translate(24.816875 422.419341) scale(0.1 -0.1)">
       <use xlink:href="#DejaVuSans-30"/>
       <use xlink:href="#DejaVuSans-2e" transform="translate(63.623047 0)"/>
       <use xlink:href="#DejaVuSans-35" transform="translate(95.410156 0)"/>
      </g>
     </g>
    </g>
    <g id="ytick_3">
     <g id="line2d_9">
      <g>
       <use xlink:href="#ma1089317e9" x="47.72" y="326.448274" style="stroke: #000000; stroke-width: 0.8"/>
      </g>
     </g>
     <g id="text_10">
      <!-- 1.0 -->
      <g style="fill: #0000ff" transform="translate(24.816875 330.247493) scale(0.1 -0.1)">
       <use xlink:href="#DejaVuSans-31"/>
       <use xlink:href="#DejaVuSans-2e" transform="translate(63.623047 0)"/>
       <use xlink:href="#DejaVuSans-30" transform="translate(95.410156 0)"/>
      </g>
     </g>
    </g>
    <g id="ytick_4">
     <g id="line2d_10">
      <g>
       <use xlink:href="#ma1089317e9" x="47.72" y="234.276425" style="stroke: #000000; stroke-width: 0.8"/>
      </g>
     </g>
     <g id="text_11">
      <!-- 1.5 -->
      <g style="fill: #0000ff" transform="translate(24.816875 238.075644) scale(0.1 -0.1)">
       <use xlink:href="#DejaVuSans-31"/>
       <use xlink:href="#DejaVuSans-2e" transform="translate(63.623047 0)"/>
       <use xlink:href="#DejaVuSans-35" transform="translate(95.410156 0)"/>
      </g>
     </g>
    </g>
    <g id="ytick_5">
     <g id="line2d_11">
      <g>
       <use xlink:href="#ma1089317e9" x="47.72" y="142.104576" style="stroke: #000000; stroke-width: 0.8"/>
      </g>
     </g>
     <g id="text_12">
      <!-- 2.0 -->
      <g style="fill: #0000ff" transform="translate(24.816875 145.903795) scale(0.1 -0.1)">
       <use xlink:href="#DejaVuSans-32"/>
       <use xlink:href="#DejaVuSans-2e" transform="translate(63.623047 0)"/>
       <use xlink:href="#DejaVuSans-30" transform="translate(95.410156 0)"/>
      </g>
     </g>
    </g>
    <g id="ytick_6">
     <g id="line2d_12">
      <g>
       <use xlink:href="#ma1089317e9" x="47.72" y="49.932727" style="stroke: #000000; stroke-width: 0.8"/>
      </g>
     </g>
     <g id="text_13">
      <!-- 2.5 -->
      <g style="fill: #0000ff" transform="translate(24.816875 53.731946) scale(0.1 -0.1)">
       <use xlink:href="#DejaVuSans-32"/>
       <use xlink:href="#DejaVuSans-2e" transform="translate(63.623047 0)"/>
       <use xlink:href="#DejaVuSans-35" transform="translate(95.410156 0)"/>
      </g>
     </g>
    </g>
    <g id="text_14">
     <!-- Normalized Intensity -->
     <g style="fill: #0000ff" transform="translate(18.737187 332.167031) rotate(-90) scale(0.1 -0.1)">
      <defs>
       <path id="DejaVuSans-4e" d="M 628 4666 
L 1478 4666 
L 3547 763 
L 3547 4666 
L 4159 4666 
L 4159 0 
L 3309 0 
L 1241 3903 
L 1241 0 
L 628 0 
L 628 4666 
z
" transform="scale(0.015625)"/>
       <path id="DejaVuSans-72" d="M 2631 2963 
Q 2534 3019 2420 3045 
Q 2306 3072 2169 3072 
Q 1681 3072 1420 2755 
Q 1159 2438 1159 1844 
L 1159 0 
L 581 0 
L 581 3500 
L 1159 3500 
L 1159 2956 
Q 1341 3275 1631 3429 
Q 1922 3584 2338 3584 
Q 2397 3584 2469 3576 
Q 2541 3569 2628 3553 
L 2631 2963 
z
" transform="scale(0.015625)"/>
       <path id="DejaVuSans-61" d="M 2194 1759 
Q 1497 1759 1228 1600 
Q 959 1441 959 1056 
Q 959 750 1161 570 
Q 1363 391 1709 391 
Q 2188 391 2477 730 
Q 2766 1069 2766 1631 
L 2766 1759 
L 2194 1759 
z
M 3341 1997 
L 3341 0 
L 2766 0 
L 2766 531 
Q 2569 213 2275 61 
Q 1981 -91 1556 -91 
Q 1019 -91 701 211 
Q 384 513 384 1019 
Q 384 1609 779 1909 
Q 1175 2209 1959 2209 
L 2766 2209 
L 2766 2266 
Q 2766 2663 2505 2880 
Q 2244 3097 1772 3097 
Q 1472 3097 1187 3025 
Q 903 2953 641 2809 
L 641 3341 
Q 956 3463 1253 3523 
Q 1550 3584 1831 3584 
Q 2591 3584 2966 3190 
Q 3341 2797 3341 1997 
z
" transform="scale(0.015625)"/>
       <path id="DejaVuSans-6c" d="M 603 4863 
L 1178 4863 
L 1178 0 
L 603 0 
L 603 4863 
z
" transform="scale(0.015625)"/>
       <path id="DejaVuSans-7a" d="M 353 3500 
L 3084 3500 
L 3084 2975 
L 922 459 
L 3084 459 
L 3084 0 
L 275 0 
L 275 525 
L 2438 3041 
L 353 3041 
L 353 3500 
z
" transform="scale(0.015625)"/>
       <path id="DejaVuSans-64" d="M 2906 2969 
L 2906 4863 
L 3481 4863 
L 3481 0 
L 2906 0 
L 2906 525 
Q 2725 213 2448 61 
Q 2172 -91 1784 -91 
Q 1150 -91 751 415 
Q 353 922 353 1747 
Q 353 2572 751 3078 
Q 1150 3584 1784 3584 
Q 2172 3584 2448 3432 
Q 2725 3281 2906 2969 
z
M 947 1747 
Q 947 1113 1208 752 
Q 1469 391 1925 391 
Q 2381 391 2643 752 
Q 2906 1113 2906 1747 
Q 2906 2381 2643 2742 
Q 2381 3103 1925 3103 
Q 1469 3103 1208 2742 
Q 947 2381 947 1747 
z
" transform="scale(0.015625)"/>
       <path id="DejaVuSans-49" d="M 628 4666 
L 1259 4666 
L 1259 0 
L 628 0 
L 628 4666 
z
" transform="scale(0.015625)"/>
       <path id="DejaVuSans-73" d="M 2834 3397 
L 2834 2853 
Q 2591 2978 2328 3040 
Q 2066 3103 1784 3103 
Q 1356 3103 1142 2972 
Q 928 2841 928 2578 
Q 928 2378 1081 2264 
Q 1234 2150 1697 2047 
L 1894 2003 
Q 2506 1872 2764 1633 
Q 3022 1394 3022 966 
Q 3022 478 2636 193 
Q 2250 -91 1575 -91 
Q 1294 -91 989 -36 
Q 684 19 347 128 
L 347 722 
Q 666 556 975 473 
Q 1284 391 1588 391 
Q 1994 391 2212 530 
Q 2431 669 2431 922 
Q 2431 1156 2273 1281 
Q 2116 1406 1581 1522 
L 1381 1569 
Q 847 1681 609 1914 
Q 372 2147 372 2553 
Q 372 3047 722 3315 
Q 1072 3584 1716 3584 
Q 2034 3584 2315 3537 
Q 2597 3491 2834 3397 
z
" transform="scale(0.015625)"/>
       <path id="DejaVuSans-79" d="M 2059 -325 
Q 1816 -950 1584 -1140 
Q 1353 -1331 966 -1331 
L 506 -1331 
L 506 -850 
L 844 -850 
Q 1081 -850 1212 -737 
Q 1344 -625 1503 -206 
L 1606 56 
L 191 3500 
L 800 3500 
L 1894 763 
L 2988 3500 
L 3597 3500 
L 2059 -325 
z
" transform="scale(0.015625)"/>
      </defs>
      <use xlink:href="#DejaVuSans-4e"/>
      <use xlink:href="#DejaVuSans-6f" transform="translate(74.804688 0)"/>
      <use xlink:href="#DejaVuSans-72" transform="translate(135.986328 0)"/>
      <use xlink:href="#DejaVuSans-6d" transform="translate(175.349609 0)"/>
      <use xlink:href="#DejaVuSans-61" transform="translate(272.761719 0)"/>
      <use xlink:href="#DejaVuSans-6c" transform="translate(334.041016 0)"/>
      <use xlink:href="#DejaVuSans-69" transform="translate(361.824219 0)"/>
      <use xlink:href="#DejaVuSans-7a" transform="translate(389.607422 0)"/>
      <use xlink:href="#DejaVuSans-65" transform="translate(442.097656 0)"/>
      <use xlink:href="#DejaVuSans-64" transform="translate(503.621094 0)"/>
      <use xlink:href="#DejaVuSans-20" transform="translate(567.097656 0)"/>
      <use xlink:href="#DejaVuSans-49" transform="translate(598.884766 0)"/>
      <use xlink:href="#DejaVuSans-6e" transform="translate(628.376953 0)"/>
      <use xlink:href="#DejaVuSans-74" transform="translate(691.755859 0)"/>
      <use xlink:href="#DejaVuSans-65" transform="translate(730.964844 0)"/>
      <use xlink:href="#DejaVuSans-6e" transform="translate(792.488281 0)"/>
      <use xlink:href="#DejaVuSans-73" transform="translate(855.867188 0)"/>
      <use xlink:href="#DejaVuSans-69" transform="translate(907.966797 0)"/>
      <use xlink:href="#DejaVuSans-74" transform="translate(935.75 0)"/>
      <use xlink:href="#DejaVuSans-79" transform="translate(974.958984 0)"/>
     </g>
    </g>
   </g>
   <g id="line2d_13">
    <path d="M 84.332727 510.791971 
L 155.235505 510.681204 
L 158.90289 510.675733 
L 163.792736 510.751104 
L 166.23766 510.528634 
L 171.127506 509.78072 
L 173.57243 509.718293 
L 177.239815 509.992961 
L 180.9072 510.323662 
L 182.129662 510.338184 
L 185.797047 509.894407 
L 187.019508 510.033043 
L 189.464432 510.775879 
L 190.686893 510.887103 
L 191.909355 510.698123 
L 194.354278 510.100561 
L 195.57674 509.994038 
L 198.021663 510.190805 
L 200.466587 510.491228 
L 202.91151 510.597464 
L 209.023818 510.722842 
L 215.136127 510.865264 
L 217.58105 510.808963 
L 222.470897 510.450834 
L 224.91582 510.56774 
L 228.583205 510.82163 
L 234.695514 510.889331 
L 265.257056 510.851338 
L 267.701979 510.69918 
L 271.369364 510.379821 
L 275.036749 510.394659 
L 277.481672 510.385292 
L 278.704134 510.159555 
L 279.926596 509.64157 
L 281.149058 508.572532 
L 282.371519 505.716306 
L 283.593981 498.712909 
L 284.816443 486.401767 
L 286.038904 471.54915 
L 287.261366 459.917416 
L 288.483828 456.15078 
L 289.706289 460.831737 
L 290.928751 470.975743 
L 292.151213 482.522149 
L 293.373674 492.452068 
L 294.596136 499.498123 
L 295.818598 503.77922 
L 297.041059 506.081068 
L 298.263521 507.258824 
L 299.485983 507.926407 
L 301.930906 508.788725 
L 304.375829 509.320765 
L 308.043214 509.706832 
L 315.377985 510.242246 
L 317.822908 510.294522 
L 325.157678 510.2002 
L 326.38014 510.193457 
L 327.602601 510.001493 
L 328.825063 509.533168 
L 331.269986 508.376931 
L 332.492448 508.211633 
L 333.71491 508.43243 
L 337.382295 509.794622 
L 338.604756 510.049764 
L 339.827218 510.158919 
L 342.272141 510.065828 
L 344.717065 509.770791 
L 347.161988 509.39982 
L 349.606912 509.370554 
L 360.609067 510.029645 
L 364.276452 510.014091 
L 366.721375 510.187213 
L 367.943837 510.149504 
L 369.166298 509.873499 
L 371.611222 508.930155 
L 372.833683 508.719336 
L 374.056145 508.662095 
L 375.278607 507.828238 
L 376.501068 504.265145 
L 377.72353 496.487269 
L 378.945992 485.965457 
L 380.168453 477.119366 
L 381.390915 474.000908 
L 382.613377 477.380982 
L 383.835839 484.938105 
L 385.0583 493.405703 
L 386.280762 500.412959 
L 387.503224 505.067695 
L 388.725685 507.596536 
L 389.948147 508.704964 
L 391.170609 509.089168 
L 402.172764 510.119116 
L 407.06261 510.326056 
L 415.619842 510.404904 
L 421.732151 510.421937 
L 426.621997 510.388172 
L 435.179229 510.372633 
L 440.069076 510.332802 
L 442.513999 510.036064 
L 446.181384 509.199781 
L 447.403846 509.185025 
L 449.848769 509.634451 
L 452.293693 510.127705 
L 454.738616 510.254533 
L 465.740771 509.928018 
L 466.963233 509.441527 
L 468.185694 507.334441 
L 469.408156 499.523356 
L 470.630618 478.550141 
L 471.853079 439.587046 
L 473.075541 389.3865 
L 474.298003 345.915921 
L 475.520464 326.448274 
L 476.742926 336.236653 
L 477.965388 367.493408 
L 479.187849 406.643009 
L 480.410311 442.230355 
L 481.632773 468.590337 
L 482.855234 485.261696 
L 484.077696 494.541923 
L 485.300158 499.28195 
L 486.52262 501.718008 
L 487.745081 503.183998 
L 488.967543 504.284303 
L 490.190005 505.201014 
L 491.412466 505.950373 
L 492.634928 506.525372 
L 493.85739 506.931504 
L 495.079851 507.149811 
L 496.302313 507.128397 
L 498.747236 506.62075 
L 499.969698 506.575894 
L 501.19216 506.87379 
L 506.082006 509.045992 
L 508.52693 509.505651 
L 513.416776 510.007057 
L 518.306623 510.236958 
L 536.643548 510.584489 
L 558.647859 510.536757 
L 561.092782 510.471778 
L 575.762322 510.767755 
L 617.326019 510.599635 
L 628.328174 510.481963 
L 633.218021 510.758988 
L 641.775253 510.851471 
L 698.00849 510.911967 
L 707.788183 510.860368 
L 715.122953 510.934349 
L 776.246037 510.985329 
L 816.587273 510.984223 
L 816.587273 510.984223 
" clip-path="url(#pb9ebacafa7)" style="fill: none; stroke: #0000ff; stroke-width: 1.5; stroke-linecap: square"/>
   </g>
   <g id="line2d_14">
    <path d="M 221.697079 234.269587 
L 223.506077 234.267308 
L 286.308824 234.181659 
L 288.3985 234.049212 
L 393.074226 234.2007 
L 399.951062 234.229907 
L 403.220169 234.229971 
L 422.094733 234.260174 
L 451.866809 234.250491 
L 451.866809 234.247609 
L 460.944076 234.122448 
L 460.944076 234.067131 
L 461.66924 234.048183 
L 461.66924 233.947201 
L 462.031822 233.992193 
L 462.031822 233.857475 
L 462.394404 233.930804 
L 462.394404 233.772586 
L 462.757231 233.86615 
L 462.757231 233.699173 
L 463.119569 233.81873 
L 463.119569 233.643998 
L 463.487285 233.796299 
L 463.487285 233.620802 
L 463.849867 233.780571 
L 463.849867 233.617744 
L 464.212449 233.796611 
L 464.212449 233.641295 
L 464.575032 233.814561 
L 464.575032 233.657862 
L 464.937614 233.823712 
L 464.937614 233.670917 
L 465.300196 233.820599 
L 465.300196 233.687134 
L 466.02536 233.854376 
L 466.02536 233.734129 
L 466.75028 233.836144 
L 466.75028 233.733376 
L 467.480578 233.831268 
L 467.480578 233.762847 
L 468.205743 233.861819 
L 468.205743 233.793025 
L 468.936286 233.850704 
L 468.936286 233.74263 
L 469.31696 233.817331 
L 469.31696 233.681147 
L 469.679543 233.774412 
L 469.679543 233.623668 
L 470.042125 233.717759 
L 470.042125 233.534348 
L 470.404707 233.66955 
L 470.404707 233.478225 
L 470.767289 233.624468 
L 470.767289 233.433769 
L 471.129627 233.618372 
L 471.129627 233.402213 
L 471.491964 233.598576 
L 471.491964 233.441311 
L 471.848434 233.640796 
L 471.848434 233.434654 
L 472.200747 233.621102 
L 472.200747 233.204238 
L 472.550372 232.028847 
L 472.897795 228.837115 
L 473.23984 222.184396 
L 473.584819 220.55847 
L 473.584819 211.073232 
L 473.924174 194.63082 
L 474.260351 194.597226 
L 474.260351 181.878428 
L 474.593594 154.343141 
L 474.924637 159.493267 
L 474.924637 147.276649 
L 475.25519 144.897015 
L 475.25519 131.643688 
L 475.58501 154.688639 
L 475.58501 124.769079 
L 475.914831 110.274925 
L 476.243673 69.667278 
L 476.572759 96.11759 
L 476.572759 61.126414 
L 476.901602 90.249681 
L 477.230444 129.325194 
L 477.230444 96.131471 
L 477.559286 89.664173 
L 477.888128 89.923753 
L 477.888128 91.602278 
L 478.217459 49.932727 
L 478.555103 93.184977 
L 478.883701 94.333512 
L 478.883701 97.285334 
L 479.214255 139.95777 
L 479.214255 108.77417 
L 479.543586 106.673296 
L 479.872917 107.104332 
L 479.872917 109.81846 
L 480.202493 81.21184 
L 480.532313 84.273212 
L 480.862377 120.244058 
L 480.862377 96.158583 
L 481.522996 165.518879 
L 481.522996 143.560499 
L 482.184348 147.167208 
L 482.184348 150.781607 
L 482.515635 152.404187 
L 482.515635 158.05518 
L 482.846677 181.798099 
L 482.846677 164.243048 
L 483.17772 184.106384 
L 483.17772 168.416664 
L 483.516342 185.39382 
L 483.516342 171.447943 
L 483.848362 189.354319 
L 483.848362 174.965859 
L 484.181116 190.932142 
L 484.181116 178.496648 
L 484.846869 178.993358 
L 484.846869 181.457343 
L 485.180846 168.850622 
L 485.515067 186.35939 
L 485.850021 186.939224 
L 485.850021 189.386032 
L 486.185709 202.723569 
L 486.185709 192.902972 
L 486.520664 194.04915 
L 486.857574 184.123436 
L 487.193751 184.771745 
L 487.530172 176.082244 
L 487.868305 177.705076 
L 488.552639 202.316805 
L 488.552639 204.405937 
L 488.891261 213.299609 
L 488.891261 206.972971 
L 489.230861 214.347621 
L 489.230861 207.853397 
L 489.57095 215.236708 
L 489.57095 208.982688 
L 489.911039 215.576251 
L 489.911039 209.393422 
L 490.252106 216.073012 
L 490.252106 210.197254 
L 490.595373 216.717826 
L 490.595373 211.449035 
L 490.937418 217.62936 
L 490.937418 212.354116 
L 491.279951 218.314542 
L 491.279951 212.949045 
L 491.62493 218.77246 
L 491.62493 213.824681 
L 491.968931 219.379339 
L 491.968931 214.51951 
L 492.316354 220.082842 
L 492.316354 215.902172 
L 492.663778 221.090182 
L 492.663778 217.043081 
L 493.009735 222.128237 
L 493.009735 217.680715 
L 493.357647 217.436141 
L 493.709961 217.407606 
L 493.709961 217.828707 
L 494.056406 217.928704 
L 494.056406 218.576792 
L 494.403585 223.094392 
L 494.403585 219.419713 
L 494.752232 223.433805 
L 494.752232 219.864211 
L 495.1021 223.61494 
L 495.1021 220.200686 
L 495.452702 224.032738 
L 495.452702 220.689558 
L 495.802815 220.392117 
L 496.155618 216.944375 
L 496.507198 220.29414 
L 496.507198 217.504467 
L 496.859266 221.850226 
L 497.563649 222.49214 
L 497.916451 222.552404 
L 497.916451 223.062014 
L 498.269987 226.484149 
L 498.269987 223.953679 
L 498.636726 226.804837 
L 498.636726 224.287914 
L 498.990995 224.188854 
L 499.345998 224.227154 
L 499.345998 224.608179 
L 499.700756 222.129308 
L 500.054292 222.344124 
L 500.408073 225.13165 
L 500.408073 223.207746 
L 500.764787 225.535452 
L 500.764787 226.314293 
L 501.117834 228.751421 
L 501.117834 226.910199 
L 501.470881 228.92639 
L 501.470881 227.187071 
L 501.824661 229.091453 
L 501.824661 227.354866 
L 502.178931 229.247144 
L 502.178931 227.666632 
L 502.533445 229.459731 
L 502.533445 227.889943 
L 502.888936 229.661505 
L 502.888936 228.096684 
L 503.244673 229.765804 
L 503.244673 228.189689 
L 503.606277 229.801052 
L 503.606277 228.321877 
L 503.96348 229.950784 
L 503.96348 228.622684 
L 504.320684 230.252568 
L 504.320684 228.90161 
L 504.679598 230.474907 
L 504.679598 229.249787 
L 505.038269 230.611753 
L 505.038269 229.350481 
L 505.39865 230.69949 
L 505.39865 229.529664 
L 505.758788 230.764417 
L 505.758788 229.552411 
L 506.120392 230.840297 
L 506.120392 229.705081 
L 506.482729 230.830171 
L 506.482729 229.772436 
L 506.845311 230.974184 
L 506.845311 229.911367 
L 507.207894 231.074466 
L 507.207894 230.05186 
L 507.570476 231.156258 
L 507.570476 230.19633 
L 507.933058 231.26299 
L 507.933058 230.440573 
L 508.313488 231.539754 
L 508.313488 230.551567 
L 508.681204 231.578012 
L 508.681204 230.626108 
L 509.047209 230.452484 
L 509.409792 230.429252 
L 509.409792 230.550628 
L 509.772374 230.577903 
L 509.772374 230.697044 
L 510.859876 231.008536 
L 511.223436 231.998489 
L 511.223436 231.27868 
L 511.586018 232.091272 
L 511.586018 231.312043 
L 511.948844 232.159657 
L 511.948844 231.336924 
L 512.311427 231.209022 
L 513.036591 231.300818 
L 513.036591 231.451943 
L 513.399173 232.314735 
L 513.399173 231.674534 
L 513.767134 232.383476 
L 513.767134 231.728077 
L 514.129716 232.412565 
L 514.129716 231.835746 
L 514.492298 232.483588 
L 514.492298 231.842335 
L 514.854636 232.522007 
L 514.854636 231.915925 
L 515.217218 232.500543 
L 515.217218 231.882257 
L 515.5798 232.545502 
L 515.5798 231.975244 
L 515.943116 232.599018 
L 515.943116 232.039758 
L 516.305698 232.66905 
L 516.305698 232.142186 
L 516.66828 232.748146 
L 516.66828 232.168582 
L 517.393444 232.176725 
L 517.393444 232.218139 
L 517.755782 231.656149 
L 518.11812 232.329787 
L 518.485592 232.318558 
L 518.485592 232.346431 
L 518.853553 232.882879 
L 518.853553 232.435389 
L 519.216135 232.95721 
L 519.216135 232.548075 
L 519.578717 232.995731 
L 519.578717 232.58336 
L 520.303637 232.525367 
L 520.666219 232.60317 
L 521.028556 233.103984 
L 521.028556 232.721404 
L 521.391383 233.160025 
L 521.391383 232.740256 
L 521.753965 233.139643 
L 521.753965 232.749143 
L 522.116547 233.168721 
L 522.116547 232.795688 
L 522.479129 233.210528 
L 522.479129 232.81012 
L 522.841467 233.193184 
L 522.841467 232.807971 
L 523.204049 233.199882 
L 523.204049 232.837909 
L 523.566631 233.234042 
L 523.566631 232.895333 
L 523.934348 233.268469 
L 523.934348 232.914781 
L 524.29693 233.286407 
L 524.29693 232.966227 
L 524.659268 233.336882 
L 524.659268 232.996829 
L 525.02185 233.367577 
L 525.02185 233.007754 
L 525.384187 233.344533 
L 525.384187 233.027484 
L 525.746769 233.363264 
L 525.746769 233.045421 
L 526.109352 233.413166 
L 526.109352 233.129299 
L 526.471934 233.446998 
L 526.471934 233.167138 
L 526.834271 233.471168 
L 526.834271 233.161916 
L 527.559191 233.11172 
L 527.559191 233.123774 
L 527.925196 233.128207 
L 527.925196 233.122329 
L 528.287778 233.461301 
L 528.287778 233.190547 
L 528.65036 233.477056 
L 528.65036 233.199337 
L 529.018321 233.521675 
L 529.018321 233.27467 
L 529.380904 233.553059 
L 529.380904 233.287236 
L 529.743486 233.571551 
L 529.743486 233.314815 
L 530.105823 233.270686 
L 530.468405 232.995307 
L 530.830743 233.267023 
L 530.830743 233.009939 
L 531.555663 233.593454 
L 531.555663 233.345693 
L 531.918245 233.604126 
L 531.918245 233.371277 
L 532.280583 233.624227 
L 532.280583 233.391994 
L 532.64292 233.649952 
L 532.64292 233.427419 
L 533.006725 233.662067 
L 533.006725 233.438655 
L 533.369307 233.677936 
L 533.369307 233.430042 
L 533.731645 233.656464 
L 533.731645 233.4399 
L 534.099606 233.666969 
L 534.099606 233.45112 
L 534.461943 233.69309 
L 534.461943 233.494668 
L 534.824525 233.710867 
L 534.824525 233.525191 
L 535.911783 233.535983 
L 536.274365 233.763162 
L 536.274365 233.582754 
L 536.636703 233.755007 
L 536.636703 233.56817 
L 536.99904 233.758119 
L 536.99904 233.56219 
L 537.364556 233.74692 
L 537.364556 233.573586 
L 538.452547 233.576544 
L 538.452547 233.593327 
L 538.814885 233.797063 
L 538.814885 233.634149 
L 539.182601 233.830083 
L 539.182601 233.660769 
L 539.544939 233.828609 
L 539.544939 233.645858 
L 539.907521 233.816392 
L 539.907521 233.644984 
L 540.269859 233.817222 
L 540.269859 233.658837 
L 540.632441 233.840785 
L 540.632441 233.683003 
L 540.995023 233.85137 
L 540.995023 233.695207 
L 541.357361 233.85535 
L 541.357361 233.693914 
L 541.719943 233.843079 
L 541.719943 233.703753 
L 542.08228 233.8628 
L 542.08228 233.714072 
L 542.444862 233.875498 
L 542.444862 233.740764 
L 542.807445 233.886408 
L 542.807445 233.74486 
L 543.169782 233.893719 
L 543.169782 233.770049 
L 543.532364 233.913155 
L 543.532364 233.753128 
L 543.894702 233.900078 
L 543.894702 233.759945 
L 544.262663 233.888169 
L 544.262663 233.744177 
L 544.625001 233.903564 
L 544.625001 233.757999 
L 544.987583 233.90275 
L 544.987583 233.757758 
L 545.350165 233.9063 
L 545.350165 233.77428 
L 545.712747 233.914179 
L 545.712747 233.780986 
L 546.075085 233.926851 
L 546.075085 233.795585 
L 546.437422 233.931139 
L 546.437422 233.806383 
L 547.526147 233.785511 
L 547.526147 233.792995 
L 547.888729 233.938671 
L 547.888729 233.811412 
L 548.251066 233.935985 
L 548.251066 233.81776 
L 548.97892 233.959055 
L 548.97892 233.842225 
L 549.346637 233.960989 
L 549.346637 233.837237 
L 549.709219 233.952451 
L 549.709219 233.831377 
L 550.434139 233.955784 
L 550.434139 233.837323 
L 551.159303 233.9642 
L 551.159303 233.857795 
L 551.883978 233.988749 
L 551.883978 233.886749 
L 552.24656 233.997694 
L 552.24656 233.894869 
L 553.334307 233.871921 
L 553.334307 233.872683 
L 554.059471 234.003155 
L 554.059471 233.903891 
L 554.790992 234.012643 
L 554.790992 233.917919 
L 555.515912 234.024975 
L 555.515912 233.932084 
L 556.241076 234.018837 
L 556.241076 233.924288 
L 556.965996 234.032004 
L 556.965996 233.940518 
L 557.690916 234.046131 
L 557.690916 233.944728 
L 558.415835 234.020796 
L 558.415835 233.933081 
L 566.962309 233.91748 
L 567.991867 234.054005 
L 568.337823 233.979899 
L 568.685247 234.037618 
L 568.685247 234.028629 
L 569.383517 233.956092 
L 570.438501 234.041475 
L 571.142395 234.111262 
L 571.142395 234.057707 
L 621.490457 234.098446 
L 622.215621 234.099686 
L 622.215621 234.107154 
L 632.329536 234.141154 
L 635.000126 234.169037 
L 639.771149 234.108028 
L 646.892966 234.131454 
L 647.986091 234.170646 
L 647.986091 234.170613 
L 649.435687 234.135706 
L 650.523188 234.178468 
L 650.523188 234.178337 
L 653.065909 234.095371 
L 669.405821 234.148441 
L 670.130985 234.145841 
L 671.22411 234.136976 
L 680.66347 234.1746 
L 680.66347 234.181177 
L 681.756595 234.156404 
L 683.205946 234.162392 
L 735.426575 234.159722 
L 735.426575 234.154573 
L 737.907928 234.00448 
L 737.907928 234.009268 
L 738.968291 233.712194 
L 738.968291 233.741146 
L 740.028654 233.170898 
L 740.028654 233.287795 
L 740.38219 232.98652 
L 740.38219 233.120589 
L 740.734993 232.842385 
L 740.734993 233.063317 
L 741.088284 232.769762 
L 741.088284 233.013688 
L 741.442553 232.725671 
L 741.442553 232.953917 
L 741.80049 232.621694 
L 741.80049 232.86622 
L 742.153782 232.55831 
L 742.153782 232.822771 
L 742.508295 232.558577 
L 742.508295 232.860451 
L 742.860853 232.653232 
L 742.860853 232.969291 
L 743.213167 232.732209 
L 743.213167 233.021722 
L 743.56548 232.823621 
L 743.56548 233.069377 
L 743.918283 232.909379 
L 743.918283 233.1975 
L 744.270107 233.071563 
L 744.270107 233.335944 
L 744.622421 233.23654 
L 744.622421 233.442308 
L 744.974979 233.331562 
L 744.974979 233.500786 
L 745.330715 233.44017 
L 745.330715 233.61234 
L 745.683273 233.536644 
L 745.683273 233.701998 
L 746.389122 233.634559 
L 746.389122 233.743299 
L 746.746326 233.679607 
L 746.746326 233.791905 
L 747.449486 233.798519 
L 747.449486 233.869574 
L 748.155579 233.818304 
L 748.155579 233.896536 
L 748.858006 233.905727 
L 748.858006 233.96302 
L 749.560677 233.968074 
L 749.560677 234.013021 
L 750.614683 233.974345 
L 750.614683 234.032645 
L 752.025893 234.04974 
L 752.025893 234.084013 
L 753.081855 234.081144 
L 753.081855 234.116781 
L 756.604746 234.11504 
L 756.604746 234.146025 
L 761.562317 234.182196 
L 761.562317 234.175747 
L 777.752844 234.214033 
L 779.53177 234.204664 
L 781.670344 234.217267 
L 783.797672 234.206602 
L 788.7638 234.196277 
L 801.51701 234.221346 
L 805.014228 234.249495 
L 812.707668 234.198936 
L 812.707668 234.198936 
" clip-path="url(#pb9ebacafa7)" style="fill: none; stroke: #008000; stroke-width: 1.5; stroke-linecap: square"/>
   </g>
   <g id="patch_3">
    <path d="M 47.72 534.04 
L 47.72 26.88 
" style="fill: none; stroke: #000000; stroke-width: 0.8; stroke-linejoin: miter; stroke-linecap: square"/>
   </g>
   <g id="patch_4">
    <path d="M 853.2 534.04 
L 853.2 26.88 
" style="fill: none; stroke: #000000; stroke-width: 0.8; stroke-linejoin: miter; stroke-linecap: square"/>
   </g>
   <g id="patch_5">
    <path d="M 47.72 534.04 
L 853.2 534.04 
" style="fill: none; stroke: #000000; stroke-width: 0.8; stroke-linejoin: miter; stroke-linecap: square"/>
   </g>
   <g id="patch_6">
    <path d="M 47.72 26.88 
L 853.2 26.88 
" style="fill: none; stroke: #000000; stroke-width: 0.8; stroke-linejoin: miter; stroke-linecap: square"/>
   </g>
   <g id="patch_7">
    <path d="M 546.076255 354.355522 
Q 519.924961 360.186599 493.773667 366.017676 
L 494.644189 369.921801 
Q 488.136705 368.299134 481.629222 366.676466 
Q 486.830924 362.442946 492.032625 358.209426 
L 492.903146 362.113551 
Q 519.05444 356.282474 545.205734 350.451397 
L 546.076255 354.355522 
z
" style="stroke: #000000; stroke-linecap: round"/>
   </g>
   <g id="text_15">
    <!-- Peak: RT=2.69, Area=2.60e+04 -->
    <g style="fill: #ff0000" transform="translate(551.313088 337.861226) scale(0.1 -0.1)">
     <defs>
      <path id="DejaVuSans-50" d="M 1259 4147 
L 1259 2394 
L 2053 2394 
Q 2494 2394 2734 2622 
Q 2975 2850 2975 3272 
Q 2975 3691 2734 3919 
Q 2494 4147 2053 4147 
L 1259 4147 
z
M 628 4666 
L 2053 4666 
Q 2838 4666 3239 4311 
Q 3641 3956 3641 3272 
Q 3641 2581 3239 2228 
Q 2838 1875 2053 1875 
L 1259 1875 
L 1259 0 
L 628 0 
L 628 4666 
z
" transform="scale(0.015625)"/>
      <path id="DejaVuSans-6b" d="M 581 4863 
L 1159 4863 
L 1159 1991 
L 2875 3500 
L 3609 3500 
L 1753 1863 
L 3688 0 
L 2938 0 
L 1159 1709 
L 1159 0 
L 581 0 
L 581 4863 
z
" transform="scale(0.015625)"/>
      <path id="DejaVuSans-3a" d="M 750 794 
L 1409 794 
L 1409 0 
L 750 0 
L 750 794 
z
M 750 3309 
L 1409 3309 
L 1409 2516 
L 750 2516 
L 750 3309 
z
" transform="scale(0.015625)"/>
      <path id="DejaVuSans-3d" d="M 678 2906 
L 4684 2906 
L 4684 2381 
L 678 2381 
L 678 2906 
z
M 678 1631 
L 4684 1631 
L 4684 1100 
L 678 1100 
L 678 1631 
z
" transform="scale(0.015625)"/>
      <path id="DejaVuSans-36" d="M 2113 2584 
Q 1688 2584 1439 2293 
Q 1191 2003 1191 1497 
Q 1191 994 1439 701 
Q 1688 409 2113 409 
Q 2538 409 2786 701 
Q 3034 994 3034 1497 
Q 3034 2003 2786 2293 
Q 2538 2584 2113 2584 
z
M 3366 4563 
L 3366 3988 
Q 3128 4100 2886 4159 
Q 2644 4219 2406 4219 
Q 1781 4219 1451 3797 
Q 1122 3375 1075 2522 
Q 1259 2794 1537 2939 
Q 1816 3084 2150 3084 
Q 2853 3084 3261 2657 
Q 3669 2231 3669 1497 
Q 3669 778 3244 343 
Q 2819 -91 2113 -91 
Q 1303 -91 875 529 
Q 447 1150 447 2328 
Q 447 3434 972 4092 
Q 1497 4750 2381 4750 
Q 2619 4750 2861 4703 
Q 3103 4656 3366 4563 
z
" transform="scale(0.015625)"/>
      <path id="DejaVuSans-39" d="M 703 97 
L 703 672 
Q 941 559 1184 500 
Q 1428 441 1663 441 
Q 2288 441 2617 861 
Q 2947 1281 2994 2138 
Q 2813 1869 2534 1725 
Q 2256 1581 1919 1581 
Q 1219 1581 811 2004 
Q 403 2428 403 3163 
Q 403 3881 828 4315 
Q 1253 4750 1959 4750 
Q 2769 4750 3195 4129 
Q 3622 3509 3622 2328 
Q 3622 1225 3098 567 
Q 2575 -91 1691 -91 
Q 1453 -91 1209 -44 
Q 966 3 703 97 
z
M 1959 2075 
Q 2384 2075 2632 2365 
Q 2881 2656 2881 3163 
Q 2881 3666 2632 3958 
Q 2384 4250 1959 4250 
Q 1534 4250 1286 3958 
Q 1038 3666 1038 3163 
Q 1038 2656 1286 2365 
Q 1534 2075 1959 2075 
z
" transform="scale(0.015625)"/>
      <path id="DejaVuSans-2c" d="M 750 794 
L 1409 794 
L 1409 256 
L 897 -744 
L 494 -744 
L 750 256 
L 750 794 
z
" transform="scale(0.015625)"/>
      <path id="DejaVuSans-41" d="M 2188 4044 
L 1331 1722 
L 3047 1722 
L 2188 4044 
z
M 1831 4666 
L 2547 4666 
L 4325 0 
L 3669 0 
L 3244 1197 
L 1141 1197 
L 716 0 
L 50 0 
L 1831 4666 
z
" transform="scale(0.015625)"/>
      <path id="DejaVuSans-2b" d="M 2944 4013 
L 2944 2272 
L 4684 2272 
L 4684 1741 
L 2944 1741 
L 2944 0 
L 2419 0 
L 2419 1741 
L 678 1741 
L 678 2272 
L 2419 2272 
L 2419 4013 
L 2944 4013 
z
" transform="scale(0.015625)"/>
     </defs>
     <use xlink:href="#DejaVuSans-50"/>
     <use xlink:href="#DejaVuSans-65" transform="translate(56.677734 0)"/>
     <use xlink:href="#DejaVuSans-61" transform="translate(118.201172 0)"/>
     <use xlink:href="#DejaVuSans-6b" transform="translate(179.480469 0)"/>
     <use xlink:href="#DejaVuSans-3a" transform="translate(237.390625 0)"/>
     <use xlink:href="#DejaVuSans-20" transform="translate(271.082031 0)"/>
     <use xlink:href="#DejaVuSans-52" transform="translate(302.869141 0)"/>
     <use xlink:href="#DejaVuSans-54" transform="translate(365.101562 0)"/>
     <use xlink:href="#DejaVuSans-3d" transform="translate(426.185547 0)"/>
     <use xlink:href="#DejaVuSans-32" transform="translate(509.974609 0)"/>
     <use xlink:href="#DejaVuSans-2e" transform="translate(573.597656 0)"/>
     <use xlink:href="#DejaVuSans-36" transform="translate(605.384766 0)"/>
     <use xlink:href="#DejaVuSans-39" transform="translate(669.007812 0)"/>
     <use xlink:href="#DejaVuSans-2c" transform="translate(732.630859 0)"/>
     <use xlink:href="#DejaVuSans-20" transform="translate(764.417969 0)"/>
     <use xlink:href="#DejaVuSans-41" transform="translate(796.205078 0)"/>
     <use xlink:href="#DejaVuSans-72" transform="translate(864.613281 0)"/>
     <use xlink:href="#DejaVuSans-65" transform="translate(903.476562 0)"/>
     <use xlink:href="#DejaVuSans-61" transform="translate(965 0)"/>
     <use xlink:href="#DejaVuSans-3d" transform="translate(1026.279297 0)"/>
     <use xlink:href="#DejaVuSans-32" transform="translate(1110.068359 0)"/>
     <use xlink:href="#DejaVuSans-2e" transform="translate(1173.691406 0)"/>
     <use xlink:href="#DejaVuSans-36" transform="translate(1205.478516 0)"/>
     <use xlink:href="#DejaVuSans-30" transform="translate(1269.101562 0)"/>
     <use xlink:href="#DejaVuSans-65" transform="translate(1332.724609 0)"/>
     <use xlink:href="#DejaVuSans-2b" transform="translate(1394.248047 0)"/>
     <use xlink:href="#DejaVuSans-30" transform="translate(1478.037109 0)"/>
     <use xlink:href="#DejaVuSans-34" transform="translate(1541.660156 0)"/>
    </g>
    <!-- (65.08% of total) -->
    <g style="fill: #ff0000" transform="translate(551.313088 349.059038) scale(0.1 -0.1)">
     <defs>
      <path id="DejaVuSans-38" d="M 2034 2216 
Q 1584 2216 1326 1975 
Q 1069 1734 1069 1313 
Q 1069 891 1326 650 
Q 1584 409 2034 409 
Q 2484 409 2743 651 
Q 3003 894 3003 1313 
Q 3003 1734 2745 1975 
Q 2488 2216 2034 2216 
z
M 1403 2484 
Q 997 2584 770 2862 
Q 544 3141 544 3541 
Q 544 4100 942 4425 
Q 1341 4750 2034 4750 
Q 2731 4750 3128 4425 
Q 3525 4100 3525 3541 
Q 3525 3141 3298 2862 
Q 3072 2584 2669 2484 
Q 3125 2378 3379 2068 
Q 3634 1759 3634 1313 
Q 3634 634 3220 271 
Q 2806 -91 2034 -91 
Q 1263 -91 848 271 
Q 434 634 434 1313 
Q 434 1759 690 2068 
Q 947 2378 1403 2484 
z
M 1172 3481 
Q 1172 3119 1398 2916 
Q 1625 2713 2034 2713 
Q 2441 2713 2670 2916 
Q 2900 3119 2900 3481 
Q 2900 3844 2670 4047 
Q 2441 4250 2034 4250 
Q 1625 4250 1398 4047 
Q 1172 3844 1172 3481 
z
" transform="scale(0.015625)"/>
      <path id="DejaVuSans-25" d="M 4653 2053 
Q 4381 2053 4226 1822 
Q 4072 1591 4072 1178 
Q 4072 772 4226 539 
Q 4381 306 4653 306 
Q 4919 306 5073 539 
Q 5228 772 5228 1178 
Q 5228 1588 5073 1820 
Q 4919 2053 4653 2053 
z
M 4653 2450 
Q 5147 2450 5437 2106 
Q 5728 1763 5728 1178 
Q 5728 594 5436 251 
Q 5144 -91 4653 -91 
Q 4153 -91 3862 251 
Q 3572 594 3572 1178 
Q 3572 1766 3864 2108 
Q 4156 2450 4653 2450 
z
M 1428 4353 
Q 1159 4353 1004 4120 
Q 850 3888 850 3481 
Q 850 3069 1003 2837 
Q 1156 2606 1428 2606 
Q 1700 2606 1854 2837 
Q 2009 3069 2009 3481 
Q 2009 3884 1853 4118 
Q 1697 4353 1428 4353 
z
M 4250 4750 
L 4750 4750 
L 1831 -91 
L 1331 -91 
L 4250 4750 
z
M 1428 4750 
Q 1922 4750 2215 4408 
Q 2509 4066 2509 3481 
Q 2509 2891 2217 2550 
Q 1925 2209 1428 2209 
Q 931 2209 642 2551 
Q 353 2894 353 3481 
Q 353 4063 643 4406 
Q 934 4750 1428 4750 
z
" transform="scale(0.015625)"/>
      <path id="DejaVuSans-66" d="M 2375 4863 
L 2375 4384 
L 1825 4384 
Q 1516 4384 1395 4259 
Q 1275 4134 1275 3809 
L 1275 3500 
L 2222 3500 
L 2222 3053 
L 1275 3053 
L 1275 0 
L 697 0 
L 697 3053 
L 147 3053 
L 147 3500 
L 697 3500 
L 697 3744 
Q 697 4328 969 4595 
Q 1241 4863 1831 4863 
L 2375 4863 
z
" transform="scale(0.015625)"/>
     </defs>
     <use xlink:href="#DejaVuSans-28"/>
     <use xlink:href="#DejaVuSans-36" transform="translate(39.013672 0)"/>
     <use xlink:href="#DejaVuSans-35" transform="translate(102.636719 0)"/>
     <use xlink:href="#DejaVuSans-2e" transform="translate(166.259766 0)"/>
     <use xlink:href="#DejaVuSans-30" transform="translate(198.046875 0)"/>
     <use xlink:href="#DejaVuSans-38" transform="translate(261.669922 0)"/>
     <use xlink:href="#DejaVuSans-25" transform="translate(325.292969 0)"/>
     <use xlink:href="#DejaVuSans-20" transform="translate(420.3125 0)"/>
     <use xlink:href="#DejaVuSans-6f" transform="translate(452.099609 0)"/>
     <use xlink:href="#DejaVuSans-66" transform="translate(513.28125 0)"/>
     <use xlink:href="#DejaVuSans-20" transform="translate(548.486328 0)"/>
     <use xlink:href="#DejaVuSans-74" transform="translate(580.273438 0)"/>
     <use xlink:href="#DejaVuSans-6f" transform="translate(619.482422 0)"/>
     <use xlink:href="#DejaVuSans-74" transform="translate(680.664062 0)"/>
     <use xlink:href="#DejaVuSans-61" transform="translate(719.873047 0)"/>
     <use xlink:href="#DejaVuSans-6c" transform="translate(781.152344 0)"/>
     <use xlink:href="#DejaVuSans-29" transform="translate(808.935547 0)"/>
    </g>
   </g>
   <g id="text_16">
    <!-- UV &amp; MS Chromatograms: IrCp1L24, target m/z=661.1138414 -->
    <g transform="translate(263.06875 20.88) scale(0.12 -0.12)">
     <defs>
      <path id="DejaVuSans-55" d="M 556 4666 
L 1191 4666 
L 1191 1831 
Q 1191 1081 1462 751 
Q 1734 422 2344 422 
Q 2950 422 3222 751 
Q 3494 1081 3494 1831 
L 3494 4666 
L 4128 4666 
L 4128 1753 
Q 4128 841 3676 375 
Q 3225 -91 2344 -91 
Q 1459 -91 1007 375 
Q 556 841 556 1753 
L 556 4666 
z
" transform="scale(0.015625)"/>
      <path id="DejaVuSans-56" d="M 1831 0 
L 50 4666 
L 709 4666 
L 2188 738 
L 3669 4666 
L 4325 4666 
L 2547 0 
L 1831 0 
z
" transform="scale(0.015625)"/>
      <path id="DejaVuSans-26" d="M 1556 2509 
Q 1272 2256 1139 2004 
Q 1006 1753 1006 1478 
Q 1006 1022 1337 719 
Q 1669 416 2169 416 
Q 2466 416 2725 514 
Q 2984 613 3213 813 
L 1556 2509 
z
M 1997 2859 
L 3584 1234 
Q 3769 1513 3872 1830 
Q 3975 2147 3994 2503 
L 4575 2503 
Q 4538 2091 4375 1687 
Q 4213 1284 3922 891 
L 4794 0 
L 4006 0 
L 3559 459 
Q 3234 181 2878 45 
Q 2522 -91 2113 -91 
Q 1359 -91 881 339 
Q 403 769 403 1441 
Q 403 1841 612 2192 
Q 822 2544 1241 2853 
Q 1091 3050 1012 3245 
Q 934 3441 934 3628 
Q 934 4134 1281 4442 
Q 1628 4750 2203 4750 
Q 2463 4750 2720 4694 
Q 2978 4638 3244 4525 
L 3244 3956 
Q 2972 4103 2725 4179 
Q 2478 4256 2266 4256 
Q 1938 4256 1733 4082 
Q 1528 3909 1528 3634 
Q 1528 3475 1620 3314 
Q 1713 3153 1997 2859 
z
" transform="scale(0.015625)"/>
      <path id="DejaVuSans-4d" d="M 628 4666 
L 1569 4666 
L 2759 1491 
L 3956 4666 
L 4897 4666 
L 4897 0 
L 4281 0 
L 4281 4097 
L 3078 897 
L 2444 897 
L 1241 4097 
L 1241 0 
L 628 0 
L 628 4666 
z
" transform="scale(0.015625)"/>
      <path id="DejaVuSans-53" d="M 3425 4513 
L 3425 3897 
Q 3066 4069 2747 4153 
Q 2428 4238 2131 4238 
Q 1616 4238 1336 4038 
Q 1056 3838 1056 3469 
Q 1056 3159 1242 3001 
Q 1428 2844 1947 2747 
L 2328 2669 
Q 3034 2534 3370 2195 
Q 3706 1856 3706 1288 
Q 3706 609 3251 259 
Q 2797 -91 1919 -91 
Q 1588 -91 1214 -16 
Q 841 59 441 206 
L 441 856 
Q 825 641 1194 531 
Q 1563 422 1919 422 
Q 2459 422 2753 634 
Q 3047 847 3047 1241 
Q 3047 1584 2836 1778 
Q 2625 1972 2144 2069 
L 1759 2144 
Q 1053 2284 737 2584 
Q 422 2884 422 3419 
Q 422 4038 858 4394 
Q 1294 4750 2059 4750 
Q 2388 4750 2728 4690 
Q 3069 4631 3425 4513 
z
" transform="scale(0.015625)"/>
      <path id="DejaVuSans-43" d="M 4122 4306 
L 4122 3641 
Q 3803 3938 3442 4084 
Q 3081 4231 2675 4231 
Q 1875 4231 1450 3742 
Q 1025 3253 1025 2328 
Q 1025 1406 1450 917 
Q 1875 428 2675 428 
Q 3081 428 3442 575 
Q 3803 722 4122 1019 
L 4122 359 
Q 3791 134 3420 21 
Q 3050 -91 2638 -91 
Q 1578 -91 968 557 
Q 359 1206 359 2328 
Q 359 3453 968 4101 
Q 1578 4750 2638 4750 
Q 3056 4750 3426 4639 
Q 3797 4528 4122 4306 
z
" transform="scale(0.015625)"/>
      <path id="DejaVuSans-68" d="M 3513 2113 
L 3513 0 
L 2938 0 
L 2938 2094 
Q 2938 2591 2744 2837 
Q 2550 3084 2163 3084 
Q 1697 3084 1428 2787 
Q 1159 2491 1159 1978 
L 1159 0 
L 581 0 
L 581 4863 
L 1159 4863 
L 1159 2956 
Q 1366 3272 1645 3428 
Q 1925 3584 2291 3584 
Q 2894 3584 3203 3211 
Q 3513 2838 3513 2113 
z
" transform="scale(0.015625)"/>
      <path id="DejaVuSans-67" d="M 2906 1791 
Q 2906 2416 2648 2759 
Q 2391 3103 1925 3103 
Q 1463 3103 1205 2759 
Q 947 2416 947 1791 
Q 947 1169 1205 825 
Q 1463 481 1925 481 
Q 2391 481 2648 825 
Q 2906 1169 2906 1791 
z
M 3481 434 
Q 3481 -459 3084 -895 
Q 2688 -1331 1869 -1331 
Q 1566 -1331 1297 -1286 
Q 1028 -1241 775 -1147 
L 775 -588 
Q 1028 -725 1275 -790 
Q 1522 -856 1778 -856 
Q 2344 -856 2625 -561 
Q 2906 -266 2906 331 
L 2906 616 
Q 2728 306 2450 153 
Q 2172 0 1784 0 
Q 1141 0 747 490 
Q 353 981 353 1791 
Q 353 2603 747 3093 
Q 1141 3584 1784 3584 
Q 2172 3584 2450 3431 
Q 2728 3278 2906 2969 
L 2906 3500 
L 3481 3500 
L 3481 434 
z
" transform="scale(0.015625)"/>
      <path id="DejaVuSans-70" d="M 1159 525 
L 1159 -1331 
L 581 -1331 
L 581 3500 
L 1159 3500 
L 1159 2969 
Q 1341 3281 1617 3432 
Q 1894 3584 2278 3584 
Q 2916 3584 3314 3078 
Q 3713 2572 3713 1747 
Q 3713 922 3314 415 
Q 2916 -91 2278 -91 
Q 1894 -91 1617 61 
Q 1341 213 1159 525 
z
M 3116 1747 
Q 3116 2381 2855 2742 
Q 2594 3103 2138 3103 
Q 1681 3103 1420 2742 
Q 1159 2381 1159 1747 
Q 1159 1113 1420 752 
Q 1681 391 2138 391 
Q 2594 391 2855 752 
Q 3116 1113 3116 1747 
z
" transform="scale(0.015625)"/>
      <path id="DejaVuSans-4c" d="M 628 4666 
L 1259 4666 
L 1259 531 
L 3531 531 
L 3531 0 
L 628 0 
L 628 4666 
z
" transform="scale(0.015625)"/>
      <path id="DejaVuSans-2f" d="M 1625 4666 
L 2156 4666 
L 531 -594 
L 0 -594 
L 1625 4666 
z
" transform="scale(0.015625)"/>
     </defs>
     <use xlink:href="#DejaVuSans-55"/>
     <use xlink:href="#DejaVuSans-56" transform="translate(73.193359 0)"/>
     <use xlink:href="#DejaVuSans-20" transform="translate(141.601562 0)"/>
     <use xlink:href="#DejaVuSans-26" transform="translate(173.388672 0)"/>
     <use xlink:href="#DejaVuSans-20" transform="translate(251.367188 0)"/>
     <use xlink:href="#DejaVuSans-4d" transform="translate(283.154297 0)"/>
     <use xlink:href="#DejaVuSans-53" transform="translate(369.433594 0)"/>
     <use xlink:href="#DejaVuSans-20" transform="translate(432.910156 0)"/>
     <use xlink:href="#DejaVuSans-43" transform="translate(464.697266 0)"/>
     <use xlink:href="#DejaVuSans-68" transform="translate(534.521484 0)"/>
     <use xlink:href="#DejaVuSans-72" transform="translate(597.900391 0)"/>
     <use xlink:href="#DejaVuSans-6f" transform="translate(636.763672 0)"/>
     <use xlink:href="#DejaVuSans-6d" transform="translate(697.945312 0)"/>
     <use xlink:href="#DejaVuSans-61" transform="translate(795.357422 0)"/>
     <use xlink:href="#DejaVuSans-74" transform="translate(856.636719 0)"/>
     <use xlink:href="#DejaVuSans-6f" transform="translate(895.845703 0)"/>
     <use xlink:href="#DejaVuSans-67" transform="translate(957.027344 0)"/>
     <use xlink:href="#DejaVuSans-72" transform="translate(1020.503906 0)"/>
     <use xlink:href="#DejaVuSans-61" transform="translate(1061.617188 0)"/>
     <use xlink:href="#DejaVuSans-6d" transform="translate(1122.896484 0)"/>
     <use xlink:href="#DejaVuSans-73" transform="translate(1220.308594 0)"/>
     <use xlink:href="#DejaVuSans-3a" transform="translate(1272.408203 0)"/>
     <use xlink:href="#DejaVuSans-20" transform="translate(1306.099609 0)"/>
     <use xlink:href="#DejaVuSans-49" transform="translate(1337.886719 0)"/>
     <use xlink:href="#DejaVuSans-72" transform="translate(1367.378906 0)"/>
     <use xlink:href="#DejaVuSans-43" transform="translate(1408.492188 0)"/>
     <use xlink:href="#DejaVuSans-70" transform="translate(1478.316406 0)"/>
     <use xlink:href="#DejaVuSans-31" transform="translate(1541.792969 0)"/>
     <use xlink:href="#DejaVuSans-4c" transform="translate(1605.416016 0)"/>
     <use xlink:href="#DejaVuSans-32" transform="translate(1661.128906 0)"/>
     <use xlink:href="#DejaVuSans-34" transform="translate(1724.751953 0)"/>
     <use xlink:href="#DejaVuSans-2c" transform="translate(1788.375 0)"/>
     <use xlink:href="#DejaVuSans-20" transform="translate(1820.162109 0)"/>
     <use xlink:href="#DejaVuSans-74" transform="translate(1851.949219 0)"/>
     <use xlink:href="#DejaVuSans-61" transform="translate(1891.158203 0)"/>
     <use xlink:href="#DejaVuSans-72" transform="translate(1952.4375 0)"/>
     <use xlink:href="#DejaVuSans-67" transform="translate(1991.800781 0)"/>
     <use xlink:href="#DejaVuSans-65" transform="translate(2055.277344 0)"/>
     <use xlink:href="#DejaVuSans-74" transform="translate(2116.800781 0)"/>
     <use xlink:href="#DejaVuSans-20" transform="translate(2156.009766 0)"/>
     <use xlink:href="#DejaVuSans-6d" transform="translate(2187.796875 0)"/>
     <use xlink:href="#DejaVuSans-2f" transform="translate(2285.208984 0)"/>
     <use xlink:href="#DejaVuSans-7a" transform="translate(2318.900391 0)"/>
     <use xlink:href="#DejaVuSans-3d" transform="translate(2371.390625 0)"/>
     <use xlink:href="#DejaVuSans-36" transform="translate(2455.179688 0)"/>
     <use xlink:href="#DejaVuSans-36" transform="translate(2518.802734 0)"/>
     <use xlink:href="#DejaVuSans-31" transform="translate(2582.425781 0)"/>
     <use xlink:href="#DejaVuSans-2e" transform="translate(2646.048828 0)"/>
     <use xlink:href="#DejaVuSans-31" transform="translate(2677.835938 0)"/>
     <use xlink:href="#DejaVuSans-31" transform="translate(2741.458984 0)"/>
     <use xlink:href="#DejaVuSans-33" transform="translate(2805.082031 0)"/>
     <use xlink:href="#DejaVuSans-38" transform="translate(2868.705078 0)"/>
     <use xlink:href="#DejaVuSans-34" transform="translate(2932.328125 0)"/>
     <use xlink:href="#DejaVuSans-31" transform="translate(2995.951172 0)"/>
     <use xlink:href="#DejaVuSans-34" transform="translate(3059.574219 0)"/>
    </g>
   </g>
   <g id="legend_1">
    <g id="patch_8">
     <path d="M 685.971875 64.23625 
L 846.2 64.23625 
Q 848.2 64.23625 848.2 62.23625 
L 848.2 33.88 
Q 848.2 31.88 846.2 31.88 
L 685.971875 31.88 
Q 683.971875 31.88 683.971875 33.88 
L 683.971875 62.23625 
Q 683.971875 64.23625 685.971875 64.23625 
z
" style="fill: #ffffff; opacity: 0.8; stroke: #cccccc; stroke-linejoin: miter"/>
    </g>
    <g id="line2d_15">
     <path d="M 687.971875 39.978437 
L 697.971875 39.978437 
L 707.971875 39.978437 
" style="fill: none; stroke: #0000ff; stroke-width: 1.5; stroke-linecap: square"/>
    </g>
    <g id="text_17">
     <!-- UV Intensity (normalized) -->
     <g transform="translate(715.971875 43.478437) scale(0.1 -0.1)">
      <use xlink:href="#DejaVuSans-55"/>
      <use xlink:href="#DejaVuSans-56" transform="translate(73.193359 0)"/>
      <use xlink:href="#DejaVuSans-20" transform="translate(141.601562 0)"/>
      <use xlink:href="#DejaVuSans-49" transform="translate(173.388672 0)"/>
      <use xlink:href="#DejaVuSans-6e" transform="translate(202.880859 0)"/>
      <use xlink:href="#DejaVuSans-74" transform="translate(266.259766 0)"/>
      <use xlink:href="#DejaVuSans-65" transform="translate(305.46875 0)"/>
      <use xlink:href="#DejaVuSans-6e" transform="translate(366.992188 0)"/>
      <use xlink:href="#DejaVuSans-73" transform="translate(430.371094 0)"/>
      <use xlink:href="#DejaVuSans-69" transform="translate(482.470703 0)"/>
      <use xlink:href="#DejaVuSans-74" transform="translate(510.253906 0)"/>
      <use xlink:href="#DejaVuSans-79" transform="translate(549.462891 0)"/>
      <use xlink:href="#DejaVuSans-20" transform="translate(608.642578 0)"/>
      <use xlink:href="#DejaVuSans-28" transform="translate(640.429688 0)"/>
      <use xlink:href="#DejaVuSans-6e" transform="translate(679.443359 0)"/>
      <use xlink:href="#DejaVuSans-6f" transform="translate(742.822266 0)"/>
      <use xlink:href="#DejaVuSans-72" transform="translate(804.003906 0)"/>
      <use xlink:href="#DejaVuSans-6d" transform="translate(843.367188 0)"/>
      <use xlink:href="#DejaVuSans-61" transform="translate(940.779297 0)"/>
      <use xlink:href="#DejaVuSans-6c" transform="translate(1002.058594 0)"/>
      <use xlink:href="#DejaVuSans-69" transform="translate(1029.841797 0)"/>
      <use xlink:href="#DejaVuSans-7a" transform="translate(1057.625 0)"/>
      <use xlink:href="#DejaVuSans-65" transform="translate(1110.115234 0)"/>
      <use xlink:href="#DejaVuSans-64" transform="translate(1171.638672 0)"/>
      <use xlink:href="#DejaVuSans-29" transform="translate(1235.115234 0)"/>
     </g>
    </g>
    <g id="line2d_16">
     <path d="M 687.971875 54.656562 
L 697.971875 54.656562 
L 707.971875 54.656562 
" style="fill: none; stroke: #008000; stroke-width: 1.5; stroke-linecap: square"/>
    </g>
    <g id="text_18">
     <!-- MS Intensity (normalized) -->
     <g transform="translate(715.971875 58.156562) scale(0.1 -0.1)">
      <use xlink:href="#DejaVuSans-4d"/>
      <use xlink:href="#DejaVuSans-53" transform="translate(86.279297 0)"/>
      <use xlink:href="#DejaVuSans-20" transform="translate(149.755859 0)"/>
      <use xlink:href="#DejaVuSans-49" transform="translate(181.542969 0)"/>
      <use xlink:href="#DejaVuSans-6e" transform="translate(211.035156 0)"/>
      <use xlink:href="#DejaVuSans-74" transform="translate(274.414062 0)"/>
      <use xlink:href="#DejaVuSans-65" transform="translate(313.623047 0)"/>
      <use xlink:href="#DejaVuSans-6e" transform="translate(375.146484 0)"/>
      <use xlink:href="#DejaVuSans-73" transform="translate(438.525391 0)"/>
      <use xlink:href="#DejaVuSans-69" transform="translate(490.625 0)"/>
      <use xlink:href="#DejaVuSans-74" transform="translate(518.408203 0)"/>
      <use xlink:href="#DejaVuSans-79" transform="translate(557.617188 0)"/>
      <use xlink:href="#DejaVuSans-20" transform="translate(616.796875 0)"/>
      <use xlink:href="#DejaVuSans-28" transform="translate(648.583984 0)"/>
      <use xlink:href="#DejaVuSans-6e" transform="translate(687.597656 0)"/>
      <use xlink:href="#DejaVuSans-6f" transform="translate(750.976562 0)"/>
      <use xlink:href="#DejaVuSans-72" transform="translate(812.158203 0)"/>
      <use xlink:href="#DejaVuSans-6d" transform="translate(851.521484 0)"/>
      <use xlink:href="#DejaVuSans-61" transform="translate(948.933594 0)"/>
      <use xlink:href="#DejaVuSans-6c" transform="translate(1010.212891 0)"/>
      <use xlink:href="#DejaVuSans-69" transform="translate(1037.996094 0)"/>
      <use xlink:href="#DejaVuSans-7a" transform="translate(1065.779297 0)"/>
      <use xlink:href="#DejaVuSans-65" transform="translate(1118.269531 0)"/>
      <use xlink:href="#DejaVuSans-64" transform="translate(1179.792969 0)"/>
      <use xlink:href="#DejaVuSans-29" transform="translate(1243.269531 0)"/>
     </g>
    </g>
   </g>
  </g>
 </g>
 <defs>
  <clipPath id="pb9ebacafa7">
   <rect x="47.72" y="26.88" width="805.48" height="507.16"/>
  </clipPath>
 </defs>
</svg>
