<?xml version="1.0" encoding="utf-8" standalone="no"?>
<!DOCTYPE svg PUBLIC "-//W3C//DTD SVG 1.1//EN"
  "http://www.w3.org/Graphics/SVG/1.1/DTD/svg11.dtd">
<svg xmlns:xlink="http://www.w3.org/1999/xlink" width="864pt" height="576pt" viewBox="0 0 864 576" xmlns="http://www.w3.org/2000/svg" version="1.1">
 <metadata>
  <rdf:RDF xmlns:dc="http://purl.org/dc/elements/1.1/" xmlns:cc="http://creativecommons.org/ns#" xmlns:rdf="http://www.w3.org/1999/02/22-rdf-syntax-ns#">
   <cc:Work>
    <dc:type rdf:resource="http://purl.org/dc/dcmitype/StillImage"/>
    <dc:date>2025-03-06T18:15:11.953099</dc:date>
    <dc:format>image/svg+xml</dc:format>
    <dc:creator>
     <cc:Agent>
      <dc:title>Matplotlib v3.10.0, https://matplotlib.org/</dc:title>
     </cc:Agent>
    </dc:creator>
   </cc:Work>
  </rdf:RDF>
 </metadata>
 <defs>
  <style type="text/css">*{stroke-linejoin: round; stroke-linecap: butt}</style>
 </defs>
 <g id="figure_1">
  <g id="patch_1">
   <path d="M 0 576 
L 864 576 
L 864 0 
L 0 0 
z
" style="fill: #ffffff"/>
  </g>
  <g id="axes_1">
   <g id="patch_2">
    <path d="M 47.72 534.04 
L 853.2 534.04 
L 853.2 26.88 
L 47.72 26.88 
z
" style="fill: #ffffff"/>
   </g>
   <g id="matplotlib.axis_1">
    <g id="xtick_1">
     <g id="line2d_1">
      <defs>
       <path id="m8ea2484576" d="M 0 0 
L 0 3.5 
" style="stroke: #000000; stroke-width: 0.8"/>
      </defs>
      <g>
       <use xlink:href="#m8ea2484576" x="83.095596" y="534.04" style="stroke: #000000; stroke-width: 0.8"/>
      </g>
     </g>
     <g id="text_1">
      <!-- 0 -->
      <g transform="translate(79.914346 548.638438) scale(0.1 -0.1)">
       <defs>
        <path id="DejaVuSans-30" d="M 2034 4250 
Q 1547 4250 1301 3770 
Q 1056 3291 1056 2328 
Q 1056 1369 1301 889 
Q 1547 409 2034 409 
Q 2525 409 2770 889 
Q 3016 1369 3016 2328 
Q 3016 3291 2770 3770 
Q 2525 4250 2034 4250 
z
M 2034 4750 
Q 2819 4750 3233 4129 
Q 3647 3509 3647 2328 
Q 3647 1150 3233 529 
Q 2819 -91 2034 -91 
Q 1250 -91 836 529 
Q 422 1150 422 2328 
Q 422 3509 836 4129 
Q 1250 4750 2034 4750 
z
" transform="scale(0.015625)"/>
       </defs>
       <use xlink:href="#DejaVuSans-30"/>
      </g>
     </g>
    </g>
    <g id="xtick_2">
     <g id="line2d_2">
      <g>
       <use xlink:href="#m8ea2484576" x="229.790997" y="534.04" style="stroke: #000000; stroke-width: 0.8"/>
      </g>
     </g>
     <g id="text_2">
      <!-- 1 -->
      <g transform="translate(226.609747 548.638438) scale(0.1 -0.1)">
       <defs>
        <path id="DejaVuSans-31" d="M 794 531 
L 1825 531 
L 1825 4091 
L 703 3866 
L 703 4441 
L 1819 4666 
L 2450 4666 
L 2450 531 
L 3481 531 
L 3481 0 
L 794 0 
L 794 531 
z
" transform="scale(0.015625)"/>
       </defs>
       <use xlink:href="#DejaVuSans-31"/>
      </g>
     </g>
    </g>
    <g id="xtick_3">
     <g id="line2d_3">
      <g>
       <use xlink:href="#m8ea2484576" x="376.486399" y="534.04" style="stroke: #000000; stroke-width: 0.8"/>
      </g>
     </g>
     <g id="text_3">
      <!-- 2 -->
      <g transform="translate(373.305149 548.638438) scale(0.1 -0.1)">
       <defs>
        <path id="DejaVuSans-32" d="M 1228 531 
L 3431 531 
L 3431 0 
L 469 0 
L 469 531 
Q 828 903 1448 1529 
Q 2069 2156 2228 2338 
Q 2531 2678 2651 2914 
Q 2772 3150 2772 3378 
Q 2772 3750 2511 3984 
Q 2250 4219 1831 4219 
Q 1534 4219 1204 4116 
Q 875 4013 500 3803 
L 500 4441 
Q 881 4594 1212 4672 
Q 1544 4750 1819 4750 
Q 2544 4750 2975 4387 
Q 3406 4025 3406 3419 
Q 3406 3131 3298 2873 
Q 3191 2616 2906 2266 
Q 2828 2175 2409 1742 
Q 1991 1309 1228 531 
z
" transform="scale(0.015625)"/>
       </defs>
       <use xlink:href="#DejaVuSans-32"/>
      </g>
     </g>
    </g>
    <g id="xtick_4">
     <g id="line2d_4">
      <g>
       <use xlink:href="#m8ea2484576" x="523.1818" y="534.04" style="stroke: #000000; stroke-width: 0.8"/>
      </g>
     </g>
     <g id="text_4">
      <!-- 3 -->
      <g transform="translate(520.00055 548.638438) scale(0.1 -0.1)">
       <defs>
        <path id="DejaVuSans-33" d="M 2597 2516 
Q 3050 2419 3304 2112 
Q 3559 1806 3559 1356 
Q 3559 666 3084 287 
Q 2609 -91 1734 -91 
Q 1441 -91 1130 -33 
Q 819 25 488 141 
L 488 750 
Q 750 597 1062 519 
Q 1375 441 1716 441 
Q 2309 441 2620 675 
Q 2931 909 2931 1356 
Q 2931 1769 2642 2001 
Q 2353 2234 1838 2234 
L 1294 2234 
L 1294 2753 
L 1863 2753 
Q 2328 2753 2575 2939 
Q 2822 3125 2822 3475 
Q 2822 3834 2567 4026 
Q 2313 4219 1838 4219 
Q 1578 4219 1281 4162 
Q 984 4106 628 3988 
L 628 4550 
Q 988 4650 1302 4700 
Q 1616 4750 1894 4750 
Q 2613 4750 3031 4423 
Q 3450 4097 3450 3541 
Q 3450 3153 3228 2886 
Q 3006 2619 2597 2516 
z
" transform="scale(0.015625)"/>
       </defs>
       <use xlink:href="#DejaVuSans-33"/>
      </g>
     </g>
    </g>
    <g id="xtick_5">
     <g id="line2d_5">
      <g>
       <use xlink:href="#m8ea2484576" x="669.877202" y="534.04" style="stroke: #000000; stroke-width: 0.8"/>
      </g>
     </g>
     <g id="text_5">
      <!-- 4 -->
      <g transform="translate(666.695952 548.638438) scale(0.1 -0.1)">
       <defs>
        <path id="DejaVuSans-34" d="M 2419 4116 
L 825 1625 
L 2419 1625 
L 2419 4116 
z
M 2253 4666 
L 3047 4666 
L 3047 1625 
L 3713 1625 
L 3713 1100 
L 3047 1100 
L 3047 0 
L 2419 0 
L 2419 1100 
L 313 1100 
L 313 1709 
L 2253 4666 
z
" transform="scale(0.015625)"/>
       </defs>
       <use xlink:href="#DejaVuSans-34"/>
      </g>
     </g>
    </g>
    <g id="xtick_6">
     <g id="line2d_6">
      <g>
       <use xlink:href="#m8ea2484576" x="816.572603" y="534.04" style="stroke: #000000; stroke-width: 0.8"/>
      </g>
     </g>
     <g id="text_6">
      <!-- 5 -->
      <g transform="translate(813.391353 548.638438) scale(0.1 -0.1)">
       <defs>
        <path id="DejaVuSans-35" d="M 691 4666 
L 3169 4666 
L 3169 4134 
L 1269 4134 
L 1269 2991 
Q 1406 3038 1543 3061 
Q 1681 3084 1819 3084 
Q 2600 3084 3056 2656 
Q 3513 2228 3513 1497 
Q 3513 744 3044 326 
Q 2575 -91 1722 -91 
Q 1428 -91 1123 -41 
Q 819 9 494 109 
L 494 744 
Q 775 591 1075 516 
Q 1375 441 1709 441 
Q 2250 441 2565 725 
Q 2881 1009 2881 1497 
Q 2881 1984 2565 2268 
Q 2250 2553 1709 2553 
Q 1456 2553 1204 2497 
Q 953 2441 691 2322 
L 691 4666 
z
" transform="scale(0.015625)"/>
       </defs>
       <use xlink:href="#DejaVuSans-35"/>
      </g>
     </g>
    </g>
    <g id="text_7">
     <!-- Retention Time (min) -->
     <g transform="translate(397.61 562.316562) scale(0.1 -0.1)">
      <defs>
       <path id="DejaVuSans-52" d="M 2841 2188 
Q 3044 2119 3236 1894 
Q 3428 1669 3622 1275 
L 4263 0 
L 3584 0 
L 2988 1197 
Q 2756 1666 2539 1819 
Q 2322 1972 1947 1972 
L 1259 1972 
L 1259 0 
L 628 0 
L 628 4666 
L 2053 4666 
Q 2853 4666 3247 4331 
Q 3641 3997 3641 3322 
Q 3641 2881 3436 2590 
Q 3231 2300 2841 2188 
z
M 1259 4147 
L 1259 2491 
L 2053 2491 
Q 2509 2491 2742 2702 
Q 2975 2913 2975 3322 
Q 2975 3731 2742 3939 
Q 2509 4147 2053 4147 
L 1259 4147 
z
" transform="scale(0.015625)"/>
       <path id="DejaVuSans-65" d="M 3597 1894 
L 3597 1613 
L 953 1613 
Q 991 1019 1311 708 
Q 1631 397 2203 397 
Q 2534 397 2845 478 
Q 3156 559 3463 722 
L 3463 178 
Q 3153 47 2828 -22 
Q 2503 -91 2169 -91 
Q 1331 -91 842 396 
Q 353 884 353 1716 
Q 353 2575 817 3079 
Q 1281 3584 2069 3584 
Q 2775 3584 3186 3129 
Q 3597 2675 3597 1894 
z
M 3022 2063 
Q 3016 2534 2758 2815 
Q 2500 3097 2075 3097 
Q 1594 3097 1305 2825 
Q 1016 2553 972 2059 
L 3022 2063 
z
" transform="scale(0.015625)"/>
       <path id="DejaVuSans-74" d="M 1172 4494 
L 1172 3500 
L 2356 3500 
L 2356 3053 
L 1172 3053 
L 1172 1153 
Q 1172 725 1289 603 
Q 1406 481 1766 481 
L 2356 481 
L 2356 0 
L 1766 0 
Q 1100 0 847 248 
Q 594 497 594 1153 
L 594 3053 
L 172 3053 
L 172 3500 
L 594 3500 
L 594 4494 
L 1172 4494 
z
" transform="scale(0.015625)"/>
       <path id="DejaVuSans-6e" d="M 3513 2113 
L 3513 0 
L 2938 0 
L 2938 2094 
Q 2938 2591 2744 2837 
Q 2550 3084 2163 3084 
Q 1697 3084 1428 2787 
Q 1159 2491 1159 1978 
L 1159 0 
L 581 0 
L 581 3500 
L 1159 3500 
L 1159 2956 
Q 1366 3272 1645 3428 
Q 1925 3584 2291 3584 
Q 2894 3584 3203 3211 
Q 3513 2838 3513 2113 
z
" transform="scale(0.015625)"/>
       <path id="DejaVuSans-69" d="M 603 3500 
L 1178 3500 
L 1178 0 
L 603 0 
L 603 3500 
z
M 603 4863 
L 1178 4863 
L 1178 4134 
L 603 4134 
L 603 4863 
z
" transform="scale(0.015625)"/>
       <path id="DejaVuSans-6f" d="M 1959 3097 
Q 1497 3097 1228 2736 
Q 959 2375 959 1747 
Q 959 1119 1226 758 
Q 1494 397 1959 397 
Q 2419 397 2687 759 
Q 2956 1122 2956 1747 
Q 2956 2369 2687 2733 
Q 2419 3097 1959 3097 
z
M 1959 3584 
Q 2709 3584 3137 3096 
Q 3566 2609 3566 1747 
Q 3566 888 3137 398 
Q 2709 -91 1959 -91 
Q 1206 -91 779 398 
Q 353 888 353 1747 
Q 353 2609 779 3096 
Q 1206 3584 1959 3584 
z
" transform="scale(0.015625)"/>
       <path id="DejaVuSans-20" transform="scale(0.015625)"/>
       <path id="DejaVuSans-54" d="M -19 4666 
L 3928 4666 
L 3928 4134 
L 2272 4134 
L 2272 0 
L 1638 0 
L 1638 4134 
L -19 4134 
L -19 4666 
z
" transform="scale(0.015625)"/>
       <path id="DejaVuSans-6d" d="M 3328 2828 
Q 3544 3216 3844 3400 
Q 4144 3584 4550 3584 
Q 5097 3584 5394 3201 
Q 5691 2819 5691 2113 
L 5691 0 
L 5113 0 
L 5113 2094 
Q 5113 2597 4934 2840 
Q 4756 3084 4391 3084 
Q 3944 3084 3684 2787 
Q 3425 2491 3425 1978 
L 3425 0 
L 2847 0 
L 2847 2094 
Q 2847 2600 2669 2842 
Q 2491 3084 2119 3084 
Q 1678 3084 1418 2786 
Q 1159 2488 1159 1978 
L 1159 0 
L 581 0 
L 581 3500 
L 1159 3500 
L 1159 2956 
Q 1356 3278 1631 3431 
Q 1906 3584 2284 3584 
Q 2666 3584 2933 3390 
Q 3200 3197 3328 2828 
z
" transform="scale(0.015625)"/>
       <path id="DejaVuSans-28" d="M 1984 4856 
Q 1566 4138 1362 3434 
Q 1159 2731 1159 2009 
Q 1159 1288 1364 580 
Q 1569 -128 1984 -844 
L 1484 -844 
Q 1016 -109 783 600 
Q 550 1309 550 2009 
Q 550 2706 781 3412 
Q 1013 4119 1484 4856 
L 1984 4856 
z
" transform="scale(0.015625)"/>
       <path id="DejaVuSans-29" d="M 513 4856 
L 1013 4856 
Q 1481 4119 1714 3412 
Q 1947 2706 1947 2009 
Q 1947 1309 1714 600 
Q 1481 -109 1013 -844 
L 513 -844 
Q 928 -128 1133 580 
Q 1338 1288 1338 2009 
Q 1338 2731 1133 3434 
Q 928 4138 513 4856 
z
" transform="scale(0.015625)"/>
      </defs>
      <use xlink:href="#DejaVuSans-52"/>
      <use xlink:href="#DejaVuSans-65" transform="translate(64.982422 0)"/>
      <use xlink:href="#DejaVuSans-74" transform="translate(126.505859 0)"/>
      <use xlink:href="#DejaVuSans-65" transform="translate(165.714844 0)"/>
      <use xlink:href="#DejaVuSans-6e" transform="translate(227.238281 0)"/>
      <use xlink:href="#DejaVuSans-74" transform="translate(290.617188 0)"/>
      <use xlink:href="#DejaVuSans-69" transform="translate(329.826172 0)"/>
      <use xlink:href="#DejaVuSans-6f" transform="translate(357.609375 0)"/>
      <use xlink:href="#DejaVuSans-6e" transform="translate(418.791016 0)"/>
      <use xlink:href="#DejaVuSans-20" transform="translate(482.169922 0)"/>
      <use xlink:href="#DejaVuSans-54" transform="translate(513.957031 0)"/>
      <use xlink:href="#DejaVuSans-69" transform="translate(571.916016 0)"/>
      <use xlink:href="#DejaVuSans-6d" transform="translate(599.699219 0)"/>
      <use xlink:href="#DejaVuSans-65" transform="translate(697.111328 0)"/>
      <use xlink:href="#DejaVuSans-20" transform="translate(758.634766 0)"/>
      <use xlink:href="#DejaVuSans-28" transform="translate(790.421875 0)"/>
      <use xlink:href="#DejaVuSans-6d" transform="translate(829.435547 0)"/>
      <use xlink:href="#DejaVuSans-69" transform="translate(926.847656 0)"/>
      <use xlink:href="#DejaVuSans-6e" transform="translate(954.630859 0)"/>
      <use xlink:href="#DejaVuSans-29" transform="translate(1018.009766 0)"/>
     </g>
    </g>
   </g>
   <g id="matplotlib.axis_2">
    <g id="ytick_1">
     <g id="line2d_7">
      <defs>
       <path id="m09fcf32c2b" d="M 0 0 
L -3.5 0 
" style="stroke: #000000; stroke-width: 0.8"/>
      </defs>
      <g>
       <use xlink:href="#m09fcf32c2b" x="47.72" y="510.931369" style="stroke: #000000; stroke-width: 0.8"/>
      </g>
     </g>
     <g id="text_8">
      <!-- 0.0 -->
      <g style="fill: #0000ff" transform="translate(24.816875 514.730588) scale(0.1 -0.1)">
       <defs>
        <path id="DejaVuSans-2e" d="M 684 794 
L 1344 794 
L 1344 0 
L 684 0 
L 684 794 
z
" transform="scale(0.015625)"/>
       </defs>
       <use xlink:href="#DejaVuSans-30"/>
       <use xlink:href="#DejaVuSans-2e" transform="translate(63.623047 0)"/>
       <use xlink:href="#DejaVuSans-30" transform="translate(95.410156 0)"/>
      </g>
     </g>
    </g>
    <g id="ytick_2">
     <g id="line2d_8">
      <g>
       <use xlink:href="#m09fcf32c2b" x="47.72" y="418.731641" style="stroke: #000000; stroke-width: 0.8"/>
      </g>
     </g>
     <g id="text_9">
      <!-- 0.5 -->
      <g style="fill: #0000ff" transform="translate(24.816875 422.530859) scale(0.1 -0.1)">
       <use xlink:href="#DejaVuSans-30"/>
       <use xlink:href="#DejaVuSans-2e" transform="translate(63.623047 0)"/>
       <use xlink:href="#DejaVuSans-35" transform="translate(95.410156 0)"/>
      </g>
     </g>
    </g>
    <g id="ytick_3">
     <g id="line2d_9">
      <g>
       <use xlink:href="#m09fcf32c2b" x="47.72" y="326.531912" style="stroke: #000000; stroke-width: 0.8"/>
      </g>
     </g>
     <g id="text_10">
      <!-- 1.0 -->
      <g style="fill: #0000ff" transform="translate(24.816875 330.331131) scale(0.1 -0.1)">
       <use xlink:href="#DejaVuSans-31"/>
       <use xlink:href="#DejaVuSans-2e" transform="translate(63.623047 0)"/>
       <use xlink:href="#DejaVuSans-30" transform="translate(95.410156 0)"/>
      </g>
     </g>
    </g>
    <g id="ytick_4">
     <g id="line2d_10">
      <g>
       <use xlink:href="#m09fcf32c2b" x="47.72" y="234.332184" style="stroke: #000000; stroke-width: 0.8"/>
      </g>
     </g>
     <g id="text_11">
      <!-- 1.5 -->
      <g style="fill: #0000ff" transform="translate(24.816875 238.131403) scale(0.1 -0.1)">
       <use xlink:href="#DejaVuSans-31"/>
       <use xlink:href="#DejaVuSans-2e" transform="translate(63.623047 0)"/>
       <use xlink:href="#DejaVuSans-35" transform="translate(95.410156 0)"/>
      </g>
     </g>
    </g>
    <g id="ytick_5">
     <g id="line2d_11">
      <g>
       <use xlink:href="#m09fcf32c2b" x="47.72" y="142.132456" style="stroke: #000000; stroke-width: 0.8"/>
      </g>
     </g>
     <g id="text_12">
      <!-- 2.0 -->
      <g style="fill: #0000ff" transform="translate(24.816875 145.931674) scale(0.1 -0.1)">
       <use xlink:href="#DejaVuSans-32"/>
       <use xlink:href="#DejaVuSans-2e" transform="translate(63.623047 0)"/>
       <use xlink:href="#DejaVuSans-30" transform="translate(95.410156 0)"/>
      </g>
     </g>
    </g>
    <g id="ytick_6">
     <g id="line2d_12">
      <g>
       <use xlink:href="#m09fcf32c2b" x="47.72" y="49.932727" style="stroke: #000000; stroke-width: 0.8"/>
      </g>
     </g>
     <g id="text_13">
      <!-- 2.5 -->
      <g style="fill: #0000ff" transform="translate(24.816875 53.731946) scale(0.1 -0.1)">
       <use xlink:href="#DejaVuSans-32"/>
       <use xlink:href="#DejaVuSans-2e" transform="translate(63.623047 0)"/>
       <use xlink:href="#DejaVuSans-35" transform="translate(95.410156 0)"/>
      </g>
     </g>
    </g>
    <g id="text_14">
     <!-- Normalized Intensity -->
     <g style="fill: #0000ff" transform="translate(18.737187 332.167031) rotate(-90) scale(0.1 -0.1)">
      <defs>
       <path id="DejaVuSans-4e" d="M 628 4666 
L 1478 4666 
L 3547 763 
L 3547 4666 
L 4159 4666 
L 4159 0 
L 3309 0 
L 1241 3903 
L 1241 0 
L 628 0 
L 628 4666 
z
" transform="scale(0.015625)"/>
       <path id="DejaVuSans-72" d="M 2631 2963 
Q 2534 3019 2420 3045 
Q 2306 3072 2169 3072 
Q 1681 3072 1420 2755 
Q 1159 2438 1159 1844 
L 1159 0 
L 581 0 
L 581 3500 
L 1159 3500 
L 1159 2956 
Q 1341 3275 1631 3429 
Q 1922 3584 2338 3584 
Q 2397 3584 2469 3576 
Q 2541 3569 2628 3553 
L 2631 2963 
z
" transform="scale(0.015625)"/>
       <path id="DejaVuSans-61" d="M 2194 1759 
Q 1497 1759 1228 1600 
Q 959 1441 959 1056 
Q 959 750 1161 570 
Q 1363 391 1709 391 
Q 2188 391 2477 730 
Q 2766 1069 2766 1631 
L 2766 1759 
L 2194 1759 
z
M 3341 1997 
L 3341 0 
L 2766 0 
L 2766 531 
Q 2569 213 2275 61 
Q 1981 -91 1556 -91 
Q 1019 -91 701 211 
Q 384 513 384 1019 
Q 384 1609 779 1909 
Q 1175 2209 1959 2209 
L 2766 2209 
L 2766 2266 
Q 2766 2663 2505 2880 
Q 2244 3097 1772 3097 
Q 1472 3097 1187 3025 
Q 903 2953 641 2809 
L 641 3341 
Q 956 3463 1253 3523 
Q 1550 3584 1831 3584 
Q 2591 3584 2966 3190 
Q 3341 2797 3341 1997 
z
" transform="scale(0.015625)"/>
       <path id="DejaVuSans-6c" d="M 603 4863 
L 1178 4863 
L 1178 0 
L 603 0 
L 603 4863 
z
" transform="scale(0.015625)"/>
       <path id="DejaVuSans-7a" d="M 353 3500 
L 3084 3500 
L 3084 2975 
L 922 459 
L 3084 459 
L 3084 0 
L 275 0 
L 275 525 
L 2438 3041 
L 353 3041 
L 353 3500 
z
" transform="scale(0.015625)"/>
       <path id="DejaVuSans-64" d="M 2906 2969 
L 2906 4863 
L 3481 4863 
L 3481 0 
L 2906 0 
L 2906 525 
Q 2725 213 2448 61 
Q 2172 -91 1784 -91 
Q 1150 -91 751 415 
Q 353 922 353 1747 
Q 353 2572 751 3078 
Q 1150 3584 1784 3584 
Q 2172 3584 2448 3432 
Q 2725 3281 2906 2969 
z
M 947 1747 
Q 947 1113 1208 752 
Q 1469 391 1925 391 
Q 2381 391 2643 752 
Q 2906 1113 2906 1747 
Q 2906 2381 2643 2742 
Q 2381 3103 1925 3103 
Q 1469 3103 1208 2742 
Q 947 2381 947 1747 
z
" transform="scale(0.015625)"/>
       <path id="DejaVuSans-49" d="M 628 4666 
L 1259 4666 
L 1259 0 
L 628 0 
L 628 4666 
z
" transform="scale(0.015625)"/>
       <path id="DejaVuSans-73" d="M 2834 3397 
L 2834 2853 
Q 2591 2978 2328 3040 
Q 2066 3103 1784 3103 
Q 1356 3103 1142 2972 
Q 928 2841 928 2578 
Q 928 2378 1081 2264 
Q 1234 2150 1697 2047 
L 1894 2003 
Q 2506 1872 2764 1633 
Q 3022 1394 3022 966 
Q 3022 478 2636 193 
Q 2250 -91 1575 -91 
Q 1294 -91 989 -36 
Q 684 19 347 128 
L 347 722 
Q 666 556 975 473 
Q 1284 391 1588 391 
Q 1994 391 2212 530 
Q 2431 669 2431 922 
Q 2431 1156 2273 1281 
Q 2116 1406 1581 1522 
L 1381 1569 
Q 847 1681 609 1914 
Q 372 2147 372 2553 
Q 372 3047 722 3315 
Q 1072 3584 1716 3584 
Q 2034 3584 2315 3537 
Q 2597 3491 2834 3397 
z
" transform="scale(0.015625)"/>
       <path id="DejaVuSans-79" d="M 2059 -325 
Q 1816 -950 1584 -1140 
Q 1353 -1331 966 -1331 
L 506 -1331 
L 506 -850 
L 844 -850 
Q 1081 -850 1212 -737 
Q 1344 -625 1503 -206 
L 1606 56 
L 191 3500 
L 800 3500 
L 1894 763 
L 2988 3500 
L 3597 3500 
L 2059 -325 
z
" transform="scale(0.015625)"/>
      </defs>
      <use xlink:href="#DejaVuSans-4e"/>
      <use xlink:href="#DejaVuSans-6f" transform="translate(74.804688 0)"/>
      <use xlink:href="#DejaVuSans-72" transform="translate(135.986328 0)"/>
      <use xlink:href="#DejaVuSans-6d" transform="translate(175.349609 0)"/>
      <use xlink:href="#DejaVuSans-61" transform="translate(272.761719 0)"/>
      <use xlink:href="#DejaVuSans-6c" transform="translate(334.041016 0)"/>
      <use xlink:href="#DejaVuSans-69" transform="translate(361.824219 0)"/>
      <use xlink:href="#DejaVuSans-7a" transform="translate(389.607422 0)"/>
      <use xlink:href="#DejaVuSans-65" transform="translate(442.097656 0)"/>
      <use xlink:href="#DejaVuSans-64" transform="translate(503.621094 0)"/>
      <use xlink:href="#DejaVuSans-20" transform="translate(567.097656 0)"/>
      <use xlink:href="#DejaVuSans-49" transform="translate(598.884766 0)"/>
      <use xlink:href="#DejaVuSans-6e" transform="translate(628.376953 0)"/>
      <use xlink:href="#DejaVuSans-74" transform="translate(691.755859 0)"/>
      <use xlink:href="#DejaVuSans-65" transform="translate(730.964844 0)"/>
      <use xlink:href="#DejaVuSans-6e" transform="translate(792.488281 0)"/>
      <use xlink:href="#DejaVuSans-73" transform="translate(855.867188 0)"/>
      <use xlink:href="#DejaVuSans-69" transform="translate(907.966797 0)"/>
      <use xlink:href="#DejaVuSans-74" transform="translate(935.75 0)"/>
      <use xlink:href="#DejaVuSans-79" transform="translate(974.958984 0)"/>
     </g>
    </g>
   </g>
   <g id="line2d_13">
    <path d="M 84.332727 510.931369 
L 162.570275 510.830969 
L 163.792736 510.707119 
L 165.015198 510.446558 
L 168.682583 509.260577 
L 169.905045 509.16982 
L 171.127506 509.331835 
L 174.794891 510.240294 
L 176.017353 510.357401 
L 180.9072 510.261155 
L 187.019508 510.974283 
L 193.131817 510.931066 
L 198.021663 510.850014 
L 205.356433 510.520672 
L 213.913665 510.37187 
L 222.470897 510.840114 
L 224.91582 510.807685 
L 226.138282 510.599216 
L 227.360744 510.125375 
L 228.583205 509.355627 
L 231.028129 507.546464 
L 232.25059 506.982251 
L 233.473052 506.822449 
L 234.695514 507.021856 
L 237.140437 507.976169 
L 239.58536 508.951831 
L 242.030284 509.627496 
L 244.475207 510.021422 
L 248.142592 510.282221 
L 255.477362 510.420612 
L 275.036749 510.459794 
L 283.593981 510.292913 
L 289.706289 510.241822 
L 304.375829 510.350629 
L 309.265676 510.303341 
L 311.710599 510.077071 
L 316.600446 509.221471 
L 317.822908 509.192178 
L 320.267831 509.465636 
L 323.935216 510.000475 
L 327.602601 510.198967 
L 334.937371 510.239302 
L 339.827218 510.18063 
L 344.717065 509.664393 
L 349.606912 509.739722 
L 350.829373 509.182144 
L 352.051835 507.80476 
L 353.274297 505.12876 
L 354.496758 500.733803 
L 355.71922 494.40142 
L 356.941682 486.173983 
L 358.164143 476.36063 
L 361.831528 444.220396 
L 363.05399 435.615822 
L 364.276452 429.432085 
L 365.498913 426.09323 
L 366.721375 425.662223 
L 367.943837 427.877805 
L 369.166298 432.247017 
L 370.38876 438.160573 
L 372.833683 452.213031 
L 375.278607 466.11264 
L 376.501068 472.269114 
L 377.72353 477.717269 
L 378.945992 482.425234 
L 380.168453 486.419369 
L 381.390915 489.762533 
L 382.613377 492.532726 
L 383.835839 494.809372 
L 385.0583 496.670315 
L 386.280762 498.192647 
L 387.503224 499.447811 
L 388.725685 500.492573 
L 389.948147 501.363982 
L 391.170609 502.077974 
L 392.39307 502.631934 
L 393.615532 503.025831 
L 402.172764 504.876183 
L 408.285072 505.758162 
L 410.729995 505.988296 
L 411.952457 505.967538 
L 413.174919 505.722992 
L 414.39738 505.207732 
L 416.842304 503.962392 
L 420.509689 502.642766 
L 421.732151 501.640182 
L 422.954612 500.181203 
L 425.399536 496.940387 
L 426.621997 495.894728 
L 427.844459 495.557935 
L 429.066921 495.689034 
L 430.289382 494.363871 
L 431.511844 486.292354 
L 432.734306 464.804176 
L 433.956767 429.176163 
L 435.179229 389.568721 
L 436.401691 361.760731 
L 437.624152 356.194619 
L 438.846614 372.0675 
L 442.513999 454.613186 
L 443.736461 471.671605 
L 444.958922 482.217723 
L 446.181384 488.379952 
L 447.403846 492.049787 
L 448.626307 494.417201 
L 449.848769 496.08219 
L 451.071231 497.335135 
L 453.516154 499.240605 
L 455.961078 500.780212 
L 457.183539 501.402376 
L 458.406001 501.892121 
L 459.628463 502.19683 
L 460.850924 502.181989 
L 462.073386 501.656031 
L 463.295848 500.571385 
L 464.518309 499.214328 
L 465.740771 498.101637 
L 466.963233 497.652944 
L 468.185694 497.956765 
L 469.408156 498.789523 
L 471.853079 500.752874 
L 473.075541 501.50457 
L 474.298003 502.005292 
L 475.520464 502.152231 
L 476.742926 501.846179 
L 480.410311 499.71395 
L 481.632773 499.581681 
L 482.855234 499.836396 
L 484.077696 499.784234 
L 485.300158 498.161091 
L 486.52262 494.165088 
L 487.745081 488.690007 
L 488.967543 483.936087 
L 490.190005 481.687091 
L 491.412466 482.322614 
L 492.634928 485.148155 
L 495.079851 493.103957 
L 496.302313 496.536498 
L 497.524775 499.098903 
L 498.747236 500.832626 
L 499.969698 501.924658 
L 501.19216 502.558752 
L 502.414621 502.873926 
L 507.304468 503.477239 
L 510.971853 504.248497 
L 512.194315 504.340128 
L 514.639238 504.213231 
L 517.084161 504.00108 
L 520.751547 503.987335 
L 523.19647 503.97047 
L 524.418932 503.880871 
L 525.641393 503.621757 
L 526.863855 502.996483 
L 528.086317 501.882144 
L 529.308778 500.502522 
L 530.53124 499.413376 
L 531.753702 499.100745 
L 532.976163 499.628694 
L 536.643548 502.732189 
L 537.86601 503.353393 
L 539.088472 503.688886 
L 540.310933 503.788034 
L 545.20078 503.48223 
L 547.645703 503.915653 
L 550.090627 504.263838 
L 551.313088 504.228626 
L 552.53555 504.032908 
L 553.758012 503.699895 
L 554.980474 503.220042 
L 556.202935 502.547081 
L 558.647859 501.026054 
L 559.87032 500.719382 
L 561.092782 500.911274 
L 564.760167 502.571207 
L 565.982629 502.911244 
L 568.427552 503.269848 
L 572.094937 503.551562 
L 573.317399 503.498412 
L 574.53986 503.166546 
L 575.762322 502.424442 
L 578.207245 500.462467 
L 579.429707 499.990263 
L 580.652169 500.045498 
L 583.097092 500.946691 
L 585.542015 501.800741 
L 587.986939 502.296272 
L 589.209401 502.351864 
L 590.431862 502.199176 
L 591.654324 501.812953 
L 594.099247 500.74402 
L 595.321709 500.349599 
L 597.766632 499.915493 
L 601.434017 499.255496 
L 602.656479 499.019264 
L 603.878941 498.456804 
L 605.101402 495.859493 
L 606.323864 487.615163 
L 607.546326 471.025729 
L 608.768787 449.068412 
L 609.991249 430.424916 
L 611.213711 423.100771 
L 612.436172 428.633689 
L 613.658634 442.365648 
L 614.881096 457.750241 
L 616.103557 470.104488 
L 617.326019 477.748109 
L 618.548481 481.155266 
L 619.770942 481.555183 
L 620.993404 479.733382 
L 622.215866 474.842402 
L 623.438328 463.446067 
L 624.660789 440.78234 
L 625.883251 405.74474 
L 627.105713 365.88693 
L 628.328174 335.518542 
L 629.550636 326.531912 
L 630.773098 340.592391 
L 631.995559 369.680155 
L 633.218021 402.697725 
L 634.440483 431.488769 
L 635.662944 452.805381 
L 636.885406 467.097051 
L 638.107868 476.382838 
L 639.330329 482.682138 
L 640.552791 487.354073 
L 641.775253 491.065544 
L 642.997714 494.014883 
L 644.220176 496.201949 
L 645.442638 497.649321 
L 646.665099 498.510188 
L 650.332484 500.184126 
L 653.999869 502.309779 
L 655.222331 502.769768 
L 656.444793 503.061443 
L 658.889716 503.331951 
L 665.002025 503.752547 
L 668.66941 503.547341 
L 671.114333 503.767696 
L 673.559256 504.255841 
L 678.449103 505.342838 
L 680.894026 505.593909 
L 684.561411 505.685521 
L 689.451258 505.636248 
L 694.341105 505.640762 
L 700.453413 505.456725 
L 702.898337 505.133628 
L 705.34326 504.354875 
L 706.565722 503.950278 
L 707.788183 503.711206 
L 710.233107 503.705308 
L 712.67803 503.861769 
L 715.122953 504.280396 
L 718.790338 505.098282 
L 720.0128 505.19508 
L 721.235262 505.15544 
L 726.125109 504.572685 
L 728.570032 504.893369 
L 731.014955 505.325352 
L 732.237417 505.39245 
L 733.459879 505.297889 
L 737.127264 504.730887 
L 738.349725 504.770023 
L 744.462034 505.557623 
L 746.906957 505.606239 
L 748.129419 505.508555 
L 749.35188 505.203161 
L 750.574342 504.617308 
L 753.019265 503.161769 
L 754.241727 502.848882 
L 755.464189 502.997508 
L 759.131574 504.471358 
L 760.354036 504.693592 
L 761.576497 504.708554 
L 766.466344 504.238659 
L 768.911267 504.611094 
L 771.356191 505.098315 
L 772.578652 505.205017 
L 773.801114 505.150845 
L 776.246037 504.60924 
L 777.468499 504.338774 
L 778.690961 504.245225 
L 779.913422 504.360247 
L 784.803269 505.270068 
L 787.248192 505.313002 
L 792.138039 505.03906 
L 794.582963 505.226002 
L 797.027886 505.445218 
L 799.472809 505.420696 
L 801.917733 505.184016 
L 804.362656 504.696366 
L 808.030041 503.396421 
L 809.252503 503.199752 
L 810.474964 503.225042 
L 814.142349 503.835774 
L 816.587273 504.192732 
L 816.587273 504.192732 
" clip-path="url(#pac9ec359fc)" style="fill: none; stroke: #0000ff; stroke-width: 1.5; stroke-linecap: square"/>
   </g>
   <g id="line2d_14">
    <path d="M 89.479046 234.328837 
L 89.479046 234.324641 
L 120.214422 234.326718 
L 433.833054 234.310873 
L 433.833054 234.307538 
L 434.818114 234.199142 
L 434.818114 234.090835 
L 436.132994 233.725068 
L 436.459391 233.849687 
L 436.459391 233.812179 
L 438.41753 233.743846 
L 438.41753 233.688033 
L 438.743683 233.689236 
L 438.743683 233.810451 
L 439.07008 233.903848 
L 439.07008 233.76712 
L 439.396233 233.839948 
L 439.396233 233.772436 
L 440.706712 233.743058 
L 441.032865 233.850327 
L 441.032865 233.642425 
L 441.685659 233.76528 
L 441.685659 233.581045 
L 442.012056 233.758097 
L 442.012056 233.611794 
L 442.338454 233.807617 
L 442.338454 233.62657 
L 442.991493 233.777191 
L 442.991493 233.660458 
L 443.318134 233.820663 
L 443.318134 233.795638 
L 443.644532 233.826027 
L 443.644532 233.677871 
L 444.298304 233.319077 
L 444.957944 233.33507 
L 445.284586 233.574542 
L 446.264512 233.469854 
L 446.264512 233.509633 
L 446.264512 233.468521 
L 446.591398 233.667714 
L 446.591398 233.663682 
L 446.91804 233.580126 
L 447.244926 233.691718 
L 447.244926 233.445669 
L 447.573279 233.582322 
L 447.573279 233.409166 
L 447.90041 233.532642 
L 447.90041 233.352883 
L 448.884736 233.492588 
L 448.884736 233.483171 
L 449.871751 233.398944 
L 450.199127 233.579059 
L 450.199127 233.321672 
L 450.853633 233.434426 
L 450.853633 233.529412 
L 451.181008 233.483155 
L 451.181008 233.541483 
L 451.508628 233.660301 
L 451.508628 233.48578 
L 452.163378 233.686091 
L 452.163378 233.554096 
L 452.490998 233.755939 
L 452.490998 233.580591 
L 453.146237 233.850933 
L 453.146237 233.664951 
L 453.474102 233.81541 
L 453.474102 233.690417 
L 453.801721 233.755531 
L 453.801721 233.59299 
L 454.129341 233.778611 
L 454.129341 233.637703 
L 454.790448 233.820048 
L 454.790448 233.673441 
L 455.118312 233.816273 
L 455.118312 233.667876 
L 455.118312 233.79392 
L 455.446177 233.591488 
L 456.758612 233.777475 
L 457.09161 233.883673 
L 457.09161 233.753753 
L 457.419719 233.761658 
L 457.748072 233.624442 
L 458.076181 233.701584 
L 458.076181 233.569445 
L 458.733865 233.887756 
L 458.733865 233.850627 
L 470.630862 234.192329 
L 470.630862 234.175669 
L 473.282871 234.114894 
L 473.282871 234.15305 
L 480.960419 234.164289 
L 481.621037 234.159725 
L 481.621037 234.172029 
L 484.264488 234.212036 
L 484.264488 234.186439 
L 487.588362 234.22845 
L 488.917911 234.235664 
L 525.645794 234.241619 
L 527.348928 234.23263 
L 527.348928 234.217232 
L 527.348928 234.227151 
L 575.817333 234.194702 
L 576.834176 234.181004 
L 580.171008 234.255815 
L 580.171008 234.229403 
L 583.469698 234.26781 
L 591.127687 234.102844 
L 592.46286 234.040644 
L 592.46286 234.083728 
L 593.800722 234.17529 
L 593.800722 234.142931 
L 598.131904 234.160736 
L 599.128699 234.113382 
L 599.128699 234.149825 
L 600.797115 234.196972 
L 600.797115 234.196886 
L 601.467024 234.149776 
L 607.11064 234.00448 
L 607.11064 233.822732 
L 607.441194 233.769719 
L 607.441194 233.522707 
L 607.773215 233.477426 
L 607.773215 232.832903 
L 608.103279 232.836238 
L 608.103279 231.604822 
L 608.433099 231.367644 
L 608.433099 228.970173 
L 608.763409 228.326988 
L 608.763409 223.502851 
L 609.093229 221.761747 
L 609.093229 215.076016 
L 609.422315 213.69246 
L 609.422315 203.876365 
L 609.751158 202.602157 
L 609.751158 188.260322 
L 610.078288 188.445877 
L 610.078288 168.845817 
L 610.413976 171.079582 
L 610.413976 149.225204 
L 610.740618 157.822579 
L 610.740618 132.311212 
L 611.067015 143.671836 
L 611.067015 115.691851 
L 611.393413 130.421465 
L 611.393413 94.08901 
L 611.719565 111.671227 
L 611.719565 81.460455 
L 612.045963 108.462815 
L 612.045963 69.414725 
L 612.37236 101.090637 
L 612.37236 66.306571 
L 612.698513 91.624156 
L 612.698513 49.932727 
L 613.024665 87.525011 
L 613.024665 55.072369 
L 613.351063 94.468144 
L 613.351063 63.649053 
L 613.677216 100.487185 
L 613.677216 77.806842 
L 614.003613 109.619502 
L 614.003613 80.680547 
L 614.329766 114.886673 
L 614.329766 90.985841 
L 614.656163 116.840137 
L 614.656163 96.232769 
L 614.982316 127.461403 
L 614.982316 103.33325 
L 615.314092 131.496856 
L 615.314092 110.945849 
L 615.640733 138.845924 
L 615.640733 115.062937 
L 615.967131 144.682299 
L 615.967131 128.70568 
L 616.293772 152.058398 
L 616.293772 131.546413 
L 616.62017 157.504733 
L 616.62017 141.15562 
L 616.946812 161.99883 
L 616.946812 148.218664 
L 617.274676 167.91434 
L 617.274676 154.090551 
L 617.601562 172.589597 
L 617.601562 156.478005 
L 617.928204 174.218546 
L 617.928204 160.433208 
L 618.25509 175.940116 
L 618.25509 161.920365 
L 618.581732 179.63115 
L 618.581732 165.929985 
L 618.908618 183.28415 
L 618.908618 170.537521 
L 619.23526 185.591865 
L 619.23526 173.609883 
L 619.561902 187.106638 
L 619.561902 175.351664 
L 619.888788 187.813972 
L 619.888788 177.484653 
L 620.221053 188.636085 
L 620.221053 178.872193 
L 620.548184 190.160149 
L 620.548184 180.939193 
L 620.875314 192.351169 
L 620.875314 182.821955 
L 621.202445 193.244374 
L 621.202445 185.697552 
L 621.534221 195.69772 
L 621.534221 188.58859 
L 621.861107 198.943988 
L 621.861107 191.306357 
L 622.188483 200.395741 
L 622.188483 191.536085 
L 622.515858 199.817901 
L 622.515858 194.530988 
L 622.842989 203.969792 
L 622.842989 197.48815 
L 623.170364 207.829895 
L 623.170364 200.070363 
L 623.497739 206.569592 
L 623.497739 200.027406 
L 623.825359 206.455053 
L 623.825359 199.992719 
L 624.152734 208.280252 
L 624.152734 203.06629 
L 624.480109 209.88702 
L 624.480109 205.870967 
L 624.808952 212.556879 
L 624.808952 206.955951 
L 625.141706 213.23453 
L 625.141706 207.390391 
L 625.469325 206.534917 
L 625.79719 206.761817 
L 625.79719 207.588103 
L 626.124565 207.013494 
L 626.124565 208.632452 
L 626.45194 215.257042 
L 626.45194 210.299999 
L 626.779315 215.125878 
L 626.779315 211.288599 
L 627.106691 216.644852 
L 627.106691 211.839609 
L 627.433577 216.851771 
L 627.433577 212.864494 
L 627.760708 217.028204 
L 627.760708 212.90794 
L 628.087594 217.83303 
L 628.087594 213.610531 
L 628.41448 218.305548 
L 628.41448 215.415945 
L 628.741611 219.047837 
L 628.741611 214.431706 
L 629.068253 219.097382 
L 629.068253 215.211981 
L 629.395139 218.804293 
L 629.395139 215.140396 
L 629.721781 219.776828 
L 629.721781 215.579124 
L 630.053801 219.790499 
L 630.053801 216.130356 
L 630.385088 220.204761 
L 630.385088 216.666269 
L 630.71173 220.777733 
L 630.71173 217.354094 
L 631.038372 220.992617 
L 631.038372 218.599078 
L 631.365014 222.07488 
L 631.365014 219.111987 
L 631.691655 222.723104 
L 631.691655 220.734334 
L 632.018053 223.314277 
L 632.018053 221.588876 
L 632.344694 225.28164 
L 632.344694 222.849574 
L 632.671336 225.5564 
L 632.671336 223.657776 
L 632.998222 225.914306 
L 632.998222 223.473777 
L 633.324864 226.19743 
L 633.324864 224.079786 
L 633.651506 226.611801 
L 633.651506 224.687426 
L 633.978148 227.030575 
L 633.978148 225.466395 
L 634.304789 227.474265 
L 634.304789 225.555725 
L 634.631676 227.533187 
L 634.631676 225.646367 
L 634.963452 227.477958 
L 634.963452 226.535222 
L 635.290338 228.496573 
L 635.290338 226.90159 
L 635.617224 228.951291 
L 635.617224 227.265541 
L 636.270752 227.275746 
L 636.270752 227.464522 
L 636.597639 227.598755 
L 636.597639 227.800685 
L 636.92428 229.116205 
L 636.92428 227.760785 
L 637.251411 229.263952 
L 637.251411 228.215423 
L 637.578297 229.703528 
L 637.578297 228.47468 
L 637.905184 230.011538 
L 637.905184 228.916963 
L 638.23207 229.948777 
L 638.23207 228.992547 
L 638.559201 230.19807 
L 638.559201 228.868873 
L 638.890977 230.165223 
L 638.890977 229.036587 
L 639.218107 229.922652 
L 639.218107 228.935195 
L 639.545238 230.223052 
L 639.545238 229.092647 
L 639.878726 230.335531 
L 639.878726 229.463878 
L 640.205856 230.405493 
L 640.205856 229.456222 
L 640.205856 230.324214 
L 640.533232 230.089201 
L 640.860607 230.146112 
L 641.188227 229.479687 
L 641.515602 229.64725 
L 641.515602 229.953556 
L 641.842977 229.889873 
L 641.842977 229.958344 
L 642.170352 230.831302 
L 642.170352 229.811691 
L 642.497728 230.509279 
L 642.497728 229.75965 
L 642.826814 230.684141 
L 642.826814 229.776453 
L 643.154189 230.822009 
L 643.154189 230.067435 
L 643.481809 230.897883 
L 643.481809 230.218283 
L 643.809429 231.226981 
L 643.809429 230.469742 
L 644.137049 231.410847 
L 644.137049 230.825437 
L 644.464913 231.47329 
L 644.464913 230.825877 
L 644.797911 231.672811 
L 644.797911 230.851307 
L 645.125776 231.58011 
L 645.125776 231.031457 
L 645.45364 231.764215 
L 645.45364 230.903783 
L 645.783949 231.694426 
L 645.783949 230.928515 
L 646.112302 231.591352 
L 646.112302 230.905387 
L 646.440411 231.733372 
L 646.440411 231.193859 
L 646.76852 231.924664 
L 646.76852 231.399852 
L 647.096384 232.105197 
L 647.096384 231.414683 
L 647.424982 231.922242 
L 647.424982 231.349413 
L 647.753579 231.943627 
L 647.753579 231.542436 
L 648.081688 232.289503 
L 648.081688 231.943812 
L 648.410041 232.537031 
L 648.410041 231.912267 
L 648.738394 232.161742 
L 648.738394 231.751366 
L 649.071148 232.185487 
L 649.071148 231.619863 
L 649.400235 232.264194 
L 649.400235 231.91089 
L 649.734212 232.363445 
L 649.734212 231.895218 
L 650.062809 232.493559 
L 650.062809 231.919146 
L 650.391896 232.48991 
L 650.391896 231.945051 
L 651.049825 231.953738 
L 651.049825 232.08565 
L 651.378667 232.129018 
L 651.707998 232.553971 
L 651.707998 232.043135 
L 652.036596 232.473003 
L 652.036596 232.032083 
L 652.694769 232.027983 
L 652.694769 232.074268 
L 653.024345 232.091299 
L 653.024345 232.08641 
L 653.353676 232.648668 
L 653.353676 232.300954 
L 654.012094 232.319881 
L 654.012094 232.2976 
L 654.342159 232.215064 
L 654.342159 232.230577 
L 654.677847 232.731213 
L 654.677847 232.305947 
L 655.007178 232.783936 
L 655.007178 232.29082 
L 655.337976 232.613902 
L 655.337976 232.259901 
L 655.668041 232.697308 
L 655.668041 232.374762 
L 655.998594 232.918274 
L 655.998594 232.595938 
L 656.328659 232.911264 
L 656.328659 232.486165 
L 656.659702 232.846689 
L 656.659702 232.463144 
L 656.989522 232.841121 
L 656.989522 232.537475 
L 657.319586 232.984488 
L 657.319586 232.598751 
L 657.654541 232.97609 
L 657.654541 232.613197 
L 657.985828 232.856198 
L 657.985828 232.555121 
L 658.316137 232.949757 
L 658.316137 232.602754 
L 658.646691 232.988121 
L 658.646691 232.782332 
L 658.977978 233.056158 
L 658.977978 232.740093 
L 658.977978 232.974468 
L 660.310217 232.954161 
L 660.310217 232.945009 
L 660.641504 232.687009 
L 660.97328 232.812122 
L 661.304567 232.892552 
L 661.635365 233.291957 
L 661.635365 232.913658 
L 661.967386 233.159328 
L 661.967386 232.88804 
L 662.298428 233.159626 
L 662.298428 232.718412 
L 662.630449 233.108293 
L 662.630449 232.888274 
L 662.961492 233.145789 
L 662.961492 232.869415 
L 663.293268 233.293321 
L 663.293268 232.992866 
L 663.626511 233.234526 
L 663.626511 232.961028 
L 663.959754 233.243078 
L 663.959754 232.998102 
L 664.292997 233.266641 
L 664.292997 233.013345 
L 664.631863 233.320172 
L 664.631863 233.095138 
L 664.967062 233.32503 
L 664.967062 233.112691 
L 665.299572 233.379731 
L 665.299572 233.076548 
L 665.632326 233.349392 
L 665.632326 233.112426 
L 665.966058 233.32791 
L 665.966058 233.079393 
L 666.301012 233.360515 
L 666.301012 233.129319 
L 666.632544 233.392097 
L 666.632544 233.159226 
L 666.970432 233.416138 
L 666.970432 233.144863 
L 667.305631 233.366453 
L 667.305631 233.180857 
L 667.639852 233.435314 
L 667.639852 233.161171 
L 667.973829 233.466919 
L 667.973829 233.262808 
L 668.307561 233.477986 
L 668.307561 233.201112 
L 668.643004 233.489979 
L 668.643004 233.181347 
L 668.97967 233.359393 
L 668.97967 233.047675 
L 669.31438 233.346259 
L 669.31438 233.086767 
L 669.65398 233.362818 
L 669.65398 233.192343 
L 669.989179 233.473495 
L 669.989179 233.251223 
L 670.322911 233.463315 
L 670.322911 233.257755 
L 670.656888 233.438513 
L 670.656888 233.246786 
L 671.658573 233.305764 
L 671.658573 233.343866 
L 671.994016 233.574419 
L 671.994016 233.347491 
L 672.327504 233.616065 
L 672.327504 233.344163 
L 672.663436 233.518583 
L 672.663436 233.321717 
L 672.997168 233.516264 
L 672.997168 233.280628 
L 673.33359 233.482873 
L 673.33359 233.366735 
L 673.6705 233.535001 
L 673.6705 233.402647 
L 674.006188 233.57664 
L 674.006188 233.491585 
L 674.684166 233.657299 
L 674.684166 233.504121 
L 675.019365 233.673995 
L 675.019365 233.449661 
L 675.354808 233.601698 
L 675.354808 233.403061 
L 675.698809 233.601525 
L 675.698809 233.384586 
L 676.034008 233.598925 
L 676.034008 233.43989 
L 676.370674 233.628267 
L 676.370674 233.447795 
L 676.705628 233.657553 
L 676.705628 233.512415 
L 677.717582 233.531924 
L 677.717582 233.552335 
L 678.057426 233.717701 
L 678.057426 233.56714 
L 678.397271 233.743857 
L 678.397271 233.572152 
L 678.73467 233.71883 
L 678.73467 233.465553 
L 679.073781 233.610111 
L 679.073781 233.477718 
L 679.409469 233.633799 
L 679.409469 233.425058 
L 679.751269 233.668298 
L 679.751269 233.544629 
L 680.42778 233.794281 
L 680.42778 233.621369 
L 680.768113 233.567426 
L 681.104779 233.36202 
L 681.780067 233.320732 
L 681.780067 233.359529 
L 682.456821 233.597919 
L 684.153109 233.778651 
L 684.153109 233.647237 
L 684.490509 233.826053 
L 684.490509 233.650972 
L 684.835487 233.721266 
L 684.835487 233.605012 
L 685.173376 233.730503 
L 685.173376 233.552319 
L 685.511264 233.729772 
L 685.511264 233.655772 
L 685.851597 233.624083 
L 686.188997 233.82172 
L 686.188997 233.671933 
L 686.865018 233.844024 
L 686.865018 233.649784 
L 687.206574 233.801465 
L 687.206574 233.629023 
L 687.887485 233.817588 
L 687.887485 233.664868 
L 688.225863 233.805067 
L 688.225863 233.674592 
L 688.565218 233.78397 
L 688.565218 233.662034 
L 688.903106 233.812662 
L 688.903106 233.694155 
L 689.24344 233.807009 
L 689.24344 233.686575 
L 689.582062 233.805292 
L 689.582062 233.663185 
L 689.925573 233.775731 
L 689.925573 233.622027 
L 690.604773 233.792149 
L 690.604773 233.672661 
L 690.949752 233.853868 
L 690.949752 233.7207 
L 691.289352 233.836465 
L 691.289352 233.657317 
L 691.62944 233.80944 
L 691.62944 233.681594 
L 692.31133 233.932159 
L 692.31133 233.782117 
L 692.649707 233.902173 
L 692.649707 233.751495 
L 692.99004 233.842306 
L 692.99004 233.694837 
L 694.349662 233.80336 
L 694.349662 233.705392 
L 694.689751 233.706569 
L 694.689751 233.706295 
L 695.035463 233.867756 
L 695.035463 233.784686 
L 696.056708 233.710654 
L 696.737619 233.887187 
L 696.737619 233.818754 
L 697.077708 233.935357 
L 697.077708 233.777014 
L 697.765465 233.878183 
L 697.765465 233.713064 
L 698.105553 233.865604 
L 698.105553 233.731156 
L 698.446131 233.853773 
L 698.446131 233.703713 
L 698.446131 233.844206 
L 699.806976 233.915389 
L 699.806976 233.770481 
L 700.152443 233.86098 
L 700.152443 233.713733 
L 700.832865 233.88111 
L 700.832865 233.81488 
L 701.853376 233.693907 
L 702.19371 233.868666 
L 702.19371 233.742089 
L 702.535266 233.882409 
L 702.535266 233.753336 
L 702.875599 233.871707 
L 702.875599 233.785301 
L 703.215932 233.704588 
L 703.556265 233.831859 
L 703.556265 233.753353 
L 704.917354 233.945186 
L 704.917354 233.836271 
L 705.263066 233.925745 
L 705.263066 233.811213 
L 706.623911 233.842713 
L 707.992579 233.956854 
L 707.992579 233.860475 
L 708.33169 233.955449 
L 708.33169 233.814399 
L 709.012845 233.934901 
L 709.012845 233.825345 
L 709.690334 233.992284 
L 709.690334 233.885972 
L 711.049711 233.970101 
L 711.049711 233.845164 
L 711.726955 233.952689 
L 711.726955 233.830135 
L 712.067288 233.958172 
L 712.067288 233.847384 
L 712.407622 233.954087 
L 712.407622 233.816768 
L 713.089266 233.915954 
L 713.089266 233.852302 
L 713.089266 233.952808 
L 714.109533 233.970966 
L 714.109533 233.812684 
L 715.475022 234.012189 
L 715.475022 233.917047 
L 716.500668 233.901551 
L 716.500668 233.91761 
L 716.840757 234.011037 
L 716.840757 233.907358 
L 717.86249 233.864849 
L 717.86249 233.877935 
L 717.86249 233.972878 
L 725.009979 233.889868 
L 725.718029 233.953275 
L 725.718029 233.914406 
L 726.397717 233.998554 
L 726.397717 233.930545 
L 726.397717 233.969616 
L 728.438006 233.988438 
L 728.77785 234.08079 
L 728.77785 233.996607 
L 729.457295 234.027584 
L 729.457295 233.955507 
L 730.136739 234.075127 
L 730.136739 234.003809 
L 730.821806 234.053537 
L 730.821806 233.985292 
L 731.50125 234.039827 
L 731.50125 233.948978 
L 731.50125 234.007348 
L 731.84085 234.019306 
L 731.84085 233.983045 
L 732.18045 233.909322 
L 732.520295 234.003096 
L 732.520295 233.98585 
L 732.859894 233.979702 
L 732.859894 234.056355 
L 733.545451 234.126728 
L 733.545451 234.0676 
L 733.545451 234.081505 
L 733.885051 234.013346 
L 734.56425 234.033078 
L 734.56425 233.962338 
L 736.948051 234.018781 
L 739.663627 233.955783 
L 740.682182 233.954961 
L 740.682182 233.998043 
L 743.410472 234.13977 
L 743.410472 234.052294 
L 744.424626 233.948692 
L 744.424626 233.977024 
L 745.104071 234.044837 
L 745.104071 234.04103 
L 745.44147 233.975089 
L 745.779603 234.039308 
L 745.779603 234.015853 
L 746.124337 233.923746 
L 746.803537 234.007272 
L 746.803537 234.001439 
L 747.479314 234.041527 
L 747.479314 233.962128 
L 749.507378 233.828997 
L 750.18291 234.009204 
L 750.18291 233.92953 
L 750.519576 234.005035 
L 750.519576 233.887278 
L 750.855997 233.996272 
L 750.855997 233.857717 
L 751.202443 233.939482 
L 751.202443 233.864413 
L 753.55886 233.978537 
L 753.55886 233.910975 
L 754.227058 234.020327 
L 754.227058 234.005 
L 754.560301 234.088543 
L 754.560301 234.038638 
L 759.194653 233.995532 
L 759.527162 234.080977 
L 759.527162 234.032213 
L 760.525914 234.045892 
L 760.525914 233.969229 
L 761.196312 234.008214 
L 762.878663 234.076872 
L 762.878663 233.944132 
L 763.216796 234.007452 
L 763.216796 233.939748 
L 764.902082 233.927077 
L 764.902082 233.939521 
L 765.581037 234.107241 
L 765.581037 234.037111 
L 766.263171 234.055714 
L 766.263171 233.935361 
L 766.263171 233.99648 
L 768.299792 233.985058 
L 769.318591 233.891994 
L 769.997791 234.017752 
L 769.997791 233.938799 
L 771.706548 234.025484 
L 771.706548 233.944503 
L 774.085703 234.000765 
L 774.085703 234.028356 
L 774.423836 234.123395 
L 774.423836 234.029099 
L 774.76368 234.054607 
L 775.441413 233.894192 
L 775.779546 233.827764 
L 776.802746 234.014901 
L 776.802746 233.981903 
L 777.822035 233.966282 
L 778.161879 234.021559 
L 778.161879 233.962513 
L 779.184591 233.978026 
L 779.184591 233.982392 
L 779.862079 234.078031 
L 779.862079 233.984337 
L 779.862079 234.031264 
L 780.540301 234.021663 
L 781.219256 233.925057 
L 781.564235 233.955441 
L 781.564235 233.914616 
L 782.241723 233.888706 
L 782.578633 233.995358 
L 782.578633 233.880928 
L 783.934588 233.96882 
L 785.625252 233.949362 
L 785.625252 233.964669 
L 786.299562 234.016456 
L 792.310406 233.904892 
L 792.310406 233.92835 
L 797.24524 234.022238 
L 797.24524 233.990141 
L 797.24524 234.09129 
L 797.573104 234.006376 
L 797.901212 234.110187 
L 797.901212 234.009518 
L 798.228832 234.051818 
L 798.228832 233.930182 
L 798.556696 234.042236 
L 798.556696 233.95566 
L 799.213158 234.071065 
L 799.213158 233.956511 
L 800.85199 234.041588 
L 800.85199 233.982287 
L 801.179855 234.10417 
L 801.179855 234.003356 
L 802.82431 233.856027 
L 802.82431 233.974362 
L 803.480039 234.07889 
L 807.101215 234.064618 
L 807.101215 234.107403 
L 807.757188 234.098825 
L 807.757188 233.945246 
L 808.085785 234.003184 
L 808.085785 233.876624 
L 808.414138 233.957824 
L 808.414138 233.943034 
L 808.414138 234.076512 
L 808.742492 233.970942 
L 809.070845 234.102135 
L 809.070845 234.042385 
L 809.72804 234.066492 
L 809.72804 234.006138 
L 810.713833 234.001625 
L 811.704761 233.988813 
L 812.033603 233.912535 
L 814.713483 234.326058 
L 814.713483 234.325771 
L 816.431531 234.32228 
L 816.431531 234.32228 
" clip-path="url(#pac9ec359fc)" style="fill: none; stroke: #008000; stroke-width: 1.5; stroke-linecap: square"/>
   </g>
   <g id="patch_3">
    <path d="M 47.72 534.04 
L 47.72 26.88 
" style="fill: none; stroke: #000000; stroke-width: 0.8; stroke-linejoin: miter; stroke-linecap: square"/>
   </g>
   <g id="patch_4">
    <path d="M 853.2 534.04 
L 853.2 26.88 
" style="fill: none; stroke: #000000; stroke-width: 0.8; stroke-linejoin: miter; stroke-linecap: square"/>
   </g>
   <g id="patch_5">
    <path d="M 47.72 534.04 
L 853.2 534.04 
" style="fill: none; stroke: #000000; stroke-width: 0.8; stroke-linejoin: miter; stroke-linecap: square"/>
   </g>
   <g id="patch_6">
    <path d="M 47.72 26.88 
L 853.2 26.88 
" style="fill: none; stroke: #000000; stroke-width: 0.8; stroke-linejoin: miter; stroke-linecap: square"/>
   </g>
   <g id="patch_7">
    <path d="M 680.547181 415.490627 
Q 654.395887 421.323692 628.244593 427.156757 
L 629.115397 431.060819 
Q 622.607702 429.438644 616.100007 427.816468 
Q 621.301496 423.582551 626.502986 419.348633 
L 627.37379 423.252695 
Q 653.525083 417.41963 679.676377 411.586565 
L 680.547181 415.490627 
z
" style="stroke: #000000; stroke-linecap: round"/>
   </g>
   <g id="text_15">
    <!-- Peak: RT=3.61, Area=4.34e+04 -->
    <g style="fill: #ff0000" transform="translate(685.783873 398.995931) scale(0.1 -0.1)">
     <defs>
      <path id="DejaVuSans-50" d="M 1259 4147 
L 1259 2394 
L 2053 2394 
Q 2494 2394 2734 2622 
Q 2975 2850 2975 3272 
Q 2975 3691 2734 3919 
Q 2494 4147 2053 4147 
L 1259 4147 
z
M 628 4666 
L 2053 4666 
Q 2838 4666 3239 4311 
Q 3641 3956 3641 3272 
Q 3641 2581 3239 2228 
Q 2838 1875 2053 1875 
L 1259 1875 
L 1259 0 
L 628 0 
L 628 4666 
z
" transform="scale(0.015625)"/>
      <path id="DejaVuSans-6b" d="M 581 4863 
L 1159 4863 
L 1159 1991 
L 2875 3500 
L 3609 3500 
L 1753 1863 
L 3688 0 
L 2938 0 
L 1159 1709 
L 1159 0 
L 581 0 
L 581 4863 
z
" transform="scale(0.015625)"/>
      <path id="DejaVuSans-3a" d="M 750 794 
L 1409 794 
L 1409 0 
L 750 0 
L 750 794 
z
M 750 3309 
L 1409 3309 
L 1409 2516 
L 750 2516 
L 750 3309 
z
" transform="scale(0.015625)"/>
      <path id="DejaVuSans-3d" d="M 678 2906 
L 4684 2906 
L 4684 2381 
L 678 2381 
L 678 2906 
z
M 678 1631 
L 4684 1631 
L 4684 1100 
L 678 1100 
L 678 1631 
z
" transform="scale(0.015625)"/>
      <path id="DejaVuSans-36" d="M 2113 2584 
Q 1688 2584 1439 2293 
Q 1191 2003 1191 1497 
Q 1191 994 1439 701 
Q 1688 409 2113 409 
Q 2538 409 2786 701 
Q 3034 994 3034 1497 
Q 3034 2003 2786 2293 
Q 2538 2584 2113 2584 
z
M 3366 4563 
L 3366 3988 
Q 3128 4100 2886 4159 
Q 2644 4219 2406 4219 
Q 1781 4219 1451 3797 
Q 1122 3375 1075 2522 
Q 1259 2794 1537 2939 
Q 1816 3084 2150 3084 
Q 2853 3084 3261 2657 
Q 3669 2231 3669 1497 
Q 3669 778 3244 343 
Q 2819 -91 2113 -91 
Q 1303 -91 875 529 
Q 447 1150 447 2328 
Q 447 3434 972 4092 
Q 1497 4750 2381 4750 
Q 2619 4750 2861 4703 
Q 3103 4656 3366 4563 
z
" transform="scale(0.015625)"/>
      <path id="DejaVuSans-2c" d="M 750 794 
L 1409 794 
L 1409 256 
L 897 -744 
L 494 -744 
L 750 256 
L 750 794 
z
" transform="scale(0.015625)"/>
      <path id="DejaVuSans-41" d="M 2188 4044 
L 1331 1722 
L 3047 1722 
L 2188 4044 
z
M 1831 4666 
L 2547 4666 
L 4325 0 
L 3669 0 
L 3244 1197 
L 1141 1197 
L 716 0 
L 50 0 
L 1831 4666 
z
" transform="scale(0.015625)"/>
      <path id="DejaVuSans-2b" d="M 2944 4013 
L 2944 2272 
L 4684 2272 
L 4684 1741 
L 2944 1741 
L 2944 0 
L 2419 0 
L 2419 1741 
L 678 1741 
L 678 2272 
L 2419 2272 
L 2419 4013 
L 2944 4013 
z
" transform="scale(0.015625)"/>
     </defs>
     <use xlink:href="#DejaVuSans-50"/>
     <use xlink:href="#DejaVuSans-65" transform="translate(56.677734 0)"/>
     <use xlink:href="#DejaVuSans-61" transform="translate(118.201172 0)"/>
     <use xlink:href="#DejaVuSans-6b" transform="translate(179.480469 0)"/>
     <use xlink:href="#DejaVuSans-3a" transform="translate(237.390625 0)"/>
     <use xlink:href="#DejaVuSans-20" transform="translate(271.082031 0)"/>
     <use xlink:href="#DejaVuSans-52" transform="translate(302.869141 0)"/>
     <use xlink:href="#DejaVuSans-54" transform="translate(365.101562 0)"/>
     <use xlink:href="#DejaVuSans-3d" transform="translate(426.185547 0)"/>
     <use xlink:href="#DejaVuSans-33" transform="translate(509.974609 0)"/>
     <use xlink:href="#DejaVuSans-2e" transform="translate(573.597656 0)"/>
     <use xlink:href="#DejaVuSans-36" transform="translate(605.384766 0)"/>
     <use xlink:href="#DejaVuSans-31" transform="translate(669.007812 0)"/>
     <use xlink:href="#DejaVuSans-2c" transform="translate(732.630859 0)"/>
     <use xlink:href="#DejaVuSans-20" transform="translate(764.417969 0)"/>
     <use xlink:href="#DejaVuSans-41" transform="translate(796.205078 0)"/>
     <use xlink:href="#DejaVuSans-72" transform="translate(864.613281 0)"/>
     <use xlink:href="#DejaVuSans-65" transform="translate(903.476562 0)"/>
     <use xlink:href="#DejaVuSans-61" transform="translate(965 0)"/>
     <use xlink:href="#DejaVuSans-3d" transform="translate(1026.279297 0)"/>
     <use xlink:href="#DejaVuSans-34" transform="translate(1110.068359 0)"/>
     <use xlink:href="#DejaVuSans-2e" transform="translate(1173.691406 0)"/>
     <use xlink:href="#DejaVuSans-33" transform="translate(1205.478516 0)"/>
     <use xlink:href="#DejaVuSans-34" transform="translate(1269.101562 0)"/>
     <use xlink:href="#DejaVuSans-65" transform="translate(1332.724609 0)"/>
     <use xlink:href="#DejaVuSans-2b" transform="translate(1394.248047 0)"/>
     <use xlink:href="#DejaVuSans-30" transform="translate(1478.037109 0)"/>
     <use xlink:href="#DejaVuSans-34" transform="translate(1541.660156 0)"/>
    </g>
    <!-- (32.48% of total) -->
    <g style="fill: #ff0000" transform="translate(685.783873 410.193743) scale(0.1 -0.1)">
     <defs>
      <path id="DejaVuSans-38" d="M 2034 2216 
Q 1584 2216 1326 1975 
Q 1069 1734 1069 1313 
Q 1069 891 1326 650 
Q 1584 409 2034 409 
Q 2484 409 2743 651 
Q 3003 894 3003 1313 
Q 3003 1734 2745 1975 
Q 2488 2216 2034 2216 
z
M 1403 2484 
Q 997 2584 770 2862 
Q 544 3141 544 3541 
Q 544 4100 942 4425 
Q 1341 4750 2034 4750 
Q 2731 4750 3128 4425 
Q 3525 4100 3525 3541 
Q 3525 3141 3298 2862 
Q 3072 2584 2669 2484 
Q 3125 2378 3379 2068 
Q 3634 1759 3634 1313 
Q 3634 634 3220 271 
Q 2806 -91 2034 -91 
Q 1263 -91 848 271 
Q 434 634 434 1313 
Q 434 1759 690 2068 
Q 947 2378 1403 2484 
z
M 1172 3481 
Q 1172 3119 1398 2916 
Q 1625 2713 2034 2713 
Q 2441 2713 2670 2916 
Q 2900 3119 2900 3481 
Q 2900 3844 2670 4047 
Q 2441 4250 2034 4250 
Q 1625 4250 1398 4047 
Q 1172 3844 1172 3481 
z
" transform="scale(0.015625)"/>
      <path id="DejaVuSans-25" d="M 4653 2053 
Q 4381 2053 4226 1822 
Q 4072 1591 4072 1178 
Q 4072 772 4226 539 
Q 4381 306 4653 306 
Q 4919 306 5073 539 
Q 5228 772 5228 1178 
Q 5228 1588 5073 1820 
Q 4919 2053 4653 2053 
z
M 4653 2450 
Q 5147 2450 5437 2106 
Q 5728 1763 5728 1178 
Q 5728 594 5436 251 
Q 5144 -91 4653 -91 
Q 4153 -91 3862 251 
Q 3572 594 3572 1178 
Q 3572 1766 3864 2108 
Q 4156 2450 4653 2450 
z
M 1428 4353 
Q 1159 4353 1004 4120 
Q 850 3888 850 3481 
Q 850 3069 1003 2837 
Q 1156 2606 1428 2606 
Q 1700 2606 1854 2837 
Q 2009 3069 2009 3481 
Q 2009 3884 1853 4118 
Q 1697 4353 1428 4353 
z
M 4250 4750 
L 4750 4750 
L 1831 -91 
L 1331 -91 
L 4250 4750 
z
M 1428 4750 
Q 1922 4750 2215 4408 
Q 2509 4066 2509 3481 
Q 2509 2891 2217 2550 
Q 1925 2209 1428 2209 
Q 931 2209 642 2551 
Q 353 2894 353 3481 
Q 353 4063 643 4406 
Q 934 4750 1428 4750 
z
" transform="scale(0.015625)"/>
      <path id="DejaVuSans-66" d="M 2375 4863 
L 2375 4384 
L 1825 4384 
Q 1516 4384 1395 4259 
Q 1275 4134 1275 3809 
L 1275 3500 
L 2222 3500 
L 2222 3053 
L 1275 3053 
L 1275 0 
L 697 0 
L 697 3053 
L 147 3053 
L 147 3500 
L 697 3500 
L 697 3744 
Q 697 4328 969 4595 
Q 1241 4863 1831 4863 
L 2375 4863 
z
" transform="scale(0.015625)"/>
     </defs>
     <use xlink:href="#DejaVuSans-28"/>
     <use xlink:href="#DejaVuSans-33" transform="translate(39.013672 0)"/>
     <use xlink:href="#DejaVuSans-32" transform="translate(102.636719 0)"/>
     <use xlink:href="#DejaVuSans-2e" transform="translate(166.259766 0)"/>
     <use xlink:href="#DejaVuSans-34" transform="translate(198.046875 0)"/>
     <use xlink:href="#DejaVuSans-38" transform="translate(261.669922 0)"/>
     <use xlink:href="#DejaVuSans-25" transform="translate(325.292969 0)"/>
     <use xlink:href="#DejaVuSans-20" transform="translate(420.3125 0)"/>
     <use xlink:href="#DejaVuSans-6f" transform="translate(452.099609 0)"/>
     <use xlink:href="#DejaVuSans-66" transform="translate(513.28125 0)"/>
     <use xlink:href="#DejaVuSans-20" transform="translate(548.486328 0)"/>
     <use xlink:href="#DejaVuSans-74" transform="translate(580.273438 0)"/>
     <use xlink:href="#DejaVuSans-6f" transform="translate(619.482422 0)"/>
     <use xlink:href="#DejaVuSans-74" transform="translate(680.664062 0)"/>
     <use xlink:href="#DejaVuSans-61" transform="translate(719.873047 0)"/>
     <use xlink:href="#DejaVuSans-6c" transform="translate(781.152344 0)"/>
     <use xlink:href="#DejaVuSans-29" transform="translate(808.935547 0)"/>
    </g>
   </g>
   <g id="text_16">
    <!-- UV &amp; MS Chromatograms: IrCp2C20, target m/z=825.2765432 -->
    <g transform="translate(262.222188 20.88) scale(0.12 -0.12)">
     <defs>
      <path id="DejaVuSans-55" d="M 556 4666 
L 1191 4666 
L 1191 1831 
Q 1191 1081 1462 751 
Q 1734 422 2344 422 
Q 2950 422 3222 751 
Q 3494 1081 3494 1831 
L 3494 4666 
L 4128 4666 
L 4128 1753 
Q 4128 841 3676 375 
Q 3225 -91 2344 -91 
Q 1459 -91 1007 375 
Q 556 841 556 1753 
L 556 4666 
z
" transform="scale(0.015625)"/>
      <path id="DejaVuSans-56" d="M 1831 0 
L 50 4666 
L 709 4666 
L 2188 738 
L 3669 4666 
L 4325 4666 
L 2547 0 
L 1831 0 
z
" transform="scale(0.015625)"/>
      <path id="DejaVuSans-26" d="M 1556 2509 
Q 1272 2256 1139 2004 
Q 1006 1753 1006 1478 
Q 1006 1022 1337 719 
Q 1669 416 2169 416 
Q 2466 416 2725 514 
Q 2984 613 3213 813 
L 1556 2509 
z
M 1997 2859 
L 3584 1234 
Q 3769 1513 3872 1830 
Q 3975 2147 3994 2503 
L 4575 2503 
Q 4538 2091 4375 1687 
Q 4213 1284 3922 891 
L 4794 0 
L 4006 0 
L 3559 459 
Q 3234 181 2878 45 
Q 2522 -91 2113 -91 
Q 1359 -91 881 339 
Q 403 769 403 1441 
Q 403 1841 612 2192 
Q 822 2544 1241 2853 
Q 1091 3050 1012 3245 
Q 934 3441 934 3628 
Q 934 4134 1281 4442 
Q 1628 4750 2203 4750 
Q 2463 4750 2720 4694 
Q 2978 4638 3244 4525 
L 3244 3956 
Q 2972 4103 2725 4179 
Q 2478 4256 2266 4256 
Q 1938 4256 1733 4082 
Q 1528 3909 1528 3634 
Q 1528 3475 1620 3314 
Q 1713 3153 1997 2859 
z
" transform="scale(0.015625)"/>
      <path id="DejaVuSans-4d" d="M 628 4666 
L 1569 4666 
L 2759 1491 
L 3956 4666 
L 4897 4666 
L 4897 0 
L 4281 0 
L 4281 4097 
L 3078 897 
L 2444 897 
L 1241 4097 
L 1241 0 
L 628 0 
L 628 4666 
z
" transform="scale(0.015625)"/>
      <path id="DejaVuSans-53" d="M 3425 4513 
L 3425 3897 
Q 3066 4069 2747 4153 
Q 2428 4238 2131 4238 
Q 1616 4238 1336 4038 
Q 1056 3838 1056 3469 
Q 1056 3159 1242 3001 
Q 1428 2844 1947 2747 
L 2328 2669 
Q 3034 2534 3370 2195 
Q 3706 1856 3706 1288 
Q 3706 609 3251 259 
Q 2797 -91 1919 -91 
Q 1588 -91 1214 -16 
Q 841 59 441 206 
L 441 856 
Q 825 641 1194 531 
Q 1563 422 1919 422 
Q 2459 422 2753 634 
Q 3047 847 3047 1241 
Q 3047 1584 2836 1778 
Q 2625 1972 2144 2069 
L 1759 2144 
Q 1053 2284 737 2584 
Q 422 2884 422 3419 
Q 422 4038 858 4394 
Q 1294 4750 2059 4750 
Q 2388 4750 2728 4690 
Q 3069 4631 3425 4513 
z
" transform="scale(0.015625)"/>
      <path id="DejaVuSans-43" d="M 4122 4306 
L 4122 3641 
Q 3803 3938 3442 4084 
Q 3081 4231 2675 4231 
Q 1875 4231 1450 3742 
Q 1025 3253 1025 2328 
Q 1025 1406 1450 917 
Q 1875 428 2675 428 
Q 3081 428 3442 575 
Q 3803 722 4122 1019 
L 4122 359 
Q 3791 134 3420 21 
Q 3050 -91 2638 -91 
Q 1578 -91 968 557 
Q 359 1206 359 2328 
Q 359 3453 968 4101 
Q 1578 4750 2638 4750 
Q 3056 4750 3426 4639 
Q 3797 4528 4122 4306 
z
" transform="scale(0.015625)"/>
      <path id="DejaVuSans-68" d="M 3513 2113 
L 3513 0 
L 2938 0 
L 2938 2094 
Q 2938 2591 2744 2837 
Q 2550 3084 2163 3084 
Q 1697 3084 1428 2787 
Q 1159 2491 1159 1978 
L 1159 0 
L 581 0 
L 581 4863 
L 1159 4863 
L 1159 2956 
Q 1366 3272 1645 3428 
Q 1925 3584 2291 3584 
Q 2894 3584 3203 3211 
Q 3513 2838 3513 2113 
z
" transform="scale(0.015625)"/>
      <path id="DejaVuSans-67" d="M 2906 1791 
Q 2906 2416 2648 2759 
Q 2391 3103 1925 3103 
Q 1463 3103 1205 2759 
Q 947 2416 947 1791 
Q 947 1169 1205 825 
Q 1463 481 1925 481 
Q 2391 481 2648 825 
Q 2906 1169 2906 1791 
z
M 3481 434 
Q 3481 -459 3084 -895 
Q 2688 -1331 1869 -1331 
Q 1566 -1331 1297 -1286 
Q 1028 -1241 775 -1147 
L 775 -588 
Q 1028 -725 1275 -790 
Q 1522 -856 1778 -856 
Q 2344 -856 2625 -561 
Q 2906 -266 2906 331 
L 2906 616 
Q 2728 306 2450 153 
Q 2172 0 1784 0 
Q 1141 0 747 490 
Q 353 981 353 1791 
Q 353 2603 747 3093 
Q 1141 3584 1784 3584 
Q 2172 3584 2450 3431 
Q 2728 3278 2906 2969 
L 2906 3500 
L 3481 3500 
L 3481 434 
z
" transform="scale(0.015625)"/>
      <path id="DejaVuSans-70" d="M 1159 525 
L 1159 -1331 
L 581 -1331 
L 581 3500 
L 1159 3500 
L 1159 2969 
Q 1341 3281 1617 3432 
Q 1894 3584 2278 3584 
Q 2916 3584 3314 3078 
Q 3713 2572 3713 1747 
Q 3713 922 3314 415 
Q 2916 -91 2278 -91 
Q 1894 -91 1617 61 
Q 1341 213 1159 525 
z
M 3116 1747 
Q 3116 2381 2855 2742 
Q 2594 3103 2138 3103 
Q 1681 3103 1420 2742 
Q 1159 2381 1159 1747 
Q 1159 1113 1420 752 
Q 1681 391 2138 391 
Q 2594 391 2855 752 
Q 3116 1113 3116 1747 
z
" transform="scale(0.015625)"/>
      <path id="DejaVuSans-2f" d="M 1625 4666 
L 2156 4666 
L 531 -594 
L 0 -594 
L 1625 4666 
z
" transform="scale(0.015625)"/>
      <path id="DejaVuSans-37" d="M 525 4666 
L 3525 4666 
L 3525 4397 
L 1831 0 
L 1172 0 
L 2766 4134 
L 525 4134 
L 525 4666 
z
" transform="scale(0.015625)"/>
     </defs>
     <use xlink:href="#DejaVuSans-55"/>
     <use xlink:href="#DejaVuSans-56" transform="translate(73.193359 0)"/>
     <use xlink:href="#DejaVuSans-20" transform="translate(141.601562 0)"/>
     <use xlink:href="#DejaVuSans-26" transform="translate(173.388672 0)"/>
     <use xlink:href="#DejaVuSans-20" transform="translate(251.367188 0)"/>
     <use xlink:href="#DejaVuSans-4d" transform="translate(283.154297 0)"/>
     <use xlink:href="#DejaVuSans-53" transform="translate(369.433594 0)"/>
     <use xlink:href="#DejaVuSans-20" transform="translate(432.910156 0)"/>
     <use xlink:href="#DejaVuSans-43" transform="translate(464.697266 0)"/>
     <use xlink:href="#DejaVuSans-68" transform="translate(534.521484 0)"/>
     <use xlink:href="#DejaVuSans-72" transform="translate(597.900391 0)"/>
     <use xlink:href="#DejaVuSans-6f" transform="translate(636.763672 0)"/>
     <use xlink:href="#DejaVuSans-6d" transform="translate(697.945312 0)"/>
     <use xlink:href="#DejaVuSans-61" transform="translate(795.357422 0)"/>
     <use xlink:href="#DejaVuSans-74" transform="translate(856.636719 0)"/>
     <use xlink:href="#DejaVuSans-6f" transform="translate(895.845703 0)"/>
     <use xlink:href="#DejaVuSans-67" transform="translate(957.027344 0)"/>
     <use xlink:href="#DejaVuSans-72" transform="translate(1020.503906 0)"/>
     <use xlink:href="#DejaVuSans-61" transform="translate(1061.617188 0)"/>
     <use xlink:href="#DejaVuSans-6d" transform="translate(1122.896484 0)"/>
     <use xlink:href="#DejaVuSans-73" transform="translate(1220.308594 0)"/>
     <use xlink:href="#DejaVuSans-3a" transform="translate(1272.408203 0)"/>
     <use xlink:href="#DejaVuSans-20" transform="translate(1306.099609 0)"/>
     <use xlink:href="#DejaVuSans-49" transform="translate(1337.886719 0)"/>
     <use xlink:href="#DejaVuSans-72" transform="translate(1367.378906 0)"/>
     <use xlink:href="#DejaVuSans-43" transform="translate(1408.492188 0)"/>
     <use xlink:href="#DejaVuSans-70" transform="translate(1478.316406 0)"/>
     <use xlink:href="#DejaVuSans-32" transform="translate(1541.792969 0)"/>
     <use xlink:href="#DejaVuSans-43" transform="translate(1605.416016 0)"/>
     <use xlink:href="#DejaVuSans-32" transform="translate(1675.240234 0)"/>
     <use xlink:href="#DejaVuSans-30" transform="translate(1738.863281 0)"/>
     <use xlink:href="#DejaVuSans-2c" transform="translate(1802.486328 0)"/>
     <use xlink:href="#DejaVuSans-20" transform="translate(1834.273438 0)"/>
     <use xlink:href="#DejaVuSans-74" transform="translate(1866.060547 0)"/>
     <use xlink:href="#DejaVuSans-61" transform="translate(1905.269531 0)"/>
     <use xlink:href="#DejaVuSans-72" transform="translate(1966.548828 0)"/>
     <use xlink:href="#DejaVuSans-67" transform="translate(2005.912109 0)"/>
     <use xlink:href="#DejaVuSans-65" transform="translate(2069.388672 0)"/>
     <use xlink:href="#DejaVuSans-74" transform="translate(2130.912109 0)"/>
     <use xlink:href="#DejaVuSans-20" transform="translate(2170.121094 0)"/>
     <use xlink:href="#DejaVuSans-6d" transform="translate(2201.908203 0)"/>
     <use xlink:href="#DejaVuSans-2f" transform="translate(2299.320312 0)"/>
     <use xlink:href="#DejaVuSans-7a" transform="translate(2333.011719 0)"/>
     <use xlink:href="#DejaVuSans-3d" transform="translate(2385.501953 0)"/>
     <use xlink:href="#DejaVuSans-38" transform="translate(2469.291016 0)"/>
     <use xlink:href="#DejaVuSans-32" transform="translate(2532.914062 0)"/>
     <use xlink:href="#DejaVuSans-35" transform="translate(2596.537109 0)"/>
     <use xlink:href="#DejaVuSans-2e" transform="translate(2660.160156 0)"/>
     <use xlink:href="#DejaVuSans-32" transform="translate(2691.947266 0)"/>
     <use xlink:href="#DejaVuSans-37" transform="translate(2755.570312 0)"/>
     <use xlink:href="#DejaVuSans-36" transform="translate(2819.193359 0)"/>
     <use xlink:href="#DejaVuSans-35" transform="translate(2882.816406 0)"/>
     <use xlink:href="#DejaVuSans-34" transform="translate(2946.439453 0)"/>
     <use xlink:href="#DejaVuSans-33" transform="translate(3010.0625 0)"/>
     <use xlink:href="#DejaVuSans-32" transform="translate(3073.685547 0)"/>
    </g>
   </g>
   <g id="legend_1">
    <g id="patch_8">
     <path d="M 685.971875 64.23625 
L 846.2 64.23625 
Q 848.2 64.23625 848.2 62.23625 
L 848.2 33.88 
Q 848.2 31.88 846.2 31.88 
L 685.971875 31.88 
Q 683.971875 31.88 683.971875 33.88 
L 683.971875 62.23625 
Q 683.971875 64.23625 685.971875 64.23625 
z
" style="fill: #ffffff; opacity: 0.8; stroke: #cccccc; stroke-linejoin: miter"/>
    </g>
    <g id="line2d_15">
     <path d="M 687.971875 39.978437 
L 697.971875 39.978437 
L 707.971875 39.978437 
" style="fill: none; stroke: #0000ff; stroke-width: 1.5; stroke-linecap: square"/>
    </g>
    <g id="text_17">
     <!-- UV Intensity (normalized) -->
     <g transform="translate(715.971875 43.478437) scale(0.1 -0.1)">
      <use xlink:href="#DejaVuSans-55"/>
      <use xlink:href="#DejaVuSans-56" transform="translate(73.193359 0)"/>
      <use xlink:href="#DejaVuSans-20" transform="translate(141.601562 0)"/>
      <use xlink:href="#DejaVuSans-49" transform="translate(173.388672 0)"/>
      <use xlink:href="#DejaVuSans-6e" transform="translate(202.880859 0)"/>
      <use xlink:href="#DejaVuSans-74" transform="translate(266.259766 0)"/>
      <use xlink:href="#DejaVuSans-65" transform="translate(305.46875 0)"/>
      <use xlink:href="#DejaVuSans-6e" transform="translate(366.992188 0)"/>
      <use xlink:href="#DejaVuSans-73" transform="translate(430.371094 0)"/>
      <use xlink:href="#DejaVuSans-69" transform="translate(482.470703 0)"/>
      <use xlink:href="#DejaVuSans-74" transform="translate(510.253906 0)"/>
      <use xlink:href="#DejaVuSans-79" transform="translate(549.462891 0)"/>
      <use xlink:href="#DejaVuSans-20" transform="translate(608.642578 0)"/>
      <use xlink:href="#DejaVuSans-28" transform="translate(640.429688 0)"/>
      <use xlink:href="#DejaVuSans-6e" transform="translate(679.443359 0)"/>
      <use xlink:href="#DejaVuSans-6f" transform="translate(742.822266 0)"/>
      <use xlink:href="#DejaVuSans-72" transform="translate(804.003906 0)"/>
      <use xlink:href="#DejaVuSans-6d" transform="translate(843.367188 0)"/>
      <use xlink:href="#DejaVuSans-61" transform="translate(940.779297 0)"/>
      <use xlink:href="#DejaVuSans-6c" transform="translate(1002.058594 0)"/>
      <use xlink:href="#DejaVuSans-69" transform="translate(1029.841797 0)"/>
      <use xlink:href="#DejaVuSans-7a" transform="translate(1057.625 0)"/>
      <use xlink:href="#DejaVuSans-65" transform="translate(1110.115234 0)"/>
      <use xlink:href="#DejaVuSans-64" transform="translate(1171.638672 0)"/>
      <use xlink:href="#DejaVuSans-29" transform="translate(1235.115234 0)"/>
     </g>
    </g>
    <g id="line2d_16">
     <path d="M 687.971875 54.656562 
L 697.971875 54.656562 
L 707.971875 54.656562 
" style="fill: none; stroke: #008000; stroke-width: 1.5; stroke-linecap: square"/>
    </g>
    <g id="text_18">
     <!-- MS Intensity (normalized) -->
     <g transform="translate(715.971875 58.156562) scale(0.1 -0.1)">
      <use xlink:href="#DejaVuSans-4d"/>
      <use xlink:href="#DejaVuSans-53" transform="translate(86.279297 0)"/>
      <use xlink:href="#DejaVuSans-20" transform="translate(149.755859 0)"/>
      <use xlink:href="#DejaVuSans-49" transform="translate(181.542969 0)"/>
      <use xlink:href="#DejaVuSans-6e" transform="translate(211.035156 0)"/>
      <use xlink:href="#DejaVuSans-74" transform="translate(274.414062 0)"/>
      <use xlink:href="#DejaVuSans-65" transform="translate(313.623047 0)"/>
      <use xlink:href="#DejaVuSans-6e" transform="translate(375.146484 0)"/>
      <use xlink:href="#DejaVuSans-73" transform="translate(438.525391 0)"/>
      <use xlink:href="#DejaVuSans-69" transform="translate(490.625 0)"/>
      <use xlink:href="#DejaVuSans-74" transform="translate(518.408203 0)"/>
      <use xlink:href="#DejaVuSans-79" transform="translate(557.617188 0)"/>
      <use xlink:href="#DejaVuSans-20" transform="translate(616.796875 0)"/>
      <use xlink:href="#DejaVuSans-28" transform="translate(648.583984 0)"/>
      <use xlink:href="#DejaVuSans-6e" transform="translate(687.597656 0)"/>
      <use xlink:href="#DejaVuSans-6f" transform="translate(750.976562 0)"/>
      <use xlink:href="#DejaVuSans-72" transform="translate(812.158203 0)"/>
      <use xlink:href="#DejaVuSans-6d" transform="translate(851.521484 0)"/>
      <use xlink:href="#DejaVuSans-61" transform="translate(948.933594 0)"/>
      <use xlink:href="#DejaVuSans-6c" transform="translate(1010.212891 0)"/>
      <use xlink:href="#DejaVuSans-69" transform="translate(1037.996094 0)"/>
      <use xlink:href="#DejaVuSans-7a" transform="translate(1065.779297 0)"/>
      <use xlink:href="#DejaVuSans-65" transform="translate(1118.269531 0)"/>
      <use xlink:href="#DejaVuSans-64" transform="translate(1179.792969 0)"/>
      <use xlink:href="#DejaVuSans-29" transform="translate(1243.269531 0)"/>
     </g>
    </g>
   </g>
  </g>
 </g>
 <defs>
  <clipPath id="pac9ec359fc">
   <rect x="47.72" y="26.88" width="805.48" height="507.16"/>
  </clipPath>
 </defs>
</svg>
