<?xml version="1.0" encoding="utf-8" standalone="no"?>
<!DOCTYPE svg PUBLIC "-//W3C//DTD SVG 1.1//EN"
  "http://www.w3.org/Graphics/SVG/1.1/DTD/svg11.dtd">
<svg xmlns:xlink="http://www.w3.org/1999/xlink" width="864pt" height="576pt" viewBox="0 0 864 576" xmlns="http://www.w3.org/2000/svg" version="1.1">
 <metadata>
  <rdf:RDF xmlns:dc="http://purl.org/dc/elements/1.1/" xmlns:cc="http://creativecommons.org/ns#" xmlns:rdf="http://www.w3.org/1999/02/22-rdf-syntax-ns#">
   <cc:Work>
    <dc:type rdf:resource="http://purl.org/dc/dcmitype/StillImage"/>
    <dc:date>2025-02-25T11:16:31.592324</dc:date>
    <dc:format>image/svg+xml</dc:format>
    <dc:creator>
     <cc:Agent>
      <dc:title>Matplotlib v3.10.0, https://matplotlib.org/</dc:title>
     </cc:Agent>
    </dc:creator>
   </cc:Work>
  </rdf:RDF>
 </metadata>
 <defs>
  <style type="text/css">*{stroke-linejoin: round; stroke-linecap: butt}</style>
 </defs>
 <g id="figure_1">
  <g id="patch_1">
   <path d="M 0 576 
L 864 576 
L 864 0 
L 0 0 
z
" style="fill: #ffffff"/>
  </g>
  <g id="axes_1">
   <g id="patch_2">
    <path d="M 47.72 534.04 
L 853.2 534.04 
L 853.2 26.88 
L 47.72 26.88 
z
" style="fill: #ffffff"/>
   </g>
   <g id="matplotlib.axis_1">
    <g id="xtick_1">
     <g id="line2d_1">
      <defs>
       <path id="m57f8f9161d" d="M 0 0 
L 0 3.5 
" style="stroke: #000000; stroke-width: 0.8"/>
      </defs>
      <g>
       <use xlink:href="#m57f8f9161d" x="83.093151" y="534.04" style="stroke: #000000; stroke-width: 0.8"/>
      </g>
     </g>
     <g id="text_1">
      <!-- 0 -->
      <g transform="translate(79.911901 548.638438) scale(0.1 -0.1)">
       <defs>
        <path id="DejaVuSans-30" d="M 2034 4250 
Q 1547 4250 1301 3770 
Q 1056 3291 1056 2328 
Q 1056 1369 1301 889 
Q 1547 409 2034 409 
Q 2525 409 2770 889 
Q 3016 1369 3016 2328 
Q 3016 3291 2770 3770 
Q 2525 4250 2034 4250 
z
M 2034 4750 
Q 2819 4750 3233 4129 
Q 3647 3509 3647 2328 
Q 3647 1150 3233 529 
Q 2819 -91 2034 -91 
Q 1250 -91 836 529 
Q 422 1150 422 2328 
Q 422 3509 836 4129 
Q 1250 4750 2034 4750 
z
" transform="scale(0.015625)"/>
       </defs>
       <use xlink:href="#DejaVuSans-30"/>
      </g>
     </g>
    </g>
    <g id="xtick_2">
     <g id="line2d_2">
      <g>
       <use xlink:href="#m57f8f9161d" x="229.788553" y="534.04" style="stroke: #000000; stroke-width: 0.8"/>
      </g>
     </g>
     <g id="text_2">
      <!-- 1 -->
      <g transform="translate(226.607303 548.638438) scale(0.1 -0.1)">
       <defs>
        <path id="DejaVuSans-31" d="M 794 531 
L 1825 531 
L 1825 4091 
L 703 3866 
L 703 4441 
L 1819 4666 
L 2450 4666 
L 2450 531 
L 3481 531 
L 3481 0 
L 794 0 
L 794 531 
z
" transform="scale(0.015625)"/>
       </defs>
       <use xlink:href="#DejaVuSans-31"/>
      </g>
     </g>
    </g>
    <g id="xtick_3">
     <g id="line2d_3">
      <g>
       <use xlink:href="#m57f8f9161d" x="376.483954" y="534.04" style="stroke: #000000; stroke-width: 0.8"/>
      </g>
     </g>
     <g id="text_3">
      <!-- 2 -->
      <g transform="translate(373.302704 548.638438) scale(0.1 -0.1)">
       <defs>
        <path id="DejaVuSans-32" d="M 1228 531 
L 3431 531 
L 3431 0 
L 469 0 
L 469 531 
Q 828 903 1448 1529 
Q 2069 2156 2228 2338 
Q 2531 2678 2651 2914 
Q 2772 3150 2772 3378 
Q 2772 3750 2511 3984 
Q 2250 4219 1831 4219 
Q 1534 4219 1204 4116 
Q 875 4013 500 3803 
L 500 4441 
Q 881 4594 1212 4672 
Q 1544 4750 1819 4750 
Q 2544 4750 2975 4387 
Q 3406 4025 3406 3419 
Q 3406 3131 3298 2873 
Q 3191 2616 2906 2266 
Q 2828 2175 2409 1742 
Q 1991 1309 1228 531 
z
" transform="scale(0.015625)"/>
       </defs>
       <use xlink:href="#DejaVuSans-32"/>
      </g>
     </g>
    </g>
    <g id="xtick_4">
     <g id="line2d_4">
      <g>
       <use xlink:href="#m57f8f9161d" x="523.179355" y="534.04" style="stroke: #000000; stroke-width: 0.8"/>
      </g>
     </g>
     <g id="text_4">
      <!-- 3 -->
      <g transform="translate(519.998105 548.638438) scale(0.1 -0.1)">
       <defs>
        <path id="DejaVuSans-33" d="M 2597 2516 
Q 3050 2419 3304 2112 
Q 3559 1806 3559 1356 
Q 3559 666 3084 287 
Q 2609 -91 1734 -91 
Q 1441 -91 1130 -33 
Q 819 25 488 141 
L 488 750 
Q 750 597 1062 519 
Q 1375 441 1716 441 
Q 2309 441 2620 675 
Q 2931 909 2931 1356 
Q 2931 1769 2642 2001 
Q 2353 2234 1838 2234 
L 1294 2234 
L 1294 2753 
L 1863 2753 
Q 2328 2753 2575 2939 
Q 2822 3125 2822 3475 
Q 2822 3834 2567 4026 
Q 2313 4219 1838 4219 
Q 1578 4219 1281 4162 
Q 984 4106 628 3988 
L 628 4550 
Q 988 4650 1302 4700 
Q 1616 4750 1894 4750 
Q 2613 4750 3031 4423 
Q 3450 4097 3450 3541 
Q 3450 3153 3228 2886 
Q 3006 2619 2597 2516 
z
" transform="scale(0.015625)"/>
       </defs>
       <use xlink:href="#DejaVuSans-33"/>
      </g>
     </g>
    </g>
    <g id="xtick_5">
     <g id="line2d_5">
      <g>
       <use xlink:href="#m57f8f9161d" x="669.874757" y="534.04" style="stroke: #000000; stroke-width: 0.8"/>
      </g>
     </g>
     <g id="text_5">
      <!-- 4 -->
      <g transform="translate(666.693507 548.638438) scale(0.1 -0.1)">
       <defs>
        <path id="DejaVuSans-34" d="M 2419 4116 
L 825 1625 
L 2419 1625 
L 2419 4116 
z
M 2253 4666 
L 3047 4666 
L 3047 1625 
L 3713 1625 
L 3713 1100 
L 3047 1100 
L 3047 0 
L 2419 0 
L 2419 1100 
L 313 1100 
L 313 1709 
L 2253 4666 
z
" transform="scale(0.015625)"/>
       </defs>
       <use xlink:href="#DejaVuSans-34"/>
      </g>
     </g>
    </g>
    <g id="xtick_6">
     <g id="line2d_6">
      <g>
       <use xlink:href="#m57f8f9161d" x="816.570158" y="534.04" style="stroke: #000000; stroke-width: 0.8"/>
      </g>
     </g>
     <g id="text_6">
      <!-- 5 -->
      <g transform="translate(813.388908 548.638438) scale(0.1 -0.1)">
       <defs>
        <path id="DejaVuSans-35" d="M 691 4666 
L 3169 4666 
L 3169 4134 
L 1269 4134 
L 1269 2991 
Q 1406 3038 1543 3061 
Q 1681 3084 1819 3084 
Q 2600 3084 3056 2656 
Q 3513 2228 3513 1497 
Q 3513 744 3044 326 
Q 2575 -91 1722 -91 
Q 1428 -91 1123 -41 
Q 819 9 494 109 
L 494 744 
Q 775 591 1075 516 
Q 1375 441 1709 441 
Q 2250 441 2565 725 
Q 2881 1009 2881 1497 
Q 2881 1984 2565 2268 
Q 2250 2553 1709 2553 
Q 1456 2553 1204 2497 
Q 953 2441 691 2322 
L 691 4666 
z
" transform="scale(0.015625)"/>
       </defs>
       <use xlink:href="#DejaVuSans-35"/>
      </g>
     </g>
    </g>
    <g id="text_7">
     <!-- Retention Time (min) -->
     <g transform="translate(397.61 562.316562) scale(0.1 -0.1)">
      <defs>
       <path id="DejaVuSans-52" d="M 2841 2188 
Q 3044 2119 3236 1894 
Q 3428 1669 3622 1275 
L 4263 0 
L 3584 0 
L 2988 1197 
Q 2756 1666 2539 1819 
Q 2322 1972 1947 1972 
L 1259 1972 
L 1259 0 
L 628 0 
L 628 4666 
L 2053 4666 
Q 2853 4666 3247 4331 
Q 3641 3997 3641 3322 
Q 3641 2881 3436 2590 
Q 3231 2300 2841 2188 
z
M 1259 4147 
L 1259 2491 
L 2053 2491 
Q 2509 2491 2742 2702 
Q 2975 2913 2975 3322 
Q 2975 3731 2742 3939 
Q 2509 4147 2053 4147 
L 1259 4147 
z
" transform="scale(0.015625)"/>
       <path id="DejaVuSans-65" d="M 3597 1894 
L 3597 1613 
L 953 1613 
Q 991 1019 1311 708 
Q 1631 397 2203 397 
Q 2534 397 2845 478 
Q 3156 559 3463 722 
L 3463 178 
Q 3153 47 2828 -22 
Q 2503 -91 2169 -91 
Q 1331 -91 842 396 
Q 353 884 353 1716 
Q 353 2575 817 3079 
Q 1281 3584 2069 3584 
Q 2775 3584 3186 3129 
Q 3597 2675 3597 1894 
z
M 3022 2063 
Q 3016 2534 2758 2815 
Q 2500 3097 2075 3097 
Q 1594 3097 1305 2825 
Q 1016 2553 972 2059 
L 3022 2063 
z
" transform="scale(0.015625)"/>
       <path id="DejaVuSans-74" d="M 1172 4494 
L 1172 3500 
L 2356 3500 
L 2356 3053 
L 1172 3053 
L 1172 1153 
Q 1172 725 1289 603 
Q 1406 481 1766 481 
L 2356 481 
L 2356 0 
L 1766 0 
Q 1100 0 847 248 
Q 594 497 594 1153 
L 594 3053 
L 172 3053 
L 172 3500 
L 594 3500 
L 594 4494 
L 1172 4494 
z
" transform="scale(0.015625)"/>
       <path id="DejaVuSans-6e" d="M 3513 2113 
L 3513 0 
L 2938 0 
L 2938 2094 
Q 2938 2591 2744 2837 
Q 2550 3084 2163 3084 
Q 1697 3084 1428 2787 
Q 1159 2491 1159 1978 
L 1159 0 
L 581 0 
L 581 3500 
L 1159 3500 
L 1159 2956 
Q 1366 3272 1645 3428 
Q 1925 3584 2291 3584 
Q 2894 3584 3203 3211 
Q 3513 2838 3513 2113 
z
" transform="scale(0.015625)"/>
       <path id="DejaVuSans-69" d="M 603 3500 
L 1178 3500 
L 1178 0 
L 603 0 
L 603 3500 
z
M 603 4863 
L 1178 4863 
L 1178 4134 
L 603 4134 
L 603 4863 
z
" transform="scale(0.015625)"/>
       <path id="DejaVuSans-6f" d="M 1959 3097 
Q 1497 3097 1228 2736 
Q 959 2375 959 1747 
Q 959 1119 1226 758 
Q 1494 397 1959 397 
Q 2419 397 2687 759 
Q 2956 1122 2956 1747 
Q 2956 2369 2687 2733 
Q 2419 3097 1959 3097 
z
M 1959 3584 
Q 2709 3584 3137 3096 
Q 3566 2609 3566 1747 
Q 3566 888 3137 398 
Q 2709 -91 1959 -91 
Q 1206 -91 779 398 
Q 353 888 353 1747 
Q 353 2609 779 3096 
Q 1206 3584 1959 3584 
z
" transform="scale(0.015625)"/>
       <path id="DejaVuSans-20" transform="scale(0.015625)"/>
       <path id="DejaVuSans-54" d="M -19 4666 
L 3928 4666 
L 3928 4134 
L 2272 4134 
L 2272 0 
L 1638 0 
L 1638 4134 
L -19 4134 
L -19 4666 
z
" transform="scale(0.015625)"/>
       <path id="DejaVuSans-6d" d="M 3328 2828 
Q 3544 3216 3844 3400 
Q 4144 3584 4550 3584 
Q 5097 3584 5394 3201 
Q 5691 2819 5691 2113 
L 5691 0 
L 5113 0 
L 5113 2094 
Q 5113 2597 4934 2840 
Q 4756 3084 4391 3084 
Q 3944 3084 3684 2787 
Q 3425 2491 3425 1978 
L 3425 0 
L 2847 0 
L 2847 2094 
Q 2847 2600 2669 2842 
Q 2491 3084 2119 3084 
Q 1678 3084 1418 2786 
Q 1159 2488 1159 1978 
L 1159 0 
L 581 0 
L 581 3500 
L 1159 3500 
L 1159 2956 
Q 1356 3278 1631 3431 
Q 1906 3584 2284 3584 
Q 2666 3584 2933 3390 
Q 3200 3197 3328 2828 
z
" transform="scale(0.015625)"/>
       <path id="DejaVuSans-28" d="M 1984 4856 
Q 1566 4138 1362 3434 
Q 1159 2731 1159 2009 
Q 1159 1288 1364 580 
Q 1569 -128 1984 -844 
L 1484 -844 
Q 1016 -109 783 600 
Q 550 1309 550 2009 
Q 550 2706 781 3412 
Q 1013 4119 1484 4856 
L 1984 4856 
z
" transform="scale(0.015625)"/>
       <path id="DejaVuSans-29" d="M 513 4856 
L 1013 4856 
Q 1481 4119 1714 3412 
Q 1947 2706 1947 2009 
Q 1947 1309 1714 600 
Q 1481 -109 1013 -844 
L 513 -844 
Q 928 -128 1133 580 
Q 1338 1288 1338 2009 
Q 1338 2731 1133 3434 
Q 928 4138 513 4856 
z
" transform="scale(0.015625)"/>
      </defs>
      <use xlink:href="#DejaVuSans-52"/>
      <use xlink:href="#DejaVuSans-65" transform="translate(64.982422 0)"/>
      <use xlink:href="#DejaVuSans-74" transform="translate(126.505859 0)"/>
      <use xlink:href="#DejaVuSans-65" transform="translate(165.714844 0)"/>
      <use xlink:href="#DejaVuSans-6e" transform="translate(227.238281 0)"/>
      <use xlink:href="#DejaVuSans-74" transform="translate(290.617188 0)"/>
      <use xlink:href="#DejaVuSans-69" transform="translate(329.826172 0)"/>
      <use xlink:href="#DejaVuSans-6f" transform="translate(357.609375 0)"/>
      <use xlink:href="#DejaVuSans-6e" transform="translate(418.791016 0)"/>
      <use xlink:href="#DejaVuSans-20" transform="translate(482.169922 0)"/>
      <use xlink:href="#DejaVuSans-54" transform="translate(513.957031 0)"/>
      <use xlink:href="#DejaVuSans-69" transform="translate(571.916016 0)"/>
      <use xlink:href="#DejaVuSans-6d" transform="translate(599.699219 0)"/>
      <use xlink:href="#DejaVuSans-65" transform="translate(697.111328 0)"/>
      <use xlink:href="#DejaVuSans-20" transform="translate(758.634766 0)"/>
      <use xlink:href="#DejaVuSans-28" transform="translate(790.421875 0)"/>
      <use xlink:href="#DejaVuSans-6d" transform="translate(829.435547 0)"/>
      <use xlink:href="#DejaVuSans-69" transform="translate(926.847656 0)"/>
      <use xlink:href="#DejaVuSans-6e" transform="translate(954.630859 0)"/>
      <use xlink:href="#DejaVuSans-29" transform="translate(1018.009766 0)"/>
     </g>
    </g>
   </g>
   <g id="matplotlib.axis_2">
    <g id="ytick_1">
     <g id="line2d_7">
      <defs>
       <path id="md66af866c3" d="M 0 0 
L -3.5 0 
" style="stroke: #000000; stroke-width: 0.8"/>
      </defs>
      <g>
       <use xlink:href="#md66af866c3" x="47.72" y="510.802363" style="stroke: #000000; stroke-width: 0.8"/>
      </g>
     </g>
     <g id="text_8">
      <!-- 0.0 -->
      <g style="fill: #0000ff" transform="translate(24.816875 514.601581) scale(0.1 -0.1)">
       <defs>
        <path id="DejaVuSans-2e" d="M 684 794 
L 1344 794 
L 1344 0 
L 684 0 
L 684 794 
z
" transform="scale(0.015625)"/>
       </defs>
       <use xlink:href="#DejaVuSans-30"/>
       <use xlink:href="#DejaVuSans-2e" transform="translate(63.623047 0)"/>
       <use xlink:href="#DejaVuSans-30" transform="translate(95.410156 0)"/>
      </g>
     </g>
    </g>
    <g id="ytick_2">
     <g id="line2d_8">
      <g>
       <use xlink:href="#md66af866c3" x="47.72" y="418.628436" style="stroke: #000000; stroke-width: 0.8"/>
      </g>
     </g>
     <g id="text_9">
      <!-- 0.5 -->
      <g style="fill: #0000ff" transform="translate(24.816875 422.427654) scale(0.1 -0.1)">
       <use xlink:href="#DejaVuSans-30"/>
       <use xlink:href="#DejaVuSans-2e" transform="translate(63.623047 0)"/>
       <use xlink:href="#DejaVuSans-35" transform="translate(95.410156 0)"/>
      </g>
     </g>
    </g>
    <g id="ytick_3">
     <g id="line2d_9">
      <g>
       <use xlink:href="#md66af866c3" x="47.72" y="326.454509" style="stroke: #000000; stroke-width: 0.8"/>
      </g>
     </g>
     <g id="text_10">
      <!-- 1.0 -->
      <g style="fill: #0000ff" transform="translate(24.816875 330.253727) scale(0.1 -0.1)">
       <use xlink:href="#DejaVuSans-31"/>
       <use xlink:href="#DejaVuSans-2e" transform="translate(63.623047 0)"/>
       <use xlink:href="#DejaVuSans-30" transform="translate(95.410156 0)"/>
      </g>
     </g>
    </g>
    <g id="ytick_4">
     <g id="line2d_10">
      <g>
       <use xlink:href="#md66af866c3" x="47.72" y="234.280581" style="stroke: #000000; stroke-width: 0.8"/>
      </g>
     </g>
     <g id="text_11">
      <!-- 1.5 -->
      <g style="fill: #0000ff" transform="translate(24.816875 238.0798) scale(0.1 -0.1)">
       <use xlink:href="#DejaVuSans-31"/>
       <use xlink:href="#DejaVuSans-2e" transform="translate(63.623047 0)"/>
       <use xlink:href="#DejaVuSans-35" transform="translate(95.410156 0)"/>
      </g>
     </g>
    </g>
    <g id="ytick_5">
     <g id="line2d_11">
      <g>
       <use xlink:href="#md66af866c3" x="47.72" y="142.106654" style="stroke: #000000; stroke-width: 0.8"/>
      </g>
     </g>
     <g id="text_12">
      <!-- 2.0 -->
      <g style="fill: #0000ff" transform="translate(24.816875 145.905873) scale(0.1 -0.1)">
       <use xlink:href="#DejaVuSans-32"/>
       <use xlink:href="#DejaVuSans-2e" transform="translate(63.623047 0)"/>
       <use xlink:href="#DejaVuSans-30" transform="translate(95.410156 0)"/>
      </g>
     </g>
    </g>
    <g id="ytick_6">
     <g id="line2d_12">
      <g>
       <use xlink:href="#md66af866c3" x="47.72" y="49.932727" style="stroke: #000000; stroke-width: 0.8"/>
      </g>
     </g>
     <g id="text_13">
      <!-- 2.5 -->
      <g style="fill: #0000ff" transform="translate(24.816875 53.731946) scale(0.1 -0.1)">
       <use xlink:href="#DejaVuSans-32"/>
       <use xlink:href="#DejaVuSans-2e" transform="translate(63.623047 0)"/>
       <use xlink:href="#DejaVuSans-35" transform="translate(95.410156 0)"/>
      </g>
     </g>
    </g>
    <g id="text_14">
     <!-- Normalized Intensity -->
     <g style="fill: #0000ff" transform="translate(18.737187 332.167031) rotate(-90) scale(0.1 -0.1)">
      <defs>
       <path id="DejaVuSans-4e" d="M 628 4666 
L 1478 4666 
L 3547 763 
L 3547 4666 
L 4159 4666 
L 4159 0 
L 3309 0 
L 1241 3903 
L 1241 0 
L 628 0 
L 628 4666 
z
" transform="scale(0.015625)"/>
       <path id="DejaVuSans-72" d="M 2631 2963 
Q 2534 3019 2420 3045 
Q 2306 3072 2169 3072 
Q 1681 3072 1420 2755 
Q 1159 2438 1159 1844 
L 1159 0 
L 581 0 
L 581 3500 
L 1159 3500 
L 1159 2956 
Q 1341 3275 1631 3429 
Q 1922 3584 2338 3584 
Q 2397 3584 2469 3576 
Q 2541 3569 2628 3553 
L 2631 2963 
z
" transform="scale(0.015625)"/>
       <path id="DejaVuSans-61" d="M 2194 1759 
Q 1497 1759 1228 1600 
Q 959 1441 959 1056 
Q 959 750 1161 570 
Q 1363 391 1709 391 
Q 2188 391 2477 730 
Q 2766 1069 2766 1631 
L 2766 1759 
L 2194 1759 
z
M 3341 1997 
L 3341 0 
L 2766 0 
L 2766 531 
Q 2569 213 2275 61 
Q 1981 -91 1556 -91 
Q 1019 -91 701 211 
Q 384 513 384 1019 
Q 384 1609 779 1909 
Q 1175 2209 1959 2209 
L 2766 2209 
L 2766 2266 
Q 2766 2663 2505 2880 
Q 2244 3097 1772 3097 
Q 1472 3097 1187 3025 
Q 903 2953 641 2809 
L 641 3341 
Q 956 3463 1253 3523 
Q 1550 3584 1831 3584 
Q 2591 3584 2966 3190 
Q 3341 2797 3341 1997 
z
" transform="scale(0.015625)"/>
       <path id="DejaVuSans-6c" d="M 603 4863 
L 1178 4863 
L 1178 0 
L 603 0 
L 603 4863 
z
" transform="scale(0.015625)"/>
       <path id="DejaVuSans-7a" d="M 353 3500 
L 3084 3500 
L 3084 2975 
L 922 459 
L 3084 459 
L 3084 0 
L 275 0 
L 275 525 
L 2438 3041 
L 353 3041 
L 353 3500 
z
" transform="scale(0.015625)"/>
       <path id="DejaVuSans-64" d="M 2906 2969 
L 2906 4863 
L 3481 4863 
L 3481 0 
L 2906 0 
L 2906 525 
Q 2725 213 2448 61 
Q 2172 -91 1784 -91 
Q 1150 -91 751 415 
Q 353 922 353 1747 
Q 353 2572 751 3078 
Q 1150 3584 1784 3584 
Q 2172 3584 2448 3432 
Q 2725 3281 2906 2969 
z
M 947 1747 
Q 947 1113 1208 752 
Q 1469 391 1925 391 
Q 2381 391 2643 752 
Q 2906 1113 2906 1747 
Q 2906 2381 2643 2742 
Q 2381 3103 1925 3103 
Q 1469 3103 1208 2742 
Q 947 2381 947 1747 
z
" transform="scale(0.015625)"/>
       <path id="DejaVuSans-49" d="M 628 4666 
L 1259 4666 
L 1259 0 
L 628 0 
L 628 4666 
z
" transform="scale(0.015625)"/>
       <path id="DejaVuSans-73" d="M 2834 3397 
L 2834 2853 
Q 2591 2978 2328 3040 
Q 2066 3103 1784 3103 
Q 1356 3103 1142 2972 
Q 928 2841 928 2578 
Q 928 2378 1081 2264 
Q 1234 2150 1697 2047 
L 1894 2003 
Q 2506 1872 2764 1633 
Q 3022 1394 3022 966 
Q 3022 478 2636 193 
Q 2250 -91 1575 -91 
Q 1294 -91 989 -36 
Q 684 19 347 128 
L 347 722 
Q 666 556 975 473 
Q 1284 391 1588 391 
Q 1994 391 2212 530 
Q 2431 669 2431 922 
Q 2431 1156 2273 1281 
Q 2116 1406 1581 1522 
L 1381 1569 
Q 847 1681 609 1914 
Q 372 2147 372 2553 
Q 372 3047 722 3315 
Q 1072 3584 1716 3584 
Q 2034 3584 2315 3537 
Q 2597 3491 2834 3397 
z
" transform="scale(0.015625)"/>
       <path id="DejaVuSans-79" d="M 2059 -325 
Q 1816 -950 1584 -1140 
Q 1353 -1331 966 -1331 
L 506 -1331 
L 506 -850 
L 844 -850 
Q 1081 -850 1212 -737 
Q 1344 -625 1503 -206 
L 1606 56 
L 191 3500 
L 800 3500 
L 1894 763 
L 2988 3500 
L 3597 3500 
L 2059 -325 
z
" transform="scale(0.015625)"/>
      </defs>
      <use xlink:href="#DejaVuSans-4e"/>
      <use xlink:href="#DejaVuSans-6f" transform="translate(74.804688 0)"/>
      <use xlink:href="#DejaVuSans-72" transform="translate(135.986328 0)"/>
      <use xlink:href="#DejaVuSans-6d" transform="translate(175.349609 0)"/>
      <use xlink:href="#DejaVuSans-61" transform="translate(272.761719 0)"/>
      <use xlink:href="#DejaVuSans-6c" transform="translate(334.041016 0)"/>
      <use xlink:href="#DejaVuSans-69" transform="translate(361.824219 0)"/>
      <use xlink:href="#DejaVuSans-7a" transform="translate(389.607422 0)"/>
      <use xlink:href="#DejaVuSans-65" transform="translate(442.097656 0)"/>
      <use xlink:href="#DejaVuSans-64" transform="translate(503.621094 0)"/>
      <use xlink:href="#DejaVuSans-20" transform="translate(567.097656 0)"/>
      <use xlink:href="#DejaVuSans-49" transform="translate(598.884766 0)"/>
      <use xlink:href="#DejaVuSans-6e" transform="translate(628.376953 0)"/>
      <use xlink:href="#DejaVuSans-74" transform="translate(691.755859 0)"/>
      <use xlink:href="#DejaVuSans-65" transform="translate(730.964844 0)"/>
      <use xlink:href="#DejaVuSans-6e" transform="translate(792.488281 0)"/>
      <use xlink:href="#DejaVuSans-73" transform="translate(855.867188 0)"/>
      <use xlink:href="#DejaVuSans-69" transform="translate(907.966797 0)"/>
      <use xlink:href="#DejaVuSans-74" transform="translate(935.75 0)"/>
      <use xlink:href="#DejaVuSans-79" transform="translate(974.958984 0)"/>
     </g>
    </g>
   </g>
   <g id="line2d_13">
    <path d="M 84.332727 510.802362 
L 155.235505 510.708256 
L 163.792736 510.586929 
L 165.015198 510.401636 
L 167.460121 509.694958 
L 169.905045 508.954818 
L 171.127506 508.741468 
L 172.349968 508.669887 
L 174.794891 508.879452 
L 178.462277 509.609361 
L 180.9072 510.099755 
L 182.129662 510.247015 
L 183.352123 510.224241 
L 185.797047 509.921496 
L 187.019508 510.081473 
L 188.24197 510.46234 
L 189.464432 510.695974 
L 190.686893 510.450111 
L 194.354278 508.484514 
L 195.57674 508.386186 
L 196.799202 508.612543 
L 199.244125 509.348172 
L 200.466587 509.60678 
L 202.91151 509.810931 
L 209.023818 509.793272 
L 215.136127 509.669752 
L 220.025974 509.971533 
L 223.693359 509.983547 
L 226.138282 510.100291 
L 227.360744 509.972271 
L 228.583205 509.56731 
L 229.805667 508.873891 
L 232.25059 507.231856 
L 233.473052 506.692722 
L 234.695514 506.484317 
L 235.917975 506.564624 
L 242.030284 507.829464 
L 249.365054 508.601094 
L 253.032439 508.787642 
L 257.922286 508.962382 
L 261.589671 509.331087 
L 264.034594 509.564216 
L 265.257056 509.531931 
L 266.479517 509.290584 
L 267.701979 508.805658 
L 270.146902 507.581925 
L 271.369364 507.273379 
L 272.591826 507.335285 
L 273.814287 507.698886 
L 277.481672 509.116639 
L 279.926596 509.630346 
L 282.371519 509.810096 
L 283.593981 509.777289 
L 284.816443 509.612569 
L 286.038904 509.238412 
L 289.706289 507.428045 
L 290.928751 507.205631 
L 292.151213 507.273371 
L 297.041059 508.293967 
L 299.485983 508.362049 
L 303.153368 508.169795 
L 304.375829 507.85075 
L 306.820753 506.894779 
L 308.043214 506.751025 
L 309.265676 507.019315 
L 312.933061 508.713715 
L 314.155523 509.037273 
L 315.377985 509.185704 
L 316.600446 509.198126 
L 319.04537 508.910452 
L 321.490293 508.521542 
L 323.935216 508.254511 
L 325.157678 507.799593 
L 326.38014 506.950086 
L 328.825063 504.997259 
L 331.269986 503.767933 
L 332.492448 503.343262 
L 333.71491 503.275557 
L 334.937371 503.755723 
L 338.604756 506.602134 
L 339.827218 507.061001 
L 341.04968 507.187368 
L 352.051835 507.088597 
L 354.496758 507.461707 
L 358.164143 508.174033 
L 360.609067 508.326535 
L 364.276452 508.379339 
L 367.943837 508.590422 
L 370.38876 508.465223 
L 374.056145 508.070414 
L 376.501068 508.083175 
L 381.390915 508.342371 
L 388.725685 508.243961 
L 391.170609 507.770899 
L 393.615532 507.314424 
L 396.060455 506.884371 
L 397.282917 506.615715 
L 398.505379 506.464245 
L 399.72784 506.529935 
L 404.617687 507.502648 
L 407.06261 507.369488 
L 408.285072 507.025063 
L 409.507534 506.134285 
L 410.729995 504.531106 
L 411.952457 502.659285 
L 413.174919 501.376918 
L 414.39738 501.245843 
L 415.619842 502.147121 
L 418.064766 504.825359 
L 419.287227 505.791393 
L 420.509689 506.42339 
L 421.732151 506.585329 
L 422.954612 504.290249 
L 424.177074 493.276346 
L 425.399536 465.321287 
L 426.621997 419.640144 
L 427.844459 369.150105 
L 429.066921 333.698518 
L 430.289382 326.454509 
L 431.511844 346.672977 
L 435.179229 454.055721 
L 436.401691 475.93529 
L 437.624152 488.710121 
L 438.846614 495.356854 
L 440.069076 498.707604 
L 441.291537 500.609487 
L 442.513999 501.948324 
L 443.736461 503.00233 
L 444.958922 503.794352 
L 446.181384 504.331034 
L 449.848769 505.318854 
L 452.293693 505.753828 
L 454.738616 506.089049 
L 457.183539 506.859335 
L 459.628463 507.62822 
L 460.850924 507.808552 
L 464.518309 507.836725 
L 466.963233 507.783439 
L 473.075541 506.970619 
L 474.298003 506.777452 
L 475.520464 506.750331 
L 476.742926 506.988471 
L 481.632773 508.800346 
L 484.077696 509.214517 
L 487.745081 509.466687 
L 497.524775 509.651197 
L 506.082006 509.909075 
L 512.194315 510.000487 
L 517.084161 510.12562 
L 520.751547 509.866238 
L 523.19647 509.812292 
L 529.308778 510.016884 
L 534.198625 510.293242 
L 537.86601 510.413749 
L 561.092782 510.563774 
L 565.982629 510.585012 
L 572.094937 510.521017 
L 580.652169 510.6457 
L 590.431862 510.633789 
L 597.766632 510.747361 
L 601.434017 510.668085 
L 606.323864 510.38918 
L 609.991249 510.581131 
L 613.658634 510.761199 
L 624.660789 510.836131 
L 636.885406 510.819023 
L 645.442638 510.784994 
L 651.554946 510.836872 
L 657.667255 510.616065 
L 666.224486 510.87557 
L 693.118643 510.908621 
L 816.587273 510.970983 
L 816.587273 510.970983 
" clip-path="url(#p08ef9f8559)" style="fill: none; stroke: #0000ff; stroke-width: 1.5; stroke-linecap: square"/>
   </g>
   <g id="line2d_14">
    <path d="M 189.691076 234.253534 
L 192.406408 234.033897 
L 192.406408 233.995562 
L 193.084874 234.001865 
L 193.084874 233.874452 
L 193.762362 233.924566 
L 193.762362 233.823359 
L 194.101718 233.939252 
L 194.101718 233.80333 
L 194.440095 233.910865 
L 194.440095 233.788383 
L 194.779451 233.903397 
L 194.779451 233.76665 
L 195.126385 233.915981 
L 195.126385 233.811354 
L 195.465007 233.939784 
L 195.465007 233.807639 
L 196.143229 233.947327 
L 196.143229 233.859304 
L 196.825362 234.004441 
L 196.825362 233.941114 
L 197.506274 234.074373 
L 197.506274 233.989181 
L 197.844651 234.0684 
L 197.844651 234.000338 
L 198.864428 234.022964 
L 198.864428 234.043552 
L 199.543873 234.108007 
L 200.576119 234.068455 
L 205.361568 234.193537 
L 232.081891 234.080968 
L 232.081891 234.044857 
L 240.796575 233.926008 
L 241.149133 234.038863 
L 241.149133 233.936916 
L 241.500224 234.028639 
L 241.500224 233.933828 
L 242.202162 234.013262 
L 242.202162 233.92889 
L 242.902632 234.031616 
L 242.902632 233.941354 
L 243.600414 234.017707 
L 243.600414 233.936992 
L 244.298684 234.032455 
L 244.298684 233.936802 
L 244.996954 234.022807 
L 244.996954 233.965427 
L 245.697913 234.066218 
L 245.697913 233.9998 
L 246.404985 234.073534 
L 246.404985 233.993812 
L 246.755343 234.061259 
L 246.755343 233.977789 
L 247.80886 233.961574 
L 248.515932 234.033146 
L 248.515932 233.953477 
L 249.221048 234.068239 
L 249.221048 234.01741 
L 249.926164 234.075339 
L 249.926164 234.010589 
L 250.624434 234.082601 
L 250.624434 234.016092 
L 251.333217 234.080018 
L 251.333217 234.019506 
L 252.041022 234.087922 
L 252.041022 234.030571 
L 252.747116 234.093702 
L 252.747116 234.030093 
L 253.455411 234.087833 
L 253.455411 234.027509 
L 254.162727 234.104089 
L 254.162727 234.047298 
L 254.868332 234.110901 
L 254.868332 234.052438 
L 255.573937 234.107067 
L 255.573937 234.052153 
L 263.043422 234.160011 
L 263.043422 234.137785 
L 263.753672 234.179219 
L 263.753672 234.141784 
L 265.538466 234.184677 
L 265.538466 234.155389 
L 266.6201 234.146184 
L 298.672068 234.267028 
L 392.435856 234.14619 
L 395.698607 234.100693 
L 395.698607 234.107451 
L 417.677245 234.234738 
L 417.677245 234.201386 
L 419.449326 233.90509 
L 419.449326 233.741564 
L 419.804817 233.812633 
L 419.804817 233.619865 
L 420.164955 233.732762 
L 420.164955 233.533988 
L 420.520447 233.678668 
L 420.520447 233.472614 
L 420.876427 233.642725 
L 420.876427 233.434005 
L 421.233142 233.622846 
L 421.233142 233.415302 
L 421.590101 233.619799 
L 421.590101 233.436482 
L 421.947304 233.651596 
L 421.947304 233.498117 
L 422.305241 233.710731 
L 422.305241 233.571443 
L 422.668801 233.770266 
L 422.668801 233.639412 
L 423.026493 233.819055 
L 423.026493 233.688481 
L 423.383452 233.844815 
L 423.383452 233.740157 
L 424.100548 233.903903 
L 424.100548 233.809825 
L 424.8196 233.967609 
L 424.8196 233.884512 
L 425.540852 233.993552 
L 425.540852 233.892008 
L 425.902212 233.969691 
L 425.902212 233.843286 
L 426.263083 233.866899 
L 426.263083 233.470378 
L 426.622731 233.281521 
L 426.622731 232.092641 
L 426.978712 231.515586 
L 426.978712 228.232121 
L 427.329803 226.849366 
L 427.329803 220.737199 
L 427.681383 219.761093 
L 427.681383 209.188752 
L 428.021471 209.012328 
L 428.021471 196.353232 
L 428.355692 178.003547 
L 428.687224 149.068839 
L 429.020712 152.481766 
L 429.020712 125.743267 
L 429.350287 131.742558 
L 429.350287 120.014742 
L 429.679129 106.400284 
L 430.007972 64.3687 
L 430.336325 85.640812 
L 430.336325 49.932727 
L 430.664434 78.166177 
L 430.664434 76.128332 
L 430.993031 117.255322 
L 430.993031 77.19544 
L 431.32114 112.447986 
L 431.32114 74.512778 
L 431.649249 67.994849 
L 431.977113 67.223763 
L 431.977113 69.113473 
L 432.305222 67.206974 
L 432.305222 73.984529 
L 432.638709 118.509386 
L 432.638709 85.605513 
L 432.966818 122.205122 
L 432.966818 91.132915 
L 433.295171 121.967798 
L 433.295171 90.94366 
L 433.62328 123.427935 
L 433.62328 96.251919 
L 433.951877 128.705271 
L 433.951877 101.26892 
L 434.280475 133.692965 
L 434.280475 108.444686 
L 434.609317 138.988358 
L 434.609317 114.00517 
L 434.937671 142.718997 
L 434.937671 118.904635 
L 435.266757 148.034085 
L 435.266757 123.883363 
L 435.596088 150.599496 
L 435.596088 130.56068 
L 435.925175 156.129967 
L 435.925175 138.288797 
L 436.254995 163.096967 
L 436.254995 147.756841 
L 436.584326 170.198009 
L 436.584326 151.578723 
L 436.914147 171.066876 
L 436.914147 154.537569 
L 437.244456 173.283898 
L 437.244456 157.222339 
L 437.583078 177.661446 
L 437.583078 162.728476 
L 437.913631 181.860782 
L 437.913631 168.532096 
L 438.244185 186.179876 
L 438.244185 173.055292 
L 438.575228 189.046888 
L 438.575228 176.549137 
L 438.906515 191.31474 
L 438.906515 179.943989 
L 439.238535 193.712222 
L 439.238535 183.24107 
L 439.571534 196.469609 
L 439.571534 186.712128 
L 439.903554 186.980706 
L 440.237042 187.623129 
L 440.237042 189.867183 
L 440.570285 179.567419 
L 440.903773 189.876043 
L 440.903773 194.545044 
L 441.237994 194.705616 
L 441.237994 195.981483 
L 441.572948 207.204938 
L 441.572948 200.879626 
L 441.910103 208.875868 
L 441.910103 201.970814 
L 442.245302 210.602791 
L 442.245302 204.545341 
L 442.585635 211.476817 
L 442.585635 205.541339 
L 442.922546 213.066374 
L 442.922546 206.466797 
L 443.258723 213.229493 
L 443.258723 207.136083 
L 443.596122 213.34692 
L 443.596122 207.86381 
L 443.935967 214.264953 
L 443.935967 208.674628 
L 444.274833 214.96865 
L 444.274833 209.646162 
L 444.612966 215.51997 
L 444.612966 211.123252 
L 444.953544 217.048993 
L 444.953544 212.256418 
L 445.292654 217.784442 
L 445.292654 213.603607 
L 445.632499 218.654682 
L 445.632499 214.122024 
L 445.972832 219.28653 
L 445.972832 215.420569 
L 446.312921 219.74336 
L 446.312921 215.597809 
L 446.654721 220.1893 
L 446.654721 216.22997 
L 446.998478 220.273376 
L 446.998478 216.777982 
L 447.341256 221.182503 
L 447.341256 217.509684 
L 447.687946 221.589704 
L 447.687946 217.87902 
L 448.034636 221.363722 
L 448.034636 218.095785 
L 448.376192 221.98013 
L 448.376192 218.815043 
L 448.718481 222.663882 
L 448.718481 219.418075 
L 449.064682 222.816103 
L 449.064682 219.917577 
L 449.410639 223.216305 
L 449.410639 220.360354 
L 449.755618 223.967861 
L 449.755618 221.231083 
L 450.100107 224.246962 
L 450.100107 221.49028 
L 450.44802 224.491955 
L 450.44802 221.726715 
L 450.796666 224.651574 
L 450.796666 221.967564 
L 451.142623 224.76823 
L 451.142623 222.175552 
L 451.491269 225.033834 
L 451.491269 222.581015 
L 451.838448 225.394625 
L 451.838448 223.208331 
L 452.188072 225.968746 
L 452.188072 223.604937 
L 452.538185 226.050219 
L 452.538185 223.70243 
L 452.892699 226.086277 
L 452.892699 223.713078 
L 453.243301 226.236222 
L 453.243301 224.117891 
L 453.593658 226.597035 
L 453.593658 224.534594 
L 453.943038 226.977623 
L 453.943038 225.056144 
L 454.293884 227.308093 
L 454.293884 225.517882 
L 454.644486 227.692794 
L 454.644486 226.019253 
L 454.995333 228.052892 
L 454.995333 226.324505 
L 455.34838 228.383027 
L 455.34838 226.477454 
L 455.699715 228.290382 
L 455.699715 226.663465 
L 456.050317 228.572193 
L 456.050317 226.969146 
L 456.401408 228.986492 
L 456.401408 227.352924 
L 456.752744 229.068081 
L 456.752744 227.543806 
L 457.104079 229.049779 
L 457.104079 227.626937 
L 457.455904 229.24829 
L 457.455904 227.733283 
L 457.81653 229.280876 
L 457.81653 227.939263 
L 458.168599 229.424082 
L 458.168599 228.042129 
L 458.521401 229.623869 
L 458.521401 228.362194 
L 458.874448 229.790456 
L 458.874448 228.627071 
L 459.228229 230.107108 
L 459.228229 228.974907 
L 459.583232 230.24767 
L 459.583232 229.171429 
L 459.937256 230.35906 
L 459.937256 229.299594 
L 460.292748 230.445541 
L 460.292748 229.290768 
L 460.648729 230.406921 
L 460.648729 229.340715 
L 461.005688 230.453582 
L 461.005688 229.560143 
L 461.361424 230.79329 
L 461.361424 229.855771 
L 461.717894 230.956012 
L 461.717894 230.066423 
L 462.07632 230.995828 
L 462.07632 230.069052 
L 462.434746 231.048339 
L 462.434746 230.251463 
L 462.797817 231.173601 
L 462.797817 230.364315 
L 463.155998 231.330508 
L 463.155998 230.509135 
L 463.514179 231.361311 
L 463.514179 230.671161 
L 463.872361 231.516925 
L 463.872361 230.711387 
L 464.230297 231.571567 
L 464.230297 230.815227 
L 464.588723 231.585639 
L 464.588723 230.921884 
L 464.946904 231.733747 
L 464.946904 231.057348 
L 465.304597 231.838585 
L 465.304597 231.138991 
L 465.662044 231.809273 
L 465.662044 231.202514 
L 466.019981 231.975524 
L 466.019981 231.272566 
L 466.377674 232.032859 
L 466.377674 231.39812 
L 466.736344 232.045509 
L 466.736344 231.399281 
L 467.09477 232.158686 
L 467.09477 231.499966 
L 467.455151 232.202514 
L 467.455151 231.563354 
L 467.824335 232.176533 
L 467.824335 231.561668 
L 468.184227 232.167651 
L 468.184227 231.646032 
L 468.545098 232.296675 
L 468.545098 231.741417 
L 468.904991 232.360386 
L 468.904991 231.854085 
L 469.266106 232.390632 
L 469.266106 231.86732 
L 469.627955 232.489033 
L 469.627955 231.96077 
L 469.989314 232.520901 
L 469.989314 231.999396 
L 470.348963 232.541944 
L 470.348963 232.038222 
L 470.709344 232.619462 
L 470.709344 232.051071 
L 471.070215 232.574506 
L 471.070215 232.075239 
L 471.431819 232.57886 
L 471.431819 232.01638 
L 471.793668 232.604171 
L 471.793668 232.162824 
L 472.155761 232.703458 
L 472.155761 232.215261 
L 472.516632 232.767814 
L 472.516632 232.298318 
L 472.883859 232.790941 
L 472.883859 232.341643 
L 473.246441 232.841901 
L 473.246441 232.403061 
L 473.608779 232.875129 
L 473.608779 232.456599 
L 473.977473 232.915538 
L 473.977473 232.472094 
L 474.339077 232.907811 
L 474.339077 232.532936 
L 474.700926 232.947058 
L 474.700926 232.579077 
L 475.06253 232.988089 
L 475.06253 232.625391 
L 475.422423 233.037186 
L 475.422423 232.669827 
L 475.783049 233.037343 
L 475.783049 232.702141 
L 476.140986 233.084638 
L 476.140986 232.708071 
L 476.501612 233.098212 
L 476.501612 232.757372 
L 476.861016 233.136947 
L 476.861016 232.808096 
L 477.218464 233.181241 
L 477.218464 232.8484 
L 477.575911 233.198416 
L 477.575911 232.873921 
L 477.939961 233.218291 
L 477.939961 232.921311 
L 478.296919 233.251514 
L 478.296919 232.942498 
L 478.655101 233.263728 
L 478.655101 232.968589 
L 479.014749 233.251688 
L 479.014749 232.960876 
L 479.374397 233.290649 
L 479.374397 232.986595 
L 479.73429 233.281876 
L 479.73429 233.012488 
L 480.095894 233.336199 
L 480.095894 232.998776 
L 480.457498 233.333055 
L 480.457498 233.037208 
L 480.819591 233.342093 
L 480.819591 233.034194 
L 481.182418 233.378603 
L 481.182418 233.090672 
L 481.545 233.400303 
L 481.545 233.121429 
L 481.907338 233.405527 
L 481.907338 233.120404 
L 482.26992 233.376879 
L 482.26992 233.137446 
L 482.632502 233.407866 
L 482.632502 233.163526 
L 483.000463 233.441155 
L 483.000463 233.218543 
L 483.363534 233.45457 
L 483.363534 233.215841 
L 483.726361 233.484925 
L 483.726361 233.254714 
L 484.088943 233.495016 
L 484.088943 233.268089 
L 484.451525 233.52447 
L 484.451525 233.29311 
L 484.813863 233.542223 
L 484.813863 233.329458 
L 485.176445 233.564322 
L 485.176445 233.320508 
L 485.542694 233.556342 
L 485.542694 233.339915 
L 485.905276 233.553193 
L 485.905276 233.362905 
L 486.269081 233.595819 
L 486.269081 233.401358 
L 486.631663 233.61765 
L 486.631663 233.410452 
L 486.994245 233.622298 
L 486.994245 233.396757 
L 487.357072 233.594715 
L 487.357072 233.383605 
L 487.719654 233.611106 
L 487.719654 233.400391 
L 488.087615 233.62673 
L 488.087615 233.427137 
L 488.450197 233.639303 
L 488.450197 233.41426 
L 488.812779 233.605608 
L 488.812779 233.406643 
L 489.175361 233.599583 
L 489.175361 233.404598 
L 489.537943 233.619408 
L 489.537943 233.442689 
L 489.900526 233.641871 
L 489.900526 233.473296 
L 490.263108 233.674689 
L 490.263108 233.487774 
L 490.62569 233.672071 
L 490.62569 233.498319 
L 490.988517 233.694267 
L 490.988517 233.510775 
L 491.351099 233.708432 
L 491.351099 233.54279 
L 491.713436 233.72472 
L 491.713436 233.542526 
L 492.076018 233.725417 
L 492.076018 233.548887 
L 492.438601 233.714791 
L 492.438601 233.559521 
L 492.801427 233.723006 
L 492.801427 233.570461 
L 493.169633 233.748858 
L 493.169633 233.596283 
L 493.534415 233.75297 
L 493.534415 233.612349 
L 493.897242 233.770704 
L 493.897242 233.6132 
L 494.259824 233.769268 
L 494.259824 233.623678 
L 494.622406 233.780247 
L 494.622406 233.627315 
L 494.984988 233.785924 
L 494.984988 233.654889 
L 495.350749 233.802532 
L 495.350749 233.65259 
L 495.713331 233.818071 
L 495.713331 233.675112 
L 496.075913 233.826605 
L 496.075913 233.699763 
L 496.438495 233.849608 
L 496.438495 233.708153 
L 496.801077 233.863297 
L 496.801077 233.703693 
L 497.163415 233.83129 
L 497.163415 233.684301 
L 497.525997 233.82733 
L 497.525997 233.684451 
L 498.256785 233.86998 
L 498.256785 233.717826 
L 498.619367 233.856783 
L 498.619367 233.738067 
L 498.981949 233.854196 
L 498.981949 233.724835 
L 499.344531 233.869453 
L 499.344531 233.73445 
L 499.707113 233.860339 
L 499.707113 233.738869 
L 500.069451 233.864867 
L 500.069451 233.737171 
L 500.432033 233.883814 
L 500.432033 233.766273 
L 500.796082 233.90771 
L 500.796082 233.783176 
L 501.158664 233.920002 
L 501.158664 233.792091 
L 501.521002 233.919116 
L 501.521002 233.783378 
L 502.246166 233.920396 
L 502.246166 233.796772 
L 502.971086 233.930295 
L 502.971086 233.808144 
L 503.705052 233.931782 
L 503.705052 233.797479 
L 504.067879 233.921917 
L 504.067879 233.808389 
L 504.793043 233.940402 
L 504.793043 233.813381 
L 505.15538 233.933865 
L 505.15538 233.812439 
L 505.880789 233.95272 
L 505.880789 233.847955 
L 506.243371 233.959832 
L 506.243371 233.860417 
L 506.968536 233.952188 
L 506.968536 233.864881 
L 507.693455 233.985639 
L 507.693455 233.880187 
L 508.425465 233.977422 
L 508.425465 233.873843 
L 509.15063 233.991501 
L 509.15063 233.884156 
L 509.512967 233.987816 
L 509.512967 233.892255 
L 510.237887 234.012302 
L 510.237887 233.916533 
L 510.963051 234.002661 
L 510.963051 233.915023 
L 511.687727 234.012785 
L 511.687727 233.930014 
L 512.412646 234.008083 
L 512.412646 233.93583 
L 513.137811 234.029218 
L 513.137811 233.951255 
L 513.871288 234.031836 
L 513.871288 233.942134 
L 514.596207 234.028713 
L 514.596207 233.934727 
L 515.321861 234.00449 
L 515.321861 233.918923 
L 516.047025 234.034476 
L 516.047025 233.951329 
L 516.771945 234.036219 
L 516.771945 233.957882 
L 517.49662 234.046295 
L 517.49662 233.970421 
L 518.222029 234.054167 
L 518.222029 233.98043 
L 518.952327 234.056157 
L 518.952327 233.986403 
L 519.677003 234.059646 
L 519.677003 233.997187 
L 520.402167 234.066179 
L 520.402167 233.988677 
L 521.126842 234.069305 
L 521.126842 234.00232 
L 521.851762 234.081288 
L 521.851762 234.00446 
L 522.582061 234.063947 
L 522.582061 233.995207 
L 523.30698 234.087168 
L 523.30698 234.033678 
L 524.037279 234.088992 
L 524.037279 234.028189 
L 525.124536 234.093983 
L 525.124536 234.032545 
L 525.849945 234.092154 
L 525.849945 234.027716 
L 526.574865 234.096703 
L 526.574865 234.035805 
L 527.299785 234.099474 
L 527.299785 234.037901 
L 528.387287 234.10533 
L 528.387287 234.048816 
L 529.479678 234.113701 
L 529.479678 234.056271 
L 530.20631 234.097879 
L 530.20631 234.027145 
L 531.293567 234.116092 
L 531.293567 234.059804 
L 532.018487 234.113606 
L 532.018487 234.05558 
L 533.105744 234.108248 
L 533.105744 234.061885 
L 533.836043 234.123099 
L 533.836043 234.062623 
L 534.926479 234.118289 
L 534.926479 234.060691 
L 536.013981 234.127281 
L 536.013981 234.076641 
L 537.10246 234.126541 
L 537.10246 234.076057 
L 538.189962 234.131511 
L 538.189962 234.084189 
L 538.920261 234.127061 
L 538.920261 234.068837 
L 540.007763 234.121576 
L 540.007763 234.071605 
L 541.09502 234.123986 
L 541.09502 234.076632 
L 541.823118 234.135503 
L 541.823118 234.08034 
L 542.91062 234.133737 
L 542.91062 234.092541 
L 544.003257 234.133055 
L 544.003257 234.083459 
L 544.729399 234.124593 
L 544.729399 234.083365 
L 546.178994 234.098632 
L 547.266496 234.138519 
L 547.266496 234.094376 
L 548.353753 234.150339 
L 548.353753 234.102583 
L 549.446878 234.152639 
L 549.446878 234.11017 
L 550.534136 234.155432 
L 550.534136 234.114907 
L 551.625794 234.146177 
L 551.625794 234.104878 
L 552.713296 234.151084 
L 552.713296 234.110119 
L 553.800798 234.160815 
L 553.800798 234.111587 
L 554.893434 234.152873 
L 554.893434 234.111103 
L 557.080418 234.113171 
L 558.167676 234.151799 
L 558.167676 234.106641 
L 559.260556 234.157393 
L 559.260556 234.117038 
L 560.347814 234.163584 
L 560.347814 234.127752 
L 561.435071 234.163676 
L 561.435071 234.117827 
L 562.163658 234.151739 
L 562.163658 234.114195 
L 580.681263 234.127128 
L 581.771699 234.157699 
L 581.771699 234.162708 
L 582.859201 234.158417 
L 582.859201 234.157955 
L 603.550343 234.183506 
L 605.005561 234.209158 
L 605.005561 234.185705 
L 606.455401 234.212377 
L 606.455401 234.185864 
L 608.267578 234.212178 
L 608.267578 234.185402 
L 609.71864 234.21092 
L 609.71864 234.186657 
L 629.320569 234.197184 
L 630.775543 234.221537 
L 630.775543 234.205121 
L 717.209207 234.231972 
L 717.209207 234.232815 
L 719.384699 234.228375 
L 736.812357 234.235954 
L 736.812357 234.236973 
L 750.975554 234.22269 
L 750.975554 234.21426 
L 761.870377 234.236427 
L 761.870377 234.227006 
L 771.314627 234.238878 
L 771.314627 234.233104 
L 774.588379 234.238199 
L 774.588379 234.232531 
L 781.120481 234.235085 
L 784.75486 234.238736 
L 790.561064 234.243057 
L 790.561064 234.238713 
L 812.798131 234.217584 
L 812.798131 234.217584 
" clip-path="url(#p08ef9f8559)" style="fill: none; stroke: #008000; stroke-width: 1.5; stroke-linecap: square"/>
   </g>
   <g id="patch_3">
    <path d="M 47.72 534.04 
L 47.72 26.88 
" style="fill: none; stroke: #000000; stroke-width: 0.8; stroke-linejoin: miter; stroke-linecap: square"/>
   </g>
   <g id="patch_4">
    <path d="M 853.2 534.04 
L 853.2 26.88 
" style="fill: none; stroke: #000000; stroke-width: 0.8; stroke-linejoin: miter; stroke-linecap: square"/>
   </g>
   <g id="patch_5">
    <path d="M 47.72 534.04 
L 853.2 534.04 
" style="fill: none; stroke: #000000; stroke-width: 0.8; stroke-linejoin: miter; stroke-linecap: square"/>
   </g>
   <g id="patch_6">
    <path d="M 47.72 26.88 
L 853.2 26.88 
" style="fill: none; stroke: #000000; stroke-width: 0.8; stroke-linejoin: miter; stroke-linecap: square"/>
   </g>
   <g id="patch_7">
    <path d="M 498.40026 313.316236 
Q 472.248966 319.147462 446.097673 324.978687 
L 446.968215 328.882808 
Q 440.460716 327.260176 433.953217 325.637545 
Q 439.154902 321.403996 444.356588 317.170446 
L 445.22713 321.074567 
Q 471.378424 315.243341 497.529718 309.412116 
L 498.40026 313.316236 
z
" style="stroke: #000000; stroke-linecap: round"/>
   </g>
   <g id="text_15">
    <!-- Peak: RT=2.37, Area=1.57e+04 -->
    <g style="fill: #ff0000" transform="translate(503.637083 296.821911) scale(0.1 -0.1)">
     <defs>
      <path id="DejaVuSans-50" d="M 1259 4147 
L 1259 2394 
L 2053 2394 
Q 2494 2394 2734 2622 
Q 2975 2850 2975 3272 
Q 2975 3691 2734 3919 
Q 2494 4147 2053 4147 
L 1259 4147 
z
M 628 4666 
L 2053 4666 
Q 2838 4666 3239 4311 
Q 3641 3956 3641 3272 
Q 3641 2581 3239 2228 
Q 2838 1875 2053 1875 
L 1259 1875 
L 1259 0 
L 628 0 
L 628 4666 
z
" transform="scale(0.015625)"/>
      <path id="DejaVuSans-6b" d="M 581 4863 
L 1159 4863 
L 1159 1991 
L 2875 3500 
L 3609 3500 
L 1753 1863 
L 3688 0 
L 2938 0 
L 1159 1709 
L 1159 0 
L 581 0 
L 581 4863 
z
" transform="scale(0.015625)"/>
      <path id="DejaVuSans-3a" d="M 750 794 
L 1409 794 
L 1409 0 
L 750 0 
L 750 794 
z
M 750 3309 
L 1409 3309 
L 1409 2516 
L 750 2516 
L 750 3309 
z
" transform="scale(0.015625)"/>
      <path id="DejaVuSans-3d" d="M 678 2906 
L 4684 2906 
L 4684 2381 
L 678 2381 
L 678 2906 
z
M 678 1631 
L 4684 1631 
L 4684 1100 
L 678 1100 
L 678 1631 
z
" transform="scale(0.015625)"/>
      <path id="DejaVuSans-37" d="M 525 4666 
L 3525 4666 
L 3525 4397 
L 1831 0 
L 1172 0 
L 2766 4134 
L 525 4134 
L 525 4666 
z
" transform="scale(0.015625)"/>
      <path id="DejaVuSans-2c" d="M 750 794 
L 1409 794 
L 1409 256 
L 897 -744 
L 494 -744 
L 750 256 
L 750 794 
z
" transform="scale(0.015625)"/>
      <path id="DejaVuSans-41" d="M 2188 4044 
L 1331 1722 
L 3047 1722 
L 2188 4044 
z
M 1831 4666 
L 2547 4666 
L 4325 0 
L 3669 0 
L 3244 1197 
L 1141 1197 
L 716 0 
L 50 0 
L 1831 4666 
z
" transform="scale(0.015625)"/>
      <path id="DejaVuSans-2b" d="M 2944 4013 
L 2944 2272 
L 4684 2272 
L 4684 1741 
L 2944 1741 
L 2944 0 
L 2419 0 
L 2419 1741 
L 678 1741 
L 678 2272 
L 2419 2272 
L 2419 4013 
L 2944 4013 
z
" transform="scale(0.015625)"/>
     </defs>
     <use xlink:href="#DejaVuSans-50"/>
     <use xlink:href="#DejaVuSans-65" transform="translate(56.677734 0)"/>
     <use xlink:href="#DejaVuSans-61" transform="translate(118.201172 0)"/>
     <use xlink:href="#DejaVuSans-6b" transform="translate(179.480469 0)"/>
     <use xlink:href="#DejaVuSans-3a" transform="translate(237.390625 0)"/>
     <use xlink:href="#DejaVuSans-20" transform="translate(271.082031 0)"/>
     <use xlink:href="#DejaVuSans-52" transform="translate(302.869141 0)"/>
     <use xlink:href="#DejaVuSans-54" transform="translate(365.101562 0)"/>
     <use xlink:href="#DejaVuSans-3d" transform="translate(426.185547 0)"/>
     <use xlink:href="#DejaVuSans-32" transform="translate(509.974609 0)"/>
     <use xlink:href="#DejaVuSans-2e" transform="translate(573.597656 0)"/>
     <use xlink:href="#DejaVuSans-33" transform="translate(605.384766 0)"/>
     <use xlink:href="#DejaVuSans-37" transform="translate(669.007812 0)"/>
     <use xlink:href="#DejaVuSans-2c" transform="translate(732.630859 0)"/>
     <use xlink:href="#DejaVuSans-20" transform="translate(764.417969 0)"/>
     <use xlink:href="#DejaVuSans-41" transform="translate(796.205078 0)"/>
     <use xlink:href="#DejaVuSans-72" transform="translate(864.613281 0)"/>
     <use xlink:href="#DejaVuSans-65" transform="translate(903.476562 0)"/>
     <use xlink:href="#DejaVuSans-61" transform="translate(965 0)"/>
     <use xlink:href="#DejaVuSans-3d" transform="translate(1026.279297 0)"/>
     <use xlink:href="#DejaVuSans-31" transform="translate(1110.068359 0)"/>
     <use xlink:href="#DejaVuSans-2e" transform="translate(1173.691406 0)"/>
     <use xlink:href="#DejaVuSans-35" transform="translate(1205.478516 0)"/>
     <use xlink:href="#DejaVuSans-37" transform="translate(1269.101562 0)"/>
     <use xlink:href="#DejaVuSans-65" transform="translate(1332.724609 0)"/>
     <use xlink:href="#DejaVuSans-2b" transform="translate(1394.248047 0)"/>
     <use xlink:href="#DejaVuSans-30" transform="translate(1478.037109 0)"/>
     <use xlink:href="#DejaVuSans-34" transform="translate(1541.660156 0)"/>
    </g>
    <!-- (72.75% of total) -->
    <g style="fill: #ff0000" transform="translate(503.637083 308.019723) scale(0.1 -0.1)">
     <defs>
      <path id="DejaVuSans-25" d="M 4653 2053 
Q 4381 2053 4226 1822 
Q 4072 1591 4072 1178 
Q 4072 772 4226 539 
Q 4381 306 4653 306 
Q 4919 306 5073 539 
Q 5228 772 5228 1178 
Q 5228 1588 5073 1820 
Q 4919 2053 4653 2053 
z
M 4653 2450 
Q 5147 2450 5437 2106 
Q 5728 1763 5728 1178 
Q 5728 594 5436 251 
Q 5144 -91 4653 -91 
Q 4153 -91 3862 251 
Q 3572 594 3572 1178 
Q 3572 1766 3864 2108 
Q 4156 2450 4653 2450 
z
M 1428 4353 
Q 1159 4353 1004 4120 
Q 850 3888 850 3481 
Q 850 3069 1003 2837 
Q 1156 2606 1428 2606 
Q 1700 2606 1854 2837 
Q 2009 3069 2009 3481 
Q 2009 3884 1853 4118 
Q 1697 4353 1428 4353 
z
M 4250 4750 
L 4750 4750 
L 1831 -91 
L 1331 -91 
L 4250 4750 
z
M 1428 4750 
Q 1922 4750 2215 4408 
Q 2509 4066 2509 3481 
Q 2509 2891 2217 2550 
Q 1925 2209 1428 2209 
Q 931 2209 642 2551 
Q 353 2894 353 3481 
Q 353 4063 643 4406 
Q 934 4750 1428 4750 
z
" transform="scale(0.015625)"/>
      <path id="DejaVuSans-66" d="M 2375 4863 
L 2375 4384 
L 1825 4384 
Q 1516 4384 1395 4259 
Q 1275 4134 1275 3809 
L 1275 3500 
L 2222 3500 
L 2222 3053 
L 1275 3053 
L 1275 0 
L 697 0 
L 697 3053 
L 147 3053 
L 147 3500 
L 697 3500 
L 697 3744 
Q 697 4328 969 4595 
Q 1241 4863 1831 4863 
L 2375 4863 
z
" transform="scale(0.015625)"/>
     </defs>
     <use xlink:href="#DejaVuSans-28"/>
     <use xlink:href="#DejaVuSans-37" transform="translate(39.013672 0)"/>
     <use xlink:href="#DejaVuSans-32" transform="translate(102.636719 0)"/>
     <use xlink:href="#DejaVuSans-2e" transform="translate(166.259766 0)"/>
     <use xlink:href="#DejaVuSans-37" transform="translate(198.046875 0)"/>
     <use xlink:href="#DejaVuSans-35" transform="translate(261.669922 0)"/>
     <use xlink:href="#DejaVuSans-25" transform="translate(325.292969 0)"/>
     <use xlink:href="#DejaVuSans-20" transform="translate(420.3125 0)"/>
     <use xlink:href="#DejaVuSans-6f" transform="translate(452.099609 0)"/>
     <use xlink:href="#DejaVuSans-66" transform="translate(513.28125 0)"/>
     <use xlink:href="#DejaVuSans-20" transform="translate(548.486328 0)"/>
     <use xlink:href="#DejaVuSans-74" transform="translate(580.273438 0)"/>
     <use xlink:href="#DejaVuSans-6f" transform="translate(619.482422 0)"/>
     <use xlink:href="#DejaVuSans-74" transform="translate(680.664062 0)"/>
     <use xlink:href="#DejaVuSans-61" transform="translate(719.873047 0)"/>
     <use xlink:href="#DejaVuSans-6c" transform="translate(781.152344 0)"/>
     <use xlink:href="#DejaVuSans-29" transform="translate(808.935547 0)"/>
    </g>
   </g>
   <g id="text_16">
    <!-- UV &amp; MS Chromatograms: IrCp1O1, target m/z=673.1386774 -->
    <g transform="translate(265.50625 20.88) scale(0.12 -0.12)">
     <defs>
      <path id="DejaVuSans-55" d="M 556 4666 
L 1191 4666 
L 1191 1831 
Q 1191 1081 1462 751 
Q 1734 422 2344 422 
Q 2950 422 3222 751 
Q 3494 1081 3494 1831 
L 3494 4666 
L 4128 4666 
L 4128 1753 
Q 4128 841 3676 375 
Q 3225 -91 2344 -91 
Q 1459 -91 1007 375 
Q 556 841 556 1753 
L 556 4666 
z
" transform="scale(0.015625)"/>
      <path id="DejaVuSans-56" d="M 1831 0 
L 50 4666 
L 709 4666 
L 2188 738 
L 3669 4666 
L 4325 4666 
L 2547 0 
L 1831 0 
z
" transform="scale(0.015625)"/>
      <path id="DejaVuSans-26" d="M 1556 2509 
Q 1272 2256 1139 2004 
Q 1006 1753 1006 1478 
Q 1006 1022 1337 719 
Q 1669 416 2169 416 
Q 2466 416 2725 514 
Q 2984 613 3213 813 
L 1556 2509 
z
M 1997 2859 
L 3584 1234 
Q 3769 1513 3872 1830 
Q 3975 2147 3994 2503 
L 4575 2503 
Q 4538 2091 4375 1687 
Q 4213 1284 3922 891 
L 4794 0 
L 4006 0 
L 3559 459 
Q 3234 181 2878 45 
Q 2522 -91 2113 -91 
Q 1359 -91 881 339 
Q 403 769 403 1441 
Q 403 1841 612 2192 
Q 822 2544 1241 2853 
Q 1091 3050 1012 3245 
Q 934 3441 934 3628 
Q 934 4134 1281 4442 
Q 1628 4750 2203 4750 
Q 2463 4750 2720 4694 
Q 2978 4638 3244 4525 
L 3244 3956 
Q 2972 4103 2725 4179 
Q 2478 4256 2266 4256 
Q 1938 4256 1733 4082 
Q 1528 3909 1528 3634 
Q 1528 3475 1620 3314 
Q 1713 3153 1997 2859 
z
" transform="scale(0.015625)"/>
      <path id="DejaVuSans-4d" d="M 628 4666 
L 1569 4666 
L 2759 1491 
L 3956 4666 
L 4897 4666 
L 4897 0 
L 4281 0 
L 4281 4097 
L 3078 897 
L 2444 897 
L 1241 4097 
L 1241 0 
L 628 0 
L 628 4666 
z
" transform="scale(0.015625)"/>
      <path id="DejaVuSans-53" d="M 3425 4513 
L 3425 3897 
Q 3066 4069 2747 4153 
Q 2428 4238 2131 4238 
Q 1616 4238 1336 4038 
Q 1056 3838 1056 3469 
Q 1056 3159 1242 3001 
Q 1428 2844 1947 2747 
L 2328 2669 
Q 3034 2534 3370 2195 
Q 3706 1856 3706 1288 
Q 3706 609 3251 259 
Q 2797 -91 1919 -91 
Q 1588 -91 1214 -16 
Q 841 59 441 206 
L 441 856 
Q 825 641 1194 531 
Q 1563 422 1919 422 
Q 2459 422 2753 634 
Q 3047 847 3047 1241 
Q 3047 1584 2836 1778 
Q 2625 1972 2144 2069 
L 1759 2144 
Q 1053 2284 737 2584 
Q 422 2884 422 3419 
Q 422 4038 858 4394 
Q 1294 4750 2059 4750 
Q 2388 4750 2728 4690 
Q 3069 4631 3425 4513 
z
" transform="scale(0.015625)"/>
      <path id="DejaVuSans-43" d="M 4122 4306 
L 4122 3641 
Q 3803 3938 3442 4084 
Q 3081 4231 2675 4231 
Q 1875 4231 1450 3742 
Q 1025 3253 1025 2328 
Q 1025 1406 1450 917 
Q 1875 428 2675 428 
Q 3081 428 3442 575 
Q 3803 722 4122 1019 
L 4122 359 
Q 3791 134 3420 21 
Q 3050 -91 2638 -91 
Q 1578 -91 968 557 
Q 359 1206 359 2328 
Q 359 3453 968 4101 
Q 1578 4750 2638 4750 
Q 3056 4750 3426 4639 
Q 3797 4528 4122 4306 
z
" transform="scale(0.015625)"/>
      <path id="DejaVuSans-68" d="M 3513 2113 
L 3513 0 
L 2938 0 
L 2938 2094 
Q 2938 2591 2744 2837 
Q 2550 3084 2163 3084 
Q 1697 3084 1428 2787 
Q 1159 2491 1159 1978 
L 1159 0 
L 581 0 
L 581 4863 
L 1159 4863 
L 1159 2956 
Q 1366 3272 1645 3428 
Q 1925 3584 2291 3584 
Q 2894 3584 3203 3211 
Q 3513 2838 3513 2113 
z
" transform="scale(0.015625)"/>
      <path id="DejaVuSans-67" d="M 2906 1791 
Q 2906 2416 2648 2759 
Q 2391 3103 1925 3103 
Q 1463 3103 1205 2759 
Q 947 2416 947 1791 
Q 947 1169 1205 825 
Q 1463 481 1925 481 
Q 2391 481 2648 825 
Q 2906 1169 2906 1791 
z
M 3481 434 
Q 3481 -459 3084 -895 
Q 2688 -1331 1869 -1331 
Q 1566 -1331 1297 -1286 
Q 1028 -1241 775 -1147 
L 775 -588 
Q 1028 -725 1275 -790 
Q 1522 -856 1778 -856 
Q 2344 -856 2625 -561 
Q 2906 -266 2906 331 
L 2906 616 
Q 2728 306 2450 153 
Q 2172 0 1784 0 
Q 1141 0 747 490 
Q 353 981 353 1791 
Q 353 2603 747 3093 
Q 1141 3584 1784 3584 
Q 2172 3584 2450 3431 
Q 2728 3278 2906 2969 
L 2906 3500 
L 3481 3500 
L 3481 434 
z
" transform="scale(0.015625)"/>
      <path id="DejaVuSans-70" d="M 1159 525 
L 1159 -1331 
L 581 -1331 
L 581 3500 
L 1159 3500 
L 1159 2969 
Q 1341 3281 1617 3432 
Q 1894 3584 2278 3584 
Q 2916 3584 3314 3078 
Q 3713 2572 3713 1747 
Q 3713 922 3314 415 
Q 2916 -91 2278 -91 
Q 1894 -91 1617 61 
Q 1341 213 1159 525 
z
M 3116 1747 
Q 3116 2381 2855 2742 
Q 2594 3103 2138 3103 
Q 1681 3103 1420 2742 
Q 1159 2381 1159 1747 
Q 1159 1113 1420 752 
Q 1681 391 2138 391 
Q 2594 391 2855 752 
Q 3116 1113 3116 1747 
z
" transform="scale(0.015625)"/>
      <path id="DejaVuSans-4f" d="M 2522 4238 
Q 1834 4238 1429 3725 
Q 1025 3213 1025 2328 
Q 1025 1447 1429 934 
Q 1834 422 2522 422 
Q 3209 422 3611 934 
Q 4013 1447 4013 2328 
Q 4013 3213 3611 3725 
Q 3209 4238 2522 4238 
z
M 2522 4750 
Q 3503 4750 4090 4092 
Q 4678 3434 4678 2328 
Q 4678 1225 4090 567 
Q 3503 -91 2522 -91 
Q 1538 -91 948 565 
Q 359 1222 359 2328 
Q 359 3434 948 4092 
Q 1538 4750 2522 4750 
z
" transform="scale(0.015625)"/>
      <path id="DejaVuSans-2f" d="M 1625 4666 
L 2156 4666 
L 531 -594 
L 0 -594 
L 1625 4666 
z
" transform="scale(0.015625)"/>
      <path id="DejaVuSans-36" d="M 2113 2584 
Q 1688 2584 1439 2293 
Q 1191 2003 1191 1497 
Q 1191 994 1439 701 
Q 1688 409 2113 409 
Q 2538 409 2786 701 
Q 3034 994 3034 1497 
Q 3034 2003 2786 2293 
Q 2538 2584 2113 2584 
z
M 3366 4563 
L 3366 3988 
Q 3128 4100 2886 4159 
Q 2644 4219 2406 4219 
Q 1781 4219 1451 3797 
Q 1122 3375 1075 2522 
Q 1259 2794 1537 2939 
Q 1816 3084 2150 3084 
Q 2853 3084 3261 2657 
Q 3669 2231 3669 1497 
Q 3669 778 3244 343 
Q 2819 -91 2113 -91 
Q 1303 -91 875 529 
Q 447 1150 447 2328 
Q 447 3434 972 4092 
Q 1497 4750 2381 4750 
Q 2619 4750 2861 4703 
Q 3103 4656 3366 4563 
z
" transform="scale(0.015625)"/>
      <path id="DejaVuSans-38" d="M 2034 2216 
Q 1584 2216 1326 1975 
Q 1069 1734 1069 1313 
Q 1069 891 1326 650 
Q 1584 409 2034 409 
Q 2484 409 2743 651 
Q 3003 894 3003 1313 
Q 3003 1734 2745 1975 
Q 2488 2216 2034 2216 
z
M 1403 2484 
Q 997 2584 770 2862 
Q 544 3141 544 3541 
Q 544 4100 942 4425 
Q 1341 4750 2034 4750 
Q 2731 4750 3128 4425 
Q 3525 4100 3525 3541 
Q 3525 3141 3298 2862 
Q 3072 2584 2669 2484 
Q 3125 2378 3379 2068 
Q 3634 1759 3634 1313 
Q 3634 634 3220 271 
Q 2806 -91 2034 -91 
Q 1263 -91 848 271 
Q 434 634 434 1313 
Q 434 1759 690 2068 
Q 947 2378 1403 2484 
z
M 1172 3481 
Q 1172 3119 1398 2916 
Q 1625 2713 2034 2713 
Q 2441 2713 2670 2916 
Q 2900 3119 2900 3481 
Q 2900 3844 2670 4047 
Q 2441 4250 2034 4250 
Q 1625 4250 1398 4047 
Q 1172 3844 1172 3481 
z
" transform="scale(0.015625)"/>
     </defs>
     <use xlink:href="#DejaVuSans-55"/>
     <use xlink:href="#DejaVuSans-56" transform="translate(73.193359 0)"/>
     <use xlink:href="#DejaVuSans-20" transform="translate(141.601562 0)"/>
     <use xlink:href="#DejaVuSans-26" transform="translate(173.388672 0)"/>
     <use xlink:href="#DejaVuSans-20" transform="translate(251.367188 0)"/>
     <use xlink:href="#DejaVuSans-4d" transform="translate(283.154297 0)"/>
     <use xlink:href="#DejaVuSans-53" transform="translate(369.433594 0)"/>
     <use xlink:href="#DejaVuSans-20" transform="translate(432.910156 0)"/>
     <use xlink:href="#DejaVuSans-43" transform="translate(464.697266 0)"/>
     <use xlink:href="#DejaVuSans-68" transform="translate(534.521484 0)"/>
     <use xlink:href="#DejaVuSans-72" transform="translate(597.900391 0)"/>
     <use xlink:href="#DejaVuSans-6f" transform="translate(636.763672 0)"/>
     <use xlink:href="#DejaVuSans-6d" transform="translate(697.945312 0)"/>
     <use xlink:href="#DejaVuSans-61" transform="translate(795.357422 0)"/>
     <use xlink:href="#DejaVuSans-74" transform="translate(856.636719 0)"/>
     <use xlink:href="#DejaVuSans-6f" transform="translate(895.845703 0)"/>
     <use xlink:href="#DejaVuSans-67" transform="translate(957.027344 0)"/>
     <use xlink:href="#DejaVuSans-72" transform="translate(1020.503906 0)"/>
     <use xlink:href="#DejaVuSans-61" transform="translate(1061.617188 0)"/>
     <use xlink:href="#DejaVuSans-6d" transform="translate(1122.896484 0)"/>
     <use xlink:href="#DejaVuSans-73" transform="translate(1220.308594 0)"/>
     <use xlink:href="#DejaVuSans-3a" transform="translate(1272.408203 0)"/>
     <use xlink:href="#DejaVuSans-20" transform="translate(1306.099609 0)"/>
     <use xlink:href="#DejaVuSans-49" transform="translate(1337.886719 0)"/>
     <use xlink:href="#DejaVuSans-72" transform="translate(1367.378906 0)"/>
     <use xlink:href="#DejaVuSans-43" transform="translate(1408.492188 0)"/>
     <use xlink:href="#DejaVuSans-70" transform="translate(1478.316406 0)"/>
     <use xlink:href="#DejaVuSans-31" transform="translate(1541.792969 0)"/>
     <use xlink:href="#DejaVuSans-4f" transform="translate(1605.416016 0)"/>
     <use xlink:href="#DejaVuSans-31" transform="translate(1684.126953 0)"/>
     <use xlink:href="#DejaVuSans-2c" transform="translate(1747.75 0)"/>
     <use xlink:href="#DejaVuSans-20" transform="translate(1779.537109 0)"/>
     <use xlink:href="#DejaVuSans-74" transform="translate(1811.324219 0)"/>
     <use xlink:href="#DejaVuSans-61" transform="translate(1850.533203 0)"/>
     <use xlink:href="#DejaVuSans-72" transform="translate(1911.8125 0)"/>
     <use xlink:href="#DejaVuSans-67" transform="translate(1951.175781 0)"/>
     <use xlink:href="#DejaVuSans-65" transform="translate(2014.652344 0)"/>
     <use xlink:href="#DejaVuSans-74" transform="translate(2076.175781 0)"/>
     <use xlink:href="#DejaVuSans-20" transform="translate(2115.384766 0)"/>
     <use xlink:href="#DejaVuSans-6d" transform="translate(2147.171875 0)"/>
     <use xlink:href="#DejaVuSans-2f" transform="translate(2244.583984 0)"/>
     <use xlink:href="#DejaVuSans-7a" transform="translate(2278.275391 0)"/>
     <use xlink:href="#DejaVuSans-3d" transform="translate(2330.765625 0)"/>
     <use xlink:href="#DejaVuSans-36" transform="translate(2414.554688 0)"/>
     <use xlink:href="#DejaVuSans-37" transform="translate(2478.177734 0)"/>
     <use xlink:href="#DejaVuSans-33" transform="translate(2541.800781 0)"/>
     <use xlink:href="#DejaVuSans-2e" transform="translate(2605.423828 0)"/>
     <use xlink:href="#DejaVuSans-31" transform="translate(2637.210938 0)"/>
     <use xlink:href="#DejaVuSans-33" transform="translate(2700.833984 0)"/>
     <use xlink:href="#DejaVuSans-38" transform="translate(2764.457031 0)"/>
     <use xlink:href="#DejaVuSans-36" transform="translate(2828.080078 0)"/>
     <use xlink:href="#DejaVuSans-37" transform="translate(2891.703125 0)"/>
     <use xlink:href="#DejaVuSans-37" transform="translate(2955.326172 0)"/>
     <use xlink:href="#DejaVuSans-34" transform="translate(3018.949219 0)"/>
    </g>
   </g>
   <g id="legend_1">
    <g id="patch_8">
     <path d="M 685.971875 64.23625 
L 846.2 64.23625 
Q 848.2 64.23625 848.2 62.23625 
L 848.2 33.88 
Q 848.2 31.88 846.2 31.88 
L 685.971875 31.88 
Q 683.971875 31.88 683.971875 33.88 
L 683.971875 62.23625 
Q 683.971875 64.23625 685.971875 64.23625 
z
" style="fill: #ffffff; opacity: 0.8; stroke: #cccccc; stroke-linejoin: miter"/>
    </g>
    <g id="line2d_15">
     <path d="M 687.971875 39.978437 
L 697.971875 39.978437 
L 707.971875 39.978437 
" style="fill: none; stroke: #0000ff; stroke-width: 1.5; stroke-linecap: square"/>
    </g>
    <g id="text_17">
     <!-- UV Intensity (normalized) -->
     <g transform="translate(715.971875 43.478437) scale(0.1 -0.1)">
      <use xlink:href="#DejaVuSans-55"/>
      <use xlink:href="#DejaVuSans-56" transform="translate(73.193359 0)"/>
      <use xlink:href="#DejaVuSans-20" transform="translate(141.601562 0)"/>
      <use xlink:href="#DejaVuSans-49" transform="translate(173.388672 0)"/>
      <use xlink:href="#DejaVuSans-6e" transform="translate(202.880859 0)"/>
      <use xlink:href="#DejaVuSans-74" transform="translate(266.259766 0)"/>
      <use xlink:href="#DejaVuSans-65" transform="translate(305.46875 0)"/>
      <use xlink:href="#DejaVuSans-6e" transform="translate(366.992188 0)"/>
      <use xlink:href="#DejaVuSans-73" transform="translate(430.371094 0)"/>
      <use xlink:href="#DejaVuSans-69" transform="translate(482.470703 0)"/>
      <use xlink:href="#DejaVuSans-74" transform="translate(510.253906 0)"/>
      <use xlink:href="#DejaVuSans-79" transform="translate(549.462891 0)"/>
      <use xlink:href="#DejaVuSans-20" transform="translate(608.642578 0)"/>
      <use xlink:href="#DejaVuSans-28" transform="translate(640.429688 0)"/>
      <use xlink:href="#DejaVuSans-6e" transform="translate(679.443359 0)"/>
      <use xlink:href="#DejaVuSans-6f" transform="translate(742.822266 0)"/>
      <use xlink:href="#DejaVuSans-72" transform="translate(804.003906 0)"/>
      <use xlink:href="#DejaVuSans-6d" transform="translate(843.367188 0)"/>
      <use xlink:href="#DejaVuSans-61" transform="translate(940.779297 0)"/>
      <use xlink:href="#DejaVuSans-6c" transform="translate(1002.058594 0)"/>
      <use xlink:href="#DejaVuSans-69" transform="translate(1029.841797 0)"/>
      <use xlink:href="#DejaVuSans-7a" transform="translate(1057.625 0)"/>
      <use xlink:href="#DejaVuSans-65" transform="translate(1110.115234 0)"/>
      <use xlink:href="#DejaVuSans-64" transform="translate(1171.638672 0)"/>
      <use xlink:href="#DejaVuSans-29" transform="translate(1235.115234 0)"/>
     </g>
    </g>
    <g id="line2d_16">
     <path d="M 687.971875 54.656562 
L 697.971875 54.656562 
L 707.971875 54.656562 
" style="fill: none; stroke: #008000; stroke-width: 1.5; stroke-linecap: square"/>
    </g>
    <g id="text_18">
     <!-- MS Intensity (normalized) -->
     <g transform="translate(715.971875 58.156562) scale(0.1 -0.1)">
      <use xlink:href="#DejaVuSans-4d"/>
      <use xlink:href="#DejaVuSans-53" transform="translate(86.279297 0)"/>
      <use xlink:href="#DejaVuSans-20" transform="translate(149.755859 0)"/>
      <use xlink:href="#DejaVuSans-49" transform="translate(181.542969 0)"/>
      <use xlink:href="#DejaVuSans-6e" transform="translate(211.035156 0)"/>
      <use xlink:href="#DejaVuSans-74" transform="translate(274.414062 0)"/>
      <use xlink:href="#DejaVuSans-65" transform="translate(313.623047 0)"/>
      <use xlink:href="#DejaVuSans-6e" transform="translate(375.146484 0)"/>
      <use xlink:href="#DejaVuSans-73" transform="translate(438.525391 0)"/>
      <use xlink:href="#DejaVuSans-69" transform="translate(490.625 0)"/>
      <use xlink:href="#DejaVuSans-74" transform="translate(518.408203 0)"/>
      <use xlink:href="#DejaVuSans-79" transform="translate(557.617188 0)"/>
      <use xlink:href="#DejaVuSans-20" transform="translate(616.796875 0)"/>
      <use xlink:href="#DejaVuSans-28" transform="translate(648.583984 0)"/>
      <use xlink:href="#DejaVuSans-6e" transform="translate(687.597656 0)"/>
      <use xlink:href="#DejaVuSans-6f" transform="translate(750.976562 0)"/>
      <use xlink:href="#DejaVuSans-72" transform="translate(812.158203 0)"/>
      <use xlink:href="#DejaVuSans-6d" transform="translate(851.521484 0)"/>
      <use xlink:href="#DejaVuSans-61" transform="translate(948.933594 0)"/>
      <use xlink:href="#DejaVuSans-6c" transform="translate(1010.212891 0)"/>
      <use xlink:href="#DejaVuSans-69" transform="translate(1037.996094 0)"/>
      <use xlink:href="#DejaVuSans-7a" transform="translate(1065.779297 0)"/>
      <use xlink:href="#DejaVuSans-65" transform="translate(1118.269531 0)"/>
      <use xlink:href="#DejaVuSans-64" transform="translate(1179.792969 0)"/>
      <use xlink:href="#DejaVuSans-29" transform="translate(1243.269531 0)"/>
     </g>
    </g>
   </g>
  </g>
 </g>
 <defs>
  <clipPath id="p08ef9f8559">
   <rect x="47.72" y="26.88" width="805.48" height="507.16"/>
  </clipPath>
 </defs>
</svg>
