<?xml version="1.0" encoding="utf-8" standalone="no"?>
<!DOCTYPE svg PUBLIC "-//W3C//DTD SVG 1.1//EN"
  "http://www.w3.org/Graphics/SVG/1.1/DTD/svg11.dtd">
<svg xmlns:xlink="http://www.w3.org/1999/xlink" width="864pt" height="576pt" viewBox="0 0 864 576" xmlns="http://www.w3.org/2000/svg" version="1.1">
 <metadata>
  <rdf:RDF xmlns:dc="http://purl.org/dc/elements/1.1/" xmlns:cc="http://creativecommons.org/ns#" xmlns:rdf="http://www.w3.org/1999/02/22-rdf-syntax-ns#">
   <cc:Work>
    <dc:type rdf:resource="http://purl.org/dc/dcmitype/StillImage"/>
    <dc:date>2025-03-06T18:18:44.254896</dc:date>
    <dc:format>image/svg+xml</dc:format>
    <dc:creator>
     <cc:Agent>
      <dc:title>Matplotlib v3.10.0, https://matplotlib.org/</dc:title>
     </cc:Agent>
    </dc:creator>
   </cc:Work>
  </rdf:RDF>
 </metadata>
 <defs>
  <style type="text/css">*{stroke-linejoin: round; stroke-linecap: butt}</style>
 </defs>
 <g id="figure_1">
  <g id="patch_1">
   <path d="M 0 576 
L 864 576 
L 864 0 
L 0 0 
z
" style="fill: #ffffff"/>
  </g>
  <g id="axes_1">
   <g id="patch_2">
    <path d="M 47.72 534.04 
L 853.2 534.04 
L 853.2 26.88 
L 47.72 26.88 
z
" style="fill: #ffffff"/>
   </g>
   <g id="matplotlib.axis_1">
    <g id="xtick_1">
     <g id="line2d_1">
      <defs>
       <path id="mb7ba5667c0" d="M 0 0 
L 0 3.5 
" style="stroke: #000000; stroke-width: 0.8"/>
      </defs>
      <g>
       <use xlink:href="#mb7ba5667c0" x="83.095596" y="534.04" style="stroke: #000000; stroke-width: 0.8"/>
      </g>
     </g>
     <g id="text_1">
      <!-- 0 -->
      <g transform="translate(79.914346 548.638438) scale(0.1 -0.1)">
       <defs>
        <path id="DejaVuSans-30" d="M 2034 4250 
Q 1547 4250 1301 3770 
Q 1056 3291 1056 2328 
Q 1056 1369 1301 889 
Q 1547 409 2034 409 
Q 2525 409 2770 889 
Q 3016 1369 3016 2328 
Q 3016 3291 2770 3770 
Q 2525 4250 2034 4250 
z
M 2034 4750 
Q 2819 4750 3233 4129 
Q 3647 3509 3647 2328 
Q 3647 1150 3233 529 
Q 2819 -91 2034 -91 
Q 1250 -91 836 529 
Q 422 1150 422 2328 
Q 422 3509 836 4129 
Q 1250 4750 2034 4750 
z
" transform="scale(0.015625)"/>
       </defs>
       <use xlink:href="#DejaVuSans-30"/>
      </g>
     </g>
    </g>
    <g id="xtick_2">
     <g id="line2d_2">
      <g>
       <use xlink:href="#mb7ba5667c0" x="229.790997" y="534.04" style="stroke: #000000; stroke-width: 0.8"/>
      </g>
     </g>
     <g id="text_2">
      <!-- 1 -->
      <g transform="translate(226.609747 548.638438) scale(0.1 -0.1)">
       <defs>
        <path id="DejaVuSans-31" d="M 794 531 
L 1825 531 
L 1825 4091 
L 703 3866 
L 703 4441 
L 1819 4666 
L 2450 4666 
L 2450 531 
L 3481 531 
L 3481 0 
L 794 0 
L 794 531 
z
" transform="scale(0.015625)"/>
       </defs>
       <use xlink:href="#DejaVuSans-31"/>
      </g>
     </g>
    </g>
    <g id="xtick_3">
     <g id="line2d_3">
      <g>
       <use xlink:href="#mb7ba5667c0" x="376.486399" y="534.04" style="stroke: #000000; stroke-width: 0.8"/>
      </g>
     </g>
     <g id="text_3">
      <!-- 2 -->
      <g transform="translate(373.305149 548.638438) scale(0.1 -0.1)">
       <defs>
        <path id="DejaVuSans-32" d="M 1228 531 
L 3431 531 
L 3431 0 
L 469 0 
L 469 531 
Q 828 903 1448 1529 
Q 2069 2156 2228 2338 
Q 2531 2678 2651 2914 
Q 2772 3150 2772 3378 
Q 2772 3750 2511 3984 
Q 2250 4219 1831 4219 
Q 1534 4219 1204 4116 
Q 875 4013 500 3803 
L 500 4441 
Q 881 4594 1212 4672 
Q 1544 4750 1819 4750 
Q 2544 4750 2975 4387 
Q 3406 4025 3406 3419 
Q 3406 3131 3298 2873 
Q 3191 2616 2906 2266 
Q 2828 2175 2409 1742 
Q 1991 1309 1228 531 
z
" transform="scale(0.015625)"/>
       </defs>
       <use xlink:href="#DejaVuSans-32"/>
      </g>
     </g>
    </g>
    <g id="xtick_4">
     <g id="line2d_4">
      <g>
       <use xlink:href="#mb7ba5667c0" x="523.1818" y="534.04" style="stroke: #000000; stroke-width: 0.8"/>
      </g>
     </g>
     <g id="text_4">
      <!-- 3 -->
      <g transform="translate(520.00055 548.638438) scale(0.1 -0.1)">
       <defs>
        <path id="DejaVuSans-33" d="M 2597 2516 
Q 3050 2419 3304 2112 
Q 3559 1806 3559 1356 
Q 3559 666 3084 287 
Q 2609 -91 1734 -91 
Q 1441 -91 1130 -33 
Q 819 25 488 141 
L 488 750 
Q 750 597 1062 519 
Q 1375 441 1716 441 
Q 2309 441 2620 675 
Q 2931 909 2931 1356 
Q 2931 1769 2642 2001 
Q 2353 2234 1838 2234 
L 1294 2234 
L 1294 2753 
L 1863 2753 
Q 2328 2753 2575 2939 
Q 2822 3125 2822 3475 
Q 2822 3834 2567 4026 
Q 2313 4219 1838 4219 
Q 1578 4219 1281 4162 
Q 984 4106 628 3988 
L 628 4550 
Q 988 4650 1302 4700 
Q 1616 4750 1894 4750 
Q 2613 4750 3031 4423 
Q 3450 4097 3450 3541 
Q 3450 3153 3228 2886 
Q 3006 2619 2597 2516 
z
" transform="scale(0.015625)"/>
       </defs>
       <use xlink:href="#DejaVuSans-33"/>
      </g>
     </g>
    </g>
    <g id="xtick_5">
     <g id="line2d_5">
      <g>
       <use xlink:href="#mb7ba5667c0" x="669.877202" y="534.04" style="stroke: #000000; stroke-width: 0.8"/>
      </g>
     </g>
     <g id="text_5">
      <!-- 4 -->
      <g transform="translate(666.695952 548.638438) scale(0.1 -0.1)">
       <defs>
        <path id="DejaVuSans-34" d="M 2419 4116 
L 825 1625 
L 2419 1625 
L 2419 4116 
z
M 2253 4666 
L 3047 4666 
L 3047 1625 
L 3713 1625 
L 3713 1100 
L 3047 1100 
L 3047 0 
L 2419 0 
L 2419 1100 
L 313 1100 
L 313 1709 
L 2253 4666 
z
" transform="scale(0.015625)"/>
       </defs>
       <use xlink:href="#DejaVuSans-34"/>
      </g>
     </g>
    </g>
    <g id="xtick_6">
     <g id="line2d_6">
      <g>
       <use xlink:href="#mb7ba5667c0" x="816.572603" y="534.04" style="stroke: #000000; stroke-width: 0.8"/>
      </g>
     </g>
     <g id="text_6">
      <!-- 5 -->
      <g transform="translate(813.391353 548.638438) scale(0.1 -0.1)">
       <defs>
        <path id="DejaVuSans-35" d="M 691 4666 
L 3169 4666 
L 3169 4134 
L 1269 4134 
L 1269 2991 
Q 1406 3038 1543 3061 
Q 1681 3084 1819 3084 
Q 2600 3084 3056 2656 
Q 3513 2228 3513 1497 
Q 3513 744 3044 326 
Q 2575 -91 1722 -91 
Q 1428 -91 1123 -41 
Q 819 9 494 109 
L 494 744 
Q 775 591 1075 516 
Q 1375 441 1709 441 
Q 2250 441 2565 725 
Q 2881 1009 2881 1497 
Q 2881 1984 2565 2268 
Q 2250 2553 1709 2553 
Q 1456 2553 1204 2497 
Q 953 2441 691 2322 
L 691 4666 
z
" transform="scale(0.015625)"/>
       </defs>
       <use xlink:href="#DejaVuSans-35"/>
      </g>
     </g>
    </g>
    <g id="text_7">
     <!-- Retention Time (min) -->
     <g transform="translate(397.61 562.316562) scale(0.1 -0.1)">
      <defs>
       <path id="DejaVuSans-52" d="M 2841 2188 
Q 3044 2119 3236 1894 
Q 3428 1669 3622 1275 
L 4263 0 
L 3584 0 
L 2988 1197 
Q 2756 1666 2539 1819 
Q 2322 1972 1947 1972 
L 1259 1972 
L 1259 0 
L 628 0 
L 628 4666 
L 2053 4666 
Q 2853 4666 3247 4331 
Q 3641 3997 3641 3322 
Q 3641 2881 3436 2590 
Q 3231 2300 2841 2188 
z
M 1259 4147 
L 1259 2491 
L 2053 2491 
Q 2509 2491 2742 2702 
Q 2975 2913 2975 3322 
Q 2975 3731 2742 3939 
Q 2509 4147 2053 4147 
L 1259 4147 
z
" transform="scale(0.015625)"/>
       <path id="DejaVuSans-65" d="M 3597 1894 
L 3597 1613 
L 953 1613 
Q 991 1019 1311 708 
Q 1631 397 2203 397 
Q 2534 397 2845 478 
Q 3156 559 3463 722 
L 3463 178 
Q 3153 47 2828 -22 
Q 2503 -91 2169 -91 
Q 1331 -91 842 396 
Q 353 884 353 1716 
Q 353 2575 817 3079 
Q 1281 3584 2069 3584 
Q 2775 3584 3186 3129 
Q 3597 2675 3597 1894 
z
M 3022 2063 
Q 3016 2534 2758 2815 
Q 2500 3097 2075 3097 
Q 1594 3097 1305 2825 
Q 1016 2553 972 2059 
L 3022 2063 
z
" transform="scale(0.015625)"/>
       <path id="DejaVuSans-74" d="M 1172 4494 
L 1172 3500 
L 2356 3500 
L 2356 3053 
L 1172 3053 
L 1172 1153 
Q 1172 725 1289 603 
Q 1406 481 1766 481 
L 2356 481 
L 2356 0 
L 1766 0 
Q 1100 0 847 248 
Q 594 497 594 1153 
L 594 3053 
L 172 3053 
L 172 3500 
L 594 3500 
L 594 4494 
L 1172 4494 
z
" transform="scale(0.015625)"/>
       <path id="DejaVuSans-6e" d="M 3513 2113 
L 3513 0 
L 2938 0 
L 2938 2094 
Q 2938 2591 2744 2837 
Q 2550 3084 2163 3084 
Q 1697 3084 1428 2787 
Q 1159 2491 1159 1978 
L 1159 0 
L 581 0 
L 581 3500 
L 1159 3500 
L 1159 2956 
Q 1366 3272 1645 3428 
Q 1925 3584 2291 3584 
Q 2894 3584 3203 3211 
Q 3513 2838 3513 2113 
z
" transform="scale(0.015625)"/>
       <path id="DejaVuSans-69" d="M 603 3500 
L 1178 3500 
L 1178 0 
L 603 0 
L 603 3500 
z
M 603 4863 
L 1178 4863 
L 1178 4134 
L 603 4134 
L 603 4863 
z
" transform="scale(0.015625)"/>
       <path id="DejaVuSans-6f" d="M 1959 3097 
Q 1497 3097 1228 2736 
Q 959 2375 959 1747 
Q 959 1119 1226 758 
Q 1494 397 1959 397 
Q 2419 397 2687 759 
Q 2956 1122 2956 1747 
Q 2956 2369 2687 2733 
Q 2419 3097 1959 3097 
z
M 1959 3584 
Q 2709 3584 3137 3096 
Q 3566 2609 3566 1747 
Q 3566 888 3137 398 
Q 2709 -91 1959 -91 
Q 1206 -91 779 398 
Q 353 888 353 1747 
Q 353 2609 779 3096 
Q 1206 3584 1959 3584 
z
" transform="scale(0.015625)"/>
       <path id="DejaVuSans-20" transform="scale(0.015625)"/>
       <path id="DejaVuSans-54" d="M -19 4666 
L 3928 4666 
L 3928 4134 
L 2272 4134 
L 2272 0 
L 1638 0 
L 1638 4134 
L -19 4134 
L -19 4666 
z
" transform="scale(0.015625)"/>
       <path id="DejaVuSans-6d" d="M 3328 2828 
Q 3544 3216 3844 3400 
Q 4144 3584 4550 3584 
Q 5097 3584 5394 3201 
Q 5691 2819 5691 2113 
L 5691 0 
L 5113 0 
L 5113 2094 
Q 5113 2597 4934 2840 
Q 4756 3084 4391 3084 
Q 3944 3084 3684 2787 
Q 3425 2491 3425 1978 
L 3425 0 
L 2847 0 
L 2847 2094 
Q 2847 2600 2669 2842 
Q 2491 3084 2119 3084 
Q 1678 3084 1418 2786 
Q 1159 2488 1159 1978 
L 1159 0 
L 581 0 
L 581 3500 
L 1159 3500 
L 1159 2956 
Q 1356 3278 1631 3431 
Q 1906 3584 2284 3584 
Q 2666 3584 2933 3390 
Q 3200 3197 3328 2828 
z
" transform="scale(0.015625)"/>
       <path id="DejaVuSans-28" d="M 1984 4856 
Q 1566 4138 1362 3434 
Q 1159 2731 1159 2009 
Q 1159 1288 1364 580 
Q 1569 -128 1984 -844 
L 1484 -844 
Q 1016 -109 783 600 
Q 550 1309 550 2009 
Q 550 2706 781 3412 
Q 1013 4119 1484 4856 
L 1984 4856 
z
" transform="scale(0.015625)"/>
       <path id="DejaVuSans-29" d="M 513 4856 
L 1013 4856 
Q 1481 4119 1714 3412 
Q 1947 2706 1947 2009 
Q 1947 1309 1714 600 
Q 1481 -109 1013 -844 
L 513 -844 
Q 928 -128 1133 580 
Q 1338 1288 1338 2009 
Q 1338 2731 1133 3434 
Q 928 4138 513 4856 
z
" transform="scale(0.015625)"/>
      </defs>
      <use xlink:href="#DejaVuSans-52"/>
      <use xlink:href="#DejaVuSans-65" transform="translate(64.982422 0)"/>
      <use xlink:href="#DejaVuSans-74" transform="translate(126.505859 0)"/>
      <use xlink:href="#DejaVuSans-65" transform="translate(165.714844 0)"/>
      <use xlink:href="#DejaVuSans-6e" transform="translate(227.238281 0)"/>
      <use xlink:href="#DejaVuSans-74" transform="translate(290.617188 0)"/>
      <use xlink:href="#DejaVuSans-69" transform="translate(329.826172 0)"/>
      <use xlink:href="#DejaVuSans-6f" transform="translate(357.609375 0)"/>
      <use xlink:href="#DejaVuSans-6e" transform="translate(418.791016 0)"/>
      <use xlink:href="#DejaVuSans-20" transform="translate(482.169922 0)"/>
      <use xlink:href="#DejaVuSans-54" transform="translate(513.957031 0)"/>
      <use xlink:href="#DejaVuSans-69" transform="translate(571.916016 0)"/>
      <use xlink:href="#DejaVuSans-6d" transform="translate(599.699219 0)"/>
      <use xlink:href="#DejaVuSans-65" transform="translate(697.111328 0)"/>
      <use xlink:href="#DejaVuSans-20" transform="translate(758.634766 0)"/>
      <use xlink:href="#DejaVuSans-28" transform="translate(790.421875 0)"/>
      <use xlink:href="#DejaVuSans-6d" transform="translate(829.435547 0)"/>
      <use xlink:href="#DejaVuSans-69" transform="translate(926.847656 0)"/>
      <use xlink:href="#DejaVuSans-6e" transform="translate(954.630859 0)"/>
      <use xlink:href="#DejaVuSans-29" transform="translate(1018.009766 0)"/>
     </g>
    </g>
   </g>
   <g id="matplotlib.axis_2">
    <g id="ytick_1">
     <g id="line2d_7">
      <defs>
       <path id="m2f09fa7eb3" d="M 0 0 
L -3.5 0 
" style="stroke: #000000; stroke-width: 0.8"/>
      </defs>
      <g>
       <use xlink:href="#m2f09fa7eb3" x="47.72" y="510.987273" style="stroke: #000000; stroke-width: 0.8"/>
      </g>
     </g>
     <g id="text_8">
      <!-- 0.0 -->
      <g style="fill: #0000ff" transform="translate(24.816875 514.786491) scale(0.1 -0.1)">
       <defs>
        <path id="DejaVuSans-2e" d="M 684 794 
L 1344 794 
L 1344 0 
L 684 0 
L 684 794 
z
" transform="scale(0.015625)"/>
       </defs>
       <use xlink:href="#DejaVuSans-30"/>
       <use xlink:href="#DejaVuSans-2e" transform="translate(63.623047 0)"/>
       <use xlink:href="#DejaVuSans-30" transform="translate(95.410156 0)"/>
      </g>
     </g>
    </g>
    <g id="ytick_2">
     <g id="line2d_8">
      <g>
       <use xlink:href="#m2f09fa7eb3" x="47.72" y="418.776364" style="stroke: #000000; stroke-width: 0.8"/>
      </g>
     </g>
     <g id="text_9">
      <!-- 0.5 -->
      <g style="fill: #0000ff" transform="translate(24.816875 422.575582) scale(0.1 -0.1)">
       <use xlink:href="#DejaVuSans-30"/>
       <use xlink:href="#DejaVuSans-2e" transform="translate(63.623047 0)"/>
       <use xlink:href="#DejaVuSans-35" transform="translate(95.410156 0)"/>
      </g>
     </g>
    </g>
    <g id="ytick_3">
     <g id="line2d_9">
      <g>
       <use xlink:href="#m2f09fa7eb3" x="47.72" y="326.565455" style="stroke: #000000; stroke-width: 0.8"/>
      </g>
     </g>
     <g id="text_10">
      <!-- 1.0 -->
      <g style="fill: #0000ff" transform="translate(24.816875 330.364673) scale(0.1 -0.1)">
       <use xlink:href="#DejaVuSans-31"/>
       <use xlink:href="#DejaVuSans-2e" transform="translate(63.623047 0)"/>
       <use xlink:href="#DejaVuSans-30" transform="translate(95.410156 0)"/>
      </g>
     </g>
    </g>
    <g id="ytick_4">
     <g id="line2d_10">
      <g>
       <use xlink:href="#m2f09fa7eb3" x="47.72" y="234.354545" style="stroke: #000000; stroke-width: 0.8"/>
      </g>
     </g>
     <g id="text_11">
      <!-- 1.5 -->
      <g style="fill: #0000ff" transform="translate(24.816875 238.153764) scale(0.1 -0.1)">
       <use xlink:href="#DejaVuSans-31"/>
       <use xlink:href="#DejaVuSans-2e" transform="translate(63.623047 0)"/>
       <use xlink:href="#DejaVuSans-35" transform="translate(95.410156 0)"/>
      </g>
     </g>
    </g>
    <g id="ytick_5">
     <g id="line2d_11">
      <g>
       <use xlink:href="#m2f09fa7eb3" x="47.72" y="142.143636" style="stroke: #000000; stroke-width: 0.8"/>
      </g>
     </g>
     <g id="text_12">
      <!-- 2.0 -->
      <g style="fill: #0000ff" transform="translate(24.816875 145.942855) scale(0.1 -0.1)">
       <use xlink:href="#DejaVuSans-32"/>
       <use xlink:href="#DejaVuSans-2e" transform="translate(63.623047 0)"/>
       <use xlink:href="#DejaVuSans-30" transform="translate(95.410156 0)"/>
      </g>
     </g>
    </g>
    <g id="ytick_6">
     <g id="line2d_12">
      <g>
       <use xlink:href="#m2f09fa7eb3" x="47.72" y="49.932727" style="stroke: #000000; stroke-width: 0.8"/>
      </g>
     </g>
     <g id="text_13">
      <!-- 2.5 -->
      <g style="fill: #0000ff" transform="translate(24.816875 53.731946) scale(0.1 -0.1)">
       <use xlink:href="#DejaVuSans-32"/>
       <use xlink:href="#DejaVuSans-2e" transform="translate(63.623047 0)"/>
       <use xlink:href="#DejaVuSans-35" transform="translate(95.410156 0)"/>
      </g>
     </g>
    </g>
    <g id="text_14">
     <!-- Normalized Intensity -->
     <g style="fill: #0000ff" transform="translate(18.737187 332.167031) rotate(-90) scale(0.1 -0.1)">
      <defs>
       <path id="DejaVuSans-4e" d="M 628 4666 
L 1478 4666 
L 3547 763 
L 3547 4666 
L 4159 4666 
L 4159 0 
L 3309 0 
L 1241 3903 
L 1241 0 
L 628 0 
L 628 4666 
z
" transform="scale(0.015625)"/>
       <path id="DejaVuSans-72" d="M 2631 2963 
Q 2534 3019 2420 3045 
Q 2306 3072 2169 3072 
Q 1681 3072 1420 2755 
Q 1159 2438 1159 1844 
L 1159 0 
L 581 0 
L 581 3500 
L 1159 3500 
L 1159 2956 
Q 1341 3275 1631 3429 
Q 1922 3584 2338 3584 
Q 2397 3584 2469 3576 
Q 2541 3569 2628 3553 
L 2631 2963 
z
" transform="scale(0.015625)"/>
       <path id="DejaVuSans-61" d="M 2194 1759 
Q 1497 1759 1228 1600 
Q 959 1441 959 1056 
Q 959 750 1161 570 
Q 1363 391 1709 391 
Q 2188 391 2477 730 
Q 2766 1069 2766 1631 
L 2766 1759 
L 2194 1759 
z
M 3341 1997 
L 3341 0 
L 2766 0 
L 2766 531 
Q 2569 213 2275 61 
Q 1981 -91 1556 -91 
Q 1019 -91 701 211 
Q 384 513 384 1019 
Q 384 1609 779 1909 
Q 1175 2209 1959 2209 
L 2766 2209 
L 2766 2266 
Q 2766 2663 2505 2880 
Q 2244 3097 1772 3097 
Q 1472 3097 1187 3025 
Q 903 2953 641 2809 
L 641 3341 
Q 956 3463 1253 3523 
Q 1550 3584 1831 3584 
Q 2591 3584 2966 3190 
Q 3341 2797 3341 1997 
z
" transform="scale(0.015625)"/>
       <path id="DejaVuSans-6c" d="M 603 4863 
L 1178 4863 
L 1178 0 
L 603 0 
L 603 4863 
z
" transform="scale(0.015625)"/>
       <path id="DejaVuSans-7a" d="M 353 3500 
L 3084 3500 
L 3084 2975 
L 922 459 
L 3084 459 
L 3084 0 
L 275 0 
L 275 525 
L 2438 3041 
L 353 3041 
L 353 3500 
z
" transform="scale(0.015625)"/>
       <path id="DejaVuSans-64" d="M 2906 2969 
L 2906 4863 
L 3481 4863 
L 3481 0 
L 2906 0 
L 2906 525 
Q 2725 213 2448 61 
Q 2172 -91 1784 -91 
Q 1150 -91 751 415 
Q 353 922 353 1747 
Q 353 2572 751 3078 
Q 1150 3584 1784 3584 
Q 2172 3584 2448 3432 
Q 2725 3281 2906 2969 
z
M 947 1747 
Q 947 1113 1208 752 
Q 1469 391 1925 391 
Q 2381 391 2643 752 
Q 2906 1113 2906 1747 
Q 2906 2381 2643 2742 
Q 2381 3103 1925 3103 
Q 1469 3103 1208 2742 
Q 947 2381 947 1747 
z
" transform="scale(0.015625)"/>
       <path id="DejaVuSans-49" d="M 628 4666 
L 1259 4666 
L 1259 0 
L 628 0 
L 628 4666 
z
" transform="scale(0.015625)"/>
       <path id="DejaVuSans-73" d="M 2834 3397 
L 2834 2853 
Q 2591 2978 2328 3040 
Q 2066 3103 1784 3103 
Q 1356 3103 1142 2972 
Q 928 2841 928 2578 
Q 928 2378 1081 2264 
Q 1234 2150 1697 2047 
L 1894 2003 
Q 2506 1872 2764 1633 
Q 3022 1394 3022 966 
Q 3022 478 2636 193 
Q 2250 -91 1575 -91 
Q 1294 -91 989 -36 
Q 684 19 347 128 
L 347 722 
Q 666 556 975 473 
Q 1284 391 1588 391 
Q 1994 391 2212 530 
Q 2431 669 2431 922 
Q 2431 1156 2273 1281 
Q 2116 1406 1581 1522 
L 1381 1569 
Q 847 1681 609 1914 
Q 372 2147 372 2553 
Q 372 3047 722 3315 
Q 1072 3584 1716 3584 
Q 2034 3584 2315 3537 
Q 2597 3491 2834 3397 
z
" transform="scale(0.015625)"/>
       <path id="DejaVuSans-79" d="M 2059 -325 
Q 1816 -950 1584 -1140 
Q 1353 -1331 966 -1331 
L 506 -1331 
L 506 -850 
L 844 -850 
Q 1081 -850 1212 -737 
Q 1344 -625 1503 -206 
L 1606 56 
L 191 3500 
L 800 3500 
L 1894 763 
L 2988 3500 
L 3597 3500 
L 2059 -325 
z
" transform="scale(0.015625)"/>
      </defs>
      <use xlink:href="#DejaVuSans-4e"/>
      <use xlink:href="#DejaVuSans-6f" transform="translate(74.804688 0)"/>
      <use xlink:href="#DejaVuSans-72" transform="translate(135.986328 0)"/>
      <use xlink:href="#DejaVuSans-6d" transform="translate(175.349609 0)"/>
      <use xlink:href="#DejaVuSans-61" transform="translate(272.761719 0)"/>
      <use xlink:href="#DejaVuSans-6c" transform="translate(334.041016 0)"/>
      <use xlink:href="#DejaVuSans-69" transform="translate(361.824219 0)"/>
      <use xlink:href="#DejaVuSans-7a" transform="translate(389.607422 0)"/>
      <use xlink:href="#DejaVuSans-65" transform="translate(442.097656 0)"/>
      <use xlink:href="#DejaVuSans-64" transform="translate(503.621094 0)"/>
      <use xlink:href="#DejaVuSans-20" transform="translate(567.097656 0)"/>
      <use xlink:href="#DejaVuSans-49" transform="translate(598.884766 0)"/>
      <use xlink:href="#DejaVuSans-6e" transform="translate(628.376953 0)"/>
      <use xlink:href="#DejaVuSans-74" transform="translate(691.755859 0)"/>
      <use xlink:href="#DejaVuSans-65" transform="translate(730.964844 0)"/>
      <use xlink:href="#DejaVuSans-6e" transform="translate(792.488281 0)"/>
      <use xlink:href="#DejaVuSans-73" transform="translate(855.867188 0)"/>
      <use xlink:href="#DejaVuSans-69" transform="translate(907.966797 0)"/>
      <use xlink:href="#DejaVuSans-74" transform="translate(935.75 0)"/>
      <use xlink:href="#DejaVuSans-79" transform="translate(974.958984 0)"/>
     </g>
    </g>
   </g>
   <g id="line2d_13">
    <path d="M 84.332727 510.987273 
L 89.222574 510.878418 
L 102.669652 509.879216 
L 110.004423 509.752455 
L 124.673963 509.834468 
L 144.23335 509.619044 
L 150.345658 509.627334 
L 160.125351 509.156211 
L 162.570275 509.090029 
L 163.792736 508.770045 
L 165.015198 507.995394 
L 167.460121 505.435742 
L 168.682583 504.510725 
L 169.905045 504.317822 
L 171.127506 504.797988 
L 173.57243 506.453317 
L 174.794891 507.119942 
L 176.017353 507.603478 
L 178.462277 508.208145 
L 180.9072 508.427919 
L 183.352123 508.27779 
L 189.464432 507.519592 
L 191.909355 507.722084 
L 194.354278 508.070091 
L 196.799202 508.077559 
L 206.578895 507.173636 
L 209.023818 506.889764 
L 210.24628 506.965042 
L 213.913665 507.467039 
L 216.358589 507.185446 
L 217.58105 507.068439 
L 218.803512 507.155892 
L 220.025974 507.459532 
L 222.470897 508.280222 
L 223.693359 508.474783 
L 224.91582 508.288522 
L 226.138282 507.624479 
L 228.583205 505.552234 
L 229.805667 504.878394 
L 231.028129 504.789217 
L 232.25059 505.231476 
L 235.917975 507.408902 
L 237.140437 507.864829 
L 238.362899 508.138187 
L 240.807822 508.332764 
L 244.475207 508.263961 
L 251.809977 507.766466 
L 257.922286 507.379271 
L 266.479517 507.014614 
L 271.369364 506.846075 
L 277.481672 506.431564 
L 279.926596 506.36059 
L 281.149058 506.213687 
L 283.593981 505.585086 
L 284.816443 505.263731 
L 286.038904 505.072954 
L 287.261366 505.034746 
L 290.928751 505.366511 
L 294.596136 505.582468 
L 297.041059 505.472459 
L 299.485983 504.922259 
L 300.708444 504.605921 
L 301.930906 504.43253 
L 303.153368 504.46506 
L 305.598291 504.943348 
L 308.043214 505.424663 
L 310.488138 505.649284 
L 311.710599 505.623823 
L 312.933061 505.41081 
L 314.155523 504.934639 
L 316.600446 503.540846 
L 317.822908 503.091166 
L 319.04537 503.041239 
L 320.267831 503.354663 
L 323.935216 504.840148 
L 325.157678 505.14649 
L 327.602601 505.445367 
L 337.382295 506.043945 
L 342.272141 507.209952 
L 344.717065 507.371071 
L 349.606912 507.370334 
L 352.051835 507.092764 
L 354.496758 506.573085 
L 356.941682 505.732253 
L 358.164143 505.091757 
L 359.386605 504.220773 
L 360.609067 503.054303 
L 361.831528 501.556158 
L 363.05399 499.748487 
L 366.721375 493.679776 
L 367.943837 492.000623 
L 369.166298 490.717991 
L 370.38876 489.886157 
L 371.611222 489.507957 
L 372.833683 489.539306 
L 374.056145 489.886518 
L 376.501068 491.039653 
L 380.168453 492.845828 
L 381.390915 493.246787 
L 382.613377 493.432937 
L 383.835839 493.299321 
L 385.0583 492.683621 
L 386.280762 491.54761 
L 387.503224 490.216467 
L 388.725685 489.293813 
L 389.948147 489.243287 
L 391.170609 490.049658 
L 392.39307 491.238008 
L 393.615532 492.192358 
L 394.837994 492.554528 
L 398.505379 492.221923 
L 400.950302 492.849732 
L 402.172764 492.925099 
L 405.840149 492.208021 
L 407.06261 492.193505 
L 408.285072 492.025001 
L 409.507534 490.921472 
L 410.729995 486.590947 
L 411.952457 475.292572 
L 413.174919 455.67044 
L 414.39738 432.776949 
L 415.619842 415.767144 
L 416.842304 411.021275 
L 418.064766 418.324958 
L 420.509689 447.765339 
L 421.732151 459.187942 
L 422.954612 464.948112 
L 424.177074 465.656673 
L 425.399536 462.960108 
L 426.621997 458.113108 
L 427.844459 452.463344 
L 429.066921 448.343787 
L 430.289382 448.065583 
L 431.511844 452.13285 
L 435.179229 472.236841 
L 436.401691 476.182939 
L 437.624152 477.963512 
L 438.846614 476.962516 
L 440.069076 470.906598 
L 441.291537 456.012893 
L 442.513999 430.283427 
L 443.736461 397.974149 
L 444.958922 369.571011 
L 446.181384 355.572797 
L 447.403846 359.767346 
L 448.626307 377.952457 
L 451.071231 423.695433 
L 452.293693 439.441704 
L 453.516154 448.653887 
L 454.738616 453.32478 
L 455.961078 455.893997 
L 458.406001 460.179326 
L 460.850924 464.76281 
L 462.073386 466.572331 
L 463.295848 467.489862 
L 464.518309 467.282025 
L 465.740771 466.238756 
L 466.963233 465.0411 
L 468.185694 464.358598 
L 469.408156 464.595766 
L 470.630618 465.830048 
L 471.853079 467.819158 
L 474.298003 472.194771 
L 475.520464 473.778868 
L 476.742926 474.766103 
L 477.965388 475.253905 
L 479.187849 475.320463 
L 480.410311 474.510652 
L 481.632773 471.166808 
L 482.855234 462.545026 
L 484.077696 446.12003 
L 485.300158 420.993082 
L 487.745081 356.973877 
L 488.967543 333.706618 
L 490.190005 326.565455 
L 491.412466 336.000219 
L 492.634928 356.312032 
L 493.85739 379.914647 
L 495.079851 401.024703 
L 496.302313 416.885852 
L 497.524775 427.274573 
L 498.747236 433.493875 
L 499.969698 437.394304 
L 502.414621 443.916126 
L 504.859545 451.075054 
L 506.082006 454.175829 
L 507.304468 456.715621 
L 513.416776 467.330625 
L 514.639238 469.318273 
L 515.8617 470.984576 
L 517.084161 472.245906 
L 518.306623 472.999241 
L 519.529085 473.084381 
L 520.751547 472.34867 
L 521.974008 470.814855 
L 523.19647 468.853878 
L 524.418932 467.148976 
L 525.641393 466.363492 
L 526.863855 466.774984 
L 528.086317 468.192548 
L 530.53124 472.148097 
L 531.753702 473.816011 
L 532.976163 474.931496 
L 534.198625 475.408278 
L 535.421087 475.276606 
L 536.643548 474.671336 
L 539.088472 473.133702 
L 540.310933 472.900553 
L 541.533395 473.288118 
L 545.20078 475.919108 
L 547.645703 476.544878 
L 548.868165 477.142443 
L 550.090627 478.083507 
L 551.313088 478.734842 
L 552.53555 478.338046 
L 553.758012 476.851515 
L 554.980474 475.150633 
L 556.202935 474.300759 
L 557.425397 474.751312 
L 558.647859 476.212932 
L 561.092782 479.784177 
L 562.315244 481.191824 
L 564.760167 483.576707 
L 565.982629 484.584913 
L 567.20509 483.724886 
L 568.427552 476.493365 
L 569.650014 458.226407 
L 572.094937 405.748956 
L 573.317399 394.352288 
L 574.53986 400.464716 
L 575.762322 418.642106 
L 576.984784 440.062821 
L 578.207245 458.0586 
L 579.429707 470.066909 
L 580.652169 476.67091 
L 581.87463 479.716184 
L 583.097092 480.935123 
L 584.319554 481.445169 
L 586.764477 482.207608 
L 589.209401 483.088826 
L 590.431862 483.338488 
L 591.654324 483.352423 
L 594.099247 483.102374 
L 596.544171 483.286392 
L 601.434017 483.77079 
L 606.323864 485.372467 
L 607.546326 486.003 
L 612.436172 489.227706 
L 613.658634 489.814995 
L 614.881096 490.230095 
L 616.103557 490.482728 
L 617.326019 490.581387 
L 618.548481 490.50604 
L 619.770942 490.253749 
L 620.993404 489.866606 
L 622.215866 489.361633 
L 625.883251 487.574487 
L 627.105713 487.433157 
L 628.328174 487.614688 
L 630.773098 488.334108 
L 631.995559 488.441019 
L 633.218021 488.038617 
L 634.440483 486.990057 
L 636.885406 484.214329 
L 638.107868 483.654263 
L 639.330329 484.000991 
L 640.552791 484.983244 
L 642.997714 487.297052 
L 644.220176 488.191062 
L 645.442638 488.788042 
L 646.665099 488.97047 
L 647.887561 488.623022 
L 649.110023 487.782291 
L 650.332484 486.718008 
L 651.554946 485.827442 
L 652.777408 485.416049 
L 653.999869 485.559052 
L 655.222331 486.145792 
L 657.667255 487.96784 
L 658.889716 488.883482 
L 660.112178 489.640055 
L 661.33464 490.194164 
L 662.557101 490.56032 
L 665.002025 490.934456 
L 667.446948 491.321876 
L 669.891871 491.827712 
L 671.114333 491.857914 
L 672.336795 491.618188 
L 674.781718 490.909486 
L 676.00418 490.919209 
L 677.226641 491.274411 
L 680.894026 492.847889 
L 683.33895 493.447599 
L 685.783873 493.80034 
L 693.118643 494.492977 
L 695.563567 494.445862 
L 698.00849 494.08755 
L 700.453413 493.565981 
L 701.675875 493.495878 
L 705.34326 493.62349 
L 711.455568 492.928517 
L 713.900492 493.025718 
L 717.567877 493.591983 
L 721.235262 494.069048 
L 724.902647 494.227741 
L 728.570032 494.446226 
L 732.237417 494.831693 
L 733.459879 494.78414 
L 737.127264 494.348847 
L 738.349725 494.414068 
L 744.462034 495.299515 
L 755.464189 495.858889 
L 757.909112 496.053263 
L 759.131574 496.047699 
L 760.354036 495.9251 
L 762.798959 495.319107 
L 765.243882 494.571176 
L 766.466344 494.404678 
L 767.688806 494.451526 
L 772.578652 495.181661 
L 775.023576 495.073536 
L 778.690961 494.829099 
L 782.358346 494.985872 
L 784.803269 495.024973 
L 788.470654 494.755056 
L 792.138039 494.522117 
L 803.140194 494.115631 
L 806.807579 493.843784 
L 811.697426 493.355897 
L 814.142349 493.347649 
L 816.587273 493.451142 
L 816.587273 493.451142 
" clip-path="url(#pc6218f3e23)" style="fill: none; stroke: #0000ff; stroke-width: 1.5; stroke-linecap: square"/>
   </g>
   <g id="line2d_14">
    <path d="M 89.596892 234.316409 
L 91.957465 234.286597 
L 91.957465 234.291206 
L 94.657394 234.317376 
L 175.45282 234.164388 
L 178.730974 234.127889 
L 183.660184 234.104846 
L 188.589394 234.214083 
L 202.071679 234.262172 
L 205.363279 234.232761 
L 214.2606 234.275825 
L 216.896227 234.290945 
L 219.205702 234.30018 
L 242.665475 234.294451 
L 242.665475 234.322553 
L 320.641171 234.291195 
L 320.641171 234.302648 
L 332.796108 234.298711 
L 351.014209 234.306705 
L 353.373316 234.242014 
L 373.879622 234.288569 
L 377.2299 234.246395 
L 379.914426 234.253627 
L 389.631285 234.209916 
L 389.631285 234.233644 
L 413.085924 234.114697 
L 413.421367 233.976308 
L 413.421367 233.690492 
L 413.754366 233.538693 
L 413.754366 232.456316 
L 414.087853 232.021869 
L 414.087853 230.065193 
L 414.421341 229.685575 
L 414.421341 226.492168 
L 414.756051 226.418481 
L 414.756051 221.807655 
L 415.089783 222.684605 
L 415.089783 219.095359 
L 415.427916 220.728726 
L 415.427916 216.231243 
L 415.759203 219.447817 
L 415.759203 214.298567 
L 416.089512 216.548725 
L 416.089512 212.181956 
L 416.419088 216.397779 
L 416.419088 210.175392 
L 416.74793 215.133517 
L 416.74793 209.833636 
L 417.076527 214.52421 
L 417.076527 208.679096 
L 417.404881 214.445556 
L 417.404881 208.634256 
L 417.733478 214.450833 
L 417.733478 209.884318 
L 418.061587 215.882035 
L 418.061587 211.58131 
L 418.389696 217.420892 
L 418.389696 212.132811 
L 418.717805 216.910707 
L 418.717805 211.914298 
L 419.045913 217.18434 
L 419.045913 212.21659 
L 419.374266 217.721905 
L 419.374266 213.722978 
L 419.702375 218.775455 
L 419.702375 214.339448 
L 420.031217 219.581328 
L 420.031217 215.490536 
L 420.36935 219.518273 
L 420.36935 215.451536 
L 420.698192 220.42891 
L 420.698192 216.588245 
L 421.027524 221.14319 
L 421.027524 217.728993 
L 421.357099 221.89166 
L 421.357099 217.948068 
L 421.686186 221.798423 
L 421.686186 218.097209 
L 422.015762 221.821955 
L 422.015762 218.01563 
L 422.346071 221.847901 
L 422.346071 218.809428 
L 422.67638 222.47546 
L 422.67638 219.268712 
L 423.006689 223.097635 
L 423.006689 220.338287 
L 423.336998 223.489277 
L 423.336998 219.940517 
L 423.667307 223.089801 
L 423.667307 219.848275 
L 423.997861 222.654392 
L 423.997861 219.836653 
L 424.329637 222.893129 
L 424.329637 219.886225 
L 424.661658 223.17755 
L 424.661658 220.67745 
L 424.993678 223.655302 
L 424.993678 221.355187 
L 425.331078 224.36624 
L 425.331078 221.350247 
L 425.664076 223.854972 
L 425.664076 221.197097 
L 425.998542 224.106982 
L 425.998542 221.504382 
L 426.331051 224.551586 
L 426.331051 222.883821 
L 426.663072 225.679338 
L 426.663072 223.285619 
L 426.996315 226.011265 
L 426.996315 223.462056 
L 427.329069 225.322506 
L 427.329069 222.350858 
L 427.666713 224.762321 
L 427.666713 222.598695 
L 428.000201 225.656117 
L 428.000201 223.702109 
L 428.33271 226.610907 
L 428.33271 225.087413 
L 428.667176 227.593806 
L 428.667176 226.046816 
L 429.000663 228.150801 
L 429.000663 227.236982 
L 429.333173 228.883339 
L 429.333173 227.787131 
L 429.672528 229.373714 
L 429.672528 228.982501 
L 430.006994 230.131908 
L 430.006994 229.715143 
L 430.346838 230.806245 
L 430.346838 230.380365 
L 430.680326 230.734715 
L 430.680326 230.556667 
L 431.343878 231.474183 
L 431.675165 231.767269 
L 431.675165 231.703988 
L 432.005474 231.880465 
L 432.005474 231.590908 
L 432.336272 231.757418 
L 432.336272 231.604852 
L 432.666826 231.818162 
L 432.666826 231.556452 
L 432.997379 231.939874 
L 432.997379 231.691819 
L 433.327933 231.95665 
L 433.327933 231.766606 
L 433.659465 231.996791 
L 433.659465 231.659056 
L 433.990752 231.863809 
L 433.990752 231.473897 
L 434.322283 231.406449 
L 434.985591 231.535137 
L 434.985591 231.492638 
L 435.323235 231.754085 
L 435.323235 231.489064 
L 435.655989 231.920779 
L 435.655989 231.518764 
L 435.988499 231.822867 
L 435.988499 231.669163 
L 436.321986 231.878276 
L 436.321986 231.47926 
L 436.654251 231.955557 
L 436.654251 231.629968 
L 436.987983 231.837508 
L 436.987983 231.690062 
L 437.320248 231.990244 
L 437.320248 231.689028 
L 437.653002 232.070645 
L 437.653002 231.675804 
L 437.986735 231.906178 
L 437.986735 231.578681 
L 438.319733 231.863816 
L 438.319733 231.637963 
L 438.654199 232.058438 
L 438.654199 231.825848 
L 438.993309 232.053106 
L 438.993309 231.753471 
L 439.32533 231.912562 
L 439.32533 231.605007 
L 439.658818 231.996081 
L 439.658818 231.805629 
L 439.991083 231.935854 
L 439.991083 231.654811 
L 440.330194 231.99221 
L 440.330194 231.631215 
L 440.664904 231.739026 
L 440.664904 231.596281 
L 440.997902 232.008984 
L 440.997902 231.574724 
L 441.667811 232.369665 
L 441.667811 232.079497 
L 442.000565 232.53703 
L 442.000565 232.09455 
L 442.33283 232.207969 
L 442.33283 231.88695 
L 442.667051 232.175346 
L 442.667051 231.750021 
L 443.001028 232.138211 
L 443.001028 231.934662 
L 443.334515 232.322408 
L 443.334515 232.073741 
L 443.669714 232.468153 
L 443.669714 232.38515 
L 444.003691 232.59491 
L 444.003691 232.248169 
L 444.3362 232.558115 
L 444.3362 232.365198 
L 444.669199 232.411926 
L 444.669199 232.148074 
L 445.004154 232.420554 
L 445.004154 232.116871 
L 445.342775 232.349824 
L 445.342775 232.204963 
L 446.008528 232.871851 
L 446.008528 232.524907 
L 446.341527 232.777696 
L 446.341527 232.572132 
L 446.67697 232.786017 
L 446.67697 232.590621 
L 447.010702 232.895782 
L 447.010702 232.703117 
L 447.343945 232.850894 
L 447.343945 232.536482 
L 447.678655 232.717438 
L 447.678655 232.43251 
L 448.013365 232.617796 
L 448.013365 232.387294 
L 448.347342 232.764132 
L 448.347342 232.470983 
L 448.680829 232.687476 
L 449.016762 232.661503 
L 449.016762 232.787655 
L 449.356606 232.764037 
L 449.356606 232.593193 
L 450.026271 232.77189 
L 450.026271 232.56586 
L 450.364892 233.00054 
L 450.364892 232.738128 
L 450.69838 232.823801 
L 450.69838 232.622911 
L 451.032846 232.822484 
L 451.032846 232.564723 
L 451.367067 232.850337 
L 451.367067 232.543161 
L 451.701288 232.803528 
L 451.701288 232.547123 
L 452.035998 232.824622 
L 452.035998 232.6525 
L 452.369241 232.956522 
L 452.369241 232.758649 
L 452.702484 233.050907 
L 452.702484 232.919452 
L 453.037683 233.10686 
L 453.037683 232.831479 
L 453.370681 233.082888 
L 453.370681 232.731872 
L 453.70588 232.884581 
L 453.70588 232.693257 
L 454.040346 233.031475 
L 454.040346 232.850179 
L 454.374078 233.09979 
L 454.374078 232.810854 
L 454.70781 232.993957 
L 454.70781 232.779859 
L 455.383831 233.261997 
L 455.383831 233.082294 
L 456.050073 233.39122 
L 456.050073 233.339709 
L 456.383316 233.581043 
L 456.383316 233.484285 
L 456.72096 233.626511 
L 456.72096 233.48471 
L 457.053714 233.554882 
L 457.053714 233.376636 
L 457.386468 233.496984 
L 457.386468 233.399502 
L 458.385464 233.5125 
L 458.385464 233.419014 
L 458.718707 233.463773 
L 458.718707 233.333861 
L 459.053661 233.46225 
L 459.053661 233.299287 
L 459.388616 233.419427 
L 459.388616 233.274405 
L 459.721614 233.308575 
L 459.721614 233.179348 
L 460.054368 233.181242 
L 460.054368 233.125468 
L 460.392501 233.329018 
L 460.392501 233.132837 
L 461.724006 233.19327 
L 461.724006 233.083311 
L 462.056271 233.091074 
L 462.056271 232.810004 
L 462.056271 232.872599 
L 462.722513 233.216793 
L 463.055756 233.269788 
L 463.055756 233.076713 
L 463.720775 233.331537 
L 463.720775 233.130741 
L 464.053529 233.287753 
L 464.053529 233.275679 
L 464.387261 233.318738 
L 464.387261 233.139406 
L 465.397259 233.281394 
L 465.397259 233.279981 
L 465.731969 233.457595 
L 465.731969 232.969981 
L 466.396988 232.468791 
L 466.729498 232.600614 
L 466.729498 233.087202 
L 467.06323 233.143851 
L 467.06323 233.363421 
L 467.729716 233.364158 
L 467.729716 233.170563 
L 468.063937 233.331634 
L 468.063937 233.10537 
L 468.398403 233.009575 
L 468.731401 233.069863 
L 468.731401 232.969756 
L 469.064155 232.848782 
L 469.064155 232.850461 
L 469.064155 233.131465 
L 469.396909 233.041829 
L 469.396909 233.226133 
L 470.060951 233.363025 
L 470.060951 233.132911 
L 470.400061 233.02781 
L 470.400061 232.6678 
L 470.734038 232.855488 
L 470.734038 232.55383 
L 471.399057 233.225962 
L 471.399057 232.983477 
L 471.732056 233.185898 
L 471.732056 233.005017 
L 472.398786 233.227248 
L 472.398786 233.207737 
L 472.73154 233.351394 
L 472.73154 233.165654 
L 473.065761 233.19481 
L 473.065761 232.940027 
L 473.399493 233.044067 
L 473.399493 232.911223 
L 474.07038 233.295228 
L 474.07038 233.075077 
L 474.404601 233.234527 
L 474.404601 232.902481 
L 474.739067 233.082294 
L 474.739067 232.786551 
L 475.072554 232.974214 
L 475.072554 232.644413 
L 475.411665 232.95752 
L 475.411665 232.82648 
L 475.745886 233.009046 
L 475.745886 232.868406 
L 476.07864 233.232364 
L 476.07864 233.11652 
L 476.74586 233.358472 
L 476.74586 233.274989 
L 477.078859 233.367752 
L 477.078859 233.11189 
L 477.41308 233.355847 
L 477.41308 233.248984 
L 477.746078 233.218692 
L 477.746078 233.018509 
L 478.411586 232.964494 
L 478.411586 232.823977 
L 478.746052 232.991964 
L 479.078561 233.239361 
L 479.078561 232.960633 
L 479.410582 233.206984 
L 479.410582 233.000087 
L 479.743581 233.147382 
L 479.743581 232.935449 
L 480.078291 233.197733 
L 480.078291 233.129411 
L 481.081932 233.089328 
L 481.414441 233.302251 
L 481.414441 233.038651 
L 481.747195 233.327821 
L 481.747195 233.090065 
L 482.079705 233.32484 
L 482.079705 233.060652 
L 482.41197 232.954073 
L 482.75157 233.229854 
L 482.75157 232.937271 
L 483.084568 233.15229 
L 483.751299 232.926755 
L 483.751299 232.957897 
L 484.084786 232.854739 
L 485.08476 233.398099 
L 485.08476 233.208528 
L 486.755376 233.853264 
L 487.087397 233.806149 
L 487.087397 233.829726 
L 487.417461 233.901889 
L 487.417461 233.860272 
L 487.747771 233.804175 
L 487.747771 233.881464 
L 489.065095 234.023139 
L 489.722535 233.850673 
L 491.699011 233.986246 
L 492.026631 233.82873 
L 492.682115 233.936411 
L 493.666197 233.924537 
L 493.994061 233.992168 
L 494.977898 233.766011 
L 495.639983 234.011885 
L 495.639983 234.101025 
L 496.625532 234.018991 
L 496.625532 234.033077 
L 496.625532 234.077964 
L 497.940656 234.050623 
L 497.940656 233.958532 
L 499.256758 234.027393 
L 500.58264 233.758317 
L 500.58264 233.840539 
L 500.911971 233.996856 
L 501.242036 233.89391 
L 501.574301 233.971932 
L 501.574301 233.851463 
L 501.904121 233.8124 
L 502.234675 233.888294 
L 502.56474 233.811146 
L 503.225358 234.029716 
L 503.225358 234.080735 
L 504.879104 234.1516 
L 504.879104 234.071389 
L 505.215281 233.896673 
L 505.878833 233.696342 
L 506.209876 233.781959 
L 506.871717 234.009041 
L 506.871717 233.992091 
L 507.203737 234.048795 
L 507.203737 233.895557 
L 507.866556 233.85876 
L 507.866556 233.807232 
L 508.198332 233.719194 
L 508.198332 233.885161 
L 508.862862 233.934737 
L 509.194883 233.668583 
L 509.527392 233.574154 
L 509.864303 233.697415 
L 509.864303 233.825553 
L 510.202191 233.888291 
L 510.202191 233.806901 
L 510.533723 233.735305 
L 510.533723 233.614495 
L 511.19972 233.735673 
L 511.19972 233.723141 
L 511.533207 233.898719 
L 511.533207 233.817997 
L 512.197249 233.741882 
L 512.530492 233.592754 
L 512.530492 233.598452 
L 513.866398 233.742417 
L 513.866398 233.632327 
L 514.865149 233.92894 
L 514.865149 233.869114 
L 515.202793 233.912443 
L 515.202793 233.663303 
L 515.202793 233.669268 
L 515.535547 233.413948 
L 515.867568 233.422544 
L 515.867568 233.200872 
L 516.200322 233.459964 
L 516.200322 233.341821 
L 516.866563 233.699912 
L 516.866563 233.655783 
L 517.199562 233.70862 
L 517.199562 233.57555 
L 517.532805 233.668059 
L 517.532805 233.512028 
L 517.866537 233.642831 
L 517.866537 233.628451 
L 517.866537 233.836152 
L 518.530578 233.825461 
L 518.530578 233.710552 
L 518.869445 233.674492 
L 518.869445 233.442804 
L 519.535686 233.681868 
L 519.535686 233.397669 
L 519.867707 233.64158 
L 519.867707 233.412554 
L 520.868658 233.736372 
L 520.868658 233.586469 
L 521.203368 233.427038 
L 521.869121 233.453682 
L 522.201142 233.646522 
L 522.201142 233.412688 
L 522.533407 233.479149 
L 522.533407 233.269516 
L 523.530691 233.774346 
L 523.530691 233.595519 
L 523.863934 233.778073 
L 523.863934 233.583309 
L 524.195955 233.5918 
L 524.195955 233.34971 
L 525.198862 233.375481 
L 525.198862 233.511158 
L 525.865104 233.679189 
L 525.865104 233.51541 
L 526.530123 233.481992 
L 526.530123 233.275522 
L 526.530123 233.556422 
L 527.200276 233.389897 
L 527.532052 233.674626 
L 527.532052 233.559835 
L 527.864318 233.617822 
L 527.864318 233.610476 
L 528.198783 233.822289 
L 528.198783 233.503225 
L 528.532515 233.57928 
L 528.532515 233.504746 
L 528.865514 233.540503 
L 528.865514 233.174322 
L 529.198268 233.399191 
L 529.198268 233.270422 
L 529.530044 233.311754 
L 529.530044 233.238255 
L 529.862553 233.515355 
L 529.862553 233.362927 
L 530.532707 233.614502 
L 530.532707 233.484048 
L 530.863994 233.673277 
L 530.863994 233.424917 
L 531.195526 233.585345 
L 531.195526 233.420905 
L 531.529258 233.540954 
L 531.529258 233.372002 
L 531.861767 233.629094 
L 531.861767 233.516334 
L 532.194521 233.687896 
L 532.194521 233.557586 
L 532.526297 233.746693 
L 532.526297 233.549287 
L 532.857829 233.584125 
L 532.857829 233.421805 
L 533.190339 233.502887 
L 533.190339 233.231726 
L 533.523093 233.353284 
L 533.523093 233.142554 
L 535.19542 233.424466 
L 535.19542 233.281104 
L 535.527685 233.525945 
L 535.527685 233.303231 
L 535.85995 233.479189 
L 535.85995 233.249273 
L 536.196861 233.501427 
L 536.196861 233.281098 
L 536.529615 233.539463 
L 536.529615 233.321339 
L 536.861147 233.552705 
L 536.861147 233.165468 
L 537.193167 233.21077 
L 537.526899 233.002432 
L 537.859653 233.166308 
L 537.859653 232.868672 
L 537.859653 233.143938 
L 538.527117 233.321261 
L 538.527117 233.280902 
L 538.859871 233.300987 
L 538.859871 233.167232 
L 539.525624 232.798977 
L 539.525624 232.8724 
L 539.858867 232.851644 
L 539.858867 232.683089 
L 540.198711 233.132767 
L 540.198711 232.987206 
L 540.532443 233.20637 
L 540.532443 232.947176 
L 540.863975 233.292789 
L 540.863975 232.940141 
L 541.196485 233.213302 
L 541.196485 232.963997 
L 541.528261 233.245536 
L 541.528261 233.078787 
L 541.861259 233.289626 
L 541.861259 232.948305 
L 542.527256 232.807652 
L 542.859521 232.969184 
L 543.192765 233.31331 
L 543.192765 233.093076 
L 543.526741 233.240809 
L 543.526741 233.03674 
L 543.85974 233.296762 
L 543.85974 233.184465 
L 544.192983 233.344553 
L 544.192983 233.217161 
L 544.524514 233.404608 
L 544.524514 233.163319 
L 544.858246 233.327375 
L 544.858246 233.179882 
L 545.20078 233.332781 
L 545.20078 233.178762 
L 545.533779 233.394615 
L 545.533779 233.10967 
L 545.866777 233.323013 
L 545.866777 233.200301 
L 546.199042 233.351971 
L 546.199042 233.17873 
L 546.531063 233.456621 
L 546.531063 233.245376 
L 546.863817 233.150822 
L 547.195593 233.22196 
L 547.195593 233.154222 
L 547.528836 233.111811 
L 547.862079 233.349975 
L 547.862079 233.127797 
L 548.194833 233.406952 
L 548.194833 233.338668 
L 548.528076 233.510753 
L 548.528076 233.329523 
L 548.861319 233.488109 
L 548.861319 233.300116 
L 549.193829 233.354071 
L 549.193829 233.197443 
L 549.526338 233.271723 
L 549.526338 233.095996 
L 549.859826 233.235662 
L 549.859826 232.955755 
L 550.196981 233.151408 
L 550.196981 232.93729 
L 550.862 233.246153 
L 550.862 233.004385 
L 551.528242 232.995101 
L 551.528242 232.754914 
L 551.859773 232.818407 
L 551.859773 232.815619 
L 552.193505 233.117183 
L 552.193505 232.928275 
L 552.526259 233.282877 
L 552.526259 233.024637 
L 552.85828 233.245289 
L 552.85828 232.972972 
L 553.19079 233.252691 
L 553.19079 232.840096 
L 553.524277 233.145148 
L 553.524277 232.906022 
L 553.856787 233.125836 
L 553.856787 232.897331 
L 554.189296 233.287759 
L 554.189296 233.089699 
L 554.521561 233.373725 
L 554.521561 233.155168 
L 554.859939 233.347902 
L 554.859939 232.937652 
L 555.198072 233.138686 
L 555.198072 232.868302 
L 555.53107 233.05723 
L 555.53107 232.785997 
L 555.862846 233.091939 
L 555.862846 232.896318 
L 556.196823 233.124546 
L 556.196823 232.880934 
L 556.529088 233.139758 
L 556.529088 232.941945 
L 556.86062 233.170078 
L 556.86062 233.035078 
L 557.193374 233.282733 
L 557.193374 233.142856 
L 557.526372 233.355012 
L 557.526372 233.181567 
L 557.859126 233.397219 
L 557.859126 233.120466 
L 558.19188 233.301554 
L 558.19188 233.185503 
L 558.525123 233.326453 
L 558.525123 233.117137 
L 558.860322 233.417704 
L 558.860322 233.230129 
L 559.193321 233.448665 
L 559.193321 233.147809 
L 559.526075 233.23505 
L 559.526075 233.063928 
L 560.201607 232.962525 
L 560.201607 233.136885 
L 560.867115 233.467433 
L 560.867115 233.432207 
L 561.199136 233.432168 
L 561.199136 233.29051 
L 561.532379 233.457443 
L 561.532379 233.266312 
L 561.532379 233.487058 
L 562.530641 233.562295 
L 562.530641 233.595986 
L 562.863395 233.550812 
L 562.863395 233.386828 
L 563.196394 233.106144 
L 563.52817 233.281391 
L 563.52817 233.120893 
L 563.861169 233.44161 
L 564.199791 233.44605 
L 564.199791 233.256863 
L 564.531811 233.39733 
L 564.531811 233.095529 
L 564.866032 233.201854 
L 564.866032 232.964741 
L 565.204654 233.173147 
L 565.204654 233.008578 
L 565.537164 233.276481 
L 565.537164 233.072441 
L 565.869918 233.376071 
L 565.869918 233.191455 
L 566.202183 233.274384 
L 566.202183 233.126422 
L 566.53567 233.299884 
L 566.53567 232.936063 
L 566.867935 233.01269 
L 566.867935 232.837377 
L 567.200445 232.97613 
L 567.200445 232.879637 
L 568.199441 233.030637 
L 568.199441 232.954478 
L 568.532195 233.290229 
L 568.532195 233.03677 
L 569.198925 233.48089 
L 569.198925 233.179035 
L 569.532413 233.404759 
L 569.532413 233.113109 
L 569.866389 233.119308 
L 569.866389 232.77486 
L 570.204278 232.849619 
L 570.204278 232.299719 
L 570.53801 232.372329 
L 570.53801 231.142204 
L 570.871008 230.551387 
L 570.871008 227.989852 
L 571.203518 227.659851 
L 571.203518 222.858594 
L 571.537494 222.144498 
L 571.537494 212.657147 
L 571.869271 211.422415 
L 571.869271 198.756486 
L 572.201291 197.018192 
L 572.201291 177.204868 
L 572.531845 179.633243 
L 572.531845 157.408299 
L 572.861176 163.674351 
L 572.861176 134.926272 
L 573.189529 145.468797 
L 573.189529 113.076571 
L 573.517882 126.745912 
L 573.517882 92.971724 
L 573.850636 115.290297 
L 573.850636 79.864445 
L 574.178501 107.512151 
L 574.178501 69.31637 
L 574.50612 97.458842 
L 574.50612 58.536213 
L 574.83374 94.293035 
L 574.83374 53.214248 
L 575.167228 89.283662 
L 575.167228 51.066789 
L 575.494603 89.682529 
L 575.494603 49.932727 
L 575.822467 88.303044 
L 575.822467 56.473003 
L 576.150087 95.425912 
L 576.150087 60.571473 
L 576.477707 101.423859 
L 576.477707 68.777094 
L 576.805571 104.701891 
L 576.805571 78.400824 
L 577.133435 118.599559 
L 577.133435 92.541679 
L 577.461544 133.677676 
L 577.461544 110.021383 
L 577.789408 140.418711 
L 577.789408 116.591273 
L 578.117272 143.478043 
L 578.117272 120.218677 
L 578.445625 148.692859 
L 578.445625 126.724421 
L 578.773979 152.100352 
L 578.773979 134.654499 
L 579.105021 159.72114 
L 579.105021 139.723635 
L 579.433863 162.970119 
L 579.433863 143.883614 
L 579.762706 164.418001 
L 579.762706 146.716292 
L 580.096438 165.970559 
L 580.096438 151.581017 
L 580.42528 171.025665 
L 580.42528 156.031369 
L 580.754122 174.779614 
L 580.754122 159.436661 
L 581.083698 175.219925 
L 581.083698 161.801667 
L 581.413518 177.076007 
L 581.413518 163.819587 
L 581.742605 182.270432 
L 581.742605 169.358679 
L 582.07218 184.871169 
L 582.07218 175.684167 
L 582.402 189.375378 
L 582.402 178.013941 
L 582.731821 191.841082 
L 582.731821 180.55304 
L 583.068487 192.521174 
L 583.068487 180.270169 
L 583.397818 190.579147 
L 583.397818 181.198258 
L 583.727393 192.981074 
L 583.727393 181.317813 
L 584.057214 193.841504 
L 584.057214 185.443027 
L 584.387767 196.366486 
L 584.387767 185.973312 
L 584.718565 198.171661 
L 584.718565 189.166191 
L 585.054742 199.009499 
L 585.054742 191.603135 
L 585.385296 202.914886 
L 585.385296 194.329663 
L 585.717316 204.488317 
L 585.717316 197.337898 
L 586.048848 205.912889 
L 586.048848 197.979842 
L 586.380135 206.241518 
L 586.380135 199.548945 
L 586.711178 208.145751 
L 586.711178 201.876306 
L 587.042954 210.569921 
L 587.042954 204.883033 
L 587.37473 212.124104 
L 587.37473 203.384119 
L 587.706751 209.200851 
L 587.706751 203.801066 
L 588.037793 210.0331 
L 588.037793 203.437385 
L 588.370547 212.201578 
L 588.370547 206.888379 
L 588.703057 213.115485 
L 588.703057 208.497657 
L 589.035566 215.661512 
L 589.035566 210.830101 
L 589.368076 216.842007 
L 589.368076 211.875501 
L 589.700341 217.300984 
L 589.700341 212.263012 
L 590.037985 217.410801 
L 590.037985 212.356074 
L 590.370739 217.18164 
L 590.370739 212.648533 
L 590.703004 217.334096 
L 590.703004 213.110602 
L 591.036003 218.120148 
L 591.036003 214.601402 
L 591.368268 219.185849 
L 591.368268 215.71375 
L 591.705178 219.968225 
L 591.705178 216.427413 
L 592.037932 220.332567 
L 592.037932 216.904288 
L 592.370197 221.003903 
L 592.370197 217.653378 
L 592.70344 221.95146 
L 592.70344 218.050197 
L 593.036684 221.860646 
L 593.036684 218.193798 
L 593.368215 221.760674 
L 593.368215 219.018536 
L 593.701214 223.092771 
L 593.701214 220.065898 
L 594.034212 223.723556 
L 594.034212 221.138416 
L 594.368189 224.066483 
L 594.368189 221.017988 
L 594.700943 224.01018 
L 594.700943 221.087476 
L 595.040298 224.061734 
L 595.040298 221.26857 
L 595.375742 224.335326 
L 595.375742 221.841507 
L 595.708496 225.133852 
L 595.708496 222.903015 
L 596.041005 225.422093 
L 596.041005 223.309039 
L 596.373515 225.889772 
L 596.373515 224.008782 
L 596.706513 226.194236 
L 596.706513 224.359885 
L 597.040735 226.415966 
L 597.040735 225.087388 
L 597.374467 226.902258 
L 597.374467 224.872178 
L 597.706976 227.171279 
L 597.706976 225.347004 
L 598.039975 226.976952 
L 598.039975 225.22866 
L 598.37224 227.139277 
L 598.37224 225.149813 
L 598.705238 227.225529 
L 598.705238 225.64345 
L 599.37148 226.029422 
L 599.70399 225.861993 
L 599.70399 226.185558 
L 600.0431 227.795272 
L 600.0431 226.736724 
L 600.380255 228.920864 
L 600.380255 227.654628 
L 600.713254 229.091973 
L 600.713254 227.872153 
L 601.378518 227.738271 
L 601.378518 228.183249 
L 601.711516 228.103915 
L 601.711516 228.258373 
L 602.04427 229.660185 
L 602.04427 228.639408 
L 602.377758 229.868482 
L 602.377758 229.010969 
L 602.711245 230.315515 
L 602.711245 229.045512 
L 603.044488 230.232358 
L 603.044488 229.209815 
L 603.377242 230.133457 
L 603.377242 229.067424 
L 603.709996 230.451954 
L 603.709996 229.48323 
L 604.043484 230.438314 
L 604.043484 229.330623 
L 604.37526 230.443561 
L 604.37526 229.462825 
L 604.708503 230.310009 
L 604.708503 229.475066 
L 605.048836 230.90215 
L 605.048836 230.094375 
L 605.717034 230.147922 
L 605.717034 230.314924 
L 606.050033 229.855043 
L 606.38352 230.742516 
L 606.38352 229.990581 
L 606.716763 230.935598 
L 606.716763 230.223456 
L 607.050495 231.15908 
L 607.050495 230.384714 
L 607.383983 231.300163 
L 607.383983 230.614219 
L 607.71747 231.580253 
L 607.71747 230.981073 
L 608.051936 231.889661 
L 608.051936 231.217035 
L 608.385912 231.839487 
L 608.385912 231.196688 
L 608.720133 231.811812 
L 608.720133 230.998293 
L 609.051909 231.676677 
L 609.051909 231.165989 
L 609.387353 231.931783 
L 609.387353 231.303138 
L 609.721085 232.050139 
L 609.721085 231.3803 
L 610.059218 231.958248 
L 610.059218 231.114254 
L 610.39784 231.797921 
L 610.39784 230.986476 
L 610.730838 231.607491 
L 610.730838 230.837214 
L 611.062859 231.603336 
L 611.062859 230.913418 
L 611.395858 231.783764 
L 611.395858 231.232168 
L 611.728856 231.981828 
L 611.728856 231.236261 
L 612.061366 231.877398 
L 612.061366 231.060238 
L 612.394853 231.578288 
L 612.394853 231.013264 
L 612.728341 231.755223 
L 612.728341 231.086502 
L 613.061339 231.89092 
L 613.061339 231.526036 
L 613.393849 232.160337 
L 613.393849 231.602825 
L 613.726603 232.295658 
L 613.726603 231.500684 
L 614.060824 231.937077 
L 614.060824 231.376114 
L 614.394067 231.95933 
L 614.394067 231.523409 
L 614.726577 232.263614 
L 614.726577 231.54732 
L 615.06691 232.017362 
L 615.06691 231.510278 
L 615.39942 231.975922 
L 615.39942 231.461432 
L 615.732174 232.228953 
L 615.732174 231.493712 
L 616.066639 231.92447 
L 616.066639 231.352475 
L 616.400371 231.883025 
L 616.400371 231.45919 
L 616.732881 232.292871 
L 616.732881 231.814952 
L 617.067591 232.335124 
L 617.067591 231.644924 
L 617.400834 232.153636 
L 617.400834 231.477802 
L 617.736033 232.020712 
L 617.736033 231.712552 
L 618.069031 232.367597 
L 618.069031 231.893892 
L 618.401296 232.532863 
L 618.401296 231.92897 
L 618.740163 232.339084 
L 618.740163 231.890346 
L 619.074139 232.266495 
L 619.074139 231.935416 
L 619.409094 232.54895 
L 619.409094 232.052842 
L 619.741359 232.541365 
L 619.741359 232.021165 
L 620.079736 232.305645 
L 620.079736 231.915946 
L 620.413957 232.316705 
L 620.413957 231.937667 
L 620.749645 232.412284 
L 620.749645 231.985707 
L 621.083622 232.482758 
L 621.083622 232.103203 
L 621.417109 232.546279 
L 621.417109 232.282265 
L 621.750841 232.764664 
L 621.750841 232.339782 
L 622.086285 232.853242 
L 622.086285 232.416475 
L 622.421239 232.795113 
L 622.421239 232.380543 
L 622.757172 232.71489 
L 622.757172 232.332026 
L 623.091393 232.737124 
L 623.091393 232.393021 
L 623.426836 232.806897 
L 623.426836 232.6109 
L 623.760568 233.007072 
L 623.760568 232.770278 
L 624.094056 233.090242 
L 624.094056 232.711569 
L 624.428277 232.911083 
L 624.428277 232.561942 
L 624.76152 232.833763 
L 624.76152 232.379588 
L 625.100142 232.746136 
L 625.100142 232.449117 
L 625.434118 232.708481 
L 625.434118 232.233286 
L 625.767117 232.766359 
L 625.767117 232.482403 
L 626.102805 232.778284 
L 626.102805 232.603689 
L 626.771247 232.610353 
L 626.771247 232.693447 
L 627.105713 232.624893 
L 627.439689 233.082725 
L 627.439689 232.751568 
L 627.772688 232.69566 
L 627.772688 232.700185 
L 628.110332 232.998294 
L 628.110332 232.83821 
L 628.444064 232.864427 
L 628.444064 233.098945 
L 628.777062 233.023859 
L 628.777062 232.801833 
L 629.110305 232.98627 
L 629.110305 232.85317 
L 629.443793 232.664376 
L 630.116636 232.587642 
L 630.116636 232.823442 
L 630.785078 233.151153 
L 630.785078 233.118174 
L 631.118076 233.161616 
L 631.118076 233.021246 
L 631.451564 233.04718 
L 631.451564 232.929866 
L 631.784562 233.121655 
L 631.784562 233.019537 
L 632.451048 233.180709 
L 632.451048 232.94535 
L 632.783558 233.075635 
L 632.783558 232.870279 
L 633.117535 232.984117 
L 633.117535 232.780723 
L 633.451267 233.056519 
L 633.451267 233.023118 
L 633.786955 233.095459 
L 633.786955 232.936241 
L 634.123132 232.89085 
L 634.456375 232.608541 
L 635.128729 232.906244 
L 635.128729 233.000897 
L 635.463439 232.894322 
L 635.797904 232.775887 
L 636.465613 232.447883 
L 638.476807 232.439778 
L 638.476807 232.47342 
L 638.810294 232.281416 
L 638.810294 231.943687 
L 639.475558 231.778244 
L 639.475558 231.811104 
L 639.810268 232.131361 
L 639.810268 232.355652 
L 640.148401 232.444085 
L 640.148401 232.931544 
L 640.812931 233.02562 
L 640.812931 232.981656 
L 641.480395 232.670883 
L 641.480395 232.758658 
L 642.47988 232.909281 
L 642.47988 232.869815 
L 642.813612 232.932176 
L 642.813612 232.662221 
L 643.481076 232.257294 
L 643.481076 232.357074 
L 643.815297 232.659561 
L 643.815297 232.866432 
L 644.485695 232.971043 
L 644.485695 233.022763 
L 644.819671 233.121692 
L 645.157071 232.93492 
L 645.157071 232.9447 
L 645.157071 233.105107 
L 645.491536 233.21014 
L 645.825268 233.415634 
L 645.825268 233.326815 
L 646.159489 233.18738 
L 646.159489 233.054082 
L 646.159489 233.214878 
L 646.49371 233.220191 
L 646.49371 233.350492 
L 649.162344 233.198806 
L 649.162344 233.012885 
L 649.496076 232.837597 
L 650.167208 233.224847 
L 651.499202 233.111209 
L 651.499202 232.860036 
L 651.831222 233.028217 
L 651.831222 233.301383 
L 652.828751 233.426474 
L 652.828751 233.30216 
L 653.159794 233.578675 
L 653.159794 233.479012 
L 653.490103 233.494838 
L 653.490103 233.366585 
L 653.820412 233.418638 
L 653.820412 233.295792 
L 654.481764 233.652116 
L 654.481764 233.359937 
L 654.813051 233.372315 
L 654.813051 233.233954 
L 655.479293 233.429493 
L 655.479293 233.486982 
L 656.146512 233.635382 
L 656.146512 233.589696 
L 656.476332 233.624332 
L 656.476332 233.616325 
L 656.80713 233.320106 
L 657.137684 233.195907 
L 657.137684 233.27559 
L 657.468238 233.210985 
L 657.800258 233.488269 
L 657.800258 233.427878 
L 658.131056 233.427015 
L 658.131056 233.298027 
L 659.454738 233.70284 
L 659.454738 233.463632 
L 660.121958 233.504412 
L 660.121958 233.358759 
L 660.452511 233.625216 
L 660.452511 233.506385 
L 661.450284 233.790142 
L 661.450284 233.673523 
L 662.114815 233.438446 
L 662.114815 233.565563 
L 662.447813 233.603476 
L 662.447813 233.812756 
L 662.780078 233.868429 
L 662.780078 233.663522 
L 663.445342 233.472384 
L 664.110606 233.711501 
L 664.110606 233.664287 
L 664.781004 233.56492 
L 664.781004 233.642 
L 665.119136 233.719172 
L 665.119136 233.647256 
L 665.453113 233.522974 
L 665.786112 233.699936 
L 665.786112 233.632618 
L 666.120088 233.499774 
L 666.120088 233.599361 
L 666.452842 233.590694 
L 666.452842 233.414359 
L 666.789019 233.503436 
L 667.124218 233.411673 
L 668.125414 233.665414 
L 668.125414 233.584714 
L 668.793856 233.37644 
L 669.79603 233.647446 
L 669.79603 233.595624 
L 670.806273 233.667886 
L 670.806273 233.809277 
L 671.474959 233.906841 
L 671.474959 233.877054 
L 671.812114 233.742846 
L 672.146824 233.596979 
L 672.146824 233.627996 
L 672.822356 233.741859 
L 672.822356 233.895258 
L 673.495444 233.873047 
L 673.495444 233.846556 
L 673.829665 233.774315 
L 673.829665 233.846075 
L 674.499329 233.946182 
L 674.499329 233.931133 
L 675.175351 233.629181 
L 676.523237 233.62604 
L 676.523237 233.645201 
L 676.860147 233.7739 
L 676.860147 233.595145 
L 677.532501 233.659743 
L 677.532501 233.581928 
L 677.869656 233.629128 
L 677.869656 233.582727 
L 678.543722 233.555415 
L 678.880143 233.480152 
L 679.217787 233.627972 
L 679.217787 233.620989 
L 679.892586 233.789923 
L 679.892586 233.557987 
L 680.567874 233.411209 
L 680.567874 233.458949 
L 680.903073 233.515472 
L 680.903073 233.868001 
L 681.57396 233.970468 
L 682.246069 233.826366 
L 682.246069 233.716127 
L 682.582246 233.787658 
L 682.582246 233.662793 
L 683.593955 233.530907 
L 683.593955 233.647902 
L 684.267776 233.927236 
L 684.940375 233.906223 
L 684.940375 233.724958 
L 685.620552 233.831858 
L 685.620552 233.720946 
L 685.959174 233.860108 
L 685.959174 233.785476 
L 686.632262 233.807636 
L 686.632262 233.679408 
L 687.306327 233.76157 
L 687.306327 233.713491 
L 687.981859 233.719209 
L 687.981859 233.790326 
L 688.323415 233.736423 
L 688.662281 233.931146 
L 688.662281 233.789534 
L 690.690101 233.793835 
L 691.030923 233.873435 
L 691.030923 233.701628 
L 691.368323 233.879622 
L 691.368323 233.836321 
L 692.041654 233.93693 
L 692.041654 233.725783 
L 692.378076 233.654241 
L 693.053608 233.757152 
L 694.065073 233.881757 
L 694.065073 233.777737 
L 696.44105 233.861855 
L 696.44105 233.836059 
L 697.455448 233.495074 
L 697.455448 233.462395 
L 698.130736 233.636168 
L 698.130736 233.785996 
L 699.148802 233.712642 
L 699.148802 233.639462 
L 699.48718 233.764723 
L 699.48718 233.617058 
L 699.824579 233.81614 
L 699.824579 233.73949 
L 700.16369 233.599544 
L 700.509402 233.678129 
L 700.509402 233.492379 
L 700.846801 233.502545 
L 700.846801 233.645855 
L 701.187135 233.569664 
L 701.187135 233.611882 
L 701.867068 233.813101 
L 702.208135 233.744468 
L 703.56629 233.921057 
L 704.919555 233.637586 
L 705.258421 233.736332 
L 705.258421 233.905504 
L 705.938354 233.759599 
L 706.277954 233.850567 
L 707.636598 233.674941 
L 707.636598 233.81238 
L 707.976931 233.710903 
L 707.976931 233.795322 
L 708.315309 233.729533 
L 708.994753 233.812873 
L 708.994753 233.756193 
L 710.697642 233.764273 
L 710.697642 233.754585 
L 711.036753 233.612339 
L 712.056531 233.821787 
L 712.400042 233.764999 
L 712.400042 233.841447 
L 713.076064 233.883831 
L 713.076064 233.911509 
L 713.755997 234.006008 
L 713.755997 233.90901 
L 715.117086 233.72353 
L 715.117086 233.69088 
L 715.45693 233.689783 
L 715.45693 233.749946 
L 715.802642 233.821361 
L 715.802642 233.803868 
L 716.48282 233.785655 
L 716.823153 233.903249 
L 717.162753 233.991213 
L 717.162753 233.95538 
L 717.842931 233.768152 
L 718.522864 233.929153 
L 719.202064 233.803746 
L 719.202064 233.836513 
L 719.881019 233.948692 
L 719.881019 233.763968 
L 720.567553 233.555188 
L 721.250665 233.62343 
L 721.250665 233.728421 
L 722.271665 233.809392 
L 723.289731 233.734804 
L 723.289731 233.854994 
L 723.62982 233.84493 
L 723.62982 233.716918 
L 724.65082 233.925512 
L 724.65082 233.818194 
L 725.330997 233.66257 
L 725.669864 233.842163 
L 725.669864 233.813096 
L 726.69502 233.806494 
L 726.69502 233.776389 
L 727.372753 233.878123 
L 727.372753 233.828896 
L 727.710641 233.938434 
L 727.710641 233.869641 
L 729.074909 233.860014 
L 729.412552 233.767483 
L 729.412552 233.879103 
L 730.090774 233.979198 
L 730.090774 233.839628 
L 730.430619 233.758084 
L 730.770707 233.613199 
L 731.456264 233.55253 
L 731.456264 233.558657 
L 731.796353 233.740275 
L 732.813196 233.64123 
L 732.813196 233.805263 
L 733.83224 233.96348 
L 734.852018 233.818588 
L 734.852018 233.891814 
L 735.869351 233.824761 
L 735.869351 233.741345 
L 736.559797 233.665577 
L 738.257307 233.765443 
L 738.257307 233.866464 
L 739.274151 233.663954 
L 739.274151 233.780291 
L 739.611306 233.790225 
L 739.611306 233.94012 
L 740.290261 233.783453 
L 740.290261 233.861066 
L 740.966038 233.667243 
L 740.966038 233.754511 
L 741.649883 233.742453 
L 741.649883 233.84923 
L 742.329816 233.891912 
L 742.329816 233.714611 
L 743.006082 233.660791 
L 743.006082 233.691603 
L 743.346171 233.91344 
L 744.358858 233.747566 
L 744.358858 233.801686 
L 745.381569 233.81319 
L 745.381569 233.905451 
L 746.060036 233.906129 
L 746.060036 233.900078 
L 746.744614 233.876204 
L 746.744614 233.918614 
L 747.424792 233.997102 
L 748.102525 233.899414 
L 748.102525 233.917273 
L 748.782213 233.948799 
L 748.782213 233.901374 
L 749.122302 233.714056 
L 750.818101 233.902669 
L 751.157945 233.761703 
L 751.157945 233.762232 
L 751.157945 233.896677 
L 751.500235 233.833971 
L 751.500235 233.837542 
L 751.839345 234.029621 
L 752.176745 233.924164 
L 752.176745 233.989676 
L 752.513411 234.039961 
L 752.513411 233.976743 
L 753.531232 233.862688 
L 753.531232 233.757122 
L 754.213366 233.883234 
L 754.213366 233.99452 
L 755.226298 233.859803 
L 755.226298 233.942792 
L 756.590076 233.899054 
L 757.264875 233.659952 
L 757.264875 233.525902 
L 757.602763 233.474973 
L 757.602763 233.593644 
L 758.953339 233.674953 
L 758.953339 233.635327 
L 759.629605 233.935751 
L 760.30147 233.832633 
L 760.30147 233.699708 
L 760.640336 233.632088 
L 760.640336 233.753639 
L 761.316357 233.682787 
L 761.316357 233.757907 
L 764.361754 233.858815 
L 765.035819 233.90392 
L 765.035819 233.842666 
L 765.710618 233.777699 
L 765.710618 233.737341 
L 766.047284 233.85849 
L 766.047284 233.818578 
L 767.737215 233.799628 
L 767.737215 233.868304 
L 768.75088 233.796288 
L 768.75088 233.786968 
L 769.427146 233.757562 
L 770.101945 233.804538 
L 770.101945 233.7013 
L 770.438611 233.752015 
L 770.438611 233.687084 
L 770.775521 233.588816 
L 770.775521 233.68261 
L 771.794565 233.747074 
L 772.473276 233.669536 
L 772.473276 233.547377 
L 773.494521 233.787651 
L 773.494521 233.783547 
L 773.494521 233.846003 
L 773.831676 233.924238 
L 773.831676 233.86541 
L 774.844363 233.865863 
L 774.844363 233.899561 
L 775.852894 233.860213 
L 775.852894 233.857916 
L 776.188093 233.860921 
L 776.188093 233.831491 
L 776.52427 233.698075 
L 776.52427 233.739864 
L 777.206648 233.770062 
L 778.556245 233.902995 
L 778.556245 233.871406 
L 779.227866 233.742182 
L 779.227866 233.812018 
L 779.563798 233.644919 
L 779.563798 233.649467 
L 779.898753 233.724639 
L 779.898753 233.847421 
L 780.238108 233.834387 
L 780.238108 234.023802 
L 781.585505 233.857175 
L 781.585505 233.864618 
L 781.926817 233.913347 
L 781.926817 234.063102 
L 782.933881 233.669493 
L 782.933881 233.825676 
L 784.281278 233.76504 
L 784.281278 233.719957 
L 784.616966 233.686683 
L 784.616966 233.732587 
L 784.955588 233.858834 
L 784.955588 233.980678 
L 785.626719 233.980922 
L 785.626719 233.897169 
L 786.301029 233.94628 
L 786.301029 233.855175 
L 786.638429 233.761223 
L 786.638429 233.559376 
L 787.314694 233.65545 
L 787.314694 233.845092 
L 788.66038 233.610777 
L 788.66038 233.637457 
L 789.328578 233.720507 
L 789.328578 233.78049 
L 789.328578 233.776486 
L 790.001665 233.89726 
L 790.001665 233.866599 
L 790.665462 233.756758 
L 790.665462 233.810132 
L 790.996749 233.69654 
L 790.996749 233.714651 
L 791.328281 233.839318 
L 791.328281 233.771118 
L 791.659568 233.707255 
L 791.659568 233.816502 
L 791.995256 233.835135 
L 791.995256 233.704597 
L 792.325565 233.752262 
L 792.325565 233.616444 
L 792.655385 233.507285 
L 792.985205 233.628645 
L 793.645334 233.515433 
L 794.303997 233.551695 
L 794.303997 233.755343 
L 794.633083 233.697246 
L 794.633083 233.865107 
L 794.96217 233.747138 
L 795.291501 233.831543 
L 795.291501 233.801452 
L 795.620099 233.550906 
L 795.620099 233.726166 
L 796.277294 233.675284 
L 796.277294 233.900696 
L 796.940113 233.922396 
L 796.940113 234.008997 
L 796.940113 233.970479 
L 797.597064 233.79291 
L 797.597064 233.810979 
L 799.245431 233.729773 
L 799.903116 233.561765 
L 799.903116 233.722312 
L 800.5608 233.688879 
L 801.218485 233.873921 
L 801.218485 234.047624 
L 802.211368 234.091107 
L 802.869541 233.851876 
L 802.869541 233.92802 
L 803.199361 234.031248 
L 803.199361 234.129309 
L 803.528204 233.993431 
L 804.18711 233.694394 
L 804.18711 233.749355 
L 804.51742 233.784567 
L 804.51742 233.922822 
L 804.846995 234.06476 
L 804.846995 233.986644 
L 805.176326 233.971798 
L 805.176326 233.991722 
L 805.505658 233.84446 
L 805.836211 233.912727 
L 806.496585 233.591301 
L 806.496585 233.769795 
L 807.168694 233.842692 
L 807.168694 233.921823 
L 807.498759 233.893361 
L 807.498759 233.940452 
L 807.828579 234.010558 
L 807.828579 233.954769 
L 808.15791 233.939279 
L 808.15791 233.685854 
L 808.488709 233.501172 
L 808.488709 233.521619 
L 808.819262 233.622352 
L 808.819262 233.612244 
L 809.150549 233.883374 
L 809.150549 234.037113 
L 809.480858 233.869395 
L 809.480858 233.872696 
L 810.140988 233.734712 
L 810.140988 233.584297 
L 810.800384 233.781392 
L 811.131671 233.815179 
L 811.131671 233.96908 
L 811.463447 233.862126 
L 811.463447 233.712806 
L 812.129933 233.772339 
L 812.129933 233.931359 
L 812.460731 234.065757 
L 812.460731 233.893396 
L 812.791285 233.818284 
L 813.792236 233.895438 
L 813.792236 234.11726 
L 815.169217 234.326976 
L 816.558667 234.334728 
L 816.558667 234.33483 
" clip-path="url(#pc6218f3e23)" style="fill: none; stroke: #008000; stroke-width: 1.5; stroke-linecap: square"/>
   </g>
   <g id="patch_3">
    <path d="M 47.72 534.04 
L 47.72 26.88 
" style="fill: none; stroke: #000000; stroke-width: 0.8; stroke-linejoin: miter; stroke-linecap: square"/>
   </g>
   <g id="patch_4">
    <path d="M 853.2 534.04 
L 853.2 26.88 
" style="fill: none; stroke: #000000; stroke-width: 0.8; stroke-linejoin: miter; stroke-linecap: square"/>
   </g>
   <g id="patch_5">
    <path d="M 47.72 534.04 
L 853.2 534.04 
" style="fill: none; stroke: #000000; stroke-width: 0.8; stroke-linejoin: miter; stroke-linecap: square"/>
   </g>
   <g id="patch_6">
    <path d="M 47.72 26.88 
L 853.2 26.88 
" style="fill: none; stroke: #000000; stroke-width: 0.8; stroke-linejoin: miter; stroke-linecap: square"/>
   </g>
   <g id="patch_7">
    <path d="M 643.873388 405.496968 
Q 617.722094 411.33083 591.5708 417.164692 
L 592.441717 421.068729 
Q 585.933937 419.446751 579.426156 417.824773 
Q 584.627561 413.590696 589.828965 409.356619 
L 590.699883 413.260656 
Q 616.851176 407.426793 643.00247 401.592931 
L 643.873388 405.496968 
z
" style="stroke: #000000; stroke-linecap: round"/>
   </g>
   <g id="text_15">
    <!-- Peak: RT=3.36, Area=9.07e+03 -->
    <g style="fill: #ff0000" transform="translate(649.110023 389.002112) scale(0.1 -0.1)">
     <defs>
      <path id="DejaVuSans-50" d="M 1259 4147 
L 1259 2394 
L 2053 2394 
Q 2494 2394 2734 2622 
Q 2975 2850 2975 3272 
Q 2975 3691 2734 3919 
Q 2494 4147 2053 4147 
L 1259 4147 
z
M 628 4666 
L 2053 4666 
Q 2838 4666 3239 4311 
Q 3641 3956 3641 3272 
Q 3641 2581 3239 2228 
Q 2838 1875 2053 1875 
L 1259 1875 
L 1259 0 
L 628 0 
L 628 4666 
z
" transform="scale(0.015625)"/>
      <path id="DejaVuSans-6b" d="M 581 4863 
L 1159 4863 
L 1159 1991 
L 2875 3500 
L 3609 3500 
L 1753 1863 
L 3688 0 
L 2938 0 
L 1159 1709 
L 1159 0 
L 581 0 
L 581 4863 
z
" transform="scale(0.015625)"/>
      <path id="DejaVuSans-3a" d="M 750 794 
L 1409 794 
L 1409 0 
L 750 0 
L 750 794 
z
M 750 3309 
L 1409 3309 
L 1409 2516 
L 750 2516 
L 750 3309 
z
" transform="scale(0.015625)"/>
      <path id="DejaVuSans-3d" d="M 678 2906 
L 4684 2906 
L 4684 2381 
L 678 2381 
L 678 2906 
z
M 678 1631 
L 4684 1631 
L 4684 1100 
L 678 1100 
L 678 1631 
z
" transform="scale(0.015625)"/>
      <path id="DejaVuSans-36" d="M 2113 2584 
Q 1688 2584 1439 2293 
Q 1191 2003 1191 1497 
Q 1191 994 1439 701 
Q 1688 409 2113 409 
Q 2538 409 2786 701 
Q 3034 994 3034 1497 
Q 3034 2003 2786 2293 
Q 2538 2584 2113 2584 
z
M 3366 4563 
L 3366 3988 
Q 3128 4100 2886 4159 
Q 2644 4219 2406 4219 
Q 1781 4219 1451 3797 
Q 1122 3375 1075 2522 
Q 1259 2794 1537 2939 
Q 1816 3084 2150 3084 
Q 2853 3084 3261 2657 
Q 3669 2231 3669 1497 
Q 3669 778 3244 343 
Q 2819 -91 2113 -91 
Q 1303 -91 875 529 
Q 447 1150 447 2328 
Q 447 3434 972 4092 
Q 1497 4750 2381 4750 
Q 2619 4750 2861 4703 
Q 3103 4656 3366 4563 
z
" transform="scale(0.015625)"/>
      <path id="DejaVuSans-2c" d="M 750 794 
L 1409 794 
L 1409 256 
L 897 -744 
L 494 -744 
L 750 256 
L 750 794 
z
" transform="scale(0.015625)"/>
      <path id="DejaVuSans-41" d="M 2188 4044 
L 1331 1722 
L 3047 1722 
L 2188 4044 
z
M 1831 4666 
L 2547 4666 
L 4325 0 
L 3669 0 
L 3244 1197 
L 1141 1197 
L 716 0 
L 50 0 
L 1831 4666 
z
" transform="scale(0.015625)"/>
      <path id="DejaVuSans-39" d="M 703 97 
L 703 672 
Q 941 559 1184 500 
Q 1428 441 1663 441 
Q 2288 441 2617 861 
Q 2947 1281 2994 2138 
Q 2813 1869 2534 1725 
Q 2256 1581 1919 1581 
Q 1219 1581 811 2004 
Q 403 2428 403 3163 
Q 403 3881 828 4315 
Q 1253 4750 1959 4750 
Q 2769 4750 3195 4129 
Q 3622 3509 3622 2328 
Q 3622 1225 3098 567 
Q 2575 -91 1691 -91 
Q 1453 -91 1209 -44 
Q 966 3 703 97 
z
M 1959 2075 
Q 2384 2075 2632 2365 
Q 2881 2656 2881 3163 
Q 2881 3666 2632 3958 
Q 2384 4250 1959 4250 
Q 1534 4250 1286 3958 
Q 1038 3666 1038 3163 
Q 1038 2656 1286 2365 
Q 1534 2075 1959 2075 
z
" transform="scale(0.015625)"/>
      <path id="DejaVuSans-37" d="M 525 4666 
L 3525 4666 
L 3525 4397 
L 1831 0 
L 1172 0 
L 2766 4134 
L 525 4134 
L 525 4666 
z
" transform="scale(0.015625)"/>
      <path id="DejaVuSans-2b" d="M 2944 4013 
L 2944 2272 
L 4684 2272 
L 4684 1741 
L 2944 1741 
L 2944 0 
L 2419 0 
L 2419 1741 
L 678 1741 
L 678 2272 
L 2419 2272 
L 2419 4013 
L 2944 4013 
z
" transform="scale(0.015625)"/>
     </defs>
     <use xlink:href="#DejaVuSans-50"/>
     <use xlink:href="#DejaVuSans-65" transform="translate(56.677734 0)"/>
     <use xlink:href="#DejaVuSans-61" transform="translate(118.201172 0)"/>
     <use xlink:href="#DejaVuSans-6b" transform="translate(179.480469 0)"/>
     <use xlink:href="#DejaVuSans-3a" transform="translate(237.390625 0)"/>
     <use xlink:href="#DejaVuSans-20" transform="translate(271.082031 0)"/>
     <use xlink:href="#DejaVuSans-52" transform="translate(302.869141 0)"/>
     <use xlink:href="#DejaVuSans-54" transform="translate(365.101562 0)"/>
     <use xlink:href="#DejaVuSans-3d" transform="translate(426.185547 0)"/>
     <use xlink:href="#DejaVuSans-33" transform="translate(509.974609 0)"/>
     <use xlink:href="#DejaVuSans-2e" transform="translate(573.597656 0)"/>
     <use xlink:href="#DejaVuSans-33" transform="translate(605.384766 0)"/>
     <use xlink:href="#DejaVuSans-36" transform="translate(669.007812 0)"/>
     <use xlink:href="#DejaVuSans-2c" transform="translate(732.630859 0)"/>
     <use xlink:href="#DejaVuSans-20" transform="translate(764.417969 0)"/>
     <use xlink:href="#DejaVuSans-41" transform="translate(796.205078 0)"/>
     <use xlink:href="#DejaVuSans-72" transform="translate(864.613281 0)"/>
     <use xlink:href="#DejaVuSans-65" transform="translate(903.476562 0)"/>
     <use xlink:href="#DejaVuSans-61" transform="translate(965 0)"/>
     <use xlink:href="#DejaVuSans-3d" transform="translate(1026.279297 0)"/>
     <use xlink:href="#DejaVuSans-39" transform="translate(1110.068359 0)"/>
     <use xlink:href="#DejaVuSans-2e" transform="translate(1173.691406 0)"/>
     <use xlink:href="#DejaVuSans-30" transform="translate(1205.478516 0)"/>
     <use xlink:href="#DejaVuSans-37" transform="translate(1269.101562 0)"/>
     <use xlink:href="#DejaVuSans-65" transform="translate(1332.724609 0)"/>
     <use xlink:href="#DejaVuSans-2b" transform="translate(1394.248047 0)"/>
     <use xlink:href="#DejaVuSans-30" transform="translate(1478.037109 0)"/>
     <use xlink:href="#DejaVuSans-33" transform="translate(1541.660156 0)"/>
    </g>
    <!-- (14.27% of total) -->
    <g style="fill: #ff0000" transform="translate(649.110023 400.199924) scale(0.1 -0.1)">
     <defs>
      <path id="DejaVuSans-25" d="M 4653 2053 
Q 4381 2053 4226 1822 
Q 4072 1591 4072 1178 
Q 4072 772 4226 539 
Q 4381 306 4653 306 
Q 4919 306 5073 539 
Q 5228 772 5228 1178 
Q 5228 1588 5073 1820 
Q 4919 2053 4653 2053 
z
M 4653 2450 
Q 5147 2450 5437 2106 
Q 5728 1763 5728 1178 
Q 5728 594 5436 251 
Q 5144 -91 4653 -91 
Q 4153 -91 3862 251 
Q 3572 594 3572 1178 
Q 3572 1766 3864 2108 
Q 4156 2450 4653 2450 
z
M 1428 4353 
Q 1159 4353 1004 4120 
Q 850 3888 850 3481 
Q 850 3069 1003 2837 
Q 1156 2606 1428 2606 
Q 1700 2606 1854 2837 
Q 2009 3069 2009 3481 
Q 2009 3884 1853 4118 
Q 1697 4353 1428 4353 
z
M 4250 4750 
L 4750 4750 
L 1831 -91 
L 1331 -91 
L 4250 4750 
z
M 1428 4750 
Q 1922 4750 2215 4408 
Q 2509 4066 2509 3481 
Q 2509 2891 2217 2550 
Q 1925 2209 1428 2209 
Q 931 2209 642 2551 
Q 353 2894 353 3481 
Q 353 4063 643 4406 
Q 934 4750 1428 4750 
z
" transform="scale(0.015625)"/>
      <path id="DejaVuSans-66" d="M 2375 4863 
L 2375 4384 
L 1825 4384 
Q 1516 4384 1395 4259 
Q 1275 4134 1275 3809 
L 1275 3500 
L 2222 3500 
L 2222 3053 
L 1275 3053 
L 1275 0 
L 697 0 
L 697 3053 
L 147 3053 
L 147 3500 
L 697 3500 
L 697 3744 
Q 697 4328 969 4595 
Q 1241 4863 1831 4863 
L 2375 4863 
z
" transform="scale(0.015625)"/>
     </defs>
     <use xlink:href="#DejaVuSans-28"/>
     <use xlink:href="#DejaVuSans-31" transform="translate(39.013672 0)"/>
     <use xlink:href="#DejaVuSans-34" transform="translate(102.636719 0)"/>
     <use xlink:href="#DejaVuSans-2e" transform="translate(166.259766 0)"/>
     <use xlink:href="#DejaVuSans-32" transform="translate(198.046875 0)"/>
     <use xlink:href="#DejaVuSans-37" transform="translate(261.669922 0)"/>
     <use xlink:href="#DejaVuSans-25" transform="translate(325.292969 0)"/>
     <use xlink:href="#DejaVuSans-20" transform="translate(420.3125 0)"/>
     <use xlink:href="#DejaVuSans-6f" transform="translate(452.099609 0)"/>
     <use xlink:href="#DejaVuSans-66" transform="translate(513.28125 0)"/>
     <use xlink:href="#DejaVuSans-20" transform="translate(548.486328 0)"/>
     <use xlink:href="#DejaVuSans-74" transform="translate(580.273438 0)"/>
     <use xlink:href="#DejaVuSans-6f" transform="translate(619.482422 0)"/>
     <use xlink:href="#DejaVuSans-74" transform="translate(680.664062 0)"/>
     <use xlink:href="#DejaVuSans-61" transform="translate(719.873047 0)"/>
     <use xlink:href="#DejaVuSans-6c" transform="translate(781.152344 0)"/>
     <use xlink:href="#DejaVuSans-29" transform="translate(808.935547 0)"/>
    </g>
   </g>
   <g id="text_16">
    <!-- UV &amp; MS Chromatograms: IrCp2E10, target m/z=794.1728064 -->
    <g transform="translate(262.620625 20.88) scale(0.12 -0.12)">
     <defs>
      <path id="DejaVuSans-55" d="M 556 4666 
L 1191 4666 
L 1191 1831 
Q 1191 1081 1462 751 
Q 1734 422 2344 422 
Q 2950 422 3222 751 
Q 3494 1081 3494 1831 
L 3494 4666 
L 4128 4666 
L 4128 1753 
Q 4128 841 3676 375 
Q 3225 -91 2344 -91 
Q 1459 -91 1007 375 
Q 556 841 556 1753 
L 556 4666 
z
" transform="scale(0.015625)"/>
      <path id="DejaVuSans-56" d="M 1831 0 
L 50 4666 
L 709 4666 
L 2188 738 
L 3669 4666 
L 4325 4666 
L 2547 0 
L 1831 0 
z
" transform="scale(0.015625)"/>
      <path id="DejaVuSans-26" d="M 1556 2509 
Q 1272 2256 1139 2004 
Q 1006 1753 1006 1478 
Q 1006 1022 1337 719 
Q 1669 416 2169 416 
Q 2466 416 2725 514 
Q 2984 613 3213 813 
L 1556 2509 
z
M 1997 2859 
L 3584 1234 
Q 3769 1513 3872 1830 
Q 3975 2147 3994 2503 
L 4575 2503 
Q 4538 2091 4375 1687 
Q 4213 1284 3922 891 
L 4794 0 
L 4006 0 
L 3559 459 
Q 3234 181 2878 45 
Q 2522 -91 2113 -91 
Q 1359 -91 881 339 
Q 403 769 403 1441 
Q 403 1841 612 2192 
Q 822 2544 1241 2853 
Q 1091 3050 1012 3245 
Q 934 3441 934 3628 
Q 934 4134 1281 4442 
Q 1628 4750 2203 4750 
Q 2463 4750 2720 4694 
Q 2978 4638 3244 4525 
L 3244 3956 
Q 2972 4103 2725 4179 
Q 2478 4256 2266 4256 
Q 1938 4256 1733 4082 
Q 1528 3909 1528 3634 
Q 1528 3475 1620 3314 
Q 1713 3153 1997 2859 
z
" transform="scale(0.015625)"/>
      <path id="DejaVuSans-4d" d="M 628 4666 
L 1569 4666 
L 2759 1491 
L 3956 4666 
L 4897 4666 
L 4897 0 
L 4281 0 
L 4281 4097 
L 3078 897 
L 2444 897 
L 1241 4097 
L 1241 0 
L 628 0 
L 628 4666 
z
" transform="scale(0.015625)"/>
      <path id="DejaVuSans-53" d="M 3425 4513 
L 3425 3897 
Q 3066 4069 2747 4153 
Q 2428 4238 2131 4238 
Q 1616 4238 1336 4038 
Q 1056 3838 1056 3469 
Q 1056 3159 1242 3001 
Q 1428 2844 1947 2747 
L 2328 2669 
Q 3034 2534 3370 2195 
Q 3706 1856 3706 1288 
Q 3706 609 3251 259 
Q 2797 -91 1919 -91 
Q 1588 -91 1214 -16 
Q 841 59 441 206 
L 441 856 
Q 825 641 1194 531 
Q 1563 422 1919 422 
Q 2459 422 2753 634 
Q 3047 847 3047 1241 
Q 3047 1584 2836 1778 
Q 2625 1972 2144 2069 
L 1759 2144 
Q 1053 2284 737 2584 
Q 422 2884 422 3419 
Q 422 4038 858 4394 
Q 1294 4750 2059 4750 
Q 2388 4750 2728 4690 
Q 3069 4631 3425 4513 
z
" transform="scale(0.015625)"/>
      <path id="DejaVuSans-43" d="M 4122 4306 
L 4122 3641 
Q 3803 3938 3442 4084 
Q 3081 4231 2675 4231 
Q 1875 4231 1450 3742 
Q 1025 3253 1025 2328 
Q 1025 1406 1450 917 
Q 1875 428 2675 428 
Q 3081 428 3442 575 
Q 3803 722 4122 1019 
L 4122 359 
Q 3791 134 3420 21 
Q 3050 -91 2638 -91 
Q 1578 -91 968 557 
Q 359 1206 359 2328 
Q 359 3453 968 4101 
Q 1578 4750 2638 4750 
Q 3056 4750 3426 4639 
Q 3797 4528 4122 4306 
z
" transform="scale(0.015625)"/>
      <path id="DejaVuSans-68" d="M 3513 2113 
L 3513 0 
L 2938 0 
L 2938 2094 
Q 2938 2591 2744 2837 
Q 2550 3084 2163 3084 
Q 1697 3084 1428 2787 
Q 1159 2491 1159 1978 
L 1159 0 
L 581 0 
L 581 4863 
L 1159 4863 
L 1159 2956 
Q 1366 3272 1645 3428 
Q 1925 3584 2291 3584 
Q 2894 3584 3203 3211 
Q 3513 2838 3513 2113 
z
" transform="scale(0.015625)"/>
      <path id="DejaVuSans-67" d="M 2906 1791 
Q 2906 2416 2648 2759 
Q 2391 3103 1925 3103 
Q 1463 3103 1205 2759 
Q 947 2416 947 1791 
Q 947 1169 1205 825 
Q 1463 481 1925 481 
Q 2391 481 2648 825 
Q 2906 1169 2906 1791 
z
M 3481 434 
Q 3481 -459 3084 -895 
Q 2688 -1331 1869 -1331 
Q 1566 -1331 1297 -1286 
Q 1028 -1241 775 -1147 
L 775 -588 
Q 1028 -725 1275 -790 
Q 1522 -856 1778 -856 
Q 2344 -856 2625 -561 
Q 2906 -266 2906 331 
L 2906 616 
Q 2728 306 2450 153 
Q 2172 0 1784 0 
Q 1141 0 747 490 
Q 353 981 353 1791 
Q 353 2603 747 3093 
Q 1141 3584 1784 3584 
Q 2172 3584 2450 3431 
Q 2728 3278 2906 2969 
L 2906 3500 
L 3481 3500 
L 3481 434 
z
" transform="scale(0.015625)"/>
      <path id="DejaVuSans-70" d="M 1159 525 
L 1159 -1331 
L 581 -1331 
L 581 3500 
L 1159 3500 
L 1159 2969 
Q 1341 3281 1617 3432 
Q 1894 3584 2278 3584 
Q 2916 3584 3314 3078 
Q 3713 2572 3713 1747 
Q 3713 922 3314 415 
Q 2916 -91 2278 -91 
Q 1894 -91 1617 61 
Q 1341 213 1159 525 
z
M 3116 1747 
Q 3116 2381 2855 2742 
Q 2594 3103 2138 3103 
Q 1681 3103 1420 2742 
Q 1159 2381 1159 1747 
Q 1159 1113 1420 752 
Q 1681 391 2138 391 
Q 2594 391 2855 752 
Q 3116 1113 3116 1747 
z
" transform="scale(0.015625)"/>
      <path id="DejaVuSans-45" d="M 628 4666 
L 3578 4666 
L 3578 4134 
L 1259 4134 
L 1259 2753 
L 3481 2753 
L 3481 2222 
L 1259 2222 
L 1259 531 
L 3634 531 
L 3634 0 
L 628 0 
L 628 4666 
z
" transform="scale(0.015625)"/>
      <path id="DejaVuSans-2f" d="M 1625 4666 
L 2156 4666 
L 531 -594 
L 0 -594 
L 1625 4666 
z
" transform="scale(0.015625)"/>
      <path id="DejaVuSans-38" d="M 2034 2216 
Q 1584 2216 1326 1975 
Q 1069 1734 1069 1313 
Q 1069 891 1326 650 
Q 1584 409 2034 409 
Q 2484 409 2743 651 
Q 3003 894 3003 1313 
Q 3003 1734 2745 1975 
Q 2488 2216 2034 2216 
z
M 1403 2484 
Q 997 2584 770 2862 
Q 544 3141 544 3541 
Q 544 4100 942 4425 
Q 1341 4750 2034 4750 
Q 2731 4750 3128 4425 
Q 3525 4100 3525 3541 
Q 3525 3141 3298 2862 
Q 3072 2584 2669 2484 
Q 3125 2378 3379 2068 
Q 3634 1759 3634 1313 
Q 3634 634 3220 271 
Q 2806 -91 2034 -91 
Q 1263 -91 848 271 
Q 434 634 434 1313 
Q 434 1759 690 2068 
Q 947 2378 1403 2484 
z
M 1172 3481 
Q 1172 3119 1398 2916 
Q 1625 2713 2034 2713 
Q 2441 2713 2670 2916 
Q 2900 3119 2900 3481 
Q 2900 3844 2670 4047 
Q 2441 4250 2034 4250 
Q 1625 4250 1398 4047 
Q 1172 3844 1172 3481 
z
" transform="scale(0.015625)"/>
     </defs>
     <use xlink:href="#DejaVuSans-55"/>
     <use xlink:href="#DejaVuSans-56" transform="translate(73.193359 0)"/>
     <use xlink:href="#DejaVuSans-20" transform="translate(141.601562 0)"/>
     <use xlink:href="#DejaVuSans-26" transform="translate(173.388672 0)"/>
     <use xlink:href="#DejaVuSans-20" transform="translate(251.367188 0)"/>
     <use xlink:href="#DejaVuSans-4d" transform="translate(283.154297 0)"/>
     <use xlink:href="#DejaVuSans-53" transform="translate(369.433594 0)"/>
     <use xlink:href="#DejaVuSans-20" transform="translate(432.910156 0)"/>
     <use xlink:href="#DejaVuSans-43" transform="translate(464.697266 0)"/>
     <use xlink:href="#DejaVuSans-68" transform="translate(534.521484 0)"/>
     <use xlink:href="#DejaVuSans-72" transform="translate(597.900391 0)"/>
     <use xlink:href="#DejaVuSans-6f" transform="translate(636.763672 0)"/>
     <use xlink:href="#DejaVuSans-6d" transform="translate(697.945312 0)"/>
     <use xlink:href="#DejaVuSans-61" transform="translate(795.357422 0)"/>
     <use xlink:href="#DejaVuSans-74" transform="translate(856.636719 0)"/>
     <use xlink:href="#DejaVuSans-6f" transform="translate(895.845703 0)"/>
     <use xlink:href="#DejaVuSans-67" transform="translate(957.027344 0)"/>
     <use xlink:href="#DejaVuSans-72" transform="translate(1020.503906 0)"/>
     <use xlink:href="#DejaVuSans-61" transform="translate(1061.617188 0)"/>
     <use xlink:href="#DejaVuSans-6d" transform="translate(1122.896484 0)"/>
     <use xlink:href="#DejaVuSans-73" transform="translate(1220.308594 0)"/>
     <use xlink:href="#DejaVuSans-3a" transform="translate(1272.408203 0)"/>
     <use xlink:href="#DejaVuSans-20" transform="translate(1306.099609 0)"/>
     <use xlink:href="#DejaVuSans-49" transform="translate(1337.886719 0)"/>
     <use xlink:href="#DejaVuSans-72" transform="translate(1367.378906 0)"/>
     <use xlink:href="#DejaVuSans-43" transform="translate(1408.492188 0)"/>
     <use xlink:href="#DejaVuSans-70" transform="translate(1478.316406 0)"/>
     <use xlink:href="#DejaVuSans-32" transform="translate(1541.792969 0)"/>
     <use xlink:href="#DejaVuSans-45" transform="translate(1605.416016 0)"/>
     <use xlink:href="#DejaVuSans-31" transform="translate(1668.599609 0)"/>
     <use xlink:href="#DejaVuSans-30" transform="translate(1732.222656 0)"/>
     <use xlink:href="#DejaVuSans-2c" transform="translate(1795.845703 0)"/>
     <use xlink:href="#DejaVuSans-20" transform="translate(1827.632812 0)"/>
     <use xlink:href="#DejaVuSans-74" transform="translate(1859.419922 0)"/>
     <use xlink:href="#DejaVuSans-61" transform="translate(1898.628906 0)"/>
     <use xlink:href="#DejaVuSans-72" transform="translate(1959.908203 0)"/>
     <use xlink:href="#DejaVuSans-67" transform="translate(1999.271484 0)"/>
     <use xlink:href="#DejaVuSans-65" transform="translate(2062.748047 0)"/>
     <use xlink:href="#DejaVuSans-74" transform="translate(2124.271484 0)"/>
     <use xlink:href="#DejaVuSans-20" transform="translate(2163.480469 0)"/>
     <use xlink:href="#DejaVuSans-6d" transform="translate(2195.267578 0)"/>
     <use xlink:href="#DejaVuSans-2f" transform="translate(2292.679688 0)"/>
     <use xlink:href="#DejaVuSans-7a" transform="translate(2326.371094 0)"/>
     <use xlink:href="#DejaVuSans-3d" transform="translate(2378.861328 0)"/>
     <use xlink:href="#DejaVuSans-37" transform="translate(2462.650391 0)"/>
     <use xlink:href="#DejaVuSans-39" transform="translate(2526.273438 0)"/>
     <use xlink:href="#DejaVuSans-34" transform="translate(2589.896484 0)"/>
     <use xlink:href="#DejaVuSans-2e" transform="translate(2653.519531 0)"/>
     <use xlink:href="#DejaVuSans-31" transform="translate(2685.306641 0)"/>
     <use xlink:href="#DejaVuSans-37" transform="translate(2748.929688 0)"/>
     <use xlink:href="#DejaVuSans-32" transform="translate(2812.552734 0)"/>
     <use xlink:href="#DejaVuSans-38" transform="translate(2876.175781 0)"/>
     <use xlink:href="#DejaVuSans-30" transform="translate(2939.798828 0)"/>
     <use xlink:href="#DejaVuSans-36" transform="translate(3003.421875 0)"/>
     <use xlink:href="#DejaVuSans-34" transform="translate(3067.044922 0)"/>
    </g>
   </g>
   <g id="legend_1">
    <g id="patch_8">
     <path d="M 685.971875 64.23625 
L 846.2 64.23625 
Q 848.2 64.23625 848.2 62.23625 
L 848.2 33.88 
Q 848.2 31.88 846.2 31.88 
L 685.971875 31.88 
Q 683.971875 31.88 683.971875 33.88 
L 683.971875 62.23625 
Q 683.971875 64.23625 685.971875 64.23625 
z
" style="fill: #ffffff; opacity: 0.8; stroke: #cccccc; stroke-linejoin: miter"/>
    </g>
    <g id="line2d_15">
     <path d="M 687.971875 39.978437 
L 697.971875 39.978437 
L 707.971875 39.978437 
" style="fill: none; stroke: #0000ff; stroke-width: 1.5; stroke-linecap: square"/>
    </g>
    <g id="text_17">
     <!-- UV Intensity (normalized) -->
     <g transform="translate(715.971875 43.478437) scale(0.1 -0.1)">
      <use xlink:href="#DejaVuSans-55"/>
      <use xlink:href="#DejaVuSans-56" transform="translate(73.193359 0)"/>
      <use xlink:href="#DejaVuSans-20" transform="translate(141.601562 0)"/>
      <use xlink:href="#DejaVuSans-49" transform="translate(173.388672 0)"/>
      <use xlink:href="#DejaVuSans-6e" transform="translate(202.880859 0)"/>
      <use xlink:href="#DejaVuSans-74" transform="translate(266.259766 0)"/>
      <use xlink:href="#DejaVuSans-65" transform="translate(305.46875 0)"/>
      <use xlink:href="#DejaVuSans-6e" transform="translate(366.992188 0)"/>
      <use xlink:href="#DejaVuSans-73" transform="translate(430.371094 0)"/>
      <use xlink:href="#DejaVuSans-69" transform="translate(482.470703 0)"/>
      <use xlink:href="#DejaVuSans-74" transform="translate(510.253906 0)"/>
      <use xlink:href="#DejaVuSans-79" transform="translate(549.462891 0)"/>
      <use xlink:href="#DejaVuSans-20" transform="translate(608.642578 0)"/>
      <use xlink:href="#DejaVuSans-28" transform="translate(640.429688 0)"/>
      <use xlink:href="#DejaVuSans-6e" transform="translate(679.443359 0)"/>
      <use xlink:href="#DejaVuSans-6f" transform="translate(742.822266 0)"/>
      <use xlink:href="#DejaVuSans-72" transform="translate(804.003906 0)"/>
      <use xlink:href="#DejaVuSans-6d" transform="translate(843.367188 0)"/>
      <use xlink:href="#DejaVuSans-61" transform="translate(940.779297 0)"/>
      <use xlink:href="#DejaVuSans-6c" transform="translate(1002.058594 0)"/>
      <use xlink:href="#DejaVuSans-69" transform="translate(1029.841797 0)"/>
      <use xlink:href="#DejaVuSans-7a" transform="translate(1057.625 0)"/>
      <use xlink:href="#DejaVuSans-65" transform="translate(1110.115234 0)"/>
      <use xlink:href="#DejaVuSans-64" transform="translate(1171.638672 0)"/>
      <use xlink:href="#DejaVuSans-29" transform="translate(1235.115234 0)"/>
     </g>
    </g>
    <g id="line2d_16">
     <path d="M 687.971875 54.656562 
L 697.971875 54.656562 
L 707.971875 54.656562 
" style="fill: none; stroke: #008000; stroke-width: 1.5; stroke-linecap: square"/>
    </g>
    <g id="text_18">
     <!-- MS Intensity (normalized) -->
     <g transform="translate(715.971875 58.156562) scale(0.1 -0.1)">
      <use xlink:href="#DejaVuSans-4d"/>
      <use xlink:href="#DejaVuSans-53" transform="translate(86.279297 0)"/>
      <use xlink:href="#DejaVuSans-20" transform="translate(149.755859 0)"/>
      <use xlink:href="#DejaVuSans-49" transform="translate(181.542969 0)"/>
      <use xlink:href="#DejaVuSans-6e" transform="translate(211.035156 0)"/>
      <use xlink:href="#DejaVuSans-74" transform="translate(274.414062 0)"/>
      <use xlink:href="#DejaVuSans-65" transform="translate(313.623047 0)"/>
      <use xlink:href="#DejaVuSans-6e" transform="translate(375.146484 0)"/>
      <use xlink:href="#DejaVuSans-73" transform="translate(438.525391 0)"/>
      <use xlink:href="#DejaVuSans-69" transform="translate(490.625 0)"/>
      <use xlink:href="#DejaVuSans-74" transform="translate(518.408203 0)"/>
      <use xlink:href="#DejaVuSans-79" transform="translate(557.617188 0)"/>
      <use xlink:href="#DejaVuSans-20" transform="translate(616.796875 0)"/>
      <use xlink:href="#DejaVuSans-28" transform="translate(648.583984 0)"/>
      <use xlink:href="#DejaVuSans-6e" transform="translate(687.597656 0)"/>
      <use xlink:href="#DejaVuSans-6f" transform="translate(750.976562 0)"/>
      <use xlink:href="#DejaVuSans-72" transform="translate(812.158203 0)"/>
      <use xlink:href="#DejaVuSans-6d" transform="translate(851.521484 0)"/>
      <use xlink:href="#DejaVuSans-61" transform="translate(948.933594 0)"/>
      <use xlink:href="#DejaVuSans-6c" transform="translate(1010.212891 0)"/>
      <use xlink:href="#DejaVuSans-69" transform="translate(1037.996094 0)"/>
      <use xlink:href="#DejaVuSans-7a" transform="translate(1065.779297 0)"/>
      <use xlink:href="#DejaVuSans-65" transform="translate(1118.269531 0)"/>
      <use xlink:href="#DejaVuSans-64" transform="translate(1179.792969 0)"/>
      <use xlink:href="#DejaVuSans-29" transform="translate(1243.269531 0)"/>
     </g>
    </g>
   </g>
  </g>
 </g>
 <defs>
  <clipPath id="pc6218f3e23">
   <rect x="47.72" y="26.88" width="805.48" height="507.16"/>
  </clipPath>
 </defs>
</svg>
