<?xml version="1.0" encoding="utf-8" standalone="no"?>
<!DOCTYPE svg PUBLIC "-//W3C//DTD SVG 1.1//EN"
  "http://www.w3.org/Graphics/SVG/1.1/DTD/svg11.dtd">
<svg xmlns:xlink="http://www.w3.org/1999/xlink" width="864pt" height="576pt" viewBox="0 0 864 576" xmlns="http://www.w3.org/2000/svg" version="1.1">
 <metadata>
  <rdf:RDF xmlns:dc="http://purl.org/dc/elements/1.1/" xmlns:cc="http://creativecommons.org/ns#" xmlns:rdf="http://www.w3.org/1999/02/22-rdf-syntax-ns#">
   <cc:Work>
    <dc:type rdf:resource="http://purl.org/dc/dcmitype/StillImage"/>
    <dc:date>2025-03-06T18:10:45.987395</dc:date>
    <dc:format>image/svg+xml</dc:format>
    <dc:creator>
     <cc:Agent>
      <dc:title>Matplotlib v3.10.0, https://matplotlib.org/</dc:title>
     </cc:Agent>
    </dc:creator>
   </cc:Work>
  </rdf:RDF>
 </metadata>
 <defs>
  <style type="text/css">*{stroke-linejoin: round; stroke-linecap: butt}</style>
 </defs>
 <g id="figure_1">
  <g id="patch_1">
   <path d="M 0 576 
L 864 576 
L 864 0 
L 0 0 
z
" style="fill: #ffffff"/>
  </g>
  <g id="axes_1">
   <g id="patch_2">
    <path d="M 47.72 534.04 
L 853.2 534.04 
L 853.2 26.88 
L 47.72 26.88 
z
" style="fill: #ffffff"/>
   </g>
   <g id="matplotlib.axis_1">
    <g id="xtick_1">
     <g id="line2d_1">
      <defs>
       <path id="md1f40eafc8" d="M 0 0 
L 0 3.5 
" style="stroke: #000000; stroke-width: 0.8"/>
      </defs>
      <g>
       <use xlink:href="#md1f40eafc8" x="83.095596" y="534.04" style="stroke: #000000; stroke-width: 0.8"/>
      </g>
     </g>
     <g id="text_1">
      <!-- 0 -->
      <g transform="translate(79.914346 548.638438) scale(0.1 -0.1)">
       <defs>
        <path id="DejaVuSans-30" d="M 2034 4250 
Q 1547 4250 1301 3770 
Q 1056 3291 1056 2328 
Q 1056 1369 1301 889 
Q 1547 409 2034 409 
Q 2525 409 2770 889 
Q 3016 1369 3016 2328 
Q 3016 3291 2770 3770 
Q 2525 4250 2034 4250 
z
M 2034 4750 
Q 2819 4750 3233 4129 
Q 3647 3509 3647 2328 
Q 3647 1150 3233 529 
Q 2819 -91 2034 -91 
Q 1250 -91 836 529 
Q 422 1150 422 2328 
Q 422 3509 836 4129 
Q 1250 4750 2034 4750 
z
" transform="scale(0.015625)"/>
       </defs>
       <use xlink:href="#DejaVuSans-30"/>
      </g>
     </g>
    </g>
    <g id="xtick_2">
     <g id="line2d_2">
      <g>
       <use xlink:href="#md1f40eafc8" x="229.790997" y="534.04" style="stroke: #000000; stroke-width: 0.8"/>
      </g>
     </g>
     <g id="text_2">
      <!-- 1 -->
      <g transform="translate(226.609747 548.638438) scale(0.1 -0.1)">
       <defs>
        <path id="DejaVuSans-31" d="M 794 531 
L 1825 531 
L 1825 4091 
L 703 3866 
L 703 4441 
L 1819 4666 
L 2450 4666 
L 2450 531 
L 3481 531 
L 3481 0 
L 794 0 
L 794 531 
z
" transform="scale(0.015625)"/>
       </defs>
       <use xlink:href="#DejaVuSans-31"/>
      </g>
     </g>
    </g>
    <g id="xtick_3">
     <g id="line2d_3">
      <g>
       <use xlink:href="#md1f40eafc8" x="376.486399" y="534.04" style="stroke: #000000; stroke-width: 0.8"/>
      </g>
     </g>
     <g id="text_3">
      <!-- 2 -->
      <g transform="translate(373.305149 548.638438) scale(0.1 -0.1)">
       <defs>
        <path id="DejaVuSans-32" d="M 1228 531 
L 3431 531 
L 3431 0 
L 469 0 
L 469 531 
Q 828 903 1448 1529 
Q 2069 2156 2228 2338 
Q 2531 2678 2651 2914 
Q 2772 3150 2772 3378 
Q 2772 3750 2511 3984 
Q 2250 4219 1831 4219 
Q 1534 4219 1204 4116 
Q 875 4013 500 3803 
L 500 4441 
Q 881 4594 1212 4672 
Q 1544 4750 1819 4750 
Q 2544 4750 2975 4387 
Q 3406 4025 3406 3419 
Q 3406 3131 3298 2873 
Q 3191 2616 2906 2266 
Q 2828 2175 2409 1742 
Q 1991 1309 1228 531 
z
" transform="scale(0.015625)"/>
       </defs>
       <use xlink:href="#DejaVuSans-32"/>
      </g>
     </g>
    </g>
    <g id="xtick_4">
     <g id="line2d_4">
      <g>
       <use xlink:href="#md1f40eafc8" x="523.1818" y="534.04" style="stroke: #000000; stroke-width: 0.8"/>
      </g>
     </g>
     <g id="text_4">
      <!-- 3 -->
      <g transform="translate(520.00055 548.638438) scale(0.1 -0.1)">
       <defs>
        <path id="DejaVuSans-33" d="M 2597 2516 
Q 3050 2419 3304 2112 
Q 3559 1806 3559 1356 
Q 3559 666 3084 287 
Q 2609 -91 1734 -91 
Q 1441 -91 1130 -33 
Q 819 25 488 141 
L 488 750 
Q 750 597 1062 519 
Q 1375 441 1716 441 
Q 2309 441 2620 675 
Q 2931 909 2931 1356 
Q 2931 1769 2642 2001 
Q 2353 2234 1838 2234 
L 1294 2234 
L 1294 2753 
L 1863 2753 
Q 2328 2753 2575 2939 
Q 2822 3125 2822 3475 
Q 2822 3834 2567 4026 
Q 2313 4219 1838 4219 
Q 1578 4219 1281 4162 
Q 984 4106 628 3988 
L 628 4550 
Q 988 4650 1302 4700 
Q 1616 4750 1894 4750 
Q 2613 4750 3031 4423 
Q 3450 4097 3450 3541 
Q 3450 3153 3228 2886 
Q 3006 2619 2597 2516 
z
" transform="scale(0.015625)"/>
       </defs>
       <use xlink:href="#DejaVuSans-33"/>
      </g>
     </g>
    </g>
    <g id="xtick_5">
     <g id="line2d_5">
      <g>
       <use xlink:href="#md1f40eafc8" x="669.877202" y="534.04" style="stroke: #000000; stroke-width: 0.8"/>
      </g>
     </g>
     <g id="text_5">
      <!-- 4 -->
      <g transform="translate(666.695952 548.638438) scale(0.1 -0.1)">
       <defs>
        <path id="DejaVuSans-34" d="M 2419 4116 
L 825 1625 
L 2419 1625 
L 2419 4116 
z
M 2253 4666 
L 3047 4666 
L 3047 1625 
L 3713 1625 
L 3713 1100 
L 3047 1100 
L 3047 0 
L 2419 0 
L 2419 1100 
L 313 1100 
L 313 1709 
L 2253 4666 
z
" transform="scale(0.015625)"/>
       </defs>
       <use xlink:href="#DejaVuSans-34"/>
      </g>
     </g>
    </g>
    <g id="xtick_6">
     <g id="line2d_6">
      <g>
       <use xlink:href="#md1f40eafc8" x="816.572603" y="534.04" style="stroke: #000000; stroke-width: 0.8"/>
      </g>
     </g>
     <g id="text_6">
      <!-- 5 -->
      <g transform="translate(813.391353 548.638438) scale(0.1 -0.1)">
       <defs>
        <path id="DejaVuSans-35" d="M 691 4666 
L 3169 4666 
L 3169 4134 
L 1269 4134 
L 1269 2991 
Q 1406 3038 1543 3061 
Q 1681 3084 1819 3084 
Q 2600 3084 3056 2656 
Q 3513 2228 3513 1497 
Q 3513 744 3044 326 
Q 2575 -91 1722 -91 
Q 1428 -91 1123 -41 
Q 819 9 494 109 
L 494 744 
Q 775 591 1075 516 
Q 1375 441 1709 441 
Q 2250 441 2565 725 
Q 2881 1009 2881 1497 
Q 2881 1984 2565 2268 
Q 2250 2553 1709 2553 
Q 1456 2553 1204 2497 
Q 953 2441 691 2322 
L 691 4666 
z
" transform="scale(0.015625)"/>
       </defs>
       <use xlink:href="#DejaVuSans-35"/>
      </g>
     </g>
    </g>
    <g id="text_7">
     <!-- Retention Time (min) -->
     <g transform="translate(397.61 562.316562) scale(0.1 -0.1)">
      <defs>
       <path id="DejaVuSans-52" d="M 2841 2188 
Q 3044 2119 3236 1894 
Q 3428 1669 3622 1275 
L 4263 0 
L 3584 0 
L 2988 1197 
Q 2756 1666 2539 1819 
Q 2322 1972 1947 1972 
L 1259 1972 
L 1259 0 
L 628 0 
L 628 4666 
L 2053 4666 
Q 2853 4666 3247 4331 
Q 3641 3997 3641 3322 
Q 3641 2881 3436 2590 
Q 3231 2300 2841 2188 
z
M 1259 4147 
L 1259 2491 
L 2053 2491 
Q 2509 2491 2742 2702 
Q 2975 2913 2975 3322 
Q 2975 3731 2742 3939 
Q 2509 4147 2053 4147 
L 1259 4147 
z
" transform="scale(0.015625)"/>
       <path id="DejaVuSans-65" d="M 3597 1894 
L 3597 1613 
L 953 1613 
Q 991 1019 1311 708 
Q 1631 397 2203 397 
Q 2534 397 2845 478 
Q 3156 559 3463 722 
L 3463 178 
Q 3153 47 2828 -22 
Q 2503 -91 2169 -91 
Q 1331 -91 842 396 
Q 353 884 353 1716 
Q 353 2575 817 3079 
Q 1281 3584 2069 3584 
Q 2775 3584 3186 3129 
Q 3597 2675 3597 1894 
z
M 3022 2063 
Q 3016 2534 2758 2815 
Q 2500 3097 2075 3097 
Q 1594 3097 1305 2825 
Q 1016 2553 972 2059 
L 3022 2063 
z
" transform="scale(0.015625)"/>
       <path id="DejaVuSans-74" d="M 1172 4494 
L 1172 3500 
L 2356 3500 
L 2356 3053 
L 1172 3053 
L 1172 1153 
Q 1172 725 1289 603 
Q 1406 481 1766 481 
L 2356 481 
L 2356 0 
L 1766 0 
Q 1100 0 847 248 
Q 594 497 594 1153 
L 594 3053 
L 172 3053 
L 172 3500 
L 594 3500 
L 594 4494 
L 1172 4494 
z
" transform="scale(0.015625)"/>
       <path id="DejaVuSans-6e" d="M 3513 2113 
L 3513 0 
L 2938 0 
L 2938 2094 
Q 2938 2591 2744 2837 
Q 2550 3084 2163 3084 
Q 1697 3084 1428 2787 
Q 1159 2491 1159 1978 
L 1159 0 
L 581 0 
L 581 3500 
L 1159 3500 
L 1159 2956 
Q 1366 3272 1645 3428 
Q 1925 3584 2291 3584 
Q 2894 3584 3203 3211 
Q 3513 2838 3513 2113 
z
" transform="scale(0.015625)"/>
       <path id="DejaVuSans-69" d="M 603 3500 
L 1178 3500 
L 1178 0 
L 603 0 
L 603 3500 
z
M 603 4863 
L 1178 4863 
L 1178 4134 
L 603 4134 
L 603 4863 
z
" transform="scale(0.015625)"/>
       <path id="DejaVuSans-6f" d="M 1959 3097 
Q 1497 3097 1228 2736 
Q 959 2375 959 1747 
Q 959 1119 1226 758 
Q 1494 397 1959 397 
Q 2419 397 2687 759 
Q 2956 1122 2956 1747 
Q 2956 2369 2687 2733 
Q 2419 3097 1959 3097 
z
M 1959 3584 
Q 2709 3584 3137 3096 
Q 3566 2609 3566 1747 
Q 3566 888 3137 398 
Q 2709 -91 1959 -91 
Q 1206 -91 779 398 
Q 353 888 353 1747 
Q 353 2609 779 3096 
Q 1206 3584 1959 3584 
z
" transform="scale(0.015625)"/>
       <path id="DejaVuSans-20" transform="scale(0.015625)"/>
       <path id="DejaVuSans-54" d="M -19 4666 
L 3928 4666 
L 3928 4134 
L 2272 4134 
L 2272 0 
L 1638 0 
L 1638 4134 
L -19 4134 
L -19 4666 
z
" transform="scale(0.015625)"/>
       <path id="DejaVuSans-6d" d="M 3328 2828 
Q 3544 3216 3844 3400 
Q 4144 3584 4550 3584 
Q 5097 3584 5394 3201 
Q 5691 2819 5691 2113 
L 5691 0 
L 5113 0 
L 5113 2094 
Q 5113 2597 4934 2840 
Q 4756 3084 4391 3084 
Q 3944 3084 3684 2787 
Q 3425 2491 3425 1978 
L 3425 0 
L 2847 0 
L 2847 2094 
Q 2847 2600 2669 2842 
Q 2491 3084 2119 3084 
Q 1678 3084 1418 2786 
Q 1159 2488 1159 1978 
L 1159 0 
L 581 0 
L 581 3500 
L 1159 3500 
L 1159 2956 
Q 1356 3278 1631 3431 
Q 1906 3584 2284 3584 
Q 2666 3584 2933 3390 
Q 3200 3197 3328 2828 
z
" transform="scale(0.015625)"/>
       <path id="DejaVuSans-28" d="M 1984 4856 
Q 1566 4138 1362 3434 
Q 1159 2731 1159 2009 
Q 1159 1288 1364 580 
Q 1569 -128 1984 -844 
L 1484 -844 
Q 1016 -109 783 600 
Q 550 1309 550 2009 
Q 550 2706 781 3412 
Q 1013 4119 1484 4856 
L 1984 4856 
z
" transform="scale(0.015625)"/>
       <path id="DejaVuSans-29" d="M 513 4856 
L 1013 4856 
Q 1481 4119 1714 3412 
Q 1947 2706 1947 2009 
Q 1947 1309 1714 600 
Q 1481 -109 1013 -844 
L 513 -844 
Q 928 -128 1133 580 
Q 1338 1288 1338 2009 
Q 1338 2731 1133 3434 
Q 928 4138 513 4856 
z
" transform="scale(0.015625)"/>
      </defs>
      <use xlink:href="#DejaVuSans-52"/>
      <use xlink:href="#DejaVuSans-65" transform="translate(64.982422 0)"/>
      <use xlink:href="#DejaVuSans-74" transform="translate(126.505859 0)"/>
      <use xlink:href="#DejaVuSans-65" transform="translate(165.714844 0)"/>
      <use xlink:href="#DejaVuSans-6e" transform="translate(227.238281 0)"/>
      <use xlink:href="#DejaVuSans-74" transform="translate(290.617188 0)"/>
      <use xlink:href="#DejaVuSans-69" transform="translate(329.826172 0)"/>
      <use xlink:href="#DejaVuSans-6f" transform="translate(357.609375 0)"/>
      <use xlink:href="#DejaVuSans-6e" transform="translate(418.791016 0)"/>
      <use xlink:href="#DejaVuSans-20" transform="translate(482.169922 0)"/>
      <use xlink:href="#DejaVuSans-54" transform="translate(513.957031 0)"/>
      <use xlink:href="#DejaVuSans-69" transform="translate(571.916016 0)"/>
      <use xlink:href="#DejaVuSans-6d" transform="translate(599.699219 0)"/>
      <use xlink:href="#DejaVuSans-65" transform="translate(697.111328 0)"/>
      <use xlink:href="#DejaVuSans-20" transform="translate(758.634766 0)"/>
      <use xlink:href="#DejaVuSans-28" transform="translate(790.421875 0)"/>
      <use xlink:href="#DejaVuSans-6d" transform="translate(829.435547 0)"/>
      <use xlink:href="#DejaVuSans-69" transform="translate(926.847656 0)"/>
      <use xlink:href="#DejaVuSans-6e" transform="translate(954.630859 0)"/>
      <use xlink:href="#DejaVuSans-29" transform="translate(1018.009766 0)"/>
     </g>
    </g>
   </g>
   <g id="matplotlib.axis_2">
    <g id="ytick_1">
     <g id="line2d_7">
      <defs>
       <path id="m50c5ff5fd4" d="M 0 0 
L -3.5 0 
" style="stroke: #000000; stroke-width: 0.8"/>
      </defs>
      <g>
       <use xlink:href="#m50c5ff5fd4" x="47.72" y="510.859052" style="stroke: #000000; stroke-width: 0.8"/>
      </g>
     </g>
     <g id="text_8">
      <!-- 0.0 -->
      <g style="fill: #0000ff" transform="translate(24.816875 514.658271) scale(0.1 -0.1)">
       <defs>
        <path id="DejaVuSans-2e" d="M 684 794 
L 1344 794 
L 1344 0 
L 684 0 
L 684 794 
z
" transform="scale(0.015625)"/>
       </defs>
       <use xlink:href="#DejaVuSans-30"/>
       <use xlink:href="#DejaVuSans-2e" transform="translate(63.623047 0)"/>
       <use xlink:href="#DejaVuSans-30" transform="translate(95.410156 0)"/>
      </g>
     </g>
    </g>
    <g id="ytick_2">
     <g id="line2d_8">
      <g>
       <use xlink:href="#m50c5ff5fd4" x="47.72" y="418.673787" style="stroke: #000000; stroke-width: 0.8"/>
      </g>
     </g>
     <g id="text_9">
      <!-- 0.5 -->
      <g style="fill: #0000ff" transform="translate(24.816875 422.473006) scale(0.1 -0.1)">
       <use xlink:href="#DejaVuSans-30"/>
       <use xlink:href="#DejaVuSans-2e" transform="translate(63.623047 0)"/>
       <use xlink:href="#DejaVuSans-35" transform="translate(95.410156 0)"/>
      </g>
     </g>
    </g>
    <g id="ytick_3">
     <g id="line2d_9">
      <g>
       <use xlink:href="#m50c5ff5fd4" x="47.72" y="326.488522" style="stroke: #000000; stroke-width: 0.8"/>
      </g>
     </g>
     <g id="text_10">
      <!-- 1.0 -->
      <g style="fill: #0000ff" transform="translate(24.816875 330.287741) scale(0.1 -0.1)">
       <use xlink:href="#DejaVuSans-31"/>
       <use xlink:href="#DejaVuSans-2e" transform="translate(63.623047 0)"/>
       <use xlink:href="#DejaVuSans-30" transform="translate(95.410156 0)"/>
      </g>
     </g>
    </g>
    <g id="ytick_4">
     <g id="line2d_10">
      <g>
       <use xlink:href="#m50c5ff5fd4" x="47.72" y="234.303257" style="stroke: #000000; stroke-width: 0.8"/>
      </g>
     </g>
     <g id="text_11">
      <!-- 1.5 -->
      <g style="fill: #0000ff" transform="translate(24.816875 238.102476) scale(0.1 -0.1)">
       <use xlink:href="#DejaVuSans-31"/>
       <use xlink:href="#DejaVuSans-2e" transform="translate(63.623047 0)"/>
       <use xlink:href="#DejaVuSans-35" transform="translate(95.410156 0)"/>
      </g>
     </g>
    </g>
    <g id="ytick_5">
     <g id="line2d_11">
      <g>
       <use xlink:href="#m50c5ff5fd4" x="47.72" y="142.117992" style="stroke: #000000; stroke-width: 0.8"/>
      </g>
     </g>
     <g id="text_12">
      <!-- 2.0 -->
      <g style="fill: #0000ff" transform="translate(24.816875 145.917211) scale(0.1 -0.1)">
       <use xlink:href="#DejaVuSans-32"/>
       <use xlink:href="#DejaVuSans-2e" transform="translate(63.623047 0)"/>
       <use xlink:href="#DejaVuSans-30" transform="translate(95.410156 0)"/>
      </g>
     </g>
    </g>
    <g id="ytick_6">
     <g id="line2d_12">
      <g>
       <use xlink:href="#m50c5ff5fd4" x="47.72" y="49.932727" style="stroke: #000000; stroke-width: 0.8"/>
      </g>
     </g>
     <g id="text_13">
      <!-- 2.5 -->
      <g style="fill: #0000ff" transform="translate(24.816875 53.731946) scale(0.1 -0.1)">
       <use xlink:href="#DejaVuSans-32"/>
       <use xlink:href="#DejaVuSans-2e" transform="translate(63.623047 0)"/>
       <use xlink:href="#DejaVuSans-35" transform="translate(95.410156 0)"/>
      </g>
     </g>
    </g>
    <g id="text_14">
     <!-- Normalized Intensity -->
     <g style="fill: #0000ff" transform="translate(18.737187 332.167031) rotate(-90) scale(0.1 -0.1)">
      <defs>
       <path id="DejaVuSans-4e" d="M 628 4666 
L 1478 4666 
L 3547 763 
L 3547 4666 
L 4159 4666 
L 4159 0 
L 3309 0 
L 1241 3903 
L 1241 0 
L 628 0 
L 628 4666 
z
" transform="scale(0.015625)"/>
       <path id="DejaVuSans-72" d="M 2631 2963 
Q 2534 3019 2420 3045 
Q 2306 3072 2169 3072 
Q 1681 3072 1420 2755 
Q 1159 2438 1159 1844 
L 1159 0 
L 581 0 
L 581 3500 
L 1159 3500 
L 1159 2956 
Q 1341 3275 1631 3429 
Q 1922 3584 2338 3584 
Q 2397 3584 2469 3576 
Q 2541 3569 2628 3553 
L 2631 2963 
z
" transform="scale(0.015625)"/>
       <path id="DejaVuSans-61" d="M 2194 1759 
Q 1497 1759 1228 1600 
Q 959 1441 959 1056 
Q 959 750 1161 570 
Q 1363 391 1709 391 
Q 2188 391 2477 730 
Q 2766 1069 2766 1631 
L 2766 1759 
L 2194 1759 
z
M 3341 1997 
L 3341 0 
L 2766 0 
L 2766 531 
Q 2569 213 2275 61 
Q 1981 -91 1556 -91 
Q 1019 -91 701 211 
Q 384 513 384 1019 
Q 384 1609 779 1909 
Q 1175 2209 1959 2209 
L 2766 2209 
L 2766 2266 
Q 2766 2663 2505 2880 
Q 2244 3097 1772 3097 
Q 1472 3097 1187 3025 
Q 903 2953 641 2809 
L 641 3341 
Q 956 3463 1253 3523 
Q 1550 3584 1831 3584 
Q 2591 3584 2966 3190 
Q 3341 2797 3341 1997 
z
" transform="scale(0.015625)"/>
       <path id="DejaVuSans-6c" d="M 603 4863 
L 1178 4863 
L 1178 0 
L 603 0 
L 603 4863 
z
" transform="scale(0.015625)"/>
       <path id="DejaVuSans-7a" d="M 353 3500 
L 3084 3500 
L 3084 2975 
L 922 459 
L 3084 459 
L 3084 0 
L 275 0 
L 275 525 
L 2438 3041 
L 353 3041 
L 353 3500 
z
" transform="scale(0.015625)"/>
       <path id="DejaVuSans-64" d="M 2906 2969 
L 2906 4863 
L 3481 4863 
L 3481 0 
L 2906 0 
L 2906 525 
Q 2725 213 2448 61 
Q 2172 -91 1784 -91 
Q 1150 -91 751 415 
Q 353 922 353 1747 
Q 353 2572 751 3078 
Q 1150 3584 1784 3584 
Q 2172 3584 2448 3432 
Q 2725 3281 2906 2969 
z
M 947 1747 
Q 947 1113 1208 752 
Q 1469 391 1925 391 
Q 2381 391 2643 752 
Q 2906 1113 2906 1747 
Q 2906 2381 2643 2742 
Q 2381 3103 1925 3103 
Q 1469 3103 1208 2742 
Q 947 2381 947 1747 
z
" transform="scale(0.015625)"/>
       <path id="DejaVuSans-49" d="M 628 4666 
L 1259 4666 
L 1259 0 
L 628 0 
L 628 4666 
z
" transform="scale(0.015625)"/>
       <path id="DejaVuSans-73" d="M 2834 3397 
L 2834 2853 
Q 2591 2978 2328 3040 
Q 2066 3103 1784 3103 
Q 1356 3103 1142 2972 
Q 928 2841 928 2578 
Q 928 2378 1081 2264 
Q 1234 2150 1697 2047 
L 1894 2003 
Q 2506 1872 2764 1633 
Q 3022 1394 3022 966 
Q 3022 478 2636 193 
Q 2250 -91 1575 -91 
Q 1294 -91 989 -36 
Q 684 19 347 128 
L 347 722 
Q 666 556 975 473 
Q 1284 391 1588 391 
Q 1994 391 2212 530 
Q 2431 669 2431 922 
Q 2431 1156 2273 1281 
Q 2116 1406 1581 1522 
L 1381 1569 
Q 847 1681 609 1914 
Q 372 2147 372 2553 
Q 372 3047 722 3315 
Q 1072 3584 1716 3584 
Q 2034 3584 2315 3537 
Q 2597 3491 2834 3397 
z
" transform="scale(0.015625)"/>
       <path id="DejaVuSans-79" d="M 2059 -325 
Q 1816 -950 1584 -1140 
Q 1353 -1331 966 -1331 
L 506 -1331 
L 506 -850 
L 844 -850 
Q 1081 -850 1212 -737 
Q 1344 -625 1503 -206 
L 1606 56 
L 191 3500 
L 800 3500 
L 1894 763 
L 2988 3500 
L 3597 3500 
L 2059 -325 
z
" transform="scale(0.015625)"/>
      </defs>
      <use xlink:href="#DejaVuSans-4e"/>
      <use xlink:href="#DejaVuSans-6f" transform="translate(74.804688 0)"/>
      <use xlink:href="#DejaVuSans-72" transform="translate(135.986328 0)"/>
      <use xlink:href="#DejaVuSans-6d" transform="translate(175.349609 0)"/>
      <use xlink:href="#DejaVuSans-61" transform="translate(272.761719 0)"/>
      <use xlink:href="#DejaVuSans-6c" transform="translate(334.041016 0)"/>
      <use xlink:href="#DejaVuSans-69" transform="translate(361.824219 0)"/>
      <use xlink:href="#DejaVuSans-7a" transform="translate(389.607422 0)"/>
      <use xlink:href="#DejaVuSans-65" transform="translate(442.097656 0)"/>
      <use xlink:href="#DejaVuSans-64" transform="translate(503.621094 0)"/>
      <use xlink:href="#DejaVuSans-20" transform="translate(567.097656 0)"/>
      <use xlink:href="#DejaVuSans-49" transform="translate(598.884766 0)"/>
      <use xlink:href="#DejaVuSans-6e" transform="translate(628.376953 0)"/>
      <use xlink:href="#DejaVuSans-74" transform="translate(691.755859 0)"/>
      <use xlink:href="#DejaVuSans-65" transform="translate(730.964844 0)"/>
      <use xlink:href="#DejaVuSans-6e" transform="translate(792.488281 0)"/>
      <use xlink:href="#DejaVuSans-73" transform="translate(855.867188 0)"/>
      <use xlink:href="#DejaVuSans-69" transform="translate(907.966797 0)"/>
      <use xlink:href="#DejaVuSans-74" transform="translate(935.75 0)"/>
      <use xlink:href="#DejaVuSans-79" transform="translate(974.958984 0)"/>
     </g>
    </g>
   </g>
   <g id="line2d_13">
    <path d="M 84.332727 510.859052 
L 166.23766 510.752323 
L 171.127506 510.485094 
L 174.794891 510.568463 
L 184.574585 510.987273 
L 199.244125 510.90583 
L 217.58105 510.823371 
L 221.248435 510.710895 
L 227.360744 510.88574 
L 234.695514 510.934865 
L 250.587516 510.920331 
L 262.812132 510.914644 
L 265.257056 510.719513 
L 267.701979 510.206633 
L 270.146902 509.73999 
L 271.369364 509.700917 
L 273.814287 509.989312 
L 277.481672 510.546126 
L 281.149058 510.78704 
L 287.261366 510.871684 
L 301.930906 510.705025 
L 304.375829 510.449993 
L 306.820753 510.44595 
L 312.933061 510.879354 
L 316.600446 510.880517 
L 323.935216 510.669604 
L 330.047525 510.875154 
L 333.71491 510.815476 
L 336.159833 510.591612 
L 338.604756 510.109186 
L 344.717065 508.595076 
L 347.161988 508.334231 
L 349.606912 508.496849 
L 359.386605 510.117418 
L 364.276452 510.445194 
L 375.278607 510.722879 
L 388.725685 510.782859 
L 408.285072 510.703555 
L 411.952457 510.752508 
L 414.39738 510.551798 
L 416.842304 510.232873 
L 419.287227 510.243912 
L 424.177074 510.670803 
L 429.066921 510.699573 
L 431.511844 510.666808 
L 432.734306 510.469782 
L 433.956767 509.911323 
L 436.401691 507.872359 
L 437.624152 507.163644 
L 438.846614 507.110902 
L 440.069076 507.644364 
L 442.513999 509.263478 
L 443.736461 509.863536 
L 444.958922 510.225024 
L 446.181384 510.396572 
L 449.848769 510.461263 
L 462.073386 510.479193 
L 465.740771 510.46894 
L 470.630618 510.560952 
L 471.853079 510.410878 
L 473.075541 509.893595 
L 474.298003 508.592811 
L 475.520464 506.157614 
L 477.965388 499.476433 
L 479.187849 497.512177 
L 480.410311 497.632177 
L 481.632773 499.579999 
L 484.077696 505.199745 
L 485.300158 507.328413 
L 486.52262 508.682058 
L 487.745081 509.414576 
L 488.967543 509.765477 
L 491.412466 510.033372 
L 495.079851 510.207945 
L 497.524775 510.157072 
L 499.969698 509.780765 
L 502.414621 509.222338 
L 503.637083 509.148922 
L 504.859545 509.279294 
L 509.749391 510.25139 
L 512.194315 510.38841 
L 517.084161 510.367646 
L 523.19647 510.216816 
L 530.53124 510.271113 
L 534.198625 510.274062 
L 540.310933 509.907647 
L 543.978318 510.147076 
L 547.645703 510.350389 
L 548.868165 510.218133 
L 550.090627 509.772063 
L 551.313088 508.874505 
L 553.758012 506.29123 
L 554.980474 505.421615 
L 556.202935 505.218047 
L 557.425397 505.163424 
L 558.647859 502.454758 
L 559.87032 490.137079 
L 561.092782 459.946626 
L 563.537705 360.824291 
L 564.760167 328.06782 
L 565.982629 326.488522 
L 567.20509 352.75905 
L 569.650014 432.112219 
L 570.872475 462.170819 
L 572.094937 481.234578 
L 573.317399 491.614642 
L 574.53986 496.706498 
L 575.762322 499.218476 
L 576.984784 500.709538 
L 579.429707 502.913162 
L 581.87463 504.812881 
L 584.319554 506.31366 
L 586.764477 507.324265 
L 589.209401 507.969813 
L 591.654324 508.419939 
L 598.989094 509.246428 
L 601.434017 509.678728 
L 603.878941 509.888027 
L 606.323864 509.813585 
L 608.768787 509.697224 
L 612.436172 509.893787 
L 616.103557 510.043786 
L 618.548481 509.873259 
L 620.993404 509.710528 
L 623.438328 509.849328 
L 627.105713 510.134266 
L 629.550636 510.187063 
L 635.662944 510.065704 
L 645.442638 510.397166 
L 650.332484 510.462934 
L 661.33464 510.534079 
L 669.891871 510.511257 
L 677.226641 510.366849 
L 685.783873 510.631547 
L 689.451258 510.560533 
L 695.563567 510.247159 
L 699.230952 510.394639 
L 700.453413 510.272177 
L 701.675875 509.919805 
L 705.34326 508.243333 
L 706.565722 508.156645 
L 707.788183 508.43289 
L 711.455568 509.823334 
L 713.900492 510.247992 
L 717.567877 510.440439 
L 733.459879 510.643015 
L 748.129419 510.726879 
L 762.798959 510.664444 
L 768.911267 510.551932 
L 775.023576 510.681327 
L 782.358346 510.618642 
L 789.693116 510.696747 
L 798.250348 510.672248 
L 816.587273 510.820001 
L 816.587273 510.820001 
" clip-path="url(#pfc16016cd9)" style="fill: none; stroke: #0000ff; stroke-width: 1.5; stroke-linecap: square"/>
   </g>
   <g id="line2d_14">
    <path d="M 245.176411 234.299932 
L 464.00023 234.209455 
L 465.060593 234.066335 
L 465.060593 234.140686 
L 465.764976 233.970737 
L 465.764976 234.048286 
L 466.46349 233.914272 
L 466.46349 234.028092 
L 467.160293 233.897177 
L 467.160293 234.030489 
L 467.50894 233.89386 
L 468.206232 233.867409 
L 468.555122 233.720445 
L 468.909392 233.868775 
L 469.258771 233.773232 
L 469.608884 233.793225 
L 469.608884 233.939917 
L 470.309844 233.857532 
L 474.207541 234.122901 
L 478.136532 234.247171 
L 479.897122 234.248411 
L 488.260227 234.263014 
L 494.775214 234.263491 
L 502.402397 234.28671 
L 502.402397 234.286413 
L 506.011593 234.274689 
L 531.071324 234.28132 
L 561.089848 234.229751 
L 561.089848 234.155125 
L 561.445095 234.090095 
L 561.445095 233.789231 
L 561.799854 233.529028 
L 561.799854 232.750833 
L 562.152656 232.192771 
L 562.152656 230.374497 
L 562.503258 229.393682 
L 562.503258 225.203002 
L 562.849704 223.975475 
L 562.849704 217.663054 
L 563.19566 215.944365 
L 563.19566 205.161506 
L 563.531593 202.742244 
L 563.531593 189.818104 
L 563.863858 189.841828 
L 563.863858 172.345897 
L 564.194167 176.025299 
L 564.194167 155.01822 
L 564.523254 159.347521 
L 564.523254 132.513092 
L 564.851852 141.78701 
L 564.851852 112.672196 
L 565.185584 126.301342 
L 565.185584 97.605586 
L 565.513692 116.89392 
L 565.513692 83.839739 
L 565.841312 106.792944 
L 565.841312 74.105477 
L 566.169176 98.206659 
L 566.169176 67.256855 
L 566.496796 96.983605 
L 566.496796 63.456932 
L 566.824171 91.478146 
L 566.824171 60.556831 
L 567.151791 90.431281 
L 567.151791 49.932727 
L 567.479166 81.612505 
L 567.479166 53.801613 
L 567.80703 82.030306 
L 567.80703 53.733368 
L 568.13465 93.53754 
L 568.13465 63.853139 
L 568.46227 95.698042 
L 568.46227 72.91195 
L 568.790134 102.769681 
L 568.790134 75.022899 
L 569.117754 108.728821 
L 569.117754 85.308527 
L 569.445863 113.933464 
L 569.445863 93.222176 
L 569.773727 125.985807 
L 569.773727 103.896323 
L 570.107214 131.226912 
L 570.107214 108.68725 
L 570.435568 133.265183 
L 570.435568 112.453946 
L 570.763921 137.896367 
L 570.763921 119.307374 
L 571.092274 145.802536 
L 571.092274 128.605907 
L 571.420872 150.943136 
L 571.420872 134.213729 
L 571.749469 155.962617 
L 571.749469 139.691731 
L 572.078312 158.758764 
L 572.078312 145.646761 
L 572.407887 164.087381 
L 572.407887 151.017585 
L 572.737463 168.432261 
L 572.737463 155.473797 
L 573.070461 171.369117 
L 573.070461 158.343478 
L 573.400526 173.946748 
L 573.400526 162.32518 
L 573.730591 177.575122 
L 573.730591 166.636168 
L 574.0609 180.999278 
L 574.0609 168.395432 
L 574.39072 181.906672 
L 574.39072 171.747164 
L 574.721518 184.45606 
L 574.721518 174.962758 
L 575.057695 188.062464 
L 575.057695 178.716728 
L 575.388493 189.922864 
L 575.388493 180.263712 
L 575.720025 191.865258 
L 575.720025 184.034577 
L 576.051312 194.325602 
L 576.051312 187.651677 
L 576.383577 198.125841 
L 576.383577 191.334868 
L 576.716331 200.101561 
L 576.716331 193.051836 
L 577.047863 200.838532 
L 577.047863 194.20272 
L 577.380861 201.95541 
L 577.380861 195.746864 
L 577.714593 203.862581 
L 577.714593 197.485822 
L 578.04857 204.8716 
L 578.04857 198.525397 
L 578.382546 205.718316 
L 578.382546 199.868474 
L 578.715545 206.661395 
L 578.715545 201.962049 
L 579.049522 208.139813 
L 579.049522 202.938922 
L 579.383743 209.476418 
L 579.383743 205.036994 
L 579.717964 210.42226 
L 579.717964 206.736441 
L 580.058541 212.36954 
L 580.058541 207.584154 
L 580.393985 213.0984 
L 580.393985 208.701339 
L 580.729917 213.167506 
L 580.729917 209.212368 
L 581.065361 214.254192 
L 581.065361 210.526998 
L 581.401293 215.431446 
L 581.401293 211.326253 
L 581.738448 216.076925 
L 581.738448 212.273752 
L 582.076337 216.422255 
L 582.076337 213.307214 
L 582.414959 218.057829 
L 582.414959 214.83464 
L 582.753091 219.241506 
L 582.753091 215.887494 
L 583.095381 219.495823 
L 583.095381 216.805206 
L 583.434736 220.020425 
L 583.434736 217.330378 
L 583.774825 221.128531 
L 583.774825 218.227818 
L 584.116625 221.250198 
L 584.116625 218.068893 
L 584.45867 220.874779 
L 584.45867 218.329137 
L 584.801937 221.447052 
L 584.801937 218.581539 
L 585.150828 222.107031 
L 585.150828 219.731681 
L 585.495806 222.413885 
L 585.495806 219.687737 
L 585.841274 222.648783 
L 585.841274 220.061507 
L 586.186008 222.630748 
L 586.186008 220.122698 
L 586.529765 223.017011 
L 586.529765 220.766197 
L 586.875721 223.673601 
L 586.875721 221.489972 
L 587.223634 224.230153 
L 587.223634 222.172186 
L 587.569101 224.578989 
L 587.569101 222.643162 
L 587.914814 225.058385 
L 587.914814 223.201857 
L 588.262237 225.509739 
L 588.262237 223.558699 
L 588.611128 225.574924 
L 588.611128 223.730407 
L 588.959774 225.770948 
L 588.959774 224.132296 
L 589.307931 226.244742 
L 589.307931 224.558135 
L 589.65731 226.535319 
L 589.65731 225.043615 
L 590.007179 226.734266 
L 590.007179 224.848701 
L 590.362426 226.716582 
L 590.362426 225.071466 
L 590.712295 226.626303 
L 590.712295 225.266805 
L 591.062652 227.274749 
L 591.062652 225.875555 
L 591.41301 227.634659 
L 591.41301 226.38965 
L 591.763856 227.874067 
L 591.763856 226.581658 
L 592.117881 228.015302 
L 592.117881 226.884865 
L 592.468728 228.305879 
L 592.468728 227.09252 
L 592.820308 228.515992 
L 592.820308 227.405768 
L 593.172377 228.580555 
L 593.172377 227.540779 
L 593.524446 228.871661 
L 593.524446 227.793188 
L 593.877248 229.011661 
L 593.877248 228.207217 
L 594.230295 229.320134 
L 594.230295 228.303218 
L 594.58432 229.507663 
L 594.58432 228.268256 
L 594.938834 229.180839 
L 594.938834 228.358869 
L 595.298482 229.401896 
L 595.298482 228.496049 
L 595.652752 229.821151 
L 595.652752 228.939327 
L 596.007265 229.883173 
L 596.007265 229.079948 
L 596.362513 230.000849 
L 596.362513 229.209928 
L 596.718249 230.199106 
L 596.718249 229.489657 
L 597.074963 230.360699 
L 597.074963 229.615292 
L 597.430944 230.573636 
L 597.430944 229.871858 
L 597.78717 230.641424 
L 597.78717 229.962571 
L 598.144617 230.800394 
L 598.144617 229.973284 
L 598.501087 230.721818 
L 598.501087 230.069248 
L 598.858046 230.875857 
L 598.858046 230.142553 
L 599.215494 230.972504 
L 599.215494 230.260351 
L 599.572453 230.934005 
L 599.572453 230.342049 
L 599.931367 231.111117 
L 599.931367 230.38892 
L 600.295661 231.183361 
L 600.295661 230.542622 
L 600.655798 231.21487 
L 600.655798 230.585909 
L 601.015202 231.300816 
L 601.015202 230.741351 
L 601.375584 231.488831 
L 601.375584 230.794235 
L 601.734743 231.541967 
L 601.734743 231.03224 
L 602.095125 231.632659 
L 602.095125 231.097991 
L 602.459907 231.787234 
L 602.459907 231.219278 
L 602.821267 231.787175 
L 602.821267 231.28516 
L 603.183115 231.826645 
L 603.183115 231.240791 
L 603.545698 231.819934 
L 603.545698 231.347049 
L 603.908035 231.92338 
L 603.908035 231.41569 
L 604.270128 232.042573 
L 604.270128 231.503739 
L 604.632466 232.046648 
L 604.632466 231.511726 
L 604.995048 232.060758 
L 604.995048 231.553979 
L 605.363254 232.133662 
L 605.363254 231.695047 
L 605.725836 232.27107 
L 605.725836 231.82033 
L 606.088418 232.369039 
L 606.088418 231.910831 
L 606.451 232.383496 
L 606.451 231.940373 
L 606.813582 232.411206 
L 606.813582 231.980186 
L 607.176164 232.462739 
L 607.176164 232.046316 
L 607.540947 232.510061 
L 607.540947 232.160257 
L 607.903529 232.593801 
L 607.903529 232.223718 
L 608.266111 232.644687 
L 608.266111 232.281704 
L 608.628693 232.667995 
L 608.628693 232.315592 
L 608.990786 232.758114 
L 608.990786 232.405188 
L 609.351657 232.838917 
L 609.351657 232.499777 
L 609.712528 232.89221 
L 609.712528 232.575591 
L 610.073154 233.002448 
L 610.073154 232.611954 
L 610.438915 233.011179 
L 610.438915 232.663666 
L 610.798318 232.958374 
L 610.798318 232.63361 
L 611.1587 233.033243 
L 611.1587 232.689888 
L 611.518348 233.088721 
L 611.518348 232.787744 
L 611.878485 233.115772 
L 611.878485 232.741808 
L 612.239356 233.053941 
L 612.239356 232.759417 
L 612.603894 233.074769 
L 612.603894 232.769891 
L 612.96452 233.127663 
L 612.96452 232.86191 
L 613.32588 233.168733 
L 613.32588 232.910463 
L 613.686751 233.23009 
L 613.686751 232.92548 
L 614.048844 233.190207 
L 614.048844 232.924678 
L 614.410204 233.19356 
L 614.410204 232.894921 
L 614.772052 233.226572 
L 614.772052 232.968617 
L 615.134634 233.21282 
L 615.134634 232.9388 
L 615.502595 233.247835 
L 615.502595 232.96603 
L 615.865177 233.276133 
L 615.865177 233.002423 
L 616.22776 233.306963 
L 616.22776 233.017481 
L 616.590342 233.277836 
L 616.590342 233.040798 
L 616.954146 233.324793 
L 616.954146 233.077813 
L 617.316973 233.350215 
L 617.316973 233.125517 
L 617.679555 233.347946 
L 617.679555 233.140761 
L 618.042137 233.401057 
L 618.042137 233.179119 
L 618.404719 233.417497 
L 618.404719 233.1874 
L 618.767301 233.407217 
L 618.767301 233.164912 
L 619.130128 233.397678 
L 619.130128 233.198028 
L 619.49271 233.4451 
L 619.49271 233.23403 
L 619.855292 233.456107 
L 619.855292 233.265723 
L 620.217874 233.458552 
L 620.217874 233.282738 
L 620.585835 233.482982 
L 620.585835 233.315859 
L 620.947929 233.507255 
L 620.947929 233.343419 
L 621.309777 233.532889 
L 621.309777 233.354115 
L 621.669914 233.550142 
L 621.669914 233.368252 
L 622.028829 233.561627 
L 622.028829 233.389229 
L 622.387988 233.599966 
L 622.387988 233.417277 
L 622.747881 233.632457 
L 622.747881 233.457573 
L 623.10704 233.6343 
L 623.10704 233.465338 
L 623.467178 233.629952 
L 623.467178 233.440685 
L 623.826581 233.631707 
L 623.826581 233.44192 
L 624.191119 233.624051 
L 624.191119 233.437127 
L 624.55199 233.610708 
L 624.55199 233.429786 
L 624.91335 233.615217 
L 624.91335 233.451042 
L 625.275932 233.64701 
L 625.275932 233.473005 
L 625.643893 233.649039 
L 625.643893 233.508105 
L 626.006475 233.658834 
L 626.006475 233.520146 
L 626.369057 233.705262 
L 626.369057 233.531097 
L 626.731884 233.680821 
L 626.731884 233.546282 
L 627.094466 233.68972 
L 627.094466 233.532514 
L 627.457293 233.703025 
L 627.457293 233.550045 
L 627.819875 233.702823 
L 627.819875 233.547478 
L 628.182457 233.712156 
L 628.182457 233.557233 
L 628.545039 233.7109 
L 628.545039 233.541695 
L 628.907866 233.700982 
L 628.907866 233.541983 
L 629.633274 233.738519 
L 629.633274 233.59512 
L 629.995856 233.757643 
L 629.995856 233.617372 
L 630.358439 233.731629 
L 630.358439 233.598396 
L 630.7264 233.752046 
L 630.7264 233.584258 
L 631.089226 233.743875 
L 631.089226 233.600194 
L 631.451808 233.738825 
L 631.451808 233.612811 
L 631.814635 233.76812 
L 631.814635 233.652836 
L 632.177217 233.797773 
L 632.177217 233.671415 
L 632.539799 233.788717 
L 632.539799 233.670928 
L 633.264963 233.793988 
L 633.264963 233.662953 
L 633.628768 233.787851 
L 633.628768 233.66591 
L 633.995018 233.789564 
L 633.995018 233.647822 
L 634.3576 233.78648 
L 634.3576 233.659773 
L 634.720182 233.795568 
L 634.720182 233.655606 
L 635.083008 233.803826 
L 635.083008 233.676797 
L 635.445591 233.811953 
L 635.445591 233.680356 
L 636.176378 233.827166 
L 636.176378 233.703013 
L 636.53896 233.833828 
L 636.53896 233.731566 
L 637.264125 233.861857 
L 637.264125 233.74731 
L 637.626951 233.857598 
L 637.626951 233.7393 
L 638.35236 233.850286 
L 638.35236 233.745823 
L 639.077769 233.857946 
L 639.077769 233.742231 
L 639.802933 233.870231 
L 639.802933 233.756937 
L 640.528342 233.884071 
L 640.528342 233.778445 
L 640.896303 233.903104 
L 640.896303 233.789502 
L 641.258885 233.89652 
L 641.258885 233.779364 
L 641.621712 233.874973 
L 641.621712 233.75051 
L 641.987961 233.867848 
L 641.987961 233.734278 
L 642.350788 233.858934 
L 642.350788 233.750793 
L 643.075952 233.889108 
L 643.075952 233.760667 
L 643.801116 233.870529 
L 643.801116 233.769404 
L 644.526525 233.897552 
L 644.526525 233.795624 
L 645.251689 233.900952 
L 645.251689 233.79978 
L 645.982232 233.892855 
L 645.982232 233.799056 
L 646.707397 233.894805 
L 646.707397 233.798234 
L 647.434028 233.919179 
L 647.434028 233.81844 
L 648.159192 233.922842 
L 648.159192 233.833994 
L 648.884601 233.924679 
L 648.884601 233.82798 
L 649.609765 233.914062 
L 649.609765 233.809933 
L 650.334929 233.922534 
L 650.334929 233.837015 
L 650.697512 233.950626 
L 650.697512 233.845849 
L 651.428055 233.941522 
L 651.428055 233.840754 
L 652.15762 233.94051 
L 652.15762 233.853864 
L 652.883028 233.946993 
L 652.883028 233.877302 
L 653.608193 233.969028 
L 653.608193 233.874909 
L 654.335068 233.948494 
L 654.335068 233.846349 
L 655.060477 233.950886 
L 655.060477 233.864501 
L 655.785641 233.964564 
L 655.785641 233.878132 
L 656.516185 233.959864 
L 656.516185 233.877209 
L 657.241349 233.973329 
L 657.241349 233.900857 
L 657.966513 233.991546 
L 657.966513 233.898237 
L 658.691677 233.964188 
L 658.691677 233.872083 
L 659.417086 233.980633 
L 659.417086 233.90091 
L 660.14225 233.998551 
L 660.14225 233.901035 
L 660.867415 233.963492 
L 660.867415 233.892118 
L 661.601625 233.999895 
L 661.601625 233.925022 
L 662.327034 234.002145 
L 662.327034 233.919692 
L 663.052443 233.982123 
L 663.052443 233.910053 
L 663.777607 234.012216 
L 663.777607 233.934454 
L 664.503016 234.015369 
L 664.503016 233.930483 
L 665.22818 234.002201 
L 665.22818 233.922789 
L 665.953344 234.017936 
L 665.953344 233.943269 
L 666.684132 234.009097 
L 666.684132 233.930968 
L 667.409296 234.02308 
L 667.409296 233.947652 
L 668.134705 234.018179 
L 668.134705 233.925184 
L 668.861092 233.994753 
L 668.861092 233.91666 
L 669.586745 234.012627 
L 669.586745 233.949673 
L 670.311909 234.041839 
L 670.311909 233.964833 
L 671.040496 234.006075 
L 671.040496 233.928026 
L 671.771039 234.021275 
L 671.771039 233.959089 
L 672.496204 234.04902 
L 672.496204 233.96462 
L 673.221368 234.024492 
L 673.221368 233.944149 
L 673.946532 234.023268 
L 673.946532 233.955987 
L 674.671941 234.029593 
L 674.671941 233.953118 
L 675.397105 234.032645 
L 675.397105 233.956218 
L 676.122514 234.030754 
L 676.122514 233.965747 
L 676.853302 234.035025 
L 676.853302 233.969008 
L 677.57871 234.022699 
L 677.57871 233.956565 
L 678.303875 234.042305 
L 678.303875 233.97905 
L 679.029283 234.051219 
L 679.029283 233.984195 
L 679.75836 234.039989 
L 679.75836 233.980843 
L 680.483279 234.052532 
L 680.483279 233.984272 
L 681.208444 234.032555 
L 681.208444 233.972593 
L 681.939231 234.045541 
L 681.939231 233.974571 
L 682.665862 234.044779 
L 682.665862 233.979086 
L 683.391027 234.034397 
L 683.391027 233.968102 
L 684.116191 234.036723 
L 684.116191 233.980845 
L 684.841355 234.04565 
L 684.841355 233.971379 
L 685.929102 234.07864 
L 685.929102 234.022994 
L 686.659645 234.080409 
L 686.659645 234.009584 
L 687.385053 234.053826 
L 687.385053 233.986485 
L 688.109973 234.049242 
L 688.109973 233.983688 
L 688.83856 234.060173 
L 688.83856 234.003121 
L 689.564947 234.065498 
L 689.564947 234.004565 
L 690.290111 234.059489 
L 690.290111 233.988143 
L 691.015276 234.052675 
L 691.015276 233.999597 
L 691.745819 234.054417 
L 691.745819 233.991255 
L 692.471227 234.053422 
L 692.471227 234.00036 
L 693.196392 234.070587 
L 693.196392 234.007636 
L 693.921801 234.064091 
L 693.921801 233.998539 
L 694.646965 234.051291 
L 694.646965 233.993597 
L 695.372129 234.059619 
L 695.372129 233.99317 
L 696.097293 234.053243 
L 696.097293 233.978899 
L 696.829548 234.04603 
L 696.829548 233.974908 
L 697.554712 234.046023 
L 697.554712 233.987699 
L 698.279876 234.05688 
L 698.279876 233.990951 
L 699.370801 234.055468 
L 699.370801 233.985637 
L 700.09621 234.042277 
L 700.09621 233.975399 
L 700.82113 234.064056 
L 700.82113 233.998475 
L 701.546538 234.03617 
L 701.546538 233.980737 
L 702.277082 234.057778 
L 702.277082 233.991988 
L 703.364828 234.070814 
L 703.364828 234.014027 
L 704.091215 234.058812 
L 704.091215 233.991004 
L 704.816379 234.047456 
L 704.816379 233.981911 
L 705.541543 234.071683 
L 705.541543 234.01002 
L 706.266708 234.060965 
L 706.266708 233.992825 
L 706.997495 234.076392 
L 706.997495 234.006626 
L 707.722659 234.050617 
L 707.722659 233.982379 
L 708.447579 234.055025 
L 708.447579 234.004235 
L 709.172988 234.073105 
L 709.172988 234.004594 
L 709.897908 234.048464 
L 709.897908 233.980102 
L 710.623072 234.052002 
L 710.623072 233.988362 
L 711.349703 234.06049 
L 711.349703 233.987918 
L 712.080246 234.049681 
L 712.080246 233.982459 
L 712.805411 234.060879 
L 712.805411 233.99166 
L 713.530575 234.060512 
L 713.530575 233.993699 
L 714.255984 234.068586 
L 714.255984 233.994676 
L 714.981148 234.064961 
L 714.981148 233.983283 
L 715.706312 234.047621 
L 715.706312 233.986031 
L 716.431721 234.071698 
L 716.431721 234.001665 
L 717.162508 234.052835 
L 717.162508 233.990494 
L 717.887917 234.052791 
L 717.887917 233.985456 
L 718.978842 234.073317 
L 718.978842 234.005302 
L 719.704251 234.061759 
L 719.704251 233.987322 
L 720.429415 234.053688 
L 720.429415 233.988709 
L 721.154824 234.060807 
L 721.154824 233.996923 
L 721.880233 234.069199 
L 721.880233 234.006085 
L 722.610776 234.063058 
L 722.610776 234.002714 
L 723.33594 234.057478 
L 723.33594 233.997305 
L 724.061593 234.054781 
L 724.061593 233.98984 
L 725.149584 234.060861 
L 725.149584 234.006117 
L 725.876949 234.054972 
L 725.876949 233.987944 
L 726.965184 234.059019 
L 726.965184 234.001605 
L 728.058554 234.069685 
L 728.058554 234.019821 
L 728.787141 234.088903 
L 728.787141 234.018641 
L 729.51255 234.063933 
L 729.51255 233.99531 
L 730.248716 234.064681 
L 730.248716 234.000135 
L 730.973881 234.057965 
L 730.973881 234.000844 
L 731.699045 234.07384 
L 731.699045 234.00499 
L 732.792903 234.071264 
L 732.792903 234.007361 
L 733.518312 234.060864 
L 733.518312 233.999712 
L 734.243232 234.061081 
L 734.243232 234.000172 
L 734.968641 234.055219 
L 734.968641 234.009196 
L 735.69405 234.070608 
L 735.69405 234.016167 
L 736.781551 234.074369 
L 736.781551 234.011752 
L 737.515762 234.069158 
L 737.515762 234.003462 
L 738.242638 234.072356 
L 738.242638 234.010001 
L 738.967802 234.076089 
L 738.967802 234.005247 
L 739.692966 234.068708 
L 739.692966 234.00204 
L 740.418375 234.083284 
L 740.418375 234.008782 
L 741.143784 234.066654 
L 741.143784 234.003616 
L 741.868948 234.081 
L 741.868948 234.016868 
L 742.59998 234.068006 
L 742.59998 234.004753 
L 743.325633 234.074382 
L 743.325633 234.010902 
L 744.050798 234.085387 
L 744.050798 234.020824 
L 745.139033 234.079712 
L 745.139033 234.031158 
L 745.865664 234.068049 
L 745.865664 234.016733 
L 746.958056 234.077384 
L 746.958056 234.02873 
L 747.689088 234.093455 
L 747.689088 234.042327 
L 748.414497 234.084923 
L 748.414497 234.023797 
L 749.139906 234.081086 
L 749.139906 234.018547 
L 749.865314 234.067756 
L 749.865314 234.007821 
L 750.95355 234.092645 
L 750.95355 234.032853 
L 751.678958 234.082677 
L 751.678958 234.020688 
L 752.774284 234.097788 
L 752.774284 234.037738 
L 753.862764 234.091971 
L 753.862764 234.044772 
L 754.950755 234.109824 
L 754.950755 234.053391 
L 756.042169 234.117897 
L 756.042169 234.068968 
L 757.13016 234.10578 
L 757.13016 234.047744 
L 758.223529 234.109342 
L 758.223529 234.06904 
L 759.313232 234.110377 
L 759.313232 234.060406 
L 760.401223 234.117593 
L 760.401223 234.06376 
L 761.126631 234.102921 
L 761.126631 234.048766 
L 762.214378 234.120868 
L 762.214378 234.07741 
L 763.307747 234.123861 
L 763.307747 234.080135 
L 764.408452 234.106991 
L 764.408452 234.066247 
L 765.49791 234.125699 
L 765.49791 234.071529 
L 766.586634 234.118431 
L 766.586634 234.074541 
L 767.67487 234.136719 
L 767.67487 234.093114 
L 768.768239 234.122596 
L 768.768239 234.080485 
L 769.856475 234.131101 
L 769.856475 234.079958 
L 771.307292 234.140465 
L 771.307292 234.093651 
L 772.397483 234.143443 
L 772.397483 234.097602 
L 773.491098 234.133428 
L 773.491098 234.095432 
L 774.583489 234.123095 
L 774.583489 234.089285 
L 775.671725 234.147423 
L 775.671725 234.104678 
L 776.759471 234.143863 
L 776.759471 234.094184 
L 777.847707 234.152054 
L 777.847707 234.101392 
L 778.941321 234.137076 
L 778.941321 234.106666 
L 780.029556 234.154716 
L 780.029556 234.112989 
L 781.480374 234.145602 
L 781.480374 234.100356 
L 782.931436 234.167697 
L 782.931436 234.118634 
L 784.03703 234.155981 
L 784.03703 234.111281 
L 785.125021 234.157489 
L 785.125021 234.11874 
L 786.213501 234.167692 
L 786.213501 234.12431 
L 787.301736 234.162114 
L 787.301736 234.121564 
L 788.395106 234.162451 
L 788.395106 234.128146 
L 789.846168 234.173062 
L 789.846168 234.135566 
L 791.296986 234.176798 
L 791.296986 234.140945 
L 792.751226 234.177731 
L 792.751226 234.143892 
L 794.206933 234.164074 
L 794.206933 234.128787 
L 795.657751 234.174837 
L 795.657751 234.141373 
L 797.471395 234.198303 
L 797.471395 234.164237 
L 798.92808 234.172063 
L 798.92808 234.14784 
L 800.379876 234.202942 
L 800.379876 234.168835 
L 802.192053 234.18702 
L 802.192053 234.162561 
L 803.990539 234.187249 
L 803.990539 234.158255 
L 805.424731 234.193492 
L 805.424731 234.165098 
L 806.854033 234.192199 
L 806.854033 234.167629 
L 808.283091 234.202065 
L 808.283091 234.174845 
L 810.068863 234.208774 
L 810.068863 234.179426 
L 811.501343 234.213168 
L 811.501343 234.184722 
L 812.577354 234.202423 
L 812.577354 234.208706 
" clip-path="url(#pfc16016cd9)" style="fill: none; stroke: #008000; stroke-width: 1.5; stroke-linecap: square"/>
   </g>
   <g id="patch_3">
    <path d="M 47.72 534.04 
L 47.72 26.88 
" style="fill: none; stroke: #000000; stroke-width: 0.8; stroke-linejoin: miter; stroke-linecap: square"/>
   </g>
   <g id="patch_4">
    <path d="M 853.2 534.04 
L 853.2 26.88 
" style="fill: none; stroke: #000000; stroke-width: 0.8; stroke-linejoin: miter; stroke-linecap: square"/>
   </g>
   <g id="patch_5">
    <path d="M 47.72 534.04 
L 853.2 534.04 
" style="fill: none; stroke: #000000; stroke-width: 0.8; stroke-linejoin: miter; stroke-linecap: square"/>
   </g>
   <g id="patch_6">
    <path d="M 47.72 26.88 
L 853.2 26.88 
" style="fill: none; stroke: #000000; stroke-width: 0.8; stroke-linejoin: miter; stroke-linecap: square"/>
   </g>
   <g id="patch_7">
    <path d="M 635.316026 339.618673 
Q 609.164732 345.450707 583.013438 351.282741 
L 583.884095 355.186836 
Q 577.37651 353.564405 570.868925 351.941974 
Q 576.070524 347.708263 581.272124 343.474551 
L 582.142781 347.378646 
Q 608.294075 341.546612 634.445369 335.714578 
L 635.316026 339.618673 
z
" style="stroke: #000000; stroke-linecap: round"/>
   </g>
   <g id="text_15">
    <!-- Peak: RT=3.30, Area=4.79e+04 -->
    <g style="fill: #ff0000" transform="translate(640.552791 323.124185) scale(0.1 -0.1)">
     <defs>
      <path id="DejaVuSans-50" d="M 1259 4147 
L 1259 2394 
L 2053 2394 
Q 2494 2394 2734 2622 
Q 2975 2850 2975 3272 
Q 2975 3691 2734 3919 
Q 2494 4147 2053 4147 
L 1259 4147 
z
M 628 4666 
L 2053 4666 
Q 2838 4666 3239 4311 
Q 3641 3956 3641 3272 
Q 3641 2581 3239 2228 
Q 2838 1875 2053 1875 
L 1259 1875 
L 1259 0 
L 628 0 
L 628 4666 
z
" transform="scale(0.015625)"/>
      <path id="DejaVuSans-6b" d="M 581 4863 
L 1159 4863 
L 1159 1991 
L 2875 3500 
L 3609 3500 
L 1753 1863 
L 3688 0 
L 2938 0 
L 1159 1709 
L 1159 0 
L 581 0 
L 581 4863 
z
" transform="scale(0.015625)"/>
      <path id="DejaVuSans-3a" d="M 750 794 
L 1409 794 
L 1409 0 
L 750 0 
L 750 794 
z
M 750 3309 
L 1409 3309 
L 1409 2516 
L 750 2516 
L 750 3309 
z
" transform="scale(0.015625)"/>
      <path id="DejaVuSans-3d" d="M 678 2906 
L 4684 2906 
L 4684 2381 
L 678 2381 
L 678 2906 
z
M 678 1631 
L 4684 1631 
L 4684 1100 
L 678 1100 
L 678 1631 
z
" transform="scale(0.015625)"/>
      <path id="DejaVuSans-2c" d="M 750 794 
L 1409 794 
L 1409 256 
L 897 -744 
L 494 -744 
L 750 256 
L 750 794 
z
" transform="scale(0.015625)"/>
      <path id="DejaVuSans-41" d="M 2188 4044 
L 1331 1722 
L 3047 1722 
L 2188 4044 
z
M 1831 4666 
L 2547 4666 
L 4325 0 
L 3669 0 
L 3244 1197 
L 1141 1197 
L 716 0 
L 50 0 
L 1831 4666 
z
" transform="scale(0.015625)"/>
      <path id="DejaVuSans-37" d="M 525 4666 
L 3525 4666 
L 3525 4397 
L 1831 0 
L 1172 0 
L 2766 4134 
L 525 4134 
L 525 4666 
z
" transform="scale(0.015625)"/>
      <path id="DejaVuSans-39" d="M 703 97 
L 703 672 
Q 941 559 1184 500 
Q 1428 441 1663 441 
Q 2288 441 2617 861 
Q 2947 1281 2994 2138 
Q 2813 1869 2534 1725 
Q 2256 1581 1919 1581 
Q 1219 1581 811 2004 
Q 403 2428 403 3163 
Q 403 3881 828 4315 
Q 1253 4750 1959 4750 
Q 2769 4750 3195 4129 
Q 3622 3509 3622 2328 
Q 3622 1225 3098 567 
Q 2575 -91 1691 -91 
Q 1453 -91 1209 -44 
Q 966 3 703 97 
z
M 1959 2075 
Q 2384 2075 2632 2365 
Q 2881 2656 2881 3163 
Q 2881 3666 2632 3958 
Q 2384 4250 1959 4250 
Q 1534 4250 1286 3958 
Q 1038 3666 1038 3163 
Q 1038 2656 1286 2365 
Q 1534 2075 1959 2075 
z
" transform="scale(0.015625)"/>
      <path id="DejaVuSans-2b" d="M 2944 4013 
L 2944 2272 
L 4684 2272 
L 4684 1741 
L 2944 1741 
L 2944 0 
L 2419 0 
L 2419 1741 
L 678 1741 
L 678 2272 
L 2419 2272 
L 2419 4013 
L 2944 4013 
z
" transform="scale(0.015625)"/>
     </defs>
     <use xlink:href="#DejaVuSans-50"/>
     <use xlink:href="#DejaVuSans-65" transform="translate(56.677734 0)"/>
     <use xlink:href="#DejaVuSans-61" transform="translate(118.201172 0)"/>
     <use xlink:href="#DejaVuSans-6b" transform="translate(179.480469 0)"/>
     <use xlink:href="#DejaVuSans-3a" transform="translate(237.390625 0)"/>
     <use xlink:href="#DejaVuSans-20" transform="translate(271.082031 0)"/>
     <use xlink:href="#DejaVuSans-52" transform="translate(302.869141 0)"/>
     <use xlink:href="#DejaVuSans-54" transform="translate(365.101562 0)"/>
     <use xlink:href="#DejaVuSans-3d" transform="translate(426.185547 0)"/>
     <use xlink:href="#DejaVuSans-33" transform="translate(509.974609 0)"/>
     <use xlink:href="#DejaVuSans-2e" transform="translate(573.597656 0)"/>
     <use xlink:href="#DejaVuSans-33" transform="translate(605.384766 0)"/>
     <use xlink:href="#DejaVuSans-30" transform="translate(669.007812 0)"/>
     <use xlink:href="#DejaVuSans-2c" transform="translate(732.630859 0)"/>
     <use xlink:href="#DejaVuSans-20" transform="translate(764.417969 0)"/>
     <use xlink:href="#DejaVuSans-41" transform="translate(796.205078 0)"/>
     <use xlink:href="#DejaVuSans-72" transform="translate(864.613281 0)"/>
     <use xlink:href="#DejaVuSans-65" transform="translate(903.476562 0)"/>
     <use xlink:href="#DejaVuSans-61" transform="translate(965 0)"/>
     <use xlink:href="#DejaVuSans-3d" transform="translate(1026.279297 0)"/>
     <use xlink:href="#DejaVuSans-34" transform="translate(1110.068359 0)"/>
     <use xlink:href="#DejaVuSans-2e" transform="translate(1173.691406 0)"/>
     <use xlink:href="#DejaVuSans-37" transform="translate(1205.478516 0)"/>
     <use xlink:href="#DejaVuSans-39" transform="translate(1269.101562 0)"/>
     <use xlink:href="#DejaVuSans-65" transform="translate(1332.724609 0)"/>
     <use xlink:href="#DejaVuSans-2b" transform="translate(1394.248047 0)"/>
     <use xlink:href="#DejaVuSans-30" transform="translate(1478.037109 0)"/>
     <use xlink:href="#DejaVuSans-34" transform="translate(1541.660156 0)"/>
    </g>
    <!-- (81.39% of total) -->
    <g style="fill: #ff0000" transform="translate(640.552791 334.321997) scale(0.1 -0.1)">
     <defs>
      <path id="DejaVuSans-38" d="M 2034 2216 
Q 1584 2216 1326 1975 
Q 1069 1734 1069 1313 
Q 1069 891 1326 650 
Q 1584 409 2034 409 
Q 2484 409 2743 651 
Q 3003 894 3003 1313 
Q 3003 1734 2745 1975 
Q 2488 2216 2034 2216 
z
M 1403 2484 
Q 997 2584 770 2862 
Q 544 3141 544 3541 
Q 544 4100 942 4425 
Q 1341 4750 2034 4750 
Q 2731 4750 3128 4425 
Q 3525 4100 3525 3541 
Q 3525 3141 3298 2862 
Q 3072 2584 2669 2484 
Q 3125 2378 3379 2068 
Q 3634 1759 3634 1313 
Q 3634 634 3220 271 
Q 2806 -91 2034 -91 
Q 1263 -91 848 271 
Q 434 634 434 1313 
Q 434 1759 690 2068 
Q 947 2378 1403 2484 
z
M 1172 3481 
Q 1172 3119 1398 2916 
Q 1625 2713 2034 2713 
Q 2441 2713 2670 2916 
Q 2900 3119 2900 3481 
Q 2900 3844 2670 4047 
Q 2441 4250 2034 4250 
Q 1625 4250 1398 4047 
Q 1172 3844 1172 3481 
z
" transform="scale(0.015625)"/>
      <path id="DejaVuSans-25" d="M 4653 2053 
Q 4381 2053 4226 1822 
Q 4072 1591 4072 1178 
Q 4072 772 4226 539 
Q 4381 306 4653 306 
Q 4919 306 5073 539 
Q 5228 772 5228 1178 
Q 5228 1588 5073 1820 
Q 4919 2053 4653 2053 
z
M 4653 2450 
Q 5147 2450 5437 2106 
Q 5728 1763 5728 1178 
Q 5728 594 5436 251 
Q 5144 -91 4653 -91 
Q 4153 -91 3862 251 
Q 3572 594 3572 1178 
Q 3572 1766 3864 2108 
Q 4156 2450 4653 2450 
z
M 1428 4353 
Q 1159 4353 1004 4120 
Q 850 3888 850 3481 
Q 850 3069 1003 2837 
Q 1156 2606 1428 2606 
Q 1700 2606 1854 2837 
Q 2009 3069 2009 3481 
Q 2009 3884 1853 4118 
Q 1697 4353 1428 4353 
z
M 4250 4750 
L 4750 4750 
L 1831 -91 
L 1331 -91 
L 4250 4750 
z
M 1428 4750 
Q 1922 4750 2215 4408 
Q 2509 4066 2509 3481 
Q 2509 2891 2217 2550 
Q 1925 2209 1428 2209 
Q 931 2209 642 2551 
Q 353 2894 353 3481 
Q 353 4063 643 4406 
Q 934 4750 1428 4750 
z
" transform="scale(0.015625)"/>
      <path id="DejaVuSans-66" d="M 2375 4863 
L 2375 4384 
L 1825 4384 
Q 1516 4384 1395 4259 
Q 1275 4134 1275 3809 
L 1275 3500 
L 2222 3500 
L 2222 3053 
L 1275 3053 
L 1275 0 
L 697 0 
L 697 3053 
L 147 3053 
L 147 3500 
L 697 3500 
L 697 3744 
Q 697 4328 969 4595 
Q 1241 4863 1831 4863 
L 2375 4863 
z
" transform="scale(0.015625)"/>
     </defs>
     <use xlink:href="#DejaVuSans-28"/>
     <use xlink:href="#DejaVuSans-38" transform="translate(39.013672 0)"/>
     <use xlink:href="#DejaVuSans-31" transform="translate(102.636719 0)"/>
     <use xlink:href="#DejaVuSans-2e" transform="translate(166.259766 0)"/>
     <use xlink:href="#DejaVuSans-33" transform="translate(198.046875 0)"/>
     <use xlink:href="#DejaVuSans-39" transform="translate(261.669922 0)"/>
     <use xlink:href="#DejaVuSans-25" transform="translate(325.292969 0)"/>
     <use xlink:href="#DejaVuSans-20" transform="translate(420.3125 0)"/>
     <use xlink:href="#DejaVuSans-6f" transform="translate(452.099609 0)"/>
     <use xlink:href="#DejaVuSans-66" transform="translate(513.28125 0)"/>
     <use xlink:href="#DejaVuSans-20" transform="translate(548.486328 0)"/>
     <use xlink:href="#DejaVuSans-74" transform="translate(580.273438 0)"/>
     <use xlink:href="#DejaVuSans-6f" transform="translate(619.482422 0)"/>
     <use xlink:href="#DejaVuSans-74" transform="translate(680.664062 0)"/>
     <use xlink:href="#DejaVuSans-61" transform="translate(719.873047 0)"/>
     <use xlink:href="#DejaVuSans-6c" transform="translate(781.152344 0)"/>
     <use xlink:href="#DejaVuSans-29" transform="translate(808.935547 0)"/>
    </g>
   </g>
   <g id="text_16">
    <!-- UV &amp; MS Chromatograms: IrCp2A11, target m/z=789.2190283 -->
    <g transform="translate(262.3075 20.88) scale(0.12 -0.12)">
     <defs>
      <path id="DejaVuSans-55" d="M 556 4666 
L 1191 4666 
L 1191 1831 
Q 1191 1081 1462 751 
Q 1734 422 2344 422 
Q 2950 422 3222 751 
Q 3494 1081 3494 1831 
L 3494 4666 
L 4128 4666 
L 4128 1753 
Q 4128 841 3676 375 
Q 3225 -91 2344 -91 
Q 1459 -91 1007 375 
Q 556 841 556 1753 
L 556 4666 
z
" transform="scale(0.015625)"/>
      <path id="DejaVuSans-56" d="M 1831 0 
L 50 4666 
L 709 4666 
L 2188 738 
L 3669 4666 
L 4325 4666 
L 2547 0 
L 1831 0 
z
" transform="scale(0.015625)"/>
      <path id="DejaVuSans-26" d="M 1556 2509 
Q 1272 2256 1139 2004 
Q 1006 1753 1006 1478 
Q 1006 1022 1337 719 
Q 1669 416 2169 416 
Q 2466 416 2725 514 
Q 2984 613 3213 813 
L 1556 2509 
z
M 1997 2859 
L 3584 1234 
Q 3769 1513 3872 1830 
Q 3975 2147 3994 2503 
L 4575 2503 
Q 4538 2091 4375 1687 
Q 4213 1284 3922 891 
L 4794 0 
L 4006 0 
L 3559 459 
Q 3234 181 2878 45 
Q 2522 -91 2113 -91 
Q 1359 -91 881 339 
Q 403 769 403 1441 
Q 403 1841 612 2192 
Q 822 2544 1241 2853 
Q 1091 3050 1012 3245 
Q 934 3441 934 3628 
Q 934 4134 1281 4442 
Q 1628 4750 2203 4750 
Q 2463 4750 2720 4694 
Q 2978 4638 3244 4525 
L 3244 3956 
Q 2972 4103 2725 4179 
Q 2478 4256 2266 4256 
Q 1938 4256 1733 4082 
Q 1528 3909 1528 3634 
Q 1528 3475 1620 3314 
Q 1713 3153 1997 2859 
z
" transform="scale(0.015625)"/>
      <path id="DejaVuSans-4d" d="M 628 4666 
L 1569 4666 
L 2759 1491 
L 3956 4666 
L 4897 4666 
L 4897 0 
L 4281 0 
L 4281 4097 
L 3078 897 
L 2444 897 
L 1241 4097 
L 1241 0 
L 628 0 
L 628 4666 
z
" transform="scale(0.015625)"/>
      <path id="DejaVuSans-53" d="M 3425 4513 
L 3425 3897 
Q 3066 4069 2747 4153 
Q 2428 4238 2131 4238 
Q 1616 4238 1336 4038 
Q 1056 3838 1056 3469 
Q 1056 3159 1242 3001 
Q 1428 2844 1947 2747 
L 2328 2669 
Q 3034 2534 3370 2195 
Q 3706 1856 3706 1288 
Q 3706 609 3251 259 
Q 2797 -91 1919 -91 
Q 1588 -91 1214 -16 
Q 841 59 441 206 
L 441 856 
Q 825 641 1194 531 
Q 1563 422 1919 422 
Q 2459 422 2753 634 
Q 3047 847 3047 1241 
Q 3047 1584 2836 1778 
Q 2625 1972 2144 2069 
L 1759 2144 
Q 1053 2284 737 2584 
Q 422 2884 422 3419 
Q 422 4038 858 4394 
Q 1294 4750 2059 4750 
Q 2388 4750 2728 4690 
Q 3069 4631 3425 4513 
z
" transform="scale(0.015625)"/>
      <path id="DejaVuSans-43" d="M 4122 4306 
L 4122 3641 
Q 3803 3938 3442 4084 
Q 3081 4231 2675 4231 
Q 1875 4231 1450 3742 
Q 1025 3253 1025 2328 
Q 1025 1406 1450 917 
Q 1875 428 2675 428 
Q 3081 428 3442 575 
Q 3803 722 4122 1019 
L 4122 359 
Q 3791 134 3420 21 
Q 3050 -91 2638 -91 
Q 1578 -91 968 557 
Q 359 1206 359 2328 
Q 359 3453 968 4101 
Q 1578 4750 2638 4750 
Q 3056 4750 3426 4639 
Q 3797 4528 4122 4306 
z
" transform="scale(0.015625)"/>
      <path id="DejaVuSans-68" d="M 3513 2113 
L 3513 0 
L 2938 0 
L 2938 2094 
Q 2938 2591 2744 2837 
Q 2550 3084 2163 3084 
Q 1697 3084 1428 2787 
Q 1159 2491 1159 1978 
L 1159 0 
L 581 0 
L 581 4863 
L 1159 4863 
L 1159 2956 
Q 1366 3272 1645 3428 
Q 1925 3584 2291 3584 
Q 2894 3584 3203 3211 
Q 3513 2838 3513 2113 
z
" transform="scale(0.015625)"/>
      <path id="DejaVuSans-67" d="M 2906 1791 
Q 2906 2416 2648 2759 
Q 2391 3103 1925 3103 
Q 1463 3103 1205 2759 
Q 947 2416 947 1791 
Q 947 1169 1205 825 
Q 1463 481 1925 481 
Q 2391 481 2648 825 
Q 2906 1169 2906 1791 
z
M 3481 434 
Q 3481 -459 3084 -895 
Q 2688 -1331 1869 -1331 
Q 1566 -1331 1297 -1286 
Q 1028 -1241 775 -1147 
L 775 -588 
Q 1028 -725 1275 -790 
Q 1522 -856 1778 -856 
Q 2344 -856 2625 -561 
Q 2906 -266 2906 331 
L 2906 616 
Q 2728 306 2450 153 
Q 2172 0 1784 0 
Q 1141 0 747 490 
Q 353 981 353 1791 
Q 353 2603 747 3093 
Q 1141 3584 1784 3584 
Q 2172 3584 2450 3431 
Q 2728 3278 2906 2969 
L 2906 3500 
L 3481 3500 
L 3481 434 
z
" transform="scale(0.015625)"/>
      <path id="DejaVuSans-70" d="M 1159 525 
L 1159 -1331 
L 581 -1331 
L 581 3500 
L 1159 3500 
L 1159 2969 
Q 1341 3281 1617 3432 
Q 1894 3584 2278 3584 
Q 2916 3584 3314 3078 
Q 3713 2572 3713 1747 
Q 3713 922 3314 415 
Q 2916 -91 2278 -91 
Q 1894 -91 1617 61 
Q 1341 213 1159 525 
z
M 3116 1747 
Q 3116 2381 2855 2742 
Q 2594 3103 2138 3103 
Q 1681 3103 1420 2742 
Q 1159 2381 1159 1747 
Q 1159 1113 1420 752 
Q 1681 391 2138 391 
Q 2594 391 2855 752 
Q 3116 1113 3116 1747 
z
" transform="scale(0.015625)"/>
      <path id="DejaVuSans-2f" d="M 1625 4666 
L 2156 4666 
L 531 -594 
L 0 -594 
L 1625 4666 
z
" transform="scale(0.015625)"/>
     </defs>
     <use xlink:href="#DejaVuSans-55"/>
     <use xlink:href="#DejaVuSans-56" transform="translate(73.193359 0)"/>
     <use xlink:href="#DejaVuSans-20" transform="translate(141.601562 0)"/>
     <use xlink:href="#DejaVuSans-26" transform="translate(173.388672 0)"/>
     <use xlink:href="#DejaVuSans-20" transform="translate(251.367188 0)"/>
     <use xlink:href="#DejaVuSans-4d" transform="translate(283.154297 0)"/>
     <use xlink:href="#DejaVuSans-53" transform="translate(369.433594 0)"/>
     <use xlink:href="#DejaVuSans-20" transform="translate(432.910156 0)"/>
     <use xlink:href="#DejaVuSans-43" transform="translate(464.697266 0)"/>
     <use xlink:href="#DejaVuSans-68" transform="translate(534.521484 0)"/>
     <use xlink:href="#DejaVuSans-72" transform="translate(597.900391 0)"/>
     <use xlink:href="#DejaVuSans-6f" transform="translate(636.763672 0)"/>
     <use xlink:href="#DejaVuSans-6d" transform="translate(697.945312 0)"/>
     <use xlink:href="#DejaVuSans-61" transform="translate(795.357422 0)"/>
     <use xlink:href="#DejaVuSans-74" transform="translate(856.636719 0)"/>
     <use xlink:href="#DejaVuSans-6f" transform="translate(895.845703 0)"/>
     <use xlink:href="#DejaVuSans-67" transform="translate(957.027344 0)"/>
     <use xlink:href="#DejaVuSans-72" transform="translate(1020.503906 0)"/>
     <use xlink:href="#DejaVuSans-61" transform="translate(1061.617188 0)"/>
     <use xlink:href="#DejaVuSans-6d" transform="translate(1122.896484 0)"/>
     <use xlink:href="#DejaVuSans-73" transform="translate(1220.308594 0)"/>
     <use xlink:href="#DejaVuSans-3a" transform="translate(1272.408203 0)"/>
     <use xlink:href="#DejaVuSans-20" transform="translate(1306.099609 0)"/>
     <use xlink:href="#DejaVuSans-49" transform="translate(1337.886719 0)"/>
     <use xlink:href="#DejaVuSans-72" transform="translate(1367.378906 0)"/>
     <use xlink:href="#DejaVuSans-43" transform="translate(1408.492188 0)"/>
     <use xlink:href="#DejaVuSans-70" transform="translate(1478.316406 0)"/>
     <use xlink:href="#DejaVuSans-32" transform="translate(1541.792969 0)"/>
     <use xlink:href="#DejaVuSans-41" transform="translate(1605.416016 0)"/>
     <use xlink:href="#DejaVuSans-31" transform="translate(1673.824219 0)"/>
     <use xlink:href="#DejaVuSans-31" transform="translate(1737.447266 0)"/>
     <use xlink:href="#DejaVuSans-2c" transform="translate(1801.070312 0)"/>
     <use xlink:href="#DejaVuSans-20" transform="translate(1832.857422 0)"/>
     <use xlink:href="#DejaVuSans-74" transform="translate(1864.644531 0)"/>
     <use xlink:href="#DejaVuSans-61" transform="translate(1903.853516 0)"/>
     <use xlink:href="#DejaVuSans-72" transform="translate(1965.132812 0)"/>
     <use xlink:href="#DejaVuSans-67" transform="translate(2004.496094 0)"/>
     <use xlink:href="#DejaVuSans-65" transform="translate(2067.972656 0)"/>
     <use xlink:href="#DejaVuSans-74" transform="translate(2129.496094 0)"/>
     <use xlink:href="#DejaVuSans-20" transform="translate(2168.705078 0)"/>
     <use xlink:href="#DejaVuSans-6d" transform="translate(2200.492188 0)"/>
     <use xlink:href="#DejaVuSans-2f" transform="translate(2297.904297 0)"/>
     <use xlink:href="#DejaVuSans-7a" transform="translate(2331.595703 0)"/>
     <use xlink:href="#DejaVuSans-3d" transform="translate(2384.085938 0)"/>
     <use xlink:href="#DejaVuSans-37" transform="translate(2467.875 0)"/>
     <use xlink:href="#DejaVuSans-38" transform="translate(2531.498047 0)"/>
     <use xlink:href="#DejaVuSans-39" transform="translate(2595.121094 0)"/>
     <use xlink:href="#DejaVuSans-2e" transform="translate(2658.744141 0)"/>
     <use xlink:href="#DejaVuSans-32" transform="translate(2690.53125 0)"/>
     <use xlink:href="#DejaVuSans-31" transform="translate(2754.154297 0)"/>
     <use xlink:href="#DejaVuSans-39" transform="translate(2817.777344 0)"/>
     <use xlink:href="#DejaVuSans-30" transform="translate(2881.400391 0)"/>
     <use xlink:href="#DejaVuSans-32" transform="translate(2945.023438 0)"/>
     <use xlink:href="#DejaVuSans-38" transform="translate(3008.646484 0)"/>
     <use xlink:href="#DejaVuSans-33" transform="translate(3072.269531 0)"/>
    </g>
   </g>
   <g id="legend_1">
    <g id="patch_8">
     <path d="M 685.971875 64.23625 
L 846.2 64.23625 
Q 848.2 64.23625 848.2 62.23625 
L 848.2 33.88 
Q 848.2 31.88 846.2 31.88 
L 685.971875 31.88 
Q 683.971875 31.88 683.971875 33.88 
L 683.971875 62.23625 
Q 683.971875 64.23625 685.971875 64.23625 
z
" style="fill: #ffffff; opacity: 0.8; stroke: #cccccc; stroke-linejoin: miter"/>
    </g>
    <g id="line2d_15">
     <path d="M 687.971875 39.978437 
L 697.971875 39.978437 
L 707.971875 39.978437 
" style="fill: none; stroke: #0000ff; stroke-width: 1.5; stroke-linecap: square"/>
    </g>
    <g id="text_17">
     <!-- UV Intensity (normalized) -->
     <g transform="translate(715.971875 43.478437) scale(0.1 -0.1)">
      <use xlink:href="#DejaVuSans-55"/>
      <use xlink:href="#DejaVuSans-56" transform="translate(73.193359 0)"/>
      <use xlink:href="#DejaVuSans-20" transform="translate(141.601562 0)"/>
      <use xlink:href="#DejaVuSans-49" transform="translate(173.388672 0)"/>
      <use xlink:href="#DejaVuSans-6e" transform="translate(202.880859 0)"/>
      <use xlink:href="#DejaVuSans-74" transform="translate(266.259766 0)"/>
      <use xlink:href="#DejaVuSans-65" transform="translate(305.46875 0)"/>
      <use xlink:href="#DejaVuSans-6e" transform="translate(366.992188 0)"/>
      <use xlink:href="#DejaVuSans-73" transform="translate(430.371094 0)"/>
      <use xlink:href="#DejaVuSans-69" transform="translate(482.470703 0)"/>
      <use xlink:href="#DejaVuSans-74" transform="translate(510.253906 0)"/>
      <use xlink:href="#DejaVuSans-79" transform="translate(549.462891 0)"/>
      <use xlink:href="#DejaVuSans-20" transform="translate(608.642578 0)"/>
      <use xlink:href="#DejaVuSans-28" transform="translate(640.429688 0)"/>
      <use xlink:href="#DejaVuSans-6e" transform="translate(679.443359 0)"/>
      <use xlink:href="#DejaVuSans-6f" transform="translate(742.822266 0)"/>
      <use xlink:href="#DejaVuSans-72" transform="translate(804.003906 0)"/>
      <use xlink:href="#DejaVuSans-6d" transform="translate(843.367188 0)"/>
      <use xlink:href="#DejaVuSans-61" transform="translate(940.779297 0)"/>
      <use xlink:href="#DejaVuSans-6c" transform="translate(1002.058594 0)"/>
      <use xlink:href="#DejaVuSans-69" transform="translate(1029.841797 0)"/>
      <use xlink:href="#DejaVuSans-7a" transform="translate(1057.625 0)"/>
      <use xlink:href="#DejaVuSans-65" transform="translate(1110.115234 0)"/>
      <use xlink:href="#DejaVuSans-64" transform="translate(1171.638672 0)"/>
      <use xlink:href="#DejaVuSans-29" transform="translate(1235.115234 0)"/>
     </g>
    </g>
    <g id="line2d_16">
     <path d="M 687.971875 54.656562 
L 697.971875 54.656562 
L 707.971875 54.656562 
" style="fill: none; stroke: #008000; stroke-width: 1.5; stroke-linecap: square"/>
    </g>
    <g id="text_18">
     <!-- MS Intensity (normalized) -->
     <g transform="translate(715.971875 58.156562) scale(0.1 -0.1)">
      <use xlink:href="#DejaVuSans-4d"/>
      <use xlink:href="#DejaVuSans-53" transform="translate(86.279297 0)"/>
      <use xlink:href="#DejaVuSans-20" transform="translate(149.755859 0)"/>
      <use xlink:href="#DejaVuSans-49" transform="translate(181.542969 0)"/>
      <use xlink:href="#DejaVuSans-6e" transform="translate(211.035156 0)"/>
      <use xlink:href="#DejaVuSans-74" transform="translate(274.414062 0)"/>
      <use xlink:href="#DejaVuSans-65" transform="translate(313.623047 0)"/>
      <use xlink:href="#DejaVuSans-6e" transform="translate(375.146484 0)"/>
      <use xlink:href="#DejaVuSans-73" transform="translate(438.525391 0)"/>
      <use xlink:href="#DejaVuSans-69" transform="translate(490.625 0)"/>
      <use xlink:href="#DejaVuSans-74" transform="translate(518.408203 0)"/>
      <use xlink:href="#DejaVuSans-79" transform="translate(557.617188 0)"/>
      <use xlink:href="#DejaVuSans-20" transform="translate(616.796875 0)"/>
      <use xlink:href="#DejaVuSans-28" transform="translate(648.583984 0)"/>
      <use xlink:href="#DejaVuSans-6e" transform="translate(687.597656 0)"/>
      <use xlink:href="#DejaVuSans-6f" transform="translate(750.976562 0)"/>
      <use xlink:href="#DejaVuSans-72" transform="translate(812.158203 0)"/>
      <use xlink:href="#DejaVuSans-6d" transform="translate(851.521484 0)"/>
      <use xlink:href="#DejaVuSans-61" transform="translate(948.933594 0)"/>
      <use xlink:href="#DejaVuSans-6c" transform="translate(1010.212891 0)"/>
      <use xlink:href="#DejaVuSans-69" transform="translate(1037.996094 0)"/>
      <use xlink:href="#DejaVuSans-7a" transform="translate(1065.779297 0)"/>
      <use xlink:href="#DejaVuSans-65" transform="translate(1118.269531 0)"/>
      <use xlink:href="#DejaVuSans-64" transform="translate(1179.792969 0)"/>
      <use xlink:href="#DejaVuSans-29" transform="translate(1243.269531 0)"/>
     </g>
    </g>
   </g>
  </g>
 </g>
 <defs>
  <clipPath id="pfc16016cd9">
   <rect x="47.72" y="26.88" width="805.48" height="507.16"/>
  </clipPath>
 </defs>
</svg>
