<?xml version="1.0" encoding="utf-8" standalone="no"?>
<!DOCTYPE svg PUBLIC "-//W3C//DTD SVG 1.1//EN"
  "http://www.w3.org/Graphics/SVG/1.1/DTD/svg11.dtd">
<svg xmlns:xlink="http://www.w3.org/1999/xlink" width="864pt" height="576pt" viewBox="0 0 864 576" xmlns="http://www.w3.org/2000/svg" version="1.1">
 <metadata>
  <rdf:RDF xmlns:dc="http://purl.org/dc/elements/1.1/" xmlns:cc="http://creativecommons.org/ns#" xmlns:rdf="http://www.w3.org/1999/02/22-rdf-syntax-ns#">
   <cc:Work>
    <dc:type rdf:resource="http://purl.org/dc/dcmitype/StillImage"/>
    <dc:date>2025-02-07T17:15:57.944326</dc:date>
    <dc:format>image/svg+xml</dc:format>
    <dc:creator>
     <cc:Agent>
      <dc:title>Matplotlib v3.10.0, https://matplotlib.org/</dc:title>
     </cc:Agent>
    </dc:creator>
   </cc:Work>
  </rdf:RDF>
 </metadata>
 <defs>
  <style type="text/css">*{stroke-linejoin: round; stroke-linecap: butt}</style>
 </defs>
 <g id="figure_1">
  <g id="patch_1">
   <path d="M 0 576 
L 864 576 
L 864 0 
L 0 0 
z
" style="fill: #ffffff"/>
  </g>
  <g id="axes_1">
   <g id="patch_2">
    <path d="M 47.72 534.04 
L 853.2 534.04 
L 853.2 26.88 
L 47.72 26.88 
z
" style="fill: #ffffff"/>
   </g>
   <g id="matplotlib.axis_1">
    <g id="xtick_1">
     <g id="line2d_1">
      <defs>
       <path id="m7d30f60deb" d="M 0 0 
L 0 3.5 
" style="stroke: #000000; stroke-width: 0.8"/>
      </defs>
      <g>
       <use xlink:href="#m7d30f60deb" x="83.100486" y="534.04" style="stroke: #000000; stroke-width: 0.8"/>
      </g>
     </g>
     <g id="text_1">
      <!-- 0 -->
      <g transform="translate(79.919236 548.638438) scale(0.1 -0.1)">
       <defs>
        <path id="DejaVuSans-30" d="M 2034 4250 
Q 1547 4250 1301 3770 
Q 1056 3291 1056 2328 
Q 1056 1369 1301 889 
Q 1547 409 2034 409 
Q 2525 409 2770 889 
Q 3016 1369 3016 2328 
Q 3016 3291 2770 3770 
Q 2525 4250 2034 4250 
z
M 2034 4750 
Q 2819 4750 3233 4129 
Q 3647 3509 3647 2328 
Q 3647 1150 3233 529 
Q 2819 -91 2034 -91 
Q 1250 -91 836 529 
Q 422 1150 422 2328 
Q 422 3509 836 4129 
Q 1250 4750 2034 4750 
z
" transform="scale(0.015625)"/>
       </defs>
       <use xlink:href="#DejaVuSans-30"/>
      </g>
     </g>
    </g>
    <g id="xtick_2">
     <g id="line2d_2">
      <g>
       <use xlink:href="#m7d30f60deb" x="229.795887" y="534.04" style="stroke: #000000; stroke-width: 0.8"/>
      </g>
     </g>
     <g id="text_2">
      <!-- 1 -->
      <g transform="translate(226.614637 548.638438) scale(0.1 -0.1)">
       <defs>
        <path id="DejaVuSans-31" d="M 794 531 
L 1825 531 
L 1825 4091 
L 703 3866 
L 703 4441 
L 1819 4666 
L 2450 4666 
L 2450 531 
L 3481 531 
L 3481 0 
L 794 0 
L 794 531 
z
" transform="scale(0.015625)"/>
       </defs>
       <use xlink:href="#DejaVuSans-31"/>
      </g>
     </g>
    </g>
    <g id="xtick_3">
     <g id="line2d_3">
      <g>
       <use xlink:href="#m7d30f60deb" x="376.491289" y="534.04" style="stroke: #000000; stroke-width: 0.8"/>
      </g>
     </g>
     <g id="text_3">
      <!-- 2 -->
      <g transform="translate(373.310039 548.638438) scale(0.1 -0.1)">
       <defs>
        <path id="DejaVuSans-32" d="M 1228 531 
L 3431 531 
L 3431 0 
L 469 0 
L 469 531 
Q 828 903 1448 1529 
Q 2069 2156 2228 2338 
Q 2531 2678 2651 2914 
Q 2772 3150 2772 3378 
Q 2772 3750 2511 3984 
Q 2250 4219 1831 4219 
Q 1534 4219 1204 4116 
Q 875 4013 500 3803 
L 500 4441 
Q 881 4594 1212 4672 
Q 1544 4750 1819 4750 
Q 2544 4750 2975 4387 
Q 3406 4025 3406 3419 
Q 3406 3131 3298 2873 
Q 3191 2616 2906 2266 
Q 2828 2175 2409 1742 
Q 1991 1309 1228 531 
z
" transform="scale(0.015625)"/>
       </defs>
       <use xlink:href="#DejaVuSans-32"/>
      </g>
     </g>
    </g>
    <g id="xtick_4">
     <g id="line2d_4">
      <g>
       <use xlink:href="#m7d30f60deb" x="523.18669" y="534.04" style="stroke: #000000; stroke-width: 0.8"/>
      </g>
     </g>
     <g id="text_4">
      <!-- 3 -->
      <g transform="translate(520.00544 548.638438) scale(0.1 -0.1)">
       <defs>
        <path id="DejaVuSans-33" d="M 2597 2516 
Q 3050 2419 3304 2112 
Q 3559 1806 3559 1356 
Q 3559 666 3084 287 
Q 2609 -91 1734 -91 
Q 1441 -91 1130 -33 
Q 819 25 488 141 
L 488 750 
Q 750 597 1062 519 
Q 1375 441 1716 441 
Q 2309 441 2620 675 
Q 2931 909 2931 1356 
Q 2931 1769 2642 2001 
Q 2353 2234 1838 2234 
L 1294 2234 
L 1294 2753 
L 1863 2753 
Q 2328 2753 2575 2939 
Q 2822 3125 2822 3475 
Q 2822 3834 2567 4026 
Q 2313 4219 1838 4219 
Q 1578 4219 1281 4162 
Q 984 4106 628 3988 
L 628 4550 
Q 988 4650 1302 4700 
Q 1616 4750 1894 4750 
Q 2613 4750 3031 4423 
Q 3450 4097 3450 3541 
Q 3450 3153 3228 2886 
Q 3006 2619 2597 2516 
z
" transform="scale(0.015625)"/>
       </defs>
       <use xlink:href="#DejaVuSans-33"/>
      </g>
     </g>
    </g>
    <g id="xtick_5">
     <g id="line2d_5">
      <g>
       <use xlink:href="#m7d30f60deb" x="669.882092" y="534.04" style="stroke: #000000; stroke-width: 0.8"/>
      </g>
     </g>
     <g id="text_5">
      <!-- 4 -->
      <g transform="translate(666.700842 548.638438) scale(0.1 -0.1)">
       <defs>
        <path id="DejaVuSans-34" d="M 2419 4116 
L 825 1625 
L 2419 1625 
L 2419 4116 
z
M 2253 4666 
L 3047 4666 
L 3047 1625 
L 3713 1625 
L 3713 1100 
L 3047 1100 
L 3047 0 
L 2419 0 
L 2419 1100 
L 313 1100 
L 313 1709 
L 2253 4666 
z
" transform="scale(0.015625)"/>
       </defs>
       <use xlink:href="#DejaVuSans-34"/>
      </g>
     </g>
    </g>
    <g id="xtick_6">
     <g id="line2d_6">
      <g>
       <use xlink:href="#m7d30f60deb" x="816.577493" y="534.04" style="stroke: #000000; stroke-width: 0.8"/>
      </g>
     </g>
     <g id="text_6">
      <!-- 5 -->
      <g transform="translate(813.396243 548.638438) scale(0.1 -0.1)">
       <defs>
        <path id="DejaVuSans-35" d="M 691 4666 
L 3169 4666 
L 3169 4134 
L 1269 4134 
L 1269 2991 
Q 1406 3038 1543 3061 
Q 1681 3084 1819 3084 
Q 2600 3084 3056 2656 
Q 3513 2228 3513 1497 
Q 3513 744 3044 326 
Q 2575 -91 1722 -91 
Q 1428 -91 1123 -41 
Q 819 9 494 109 
L 494 744 
Q 775 591 1075 516 
Q 1375 441 1709 441 
Q 2250 441 2565 725 
Q 2881 1009 2881 1497 
Q 2881 1984 2565 2268 
Q 2250 2553 1709 2553 
Q 1456 2553 1204 2497 
Q 953 2441 691 2322 
L 691 4666 
z
" transform="scale(0.015625)"/>
       </defs>
       <use xlink:href="#DejaVuSans-35"/>
      </g>
     </g>
    </g>
    <g id="text_7">
     <!-- Retention Time (min) -->
     <g transform="translate(397.61 562.316562) scale(0.1 -0.1)">
      <defs>
       <path id="DejaVuSans-52" d="M 2841 2188 
Q 3044 2119 3236 1894 
Q 3428 1669 3622 1275 
L 4263 0 
L 3584 0 
L 2988 1197 
Q 2756 1666 2539 1819 
Q 2322 1972 1947 1972 
L 1259 1972 
L 1259 0 
L 628 0 
L 628 4666 
L 2053 4666 
Q 2853 4666 3247 4331 
Q 3641 3997 3641 3322 
Q 3641 2881 3436 2590 
Q 3231 2300 2841 2188 
z
M 1259 4147 
L 1259 2491 
L 2053 2491 
Q 2509 2491 2742 2702 
Q 2975 2913 2975 3322 
Q 2975 3731 2742 3939 
Q 2509 4147 2053 4147 
L 1259 4147 
z
" transform="scale(0.015625)"/>
       <path id="DejaVuSans-65" d="M 3597 1894 
L 3597 1613 
L 953 1613 
Q 991 1019 1311 708 
Q 1631 397 2203 397 
Q 2534 397 2845 478 
Q 3156 559 3463 722 
L 3463 178 
Q 3153 47 2828 -22 
Q 2503 -91 2169 -91 
Q 1331 -91 842 396 
Q 353 884 353 1716 
Q 353 2575 817 3079 
Q 1281 3584 2069 3584 
Q 2775 3584 3186 3129 
Q 3597 2675 3597 1894 
z
M 3022 2063 
Q 3016 2534 2758 2815 
Q 2500 3097 2075 3097 
Q 1594 3097 1305 2825 
Q 1016 2553 972 2059 
L 3022 2063 
z
" transform="scale(0.015625)"/>
       <path id="DejaVuSans-74" d="M 1172 4494 
L 1172 3500 
L 2356 3500 
L 2356 3053 
L 1172 3053 
L 1172 1153 
Q 1172 725 1289 603 
Q 1406 481 1766 481 
L 2356 481 
L 2356 0 
L 1766 0 
Q 1100 0 847 248 
Q 594 497 594 1153 
L 594 3053 
L 172 3053 
L 172 3500 
L 594 3500 
L 594 4494 
L 1172 4494 
z
" transform="scale(0.015625)"/>
       <path id="DejaVuSans-6e" d="M 3513 2113 
L 3513 0 
L 2938 0 
L 2938 2094 
Q 2938 2591 2744 2837 
Q 2550 3084 2163 3084 
Q 1697 3084 1428 2787 
Q 1159 2491 1159 1978 
L 1159 0 
L 581 0 
L 581 3500 
L 1159 3500 
L 1159 2956 
Q 1366 3272 1645 3428 
Q 1925 3584 2291 3584 
Q 2894 3584 3203 3211 
Q 3513 2838 3513 2113 
z
" transform="scale(0.015625)"/>
       <path id="DejaVuSans-69" d="M 603 3500 
L 1178 3500 
L 1178 0 
L 603 0 
L 603 3500 
z
M 603 4863 
L 1178 4863 
L 1178 4134 
L 603 4134 
L 603 4863 
z
" transform="scale(0.015625)"/>
       <path id="DejaVuSans-6f" d="M 1959 3097 
Q 1497 3097 1228 2736 
Q 959 2375 959 1747 
Q 959 1119 1226 758 
Q 1494 397 1959 397 
Q 2419 397 2687 759 
Q 2956 1122 2956 1747 
Q 2956 2369 2687 2733 
Q 2419 3097 1959 3097 
z
M 1959 3584 
Q 2709 3584 3137 3096 
Q 3566 2609 3566 1747 
Q 3566 888 3137 398 
Q 2709 -91 1959 -91 
Q 1206 -91 779 398 
Q 353 888 353 1747 
Q 353 2609 779 3096 
Q 1206 3584 1959 3584 
z
" transform="scale(0.015625)"/>
       <path id="DejaVuSans-20" transform="scale(0.015625)"/>
       <path id="DejaVuSans-54" d="M -19 4666 
L 3928 4666 
L 3928 4134 
L 2272 4134 
L 2272 0 
L 1638 0 
L 1638 4134 
L -19 4134 
L -19 4666 
z
" transform="scale(0.015625)"/>
       <path id="DejaVuSans-6d" d="M 3328 2828 
Q 3544 3216 3844 3400 
Q 4144 3584 4550 3584 
Q 5097 3584 5394 3201 
Q 5691 2819 5691 2113 
L 5691 0 
L 5113 0 
L 5113 2094 
Q 5113 2597 4934 2840 
Q 4756 3084 4391 3084 
Q 3944 3084 3684 2787 
Q 3425 2491 3425 1978 
L 3425 0 
L 2847 0 
L 2847 2094 
Q 2847 2600 2669 2842 
Q 2491 3084 2119 3084 
Q 1678 3084 1418 2786 
Q 1159 2488 1159 1978 
L 1159 0 
L 581 0 
L 581 3500 
L 1159 3500 
L 1159 2956 
Q 1356 3278 1631 3431 
Q 1906 3584 2284 3584 
Q 2666 3584 2933 3390 
Q 3200 3197 3328 2828 
z
" transform="scale(0.015625)"/>
       <path id="DejaVuSans-28" d="M 1984 4856 
Q 1566 4138 1362 3434 
Q 1159 2731 1159 2009 
Q 1159 1288 1364 580 
Q 1569 -128 1984 -844 
L 1484 -844 
Q 1016 -109 783 600 
Q 550 1309 550 2009 
Q 550 2706 781 3412 
Q 1013 4119 1484 4856 
L 1984 4856 
z
" transform="scale(0.015625)"/>
       <path id="DejaVuSans-29" d="M 513 4856 
L 1013 4856 
Q 1481 4119 1714 3412 
Q 1947 2706 1947 2009 
Q 1947 1309 1714 600 
Q 1481 -109 1013 -844 
L 513 -844 
Q 928 -128 1133 580 
Q 1338 1288 1338 2009 
Q 1338 2731 1133 3434 
Q 928 4138 513 4856 
z
" transform="scale(0.015625)"/>
      </defs>
      <use xlink:href="#DejaVuSans-52"/>
      <use xlink:href="#DejaVuSans-65" transform="translate(64.982422 0)"/>
      <use xlink:href="#DejaVuSans-74" transform="translate(126.505859 0)"/>
      <use xlink:href="#DejaVuSans-65" transform="translate(165.714844 0)"/>
      <use xlink:href="#DejaVuSans-6e" transform="translate(227.238281 0)"/>
      <use xlink:href="#DejaVuSans-74" transform="translate(290.617188 0)"/>
      <use xlink:href="#DejaVuSans-69" transform="translate(329.826172 0)"/>
      <use xlink:href="#DejaVuSans-6f" transform="translate(357.609375 0)"/>
      <use xlink:href="#DejaVuSans-6e" transform="translate(418.791016 0)"/>
      <use xlink:href="#DejaVuSans-20" transform="translate(482.169922 0)"/>
      <use xlink:href="#DejaVuSans-54" transform="translate(513.957031 0)"/>
      <use xlink:href="#DejaVuSans-69" transform="translate(571.916016 0)"/>
      <use xlink:href="#DejaVuSans-6d" transform="translate(599.699219 0)"/>
      <use xlink:href="#DejaVuSans-65" transform="translate(697.111328 0)"/>
      <use xlink:href="#DejaVuSans-20" transform="translate(758.634766 0)"/>
      <use xlink:href="#DejaVuSans-28" transform="translate(790.421875 0)"/>
      <use xlink:href="#DejaVuSans-6d" transform="translate(829.435547 0)"/>
      <use xlink:href="#DejaVuSans-69" transform="translate(926.847656 0)"/>
      <use xlink:href="#DejaVuSans-6e" transform="translate(954.630859 0)"/>
      <use xlink:href="#DejaVuSans-29" transform="translate(1018.009766 0)"/>
     </g>
    </g>
   </g>
   <g id="matplotlib.axis_2">
    <g id="ytick_1">
     <g id="line2d_7">
      <defs>
       <path id="m716b344a9e" d="M 0 0 
L -3.5 0 
" style="stroke: #000000; stroke-width: 0.8"/>
      </defs>
      <g>
       <use xlink:href="#m716b344a9e" x="47.72" y="510.987273" style="stroke: #000000; stroke-width: 0.8"/>
      </g>
     </g>
     <g id="text_8">
      <!-- 0.0 -->
      <g style="fill: #0000ff" transform="translate(24.816875 514.786491) scale(0.1 -0.1)">
       <defs>
        <path id="DejaVuSans-2e" d="M 684 794 
L 1344 794 
L 1344 0 
L 684 0 
L 684 794 
z
" transform="scale(0.015625)"/>
       </defs>
       <use xlink:href="#DejaVuSans-30"/>
       <use xlink:href="#DejaVuSans-2e" transform="translate(63.623047 0)"/>
       <use xlink:href="#DejaVuSans-30" transform="translate(95.410156 0)"/>
      </g>
     </g>
    </g>
    <g id="ytick_2">
     <g id="line2d_8">
      <g>
       <use xlink:href="#m716b344a9e" x="47.72" y="418.776364" style="stroke: #000000; stroke-width: 0.8"/>
      </g>
     </g>
     <g id="text_9">
      <!-- 0.5 -->
      <g style="fill: #0000ff" transform="translate(24.816875 422.575582) scale(0.1 -0.1)">
       <use xlink:href="#DejaVuSans-30"/>
       <use xlink:href="#DejaVuSans-2e" transform="translate(63.623047 0)"/>
       <use xlink:href="#DejaVuSans-35" transform="translate(95.410156 0)"/>
      </g>
     </g>
    </g>
    <g id="ytick_3">
     <g id="line2d_9">
      <g>
       <use xlink:href="#m716b344a9e" x="47.72" y="326.565455" style="stroke: #000000; stroke-width: 0.8"/>
      </g>
     </g>
     <g id="text_10">
      <!-- 1.0 -->
      <g style="fill: #0000ff" transform="translate(24.816875 330.364673) scale(0.1 -0.1)">
       <use xlink:href="#DejaVuSans-31"/>
       <use xlink:href="#DejaVuSans-2e" transform="translate(63.623047 0)"/>
       <use xlink:href="#DejaVuSans-30" transform="translate(95.410156 0)"/>
      </g>
     </g>
    </g>
    <g id="ytick_4">
     <g id="line2d_10">
      <g>
       <use xlink:href="#m716b344a9e" x="47.72" y="234.354545" style="stroke: #000000; stroke-width: 0.8"/>
      </g>
     </g>
     <g id="text_11">
      <!-- 1.5 -->
      <g style="fill: #0000ff" transform="translate(24.816875 238.153764) scale(0.1 -0.1)">
       <use xlink:href="#DejaVuSans-31"/>
       <use xlink:href="#DejaVuSans-2e" transform="translate(63.623047 0)"/>
       <use xlink:href="#DejaVuSans-35" transform="translate(95.410156 0)"/>
      </g>
     </g>
    </g>
    <g id="ytick_5">
     <g id="line2d_11">
      <g>
       <use xlink:href="#m716b344a9e" x="47.72" y="142.143636" style="stroke: #000000; stroke-width: 0.8"/>
      </g>
     </g>
     <g id="text_12">
      <!-- 2.0 -->
      <g style="fill: #0000ff" transform="translate(24.816875 145.942855) scale(0.1 -0.1)">
       <use xlink:href="#DejaVuSans-32"/>
       <use xlink:href="#DejaVuSans-2e" transform="translate(63.623047 0)"/>
       <use xlink:href="#DejaVuSans-30" transform="translate(95.410156 0)"/>
      </g>
     </g>
    </g>
    <g id="ytick_6">
     <g id="line2d_12">
      <g>
       <use xlink:href="#m716b344a9e" x="47.72" y="49.932727" style="stroke: #000000; stroke-width: 0.8"/>
      </g>
     </g>
     <g id="text_13">
      <!-- 2.5 -->
      <g style="fill: #0000ff" transform="translate(24.816875 53.731946) scale(0.1 -0.1)">
       <use xlink:href="#DejaVuSans-32"/>
       <use xlink:href="#DejaVuSans-2e" transform="translate(63.623047 0)"/>
       <use xlink:href="#DejaVuSans-35" transform="translate(95.410156 0)"/>
      </g>
     </g>
    </g>
    <g id="text_14">
     <!-- Normalized Intensity -->
     <g style="fill: #0000ff" transform="translate(18.737187 332.167031) rotate(-90) scale(0.1 -0.1)">
      <defs>
       <path id="DejaVuSans-4e" d="M 628 4666 
L 1478 4666 
L 3547 763 
L 3547 4666 
L 4159 4666 
L 4159 0 
L 3309 0 
L 1241 3903 
L 1241 0 
L 628 0 
L 628 4666 
z
" transform="scale(0.015625)"/>
       <path id="DejaVuSans-72" d="M 2631 2963 
Q 2534 3019 2420 3045 
Q 2306 3072 2169 3072 
Q 1681 3072 1420 2755 
Q 1159 2438 1159 1844 
L 1159 0 
L 581 0 
L 581 3500 
L 1159 3500 
L 1159 2956 
Q 1341 3275 1631 3429 
Q 1922 3584 2338 3584 
Q 2397 3584 2469 3576 
Q 2541 3569 2628 3553 
L 2631 2963 
z
" transform="scale(0.015625)"/>
       <path id="DejaVuSans-61" d="M 2194 1759 
Q 1497 1759 1228 1600 
Q 959 1441 959 1056 
Q 959 750 1161 570 
Q 1363 391 1709 391 
Q 2188 391 2477 730 
Q 2766 1069 2766 1631 
L 2766 1759 
L 2194 1759 
z
M 3341 1997 
L 3341 0 
L 2766 0 
L 2766 531 
Q 2569 213 2275 61 
Q 1981 -91 1556 -91 
Q 1019 -91 701 211 
Q 384 513 384 1019 
Q 384 1609 779 1909 
Q 1175 2209 1959 2209 
L 2766 2209 
L 2766 2266 
Q 2766 2663 2505 2880 
Q 2244 3097 1772 3097 
Q 1472 3097 1187 3025 
Q 903 2953 641 2809 
L 641 3341 
Q 956 3463 1253 3523 
Q 1550 3584 1831 3584 
Q 2591 3584 2966 3190 
Q 3341 2797 3341 1997 
z
" transform="scale(0.015625)"/>
       <path id="DejaVuSans-6c" d="M 603 4863 
L 1178 4863 
L 1178 0 
L 603 0 
L 603 4863 
z
" transform="scale(0.015625)"/>
       <path id="DejaVuSans-7a" d="M 353 3500 
L 3084 3500 
L 3084 2975 
L 922 459 
L 3084 459 
L 3084 0 
L 275 0 
L 275 525 
L 2438 3041 
L 353 3041 
L 353 3500 
z
" transform="scale(0.015625)"/>
       <path id="DejaVuSans-64" d="M 2906 2969 
L 2906 4863 
L 3481 4863 
L 3481 0 
L 2906 0 
L 2906 525 
Q 2725 213 2448 61 
Q 2172 -91 1784 -91 
Q 1150 -91 751 415 
Q 353 922 353 1747 
Q 353 2572 751 3078 
Q 1150 3584 1784 3584 
Q 2172 3584 2448 3432 
Q 2725 3281 2906 2969 
z
M 947 1747 
Q 947 1113 1208 752 
Q 1469 391 1925 391 
Q 2381 391 2643 752 
Q 2906 1113 2906 1747 
Q 2906 2381 2643 2742 
Q 2381 3103 1925 3103 
Q 1469 3103 1208 2742 
Q 947 2381 947 1747 
z
" transform="scale(0.015625)"/>
       <path id="DejaVuSans-49" d="M 628 4666 
L 1259 4666 
L 1259 0 
L 628 0 
L 628 4666 
z
" transform="scale(0.015625)"/>
       <path id="DejaVuSans-73" d="M 2834 3397 
L 2834 2853 
Q 2591 2978 2328 3040 
Q 2066 3103 1784 3103 
Q 1356 3103 1142 2972 
Q 928 2841 928 2578 
Q 928 2378 1081 2264 
Q 1234 2150 1697 2047 
L 1894 2003 
Q 2506 1872 2764 1633 
Q 3022 1394 3022 966 
Q 3022 478 2636 193 
Q 2250 -91 1575 -91 
Q 1294 -91 989 -36 
Q 684 19 347 128 
L 347 722 
Q 666 556 975 473 
Q 1284 391 1588 391 
Q 1994 391 2212 530 
Q 2431 669 2431 922 
Q 2431 1156 2273 1281 
Q 2116 1406 1581 1522 
L 1381 1569 
Q 847 1681 609 1914 
Q 372 2147 372 2553 
Q 372 3047 722 3315 
Q 1072 3584 1716 3584 
Q 2034 3584 2315 3537 
Q 2597 3491 2834 3397 
z
" transform="scale(0.015625)"/>
       <path id="DejaVuSans-79" d="M 2059 -325 
Q 1816 -950 1584 -1140 
Q 1353 -1331 966 -1331 
L 506 -1331 
L 506 -850 
L 844 -850 
Q 1081 -850 1212 -737 
Q 1344 -625 1503 -206 
L 1606 56 
L 191 3500 
L 800 3500 
L 1894 763 
L 2988 3500 
L 3597 3500 
L 2059 -325 
z
" transform="scale(0.015625)"/>
      </defs>
      <use xlink:href="#DejaVuSans-4e"/>
      <use xlink:href="#DejaVuSans-6f" transform="translate(74.804688 0)"/>
      <use xlink:href="#DejaVuSans-72" transform="translate(135.986328 0)"/>
      <use xlink:href="#DejaVuSans-6d" transform="translate(175.349609 0)"/>
      <use xlink:href="#DejaVuSans-61" transform="translate(272.761719 0)"/>
      <use xlink:href="#DejaVuSans-6c" transform="translate(334.041016 0)"/>
      <use xlink:href="#DejaVuSans-69" transform="translate(361.824219 0)"/>
      <use xlink:href="#DejaVuSans-7a" transform="translate(389.607422 0)"/>
      <use xlink:href="#DejaVuSans-65" transform="translate(442.097656 0)"/>
      <use xlink:href="#DejaVuSans-64" transform="translate(503.621094 0)"/>
      <use xlink:href="#DejaVuSans-20" transform="translate(567.097656 0)"/>
      <use xlink:href="#DejaVuSans-49" transform="translate(598.884766 0)"/>
      <use xlink:href="#DejaVuSans-6e" transform="translate(628.376953 0)"/>
      <use xlink:href="#DejaVuSans-74" transform="translate(691.755859 0)"/>
      <use xlink:href="#DejaVuSans-65" transform="translate(730.964844 0)"/>
      <use xlink:href="#DejaVuSans-6e" transform="translate(792.488281 0)"/>
      <use xlink:href="#DejaVuSans-73" transform="translate(855.867188 0)"/>
      <use xlink:href="#DejaVuSans-69" transform="translate(907.966797 0)"/>
      <use xlink:href="#DejaVuSans-74" transform="translate(935.75 0)"/>
      <use xlink:href="#DejaVuSans-79" transform="translate(974.958984 0)"/>
     </g>
    </g>
   </g>
   <g id="line2d_13">
    <path d="M 84.332727 510.987273 
L 89.222574 510.924742 
L 92.889959 510.628419 
L 97.779806 510.19013 
L 102.669652 510.041626 
L 110.004423 510.070836 
L 124.673963 510.484863 
L 161.347813 510.373643 
L 162.570275 510.294457 
L 163.792736 510.025781 
L 165.015198 509.453583 
L 168.682583 507.01235 
L 172.349968 505.400431 
L 173.57243 504.918855 
L 174.794891 503.741615 
L 176.017353 496.974615 
L 177.239815 473.793858 
L 178.462277 427.438376 
L 179.684738 370.354756 
L 180.9072 330.209838 
L 182.129662 326.565455 
L 183.352123 356.497437 
L 185.797047 444.327576 
L 187.019508 474.257602 
L 188.24197 490.605645 
L 189.464432 497.096771 
L 190.686893 498.442232 
L 191.909355 498.21688 
L 193.131817 498.260533 
L 194.354278 499.040808 
L 199.244125 504.075181 
L 200.466587 504.817898 
L 201.689048 505.337902 
L 209.023818 507.736334 
L 211.468742 508.504654 
L 213.913665 508.992706 
L 216.358589 509.252816 
L 220.025974 509.39349 
L 227.360744 509.420269 
L 237.140437 509.860432 
L 248.142592 509.968436 
L 262.812132 509.993759 
L 267.701979 509.766906 
L 271.369364 509.436936 
L 275.036749 508.928558 
L 279.926596 507.953791 
L 284.816443 506.949722 
L 288.483828 506.4009 
L 292.151213 506.128744 
L 295.818598 506.162729 
L 299.485983 506.449532 
L 304.375829 507.088432 
L 312.933061 508.253443 
L 317.822908 508.667014 
L 322.712755 508.890393 
L 326.38014 508.854852 
L 332.492448 508.600512 
L 337.382295 508.534062 
L 338.604756 508.338375 
L 339.827218 506.796935 
L 341.04968 500.835701 
L 342.272141 487.254233 
L 344.717065 447.964023 
L 345.939526 437.670878 
L 347.161988 439.731234 
L 348.38445 451.345775 
L 350.829373 480.956036 
L 352.051835 491.438939 
L 353.274297 497.977867 
L 354.496758 501.555164 
L 355.71922 503.376148 
L 356.941682 504.348979 
L 358.164143 504.978699 
L 360.609067 505.835826 
L 361.831528 506.069061 
L 363.05399 506.132539 
L 364.276452 505.983337 
L 367.943837 504.818523 
L 369.166298 504.822071 
L 370.38876 505.156293 
L 374.056145 506.624768 
L 375.278607 506.919369 
L 377.72353 507.173321 
L 380.168453 507.089837 
L 385.0583 506.703095 
L 388.725685 506.830945 
L 392.39307 506.917198 
L 394.837994 506.731931 
L 396.060455 506.462491 
L 397.282917 506.014782 
L 399.72784 504.890067 
L 400.950302 504.57293 
L 402.172764 504.546003 
L 405.840149 505.084731 
L 407.06261 505.091711 
L 408.285072 504.959623 
L 409.507534 504.693534 
L 410.729995 503.902925 
L 411.952457 500.60051 
L 413.174919 490.484945 
L 414.39738 469.795524 
L 416.842304 412.894631 
L 418.064766 396.682845 
L 419.287227 396.619924 
L 420.509689 409.607404 
L 422.954612 447.560082 
L 424.177074 462.698721 
L 425.399536 473.372455 
L 426.621997 480.406204 
L 427.844459 485.03712 
L 429.066921 488.261059 
L 430.289382 490.665963 
L 431.511844 492.531869 
L 432.734306 493.974129 
L 433.956767 495.035997 
L 435.179229 495.757142 
L 437.624152 496.607539 
L 440.069076 497.517311 
L 443.736461 499.051991 
L 444.958922 499.39615 
L 446.181384 499.580185 
L 447.403846 499.280034 
L 448.626307 497.409224 
L 449.848769 492.435475 
L 452.293693 475.739383 
L 453.516154 470.663462 
L 454.738616 471.02959 
L 455.961078 475.851936 
L 458.406001 488.856255 
L 459.628463 493.536873 
L 460.850924 496.487518 
L 462.073386 498.142242 
L 463.295848 499.019913 
L 464.518309 499.474199 
L 465.740771 499.661659 
L 466.963233 499.64794 
L 469.408156 499.415614 
L 470.630618 499.422614 
L 473.075541 499.771584 
L 475.520464 500.160059 
L 477.965388 500.258679 
L 484.077696 499.983098 
L 485.300158 499.846409 
L 486.52262 499.546868 
L 487.745081 499.016002 
L 490.190005 497.785973 
L 491.412466 497.537461 
L 492.634928 497.623129 
L 496.302313 498.445034 
L 497.524775 498.53551 
L 499.969698 498.422784 
L 504.859545 497.901431 
L 506.082006 497.252077 
L 507.304468 493.542551 
L 508.52693 481.067955 
L 509.749391 455.477028 
L 510.971853 421.580126 
L 512.194315 393.194546 
L 513.416776 382.581304 
L 514.639238 391.485636 
L 515.8617 412.29602 
L 517.084161 435.243544 
L 518.306623 454.011543 
L 519.529085 466.862948 
L 520.751547 474.818139 
L 521.974008 479.341093 
L 523.19647 481.188873 
L 524.418932 480.867879 
L 525.641393 479.524282 
L 526.863855 478.747809 
L 528.086317 479.483642 
L 529.308778 481.310082 
L 530.53124 482.570484 
L 531.753702 481.251966 
L 532.976163 476.468402 
L 534.198625 469.669217 
L 535.421087 464.157955 
L 536.643548 462.910939 
L 537.86601 466.632012 
L 539.088472 473.710808 
L 540.310933 481.705681 
L 541.533395 488.792949 
L 542.755857 494.246416 
L 543.978318 498.137377 
L 545.20078 500.852091 
L 546.423242 502.776862 
L 547.645703 504.187712 
L 548.868165 505.253731 
L 550.090627 506.073262 
L 551.313088 506.705779 
L 552.53555 507.188811 
L 554.980474 507.792932 
L 557.425397 508.058676 
L 561.092782 508.35796 
L 567.20509 509.240106 
L 575.762322 509.059613 
L 581.87463 509.187286 
L 584.319554 509.152981 
L 586.764477 508.882333 
L 589.209401 508.463772 
L 590.431862 508.391013 
L 592.876786 508.626223 
L 595.321709 508.986877 
L 597.766632 509.141125 
L 603.878941 509.320883 
L 609.991249 509.527387 
L 613.658634 509.448052 
L 617.326019 509.413183 
L 625.883251 509.743826 
L 636.885406 509.758359 
L 644.220176 509.699918 
L 650.332484 509.582002 
L 657.667255 509.585376 
L 658.889716 509.414256 
L 660.112178 509.077582 
L 663.779563 507.703812 
L 665.002025 507.57736 
L 666.224486 507.698024 
L 671.114333 508.796842 
L 673.559256 508.974711 
L 678.449103 509.255788 
L 683.33895 509.569045 
L 691.896182 509.786402 
L 698.00849 509.838384 
L 701.675875 509.644095 
L 704.120798 509.564461 
L 717.567877 509.857508 
L 723.680185 509.874094 
L 728.570032 509.934799 
L 734.68234 509.986634 
L 739.572187 510.057785 
L 745.684495 510.082899 
L 750.574342 510.162809 
L 762.798959 510.119958 
L 793.360501 510.236481 
L 801.917733 510.308831 
L 816.587273 510.589793 
L 816.587273 510.589793 
" clip-path="url(#paf5d308c2e)" style="fill: none; stroke: #0000ff; stroke-width: 1.5; stroke-linecap: square"/>
   </g>
   <g id="line2d_14">
    <path d="M 95.423144 234.350029 
L 180.956098 234.336535 
L 343.459396 234.209251 
L 343.459396 234.035144 
L 343.812932 233.972498 
L 343.812932 233.559373 
L 344.163534 233.534256 
L 344.163534 232.962647 
L 344.511202 233.00228 
L 344.511202 232.291114 
L 344.85667 232.563388 
L 344.85667 231.820297 
L 345.197003 232.238551 
L 345.197003 231.577461 
L 345.533914 232.183502 
L 345.533914 231.373048 
L 345.868624 232.050995 
L 345.868624 231.284451 
L 346.201622 231.824799 
L 346.201622 231.036012 
L 346.538288 231.793353 
L 346.538288 231.161572 
L 346.868842 231.994679 
L 346.868842 231.490525 
L 347.199151 232.103062 
L 347.199151 231.366872 
L 347.529949 232.001242 
L 347.529949 231.069683 
L 347.860014 231.606105 
L 347.860014 231.094889 
L 348.189589 231.813798 
L 348.189589 231.188494 
L 348.519654 232.029404 
L 348.519654 231.244512 
L 348.853142 231.978064 
L 348.853142 231.371999 
L 349.183695 231.913395 
L 349.183695 231.099257 
L 349.514004 231.957828 
L 349.514004 231.211087 
L 349.844069 231.884729 
L 349.844069 231.170713 
L 350.174867 232.008208 
L 350.174867 231.345552 
L 350.505421 232.032751 
L 350.505421 231.15043 
L 350.836708 231.891607 
L 350.836708 231.196794 
L 351.168973 231.831019 
L 351.168973 230.957302 
L 351.507106 231.810489 
L 351.507106 231.081355 
L 351.840349 231.711143 
L 351.840349 230.990564 
L 352.173103 231.85113 
L 352.173103 231.168767 
L 352.507324 231.962074 
L 352.507324 231.349547 
L 352.840812 232.088395 
L 352.840812 231.407015 
L 353.175766 232.10579 
L 353.175766 231.477548 
L 353.510476 232.114448 
L 353.510476 231.40384 
L 353.846409 232.083144 
L 353.846409 231.216509 
L 354.183319 231.842452 
L 354.183319 231.149638 
L 354.520229 231.831325 
L 354.520229 231.124561 
L 354.858362 231.977168 
L 354.858362 231.267888 
L 355.196006 232.032852 
L 355.196006 231.384145 
L 355.534384 232.180816 
L 355.534384 231.418109 
L 355.873984 232.112949 
L 355.873984 231.471125 
L 356.214072 232.154079 
L 356.214072 231.567354 
L 356.560029 232.363857 
L 356.560029 231.742811 
L 356.901585 232.412646 
L 356.901585 231.85597 
L 357.24363 232.446738 
L 357.24363 231.893498 
L 357.58763 232.558453 
L 357.58763 232.046855 
L 357.932609 232.648038 
L 357.932609 232.11472 
L 358.278321 232.698599 
L 358.278321 232.355321 
L 358.624522 232.896997 
L 358.624522 232.498015 
L 358.971212 232.996772 
L 358.971212 232.477128 
L 359.321325 232.841541 
L 359.321325 232.36972 
L 359.66826 232.792439 
L 359.66826 232.462729 
L 360.015684 233.016161 
L 360.015684 232.581185 
L 360.365063 233.071948 
L 360.365063 232.639364 
L 360.712731 233.018709 
L 360.712731 232.528937 
L 361.060399 232.963787 
L 361.060399 232.420919 
L 361.408312 232.837224 
L 361.408312 232.347036 
L 361.762092 232.811793 
L 361.762092 232.44766 
L 362.110005 232.992566 
L 362.110005 232.604142 
L 362.457918 233.103294 
L 362.457918 232.717773 
L 362.806808 233.093672 
L 362.806808 232.695218 
L 363.15521 233.10864 
L 363.15521 232.759939 
L 363.503856 233.179075 
L 363.503856 232.869788 
L 363.852991 233.277902 
L 363.852991 232.996693 
L 364.202126 233.374461 
L 364.202126 233.062061 
L 364.551017 233.394307 
L 364.551017 233.033085 
L 364.900396 233.293637 
L 364.900396 232.977381 
L 365.249531 233.30066 
L 365.249531 233.003182 
L 365.599155 233.367195 
L 365.599155 233.156749 
L 365.949024 233.469537 
L 365.949024 233.257237 
L 366.298403 233.577811 
L 366.298403 233.337932 
L 366.652917 233.58056 
L 366.652917 233.303891 
L 367.002786 233.533437 
L 367.002786 233.255931 
L 367.351676 233.512009 
L 367.351676 233.28069 
L 367.700811 233.565758 
L 367.700811 233.299071 
L 368.049946 233.589389 
L 368.049946 233.362945 
L 368.399081 233.598607 
L 368.399081 233.384915 
L 368.748705 233.644143 
L 368.748705 233.377741 
L 369.097352 233.595837 
L 369.097352 233.315891 
L 369.446731 233.539932 
L 369.446731 233.260067 
L 369.795622 233.476901 
L 369.795622 233.241471 
L 370.143534 233.520356 
L 370.143534 233.331168 
L 370.491936 233.600253 
L 370.491936 233.362083 
L 370.840582 233.585137 
L 370.840582 233.299709 
L 371.188983 233.463578 
L 371.188983 233.23342 
L 371.547654 233.507371 
L 371.547654 233.323179 
L 371.896544 233.628742 
L 371.896544 233.49958 
L 372.245435 233.769886 
L 372.245435 233.610316 
L 372.594325 233.830817 
L 372.594325 233.664875 
L 372.943705 233.842871 
L 372.943705 233.670302 
L 373.293818 233.848105 
L 373.293818 233.687511 
L 373.994044 233.918937 
L 373.994044 233.743118 
L 374.343913 233.905052 
L 374.343913 233.771886 
L 374.694515 233.873953 
L 374.694515 233.698974 
L 375.045361 233.87618 
L 375.045361 233.70211 
L 375.747054 233.901307 
L 375.747054 233.769896 
L 376.098145 233.944728 
L 376.098145 233.814284 
L 376.80595 233.957101 
L 376.80595 233.869573 
L 377.157775 234.006834 
L 377.157775 233.886637 
L 377.510088 233.988362 
L 377.510088 233.852183 
L 377.861424 233.938261 
L 377.861424 233.81504 
L 378.565317 233.96671 
L 378.565317 233.867221 
L 378.918609 234.006255 
L 378.918609 233.911436 
L 379.623236 234.035352 
L 379.623236 233.91483 
L 380.32884 234.006273 
L 380.32884 233.922159 
L 381.033712 234.059927 
L 381.033712 233.962381 
L 381.748852 234.067349 
L 381.748852 233.970561 
L 382.453968 234.068383 
L 382.453968 233.978126 
L 383.159817 234.089423 
L 383.159817 234.005718 
L 383.864689 234.116813 
L 383.864689 234.024685 
L 384.572005 234.081059 
L 384.572005 234.001909 
L 385.277854 234.124771 
L 385.277854 234.044943 
L 385.982237 234.105751 
L 385.982237 234.035967 
L 386.692242 234.14056 
L 386.692242 234.081261 
L 391.99577 234.125728 
L 392.702598 234.180281 
L 392.702598 234.125879 
L 393.762227 234.185453 
L 393.762227 234.122613 
L 394.823813 234.166492 
L 394.823813 234.130478 
L 395.531863 234.20873 
L 395.531863 234.172978 
L 396.597849 234.213627 
L 396.597849 234.178328 
L 398.361862 234.234453 
L 398.361862 234.183911 
L 399.416357 234.223122 
L 399.416357 234.186965 
L 406.372409 234.28705 
L 408.113927 234.228714 
L 410.209227 234.230382 
L 413.367579 234.213321 
L 413.367579 234.191433 
L 414.766075 234.251516 
L 414.766075 234.22267 
L 415.808346 234.240642 
L 417.1643 234.270459 
L 510.044005 234.177289 
L 510.044005 233.939769 
L 510.393873 233.803821 
L 510.393873 232.991768 
L 510.743497 232.67669 
L 510.743497 230.466921 
L 511.09141 229.527308 
L 511.09141 225.053538 
L 511.436878 224.381431 
L 511.436878 216.56548 
L 511.786991 215.649974 
L 511.786991 203.31259 
L 512.121945 203.23481 
L 512.121945 186.337668 
L 512.453721 187.194153 
L 512.453721 165.738638 
L 512.785008 171.518467 
L 512.785008 142.386903 
L 513.114339 152.258721 
L 513.114339 121.937026 
L 513.442693 136.972948 
L 513.442693 101.102514 
L 513.771046 123.298678 
L 513.771046 81.885873 
L 514.099644 107.768486 
L 514.099644 65.121237 
L 514.427508 95.684246 
L 514.427508 52.28724 
L 514.755127 88.753079 
L 514.755127 49.932727 
L 515.083236 90.683324 
L 515.083236 52.118375 
L 515.4111 95.320239 
L 515.4111 57.178983 
L 515.742143 95.963381 
L 515.742143 63.980324 
L 516.069763 104.553725 
L 516.069763 72.991833 
L 516.397627 114.273623 
L 516.397627 84.193523 
L 516.73087 118.787322 
L 516.73087 91.430522 
L 517.059223 126.124708 
L 517.059223 101.724876 
L 517.387332 135.400206 
L 517.387332 109.747447 
L 517.716174 140.955483 
L 517.716174 118.963074 
L 518.045016 146.00017 
L 518.045016 128.43991 
L 518.374592 155.795877 
L 518.374592 136.320906 
L 518.703679 160.79199 
L 518.703679 144.076823 
L 519.033254 165.792278 
L 519.033254 148.508554 
L 519.363075 171.356674 
L 519.363075 155.548974 
L 519.692895 174.831922 
L 519.692895 160.39804 
L 520.023204 179.56471 
L 520.023204 165.118773 
L 520.353269 182.624489 
L 520.353269 170.785823 
L 520.683089 185.244774 
L 520.683089 172.840406 
L 521.014376 186.162472 
L 521.014376 174.305268 
L 521.345663 187.42812 
L 521.345663 176.388481 
L 521.682084 191.363057 
L 521.682084 180.866724 
L 522.012882 193.468754 
L 522.012882 184.271237 
L 522.343925 196.066923 
L 522.343925 185.246775 
L 522.675701 198.451211 
L 522.675701 188.872774 
L 523.007233 198.498208 
L 523.007233 189.798132 
L 523.342187 200.046495 
L 523.342187 191.647646 
L 523.673963 202.222744 
L 523.673963 194.37279 
L 524.006473 204.097149 
L 524.006473 196.410403 
L 524.338738 204.303636 
L 524.338738 197.527284 
L 524.671981 206.545843 
L 524.671981 198.783778 
L 525.008892 207.035754 
L 525.008892 200.162465 
L 525.343357 207.602322 
L 525.343357 200.274088 
L 525.6766 208.374023 
L 525.6766 202.94918 
L 526.010332 210.50722 
L 526.010332 204.771916 
L 526.346754 212.459486 
L 526.346754 207.330869 
L 526.685864 213.794116 
L 526.685864 209.237332 
L 527.019597 215.392705 
L 527.019597 211.320433 
L 527.356018 217.284987 
L 527.356018 212.932498 
L 527.691217 218.607745 
L 527.691217 214.874913 
L 528.02446 219.913483 
L 528.02446 215.607679 
L 528.357948 220.394491 
L 528.357948 216.457386 
L 528.690702 221.043539 
L 528.690702 216.99543 
L 529.022478 221.210483 
L 529.022478 218.141423 
L 529.354743 222.188049 
L 529.354743 218.417468 
L 529.688475 222.482089 
L 529.688475 219.48453 
L 530.021962 222.816857 
L 530.021962 219.732877 
L 530.354961 223.383243 
L 530.354961 220.617004 
L 530.688449 223.958229 
L 530.688449 221.193654 
L 531.022914 224.484397 
L 531.022914 221.71967 
L 531.356157 224.695161 
L 531.356157 222.060696 
L 531.696001 225.222156 
L 531.696001 222.609341 
L 532.0312 225.771138 
L 532.0312 223.056235 
L 532.367622 226.03622 
L 532.367622 223.396681 
L 532.704043 225.925344 
L 532.704043 223.573342 
L 533.040709 226.315619 
L 533.040709 224.025429 
L 533.378598 226.588354 
L 533.378598 224.473949 
L 533.715997 226.906365 
L 533.715997 224.726809 
L 534.056086 227.059479 
L 534.056086 225.132035 
L 534.396419 227.449635 
L 534.396419 225.373534 
L 534.74262 227.697836 
L 534.74262 225.858559 
L 535.084176 227.899514 
L 535.084176 226.061471 
L 535.426221 228.22321 
L 535.426221 226.521525 
L 535.769733 228.355719 
L 535.769733 226.830629 
L 536.113244 228.733914 
L 536.113244 227.103558 
L 536.455289 228.960755 
L 536.455289 227.397647 
L 536.801735 229.109819 
L 536.801735 227.573563 
L 537.142068 229.181114 
L 537.142068 227.626902 
L 537.482891 229.332747 
L 537.482891 227.846155 
L 537.826647 229.499487 
L 537.826647 228.164336 
L 538.170647 229.748207 
L 538.170647 228.471137 
L 538.514648 230.001554 
L 538.514648 228.654651 
L 538.858649 230.146877 
L 538.858649 228.746634 
L 539.203139 229.941501 
L 539.203139 228.887951 
L 539.547873 230.270286 
L 539.547873 229.067243 
L 539.892607 230.553676 
L 539.892607 229.419024 
L 540.23783 230.538715 
L 540.23783 229.36978 
L 540.582564 230.52968 
L 540.582564 229.487291 
L 540.928032 230.78413 
L 540.928032 229.613332 
L 541.273255 230.872656 
L 541.273255 229.883353 
L 541.618478 230.864475 
L 541.618478 229.801432 
L 541.969569 231.038305 
L 541.969569 230.010927 
L 542.314793 231.06964 
L 542.314793 230.291976 
L 542.66026 231.413415 
L 542.66026 230.484441 
L 543.008662 231.513753 
L 543.008662 230.619757 
L 543.353885 231.492883 
L 543.353885 230.613453 
L 543.698619 231.587864 
L 543.698619 230.741289 
L 544.043598 231.699456 
L 544.043598 230.853662 
L 544.388577 231.744797 
L 544.388577 230.8875 
L 544.734289 231.715625 
L 544.734289 230.961167 
L 545.079756 231.840351 
L 545.079756 231.021859 
L 545.425224 231.802159 
L 545.425224 231.110437 
L 545.771181 231.880716 
L 545.771181 231.264295 
L 546.117626 232.062369 
L 546.117626 231.442722 
L 546.463827 232.171462 
L 546.463827 231.43823 
L 546.810762 232.051363 
L 546.810762 231.365032 
L 547.162587 232.03352 
L 547.162587 231.407673 
L 547.509277 232.19349 
L 547.509277 231.487439 
L 547.855967 232.207321 
L 547.855967 231.542926 
L 548.203146 232.192077 
L 548.203146 231.504454 
L 548.550325 232.273117 
L 548.550325 231.676718 
L 548.897504 232.343717 
L 548.897504 231.767165 
L 549.244683 232.425921 
L 549.244683 231.775608 
L 549.592107 232.385412 
L 549.592107 231.835773 
L 549.940509 232.423655 
L 549.940509 231.848099 
L 550.288177 232.451771 
L 550.288177 231.94729 
L 550.636334 232.540755 
L 550.636334 231.948234 
L 550.984246 232.501327 
L 550.984246 231.988556 
L 551.332648 232.514204 
L 551.332648 231.989432 
L 551.681538 232.588846 
L 551.681538 232.126012 
L 552.02994 232.680646 
L 552.02994 232.16326 
L 552.38372 232.724999 
L 552.38372 232.219595 
L 552.732611 232.707538 
L 552.732611 232.189192 
L 553.085902 232.688653 
L 553.085902 232.189246 
L 553.434548 232.711488 
L 553.434548 232.163932 
L 553.783684 232.707723 
L 553.783684 232.204729 
L 554.132574 232.701598 
L 554.132574 232.228524 
L 554.481954 232.793157 
L 554.481954 232.353474 
L 554.831822 232.859642 
L 554.831822 232.467625 
L 555.181691 232.959518 
L 555.181691 232.534781 
L 555.531315 232.976586 
L 555.531315 232.508931 
L 555.883628 232.901947 
L 555.883628 232.450274 
L 556.233497 232.909253 
L 556.233497 232.463936 
L 556.58361 232.955949 
L 556.58361 232.474863 
L 556.933967 232.922227 
L 556.933967 232.474335 
L 557.289459 232.911703 
L 557.289459 232.45408 
L 557.639817 232.935728 
L 557.639817 232.571545 
L 557.989441 233.03411 
L 557.989441 232.662689 
L 558.339309 233.161309 
L 558.339309 232.801624 
L 558.689422 233.18463 
L 558.689422 232.752489 
L 559.039535 233.135041 
L 559.039535 232.675703 
L 559.391849 233.021259 
L 559.391849 232.660416 
L 559.741962 233.070391 
L 559.741962 232.725272 
L 560.092075 233.172515 
L 560.092075 232.838642 
L 560.442921 233.190451 
L 560.442921 232.813674 
L 560.793279 233.163565 
L 560.793279 232.830149 
L 561.143636 233.185167 
L 561.143636 232.854117 
L 561.493994 233.256253 
L 561.493994 232.889693 
L 561.844351 233.224565 
L 561.844351 232.884596 
L 562.200332 233.198849 
L 562.200332 232.842229 
L 562.55069 233.242321 
L 562.55069 232.884802 
L 562.901536 233.229623 
L 562.901536 232.876692 
L 563.256539 233.235454 
L 563.256539 232.866269 
L 563.606408 233.221281 
L 563.606408 232.914997 
L 563.957988 233.297169 
L 563.957988 232.974609 
L 564.308834 233.316252 
L 564.308834 233.034753 
L 564.659681 233.350492 
L 564.659681 233.06823 
L 565.010283 233.402885 
L 565.010283 233.062339 
L 565.36064 233.342065 
L 565.36064 233.05989 
L 565.711487 233.351727 
L 565.711487 233.025507 
L 566.062089 233.37802 
L 566.062089 233.134324 
L 566.412691 233.408691 
L 566.412691 233.121963 
L 566.763293 233.433608 
L 566.763293 233.140075 
L 567.119273 233.410051 
L 567.119273 233.142261 
L 567.469876 233.416429 
L 567.469876 233.120907 
L 567.820233 233.421482 
L 567.820233 233.152958 
L 568.170591 233.448872 
L 568.170591 233.156864 
L 568.520704 233.450757 
L 568.520704 233.212205 
L 568.871061 233.477695 
L 568.871061 233.209516 
L 569.221419 233.506602 
L 569.221419 233.253676 
L 569.572265 233.484687 
L 569.572265 233.24054 
L 569.922867 233.481139 
L 569.922867 233.224019 
L 570.273469 233.506835 
L 570.273469 233.294753 
L 570.624316 233.547355 
L 570.624316 233.347603 
L 570.974918 233.613582 
L 570.974918 233.360597 
L 571.32552 233.604873 
L 571.32552 233.323722 
L 571.676122 233.557141 
L 571.676122 233.316323 
L 572.036992 233.56597 
L 572.036992 233.314371 
L 572.388083 233.589589 
L 572.388083 233.345189 
L 572.738441 233.58531 
L 572.738441 233.346931 
L 573.089776 233.569734 
L 573.089776 233.368674 
L 573.440623 233.603162 
L 573.440623 233.379644 
L 573.791469 233.585819 
L 573.791469 233.458065 
L 574.14256 233.656729 
L 574.14256 233.49755 
L 574.493651 233.718962 
L 574.493651 233.419833 
L 574.844742 233.574761 
L 574.844742 233.354006 
L 575.195344 233.529429 
L 575.195344 233.327369 
L 575.54668 233.648799 
L 575.54668 233.419022 
L 575.89826 233.653047 
L 575.89826 233.428861 
L 576.250084 233.651736 
L 576.250084 233.456171 
L 576.60142 233.680595 
L 576.60142 233.471757 
L 576.958134 233.688466 
L 576.958134 233.482122 
L 577.30947 233.684589 
L 577.30947 233.486624 
L 577.660805 233.67629 
L 577.660805 233.507624 
L 578.012141 233.712303 
L 578.012141 233.485318 
L 578.363476 233.681144 
L 578.363476 233.52357 
L 578.715056 233.704595 
L 578.715056 233.546218 
L 579.066636 233.773161 
L 579.066636 233.594796 
L 579.418216 233.788006 
L 579.418216 233.596095 
L 579.769796 233.742572 
L 579.769796 233.575186 
L 580.121376 233.748355 
L 580.121376 233.539289 
L 580.473445 233.724823 
L 580.473445 233.522895 
L 580.826003 233.705538 
L 580.826003 233.564131 
L 581.177827 233.767096 
L 581.177827 233.571261 
L 581.534786 233.774443 
L 581.534786 233.616815 
L 581.8915 233.77664 
L 581.8915 233.606501 
L 582.244303 233.807742 
L 582.244303 233.64243 
L 582.596372 233.783174 
L 582.596372 233.650411 
L 582.948196 233.826107 
L 582.948196 233.661425 
L 583.300021 233.826448 
L 583.300021 233.708277 
L 583.651112 233.838412 
L 583.651112 233.653561 
L 584.002203 233.821945 
L 584.002203 233.654493 
L 584.353294 233.798279 
L 584.353294 233.625381 
L 584.704629 233.801404 
L 584.704629 233.637489 
L 585.055476 233.81325 
L 585.055476 233.64155 
L 585.406567 233.810948 
L 585.406567 233.661923 
L 585.757902 233.841739 
L 585.757902 233.712524 
L 586.108993 233.876766 
L 586.108993 233.719224 
L 586.460084 233.86684 
L 586.460084 233.697461 
L 586.818265 233.83252 
L 586.818265 233.701738 
L 587.169112 233.873394 
L 587.169112 233.730882 
L 587.520936 233.873219 
L 587.520936 233.696992 
L 587.872516 233.820641 
L 587.872516 233.652712 
L 588.223363 233.793776 
L 588.223363 233.629026 
L 588.574209 233.813638 
L 588.574209 233.677539 
L 588.9253 233.837685 
L 588.9253 233.703522 
L 589.276147 233.88931 
L 589.276147 233.745888 
L 589.627238 233.903136 
L 589.627238 233.752882 
L 589.978084 233.90226 
L 589.978084 233.741298 
L 590.328442 233.877769 
L 590.328442 233.730006 
L 590.679044 233.884761 
L 590.679044 233.755566 
L 591.029401 233.88902 
L 591.029401 233.76902 
L 591.37927 233.910339 
L 591.37927 233.780236 
L 592.08463 233.951257 
L 592.08463 233.792089 
L 592.440367 233.926128 
L 592.440367 233.802577 
L 592.790724 233.909306 
L 592.790724 233.787378 
L 593.140593 233.949477 
L 593.140593 233.812829 
L 593.490706 233.956109 
L 593.490706 233.831395 
L 593.840574 233.95963 
L 593.840574 233.799994 
L 594.190932 233.944116 
L 594.190932 233.795674 
L 594.891891 233.962693 
L 594.891891 233.819981 
L 595.242493 233.959947 
L 595.242493 233.833825 
L 595.944186 233.961818 
L 595.944186 233.844339 
L 596.295277 233.969205 
L 596.295277 233.856084 
L 596.651258 233.96725 
L 596.651258 233.832529 
L 597.002838 233.948967 
L 597.002838 233.806425 
L 597.353929 233.933241 
L 597.353929 233.810643 
L 598.055378 233.972765 
L 598.055378 233.844635 
L 598.75756 233.977745 
L 598.75756 233.878368 
L 599.108895 234.009579 
L 599.108895 233.922918 
L 599.810344 234.030336 
L 599.810344 233.918439 
L 600.512281 234.008533 
L 600.512281 233.891307 
L 601.213974 234.00676 
L 601.213974 233.904086 
L 601.922513 234.052623 
L 601.922513 233.943469 
L 602.273604 234.050117 
L 602.273604 233.935776 
L 602.975297 234.010606 
L 602.975297 233.902414 
L 603.326632 234.019728 
L 603.326632 233.914205 
L 604.03346 234.025694 
L 604.03346 233.920711 
L 604.73882 234.034206 
L 604.73882 233.9338 
L 605.089667 234.043944 
L 605.089667 233.945186 
L 605.792093 234.052816 
L 605.792093 233.979348 
L 606.143673 234.072014 
L 606.143673 233.964927 
L 606.500632 234.048584 
L 606.500632 233.957268 
L 607.204036 234.038242 
L 607.204036 233.92539 
L 607.906707 234.021402 
L 607.906707 233.930303 
L 610.016921 234.049239 
L 610.016921 233.959476 
L 610.719592 234.074728 
L 610.719592 233.988816 
L 611.427397 234.057703 
L 611.427397 233.987818 
L 612.130312 234.098892 
L 612.130312 234.033539 
L 612.833472 234.11884 
L 612.833472 234.0318 
L 613.536877 234.107661 
L 613.536877 234.012566 
L 613.888212 234.099264 
L 613.888212 233.990272 
L 614.595284 234.054716 
L 614.595284 233.966253 
L 615.297955 234.068138 
L 615.297955 233.998132 
L 615.999404 234.082362 
L 615.999404 234.025287 
L 616.70672 234.109277 
L 616.70672 234.02306 
L 617.408413 234.081497 
L 617.408413 233.995504 
L 617.759504 234.081593 
L 617.759504 233.976949 
L 618.460953 234.056316 
L 618.460953 233.956282 
L 619.162157 234.078422 
L 619.162157 234.011384 
L 619.86385 234.087943 
L 619.86385 234.017762 
L 620.564565 234.105656 
L 620.564565 234.013111 
L 621.271636 234.096987 
L 621.271636 234.028926 
L 621.973329 234.130091 
L 621.973329 234.061761 
L 623.025624 234.046064 
L 623.72854 234.118098 
L 623.72854 234.050421 
L 624.430477 234.143268 
L 624.430477 234.079173 
L 625.132659 234.112949 
L 625.132659 234.049938 
L 626.190578 234.169639 
L 626.190578 234.091653 
L 626.897894 234.144748 
L 626.897894 234.061992 
L 627.599343 234.118446 
L 627.599343 234.057933 
L 628.30128 234.128452 
L 628.30128 234.058802 
L 629.352842 234.14623 
L 629.352842 234.084075 
L 630.054535 234.127069 
L 630.054535 234.058298 
L 631.112697 234.164627 
L 631.112697 234.096849 
L 632.164014 234.141757 
L 632.164014 234.113395 
L 632.864485 234.174623 
L 632.864485 234.123038 
L 633.915069 234.130478 
L 633.915069 234.071333 
L 634.970786 234.179787 
L 634.970786 234.100615 
L 635.671502 234.144709 
L 635.671502 234.077927 
L 636.378573 234.156367 
L 636.378573 234.090818 
L 636.728686 234.159636 
L 636.728686 234.077258 
L 637.779759 234.03198 
L 637.779759 234.070608 
L 638.479252 234.190322 
L 638.479252 234.15242 
L 638.82912 234.193237 
L 638.82912 234.145316 
L 640.581152 234.096971 
L 640.581152 234.098938 
L 641.640782 234.170841 
L 641.640782 234.111983 
L 642.34003 234.144629 
L 642.34003 234.09042 
L 643.039767 234.149496 
L 643.039767 234.102559 
L 644.088395 234.085203 
L 644.088395 234.096664 
L 645.138489 234.170098 
L 645.138489 234.110598 
L 646.194696 234.180494 
L 646.194696 234.13539 
L 659.856439 234.203048 
L 659.856439 234.146608 
L 660.912646 234.115538 
L 660.912646 234.135557 
L 661.618006 234.192406 
L 661.618006 234.14921 
L 662.668345 234.192416 
L 662.668345 234.139236 
L 663.368816 234.195907 
L 663.368816 234.147466 
L 670.737081 234.22136 
L 670.737081 234.161956 
L 672.137289 234.248476 
L 672.137289 234.191078 
L 672.837515 234.162904 
L 675.644776 234.155989 
L 676.693893 234.198221 
L 676.693893 234.168386 
L 677.394608 234.195485 
L 678.095078 234.105029 
L 679.851756 234.204652 
L 679.851756 234.17368 
L 681.257098 234.214679 
L 681.257098 234.172503 
L 681.957079 234.195905 
L 681.957079 234.154329 
L 682.658039 234.17297 
L 682.658039 234.151216 
L 684.408359 234.174379 
L 685.463833 234.195667 
L 685.463833 234.159194 
L 697.03541 234.188154 
L 698.085994 234.221202 
L 698.085994 234.175412 
L 699.491091 234.241147 
L 699.491091 234.208911 
L 700.196941 234.190152 
L 702.999801 234.197767 
L 704.049896 234.222528 
L 704.049896 234.185936 
L 705.454259 234.226485 
L 705.454259 234.184243 
L 706.503132 234.216298 
L 706.503132 234.177438 
L 707.902117 234.233301 
L 707.902117 234.207765 
L 709.307459 234.238233 
L 709.307459 234.197648 
L 710.712801 234.200157 
L 710.712801 234.177434 
L 711.763384 234.233651 
L 711.763384 234.200042 
L 718.070797 234.22457 
L 718.77029 234.24361 
L 718.77029 234.224178 
L 721.569483 234.193193 
L 721.569483 234.20794 
L 722.267753 234.22595 
L 725.413391 234.203437 
L 727.507957 234.249442 
L 727.507957 234.228831 
L 728.900097 234.217379 
L 728.900097 234.208593 
L 729.950436 234.209293 
L 731.342819 234.218414 
L 731.342819 234.234974 
L 737.968073 234.227415 
L 739.008632 234.207168 
L 739.008632 234.216113 
L 740.747706 234.270805 
L 740.747706 234.24431 
L 742.134222 234.204088 
L 742.134222 234.174895 
L 743.865717 234.227907 
L 748.373911 234.233352 
L 749.764094 234.224271 
L 750.456741 234.183205 
L 750.456741 234.187146 
L 752.53297 234.249071 
L 754.263731 234.266824 
L 754.263731 234.248766 
L 758.427436 234.255425 
L 761.202179 234.260741 
L 761.202179 234.256904 
L 762.242005 234.247601 
L 762.242005 234.248044 
L 763.280364 234.238702 
L 766.061465 234.224601 
L 768.140138 234.251897 
L 768.140138 234.224147 
L 771.262061 234.239157 
L 771.262061 234.239825 
L 772.992578 234.277574 
L 772.992578 234.25168 
L 774.722606 234.242352 
L 774.722606 234.206603 
L 775.771233 234.24487 
L 775.771233 234.212415 
L 776.809103 234.228706 
L 781.654941 234.209461 
L 783.038768 234.200222 
L 783.038768 234.226005 
L 785.118175 234.260678 
L 789.960101 234.212826 
L 792.037553 234.219932 
L 793.079335 234.184584 
L 793.079335 234.223088 
L 794.115004 234.225782 
L 794.115004 234.218801 
L 799.291885 234.216615 
L 799.291885 234.196236 
L 799.291885 234.220723 
L 801.002842 234.199424 
L 804.047994 234.168519 
L 804.047994 234.229839 
L 806.398788 234.273566 
L 806.398788 234.27187 
L 808.083585 234.244384 
L 812.821113 234.207515 
L 812.821113 234.239383 
L 814.579746 234.286686 
L 814.579746 234.286686 
" clip-path="url(#paf5d308c2e)" style="fill: none; stroke: #008000; stroke-width: 1.5; stroke-linecap: square"/>
   </g>
   <g id="patch_3">
    <path d="M 47.72 534.04 
L 47.72 26.88 
" style="fill: none; stroke: #000000; stroke-width: 0.8; stroke-linejoin: miter; stroke-linecap: square"/>
   </g>
   <g id="patch_4">
    <path d="M 853.2 534.04 
L 853.2 26.88 
" style="fill: none; stroke: #000000; stroke-width: 0.8; stroke-linejoin: miter; stroke-linecap: square"/>
   </g>
   <g id="patch_5">
    <path d="M 47.72 534.04 
L 853.2 534.04 
" style="fill: none; stroke: #000000; stroke-width: 0.8; stroke-linejoin: miter; stroke-linecap: square"/>
   </g>
   <g id="patch_6">
    <path d="M 47.72 26.88 
L 853.2 26.88 
" style="fill: none; stroke: #000000; stroke-width: 0.8; stroke-linejoin: miter; stroke-linecap: square"/>
   </g>
   <g id="patch_7">
    <path d="M 582.750304 378.340498 
Q 556.59901 384.174361 530.447716 390.008223 
L 531.318633 393.91226 
Q 524.810853 392.290282 518.303073 390.668304 
Q 523.504477 386.434227 528.705881 382.200149 
L 529.576799 386.104186 
Q 555.728092 380.270324 581.879386 374.436461 
L 582.750304 378.340498 
z
" style="stroke: #000000; stroke-linecap: round"/>
   </g>
   <g id="text_15">
    <!-- Peak: RT=2.94, Area=9.61e+03 -->
    <g style="fill: #ff0000" transform="translate(587.986939 361.845642) scale(0.1 -0.1)">
     <defs>
      <path id="DejaVuSans-50" d="M 1259 4147 
L 1259 2394 
L 2053 2394 
Q 2494 2394 2734 2622 
Q 2975 2850 2975 3272 
Q 2975 3691 2734 3919 
Q 2494 4147 2053 4147 
L 1259 4147 
z
M 628 4666 
L 2053 4666 
Q 2838 4666 3239 4311 
Q 3641 3956 3641 3272 
Q 3641 2581 3239 2228 
Q 2838 1875 2053 1875 
L 1259 1875 
L 1259 0 
L 628 0 
L 628 4666 
z
" transform="scale(0.015625)"/>
      <path id="DejaVuSans-6b" d="M 581 4863 
L 1159 4863 
L 1159 1991 
L 2875 3500 
L 3609 3500 
L 1753 1863 
L 3688 0 
L 2938 0 
L 1159 1709 
L 1159 0 
L 581 0 
L 581 4863 
z
" transform="scale(0.015625)"/>
      <path id="DejaVuSans-3a" d="M 750 794 
L 1409 794 
L 1409 0 
L 750 0 
L 750 794 
z
M 750 3309 
L 1409 3309 
L 1409 2516 
L 750 2516 
L 750 3309 
z
" transform="scale(0.015625)"/>
      <path id="DejaVuSans-3d" d="M 678 2906 
L 4684 2906 
L 4684 2381 
L 678 2381 
L 678 2906 
z
M 678 1631 
L 4684 1631 
L 4684 1100 
L 678 1100 
L 678 1631 
z
" transform="scale(0.015625)"/>
      <path id="DejaVuSans-39" d="M 703 97 
L 703 672 
Q 941 559 1184 500 
Q 1428 441 1663 441 
Q 2288 441 2617 861 
Q 2947 1281 2994 2138 
Q 2813 1869 2534 1725 
Q 2256 1581 1919 1581 
Q 1219 1581 811 2004 
Q 403 2428 403 3163 
Q 403 3881 828 4315 
Q 1253 4750 1959 4750 
Q 2769 4750 3195 4129 
Q 3622 3509 3622 2328 
Q 3622 1225 3098 567 
Q 2575 -91 1691 -91 
Q 1453 -91 1209 -44 
Q 966 3 703 97 
z
M 1959 2075 
Q 2384 2075 2632 2365 
Q 2881 2656 2881 3163 
Q 2881 3666 2632 3958 
Q 2384 4250 1959 4250 
Q 1534 4250 1286 3958 
Q 1038 3666 1038 3163 
Q 1038 2656 1286 2365 
Q 1534 2075 1959 2075 
z
" transform="scale(0.015625)"/>
      <path id="DejaVuSans-2c" d="M 750 794 
L 1409 794 
L 1409 256 
L 897 -744 
L 494 -744 
L 750 256 
L 750 794 
z
" transform="scale(0.015625)"/>
      <path id="DejaVuSans-41" d="M 2188 4044 
L 1331 1722 
L 3047 1722 
L 2188 4044 
z
M 1831 4666 
L 2547 4666 
L 4325 0 
L 3669 0 
L 3244 1197 
L 1141 1197 
L 716 0 
L 50 0 
L 1831 4666 
z
" transform="scale(0.015625)"/>
      <path id="DejaVuSans-36" d="M 2113 2584 
Q 1688 2584 1439 2293 
Q 1191 2003 1191 1497 
Q 1191 994 1439 701 
Q 1688 409 2113 409 
Q 2538 409 2786 701 
Q 3034 994 3034 1497 
Q 3034 2003 2786 2293 
Q 2538 2584 2113 2584 
z
M 3366 4563 
L 3366 3988 
Q 3128 4100 2886 4159 
Q 2644 4219 2406 4219 
Q 1781 4219 1451 3797 
Q 1122 3375 1075 2522 
Q 1259 2794 1537 2939 
Q 1816 3084 2150 3084 
Q 2853 3084 3261 2657 
Q 3669 2231 3669 1497 
Q 3669 778 3244 343 
Q 2819 -91 2113 -91 
Q 1303 -91 875 529 
Q 447 1150 447 2328 
Q 447 3434 972 4092 
Q 1497 4750 2381 4750 
Q 2619 4750 2861 4703 
Q 3103 4656 3366 4563 
z
" transform="scale(0.015625)"/>
      <path id="DejaVuSans-2b" d="M 2944 4013 
L 2944 2272 
L 4684 2272 
L 4684 1741 
L 2944 1741 
L 2944 0 
L 2419 0 
L 2419 1741 
L 678 1741 
L 678 2272 
L 2419 2272 
L 2419 4013 
L 2944 4013 
z
" transform="scale(0.015625)"/>
     </defs>
     <use xlink:href="#DejaVuSans-50"/>
     <use xlink:href="#DejaVuSans-65" transform="translate(56.677734 0)"/>
     <use xlink:href="#DejaVuSans-61" transform="translate(118.201172 0)"/>
     <use xlink:href="#DejaVuSans-6b" transform="translate(179.480469 0)"/>
     <use xlink:href="#DejaVuSans-3a" transform="translate(237.390625 0)"/>
     <use xlink:href="#DejaVuSans-20" transform="translate(271.082031 0)"/>
     <use xlink:href="#DejaVuSans-52" transform="translate(302.869141 0)"/>
     <use xlink:href="#DejaVuSans-54" transform="translate(365.101562 0)"/>
     <use xlink:href="#DejaVuSans-3d" transform="translate(426.185547 0)"/>
     <use xlink:href="#DejaVuSans-32" transform="translate(509.974609 0)"/>
     <use xlink:href="#DejaVuSans-2e" transform="translate(573.597656 0)"/>
     <use xlink:href="#DejaVuSans-39" transform="translate(605.384766 0)"/>
     <use xlink:href="#DejaVuSans-34" transform="translate(669.007812 0)"/>
     <use xlink:href="#DejaVuSans-2c" transform="translate(732.630859 0)"/>
     <use xlink:href="#DejaVuSans-20" transform="translate(764.417969 0)"/>
     <use xlink:href="#DejaVuSans-41" transform="translate(796.205078 0)"/>
     <use xlink:href="#DejaVuSans-72" transform="translate(864.613281 0)"/>
     <use xlink:href="#DejaVuSans-65" transform="translate(903.476562 0)"/>
     <use xlink:href="#DejaVuSans-61" transform="translate(965 0)"/>
     <use xlink:href="#DejaVuSans-3d" transform="translate(1026.279297 0)"/>
     <use xlink:href="#DejaVuSans-39" transform="translate(1110.068359 0)"/>
     <use xlink:href="#DejaVuSans-2e" transform="translate(1173.691406 0)"/>
     <use xlink:href="#DejaVuSans-36" transform="translate(1205.478516 0)"/>
     <use xlink:href="#DejaVuSans-31" transform="translate(1269.101562 0)"/>
     <use xlink:href="#DejaVuSans-65" transform="translate(1332.724609 0)"/>
     <use xlink:href="#DejaVuSans-2b" transform="translate(1394.248047 0)"/>
     <use xlink:href="#DejaVuSans-30" transform="translate(1478.037109 0)"/>
     <use xlink:href="#DejaVuSans-33" transform="translate(1541.660156 0)"/>
    </g>
    <!-- (37.11% of total) -->
    <g style="fill: #ff0000" transform="translate(587.986939 373.043455) scale(0.1 -0.1)">
     <defs>
      <path id="DejaVuSans-37" d="M 525 4666 
L 3525 4666 
L 3525 4397 
L 1831 0 
L 1172 0 
L 2766 4134 
L 525 4134 
L 525 4666 
z
" transform="scale(0.015625)"/>
      <path id="DejaVuSans-25" d="M 4653 2053 
Q 4381 2053 4226 1822 
Q 4072 1591 4072 1178 
Q 4072 772 4226 539 
Q 4381 306 4653 306 
Q 4919 306 5073 539 
Q 5228 772 5228 1178 
Q 5228 1588 5073 1820 
Q 4919 2053 4653 2053 
z
M 4653 2450 
Q 5147 2450 5437 2106 
Q 5728 1763 5728 1178 
Q 5728 594 5436 251 
Q 5144 -91 4653 -91 
Q 4153 -91 3862 251 
Q 3572 594 3572 1178 
Q 3572 1766 3864 2108 
Q 4156 2450 4653 2450 
z
M 1428 4353 
Q 1159 4353 1004 4120 
Q 850 3888 850 3481 
Q 850 3069 1003 2837 
Q 1156 2606 1428 2606 
Q 1700 2606 1854 2837 
Q 2009 3069 2009 3481 
Q 2009 3884 1853 4118 
Q 1697 4353 1428 4353 
z
M 4250 4750 
L 4750 4750 
L 1831 -91 
L 1331 -91 
L 4250 4750 
z
M 1428 4750 
Q 1922 4750 2215 4408 
Q 2509 4066 2509 3481 
Q 2509 2891 2217 2550 
Q 1925 2209 1428 2209 
Q 931 2209 642 2551 
Q 353 2894 353 3481 
Q 353 4063 643 4406 
Q 934 4750 1428 4750 
z
" transform="scale(0.015625)"/>
      <path id="DejaVuSans-66" d="M 2375 4863 
L 2375 4384 
L 1825 4384 
Q 1516 4384 1395 4259 
Q 1275 4134 1275 3809 
L 1275 3500 
L 2222 3500 
L 2222 3053 
L 1275 3053 
L 1275 0 
L 697 0 
L 697 3053 
L 147 3053 
L 147 3500 
L 697 3500 
L 697 3744 
Q 697 4328 969 4595 
Q 1241 4863 1831 4863 
L 2375 4863 
z
" transform="scale(0.015625)"/>
     </defs>
     <use xlink:href="#DejaVuSans-28"/>
     <use xlink:href="#DejaVuSans-33" transform="translate(39.013672 0)"/>
     <use xlink:href="#DejaVuSans-37" transform="translate(102.636719 0)"/>
     <use xlink:href="#DejaVuSans-2e" transform="translate(166.259766 0)"/>
     <use xlink:href="#DejaVuSans-31" transform="translate(198.046875 0)"/>
     <use xlink:href="#DejaVuSans-31" transform="translate(261.669922 0)"/>
     <use xlink:href="#DejaVuSans-25" transform="translate(325.292969 0)"/>
     <use xlink:href="#DejaVuSans-20" transform="translate(420.3125 0)"/>
     <use xlink:href="#DejaVuSans-6f" transform="translate(452.099609 0)"/>
     <use xlink:href="#DejaVuSans-66" transform="translate(513.28125 0)"/>
     <use xlink:href="#DejaVuSans-20" transform="translate(548.486328 0)"/>
     <use xlink:href="#DejaVuSans-74" transform="translate(580.273438 0)"/>
     <use xlink:href="#DejaVuSans-6f" transform="translate(619.482422 0)"/>
     <use xlink:href="#DejaVuSans-74" transform="translate(680.664062 0)"/>
     <use xlink:href="#DejaVuSans-61" transform="translate(719.873047 0)"/>
     <use xlink:href="#DejaVuSans-6c" transform="translate(781.152344 0)"/>
     <use xlink:href="#DejaVuSans-29" transform="translate(808.935547 0)"/>
    </g>
   </g>
   <g id="text_16">
    <!-- UV and MS Chromatograms of IrCp3B5, target m/z = 711.1331917 -->
    <g transform="translate(250.020625 20.88) scale(0.12 -0.12)">
     <defs>
      <path id="DejaVuSans-55" d="M 556 4666 
L 1191 4666 
L 1191 1831 
Q 1191 1081 1462 751 
Q 1734 422 2344 422 
Q 2950 422 3222 751 
Q 3494 1081 3494 1831 
L 3494 4666 
L 4128 4666 
L 4128 1753 
Q 4128 841 3676 375 
Q 3225 -91 2344 -91 
Q 1459 -91 1007 375 
Q 556 841 556 1753 
L 556 4666 
z
" transform="scale(0.015625)"/>
      <path id="DejaVuSans-56" d="M 1831 0 
L 50 4666 
L 709 4666 
L 2188 738 
L 3669 4666 
L 4325 4666 
L 2547 0 
L 1831 0 
z
" transform="scale(0.015625)"/>
      <path id="DejaVuSans-4d" d="M 628 4666 
L 1569 4666 
L 2759 1491 
L 3956 4666 
L 4897 4666 
L 4897 0 
L 4281 0 
L 4281 4097 
L 3078 897 
L 2444 897 
L 1241 4097 
L 1241 0 
L 628 0 
L 628 4666 
z
" transform="scale(0.015625)"/>
      <path id="DejaVuSans-53" d="M 3425 4513 
L 3425 3897 
Q 3066 4069 2747 4153 
Q 2428 4238 2131 4238 
Q 1616 4238 1336 4038 
Q 1056 3838 1056 3469 
Q 1056 3159 1242 3001 
Q 1428 2844 1947 2747 
L 2328 2669 
Q 3034 2534 3370 2195 
Q 3706 1856 3706 1288 
Q 3706 609 3251 259 
Q 2797 -91 1919 -91 
Q 1588 -91 1214 -16 
Q 841 59 441 206 
L 441 856 
Q 825 641 1194 531 
Q 1563 422 1919 422 
Q 2459 422 2753 634 
Q 3047 847 3047 1241 
Q 3047 1584 2836 1778 
Q 2625 1972 2144 2069 
L 1759 2144 
Q 1053 2284 737 2584 
Q 422 2884 422 3419 
Q 422 4038 858 4394 
Q 1294 4750 2059 4750 
Q 2388 4750 2728 4690 
Q 3069 4631 3425 4513 
z
" transform="scale(0.015625)"/>
      <path id="DejaVuSans-43" d="M 4122 4306 
L 4122 3641 
Q 3803 3938 3442 4084 
Q 3081 4231 2675 4231 
Q 1875 4231 1450 3742 
Q 1025 3253 1025 2328 
Q 1025 1406 1450 917 
Q 1875 428 2675 428 
Q 3081 428 3442 575 
Q 3803 722 4122 1019 
L 4122 359 
Q 3791 134 3420 21 
Q 3050 -91 2638 -91 
Q 1578 -91 968 557 
Q 359 1206 359 2328 
Q 359 3453 968 4101 
Q 1578 4750 2638 4750 
Q 3056 4750 3426 4639 
Q 3797 4528 4122 4306 
z
" transform="scale(0.015625)"/>
      <path id="DejaVuSans-68" d="M 3513 2113 
L 3513 0 
L 2938 0 
L 2938 2094 
Q 2938 2591 2744 2837 
Q 2550 3084 2163 3084 
Q 1697 3084 1428 2787 
Q 1159 2491 1159 1978 
L 1159 0 
L 581 0 
L 581 4863 
L 1159 4863 
L 1159 2956 
Q 1366 3272 1645 3428 
Q 1925 3584 2291 3584 
Q 2894 3584 3203 3211 
Q 3513 2838 3513 2113 
z
" transform="scale(0.015625)"/>
      <path id="DejaVuSans-67" d="M 2906 1791 
Q 2906 2416 2648 2759 
Q 2391 3103 1925 3103 
Q 1463 3103 1205 2759 
Q 947 2416 947 1791 
Q 947 1169 1205 825 
Q 1463 481 1925 481 
Q 2391 481 2648 825 
Q 2906 1169 2906 1791 
z
M 3481 434 
Q 3481 -459 3084 -895 
Q 2688 -1331 1869 -1331 
Q 1566 -1331 1297 -1286 
Q 1028 -1241 775 -1147 
L 775 -588 
Q 1028 -725 1275 -790 
Q 1522 -856 1778 -856 
Q 2344 -856 2625 -561 
Q 2906 -266 2906 331 
L 2906 616 
Q 2728 306 2450 153 
Q 2172 0 1784 0 
Q 1141 0 747 490 
Q 353 981 353 1791 
Q 353 2603 747 3093 
Q 1141 3584 1784 3584 
Q 2172 3584 2450 3431 
Q 2728 3278 2906 2969 
L 2906 3500 
L 3481 3500 
L 3481 434 
z
" transform="scale(0.015625)"/>
      <path id="DejaVuSans-70" d="M 1159 525 
L 1159 -1331 
L 581 -1331 
L 581 3500 
L 1159 3500 
L 1159 2969 
Q 1341 3281 1617 3432 
Q 1894 3584 2278 3584 
Q 2916 3584 3314 3078 
Q 3713 2572 3713 1747 
Q 3713 922 3314 415 
Q 2916 -91 2278 -91 
Q 1894 -91 1617 61 
Q 1341 213 1159 525 
z
M 3116 1747 
Q 3116 2381 2855 2742 
Q 2594 3103 2138 3103 
Q 1681 3103 1420 2742 
Q 1159 2381 1159 1747 
Q 1159 1113 1420 752 
Q 1681 391 2138 391 
Q 2594 391 2855 752 
Q 3116 1113 3116 1747 
z
" transform="scale(0.015625)"/>
      <path id="DejaVuSans-42" d="M 1259 2228 
L 1259 519 
L 2272 519 
Q 2781 519 3026 730 
Q 3272 941 3272 1375 
Q 3272 1813 3026 2020 
Q 2781 2228 2272 2228 
L 1259 2228 
z
M 1259 4147 
L 1259 2741 
L 2194 2741 
Q 2656 2741 2882 2914 
Q 3109 3088 3109 3444 
Q 3109 3797 2882 3972 
Q 2656 4147 2194 4147 
L 1259 4147 
z
M 628 4666 
L 2241 4666 
Q 2963 4666 3353 4366 
Q 3744 4066 3744 3513 
Q 3744 3084 3544 2831 
Q 3344 2578 2956 2516 
Q 3422 2416 3680 2098 
Q 3938 1781 3938 1306 
Q 3938 681 3513 340 
Q 3088 0 2303 0 
L 628 0 
L 628 4666 
z
" transform="scale(0.015625)"/>
      <path id="DejaVuSans-2f" d="M 1625 4666 
L 2156 4666 
L 531 -594 
L 0 -594 
L 1625 4666 
z
" transform="scale(0.015625)"/>
     </defs>
     <use xlink:href="#DejaVuSans-55"/>
     <use xlink:href="#DejaVuSans-56" transform="translate(73.193359 0)"/>
     <use xlink:href="#DejaVuSans-20" transform="translate(141.601562 0)"/>
     <use xlink:href="#DejaVuSans-61" transform="translate(173.388672 0)"/>
     <use xlink:href="#DejaVuSans-6e" transform="translate(234.667969 0)"/>
     <use xlink:href="#DejaVuSans-64" transform="translate(298.046875 0)"/>
     <use xlink:href="#DejaVuSans-20" transform="translate(361.523438 0)"/>
     <use xlink:href="#DejaVuSans-4d" transform="translate(393.310547 0)"/>
     <use xlink:href="#DejaVuSans-53" transform="translate(479.589844 0)"/>
     <use xlink:href="#DejaVuSans-20" transform="translate(543.066406 0)"/>
     <use xlink:href="#DejaVuSans-43" transform="translate(574.853516 0)"/>
     <use xlink:href="#DejaVuSans-68" transform="translate(644.677734 0)"/>
     <use xlink:href="#DejaVuSans-72" transform="translate(708.056641 0)"/>
     <use xlink:href="#DejaVuSans-6f" transform="translate(746.919922 0)"/>
     <use xlink:href="#DejaVuSans-6d" transform="translate(808.101562 0)"/>
     <use xlink:href="#DejaVuSans-61" transform="translate(905.513672 0)"/>
     <use xlink:href="#DejaVuSans-74" transform="translate(966.792969 0)"/>
     <use xlink:href="#DejaVuSans-6f" transform="translate(1006.001953 0)"/>
     <use xlink:href="#DejaVuSans-67" transform="translate(1067.183594 0)"/>
     <use xlink:href="#DejaVuSans-72" transform="translate(1130.660156 0)"/>
     <use xlink:href="#DejaVuSans-61" transform="translate(1171.773438 0)"/>
     <use xlink:href="#DejaVuSans-6d" transform="translate(1233.052734 0)"/>
     <use xlink:href="#DejaVuSans-73" transform="translate(1330.464844 0)"/>
     <use xlink:href="#DejaVuSans-20" transform="translate(1382.564453 0)"/>
     <use xlink:href="#DejaVuSans-6f" transform="translate(1414.351562 0)"/>
     <use xlink:href="#DejaVuSans-66" transform="translate(1475.533203 0)"/>
     <use xlink:href="#DejaVuSans-20" transform="translate(1510.738281 0)"/>
     <use xlink:href="#DejaVuSans-49" transform="translate(1542.525391 0)"/>
     <use xlink:href="#DejaVuSans-72" transform="translate(1572.017578 0)"/>
     <use xlink:href="#DejaVuSans-43" transform="translate(1613.130859 0)"/>
     <use xlink:href="#DejaVuSans-70" transform="translate(1682.955078 0)"/>
     <use xlink:href="#DejaVuSans-33" transform="translate(1746.431641 0)"/>
     <use xlink:href="#DejaVuSans-42" transform="translate(1810.054688 0)"/>
     <use xlink:href="#DejaVuSans-35" transform="translate(1878.658203 0)"/>
     <use xlink:href="#DejaVuSans-2c" transform="translate(1942.28125 0)"/>
     <use xlink:href="#DejaVuSans-20" transform="translate(1974.068359 0)"/>
     <use xlink:href="#DejaVuSans-74" transform="translate(2005.855469 0)"/>
     <use xlink:href="#DejaVuSans-61" transform="translate(2045.064453 0)"/>
     <use xlink:href="#DejaVuSans-72" transform="translate(2106.34375 0)"/>
     <use xlink:href="#DejaVuSans-67" transform="translate(2145.707031 0)"/>
     <use xlink:href="#DejaVuSans-65" transform="translate(2209.183594 0)"/>
     <use xlink:href="#DejaVuSans-74" transform="translate(2270.707031 0)"/>
     <use xlink:href="#DejaVuSans-20" transform="translate(2309.916016 0)"/>
     <use xlink:href="#DejaVuSans-6d" transform="translate(2341.703125 0)"/>
     <use xlink:href="#DejaVuSans-2f" transform="translate(2439.115234 0)"/>
     <use xlink:href="#DejaVuSans-7a" transform="translate(2472.806641 0)"/>
     <use xlink:href="#DejaVuSans-20" transform="translate(2525.296875 0)"/>
     <use xlink:href="#DejaVuSans-3d" transform="translate(2557.083984 0)"/>
     <use xlink:href="#DejaVuSans-20" transform="translate(2640.873047 0)"/>
     <use xlink:href="#DejaVuSans-37" transform="translate(2672.660156 0)"/>
     <use xlink:href="#DejaVuSans-31" transform="translate(2736.283203 0)"/>
     <use xlink:href="#DejaVuSans-31" transform="translate(2799.90625 0)"/>
     <use xlink:href="#DejaVuSans-2e" transform="translate(2863.529297 0)"/>
     <use xlink:href="#DejaVuSans-31" transform="translate(2895.316406 0)"/>
     <use xlink:href="#DejaVuSans-33" transform="translate(2958.939453 0)"/>
     <use xlink:href="#DejaVuSans-33" transform="translate(3022.5625 0)"/>
     <use xlink:href="#DejaVuSans-31" transform="translate(3086.185547 0)"/>
     <use xlink:href="#DejaVuSans-39" transform="translate(3149.808594 0)"/>
     <use xlink:href="#DejaVuSans-31" transform="translate(3213.431641 0)"/>
     <use xlink:href="#DejaVuSans-37" transform="translate(3277.054688 0)"/>
    </g>
   </g>
   <g id="legend_1">
    <g id="patch_8">
     <path d="M 685.971875 64.23625 
L 846.2 64.23625 
Q 848.2 64.23625 848.2 62.23625 
L 848.2 33.88 
Q 848.2 31.88 846.2 31.88 
L 685.971875 31.88 
Q 683.971875 31.88 683.971875 33.88 
L 683.971875 62.23625 
Q 683.971875 64.23625 685.971875 64.23625 
z
" style="fill: #ffffff; opacity: 0.8; stroke: #cccccc; stroke-linejoin: miter"/>
    </g>
    <g id="line2d_15">
     <path d="M 687.971875 39.978437 
L 697.971875 39.978437 
L 707.971875 39.978437 
" style="fill: none; stroke: #0000ff; stroke-width: 1.5; stroke-linecap: square"/>
    </g>
    <g id="text_17">
     <!-- UV Intensity (normalized) -->
     <g transform="translate(715.971875 43.478437) scale(0.1 -0.1)">
      <use xlink:href="#DejaVuSans-55"/>
      <use xlink:href="#DejaVuSans-56" transform="translate(73.193359 0)"/>
      <use xlink:href="#DejaVuSans-20" transform="translate(141.601562 0)"/>
      <use xlink:href="#DejaVuSans-49" transform="translate(173.388672 0)"/>
      <use xlink:href="#DejaVuSans-6e" transform="translate(202.880859 0)"/>
      <use xlink:href="#DejaVuSans-74" transform="translate(266.259766 0)"/>
      <use xlink:href="#DejaVuSans-65" transform="translate(305.46875 0)"/>
      <use xlink:href="#DejaVuSans-6e" transform="translate(366.992188 0)"/>
      <use xlink:href="#DejaVuSans-73" transform="translate(430.371094 0)"/>
      <use xlink:href="#DejaVuSans-69" transform="translate(482.470703 0)"/>
      <use xlink:href="#DejaVuSans-74" transform="translate(510.253906 0)"/>
      <use xlink:href="#DejaVuSans-79" transform="translate(549.462891 0)"/>
      <use xlink:href="#DejaVuSans-20" transform="translate(608.642578 0)"/>
      <use xlink:href="#DejaVuSans-28" transform="translate(640.429688 0)"/>
      <use xlink:href="#DejaVuSans-6e" transform="translate(679.443359 0)"/>
      <use xlink:href="#DejaVuSans-6f" transform="translate(742.822266 0)"/>
      <use xlink:href="#DejaVuSans-72" transform="translate(804.003906 0)"/>
      <use xlink:href="#DejaVuSans-6d" transform="translate(843.367188 0)"/>
      <use xlink:href="#DejaVuSans-61" transform="translate(940.779297 0)"/>
      <use xlink:href="#DejaVuSans-6c" transform="translate(1002.058594 0)"/>
      <use xlink:href="#DejaVuSans-69" transform="translate(1029.841797 0)"/>
      <use xlink:href="#DejaVuSans-7a" transform="translate(1057.625 0)"/>
      <use xlink:href="#DejaVuSans-65" transform="translate(1110.115234 0)"/>
      <use xlink:href="#DejaVuSans-64" transform="translate(1171.638672 0)"/>
      <use xlink:href="#DejaVuSans-29" transform="translate(1235.115234 0)"/>
     </g>
    </g>
    <g id="line2d_16">
     <path d="M 687.971875 54.656562 
L 697.971875 54.656562 
L 707.971875 54.656562 
" style="fill: none; stroke: #008000; stroke-width: 1.5; stroke-linecap: square"/>
    </g>
    <g id="text_18">
     <!-- MS Intensity (normalized) -->
     <g transform="translate(715.971875 58.156562) scale(0.1 -0.1)">
      <use xlink:href="#DejaVuSans-4d"/>
      <use xlink:href="#DejaVuSans-53" transform="translate(86.279297 0)"/>
      <use xlink:href="#DejaVuSans-20" transform="translate(149.755859 0)"/>
      <use xlink:href="#DejaVuSans-49" transform="translate(181.542969 0)"/>
      <use xlink:href="#DejaVuSans-6e" transform="translate(211.035156 0)"/>
      <use xlink:href="#DejaVuSans-74" transform="translate(274.414062 0)"/>
      <use xlink:href="#DejaVuSans-65" transform="translate(313.623047 0)"/>
      <use xlink:href="#DejaVuSans-6e" transform="translate(375.146484 0)"/>
      <use xlink:href="#DejaVuSans-73" transform="translate(438.525391 0)"/>
      <use xlink:href="#DejaVuSans-69" transform="translate(490.625 0)"/>
      <use xlink:href="#DejaVuSans-74" transform="translate(518.408203 0)"/>
      <use xlink:href="#DejaVuSans-79" transform="translate(557.617188 0)"/>
      <use xlink:href="#DejaVuSans-20" transform="translate(616.796875 0)"/>
      <use xlink:href="#DejaVuSans-28" transform="translate(648.583984 0)"/>
      <use xlink:href="#DejaVuSans-6e" transform="translate(687.597656 0)"/>
      <use xlink:href="#DejaVuSans-6f" transform="translate(750.976562 0)"/>
      <use xlink:href="#DejaVuSans-72" transform="translate(812.158203 0)"/>
      <use xlink:href="#DejaVuSans-6d" transform="translate(851.521484 0)"/>
      <use xlink:href="#DejaVuSans-61" transform="translate(948.933594 0)"/>
      <use xlink:href="#DejaVuSans-6c" transform="translate(1010.212891 0)"/>
      <use xlink:href="#DejaVuSans-69" transform="translate(1037.996094 0)"/>
      <use xlink:href="#DejaVuSans-7a" transform="translate(1065.779297 0)"/>
      <use xlink:href="#DejaVuSans-65" transform="translate(1118.269531 0)"/>
      <use xlink:href="#DejaVuSans-64" transform="translate(1179.792969 0)"/>
      <use xlink:href="#DejaVuSans-29" transform="translate(1243.269531 0)"/>
     </g>
    </g>
   </g>
  </g>
 </g>
 <defs>
  <clipPath id="paf5d308c2e">
   <rect x="47.72" y="26.88" width="805.48" height="507.16"/>
  </clipPath>
 </defs>
</svg>
