<?xml version="1.0" encoding="utf-8" standalone="no"?>
<!DOCTYPE svg PUBLIC "-//W3C//DTD SVG 1.1//EN"
  "http://www.w3.org/Graphics/SVG/1.1/DTD/svg11.dtd">
<svg xmlns:xlink="http://www.w3.org/1999/xlink" width="864pt" height="576pt" viewBox="0 0 864 576" xmlns="http://www.w3.org/2000/svg" version="1.1">
 <metadata>
  <rdf:RDF xmlns:dc="http://purl.org/dc/elements/1.1/" xmlns:cc="http://creativecommons.org/ns#" xmlns:rdf="http://www.w3.org/1999/02/22-rdf-syntax-ns#">
   <cc:Work>
    <dc:type rdf:resource="http://purl.org/dc/dcmitype/StillImage"/>
    <dc:date>2025-02-06T14:57:44.864246</dc:date>
    <dc:format>image/svg+xml</dc:format>
    <dc:creator>
     <cc:Agent>
      <dc:title>Matplotlib v3.10.0, https://matplotlib.org/</dc:title>
     </cc:Agent>
    </dc:creator>
   </cc:Work>
  </rdf:RDF>
 </metadata>
 <defs>
  <style type="text/css">*{stroke-linejoin: round; stroke-linecap: butt}</style>
 </defs>
 <g id="figure_1">
  <g id="patch_1">
   <path d="M 0 576 
L 864 576 
L 864 0 
L 0 0 
z
" style="fill: #ffffff"/>
  </g>
  <g id="axes_1">
   <g id="patch_2">
    <path d="M 47.72 534.04 
L 853.2 534.04 
L 853.2 26.88 
L 47.72 26.88 
z
" style="fill: #ffffff"/>
   </g>
   <g id="matplotlib.axis_1">
    <g id="xtick_1">
     <g id="line2d_1">
      <defs>
       <path id="m3c025f68f3" d="M 0 0 
L 0 3.5 
" style="stroke: #000000; stroke-width: 0.8"/>
      </defs>
      <g>
       <use xlink:href="#m3c025f68f3" x="83.100486" y="534.04" style="stroke: #000000; stroke-width: 0.8"/>
      </g>
     </g>
     <g id="text_1">
      <!-- 0 -->
      <g transform="translate(79.919236 548.638438) scale(0.1 -0.1)">
       <defs>
        <path id="DejaVuSans-30" d="M 2034 4250 
Q 1547 4250 1301 3770 
Q 1056 3291 1056 2328 
Q 1056 1369 1301 889 
Q 1547 409 2034 409 
Q 2525 409 2770 889 
Q 3016 1369 3016 2328 
Q 3016 3291 2770 3770 
Q 2525 4250 2034 4250 
z
M 2034 4750 
Q 2819 4750 3233 4129 
Q 3647 3509 3647 2328 
Q 3647 1150 3233 529 
Q 2819 -91 2034 -91 
Q 1250 -91 836 529 
Q 422 1150 422 2328 
Q 422 3509 836 4129 
Q 1250 4750 2034 4750 
z
" transform="scale(0.015625)"/>
       </defs>
       <use xlink:href="#DejaVuSans-30"/>
      </g>
     </g>
    </g>
    <g id="xtick_2">
     <g id="line2d_2">
      <g>
       <use xlink:href="#m3c025f68f3" x="229.795887" y="534.04" style="stroke: #000000; stroke-width: 0.8"/>
      </g>
     </g>
     <g id="text_2">
      <!-- 1 -->
      <g transform="translate(226.614637 548.638438) scale(0.1 -0.1)">
       <defs>
        <path id="DejaVuSans-31" d="M 794 531 
L 1825 531 
L 1825 4091 
L 703 3866 
L 703 4441 
L 1819 4666 
L 2450 4666 
L 2450 531 
L 3481 531 
L 3481 0 
L 794 0 
L 794 531 
z
" transform="scale(0.015625)"/>
       </defs>
       <use xlink:href="#DejaVuSans-31"/>
      </g>
     </g>
    </g>
    <g id="xtick_3">
     <g id="line2d_3">
      <g>
       <use xlink:href="#m3c025f68f3" x="376.491289" y="534.04" style="stroke: #000000; stroke-width: 0.8"/>
      </g>
     </g>
     <g id="text_3">
      <!-- 2 -->
      <g transform="translate(373.310039 548.638438) scale(0.1 -0.1)">
       <defs>
        <path id="DejaVuSans-32" d="M 1228 531 
L 3431 531 
L 3431 0 
L 469 0 
L 469 531 
Q 828 903 1448 1529 
Q 2069 2156 2228 2338 
Q 2531 2678 2651 2914 
Q 2772 3150 2772 3378 
Q 2772 3750 2511 3984 
Q 2250 4219 1831 4219 
Q 1534 4219 1204 4116 
Q 875 4013 500 3803 
L 500 4441 
Q 881 4594 1212 4672 
Q 1544 4750 1819 4750 
Q 2544 4750 2975 4387 
Q 3406 4025 3406 3419 
Q 3406 3131 3298 2873 
Q 3191 2616 2906 2266 
Q 2828 2175 2409 1742 
Q 1991 1309 1228 531 
z
" transform="scale(0.015625)"/>
       </defs>
       <use xlink:href="#DejaVuSans-32"/>
      </g>
     </g>
    </g>
    <g id="xtick_4">
     <g id="line2d_4">
      <g>
       <use xlink:href="#m3c025f68f3" x="523.18669" y="534.04" style="stroke: #000000; stroke-width: 0.8"/>
      </g>
     </g>
     <g id="text_4">
      <!-- 3 -->
      <g transform="translate(520.00544 548.638438) scale(0.1 -0.1)">
       <defs>
        <path id="DejaVuSans-33" d="M 2597 2516 
Q 3050 2419 3304 2112 
Q 3559 1806 3559 1356 
Q 3559 666 3084 287 
Q 2609 -91 1734 -91 
Q 1441 -91 1130 -33 
Q 819 25 488 141 
L 488 750 
Q 750 597 1062 519 
Q 1375 441 1716 441 
Q 2309 441 2620 675 
Q 2931 909 2931 1356 
Q 2931 1769 2642 2001 
Q 2353 2234 1838 2234 
L 1294 2234 
L 1294 2753 
L 1863 2753 
Q 2328 2753 2575 2939 
Q 2822 3125 2822 3475 
Q 2822 3834 2567 4026 
Q 2313 4219 1838 4219 
Q 1578 4219 1281 4162 
Q 984 4106 628 3988 
L 628 4550 
Q 988 4650 1302 4700 
Q 1616 4750 1894 4750 
Q 2613 4750 3031 4423 
Q 3450 4097 3450 3541 
Q 3450 3153 3228 2886 
Q 3006 2619 2597 2516 
z
" transform="scale(0.015625)"/>
       </defs>
       <use xlink:href="#DejaVuSans-33"/>
      </g>
     </g>
    </g>
    <g id="xtick_5">
     <g id="line2d_5">
      <g>
       <use xlink:href="#m3c025f68f3" x="669.882092" y="534.04" style="stroke: #000000; stroke-width: 0.8"/>
      </g>
     </g>
     <g id="text_5">
      <!-- 4 -->
      <g transform="translate(666.700842 548.638438) scale(0.1 -0.1)">
       <defs>
        <path id="DejaVuSans-34" d="M 2419 4116 
L 825 1625 
L 2419 1625 
L 2419 4116 
z
M 2253 4666 
L 3047 4666 
L 3047 1625 
L 3713 1625 
L 3713 1100 
L 3047 1100 
L 3047 0 
L 2419 0 
L 2419 1100 
L 313 1100 
L 313 1709 
L 2253 4666 
z
" transform="scale(0.015625)"/>
       </defs>
       <use xlink:href="#DejaVuSans-34"/>
      </g>
     </g>
    </g>
    <g id="xtick_6">
     <g id="line2d_6">
      <g>
       <use xlink:href="#m3c025f68f3" x="816.577493" y="534.04" style="stroke: #000000; stroke-width: 0.8"/>
      </g>
     </g>
     <g id="text_6">
      <!-- 5 -->
      <g transform="translate(813.396243 548.638438) scale(0.1 -0.1)">
       <defs>
        <path id="DejaVuSans-35" d="M 691 4666 
L 3169 4666 
L 3169 4134 
L 1269 4134 
L 1269 2991 
Q 1406 3038 1543 3061 
Q 1681 3084 1819 3084 
Q 2600 3084 3056 2656 
Q 3513 2228 3513 1497 
Q 3513 744 3044 326 
Q 2575 -91 1722 -91 
Q 1428 -91 1123 -41 
Q 819 9 494 109 
L 494 744 
Q 775 591 1075 516 
Q 1375 441 1709 441 
Q 2250 441 2565 725 
Q 2881 1009 2881 1497 
Q 2881 1984 2565 2268 
Q 2250 2553 1709 2553 
Q 1456 2553 1204 2497 
Q 953 2441 691 2322 
L 691 4666 
z
" transform="scale(0.015625)"/>
       </defs>
       <use xlink:href="#DejaVuSans-35"/>
      </g>
     </g>
    </g>
    <g id="text_7">
     <!-- Retention Time (min) -->
     <g transform="translate(397.61 562.316562) scale(0.1 -0.1)">
      <defs>
       <path id="DejaVuSans-52" d="M 2841 2188 
Q 3044 2119 3236 1894 
Q 3428 1669 3622 1275 
L 4263 0 
L 3584 0 
L 2988 1197 
Q 2756 1666 2539 1819 
Q 2322 1972 1947 1972 
L 1259 1972 
L 1259 0 
L 628 0 
L 628 4666 
L 2053 4666 
Q 2853 4666 3247 4331 
Q 3641 3997 3641 3322 
Q 3641 2881 3436 2590 
Q 3231 2300 2841 2188 
z
M 1259 4147 
L 1259 2491 
L 2053 2491 
Q 2509 2491 2742 2702 
Q 2975 2913 2975 3322 
Q 2975 3731 2742 3939 
Q 2509 4147 2053 4147 
L 1259 4147 
z
" transform="scale(0.015625)"/>
       <path id="DejaVuSans-65" d="M 3597 1894 
L 3597 1613 
L 953 1613 
Q 991 1019 1311 708 
Q 1631 397 2203 397 
Q 2534 397 2845 478 
Q 3156 559 3463 722 
L 3463 178 
Q 3153 47 2828 -22 
Q 2503 -91 2169 -91 
Q 1331 -91 842 396 
Q 353 884 353 1716 
Q 353 2575 817 3079 
Q 1281 3584 2069 3584 
Q 2775 3584 3186 3129 
Q 3597 2675 3597 1894 
z
M 3022 2063 
Q 3016 2534 2758 2815 
Q 2500 3097 2075 3097 
Q 1594 3097 1305 2825 
Q 1016 2553 972 2059 
L 3022 2063 
z
" transform="scale(0.015625)"/>
       <path id="DejaVuSans-74" d="M 1172 4494 
L 1172 3500 
L 2356 3500 
L 2356 3053 
L 1172 3053 
L 1172 1153 
Q 1172 725 1289 603 
Q 1406 481 1766 481 
L 2356 481 
L 2356 0 
L 1766 0 
Q 1100 0 847 248 
Q 594 497 594 1153 
L 594 3053 
L 172 3053 
L 172 3500 
L 594 3500 
L 594 4494 
L 1172 4494 
z
" transform="scale(0.015625)"/>
       <path id="DejaVuSans-6e" d="M 3513 2113 
L 3513 0 
L 2938 0 
L 2938 2094 
Q 2938 2591 2744 2837 
Q 2550 3084 2163 3084 
Q 1697 3084 1428 2787 
Q 1159 2491 1159 1978 
L 1159 0 
L 581 0 
L 581 3500 
L 1159 3500 
L 1159 2956 
Q 1366 3272 1645 3428 
Q 1925 3584 2291 3584 
Q 2894 3584 3203 3211 
Q 3513 2838 3513 2113 
z
" transform="scale(0.015625)"/>
       <path id="DejaVuSans-69" d="M 603 3500 
L 1178 3500 
L 1178 0 
L 603 0 
L 603 3500 
z
M 603 4863 
L 1178 4863 
L 1178 4134 
L 603 4134 
L 603 4863 
z
" transform="scale(0.015625)"/>
       <path id="DejaVuSans-6f" d="M 1959 3097 
Q 1497 3097 1228 2736 
Q 959 2375 959 1747 
Q 959 1119 1226 758 
Q 1494 397 1959 397 
Q 2419 397 2687 759 
Q 2956 1122 2956 1747 
Q 2956 2369 2687 2733 
Q 2419 3097 1959 3097 
z
M 1959 3584 
Q 2709 3584 3137 3096 
Q 3566 2609 3566 1747 
Q 3566 888 3137 398 
Q 2709 -91 1959 -91 
Q 1206 -91 779 398 
Q 353 888 353 1747 
Q 353 2609 779 3096 
Q 1206 3584 1959 3584 
z
" transform="scale(0.015625)"/>
       <path id="DejaVuSans-20" transform="scale(0.015625)"/>
       <path id="DejaVuSans-54" d="M -19 4666 
L 3928 4666 
L 3928 4134 
L 2272 4134 
L 2272 0 
L 1638 0 
L 1638 4134 
L -19 4134 
L -19 4666 
z
" transform="scale(0.015625)"/>
       <path id="DejaVuSans-6d" d="M 3328 2828 
Q 3544 3216 3844 3400 
Q 4144 3584 4550 3584 
Q 5097 3584 5394 3201 
Q 5691 2819 5691 2113 
L 5691 0 
L 5113 0 
L 5113 2094 
Q 5113 2597 4934 2840 
Q 4756 3084 4391 3084 
Q 3944 3084 3684 2787 
Q 3425 2491 3425 1978 
L 3425 0 
L 2847 0 
L 2847 2094 
Q 2847 2600 2669 2842 
Q 2491 3084 2119 3084 
Q 1678 3084 1418 2786 
Q 1159 2488 1159 1978 
L 1159 0 
L 581 0 
L 581 3500 
L 1159 3500 
L 1159 2956 
Q 1356 3278 1631 3431 
Q 1906 3584 2284 3584 
Q 2666 3584 2933 3390 
Q 3200 3197 3328 2828 
z
" transform="scale(0.015625)"/>
       <path id="DejaVuSans-28" d="M 1984 4856 
Q 1566 4138 1362 3434 
Q 1159 2731 1159 2009 
Q 1159 1288 1364 580 
Q 1569 -128 1984 -844 
L 1484 -844 
Q 1016 -109 783 600 
Q 550 1309 550 2009 
Q 550 2706 781 3412 
Q 1013 4119 1484 4856 
L 1984 4856 
z
" transform="scale(0.015625)"/>
       <path id="DejaVuSans-29" d="M 513 4856 
L 1013 4856 
Q 1481 4119 1714 3412 
Q 1947 2706 1947 2009 
Q 1947 1309 1714 600 
Q 1481 -109 1013 -844 
L 513 -844 
Q 928 -128 1133 580 
Q 1338 1288 1338 2009 
Q 1338 2731 1133 3434 
Q 928 4138 513 4856 
z
" transform="scale(0.015625)"/>
      </defs>
      <use xlink:href="#DejaVuSans-52"/>
      <use xlink:href="#DejaVuSans-65" transform="translate(64.982422 0)"/>
      <use xlink:href="#DejaVuSans-74" transform="translate(126.505859 0)"/>
      <use xlink:href="#DejaVuSans-65" transform="translate(165.714844 0)"/>
      <use xlink:href="#DejaVuSans-6e" transform="translate(227.238281 0)"/>
      <use xlink:href="#DejaVuSans-74" transform="translate(290.617188 0)"/>
      <use xlink:href="#DejaVuSans-69" transform="translate(329.826172 0)"/>
      <use xlink:href="#DejaVuSans-6f" transform="translate(357.609375 0)"/>
      <use xlink:href="#DejaVuSans-6e" transform="translate(418.791016 0)"/>
      <use xlink:href="#DejaVuSans-20" transform="translate(482.169922 0)"/>
      <use xlink:href="#DejaVuSans-54" transform="translate(513.957031 0)"/>
      <use xlink:href="#DejaVuSans-69" transform="translate(571.916016 0)"/>
      <use xlink:href="#DejaVuSans-6d" transform="translate(599.699219 0)"/>
      <use xlink:href="#DejaVuSans-65" transform="translate(697.111328 0)"/>
      <use xlink:href="#DejaVuSans-20" transform="translate(758.634766 0)"/>
      <use xlink:href="#DejaVuSans-28" transform="translate(790.421875 0)"/>
      <use xlink:href="#DejaVuSans-6d" transform="translate(829.435547 0)"/>
      <use xlink:href="#DejaVuSans-69" transform="translate(926.847656 0)"/>
      <use xlink:href="#DejaVuSans-6e" transform="translate(954.630859 0)"/>
      <use xlink:href="#DejaVuSans-29" transform="translate(1018.009766 0)"/>
     </g>
    </g>
   </g>
   <g id="matplotlib.axis_2">
    <g id="ytick_1">
     <g id="line2d_7">
      <defs>
       <path id="mc034848cb1" d="M 0 0 
L -3.5 0 
" style="stroke: #000000; stroke-width: 0.8"/>
      </defs>
      <g>
       <use xlink:href="#mc034848cb1" x="47.72" y="510.987273" style="stroke: #000000; stroke-width: 0.8"/>
      </g>
     </g>
     <g id="text_8">
      <!-- 0.0 -->
      <g style="fill: #0000ff" transform="translate(24.816875 514.786491) scale(0.1 -0.1)">
       <defs>
        <path id="DejaVuSans-2e" d="M 684 794 
L 1344 794 
L 1344 0 
L 684 0 
L 684 794 
z
" transform="scale(0.015625)"/>
       </defs>
       <use xlink:href="#DejaVuSans-30"/>
       <use xlink:href="#DejaVuSans-2e" transform="translate(63.623047 0)"/>
       <use xlink:href="#DejaVuSans-30" transform="translate(95.410156 0)"/>
      </g>
     </g>
    </g>
    <g id="ytick_2">
     <g id="line2d_8">
      <g>
       <use xlink:href="#mc034848cb1" x="47.72" y="418.776364" style="stroke: #000000; stroke-width: 0.8"/>
      </g>
     </g>
     <g id="text_9">
      <!-- 0.5 -->
      <g style="fill: #0000ff" transform="translate(24.816875 422.575582) scale(0.1 -0.1)">
       <use xlink:href="#DejaVuSans-30"/>
       <use xlink:href="#DejaVuSans-2e" transform="translate(63.623047 0)"/>
       <use xlink:href="#DejaVuSans-35" transform="translate(95.410156 0)"/>
      </g>
     </g>
    </g>
    <g id="ytick_3">
     <g id="line2d_9">
      <g>
       <use xlink:href="#mc034848cb1" x="47.72" y="326.565455" style="stroke: #000000; stroke-width: 0.8"/>
      </g>
     </g>
     <g id="text_10">
      <!-- 1.0 -->
      <g style="fill: #0000ff" transform="translate(24.816875 330.364673) scale(0.1 -0.1)">
       <use xlink:href="#DejaVuSans-31"/>
       <use xlink:href="#DejaVuSans-2e" transform="translate(63.623047 0)"/>
       <use xlink:href="#DejaVuSans-30" transform="translate(95.410156 0)"/>
      </g>
     </g>
    </g>
    <g id="ytick_4">
     <g id="line2d_10">
      <g>
       <use xlink:href="#mc034848cb1" x="47.72" y="234.354545" style="stroke: #000000; stroke-width: 0.8"/>
      </g>
     </g>
     <g id="text_11">
      <!-- 1.5 -->
      <g style="fill: #0000ff" transform="translate(24.816875 238.153764) scale(0.1 -0.1)">
       <use xlink:href="#DejaVuSans-31"/>
       <use xlink:href="#DejaVuSans-2e" transform="translate(63.623047 0)"/>
       <use xlink:href="#DejaVuSans-35" transform="translate(95.410156 0)"/>
      </g>
     </g>
    </g>
    <g id="ytick_5">
     <g id="line2d_11">
      <g>
       <use xlink:href="#mc034848cb1" x="47.72" y="142.143636" style="stroke: #000000; stroke-width: 0.8"/>
      </g>
     </g>
     <g id="text_12">
      <!-- 2.0 -->
      <g style="fill: #0000ff" transform="translate(24.816875 145.942855) scale(0.1 -0.1)">
       <use xlink:href="#DejaVuSans-32"/>
       <use xlink:href="#DejaVuSans-2e" transform="translate(63.623047 0)"/>
       <use xlink:href="#DejaVuSans-30" transform="translate(95.410156 0)"/>
      </g>
     </g>
    </g>
    <g id="ytick_6">
     <g id="line2d_12">
      <g>
       <use xlink:href="#mc034848cb1" x="47.72" y="49.932727" style="stroke: #000000; stroke-width: 0.8"/>
      </g>
     </g>
     <g id="text_13">
      <!-- 2.5 -->
      <g style="fill: #0000ff" transform="translate(24.816875 53.731946) scale(0.1 -0.1)">
       <use xlink:href="#DejaVuSans-32"/>
       <use xlink:href="#DejaVuSans-2e" transform="translate(63.623047 0)"/>
       <use xlink:href="#DejaVuSans-35" transform="translate(95.410156 0)"/>
      </g>
     </g>
    </g>
    <g id="text_14">
     <!-- Normalized Intensity -->
     <g style="fill: #0000ff" transform="translate(18.737187 332.167031) rotate(-90) scale(0.1 -0.1)">
      <defs>
       <path id="DejaVuSans-4e" d="M 628 4666 
L 1478 4666 
L 3547 763 
L 3547 4666 
L 4159 4666 
L 4159 0 
L 3309 0 
L 1241 3903 
L 1241 0 
L 628 0 
L 628 4666 
z
" transform="scale(0.015625)"/>
       <path id="DejaVuSans-72" d="M 2631 2963 
Q 2534 3019 2420 3045 
Q 2306 3072 2169 3072 
Q 1681 3072 1420 2755 
Q 1159 2438 1159 1844 
L 1159 0 
L 581 0 
L 581 3500 
L 1159 3500 
L 1159 2956 
Q 1341 3275 1631 3429 
Q 1922 3584 2338 3584 
Q 2397 3584 2469 3576 
Q 2541 3569 2628 3553 
L 2631 2963 
z
" transform="scale(0.015625)"/>
       <path id="DejaVuSans-61" d="M 2194 1759 
Q 1497 1759 1228 1600 
Q 959 1441 959 1056 
Q 959 750 1161 570 
Q 1363 391 1709 391 
Q 2188 391 2477 730 
Q 2766 1069 2766 1631 
L 2766 1759 
L 2194 1759 
z
M 3341 1997 
L 3341 0 
L 2766 0 
L 2766 531 
Q 2569 213 2275 61 
Q 1981 -91 1556 -91 
Q 1019 -91 701 211 
Q 384 513 384 1019 
Q 384 1609 779 1909 
Q 1175 2209 1959 2209 
L 2766 2209 
L 2766 2266 
Q 2766 2663 2505 2880 
Q 2244 3097 1772 3097 
Q 1472 3097 1187 3025 
Q 903 2953 641 2809 
L 641 3341 
Q 956 3463 1253 3523 
Q 1550 3584 1831 3584 
Q 2591 3584 2966 3190 
Q 3341 2797 3341 1997 
z
" transform="scale(0.015625)"/>
       <path id="DejaVuSans-6c" d="M 603 4863 
L 1178 4863 
L 1178 0 
L 603 0 
L 603 4863 
z
" transform="scale(0.015625)"/>
       <path id="DejaVuSans-7a" d="M 353 3500 
L 3084 3500 
L 3084 2975 
L 922 459 
L 3084 459 
L 3084 0 
L 275 0 
L 275 525 
L 2438 3041 
L 353 3041 
L 353 3500 
z
" transform="scale(0.015625)"/>
       <path id="DejaVuSans-64" d="M 2906 2969 
L 2906 4863 
L 3481 4863 
L 3481 0 
L 2906 0 
L 2906 525 
Q 2725 213 2448 61 
Q 2172 -91 1784 -91 
Q 1150 -91 751 415 
Q 353 922 353 1747 
Q 353 2572 751 3078 
Q 1150 3584 1784 3584 
Q 2172 3584 2448 3432 
Q 2725 3281 2906 2969 
z
M 947 1747 
Q 947 1113 1208 752 
Q 1469 391 1925 391 
Q 2381 391 2643 752 
Q 2906 1113 2906 1747 
Q 2906 2381 2643 2742 
Q 2381 3103 1925 3103 
Q 1469 3103 1208 2742 
Q 947 2381 947 1747 
z
" transform="scale(0.015625)"/>
       <path id="DejaVuSans-49" d="M 628 4666 
L 1259 4666 
L 1259 0 
L 628 0 
L 628 4666 
z
" transform="scale(0.015625)"/>
       <path id="DejaVuSans-73" d="M 2834 3397 
L 2834 2853 
Q 2591 2978 2328 3040 
Q 2066 3103 1784 3103 
Q 1356 3103 1142 2972 
Q 928 2841 928 2578 
Q 928 2378 1081 2264 
Q 1234 2150 1697 2047 
L 1894 2003 
Q 2506 1872 2764 1633 
Q 3022 1394 3022 966 
Q 3022 478 2636 193 
Q 2250 -91 1575 -91 
Q 1294 -91 989 -36 
Q 684 19 347 128 
L 347 722 
Q 666 556 975 473 
Q 1284 391 1588 391 
Q 1994 391 2212 530 
Q 2431 669 2431 922 
Q 2431 1156 2273 1281 
Q 2116 1406 1581 1522 
L 1381 1569 
Q 847 1681 609 1914 
Q 372 2147 372 2553 
Q 372 3047 722 3315 
Q 1072 3584 1716 3584 
Q 2034 3584 2315 3537 
Q 2597 3491 2834 3397 
z
" transform="scale(0.015625)"/>
       <path id="DejaVuSans-79" d="M 2059 -325 
Q 1816 -950 1584 -1140 
Q 1353 -1331 966 -1331 
L 506 -1331 
L 506 -850 
L 844 -850 
Q 1081 -850 1212 -737 
Q 1344 -625 1503 -206 
L 1606 56 
L 191 3500 
L 800 3500 
L 1894 763 
L 2988 3500 
L 3597 3500 
L 2059 -325 
z
" transform="scale(0.015625)"/>
      </defs>
      <use xlink:href="#DejaVuSans-4e"/>
      <use xlink:href="#DejaVuSans-6f" transform="translate(74.804688 0)"/>
      <use xlink:href="#DejaVuSans-72" transform="translate(135.986328 0)"/>
      <use xlink:href="#DejaVuSans-6d" transform="translate(175.349609 0)"/>
      <use xlink:href="#DejaVuSans-61" transform="translate(272.761719 0)"/>
      <use xlink:href="#DejaVuSans-6c" transform="translate(334.041016 0)"/>
      <use xlink:href="#DejaVuSans-69" transform="translate(361.824219 0)"/>
      <use xlink:href="#DejaVuSans-7a" transform="translate(389.607422 0)"/>
      <use xlink:href="#DejaVuSans-65" transform="translate(442.097656 0)"/>
      <use xlink:href="#DejaVuSans-64" transform="translate(503.621094 0)"/>
      <use xlink:href="#DejaVuSans-20" transform="translate(567.097656 0)"/>
      <use xlink:href="#DejaVuSans-49" transform="translate(598.884766 0)"/>
      <use xlink:href="#DejaVuSans-6e" transform="translate(628.376953 0)"/>
      <use xlink:href="#DejaVuSans-74" transform="translate(691.755859 0)"/>
      <use xlink:href="#DejaVuSans-65" transform="translate(730.964844 0)"/>
      <use xlink:href="#DejaVuSans-6e" transform="translate(792.488281 0)"/>
      <use xlink:href="#DejaVuSans-73" transform="translate(855.867188 0)"/>
      <use xlink:href="#DejaVuSans-69" transform="translate(907.966797 0)"/>
      <use xlink:href="#DejaVuSans-74" transform="translate(935.75 0)"/>
      <use xlink:href="#DejaVuSans-79" transform="translate(974.958984 0)"/>
     </g>
    </g>
   </g>
   <g id="line2d_13">
    <path d="M 84.332727 510.987273 
L 94.112421 510.901277 
L 103.892114 510.589104 
L 112.449346 510.617546 
L 124.673963 510.734574 
L 144.23335 510.647384 
L 145.455811 510.618197 
L 146.678273 510.475309 
L 147.900735 510.070995 
L 149.123196 509.341579 
L 150.345658 508.461572 
L 151.56812 507.773789 
L 152.790581 507.537336 
L 154.013043 507.7667 
L 157.680428 509.336095 
L 158.90289 509.66342 
L 161.347813 509.952018 
L 163.792736 509.92119 
L 165.015198 509.713192 
L 166.23766 509.336337 
L 169.905045 507.902184 
L 171.127506 507.601523 
L 172.349968 507.434405 
L 174.794891 507.417634 
L 177.239815 507.792011 
L 179.684738 508.593582 
L 182.129662 509.479269 
L 183.352123 509.77459 
L 189.464432 510.597019 
L 190.686893 510.541069 
L 194.354278 509.872113 
L 195.57674 509.815941 
L 198.021663 510.0156 
L 201.689048 510.393067 
L 205.356433 510.456629 
L 216.358589 510.315655 
L 220.025974 510.202809 
L 231.028129 510.408132 
L 233.473052 510.0926 
L 235.917975 509.766982 
L 238.362899 509.798466 
L 244.475207 510.375875 
L 250.587516 510.505946 
L 266.479517 510.604417 
L 311.710599 510.517273 
L 323.935216 510.245569 
L 331.269986 510.416555 
L 341.04968 510.426857 
L 342.272141 510.203774 
L 343.494603 509.370038 
L 344.717065 507.452215 
L 347.161988 501.505838 
L 348.38445 499.570434 
L 349.606912 499.335041 
L 350.829373 500.569335 
L 353.274297 504.560755 
L 354.496758 506.182051 
L 355.71922 507.298918 
L 356.941682 507.983672 
L 358.164143 508.376854 
L 360.609067 508.799759 
L 365.498913 509.417734 
L 370.38876 509.729679 
L 377.72353 509.922002 
L 385.0583 509.942053 
L 387.503224 509.639767 
L 388.725685 509.213701 
L 389.948147 508.405649 
L 391.170609 507.017243 
L 392.39307 504.854176 
L 394.837994 499.124161 
L 396.060455 497.284292 
L 397.282917 497.156141 
L 398.505379 498.585677 
L 400.950302 503.011388 
L 402.172764 504.741892 
L 403.395225 505.946211 
L 404.617687 506.777265 
L 407.06261 507.900173 
L 409.507534 508.651371 
L 411.952457 509.120069 
L 414.39738 509.387584 
L 419.287227 509.59605 
L 421.732151 509.485946 
L 422.954612 509.223367 
L 425.399536 508.452976 
L 426.621997 508.255037 
L 427.844459 508.304153 
L 430.289382 508.856611 
L 432.734306 509.392775 
L 435.179229 509.688322 
L 437.624152 509.723336 
L 438.846614 509.397104 
L 440.069076 508.118442 
L 441.291537 504.719895 
L 442.513999 498.244646 
L 444.958922 480.174022 
L 446.181384 474.150476 
L 447.403846 472.912709 
L 448.626307 476.054721 
L 449.848769 481.770518 
L 451.071231 488.12324 
L 452.293693 493.819273 
L 453.516154 498.318182 
L 454.738616 501.602225 
L 455.961078 503.899832 
L 457.183539 505.490806 
L 458.406001 506.609899 
L 459.628463 507.418038 
L 460.850924 508.007538 
L 462.073386 508.422402 
L 463.295848 508.68603 
L 464.518309 508.813525 
L 465.740771 508.785177 
L 466.963233 508.545819 
L 469.408156 507.648462 
L 470.630618 507.407634 
L 471.853079 507.511193 
L 474.298003 508.397623 
L 476.742926 509.232816 
L 479.187849 509.625652 
L 480.410311 509.641062 
L 481.632773 509.222435 
L 482.855234 506.406244 
L 484.077696 495.726795 
L 485.300158 470.133157 
L 486.52262 428.32643 
L 487.745081 380.071093 
L 488.967543 341.880243 
L 490.190005 326.565455 
L 491.412466 336.217561 
L 492.634928 363.18892 
L 495.079851 426.480601 
L 496.302313 449.733286 
L 497.524775 465.856256 
L 498.747236 476.648283 
L 499.969698 484.128269 
L 501.19216 489.709614 
L 502.414621 494.111457 
L 503.637083 497.606929 
L 504.859545 500.302928 
L 506.082006 502.312801 
L 507.304468 503.795497 
L 508.52693 504.911058 
L 509.749391 505.77555 
L 510.971853 506.456668 
L 512.194315 506.986565 
L 513.416776 507.359578 
L 514.639238 507.539392 
L 517.084161 507.403179 
L 518.306623 507.341699 
L 519.529085 507.43854 
L 521.974008 507.875627 
L 524.418932 507.97601 
L 526.863855 507.993141 
L 529.308778 508.368795 
L 532.976163 509.12865 
L 536.643548 509.563149 
L 541.533395 509.81809 
L 550.090627 509.962818 
L 563.537705 510.145449 
L 573.317399 510.276231 
L 596.544171 510.354681 
L 602.656479 510.361177 
L 607.546326 510.280048 
L 618.548481 510.400024 
L 627.105713 510.338771 
L 640.552791 510.151837 
L 650.332484 510.32662 
L 711.455568 510.548302 
L 718.790338 510.536757 
L 740.794649 510.648689 
L 767.688806 510.671593 
L 805.585118 510.505205 
L 810.474964 510.601036 
L 816.587273 510.677662 
L 816.587273 510.677662 
" clip-path="url(#pdb96477552)" style="fill: none; stroke: #0000ff; stroke-width: 1.5; stroke-linecap: square"/>
   </g>
   <g id="line2d_14">
    <path d="M 91.361637 234.350806 
L 203.002461 234.339654 
L 345.95224 234.250885 
L 345.95224 234.153034 
L 346.295752 234.120743 
L 346.295752 233.954108 
L 346.636085 233.929988 
L 346.636085 233.610463 
L 346.983998 233.648114 
L 346.983998 233.299429 
L 347.325798 233.391668 
L 347.325798 232.998481 
L 347.66662 233.258297 
L 347.66662 232.771594 
L 348.003286 233.087894 
L 348.003286 232.610175 
L 348.339219 232.984619 
L 348.339219 232.510549 
L 348.672462 232.94679 
L 348.672462 232.480107 
L 349.003993 232.920478 
L 349.003993 232.443145 
L 349.335525 232.914852 
L 349.335525 232.404159 
L 349.669013 232.836938 
L 349.669013 232.321735 
L 349.999566 232.80418 
L 349.999566 232.303987 
L 350.330364 232.803861 
L 350.330364 232.382348 
L 350.660429 232.939992 
L 350.660429 232.447271 
L 350.991227 232.894607 
L 350.991227 232.479841 
L 351.320803 232.865327 
L 351.320803 232.407534 
L 351.650378 232.86996 
L 351.650378 232.34788 
L 351.986066 232.780076 
L 351.986066 232.259409 
L 352.31662 232.676801 
L 352.31662 232.181581 
L 352.646685 232.67373 
L 352.646685 232.167635 
L 352.977727 232.736728 
L 352.977727 232.278352 
L 353.308281 232.78364 
L 353.308281 232.297971 
L 353.639568 232.793566 
L 353.639568 232.280822 
L 353.970855 232.751076 
L 353.970855 232.267946 
L 354.301898 232.776235 
L 354.301898 232.317061 
L 354.633674 232.808338 
L 354.633674 232.31292 
L 354.965695 232.819427 
L 354.965695 232.407959 
L 355.30016 232.890459 
L 355.30016 232.417123 
L 355.63267 232.941982 
L 355.63267 232.415868 
L 355.966891 232.870632 
L 355.966891 232.34048 
L 356.300623 232.858071 
L 356.300623 232.420184 
L 356.633866 232.949871 
L 356.633866 232.486929 
L 356.975177 233.00904 
L 356.975177 232.555854 
L 357.309887 232.971117 
L 357.309887 232.629468 
L 357.644842 233.123945 
L 357.644842 232.721814 
L 357.980285 233.127268 
L 357.980285 232.751386 
L 358.320618 233.084673 
L 358.320618 232.585684 
L 358.658751 233.029648 
L 358.658751 232.677512 
L 358.995417 233.062991 
L 358.995417 232.72021 
L 359.332328 233.211172 
L 359.332328 232.700704 
L 359.668994 233.088746 
L 359.668994 232.755535 
L 360.00566 233.101503 
L 360.00566 232.683132 
L 360.34477 233.152206 
L 360.34477 232.835579 
L 360.683637 233.199099 
L 360.683637 232.895337 
L 361.024704 233.322025 
L 361.024704 233.002708 
L 361.364059 233.329052 
L 361.364059 232.940865 
L 361.704148 233.243188 
L 361.704148 232.874408 
L 362.050593 233.234025 
L 362.050593 232.919301 
L 362.392638 233.314902 
L 362.392638 233.066609 
L 362.734194 233.445427 
L 362.734194 233.137907 
L 363.076239 233.459892 
L 363.076239 233.141615 
L 363.416817 233.41636 
L 363.416817 233.150121 
L 363.757883 233.433141 
L 363.757883 233.138689 
L 364.099684 233.44468 
L 364.099684 233.153175 
L 364.440017 233.415504 
L 364.440017 233.119906 
L 364.782062 233.41357 
L 364.782062 233.13321 
L 365.124351 233.428658 
L 365.124351 233.183684 
L 365.46664 233.495476 
L 365.46664 233.282953 
L 365.824822 233.55121 
L 365.824822 233.263195 
L 366.166377 233.516628 
L 366.166377 233.246216 
L 366.506711 233.458582 
L 366.506711 233.242478 
L 366.849245 233.528483 
L 366.849245 233.274673 
L 367.197402 233.562905 
L 367.197402 233.366119 
L 367.537735 233.609202 
L 367.537735 233.414955 
L 367.880024 233.689521 
L 367.880024 233.45714 
L 368.222558 233.691766 
L 368.222558 233.521689 
L 368.568515 233.706076 
L 368.568515 233.507124 
L 368.911048 233.744858 
L 368.911048 233.532986 
L 369.59636 233.769541 
L 369.59636 233.607402 
L 369.938894 233.802314 
L 369.938894 233.64199 
L 370.278739 233.784022 
L 370.278739 233.607845 
L 370.620783 233.76926 
L 370.620783 233.616378 
L 370.963806 233.801169 
L 370.963806 233.635355 
L 371.304384 233.82402 
L 371.304384 233.676501 
L 371.647162 233.848608 
L 371.647162 233.687586 
L 371.989696 233.860139 
L 371.989696 233.673836 
L 372.337608 233.837946 
L 372.337608 233.669227 
L 372.678431 233.82229 
L 372.678431 233.667683 
L 373.021698 233.848933 
L 373.021698 233.678731 
L 373.363743 233.844761 
L 373.363743 233.710089 
L 373.705543 233.872824 
L 373.705543 233.725041 
L 374.047832 233.888966 
L 374.047832 233.744094 
L 374.390855 233.88703 
L 374.390855 233.732942 
L 374.733878 233.888273 
L 374.733878 233.763182 
L 375.075923 233.909407 
L 375.075923 233.775525 
L 375.418701 233.930626 
L 375.418701 233.813178 
L 375.76099 233.942657 
L 375.76099 233.786642 
L 376.103279 233.907848 
L 376.103279 233.766268 
L 376.446302 233.876752 
L 376.446302 233.755568 
L 376.789569 233.909921 
L 376.789569 233.809312 
L 377.132592 233.937144 
L 377.132592 233.809632 
L 377.480994 233.916882 
L 377.480994 233.794263 
L 377.823039 233.897053 
L 377.823039 233.77131 
L 378.50884 233.919077 
L 378.50884 233.818515 
L 378.852351 233.957875 
L 378.852351 233.849989 
L 379.193174 233.96784 
L 379.193174 233.83944 
L 379.538152 233.962813 
L 379.538152 233.83838 
L 380.222975 233.97676 
L 380.222975 233.844867 
L 380.565998 233.948323 
L 380.565998 233.833629 
L 381.257178 233.941773 
L 381.257178 233.849031 
L 381.600934 233.96468 
L 381.600934 233.852044 
L 382.286491 233.972301 
L 382.286491 233.909705 
L 382.633425 234.027497 
L 382.633425 233.933452 
L 383.318982 233.994044 
L 383.318982 233.897649 
L 384.004294 234.025978 
L 384.004294 233.928898 
L 384.691073 234.029781 
L 384.691073 233.942776 
L 385.03434 234.048112 
L 385.03434 233.948411 
L 385.723075 234.024498 
L 385.723075 233.935623 
L 386.410098 234.033736 
L 386.410098 233.931825 
L 387.096388 234.013557 
L 387.096388 233.947178 
L 387.785612 234.084315 
L 387.785612 234.016835 
L 388.470924 234.119598 
L 388.470924 234.053793 
L 389.154769 234.143338 
L 389.154769 234.074248 
L 390.181882 234.201614 
L 390.181882 234.143834 
L 391.209727 234.216955 
L 391.209727 234.179463 
L 392.91824 234.272264 
L 392.91824 234.249361 
L 396.923758 234.329293 
L 406.175103 234.228583 
L 409.178447 234.228143 
L 409.178447 234.230768 
L 410.516309 234.269192 
L 410.516309 234.234988 
L 412.876149 234.194398 
L 415.932792 234.255628 
L 415.932792 234.210096 
L 416.956237 234.194746 
L 425.870917 234.040547 
L 425.870917 233.918837 
L 426.213451 233.983437 
L 426.213451 233.803896 
L 426.555495 233.886924 
L 426.555495 233.73709 
L 426.901941 233.834239 
L 426.901941 233.649842 
L 427.24423 233.804331 
L 427.24423 233.611797 
L 427.586275 233.755105 
L 427.586275 233.600177 
L 427.927831 233.787561 
L 427.927831 233.600755 
L 428.27501 233.799524 
L 428.27501 233.631009 
L 428.61681 233.785507 
L 428.61681 233.584241 
L 428.958611 233.780768 
L 428.958611 233.621207 
L 429.300411 233.800423 
L 429.300411 233.643026 
L 429.642211 233.836019 
L 429.642211 233.686435 
L 429.984011 233.840966 
L 429.984011 233.645009 
L 430.325812 233.804282 
L 430.325812 233.660754 
L 430.667612 233.803285 
L 430.667612 233.671452 
L 431.010146 233.877922 
L 431.010146 233.753629 
L 431.35219 233.899602 
L 431.35219 233.766665 
L 431.69448 233.901782 
L 431.69448 233.75959 
L 432.037014 233.895971 
L 432.037014 233.750452 
L 432.379303 233.901294 
L 432.379303 233.771238 
L 433.065348 233.950017 
L 433.065348 233.826655 
L 433.412038 233.970677 
L 433.412038 233.867774 
L 434.097106 233.989349 
L 434.097106 233.874564 
L 434.782418 233.985506 
L 434.782418 233.868823 
L 435.467241 234.000792 
L 435.467241 233.912907 
L 436.152553 234.033564 
L 436.152553 233.933411 
L 436.838354 234.03025 
L 436.838354 233.951935 
L 437.523911 234.07066 
L 437.523911 233.966331 
L 438.209956 234.054606 
L 438.209956 233.981361 
L 438.900891 234.084276 
L 438.900891 233.996129 
L 439.592805 234.094359 
L 439.592805 234.033723 
L 439.935583 234.119732 
L 439.935583 234.018928 
L 440.620895 234.066517 
L 440.620895 234.012598 
L 441.307185 234.122373 
L 441.307185 234.051861 
L 441.992986 234.128855 
L 441.992986 234.051554 
L 442.678298 234.122036 
L 442.678298 234.051922 
L 443.364343 234.110377 
L 443.364343 234.047267 
L 444.399035 234.157461 
L 444.399035 234.099072 
L 445.085325 234.142363 
L 445.085325 234.075943 
L 446.11586 234.171635 
L 446.11586 234.093558 
L 446.801172 234.121552 
L 446.801172 234.069484 
L 447.486484 234.14485 
L 447.486484 234.080194 
L 448.171063 234.099792 
L 448.171063 234.022937 
L 449.201842 234.084048 
L 449.201842 234.036244 
L 450.214285 234.103766 
L 450.214285 234.076829 
L 450.885417 234.085129 
L 450.885417 234.019872 
L 452.893188 234.134906 
L 452.893188 234.074473 
L 453.901474 234.126659 
L 453.901474 234.068084 
L 455.238847 234.130745 
L 455.238847 234.066499 
L 456.582577 234.012346 
L 457.258598 234.105869 
L 457.258598 234.025986 
L 457.934864 234.072706 
L 457.934864 233.967819 
L 458.634357 234.052723 
L 458.634357 233.947639 
L 459.322114 234.041859 
L 459.322114 233.94868 
L 460.005959 234.026021 
L 460.005959 233.927427 
L 460.690293 234.03886 
L 460.690293 233.960645 
L 461.032827 234.06814 
L 461.032827 233.964645 
L 461.717894 234.054302 
L 461.717894 233.957327 
L 462.403206 234.057667 
L 462.403206 233.954 
L 463.089007 234.015441 
L 463.089007 233.920707 
L 463.774564 234.032199 
L 463.774564 233.966122 
L 464.465743 234.056918 
L 464.465743 233.980815 
L 465.151544 234.031191 
L 465.151544 233.941364 
L 465.83759 234.053324 
L 465.83759 233.936895 
L 466.180368 234.023893 
L 466.180368 233.919685 
L 466.523391 233.996159 
L 466.523391 233.868074 
L 466.867147 233.982044 
L 466.867147 233.853985 
L 467.211392 233.960904 
L 467.211392 233.840673 
L 467.90135 233.977229 
L 467.90135 233.850543 
L 468.244128 233.968527 
L 468.244128 233.848453 
L 468.586906 233.959146 
L 468.586906 233.822184 
L 468.929685 233.923669 
L 468.929685 233.779713 
L 469.277597 233.902505 
L 469.277597 233.744795 
L 469.620131 233.855225 
L 469.620131 233.673828 
L 469.96242 233.789546 
L 469.96242 233.574774 
L 470.304709 233.709444 
L 470.304709 233.424984 
L 470.646754 233.578564 
L 470.646754 233.301292 
L 470.988799 233.48186 
L 470.988799 233.161496 
L 471.330599 233.439306 
L 471.330599 233.135705 
L 471.669466 233.375527 
L 471.669466 233.003955 
L 472.008088 233.300442 
L 472.008088 232.934752 
L 472.344264 233.244167 
L 472.344264 232.864247 
L 472.68093 233.23315 
L 472.68093 232.953059 
L 473.016863 233.330682 
L 473.016863 232.963206 
L 473.355729 233.373277 
L 473.355729 233.012178 
L 473.694596 233.317998 
L 473.694596 232.953496 
L 474.031751 233.312523 
L 474.031751 233.028003 
L 474.374529 233.396155 
L 474.374529 233.071634 
L 474.713151 233.398989 
L 474.713151 233.136449 
L 475.052506 233.426308 
L 475.052506 233.112975 
L 475.391128 233.419807 
L 475.391128 233.152909 
L 475.729505 233.437096 
L 475.729505 233.139428 
L 476.06935 233.444157 
L 476.06935 233.204356 
L 476.411394 233.498601 
L 476.411394 233.265929 
L 476.758085 233.57582 
L 476.758085 233.358561 
L 477.100129 233.620936 
L 477.100129 233.402112 
L 477.442663 233.626135 
L 477.442663 233.432694 
L 477.784708 233.681132 
L 477.784708 233.495576 
L 478.126997 233.736152 
L 478.126997 233.575466 
L 478.469531 233.769423 
L 478.469531 233.570165 
L 478.812065 233.765099 
L 478.812065 233.572991 
L 479.154843 233.756013 
L 479.154843 233.564278 
L 479.502756 233.756078 
L 479.502756 233.595664 
L 479.845289 233.780625 
L 479.845289 233.619062 
L 480.188312 233.820946 
L 480.188312 233.703164 
L 480.873624 233.917007 
L 480.873624 233.772537 
L 481.216647 233.899488 
L 481.216647 233.764022 
L 481.55967 233.895729 
L 481.55967 233.757539 
L 481.902692 233.898131 
L 481.902692 233.758761 
L 482.246204 233.898377 
L 482.246204 233.775945 
L 482.589471 233.908467 
L 482.589471 233.770108 
L 482.932739 233.906669 
L 482.932739 233.763331 
L 483.276006 233.889683 
L 483.276006 233.734558 
L 483.620251 233.875083 
L 483.620251 233.728005 
L 483.963274 233.86789 
L 483.963274 233.702109 
L 484.305808 233.867392 
L 484.305808 233.724094 
L 484.653965 233.877971 
L 484.653965 233.747572 
L 484.996254 233.921046 
L 484.996254 233.812275 
L 485.338788 233.95965 
L 485.338788 233.836676 
L 485.681321 233.94653 
L 485.681321 233.717505 
L 486.023611 233.754123 
L 486.023611 233.168398 
L 486.3659 233.012248 
L 486.3659 231.604567 
L 486.7077 231.256251 
L 486.7077 228.308126 
L 487.047056 227.546338 
L 487.047056 221.627092 
L 487.37981 221.17183 
L 487.37981 212.970276 
L 487.709141 213.255011 
L 487.709141 200.749985 
L 488.038472 203.916998 
L 488.038472 186.380223 
L 488.368781 190.912085 
L 488.368781 167.745689 
L 488.695667 175.031701 
L 488.695667 147.070487 
L 489.022554 159.246759 
L 489.022554 128.534809 
L 489.349195 146.097914 
L 489.349195 110.939954 
L 489.681216 133.469676 
L 489.681216 97.374118 
L 490.007613 122.391981 
L 490.007613 82.579526 
L 490.334011 114.754053 
L 490.334011 66.147654 
L 490.660408 98.904655 
L 490.660408 59.186252 
L 490.986805 96.478069 
L 490.986805 49.932727 
L 491.313202 98.550296 
L 491.313202 51.762509 
L 491.6396 91.12398 
L 491.6396 52.239383 
L 491.965752 98.638885 
L 491.965752 54.195234 
L 492.29215 103.070806 
L 492.29215 58.976568 
L 492.618547 98.837818 
L 492.618547 56.45538 
L 492.944944 99.386971 
L 492.944944 54.660604 
L 493.271586 100.987703 
L 493.271586 57.06356 
L 493.597983 98.590761 
L 493.597983 56.534829 
L 493.92438 100.217638 
L 493.92438 63.002521 
L 494.251022 106.957073 
L 494.251022 71.673211 
L 494.582554 115.140261 
L 494.582554 82.735814 
L 494.910663 119.563871 
L 494.910663 88.689976 
L 495.23706 126.870973 
L 495.23706 100.200609 
L 495.563702 136.34226 
L 495.563702 106.571062 
L 495.890099 139.514568 
L 495.890099 113.370403 
L 496.216741 141.284424 
L 496.216741 110.142858 
L 496.543382 141.20011 
L 496.543382 116.295749 
L 496.870024 142.616318 
L 496.870024 119.312057 
L 497.196666 150.480509 
L 497.196666 126.722977 
L 497.523063 154.897456 
L 497.523063 131.371996 
L 497.852639 156.378344 
L 497.852639 135.275195 
L 498.179281 161.110545 
L 498.179281 139.970126 
L 498.506167 165.277984 
L 498.506167 142.864444 
L 498.832809 164.715195 
L 498.832809 145.432133 
L 499.159695 165.96333 
L 499.159695 147.972953 
L 499.492938 172.090977 
L 499.492938 151.348502 
L 499.819824 170.813592 
L 499.819824 152.997604 
L 500.14671 173.309968 
L 500.14671 154.649387 
L 500.473841 176.295418 
L 500.473841 160.67334 
L 500.800727 179.312651 
L 500.800727 162.860765 
L 501.127614 181.078403 
L 501.127614 165.777027 
L 501.4545 183.304275 
L 501.4545 168.956298 
L 501.781875 184.752308 
L 501.781875 171.608519 
L 502.10925 187.673092 
L 502.10925 175.64358 
L 502.436381 190.576096 
L 502.436381 177.96352 
L 502.764001 192.75636 
L 502.764001 181.004627 
L 503.091132 192.998414 
L 503.091132 182.033782 
L 503.418507 195.649001 
L 503.418507 184.851693 
L 503.745882 197.853275 
L 503.745882 186.557424 
L 504.073257 198.577242 
L 504.073257 187.455463 
L 504.406011 198.517392 
L 504.406011 188.084133 
L 504.733387 199.903277 
L 504.733387 190.780586 
L 505.061006 202.89554 
L 505.061006 194.680697 
L 505.388871 204.795452 
L 505.388871 195.717475 
L 505.716735 205.289189 
L 505.716735 196.647472 
L 506.044599 205.768312 
L 506.044599 198.347872 
L 506.372708 207.959415 
L 506.372708 200.731371 
L 506.701061 209.740462 
L 506.701061 202.224199 
L 507.029414 210.336648 
L 507.029414 204.078885 
L 507.357767 211.94658 
L 507.357767 205.254641 
L 507.686365 212.651746 
L 507.686365 206.195435 
L 508.018875 212.871347 
L 508.018875 207.110712 
L 508.347472 213.780405 
L 508.347472 207.792516 
L 508.676315 214.44969 
L 508.676315 208.647667 
L 509.004912 214.531911 
L 509.004912 209.098186 
L 509.339622 215.367018 
L 509.339622 209.644422 
L 509.669198 215.586697 
L 509.669198 210.836035 
L 509.998529 217.052878 
L 509.998529 212.309306 
L 510.328105 218.196773 
L 510.328105 213.784765 
L 510.65768 219.090203 
L 510.65768 215.151806 
L 510.987012 220.428525 
L 510.987012 216.143996 
L 511.318054 220.896057 
L 511.318054 216.375175 
L 511.647385 220.129608 
L 511.647385 215.664494 
L 511.97745 220.401684 
L 511.97745 216.52331 
L 512.307759 221.020208 
L 512.307759 217.44869 
L 512.637824 221.745058 
L 512.637824 218.28198 
L 512.968378 222.36705 
L 512.968378 218.988407 
L 513.298687 223.086525 
L 513.298687 219.70356 
L 513.628996 223.355104 
L 513.628996 220.408727 
L 513.959794 224.008825 
L 513.959794 220.821267 
L 514.296704 224.566125 
L 514.296704 220.921189 
L 514.627991 223.876071 
L 514.627991 220.543579 
L 514.959768 223.387507 
L 514.959768 220.112291 
L 515.290566 223.778283 
L 515.290566 221.142317 
L 515.623564 224.569805 
L 515.623564 222.162332 
L 515.954851 225.546884 
L 515.954851 222.948011 
L 516.286627 225.795371 
L 516.286627 223.087332 
L 516.618159 225.745928 
L 516.618159 223.149101 
L 516.949935 225.90666 
L 516.949935 223.630817 
L 517.282445 226.254263 
L 517.282445 224.070609 
L 517.613732 226.606166 
L 517.613732 224.231598 
L 517.94942 226.721036 
L 517.94942 224.843486 
L 518.28144 227.309375 
L 518.28144 225.090729 
L 518.613461 227.551419 
L 518.613461 225.589509 
L 518.947438 227.681718 
L 518.947438 225.934481 
L 519.284593 228.355717 
L 519.284593 226.915571 
L 519.618569 229.042574 
L 519.618569 227.483361 
L 519.953768 229.241228 
L 519.953768 227.831369 
L 520.286767 229.508384 
L 520.286767 227.98969 
L 520.620499 229.787881 
L 520.620499 228.418145 
L 520.954964 229.828552 
L 520.954964 228.055772 
L 521.287718 229.62728 
L 521.287718 227.983303 
L 521.622184 229.505782 
L 521.622184 228.251653 
L 521.955182 229.962188 
L 521.955182 228.558971 
L 522.288425 230.069481 
L 522.288425 228.624115 
L 522.622891 230.006822 
L 522.622891 228.451562 
L 522.959068 229.75893 
L 522.959068 228.296387 
L 523.294267 229.665325 
L 523.294267 228.261566 
L 523.629466 229.780028 
L 523.629466 228.431606 
L 523.964176 229.88038 
L 523.964176 228.527823 
L 524.306465 229.96423 
L 524.306465 228.671142 
L 524.642398 230.054311 
L 524.642398 228.846986 
L 524.977108 230.283372 
L 524.977108 228.828522 
L 525.312062 230.194965 
L 525.312062 229.157879 
L 525.649217 230.570941 
L 525.649217 229.388068 
L 525.985149 230.783849 
L 525.985149 229.612295 
L 526.320593 230.672774 
L 526.320593 229.548176 
L 526.658481 230.774069 
L 526.658481 229.68115 
L 526.996859 230.877733 
L 526.996859 229.885041 
L 527.33328 230.99184 
L 527.33328 229.83219 
L 527.670191 231.044261 
L 527.670191 230.049395 
L 528.008079 231.153042 
L 528.008079 230.073477 
L 528.344745 231.206535 
L 528.344745 230.184296 
L 528.680188 231.193248 
L 528.680188 230.263995 
L 529.017588 231.353927 
L 529.017588 230.472558 
L 529.362567 231.413319 
L 529.362567 230.48899 
L 529.698499 231.289139 
L 529.698499 230.289708 
L 530.038588 231.096487 
L 530.038588 230.290509 
L 530.376232 231.249011 
L 530.376232 230.254507 
L 530.714365 231.237696 
L 530.714365 230.471272 
L 531.050297 231.349494 
L 531.050297 230.49545 
L 531.387697 231.628647 
L 531.387697 230.776287 
L 531.727052 231.623295 
L 531.727052 230.798437 
L 532.064207 231.714002 
L 532.064207 230.820679 
L 532.403318 231.71021 
L 532.403318 230.881519 
L 532.739984 231.72054 
L 532.739984 230.797794 
L 533.078606 231.654293 
L 533.078606 230.840219 
L 533.41625 231.663631 
L 533.41625 230.794905 
L 533.756583 231.663888 
L 533.756583 230.830578 
L 534.095938 231.601727 
L 534.095938 230.842432 
L 534.437983 231.684665 
L 534.437983 230.875494 
L 534.774649 231.675352 
L 534.774649 230.864566 
L 535.116205 231.623562 
L 535.116205 230.824041 
L 535.457027 231.637565 
L 535.457027 230.937631 
L 535.798583 231.781586 
L 535.798583 230.88928 
L 536.13696 231.71726 
L 536.13696 230.806452 
L 536.477783 231.576888 
L 536.477783 230.682017 
L 536.823495 231.570898 
L 536.823495 230.726921 
L 537.16065 231.677461 
L 537.16065 230.835774 
L 537.499516 231.75653 
L 537.499516 230.930541 
L 537.840583 231.818717 
L 537.840583 230.949663 
L 538.178227 231.781442 
L 538.178227 230.8344 
L 538.517827 231.646944 
L 538.517827 230.840232 
L 538.857426 231.648604 
L 538.857426 230.905964 
L 539.197026 231.810333 
L 539.197026 230.951077 
L 539.54176 231.705928 
L 539.54176 230.974075 
L 539.883072 231.682562 
L 539.883072 230.840381 
L 540.221205 231.774258 
L 540.221205 230.913634 
L 540.562271 231.688082 
L 540.562271 230.891615 
L 540.904316 231.747491 
L 540.904316 230.990708 
L 541.245872 231.885946 
L 541.245872 231.076178 
L 541.588406 231.893572 
L 541.588406 231.165595 
L 541.931429 231.935953 
L 541.931429 231.099931 
L 542.269806 231.867978 
L 542.269806 231.066123 
L 542.607939 231.799261 
L 542.607939 231.065995 
L 542.950717 231.921046 
L 542.950717 231.162612 
L 543.291784 232.00211 
L 543.291784 231.13772 
L 543.632362 231.84901 
L 543.632362 231.115337 
L 543.970739 231.904863 
L 543.970739 231.133437 
L 544.310095 232.036888 
L 544.310095 231.259815 
L 544.656296 231.942259 
L 544.656296 231.310381 
L 544.999074 232.052044 
L 544.999074 231.306409 
L 545.341852 232.125986 
L 545.341852 231.381615 
L 545.682674 232.053215 
L 545.682674 231.341773 
L 546.023497 232.090602 
L 546.023497 231.360223 
L 546.366275 232.10139 
L 546.366275 231.381891 
L 546.705386 232.086441 
L 546.705386 231.309617 
L 547.048164 232.046581 
L 547.048164 231.40987 
L 547.38972 232.109049 
L 547.38972 231.503105 
L 547.732498 232.258519 
L 547.732498 231.586127 
L 548.072587 232.300303 
L 548.072587 231.547208 
L 548.420255 232.156276 
L 548.420255 231.465251 
L 548.760344 232.059616 
L 548.760344 231.343748 
L 549.101655 232.097538 
L 549.101655 231.478864 
L 549.444434 232.177571 
L 549.444434 231.568275 
L 549.792346 232.236636 
L 549.792346 231.57123 
L 550.135124 232.231095 
L 550.135124 231.617732 
L 550.478147 232.280364 
L 550.478147 231.632281 
L 550.819214 232.345608 
L 550.819214 231.662644 
L 551.162237 232.281439 
L 551.162237 231.699893 
L 551.505015 232.348588 
L 551.505015 231.68367 
L 551.848038 232.355206 
L 551.848038 231.756917 
L 552.188371 232.363387 
L 552.188371 231.794448 
L 552.531394 232.424786 
L 552.531394 231.811662 
L 552.874417 232.42151 
L 552.874417 231.830812 
L 553.217195 232.445565 
L 553.217195 231.904435 
L 553.558017 232.541665 
L 553.558017 231.91547 
L 553.900795 232.496399 
L 553.900795 231.898636 
L 554.244063 232.42381 
L 554.244063 231.879346 
L 554.586841 232.490773 
L 554.586841 231.911658 
L 554.935242 232.513372 
L 554.935242 231.898583 
L 555.278265 232.463069 
L 555.278265 231.9084 
L 555.621288 232.473008 
L 555.621288 231.939556 
L 555.965778 232.583798 
L 555.965778 231.99204 
L 556.308311 232.593248 
L 556.308311 232.047938 
L 556.651579 232.556175 
L 556.651579 232.045278 
L 556.994357 232.623682 
L 556.994357 232.104241 
L 557.33738 232.700996 
L 557.33738 232.113162 
L 557.680402 232.637196 
L 557.680402 232.179264 
L 558.023425 232.658936 
L 558.023425 232.114247 
L 558.366448 232.739436 
L 558.366448 232.206344 
L 558.709715 232.684126 
L 558.709715 232.170412 
L 559.052738 232.675619 
L 559.052738 232.165792 
L 559.395516 232.692754 
L 559.395516 232.18404 
L 559.738783 232.697685 
L 559.738783 232.216626 
L 560.087429 232.729791 
L 560.087429 232.184051 
L 560.430697 232.685942 
L 560.430697 232.212869 
L 560.773964 232.694937 
L 560.773964 232.20731 
L 561.117231 232.804945 
L 561.117231 232.328308 
L 561.461232 232.856436 
L 561.461232 232.381797 
L 561.804744 232.850377 
L 561.804744 232.306737 
L 562.153879 232.77663 
L 562.153879 232.268883 
L 562.496657 232.784217 
L 562.496657 232.303501 
L 562.839924 232.803255 
L 562.839924 232.313756 
L 563.183436 232.860166 
L 563.183436 232.358689 
L 563.526703 232.814339 
L 563.526703 232.367891 
L 563.870215 232.867209 
L 563.870215 232.338008 
L 564.213482 232.822164 
L 564.213482 232.418477 
L 564.556749 232.873337 
L 564.556749 232.422313 
L 564.900261 232.908134 
L 564.900261 232.487473 
L 565.248907 232.921811 
L 565.248907 232.456014 
L 565.592663 232.950762 
L 565.592663 232.520227 
L 565.935931 232.949313 
L 565.935931 232.546113 
L 566.28042 233.014715 
L 566.28042 232.548166 
L 566.623443 232.973694 
L 566.623443 232.599092 
L 566.967199 233.026256 
L 566.967199 232.564745 
L 567.310711 233.011966 
L 567.310711 232.602455 
L 567.653978 232.966527 
L 567.653978 232.551147 
L 567.99749 233.007051 
L 567.99749 232.572346 
L 568.341002 232.97555 
L 568.341002 232.540273 
L 568.684758 232.94089 
L 568.684758 232.557186 
L 569.028514 232.955224 
L 569.028514 232.573159 
L 569.372026 233.004913 
L 569.372026 232.600853 
L 569.715538 232.997271 
L 569.715538 232.646757 
L 570.058805 233.066871 
L 570.058805 232.739033 
L 570.407451 233.160082 
L 570.407451 232.766004 
L 570.753408 233.130317 
L 570.753408 232.740361 
L 571.102787 233.10659 
L 571.102787 232.717449 
L 571.446054 233.121209 
L 571.446054 232.802572 
L 571.789566 233.203214 
L 571.789566 232.78632 
L 572.133078 233.212186 
L 572.133078 232.834223 
L 572.476834 233.176576 
L 572.476834 232.799258 
L 572.820346 233.187428 
L 572.820346 232.774829 
L 573.163858 233.165089 
L 573.163858 232.788797 
L 573.507369 233.17054 
L 573.507369 232.784143 
L 573.851125 233.143326 
L 573.851125 232.768749 
L 574.194882 233.161673 
L 574.194882 232.76229 
L 574.538393 233.165972 
L 574.538393 232.808957 
L 574.88215 233.184211 
L 574.88215 232.83454 
L 575.225906 233.209486 
L 575.225906 232.899111 
L 575.574796 233.292473 
L 575.574796 232.925584 
L 575.918553 233.275005 
L 575.918553 232.916904 
L 576.262309 233.234302 
L 576.262309 232.86704 
L 576.606065 233.214619 
L 576.606065 232.830993 
L 576.949821 233.202629 
L 576.949821 232.867286 
L 577.293578 233.228153 
L 577.293578 232.910842 
L 577.637578 233.271004 
L 577.637578 232.940772 
L 577.981334 233.290111 
L 577.981334 232.951552 
L 578.325335 233.312082 
L 578.325335 233.029122 
L 578.669091 233.358607 
L 578.669091 233.027758 
L 579.012848 233.371204 
L 579.012848 233.004429 
L 579.358071 233.28794 
L 579.358071 232.984042 
L 579.702316 233.300302 
L 579.702316 232.963314 
L 580.046072 233.31122 
L 580.046072 233.039539 
L 580.389584 233.332376 
L 580.389584 233.047399 
L 580.737986 233.387435 
L 580.737986 233.081191 
L 581.081742 233.375718 
L 581.081742 233.067038 
L 581.425498 233.371634 
L 581.425498 233.040427 
L 581.769254 233.3458 
L 581.769254 233.028394 
L 582.112766 233.332536 
L 582.112766 233.010039 
L 582.456767 233.358745 
L 582.456767 233.061895 
L 582.800278 233.38505 
L 582.800278 233.085519 
L 583.14379 233.41933 
L 583.14379 233.076185 
L 583.487546 233.378155 
L 583.487546 233.062986 
L 583.831058 233.395038 
L 583.831058 233.112086 
L 584.175059 233.430829 
L 584.175059 233.15041 
L 584.522727 233.473984 
L 584.522727 233.193861 
L 584.866483 233.469084 
L 584.866483 233.192327 
L 585.209995 233.48103 
L 585.209995 233.213392 
L 585.554729 233.496118 
L 585.554729 233.226471 
L 585.903864 233.497329 
L 585.903864 233.240104 
L 586.247376 233.487751 
L 586.247376 233.208798 
L 586.591132 233.467838 
L 586.591132 233.224441 
L 586.935133 233.463593 
L 586.935133 233.222656 
L 587.2784 233.506164 
L 587.2784 233.25013 
L 587.622156 233.520674 
L 587.622156 233.298273 
L 587.967135 233.535819 
L 587.967135 233.290014 
L 588.311136 233.54518 
L 588.311136 233.292979 
L 588.654892 233.550698 
L 588.654892 233.270967 
L 588.998648 233.512553 
L 588.998648 233.263786 
L 589.342404 233.515566 
L 589.342404 233.228682 
L 589.686405 233.529675 
L 589.686405 233.247622 
L 590.029917 233.489487 
L 590.029917 233.235314 
L 590.373429 233.518074 
L 590.373429 233.200978 
L 590.717429 233.472084 
L 590.717429 233.24056 
L 591.066809 233.504898 
L 591.066809 233.255864 
L 591.410565 233.566495 
L 591.410565 233.332931 
L 591.75481 233.598252 
L 591.75481 233.319189 
L 592.103701 233.565239 
L 592.103701 233.310785 
L 592.447702 233.566469 
L 592.447702 233.314004 
L 592.791702 233.58889 
L 592.791702 233.383854 
L 593.135703 233.641961 
L 593.135703 233.37054 
L 593.479704 233.613458 
L 593.479704 233.348417 
L 593.823215 233.563945 
L 593.823215 233.335108 
L 594.166972 233.600491 
L 594.166972 233.361439 
L 594.510972 233.624494 
L 594.510972 233.357529 
L 594.85424 233.569847 
L 594.85424 233.355418 
L 595.198485 233.601492 
L 595.198485 233.364332 
L 595.542241 233.611231 
L 595.542241 233.388311 
L 595.886486 233.613117 
L 595.886486 233.413625 
L 596.235866 233.650708 
L 596.235866 233.436293 
L 596.579377 233.653447 
L 596.579377 233.395898 
L 596.923134 233.599987 
L 596.923134 233.332234 
L 597.266645 233.569728 
L 597.266645 233.364001 
L 597.610646 233.613303 
L 597.610646 233.366681 
L 597.954402 233.62856 
L 597.954402 233.428542 
L 598.298159 233.673401 
L 598.298159 233.439297 
L 598.642159 233.669431 
L 598.642159 233.44024 
L 598.98616 233.637314 
L 598.98616 233.402372 
L 599.329672 233.638194 
L 599.329672 233.441905 
L 599.674161 233.674746 
L 599.674161 233.408333 
L 600.018407 233.644092 
L 600.018407 233.429729 
L 600.362652 233.645169 
L 600.362652 233.419856 
L 600.706897 233.685286 
L 600.706897 233.444949 
L 601.050653 233.667277 
L 601.050653 233.433211 
L 601.400033 233.660722 
L 601.400033 233.450668 
L 601.743789 233.675667 
L 601.743789 233.467795 
L 602.08779 233.676546 
L 602.08779 233.458775 
L 602.431791 233.677112 
L 602.431791 233.458984 
L 602.775547 233.668107 
L 602.775547 233.482114 
L 603.119547 233.702545 
L 603.119547 233.449113 
L 603.463548 233.684744 
L 603.463548 233.461845 
L 603.807549 233.661675 
L 603.807549 233.460029 
L 604.156928 233.700715 
L 604.156928 233.470317 
L 604.500685 233.693891 
L 604.500685 233.505631 
L 604.844685 233.70787 
L 604.844685 233.500267 
L 605.188197 233.722293 
L 605.188197 233.520078 
L 605.531953 233.719475 
L 605.531953 233.54687 
L 605.875221 233.750133 
L 605.875221 233.576569 
L 606.218243 233.775874 
L 606.218243 233.561494 
L 606.566645 233.737067 
L 606.566645 233.563202 
L 606.909668 233.749174 
L 606.909668 233.567598 
L 607.25269 233.795919 
L 607.25269 233.610698 
L 607.59718 233.793164 
L 607.59718 233.614944 
L 607.939958 233.796868 
L 607.939958 233.589133 
L 608.283226 233.777176 
L 608.283226 233.62993 
L 608.626004 233.802118 
L 608.626004 233.621308 
L 608.969027 233.824671 
L 608.969027 233.637297 
L 609.312049 233.792889 
L 609.312049 233.629849 
L 609.655072 233.810593 
L 609.655072 233.600744 
L 609.998095 233.773562 
L 609.998095 233.627608 
L 610.341118 233.78676 
L 610.341118 233.613847 
L 610.684629 233.806575 
L 610.684629 233.650292 
L 611.027897 233.798913 
L 611.027897 233.637973 
L 611.371408 233.814213 
L 611.371408 233.640824 
L 611.720299 233.809533 
L 611.720299 233.630223 
L 612.063811 233.797958 
L 612.063811 233.603773 
L 612.407078 233.793557 
L 612.407078 233.615585 
L 612.75059 233.790038 
L 612.75059 233.612652 
L 613.094101 233.808098 
L 613.094101 233.654567 
L 613.442747 233.842816 
L 613.442747 233.668257 
L 613.78846 233.842525 
L 613.78846 233.638792 
L 614.132216 233.771618 
L 614.132216 233.588137 
L 614.475972 233.75867 
L 614.475972 233.550027 
L 614.819728 233.73993 
L 614.819728 233.573399 
L 615.163484 233.750494 
L 615.163484 233.58916 
L 615.506996 233.791829 
L 615.506996 233.650451 
L 615.850997 233.820438 
L 615.850997 233.650598 
L 616.194753 233.808815 
L 616.194753 233.625431 
L 616.538509 233.779577 
L 616.538509 233.601596 
L 616.887644 233.77085 
L 616.887644 233.615228 
L 617.231645 233.801633 
L 617.231645 233.632903 
L 617.575401 233.823216 
L 617.575401 233.659248 
L 617.919402 233.825752 
L 617.919402 233.662629 
L 618.263158 233.818713 
L 618.263158 233.677646 
L 618.60667 233.851058 
L 618.60667 233.665481 
L 618.950426 233.826679 
L 618.950426 233.664587 
L 619.294427 233.806437 
L 619.294427 233.607893 
L 619.638428 233.773107 
L 619.638428 233.609006 
L 619.999543 233.781033 
L 619.999543 233.614404 
L 620.343299 233.815347 
L 620.343299 233.67964 
L 620.687544 233.844127 
L 620.687544 233.679815 
L 621.031545 233.845951 
L 621.031545 233.644344 
L 621.375546 233.788893 
L 621.375546 233.638603 
L 621.719546 233.798793 
L 621.719546 233.629511 
L 622.073571 233.830395 
L 622.073571 233.70228 
L 622.417328 233.856162 
L 622.417328 233.709781 
L 622.761573 233.880524 
L 622.761573 233.73015 
L 623.105329 233.87418 
L 623.105329 233.717458 
L 623.449574 233.863158 
L 623.449574 233.684335 
L 623.79333 233.809605 
L 623.79333 233.646678 
L 624.137331 233.817071 
L 624.137331 233.658285 
L 624.481332 233.837582 
L 624.481332 233.691093 
L 624.840247 233.834257 
L 624.840247 233.67796 
L 625.184003 233.841259 
L 625.184003 233.687272 
L 625.528004 233.839531 
L 625.528004 233.699874 
L 625.872004 233.855926 
L 625.872004 233.688124 
L 626.216005 233.841643 
L 626.216005 233.701699 
L 626.559761 233.858203 
L 626.559761 233.697064 
L 626.903762 233.872828 
L 626.903762 233.718175 
L 627.252897 233.869729 
L 627.252897 233.728282 
L 627.596898 233.876226 
L 627.596898 233.723019 
L 627.940898 233.887043 
L 627.940898 233.712686 
L 628.284655 233.856134 
L 628.284655 233.734932 
L 628.628411 233.894851 
L 628.628411 233.732635 
L 628.972167 233.907757 
L 628.972167 233.745741 
L 629.316168 233.880013 
L 629.316168 233.727527 
L 629.666281 233.888323 
L 629.666281 233.756842 
L 630.010526 233.917695 
L 630.010526 233.763668 
L 630.354771 233.89395 
L 630.354771 233.75268 
L 630.698772 233.882275 
L 630.698772 233.719497 
L 631.043017 233.869033 
L 631.043017 233.748585 
L 631.387018 233.882531 
L 631.387018 233.740671 
L 631.731263 233.911243 
L 631.731263 233.745144 
L 632.076486 233.882702 
L 632.076486 233.736389 
L 632.42611 233.884368 
L 632.42611 233.726693 
L 632.770111 233.889187 
L 632.770111 233.728315 
L 633.114356 233.880293 
L 633.114356 233.714327 
L 633.458112 233.870433 
L 633.458112 233.707655 
L 633.802358 233.86224 
L 633.802358 233.726064 
L 634.146114 233.888793 
L 634.146114 233.735374 
L 634.491826 233.89557 
L 634.491826 233.738665 
L 634.835827 233.878348 
L 634.835827 233.754484 
L 635.179827 233.898483 
L 635.179827 233.762603 
L 635.523828 233.919138 
L 635.523828 233.753046 
L 635.867829 233.875395 
L 635.867829 233.747194 
L 636.212074 233.89282 
L 636.212074 233.729056 
L 636.556075 233.882903 
L 636.556075 233.734939 
L 636.90032 233.86449 
L 636.90032 233.716812 
L 637.244565 233.894101 
L 637.244565 233.755307 
L 637.594189 233.896249 
L 637.594189 233.749923 
L 637.943324 233.875013 
L 637.943324 233.718278 
L 638.287325 233.857103 
L 638.287325 233.728159 
L 638.631081 233.868608 
L 638.631081 233.732476 
L 638.974837 233.88023 
L 638.974837 233.720735 
L 639.318594 233.852591 
L 639.318594 233.732348 
L 639.66235 233.89501 
L 639.66235 233.741141 
L 640.005617 233.911849 
L 640.005617 233.786578 
L 640.349129 233.914486 
L 640.349129 233.770035 
L 640.692396 233.925392 
L 640.692396 233.791885 
L 641.035663 233.937581 
L 641.035663 233.774279 
L 641.378931 233.911798 
L 641.378931 233.762631 
L 641.721953 233.888078 
L 641.721953 233.712546 
L 642.065221 233.879931 
L 642.065221 233.729745 
L 644.132648 233.914259 
L 644.132648 233.786696 
L 644.476893 233.92394 
L 644.476893 233.797603 
L 644.820405 233.921656 
L 644.820405 233.802522 
L 645.163916 233.926833 
L 645.163916 233.794588 
L 645.507673 233.944212 
L 645.507673 233.824858 
L 645.851184 233.944534 
L 645.851184 233.80531 
L 646.194941 233.933743 
L 646.194941 233.794795 
L 646.538697 233.91852 
L 646.538697 233.790684 
L 646.882453 233.927026 
L 646.882453 233.768553 
L 647.226209 233.901905 
L 647.226209 233.771185 
L 647.569966 233.915592 
L 647.569966 233.784464 
L 647.919101 233.942423 
L 647.919101 233.808833 
L 648.263101 233.938652 
L 648.263101 233.784023 
L 648.606858 233.918893 
L 648.606858 233.786047 
L 648.950614 233.918667 
L 648.950614 233.769919 
L 649.319064 233.912622 
L 649.319064 233.783411 
L 649.66282 233.922031 
L 649.66282 233.773234 
L 650.006576 233.90401 
L 650.006576 233.76919 
L 650.694822 233.923878 
L 650.694822 233.804266 
L 651.038578 233.949776 
L 651.038578 233.838517 
L 651.382824 233.959144 
L 651.382824 233.786669 
L 651.727313 233.914059 
L 651.727313 233.797087 
L 652.071558 233.917477 
L 652.071558 233.791721 
L 652.415804 233.952773 
L 652.415804 233.832021 
L 653.108939 233.959735 
L 653.108939 233.833043 
L 653.452696 233.96303 
L 653.452696 233.843563 
L 653.796452 233.967001 
L 653.796452 233.836004 
L 654.140453 233.971465 
L 654.140453 233.841277 
L 654.483964 233.95422 
L 654.483964 233.807829 
L 654.827476 233.928978 
L 654.827476 233.79948 
L 655.514499 233.957915 
L 655.514499 233.824938 
L 655.858256 233.948953 
L 655.858256 233.832549 
L 656.202012 233.954418 
L 656.202012 233.825964 
L 656.547235 233.962551 
L 656.547235 233.847812 
L 656.890747 233.964945 
L 656.890747 233.846595 
L 657.234748 233.977395 
L 657.234748 233.862835 
L 657.578504 233.982667 
L 657.578504 233.854076 
L 658.27164 233.976403 
L 658.27164 233.842338 
L 658.61564 233.974568 
L 658.61564 233.846292 
L 658.959641 233.932894 
L 658.959641 233.789408 
L 659.303642 233.927854 
L 659.303642 233.805043 
L 659.996777 233.966505 
L 659.996777 233.789866 
L 660.685268 233.932113 
L 660.685268 233.805833 
L 661.029269 233.976333 
L 661.029269 233.836285 
L 661.373269 233.947035 
L 661.373269 233.827908 
L 661.717515 233.959323 
L 661.717515 233.819432 
L 662.061515 233.948197 
L 662.061515 233.813369 
L 662.405516 233.930068 
L 662.405516 233.789516 
L 662.749761 233.925346 
L 662.749761 233.797459 
L 663.094006 233.927679 
L 663.094006 233.793063 
L 663.787631 233.965721 
L 663.787631 233.86683 
L 664.131876 234.017211 
L 664.131876 233.896866 
L 664.475877 234.002837 
L 664.475877 233.888971 
L 664.820122 233.990502 
L 664.820122 233.829518 
L 665.164123 233.953366 
L 665.164123 233.822095 
L 665.852858 233.953279 
L 665.852858 233.819042 
L 666.196859 233.94604 
L 666.196859 233.825121 
L 666.885838 233.97423 
L 666.885838 233.865444 
L 667.230083 233.984553 
L 667.230083 233.868963 
L 667.576529 233.977454 
L 667.576529 233.843889 
L 668.265264 233.965875 
L 668.265264 233.847157 
L 668.615132 233.989975 
L 668.615132 233.858196 
L 669.303623 233.944149 
L 669.303623 233.829162 
L 669.994314 233.993905 
L 669.994314 233.893345 
L 670.343693 234.003966 
L 670.343693 233.881344 
L 670.688427 233.990902 
L 670.688427 233.864973 
L 671.032917 233.979542 
L 671.032917 233.857775 
L 671.721896 233.977653 
L 671.721896 233.856183 
L 672.066386 233.985872 
L 672.066386 233.878966 
L 672.412587 233.984047 
L 672.412587 233.855703 
L 672.757321 233.973742 
L 672.757321 233.854117 
L 673.101567 233.963585 
L 673.101567 233.846152 
L 673.446056 233.971104 
L 673.446056 233.857084 
L 674.139926 233.999752 
L 674.139926 233.888714 
L 674.484415 233.997265 
L 674.484415 233.877211 
L 675.173395 233.991449 
L 675.173395 233.869226 
L 675.518129 233.981992 
L 675.518129 233.868105 
L 675.862863 233.965432 
L 675.862863 233.847967 
L 676.207353 233.968026 
L 676.207353 233.84878 
L 676.896577 233.981258 
L 676.896577 233.874804 
L 677.585312 234.009445 
L 677.585312 233.893769 
L 677.929801 234.001033 
L 677.929801 233.869868 
L 678.62856 233.987148 
L 678.62856 233.873138 
L 678.978429 234.012427 
L 678.978429 233.902564 
L 679.667897 233.992874 
L 679.667897 233.868012 
L 680.357121 234.00576 
L 680.357121 233.897649 
L 680.701611 234.003541 
L 680.701611 233.881296 
L 681.051235 233.962808 
L 681.051235 233.83711 
L 681.740459 233.954756 
L 681.740459 233.863014 
L 682.084949 233.992381 
L 682.084949 233.884391 
L 682.774661 233.979392 
L 682.774661 233.885477 
L 683.46413 234.017744 
L 683.46413 233.921459 
L 684.159466 234.028432 
L 684.159466 233.917476 
L 684.503711 234.025063 
L 684.503711 233.904995 
L 684.848445 234.013841 
L 684.848445 233.902404 
L 685.192935 233.999855 
L 685.192935 233.881817 
L 685.537669 234.001339 
L 685.537669 233.898115 
L 686.571872 233.902406 
L 686.571872 233.904405 
L 686.916362 234.020602 
L 686.916362 233.90438 
L 687.26134 234.017605 
L 687.26134 233.918835 
L 687.950564 234.019139 
L 687.950564 233.897348 
L 688.640033 234.013247 
L 688.640033 233.925827 
L 688.984767 234.049567 
L 688.984767 233.94379 
L 689.33488 234.04631 
L 689.33488 233.929244 
L 689.67937 234.014062 
L 689.67937 233.894016 
L 690.368593 234.004498 
L 690.368593 233.898701 
L 691.058306 234.023804 
L 691.058306 233.920904 
L 691.747775 234.03874 
L 691.747775 233.937333 
L 692.437732 234.033174 
L 692.437732 233.954177 
L 693.13209 234.048972 
L 693.13209 233.9584 
L 693.477069 234.0437 
L 693.477069 233.907127 
L 694.166782 234.014347 
L 694.166782 233.910753 
L 694.516895 234.034264 
L 694.516895 233.92728 
L 695.206363 234.025233 
L 695.206363 233.929682 
L 695.552075 234.038647 
L 695.552075 233.935731 
L 696.241544 234.036542 
L 696.241544 233.931212 
L 696.931012 234.034437 
L 696.931012 233.932533 
L 697.620725 234.030315 
L 697.620725 233.935678 
L 698.311416 234.039991 
L 698.311416 233.94299 
L 699.001129 234.018303 
L 699.001129 233.923012 
L 699.695976 234.026383 
L 699.695976 233.925844 
L 700.386911 234.004132 
L 700.386911 233.901659 
L 701.076135 234.029843 
L 701.076135 233.948564 
L 701.765848 234.094406 
L 701.765848 234.001417 
L 702.455561 234.081099 
L 702.455561 233.987166 
L 703.151875 234.071992 
L 703.151875 233.967693 
L 703.841588 234.029095 
L 703.841588 233.944626 
L 704.531545 234.074387 
L 704.531545 233.9742 
L 705.228593 234.050688 
L 705.228593 233.978975 
L 705.918306 234.101299 
L 705.918306 233.990539 
L 706.608019 234.045609 
L 706.608019 233.960424 
L 707.297732 234.045262 
L 707.297732 233.967916 
L 707.988912 234.090447 
L 707.988912 234.00524 
L 708.678135 234.070039 
L 708.678135 233.981969 
L 709.368582 234.066613 
L 709.368582 233.982883 
L 710.06514 234.098565 
L 710.06514 234.013858 
L 710.755098 234.078945 
L 710.755098 233.982918 
L 711.444811 234.083976 
L 711.444811 233.996383 
L 712.134524 234.081664 
L 712.134524 233.98612 
L 712.824236 234.065428 
L 712.824236 233.995345 
L 713.519328 234.098087 
L 713.519328 234.019122 
L 714.208308 234.086523 
L 714.208308 234.000996 
L 714.897531 234.087983 
L 714.897531 234.030233 
L 715.59189 234.1105 
L 715.59189 234.034618 
L 716.28038 234.08012 
L 716.28038 233.988056 
L 716.969115 234.066135 
L 716.969115 234.002961 
L 717.658094 234.112578 
L 717.658094 234.027113 
L 718.346829 234.073931 
L 718.346829 234.009459 
L 719.035564 234.10304 
L 719.035564 234.038937 
L 719.724544 234.114222 
L 719.724544 234.029895 
L 720.418902 234.104879 
L 720.418902 234.032052 
L 721.108126 234.102326 
L 721.108126 234.024137 
L 721.796861 234.11361 
L 721.796861 234.022778 
L 722.486085 234.100944 
L 722.486085 234.021356 
L 723.180687 234.109275 
L 723.180687 234.021502 
L 723.869911 234.10054 
L 723.869911 234.020283 
L 724.558891 234.11477 
L 724.558891 234.04111 
L 725.248359 234.088909 
L 725.248359 234.01029 
L 725.942717 234.096233 
L 725.942717 234.013894 
L 726.630963 234.076467 
L 726.630963 234.028706 
L 727.319943 234.116334 
L 727.319943 234.047351 
L 728.355368 234.118206 
L 728.355368 234.046197 
L 729.044591 234.121879 
L 729.044591 234.022685 
L 729.733082 234.089956 
L 729.733082 234.0114 
L 730.422306 234.107058 
L 730.422306 234.034841 
L 731.117642 234.130326 
L 731.117642 234.051782 
L 731.806132 234.135184 
L 731.806132 234.03799 
L 732.495601 234.118158 
L 732.495601 234.041185 
L 733.184091 234.140838 
L 733.184091 234.075762 
L 733.873071 234.147509 
L 733.873071 234.06612 
L 734.56694 234.099407 
L 734.56694 234.028996 
L 735.255919 234.123026 
L 735.255919 234.059156 
L 735.950278 234.13311 
L 735.950278 234.0552 
L 736.638523 234.116944 
L 736.638523 234.055493 
L 737.327503 234.117978 
L 737.327503 234.06239 
L 738.359994 234.128696 
L 738.359994 234.057126 
L 739.048729 234.127685 
L 739.048729 234.056894 
L 739.736975 234.131984 
L 739.736975 234.065009 
L 740.425465 234.134418 
L 740.425465 234.065035 
L 741.119334 234.099834 
L 741.119334 234.045529 
L 741.80758 234.134782 
L 741.80758 234.044913 
L 742.839827 234.14493 
L 742.839827 234.076905 
L 743.528073 234.113408 
L 743.528073 234.05124 
L 744.21803 234.131595 
L 744.21803 234.062248 
L 744.9119 234.140494 
L 744.9119 234.068788 
L 745.60039 234.113762 
L 745.60039 234.04718 
L 746.29377 234.144639 
L 746.29377 234.078736 
L 746.983972 234.15455 
L 746.983972 234.0931 
L 748.016463 234.1537 
L 748.016463 234.093027 
L 748.705198 234.149216 
L 748.705198 234.076931 
L 749.393689 234.151511 
L 749.393689 234.082319 
L 750.081935 234.146503 
L 750.081935 234.093652 
L 750.770425 234.160426 
L 750.770425 234.109328 
L 751.464539 234.150714 
L 751.464539 234.088758 
L 752.49703 234.148884 
L 752.49703 234.074153 
L 753.18552 234.133016 
L 753.18552 234.080796 
L 753.874255 234.142746 
L 753.874255 234.079961 
L 754.562746 234.139982 
L 754.562746 234.059158 
L 755.601349 234.166451 
L 755.601349 234.106297 
L 756.63873 234.157039 
L 756.63873 234.108416 
L 757.327954 234.157443 
L 757.327954 234.088878 
L 758.36069 234.147328 
L 758.36069 234.058418 
L 759.048446 234.105303 
L 759.048446 234.053676 
L 759.736448 234.141414 
L 759.736448 234.088221 
L 760.76845 234.163985 
L 760.76845 234.109559 
L 761.456696 234.158998 
L 761.456696 234.098332 
L 762.495055 234.169479 
L 762.495055 234.110136 
L 762.839056 234.168269 
L 762.839056 234.118544 
L 763.872036 234.102911 
L 764.560282 234.144509 
L 764.560282 234.075496 
L 765.248283 234.15656 
L 765.248283 234.103355 
L 765.597663 234.169945 
L 765.597663 234.106686 
L 768.700515 234.093397 
L 769.388516 234.166089 
L 769.388516 234.106593 
L 770.076029 234.157874 
L 770.076029 234.098628 
L 770.764519 234.149976 
L 770.764519 234.095173 
L 771.796766 234.181852 
L 771.796766 234.122528 
L 772.49088 234.143558 
L 772.49088 234.06851 
L 773.522882 234.175068 
L 773.522882 234.124336 
L 774.210639 234.166294 
L 774.210639 234.103831 
L 774.89864 234.145175 
L 774.89864 234.072002 
L 775.586642 234.126906 
L 775.586642 234.062394 
L 776.624511 234.158164 
L 776.624511 234.102435 
L 777.661403 234.163494 
L 777.661403 234.112004 
L 778.693895 234.158418 
L 778.693895 234.119812 
L 779.381896 234.179668 
L 779.381896 234.105294 
L 780.069897 234.132208 
L 780.069897 234.083342 
L 783.859529 234.173407 
L 783.859529 234.105016 
L 784.203285 234.17125 
L 784.203285 234.112578 
L 785.234309 234.106532 
L 785.234309 234.1157 
L 785.921822 234.182915 
L 785.921822 234.110974 
L 786.952846 234.167111 
L 786.952846 234.125574 
L 787.994139 234.162261 
L 787.994139 234.112128 
L 789.023696 234.153997 
L 789.023696 234.105121 
L 789.709986 234.15631 
L 789.709986 234.107141 
L 790.734409 234.184024 
L 790.734409 234.136101 
L 792.08963 234.192884 
L 792.08963 234.136763 
L 792.764429 234.171516 
L 792.764429 234.112763 
L 794.104002 234.2033 
L 794.104002 234.136224 
L 795.435263 234.199741 
L 795.435263 234.147986 
L 796.100526 234.171414 
L 796.100526 234.12709 
L 796.765057 234.202619 
L 796.765057 234.138808 
L 797.429342 234.164284 
L 797.429342 234.112775 
L 800.755905 234.194153 
L 800.755905 234.142789 
L 801.421413 234.15418 
L 801.421413 234.120263 
L 802.085943 234.19951 
L 802.085943 234.155826 
L 803.423805 234.11604 
L 803.423805 234.137424 
L 805.426931 234.116447 
L 806.430328 234.179331 
L 806.430328 234.119378 
L 807.432991 234.195734 
L 807.432991 234.148786 
L 808.108279 234.184013 
L 808.108279 234.131981 
L 810.122651 234.120024 
L 811.128003 234.180828 
L 811.128003 234.130546 
L 812.135556 234.201542 
L 812.135556 234.142073 
L 814.882672 234.346744 
L 816.286792 234.348873 
L 816.286792 234.348873 
" clip-path="url(#pdb96477552)" style="fill: none; stroke: #008000; stroke-width: 1.5; stroke-linecap: square"/>
   </g>
   <g id="patch_3">
    <path d="M 47.72 534.04 
L 47.72 26.88 
" style="fill: none; stroke: #000000; stroke-width: 0.8; stroke-linejoin: miter; stroke-linecap: square"/>
   </g>
   <g id="patch_4">
    <path d="M 853.2 534.04 
L 853.2 26.88 
" style="fill: none; stroke: #000000; stroke-width: 0.8; stroke-linejoin: miter; stroke-linecap: square"/>
   </g>
   <g id="patch_5">
    <path d="M 47.72 534.04 
L 853.2 534.04 
" style="fill: none; stroke: #000000; stroke-width: 0.8; stroke-linejoin: miter; stroke-linecap: square"/>
   </g>
   <g id="patch_6">
    <path d="M 47.72 26.88 
L 853.2 26.88 
" style="fill: none; stroke: #000000; stroke-width: 0.8; stroke-linejoin: miter; stroke-linecap: square"/>
   </g>
   <g id="patch_7">
    <path d="M 559.523532 323.072423 
Q 533.372238 328.906285 507.220944 334.740148 
L 508.091861 338.644185 
Q 501.584081 337.022207 495.076301 335.400229 
Q 500.277705 331.166151 505.479109 326.932074 
L 506.350027 330.836111 
Q 532.501321 325.002249 558.652614 319.168386 
L 559.523532 323.072423 
z
" style="stroke: #000000; stroke-linecap: round"/>
   </g>
   <g id="text_15">
    <!-- Peak: RT=2.78, Area=2.07e+04 -->
    <g style="fill: #ff0000" transform="translate(564.760167 306.577567) scale(0.1 -0.1)">
     <defs>
      <path id="DejaVuSans-50" d="M 1259 4147 
L 1259 2394 
L 2053 2394 
Q 2494 2394 2734 2622 
Q 2975 2850 2975 3272 
Q 2975 3691 2734 3919 
Q 2494 4147 2053 4147 
L 1259 4147 
z
M 628 4666 
L 2053 4666 
Q 2838 4666 3239 4311 
Q 3641 3956 3641 3272 
Q 3641 2581 3239 2228 
Q 2838 1875 2053 1875 
L 1259 1875 
L 1259 0 
L 628 0 
L 628 4666 
z
" transform="scale(0.015625)"/>
      <path id="DejaVuSans-6b" d="M 581 4863 
L 1159 4863 
L 1159 1991 
L 2875 3500 
L 3609 3500 
L 1753 1863 
L 3688 0 
L 2938 0 
L 1159 1709 
L 1159 0 
L 581 0 
L 581 4863 
z
" transform="scale(0.015625)"/>
      <path id="DejaVuSans-3a" d="M 750 794 
L 1409 794 
L 1409 0 
L 750 0 
L 750 794 
z
M 750 3309 
L 1409 3309 
L 1409 2516 
L 750 2516 
L 750 3309 
z
" transform="scale(0.015625)"/>
      <path id="DejaVuSans-3d" d="M 678 2906 
L 4684 2906 
L 4684 2381 
L 678 2381 
L 678 2906 
z
M 678 1631 
L 4684 1631 
L 4684 1100 
L 678 1100 
L 678 1631 
z
" transform="scale(0.015625)"/>
      <path id="DejaVuSans-37" d="M 525 4666 
L 3525 4666 
L 3525 4397 
L 1831 0 
L 1172 0 
L 2766 4134 
L 525 4134 
L 525 4666 
z
" transform="scale(0.015625)"/>
      <path id="DejaVuSans-38" d="M 2034 2216 
Q 1584 2216 1326 1975 
Q 1069 1734 1069 1313 
Q 1069 891 1326 650 
Q 1584 409 2034 409 
Q 2484 409 2743 651 
Q 3003 894 3003 1313 
Q 3003 1734 2745 1975 
Q 2488 2216 2034 2216 
z
M 1403 2484 
Q 997 2584 770 2862 
Q 544 3141 544 3541 
Q 544 4100 942 4425 
Q 1341 4750 2034 4750 
Q 2731 4750 3128 4425 
Q 3525 4100 3525 3541 
Q 3525 3141 3298 2862 
Q 3072 2584 2669 2484 
Q 3125 2378 3379 2068 
Q 3634 1759 3634 1313 
Q 3634 634 3220 271 
Q 2806 -91 2034 -91 
Q 1263 -91 848 271 
Q 434 634 434 1313 
Q 434 1759 690 2068 
Q 947 2378 1403 2484 
z
M 1172 3481 
Q 1172 3119 1398 2916 
Q 1625 2713 2034 2713 
Q 2441 2713 2670 2916 
Q 2900 3119 2900 3481 
Q 2900 3844 2670 4047 
Q 2441 4250 2034 4250 
Q 1625 4250 1398 4047 
Q 1172 3844 1172 3481 
z
" transform="scale(0.015625)"/>
      <path id="DejaVuSans-2c" d="M 750 794 
L 1409 794 
L 1409 256 
L 897 -744 
L 494 -744 
L 750 256 
L 750 794 
z
" transform="scale(0.015625)"/>
      <path id="DejaVuSans-41" d="M 2188 4044 
L 1331 1722 
L 3047 1722 
L 2188 4044 
z
M 1831 4666 
L 2547 4666 
L 4325 0 
L 3669 0 
L 3244 1197 
L 1141 1197 
L 716 0 
L 50 0 
L 1831 4666 
z
" transform="scale(0.015625)"/>
      <path id="DejaVuSans-2b" d="M 2944 4013 
L 2944 2272 
L 4684 2272 
L 4684 1741 
L 2944 1741 
L 2944 0 
L 2419 0 
L 2419 1741 
L 678 1741 
L 678 2272 
L 2419 2272 
L 2419 4013 
L 2944 4013 
z
" transform="scale(0.015625)"/>
     </defs>
     <use xlink:href="#DejaVuSans-50"/>
     <use xlink:href="#DejaVuSans-65" transform="translate(56.677734 0)"/>
     <use xlink:href="#DejaVuSans-61" transform="translate(118.201172 0)"/>
     <use xlink:href="#DejaVuSans-6b" transform="translate(179.480469 0)"/>
     <use xlink:href="#DejaVuSans-3a" transform="translate(237.390625 0)"/>
     <use xlink:href="#DejaVuSans-20" transform="translate(271.082031 0)"/>
     <use xlink:href="#DejaVuSans-52" transform="translate(302.869141 0)"/>
     <use xlink:href="#DejaVuSans-54" transform="translate(365.101562 0)"/>
     <use xlink:href="#DejaVuSans-3d" transform="translate(426.185547 0)"/>
     <use xlink:href="#DejaVuSans-32" transform="translate(509.974609 0)"/>
     <use xlink:href="#DejaVuSans-2e" transform="translate(573.597656 0)"/>
     <use xlink:href="#DejaVuSans-37" transform="translate(605.384766 0)"/>
     <use xlink:href="#DejaVuSans-38" transform="translate(669.007812 0)"/>
     <use xlink:href="#DejaVuSans-2c" transform="translate(732.630859 0)"/>
     <use xlink:href="#DejaVuSans-20" transform="translate(764.417969 0)"/>
     <use xlink:href="#DejaVuSans-41" transform="translate(796.205078 0)"/>
     <use xlink:href="#DejaVuSans-72" transform="translate(864.613281 0)"/>
     <use xlink:href="#DejaVuSans-65" transform="translate(903.476562 0)"/>
     <use xlink:href="#DejaVuSans-61" transform="translate(965 0)"/>
     <use xlink:href="#DejaVuSans-3d" transform="translate(1026.279297 0)"/>
     <use xlink:href="#DejaVuSans-32" transform="translate(1110.068359 0)"/>
     <use xlink:href="#DejaVuSans-2e" transform="translate(1173.691406 0)"/>
     <use xlink:href="#DejaVuSans-30" transform="translate(1205.478516 0)"/>
     <use xlink:href="#DejaVuSans-37" transform="translate(1269.101562 0)"/>
     <use xlink:href="#DejaVuSans-65" transform="translate(1332.724609 0)"/>
     <use xlink:href="#DejaVuSans-2b" transform="translate(1394.248047 0)"/>
     <use xlink:href="#DejaVuSans-30" transform="translate(1478.037109 0)"/>
     <use xlink:href="#DejaVuSans-34" transform="translate(1541.660156 0)"/>
    </g>
    <!-- (65.13% of total) -->
    <g style="fill: #ff0000" transform="translate(564.760167 317.775379) scale(0.1 -0.1)">
     <defs>
      <path id="DejaVuSans-36" d="M 2113 2584 
Q 1688 2584 1439 2293 
Q 1191 2003 1191 1497 
Q 1191 994 1439 701 
Q 1688 409 2113 409 
Q 2538 409 2786 701 
Q 3034 994 3034 1497 
Q 3034 2003 2786 2293 
Q 2538 2584 2113 2584 
z
M 3366 4563 
L 3366 3988 
Q 3128 4100 2886 4159 
Q 2644 4219 2406 4219 
Q 1781 4219 1451 3797 
Q 1122 3375 1075 2522 
Q 1259 2794 1537 2939 
Q 1816 3084 2150 3084 
Q 2853 3084 3261 2657 
Q 3669 2231 3669 1497 
Q 3669 778 3244 343 
Q 2819 -91 2113 -91 
Q 1303 -91 875 529 
Q 447 1150 447 2328 
Q 447 3434 972 4092 
Q 1497 4750 2381 4750 
Q 2619 4750 2861 4703 
Q 3103 4656 3366 4563 
z
" transform="scale(0.015625)"/>
      <path id="DejaVuSans-25" d="M 4653 2053 
Q 4381 2053 4226 1822 
Q 4072 1591 4072 1178 
Q 4072 772 4226 539 
Q 4381 306 4653 306 
Q 4919 306 5073 539 
Q 5228 772 5228 1178 
Q 5228 1588 5073 1820 
Q 4919 2053 4653 2053 
z
M 4653 2450 
Q 5147 2450 5437 2106 
Q 5728 1763 5728 1178 
Q 5728 594 5436 251 
Q 5144 -91 4653 -91 
Q 4153 -91 3862 251 
Q 3572 594 3572 1178 
Q 3572 1766 3864 2108 
Q 4156 2450 4653 2450 
z
M 1428 4353 
Q 1159 4353 1004 4120 
Q 850 3888 850 3481 
Q 850 3069 1003 2837 
Q 1156 2606 1428 2606 
Q 1700 2606 1854 2837 
Q 2009 3069 2009 3481 
Q 2009 3884 1853 4118 
Q 1697 4353 1428 4353 
z
M 4250 4750 
L 4750 4750 
L 1831 -91 
L 1331 -91 
L 4250 4750 
z
M 1428 4750 
Q 1922 4750 2215 4408 
Q 2509 4066 2509 3481 
Q 2509 2891 2217 2550 
Q 1925 2209 1428 2209 
Q 931 2209 642 2551 
Q 353 2894 353 3481 
Q 353 4063 643 4406 
Q 934 4750 1428 4750 
z
" transform="scale(0.015625)"/>
      <path id="DejaVuSans-66" d="M 2375 4863 
L 2375 4384 
L 1825 4384 
Q 1516 4384 1395 4259 
Q 1275 4134 1275 3809 
L 1275 3500 
L 2222 3500 
L 2222 3053 
L 1275 3053 
L 1275 0 
L 697 0 
L 697 3053 
L 147 3053 
L 147 3500 
L 697 3500 
L 697 3744 
Q 697 4328 969 4595 
Q 1241 4863 1831 4863 
L 2375 4863 
z
" transform="scale(0.015625)"/>
     </defs>
     <use xlink:href="#DejaVuSans-28"/>
     <use xlink:href="#DejaVuSans-36" transform="translate(39.013672 0)"/>
     <use xlink:href="#DejaVuSans-35" transform="translate(102.636719 0)"/>
     <use xlink:href="#DejaVuSans-2e" transform="translate(166.259766 0)"/>
     <use xlink:href="#DejaVuSans-31" transform="translate(198.046875 0)"/>
     <use xlink:href="#DejaVuSans-33" transform="translate(261.669922 0)"/>
     <use xlink:href="#DejaVuSans-25" transform="translate(325.292969 0)"/>
     <use xlink:href="#DejaVuSans-20" transform="translate(420.3125 0)"/>
     <use xlink:href="#DejaVuSans-6f" transform="translate(452.099609 0)"/>
     <use xlink:href="#DejaVuSans-66" transform="translate(513.28125 0)"/>
     <use xlink:href="#DejaVuSans-20" transform="translate(548.486328 0)"/>
     <use xlink:href="#DejaVuSans-74" transform="translate(580.273438 0)"/>
     <use xlink:href="#DejaVuSans-6f" transform="translate(619.482422 0)"/>
     <use xlink:href="#DejaVuSans-74" transform="translate(680.664062 0)"/>
     <use xlink:href="#DejaVuSans-61" transform="translate(719.873047 0)"/>
     <use xlink:href="#DejaVuSans-6c" transform="translate(781.152344 0)"/>
     <use xlink:href="#DejaVuSans-29" transform="translate(808.935547 0)"/>
    </g>
   </g>
   <g id="text_16">
    <!-- UV and MS Chromatograms of IrCp4A10, target m/z = 658.1778417 -->
    <g transform="translate(246.215313 20.88) scale(0.12 -0.12)">
     <defs>
      <path id="DejaVuSans-55" d="M 556 4666 
L 1191 4666 
L 1191 1831 
Q 1191 1081 1462 751 
Q 1734 422 2344 422 
Q 2950 422 3222 751 
Q 3494 1081 3494 1831 
L 3494 4666 
L 4128 4666 
L 4128 1753 
Q 4128 841 3676 375 
Q 3225 -91 2344 -91 
Q 1459 -91 1007 375 
Q 556 841 556 1753 
L 556 4666 
z
" transform="scale(0.015625)"/>
      <path id="DejaVuSans-56" d="M 1831 0 
L 50 4666 
L 709 4666 
L 2188 738 
L 3669 4666 
L 4325 4666 
L 2547 0 
L 1831 0 
z
" transform="scale(0.015625)"/>
      <path id="DejaVuSans-4d" d="M 628 4666 
L 1569 4666 
L 2759 1491 
L 3956 4666 
L 4897 4666 
L 4897 0 
L 4281 0 
L 4281 4097 
L 3078 897 
L 2444 897 
L 1241 4097 
L 1241 0 
L 628 0 
L 628 4666 
z
" transform="scale(0.015625)"/>
      <path id="DejaVuSans-53" d="M 3425 4513 
L 3425 3897 
Q 3066 4069 2747 4153 
Q 2428 4238 2131 4238 
Q 1616 4238 1336 4038 
Q 1056 3838 1056 3469 
Q 1056 3159 1242 3001 
Q 1428 2844 1947 2747 
L 2328 2669 
Q 3034 2534 3370 2195 
Q 3706 1856 3706 1288 
Q 3706 609 3251 259 
Q 2797 -91 1919 -91 
Q 1588 -91 1214 -16 
Q 841 59 441 206 
L 441 856 
Q 825 641 1194 531 
Q 1563 422 1919 422 
Q 2459 422 2753 634 
Q 3047 847 3047 1241 
Q 3047 1584 2836 1778 
Q 2625 1972 2144 2069 
L 1759 2144 
Q 1053 2284 737 2584 
Q 422 2884 422 3419 
Q 422 4038 858 4394 
Q 1294 4750 2059 4750 
Q 2388 4750 2728 4690 
Q 3069 4631 3425 4513 
z
" transform="scale(0.015625)"/>
      <path id="DejaVuSans-43" d="M 4122 4306 
L 4122 3641 
Q 3803 3938 3442 4084 
Q 3081 4231 2675 4231 
Q 1875 4231 1450 3742 
Q 1025 3253 1025 2328 
Q 1025 1406 1450 917 
Q 1875 428 2675 428 
Q 3081 428 3442 575 
Q 3803 722 4122 1019 
L 4122 359 
Q 3791 134 3420 21 
Q 3050 -91 2638 -91 
Q 1578 -91 968 557 
Q 359 1206 359 2328 
Q 359 3453 968 4101 
Q 1578 4750 2638 4750 
Q 3056 4750 3426 4639 
Q 3797 4528 4122 4306 
z
" transform="scale(0.015625)"/>
      <path id="DejaVuSans-68" d="M 3513 2113 
L 3513 0 
L 2938 0 
L 2938 2094 
Q 2938 2591 2744 2837 
Q 2550 3084 2163 3084 
Q 1697 3084 1428 2787 
Q 1159 2491 1159 1978 
L 1159 0 
L 581 0 
L 581 4863 
L 1159 4863 
L 1159 2956 
Q 1366 3272 1645 3428 
Q 1925 3584 2291 3584 
Q 2894 3584 3203 3211 
Q 3513 2838 3513 2113 
z
" transform="scale(0.015625)"/>
      <path id="DejaVuSans-67" d="M 2906 1791 
Q 2906 2416 2648 2759 
Q 2391 3103 1925 3103 
Q 1463 3103 1205 2759 
Q 947 2416 947 1791 
Q 947 1169 1205 825 
Q 1463 481 1925 481 
Q 2391 481 2648 825 
Q 2906 1169 2906 1791 
z
M 3481 434 
Q 3481 -459 3084 -895 
Q 2688 -1331 1869 -1331 
Q 1566 -1331 1297 -1286 
Q 1028 -1241 775 -1147 
L 775 -588 
Q 1028 -725 1275 -790 
Q 1522 -856 1778 -856 
Q 2344 -856 2625 -561 
Q 2906 -266 2906 331 
L 2906 616 
Q 2728 306 2450 153 
Q 2172 0 1784 0 
Q 1141 0 747 490 
Q 353 981 353 1791 
Q 353 2603 747 3093 
Q 1141 3584 1784 3584 
Q 2172 3584 2450 3431 
Q 2728 3278 2906 2969 
L 2906 3500 
L 3481 3500 
L 3481 434 
z
" transform="scale(0.015625)"/>
      <path id="DejaVuSans-70" d="M 1159 525 
L 1159 -1331 
L 581 -1331 
L 581 3500 
L 1159 3500 
L 1159 2969 
Q 1341 3281 1617 3432 
Q 1894 3584 2278 3584 
Q 2916 3584 3314 3078 
Q 3713 2572 3713 1747 
Q 3713 922 3314 415 
Q 2916 -91 2278 -91 
Q 1894 -91 1617 61 
Q 1341 213 1159 525 
z
M 3116 1747 
Q 3116 2381 2855 2742 
Q 2594 3103 2138 3103 
Q 1681 3103 1420 2742 
Q 1159 2381 1159 1747 
Q 1159 1113 1420 752 
Q 1681 391 2138 391 
Q 2594 391 2855 752 
Q 3116 1113 3116 1747 
z
" transform="scale(0.015625)"/>
      <path id="DejaVuSans-2f" d="M 1625 4666 
L 2156 4666 
L 531 -594 
L 0 -594 
L 1625 4666 
z
" transform="scale(0.015625)"/>
     </defs>
     <use xlink:href="#DejaVuSans-55"/>
     <use xlink:href="#DejaVuSans-56" transform="translate(73.193359 0)"/>
     <use xlink:href="#DejaVuSans-20" transform="translate(141.601562 0)"/>
     <use xlink:href="#DejaVuSans-61" transform="translate(173.388672 0)"/>
     <use xlink:href="#DejaVuSans-6e" transform="translate(234.667969 0)"/>
     <use xlink:href="#DejaVuSans-64" transform="translate(298.046875 0)"/>
     <use xlink:href="#DejaVuSans-20" transform="translate(361.523438 0)"/>
     <use xlink:href="#DejaVuSans-4d" transform="translate(393.310547 0)"/>
     <use xlink:href="#DejaVuSans-53" transform="translate(479.589844 0)"/>
     <use xlink:href="#DejaVuSans-20" transform="translate(543.066406 0)"/>
     <use xlink:href="#DejaVuSans-43" transform="translate(574.853516 0)"/>
     <use xlink:href="#DejaVuSans-68" transform="translate(644.677734 0)"/>
     <use xlink:href="#DejaVuSans-72" transform="translate(708.056641 0)"/>
     <use xlink:href="#DejaVuSans-6f" transform="translate(746.919922 0)"/>
     <use xlink:href="#DejaVuSans-6d" transform="translate(808.101562 0)"/>
     <use xlink:href="#DejaVuSans-61" transform="translate(905.513672 0)"/>
     <use xlink:href="#DejaVuSans-74" transform="translate(966.792969 0)"/>
     <use xlink:href="#DejaVuSans-6f" transform="translate(1006.001953 0)"/>
     <use xlink:href="#DejaVuSans-67" transform="translate(1067.183594 0)"/>
     <use xlink:href="#DejaVuSans-72" transform="translate(1130.660156 0)"/>
     <use xlink:href="#DejaVuSans-61" transform="translate(1171.773438 0)"/>
     <use xlink:href="#DejaVuSans-6d" transform="translate(1233.052734 0)"/>
     <use xlink:href="#DejaVuSans-73" transform="translate(1330.464844 0)"/>
     <use xlink:href="#DejaVuSans-20" transform="translate(1382.564453 0)"/>
     <use xlink:href="#DejaVuSans-6f" transform="translate(1414.351562 0)"/>
     <use xlink:href="#DejaVuSans-66" transform="translate(1475.533203 0)"/>
     <use xlink:href="#DejaVuSans-20" transform="translate(1510.738281 0)"/>
     <use xlink:href="#DejaVuSans-49" transform="translate(1542.525391 0)"/>
     <use xlink:href="#DejaVuSans-72" transform="translate(1572.017578 0)"/>
     <use xlink:href="#DejaVuSans-43" transform="translate(1613.130859 0)"/>
     <use xlink:href="#DejaVuSans-70" transform="translate(1682.955078 0)"/>
     <use xlink:href="#DejaVuSans-34" transform="translate(1746.431641 0)"/>
     <use xlink:href="#DejaVuSans-41" transform="translate(1810.054688 0)"/>
     <use xlink:href="#DejaVuSans-31" transform="translate(1878.462891 0)"/>
     <use xlink:href="#DejaVuSans-30" transform="translate(1942.085938 0)"/>
     <use xlink:href="#DejaVuSans-2c" transform="translate(2005.708984 0)"/>
     <use xlink:href="#DejaVuSans-20" transform="translate(2037.496094 0)"/>
     <use xlink:href="#DejaVuSans-74" transform="translate(2069.283203 0)"/>
     <use xlink:href="#DejaVuSans-61" transform="translate(2108.492188 0)"/>
     <use xlink:href="#DejaVuSans-72" transform="translate(2169.771484 0)"/>
     <use xlink:href="#DejaVuSans-67" transform="translate(2209.134766 0)"/>
     <use xlink:href="#DejaVuSans-65" transform="translate(2272.611328 0)"/>
     <use xlink:href="#DejaVuSans-74" transform="translate(2334.134766 0)"/>
     <use xlink:href="#DejaVuSans-20" transform="translate(2373.34375 0)"/>
     <use xlink:href="#DejaVuSans-6d" transform="translate(2405.130859 0)"/>
     <use xlink:href="#DejaVuSans-2f" transform="translate(2502.542969 0)"/>
     <use xlink:href="#DejaVuSans-7a" transform="translate(2536.234375 0)"/>
     <use xlink:href="#DejaVuSans-20" transform="translate(2588.724609 0)"/>
     <use xlink:href="#DejaVuSans-3d" transform="translate(2620.511719 0)"/>
     <use xlink:href="#DejaVuSans-20" transform="translate(2704.300781 0)"/>
     <use xlink:href="#DejaVuSans-36" transform="translate(2736.087891 0)"/>
     <use xlink:href="#DejaVuSans-35" transform="translate(2799.710938 0)"/>
     <use xlink:href="#DejaVuSans-38" transform="translate(2863.333984 0)"/>
     <use xlink:href="#DejaVuSans-2e" transform="translate(2926.957031 0)"/>
     <use xlink:href="#DejaVuSans-31" transform="translate(2958.744141 0)"/>
     <use xlink:href="#DejaVuSans-37" transform="translate(3022.367188 0)"/>
     <use xlink:href="#DejaVuSans-37" transform="translate(3085.990234 0)"/>
     <use xlink:href="#DejaVuSans-38" transform="translate(3149.613281 0)"/>
     <use xlink:href="#DejaVuSans-34" transform="translate(3213.236328 0)"/>
     <use xlink:href="#DejaVuSans-31" transform="translate(3276.859375 0)"/>
     <use xlink:href="#DejaVuSans-37" transform="translate(3340.482422 0)"/>
    </g>
   </g>
   <g id="legend_1">
    <g id="patch_8">
     <path d="M 685.971875 64.23625 
L 846.2 64.23625 
Q 848.2 64.23625 848.2 62.23625 
L 848.2 33.88 
Q 848.2 31.88 846.2 31.88 
L 685.971875 31.88 
Q 683.971875 31.88 683.971875 33.88 
L 683.971875 62.23625 
Q 683.971875 64.23625 685.971875 64.23625 
z
" style="fill: #ffffff; opacity: 0.8; stroke: #cccccc; stroke-linejoin: miter"/>
    </g>
    <g id="line2d_15">
     <path d="M 687.971875 39.978437 
L 697.971875 39.978437 
L 707.971875 39.978437 
" style="fill: none; stroke: #0000ff; stroke-width: 1.5; stroke-linecap: square"/>
    </g>
    <g id="text_17">
     <!-- UV Intensity (normalized) -->
     <g transform="translate(715.971875 43.478437) scale(0.1 -0.1)">
      <use xlink:href="#DejaVuSans-55"/>
      <use xlink:href="#DejaVuSans-56" transform="translate(73.193359 0)"/>
      <use xlink:href="#DejaVuSans-20" transform="translate(141.601562 0)"/>
      <use xlink:href="#DejaVuSans-49" transform="translate(173.388672 0)"/>
      <use xlink:href="#DejaVuSans-6e" transform="translate(202.880859 0)"/>
      <use xlink:href="#DejaVuSans-74" transform="translate(266.259766 0)"/>
      <use xlink:href="#DejaVuSans-65" transform="translate(305.46875 0)"/>
      <use xlink:href="#DejaVuSans-6e" transform="translate(366.992188 0)"/>
      <use xlink:href="#DejaVuSans-73" transform="translate(430.371094 0)"/>
      <use xlink:href="#DejaVuSans-69" transform="translate(482.470703 0)"/>
      <use xlink:href="#DejaVuSans-74" transform="translate(510.253906 0)"/>
      <use xlink:href="#DejaVuSans-79" transform="translate(549.462891 0)"/>
      <use xlink:href="#DejaVuSans-20" transform="translate(608.642578 0)"/>
      <use xlink:href="#DejaVuSans-28" transform="translate(640.429688 0)"/>
      <use xlink:href="#DejaVuSans-6e" transform="translate(679.443359 0)"/>
      <use xlink:href="#DejaVuSans-6f" transform="translate(742.822266 0)"/>
      <use xlink:href="#DejaVuSans-72" transform="translate(804.003906 0)"/>
      <use xlink:href="#DejaVuSans-6d" transform="translate(843.367188 0)"/>
      <use xlink:href="#DejaVuSans-61" transform="translate(940.779297 0)"/>
      <use xlink:href="#DejaVuSans-6c" transform="translate(1002.058594 0)"/>
      <use xlink:href="#DejaVuSans-69" transform="translate(1029.841797 0)"/>
      <use xlink:href="#DejaVuSans-7a" transform="translate(1057.625 0)"/>
      <use xlink:href="#DejaVuSans-65" transform="translate(1110.115234 0)"/>
      <use xlink:href="#DejaVuSans-64" transform="translate(1171.638672 0)"/>
      <use xlink:href="#DejaVuSans-29" transform="translate(1235.115234 0)"/>
     </g>
    </g>
    <g id="line2d_16">
     <path d="M 687.971875 54.656562 
L 697.971875 54.656562 
L 707.971875 54.656562 
" style="fill: none; stroke: #008000; stroke-width: 1.5; stroke-linecap: square"/>
    </g>
    <g id="text_18">
     <!-- MS Intensity (normalized) -->
     <g transform="translate(715.971875 58.156562) scale(0.1 -0.1)">
      <use xlink:href="#DejaVuSans-4d"/>
      <use xlink:href="#DejaVuSans-53" transform="translate(86.279297 0)"/>
      <use xlink:href="#DejaVuSans-20" transform="translate(149.755859 0)"/>
      <use xlink:href="#DejaVuSans-49" transform="translate(181.542969 0)"/>
      <use xlink:href="#DejaVuSans-6e" transform="translate(211.035156 0)"/>
      <use xlink:href="#DejaVuSans-74" transform="translate(274.414062 0)"/>
      <use xlink:href="#DejaVuSans-65" transform="translate(313.623047 0)"/>
      <use xlink:href="#DejaVuSans-6e" transform="translate(375.146484 0)"/>
      <use xlink:href="#DejaVuSans-73" transform="translate(438.525391 0)"/>
      <use xlink:href="#DejaVuSans-69" transform="translate(490.625 0)"/>
      <use xlink:href="#DejaVuSans-74" transform="translate(518.408203 0)"/>
      <use xlink:href="#DejaVuSans-79" transform="translate(557.617188 0)"/>
      <use xlink:href="#DejaVuSans-20" transform="translate(616.796875 0)"/>
      <use xlink:href="#DejaVuSans-28" transform="translate(648.583984 0)"/>
      <use xlink:href="#DejaVuSans-6e" transform="translate(687.597656 0)"/>
      <use xlink:href="#DejaVuSans-6f" transform="translate(750.976562 0)"/>
      <use xlink:href="#DejaVuSans-72" transform="translate(812.158203 0)"/>
      <use xlink:href="#DejaVuSans-6d" transform="translate(851.521484 0)"/>
      <use xlink:href="#DejaVuSans-61" transform="translate(948.933594 0)"/>
      <use xlink:href="#DejaVuSans-6c" transform="translate(1010.212891 0)"/>
      <use xlink:href="#DejaVuSans-69" transform="translate(1037.996094 0)"/>
      <use xlink:href="#DejaVuSans-7a" transform="translate(1065.779297 0)"/>
      <use xlink:href="#DejaVuSans-65" transform="translate(1118.269531 0)"/>
      <use xlink:href="#DejaVuSans-64" transform="translate(1179.792969 0)"/>
      <use xlink:href="#DejaVuSans-29" transform="translate(1243.269531 0)"/>
     </g>
    </g>
   </g>
  </g>
 </g>
 <defs>
  <clipPath id="pdb96477552">
   <rect x="47.72" y="26.88" width="805.48" height="507.16"/>
  </clipPath>
 </defs>
</svg>
