<?xml version="1.0" encoding="utf-8" standalone="no"?>
<!DOCTYPE svg PUBLIC "-//W3C//DTD SVG 1.1//EN"
  "http://www.w3.org/Graphics/SVG/1.1/DTD/svg11.dtd">
<svg xmlns:xlink="http://www.w3.org/1999/xlink" width="864pt" height="576pt" viewBox="0 0 864 576" xmlns="http://www.w3.org/2000/svg" version="1.1">
 <metadata>
  <rdf:RDF xmlns:dc="http://purl.org/dc/elements/1.1/" xmlns:cc="http://creativecommons.org/ns#" xmlns:rdf="http://www.w3.org/1999/02/22-rdf-syntax-ns#">
   <cc:Work>
    <dc:type rdf:resource="http://purl.org/dc/dcmitype/StillImage"/>
    <dc:date>2025-03-06T18:37:24.289890</dc:date>
    <dc:format>image/svg+xml</dc:format>
    <dc:creator>
     <cc:Agent>
      <dc:title>Matplotlib v3.10.0, https://matplotlib.org/</dc:title>
     </cc:Agent>
    </dc:creator>
   </cc:Work>
  </rdf:RDF>
 </metadata>
 <defs>
  <style type="text/css">*{stroke-linejoin: round; stroke-linecap: butt}</style>
 </defs>
 <g id="figure_1">
  <g id="patch_1">
   <path d="M 0 576 
L 864 576 
L 864 0 
L 0 0 
z
" style="fill: #ffffff"/>
  </g>
  <g id="axes_1">
   <g id="patch_2">
    <path d="M 47.72 534.04 
L 853.2 534.04 
L 853.2 26.88 
L 47.72 26.88 
z
" style="fill: #ffffff"/>
   </g>
   <g id="matplotlib.axis_1">
    <g id="xtick_1">
     <g id="line2d_1">
      <defs>
       <path id="m032ca0f8ed" d="M 0 0 
L 0 3.5 
" style="stroke: #000000; stroke-width: 0.8"/>
      </defs>
      <g>
       <use xlink:href="#m032ca0f8ed" x="83.100486" y="534.04" style="stroke: #000000; stroke-width: 0.8"/>
      </g>
     </g>
     <g id="text_1">
      <!-- 0 -->
      <g transform="translate(79.919236 548.638438) scale(0.1 -0.1)">
       <defs>
        <path id="DejaVuSans-30" d="M 2034 4250 
Q 1547 4250 1301 3770 
Q 1056 3291 1056 2328 
Q 1056 1369 1301 889 
Q 1547 409 2034 409 
Q 2525 409 2770 889 
Q 3016 1369 3016 2328 
Q 3016 3291 2770 3770 
Q 2525 4250 2034 4250 
z
M 2034 4750 
Q 2819 4750 3233 4129 
Q 3647 3509 3647 2328 
Q 3647 1150 3233 529 
Q 2819 -91 2034 -91 
Q 1250 -91 836 529 
Q 422 1150 422 2328 
Q 422 3509 836 4129 
Q 1250 4750 2034 4750 
z
" transform="scale(0.015625)"/>
       </defs>
       <use xlink:href="#DejaVuSans-30"/>
      </g>
     </g>
    </g>
    <g id="xtick_2">
     <g id="line2d_2">
      <g>
       <use xlink:href="#m032ca0f8ed" x="229.795887" y="534.04" style="stroke: #000000; stroke-width: 0.8"/>
      </g>
     </g>
     <g id="text_2">
      <!-- 1 -->
      <g transform="translate(226.614637 548.638438) scale(0.1 -0.1)">
       <defs>
        <path id="DejaVuSans-31" d="M 794 531 
L 1825 531 
L 1825 4091 
L 703 3866 
L 703 4441 
L 1819 4666 
L 2450 4666 
L 2450 531 
L 3481 531 
L 3481 0 
L 794 0 
L 794 531 
z
" transform="scale(0.015625)"/>
       </defs>
       <use xlink:href="#DejaVuSans-31"/>
      </g>
     </g>
    </g>
    <g id="xtick_3">
     <g id="line2d_3">
      <g>
       <use xlink:href="#m032ca0f8ed" x="376.491289" y="534.04" style="stroke: #000000; stroke-width: 0.8"/>
      </g>
     </g>
     <g id="text_3">
      <!-- 2 -->
      <g transform="translate(373.310039 548.638438) scale(0.1 -0.1)">
       <defs>
        <path id="DejaVuSans-32" d="M 1228 531 
L 3431 531 
L 3431 0 
L 469 0 
L 469 531 
Q 828 903 1448 1529 
Q 2069 2156 2228 2338 
Q 2531 2678 2651 2914 
Q 2772 3150 2772 3378 
Q 2772 3750 2511 3984 
Q 2250 4219 1831 4219 
Q 1534 4219 1204 4116 
Q 875 4013 500 3803 
L 500 4441 
Q 881 4594 1212 4672 
Q 1544 4750 1819 4750 
Q 2544 4750 2975 4387 
Q 3406 4025 3406 3419 
Q 3406 3131 3298 2873 
Q 3191 2616 2906 2266 
Q 2828 2175 2409 1742 
Q 1991 1309 1228 531 
z
" transform="scale(0.015625)"/>
       </defs>
       <use xlink:href="#DejaVuSans-32"/>
      </g>
     </g>
    </g>
    <g id="xtick_4">
     <g id="line2d_4">
      <g>
       <use xlink:href="#m032ca0f8ed" x="523.18669" y="534.04" style="stroke: #000000; stroke-width: 0.8"/>
      </g>
     </g>
     <g id="text_4">
      <!-- 3 -->
      <g transform="translate(520.00544 548.638438) scale(0.1 -0.1)">
       <defs>
        <path id="DejaVuSans-33" d="M 2597 2516 
Q 3050 2419 3304 2112 
Q 3559 1806 3559 1356 
Q 3559 666 3084 287 
Q 2609 -91 1734 -91 
Q 1441 -91 1130 -33 
Q 819 25 488 141 
L 488 750 
Q 750 597 1062 519 
Q 1375 441 1716 441 
Q 2309 441 2620 675 
Q 2931 909 2931 1356 
Q 2931 1769 2642 2001 
Q 2353 2234 1838 2234 
L 1294 2234 
L 1294 2753 
L 1863 2753 
Q 2328 2753 2575 2939 
Q 2822 3125 2822 3475 
Q 2822 3834 2567 4026 
Q 2313 4219 1838 4219 
Q 1578 4219 1281 4162 
Q 984 4106 628 3988 
L 628 4550 
Q 988 4650 1302 4700 
Q 1616 4750 1894 4750 
Q 2613 4750 3031 4423 
Q 3450 4097 3450 3541 
Q 3450 3153 3228 2886 
Q 3006 2619 2597 2516 
z
" transform="scale(0.015625)"/>
       </defs>
       <use xlink:href="#DejaVuSans-33"/>
      </g>
     </g>
    </g>
    <g id="xtick_5">
     <g id="line2d_5">
      <g>
       <use xlink:href="#m032ca0f8ed" x="669.882092" y="534.04" style="stroke: #000000; stroke-width: 0.8"/>
      </g>
     </g>
     <g id="text_5">
      <!-- 4 -->
      <g transform="translate(666.700842 548.638438) scale(0.1 -0.1)">
       <defs>
        <path id="DejaVuSans-34" d="M 2419 4116 
L 825 1625 
L 2419 1625 
L 2419 4116 
z
M 2253 4666 
L 3047 4666 
L 3047 1625 
L 3713 1625 
L 3713 1100 
L 3047 1100 
L 3047 0 
L 2419 0 
L 2419 1100 
L 313 1100 
L 313 1709 
L 2253 4666 
z
" transform="scale(0.015625)"/>
       </defs>
       <use xlink:href="#DejaVuSans-34"/>
      </g>
     </g>
    </g>
    <g id="xtick_6">
     <g id="line2d_6">
      <g>
       <use xlink:href="#m032ca0f8ed" x="816.577493" y="534.04" style="stroke: #000000; stroke-width: 0.8"/>
      </g>
     </g>
     <g id="text_6">
      <!-- 5 -->
      <g transform="translate(813.396243 548.638438) scale(0.1 -0.1)">
       <defs>
        <path id="DejaVuSans-35" d="M 691 4666 
L 3169 4666 
L 3169 4134 
L 1269 4134 
L 1269 2991 
Q 1406 3038 1543 3061 
Q 1681 3084 1819 3084 
Q 2600 3084 3056 2656 
Q 3513 2228 3513 1497 
Q 3513 744 3044 326 
Q 2575 -91 1722 -91 
Q 1428 -91 1123 -41 
Q 819 9 494 109 
L 494 744 
Q 775 591 1075 516 
Q 1375 441 1709 441 
Q 2250 441 2565 725 
Q 2881 1009 2881 1497 
Q 2881 1984 2565 2268 
Q 2250 2553 1709 2553 
Q 1456 2553 1204 2497 
Q 953 2441 691 2322 
L 691 4666 
z
" transform="scale(0.015625)"/>
       </defs>
       <use xlink:href="#DejaVuSans-35"/>
      </g>
     </g>
    </g>
    <g id="text_7">
     <!-- Retention Time (min) -->
     <g transform="translate(397.61 562.316562) scale(0.1 -0.1)">
      <defs>
       <path id="DejaVuSans-52" d="M 2841 2188 
Q 3044 2119 3236 1894 
Q 3428 1669 3622 1275 
L 4263 0 
L 3584 0 
L 2988 1197 
Q 2756 1666 2539 1819 
Q 2322 1972 1947 1972 
L 1259 1972 
L 1259 0 
L 628 0 
L 628 4666 
L 2053 4666 
Q 2853 4666 3247 4331 
Q 3641 3997 3641 3322 
Q 3641 2881 3436 2590 
Q 3231 2300 2841 2188 
z
M 1259 4147 
L 1259 2491 
L 2053 2491 
Q 2509 2491 2742 2702 
Q 2975 2913 2975 3322 
Q 2975 3731 2742 3939 
Q 2509 4147 2053 4147 
L 1259 4147 
z
" transform="scale(0.015625)"/>
       <path id="DejaVuSans-65" d="M 3597 1894 
L 3597 1613 
L 953 1613 
Q 991 1019 1311 708 
Q 1631 397 2203 397 
Q 2534 397 2845 478 
Q 3156 559 3463 722 
L 3463 178 
Q 3153 47 2828 -22 
Q 2503 -91 2169 -91 
Q 1331 -91 842 396 
Q 353 884 353 1716 
Q 353 2575 817 3079 
Q 1281 3584 2069 3584 
Q 2775 3584 3186 3129 
Q 3597 2675 3597 1894 
z
M 3022 2063 
Q 3016 2534 2758 2815 
Q 2500 3097 2075 3097 
Q 1594 3097 1305 2825 
Q 1016 2553 972 2059 
L 3022 2063 
z
" transform="scale(0.015625)"/>
       <path id="DejaVuSans-74" d="M 1172 4494 
L 1172 3500 
L 2356 3500 
L 2356 3053 
L 1172 3053 
L 1172 1153 
Q 1172 725 1289 603 
Q 1406 481 1766 481 
L 2356 481 
L 2356 0 
L 1766 0 
Q 1100 0 847 248 
Q 594 497 594 1153 
L 594 3053 
L 172 3053 
L 172 3500 
L 594 3500 
L 594 4494 
L 1172 4494 
z
" transform="scale(0.015625)"/>
       <path id="DejaVuSans-6e" d="M 3513 2113 
L 3513 0 
L 2938 0 
L 2938 2094 
Q 2938 2591 2744 2837 
Q 2550 3084 2163 3084 
Q 1697 3084 1428 2787 
Q 1159 2491 1159 1978 
L 1159 0 
L 581 0 
L 581 3500 
L 1159 3500 
L 1159 2956 
Q 1366 3272 1645 3428 
Q 1925 3584 2291 3584 
Q 2894 3584 3203 3211 
Q 3513 2838 3513 2113 
z
" transform="scale(0.015625)"/>
       <path id="DejaVuSans-69" d="M 603 3500 
L 1178 3500 
L 1178 0 
L 603 0 
L 603 3500 
z
M 603 4863 
L 1178 4863 
L 1178 4134 
L 603 4134 
L 603 4863 
z
" transform="scale(0.015625)"/>
       <path id="DejaVuSans-6f" d="M 1959 3097 
Q 1497 3097 1228 2736 
Q 959 2375 959 1747 
Q 959 1119 1226 758 
Q 1494 397 1959 397 
Q 2419 397 2687 759 
Q 2956 1122 2956 1747 
Q 2956 2369 2687 2733 
Q 2419 3097 1959 3097 
z
M 1959 3584 
Q 2709 3584 3137 3096 
Q 3566 2609 3566 1747 
Q 3566 888 3137 398 
Q 2709 -91 1959 -91 
Q 1206 -91 779 398 
Q 353 888 353 1747 
Q 353 2609 779 3096 
Q 1206 3584 1959 3584 
z
" transform="scale(0.015625)"/>
       <path id="DejaVuSans-20" transform="scale(0.015625)"/>
       <path id="DejaVuSans-54" d="M -19 4666 
L 3928 4666 
L 3928 4134 
L 2272 4134 
L 2272 0 
L 1638 0 
L 1638 4134 
L -19 4134 
L -19 4666 
z
" transform="scale(0.015625)"/>
       <path id="DejaVuSans-6d" d="M 3328 2828 
Q 3544 3216 3844 3400 
Q 4144 3584 4550 3584 
Q 5097 3584 5394 3201 
Q 5691 2819 5691 2113 
L 5691 0 
L 5113 0 
L 5113 2094 
Q 5113 2597 4934 2840 
Q 4756 3084 4391 3084 
Q 3944 3084 3684 2787 
Q 3425 2491 3425 1978 
L 3425 0 
L 2847 0 
L 2847 2094 
Q 2847 2600 2669 2842 
Q 2491 3084 2119 3084 
Q 1678 3084 1418 2786 
Q 1159 2488 1159 1978 
L 1159 0 
L 581 0 
L 581 3500 
L 1159 3500 
L 1159 2956 
Q 1356 3278 1631 3431 
Q 1906 3584 2284 3584 
Q 2666 3584 2933 3390 
Q 3200 3197 3328 2828 
z
" transform="scale(0.015625)"/>
       <path id="DejaVuSans-28" d="M 1984 4856 
Q 1566 4138 1362 3434 
Q 1159 2731 1159 2009 
Q 1159 1288 1364 580 
Q 1569 -128 1984 -844 
L 1484 -844 
Q 1016 -109 783 600 
Q 550 1309 550 2009 
Q 550 2706 781 3412 
Q 1013 4119 1484 4856 
L 1984 4856 
z
" transform="scale(0.015625)"/>
       <path id="DejaVuSans-29" d="M 513 4856 
L 1013 4856 
Q 1481 4119 1714 3412 
Q 1947 2706 1947 2009 
Q 1947 1309 1714 600 
Q 1481 -109 1013 -844 
L 513 -844 
Q 928 -128 1133 580 
Q 1338 1288 1338 2009 
Q 1338 2731 1133 3434 
Q 928 4138 513 4856 
z
" transform="scale(0.015625)"/>
      </defs>
      <use xlink:href="#DejaVuSans-52"/>
      <use xlink:href="#DejaVuSans-65" transform="translate(64.982422 0)"/>
      <use xlink:href="#DejaVuSans-74" transform="translate(126.505859 0)"/>
      <use xlink:href="#DejaVuSans-65" transform="translate(165.714844 0)"/>
      <use xlink:href="#DejaVuSans-6e" transform="translate(227.238281 0)"/>
      <use xlink:href="#DejaVuSans-74" transform="translate(290.617188 0)"/>
      <use xlink:href="#DejaVuSans-69" transform="translate(329.826172 0)"/>
      <use xlink:href="#DejaVuSans-6f" transform="translate(357.609375 0)"/>
      <use xlink:href="#DejaVuSans-6e" transform="translate(418.791016 0)"/>
      <use xlink:href="#DejaVuSans-20" transform="translate(482.169922 0)"/>
      <use xlink:href="#DejaVuSans-54" transform="translate(513.957031 0)"/>
      <use xlink:href="#DejaVuSans-69" transform="translate(571.916016 0)"/>
      <use xlink:href="#DejaVuSans-6d" transform="translate(599.699219 0)"/>
      <use xlink:href="#DejaVuSans-65" transform="translate(697.111328 0)"/>
      <use xlink:href="#DejaVuSans-20" transform="translate(758.634766 0)"/>
      <use xlink:href="#DejaVuSans-28" transform="translate(790.421875 0)"/>
      <use xlink:href="#DejaVuSans-6d" transform="translate(829.435547 0)"/>
      <use xlink:href="#DejaVuSans-69" transform="translate(926.847656 0)"/>
      <use xlink:href="#DejaVuSans-6e" transform="translate(954.630859 0)"/>
      <use xlink:href="#DejaVuSans-29" transform="translate(1018.009766 0)"/>
     </g>
    </g>
   </g>
   <g id="matplotlib.axis_2">
    <g id="ytick_1">
     <g id="line2d_7">
      <defs>
       <path id="m6fc3e1eb31" d="M 0 0 
L -3.5 0 
" style="stroke: #000000; stroke-width: 0.8"/>
      </defs>
      <g>
       <use xlink:href="#m6fc3e1eb31" x="47.72" y="510.987273" style="stroke: #000000; stroke-width: 0.8"/>
      </g>
     </g>
     <g id="text_8">
      <!-- 0.0 -->
      <g style="fill: #0000ff" transform="translate(24.816875 514.786491) scale(0.1 -0.1)">
       <defs>
        <path id="DejaVuSans-2e" d="M 684 794 
L 1344 794 
L 1344 0 
L 684 0 
L 684 794 
z
" transform="scale(0.015625)"/>
       </defs>
       <use xlink:href="#DejaVuSans-30"/>
       <use xlink:href="#DejaVuSans-2e" transform="translate(63.623047 0)"/>
       <use xlink:href="#DejaVuSans-30" transform="translate(95.410156 0)"/>
      </g>
     </g>
    </g>
    <g id="ytick_2">
     <g id="line2d_8">
      <g>
       <use xlink:href="#m6fc3e1eb31" x="47.72" y="418.776364" style="stroke: #000000; stroke-width: 0.8"/>
      </g>
     </g>
     <g id="text_9">
      <!-- 0.5 -->
      <g style="fill: #0000ff" transform="translate(24.816875 422.575582) scale(0.1 -0.1)">
       <use xlink:href="#DejaVuSans-30"/>
       <use xlink:href="#DejaVuSans-2e" transform="translate(63.623047 0)"/>
       <use xlink:href="#DejaVuSans-35" transform="translate(95.410156 0)"/>
      </g>
     </g>
    </g>
    <g id="ytick_3">
     <g id="line2d_9">
      <g>
       <use xlink:href="#m6fc3e1eb31" x="47.72" y="326.565455" style="stroke: #000000; stroke-width: 0.8"/>
      </g>
     </g>
     <g id="text_10">
      <!-- 1.0 -->
      <g style="fill: #0000ff" transform="translate(24.816875 330.364673) scale(0.1 -0.1)">
       <use xlink:href="#DejaVuSans-31"/>
       <use xlink:href="#DejaVuSans-2e" transform="translate(63.623047 0)"/>
       <use xlink:href="#DejaVuSans-30" transform="translate(95.410156 0)"/>
      </g>
     </g>
    </g>
    <g id="ytick_4">
     <g id="line2d_10">
      <g>
       <use xlink:href="#m6fc3e1eb31" x="47.72" y="234.354545" style="stroke: #000000; stroke-width: 0.8"/>
      </g>
     </g>
     <g id="text_11">
      <!-- 1.5 -->
      <g style="fill: #0000ff" transform="translate(24.816875 238.153764) scale(0.1 -0.1)">
       <use xlink:href="#DejaVuSans-31"/>
       <use xlink:href="#DejaVuSans-2e" transform="translate(63.623047 0)"/>
       <use xlink:href="#DejaVuSans-35" transform="translate(95.410156 0)"/>
      </g>
     </g>
    </g>
    <g id="ytick_5">
     <g id="line2d_11">
      <g>
       <use xlink:href="#m6fc3e1eb31" x="47.72" y="142.143636" style="stroke: #000000; stroke-width: 0.8"/>
      </g>
     </g>
     <g id="text_12">
      <!-- 2.0 -->
      <g style="fill: #0000ff" transform="translate(24.816875 145.942855) scale(0.1 -0.1)">
       <use xlink:href="#DejaVuSans-32"/>
       <use xlink:href="#DejaVuSans-2e" transform="translate(63.623047 0)"/>
       <use xlink:href="#DejaVuSans-30" transform="translate(95.410156 0)"/>
      </g>
     </g>
    </g>
    <g id="ytick_6">
     <g id="line2d_12">
      <g>
       <use xlink:href="#m6fc3e1eb31" x="47.72" y="49.932727" style="stroke: #000000; stroke-width: 0.8"/>
      </g>
     </g>
     <g id="text_13">
      <!-- 2.5 -->
      <g style="fill: #0000ff" transform="translate(24.816875 53.731946) scale(0.1 -0.1)">
       <use xlink:href="#DejaVuSans-32"/>
       <use xlink:href="#DejaVuSans-2e" transform="translate(63.623047 0)"/>
       <use xlink:href="#DejaVuSans-35" transform="translate(95.410156 0)"/>
      </g>
     </g>
    </g>
    <g id="text_14">
     <!-- Normalized Intensity -->
     <g style="fill: #0000ff" transform="translate(18.737187 332.167031) rotate(-90) scale(0.1 -0.1)">
      <defs>
       <path id="DejaVuSans-4e" d="M 628 4666 
L 1478 4666 
L 3547 763 
L 3547 4666 
L 4159 4666 
L 4159 0 
L 3309 0 
L 1241 3903 
L 1241 0 
L 628 0 
L 628 4666 
z
" transform="scale(0.015625)"/>
       <path id="DejaVuSans-72" d="M 2631 2963 
Q 2534 3019 2420 3045 
Q 2306 3072 2169 3072 
Q 1681 3072 1420 2755 
Q 1159 2438 1159 1844 
L 1159 0 
L 581 0 
L 581 3500 
L 1159 3500 
L 1159 2956 
Q 1341 3275 1631 3429 
Q 1922 3584 2338 3584 
Q 2397 3584 2469 3576 
Q 2541 3569 2628 3553 
L 2631 2963 
z
" transform="scale(0.015625)"/>
       <path id="DejaVuSans-61" d="M 2194 1759 
Q 1497 1759 1228 1600 
Q 959 1441 959 1056 
Q 959 750 1161 570 
Q 1363 391 1709 391 
Q 2188 391 2477 730 
Q 2766 1069 2766 1631 
L 2766 1759 
L 2194 1759 
z
M 3341 1997 
L 3341 0 
L 2766 0 
L 2766 531 
Q 2569 213 2275 61 
Q 1981 -91 1556 -91 
Q 1019 -91 701 211 
Q 384 513 384 1019 
Q 384 1609 779 1909 
Q 1175 2209 1959 2209 
L 2766 2209 
L 2766 2266 
Q 2766 2663 2505 2880 
Q 2244 3097 1772 3097 
Q 1472 3097 1187 3025 
Q 903 2953 641 2809 
L 641 3341 
Q 956 3463 1253 3523 
Q 1550 3584 1831 3584 
Q 2591 3584 2966 3190 
Q 3341 2797 3341 1997 
z
" transform="scale(0.015625)"/>
       <path id="DejaVuSans-6c" d="M 603 4863 
L 1178 4863 
L 1178 0 
L 603 0 
L 603 4863 
z
" transform="scale(0.015625)"/>
       <path id="DejaVuSans-7a" d="M 353 3500 
L 3084 3500 
L 3084 2975 
L 922 459 
L 3084 459 
L 3084 0 
L 275 0 
L 275 525 
L 2438 3041 
L 353 3041 
L 353 3500 
z
" transform="scale(0.015625)"/>
       <path id="DejaVuSans-64" d="M 2906 2969 
L 2906 4863 
L 3481 4863 
L 3481 0 
L 2906 0 
L 2906 525 
Q 2725 213 2448 61 
Q 2172 -91 1784 -91 
Q 1150 -91 751 415 
Q 353 922 353 1747 
Q 353 2572 751 3078 
Q 1150 3584 1784 3584 
Q 2172 3584 2448 3432 
Q 2725 3281 2906 2969 
z
M 947 1747 
Q 947 1113 1208 752 
Q 1469 391 1925 391 
Q 2381 391 2643 752 
Q 2906 1113 2906 1747 
Q 2906 2381 2643 2742 
Q 2381 3103 1925 3103 
Q 1469 3103 1208 2742 
Q 947 2381 947 1747 
z
" transform="scale(0.015625)"/>
       <path id="DejaVuSans-49" d="M 628 4666 
L 1259 4666 
L 1259 0 
L 628 0 
L 628 4666 
z
" transform="scale(0.015625)"/>
       <path id="DejaVuSans-73" d="M 2834 3397 
L 2834 2853 
Q 2591 2978 2328 3040 
Q 2066 3103 1784 3103 
Q 1356 3103 1142 2972 
Q 928 2841 928 2578 
Q 928 2378 1081 2264 
Q 1234 2150 1697 2047 
L 1894 2003 
Q 2506 1872 2764 1633 
Q 3022 1394 3022 966 
Q 3022 478 2636 193 
Q 2250 -91 1575 -91 
Q 1294 -91 989 -36 
Q 684 19 347 128 
L 347 722 
Q 666 556 975 473 
Q 1284 391 1588 391 
Q 1994 391 2212 530 
Q 2431 669 2431 922 
Q 2431 1156 2273 1281 
Q 2116 1406 1581 1522 
L 1381 1569 
Q 847 1681 609 1914 
Q 372 2147 372 2553 
Q 372 3047 722 3315 
Q 1072 3584 1716 3584 
Q 2034 3584 2315 3537 
Q 2597 3491 2834 3397 
z
" transform="scale(0.015625)"/>
       <path id="DejaVuSans-79" d="M 2059 -325 
Q 1816 -950 1584 -1140 
Q 1353 -1331 966 -1331 
L 506 -1331 
L 506 -850 
L 844 -850 
Q 1081 -850 1212 -737 
Q 1344 -625 1503 -206 
L 1606 56 
L 191 3500 
L 800 3500 
L 1894 763 
L 2988 3500 
L 3597 3500 
L 2059 -325 
z
" transform="scale(0.015625)"/>
      </defs>
      <use xlink:href="#DejaVuSans-4e"/>
      <use xlink:href="#DejaVuSans-6f" transform="translate(74.804688 0)"/>
      <use xlink:href="#DejaVuSans-72" transform="translate(135.986328 0)"/>
      <use xlink:href="#DejaVuSans-6d" transform="translate(175.349609 0)"/>
      <use xlink:href="#DejaVuSans-61" transform="translate(272.761719 0)"/>
      <use xlink:href="#DejaVuSans-6c" transform="translate(334.041016 0)"/>
      <use xlink:href="#DejaVuSans-69" transform="translate(361.824219 0)"/>
      <use xlink:href="#DejaVuSans-7a" transform="translate(389.607422 0)"/>
      <use xlink:href="#DejaVuSans-65" transform="translate(442.097656 0)"/>
      <use xlink:href="#DejaVuSans-64" transform="translate(503.621094 0)"/>
      <use xlink:href="#DejaVuSans-20" transform="translate(567.097656 0)"/>
      <use xlink:href="#DejaVuSans-49" transform="translate(598.884766 0)"/>
      <use xlink:href="#DejaVuSans-6e" transform="translate(628.376953 0)"/>
      <use xlink:href="#DejaVuSans-74" transform="translate(691.755859 0)"/>
      <use xlink:href="#DejaVuSans-65" transform="translate(730.964844 0)"/>
      <use xlink:href="#DejaVuSans-6e" transform="translate(792.488281 0)"/>
      <use xlink:href="#DejaVuSans-73" transform="translate(855.867188 0)"/>
      <use xlink:href="#DejaVuSans-69" transform="translate(907.966797 0)"/>
      <use xlink:href="#DejaVuSans-74" transform="translate(935.75 0)"/>
      <use xlink:href="#DejaVuSans-79" transform="translate(974.958984 0)"/>
     </g>
    </g>
   </g>
   <g id="line2d_13">
    <path d="M 84.332727 510.987273 
L 89.222574 510.90619 
L 100.224729 510.334758 
L 111.226884 510.37531 
L 121.006578 510.450588 
L 147.900735 510.318643 
L 154.013043 510.3302 
L 163.792736 510.138199 
L 165.015198 509.792963 
L 166.23766 509.151036 
L 168.682583 507.610554 
L 169.905045 507.271057 
L 171.127506 507.396619 
L 172.349968 507.864592 
L 174.794891 509.008883 
L 176.017353 509.43024 
L 178.462277 509.917424 
L 183.352123 510.442486 
L 184.574585 510.468422 
L 185.797047 510.344898 
L 188.24197 509.731829 
L 190.686893 509.207559 
L 191.909355 509.144091 
L 194.354278 509.32711 
L 198.021663 509.651603 
L 201.689048 509.631832 
L 206.578895 509.285172 
L 210.24628 508.866826 
L 211.468742 508.893569 
L 213.913665 509.26488 
L 216.358589 509.583082 
L 217.58105 509.531957 
L 221.248435 509.071926 
L 222.470897 509.170606 
L 224.91582 509.589338 
L 226.138282 509.505972 
L 227.360744 508.848851 
L 228.583205 507.485617 
L 231.028129 504.066581 
L 232.25059 503.239884 
L 233.473052 503.420979 
L 234.695514 504.385014 
L 237.140437 506.926578 
L 238.362899 507.881287 
L 239.58536 508.509959 
L 240.807822 508.878061 
L 243.252745 509.194171 
L 248.142592 509.385983 
L 254.254901 509.379955 
L 273.814287 508.946423 
L 278.704134 508.813285 
L 286.038904 508.693451 
L 292.151213 508.250607 
L 297.041059 508.404386 
L 298.263521 508.289875 
L 300.708444 507.629047 
L 301.930906 507.282002 
L 303.153368 507.128265 
L 304.375829 507.21327 
L 309.265676 508.217907 
L 311.710599 508.38777 
L 314.155523 508.31381 
L 315.377985 508.098988 
L 319.04537 506.9616 
L 320.267831 506.872244 
L 321.490293 507.031683 
L 325.157678 507.945737 
L 327.602601 508.230912 
L 332.492448 508.327132 
L 336.159833 508.460372 
L 341.04968 508.946642 
L 342.272141 508.765338 
L 345.939526 507.555528 
L 347.161988 507.580217 
L 352.051835 508.690177 
L 353.274297 508.566402 
L 354.496758 507.970855 
L 355.71922 506.461732 
L 356.941682 503.319817 
L 358.164143 497.661179 
L 359.386605 488.718998 
L 360.609067 476.198799 
L 361.831528 460.537709 
L 365.498913 408.887053 
L 366.721375 395.926963 
L 367.943837 387.295615 
L 369.166298 383.434561 
L 370.38876 384.179262 
L 371.611222 388.897701 
L 372.833683 396.673908 
L 374.056145 406.48918 
L 378.945992 449.033401 
L 380.168453 457.762091 
L 381.390915 465.270156 
L 382.613377 471.567383 
L 383.835839 476.689956 
L 385.0583 480.650982 
L 386.280762 483.525048 
L 387.503224 485.578514 
L 393.615532 493.730072 
L 394.837994 495.040983 
L 396.060455 496.090545 
L 397.282917 496.911641 
L 399.72784 498.07995 
L 400.950302 498.500275 
L 402.172764 498.797206 
L 403.395225 498.828687 
L 404.617687 498.102522 
L 405.840149 495.368064 
L 407.06261 488.413411 
L 408.285072 474.836901 
L 409.507534 454.133878 
L 410.729995 429.842629 
L 411.952457 409.161162 
L 413.174919 398.789965 
L 414.39738 399.102799 
L 415.619842 401.400429 
L 416.842304 393.253867 
L 418.064766 370.289282 
L 419.287227 342.486385 
L 420.509689 326.565455 
L 421.732151 332.549777 
L 422.954612 358.011267 
L 425.399536 425.669223 
L 426.621997 451.241244 
L 427.844459 468.126933 
L 429.066921 478.10046 
L 430.289382 483.720102 
L 431.511844 487.05163 
L 432.734306 489.319768 
L 433.956767 491.086064 
L 435.179229 492.552884 
L 436.401691 493.775571 
L 437.624152 494.745094 
L 438.846614 495.421447 
L 440.069076 495.797004 
L 443.736461 496.264979 
L 447.403846 497.232575 
L 449.848769 497.322475 
L 452.293693 497.498038 
L 458.406001 498.551182 
L 460.850924 498.70902 
L 462.073386 498.539273 
L 463.295848 497.668647 
L 464.518309 495.478484 
L 465.740771 491.877149 
L 466.963233 487.634032 
L 468.185694 483.852769 
L 469.408156 481.328283 
L 470.630618 480.435007 
L 471.853079 481.190972 
L 473.075541 483.224663 
L 475.520464 488.469782 
L 476.742926 490.573045 
L 477.965388 492.025264 
L 479.187849 492.858966 
L 480.410311 493.17793 
L 481.632773 493.087053 
L 482.855234 492.682021 
L 484.077696 492.046044 
L 485.300158 491.2169 
L 486.52262 490.144666 
L 487.745081 488.663834 
L 488.967543 486.464714 
L 490.190005 482.997513 
L 491.412466 477.154667 
L 492.634928 466.854272 
L 493.85739 449.634985 
L 496.302313 398.943747 
L 497.524775 379.479593 
L 498.747236 374.426486 
L 499.969698 384.843039 
L 501.19216 405.514499 
L 502.414621 429.006759 
L 503.637083 449.631728 
L 504.859545 464.977741 
L 506.082006 475.266922 
L 507.304468 481.909531 
L 508.52693 486.351742 
L 509.749391 489.579365 
L 510.971853 492.106007 
L 512.194315 494.142975 
L 513.416776 495.762591 
L 514.639238 497.000456 
L 515.8617 497.902905 
L 517.084161 498.53349 
L 518.306623 498.954101 
L 519.529085 499.206365 
L 521.974008 499.318571 
L 525.641393 499.290561 
L 526.863855 499.367184 
L 528.086317 499.308797 
L 529.308778 498.79424 
L 530.53124 497.574825 
L 532.976163 494.16187 
L 534.198625 493.234794 
L 535.421087 493.340969 
L 536.643548 494.344572 
L 540.310933 498.748171 
L 541.533395 499.752927 
L 542.755857 500.445107 
L 543.978318 500.901656 
L 546.423242 501.384879 
L 548.868165 501.4747 
L 550.090627 501.27562 
L 551.313088 500.806991 
L 554.980474 498.780289 
L 556.202935 498.700919 
L 557.425397 499.059686 
L 559.87032 500.169623 
L 561.092782 500.455404 
L 562.315244 500.459497 
L 564.760167 500.157995 
L 565.982629 500.192962 
L 567.20509 500.435281 
L 568.427552 500.800262 
L 569.650014 501.048043 
L 570.872475 500.573424 
L 572.094937 498.418034 
L 573.317399 494.167814 
L 574.53986 488.977974 
L 575.762322 485.034326 
L 576.984784 483.814335 
L 578.207245 485.202955 
L 580.652169 490.68223 
L 581.87463 492.120194 
L 583.097092 492.057367 
L 584.319554 491.28055 
L 585.542015 490.923719 
L 586.764477 491.592396 
L 587.986939 493.11512 
L 589.209401 494.910249 
L 590.431862 496.449468 
L 591.654324 497.490485 
L 592.876786 498.071921 
L 600.211556 499.872364 
L 601.434017 500.038656 
L 603.878941 500.068806 
L 606.323864 500.020379 
L 608.768787 500.248446 
L 613.658634 501.051738 
L 616.103557 501.085805 
L 618.548481 500.986734 
L 619.770942 500.839351 
L 620.993404 500.549153 
L 622.215866 500.08543 
L 624.660789 498.912354 
L 625.883251 498.481036 
L 628.328174 498.058388 
L 631.995559 497.666595 
L 638.107868 497.6581 
L 641.775253 498.572793 
L 644.220176 498.841353 
L 646.665099 498.881716 
L 647.887561 498.601691 
L 649.110023 498.014164 
L 651.554946 496.55249 
L 652.777408 496.173552 
L 653.999869 496.180743 
L 655.222331 496.505252 
L 658.889716 498.035073 
L 660.112178 498.301751 
L 663.779563 498.628486 
L 671.114333 500.013789 
L 676.00418 500.299328 
L 680.894026 500.857946 
L 685.783873 501.098295 
L 690.67372 501.134635 
L 693.118643 500.833665 
L 694.341105 500.513795 
L 698.00849 499.029205 
L 699.230952 498.828502 
L 700.453413 498.951363 
L 704.120798 500.016632 
L 705.34326 500.194975 
L 707.788183 500.215047 
L 710.233107 499.868342 
L 712.67803 499.34128 
L 713.900492 499.259978 
L 715.122953 499.375825 
L 718.790338 500.066309 
L 720.0128 500.115999 
L 722.457723 499.850021 
L 724.902647 499.525518 
L 726.125109 499.520143 
L 728.570032 499.835288 
L 731.014955 500.217301 
L 732.237417 500.24763 
L 733.459879 500.109735 
L 735.904802 499.620307 
L 737.127264 499.528568 
L 738.349725 499.625171 
L 743.239572 500.447359 
L 757.909112 500.983263 
L 760.354036 500.864685 
L 761.576497 500.666671 
L 764.021421 499.955337 
L 765.243882 499.598142 
L 766.466344 499.404155 
L 767.688806 499.422494 
L 772.578652 500.128184 
L 775.023576 500.092062 
L 779.913422 499.697822 
L 789.693116 499.718082 
L 792.138039 499.578222 
L 795.805424 499.208403 
L 798.250348 499.187752 
L 803.140194 499.341568 
L 805.585118 499.186464 
L 810.474964 498.514988 
L 812.919888 498.537972 
L 816.587273 498.803755 
L 816.587273 498.803755 
" clip-path="url(#pcb4e68000e)" style="fill: none; stroke: #0000ff; stroke-width: 1.5; stroke-linecap: square"/>
   </g>
   <g id="line2d_14">
    <path d="M 89.615718 234.258621 
L 91.964311 234.062573 
L 93.982351 233.929939 
L 93.982351 234.003353 
L 101.044512 234.234239 
L 107.4507 234.144384 
L 107.788588 234.046987 
L 108.124765 234.094328 
L 112.848357 234.009909 
L 113.520467 234.106398 
L 117.566815 234.123538 
L 141.160325 234.183877 
L 143.857076 234.146715 
L 145.881717 234.134476 
L 155.328167 234.077973 
L 155.328167 234.043688 
L 155.663122 234.030974 
L 164.083927 234.163144 
L 168.437357 233.963024 
L 168.765222 233.818012 
L 170.083769 233.612487 
L 173.027945 233.575062 
L 173.684163 233.240176 
L 175.980679 233.220662 
L 177.617067 233.39541 
L 177.944197 233.697744 
L 178.275973 233.721482 
L 181.226262 233.428589 
L 186.141536 233.3362 
L 195.338116 233.129247 
L 198.617247 233.31464 
L 206.822165 233.470635 
L 206.822165 233.790507 
L 207.477404 233.829521 
L 222.258678 233.886659 
L 229.822048 233.549947 
L 233.443713 233.522227 
L 235.41481 233.653019 
L 235.743408 233.812164 
L 238.377079 233.628094 
L 239.365073 233.721486 
L 244.96248 233.697223 
L 248.256037 233.927386 
L 269.049376 233.879449 
L 272.018736 233.707891 
L 276.314955 233.815448 
L 277.64157 233.890174 
L 282.27959 233.871317 
L 282.948766 233.961195 
L 285.269487 233.907555 
L 285.600285 234.018332 
L 295.565548 233.965873 
L 295.902214 233.890753 
L 296.899009 233.951982 
L 298.899935 233.947691 
L 299.2322 233.825452 
L 299.56422 233.875802 
L 301.227013 233.834892 
L 302.55754 233.963759 
L 306.894345 234.021981 
L 307.560831 234.081012 
L 318.246858 234.093318 
L 318.913344 233.990727 
L 322.246997 233.952495 
L 322.580729 233.842187 
L 324.926633 233.928942 
L 324.926633 233.973271 
L 326.261805 234.122746 
L 334.951552 234.091036 
L 338.965872 234.094398 
L 339.971224 233.948584 
L 340.975843 233.999887 
L 343.661102 234.005416 
L 345.329029 233.885768 
L 347.334355 233.924156 
L 349.677325 233.770731 
L 353.697268 233.935742 
L 363.375742 234.000476 
L 363.375742 233.918492 
L 366.986405 233.506474 
L 367.313535 233.44997 
L 371.904124 233.266818 
L 373.218025 233.168552 
L 376.818175 233.069196 
L 378.460186 233.234872 
L 380.100974 233.60963 
L 386.667304 233.591284 
L 390.295571 233.705227 
L 390.953744 233.799993 
L 392.274003 233.64762 
L 395.91107 233.660678 
L 402.888393 234.029493 
L 403.885677 234.025113 
L 405.21596 233.927515 
L 409.221722 233.921041 
L 410.565697 233.728132 
L 411.232427 233.851294 
L 411.897446 233.797622 
L 412.904266 233.890792 
L 416.544757 233.897174 
L 417.204886 233.715868 
L 417.204886 233.790237 
L 417.876262 233.146319 
L 418.207305 230.437855 
L 418.537858 229.524271 
L 418.537858 226.592957 
L 418.869145 225.64338 
L 418.869145 220.454601 
L 419.201655 221.599715 
L 419.201655 217.106543 
L 419.53392 212.436644 
L 419.864474 211.659999 
L 419.864474 207.568079 
L 420.193805 208.511359 
L 420.193805 205.846966 
L 420.522158 204.706867 
L 420.850511 197.922005 
L 421.178375 197.123431 
L 421.505751 197.74482 
L 421.505751 196.12916 
L 421.833126 195.474438 
L 422.160257 201.962672 
L 422.160257 204.847782 
L 422.492766 204.009168 
L 422.492766 204.614729 
L 422.819897 203.443729 
L 423.147028 202.969528 
L 423.474403 193.661082 
L 423.801534 192.901733 
L 423.801534 200.871046 
L 424.128909 201.979899 
L 424.128909 199.747214 
L 424.456284 208.240625 
L 424.456284 206.745465 
L 424.783659 206.064699 
L 424.783659 207.909327 
L 424.783659 204.69455 
L 425.111279 214.598204 
L 425.111279 204.462284 
L 425.43841 194.914855 
L 425.76603 191.904225 
L 425.76603 193.78968 
L 426.097072 183.558385 
L 426.754023 205.181822 
L 426.754023 197.206352 
L 426.754023 204.576144 
L 427.082132 204.870537 
L 427.082132 205.968606 
L 427.415619 205.385634 
L 427.415619 206.044615 
L 427.743973 205.534767 
L 427.743973 205.287416 
L 428.072326 196.768181 
L 428.072326 204.156251 
L 428.400924 206.428163 
L 428.400924 199.0663 
L 428.729277 210.583237 
L 429.058119 213.301632 
L 429.058119 206.003024 
L 429.058119 210.640307 
L 429.388428 210.09018 
L 429.388428 208.502111 
L 429.717026 207.112231 
L 429.717026 206.194383 
L 430.046601 206.298909 
L 430.046601 208.930419 
L 430.046601 206.150552 
L 430.375688 214.74324 
L 430.375688 208.060977 
L 430.704775 205.537906 
L 430.704775 206.318802 
L 431.034595 196.942878 
L 431.36466 196.231718 
L 431.694724 198.443146 
L 431.694724 200.147674 
L 432.025278 202.751421 
L 432.025278 204.876763 
L 432.36121 213.608691 
L 432.36121 205.397705 
L 432.691031 212.190012 
L 432.691031 203.520326 
L 433.02134 204.268795 
L 433.352138 204.131884 
L 433.352138 206.074366 
L 433.352138 203.695321 
L 433.683669 212.258787 
L 433.683669 211.238544 
L 433.683669 209.109806 
L 434.014712 215.783519 
L 434.014712 212.800846 
L 434.345755 205.072174 
L 434.677286 204.376479 
L 435.035712 199.492708 
L 435.367977 199.029566 
L 435.367977 197.478812 
L 435.699998 199.058521 
L 436.031774 201.550785 
L 436.364039 200.675344 
L 436.364039 198.83069 
L 436.696548 198.966836 
L 437.029303 205.602591 
L 437.029303 205.553635 
L 437.029303 211.438297 
L 437.367435 207.182204 
L 437.700923 207.207892 
L 438.033433 207.488523 
L 438.033433 207.282493 
L 438.700163 212.001478 
L 439.032917 211.697562 
L 439.032917 212.503771 
L 439.364449 213.14534 
L 439.364449 215.03544 
L 439.695736 212.546711 
L 440.02849 213.064181 
L 440.02849 212.133817 
L 440.360266 210.712907 
L 440.360266 211.918753 
L 440.693265 218.3448 
L 440.693265 214.046264 
L 441.026752 216.389697 
L 441.358773 217.734436 
L 441.358773 217.290928 
L 441.691282 217.440159 
L 441.691282 216.532958 
L 442.024281 221.02427 
L 442.024281 217.284462 
L 442.36437 222.018503 
L 442.36437 217.901642 
L 442.696146 218.558248 
L 443.029633 218.538143 
L 443.029633 218.625468 
L 443.362632 214.983671 
L 443.362632 218.465645 
L 443.700276 222.418539 
L 443.700276 219.286305 
L 443.700276 221.96507 
L 444.033274 226.254838 
L 444.033274 223.991767 
L 444.36554 220.411415 
L 444.698783 219.123138 
L 445.031781 216.810497 
L 445.364291 212.909617 
L 445.697534 212.033204 
L 446.029554 215.791182 
L 446.029554 219.592623 
L 446.361819 223.822311 
L 446.69604 220.214054 
L 447.027817 220.084984 
L 447.364972 220.753741 
L 447.364972 218.069343 
L 447.696748 221.469981 
L 447.696748 222.823782 
L 448.029257 224.477854 
L 448.029257 224.272043 
L 448.361767 227.013462 
L 448.361767 224.886584 
L 448.361767 226.744876 
L 448.694765 228.393605 
L 448.694765 226.097761 
L 449.02703 228.327531 
L 449.02703 226.002799 
L 449.359296 225.44033 
L 449.692539 225.923091 
L 449.692539 223.482013 
L 450.02407 223.217516 
L 450.356091 220.977962 
L 450.356091 223.254397 
L 450.6886 223.211422 
L 451.021843 226.895124 
L 451.354353 225.770983 
L 451.691019 224.221319 
L 451.691019 225.992349 
L 452.02304 223.783942 
L 452.02304 225.135467 
L 452.361417 224.988866 
L 452.694171 224.442926 
L 453.025703 225.438428 
L 453.025703 225.930287 
L 453.357234 224.853003 
L 453.689255 224.88568 
L 453.689255 226.529849 
L 454.021275 223.702873 
L 454.355252 223.389654 
L 454.688006 225.071076 
L 454.688006 224.73353 
L 455.021249 223.33891 
L 455.353759 226.246345 
L 455.353759 226.041809 
L 455.687246 224.200294 
L 456.021956 225.030042 
L 456.021956 226.927107 
L 456.354466 224.630814 
L 456.686731 227.291304 
L 456.686731 228.24549 
L 457.018751 226.769074 
L 457.357129 226.659399 
L 457.690372 225.130301 
L 458.022148 225.37956 
L 458.686434 227.227975 
L 459.019921 228.826928 
L 459.351942 227.486166 
L 459.684696 228.782325 
L 459.684696 228.476827 
L 460.016472 226.187481 
L 460.016472 227.578016 
L 460.681247 225.02687 
L 461.014001 226.801209 
L 461.014001 227.85065 
L 461.350422 228.165351 
L 461.350422 229.065416 
L 462.01373 228.043797 
L 462.01373 228.394308 
L 462.35333 226.494337 
L 462.686817 226.46806 
L 463.352814 227.658509 
L 463.352814 227.170895 
L 463.685079 229.019716 
L 463.685079 229.75264 
L 464.017833 230.101637 
L 464.352055 228.870248 
L 465.018296 228.812405 
L 465.018296 228.356252 
L 465.350561 228.040023 
L 465.684293 228.003177 
L 466.016314 227.77506 
L 466.348823 227.041542 
L 466.681822 227.437643 
L 466.681822 228.672328 
L 467.013843 229.276288 
L 467.350998 230.885871 
L 467.350998 230.772376 
L 467.350998 231.857917 
L 467.683996 231.683521 
L 467.683996 232.428888 
L 468.016506 231.701312 
L 468.348037 232.159826 
L 468.348037 231.383541 
L 468.348037 231.706646 
L 468.680302 231.166844 
L 469.345566 232.386054 
L 469.676609 232.340255 
L 469.676609 232.826814 
L 470.339183 232.888721 
L 470.671203 233.389471 
L 471.001757 233.21137 
L 471.668732 233.204359 
L 472.000264 233.001504 
L 472.336685 232.467259 
L 472.667728 232.651475 
L 472.667728 232.870179 
L 473.330791 232.49474 
L 474.327342 232.942362 
L 474.659851 232.750205 
L 474.99285 232.336566 
L 475.324382 232.325498 
L 475.989401 231.383927 
L 476.321177 231.800085 
L 476.321177 232.07256 
L 477.321395 233.11418 
L 477.321395 232.545588 
L 477.652682 232.397803 
L 477.652682 232.458912 
L 477.984947 232.52907 
L 477.984947 232.012001 
L 478.316723 232.591858 
L 478.316723 233.175965 
L 478.648988 233.362602 
L 478.648988 232.636769 
L 478.982231 232.410003 
L 479.313763 231.913961 
L 479.313763 231.961168 
L 479.647251 232.012564 
L 479.647251 232.383233 
L 479.978782 232.157681 
L 479.978782 232.484784 
L 480.311292 232.293802 
L 480.311292 231.594177 
L 480.644535 231.355318 
L 480.98169 231.939512 
L 481.314199 232.113041 
L 481.314199 232.032144 
L 481.645731 231.648213 
L 481.979218 232.15831 
L 481.979218 231.559917 
L 482.316862 230.472477 
L 482.648883 229.792162 
L 482.980659 229.65028 
L 483.312435 228.458369 
L 483.312435 229.019698 
L 483.644211 229.31684 
L 484.308741 230.612615 
L 484.641984 231.874289 
L 484.641984 231.445004 
L 484.975228 232.246714 
L 484.975228 231.816659 
L 485.308226 231.511546 
L 485.641469 230.590093 
L 485.974712 230.586305 
L 485.974712 230.270513 
L 486.305755 230.191309 
L 486.639487 230.792301 
L 486.639487 230.556128 
L 486.639487 231.433637 
L 486.972974 231.113669 
L 487.310618 231.986665 
L 487.310618 230.832822 
L 487.64215 230.857858 
L 487.974415 229.51846 
L 488.640168 229.366455 
L 488.640168 229.85879 
L 489.303475 230.584611 
L 489.641853 230.653042 
L 489.641853 230.5878 
L 489.974118 231.379081 
L 489.974118 232.212888 
L 490.306138 231.19929 
L 490.638403 231.116903 
L 490.973358 230.360961 
L 490.973358 229.674587 
L 490.973358 231.06741 
L 491.305868 231.161859 
L 491.305868 231.870552 
L 491.63691 231.157639 
L 491.970153 230.948379 
L 491.970153 230.587562 
L 492.306575 231.002395 
L 492.640062 230.566607 
L 492.971838 230.821726 
L 493.304348 231.245595 
L 493.304348 231.922285 
L 493.637102 230.674112 
L 493.969856 231.282667 
L 493.969856 230.300876 
L 493.969856 230.718769 
L 494.302121 229.706495 
L 494.633653 229.812051 
L 494.966896 228.925091 
L 494.966896 229.832807 
L 495.298183 230.017816 
L 495.298183 229.963684 
L 495.298183 230.805424 
L 495.631426 231.759544 
L 495.631426 230.793823 
L 495.962469 230.940662 
L 495.962469 231.978021 
L 496.295712 231.464254 
L 496.626999 230.15235 
L 496.959997 230.524703 
L 496.959997 230.365847 
L 497.297397 229.115199 
L 497.63064 228.69777 
L 497.63064 230.22769 
L 497.969995 229.775224 
L 497.969995 229.80556 
L 498.301527 230.996401 
L 498.633303 231.597846 
L 498.965323 230.956352 
L 498.965323 232.11559 
L 499.627164 231.006147 
L 499.627164 231.366678 
L 499.958451 231.187455 
L 500.289005 229.807491 
L 500.619803 229.426869 
L 500.950357 230.02235 
L 500.950357 229.300887 
L 501.280421 230.086773 
L 501.280421 231.746691 
L 501.61122 231.855102 
L 501.61122 232.697515 
L 501.94104 231.569775 
L 502.278928 232.235159 
L 502.278928 231.77733 
L 502.278928 232.027858 
L 502.608993 231.170257 
L 502.939546 231.327981 
L 503.269611 231.16384 
L 503.269611 230.277046 
L 503.269611 230.315269 
L 503.600165 230.826685 
L 503.600165 231.236555 
L 503.931696 230.256309 
L 504.262005 231.480163 
L 504.262005 230.238533 
L 504.592315 230.03376 
L 504.922624 230.452591 
L 504.922624 230.746093 
L 505.252933 230.266153 
L 505.583487 230.854782 
L 505.914529 229.966141 
L 506.245816 229.972862 
L 506.245816 230.727613 
L 506.577348 230.992073 
L 506.90839 231.696286 
L 506.90839 232.304303 
L 506.90839 232.187703 
L 507.247746 232.243464 
L 507.247746 231.910904 
L 507.579277 231.556833 
L 507.910076 232.131671 
L 508.903692 229.214995 
L 509.235224 229.458379 
L 509.235224 228.897089 
L 509.566022 229.664623 
L 509.897798 229.973483 
L 510.22933 231.205776 
L 510.22933 230.292151 
L 510.561595 230.847348 
L 510.893371 231.162079 
L 510.893371 231.439934 
L 511.225636 231.251252 
L 511.225636 231.473985 
L 511.558146 231.038254 
L 511.891144 231.131592 
L 511.891144 230.918408 
L 512.229522 230.234167 
L 512.561542 230.322979 
L 512.894541 230.041747 
L 513.226561 230.876714 
L 513.226561 231.775766 
L 513.558826 232.602042 
L 513.558826 232.071801 
L 513.890358 231.68337 
L 513.890358 232.079353 
L 514.55391 230.70022 
L 514.886909 231.427399 
L 515.218685 231.854816 
L 515.218685 231.13964 
L 515.218685 231.843413 
L 515.555351 232.187887 
L 516.218414 231.092914 
L 516.55019 231.852796 
L 516.55019 231.489267 
L 516.881477 232.039396 
L 516.881477 232.460661 
L 517.218388 231.348272 
L 517.550653 231.428573 
L 517.882673 230.431205 
L 518.216161 230.061686 
L 518.547693 228.956984 
L 518.547693 230.145086 
L 518.87898 229.983443 
L 519.544732 230.2922 
L 519.877731 231.416307 
L 519.877731 230.683217 
L 520.209507 230.560486 
L 520.542506 230.289298 
L 520.873793 230.43819 
L 521.206058 230.294355 
L 521.206058 230.655852 
L 521.538078 231.117945 
L 521.870099 231.013246 
L 522.207743 230.093295 
L 522.540008 230.070094 
L 522.872029 229.4793 
L 523.204049 230.263083 
L 523.53607 230.620508 
L 523.867601 230.682719 
L 523.867601 231.592209 
L 524.199622 231.083354 
L 524.531643 231.301162 
L 524.870998 231.155458 
L 525.203752 231.819062 
L 525.203752 231.478186 
L 525.535284 231.038545 
L 525.867304 230.394537 
L 526.200792 231.392942 
L 526.200792 231.098644 
L 526.532323 230.794679 
L 526.866055 231.396215 
L 526.866055 232.436497 
L 527.202721 231.745543 
L 527.534986 232.08565 
L 528.20514 231.041427 
L 528.536916 231.036893 
L 528.536916 231.227765 
L 528.868937 231.134816 
L 528.868937 231.279292 
L 529.201935 231.487198 
L 529.867688 230.367483 
L 530.200197 230.930747 
L 530.53344 230.621023 
L 531.199193 232.154295 
L 531.199193 232.344794 
L 531.531947 232.278024 
L 531.531947 232.074752 
L 531.864212 231.860018 
L 531.864212 231.149024 
L 532.201856 230.699742 
L 532.201856 231.058616 
L 532.535099 230.141478 
L 533.199385 230.752765 
L 533.531161 230.691954 
L 533.531161 230.795823 
L 533.867093 231.532741 
L 534.19838 231.706091 
L 534.529668 231.505581 
L 534.529668 231.980557 
L 534.861688 231.494341 
L 535.19322 231.944272 
L 535.19322 231.807499 
L 535.524262 231.790662 
L 535.855061 231.591 
L 536.186348 231.699045 
L 536.517146 231.149965 
L 536.517146 231.218084 
L 536.848433 231.824677 
L 537.517853 232.33293 
L 537.849385 232.862485 
L 537.849385 232.474294 
L 538.181894 232.110205 
L 538.514404 231.248027 
L 538.847158 231.02946 
L 538.847158 230.770951 
L 539.178934 231.19736 
L 539.509732 231.007131 
L 539.509732 232.079023 
L 539.842975 232.090826 
L 540.174507 231.763202 
L 540.174507 231.773809 
L 540.506527 231.960971 
L 540.838792 230.881246 
L 541.171057 230.59117 
L 541.836077 231.566335 
L 541.836077 231.870094 
L 542.179344 232.410575 
L 542.179344 231.516579 
L 542.510631 231.83276 
L 542.510631 231.187412 
L 542.842163 231.596784 
L 543.173939 231.567013 
L 543.173939 232.268849 
L 543.505226 231.877635 
L 543.505226 232.424079 
L 543.837002 232.35766 
L 543.837002 232.658342 
L 544.169022 232.156987 
L 544.501777 231.297888 
L 544.834042 231.660464 
L 544.834042 230.944356 
L 545.166307 230.849764 
L 545.497838 232.063667 
L 545.497838 231.719745 
L 545.830348 230.75403 
L 545.830348 231.223441 
L 546.162857 231.951782 
L 546.162857 231.35618 
L 546.495367 231.073399 
L 546.82641 231.892864 
L 546.82641 231.117394 
L 547.163076 230.256024 
L 547.505365 230.018659 
L 547.505365 230.491293 
L 547.838119 229.890629 
L 548.169895 229.768874 
L 548.169895 230.415841 
L 548.502894 230.590416 
L 548.502894 230.589342 
L 548.83467 230.579948 
L 549.167913 231.239233 
L 549.499933 231.49515 
L 549.499933 231.957708 
L 549.832932 232.189081 
L 549.832932 232.354227 
L 550.166175 231.759125 
L 550.49844 231.6752 
L 550.829972 230.837839 
L 551.161748 230.804933 
L 551.499636 231.328551 
L 551.832635 231.030247 
L 552.171012 231.347643 
L 552.171012 231.817054 
L 552.835787 231.477192 
L 553.167563 231.790956 
L 553.167563 231.222447 
L 553.49885 230.907391 
L 553.49885 231.360808 
L 553.830871 231.381867 
L 554.164847 231.524609 
L 554.164847 232.020723 
L 554.497357 231.868761 
L 554.829133 231.128815 
L 555.162865 231.522046 
L 555.495863 230.996482 
L 555.826906 230.825201 
L 555.826906 231.775488 
L 556.159905 231.179395 
L 556.49217 231.013944 
L 556.49217 231.187306 
L 556.825168 231.995623 
L 556.825168 231.668593 
L 556.825168 232.584138 
L 557.164279 232.382613 
L 557.495566 231.589959 
L 557.827831 231.788193 
L 557.827831 231.202784 
L 558.159607 230.564757 
L 558.159607 231.22479 
L 558.491383 231.92663 
L 558.491383 230.725809 
L 558.822915 231.082023 
L 559.155425 231.181219 
L 559.488668 230.54946 
L 559.821177 230.246165 
L 559.821177 231.350964 
L 560.153931 231.468977 
L 560.486196 232.022471 
L 560.818217 231.338964 
L 561.155372 231.447545 
L 561.155372 231.16916 
L 561.487637 231.188224 
L 561.487637 231.330666 
L 561.819902 231.913977 
L 562.157302 231.775259 
L 562.157302 232.134046 
L 562.489811 231.436918 
L 562.822076 231.456882 
L 563.155808 232.05764 
L 563.155808 231.501647 
L 563.486606 231.729239 
L 563.486606 232.087664 
L 564.153337 231.008689 
L 564.153337 231.532784 
L 564.485358 230.520457 
L 564.818601 230.77837 
L 565.151844 231.347799 
L 565.151844 230.88324 
L 565.151844 231.552538 
L 565.483375 231.880412 
L 565.483375 232.351366 
L 565.815396 231.623964 
L 566.147172 231.79391 
L 566.480415 231.404393 
L 566.813903 230.826058 
L 566.813903 231.178416 
L 567.151546 231.227857 
L 567.151546 231.452005 
L 567.485034 231.945561 
L 567.485034 232.294142 
L 567.81681 232.154103 
L 568.150053 232.000135 
L 568.482807 231.995694 
L 568.482807 232.099077 
L 568.815561 231.726423 
L 569.148071 231.892015 
L 569.480336 232.286262 
L 569.480336 231.93181 
L 569.812357 232.045518 
L 569.812357 231.55354 
L 570.150734 231.876767 
L 570.150734 231.357793 
L 570.48251 232.080332 
L 570.48251 231.114855 
L 570.48251 232.002179 
L 570.814775 232.139074 
L 570.814775 232.084979 
L 571.146796 231.694681 
L 571.146796 232.535674 
L 571.479061 232.409464 
L 571.479061 232.233689 
L 571.810837 231.903446 
L 572.147992 231.795252 
L 573.143809 229.976298 
L 573.47583 229.635032 
L 573.47583 229.83559 
L 573.811029 230.564703 
L 573.811029 229.460201 
L 574.142805 230.005686 
L 574.142805 226.937211 
L 574.474581 225.932851 
L 574.474581 220.14668 
L 574.805868 220.921378 
L 574.805868 209.661078 
L 575.138378 195.001992 
L 575.469176 194.002434 
L 575.469176 178.866461 
L 575.800707 152.25514 
L 576.133217 159.94125 
L 576.133217 141.283199 
L 576.464015 137.195601 
L 576.464015 120.968176 
L 576.795058 143.180988 
L 576.795058 108.905056 
L 576.795058 130.838259 
L 577.130746 131.687545 
L 577.130746 122.989614 
L 577.460566 119.709913 
L 577.460566 112.506013 
L 577.789897 72.053876 
L 578.118739 69.173544 
L 578.118739 62.023285 
L 578.449048 63.784371 
L 578.449048 55.344518 
L 578.77838 104.75038 
L 578.77838 64.143409 
L 579.107711 110.611515 
L 579.107711 71.568586 
L 579.442665 120.323427 
L 579.442665 84.586676 
L 579.442665 117.172827 
L 579.77273 79.752853 
L 580.102794 81.347598 
L 580.433837 49.932727 
L 580.76488 89.01296 
L 580.76488 77.186074 
L 581.426965 106.317169 
L 581.758497 137.918616 
L 581.758497 119.704354 
L 582.095407 149.679782 
L 582.427183 176.96241 
L 582.427183 159.042161 
L 582.760182 177.308076 
L 582.760182 161.886499 
L 583.092202 164.59876 
L 583.425445 164.815515 
L 583.425445 172.537379 
L 583.759177 173.704564 
L 583.759177 175.63682 
L 584.091442 179.760509 
L 584.424197 179.941188 
L 584.424197 182.318961 
L 584.756462 181.78661 
L 584.756462 185.367535 
L 585.088482 200.897852 
L 585.088482 190.115786 
L 585.420258 200.525531 
L 585.420258 189.794581 
L 585.752523 202.960185 
L 585.752523 191.943169 
L 585.752523 200.628555 
L 586.085522 189.81175 
L 586.085522 199.632579 
L 586.418765 199.83826 
L 586.418765 201.940796 
L 586.750052 204.89604 
L 586.750052 210.258948 
L 587.086963 212.802301 
L 587.086963 204.205789 
L 587.418494 205.041556 
L 587.418494 203.824471 
L 587.749537 209.90559 
L 587.749537 203.236491 
L 588.080335 204.529185 
L 588.415045 212.388024 
L 588.415045 207.399619 
L 588.746332 199.826828 
L 589.078108 208.126489 
L 589.410618 201.580544 
L 589.742394 210.379597 
L 589.742394 207.832795 
L 590.074903 206.994954 
L 590.407413 207.253239 
L 590.739434 206.850897 
L 590.739434 207.591183 
L 591.071699 210.245285 
L 591.071699 211.561041 
L 591.404208 217.949542 
L 591.404208 214.234695 
L 591.736718 214.578962 
L 592.074606 208.241324 
L 592.406138 214.748668 
L 592.406138 209.373499 
L 592.737669 214.789441 
L 593.069446 221.234076 
L 593.069446 216.536234 
L 593.401711 217.3783 
L 593.735198 213.460617 
L 593.735198 216.950265 
L 594.066974 216.464107 
L 594.066974 217.265334 
L 594.399728 222.162198 
L 594.399728 221.263385 
L 594.731015 218.594424 
L 595.064503 218.859928 
L 595.064503 218.777432 
L 595.396768 218.705866 
L 595.396768 221.002431 
L 595.729767 221.314985 
L 596.061298 217.00339 
L 596.393563 220.943139 
L 596.393563 218.310844 
L 596.726073 220.842659 
L 597.063961 225.289988 
L 597.063961 221.200556 
L 597.395982 224.281292 
L 597.395982 222.337771 
L 597.395982 224.847524 
L 597.72898 224.819144 
L 597.72898 225.766006 
L 598.067113 221.727644 
L 598.400112 223.787857 
L 598.400112 222.464195 
L 598.733844 222.452489 
L 598.733844 226.38783 
L 599.066109 226.41235 
L 599.066109 225.225883 
L 599.399108 224.392662 
L 599.73284 225.511285 
L 599.73284 222.863913 
L 600.065349 225.587606 
L 600.065349 224.591324 
L 600.397125 225.541789 
L 600.72939 225.056113 
L 600.72939 224.018901 
L 601.062389 225.937556 
L 601.062389 225.686176 
L 601.394899 223.272007 
L 601.726675 224.581034 
L 602.06383 223.054276 
L 602.395117 222.984765 
L 602.395117 223.99489 
L 602.727626 226.774058 
L 602.727626 226.521489 
L 603.061114 226.80449 
L 603.061114 226.447044 
L 603.394112 228.175729 
L 603.394112 225.911684 
L 603.394112 226.991587 
L 603.725644 228.666824 
L 603.725644 227.260207 
L 604.05962 224.883331 
L 604.39213 227.270873 
L 604.39213 225.880376 
L 604.723906 226.233601 
L 604.723906 226.412198 
L 605.056171 228.788111 
L 605.056171 226.80968 
L 605.388436 229.095064 
L 605.388436 227.574291 
L 605.72119 229.494174 
L 605.72119 228.80494 
L 606.059812 230.767234 
L 606.059812 230.107951 
L 606.392077 231.980717 
L 606.392077 230.188016 
L 606.724342 229.593341 
L 607.062231 229.629562 
L 607.062231 228.849216 
L 607.39474 228.812797 
L 607.39474 228.921738 
L 607.725783 229.907294 
L 607.725783 228.745761 
L 608.057315 230.227492 
L 608.057315 228.772579 
L 608.390558 228.617857 
L 608.390558 228.983171 
L 608.722823 229.765841 
L 608.722823 228.449306 
L 609.055577 228.939689 
L 609.387597 230.72216 
L 609.387597 229.222447 
L 609.720107 229.33573 
L 610.054328 230.101442 
L 610.054328 228.903989 
L 610.387571 230.214421 
L 610.387571 229.29506 
L 610.719592 227.898524 
L 611.051857 228.938112 
L 611.051857 227.396868 
L 611.3851 226.699129 
L 611.717854 229.104731 
L 611.717854 228.376626 
L 612.05672 230.246779 
L 612.05672 230.881542 
L 612.389719 230.584589 
L 612.389719 231.327015 
L 612.722962 230.549687 
L 613.056938 230.507316 
L 613.056938 230.953421 
L 613.388226 230.357697 
L 613.388226 230.691463 
L 613.72098 230.386247 
L 614.055445 228.762556 
L 614.387955 229.575148 
L 614.387955 228.665564 
L 614.725843 227.725356 
L 615.057619 229.442808 
L 615.390373 229.055368 
L 615.390373 230.090462 
L 615.721905 229.722327 
L 616.05417 227.803445 
L 616.386191 229.013795 
L 616.386191 228.256887 
L 616.7187 228.086404 
L 617.057811 229.54129 
L 617.389832 228.803369 
L 617.389832 229.317047 
L 617.723808 230.222769 
L 617.723808 228.452568 
L 617.723808 229.951493 
L 618.056318 229.567025 
L 618.056318 229.937336 
L 618.389316 229.7078 
L 618.724026 231.058108 
L 618.724026 230.226052 
L 619.056291 230.578984 
L 619.056291 231.84714 
L 619.721066 229.526442 
L 619.721066 230.098203 
L 620.053576 229.338853 
L 620.386819 228.230388 
L 620.72104 229.532973 
L 621.388504 229.412893 
L 621.388504 230.9328 
L 621.721013 230.877351 
L 622.058168 231.371445 
L 622.058168 231.179266 
L 622.722454 229.255028 
L 623.055208 230.069296 
L 623.055208 229.585077 
L 623.386984 229.802725 
L 623.718516 230.890519 
L 624.056404 231.065959 
L 624.056404 230.850572 
L 624.388669 231.168439 
L 624.719712 230.706204 
L 624.719712 231.546308 
L 625.053444 230.740149 
L 625.384975 231.476513 
L 625.384975 232.274646 
L 625.719441 231.539789 
L 626.05244 232.425115 
L 626.05244 231.709505 
L 626.38446 232.199139 
L 626.38446 231.557063 
L 626.716481 232.14686 
L 626.716481 231.030496 
L 627.057303 231.51091 
L 627.057303 231.279554 
L 627.389324 231.965849 
L 627.389324 231.628959 
L 627.7211 232.294965 
L 627.7211 232.632779 
L 628.05312 231.667315 
L 628.386119 231.575155 
L 628.717406 231.116228 
L 629.049427 231.0264 
L 629.381447 230.611675 
L 629.381447 231.387807 
L 629.381447 231.027259 
L 629.713468 231.405164 
L 629.713468 231.99473 
L 630.377509 231.679514 
L 630.710263 231.230975 
L 631.043995 231.325367 
L 631.376749 230.025212 
L 631.708525 229.741819 
L 632.383813 230.848742 
L 632.383813 231.385255 
L 632.716567 231.402019 
L 632.716567 231.854983 
L 633.050299 231.936487 
L 633.383053 232.587548 
L 633.383053 232.292216 
L 633.715807 232.062467 
L 633.715807 232.557912 
L 634.051984 231.984811 
L 634.385716 230.9541 
L 634.385716 231.381707 
L 634.718715 231.467614 
L 634.718715 230.167929 
L 634.718715 231.041566 
L 635.052936 231.314153 
L 635.386179 230.87461 
L 635.719178 230.868393 
L 635.719178 231.752375 
L 636.053154 231.656682 
L 636.053154 231.854912 
L 636.717684 230.894383 
L 636.717684 230.905512 
L 637.056306 231.293138 
L 637.056306 231.887553 
L 637.056306 231.698547 
L 637.388327 232.162039 
L 637.720592 231.911026 
L 638.051879 231.115385 
L 638.051879 231.247929 
L 638.383655 231.06145 
L 638.383655 231.250534 
L 638.716898 230.998366 
L 639.38314 232.098491 
L 639.714671 231.77843 
L 640.384336 232.728659 
L 640.384336 232.487289 
L 640.716601 232.124616 
L 640.716601 232.602165 
L 641.050333 232.578245 
L 641.382842 231.828968 
L 641.71633 231.463118 
L 642.39064 231.218619 
L 642.39064 231.049662 
L 642.724861 231.431689 
L 642.724861 232.298359 
L 643.059326 232.173453 
L 643.059326 231.659906 
L 643.725813 231.795656 
L 643.725813 231.188823 
L 644.060034 231.562505 
L 644.724808 231.272891 
L 644.724808 231.450905 
L 645.057318 232.023342 
L 645.057318 232.010014 
L 645.389583 231.844658 
L 645.721114 232.154644 
L 646.05338 231.675263 
L 646.385645 231.874623 
L 646.719621 232.584337 
L 647.058488 231.58624 
L 647.391242 231.192063 
L 647.391242 230.556435 
L 647.72424 230.330306 
L 648.058217 231.120536 
L 648.391704 231.528443 
L 648.724458 231.45956 
L 649.390944 231.798497 
L 650.395319 231.558715 
L 650.395319 232.145183 
L 650.729051 232.060366 
L 650.729051 232.112609 
L 651.063028 232.110932 
L 651.063028 232.619876 
L 651.395293 232.176277 
L 651.395293 232.495268 
L 651.72878 232.205422 
L 652.06838 232.345637 
L 652.400645 232.357591 
L 652.400645 232.841488 
L 653.061997 233.103064 
L 653.722371 232.517516 
L 654.051946 232.310333 
L 654.3825 232.927411 
L 655.37196 232.898967 
L 656.030867 232.67735 
L 656.360932 232.867452 
L 656.360932 233.080876 
L 656.690508 232.940223 
L 656.690508 233.406309 
L 657.025951 233.265045 
L 657.025951 233.045267 
L 657.686569 232.915837 
L 658.347188 231.459944 
L 658.347188 231.558528 
L 658.677252 231.788288 
L 659.007317 232.219187 
L 659.34276 232.173637 
L 659.34276 233.174786 
L 659.674292 233.121389 
L 660.004112 233.231013 
L 660.004112 233.360633 
L 660.333932 233.02996 
L 660.664975 232.909881 
L 661.32706 232.36992 
L 661.32706 232.73642 
L 661.658347 232.928087 
L 661.658347 233.289851 
L 661.658347 233.262544 
L 662.3263 233.367036 
L 662.989608 233.01166 
L 662.989608 232.877372 
L 663.32114 232.930296 
L 663.32114 232.87489 
L 663.651204 232.666811 
L 664.314757 232.82317 
L 664.646533 232.558903 
L 664.646533 232.702521 
L 664.979531 232.522596 
L 665.310574 232.489887 
L 665.310574 232.549425 
L 665.641617 232.963161 
L 665.973637 233.087588 
L 665.973637 233.580427 
L 666.305169 233.517588 
L 666.636456 232.945169 
L 666.636456 233.113773 
L 666.974589 232.747574 
L 666.974589 232.242786 
L 667.639608 232.42364 
L 667.639608 232.270676 
L 667.971628 232.430564 
L 668.304383 232.729214 
L 668.969891 232.501495 
L 668.969891 232.540908 
L 669.310224 232.601655 
L 669.310224 232.749185 
L 669.642978 232.716073 
L 669.642978 233.159231 
L 669.97671 233.188869 
L 669.97671 232.438973 
L 670.310442 232.125643 
L 670.310442 231.972222 
L 670.310442 232.094199 
L 670.642463 232.900948 
L 670.976195 232.244879 
L 670.976195 232.462789 
L 671.643414 232.283485 
L 671.643414 232.353244 
L 671.98277 232.664251 
L 671.98277 232.843353 
L 672.318458 233.049524 
L 672.318458 233.016305 
L 672.318458 232.917244 
L 672.65219 233.324019 
L 672.65219 233.135521 
L 672.985433 233.261087 
L 672.985433 233.100351 
L 673.320876 233.117473 
L 673.320876 233.091874 
L 673.65632 232.875503 
L 673.65632 232.689968 
L 673.990052 232.765166 
L 673.990052 232.712308 
L 674.323784 232.687964 
L 674.323784 233.0592 
L 674.658738 233.401573 
L 674.658738 233.674843 
L 674.993204 233.735068 
L 674.993204 233.146483 
L 675.326691 233.155142 
L 675.326691 233.030301 
L 675.660912 232.96143 
L 675.660912 232.798754 
L 675.660912 233.302646 
L 675.996356 232.771687 
L 676.328866 233.029671 
L 676.663331 232.730154 
L 676.663331 232.757215 
L 677.002442 232.772786 
L 677.002442 232.960638 
L 677.338863 232.800671 
L 677.338863 232.929081 
L 677.680175 232.72914 
L 677.680175 232.883965 
L 678.01464 232.807997 
L 678.350328 232.533201 
L 678.685527 232.63383 
L 678.685527 232.752189 
L 679.019259 232.545699 
L 679.019259 232.888457 
L 679.019259 232.827214 
L 679.355925 232.581896 
L 680.359566 232.808915 
L 680.359566 232.675584 
L 680.696721 232.744128 
L 681.032898 232.25025 
L 681.032898 232.02675 
L 681.367608 231.955778 
L 681.367608 232.271711 
L 681.703296 232.601933 
L 682.378584 232.552574 
L 682.378584 232.650745 
L 682.712805 232.031074 
L 683.048982 232.624662 
L 683.048982 232.462212 
L 683.386137 232.378468 
L 683.386137 232.697257 
L 683.719135 232.590722 
L 683.719135 232.961612 
L 684.05409 232.868855 
L 684.387333 233.064075 
L 684.387333 233.275257 
L 685.05553 233.059699 
L 685.05553 233.322161 
L 685.395375 233.449873 
L 685.730085 233.734173 
L 686.064795 233.643016 
L 686.733726 233.268918 
L 687.072837 232.838237 
L 687.072837 232.907077 
L 687.407547 232.773631 
L 687.407547 232.976094 
L 687.743235 233.072252 
L 687.743235 232.790799 
L 688.078434 233.03756 
L 688.078434 232.998581 
L 688.412655 232.638966 
L 688.746876 232.726756 
L 689.082808 232.939658 
L 689.082808 232.571415 
L 689.417763 232.793902 
L 689.752962 232.638516 
L 689.752962 232.768236 
L 690.088161 232.628526 
L 690.088161 232.693307 
L 690.422871 233.070076 
L 690.422871 233.06157 
L 690.758314 233.262607 
L 690.758314 233.195524 
L 691.09278 233.096379 
L 691.09278 232.906616 
L 691.09278 233.064354 
L 691.428223 233.005829 
L 691.428223 233.041016 
L 691.762933 233.277843 
L 692.103022 232.738337 
L 692.437977 231.644948 
L 692.773176 231.485475 
L 692.773176 231.612025 
L 693.109841 232.006855 
L 693.109841 232.578542 
L 693.109841 232.495918 
L 693.780973 232.868905 
L 694.127419 232.653578 
L 694.462373 232.950187 
L 694.462373 233.230146 
L 694.79635 233.23488 
L 694.79635 233.176073 
L 695.469193 232.661758 
L 695.469193 232.117325 
L 695.469193 232.253029 
L 695.803414 232.306759 
L 695.803414 232.212312 
L 696.13739 232.059605 
L 696.13739 232.522042 
L 696.4721 232.257797 
L 696.4721 232.755582 
L 696.806566 232.607282 
L 697.146899 232.902443 
L 697.146899 232.624613 
L 697.481609 233.165211 
L 697.816319 233.137465 
L 697.816319 233.628408 
L 698.153229 233.599033 
L 698.153229 233.135775 
L 698.488673 232.876672 
L 698.826561 232.386753 
L 699.16445 231.624792 
L 699.498915 231.912249 
L 699.837048 231.686478 
L 700.509158 231.897123 
L 700.845823 232.622328 
L 700.845823 231.922843 
L 701.181756 231.978686 
L 701.517688 231.860013 
L 701.854354 232.071534 
L 702.194688 232.77762 
L 702.194688 232.66419 
L 703.202241 232.952972 
L 703.202241 233.220007 
L 703.878017 233.498098 
L 703.878017 233.474304 
L 704.215172 233.629937 
L 704.215172 233.542093 
L 704.890705 233.557172 
L 704.890705 233.405032 
L 705.227371 233.233058 
L 705.564281 233.307684 
L 705.564281 233.188915 
L 705.901436 233.116249 
L 705.901436 233.319718 
L 705.901436 233.030741 
L 706.238346 232.778141 
L 706.238346 232.864041 
L 706.576724 232.865462 
L 706.912901 232.588798 
L 707.594056 233.14598 
L 707.9295 233.000065 
L 708.265188 233.086186 
L 708.265188 233.394983 
L 708.60112 233.137719 
L 708.60112 233.459637 
L 708.940231 233.430632 
L 708.940231 232.716776 
L 709.277875 232.599357 
L 709.613074 232.251002 
L 709.94974 232.877163 
L 710.286162 232.867011 
L 710.286162 232.973436 
L 710.286162 232.983193 
L 710.624294 233.035275 
L 710.624294 232.91133 
L 710.960716 233.072798 
L 711.296893 232.456388 
L 711.633803 232.410392 
L 711.969491 232.69246 
L 711.969491 232.631819 
L 711.969491 232.887914 
L 712.313492 233.098385 
L 712.985601 233.166993 
L 713.326179 233.402323 
L 713.326179 233.584562 
L 714.339355 233.774617 
L 714.339355 233.341519 
L 715.014643 232.756007 
L 715.353265 232.72513 
L 715.353265 232.883893 
L 715.691154 233.184057 
L 715.691154 233.093033 
L 716.03002 233.229581 
L 716.03002 233.040665 
L 716.367175 233.332906 
L 716.367175 233.212689 
L 717.041729 232.911452 
L 717.041729 233.018112 
L 717.384019 232.928292 
L 717.721907 232.656894 
L 718.397439 233.032107 
L 718.397439 233.379114 
L 718.397439 233.304081 
L 718.733861 233.112096 
L 719.069793 233.337635 
L 719.405481 233.143287 
L 719.74337 232.8663 
L 719.74337 233.120322 
L 720.08028 233.272375 
L 720.416457 232.958387 
L 720.753856 233.401834 
L 720.753856 233.161183 
L 721.095901 232.820515 
L 721.432812 232.934204 
L 721.432812 232.877202 
L 721.768744 232.881077 
L 721.768744 233.096965 
L 722.105166 233.541035 
L 722.44721 233.361345 
L 722.44721 233.507397 
L 722.782898 233.051668 
L 723.457697 233.090603 
L 723.794119 232.902887 
L 723.794119 232.939636 
L 724.132985 233.397677 
L 724.472829 233.351162 
L 724.472829 233.164533 
L 724.812429 233.356317 
L 725.492851 233.152377 
L 726.164472 233.156899 
L 726.500649 233.464765 
L 727.177648 233.495518 
L 727.177648 233.350939 
L 727.51847 233.378015 
L 727.51847 233.193668 
L 728.871735 233.245535 
L 728.871735 232.941128 
L 729.212802 232.488956 
L 729.552158 232.474973 
L 729.552158 232.648969 
L 729.89029 232.832005 
L 730.226712 233.232768 
L 730.563133 233.021142 
L 730.563133 233.049528 
L 731.235243 233.102236 
L 731.235243 232.880702 
L 731.573131 233.20025 
L 731.909553 233.009461 
L 732.246219 233.036354 
L 732.246219 233.180531 
L 732.588019 233.476995 
L 732.926885 233.82108 
L 733.599239 233.583265 
L 733.934194 233.53611 
L 734.605081 233.220842 
L 735.278902 233.282219 
L 735.278902 233.005515 
L 735.953456 233.537609 
L 736.290611 233.310692 
L 736.963454 233.152289 
L 736.963454 232.586928 
L 737.305499 232.37568 
L 737.305499 232.402775 
L 737.647299 232.005244 
L 737.985187 232.01638 
L 737.985187 232.230284 
L 739.000075 232.620447 
L 740.00665 231.841702 
L 740.34356 232.441574 
L 740.34356 231.781104 
L 740.678515 231.9211 
L 741.349402 232.490699 
L 741.349402 231.432834 
L 741.68729 232.172826 
L 741.68729 232.494816 
L 742.022489 232.667918 
L 742.022489 232.206171 
L 742.361111 232.61062 
L 742.704623 232.040756 
L 742.704623 231.503623 
L 743.041289 231.573488 
L 743.041289 231.488045 
L 743.37771 231.209151 
L 743.715599 231.816882 
L 744.051531 231.074419 
L 744.051531 231.387119 
L 744.387219 232.40869 
L 744.725107 232.227648 
L 745.062262 231.865218 
L 745.39795 230.307632 
L 745.733638 230.31331 
L 745.733638 229.708101 
L 746.067126 230.326925 
L 746.406726 231.863519 
L 746.406726 230.902768 
L 746.747548 231.88414 
L 746.747548 230.995719 
L 747.08397 231.428609 
L 747.08397 229.777977 
L 747.420391 229.978283 
L 747.420391 229.291909 
L 747.76048 229.392274 
L 748.094701 228.434735 
L 748.4299 228.917332 
L 748.766321 228.857536 
L 749.101031 229.223563 
L 749.101031 228.80655 
L 749.436964 229.781662 
L 749.436964 230.325272 
L 749.775586 229.922518 
L 750.11054 228.817891 
L 750.444517 229.423581 
L 750.784361 228.596354 
L 751.123227 228.77016 
L 751.457693 229.95859 
L 751.457693 230.669282 
L 751.797537 230.917665 
L 752.133714 231.789414 
L 752.133714 231.709938 
L 752.472581 231.177109 
L 753.151536 230.988748 
L 754.159578 230.454914 
L 754.502111 230.684169 
L 754.837066 231.494013 
L 755.171531 230.897725 
L 755.505752 231.700436 
L 755.505752 232.179826 
L 755.841196 232.728563 
L 755.841196 231.739326 
L 756.175661 232.551355 
L 756.175661 232.155421 
L 756.511838 232.472858 
L 756.511838 231.817847 
L 756.848993 232.789994 
L 756.848993 232.245437 
L 757.186393 232.692039 
L 757.186393 231.916752 
L 757.520614 232.541397 
L 757.861681 232.311619 
L 758.196391 232.431599 
L 758.534768 232.174736 
L 758.534768 232.381765 
L 758.869234 231.851645 
L 759.206877 231.832926 
L 759.54061 232.267458 
L 759.877764 231.549299 
L 760.55183 231.896212 
L 760.55183 232.212618 
L 760.887518 231.616959 
L 761.223939 232.370971 
L 761.223939 232.032339 
L 761.559383 232.449229 
L 761.559383 231.84046 
L 761.893848 232.21745 
L 762.228803 231.922115 
L 762.911181 230.776399 
L 763.246869 231.14896 
L 763.246869 230.924107 
L 763.581823 231.897498 
L 763.918489 232.817665 
L 764.253199 232.132595 
L 764.588887 232.293533 
L 764.588887 231.976473 
L 764.923597 232.239013 
L 765.261241 231.733087 
L 765.595951 232.016752 
L 765.930906 231.842251 
L 766.26586 232.043725 
L 766.600081 231.422275 
L 766.938703 231.854919 
L 766.938703 231.63869 
L 767.273658 231.987402 
L 767.273658 231.552178 
L 767.608123 232.448822 
L 767.947967 231.92942 
L 768.286589 232.616788 
L 768.622033 232.691763 
L 768.622033 232.935369 
L 769.294876 232.968067 
L 769.629341 232.595136 
L 769.964051 232.577455 
L 769.964051 232.385641 
L 770.300473 232.248278 
L 770.634205 232.624586 
L 770.634205 232.952495 
L 770.969404 232.887556 
L 770.969404 232.915833 
L 771.309982 233.238601 
L 771.309982 232.801292 
L 771.643714 232.527734 
L 771.979402 232.475675 
L 772.3124 232.769082 
L 772.3124 231.643579 
L 772.645888 232.062792 
L 772.986221 232.13515 
L 773.320442 232.25849 
L 773.320442 233.052114 
L 773.657352 232.936698 
L 773.99084 233.333683 
L 774.659282 233.300033 
L 774.659282 233.038167 
L 774.993014 233.252176 
L 774.993014 232.903099 
L 775.327724 232.891081 
L 775.327724 232.906556 
L 775.661945 233.482343 
L 775.661945 233.231401 
L 776.331365 233.347525 
L 776.331365 232.518427 
L 776.669009 232.298472 
L 777.336473 232.591778 
L 777.336473 232.350984 
L 777.672161 233.245926 
L 778.347693 233.278158 
L 778.347693 233.208335 
L 778.682159 233.047486 
L 778.682159 232.624901 
L 779.015647 232.851619 
L 779.350601 233.063261 
L 779.350601 233.045632 
L 779.684822 232.247319 
L 780.362799 232.038264 
L 780.69702 232.160838 
L 780.69702 232.117564 
L 781.029774 232.610595 
L 781.029774 233.07808 
L 781.029774 232.926904 
L 781.365951 232.576612 
L 781.701639 232.646383 
L 781.701639 231.847196 
L 782.370081 231.867513 
L 782.370081 232.178944 
L 782.703813 232.161358 
L 782.703813 232.905509 
L 783.04488 233.081937 
L 783.04488 233.391736 
L 783.378857 233.28613 
L 783.7143 232.428217 
L 784.382253 232.576692 
L 784.382253 232.676917 
L 784.716474 232.553473 
L 784.716474 233.420128 
L 785.050206 232.606975 
L 785.72036 232.259233 
L 785.72036 231.951842 
L 786.057759 231.302304 
L 786.392225 232.093005 
L 786.725468 231.684495 
L 787.0614 231.87662 
L 788.067731 231.926524 
L 788.067731 232.114931 
L 789.066237 232.617454 
L 789.404859 233.257281 
L 789.404859 232.703886 
L 789.737124 231.786762 
L 790.070367 231.552919 
L 790.401655 231.722396 
L 790.401655 231.635609 
L 790.401655 232.076924 
L 790.732942 232.950774 
L 790.732942 233.410421 
L 791.063495 232.899625 
L 791.394782 232.117942 
L 791.724847 232.03679 
L 791.724847 231.302478 
L 792.054667 231.159768 
L 792.054667 230.936262 
L 792.054667 231.544012 
L 792.384487 231.540443 
L 792.384487 232.11764 
L 792.715041 232.474366 
L 792.715041 232.402932 
L 793.049996 232.341384 
L 793.049996 232.196188 
L 793.049996 232.363868 
L 793.379082 232.161668 
L 793.708658 232.962514 
L 793.708658 233.255414 
L 794.037745 233.666627 
L 794.366587 233.144182 
L 794.695429 232.988606 
L 794.695429 232.571139 
L 795.352624 232.282839 
L 796.009575 232.774576 
L 796.337684 232.442594 
L 796.666037 232.826764 
L 796.666037 232.106819 
L 796.994635 232.267094 
L 796.994635 232.137664 
L 797.322988 231.370271 
L 797.651586 231.326165 
L 797.651586 231.671583 
L 797.985318 231.602845 
L 798.313671 232.76328 
L 798.313671 232.330921 
L 798.648626 232.371183 
L 798.976979 231.948256 
L 799.305332 231.819144 
L 799.633685 232.278363 
L 799.633685 232.091405 
L 799.962283 232.413306 
L 799.962283 231.873077 
L 800.290636 231.180246 
L 800.619234 231.054869 
L 800.619234 231.193417 
L 800.947831 230.691887 
L 801.276185 231.09045 
L 801.276185 231.798986 
L 801.606249 231.688649 
L 801.935092 232.166308 
L 802.59302 232.255775 
L 802.927486 232.169706 
L 803.256573 232.677303 
L 803.91499 231.20259 
L 804.244322 231.136127 
L 804.244322 231.197537 
L 804.573164 230.786765 
L 804.90274 231.859408 
L 804.90274 232.256515 
L 805.231826 232.29075 
L 805.561157 232.606311 
L 805.561157 232.926002 
L 805.890244 232.817775 
L 805.890244 233.044654 
L 806.21982 233.046431 
L 806.21982 232.061884 
L 806.54964 231.14276 
L 807.5391 231.376256 
L 807.879434 232.036536 
L 808.209254 233.149362 
L 808.539074 233.170021 
L 808.539074 233.060986 
L 808.869628 233.060956 
L 809.198959 233.444588 
L 809.198959 232.566615 
L 809.52829 232.120954 
L 809.857621 232.041356 
L 810.187686 231.587698 
L 810.847082 231.509766 
L 811.176902 231.755532 
L 811.506477 231.410223 
L 812.167585 231.193176 
L 812.167585 231.753937 
L 812.497894 231.79346 
L 812.833093 231.598516 
L 813.832089 232.551744 
L 814.520824 234.209977 
L 815.209558 234.082876 
L 815.893403 234.150208 
L 815.893403 234.150208 
" clip-path="url(#pcb4e68000e)" style="fill: none; stroke: #008000; stroke-width: 1.5; stroke-linecap: square"/>
   </g>
   <g id="patch_3">
    <path d="M 47.72 534.04 
L 47.72 26.88 
" style="fill: none; stroke: #000000; stroke-width: 0.8; stroke-linejoin: miter; stroke-linecap: square"/>
   </g>
   <g id="patch_4">
    <path d="M 853.2 534.04 
L 853.2 26.88 
" style="fill: none; stroke: #000000; stroke-width: 0.8; stroke-linejoin: miter; stroke-linecap: square"/>
   </g>
   <g id="patch_5">
    <path d="M 47.72 534.04 
L 853.2 534.04 
" style="fill: none; stroke: #000000; stroke-width: 0.8; stroke-linejoin: miter; stroke-linecap: square"/>
   </g>
   <g id="patch_6">
    <path d="M 47.72 26.88 
L 853.2 26.88 
" style="fill: none; stroke: #000000; stroke-width: 0.8; stroke-linejoin: miter; stroke-linecap: square"/>
   </g>
   <g id="patch_7">
    <path d="M 648.763234 477.537092 
Q 622.61194 483.370954 596.460647 489.204817 
L 597.331564 493.108853 
Q 590.823783 491.486875 584.316003 489.864897 
Q 589.517408 485.63082 594.718812 481.396743 
L 595.589729 485.30078 
Q 621.741023 479.466917 647.892317 473.633055 
L 648.763234 477.537092 
z
" style="stroke: #000000; stroke-linecap: round"/>
   </g>
   <g id="text_15">
    <!-- Peak: RT=3.39, Area=5.42e+03 -->
    <g style="fill: #ff0000" transform="translate(653.999869 461.042236) scale(0.1 -0.1)">
     <defs>
      <path id="DejaVuSans-50" d="M 1259 4147 
L 1259 2394 
L 2053 2394 
Q 2494 2394 2734 2622 
Q 2975 2850 2975 3272 
Q 2975 3691 2734 3919 
Q 2494 4147 2053 4147 
L 1259 4147 
z
M 628 4666 
L 2053 4666 
Q 2838 4666 3239 4311 
Q 3641 3956 3641 3272 
Q 3641 2581 3239 2228 
Q 2838 1875 2053 1875 
L 1259 1875 
L 1259 0 
L 628 0 
L 628 4666 
z
" transform="scale(0.015625)"/>
      <path id="DejaVuSans-6b" d="M 581 4863 
L 1159 4863 
L 1159 1991 
L 2875 3500 
L 3609 3500 
L 1753 1863 
L 3688 0 
L 2938 0 
L 1159 1709 
L 1159 0 
L 581 0 
L 581 4863 
z
" transform="scale(0.015625)"/>
      <path id="DejaVuSans-3a" d="M 750 794 
L 1409 794 
L 1409 0 
L 750 0 
L 750 794 
z
M 750 3309 
L 1409 3309 
L 1409 2516 
L 750 2516 
L 750 3309 
z
" transform="scale(0.015625)"/>
      <path id="DejaVuSans-3d" d="M 678 2906 
L 4684 2906 
L 4684 2381 
L 678 2381 
L 678 2906 
z
M 678 1631 
L 4684 1631 
L 4684 1100 
L 678 1100 
L 678 1631 
z
" transform="scale(0.015625)"/>
      <path id="DejaVuSans-39" d="M 703 97 
L 703 672 
Q 941 559 1184 500 
Q 1428 441 1663 441 
Q 2288 441 2617 861 
Q 2947 1281 2994 2138 
Q 2813 1869 2534 1725 
Q 2256 1581 1919 1581 
Q 1219 1581 811 2004 
Q 403 2428 403 3163 
Q 403 3881 828 4315 
Q 1253 4750 1959 4750 
Q 2769 4750 3195 4129 
Q 3622 3509 3622 2328 
Q 3622 1225 3098 567 
Q 2575 -91 1691 -91 
Q 1453 -91 1209 -44 
Q 966 3 703 97 
z
M 1959 2075 
Q 2384 2075 2632 2365 
Q 2881 2656 2881 3163 
Q 2881 3666 2632 3958 
Q 2384 4250 1959 4250 
Q 1534 4250 1286 3958 
Q 1038 3666 1038 3163 
Q 1038 2656 1286 2365 
Q 1534 2075 1959 2075 
z
" transform="scale(0.015625)"/>
      <path id="DejaVuSans-2c" d="M 750 794 
L 1409 794 
L 1409 256 
L 897 -744 
L 494 -744 
L 750 256 
L 750 794 
z
" transform="scale(0.015625)"/>
      <path id="DejaVuSans-41" d="M 2188 4044 
L 1331 1722 
L 3047 1722 
L 2188 4044 
z
M 1831 4666 
L 2547 4666 
L 4325 0 
L 3669 0 
L 3244 1197 
L 1141 1197 
L 716 0 
L 50 0 
L 1831 4666 
z
" transform="scale(0.015625)"/>
      <path id="DejaVuSans-2b" d="M 2944 4013 
L 2944 2272 
L 4684 2272 
L 4684 1741 
L 2944 1741 
L 2944 0 
L 2419 0 
L 2419 1741 
L 678 1741 
L 678 2272 
L 2419 2272 
L 2419 4013 
L 2944 4013 
z
" transform="scale(0.015625)"/>
     </defs>
     <use xlink:href="#DejaVuSans-50"/>
     <use xlink:href="#DejaVuSans-65" transform="translate(56.677734 0)"/>
     <use xlink:href="#DejaVuSans-61" transform="translate(118.201172 0)"/>
     <use xlink:href="#DejaVuSans-6b" transform="translate(179.480469 0)"/>
     <use xlink:href="#DejaVuSans-3a" transform="translate(237.390625 0)"/>
     <use xlink:href="#DejaVuSans-20" transform="translate(271.082031 0)"/>
     <use xlink:href="#DejaVuSans-52" transform="translate(302.869141 0)"/>
     <use xlink:href="#DejaVuSans-54" transform="translate(365.101562 0)"/>
     <use xlink:href="#DejaVuSans-3d" transform="translate(426.185547 0)"/>
     <use xlink:href="#DejaVuSans-33" transform="translate(509.974609 0)"/>
     <use xlink:href="#DejaVuSans-2e" transform="translate(573.597656 0)"/>
     <use xlink:href="#DejaVuSans-33" transform="translate(605.384766 0)"/>
     <use xlink:href="#DejaVuSans-39" transform="translate(669.007812 0)"/>
     <use xlink:href="#DejaVuSans-2c" transform="translate(732.630859 0)"/>
     <use xlink:href="#DejaVuSans-20" transform="translate(764.417969 0)"/>
     <use xlink:href="#DejaVuSans-41" transform="translate(796.205078 0)"/>
     <use xlink:href="#DejaVuSans-72" transform="translate(864.613281 0)"/>
     <use xlink:href="#DejaVuSans-65" transform="translate(903.476562 0)"/>
     <use xlink:href="#DejaVuSans-61" transform="translate(965 0)"/>
     <use xlink:href="#DejaVuSans-3d" transform="translate(1026.279297 0)"/>
     <use xlink:href="#DejaVuSans-35" transform="translate(1110.068359 0)"/>
     <use xlink:href="#DejaVuSans-2e" transform="translate(1173.691406 0)"/>
     <use xlink:href="#DejaVuSans-34" transform="translate(1205.478516 0)"/>
     <use xlink:href="#DejaVuSans-32" transform="translate(1269.101562 0)"/>
     <use xlink:href="#DejaVuSans-65" transform="translate(1332.724609 0)"/>
     <use xlink:href="#DejaVuSans-2b" transform="translate(1394.248047 0)"/>
     <use xlink:href="#DejaVuSans-30" transform="translate(1478.037109 0)"/>
     <use xlink:href="#DejaVuSans-33" transform="translate(1541.660156 0)"/>
    </g>
    <!-- (7.28% of total) -->
    <g style="fill: #ff0000" transform="translate(653.999869 472.240048) scale(0.1 -0.1)">
     <defs>
      <path id="DejaVuSans-37" d="M 525 4666 
L 3525 4666 
L 3525 4397 
L 1831 0 
L 1172 0 
L 2766 4134 
L 525 4134 
L 525 4666 
z
" transform="scale(0.015625)"/>
      <path id="DejaVuSans-38" d="M 2034 2216 
Q 1584 2216 1326 1975 
Q 1069 1734 1069 1313 
Q 1069 891 1326 650 
Q 1584 409 2034 409 
Q 2484 409 2743 651 
Q 3003 894 3003 1313 
Q 3003 1734 2745 1975 
Q 2488 2216 2034 2216 
z
M 1403 2484 
Q 997 2584 770 2862 
Q 544 3141 544 3541 
Q 544 4100 942 4425 
Q 1341 4750 2034 4750 
Q 2731 4750 3128 4425 
Q 3525 4100 3525 3541 
Q 3525 3141 3298 2862 
Q 3072 2584 2669 2484 
Q 3125 2378 3379 2068 
Q 3634 1759 3634 1313 
Q 3634 634 3220 271 
Q 2806 -91 2034 -91 
Q 1263 -91 848 271 
Q 434 634 434 1313 
Q 434 1759 690 2068 
Q 947 2378 1403 2484 
z
M 1172 3481 
Q 1172 3119 1398 2916 
Q 1625 2713 2034 2713 
Q 2441 2713 2670 2916 
Q 2900 3119 2900 3481 
Q 2900 3844 2670 4047 
Q 2441 4250 2034 4250 
Q 1625 4250 1398 4047 
Q 1172 3844 1172 3481 
z
" transform="scale(0.015625)"/>
      <path id="DejaVuSans-25" d="M 4653 2053 
Q 4381 2053 4226 1822 
Q 4072 1591 4072 1178 
Q 4072 772 4226 539 
Q 4381 306 4653 306 
Q 4919 306 5073 539 
Q 5228 772 5228 1178 
Q 5228 1588 5073 1820 
Q 4919 2053 4653 2053 
z
M 4653 2450 
Q 5147 2450 5437 2106 
Q 5728 1763 5728 1178 
Q 5728 594 5436 251 
Q 5144 -91 4653 -91 
Q 4153 -91 3862 251 
Q 3572 594 3572 1178 
Q 3572 1766 3864 2108 
Q 4156 2450 4653 2450 
z
M 1428 4353 
Q 1159 4353 1004 4120 
Q 850 3888 850 3481 
Q 850 3069 1003 2837 
Q 1156 2606 1428 2606 
Q 1700 2606 1854 2837 
Q 2009 3069 2009 3481 
Q 2009 3884 1853 4118 
Q 1697 4353 1428 4353 
z
M 4250 4750 
L 4750 4750 
L 1831 -91 
L 1331 -91 
L 4250 4750 
z
M 1428 4750 
Q 1922 4750 2215 4408 
Q 2509 4066 2509 3481 
Q 2509 2891 2217 2550 
Q 1925 2209 1428 2209 
Q 931 2209 642 2551 
Q 353 2894 353 3481 
Q 353 4063 643 4406 
Q 934 4750 1428 4750 
z
" transform="scale(0.015625)"/>
      <path id="DejaVuSans-66" d="M 2375 4863 
L 2375 4384 
L 1825 4384 
Q 1516 4384 1395 4259 
Q 1275 4134 1275 3809 
L 1275 3500 
L 2222 3500 
L 2222 3053 
L 1275 3053 
L 1275 0 
L 697 0 
L 697 3053 
L 147 3053 
L 147 3500 
L 697 3500 
L 697 3744 
Q 697 4328 969 4595 
Q 1241 4863 1831 4863 
L 2375 4863 
z
" transform="scale(0.015625)"/>
     </defs>
     <use xlink:href="#DejaVuSans-28"/>
     <use xlink:href="#DejaVuSans-37" transform="translate(39.013672 0)"/>
     <use xlink:href="#DejaVuSans-2e" transform="translate(102.636719 0)"/>
     <use xlink:href="#DejaVuSans-32" transform="translate(134.423828 0)"/>
     <use xlink:href="#DejaVuSans-38" transform="translate(198.046875 0)"/>
     <use xlink:href="#DejaVuSans-25" transform="translate(261.669922 0)"/>
     <use xlink:href="#DejaVuSans-20" transform="translate(356.689453 0)"/>
     <use xlink:href="#DejaVuSans-6f" transform="translate(388.476562 0)"/>
     <use xlink:href="#DejaVuSans-66" transform="translate(449.658203 0)"/>
     <use xlink:href="#DejaVuSans-20" transform="translate(484.863281 0)"/>
     <use xlink:href="#DejaVuSans-74" transform="translate(516.650391 0)"/>
     <use xlink:href="#DejaVuSans-6f" transform="translate(555.859375 0)"/>
     <use xlink:href="#DejaVuSans-74" transform="translate(617.041016 0)"/>
     <use xlink:href="#DejaVuSans-61" transform="translate(656.25 0)"/>
     <use xlink:href="#DejaVuSans-6c" transform="translate(717.529297 0)"/>
     <use xlink:href="#DejaVuSans-29" transform="translate(745.3125 0)"/>
    </g>
   </g>
   <g id="text_16">
    <!-- UV &amp; MS Chromatograms: IrCp2M9, target m/z=869.0087541 -->
    <g transform="translate(265.0525 20.88) scale(0.12 -0.12)">
     <defs>
      <path id="DejaVuSans-55" d="M 556 4666 
L 1191 4666 
L 1191 1831 
Q 1191 1081 1462 751 
Q 1734 422 2344 422 
Q 2950 422 3222 751 
Q 3494 1081 3494 1831 
L 3494 4666 
L 4128 4666 
L 4128 1753 
Q 4128 841 3676 375 
Q 3225 -91 2344 -91 
Q 1459 -91 1007 375 
Q 556 841 556 1753 
L 556 4666 
z
" transform="scale(0.015625)"/>
      <path id="DejaVuSans-56" d="M 1831 0 
L 50 4666 
L 709 4666 
L 2188 738 
L 3669 4666 
L 4325 4666 
L 2547 0 
L 1831 0 
z
" transform="scale(0.015625)"/>
      <path id="DejaVuSans-26" d="M 1556 2509 
Q 1272 2256 1139 2004 
Q 1006 1753 1006 1478 
Q 1006 1022 1337 719 
Q 1669 416 2169 416 
Q 2466 416 2725 514 
Q 2984 613 3213 813 
L 1556 2509 
z
M 1997 2859 
L 3584 1234 
Q 3769 1513 3872 1830 
Q 3975 2147 3994 2503 
L 4575 2503 
Q 4538 2091 4375 1687 
Q 4213 1284 3922 891 
L 4794 0 
L 4006 0 
L 3559 459 
Q 3234 181 2878 45 
Q 2522 -91 2113 -91 
Q 1359 -91 881 339 
Q 403 769 403 1441 
Q 403 1841 612 2192 
Q 822 2544 1241 2853 
Q 1091 3050 1012 3245 
Q 934 3441 934 3628 
Q 934 4134 1281 4442 
Q 1628 4750 2203 4750 
Q 2463 4750 2720 4694 
Q 2978 4638 3244 4525 
L 3244 3956 
Q 2972 4103 2725 4179 
Q 2478 4256 2266 4256 
Q 1938 4256 1733 4082 
Q 1528 3909 1528 3634 
Q 1528 3475 1620 3314 
Q 1713 3153 1997 2859 
z
" transform="scale(0.015625)"/>
      <path id="DejaVuSans-4d" d="M 628 4666 
L 1569 4666 
L 2759 1491 
L 3956 4666 
L 4897 4666 
L 4897 0 
L 4281 0 
L 4281 4097 
L 3078 897 
L 2444 897 
L 1241 4097 
L 1241 0 
L 628 0 
L 628 4666 
z
" transform="scale(0.015625)"/>
      <path id="DejaVuSans-53" d="M 3425 4513 
L 3425 3897 
Q 3066 4069 2747 4153 
Q 2428 4238 2131 4238 
Q 1616 4238 1336 4038 
Q 1056 3838 1056 3469 
Q 1056 3159 1242 3001 
Q 1428 2844 1947 2747 
L 2328 2669 
Q 3034 2534 3370 2195 
Q 3706 1856 3706 1288 
Q 3706 609 3251 259 
Q 2797 -91 1919 -91 
Q 1588 -91 1214 -16 
Q 841 59 441 206 
L 441 856 
Q 825 641 1194 531 
Q 1563 422 1919 422 
Q 2459 422 2753 634 
Q 3047 847 3047 1241 
Q 3047 1584 2836 1778 
Q 2625 1972 2144 2069 
L 1759 2144 
Q 1053 2284 737 2584 
Q 422 2884 422 3419 
Q 422 4038 858 4394 
Q 1294 4750 2059 4750 
Q 2388 4750 2728 4690 
Q 3069 4631 3425 4513 
z
" transform="scale(0.015625)"/>
      <path id="DejaVuSans-43" d="M 4122 4306 
L 4122 3641 
Q 3803 3938 3442 4084 
Q 3081 4231 2675 4231 
Q 1875 4231 1450 3742 
Q 1025 3253 1025 2328 
Q 1025 1406 1450 917 
Q 1875 428 2675 428 
Q 3081 428 3442 575 
Q 3803 722 4122 1019 
L 4122 359 
Q 3791 134 3420 21 
Q 3050 -91 2638 -91 
Q 1578 -91 968 557 
Q 359 1206 359 2328 
Q 359 3453 968 4101 
Q 1578 4750 2638 4750 
Q 3056 4750 3426 4639 
Q 3797 4528 4122 4306 
z
" transform="scale(0.015625)"/>
      <path id="DejaVuSans-68" d="M 3513 2113 
L 3513 0 
L 2938 0 
L 2938 2094 
Q 2938 2591 2744 2837 
Q 2550 3084 2163 3084 
Q 1697 3084 1428 2787 
Q 1159 2491 1159 1978 
L 1159 0 
L 581 0 
L 581 4863 
L 1159 4863 
L 1159 2956 
Q 1366 3272 1645 3428 
Q 1925 3584 2291 3584 
Q 2894 3584 3203 3211 
Q 3513 2838 3513 2113 
z
" transform="scale(0.015625)"/>
      <path id="DejaVuSans-67" d="M 2906 1791 
Q 2906 2416 2648 2759 
Q 2391 3103 1925 3103 
Q 1463 3103 1205 2759 
Q 947 2416 947 1791 
Q 947 1169 1205 825 
Q 1463 481 1925 481 
Q 2391 481 2648 825 
Q 2906 1169 2906 1791 
z
M 3481 434 
Q 3481 -459 3084 -895 
Q 2688 -1331 1869 -1331 
Q 1566 -1331 1297 -1286 
Q 1028 -1241 775 -1147 
L 775 -588 
Q 1028 -725 1275 -790 
Q 1522 -856 1778 -856 
Q 2344 -856 2625 -561 
Q 2906 -266 2906 331 
L 2906 616 
Q 2728 306 2450 153 
Q 2172 0 1784 0 
Q 1141 0 747 490 
Q 353 981 353 1791 
Q 353 2603 747 3093 
Q 1141 3584 1784 3584 
Q 2172 3584 2450 3431 
Q 2728 3278 2906 2969 
L 2906 3500 
L 3481 3500 
L 3481 434 
z
" transform="scale(0.015625)"/>
      <path id="DejaVuSans-70" d="M 1159 525 
L 1159 -1331 
L 581 -1331 
L 581 3500 
L 1159 3500 
L 1159 2969 
Q 1341 3281 1617 3432 
Q 1894 3584 2278 3584 
Q 2916 3584 3314 3078 
Q 3713 2572 3713 1747 
Q 3713 922 3314 415 
Q 2916 -91 2278 -91 
Q 1894 -91 1617 61 
Q 1341 213 1159 525 
z
M 3116 1747 
Q 3116 2381 2855 2742 
Q 2594 3103 2138 3103 
Q 1681 3103 1420 2742 
Q 1159 2381 1159 1747 
Q 1159 1113 1420 752 
Q 1681 391 2138 391 
Q 2594 391 2855 752 
Q 3116 1113 3116 1747 
z
" transform="scale(0.015625)"/>
      <path id="DejaVuSans-2f" d="M 1625 4666 
L 2156 4666 
L 531 -594 
L 0 -594 
L 1625 4666 
z
" transform="scale(0.015625)"/>
      <path id="DejaVuSans-36" d="M 2113 2584 
Q 1688 2584 1439 2293 
Q 1191 2003 1191 1497 
Q 1191 994 1439 701 
Q 1688 409 2113 409 
Q 2538 409 2786 701 
Q 3034 994 3034 1497 
Q 3034 2003 2786 2293 
Q 2538 2584 2113 2584 
z
M 3366 4563 
L 3366 3988 
Q 3128 4100 2886 4159 
Q 2644 4219 2406 4219 
Q 1781 4219 1451 3797 
Q 1122 3375 1075 2522 
Q 1259 2794 1537 2939 
Q 1816 3084 2150 3084 
Q 2853 3084 3261 2657 
Q 3669 2231 3669 1497 
Q 3669 778 3244 343 
Q 2819 -91 2113 -91 
Q 1303 -91 875 529 
Q 447 1150 447 2328 
Q 447 3434 972 4092 
Q 1497 4750 2381 4750 
Q 2619 4750 2861 4703 
Q 3103 4656 3366 4563 
z
" transform="scale(0.015625)"/>
     </defs>
     <use xlink:href="#DejaVuSans-55"/>
     <use xlink:href="#DejaVuSans-56" transform="translate(73.193359 0)"/>
     <use xlink:href="#DejaVuSans-20" transform="translate(141.601562 0)"/>
     <use xlink:href="#DejaVuSans-26" transform="translate(173.388672 0)"/>
     <use xlink:href="#DejaVuSans-20" transform="translate(251.367188 0)"/>
     <use xlink:href="#DejaVuSans-4d" transform="translate(283.154297 0)"/>
     <use xlink:href="#DejaVuSans-53" transform="translate(369.433594 0)"/>
     <use xlink:href="#DejaVuSans-20" transform="translate(432.910156 0)"/>
     <use xlink:href="#DejaVuSans-43" transform="translate(464.697266 0)"/>
     <use xlink:href="#DejaVuSans-68" transform="translate(534.521484 0)"/>
     <use xlink:href="#DejaVuSans-72" transform="translate(597.900391 0)"/>
     <use xlink:href="#DejaVuSans-6f" transform="translate(636.763672 0)"/>
     <use xlink:href="#DejaVuSans-6d" transform="translate(697.945312 0)"/>
     <use xlink:href="#DejaVuSans-61" transform="translate(795.357422 0)"/>
     <use xlink:href="#DejaVuSans-74" transform="translate(856.636719 0)"/>
     <use xlink:href="#DejaVuSans-6f" transform="translate(895.845703 0)"/>
     <use xlink:href="#DejaVuSans-67" transform="translate(957.027344 0)"/>
     <use xlink:href="#DejaVuSans-72" transform="translate(1020.503906 0)"/>
     <use xlink:href="#DejaVuSans-61" transform="translate(1061.617188 0)"/>
     <use xlink:href="#DejaVuSans-6d" transform="translate(1122.896484 0)"/>
     <use xlink:href="#DejaVuSans-73" transform="translate(1220.308594 0)"/>
     <use xlink:href="#DejaVuSans-3a" transform="translate(1272.408203 0)"/>
     <use xlink:href="#DejaVuSans-20" transform="translate(1306.099609 0)"/>
     <use xlink:href="#DejaVuSans-49" transform="translate(1337.886719 0)"/>
     <use xlink:href="#DejaVuSans-72" transform="translate(1367.378906 0)"/>
     <use xlink:href="#DejaVuSans-43" transform="translate(1408.492188 0)"/>
     <use xlink:href="#DejaVuSans-70" transform="translate(1478.316406 0)"/>
     <use xlink:href="#DejaVuSans-32" transform="translate(1541.792969 0)"/>
     <use xlink:href="#DejaVuSans-4d" transform="translate(1605.416016 0)"/>
     <use xlink:href="#DejaVuSans-39" transform="translate(1691.695312 0)"/>
     <use xlink:href="#DejaVuSans-2c" transform="translate(1755.318359 0)"/>
     <use xlink:href="#DejaVuSans-20" transform="translate(1787.105469 0)"/>
     <use xlink:href="#DejaVuSans-74" transform="translate(1818.892578 0)"/>
     <use xlink:href="#DejaVuSans-61" transform="translate(1858.101562 0)"/>
     <use xlink:href="#DejaVuSans-72" transform="translate(1919.380859 0)"/>
     <use xlink:href="#DejaVuSans-67" transform="translate(1958.744141 0)"/>
     <use xlink:href="#DejaVuSans-65" transform="translate(2022.220703 0)"/>
     <use xlink:href="#DejaVuSans-74" transform="translate(2083.744141 0)"/>
     <use xlink:href="#DejaVuSans-20" transform="translate(2122.953125 0)"/>
     <use xlink:href="#DejaVuSans-6d" transform="translate(2154.740234 0)"/>
     <use xlink:href="#DejaVuSans-2f" transform="translate(2252.152344 0)"/>
     <use xlink:href="#DejaVuSans-7a" transform="translate(2285.84375 0)"/>
     <use xlink:href="#DejaVuSans-3d" transform="translate(2338.333984 0)"/>
     <use xlink:href="#DejaVuSans-38" transform="translate(2422.123047 0)"/>
     <use xlink:href="#DejaVuSans-36" transform="translate(2485.746094 0)"/>
     <use xlink:href="#DejaVuSans-39" transform="translate(2549.369141 0)"/>
     <use xlink:href="#DejaVuSans-2e" transform="translate(2612.992188 0)"/>
     <use xlink:href="#DejaVuSans-30" transform="translate(2644.779297 0)"/>
     <use xlink:href="#DejaVuSans-30" transform="translate(2708.402344 0)"/>
     <use xlink:href="#DejaVuSans-38" transform="translate(2772.025391 0)"/>
     <use xlink:href="#DejaVuSans-37" transform="translate(2835.648438 0)"/>
     <use xlink:href="#DejaVuSans-35" transform="translate(2899.271484 0)"/>
     <use xlink:href="#DejaVuSans-34" transform="translate(2962.894531 0)"/>
     <use xlink:href="#DejaVuSans-31" transform="translate(3026.517578 0)"/>
    </g>
   </g>
   <g id="legend_1">
    <g id="patch_8">
     <path d="M 685.971875 64.23625 
L 846.2 64.23625 
Q 848.2 64.23625 848.2 62.23625 
L 848.2 33.88 
Q 848.2 31.88 846.2 31.88 
L 685.971875 31.88 
Q 683.971875 31.88 683.971875 33.88 
L 683.971875 62.23625 
Q 683.971875 64.23625 685.971875 64.23625 
z
" style="fill: #ffffff; opacity: 0.8; stroke: #cccccc; stroke-linejoin: miter"/>
    </g>
    <g id="line2d_15">
     <path d="M 687.971875 39.978437 
L 697.971875 39.978437 
L 707.971875 39.978437 
" style="fill: none; stroke: #0000ff; stroke-width: 1.5; stroke-linecap: square"/>
    </g>
    <g id="text_17">
     <!-- UV Intensity (normalized) -->
     <g transform="translate(715.971875 43.478437) scale(0.1 -0.1)">
      <use xlink:href="#DejaVuSans-55"/>
      <use xlink:href="#DejaVuSans-56" transform="translate(73.193359 0)"/>
      <use xlink:href="#DejaVuSans-20" transform="translate(141.601562 0)"/>
      <use xlink:href="#DejaVuSans-49" transform="translate(173.388672 0)"/>
      <use xlink:href="#DejaVuSans-6e" transform="translate(202.880859 0)"/>
      <use xlink:href="#DejaVuSans-74" transform="translate(266.259766 0)"/>
      <use xlink:href="#DejaVuSans-65" transform="translate(305.46875 0)"/>
      <use xlink:href="#DejaVuSans-6e" transform="translate(366.992188 0)"/>
      <use xlink:href="#DejaVuSans-73" transform="translate(430.371094 0)"/>
      <use xlink:href="#DejaVuSans-69" transform="translate(482.470703 0)"/>
      <use xlink:href="#DejaVuSans-74" transform="translate(510.253906 0)"/>
      <use xlink:href="#DejaVuSans-79" transform="translate(549.462891 0)"/>
      <use xlink:href="#DejaVuSans-20" transform="translate(608.642578 0)"/>
      <use xlink:href="#DejaVuSans-28" transform="translate(640.429688 0)"/>
      <use xlink:href="#DejaVuSans-6e" transform="translate(679.443359 0)"/>
      <use xlink:href="#DejaVuSans-6f" transform="translate(742.822266 0)"/>
      <use xlink:href="#DejaVuSans-72" transform="translate(804.003906 0)"/>
      <use xlink:href="#DejaVuSans-6d" transform="translate(843.367188 0)"/>
      <use xlink:href="#DejaVuSans-61" transform="translate(940.779297 0)"/>
      <use xlink:href="#DejaVuSans-6c" transform="translate(1002.058594 0)"/>
      <use xlink:href="#DejaVuSans-69" transform="translate(1029.841797 0)"/>
      <use xlink:href="#DejaVuSans-7a" transform="translate(1057.625 0)"/>
      <use xlink:href="#DejaVuSans-65" transform="translate(1110.115234 0)"/>
      <use xlink:href="#DejaVuSans-64" transform="translate(1171.638672 0)"/>
      <use xlink:href="#DejaVuSans-29" transform="translate(1235.115234 0)"/>
     </g>
    </g>
    <g id="line2d_16">
     <path d="M 687.971875 54.656562 
L 697.971875 54.656562 
L 707.971875 54.656562 
" style="fill: none; stroke: #008000; stroke-width: 1.5; stroke-linecap: square"/>
    </g>
    <g id="text_18">
     <!-- MS Intensity (normalized) -->
     <g transform="translate(715.971875 58.156562) scale(0.1 -0.1)">
      <use xlink:href="#DejaVuSans-4d"/>
      <use xlink:href="#DejaVuSans-53" transform="translate(86.279297 0)"/>
      <use xlink:href="#DejaVuSans-20" transform="translate(149.755859 0)"/>
      <use xlink:href="#DejaVuSans-49" transform="translate(181.542969 0)"/>
      <use xlink:href="#DejaVuSans-6e" transform="translate(211.035156 0)"/>
      <use xlink:href="#DejaVuSans-74" transform="translate(274.414062 0)"/>
      <use xlink:href="#DejaVuSans-65" transform="translate(313.623047 0)"/>
      <use xlink:href="#DejaVuSans-6e" transform="translate(375.146484 0)"/>
      <use xlink:href="#DejaVuSans-73" transform="translate(438.525391 0)"/>
      <use xlink:href="#DejaVuSans-69" transform="translate(490.625 0)"/>
      <use xlink:href="#DejaVuSans-74" transform="translate(518.408203 0)"/>
      <use xlink:href="#DejaVuSans-79" transform="translate(557.617188 0)"/>
      <use xlink:href="#DejaVuSans-20" transform="translate(616.796875 0)"/>
      <use xlink:href="#DejaVuSans-28" transform="translate(648.583984 0)"/>
      <use xlink:href="#DejaVuSans-6e" transform="translate(687.597656 0)"/>
      <use xlink:href="#DejaVuSans-6f" transform="translate(750.976562 0)"/>
      <use xlink:href="#DejaVuSans-72" transform="translate(812.158203 0)"/>
      <use xlink:href="#DejaVuSans-6d" transform="translate(851.521484 0)"/>
      <use xlink:href="#DejaVuSans-61" transform="translate(948.933594 0)"/>
      <use xlink:href="#DejaVuSans-6c" transform="translate(1010.212891 0)"/>
      <use xlink:href="#DejaVuSans-69" transform="translate(1037.996094 0)"/>
      <use xlink:href="#DejaVuSans-7a" transform="translate(1065.779297 0)"/>
      <use xlink:href="#DejaVuSans-65" transform="translate(1118.269531 0)"/>
      <use xlink:href="#DejaVuSans-64" transform="translate(1179.792969 0)"/>
      <use xlink:href="#DejaVuSans-29" transform="translate(1243.269531 0)"/>
     </g>
    </g>
   </g>
  </g>
 </g>
 <defs>
  <clipPath id="pcb4e68000e">
   <rect x="47.72" y="26.88" width="805.48" height="507.16"/>
  </clipPath>
 </defs>
</svg>
