<?xml version="1.0" encoding="utf-8" standalone="no"?>
<!DOCTYPE svg PUBLIC "-//W3C//DTD SVG 1.1//EN"
  "http://www.w3.org/Graphics/SVG/1.1/DTD/svg11.dtd">
<svg xmlns:xlink="http://www.w3.org/1999/xlink" width="864pt" height="576pt" viewBox="0 0 864 576" xmlns="http://www.w3.org/2000/svg" version="1.1">
 <metadata>
  <rdf:RDF xmlns:dc="http://purl.org/dc/elements/1.1/" xmlns:cc="http://creativecommons.org/ns#" xmlns:rdf="http://www.w3.org/1999/02/22-rdf-syntax-ns#">
   <cc:Work>
    <dc:type rdf:resource="http://purl.org/dc/dcmitype/StillImage"/>
    <dc:date>2025-02-06T15:06:39.691877</dc:date>
    <dc:format>image/svg+xml</dc:format>
    <dc:creator>
     <cc:Agent>
      <dc:title>Matplotlib v3.10.0, https://matplotlib.org/</dc:title>
     </cc:Agent>
    </dc:creator>
   </cc:Work>
  </rdf:RDF>
 </metadata>
 <defs>
  <style type="text/css">*{stroke-linejoin: round; stroke-linecap: butt}</style>
 </defs>
 <g id="figure_1">
  <g id="patch_1">
   <path d="M 0 576 
L 864 576 
L 864 0 
L 0 0 
z
" style="fill: #ffffff"/>
  </g>
  <g id="axes_1">
   <g id="patch_2">
    <path d="M 47.72 534.04 
L 853.2 534.04 
L 853.2 26.88 
L 47.72 26.88 
z
" style="fill: #ffffff"/>
   </g>
   <g id="matplotlib.axis_1">
    <g id="xtick_1">
     <g id="line2d_1">
      <defs>
       <path id="mb8e0d263ea" d="M 0 0 
L 0 3.5 
" style="stroke: #000000; stroke-width: 0.8"/>
      </defs>
      <g>
       <use xlink:href="#mb8e0d263ea" x="83.100486" y="534.04" style="stroke: #000000; stroke-width: 0.8"/>
      </g>
     </g>
     <g id="text_1">
      <!-- 0 -->
      <g transform="translate(79.919236 548.638438) scale(0.1 -0.1)">
       <defs>
        <path id="DejaVuSans-30" d="M 2034 4250 
Q 1547 4250 1301 3770 
Q 1056 3291 1056 2328 
Q 1056 1369 1301 889 
Q 1547 409 2034 409 
Q 2525 409 2770 889 
Q 3016 1369 3016 2328 
Q 3016 3291 2770 3770 
Q 2525 4250 2034 4250 
z
M 2034 4750 
Q 2819 4750 3233 4129 
Q 3647 3509 3647 2328 
Q 3647 1150 3233 529 
Q 2819 -91 2034 -91 
Q 1250 -91 836 529 
Q 422 1150 422 2328 
Q 422 3509 836 4129 
Q 1250 4750 2034 4750 
z
" transform="scale(0.015625)"/>
       </defs>
       <use xlink:href="#DejaVuSans-30"/>
      </g>
     </g>
    </g>
    <g id="xtick_2">
     <g id="line2d_2">
      <g>
       <use xlink:href="#mb8e0d263ea" x="229.795887" y="534.04" style="stroke: #000000; stroke-width: 0.8"/>
      </g>
     </g>
     <g id="text_2">
      <!-- 1 -->
      <g transform="translate(226.614637 548.638438) scale(0.1 -0.1)">
       <defs>
        <path id="DejaVuSans-31" d="M 794 531 
L 1825 531 
L 1825 4091 
L 703 3866 
L 703 4441 
L 1819 4666 
L 2450 4666 
L 2450 531 
L 3481 531 
L 3481 0 
L 794 0 
L 794 531 
z
" transform="scale(0.015625)"/>
       </defs>
       <use xlink:href="#DejaVuSans-31"/>
      </g>
     </g>
    </g>
    <g id="xtick_3">
     <g id="line2d_3">
      <g>
       <use xlink:href="#mb8e0d263ea" x="376.491289" y="534.04" style="stroke: #000000; stroke-width: 0.8"/>
      </g>
     </g>
     <g id="text_3">
      <!-- 2 -->
      <g transform="translate(373.310039 548.638438) scale(0.1 -0.1)">
       <defs>
        <path id="DejaVuSans-32" d="M 1228 531 
L 3431 531 
L 3431 0 
L 469 0 
L 469 531 
Q 828 903 1448 1529 
Q 2069 2156 2228 2338 
Q 2531 2678 2651 2914 
Q 2772 3150 2772 3378 
Q 2772 3750 2511 3984 
Q 2250 4219 1831 4219 
Q 1534 4219 1204 4116 
Q 875 4013 500 3803 
L 500 4441 
Q 881 4594 1212 4672 
Q 1544 4750 1819 4750 
Q 2544 4750 2975 4387 
Q 3406 4025 3406 3419 
Q 3406 3131 3298 2873 
Q 3191 2616 2906 2266 
Q 2828 2175 2409 1742 
Q 1991 1309 1228 531 
z
" transform="scale(0.015625)"/>
       </defs>
       <use xlink:href="#DejaVuSans-32"/>
      </g>
     </g>
    </g>
    <g id="xtick_4">
     <g id="line2d_4">
      <g>
       <use xlink:href="#mb8e0d263ea" x="523.18669" y="534.04" style="stroke: #000000; stroke-width: 0.8"/>
      </g>
     </g>
     <g id="text_4">
      <!-- 3 -->
      <g transform="translate(520.00544 548.638438) scale(0.1 -0.1)">
       <defs>
        <path id="DejaVuSans-33" d="M 2597 2516 
Q 3050 2419 3304 2112 
Q 3559 1806 3559 1356 
Q 3559 666 3084 287 
Q 2609 -91 1734 -91 
Q 1441 -91 1130 -33 
Q 819 25 488 141 
L 488 750 
Q 750 597 1062 519 
Q 1375 441 1716 441 
Q 2309 441 2620 675 
Q 2931 909 2931 1356 
Q 2931 1769 2642 2001 
Q 2353 2234 1838 2234 
L 1294 2234 
L 1294 2753 
L 1863 2753 
Q 2328 2753 2575 2939 
Q 2822 3125 2822 3475 
Q 2822 3834 2567 4026 
Q 2313 4219 1838 4219 
Q 1578 4219 1281 4162 
Q 984 4106 628 3988 
L 628 4550 
Q 988 4650 1302 4700 
Q 1616 4750 1894 4750 
Q 2613 4750 3031 4423 
Q 3450 4097 3450 3541 
Q 3450 3153 3228 2886 
Q 3006 2619 2597 2516 
z
" transform="scale(0.015625)"/>
       </defs>
       <use xlink:href="#DejaVuSans-33"/>
      </g>
     </g>
    </g>
    <g id="xtick_5">
     <g id="line2d_5">
      <g>
       <use xlink:href="#mb8e0d263ea" x="669.882092" y="534.04" style="stroke: #000000; stroke-width: 0.8"/>
      </g>
     </g>
     <g id="text_5">
      <!-- 4 -->
      <g transform="translate(666.700842 548.638438) scale(0.1 -0.1)">
       <defs>
        <path id="DejaVuSans-34" d="M 2419 4116 
L 825 1625 
L 2419 1625 
L 2419 4116 
z
M 2253 4666 
L 3047 4666 
L 3047 1625 
L 3713 1625 
L 3713 1100 
L 3047 1100 
L 3047 0 
L 2419 0 
L 2419 1100 
L 313 1100 
L 313 1709 
L 2253 4666 
z
" transform="scale(0.015625)"/>
       </defs>
       <use xlink:href="#DejaVuSans-34"/>
      </g>
     </g>
    </g>
    <g id="xtick_6">
     <g id="line2d_6">
      <g>
       <use xlink:href="#mb8e0d263ea" x="816.577493" y="534.04" style="stroke: #000000; stroke-width: 0.8"/>
      </g>
     </g>
     <g id="text_6">
      <!-- 5 -->
      <g transform="translate(813.396243 548.638438) scale(0.1 -0.1)">
       <defs>
        <path id="DejaVuSans-35" d="M 691 4666 
L 3169 4666 
L 3169 4134 
L 1269 4134 
L 1269 2991 
Q 1406 3038 1543 3061 
Q 1681 3084 1819 3084 
Q 2600 3084 3056 2656 
Q 3513 2228 3513 1497 
Q 3513 744 3044 326 
Q 2575 -91 1722 -91 
Q 1428 -91 1123 -41 
Q 819 9 494 109 
L 494 744 
Q 775 591 1075 516 
Q 1375 441 1709 441 
Q 2250 441 2565 725 
Q 2881 1009 2881 1497 
Q 2881 1984 2565 2268 
Q 2250 2553 1709 2553 
Q 1456 2553 1204 2497 
Q 953 2441 691 2322 
L 691 4666 
z
" transform="scale(0.015625)"/>
       </defs>
       <use xlink:href="#DejaVuSans-35"/>
      </g>
     </g>
    </g>
    <g id="text_7">
     <!-- Retention Time (min) -->
     <g transform="translate(397.61 562.316562) scale(0.1 -0.1)">
      <defs>
       <path id="DejaVuSans-52" d="M 2841 2188 
Q 3044 2119 3236 1894 
Q 3428 1669 3622 1275 
L 4263 0 
L 3584 0 
L 2988 1197 
Q 2756 1666 2539 1819 
Q 2322 1972 1947 1972 
L 1259 1972 
L 1259 0 
L 628 0 
L 628 4666 
L 2053 4666 
Q 2853 4666 3247 4331 
Q 3641 3997 3641 3322 
Q 3641 2881 3436 2590 
Q 3231 2300 2841 2188 
z
M 1259 4147 
L 1259 2491 
L 2053 2491 
Q 2509 2491 2742 2702 
Q 2975 2913 2975 3322 
Q 2975 3731 2742 3939 
Q 2509 4147 2053 4147 
L 1259 4147 
z
" transform="scale(0.015625)"/>
       <path id="DejaVuSans-65" d="M 3597 1894 
L 3597 1613 
L 953 1613 
Q 991 1019 1311 708 
Q 1631 397 2203 397 
Q 2534 397 2845 478 
Q 3156 559 3463 722 
L 3463 178 
Q 3153 47 2828 -22 
Q 2503 -91 2169 -91 
Q 1331 -91 842 396 
Q 353 884 353 1716 
Q 353 2575 817 3079 
Q 1281 3584 2069 3584 
Q 2775 3584 3186 3129 
Q 3597 2675 3597 1894 
z
M 3022 2063 
Q 3016 2534 2758 2815 
Q 2500 3097 2075 3097 
Q 1594 3097 1305 2825 
Q 1016 2553 972 2059 
L 3022 2063 
z
" transform="scale(0.015625)"/>
       <path id="DejaVuSans-74" d="M 1172 4494 
L 1172 3500 
L 2356 3500 
L 2356 3053 
L 1172 3053 
L 1172 1153 
Q 1172 725 1289 603 
Q 1406 481 1766 481 
L 2356 481 
L 2356 0 
L 1766 0 
Q 1100 0 847 248 
Q 594 497 594 1153 
L 594 3053 
L 172 3053 
L 172 3500 
L 594 3500 
L 594 4494 
L 1172 4494 
z
" transform="scale(0.015625)"/>
       <path id="DejaVuSans-6e" d="M 3513 2113 
L 3513 0 
L 2938 0 
L 2938 2094 
Q 2938 2591 2744 2837 
Q 2550 3084 2163 3084 
Q 1697 3084 1428 2787 
Q 1159 2491 1159 1978 
L 1159 0 
L 581 0 
L 581 3500 
L 1159 3500 
L 1159 2956 
Q 1366 3272 1645 3428 
Q 1925 3584 2291 3584 
Q 2894 3584 3203 3211 
Q 3513 2838 3513 2113 
z
" transform="scale(0.015625)"/>
       <path id="DejaVuSans-69" d="M 603 3500 
L 1178 3500 
L 1178 0 
L 603 0 
L 603 3500 
z
M 603 4863 
L 1178 4863 
L 1178 4134 
L 603 4134 
L 603 4863 
z
" transform="scale(0.015625)"/>
       <path id="DejaVuSans-6f" d="M 1959 3097 
Q 1497 3097 1228 2736 
Q 959 2375 959 1747 
Q 959 1119 1226 758 
Q 1494 397 1959 397 
Q 2419 397 2687 759 
Q 2956 1122 2956 1747 
Q 2956 2369 2687 2733 
Q 2419 3097 1959 3097 
z
M 1959 3584 
Q 2709 3584 3137 3096 
Q 3566 2609 3566 1747 
Q 3566 888 3137 398 
Q 2709 -91 1959 -91 
Q 1206 -91 779 398 
Q 353 888 353 1747 
Q 353 2609 779 3096 
Q 1206 3584 1959 3584 
z
" transform="scale(0.015625)"/>
       <path id="DejaVuSans-20" transform="scale(0.015625)"/>
       <path id="DejaVuSans-54" d="M -19 4666 
L 3928 4666 
L 3928 4134 
L 2272 4134 
L 2272 0 
L 1638 0 
L 1638 4134 
L -19 4134 
L -19 4666 
z
" transform="scale(0.015625)"/>
       <path id="DejaVuSans-6d" d="M 3328 2828 
Q 3544 3216 3844 3400 
Q 4144 3584 4550 3584 
Q 5097 3584 5394 3201 
Q 5691 2819 5691 2113 
L 5691 0 
L 5113 0 
L 5113 2094 
Q 5113 2597 4934 2840 
Q 4756 3084 4391 3084 
Q 3944 3084 3684 2787 
Q 3425 2491 3425 1978 
L 3425 0 
L 2847 0 
L 2847 2094 
Q 2847 2600 2669 2842 
Q 2491 3084 2119 3084 
Q 1678 3084 1418 2786 
Q 1159 2488 1159 1978 
L 1159 0 
L 581 0 
L 581 3500 
L 1159 3500 
L 1159 2956 
Q 1356 3278 1631 3431 
Q 1906 3584 2284 3584 
Q 2666 3584 2933 3390 
Q 3200 3197 3328 2828 
z
" transform="scale(0.015625)"/>
       <path id="DejaVuSans-28" d="M 1984 4856 
Q 1566 4138 1362 3434 
Q 1159 2731 1159 2009 
Q 1159 1288 1364 580 
Q 1569 -128 1984 -844 
L 1484 -844 
Q 1016 -109 783 600 
Q 550 1309 550 2009 
Q 550 2706 781 3412 
Q 1013 4119 1484 4856 
L 1984 4856 
z
" transform="scale(0.015625)"/>
       <path id="DejaVuSans-29" d="M 513 4856 
L 1013 4856 
Q 1481 4119 1714 3412 
Q 1947 2706 1947 2009 
Q 1947 1309 1714 600 
Q 1481 -109 1013 -844 
L 513 -844 
Q 928 -128 1133 580 
Q 1338 1288 1338 2009 
Q 1338 2731 1133 3434 
Q 928 4138 513 4856 
z
" transform="scale(0.015625)"/>
      </defs>
      <use xlink:href="#DejaVuSans-52"/>
      <use xlink:href="#DejaVuSans-65" transform="translate(64.982422 0)"/>
      <use xlink:href="#DejaVuSans-74" transform="translate(126.505859 0)"/>
      <use xlink:href="#DejaVuSans-65" transform="translate(165.714844 0)"/>
      <use xlink:href="#DejaVuSans-6e" transform="translate(227.238281 0)"/>
      <use xlink:href="#DejaVuSans-74" transform="translate(290.617188 0)"/>
      <use xlink:href="#DejaVuSans-69" transform="translate(329.826172 0)"/>
      <use xlink:href="#DejaVuSans-6f" transform="translate(357.609375 0)"/>
      <use xlink:href="#DejaVuSans-6e" transform="translate(418.791016 0)"/>
      <use xlink:href="#DejaVuSans-20" transform="translate(482.169922 0)"/>
      <use xlink:href="#DejaVuSans-54" transform="translate(513.957031 0)"/>
      <use xlink:href="#DejaVuSans-69" transform="translate(571.916016 0)"/>
      <use xlink:href="#DejaVuSans-6d" transform="translate(599.699219 0)"/>
      <use xlink:href="#DejaVuSans-65" transform="translate(697.111328 0)"/>
      <use xlink:href="#DejaVuSans-20" transform="translate(758.634766 0)"/>
      <use xlink:href="#DejaVuSans-28" transform="translate(790.421875 0)"/>
      <use xlink:href="#DejaVuSans-6d" transform="translate(829.435547 0)"/>
      <use xlink:href="#DejaVuSans-69" transform="translate(926.847656 0)"/>
      <use xlink:href="#DejaVuSans-6e" transform="translate(954.630859 0)"/>
      <use xlink:href="#DejaVuSans-29" transform="translate(1018.009766 0)"/>
     </g>
    </g>
   </g>
   <g id="matplotlib.axis_2">
    <g id="ytick_1">
     <g id="line2d_7">
      <defs>
       <path id="m5595d980e3" d="M 0 0 
L -3.5 0 
" style="stroke: #000000; stroke-width: 0.8"/>
      </defs>
      <g>
       <use xlink:href="#m5595d980e3" x="47.72" y="510.987273" style="stroke: #000000; stroke-width: 0.8"/>
      </g>
     </g>
     <g id="text_8">
      <!-- 0.0 -->
      <g style="fill: #0000ff" transform="translate(24.816875 514.786491) scale(0.1 -0.1)">
       <defs>
        <path id="DejaVuSans-2e" d="M 684 794 
L 1344 794 
L 1344 0 
L 684 0 
L 684 794 
z
" transform="scale(0.015625)"/>
       </defs>
       <use xlink:href="#DejaVuSans-30"/>
       <use xlink:href="#DejaVuSans-2e" transform="translate(63.623047 0)"/>
       <use xlink:href="#DejaVuSans-30" transform="translate(95.410156 0)"/>
      </g>
     </g>
    </g>
    <g id="ytick_2">
     <g id="line2d_8">
      <g>
       <use xlink:href="#m5595d980e3" x="47.72" y="418.776364" style="stroke: #000000; stroke-width: 0.8"/>
      </g>
     </g>
     <g id="text_9">
      <!-- 0.5 -->
      <g style="fill: #0000ff" transform="translate(24.816875 422.575582) scale(0.1 -0.1)">
       <use xlink:href="#DejaVuSans-30"/>
       <use xlink:href="#DejaVuSans-2e" transform="translate(63.623047 0)"/>
       <use xlink:href="#DejaVuSans-35" transform="translate(95.410156 0)"/>
      </g>
     </g>
    </g>
    <g id="ytick_3">
     <g id="line2d_9">
      <g>
       <use xlink:href="#m5595d980e3" x="47.72" y="326.565455" style="stroke: #000000; stroke-width: 0.8"/>
      </g>
     </g>
     <g id="text_10">
      <!-- 1.0 -->
      <g style="fill: #0000ff" transform="translate(24.816875 330.364673) scale(0.1 -0.1)">
       <use xlink:href="#DejaVuSans-31"/>
       <use xlink:href="#DejaVuSans-2e" transform="translate(63.623047 0)"/>
       <use xlink:href="#DejaVuSans-30" transform="translate(95.410156 0)"/>
      </g>
     </g>
    </g>
    <g id="ytick_4">
     <g id="line2d_10">
      <g>
       <use xlink:href="#m5595d980e3" x="47.72" y="234.354545" style="stroke: #000000; stroke-width: 0.8"/>
      </g>
     </g>
     <g id="text_11">
      <!-- 1.5 -->
      <g style="fill: #0000ff" transform="translate(24.816875 238.153764) scale(0.1 -0.1)">
       <use xlink:href="#DejaVuSans-31"/>
       <use xlink:href="#DejaVuSans-2e" transform="translate(63.623047 0)"/>
       <use xlink:href="#DejaVuSans-35" transform="translate(95.410156 0)"/>
      </g>
     </g>
    </g>
    <g id="ytick_5">
     <g id="line2d_11">
      <g>
       <use xlink:href="#m5595d980e3" x="47.72" y="142.143636" style="stroke: #000000; stroke-width: 0.8"/>
      </g>
     </g>
     <g id="text_12">
      <!-- 2.0 -->
      <g style="fill: #0000ff" transform="translate(24.816875 145.942855) scale(0.1 -0.1)">
       <use xlink:href="#DejaVuSans-32"/>
       <use xlink:href="#DejaVuSans-2e" transform="translate(63.623047 0)"/>
       <use xlink:href="#DejaVuSans-30" transform="translate(95.410156 0)"/>
      </g>
     </g>
    </g>
    <g id="ytick_6">
     <g id="line2d_12">
      <g>
       <use xlink:href="#m5595d980e3" x="47.72" y="49.932727" style="stroke: #000000; stroke-width: 0.8"/>
      </g>
     </g>
     <g id="text_13">
      <!-- 2.5 -->
      <g style="fill: #0000ff" transform="translate(24.816875 53.731946) scale(0.1 -0.1)">
       <use xlink:href="#DejaVuSans-32"/>
       <use xlink:href="#DejaVuSans-2e" transform="translate(63.623047 0)"/>
       <use xlink:href="#DejaVuSans-35" transform="translate(95.410156 0)"/>
      </g>
     </g>
    </g>
    <g id="text_14">
     <!-- Normalized Intensity -->
     <g style="fill: #0000ff" transform="translate(18.737187 332.167031) rotate(-90) scale(0.1 -0.1)">
      <defs>
       <path id="DejaVuSans-4e" d="M 628 4666 
L 1478 4666 
L 3547 763 
L 3547 4666 
L 4159 4666 
L 4159 0 
L 3309 0 
L 1241 3903 
L 1241 0 
L 628 0 
L 628 4666 
z
" transform="scale(0.015625)"/>
       <path id="DejaVuSans-72" d="M 2631 2963 
Q 2534 3019 2420 3045 
Q 2306 3072 2169 3072 
Q 1681 3072 1420 2755 
Q 1159 2438 1159 1844 
L 1159 0 
L 581 0 
L 581 3500 
L 1159 3500 
L 1159 2956 
Q 1341 3275 1631 3429 
Q 1922 3584 2338 3584 
Q 2397 3584 2469 3576 
Q 2541 3569 2628 3553 
L 2631 2963 
z
" transform="scale(0.015625)"/>
       <path id="DejaVuSans-61" d="M 2194 1759 
Q 1497 1759 1228 1600 
Q 959 1441 959 1056 
Q 959 750 1161 570 
Q 1363 391 1709 391 
Q 2188 391 2477 730 
Q 2766 1069 2766 1631 
L 2766 1759 
L 2194 1759 
z
M 3341 1997 
L 3341 0 
L 2766 0 
L 2766 531 
Q 2569 213 2275 61 
Q 1981 -91 1556 -91 
Q 1019 -91 701 211 
Q 384 513 384 1019 
Q 384 1609 779 1909 
Q 1175 2209 1959 2209 
L 2766 2209 
L 2766 2266 
Q 2766 2663 2505 2880 
Q 2244 3097 1772 3097 
Q 1472 3097 1187 3025 
Q 903 2953 641 2809 
L 641 3341 
Q 956 3463 1253 3523 
Q 1550 3584 1831 3584 
Q 2591 3584 2966 3190 
Q 3341 2797 3341 1997 
z
" transform="scale(0.015625)"/>
       <path id="DejaVuSans-6c" d="M 603 4863 
L 1178 4863 
L 1178 0 
L 603 0 
L 603 4863 
z
" transform="scale(0.015625)"/>
       <path id="DejaVuSans-7a" d="M 353 3500 
L 3084 3500 
L 3084 2975 
L 922 459 
L 3084 459 
L 3084 0 
L 275 0 
L 275 525 
L 2438 3041 
L 353 3041 
L 353 3500 
z
" transform="scale(0.015625)"/>
       <path id="DejaVuSans-64" d="M 2906 2969 
L 2906 4863 
L 3481 4863 
L 3481 0 
L 2906 0 
L 2906 525 
Q 2725 213 2448 61 
Q 2172 -91 1784 -91 
Q 1150 -91 751 415 
Q 353 922 353 1747 
Q 353 2572 751 3078 
Q 1150 3584 1784 3584 
Q 2172 3584 2448 3432 
Q 2725 3281 2906 2969 
z
M 947 1747 
Q 947 1113 1208 752 
Q 1469 391 1925 391 
Q 2381 391 2643 752 
Q 2906 1113 2906 1747 
Q 2906 2381 2643 2742 
Q 2381 3103 1925 3103 
Q 1469 3103 1208 2742 
Q 947 2381 947 1747 
z
" transform="scale(0.015625)"/>
       <path id="DejaVuSans-49" d="M 628 4666 
L 1259 4666 
L 1259 0 
L 628 0 
L 628 4666 
z
" transform="scale(0.015625)"/>
       <path id="DejaVuSans-73" d="M 2834 3397 
L 2834 2853 
Q 2591 2978 2328 3040 
Q 2066 3103 1784 3103 
Q 1356 3103 1142 2972 
Q 928 2841 928 2578 
Q 928 2378 1081 2264 
Q 1234 2150 1697 2047 
L 1894 2003 
Q 2506 1872 2764 1633 
Q 3022 1394 3022 966 
Q 3022 478 2636 193 
Q 2250 -91 1575 -91 
Q 1294 -91 989 -36 
Q 684 19 347 128 
L 347 722 
Q 666 556 975 473 
Q 1284 391 1588 391 
Q 1994 391 2212 530 
Q 2431 669 2431 922 
Q 2431 1156 2273 1281 
Q 2116 1406 1581 1522 
L 1381 1569 
Q 847 1681 609 1914 
Q 372 2147 372 2553 
Q 372 3047 722 3315 
Q 1072 3584 1716 3584 
Q 2034 3584 2315 3537 
Q 2597 3491 2834 3397 
z
" transform="scale(0.015625)"/>
       <path id="DejaVuSans-79" d="M 2059 -325 
Q 1816 -950 1584 -1140 
Q 1353 -1331 966 -1331 
L 506 -1331 
L 506 -850 
L 844 -850 
Q 1081 -850 1212 -737 
Q 1344 -625 1503 -206 
L 1606 56 
L 191 3500 
L 800 3500 
L 1894 763 
L 2988 3500 
L 3597 3500 
L 2059 -325 
z
" transform="scale(0.015625)"/>
      </defs>
      <use xlink:href="#DejaVuSans-4e"/>
      <use xlink:href="#DejaVuSans-6f" transform="translate(74.804688 0)"/>
      <use xlink:href="#DejaVuSans-72" transform="translate(135.986328 0)"/>
      <use xlink:href="#DejaVuSans-6d" transform="translate(175.349609 0)"/>
      <use xlink:href="#DejaVuSans-61" transform="translate(272.761719 0)"/>
      <use xlink:href="#DejaVuSans-6c" transform="translate(334.041016 0)"/>
      <use xlink:href="#DejaVuSans-69" transform="translate(361.824219 0)"/>
      <use xlink:href="#DejaVuSans-7a" transform="translate(389.607422 0)"/>
      <use xlink:href="#DejaVuSans-65" transform="translate(442.097656 0)"/>
      <use xlink:href="#DejaVuSans-64" transform="translate(503.621094 0)"/>
      <use xlink:href="#DejaVuSans-20" transform="translate(567.097656 0)"/>
      <use xlink:href="#DejaVuSans-49" transform="translate(598.884766 0)"/>
      <use xlink:href="#DejaVuSans-6e" transform="translate(628.376953 0)"/>
      <use xlink:href="#DejaVuSans-74" transform="translate(691.755859 0)"/>
      <use xlink:href="#DejaVuSans-65" transform="translate(730.964844 0)"/>
      <use xlink:href="#DejaVuSans-6e" transform="translate(792.488281 0)"/>
      <use xlink:href="#DejaVuSans-73" transform="translate(855.867188 0)"/>
      <use xlink:href="#DejaVuSans-69" transform="translate(907.966797 0)"/>
      <use xlink:href="#DejaVuSans-74" transform="translate(935.75 0)"/>
      <use xlink:href="#DejaVuSans-79" transform="translate(974.958984 0)"/>
     </g>
    </g>
   </g>
   <g id="line2d_13">
    <path d="M 84.332727 510.987273 
L 89.222574 510.902091 
L 95.334882 510.623433 
L 99.002267 509.979827 
L 102.669652 509.7153 
L 108.781961 509.569898 
L 112.449346 509.759773 
L 118.561654 510.114466 
L 125.896424 510.232008 
L 143.010888 510.094378 
L 145.455811 510.036453 
L 146.678273 509.90046 
L 147.900735 508.89653 
L 149.123196 504.256333 
L 150.345658 491.019 
L 151.56812 465.415717 
L 154.013043 392.031444 
L 155.235505 362.935479 
L 156.457966 348.793017 
L 157.680428 350.354696 
L 158.90289 363.914867 
L 163.792736 442.583867 
L 165.015198 455.577207 
L 166.23766 465.079116 
L 167.460121 471.852478 
L 168.682583 476.785286 
L 169.905045 480.551283 
L 171.127506 483.512362 
L 172.349968 485.845969 
L 173.57243 487.69852 
L 177.239815 492.495821 
L 178.462277 494.520025 
L 182.129662 501.17592 
L 183.352123 502.731865 
L 184.574585 503.793494 
L 187.019508 505.61626 
L 188.24197 506.657578 
L 189.464432 507.405644 
L 190.686893 507.498926 
L 191.909355 506.986249 
L 193.131817 506.292597 
L 194.354278 505.852227 
L 195.57674 505.858653 
L 196.799202 506.265416 
L 200.466587 508.130769 
L 201.689048 508.513462 
L 202.91151 508.717394 
L 205.356433 508.789282 
L 210.24628 508.832413 
L 215.136127 508.830447 
L 218.803512 508.549559 
L 221.248435 508.427671 
L 223.693359 508.612688 
L 227.360744 508.964709 
L 232.25059 509.119776 
L 238.362899 509.246733 
L 239.58536 509.168979 
L 240.807822 508.899123 
L 242.030284 508.33775 
L 244.475207 506.640993 
L 245.697669 506.032834 
L 246.920131 505.898388 
L 248.142592 506.232729 
L 251.809977 508.11434 
L 253.032439 508.518714 
L 255.477362 508.911401 
L 262.812132 509.408006 
L 268.924441 509.614073 
L 276.259211 509.576485 
L 284.816443 509.447485 
L 290.928751 508.994792 
L 293.373674 509.000564 
L 295.818598 508.724634 
L 298.263521 508.363308 
L 300.708444 508.264283 
L 303.153368 508.433444 
L 308.043214 509.03688 
L 310.488138 509.146751 
L 312.933061 509.108164 
L 315.377985 508.875103 
L 320.267831 507.988015 
L 321.490293 507.701951 
L 325.157678 506.50479 
L 327.602601 506.534502 
L 328.825063 504.956825 
L 330.047525 497.897607 
L 331.269986 481.669949 
L 333.71491 435.25559 
L 334.937371 423.050875 
L 336.159833 425.152043 
L 337.382295 438.33708 
L 339.827218 472.455483 
L 341.04968 484.760282 
L 342.272141 492.627418 
L 343.494603 497.119501 
L 344.717065 499.557053 
L 345.939526 500.950087 
L 347.161988 501.894135 
L 349.606912 503.391511 
L 352.051835 504.642087 
L 354.496758 505.579706 
L 356.941682 506.241384 
L 359.386605 506.592741 
L 360.609067 506.571733 
L 361.831528 506.38007 
L 363.05399 506.018954 
L 367.943837 504.023088 
L 369.166298 503.794473 
L 370.38876 503.727145 
L 372.833683 503.910359 
L 375.278607 504.125963 
L 377.72353 504.175938 
L 378.945992 504.099624 
L 382.613377 503.479612 
L 383.835839 503.631458 
L 385.0583 504.073451 
L 387.503224 505.169852 
L 388.725685 505.546693 
L 389.948147 505.75842 
L 391.170609 505.769267 
L 392.39307 505.377926 
L 393.615532 504.193674 
L 394.837994 501.915985 
L 396.060455 498.648265 
L 397.282917 494.256642 
L 398.505379 486.2319 
L 399.72784 468.81209 
L 400.950302 437.515912 
L 403.395225 357.211742 
L 404.617687 332.8982 
L 405.840149 326.565455 
L 407.06261 332.806197 
L 408.285072 344.841897 
L 409.507534 359.850567 
L 410.729995 377.903978 
L 414.39738 438.983336 
L 415.619842 454.510577 
L 416.842304 466.050071 
L 418.064766 474.222989 
L 419.287227 479.967646 
L 420.509689 484.127099 
L 421.732151 487.311136 
L 422.954612 489.902369 
L 424.177074 492.101913 
L 425.399536 493.986347 
L 426.621997 495.570466 
L 427.844459 496.867743 
L 430.289382 498.880587 
L 435.179229 502.663776 
L 436.401691 503.246527 
L 437.624152 503.588819 
L 440.069076 503.917438 
L 443.736461 504.276719 
L 447.403846 504.319171 
L 449.848769 504.469016 
L 455.961078 505.26367 
L 459.628463 505.651644 
L 464.518309 506.270008 
L 470.630618 506.79948 
L 471.853079 506.498101 
L 473.075541 504.729942 
L 474.298003 499.818877 
L 475.520464 491.415926 
L 476.742926 482.096991 
L 477.965388 475.938694 
L 479.187849 475.353472 
L 480.410311 479.690306 
L 482.855234 492.982845 
L 484.077696 498.01165 
L 485.300158 501.235503 
L 486.52262 503.048153 
L 487.745081 503.99539 
L 488.967543 504.510259 
L 491.412466 505.143324 
L 493.85739 505.665892 
L 495.079851 505.846554 
L 496.302313 505.874446 
L 497.524775 505.576983 
L 498.747236 504.757035 
L 501.19216 502.153738 
L 502.414621 501.486591 
L 503.637083 501.785761 
L 504.859545 502.870395 
L 507.304468 505.55382 
L 508.52693 506.504176 
L 509.749391 507.097687 
L 510.971853 507.412286 
L 513.416776 507.620616 
L 517.084161 507.907462 
L 521.974008 508.348679 
L 529.308778 508.685314 
L 534.198625 508.578833 
L 542.755857 508.578211 
L 553.758012 508.601535 
L 564.760167 508.935713 
L 576.984784 509.076987 
L 586.764477 509.16942 
L 592.876786 509.093452 
L 595.321709 508.738158 
L 597.766632 508.318538 
L 598.989094 508.27432 
L 601.434017 508.527 
L 605.101402 508.961173 
L 609.991249 509.128341 
L 623.438328 509.281496 
L 631.995559 509.33875 
L 657.667255 509.76606 
L 667.446948 509.581852 
L 678.449103 509.75919 
L 687.006335 509.692093 
L 712.67803 509.985963 
L 721.235262 509.980027 
L 733.459879 509.993587 
L 739.572187 510.07607 
L 746.906957 510.137763 
L 761.576497 510.295235 
L 773.801114 510.239625 
L 786.025731 510.334722 
L 811.697426 510.370138 
L 816.587273 510.303806 
L 816.587273 510.303806 
" clip-path="url(#pd27817b5bd)" style="fill: none; stroke: #0000ff; stroke-width: 1.5; stroke-linecap: square"/>
   </g>
   <g id="line2d_14">
    <path d="M 90.347483 234.330512 
L 167.407067 234.313112 
L 179.31042 234.235325 
L 233.238584 234.317795 
L 253.568366 234.324772 
L 332.127176 234.124197 
L 332.127176 233.697622 
L 332.472644 233.552392 
L 332.472644 232.426548 
L 332.818601 232.208133 
L 332.818601 230.652835 
L 333.162113 230.689514 
L 333.162113 228.211123 
L 333.504646 228.948566 
L 333.504646 226.978304 
L 333.846202 228.221011 
L 333.846202 225.911879 
L 334.182624 228.018993 
L 334.182624 225.718214 
L 334.5166 227.585946 
L 334.5166 225.206735 
L 334.848132 227.520467 
L 334.848132 225.304011 
L 335.178685 227.088163 
L 335.178685 224.817314 
L 335.51584 227.245121 
L 335.51584 224.433423 
L 335.845416 226.850669 
L 335.845416 224.808012 
L 336.174747 226.985277 
L 336.174747 224.572566 
L 336.503589 227.15723 
L 336.503589 224.588678 
L 336.83292 227.110324 
L 336.83292 225.257026 
L 337.161518 227.494661 
L 337.161518 225.3766 
L 337.490849 227.679647 
L 337.490849 225.353213 
L 337.819692 227.215241 
L 337.819692 224.562394 
L 338.148778 226.710955 
L 338.148778 224.753033 
L 338.478109 227.097646 
L 338.478109 224.676167 
L 338.807196 227.421049 
L 338.807196 225.052143 
L 339.136772 227.104186 
L 339.136772 224.408426 
L 339.466347 226.998393 
L 339.466347 224.628965 
L 339.796412 227.056525 
L 339.796412 224.528107 
L 340.126477 226.873194 
L 340.126477 224.338698 
L 340.462654 226.577486 
L 340.462654 224.248617 
L 340.79663 226.679348 
L 340.79663 224.483483 
L 341.127673 226.931067 
L 341.127673 224.871702 
L 341.45896 227.127774 
L 341.45896 224.977552 
L 341.790736 227.515775 
L 341.790736 225.144599 
L 342.122512 227.232517 
L 342.122512 225.075763 
L 342.455022 227.454671 
L 342.455022 224.885036 
L 342.787287 227.200871 
L 342.787287 225.260822 
L 343.120041 227.451009 
L 343.120041 225.115462 
L 343.453528 227.653236 
L 343.453528 225.345315 
L 343.78726 227.339175 
L 343.78726 225.444065 
L 344.120748 227.619507 
L 344.120748 225.267738 
L 344.454969 227.50004 
L 344.454969 225.238049 
L 344.78919 227.215345 
L 344.78919 224.994317 
L 345.1239 227.349688 
L 345.1239 225.338057 
L 345.465456 227.716191 
L 345.465456 225.864061 
L 345.800655 228.217115 
L 345.800655 225.990864 
L 346.136098 228.169907 
L 346.136098 226.040117 
L 346.47252 227.898877 
L 346.47252 225.5648 
L 346.810408 227.813002 
L 346.810408 225.588244 
L 347.147563 227.752566 
L 347.147563 225.985208 
L 347.484963 228.186345 
L 347.484963 225.914748 
L 347.824318 228.133085 
L 347.824318 226.149087 
L 348.164162 227.876322 
L 348.164162 226.361691 
L 348.503518 228.780585 
L 348.503518 227.059631 
L 348.843117 229.017308 
L 348.843117 227.486863 
L 349.182717 229.042658 
L 349.182717 227.326408 
L 349.527207 228.999795 
L 349.527207 227.204164 
L 349.867785 228.830261 
L 349.867785 226.987701 
L 350.20983 228.528164 
L 350.20983 226.981854 
L 350.556764 228.765078 
L 350.556764 227.205737 
L 350.899298 229.037378 
L 350.899298 227.566252 
L 351.241832 229.191743 
L 351.241832 227.532832 
L 351.584366 229.01612 
L 351.584366 227.460679 
L 351.926655 229.029768 
L 351.926655 227.514899 
L 352.269433 229.256897 
L 352.269433 227.813964 
L 352.611967 229.340376 
L 352.611967 228.102662 
L 352.95499 229.665498 
L 352.95499 228.08779 
L 353.298012 229.668773 
L 353.298012 228.375366 
L 353.640791 229.705182 
L 353.640791 228.275462 
L 353.983569 229.786686 
L 353.983569 228.20399 
L 354.326347 229.740971 
L 354.326347 228.090208 
L 354.66937 229.417585 
L 354.66937 228.003009 
L 355.012393 229.590131 
L 355.012393 228.120081 
L 355.35566 229.666906 
L 355.35566 228.279002 
L 355.704306 229.822173 
L 355.704306 228.316942 
L 356.047818 229.798615 
L 356.047818 228.593221 
L 356.391085 230.076867 
L 356.391085 228.536724 
L 356.734597 230.139442 
L 356.734597 228.71588 
L 357.078108 229.877532 
L 357.078108 228.588999 
L 357.42162 230.114608 
L 357.42162 228.796709 
L 357.765132 230.042997 
L 357.765132 228.886266 
L 358.108644 230.270493 
L 358.108644 228.961497 
L 358.4524 230.246907 
L 358.4524 229.071642 
L 358.795911 230.328598 
L 358.795911 229.050545 
L 359.139912 230.323857 
L 359.139912 229.102489 
L 359.483913 230.438504 
L 359.483913 229.06605 
L 359.827914 230.302957 
L 359.827914 229.218462 
L 360.171914 230.508875 
L 360.171914 229.450543 
L 360.515915 230.828512 
L 360.515915 229.526114 
L 360.865539 230.641768 
L 360.865539 229.676069 
L 361.209295 230.800795 
L 361.209295 229.588077 
L 361.553785 230.90923 
L 361.553785 229.792161 
L 361.901698 230.676161 
L 361.901698 229.563143 
L 362.246187 230.777483 
L 362.246187 229.880279 
L 362.590188 231.022288 
L 362.590188 229.805962 
L 362.934189 230.933491 
L 362.934189 229.960162 
L 363.278434 230.887285 
L 363.278434 230.164794 
L 363.622924 231.495314 
L 363.622924 230.626895 
L 363.967413 231.679034 
L 363.967413 230.78729 
L 364.311659 231.554343 
L 364.311659 230.599883 
L 364.655904 231.549108 
L 364.655904 230.773998 
L 365.000149 231.635161 
L 365.000149 230.764479 
L 365.344394 231.753551 
L 365.344394 230.909957 
L 365.688639 231.737282 
L 365.688639 230.866428 
L 366.038019 231.759662 
L 366.038019 230.894457 
L 366.381775 231.740589 
L 366.381775 231.098381 
L 366.725531 232.079853 
L 366.725531 231.38462 
L 367.068799 232.260187 
L 367.068799 231.716924 
L 367.412799 232.379687 
L 367.412799 231.8409 
L 367.756311 232.576679 
L 367.756311 232.054888 
L 368.100067 232.6459 
L 368.100067 232.218752 
L 368.443579 232.782396 
L 368.443579 232.456199 
L 368.783912 233.027751 
L 368.783912 232.576119 
L 369.127913 233.107268 
L 369.127913 232.679529 
L 369.469713 233.042222 
L 369.469713 232.519389 
L 369.812736 232.95496 
L 369.812736 232.37966 
L 370.151847 232.742148 
L 370.151847 232.453574 
L 370.827624 232.451433 
L 370.827624 232.487747 
L 371.172358 232.582269 
L 371.172358 232.438681 
L 371.51318 232.981106 
L 371.51318 232.518661 
L 371.852536 232.949966 
L 371.852536 232.446683 
L 372.193113 232.84155 
L 372.193113 232.372407 
L 372.533691 232.827363 
L 372.533691 232.388802 
L 372.876959 232.887901 
L 372.876959 232.465199 
L 373.220226 232.890913 
L 373.220226 232.429162 
L 373.563249 232.917986 
L 373.563249 232.322643 
L 373.906516 232.766112 
L 373.906516 232.320482 
L 374.249783 232.769515 
L 374.249783 232.24942 
L 374.59305 232.771978 
L 374.59305 232.307975 
L 374.936317 232.786964 
L 374.936317 232.310881 
L 375.279096 232.816476 
L 375.279096 232.311612 
L 375.622363 232.773469 
L 375.622363 232.178432 
L 375.965875 232.666827 
L 375.965875 232.166034 
L 376.31501 232.754656 
L 376.31501 232.248813 
L 376.659988 232.819548 
L 376.659988 232.395128 
L 377.0035 232.914588 
L 377.0035 232.389212 
L 377.347256 232.902604 
L 377.347256 232.369514 
L 377.691013 232.797265 
L 377.691013 232.337726 
L 378.034524 232.818745 
L 378.034524 232.399153 
L 378.378281 232.93676 
L 378.378281 232.511757 
L 378.722037 232.973031 
L 378.722037 232.500321 
L 379.06506 232.374609 
L 379.408571 232.383669 
L 379.408571 232.284631 
L 379.752328 232.248227 
L 379.752328 232.260329 
L 380.095839 232.794437 
L 380.095839 232.387117 
L 380.439351 232.859625 
L 380.439351 232.398062 
L 380.782863 232.878583 
L 380.782863 232.35379 
L 381.126619 232.74967 
L 381.126619 232.364991 
L 381.475754 232.846859 
L 381.475754 232.279065 
L 381.81951 232.814082 
L 381.81951 232.414385 
L 382.163022 232.854012 
L 382.163022 232.46978 
L 382.507023 232.980005 
L 382.507023 232.532035 
L 382.851023 232.929052 
L 382.851023 232.538465 
L 383.198691 232.955641 
L 383.198691 232.501308 
L 383.541959 232.908732 
L 383.541959 232.528987 
L 383.88547 232.898824 
L 383.88547 232.539935 
L 384.228738 232.994363 
L 384.228738 232.578121 
L 384.572005 232.361136 
L 384.915517 232.386198 
L 384.915517 232.374764 
L 385.259028 231.935237 
L 385.602296 232.396945 
L 385.602296 232.62727 
L 385.945563 232.689424 
L 385.945563 232.594798 
L 386.289075 233.093306 
L 386.289075 232.642597 
L 386.637965 233.021268 
L 386.637965 232.5598 
L 386.981232 232.935769 
L 386.981232 232.557313 
L 387.324744 233.028425 
L 387.324744 232.675625 
L 387.668011 233.05879 
L 387.668011 232.755648 
L 388.011279 233.108964 
L 388.011279 232.69226 
L 388.373372 233.066298 
L 388.373372 232.670435 
L 388.716639 233.064442 
L 388.716639 232.50077 
L 389.059662 232.899614 
L 389.059662 232.414693 
L 389.403173 232.82863 
L 389.403173 232.312043 
L 389.746685 232.853559 
L 389.746685 232.422576 
L 390.090197 232.910261 
L 390.090197 232.587357 
L 390.433709 233.084396 
L 390.433709 232.769831 
L 390.776976 233.199004 
L 390.776976 232.788837 
L 391.120488 233.072025 
L 391.120488 232.790854 
L 391.464244 233.144224 
L 391.464244 232.795058 
L 391.813134 233.16906 
L 391.813134 232.685806 
L 392.156891 232.944917 
L 392.156891 232.448235 
L 392.500647 232.786868 
L 392.500647 232.420662 
L 392.849048 232.949409 
L 392.849048 232.567009 
L 393.193049 233.060158 
L 393.193049 232.726017 
L 393.53705 233.097793 
L 393.53705 232.588337 
L 393.881051 232.985561 
L 393.881051 232.633642 
L 394.224807 232.973713 
L 394.224807 232.601701 
L 394.568563 233.113133 
L 394.568563 232.784574 
L 394.912808 233.16166 
L 394.912808 232.794812 
L 395.256809 233.195868 
L 395.256809 232.831311 
L 395.600565 233.160434 
L 395.600565 232.87481 
L 395.944566 233.299859 
L 395.944566 232.959688 
L 396.289789 233.310458 
L 396.289789 232.93977 
L 396.633545 233.212834 
L 396.633545 232.898266 
L 396.982191 233.270729 
L 396.982191 232.906795 
L 397.325214 233.345479 
L 397.325214 233.018015 
L 397.667503 232.815174 
L 398.009793 233.223263 
L 398.009793 232.898339 
L 398.347926 233.280646 
L 398.683858 233.344335 
L 398.683858 232.912204 
L 399.019302 233.183678 
L 399.019302 232.890496 
L 399.352789 233.270244 
L 399.352789 232.968558 
L 399.686521 233.425263 
L 399.686521 233.175476 
L 400.019275 233.53044 
L 400.019275 233.056555 
L 400.351785 233.318993 
L 400.351785 232.888309 
L 401.015826 232.80727 
L 401.015826 232.938881 
L 401.347113 233.088635 
L 401.679867 233.424595 
L 401.679867 233.211219 
L 402.353199 233.230582 
L 402.353199 233.413666 
L 402.68522 233.379971 
L 402.68522 233.41817 
L 403.017974 233.736845 
L 403.017974 233.559618 
L 403.678348 233.768641 
L 404.006701 233.674612 
L 404.006701 233.851237 
L 405.975597 233.790789 
L 406.302973 233.85993 
L 407.290722 233.8101 
L 408.600712 234.081486 
L 408.600712 234.027657 
L 409.584549 234.000471 
L 411.552468 233.600213 
L 411.885222 233.762141 
L 412.212597 233.572533 
L 412.867592 233.583299 
L 413.523076 233.482803 
L 413.850696 233.298899 
L 414.178315 233.514249 
L 414.506913 233.320241 
L 415.491484 233.812917 
L 416.476543 233.302127 
L 416.476543 233.448635 
L 416.81052 233.390313 
L 416.81052 233.50147 
L 417.138873 233.792419 
L 417.796802 233.84001 
L 418.125644 233.662966 
L 418.45522 233.781746 
L 418.784062 233.74752 
L 419.112904 233.612589 
L 419.446636 233.798315 
L 419.446636 233.699646 
L 420.106766 233.573139 
L 422.424797 233.864562 
L 422.424797 233.697428 
L 422.755351 233.698706 
L 423.086149 233.43574 
L 423.086149 233.654243 
L 423.747501 233.764728 
L 423.747501 233.928109 
L 424.078543 233.752676 
L 425.736446 233.724349 
L 425.736446 233.822279 
L 426.068222 233.937705 
L 426.400243 233.774119 
L 426.73862 233.878058 
L 426.73862 233.741758 
L 427.402661 233.609922 
L 427.735904 233.770387 
L 427.735904 233.639602 
L 428.068169 233.652979 
L 428.068169 233.84373 
L 428.737345 233.806623 
L 428.737345 233.872479 
L 428.737345 234.002838 
L 429.069855 233.909438 
L 429.40432 233.978246 
L 429.738541 233.870273 
L 430.07154 233.951038 
L 430.07154 233.802635 
L 430.404783 233.881914 
L 430.404783 233.833187 
L 431.405245 233.776999 
L 432.078577 233.67024 
L 432.078577 233.72616 
L 432.412798 233.593602 
L 433.082707 233.824136 
L 433.082707 233.77363 
L 434.087815 233.927055 
L 435.434968 233.718614 
L 436.111967 233.641335 
L 436.111967 233.644897 
L 436.795568 233.97178 
L 436.795568 233.874375 
L 437.808744 233.690541 
L 437.808744 233.738347 
L 438.484521 233.996446 
L 438.484521 233.85042 
L 438.824365 233.903403 
L 438.824365 233.706265 
L 439.162743 233.817321 
L 439.162743 233.680405 
L 439.162743 233.800929 
L 439.504787 233.638074 
L 439.845121 233.828177 
L 439.845121 233.626032 
L 440.186921 233.614952 
L 440.186921 233.65598 
L 440.86392 233.929088 
L 441.205721 233.84324 
L 441.893967 233.884626 
L 441.893967 233.873783 
L 443.255789 233.690183 
L 443.255789 233.753541 
L 443.596611 233.751601 
L 443.596611 233.811195 
L 443.938656 233.983679 
L 443.938656 233.897352 
L 446.666946 233.680022 
L 446.666946 233.689102 
L 447.013392 233.524854 
L 447.698459 233.768041 
L 448.041237 233.884518 
L 450.77784 233.855299 
L 451.462419 234.011613 
L 451.462419 233.890845 
L 452.497844 233.798017 
L 452.840377 233.970058 
L 452.840377 233.866505 
L 454.217114 234.035411 
L 454.217114 233.943437 
L 454.559892 234.024677 
L 454.559892 233.909856 
L 455.58896 233.825176 
L 455.58896 233.836755 
L 455.931983 233.975943 
L 455.931983 233.852007 
L 457.995254 233.968071 
L 457.995254 233.834794 
L 459.369056 233.702909 
L 460.398369 234.027881 
L 460.398369 233.924569 
L 460.741636 233.995515 
L 460.741636 233.874537 
L 460.741636 233.909301 
L 462.137932 233.788101 
L 462.829845 233.994513 
L 462.829845 233.906253 
L 463.173112 234.038683 
L 463.173112 233.925187 
L 463.51638 234.006403 
L 463.51638 233.881951 
L 464.203159 233.969688 
L 464.203159 233.849965 
L 464.546426 233.977849 
L 464.546426 233.951888 
L 465.576961 233.80921 
L 465.920473 233.624608 
L 466.951253 233.989943 
L 466.951253 233.970466 
L 467.644388 233.976516 
L 467.644388 233.947252 
L 468.331167 233.733854 
L 468.674679 233.879768 
L 468.674679 233.73528 
L 469.361947 233.892174 
L 469.705459 233.752187 
L 470.048726 233.916212 
L 470.048726 233.785493 
L 471.428641 233.887119 
L 471.428641 233.886557 
L 471.772152 233.715825 
L 472.459665 233.856262 
L 472.459665 233.815924 
L 472.808555 233.958799 
L 472.808555 233.836254 
L 473.496068 233.947823 
L 473.496068 233.855672 
L 473.840313 233.947448 
L 473.840313 233.829827 
L 474.184314 233.941797 
L 474.184314 233.820384 
L 474.528315 233.948676 
L 474.528315 233.822213 
L 474.872315 233.945375 
L 474.872315 233.759205 
L 475.215827 233.909231 
L 475.215827 233.617665 
L 475.559583 233.622902 
L 475.559583 232.899959 
L 475.903339 232.721157 
L 475.903339 230.871882 
L 476.246851 230.193556 
L 476.246851 225.737407 
L 476.589874 224.632403 
L 476.589874 217.21976 
L 476.932408 215.857574 
L 476.932408 203.925856 
L 477.272008 204.214259 
L 477.272008 186.63824 
L 477.605495 189.826949 
L 477.605495 165.267447 
L 477.942894 172.565927 
L 477.942894 141.371928 
L 478.277849 150.929008 
L 478.277849 116.175333 
L 478.607914 133.654096 
L 478.607914 91.12038 
L 478.937734 114.39441 
L 478.937734 71.486333 
L 479.267065 102.668569 
L 479.267065 58.722508 
L 479.595663 94.478046 
L 479.595663 49.932727 
L 479.924505 90.422832 
L 479.924505 50.453037 
L 480.253103 90.992415 
L 480.253103 51.03523 
L 480.581456 94.108629 
L 480.581456 53.846046 
L 480.910298 90.11068 
L 480.910298 55.167233 
L 481.239385 99.195946 
L 481.239385 58.165912 
L 481.569694 103.433322 
L 481.569694 69.267369 
L 481.89878 107.947142 
L 481.89878 76.311183 
L 482.227867 120.584144 
L 482.227867 89.082702 
L 482.556709 125.537378 
L 482.556709 98.051904 
L 482.893131 128.874275 
L 482.893131 105.263998 
L 483.222462 135.837036 
L 483.222462 114.624553 
L 483.552771 144.330493 
L 483.552771 123.196468 
L 483.882836 150.36686 
L 483.882836 128.234917 
L 484.213634 152.747178 
L 484.213634 133.591941 
L 484.544188 158.457409 
L 484.544188 139.506914 
L 484.87523 163.921929 
L 484.87523 148.050555 
L 485.206762 169.837962 
L 485.206762 151.404887 
L 485.538538 171.808618 
L 485.538538 155.857768 
L 485.870314 173.255434 
L 485.870314 157.367151 
L 486.202824 176.675367 
L 486.202824 162.395101 
L 486.534355 180.037466 
L 486.534355 165.033585 
L 486.86662 181.134927 
L 486.86662 168.021966 
L 487.203531 184.232805 
L 487.203531 171.454162 
L 487.536285 188.56634 
L 487.536285 176.576049 
L 487.875396 191.557694 
L 487.875396 177.665092 
L 488.209617 191.232874 
L 488.209617 178.725664 
L 488.543104 192.121206 
L 488.543104 180.513135 
L 488.876592 194.268103 
L 488.876592 184.8389 
L 489.211057 197.021326 
L 489.211057 187.606587 
L 489.546745 199.741819 
L 489.546745 190.429657 
L 489.882922 200.760566 
L 489.882922 191.877692 
L 490.218855 201.988426 
L 490.218855 191.892286 
L 490.554543 202.929896 
L 490.554543 194.507118 
L 490.889008 204.182653 
L 490.889008 197.410647 
L 491.226897 207.37987 
L 491.226897 200.552706 
L 491.563562 210.133987 
L 491.563562 203.205166 
L 491.89925 211.469147 
L 491.89925 204.891048 
L 492.23885 211.978975 
L 492.23885 205.606252 
L 492.578695 213.340334 
L 492.578695 207.108375 
L 492.921962 214.343043 
L 492.921962 208.610983 
L 493.262051 214.681805 
L 493.262051 209.346729 
L 493.601406 215.701323 
L 493.601406 210.567711 
L 493.940272 216.808875 
L 493.940272 211.716998 
L 494.280117 216.896334 
L 494.280117 212.023453 
L 494.627785 217.749243 
L 494.627785 213.08864 
L 494.968607 218.967924 
L 494.968607 214.584455 
L 495.311141 219.525 
L 495.311141 215.473844 
L 495.653919 220.465042 
L 495.653919 216.182676 
L 495.999142 221.199078 
L 495.999142 217.718902 
L 496.341676 222.09562 
L 496.341676 218.305223 
L 496.684454 222.515985 
L 496.684454 219.131948 
L 497.027477 223.027295 
L 497.027477 219.408538 
L 497.370255 223.289814 
L 497.370255 220.197294 
L 497.712789 223.824393 
L 497.712789 220.585366 
L 498.060702 223.99523 
L 498.060702 221.303783 
L 498.403236 224.611736 
L 498.403236 221.587737 
L 498.746014 224.994888 
L 498.746014 222.274085 
L 499.088792 225.281202 
L 499.088792 222.425936 
L 499.431326 225.579406 
L 499.431326 222.977706 
L 499.774104 226.077699 
L 499.774104 223.494302 
L 500.116882 226.551995 
L 500.116882 224.417639 
L 500.459416 226.947659 
L 500.459416 224.927223 
L 500.802194 227.499468 
L 500.802194 225.472322 
L 501.144973 227.656957 
L 501.144973 225.862384 
L 501.486773 228.112168 
L 501.486773 226.440544 
L 501.828818 228.738056 
L 501.828818 227.122311 
L 502.168418 229.189752 
L 502.168418 227.399487 
L 502.50924 229.138746 
L 502.50924 227.281678 
L 502.848106 229.116146 
L 502.848106 227.820421 
L 503.189418 229.388278 
L 503.189418 227.996153 
L 503.524861 229.85131 
L 503.524861 228.433955 
L 503.861038 229.67764 
L 503.861038 228.653125 
L 504.195015 230.114844 
L 504.195015 228.711862 
L 504.529969 230.130412 
L 504.529969 229.152565 
L 504.862968 230.478941 
L 504.862968 229.343114 
L 505.198167 230.779906 
L 505.198167 229.836195 
L 505.538011 231.004176 
L 505.538011 229.872117 
L 505.871498 231.054176 
L 505.871498 229.936598 
L 506.206697 230.987734 
L 506.206697 229.76173 
L 506.542385 230.87944 
L 506.542385 229.885778 
L 506.879785 231.037803 
L 506.879785 230.024016 
L 507.215473 231.197297 
L 507.215473 230.248261 
L 507.552872 231.356451 
L 507.552872 230.409255 
L 507.888805 231.282523 
L 507.888805 230.457318 
L 508.232805 231.415581 
L 508.232805 230.430387 
L 508.570694 231.437501 
L 508.570694 230.578335 
L 508.910783 231.458321 
L 508.910783 230.538999 
L 509.250383 231.495698 
L 509.250383 230.552253 
L 509.591938 231.524955 
L 509.591938 230.573594 
L 509.934961 231.491627 
L 509.934961 230.677009 
L 510.277984 231.598161 
L 510.277984 230.757719 
L 510.621251 231.733301 
L 510.621251 230.875492 
L 510.964518 231.717864 
L 510.964518 231.03185 
L 511.307541 231.865143 
L 511.307541 231.171137 
L 511.650808 232.089902 
L 511.650808 231.154159 
L 511.99432 231.883311 
L 511.99432 231.227124 
L 512.681099 231.072812 
L 512.681099 231.276203 
L 513.024611 231.165937 
L 513.373012 231.933539 
L 513.373012 231.172942 
L 513.716769 231.837315 
L 513.716769 231.195941 
L 514.06517 231.993417 
L 514.06517 231.378584 
L 514.408682 232.203652 
L 514.408682 231.630053 
L 514.752194 232.311374 
L 514.752194 231.532016 
L 515.095705 232.167388 
L 515.095705 231.562163 
L 515.439462 232.224514 
L 515.439462 231.61258 
L 515.782973 232.305827 
L 515.782973 231.725355 
L 516.126485 232.287336 
L 516.126485 231.812817 
L 516.470241 232.41171 
L 516.470241 231.913565 
L 516.813508 232.618202 
L 516.813508 232.151733 
L 517.15702 232.640549 
L 517.15702 232.118565 
L 517.500776 232.685171 
L 517.500776 232.01082 
L 517.844533 232.540143 
L 517.844533 232.055574 
L 518.188533 232.633093 
L 518.188533 232.14602 
L 518.537668 232.801629 
L 518.537668 232.145974 
L 518.881425 232.609117 
L 518.881425 231.984149 
L 519.22567 232.477159 
L 519.22567 231.921593 
L 519.569182 232.546608 
L 519.569182 232.059527 
L 519.912938 232.695461 
L 519.912938 232.169886 
L 520.256939 232.65834 
L 520.256939 232.164348 
L 520.600939 232.630955 
L 520.600939 232.099724 
L 520.944695 232.671121 
L 520.944695 232.184671 
L 521.288941 232.664708 
L 521.288941 232.188102 
L 521.632941 232.703362 
L 521.632941 232.182391 
L 521.976942 232.711945 
L 521.976942 232.236182 
L 522.320943 232.772457 
L 522.320943 232.328593 
L 522.665188 232.84105 
L 522.665188 232.470723 
L 523.009678 233.019336 
L 523.009678 232.564007 
L 523.353923 232.975901 
L 523.353923 232.548193 
L 523.703547 232.915935 
L 523.703547 232.413572 
L 524.047792 232.874511 
L 524.047792 232.564725 
L 524.391793 232.973788 
L 524.391793 232.512612 
L 524.736038 233.020729 
L 524.736038 232.453132 
L 525.080283 232.791587 
L 525.080283 232.263691 
L 525.424529 232.716675 
L 525.424529 232.327005 
L 525.769018 232.889791 
L 525.769018 232.384394 
L 526.117664 232.892488 
L 526.117664 232.435988 
L 526.463376 232.837334 
L 526.463376 232.390376 
L 526.807377 232.919324 
L 526.807377 232.565063 
L 527.151867 233.057293 
L 527.151867 232.511454 
L 527.496112 232.920683 
L 527.496112 232.605314 
L 527.840602 232.977227 
L 527.840602 232.639595 
L 528.184847 233.165518 
L 528.184847 232.738913 
L 528.529092 233.038909 
L 528.529092 232.629844 
L 528.879939 232.944578 
L 528.879939 232.701277 
L 529.224428 233.209893 
L 529.224428 232.893422 
L 529.568674 233.320152 
L 529.568674 233.012274 
L 529.913163 233.222596 
L 529.913163 232.865487 
L 530.257653 233.214688 
L 530.257653 232.870575 
L 530.602143 233.13694 
L 530.602143 232.779142 
L 530.946632 233.131424 
L 530.946632 232.815162 
L 531.291122 233.173719 
L 531.291122 232.820651 
L 531.635856 233.189522 
L 531.635856 232.858386 
L 531.980346 233.187065 
L 531.980346 232.867006 
L 532.324836 233.269345 
L 532.324836 232.967209 
L 532.66957 233.276278 
L 532.66957 232.93168 
L 533.01406 233.267195 
L 533.01406 232.885294 
L 533.358794 233.205203 
L 533.358794 232.805681 
L 533.703039 233.13233 
L 533.703039 232.733744 
L 534.053152 233.11033 
L 534.053152 232.701222 
L 534.397642 233.068187 
L 534.397642 232.863882 
L 534.741887 233.23126 
L 534.741887 232.908446 
L 535.086621 233.335535 
L 535.086621 233.067589 
L 535.436001 233.278679 
L 535.436001 233.042891 
L 535.78049 233.364348 
L 535.78049 233.085308 
L 536.12498 233.352131 
L 536.12498 232.982354 
L 536.46947 233.208203 
L 536.46947 232.952385 
L 536.813959 233.243631 
L 536.813959 233.054876 
L 537.158449 233.410991 
L 537.158449 233.173112 
L 537.502694 233.459359 
L 537.502694 233.139245 
L 537.847184 233.352957 
L 537.847184 233.02401 
L 538.191674 233.277746 
L 538.191674 232.853968 
L 538.536408 233.195244 
L 538.536408 232.905888 
L 538.880898 233.235602 
L 538.880898 232.95864 
L 539.231011 233.348061 
L 539.231011 232.981071 
L 539.5755 233.260733 
L 539.5755 232.955349 
L 539.920235 233.257434 
L 539.920235 232.927299 
L 540.264969 233.266796 
L 540.264969 233.034794 
L 540.609703 233.369931 
L 540.609703 233.10709 
L 540.954193 233.476771 
L 540.954193 233.133996 
L 541.298682 233.328029 
L 541.298682 233.044098 
L 541.642928 233.293849 
L 541.642928 232.973552 
L 541.987417 233.295874 
L 541.987417 233.03707 
L 542.331907 233.319821 
L 542.331907 232.933695 
L 542.676397 233.250315 
L 542.676397 232.969554 
L 543.021375 233.287761 
L 543.021375 233.003523 
L 543.365621 233.379606 
L 543.365621 233.104112 
L 543.709621 233.432892 
L 543.709621 233.151871 
L 544.054111 233.434646 
L 544.054111 233.20238 
L 544.404224 233.482613 
L 544.404224 233.193797 
L 544.749936 233.482327 
L 544.749936 233.154457 
L 545.094426 233.42199 
L 545.094426 233.120158 
L 545.443316 233.415793 
L 545.443316 233.147688 
L 545.788051 233.461672 
L 545.788051 233.253959 
L 546.132296 233.548272 
L 546.132296 233.230968 
L 546.47703 233.505497 
L 546.47703 233.218424 
L 546.82152 233.410219 
L 546.82152 233.199246 
L 547.167965 233.499789 
L 547.167965 233.272718 
L 547.512455 233.589478 
L 547.512455 233.344065 
L 547.856945 233.574763 
L 547.856945 233.366489 
L 548.20119 233.56949 
L 548.20119 233.307689 
L 548.545924 233.558371 
L 548.545924 233.20741 
L 548.890658 233.399922 
L 548.890658 233.142647 
L 549.234904 233.367184 
L 549.234904 233.107829 
L 549.585995 233.454669 
L 549.585995 233.290407 
L 549.930973 233.537243 
L 549.930973 233.309012 
L 550.275463 233.55193 
L 550.275463 233.183584 
L 550.619953 233.355942 
L 550.619953 233.129766 
L 550.964687 233.360913 
L 550.964687 233.157209 
L 551.309666 233.495491 
L 551.309666 233.24626 
L 551.654155 233.494934 
L 551.654155 233.28377 
L 551.998645 233.516704 
L 551.998645 233.227382 
L 552.343135 233.456618 
L 552.343135 233.204679 
L 552.687869 233.395423 
L 552.687869 233.060497 
L 553.032359 233.389266 
L 553.032359 233.082585 
L 553.721338 233.178166 
L 553.721338 233.283118 
L 554.066072 233.252588 
L 554.066072 233.40614 
L 554.415452 233.635049 
L 554.415452 233.320769 
L 554.765565 233.539737 
L 554.765565 233.340173 
L 555.110054 233.52143 
L 555.110054 233.252617 
L 555.455033 233.557072 
L 555.455033 233.304 
L 555.799523 233.545447 
L 555.799523 233.363292 
L 556.144013 233.661287 
L 556.144013 233.422691 
L 556.488502 233.668433 
L 556.488502 233.467584 
L 556.833236 233.627306 
L 556.833236 233.370219 
L 557.177482 233.60927 
L 557.177482 233.459285 
L 557.866217 233.792887 
L 557.866217 233.639469 
L 558.211195 233.807551 
L 558.211195 233.583406 
L 558.555929 233.688659 
L 558.555929 233.511124 
L 558.900664 233.668883 
L 558.900664 233.441208 
L 559.589399 233.666626 
L 559.589399 233.536304 
L 559.939267 233.763581 
L 559.939267 233.701225 
L 560.284001 233.800874 
L 560.284001 233.643731 
L 560.628246 233.790886 
L 560.628246 233.60301 
L 560.972736 233.724108 
L 560.972736 233.502064 
L 561.316981 233.697434 
L 561.316981 233.491059 
L 561.661716 233.692611 
L 561.661716 233.534037 
L 562.006694 233.788951 
L 562.006694 233.637723 
L 562.351673 233.832219 
L 562.351673 233.667663 
L 562.696407 233.807778 
L 562.696407 233.594072 
L 563.730365 233.407249 
L 563.730365 233.454571 
L 565.465038 233.702625 
L 565.465038 233.535783 
L 565.809528 233.754219 
L 565.809528 233.574587 
L 566.154018 233.741853 
L 566.154018 233.600856 
L 566.498507 233.7574 
L 566.498507 233.58614 
L 566.842997 233.783008 
L 566.842997 233.6398 
L 567.187731 233.809039 
L 567.187731 233.607011 
L 567.53271 233.800481 
L 567.53271 233.64396 
L 567.879156 233.783179 
L 567.879156 233.560178 
L 568.223645 233.736038 
L 568.223645 233.655123 
L 569.946338 233.822307 
L 569.946338 233.668184 
L 570.297674 233.843841 
L 570.297674 233.705542 
L 570.642408 233.831013 
L 570.642408 233.695496 
L 570.987142 233.833551 
L 570.987142 233.691855 
L 571.331632 233.865691 
L 571.331632 233.745023 
L 571.676366 233.874329 
L 571.676366 233.752898 
L 572.020611 233.892884 
L 572.020611 233.726015 
L 572.36559 233.863195 
L 572.36559 233.724012 
L 572.71008 233.887267 
L 572.71008 233.724276 
L 573.054569 233.864511 
L 573.054569 233.729448 
L 573.743549 233.916798 
L 573.743549 233.770793 
L 574.088283 233.914284 
L 574.088283 233.757419 
L 574.432773 233.861114 
L 574.432773 233.694663 
L 574.777751 233.852069 
L 574.777751 233.69373 
L 575.122486 233.835814 
L 575.122486 233.71108 
L 576.161823 233.800062 
L 576.161823 233.755606 
L 576.511447 233.872022 
L 576.511447 233.745678 
L 577.201159 233.651755 
L 577.201159 233.664799 
L 578.235118 233.732188 
L 578.579607 233.760522 
L 578.925075 233.887025 
L 578.925075 233.718106 
L 579.269809 233.872134 
L 579.269809 233.73735 
L 579.614543 233.893267 
L 579.614543 233.726129 
L 579.959277 233.886558 
L 579.959277 233.761949 
L 580.303767 233.8913 
L 580.303767 233.755644 
L 580.653636 233.906523 
L 580.653636 233.810316 
L 581.342615 233.984875 
L 581.342615 233.856498 
L 581.687349 233.960272 
L 581.687349 233.835856 
L 582.032084 233.937571 
L 582.032084 233.842063 
L 583.066042 233.825035 
L 583.754777 234.042175 
L 583.754777 233.929582 
L 584.099266 234.019555 
L 584.099266 233.895482 
L 584.443756 233.987051 
L 584.443756 233.823642 
L 585.132735 233.864453 
L 585.132735 233.735933 
L 585.47747 233.885752 
L 585.47747 233.79073 
L 586.176229 233.942135 
L 586.176229 233.82325 
L 586.520718 233.979718 
L 586.520718 233.863461 
L 587.209942 233.979537 
L 587.209942 233.899817 
L 587.554676 234.025845 
L 587.554676 233.902918 
L 587.899166 233.996994 
L 587.899166 233.839402 
L 588.243656 233.939349 
L 588.243656 233.797202 
L 588.588879 233.922278 
L 588.588879 233.792572 
L 588.933369 233.94448 
L 588.933369 233.768906 
L 589.622837 233.944208 
L 589.622837 233.775719 
L 589.967327 233.922392 
L 589.967327 233.775044 
L 590.656551 233.944463 
L 590.656551 233.844493 
L 590.656551 234.000223 
L 592.386578 233.790433 
L 592.386578 233.845533 
L 593.419803 233.971363 
L 593.419803 233.810517 
L 594.109271 233.983517 
L 594.109271 233.934686 
L 594.453761 234.100288 
L 594.453761 233.967916 
L 594.798495 234.060429 
L 594.798495 233.946573 
L 595.142741 233.996202 
L 595.142741 233.844084 
L 596.526812 233.866216 
L 596.526812 233.924472 
L 597.22117 233.897456 
L 599.973909 234.066394 
L 599.973909 233.966275 
L 600.31791 234.072964 
L 600.31791 233.914823 
L 601.355046 234.124278 
L 601.355046 234.035064 
L 601.698803 234.105249 
L 601.698803 233.978735 
L 602.386559 234.061505 
L 602.386559 233.953118 
L 603.764029 233.891407 
L 604.108274 233.97438 
L 604.108274 233.838986 
L 607.563929 234.08323 
L 607.908174 233.965462 
L 608.252664 234.028829 
L 608.252664 233.978085 
L 609.974379 233.872128 
L 610.663603 233.849656 
L 610.663603 233.947453 
L 611.008337 233.828034 
L 611.352582 233.941733 
L 611.702206 233.787249 
L 613.424899 234.052581 
L 613.424899 234.00278 
L 614.113879 234.100002 
L 614.113879 233.968273 
L 614.803103 234.023673 
L 614.803103 233.918751 
L 615.147837 234.058626 
L 615.147837 234.018754 
L 615.492082 234.025494 
L 615.492082 233.999561 
L 615.836327 233.911625 
L 616.180573 234.023861 
L 616.180573 233.939589 
L 619.978761 233.833751 
L 620.324473 233.980265 
L 620.324473 233.933019 
L 621.701209 234.077758 
L 621.701209 234.032341 
L 622.741035 234.042634 
L 622.741035 233.926996 
L 623.085281 233.970932 
L 623.085281 233.931075 
L 624.117772 233.784561 
L 625.150263 233.974801 
L 625.838509 233.956461 
L 626.526755 234.088462 
L 626.526755 234.013698 
L 628.596382 233.989546 
L 628.596382 233.976552 
L 628.940628 233.87364 
L 629.97752 234.020555 
L 629.97752 233.946325 
L 630.665276 234.103104 
L 630.665276 234.077282 
L 632.040301 234.063983 
L 632.040301 233.986486 
L 632.389436 234.01053 
L 632.389436 233.906796 
L 633.421928 233.885881 
L 633.421928 233.923461 
L 633.767395 234.035271 
L 633.767395 233.973571 
L 634.111396 234.010391 
L 634.455152 233.877081 
L 634.799153 233.942316 
L 634.799153 233.826974 
L 635.830422 234.034207 
L 635.830422 233.949294 
L 637.554337 233.916396 
L 637.554337 233.941178 
L 638.247228 234.114848 
L 638.247228 234.043903 
L 640.993611 233.992898 
L 640.993611 234.084913 
L 642.714837 234.004991 
L 643.058104 234.088488 
L 643.058104 233.970846 
L 643.744883 233.981606 
L 644.431417 233.874763 
L 645.118441 233.978258 
L 645.461953 234.099607 
L 645.461953 234.009043 
L 645.805709 234.083974 
L 645.805709 233.981523 
L 646.492977 233.931741 
L 647.872892 233.981995 
L 648.56236 234.093984 
L 648.56236 233.988442 
L 650.625631 233.967982 
L 651.313632 234.090167 
L 654.417462 234.113811 
L 655.104241 234.207389 
L 655.104241 234.091684 
L 656.13551 233.994715 
L 656.13551 234.09125 
L 656.479022 234.150274 
L 656.479022 234.008974 
L 656.822778 234.108126 
L 656.822778 234.032102 
L 657.511513 233.915367 
L 657.855269 234.059558 
L 657.855269 234.005585 
L 658.547671 234.142608 
L 658.547671 234.066409 
L 659.235428 234.106718 
L 659.235428 234.026201 
L 659.579674 234.095065 
L 659.579674 234.029177 
L 660.960811 234.016941 
L 661.648812 234.115381 
L 661.648812 234.036981 
L 662.681303 234.084114 
L 662.681303 233.991067 
L 664.407664 234.040099 
L 664.407664 233.969055 
L 665.7844 234.103763 
L 665.7844 234.058164 
L 666.817136 234.095867 
L 666.817136 234.066033 
L 669.233942 234.069114 
L 669.233942 234.036645 
L 669.922433 234.162191 
L 669.922433 234.124759 
L 670.612879 234.102479 
L 671.306748 234.111863 
L 671.995239 234.17307 
L 674.413757 234.071623 
L 675.791716 234.079731 
L 675.791716 234.014543 
L 677.170164 234.007912 
L 677.170164 234.053108 
L 678.548367 234.04831 
L 679.587459 234.097953 
L 679.587459 234.088907 
L 680.621417 234.015154 
L 680.965907 234.114972 
L 680.965907 234.051202 
L 683.383203 234.124311 
L 683.383203 234.081265 
L 684.077561 234.101349 
L 685.455764 234.057375 
L 685.800499 233.992918 
L 686.833968 234.115129 
L 688.212415 234.109163 
L 688.212415 234.063668 
L 704.096349 234.162912 
L 704.096349 234.086558 
L 704.441083 234.145107 
L 704.441083 234.08384 
L 705.48042 234.008301 
L 705.48042 234.018282 
L 706.170133 234.100371 
L 711.346525 234.090683 
L 711.346525 234.057354 
L 712.386351 234.106004 
L 713.765287 234.12251 
L 713.765287 234.174899 
L 714.454511 234.233363 
L 714.454511 234.211232 
L 717.563231 234.039984 
L 717.563231 234.09849 
L 720.323794 234.103494 
L 720.323794 234.076326 
L 721.701753 234.058639 
L 722.390244 234.106769 
L 722.390244 234.063326 
L 725.843209 234.080018 
L 726.531699 234.145794 
L 726.531699 234.082697 
L 731.355044 234.130395 
L 731.355044 234.11432 
L 732.386068 234.127347 
L 733.760604 234.186991 
L 733.760604 234.158821 
L 736.5197 234.191071 
L 736.5197 234.219592 
L 746.490587 234.102281 
L 746.490587 234.083199 
L 750.262859 234.041417 
L 750.262859 234.059312 
L 750.262859 234.10168 
L 750.948904 234.034922 
L 750.948904 233.986793 
L 752.670864 233.86182 
L 752.670864 233.920316 
L 754.04271 233.89225 
L 755.071534 233.733422 
L 755.071534 233.822431 
L 755.414801 233.763742 
L 755.414801 233.882893 
L 756.100602 233.79797 
L 756.100602 233.872075 
L 756.448759 233.794972 
L 756.448759 233.87986 
L 757.484429 233.926151 
L 758.170719 233.819836 
L 758.170719 233.829765 
L 758.856764 233.78686 
L 758.856764 233.787411 
L 764.701354 234.0717 
L 764.701354 234.023659 
L 765.387644 233.998795 
L 765.387644 234.017542 
L 767.453604 233.998936 
L 767.453604 234.046189 
L 769.513207 234.014249 
L 769.513207 234.039696 
L 770.543254 234.072943 
L 770.543254 234.007377 
L 770.886276 234.041221 
L 770.886276 233.999608 
L 771.572566 234.029336 
L 771.572566 234.054612 
L 773.984972 233.997042 
L 773.984972 234.023216 
L 780.167205 234.13362 
L 780.167205 234.111001 
L 781.54003 234.070016 
L 781.54003 234.082394 
L 782.237567 234.142982 
L 784.639704 234.145238 
L 784.639704 234.091213 
L 787.389754 234.105117 
L 787.389754 234.156054 
L 788.075555 234.171483 
L 788.075555 234.152833 
L 789.104378 234.082724 
L 791.845626 234.054459 
L 791.845626 234.038253 
L 792.532161 233.937534 
L 794.21818 234.133299 
L 794.21818 234.104069 
L 794.21818 234.139435 
L 797.565036 234.053861 
L 797.565036 234.119176 
L 798.229321 234.079136 
L 798.229321 234.050942 
L 798.560853 233.982393 
L 798.560853 234.039585 
L 801.553195 234.053951 
L 801.553195 234.070256 
L 801.884726 234.116207 
L 801.884726 234.078473 
L 802.216747 234.025283 
L 802.216747 234.053856 
L 803.552897 234.10334 
L 803.552897 234.063019 
L 803.885162 234.017409 
L 803.885162 234.077507 
L 804.556538 234.169023 
L 805.556268 234.077969 
L 806.557953 234.17949 
L 806.557953 234.149474 
L 807.566728 234.067485 
L 807.566728 234.107208 
L 809.911898 234.108949 
L 809.911898 234.089565 
L 812.263181 234.099654 
L 812.263181 234.13609 
L 812.607671 234.086247 
L 812.607671 234.091991 
L 814.351146 234.337784 
L 816.140585 234.342485 
L 816.140585 234.341444 
" clip-path="url(#pd27817b5bd)" style="fill: none; stroke: #008000; stroke-width: 1.5; stroke-linecap: square"/>
   </g>
   <g id="patch_3">
    <path d="M 47.72 534.04 
L 47.72 26.88 
" style="fill: none; stroke: #000000; stroke-width: 0.8; stroke-linejoin: miter; stroke-linecap: square"/>
   </g>
   <g id="patch_4">
    <path d="M 853.2 534.04 
L 853.2 26.88 
" style="fill: none; stroke: #000000; stroke-width: 0.8; stroke-linejoin: miter; stroke-linecap: square"/>
   </g>
   <g id="patch_5">
    <path d="M 47.72 534.04 
L 853.2 534.04 
" style="fill: none; stroke: #000000; stroke-width: 0.8; stroke-linejoin: miter; stroke-linecap: square"/>
   </g>
   <g id="patch_6">
    <path d="M 47.72 26.88 
L 853.2 26.88 
" style="fill: none; stroke: #000000; stroke-width: 0.8; stroke-linejoin: miter; stroke-linecap: square"/>
   </g>
   <g id="patch_7">
    <path d="M 547.298915 462.208334 
Q 521.147621 468.042197 494.996327 473.876059 
L 495.867244 477.780096 
Q 489.359464 476.158118 482.851684 474.53614 
Q 488.053088 470.302063 493.254493 466.067985 
L 494.12541 469.972022 
Q 520.276704 464.13816 546.427998 458.304297 
L 547.298915 462.208334 
z
" style="stroke: #000000; stroke-linecap: round"/>
   </g>
   <g id="text_15">
    <!-- Peak: RT=2.70, Area=1.68e+03 -->
    <g style="fill: #ff0000" transform="translate(552.53555 445.713478) scale(0.1 -0.1)">
     <defs>
      <path id="DejaVuSans-50" d="M 1259 4147 
L 1259 2394 
L 2053 2394 
Q 2494 2394 2734 2622 
Q 2975 2850 2975 3272 
Q 2975 3691 2734 3919 
Q 2494 4147 2053 4147 
L 1259 4147 
z
M 628 4666 
L 2053 4666 
Q 2838 4666 3239 4311 
Q 3641 3956 3641 3272 
Q 3641 2581 3239 2228 
Q 2838 1875 2053 1875 
L 1259 1875 
L 1259 0 
L 628 0 
L 628 4666 
z
" transform="scale(0.015625)"/>
      <path id="DejaVuSans-6b" d="M 581 4863 
L 1159 4863 
L 1159 1991 
L 2875 3500 
L 3609 3500 
L 1753 1863 
L 3688 0 
L 2938 0 
L 1159 1709 
L 1159 0 
L 581 0 
L 581 4863 
z
" transform="scale(0.015625)"/>
      <path id="DejaVuSans-3a" d="M 750 794 
L 1409 794 
L 1409 0 
L 750 0 
L 750 794 
z
M 750 3309 
L 1409 3309 
L 1409 2516 
L 750 2516 
L 750 3309 
z
" transform="scale(0.015625)"/>
      <path id="DejaVuSans-3d" d="M 678 2906 
L 4684 2906 
L 4684 2381 
L 678 2381 
L 678 2906 
z
M 678 1631 
L 4684 1631 
L 4684 1100 
L 678 1100 
L 678 1631 
z
" transform="scale(0.015625)"/>
      <path id="DejaVuSans-37" d="M 525 4666 
L 3525 4666 
L 3525 4397 
L 1831 0 
L 1172 0 
L 2766 4134 
L 525 4134 
L 525 4666 
z
" transform="scale(0.015625)"/>
      <path id="DejaVuSans-2c" d="M 750 794 
L 1409 794 
L 1409 256 
L 897 -744 
L 494 -744 
L 750 256 
L 750 794 
z
" transform="scale(0.015625)"/>
      <path id="DejaVuSans-41" d="M 2188 4044 
L 1331 1722 
L 3047 1722 
L 2188 4044 
z
M 1831 4666 
L 2547 4666 
L 4325 0 
L 3669 0 
L 3244 1197 
L 1141 1197 
L 716 0 
L 50 0 
L 1831 4666 
z
" transform="scale(0.015625)"/>
      <path id="DejaVuSans-36" d="M 2113 2584 
Q 1688 2584 1439 2293 
Q 1191 2003 1191 1497 
Q 1191 994 1439 701 
Q 1688 409 2113 409 
Q 2538 409 2786 701 
Q 3034 994 3034 1497 
Q 3034 2003 2786 2293 
Q 2538 2584 2113 2584 
z
M 3366 4563 
L 3366 3988 
Q 3128 4100 2886 4159 
Q 2644 4219 2406 4219 
Q 1781 4219 1451 3797 
Q 1122 3375 1075 2522 
Q 1259 2794 1537 2939 
Q 1816 3084 2150 3084 
Q 2853 3084 3261 2657 
Q 3669 2231 3669 1497 
Q 3669 778 3244 343 
Q 2819 -91 2113 -91 
Q 1303 -91 875 529 
Q 447 1150 447 2328 
Q 447 3434 972 4092 
Q 1497 4750 2381 4750 
Q 2619 4750 2861 4703 
Q 3103 4656 3366 4563 
z
" transform="scale(0.015625)"/>
      <path id="DejaVuSans-38" d="M 2034 2216 
Q 1584 2216 1326 1975 
Q 1069 1734 1069 1313 
Q 1069 891 1326 650 
Q 1584 409 2034 409 
Q 2484 409 2743 651 
Q 3003 894 3003 1313 
Q 3003 1734 2745 1975 
Q 2488 2216 2034 2216 
z
M 1403 2484 
Q 997 2584 770 2862 
Q 544 3141 544 3541 
Q 544 4100 942 4425 
Q 1341 4750 2034 4750 
Q 2731 4750 3128 4425 
Q 3525 4100 3525 3541 
Q 3525 3141 3298 2862 
Q 3072 2584 2669 2484 
Q 3125 2378 3379 2068 
Q 3634 1759 3634 1313 
Q 3634 634 3220 271 
Q 2806 -91 2034 -91 
Q 1263 -91 848 271 
Q 434 634 434 1313 
Q 434 1759 690 2068 
Q 947 2378 1403 2484 
z
M 1172 3481 
Q 1172 3119 1398 2916 
Q 1625 2713 2034 2713 
Q 2441 2713 2670 2916 
Q 2900 3119 2900 3481 
Q 2900 3844 2670 4047 
Q 2441 4250 2034 4250 
Q 1625 4250 1398 4047 
Q 1172 3844 1172 3481 
z
" transform="scale(0.015625)"/>
      <path id="DejaVuSans-2b" d="M 2944 4013 
L 2944 2272 
L 4684 2272 
L 4684 1741 
L 2944 1741 
L 2944 0 
L 2419 0 
L 2419 1741 
L 678 1741 
L 678 2272 
L 2419 2272 
L 2419 4013 
L 2944 4013 
z
" transform="scale(0.015625)"/>
     </defs>
     <use xlink:href="#DejaVuSans-50"/>
     <use xlink:href="#DejaVuSans-65" transform="translate(56.677734 0)"/>
     <use xlink:href="#DejaVuSans-61" transform="translate(118.201172 0)"/>
     <use xlink:href="#DejaVuSans-6b" transform="translate(179.480469 0)"/>
     <use xlink:href="#DejaVuSans-3a" transform="translate(237.390625 0)"/>
     <use xlink:href="#DejaVuSans-20" transform="translate(271.082031 0)"/>
     <use xlink:href="#DejaVuSans-52" transform="translate(302.869141 0)"/>
     <use xlink:href="#DejaVuSans-54" transform="translate(365.101562 0)"/>
     <use xlink:href="#DejaVuSans-3d" transform="translate(426.185547 0)"/>
     <use xlink:href="#DejaVuSans-32" transform="translate(509.974609 0)"/>
     <use xlink:href="#DejaVuSans-2e" transform="translate(573.597656 0)"/>
     <use xlink:href="#DejaVuSans-37" transform="translate(605.384766 0)"/>
     <use xlink:href="#DejaVuSans-30" transform="translate(669.007812 0)"/>
     <use xlink:href="#DejaVuSans-2c" transform="translate(732.630859 0)"/>
     <use xlink:href="#DejaVuSans-20" transform="translate(764.417969 0)"/>
     <use xlink:href="#DejaVuSans-41" transform="translate(796.205078 0)"/>
     <use xlink:href="#DejaVuSans-72" transform="translate(864.613281 0)"/>
     <use xlink:href="#DejaVuSans-65" transform="translate(903.476562 0)"/>
     <use xlink:href="#DejaVuSans-61" transform="translate(965 0)"/>
     <use xlink:href="#DejaVuSans-3d" transform="translate(1026.279297 0)"/>
     <use xlink:href="#DejaVuSans-31" transform="translate(1110.068359 0)"/>
     <use xlink:href="#DejaVuSans-2e" transform="translate(1173.691406 0)"/>
     <use xlink:href="#DejaVuSans-36" transform="translate(1205.478516 0)"/>
     <use xlink:href="#DejaVuSans-38" transform="translate(1269.101562 0)"/>
     <use xlink:href="#DejaVuSans-65" transform="translate(1332.724609 0)"/>
     <use xlink:href="#DejaVuSans-2b" transform="translate(1394.248047 0)"/>
     <use xlink:href="#DejaVuSans-30" transform="translate(1478.037109 0)"/>
     <use xlink:href="#DejaVuSans-33" transform="translate(1541.660156 0)"/>
    </g>
    <!-- (11.26% of total) -->
    <g style="fill: #ff0000" transform="translate(552.53555 456.911291) scale(0.1 -0.1)">
     <defs>
      <path id="DejaVuSans-25" d="M 4653 2053 
Q 4381 2053 4226 1822 
Q 4072 1591 4072 1178 
Q 4072 772 4226 539 
Q 4381 306 4653 306 
Q 4919 306 5073 539 
Q 5228 772 5228 1178 
Q 5228 1588 5073 1820 
Q 4919 2053 4653 2053 
z
M 4653 2450 
Q 5147 2450 5437 2106 
Q 5728 1763 5728 1178 
Q 5728 594 5436 251 
Q 5144 -91 4653 -91 
Q 4153 -91 3862 251 
Q 3572 594 3572 1178 
Q 3572 1766 3864 2108 
Q 4156 2450 4653 2450 
z
M 1428 4353 
Q 1159 4353 1004 4120 
Q 850 3888 850 3481 
Q 850 3069 1003 2837 
Q 1156 2606 1428 2606 
Q 1700 2606 1854 2837 
Q 2009 3069 2009 3481 
Q 2009 3884 1853 4118 
Q 1697 4353 1428 4353 
z
M 4250 4750 
L 4750 4750 
L 1831 -91 
L 1331 -91 
L 4250 4750 
z
M 1428 4750 
Q 1922 4750 2215 4408 
Q 2509 4066 2509 3481 
Q 2509 2891 2217 2550 
Q 1925 2209 1428 2209 
Q 931 2209 642 2551 
Q 353 2894 353 3481 
Q 353 4063 643 4406 
Q 934 4750 1428 4750 
z
" transform="scale(0.015625)"/>
      <path id="DejaVuSans-66" d="M 2375 4863 
L 2375 4384 
L 1825 4384 
Q 1516 4384 1395 4259 
Q 1275 4134 1275 3809 
L 1275 3500 
L 2222 3500 
L 2222 3053 
L 1275 3053 
L 1275 0 
L 697 0 
L 697 3053 
L 147 3053 
L 147 3500 
L 697 3500 
L 697 3744 
Q 697 4328 969 4595 
Q 1241 4863 1831 4863 
L 2375 4863 
z
" transform="scale(0.015625)"/>
     </defs>
     <use xlink:href="#DejaVuSans-28"/>
     <use xlink:href="#DejaVuSans-31" transform="translate(39.013672 0)"/>
     <use xlink:href="#DejaVuSans-31" transform="translate(102.636719 0)"/>
     <use xlink:href="#DejaVuSans-2e" transform="translate(166.259766 0)"/>
     <use xlink:href="#DejaVuSans-32" transform="translate(198.046875 0)"/>
     <use xlink:href="#DejaVuSans-36" transform="translate(261.669922 0)"/>
     <use xlink:href="#DejaVuSans-25" transform="translate(325.292969 0)"/>
     <use xlink:href="#DejaVuSans-20" transform="translate(420.3125 0)"/>
     <use xlink:href="#DejaVuSans-6f" transform="translate(452.099609 0)"/>
     <use xlink:href="#DejaVuSans-66" transform="translate(513.28125 0)"/>
     <use xlink:href="#DejaVuSans-20" transform="translate(548.486328 0)"/>
     <use xlink:href="#DejaVuSans-74" transform="translate(580.273438 0)"/>
     <use xlink:href="#DejaVuSans-6f" transform="translate(619.482422 0)"/>
     <use xlink:href="#DejaVuSans-74" transform="translate(680.664062 0)"/>
     <use xlink:href="#DejaVuSans-61" transform="translate(719.873047 0)"/>
     <use xlink:href="#DejaVuSans-6c" transform="translate(781.152344 0)"/>
     <use xlink:href="#DejaVuSans-29" transform="translate(808.935547 0)"/>
    </g>
   </g>
   <g id="text_16">
    <!-- UV and MS Chromatograms of IrCp4J19, target m/z = 679.2244576 -->
    <g transform="translate(248.549688 20.88) scale(0.12 -0.12)">
     <defs>
      <path id="DejaVuSans-55" d="M 556 4666 
L 1191 4666 
L 1191 1831 
Q 1191 1081 1462 751 
Q 1734 422 2344 422 
Q 2950 422 3222 751 
Q 3494 1081 3494 1831 
L 3494 4666 
L 4128 4666 
L 4128 1753 
Q 4128 841 3676 375 
Q 3225 -91 2344 -91 
Q 1459 -91 1007 375 
Q 556 841 556 1753 
L 556 4666 
z
" transform="scale(0.015625)"/>
      <path id="DejaVuSans-56" d="M 1831 0 
L 50 4666 
L 709 4666 
L 2188 738 
L 3669 4666 
L 4325 4666 
L 2547 0 
L 1831 0 
z
" transform="scale(0.015625)"/>
      <path id="DejaVuSans-4d" d="M 628 4666 
L 1569 4666 
L 2759 1491 
L 3956 4666 
L 4897 4666 
L 4897 0 
L 4281 0 
L 4281 4097 
L 3078 897 
L 2444 897 
L 1241 4097 
L 1241 0 
L 628 0 
L 628 4666 
z
" transform="scale(0.015625)"/>
      <path id="DejaVuSans-53" d="M 3425 4513 
L 3425 3897 
Q 3066 4069 2747 4153 
Q 2428 4238 2131 4238 
Q 1616 4238 1336 4038 
Q 1056 3838 1056 3469 
Q 1056 3159 1242 3001 
Q 1428 2844 1947 2747 
L 2328 2669 
Q 3034 2534 3370 2195 
Q 3706 1856 3706 1288 
Q 3706 609 3251 259 
Q 2797 -91 1919 -91 
Q 1588 -91 1214 -16 
Q 841 59 441 206 
L 441 856 
Q 825 641 1194 531 
Q 1563 422 1919 422 
Q 2459 422 2753 634 
Q 3047 847 3047 1241 
Q 3047 1584 2836 1778 
Q 2625 1972 2144 2069 
L 1759 2144 
Q 1053 2284 737 2584 
Q 422 2884 422 3419 
Q 422 4038 858 4394 
Q 1294 4750 2059 4750 
Q 2388 4750 2728 4690 
Q 3069 4631 3425 4513 
z
" transform="scale(0.015625)"/>
      <path id="DejaVuSans-43" d="M 4122 4306 
L 4122 3641 
Q 3803 3938 3442 4084 
Q 3081 4231 2675 4231 
Q 1875 4231 1450 3742 
Q 1025 3253 1025 2328 
Q 1025 1406 1450 917 
Q 1875 428 2675 428 
Q 3081 428 3442 575 
Q 3803 722 4122 1019 
L 4122 359 
Q 3791 134 3420 21 
Q 3050 -91 2638 -91 
Q 1578 -91 968 557 
Q 359 1206 359 2328 
Q 359 3453 968 4101 
Q 1578 4750 2638 4750 
Q 3056 4750 3426 4639 
Q 3797 4528 4122 4306 
z
" transform="scale(0.015625)"/>
      <path id="DejaVuSans-68" d="M 3513 2113 
L 3513 0 
L 2938 0 
L 2938 2094 
Q 2938 2591 2744 2837 
Q 2550 3084 2163 3084 
Q 1697 3084 1428 2787 
Q 1159 2491 1159 1978 
L 1159 0 
L 581 0 
L 581 4863 
L 1159 4863 
L 1159 2956 
Q 1366 3272 1645 3428 
Q 1925 3584 2291 3584 
Q 2894 3584 3203 3211 
Q 3513 2838 3513 2113 
z
" transform="scale(0.015625)"/>
      <path id="DejaVuSans-67" d="M 2906 1791 
Q 2906 2416 2648 2759 
Q 2391 3103 1925 3103 
Q 1463 3103 1205 2759 
Q 947 2416 947 1791 
Q 947 1169 1205 825 
Q 1463 481 1925 481 
Q 2391 481 2648 825 
Q 2906 1169 2906 1791 
z
M 3481 434 
Q 3481 -459 3084 -895 
Q 2688 -1331 1869 -1331 
Q 1566 -1331 1297 -1286 
Q 1028 -1241 775 -1147 
L 775 -588 
Q 1028 -725 1275 -790 
Q 1522 -856 1778 -856 
Q 2344 -856 2625 -561 
Q 2906 -266 2906 331 
L 2906 616 
Q 2728 306 2450 153 
Q 2172 0 1784 0 
Q 1141 0 747 490 
Q 353 981 353 1791 
Q 353 2603 747 3093 
Q 1141 3584 1784 3584 
Q 2172 3584 2450 3431 
Q 2728 3278 2906 2969 
L 2906 3500 
L 3481 3500 
L 3481 434 
z
" transform="scale(0.015625)"/>
      <path id="DejaVuSans-70" d="M 1159 525 
L 1159 -1331 
L 581 -1331 
L 581 3500 
L 1159 3500 
L 1159 2969 
Q 1341 3281 1617 3432 
Q 1894 3584 2278 3584 
Q 2916 3584 3314 3078 
Q 3713 2572 3713 1747 
Q 3713 922 3314 415 
Q 2916 -91 2278 -91 
Q 1894 -91 1617 61 
Q 1341 213 1159 525 
z
M 3116 1747 
Q 3116 2381 2855 2742 
Q 2594 3103 2138 3103 
Q 1681 3103 1420 2742 
Q 1159 2381 1159 1747 
Q 1159 1113 1420 752 
Q 1681 391 2138 391 
Q 2594 391 2855 752 
Q 3116 1113 3116 1747 
z
" transform="scale(0.015625)"/>
      <path id="DejaVuSans-4a" d="M 628 4666 
L 1259 4666 
L 1259 325 
Q 1259 -519 939 -900 
Q 619 -1281 -91 -1281 
L -331 -1281 
L -331 -750 
L -134 -750 
Q 284 -750 456 -515 
Q 628 -281 628 325 
L 628 4666 
z
" transform="scale(0.015625)"/>
      <path id="DejaVuSans-39" d="M 703 97 
L 703 672 
Q 941 559 1184 500 
Q 1428 441 1663 441 
Q 2288 441 2617 861 
Q 2947 1281 2994 2138 
Q 2813 1869 2534 1725 
Q 2256 1581 1919 1581 
Q 1219 1581 811 2004 
Q 403 2428 403 3163 
Q 403 3881 828 4315 
Q 1253 4750 1959 4750 
Q 2769 4750 3195 4129 
Q 3622 3509 3622 2328 
Q 3622 1225 3098 567 
Q 2575 -91 1691 -91 
Q 1453 -91 1209 -44 
Q 966 3 703 97 
z
M 1959 2075 
Q 2384 2075 2632 2365 
Q 2881 2656 2881 3163 
Q 2881 3666 2632 3958 
Q 2384 4250 1959 4250 
Q 1534 4250 1286 3958 
Q 1038 3666 1038 3163 
Q 1038 2656 1286 2365 
Q 1534 2075 1959 2075 
z
" transform="scale(0.015625)"/>
      <path id="DejaVuSans-2f" d="M 1625 4666 
L 2156 4666 
L 531 -594 
L 0 -594 
L 1625 4666 
z
" transform="scale(0.015625)"/>
     </defs>
     <use xlink:href="#DejaVuSans-55"/>
     <use xlink:href="#DejaVuSans-56" transform="translate(73.193359 0)"/>
     <use xlink:href="#DejaVuSans-20" transform="translate(141.601562 0)"/>
     <use xlink:href="#DejaVuSans-61" transform="translate(173.388672 0)"/>
     <use xlink:href="#DejaVuSans-6e" transform="translate(234.667969 0)"/>
     <use xlink:href="#DejaVuSans-64" transform="translate(298.046875 0)"/>
     <use xlink:href="#DejaVuSans-20" transform="translate(361.523438 0)"/>
     <use xlink:href="#DejaVuSans-4d" transform="translate(393.310547 0)"/>
     <use xlink:href="#DejaVuSans-53" transform="translate(479.589844 0)"/>
     <use xlink:href="#DejaVuSans-20" transform="translate(543.066406 0)"/>
     <use xlink:href="#DejaVuSans-43" transform="translate(574.853516 0)"/>
     <use xlink:href="#DejaVuSans-68" transform="translate(644.677734 0)"/>
     <use xlink:href="#DejaVuSans-72" transform="translate(708.056641 0)"/>
     <use xlink:href="#DejaVuSans-6f" transform="translate(746.919922 0)"/>
     <use xlink:href="#DejaVuSans-6d" transform="translate(808.101562 0)"/>
     <use xlink:href="#DejaVuSans-61" transform="translate(905.513672 0)"/>
     <use xlink:href="#DejaVuSans-74" transform="translate(966.792969 0)"/>
     <use xlink:href="#DejaVuSans-6f" transform="translate(1006.001953 0)"/>
     <use xlink:href="#DejaVuSans-67" transform="translate(1067.183594 0)"/>
     <use xlink:href="#DejaVuSans-72" transform="translate(1130.660156 0)"/>
     <use xlink:href="#DejaVuSans-61" transform="translate(1171.773438 0)"/>
     <use xlink:href="#DejaVuSans-6d" transform="translate(1233.052734 0)"/>
     <use xlink:href="#DejaVuSans-73" transform="translate(1330.464844 0)"/>
     <use xlink:href="#DejaVuSans-20" transform="translate(1382.564453 0)"/>
     <use xlink:href="#DejaVuSans-6f" transform="translate(1414.351562 0)"/>
     <use xlink:href="#DejaVuSans-66" transform="translate(1475.533203 0)"/>
     <use xlink:href="#DejaVuSans-20" transform="translate(1510.738281 0)"/>
     <use xlink:href="#DejaVuSans-49" transform="translate(1542.525391 0)"/>
     <use xlink:href="#DejaVuSans-72" transform="translate(1572.017578 0)"/>
     <use xlink:href="#DejaVuSans-43" transform="translate(1613.130859 0)"/>
     <use xlink:href="#DejaVuSans-70" transform="translate(1682.955078 0)"/>
     <use xlink:href="#DejaVuSans-34" transform="translate(1746.431641 0)"/>
     <use xlink:href="#DejaVuSans-4a" transform="translate(1810.054688 0)"/>
     <use xlink:href="#DejaVuSans-31" transform="translate(1839.546875 0)"/>
     <use xlink:href="#DejaVuSans-39" transform="translate(1903.169922 0)"/>
     <use xlink:href="#DejaVuSans-2c" transform="translate(1966.792969 0)"/>
     <use xlink:href="#DejaVuSans-20" transform="translate(1998.580078 0)"/>
     <use xlink:href="#DejaVuSans-74" transform="translate(2030.367188 0)"/>
     <use xlink:href="#DejaVuSans-61" transform="translate(2069.576172 0)"/>
     <use xlink:href="#DejaVuSans-72" transform="translate(2130.855469 0)"/>
     <use xlink:href="#DejaVuSans-67" transform="translate(2170.21875 0)"/>
     <use xlink:href="#DejaVuSans-65" transform="translate(2233.695312 0)"/>
     <use xlink:href="#DejaVuSans-74" transform="translate(2295.21875 0)"/>
     <use xlink:href="#DejaVuSans-20" transform="translate(2334.427734 0)"/>
     <use xlink:href="#DejaVuSans-6d" transform="translate(2366.214844 0)"/>
     <use xlink:href="#DejaVuSans-2f" transform="translate(2463.626953 0)"/>
     <use xlink:href="#DejaVuSans-7a" transform="translate(2497.318359 0)"/>
     <use xlink:href="#DejaVuSans-20" transform="translate(2549.808594 0)"/>
     <use xlink:href="#DejaVuSans-3d" transform="translate(2581.595703 0)"/>
     <use xlink:href="#DejaVuSans-20" transform="translate(2665.384766 0)"/>
     <use xlink:href="#DejaVuSans-36" transform="translate(2697.171875 0)"/>
     <use xlink:href="#DejaVuSans-37" transform="translate(2760.794922 0)"/>
     <use xlink:href="#DejaVuSans-39" transform="translate(2824.417969 0)"/>
     <use xlink:href="#DejaVuSans-2e" transform="translate(2888.041016 0)"/>
     <use xlink:href="#DejaVuSans-32" transform="translate(2919.828125 0)"/>
     <use xlink:href="#DejaVuSans-32" transform="translate(2983.451172 0)"/>
     <use xlink:href="#DejaVuSans-34" transform="translate(3047.074219 0)"/>
     <use xlink:href="#DejaVuSans-34" transform="translate(3110.697266 0)"/>
     <use xlink:href="#DejaVuSans-35" transform="translate(3174.320312 0)"/>
     <use xlink:href="#DejaVuSans-37" transform="translate(3237.943359 0)"/>
     <use xlink:href="#DejaVuSans-36" transform="translate(3301.566406 0)"/>
    </g>
   </g>
   <g id="legend_1">
    <g id="patch_8">
     <path d="M 685.971875 64.23625 
L 846.2 64.23625 
Q 848.2 64.23625 848.2 62.23625 
L 848.2 33.88 
Q 848.2 31.88 846.2 31.88 
L 685.971875 31.88 
Q 683.971875 31.88 683.971875 33.88 
L 683.971875 62.23625 
Q 683.971875 64.23625 685.971875 64.23625 
z
" style="fill: #ffffff; opacity: 0.8; stroke: #cccccc; stroke-linejoin: miter"/>
    </g>
    <g id="line2d_15">
     <path d="M 687.971875 39.978437 
L 697.971875 39.978437 
L 707.971875 39.978437 
" style="fill: none; stroke: #0000ff; stroke-width: 1.5; stroke-linecap: square"/>
    </g>
    <g id="text_17">
     <!-- UV Intensity (normalized) -->
     <g transform="translate(715.971875 43.478437) scale(0.1 -0.1)">
      <use xlink:href="#DejaVuSans-55"/>
      <use xlink:href="#DejaVuSans-56" transform="translate(73.193359 0)"/>
      <use xlink:href="#DejaVuSans-20" transform="translate(141.601562 0)"/>
      <use xlink:href="#DejaVuSans-49" transform="translate(173.388672 0)"/>
      <use xlink:href="#DejaVuSans-6e" transform="translate(202.880859 0)"/>
      <use xlink:href="#DejaVuSans-74" transform="translate(266.259766 0)"/>
      <use xlink:href="#DejaVuSans-65" transform="translate(305.46875 0)"/>
      <use xlink:href="#DejaVuSans-6e" transform="translate(366.992188 0)"/>
      <use xlink:href="#DejaVuSans-73" transform="translate(430.371094 0)"/>
      <use xlink:href="#DejaVuSans-69" transform="translate(482.470703 0)"/>
      <use xlink:href="#DejaVuSans-74" transform="translate(510.253906 0)"/>
      <use xlink:href="#DejaVuSans-79" transform="translate(549.462891 0)"/>
      <use xlink:href="#DejaVuSans-20" transform="translate(608.642578 0)"/>
      <use xlink:href="#DejaVuSans-28" transform="translate(640.429688 0)"/>
      <use xlink:href="#DejaVuSans-6e" transform="translate(679.443359 0)"/>
      <use xlink:href="#DejaVuSans-6f" transform="translate(742.822266 0)"/>
      <use xlink:href="#DejaVuSans-72" transform="translate(804.003906 0)"/>
      <use xlink:href="#DejaVuSans-6d" transform="translate(843.367188 0)"/>
      <use xlink:href="#DejaVuSans-61" transform="translate(940.779297 0)"/>
      <use xlink:href="#DejaVuSans-6c" transform="translate(1002.058594 0)"/>
      <use xlink:href="#DejaVuSans-69" transform="translate(1029.841797 0)"/>
      <use xlink:href="#DejaVuSans-7a" transform="translate(1057.625 0)"/>
      <use xlink:href="#DejaVuSans-65" transform="translate(1110.115234 0)"/>
      <use xlink:href="#DejaVuSans-64" transform="translate(1171.638672 0)"/>
      <use xlink:href="#DejaVuSans-29" transform="translate(1235.115234 0)"/>
     </g>
    </g>
    <g id="line2d_16">
     <path d="M 687.971875 54.656562 
L 697.971875 54.656562 
L 707.971875 54.656562 
" style="fill: none; stroke: #008000; stroke-width: 1.5; stroke-linecap: square"/>
    </g>
    <g id="text_18">
     <!-- MS Intensity (normalized) -->
     <g transform="translate(715.971875 58.156562) scale(0.1 -0.1)">
      <use xlink:href="#DejaVuSans-4d"/>
      <use xlink:href="#DejaVuSans-53" transform="translate(86.279297 0)"/>
      <use xlink:href="#DejaVuSans-20" transform="translate(149.755859 0)"/>
      <use xlink:href="#DejaVuSans-49" transform="translate(181.542969 0)"/>
      <use xlink:href="#DejaVuSans-6e" transform="translate(211.035156 0)"/>
      <use xlink:href="#DejaVuSans-74" transform="translate(274.414062 0)"/>
      <use xlink:href="#DejaVuSans-65" transform="translate(313.623047 0)"/>
      <use xlink:href="#DejaVuSans-6e" transform="translate(375.146484 0)"/>
      <use xlink:href="#DejaVuSans-73" transform="translate(438.525391 0)"/>
      <use xlink:href="#DejaVuSans-69" transform="translate(490.625 0)"/>
      <use xlink:href="#DejaVuSans-74" transform="translate(518.408203 0)"/>
      <use xlink:href="#DejaVuSans-79" transform="translate(557.617188 0)"/>
      <use xlink:href="#DejaVuSans-20" transform="translate(616.796875 0)"/>
      <use xlink:href="#DejaVuSans-28" transform="translate(648.583984 0)"/>
      <use xlink:href="#DejaVuSans-6e" transform="translate(687.597656 0)"/>
      <use xlink:href="#DejaVuSans-6f" transform="translate(750.976562 0)"/>
      <use xlink:href="#DejaVuSans-72" transform="translate(812.158203 0)"/>
      <use xlink:href="#DejaVuSans-6d" transform="translate(851.521484 0)"/>
      <use xlink:href="#DejaVuSans-61" transform="translate(948.933594 0)"/>
      <use xlink:href="#DejaVuSans-6c" transform="translate(1010.212891 0)"/>
      <use xlink:href="#DejaVuSans-69" transform="translate(1037.996094 0)"/>
      <use xlink:href="#DejaVuSans-7a" transform="translate(1065.779297 0)"/>
      <use xlink:href="#DejaVuSans-65" transform="translate(1118.269531 0)"/>
      <use xlink:href="#DejaVuSans-64" transform="translate(1179.792969 0)"/>
      <use xlink:href="#DejaVuSans-29" transform="translate(1243.269531 0)"/>
     </g>
    </g>
   </g>
  </g>
 </g>
 <defs>
  <clipPath id="pd27817b5bd">
   <rect x="47.72" y="26.88" width="805.48" height="507.16"/>
  </clipPath>
 </defs>
</svg>
