<?xml version="1.0" encoding="utf-8" standalone="no"?>
<!DOCTYPE svg PUBLIC "-//W3C//DTD SVG 1.1//EN"
  "http://www.w3.org/Graphics/SVG/1.1/DTD/svg11.dtd">
<svg xmlns:xlink="http://www.w3.org/1999/xlink" width="864pt" height="576pt" viewBox="0 0 864 576" xmlns="http://www.w3.org/2000/svg" version="1.1">
 <metadata>
  <rdf:RDF xmlns:dc="http://purl.org/dc/elements/1.1/" xmlns:cc="http://creativecommons.org/ns#" xmlns:rdf="http://www.w3.org/1999/02/22-rdf-syntax-ns#">
   <cc:Work>
    <dc:type rdf:resource="http://purl.org/dc/dcmitype/StillImage"/>
    <dc:date>2025-02-07T17:20:47.940091</dc:date>
    <dc:format>image/svg+xml</dc:format>
    <dc:creator>
     <cc:Agent>
      <dc:title>Matplotlib v3.10.0, https://matplotlib.org/</dc:title>
     </cc:Agent>
    </dc:creator>
   </cc:Work>
  </rdf:RDF>
 </metadata>
 <defs>
  <style type="text/css">*{stroke-linejoin: round; stroke-linecap: butt}</style>
 </defs>
 <g id="figure_1">
  <g id="patch_1">
   <path d="M 0 576 
L 864 576 
L 864 0 
L 0 0 
z
" style="fill: #ffffff"/>
  </g>
  <g id="axes_1">
   <g id="patch_2">
    <path d="M 47.72 534.04 
L 853.2 534.04 
L 853.2 26.88 
L 47.72 26.88 
z
" style="fill: #ffffff"/>
   </g>
   <g id="matplotlib.axis_1">
    <g id="xtick_1">
     <g id="line2d_1">
      <defs>
       <path id="m12134c0971" d="M 0 0 
L 0 3.5 
" style="stroke: #000000; stroke-width: 0.8"/>
      </defs>
      <g>
       <use xlink:href="#m12134c0971" x="83.095596" y="534.04" style="stroke: #000000; stroke-width: 0.8"/>
      </g>
     </g>
     <g id="text_1">
      <!-- 0 -->
      <g transform="translate(79.914346 548.638438) scale(0.1 -0.1)">
       <defs>
        <path id="DejaVuSans-30" d="M 2034 4250 
Q 1547 4250 1301 3770 
Q 1056 3291 1056 2328 
Q 1056 1369 1301 889 
Q 1547 409 2034 409 
Q 2525 409 2770 889 
Q 3016 1369 3016 2328 
Q 3016 3291 2770 3770 
Q 2525 4250 2034 4250 
z
M 2034 4750 
Q 2819 4750 3233 4129 
Q 3647 3509 3647 2328 
Q 3647 1150 3233 529 
Q 2819 -91 2034 -91 
Q 1250 -91 836 529 
Q 422 1150 422 2328 
Q 422 3509 836 4129 
Q 1250 4750 2034 4750 
z
" transform="scale(0.015625)"/>
       </defs>
       <use xlink:href="#DejaVuSans-30"/>
      </g>
     </g>
    </g>
    <g id="xtick_2">
     <g id="line2d_2">
      <g>
       <use xlink:href="#m12134c0971" x="229.790997" y="534.04" style="stroke: #000000; stroke-width: 0.8"/>
      </g>
     </g>
     <g id="text_2">
      <!-- 1 -->
      <g transform="translate(226.609747 548.638438) scale(0.1 -0.1)">
       <defs>
        <path id="DejaVuSans-31" d="M 794 531 
L 1825 531 
L 1825 4091 
L 703 3866 
L 703 4441 
L 1819 4666 
L 2450 4666 
L 2450 531 
L 3481 531 
L 3481 0 
L 794 0 
L 794 531 
z
" transform="scale(0.015625)"/>
       </defs>
       <use xlink:href="#DejaVuSans-31"/>
      </g>
     </g>
    </g>
    <g id="xtick_3">
     <g id="line2d_3">
      <g>
       <use xlink:href="#m12134c0971" x="376.486399" y="534.04" style="stroke: #000000; stroke-width: 0.8"/>
      </g>
     </g>
     <g id="text_3">
      <!-- 2 -->
      <g transform="translate(373.305149 548.638438) scale(0.1 -0.1)">
       <defs>
        <path id="DejaVuSans-32" d="M 1228 531 
L 3431 531 
L 3431 0 
L 469 0 
L 469 531 
Q 828 903 1448 1529 
Q 2069 2156 2228 2338 
Q 2531 2678 2651 2914 
Q 2772 3150 2772 3378 
Q 2772 3750 2511 3984 
Q 2250 4219 1831 4219 
Q 1534 4219 1204 4116 
Q 875 4013 500 3803 
L 500 4441 
Q 881 4594 1212 4672 
Q 1544 4750 1819 4750 
Q 2544 4750 2975 4387 
Q 3406 4025 3406 3419 
Q 3406 3131 3298 2873 
Q 3191 2616 2906 2266 
Q 2828 2175 2409 1742 
Q 1991 1309 1228 531 
z
" transform="scale(0.015625)"/>
       </defs>
       <use xlink:href="#DejaVuSans-32"/>
      </g>
     </g>
    </g>
    <g id="xtick_4">
     <g id="line2d_4">
      <g>
       <use xlink:href="#m12134c0971" x="523.1818" y="534.04" style="stroke: #000000; stroke-width: 0.8"/>
      </g>
     </g>
     <g id="text_4">
      <!-- 3 -->
      <g transform="translate(520.00055 548.638438) scale(0.1 -0.1)">
       <defs>
        <path id="DejaVuSans-33" d="M 2597 2516 
Q 3050 2419 3304 2112 
Q 3559 1806 3559 1356 
Q 3559 666 3084 287 
Q 2609 -91 1734 -91 
Q 1441 -91 1130 -33 
Q 819 25 488 141 
L 488 750 
Q 750 597 1062 519 
Q 1375 441 1716 441 
Q 2309 441 2620 675 
Q 2931 909 2931 1356 
Q 2931 1769 2642 2001 
Q 2353 2234 1838 2234 
L 1294 2234 
L 1294 2753 
L 1863 2753 
Q 2328 2753 2575 2939 
Q 2822 3125 2822 3475 
Q 2822 3834 2567 4026 
Q 2313 4219 1838 4219 
Q 1578 4219 1281 4162 
Q 984 4106 628 3988 
L 628 4550 
Q 988 4650 1302 4700 
Q 1616 4750 1894 4750 
Q 2613 4750 3031 4423 
Q 3450 4097 3450 3541 
Q 3450 3153 3228 2886 
Q 3006 2619 2597 2516 
z
" transform="scale(0.015625)"/>
       </defs>
       <use xlink:href="#DejaVuSans-33"/>
      </g>
     </g>
    </g>
    <g id="xtick_5">
     <g id="line2d_5">
      <g>
       <use xlink:href="#m12134c0971" x="669.877202" y="534.04" style="stroke: #000000; stroke-width: 0.8"/>
      </g>
     </g>
     <g id="text_5">
      <!-- 4 -->
      <g transform="translate(666.695952 548.638438) scale(0.1 -0.1)">
       <defs>
        <path id="DejaVuSans-34" d="M 2419 4116 
L 825 1625 
L 2419 1625 
L 2419 4116 
z
M 2253 4666 
L 3047 4666 
L 3047 1625 
L 3713 1625 
L 3713 1100 
L 3047 1100 
L 3047 0 
L 2419 0 
L 2419 1100 
L 313 1100 
L 313 1709 
L 2253 4666 
z
" transform="scale(0.015625)"/>
       </defs>
       <use xlink:href="#DejaVuSans-34"/>
      </g>
     </g>
    </g>
    <g id="xtick_6">
     <g id="line2d_6">
      <g>
       <use xlink:href="#m12134c0971" x="816.572603" y="534.04" style="stroke: #000000; stroke-width: 0.8"/>
      </g>
     </g>
     <g id="text_6">
      <!-- 5 -->
      <g transform="translate(813.391353 548.638438) scale(0.1 -0.1)">
       <defs>
        <path id="DejaVuSans-35" d="M 691 4666 
L 3169 4666 
L 3169 4134 
L 1269 4134 
L 1269 2991 
Q 1406 3038 1543 3061 
Q 1681 3084 1819 3084 
Q 2600 3084 3056 2656 
Q 3513 2228 3513 1497 
Q 3513 744 3044 326 
Q 2575 -91 1722 -91 
Q 1428 -91 1123 -41 
Q 819 9 494 109 
L 494 744 
Q 775 591 1075 516 
Q 1375 441 1709 441 
Q 2250 441 2565 725 
Q 2881 1009 2881 1497 
Q 2881 1984 2565 2268 
Q 2250 2553 1709 2553 
Q 1456 2553 1204 2497 
Q 953 2441 691 2322 
L 691 4666 
z
" transform="scale(0.015625)"/>
       </defs>
       <use xlink:href="#DejaVuSans-35"/>
      </g>
     </g>
    </g>
    <g id="text_7">
     <!-- Retention Time (min) -->
     <g transform="translate(397.61 562.316562) scale(0.1 -0.1)">
      <defs>
       <path id="DejaVuSans-52" d="M 2841 2188 
Q 3044 2119 3236 1894 
Q 3428 1669 3622 1275 
L 4263 0 
L 3584 0 
L 2988 1197 
Q 2756 1666 2539 1819 
Q 2322 1972 1947 1972 
L 1259 1972 
L 1259 0 
L 628 0 
L 628 4666 
L 2053 4666 
Q 2853 4666 3247 4331 
Q 3641 3997 3641 3322 
Q 3641 2881 3436 2590 
Q 3231 2300 2841 2188 
z
M 1259 4147 
L 1259 2491 
L 2053 2491 
Q 2509 2491 2742 2702 
Q 2975 2913 2975 3322 
Q 2975 3731 2742 3939 
Q 2509 4147 2053 4147 
L 1259 4147 
z
" transform="scale(0.015625)"/>
       <path id="DejaVuSans-65" d="M 3597 1894 
L 3597 1613 
L 953 1613 
Q 991 1019 1311 708 
Q 1631 397 2203 397 
Q 2534 397 2845 478 
Q 3156 559 3463 722 
L 3463 178 
Q 3153 47 2828 -22 
Q 2503 -91 2169 -91 
Q 1331 -91 842 396 
Q 353 884 353 1716 
Q 353 2575 817 3079 
Q 1281 3584 2069 3584 
Q 2775 3584 3186 3129 
Q 3597 2675 3597 1894 
z
M 3022 2063 
Q 3016 2534 2758 2815 
Q 2500 3097 2075 3097 
Q 1594 3097 1305 2825 
Q 1016 2553 972 2059 
L 3022 2063 
z
" transform="scale(0.015625)"/>
       <path id="DejaVuSans-74" d="M 1172 4494 
L 1172 3500 
L 2356 3500 
L 2356 3053 
L 1172 3053 
L 1172 1153 
Q 1172 725 1289 603 
Q 1406 481 1766 481 
L 2356 481 
L 2356 0 
L 1766 0 
Q 1100 0 847 248 
Q 594 497 594 1153 
L 594 3053 
L 172 3053 
L 172 3500 
L 594 3500 
L 594 4494 
L 1172 4494 
z
" transform="scale(0.015625)"/>
       <path id="DejaVuSans-6e" d="M 3513 2113 
L 3513 0 
L 2938 0 
L 2938 2094 
Q 2938 2591 2744 2837 
Q 2550 3084 2163 3084 
Q 1697 3084 1428 2787 
Q 1159 2491 1159 1978 
L 1159 0 
L 581 0 
L 581 3500 
L 1159 3500 
L 1159 2956 
Q 1366 3272 1645 3428 
Q 1925 3584 2291 3584 
Q 2894 3584 3203 3211 
Q 3513 2838 3513 2113 
z
" transform="scale(0.015625)"/>
       <path id="DejaVuSans-69" d="M 603 3500 
L 1178 3500 
L 1178 0 
L 603 0 
L 603 3500 
z
M 603 4863 
L 1178 4863 
L 1178 4134 
L 603 4134 
L 603 4863 
z
" transform="scale(0.015625)"/>
       <path id="DejaVuSans-6f" d="M 1959 3097 
Q 1497 3097 1228 2736 
Q 959 2375 959 1747 
Q 959 1119 1226 758 
Q 1494 397 1959 397 
Q 2419 397 2687 759 
Q 2956 1122 2956 1747 
Q 2956 2369 2687 2733 
Q 2419 3097 1959 3097 
z
M 1959 3584 
Q 2709 3584 3137 3096 
Q 3566 2609 3566 1747 
Q 3566 888 3137 398 
Q 2709 -91 1959 -91 
Q 1206 -91 779 398 
Q 353 888 353 1747 
Q 353 2609 779 3096 
Q 1206 3584 1959 3584 
z
" transform="scale(0.015625)"/>
       <path id="DejaVuSans-20" transform="scale(0.015625)"/>
       <path id="DejaVuSans-54" d="M -19 4666 
L 3928 4666 
L 3928 4134 
L 2272 4134 
L 2272 0 
L 1638 0 
L 1638 4134 
L -19 4134 
L -19 4666 
z
" transform="scale(0.015625)"/>
       <path id="DejaVuSans-6d" d="M 3328 2828 
Q 3544 3216 3844 3400 
Q 4144 3584 4550 3584 
Q 5097 3584 5394 3201 
Q 5691 2819 5691 2113 
L 5691 0 
L 5113 0 
L 5113 2094 
Q 5113 2597 4934 2840 
Q 4756 3084 4391 3084 
Q 3944 3084 3684 2787 
Q 3425 2491 3425 1978 
L 3425 0 
L 2847 0 
L 2847 2094 
Q 2847 2600 2669 2842 
Q 2491 3084 2119 3084 
Q 1678 3084 1418 2786 
Q 1159 2488 1159 1978 
L 1159 0 
L 581 0 
L 581 3500 
L 1159 3500 
L 1159 2956 
Q 1356 3278 1631 3431 
Q 1906 3584 2284 3584 
Q 2666 3584 2933 3390 
Q 3200 3197 3328 2828 
z
" transform="scale(0.015625)"/>
       <path id="DejaVuSans-28" d="M 1984 4856 
Q 1566 4138 1362 3434 
Q 1159 2731 1159 2009 
Q 1159 1288 1364 580 
Q 1569 -128 1984 -844 
L 1484 -844 
Q 1016 -109 783 600 
Q 550 1309 550 2009 
Q 550 2706 781 3412 
Q 1013 4119 1484 4856 
L 1984 4856 
z
" transform="scale(0.015625)"/>
       <path id="DejaVuSans-29" d="M 513 4856 
L 1013 4856 
Q 1481 4119 1714 3412 
Q 1947 2706 1947 2009 
Q 1947 1309 1714 600 
Q 1481 -109 1013 -844 
L 513 -844 
Q 928 -128 1133 580 
Q 1338 1288 1338 2009 
Q 1338 2731 1133 3434 
Q 928 4138 513 4856 
z
" transform="scale(0.015625)"/>
      </defs>
      <use xlink:href="#DejaVuSans-52"/>
      <use xlink:href="#DejaVuSans-65" transform="translate(64.982422 0)"/>
      <use xlink:href="#DejaVuSans-74" transform="translate(126.505859 0)"/>
      <use xlink:href="#DejaVuSans-65" transform="translate(165.714844 0)"/>
      <use xlink:href="#DejaVuSans-6e" transform="translate(227.238281 0)"/>
      <use xlink:href="#DejaVuSans-74" transform="translate(290.617188 0)"/>
      <use xlink:href="#DejaVuSans-69" transform="translate(329.826172 0)"/>
      <use xlink:href="#DejaVuSans-6f" transform="translate(357.609375 0)"/>
      <use xlink:href="#DejaVuSans-6e" transform="translate(418.791016 0)"/>
      <use xlink:href="#DejaVuSans-20" transform="translate(482.169922 0)"/>
      <use xlink:href="#DejaVuSans-54" transform="translate(513.957031 0)"/>
      <use xlink:href="#DejaVuSans-69" transform="translate(571.916016 0)"/>
      <use xlink:href="#DejaVuSans-6d" transform="translate(599.699219 0)"/>
      <use xlink:href="#DejaVuSans-65" transform="translate(697.111328 0)"/>
      <use xlink:href="#DejaVuSans-20" transform="translate(758.634766 0)"/>
      <use xlink:href="#DejaVuSans-28" transform="translate(790.421875 0)"/>
      <use xlink:href="#DejaVuSans-6d" transform="translate(829.435547 0)"/>
      <use xlink:href="#DejaVuSans-69" transform="translate(926.847656 0)"/>
      <use xlink:href="#DejaVuSans-6e" transform="translate(954.630859 0)"/>
      <use xlink:href="#DejaVuSans-29" transform="translate(1018.009766 0)"/>
     </g>
    </g>
   </g>
   <g id="matplotlib.axis_2">
    <g id="ytick_1">
     <g id="line2d_7">
      <defs>
       <path id="mbef6442f24" d="M 0 0 
L -3.5 0 
" style="stroke: #000000; stroke-width: 0.8"/>
      </defs>
      <g>
       <use xlink:href="#mbef6442f24" x="47.72" y="510.601521" style="stroke: #000000; stroke-width: 0.8"/>
      </g>
     </g>
     <g id="text_8">
      <!-- 0.0 -->
      <g style="fill: #0000ff" transform="translate(24.816875 514.40074) scale(0.1 -0.1)">
       <defs>
        <path id="DejaVuSans-2e" d="M 684 794 
L 1344 794 
L 1344 0 
L 684 0 
L 684 794 
z
" transform="scale(0.015625)"/>
       </defs>
       <use xlink:href="#DejaVuSans-30"/>
       <use xlink:href="#DejaVuSans-2e" transform="translate(63.623047 0)"/>
       <use xlink:href="#DejaVuSans-30" transform="translate(95.410156 0)"/>
      </g>
     </g>
    </g>
    <g id="ytick_2">
     <g id="line2d_8">
      <g>
       <use xlink:href="#mbef6442f24" x="47.72" y="418.467762" style="stroke: #000000; stroke-width: 0.8"/>
      </g>
     </g>
     <g id="text_9">
      <!-- 0.5 -->
      <g style="fill: #0000ff" transform="translate(24.816875 422.266981) scale(0.1 -0.1)">
       <use xlink:href="#DejaVuSans-30"/>
       <use xlink:href="#DejaVuSans-2e" transform="translate(63.623047 0)"/>
       <use xlink:href="#DejaVuSans-35" transform="translate(95.410156 0)"/>
      </g>
     </g>
    </g>
    <g id="ytick_3">
     <g id="line2d_9">
      <g>
       <use xlink:href="#mbef6442f24" x="47.72" y="326.334003" style="stroke: #000000; stroke-width: 0.8"/>
      </g>
     </g>
     <g id="text_10">
      <!-- 1.0 -->
      <g style="fill: #0000ff" transform="translate(24.816875 330.133222) scale(0.1 -0.1)">
       <use xlink:href="#DejaVuSans-31"/>
       <use xlink:href="#DejaVuSans-2e" transform="translate(63.623047 0)"/>
       <use xlink:href="#DejaVuSans-30" transform="translate(95.410156 0)"/>
      </g>
     </g>
    </g>
    <g id="ytick_4">
     <g id="line2d_10">
      <g>
       <use xlink:href="#mbef6442f24" x="47.72" y="234.200245" style="stroke: #000000; stroke-width: 0.8"/>
      </g>
     </g>
     <g id="text_11">
      <!-- 1.5 -->
      <g style="fill: #0000ff" transform="translate(24.816875 237.999463) scale(0.1 -0.1)">
       <use xlink:href="#DejaVuSans-31"/>
       <use xlink:href="#DejaVuSans-2e" transform="translate(63.623047 0)"/>
       <use xlink:href="#DejaVuSans-35" transform="translate(95.410156 0)"/>
      </g>
     </g>
    </g>
    <g id="ytick_5">
     <g id="line2d_11">
      <g>
       <use xlink:href="#mbef6442f24" x="47.72" y="142.066486" style="stroke: #000000; stroke-width: 0.8"/>
      </g>
     </g>
     <g id="text_12">
      <!-- 2.0 -->
      <g style="fill: #0000ff" transform="translate(24.816875 145.865705) scale(0.1 -0.1)">
       <use xlink:href="#DejaVuSans-32"/>
       <use xlink:href="#DejaVuSans-2e" transform="translate(63.623047 0)"/>
       <use xlink:href="#DejaVuSans-30" transform="translate(95.410156 0)"/>
      </g>
     </g>
    </g>
    <g id="ytick_6">
     <g id="line2d_12">
      <g>
       <use xlink:href="#mbef6442f24" x="47.72" y="49.932727" style="stroke: #000000; stroke-width: 0.8"/>
      </g>
     </g>
     <g id="text_13">
      <!-- 2.5 -->
      <g style="fill: #0000ff" transform="translate(24.816875 53.731946) scale(0.1 -0.1)">
       <use xlink:href="#DejaVuSans-32"/>
       <use xlink:href="#DejaVuSans-2e" transform="translate(63.623047 0)"/>
       <use xlink:href="#DejaVuSans-35" transform="translate(95.410156 0)"/>
      </g>
     </g>
    </g>
    <g id="text_14">
     <!-- Normalized Intensity -->
     <g style="fill: #0000ff" transform="translate(18.737187 332.167031) rotate(-90) scale(0.1 -0.1)">
      <defs>
       <path id="DejaVuSans-4e" d="M 628 4666 
L 1478 4666 
L 3547 763 
L 3547 4666 
L 4159 4666 
L 4159 0 
L 3309 0 
L 1241 3903 
L 1241 0 
L 628 0 
L 628 4666 
z
" transform="scale(0.015625)"/>
       <path id="DejaVuSans-72" d="M 2631 2963 
Q 2534 3019 2420 3045 
Q 2306 3072 2169 3072 
Q 1681 3072 1420 2755 
Q 1159 2438 1159 1844 
L 1159 0 
L 581 0 
L 581 3500 
L 1159 3500 
L 1159 2956 
Q 1341 3275 1631 3429 
Q 1922 3584 2338 3584 
Q 2397 3584 2469 3576 
Q 2541 3569 2628 3553 
L 2631 2963 
z
" transform="scale(0.015625)"/>
       <path id="DejaVuSans-61" d="M 2194 1759 
Q 1497 1759 1228 1600 
Q 959 1441 959 1056 
Q 959 750 1161 570 
Q 1363 391 1709 391 
Q 2188 391 2477 730 
Q 2766 1069 2766 1631 
L 2766 1759 
L 2194 1759 
z
M 3341 1997 
L 3341 0 
L 2766 0 
L 2766 531 
Q 2569 213 2275 61 
Q 1981 -91 1556 -91 
Q 1019 -91 701 211 
Q 384 513 384 1019 
Q 384 1609 779 1909 
Q 1175 2209 1959 2209 
L 2766 2209 
L 2766 2266 
Q 2766 2663 2505 2880 
Q 2244 3097 1772 3097 
Q 1472 3097 1187 3025 
Q 903 2953 641 2809 
L 641 3341 
Q 956 3463 1253 3523 
Q 1550 3584 1831 3584 
Q 2591 3584 2966 3190 
Q 3341 2797 3341 1997 
z
" transform="scale(0.015625)"/>
       <path id="DejaVuSans-6c" d="M 603 4863 
L 1178 4863 
L 1178 0 
L 603 0 
L 603 4863 
z
" transform="scale(0.015625)"/>
       <path id="DejaVuSans-7a" d="M 353 3500 
L 3084 3500 
L 3084 2975 
L 922 459 
L 3084 459 
L 3084 0 
L 275 0 
L 275 525 
L 2438 3041 
L 353 3041 
L 353 3500 
z
" transform="scale(0.015625)"/>
       <path id="DejaVuSans-64" d="M 2906 2969 
L 2906 4863 
L 3481 4863 
L 3481 0 
L 2906 0 
L 2906 525 
Q 2725 213 2448 61 
Q 2172 -91 1784 -91 
Q 1150 -91 751 415 
Q 353 922 353 1747 
Q 353 2572 751 3078 
Q 1150 3584 1784 3584 
Q 2172 3584 2448 3432 
Q 2725 3281 2906 2969 
z
M 947 1747 
Q 947 1113 1208 752 
Q 1469 391 1925 391 
Q 2381 391 2643 752 
Q 2906 1113 2906 1747 
Q 2906 2381 2643 2742 
Q 2381 3103 1925 3103 
Q 1469 3103 1208 2742 
Q 947 2381 947 1747 
z
" transform="scale(0.015625)"/>
       <path id="DejaVuSans-49" d="M 628 4666 
L 1259 4666 
L 1259 0 
L 628 0 
L 628 4666 
z
" transform="scale(0.015625)"/>
       <path id="DejaVuSans-73" d="M 2834 3397 
L 2834 2853 
Q 2591 2978 2328 3040 
Q 2066 3103 1784 3103 
Q 1356 3103 1142 2972 
Q 928 2841 928 2578 
Q 928 2378 1081 2264 
Q 1234 2150 1697 2047 
L 1894 2003 
Q 2506 1872 2764 1633 
Q 3022 1394 3022 966 
Q 3022 478 2636 193 
Q 2250 -91 1575 -91 
Q 1294 -91 989 -36 
Q 684 19 347 128 
L 347 722 
Q 666 556 975 473 
Q 1284 391 1588 391 
Q 1994 391 2212 530 
Q 2431 669 2431 922 
Q 2431 1156 2273 1281 
Q 2116 1406 1581 1522 
L 1381 1569 
Q 847 1681 609 1914 
Q 372 2147 372 2553 
Q 372 3047 722 3315 
Q 1072 3584 1716 3584 
Q 2034 3584 2315 3537 
Q 2597 3491 2834 3397 
z
" transform="scale(0.015625)"/>
       <path id="DejaVuSans-79" d="M 2059 -325 
Q 1816 -950 1584 -1140 
Q 1353 -1331 966 -1331 
L 506 -1331 
L 506 -850 
L 844 -850 
Q 1081 -850 1212 -737 
Q 1344 -625 1503 -206 
L 1606 56 
L 191 3500 
L 800 3500 
L 1894 763 
L 2988 3500 
L 3597 3500 
L 2059 -325 
z
" transform="scale(0.015625)"/>
      </defs>
      <use xlink:href="#DejaVuSans-4e"/>
      <use xlink:href="#DejaVuSans-6f" transform="translate(74.804688 0)"/>
      <use xlink:href="#DejaVuSans-72" transform="translate(135.986328 0)"/>
      <use xlink:href="#DejaVuSans-6d" transform="translate(175.349609 0)"/>
      <use xlink:href="#DejaVuSans-61" transform="translate(272.761719 0)"/>
      <use xlink:href="#DejaVuSans-6c" transform="translate(334.041016 0)"/>
      <use xlink:href="#DejaVuSans-69" transform="translate(361.824219 0)"/>
      <use xlink:href="#DejaVuSans-7a" transform="translate(389.607422 0)"/>
      <use xlink:href="#DejaVuSans-65" transform="translate(442.097656 0)"/>
      <use xlink:href="#DejaVuSans-64" transform="translate(503.621094 0)"/>
      <use xlink:href="#DejaVuSans-20" transform="translate(567.097656 0)"/>
      <use xlink:href="#DejaVuSans-49" transform="translate(598.884766 0)"/>
      <use xlink:href="#DejaVuSans-6e" transform="translate(628.376953 0)"/>
      <use xlink:href="#DejaVuSans-74" transform="translate(691.755859 0)"/>
      <use xlink:href="#DejaVuSans-65" transform="translate(730.964844 0)"/>
      <use xlink:href="#DejaVuSans-6e" transform="translate(792.488281 0)"/>
      <use xlink:href="#DejaVuSans-73" transform="translate(855.867188 0)"/>
      <use xlink:href="#DejaVuSans-69" transform="translate(907.966797 0)"/>
      <use xlink:href="#DejaVuSans-74" transform="translate(935.75 0)"/>
      <use xlink:href="#DejaVuSans-79" transform="translate(974.958984 0)"/>
     </g>
    </g>
   </g>
   <g id="line2d_13">
    <path d="M 84.332727 510.601521 
L 89.222574 510.52774 
L 103.892114 509.771033 
L 110.004423 509.781426 
L 125.896424 510.087392 
L 141.788426 510.119165 
L 156.457966 510.110143 
L 162.570275 510.124578 
L 163.792736 509.982819 
L 165.015198 509.551119 
L 166.23766 508.702542 
L 169.905045 505.0022 
L 171.127506 504.199241 
L 172.349968 503.798216 
L 173.57243 503.739231 
L 174.794891 503.947222 
L 176.017353 504.393127 
L 177.239815 505.080976 
L 179.684738 507.009504 
L 180.9072 508.01429 
L 182.129662 508.864252 
L 183.352123 509.481264 
L 187.019508 510.729523 
L 188.24197 510.987273 
L 189.464432 510.831583 
L 190.686893 510.263667 
L 191.909355 509.562552 
L 193.131817 509.039992 
L 194.354278 508.848488 
L 195.57674 508.968189 
L 200.466587 510.23289 
L 202.91151 510.366724 
L 218.803512 509.8119 
L 231.028129 509.963461 
L 239.58536 509.945633 
L 245.697669 509.922666 
L 256.699824 509.969842 
L 261.589671 509.833727 
L 265.257056 509.508966 
L 267.701979 509.016549 
L 270.146902 508.188428 
L 273.814287 506.649419 
L 276.259211 505.396671 
L 278.704134 503.847889 
L 284.816443 499.657728 
L 287.261366 498.361759 
L 289.706289 497.479952 
L 290.928751 497.210942 
L 292.151213 497.058861 
L 293.373674 497.021718 
L 295.818598 497.277476 
L 298.263521 497.926954 
L 300.708444 498.878472 
L 304.375829 500.643313 
L 309.265676 503.091976 
L 312.933061 504.637207 
L 316.600446 505.832486 
L 320.267831 506.722854 
L 323.935216 507.37392 
L 327.602601 507.821255 
L 330.047525 507.935153 
L 336.159833 507.772722 
L 342.272141 508.228848 
L 343.494603 508.168795 
L 344.717065 507.850458 
L 345.939526 507.155868 
L 348.38445 505.4063 
L 349.606912 505.078291 
L 350.829373 505.304614 
L 353.274297 506.604149 
L 354.496758 507.219472 
L 355.71922 507.669723 
L 358.164143 508.161881 
L 364.276452 508.774519 
L 367.943837 508.987576 
L 375.278607 509.106844 
L 378.945992 508.990781 
L 387.503224 508.434052 
L 388.725685 508.004257 
L 389.948147 506.951747 
L 391.170609 505.204055 
L 392.39307 503.000468 
L 393.615532 500.519325 
L 394.837994 497.590385 
L 397.282917 490.806308 
L 398.505379 488.70048 
L 399.72784 488.527165 
L 400.950302 490.108311 
L 404.617687 497.582287 
L 405.840149 499.253787 
L 407.06261 500.40163 
L 408.285072 501.157702 
L 409.507534 501.635121 
L 411.952457 502.134468 
L 418.064766 503.042303 
L 421.732151 503.197415 
L 424.177074 503.195552 
L 430.289382 502.744681 
L 431.511844 502.225124 
L 432.734306 500.88286 
L 433.956767 498.368486 
L 436.401691 491.417619 
L 437.624152 489.144538 
L 438.846614 488.785969 
L 440.069076 490.175106 
L 443.736461 497.054631 
L 444.958922 498.489616 
L 446.181384 499.378367 
L 447.403846 499.902616 
L 449.848769 500.459287 
L 451.071231 500.531451 
L 452.293693 500.410349 
L 454.738616 499.888238 
L 455.961078 499.780475 
L 457.183539 499.875808 
L 463.295848 501.038333 
L 464.518309 500.872308 
L 465.740771 500.260492 
L 466.963233 499.128297 
L 468.185694 497.69874 
L 469.408156 496.45461 
L 470.630618 495.843632 
L 471.853079 496.002454 
L 473.075541 496.734201 
L 475.520464 498.552311 
L 476.742926 499.176411 
L 477.965388 499.564632 
L 480.410311 499.988797 
L 485.300158 500.586754 
L 487.745081 500.625644 
L 492.634928 500.626337 
L 495.079851 500.663928 
L 496.302313 500.592095 
L 497.524775 500.3616 
L 501.19216 499.078421 
L 502.414621 498.909769 
L 504.859545 499.033728 
L 506.082006 499.107437 
L 507.304468 498.67949 
L 508.52693 495.008841 
L 509.749391 480.85272 
L 510.971853 448.377196 
L 513.416776 352.668116 
L 514.639238 326.334003 
L 515.8617 329.348605 
L 517.084161 355.186301 
L 519.529085 422.783897 
L 520.751547 446.631294 
L 521.974008 460.429784 
L 523.19647 465.812309 
L 524.418932 466.336716 
L 525.641393 466.086502 
L 526.863855 467.706842 
L 528.086317 471.490478 
L 529.308778 476.192906 
L 530.53124 480.452908 
L 531.753702 483.634979 
L 532.976163 485.837858 
L 534.198625 487.440803 
L 535.421087 488.661446 
L 536.643548 489.408582 
L 537.86601 489.485525 
L 539.088472 488.931366 
L 540.310933 488.122488 
L 541.533395 487.533856 
L 542.755857 487.447386 
L 543.978318 487.850691 
L 546.423242 489.183082 
L 547.645703 489.6412 
L 548.868165 489.817085 
L 550.090627 489.716222 
L 551.313088 489.369692 
L 552.53555 488.797272 
L 553.758012 487.998889 
L 554.980474 486.952456 
L 556.202935 485.604158 
L 557.425397 483.869632 
L 558.647859 481.674432 
L 559.87032 479.025978 
L 562.315244 472.914189 
L 564.760167 466.664942 
L 565.982629 464.211039 
L 567.20509 463.29769 
L 568.427552 464.756739 
L 569.650014 468.641859 
L 573.317399 485.164806 
L 574.53986 489.490216 
L 575.762322 492.932173 
L 576.984784 495.661048 
L 578.207245 497.823623 
L 579.429707 499.531141 
L 580.652169 500.893846 
L 583.097092 503.026669 
L 585.542015 504.718754 
L 586.764477 505.353234 
L 587.986939 505.801132 
L 590.431862 506.233583 
L 592.876786 506.567265 
L 596.544171 507.358604 
L 597.766632 507.456796 
L 598.989094 507.35114 
L 602.656479 506.527769 
L 605.101402 506.566009 
L 607.546326 506.784061 
L 609.991249 507.324608 
L 613.658634 508.318465 
L 616.103557 508.666872 
L 619.770942 508.933168 
L 624.660789 509.05157 
L 638.107868 508.697201 
L 639.330329 508.425246 
L 642.997714 507.214679 
L 644.220176 507.207794 
L 645.442638 507.480586 
L 649.110023 508.636961 
L 651.554946 508.995054 
L 655.222331 509.156315 
L 668.66941 509.299027 
L 672.336795 509.288893 
L 678.449103 509.385916 
L 679.671565 509.289861 
L 680.894026 509.031518 
L 682.116488 508.54489 
L 684.561411 507.323684 
L 685.783873 507.055294 
L 687.006335 507.174779 
L 689.451258 508.075367 
L 690.67372 508.517649 
L 691.896182 508.830645 
L 693.118643 509.003802 
L 694.341105 509.032226 
L 695.563567 508.62407 
L 696.786028 506.011533 
L 698.00849 496.179566 
L 699.230952 472.330119 
L 700.453413 433.432075 
L 701.675875 390.579317 
L 702.898337 361.627716 
L 704.120798 357.903281 
L 705.34326 377.183671 
L 707.788183 438.764927 
L 709.010645 462.362095 
L 710.233107 477.473184 
L 711.455568 485.949605 
L 712.67803 490.511025 
L 713.900492 493.353639 
L 717.567877 500.333826 
L 718.790338 502.317932 
L 720.0128 503.8943 
L 721.235262 505.055655 
L 722.457723 505.878854 
L 723.680185 506.466143 
L 726.125109 507.259127 
L 728.570032 507.811121 
L 732.237417 508.378864 
L 737.127264 508.878788 
L 742.01711 509.08597 
L 748.129419 509.235683 
L 754.241727 509.12281 
L 757.909112 509.280376 
L 762.798959 509.512517 
L 765.243882 509.457806 
L 766.466344 509.281286 
L 767.688806 508.904051 
L 775.023576 505.410197 
L 778.690961 503.257265 
L 779.913422 501.735305 
L 781.135884 497.333328 
L 782.358346 487.55115 
L 784.803269 456.412953 
L 786.025731 446.401723 
L 787.248192 446.35804 
L 788.470654 455.094277 
L 790.915577 480.645091 
L 792.138039 490.251644 
L 793.360501 496.369035 
L 794.582963 499.747042 
L 795.805424 501.499512 
L 801.917733 506.717238 
L 803.140194 507.569871 
L 804.362656 508.213633 
L 805.585118 508.670322 
L 808.030041 509.20111 
L 811.697426 509.552331 
L 816.587273 509.843298 
L 816.587273 509.843298 
" clip-path="url(#pbd9eb7f87d)" style="fill: none; stroke: #0000ff; stroke-width: 1.5; stroke-linecap: square"/>
   </g>
   <g id="line2d_14">
    <path d="M 90.679748 234.195014 
L 214.848115 234.172772 
L 347.417727 234.177428 
L 348.768303 234.045332 
L 349.441635 233.901331 
L 350.121568 233.933498 
L 350.121568 233.797597 
L 350.459945 233.713203 
L 351.478256 233.813094 
L 351.478256 233.79701 
L 352.154522 233.863778 
L 352.154522 233.84821 
L 354.176229 233.914106 
L 357.558536 234.01793 
L 357.558536 234.01684 
L 358.237246 234.135079 
L 360.944021 234.125616 
L 360.944021 234.13223 
L 362.980887 234.137821 
L 366.70695 234.155259 
L 366.70695 234.166476 
L 398.998275 234.170839 
L 510.121998 234.046489 
L 511.153266 233.765086 
L 511.840045 233.32073 
L 511.840045 232.5317 
L 512.183313 232.145206 
L 512.183313 229.599143 
L 512.526091 228.79381 
L 512.526091 225.562624 
L 512.865935 224.213749 
L 512.865935 217.182895 
L 513.20309 215.379516 
L 513.20309 207.345678 
L 513.534377 205.121115 
L 513.534377 195.759339 
L 513.863464 191.080951 
L 513.863464 169.906739 
L 513.863464 173.003016 
L 514.195485 170.311101 
L 514.195485 160.296794 
L 514.523838 158.086536 
L 514.523838 145.805116 
L 514.858548 145.554125 
L 514.858548 112.556304 
L 515.185678 128.380177 
L 515.185678 91.623639 
L 515.185678 111.856978 
L 515.512809 105.125233 
L 515.512809 86.045107 
L 515.839695 117.672493 
L 515.839695 89.538011 
L 516.166582 92.731603 
L 516.166582 84.882016 
L 516.493468 92.134012 
L 516.493468 56.894309 
L 516.838691 88.965941 
L 516.838691 49.932727 
L 517.165333 96.885149 
L 517.165333 61.36488 
L 517.492219 99.735773 
L 517.492219 67.119683 
L 517.819105 109.799608 
L 517.819105 78.842293 
L 518.145747 116.092556 
L 518.145747 86.781445 
L 518.145747 116.801752 
L 518.472878 116.398611 
L 518.472878 120.230223 
L 518.799764 118.855445 
L 518.799764 127.203643 
L 519.12665 129.388105 
L 519.12665 138.291201 
L 519.453781 141.794349 
L 519.453781 147.969166 
L 519.786535 152.154971 
L 519.786535 133.71029 
L 520.113911 156.964803 
L 520.113911 137.858778 
L 520.441286 161.220508 
L 520.441286 145.680792 
L 520.770617 164.744412 
L 520.770617 147.766035 
L 521.098237 169.455277 
L 521.098237 154.5325 
L 521.426101 174.064331 
L 521.426101 158.878629 
L 521.426101 175.043889 
L 521.75421 175.34131 
L 521.75421 176.213039 
L 522.082074 175.753758 
L 522.082074 178.473949 
L 522.410183 182.18829 
L 522.410183 168.157306 
L 522.410183 181.039233 
L 522.738291 181.071306 
L 522.738291 183.337493 
L 523.0664 183.319176 
L 523.0664 184.518583 
L 523.397687 186.243988 
L 523.397687 175.930889 
L 523.727507 189.222149 
L 523.727507 177.759961 
L 524.056105 192.239955 
L 524.056105 184.0221 
L 524.384458 195.813412 
L 524.384458 186.273725 
L 524.717946 198.718894 
L 524.717946 189.484325 
L 524.717946 198.2855 
L 525.047521 198.545967 
L 525.047521 199.956232 
L 525.047521 199.245407 
L 525.376608 208.805096 
L 525.376608 201.687942 
L 525.705206 201.747399 
L 525.705206 203.264286 
L 525.705206 203.223673 
L 526.035026 203.449193 
L 526.035026 204.684801 
L 526.363868 205.116837 
L 526.363868 205.998065 
L 526.692955 207.826858 
L 526.692955 201.179145 
L 527.022041 209.539115 
L 527.022041 203.782774 
L 527.350639 210.952867 
L 527.350639 205.102698 
L 527.350639 211.301937 
L 527.678992 205.018685 
L 528.007346 211.412849 
L 528.007346 207.08368 
L 528.336188 213.331865 
L 528.336188 209.04832 
L 528.66503 215.287678 
L 528.66503 210.41537 
L 528.993628 215.201286 
L 528.993628 210.104711 
L 529.32247 215.916431 
L 529.32247 211.288546 
L 529.32247 215.619231 
L 529.657424 216.108151 
L 529.657424 217.455725 
L 529.986756 217.641352 
L 529.986756 218.227391 
L 530.315598 219.179307 
L 530.315598 215.560977 
L 530.315598 219.099402 
L 530.645418 219.120065 
L 530.645418 219.870092 
L 530.975238 219.818059 
L 530.975238 219.640251 
L 531.305547 220.193386 
L 531.305547 216.851692 
L 531.63659 217.031552 
L 531.967143 217.376636 
L 531.967143 217.957225 
L 532.297453 218.230176 
L 532.297453 218.791148 
L 532.632896 222.64063 
L 532.632896 219.738538 
L 532.963205 223.287248 
L 532.963205 220.855791 
L 533.295226 223.895795 
L 533.295226 221.457707 
L 533.627491 224.531326 
L 533.627491 222.194656 
L 533.627491 224.404267 
L 534.292266 224.463439 
L 534.292266 224.207268 
L 534.630154 224.6423 
L 534.630154 222.232651 
L 534.961686 224.749701 
L 534.961686 222.368039 
L 535.29664 225.086569 
L 535.29664 222.964029 
L 535.628905 223.200105 
L 535.961659 223.208703 
L 535.961659 223.77566 
L 536.294169 223.988471 
L 536.294169 224.407124 
L 536.626678 226.800302 
L 536.626678 225.05963 
L 536.959921 224.709012 
L 537.293898 224.823064 
L 537.293898 224.358894 
L 537.627141 222.541434 
L 537.960384 225.228414 
L 538.294361 225.114853 
L 538.294361 225.70939 
L 538.629071 227.880583 
L 538.629071 226.402758 
L 538.629071 228.124617 
L 538.965248 228.151615 
L 538.965248 228.560068 
L 539.30118 228.449314 
L 539.30118 228.697879 
L 539.30118 228.647617 
L 539.641269 228.770516 
L 539.641269 228.760835 
L 539.976957 228.700533 
L 539.976957 228.753323 
L 540.314356 229.066904 
L 540.314356 227.798523 
L 540.652 229.455376 
L 540.652 228.296288 
L 540.993556 229.64854 
L 540.993556 228.447602 
L 540.993556 229.631365 
L 541.338046 229.644657 
L 541.338046 229.80925 
L 541.679112 229.822791 
L 541.679112 230.029344 
L 542.021646 230.213414 
L 542.021646 229.235314 
L 542.360268 230.461218 
L 542.360268 229.502833 
L 542.69889 230.551357 
L 542.69889 229.399813 
L 543.039957 230.370581 
L 543.039957 229.466144 
L 543.718423 229.504057 
L 543.718423 229.83171 
L 544.056311 229.762996 
L 544.056311 229.638854 
L 544.395667 229.756129 
L 544.740401 228.790279 
L 544.740401 229.586671 
L 545.080734 229.757615 
L 545.080734 229.973546 
L 545.420823 231.081712 
L 545.76189 231.264713 
L 545.76189 230.509904 
L 546.103446 231.398607 
L 546.103446 230.747407 
L 546.445002 231.570292 
L 546.445002 230.931464 
L 546.786313 231.757359 
L 546.786313 231.009498 
L 547.129336 231.760117 
L 547.129336 230.997643 
L 547.470891 231.574662 
L 547.470891 230.902377 
L 547.817093 231.663289 
L 547.817093 230.905008 
L 548.158893 231.679763 
L 548.158893 231.09221 
L 548.500938 231.80659 
L 548.500938 231.085467 
L 548.842738 231.781691 
L 548.842738 231.19488 
L 548.842738 231.749929 
L 549.526338 231.656968 
L 549.873762 231.683607 
L 549.873762 231.117747 
L 550.216051 231.817761 
L 550.216051 231.155278 
L 550.558341 231.859451 
L 550.558341 231.341649 
L 550.90063 231.980223 
L 550.90063 231.413558 
L 551.242919 232.077281 
L 551.242919 231.556775 
L 551.585453 232.145573 
L 551.585453 231.595145 
L 551.928231 231.598857 
L 551.928231 231.58487 
L 552.27052 232.11133 
L 552.27052 231.609789 
L 552.613543 232.117596 
L 552.613543 232.097052 
L 552.956566 232.238663 
L 552.956566 232.219885 
L 553.2991 232.809729 
L 553.2991 232.380115 
L 553.641633 232.380036 
L 553.641633 232.206722 
L 553.984656 232.274299 
L 553.984656 231.791021 
L 554.327434 232.331277 
L 554.327434 231.749671 
L 554.670946 232.360465 
L 554.670946 231.917183 
L 555.019592 232.417887 
L 555.019592 231.836393 
L 555.362615 232.418466 
L 555.362615 231.937322 
L 555.705882 232.385192 
L 555.705882 231.924769 
L 556.048661 232.485477 
L 556.048661 232.033655 
L 556.392172 232.529447 
L 556.392172 231.998917 
L 556.740329 232.436481 
L 556.740329 232.010151 
L 556.740329 232.387245 
L 557.426864 232.441757 
L 557.426864 232.442093 
L 557.770376 232.530896 
L 557.770376 232.112476 
L 557.770376 232.564588 
L 558.114376 232.514656 
L 558.458132 232.943697 
L 558.458132 232.606591 
L 558.801889 232.697322 
L 559.145156 232.385263 
L 559.832913 232.39055 
L 560.182048 232.801835 
L 560.182048 232.479866 
L 560.182048 232.872472 
L 560.525804 232.90178 
L 560.870049 232.475477 
L 560.870049 232.764437 
L 561.213806 232.790061 
L 561.213806 232.394511 
L 561.557317 232.788576 
L 561.901807 232.855143 
L 561.901807 232.831616 
L 562.245808 233.178746 
L 562.245808 232.796357 
L 562.590297 233.1939 
L 562.590297 232.844382 
L 563.278543 232.868552 
L 563.278543 232.526474 
L 563.623278 232.938151 
L 563.623278 232.651147 
L 563.967278 233.037184 
L 563.967278 232.735345 
L 564.31079 233.081401 
L 564.31079 232.713322 
L 564.31079 232.983203 
L 565.348904 233.101918 
L 565.348904 232.807293 
L 565.694372 233.095892 
L 565.694372 232.726214 
L 566.038617 233.025381 
L 566.038617 232.780061 
L 566.383352 233.052936 
L 566.383352 232.775196 
L 566.727841 233.166579 
L 566.727841 232.871835 
L 567.072331 233.135348 
L 567.072331 232.897604 
L 567.416821 233.176819 
L 567.416821 232.893095 
L 568.454691 232.982124 
L 568.454691 232.973338 
L 568.798936 233.257393 
L 568.798936 232.9923 
L 568.798936 233.184014 
L 569.83216 233.281311 
L 569.83216 233.244886 
L 570.176895 233.505564 
L 570.176895 233.309843 
L 570.872231 233.311416 
L 570.872231 233.063636 
L 571.216721 233.330822 
L 571.216721 233.131863 
L 571.561455 233.367849 
L 571.561455 233.155238 
L 571.905944 233.37749 
L 571.905944 233.126432 
L 572.250679 233.341174 
L 572.250679 233.110622 
L 572.940147 233.004887 
L 572.940147 233.124689 
L 573.284637 233.123032 
L 573.284637 233.174769 
L 573.628882 233.508832 
L 573.628882 233.316516 
L 573.973127 233.440852 
L 573.973127 233.251982 
L 574.318106 233.450504 
L 574.318106 233.163166 
L 574.662107 233.409801 
L 574.662107 233.19158 
L 575.005863 233.396689 
L 575.005863 233.215906 
L 575.350108 233.496375 
L 575.350108 233.342224 
L 575.699732 233.58137 
L 575.699732 233.379996 
L 576.044222 233.340572 
L 576.388222 233.483159 
L 576.388222 233.315671 
L 576.732468 233.349867 
L 576.732468 233.529746 
L 577.075979 233.566315 
L 577.075979 233.410708 
L 577.424625 233.577929 
L 577.424625 233.567547 
L 577.768626 233.606225 
L 577.768626 233.407028 
L 578.112138 233.603678 
L 578.112138 233.461495 
L 578.456383 233.635639 
L 578.456383 233.448632 
L 578.800628 233.647162 
L 578.800628 233.449336 
L 579.144385 233.597638 
L 579.144385 233.43737 
L 579.488385 233.610475 
L 579.488385 233.45488 
L 579.831897 233.4917 
L 580.176387 233.320172 
L 580.521121 233.469377 
L 580.521121 233.33951 
L 581.558991 233.715428 
L 581.558991 233.562312 
L 581.558991 233.615765 
L 581.903725 233.444125 
L 582.593682 233.608067 
L 582.593682 233.503418 
L 582.938661 233.734852 
L 582.938661 233.587377 
L 583.283395 233.720858 
L 583.283395 233.592722 
L 583.283395 233.709593 
L 583.973842 233.700327 
L 583.973842 233.705991 
L 584.31882 233.736365 
L 584.31882 233.610636 
L 584.663555 233.72067 
L 584.663555 233.562755 
L 585.008044 233.674725 
L 585.008044 233.551695 
L 585.352534 233.696985 
L 585.352534 233.546218 
L 585.696779 233.707141 
L 585.696779 233.601214 
L 586.047381 233.693017 
L 586.047381 233.610136 
L 587.432675 233.699602 
L 587.432675 233.581982 
L 587.778142 233.717196 
L 587.778142 233.61262 
L 588.12361 233.731569 
L 588.12361 233.641417 
L 589.160747 233.629789 
L 589.506214 233.768609 
L 589.506214 233.638016 
L 589.851682 233.722702 
L 589.851682 233.633783 
L 590.887596 233.4422 
L 592.273867 233.789653 
L 592.273867 233.789114 
L 594.685051 233.748276 
L 594.685051 233.859543 
L 595.373052 233.974453 
L 595.373052 233.890475 
L 596.410678 233.881653 
L 596.755167 233.942651 
L 596.755167 233.878534 
L 603.659387 233.796182 
L 604.347388 233.928977 
L 604.347388 233.861881 
L 604.347388 233.937995 
L 604.691878 233.853844 
L 605.380124 233.889253 
L 605.380124 233.825634 
L 606.412126 233.899447 
L 606.412126 233.847893 
L 607.11064 233.930657 
L 607.11064 233.903679 
L 608.486643 233.923304 
L 608.486643 233.846278 
L 608.486643 233.919489 
L 609.863869 233.958353 
L 609.863869 233.880133 
L 610.207869 233.941159 
L 610.207869 233.864849 
L 611.932518 233.916826 
L 611.932518 233.943236 
L 612.965498 233.947022 
L 612.965498 233.883219 
L 614.344191 233.839864 
L 614.344191 233.866835 
L 614.68868 233.952656 
L 615.377415 233.892771 
L 616.066884 233.970135 
L 616.066884 233.916324 
L 617.113311 233.972265 
L 617.113311 233.932332 
L 617.113311 233.966646 
L 618.492981 233.926169 
L 618.492981 233.923144 
L 621.598278 233.973147 
L 621.598278 233.984956 
L 621.942768 234.031175 
L 621.942768 233.98864 
L 622.638349 233.928075 
L 627.471473 233.997061 
L 627.471473 233.946805 
L 627.815963 234.008042 
L 627.815963 233.968396 
L 628.850899 233.963118 
L 629.195878 234.042327 
L 629.195878 233.989865 
L 630.579949 233.959392 
L 631.958885 234.070422 
L 631.958885 234.034243 
L 632.999445 234.022709 
L 632.999445 234.013863 
L 634.032669 233.986722 
L 634.032669 233.9961 
L 634.722138 234.047345 
L 634.722138 234.023352 
L 635.756585 234.048181 
L 635.756585 234.039763 
L 636.791032 233.913611 
L 636.791032 233.951247 
L 637.480989 234.025455 
L 639.922245 233.989367 
L 640.266735 233.918767 
L 641.642493 234.050948 
L 644.072747 233.979564 
L 644.760015 233.906606 
L 646.822063 233.996815 
L 647.510065 233.963754 
L 647.510065 233.965595 
L 648.203201 234.028064 
L 648.203201 234.004487 
L 649.924671 233.977321 
L 650.958874 234.044121 
L 650.958874 234.027296 
L 651.653232 234.066786 
L 651.653232 234.05536 
L 656.142356 234.034031 
L 656.831824 233.983057 
L 657.521782 233.934883 
L 658.561363 234.033138 
L 658.561363 233.996059 
L 659.596055 234.021771 
L 663.396443 234.04119 
L 663.396443 234.061171 
L 664.092024 234.06439 
L 664.092024 234.031459 
L 665.127694 233.972537 
L 667.544256 234.055455 
L 667.544256 234.025101 
L 668.579192 234.074921 
L 668.579192 234.032691 
L 670.316066 234.067484 
L 670.316066 234.026262 
L 681.033143 234.043454 
L 681.033143 234.034436 
L 681.724322 234.012149 
L 682.759747 234.035709 
L 682.759747 234.03066 
L 768.951364 234.150716 
L 768.951364 234.165091 
L 771.037617 234.101208 
L 791.443681 234.087936 
L 792.4483 234.102464 
L 793.447051 234.134169 
L 793.447051 234.12284 
L 796.446239 234.169113 
L 800.436843 234.131613 
L 806.457466 234.140595 
L 809.831216 234.16555 
L 809.831216 234.138207 
L 812.871723 234.168816 
L 812.871723 234.168816 
" clip-path="url(#pbd9eb7f87d)" style="fill: none; stroke: #008000; stroke-width: 1.5; stroke-linecap: square"/>
   </g>
   <g id="patch_3">
    <path d="M 47.72 534.04 
L 47.72 26.88 
" style="fill: none; stroke: #000000; stroke-width: 0.8; stroke-linejoin: miter; stroke-linecap: square"/>
   </g>
   <g id="patch_4">
    <path d="M 853.2 534.04 
L 853.2 26.88 
" style="fill: none; stroke: #000000; stroke-width: 0.8; stroke-linejoin: miter; stroke-linecap: square"/>
   </g>
   <g id="patch_5">
    <path d="M 47.72 534.04 
L 853.2 534.04 
" style="fill: none; stroke: #000000; stroke-width: 0.8; stroke-linejoin: miter; stroke-linecap: square"/>
   </g>
   <g id="patch_6">
    <path d="M 47.72 26.88 
L 853.2 26.88 
" style="fill: none; stroke: #000000; stroke-width: 0.8; stroke-linejoin: miter; stroke-linecap: square"/>
   </g>
   <g id="patch_7">
    <path d="M 585.194836 342.055487 
Q 559.043542 347.883848 532.892248 353.712209 
L 533.762383 357.61642 
Q 527.255189 355.99308 520.747996 354.369739 
Q 525.949987 350.136763 531.151978 345.903786 
L 532.022113 349.807998 
Q 558.173407 343.979636 584.324701 338.151275 
L 585.194836 342.055487 
z
" style="stroke: #000000; stroke-linecap: round"/>
   </g>
   <g id="text_15">
    <!-- Peak: RT=2.96, Area=1.13e+04 -->
    <g style="fill: #ff0000" transform="translate(590.431862 325.561737) scale(0.1 -0.1)">
     <defs>
      <path id="DejaVuSans-50" d="M 1259 4147 
L 1259 2394 
L 2053 2394 
Q 2494 2394 2734 2622 
Q 2975 2850 2975 3272 
Q 2975 3691 2734 3919 
Q 2494 4147 2053 4147 
L 1259 4147 
z
M 628 4666 
L 2053 4666 
Q 2838 4666 3239 4311 
Q 3641 3956 3641 3272 
Q 3641 2581 3239 2228 
Q 2838 1875 2053 1875 
L 1259 1875 
L 1259 0 
L 628 0 
L 628 4666 
z
" transform="scale(0.015625)"/>
      <path id="DejaVuSans-6b" d="M 581 4863 
L 1159 4863 
L 1159 1991 
L 2875 3500 
L 3609 3500 
L 1753 1863 
L 3688 0 
L 2938 0 
L 1159 1709 
L 1159 0 
L 581 0 
L 581 4863 
z
" transform="scale(0.015625)"/>
      <path id="DejaVuSans-3a" d="M 750 794 
L 1409 794 
L 1409 0 
L 750 0 
L 750 794 
z
M 750 3309 
L 1409 3309 
L 1409 2516 
L 750 2516 
L 750 3309 
z
" transform="scale(0.015625)"/>
      <path id="DejaVuSans-3d" d="M 678 2906 
L 4684 2906 
L 4684 2381 
L 678 2381 
L 678 2906 
z
M 678 1631 
L 4684 1631 
L 4684 1100 
L 678 1100 
L 678 1631 
z
" transform="scale(0.015625)"/>
      <path id="DejaVuSans-39" d="M 703 97 
L 703 672 
Q 941 559 1184 500 
Q 1428 441 1663 441 
Q 2288 441 2617 861 
Q 2947 1281 2994 2138 
Q 2813 1869 2534 1725 
Q 2256 1581 1919 1581 
Q 1219 1581 811 2004 
Q 403 2428 403 3163 
Q 403 3881 828 4315 
Q 1253 4750 1959 4750 
Q 2769 4750 3195 4129 
Q 3622 3509 3622 2328 
Q 3622 1225 3098 567 
Q 2575 -91 1691 -91 
Q 1453 -91 1209 -44 
Q 966 3 703 97 
z
M 1959 2075 
Q 2384 2075 2632 2365 
Q 2881 2656 2881 3163 
Q 2881 3666 2632 3958 
Q 2384 4250 1959 4250 
Q 1534 4250 1286 3958 
Q 1038 3666 1038 3163 
Q 1038 2656 1286 2365 
Q 1534 2075 1959 2075 
z
" transform="scale(0.015625)"/>
      <path id="DejaVuSans-36" d="M 2113 2584 
Q 1688 2584 1439 2293 
Q 1191 2003 1191 1497 
Q 1191 994 1439 701 
Q 1688 409 2113 409 
Q 2538 409 2786 701 
Q 3034 994 3034 1497 
Q 3034 2003 2786 2293 
Q 2538 2584 2113 2584 
z
M 3366 4563 
L 3366 3988 
Q 3128 4100 2886 4159 
Q 2644 4219 2406 4219 
Q 1781 4219 1451 3797 
Q 1122 3375 1075 2522 
Q 1259 2794 1537 2939 
Q 1816 3084 2150 3084 
Q 2853 3084 3261 2657 
Q 3669 2231 3669 1497 
Q 3669 778 3244 343 
Q 2819 -91 2113 -91 
Q 1303 -91 875 529 
Q 447 1150 447 2328 
Q 447 3434 972 4092 
Q 1497 4750 2381 4750 
Q 2619 4750 2861 4703 
Q 3103 4656 3366 4563 
z
" transform="scale(0.015625)"/>
      <path id="DejaVuSans-2c" d="M 750 794 
L 1409 794 
L 1409 256 
L 897 -744 
L 494 -744 
L 750 256 
L 750 794 
z
" transform="scale(0.015625)"/>
      <path id="DejaVuSans-41" d="M 2188 4044 
L 1331 1722 
L 3047 1722 
L 2188 4044 
z
M 1831 4666 
L 2547 4666 
L 4325 0 
L 3669 0 
L 3244 1197 
L 1141 1197 
L 716 0 
L 50 0 
L 1831 4666 
z
" transform="scale(0.015625)"/>
      <path id="DejaVuSans-2b" d="M 2944 4013 
L 2944 2272 
L 4684 2272 
L 4684 1741 
L 2944 1741 
L 2944 0 
L 2419 0 
L 2419 1741 
L 678 1741 
L 678 2272 
L 2419 2272 
L 2419 4013 
L 2944 4013 
z
" transform="scale(0.015625)"/>
     </defs>
     <use xlink:href="#DejaVuSans-50"/>
     <use xlink:href="#DejaVuSans-65" transform="translate(56.677734 0)"/>
     <use xlink:href="#DejaVuSans-61" transform="translate(118.201172 0)"/>
     <use xlink:href="#DejaVuSans-6b" transform="translate(179.480469 0)"/>
     <use xlink:href="#DejaVuSans-3a" transform="translate(237.390625 0)"/>
     <use xlink:href="#DejaVuSans-20" transform="translate(271.082031 0)"/>
     <use xlink:href="#DejaVuSans-52" transform="translate(302.869141 0)"/>
     <use xlink:href="#DejaVuSans-54" transform="translate(365.101562 0)"/>
     <use xlink:href="#DejaVuSans-3d" transform="translate(426.185547 0)"/>
     <use xlink:href="#DejaVuSans-32" transform="translate(509.974609 0)"/>
     <use xlink:href="#DejaVuSans-2e" transform="translate(573.597656 0)"/>
     <use xlink:href="#DejaVuSans-39" transform="translate(605.384766 0)"/>
     <use xlink:href="#DejaVuSans-36" transform="translate(669.007812 0)"/>
     <use xlink:href="#DejaVuSans-2c" transform="translate(732.630859 0)"/>
     <use xlink:href="#DejaVuSans-20" transform="translate(764.417969 0)"/>
     <use xlink:href="#DejaVuSans-41" transform="translate(796.205078 0)"/>
     <use xlink:href="#DejaVuSans-72" transform="translate(864.613281 0)"/>
     <use xlink:href="#DejaVuSans-65" transform="translate(903.476562 0)"/>
     <use xlink:href="#DejaVuSans-61" transform="translate(965 0)"/>
     <use xlink:href="#DejaVuSans-3d" transform="translate(1026.279297 0)"/>
     <use xlink:href="#DejaVuSans-31" transform="translate(1110.068359 0)"/>
     <use xlink:href="#DejaVuSans-2e" transform="translate(1173.691406 0)"/>
     <use xlink:href="#DejaVuSans-31" transform="translate(1205.478516 0)"/>
     <use xlink:href="#DejaVuSans-33" transform="translate(1269.101562 0)"/>
     <use xlink:href="#DejaVuSans-65" transform="translate(1332.724609 0)"/>
     <use xlink:href="#DejaVuSans-2b" transform="translate(1394.248047 0)"/>
     <use xlink:href="#DejaVuSans-30" transform="translate(1478.037109 0)"/>
     <use xlink:href="#DejaVuSans-34" transform="translate(1541.660156 0)"/>
    </g>
    <!-- (32.01% of total) -->
    <g style="fill: #ff0000" transform="translate(590.431862 336.759549) scale(0.1 -0.1)">
     <defs>
      <path id="DejaVuSans-25" d="M 4653 2053 
Q 4381 2053 4226 1822 
Q 4072 1591 4072 1178 
Q 4072 772 4226 539 
Q 4381 306 4653 306 
Q 4919 306 5073 539 
Q 5228 772 5228 1178 
Q 5228 1588 5073 1820 
Q 4919 2053 4653 2053 
z
M 4653 2450 
Q 5147 2450 5437 2106 
Q 5728 1763 5728 1178 
Q 5728 594 5436 251 
Q 5144 -91 4653 -91 
Q 4153 -91 3862 251 
Q 3572 594 3572 1178 
Q 3572 1766 3864 2108 
Q 4156 2450 4653 2450 
z
M 1428 4353 
Q 1159 4353 1004 4120 
Q 850 3888 850 3481 
Q 850 3069 1003 2837 
Q 1156 2606 1428 2606 
Q 1700 2606 1854 2837 
Q 2009 3069 2009 3481 
Q 2009 3884 1853 4118 
Q 1697 4353 1428 4353 
z
M 4250 4750 
L 4750 4750 
L 1831 -91 
L 1331 -91 
L 4250 4750 
z
M 1428 4750 
Q 1922 4750 2215 4408 
Q 2509 4066 2509 3481 
Q 2509 2891 2217 2550 
Q 1925 2209 1428 2209 
Q 931 2209 642 2551 
Q 353 2894 353 3481 
Q 353 4063 643 4406 
Q 934 4750 1428 4750 
z
" transform="scale(0.015625)"/>
      <path id="DejaVuSans-66" d="M 2375 4863 
L 2375 4384 
L 1825 4384 
Q 1516 4384 1395 4259 
Q 1275 4134 1275 3809 
L 1275 3500 
L 2222 3500 
L 2222 3053 
L 1275 3053 
L 1275 0 
L 697 0 
L 697 3053 
L 147 3053 
L 147 3500 
L 697 3500 
L 697 3744 
Q 697 4328 969 4595 
Q 1241 4863 1831 4863 
L 2375 4863 
z
" transform="scale(0.015625)"/>
     </defs>
     <use xlink:href="#DejaVuSans-28"/>
     <use xlink:href="#DejaVuSans-33" transform="translate(39.013672 0)"/>
     <use xlink:href="#DejaVuSans-32" transform="translate(102.636719 0)"/>
     <use xlink:href="#DejaVuSans-2e" transform="translate(166.259766 0)"/>
     <use xlink:href="#DejaVuSans-30" transform="translate(198.046875 0)"/>
     <use xlink:href="#DejaVuSans-31" transform="translate(261.669922 0)"/>
     <use xlink:href="#DejaVuSans-25" transform="translate(325.292969 0)"/>
     <use xlink:href="#DejaVuSans-20" transform="translate(420.3125 0)"/>
     <use xlink:href="#DejaVuSans-6f" transform="translate(452.099609 0)"/>
     <use xlink:href="#DejaVuSans-66" transform="translate(513.28125 0)"/>
     <use xlink:href="#DejaVuSans-20" transform="translate(548.486328 0)"/>
     <use xlink:href="#DejaVuSans-74" transform="translate(580.273438 0)"/>
     <use xlink:href="#DejaVuSans-6f" transform="translate(619.482422 0)"/>
     <use xlink:href="#DejaVuSans-74" transform="translate(680.664062 0)"/>
     <use xlink:href="#DejaVuSans-61" transform="translate(719.873047 0)"/>
     <use xlink:href="#DejaVuSans-6c" transform="translate(781.152344 0)"/>
     <use xlink:href="#DejaVuSans-29" transform="translate(808.935547 0)"/>
    </g>
   </g>
   <g id="text_16">
    <!-- UV and MS Chromatograms of IrCp3F17, target m/z = 762.1110766 -->
    <g transform="translate(246.86875 20.88) scale(0.12 -0.12)">
     <defs>
      <path id="DejaVuSans-55" d="M 556 4666 
L 1191 4666 
L 1191 1831 
Q 1191 1081 1462 751 
Q 1734 422 2344 422 
Q 2950 422 3222 751 
Q 3494 1081 3494 1831 
L 3494 4666 
L 4128 4666 
L 4128 1753 
Q 4128 841 3676 375 
Q 3225 -91 2344 -91 
Q 1459 -91 1007 375 
Q 556 841 556 1753 
L 556 4666 
z
" transform="scale(0.015625)"/>
      <path id="DejaVuSans-56" d="M 1831 0 
L 50 4666 
L 709 4666 
L 2188 738 
L 3669 4666 
L 4325 4666 
L 2547 0 
L 1831 0 
z
" transform="scale(0.015625)"/>
      <path id="DejaVuSans-4d" d="M 628 4666 
L 1569 4666 
L 2759 1491 
L 3956 4666 
L 4897 4666 
L 4897 0 
L 4281 0 
L 4281 4097 
L 3078 897 
L 2444 897 
L 1241 4097 
L 1241 0 
L 628 0 
L 628 4666 
z
" transform="scale(0.015625)"/>
      <path id="DejaVuSans-53" d="M 3425 4513 
L 3425 3897 
Q 3066 4069 2747 4153 
Q 2428 4238 2131 4238 
Q 1616 4238 1336 4038 
Q 1056 3838 1056 3469 
Q 1056 3159 1242 3001 
Q 1428 2844 1947 2747 
L 2328 2669 
Q 3034 2534 3370 2195 
Q 3706 1856 3706 1288 
Q 3706 609 3251 259 
Q 2797 -91 1919 -91 
Q 1588 -91 1214 -16 
Q 841 59 441 206 
L 441 856 
Q 825 641 1194 531 
Q 1563 422 1919 422 
Q 2459 422 2753 634 
Q 3047 847 3047 1241 
Q 3047 1584 2836 1778 
Q 2625 1972 2144 2069 
L 1759 2144 
Q 1053 2284 737 2584 
Q 422 2884 422 3419 
Q 422 4038 858 4394 
Q 1294 4750 2059 4750 
Q 2388 4750 2728 4690 
Q 3069 4631 3425 4513 
z
" transform="scale(0.015625)"/>
      <path id="DejaVuSans-43" d="M 4122 4306 
L 4122 3641 
Q 3803 3938 3442 4084 
Q 3081 4231 2675 4231 
Q 1875 4231 1450 3742 
Q 1025 3253 1025 2328 
Q 1025 1406 1450 917 
Q 1875 428 2675 428 
Q 3081 428 3442 575 
Q 3803 722 4122 1019 
L 4122 359 
Q 3791 134 3420 21 
Q 3050 -91 2638 -91 
Q 1578 -91 968 557 
Q 359 1206 359 2328 
Q 359 3453 968 4101 
Q 1578 4750 2638 4750 
Q 3056 4750 3426 4639 
Q 3797 4528 4122 4306 
z
" transform="scale(0.015625)"/>
      <path id="DejaVuSans-68" d="M 3513 2113 
L 3513 0 
L 2938 0 
L 2938 2094 
Q 2938 2591 2744 2837 
Q 2550 3084 2163 3084 
Q 1697 3084 1428 2787 
Q 1159 2491 1159 1978 
L 1159 0 
L 581 0 
L 581 4863 
L 1159 4863 
L 1159 2956 
Q 1366 3272 1645 3428 
Q 1925 3584 2291 3584 
Q 2894 3584 3203 3211 
Q 3513 2838 3513 2113 
z
" transform="scale(0.015625)"/>
      <path id="DejaVuSans-67" d="M 2906 1791 
Q 2906 2416 2648 2759 
Q 2391 3103 1925 3103 
Q 1463 3103 1205 2759 
Q 947 2416 947 1791 
Q 947 1169 1205 825 
Q 1463 481 1925 481 
Q 2391 481 2648 825 
Q 2906 1169 2906 1791 
z
M 3481 434 
Q 3481 -459 3084 -895 
Q 2688 -1331 1869 -1331 
Q 1566 -1331 1297 -1286 
Q 1028 -1241 775 -1147 
L 775 -588 
Q 1028 -725 1275 -790 
Q 1522 -856 1778 -856 
Q 2344 -856 2625 -561 
Q 2906 -266 2906 331 
L 2906 616 
Q 2728 306 2450 153 
Q 2172 0 1784 0 
Q 1141 0 747 490 
Q 353 981 353 1791 
Q 353 2603 747 3093 
Q 1141 3584 1784 3584 
Q 2172 3584 2450 3431 
Q 2728 3278 2906 2969 
L 2906 3500 
L 3481 3500 
L 3481 434 
z
" transform="scale(0.015625)"/>
      <path id="DejaVuSans-70" d="M 1159 525 
L 1159 -1331 
L 581 -1331 
L 581 3500 
L 1159 3500 
L 1159 2969 
Q 1341 3281 1617 3432 
Q 1894 3584 2278 3584 
Q 2916 3584 3314 3078 
Q 3713 2572 3713 1747 
Q 3713 922 3314 415 
Q 2916 -91 2278 -91 
Q 1894 -91 1617 61 
Q 1341 213 1159 525 
z
M 3116 1747 
Q 3116 2381 2855 2742 
Q 2594 3103 2138 3103 
Q 1681 3103 1420 2742 
Q 1159 2381 1159 1747 
Q 1159 1113 1420 752 
Q 1681 391 2138 391 
Q 2594 391 2855 752 
Q 3116 1113 3116 1747 
z
" transform="scale(0.015625)"/>
      <path id="DejaVuSans-46" d="M 628 4666 
L 3309 4666 
L 3309 4134 
L 1259 4134 
L 1259 2759 
L 3109 2759 
L 3109 2228 
L 1259 2228 
L 1259 0 
L 628 0 
L 628 4666 
z
" transform="scale(0.015625)"/>
      <path id="DejaVuSans-37" d="M 525 4666 
L 3525 4666 
L 3525 4397 
L 1831 0 
L 1172 0 
L 2766 4134 
L 525 4134 
L 525 4666 
z
" transform="scale(0.015625)"/>
      <path id="DejaVuSans-2f" d="M 1625 4666 
L 2156 4666 
L 531 -594 
L 0 -594 
L 1625 4666 
z
" transform="scale(0.015625)"/>
     </defs>
     <use xlink:href="#DejaVuSans-55"/>
     <use xlink:href="#DejaVuSans-56" transform="translate(73.193359 0)"/>
     <use xlink:href="#DejaVuSans-20" transform="translate(141.601562 0)"/>
     <use xlink:href="#DejaVuSans-61" transform="translate(173.388672 0)"/>
     <use xlink:href="#DejaVuSans-6e" transform="translate(234.667969 0)"/>
     <use xlink:href="#DejaVuSans-64" transform="translate(298.046875 0)"/>
     <use xlink:href="#DejaVuSans-20" transform="translate(361.523438 0)"/>
     <use xlink:href="#DejaVuSans-4d" transform="translate(393.310547 0)"/>
     <use xlink:href="#DejaVuSans-53" transform="translate(479.589844 0)"/>
     <use xlink:href="#DejaVuSans-20" transform="translate(543.066406 0)"/>
     <use xlink:href="#DejaVuSans-43" transform="translate(574.853516 0)"/>
     <use xlink:href="#DejaVuSans-68" transform="translate(644.677734 0)"/>
     <use xlink:href="#DejaVuSans-72" transform="translate(708.056641 0)"/>
     <use xlink:href="#DejaVuSans-6f" transform="translate(746.919922 0)"/>
     <use xlink:href="#DejaVuSans-6d" transform="translate(808.101562 0)"/>
     <use xlink:href="#DejaVuSans-61" transform="translate(905.513672 0)"/>
     <use xlink:href="#DejaVuSans-74" transform="translate(966.792969 0)"/>
     <use xlink:href="#DejaVuSans-6f" transform="translate(1006.001953 0)"/>
     <use xlink:href="#DejaVuSans-67" transform="translate(1067.183594 0)"/>
     <use xlink:href="#DejaVuSans-72" transform="translate(1130.660156 0)"/>
     <use xlink:href="#DejaVuSans-61" transform="translate(1171.773438 0)"/>
     <use xlink:href="#DejaVuSans-6d" transform="translate(1233.052734 0)"/>
     <use xlink:href="#DejaVuSans-73" transform="translate(1330.464844 0)"/>
     <use xlink:href="#DejaVuSans-20" transform="translate(1382.564453 0)"/>
     <use xlink:href="#DejaVuSans-6f" transform="translate(1414.351562 0)"/>
     <use xlink:href="#DejaVuSans-66" transform="translate(1475.533203 0)"/>
     <use xlink:href="#DejaVuSans-20" transform="translate(1510.738281 0)"/>
     <use xlink:href="#DejaVuSans-49" transform="translate(1542.525391 0)"/>
     <use xlink:href="#DejaVuSans-72" transform="translate(1572.017578 0)"/>
     <use xlink:href="#DejaVuSans-43" transform="translate(1613.130859 0)"/>
     <use xlink:href="#DejaVuSans-70" transform="translate(1682.955078 0)"/>
     <use xlink:href="#DejaVuSans-33" transform="translate(1746.431641 0)"/>
     <use xlink:href="#DejaVuSans-46" transform="translate(1810.054688 0)"/>
     <use xlink:href="#DejaVuSans-31" transform="translate(1867.574219 0)"/>
     <use xlink:href="#DejaVuSans-37" transform="translate(1931.197266 0)"/>
     <use xlink:href="#DejaVuSans-2c" transform="translate(1994.820312 0)"/>
     <use xlink:href="#DejaVuSans-20" transform="translate(2026.607422 0)"/>
     <use xlink:href="#DejaVuSans-74" transform="translate(2058.394531 0)"/>
     <use xlink:href="#DejaVuSans-61" transform="translate(2097.603516 0)"/>
     <use xlink:href="#DejaVuSans-72" transform="translate(2158.882812 0)"/>
     <use xlink:href="#DejaVuSans-67" transform="translate(2198.246094 0)"/>
     <use xlink:href="#DejaVuSans-65" transform="translate(2261.722656 0)"/>
     <use xlink:href="#DejaVuSans-74" transform="translate(2323.246094 0)"/>
     <use xlink:href="#DejaVuSans-20" transform="translate(2362.455078 0)"/>
     <use xlink:href="#DejaVuSans-6d" transform="translate(2394.242188 0)"/>
     <use xlink:href="#DejaVuSans-2f" transform="translate(2491.654297 0)"/>
     <use xlink:href="#DejaVuSans-7a" transform="translate(2525.345703 0)"/>
     <use xlink:href="#DejaVuSans-20" transform="translate(2577.835938 0)"/>
     <use xlink:href="#DejaVuSans-3d" transform="translate(2609.623047 0)"/>
     <use xlink:href="#DejaVuSans-20" transform="translate(2693.412109 0)"/>
     <use xlink:href="#DejaVuSans-37" transform="translate(2725.199219 0)"/>
     <use xlink:href="#DejaVuSans-36" transform="translate(2788.822266 0)"/>
     <use xlink:href="#DejaVuSans-32" transform="translate(2852.445312 0)"/>
     <use xlink:href="#DejaVuSans-2e" transform="translate(2916.068359 0)"/>
     <use xlink:href="#DejaVuSans-31" transform="translate(2947.855469 0)"/>
     <use xlink:href="#DejaVuSans-31" transform="translate(3011.478516 0)"/>
     <use xlink:href="#DejaVuSans-31" transform="translate(3075.101562 0)"/>
     <use xlink:href="#DejaVuSans-30" transform="translate(3138.724609 0)"/>
     <use xlink:href="#DejaVuSans-37" transform="translate(3202.347656 0)"/>
     <use xlink:href="#DejaVuSans-36" transform="translate(3265.970703 0)"/>
     <use xlink:href="#DejaVuSans-36" transform="translate(3329.59375 0)"/>
    </g>
   </g>
   <g id="legend_1">
    <g id="patch_8">
     <path d="M 685.971875 64.23625 
L 846.2 64.23625 
Q 848.2 64.23625 848.2 62.23625 
L 848.2 33.88 
Q 848.2 31.88 846.2 31.88 
L 685.971875 31.88 
Q 683.971875 31.88 683.971875 33.88 
L 683.971875 62.23625 
Q 683.971875 64.23625 685.971875 64.23625 
z
" style="fill: #ffffff; opacity: 0.8; stroke: #cccccc; stroke-linejoin: miter"/>
    </g>
    <g id="line2d_15">
     <path d="M 687.971875 39.978437 
L 697.971875 39.978437 
L 707.971875 39.978437 
" style="fill: none; stroke: #0000ff; stroke-width: 1.5; stroke-linecap: square"/>
    </g>
    <g id="text_17">
     <!-- UV Intensity (normalized) -->
     <g transform="translate(715.971875 43.478437) scale(0.1 -0.1)">
      <use xlink:href="#DejaVuSans-55"/>
      <use xlink:href="#DejaVuSans-56" transform="translate(73.193359 0)"/>
      <use xlink:href="#DejaVuSans-20" transform="translate(141.601562 0)"/>
      <use xlink:href="#DejaVuSans-49" transform="translate(173.388672 0)"/>
      <use xlink:href="#DejaVuSans-6e" transform="translate(202.880859 0)"/>
      <use xlink:href="#DejaVuSans-74" transform="translate(266.259766 0)"/>
      <use xlink:href="#DejaVuSans-65" transform="translate(305.46875 0)"/>
      <use xlink:href="#DejaVuSans-6e" transform="translate(366.992188 0)"/>
      <use xlink:href="#DejaVuSans-73" transform="translate(430.371094 0)"/>
      <use xlink:href="#DejaVuSans-69" transform="translate(482.470703 0)"/>
      <use xlink:href="#DejaVuSans-74" transform="translate(510.253906 0)"/>
      <use xlink:href="#DejaVuSans-79" transform="translate(549.462891 0)"/>
      <use xlink:href="#DejaVuSans-20" transform="translate(608.642578 0)"/>
      <use xlink:href="#DejaVuSans-28" transform="translate(640.429688 0)"/>
      <use xlink:href="#DejaVuSans-6e" transform="translate(679.443359 0)"/>
      <use xlink:href="#DejaVuSans-6f" transform="translate(742.822266 0)"/>
      <use xlink:href="#DejaVuSans-72" transform="translate(804.003906 0)"/>
      <use xlink:href="#DejaVuSans-6d" transform="translate(843.367188 0)"/>
      <use xlink:href="#DejaVuSans-61" transform="translate(940.779297 0)"/>
      <use xlink:href="#DejaVuSans-6c" transform="translate(1002.058594 0)"/>
      <use xlink:href="#DejaVuSans-69" transform="translate(1029.841797 0)"/>
      <use xlink:href="#DejaVuSans-7a" transform="translate(1057.625 0)"/>
      <use xlink:href="#DejaVuSans-65" transform="translate(1110.115234 0)"/>
      <use xlink:href="#DejaVuSans-64" transform="translate(1171.638672 0)"/>
      <use xlink:href="#DejaVuSans-29" transform="translate(1235.115234 0)"/>
     </g>
    </g>
    <g id="line2d_16">
     <path d="M 687.971875 54.656562 
L 697.971875 54.656562 
L 707.971875 54.656562 
" style="fill: none; stroke: #008000; stroke-width: 1.5; stroke-linecap: square"/>
    </g>
    <g id="text_18">
     <!-- MS Intensity (normalized) -->
     <g transform="translate(715.971875 58.156562) scale(0.1 -0.1)">
      <use xlink:href="#DejaVuSans-4d"/>
      <use xlink:href="#DejaVuSans-53" transform="translate(86.279297 0)"/>
      <use xlink:href="#DejaVuSans-20" transform="translate(149.755859 0)"/>
      <use xlink:href="#DejaVuSans-49" transform="translate(181.542969 0)"/>
      <use xlink:href="#DejaVuSans-6e" transform="translate(211.035156 0)"/>
      <use xlink:href="#DejaVuSans-74" transform="translate(274.414062 0)"/>
      <use xlink:href="#DejaVuSans-65" transform="translate(313.623047 0)"/>
      <use xlink:href="#DejaVuSans-6e" transform="translate(375.146484 0)"/>
      <use xlink:href="#DejaVuSans-73" transform="translate(438.525391 0)"/>
      <use xlink:href="#DejaVuSans-69" transform="translate(490.625 0)"/>
      <use xlink:href="#DejaVuSans-74" transform="translate(518.408203 0)"/>
      <use xlink:href="#DejaVuSans-79" transform="translate(557.617188 0)"/>
      <use xlink:href="#DejaVuSans-20" transform="translate(616.796875 0)"/>
      <use xlink:href="#DejaVuSans-28" transform="translate(648.583984 0)"/>
      <use xlink:href="#DejaVuSans-6e" transform="translate(687.597656 0)"/>
      <use xlink:href="#DejaVuSans-6f" transform="translate(750.976562 0)"/>
      <use xlink:href="#DejaVuSans-72" transform="translate(812.158203 0)"/>
      <use xlink:href="#DejaVuSans-6d" transform="translate(851.521484 0)"/>
      <use xlink:href="#DejaVuSans-61" transform="translate(948.933594 0)"/>
      <use xlink:href="#DejaVuSans-6c" transform="translate(1010.212891 0)"/>
      <use xlink:href="#DejaVuSans-69" transform="translate(1037.996094 0)"/>
      <use xlink:href="#DejaVuSans-7a" transform="translate(1065.779297 0)"/>
      <use xlink:href="#DejaVuSans-65" transform="translate(1118.269531 0)"/>
      <use xlink:href="#DejaVuSans-64" transform="translate(1179.792969 0)"/>
      <use xlink:href="#DejaVuSans-29" transform="translate(1243.269531 0)"/>
     </g>
    </g>
   </g>
  </g>
 </g>
 <defs>
  <clipPath id="pbd9eb7f87d">
   <rect x="47.72" y="26.88" width="805.48" height="507.16"/>
  </clipPath>
 </defs>
</svg>
