<?xml version="1.0" encoding="utf-8" standalone="no"?>
<!DOCTYPE svg PUBLIC "-//W3C//DTD SVG 1.1//EN"
  "http://www.w3.org/Graphics/SVG/1.1/DTD/svg11.dtd">
<svg xmlns:xlink="http://www.w3.org/1999/xlink" width="864pt" height="576pt" viewBox="0 0 864 576" xmlns="http://www.w3.org/2000/svg" version="1.1">
 <metadata>
  <rdf:RDF xmlns:dc="http://purl.org/dc/elements/1.1/" xmlns:cc="http://creativecommons.org/ns#" xmlns:rdf="http://www.w3.org/1999/02/22-rdf-syntax-ns#">
   <cc:Work>
    <dc:type rdf:resource="http://purl.org/dc/dcmitype/StillImage"/>
    <dc:date>2025-02-07T17:17:28.384441</dc:date>
    <dc:format>image/svg+xml</dc:format>
    <dc:creator>
     <cc:Agent>
      <dc:title>Matplotlib v3.10.0, https://matplotlib.org/</dc:title>
     </cc:Agent>
    </dc:creator>
   </cc:Work>
  </rdf:RDF>
 </metadata>
 <defs>
  <style type="text/css">*{stroke-linejoin: round; stroke-linecap: butt}</style>
 </defs>
 <g id="figure_1">
  <g id="patch_1">
   <path d="M 0 576 
L 864 576 
L 864 0 
L 0 0 
z
" style="fill: #ffffff"/>
  </g>
  <g id="axes_1">
   <g id="patch_2">
    <path d="M 47.72 534.04 
L 853.2 534.04 
L 853.2 26.88 
L 47.72 26.88 
z
" style="fill: #ffffff"/>
   </g>
   <g id="matplotlib.axis_1">
    <g id="xtick_1">
     <g id="line2d_1">
      <defs>
       <path id="m306bb843d3" d="M 0 0 
L 0 3.5 
" style="stroke: #000000; stroke-width: 0.8"/>
      </defs>
      <g>
       <use xlink:href="#m306bb843d3" x="83.093151" y="534.04" style="stroke: #000000; stroke-width: 0.8"/>
      </g>
     </g>
     <g id="text_1">
      <!-- 0 -->
      <g transform="translate(79.911901 548.638438) scale(0.1 -0.1)">
       <defs>
        <path id="DejaVuSans-30" d="M 2034 4250 
Q 1547 4250 1301 3770 
Q 1056 3291 1056 2328 
Q 1056 1369 1301 889 
Q 1547 409 2034 409 
Q 2525 409 2770 889 
Q 3016 1369 3016 2328 
Q 3016 3291 2770 3770 
Q 2525 4250 2034 4250 
z
M 2034 4750 
Q 2819 4750 3233 4129 
Q 3647 3509 3647 2328 
Q 3647 1150 3233 529 
Q 2819 -91 2034 -91 
Q 1250 -91 836 529 
Q 422 1150 422 2328 
Q 422 3509 836 4129 
Q 1250 4750 2034 4750 
z
" transform="scale(0.015625)"/>
       </defs>
       <use xlink:href="#DejaVuSans-30"/>
      </g>
     </g>
    </g>
    <g id="xtick_2">
     <g id="line2d_2">
      <g>
       <use xlink:href="#m306bb843d3" x="229.788553" y="534.04" style="stroke: #000000; stroke-width: 0.8"/>
      </g>
     </g>
     <g id="text_2">
      <!-- 1 -->
      <g transform="translate(226.607303 548.638438) scale(0.1 -0.1)">
       <defs>
        <path id="DejaVuSans-31" d="M 794 531 
L 1825 531 
L 1825 4091 
L 703 3866 
L 703 4441 
L 1819 4666 
L 2450 4666 
L 2450 531 
L 3481 531 
L 3481 0 
L 794 0 
L 794 531 
z
" transform="scale(0.015625)"/>
       </defs>
       <use xlink:href="#DejaVuSans-31"/>
      </g>
     </g>
    </g>
    <g id="xtick_3">
     <g id="line2d_3">
      <g>
       <use xlink:href="#m306bb843d3" x="376.483954" y="534.04" style="stroke: #000000; stroke-width: 0.8"/>
      </g>
     </g>
     <g id="text_3">
      <!-- 2 -->
      <g transform="translate(373.302704 548.638438) scale(0.1 -0.1)">
       <defs>
        <path id="DejaVuSans-32" d="M 1228 531 
L 3431 531 
L 3431 0 
L 469 0 
L 469 531 
Q 828 903 1448 1529 
Q 2069 2156 2228 2338 
Q 2531 2678 2651 2914 
Q 2772 3150 2772 3378 
Q 2772 3750 2511 3984 
Q 2250 4219 1831 4219 
Q 1534 4219 1204 4116 
Q 875 4013 500 3803 
L 500 4441 
Q 881 4594 1212 4672 
Q 1544 4750 1819 4750 
Q 2544 4750 2975 4387 
Q 3406 4025 3406 3419 
Q 3406 3131 3298 2873 
Q 3191 2616 2906 2266 
Q 2828 2175 2409 1742 
Q 1991 1309 1228 531 
z
" transform="scale(0.015625)"/>
       </defs>
       <use xlink:href="#DejaVuSans-32"/>
      </g>
     </g>
    </g>
    <g id="xtick_4">
     <g id="line2d_4">
      <g>
       <use xlink:href="#m306bb843d3" x="523.179355" y="534.04" style="stroke: #000000; stroke-width: 0.8"/>
      </g>
     </g>
     <g id="text_4">
      <!-- 3 -->
      <g transform="translate(519.998105 548.638438) scale(0.1 -0.1)">
       <defs>
        <path id="DejaVuSans-33" d="M 2597 2516 
Q 3050 2419 3304 2112 
Q 3559 1806 3559 1356 
Q 3559 666 3084 287 
Q 2609 -91 1734 -91 
Q 1441 -91 1130 -33 
Q 819 25 488 141 
L 488 750 
Q 750 597 1062 519 
Q 1375 441 1716 441 
Q 2309 441 2620 675 
Q 2931 909 2931 1356 
Q 2931 1769 2642 2001 
Q 2353 2234 1838 2234 
L 1294 2234 
L 1294 2753 
L 1863 2753 
Q 2328 2753 2575 2939 
Q 2822 3125 2822 3475 
Q 2822 3834 2567 4026 
Q 2313 4219 1838 4219 
Q 1578 4219 1281 4162 
Q 984 4106 628 3988 
L 628 4550 
Q 988 4650 1302 4700 
Q 1616 4750 1894 4750 
Q 2613 4750 3031 4423 
Q 3450 4097 3450 3541 
Q 3450 3153 3228 2886 
Q 3006 2619 2597 2516 
z
" transform="scale(0.015625)"/>
       </defs>
       <use xlink:href="#DejaVuSans-33"/>
      </g>
     </g>
    </g>
    <g id="xtick_5">
     <g id="line2d_5">
      <g>
       <use xlink:href="#m306bb843d3" x="669.874757" y="534.04" style="stroke: #000000; stroke-width: 0.8"/>
      </g>
     </g>
     <g id="text_5">
      <!-- 4 -->
      <g transform="translate(666.693507 548.638438) scale(0.1 -0.1)">
       <defs>
        <path id="DejaVuSans-34" d="M 2419 4116 
L 825 1625 
L 2419 1625 
L 2419 4116 
z
M 2253 4666 
L 3047 4666 
L 3047 1625 
L 3713 1625 
L 3713 1100 
L 3047 1100 
L 3047 0 
L 2419 0 
L 2419 1100 
L 313 1100 
L 313 1709 
L 2253 4666 
z
" transform="scale(0.015625)"/>
       </defs>
       <use xlink:href="#DejaVuSans-34"/>
      </g>
     </g>
    </g>
    <g id="xtick_6">
     <g id="line2d_6">
      <g>
       <use xlink:href="#m306bb843d3" x="816.570158" y="534.04" style="stroke: #000000; stroke-width: 0.8"/>
      </g>
     </g>
     <g id="text_6">
      <!-- 5 -->
      <g transform="translate(813.388908 548.638438) scale(0.1 -0.1)">
       <defs>
        <path id="DejaVuSans-35" d="M 691 4666 
L 3169 4666 
L 3169 4134 
L 1269 4134 
L 1269 2991 
Q 1406 3038 1543 3061 
Q 1681 3084 1819 3084 
Q 2600 3084 3056 2656 
Q 3513 2228 3513 1497 
Q 3513 744 3044 326 
Q 2575 -91 1722 -91 
Q 1428 -91 1123 -41 
Q 819 9 494 109 
L 494 744 
Q 775 591 1075 516 
Q 1375 441 1709 441 
Q 2250 441 2565 725 
Q 2881 1009 2881 1497 
Q 2881 1984 2565 2268 
Q 2250 2553 1709 2553 
Q 1456 2553 1204 2497 
Q 953 2441 691 2322 
L 691 4666 
z
" transform="scale(0.015625)"/>
       </defs>
       <use xlink:href="#DejaVuSans-35"/>
      </g>
     </g>
    </g>
    <g id="text_7">
     <!-- Retention Time (min) -->
     <g transform="translate(397.61 562.316562) scale(0.1 -0.1)">
      <defs>
       <path id="DejaVuSans-52" d="M 2841 2188 
Q 3044 2119 3236 1894 
Q 3428 1669 3622 1275 
L 4263 0 
L 3584 0 
L 2988 1197 
Q 2756 1666 2539 1819 
Q 2322 1972 1947 1972 
L 1259 1972 
L 1259 0 
L 628 0 
L 628 4666 
L 2053 4666 
Q 2853 4666 3247 4331 
Q 3641 3997 3641 3322 
Q 3641 2881 3436 2590 
Q 3231 2300 2841 2188 
z
M 1259 4147 
L 1259 2491 
L 2053 2491 
Q 2509 2491 2742 2702 
Q 2975 2913 2975 3322 
Q 2975 3731 2742 3939 
Q 2509 4147 2053 4147 
L 1259 4147 
z
" transform="scale(0.015625)"/>
       <path id="DejaVuSans-65" d="M 3597 1894 
L 3597 1613 
L 953 1613 
Q 991 1019 1311 708 
Q 1631 397 2203 397 
Q 2534 397 2845 478 
Q 3156 559 3463 722 
L 3463 178 
Q 3153 47 2828 -22 
Q 2503 -91 2169 -91 
Q 1331 -91 842 396 
Q 353 884 353 1716 
Q 353 2575 817 3079 
Q 1281 3584 2069 3584 
Q 2775 3584 3186 3129 
Q 3597 2675 3597 1894 
z
M 3022 2063 
Q 3016 2534 2758 2815 
Q 2500 3097 2075 3097 
Q 1594 3097 1305 2825 
Q 1016 2553 972 2059 
L 3022 2063 
z
" transform="scale(0.015625)"/>
       <path id="DejaVuSans-74" d="M 1172 4494 
L 1172 3500 
L 2356 3500 
L 2356 3053 
L 1172 3053 
L 1172 1153 
Q 1172 725 1289 603 
Q 1406 481 1766 481 
L 2356 481 
L 2356 0 
L 1766 0 
Q 1100 0 847 248 
Q 594 497 594 1153 
L 594 3053 
L 172 3053 
L 172 3500 
L 594 3500 
L 594 4494 
L 1172 4494 
z
" transform="scale(0.015625)"/>
       <path id="DejaVuSans-6e" d="M 3513 2113 
L 3513 0 
L 2938 0 
L 2938 2094 
Q 2938 2591 2744 2837 
Q 2550 3084 2163 3084 
Q 1697 3084 1428 2787 
Q 1159 2491 1159 1978 
L 1159 0 
L 581 0 
L 581 3500 
L 1159 3500 
L 1159 2956 
Q 1366 3272 1645 3428 
Q 1925 3584 2291 3584 
Q 2894 3584 3203 3211 
Q 3513 2838 3513 2113 
z
" transform="scale(0.015625)"/>
       <path id="DejaVuSans-69" d="M 603 3500 
L 1178 3500 
L 1178 0 
L 603 0 
L 603 3500 
z
M 603 4863 
L 1178 4863 
L 1178 4134 
L 603 4134 
L 603 4863 
z
" transform="scale(0.015625)"/>
       <path id="DejaVuSans-6f" d="M 1959 3097 
Q 1497 3097 1228 2736 
Q 959 2375 959 1747 
Q 959 1119 1226 758 
Q 1494 397 1959 397 
Q 2419 397 2687 759 
Q 2956 1122 2956 1747 
Q 2956 2369 2687 2733 
Q 2419 3097 1959 3097 
z
M 1959 3584 
Q 2709 3584 3137 3096 
Q 3566 2609 3566 1747 
Q 3566 888 3137 398 
Q 2709 -91 1959 -91 
Q 1206 -91 779 398 
Q 353 888 353 1747 
Q 353 2609 779 3096 
Q 1206 3584 1959 3584 
z
" transform="scale(0.015625)"/>
       <path id="DejaVuSans-20" transform="scale(0.015625)"/>
       <path id="DejaVuSans-54" d="M -19 4666 
L 3928 4666 
L 3928 4134 
L 2272 4134 
L 2272 0 
L 1638 0 
L 1638 4134 
L -19 4134 
L -19 4666 
z
" transform="scale(0.015625)"/>
       <path id="DejaVuSans-6d" d="M 3328 2828 
Q 3544 3216 3844 3400 
Q 4144 3584 4550 3584 
Q 5097 3584 5394 3201 
Q 5691 2819 5691 2113 
L 5691 0 
L 5113 0 
L 5113 2094 
Q 5113 2597 4934 2840 
Q 4756 3084 4391 3084 
Q 3944 3084 3684 2787 
Q 3425 2491 3425 1978 
L 3425 0 
L 2847 0 
L 2847 2094 
Q 2847 2600 2669 2842 
Q 2491 3084 2119 3084 
Q 1678 3084 1418 2786 
Q 1159 2488 1159 1978 
L 1159 0 
L 581 0 
L 581 3500 
L 1159 3500 
L 1159 2956 
Q 1356 3278 1631 3431 
Q 1906 3584 2284 3584 
Q 2666 3584 2933 3390 
Q 3200 3197 3328 2828 
z
" transform="scale(0.015625)"/>
       <path id="DejaVuSans-28" d="M 1984 4856 
Q 1566 4138 1362 3434 
Q 1159 2731 1159 2009 
Q 1159 1288 1364 580 
Q 1569 -128 1984 -844 
L 1484 -844 
Q 1016 -109 783 600 
Q 550 1309 550 2009 
Q 550 2706 781 3412 
Q 1013 4119 1484 4856 
L 1984 4856 
z
" transform="scale(0.015625)"/>
       <path id="DejaVuSans-29" d="M 513 4856 
L 1013 4856 
Q 1481 4119 1714 3412 
Q 1947 2706 1947 2009 
Q 1947 1309 1714 600 
Q 1481 -109 1013 -844 
L 513 -844 
Q 928 -128 1133 580 
Q 1338 1288 1338 2009 
Q 1338 2731 1133 3434 
Q 928 4138 513 4856 
z
" transform="scale(0.015625)"/>
      </defs>
      <use xlink:href="#DejaVuSans-52"/>
      <use xlink:href="#DejaVuSans-65" transform="translate(64.982422 0)"/>
      <use xlink:href="#DejaVuSans-74" transform="translate(126.505859 0)"/>
      <use xlink:href="#DejaVuSans-65" transform="translate(165.714844 0)"/>
      <use xlink:href="#DejaVuSans-6e" transform="translate(227.238281 0)"/>
      <use xlink:href="#DejaVuSans-74" transform="translate(290.617188 0)"/>
      <use xlink:href="#DejaVuSans-69" transform="translate(329.826172 0)"/>
      <use xlink:href="#DejaVuSans-6f" transform="translate(357.609375 0)"/>
      <use xlink:href="#DejaVuSans-6e" transform="translate(418.791016 0)"/>
      <use xlink:href="#DejaVuSans-20" transform="translate(482.169922 0)"/>
      <use xlink:href="#DejaVuSans-54" transform="translate(513.957031 0)"/>
      <use xlink:href="#DejaVuSans-69" transform="translate(571.916016 0)"/>
      <use xlink:href="#DejaVuSans-6d" transform="translate(599.699219 0)"/>
      <use xlink:href="#DejaVuSans-65" transform="translate(697.111328 0)"/>
      <use xlink:href="#DejaVuSans-20" transform="translate(758.634766 0)"/>
      <use xlink:href="#DejaVuSans-28" transform="translate(790.421875 0)"/>
      <use xlink:href="#DejaVuSans-6d" transform="translate(829.435547 0)"/>
      <use xlink:href="#DejaVuSans-69" transform="translate(926.847656 0)"/>
      <use xlink:href="#DejaVuSans-6e" transform="translate(954.630859 0)"/>
      <use xlink:href="#DejaVuSans-29" transform="translate(1018.009766 0)"/>
     </g>
    </g>
   </g>
   <g id="matplotlib.axis_2">
    <g id="ytick_1">
     <g id="line2d_7">
      <defs>
       <path id="md34202e603" d="M 0 0 
L -3.5 0 
" style="stroke: #000000; stroke-width: 0.8"/>
      </defs>
      <g>
       <use xlink:href="#md34202e603" x="47.72" y="510.851857" style="stroke: #000000; stroke-width: 0.8"/>
      </g>
     </g>
     <g id="text_8">
      <!-- 0.0 -->
      <g style="fill: #0000ff" transform="translate(24.816875 514.651076) scale(0.1 -0.1)">
       <defs>
        <path id="DejaVuSans-2e" d="M 684 794 
L 1344 794 
L 1344 0 
L 684 0 
L 684 794 
z
" transform="scale(0.015625)"/>
       </defs>
       <use xlink:href="#DejaVuSans-30"/>
       <use xlink:href="#DejaVuSans-2e" transform="translate(63.623047 0)"/>
       <use xlink:href="#DejaVuSans-30" transform="translate(95.410156 0)"/>
      </g>
     </g>
    </g>
    <g id="ytick_2">
     <g id="line2d_8">
      <g>
       <use xlink:href="#md34202e603" x="47.72" y="418.668031" style="stroke: #000000; stroke-width: 0.8"/>
      </g>
     </g>
     <g id="text_9">
      <!-- 0.5 -->
      <g style="fill: #0000ff" transform="translate(24.816875 422.46725) scale(0.1 -0.1)">
       <use xlink:href="#DejaVuSans-30"/>
       <use xlink:href="#DejaVuSans-2e" transform="translate(63.623047 0)"/>
       <use xlink:href="#DejaVuSans-35" transform="translate(95.410156 0)"/>
      </g>
     </g>
    </g>
    <g id="ytick_3">
     <g id="line2d_9">
      <g>
       <use xlink:href="#md34202e603" x="47.72" y="326.484205" style="stroke: #000000; stroke-width: 0.8"/>
      </g>
     </g>
     <g id="text_10">
      <!-- 1.0 -->
      <g style="fill: #0000ff" transform="translate(24.816875 330.283424) scale(0.1 -0.1)">
       <use xlink:href="#DejaVuSans-31"/>
       <use xlink:href="#DejaVuSans-2e" transform="translate(63.623047 0)"/>
       <use xlink:href="#DejaVuSans-30" transform="translate(95.410156 0)"/>
      </g>
     </g>
    </g>
    <g id="ytick_4">
     <g id="line2d_10">
      <g>
       <use xlink:href="#md34202e603" x="47.72" y="234.300379" style="stroke: #000000; stroke-width: 0.8"/>
      </g>
     </g>
     <g id="text_11">
      <!-- 1.5 -->
      <g style="fill: #0000ff" transform="translate(24.816875 238.099598) scale(0.1 -0.1)">
       <use xlink:href="#DejaVuSans-31"/>
       <use xlink:href="#DejaVuSans-2e" transform="translate(63.623047 0)"/>
       <use xlink:href="#DejaVuSans-35" transform="translate(95.410156 0)"/>
      </g>
     </g>
    </g>
    <g id="ytick_5">
     <g id="line2d_11">
      <g>
       <use xlink:href="#md34202e603" x="47.72" y="142.116553" style="stroke: #000000; stroke-width: 0.8"/>
      </g>
     </g>
     <g id="text_12">
      <!-- 2.0 -->
      <g style="fill: #0000ff" transform="translate(24.816875 145.915772) scale(0.1 -0.1)">
       <use xlink:href="#DejaVuSans-32"/>
       <use xlink:href="#DejaVuSans-2e" transform="translate(63.623047 0)"/>
       <use xlink:href="#DejaVuSans-30" transform="translate(95.410156 0)"/>
      </g>
     </g>
    </g>
    <g id="ytick_6">
     <g id="line2d_12">
      <g>
       <use xlink:href="#md34202e603" x="47.72" y="49.932727" style="stroke: #000000; stroke-width: 0.8"/>
      </g>
     </g>
     <g id="text_13">
      <!-- 2.5 -->
      <g style="fill: #0000ff" transform="translate(24.816875 53.731946) scale(0.1 -0.1)">
       <use xlink:href="#DejaVuSans-32"/>
       <use xlink:href="#DejaVuSans-2e" transform="translate(63.623047 0)"/>
       <use xlink:href="#DejaVuSans-35" transform="translate(95.410156 0)"/>
      </g>
     </g>
    </g>
    <g id="text_14">
     <!-- Normalized Intensity -->
     <g style="fill: #0000ff" transform="translate(18.737187 332.167031) rotate(-90) scale(0.1 -0.1)">
      <defs>
       <path id="DejaVuSans-4e" d="M 628 4666 
L 1478 4666 
L 3547 763 
L 3547 4666 
L 4159 4666 
L 4159 0 
L 3309 0 
L 1241 3903 
L 1241 0 
L 628 0 
L 628 4666 
z
" transform="scale(0.015625)"/>
       <path id="DejaVuSans-72" d="M 2631 2963 
Q 2534 3019 2420 3045 
Q 2306 3072 2169 3072 
Q 1681 3072 1420 2755 
Q 1159 2438 1159 1844 
L 1159 0 
L 581 0 
L 581 3500 
L 1159 3500 
L 1159 2956 
Q 1341 3275 1631 3429 
Q 1922 3584 2338 3584 
Q 2397 3584 2469 3576 
Q 2541 3569 2628 3553 
L 2631 2963 
z
" transform="scale(0.015625)"/>
       <path id="DejaVuSans-61" d="M 2194 1759 
Q 1497 1759 1228 1600 
Q 959 1441 959 1056 
Q 959 750 1161 570 
Q 1363 391 1709 391 
Q 2188 391 2477 730 
Q 2766 1069 2766 1631 
L 2766 1759 
L 2194 1759 
z
M 3341 1997 
L 3341 0 
L 2766 0 
L 2766 531 
Q 2569 213 2275 61 
Q 1981 -91 1556 -91 
Q 1019 -91 701 211 
Q 384 513 384 1019 
Q 384 1609 779 1909 
Q 1175 2209 1959 2209 
L 2766 2209 
L 2766 2266 
Q 2766 2663 2505 2880 
Q 2244 3097 1772 3097 
Q 1472 3097 1187 3025 
Q 903 2953 641 2809 
L 641 3341 
Q 956 3463 1253 3523 
Q 1550 3584 1831 3584 
Q 2591 3584 2966 3190 
Q 3341 2797 3341 1997 
z
" transform="scale(0.015625)"/>
       <path id="DejaVuSans-6c" d="M 603 4863 
L 1178 4863 
L 1178 0 
L 603 0 
L 603 4863 
z
" transform="scale(0.015625)"/>
       <path id="DejaVuSans-7a" d="M 353 3500 
L 3084 3500 
L 3084 2975 
L 922 459 
L 3084 459 
L 3084 0 
L 275 0 
L 275 525 
L 2438 3041 
L 353 3041 
L 353 3500 
z
" transform="scale(0.015625)"/>
       <path id="DejaVuSans-64" d="M 2906 2969 
L 2906 4863 
L 3481 4863 
L 3481 0 
L 2906 0 
L 2906 525 
Q 2725 213 2448 61 
Q 2172 -91 1784 -91 
Q 1150 -91 751 415 
Q 353 922 353 1747 
Q 353 2572 751 3078 
Q 1150 3584 1784 3584 
Q 2172 3584 2448 3432 
Q 2725 3281 2906 2969 
z
M 947 1747 
Q 947 1113 1208 752 
Q 1469 391 1925 391 
Q 2381 391 2643 752 
Q 2906 1113 2906 1747 
Q 2906 2381 2643 2742 
Q 2381 3103 1925 3103 
Q 1469 3103 1208 2742 
Q 947 2381 947 1747 
z
" transform="scale(0.015625)"/>
       <path id="DejaVuSans-49" d="M 628 4666 
L 1259 4666 
L 1259 0 
L 628 0 
L 628 4666 
z
" transform="scale(0.015625)"/>
       <path id="DejaVuSans-73" d="M 2834 3397 
L 2834 2853 
Q 2591 2978 2328 3040 
Q 2066 3103 1784 3103 
Q 1356 3103 1142 2972 
Q 928 2841 928 2578 
Q 928 2378 1081 2264 
Q 1234 2150 1697 2047 
L 1894 2003 
Q 2506 1872 2764 1633 
Q 3022 1394 3022 966 
Q 3022 478 2636 193 
Q 2250 -91 1575 -91 
Q 1294 -91 989 -36 
Q 684 19 347 128 
L 347 722 
Q 666 556 975 473 
Q 1284 391 1588 391 
Q 1994 391 2212 530 
Q 2431 669 2431 922 
Q 2431 1156 2273 1281 
Q 2116 1406 1581 1522 
L 1381 1569 
Q 847 1681 609 1914 
Q 372 2147 372 2553 
Q 372 3047 722 3315 
Q 1072 3584 1716 3584 
Q 2034 3584 2315 3537 
Q 2597 3491 2834 3397 
z
" transform="scale(0.015625)"/>
       <path id="DejaVuSans-79" d="M 2059 -325 
Q 1816 -950 1584 -1140 
Q 1353 -1331 966 -1331 
L 506 -1331 
L 506 -850 
L 844 -850 
Q 1081 -850 1212 -737 
Q 1344 -625 1503 -206 
L 1606 56 
L 191 3500 
L 800 3500 
L 1894 763 
L 2988 3500 
L 3597 3500 
L 2059 -325 
z
" transform="scale(0.015625)"/>
      </defs>
      <use xlink:href="#DejaVuSans-4e"/>
      <use xlink:href="#DejaVuSans-6f" transform="translate(74.804688 0)"/>
      <use xlink:href="#DejaVuSans-72" transform="translate(135.986328 0)"/>
      <use xlink:href="#DejaVuSans-6d" transform="translate(175.349609 0)"/>
      <use xlink:href="#DejaVuSans-61" transform="translate(272.761719 0)"/>
      <use xlink:href="#DejaVuSans-6c" transform="translate(334.041016 0)"/>
      <use xlink:href="#DejaVuSans-69" transform="translate(361.824219 0)"/>
      <use xlink:href="#DejaVuSans-7a" transform="translate(389.607422 0)"/>
      <use xlink:href="#DejaVuSans-65" transform="translate(442.097656 0)"/>
      <use xlink:href="#DejaVuSans-64" transform="translate(503.621094 0)"/>
      <use xlink:href="#DejaVuSans-20" transform="translate(567.097656 0)"/>
      <use xlink:href="#DejaVuSans-49" transform="translate(598.884766 0)"/>
      <use xlink:href="#DejaVuSans-6e" transform="translate(628.376953 0)"/>
      <use xlink:href="#DejaVuSans-74" transform="translate(691.755859 0)"/>
      <use xlink:href="#DejaVuSans-65" transform="translate(730.964844 0)"/>
      <use xlink:href="#DejaVuSans-6e" transform="translate(792.488281 0)"/>
      <use xlink:href="#DejaVuSans-73" transform="translate(855.867188 0)"/>
      <use xlink:href="#DejaVuSans-69" transform="translate(907.966797 0)"/>
      <use xlink:href="#DejaVuSans-74" transform="translate(935.75 0)"/>
      <use xlink:href="#DejaVuSans-79" transform="translate(974.958984 0)"/>
     </g>
    </g>
   </g>
   <g id="line2d_13">
    <path d="M 84.332727 510.851857 
L 91.667497 510.759919 
L 101.447191 510.505578 
L 111.226884 510.494767 
L 135.676118 510.650537 
L 163.792736 510.547087 
L 165.015198 510.399608 
L 167.460121 509.721037 
L 169.905045 508.945577 
L 172.349968 508.558044 
L 174.794891 508.543368 
L 177.239815 508.879234 
L 183.352123 510.439537 
L 188.24197 510.987273 
L 189.464432 510.918514 
L 193.131817 510.253121 
L 194.354278 510.189155 
L 196.799202 510.36329 
L 200.466587 510.717867 
L 204.133972 510.746417 
L 215.136127 510.582865 
L 228.583205 510.48441 
L 229.805667 510.313631 
L 231.028129 509.979219 
L 233.473052 509.012931 
L 234.695514 508.687587 
L 235.917975 508.635302 
L 237.140437 508.840007 
L 240.807822 509.872509 
L 243.252745 510.21062 
L 246.920131 510.349198 
L 261.589671 510.555344 
L 267.701979 510.483275 
L 284.816443 509.66959 
L 290.928751 509.433781 
L 295.818598 509.435911 
L 303.153368 509.703264 
L 316.600446 510.247226 
L 328.825063 510.458529 
L 336.159833 510.406164 
L 344.717065 510.341705 
L 349.606912 510.372625 
L 353.274297 510.169136 
L 356.941682 509.859093 
L 358.164143 509.487291 
L 359.386605 506.651388 
L 360.609067 495.576333 
L 361.831528 469.154513 
L 363.05399 426.429213 
L 364.276452 377.707975 
L 365.498913 340.019683 
L 366.721375 326.484205 
L 367.943837 339.110123 
L 369.166298 369.740271 
L 370.38876 406.388479 
L 371.611222 439.409887 
L 372.833683 464.176845 
L 374.056145 480.425855 
L 375.278607 490.173746 
L 376.501068 495.852324 
L 377.72353 499.31828 
L 378.945992 501.626764 
L 380.168453 503.198655 
L 381.390915 504.129955 
L 382.613377 504.516416 
L 385.0583 504.778223 
L 386.280762 505.192854 
L 388.725685 506.622626 
L 389.948147 507.339234 
L 391.170609 507.914801 
L 392.39307 508.324025 
L 393.615532 508.567661 
L 394.837994 508.648807 
L 399.72784 508.49238 
L 408.285072 509.530406 
L 414.39738 509.810372 
L 422.954612 509.861122 
L 425.399536 509.749896 
L 426.621997 509.532807 
L 427.844459 509.033926 
L 430.289382 507.327144 
L 431.511844 506.745028 
L 432.734306 506.710086 
L 433.956767 507.162256 
L 436.401691 508.514264 
L 437.624152 509.015394 
L 438.846614 509.332348 
L 441.291537 509.615147 
L 443.736461 509.68622 
L 452.293693 509.637748 
L 458.406001 509.853512 
L 460.850924 509.768494 
L 464.518309 509.481988 
L 466.963233 509.544964 
L 473.075541 509.831748 
L 476.742926 509.764936 
L 479.187849 509.523911 
L 482.855234 508.951464 
L 485.300158 509.021483 
L 487.745081 509.182816 
L 490.190005 509.131799 
L 493.85739 508.803059 
L 495.079851 508.872061 
L 499.969698 509.588125 
L 503.637083 509.656736 
L 506.082006 509.606528 
L 508.52693 509.320693 
L 510.971853 509.032463 
L 513.416776 508.939134 
L 514.639238 508.631203 
L 518.306623 506.772847 
L 520.751547 506.45475 
L 521.974008 504.397564 
L 523.19647 497.81685 
L 524.418932 485.622891 
L 525.641393 471.011006 
L 526.863855 460.201053 
L 528.086317 457.749316 
L 529.308778 463.528795 
L 531.753702 484.552444 
L 532.976163 493.031931 
L 534.198625 498.635773 
L 535.421087 501.890636 
L 536.643548 503.647283 
L 537.86601 504.59684 
L 540.310933 505.667085 
L 546.423242 508.274078 
L 548.868165 508.845119 
L 551.313088 509.191535 
L 554.980474 509.455284 
L 563.537705 509.934751 
L 565.982629 510.063306 
L 572.094937 509.913297 
L 608.768787 509.496221 
L 613.658634 509.239015 
L 619.770942 508.679266 
L 620.993404 508.335661 
L 622.215866 507.548214 
L 623.438328 505.769051 
L 624.660789 502.397234 
L 627.105713 492.152562 
L 628.328174 488.419799 
L 629.550636 487.663761 
L 630.773098 489.873068 
L 634.440483 501.744359 
L 635.662944 504.287492 
L 636.885406 505.897347 
L 638.107868 506.870772 
L 639.330329 507.484833 
L 641.775253 508.29162 
L 645.442638 509.219065 
L 647.887561 509.635248 
L 651.554946 509.946828 
L 658.889716 510.205921 
L 665.002025 510.245647 
L 669.891871 510.099262 
L 679.671565 510.372522 
L 689.451258 510.349243 
L 690.67372 510.283223 
L 691.896182 510.101299 
L 693.118643 509.718201 
L 696.786028 508.082705 
L 698.00849 508.03072 
L 699.230952 508.321314 
L 702.898337 509.669251 
L 705.34326 510.081247 
L 709.010645 510.24731 
L 717.567877 510.434894 
L 731.014955 510.540877 
L 746.906957 510.54681 
L 749.35188 510.392781 
L 753.019265 509.84837 
L 754.241727 509.80033 
L 756.68665 510.021226 
L 760.354036 510.424826 
L 765.243882 510.576751 
L 778.690961 510.682496 
L 798.250348 510.678236 
L 803.140194 510.556372 
L 815.364811 510.829924 
L 816.587273 510.834681 
L 816.587273 510.834681 
" clip-path="url(#pe339fed159)" style="fill: none; stroke: #0000ff; stroke-width: 1.5; stroke-linecap: square"/>
   </g>
   <g id="line2d_14">
    <path d="M 90.6575 234.285497 
L 162.659759 234.293652 
L 362.487746 234.215954 
L 362.487746 234.096725 
L 362.830279 234.00733 
L 362.830279 233.68329 
L 363.174525 233.536804 
L 363.174525 232.879175 
L 363.515836 232.857611 
L 363.515836 232.306026 
L 363.848346 232.454936 
L 363.848346 231.95424 
L 364.178166 231.580798 
L 364.506763 231.666262 
L 364.834628 231.55526 
L 364.834628 231.389957 
L 364.834628 232.132266 
L 365.161758 231.823285 
L 365.492068 232.262726 
L 365.492068 231.995667 
L 365.818709 232.162019 
L 366.147307 231.959793 
L 366.473949 232.189749 
L 366.473949 231.837512 
L 366.800346 231.736104 
L 367.126988 232.439333 
L 367.45363 231.901262 
L 367.780027 232.368468 
L 367.780027 232.642501 
L 368.111803 232.413757 
L 368.4382 232.687309 
L 368.4382 232.847352 
L 368.764597 232.356499 
L 369.091239 232.664354 
L 369.091239 232.66167 
L 369.417636 232.313597 
L 369.744034 232.610779 
L 370.070676 232.39358 
L 370.397073 231.720517 
L 371.050112 232.253951 
L 371.050112 232.706106 
L 371.377487 233.374731 
L 371.377487 232.679811 
L 371.704129 232.441287 
L 371.704129 232.137549 
L 372.030771 232.360741 
L 372.030771 231.667196 
L 372.357657 232.540491 
L 372.684299 232.411674 
L 373.016319 231.580853 
L 373.343205 231.155918 
L 373.670092 231.11524 
L 373.670092 230.855743 
L 373.996978 231.280846 
L 374.323864 232.424475 
L 374.323864 231.928038 
L 374.65075 232.404762 
L 374.65075 231.859902 
L 374.977637 232.657335 
L 374.977637 232.096799 
L 375.304767 232.626328 
L 375.304767 232.112268 
L 375.635566 232.581545 
L 375.635566 232.274197 
L 375.962941 232.401616 
L 376.617936 232.40873 
L 376.617936 232.104892 
L 376.945556 232.413627 
L 376.945556 231.783439 
L 377.272931 232.262216 
L 377.272931 231.72217 
L 377.60055 232.343721 
L 377.60055 231.832402 
L 377.933549 232.451568 
L 377.933549 231.791989 
L 378.261169 232.410915 
L 378.261169 231.826251 
L 378.589277 231.533149 
L 378.916897 231.58685 
L 379.244761 231.197333 
L 379.572626 231.898165 
L 379.572626 231.074736 
L 379.900734 231.613929 
L 379.900734 231.170335 
L 380.228843 231.790502 
L 380.228843 231.120848 
L 380.557196 231.838224 
L 380.557196 231.1836 
L 380.557196 231.72107 
L 380.885305 231.719163 
L 380.885305 231.825539 
L 381.213903 230.936895 
L 381.542256 231.618258 
L 381.542256 231.221043 
L 381.871098 231.054298 
L 382.19994 231.89189 
L 382.19994 231.109642 
L 382.529027 231.710638 
L 382.529027 231.323641 
L 382.863248 231.216321 
L 383.52191 231.364695 
L 383.52191 231.136555 
L 383.851486 231.929067 
L 383.851486 231.359872 
L 384.180817 231.988157 
L 384.180817 231.449921 
L 384.511126 232.14558 
L 384.511126 231.671458 
L 384.841191 232.265393 
L 384.841191 231.958815 
L 385.174434 232.540139 
L 385.174434 231.835983 
L 385.50401 232.343794 
L 385.50401 231.737621 
L 385.834074 232.101807 
L 385.834074 231.358555 
L 386.164139 232.086039 
L 386.164139 231.718714 
L 386.493959 232.258243 
L 386.493959 231.653993 
L 386.823535 232.439495 
L 386.823535 231.962702 
L 387.1536 232.448192 
L 387.1536 231.985397 
L 387.484398 232.612827 
L 387.484398 232.028824 
L 387.819352 232.521358 
L 387.819352 231.982483 
L 388.149906 232.521907 
L 388.149906 232.051816 
L 388.481193 232.562135 
L 388.481193 232.133358 
L 388.811747 232.638444 
L 388.811747 232.097132 
L 389.143034 232.4438 
L 389.143034 231.712127 
L 389.47481 232.05817 
L 389.47481 231.480323 
L 389.806341 232.000323 
L 389.806341 231.612492 
L 390.137628 232.41819 
L 390.137628 231.8859 
L 390.468916 232.44138 
L 390.468916 231.984625 
L 390.800447 232.431678 
L 390.800447 231.770639 
L 391.131734 232.283512 
L 391.131734 231.768092 
L 391.463755 232.220556 
L 391.463755 231.826742 
L 391.79602 232.471631 
L 391.79602 232.0923 
L 392.129263 232.047355 
L 392.462262 231.147283 
L 392.800394 231.608331 
L 392.800394 230.989674 
L 393.133638 231.411254 
L 393.133638 231.238863 
L 393.465903 232.176525 
L 393.465903 231.73778 
L 393.798412 232.378002 
L 393.798412 231.996289 
L 394.1319 232.756543 
L 394.1319 232.233495 
L 394.466365 232.653618 
L 394.466365 232.111063 
L 394.804254 232.555498 
L 394.804254 232.031071 
L 395.138475 232.557462 
L 395.138475 232.152058 
L 395.474163 232.672405 
L 395.474163 232.052825 
L 395.809606 232.620185 
L 395.809606 232.22785 
L 396.145294 232.639816 
L 396.145294 232.129341 
L 396.480249 232.673242 
L 396.480249 232.094223 
L 396.816181 232.52681 
L 396.816181 232.182337 
L 397.152603 232.676606 
L 397.152603 232.361406 
L 397.488291 232.945455 
L 397.488291 232.626485 
L 397.829602 233.040905 
L 397.829602 232.715733 
L 398.16749 233.078452 
L 398.16749 232.870455 
L 398.504645 233.156974 
L 398.504645 232.87386 
L 398.840333 233.270169 
L 398.840333 232.973271 
L 399.176999 233.210608 
L 399.176999 233.067198 
L 399.512932 233.041945 
L 399.850087 233.384079 
L 399.850087 233.195275 
L 400.52244 233.521185 
L 400.52244 233.412359 
L 401.194794 233.765975 
L 401.194794 233.566104 
L 401.53146 233.715077 
L 401.53146 233.476501 
L 401.867637 233.413962 
L 402.204792 233.625656 
L 402.204792 233.485323 
L 402.204792 233.666087 
L 402.541458 233.842149 
L 402.541458 233.713512 
L 403.222858 233.703983 
L 403.222858 233.476499 
L 403.55928 233.635224 
L 403.55928 233.394981 
L 403.896435 233.560018 
L 403.896435 233.302684 
L 404.233834 233.542501 
L 404.233834 233.304216 
L 404.572211 233.54878 
L 404.572211 233.383732 
L 404.910344 233.632258 
L 404.910344 233.417908 
L 405.253856 233.672233 
L 405.253856 233.511227 
L 405.592967 233.693753 
L 405.592967 233.544895 
L 405.934523 233.743609 
L 405.934523 233.543033 
L 406.276568 233.716837 
L 406.276568 233.587002 
L 406.618368 233.7347 
L 406.618368 233.595468 
L 406.957234 233.769645 
L 406.957234 233.449198 
L 407.299768 233.573231 
L 407.299768 233.317659 
L 407.637656 233.431956 
L 407.637656 233.252111 
L 407.982391 233.330305 
L 407.982391 233.296249 
L 408.324191 233.528838 
L 408.324191 233.393743 
L 408.665502 233.598408 
L 408.665502 233.585443 
L 409.350325 233.699734 
L 409.350325 233.498037 
L 409.692614 233.744761 
L 409.692614 233.458227 
L 410.035148 233.590223 
L 410.035148 233.285137 
L 410.377193 233.44404 
L 410.377193 233.123616 
L 410.719971 233.390478 
L 410.719971 233.160859 
L 411.068373 233.431261 
L 411.068373 233.266021 
L 411.410907 233.587138 
L 411.410907 233.424364 
L 411.753196 233.657164 
L 411.753196 233.437763 
L 412.095485 233.561415 
L 412.095485 233.388047 
L 412.435574 233.552037 
L 412.435574 233.329165 
L 413.124553 233.097072 
L 413.467821 233.257625 
L 413.467821 233.124535 
L 413.810599 233.312858 
L 413.810599 233.451098 
L 414.153622 233.605899 
L 414.153622 233.421676 
L 414.494444 233.536791 
L 414.494444 233.417903 
L 416.204912 233.69487 
L 416.204912 233.5478 
L 416.547446 233.660482 
L 416.547446 233.391411 
L 416.890224 233.531229 
L 416.890224 233.366677 
L 417.233003 233.519836 
L 417.233003 233.325715 
L 417.576025 233.629886 
L 417.576025 233.469983 
L 418.608516 233.405194 
L 418.608516 233.425083 
L 418.952028 233.684067 
L 418.952028 233.525699 
L 419.29554 233.751623 
L 419.29554 233.624713 
L 419.638074 233.753006 
L 419.638074 233.491006 
L 420.667631 233.467604 
L 420.667631 233.555756 
L 421.012365 233.704904 
L 421.012365 233.3941 
L 422.045101 233.54039 
L 422.045101 233.657792 
L 422.728212 233.675508 
L 422.728212 233.718177 
L 423.071724 233.763584 
L 423.071724 233.58219 
L 423.759725 233.781885 
L 423.759725 233.587341 
L 424.446993 233.629619 
L 424.446993 233.574472 
L 424.78806 233.573365 
L 424.78806 233.648228 
L 425.130839 233.780054 
L 425.130839 233.58781 
L 425.816884 233.744261 
L 425.816884 233.618429 
L 425.816884 233.793058 
L 426.846197 233.771 
L 426.846197 233.781828 
L 427.189953 233.912468 
L 427.189953 233.761914 
L 428.568401 233.625373 
L 428.568401 233.607897 
L 429.254935 233.826061 
L 429.254935 233.81015 
L 429.595513 233.849746 
L 429.595513 233.691406 
L 429.936824 233.789068 
L 429.936824 233.578543 
L 430.620914 233.81882 
L 430.620914 233.684481 
L 430.96467 233.903996 
L 430.96467 233.803119 
L 432.336761 233.703684 
L 432.336761 233.770499 
L 433.016694 233.994426 
L 433.016694 233.987412 
L 434.038428 234.076276 
L 434.038428 234.025389 
L 434.716161 234.059006 
L 434.716161 233.947521 
L 435.394382 233.824968 
L 435.735449 233.927603 
L 436.417827 233.682862 
L 436.756938 233.791216 
L 436.756938 233.7051 
L 437.098983 233.668233 
L 438.128785 233.924397 
L 438.128785 233.829658 
L 438.128785 233.911543 
L 439.501365 233.907277 
L 439.501365 233.728748 
L 440.525054 233.67994 
L 440.525054 233.734265 
L 440.867832 233.839412 
L 440.867832 233.690705 
L 441.553389 233.835467 
L 441.553389 233.722294 
L 441.896411 233.848424 
L 441.896411 233.734177 
L 442.239434 233.843862 
L 442.239434 233.671694 
L 442.580501 233.778639 
L 442.580501 233.575252 
L 442.927925 233.699635 
L 442.927925 233.54202 
L 444.646217 233.878633 
L 444.646217 233.729148 
L 444.989239 233.864477 
L 444.989239 233.680393 
L 445.332507 233.750128 
L 445.332507 233.605777 
L 445.332507 233.720193 
L 446.359619 233.638368 
L 446.359619 233.373506 
L 447.045909 233.625667 
L 447.045909 233.483749 
L 447.389665 233.541585 
L 447.733177 233.470745 
L 449.109669 233.877669 
L 449.109669 233.832237 
L 449.453181 233.96117 
L 449.453181 233.809908 
L 449.795959 233.898375 
L 449.795959 233.751583 
L 450.823805 233.973591 
L 450.823805 233.852506 
L 451.166338 233.92211 
L 451.166338 233.765125 
L 451.509117 233.857215 
L 451.509117 233.670899 
L 452.194429 233.810536 
L 452.194429 233.724046 
L 452.538185 233.893609 
L 452.538185 233.770624 
L 453.224719 233.73031 
L 453.224719 233.611664 
L 453.567987 233.684367 
L 454.260878 233.95144 
L 454.260878 233.854754 
L 454.604879 233.924151 
L 454.604879 233.78434 
L 454.948635 233.873985 
L 454.948635 233.75231 
L 455.640548 233.889838 
L 455.640548 233.770614 
L 455.984549 233.906688 
L 455.984549 233.774726 
L 456.328305 233.891928 
L 456.328305 233.77036 
L 456.67255 233.847309 
L 456.67255 233.604098 
L 457.016306 233.715419 
L 457.016306 233.452514 
L 458.391576 233.876659 
L 458.391576 233.74659 
L 459.42749 233.797184 
L 459.42749 233.815966 
L 460.45827 233.836017 
L 460.45827 233.701891 
L 460.802759 233.83604 
L 460.802759 233.669562 
L 461.835006 233.710625 
L 461.835006 233.749744 
L 462.179251 233.847262 
L 462.179251 233.720926 
L 462.523741 233.829376 
L 462.523741 233.679065 
L 463.211987 233.862707 
L 463.211987 233.714011 
L 463.211987 233.805436 
L 464.938592 233.675861 
L 465.626349 233.781113 
L 465.626349 233.749844 
L 465.970105 233.837195 
L 465.970105 233.714441 
L 466.657862 233.929121 
L 466.657862 233.718049 
L 467.004063 233.807397 
L 467.004063 233.59185 
L 468.039977 233.469299 
L 468.039977 233.600007 
L 468.383733 233.731926 
L 468.383733 233.597184 
L 468.727 233.847201 
L 468.727 233.721381 
L 469.41329 233.899659 
L 469.41329 233.813376 
L 470.105937 233.713448 
L 470.450182 233.756317 
L 470.793939 233.929865 
L 470.793939 233.756728 
L 471.137695 233.865452 
L 471.137695 233.697147 
L 471.480718 233.726285 
L 471.480718 233.513596 
L 471.824229 233.694361 
L 471.824229 233.540448 
L 472.167497 233.669737 
L 472.167497 233.547551 
L 472.510764 233.789255 
L 472.510764 233.697678 
L 473.196809 233.949875 
L 473.196809 233.770458 
L 474.227589 233.70861 
L 474.227589 233.745279 
L 474.570612 233.880544 
L 474.570612 233.720411 
L 475.610193 233.834366 
L 475.954438 233.912634 
L 475.954438 233.735099 
L 476.298684 233.859776 
L 476.298684 233.709852 
L 476.642195 233.752971 
L 476.642195 233.56547 
L 478.36171 233.801844 
L 478.36171 233.656734 
L 478.705711 233.800107 
L 478.705711 233.65496 
L 479.397379 233.860277 
L 479.397379 233.778267 
L 479.741625 233.883272 
L 479.741625 233.685141 
L 480.091004 233.75975 
L 480.091004 233.602516 
L 480.778028 233.70893 
L 481.122273 233.588615 
L 481.809785 233.609547 
L 481.809785 233.472245 
L 482.496564 233.76086 
L 482.496564 233.601895 
L 482.840565 233.852874 
L 482.840565 233.745307 
L 483.871345 233.952067 
L 483.871345 233.73289 
L 484.559591 233.800579 
L 484.559591 233.67452 
L 484.903102 233.85756 
L 484.903102 233.687395 
L 485.252237 233.78997 
L 485.252237 233.644821 
L 485.939016 233.90023 
L 485.939016 233.792737 
L 486.282773 233.926704 
L 486.282773 233.760009 
L 486.626529 233.842005 
L 486.626529 233.724616 
L 488.001554 233.716169 
L 488.345065 233.533386 
L 488.693467 233.670592 
L 488.693467 233.529564 
L 490.067514 233.770719 
L 490.067514 233.561859 
L 490.41616 233.703472 
L 490.41616 233.526019 
L 491.103183 233.180406 
L 491.446206 233.37303 
L 491.446206 233.138746 
L 491.789718 233.424352 
L 491.789718 233.379557 
L 492.820498 233.547193 
L 492.820498 233.622974 
L 493.163276 233.811704 
L 493.163276 233.57239 
L 493.506299 233.69423 
L 493.506299 233.493741 
L 493.849077 233.605222 
L 493.849077 233.457626 
L 494.1921 233.676484 
L 494.1921 233.516789 
L 494.535122 233.701968 
L 494.535122 233.619602 
L 494.876678 233.624356 
L 494.876678 233.616553 
L 495.215545 233.807404 
L 495.215545 233.70242 
L 495.565658 233.810221 
L 495.565658 233.936336 
L 496.242412 234.004118 
L 496.242412 233.868431 
L 496.920879 233.921585 
L 496.920879 233.768506 
L 497.261456 233.876592 
L 497.261456 233.690726 
L 497.940167 233.832379 
L 497.940167 233.696922 
L 498.282701 233.868393 
L 498.282701 233.673198 
L 498.96459 233.798235 
L 498.96459 233.654233 
L 499.306635 233.8438 
L 499.306635 233.757684 
L 499.649413 233.829738 
L 499.649413 233.653223 
L 499.991947 233.816456 
L 499.991947 233.745292 
L 500.682882 233.925351 
L 500.682882 233.789452 
L 501.369417 233.563206 
L 501.712684 233.629678 
L 502.398974 233.939964 
L 502.398974 233.799343 
L 502.398974 233.854144 
L 503.429509 233.822115 
L 503.429509 233.709033 
L 504.460778 233.788909 
L 505.147557 233.907173 
L 505.147557 233.828481 
L 505.839714 233.942881 
L 505.839714 233.873812 
L 506.182493 233.966731 
L 506.182493 233.849544 
L 506.526249 233.931553 
L 506.526249 233.800042 
L 507.557029 233.997461 
L 507.557029 233.914062 
L 508.249431 234.011794 
L 508.249431 233.864675 
L 508.593187 233.923349 
L 508.593187 233.788476 
L 508.936699 233.837225 
L 508.936699 233.70491 
L 509.624211 233.917472 
L 509.624211 233.833383 
L 509.967968 233.946718 
L 509.967968 233.749351 
L 510.65548 233.83862 
L 510.65548 233.749688 
L 511.004126 233.931984 
L 511.004126 233.86203 
L 511.347393 233.973917 
L 511.347393 233.892348 
L 512.033683 233.901963 
L 512.033683 233.832879 
L 513.065441 233.845046 
L 513.065441 233.662781 
L 514.093776 233.875863 
L 514.093776 233.789386 
L 516.851405 233.902613 
L 516.851405 233.832026 
L 517.53745 233.781099 
L 518.223007 234.014065 
L 518.223007 233.923966 
L 518.899273 234.026991 
L 519.233983 233.929855 
L 519.566248 234.03362 
L 519.566248 234.001986 
L 520.563532 234.034778 
L 520.563532 234.056249 
L 521.564973 234.035626 
L 521.564973 233.974691 
L 522.231459 234.015459 
L 522.231459 233.9394 
L 523.568098 234.066723 
L 523.568098 234.003722 
L 524.239474 234.034615 
L 524.239474 233.890329 
L 524.578096 233.858258 
L 524.578096 233.490061 
L 524.915007 233.337477 
L 524.915007 232.053048 
L 525.252895 231.60944 
L 525.252895 229.161776 
L 525.587849 228.304885 
L 525.587849 224.344524 
L 525.920603 223.408695 
L 525.920603 216.582249 
L 526.257269 215.832974 
L 526.257269 204.014953 
L 526.587334 203.288463 
L 526.587334 187.29122 
L 526.915932 188.066275 
L 526.915932 167.909341 
L 527.245752 172.442622 
L 527.245752 146.67119 
L 527.573372 156.329272 
L 527.573372 126.581688 
L 527.900991 137.920941 
L 527.900991 100.248474 
L 528.228122 118.613293 
L 528.228122 79.444599 
L 528.554764 103.135174 
L 528.554764 67.36056 
L 528.882628 101.874311 
L 528.882628 61.563574 
L 529.209514 98.682451 
L 529.209514 59.403222 
L 529.536156 90.419484 
L 529.536156 51.06798 
L 529.863042 93.010276 
L 529.863042 49.932727 
L 530.189929 87.914533 
L 530.189929 51.394049 
L 530.516815 91.820461 
L 530.516815 58.690086 
L 530.843701 99.82736 
L 530.843701 69.400418 
L 531.176211 114.45139 
L 531.176211 85.006047 
L 531.503097 120.707014 
L 531.503097 92.477859 
L 531.830228 128.667723 
L 531.830228 97.523689 
L 531.830228 122.802721 
L 532.157358 123.690905 
L 532.157358 128.324646 
L 532.484734 127.630412 
L 532.484734 135.724473 
L 532.811864 142.314148 
L 532.811864 121.587398 
L 533.13924 150.828436 
L 533.13924 131.585815 
L 533.466859 156.521724 
L 533.466859 139.131247 
L 533.797658 160.459013 
L 533.797658 140.786254 
L 534.125277 162.729588 
L 534.125277 144.851041 
L 534.453142 164.12918 
L 534.453142 148.583721 
L 534.78125 171.163174 
L 534.78125 156.193714 
L 535.109114 175.356774 
L 535.109114 161.834096 
L 535.437712 178.389444 
L 535.437712 163.732234 
L 535.766065 179.281813 
L 535.766065 164.926296 
L 536.099797 180.991974 
L 536.099797 168.332717 
L 536.427906 182.636187 
L 536.427906 171.767972 
L 536.756504 186.987929 
L 536.756504 174.572528 
L 537.084613 189.209728 
L 537.084613 176.871944 
L 537.41321 189.41581 
L 537.41321 178.712815 
L 537.741808 191.878768 
L 537.741808 180.121873 
L 538.070895 192.057893 
L 538.070895 182.369017 
L 538.399737 194.245684 
L 538.399737 183.32876 
L 538.729068 195.316593 
L 538.729068 187.346588 
L 539.058399 197.919172 
L 539.058399 189.239085 
L 539.387486 200.895368 
L 539.387486 192.411961 
L 539.716573 201.492973 
L 539.716573 194.340116 
L 540.046393 203.052212 
L 540.046393 195.570648 
L 540.376457 205.220457 
L 540.376457 198.510907 
L 540.706522 205.938077 
L 540.706522 199.313588 
L 541.04221 206.724087 
L 541.04221 200.062028 
L 541.372519 208.012566 
L 541.372519 203.18662 
L 541.703073 211.043198 
L 541.703073 205.820014 
L 542.035093 212.892373 
L 542.035093 207.54709 
L 542.365891 213.225789 
L 542.365891 207.997292 
L 542.700357 213.691382 
L 542.700357 207.575415 
L 543.030911 213.319188 
L 543.030911 207.355862 
L 543.362442 212.437086 
L 543.362442 207.351414 
L 543.694218 213.436307 
L 543.694218 208.606028 
L 544.025505 215.222843 
L 544.025505 210.213381 
L 544.357037 215.434147 
L 544.357037 211.046929 
L 544.688324 216.650062 
L 544.688324 211.40169 
L 545.020345 217.29419 
L 545.020345 213.229531 
L 545.352121 218.232494 
L 545.352121 214.49227 
L 545.685364 219.436999 
L 545.685364 215.796306 
L 546.024475 220.53977 
L 546.024475 216.559507 
L 546.357962 220.488426 
L 546.357962 216.993864 
L 546.691939 220.25539 
L 546.691939 217.017824 
L 547.025915 221.061964 
L 547.025915 217.556718 
L 547.359403 221.577723 
L 547.359403 219.055976 
L 547.693379 221.986569 
L 547.693379 218.400827 
L 548.025889 222.028128 
L 548.025889 219.354019 
L 548.359377 222.539039 
L 548.359377 219.760252 
L 548.69262 223.499574 
L 548.69262 220.488746 
L 549.027574 223.294232 
L 549.027574 220.468599 
L 549.36204 223.857713 
L 549.36204 221.850936 
L 549.697483 224.923294 
L 549.697483 222.489675 
L 550.033416 225.281792 
L 550.033416 222.564861 
L 550.37106 224.958506 
L 550.37106 222.631804 
L 550.709192 225.438957 
L 550.709192 223.367885 
L 551.051971 226.207193 
L 551.051971 223.834236 
L 551.387903 226.285123 
L 551.387903 223.876532 
L 551.726281 226.184382 
L 551.726281 223.32922 
L 552.063924 225.739818 
L 552.063924 223.521232 
L 552.405236 225.812333 
L 552.405236 223.938903 
L 552.74288 226.880077 
L 552.74288 224.638652 
L 553.081257 226.967452 
L 553.081257 225.177433 
L 553.419634 227.02647 
L 553.419634 224.877662 
L 553.758256 227.285198 
L 553.758256 225.756779 
L 554.098345 227.58567 
L 554.098345 225.856188 
L 554.439167 227.968025 
L 554.439167 226.115356 
L 554.781701 227.727796 
L 554.781701 226.117376 
L 555.122524 228.013858 
L 555.122524 225.942614 
L 555.122524 227.294556 
L 555.459923 227.29976 
L 555.459923 227.419341 
L 555.800256 227.395069 
L 555.800256 228.049916 
L 556.148169 228.463919 
L 556.148169 226.901783 
L 556.488502 228.494895 
L 556.488502 226.992597 
L 556.83128 228.464878 
L 556.83128 226.951061 
L 557.171369 228.666274 
L 557.171369 227.627015 
L 557.511947 229.227974 
L 557.511947 228.055965 
L 557.85228 229.736436 
L 557.85228 228.491841 
L 558.195303 229.659303 
L 558.195303 228.409604 
L 558.538326 229.694077 
L 558.538326 228.209044 
L 558.881593 229.41622 
L 558.881593 228.355941 
L 559.228528 229.633688 
L 559.228528 228.45685 
L 559.569839 229.923975 
L 559.569839 228.79115 
L 559.912373 229.928379 
L 559.912373 228.606961 
L 560.255885 229.810699 
L 560.255885 228.780432 
L 560.599152 229.90293 
L 560.599152 228.720595 
L 560.942419 230.082616 
L 560.942419 229.175099 
L 561.289109 230.201944 
L 561.289109 229.470524 
L 561.632376 230.667355 
L 561.632376 229.827109 
L 561.975644 230.829205 
L 561.975644 230.050786 
L 562.319155 230.925266 
L 562.319155 229.903639 
L 562.319155 230.579698 
L 562.662178 230.568807 
L 562.662178 230.452101 
L 563.005445 230.545847 
L 563.348957 229.911097 
L 563.69198 229.885004 
L 563.69198 230.040385 
L 564.035247 229.879435 
L 564.035247 230.09081 
L 564.378759 230.891414 
L 564.378759 229.981846 
L 564.721782 230.889112 
L 564.721782 230.191184 
L 565.065538 230.959919 
L 565.065538 230.163266 
L 565.40905 231.060265 
L 565.40905 230.027998 
L 565.752806 230.951622 
L 565.752806 230.235109 
L 566.096318 231.194884 
L 566.096318 230.5792 
L 566.444964 231.577319 
L 566.444964 230.748823 
L 566.788964 231.570364 
L 566.788964 230.859932 
L 567.132721 231.56235 
L 567.132721 230.71335 
L 567.476721 231.460211 
L 567.476721 230.593612 
L 567.820478 231.268373 
L 567.820478 230.57099 
L 568.164234 231.450354 
L 568.164234 230.815181 
L 568.507501 231.660868 
L 568.507501 231.127277 
L 568.855658 231.830093 
L 568.855658 231.196863 
L 569.201126 231.889419 
L 569.201126 231.303152 
L 569.544882 231.85891 
L 569.544882 231.232651 
L 569.887905 231.893288 
L 569.887905 231.31109 
L 570.231661 231.978704 
L 570.231661 231.490758 
L 570.575173 232.235586 
L 570.575173 231.693497 
L 570.918684 232.289389 
L 570.918684 231.661696 
L 571.262196 232.181092 
L 571.262196 231.6445 
L 571.611087 232.222997 
L 571.611087 231.734046 
L 571.954109 232.399722 
L 571.954109 231.816275 
L 572.298355 232.278412 
L 572.298355 231.728441 
L 572.642111 232.247283 
L 572.642111 231.595741 
L 572.985867 232.140138 
L 572.985867 231.665028 
L 573.32889 232.203014 
L 573.32889 231.672782 
L 573.673135 232.330827 
L 573.673135 231.879359 
L 574.705871 232.004939 
L 574.705871 232.152595 
L 575.049627 232.642584 
L 575.049627 232.202063 
L 575.393872 232.659078 
L 575.393872 232.112333 
L 575.737873 232.486678 
L 575.737873 231.954603 
L 576.082118 232.413482 
L 576.082118 231.939918 
L 576.42563 232.482671 
L 576.42563 231.962641 
L 576.775987 232.462488 
L 576.775987 231.955518 
L 577.469612 231.992895 
L 577.469612 232.122115 
L 577.814102 232.175913 
L 578.158591 232.668591 
L 578.158591 232.271092 
L 578.503326 232.699692 
L 578.503326 232.255533 
L 578.847815 232.758617 
L 578.847815 232.313004 
L 579.191572 232.713276 
L 579.191572 232.102856 
L 579.536061 232.555911 
L 579.536061 232.035721 
L 579.879817 232.438011 
L 579.879817 232.057594 
L 580.22553 232.641425 
L 580.22553 232.310955 
L 580.570019 232.843802 
L 580.570019 232.515725 
L 580.914998 232.893566 
L 580.914998 232.544263 
L 581.259488 232.87627 
L 581.259488 232.492416 
L 581.603488 232.843053 
L 581.603488 232.497417 
L 581.953357 232.849899 
L 581.953357 232.472882 
L 582.298091 232.884736 
L 582.298091 232.606208 
L 582.644292 233.004877 
L 582.644292 232.586729 
L 582.988782 232.978232 
L 582.988782 232.554258 
L 583.332538 232.844811 
L 583.332538 232.519575 
L 583.332538 232.870923 
L 583.677272 232.882637 
L 583.677272 233.010986 
L 584.021762 232.98643 
L 584.365763 233.111696 
L 584.365763 232.839821 
L 584.709519 233.154353 
L 584.709519 232.892638 
L 585.054253 233.194143 
L 585.054253 232.797395 
L 585.398254 233.04966 
L 585.398254 232.641507 
L 585.742255 232.86244 
L 585.742255 232.529309 
L 586.086255 232.927952 
L 586.086255 232.713788 
L 586.430745 233.06933 
L 586.430745 232.787907 
L 586.77499 233.136566 
L 586.77499 232.717495 
L 587.129749 232.9903 
L 587.129749 232.783951 
L 587.474238 233.128265 
L 587.474238 232.830595 
L 587.818484 233.252575 
L 587.818484 232.968347 
L 588.162973 233.209905 
L 588.162973 233.011903 
L 588.507219 233.337366 
L 588.507219 233.076094 
L 588.851953 233.334963 
L 588.851953 233.000963 
L 589.196442 233.235677 
L 589.196442 232.989669 
L 589.541177 233.277189 
L 589.541177 232.935071 
L 589.885666 233.28966 
L 589.885666 232.9382 
L 590.229667 233.215039 
L 590.229667 232.912796 
L 590.574157 233.279427 
L 590.574157 233.004825 
L 590.918646 233.382102 
L 590.918646 233.105037 
L 591.262892 233.404874 
L 591.262892 233.118408 
L 591.607626 233.386992 
L 591.607626 233.10257 
L 591.951627 233.343587 
L 591.951627 233.071419 
L 592.301495 233.371093 
L 592.301495 233.136147 
L 592.646229 233.349763 
L 592.646229 233.140966 
L 592.990719 233.398599 
L 592.990719 233.160925 
L 593.33472 233.424476 
L 593.33472 233.2464 
L 594.366966 233.09744 
L 594.711456 233.349298 
L 594.711456 233.137535 
L 595.05619 233.44276 
L 595.05619 233.15201 
L 595.400924 233.371562 
L 595.400924 233.195405 
L 595.400924 233.360729 
L 596.441484 233.392006 
L 596.441484 233.170314 
L 596.786218 233.459505 
L 596.786218 233.238507 
L 597.130952 233.447098 
L 597.130952 233.140375 
L 597.480576 233.362217 
L 597.480576 233.192364 
L 597.825066 233.425048 
L 597.825066 233.240535 
L 598.1698 233.555824 
L 598.1698 233.376164 
L 598.516246 233.546178 
L 598.516246 233.356149 
L 598.86098 233.556747 
L 598.86098 233.379982 
L 599.205959 233.572976 
L 599.205959 233.309747 
L 599.550204 233.481722 
L 599.550204 233.187247 
L 599.894694 233.34889 
L 599.894694 233.169025 
L 600.239183 233.463972 
L 600.239183 233.274597 
L 600.583673 233.558416 
L 600.583673 233.23486 
L 600.928652 233.387303 
L 600.928652 233.201017 
L 601.273875 233.435923 
L 601.273875 233.248108 
L 601.618365 233.587888 
L 601.618365 233.433248 
L 601.963343 233.595871 
L 601.963343 233.396881 
L 603.00268 233.318958 
L 604.726351 233.630112 
L 604.726351 233.382964 
L 605.070841 233.597083 
L 605.070841 233.414835 
L 605.420465 233.595195 
L 605.420465 233.371166 
L 605.764221 233.626998 
L 605.764221 233.451175 
L 606.1092 233.584289 
L 606.1092 233.387825 
L 606.4532 233.634808 
L 606.4532 233.452729 
L 606.797446 233.624881 
L 606.797446 233.488023 
L 607.141935 233.675514 
L 607.141935 233.415347 
L 607.486914 233.58975 
L 607.486914 233.322499 
L 608.180783 233.605499 
L 608.180783 233.466531 
L 608.525273 233.719395 
L 608.525273 233.5052 
L 609.21523 233.700691 
L 609.21523 233.560049 
L 609.560209 233.776141 
L 609.560209 233.560689 
L 609.905432 233.707042 
L 609.905432 233.546027 
L 610.250166 233.721567 
L 610.250166 233.524849 
L 610.59539 233.754073 
L 610.59539 233.581237 
L 610.939879 233.727272 
L 610.939879 233.570316 
L 611.284858 233.759916 
L 611.284858 233.590025 
L 611.629837 233.759357 
L 611.629837 233.575764 
L 611.974082 233.722341 
L 611.974082 233.543308 
L 612.318816 233.690644 
L 612.318816 233.526035 
L 612.66355 233.687955 
L 612.66355 233.513447 
L 613.013908 233.697222 
L 613.013908 233.577097 
L 613.358642 233.735897 
L 613.358642 233.583466 
L 613.702643 233.71082 
L 613.702643 233.465258 
L 614.046888 233.595526 
L 614.046888 233.381436 
L 614.736356 233.717078 
L 615.426069 233.617123 
L 615.77007 233.786642 
L 615.77007 233.668645 
L 616.115049 233.823777 
L 616.115049 233.660925 
L 616.464428 233.773776 
L 616.464428 233.613584 
L 617.153408 233.778172 
L 617.153408 233.534589 
L 617.497653 233.66884 
L 617.497653 233.481853 
L 617.841898 233.600877 
L 617.841898 233.456849 
L 618.191522 233.716152 
L 618.191522 233.63217 
L 618.535523 233.827811 
L 618.535523 233.700751 
L 618.880257 233.867838 
L 618.880257 233.738995 
L 619.224991 233.837766 
L 619.224991 233.709966 
L 619.569481 233.841915 
L 619.569481 233.727575 
L 619.91397 233.853513 
L 619.91397 233.716293 
L 620.25846 233.84129 
L 620.25846 233.715246 
L 620.947195 233.863818 
L 620.947195 233.741165 
L 621.291196 233.850572 
L 621.291196 233.721863 
L 621.635197 233.833675 
L 621.635197 233.71541 
L 622.323931 233.851416 
L 622.323931 233.681162 
L 623.010955 233.842552 
L 623.010955 233.676817 
L 623.360579 233.862259 
L 623.360579 233.840795 
L 623.703113 233.658133 
L 624.047358 233.83387 
L 624.047358 233.693882 
L 625.076915 233.588533 
L 626.101827 233.876069 
L 626.101827 233.777719 
L 626.43996 233.903628 
L 627.787357 233.817225 
L 628.1206 233.959259 
L 628.1206 233.794084 
L 628.458489 233.903853 
L 628.458489 233.775687 
L 628.790265 233.87471 
L 629.121307 233.715314 
L 629.781926 233.88323 
L 629.781926 233.832144 
L 630.11199 233.984618 
L 630.11199 233.814183 
L 630.44181 233.821924 
L 630.44181 233.677277 
L 631.760602 233.983163 
L 631.760602 233.824417 
L 632.090422 233.918891 
L 632.090422 233.797277 
L 632.750796 233.698963 
L 633.080861 233.862874 
L 633.080861 233.741148 
L 633.749303 233.900192 
L 633.749303 233.749032 
L 634.08059 233.797536 
L 634.08059 233.65684 
L 634.74292 233.822238 
L 634.74292 233.697884 
L 635.073962 233.869067 
L 635.073962 233.809633 
L 635.737759 233.989808 
L 635.737759 233.94305 
L 637.072198 233.989944 
L 637.072198 233.841284 
L 637.404952 233.910568 
L 637.404952 233.720114 
L 637.737462 233.796481 
L 637.737462 233.623696 
L 638.070705 233.688543 
L 638.408593 233.603803 
L 638.408593 233.77733 
L 638.741347 233.84794 
L 639.408811 233.941587 
L 639.408811 233.840951 
L 640.075542 233.977747 
L 640.075542 233.882216 
L 640.746184 233.894141 
L 640.746184 233.779402 
L 641.080894 233.878928 
L 641.080894 233.814229 
L 642.423402 233.907615 
L 642.423402 233.851122 
L 643.09869 234.008371 
L 643.09869 233.917664 
L 643.441957 233.975047 
L 643.441957 233.809933 
L 643.778623 233.858543 
L 643.778623 233.691416 
L 644.793511 233.918987 
L 644.793511 233.861641 
L 645.469532 233.757741 
L 646.149954 233.965006 
L 646.149954 233.875041 
L 646.490287 233.965096 
L 646.490287 233.873127 
L 646.831599 233.931679 
L 646.831599 233.857343 
L 654.065638 234.000706 
L 654.065638 233.928963 
L 654.754373 234.038259 
L 654.754373 233.974676 
L 655.442863 234.041681 
L 655.442863 233.893141 
L 656.130865 233.937821 
L 656.130865 233.826204 
L 656.475354 233.969111 
L 656.475354 233.89848 
L 657.164823 234.019797 
L 657.164823 233.921489 
L 658.202693 233.861003 
L 658.202693 233.890528 
L 658.898273 234.008617 
L 658.898273 233.920017 
L 659.243008 234.007242 
L 659.243008 233.910505 
L 660.278677 233.853474 
L 660.278677 233.872472 
L 660.6239 234.027621 
L 660.6239 233.933631 
L 665.117425 233.913274 
L 665.462404 233.850181 
L 665.807627 233.945331 
L 665.807627 233.829275 
L 666.498073 233.918718 
L 666.498073 233.816761 
L 667.537655 234.047576 
L 667.537655 233.986669 
L 667.882389 234.058884 
L 667.882389 233.945781 
L 668.916347 233.89542 
L 668.916347 233.83264 
L 669.611683 234.037246 
L 669.611683 233.943805 
L 670.30164 233.97065 
L 670.30164 233.910949 
L 670.647353 234.00778 
L 670.647353 233.92492 
L 674.097873 233.970189 
L 674.794187 234.064612 
L 674.794187 233.973556 
L 676.519814 233.892553 
L 676.864304 233.97007 
L 676.864304 233.858538 
L 678.252287 234.059459 
L 678.252287 233.958261 
L 679.289179 234.021314 
L 679.289179 233.9061 
L 679.985004 234.067585 
L 682.403767 233.977961 
L 683.094457 234.047633 
L 683.094457 233.93275 
L 684.477062 234.042079 
L 684.477062 233.940649 
L 685.172642 233.888347 
L 685.172642 233.892864 
L 685.518599 233.980061 
L 686.20929 234.076661 
L 686.20929 234.000829 
L 686.554757 234.056146 
L 686.554757 233.940616 
L 687.246426 234.018827 
L 692.786623 234.042362 
L 692.786623 233.941298 
L 694.512738 234.095565 
L 694.512738 234.036376 
L 695.209053 234.050183 
L 695.209053 233.984062 
L 696.242522 234.09727 
L 696.242522 233.993756 
L 697.269879 234.095954 
L 697.269879 234.022731 
L 699.608203 233.989176 
L 699.608203 234.091042 
L 700.279824 234.061386 
L 700.279824 234.085829 
L 703.295881 234.065083 
L 703.970436 234.140124 
L 703.970436 234.072225 
L 704.647435 234.07393 
L 704.647435 234.006765 
L 704.989235 234.081468 
L 704.989235 234.067159 
L 705.683104 234.036967 
L 706.709239 234.099863 
L 706.709239 234.049759 
L 707.742463 234.117592 
L 707.742463 234.055605 
L 707.742463 234.092403 
L 711.54383 234.040964 
L 712.234032 234.079787 
L 712.234032 234.023571 
L 713.614436 234.096406 
L 713.614436 234.094671 
L 715.697999 234.096485 
L 715.697999 234.039671 
L 716.044934 234.097809 
L 716.044934 234.006506 
L 716.73538 233.978641 
L 717.081093 233.916099 
L 717.081093 233.997847 
L 719.500589 234.065154 
L 719.500589 234.011197 
L 723.308068 234.094377 
L 723.308068 234.083906 
L 723.65378 234.014221 
L 723.999003 234.080091 
L 723.999003 234.023327 
L 728.155617 234.074166 
L 728.155617 234.122343 
L 729.537733 234.10568 
L 729.537733 234.054275 
L 730.919359 234.136424 
L 730.919359 234.094108 
L 732.652076 234.105727 
L 732.652076 234.117915 
L 742.680907 234.051253 
L 742.680907 234.024277 
L 745.097469 234.058921 
L 746.138518 234.167689 
L 746.138518 234.110849 
L 747.868301 234.12205 
L 747.868301 234.08591 
L 749.596128 234.161389 
L 749.596128 234.106824 
L 750.629842 234.153404 
L 750.629842 234.101279 
L 752.705582 234.179898 
L 752.705582 234.100636 
L 769.954272 234.155893 
L 769.954272 234.189561 
L 774.785929 234.039245 
L 774.785929 234.049924 
L 775.820865 234.088955 
L 775.820865 234.036048 
L 777.544781 234.046888 
L 777.544781 234.037689 
L 778.585584 234.123139 
L 778.585584 234.096632 
L 781.340769 234.12856 
L 782.374482 234.122044 
L 782.374482 234.111939 
L 784.106221 234.103427 
L 784.106221 234.074961 
L 785.827936 234.165498 
L 785.827936 234.132679 
L 788.23912 234.158618 
L 788.23912 234.165312 
L 788.23912 234.189071 
L 790.640035 234.19089 
L 790.640035 234.165706 
L 792.660519 234.129102 
L 792.660519 234.129697 
L 793.665872 234.173119 
L 793.665872 234.132952 
L 793.665872 234.159463 
L 796.99439 234.15565 
L 796.99439 234.163831 
L 800.991596 234.182356 
L 800.991596 234.217317 
L 802.657811 234.161016 
L 806.346711 234.195958 
L 806.346711 234.229504 
L 809.050796 234.149748 
L 809.050796 234.155455 
L 810.396238 234.205018 
L 810.396238 234.203969 
L 813.794926 234.215668 
L 814.49344 234.236478 
L 814.49344 234.236478 
" clip-path="url(#pe339fed159)" style="fill: none; stroke: #008000; stroke-width: 1.5; stroke-linecap: square"/>
   </g>
   <g id="patch_3">
    <path d="M 47.72 534.04 
L 47.72 26.88 
" style="fill: none; stroke: #000000; stroke-width: 0.8; stroke-linejoin: miter; stroke-linecap: square"/>
   </g>
   <g id="patch_4">
    <path d="M 853.2 534.04 
L 853.2 26.88 
" style="fill: none; stroke: #000000; stroke-width: 0.8; stroke-linejoin: miter; stroke-linecap: square"/>
   </g>
   <g id="patch_5">
    <path d="M 47.72 534.04 
L 853.2 534.04 
" style="fill: none; stroke: #000000; stroke-width: 0.8; stroke-linejoin: miter; stroke-linecap: square"/>
   </g>
   <g id="patch_6">
    <path d="M 47.72 26.88 
L 853.2 26.88 
" style="fill: none; stroke: #000000; stroke-width: 0.8; stroke-linejoin: miter; stroke-linecap: square"/>
   </g>
   <g id="patch_7">
    <path d="M 597.419706 450.388685 
Q 571.268413 456.220616 545.117119 462.052547 
L 545.987761 465.956645 
Q 539.480187 464.334189 532.972613 462.711733 
Q 538.174223 458.478042 543.375833 454.244351 
L 544.246476 458.148449 
Q 570.39777 452.316518 596.549064 446.484587 
L 597.419706 450.388685 
z
" style="stroke: #000000; stroke-linecap: round"/>
   </g>
   <g id="text_15">
    <!-- Peak: RT=3.04, Area=6.72e+03 -->
    <g style="fill: #ff0000" transform="translate(602.656479 433.894217) scale(0.1 -0.1)">
     <defs>
      <path id="DejaVuSans-50" d="M 1259 4147 
L 1259 2394 
L 2053 2394 
Q 2494 2394 2734 2622 
Q 2975 2850 2975 3272 
Q 2975 3691 2734 3919 
Q 2494 4147 2053 4147 
L 1259 4147 
z
M 628 4666 
L 2053 4666 
Q 2838 4666 3239 4311 
Q 3641 3956 3641 3272 
Q 3641 2581 3239 2228 
Q 2838 1875 2053 1875 
L 1259 1875 
L 1259 0 
L 628 0 
L 628 4666 
z
" transform="scale(0.015625)"/>
      <path id="DejaVuSans-6b" d="M 581 4863 
L 1159 4863 
L 1159 1991 
L 2875 3500 
L 3609 3500 
L 1753 1863 
L 3688 0 
L 2938 0 
L 1159 1709 
L 1159 0 
L 581 0 
L 581 4863 
z
" transform="scale(0.015625)"/>
      <path id="DejaVuSans-3a" d="M 750 794 
L 1409 794 
L 1409 0 
L 750 0 
L 750 794 
z
M 750 3309 
L 1409 3309 
L 1409 2516 
L 750 2516 
L 750 3309 
z
" transform="scale(0.015625)"/>
      <path id="DejaVuSans-3d" d="M 678 2906 
L 4684 2906 
L 4684 2381 
L 678 2381 
L 678 2906 
z
M 678 1631 
L 4684 1631 
L 4684 1100 
L 678 1100 
L 678 1631 
z
" transform="scale(0.015625)"/>
      <path id="DejaVuSans-2c" d="M 750 794 
L 1409 794 
L 1409 256 
L 897 -744 
L 494 -744 
L 750 256 
L 750 794 
z
" transform="scale(0.015625)"/>
      <path id="DejaVuSans-41" d="M 2188 4044 
L 1331 1722 
L 3047 1722 
L 2188 4044 
z
M 1831 4666 
L 2547 4666 
L 4325 0 
L 3669 0 
L 3244 1197 
L 1141 1197 
L 716 0 
L 50 0 
L 1831 4666 
z
" transform="scale(0.015625)"/>
      <path id="DejaVuSans-36" d="M 2113 2584 
Q 1688 2584 1439 2293 
Q 1191 2003 1191 1497 
Q 1191 994 1439 701 
Q 1688 409 2113 409 
Q 2538 409 2786 701 
Q 3034 994 3034 1497 
Q 3034 2003 2786 2293 
Q 2538 2584 2113 2584 
z
M 3366 4563 
L 3366 3988 
Q 3128 4100 2886 4159 
Q 2644 4219 2406 4219 
Q 1781 4219 1451 3797 
Q 1122 3375 1075 2522 
Q 1259 2794 1537 2939 
Q 1816 3084 2150 3084 
Q 2853 3084 3261 2657 
Q 3669 2231 3669 1497 
Q 3669 778 3244 343 
Q 2819 -91 2113 -91 
Q 1303 -91 875 529 
Q 447 1150 447 2328 
Q 447 3434 972 4092 
Q 1497 4750 2381 4750 
Q 2619 4750 2861 4703 
Q 3103 4656 3366 4563 
z
" transform="scale(0.015625)"/>
      <path id="DejaVuSans-37" d="M 525 4666 
L 3525 4666 
L 3525 4397 
L 1831 0 
L 1172 0 
L 2766 4134 
L 525 4134 
L 525 4666 
z
" transform="scale(0.015625)"/>
      <path id="DejaVuSans-2b" d="M 2944 4013 
L 2944 2272 
L 4684 2272 
L 4684 1741 
L 2944 1741 
L 2944 0 
L 2419 0 
L 2419 1741 
L 678 1741 
L 678 2272 
L 2419 2272 
L 2419 4013 
L 2944 4013 
z
" transform="scale(0.015625)"/>
     </defs>
     <use xlink:href="#DejaVuSans-50"/>
     <use xlink:href="#DejaVuSans-65" transform="translate(56.677734 0)"/>
     <use xlink:href="#DejaVuSans-61" transform="translate(118.201172 0)"/>
     <use xlink:href="#DejaVuSans-6b" transform="translate(179.480469 0)"/>
     <use xlink:href="#DejaVuSans-3a" transform="translate(237.390625 0)"/>
     <use xlink:href="#DejaVuSans-20" transform="translate(271.082031 0)"/>
     <use xlink:href="#DejaVuSans-52" transform="translate(302.869141 0)"/>
     <use xlink:href="#DejaVuSans-54" transform="translate(365.101562 0)"/>
     <use xlink:href="#DejaVuSans-3d" transform="translate(426.185547 0)"/>
     <use xlink:href="#DejaVuSans-33" transform="translate(509.974609 0)"/>
     <use xlink:href="#DejaVuSans-2e" transform="translate(573.597656 0)"/>
     <use xlink:href="#DejaVuSans-30" transform="translate(605.384766 0)"/>
     <use xlink:href="#DejaVuSans-34" transform="translate(669.007812 0)"/>
     <use xlink:href="#DejaVuSans-2c" transform="translate(732.630859 0)"/>
     <use xlink:href="#DejaVuSans-20" transform="translate(764.417969 0)"/>
     <use xlink:href="#DejaVuSans-41" transform="translate(796.205078 0)"/>
     <use xlink:href="#DejaVuSans-72" transform="translate(864.613281 0)"/>
     <use xlink:href="#DejaVuSans-65" transform="translate(903.476562 0)"/>
     <use xlink:href="#DejaVuSans-61" transform="translate(965 0)"/>
     <use xlink:href="#DejaVuSans-3d" transform="translate(1026.279297 0)"/>
     <use xlink:href="#DejaVuSans-36" transform="translate(1110.068359 0)"/>
     <use xlink:href="#DejaVuSans-2e" transform="translate(1173.691406 0)"/>
     <use xlink:href="#DejaVuSans-37" transform="translate(1205.478516 0)"/>
     <use xlink:href="#DejaVuSans-32" transform="translate(1269.101562 0)"/>
     <use xlink:href="#DejaVuSans-65" transform="translate(1332.724609 0)"/>
     <use xlink:href="#DejaVuSans-2b" transform="translate(1394.248047 0)"/>
     <use xlink:href="#DejaVuSans-30" transform="translate(1478.037109 0)"/>
     <use xlink:href="#DejaVuSans-33" transform="translate(1541.660156 0)"/>
    </g>
    <!-- (18.95% of total) -->
    <g style="fill: #ff0000" transform="translate(602.656479 445.092029) scale(0.1 -0.1)">
     <defs>
      <path id="DejaVuSans-38" d="M 2034 2216 
Q 1584 2216 1326 1975 
Q 1069 1734 1069 1313 
Q 1069 891 1326 650 
Q 1584 409 2034 409 
Q 2484 409 2743 651 
Q 3003 894 3003 1313 
Q 3003 1734 2745 1975 
Q 2488 2216 2034 2216 
z
M 1403 2484 
Q 997 2584 770 2862 
Q 544 3141 544 3541 
Q 544 4100 942 4425 
Q 1341 4750 2034 4750 
Q 2731 4750 3128 4425 
Q 3525 4100 3525 3541 
Q 3525 3141 3298 2862 
Q 3072 2584 2669 2484 
Q 3125 2378 3379 2068 
Q 3634 1759 3634 1313 
Q 3634 634 3220 271 
Q 2806 -91 2034 -91 
Q 1263 -91 848 271 
Q 434 634 434 1313 
Q 434 1759 690 2068 
Q 947 2378 1403 2484 
z
M 1172 3481 
Q 1172 3119 1398 2916 
Q 1625 2713 2034 2713 
Q 2441 2713 2670 2916 
Q 2900 3119 2900 3481 
Q 2900 3844 2670 4047 
Q 2441 4250 2034 4250 
Q 1625 4250 1398 4047 
Q 1172 3844 1172 3481 
z
" transform="scale(0.015625)"/>
      <path id="DejaVuSans-39" d="M 703 97 
L 703 672 
Q 941 559 1184 500 
Q 1428 441 1663 441 
Q 2288 441 2617 861 
Q 2947 1281 2994 2138 
Q 2813 1869 2534 1725 
Q 2256 1581 1919 1581 
Q 1219 1581 811 2004 
Q 403 2428 403 3163 
Q 403 3881 828 4315 
Q 1253 4750 1959 4750 
Q 2769 4750 3195 4129 
Q 3622 3509 3622 2328 
Q 3622 1225 3098 567 
Q 2575 -91 1691 -91 
Q 1453 -91 1209 -44 
Q 966 3 703 97 
z
M 1959 2075 
Q 2384 2075 2632 2365 
Q 2881 2656 2881 3163 
Q 2881 3666 2632 3958 
Q 2384 4250 1959 4250 
Q 1534 4250 1286 3958 
Q 1038 3666 1038 3163 
Q 1038 2656 1286 2365 
Q 1534 2075 1959 2075 
z
" transform="scale(0.015625)"/>
      <path id="DejaVuSans-25" d="M 4653 2053 
Q 4381 2053 4226 1822 
Q 4072 1591 4072 1178 
Q 4072 772 4226 539 
Q 4381 306 4653 306 
Q 4919 306 5073 539 
Q 5228 772 5228 1178 
Q 5228 1588 5073 1820 
Q 4919 2053 4653 2053 
z
M 4653 2450 
Q 5147 2450 5437 2106 
Q 5728 1763 5728 1178 
Q 5728 594 5436 251 
Q 5144 -91 4653 -91 
Q 4153 -91 3862 251 
Q 3572 594 3572 1178 
Q 3572 1766 3864 2108 
Q 4156 2450 4653 2450 
z
M 1428 4353 
Q 1159 4353 1004 4120 
Q 850 3888 850 3481 
Q 850 3069 1003 2837 
Q 1156 2606 1428 2606 
Q 1700 2606 1854 2837 
Q 2009 3069 2009 3481 
Q 2009 3884 1853 4118 
Q 1697 4353 1428 4353 
z
M 4250 4750 
L 4750 4750 
L 1831 -91 
L 1331 -91 
L 4250 4750 
z
M 1428 4750 
Q 1922 4750 2215 4408 
Q 2509 4066 2509 3481 
Q 2509 2891 2217 2550 
Q 1925 2209 1428 2209 
Q 931 2209 642 2551 
Q 353 2894 353 3481 
Q 353 4063 643 4406 
Q 934 4750 1428 4750 
z
" transform="scale(0.015625)"/>
      <path id="DejaVuSans-66" d="M 2375 4863 
L 2375 4384 
L 1825 4384 
Q 1516 4384 1395 4259 
Q 1275 4134 1275 3809 
L 1275 3500 
L 2222 3500 
L 2222 3053 
L 1275 3053 
L 1275 0 
L 697 0 
L 697 3053 
L 147 3053 
L 147 3500 
L 697 3500 
L 697 3744 
Q 697 4328 969 4595 
Q 1241 4863 1831 4863 
L 2375 4863 
z
" transform="scale(0.015625)"/>
     </defs>
     <use xlink:href="#DejaVuSans-28"/>
     <use xlink:href="#DejaVuSans-31" transform="translate(39.013672 0)"/>
     <use xlink:href="#DejaVuSans-38" transform="translate(102.636719 0)"/>
     <use xlink:href="#DejaVuSans-2e" transform="translate(166.259766 0)"/>
     <use xlink:href="#DejaVuSans-39" transform="translate(198.046875 0)"/>
     <use xlink:href="#DejaVuSans-35" transform="translate(261.669922 0)"/>
     <use xlink:href="#DejaVuSans-25" transform="translate(325.292969 0)"/>
     <use xlink:href="#DejaVuSans-20" transform="translate(420.3125 0)"/>
     <use xlink:href="#DejaVuSans-6f" transform="translate(452.099609 0)"/>
     <use xlink:href="#DejaVuSans-66" transform="translate(513.28125 0)"/>
     <use xlink:href="#DejaVuSans-20" transform="translate(548.486328 0)"/>
     <use xlink:href="#DejaVuSans-74" transform="translate(580.273438 0)"/>
     <use xlink:href="#DejaVuSans-6f" transform="translate(619.482422 0)"/>
     <use xlink:href="#DejaVuSans-74" transform="translate(680.664062 0)"/>
     <use xlink:href="#DejaVuSans-61" transform="translate(719.873047 0)"/>
     <use xlink:href="#DejaVuSans-6c" transform="translate(781.152344 0)"/>
     <use xlink:href="#DejaVuSans-29" transform="translate(808.935547 0)"/>
    </g>
   </g>
   <g id="text_16">
    <!-- UV and MS Chromatograms of IrCp3C15, target m/z = 825.1648858 -->
    <g transform="translate(246.13 20.88) scale(0.12 -0.12)">
     <defs>
      <path id="DejaVuSans-55" d="M 556 4666 
L 1191 4666 
L 1191 1831 
Q 1191 1081 1462 751 
Q 1734 422 2344 422 
Q 2950 422 3222 751 
Q 3494 1081 3494 1831 
L 3494 4666 
L 4128 4666 
L 4128 1753 
Q 4128 841 3676 375 
Q 3225 -91 2344 -91 
Q 1459 -91 1007 375 
Q 556 841 556 1753 
L 556 4666 
z
" transform="scale(0.015625)"/>
      <path id="DejaVuSans-56" d="M 1831 0 
L 50 4666 
L 709 4666 
L 2188 738 
L 3669 4666 
L 4325 4666 
L 2547 0 
L 1831 0 
z
" transform="scale(0.015625)"/>
      <path id="DejaVuSans-4d" d="M 628 4666 
L 1569 4666 
L 2759 1491 
L 3956 4666 
L 4897 4666 
L 4897 0 
L 4281 0 
L 4281 4097 
L 3078 897 
L 2444 897 
L 1241 4097 
L 1241 0 
L 628 0 
L 628 4666 
z
" transform="scale(0.015625)"/>
      <path id="DejaVuSans-53" d="M 3425 4513 
L 3425 3897 
Q 3066 4069 2747 4153 
Q 2428 4238 2131 4238 
Q 1616 4238 1336 4038 
Q 1056 3838 1056 3469 
Q 1056 3159 1242 3001 
Q 1428 2844 1947 2747 
L 2328 2669 
Q 3034 2534 3370 2195 
Q 3706 1856 3706 1288 
Q 3706 609 3251 259 
Q 2797 -91 1919 -91 
Q 1588 -91 1214 -16 
Q 841 59 441 206 
L 441 856 
Q 825 641 1194 531 
Q 1563 422 1919 422 
Q 2459 422 2753 634 
Q 3047 847 3047 1241 
Q 3047 1584 2836 1778 
Q 2625 1972 2144 2069 
L 1759 2144 
Q 1053 2284 737 2584 
Q 422 2884 422 3419 
Q 422 4038 858 4394 
Q 1294 4750 2059 4750 
Q 2388 4750 2728 4690 
Q 3069 4631 3425 4513 
z
" transform="scale(0.015625)"/>
      <path id="DejaVuSans-43" d="M 4122 4306 
L 4122 3641 
Q 3803 3938 3442 4084 
Q 3081 4231 2675 4231 
Q 1875 4231 1450 3742 
Q 1025 3253 1025 2328 
Q 1025 1406 1450 917 
Q 1875 428 2675 428 
Q 3081 428 3442 575 
Q 3803 722 4122 1019 
L 4122 359 
Q 3791 134 3420 21 
Q 3050 -91 2638 -91 
Q 1578 -91 968 557 
Q 359 1206 359 2328 
Q 359 3453 968 4101 
Q 1578 4750 2638 4750 
Q 3056 4750 3426 4639 
Q 3797 4528 4122 4306 
z
" transform="scale(0.015625)"/>
      <path id="DejaVuSans-68" d="M 3513 2113 
L 3513 0 
L 2938 0 
L 2938 2094 
Q 2938 2591 2744 2837 
Q 2550 3084 2163 3084 
Q 1697 3084 1428 2787 
Q 1159 2491 1159 1978 
L 1159 0 
L 581 0 
L 581 4863 
L 1159 4863 
L 1159 2956 
Q 1366 3272 1645 3428 
Q 1925 3584 2291 3584 
Q 2894 3584 3203 3211 
Q 3513 2838 3513 2113 
z
" transform="scale(0.015625)"/>
      <path id="DejaVuSans-67" d="M 2906 1791 
Q 2906 2416 2648 2759 
Q 2391 3103 1925 3103 
Q 1463 3103 1205 2759 
Q 947 2416 947 1791 
Q 947 1169 1205 825 
Q 1463 481 1925 481 
Q 2391 481 2648 825 
Q 2906 1169 2906 1791 
z
M 3481 434 
Q 3481 -459 3084 -895 
Q 2688 -1331 1869 -1331 
Q 1566 -1331 1297 -1286 
Q 1028 -1241 775 -1147 
L 775 -588 
Q 1028 -725 1275 -790 
Q 1522 -856 1778 -856 
Q 2344 -856 2625 -561 
Q 2906 -266 2906 331 
L 2906 616 
Q 2728 306 2450 153 
Q 2172 0 1784 0 
Q 1141 0 747 490 
Q 353 981 353 1791 
Q 353 2603 747 3093 
Q 1141 3584 1784 3584 
Q 2172 3584 2450 3431 
Q 2728 3278 2906 2969 
L 2906 3500 
L 3481 3500 
L 3481 434 
z
" transform="scale(0.015625)"/>
      <path id="DejaVuSans-70" d="M 1159 525 
L 1159 -1331 
L 581 -1331 
L 581 3500 
L 1159 3500 
L 1159 2969 
Q 1341 3281 1617 3432 
Q 1894 3584 2278 3584 
Q 2916 3584 3314 3078 
Q 3713 2572 3713 1747 
Q 3713 922 3314 415 
Q 2916 -91 2278 -91 
Q 1894 -91 1617 61 
Q 1341 213 1159 525 
z
M 3116 1747 
Q 3116 2381 2855 2742 
Q 2594 3103 2138 3103 
Q 1681 3103 1420 2742 
Q 1159 2381 1159 1747 
Q 1159 1113 1420 752 
Q 1681 391 2138 391 
Q 2594 391 2855 752 
Q 3116 1113 3116 1747 
z
" transform="scale(0.015625)"/>
      <path id="DejaVuSans-2f" d="M 1625 4666 
L 2156 4666 
L 531 -594 
L 0 -594 
L 1625 4666 
z
" transform="scale(0.015625)"/>
     </defs>
     <use xlink:href="#DejaVuSans-55"/>
     <use xlink:href="#DejaVuSans-56" transform="translate(73.193359 0)"/>
     <use xlink:href="#DejaVuSans-20" transform="translate(141.601562 0)"/>
     <use xlink:href="#DejaVuSans-61" transform="translate(173.388672 0)"/>
     <use xlink:href="#DejaVuSans-6e" transform="translate(234.667969 0)"/>
     <use xlink:href="#DejaVuSans-64" transform="translate(298.046875 0)"/>
     <use xlink:href="#DejaVuSans-20" transform="translate(361.523438 0)"/>
     <use xlink:href="#DejaVuSans-4d" transform="translate(393.310547 0)"/>
     <use xlink:href="#DejaVuSans-53" transform="translate(479.589844 0)"/>
     <use xlink:href="#DejaVuSans-20" transform="translate(543.066406 0)"/>
     <use xlink:href="#DejaVuSans-43" transform="translate(574.853516 0)"/>
     <use xlink:href="#DejaVuSans-68" transform="translate(644.677734 0)"/>
     <use xlink:href="#DejaVuSans-72" transform="translate(708.056641 0)"/>
     <use xlink:href="#DejaVuSans-6f" transform="translate(746.919922 0)"/>
     <use xlink:href="#DejaVuSans-6d" transform="translate(808.101562 0)"/>
     <use xlink:href="#DejaVuSans-61" transform="translate(905.513672 0)"/>
     <use xlink:href="#DejaVuSans-74" transform="translate(966.792969 0)"/>
     <use xlink:href="#DejaVuSans-6f" transform="translate(1006.001953 0)"/>
     <use xlink:href="#DejaVuSans-67" transform="translate(1067.183594 0)"/>
     <use xlink:href="#DejaVuSans-72" transform="translate(1130.660156 0)"/>
     <use xlink:href="#DejaVuSans-61" transform="translate(1171.773438 0)"/>
     <use xlink:href="#DejaVuSans-6d" transform="translate(1233.052734 0)"/>
     <use xlink:href="#DejaVuSans-73" transform="translate(1330.464844 0)"/>
     <use xlink:href="#DejaVuSans-20" transform="translate(1382.564453 0)"/>
     <use xlink:href="#DejaVuSans-6f" transform="translate(1414.351562 0)"/>
     <use xlink:href="#DejaVuSans-66" transform="translate(1475.533203 0)"/>
     <use xlink:href="#DejaVuSans-20" transform="translate(1510.738281 0)"/>
     <use xlink:href="#DejaVuSans-49" transform="translate(1542.525391 0)"/>
     <use xlink:href="#DejaVuSans-72" transform="translate(1572.017578 0)"/>
     <use xlink:href="#DejaVuSans-43" transform="translate(1613.130859 0)"/>
     <use xlink:href="#DejaVuSans-70" transform="translate(1682.955078 0)"/>
     <use xlink:href="#DejaVuSans-33" transform="translate(1746.431641 0)"/>
     <use xlink:href="#DejaVuSans-43" transform="translate(1810.054688 0)"/>
     <use xlink:href="#DejaVuSans-31" transform="translate(1879.878906 0)"/>
     <use xlink:href="#DejaVuSans-35" transform="translate(1943.501953 0)"/>
     <use xlink:href="#DejaVuSans-2c" transform="translate(2007.125 0)"/>
     <use xlink:href="#DejaVuSans-20" transform="translate(2038.912109 0)"/>
     <use xlink:href="#DejaVuSans-74" transform="translate(2070.699219 0)"/>
     <use xlink:href="#DejaVuSans-61" transform="translate(2109.908203 0)"/>
     <use xlink:href="#DejaVuSans-72" transform="translate(2171.1875 0)"/>
     <use xlink:href="#DejaVuSans-67" transform="translate(2210.550781 0)"/>
     <use xlink:href="#DejaVuSans-65" transform="translate(2274.027344 0)"/>
     <use xlink:href="#DejaVuSans-74" transform="translate(2335.550781 0)"/>
     <use xlink:href="#DejaVuSans-20" transform="translate(2374.759766 0)"/>
     <use xlink:href="#DejaVuSans-6d" transform="translate(2406.546875 0)"/>
     <use xlink:href="#DejaVuSans-2f" transform="translate(2503.958984 0)"/>
     <use xlink:href="#DejaVuSans-7a" transform="translate(2537.650391 0)"/>
     <use xlink:href="#DejaVuSans-20" transform="translate(2590.140625 0)"/>
     <use xlink:href="#DejaVuSans-3d" transform="translate(2621.927734 0)"/>
     <use xlink:href="#DejaVuSans-20" transform="translate(2705.716797 0)"/>
     <use xlink:href="#DejaVuSans-38" transform="translate(2737.503906 0)"/>
     <use xlink:href="#DejaVuSans-32" transform="translate(2801.126953 0)"/>
     <use xlink:href="#DejaVuSans-35" transform="translate(2864.75 0)"/>
     <use xlink:href="#DejaVuSans-2e" transform="translate(2928.373047 0)"/>
     <use xlink:href="#DejaVuSans-31" transform="translate(2960.160156 0)"/>
     <use xlink:href="#DejaVuSans-36" transform="translate(3023.783203 0)"/>
     <use xlink:href="#DejaVuSans-34" transform="translate(3087.40625 0)"/>
     <use xlink:href="#DejaVuSans-38" transform="translate(3151.029297 0)"/>
     <use xlink:href="#DejaVuSans-38" transform="translate(3214.652344 0)"/>
     <use xlink:href="#DejaVuSans-35" transform="translate(3278.275391 0)"/>
     <use xlink:href="#DejaVuSans-38" transform="translate(3341.898438 0)"/>
    </g>
   </g>
   <g id="legend_1">
    <g id="patch_8">
     <path d="M 685.971875 64.23625 
L 846.2 64.23625 
Q 848.2 64.23625 848.2 62.23625 
L 848.2 33.88 
Q 848.2 31.88 846.2 31.88 
L 685.971875 31.88 
Q 683.971875 31.88 683.971875 33.88 
L 683.971875 62.23625 
Q 683.971875 64.23625 685.971875 64.23625 
z
" style="fill: #ffffff; opacity: 0.8; stroke: #cccccc; stroke-linejoin: miter"/>
    </g>
    <g id="line2d_15">
     <path d="M 687.971875 39.978437 
L 697.971875 39.978437 
L 707.971875 39.978437 
" style="fill: none; stroke: #0000ff; stroke-width: 1.5; stroke-linecap: square"/>
    </g>
    <g id="text_17">
     <!-- UV Intensity (normalized) -->
     <g transform="translate(715.971875 43.478437) scale(0.1 -0.1)">
      <use xlink:href="#DejaVuSans-55"/>
      <use xlink:href="#DejaVuSans-56" transform="translate(73.193359 0)"/>
      <use xlink:href="#DejaVuSans-20" transform="translate(141.601562 0)"/>
      <use xlink:href="#DejaVuSans-49" transform="translate(173.388672 0)"/>
      <use xlink:href="#DejaVuSans-6e" transform="translate(202.880859 0)"/>
      <use xlink:href="#DejaVuSans-74" transform="translate(266.259766 0)"/>
      <use xlink:href="#DejaVuSans-65" transform="translate(305.46875 0)"/>
      <use xlink:href="#DejaVuSans-6e" transform="translate(366.992188 0)"/>
      <use xlink:href="#DejaVuSans-73" transform="translate(430.371094 0)"/>
      <use xlink:href="#DejaVuSans-69" transform="translate(482.470703 0)"/>
      <use xlink:href="#DejaVuSans-74" transform="translate(510.253906 0)"/>
      <use xlink:href="#DejaVuSans-79" transform="translate(549.462891 0)"/>
      <use xlink:href="#DejaVuSans-20" transform="translate(608.642578 0)"/>
      <use xlink:href="#DejaVuSans-28" transform="translate(640.429688 0)"/>
      <use xlink:href="#DejaVuSans-6e" transform="translate(679.443359 0)"/>
      <use xlink:href="#DejaVuSans-6f" transform="translate(742.822266 0)"/>
      <use xlink:href="#DejaVuSans-72" transform="translate(804.003906 0)"/>
      <use xlink:href="#DejaVuSans-6d" transform="translate(843.367188 0)"/>
      <use xlink:href="#DejaVuSans-61" transform="translate(940.779297 0)"/>
      <use xlink:href="#DejaVuSans-6c" transform="translate(1002.058594 0)"/>
      <use xlink:href="#DejaVuSans-69" transform="translate(1029.841797 0)"/>
      <use xlink:href="#DejaVuSans-7a" transform="translate(1057.625 0)"/>
      <use xlink:href="#DejaVuSans-65" transform="translate(1110.115234 0)"/>
      <use xlink:href="#DejaVuSans-64" transform="translate(1171.638672 0)"/>
      <use xlink:href="#DejaVuSans-29" transform="translate(1235.115234 0)"/>
     </g>
    </g>
    <g id="line2d_16">
     <path d="M 687.971875 54.656562 
L 697.971875 54.656562 
L 707.971875 54.656562 
" style="fill: none; stroke: #008000; stroke-width: 1.5; stroke-linecap: square"/>
    </g>
    <g id="text_18">
     <!-- MS Intensity (normalized) -->
     <g transform="translate(715.971875 58.156562) scale(0.1 -0.1)">
      <use xlink:href="#DejaVuSans-4d"/>
      <use xlink:href="#DejaVuSans-53" transform="translate(86.279297 0)"/>
      <use xlink:href="#DejaVuSans-20" transform="translate(149.755859 0)"/>
      <use xlink:href="#DejaVuSans-49" transform="translate(181.542969 0)"/>
      <use xlink:href="#DejaVuSans-6e" transform="translate(211.035156 0)"/>
      <use xlink:href="#DejaVuSans-74" transform="translate(274.414062 0)"/>
      <use xlink:href="#DejaVuSans-65" transform="translate(313.623047 0)"/>
      <use xlink:href="#DejaVuSans-6e" transform="translate(375.146484 0)"/>
      <use xlink:href="#DejaVuSans-73" transform="translate(438.525391 0)"/>
      <use xlink:href="#DejaVuSans-69" transform="translate(490.625 0)"/>
      <use xlink:href="#DejaVuSans-74" transform="translate(518.408203 0)"/>
      <use xlink:href="#DejaVuSans-79" transform="translate(557.617188 0)"/>
      <use xlink:href="#DejaVuSans-20" transform="translate(616.796875 0)"/>
      <use xlink:href="#DejaVuSans-28" transform="translate(648.583984 0)"/>
      <use xlink:href="#DejaVuSans-6e" transform="translate(687.597656 0)"/>
      <use xlink:href="#DejaVuSans-6f" transform="translate(750.976562 0)"/>
      <use xlink:href="#DejaVuSans-72" transform="translate(812.158203 0)"/>
      <use xlink:href="#DejaVuSans-6d" transform="translate(851.521484 0)"/>
      <use xlink:href="#DejaVuSans-61" transform="translate(948.933594 0)"/>
      <use xlink:href="#DejaVuSans-6c" transform="translate(1010.212891 0)"/>
      <use xlink:href="#DejaVuSans-69" transform="translate(1037.996094 0)"/>
      <use xlink:href="#DejaVuSans-7a" transform="translate(1065.779297 0)"/>
      <use xlink:href="#DejaVuSans-65" transform="translate(1118.269531 0)"/>
      <use xlink:href="#DejaVuSans-64" transform="translate(1179.792969 0)"/>
      <use xlink:href="#DejaVuSans-29" transform="translate(1243.269531 0)"/>
     </g>
    </g>
   </g>
  </g>
 </g>
 <defs>
  <clipPath id="pe339fed159">
   <rect x="47.72" y="26.88" width="805.48" height="507.16"/>
  </clipPath>
 </defs>
</svg>
