<?xml version="1.0" encoding="utf-8" standalone="no"?>
<!DOCTYPE svg PUBLIC "-//W3C//DTD SVG 1.1//EN"
  "http://www.w3.org/Graphics/SVG/1.1/DTD/svg11.dtd">
<svg xmlns:xlink="http://www.w3.org/1999/xlink" width="864pt" height="576pt" viewBox="0 0 864 576" xmlns="http://www.w3.org/2000/svg" version="1.1">
 <metadata>
  <rdf:RDF xmlns:dc="http://purl.org/dc/elements/1.1/" xmlns:cc="http://creativecommons.org/ns#" xmlns:rdf="http://www.w3.org/1999/02/22-rdf-syntax-ns#">
   <cc:Work>
    <dc:type rdf:resource="http://purl.org/dc/dcmitype/StillImage"/>
    <dc:date>2025-03-06T18:30:44.885695</dc:date>
    <dc:format>image/svg+xml</dc:format>
    <dc:creator>
     <cc:Agent>
      <dc:title>Matplotlib v3.10.0, https://matplotlib.org/</dc:title>
     </cc:Agent>
    </dc:creator>
   </cc:Work>
  </rdf:RDF>
 </metadata>
 <defs>
  <style type="text/css">*{stroke-linejoin: round; stroke-linecap: butt}</style>
 </defs>
 <g id="figure_1">
  <g id="patch_1">
   <path d="M 0 576 
L 864 576 
L 864 0 
L 0 0 
z
" style="fill: #ffffff"/>
  </g>
  <g id="axes_1">
   <g id="patch_2">
    <path d="M 47.72 534.04 
L 853.2 534.04 
L 853.2 26.88 
L 47.72 26.88 
z
" style="fill: #ffffff"/>
   </g>
   <g id="matplotlib.axis_1">
    <g id="xtick_1">
     <g id="line2d_1">
      <defs>
       <path id="mba0bfeb52b" d="M 0 0 
L 0 3.5 
" style="stroke: #000000; stroke-width: 0.8"/>
      </defs>
      <g>
       <use xlink:href="#mba0bfeb52b" x="83.098041" y="534.04" style="stroke: #000000; stroke-width: 0.8"/>
      </g>
     </g>
     <g id="text_1">
      <!-- 0 -->
      <g transform="translate(79.916791 548.638438) scale(0.1 -0.1)">
       <defs>
        <path id="DejaVuSans-30" d="M 2034 4250 
Q 1547 4250 1301 3770 
Q 1056 3291 1056 2328 
Q 1056 1369 1301 889 
Q 1547 409 2034 409 
Q 2525 409 2770 889 
Q 3016 1369 3016 2328 
Q 3016 3291 2770 3770 
Q 2525 4250 2034 4250 
z
M 2034 4750 
Q 2819 4750 3233 4129 
Q 3647 3509 3647 2328 
Q 3647 1150 3233 529 
Q 2819 -91 2034 -91 
Q 1250 -91 836 529 
Q 422 1150 422 2328 
Q 422 3509 836 4129 
Q 1250 4750 2034 4750 
z
" transform="scale(0.015625)"/>
       </defs>
       <use xlink:href="#DejaVuSans-30"/>
      </g>
     </g>
    </g>
    <g id="xtick_2">
     <g id="line2d_2">
      <g>
       <use xlink:href="#mba0bfeb52b" x="229.793442" y="534.04" style="stroke: #000000; stroke-width: 0.8"/>
      </g>
     </g>
     <g id="text_2">
      <!-- 1 -->
      <g transform="translate(226.612192 548.638438) scale(0.1 -0.1)">
       <defs>
        <path id="DejaVuSans-31" d="M 794 531 
L 1825 531 
L 1825 4091 
L 703 3866 
L 703 4441 
L 1819 4666 
L 2450 4666 
L 2450 531 
L 3481 531 
L 3481 0 
L 794 0 
L 794 531 
z
" transform="scale(0.015625)"/>
       </defs>
       <use xlink:href="#DejaVuSans-31"/>
      </g>
     </g>
    </g>
    <g id="xtick_3">
     <g id="line2d_3">
      <g>
       <use xlink:href="#mba0bfeb52b" x="376.488844" y="534.04" style="stroke: #000000; stroke-width: 0.8"/>
      </g>
     </g>
     <g id="text_3">
      <!-- 2 -->
      <g transform="translate(373.307594 548.638438) scale(0.1 -0.1)">
       <defs>
        <path id="DejaVuSans-32" d="M 1228 531 
L 3431 531 
L 3431 0 
L 469 0 
L 469 531 
Q 828 903 1448 1529 
Q 2069 2156 2228 2338 
Q 2531 2678 2651 2914 
Q 2772 3150 2772 3378 
Q 2772 3750 2511 3984 
Q 2250 4219 1831 4219 
Q 1534 4219 1204 4116 
Q 875 4013 500 3803 
L 500 4441 
Q 881 4594 1212 4672 
Q 1544 4750 1819 4750 
Q 2544 4750 2975 4387 
Q 3406 4025 3406 3419 
Q 3406 3131 3298 2873 
Q 3191 2616 2906 2266 
Q 2828 2175 2409 1742 
Q 1991 1309 1228 531 
z
" transform="scale(0.015625)"/>
       </defs>
       <use xlink:href="#DejaVuSans-32"/>
      </g>
     </g>
    </g>
    <g id="xtick_4">
     <g id="line2d_4">
      <g>
       <use xlink:href="#mba0bfeb52b" x="523.184245" y="534.04" style="stroke: #000000; stroke-width: 0.8"/>
      </g>
     </g>
     <g id="text_4">
      <!-- 3 -->
      <g transform="translate(520.002995 548.638438) scale(0.1 -0.1)">
       <defs>
        <path id="DejaVuSans-33" d="M 2597 2516 
Q 3050 2419 3304 2112 
Q 3559 1806 3559 1356 
Q 3559 666 3084 287 
Q 2609 -91 1734 -91 
Q 1441 -91 1130 -33 
Q 819 25 488 141 
L 488 750 
Q 750 597 1062 519 
Q 1375 441 1716 441 
Q 2309 441 2620 675 
Q 2931 909 2931 1356 
Q 2931 1769 2642 2001 
Q 2353 2234 1838 2234 
L 1294 2234 
L 1294 2753 
L 1863 2753 
Q 2328 2753 2575 2939 
Q 2822 3125 2822 3475 
Q 2822 3834 2567 4026 
Q 2313 4219 1838 4219 
Q 1578 4219 1281 4162 
Q 984 4106 628 3988 
L 628 4550 
Q 988 4650 1302 4700 
Q 1616 4750 1894 4750 
Q 2613 4750 3031 4423 
Q 3450 4097 3450 3541 
Q 3450 3153 3228 2886 
Q 3006 2619 2597 2516 
z
" transform="scale(0.015625)"/>
       </defs>
       <use xlink:href="#DejaVuSans-33"/>
      </g>
     </g>
    </g>
    <g id="xtick_5">
     <g id="line2d_5">
      <g>
       <use xlink:href="#mba0bfeb52b" x="669.879647" y="534.04" style="stroke: #000000; stroke-width: 0.8"/>
      </g>
     </g>
     <g id="text_5">
      <!-- 4 -->
      <g transform="translate(666.698397 548.638438) scale(0.1 -0.1)">
       <defs>
        <path id="DejaVuSans-34" d="M 2419 4116 
L 825 1625 
L 2419 1625 
L 2419 4116 
z
M 2253 4666 
L 3047 4666 
L 3047 1625 
L 3713 1625 
L 3713 1100 
L 3047 1100 
L 3047 0 
L 2419 0 
L 2419 1100 
L 313 1100 
L 313 1709 
L 2253 4666 
z
" transform="scale(0.015625)"/>
       </defs>
       <use xlink:href="#DejaVuSans-34"/>
      </g>
     </g>
    </g>
    <g id="xtick_6">
     <g id="line2d_6">
      <g>
       <use xlink:href="#mba0bfeb52b" x="816.575048" y="534.04" style="stroke: #000000; stroke-width: 0.8"/>
      </g>
     </g>
     <g id="text_6">
      <!-- 5 -->
      <g transform="translate(813.393798 548.638438) scale(0.1 -0.1)">
       <defs>
        <path id="DejaVuSans-35" d="M 691 4666 
L 3169 4666 
L 3169 4134 
L 1269 4134 
L 1269 2991 
Q 1406 3038 1543 3061 
Q 1681 3084 1819 3084 
Q 2600 3084 3056 2656 
Q 3513 2228 3513 1497 
Q 3513 744 3044 326 
Q 2575 -91 1722 -91 
Q 1428 -91 1123 -41 
Q 819 9 494 109 
L 494 744 
Q 775 591 1075 516 
Q 1375 441 1709 441 
Q 2250 441 2565 725 
Q 2881 1009 2881 1497 
Q 2881 1984 2565 2268 
Q 2250 2553 1709 2553 
Q 1456 2553 1204 2497 
Q 953 2441 691 2322 
L 691 4666 
z
" transform="scale(0.015625)"/>
       </defs>
       <use xlink:href="#DejaVuSans-35"/>
      </g>
     </g>
    </g>
    <g id="text_7">
     <!-- Retention Time (min) -->
     <g transform="translate(397.61 562.316562) scale(0.1 -0.1)">
      <defs>
       <path id="DejaVuSans-52" d="M 2841 2188 
Q 3044 2119 3236 1894 
Q 3428 1669 3622 1275 
L 4263 0 
L 3584 0 
L 2988 1197 
Q 2756 1666 2539 1819 
Q 2322 1972 1947 1972 
L 1259 1972 
L 1259 0 
L 628 0 
L 628 4666 
L 2053 4666 
Q 2853 4666 3247 4331 
Q 3641 3997 3641 3322 
Q 3641 2881 3436 2590 
Q 3231 2300 2841 2188 
z
M 1259 4147 
L 1259 2491 
L 2053 2491 
Q 2509 2491 2742 2702 
Q 2975 2913 2975 3322 
Q 2975 3731 2742 3939 
Q 2509 4147 2053 4147 
L 1259 4147 
z
" transform="scale(0.015625)"/>
       <path id="DejaVuSans-65" d="M 3597 1894 
L 3597 1613 
L 953 1613 
Q 991 1019 1311 708 
Q 1631 397 2203 397 
Q 2534 397 2845 478 
Q 3156 559 3463 722 
L 3463 178 
Q 3153 47 2828 -22 
Q 2503 -91 2169 -91 
Q 1331 -91 842 396 
Q 353 884 353 1716 
Q 353 2575 817 3079 
Q 1281 3584 2069 3584 
Q 2775 3584 3186 3129 
Q 3597 2675 3597 1894 
z
M 3022 2063 
Q 3016 2534 2758 2815 
Q 2500 3097 2075 3097 
Q 1594 3097 1305 2825 
Q 1016 2553 972 2059 
L 3022 2063 
z
" transform="scale(0.015625)"/>
       <path id="DejaVuSans-74" d="M 1172 4494 
L 1172 3500 
L 2356 3500 
L 2356 3053 
L 1172 3053 
L 1172 1153 
Q 1172 725 1289 603 
Q 1406 481 1766 481 
L 2356 481 
L 2356 0 
L 1766 0 
Q 1100 0 847 248 
Q 594 497 594 1153 
L 594 3053 
L 172 3053 
L 172 3500 
L 594 3500 
L 594 4494 
L 1172 4494 
z
" transform="scale(0.015625)"/>
       <path id="DejaVuSans-6e" d="M 3513 2113 
L 3513 0 
L 2938 0 
L 2938 2094 
Q 2938 2591 2744 2837 
Q 2550 3084 2163 3084 
Q 1697 3084 1428 2787 
Q 1159 2491 1159 1978 
L 1159 0 
L 581 0 
L 581 3500 
L 1159 3500 
L 1159 2956 
Q 1366 3272 1645 3428 
Q 1925 3584 2291 3584 
Q 2894 3584 3203 3211 
Q 3513 2838 3513 2113 
z
" transform="scale(0.015625)"/>
       <path id="DejaVuSans-69" d="M 603 3500 
L 1178 3500 
L 1178 0 
L 603 0 
L 603 3500 
z
M 603 4863 
L 1178 4863 
L 1178 4134 
L 603 4134 
L 603 4863 
z
" transform="scale(0.015625)"/>
       <path id="DejaVuSans-6f" d="M 1959 3097 
Q 1497 3097 1228 2736 
Q 959 2375 959 1747 
Q 959 1119 1226 758 
Q 1494 397 1959 397 
Q 2419 397 2687 759 
Q 2956 1122 2956 1747 
Q 2956 2369 2687 2733 
Q 2419 3097 1959 3097 
z
M 1959 3584 
Q 2709 3584 3137 3096 
Q 3566 2609 3566 1747 
Q 3566 888 3137 398 
Q 2709 -91 1959 -91 
Q 1206 -91 779 398 
Q 353 888 353 1747 
Q 353 2609 779 3096 
Q 1206 3584 1959 3584 
z
" transform="scale(0.015625)"/>
       <path id="DejaVuSans-20" transform="scale(0.015625)"/>
       <path id="DejaVuSans-54" d="M -19 4666 
L 3928 4666 
L 3928 4134 
L 2272 4134 
L 2272 0 
L 1638 0 
L 1638 4134 
L -19 4134 
L -19 4666 
z
" transform="scale(0.015625)"/>
       <path id="DejaVuSans-6d" d="M 3328 2828 
Q 3544 3216 3844 3400 
Q 4144 3584 4550 3584 
Q 5097 3584 5394 3201 
Q 5691 2819 5691 2113 
L 5691 0 
L 5113 0 
L 5113 2094 
Q 5113 2597 4934 2840 
Q 4756 3084 4391 3084 
Q 3944 3084 3684 2787 
Q 3425 2491 3425 1978 
L 3425 0 
L 2847 0 
L 2847 2094 
Q 2847 2600 2669 2842 
Q 2491 3084 2119 3084 
Q 1678 3084 1418 2786 
Q 1159 2488 1159 1978 
L 1159 0 
L 581 0 
L 581 3500 
L 1159 3500 
L 1159 2956 
Q 1356 3278 1631 3431 
Q 1906 3584 2284 3584 
Q 2666 3584 2933 3390 
Q 3200 3197 3328 2828 
z
" transform="scale(0.015625)"/>
       <path id="DejaVuSans-28" d="M 1984 4856 
Q 1566 4138 1362 3434 
Q 1159 2731 1159 2009 
Q 1159 1288 1364 580 
Q 1569 -128 1984 -844 
L 1484 -844 
Q 1016 -109 783 600 
Q 550 1309 550 2009 
Q 550 2706 781 3412 
Q 1013 4119 1484 4856 
L 1984 4856 
z
" transform="scale(0.015625)"/>
       <path id="DejaVuSans-29" d="M 513 4856 
L 1013 4856 
Q 1481 4119 1714 3412 
Q 1947 2706 1947 2009 
Q 1947 1309 1714 600 
Q 1481 -109 1013 -844 
L 513 -844 
Q 928 -128 1133 580 
Q 1338 1288 1338 2009 
Q 1338 2731 1133 3434 
Q 928 4138 513 4856 
z
" transform="scale(0.015625)"/>
      </defs>
      <use xlink:href="#DejaVuSans-52"/>
      <use xlink:href="#DejaVuSans-65" transform="translate(64.982422 0)"/>
      <use xlink:href="#DejaVuSans-74" transform="translate(126.505859 0)"/>
      <use xlink:href="#DejaVuSans-65" transform="translate(165.714844 0)"/>
      <use xlink:href="#DejaVuSans-6e" transform="translate(227.238281 0)"/>
      <use xlink:href="#DejaVuSans-74" transform="translate(290.617188 0)"/>
      <use xlink:href="#DejaVuSans-69" transform="translate(329.826172 0)"/>
      <use xlink:href="#DejaVuSans-6f" transform="translate(357.609375 0)"/>
      <use xlink:href="#DejaVuSans-6e" transform="translate(418.791016 0)"/>
      <use xlink:href="#DejaVuSans-20" transform="translate(482.169922 0)"/>
      <use xlink:href="#DejaVuSans-54" transform="translate(513.957031 0)"/>
      <use xlink:href="#DejaVuSans-69" transform="translate(571.916016 0)"/>
      <use xlink:href="#DejaVuSans-6d" transform="translate(599.699219 0)"/>
      <use xlink:href="#DejaVuSans-65" transform="translate(697.111328 0)"/>
      <use xlink:href="#DejaVuSans-20" transform="translate(758.634766 0)"/>
      <use xlink:href="#DejaVuSans-28" transform="translate(790.421875 0)"/>
      <use xlink:href="#DejaVuSans-6d" transform="translate(829.435547 0)"/>
      <use xlink:href="#DejaVuSans-69" transform="translate(926.847656 0)"/>
      <use xlink:href="#DejaVuSans-6e" transform="translate(954.630859 0)"/>
      <use xlink:href="#DejaVuSans-29" transform="translate(1018.009766 0)"/>
     </g>
    </g>
   </g>
   <g id="matplotlib.axis_2">
    <g id="ytick_1">
     <g id="line2d_7">
      <defs>
       <path id="mdfce39b9b5" d="M 0 0 
L -3.5 0 
" style="stroke: #000000; stroke-width: 0.8"/>
      </defs>
      <g>
       <use xlink:href="#mdfce39b9b5" x="47.72" y="510.987273" style="stroke: #000000; stroke-width: 0.8"/>
      </g>
     </g>
     <g id="text_8">
      <!-- 0.0 -->
      <g style="fill: #0000ff" transform="translate(24.816875 514.786491) scale(0.1 -0.1)">
       <defs>
        <path id="DejaVuSans-2e" d="M 684 794 
L 1344 794 
L 1344 0 
L 684 0 
L 684 794 
z
" transform="scale(0.015625)"/>
       </defs>
       <use xlink:href="#DejaVuSans-30"/>
       <use xlink:href="#DejaVuSans-2e" transform="translate(63.623047 0)"/>
       <use xlink:href="#DejaVuSans-30" transform="translate(95.410156 0)"/>
      </g>
     </g>
    </g>
    <g id="ytick_2">
     <g id="line2d_8">
      <g>
       <use xlink:href="#mdfce39b9b5" x="47.72" y="418.776364" style="stroke: #000000; stroke-width: 0.8"/>
      </g>
     </g>
     <g id="text_9">
      <!-- 0.5 -->
      <g style="fill: #0000ff" transform="translate(24.816875 422.575582) scale(0.1 -0.1)">
       <use xlink:href="#DejaVuSans-30"/>
       <use xlink:href="#DejaVuSans-2e" transform="translate(63.623047 0)"/>
       <use xlink:href="#DejaVuSans-35" transform="translate(95.410156 0)"/>
      </g>
     </g>
    </g>
    <g id="ytick_3">
     <g id="line2d_9">
      <g>
       <use xlink:href="#mdfce39b9b5" x="47.72" y="326.565455" style="stroke: #000000; stroke-width: 0.8"/>
      </g>
     </g>
     <g id="text_10">
      <!-- 1.0 -->
      <g style="fill: #0000ff" transform="translate(24.816875 330.364673) scale(0.1 -0.1)">
       <use xlink:href="#DejaVuSans-31"/>
       <use xlink:href="#DejaVuSans-2e" transform="translate(63.623047 0)"/>
       <use xlink:href="#DejaVuSans-30" transform="translate(95.410156 0)"/>
      </g>
     </g>
    </g>
    <g id="ytick_4">
     <g id="line2d_10">
      <g>
       <use xlink:href="#mdfce39b9b5" x="47.72" y="234.354545" style="stroke: #000000; stroke-width: 0.8"/>
      </g>
     </g>
     <g id="text_11">
      <!-- 1.5 -->
      <g style="fill: #0000ff" transform="translate(24.816875 238.153764) scale(0.1 -0.1)">
       <use xlink:href="#DejaVuSans-31"/>
       <use xlink:href="#DejaVuSans-2e" transform="translate(63.623047 0)"/>
       <use xlink:href="#DejaVuSans-35" transform="translate(95.410156 0)"/>
      </g>
     </g>
    </g>
    <g id="ytick_5">
     <g id="line2d_11">
      <g>
       <use xlink:href="#mdfce39b9b5" x="47.72" y="142.143636" style="stroke: #000000; stroke-width: 0.8"/>
      </g>
     </g>
     <g id="text_12">
      <!-- 2.0 -->
      <g style="fill: #0000ff" transform="translate(24.816875 145.942855) scale(0.1 -0.1)">
       <use xlink:href="#DejaVuSans-32"/>
       <use xlink:href="#DejaVuSans-2e" transform="translate(63.623047 0)"/>
       <use xlink:href="#DejaVuSans-30" transform="translate(95.410156 0)"/>
      </g>
     </g>
    </g>
    <g id="ytick_6">
     <g id="line2d_12">
      <g>
       <use xlink:href="#mdfce39b9b5" x="47.72" y="49.932727" style="stroke: #000000; stroke-width: 0.8"/>
      </g>
     </g>
     <g id="text_13">
      <!-- 2.5 -->
      <g style="fill: #0000ff" transform="translate(24.816875 53.731946) scale(0.1 -0.1)">
       <use xlink:href="#DejaVuSans-32"/>
       <use xlink:href="#DejaVuSans-2e" transform="translate(63.623047 0)"/>
       <use xlink:href="#DejaVuSans-35" transform="translate(95.410156 0)"/>
      </g>
     </g>
    </g>
    <g id="text_14">
     <!-- Normalized Intensity -->
     <g style="fill: #0000ff" transform="translate(18.737187 332.167031) rotate(-90) scale(0.1 -0.1)">
      <defs>
       <path id="DejaVuSans-4e" d="M 628 4666 
L 1478 4666 
L 3547 763 
L 3547 4666 
L 4159 4666 
L 4159 0 
L 3309 0 
L 1241 3903 
L 1241 0 
L 628 0 
L 628 4666 
z
" transform="scale(0.015625)"/>
       <path id="DejaVuSans-72" d="M 2631 2963 
Q 2534 3019 2420 3045 
Q 2306 3072 2169 3072 
Q 1681 3072 1420 2755 
Q 1159 2438 1159 1844 
L 1159 0 
L 581 0 
L 581 3500 
L 1159 3500 
L 1159 2956 
Q 1341 3275 1631 3429 
Q 1922 3584 2338 3584 
Q 2397 3584 2469 3576 
Q 2541 3569 2628 3553 
L 2631 2963 
z
" transform="scale(0.015625)"/>
       <path id="DejaVuSans-61" d="M 2194 1759 
Q 1497 1759 1228 1600 
Q 959 1441 959 1056 
Q 959 750 1161 570 
Q 1363 391 1709 391 
Q 2188 391 2477 730 
Q 2766 1069 2766 1631 
L 2766 1759 
L 2194 1759 
z
M 3341 1997 
L 3341 0 
L 2766 0 
L 2766 531 
Q 2569 213 2275 61 
Q 1981 -91 1556 -91 
Q 1019 -91 701 211 
Q 384 513 384 1019 
Q 384 1609 779 1909 
Q 1175 2209 1959 2209 
L 2766 2209 
L 2766 2266 
Q 2766 2663 2505 2880 
Q 2244 3097 1772 3097 
Q 1472 3097 1187 3025 
Q 903 2953 641 2809 
L 641 3341 
Q 956 3463 1253 3523 
Q 1550 3584 1831 3584 
Q 2591 3584 2966 3190 
Q 3341 2797 3341 1997 
z
" transform="scale(0.015625)"/>
       <path id="DejaVuSans-6c" d="M 603 4863 
L 1178 4863 
L 1178 0 
L 603 0 
L 603 4863 
z
" transform="scale(0.015625)"/>
       <path id="DejaVuSans-7a" d="M 353 3500 
L 3084 3500 
L 3084 2975 
L 922 459 
L 3084 459 
L 3084 0 
L 275 0 
L 275 525 
L 2438 3041 
L 353 3041 
L 353 3500 
z
" transform="scale(0.015625)"/>
       <path id="DejaVuSans-64" d="M 2906 2969 
L 2906 4863 
L 3481 4863 
L 3481 0 
L 2906 0 
L 2906 525 
Q 2725 213 2448 61 
Q 2172 -91 1784 -91 
Q 1150 -91 751 415 
Q 353 922 353 1747 
Q 353 2572 751 3078 
Q 1150 3584 1784 3584 
Q 2172 3584 2448 3432 
Q 2725 3281 2906 2969 
z
M 947 1747 
Q 947 1113 1208 752 
Q 1469 391 1925 391 
Q 2381 391 2643 752 
Q 2906 1113 2906 1747 
Q 2906 2381 2643 2742 
Q 2381 3103 1925 3103 
Q 1469 3103 1208 2742 
Q 947 2381 947 1747 
z
" transform="scale(0.015625)"/>
       <path id="DejaVuSans-49" d="M 628 4666 
L 1259 4666 
L 1259 0 
L 628 0 
L 628 4666 
z
" transform="scale(0.015625)"/>
       <path id="DejaVuSans-73" d="M 2834 3397 
L 2834 2853 
Q 2591 2978 2328 3040 
Q 2066 3103 1784 3103 
Q 1356 3103 1142 2972 
Q 928 2841 928 2578 
Q 928 2378 1081 2264 
Q 1234 2150 1697 2047 
L 1894 2003 
Q 2506 1872 2764 1633 
Q 3022 1394 3022 966 
Q 3022 478 2636 193 
Q 2250 -91 1575 -91 
Q 1294 -91 989 -36 
Q 684 19 347 128 
L 347 722 
Q 666 556 975 473 
Q 1284 391 1588 391 
Q 1994 391 2212 530 
Q 2431 669 2431 922 
Q 2431 1156 2273 1281 
Q 2116 1406 1581 1522 
L 1381 1569 
Q 847 1681 609 1914 
Q 372 2147 372 2553 
Q 372 3047 722 3315 
Q 1072 3584 1716 3584 
Q 2034 3584 2315 3537 
Q 2597 3491 2834 3397 
z
" transform="scale(0.015625)"/>
       <path id="DejaVuSans-79" d="M 2059 -325 
Q 1816 -950 1584 -1140 
Q 1353 -1331 966 -1331 
L 506 -1331 
L 506 -850 
L 844 -850 
Q 1081 -850 1212 -737 
Q 1344 -625 1503 -206 
L 1606 56 
L 191 3500 
L 800 3500 
L 1894 763 
L 2988 3500 
L 3597 3500 
L 2059 -325 
z
" transform="scale(0.015625)"/>
      </defs>
      <use xlink:href="#DejaVuSans-4e"/>
      <use xlink:href="#DejaVuSans-6f" transform="translate(74.804688 0)"/>
      <use xlink:href="#DejaVuSans-72" transform="translate(135.986328 0)"/>
      <use xlink:href="#DejaVuSans-6d" transform="translate(175.349609 0)"/>
      <use xlink:href="#DejaVuSans-61" transform="translate(272.761719 0)"/>
      <use xlink:href="#DejaVuSans-6c" transform="translate(334.041016 0)"/>
      <use xlink:href="#DejaVuSans-69" transform="translate(361.824219 0)"/>
      <use xlink:href="#DejaVuSans-7a" transform="translate(389.607422 0)"/>
      <use xlink:href="#DejaVuSans-65" transform="translate(442.097656 0)"/>
      <use xlink:href="#DejaVuSans-64" transform="translate(503.621094 0)"/>
      <use xlink:href="#DejaVuSans-20" transform="translate(567.097656 0)"/>
      <use xlink:href="#DejaVuSans-49" transform="translate(598.884766 0)"/>
      <use xlink:href="#DejaVuSans-6e" transform="translate(628.376953 0)"/>
      <use xlink:href="#DejaVuSans-74" transform="translate(691.755859 0)"/>
      <use xlink:href="#DejaVuSans-65" transform="translate(730.964844 0)"/>
      <use xlink:href="#DejaVuSans-6e" transform="translate(792.488281 0)"/>
      <use xlink:href="#DejaVuSans-73" transform="translate(855.867188 0)"/>
      <use xlink:href="#DejaVuSans-69" transform="translate(907.966797 0)"/>
      <use xlink:href="#DejaVuSans-74" transform="translate(935.75 0)"/>
      <use xlink:href="#DejaVuSans-79" transform="translate(974.958984 0)"/>
     </g>
    </g>
   </g>
   <g id="line2d_13">
    <path d="M 84.332727 510.987273 
L 92.889959 510.888795 
L 101.447191 510.797883 
L 162.570275 510.732568 
L 165.015198 510.489223 
L 168.682583 509.896634 
L 171.127506 509.98495 
L 176.017353 510.484998 
L 179.684738 510.631966 
L 201.689048 510.658973 
L 215.136127 510.431056 
L 221.248435 510.544527 
L 223.693359 510.627899 
L 224.91582 510.58471 
L 226.138282 510.404883 
L 228.583205 509.601787 
L 229.805667 509.173125 
L 231.028129 508.914647 
L 232.25059 508.892147 
L 233.473052 509.074006 
L 238.362899 510.164534 
L 240.807822 510.389895 
L 245.697669 510.502677 
L 259.144747 510.473613 
L 297.041059 510.184858 
L 303.153368 509.65427 
L 311.710599 510.198345 
L 315.377985 510.102048 
L 319.04537 509.848748 
L 321.490293 509.919128 
L 326.38014 510.183122 
L 341.04968 510.392589 
L 347.161988 510.180601 
L 352.051835 510.45322 
L 354.496758 510.374369 
L 355.71922 510.24185 
L 356.941682 509.995051 
L 358.164143 509.572753 
L 359.386605 508.914905 
L 360.609067 507.988468 
L 361.831528 506.810853 
L 365.498913 502.754509 
L 366.721375 501.684041 
L 367.943837 500.942922 
L 369.166298 500.573549 
L 370.38876 500.565174 
L 371.611222 500.866909 
L 372.833683 501.405631 
L 375.278607 502.882673 
L 378.945992 505.176393 
L 381.390915 506.361339 
L 383.835839 507.17524 
L 385.0583 507.399973 
L 387.503224 507.487058 
L 389.948147 507.583201 
L 392.39307 508.018455 
L 394.837994 508.486529 
L 397.282917 508.762551 
L 400.950302 508.873591 
L 414.39738 508.468258 
L 415.619842 508.305235 
L 418.064766 507.762633 
L 419.287227 507.63333 
L 420.509689 507.679858 
L 427.844459 508.628363 
L 432.734306 508.871987 
L 433.956767 508.8543 
L 435.179229 508.426493 
L 436.401691 505.618794 
L 437.624152 495.49794 
L 438.846614 472.577971 
L 441.291537 401.447932 
L 442.513999 378.480286 
L 443.736461 376.91725 
L 444.958922 394.194261 
L 447.403846 447.538029 
L 448.626307 468.421912 
L 449.848769 482.268683 
L 451.071231 490.416384 
L 452.293693 494.975198 
L 453.516154 497.697796 
L 454.738616 499.629953 
L 455.961078 501.21917 
L 457.183539 502.573497 
L 458.406001 503.687198 
L 459.628463 504.563676 
L 460.850924 505.226818 
L 462.073386 505.61433 
L 463.295848 505.455845 
L 464.518309 504.441041 
L 466.963233 500.943579 
L 468.185694 500.023217 
L 469.408156 500.238271 
L 473.075541 503.224053 
L 477.965388 505.555297 
L 480.410311 506.74208 
L 481.632773 507.115527 
L 484.077696 507.476691 
L 488.967543 507.770111 
L 491.412466 507.745756 
L 496.302313 507.491077 
L 501.19216 507.616349 
L 508.52693 507.838647 
L 523.19647 508.0732 
L 526.863855 508.085565 
L 529.308778 507.970031 
L 534.198625 507.599599 
L 537.86601 507.8928 
L 540.310933 508.038759 
L 543.978318 507.887352 
L 546.423242 507.858747 
L 550.090627 507.945887 
L 551.313088 507.818771 
L 553.758012 507.14794 
L 554.980474 506.808585 
L 556.202935 506.638252 
L 558.647859 506.761679 
L 559.87032 506.856005 
L 561.092782 506.814585 
L 562.315244 506.513445 
L 565.982629 504.730583 
L 567.20509 504.766147 
L 568.427552 505.287372 
L 570.872475 506.779958 
L 572.094937 507.278833 
L 573.317399 507.494648 
L 575.762322 507.430177 
L 578.207245 507.420408 
L 581.87463 507.594723 
L 583.097092 507.564332 
L 584.319554 507.331308 
L 585.542015 505.474776 
L 586.764477 496.894131 
L 587.986939 473.326024 
L 589.209401 431.212105 
L 590.431862 380.214349 
L 591.654324 340.017184 
L 592.876786 326.565455 
L 594.099247 341.784038 
L 595.321709 375.116836 
L 596.544171 412.403431 
L 597.766632 443.540167 
L 598.989094 464.887903 
L 600.211556 477.578876 
L 601.434017 484.608531 
L 602.656479 488.711535 
L 603.878941 491.567142 
L 606.323864 496.082453 
L 608.768787 499.877226 
L 609.991249 501.462022 
L 611.213711 502.780507 
L 612.436172 503.820506 
L 613.658634 504.602002 
L 614.881096 505.168831 
L 617.326019 505.873258 
L 619.770942 506.245487 
L 622.215866 506.328735 
L 623.438328 506.198839 
L 627.105713 505.4492 
L 628.328174 505.405698 
L 629.550636 505.551375 
L 633.218021 506.35388 
L 634.440483 506.425063 
L 638.107868 506.392351 
L 645.442638 507.32045 
L 647.887561 507.249717 
L 652.777408 506.767563 
L 655.222331 506.872326 
L 665.002025 507.62195 
L 673.559256 507.887816 
L 691.896182 508.130843 
L 696.786028 508.106151 
L 698.00849 507.982102 
L 699.230952 507.6156 
L 700.453413 506.893415 
L 702.898337 504.894003 
L 704.120798 504.27592 
L 705.34326 504.211708 
L 706.565722 504.622554 
L 709.010645 505.911056 
L 710.233107 506.394683 
L 711.455568 506.697388 
L 717.567877 507.558785 
L 720.0128 507.745671 
L 726.125109 507.787462 
L 733.459879 507.774737 
L 737.127264 507.525542 
L 739.572187 507.639861 
L 744.462034 507.978321 
L 750.574342 508.051133 
L 761.576497 508.041072 
L 767.688806 507.450999 
L 775.023576 507.773322 
L 781.135884 507.713083 
L 787.248192 507.740639 
L 793.360501 507.65904 
L 799.472809 507.269797 
L 805.585118 507.521857 
L 811.697426 507.34963 
L 816.587273 507.54323 
L 816.587273 507.54323 
" clip-path="url(#p43a37ed209)" style="fill: none; stroke: #0000ff; stroke-width: 1.5; stroke-linecap: square"/>
   </g>
   <g id="line2d_14">
    <path d="M 89.623541 234.344026 
L 122.938801 234.345511 
L 122.938801 234.341016 
L 140.46939 234.345543 
L 179.20969 234.326723 
L 201.172192 234.318765 
L 236.006971 234.342568 
L 439.290612 234.301269 
L 439.290612 234.243803 
L 439.622633 234.184342 
L 439.622633 233.974322 
L 439.954409 233.874517 
L 439.954409 233.433038 
L 440.287407 233.308251 
L 440.287407 232.46335 
L 440.61845 232.411876 
L 440.61845 231.307278 
L 440.949737 231.398146 
L 440.949737 230.15857 
L 441.28298 230.802712 
L 441.28298 229.372803 
L 441.611089 230.190174 
L 441.611089 229.052945 
L 441.938709 230.06033 
L 441.938709 228.806093 
L 442.265839 230.102542 
L 442.265839 228.762481 
L 442.594437 229.796401 
L 442.594437 228.421339 
L 442.926458 229.604585 
L 442.926458 228.306131 
L 443.253099 229.598651 
L 443.253099 228.609774 
L 443.579741 229.728648 
L 443.579741 228.175346 
L 443.906383 229.431134 
L 443.906383 227.740449 
L 444.233269 228.841029 
L 444.233269 227.713461 
L 444.559666 229.201582 
L 444.559666 227.905537 
L 444.886308 229.529685 
L 444.886308 228.283928 
L 445.212705 229.582855 
L 445.212705 228.051565 
L 445.539347 229.345618 
L 445.539347 228.044586 
L 445.865989 229.245032 
L 445.865989 227.915411 
L 446.192631 229.443709 
L 446.192631 228.217174 
L 446.533209 229.627562 
L 446.533209 228.606518 
L 446.85985 230.06341 
L 446.85985 228.721679 
L 447.186492 230.006045 
L 447.186492 228.710018 
L 447.513378 229.81931 
L 447.513378 228.45247 
L 447.845399 229.981525 
L 447.845399 228.763933 
L 448.172041 230.190642 
L 448.172041 229.163699 
L 448.498927 230.532295 
L 448.498927 229.19193 
L 448.826302 230.436916 
L 448.826302 229.334672 
L 449.156367 230.209925 
L 449.156367 228.963835 
L 449.483253 230.103049 
L 449.483253 229.056259 
L 449.810139 230.046617 
L 449.810139 229.019967 
L 450.13727 230.250244 
L 450.13727 229.037828 
L 450.464645 230.112795 
L 450.464645 229.097243 
L 450.791776 230.310638 
L 450.791776 229.177277 
L 451.119151 230.501583 
L 451.119151 229.238403 
L 451.446527 230.35422 
L 451.446527 229.347473 
L 451.773902 230.550764 
L 451.773902 229.106556 
L 452.101522 230.437899 
L 452.101522 229.303197 
L 452.429141 230.310525 
L 452.429141 229.240291 
L 452.76214 230.669619 
L 452.76214 229.34852 
L 453.08976 230.443034 
L 453.08976 229.339619 
L 453.417624 230.45269 
L 453.417624 229.442107 
L 453.745488 230.68643 
L 453.745488 229.782367 
L 454.073352 230.82125 
L 454.073352 229.929262 
L 454.401216 230.885174 
L 454.401216 229.825507 
L 454.72957 230.639163 
L 454.72957 229.848863 
L 455.057678 230.699279 
L 455.057678 229.738136 
L 455.386032 230.911812 
L 455.386032 230.201135 
L 455.71414 231.080173 
L 455.71414 230.224195 
L 456.04396 231.111704 
L 456.04396 230.419767 
L 456.372558 231.281612 
L 456.372558 230.35179 
L 456.701156 231.274892 
L 456.701156 230.741503 
L 457.029265 231.333504 
L 457.029265 230.41753 
L 457.362752 231.41141 
L 457.362752 230.497164 
L 457.696973 231.189469 
L 457.696973 230.443093 
L 458.025815 231.408036 
L 458.025815 230.689831 
L 458.355147 231.617119 
L 458.355147 230.89377 
L 458.684478 231.710315 
L 458.684478 230.787034 
L 459.013809 231.4879 
L 459.013809 230.764613 
L 459.342651 231.560578 
L 459.342651 230.777141 
L 459.671982 231.71051 
L 459.671982 230.955936 
L 460.001313 231.761967 
L 460.001313 231.071533 
L 460.330889 231.900488 
L 460.330889 231.201302 
L 460.660465 231.93222 
L 460.660465 231.088594 
L 460.990529 231.738663 
L 460.990529 231.00511 
L 461.320839 231.651336 
L 461.320839 230.920932 
L 461.650903 231.654607 
L 461.650903 231.055822 
L 461.981212 231.81651 
L 461.981212 231.138027 
L 462.311277 231.966047 
L 462.311277 231.643072 
L 462.647454 232.262025 
L 462.647454 231.452676 
L 462.978008 232.217328 
L 462.978008 231.554612 
L 463.308806 231.933197 
L 463.308806 231.343677 
L 463.639604 232.111001 
L 463.639604 231.40319 
L 463.970646 231.970281 
L 463.970646 231.27751 
L 464.302178 231.932844 
L 464.302178 231.202382 
L 464.63371 231.865673 
L 464.63371 231.275576 
L 464.965486 231.966235 
L 464.965486 231.634153 
L 465.297506 232.389008 
L 465.297506 231.872552 
L 465.629771 232.550689 
L 465.629771 232.044437 
L 465.960814 232.394432 
L 465.960814 231.944159 
L 466.293079 232.4757 
L 466.293079 231.954373 
L 466.624366 232.511506 
L 466.624366 232.070715 
L 466.955898 232.525707 
L 466.955898 232.148532 
L 467.290608 232.686859 
L 467.290608 232.144496 
L 467.627274 232.571303 
L 467.627274 232.162356 
L 467.957827 232.616705 
L 467.957827 232.165702 
L 468.289115 232.719254 
L 468.289115 232.396334 
L 468.619424 232.866155 
L 468.619424 232.508136 
L 468.950222 232.873638 
L 468.950222 232.658753 
L 469.279064 233.046606 
L 469.279064 232.714038 
L 469.608395 233.116855 
L 469.608395 232.820238 
L 469.937237 233.083786 
L 469.937237 232.792286 
L 470.266569 233.189236 
L 470.266569 232.858302 
L 470.595411 233.286551 
L 470.595411 233.037174 
L 470.924497 233.318801 
L 470.924497 233.038221 
L 471.25334 233.347588 
L 471.25334 232.968587 
L 471.582915 233.258466 
L 471.582915 233.000184 
L 471.912247 233.202112 
L 471.912247 232.823343 
L 472.241822 233.191306 
L 472.241822 232.838216 
L 472.577021 233.092799 
L 472.577021 232.848381 
L 472.90733 233.203406 
L 472.90733 232.807164 
L 473.237395 233.117925 
L 473.237395 232.815189 
L 473.567704 233.058323 
L 473.567704 232.777008 
L 473.898013 233.196381 
L 473.898013 232.80826 
L 474.2293 233.145603 
L 474.2293 232.902097 
L 474.560343 233.202244 
L 474.560343 232.912385 
L 474.891386 233.307356 
L 474.891386 232.951509 
L 475.223162 233.24552 
L 475.223162 232.954834 
L 475.554938 233.21553 
L 475.554938 232.961631 
L 475.887203 233.310731 
L 475.887203 233.050895 
L 476.222646 233.314282 
L 476.222646 233.035967 
L 476.554667 233.298394 
L 476.554667 233.038944 
L 476.887177 233.280035 
L 476.887177 232.974675 
L 477.219686 233.220643 
L 477.219686 232.957466 
L 477.557819 233.223834 
L 477.557819 233.036606 
L 477.88984 233.357602 
L 477.88984 233.047537 
L 478.222594 233.326695 
L 478.222594 233.065848 
L 478.555592 233.207617 
L 478.555592 232.920698 
L 478.887857 233.250869 
L 478.887857 232.932321 
L 479.221345 233.1729 
L 479.221345 232.946384 
L 479.553121 233.265853 
L 479.553121 233.095499 
L 479.884653 233.401488 
L 479.884653 233.071799 
L 480.216673 233.375525 
L 480.216673 233.093435 
L 480.548938 233.286827 
L 480.548938 232.923451 
L 480.882181 233.255832 
L 480.882181 233.04808 
L 481.214202 233.352674 
L 481.214202 233.11579 
L 481.545734 233.491942 
L 481.545734 233.235517 
L 481.877021 233.428574 
L 481.877021 233.187746 
L 482.208797 233.42194 
L 482.208797 233.119711 
L 482.545707 233.401005 
L 482.545707 233.13993 
L 482.876994 233.370765 
L 482.876994 233.144592 
L 483.209748 233.39558 
L 483.209748 233.108529 
L 483.542747 233.354826 
L 483.542747 232.987449 
L 484.210455 233.400869 
L 484.210455 233.204113 
L 484.543454 233.516732 
L 484.543454 233.278253 
L 484.876942 233.470771 
L 484.876942 233.303313 
L 485.209207 233.522768 
L 485.209207 233.36135 
L 485.540249 233.593825 
L 485.540249 233.365637 
L 485.872759 233.517211 
L 485.872759 233.238499 
L 486.204535 233.455271 
L 486.204535 233.226812 
L 486.5368 233.425266 
L 486.5368 233.222418 
L 486.868821 233.508829 
L 486.868821 233.20616 
L 487.200841 233.437846 
L 487.200841 233.195299 
L 487.537996 233.399032 
L 487.537996 233.205777 
L 487.870261 233.509356 
L 487.870261 233.270007 
L 488.202037 233.52727 
L 488.202037 233.397416 
L 488.534302 233.571556 
L 488.534302 233.368498 
L 488.867301 233.636772 
L 488.867301 233.387067 
L 489.200055 233.497961 
L 489.200055 233.348854 
L 489.53232 233.569886 
L 489.53232 233.349964 
L 489.865319 233.583161 
L 489.865319 233.432542 
L 490.19954 233.610674 
L 490.19954 233.395391 
L 490.531316 233.605564 
L 490.531316 233.449559 
L 490.862847 233.611609 
L 490.862847 233.333179 
L 491.195602 233.481039 
L 491.195602 233.223244 
L 491.527378 233.39808 
L 491.527378 233.245714 
L 491.859398 233.538331 
L 491.859398 233.409355 
L 492.190196 233.649592 
L 492.190196 233.475998 
L 492.528329 233.647542 
L 492.528329 233.460303 
L 492.865973 233.613212 
L 492.865973 233.409663 
L 493.198727 233.560805 
L 493.198727 233.313525 
L 493.531237 233.470364 
L 493.531237 233.200639 
L 493.86448 233.418734 
L 493.86448 233.254654 
L 494.1965 233.491673 
L 494.1965 233.307898 
L 494.529255 233.597609 
L 494.529255 233.326917 
L 494.861764 233.511409 
L 494.861764 233.359446 
L 495.194029 233.559572 
L 495.194029 233.315701 
L 495.525561 233.54296 
L 495.525561 233.314443 
L 495.857092 233.503735 
L 495.857092 233.328889 
L 496.188624 233.576619 
L 496.188624 233.40637 
L 496.520889 233.620266 
L 496.520889 233.373358 
L 496.853643 233.576488 
L 496.853643 233.387292 
L 497.187131 233.592561 
L 497.187131 233.393988 
L 497.525019 233.626158 
L 497.525019 233.41642 
L 497.857284 233.597605 
L 497.857284 233.429578 
L 498.18906 233.643388 
L 498.18906 233.457131 
L 498.521325 233.600505 
L 498.521325 233.336243 
L 498.85359 233.503099 
L 498.85359 233.22946 
L 499.848185 233.808152 
L 499.848185 233.556145 
L 500.180695 233.690361 
L 500.180695 233.383217 
L 500.513204 233.507008 
L 500.513204 233.281639 
L 500.846203 233.496892 
L 500.846203 233.240965 
L 501.17749 233.518957 
L 501.17749 233.292236 
L 501.842754 233.675357 
L 501.842754 233.528713 
L 502.174285 233.741589 
L 502.174285 233.47238 
L 502.511685 233.622001 
L 502.511685 233.422561 
L 502.848106 233.579246 
L 502.848106 233.391056 
L 503.179638 233.676227 
L 503.179638 233.576465 
L 503.511903 233.719348 
L 503.511903 233.525335 
L 503.844902 233.706641 
L 503.844902 233.421649 
L 504.176189 233.527132 
L 504.176189 233.400998 
L 504.509432 233.601865 
L 504.509432 233.458054 
L 504.840474 233.71997 
L 504.840474 233.451692 
L 505.173473 233.638923 
L 505.173473 233.403573 
L 505.505982 233.561938 
L 505.505982 233.41552 
L 505.838981 233.669344 
L 505.838981 233.415614 
L 506.171491 233.649299 
L 506.171491 233.426428 
L 506.504489 233.584078 
L 506.504489 233.433564 
L 506.835776 233.657229 
L 506.835776 233.510356 
L 507.168041 233.724459 
L 507.168041 233.495003 
L 507.505196 233.611127 
L 507.505196 233.414003 
L 507.836239 233.547145 
L 507.836239 233.356856 
L 508.16777 233.555183 
L 508.16777 233.41537 
L 508.831567 233.699675 
L 508.831567 233.551499 
L 509.163588 233.748522 
L 509.163588 233.578338 
L 509.496831 233.708649 
L 509.496831 233.561181 
L 509.830318 233.770476 
L 509.830318 233.603441 
L 510.16185 233.793494 
L 510.16185 233.623201 
L 510.493137 233.774263 
L 510.493137 233.55488 
L 510.825402 233.708054 
L 510.825402 233.543668 
L 511.491399 233.52413 
L 511.491399 233.5793 
L 511.82342 233.592816 
L 512.155685 233.807224 
L 512.155685 233.65373 
L 512.830728 233.817326 
L 512.830728 233.620282 
L 513.162504 233.743217 
L 513.162504 233.504955 
L 513.494036 233.6011 
L 513.494036 233.39858 
L 513.825812 233.567965 
L 513.825812 233.396221 
L 514.157833 233.642391 
L 514.157833 233.524557 
L 514.48912 233.646973 
L 514.48912 233.423726 
L 514.821385 233.603011 
L 514.821385 233.43056 
L 515.818669 233.785305 
L 515.818669 233.588072 
L 516.150445 233.677742 
L 516.150445 233.55335 
L 516.483444 233.656596 
L 516.483444 233.506379 
L 516.815464 233.744501 
L 516.815464 233.549394 
L 517.148218 233.683322 
L 517.148218 233.499458 
L 517.486107 233.650205 
L 517.486107 233.477227 
L 518.149904 233.756825 
L 518.149904 233.596236 
L 518.815167 233.831393 
L 518.815167 233.612121 
L 519.148166 233.773903 
L 519.148166 233.593429 
L 519.480431 233.646434 
L 519.480431 233.459241 
L 519.813674 233.658278 
L 519.813674 233.500315 
L 520.145695 233.670577 
L 520.145695 233.543152 
L 520.477471 233.778211 
L 520.477471 233.597573 
L 520.809491 233.73851 
L 520.809491 233.519982 
L 521.473532 233.762429 
L 521.473532 233.667811 
L 521.805553 233.883537 
L 521.805553 233.688064 
L 522.137818 233.799241 
L 522.137818 233.666295 
L 522.482552 233.771804 
L 522.482552 233.624798 
L 522.814084 233.830841 
L 522.814084 233.624849 
L 523.145371 233.741466 
L 523.145371 233.547083 
L 523.476903 233.700421 
L 523.476903 233.517769 
L 523.811368 233.705116 
L 523.811368 233.564042 
L 524.144367 233.747224 
L 524.144367 233.533974 
L 524.476632 233.718873 
L 524.476632 233.588756 
L 524.820143 233.641808 
L 525.153387 233.469925 
L 525.486385 233.676078 
L 525.486385 233.529107 
L 526.150182 233.730049 
L 526.150182 233.567432 
L 526.482447 233.721742 
L 526.482447 233.569959 
L 526.814467 233.736875 
L 526.814467 233.550348 
L 527.146733 233.710668 
L 527.146733 233.527399 
L 527.146733 233.651416 
L 528.149396 233.649058 
L 528.149396 233.4817 
L 528.481172 233.665146 
L 528.481172 233.521784 
L 528.812948 233.708546 
L 528.812948 233.563577 
L 529.145702 233.752048 
L 529.145702 233.618126 
L 529.810966 233.836211 
L 529.810966 233.676573 
L 530.142986 233.817955 
L 530.142986 233.686912 
L 530.474762 233.797954 
L 530.474762 233.66664 
L 532.139266 233.820631 
L 532.139266 233.644829 
L 532.477154 233.760033 
L 532.477154 233.607244 
L 532.809175 233.79237 
L 532.809175 233.655573 
L 533.472727 233.846349 
L 533.472727 233.71221 
L 534.470256 233.706472 
L 534.470256 233.682037 
L 534.802766 233.849479 
L 534.802766 233.725472 
L 535.46754 233.93687 
L 535.46754 233.844162 
L 535.798583 233.959626 
L 535.798583 233.835094 
L 536.130359 233.906497 
L 536.130359 233.752093 
L 536.795134 233.878346 
L 536.795134 233.777342 
L 537.126665 233.917626 
L 537.126665 233.809758 
L 537.797552 233.940404 
L 537.797552 233.827104 
L 538.130062 233.926513 
L 538.130062 233.786387 
L 538.462082 233.895672 
L 538.462082 233.751129 
L 538.794103 233.865102 
L 538.794103 233.738325 
L 539.46499 233.871176 
L 539.46499 233.767956 
L 539.46499 233.882305 
L 540.460318 233.827918 
L 540.460318 233.725113 
L 540.460318 233.81753 
L 543.12015 233.707462 
L 543.452415 233.885366 
L 543.452415 233.732868 
L 543.783703 233.839331 
L 543.783703 233.677998 
L 544.116212 233.776305 
L 544.116212 233.61911 
L 544.448477 233.74466 
L 544.448477 233.580107 
L 544.780009 233.733592 
L 544.780009 233.611118 
L 545.112274 233.756186 
L 545.112274 233.620781 
L 545.443561 233.807961 
L 545.443561 233.674355 
L 545.776315 233.761653 
L 545.776315 233.60944 
L 546.108336 233.74984 
L 546.108336 233.605598 
L 546.772132 233.858712 
L 546.772132 233.754365 
L 547.104397 233.895433 
L 547.104397 233.766914 
L 547.441552 233.876222 
L 547.441552 233.718534 
L 547.774306 233.849688 
L 547.774306 233.716551 
L 548.105594 233.832121 
L 548.105594 233.710597 
L 548.443971 233.86767 
L 548.443971 233.735714 
L 548.777458 233.872712 
L 548.777458 233.758124 
L 549.110457 233.885802 
L 549.110457 233.765153 
L 549.442233 233.896102 
L 549.442233 233.760376 
L 549.775232 233.872591 
L 549.775232 233.735818 
L 550.10823 233.860123 
L 550.10823 233.713182 
L 550.441718 233.852356 
L 550.441718 233.709711 
L 550.774472 233.843917 
L 550.774472 233.687782 
L 551.105759 233.848355 
L 551.105759 233.673418 
L 551.437535 233.80646 
L 551.437535 233.668736 
L 551.768822 233.831496 
L 551.768822 233.667428 
L 552.101576 233.836368 
L 552.101576 233.682608 
L 552.440198 233.799328 
L 552.440198 233.659894 
L 553.105951 233.81494 
L 553.105951 233.670742 
L 553.436993 233.788909 
L 553.436993 233.688886 
L 553.769014 233.767227 
L 553.769014 233.634149 
L 554.434522 233.850137 
L 554.434522 233.692321 
L 554.766787 233.834752 
L 554.766787 233.710156 
L 555.431562 233.898315 
L 555.431562 233.774631 
L 555.764316 233.895147 
L 555.764316 233.738801 
L 556.096092 233.864183 
L 556.096092 233.714959 
L 556.429335 233.844888 
L 556.429335 233.705916 
L 557.098266 233.87828 
L 557.098266 233.764934 
L 557.436888 233.892993 
L 557.436888 233.766652 
L 558.432216 233.669574 
L 558.432216 233.679849 
L 558.763992 233.81218 
L 558.763992 233.642667 
L 559.096013 233.793483 
L 559.096013 233.657852 
L 559.428523 233.808712 
L 559.428523 233.660063 
L 559.760054 233.844203 
L 559.760054 233.65371 
L 560.092075 233.772564 
L 560.092075 233.626733 
L 560.757827 233.824582 
L 560.757827 233.667793 
L 561.089848 233.795222 
L 561.089848 233.636764 
L 561.752911 233.826347 
L 561.752911 233.708199 
L 562.084443 233.871225 
L 562.084443 233.695977 
L 562.422331 233.850244 
L 562.422331 233.665437 
L 563.084905 233.84278 
L 563.084905 233.681566 
L 563.416193 233.854216 
L 563.416193 233.713353 
L 564.080478 233.810403 
L 564.080478 233.706644 
L 564.411765 233.828314 
L 564.411765 233.669341 
L 564.743297 233.824302 
L 564.743297 233.739902 
L 565.407583 233.884826 
L 565.407583 233.800322 
L 565.740337 233.91445 
L 565.740337 233.769676 
L 566.07358 233.851942 
L 566.07358 233.750549 
L 566.410246 233.790229 
L 566.410246 233.649307 
L 566.740799 233.815196 
L 566.740799 233.68554 
L 567.407041 233.819671 
L 567.407041 233.646135 
L 567.737595 233.783553 
L 567.737595 233.640917 
L 568.068393 233.764131 
L 568.068393 233.537658 
L 568.398213 233.670734 
L 568.398213 233.497549 
L 568.729011 233.606976 
L 568.729011 233.420443 
L 569.058587 233.66031 
L 569.058587 233.506679 
L 569.717983 233.7551 
L 569.717983 233.643161 
L 570.048047 233.802932 
L 570.048047 233.634483 
L 570.378112 233.767099 
L 570.378112 233.558078 
L 570.707688 233.662698 
L 570.707688 233.530568 
L 571.369039 233.867269 
L 571.369039 233.778541 
L 571.700815 233.909443 
L 571.700815 233.72554 
L 572.031858 233.821954 
L 572.031858 233.717256 
L 572.368768 233.799149 
L 572.368768 233.664496 
L 572.701523 233.804492 
L 572.701523 233.698402 
L 573.366297 233.839558 
L 573.366297 233.737334 
L 574.030338 233.865721 
L 574.030338 233.710655 
L 574.36187 233.865416 
L 574.36187 233.74685 
L 574.694135 233.859784 
L 574.694135 233.727621 
L 575.027134 233.890451 
L 575.027134 233.741912 
L 575.359399 233.872394 
L 575.359399 233.717389 
L 576.029797 233.938516 
L 576.029797 233.809914 
L 576.362062 233.949618 
L 576.362062 233.843499 
L 578.024365 233.94517 
L 579.018471 233.897157 
L 579.018471 233.7887 
L 579.348536 233.931627 
L 579.348536 233.865041 
L 580.673684 234.001615 
L 580.673684 233.950741 
L 581.006438 233.992951 
L 581.006438 233.872238 
L 582.003722 233.809609 
L 582.003722 233.840531 
L 582.340388 233.950422 
L 582.340388 233.831124 
L 583.002963 233.8704 
L 583.335961 234.004015 
L 583.335961 233.996621 
L 583.999269 233.974176 
L 583.999269 233.839238 
L 584.669422 233.977489 
L 584.669422 233.871108 
L 585.000709 234.010455 
L 585.000709 233.932563 
L 585.996038 234.059322 
L 585.996038 233.974108 
L 586.32977 234.011615 
L 586.32977 233.908443 
L 587.332188 233.917067 
L 587.332188 233.945297 
L 587.997697 233.966154 
L 588.661249 233.841696 
L 588.661249 233.72745 
L 588.993514 233.549338 
L 588.993514 232.944684 
L 589.326512 232.709022 
L 589.326512 231.141605 
L 589.657555 230.782898 
L 589.657555 227.940993 
L 589.989087 226.685647 
L 589.989087 220.96987 
L 590.317684 219.566366 
L 590.317684 210.67915 
L 590.645793 210.703746 
L 590.645793 198.314752 
L 590.972924 198.026371 
L 590.972924 182.583189 
L 591.29981 184.665579 
L 591.29981 163.909272 
L 591.626452 167.608257 
L 591.626452 143.399433 
L 591.952849 150.58477 
L 591.952849 121.149532 
L 592.284381 133.336172 
L 592.284381 105.035208 
L 592.613956 121.165378 
L 592.613956 91.138068 
L 592.940598 114.989406 
L 592.940598 80.174654 
L 593.266506 105.936852 
L 593.266506 70.005025 
L 593.592904 96.221799 
L 593.592904 59.234736 
L 593.919056 88.75728 
L 593.919056 52.600387 
L 594.244965 91.270447 
L 594.244965 49.932727 
L 594.571117 88.331892 
L 594.571117 52.657652 
L 594.89727 86.828202 
L 594.89727 50.498855 
L 595.223178 95.899545 
L 595.223178 56.331958 
L 595.549331 94.715555 
L 595.549331 61.611211 
L 595.875484 98.627245 
L 595.875484 57.888003 
L 596.201637 99.67485 
L 596.201637 72.150317 
L 596.528034 108.56891 
L 596.528034 84.146823 
L 596.854187 126.04007 
L 596.854187 95.541582 
L 597.185718 126.244249 
L 597.185718 104.501499 
L 597.512605 132.696076 
L 597.512605 107.06487 
L 597.838758 139.448027 
L 597.838758 116.87944 
L 598.165155 139.258646 
L 598.165155 115.027809 
L 598.491552 144.488271 
L 598.491552 123.999201 
L 598.817949 151.246751 
L 598.817949 132.489895 
L 599.144347 157.65348 
L 599.144347 134.292501 
L 599.470744 153.952632 
L 599.470744 136.25355 
L 599.797386 158.435766 
L 599.797386 140.218896 
L 600.123783 164.458676 
L 600.123783 148.560086 
L 600.45018 165.633439 
L 600.45018 150.090601 
L 600.777066 168.563297 
L 600.777066 152.742516 
L 601.103464 170.779189 
L 601.103464 158.322467 
L 601.430105 175.296003 
L 601.430105 162.781646 
L 601.756747 179.63025 
L 601.756747 167.217999 
L 602.088768 181.33225 
L 602.088768 168.642336 
L 602.41541 182.328983 
L 602.41541 168.280779 
L 602.74523 181.807507 
L 602.74523 170.737327 
L 603.071871 184.540124 
L 603.071871 174.697945 
L 603.398513 189.555407 
L 603.398513 178.784708 
L 603.725155 191.644112 
L 603.725155 182.124787 
L 604.052041 192.791208 
L 604.052041 183.606989 
L 604.378927 196.239965 
L 604.378927 184.837344 
L 604.705569 196.293413 
L 604.705569 185.625144 
L 605.033922 195.144028 
L 605.033922 183.930256 
L 605.360564 194.768999 
L 605.360564 184.681197 
L 605.68745 195.387773 
L 605.68745 185.208867 
L 606.014581 195.776472 
L 606.014581 188.231674 
L 606.341712 198.301288 
L 606.341712 191.423019 
L 606.668843 201.663803 
L 606.668843 193.29449 
L 607.001108 202.497314 
L 607.001108 194.24732 
L 607.328483 201.620831 
L 607.328483 194.612674 
L 607.655614 203.596219 
L 607.655614 195.011774 
L 607.982745 204.14466 
L 607.982745 196.541302 
L 608.31012 203.275159 
L 608.31012 197.416444 
L 608.63725 206.297159 
L 608.63725 198.284778 
L 608.964626 206.635684 
L 608.964626 201.515135 
L 609.292001 207.849391 
L 609.292001 202.467445 
L 609.619376 210.189122 
L 609.619376 205.517924 
L 609.946751 212.070734 
L 609.946751 207.315022 
L 610.274371 213.307615 
L 610.274371 209.195426 
L 610.601991 214.706239 
L 610.601991 210.36537 
L 610.929366 216.388206 
L 610.929366 210.778117 
L 611.25723 216.009203 
L 611.25723 212.720681 
L 611.58485 217.425745 
L 611.58485 212.804547 
L 611.92225 218.458564 
L 611.92225 213.625232 
L 612.249869 217.463354 
L 612.249869 213.124466 
L 612.577733 217.998655 
L 612.577733 213.272058 
L 612.905842 218.547649 
L 612.905842 214.407968 
L 613.233706 218.419563 
L 613.233706 214.065813 
L 613.561815 219.196452 
L 613.561815 215.049015 
L 613.890168 219.103294 
L 613.890168 215.756628 
L 614.218522 220.318264 
L 614.218522 216.383878 
L 614.54663 220.47414 
L 614.54663 216.827711 
L 614.874983 220.827366 
L 614.874983 216.805727 
L 615.203092 220.738234 
L 615.203092 217.184091 
L 615.532179 221.431965 
L 615.532179 218.047442 
L 615.860043 222.196566 
L 615.860043 219.233219 
L 616.188641 223.096071 
L 616.188641 219.417808 
L 616.516994 222.964255 
L 616.516994 219.621055 
L 616.850726 222.754845 
L 616.850726 219.283222 
L 617.179568 222.571153 
L 617.179568 219.88345 
L 617.508166 223.244436 
L 617.508166 220.251615 
L 617.836764 223.527065 
L 617.836764 221.848746 
L 618.165361 224.509114 
L 618.165361 221.468571 
L 618.494204 224.372977 
L 618.494204 222.314753 
L 618.822801 224.485583 
L 618.822801 221.709638 
L 619.151399 224.784426 
L 619.151399 222.555075 
L 619.480486 224.892329 
L 619.480486 222.451415 
L 619.809817 225.539946 
L 619.809817 223.502849 
L 620.138414 225.82538 
L 620.138414 223.629524 
L 620.467501 226.299881 
L 620.467501 224.024568 
L 620.797077 226.05881 
L 620.797077 224.412649 
L 621.126652 226.67927 
L 621.126652 224.369353 
L 621.456473 226.635099 
L 621.456473 224.564319 
L 621.791183 226.381858 
L 621.791183 224.454282 
L 622.125404 226.717873 
L 622.125404 224.864351 
L 622.470138 227.147307 
L 622.470138 224.923625 
L 622.799714 226.66617 
L 622.799714 224.824669 
L 623.129534 226.62838 
L 623.129534 225.046405 
L 623.459598 227.480265 
L 623.459598 226.169291 
L 623.789174 228.159001 
L 623.789174 226.629973 
L 624.118505 228.241792 
L 624.118505 226.093529 
L 624.448814 227.867273 
L 624.448814 225.878009 
L 624.778146 227.594559 
L 624.778146 225.676099 
L 625.108455 227.788094 
L 625.108455 226.158164 
L 625.43803 228.143719 
L 625.43803 226.368126 
L 625.768095 228.236547 
L 625.768095 226.951172 
L 626.098404 228.47916 
L 626.098404 227.212103 
L 626.428958 228.932795 
L 626.428958 227.686962 
L 626.763912 229.058904 
L 626.763912 227.89327 
L 627.09471 229.14824 
L 627.09471 228.028065 
L 627.426242 229.531317 
L 627.426242 228.137002 
L 627.75704 229.320167 
L 627.75704 228.22572 
L 628.088816 229.510294 
L 628.088816 228.049774 
L 628.419125 229.470669 
L 628.419125 228.396177 
L 628.75139 229.538731 
L 628.75139 228.81526 
L 629.0817 230.296823 
L 629.0817 229.110069 
L 629.412987 230.351718 
L 629.412987 229.366495 
L 629.744518 230.214712 
L 629.744518 229.132101 
L 630.076783 230.353704 
L 630.076783 229.350817 
L 630.408315 230.348716 
L 630.408315 229.340217 
L 630.740091 230.498331 
L 630.740091 229.51132 
L 631.076513 230.55135 
L 631.076513 229.670656 
L 631.4078 230.547443 
L 631.4078 229.594014 
L 631.745688 230.636743 
L 631.745688 229.7344 
L 632.077953 230.718086 
L 632.077953 229.770229 
L 632.42122 230.712683 
L 632.42122 229.921931 
L 632.753486 230.903274 
L 632.753486 230.059245 
L 633.084528 231.090995 
L 633.084528 230.128905 
L 633.417038 230.991614 
L 633.417038 230.055584 
L 633.749303 230.870107 
L 633.749303 230.01329 
L 634.08279 230.963381 
L 634.08279 229.899474 
L 634.414566 230.81568 
L 634.414566 229.840887 
L 634.746098 230.740801 
L 634.746098 229.935408 
L 635.079097 231.036699 
L 635.079097 230.13425 
L 635.409895 231.268369 
L 635.409895 230.467095 
L 635.741915 231.248793 
L 635.741915 230.338232 
L 636.07418 231.270681 
L 636.07418 230.520255 
L 636.407179 231.196187 
L 636.407179 230.413531 
L 636.744334 231.325349 
L 636.744334 230.522708 
L 637.076354 231.263886 
L 637.076354 230.492456 
L 637.408864 231.400691 
L 637.408864 230.663925 
L 637.741129 231.393504 
L 637.741129 230.642671 
L 638.073639 231.631463 
L 638.073639 231.073151 
L 638.406882 231.817325 
L 638.406882 231.234725 
L 638.738413 231.948141 
L 638.738413 231.267322 
L 639.070434 231.786671 
L 639.070434 231.18544 
L 639.40221 231.8311 
L 639.40221 231.467249 
L 639.737898 232.091011 
L 639.737898 231.531382 
L 640.068207 232.207578 
L 640.068207 231.591728 
L 640.398761 232.035283 
L 640.398761 231.583321 
L 640.729803 232.237212 
L 640.729803 231.542252 
L 641.06158 232.183278 
L 641.06158 231.506001 
L 641.394089 232.068923 
L 641.394089 231.407654 
L 641.731489 232.026577 
L 641.731489 231.428716 
L 642.06302 232.04813 
L 642.06302 231.54849 
L 642.395774 232.169993 
L 642.395774 231.652259 
L 642.728773 232.309166 
L 642.728773 231.777885 
L 643.061527 232.267391 
L 643.061527 231.569213 
L 643.394525 232.164356 
L 643.394525 231.498058 
L 643.728991 232.101988 
L 643.728991 231.631481 
L 644.063212 232.35175 
L 644.063212 231.734677 
L 644.397189 232.344985 
L 644.397189 231.713024 
L 644.731165 232.19513 
L 644.731165 231.490592 
L 645.06343 232.060679 
L 645.06343 231.514041 
L 645.396184 232.119435 
L 645.396184 231.581296 
L 645.730161 232.25118 
L 645.730161 231.717561 
L 646.064626 232.313854 
L 646.064626 231.778282 
L 646.396402 232.332147 
L 646.396402 231.802127 
L 646.73478 232.38974 
L 646.73478 231.828224 
L 647.067289 232.387263 
L 647.067289 231.831199 
L 647.401755 232.441495 
L 647.401755 231.875211 
L 647.73402 232.433058 
L 647.73402 232.050832 
L 648.068241 232.589463 
L 648.068241 231.924842 
L 648.401973 232.453773 
L 648.401973 232.026249 
L 648.734238 232.345992 
L 648.734238 231.922922 
L 649.07286 232.576526 
L 649.07286 232.132594 
L 649.408303 232.557155 
L 649.408303 232.183711 
L 649.741057 232.614092 
L 649.741057 232.125294 
L 650.073078 232.59153 
L 650.073078 232.137432 
L 650.407788 232.590515 
L 650.407788 232.133016 
L 650.740542 232.663576 
L 650.740542 232.338531 
L 651.073052 232.857889 
L 651.073052 232.399387 
L 651.404583 232.889079 
L 651.404583 232.355313 
L 651.743205 232.670329 
L 651.743205 232.174846 
L 652.076693 232.640401 
L 652.076693 232.216613 
L 652.41018 232.699976 
L 652.41018 232.39137 
L 652.743912 232.880442 
L 652.743912 232.563869 
L 653.0774 232.953288 
L 653.0774 232.549387 
L 653.408443 232.873901 
L 653.408443 232.555019 
L 653.740952 232.886729 
L 653.740952 232.597229 
L 654.072728 232.987486 
L 654.072728 232.675096 
L 654.403282 232.997892 
L 654.403282 232.608223 
L 654.735058 232.934255 
L 654.735058 232.554037 
L 655.06659 232.912853 
L 655.06659 232.553152 
L 655.39861 232.920022 
L 655.39861 232.604994 
L 655.729653 233.016764 
L 655.729653 232.684867 
L 656.059962 233.040533 
L 656.059962 232.699293 
L 656.39076 233.010199 
L 656.39076 232.683461 
L 656.727181 233.007404 
L 656.727181 232.613374 
L 657.058224 232.970306 
L 657.058224 232.60213 
L 657.39 232.966116 
L 657.39 232.678637 
L 657.725933 233.062261 
L 657.725933 232.757925 
L 658.056486 233.098453 
L 658.056486 232.745709 
L 658.38704 233.05984 
L 658.38704 232.790759 
L 658.718327 233.086833 
L 658.718327 232.764372 
L 659.049859 233.123644 
L 659.049859 232.784043 
L 659.384813 233.066916 
L 659.384813 232.754425 
L 659.7161 233.095676 
L 659.7161 232.753708 
L 660.048365 233.069339 
L 660.048365 232.768084 
L 660.38063 233.102895 
L 660.38063 232.884555 
L 660.714607 233.182896 
L 660.714607 232.898777 
L 661.047606 233.214112 
L 661.047606 232.925576 
L 661.380115 233.151085 
L 661.380115 232.917384 
L 661.718737 233.141318 
L 661.718737 232.850325 
L 662.051736 233.154337 
L 662.051736 232.81836 
L 662.385468 233.073479 
L 662.385468 232.71013 
L 662.718222 233.01325 
L 662.718222 232.702435 
L 663.052687 233.075935 
L 663.052687 232.766392 
L 663.38593 233.215661 
L 663.38593 232.912581 
L 663.71844 233.210717 
L 663.71844 232.870799 
L 664.050949 233.177434 
L 664.050949 232.839355 
L 664.384192 233.131208 
L 664.384192 232.833659 
L 664.718902 233.141372 
L 664.718902 232.873616 
L 665.053368 233.199084 
L 665.053368 232.893296 
L 665.386367 233.239956 
L 665.386367 232.948248 
L 665.719854 233.193965 
L 665.719854 232.905614 
L 666.054809 233.212566 
L 666.054809 232.83885 
L 666.054809 233.056667 
L 667.061139 233.35594 
L 667.061139 232.997718 
L 667.394871 233.198393 
L 667.394871 232.9315 
L 667.727381 233.174931 
L 667.727381 232.856065 
L 668.061113 233.180836 
L 668.061113 232.978675 
L 668.394356 233.253 
L 668.394356 233.024234 
L 668.727599 233.305929 
L 668.727599 233.039478 
L 669.059864 233.323906 
L 669.059864 233.093061 
L 669.395063 233.363479 
L 669.395063 233.066747 
L 669.728061 233.342594 
L 669.728061 233.024655 
L 670.062771 233.256067 
L 670.062771 232.991411 
L 670.396503 233.306858 
L 670.396503 233.062643 
L 670.73048 233.350736 
L 670.73048 233.093089 
L 671.063723 233.363117 
L 671.063723 233.125277 
L 671.397455 233.361882 
L 671.397455 233.102381 
L 671.738033 233.35485 
L 671.738033 233.11631 
L 672.071765 233.374871 
L 672.071765 233.110724 
L 672.404764 233.375656 
L 672.404764 233.129702 
L 672.740207 233.376953 
L 672.740207 233.103827 
L 673.074673 233.386523 
L 673.074673 233.120404 
L 673.409872 233.399423 
L 673.409872 233.178022 
L 673.745559 233.441449 
L 673.745559 233.240131 
L 674.078558 233.508599 
L 674.078558 233.179731 
L 674.412535 233.409957 
L 674.412535 233.240358 
L 674.746511 233.391865 
L 674.746511 233.143994 
L 675.085866 233.439704 
L 675.085866 233.171894 
L 675.421065 233.384209 
L 675.421065 233.233317 
L 675.754309 233.489029 
L 675.754309 233.304475 
L 676.089019 233.547733 
L 676.089019 233.291851 
L 676.424462 233.504677 
L 676.424462 233.273548 
L 676.762839 233.51068 
L 676.762839 233.2844 
L 677.096816 233.504884 
L 677.096816 233.230717 
L 677.430303 233.457349 
L 677.430303 233.230049 
L 677.765258 233.464107 
L 677.765258 233.211691 
L 678.101435 233.471005 
L 678.101435 233.250413 
L 678.435411 233.473826 
L 678.435411 233.285078 
L 678.770855 233.559652 
L 678.770855 233.292888 
L 679.106054 233.498374 
L 679.106054 233.292959 
L 679.439542 233.464207 
L 679.439542 233.219169 
L 679.772296 233.511781 
L 679.772296 233.363749 
L 680.106761 233.558252 
L 680.106761 233.354177 
L 680.442205 233.606986 
L 680.442205 233.33163 
L 680.777648 233.496812 
L 680.777648 233.31536 
L 681.124094 233.540715 
L 681.124094 233.322844 
L 681.45807 233.566733 
L 681.45807 233.378833 
L 681.799626 233.56881 
L 681.799626 233.306101 
L 682.134825 233.511516 
L 682.134825 233.300541 
L 682.470268 233.508328 
L 682.470268 233.334854 
L 682.803512 233.583447 
L 682.803512 233.404239 
L 683.137488 233.632627 
L 683.137488 233.456118 
L 683.477332 233.619824 
L 683.477332 233.439766 
L 683.811553 233.617557 
L 683.811553 233.473849 
L 684.146019 233.629751 
L 684.146019 233.491405 
L 684.479507 233.693571 
L 684.479507 233.49025 
L 684.814706 233.627793 
L 684.814706 233.442562 
L 685.149171 233.601268 
L 685.149171 233.40376 
L 685.482414 233.602112 
L 685.482414 233.363799 
L 685.818836 233.558097 
L 685.818836 233.314424 
L 686.153546 233.52145 
L 686.153546 233.313412 
L 686.489234 233.566778 
L 686.489234 233.38285 
L 686.830056 233.621089 
L 686.830056 233.400838 
L 687.164521 233.652952 
L 687.164521 233.480685 
L 687.49972 233.645104 
L 687.49972 233.413616 
L 687.83443 233.615265 
L 687.83443 233.389372 
L 688.168896 233.578063 
L 688.168896 233.414105 
L 688.50385 233.646851 
L 688.50385 233.45288 
L 688.840027 233.657668 
L 688.840027 233.441541 
L 689.17596 233.62192 
L 689.17596 233.38547 
L 689.51287 233.56517 
L 689.51287 233.354618 
L 689.847336 233.559036 
L 689.847336 233.368763 
L 690.183024 233.62276 
L 690.183024 233.453725 
L 690.517489 233.685167 
L 690.517489 233.488368 
L 690.8544 233.687952 
L 690.8544 233.421251 
L 691.189843 233.625263 
L 691.189843 233.419387 
L 691.525531 233.588551 
L 691.525531 233.391031 
L 691.867087 233.633244 
L 691.867087 233.481975 
L 692.204242 233.647122 
L 692.204242 233.504912 
L 692.545309 233.701948 
L 692.545309 233.568288 
L 692.881486 233.695699 
L 692.881486 233.559866 
L 693.217663 233.696259 
L 693.217663 233.475067 
L 693.553106 233.632296 
L 693.553106 233.443777 
L 693.889283 233.595643 
L 693.889283 233.442814 
L 694.226193 233.647891 
L 694.226193 233.506295 
L 694.561881 233.713494 
L 694.561881 233.572551 
L 694.898303 233.776956 
L 694.898303 233.632586 
L 695.23448 233.734295 
L 695.23448 233.575282 
L 695.570412 233.72542 
L 695.570412 233.515285 
L 695.91588 233.670507 
L 695.91588 233.514533 
L 696.251812 233.669586 
L 696.251812 233.545929 
L 696.587745 233.742259 
L 696.587745 233.5471 
L 696.928323 233.727714 
L 696.928323 233.586857 
L 697.264744 233.724623 
L 697.264744 233.556477 
L 697.600921 233.776571 
L 697.600921 233.584521 
L 697.93612 233.75791 
L 697.93612 233.609677 
L 698.270097 233.759778 
L 698.270097 233.584705 
L 698.604807 233.771963 
L 698.604807 233.615581 
L 698.940495 233.467138 
L 699.610893 233.405839 
L 699.948537 233.658955 
L 699.948537 233.517904 
L 700.288625 233.683759 
L 700.288625 233.530618 
L 700.617712 233.707672 
L 700.617712 233.586045 
L 700.952667 233.734623 
L 700.952667 233.542486 
L 701.288355 233.705417 
L 701.288355 233.560839 
L 701.965598 233.759486 
L 701.965598 233.577124 
L 702.301775 233.699259 
L 702.301775 233.565152 
L 702.637219 233.674292 
L 702.637219 233.550002 
L 702.973396 233.719347 
L 702.973396 233.591635 
L 703.310062 233.744258 
L 703.310062 233.606112 
L 703.981927 233.772262 
L 703.981927 233.636253 
L 704.316881 233.786225 
L 704.316881 233.629224 
L 704.988746 233.780566 
L 704.988746 233.628239 
L 705.327612 233.820092 
L 705.327612 233.671698 
L 705.664034 233.812286 
L 705.664034 233.626767 
L 705.999966 233.817793 
L 705.999966 233.64298 
L 706.335899 233.774592 
L 706.335899 233.602763 
L 706.670853 233.796444 
L 706.670853 233.582596 
L 707.013143 233.73973 
L 707.013143 233.563405 
L 707.350298 233.719509 
L 707.350298 233.567331 
L 707.685252 233.750128 
L 707.685252 233.589189 
L 708.359562 233.775243 
L 708.359562 233.613457 
L 708.69525 233.773608 
L 708.69525 233.622105 
L 709.031671 233.747212 
L 709.031671 233.608888 
L 709.368337 233.778955 
L 709.368337 233.616892 
L 709.710382 233.806471 
L 709.710382 233.688182 
L 710.046559 233.831173 
L 710.046559 233.684617 
L 710.718424 233.854589 
L 710.718424 233.745901 
L 711.055334 233.893203 
L 711.055334 233.754596 
L 711.394445 233.828062 
L 711.394445 233.695246 
L 711.729889 233.797202 
L 711.729889 233.66223 
L 712.072423 233.832142 
L 712.072423 233.719668 
L 712.408111 233.825916 
L 712.408111 233.662446 
L 712.744043 233.795019 
L 712.744043 233.654858 
L 713.080464 233.808641 
L 713.080464 233.654016 
L 713.419575 233.822493 
L 713.419575 233.678095 
L 713.756486 233.829738 
L 713.756486 233.687221 
L 714.092907 233.828037 
L 714.092907 233.702682 
L 714.432996 233.828641 
L 714.432996 233.635404 
L 714.770151 233.782767 
L 714.770151 233.65308 
L 715.107061 233.773557 
L 715.107061 233.620879 
L 715.443483 233.773397 
L 715.443483 233.658584 
L 715.778926 233.797474 
L 715.778926 233.664048 
L 716.116326 233.832049 
L 716.116326 233.696056 
L 716.451525 233.794255 
L 716.451525 233.621242 
L 716.787213 233.728204 
L 716.787213 233.603456 
L 717.127302 233.764298 
L 717.127302 233.611001 
L 717.465679 233.782947 
L 717.465679 233.652924 
L 717.80699 233.802685 
L 717.80699 233.653874 
L 718.142434 233.801261 
L 718.142434 233.670858 
L 718.4791 233.846444 
L 718.4791 233.65041 
L 718.816255 233.823187 
L 718.816255 233.724042 
L 719.151943 233.865213 
L 719.151943 233.748246 
L 719.825519 233.764602 
L 719.825519 233.735585 
L 720.499095 233.855395 
L 720.499095 233.768251 
L 720.83625 233.907778 
L 720.83625 233.792288 
L 721.172916 233.905996 
L 721.172916 233.771168 
L 721.510316 233.870251 
L 721.510316 233.731264 
L 722.18976 233.85609 
L 722.18976 233.764884 
L 722.527159 233.899308 
L 722.527159 233.748016 
L 723.201225 233.862719 
L 723.201225 233.752522 
L 723.53838 233.918713 
L 723.53838 233.796928 
L 723.875046 233.884539 
L 723.875046 233.750779 
L 724.210734 233.864626 
L 724.210734 233.722561 
L 724.548622 233.848989 
L 724.548622 233.703624 
L 724.888466 233.826889 
L 724.888466 233.672335 
L 725.230511 233.807026 
L 725.230511 233.684024 
L 725.569133 233.845 
L 725.569133 233.71815 
L 725.912889 233.836764 
L 725.912889 233.703959 
L 726.248088 233.818971 
L 726.248088 233.696755 
L 726.922154 233.862845 
L 726.922154 233.747717 
L 727.601842 233.904764 
L 727.601842 233.807608 
L 728.27493 233.981904 
L 728.27493 233.8441 
L 728.610373 233.957339 
L 728.610373 233.836008 
L 729.28615 233.960299 
L 729.28615 233.765387 
L 729.621104 233.851163 
L 729.621104 233.714879 
L 730.293947 233.851917 
L 730.293947 233.710733 
L 730.971191 233.889654 
L 730.971191 233.768309 
L 731.307124 233.891397 
L 731.307124 233.803005 
L 731.645256 233.882252 
L 731.645256 233.739559 
L 731.984612 233.895708 
L 731.984612 233.818714 
L 732.324945 233.899786 
L 732.324945 233.761155 
L 732.663078 233.891632 
L 732.663078 233.7618 
L 733.335921 233.960091 
L 733.335921 233.865705 
L 733.672098 233.980019 
L 733.672098 233.871515 
L 734.006563 233.969993 
L 734.006563 233.833102 
L 734.682829 233.928462 
L 734.682829 233.839269 
L 735.022674 233.944156 
L 735.022674 233.846735 
L 735.696983 233.933751 
L 735.696983 233.840953 
L 736.039517 233.967288 
L 736.039517 233.8679 
L 736.373983 233.953738 
L 736.373983 233.841628 
L 737.390337 233.973355 
L 737.390337 233.899809 
L 738.062202 233.929921 
L 738.062202 233.821469 
L 738.732845 233.957386 
L 738.732845 233.806863 
L 739.402998 233.97249 
L 739.402998 233.878114 
L 739.738686 234.00989 
L 739.738686 233.893436 
L 740.075352 233.949093 
L 740.075352 233.802502 
L 741.085595 233.837195 
L 741.085595 233.88421 
L 741.423238 233.982392 
L 741.423238 233.839389 
L 744.452987 233.947648 
L 744.452987 233.883761 
L 745.129253 234.026548 
L 745.129253 233.967456 
L 745.801363 233.999226 
L 745.801363 233.841458 
L 746.470538 233.882222 
L 746.470538 233.782711 
L 747.144604 233.950381 
L 747.144604 233.868751 
L 747.485426 233.986793 
L 747.485426 233.893879 
L 748.160225 233.983417 
L 748.160225 233.897607 
L 748.834535 234.016697 
L 748.834535 233.903377 
L 749.508844 233.982609 
L 749.508844 233.878778 
L 749.844777 233.978733 
L 749.844777 233.848253 
L 750.180465 233.922032 
L 750.180465 233.805096 
L 750.851841 233.943071 
L 750.851841 233.856632 
L 751.525662 233.983843 
L 751.525662 233.878597 
L 752.197038 233.967326 
L 752.197038 233.845432 
L 752.873548 233.942666 
L 752.873548 233.867373 
L 753.20728 234.006458 
L 753.20728 233.913313 
L 753.54908 234.008536 
L 753.54908 233.887311 
L 753.886969 233.98187 
L 753.886969 233.853061 
L 754.560056 233.966245 
L 754.560056 233.888966 
L 754.560056 233.970684 
L 756.24143 233.997971 
L 756.24143 233.883777 
L 756.57614 233.979629 
L 756.57614 233.863567 
L 757.250205 233.970713 
L 757.250205 233.889614 
L 757.925982 234.015904 
L 757.925982 233.944719 
L 758.262159 234.038069 
L 758.262159 233.926827 
L 758.933535 233.915323 
L 758.933535 233.856126 
L 759.603689 233.950897 
L 759.603689 233.879409 
L 760.947907 233.992874 
L 760.947907 233.854176 
L 761.617327 233.923845 
L 761.617327 233.820461 
L 761.952037 233.958794 
L 761.952037 233.852851 
L 762.285769 233.963362 
L 762.285769 233.827917 
L 762.962524 233.961225 
L 762.962524 233.853926 
L 763.297968 233.97777 
L 763.297968 233.888638 
L 763.965921 233.998246 
L 763.965921 233.906712 
L 764.639008 233.988156 
L 764.639008 233.908758 
L 764.976652 234.024934 
L 764.976652 233.932855 
L 765.649984 234.023999 
L 765.649984 233.895177 
L 765.985916 233.969248 
L 765.985916 233.826791 
L 766.657781 233.992736 
L 766.657781 233.894899 
L 766.992002 234.022202 
L 766.992002 233.945791 
L 768.342089 234.023896 
L 768.342089 233.946887 
L 770.346926 233.807761 
L 770.346926 233.836645 
L 771.018791 233.924689 
L 786.425476 233.863087 
L 786.425476 233.841688 
L 786.75823 233.840233 
L 786.75823 233.878368 
L 787.093918 233.99701 
L 787.093918 233.906367 
L 787.429361 233.970277 
L 787.429361 233.868166 
L 788.441315 233.832582 
L 789.775754 233.924571 
L 790.772305 234.00311 
L 790.772305 233.879314 
L 791.103837 233.986511 
L 791.103837 233.897445 
L 792.425318 234.023189 
L 792.425318 233.936151 
L 793.420401 234.030354 
L 793.420401 233.927611 
L 794.078086 234.008334 
L 794.078086 233.925014 
L 794.406928 234.045737 
L 794.406928 233.950086 
L 795.064123 233.973411 
L 795.064123 233.885504 
L 796.049672 234.018194 
L 796.049672 233.942787 
L 796.706623 233.974404 
L 796.706623 233.885579 
L 797.701951 233.84467 
L 797.701951 233.848614 
L 798.030304 233.974552 
L 798.030304 233.927797 
L 798.687011 233.960679 
L 798.687011 233.873078 
L 799.343962 233.992464 
L 799.343962 233.90095 
L 800.001646 233.995325 
L 800.001646 233.895312 
L 800.659086 233.944367 
L 800.987684 233.851584 
L 801.316037 233.920049 
L 801.316037 233.8245 
L 802.303053 233.825307 
L 802.303053 233.880468 
L 802.638251 233.84019 
L 803.625267 234.033309 
L 803.625267 233.968697 
L 803.953865 234.069012 
L 803.953865 233.966487 
L 804.941858 233.843489 
L 805.600521 234.108201 
L 805.600521 234.027251 
L 808.581371 233.977287 
L 808.910947 234.104996 
L 808.910947 233.990278 
L 813.540409 234.118274 
L 814.911033 234.348184 
L 816.276767 234.348596 
L 816.276767 234.348596 
" clip-path="url(#p43a37ed209)" style="fill: none; stroke: #008000; stroke-width: 1.5; stroke-linecap: square"/>
   </g>
   <g id="patch_3">
    <path d="M 47.72 534.04 
L 47.72 26.88 
" style="fill: none; stroke: #000000; stroke-width: 0.8; stroke-linejoin: miter; stroke-linecap: square"/>
   </g>
   <g id="patch_4">
    <path d="M 853.2 534.04 
L 853.2 26.88 
" style="fill: none; stroke: #000000; stroke-width: 0.8; stroke-linejoin: miter; stroke-linecap: square"/>
   </g>
   <g id="patch_5">
    <path d="M 47.72 534.04 
L 853.2 534.04 
" style="fill: none; stroke: #000000; stroke-width: 0.8; stroke-linejoin: miter; stroke-linecap: square"/>
   </g>
   <g id="patch_6">
    <path d="M 47.72 26.88 
L 853.2 26.88 
" style="fill: none; stroke: #000000; stroke-width: 0.8; stroke-linejoin: miter; stroke-linecap: square"/>
   </g>
   <g id="patch_7">
    <path d="M 662.210313 328.6389 
Q 636.059019 334.472762 609.907725 340.306625 
L 610.778642 344.210662 
Q 604.270862 342.588684 597.763082 340.966706 
Q 602.964486 336.732628 608.16589 332.498551 
L 609.036808 336.402588 
Q 635.188102 330.568726 661.339395 324.734863 
L 662.210313 328.6389 
z
" style="stroke: #000000; stroke-linecap: round"/>
   </g>
   <g id="text_15">
    <!-- Peak: RT=3.48, Area=3.93e+04 -->
    <g style="fill: #ff0000" transform="translate(667.446948 312.144044) scale(0.1 -0.1)">
     <defs>
      <path id="DejaVuSans-50" d="M 1259 4147 
L 1259 2394 
L 2053 2394 
Q 2494 2394 2734 2622 
Q 2975 2850 2975 3272 
Q 2975 3691 2734 3919 
Q 2494 4147 2053 4147 
L 1259 4147 
z
M 628 4666 
L 2053 4666 
Q 2838 4666 3239 4311 
Q 3641 3956 3641 3272 
Q 3641 2581 3239 2228 
Q 2838 1875 2053 1875 
L 1259 1875 
L 1259 0 
L 628 0 
L 628 4666 
z
" transform="scale(0.015625)"/>
      <path id="DejaVuSans-6b" d="M 581 4863 
L 1159 4863 
L 1159 1991 
L 2875 3500 
L 3609 3500 
L 1753 1863 
L 3688 0 
L 2938 0 
L 1159 1709 
L 1159 0 
L 581 0 
L 581 4863 
z
" transform="scale(0.015625)"/>
      <path id="DejaVuSans-3a" d="M 750 794 
L 1409 794 
L 1409 0 
L 750 0 
L 750 794 
z
M 750 3309 
L 1409 3309 
L 1409 2516 
L 750 2516 
L 750 3309 
z
" transform="scale(0.015625)"/>
      <path id="DejaVuSans-3d" d="M 678 2906 
L 4684 2906 
L 4684 2381 
L 678 2381 
L 678 2906 
z
M 678 1631 
L 4684 1631 
L 4684 1100 
L 678 1100 
L 678 1631 
z
" transform="scale(0.015625)"/>
      <path id="DejaVuSans-38" d="M 2034 2216 
Q 1584 2216 1326 1975 
Q 1069 1734 1069 1313 
Q 1069 891 1326 650 
Q 1584 409 2034 409 
Q 2484 409 2743 651 
Q 3003 894 3003 1313 
Q 3003 1734 2745 1975 
Q 2488 2216 2034 2216 
z
M 1403 2484 
Q 997 2584 770 2862 
Q 544 3141 544 3541 
Q 544 4100 942 4425 
Q 1341 4750 2034 4750 
Q 2731 4750 3128 4425 
Q 3525 4100 3525 3541 
Q 3525 3141 3298 2862 
Q 3072 2584 2669 2484 
Q 3125 2378 3379 2068 
Q 3634 1759 3634 1313 
Q 3634 634 3220 271 
Q 2806 -91 2034 -91 
Q 1263 -91 848 271 
Q 434 634 434 1313 
Q 434 1759 690 2068 
Q 947 2378 1403 2484 
z
M 1172 3481 
Q 1172 3119 1398 2916 
Q 1625 2713 2034 2713 
Q 2441 2713 2670 2916 
Q 2900 3119 2900 3481 
Q 2900 3844 2670 4047 
Q 2441 4250 2034 4250 
Q 1625 4250 1398 4047 
Q 1172 3844 1172 3481 
z
" transform="scale(0.015625)"/>
      <path id="DejaVuSans-2c" d="M 750 794 
L 1409 794 
L 1409 256 
L 897 -744 
L 494 -744 
L 750 256 
L 750 794 
z
" transform="scale(0.015625)"/>
      <path id="DejaVuSans-41" d="M 2188 4044 
L 1331 1722 
L 3047 1722 
L 2188 4044 
z
M 1831 4666 
L 2547 4666 
L 4325 0 
L 3669 0 
L 3244 1197 
L 1141 1197 
L 716 0 
L 50 0 
L 1831 4666 
z
" transform="scale(0.015625)"/>
      <path id="DejaVuSans-39" d="M 703 97 
L 703 672 
Q 941 559 1184 500 
Q 1428 441 1663 441 
Q 2288 441 2617 861 
Q 2947 1281 2994 2138 
Q 2813 1869 2534 1725 
Q 2256 1581 1919 1581 
Q 1219 1581 811 2004 
Q 403 2428 403 3163 
Q 403 3881 828 4315 
Q 1253 4750 1959 4750 
Q 2769 4750 3195 4129 
Q 3622 3509 3622 2328 
Q 3622 1225 3098 567 
Q 2575 -91 1691 -91 
Q 1453 -91 1209 -44 
Q 966 3 703 97 
z
M 1959 2075 
Q 2384 2075 2632 2365 
Q 2881 2656 2881 3163 
Q 2881 3666 2632 3958 
Q 2384 4250 1959 4250 
Q 1534 4250 1286 3958 
Q 1038 3666 1038 3163 
Q 1038 2656 1286 2365 
Q 1534 2075 1959 2075 
z
" transform="scale(0.015625)"/>
      <path id="DejaVuSans-2b" d="M 2944 4013 
L 2944 2272 
L 4684 2272 
L 4684 1741 
L 2944 1741 
L 2944 0 
L 2419 0 
L 2419 1741 
L 678 1741 
L 678 2272 
L 2419 2272 
L 2419 4013 
L 2944 4013 
z
" transform="scale(0.015625)"/>
     </defs>
     <use xlink:href="#DejaVuSans-50"/>
     <use xlink:href="#DejaVuSans-65" transform="translate(56.677734 0)"/>
     <use xlink:href="#DejaVuSans-61" transform="translate(118.201172 0)"/>
     <use xlink:href="#DejaVuSans-6b" transform="translate(179.480469 0)"/>
     <use xlink:href="#DejaVuSans-3a" transform="translate(237.390625 0)"/>
     <use xlink:href="#DejaVuSans-20" transform="translate(271.082031 0)"/>
     <use xlink:href="#DejaVuSans-52" transform="translate(302.869141 0)"/>
     <use xlink:href="#DejaVuSans-54" transform="translate(365.101562 0)"/>
     <use xlink:href="#DejaVuSans-3d" transform="translate(426.185547 0)"/>
     <use xlink:href="#DejaVuSans-33" transform="translate(509.974609 0)"/>
     <use xlink:href="#DejaVuSans-2e" transform="translate(573.597656 0)"/>
     <use xlink:href="#DejaVuSans-34" transform="translate(605.384766 0)"/>
     <use xlink:href="#DejaVuSans-38" transform="translate(669.007812 0)"/>
     <use xlink:href="#DejaVuSans-2c" transform="translate(732.630859 0)"/>
     <use xlink:href="#DejaVuSans-20" transform="translate(764.417969 0)"/>
     <use xlink:href="#DejaVuSans-41" transform="translate(796.205078 0)"/>
     <use xlink:href="#DejaVuSans-72" transform="translate(864.613281 0)"/>
     <use xlink:href="#DejaVuSans-65" transform="translate(903.476562 0)"/>
     <use xlink:href="#DejaVuSans-61" transform="translate(965 0)"/>
     <use xlink:href="#DejaVuSans-3d" transform="translate(1026.279297 0)"/>
     <use xlink:href="#DejaVuSans-33" transform="translate(1110.068359 0)"/>
     <use xlink:href="#DejaVuSans-2e" transform="translate(1173.691406 0)"/>
     <use xlink:href="#DejaVuSans-39" transform="translate(1205.478516 0)"/>
     <use xlink:href="#DejaVuSans-33" transform="translate(1269.101562 0)"/>
     <use xlink:href="#DejaVuSans-65" transform="translate(1332.724609 0)"/>
     <use xlink:href="#DejaVuSans-2b" transform="translate(1394.248047 0)"/>
     <use xlink:href="#DejaVuSans-30" transform="translate(1478.037109 0)"/>
     <use xlink:href="#DejaVuSans-34" transform="translate(1541.660156 0)"/>
    </g>
    <!-- (39.44% of total) -->
    <g style="fill: #ff0000" transform="translate(667.446948 323.341856) scale(0.1 -0.1)">
     <defs>
      <path id="DejaVuSans-25" d="M 4653 2053 
Q 4381 2053 4226 1822 
Q 4072 1591 4072 1178 
Q 4072 772 4226 539 
Q 4381 306 4653 306 
Q 4919 306 5073 539 
Q 5228 772 5228 1178 
Q 5228 1588 5073 1820 
Q 4919 2053 4653 2053 
z
M 4653 2450 
Q 5147 2450 5437 2106 
Q 5728 1763 5728 1178 
Q 5728 594 5436 251 
Q 5144 -91 4653 -91 
Q 4153 -91 3862 251 
Q 3572 594 3572 1178 
Q 3572 1766 3864 2108 
Q 4156 2450 4653 2450 
z
M 1428 4353 
Q 1159 4353 1004 4120 
Q 850 3888 850 3481 
Q 850 3069 1003 2837 
Q 1156 2606 1428 2606 
Q 1700 2606 1854 2837 
Q 2009 3069 2009 3481 
Q 2009 3884 1853 4118 
Q 1697 4353 1428 4353 
z
M 4250 4750 
L 4750 4750 
L 1831 -91 
L 1331 -91 
L 4250 4750 
z
M 1428 4750 
Q 1922 4750 2215 4408 
Q 2509 4066 2509 3481 
Q 2509 2891 2217 2550 
Q 1925 2209 1428 2209 
Q 931 2209 642 2551 
Q 353 2894 353 3481 
Q 353 4063 643 4406 
Q 934 4750 1428 4750 
z
" transform="scale(0.015625)"/>
      <path id="DejaVuSans-66" d="M 2375 4863 
L 2375 4384 
L 1825 4384 
Q 1516 4384 1395 4259 
Q 1275 4134 1275 3809 
L 1275 3500 
L 2222 3500 
L 2222 3053 
L 1275 3053 
L 1275 0 
L 697 0 
L 697 3053 
L 147 3053 
L 147 3500 
L 697 3500 
L 697 3744 
Q 697 4328 969 4595 
Q 1241 4863 1831 4863 
L 2375 4863 
z
" transform="scale(0.015625)"/>
     </defs>
     <use xlink:href="#DejaVuSans-28"/>
     <use xlink:href="#DejaVuSans-33" transform="translate(39.013672 0)"/>
     <use xlink:href="#DejaVuSans-39" transform="translate(102.636719 0)"/>
     <use xlink:href="#DejaVuSans-2e" transform="translate(166.259766 0)"/>
     <use xlink:href="#DejaVuSans-34" transform="translate(198.046875 0)"/>
     <use xlink:href="#DejaVuSans-34" transform="translate(261.669922 0)"/>
     <use xlink:href="#DejaVuSans-25" transform="translate(325.292969 0)"/>
     <use xlink:href="#DejaVuSans-20" transform="translate(420.3125 0)"/>
     <use xlink:href="#DejaVuSans-6f" transform="translate(452.099609 0)"/>
     <use xlink:href="#DejaVuSans-66" transform="translate(513.28125 0)"/>
     <use xlink:href="#DejaVuSans-20" transform="translate(548.486328 0)"/>
     <use xlink:href="#DejaVuSans-74" transform="translate(580.273438 0)"/>
     <use xlink:href="#DejaVuSans-6f" transform="translate(619.482422 0)"/>
     <use xlink:href="#DejaVuSans-74" transform="translate(680.664062 0)"/>
     <use xlink:href="#DejaVuSans-61" transform="translate(719.873047 0)"/>
     <use xlink:href="#DejaVuSans-6c" transform="translate(781.152344 0)"/>
     <use xlink:href="#DejaVuSans-29" transform="translate(808.935547 0)"/>
    </g>
   </g>
   <g id="text_16">
    <!-- UV &amp; MS Chromatograms: IrCp2J11, target m/z=819.229593 -->
    <g transform="translate(268.459375 20.88) scale(0.12 -0.12)">
     <defs>
      <path id="DejaVuSans-55" d="M 556 4666 
L 1191 4666 
L 1191 1831 
Q 1191 1081 1462 751 
Q 1734 422 2344 422 
Q 2950 422 3222 751 
Q 3494 1081 3494 1831 
L 3494 4666 
L 4128 4666 
L 4128 1753 
Q 4128 841 3676 375 
Q 3225 -91 2344 -91 
Q 1459 -91 1007 375 
Q 556 841 556 1753 
L 556 4666 
z
" transform="scale(0.015625)"/>
      <path id="DejaVuSans-56" d="M 1831 0 
L 50 4666 
L 709 4666 
L 2188 738 
L 3669 4666 
L 4325 4666 
L 2547 0 
L 1831 0 
z
" transform="scale(0.015625)"/>
      <path id="DejaVuSans-26" d="M 1556 2509 
Q 1272 2256 1139 2004 
Q 1006 1753 1006 1478 
Q 1006 1022 1337 719 
Q 1669 416 2169 416 
Q 2466 416 2725 514 
Q 2984 613 3213 813 
L 1556 2509 
z
M 1997 2859 
L 3584 1234 
Q 3769 1513 3872 1830 
Q 3975 2147 3994 2503 
L 4575 2503 
Q 4538 2091 4375 1687 
Q 4213 1284 3922 891 
L 4794 0 
L 4006 0 
L 3559 459 
Q 3234 181 2878 45 
Q 2522 -91 2113 -91 
Q 1359 -91 881 339 
Q 403 769 403 1441 
Q 403 1841 612 2192 
Q 822 2544 1241 2853 
Q 1091 3050 1012 3245 
Q 934 3441 934 3628 
Q 934 4134 1281 4442 
Q 1628 4750 2203 4750 
Q 2463 4750 2720 4694 
Q 2978 4638 3244 4525 
L 3244 3956 
Q 2972 4103 2725 4179 
Q 2478 4256 2266 4256 
Q 1938 4256 1733 4082 
Q 1528 3909 1528 3634 
Q 1528 3475 1620 3314 
Q 1713 3153 1997 2859 
z
" transform="scale(0.015625)"/>
      <path id="DejaVuSans-4d" d="M 628 4666 
L 1569 4666 
L 2759 1491 
L 3956 4666 
L 4897 4666 
L 4897 0 
L 4281 0 
L 4281 4097 
L 3078 897 
L 2444 897 
L 1241 4097 
L 1241 0 
L 628 0 
L 628 4666 
z
" transform="scale(0.015625)"/>
      <path id="DejaVuSans-53" d="M 3425 4513 
L 3425 3897 
Q 3066 4069 2747 4153 
Q 2428 4238 2131 4238 
Q 1616 4238 1336 4038 
Q 1056 3838 1056 3469 
Q 1056 3159 1242 3001 
Q 1428 2844 1947 2747 
L 2328 2669 
Q 3034 2534 3370 2195 
Q 3706 1856 3706 1288 
Q 3706 609 3251 259 
Q 2797 -91 1919 -91 
Q 1588 -91 1214 -16 
Q 841 59 441 206 
L 441 856 
Q 825 641 1194 531 
Q 1563 422 1919 422 
Q 2459 422 2753 634 
Q 3047 847 3047 1241 
Q 3047 1584 2836 1778 
Q 2625 1972 2144 2069 
L 1759 2144 
Q 1053 2284 737 2584 
Q 422 2884 422 3419 
Q 422 4038 858 4394 
Q 1294 4750 2059 4750 
Q 2388 4750 2728 4690 
Q 3069 4631 3425 4513 
z
" transform="scale(0.015625)"/>
      <path id="DejaVuSans-43" d="M 4122 4306 
L 4122 3641 
Q 3803 3938 3442 4084 
Q 3081 4231 2675 4231 
Q 1875 4231 1450 3742 
Q 1025 3253 1025 2328 
Q 1025 1406 1450 917 
Q 1875 428 2675 428 
Q 3081 428 3442 575 
Q 3803 722 4122 1019 
L 4122 359 
Q 3791 134 3420 21 
Q 3050 -91 2638 -91 
Q 1578 -91 968 557 
Q 359 1206 359 2328 
Q 359 3453 968 4101 
Q 1578 4750 2638 4750 
Q 3056 4750 3426 4639 
Q 3797 4528 4122 4306 
z
" transform="scale(0.015625)"/>
      <path id="DejaVuSans-68" d="M 3513 2113 
L 3513 0 
L 2938 0 
L 2938 2094 
Q 2938 2591 2744 2837 
Q 2550 3084 2163 3084 
Q 1697 3084 1428 2787 
Q 1159 2491 1159 1978 
L 1159 0 
L 581 0 
L 581 4863 
L 1159 4863 
L 1159 2956 
Q 1366 3272 1645 3428 
Q 1925 3584 2291 3584 
Q 2894 3584 3203 3211 
Q 3513 2838 3513 2113 
z
" transform="scale(0.015625)"/>
      <path id="DejaVuSans-67" d="M 2906 1791 
Q 2906 2416 2648 2759 
Q 2391 3103 1925 3103 
Q 1463 3103 1205 2759 
Q 947 2416 947 1791 
Q 947 1169 1205 825 
Q 1463 481 1925 481 
Q 2391 481 2648 825 
Q 2906 1169 2906 1791 
z
M 3481 434 
Q 3481 -459 3084 -895 
Q 2688 -1331 1869 -1331 
Q 1566 -1331 1297 -1286 
Q 1028 -1241 775 -1147 
L 775 -588 
Q 1028 -725 1275 -790 
Q 1522 -856 1778 -856 
Q 2344 -856 2625 -561 
Q 2906 -266 2906 331 
L 2906 616 
Q 2728 306 2450 153 
Q 2172 0 1784 0 
Q 1141 0 747 490 
Q 353 981 353 1791 
Q 353 2603 747 3093 
Q 1141 3584 1784 3584 
Q 2172 3584 2450 3431 
Q 2728 3278 2906 2969 
L 2906 3500 
L 3481 3500 
L 3481 434 
z
" transform="scale(0.015625)"/>
      <path id="DejaVuSans-70" d="M 1159 525 
L 1159 -1331 
L 581 -1331 
L 581 3500 
L 1159 3500 
L 1159 2969 
Q 1341 3281 1617 3432 
Q 1894 3584 2278 3584 
Q 2916 3584 3314 3078 
Q 3713 2572 3713 1747 
Q 3713 922 3314 415 
Q 2916 -91 2278 -91 
Q 1894 -91 1617 61 
Q 1341 213 1159 525 
z
M 3116 1747 
Q 3116 2381 2855 2742 
Q 2594 3103 2138 3103 
Q 1681 3103 1420 2742 
Q 1159 2381 1159 1747 
Q 1159 1113 1420 752 
Q 1681 391 2138 391 
Q 2594 391 2855 752 
Q 3116 1113 3116 1747 
z
" transform="scale(0.015625)"/>
      <path id="DejaVuSans-4a" d="M 628 4666 
L 1259 4666 
L 1259 325 
Q 1259 -519 939 -900 
Q 619 -1281 -91 -1281 
L -331 -1281 
L -331 -750 
L -134 -750 
Q 284 -750 456 -515 
Q 628 -281 628 325 
L 628 4666 
z
" transform="scale(0.015625)"/>
      <path id="DejaVuSans-2f" d="M 1625 4666 
L 2156 4666 
L 531 -594 
L 0 -594 
L 1625 4666 
z
" transform="scale(0.015625)"/>
     </defs>
     <use xlink:href="#DejaVuSans-55"/>
     <use xlink:href="#DejaVuSans-56" transform="translate(73.193359 0)"/>
     <use xlink:href="#DejaVuSans-20" transform="translate(141.601562 0)"/>
     <use xlink:href="#DejaVuSans-26" transform="translate(173.388672 0)"/>
     <use xlink:href="#DejaVuSans-20" transform="translate(251.367188 0)"/>
     <use xlink:href="#DejaVuSans-4d" transform="translate(283.154297 0)"/>
     <use xlink:href="#DejaVuSans-53" transform="translate(369.433594 0)"/>
     <use xlink:href="#DejaVuSans-20" transform="translate(432.910156 0)"/>
     <use xlink:href="#DejaVuSans-43" transform="translate(464.697266 0)"/>
     <use xlink:href="#DejaVuSans-68" transform="translate(534.521484 0)"/>
     <use xlink:href="#DejaVuSans-72" transform="translate(597.900391 0)"/>
     <use xlink:href="#DejaVuSans-6f" transform="translate(636.763672 0)"/>
     <use xlink:href="#DejaVuSans-6d" transform="translate(697.945312 0)"/>
     <use xlink:href="#DejaVuSans-61" transform="translate(795.357422 0)"/>
     <use xlink:href="#DejaVuSans-74" transform="translate(856.636719 0)"/>
     <use xlink:href="#DejaVuSans-6f" transform="translate(895.845703 0)"/>
     <use xlink:href="#DejaVuSans-67" transform="translate(957.027344 0)"/>
     <use xlink:href="#DejaVuSans-72" transform="translate(1020.503906 0)"/>
     <use xlink:href="#DejaVuSans-61" transform="translate(1061.617188 0)"/>
     <use xlink:href="#DejaVuSans-6d" transform="translate(1122.896484 0)"/>
     <use xlink:href="#DejaVuSans-73" transform="translate(1220.308594 0)"/>
     <use xlink:href="#DejaVuSans-3a" transform="translate(1272.408203 0)"/>
     <use xlink:href="#DejaVuSans-20" transform="translate(1306.099609 0)"/>
     <use xlink:href="#DejaVuSans-49" transform="translate(1337.886719 0)"/>
     <use xlink:href="#DejaVuSans-72" transform="translate(1367.378906 0)"/>
     <use xlink:href="#DejaVuSans-43" transform="translate(1408.492188 0)"/>
     <use xlink:href="#DejaVuSans-70" transform="translate(1478.316406 0)"/>
     <use xlink:href="#DejaVuSans-32" transform="translate(1541.792969 0)"/>
     <use xlink:href="#DejaVuSans-4a" transform="translate(1605.416016 0)"/>
     <use xlink:href="#DejaVuSans-31" transform="translate(1634.908203 0)"/>
     <use xlink:href="#DejaVuSans-31" transform="translate(1698.53125 0)"/>
     <use xlink:href="#DejaVuSans-2c" transform="translate(1762.154297 0)"/>
     <use xlink:href="#DejaVuSans-20" transform="translate(1793.941406 0)"/>
     <use xlink:href="#DejaVuSans-74" transform="translate(1825.728516 0)"/>
     <use xlink:href="#DejaVuSans-61" transform="translate(1864.9375 0)"/>
     <use xlink:href="#DejaVuSans-72" transform="translate(1926.216797 0)"/>
     <use xlink:href="#DejaVuSans-67" transform="translate(1965.580078 0)"/>
     <use xlink:href="#DejaVuSans-65" transform="translate(2029.056641 0)"/>
     <use xlink:href="#DejaVuSans-74" transform="translate(2090.580078 0)"/>
     <use xlink:href="#DejaVuSans-20" transform="translate(2129.789062 0)"/>
     <use xlink:href="#DejaVuSans-6d" transform="translate(2161.576172 0)"/>
     <use xlink:href="#DejaVuSans-2f" transform="translate(2258.988281 0)"/>
     <use xlink:href="#DejaVuSans-7a" transform="translate(2292.679688 0)"/>
     <use xlink:href="#DejaVuSans-3d" transform="translate(2345.169922 0)"/>
     <use xlink:href="#DejaVuSans-38" transform="translate(2428.958984 0)"/>
     <use xlink:href="#DejaVuSans-31" transform="translate(2492.582031 0)"/>
     <use xlink:href="#DejaVuSans-39" transform="translate(2556.205078 0)"/>
     <use xlink:href="#DejaVuSans-2e" transform="translate(2619.828125 0)"/>
     <use xlink:href="#DejaVuSans-32" transform="translate(2651.615234 0)"/>
     <use xlink:href="#DejaVuSans-32" transform="translate(2715.238281 0)"/>
     <use xlink:href="#DejaVuSans-39" transform="translate(2778.861328 0)"/>
     <use xlink:href="#DejaVuSans-35" transform="translate(2842.484375 0)"/>
     <use xlink:href="#DejaVuSans-39" transform="translate(2906.107422 0)"/>
     <use xlink:href="#DejaVuSans-33" transform="translate(2969.730469 0)"/>
    </g>
   </g>
   <g id="legend_1">
    <g id="patch_8">
     <path d="M 685.971875 64.23625 
L 846.2 64.23625 
Q 848.2 64.23625 848.2 62.23625 
L 848.2 33.88 
Q 848.2 31.88 846.2 31.88 
L 685.971875 31.88 
Q 683.971875 31.88 683.971875 33.88 
L 683.971875 62.23625 
Q 683.971875 64.23625 685.971875 64.23625 
z
" style="fill: #ffffff; opacity: 0.8; stroke: #cccccc; stroke-linejoin: miter"/>
    </g>
    <g id="line2d_15">
     <path d="M 687.971875 39.978437 
L 697.971875 39.978437 
L 707.971875 39.978437 
" style="fill: none; stroke: #0000ff; stroke-width: 1.5; stroke-linecap: square"/>
    </g>
    <g id="text_17">
     <!-- UV Intensity (normalized) -->
     <g transform="translate(715.971875 43.478437) scale(0.1 -0.1)">
      <use xlink:href="#DejaVuSans-55"/>
      <use xlink:href="#DejaVuSans-56" transform="translate(73.193359 0)"/>
      <use xlink:href="#DejaVuSans-20" transform="translate(141.601562 0)"/>
      <use xlink:href="#DejaVuSans-49" transform="translate(173.388672 0)"/>
      <use xlink:href="#DejaVuSans-6e" transform="translate(202.880859 0)"/>
      <use xlink:href="#DejaVuSans-74" transform="translate(266.259766 0)"/>
      <use xlink:href="#DejaVuSans-65" transform="translate(305.46875 0)"/>
      <use xlink:href="#DejaVuSans-6e" transform="translate(366.992188 0)"/>
      <use xlink:href="#DejaVuSans-73" transform="translate(430.371094 0)"/>
      <use xlink:href="#DejaVuSans-69" transform="translate(482.470703 0)"/>
      <use xlink:href="#DejaVuSans-74" transform="translate(510.253906 0)"/>
      <use xlink:href="#DejaVuSans-79" transform="translate(549.462891 0)"/>
      <use xlink:href="#DejaVuSans-20" transform="translate(608.642578 0)"/>
      <use xlink:href="#DejaVuSans-28" transform="translate(640.429688 0)"/>
      <use xlink:href="#DejaVuSans-6e" transform="translate(679.443359 0)"/>
      <use xlink:href="#DejaVuSans-6f" transform="translate(742.822266 0)"/>
      <use xlink:href="#DejaVuSans-72" transform="translate(804.003906 0)"/>
      <use xlink:href="#DejaVuSans-6d" transform="translate(843.367188 0)"/>
      <use xlink:href="#DejaVuSans-61" transform="translate(940.779297 0)"/>
      <use xlink:href="#DejaVuSans-6c" transform="translate(1002.058594 0)"/>
      <use xlink:href="#DejaVuSans-69" transform="translate(1029.841797 0)"/>
      <use xlink:href="#DejaVuSans-7a" transform="translate(1057.625 0)"/>
      <use xlink:href="#DejaVuSans-65" transform="translate(1110.115234 0)"/>
      <use xlink:href="#DejaVuSans-64" transform="translate(1171.638672 0)"/>
      <use xlink:href="#DejaVuSans-29" transform="translate(1235.115234 0)"/>
     </g>
    </g>
    <g id="line2d_16">
     <path d="M 687.971875 54.656562 
L 697.971875 54.656562 
L 707.971875 54.656562 
" style="fill: none; stroke: #008000; stroke-width: 1.5; stroke-linecap: square"/>
    </g>
    <g id="text_18">
     <!-- MS Intensity (normalized) -->
     <g transform="translate(715.971875 58.156562) scale(0.1 -0.1)">
      <use xlink:href="#DejaVuSans-4d"/>
      <use xlink:href="#DejaVuSans-53" transform="translate(86.279297 0)"/>
      <use xlink:href="#DejaVuSans-20" transform="translate(149.755859 0)"/>
      <use xlink:href="#DejaVuSans-49" transform="translate(181.542969 0)"/>
      <use xlink:href="#DejaVuSans-6e" transform="translate(211.035156 0)"/>
      <use xlink:href="#DejaVuSans-74" transform="translate(274.414062 0)"/>
      <use xlink:href="#DejaVuSans-65" transform="translate(313.623047 0)"/>
      <use xlink:href="#DejaVuSans-6e" transform="translate(375.146484 0)"/>
      <use xlink:href="#DejaVuSans-73" transform="translate(438.525391 0)"/>
      <use xlink:href="#DejaVuSans-69" transform="translate(490.625 0)"/>
      <use xlink:href="#DejaVuSans-74" transform="translate(518.408203 0)"/>
      <use xlink:href="#DejaVuSans-79" transform="translate(557.617188 0)"/>
      <use xlink:href="#DejaVuSans-20" transform="translate(616.796875 0)"/>
      <use xlink:href="#DejaVuSans-28" transform="translate(648.583984 0)"/>
      <use xlink:href="#DejaVuSans-6e" transform="translate(687.597656 0)"/>
      <use xlink:href="#DejaVuSans-6f" transform="translate(750.976562 0)"/>
      <use xlink:href="#DejaVuSans-72" transform="translate(812.158203 0)"/>
      <use xlink:href="#DejaVuSans-6d" transform="translate(851.521484 0)"/>
      <use xlink:href="#DejaVuSans-61" transform="translate(948.933594 0)"/>
      <use xlink:href="#DejaVuSans-6c" transform="translate(1010.212891 0)"/>
      <use xlink:href="#DejaVuSans-69" transform="translate(1037.996094 0)"/>
      <use xlink:href="#DejaVuSans-7a" transform="translate(1065.779297 0)"/>
      <use xlink:href="#DejaVuSans-65" transform="translate(1118.269531 0)"/>
      <use xlink:href="#DejaVuSans-64" transform="translate(1179.792969 0)"/>
      <use xlink:href="#DejaVuSans-29" transform="translate(1243.269531 0)"/>
     </g>
    </g>
   </g>
  </g>
 </g>
 <defs>
  <clipPath id="p43a37ed209">
   <rect x="47.72" y="26.88" width="805.48" height="507.16"/>
  </clipPath>
 </defs>
</svg>
