<?xml version="1.0" encoding="utf-8" standalone="no"?>
<!DOCTYPE svg PUBLIC "-//W3C//DTD SVG 1.1//EN"
  "http://www.w3.org/Graphics/SVG/1.1/DTD/svg11.dtd">
<svg xmlns:xlink="http://www.w3.org/1999/xlink" width="864pt" height="576pt" viewBox="0 0 864 576" xmlns="http://www.w3.org/2000/svg" version="1.1">
 <metadata>
  <rdf:RDF xmlns:dc="http://purl.org/dc/elements/1.1/" xmlns:cc="http://creativecommons.org/ns#" xmlns:rdf="http://www.w3.org/1999/02/22-rdf-syntax-ns#">
   <cc:Work>
    <dc:type rdf:resource="http://purl.org/dc/dcmitype/StillImage"/>
    <dc:date>2025-02-25T11:14:54.436321</dc:date>
    <dc:format>image/svg+xml</dc:format>
    <dc:creator>
     <cc:Agent>
      <dc:title>Matplotlib v3.10.0, https://matplotlib.org/</dc:title>
     </cc:Agent>
    </dc:creator>
   </cc:Work>
  </rdf:RDF>
 </metadata>
 <defs>
  <style type="text/css">*{stroke-linejoin: round; stroke-linecap: butt}</style>
 </defs>
 <g id="figure_1">
  <g id="patch_1">
   <path d="M 0 576 
L 864 576 
L 864 0 
L 0 0 
z
" style="fill: #ffffff"/>
  </g>
  <g id="axes_1">
   <g id="patch_2">
    <path d="M 47.72 534.04 
L 853.2 534.04 
L 853.2 26.88 
L 47.72 26.88 
z
" style="fill: #ffffff"/>
   </g>
   <g id="matplotlib.axis_1">
    <g id="xtick_1">
     <g id="line2d_1">
      <defs>
       <path id="m049fbe6663" d="M 0 0 
L 0 3.5 
" style="stroke: #000000; stroke-width: 0.8"/>
      </defs>
      <g>
       <use xlink:href="#m049fbe6663" x="83.098041" y="534.04" style="stroke: #000000; stroke-width: 0.8"/>
      </g>
     </g>
     <g id="text_1">
      <!-- 0 -->
      <g transform="translate(79.916791 548.638438) scale(0.1 -0.1)">
       <defs>
        <path id="DejaVuSans-30" d="M 2034 4250 
Q 1547 4250 1301 3770 
Q 1056 3291 1056 2328 
Q 1056 1369 1301 889 
Q 1547 409 2034 409 
Q 2525 409 2770 889 
Q 3016 1369 3016 2328 
Q 3016 3291 2770 3770 
Q 2525 4250 2034 4250 
z
M 2034 4750 
Q 2819 4750 3233 4129 
Q 3647 3509 3647 2328 
Q 3647 1150 3233 529 
Q 2819 -91 2034 -91 
Q 1250 -91 836 529 
Q 422 1150 422 2328 
Q 422 3509 836 4129 
Q 1250 4750 2034 4750 
z
" transform="scale(0.015625)"/>
       </defs>
       <use xlink:href="#DejaVuSans-30"/>
      </g>
     </g>
    </g>
    <g id="xtick_2">
     <g id="line2d_2">
      <g>
       <use xlink:href="#m049fbe6663" x="229.793442" y="534.04" style="stroke: #000000; stroke-width: 0.8"/>
      </g>
     </g>
     <g id="text_2">
      <!-- 1 -->
      <g transform="translate(226.612192 548.638438) scale(0.1 -0.1)">
       <defs>
        <path id="DejaVuSans-31" d="M 794 531 
L 1825 531 
L 1825 4091 
L 703 3866 
L 703 4441 
L 1819 4666 
L 2450 4666 
L 2450 531 
L 3481 531 
L 3481 0 
L 794 0 
L 794 531 
z
" transform="scale(0.015625)"/>
       </defs>
       <use xlink:href="#DejaVuSans-31"/>
      </g>
     </g>
    </g>
    <g id="xtick_3">
     <g id="line2d_3">
      <g>
       <use xlink:href="#m049fbe6663" x="376.488844" y="534.04" style="stroke: #000000; stroke-width: 0.8"/>
      </g>
     </g>
     <g id="text_3">
      <!-- 2 -->
      <g transform="translate(373.307594 548.638438) scale(0.1 -0.1)">
       <defs>
        <path id="DejaVuSans-32" d="M 1228 531 
L 3431 531 
L 3431 0 
L 469 0 
L 469 531 
Q 828 903 1448 1529 
Q 2069 2156 2228 2338 
Q 2531 2678 2651 2914 
Q 2772 3150 2772 3378 
Q 2772 3750 2511 3984 
Q 2250 4219 1831 4219 
Q 1534 4219 1204 4116 
Q 875 4013 500 3803 
L 500 4441 
Q 881 4594 1212 4672 
Q 1544 4750 1819 4750 
Q 2544 4750 2975 4387 
Q 3406 4025 3406 3419 
Q 3406 3131 3298 2873 
Q 3191 2616 2906 2266 
Q 2828 2175 2409 1742 
Q 1991 1309 1228 531 
z
" transform="scale(0.015625)"/>
       </defs>
       <use xlink:href="#DejaVuSans-32"/>
      </g>
     </g>
    </g>
    <g id="xtick_4">
     <g id="line2d_4">
      <g>
       <use xlink:href="#m049fbe6663" x="523.184245" y="534.04" style="stroke: #000000; stroke-width: 0.8"/>
      </g>
     </g>
     <g id="text_4">
      <!-- 3 -->
      <g transform="translate(520.002995 548.638438) scale(0.1 -0.1)">
       <defs>
        <path id="DejaVuSans-33" d="M 2597 2516 
Q 3050 2419 3304 2112 
Q 3559 1806 3559 1356 
Q 3559 666 3084 287 
Q 2609 -91 1734 -91 
Q 1441 -91 1130 -33 
Q 819 25 488 141 
L 488 750 
Q 750 597 1062 519 
Q 1375 441 1716 441 
Q 2309 441 2620 675 
Q 2931 909 2931 1356 
Q 2931 1769 2642 2001 
Q 2353 2234 1838 2234 
L 1294 2234 
L 1294 2753 
L 1863 2753 
Q 2328 2753 2575 2939 
Q 2822 3125 2822 3475 
Q 2822 3834 2567 4026 
Q 2313 4219 1838 4219 
Q 1578 4219 1281 4162 
Q 984 4106 628 3988 
L 628 4550 
Q 988 4650 1302 4700 
Q 1616 4750 1894 4750 
Q 2613 4750 3031 4423 
Q 3450 4097 3450 3541 
Q 3450 3153 3228 2886 
Q 3006 2619 2597 2516 
z
" transform="scale(0.015625)"/>
       </defs>
       <use xlink:href="#DejaVuSans-33"/>
      </g>
     </g>
    </g>
    <g id="xtick_5">
     <g id="line2d_5">
      <g>
       <use xlink:href="#m049fbe6663" x="669.879647" y="534.04" style="stroke: #000000; stroke-width: 0.8"/>
      </g>
     </g>
     <g id="text_5">
      <!-- 4 -->
      <g transform="translate(666.698397 548.638438) scale(0.1 -0.1)">
       <defs>
        <path id="DejaVuSans-34" d="M 2419 4116 
L 825 1625 
L 2419 1625 
L 2419 4116 
z
M 2253 4666 
L 3047 4666 
L 3047 1625 
L 3713 1625 
L 3713 1100 
L 3047 1100 
L 3047 0 
L 2419 0 
L 2419 1100 
L 313 1100 
L 313 1709 
L 2253 4666 
z
" transform="scale(0.015625)"/>
       </defs>
       <use xlink:href="#DejaVuSans-34"/>
      </g>
     </g>
    </g>
    <g id="xtick_6">
     <g id="line2d_6">
      <g>
       <use xlink:href="#m049fbe6663" x="816.575048" y="534.04" style="stroke: #000000; stroke-width: 0.8"/>
      </g>
     </g>
     <g id="text_6">
      <!-- 5 -->
      <g transform="translate(813.393798 548.638438) scale(0.1 -0.1)">
       <defs>
        <path id="DejaVuSans-35" d="M 691 4666 
L 3169 4666 
L 3169 4134 
L 1269 4134 
L 1269 2991 
Q 1406 3038 1543 3061 
Q 1681 3084 1819 3084 
Q 2600 3084 3056 2656 
Q 3513 2228 3513 1497 
Q 3513 744 3044 326 
Q 2575 -91 1722 -91 
Q 1428 -91 1123 -41 
Q 819 9 494 109 
L 494 744 
Q 775 591 1075 516 
Q 1375 441 1709 441 
Q 2250 441 2565 725 
Q 2881 1009 2881 1497 
Q 2881 1984 2565 2268 
Q 2250 2553 1709 2553 
Q 1456 2553 1204 2497 
Q 953 2441 691 2322 
L 691 4666 
z
" transform="scale(0.015625)"/>
       </defs>
       <use xlink:href="#DejaVuSans-35"/>
      </g>
     </g>
    </g>
    <g id="text_7">
     <!-- Retention Time (min) -->
     <g transform="translate(397.61 562.316562) scale(0.1 -0.1)">
      <defs>
       <path id="DejaVuSans-52" d="M 2841 2188 
Q 3044 2119 3236 1894 
Q 3428 1669 3622 1275 
L 4263 0 
L 3584 0 
L 2988 1197 
Q 2756 1666 2539 1819 
Q 2322 1972 1947 1972 
L 1259 1972 
L 1259 0 
L 628 0 
L 628 4666 
L 2053 4666 
Q 2853 4666 3247 4331 
Q 3641 3997 3641 3322 
Q 3641 2881 3436 2590 
Q 3231 2300 2841 2188 
z
M 1259 4147 
L 1259 2491 
L 2053 2491 
Q 2509 2491 2742 2702 
Q 2975 2913 2975 3322 
Q 2975 3731 2742 3939 
Q 2509 4147 2053 4147 
L 1259 4147 
z
" transform="scale(0.015625)"/>
       <path id="DejaVuSans-65" d="M 3597 1894 
L 3597 1613 
L 953 1613 
Q 991 1019 1311 708 
Q 1631 397 2203 397 
Q 2534 397 2845 478 
Q 3156 559 3463 722 
L 3463 178 
Q 3153 47 2828 -22 
Q 2503 -91 2169 -91 
Q 1331 -91 842 396 
Q 353 884 353 1716 
Q 353 2575 817 3079 
Q 1281 3584 2069 3584 
Q 2775 3584 3186 3129 
Q 3597 2675 3597 1894 
z
M 3022 2063 
Q 3016 2534 2758 2815 
Q 2500 3097 2075 3097 
Q 1594 3097 1305 2825 
Q 1016 2553 972 2059 
L 3022 2063 
z
" transform="scale(0.015625)"/>
       <path id="DejaVuSans-74" d="M 1172 4494 
L 1172 3500 
L 2356 3500 
L 2356 3053 
L 1172 3053 
L 1172 1153 
Q 1172 725 1289 603 
Q 1406 481 1766 481 
L 2356 481 
L 2356 0 
L 1766 0 
Q 1100 0 847 248 
Q 594 497 594 1153 
L 594 3053 
L 172 3053 
L 172 3500 
L 594 3500 
L 594 4494 
L 1172 4494 
z
" transform="scale(0.015625)"/>
       <path id="DejaVuSans-6e" d="M 3513 2113 
L 3513 0 
L 2938 0 
L 2938 2094 
Q 2938 2591 2744 2837 
Q 2550 3084 2163 3084 
Q 1697 3084 1428 2787 
Q 1159 2491 1159 1978 
L 1159 0 
L 581 0 
L 581 3500 
L 1159 3500 
L 1159 2956 
Q 1366 3272 1645 3428 
Q 1925 3584 2291 3584 
Q 2894 3584 3203 3211 
Q 3513 2838 3513 2113 
z
" transform="scale(0.015625)"/>
       <path id="DejaVuSans-69" d="M 603 3500 
L 1178 3500 
L 1178 0 
L 603 0 
L 603 3500 
z
M 603 4863 
L 1178 4863 
L 1178 4134 
L 603 4134 
L 603 4863 
z
" transform="scale(0.015625)"/>
       <path id="DejaVuSans-6f" d="M 1959 3097 
Q 1497 3097 1228 2736 
Q 959 2375 959 1747 
Q 959 1119 1226 758 
Q 1494 397 1959 397 
Q 2419 397 2687 759 
Q 2956 1122 2956 1747 
Q 2956 2369 2687 2733 
Q 2419 3097 1959 3097 
z
M 1959 3584 
Q 2709 3584 3137 3096 
Q 3566 2609 3566 1747 
Q 3566 888 3137 398 
Q 2709 -91 1959 -91 
Q 1206 -91 779 398 
Q 353 888 353 1747 
Q 353 2609 779 3096 
Q 1206 3584 1959 3584 
z
" transform="scale(0.015625)"/>
       <path id="DejaVuSans-20" transform="scale(0.015625)"/>
       <path id="DejaVuSans-54" d="M -19 4666 
L 3928 4666 
L 3928 4134 
L 2272 4134 
L 2272 0 
L 1638 0 
L 1638 4134 
L -19 4134 
L -19 4666 
z
" transform="scale(0.015625)"/>
       <path id="DejaVuSans-6d" d="M 3328 2828 
Q 3544 3216 3844 3400 
Q 4144 3584 4550 3584 
Q 5097 3584 5394 3201 
Q 5691 2819 5691 2113 
L 5691 0 
L 5113 0 
L 5113 2094 
Q 5113 2597 4934 2840 
Q 4756 3084 4391 3084 
Q 3944 3084 3684 2787 
Q 3425 2491 3425 1978 
L 3425 0 
L 2847 0 
L 2847 2094 
Q 2847 2600 2669 2842 
Q 2491 3084 2119 3084 
Q 1678 3084 1418 2786 
Q 1159 2488 1159 1978 
L 1159 0 
L 581 0 
L 581 3500 
L 1159 3500 
L 1159 2956 
Q 1356 3278 1631 3431 
Q 1906 3584 2284 3584 
Q 2666 3584 2933 3390 
Q 3200 3197 3328 2828 
z
" transform="scale(0.015625)"/>
       <path id="DejaVuSans-28" d="M 1984 4856 
Q 1566 4138 1362 3434 
Q 1159 2731 1159 2009 
Q 1159 1288 1364 580 
Q 1569 -128 1984 -844 
L 1484 -844 
Q 1016 -109 783 600 
Q 550 1309 550 2009 
Q 550 2706 781 3412 
Q 1013 4119 1484 4856 
L 1984 4856 
z
" transform="scale(0.015625)"/>
       <path id="DejaVuSans-29" d="M 513 4856 
L 1013 4856 
Q 1481 4119 1714 3412 
Q 1947 2706 1947 2009 
Q 1947 1309 1714 600 
Q 1481 -109 1013 -844 
L 513 -844 
Q 928 -128 1133 580 
Q 1338 1288 1338 2009 
Q 1338 2731 1133 3434 
Q 928 4138 513 4856 
z
" transform="scale(0.015625)"/>
      </defs>
      <use xlink:href="#DejaVuSans-52"/>
      <use xlink:href="#DejaVuSans-65" transform="translate(64.982422 0)"/>
      <use xlink:href="#DejaVuSans-74" transform="translate(126.505859 0)"/>
      <use xlink:href="#DejaVuSans-65" transform="translate(165.714844 0)"/>
      <use xlink:href="#DejaVuSans-6e" transform="translate(227.238281 0)"/>
      <use xlink:href="#DejaVuSans-74" transform="translate(290.617188 0)"/>
      <use xlink:href="#DejaVuSans-69" transform="translate(329.826172 0)"/>
      <use xlink:href="#DejaVuSans-6f" transform="translate(357.609375 0)"/>
      <use xlink:href="#DejaVuSans-6e" transform="translate(418.791016 0)"/>
      <use xlink:href="#DejaVuSans-20" transform="translate(482.169922 0)"/>
      <use xlink:href="#DejaVuSans-54" transform="translate(513.957031 0)"/>
      <use xlink:href="#DejaVuSans-69" transform="translate(571.916016 0)"/>
      <use xlink:href="#DejaVuSans-6d" transform="translate(599.699219 0)"/>
      <use xlink:href="#DejaVuSans-65" transform="translate(697.111328 0)"/>
      <use xlink:href="#DejaVuSans-20" transform="translate(758.634766 0)"/>
      <use xlink:href="#DejaVuSans-28" transform="translate(790.421875 0)"/>
      <use xlink:href="#DejaVuSans-6d" transform="translate(829.435547 0)"/>
      <use xlink:href="#DejaVuSans-69" transform="translate(926.847656 0)"/>
      <use xlink:href="#DejaVuSans-6e" transform="translate(954.630859 0)"/>
      <use xlink:href="#DejaVuSans-29" transform="translate(1018.009766 0)"/>
     </g>
    </g>
   </g>
   <g id="matplotlib.axis_2">
    <g id="ytick_1">
     <g id="line2d_7">
      <defs>
       <path id="mdae2e84f51" d="M 0 0 
L -3.5 0 
" style="stroke: #000000; stroke-width: 0.8"/>
      </defs>
      <g>
       <use xlink:href="#mdae2e84f51" x="47.72" y="510.769681" style="stroke: #000000; stroke-width: 0.8"/>
      </g>
     </g>
     <g id="text_8">
      <!-- 0.0 -->
      <g style="fill: #0000ff" transform="translate(24.816875 514.5689) scale(0.1 -0.1)">
       <defs>
        <path id="DejaVuSans-2e" d="M 684 794 
L 1344 794 
L 1344 0 
L 684 0 
L 684 794 
z
" transform="scale(0.015625)"/>
       </defs>
       <use xlink:href="#DejaVuSans-30"/>
       <use xlink:href="#DejaVuSans-2e" transform="translate(63.623047 0)"/>
       <use xlink:href="#DejaVuSans-30" transform="translate(95.410156 0)"/>
      </g>
     </g>
    </g>
    <g id="ytick_2">
     <g id="line2d_8">
      <g>
       <use xlink:href="#mdae2e84f51" x="47.72" y="418.60229" style="stroke: #000000; stroke-width: 0.8"/>
      </g>
     </g>
     <g id="text_9">
      <!-- 0.5 -->
      <g style="fill: #0000ff" transform="translate(24.816875 422.401509) scale(0.1 -0.1)">
       <use xlink:href="#DejaVuSans-30"/>
       <use xlink:href="#DejaVuSans-2e" transform="translate(63.623047 0)"/>
       <use xlink:href="#DejaVuSans-35" transform="translate(95.410156 0)"/>
      </g>
     </g>
    </g>
    <g id="ytick_3">
     <g id="line2d_9">
      <g>
       <use xlink:href="#mdae2e84f51" x="47.72" y="326.4349" style="stroke: #000000; stroke-width: 0.8"/>
      </g>
     </g>
     <g id="text_10">
      <!-- 1.0 -->
      <g style="fill: #0000ff" transform="translate(24.816875 330.234118) scale(0.1 -0.1)">
       <use xlink:href="#DejaVuSans-31"/>
       <use xlink:href="#DejaVuSans-2e" transform="translate(63.623047 0)"/>
       <use xlink:href="#DejaVuSans-30" transform="translate(95.410156 0)"/>
      </g>
     </g>
    </g>
    <g id="ytick_4">
     <g id="line2d_10">
      <g>
       <use xlink:href="#mdae2e84f51" x="47.72" y="234.267509" style="stroke: #000000; stroke-width: 0.8"/>
      </g>
     </g>
     <g id="text_11">
      <!-- 1.5 -->
      <g style="fill: #0000ff" transform="translate(24.816875 238.066728) scale(0.1 -0.1)">
       <use xlink:href="#DejaVuSans-31"/>
       <use xlink:href="#DejaVuSans-2e" transform="translate(63.623047 0)"/>
       <use xlink:href="#DejaVuSans-35" transform="translate(95.410156 0)"/>
      </g>
     </g>
    </g>
    <g id="ytick_5">
     <g id="line2d_11">
      <g>
       <use xlink:href="#mdae2e84f51" x="47.72" y="142.100118" style="stroke: #000000; stroke-width: 0.8"/>
      </g>
     </g>
     <g id="text_12">
      <!-- 2.0 -->
      <g style="fill: #0000ff" transform="translate(24.816875 145.899337) scale(0.1 -0.1)">
       <use xlink:href="#DejaVuSans-32"/>
       <use xlink:href="#DejaVuSans-2e" transform="translate(63.623047 0)"/>
       <use xlink:href="#DejaVuSans-30" transform="translate(95.410156 0)"/>
      </g>
     </g>
    </g>
    <g id="ytick_6">
     <g id="line2d_12">
      <g>
       <use xlink:href="#mdae2e84f51" x="47.72" y="49.932727" style="stroke: #000000; stroke-width: 0.8"/>
      </g>
     </g>
     <g id="text_13">
      <!-- 2.5 -->
      <g style="fill: #0000ff" transform="translate(24.816875 53.731946) scale(0.1 -0.1)">
       <use xlink:href="#DejaVuSans-32"/>
       <use xlink:href="#DejaVuSans-2e" transform="translate(63.623047 0)"/>
       <use xlink:href="#DejaVuSans-35" transform="translate(95.410156 0)"/>
      </g>
     </g>
    </g>
    <g id="text_14">
     <!-- Normalized Intensity -->
     <g style="fill: #0000ff" transform="translate(18.737187 332.167031) rotate(-90) scale(0.1 -0.1)">
      <defs>
       <path id="DejaVuSans-4e" d="M 628 4666 
L 1478 4666 
L 3547 763 
L 3547 4666 
L 4159 4666 
L 4159 0 
L 3309 0 
L 1241 3903 
L 1241 0 
L 628 0 
L 628 4666 
z
" transform="scale(0.015625)"/>
       <path id="DejaVuSans-72" d="M 2631 2963 
Q 2534 3019 2420 3045 
Q 2306 3072 2169 3072 
Q 1681 3072 1420 2755 
Q 1159 2438 1159 1844 
L 1159 0 
L 581 0 
L 581 3500 
L 1159 3500 
L 1159 2956 
Q 1341 3275 1631 3429 
Q 1922 3584 2338 3584 
Q 2397 3584 2469 3576 
Q 2541 3569 2628 3553 
L 2631 2963 
z
" transform="scale(0.015625)"/>
       <path id="DejaVuSans-61" d="M 2194 1759 
Q 1497 1759 1228 1600 
Q 959 1441 959 1056 
Q 959 750 1161 570 
Q 1363 391 1709 391 
Q 2188 391 2477 730 
Q 2766 1069 2766 1631 
L 2766 1759 
L 2194 1759 
z
M 3341 1997 
L 3341 0 
L 2766 0 
L 2766 531 
Q 2569 213 2275 61 
Q 1981 -91 1556 -91 
Q 1019 -91 701 211 
Q 384 513 384 1019 
Q 384 1609 779 1909 
Q 1175 2209 1959 2209 
L 2766 2209 
L 2766 2266 
Q 2766 2663 2505 2880 
Q 2244 3097 1772 3097 
Q 1472 3097 1187 3025 
Q 903 2953 641 2809 
L 641 3341 
Q 956 3463 1253 3523 
Q 1550 3584 1831 3584 
Q 2591 3584 2966 3190 
Q 3341 2797 3341 1997 
z
" transform="scale(0.015625)"/>
       <path id="DejaVuSans-6c" d="M 603 4863 
L 1178 4863 
L 1178 0 
L 603 0 
L 603 4863 
z
" transform="scale(0.015625)"/>
       <path id="DejaVuSans-7a" d="M 353 3500 
L 3084 3500 
L 3084 2975 
L 922 459 
L 3084 459 
L 3084 0 
L 275 0 
L 275 525 
L 2438 3041 
L 353 3041 
L 353 3500 
z
" transform="scale(0.015625)"/>
       <path id="DejaVuSans-64" d="M 2906 2969 
L 2906 4863 
L 3481 4863 
L 3481 0 
L 2906 0 
L 2906 525 
Q 2725 213 2448 61 
Q 2172 -91 1784 -91 
Q 1150 -91 751 415 
Q 353 922 353 1747 
Q 353 2572 751 3078 
Q 1150 3584 1784 3584 
Q 2172 3584 2448 3432 
Q 2725 3281 2906 2969 
z
M 947 1747 
Q 947 1113 1208 752 
Q 1469 391 1925 391 
Q 2381 391 2643 752 
Q 2906 1113 2906 1747 
Q 2906 2381 2643 2742 
Q 2381 3103 1925 3103 
Q 1469 3103 1208 2742 
Q 947 2381 947 1747 
z
" transform="scale(0.015625)"/>
       <path id="DejaVuSans-49" d="M 628 4666 
L 1259 4666 
L 1259 0 
L 628 0 
L 628 4666 
z
" transform="scale(0.015625)"/>
       <path id="DejaVuSans-73" d="M 2834 3397 
L 2834 2853 
Q 2591 2978 2328 3040 
Q 2066 3103 1784 3103 
Q 1356 3103 1142 2972 
Q 928 2841 928 2578 
Q 928 2378 1081 2264 
Q 1234 2150 1697 2047 
L 1894 2003 
Q 2506 1872 2764 1633 
Q 3022 1394 3022 966 
Q 3022 478 2636 193 
Q 2250 -91 1575 -91 
Q 1294 -91 989 -36 
Q 684 19 347 128 
L 347 722 
Q 666 556 975 473 
Q 1284 391 1588 391 
Q 1994 391 2212 530 
Q 2431 669 2431 922 
Q 2431 1156 2273 1281 
Q 2116 1406 1581 1522 
L 1381 1569 
Q 847 1681 609 1914 
Q 372 2147 372 2553 
Q 372 3047 722 3315 
Q 1072 3584 1716 3584 
Q 2034 3584 2315 3537 
Q 2597 3491 2834 3397 
z
" transform="scale(0.015625)"/>
       <path id="DejaVuSans-79" d="M 2059 -325 
Q 1816 -950 1584 -1140 
Q 1353 -1331 966 -1331 
L 506 -1331 
L 506 -850 
L 844 -850 
Q 1081 -850 1212 -737 
Q 1344 -625 1503 -206 
L 1606 56 
L 191 3500 
L 800 3500 
L 1894 763 
L 2988 3500 
L 3597 3500 
L 2059 -325 
z
" transform="scale(0.015625)"/>
      </defs>
      <use xlink:href="#DejaVuSans-4e"/>
      <use xlink:href="#DejaVuSans-6f" transform="translate(74.804688 0)"/>
      <use xlink:href="#DejaVuSans-72" transform="translate(135.986328 0)"/>
      <use xlink:href="#DejaVuSans-6d" transform="translate(175.349609 0)"/>
      <use xlink:href="#DejaVuSans-61" transform="translate(272.761719 0)"/>
      <use xlink:href="#DejaVuSans-6c" transform="translate(334.041016 0)"/>
      <use xlink:href="#DejaVuSans-69" transform="translate(361.824219 0)"/>
      <use xlink:href="#DejaVuSans-7a" transform="translate(389.607422 0)"/>
      <use xlink:href="#DejaVuSans-65" transform="translate(442.097656 0)"/>
      <use xlink:href="#DejaVuSans-64" transform="translate(503.621094 0)"/>
      <use xlink:href="#DejaVuSans-20" transform="translate(567.097656 0)"/>
      <use xlink:href="#DejaVuSans-49" transform="translate(598.884766 0)"/>
      <use xlink:href="#DejaVuSans-6e" transform="translate(628.376953 0)"/>
      <use xlink:href="#DejaVuSans-74" transform="translate(691.755859 0)"/>
      <use xlink:href="#DejaVuSans-65" transform="translate(730.964844 0)"/>
      <use xlink:href="#DejaVuSans-6e" transform="translate(792.488281 0)"/>
      <use xlink:href="#DejaVuSans-73" transform="translate(855.867188 0)"/>
      <use xlink:href="#DejaVuSans-69" transform="translate(907.966797 0)"/>
      <use xlink:href="#DejaVuSans-74" transform="translate(935.75 0)"/>
      <use xlink:href="#DejaVuSans-79" transform="translate(974.958984 0)"/>
     </g>
    </g>
   </g>
   <g id="line2d_13">
    <path d="M 84.332727 510.769681 
L 163.792736 510.708184 
L 167.460121 510.443665 
L 171.127506 510.11324 
L 173.57243 510.092932 
L 178.462277 510.375505 
L 183.352123 510.629631 
L 187.019508 510.753412 
L 189.464432 510.987273 
L 190.686893 510.94212 
L 195.57674 510.295892 
L 198.021663 510.390041 
L 201.689048 510.590495 
L 204.133972 510.527893 
L 205.356433 510.290811 
L 206.578895 509.655697 
L 207.801357 508.49458 
L 209.023818 507.081442 
L 210.24628 506.011359 
L 211.468742 505.739625 
L 212.691204 506.274207 
L 216.358589 509.199393 
L 217.58105 509.762717 
L 218.803512 510.06048 
L 221.248435 510.185712 
L 224.91582 510.191259 
L 235.917975 510.61231 
L 251.809977 510.628872 
L 261.589671 510.48332 
L 264.034594 510.268881 
L 266.479517 509.771791 
L 267.701979 509.014757 
L 268.924441 507.106886 
L 270.146902 503.695519 
L 271.369364 499.601184 
L 272.591826 496.526505 
L 273.814287 495.780076 
L 275.036749 497.416061 
L 278.704134 506.384695 
L 279.926596 508.139482 
L 281.149058 509.096747 
L 282.371519 509.524424 
L 284.816443 509.769991 
L 292.151213 510.177247 
L 297.041059 510.007533 
L 300.708444 509.699024 
L 309.265676 509.793066 
L 315.377985 510.29461 
L 319.04537 510.315993 
L 327.602601 509.892687 
L 331.269986 509.38682 
L 332.492448 509.350841 
L 334.937371 509.60187 
L 337.382295 509.976076 
L 339.827218 510.118954 
L 344.717065 509.910041 
L 349.606912 509.509572 
L 354.496758 508.839985 
L 355.71922 508.857292 
L 358.164143 509.219001 
L 361.831528 509.832859 
L 365.498913 510.150142 
L 370.38876 510.280546 
L 382.613377 510.236419 
L 386.280762 510.165165 
L 391.170609 509.887325 
L 393.615532 509.395349 
L 396.060455 508.897638 
L 397.282917 508.80124 
L 398.505379 508.841533 
L 403.395225 509.341674 
L 404.617687 509.003082 
L 407.06261 507.776126 
L 408.285072 507.530602 
L 409.507534 507.726289 
L 413.174919 509.077961 
L 415.619842 509.560331 
L 416.842304 509.678097 
L 418.064766 509.558291 
L 419.287227 508.403001 
L 420.509689 503.333217 
L 421.732151 488.188485 
L 422.954612 456.843445 
L 425.399536 363.697832 
L 426.621997 331.979941 
L 427.844459 326.4349 
L 429.066921 345.915425 
L 432.734306 450.058464 
L 433.956767 472.925855 
L 435.179229 487.15202 
L 436.401691 495.069457 
L 437.624152 499.177016 
L 438.846614 501.343142 
L 440.069076 502.672138 
L 441.291537 503.677538 
L 443.736461 505.242721 
L 444.958922 505.805764 
L 446.181384 506.210643 
L 447.403846 506.455335 
L 448.626307 506.489483 
L 449.848769 506.24834 
L 452.293693 505.509106 
L 453.516154 505.590948 
L 454.738616 506.110475 
L 457.183539 507.651313 
L 458.406001 508.261754 
L 459.628463 508.666955 
L 462.073386 509.041228 
L 465.740771 509.194285 
L 469.408156 509.221094 
L 473.075541 509.512845 
L 474.298003 509.462155 
L 475.520464 509.168424 
L 477.965388 508.185217 
L 479.187849 507.990587 
L 480.410311 508.164421 
L 485.300158 509.750702 
L 487.745081 509.94366 
L 495.079851 509.843226 
L 499.969698 509.620458 
L 502.414621 509.401683 
L 503.637083 509.096433 
L 507.304468 507.611471 
L 508.52693 507.574375 
L 509.749391 507.924149 
L 513.416776 509.639691 
L 514.639238 509.991923 
L 517.084161 510.313572 
L 521.974008 510.447866 
L 543.978318 510.61676 
L 614.881096 510.609649 
L 620.993404 510.378337 
L 625.883251 509.975595 
L 628.328174 510.113831 
L 633.218021 510.616307 
L 638.107868 510.711987 
L 671.114333 510.770709 
L 816.587273 510.805071 
L 816.587273 510.805071 
" clip-path="url(#p082972993b)" style="fill: none; stroke: #0000ff; stroke-width: 1.5; stroke-linecap: square"/>
   </g>
   <g id="line2d_14">
    <path d="M 207.101375 234.24226 
L 209.835044 234.096964 
L 209.835044 234.023748 
L 210.176355 234.049602 
L 210.176355 233.919136 
L 210.52549 233.964632 
L 210.52549 233.830342 
L 210.868024 233.913046 
L 210.868024 233.769526 
L 211.210069 233.89983 
L 211.210069 233.723832 
L 211.549669 233.850775 
L 211.549669 233.64694 
L 211.889513 233.778945 
L 211.889513 233.580183 
L 212.23058 233.758467 
L 212.23058 233.537 
L 212.570913 233.739371 
L 212.570913 233.557569 
L 212.911247 233.749889 
L 212.911247 233.579731 
L 213.933469 233.586353 
L 214.273313 233.791236 
L 214.273313 233.649328 
L 214.619026 233.849034 
L 214.619026 233.684134 
L 214.960581 233.85298 
L 214.960581 233.703266 
L 215.301893 233.845977 
L 215.301893 233.697607 
L 215.648338 233.870676 
L 215.648338 233.730119 
L 215.989405 233.738241 
L 216.332428 233.601178 
L 216.674228 233.751934 
L 216.674228 233.62806 
L 217.701585 234.006629 
L 217.701585 233.916775 
L 218.386897 234.012434 
L 218.386897 233.92661 
L 219.075632 234.05745 
L 219.075632 234.001132 
L 219.75801 234.099124 
L 219.75801 234.032181 
L 244.498923 234.219419 
L 272.205528 233.996666 
L 273.251711 233.849205 
L 273.939712 234.022936 
L 273.939712 233.929133 
L 275.983912 233.792893 
L 276.323268 233.775576 
L 277.007602 233.919355 
L 277.69218 233.924989 
L 278.382382 234.023913 
L 278.382382 233.922437 
L 279.074051 234.027071 
L 279.074051 233.943249 
L 279.421719 234.048726 
L 279.421719 233.977257 
L 282.93703 234.009379 
L 283.644591 234.090142 
L 283.644591 234.024766 
L 284.350929 234.099563 
L 284.350929 234.038716 
L 285.059712 234.099479 
L 285.059712 234.056698 
L 285.771185 234.133393 
L 285.771185 234.084129 
L 287.559402 234.109631 
L 287.559402 234.11647 
L 298.698473 234.169582 
L 336.310685 234.243482 
L 365.668836 234.238217 
L 375.474201 234.251192 
L 375.474201 234.249156 
L 393.64047 234.24862 
L 404.84262 234.21329 
L 409.493598 234.163714 
L 421.726038 234.05078 
L 421.726038 233.991671 
L 422.816719 233.93559 
L 422.816719 233.804736 
L 423.17001 233.912687 
L 423.17001 233.777699 
L 423.519879 233.870781 
L 423.519879 233.597935 
L 423.867302 233.644751 
L 423.867302 232.869356 
L 424.211547 232.762787 
L 424.211547 230.826863 
L 424.551147 230.433347 
L 424.551147 226.298693 
L 424.889525 225.956704 
L 424.889525 218.541499 
L 425.224724 218.265016 
L 425.224724 207.537557 
L 425.558211 209.050816 
L 425.558211 193.711484 
L 425.889498 198.4336 
L 425.889498 179.04375 
L 426.220785 186.376698 
L 426.220785 163.271903 
L 426.550361 175.177268 
L 426.550361 147.589283 
L 426.878959 163.599206 
L 426.878959 134.172643 
L 427.207556 154.74184 
L 427.207556 124.502079 
L 427.536154 149.496126 
L 427.536154 119.287327 
L 427.869886 109.810489 
L 428.198239 108.926058 
L 428.198239 104.72758 
L 428.526348 104.220276 
L 428.526348 100.244859 
L 428.854212 137.346606 
L 428.854212 103.375504 
L 429.182077 136.449138 
L 429.182077 98.365703 
L 429.509696 92.469913 
L 429.838049 49.932727 
L 430.165914 84.28334 
L 430.165914 51.131103 
L 430.493778 52.645704 
L 430.824821 101.147548 
L 431.153174 99.668019 
L 431.153174 101.739106 
L 431.481527 138.76173 
L 431.481527 113.213522 
L 431.809636 146.45119 
L 431.809636 118.88057 
L 432.137744 151.16174 
L 432.137744 120.787099 
L 432.466098 118.834802 
L 432.800319 88.184205 
L 433.128672 91.370229 
L 433.457269 91.476876 
L 433.457269 99.228216 
L 433.785867 130.176085 
L 433.785867 141.819871 
L 434.114709 170.043876 
L 434.114709 149.529863 
L 434.444041 174.17115 
L 434.444041 154.35387 
L 434.773616 175.122863 
L 434.773616 157.511 
L 435.102947 179.399159 
L 435.102947 162.724909 
L 435.433012 163.635637 
L 435.762588 163.887187 
L 435.762588 166.272539 
L 436.094119 167.123612 
L 436.094119 169.5495 
L 436.424184 172.66862 
L 436.754982 157.673402 
L 437.08578 173.49466 
L 437.08578 161.700686 
L 437.416823 163.573075 
L 437.753489 186.674979 
L 438.085754 174.473557 
L 438.41753 175.358082 
L 438.750773 178.441401 
L 439.083283 168.121968 
L 439.415792 179.318121 
L 439.415792 183.719491 
L 439.750013 185.689467 
L 440.083256 200.371967 
L 440.417477 200.406989 
L 440.417477 202.239237 
L 440.751943 212.241779 
L 440.751943 205.428192 
L 441.09032 213.269266 
L 441.09032 206.444703 
L 441.425275 214.036585 
L 441.425275 207.852341 
L 441.760963 214.860963 
L 441.760963 208.894032 
L 442.097629 215.885629 
L 442.097629 210.828021 
L 442.435273 217.232232 
L 442.435273 211.541063 
L 442.778295 217.553043 
L 442.778295 212.070002 
L 443.115206 217.285815 
L 443.115206 211.576371 
L 443.452116 211.562546 
L 443.790249 211.851652 
L 443.790249 212.508942 
L 444.127649 212.620093 
L 444.127649 213.792039 
L 444.465292 219.903024 
L 444.465292 215.11984 
L 444.803181 220.307417 
L 444.803181 215.550241 
L 445.143514 220.4918 
L 445.143514 216.422417 
L 445.482381 221.357403 
L 445.482381 217.333665 
L 445.820758 222.165483 
L 445.820758 217.91337 
L 446.162069 217.253787 
L 446.502647 217.211359 
L 446.502647 217.549954 
L 446.844692 217.632593 
L 446.844692 218.046057 
L 447.186248 222.870943 
L 447.186248 219.416519 
L 447.529759 223.214155 
L 447.529759 219.925395 
L 447.881095 223.783804 
L 447.881095 220.5362 
L 448.223384 224.106184 
L 448.223384 220.89206 
L 448.568852 224.280565 
L 448.568852 221.260786 
L 448.912119 224.713681 
L 448.912119 221.520972 
L 449.258809 224.881953 
L 449.258809 221.977834 
L 449.60501 225.057216 
L 449.60501 222.292031 
L 449.949011 225.692483 
L 449.949011 222.940991 
L 450.293012 225.925951 
L 450.293012 223.154587 
L 450.637746 222.975387 
L 450.984925 223.006332 
L 450.984925 223.235901 
L 451.335038 220.394429 
L 451.682706 223.986557 
L 452.030863 223.964032 
L 452.030863 224.402975 
L 452.37902 224.779401 
L 452.726688 224.803216 
L 452.726688 225.084152 
L 453.079735 225.174347 
L 453.079735 225.330771 
L 453.427648 227.923876 
L 453.427648 226.002125 
L 453.774827 228.180005 
L 453.774827 226.200328 
L 454.122006 228.343454 
L 454.122006 226.556087 
L 454.815386 226.639775 
L 454.815386 227.01091 
L 455.162566 227.022081 
L 455.162566 227.411708 
L 455.509989 229.477882 
L 455.509989 227.951757 
L 455.857168 227.827082 
L 456.204347 227.868578 
L 456.204347 227.984894 
L 456.55226 227.966685 
L 456.55226 228.150422 
L 456.901151 230.061706 
L 456.901151 228.741333 
L 457.250041 230.135845 
L 457.250041 228.860353 
L 457.599665 230.339392 
L 457.599665 229.027778 
L 457.949289 230.387956 
L 457.949289 229.129047 
L 458.304048 229.017056 
L 458.654161 229.126544 
L 459.005496 227.777618 
L 459.357321 229.525287 
L 459.709145 229.508225 
L 459.709145 229.65694 
L 460.063903 231.078202 
L 460.063903 230.001323 
L 460.417195 231.101425 
L 460.417195 230.220921 
L 460.770486 231.318495 
L 460.770486 230.302872 
L 461.123044 231.463866 
L 461.123044 230.471738 
L 461.47658 230.163777 
L 462.186586 230.33966 
L 462.540611 231.566186 
L 462.540611 230.653266 
L 463.611243 230.931563 
L 463.96649 231.904806 
L 463.96649 231.170539 
L 464.321493 231.971726 
L 464.321493 231.202791 
L 464.67674 232.017155 
L 464.67674 231.211165 
L 465.032232 231.973557 
L 465.032232 231.224622 
L 465.389191 232.036744 
L 465.389191 231.301951 
L 465.744438 232.126801 
L 465.744438 231.411657 
L 466.100664 232.179361 
L 466.100664 231.433486 
L 466.456645 232.170991 
L 466.456645 231.544526 
L 466.812381 232.281254 
L 466.812381 231.598046 
L 467.883502 231.697839 
L 468.245839 232.414816 
L 468.245839 231.801993 
L 468.602065 232.487899 
L 468.602065 231.892581 
L 468.959757 232.548581 
L 468.959757 231.963597 
L 469.317205 232.5527 
L 469.317205 231.959379 
L 469.675386 232.559264 
L 469.675386 231.995961 
L 470.033078 232.627446 
L 470.033078 232.078572 
L 470.391015 232.702411 
L 470.391015 232.173259 
L 470.748952 232.74594 
L 470.748952 232.211932 
L 471.111779 232.77194 
L 471.111779 232.254345 
L 471.470693 232.823509 
L 471.470693 232.340764 
L 471.829608 232.872157 
L 471.829608 232.361134 
L 472.188767 232.8867 
L 472.188767 232.400754 
L 472.547927 232.879565 
L 472.547927 232.352175 
L 472.906841 232.859348 
L 472.906841 232.36782 
L 473.272602 232.858572 
L 473.272602 232.442722 
L 473.632984 232.946418 
L 473.632984 232.484792 
L 473.993854 232.96293 
L 473.993854 232.502023 
L 474.715596 232.445091 
L 474.715596 232.461152 
L 475.076955 232.522648 
L 475.43807 233.054472 
L 475.43807 232.636526 
L 475.799919 233.107288 
L 475.799919 232.6708 
L 476.162257 233.076738 
L 476.162257 232.664944 
L 476.522638 233.070739 
L 476.522638 232.676423 
L 476.883998 233.110825 
L 476.883998 232.737023 
L 477.247803 233.138052 
L 477.247803 232.803528 
L 477.609896 233.192755 
L 477.609896 232.84623 
L 477.970033 233.225225 
L 477.970033 232.855547 
L 478.695931 232.785222 
L 478.695931 232.816621 
L 479.054112 232.875858 
L 479.411071 233.305573 
L 479.411071 232.987224 
L 479.767052 233.335466 
L 479.767052 233.036957 
L 480.120832 233.371986 
L 480.120832 233.058834 
L 480.474857 233.389683 
L 480.474857 233.058814 
L 480.828393 233.371319 
L 480.828393 233.081928 
L 481.892424 233.079216 
L 481.892424 233.100347 
L 482.247916 233.435676 
L 482.247916 233.144923 
L 482.603407 233.456892 
L 482.603407 233.168839 
L 482.959388 233.438375 
L 482.959388 233.157636 
L 483.321726 233.449559 
L 483.321726 233.179514 
L 483.679907 233.470729 
L 483.679907 233.192353 
L 484.039311 233.485285 
L 484.039311 233.241048 
L 484.39847 233.516888 
L 484.39847 233.266995 
L 484.758363 233.553307 
L 484.758363 233.279685 
L 485.118989 233.542825 
L 485.118989 233.277742 
L 485.479371 233.522123 
L 485.479371 233.265349 
L 485.840486 233.535995 
L 485.840486 233.255744 
L 486.202579 233.524395 
L 486.202579 233.300762 
L 486.565161 233.560894 
L 486.565161 233.336716 
L 486.928966 233.608346 
L 486.928966 233.380128 
L 487.291548 233.61875 
L 487.291548 233.384996 
L 487.65413 233.627165 
L 487.65413 233.401125 
L 488.016712 233.631554 
L 488.016712 233.379832 
L 488.384673 233.608419 
L 488.384673 233.334708 
L 488.747255 233.568636 
L 488.747255 233.338602 
L 489.109593 233.578724 
L 489.109593 233.39034 
L 489.472175 233.656696 
L 489.472175 233.430732 
L 489.835002 233.662861 
L 489.835002 233.474886 
L 490.197584 233.673993 
L 490.197584 233.467283 
L 490.560166 233.692838 
L 490.560166 233.482461 
L 490.922748 233.680476 
L 490.922748 233.481689 
L 491.285575 233.690547 
L 491.285575 233.472235 
L 491.648157 233.695706 
L 491.648157 233.500132 
L 492.014651 233.701907 
L 492.014651 233.491024 
L 492.377233 233.708495 
L 492.377233 233.488525 
L 492.739815 233.682288 
L 492.739815 233.476675 
L 493.102397 233.687464 
L 493.102397 233.491504 
L 493.470358 233.702409 
L 493.470358 233.517493 
L 493.83294 233.722671 
L 493.83294 233.546373 
L 494.196011 233.743449 
L 494.196011 233.56603 
L 494.558594 233.760445 
L 494.558594 233.575559 
L 494.921176 233.754419 
L 494.921176 233.566597 
L 495.284002 233.747232 
L 495.284002 233.576401 
L 495.646585 233.769625 
L 495.646585 233.613833 
L 496.008922 233.80346 
L 496.008922 233.645138 
L 496.371504 233.815796 
L 496.371504 233.648702 
L 496.734086 233.807029 
L 496.734086 233.654807 
L 497.096913 233.81538 
L 497.096913 233.649821 
L 497.459495 233.817553 
L 497.459495 233.648242 
L 497.822077 233.805449 
L 497.822077 233.629977 
L 498.184659 233.795752 
L 498.184659 233.623133 
L 498.552376 233.784967 
L 498.552376 233.620252 
L 498.914958 233.796474 
L 498.914958 233.642424 
L 500.002949 233.630711 
L 500.002949 233.639571 
L 500.365531 233.831556 
L 500.365531 233.672564 
L 500.728113 233.672492 
L 501.090695 233.521313 
L 501.453277 233.674819 
L 501.453277 233.513226 
L 502.178686 233.857426 
L 502.178686 233.712832 
L 503.266188 233.723126 
L 503.637328 233.877245 
L 503.637328 233.748282 
L 503.99991 233.899833 
L 503.99991 233.750485 
L 504.362492 233.889343 
L 504.362492 233.77139 
L 504.725074 233.894608 
L 504.725074 233.758938 
L 505.087901 233.905124 
L 505.087901 233.765452 
L 505.450483 233.885241 
L 505.450483 233.766547 
L 505.813065 233.895691 
L 505.813065 233.763624 
L 506.175402 233.906072 
L 506.175402 233.776946 
L 506.900811 233.937979 
L 506.900811 233.808347 
L 507.263393 233.939413 
L 507.263393 233.810268 
L 507.625975 233.919996 
L 507.625975 233.796753 
L 508.35114 233.940739 
L 508.35114 233.827023 
L 508.719101 233.941966 
L 508.719101 233.807255 
L 509.081683 233.915793 
L 509.081683 233.796851 
L 509.807092 233.945137 
L 509.807092 233.834741 
L 510.169429 233.950309 
L 510.169429 233.83442 
L 510.532011 233.935033 
L 510.532011 233.813465 
L 511.256931 233.947237 
L 511.256931 233.834212 
L 511.619513 233.956036 
L 511.619513 233.857535 
L 512.344922 233.969055 
L 512.344922 233.857645 
L 513.070086 233.968081 
L 513.070086 233.866705 
L 513.804297 233.985228 
L 513.804297 233.893953 
L 514.89351 233.883968 
L 515.618674 233.993822 
L 515.618674 233.894245 
L 516.343594 233.982979 
L 516.343594 233.890864 
L 517.069247 233.99595 
L 517.069247 233.89394 
L 517.794412 233.995037 
L 517.794412 233.903289 
L 518.156994 234.003358 
L 518.156994 233.917579 
L 519.250119 233.90639 
L 519.975283 234.010866 
L 519.975283 233.931582 
L 520.700448 234.031731 
L 520.700448 233.945029 
L 521.425612 234.032292 
L 521.425612 233.944545 
L 522.150776 234.025842 
L 522.150776 233.936959 
L 522.87594 234.026927 
L 522.87594 233.941203 
L 523.605995 234.040101 
L 523.605995 233.953272 
L 524.336293 234.033041 
L 524.336293 233.945976 
L 525.061702 234.027741 
L 525.061702 233.942673 
L 525.786622 234.046218 
L 525.786622 233.959629 
L 526.511786 234.031849 
L 526.511786 233.953762 
L 527.23695 234.065779 
L 527.23695 233.989669 
L 527.962114 234.061103 
L 527.962114 233.98391 
L 528.687279 234.061598 
L 528.687279 233.994214 
L 529.420022 234.06186 
L 529.420022 233.989263 
L 530.145431 234.055636 
L 530.145431 233.984722 
L 530.508013 234.060649 
L 530.508013 233.990315 
L 533.411849 233.993329 
L 533.774431 234.074547 
L 533.774431 234.006891 
L 536.681689 234.011558 
L 537.406853 234.077086 
L 537.406853 234.00453 
L 538.132018 234.068797 
L 538.132018 233.995765 
L 538.857182 234.079332 
L 538.857182 234.005619 
L 542.126044 234.008599 
L 542.850964 234.09922 
L 542.850964 234.044431 
L 543.579551 234.100627 
L 543.579551 234.032926 
L 543.943356 234.089778 
L 543.943356 234.033557 
L 545.036481 234.032276 
L 545.036481 234.034818 
L 545.761646 234.108424 
L 545.761646 234.046765 
L 546.486565 234.108168 
L 546.486565 234.041959 
L 547.211485 234.103596 
L 547.211485 234.047209 
L 547.936405 234.106187 
L 547.936405 234.037817 
L 549.023907 234.107697 
L 549.023907 234.055388 
L 549.754205 234.114586 
L 549.754205 234.051165 
L 550.479125 234.10944 
L 550.479125 234.048803 
L 551.205267 234.106442 
L 551.205267 234.042099 
L 551.930187 234.10385 
L 551.930187 234.04787 
L 552.654862 234.116159 
L 552.654862 234.058029 
L 558.464489 234.073398 
L 559.189409 234.124704 
L 559.189409 234.082028 
L 560.282045 234.122305 
L 560.282045 234.071466 
L 601.663596 234.144255 
L 602.750853 234.150546 
L 602.750853 234.150719 
L 603.841778 234.187204 
L 603.841778 234.155099 
L 607.109418 234.151468 
L 607.834338 234.161284 
L 608.92184 234.121579 
L 608.92184 234.125199 
L 610.378036 234.153543 
L 611.8401 234.127071 
L 613.292874 234.15524 
L 622.002424 234.167599 
L 622.002424 234.173584 
L 623.455197 234.167744 
L 642.697233 234.154675 
L 644.513078 234.126935 
L 674.283687 234.18294 
L 702.968995 234.187556 
L 704.42348 234.190681 
L 706.966934 234.17424 
L 812.701556 234.182665 
L 812.701556 234.182665 
" clip-path="url(#p082972993b)" style="fill: none; stroke: #008000; stroke-width: 1.5; stroke-linecap: square"/>
   </g>
   <g id="patch_3">
    <path d="M 47.72 534.04 
L 47.72 26.88 
" style="fill: none; stroke: #000000; stroke-width: 0.8; stroke-linejoin: miter; stroke-linecap: square"/>
   </g>
   <g id="patch_4">
    <path d="M 853.2 534.04 
L 853.2 26.88 
" style="fill: none; stroke: #000000; stroke-width: 0.8; stroke-linejoin: miter; stroke-linecap: square"/>
   </g>
   <g id="patch_5">
    <path d="M 47.72 534.04 
L 853.2 534.04 
" style="fill: none; stroke: #000000; stroke-width: 0.8; stroke-linejoin: miter; stroke-linecap: square"/>
   </g>
   <g id="patch_6">
    <path d="M 47.72 26.88 
L 853.2 26.88 
" style="fill: none; stroke: #000000; stroke-width: 0.8; stroke-linejoin: miter; stroke-linecap: square"/>
   </g>
   <g id="patch_7">
    <path d="M 498.400227 367.331095 
Q 472.248933 373.161854 446.097639 378.992614 
L 446.968115 382.896749 
Q 440.460666 381.274002 433.953217 379.651256 
Q 439.154952 375.417799 444.356687 371.184343 
L 445.227163 375.088478 
Q 471.378457 369.257719 497.529751 363.42696 
L 498.400227 367.331095 
z
" style="stroke: #000000; stroke-linecap: round"/>
   </g>
   <g id="text_15">
    <!-- Peak: RT=2.37, Area=5.25e+04 -->
    <g style="fill: #ff0000" transform="translate(503.637083 350.836863) scale(0.1 -0.1)">
     <defs>
      <path id="DejaVuSans-50" d="M 1259 4147 
L 1259 2394 
L 2053 2394 
Q 2494 2394 2734 2622 
Q 2975 2850 2975 3272 
Q 2975 3691 2734 3919 
Q 2494 4147 2053 4147 
L 1259 4147 
z
M 628 4666 
L 2053 4666 
Q 2838 4666 3239 4311 
Q 3641 3956 3641 3272 
Q 3641 2581 3239 2228 
Q 2838 1875 2053 1875 
L 1259 1875 
L 1259 0 
L 628 0 
L 628 4666 
z
" transform="scale(0.015625)"/>
      <path id="DejaVuSans-6b" d="M 581 4863 
L 1159 4863 
L 1159 1991 
L 2875 3500 
L 3609 3500 
L 1753 1863 
L 3688 0 
L 2938 0 
L 1159 1709 
L 1159 0 
L 581 0 
L 581 4863 
z
" transform="scale(0.015625)"/>
      <path id="DejaVuSans-3a" d="M 750 794 
L 1409 794 
L 1409 0 
L 750 0 
L 750 794 
z
M 750 3309 
L 1409 3309 
L 1409 2516 
L 750 2516 
L 750 3309 
z
" transform="scale(0.015625)"/>
      <path id="DejaVuSans-3d" d="M 678 2906 
L 4684 2906 
L 4684 2381 
L 678 2381 
L 678 2906 
z
M 678 1631 
L 4684 1631 
L 4684 1100 
L 678 1100 
L 678 1631 
z
" transform="scale(0.015625)"/>
      <path id="DejaVuSans-37" d="M 525 4666 
L 3525 4666 
L 3525 4397 
L 1831 0 
L 1172 0 
L 2766 4134 
L 525 4134 
L 525 4666 
z
" transform="scale(0.015625)"/>
      <path id="DejaVuSans-2c" d="M 750 794 
L 1409 794 
L 1409 256 
L 897 -744 
L 494 -744 
L 750 256 
L 750 794 
z
" transform="scale(0.015625)"/>
      <path id="DejaVuSans-41" d="M 2188 4044 
L 1331 1722 
L 3047 1722 
L 2188 4044 
z
M 1831 4666 
L 2547 4666 
L 4325 0 
L 3669 0 
L 3244 1197 
L 1141 1197 
L 716 0 
L 50 0 
L 1831 4666 
z
" transform="scale(0.015625)"/>
      <path id="DejaVuSans-2b" d="M 2944 4013 
L 2944 2272 
L 4684 2272 
L 4684 1741 
L 2944 1741 
L 2944 0 
L 2419 0 
L 2419 1741 
L 678 1741 
L 678 2272 
L 2419 2272 
L 2419 4013 
L 2944 4013 
z
" transform="scale(0.015625)"/>
     </defs>
     <use xlink:href="#DejaVuSans-50"/>
     <use xlink:href="#DejaVuSans-65" transform="translate(56.677734 0)"/>
     <use xlink:href="#DejaVuSans-61" transform="translate(118.201172 0)"/>
     <use xlink:href="#DejaVuSans-6b" transform="translate(179.480469 0)"/>
     <use xlink:href="#DejaVuSans-3a" transform="translate(237.390625 0)"/>
     <use xlink:href="#DejaVuSans-20" transform="translate(271.082031 0)"/>
     <use xlink:href="#DejaVuSans-52" transform="translate(302.869141 0)"/>
     <use xlink:href="#DejaVuSans-54" transform="translate(365.101562 0)"/>
     <use xlink:href="#DejaVuSans-3d" transform="translate(426.185547 0)"/>
     <use xlink:href="#DejaVuSans-32" transform="translate(509.974609 0)"/>
     <use xlink:href="#DejaVuSans-2e" transform="translate(573.597656 0)"/>
     <use xlink:href="#DejaVuSans-33" transform="translate(605.384766 0)"/>
     <use xlink:href="#DejaVuSans-37" transform="translate(669.007812 0)"/>
     <use xlink:href="#DejaVuSans-2c" transform="translate(732.630859 0)"/>
     <use xlink:href="#DejaVuSans-20" transform="translate(764.417969 0)"/>
     <use xlink:href="#DejaVuSans-41" transform="translate(796.205078 0)"/>
     <use xlink:href="#DejaVuSans-72" transform="translate(864.613281 0)"/>
     <use xlink:href="#DejaVuSans-65" transform="translate(903.476562 0)"/>
     <use xlink:href="#DejaVuSans-61" transform="translate(965 0)"/>
     <use xlink:href="#DejaVuSans-3d" transform="translate(1026.279297 0)"/>
     <use xlink:href="#DejaVuSans-35" transform="translate(1110.068359 0)"/>
     <use xlink:href="#DejaVuSans-2e" transform="translate(1173.691406 0)"/>
     <use xlink:href="#DejaVuSans-32" transform="translate(1205.478516 0)"/>
     <use xlink:href="#DejaVuSans-35" transform="translate(1269.101562 0)"/>
     <use xlink:href="#DejaVuSans-65" transform="translate(1332.724609 0)"/>
     <use xlink:href="#DejaVuSans-2b" transform="translate(1394.248047 0)"/>
     <use xlink:href="#DejaVuSans-30" transform="translate(1478.037109 0)"/>
     <use xlink:href="#DejaVuSans-34" transform="translate(1541.660156 0)"/>
    </g>
    <!-- (82.76% of total) -->
    <g style="fill: #ff0000" transform="translate(503.637083 362.034675) scale(0.1 -0.1)">
     <defs>
      <path id="DejaVuSans-38" d="M 2034 2216 
Q 1584 2216 1326 1975 
Q 1069 1734 1069 1313 
Q 1069 891 1326 650 
Q 1584 409 2034 409 
Q 2484 409 2743 651 
Q 3003 894 3003 1313 
Q 3003 1734 2745 1975 
Q 2488 2216 2034 2216 
z
M 1403 2484 
Q 997 2584 770 2862 
Q 544 3141 544 3541 
Q 544 4100 942 4425 
Q 1341 4750 2034 4750 
Q 2731 4750 3128 4425 
Q 3525 4100 3525 3541 
Q 3525 3141 3298 2862 
Q 3072 2584 2669 2484 
Q 3125 2378 3379 2068 
Q 3634 1759 3634 1313 
Q 3634 634 3220 271 
Q 2806 -91 2034 -91 
Q 1263 -91 848 271 
Q 434 634 434 1313 
Q 434 1759 690 2068 
Q 947 2378 1403 2484 
z
M 1172 3481 
Q 1172 3119 1398 2916 
Q 1625 2713 2034 2713 
Q 2441 2713 2670 2916 
Q 2900 3119 2900 3481 
Q 2900 3844 2670 4047 
Q 2441 4250 2034 4250 
Q 1625 4250 1398 4047 
Q 1172 3844 1172 3481 
z
" transform="scale(0.015625)"/>
      <path id="DejaVuSans-36" d="M 2113 2584 
Q 1688 2584 1439 2293 
Q 1191 2003 1191 1497 
Q 1191 994 1439 701 
Q 1688 409 2113 409 
Q 2538 409 2786 701 
Q 3034 994 3034 1497 
Q 3034 2003 2786 2293 
Q 2538 2584 2113 2584 
z
M 3366 4563 
L 3366 3988 
Q 3128 4100 2886 4159 
Q 2644 4219 2406 4219 
Q 1781 4219 1451 3797 
Q 1122 3375 1075 2522 
Q 1259 2794 1537 2939 
Q 1816 3084 2150 3084 
Q 2853 3084 3261 2657 
Q 3669 2231 3669 1497 
Q 3669 778 3244 343 
Q 2819 -91 2113 -91 
Q 1303 -91 875 529 
Q 447 1150 447 2328 
Q 447 3434 972 4092 
Q 1497 4750 2381 4750 
Q 2619 4750 2861 4703 
Q 3103 4656 3366 4563 
z
" transform="scale(0.015625)"/>
      <path id="DejaVuSans-25" d="M 4653 2053 
Q 4381 2053 4226 1822 
Q 4072 1591 4072 1178 
Q 4072 772 4226 539 
Q 4381 306 4653 306 
Q 4919 306 5073 539 
Q 5228 772 5228 1178 
Q 5228 1588 5073 1820 
Q 4919 2053 4653 2053 
z
M 4653 2450 
Q 5147 2450 5437 2106 
Q 5728 1763 5728 1178 
Q 5728 594 5436 251 
Q 5144 -91 4653 -91 
Q 4153 -91 3862 251 
Q 3572 594 3572 1178 
Q 3572 1766 3864 2108 
Q 4156 2450 4653 2450 
z
M 1428 4353 
Q 1159 4353 1004 4120 
Q 850 3888 850 3481 
Q 850 3069 1003 2837 
Q 1156 2606 1428 2606 
Q 1700 2606 1854 2837 
Q 2009 3069 2009 3481 
Q 2009 3884 1853 4118 
Q 1697 4353 1428 4353 
z
M 4250 4750 
L 4750 4750 
L 1831 -91 
L 1331 -91 
L 4250 4750 
z
M 1428 4750 
Q 1922 4750 2215 4408 
Q 2509 4066 2509 3481 
Q 2509 2891 2217 2550 
Q 1925 2209 1428 2209 
Q 931 2209 642 2551 
Q 353 2894 353 3481 
Q 353 4063 643 4406 
Q 934 4750 1428 4750 
z
" transform="scale(0.015625)"/>
      <path id="DejaVuSans-66" d="M 2375 4863 
L 2375 4384 
L 1825 4384 
Q 1516 4384 1395 4259 
Q 1275 4134 1275 3809 
L 1275 3500 
L 2222 3500 
L 2222 3053 
L 1275 3053 
L 1275 0 
L 697 0 
L 697 3053 
L 147 3053 
L 147 3500 
L 697 3500 
L 697 3744 
Q 697 4328 969 4595 
Q 1241 4863 1831 4863 
L 2375 4863 
z
" transform="scale(0.015625)"/>
     </defs>
     <use xlink:href="#DejaVuSans-28"/>
     <use xlink:href="#DejaVuSans-38" transform="translate(39.013672 0)"/>
     <use xlink:href="#DejaVuSans-32" transform="translate(102.636719 0)"/>
     <use xlink:href="#DejaVuSans-2e" transform="translate(166.259766 0)"/>
     <use xlink:href="#DejaVuSans-37" transform="translate(198.046875 0)"/>
     <use xlink:href="#DejaVuSans-36" transform="translate(261.669922 0)"/>
     <use xlink:href="#DejaVuSans-25" transform="translate(325.292969 0)"/>
     <use xlink:href="#DejaVuSans-20" transform="translate(420.3125 0)"/>
     <use xlink:href="#DejaVuSans-6f" transform="translate(452.099609 0)"/>
     <use xlink:href="#DejaVuSans-66" transform="translate(513.28125 0)"/>
     <use xlink:href="#DejaVuSans-20" transform="translate(548.486328 0)"/>
     <use xlink:href="#DejaVuSans-74" transform="translate(580.273438 0)"/>
     <use xlink:href="#DejaVuSans-6f" transform="translate(619.482422 0)"/>
     <use xlink:href="#DejaVuSans-74" transform="translate(680.664062 0)"/>
     <use xlink:href="#DejaVuSans-61" transform="translate(719.873047 0)"/>
     <use xlink:href="#DejaVuSans-6c" transform="translate(781.152344 0)"/>
     <use xlink:href="#DejaVuSans-29" transform="translate(808.935547 0)"/>
    </g>
   </g>
   <g id="text_16">
    <!-- UV &amp; MS Chromatograms: IrCp1L1, target m/z=713.0723706 -->
    <g transform="translate(266.88625 20.88) scale(0.12 -0.12)">
     <defs>
      <path id="DejaVuSans-55" d="M 556 4666 
L 1191 4666 
L 1191 1831 
Q 1191 1081 1462 751 
Q 1734 422 2344 422 
Q 2950 422 3222 751 
Q 3494 1081 3494 1831 
L 3494 4666 
L 4128 4666 
L 4128 1753 
Q 4128 841 3676 375 
Q 3225 -91 2344 -91 
Q 1459 -91 1007 375 
Q 556 841 556 1753 
L 556 4666 
z
" transform="scale(0.015625)"/>
      <path id="DejaVuSans-56" d="M 1831 0 
L 50 4666 
L 709 4666 
L 2188 738 
L 3669 4666 
L 4325 4666 
L 2547 0 
L 1831 0 
z
" transform="scale(0.015625)"/>
      <path id="DejaVuSans-26" d="M 1556 2509 
Q 1272 2256 1139 2004 
Q 1006 1753 1006 1478 
Q 1006 1022 1337 719 
Q 1669 416 2169 416 
Q 2466 416 2725 514 
Q 2984 613 3213 813 
L 1556 2509 
z
M 1997 2859 
L 3584 1234 
Q 3769 1513 3872 1830 
Q 3975 2147 3994 2503 
L 4575 2503 
Q 4538 2091 4375 1687 
Q 4213 1284 3922 891 
L 4794 0 
L 4006 0 
L 3559 459 
Q 3234 181 2878 45 
Q 2522 -91 2113 -91 
Q 1359 -91 881 339 
Q 403 769 403 1441 
Q 403 1841 612 2192 
Q 822 2544 1241 2853 
Q 1091 3050 1012 3245 
Q 934 3441 934 3628 
Q 934 4134 1281 4442 
Q 1628 4750 2203 4750 
Q 2463 4750 2720 4694 
Q 2978 4638 3244 4525 
L 3244 3956 
Q 2972 4103 2725 4179 
Q 2478 4256 2266 4256 
Q 1938 4256 1733 4082 
Q 1528 3909 1528 3634 
Q 1528 3475 1620 3314 
Q 1713 3153 1997 2859 
z
" transform="scale(0.015625)"/>
      <path id="DejaVuSans-4d" d="M 628 4666 
L 1569 4666 
L 2759 1491 
L 3956 4666 
L 4897 4666 
L 4897 0 
L 4281 0 
L 4281 4097 
L 3078 897 
L 2444 897 
L 1241 4097 
L 1241 0 
L 628 0 
L 628 4666 
z
" transform="scale(0.015625)"/>
      <path id="DejaVuSans-53" d="M 3425 4513 
L 3425 3897 
Q 3066 4069 2747 4153 
Q 2428 4238 2131 4238 
Q 1616 4238 1336 4038 
Q 1056 3838 1056 3469 
Q 1056 3159 1242 3001 
Q 1428 2844 1947 2747 
L 2328 2669 
Q 3034 2534 3370 2195 
Q 3706 1856 3706 1288 
Q 3706 609 3251 259 
Q 2797 -91 1919 -91 
Q 1588 -91 1214 -16 
Q 841 59 441 206 
L 441 856 
Q 825 641 1194 531 
Q 1563 422 1919 422 
Q 2459 422 2753 634 
Q 3047 847 3047 1241 
Q 3047 1584 2836 1778 
Q 2625 1972 2144 2069 
L 1759 2144 
Q 1053 2284 737 2584 
Q 422 2884 422 3419 
Q 422 4038 858 4394 
Q 1294 4750 2059 4750 
Q 2388 4750 2728 4690 
Q 3069 4631 3425 4513 
z
" transform="scale(0.015625)"/>
      <path id="DejaVuSans-43" d="M 4122 4306 
L 4122 3641 
Q 3803 3938 3442 4084 
Q 3081 4231 2675 4231 
Q 1875 4231 1450 3742 
Q 1025 3253 1025 2328 
Q 1025 1406 1450 917 
Q 1875 428 2675 428 
Q 3081 428 3442 575 
Q 3803 722 4122 1019 
L 4122 359 
Q 3791 134 3420 21 
Q 3050 -91 2638 -91 
Q 1578 -91 968 557 
Q 359 1206 359 2328 
Q 359 3453 968 4101 
Q 1578 4750 2638 4750 
Q 3056 4750 3426 4639 
Q 3797 4528 4122 4306 
z
" transform="scale(0.015625)"/>
      <path id="DejaVuSans-68" d="M 3513 2113 
L 3513 0 
L 2938 0 
L 2938 2094 
Q 2938 2591 2744 2837 
Q 2550 3084 2163 3084 
Q 1697 3084 1428 2787 
Q 1159 2491 1159 1978 
L 1159 0 
L 581 0 
L 581 4863 
L 1159 4863 
L 1159 2956 
Q 1366 3272 1645 3428 
Q 1925 3584 2291 3584 
Q 2894 3584 3203 3211 
Q 3513 2838 3513 2113 
z
" transform="scale(0.015625)"/>
      <path id="DejaVuSans-67" d="M 2906 1791 
Q 2906 2416 2648 2759 
Q 2391 3103 1925 3103 
Q 1463 3103 1205 2759 
Q 947 2416 947 1791 
Q 947 1169 1205 825 
Q 1463 481 1925 481 
Q 2391 481 2648 825 
Q 2906 1169 2906 1791 
z
M 3481 434 
Q 3481 -459 3084 -895 
Q 2688 -1331 1869 -1331 
Q 1566 -1331 1297 -1286 
Q 1028 -1241 775 -1147 
L 775 -588 
Q 1028 -725 1275 -790 
Q 1522 -856 1778 -856 
Q 2344 -856 2625 -561 
Q 2906 -266 2906 331 
L 2906 616 
Q 2728 306 2450 153 
Q 2172 0 1784 0 
Q 1141 0 747 490 
Q 353 981 353 1791 
Q 353 2603 747 3093 
Q 1141 3584 1784 3584 
Q 2172 3584 2450 3431 
Q 2728 3278 2906 2969 
L 2906 3500 
L 3481 3500 
L 3481 434 
z
" transform="scale(0.015625)"/>
      <path id="DejaVuSans-70" d="M 1159 525 
L 1159 -1331 
L 581 -1331 
L 581 3500 
L 1159 3500 
L 1159 2969 
Q 1341 3281 1617 3432 
Q 1894 3584 2278 3584 
Q 2916 3584 3314 3078 
Q 3713 2572 3713 1747 
Q 3713 922 3314 415 
Q 2916 -91 2278 -91 
Q 1894 -91 1617 61 
Q 1341 213 1159 525 
z
M 3116 1747 
Q 3116 2381 2855 2742 
Q 2594 3103 2138 3103 
Q 1681 3103 1420 2742 
Q 1159 2381 1159 1747 
Q 1159 1113 1420 752 
Q 1681 391 2138 391 
Q 2594 391 2855 752 
Q 3116 1113 3116 1747 
z
" transform="scale(0.015625)"/>
      <path id="DejaVuSans-4c" d="M 628 4666 
L 1259 4666 
L 1259 531 
L 3531 531 
L 3531 0 
L 628 0 
L 628 4666 
z
" transform="scale(0.015625)"/>
      <path id="DejaVuSans-2f" d="M 1625 4666 
L 2156 4666 
L 531 -594 
L 0 -594 
L 1625 4666 
z
" transform="scale(0.015625)"/>
     </defs>
     <use xlink:href="#DejaVuSans-55"/>
     <use xlink:href="#DejaVuSans-56" transform="translate(73.193359 0)"/>
     <use xlink:href="#DejaVuSans-20" transform="translate(141.601562 0)"/>
     <use xlink:href="#DejaVuSans-26" transform="translate(173.388672 0)"/>
     <use xlink:href="#DejaVuSans-20" transform="translate(251.367188 0)"/>
     <use xlink:href="#DejaVuSans-4d" transform="translate(283.154297 0)"/>
     <use xlink:href="#DejaVuSans-53" transform="translate(369.433594 0)"/>
     <use xlink:href="#DejaVuSans-20" transform="translate(432.910156 0)"/>
     <use xlink:href="#DejaVuSans-43" transform="translate(464.697266 0)"/>
     <use xlink:href="#DejaVuSans-68" transform="translate(534.521484 0)"/>
     <use xlink:href="#DejaVuSans-72" transform="translate(597.900391 0)"/>
     <use xlink:href="#DejaVuSans-6f" transform="translate(636.763672 0)"/>
     <use xlink:href="#DejaVuSans-6d" transform="translate(697.945312 0)"/>
     <use xlink:href="#DejaVuSans-61" transform="translate(795.357422 0)"/>
     <use xlink:href="#DejaVuSans-74" transform="translate(856.636719 0)"/>
     <use xlink:href="#DejaVuSans-6f" transform="translate(895.845703 0)"/>
     <use xlink:href="#DejaVuSans-67" transform="translate(957.027344 0)"/>
     <use xlink:href="#DejaVuSans-72" transform="translate(1020.503906 0)"/>
     <use xlink:href="#DejaVuSans-61" transform="translate(1061.617188 0)"/>
     <use xlink:href="#DejaVuSans-6d" transform="translate(1122.896484 0)"/>
     <use xlink:href="#DejaVuSans-73" transform="translate(1220.308594 0)"/>
     <use xlink:href="#DejaVuSans-3a" transform="translate(1272.408203 0)"/>
     <use xlink:href="#DejaVuSans-20" transform="translate(1306.099609 0)"/>
     <use xlink:href="#DejaVuSans-49" transform="translate(1337.886719 0)"/>
     <use xlink:href="#DejaVuSans-72" transform="translate(1367.378906 0)"/>
     <use xlink:href="#DejaVuSans-43" transform="translate(1408.492188 0)"/>
     <use xlink:href="#DejaVuSans-70" transform="translate(1478.316406 0)"/>
     <use xlink:href="#DejaVuSans-31" transform="translate(1541.792969 0)"/>
     <use xlink:href="#DejaVuSans-4c" transform="translate(1605.416016 0)"/>
     <use xlink:href="#DejaVuSans-31" transform="translate(1661.128906 0)"/>
     <use xlink:href="#DejaVuSans-2c" transform="translate(1724.751953 0)"/>
     <use xlink:href="#DejaVuSans-20" transform="translate(1756.539062 0)"/>
     <use xlink:href="#DejaVuSans-74" transform="translate(1788.326172 0)"/>
     <use xlink:href="#DejaVuSans-61" transform="translate(1827.535156 0)"/>
     <use xlink:href="#DejaVuSans-72" transform="translate(1888.814453 0)"/>
     <use xlink:href="#DejaVuSans-67" transform="translate(1928.177734 0)"/>
     <use xlink:href="#DejaVuSans-65" transform="translate(1991.654297 0)"/>
     <use xlink:href="#DejaVuSans-74" transform="translate(2053.177734 0)"/>
     <use xlink:href="#DejaVuSans-20" transform="translate(2092.386719 0)"/>
     <use xlink:href="#DejaVuSans-6d" transform="translate(2124.173828 0)"/>
     <use xlink:href="#DejaVuSans-2f" transform="translate(2221.585938 0)"/>
     <use xlink:href="#DejaVuSans-7a" transform="translate(2255.277344 0)"/>
     <use xlink:href="#DejaVuSans-3d" transform="translate(2307.767578 0)"/>
     <use xlink:href="#DejaVuSans-37" transform="translate(2391.556641 0)"/>
     <use xlink:href="#DejaVuSans-31" transform="translate(2455.179688 0)"/>
     <use xlink:href="#DejaVuSans-33" transform="translate(2518.802734 0)"/>
     <use xlink:href="#DejaVuSans-2e" transform="translate(2582.425781 0)"/>
     <use xlink:href="#DejaVuSans-30" transform="translate(2614.212891 0)"/>
     <use xlink:href="#DejaVuSans-37" transform="translate(2677.835938 0)"/>
     <use xlink:href="#DejaVuSans-32" transform="translate(2741.458984 0)"/>
     <use xlink:href="#DejaVuSans-33" transform="translate(2805.082031 0)"/>
     <use xlink:href="#DejaVuSans-37" transform="translate(2868.705078 0)"/>
     <use xlink:href="#DejaVuSans-30" transform="translate(2932.328125 0)"/>
     <use xlink:href="#DejaVuSans-36" transform="translate(2995.951172 0)"/>
    </g>
   </g>
   <g id="legend_1">
    <g id="patch_8">
     <path d="M 685.971875 64.23625 
L 846.2 64.23625 
Q 848.2 64.23625 848.2 62.23625 
L 848.2 33.88 
Q 848.2 31.88 846.2 31.88 
L 685.971875 31.88 
Q 683.971875 31.88 683.971875 33.88 
L 683.971875 62.23625 
Q 683.971875 64.23625 685.971875 64.23625 
z
" style="fill: #ffffff; opacity: 0.8; stroke: #cccccc; stroke-linejoin: miter"/>
    </g>
    <g id="line2d_15">
     <path d="M 687.971875 39.978437 
L 697.971875 39.978437 
L 707.971875 39.978437 
" style="fill: none; stroke: #0000ff; stroke-width: 1.5; stroke-linecap: square"/>
    </g>
    <g id="text_17">
     <!-- UV Intensity (normalized) -->
     <g transform="translate(715.971875 43.478437) scale(0.1 -0.1)">
      <use xlink:href="#DejaVuSans-55"/>
      <use xlink:href="#DejaVuSans-56" transform="translate(73.193359 0)"/>
      <use xlink:href="#DejaVuSans-20" transform="translate(141.601562 0)"/>
      <use xlink:href="#DejaVuSans-49" transform="translate(173.388672 0)"/>
      <use xlink:href="#DejaVuSans-6e" transform="translate(202.880859 0)"/>
      <use xlink:href="#DejaVuSans-74" transform="translate(266.259766 0)"/>
      <use xlink:href="#DejaVuSans-65" transform="translate(305.46875 0)"/>
      <use xlink:href="#DejaVuSans-6e" transform="translate(366.992188 0)"/>
      <use xlink:href="#DejaVuSans-73" transform="translate(430.371094 0)"/>
      <use xlink:href="#DejaVuSans-69" transform="translate(482.470703 0)"/>
      <use xlink:href="#DejaVuSans-74" transform="translate(510.253906 0)"/>
      <use xlink:href="#DejaVuSans-79" transform="translate(549.462891 0)"/>
      <use xlink:href="#DejaVuSans-20" transform="translate(608.642578 0)"/>
      <use xlink:href="#DejaVuSans-28" transform="translate(640.429688 0)"/>
      <use xlink:href="#DejaVuSans-6e" transform="translate(679.443359 0)"/>
      <use xlink:href="#DejaVuSans-6f" transform="translate(742.822266 0)"/>
      <use xlink:href="#DejaVuSans-72" transform="translate(804.003906 0)"/>
      <use xlink:href="#DejaVuSans-6d" transform="translate(843.367188 0)"/>
      <use xlink:href="#DejaVuSans-61" transform="translate(940.779297 0)"/>
      <use xlink:href="#DejaVuSans-6c" transform="translate(1002.058594 0)"/>
      <use xlink:href="#DejaVuSans-69" transform="translate(1029.841797 0)"/>
      <use xlink:href="#DejaVuSans-7a" transform="translate(1057.625 0)"/>
      <use xlink:href="#DejaVuSans-65" transform="translate(1110.115234 0)"/>
      <use xlink:href="#DejaVuSans-64" transform="translate(1171.638672 0)"/>
      <use xlink:href="#DejaVuSans-29" transform="translate(1235.115234 0)"/>
     </g>
    </g>
    <g id="line2d_16">
     <path d="M 687.971875 54.656562 
L 697.971875 54.656562 
L 707.971875 54.656562 
" style="fill: none; stroke: #008000; stroke-width: 1.5; stroke-linecap: square"/>
    </g>
    <g id="text_18">
     <!-- MS Intensity (normalized) -->
     <g transform="translate(715.971875 58.156562) scale(0.1 -0.1)">
      <use xlink:href="#DejaVuSans-4d"/>
      <use xlink:href="#DejaVuSans-53" transform="translate(86.279297 0)"/>
      <use xlink:href="#DejaVuSans-20" transform="translate(149.755859 0)"/>
      <use xlink:href="#DejaVuSans-49" transform="translate(181.542969 0)"/>
      <use xlink:href="#DejaVuSans-6e" transform="translate(211.035156 0)"/>
      <use xlink:href="#DejaVuSans-74" transform="translate(274.414062 0)"/>
      <use xlink:href="#DejaVuSans-65" transform="translate(313.623047 0)"/>
      <use xlink:href="#DejaVuSans-6e" transform="translate(375.146484 0)"/>
      <use xlink:href="#DejaVuSans-73" transform="translate(438.525391 0)"/>
      <use xlink:href="#DejaVuSans-69" transform="translate(490.625 0)"/>
      <use xlink:href="#DejaVuSans-74" transform="translate(518.408203 0)"/>
      <use xlink:href="#DejaVuSans-79" transform="translate(557.617188 0)"/>
      <use xlink:href="#DejaVuSans-20" transform="translate(616.796875 0)"/>
      <use xlink:href="#DejaVuSans-28" transform="translate(648.583984 0)"/>
      <use xlink:href="#DejaVuSans-6e" transform="translate(687.597656 0)"/>
      <use xlink:href="#DejaVuSans-6f" transform="translate(750.976562 0)"/>
      <use xlink:href="#DejaVuSans-72" transform="translate(812.158203 0)"/>
      <use xlink:href="#DejaVuSans-6d" transform="translate(851.521484 0)"/>
      <use xlink:href="#DejaVuSans-61" transform="translate(948.933594 0)"/>
      <use xlink:href="#DejaVuSans-6c" transform="translate(1010.212891 0)"/>
      <use xlink:href="#DejaVuSans-69" transform="translate(1037.996094 0)"/>
      <use xlink:href="#DejaVuSans-7a" transform="translate(1065.779297 0)"/>
      <use xlink:href="#DejaVuSans-65" transform="translate(1118.269531 0)"/>
      <use xlink:href="#DejaVuSans-64" transform="translate(1179.792969 0)"/>
      <use xlink:href="#DejaVuSans-29" transform="translate(1243.269531 0)"/>
     </g>
    </g>
   </g>
  </g>
 </g>
 <defs>
  <clipPath id="p082972993b">
   <rect x="47.72" y="26.88" width="805.48" height="507.16"/>
  </clipPath>
 </defs>
</svg>
