<?xml version="1.0" encoding="utf-8" standalone="no"?>
<!DOCTYPE svg PUBLIC "-//W3C//DTD SVG 1.1//EN"
  "http://www.w3.org/Graphics/SVG/1.1/DTD/svg11.dtd">
<svg xmlns:xlink="http://www.w3.org/1999/xlink" width="864pt" height="576pt" viewBox="0 0 864 576" xmlns="http://www.w3.org/2000/svg" version="1.1">
 <metadata>
  <rdf:RDF xmlns:dc="http://purl.org/dc/elements/1.1/" xmlns:cc="http://creativecommons.org/ns#" xmlns:rdf="http://www.w3.org/1999/02/22-rdf-syntax-ns#">
   <cc:Work>
    <dc:type rdf:resource="http://purl.org/dc/dcmitype/StillImage"/>
    <dc:date>2025-02-25T11:16:07.811874</dc:date>
    <dc:format>image/svg+xml</dc:format>
    <dc:creator>
     <cc:Agent>
      <dc:title>Matplotlib v3.10.0, https://matplotlib.org/</dc:title>
     </cc:Agent>
    </dc:creator>
   </cc:Work>
  </rdf:RDF>
 </metadata>
 <defs>
  <style type="text/css">*{stroke-linejoin: round; stroke-linecap: butt}</style>
 </defs>
 <g id="figure_1">
  <g id="patch_1">
   <path d="M 0 576 
L 864 576 
L 864 0 
L 0 0 
z
" style="fill: #ffffff"/>
  </g>
  <g id="axes_1">
   <g id="patch_2">
    <path d="M 47.72 534.04 
L 853.2 534.04 
L 853.2 26.88 
L 47.72 26.88 
z
" style="fill: #ffffff"/>
   </g>
   <g id="matplotlib.axis_1">
    <g id="xtick_1">
     <g id="line2d_1">
      <defs>
       <path id="m17663ca6f6" d="M 0 0 
L 0 3.5 
" style="stroke: #000000; stroke-width: 0.8"/>
      </defs>
      <g>
       <use xlink:href="#m17663ca6f6" x="83.100486" y="534.04" style="stroke: #000000; stroke-width: 0.8"/>
      </g>
     </g>
     <g id="text_1">
      <!-- 0 -->
      <g transform="translate(79.919236 548.638438) scale(0.1 -0.1)">
       <defs>
        <path id="DejaVuSans-30" d="M 2034 4250 
Q 1547 4250 1301 3770 
Q 1056 3291 1056 2328 
Q 1056 1369 1301 889 
Q 1547 409 2034 409 
Q 2525 409 2770 889 
Q 3016 1369 3016 2328 
Q 3016 3291 2770 3770 
Q 2525 4250 2034 4250 
z
M 2034 4750 
Q 2819 4750 3233 4129 
Q 3647 3509 3647 2328 
Q 3647 1150 3233 529 
Q 2819 -91 2034 -91 
Q 1250 -91 836 529 
Q 422 1150 422 2328 
Q 422 3509 836 4129 
Q 1250 4750 2034 4750 
z
" transform="scale(0.015625)"/>
       </defs>
       <use xlink:href="#DejaVuSans-30"/>
      </g>
     </g>
    </g>
    <g id="xtick_2">
     <g id="line2d_2">
      <g>
       <use xlink:href="#m17663ca6f6" x="229.795887" y="534.04" style="stroke: #000000; stroke-width: 0.8"/>
      </g>
     </g>
     <g id="text_2">
      <!-- 1 -->
      <g transform="translate(226.614637 548.638438) scale(0.1 -0.1)">
       <defs>
        <path id="DejaVuSans-31" d="M 794 531 
L 1825 531 
L 1825 4091 
L 703 3866 
L 703 4441 
L 1819 4666 
L 2450 4666 
L 2450 531 
L 3481 531 
L 3481 0 
L 794 0 
L 794 531 
z
" transform="scale(0.015625)"/>
       </defs>
       <use xlink:href="#DejaVuSans-31"/>
      </g>
     </g>
    </g>
    <g id="xtick_3">
     <g id="line2d_3">
      <g>
       <use xlink:href="#m17663ca6f6" x="376.491289" y="534.04" style="stroke: #000000; stroke-width: 0.8"/>
      </g>
     </g>
     <g id="text_3">
      <!-- 2 -->
      <g transform="translate(373.310039 548.638438) scale(0.1 -0.1)">
       <defs>
        <path id="DejaVuSans-32" d="M 1228 531 
L 3431 531 
L 3431 0 
L 469 0 
L 469 531 
Q 828 903 1448 1529 
Q 2069 2156 2228 2338 
Q 2531 2678 2651 2914 
Q 2772 3150 2772 3378 
Q 2772 3750 2511 3984 
Q 2250 4219 1831 4219 
Q 1534 4219 1204 4116 
Q 875 4013 500 3803 
L 500 4441 
Q 881 4594 1212 4672 
Q 1544 4750 1819 4750 
Q 2544 4750 2975 4387 
Q 3406 4025 3406 3419 
Q 3406 3131 3298 2873 
Q 3191 2616 2906 2266 
Q 2828 2175 2409 1742 
Q 1991 1309 1228 531 
z
" transform="scale(0.015625)"/>
       </defs>
       <use xlink:href="#DejaVuSans-32"/>
      </g>
     </g>
    </g>
    <g id="xtick_4">
     <g id="line2d_4">
      <g>
       <use xlink:href="#m17663ca6f6" x="523.18669" y="534.04" style="stroke: #000000; stroke-width: 0.8"/>
      </g>
     </g>
     <g id="text_4">
      <!-- 3 -->
      <g transform="translate(520.00544 548.638438) scale(0.1 -0.1)">
       <defs>
        <path id="DejaVuSans-33" d="M 2597 2516 
Q 3050 2419 3304 2112 
Q 3559 1806 3559 1356 
Q 3559 666 3084 287 
Q 2609 -91 1734 -91 
Q 1441 -91 1130 -33 
Q 819 25 488 141 
L 488 750 
Q 750 597 1062 519 
Q 1375 441 1716 441 
Q 2309 441 2620 675 
Q 2931 909 2931 1356 
Q 2931 1769 2642 2001 
Q 2353 2234 1838 2234 
L 1294 2234 
L 1294 2753 
L 1863 2753 
Q 2328 2753 2575 2939 
Q 2822 3125 2822 3475 
Q 2822 3834 2567 4026 
Q 2313 4219 1838 4219 
Q 1578 4219 1281 4162 
Q 984 4106 628 3988 
L 628 4550 
Q 988 4650 1302 4700 
Q 1616 4750 1894 4750 
Q 2613 4750 3031 4423 
Q 3450 4097 3450 3541 
Q 3450 3153 3228 2886 
Q 3006 2619 2597 2516 
z
" transform="scale(0.015625)"/>
       </defs>
       <use xlink:href="#DejaVuSans-33"/>
      </g>
     </g>
    </g>
    <g id="xtick_5">
     <g id="line2d_5">
      <g>
       <use xlink:href="#m17663ca6f6" x="669.882092" y="534.04" style="stroke: #000000; stroke-width: 0.8"/>
      </g>
     </g>
     <g id="text_5">
      <!-- 4 -->
      <g transform="translate(666.700842 548.638438) scale(0.1 -0.1)">
       <defs>
        <path id="DejaVuSans-34" d="M 2419 4116 
L 825 1625 
L 2419 1625 
L 2419 4116 
z
M 2253 4666 
L 3047 4666 
L 3047 1625 
L 3713 1625 
L 3713 1100 
L 3047 1100 
L 3047 0 
L 2419 0 
L 2419 1100 
L 313 1100 
L 313 1709 
L 2253 4666 
z
" transform="scale(0.015625)"/>
       </defs>
       <use xlink:href="#DejaVuSans-34"/>
      </g>
     </g>
    </g>
    <g id="xtick_6">
     <g id="line2d_6">
      <g>
       <use xlink:href="#m17663ca6f6" x="816.577493" y="534.04" style="stroke: #000000; stroke-width: 0.8"/>
      </g>
     </g>
     <g id="text_6">
      <!-- 5 -->
      <g transform="translate(813.396243 548.638438) scale(0.1 -0.1)">
       <defs>
        <path id="DejaVuSans-35" d="M 691 4666 
L 3169 4666 
L 3169 4134 
L 1269 4134 
L 1269 2991 
Q 1406 3038 1543 3061 
Q 1681 3084 1819 3084 
Q 2600 3084 3056 2656 
Q 3513 2228 3513 1497 
Q 3513 744 3044 326 
Q 2575 -91 1722 -91 
Q 1428 -91 1123 -41 
Q 819 9 494 109 
L 494 744 
Q 775 591 1075 516 
Q 1375 441 1709 441 
Q 2250 441 2565 725 
Q 2881 1009 2881 1497 
Q 2881 1984 2565 2268 
Q 2250 2553 1709 2553 
Q 1456 2553 1204 2497 
Q 953 2441 691 2322 
L 691 4666 
z
" transform="scale(0.015625)"/>
       </defs>
       <use xlink:href="#DejaVuSans-35"/>
      </g>
     </g>
    </g>
    <g id="text_7">
     <!-- Retention Time (min) -->
     <g transform="translate(397.61 562.316562) scale(0.1 -0.1)">
      <defs>
       <path id="DejaVuSans-52" d="M 2841 2188 
Q 3044 2119 3236 1894 
Q 3428 1669 3622 1275 
L 4263 0 
L 3584 0 
L 2988 1197 
Q 2756 1666 2539 1819 
Q 2322 1972 1947 1972 
L 1259 1972 
L 1259 0 
L 628 0 
L 628 4666 
L 2053 4666 
Q 2853 4666 3247 4331 
Q 3641 3997 3641 3322 
Q 3641 2881 3436 2590 
Q 3231 2300 2841 2188 
z
M 1259 4147 
L 1259 2491 
L 2053 2491 
Q 2509 2491 2742 2702 
Q 2975 2913 2975 3322 
Q 2975 3731 2742 3939 
Q 2509 4147 2053 4147 
L 1259 4147 
z
" transform="scale(0.015625)"/>
       <path id="DejaVuSans-65" d="M 3597 1894 
L 3597 1613 
L 953 1613 
Q 991 1019 1311 708 
Q 1631 397 2203 397 
Q 2534 397 2845 478 
Q 3156 559 3463 722 
L 3463 178 
Q 3153 47 2828 -22 
Q 2503 -91 2169 -91 
Q 1331 -91 842 396 
Q 353 884 353 1716 
Q 353 2575 817 3079 
Q 1281 3584 2069 3584 
Q 2775 3584 3186 3129 
Q 3597 2675 3597 1894 
z
M 3022 2063 
Q 3016 2534 2758 2815 
Q 2500 3097 2075 3097 
Q 1594 3097 1305 2825 
Q 1016 2553 972 2059 
L 3022 2063 
z
" transform="scale(0.015625)"/>
       <path id="DejaVuSans-74" d="M 1172 4494 
L 1172 3500 
L 2356 3500 
L 2356 3053 
L 1172 3053 
L 1172 1153 
Q 1172 725 1289 603 
Q 1406 481 1766 481 
L 2356 481 
L 2356 0 
L 1766 0 
Q 1100 0 847 248 
Q 594 497 594 1153 
L 594 3053 
L 172 3053 
L 172 3500 
L 594 3500 
L 594 4494 
L 1172 4494 
z
" transform="scale(0.015625)"/>
       <path id="DejaVuSans-6e" d="M 3513 2113 
L 3513 0 
L 2938 0 
L 2938 2094 
Q 2938 2591 2744 2837 
Q 2550 3084 2163 3084 
Q 1697 3084 1428 2787 
Q 1159 2491 1159 1978 
L 1159 0 
L 581 0 
L 581 3500 
L 1159 3500 
L 1159 2956 
Q 1366 3272 1645 3428 
Q 1925 3584 2291 3584 
Q 2894 3584 3203 3211 
Q 3513 2838 3513 2113 
z
" transform="scale(0.015625)"/>
       <path id="DejaVuSans-69" d="M 603 3500 
L 1178 3500 
L 1178 0 
L 603 0 
L 603 3500 
z
M 603 4863 
L 1178 4863 
L 1178 4134 
L 603 4134 
L 603 4863 
z
" transform="scale(0.015625)"/>
       <path id="DejaVuSans-6f" d="M 1959 3097 
Q 1497 3097 1228 2736 
Q 959 2375 959 1747 
Q 959 1119 1226 758 
Q 1494 397 1959 397 
Q 2419 397 2687 759 
Q 2956 1122 2956 1747 
Q 2956 2369 2687 2733 
Q 2419 3097 1959 3097 
z
M 1959 3584 
Q 2709 3584 3137 3096 
Q 3566 2609 3566 1747 
Q 3566 888 3137 398 
Q 2709 -91 1959 -91 
Q 1206 -91 779 398 
Q 353 888 353 1747 
Q 353 2609 779 3096 
Q 1206 3584 1959 3584 
z
" transform="scale(0.015625)"/>
       <path id="DejaVuSans-20" transform="scale(0.015625)"/>
       <path id="DejaVuSans-54" d="M -19 4666 
L 3928 4666 
L 3928 4134 
L 2272 4134 
L 2272 0 
L 1638 0 
L 1638 4134 
L -19 4134 
L -19 4666 
z
" transform="scale(0.015625)"/>
       <path id="DejaVuSans-6d" d="M 3328 2828 
Q 3544 3216 3844 3400 
Q 4144 3584 4550 3584 
Q 5097 3584 5394 3201 
Q 5691 2819 5691 2113 
L 5691 0 
L 5113 0 
L 5113 2094 
Q 5113 2597 4934 2840 
Q 4756 3084 4391 3084 
Q 3944 3084 3684 2787 
Q 3425 2491 3425 1978 
L 3425 0 
L 2847 0 
L 2847 2094 
Q 2847 2600 2669 2842 
Q 2491 3084 2119 3084 
Q 1678 3084 1418 2786 
Q 1159 2488 1159 1978 
L 1159 0 
L 581 0 
L 581 3500 
L 1159 3500 
L 1159 2956 
Q 1356 3278 1631 3431 
Q 1906 3584 2284 3584 
Q 2666 3584 2933 3390 
Q 3200 3197 3328 2828 
z
" transform="scale(0.015625)"/>
       <path id="DejaVuSans-28" d="M 1984 4856 
Q 1566 4138 1362 3434 
Q 1159 2731 1159 2009 
Q 1159 1288 1364 580 
Q 1569 -128 1984 -844 
L 1484 -844 
Q 1016 -109 783 600 
Q 550 1309 550 2009 
Q 550 2706 781 3412 
Q 1013 4119 1484 4856 
L 1984 4856 
z
" transform="scale(0.015625)"/>
       <path id="DejaVuSans-29" d="M 513 4856 
L 1013 4856 
Q 1481 4119 1714 3412 
Q 1947 2706 1947 2009 
Q 1947 1309 1714 600 
Q 1481 -109 1013 -844 
L 513 -844 
Q 928 -128 1133 580 
Q 1338 1288 1338 2009 
Q 1338 2731 1133 3434 
Q 928 4138 513 4856 
z
" transform="scale(0.015625)"/>
      </defs>
      <use xlink:href="#DejaVuSans-52"/>
      <use xlink:href="#DejaVuSans-65" transform="translate(64.982422 0)"/>
      <use xlink:href="#DejaVuSans-74" transform="translate(126.505859 0)"/>
      <use xlink:href="#DejaVuSans-65" transform="translate(165.714844 0)"/>
      <use xlink:href="#DejaVuSans-6e" transform="translate(227.238281 0)"/>
      <use xlink:href="#DejaVuSans-74" transform="translate(290.617188 0)"/>
      <use xlink:href="#DejaVuSans-69" transform="translate(329.826172 0)"/>
      <use xlink:href="#DejaVuSans-6f" transform="translate(357.609375 0)"/>
      <use xlink:href="#DejaVuSans-6e" transform="translate(418.791016 0)"/>
      <use xlink:href="#DejaVuSans-20" transform="translate(482.169922 0)"/>
      <use xlink:href="#DejaVuSans-54" transform="translate(513.957031 0)"/>
      <use xlink:href="#DejaVuSans-69" transform="translate(571.916016 0)"/>
      <use xlink:href="#DejaVuSans-6d" transform="translate(599.699219 0)"/>
      <use xlink:href="#DejaVuSans-65" transform="translate(697.111328 0)"/>
      <use xlink:href="#DejaVuSans-20" transform="translate(758.634766 0)"/>
      <use xlink:href="#DejaVuSans-28" transform="translate(790.421875 0)"/>
      <use xlink:href="#DejaVuSans-6d" transform="translate(829.435547 0)"/>
      <use xlink:href="#DejaVuSans-69" transform="translate(926.847656 0)"/>
      <use xlink:href="#DejaVuSans-6e" transform="translate(954.630859 0)"/>
      <use xlink:href="#DejaVuSans-29" transform="translate(1018.009766 0)"/>
     </g>
    </g>
   </g>
   <g id="matplotlib.axis_2">
    <g id="ytick_1">
     <g id="line2d_7">
      <defs>
       <path id="m8e6b5b3dd7" d="M 0 0 
L -3.5 0 
" style="stroke: #000000; stroke-width: 0.8"/>
      </defs>
      <g>
       <use xlink:href="#m8e6b5b3dd7" x="47.72" y="510.701681" style="stroke: #000000; stroke-width: 0.8"/>
      </g>
     </g>
     <g id="text_8">
      <!-- 0.0 -->
      <g style="fill: #0000ff" transform="translate(24.816875 514.5009) scale(0.1 -0.1)">
       <defs>
        <path id="DejaVuSans-2e" d="M 684 794 
L 1344 794 
L 1344 0 
L 684 0 
L 684 794 
z
" transform="scale(0.015625)"/>
       </defs>
       <use xlink:href="#DejaVuSans-30"/>
       <use xlink:href="#DejaVuSans-2e" transform="translate(63.623047 0)"/>
       <use xlink:href="#DejaVuSans-30" transform="translate(95.410156 0)"/>
      </g>
     </g>
    </g>
    <g id="ytick_2">
     <g id="line2d_8">
      <g>
       <use xlink:href="#m8e6b5b3dd7" x="47.72" y="418.54789" style="stroke: #000000; stroke-width: 0.8"/>
      </g>
     </g>
     <g id="text_9">
      <!-- 0.5 -->
      <g style="fill: #0000ff" transform="translate(24.816875 422.347109) scale(0.1 -0.1)">
       <use xlink:href="#DejaVuSans-30"/>
       <use xlink:href="#DejaVuSans-2e" transform="translate(63.623047 0)"/>
       <use xlink:href="#DejaVuSans-35" transform="translate(95.410156 0)"/>
      </g>
     </g>
    </g>
    <g id="ytick_3">
     <g id="line2d_9">
      <g>
       <use xlink:href="#m8e6b5b3dd7" x="47.72" y="326.3941" style="stroke: #000000; stroke-width: 0.8"/>
      </g>
     </g>
     <g id="text_10">
      <!-- 1.0 -->
      <g style="fill: #0000ff" transform="translate(24.816875 330.193318) scale(0.1 -0.1)">
       <use xlink:href="#DejaVuSans-31"/>
       <use xlink:href="#DejaVuSans-2e" transform="translate(63.623047 0)"/>
       <use xlink:href="#DejaVuSans-30" transform="translate(95.410156 0)"/>
      </g>
     </g>
    </g>
    <g id="ytick_4">
     <g id="line2d_10">
      <g>
       <use xlink:href="#m8e6b5b3dd7" x="47.72" y="234.240309" style="stroke: #000000; stroke-width: 0.8"/>
      </g>
     </g>
     <g id="text_11">
      <!-- 1.5 -->
      <g style="fill: #0000ff" transform="translate(24.816875 238.039528) scale(0.1 -0.1)">
       <use xlink:href="#DejaVuSans-31"/>
       <use xlink:href="#DejaVuSans-2e" transform="translate(63.623047 0)"/>
       <use xlink:href="#DejaVuSans-35" transform="translate(95.410156 0)"/>
      </g>
     </g>
    </g>
    <g id="ytick_5">
     <g id="line2d_11">
      <g>
       <use xlink:href="#m8e6b5b3dd7" x="47.72" y="142.086518" style="stroke: #000000; stroke-width: 0.8"/>
      </g>
     </g>
     <g id="text_12">
      <!-- 2.0 -->
      <g style="fill: #0000ff" transform="translate(24.816875 145.885737) scale(0.1 -0.1)">
       <use xlink:href="#DejaVuSans-32"/>
       <use xlink:href="#DejaVuSans-2e" transform="translate(63.623047 0)"/>
       <use xlink:href="#DejaVuSans-30" transform="translate(95.410156 0)"/>
      </g>
     </g>
    </g>
    <g id="ytick_6">
     <g id="line2d_12">
      <g>
       <use xlink:href="#m8e6b5b3dd7" x="47.72" y="49.932727" style="stroke: #000000; stroke-width: 0.8"/>
      </g>
     </g>
     <g id="text_13">
      <!-- 2.5 -->
      <g style="fill: #0000ff" transform="translate(24.816875 53.731946) scale(0.1 -0.1)">
       <use xlink:href="#DejaVuSans-32"/>
       <use xlink:href="#DejaVuSans-2e" transform="translate(63.623047 0)"/>
       <use xlink:href="#DejaVuSans-35" transform="translate(95.410156 0)"/>
      </g>
     </g>
    </g>
    <g id="text_14">
     <!-- Normalized Intensity -->
     <g style="fill: #0000ff" transform="translate(18.737187 332.167031) rotate(-90) scale(0.1 -0.1)">
      <defs>
       <path id="DejaVuSans-4e" d="M 628 4666 
L 1478 4666 
L 3547 763 
L 3547 4666 
L 4159 4666 
L 4159 0 
L 3309 0 
L 1241 3903 
L 1241 0 
L 628 0 
L 628 4666 
z
" transform="scale(0.015625)"/>
       <path id="DejaVuSans-72" d="M 2631 2963 
Q 2534 3019 2420 3045 
Q 2306 3072 2169 3072 
Q 1681 3072 1420 2755 
Q 1159 2438 1159 1844 
L 1159 0 
L 581 0 
L 581 3500 
L 1159 3500 
L 1159 2956 
Q 1341 3275 1631 3429 
Q 1922 3584 2338 3584 
Q 2397 3584 2469 3576 
Q 2541 3569 2628 3553 
L 2631 2963 
z
" transform="scale(0.015625)"/>
       <path id="DejaVuSans-61" d="M 2194 1759 
Q 1497 1759 1228 1600 
Q 959 1441 959 1056 
Q 959 750 1161 570 
Q 1363 391 1709 391 
Q 2188 391 2477 730 
Q 2766 1069 2766 1631 
L 2766 1759 
L 2194 1759 
z
M 3341 1997 
L 3341 0 
L 2766 0 
L 2766 531 
Q 2569 213 2275 61 
Q 1981 -91 1556 -91 
Q 1019 -91 701 211 
Q 384 513 384 1019 
Q 384 1609 779 1909 
Q 1175 2209 1959 2209 
L 2766 2209 
L 2766 2266 
Q 2766 2663 2505 2880 
Q 2244 3097 1772 3097 
Q 1472 3097 1187 3025 
Q 903 2953 641 2809 
L 641 3341 
Q 956 3463 1253 3523 
Q 1550 3584 1831 3584 
Q 2591 3584 2966 3190 
Q 3341 2797 3341 1997 
z
" transform="scale(0.015625)"/>
       <path id="DejaVuSans-6c" d="M 603 4863 
L 1178 4863 
L 1178 0 
L 603 0 
L 603 4863 
z
" transform="scale(0.015625)"/>
       <path id="DejaVuSans-7a" d="M 353 3500 
L 3084 3500 
L 3084 2975 
L 922 459 
L 3084 459 
L 3084 0 
L 275 0 
L 275 525 
L 2438 3041 
L 353 3041 
L 353 3500 
z
" transform="scale(0.015625)"/>
       <path id="DejaVuSans-64" d="M 2906 2969 
L 2906 4863 
L 3481 4863 
L 3481 0 
L 2906 0 
L 2906 525 
Q 2725 213 2448 61 
Q 2172 -91 1784 -91 
Q 1150 -91 751 415 
Q 353 922 353 1747 
Q 353 2572 751 3078 
Q 1150 3584 1784 3584 
Q 2172 3584 2448 3432 
Q 2725 3281 2906 2969 
z
M 947 1747 
Q 947 1113 1208 752 
Q 1469 391 1925 391 
Q 2381 391 2643 752 
Q 2906 1113 2906 1747 
Q 2906 2381 2643 2742 
Q 2381 3103 1925 3103 
Q 1469 3103 1208 2742 
Q 947 2381 947 1747 
z
" transform="scale(0.015625)"/>
       <path id="DejaVuSans-49" d="M 628 4666 
L 1259 4666 
L 1259 0 
L 628 0 
L 628 4666 
z
" transform="scale(0.015625)"/>
       <path id="DejaVuSans-73" d="M 2834 3397 
L 2834 2853 
Q 2591 2978 2328 3040 
Q 2066 3103 1784 3103 
Q 1356 3103 1142 2972 
Q 928 2841 928 2578 
Q 928 2378 1081 2264 
Q 1234 2150 1697 2047 
L 1894 2003 
Q 2506 1872 2764 1633 
Q 3022 1394 3022 966 
Q 3022 478 2636 193 
Q 2250 -91 1575 -91 
Q 1294 -91 989 -36 
Q 684 19 347 128 
L 347 722 
Q 666 556 975 473 
Q 1284 391 1588 391 
Q 1994 391 2212 530 
Q 2431 669 2431 922 
Q 2431 1156 2273 1281 
Q 2116 1406 1581 1522 
L 1381 1569 
Q 847 1681 609 1914 
Q 372 2147 372 2553 
Q 372 3047 722 3315 
Q 1072 3584 1716 3584 
Q 2034 3584 2315 3537 
Q 2597 3491 2834 3397 
z
" transform="scale(0.015625)"/>
       <path id="DejaVuSans-79" d="M 2059 -325 
Q 1816 -950 1584 -1140 
Q 1353 -1331 966 -1331 
L 506 -1331 
L 506 -850 
L 844 -850 
Q 1081 -850 1212 -737 
Q 1344 -625 1503 -206 
L 1606 56 
L 191 3500 
L 800 3500 
L 1894 763 
L 2988 3500 
L 3597 3500 
L 2059 -325 
z
" transform="scale(0.015625)"/>
      </defs>
      <use xlink:href="#DejaVuSans-4e"/>
      <use xlink:href="#DejaVuSans-6f" transform="translate(74.804688 0)"/>
      <use xlink:href="#DejaVuSans-72" transform="translate(135.986328 0)"/>
      <use xlink:href="#DejaVuSans-6d" transform="translate(175.349609 0)"/>
      <use xlink:href="#DejaVuSans-61" transform="translate(272.761719 0)"/>
      <use xlink:href="#DejaVuSans-6c" transform="translate(334.041016 0)"/>
      <use xlink:href="#DejaVuSans-69" transform="translate(361.824219 0)"/>
      <use xlink:href="#DejaVuSans-7a" transform="translate(389.607422 0)"/>
      <use xlink:href="#DejaVuSans-65" transform="translate(442.097656 0)"/>
      <use xlink:href="#DejaVuSans-64" transform="translate(503.621094 0)"/>
      <use xlink:href="#DejaVuSans-20" transform="translate(567.097656 0)"/>
      <use xlink:href="#DejaVuSans-49" transform="translate(598.884766 0)"/>
      <use xlink:href="#DejaVuSans-6e" transform="translate(628.376953 0)"/>
      <use xlink:href="#DejaVuSans-74" transform="translate(691.755859 0)"/>
      <use xlink:href="#DejaVuSans-65" transform="translate(730.964844 0)"/>
      <use xlink:href="#DejaVuSans-6e" transform="translate(792.488281 0)"/>
      <use xlink:href="#DejaVuSans-73" transform="translate(855.867188 0)"/>
      <use xlink:href="#DejaVuSans-69" transform="translate(907.966797 0)"/>
      <use xlink:href="#DejaVuSans-74" transform="translate(935.75 0)"/>
      <use xlink:href="#DejaVuSans-79" transform="translate(974.958984 0)"/>
     </g>
    </g>
   </g>
   <g id="line2d_13">
    <path d="M 84.332727 510.701681 
L 144.23335 510.647668 
L 149.123196 510.207443 
L 151.56812 510.336545 
L 155.235505 510.616866 
L 160.125351 510.69331 
L 163.792736 510.636507 
L 166.23766 510.369048 
L 171.127506 509.620804 
L 173.57243 509.595012 
L 177.239815 509.936864 
L 182.129662 510.443756 
L 187.019508 510.628379 
L 189.464432 510.987273 
L 190.686893 510.88728 
L 195.57674 509.606036 
L 196.799202 509.592181 
L 199.244125 509.873457 
L 201.689048 510.169522 
L 205.356433 510.335106 
L 207.801357 510.238319 
L 209.023818 509.955575 
L 211.468742 509.069824 
L 212.691204 508.842713 
L 213.913665 508.910554 
L 218.803512 510.01164 
L 226.138282 510.297726 
L 229.805667 510.506956 
L 235.917975 510.457852 
L 244.475207 510.36875 
L 253.032439 510.433284 
L 254.254901 510.345181 
L 255.477362 509.937102 
L 256.699824 508.777902 
L 257.922286 506.569631 
L 260.367209 500.63971 
L 261.589671 498.6644 
L 262.812132 498.119789 
L 264.034594 498.866446 
L 266.479517 501.839724 
L 267.701979 502.93533 
L 268.924441 503.57336 
L 270.146902 504.030955 
L 271.369364 504.629026 
L 272.591826 505.499051 
L 275.036749 507.590886 
L 276.259211 508.45784 
L 277.481672 509.08454 
L 278.704134 509.489889 
L 281.149058 509.887961 
L 284.816443 510.124341 
L 288.483828 510.15295 
L 294.596136 509.681099 
L 295.818598 509.445262 
L 297.041059 508.901137 
L 298.263521 508.149478 
L 299.485983 507.52868 
L 300.708444 507.342387 
L 301.930906 507.637736 
L 305.598291 509.432922 
L 306.820753 509.802806 
L 308.043214 510.0004 
L 310.488138 510.052755 
L 319.04537 509.829281 
L 321.490293 509.67442 
L 323.935216 509.833341 
L 327.602601 510.177091 
L 330.047525 510.139679 
L 333.71491 509.667209 
L 336.159833 509.766529 
L 339.827218 510.189507 
L 342.272141 510.317716 
L 344.717065 510.264182 
L 348.38445 509.939097 
L 350.829373 509.98387 
L 355.71922 510.267755 
L 363.05399 510.318411 
L 369.166298 510.216871 
L 374.056145 510.137168 
L 394.837994 510.291039 
L 398.505379 510.183785 
L 403.395225 509.648047 
L 405.840149 509.83401 
L 409.507534 510.208561 
L 411.952457 510.255096 
L 414.39738 510.136259 
L 416.842304 509.783218 
L 418.064766 509.302552 
L 419.287227 508.47286 
L 420.509689 507.499125 
L 421.732151 506.823698 
L 422.954612 506.761254 
L 424.177074 507.271794 
L 426.621997 508.821196 
L 427.844459 509.36123 
L 429.066921 509.644809 
L 431.511844 509.727318 
L 433.956767 509.628883 
L 435.179229 508.522041 
L 436.401691 502.277584 
L 437.624152 483.323078 
L 438.846614 446.655537 
L 441.291537 352.377403 
L 442.513999 326.3941 
L 443.736461 326.990163 
L 444.958922 350.270752 
L 447.403846 422.037175 
L 448.626307 452.195475 
L 449.848769 473.562306 
L 451.071231 486.944855 
L 452.293693 494.571135 
L 453.516154 498.688168 
L 454.738616 500.913792 
L 455.961078 502.14973 
L 457.183539 502.83671 
L 459.628463 503.6965 
L 460.850924 504.263965 
L 463.295848 505.64668 
L 464.518309 506.024654 
L 465.740771 505.755448 
L 468.185694 503.752082 
L 469.408156 503.267039 
L 470.630618 503.700052 
L 471.853079 504.844874 
L 474.298003 507.455924 
L 475.520464 508.326388 
L 476.742926 508.842665 
L 477.965388 509.104528 
L 481.632773 509.399331 
L 490.190005 509.988746 
L 492.634928 510.010841 
L 499.969698 509.688977 
L 502.414621 509.419581 
L 503.637083 509.405367 
L 506.082006 509.726131 
L 508.52693 510.130655 
L 510.971853 510.316268 
L 520.751547 510.468379 
L 723.680185 510.783802 
L 816.587273 510.801407 
L 816.587273 510.801407 
" clip-path="url(#pa9224e02be)" style="fill: none; stroke: #0000ff; stroke-width: 1.5; stroke-linecap: square"/>
   </g>
   <g id="line2d_14">
    <path d="M 89.613762 234.235631 
L 212.174347 234.113937 
L 212.174347 234.033214 
L 212.858925 234.037608 
L 212.858925 233.889009 
L 213.541792 233.953179 
L 213.541792 233.830305 
L 213.887016 233.976215 
L 213.887016 233.824602 
L 214.231016 233.929375 
L 214.231016 233.798016 
L 214.574283 233.909577 
L 214.574283 233.787739 
L 214.916328 233.775147 
L 215.258129 233.644559 
L 215.604574 233.77224 
L 215.604574 233.661574 
L 216.982044 234.029169 
L 216.982044 233.931419 
L 217.670534 233.908288 
L 226.320673 234.153369 
L 234.667397 234.203404 
L 243.771558 234.192991 
L 258.573613 234.155601 
L 261.726831 233.956298 
L 262.071321 234.049845 
L 262.071321 233.968804 
L 264.487883 233.913561 
L 264.487883 233.818658 
L 265.174662 233.81111 
L 265.516462 233.906202 
L 265.516462 233.812069 
L 267.245512 233.929774 
L 267.245512 233.848499 
L 267.590491 233.979037 
L 270.024167 233.833551 
L 270.024167 233.870305 
L 270.373302 233.949236 
L 270.373302 233.924226 
L 275.651403 233.807442 
L 276.004939 233.925749 
L 276.361898 233.860611 
L 277.067502 233.974044 
L 277.067502 233.972416 
L 279.553501 234.023312 
L 279.553501 234.032009 
L 298.558379 234.174643 
L 340.083935 234.232038 
L 378.200779 234.190367 
L 381.10437 234.150944 
L 391.27085 234.224922 
L 391.27085 234.219887 
L 417.410504 234.220277 
L 417.410504 234.216557 
L 431.41967 234.130658 
L 431.41967 234.075608 
L 432.141656 234.037797 
L 432.141656 233.94006 
L 433.234048 233.618961 
L 433.59663 233.757073 
L 433.59663 233.590967 
L 433.959212 233.764268 
L 433.959212 233.584587 
L 435.047203 233.561771 
L 435.047203 233.572179 
L 435.409541 233.767517 
L 435.409541 233.63745 
L 435.772123 233.793484 
L 435.772123 233.658907 
L 436.13495 233.845504 
L 436.13495 233.728667 
L 436.861581 233.916263 
L 436.861581 233.823408 
L 437.586501 233.968077 
L 437.586501 233.890669 
L 438.320956 233.979835 
L 438.320956 233.886135 
L 438.683538 233.956874 
L 438.683538 233.750322 
L 439.04612 233.753903 
L 439.04612 233.06586 
L 439.414814 232.884205 
L 439.414814 230.898718 
L 439.769328 230.36926 
L 439.769328 225.825887 
L 440.117974 225.314402 
L 440.117974 217.213657 
L 440.462464 204.671676 
L 440.799374 201.841919 
L 440.799374 188.964125 
L 441.133351 164.310709 
L 441.464149 168.440483 
L 441.464149 157.629762 
L 442.124034 103.810563 
L 442.45312 124.695407 
L 442.45312 91.84733 
L 442.782207 71.986011 
L 443.11056 62.889427 
L 443.444781 95.984967 
L 443.444781 59.106222 
L 444.101977 130.041921 
L 444.101977 90.133689 
L 444.43033 123.690126 
L 444.43033 87.090525 
L 444.758928 124.097339 
L 444.758928 86.650557 
L 445.087525 126.696572 
L 445.087525 90.854741 
L 445.415634 126.939798 
L 445.415634 90.048644 
L 445.744232 128.130192 
L 445.744232 89.087939 
L 446.072585 85.278094 
L 446.404361 85.737257 
L 446.404361 89.259567 
L 446.732714 49.932727 
L 447.061557 53.453588 
L 447.390399 95.058701 
L 447.390399 62.371861 
L 447.718996 105.969613 
L 448.048083 106.957236 
L 448.382304 108.332534 
L 448.382304 112.385298 
L 448.711146 112.951318 
L 448.711146 117.104592 
L 449.040722 152.968767 
L 449.040722 126.676661 
L 449.369809 126.677143 
L 449.69914 126.858244 
L 449.69914 131.714432 
L 450.029205 131.724398 
L 450.029205 136.911383 
L 450.35878 167.448903 
L 450.35878 146.184408 
L 450.688845 146.431185 
L 451.019398 147.344973 
L 451.019398 150.421053 
L 451.349952 130.444816 
L 451.680995 160.904691 
L 452.011793 161.651249 
L 452.011793 165.10684 
L 452.343324 168.262064 
L 452.674367 168.331482 
L 452.674367 170.625575 
L 453.005654 170.873578 
L 453.005654 173.79915 
L 453.342809 192.290629 
L 453.342809 178.733455 
L 453.675319 180.02173 
L 454.008562 180.287019 
L 454.008562 183.218024 
L 454.341316 183.224631 
L 454.341316 185.954148 
L 454.675048 200.706737 
L 454.675048 189.235572 
L 455.009269 189.065706 
L 455.342512 189.541692 
L 455.342512 191.011451 
L 455.679911 191.195086 
L 455.679911 193.540184 
L 456.014866 205.615939 
L 456.014866 196.672207 
L 456.351043 197.326757 
L 456.686975 197.353158 
L 456.686975 198.178625 
L 457.022663 198.511309 
L 457.022663 199.266525 
L 457.35884 209.257296 
L 457.35884 201.541673 
L 457.69624 210.738707 
L 457.69624 203.011125 
L 458.032417 211.528226 
L 458.032417 204.106548 
L 458.375684 212.100212 
L 458.375684 204.769473 
L 459.050238 205.486103 
L 459.050238 206.167465 
L 459.389349 199.701777 
L 459.729438 200.063354 
L 460.067326 207.771023 
L 460.067326 202.206088 
L 460.74726 218.125887 
L 460.74726 212.564642 
L 461.088082 218.277228 
L 461.088082 213.082649 
L 461.427682 212.947623 
L 461.767282 207.812208 
L 462.109082 213.535955 
L 462.109082 209.204493 
L 462.792193 221.175889 
L 462.792193 216.877884 
L 463.133016 221.288392 
L 463.133016 217.202877 
L 463.480684 221.898499 
L 463.480684 217.661586 
L 463.826396 222.131002 
L 463.826396 218.32117 
L 464.170641 222.454346 
L 464.170641 218.745477 
L 464.516842 223.090596 
L 464.516842 219.482174 
L 464.86231 223.68361 
L 464.86231 220.001836 
L 465.206066 223.868718 
L 465.206066 220.508996 
L 465.551778 224.184111 
L 465.551778 220.909885 
L 465.897491 224.751643 
L 465.897491 221.416073 
L 466.244181 224.883909 
L 466.244181 221.623088 
L 466.59136 224.899293 
L 466.59136 221.762507 
L 466.939028 225.127386 
L 466.939028 222.029478 
L 467.286941 225.425586 
L 467.286941 222.481656 
L 467.635098 225.647905 
L 467.635098 222.863325 
L 467.983744 226.06736 
L 467.983744 223.344439 
L 468.33239 223.51025 
L 468.685681 220.785517 
L 469.033838 223.703736 
L 469.033838 221.165756 
L 469.728441 227.284814 
L 469.728441 225.166234 
L 470.075376 227.674223 
L 470.075376 225.80304 
L 470.421577 228.249715 
L 470.421577 226.318227 
L 470.767778 228.55515 
L 470.767778 226.800046 
L 471.113735 226.644599 
L 471.459447 224.659761 
L 471.805159 226.716409 
L 471.805159 224.910606 
L 472.151605 224.864352 
L 472.498539 225.101511 
L 472.845474 227.233754 
L 472.845474 225.557514 
L 473.541054 229.658427 
L 473.541054 228.056827 
L 473.894835 229.735088 
L 473.894835 228.178505 
L 474.243725 229.874806 
L 474.243725 228.320447 
L 474.596039 230.019104 
L 474.596039 228.448786 
L 474.945907 230.005933 
L 474.945907 228.627247 
L 475.296509 230.154582 
L 475.296509 228.643523 
L 475.647845 230.297274 
L 475.647845 228.966571 
L 475.99918 230.384725 
L 475.99918 229.059532 
L 476.35076 230.52275 
L 476.35076 229.195442 
L 476.70234 230.536901 
L 476.70234 229.306108 
L 477.055387 230.678805 
L 477.055387 229.438806 
L 477.408923 230.776463 
L 477.408923 229.472514 
L 477.762215 230.722815 
L 477.762215 229.535049 
L 478.470264 229.459794 
L 478.470264 229.632412 
L 478.829913 229.66598 
L 479.184671 230.986465 
L 479.184671 229.913966 
L 479.541385 231.073725 
L 479.541385 230.071823 
L 479.897366 231.260117 
L 479.897366 230.207659 
L 480.252614 231.261689 
L 480.252614 230.283218 
L 480.610306 231.305057 
L 480.610306 230.27026 
L 480.966776 231.367858 
L 480.966776 230.444031 
L 481.682405 230.444461 
L 481.682405 230.605449 
L 482.039364 230.699276 
L 482.398278 231.677445 
L 482.398278 230.864957 
L 482.757927 231.775919 
L 482.757927 230.929088 
L 483.116352 230.802953 
L 483.842739 230.908532 
L 483.842739 230.986454 
L 484.205321 231.992387 
L 484.205321 231.296895 
L 484.565703 232.066029 
L 484.565703 231.330328 
L 485.286466 231.321827 
L 485.647581 230.583131 
L 486.009186 231.397817 
L 487.092042 231.545958 
L 487.092042 231.627406 
L 487.453402 231.678691 
L 487.815739 232.454315 
L 487.815739 231.85743 
L 488.178322 232.50948 
L 488.178322 231.930331 
L 488.540415 232.583091 
L 488.540415 231.946158 
L 488.908376 232.541695 
L 488.908376 232.005192 
L 489.270224 232.548964 
L 489.270224 231.996409 
L 489.632807 232.607556 
L 489.632807 232.014282 
L 489.995389 232.561359 
L 489.995389 231.98316 
L 490.357971 232.546915 
L 490.357971 231.984503 
L 490.720553 232.58973 
L 490.720553 232.042151 
L 491.808299 232.188868 
L 492.172104 232.791038 
L 492.172104 232.217621 
L 492.534686 232.772213 
L 492.534686 232.288058 
L 493.25985 232.206493 
L 493.25985 232.296011 
L 494.718492 232.426942 
L 495.081318 232.964043 
L 495.081318 232.528001 
L 495.443656 233.002783 
L 495.443656 232.573413 
L 495.806238 233.017544 
L 495.806238 232.604465 
L 496.16882 233.026467 
L 496.16882 232.621221 
L 496.531402 233.064521 
L 496.531402 232.66971 
L 496.893984 233.093647 
L 496.893984 232.733353 
L 497.256811 233.146142 
L 497.256811 232.793569 
L 497.619393 233.189634 
L 497.619393 232.793258 
L 498.344313 232.75451 
L 498.344313 232.756247 
L 498.706895 232.813559 
L 499.074856 233.251074 
L 499.074856 232.893001 
L 499.438172 233.260737 
L 499.438172 232.910262 
L 499.800754 233.289162 
L 499.800754 232.947653 
L 500.163336 233.300824 
L 500.163336 232.969269 
L 500.525918 233.303068 
L 500.525918 232.971157 
L 500.8885 233.318903 
L 500.8885 233.011047 
L 501.250838 233.350197 
L 501.250838 233.040746 
L 501.61342 233.376283 
L 501.61342 233.077974 
L 501.976247 233.389839 
L 501.976247 233.083558 
L 502.338829 233.404879 
L 502.338829 233.094396 
L 502.701411 233.399156 
L 502.701411 233.107157 
L 503.063993 233.412756 
L 503.063993 233.129485 
L 503.426331 233.442627 
L 503.426331 233.171448 
L 503.792336 233.463398 
L 503.792336 233.181451 
L 504.160541 233.465822 
L 504.160541 233.175937 
L 504.523123 233.449142 
L 504.523123 233.173784 
L 504.885705 233.453889 
L 504.885705 233.173701 
L 505.248288 233.46164 
L 505.248288 233.190355 
L 505.61087 233.475248 
L 505.61087 233.21623 
L 505.973452 233.498861 
L 505.973452 233.250262 
L 506.336034 233.528419 
L 506.336034 233.24748 
L 506.699594 233.517625 
L 506.699594 233.255447 
L 507.062176 233.514713 
L 507.062176 233.249681 
L 507.424758 233.532427 
L 507.424758 233.28119 
L 507.78734 233.546946 
L 507.78734 233.290059 
L 508.875087 233.29538 
L 508.875087 233.329485 
L 509.243292 233.59349 
L 509.243292 233.356916 
L 509.605874 233.611305 
L 509.605874 233.386451 
L 509.968457 233.603597 
L 509.968457 233.365256 
L 510.331039 233.604584 
L 510.331039 233.388287 
L 510.693621 233.604853 
L 510.693621 233.387911 
L 511.056203 233.633334 
L 511.056203 233.410642 
L 511.418785 233.626858 
L 511.418785 233.401904 
L 511.781367 233.626355 
L 511.781367 233.408546 
L 512.146639 233.626382 
L 512.146639 233.401054 
L 512.509221 233.629499 
L 512.509221 233.425889 
L 512.871803 233.659218 
L 512.871803 233.44034 
L 513.234385 233.662672 
L 513.234385 233.483007 
L 513.596967 233.687019 
L 513.596967 233.458934 
L 513.960772 233.683531 
L 513.960772 233.475857 
L 514.328733 233.669286 
L 514.328733 233.459208 
L 514.691559 233.69015 
L 514.691559 233.516773 
L 515.054142 233.728219 
L 515.054142 233.533484 
L 515.416724 233.74668 
L 515.416724 233.53982 
L 515.779306 233.72799 
L 515.779306 233.532899 
L 516.141888 233.716879 
L 516.141888 233.544841 
L 516.504226 233.742589 
L 516.504226 233.553697 
L 516.867052 233.745118 
L 516.867052 233.575854 
L 517.229634 233.747429 
L 517.229634 233.587154 
L 517.592217 233.768407 
L 517.592217 233.632063 
L 517.954799 233.81195 
L 517.954799 233.629859 
L 518.317381 233.794349 
L 518.317381 233.626141 
L 518.679963 233.767806 
L 518.679963 233.590366 
L 519.042545 233.771879 
L 519.042545 233.593637 
L 519.410506 233.750826 
L 519.410506 233.572678 
L 519.773333 233.744498 
L 519.773333 233.601029 
L 520.135915 233.780248 
L 520.135915 233.630735 
L 520.498497 233.806759 
L 520.498497 233.648132 
L 520.860835 233.801791 
L 520.860835 233.637021 
L 521.223661 233.790243 
L 521.223661 233.663889 
L 521.586243 233.818631 
L 521.586243 233.651408 
L 521.952493 233.810803 
L 521.952493 233.671299 
L 522.315319 233.808373 
L 522.315319 233.664176 
L 522.677902 233.830626 
L 522.677902 233.674136 
L 523.040239 233.825938 
L 523.040239 233.666301 
L 523.402821 233.825244 
L 523.402821 233.691054 
L 523.765404 233.856435 
L 523.765404 233.721339 
L 524.12823 233.887001 
L 524.12823 233.74133 
L 524.496191 233.871511 
L 524.496191 233.728318 
L 524.858773 233.866192 
L 524.858773 233.7053 
L 525.221355 233.840759 
L 525.221355 233.693004 
L 525.583938 233.837438 
L 525.583938 233.693076 
L 525.94652 233.853548 
L 525.94652 233.72371 
L 526.309102 233.871763 
L 526.309102 233.740637 
L 526.671684 233.880652 
L 526.671684 233.749635 
L 527.034511 233.886961 
L 527.034511 233.752737 
L 527.396848 233.877217 
L 527.396848 233.757748 
L 527.75943 233.880677 
L 527.75943 233.760002 
L 528.121768 233.897356 
L 528.121768 233.770461 
L 528.48435 233.893775 
L 528.48435 233.769635 
L 529.209514 233.914724 
L 529.209514 233.790744 
L 529.577475 233.923814 
L 529.577475 233.794203 
L 529.940057 233.911982 
L 529.940057 233.790146 
L 530.664977 233.931972 
L 530.664977 233.823717 
L 531.027559 233.944642 
L 531.027559 233.828201 
L 531.390142 233.938062 
L 531.390142 233.814818 
L 531.756391 233.926536 
L 531.756391 233.808084 
L 532.118973 233.92886 
L 532.118973 233.808565 
L 532.481555 233.929682 
L 532.481555 233.802137 
L 532.844137 233.922815 
L 532.844137 233.802546 
L 533.569302 233.931943 
L 533.569302 233.826223 
L 534.294466 233.968633 
L 534.294466 233.859386 
L 534.663894 233.966112 
L 534.663894 233.852382 
L 535.388814 233.950343 
L 535.388814 233.836805 
L 536.476071 233.83355 
L 536.476071 233.842884 
L 536.838653 233.96992 
L 536.838653 233.86522 
L 537.563573 233.964922 
L 537.563573 233.86583 
L 538.288493 233.974351 
L 538.288493 233.880779 
L 539.375995 233.861344 
L 539.743711 233.975099 
L 539.743711 233.866825 
L 540.106293 233.964513 
L 540.106293 233.870475 
L 541.193795 233.870211 
L 541.193795 233.874884 
L 541.918715 233.987792 
L 541.918715 233.879975 
L 542.646569 233.976912 
L 542.646569 233.873622 
L 543.371488 233.981486 
L 543.371488 233.888434 
L 543.734315 233.992754 
L 543.734315 233.896692 
L 544.826951 233.896602 
L 544.826951 233.908116 
L 545.551871 234.020133 
L 545.551871 233.929346 
L 546.277035 234.005635 
L 546.277035 233.931861 
L 547.364293 233.910375 
L 548.089213 234.010103 
L 548.089213 233.905364 
L 548.814132 233.988133 
L 548.814132 233.891897 
L 549.539052 234.003047 
L 549.539052 233.921197 
L 550.269351 234.008601 
L 550.269351 233.919383 
L 550.994515 234.02049 
L 550.994515 233.950794 
L 552.467092 233.954965 
L 553.192012 234.042567 
L 553.192012 233.970854 
L 553.916932 234.046519 
L 553.916932 233.968251 
L 554.641852 234.03625 
L 554.641852 233.959617 
L 555.009813 234.03283 
L 555.009813 233.953913 
L 557.548377 233.96499 
L 557.910959 234.043866 
L 557.910959 233.968543 
L 558.998216 233.948923 
L 558.998216 233.952263 
L 559.723625 234.046705 
L 559.723625 233.974112 
L 560.091341 234.047912 
L 560.091341 233.970743 
L 565.176048 233.988 
L 565.900968 234.065804 
L 565.900968 234.001067 
L 566.625888 234.063127 
L 566.625888 233.993891 
L 568.43831 233.99307 
L 569.163229 234.06341 
L 569.163229 234.006738 
L 569.888149 234.077483 
L 569.888149 234.011104 
L 570.618203 234.065238 
L 570.618203 234.001755 
L 570.981519 234.069607 
L 570.981519 233.993622 
L 573.884132 234.008233 
L 573.884132 234.022586 
L 574.609296 234.086781 
L 574.609296 234.022433 
L 574.971634 234.084322 
L 574.971634 234.034918 
L 580.051451 234.019449 
L 580.051451 234.03151 
L 580.78175 234.090703 
L 580.78175 234.02808 
L 581.144087 234.084965 
L 581.144087 234.023134 
L 586.591866 234.050236 
L 586.591866 234.054989 
L 587.316785 234.057798 
L 596.393074 234.074593 
L 596.393074 234.079522 
L 597.480332 234.128682 
L 597.480332 234.082677 
L 598.205496 234.068697 
L 604.014634 234.084614 
L 604.739554 234.076703 
L 609.4585 234.088288 
L 609.4585 234.089694 
L 610.18342 234.141715 
L 610.18342 234.098528 
L 614.179403 234.086073 
L 615.268372 234.134852 
L 615.268372 234.096347 
L 616.361008 234.127186 
L 616.361008 234.093973 
L 625.071047 234.108247 
L 625.795967 234.154272 
L 625.795967 234.106872 
L 647.946728 234.080515 
L 647.946728 234.07022 
L 649.03423 234.136638 
L 651.214124 234.053949 
L 652.669831 234.121542 
L 652.669831 234.12422 
L 653.757333 234.123863 
L 675.919096 234.110206 
L 677.011977 234.142463 
L 677.011977 234.148491 
L 678.099479 234.143332 
L 679.550052 234.117829 
L 704.967964 234.14897 
L 714.772596 234.130378 
L 714.772596 234.133918 
L 812.912308 234.139236 
L 812.912308 234.139236 
" clip-path="url(#pa9224e02be)" style="fill: none; stroke: #008000; stroke-width: 1.5; stroke-linecap: square"/>
   </g>
   <g id="patch_3">
    <path d="M 47.72 534.04 
L 47.72 26.88 
" style="fill: none; stroke: #000000; stroke-width: 0.8; stroke-linejoin: miter; stroke-linecap: square"/>
   </g>
   <g id="patch_4">
    <path d="M 853.2 534.04 
L 853.2 26.88 
" style="fill: none; stroke: #000000; stroke-width: 0.8; stroke-linejoin: miter; stroke-linecap: square"/>
   </g>
   <g id="patch_5">
    <path d="M 47.72 534.04 
L 853.2 534.04 
" style="fill: none; stroke: #000000; stroke-width: 0.8; stroke-linejoin: miter; stroke-linecap: square"/>
   </g>
   <g id="patch_6">
    <path d="M 47.72 26.88 
L 853.2 26.88 
" style="fill: none; stroke: #000000; stroke-width: 0.8; stroke-linejoin: miter; stroke-linecap: square"/>
   </g>
   <g id="patch_7">
    <path d="M 514.29216 372.503795 
Q 488.140866 378.333584 461.989572 384.163374 
L 462.85991 388.06754 
Q 456.352564 386.444553 449.845219 384.821566 
Q 455.047057 380.588304 460.248896 376.355042 
L 461.119234 380.259208 
Q 487.270528 374.429418 513.421822 368.599629 
L 514.29216 372.503795 
z
" style="stroke: #000000; stroke-linecap: round"/>
   </g>
   <g id="text_15">
    <!-- Peak: RT=2.48, Area=3.10e+04 -->
    <g style="fill: #ff0000" transform="translate(519.529085 356.009758) scale(0.1 -0.1)">
     <defs>
      <path id="DejaVuSans-50" d="M 1259 4147 
L 1259 2394 
L 2053 2394 
Q 2494 2394 2734 2622 
Q 2975 2850 2975 3272 
Q 2975 3691 2734 3919 
Q 2494 4147 2053 4147 
L 1259 4147 
z
M 628 4666 
L 2053 4666 
Q 2838 4666 3239 4311 
Q 3641 3956 3641 3272 
Q 3641 2581 3239 2228 
Q 2838 1875 2053 1875 
L 1259 1875 
L 1259 0 
L 628 0 
L 628 4666 
z
" transform="scale(0.015625)"/>
      <path id="DejaVuSans-6b" d="M 581 4863 
L 1159 4863 
L 1159 1991 
L 2875 3500 
L 3609 3500 
L 1753 1863 
L 3688 0 
L 2938 0 
L 1159 1709 
L 1159 0 
L 581 0 
L 581 4863 
z
" transform="scale(0.015625)"/>
      <path id="DejaVuSans-3a" d="M 750 794 
L 1409 794 
L 1409 0 
L 750 0 
L 750 794 
z
M 750 3309 
L 1409 3309 
L 1409 2516 
L 750 2516 
L 750 3309 
z
" transform="scale(0.015625)"/>
      <path id="DejaVuSans-3d" d="M 678 2906 
L 4684 2906 
L 4684 2381 
L 678 2381 
L 678 2906 
z
M 678 1631 
L 4684 1631 
L 4684 1100 
L 678 1100 
L 678 1631 
z
" transform="scale(0.015625)"/>
      <path id="DejaVuSans-38" d="M 2034 2216 
Q 1584 2216 1326 1975 
Q 1069 1734 1069 1313 
Q 1069 891 1326 650 
Q 1584 409 2034 409 
Q 2484 409 2743 651 
Q 3003 894 3003 1313 
Q 3003 1734 2745 1975 
Q 2488 2216 2034 2216 
z
M 1403 2484 
Q 997 2584 770 2862 
Q 544 3141 544 3541 
Q 544 4100 942 4425 
Q 1341 4750 2034 4750 
Q 2731 4750 3128 4425 
Q 3525 4100 3525 3541 
Q 3525 3141 3298 2862 
Q 3072 2584 2669 2484 
Q 3125 2378 3379 2068 
Q 3634 1759 3634 1313 
Q 3634 634 3220 271 
Q 2806 -91 2034 -91 
Q 1263 -91 848 271 
Q 434 634 434 1313 
Q 434 1759 690 2068 
Q 947 2378 1403 2484 
z
M 1172 3481 
Q 1172 3119 1398 2916 
Q 1625 2713 2034 2713 
Q 2441 2713 2670 2916 
Q 2900 3119 2900 3481 
Q 2900 3844 2670 4047 
Q 2441 4250 2034 4250 
Q 1625 4250 1398 4047 
Q 1172 3844 1172 3481 
z
" transform="scale(0.015625)"/>
      <path id="DejaVuSans-2c" d="M 750 794 
L 1409 794 
L 1409 256 
L 897 -744 
L 494 -744 
L 750 256 
L 750 794 
z
" transform="scale(0.015625)"/>
      <path id="DejaVuSans-41" d="M 2188 4044 
L 1331 1722 
L 3047 1722 
L 2188 4044 
z
M 1831 4666 
L 2547 4666 
L 4325 0 
L 3669 0 
L 3244 1197 
L 1141 1197 
L 716 0 
L 50 0 
L 1831 4666 
z
" transform="scale(0.015625)"/>
      <path id="DejaVuSans-2b" d="M 2944 4013 
L 2944 2272 
L 4684 2272 
L 4684 1741 
L 2944 1741 
L 2944 0 
L 2419 0 
L 2419 1741 
L 678 1741 
L 678 2272 
L 2419 2272 
L 2419 4013 
L 2944 4013 
z
" transform="scale(0.015625)"/>
     </defs>
     <use xlink:href="#DejaVuSans-50"/>
     <use xlink:href="#DejaVuSans-65" transform="translate(56.677734 0)"/>
     <use xlink:href="#DejaVuSans-61" transform="translate(118.201172 0)"/>
     <use xlink:href="#DejaVuSans-6b" transform="translate(179.480469 0)"/>
     <use xlink:href="#DejaVuSans-3a" transform="translate(237.390625 0)"/>
     <use xlink:href="#DejaVuSans-20" transform="translate(271.082031 0)"/>
     <use xlink:href="#DejaVuSans-52" transform="translate(302.869141 0)"/>
     <use xlink:href="#DejaVuSans-54" transform="translate(365.101562 0)"/>
     <use xlink:href="#DejaVuSans-3d" transform="translate(426.185547 0)"/>
     <use xlink:href="#DejaVuSans-32" transform="translate(509.974609 0)"/>
     <use xlink:href="#DejaVuSans-2e" transform="translate(573.597656 0)"/>
     <use xlink:href="#DejaVuSans-34" transform="translate(605.384766 0)"/>
     <use xlink:href="#DejaVuSans-38" transform="translate(669.007812 0)"/>
     <use xlink:href="#DejaVuSans-2c" transform="translate(732.630859 0)"/>
     <use xlink:href="#DejaVuSans-20" transform="translate(764.417969 0)"/>
     <use xlink:href="#DejaVuSans-41" transform="translate(796.205078 0)"/>
     <use xlink:href="#DejaVuSans-72" transform="translate(864.613281 0)"/>
     <use xlink:href="#DejaVuSans-65" transform="translate(903.476562 0)"/>
     <use xlink:href="#DejaVuSans-61" transform="translate(965 0)"/>
     <use xlink:href="#DejaVuSans-3d" transform="translate(1026.279297 0)"/>
     <use xlink:href="#DejaVuSans-33" transform="translate(1110.068359 0)"/>
     <use xlink:href="#DejaVuSans-2e" transform="translate(1173.691406 0)"/>
     <use xlink:href="#DejaVuSans-31" transform="translate(1205.478516 0)"/>
     <use xlink:href="#DejaVuSans-30" transform="translate(1269.101562 0)"/>
     <use xlink:href="#DejaVuSans-65" transform="translate(1332.724609 0)"/>
     <use xlink:href="#DejaVuSans-2b" transform="translate(1394.248047 0)"/>
     <use xlink:href="#DejaVuSans-30" transform="translate(1478.037109 0)"/>
     <use xlink:href="#DejaVuSans-34" transform="translate(1541.660156 0)"/>
    </g>
    <!-- (85.27% of total) -->
    <g style="fill: #ff0000" transform="translate(519.529085 367.20757) scale(0.1 -0.1)">
     <defs>
      <path id="DejaVuSans-37" d="M 525 4666 
L 3525 4666 
L 3525 4397 
L 1831 0 
L 1172 0 
L 2766 4134 
L 525 4134 
L 525 4666 
z
" transform="scale(0.015625)"/>
      <path id="DejaVuSans-25" d="M 4653 2053 
Q 4381 2053 4226 1822 
Q 4072 1591 4072 1178 
Q 4072 772 4226 539 
Q 4381 306 4653 306 
Q 4919 306 5073 539 
Q 5228 772 5228 1178 
Q 5228 1588 5073 1820 
Q 4919 2053 4653 2053 
z
M 4653 2450 
Q 5147 2450 5437 2106 
Q 5728 1763 5728 1178 
Q 5728 594 5436 251 
Q 5144 -91 4653 -91 
Q 4153 -91 3862 251 
Q 3572 594 3572 1178 
Q 3572 1766 3864 2108 
Q 4156 2450 4653 2450 
z
M 1428 4353 
Q 1159 4353 1004 4120 
Q 850 3888 850 3481 
Q 850 3069 1003 2837 
Q 1156 2606 1428 2606 
Q 1700 2606 1854 2837 
Q 2009 3069 2009 3481 
Q 2009 3884 1853 4118 
Q 1697 4353 1428 4353 
z
M 4250 4750 
L 4750 4750 
L 1831 -91 
L 1331 -91 
L 4250 4750 
z
M 1428 4750 
Q 1922 4750 2215 4408 
Q 2509 4066 2509 3481 
Q 2509 2891 2217 2550 
Q 1925 2209 1428 2209 
Q 931 2209 642 2551 
Q 353 2894 353 3481 
Q 353 4063 643 4406 
Q 934 4750 1428 4750 
z
" transform="scale(0.015625)"/>
      <path id="DejaVuSans-66" d="M 2375 4863 
L 2375 4384 
L 1825 4384 
Q 1516 4384 1395 4259 
Q 1275 4134 1275 3809 
L 1275 3500 
L 2222 3500 
L 2222 3053 
L 1275 3053 
L 1275 0 
L 697 0 
L 697 3053 
L 147 3053 
L 147 3500 
L 697 3500 
L 697 3744 
Q 697 4328 969 4595 
Q 1241 4863 1831 4863 
L 2375 4863 
z
" transform="scale(0.015625)"/>
     </defs>
     <use xlink:href="#DejaVuSans-28"/>
     <use xlink:href="#DejaVuSans-38" transform="translate(39.013672 0)"/>
     <use xlink:href="#DejaVuSans-35" transform="translate(102.636719 0)"/>
     <use xlink:href="#DejaVuSans-2e" transform="translate(166.259766 0)"/>
     <use xlink:href="#DejaVuSans-32" transform="translate(198.046875 0)"/>
     <use xlink:href="#DejaVuSans-37" transform="translate(261.669922 0)"/>
     <use xlink:href="#DejaVuSans-25" transform="translate(325.292969 0)"/>
     <use xlink:href="#DejaVuSans-20" transform="translate(420.3125 0)"/>
     <use xlink:href="#DejaVuSans-6f" transform="translate(452.099609 0)"/>
     <use xlink:href="#DejaVuSans-66" transform="translate(513.28125 0)"/>
     <use xlink:href="#DejaVuSans-20" transform="translate(548.486328 0)"/>
     <use xlink:href="#DejaVuSans-74" transform="translate(580.273438 0)"/>
     <use xlink:href="#DejaVuSans-6f" transform="translate(619.482422 0)"/>
     <use xlink:href="#DejaVuSans-74" transform="translate(680.664062 0)"/>
     <use xlink:href="#DejaVuSans-61" transform="translate(719.873047 0)"/>
     <use xlink:href="#DejaVuSans-6c" transform="translate(781.152344 0)"/>
     <use xlink:href="#DejaVuSans-29" transform="translate(808.935547 0)"/>
    </g>
   </g>
   <g id="text_16">
    <!-- UV &amp; MS Chromatograms: IrCp1N8, target m/z=637.0563266 -->
    <g transform="translate(265.740625 20.88) scale(0.12 -0.12)">
     <defs>
      <path id="DejaVuSans-55" d="M 556 4666 
L 1191 4666 
L 1191 1831 
Q 1191 1081 1462 751 
Q 1734 422 2344 422 
Q 2950 422 3222 751 
Q 3494 1081 3494 1831 
L 3494 4666 
L 4128 4666 
L 4128 1753 
Q 4128 841 3676 375 
Q 3225 -91 2344 -91 
Q 1459 -91 1007 375 
Q 556 841 556 1753 
L 556 4666 
z
" transform="scale(0.015625)"/>
      <path id="DejaVuSans-56" d="M 1831 0 
L 50 4666 
L 709 4666 
L 2188 738 
L 3669 4666 
L 4325 4666 
L 2547 0 
L 1831 0 
z
" transform="scale(0.015625)"/>
      <path id="DejaVuSans-26" d="M 1556 2509 
Q 1272 2256 1139 2004 
Q 1006 1753 1006 1478 
Q 1006 1022 1337 719 
Q 1669 416 2169 416 
Q 2466 416 2725 514 
Q 2984 613 3213 813 
L 1556 2509 
z
M 1997 2859 
L 3584 1234 
Q 3769 1513 3872 1830 
Q 3975 2147 3994 2503 
L 4575 2503 
Q 4538 2091 4375 1687 
Q 4213 1284 3922 891 
L 4794 0 
L 4006 0 
L 3559 459 
Q 3234 181 2878 45 
Q 2522 -91 2113 -91 
Q 1359 -91 881 339 
Q 403 769 403 1441 
Q 403 1841 612 2192 
Q 822 2544 1241 2853 
Q 1091 3050 1012 3245 
Q 934 3441 934 3628 
Q 934 4134 1281 4442 
Q 1628 4750 2203 4750 
Q 2463 4750 2720 4694 
Q 2978 4638 3244 4525 
L 3244 3956 
Q 2972 4103 2725 4179 
Q 2478 4256 2266 4256 
Q 1938 4256 1733 4082 
Q 1528 3909 1528 3634 
Q 1528 3475 1620 3314 
Q 1713 3153 1997 2859 
z
" transform="scale(0.015625)"/>
      <path id="DejaVuSans-4d" d="M 628 4666 
L 1569 4666 
L 2759 1491 
L 3956 4666 
L 4897 4666 
L 4897 0 
L 4281 0 
L 4281 4097 
L 3078 897 
L 2444 897 
L 1241 4097 
L 1241 0 
L 628 0 
L 628 4666 
z
" transform="scale(0.015625)"/>
      <path id="DejaVuSans-53" d="M 3425 4513 
L 3425 3897 
Q 3066 4069 2747 4153 
Q 2428 4238 2131 4238 
Q 1616 4238 1336 4038 
Q 1056 3838 1056 3469 
Q 1056 3159 1242 3001 
Q 1428 2844 1947 2747 
L 2328 2669 
Q 3034 2534 3370 2195 
Q 3706 1856 3706 1288 
Q 3706 609 3251 259 
Q 2797 -91 1919 -91 
Q 1588 -91 1214 -16 
Q 841 59 441 206 
L 441 856 
Q 825 641 1194 531 
Q 1563 422 1919 422 
Q 2459 422 2753 634 
Q 3047 847 3047 1241 
Q 3047 1584 2836 1778 
Q 2625 1972 2144 2069 
L 1759 2144 
Q 1053 2284 737 2584 
Q 422 2884 422 3419 
Q 422 4038 858 4394 
Q 1294 4750 2059 4750 
Q 2388 4750 2728 4690 
Q 3069 4631 3425 4513 
z
" transform="scale(0.015625)"/>
      <path id="DejaVuSans-43" d="M 4122 4306 
L 4122 3641 
Q 3803 3938 3442 4084 
Q 3081 4231 2675 4231 
Q 1875 4231 1450 3742 
Q 1025 3253 1025 2328 
Q 1025 1406 1450 917 
Q 1875 428 2675 428 
Q 3081 428 3442 575 
Q 3803 722 4122 1019 
L 4122 359 
Q 3791 134 3420 21 
Q 3050 -91 2638 -91 
Q 1578 -91 968 557 
Q 359 1206 359 2328 
Q 359 3453 968 4101 
Q 1578 4750 2638 4750 
Q 3056 4750 3426 4639 
Q 3797 4528 4122 4306 
z
" transform="scale(0.015625)"/>
      <path id="DejaVuSans-68" d="M 3513 2113 
L 3513 0 
L 2938 0 
L 2938 2094 
Q 2938 2591 2744 2837 
Q 2550 3084 2163 3084 
Q 1697 3084 1428 2787 
Q 1159 2491 1159 1978 
L 1159 0 
L 581 0 
L 581 4863 
L 1159 4863 
L 1159 2956 
Q 1366 3272 1645 3428 
Q 1925 3584 2291 3584 
Q 2894 3584 3203 3211 
Q 3513 2838 3513 2113 
z
" transform="scale(0.015625)"/>
      <path id="DejaVuSans-67" d="M 2906 1791 
Q 2906 2416 2648 2759 
Q 2391 3103 1925 3103 
Q 1463 3103 1205 2759 
Q 947 2416 947 1791 
Q 947 1169 1205 825 
Q 1463 481 1925 481 
Q 2391 481 2648 825 
Q 2906 1169 2906 1791 
z
M 3481 434 
Q 3481 -459 3084 -895 
Q 2688 -1331 1869 -1331 
Q 1566 -1331 1297 -1286 
Q 1028 -1241 775 -1147 
L 775 -588 
Q 1028 -725 1275 -790 
Q 1522 -856 1778 -856 
Q 2344 -856 2625 -561 
Q 2906 -266 2906 331 
L 2906 616 
Q 2728 306 2450 153 
Q 2172 0 1784 0 
Q 1141 0 747 490 
Q 353 981 353 1791 
Q 353 2603 747 3093 
Q 1141 3584 1784 3584 
Q 2172 3584 2450 3431 
Q 2728 3278 2906 2969 
L 2906 3500 
L 3481 3500 
L 3481 434 
z
" transform="scale(0.015625)"/>
      <path id="DejaVuSans-70" d="M 1159 525 
L 1159 -1331 
L 581 -1331 
L 581 3500 
L 1159 3500 
L 1159 2969 
Q 1341 3281 1617 3432 
Q 1894 3584 2278 3584 
Q 2916 3584 3314 3078 
Q 3713 2572 3713 1747 
Q 3713 922 3314 415 
Q 2916 -91 2278 -91 
Q 1894 -91 1617 61 
Q 1341 213 1159 525 
z
M 3116 1747 
Q 3116 2381 2855 2742 
Q 2594 3103 2138 3103 
Q 1681 3103 1420 2742 
Q 1159 2381 1159 1747 
Q 1159 1113 1420 752 
Q 1681 391 2138 391 
Q 2594 391 2855 752 
Q 3116 1113 3116 1747 
z
" transform="scale(0.015625)"/>
      <path id="DejaVuSans-2f" d="M 1625 4666 
L 2156 4666 
L 531 -594 
L 0 -594 
L 1625 4666 
z
" transform="scale(0.015625)"/>
      <path id="DejaVuSans-36" d="M 2113 2584 
Q 1688 2584 1439 2293 
Q 1191 2003 1191 1497 
Q 1191 994 1439 701 
Q 1688 409 2113 409 
Q 2538 409 2786 701 
Q 3034 994 3034 1497 
Q 3034 2003 2786 2293 
Q 2538 2584 2113 2584 
z
M 3366 4563 
L 3366 3988 
Q 3128 4100 2886 4159 
Q 2644 4219 2406 4219 
Q 1781 4219 1451 3797 
Q 1122 3375 1075 2522 
Q 1259 2794 1537 2939 
Q 1816 3084 2150 3084 
Q 2853 3084 3261 2657 
Q 3669 2231 3669 1497 
Q 3669 778 3244 343 
Q 2819 -91 2113 -91 
Q 1303 -91 875 529 
Q 447 1150 447 2328 
Q 447 3434 972 4092 
Q 1497 4750 2381 4750 
Q 2619 4750 2861 4703 
Q 3103 4656 3366 4563 
z
" transform="scale(0.015625)"/>
     </defs>
     <use xlink:href="#DejaVuSans-55"/>
     <use xlink:href="#DejaVuSans-56" transform="translate(73.193359 0)"/>
     <use xlink:href="#DejaVuSans-20" transform="translate(141.601562 0)"/>
     <use xlink:href="#DejaVuSans-26" transform="translate(173.388672 0)"/>
     <use xlink:href="#DejaVuSans-20" transform="translate(251.367188 0)"/>
     <use xlink:href="#DejaVuSans-4d" transform="translate(283.154297 0)"/>
     <use xlink:href="#DejaVuSans-53" transform="translate(369.433594 0)"/>
     <use xlink:href="#DejaVuSans-20" transform="translate(432.910156 0)"/>
     <use xlink:href="#DejaVuSans-43" transform="translate(464.697266 0)"/>
     <use xlink:href="#DejaVuSans-68" transform="translate(534.521484 0)"/>
     <use xlink:href="#DejaVuSans-72" transform="translate(597.900391 0)"/>
     <use xlink:href="#DejaVuSans-6f" transform="translate(636.763672 0)"/>
     <use xlink:href="#DejaVuSans-6d" transform="translate(697.945312 0)"/>
     <use xlink:href="#DejaVuSans-61" transform="translate(795.357422 0)"/>
     <use xlink:href="#DejaVuSans-74" transform="translate(856.636719 0)"/>
     <use xlink:href="#DejaVuSans-6f" transform="translate(895.845703 0)"/>
     <use xlink:href="#DejaVuSans-67" transform="translate(957.027344 0)"/>
     <use xlink:href="#DejaVuSans-72" transform="translate(1020.503906 0)"/>
     <use xlink:href="#DejaVuSans-61" transform="translate(1061.617188 0)"/>
     <use xlink:href="#DejaVuSans-6d" transform="translate(1122.896484 0)"/>
     <use xlink:href="#DejaVuSans-73" transform="translate(1220.308594 0)"/>
     <use xlink:href="#DejaVuSans-3a" transform="translate(1272.408203 0)"/>
     <use xlink:href="#DejaVuSans-20" transform="translate(1306.099609 0)"/>
     <use xlink:href="#DejaVuSans-49" transform="translate(1337.886719 0)"/>
     <use xlink:href="#DejaVuSans-72" transform="translate(1367.378906 0)"/>
     <use xlink:href="#DejaVuSans-43" transform="translate(1408.492188 0)"/>
     <use xlink:href="#DejaVuSans-70" transform="translate(1478.316406 0)"/>
     <use xlink:href="#DejaVuSans-31" transform="translate(1541.792969 0)"/>
     <use xlink:href="#DejaVuSans-4e" transform="translate(1605.416016 0)"/>
     <use xlink:href="#DejaVuSans-38" transform="translate(1680.220703 0)"/>
     <use xlink:href="#DejaVuSans-2c" transform="translate(1743.84375 0)"/>
     <use xlink:href="#DejaVuSans-20" transform="translate(1775.630859 0)"/>
     <use xlink:href="#DejaVuSans-74" transform="translate(1807.417969 0)"/>
     <use xlink:href="#DejaVuSans-61" transform="translate(1846.626953 0)"/>
     <use xlink:href="#DejaVuSans-72" transform="translate(1907.90625 0)"/>
     <use xlink:href="#DejaVuSans-67" transform="translate(1947.269531 0)"/>
     <use xlink:href="#DejaVuSans-65" transform="translate(2010.746094 0)"/>
     <use xlink:href="#DejaVuSans-74" transform="translate(2072.269531 0)"/>
     <use xlink:href="#DejaVuSans-20" transform="translate(2111.478516 0)"/>
     <use xlink:href="#DejaVuSans-6d" transform="translate(2143.265625 0)"/>
     <use xlink:href="#DejaVuSans-2f" transform="translate(2240.677734 0)"/>
     <use xlink:href="#DejaVuSans-7a" transform="translate(2274.369141 0)"/>
     <use xlink:href="#DejaVuSans-3d" transform="translate(2326.859375 0)"/>
     <use xlink:href="#DejaVuSans-36" transform="translate(2410.648438 0)"/>
     <use xlink:href="#DejaVuSans-33" transform="translate(2474.271484 0)"/>
     <use xlink:href="#DejaVuSans-37" transform="translate(2537.894531 0)"/>
     <use xlink:href="#DejaVuSans-2e" transform="translate(2601.517578 0)"/>
     <use xlink:href="#DejaVuSans-30" transform="translate(2633.304688 0)"/>
     <use xlink:href="#DejaVuSans-35" transform="translate(2696.927734 0)"/>
     <use xlink:href="#DejaVuSans-36" transform="translate(2760.550781 0)"/>
     <use xlink:href="#DejaVuSans-33" transform="translate(2824.173828 0)"/>
     <use xlink:href="#DejaVuSans-32" transform="translate(2887.796875 0)"/>
     <use xlink:href="#DejaVuSans-36" transform="translate(2951.419922 0)"/>
     <use xlink:href="#DejaVuSans-36" transform="translate(3015.042969 0)"/>
    </g>
   </g>
   <g id="legend_1">
    <g id="patch_8">
     <path d="M 685.971875 64.23625 
L 846.2 64.23625 
Q 848.2 64.23625 848.2 62.23625 
L 848.2 33.88 
Q 848.2 31.88 846.2 31.88 
L 685.971875 31.88 
Q 683.971875 31.88 683.971875 33.88 
L 683.971875 62.23625 
Q 683.971875 64.23625 685.971875 64.23625 
z
" style="fill: #ffffff; opacity: 0.8; stroke: #cccccc; stroke-linejoin: miter"/>
    </g>
    <g id="line2d_15">
     <path d="M 687.971875 39.978437 
L 697.971875 39.978437 
L 707.971875 39.978437 
" style="fill: none; stroke: #0000ff; stroke-width: 1.5; stroke-linecap: square"/>
    </g>
    <g id="text_17">
     <!-- UV Intensity (normalized) -->
     <g transform="translate(715.971875 43.478437) scale(0.1 -0.1)">
      <use xlink:href="#DejaVuSans-55"/>
      <use xlink:href="#DejaVuSans-56" transform="translate(73.193359 0)"/>
      <use xlink:href="#DejaVuSans-20" transform="translate(141.601562 0)"/>
      <use xlink:href="#DejaVuSans-49" transform="translate(173.388672 0)"/>
      <use xlink:href="#DejaVuSans-6e" transform="translate(202.880859 0)"/>
      <use xlink:href="#DejaVuSans-74" transform="translate(266.259766 0)"/>
      <use xlink:href="#DejaVuSans-65" transform="translate(305.46875 0)"/>
      <use xlink:href="#DejaVuSans-6e" transform="translate(366.992188 0)"/>
      <use xlink:href="#DejaVuSans-73" transform="translate(430.371094 0)"/>
      <use xlink:href="#DejaVuSans-69" transform="translate(482.470703 0)"/>
      <use xlink:href="#DejaVuSans-74" transform="translate(510.253906 0)"/>
      <use xlink:href="#DejaVuSans-79" transform="translate(549.462891 0)"/>
      <use xlink:href="#DejaVuSans-20" transform="translate(608.642578 0)"/>
      <use xlink:href="#DejaVuSans-28" transform="translate(640.429688 0)"/>
      <use xlink:href="#DejaVuSans-6e" transform="translate(679.443359 0)"/>
      <use xlink:href="#DejaVuSans-6f" transform="translate(742.822266 0)"/>
      <use xlink:href="#DejaVuSans-72" transform="translate(804.003906 0)"/>
      <use xlink:href="#DejaVuSans-6d" transform="translate(843.367188 0)"/>
      <use xlink:href="#DejaVuSans-61" transform="translate(940.779297 0)"/>
      <use xlink:href="#DejaVuSans-6c" transform="translate(1002.058594 0)"/>
      <use xlink:href="#DejaVuSans-69" transform="translate(1029.841797 0)"/>
      <use xlink:href="#DejaVuSans-7a" transform="translate(1057.625 0)"/>
      <use xlink:href="#DejaVuSans-65" transform="translate(1110.115234 0)"/>
      <use xlink:href="#DejaVuSans-64" transform="translate(1171.638672 0)"/>
      <use xlink:href="#DejaVuSans-29" transform="translate(1235.115234 0)"/>
     </g>
    </g>
    <g id="line2d_16">
     <path d="M 687.971875 54.656562 
L 697.971875 54.656562 
L 707.971875 54.656562 
" style="fill: none; stroke: #008000; stroke-width: 1.5; stroke-linecap: square"/>
    </g>
    <g id="text_18">
     <!-- MS Intensity (normalized) -->
     <g transform="translate(715.971875 58.156562) scale(0.1 -0.1)">
      <use xlink:href="#DejaVuSans-4d"/>
      <use xlink:href="#DejaVuSans-53" transform="translate(86.279297 0)"/>
      <use xlink:href="#DejaVuSans-20" transform="translate(149.755859 0)"/>
      <use xlink:href="#DejaVuSans-49" transform="translate(181.542969 0)"/>
      <use xlink:href="#DejaVuSans-6e" transform="translate(211.035156 0)"/>
      <use xlink:href="#DejaVuSans-74" transform="translate(274.414062 0)"/>
      <use xlink:href="#DejaVuSans-65" transform="translate(313.623047 0)"/>
      <use xlink:href="#DejaVuSans-6e" transform="translate(375.146484 0)"/>
      <use xlink:href="#DejaVuSans-73" transform="translate(438.525391 0)"/>
      <use xlink:href="#DejaVuSans-69" transform="translate(490.625 0)"/>
      <use xlink:href="#DejaVuSans-74" transform="translate(518.408203 0)"/>
      <use xlink:href="#DejaVuSans-79" transform="translate(557.617188 0)"/>
      <use xlink:href="#DejaVuSans-20" transform="translate(616.796875 0)"/>
      <use xlink:href="#DejaVuSans-28" transform="translate(648.583984 0)"/>
      <use xlink:href="#DejaVuSans-6e" transform="translate(687.597656 0)"/>
      <use xlink:href="#DejaVuSans-6f" transform="translate(750.976562 0)"/>
      <use xlink:href="#DejaVuSans-72" transform="translate(812.158203 0)"/>
      <use xlink:href="#DejaVuSans-6d" transform="translate(851.521484 0)"/>
      <use xlink:href="#DejaVuSans-61" transform="translate(948.933594 0)"/>
      <use xlink:href="#DejaVuSans-6c" transform="translate(1010.212891 0)"/>
      <use xlink:href="#DejaVuSans-69" transform="translate(1037.996094 0)"/>
      <use xlink:href="#DejaVuSans-7a" transform="translate(1065.779297 0)"/>
      <use xlink:href="#DejaVuSans-65" transform="translate(1118.269531 0)"/>
      <use xlink:href="#DejaVuSans-64" transform="translate(1179.792969 0)"/>
      <use xlink:href="#DejaVuSans-29" transform="translate(1243.269531 0)"/>
     </g>
    </g>
   </g>
  </g>
 </g>
 <defs>
  <clipPath id="pa9224e02be">
   <rect x="47.72" y="26.88" width="805.48" height="507.16"/>
  </clipPath>
 </defs>
</svg>
