<?xml version="1.0" encoding="utf-8" standalone="no"?>
<!DOCTYPE svg PUBLIC "-//W3C//DTD SVG 1.1//EN"
  "http://www.w3.org/Graphics/SVG/1.1/DTD/svg11.dtd">
<svg xmlns:xlink="http://www.w3.org/1999/xlink" width="864pt" height="576pt" viewBox="0 0 864 576" xmlns="http://www.w3.org/2000/svg" version="1.1">
 <metadata>
  <rdf:RDF xmlns:dc="http://purl.org/dc/elements/1.1/" xmlns:cc="http://creativecommons.org/ns#" xmlns:rdf="http://www.w3.org/1999/02/22-rdf-syntax-ns#">
   <cc:Work>
    <dc:type rdf:resource="http://purl.org/dc/dcmitype/StillImage"/>
    <dc:date>2025-02-25T11:10:31.402591</dc:date>
    <dc:format>image/svg+xml</dc:format>
    <dc:creator>
     <cc:Agent>
      <dc:title>Matplotlib v3.10.0, https://matplotlib.org/</dc:title>
     </cc:Agent>
    </dc:creator>
   </cc:Work>
  </rdf:RDF>
 </metadata>
 <defs>
  <style type="text/css">*{stroke-linejoin: round; stroke-linecap: butt}</style>
 </defs>
 <g id="figure_1">
  <g id="patch_1">
   <path d="M 0 576 
L 864 576 
L 864 0 
L 0 0 
z
" style="fill: #ffffff"/>
  </g>
  <g id="axes_1">
   <g id="patch_2">
    <path d="M 47.72 534.04 
L 853.2 534.04 
L 853.2 26.88 
L 47.72 26.88 
z
" style="fill: #ffffff"/>
   </g>
   <g id="matplotlib.axis_1">
    <g id="xtick_1">
     <g id="line2d_1">
      <defs>
       <path id="mbd3f678e49" d="M 0 0 
L 0 3.5 
" style="stroke: #000000; stroke-width: 0.8"/>
      </defs>
      <g>
       <use xlink:href="#mbd3f678e49" x="83.098041" y="534.04" style="stroke: #000000; stroke-width: 0.8"/>
      </g>
     </g>
     <g id="text_1">
      <!-- 0 -->
      <g transform="translate(79.916791 548.638438) scale(0.1 -0.1)">
       <defs>
        <path id="DejaVuSans-30" d="M 2034 4250 
Q 1547 4250 1301 3770 
Q 1056 3291 1056 2328 
Q 1056 1369 1301 889 
Q 1547 409 2034 409 
Q 2525 409 2770 889 
Q 3016 1369 3016 2328 
Q 3016 3291 2770 3770 
Q 2525 4250 2034 4250 
z
M 2034 4750 
Q 2819 4750 3233 4129 
Q 3647 3509 3647 2328 
Q 3647 1150 3233 529 
Q 2819 -91 2034 -91 
Q 1250 -91 836 529 
Q 422 1150 422 2328 
Q 422 3509 836 4129 
Q 1250 4750 2034 4750 
z
" transform="scale(0.015625)"/>
       </defs>
       <use xlink:href="#DejaVuSans-30"/>
      </g>
     </g>
    </g>
    <g id="xtick_2">
     <g id="line2d_2">
      <g>
       <use xlink:href="#mbd3f678e49" x="229.793442" y="534.04" style="stroke: #000000; stroke-width: 0.8"/>
      </g>
     </g>
     <g id="text_2">
      <!-- 1 -->
      <g transform="translate(226.612192 548.638438) scale(0.1 -0.1)">
       <defs>
        <path id="DejaVuSans-31" d="M 794 531 
L 1825 531 
L 1825 4091 
L 703 3866 
L 703 4441 
L 1819 4666 
L 2450 4666 
L 2450 531 
L 3481 531 
L 3481 0 
L 794 0 
L 794 531 
z
" transform="scale(0.015625)"/>
       </defs>
       <use xlink:href="#DejaVuSans-31"/>
      </g>
     </g>
    </g>
    <g id="xtick_3">
     <g id="line2d_3">
      <g>
       <use xlink:href="#mbd3f678e49" x="376.488844" y="534.04" style="stroke: #000000; stroke-width: 0.8"/>
      </g>
     </g>
     <g id="text_3">
      <!-- 2 -->
      <g transform="translate(373.307594 548.638438) scale(0.1 -0.1)">
       <defs>
        <path id="DejaVuSans-32" d="M 1228 531 
L 3431 531 
L 3431 0 
L 469 0 
L 469 531 
Q 828 903 1448 1529 
Q 2069 2156 2228 2338 
Q 2531 2678 2651 2914 
Q 2772 3150 2772 3378 
Q 2772 3750 2511 3984 
Q 2250 4219 1831 4219 
Q 1534 4219 1204 4116 
Q 875 4013 500 3803 
L 500 4441 
Q 881 4594 1212 4672 
Q 1544 4750 1819 4750 
Q 2544 4750 2975 4387 
Q 3406 4025 3406 3419 
Q 3406 3131 3298 2873 
Q 3191 2616 2906 2266 
Q 2828 2175 2409 1742 
Q 1991 1309 1228 531 
z
" transform="scale(0.015625)"/>
       </defs>
       <use xlink:href="#DejaVuSans-32"/>
      </g>
     </g>
    </g>
    <g id="xtick_4">
     <g id="line2d_4">
      <g>
       <use xlink:href="#mbd3f678e49" x="523.184245" y="534.04" style="stroke: #000000; stroke-width: 0.8"/>
      </g>
     </g>
     <g id="text_4">
      <!-- 3 -->
      <g transform="translate(520.002995 548.638438) scale(0.1 -0.1)">
       <defs>
        <path id="DejaVuSans-33" d="M 2597 2516 
Q 3050 2419 3304 2112 
Q 3559 1806 3559 1356 
Q 3559 666 3084 287 
Q 2609 -91 1734 -91 
Q 1441 -91 1130 -33 
Q 819 25 488 141 
L 488 750 
Q 750 597 1062 519 
Q 1375 441 1716 441 
Q 2309 441 2620 675 
Q 2931 909 2931 1356 
Q 2931 1769 2642 2001 
Q 2353 2234 1838 2234 
L 1294 2234 
L 1294 2753 
L 1863 2753 
Q 2328 2753 2575 2939 
Q 2822 3125 2822 3475 
Q 2822 3834 2567 4026 
Q 2313 4219 1838 4219 
Q 1578 4219 1281 4162 
Q 984 4106 628 3988 
L 628 4550 
Q 988 4650 1302 4700 
Q 1616 4750 1894 4750 
Q 2613 4750 3031 4423 
Q 3450 4097 3450 3541 
Q 3450 3153 3228 2886 
Q 3006 2619 2597 2516 
z
" transform="scale(0.015625)"/>
       </defs>
       <use xlink:href="#DejaVuSans-33"/>
      </g>
     </g>
    </g>
    <g id="xtick_5">
     <g id="line2d_5">
      <g>
       <use xlink:href="#mbd3f678e49" x="669.879647" y="534.04" style="stroke: #000000; stroke-width: 0.8"/>
      </g>
     </g>
     <g id="text_5">
      <!-- 4 -->
      <g transform="translate(666.698397 548.638438) scale(0.1 -0.1)">
       <defs>
        <path id="DejaVuSans-34" d="M 2419 4116 
L 825 1625 
L 2419 1625 
L 2419 4116 
z
M 2253 4666 
L 3047 4666 
L 3047 1625 
L 3713 1625 
L 3713 1100 
L 3047 1100 
L 3047 0 
L 2419 0 
L 2419 1100 
L 313 1100 
L 313 1709 
L 2253 4666 
z
" transform="scale(0.015625)"/>
       </defs>
       <use xlink:href="#DejaVuSans-34"/>
      </g>
     </g>
    </g>
    <g id="xtick_6">
     <g id="line2d_6">
      <g>
       <use xlink:href="#mbd3f678e49" x="816.575048" y="534.04" style="stroke: #000000; stroke-width: 0.8"/>
      </g>
     </g>
     <g id="text_6">
      <!-- 5 -->
      <g transform="translate(813.393798 548.638438) scale(0.1 -0.1)">
       <defs>
        <path id="DejaVuSans-35" d="M 691 4666 
L 3169 4666 
L 3169 4134 
L 1269 4134 
L 1269 2991 
Q 1406 3038 1543 3061 
Q 1681 3084 1819 3084 
Q 2600 3084 3056 2656 
Q 3513 2228 3513 1497 
Q 3513 744 3044 326 
Q 2575 -91 1722 -91 
Q 1428 -91 1123 -41 
Q 819 9 494 109 
L 494 744 
Q 775 591 1075 516 
Q 1375 441 1709 441 
Q 2250 441 2565 725 
Q 2881 1009 2881 1497 
Q 2881 1984 2565 2268 
Q 2250 2553 1709 2553 
Q 1456 2553 1204 2497 
Q 953 2441 691 2322 
L 691 4666 
z
" transform="scale(0.015625)"/>
       </defs>
       <use xlink:href="#DejaVuSans-35"/>
      </g>
     </g>
    </g>
    <g id="text_7">
     <!-- Retention Time (min) -->
     <g transform="translate(397.61 562.316562) scale(0.1 -0.1)">
      <defs>
       <path id="DejaVuSans-52" d="M 2841 2188 
Q 3044 2119 3236 1894 
Q 3428 1669 3622 1275 
L 4263 0 
L 3584 0 
L 2988 1197 
Q 2756 1666 2539 1819 
Q 2322 1972 1947 1972 
L 1259 1972 
L 1259 0 
L 628 0 
L 628 4666 
L 2053 4666 
Q 2853 4666 3247 4331 
Q 3641 3997 3641 3322 
Q 3641 2881 3436 2590 
Q 3231 2300 2841 2188 
z
M 1259 4147 
L 1259 2491 
L 2053 2491 
Q 2509 2491 2742 2702 
Q 2975 2913 2975 3322 
Q 2975 3731 2742 3939 
Q 2509 4147 2053 4147 
L 1259 4147 
z
" transform="scale(0.015625)"/>
       <path id="DejaVuSans-65" d="M 3597 1894 
L 3597 1613 
L 953 1613 
Q 991 1019 1311 708 
Q 1631 397 2203 397 
Q 2534 397 2845 478 
Q 3156 559 3463 722 
L 3463 178 
Q 3153 47 2828 -22 
Q 2503 -91 2169 -91 
Q 1331 -91 842 396 
Q 353 884 353 1716 
Q 353 2575 817 3079 
Q 1281 3584 2069 3584 
Q 2775 3584 3186 3129 
Q 3597 2675 3597 1894 
z
M 3022 2063 
Q 3016 2534 2758 2815 
Q 2500 3097 2075 3097 
Q 1594 3097 1305 2825 
Q 1016 2553 972 2059 
L 3022 2063 
z
" transform="scale(0.015625)"/>
       <path id="DejaVuSans-74" d="M 1172 4494 
L 1172 3500 
L 2356 3500 
L 2356 3053 
L 1172 3053 
L 1172 1153 
Q 1172 725 1289 603 
Q 1406 481 1766 481 
L 2356 481 
L 2356 0 
L 1766 0 
Q 1100 0 847 248 
Q 594 497 594 1153 
L 594 3053 
L 172 3053 
L 172 3500 
L 594 3500 
L 594 4494 
L 1172 4494 
z
" transform="scale(0.015625)"/>
       <path id="DejaVuSans-6e" d="M 3513 2113 
L 3513 0 
L 2938 0 
L 2938 2094 
Q 2938 2591 2744 2837 
Q 2550 3084 2163 3084 
Q 1697 3084 1428 2787 
Q 1159 2491 1159 1978 
L 1159 0 
L 581 0 
L 581 3500 
L 1159 3500 
L 1159 2956 
Q 1366 3272 1645 3428 
Q 1925 3584 2291 3584 
Q 2894 3584 3203 3211 
Q 3513 2838 3513 2113 
z
" transform="scale(0.015625)"/>
       <path id="DejaVuSans-69" d="M 603 3500 
L 1178 3500 
L 1178 0 
L 603 0 
L 603 3500 
z
M 603 4863 
L 1178 4863 
L 1178 4134 
L 603 4134 
L 603 4863 
z
" transform="scale(0.015625)"/>
       <path id="DejaVuSans-6f" d="M 1959 3097 
Q 1497 3097 1228 2736 
Q 959 2375 959 1747 
Q 959 1119 1226 758 
Q 1494 397 1959 397 
Q 2419 397 2687 759 
Q 2956 1122 2956 1747 
Q 2956 2369 2687 2733 
Q 2419 3097 1959 3097 
z
M 1959 3584 
Q 2709 3584 3137 3096 
Q 3566 2609 3566 1747 
Q 3566 888 3137 398 
Q 2709 -91 1959 -91 
Q 1206 -91 779 398 
Q 353 888 353 1747 
Q 353 2609 779 3096 
Q 1206 3584 1959 3584 
z
" transform="scale(0.015625)"/>
       <path id="DejaVuSans-20" transform="scale(0.015625)"/>
       <path id="DejaVuSans-54" d="M -19 4666 
L 3928 4666 
L 3928 4134 
L 2272 4134 
L 2272 0 
L 1638 0 
L 1638 4134 
L -19 4134 
L -19 4666 
z
" transform="scale(0.015625)"/>
       <path id="DejaVuSans-6d" d="M 3328 2828 
Q 3544 3216 3844 3400 
Q 4144 3584 4550 3584 
Q 5097 3584 5394 3201 
Q 5691 2819 5691 2113 
L 5691 0 
L 5113 0 
L 5113 2094 
Q 5113 2597 4934 2840 
Q 4756 3084 4391 3084 
Q 3944 3084 3684 2787 
Q 3425 2491 3425 1978 
L 3425 0 
L 2847 0 
L 2847 2094 
Q 2847 2600 2669 2842 
Q 2491 3084 2119 3084 
Q 1678 3084 1418 2786 
Q 1159 2488 1159 1978 
L 1159 0 
L 581 0 
L 581 3500 
L 1159 3500 
L 1159 2956 
Q 1356 3278 1631 3431 
Q 1906 3584 2284 3584 
Q 2666 3584 2933 3390 
Q 3200 3197 3328 2828 
z
" transform="scale(0.015625)"/>
       <path id="DejaVuSans-28" d="M 1984 4856 
Q 1566 4138 1362 3434 
Q 1159 2731 1159 2009 
Q 1159 1288 1364 580 
Q 1569 -128 1984 -844 
L 1484 -844 
Q 1016 -109 783 600 
Q 550 1309 550 2009 
Q 550 2706 781 3412 
Q 1013 4119 1484 4856 
L 1984 4856 
z
" transform="scale(0.015625)"/>
       <path id="DejaVuSans-29" d="M 513 4856 
L 1013 4856 
Q 1481 4119 1714 3412 
Q 1947 2706 1947 2009 
Q 1947 1309 1714 600 
Q 1481 -109 1013 -844 
L 513 -844 
Q 928 -128 1133 580 
Q 1338 1288 1338 2009 
Q 1338 2731 1133 3434 
Q 928 4138 513 4856 
z
" transform="scale(0.015625)"/>
      </defs>
      <use xlink:href="#DejaVuSans-52"/>
      <use xlink:href="#DejaVuSans-65" transform="translate(64.982422 0)"/>
      <use xlink:href="#DejaVuSans-74" transform="translate(126.505859 0)"/>
      <use xlink:href="#DejaVuSans-65" transform="translate(165.714844 0)"/>
      <use xlink:href="#DejaVuSans-6e" transform="translate(227.238281 0)"/>
      <use xlink:href="#DejaVuSans-74" transform="translate(290.617188 0)"/>
      <use xlink:href="#DejaVuSans-69" transform="translate(329.826172 0)"/>
      <use xlink:href="#DejaVuSans-6f" transform="translate(357.609375 0)"/>
      <use xlink:href="#DejaVuSans-6e" transform="translate(418.791016 0)"/>
      <use xlink:href="#DejaVuSans-20" transform="translate(482.169922 0)"/>
      <use xlink:href="#DejaVuSans-54" transform="translate(513.957031 0)"/>
      <use xlink:href="#DejaVuSans-69" transform="translate(571.916016 0)"/>
      <use xlink:href="#DejaVuSans-6d" transform="translate(599.699219 0)"/>
      <use xlink:href="#DejaVuSans-65" transform="translate(697.111328 0)"/>
      <use xlink:href="#DejaVuSans-20" transform="translate(758.634766 0)"/>
      <use xlink:href="#DejaVuSans-28" transform="translate(790.421875 0)"/>
      <use xlink:href="#DejaVuSans-6d" transform="translate(829.435547 0)"/>
      <use xlink:href="#DejaVuSans-69" transform="translate(926.847656 0)"/>
      <use xlink:href="#DejaVuSans-6e" transform="translate(954.630859 0)"/>
      <use xlink:href="#DejaVuSans-29" transform="translate(1018.009766 0)"/>
     </g>
    </g>
   </g>
   <g id="matplotlib.axis_2">
    <g id="ytick_1">
     <g id="line2d_7">
      <defs>
       <path id="m5748549c15" d="M 0 0 
L -3.5 0 
" style="stroke: #000000; stroke-width: 0.8"/>
      </defs>
      <g>
       <use xlink:href="#m5748549c15" x="47.72" y="510.687926" style="stroke: #000000; stroke-width: 0.8"/>
      </g>
     </g>
     <g id="text_8">
      <!-- 0.0 -->
      <g style="fill: #0000ff" transform="translate(24.816875 514.487145) scale(0.1 -0.1)">
       <defs>
        <path id="DejaVuSans-2e" d="M 684 794 
L 1344 794 
L 1344 0 
L 684 0 
L 684 794 
z
" transform="scale(0.015625)"/>
       </defs>
       <use xlink:href="#DejaVuSans-30"/>
       <use xlink:href="#DejaVuSans-2e" transform="translate(63.623047 0)"/>
       <use xlink:href="#DejaVuSans-30" transform="translate(95.410156 0)"/>
      </g>
     </g>
    </g>
    <g id="ytick_2">
     <g id="line2d_8">
      <g>
       <use xlink:href="#m5748549c15" x="47.72" y="418.536886" style="stroke: #000000; stroke-width: 0.8"/>
      </g>
     </g>
     <g id="text_9">
      <!-- 0.5 -->
      <g style="fill: #0000ff" transform="translate(24.816875 422.336105) scale(0.1 -0.1)">
       <use xlink:href="#DejaVuSans-30"/>
       <use xlink:href="#DejaVuSans-2e" transform="translate(63.623047 0)"/>
       <use xlink:href="#DejaVuSans-35" transform="translate(95.410156 0)"/>
      </g>
     </g>
    </g>
    <g id="ytick_3">
     <g id="line2d_9">
      <g>
       <use xlink:href="#m5748549c15" x="47.72" y="326.385847" style="stroke: #000000; stroke-width: 0.8"/>
      </g>
     </g>
     <g id="text_10">
      <!-- 1.0 -->
      <g style="fill: #0000ff" transform="translate(24.816875 330.185065) scale(0.1 -0.1)">
       <use xlink:href="#DejaVuSans-31"/>
       <use xlink:href="#DejaVuSans-2e" transform="translate(63.623047 0)"/>
       <use xlink:href="#DejaVuSans-30" transform="translate(95.410156 0)"/>
      </g>
     </g>
    </g>
    <g id="ytick_4">
     <g id="line2d_10">
      <g>
       <use xlink:href="#m5748549c15" x="47.72" y="234.234807" style="stroke: #000000; stroke-width: 0.8"/>
      </g>
     </g>
     <g id="text_11">
      <!-- 1.5 -->
      <g style="fill: #0000ff" transform="translate(24.816875 238.034026) scale(0.1 -0.1)">
       <use xlink:href="#DejaVuSans-31"/>
       <use xlink:href="#DejaVuSans-2e" transform="translate(63.623047 0)"/>
       <use xlink:href="#DejaVuSans-35" transform="translate(95.410156 0)"/>
      </g>
     </g>
    </g>
    <g id="ytick_5">
     <g id="line2d_11">
      <g>
       <use xlink:href="#m5748549c15" x="47.72" y="142.083767" style="stroke: #000000; stroke-width: 0.8"/>
      </g>
     </g>
     <g id="text_12">
      <!-- 2.0 -->
      <g style="fill: #0000ff" transform="translate(24.816875 145.882986) scale(0.1 -0.1)">
       <use xlink:href="#DejaVuSans-32"/>
       <use xlink:href="#DejaVuSans-2e" transform="translate(63.623047 0)"/>
       <use xlink:href="#DejaVuSans-30" transform="translate(95.410156 0)"/>
      </g>
     </g>
    </g>
    <g id="ytick_6">
     <g id="line2d_12">
      <g>
       <use xlink:href="#m5748549c15" x="47.72" y="49.932727" style="stroke: #000000; stroke-width: 0.8"/>
      </g>
     </g>
     <g id="text_13">
      <!-- 2.5 -->
      <g style="fill: #0000ff" transform="translate(24.816875 53.731946) scale(0.1 -0.1)">
       <use xlink:href="#DejaVuSans-32"/>
       <use xlink:href="#DejaVuSans-2e" transform="translate(63.623047 0)"/>
       <use xlink:href="#DejaVuSans-35" transform="translate(95.410156 0)"/>
      </g>
     </g>
    </g>
    <g id="text_14">
     <!-- Normalized Intensity -->
     <g style="fill: #0000ff" transform="translate(18.737187 332.167031) rotate(-90) scale(0.1 -0.1)">
      <defs>
       <path id="DejaVuSans-4e" d="M 628 4666 
L 1478 4666 
L 3547 763 
L 3547 4666 
L 4159 4666 
L 4159 0 
L 3309 0 
L 1241 3903 
L 1241 0 
L 628 0 
L 628 4666 
z
" transform="scale(0.015625)"/>
       <path id="DejaVuSans-72" d="M 2631 2963 
Q 2534 3019 2420 3045 
Q 2306 3072 2169 3072 
Q 1681 3072 1420 2755 
Q 1159 2438 1159 1844 
L 1159 0 
L 581 0 
L 581 3500 
L 1159 3500 
L 1159 2956 
Q 1341 3275 1631 3429 
Q 1922 3584 2338 3584 
Q 2397 3584 2469 3576 
Q 2541 3569 2628 3553 
L 2631 2963 
z
" transform="scale(0.015625)"/>
       <path id="DejaVuSans-61" d="M 2194 1759 
Q 1497 1759 1228 1600 
Q 959 1441 959 1056 
Q 959 750 1161 570 
Q 1363 391 1709 391 
Q 2188 391 2477 730 
Q 2766 1069 2766 1631 
L 2766 1759 
L 2194 1759 
z
M 3341 1997 
L 3341 0 
L 2766 0 
L 2766 531 
Q 2569 213 2275 61 
Q 1981 -91 1556 -91 
Q 1019 -91 701 211 
Q 384 513 384 1019 
Q 384 1609 779 1909 
Q 1175 2209 1959 2209 
L 2766 2209 
L 2766 2266 
Q 2766 2663 2505 2880 
Q 2244 3097 1772 3097 
Q 1472 3097 1187 3025 
Q 903 2953 641 2809 
L 641 3341 
Q 956 3463 1253 3523 
Q 1550 3584 1831 3584 
Q 2591 3584 2966 3190 
Q 3341 2797 3341 1997 
z
" transform="scale(0.015625)"/>
       <path id="DejaVuSans-6c" d="M 603 4863 
L 1178 4863 
L 1178 0 
L 603 0 
L 603 4863 
z
" transform="scale(0.015625)"/>
       <path id="DejaVuSans-7a" d="M 353 3500 
L 3084 3500 
L 3084 2975 
L 922 459 
L 3084 459 
L 3084 0 
L 275 0 
L 275 525 
L 2438 3041 
L 353 3041 
L 353 3500 
z
" transform="scale(0.015625)"/>
       <path id="DejaVuSans-64" d="M 2906 2969 
L 2906 4863 
L 3481 4863 
L 3481 0 
L 2906 0 
L 2906 525 
Q 2725 213 2448 61 
Q 2172 -91 1784 -91 
Q 1150 -91 751 415 
Q 353 922 353 1747 
Q 353 2572 751 3078 
Q 1150 3584 1784 3584 
Q 2172 3584 2448 3432 
Q 2725 3281 2906 2969 
z
M 947 1747 
Q 947 1113 1208 752 
Q 1469 391 1925 391 
Q 2381 391 2643 752 
Q 2906 1113 2906 1747 
Q 2906 2381 2643 2742 
Q 2381 3103 1925 3103 
Q 1469 3103 1208 2742 
Q 947 2381 947 1747 
z
" transform="scale(0.015625)"/>
       <path id="DejaVuSans-49" d="M 628 4666 
L 1259 4666 
L 1259 0 
L 628 0 
L 628 4666 
z
" transform="scale(0.015625)"/>
       <path id="DejaVuSans-73" d="M 2834 3397 
L 2834 2853 
Q 2591 2978 2328 3040 
Q 2066 3103 1784 3103 
Q 1356 3103 1142 2972 
Q 928 2841 928 2578 
Q 928 2378 1081 2264 
Q 1234 2150 1697 2047 
L 1894 2003 
Q 2506 1872 2764 1633 
Q 3022 1394 3022 966 
Q 3022 478 2636 193 
Q 2250 -91 1575 -91 
Q 1294 -91 989 -36 
Q 684 19 347 128 
L 347 722 
Q 666 556 975 473 
Q 1284 391 1588 391 
Q 1994 391 2212 530 
Q 2431 669 2431 922 
Q 2431 1156 2273 1281 
Q 2116 1406 1581 1522 
L 1381 1569 
Q 847 1681 609 1914 
Q 372 2147 372 2553 
Q 372 3047 722 3315 
Q 1072 3584 1716 3584 
Q 2034 3584 2315 3537 
Q 2597 3491 2834 3397 
z
" transform="scale(0.015625)"/>
       <path id="DejaVuSans-79" d="M 2059 -325 
Q 1816 -950 1584 -1140 
Q 1353 -1331 966 -1331 
L 506 -1331 
L 506 -850 
L 844 -850 
Q 1081 -850 1212 -737 
Q 1344 -625 1503 -206 
L 1606 56 
L 191 3500 
L 800 3500 
L 1894 763 
L 2988 3500 
L 3597 3500 
L 2059 -325 
z
" transform="scale(0.015625)"/>
      </defs>
      <use xlink:href="#DejaVuSans-4e"/>
      <use xlink:href="#DejaVuSans-6f" transform="translate(74.804688 0)"/>
      <use xlink:href="#DejaVuSans-72" transform="translate(135.986328 0)"/>
      <use xlink:href="#DejaVuSans-6d" transform="translate(175.349609 0)"/>
      <use xlink:href="#DejaVuSans-61" transform="translate(272.761719 0)"/>
      <use xlink:href="#DejaVuSans-6c" transform="translate(334.041016 0)"/>
      <use xlink:href="#DejaVuSans-69" transform="translate(361.824219 0)"/>
      <use xlink:href="#DejaVuSans-7a" transform="translate(389.607422 0)"/>
      <use xlink:href="#DejaVuSans-65" transform="translate(442.097656 0)"/>
      <use xlink:href="#DejaVuSans-64" transform="translate(503.621094 0)"/>
      <use xlink:href="#DejaVuSans-20" transform="translate(567.097656 0)"/>
      <use xlink:href="#DejaVuSans-49" transform="translate(598.884766 0)"/>
      <use xlink:href="#DejaVuSans-6e" transform="translate(628.376953 0)"/>
      <use xlink:href="#DejaVuSans-74" transform="translate(691.755859 0)"/>
      <use xlink:href="#DejaVuSans-65" transform="translate(730.964844 0)"/>
      <use xlink:href="#DejaVuSans-6e" transform="translate(792.488281 0)"/>
      <use xlink:href="#DejaVuSans-73" transform="translate(855.867188 0)"/>
      <use xlink:href="#DejaVuSans-69" transform="translate(907.966797 0)"/>
      <use xlink:href="#DejaVuSans-74" transform="translate(935.75 0)"/>
      <use xlink:href="#DejaVuSans-79" transform="translate(974.958984 0)"/>
     </g>
    </g>
   </g>
   <g id="line2d_13">
    <path d="M 84.332727 510.687926 
L 92.889959 510.579587 
L 99.002267 510.517909 
L 118.561654 510.887482 
L 129.563809 510.802664 
L 136.898579 510.733086 
L 138.121041 510.637873 
L 139.343503 510.395186 
L 140.565964 509.856234 
L 141.788426 508.909555 
L 145.455811 505.155812 
L 146.678273 504.494939 
L 147.900735 504.274239 
L 149.123196 504.348669 
L 151.56812 504.708291 
L 154.013043 504.781059 
L 160.125351 504.488067 
L 162.570275 504.579988 
L 163.792736 504.496686 
L 165.015198 504.138056 
L 166.23766 503.489924 
L 168.682583 501.956994 
L 169.905045 501.402913 
L 171.127506 501.112755 
L 172.349968 501.113392 
L 173.57243 501.39132 
L 174.794891 501.903904 
L 177.239815 503.402201 
L 180.9072 505.905448 
L 182.129662 506.51027 
L 183.352123 506.713621 
L 185.797047 506.350924 
L 187.019508 507.009023 
L 189.464432 509.769367 
L 190.686893 509.837723 
L 191.909355 508.529808 
L 193.131817 506.666849 
L 194.354278 505.228812 
L 195.57674 504.708187 
L 196.799202 505.03871 
L 200.466587 507.395602 
L 201.689048 507.780777 
L 202.91151 507.924799 
L 205.356433 507.983156 
L 207.801357 508.357452 
L 211.468742 509.148716 
L 213.913665 509.470305 
L 216.358589 509.650759 
L 217.58105 509.665593 
L 218.803512 509.549501 
L 220.025974 509.2011 
L 221.248435 508.570638 
L 223.693359 506.744771 
L 226.138282 504.730507 
L 227.360744 503.942496 
L 228.583205 503.622769 
L 229.805667 503.936391 
L 231.028129 504.814096 
L 233.473052 507.143291 
L 234.695514 508.056987 
L 235.917975 508.648056 
L 237.140437 508.959865 
L 239.58536 509.171314 
L 245.697669 509.617911 
L 249.365054 509.754787 
L 253.032439 509.601203 
L 256.699824 509.526241 
L 261.589671 509.651825 
L 264.034594 509.473204 
L 265.257056 509.153013 
L 266.479517 508.544119 
L 267.701979 507.61523 
L 270.146902 505.311646 
L 271.369364 504.460528 
L 272.591826 504.148956 
L 273.814287 504.409496 
L 277.481672 506.2051 
L 278.704134 506.472102 
L 281.149058 506.637942 
L 282.371519 506.594158 
L 284.816443 506.16455 
L 289.706289 505.046692 
L 293.373674 503.34351 
L 294.596136 503.379318 
L 295.818598 503.889544 
L 298.263521 505.271925 
L 299.485983 505.416397 
L 300.708444 504.648374 
L 301.930906 502.518254 
L 303.153368 498.704148 
L 304.375829 493.527523 
L 305.598291 487.851279 
L 306.820753 481.023424 
L 308.043214 469.487154 
L 309.265676 450.393529 
L 310.488138 427.07697 
L 311.710599 408.487938 
L 312.933061 402.513519 
L 314.155523 410.635798 
L 315.377985 428.216755 
L 316.600446 448.392403 
L 317.822908 465.783746 
L 319.04537 478.053239 
L 320.267831 485.465318 
L 321.490293 489.541094 
L 322.712755 491.825802 
L 323.935216 493.323939 
L 326.38014 495.764824 
L 327.602601 496.762635 
L 328.825063 496.349289 
L 330.047525 492.366969 
L 331.269986 483.837081 
L 332.492448 473.387662 
L 333.71491 466.130024 
L 334.937371 465.595132 
L 336.159833 471.373407 
L 338.604756 489.025194 
L 339.827218 495.539589 
L 341.04968 499.398084 
L 342.272141 501.080768 
L 343.494603 501.258229 
L 344.717065 500.224806 
L 345.939526 497.790896 
L 347.161988 493.948125 
L 348.38445 489.702376 
L 349.606912 486.791151 
L 350.829373 486.40941 
L 352.051835 488.449896 
L 355.71922 498.420196 
L 356.941682 500.438266 
L 358.164143 501.55678 
L 359.386605 501.934412 
L 360.609067 501.728881 
L 361.831528 501.122847 
L 363.05399 500.367046 
L 364.276452 499.741939 
L 365.498913 499.458573 
L 366.721375 499.576033 
L 370.38876 500.794383 
L 371.611222 500.88024 
L 374.056145 500.574218 
L 375.278607 500.203504 
L 376.501068 499.298012 
L 377.72353 497.20281 
L 378.945992 493.430995 
L 380.168453 488.527557 
L 381.390915 484.278734 
L 382.613377 482.571393 
L 383.835839 484.012569 
L 385.0583 487.700122 
L 386.280762 492.054463 
L 387.503224 495.749216 
L 388.725685 498.140377 
L 389.948147 499.221103 
L 391.170609 499.377518 
L 393.615532 498.883547 
L 396.060455 498.799531 
L 402.172764 498.509894 
L 407.06261 497.948635 
L 408.285072 498.201318 
L 410.729995 499.119221 
L 411.952457 499.415775 
L 413.174919 499.367665 
L 414.39738 498.953252 
L 416.842304 497.843186 
L 418.064766 497.572141 
L 419.287227 497.517224 
L 420.509689 497.610984 
L 422.954612 498.150169 
L 425.399536 498.689427 
L 427.844459 498.870912 
L 429.066921 498.796382 
L 430.289382 498.415965 
L 431.511844 497.603679 
L 433.956767 495.282813 
L 435.179229 494.441567 
L 437.624152 493.69142 
L 438.846614 493.018874 
L 441.291537 490.986492 
L 442.513999 490.579805 
L 443.736461 490.937444 
L 444.958922 491.895139 
L 447.403846 494.191543 
L 448.626307 494.893301 
L 449.848769 495.07913 
L 451.071231 494.78838 
L 453.516154 493.768261 
L 454.738616 493.610481 
L 455.961078 493.715011 
L 457.183539 493.691452 
L 458.406001 493.108723 
L 460.850924 491.06248 
L 462.073386 490.958621 
L 463.295848 491.85658 
L 465.740771 494.685896 
L 466.963233 495.6077 
L 468.185694 496.107197 
L 470.630618 496.823153 
L 473.075541 497.657511 
L 474.298003 497.732532 
L 475.520464 497.287345 
L 476.742926 496.323518 
L 477.965388 495.055365 
L 479.187849 493.590166 
L 480.410311 491.777688 
L 482.855234 487.667281 
L 484.077696 486.573518 
L 485.300158 486.670241 
L 486.52262 487.855846 
L 487.745081 489.654979 
L 488.967543 491.030936 
L 490.190005 490.199736 
L 491.412466 484.359605 
L 492.634928 469.224931 
L 493.85739 440.490044 
L 496.302313 356.209799 
L 497.524775 328.194625 
L 498.747236 326.385847 
L 499.969698 349.350608 
L 502.414621 422.266733 
L 503.637083 450.835841 
L 504.859545 469.317527 
L 506.082006 479.611045 
L 507.304468 484.752934 
L 508.52693 487.306592 
L 509.749391 488.896403 
L 515.8617 495.819058 
L 518.306623 498.197165 
L 519.529085 499.119809 
L 520.751547 499.751545 
L 521.974008 500.054297 
L 526.863855 500.309987 
L 532.976163 502.040232 
L 535.421087 502.304246 
L 537.86601 502.270609 
L 539.088472 502.090167 
L 540.310933 501.737919 
L 542.755857 500.739512 
L 543.978318 500.438621 
L 545.20078 500.472322 
L 546.423242 500.819884 
L 548.868165 501.838634 
L 550.090627 502.185151 
L 551.313088 502.241334 
L 552.53555 501.840876 
L 553.758012 500.732595 
L 554.980474 498.484094 
L 556.202935 494.576291 
L 558.647859 483.871627 
L 559.87032 480.996029 
L 561.092782 481.761893 
L 562.315244 485.512556 
L 564.760167 495.227774 
L 565.982629 498.771278 
L 567.20509 501.039076 
L 568.427552 502.325103 
L 569.650014 503.031095 
L 572.094937 503.826732 
L 574.53986 504.309599 
L 575.762322 504.359307 
L 579.429707 504.196245 
L 581.87463 504.534131 
L 584.319554 504.991695 
L 587.986939 505.38592 
L 590.431862 505.460515 
L 597.766632 505.050895 
L 598.989094 504.870903 
L 600.211556 504.512398 
L 602.656479 503.462482 
L 603.878941 503.114052 
L 605.101402 503.07102 
L 606.323864 503.311123 
L 608.768787 504.090923 
L 609.991249 504.365942 
L 611.213711 504.491269 
L 613.658634 504.418384 
L 618.548481 503.958711 
L 620.993404 503.459948 
L 623.438328 502.909544 
L 625.883251 502.558255 
L 630.773098 502.155522 
L 635.662944 501.811546 
L 638.107868 501.266339 
L 640.552791 500.449858 
L 641.775253 499.901817 
L 642.997714 498.988043 
L 644.220176 497.264361 
L 645.442638 494.395477 
L 646.665099 490.697192 
L 647.887561 487.364995 
L 649.110023 485.908868 
L 650.332484 487.156971 
L 651.554946 490.736504 
L 653.999869 499.931624 
L 655.222331 503.449994 
L 656.444793 505.7802 
L 657.667255 507.129264 
L 658.889716 507.849027 
L 660.112178 508.249496 
L 662.557101 508.751512 
L 666.224486 509.282836 
L 668.66941 509.488389 
L 669.891871 509.493927 
L 671.114333 509.378128 
L 674.781718 508.646618 
L 676.00418 508.629119 
L 678.449103 509.054347 
L 680.894026 509.545783 
L 683.33895 509.7797 
L 691.896182 510.01212 
L 694.341105 509.89198 
L 698.00849 509.571031 
L 700.453413 509.728227 
L 704.120798 510.124747 
L 707.788183 510.213664 
L 733.459879 510.607776 
L 740.794649 510.693431 
L 751.796804 510.768696 
L 765.243882 510.827744 
L 797.027886 510.858585 
L 815.364811 510.987273 
L 816.587273 510.985272 
L 816.587273 510.985272 
" clip-path="url(#pcc7a08ba22)" style="fill: none; stroke: #0000ff; stroke-width: 1.5; stroke-linecap: square"/>
   </g>
   <g id="line2d_14">
    <path d="M 143.003064 234.121948 
L 143.727984 234.111833 
L 159.357645 234.094812 
L 309.679113 233.975719 
L 310.031426 233.423293 
L 310.740209 230.617785 
L 311.090567 228.458215 
L 311.439946 228.082397 
L 311.439946 226.214778 
L 311.788837 226.730529 
L 311.788837 225.295819 
L 312.136505 226.972526 
L 312.136505 224.008545 
L 312.482462 225.641681 
L 312.482462 222.928541 
L 312.823284 220.825651 
L 313.162395 220.874811 
L 313.162395 221.230639 
L 313.501261 221.458455 
L 313.501261 220.766697 
L 313.837438 225.563749 
L 313.837438 222.869301 
L 314.174104 225.584038 
L 314.174104 222.462126 
L 314.511993 225.862799 
L 314.511993 222.779107 
L 314.849392 225.705837 
L 314.849392 222.373391 
L 315.185569 225.308311 
L 315.185569 223.084024 
L 315.523213 225.75702 
L 315.523213 222.770531 
L 315.864524 226.265038 
L 315.864524 224.374302 
L 316.200946 226.904068 
L 316.200946 223.529152 
L 316.538834 226.104423 
L 316.538834 223.436025 
L 316.877212 225.344283 
L 316.877212 221.499283 
L 317.216078 224.938235 
L 317.216078 222.653872 
L 317.554944 225.057649 
L 317.554944 222.287432 
L 317.895767 225.969576 
L 317.895767 223.573206 
L 318.2361 225.935038 
L 318.2361 223.735719 
L 318.578145 226.749394 
L 318.578145 223.534507 
L 318.919212 226.20146 
L 318.919212 223.95077 
L 319.261501 226.107268 
L 319.261501 223.838304 
L 319.607702 227.229963 
L 319.607702 224.675896 
L 319.95317 226.943537 
L 319.95317 224.168638 
L 320.298393 226.468407 
L 320.298393 224.13731 
L 320.646061 226.792827 
L 320.646061 225.146357 
L 321.000819 227.906337 
L 321.000819 226.023551 
L 321.350932 228.227419 
L 321.350932 225.74935 
L 321.701534 227.382874 
L 321.701534 225.725476 
L 322.052381 227.606201 
L 322.052381 225.52238 
L 322.756763 225.985897 
L 322.756763 226.304569 
L 323.108588 226.484903 
L 323.108588 227.189363 
L 323.459923 229.285908 
L 323.459923 227.45403 
L 323.812237 228.901645 
L 323.812237 227.345937 
L 324.164795 228.831409 
L 324.164795 227.081781 
L 324.517597 228.822024 
L 324.517597 227.579297 
L 324.86991 229.042738 
L 324.86991 227.720392 
L 325.223202 229.700181 
L 325.223202 228.419926 
L 325.576982 229.688671 
L 325.576982 228.154987 
L 325.936142 229.737823 
L 325.936142 228.401104 
L 326.289922 228.311262 
L 326.644436 228.444992 
L 326.644436 228.686661 
L 326.998705 228.515076 
L 326.998705 228.622326 
L 327.353464 230.113796 
L 327.353464 228.836271 
L 327.707733 230.188708 
L 327.707733 229.099992 
L 328.063469 230.398437 
L 328.063469 229.29015 
L 328.421406 230.519663 
L 328.421406 229.153289 
L 328.776409 230.415635 
L 328.776409 229.418402 
L 329.132145 230.505649 
L 329.132145 229.050914 
L 329.487393 229.091046 
L 329.843374 228.995549 
L 329.843374 228.58484 
L 330.198621 227.110504 
L 330.555335 228.906554 
L 330.917917 229.061819 
L 330.917917 229.519262 
L 331.274632 230.996231 
L 331.274632 229.99642 
L 331.631835 231.013167 
L 331.631835 229.909786 
L 331.994662 230.754436 
L 331.994662 229.650035 
L 332.35162 230.745002 
L 332.35162 229.719926 
L 332.708335 230.666474 
L 332.708335 229.525174 
L 333.064805 230.662642 
L 333.064805 229.53067 
L 333.420296 230.55361 
L 333.420296 229.097904 
L 333.775055 230.077107 
L 333.775055 228.828303 
L 334.128346 230.037164 
L 334.128346 228.664194 
L 334.480904 229.300955 
L 334.831751 229.414266 
L 334.831751 229.670277 
L 335.182108 229.594652 
L 335.182108 229.671962 
L 335.532221 229.013519 
L 335.887224 227.989924 
L 336.236848 227.77118 
L 336.585983 227.760043 
L 336.585983 227.969349 
L 336.936585 228.781825 
L 337.286209 228.957016 
L 337.636567 230.144512 
L 337.636567 229.26548 
L 338.339482 231.524754 
L 338.339482 231.065703 
L 338.690818 231.855905 
L 338.690818 230.75179 
L 339.043131 231.617906 
L 339.043131 230.643016 
L 339.395934 230.606559 
L 339.748736 229.896834 
L 340.103005 230.17707 
L 340.457764 230.317494 
L 341.175349 231.907076 
L 341.175349 231.329369 
L 341.531574 232.250392 
L 341.531574 231.604383 
L 341.888777 232.475942 
L 341.888777 231.69398 
L 342.245736 232.261829 
L 342.245736 231.583394 
L 342.607096 232.191692 
L 342.607096 231.563973 
L 342.96381 231.962452 
L 343.322481 231.54482 
L 343.680662 232.292476 
L 343.680662 231.71424 
L 344.039821 231.758986 
L 344.398491 232.210259 
L 344.398491 231.997313 
L 344.757162 231.955628 
L 344.757162 232.042584 
L 345.116565 232.602614 
L 345.116565 231.911991 
L 345.47548 232.156049 
L 345.840018 232.18483 
L 345.840018 232.137743 
L 346.199422 231.734677 
L 346.55907 232.399961 
L 346.55907 232.322614 
L 346.918474 232.286929 
L 346.918474 232.375078 
L 347.278611 232.742258 
L 347.278611 232.303851 
L 347.638015 232.537979 
L 347.997663 232.508345 
L 347.997663 232.606255 
L 348.356333 232.626729 
L 348.356333 232.824539 
L 348.715003 232.80253 
L 349.072696 232.452331 
L 349.430633 232.505906 
L 349.787347 232.209345 
L 350.49882 232.465722 
L 350.49882 232.875412 
L 351.210048 233.002346 
L 351.914675 233.118231 
L 351.914675 233.134184 
L 353.673553 232.868702 
L 353.673553 233.071146 
L 354.029778 233.249652 
L 355.092586 233.378935 
L 356.164685 232.847163 
L 356.520666 232.764776 
L 357.23385 233.118499 
L 357.591298 233.095591 
L 357.591298 233.348655 
L 357.94899 233.30504 
L 357.94899 233.087538 
L 358.665108 232.874229 
L 358.665108 232.885456 
L 359.024023 233.03484 
L 359.382693 233.381969 
L 359.382693 233.352504 
L 360.101012 233.050117 
L 360.825931 233.137215 
L 361.186313 233.31632 
L 361.186313 233.258569 
L 362.626128 233.000061 
L 363.348603 233.228972 
L 363.348603 233.35175 
L 363.709963 232.932092 
L 364.431215 233.045066 
L 365.153935 232.714612 
L 365.879099 233.32938 
L 365.879099 233.613649 
L 366.237525 233.622891 
L 366.237525 233.544406 
L 366.59595 233.285249 
L 367.314513 233.268728 
L 367.314513 233.124916 
L 367.67245 233.085898 
L 368.031365 233.352163 
L 368.031365 233.32434 
L 368.389057 233.064425 
L 368.747483 233.220029 
L 368.747483 233.189036 
L 370.182409 233.246674 
L 370.541323 233.53275 
L 370.541323 233.314229 
L 370.905617 233.569477 
L 370.905617 233.343116 
L 371.264776 233.502155 
L 371.264776 233.334525 
L 371.62418 233.368816 
L 371.984562 233.072336 
L 372.706303 233.099812 
L 372.706303 233.179487 
L 373.067663 233.008693 
L 373.803096 233.031492 
L 374.521903 232.629152 
L 374.881307 233.002224 
L 375.964897 232.924063 
L 376.324545 232.609306 
L 377.043597 233.163435 
L 377.403001 233.432743 
L 377.403001 233.228536 
L 377.763382 233.440477 
L 377.763382 233.279797 
L 378.12352 233.450267 
L 378.12352 233.307223 
L 378.482679 233.483495 
L 378.482679 233.179475 
L 378.842572 233.344594 
L 378.842572 233.087323 
L 379.201242 233.18548 
L 379.201242 233.048747 
L 379.559179 233.261071 
L 379.559179 232.99783 
L 379.918827 233.237152 
L 379.918827 233.099223 
L 380.277497 233.288984 
L 380.277497 233.085031 
L 380.6347 233.27883 
L 380.6347 233.116619 
L 380.998016 233.286649 
L 380.998016 233.037032 
L 382.064981 233.23525 
L 382.064981 233.172135 
L 382.774497 232.974774 
L 383.126566 232.773105 
L 383.479124 233.150785 
L 383.83046 233.18477 
L 383.83046 233.430348 
L 384.882266 233.167938 
L 385.233112 233.39759 
L 385.233112 233.169727 
L 385.584203 233.050732 
L 385.584203 233.268298 
L 386.646522 233.257367 
L 386.646522 233.099554 
L 387.353105 233.129293 
L 387.353105 233.290868 
L 387.707864 233.375522 
L 387.707864 233.535172 
L 388.062867 233.457367 
L 388.062867 233.306061 
L 388.417869 233.342821 
L 388.417869 233.320799 
L 388.774828 233.184669 
L 390.557911 233.229029 
L 390.557911 233.216081 
L 390.92196 233.424371 
L 390.92196 233.162796 
L 391.278185 233.317413 
L 391.278185 233.18792 
L 391.278185 233.359931 
L 391.636366 233.048921 
L 391.999193 233.127954 
L 392.715556 233.041515 
L 393.073492 233.245272 
L 393.43094 233.489533 
L 393.43094 233.364722 
L 393.78961 233.541438 
L 393.78961 233.407622 
L 394.147547 233.431237 
L 394.504751 233.208113 
L 394.862932 233.4649 
L 394.862932 233.204559 
L 395.579539 233.395483 
L 395.943343 233.232402 
L 396.30128 233.31894 
L 396.659706 233.544285 
L 396.659706 233.391709 
L 397.018376 233.533166 
L 397.018376 233.485749 
L 397.37778 233.334443 
L 397.37778 233.035191 
L 397.736695 233.127136 
L 397.736695 232.91712 
L 398.095854 232.658019 
L 398.095854 232.356357 
L 398.455013 232.031427 
L 398.455013 231.644244 
L 398.813928 231.01061 
L 398.813928 230.765974 
L 399.173576 229.981617 
L 399.173576 229.671656 
L 399.532246 228.59396 
L 399.891406 227.547814 
L 399.891406 227.735726 
L 400.251543 226.98406 
L 400.251543 227.507171 
L 400.610702 227.582987 
L 400.610702 225.799921 
L 400.974751 224.93175 
L 400.974751 225.388437 
L 400.974751 222.768583 
L 401.332933 222.071028 
L 401.332933 224.564851 
L 401.691603 225.333091 
L 402.050518 224.747823 
L 402.050518 227.42371 
L 402.050518 226.001622 
L 402.4131 225.459666 
L 402.4131 225.620848 
L 402.4131 224.643629 
L 402.772259 224.778096 
L 402.772259 225.071484 
L 403.131663 225.755071 
L 403.131663 224.448538 
L 403.490577 226.026888 
L 403.490577 225.898386 
L 403.848514 228.11866 
L 403.848514 227.158139 
L 404.208651 228.822668 
L 404.568544 229.355206 
L 404.568544 228.625374 
L 404.927948 228.580199 
L 404.927948 229.960459 
L 405.286863 229.923061 
L 405.286863 230.432475 
L 406.010071 230.438939 
L 406.010071 230.287712 
L 406.368497 231.136748 
L 406.368497 231.459727 
L 406.368497 230.916659 
L 406.726433 231.133342 
L 406.726433 231.267939 
L 407.08437 231.285959 
L 407.08437 231.246314 
L 407.442552 231.876156 
L 407.801222 231.891014 
L 407.801222 232.094224 
L 408.159159 232.191248 
L 408.87601 232.384675 
L 408.87601 232.262552 
L 410.666672 232.644134 
L 410.666672 232.444174 
L 411.030232 232.513888 
L 411.030232 232.126179 
L 411.390125 232.131777 
L 412.110399 232.489352 
L 412.110399 232.757407 
L 412.829207 232.969023 
L 412.829207 232.818423 
L 413.188121 232.834456 
L 413.188121 232.656406 
L 414.266333 232.951701 
L 414.266333 232.812757 
L 414.626225 232.838363 
L 414.626225 232.600905 
L 414.985874 232.725514 
L 414.985874 232.611105 
L 415.70517 232.737297 
L 415.70517 232.550027 
L 416.07142 232.804161 
L 416.07142 232.659817 
L 416.429845 232.685582 
L 416.429845 232.557157 
L 416.78876 232.762221 
L 416.78876 232.640677 
L 417.866482 232.804556 
L 417.866482 232.676753 
L 418.224908 232.711321 
L 418.224908 232.586093 
L 419.300185 233.006231 
L 419.300185 232.787993 
L 419.658122 232.969541 
L 420.016792 232.816068 
L 420.378885 233.008199 
L 420.737311 232.96697 
L 420.737311 232.975649 
L 421.100382 233.083895 
L 421.100382 232.797721 
L 421.45783 232.92104 
L 421.45783 232.608513 
L 421.815522 232.689534 
L 421.815522 232.558198 
L 422.174437 232.866106 
L 422.174437 232.698635 
L 423.607896 232.994201 
L 423.607896 232.719117 
L 423.965588 232.921097 
L 423.965588 232.536575 
L 424.324014 232.822889 
L 424.324014 232.511969 
L 424.682929 232.717499 
L 424.682929 232.554785 
L 425.041354 232.937208 
L 425.041354 232.78808 
L 425.400025 233.127901 
L 425.400025 233.01611 
L 425.758939 233.225552 
L 425.758939 233.099442 
L 426.123722 233.293659 
L 426.123722 233.090173 
L 426.481903 233.257159 
L 426.481903 232.952514 
L 426.840818 232.939491 
L 426.840818 232.66467 
L 427.199488 232.718246 
L 427.199488 232.46 
L 427.556936 232.431173 
L 427.556936 232.269697 
L 427.916095 232.091678 
L 427.916095 231.840434 
L 428.275743 231.371753 
L 429.71018 229.800555 
L 429.71018 230.083548 
L 430.068361 229.546657 
L 430.068361 229.795267 
L 430.426787 229.437862 
L 430.426787 229.860636 
L 430.784479 229.517462 
L 430.784479 229.89129 
L 431.148039 229.810316 
L 431.148039 230.149953 
L 431.505976 229.933155 
L 431.505976 230.234567 
L 431.863179 230.25935 
L 431.863179 230.524225 
L 432.221361 230.575623 
L 432.221361 230.808427 
L 432.583943 230.742225 
L 432.583943 230.887853 
L 432.942613 230.678215 
L 432.942613 230.8468 
L 433.299572 230.830477 
L 433.299572 230.895167 
L 433.657509 231.088913 
L 433.657509 231.5077 
L 434.014957 231.404917 
L 434.014957 231.523773 
L 434.371915 231.702638 
L 434.371915 231.596153 
L 434.729119 231.46581 
L 434.729119 231.672033 
L 435.441814 231.948641 
L 435.441814 232.135652 
L 436.513913 232.430673 
L 436.513913 232.286287 
L 436.868671 232.417009 
L 436.868671 232.229668 
L 437.576965 232.187093 
L 437.576965 232.225963 
L 437.930746 232.497275 
L 437.930746 232.408915 
L 437.930746 232.672597 
L 438.285504 232.670996 
L 438.285504 232.445943 
L 438.639529 232.365618 
L 438.639529 232.489403 
L 438.99282 232.493643 
L 438.99282 232.449708 
L 439.701115 232.879974 
L 439.701115 232.718363 
L 440.05514 233.004848 
L 440.05514 232.885086 
L 440.763923 232.735853 
L 441.124305 232.650122 
L 441.124305 232.508571 
L 441.477841 232.83272 
L 441.477841 232.671445 
L 441.832599 232.837113 
L 441.832599 232.675008 
L 442.192003 233.057562 
L 442.192003 232.885279 
L 442.897119 233.023611 
L 442.897119 232.716155 
L 443.249677 232.732799 
L 443.249677 232.694918 
L 443.60199 232.939438 
L 443.60199 232.544743 
L 443.954059 232.923567 
L 443.954059 232.794386 
L 444.305639 232.596873 
L 444.657463 232.555392 
L 444.657463 232.730835 
L 445.009532 232.42526 
L 445.361112 232.85772 
L 445.361112 232.543929 
L 445.713181 232.72882 
L 445.713181 232.478562 
L 446.071363 232.743912 
L 446.071363 232.293207 
L 446.423432 232.714464 
L 446.423432 232.401187 
L 446.775501 232.771753 
L 446.775501 232.379309 
L 447.128547 232.497774 
L 447.128547 231.946547 
L 447.481839 232.212357 
L 447.481839 231.966332 
L 448.189889 232.779055 
L 448.189889 232.474337 
L 448.898916 232.934613 
L 448.898916 232.610744 
L 449.253186 232.751225 
L 449.608433 232.697328 
L 449.608433 232.370887 
L 449.963192 232.389697 
L 449.963192 232.326423 
L 450.318194 232.610884 
L 450.318194 232.196555 
L 450.672464 232.747011 
L 450.672464 232.365349 
L 450.672464 232.661763 
L 451.387604 232.470998 
L 451.74334 232.515422 
L 451.74334 232.234535 
L 452.098832 232.733661 
L 452.098832 232.436066 
L 452.458236 232.904824 
L 452.458236 232.596916 
L 452.812505 232.982789 
L 452.812505 232.514113 
L 453.167508 232.623631 
L 453.167508 232.162644 
L 453.522511 232.541478 
L 453.522511 232.271831 
L 453.877758 232.702269 
L 453.877758 232.568559 
L 454.232517 232.82079 
L 454.232517 232.458409 
L 454.588253 232.723531 
L 454.588253 232.459973 
L 454.943011 232.694613 
L 454.943011 232.365056 
L 455.651795 232.291046 
L 455.651795 232.194181 
L 456.010709 232.242385 
L 456.010709 232.36067 
L 456.365223 232.738602 
L 456.365223 232.49573 
L 456.718759 232.806652 
L 456.718759 232.646727 
L 457.073518 232.950084 
L 457.073518 232.692212 
L 457.784012 232.68119 
L 457.784012 232.625268 
L 458.138282 232.58163 
L 458.138282 232.453106 
L 458.493285 232.675057 
L 458.493285 232.467761 
L 458.849266 232.606401 
L 458.849266 232.338414 
L 459.204513 232.593235 
L 459.204513 232.333744 
L 459.559027 232.659873 
L 459.559027 232.464305 
L 459.913785 232.777167 
L 459.913785 232.601336 
L 460.268544 232.987994 
L 460.268544 232.541025 
L 460.623057 232.750371 
L 460.623057 232.560251 
L 460.982706 232.881927 
L 460.982706 232.665747 
L 461.691733 232.875844 
L 461.691733 232.849685 
L 462.04967 232.780942 
L 462.04967 232.816968 
L 462.404184 232.839729 
L 462.756987 232.333142 
L 463.110767 232.550514 
L 463.110767 232.374443 
L 464.16893 232.904942 
L 464.16893 232.733143 
L 464.521732 232.571338 
L 464.875024 232.975167 
L 464.875024 232.644211 
L 465.228071 233.022559 
L 465.228071 232.718432 
L 465.583073 232.923708 
L 465.583073 232.574087 
L 465.942477 232.807934 
L 465.942477 232.507198 
L 466.295769 232.894729 
L 466.295769 232.469429 
L 466.650038 232.709351 
L 466.650038 232.500915 
L 467.004552 232.691078 
L 467.004552 232.398873 
L 467.35931 232.789706 
L 467.35931 232.457158 
L 467.714802 232.681987 
L 467.714802 232.518007 
L 468.070538 232.839438 
L 468.070538 232.590639 
L 468.42603 232.831319 
L 468.42603 232.60734 
L 468.781522 232.928873 
L 468.781522 232.621081 
L 469.137503 232.926514 
L 469.137503 232.75759 
L 469.49275 232.990523 
L 469.49275 232.773131 
L 469.848731 233.123791 
L 469.848731 232.690227 
L 470.204223 232.91031 
L 470.204223 232.507717 
L 470.559959 232.70506 
L 470.559959 232.247118 
L 470.92083 232.594135 
L 470.92083 232.387045 
L 471.276566 232.765459 
L 471.276566 232.61183 
L 472.348665 232.711411 
L 472.348665 232.693582 
L 472.704402 232.928203 
L 472.704402 232.676356 
L 473.060627 232.893102 
L 473.060627 232.645402 
L 473.417097 232.738549 
L 473.417097 232.547965 
L 473.774545 232.729686 
L 473.774545 232.308999 
L 474.13077 232.56557 
L 474.13077 232.39087 
L 474.487973 232.659684 
L 474.487973 232.352168 
L 474.845177 232.756203 
L 474.845177 232.588529 
L 475.201646 232.656002 
L 475.201646 232.250599 
L 475.55885 232.5521 
L 475.55885 232.336088 
L 475.920698 232.363739 
L 475.920698 232.154614 
L 476.278635 232.526436 
L 476.278635 232.093113 
L 476.636327 232.339679 
L 476.636327 232.038135 
L 476.993531 231.911958 
L 477.350734 232.109217 
L 477.350734 232.23559 
L 477.707204 232.517272 
L 477.707204 232.7325 
L 478.062696 232.699072 
L 478.062696 232.534628 
L 478.419655 231.89285 
L 478.77588 231.962774 
L 478.77588 231.914464 
L 479.131861 231.865968 
L 479.131861 231.961598 
L 479.487597 232.496141 
L 479.487597 232.37985 
L 480.199314 232.247121 
L 480.199314 232.327177 
L 480.555295 232.077598 
L 480.917877 232.448539 
L 480.917877 232.191475 
L 481.273369 232.438787 
L 481.273369 232.213564 
L 481.628861 232.511695 
L 481.628861 232.073457 
L 481.984108 232.233505 
L 481.984108 232.014342 
L 482.343512 232.385636 
L 482.343512 231.944519 
L 482.699004 232.425488 
L 482.699004 232.238492 
L 483.054251 232.544255 
L 483.054251 232.206045 
L 483.408276 232.465123 
L 483.408276 231.924202 
L 483.762057 232.229089 
L 483.762057 231.912514 
L 484.114859 232.239996 
L 484.114859 231.972357 
L 484.466439 232.282283 
L 484.466439 232.003053 
L 484.818019 232.122757 
L 484.818019 231.645478 
L 485.168865 231.971626 
L 485.168865 231.75668 
L 485.519712 232.02384 
L 485.519712 231.564208 
L 485.884984 232.06036 
L 485.884984 231.548989 
L 486.234852 231.741939 
L 486.234852 231.337136 
L 486.585699 231.701757 
L 486.585699 231.081902 
L 486.936056 231.4712 
L 486.936056 230.972567 
L 487.286414 231.325321 
L 487.286414 231.01247 
L 487.638238 231.625153 
L 487.638238 231.116713 
L 487.98884 231.714639 
L 487.98884 231.33725 
L 488.339931 231.980036 
L 488.339931 231.529145 
L 488.690289 231.973378 
L 488.690289 231.796348 
L 489.041624 232.091299 
L 489.041624 231.390508 
L 489.393449 231.7871 
L 489.393449 231.349514 
L 489.745029 231.613741 
L 489.745029 231.172864 
L 490.096608 231.839975 
L 490.096608 231.198256 
L 490.448677 231.64586 
L 490.448677 230.926674 
L 490.80637 231.454751 
L 490.80637 230.573495 
L 491.158683 231.07402 
L 491.158683 230.412354 
L 491.51173 230.835098 
L 491.51173 229.195105 
L 491.865755 229.413314 
L 491.865755 226.525294 
L 492.219046 226.117722 
L 492.219046 220.929611 
L 492.572827 220.786001 
L 492.572827 210.336191 
L 492.926363 210.754141 
L 492.926363 195.653001 
L 493.278921 195.663402 
L 493.278921 174.535234 
L 493.633924 176.843109 
L 493.633924 144.289203 
L 493.985259 149.763949 
L 493.985259 114.096979 
L 494.335861 126.126328 
L 494.335861 85.043673 
L 494.685974 106.244302 
L 494.685974 65.732243 
L 495.035109 94.174416 
L 495.035109 53.161657 
L 495.383755 93.135268 
L 495.383755 49.932727 
L 495.736802 92.436404 
L 495.736802 52.301623 
L 496.083981 92.124778 
L 496.083981 50.203844 
L 496.427004 96.406983 
L 496.427004 59.186727 
L 496.769782 102.593046 
L 496.769782 76.608142 
L 497.111094 119.551005 
L 497.111094 95.807988 
L 497.450693 134.045387 
L 497.450693 110.52646 
L 497.785892 142.749305 
L 497.785892 122.221771 
L 498.122803 150.127615 
L 498.122803 130.258864 
L 498.457268 157.327674 
L 498.457268 141.052288 
L 498.790267 165.560107 
L 498.790267 152.789406 
L 499.122777 176.484923 
L 499.122777 164.661259 
L 499.455286 182.414555 
L 499.455286 170.644554 
L 499.787796 187.64816 
L 499.787796 174.214421 
L 500.119572 188.742211 
L 500.119572 178.409879 
L 500.451592 191.591783 
L 500.451592 179.948694 
L 500.789236 194.04347 
L 500.789236 182.05679 
L 501.121746 193.788664 
L 501.121746 184.155738 
L 501.453766 196.384292 
L 501.453766 188.718625 
L 501.786276 201.115539 
L 501.786276 192.096361 
L 502.11903 203.003529 
L 502.11903 194.573267 
L 502.451784 204.383704 
L 502.451784 198.698912 
L 502.786005 208.719499 
L 502.786005 203.620598 
L 503.12096 212.402095 
L 503.12096 205.243003 
L 503.456892 212.455282 
L 503.456892 206.538192 
L 503.793069 212.200915 
L 503.793069 206.178461 
L 504.129491 213.626798 
L 504.129491 207.932116 
L 504.467868 214.967381 
L 504.467868 209.482379 
L 504.803556 216.016241 
L 504.803556 210.905616 
L 505.140466 216.646388 
L 505.140466 211.779526 
L 505.477132 217.952308 
L 505.477132 213.222594 
L 505.819911 218.244628 
L 505.819911 214.766568 
L 506.158532 220.065622 
L 506.158532 216.82408 
L 506.495687 221.987391 
L 506.495687 218.440792 
L 506.833576 222.505066 
L 506.833576 219.519447 
L 507.172687 222.995282 
L 507.172687 220.322183 
L 507.512042 224.226618 
L 507.512042 221.247126 
L 507.852375 224.243101 
L 507.852375 221.420077 
L 508.192709 223.918484 
L 508.192709 221.444461 
L 508.532798 221.990673 
L 508.874598 222.05113 
L 508.874598 222.491238 
L 509.215176 222.966224 
L 509.215176 223.790516 
L 509.557709 226.375871 
L 509.557709 224.1907 
L 509.90171 226.903919 
L 509.90171 225.157922 
L 510.243999 227.335343 
L 510.243999 225.603012 
L 510.586533 227.874924 
L 510.586533 226.138941 
L 510.934935 228.186412 
L 510.934935 226.214403 
L 511.277224 228.166245 
L 511.277224 226.251032 
L 511.621225 228.046485 
L 511.621225 226.260856 
L 511.96547 228.324769 
L 511.96547 226.72677 
L 512.310449 228.758503 
L 512.310449 227.162729 
L 512.655916 228.823854 
L 512.655916 226.934741 
L 513.001628 228.459004 
L 513.001628 227.269842 
L 513.348808 228.952097 
L 513.348808 227.955087 
L 513.69672 229.932195 
L 513.69672 228.818325 
L 514.046589 230.22838 
L 514.046589 229.261199 
L 514.394501 230.257178 
L 514.394501 229.133597 
L 514.745103 230.149217 
L 514.745103 228.796338 
L 515.098884 230.003177 
L 515.098884 229.118517 
L 515.463422 230.095669 
L 515.463422 229.377295 
L 515.819403 230.483237 
L 515.819403 229.551084 
L 516.170249 230.799203 
L 516.170249 229.956861 
L 516.521096 230.958491 
L 516.521096 230.318284 
L 516.872431 231.405691 
L 516.872431 230.494678 
L 517.2245 231.48936 
L 517.2245 230.8609 
L 517.929127 230.458835 
L 517.929127 230.541609 
L 518.280951 230.644782 
L 518.633998 230.975692 
L 518.987534 231.00243 
L 519.340581 230.844055 
L 519.340581 230.908052 
L 519.693384 231.538186 
L 519.693384 231.045913 
L 520.046186 231.717335 
L 520.046186 231.311734 
L 520.400211 231.98594 
L 520.400211 231.553841 
L 520.75937 232.210382 
L 520.75937 231.763043 
L 521.11364 232.076425 
L 521.11364 231.615749 
L 521.468154 232.190863 
L 521.468154 231.702068 
L 522.177915 232.655595 
L 522.177915 232.177485 
L 522.533162 232.634167 
L 522.533162 232.19238 
L 522.88841 232.607789 
L 522.88841 232.0868 
L 523.599882 232.285716 
L 523.599882 232.457155 
L 523.955374 232.039095 
L 524.311355 232.675466 
L 524.667825 232.539973 
L 525.026984 232.937386 
L 525.026984 232.445651 
L 525.382231 232.839881 
L 525.382231 232.547638 
L 525.743102 232.966834 
L 525.743102 232.730495 
L 526.099572 233.026796 
L 526.45433 232.618434 
L 526.809333 232.768967 
L 527.163847 232.500911 
L 527.874097 233.122111 
L 528.228856 233.401483 
L 528.228856 233.238105 
L 528.583858 233.542202 
L 528.583858 233.321948 
L 528.93935 233.516401 
L 528.93935 233.260893 
L 529.651068 233.178948 
L 530.006559 232.876776 
L 530.363029 233.109351 
L 530.724389 232.958253 
L 531.081103 233.279574 
L 531.43904 233.17436 
L 531.796732 233.452318 
L 531.796732 233.395578 
L 532.51065 233.364338 
L 532.867853 233.161441 
L 533.22579 233.396981 
L 533.22579 233.178758 
L 534.298867 233.424984 
L 534.659738 233.19488 
L 535.738682 233.884738 
L 535.738682 233.795916 
L 536.097352 233.892696 
L 536.097352 233.758503 
L 536.815915 233.576167 
L 537.17483 233.595346 
L 537.17483 233.503313 
L 538.252308 233.429624 
L 538.610978 233.555999 
L 539.327585 233.922355 
L 539.327585 233.809695 
L 541.486697 233.518275 
L 542.203549 233.418294 
L 542.922356 233.449818 
L 543.280782 233.570475 
L 543.280782 233.525922 
L 543.995677 233.41217 
L 545.066065 233.577114 
L 545.422046 233.764006 
L 545.422046 233.905442 
L 545.783894 233.953317 
L 546.853793 233.798421 
L 546.853793 233.814151 
L 547.209529 233.806712 
L 547.209529 233.834675 
L 547.565021 234.008757 
L 547.565021 234.008343 
L 549.35006 233.856967 
L 550.066667 233.708546 
L 552.584938 233.969194 
L 552.944341 234.014361 
L 554.384401 233.697347 
L 555.462857 233.632266 
L 560.095009 233.995155 
L 573.89 234.023883 
L 574.971389 233.995421 
L 582.213741 234.037627 
L 582.213741 234.0931 
L 583.667737 234.028911 
L 588.38595 234.031178 
L 597.102836 234.07432 
L 606.908201 234.05719 
L 634.384738 233.927233 
L 635.460749 233.624881 
L 636.903743 233.710321 
L 638.334268 233.870017 
L 640.114905 233.930422 
L 644.373473 233.898502 
L 661.219239 233.990127 
L 661.94367 234.045237 
L 685.1812 234.068915 
L 689.905525 234.085462 
L 699.366889 234.058278 
L 742.943492 234.019823 
L 744.038084 233.807129 
L 745.492324 233.562256 
L 746.580071 233.723933 
L 747.30548 233.451697 
L 748.39347 233.163387 
L 748.761431 233.382762 
L 748.761431 233.358515 
L 749.487085 233.10095 
L 749.849667 233.174213 
L 750.212249 232.988532 
L 750.574831 233.006499 
L 751.662822 233.378316 
L 752.025649 233.364659 
L 752.388231 233.516173 
L 752.750813 233.371161 
L 753.113395 233.594675 
L 753.476222 233.420642 
L 754.211655 233.553751 
L 754.574481 233.38161 
L 755.662961 233.724011 
L 755.662961 233.633559 
L 756.025543 233.678837 
L 756.388125 233.540084 
L 756.750707 233.623667 
L 757.477583 233.541357 
L 757.840165 233.602934 
L 757.840165 233.762345 
L 758.202747 233.695113 
L 758.933291 233.844101 
L 759.295873 233.757448 
L 759.658699 233.811467 
L 760.383864 233.721479 
L 760.74669 233.752612 
L 761.109272 233.666135 
L 761.471854 233.713828 
L 761.834681 233.621415 
L 763.285499 233.962333 
L 766.558518 233.832678 
L 766.558518 233.921127 
L 767.284171 234.04195 
L 767.646753 233.875983 
L 769.465776 233.77109 
L 772.374012 233.918761 
L 772.374012 233.877359 
L 777.456763 233.913422 
L 777.456763 233.945907 
L 778.182172 233.975477 
L 778.182172 233.963582 
L 779.273586 233.920069 
L 781.085763 233.777146 
L 784.352425 234.051987 
L 786.52205 234.021956 
L 787.246725 233.984612 
L 787.246725 233.905393 
L 789.422218 233.810552 
L 789.783822 233.879231 
L 790.507031 233.844044 
L 790.507031 233.916595 
L 791.948802 234.009175 
L 791.948802 234.072871 
L 793.400109 234.006529 
L 793.400109 233.904224 
L 795.948452 233.864459 
L 795.948452 233.88281 
L 797.030575 233.97938 
L 797.753539 234.043509 
L 811.944119 233.980218 
L 811.944119 233.980218 
" clip-path="url(#pcc7a08ba22)" style="fill: none; stroke: #008000; stroke-width: 1.5; stroke-linecap: square"/>
   </g>
   <g id="patch_3">
    <path d="M 47.72 534.04 
L 47.72 26.88 
" style="fill: none; stroke: #000000; stroke-width: 0.8; stroke-linejoin: miter; stroke-linecap: square"/>
   </g>
   <g id="patch_4">
    <path d="M 853.2 534.04 
L 853.2 26.88 
" style="fill: none; stroke: #000000; stroke-width: 0.8; stroke-linejoin: miter; stroke-linecap: square"/>
   </g>
   <g id="patch_5">
    <path d="M 47.72 534.04 
L 853.2 534.04 
" style="fill: none; stroke: #000000; stroke-width: 0.8; stroke-linejoin: miter; stroke-linecap: square"/>
   </g>
   <g id="patch_6">
    <path d="M 47.72 26.88 
L 853.2 26.88 
" style="fill: none; stroke: #000000; stroke-width: 0.8; stroke-linejoin: miter; stroke-linecap: square"/>
   </g>
   <g id="patch_7">
    <path d="M 563.190613 386.053101 
Q 537.039319 391.882694 510.888025 397.712287 
L 511.758336 401.616459 
Q 505.251011 399.993424 498.743686 398.370389 
Q 503.945545 394.137166 509.147405 389.903943 
L 510.017715 393.808115 
Q 536.169009 387.978522 562.320303 382.148928 
L 563.190613 386.053101 
z
" style="stroke: #000000; stroke-linecap: round"/>
   </g>
   <g id="text_15">
    <!-- Peak: RT=2.81, Area=7.35e+03 -->
    <g style="fill: #ff0000" transform="translate(568.427552 369.559103) scale(0.1 -0.1)">
     <defs>
      <path id="DejaVuSans-50" d="M 1259 4147 
L 1259 2394 
L 2053 2394 
Q 2494 2394 2734 2622 
Q 2975 2850 2975 3272 
Q 2975 3691 2734 3919 
Q 2494 4147 2053 4147 
L 1259 4147 
z
M 628 4666 
L 2053 4666 
Q 2838 4666 3239 4311 
Q 3641 3956 3641 3272 
Q 3641 2581 3239 2228 
Q 2838 1875 2053 1875 
L 1259 1875 
L 1259 0 
L 628 0 
L 628 4666 
z
" transform="scale(0.015625)"/>
      <path id="DejaVuSans-6b" d="M 581 4863 
L 1159 4863 
L 1159 1991 
L 2875 3500 
L 3609 3500 
L 1753 1863 
L 3688 0 
L 2938 0 
L 1159 1709 
L 1159 0 
L 581 0 
L 581 4863 
z
" transform="scale(0.015625)"/>
      <path id="DejaVuSans-3a" d="M 750 794 
L 1409 794 
L 1409 0 
L 750 0 
L 750 794 
z
M 750 3309 
L 1409 3309 
L 1409 2516 
L 750 2516 
L 750 3309 
z
" transform="scale(0.015625)"/>
      <path id="DejaVuSans-3d" d="M 678 2906 
L 4684 2906 
L 4684 2381 
L 678 2381 
L 678 2906 
z
M 678 1631 
L 4684 1631 
L 4684 1100 
L 678 1100 
L 678 1631 
z
" transform="scale(0.015625)"/>
      <path id="DejaVuSans-38" d="M 2034 2216 
Q 1584 2216 1326 1975 
Q 1069 1734 1069 1313 
Q 1069 891 1326 650 
Q 1584 409 2034 409 
Q 2484 409 2743 651 
Q 3003 894 3003 1313 
Q 3003 1734 2745 1975 
Q 2488 2216 2034 2216 
z
M 1403 2484 
Q 997 2584 770 2862 
Q 544 3141 544 3541 
Q 544 4100 942 4425 
Q 1341 4750 2034 4750 
Q 2731 4750 3128 4425 
Q 3525 4100 3525 3541 
Q 3525 3141 3298 2862 
Q 3072 2584 2669 2484 
Q 3125 2378 3379 2068 
Q 3634 1759 3634 1313 
Q 3634 634 3220 271 
Q 2806 -91 2034 -91 
Q 1263 -91 848 271 
Q 434 634 434 1313 
Q 434 1759 690 2068 
Q 947 2378 1403 2484 
z
M 1172 3481 
Q 1172 3119 1398 2916 
Q 1625 2713 2034 2713 
Q 2441 2713 2670 2916 
Q 2900 3119 2900 3481 
Q 2900 3844 2670 4047 
Q 2441 4250 2034 4250 
Q 1625 4250 1398 4047 
Q 1172 3844 1172 3481 
z
" transform="scale(0.015625)"/>
      <path id="DejaVuSans-2c" d="M 750 794 
L 1409 794 
L 1409 256 
L 897 -744 
L 494 -744 
L 750 256 
L 750 794 
z
" transform="scale(0.015625)"/>
      <path id="DejaVuSans-41" d="M 2188 4044 
L 1331 1722 
L 3047 1722 
L 2188 4044 
z
M 1831 4666 
L 2547 4666 
L 4325 0 
L 3669 0 
L 3244 1197 
L 1141 1197 
L 716 0 
L 50 0 
L 1831 4666 
z
" transform="scale(0.015625)"/>
      <path id="DejaVuSans-37" d="M 525 4666 
L 3525 4666 
L 3525 4397 
L 1831 0 
L 1172 0 
L 2766 4134 
L 525 4134 
L 525 4666 
z
" transform="scale(0.015625)"/>
      <path id="DejaVuSans-2b" d="M 2944 4013 
L 2944 2272 
L 4684 2272 
L 4684 1741 
L 2944 1741 
L 2944 0 
L 2419 0 
L 2419 1741 
L 678 1741 
L 678 2272 
L 2419 2272 
L 2419 4013 
L 2944 4013 
z
" transform="scale(0.015625)"/>
     </defs>
     <use xlink:href="#DejaVuSans-50"/>
     <use xlink:href="#DejaVuSans-65" transform="translate(56.677734 0)"/>
     <use xlink:href="#DejaVuSans-61" transform="translate(118.201172 0)"/>
     <use xlink:href="#DejaVuSans-6b" transform="translate(179.480469 0)"/>
     <use xlink:href="#DejaVuSans-3a" transform="translate(237.390625 0)"/>
     <use xlink:href="#DejaVuSans-20" transform="translate(271.082031 0)"/>
     <use xlink:href="#DejaVuSans-52" transform="translate(302.869141 0)"/>
     <use xlink:href="#DejaVuSans-54" transform="translate(365.101562 0)"/>
     <use xlink:href="#DejaVuSans-3d" transform="translate(426.185547 0)"/>
     <use xlink:href="#DejaVuSans-32" transform="translate(509.974609 0)"/>
     <use xlink:href="#DejaVuSans-2e" transform="translate(573.597656 0)"/>
     <use xlink:href="#DejaVuSans-38" transform="translate(605.384766 0)"/>
     <use xlink:href="#DejaVuSans-31" transform="translate(669.007812 0)"/>
     <use xlink:href="#DejaVuSans-2c" transform="translate(732.630859 0)"/>
     <use xlink:href="#DejaVuSans-20" transform="translate(764.417969 0)"/>
     <use xlink:href="#DejaVuSans-41" transform="translate(796.205078 0)"/>
     <use xlink:href="#DejaVuSans-72" transform="translate(864.613281 0)"/>
     <use xlink:href="#DejaVuSans-65" transform="translate(903.476562 0)"/>
     <use xlink:href="#DejaVuSans-61" transform="translate(965 0)"/>
     <use xlink:href="#DejaVuSans-3d" transform="translate(1026.279297 0)"/>
     <use xlink:href="#DejaVuSans-37" transform="translate(1110.068359 0)"/>
     <use xlink:href="#DejaVuSans-2e" transform="translate(1173.691406 0)"/>
     <use xlink:href="#DejaVuSans-33" transform="translate(1205.478516 0)"/>
     <use xlink:href="#DejaVuSans-35" transform="translate(1269.101562 0)"/>
     <use xlink:href="#DejaVuSans-65" transform="translate(1332.724609 0)"/>
     <use xlink:href="#DejaVuSans-2b" transform="translate(1394.248047 0)"/>
     <use xlink:href="#DejaVuSans-30" transform="translate(1478.037109 0)"/>
     <use xlink:href="#DejaVuSans-33" transform="translate(1541.660156 0)"/>
    </g>
    <!-- (31.69% of total) -->
    <g style="fill: #ff0000" transform="translate(568.427552 380.756915) scale(0.1 -0.1)">
     <defs>
      <path id="DejaVuSans-36" d="M 2113 2584 
Q 1688 2584 1439 2293 
Q 1191 2003 1191 1497 
Q 1191 994 1439 701 
Q 1688 409 2113 409 
Q 2538 409 2786 701 
Q 3034 994 3034 1497 
Q 3034 2003 2786 2293 
Q 2538 2584 2113 2584 
z
M 3366 4563 
L 3366 3988 
Q 3128 4100 2886 4159 
Q 2644 4219 2406 4219 
Q 1781 4219 1451 3797 
Q 1122 3375 1075 2522 
Q 1259 2794 1537 2939 
Q 1816 3084 2150 3084 
Q 2853 3084 3261 2657 
Q 3669 2231 3669 1497 
Q 3669 778 3244 343 
Q 2819 -91 2113 -91 
Q 1303 -91 875 529 
Q 447 1150 447 2328 
Q 447 3434 972 4092 
Q 1497 4750 2381 4750 
Q 2619 4750 2861 4703 
Q 3103 4656 3366 4563 
z
" transform="scale(0.015625)"/>
      <path id="DejaVuSans-39" d="M 703 97 
L 703 672 
Q 941 559 1184 500 
Q 1428 441 1663 441 
Q 2288 441 2617 861 
Q 2947 1281 2994 2138 
Q 2813 1869 2534 1725 
Q 2256 1581 1919 1581 
Q 1219 1581 811 2004 
Q 403 2428 403 3163 
Q 403 3881 828 4315 
Q 1253 4750 1959 4750 
Q 2769 4750 3195 4129 
Q 3622 3509 3622 2328 
Q 3622 1225 3098 567 
Q 2575 -91 1691 -91 
Q 1453 -91 1209 -44 
Q 966 3 703 97 
z
M 1959 2075 
Q 2384 2075 2632 2365 
Q 2881 2656 2881 3163 
Q 2881 3666 2632 3958 
Q 2384 4250 1959 4250 
Q 1534 4250 1286 3958 
Q 1038 3666 1038 3163 
Q 1038 2656 1286 2365 
Q 1534 2075 1959 2075 
z
" transform="scale(0.015625)"/>
      <path id="DejaVuSans-25" d="M 4653 2053 
Q 4381 2053 4226 1822 
Q 4072 1591 4072 1178 
Q 4072 772 4226 539 
Q 4381 306 4653 306 
Q 4919 306 5073 539 
Q 5228 772 5228 1178 
Q 5228 1588 5073 1820 
Q 4919 2053 4653 2053 
z
M 4653 2450 
Q 5147 2450 5437 2106 
Q 5728 1763 5728 1178 
Q 5728 594 5436 251 
Q 5144 -91 4653 -91 
Q 4153 -91 3862 251 
Q 3572 594 3572 1178 
Q 3572 1766 3864 2108 
Q 4156 2450 4653 2450 
z
M 1428 4353 
Q 1159 4353 1004 4120 
Q 850 3888 850 3481 
Q 850 3069 1003 2837 
Q 1156 2606 1428 2606 
Q 1700 2606 1854 2837 
Q 2009 3069 2009 3481 
Q 2009 3884 1853 4118 
Q 1697 4353 1428 4353 
z
M 4250 4750 
L 4750 4750 
L 1831 -91 
L 1331 -91 
L 4250 4750 
z
M 1428 4750 
Q 1922 4750 2215 4408 
Q 2509 4066 2509 3481 
Q 2509 2891 2217 2550 
Q 1925 2209 1428 2209 
Q 931 2209 642 2551 
Q 353 2894 353 3481 
Q 353 4063 643 4406 
Q 934 4750 1428 4750 
z
" transform="scale(0.015625)"/>
      <path id="DejaVuSans-66" d="M 2375 4863 
L 2375 4384 
L 1825 4384 
Q 1516 4384 1395 4259 
Q 1275 4134 1275 3809 
L 1275 3500 
L 2222 3500 
L 2222 3053 
L 1275 3053 
L 1275 0 
L 697 0 
L 697 3053 
L 147 3053 
L 147 3500 
L 697 3500 
L 697 3744 
Q 697 4328 969 4595 
Q 1241 4863 1831 4863 
L 2375 4863 
z
" transform="scale(0.015625)"/>
     </defs>
     <use xlink:href="#DejaVuSans-28"/>
     <use xlink:href="#DejaVuSans-33" transform="translate(39.013672 0)"/>
     <use xlink:href="#DejaVuSans-31" transform="translate(102.636719 0)"/>
     <use xlink:href="#DejaVuSans-2e" transform="translate(166.259766 0)"/>
     <use xlink:href="#DejaVuSans-36" transform="translate(198.046875 0)"/>
     <use xlink:href="#DejaVuSans-39" transform="translate(261.669922 0)"/>
     <use xlink:href="#DejaVuSans-25" transform="translate(325.292969 0)"/>
     <use xlink:href="#DejaVuSans-20" transform="translate(420.3125 0)"/>
     <use xlink:href="#DejaVuSans-6f" transform="translate(452.099609 0)"/>
     <use xlink:href="#DejaVuSans-66" transform="translate(513.28125 0)"/>
     <use xlink:href="#DejaVuSans-20" transform="translate(548.486328 0)"/>
     <use xlink:href="#DejaVuSans-74" transform="translate(580.273438 0)"/>
     <use xlink:href="#DejaVuSans-6f" transform="translate(619.482422 0)"/>
     <use xlink:href="#DejaVuSans-74" transform="translate(680.664062 0)"/>
     <use xlink:href="#DejaVuSans-61" transform="translate(719.873047 0)"/>
     <use xlink:href="#DejaVuSans-6c" transform="translate(781.152344 0)"/>
     <use xlink:href="#DejaVuSans-29" transform="translate(808.935547 0)"/>
    </g>
   </g>
   <g id="text_16">
    <!-- UV &amp; MS Chromatograms: IrCp1D12, target m/z=716.2197068 -->
    <g transform="translate(261.791875 20.88) scale(0.12 -0.12)">
     <defs>
      <path id="DejaVuSans-55" d="M 556 4666 
L 1191 4666 
L 1191 1831 
Q 1191 1081 1462 751 
Q 1734 422 2344 422 
Q 2950 422 3222 751 
Q 3494 1081 3494 1831 
L 3494 4666 
L 4128 4666 
L 4128 1753 
Q 4128 841 3676 375 
Q 3225 -91 2344 -91 
Q 1459 -91 1007 375 
Q 556 841 556 1753 
L 556 4666 
z
" transform="scale(0.015625)"/>
      <path id="DejaVuSans-56" d="M 1831 0 
L 50 4666 
L 709 4666 
L 2188 738 
L 3669 4666 
L 4325 4666 
L 2547 0 
L 1831 0 
z
" transform="scale(0.015625)"/>
      <path id="DejaVuSans-26" d="M 1556 2509 
Q 1272 2256 1139 2004 
Q 1006 1753 1006 1478 
Q 1006 1022 1337 719 
Q 1669 416 2169 416 
Q 2466 416 2725 514 
Q 2984 613 3213 813 
L 1556 2509 
z
M 1997 2859 
L 3584 1234 
Q 3769 1513 3872 1830 
Q 3975 2147 3994 2503 
L 4575 2503 
Q 4538 2091 4375 1687 
Q 4213 1284 3922 891 
L 4794 0 
L 4006 0 
L 3559 459 
Q 3234 181 2878 45 
Q 2522 -91 2113 -91 
Q 1359 -91 881 339 
Q 403 769 403 1441 
Q 403 1841 612 2192 
Q 822 2544 1241 2853 
Q 1091 3050 1012 3245 
Q 934 3441 934 3628 
Q 934 4134 1281 4442 
Q 1628 4750 2203 4750 
Q 2463 4750 2720 4694 
Q 2978 4638 3244 4525 
L 3244 3956 
Q 2972 4103 2725 4179 
Q 2478 4256 2266 4256 
Q 1938 4256 1733 4082 
Q 1528 3909 1528 3634 
Q 1528 3475 1620 3314 
Q 1713 3153 1997 2859 
z
" transform="scale(0.015625)"/>
      <path id="DejaVuSans-4d" d="M 628 4666 
L 1569 4666 
L 2759 1491 
L 3956 4666 
L 4897 4666 
L 4897 0 
L 4281 0 
L 4281 4097 
L 3078 897 
L 2444 897 
L 1241 4097 
L 1241 0 
L 628 0 
L 628 4666 
z
" transform="scale(0.015625)"/>
      <path id="DejaVuSans-53" d="M 3425 4513 
L 3425 3897 
Q 3066 4069 2747 4153 
Q 2428 4238 2131 4238 
Q 1616 4238 1336 4038 
Q 1056 3838 1056 3469 
Q 1056 3159 1242 3001 
Q 1428 2844 1947 2747 
L 2328 2669 
Q 3034 2534 3370 2195 
Q 3706 1856 3706 1288 
Q 3706 609 3251 259 
Q 2797 -91 1919 -91 
Q 1588 -91 1214 -16 
Q 841 59 441 206 
L 441 856 
Q 825 641 1194 531 
Q 1563 422 1919 422 
Q 2459 422 2753 634 
Q 3047 847 3047 1241 
Q 3047 1584 2836 1778 
Q 2625 1972 2144 2069 
L 1759 2144 
Q 1053 2284 737 2584 
Q 422 2884 422 3419 
Q 422 4038 858 4394 
Q 1294 4750 2059 4750 
Q 2388 4750 2728 4690 
Q 3069 4631 3425 4513 
z
" transform="scale(0.015625)"/>
      <path id="DejaVuSans-43" d="M 4122 4306 
L 4122 3641 
Q 3803 3938 3442 4084 
Q 3081 4231 2675 4231 
Q 1875 4231 1450 3742 
Q 1025 3253 1025 2328 
Q 1025 1406 1450 917 
Q 1875 428 2675 428 
Q 3081 428 3442 575 
Q 3803 722 4122 1019 
L 4122 359 
Q 3791 134 3420 21 
Q 3050 -91 2638 -91 
Q 1578 -91 968 557 
Q 359 1206 359 2328 
Q 359 3453 968 4101 
Q 1578 4750 2638 4750 
Q 3056 4750 3426 4639 
Q 3797 4528 4122 4306 
z
" transform="scale(0.015625)"/>
      <path id="DejaVuSans-68" d="M 3513 2113 
L 3513 0 
L 2938 0 
L 2938 2094 
Q 2938 2591 2744 2837 
Q 2550 3084 2163 3084 
Q 1697 3084 1428 2787 
Q 1159 2491 1159 1978 
L 1159 0 
L 581 0 
L 581 4863 
L 1159 4863 
L 1159 2956 
Q 1366 3272 1645 3428 
Q 1925 3584 2291 3584 
Q 2894 3584 3203 3211 
Q 3513 2838 3513 2113 
z
" transform="scale(0.015625)"/>
      <path id="DejaVuSans-67" d="M 2906 1791 
Q 2906 2416 2648 2759 
Q 2391 3103 1925 3103 
Q 1463 3103 1205 2759 
Q 947 2416 947 1791 
Q 947 1169 1205 825 
Q 1463 481 1925 481 
Q 2391 481 2648 825 
Q 2906 1169 2906 1791 
z
M 3481 434 
Q 3481 -459 3084 -895 
Q 2688 -1331 1869 -1331 
Q 1566 -1331 1297 -1286 
Q 1028 -1241 775 -1147 
L 775 -588 
Q 1028 -725 1275 -790 
Q 1522 -856 1778 -856 
Q 2344 -856 2625 -561 
Q 2906 -266 2906 331 
L 2906 616 
Q 2728 306 2450 153 
Q 2172 0 1784 0 
Q 1141 0 747 490 
Q 353 981 353 1791 
Q 353 2603 747 3093 
Q 1141 3584 1784 3584 
Q 2172 3584 2450 3431 
Q 2728 3278 2906 2969 
L 2906 3500 
L 3481 3500 
L 3481 434 
z
" transform="scale(0.015625)"/>
      <path id="DejaVuSans-70" d="M 1159 525 
L 1159 -1331 
L 581 -1331 
L 581 3500 
L 1159 3500 
L 1159 2969 
Q 1341 3281 1617 3432 
Q 1894 3584 2278 3584 
Q 2916 3584 3314 3078 
Q 3713 2572 3713 1747 
Q 3713 922 3314 415 
Q 2916 -91 2278 -91 
Q 1894 -91 1617 61 
Q 1341 213 1159 525 
z
M 3116 1747 
Q 3116 2381 2855 2742 
Q 2594 3103 2138 3103 
Q 1681 3103 1420 2742 
Q 1159 2381 1159 1747 
Q 1159 1113 1420 752 
Q 1681 391 2138 391 
Q 2594 391 2855 752 
Q 3116 1113 3116 1747 
z
" transform="scale(0.015625)"/>
      <path id="DejaVuSans-44" d="M 1259 4147 
L 1259 519 
L 2022 519 
Q 2988 519 3436 956 
Q 3884 1394 3884 2338 
Q 3884 3275 3436 3711 
Q 2988 4147 2022 4147 
L 1259 4147 
z
M 628 4666 
L 1925 4666 
Q 3281 4666 3915 4102 
Q 4550 3538 4550 2338 
Q 4550 1131 3912 565 
Q 3275 0 1925 0 
L 628 0 
L 628 4666 
z
" transform="scale(0.015625)"/>
      <path id="DejaVuSans-2f" d="M 1625 4666 
L 2156 4666 
L 531 -594 
L 0 -594 
L 1625 4666 
z
" transform="scale(0.015625)"/>
     </defs>
     <use xlink:href="#DejaVuSans-55"/>
     <use xlink:href="#DejaVuSans-56" transform="translate(73.193359 0)"/>
     <use xlink:href="#DejaVuSans-20" transform="translate(141.601562 0)"/>
     <use xlink:href="#DejaVuSans-26" transform="translate(173.388672 0)"/>
     <use xlink:href="#DejaVuSans-20" transform="translate(251.367188 0)"/>
     <use xlink:href="#DejaVuSans-4d" transform="translate(283.154297 0)"/>
     <use xlink:href="#DejaVuSans-53" transform="translate(369.433594 0)"/>
     <use xlink:href="#DejaVuSans-20" transform="translate(432.910156 0)"/>
     <use xlink:href="#DejaVuSans-43" transform="translate(464.697266 0)"/>
     <use xlink:href="#DejaVuSans-68" transform="translate(534.521484 0)"/>
     <use xlink:href="#DejaVuSans-72" transform="translate(597.900391 0)"/>
     <use xlink:href="#DejaVuSans-6f" transform="translate(636.763672 0)"/>
     <use xlink:href="#DejaVuSans-6d" transform="translate(697.945312 0)"/>
     <use xlink:href="#DejaVuSans-61" transform="translate(795.357422 0)"/>
     <use xlink:href="#DejaVuSans-74" transform="translate(856.636719 0)"/>
     <use xlink:href="#DejaVuSans-6f" transform="translate(895.845703 0)"/>
     <use xlink:href="#DejaVuSans-67" transform="translate(957.027344 0)"/>
     <use xlink:href="#DejaVuSans-72" transform="translate(1020.503906 0)"/>
     <use xlink:href="#DejaVuSans-61" transform="translate(1061.617188 0)"/>
     <use xlink:href="#DejaVuSans-6d" transform="translate(1122.896484 0)"/>
     <use xlink:href="#DejaVuSans-73" transform="translate(1220.308594 0)"/>
     <use xlink:href="#DejaVuSans-3a" transform="translate(1272.408203 0)"/>
     <use xlink:href="#DejaVuSans-20" transform="translate(1306.099609 0)"/>
     <use xlink:href="#DejaVuSans-49" transform="translate(1337.886719 0)"/>
     <use xlink:href="#DejaVuSans-72" transform="translate(1367.378906 0)"/>
     <use xlink:href="#DejaVuSans-43" transform="translate(1408.492188 0)"/>
     <use xlink:href="#DejaVuSans-70" transform="translate(1478.316406 0)"/>
     <use xlink:href="#DejaVuSans-31" transform="translate(1541.792969 0)"/>
     <use xlink:href="#DejaVuSans-44" transform="translate(1605.416016 0)"/>
     <use xlink:href="#DejaVuSans-31" transform="translate(1682.417969 0)"/>
     <use xlink:href="#DejaVuSans-32" transform="translate(1746.041016 0)"/>
     <use xlink:href="#DejaVuSans-2c" transform="translate(1809.664062 0)"/>
     <use xlink:href="#DejaVuSans-20" transform="translate(1841.451172 0)"/>
     <use xlink:href="#DejaVuSans-74" transform="translate(1873.238281 0)"/>
     <use xlink:href="#DejaVuSans-61" transform="translate(1912.447266 0)"/>
     <use xlink:href="#DejaVuSans-72" transform="translate(1973.726562 0)"/>
     <use xlink:href="#DejaVuSans-67" transform="translate(2013.089844 0)"/>
     <use xlink:href="#DejaVuSans-65" transform="translate(2076.566406 0)"/>
     <use xlink:href="#DejaVuSans-74" transform="translate(2138.089844 0)"/>
     <use xlink:href="#DejaVuSans-20" transform="translate(2177.298828 0)"/>
     <use xlink:href="#DejaVuSans-6d" transform="translate(2209.085938 0)"/>
     <use xlink:href="#DejaVuSans-2f" transform="translate(2306.498047 0)"/>
     <use xlink:href="#DejaVuSans-7a" transform="translate(2340.189453 0)"/>
     <use xlink:href="#DejaVuSans-3d" transform="translate(2392.679688 0)"/>
     <use xlink:href="#DejaVuSans-37" transform="translate(2476.46875 0)"/>
     <use xlink:href="#DejaVuSans-31" transform="translate(2540.091797 0)"/>
     <use xlink:href="#DejaVuSans-36" transform="translate(2603.714844 0)"/>
     <use xlink:href="#DejaVuSans-2e" transform="translate(2667.337891 0)"/>
     <use xlink:href="#DejaVuSans-32" transform="translate(2699.125 0)"/>
     <use xlink:href="#DejaVuSans-31" transform="translate(2762.748047 0)"/>
     <use xlink:href="#DejaVuSans-39" transform="translate(2826.371094 0)"/>
     <use xlink:href="#DejaVuSans-37" transform="translate(2889.994141 0)"/>
     <use xlink:href="#DejaVuSans-30" transform="translate(2953.617188 0)"/>
     <use xlink:href="#DejaVuSans-36" transform="translate(3017.240234 0)"/>
     <use xlink:href="#DejaVuSans-38" transform="translate(3080.863281 0)"/>
    </g>
   </g>
   <g id="legend_1">
    <g id="patch_8">
     <path d="M 685.971875 64.23625 
L 846.2 64.23625 
Q 848.2 64.23625 848.2 62.23625 
L 848.2 33.88 
Q 848.2 31.88 846.2 31.88 
L 685.971875 31.88 
Q 683.971875 31.88 683.971875 33.88 
L 683.971875 62.23625 
Q 683.971875 64.23625 685.971875 64.23625 
z
" style="fill: #ffffff; opacity: 0.8; stroke: #cccccc; stroke-linejoin: miter"/>
    </g>
    <g id="line2d_15">
     <path d="M 687.971875 39.978437 
L 697.971875 39.978437 
L 707.971875 39.978437 
" style="fill: none; stroke: #0000ff; stroke-width: 1.5; stroke-linecap: square"/>
    </g>
    <g id="text_17">
     <!-- UV Intensity (normalized) -->
     <g transform="translate(715.971875 43.478437) scale(0.1 -0.1)">
      <use xlink:href="#DejaVuSans-55"/>
      <use xlink:href="#DejaVuSans-56" transform="translate(73.193359 0)"/>
      <use xlink:href="#DejaVuSans-20" transform="translate(141.601562 0)"/>
      <use xlink:href="#DejaVuSans-49" transform="translate(173.388672 0)"/>
      <use xlink:href="#DejaVuSans-6e" transform="translate(202.880859 0)"/>
      <use xlink:href="#DejaVuSans-74" transform="translate(266.259766 0)"/>
      <use xlink:href="#DejaVuSans-65" transform="translate(305.46875 0)"/>
      <use xlink:href="#DejaVuSans-6e" transform="translate(366.992188 0)"/>
      <use xlink:href="#DejaVuSans-73" transform="translate(430.371094 0)"/>
      <use xlink:href="#DejaVuSans-69" transform="translate(482.470703 0)"/>
      <use xlink:href="#DejaVuSans-74" transform="translate(510.253906 0)"/>
      <use xlink:href="#DejaVuSans-79" transform="translate(549.462891 0)"/>
      <use xlink:href="#DejaVuSans-20" transform="translate(608.642578 0)"/>
      <use xlink:href="#DejaVuSans-28" transform="translate(640.429688 0)"/>
      <use xlink:href="#DejaVuSans-6e" transform="translate(679.443359 0)"/>
      <use xlink:href="#DejaVuSans-6f" transform="translate(742.822266 0)"/>
      <use xlink:href="#DejaVuSans-72" transform="translate(804.003906 0)"/>
      <use xlink:href="#DejaVuSans-6d" transform="translate(843.367188 0)"/>
      <use xlink:href="#DejaVuSans-61" transform="translate(940.779297 0)"/>
      <use xlink:href="#DejaVuSans-6c" transform="translate(1002.058594 0)"/>
      <use xlink:href="#DejaVuSans-69" transform="translate(1029.841797 0)"/>
      <use xlink:href="#DejaVuSans-7a" transform="translate(1057.625 0)"/>
      <use xlink:href="#DejaVuSans-65" transform="translate(1110.115234 0)"/>
      <use xlink:href="#DejaVuSans-64" transform="translate(1171.638672 0)"/>
      <use xlink:href="#DejaVuSans-29" transform="translate(1235.115234 0)"/>
     </g>
    </g>
    <g id="line2d_16">
     <path d="M 687.971875 54.656562 
L 697.971875 54.656562 
L 707.971875 54.656562 
" style="fill: none; stroke: #008000; stroke-width: 1.5; stroke-linecap: square"/>
    </g>
    <g id="text_18">
     <!-- MS Intensity (normalized) -->
     <g transform="translate(715.971875 58.156562) scale(0.1 -0.1)">
      <use xlink:href="#DejaVuSans-4d"/>
      <use xlink:href="#DejaVuSans-53" transform="translate(86.279297 0)"/>
      <use xlink:href="#DejaVuSans-20" transform="translate(149.755859 0)"/>
      <use xlink:href="#DejaVuSans-49" transform="translate(181.542969 0)"/>
      <use xlink:href="#DejaVuSans-6e" transform="translate(211.035156 0)"/>
      <use xlink:href="#DejaVuSans-74" transform="translate(274.414062 0)"/>
      <use xlink:href="#DejaVuSans-65" transform="translate(313.623047 0)"/>
      <use xlink:href="#DejaVuSans-6e" transform="translate(375.146484 0)"/>
      <use xlink:href="#DejaVuSans-73" transform="translate(438.525391 0)"/>
      <use xlink:href="#DejaVuSans-69" transform="translate(490.625 0)"/>
      <use xlink:href="#DejaVuSans-74" transform="translate(518.408203 0)"/>
      <use xlink:href="#DejaVuSans-79" transform="translate(557.617188 0)"/>
      <use xlink:href="#DejaVuSans-20" transform="translate(616.796875 0)"/>
      <use xlink:href="#DejaVuSans-28" transform="translate(648.583984 0)"/>
      <use xlink:href="#DejaVuSans-6e" transform="translate(687.597656 0)"/>
      <use xlink:href="#DejaVuSans-6f" transform="translate(750.976562 0)"/>
      <use xlink:href="#DejaVuSans-72" transform="translate(812.158203 0)"/>
      <use xlink:href="#DejaVuSans-6d" transform="translate(851.521484 0)"/>
      <use xlink:href="#DejaVuSans-61" transform="translate(948.933594 0)"/>
      <use xlink:href="#DejaVuSans-6c" transform="translate(1010.212891 0)"/>
      <use xlink:href="#DejaVuSans-69" transform="translate(1037.996094 0)"/>
      <use xlink:href="#DejaVuSans-7a" transform="translate(1065.779297 0)"/>
      <use xlink:href="#DejaVuSans-65" transform="translate(1118.269531 0)"/>
      <use xlink:href="#DejaVuSans-64" transform="translate(1179.792969 0)"/>
      <use xlink:href="#DejaVuSans-29" transform="translate(1243.269531 0)"/>
     </g>
    </g>
   </g>
  </g>
 </g>
 <defs>
  <clipPath id="pcc7a08ba22">
   <rect x="47.72" y="26.88" width="805.48" height="507.16"/>
  </clipPath>
 </defs>
</svg>
