<?xml version="1.0" encoding="utf-8" standalone="no"?>
<!DOCTYPE svg PUBLIC "-//W3C//DTD SVG 1.1//EN"
  "http://www.w3.org/Graphics/SVG/1.1/DTD/svg11.dtd">
<svg xmlns:xlink="http://www.w3.org/1999/xlink" width="864pt" height="576pt" viewBox="0 0 864 576" xmlns="http://www.w3.org/2000/svg" version="1.1">
 <metadata>
  <rdf:RDF xmlns:dc="http://purl.org/dc/elements/1.1/" xmlns:cc="http://creativecommons.org/ns#" xmlns:rdf="http://www.w3.org/1999/02/22-rdf-syntax-ns#">
   <cc:Work>
    <dc:type rdf:resource="http://purl.org/dc/dcmitype/StillImage"/>
    <dc:date>2025-03-06T18:40:26.592031</dc:date>
    <dc:format>image/svg+xml</dc:format>
    <dc:creator>
     <cc:Agent>
      <dc:title>Matplotlib v3.10.0, https://matplotlib.org/</dc:title>
     </cc:Agent>
    </dc:creator>
   </cc:Work>
  </rdf:RDF>
 </metadata>
 <defs>
  <style type="text/css">*{stroke-linejoin: round; stroke-linecap: butt}</style>
 </defs>
 <g id="figure_1">
  <g id="patch_1">
   <path d="M 0 576 
L 864 576 
L 864 0 
L 0 0 
z
" style="fill: #ffffff"/>
  </g>
  <g id="axes_1">
   <g id="patch_2">
    <path d="M 47.72 534.04 
L 853.2 534.04 
L 853.2 26.88 
L 47.72 26.88 
z
" style="fill: #ffffff"/>
   </g>
   <g id="matplotlib.axis_1">
    <g id="xtick_1">
     <g id="line2d_1">
      <defs>
       <path id="m0b2c24cc3f" d="M 0 0 
L 0 3.5 
" style="stroke: #000000; stroke-width: 0.8"/>
      </defs>
      <g>
       <use xlink:href="#m0b2c24cc3f" x="83.098041" y="534.04" style="stroke: #000000; stroke-width: 0.8"/>
      </g>
     </g>
     <g id="text_1">
      <!-- 0 -->
      <g transform="translate(79.916791 548.638438) scale(0.1 -0.1)">
       <defs>
        <path id="DejaVuSans-30" d="M 2034 4250 
Q 1547 4250 1301 3770 
Q 1056 3291 1056 2328 
Q 1056 1369 1301 889 
Q 1547 409 2034 409 
Q 2525 409 2770 889 
Q 3016 1369 3016 2328 
Q 3016 3291 2770 3770 
Q 2525 4250 2034 4250 
z
M 2034 4750 
Q 2819 4750 3233 4129 
Q 3647 3509 3647 2328 
Q 3647 1150 3233 529 
Q 2819 -91 2034 -91 
Q 1250 -91 836 529 
Q 422 1150 422 2328 
Q 422 3509 836 4129 
Q 1250 4750 2034 4750 
z
" transform="scale(0.015625)"/>
       </defs>
       <use xlink:href="#DejaVuSans-30"/>
      </g>
     </g>
    </g>
    <g id="xtick_2">
     <g id="line2d_2">
      <g>
       <use xlink:href="#m0b2c24cc3f" x="229.793442" y="534.04" style="stroke: #000000; stroke-width: 0.8"/>
      </g>
     </g>
     <g id="text_2">
      <!-- 1 -->
      <g transform="translate(226.612192 548.638438) scale(0.1 -0.1)">
       <defs>
        <path id="DejaVuSans-31" d="M 794 531 
L 1825 531 
L 1825 4091 
L 703 3866 
L 703 4441 
L 1819 4666 
L 2450 4666 
L 2450 531 
L 3481 531 
L 3481 0 
L 794 0 
L 794 531 
z
" transform="scale(0.015625)"/>
       </defs>
       <use xlink:href="#DejaVuSans-31"/>
      </g>
     </g>
    </g>
    <g id="xtick_3">
     <g id="line2d_3">
      <g>
       <use xlink:href="#m0b2c24cc3f" x="376.488844" y="534.04" style="stroke: #000000; stroke-width: 0.8"/>
      </g>
     </g>
     <g id="text_3">
      <!-- 2 -->
      <g transform="translate(373.307594 548.638438) scale(0.1 -0.1)">
       <defs>
        <path id="DejaVuSans-32" d="M 1228 531 
L 3431 531 
L 3431 0 
L 469 0 
L 469 531 
Q 828 903 1448 1529 
Q 2069 2156 2228 2338 
Q 2531 2678 2651 2914 
Q 2772 3150 2772 3378 
Q 2772 3750 2511 3984 
Q 2250 4219 1831 4219 
Q 1534 4219 1204 4116 
Q 875 4013 500 3803 
L 500 4441 
Q 881 4594 1212 4672 
Q 1544 4750 1819 4750 
Q 2544 4750 2975 4387 
Q 3406 4025 3406 3419 
Q 3406 3131 3298 2873 
Q 3191 2616 2906 2266 
Q 2828 2175 2409 1742 
Q 1991 1309 1228 531 
z
" transform="scale(0.015625)"/>
       </defs>
       <use xlink:href="#DejaVuSans-32"/>
      </g>
     </g>
    </g>
    <g id="xtick_4">
     <g id="line2d_4">
      <g>
       <use xlink:href="#m0b2c24cc3f" x="523.184245" y="534.04" style="stroke: #000000; stroke-width: 0.8"/>
      </g>
     </g>
     <g id="text_4">
      <!-- 3 -->
      <g transform="translate(520.002995 548.638438) scale(0.1 -0.1)">
       <defs>
        <path id="DejaVuSans-33" d="M 2597 2516 
Q 3050 2419 3304 2112 
Q 3559 1806 3559 1356 
Q 3559 666 3084 287 
Q 2609 -91 1734 -91 
Q 1441 -91 1130 -33 
Q 819 25 488 141 
L 488 750 
Q 750 597 1062 519 
Q 1375 441 1716 441 
Q 2309 441 2620 675 
Q 2931 909 2931 1356 
Q 2931 1769 2642 2001 
Q 2353 2234 1838 2234 
L 1294 2234 
L 1294 2753 
L 1863 2753 
Q 2328 2753 2575 2939 
Q 2822 3125 2822 3475 
Q 2822 3834 2567 4026 
Q 2313 4219 1838 4219 
Q 1578 4219 1281 4162 
Q 984 4106 628 3988 
L 628 4550 
Q 988 4650 1302 4700 
Q 1616 4750 1894 4750 
Q 2613 4750 3031 4423 
Q 3450 4097 3450 3541 
Q 3450 3153 3228 2886 
Q 3006 2619 2597 2516 
z
" transform="scale(0.015625)"/>
       </defs>
       <use xlink:href="#DejaVuSans-33"/>
      </g>
     </g>
    </g>
    <g id="xtick_5">
     <g id="line2d_5">
      <g>
       <use xlink:href="#m0b2c24cc3f" x="669.879647" y="534.04" style="stroke: #000000; stroke-width: 0.8"/>
      </g>
     </g>
     <g id="text_5">
      <!-- 4 -->
      <g transform="translate(666.698397 548.638438) scale(0.1 -0.1)">
       <defs>
        <path id="DejaVuSans-34" d="M 2419 4116 
L 825 1625 
L 2419 1625 
L 2419 4116 
z
M 2253 4666 
L 3047 4666 
L 3047 1625 
L 3713 1625 
L 3713 1100 
L 3047 1100 
L 3047 0 
L 2419 0 
L 2419 1100 
L 313 1100 
L 313 1709 
L 2253 4666 
z
" transform="scale(0.015625)"/>
       </defs>
       <use xlink:href="#DejaVuSans-34"/>
      </g>
     </g>
    </g>
    <g id="xtick_6">
     <g id="line2d_6">
      <g>
       <use xlink:href="#m0b2c24cc3f" x="816.575048" y="534.04" style="stroke: #000000; stroke-width: 0.8"/>
      </g>
     </g>
     <g id="text_6">
      <!-- 5 -->
      <g transform="translate(813.393798 548.638438) scale(0.1 -0.1)">
       <defs>
        <path id="DejaVuSans-35" d="M 691 4666 
L 3169 4666 
L 3169 4134 
L 1269 4134 
L 1269 2991 
Q 1406 3038 1543 3061 
Q 1681 3084 1819 3084 
Q 2600 3084 3056 2656 
Q 3513 2228 3513 1497 
Q 3513 744 3044 326 
Q 2575 -91 1722 -91 
Q 1428 -91 1123 -41 
Q 819 9 494 109 
L 494 744 
Q 775 591 1075 516 
Q 1375 441 1709 441 
Q 2250 441 2565 725 
Q 2881 1009 2881 1497 
Q 2881 1984 2565 2268 
Q 2250 2553 1709 2553 
Q 1456 2553 1204 2497 
Q 953 2441 691 2322 
L 691 4666 
z
" transform="scale(0.015625)"/>
       </defs>
       <use xlink:href="#DejaVuSans-35"/>
      </g>
     </g>
    </g>
    <g id="text_7">
     <!-- Retention Time (min) -->
     <g transform="translate(397.61 562.316562) scale(0.1 -0.1)">
      <defs>
       <path id="DejaVuSans-52" d="M 2841 2188 
Q 3044 2119 3236 1894 
Q 3428 1669 3622 1275 
L 4263 0 
L 3584 0 
L 2988 1197 
Q 2756 1666 2539 1819 
Q 2322 1972 1947 1972 
L 1259 1972 
L 1259 0 
L 628 0 
L 628 4666 
L 2053 4666 
Q 2853 4666 3247 4331 
Q 3641 3997 3641 3322 
Q 3641 2881 3436 2590 
Q 3231 2300 2841 2188 
z
M 1259 4147 
L 1259 2491 
L 2053 2491 
Q 2509 2491 2742 2702 
Q 2975 2913 2975 3322 
Q 2975 3731 2742 3939 
Q 2509 4147 2053 4147 
L 1259 4147 
z
" transform="scale(0.015625)"/>
       <path id="DejaVuSans-65" d="M 3597 1894 
L 3597 1613 
L 953 1613 
Q 991 1019 1311 708 
Q 1631 397 2203 397 
Q 2534 397 2845 478 
Q 3156 559 3463 722 
L 3463 178 
Q 3153 47 2828 -22 
Q 2503 -91 2169 -91 
Q 1331 -91 842 396 
Q 353 884 353 1716 
Q 353 2575 817 3079 
Q 1281 3584 2069 3584 
Q 2775 3584 3186 3129 
Q 3597 2675 3597 1894 
z
M 3022 2063 
Q 3016 2534 2758 2815 
Q 2500 3097 2075 3097 
Q 1594 3097 1305 2825 
Q 1016 2553 972 2059 
L 3022 2063 
z
" transform="scale(0.015625)"/>
       <path id="DejaVuSans-74" d="M 1172 4494 
L 1172 3500 
L 2356 3500 
L 2356 3053 
L 1172 3053 
L 1172 1153 
Q 1172 725 1289 603 
Q 1406 481 1766 481 
L 2356 481 
L 2356 0 
L 1766 0 
Q 1100 0 847 248 
Q 594 497 594 1153 
L 594 3053 
L 172 3053 
L 172 3500 
L 594 3500 
L 594 4494 
L 1172 4494 
z
" transform="scale(0.015625)"/>
       <path id="DejaVuSans-6e" d="M 3513 2113 
L 3513 0 
L 2938 0 
L 2938 2094 
Q 2938 2591 2744 2837 
Q 2550 3084 2163 3084 
Q 1697 3084 1428 2787 
Q 1159 2491 1159 1978 
L 1159 0 
L 581 0 
L 581 3500 
L 1159 3500 
L 1159 2956 
Q 1366 3272 1645 3428 
Q 1925 3584 2291 3584 
Q 2894 3584 3203 3211 
Q 3513 2838 3513 2113 
z
" transform="scale(0.015625)"/>
       <path id="DejaVuSans-69" d="M 603 3500 
L 1178 3500 
L 1178 0 
L 603 0 
L 603 3500 
z
M 603 4863 
L 1178 4863 
L 1178 4134 
L 603 4134 
L 603 4863 
z
" transform="scale(0.015625)"/>
       <path id="DejaVuSans-6f" d="M 1959 3097 
Q 1497 3097 1228 2736 
Q 959 2375 959 1747 
Q 959 1119 1226 758 
Q 1494 397 1959 397 
Q 2419 397 2687 759 
Q 2956 1122 2956 1747 
Q 2956 2369 2687 2733 
Q 2419 3097 1959 3097 
z
M 1959 3584 
Q 2709 3584 3137 3096 
Q 3566 2609 3566 1747 
Q 3566 888 3137 398 
Q 2709 -91 1959 -91 
Q 1206 -91 779 398 
Q 353 888 353 1747 
Q 353 2609 779 3096 
Q 1206 3584 1959 3584 
z
" transform="scale(0.015625)"/>
       <path id="DejaVuSans-20" transform="scale(0.015625)"/>
       <path id="DejaVuSans-54" d="M -19 4666 
L 3928 4666 
L 3928 4134 
L 2272 4134 
L 2272 0 
L 1638 0 
L 1638 4134 
L -19 4134 
L -19 4666 
z
" transform="scale(0.015625)"/>
       <path id="DejaVuSans-6d" d="M 3328 2828 
Q 3544 3216 3844 3400 
Q 4144 3584 4550 3584 
Q 5097 3584 5394 3201 
Q 5691 2819 5691 2113 
L 5691 0 
L 5113 0 
L 5113 2094 
Q 5113 2597 4934 2840 
Q 4756 3084 4391 3084 
Q 3944 3084 3684 2787 
Q 3425 2491 3425 1978 
L 3425 0 
L 2847 0 
L 2847 2094 
Q 2847 2600 2669 2842 
Q 2491 3084 2119 3084 
Q 1678 3084 1418 2786 
Q 1159 2488 1159 1978 
L 1159 0 
L 581 0 
L 581 3500 
L 1159 3500 
L 1159 2956 
Q 1356 3278 1631 3431 
Q 1906 3584 2284 3584 
Q 2666 3584 2933 3390 
Q 3200 3197 3328 2828 
z
" transform="scale(0.015625)"/>
       <path id="DejaVuSans-28" d="M 1984 4856 
Q 1566 4138 1362 3434 
Q 1159 2731 1159 2009 
Q 1159 1288 1364 580 
Q 1569 -128 1984 -844 
L 1484 -844 
Q 1016 -109 783 600 
Q 550 1309 550 2009 
Q 550 2706 781 3412 
Q 1013 4119 1484 4856 
L 1984 4856 
z
" transform="scale(0.015625)"/>
       <path id="DejaVuSans-29" d="M 513 4856 
L 1013 4856 
Q 1481 4119 1714 3412 
Q 1947 2706 1947 2009 
Q 1947 1309 1714 600 
Q 1481 -109 1013 -844 
L 513 -844 
Q 928 -128 1133 580 
Q 1338 1288 1338 2009 
Q 1338 2731 1133 3434 
Q 928 4138 513 4856 
z
" transform="scale(0.015625)"/>
      </defs>
      <use xlink:href="#DejaVuSans-52"/>
      <use xlink:href="#DejaVuSans-65" transform="translate(64.982422 0)"/>
      <use xlink:href="#DejaVuSans-74" transform="translate(126.505859 0)"/>
      <use xlink:href="#DejaVuSans-65" transform="translate(165.714844 0)"/>
      <use xlink:href="#DejaVuSans-6e" transform="translate(227.238281 0)"/>
      <use xlink:href="#DejaVuSans-74" transform="translate(290.617188 0)"/>
      <use xlink:href="#DejaVuSans-69" transform="translate(329.826172 0)"/>
      <use xlink:href="#DejaVuSans-6f" transform="translate(357.609375 0)"/>
      <use xlink:href="#DejaVuSans-6e" transform="translate(418.791016 0)"/>
      <use xlink:href="#DejaVuSans-20" transform="translate(482.169922 0)"/>
      <use xlink:href="#DejaVuSans-54" transform="translate(513.957031 0)"/>
      <use xlink:href="#DejaVuSans-69" transform="translate(571.916016 0)"/>
      <use xlink:href="#DejaVuSans-6d" transform="translate(599.699219 0)"/>
      <use xlink:href="#DejaVuSans-65" transform="translate(697.111328 0)"/>
      <use xlink:href="#DejaVuSans-20" transform="translate(758.634766 0)"/>
      <use xlink:href="#DejaVuSans-28" transform="translate(790.421875 0)"/>
      <use xlink:href="#DejaVuSans-6d" transform="translate(829.435547 0)"/>
      <use xlink:href="#DejaVuSans-69" transform="translate(926.847656 0)"/>
      <use xlink:href="#DejaVuSans-6e" transform="translate(954.630859 0)"/>
      <use xlink:href="#DejaVuSans-29" transform="translate(1018.009766 0)"/>
     </g>
    </g>
   </g>
   <g id="matplotlib.axis_2">
    <g id="ytick_1">
     <g id="line2d_7">
      <defs>
       <path id="m999bb7c1bf" d="M 0 0 
L -3.5 0 
" style="stroke: #000000; stroke-width: 0.8"/>
      </defs>
      <g>
       <use xlink:href="#m999bb7c1bf" x="47.72" y="510.987273" style="stroke: #000000; stroke-width: 0.8"/>
      </g>
     </g>
     <g id="text_8">
      <!-- 0.0 -->
      <g style="fill: #0000ff" transform="translate(24.816875 514.786491) scale(0.1 -0.1)">
       <defs>
        <path id="DejaVuSans-2e" d="M 684 794 
L 1344 794 
L 1344 0 
L 684 0 
L 684 794 
z
" transform="scale(0.015625)"/>
       </defs>
       <use xlink:href="#DejaVuSans-30"/>
       <use xlink:href="#DejaVuSans-2e" transform="translate(63.623047 0)"/>
       <use xlink:href="#DejaVuSans-30" transform="translate(95.410156 0)"/>
      </g>
     </g>
    </g>
    <g id="ytick_2">
     <g id="line2d_8">
      <g>
       <use xlink:href="#m999bb7c1bf" x="47.72" y="418.776364" style="stroke: #000000; stroke-width: 0.8"/>
      </g>
     </g>
     <g id="text_9">
      <!-- 0.5 -->
      <g style="fill: #0000ff" transform="translate(24.816875 422.575582) scale(0.1 -0.1)">
       <use xlink:href="#DejaVuSans-30"/>
       <use xlink:href="#DejaVuSans-2e" transform="translate(63.623047 0)"/>
       <use xlink:href="#DejaVuSans-35" transform="translate(95.410156 0)"/>
      </g>
     </g>
    </g>
    <g id="ytick_3">
     <g id="line2d_9">
      <g>
       <use xlink:href="#m999bb7c1bf" x="47.72" y="326.565455" style="stroke: #000000; stroke-width: 0.8"/>
      </g>
     </g>
     <g id="text_10">
      <!-- 1.0 -->
      <g style="fill: #0000ff" transform="translate(24.816875 330.364673) scale(0.1 -0.1)">
       <use xlink:href="#DejaVuSans-31"/>
       <use xlink:href="#DejaVuSans-2e" transform="translate(63.623047 0)"/>
       <use xlink:href="#DejaVuSans-30" transform="translate(95.410156 0)"/>
      </g>
     </g>
    </g>
    <g id="ytick_4">
     <g id="line2d_10">
      <g>
       <use xlink:href="#m999bb7c1bf" x="47.72" y="234.354545" style="stroke: #000000; stroke-width: 0.8"/>
      </g>
     </g>
     <g id="text_11">
      <!-- 1.5 -->
      <g style="fill: #0000ff" transform="translate(24.816875 238.153764) scale(0.1 -0.1)">
       <use xlink:href="#DejaVuSans-31"/>
       <use xlink:href="#DejaVuSans-2e" transform="translate(63.623047 0)"/>
       <use xlink:href="#DejaVuSans-35" transform="translate(95.410156 0)"/>
      </g>
     </g>
    </g>
    <g id="ytick_5">
     <g id="line2d_11">
      <g>
       <use xlink:href="#m999bb7c1bf" x="47.72" y="142.143636" style="stroke: #000000; stroke-width: 0.8"/>
      </g>
     </g>
     <g id="text_12">
      <!-- 2.0 -->
      <g style="fill: #0000ff" transform="translate(24.816875 145.942855) scale(0.1 -0.1)">
       <use xlink:href="#DejaVuSans-32"/>
       <use xlink:href="#DejaVuSans-2e" transform="translate(63.623047 0)"/>
       <use xlink:href="#DejaVuSans-30" transform="translate(95.410156 0)"/>
      </g>
     </g>
    </g>
    <g id="ytick_6">
     <g id="line2d_12">
      <g>
       <use xlink:href="#m999bb7c1bf" x="47.72" y="49.932727" style="stroke: #000000; stroke-width: 0.8"/>
      </g>
     </g>
     <g id="text_13">
      <!-- 2.5 -->
      <g style="fill: #0000ff" transform="translate(24.816875 53.731946) scale(0.1 -0.1)">
       <use xlink:href="#DejaVuSans-32"/>
       <use xlink:href="#DejaVuSans-2e" transform="translate(63.623047 0)"/>
       <use xlink:href="#DejaVuSans-35" transform="translate(95.410156 0)"/>
      </g>
     </g>
    </g>
    <g id="text_14">
     <!-- Normalized Intensity -->
     <g style="fill: #0000ff" transform="translate(18.737187 332.167031) rotate(-90) scale(0.1 -0.1)">
      <defs>
       <path id="DejaVuSans-4e" d="M 628 4666 
L 1478 4666 
L 3547 763 
L 3547 4666 
L 4159 4666 
L 4159 0 
L 3309 0 
L 1241 3903 
L 1241 0 
L 628 0 
L 628 4666 
z
" transform="scale(0.015625)"/>
       <path id="DejaVuSans-72" d="M 2631 2963 
Q 2534 3019 2420 3045 
Q 2306 3072 2169 3072 
Q 1681 3072 1420 2755 
Q 1159 2438 1159 1844 
L 1159 0 
L 581 0 
L 581 3500 
L 1159 3500 
L 1159 2956 
Q 1341 3275 1631 3429 
Q 1922 3584 2338 3584 
Q 2397 3584 2469 3576 
Q 2541 3569 2628 3553 
L 2631 2963 
z
" transform="scale(0.015625)"/>
       <path id="DejaVuSans-61" d="M 2194 1759 
Q 1497 1759 1228 1600 
Q 959 1441 959 1056 
Q 959 750 1161 570 
Q 1363 391 1709 391 
Q 2188 391 2477 730 
Q 2766 1069 2766 1631 
L 2766 1759 
L 2194 1759 
z
M 3341 1997 
L 3341 0 
L 2766 0 
L 2766 531 
Q 2569 213 2275 61 
Q 1981 -91 1556 -91 
Q 1019 -91 701 211 
Q 384 513 384 1019 
Q 384 1609 779 1909 
Q 1175 2209 1959 2209 
L 2766 2209 
L 2766 2266 
Q 2766 2663 2505 2880 
Q 2244 3097 1772 3097 
Q 1472 3097 1187 3025 
Q 903 2953 641 2809 
L 641 3341 
Q 956 3463 1253 3523 
Q 1550 3584 1831 3584 
Q 2591 3584 2966 3190 
Q 3341 2797 3341 1997 
z
" transform="scale(0.015625)"/>
       <path id="DejaVuSans-6c" d="M 603 4863 
L 1178 4863 
L 1178 0 
L 603 0 
L 603 4863 
z
" transform="scale(0.015625)"/>
       <path id="DejaVuSans-7a" d="M 353 3500 
L 3084 3500 
L 3084 2975 
L 922 459 
L 3084 459 
L 3084 0 
L 275 0 
L 275 525 
L 2438 3041 
L 353 3041 
L 353 3500 
z
" transform="scale(0.015625)"/>
       <path id="DejaVuSans-64" d="M 2906 2969 
L 2906 4863 
L 3481 4863 
L 3481 0 
L 2906 0 
L 2906 525 
Q 2725 213 2448 61 
Q 2172 -91 1784 -91 
Q 1150 -91 751 415 
Q 353 922 353 1747 
Q 353 2572 751 3078 
Q 1150 3584 1784 3584 
Q 2172 3584 2448 3432 
Q 2725 3281 2906 2969 
z
M 947 1747 
Q 947 1113 1208 752 
Q 1469 391 1925 391 
Q 2381 391 2643 752 
Q 2906 1113 2906 1747 
Q 2906 2381 2643 2742 
Q 2381 3103 1925 3103 
Q 1469 3103 1208 2742 
Q 947 2381 947 1747 
z
" transform="scale(0.015625)"/>
       <path id="DejaVuSans-49" d="M 628 4666 
L 1259 4666 
L 1259 0 
L 628 0 
L 628 4666 
z
" transform="scale(0.015625)"/>
       <path id="DejaVuSans-73" d="M 2834 3397 
L 2834 2853 
Q 2591 2978 2328 3040 
Q 2066 3103 1784 3103 
Q 1356 3103 1142 2972 
Q 928 2841 928 2578 
Q 928 2378 1081 2264 
Q 1234 2150 1697 2047 
L 1894 2003 
Q 2506 1872 2764 1633 
Q 3022 1394 3022 966 
Q 3022 478 2636 193 
Q 2250 -91 1575 -91 
Q 1294 -91 989 -36 
Q 684 19 347 128 
L 347 722 
Q 666 556 975 473 
Q 1284 391 1588 391 
Q 1994 391 2212 530 
Q 2431 669 2431 922 
Q 2431 1156 2273 1281 
Q 2116 1406 1581 1522 
L 1381 1569 
Q 847 1681 609 1914 
Q 372 2147 372 2553 
Q 372 3047 722 3315 
Q 1072 3584 1716 3584 
Q 2034 3584 2315 3537 
Q 2597 3491 2834 3397 
z
" transform="scale(0.015625)"/>
       <path id="DejaVuSans-79" d="M 2059 -325 
Q 1816 -950 1584 -1140 
Q 1353 -1331 966 -1331 
L 506 -1331 
L 506 -850 
L 844 -850 
Q 1081 -850 1212 -737 
Q 1344 -625 1503 -206 
L 1606 56 
L 191 3500 
L 800 3500 
L 1894 763 
L 2988 3500 
L 3597 3500 
L 2059 -325 
z
" transform="scale(0.015625)"/>
      </defs>
      <use xlink:href="#DejaVuSans-4e"/>
      <use xlink:href="#DejaVuSans-6f" transform="translate(74.804688 0)"/>
      <use xlink:href="#DejaVuSans-72" transform="translate(135.986328 0)"/>
      <use xlink:href="#DejaVuSans-6d" transform="translate(175.349609 0)"/>
      <use xlink:href="#DejaVuSans-61" transform="translate(272.761719 0)"/>
      <use xlink:href="#DejaVuSans-6c" transform="translate(334.041016 0)"/>
      <use xlink:href="#DejaVuSans-69" transform="translate(361.824219 0)"/>
      <use xlink:href="#DejaVuSans-7a" transform="translate(389.607422 0)"/>
      <use xlink:href="#DejaVuSans-65" transform="translate(442.097656 0)"/>
      <use xlink:href="#DejaVuSans-64" transform="translate(503.621094 0)"/>
      <use xlink:href="#DejaVuSans-20" transform="translate(567.097656 0)"/>
      <use xlink:href="#DejaVuSans-49" transform="translate(598.884766 0)"/>
      <use xlink:href="#DejaVuSans-6e" transform="translate(628.376953 0)"/>
      <use xlink:href="#DejaVuSans-74" transform="translate(691.755859 0)"/>
      <use xlink:href="#DejaVuSans-65" transform="translate(730.964844 0)"/>
      <use xlink:href="#DejaVuSans-6e" transform="translate(792.488281 0)"/>
      <use xlink:href="#DejaVuSans-73" transform="translate(855.867188 0)"/>
      <use xlink:href="#DejaVuSans-69" transform="translate(907.966797 0)"/>
      <use xlink:href="#DejaVuSans-74" transform="translate(935.75 0)"/>
      <use xlink:href="#DejaVuSans-79" transform="translate(974.958984 0)"/>
     </g>
    </g>
   </g>
   <g id="line2d_13">
    <path d="M 84.332727 510.987273 
L 90.445036 510.88794 
L 99.002267 510.573035 
L 108.781961 510.60668 
L 122.229039 510.722664 
L 130.786271 510.593035 
L 141.788426 510.456372 
L 162.570275 510.492106 
L 163.792736 510.394764 
L 165.015198 510.125466 
L 166.23766 509.635969 
L 168.682583 508.430808 
L 169.905045 508.104824 
L 171.127506 508.111105 
L 172.349968 508.394938 
L 176.017353 509.640559 
L 178.462277 510.122592 
L 182.129662 510.519936 
L 184.574585 510.581103 
L 187.019508 510.253197 
L 189.464432 509.812135 
L 191.909355 509.640199 
L 195.57674 509.873091 
L 199.244125 510.074402 
L 204.133972 509.982406 
L 212.691204 509.791704 
L 218.803512 509.339242 
L 220.025974 509.437454 
L 226.138282 510.571456 
L 228.583205 510.68069 
L 229.805667 510.647562 
L 231.028129 510.46002 
L 232.25059 509.942439 
L 233.473052 508.946852 
L 235.917975 506.14485 
L 237.140437 505.202055 
L 238.362899 505.009531 
L 239.58536 505.513941 
L 243.252745 508.227089 
L 244.475207 508.808635 
L 245.697669 509.168494 
L 248.142592 509.489821 
L 253.032439 509.714443 
L 260.367209 509.826644 
L 273.814287 509.869957 
L 279.926596 509.847112 
L 286.038904 509.787088 
L 292.151213 509.436292 
L 297.041059 509.641178 
L 298.263521 509.55848 
L 300.708444 509.019989 
L 301.930906 508.727361 
L 303.153368 508.594381 
L 304.375829 508.663312 
L 310.488138 509.614416 
L 312.933061 509.669776 
L 315.377985 509.491467 
L 319.04537 508.690013 
L 320.267831 508.612319 
L 322.712755 508.925569 
L 325.157678 509.340229 
L 327.602601 509.527379 
L 334.937371 509.639067 
L 339.827218 509.591599 
L 341.04968 509.481977 
L 342.272141 509.213793 
L 345.939526 507.816885 
L 347.161988 507.62813 
L 349.606912 507.622039 
L 350.829373 507.298535 
L 352.051835 506.260066 
L 353.274297 504.062916 
L 354.496758 500.314165 
L 355.71922 494.814095 
L 356.941682 487.679641 
L 360.609067 462.353095 
L 361.831528 455.28026 
L 363.05399 450.036288 
L 364.276452 446.958353 
L 365.498913 446.108243 
L 366.721375 447.311254 
L 367.943837 450.219845 
L 369.166298 454.389078 
L 371.611222 464.715845 
L 374.056145 475.327804 
L 375.278607 480.127944 
L 376.501068 484.404252 
L 377.72353 488.104633 
L 378.945992 491.238886 
L 380.168453 493.856781 
L 381.390915 496.01735 
L 382.613377 497.768542 
L 383.835839 499.15656 
L 385.0583 500.251128 
L 387.503224 501.915396 
L 389.948147 503.194801 
L 392.39307 504.105658 
L 394.837994 504.704809 
L 398.505379 505.28994 
L 402.172764 505.661905 
L 403.395225 505.667683 
L 404.617687 505.292888 
L 405.840149 504.025359 
L 407.06261 501.62261 
L 408.285072 498.681803 
L 409.507534 496.406242 
L 410.729995 495.680444 
L 411.952457 496.478433 
L 415.619842 501.259217 
L 416.842304 502.348001 
L 418.064766 503.168956 
L 419.287227 503.771196 
L 420.509689 504.121388 
L 421.732151 504.163955 
L 424.177074 503.624604 
L 426.621997 503.140846 
L 429.066921 502.789899 
L 430.289382 502.419892 
L 431.511844 501.361823 
L 432.734306 498.770356 
L 433.956767 494.026791 
L 436.401691 481.454691 
L 437.624152 477.741137 
L 438.846614 477.697922 
L 440.069076 480.882642 
L 442.513999 490.779495 
L 443.736461 494.916757 
L 444.958922 497.895293 
L 446.181384 499.869626 
L 447.403846 501.135007 
L 448.626307 501.947726 
L 449.848769 502.479509 
L 452.293693 503.081393 
L 455.961078 503.542627 
L 458.406001 503.732914 
L 459.628463 503.589356 
L 460.850924 503.03702 
L 462.073386 501.986601 
L 463.295848 500.655407 
L 464.518309 499.497506 
L 465.740771 498.863413 
L 468.185694 498.450376 
L 469.408156 497.68824 
L 470.630618 496.46093 
L 471.853079 495.411208 
L 473.075541 495.199446 
L 474.298003 495.995094 
L 477.965388 500.482767 
L 479.187849 501.482288 
L 480.410311 502.110771 
L 481.632773 502.460225 
L 482.855234 502.61331 
L 492.634928 502.873759 
L 495.079851 503.113578 
L 497.524775 503.450113 
L 499.969698 503.57446 
L 506.082006 503.586607 
L 512.194315 503.765432 
L 513.416776 503.69363 
L 514.639238 503.510095 
L 515.8617 503.181472 
L 520.751547 501.416785 
L 523.19647 501.284786 
L 524.418932 501.212571 
L 525.641393 500.880465 
L 526.863855 500.204098 
L 528.086317 499.358818 
L 529.308778 498.688103 
L 530.53124 498.453879 
L 531.753702 498.705406 
L 532.976163 499.315764 
L 535.421087 500.736666 
L 536.643548 501.191443 
L 537.86601 501.415197 
L 539.088472 501.434612 
L 540.310933 501.232584 
L 541.533395 500.791003 
L 543.978318 499.508507 
L 545.20078 498.782346 
L 546.423242 497.910535 
L 547.645703 496.851032 
L 548.868165 495.634931 
L 550.090627 494.169373 
L 551.313088 492.152299 
L 553.758012 486.569215 
L 554.980474 484.636242 
L 556.202935 484.504006 
L 557.425397 486.012645 
L 558.647859 486.902557 
L 559.87032 480.784882 
L 561.092782 458.350744 
L 562.315244 416.583257 
L 563.537705 367.536504 
L 564.760167 332.65867 
L 565.982629 326.565455 
L 567.20509 347.755336 
L 569.650014 418.030632 
L 570.872475 444.089082 
L 572.094937 459.956245 
L 573.317399 468.666455 
L 574.53986 473.498122 
L 575.762322 475.564634 
L 576.984784 474.457647 
L 579.429707 467.10684 
L 580.652169 466.495221 
L 581.87463 469.923246 
L 584.319554 482.704423 
L 585.542015 487.82666 
L 586.764477 490.549347 
L 587.986939 491.093711 
L 589.209401 490.348804 
L 590.431862 488.877483 
L 591.654324 486.128873 
L 592.876786 481.088673 
L 595.321709 467.198716 
L 596.544171 462.97058 
L 597.766632 462.551746 
L 598.989094 465.663872 
L 600.211556 471.16079 
L 602.656479 483.580917 
L 603.878941 488.299648 
L 605.101402 491.522551 
L 606.323864 493.568322 
L 607.546326 494.951925 
L 609.991249 497.108146 
L 612.436172 498.944855 
L 613.658634 499.603578 
L 614.881096 499.931667 
L 616.103557 499.821965 
L 617.326019 499.29849 
L 618.548481 498.583088 
L 619.770942 498.02969 
L 620.993404 497.934648 
L 622.215866 498.352131 
L 624.660789 499.807503 
L 625.883251 500.295212 
L 627.105713 500.429582 
L 628.328174 500.200443 
L 631.995559 498.642516 
L 633.218021 498.657982 
L 634.440483 499.068603 
L 635.662944 499.608293 
L 636.885406 499.959085 
L 638.107868 499.902502 
L 639.330329 499.408925 
L 641.775253 498.080314 
L 642.997714 497.899773 
L 644.220176 498.219318 
L 645.442638 498.905216 
L 647.887561 500.45368 
L 649.110023 500.976051 
L 650.332484 501.274419 
L 652.777408 501.486236 
L 660.112178 502.046923 
L 663.779563 502.365295 
L 665.002025 502.268854 
L 666.224486 501.856056 
L 667.446948 500.966476 
L 669.891871 498.453037 
L 671.114333 497.75009 
L 672.336795 497.79387 
L 673.559256 498.451474 
L 676.00418 500.383269 
L 677.226641 501.172111 
L 678.449103 501.717171 
L 679.671565 502.046406 
L 682.116488 502.33964 
L 687.006335 502.569408 
L 689.451258 502.503956 
L 690.67372 502.31472 
L 691.896182 501.820867 
L 693.118643 500.829559 
L 695.563567 497.812784 
L 696.786028 496.749104 
L 698.00849 496.529782 
L 699.230952 497.106155 
L 702.898337 500.141645 
L 704.120798 500.727987 
L 705.34326 501.031634 
L 707.788183 501.169445 
L 711.455568 500.974261 
L 713.900492 500.913509 
L 717.567877 500.982043 
L 720.0128 500.921533 
L 721.235262 500.801473 
L 723.680185 500.153836 
L 724.902647 499.849754 
L 726.125109 499.798871 
L 727.34757 500.052187 
L 731.014955 501.468643 
L 732.237417 501.739639 
L 733.459879 501.831079 
L 738.349725 501.786041 
L 743.239572 502.247212 
L 746.906957 502.135237 
L 749.35188 501.922641 
L 751.796804 501.484018 
L 754.241727 501.024171 
L 756.68665 500.923119 
L 760.354036 500.930884 
L 761.576497 500.779834 
L 766.466344 499.742209 
L 767.688806 499.833092 
L 772.578652 500.881903 
L 773.801114 500.916886 
L 776.246037 500.628967 
L 778.690961 500.314507 
L 781.135884 500.386031 
L 783.580807 500.511739 
L 786.025731 500.440035 
L 788.470654 500.149767 
L 789.693116 499.8226 
L 790.915577 499.336206 
L 792.138039 498.699845 
L 793.360501 497.863563 
L 794.582963 496.648384 
L 795.805424 494.87896 
L 798.250348 490.562466 
L 799.472809 489.23646 
L 800.695271 489.130766 
L 801.917733 490.189444 
L 805.585118 495.526692 
L 806.807579 496.757913 
L 808.030041 497.613794 
L 809.252503 498.223779 
L 811.697426 499.100053 
L 814.142349 499.735753 
L 816.587273 500.135678 
L 816.587273 500.135678 
" clip-path="url(#pe7359c5663)" style="fill: none; stroke: #0000ff; stroke-width: 1.5; stroke-linecap: square"/>
   </g>
   <g id="line2d_14">
    <path d="M 89.290054 234.351788 
L 89.290054 234.351676 
L 135.220384 234.350814 
L 269.256461 234.349238 
L 408.019064 234.310772 
L 408.019064 234.282817 
L 409.733934 233.966233 
L 409.733934 233.787931 
L 410.073045 233.897614 
L 410.073045 233.708576 
L 410.40971 233.829917 
L 410.40971 233.652787 
L 410.74442 233.803065 
L 410.74442 233.546058 
L 411.077908 233.715562 
L 411.077908 233.435392 
L 411.411151 233.558669 
L 411.411151 233.345993 
L 411.74415 233.606758 
L 411.74415 233.372276 
L 412.076415 233.64658 
L 412.076415 233.428429 
L 412.40868 233.651996 
L 412.40868 233.438788 
L 412.740945 233.689064 
L 412.740945 233.458233 
L 413.073454 233.720166 
L 413.073454 233.480183 
L 413.406942 233.695265 
L 413.406942 233.451997 
L 413.740185 233.690832 
L 413.740185 233.522001 
L 414.749205 233.54465 
L 414.749205 233.525176 
L 415.083915 233.728538 
L 415.083915 233.568913 
L 415.420825 233.764842 
L 415.420825 233.629213 
L 415.757736 233.827407 
L 415.757736 233.704658 
L 416.094402 233.893028 
L 416.094402 233.708352 
L 417.110267 233.622415 
L 417.110267 233.637598 
L 417.449134 233.828053 
L 417.449134 233.682656 
L 417.790201 233.846643 
L 417.790201 233.708168 
L 418.131756 233.874306 
L 418.131756 233.760148 
L 418.477958 233.898798 
L 418.477958 233.723987 
L 418.819758 233.881267 
L 418.819758 233.725949 
L 419.166937 233.819528 
L 419.166937 233.62746 
L 419.508737 233.811162 
L 419.508737 233.678439 
L 420.193316 233.924921 
L 420.193316 233.800037 
L 420.877405 234.004676 
L 420.877405 233.86823 
L 421.21945 234.002384 
L 421.21945 233.900623 
L 421.904273 234.017161 
L 421.904273 233.922419 
L 422.246318 234.034288 
L 422.246318 233.910525 
L 422.931874 234.010506 
L 422.931874 233.924186 
L 423.616697 234.107089 
L 423.616697 233.99389 
L 424.307388 234.053457 
L 424.307388 233.970673 
L 424.992456 234.072713 
L 424.992456 234.02025 
L 425.677523 234.105892 
L 425.677523 234.062203 
L 427.04668 234.14472 
L 427.04668 234.102739 
L 427.73077 234.188964 
L 427.73077 234.126347 
L 428.757393 234.16133 
L 428.757393 234.115698 
L 430.817975 234.233596 
L 430.817975 234.203073 
L 431.844843 234.23849 
L 432.871221 234.249551 
L 432.871221 234.257223 
L 434.245268 234.269443 
L 487.160256 234.152408 
L 487.160256 234.119036 
L 487.843856 234.116046 
L 487.843856 234.072031 
L 488.869746 233.976371 
L 488.869746 233.948428 
L 489.553347 233.971711 
L 489.553347 233.925649 
L 490.584615 233.97738 
L 490.584615 233.922624 
L 491.953283 233.923481 
L 491.953283 233.849668 
L 493.321462 233.911845 
L 493.321462 233.872698 
L 494.005552 233.919763 
L 494.005552 233.89964 
L 495.720666 234.00971 
L 495.720666 233.975411 
L 496.404755 233.996997 
L 496.404755 233.975494 
L 497.430645 234.01083 
L 497.430645 233.984877 
L 498.799069 234.054054 
L 498.799069 234.015259 
L 499.825692 234.046044 
L 499.825692 233.97809 
L 500.857939 234.118389 
L 500.857939 234.087935 
L 502.226851 234.123169 
L 502.226851 234.099471 
L 516.632584 234.099705 
L 516.632584 234.088951 
L 518.002475 234.130096 
L 518.002475 234.10164 
L 523.831905 234.120587 
L 523.831905 234.091798 
L 525.198618 234.19924 
L 525.198618 234.179964 
L 532.028511 234.072936 
L 533.716975 233.935156 
L 534.735775 234.004955 
L 534.735775 233.933743 
L 534.735775 233.986984 
L 541.922871 234.033762 
L 541.922871 233.950429 
L 542.264427 233.974983 
L 542.264427 233.886171 
L 542.605983 233.878681 
L 542.605983 233.744585 
L 542.947783 233.618747 
L 542.947783 233.56365 
L 543.294229 233.278277 
L 543.635785 233.108004 
L 543.635785 232.790092 
L 543.977096 232.659323 
L 543.977096 232.28128 
L 544.318407 232.018373 
L 544.659474 231.757409 
L 544.659474 231.564595 
L 545.000785 231.24852 
L 545.000785 230.920602 
L 545.342097 230.708429 
L 545.342097 230.502881 
L 545.683897 230.494106 
L 545.683897 230.324489 
L 546.024719 230.576023 
L 546.024719 230.459354 
L 546.366031 230.515267 
L 546.366031 230.341336 
L 546.712721 230.673198 
L 546.712721 230.473653 
L 547.737877 231.158557 
L 547.737877 230.985491 
L 548.079188 231.313259 
L 548.079188 231.151969 
L 548.424901 231.373046 
L 548.424901 231.184208 
L 548.765723 231.481765 
L 548.765723 231.313341 
L 549.10679 231.456366 
L 549.10679 231.307081 
L 549.447612 231.435604 
L 549.447612 231.263109 
L 549.788434 231.267693 
L 549.788434 231.042485 
L 550.129257 231.139653 
L 550.129257 230.831641 
L 550.129257 230.979411 
L 550.470079 231.094185 
L 550.470079 230.790365 
L 550.810657 231.051509 
L 550.810657 230.602697 
L 551.150257 230.044025 
L 551.491079 230.040013 
L 551.491079 229.650154 
L 551.491079 229.746821 
L 551.83508 229.936283 
L 552.17199 229.632125 
L 552.17199 229.289966 
L 552.509878 229.167597 
L 552.509878 228.842834 
L 552.848256 228.711894 
L 552.848256 228.354271 
L 553.184922 228.526209 
L 553.184922 228.171139 
L 553.523055 228.053406 
L 553.523055 227.376295 
L 553.858987 227.304007 
L 553.858987 226.706328 
L 554.196142 226.789126 
L 554.196142 226.450162 
L 554.531586 226.749597 
L 554.531586 226.573886 
L 555.202962 227.820192 
L 555.202962 227.722773 
L 555.53865 228.067017 
L 555.53865 227.782701 
L 555.87336 228.061877 
L 555.87336 227.558675 
L 556.207581 228.751729 
L 556.544246 228.739936 
L 556.891426 228.449907 
L 556.891426 228.849022 
L 557.56598 229.613103 
L 557.56598 229.483943 
L 557.56598 229.783942 
L 557.902401 230.228395 
L 557.902401 230.537885 
L 557.902401 230.336861 
L 558.24029 230.752929 
L 558.24029 230.579698 
L 558.578423 230.400575 
L 558.578423 230.570681 
L 558.918023 230.70945 
L 558.918023 230.562707 
L 559.257622 230.883633 
L 559.257622 230.634695 
L 560.277155 231.687938 
L 560.277155 231.40465 
L 560.617733 231.585608 
L 560.617733 231.521856 
L 560.958067 231.613236 
L 560.958067 231.349765 
L 561.2984 231.835864 
L 561.2984 231.726254 
L 561.2984 232.198889 
L 561.638733 232.412942 
L 561.638733 232.400846 
L 561.982245 232.3424 
L 561.982245 232.133059 
L 562.322823 231.767236 
L 562.322823 231.167721 
L 562.662912 231.132657 
L 562.662912 229.370416 
L 563.00349 229.116007 
L 563.00349 225.337667 
L 563.340155 224.652696 
L 563.340155 217.733361 
L 563.672665 217.547082 
L 563.672665 205.548904 
L 564.002974 206.013917 
L 564.002974 190.849029 
L 564.331083 195.074197 
L 564.331083 169.507398 
L 564.658947 176.959216 
L 564.658947 149.779949 
L 564.986078 160.994757 
L 564.986078 124.786442 
L 565.313209 146.863187 
L 565.313209 108.630017 
L 565.640095 132.131034 
L 565.640095 85.296905 
L 565.966737 115.755056 
L 565.966737 66.927163 
L 566.293378 100.962942 
L 566.293378 50.648721 
L 566.619776 94.300068 
L 566.619776 52.328384 
L 566.954975 96.920256 
L 566.954975 49.932727 
L 567.281372 101.107137 
L 567.281372 54.887465 
L 567.607769 99.291482 
L 567.607769 52.46181 
L 567.934411 99.635729 
L 567.934411 58.032684 
L 568.260808 103.134605 
L 568.260808 61.167717 
L 568.587939 109.307936 
L 568.587939 73.047219 
L 568.914336 111.91389 
L 568.914336 73.66135 
L 569.240978 112.591625 
L 569.240978 81.447712 
L 569.567864 120.877164 
L 569.567864 92.264243 
L 569.894506 134.211141 
L 569.894506 108.182307 
L 570.221392 143.510208 
L 570.221392 113.566967 
L 570.548523 147.401544 
L 570.548523 120.956958 
L 570.875165 150.808367 
L 570.875165 125.302985 
L 571.202051 154.98222 
L 571.202051 130.366815 
L 571.529182 158.099863 
L 571.529182 137.046869 
L 571.861447 162.50917 
L 571.861447 144.385868 
L 572.188578 169.184277 
L 572.188578 148.621083 
L 572.515708 171.449651 
L 572.515708 151.124126 
L 572.843084 172.050283 
L 572.843084 153.760132 
L 573.170214 175.633585 
L 573.170214 159.547017 
L 573.497345 180.332204 
L 573.497345 162.284734 
L 573.82472 181.309474 
L 573.82472 164.430595 
L 574.152096 180.725859 
L 574.152096 164.846672 
L 574.479471 183.720773 
L 574.479471 169.05029 
L 574.806846 187.000664 
L 574.806846 173.774747 
L 575.134466 190.381047 
L 575.134466 175.895032 
L 575.462085 190.450444 
L 575.462085 176.574745 
L 575.789461 190.964039 
L 575.789461 178.576113 
L 576.120014 193.573468 
L 576.120014 182.457079 
L 576.448123 196.389053 
L 576.448123 184.50743 
L 576.781611 198.119487 
L 576.781611 187.619711 
L 577.10923 199.898565 
L 577.10923 190.367225 
L 577.437339 202.702734 
L 577.437339 192.951822 
L 577.765448 203.696907 
L 577.765448 195.127426 
L 578.093556 205.132673 
L 578.093556 196.205721 
L 578.422154 206.14434 
L 578.422154 199.049446 
L 578.750263 208.548291 
L 578.750263 199.987291 
L 579.079105 209.676378 
L 579.079105 203.349069 
L 579.407947 211.717071 
L 579.407947 205.272325 
L 579.737034 214.540135 
L 579.737034 208.258279 
L 580.066365 215.537786 
L 580.066365 209.170899 
L 580.395696 216.101185 
L 580.395696 211.30198 
L 580.724783 218.162297 
L 580.724783 213.364193 
L 581.05387 219.965707 
L 581.05387 214.912739 
L 581.381978 219.997962 
L 581.381978 215.379939 
L 581.715466 220.137197 
L 581.715466 215.515464 
L 582.043575 220.449458 
L 582.043575 216.157079 
L 582.371683 221.122652 
L 582.371683 217.577063 
L 582.699792 222.079082 
L 582.699792 218.728964 
L 583.028145 223.443536 
L 583.028145 219.562544 
L 583.356498 223.25612 
L 583.356498 220.134474 
L 583.684852 223.547519 
L 583.684852 220.450505 
L 584.013449 224.196276 
L 584.013449 221.360346 
L 584.342292 224.484159 
L 584.342292 221.612311 
L 584.671134 224.609918 
L 584.671134 221.905898 
L 585.000465 224.877881 
L 585.000465 222.389427 
L 585.329796 225.621327 
L 585.329796 222.69815 
L 585.662306 225.55562 
L 585.662306 222.9935 
L 585.991148 225.703418 
L 585.991148 222.815385 
L 586.320235 226.061207 
L 586.320235 223.752934 
L 586.658123 226.4669 
L 586.658123 224.261927 
L 586.988432 227.095205 
L 586.988432 224.787841 
L 587.319719 227.198105 
L 587.319719 225.474495 
L 587.650028 227.830174 
L 587.650028 225.867291 
L 587.98156 228.106324 
L 587.98156 225.879393 
L 588.312603 227.907097 
L 588.312603 226.009966 
L 588.643401 228.094192 
L 588.643401 226.177497 
L 588.975177 228.429603 
L 588.975177 226.24932 
L 589.305975 228.351559 
L 589.305975 226.476991 
L 589.638485 228.530951 
L 589.638485 227.054682 
L 589.970994 229.175245 
L 589.970994 227.539384 
L 590.304971 229.521589 
L 590.304971 227.928644 
L 590.638703 229.527584 
L 590.638703 228.171842 
L 590.971212 229.887932 
L 590.971212 228.586328 
L 591.302988 230.205826 
L 591.302988 228.99686 
L 591.640143 230.49604 
L 591.640143 228.981817 
L 591.97143 230.375227 
L 591.97143 229.249711 
L 592.304673 230.554392 
L 592.304673 229.069912 
L 592.635961 230.525471 
L 592.635961 229.336819 
L 592.967003 230.381407 
L 592.967003 229.146131 
L 593.29829 230.593257 
L 593.29829 229.506892 
L 593.6308 230.692584 
L 593.6308 229.698641 
L 593.963798 230.939647 
L 593.963798 229.764139 
L 594.296553 230.977774 
L 594.296553 229.941815 
L 594.629307 231.018514 
L 594.629307 229.982897 
L 594.963528 231.190082 
L 594.963528 230.169275 
L 595.299705 231.30033 
L 595.299705 230.588633 
L 595.630992 231.6609 
L 595.630992 230.908728 
L 595.961545 231.797177 
L 595.961545 231.100824 
L 596.29161 231.854397 
L 596.29161 231.334183 
L 596.626076 232.12402 
L 596.626076 231.693399 
L 596.954918 232.364877 
L 596.954918 231.901576 
L 597.283515 232.509274 
L 597.283515 231.937001 
L 597.611869 232.50819 
L 597.611869 231.840241 
L 597.939977 231.641548 
L 598.597173 231.572709 
L 598.597173 231.828408 
L 598.925526 232.58603 
L 598.925526 231.974465 
L 599.253879 232.581416 
L 599.253879 232.034696 
L 599.581988 232.5007 
L 599.581988 231.925047 
L 599.910586 232.542669 
L 599.910586 232.057717 
L 600.238939 232.023435 
L 600.567536 231.55917 
L 600.896623 232.125847 
L 600.896623 231.704832 
L 601.224976 232.196728 
L 601.224976 232.396968 
L 601.558708 232.824073 
L 601.558708 232.459001 
L 601.887795 232.342728 
L 602.546457 232.448352 
L 602.546457 232.308213 
L 602.876278 232.881667 
L 602.876278 232.471341 
L 603.205364 232.747137 
L 603.205364 232.47708 
L 603.865005 232.419808 
L 604.199226 232.042353 
L 604.529535 232.404182 
L 604.859844 231.921654 
L 605.191131 232.544505 
L 605.521196 232.466712 
L 605.852238 233.031034 
L 605.852238 232.541308 
L 606.183036 232.960518 
L 606.183036 232.588153 
L 606.519947 233.162307 
L 606.519947 232.61753 
L 606.851723 233.095318 
L 606.851723 232.57238 
L 607.183255 232.965631 
L 607.183255 232.503519 
L 607.514542 232.975924 
L 607.514542 232.551918 
L 607.846318 233.034928 
L 607.846318 232.568658 
L 608.178583 232.986169 
L 608.178583 232.646335 
L 608.512315 233.061618 
L 608.512315 232.708191 
L 608.844336 233.204342 
L 608.844336 232.850628 
L 609.177334 233.190996 
L 609.177334 232.847296 
L 609.509844 233.235314 
L 609.509844 232.830615 
L 609.841864 233.212717 
L 609.841864 232.896207 
L 610.174863 233.236496 
L 610.174863 232.798154 
L 610.508106 233.108396 
L 610.508106 232.751698 
L 610.841838 233.031347 
L 610.841838 232.679983 
L 611.176059 233.075506 
L 611.176059 232.725598 
L 611.516881 233.070212 
L 611.516881 232.713064 
L 611.850858 233.083002 
L 611.850858 232.713208 
L 612.185568 233.122972 
L 612.185568 232.748707 
L 612.522234 233.140149 
L 612.522234 232.753444 
L 612.857922 233.139284 
L 612.857922 232.822645 
L 613.215858 233.202003 
L 613.215858 232.80176 
L 613.554236 233.162556 
L 613.554236 232.862515 
L 613.890413 233.180126 
L 613.890413 232.874226 
L 614.229524 233.319669 
L 614.229524 233.028136 
L 614.570346 233.364117 
L 614.570346 233.066365 
L 614.909946 233.396633 
L 614.909946 232.994023 
L 615.248323 233.324914 
L 615.248323 232.974563 
L 615.587434 233.298274 
L 615.587434 232.969077 
L 615.927523 233.37905 
L 615.927523 233.097896 
L 616.268101 233.449741 
L 616.268101 233.088065 
L 616.614302 233.406855 
L 616.614302 233.056661 
L 616.955124 233.308672 
L 616.955124 233.005388 
L 617.294969 233.366503 
L 617.294969 233.059098 
L 617.635302 233.418265 
L 617.635302 233.146015 
L 618.324281 233.013761 
L 618.324281 233.063693 
L 618.666571 233.005871 
L 618.666571 233.04256 
L 619.007637 233.470876 
L 619.007637 233.16051 
L 619.348704 233.448536 
L 619.348704 233.179691 
L 619.694172 233.453253 
L 619.694172 233.152855 
L 620.034994 233.490891 
L 620.034994 233.273119 
L 620.375817 233.590375 
L 620.375817 233.363195 
L 620.716394 233.335321 
L 621.057217 233.107476 
L 621.397794 233.290911 
L 621.397794 233.059143 
L 621.743751 233.007209 
L 622.08164 233.350563 
L 622.08164 233.327919 
L 622.419283 233.363269 
L 622.419283 233.360988 
L 622.753504 233.643218 
L 622.753504 233.395749 
L 623.086748 233.642421 
L 623.086748 233.42651 
L 623.420724 233.575009 
L 623.420724 233.366217 
L 623.753234 233.597204 
L 623.753234 233.359565 
L 624.087455 233.597044 
L 624.087455 233.461071 
L 624.421431 233.673604 
L 624.421431 233.442075 
L 624.755408 233.703972 
L 624.755408 233.487452 
L 625.088895 233.718139 
L 625.088895 233.456129 
L 625.421649 233.657525 
L 625.421649 233.424231 
L 625.756359 233.631667 
L 625.756359 233.441093 
L 626.088869 233.701408 
L 626.088869 233.480177 
L 626.423334 233.691292 
L 626.423334 233.454983 
L 626.768802 233.639477 
L 626.768802 233.407003 
L 627.106446 233.654976 
L 627.106446 233.404563 
L 627.442378 233.643052 
L 627.442378 233.397319 
L 627.777089 233.651309 
L 627.777089 233.458133 
L 628.113265 233.69045 
L 628.113265 233.517445 
L 628.448953 233.749391 
L 628.448953 233.491559 
L 628.784152 233.693971 
L 628.784152 233.479996 
L 629.457973 233.409613 
L 629.457973 233.489293 
L 629.798551 233.495887 
L 629.798551 233.489 
L 630.138884 233.719171 
L 630.138884 233.505992 
L 630.474817 233.655119 
L 630.474817 233.496753 
L 630.816373 233.717769 
L 630.816373 233.549946 
L 631.15744 233.766792 
L 631.15744 233.577299 
L 631.498751 233.709399 
L 631.498751 233.531129 
L 631.846908 233.716025 
L 631.846908 233.476168 
L 632.18773 233.667264 
L 632.18773 233.518858 
L 632.528797 233.704362 
L 632.528797 233.474146 
L 632.869619 233.720384 
L 632.869619 233.506247 
L 633.550286 233.32353 
L 633.886218 233.570352 
L 633.886218 233.387459 
L 634.219217 233.686206 
L 634.890104 233.599519 
L 634.890104 233.630345 
L 635.221147 233.611232 
L 635.221147 233.640259 
L 635.552923 233.876285 
L 635.552923 233.735203 
L 635.885188 233.904523 
L 635.885188 233.733219 
L 636.217208 233.825235 
L 636.217208 233.678895 
L 636.550207 233.792513 
L 636.550207 233.597171 
L 636.889318 233.765791 
L 636.889318 233.648238 
L 637.223783 233.79604 
L 637.223783 233.629713 
L 637.559227 233.806182 
L 637.559227 233.656205 
L 637.893937 233.805326 
L 637.893937 233.680142 
L 638.231092 233.866929 
L 638.231092 233.697892 
L 638.904179 233.713089 
L 638.904179 233.677967 
L 639.24109 233.473338 
L 639.580201 233.523308 
L 639.580201 233.673993 
L 639.918822 233.634771 
L 639.918822 233.694644 
L 640.255733 233.895283 
L 640.255733 233.860658 
L 641.614621 233.786758 
L 641.958866 233.936336 
L 641.958866 233.835266 
L 642.298466 233.831662 
L 642.636599 233.706939 
L 642.974977 233.827827 
L 642.974977 233.694508 
L 643.657844 233.936738 
L 643.657844 233.812959 
L 644.333865 233.96437 
L 644.333865 233.887653 
L 649.08264 233.940978 
L 649.08264 233.785269 
L 649.421262 233.905066 
L 649.421262 233.759258 
L 650.785529 234.047487 
L 650.785529 233.911241 
L 651.467907 233.961533 
L 651.467907 233.833868 
L 651.808974 233.950786 
L 651.808974 233.82796 
L 652.502598 233.86677 
L 654.209888 233.862292 
L 655.236512 233.809032 
L 655.920112 234.011329 
L 655.920112 233.883325 
L 656.945024 233.825199 
L 656.945024 233.867196 
L 657.292203 233.992235 
L 657.292203 233.847113 
L 657.639382 233.937175 
L 657.639382 233.864876 
L 658.322983 233.776006 
L 658.322983 233.801856 
L 658.665028 233.791437 
L 659.007806 233.964129 
L 659.007806 233.861382 
L 659.349606 234.002021 
L 659.349606 233.882632 
L 660.033451 233.964456 
L 660.033451 233.847119 
L 660.375252 233.992597 
L 660.375252 233.907636 
L 661.059341 234.001426 
L 661.059341 233.859649 
L 661.401141 233.96289 
L 661.401141 233.865616 
L 661.742942 233.811583 
L 662.432166 233.992396 
L 662.7791 234.033382 
L 662.7791 233.916623 
L 663.121145 234.027877 
L 663.121145 233.901819 
L 663.462945 234.019701 
L 663.462945 233.906212 
L 664.14679 234.034172 
L 664.14679 233.920686 
L 664.488591 234.019781 
L 664.488591 233.886233 
L 665.17268 234.002127 
L 665.17268 233.874479 
L 665.514725 233.999443 
L 665.514725 233.898047 
L 665.85677 233.99986 
L 665.85677 233.883618 
L 666.198815 234.000751 
L 666.198815 233.879547 
L 666.541104 233.969786 
L 666.541104 233.850451 
L 667.225193 233.991226 
L 667.225193 233.901635 
L 667.572373 234.023777 
L 667.572373 233.904983 
L 668.256462 233.984218 
L 668.256462 233.887634 
L 668.940063 234.003456 
L 668.940063 233.88618 
L 669.623663 234.028867 
L 669.623663 233.900504 
L 669.965219 234.014803 
L 669.965219 233.912973 
L 670.647842 233.997177 
L 670.647842 233.95665 
L 673.012816 234.161323 
L 673.012816 234.056586 
L 673.68248 233.982461 
L 674.015968 234.054512 
L 674.015968 233.985224 
L 677.043517 234.067443 
L 677.043517 233.991007 
L 677.384828 234.104799 
L 677.384828 234.053112 
L 678.413896 234.043239 
L 678.413896 234.009435 
L 679.436608 233.981738 
L 679.436608 233.981879 
L 679.778163 234.093303 
L 679.778163 234.011006 
L 680.461275 234.027141 
L 680.461275 233.952413 
L 681.486187 234.069809 
L 681.486187 233.986242 
L 682.511832 233.869219 
L 682.511832 233.986178 
L 682.859011 234.085365 
L 682.859011 233.985423 
L 683.542856 234.090123 
L 683.542856 233.992399 
L 684.226701 234.054977 
L 684.226701 233.944645 
L 684.910302 234.010373 
L 684.910302 233.946929 
L 685.252347 234.05484 
L 685.252347 233.956554 
L 685.594147 234.040367 
L 685.594147 233.937338 
L 686.620281 234.066399 
L 686.620281 234.033455 
L 688.336129 234.039888 
L 688.336129 233.930228 
L 688.678173 234.048127 
L 688.678173 233.956262 
L 689.362507 234.062054 
L 689.362507 233.975338 
L 690.046841 234.082373 
L 690.046841 234.004131 
L 690.388886 234.083428 
L 690.388886 233.975447 
L 691.072976 234.042988 
L 691.072976 233.961585 
L 692.783933 233.952005 
L 693.131357 234.05577 
L 693.131357 233.939424 
L 693.820336 234.02558 
L 693.820336 233.933926 
L 694.505648 234.077171 
L 694.505648 233.983216 
L 695.190227 234.040924 
L 695.190227 233.956782 
L 695.874561 234.07445 
L 695.874561 233.983169 
L 697.242006 233.901081 
L 697.242006 233.903324 
L 697.925607 234.043708 
L 697.925607 233.983418 
L 698.621432 233.974179 
L 698.621432 233.998246 
L 703.757483 234.060037 
L 703.757483 233.971182 
L 704.441083 234.066495 
L 704.441083 233.977865 
L 705.124928 234.067177 
L 705.124928 233.943042 
L 705.466729 234.051163 
L 705.466729 233.927555 
L 706.151552 234.007973 
L 706.151552 233.922466 
L 706.835397 234.064593 
L 706.835397 234.006299 
L 707.519486 234.063919 
L 707.519486 233.971482 
L 708.204065 234.022302 
L 708.204065 233.946041 
L 708.551488 234.024528 
L 708.551488 233.937807 
L 709.919423 234.065566 
L 709.919423 233.980529 
L 710.603513 234.074295 
L 710.603513 234.006642 
L 710.945313 234.077803 
L 710.945313 234.010747 
L 711.971447 233.98818 
L 712.655537 234.093544 
L 712.655537 234.025781 
L 714.029095 233.962681 
L 714.713184 234.07009 
L 714.713184 233.992007 
L 715.397274 234.078797 
L 715.397274 233.9802 
L 716.081119 234.051238 
L 716.081119 233.947142 
L 716.765453 234.029881 
L 716.765453 233.949277 
L 717.449542 234.078932 
L 717.449542 233.973662 
L 718.133388 234.055026 
L 718.133388 233.94698 
L 718.823345 234.056038 
L 718.823345 233.962474 
L 719.50719 234.077102 
L 719.50719 234.006971 
L 720.19128 234.09883 
L 720.19128 234.01601 
L 720.875369 234.0532 
L 720.875369 233.957859 
L 721.559459 234.05269 
L 721.559459 233.983281 
L 722.243304 234.087528 
L 722.243304 234.027513 
L 722.927149 234.089415 
L 722.927149 234.006063 
L 723.610994 234.058574 
L 723.610994 233.934575 
L 724.300462 234.051057 
L 724.300462 233.963384 
L 724.642262 234.070793 
L 724.642262 233.984568 
L 725.667908 233.980479 
L 725.667908 234.023197 
L 726.009464 234.118273 
L 726.009464 234.049256 
L 726.69282 234.055039 
L 726.69282 233.976501 
L 727.034131 234.063904 
L 727.034131 234.01529 
L 731.823247 234.006966 
L 732.165781 234.11206 
L 732.165781 234.021487 
L 732.849137 234.092028 
L 732.849137 234.009084 
L 733.191182 234.094977 
L 733.191182 234.030296 
L 734.56425 234.041931 
L 734.56425 234.073374 
L 735.607499 234.110267 
L 735.607499 234.010796 
L 736.291344 234.081927 
L 736.291344 234.012503 
L 736.980324 234.106147 
L 736.980324 234.02253 
L 737.322124 234.093155 
L 737.322124 233.973916 
L 737.664169 234.030314 
L 737.664169 233.958591 
L 740.062883 233.989199 
L 740.404683 233.885669 
L 740.746728 233.965188 
L 740.746728 233.842973 
L 742.114907 234.147434 
L 742.114907 234.081172 
L 742.798997 234.118646 
L 742.798997 234.018012 
L 743.487976 234.074508 
L 743.487976 234.024566 
L 744.172066 234.128919 
L 744.172066 234.049792 
L 744.861534 234.096631 
L 744.861534 234.006524 
L 745.545868 234.089572 
L 745.545868 234.03047 
L 746.230202 234.126369 
L 746.230202 234.004531 
L 746.914292 234.075745 
L 746.914292 233.988373 
L 747.598381 234.108795 
L 747.598381 234.008624 
L 748.282715 234.081206 
L 748.282715 233.992353 
L 749.656273 233.949468 
L 749.656273 233.982964 
L 750.340852 234.089816 
L 750.340852 234.0104 
L 751.024941 234.120281 
L 751.024941 234.03758 
L 751.708787 234.107685 
L 751.708787 234.026594 
L 751.708787 234.087141 
L 752.050831 234.011545 
L 752.392632 234.103156 
L 752.392632 233.998426 
L 758.552127 234.120432 
L 758.552127 234.041646 
L 759.924707 233.953274 
L 759.924707 233.985784 
L 764.026066 234.115852 
L 764.026066 234.030386 
L 764.709177 234.097093 
L 764.709177 234.042716 
L 765.398157 234.093861 
L 765.398157 234.028381 
L 766.42258 234.144878 
L 766.42258 234.066478 
L 766.76438 234.149908 
L 766.76438 234.087386 
L 767.447247 234.126111 
L 767.447247 234.030271 
L 768.472648 234.148955 
L 768.472648 234.062932 
L 768.814204 234.122246 
L 768.814204 234.048123 
L 769.838627 233.99797 
L 769.838627 234.014397 
L 770.526628 234.151893 
L 770.526628 234.075737 
L 771.209495 234.116777 
L 771.209495 234.06241 
L 771.551051 234.125055 
L 771.551051 234.056463 
L 772.234163 234.002498 
L 772.575718 233.907773 
L 774.288876 234.012692 
L 775.660723 233.955774 
L 776.346035 234.058209 
L 777.029391 234.061602 
L 777.029391 234.074961 
L 777.712258 234.114727 
L 790.703603 234.13563 
L 791.038313 234.206703 
L 791.038313 234.149268 
L 791.708222 234.085568 
L 792.374219 233.994918 
L 793.699856 234.137949 
L 793.699856 234.088213 
L 794.691517 234.036209 
L 794.691517 234.026952 
L 795.692958 234.082702 
L 797.011016 234.121362 
L 797.011016 234.145792 
L 798.329319 234.103213 
L 799.317801 234.048427 
L 799.317801 234.076017 
L 799.317801 234.162953 
L 803.278577 234.031891 
L 803.938462 234.042411 
L 804.929389 234.198434 
L 804.929389 234.130413 
L 806.594626 234.106281 
L 807.588243 234.197682 
L 807.588243 234.096417 
L 810.58083 234.076253 
L 811.244137 234.124463 
L 811.909645 234.023857 
L 811.909645 234.057417 
L 812.57442 234.046866 
L 812.57442 234.117251 
L 816.387767 234.341421 
L 816.387767 234.341244 
" clip-path="url(#pe7359c5663)" style="fill: none; stroke: #008000; stroke-width: 1.5; stroke-linecap: square"/>
   </g>
   <g id="patch_3">
    <path d="M 47.72 534.04 
L 47.72 26.88 
" style="fill: none; stroke: #000000; stroke-width: 0.8; stroke-linejoin: miter; stroke-linecap: square"/>
   </g>
   <g id="patch_4">
    <path d="M 853.2 534.04 
L 853.2 26.88 
" style="fill: none; stroke: #000000; stroke-width: 0.8; stroke-linejoin: miter; stroke-linecap: square"/>
   </g>
   <g id="patch_5">
    <path d="M 47.72 534.04 
L 853.2 534.04 
" style="fill: none; stroke: #000000; stroke-width: 0.8; stroke-linejoin: miter; stroke-linecap: square"/>
   </g>
   <g id="patch_6">
    <path d="M 47.72 26.88 
L 853.2 26.88 
" style="fill: none; stroke: #000000; stroke-width: 0.8; stroke-linejoin: miter; stroke-linecap: square"/>
   </g>
   <g id="patch_7">
    <path d="M 635.316156 334.610198 
Q 609.164862 340.444061 583.013568 346.277923 
L 583.884485 350.18196 
Q 577.376705 348.559982 570.868925 346.938004 
Q 576.070329 342.703927 581.271734 338.469849 
L 582.142651 342.373886 
Q 608.293945 336.540024 634.445239 330.706161 
L 635.316156 334.610198 
z
" style="stroke: #000000; stroke-linecap: round"/>
   </g>
   <g id="text_15">
    <!-- Peak: RT=3.30, Area=2.13e+04 -->
    <g style="fill: #ff0000" transform="translate(640.552791 318.115342) scale(0.1 -0.1)">
     <defs>
      <path id="DejaVuSans-50" d="M 1259 4147 
L 1259 2394 
L 2053 2394 
Q 2494 2394 2734 2622 
Q 2975 2850 2975 3272 
Q 2975 3691 2734 3919 
Q 2494 4147 2053 4147 
L 1259 4147 
z
M 628 4666 
L 2053 4666 
Q 2838 4666 3239 4311 
Q 3641 3956 3641 3272 
Q 3641 2581 3239 2228 
Q 2838 1875 2053 1875 
L 1259 1875 
L 1259 0 
L 628 0 
L 628 4666 
z
" transform="scale(0.015625)"/>
      <path id="DejaVuSans-6b" d="M 581 4863 
L 1159 4863 
L 1159 1991 
L 2875 3500 
L 3609 3500 
L 1753 1863 
L 3688 0 
L 2938 0 
L 1159 1709 
L 1159 0 
L 581 0 
L 581 4863 
z
" transform="scale(0.015625)"/>
      <path id="DejaVuSans-3a" d="M 750 794 
L 1409 794 
L 1409 0 
L 750 0 
L 750 794 
z
M 750 3309 
L 1409 3309 
L 1409 2516 
L 750 2516 
L 750 3309 
z
" transform="scale(0.015625)"/>
      <path id="DejaVuSans-3d" d="M 678 2906 
L 4684 2906 
L 4684 2381 
L 678 2381 
L 678 2906 
z
M 678 1631 
L 4684 1631 
L 4684 1100 
L 678 1100 
L 678 1631 
z
" transform="scale(0.015625)"/>
      <path id="DejaVuSans-2c" d="M 750 794 
L 1409 794 
L 1409 256 
L 897 -744 
L 494 -744 
L 750 256 
L 750 794 
z
" transform="scale(0.015625)"/>
      <path id="DejaVuSans-41" d="M 2188 4044 
L 1331 1722 
L 3047 1722 
L 2188 4044 
z
M 1831 4666 
L 2547 4666 
L 4325 0 
L 3669 0 
L 3244 1197 
L 1141 1197 
L 716 0 
L 50 0 
L 1831 4666 
z
" transform="scale(0.015625)"/>
      <path id="DejaVuSans-2b" d="M 2944 4013 
L 2944 2272 
L 4684 2272 
L 4684 1741 
L 2944 1741 
L 2944 0 
L 2419 0 
L 2419 1741 
L 678 1741 
L 678 2272 
L 2419 2272 
L 2419 4013 
L 2944 4013 
z
" transform="scale(0.015625)"/>
     </defs>
     <use xlink:href="#DejaVuSans-50"/>
     <use xlink:href="#DejaVuSans-65" transform="translate(56.677734 0)"/>
     <use xlink:href="#DejaVuSans-61" transform="translate(118.201172 0)"/>
     <use xlink:href="#DejaVuSans-6b" transform="translate(179.480469 0)"/>
     <use xlink:href="#DejaVuSans-3a" transform="translate(237.390625 0)"/>
     <use xlink:href="#DejaVuSans-20" transform="translate(271.082031 0)"/>
     <use xlink:href="#DejaVuSans-52" transform="translate(302.869141 0)"/>
     <use xlink:href="#DejaVuSans-54" transform="translate(365.101562 0)"/>
     <use xlink:href="#DejaVuSans-3d" transform="translate(426.185547 0)"/>
     <use xlink:href="#DejaVuSans-33" transform="translate(509.974609 0)"/>
     <use xlink:href="#DejaVuSans-2e" transform="translate(573.597656 0)"/>
     <use xlink:href="#DejaVuSans-33" transform="translate(605.384766 0)"/>
     <use xlink:href="#DejaVuSans-30" transform="translate(669.007812 0)"/>
     <use xlink:href="#DejaVuSans-2c" transform="translate(732.630859 0)"/>
     <use xlink:href="#DejaVuSans-20" transform="translate(764.417969 0)"/>
     <use xlink:href="#DejaVuSans-41" transform="translate(796.205078 0)"/>
     <use xlink:href="#DejaVuSans-72" transform="translate(864.613281 0)"/>
     <use xlink:href="#DejaVuSans-65" transform="translate(903.476562 0)"/>
     <use xlink:href="#DejaVuSans-61" transform="translate(965 0)"/>
     <use xlink:href="#DejaVuSans-3d" transform="translate(1026.279297 0)"/>
     <use xlink:href="#DejaVuSans-32" transform="translate(1110.068359 0)"/>
     <use xlink:href="#DejaVuSans-2e" transform="translate(1173.691406 0)"/>
     <use xlink:href="#DejaVuSans-31" transform="translate(1205.478516 0)"/>
     <use xlink:href="#DejaVuSans-33" transform="translate(1269.101562 0)"/>
     <use xlink:href="#DejaVuSans-65" transform="translate(1332.724609 0)"/>
     <use xlink:href="#DejaVuSans-2b" transform="translate(1394.248047 0)"/>
     <use xlink:href="#DejaVuSans-30" transform="translate(1478.037109 0)"/>
     <use xlink:href="#DejaVuSans-34" transform="translate(1541.660156 0)"/>
    </g>
    <!-- (31.65% of total) -->
    <g style="fill: #ff0000" transform="translate(640.552791 329.313155) scale(0.1 -0.1)">
     <defs>
      <path id="DejaVuSans-36" d="M 2113 2584 
Q 1688 2584 1439 2293 
Q 1191 2003 1191 1497 
Q 1191 994 1439 701 
Q 1688 409 2113 409 
Q 2538 409 2786 701 
Q 3034 994 3034 1497 
Q 3034 2003 2786 2293 
Q 2538 2584 2113 2584 
z
M 3366 4563 
L 3366 3988 
Q 3128 4100 2886 4159 
Q 2644 4219 2406 4219 
Q 1781 4219 1451 3797 
Q 1122 3375 1075 2522 
Q 1259 2794 1537 2939 
Q 1816 3084 2150 3084 
Q 2853 3084 3261 2657 
Q 3669 2231 3669 1497 
Q 3669 778 3244 343 
Q 2819 -91 2113 -91 
Q 1303 -91 875 529 
Q 447 1150 447 2328 
Q 447 3434 972 4092 
Q 1497 4750 2381 4750 
Q 2619 4750 2861 4703 
Q 3103 4656 3366 4563 
z
" transform="scale(0.015625)"/>
      <path id="DejaVuSans-25" d="M 4653 2053 
Q 4381 2053 4226 1822 
Q 4072 1591 4072 1178 
Q 4072 772 4226 539 
Q 4381 306 4653 306 
Q 4919 306 5073 539 
Q 5228 772 5228 1178 
Q 5228 1588 5073 1820 
Q 4919 2053 4653 2053 
z
M 4653 2450 
Q 5147 2450 5437 2106 
Q 5728 1763 5728 1178 
Q 5728 594 5436 251 
Q 5144 -91 4653 -91 
Q 4153 -91 3862 251 
Q 3572 594 3572 1178 
Q 3572 1766 3864 2108 
Q 4156 2450 4653 2450 
z
M 1428 4353 
Q 1159 4353 1004 4120 
Q 850 3888 850 3481 
Q 850 3069 1003 2837 
Q 1156 2606 1428 2606 
Q 1700 2606 1854 2837 
Q 2009 3069 2009 3481 
Q 2009 3884 1853 4118 
Q 1697 4353 1428 4353 
z
M 4250 4750 
L 4750 4750 
L 1831 -91 
L 1331 -91 
L 4250 4750 
z
M 1428 4750 
Q 1922 4750 2215 4408 
Q 2509 4066 2509 3481 
Q 2509 2891 2217 2550 
Q 1925 2209 1428 2209 
Q 931 2209 642 2551 
Q 353 2894 353 3481 
Q 353 4063 643 4406 
Q 934 4750 1428 4750 
z
" transform="scale(0.015625)"/>
      <path id="DejaVuSans-66" d="M 2375 4863 
L 2375 4384 
L 1825 4384 
Q 1516 4384 1395 4259 
Q 1275 4134 1275 3809 
L 1275 3500 
L 2222 3500 
L 2222 3053 
L 1275 3053 
L 1275 0 
L 697 0 
L 697 3053 
L 147 3053 
L 147 3500 
L 697 3500 
L 697 3744 
Q 697 4328 969 4595 
Q 1241 4863 1831 4863 
L 2375 4863 
z
" transform="scale(0.015625)"/>
     </defs>
     <use xlink:href="#DejaVuSans-28"/>
     <use xlink:href="#DejaVuSans-33" transform="translate(39.013672 0)"/>
     <use xlink:href="#DejaVuSans-31" transform="translate(102.636719 0)"/>
     <use xlink:href="#DejaVuSans-2e" transform="translate(166.259766 0)"/>
     <use xlink:href="#DejaVuSans-36" transform="translate(198.046875 0)"/>
     <use xlink:href="#DejaVuSans-35" transform="translate(261.669922 0)"/>
     <use xlink:href="#DejaVuSans-25" transform="translate(325.292969 0)"/>
     <use xlink:href="#DejaVuSans-20" transform="translate(420.3125 0)"/>
     <use xlink:href="#DejaVuSans-6f" transform="translate(452.099609 0)"/>
     <use xlink:href="#DejaVuSans-66" transform="translate(513.28125 0)"/>
     <use xlink:href="#DejaVuSans-20" transform="translate(548.486328 0)"/>
     <use xlink:href="#DejaVuSans-74" transform="translate(580.273438 0)"/>
     <use xlink:href="#DejaVuSans-6f" transform="translate(619.482422 0)"/>
     <use xlink:href="#DejaVuSans-74" transform="translate(680.664062 0)"/>
     <use xlink:href="#DejaVuSans-61" transform="translate(719.873047 0)"/>
     <use xlink:href="#DejaVuSans-6c" transform="translate(781.152344 0)"/>
     <use xlink:href="#DejaVuSans-29" transform="translate(808.935547 0)"/>
    </g>
   </g>
   <g id="text_16">
    <!-- UV &amp; MS Chromatograms: IrCp2N17, target m/z=809.0888193 -->
    <g transform="translate(261.923125 20.88) scale(0.12 -0.12)">
     <defs>
      <path id="DejaVuSans-55" d="M 556 4666 
L 1191 4666 
L 1191 1831 
Q 1191 1081 1462 751 
Q 1734 422 2344 422 
Q 2950 422 3222 751 
Q 3494 1081 3494 1831 
L 3494 4666 
L 4128 4666 
L 4128 1753 
Q 4128 841 3676 375 
Q 3225 -91 2344 -91 
Q 1459 -91 1007 375 
Q 556 841 556 1753 
L 556 4666 
z
" transform="scale(0.015625)"/>
      <path id="DejaVuSans-56" d="M 1831 0 
L 50 4666 
L 709 4666 
L 2188 738 
L 3669 4666 
L 4325 4666 
L 2547 0 
L 1831 0 
z
" transform="scale(0.015625)"/>
      <path id="DejaVuSans-26" d="M 1556 2509 
Q 1272 2256 1139 2004 
Q 1006 1753 1006 1478 
Q 1006 1022 1337 719 
Q 1669 416 2169 416 
Q 2466 416 2725 514 
Q 2984 613 3213 813 
L 1556 2509 
z
M 1997 2859 
L 3584 1234 
Q 3769 1513 3872 1830 
Q 3975 2147 3994 2503 
L 4575 2503 
Q 4538 2091 4375 1687 
Q 4213 1284 3922 891 
L 4794 0 
L 4006 0 
L 3559 459 
Q 3234 181 2878 45 
Q 2522 -91 2113 -91 
Q 1359 -91 881 339 
Q 403 769 403 1441 
Q 403 1841 612 2192 
Q 822 2544 1241 2853 
Q 1091 3050 1012 3245 
Q 934 3441 934 3628 
Q 934 4134 1281 4442 
Q 1628 4750 2203 4750 
Q 2463 4750 2720 4694 
Q 2978 4638 3244 4525 
L 3244 3956 
Q 2972 4103 2725 4179 
Q 2478 4256 2266 4256 
Q 1938 4256 1733 4082 
Q 1528 3909 1528 3634 
Q 1528 3475 1620 3314 
Q 1713 3153 1997 2859 
z
" transform="scale(0.015625)"/>
      <path id="DejaVuSans-4d" d="M 628 4666 
L 1569 4666 
L 2759 1491 
L 3956 4666 
L 4897 4666 
L 4897 0 
L 4281 0 
L 4281 4097 
L 3078 897 
L 2444 897 
L 1241 4097 
L 1241 0 
L 628 0 
L 628 4666 
z
" transform="scale(0.015625)"/>
      <path id="DejaVuSans-53" d="M 3425 4513 
L 3425 3897 
Q 3066 4069 2747 4153 
Q 2428 4238 2131 4238 
Q 1616 4238 1336 4038 
Q 1056 3838 1056 3469 
Q 1056 3159 1242 3001 
Q 1428 2844 1947 2747 
L 2328 2669 
Q 3034 2534 3370 2195 
Q 3706 1856 3706 1288 
Q 3706 609 3251 259 
Q 2797 -91 1919 -91 
Q 1588 -91 1214 -16 
Q 841 59 441 206 
L 441 856 
Q 825 641 1194 531 
Q 1563 422 1919 422 
Q 2459 422 2753 634 
Q 3047 847 3047 1241 
Q 3047 1584 2836 1778 
Q 2625 1972 2144 2069 
L 1759 2144 
Q 1053 2284 737 2584 
Q 422 2884 422 3419 
Q 422 4038 858 4394 
Q 1294 4750 2059 4750 
Q 2388 4750 2728 4690 
Q 3069 4631 3425 4513 
z
" transform="scale(0.015625)"/>
      <path id="DejaVuSans-43" d="M 4122 4306 
L 4122 3641 
Q 3803 3938 3442 4084 
Q 3081 4231 2675 4231 
Q 1875 4231 1450 3742 
Q 1025 3253 1025 2328 
Q 1025 1406 1450 917 
Q 1875 428 2675 428 
Q 3081 428 3442 575 
Q 3803 722 4122 1019 
L 4122 359 
Q 3791 134 3420 21 
Q 3050 -91 2638 -91 
Q 1578 -91 968 557 
Q 359 1206 359 2328 
Q 359 3453 968 4101 
Q 1578 4750 2638 4750 
Q 3056 4750 3426 4639 
Q 3797 4528 4122 4306 
z
" transform="scale(0.015625)"/>
      <path id="DejaVuSans-68" d="M 3513 2113 
L 3513 0 
L 2938 0 
L 2938 2094 
Q 2938 2591 2744 2837 
Q 2550 3084 2163 3084 
Q 1697 3084 1428 2787 
Q 1159 2491 1159 1978 
L 1159 0 
L 581 0 
L 581 4863 
L 1159 4863 
L 1159 2956 
Q 1366 3272 1645 3428 
Q 1925 3584 2291 3584 
Q 2894 3584 3203 3211 
Q 3513 2838 3513 2113 
z
" transform="scale(0.015625)"/>
      <path id="DejaVuSans-67" d="M 2906 1791 
Q 2906 2416 2648 2759 
Q 2391 3103 1925 3103 
Q 1463 3103 1205 2759 
Q 947 2416 947 1791 
Q 947 1169 1205 825 
Q 1463 481 1925 481 
Q 2391 481 2648 825 
Q 2906 1169 2906 1791 
z
M 3481 434 
Q 3481 -459 3084 -895 
Q 2688 -1331 1869 -1331 
Q 1566 -1331 1297 -1286 
Q 1028 -1241 775 -1147 
L 775 -588 
Q 1028 -725 1275 -790 
Q 1522 -856 1778 -856 
Q 2344 -856 2625 -561 
Q 2906 -266 2906 331 
L 2906 616 
Q 2728 306 2450 153 
Q 2172 0 1784 0 
Q 1141 0 747 490 
Q 353 981 353 1791 
Q 353 2603 747 3093 
Q 1141 3584 1784 3584 
Q 2172 3584 2450 3431 
Q 2728 3278 2906 2969 
L 2906 3500 
L 3481 3500 
L 3481 434 
z
" transform="scale(0.015625)"/>
      <path id="DejaVuSans-70" d="M 1159 525 
L 1159 -1331 
L 581 -1331 
L 581 3500 
L 1159 3500 
L 1159 2969 
Q 1341 3281 1617 3432 
Q 1894 3584 2278 3584 
Q 2916 3584 3314 3078 
Q 3713 2572 3713 1747 
Q 3713 922 3314 415 
Q 2916 -91 2278 -91 
Q 1894 -91 1617 61 
Q 1341 213 1159 525 
z
M 3116 1747 
Q 3116 2381 2855 2742 
Q 2594 3103 2138 3103 
Q 1681 3103 1420 2742 
Q 1159 2381 1159 1747 
Q 1159 1113 1420 752 
Q 1681 391 2138 391 
Q 2594 391 2855 752 
Q 3116 1113 3116 1747 
z
" transform="scale(0.015625)"/>
      <path id="DejaVuSans-37" d="M 525 4666 
L 3525 4666 
L 3525 4397 
L 1831 0 
L 1172 0 
L 2766 4134 
L 525 4134 
L 525 4666 
z
" transform="scale(0.015625)"/>
      <path id="DejaVuSans-2f" d="M 1625 4666 
L 2156 4666 
L 531 -594 
L 0 -594 
L 1625 4666 
z
" transform="scale(0.015625)"/>
      <path id="DejaVuSans-38" d="M 2034 2216 
Q 1584 2216 1326 1975 
Q 1069 1734 1069 1313 
Q 1069 891 1326 650 
Q 1584 409 2034 409 
Q 2484 409 2743 651 
Q 3003 894 3003 1313 
Q 3003 1734 2745 1975 
Q 2488 2216 2034 2216 
z
M 1403 2484 
Q 997 2584 770 2862 
Q 544 3141 544 3541 
Q 544 4100 942 4425 
Q 1341 4750 2034 4750 
Q 2731 4750 3128 4425 
Q 3525 4100 3525 3541 
Q 3525 3141 3298 2862 
Q 3072 2584 2669 2484 
Q 3125 2378 3379 2068 
Q 3634 1759 3634 1313 
Q 3634 634 3220 271 
Q 2806 -91 2034 -91 
Q 1263 -91 848 271 
Q 434 634 434 1313 
Q 434 1759 690 2068 
Q 947 2378 1403 2484 
z
M 1172 3481 
Q 1172 3119 1398 2916 
Q 1625 2713 2034 2713 
Q 2441 2713 2670 2916 
Q 2900 3119 2900 3481 
Q 2900 3844 2670 4047 
Q 2441 4250 2034 4250 
Q 1625 4250 1398 4047 
Q 1172 3844 1172 3481 
z
" transform="scale(0.015625)"/>
      <path id="DejaVuSans-39" d="M 703 97 
L 703 672 
Q 941 559 1184 500 
Q 1428 441 1663 441 
Q 2288 441 2617 861 
Q 2947 1281 2994 2138 
Q 2813 1869 2534 1725 
Q 2256 1581 1919 1581 
Q 1219 1581 811 2004 
Q 403 2428 403 3163 
Q 403 3881 828 4315 
Q 1253 4750 1959 4750 
Q 2769 4750 3195 4129 
Q 3622 3509 3622 2328 
Q 3622 1225 3098 567 
Q 2575 -91 1691 -91 
Q 1453 -91 1209 -44 
Q 966 3 703 97 
z
M 1959 2075 
Q 2384 2075 2632 2365 
Q 2881 2656 2881 3163 
Q 2881 3666 2632 3958 
Q 2384 4250 1959 4250 
Q 1534 4250 1286 3958 
Q 1038 3666 1038 3163 
Q 1038 2656 1286 2365 
Q 1534 2075 1959 2075 
z
" transform="scale(0.015625)"/>
     </defs>
     <use xlink:href="#DejaVuSans-55"/>
     <use xlink:href="#DejaVuSans-56" transform="translate(73.193359 0)"/>
     <use xlink:href="#DejaVuSans-20" transform="translate(141.601562 0)"/>
     <use xlink:href="#DejaVuSans-26" transform="translate(173.388672 0)"/>
     <use xlink:href="#DejaVuSans-20" transform="translate(251.367188 0)"/>
     <use xlink:href="#DejaVuSans-4d" transform="translate(283.154297 0)"/>
     <use xlink:href="#DejaVuSans-53" transform="translate(369.433594 0)"/>
     <use xlink:href="#DejaVuSans-20" transform="translate(432.910156 0)"/>
     <use xlink:href="#DejaVuSans-43" transform="translate(464.697266 0)"/>
     <use xlink:href="#DejaVuSans-68" transform="translate(534.521484 0)"/>
     <use xlink:href="#DejaVuSans-72" transform="translate(597.900391 0)"/>
     <use xlink:href="#DejaVuSans-6f" transform="translate(636.763672 0)"/>
     <use xlink:href="#DejaVuSans-6d" transform="translate(697.945312 0)"/>
     <use xlink:href="#DejaVuSans-61" transform="translate(795.357422 0)"/>
     <use xlink:href="#DejaVuSans-74" transform="translate(856.636719 0)"/>
     <use xlink:href="#DejaVuSans-6f" transform="translate(895.845703 0)"/>
     <use xlink:href="#DejaVuSans-67" transform="translate(957.027344 0)"/>
     <use xlink:href="#DejaVuSans-72" transform="translate(1020.503906 0)"/>
     <use xlink:href="#DejaVuSans-61" transform="translate(1061.617188 0)"/>
     <use xlink:href="#DejaVuSans-6d" transform="translate(1122.896484 0)"/>
     <use xlink:href="#DejaVuSans-73" transform="translate(1220.308594 0)"/>
     <use xlink:href="#DejaVuSans-3a" transform="translate(1272.408203 0)"/>
     <use xlink:href="#DejaVuSans-20" transform="translate(1306.099609 0)"/>
     <use xlink:href="#DejaVuSans-49" transform="translate(1337.886719 0)"/>
     <use xlink:href="#DejaVuSans-72" transform="translate(1367.378906 0)"/>
     <use xlink:href="#DejaVuSans-43" transform="translate(1408.492188 0)"/>
     <use xlink:href="#DejaVuSans-70" transform="translate(1478.316406 0)"/>
     <use xlink:href="#DejaVuSans-32" transform="translate(1541.792969 0)"/>
     <use xlink:href="#DejaVuSans-4e" transform="translate(1605.416016 0)"/>
     <use xlink:href="#DejaVuSans-31" transform="translate(1680.220703 0)"/>
     <use xlink:href="#DejaVuSans-37" transform="translate(1743.84375 0)"/>
     <use xlink:href="#DejaVuSans-2c" transform="translate(1807.466797 0)"/>
     <use xlink:href="#DejaVuSans-20" transform="translate(1839.253906 0)"/>
     <use xlink:href="#DejaVuSans-74" transform="translate(1871.041016 0)"/>
     <use xlink:href="#DejaVuSans-61" transform="translate(1910.25 0)"/>
     <use xlink:href="#DejaVuSans-72" transform="translate(1971.529297 0)"/>
     <use xlink:href="#DejaVuSans-67" transform="translate(2010.892578 0)"/>
     <use xlink:href="#DejaVuSans-65" transform="translate(2074.369141 0)"/>
     <use xlink:href="#DejaVuSans-74" transform="translate(2135.892578 0)"/>
     <use xlink:href="#DejaVuSans-20" transform="translate(2175.101562 0)"/>
     <use xlink:href="#DejaVuSans-6d" transform="translate(2206.888672 0)"/>
     <use xlink:href="#DejaVuSans-2f" transform="translate(2304.300781 0)"/>
     <use xlink:href="#DejaVuSans-7a" transform="translate(2337.992188 0)"/>
     <use xlink:href="#DejaVuSans-3d" transform="translate(2390.482422 0)"/>
     <use xlink:href="#DejaVuSans-38" transform="translate(2474.271484 0)"/>
     <use xlink:href="#DejaVuSans-30" transform="translate(2537.894531 0)"/>
     <use xlink:href="#DejaVuSans-39" transform="translate(2601.517578 0)"/>
     <use xlink:href="#DejaVuSans-2e" transform="translate(2665.140625 0)"/>
     <use xlink:href="#DejaVuSans-30" transform="translate(2696.927734 0)"/>
     <use xlink:href="#DejaVuSans-38" transform="translate(2760.550781 0)"/>
     <use xlink:href="#DejaVuSans-38" transform="translate(2824.173828 0)"/>
     <use xlink:href="#DejaVuSans-38" transform="translate(2887.796875 0)"/>
     <use xlink:href="#DejaVuSans-31" transform="translate(2951.419922 0)"/>
     <use xlink:href="#DejaVuSans-39" transform="translate(3015.042969 0)"/>
     <use xlink:href="#DejaVuSans-33" transform="translate(3078.666016 0)"/>
    </g>
   </g>
   <g id="legend_1">
    <g id="patch_8">
     <path d="M 685.971875 64.23625 
L 846.2 64.23625 
Q 848.2 64.23625 848.2 62.23625 
L 848.2 33.88 
Q 848.2 31.88 846.2 31.88 
L 685.971875 31.88 
Q 683.971875 31.88 683.971875 33.88 
L 683.971875 62.23625 
Q 683.971875 64.23625 685.971875 64.23625 
z
" style="fill: #ffffff; opacity: 0.8; stroke: #cccccc; stroke-linejoin: miter"/>
    </g>
    <g id="line2d_15">
     <path d="M 687.971875 39.978437 
L 697.971875 39.978437 
L 707.971875 39.978437 
" style="fill: none; stroke: #0000ff; stroke-width: 1.5; stroke-linecap: square"/>
    </g>
    <g id="text_17">
     <!-- UV Intensity (normalized) -->
     <g transform="translate(715.971875 43.478437) scale(0.1 -0.1)">
      <use xlink:href="#DejaVuSans-55"/>
      <use xlink:href="#DejaVuSans-56" transform="translate(73.193359 0)"/>
      <use xlink:href="#DejaVuSans-20" transform="translate(141.601562 0)"/>
      <use xlink:href="#DejaVuSans-49" transform="translate(173.388672 0)"/>
      <use xlink:href="#DejaVuSans-6e" transform="translate(202.880859 0)"/>
      <use xlink:href="#DejaVuSans-74" transform="translate(266.259766 0)"/>
      <use xlink:href="#DejaVuSans-65" transform="translate(305.46875 0)"/>
      <use xlink:href="#DejaVuSans-6e" transform="translate(366.992188 0)"/>
      <use xlink:href="#DejaVuSans-73" transform="translate(430.371094 0)"/>
      <use xlink:href="#DejaVuSans-69" transform="translate(482.470703 0)"/>
      <use xlink:href="#DejaVuSans-74" transform="translate(510.253906 0)"/>
      <use xlink:href="#DejaVuSans-79" transform="translate(549.462891 0)"/>
      <use xlink:href="#DejaVuSans-20" transform="translate(608.642578 0)"/>
      <use xlink:href="#DejaVuSans-28" transform="translate(640.429688 0)"/>
      <use xlink:href="#DejaVuSans-6e" transform="translate(679.443359 0)"/>
      <use xlink:href="#DejaVuSans-6f" transform="translate(742.822266 0)"/>
      <use xlink:href="#DejaVuSans-72" transform="translate(804.003906 0)"/>
      <use xlink:href="#DejaVuSans-6d" transform="translate(843.367188 0)"/>
      <use xlink:href="#DejaVuSans-61" transform="translate(940.779297 0)"/>
      <use xlink:href="#DejaVuSans-6c" transform="translate(1002.058594 0)"/>
      <use xlink:href="#DejaVuSans-69" transform="translate(1029.841797 0)"/>
      <use xlink:href="#DejaVuSans-7a" transform="translate(1057.625 0)"/>
      <use xlink:href="#DejaVuSans-65" transform="translate(1110.115234 0)"/>
      <use xlink:href="#DejaVuSans-64" transform="translate(1171.638672 0)"/>
      <use xlink:href="#DejaVuSans-29" transform="translate(1235.115234 0)"/>
     </g>
    </g>
    <g id="line2d_16">
     <path d="M 687.971875 54.656562 
L 697.971875 54.656562 
L 707.971875 54.656562 
" style="fill: none; stroke: #008000; stroke-width: 1.5; stroke-linecap: square"/>
    </g>
    <g id="text_18">
     <!-- MS Intensity (normalized) -->
     <g transform="translate(715.971875 58.156562) scale(0.1 -0.1)">
      <use xlink:href="#DejaVuSans-4d"/>
      <use xlink:href="#DejaVuSans-53" transform="translate(86.279297 0)"/>
      <use xlink:href="#DejaVuSans-20" transform="translate(149.755859 0)"/>
      <use xlink:href="#DejaVuSans-49" transform="translate(181.542969 0)"/>
      <use xlink:href="#DejaVuSans-6e" transform="translate(211.035156 0)"/>
      <use xlink:href="#DejaVuSans-74" transform="translate(274.414062 0)"/>
      <use xlink:href="#DejaVuSans-65" transform="translate(313.623047 0)"/>
      <use xlink:href="#DejaVuSans-6e" transform="translate(375.146484 0)"/>
      <use xlink:href="#DejaVuSans-73" transform="translate(438.525391 0)"/>
      <use xlink:href="#DejaVuSans-69" transform="translate(490.625 0)"/>
      <use xlink:href="#DejaVuSans-74" transform="translate(518.408203 0)"/>
      <use xlink:href="#DejaVuSans-79" transform="translate(557.617188 0)"/>
      <use xlink:href="#DejaVuSans-20" transform="translate(616.796875 0)"/>
      <use xlink:href="#DejaVuSans-28" transform="translate(648.583984 0)"/>
      <use xlink:href="#DejaVuSans-6e" transform="translate(687.597656 0)"/>
      <use xlink:href="#DejaVuSans-6f" transform="translate(750.976562 0)"/>
      <use xlink:href="#DejaVuSans-72" transform="translate(812.158203 0)"/>
      <use xlink:href="#DejaVuSans-6d" transform="translate(851.521484 0)"/>
      <use xlink:href="#DejaVuSans-61" transform="translate(948.933594 0)"/>
      <use xlink:href="#DejaVuSans-6c" transform="translate(1010.212891 0)"/>
      <use xlink:href="#DejaVuSans-69" transform="translate(1037.996094 0)"/>
      <use xlink:href="#DejaVuSans-7a" transform="translate(1065.779297 0)"/>
      <use xlink:href="#DejaVuSans-65" transform="translate(1118.269531 0)"/>
      <use xlink:href="#DejaVuSans-64" transform="translate(1179.792969 0)"/>
      <use xlink:href="#DejaVuSans-29" transform="translate(1243.269531 0)"/>
     </g>
    </g>
   </g>
  </g>
 </g>
 <defs>
  <clipPath id="pe7359c5663">
   <rect x="47.72" y="26.88" width="805.48" height="507.16"/>
  </clipPath>
 </defs>
</svg>
