<?xml version="1.0" encoding="utf-8" standalone="no"?>
<!DOCTYPE svg PUBLIC "-//W3C//DTD SVG 1.1//EN"
  "http://www.w3.org/Graphics/SVG/1.1/DTD/svg11.dtd">
<svg xmlns:xlink="http://www.w3.org/1999/xlink" width="864pt" height="576pt" viewBox="0 0 864 576" xmlns="http://www.w3.org/2000/svg" version="1.1">
 <metadata>
  <rdf:RDF xmlns:dc="http://purl.org/dc/elements/1.1/" xmlns:cc="http://creativecommons.org/ns#" xmlns:rdf="http://www.w3.org/1999/02/22-rdf-syntax-ns#">
   <cc:Work>
    <dc:type rdf:resource="http://purl.org/dc/dcmitype/StillImage"/>
    <dc:date>2025-02-06T15:01:56.643179</dc:date>
    <dc:format>image/svg+xml</dc:format>
    <dc:creator>
     <cc:Agent>
      <dc:title>Matplotlib v3.10.0, https://matplotlib.org/</dc:title>
     </cc:Agent>
    </dc:creator>
   </cc:Work>
  </rdf:RDF>
 </metadata>
 <defs>
  <style type="text/css">*{stroke-linejoin: round; stroke-linecap: butt}</style>
 </defs>
 <g id="figure_1">
  <g id="patch_1">
   <path d="M 0 576 
L 864 576 
L 864 0 
L 0 0 
z
" style="fill: #ffffff"/>
  </g>
  <g id="axes_1">
   <g id="patch_2">
    <path d="M 47.72 534.04 
L 853.2 534.04 
L 853.2 26.88 
L 47.72 26.88 
z
" style="fill: #ffffff"/>
   </g>
   <g id="matplotlib.axis_1">
    <g id="xtick_1">
     <g id="line2d_1">
      <defs>
       <path id="mb23cbfdfa4" d="M 0 0 
L 0 3.5 
" style="stroke: #000000; stroke-width: 0.8"/>
      </defs>
      <g>
       <use xlink:href="#mb23cbfdfa4" x="83.093151" y="534.04" style="stroke: #000000; stroke-width: 0.8"/>
      </g>
     </g>
     <g id="text_1">
      <!-- 0 -->
      <g transform="translate(79.911901 548.638438) scale(0.1 -0.1)">
       <defs>
        <path id="DejaVuSans-30" d="M 2034 4250 
Q 1547 4250 1301 3770 
Q 1056 3291 1056 2328 
Q 1056 1369 1301 889 
Q 1547 409 2034 409 
Q 2525 409 2770 889 
Q 3016 1369 3016 2328 
Q 3016 3291 2770 3770 
Q 2525 4250 2034 4250 
z
M 2034 4750 
Q 2819 4750 3233 4129 
Q 3647 3509 3647 2328 
Q 3647 1150 3233 529 
Q 2819 -91 2034 -91 
Q 1250 -91 836 529 
Q 422 1150 422 2328 
Q 422 3509 836 4129 
Q 1250 4750 2034 4750 
z
" transform="scale(0.015625)"/>
       </defs>
       <use xlink:href="#DejaVuSans-30"/>
      </g>
     </g>
    </g>
    <g id="xtick_2">
     <g id="line2d_2">
      <g>
       <use xlink:href="#mb23cbfdfa4" x="229.788553" y="534.04" style="stroke: #000000; stroke-width: 0.8"/>
      </g>
     </g>
     <g id="text_2">
      <!-- 1 -->
      <g transform="translate(226.607303 548.638438) scale(0.1 -0.1)">
       <defs>
        <path id="DejaVuSans-31" d="M 794 531 
L 1825 531 
L 1825 4091 
L 703 3866 
L 703 4441 
L 1819 4666 
L 2450 4666 
L 2450 531 
L 3481 531 
L 3481 0 
L 794 0 
L 794 531 
z
" transform="scale(0.015625)"/>
       </defs>
       <use xlink:href="#DejaVuSans-31"/>
      </g>
     </g>
    </g>
    <g id="xtick_3">
     <g id="line2d_3">
      <g>
       <use xlink:href="#mb23cbfdfa4" x="376.483954" y="534.04" style="stroke: #000000; stroke-width: 0.8"/>
      </g>
     </g>
     <g id="text_3">
      <!-- 2 -->
      <g transform="translate(373.302704 548.638438) scale(0.1 -0.1)">
       <defs>
        <path id="DejaVuSans-32" d="M 1228 531 
L 3431 531 
L 3431 0 
L 469 0 
L 469 531 
Q 828 903 1448 1529 
Q 2069 2156 2228 2338 
Q 2531 2678 2651 2914 
Q 2772 3150 2772 3378 
Q 2772 3750 2511 3984 
Q 2250 4219 1831 4219 
Q 1534 4219 1204 4116 
Q 875 4013 500 3803 
L 500 4441 
Q 881 4594 1212 4672 
Q 1544 4750 1819 4750 
Q 2544 4750 2975 4387 
Q 3406 4025 3406 3419 
Q 3406 3131 3298 2873 
Q 3191 2616 2906 2266 
Q 2828 2175 2409 1742 
Q 1991 1309 1228 531 
z
" transform="scale(0.015625)"/>
       </defs>
       <use xlink:href="#DejaVuSans-32"/>
      </g>
     </g>
    </g>
    <g id="xtick_4">
     <g id="line2d_4">
      <g>
       <use xlink:href="#mb23cbfdfa4" x="523.179355" y="534.04" style="stroke: #000000; stroke-width: 0.8"/>
      </g>
     </g>
     <g id="text_4">
      <!-- 3 -->
      <g transform="translate(519.998105 548.638438) scale(0.1 -0.1)">
       <defs>
        <path id="DejaVuSans-33" d="M 2597 2516 
Q 3050 2419 3304 2112 
Q 3559 1806 3559 1356 
Q 3559 666 3084 287 
Q 2609 -91 1734 -91 
Q 1441 -91 1130 -33 
Q 819 25 488 141 
L 488 750 
Q 750 597 1062 519 
Q 1375 441 1716 441 
Q 2309 441 2620 675 
Q 2931 909 2931 1356 
Q 2931 1769 2642 2001 
Q 2353 2234 1838 2234 
L 1294 2234 
L 1294 2753 
L 1863 2753 
Q 2328 2753 2575 2939 
Q 2822 3125 2822 3475 
Q 2822 3834 2567 4026 
Q 2313 4219 1838 4219 
Q 1578 4219 1281 4162 
Q 984 4106 628 3988 
L 628 4550 
Q 988 4650 1302 4700 
Q 1616 4750 1894 4750 
Q 2613 4750 3031 4423 
Q 3450 4097 3450 3541 
Q 3450 3153 3228 2886 
Q 3006 2619 2597 2516 
z
" transform="scale(0.015625)"/>
       </defs>
       <use xlink:href="#DejaVuSans-33"/>
      </g>
     </g>
    </g>
    <g id="xtick_5">
     <g id="line2d_5">
      <g>
       <use xlink:href="#mb23cbfdfa4" x="669.874757" y="534.04" style="stroke: #000000; stroke-width: 0.8"/>
      </g>
     </g>
     <g id="text_5">
      <!-- 4 -->
      <g transform="translate(666.693507 548.638438) scale(0.1 -0.1)">
       <defs>
        <path id="DejaVuSans-34" d="M 2419 4116 
L 825 1625 
L 2419 1625 
L 2419 4116 
z
M 2253 4666 
L 3047 4666 
L 3047 1625 
L 3713 1625 
L 3713 1100 
L 3047 1100 
L 3047 0 
L 2419 0 
L 2419 1100 
L 313 1100 
L 313 1709 
L 2253 4666 
z
" transform="scale(0.015625)"/>
       </defs>
       <use xlink:href="#DejaVuSans-34"/>
      </g>
     </g>
    </g>
    <g id="xtick_6">
     <g id="line2d_6">
      <g>
       <use xlink:href="#mb23cbfdfa4" x="816.570158" y="534.04" style="stroke: #000000; stroke-width: 0.8"/>
      </g>
     </g>
     <g id="text_6">
      <!-- 5 -->
      <g transform="translate(813.388908 548.638438) scale(0.1 -0.1)">
       <defs>
        <path id="DejaVuSans-35" d="M 691 4666 
L 3169 4666 
L 3169 4134 
L 1269 4134 
L 1269 2991 
Q 1406 3038 1543 3061 
Q 1681 3084 1819 3084 
Q 2600 3084 3056 2656 
Q 3513 2228 3513 1497 
Q 3513 744 3044 326 
Q 2575 -91 1722 -91 
Q 1428 -91 1123 -41 
Q 819 9 494 109 
L 494 744 
Q 775 591 1075 516 
Q 1375 441 1709 441 
Q 2250 441 2565 725 
Q 2881 1009 2881 1497 
Q 2881 1984 2565 2268 
Q 2250 2553 1709 2553 
Q 1456 2553 1204 2497 
Q 953 2441 691 2322 
L 691 4666 
z
" transform="scale(0.015625)"/>
       </defs>
       <use xlink:href="#DejaVuSans-35"/>
      </g>
     </g>
    </g>
    <g id="text_7">
     <!-- Retention Time (min) -->
     <g transform="translate(397.61 562.316562) scale(0.1 -0.1)">
      <defs>
       <path id="DejaVuSans-52" d="M 2841 2188 
Q 3044 2119 3236 1894 
Q 3428 1669 3622 1275 
L 4263 0 
L 3584 0 
L 2988 1197 
Q 2756 1666 2539 1819 
Q 2322 1972 1947 1972 
L 1259 1972 
L 1259 0 
L 628 0 
L 628 4666 
L 2053 4666 
Q 2853 4666 3247 4331 
Q 3641 3997 3641 3322 
Q 3641 2881 3436 2590 
Q 3231 2300 2841 2188 
z
M 1259 4147 
L 1259 2491 
L 2053 2491 
Q 2509 2491 2742 2702 
Q 2975 2913 2975 3322 
Q 2975 3731 2742 3939 
Q 2509 4147 2053 4147 
L 1259 4147 
z
" transform="scale(0.015625)"/>
       <path id="DejaVuSans-65" d="M 3597 1894 
L 3597 1613 
L 953 1613 
Q 991 1019 1311 708 
Q 1631 397 2203 397 
Q 2534 397 2845 478 
Q 3156 559 3463 722 
L 3463 178 
Q 3153 47 2828 -22 
Q 2503 -91 2169 -91 
Q 1331 -91 842 396 
Q 353 884 353 1716 
Q 353 2575 817 3079 
Q 1281 3584 2069 3584 
Q 2775 3584 3186 3129 
Q 3597 2675 3597 1894 
z
M 3022 2063 
Q 3016 2534 2758 2815 
Q 2500 3097 2075 3097 
Q 1594 3097 1305 2825 
Q 1016 2553 972 2059 
L 3022 2063 
z
" transform="scale(0.015625)"/>
       <path id="DejaVuSans-74" d="M 1172 4494 
L 1172 3500 
L 2356 3500 
L 2356 3053 
L 1172 3053 
L 1172 1153 
Q 1172 725 1289 603 
Q 1406 481 1766 481 
L 2356 481 
L 2356 0 
L 1766 0 
Q 1100 0 847 248 
Q 594 497 594 1153 
L 594 3053 
L 172 3053 
L 172 3500 
L 594 3500 
L 594 4494 
L 1172 4494 
z
" transform="scale(0.015625)"/>
       <path id="DejaVuSans-6e" d="M 3513 2113 
L 3513 0 
L 2938 0 
L 2938 2094 
Q 2938 2591 2744 2837 
Q 2550 3084 2163 3084 
Q 1697 3084 1428 2787 
Q 1159 2491 1159 1978 
L 1159 0 
L 581 0 
L 581 3500 
L 1159 3500 
L 1159 2956 
Q 1366 3272 1645 3428 
Q 1925 3584 2291 3584 
Q 2894 3584 3203 3211 
Q 3513 2838 3513 2113 
z
" transform="scale(0.015625)"/>
       <path id="DejaVuSans-69" d="M 603 3500 
L 1178 3500 
L 1178 0 
L 603 0 
L 603 3500 
z
M 603 4863 
L 1178 4863 
L 1178 4134 
L 603 4134 
L 603 4863 
z
" transform="scale(0.015625)"/>
       <path id="DejaVuSans-6f" d="M 1959 3097 
Q 1497 3097 1228 2736 
Q 959 2375 959 1747 
Q 959 1119 1226 758 
Q 1494 397 1959 397 
Q 2419 397 2687 759 
Q 2956 1122 2956 1747 
Q 2956 2369 2687 2733 
Q 2419 3097 1959 3097 
z
M 1959 3584 
Q 2709 3584 3137 3096 
Q 3566 2609 3566 1747 
Q 3566 888 3137 398 
Q 2709 -91 1959 -91 
Q 1206 -91 779 398 
Q 353 888 353 1747 
Q 353 2609 779 3096 
Q 1206 3584 1959 3584 
z
" transform="scale(0.015625)"/>
       <path id="DejaVuSans-20" transform="scale(0.015625)"/>
       <path id="DejaVuSans-54" d="M -19 4666 
L 3928 4666 
L 3928 4134 
L 2272 4134 
L 2272 0 
L 1638 0 
L 1638 4134 
L -19 4134 
L -19 4666 
z
" transform="scale(0.015625)"/>
       <path id="DejaVuSans-6d" d="M 3328 2828 
Q 3544 3216 3844 3400 
Q 4144 3584 4550 3584 
Q 5097 3584 5394 3201 
Q 5691 2819 5691 2113 
L 5691 0 
L 5113 0 
L 5113 2094 
Q 5113 2597 4934 2840 
Q 4756 3084 4391 3084 
Q 3944 3084 3684 2787 
Q 3425 2491 3425 1978 
L 3425 0 
L 2847 0 
L 2847 2094 
Q 2847 2600 2669 2842 
Q 2491 3084 2119 3084 
Q 1678 3084 1418 2786 
Q 1159 2488 1159 1978 
L 1159 0 
L 581 0 
L 581 3500 
L 1159 3500 
L 1159 2956 
Q 1356 3278 1631 3431 
Q 1906 3584 2284 3584 
Q 2666 3584 2933 3390 
Q 3200 3197 3328 2828 
z
" transform="scale(0.015625)"/>
       <path id="DejaVuSans-28" d="M 1984 4856 
Q 1566 4138 1362 3434 
Q 1159 2731 1159 2009 
Q 1159 1288 1364 580 
Q 1569 -128 1984 -844 
L 1484 -844 
Q 1016 -109 783 600 
Q 550 1309 550 2009 
Q 550 2706 781 3412 
Q 1013 4119 1484 4856 
L 1984 4856 
z
" transform="scale(0.015625)"/>
       <path id="DejaVuSans-29" d="M 513 4856 
L 1013 4856 
Q 1481 4119 1714 3412 
Q 1947 2706 1947 2009 
Q 1947 1309 1714 600 
Q 1481 -109 1013 -844 
L 513 -844 
Q 928 -128 1133 580 
Q 1338 1288 1338 2009 
Q 1338 2731 1133 3434 
Q 928 4138 513 4856 
z
" transform="scale(0.015625)"/>
      </defs>
      <use xlink:href="#DejaVuSans-52"/>
      <use xlink:href="#DejaVuSans-65" transform="translate(64.982422 0)"/>
      <use xlink:href="#DejaVuSans-74" transform="translate(126.505859 0)"/>
      <use xlink:href="#DejaVuSans-65" transform="translate(165.714844 0)"/>
      <use xlink:href="#DejaVuSans-6e" transform="translate(227.238281 0)"/>
      <use xlink:href="#DejaVuSans-74" transform="translate(290.617188 0)"/>
      <use xlink:href="#DejaVuSans-69" transform="translate(329.826172 0)"/>
      <use xlink:href="#DejaVuSans-6f" transform="translate(357.609375 0)"/>
      <use xlink:href="#DejaVuSans-6e" transform="translate(418.791016 0)"/>
      <use xlink:href="#DejaVuSans-20" transform="translate(482.169922 0)"/>
      <use xlink:href="#DejaVuSans-54" transform="translate(513.957031 0)"/>
      <use xlink:href="#DejaVuSans-69" transform="translate(571.916016 0)"/>
      <use xlink:href="#DejaVuSans-6d" transform="translate(599.699219 0)"/>
      <use xlink:href="#DejaVuSans-65" transform="translate(697.111328 0)"/>
      <use xlink:href="#DejaVuSans-20" transform="translate(758.634766 0)"/>
      <use xlink:href="#DejaVuSans-28" transform="translate(790.421875 0)"/>
      <use xlink:href="#DejaVuSans-6d" transform="translate(829.435547 0)"/>
      <use xlink:href="#DejaVuSans-69" transform="translate(926.847656 0)"/>
      <use xlink:href="#DejaVuSans-6e" transform="translate(954.630859 0)"/>
      <use xlink:href="#DejaVuSans-29" transform="translate(1018.009766 0)"/>
     </g>
    </g>
   </g>
   <g id="matplotlib.axis_2">
    <g id="ytick_1">
     <g id="line2d_7">
      <defs>
       <path id="me2de96001a" d="M 0 0 
L -3.5 0 
" style="stroke: #000000; stroke-width: 0.8"/>
      </defs>
      <g>
       <use xlink:href="#me2de96001a" x="47.72" y="510.987272" style="stroke: #000000; stroke-width: 0.8"/>
      </g>
     </g>
     <g id="text_8">
      <!-- 0.0 -->
      <g style="fill: #0000ff" transform="translate(24.816875 514.786491) scale(0.1 -0.1)">
       <defs>
        <path id="DejaVuSans-2e" d="M 684 794 
L 1344 794 
L 1344 0 
L 684 0 
L 684 794 
z
" transform="scale(0.015625)"/>
       </defs>
       <use xlink:href="#DejaVuSans-30"/>
       <use xlink:href="#DejaVuSans-2e" transform="translate(63.623047 0)"/>
       <use xlink:href="#DejaVuSans-30" transform="translate(95.410156 0)"/>
      </g>
     </g>
    </g>
    <g id="ytick_2">
     <g id="line2d_8">
      <g>
       <use xlink:href="#me2de96001a" x="47.72" y="418.776363" style="stroke: #000000; stroke-width: 0.8"/>
      </g>
     </g>
     <g id="text_9">
      <!-- 0.5 -->
      <g style="fill: #0000ff" transform="translate(24.816875 422.575582) scale(0.1 -0.1)">
       <use xlink:href="#DejaVuSans-30"/>
       <use xlink:href="#DejaVuSans-2e" transform="translate(63.623047 0)"/>
       <use xlink:href="#DejaVuSans-35" transform="translate(95.410156 0)"/>
      </g>
     </g>
    </g>
    <g id="ytick_3">
     <g id="line2d_9">
      <g>
       <use xlink:href="#me2de96001a" x="47.72" y="326.565454" style="stroke: #000000; stroke-width: 0.8"/>
      </g>
     </g>
     <g id="text_10">
      <!-- 1.0 -->
      <g style="fill: #0000ff" transform="translate(24.816875 330.364673) scale(0.1 -0.1)">
       <use xlink:href="#DejaVuSans-31"/>
       <use xlink:href="#DejaVuSans-2e" transform="translate(63.623047 0)"/>
       <use xlink:href="#DejaVuSans-30" transform="translate(95.410156 0)"/>
      </g>
     </g>
    </g>
    <g id="ytick_4">
     <g id="line2d_10">
      <g>
       <use xlink:href="#me2de96001a" x="47.72" y="234.354545" style="stroke: #000000; stroke-width: 0.8"/>
      </g>
     </g>
     <g id="text_11">
      <!-- 1.5 -->
      <g style="fill: #0000ff" transform="translate(24.816875 238.153764) scale(0.1 -0.1)">
       <use xlink:href="#DejaVuSans-31"/>
       <use xlink:href="#DejaVuSans-2e" transform="translate(63.623047 0)"/>
       <use xlink:href="#DejaVuSans-35" transform="translate(95.410156 0)"/>
      </g>
     </g>
    </g>
    <g id="ytick_5">
     <g id="line2d_11">
      <g>
       <use xlink:href="#me2de96001a" x="47.72" y="142.143636" style="stroke: #000000; stroke-width: 0.8"/>
      </g>
     </g>
     <g id="text_12">
      <!-- 2.0 -->
      <g style="fill: #0000ff" transform="translate(24.816875 145.942855) scale(0.1 -0.1)">
       <use xlink:href="#DejaVuSans-32"/>
       <use xlink:href="#DejaVuSans-2e" transform="translate(63.623047 0)"/>
       <use xlink:href="#DejaVuSans-30" transform="translate(95.410156 0)"/>
      </g>
     </g>
    </g>
    <g id="ytick_6">
     <g id="line2d_12">
      <g>
       <use xlink:href="#me2de96001a" x="47.72" y="49.932727" style="stroke: #000000; stroke-width: 0.8"/>
      </g>
     </g>
     <g id="text_13">
      <!-- 2.5 -->
      <g style="fill: #0000ff" transform="translate(24.816875 53.731946) scale(0.1 -0.1)">
       <use xlink:href="#DejaVuSans-32"/>
       <use xlink:href="#DejaVuSans-2e" transform="translate(63.623047 0)"/>
       <use xlink:href="#DejaVuSans-35" transform="translate(95.410156 0)"/>
      </g>
     </g>
    </g>
    <g id="text_14">
     <!-- Normalized Intensity -->
     <g style="fill: #0000ff" transform="translate(18.737187 332.167031) rotate(-90) scale(0.1 -0.1)">
      <defs>
       <path id="DejaVuSans-4e" d="M 628 4666 
L 1478 4666 
L 3547 763 
L 3547 4666 
L 4159 4666 
L 4159 0 
L 3309 0 
L 1241 3903 
L 1241 0 
L 628 0 
L 628 4666 
z
" transform="scale(0.015625)"/>
       <path id="DejaVuSans-72" d="M 2631 2963 
Q 2534 3019 2420 3045 
Q 2306 3072 2169 3072 
Q 1681 3072 1420 2755 
Q 1159 2438 1159 1844 
L 1159 0 
L 581 0 
L 581 3500 
L 1159 3500 
L 1159 2956 
Q 1341 3275 1631 3429 
Q 1922 3584 2338 3584 
Q 2397 3584 2469 3576 
Q 2541 3569 2628 3553 
L 2631 2963 
z
" transform="scale(0.015625)"/>
       <path id="DejaVuSans-61" d="M 2194 1759 
Q 1497 1759 1228 1600 
Q 959 1441 959 1056 
Q 959 750 1161 570 
Q 1363 391 1709 391 
Q 2188 391 2477 730 
Q 2766 1069 2766 1631 
L 2766 1759 
L 2194 1759 
z
M 3341 1997 
L 3341 0 
L 2766 0 
L 2766 531 
Q 2569 213 2275 61 
Q 1981 -91 1556 -91 
Q 1019 -91 701 211 
Q 384 513 384 1019 
Q 384 1609 779 1909 
Q 1175 2209 1959 2209 
L 2766 2209 
L 2766 2266 
Q 2766 2663 2505 2880 
Q 2244 3097 1772 3097 
Q 1472 3097 1187 3025 
Q 903 2953 641 2809 
L 641 3341 
Q 956 3463 1253 3523 
Q 1550 3584 1831 3584 
Q 2591 3584 2966 3190 
Q 3341 2797 3341 1997 
z
" transform="scale(0.015625)"/>
       <path id="DejaVuSans-6c" d="M 603 4863 
L 1178 4863 
L 1178 0 
L 603 0 
L 603 4863 
z
" transform="scale(0.015625)"/>
       <path id="DejaVuSans-7a" d="M 353 3500 
L 3084 3500 
L 3084 2975 
L 922 459 
L 3084 459 
L 3084 0 
L 275 0 
L 275 525 
L 2438 3041 
L 353 3041 
L 353 3500 
z
" transform="scale(0.015625)"/>
       <path id="DejaVuSans-64" d="M 2906 2969 
L 2906 4863 
L 3481 4863 
L 3481 0 
L 2906 0 
L 2906 525 
Q 2725 213 2448 61 
Q 2172 -91 1784 -91 
Q 1150 -91 751 415 
Q 353 922 353 1747 
Q 353 2572 751 3078 
Q 1150 3584 1784 3584 
Q 2172 3584 2448 3432 
Q 2725 3281 2906 2969 
z
M 947 1747 
Q 947 1113 1208 752 
Q 1469 391 1925 391 
Q 2381 391 2643 752 
Q 2906 1113 2906 1747 
Q 2906 2381 2643 2742 
Q 2381 3103 1925 3103 
Q 1469 3103 1208 2742 
Q 947 2381 947 1747 
z
" transform="scale(0.015625)"/>
       <path id="DejaVuSans-49" d="M 628 4666 
L 1259 4666 
L 1259 0 
L 628 0 
L 628 4666 
z
" transform="scale(0.015625)"/>
       <path id="DejaVuSans-73" d="M 2834 3397 
L 2834 2853 
Q 2591 2978 2328 3040 
Q 2066 3103 1784 3103 
Q 1356 3103 1142 2972 
Q 928 2841 928 2578 
Q 928 2378 1081 2264 
Q 1234 2150 1697 2047 
L 1894 2003 
Q 2506 1872 2764 1633 
Q 3022 1394 3022 966 
Q 3022 478 2636 193 
Q 2250 -91 1575 -91 
Q 1294 -91 989 -36 
Q 684 19 347 128 
L 347 722 
Q 666 556 975 473 
Q 1284 391 1588 391 
Q 1994 391 2212 530 
Q 2431 669 2431 922 
Q 2431 1156 2273 1281 
Q 2116 1406 1581 1522 
L 1381 1569 
Q 847 1681 609 1914 
Q 372 2147 372 2553 
Q 372 3047 722 3315 
Q 1072 3584 1716 3584 
Q 2034 3584 2315 3537 
Q 2597 3491 2834 3397 
z
" transform="scale(0.015625)"/>
       <path id="DejaVuSans-79" d="M 2059 -325 
Q 1816 -950 1584 -1140 
Q 1353 -1331 966 -1331 
L 506 -1331 
L 506 -850 
L 844 -850 
Q 1081 -850 1212 -737 
Q 1344 -625 1503 -206 
L 1606 56 
L 191 3500 
L 800 3500 
L 1894 763 
L 2988 3500 
L 3597 3500 
L 2059 -325 
z
" transform="scale(0.015625)"/>
      </defs>
      <use xlink:href="#DejaVuSans-4e"/>
      <use xlink:href="#DejaVuSans-6f" transform="translate(74.804688 0)"/>
      <use xlink:href="#DejaVuSans-72" transform="translate(135.986328 0)"/>
      <use xlink:href="#DejaVuSans-6d" transform="translate(175.349609 0)"/>
      <use xlink:href="#DejaVuSans-61" transform="translate(272.761719 0)"/>
      <use xlink:href="#DejaVuSans-6c" transform="translate(334.041016 0)"/>
      <use xlink:href="#DejaVuSans-69" transform="translate(361.824219 0)"/>
      <use xlink:href="#DejaVuSans-7a" transform="translate(389.607422 0)"/>
      <use xlink:href="#DejaVuSans-65" transform="translate(442.097656 0)"/>
      <use xlink:href="#DejaVuSans-64" transform="translate(503.621094 0)"/>
      <use xlink:href="#DejaVuSans-20" transform="translate(567.097656 0)"/>
      <use xlink:href="#DejaVuSans-49" transform="translate(598.884766 0)"/>
      <use xlink:href="#DejaVuSans-6e" transform="translate(628.376953 0)"/>
      <use xlink:href="#DejaVuSans-74" transform="translate(691.755859 0)"/>
      <use xlink:href="#DejaVuSans-65" transform="translate(730.964844 0)"/>
      <use xlink:href="#DejaVuSans-6e" transform="translate(792.488281 0)"/>
      <use xlink:href="#DejaVuSans-73" transform="translate(855.867188 0)"/>
      <use xlink:href="#DejaVuSans-69" transform="translate(907.966797 0)"/>
      <use xlink:href="#DejaVuSans-74" transform="translate(935.75 0)"/>
      <use xlink:href="#DejaVuSans-79" transform="translate(974.958984 0)"/>
     </g>
    </g>
   </g>
   <g id="line2d_13">
    <path d="M 84.332727 510.987273 
L 95.334882 510.915408 
L 100.224729 510.626193 
L 108.781961 510.581779 
L 122.229039 510.674789 
L 145.455811 510.460681 
L 152.790581 510.208543 
L 156.457966 510.171134 
L 162.570275 510.22052 
L 163.792736 510.07011 
L 165.015198 509.665063 
L 166.23766 508.956984 
L 169.905045 506.279321 
L 171.127506 505.68923 
L 172.349968 505.33227 
L 173.57243 505.179396 
L 174.794891 505.20326 
L 176.017353 505.407734 
L 177.239815 505.819745 
L 178.462277 506.444932 
L 182.129662 508.768511 
L 183.352123 509.241762 
L 189.464432 510.237588 
L 190.686893 509.960423 
L 193.131817 508.637068 
L 194.354278 508.213713 
L 195.57674 508.181794 
L 196.799202 508.472079 
L 200.466587 509.720854 
L 201.689048 509.935337 
L 204.133972 510.051767 
L 215.136127 509.881941 
L 218.803512 509.512809 
L 221.248435 509.59 
L 226.138282 510.061933 
L 231.028129 510.141904 
L 235.917975 510.121029 
L 238.362899 509.841981 
L 240.807822 509.416875 
L 242.030284 509.311536 
L 244.475207 509.450716 
L 249.365054 510.022605 
L 253.032439 510.120907 
L 259.144747 510.197879 
L 266.479517 510.286039 
L 278.704134 510.143249 
L 279.926596 510.039466 
L 281.149058 509.673577 
L 282.371519 508.866764 
L 286.038904 505.08494 
L 287.261366 504.197619 
L 288.483828 503.654204 
L 289.706289 503.499989 
L 290.928751 503.780124 
L 292.151213 504.45838 
L 295.818598 507.257913 
L 297.041059 507.944297 
L 298.263521 508.431074 
L 300.708444 508.979046 
L 304.375829 509.355661 
L 310.488138 509.732616 
L 315.377985 509.738543 
L 320.267831 509.64897 
L 325.157678 509.719955 
L 336.159833 509.352405 
L 344.717065 509.242527 
L 350.829373 508.704436 
L 354.496758 508.624545 
L 355.71922 508.511575 
L 356.941682 508.241614 
L 358.164143 507.751982 
L 360.609067 506.636233 
L 361.831528 506.47134 
L 363.05399 506.675332 
L 366.721375 507.991971 
L 367.943837 508.236695 
L 369.166298 508.311628 
L 370.38876 508.185231 
L 371.611222 507.82313 
L 375.278607 506.057273 
L 376.501068 505.753472 
L 377.72353 505.730494 
L 382.613377 506.332852 
L 385.0583 506.589446 
L 388.725685 507.238259 
L 391.170609 507.425839 
L 392.39307 507.40257 
L 393.615532 507.261861 
L 394.837994 506.95676 
L 396.060455 506.425222 
L 397.282917 505.631602 
L 400.950302 502.69215 
L 402.172764 501.24233 
L 403.395225 498.469121 
L 405.840149 489.800805 
L 407.06261 486.94159 
L 408.285072 486.504997 
L 409.507534 487.936952 
L 411.952457 491.966861 
L 415.619842 496.945694 
L 418.064766 500.779261 
L 419.287227 502.35643 
L 420.509689 503.514386 
L 421.732151 504.264454 
L 422.954612 504.683331 
L 424.177074 504.841601 
L 425.399536 504.783442 
L 429.066921 504.201804 
L 430.289382 504.220306 
L 432.734306 504.578424 
L 436.401691 505.200494 
L 438.846614 505.307402 
L 440.069076 505.257416 
L 441.291537 505.02666 
L 442.513999 504.309865 
L 443.736461 502.643677 
L 444.958922 499.578071 
L 446.181384 495.032962 
L 449.848769 478.692306 
L 452.293693 467.156581 
L 453.516154 463.742753 
L 454.738616 464.454131 
L 455.961078 469.270148 
L 458.406001 483.71051 
L 459.628463 489.619051 
L 460.850924 493.648609 
L 462.073386 496.058828 
L 463.295848 497.411106 
L 464.518309 498.145226 
L 465.740771 498.31774 
L 466.963233 497.72236 
L 469.408156 494.955297 
L 470.630618 494.147462 
L 471.853079 494.298806 
L 473.075541 495.175155 
L 476.742926 498.547516 
L 477.965388 499.387677 
L 479.187849 500.032583 
L 480.410311 500.503717 
L 482.855234 501.10196 
L 486.52262 501.65622 
L 488.967543 501.891128 
L 490.190005 501.86949 
L 495.079851 501.383436 
L 496.302313 501.385161 
L 497.524775 501.131152 
L 498.747236 500.404122 
L 501.19216 498.240901 
L 502.414621 497.590628 
L 503.637083 497.424467 
L 510.971853 498.120722 
L 512.194315 498.02777 
L 513.416776 497.14698 
L 514.639238 495.189672 
L 515.8617 492.688875 
L 517.084161 490.794892 
L 518.306623 490.336597 
L 519.529085 491.193223 
L 520.751547 492.501794 
L 521.974008 493.311271 
L 523.19647 493.11631 
L 524.418932 491.973404 
L 526.863855 488.669962 
L 528.086317 487.736312 
L 529.308778 487.993327 
L 530.53124 489.506567 
L 534.198625 496.387382 
L 535.421087 497.609553 
L 536.643548 498.001366 
L 539.088472 497.708477 
L 540.310933 497.553473 
L 541.533395 496.992221 
L 542.755857 495.553485 
L 543.978318 493.504103 
L 545.20078 491.884397 
L 546.423242 491.653897 
L 547.645703 492.946756 
L 550.090627 497.404913 
L 551.313088 499.205508 
L 552.53555 500.375691 
L 553.758012 501.015225 
L 554.980474 501.321444 
L 556.202935 501.453205 
L 557.425397 500.978426 
L 558.647859 496.876459 
L 559.87032 481.77666 
L 561.092782 448.379341 
L 563.537705 352.57091 
L 564.760167 326.565454 
L 565.982629 330.123809 
L 567.20509 356.975927 
L 569.650014 427.288185 
L 570.872475 452.515313 
L 572.094937 468.601595 
L 573.317399 478.009429 
L 574.53986 483.659036 
L 575.762322 487.610146 
L 576.984784 490.832067 
L 578.207245 493.555771 
L 579.429707 495.740211 
L 580.652169 497.37338 
L 581.87463 498.540467 
L 583.097092 499.352693 
L 584.319554 499.865044 
L 585.542015 500.082012 
L 589.209401 500.135897 
L 590.431862 500.541149 
L 595.321709 502.95583 
L 596.544171 503.309177 
L 598.989094 503.641394 
L 602.656479 503.896753 
L 607.546326 504.437418 
L 611.213711 504.847405 
L 616.103557 505.463667 
L 619.770942 505.672797 
L 627.105713 505.730794 
L 633.218021 506.242403 
L 639.330329 506.529011 
L 649.110023 507.074198 
L 665.002025 507.539132 
L 667.446948 507.287354 
L 669.891871 506.965285 
L 671.114333 506.949207 
L 673.559256 507.218201 
L 677.226641 507.638794 
L 679.671565 507.698819 
L 687.006335 507.449648 
L 691.896182 507.655751 
L 695.563567 507.798704 
L 704.120798 508.252306 
L 713.900492 508.444482 
L 717.567877 508.56056 
L 723.680185 508.786511 
L 728.570032 508.810866 
L 733.459879 508.832082 
L 743.239572 509.247001 
L 756.68665 509.548915 
L 778.690961 509.777923 
L 812.919888 510.068186 
L 816.587273 510.059967 
L 816.587273 510.059967 
" clip-path="url(#pee0af2d9c9)" style="fill: none; stroke: #0000ff; stroke-width: 1.5; stroke-linecap: square"/>
   </g>
   <g id="line2d_14">
    <path d="M 90.329635 234.351096 
L 90.329635 234.351107 
L 295.243307 234.34522 
L 386.552393 234.297579 
L 386.552393 234.287763 
L 388.265795 234.264931 
L 391.699446 234.288061 
L 391.699446 234.284193 
L 405.085645 234.260102 
L 405.085645 234.21186 
L 405.768268 234.05411 
L 405.768268 233.898634 
L 406.108357 233.913684 
L 406.108357 233.669914 
L 406.448935 233.726047 
L 406.448935 233.3967 
L 406.784867 233.480312 
L 406.784867 233.139518 
L 407.124956 233.317022 
L 407.124956 232.932482 
L 407.457466 233.17769 
L 407.457466 232.803214 
L 407.788264 233.108672 
L 407.788264 232.702067 
L 408.118328 233.014752 
L 408.118328 232.672965 
L 408.448393 233.046367 
L 408.448393 232.6697 
L 408.778947 233.072575 
L 408.778947 232.699345 
L 409.1095 233.048141 
L 409.1095 232.712211 
L 409.439076 233.037836 
L 409.439076 232.628262 
L 409.768652 233.038752 
L 409.768652 232.661404 
L 410.097983 232.959278 
L 410.097983 232.62882 
L 410.428047 233.042135 
L 410.428047 232.71338 
L 410.758601 233.127702 
L 410.758601 232.778313 
L 411.088666 233.127858 
L 411.088666 232.711167 
L 411.419219 233.013802 
L 411.419219 232.662458 
L 411.749284 233.047684 
L 411.749284 232.730513 
L 412.08595 233.17626 
L 412.08595 232.965731 
L 413.0803 233.223163 
L 413.414521 233.514562 
L 413.414521 233.285688 
L 413.748009 233.564462 
L 413.748009 233.363839 
L 414.083208 233.593831 
L 414.083208 233.404503 
L 414.415962 233.628618 
L 414.415962 233.454944 
L 414.749449 233.690496 
L 414.749449 233.496375 
L 415.083426 233.702879 
L 415.083426 233.526712 
L 415.416669 233.709592 
L 415.416669 233.488318 
L 415.751624 233.687282 
L 415.751624 233.467983 
L 416.0856 233.639924 
L 416.0856 233.442214 
L 416.419577 233.612859 
L 416.419577 233.404224 
L 416.75282 233.618676 
L 416.75282 233.365456 
L 417.091197 233.523338 
L 417.091197 233.356579 
L 417.425418 233.538344 
L 417.425418 233.294471 
L 417.75915 233.555872 
L 417.75915 233.359929 
L 418.093127 233.575988 
L 418.093127 233.377705 
L 418.428326 233.627552 
L 418.428326 233.402193 
L 418.764992 233.620877 
L 418.764992 233.33176 
L 419.10068 233.549193 
L 419.10068 233.366229 
L 419.436857 233.621041 
L 419.436857 233.410361 
L 419.776701 233.702768 
L 419.776701 233.513299 
L 420.1141 233.689842 
L 420.1141 233.474 
L 420.452478 233.684707 
L 420.452478 233.510035 
L 420.792811 233.705399 
L 420.792811 233.537824 
L 421.133633 233.730658 
L 421.133633 233.510156 
L 421.4747 233.679536 
L 421.4747 233.50116 
L 421.815767 233.671865 
L 421.815767 233.496467 
L 422.162213 233.717203 
L 422.162213 233.560131 
L 422.503524 233.743904 
L 422.503524 233.594806 
L 422.844591 233.771219 
L 422.844591 233.622274 
L 423.185902 233.781299 
L 423.185902 233.589083 
L 423.527213 233.747558 
L 423.527213 233.611499 
L 423.868769 233.753491 
L 423.868769 233.619008 
L 424.21008 233.812955 
L 424.21008 233.698111 
L 424.551881 233.840623 
L 424.551881 233.706894 
L 424.893192 233.858845 
L 424.893192 233.663119 
L 425.234748 233.78178 
L 425.234748 233.651758 
L 425.576304 233.807811 
L 425.576304 233.670488 
L 425.918104 233.859562 
L 425.918104 233.734314 
L 426.25966 233.877177 
L 426.25966 233.748463 
L 426.94326 233.887909 
L 426.94326 233.766318 
L 427.290439 233.895172 
L 427.290439 233.78233 
L 427.973795 233.919332 
L 427.973795 233.84287 
L 428.31584 233.970983 
L 428.31584 233.87991 
L 428.65764 233.955922 
L 428.65764 233.826469 
L 428.999196 233.887636 
L 428.999196 233.759161 
L 429.340997 233.864898 
L 429.340997 233.75705 
L 430.024108 233.891833 
L 430.024108 233.768014 
L 430.707709 233.954986 
L 430.707709 233.830496 
L 431.053665 233.939857 
L 431.053665 233.862169 
L 431.736777 233.899619 
L 431.736777 233.804796 
L 432.425267 233.878228 
L 432.425267 233.782015 
L 433.450179 233.952094 
L 433.450179 233.909099 
L 433.791735 233.994846 
L 433.791735 233.912447 
L 434.81738 233.990815 
L 434.81738 233.920641 
L 435.501225 233.990924 
L 435.501225 233.958254 
L 435.843026 234.029423 
L 435.843026 233.961643 
L 436.868916 233.957423 
L 436.868916 233.980026 
L 437.557895 234.056386 
L 437.557895 234.013945 
L 438.583785 234.138088 
L 438.583785 234.084569 
L 439.95123 234.11578 
L 439.95123 234.070935 
L 441.661699 234.13286 
L 441.661699 234.063991 
L 442.693212 234.151934 
L 442.693212 234.092718 
L 443.719102 234.060652 
L 443.719102 234.100291 
L 444.403191 234.174248 
L 444.403191 234.145102 
L 447.131481 234.196869 
L 447.131481 234.180129 
L 448.472277 234.17372 
L 450.129446 234.264581 
L 450.129446 234.25792 
L 452.102255 234.226158 
L 452.102255 234.209055 
L 453.098317 234.037006 
L 453.098317 233.794549 
L 453.426426 233.796449 
L 453.426426 233.545246 
L 453.756735 233.604343 
L 453.756735 233.370496 
L 454.085332 233.560043 
L 454.085332 233.152861 
L 454.413441 233.278092 
L 454.413441 232.795475 
L 454.742283 233.012174 
L 454.742283 232.637686 
L 455.070636 232.978778 
L 455.070636 232.478367 
L 455.39899 232.883112 
L 455.39899 232.197827 
L 455.726854 232.555882 
L 455.726854 232.118127 
L 456.054963 232.630742 
L 456.054963 232.2298 
L 456.382827 232.892675 
L 456.382827 232.471757 
L 456.711914 232.889802 
L 456.711914 232.329971 
L 457.039778 232.742635 
L 457.039778 232.221539 
L 457.367642 232.665891 
L 457.367642 232.317968 
L 457.700641 232.920491 
L 457.700641 232.543332 
L 458.029238 232.968076 
L 458.029238 232.505502 
L 458.357347 232.945522 
L 458.357347 232.56842 
L 458.685456 232.974995 
L 458.685456 232.779514 
L 459.014053 233.242968 
L 459.014053 232.898852 
L 459.342651 233.284816 
L 459.342651 232.931662 
L 459.672716 233.209599 
L 459.672716 232.834208 
L 460.001558 233.158568 
L 460.001558 232.822138 
L 460.331134 233.161589 
L 460.331134 232.742888 
L 460.660465 233.067547 
L 460.660465 232.669643 
L 460.99004 233.018274 
L 460.99004 232.72427 
L 461.319861 233.154922 
L 461.319861 232.870555 
L 461.65017 233.273172 
L 461.65017 233.007803 
L 461.979745 233.310018 
L 461.979745 233.028771 
L 462.315433 233.344049 
L 462.315433 233.135033 
L 462.650632 233.414794 
L 462.650632 233.195002 
L 462.980941 233.520952 
L 462.980941 233.305879 
L 463.312473 233.491348 
L 463.312473 233.185674 
L 463.977003 233.16511 
L 463.977003 233.21177 
L 464.30829 233.349063 
L 464.640066 233.618022 
L 464.640066 233.421611 
L 464.972576 233.637254 
L 464.972576 233.395426 
L 465.304108 233.598964 
L 465.304108 233.453427 
L 465.635639 233.643632 
L 465.635639 233.48881 
L 465.96766 233.725584 
L 465.96766 233.547281 
L 466.299436 233.739432 
L 466.299436 233.615143 
L 466.632435 233.774123 
L 466.632435 233.590343 
L 466.964944 233.796936 
L 466.964944 233.626637 
L 467.299165 233.76869 
L 467.299165 233.642379 
L 467.637054 233.846466 
L 467.637054 233.670715 
L 467.970297 233.790145 
L 467.970297 233.616273 
L 468.304518 233.748901 
L 468.304518 233.658303 
L 468.969048 233.730711 
L 469.301802 233.60377 
L 470.301776 233.879863 
L 470.301776 233.751808 
L 470.970218 233.910638 
L 470.970218 233.816064 
L 471.636948 233.980045 
L 471.636948 233.870691 
L 471.974103 233.974512 
L 471.974103 233.841952 
L 472.304901 233.923701 
L 472.304901 233.795162 
L 472.971632 233.965386 
L 472.971632 233.90894 
L 473.30243 234.034095 
L 473.30243 233.930454 
L 473.965738 233.976189 
L 473.965738 233.888413 
L 474.63149 233.968932 
L 474.63149 233.855596 
L 475.295531 233.987104 
L 475.295531 233.886022 
L 475.628286 233.997642 
L 475.628286 233.916108 
L 476.629237 233.877698 
L 476.629237 233.887263 
L 476.965659 234.000875 
L 476.965659 233.870362 
L 477.301836 233.966923 
L 477.301836 233.860172 
L 478.318924 233.907519 
L 478.318924 233.94039 
L 478.997879 234.06501 
L 478.997879 233.958053 
L 479.671944 234.029191 
L 479.671944 233.94511 
L 480.348944 234.057364 
L 480.348944 233.964887 
L 481.026921 234.006349 
L 481.026921 233.906302 
L 481.707343 234.037926 
L 481.707343 233.965776 
L 482.387276 234.076795 
L 482.387276 234.002916 
L 483.073566 234.037639 
L 483.073566 233.934632 
L 483.75301 233.94381 
L 484.435144 234.001254 
L 484.435144 234.019976 
L 484.776455 234.101768 
L 484.776455 234.008124 
L 485.454677 234.007692 
L 485.454677 233.920859 
L 486.137055 234.037881 
L 486.137055 233.97225 
L 486.817477 234.070094 
L 486.817477 234.024573 
L 487.158544 234.099258 
L 487.158544 234.021601 
L 488.533324 234.066219 
L 488.533324 233.996123 
L 489.215458 234.054105 
L 489.215458 233.998489 
L 490.238659 234.129935 
L 490.238659 234.07116 
L 491.262592 234.069531 
L 497.41842 234.131907 
L 497.41842 234.058957 
L 498.106177 234.117078 
L 498.106177 234.065912 
L 498.7888 234.140163 
L 498.7888 234.090684 
L 499.819824 234.153751 
L 499.819824 234.120807 
L 500.502447 234.135661 
L 500.502447 234.071556 
L 501.18458 234.076843 
L 501.18458 234.00185 
L 501.865736 234.058122 
L 501.865736 233.984193 
L 502.537356 234.051874 
L 502.537356 233.99144 
L 503.209466 234.083342 
L 503.209466 234.018962 
L 503.873752 234.047928 
L 503.873752 233.975169 
L 505.205257 234.15273 
L 505.205257 234.067068 
L 506.202786 234.125347 
L 506.202786 234.049121 
L 506.868294 234.080662 
L 506.868294 234.010776 
L 507.202515 234.093033 
L 507.202515 233.989321 
L 508.555291 234.109533 
L 508.555291 234.049235 
L 509.231557 234.129347 
L 509.231557 234.042334 
L 509.910267 234.06602 
L 509.910267 234.004919 
L 510.9298 234.111234 
L 510.9298 234.094236 
L 511.951289 234.171783 
L 511.951289 234.096125 
L 512.291623 234.143578 
L 512.291623 234.08017 
L 513.314823 234.053646 
L 514.678846 234.118081 
L 514.678846 234.057631 
L 516.381979 234.129204 
L 516.381979 234.082791 
L 517.389532 234.214264 
L 517.389532 234.17298 
L 520.696536 234.211767 
L 520.696536 234.182274 
L 523.005521 234.189417 
L 523.672985 234.19255 
L 524.998623 234.070162 
L 526.995636 234.104882 
L 527.997566 234.141298 
L 532.335838 233.861276 
L 535.021097 233.957604 
L 535.021097 233.913399 
L 536.370206 233.973138 
L 536.370206 234.034506 
L 537.386072 234.094892 
L 537.386072 234.027612 
L 540.112895 233.95691 
L 540.112895 233.922833 
L 540.793806 233.897718 
L 540.793806 233.750059 
L 541.13145 233.647113 
L 544.49053 233.912423 
L 544.49053 233.823577 
L 544.823284 233.944703 
L 544.823284 233.86796 
L 545.491237 233.943641 
L 545.491237 233.837782 
L 545.826436 233.892552 
L 545.826436 233.765071 
L 546.158701 233.826189 
L 546.158701 233.68722 
L 546.490966 233.758514 
L 546.490966 233.609058 
L 546.822009 233.724212 
L 546.822009 233.546587 
L 547.482627 233.467523 
L 547.812692 233.522324 
L 548.142512 233.721513 
L 548.142512 233.605817 
L 548.478689 233.761374 
L 548.478689 233.588778 
L 548.808753 233.706741 
L 548.808753 233.564671 
L 549.138574 233.689537 
L 549.138574 233.568552 
L 549.468394 233.729439 
L 549.468394 233.624766 
L 549.799925 233.756462 
L 549.799925 233.615752 
L 550.131213 233.733199 
L 550.131213 233.589215 
L 551.125318 233.646884 
L 551.793271 233.814772 
L 551.793271 233.694497 
L 552.79569 233.810321 
L 553.476112 233.913712 
L 553.476112 233.792828 
L 554.145532 233.89845 
L 554.145532 233.840545 
L 557.190929 233.931813 
L 561.283486 233.855835 
L 561.283486 233.671751 
L 561.624308 233.610463 
L 561.624308 233.025782 
L 561.965131 232.704445 
L 561.965131 230.8961 
L 562.305953 230.082203 
L 562.305953 226.390106 
L 562.644575 225.125106 
L 562.644575 218.982527 
L 562.978796 217.995846 
L 562.978796 208.402035 
L 563.307638 206.841248 
L 563.307638 192.719675 
L 563.641126 193.11907 
L 563.641126 174.913232 
L 563.968745 178.099538 
L 563.968745 154.195166 
L 564.295876 161.138462 
L 564.295876 133.349787 
L 564.622518 145.139836 
L 564.622518 112.668736 
L 564.94916 132.89225 
L 564.94916 95.183867 
L 565.275557 117.047552 
L 565.275557 76.786961 
L 565.601954 103.158338 
L 565.601954 63.06744 
L 565.928596 96.28767 
L 565.928596 56.651884 
L 566.254749 96.320013 
L 566.254749 56.80134 
L 566.581146 95.103921 
L 566.581146 50.513826 
L 566.907788 89.482253 
L 566.907788 49.932727 
L 567.23394 89.180645 
L 567.23394 51.668882 
L 567.560338 97.314843 
L 567.560338 59.847566 
L 567.886735 97.250867 
L 567.886735 63.000118 
L 568.213132 99.958251 
L 568.213132 66.629332 
L 568.544908 105.955981 
L 568.544908 73.119551 
L 568.871306 112.006546 
L 568.871306 76.188317 
L 569.197703 114.554454 
L 569.197703 85.677923 
L 569.524345 121.114382 
L 569.524345 92.477024 
L 569.850986 131.148079 
L 569.850986 105.954145 
L 570.177384 136.981623 
L 570.177384 111.696743 
L 570.504025 142.477534 
L 570.504025 115.692295 
L 570.830667 140.436506 
L 570.830667 119.755559 
L 571.157309 145.441028 
L 571.157309 127.200512 
L 571.503755 154.960828 
L 571.503755 134.803897 
L 571.830641 158.293748 
L 571.830641 135.81416 
L 572.157527 154.836258 
L 572.157527 134.559879 
L 572.484413 155.441203 
L 572.484413 135.780547 
L 572.811055 160.963968 
L 572.811055 143.873257 
L 573.13843 165.938155 
L 573.13843 150.218424 
L 573.470695 170.664505 
L 573.470695 157.448023 
L 573.798071 176.481901 
L 573.798071 160.353587 
L 574.125201 178.01083 
L 574.125201 161.60896 
L 574.452088 175.768809 
L 574.452088 160.349552 
L 574.781419 177.777938 
L 574.781419 164.297471 
L 575.10855 181.005011 
L 575.10855 168.924321 
L 575.436169 184.048678 
L 575.436169 170.552267 
L 575.7633 185.387502 
L 575.7633 174.115133 
L 576.090675 187.547036 
L 576.090675 175.688646 
L 576.418295 190.376256 
L 576.418295 177.5514 
L 576.74567 189.800476 
L 576.74567 177.46133 
L 577.07329 190.265883 
L 577.07329 178.345055 
L 577.40091 191.224473 
L 577.40091 181.328683 
L 577.728529 194.138984 
L 577.728529 184.268408 
L 578.056394 196.418925 
L 578.056394 187.71653 
L 578.389148 199.160849 
L 578.389148 190.064671 
L 578.717501 200.394524 
L 578.717501 191.636762 
L 579.04561 201.30486 
L 579.04561 192.600212 
L 579.378364 202.493173 
L 579.378364 193.793453 
L 579.706472 203.120982 
L 579.706472 196.237139 
L 580.034581 204.702414 
L 580.034581 197.032237 
L 580.362934 206.43917 
L 580.362934 199.552935 
L 580.692266 207.019725 
L 580.692266 199.986293 
L 581.020619 208.447501 
L 581.020619 202.153511 
L 581.349216 210.021559 
L 581.349216 203.422181 
L 581.678059 211.353365 
L 581.678059 205.063505 
L 582.006656 212.061399 
L 582.006656 206.569599 
L 582.335743 213.68447 
L 582.335743 208.104411 
L 582.664096 214.781525 
L 582.664096 209.048807 
L 582.992938 214.264018 
L 582.992938 209.074504 
L 583.326915 214.68639 
L 583.326915 209.55144 
L 583.657713 215.523873 
L 583.657713 211.112197 
L 583.986555 216.895579 
L 583.986555 212.239163 
L 584.315642 217.423317 
L 584.315642 213.240927 
L 584.644973 218.156782 
L 584.644973 213.548979 
L 584.974793 218.460323 
L 584.974793 214.899224 
L 585.304369 219.506306 
L 585.304369 215.285699 
L 585.634189 219.897914 
L 585.634189 216.488621 
L 585.964009 220.612551 
L 585.964009 216.947786 
L 586.293829 221.389361 
L 586.293829 218.261425 
L 586.623405 221.95954 
L 586.623405 218.381843 
L 586.953959 222.010149 
L 586.953959 218.916843 
L 587.283779 222.307881 
L 587.283779 219.557174 
L 587.614088 223.245309 
L 587.614088 220.615006 
L 587.943908 224.114924 
L 587.943908 221.247681 
L 588.279841 224.050066 
L 588.279841 221.407179 
L 588.61015 224.357154 
L 588.61015 221.705032 
L 588.94486 224.894939 
L 588.94486 222.589747 
L 589.275413 225.230797 
L 589.275413 222.863254 
L 589.606945 225.638309 
L 589.606945 223.168021 
L 589.937988 225.768591 
L 589.937988 223.785285 
L 590.268541 226.169527 
L 590.268541 223.556878 
L 590.598361 226.089701 
L 590.598361 223.97408 
L 590.927937 226.091352 
L 590.927937 224.191807 
L 591.257513 226.719757 
L 591.257513 224.674223 
L 591.586844 227.054576 
L 591.586844 225.079112 
L 591.916664 227.328107 
L 591.916664 225.30618 
L 592.245995 227.453671 
L 592.245995 225.593544 
L 592.577038 227.867929 
L 592.577038 225.966116 
L 592.907347 228.02714 
L 592.907347 226.297844 
L 593.242546 228.218388 
L 593.242546 226.249502 
L 593.573344 228.105811 
L 593.573344 226.565011 
L 593.904876 228.140746 
L 593.904876 226.445196 
L 594.236163 228.380642 
L 594.236163 226.453938 
L 594.567939 228.064276 
L 594.567939 226.426432 
L 594.899471 228.057893 
L 594.899471 226.250903 
L 595.231002 228.241074 
L 595.231002 226.750901 
L 595.562778 228.522884 
L 595.562778 227.132062 
L 595.896266 229.053198 
L 595.896266 227.407464 
L 596.230242 229.114743 
L 596.230242 227.577649 
L 596.565686 229.111868 
L 596.565686 227.405821 
L 596.89844 229.120091 
L 596.89844 227.705242 
L 597.231928 229.286135 
L 597.231928 227.96404 
L 597.565171 229.54756 
L 597.565171 228.276934 
L 597.898169 229.592851 
L 597.898169 228.438773 
L 598.236791 229.740849 
L 598.236791 228.552157 
L 598.575902 229.897456 
L 598.575902 228.67907 
L 598.910367 229.858845 
L 598.910367 228.643284 
L 599.248989 229.990526 
L 599.248989 228.673876 
L 599.585166 229.855239 
L 599.585166 228.647054 
L 599.918898 229.946252 
L 599.918898 228.711829 
L 600.253608 229.929354 
L 600.253608 228.975167 
L 600.590763 230.297098 
L 600.590763 228.93738 
L 600.925962 230.149302 
L 600.925962 229.293235 
L 601.260428 230.389682 
L 601.260428 229.469425 
L 601.596849 230.913313 
L 601.596849 229.949195 
L 601.933515 230.930985 
L 601.933515 229.917173 
L 602.268959 230.829978 
L 602.268959 229.785742 
L 602.605625 230.852211 
L 602.605625 229.994101 
L 602.940579 231.028982 
L 602.940579 230.145788 
L 603.283113 231.235469 
L 603.283113 230.324965 
L 603.620023 231.289551 
L 603.620023 230.491171 
L 603.959134 231.388153 
L 603.959134 230.5949 
L 604.296289 231.488073 
L 604.296289 230.608884 
L 604.634177 231.49889 
L 604.634177 230.628479 
L 604.975 231.340675 
L 604.975 230.546184 
L 605.315089 231.351728 
L 605.315089 230.551298 
L 605.661779 231.499378 
L 605.661779 230.684422 
L 606.005535 231.495661 
L 606.005535 230.81562 
L 606.345624 231.634947 
L 606.345624 230.825467 
L 606.686202 231.729648 
L 606.686202 231.048201 
L 607.027024 231.828992 
L 607.027024 231.019334 
L 607.366868 231.856401 
L 607.366868 231.0814 
L 607.705001 231.734314 
L 607.705001 230.945796 
L 608.044357 231.75483 
L 608.044357 231.030091 
L 608.389824 231.797969 
L 608.389824 231.250373 
L 608.727957 232.011036 
L 608.727957 231.384484 
L 609.069024 232.08627 
L 609.069024 231.525336 
L 609.407401 232.168335 
L 609.407401 231.507464 
L 609.746268 232.110495 
L 609.746268 231.477952 
L 610.085379 232.07262 
L 610.085379 231.384218 
L 610.42669 232.035701 
L 610.42669 231.444881 
L 610.765801 232.07455 
L 610.765801 231.420938 
L 611.106868 232.074184 
L 611.106868 231.424225 
L 611.448179 232.014476 
L 611.448179 231.385823 
L 611.788023 232.004479 
L 611.788023 231.385041 
L 612.12909 232.068917 
L 612.12909 231.494365 
L 612.470157 232.167982 
L 612.470157 231.583707 
L 612.810979 232.232109 
L 612.810979 231.672984 
L 613.15229 232.313361 
L 613.15229 231.786103 
L 613.498736 232.383621 
L 613.498736 231.819154 
L 613.840047 232.417476 
L 613.840047 231.891854 
L 614.18087 232.446614 
L 614.18087 231.949874 
L 614.521937 232.528849 
L 614.521937 231.965663 
L 614.863248 232.453963 
L 614.863248 231.95518 
L 615.20407 232.490893 
L 615.20407 231.926221 
L 615.545381 232.418635 
L 615.545381 231.950227 
L 615.886937 232.451711 
L 615.886937 231.960808 
L 616.22776 232.530156 
L 616.22776 232.067689 
L 616.569315 232.535625 
L 616.569315 232.033305 
L 616.910627 232.517749 
L 616.910627 232.055266 
L 617.252182 232.609867 
L 617.252182 232.241427 
L 617.598873 232.695405 
L 617.598873 232.151243 
L 617.940184 232.655659 
L 617.940184 232.151683 
L 618.281495 232.549267 
L 618.281495 232.15186 
L 618.628185 232.652552 
L 618.628185 232.1711 
L 618.969497 232.68112 
L 618.969497 232.304348 
L 619.311052 232.72499 
L 619.311052 232.34492 
L 619.652364 232.805311 
L 619.652364 232.438211 
L 619.993919 232.813299 
L 619.993919 232.454496 
L 620.335231 232.879112 
L 620.335231 232.562409 
L 620.676542 232.915478 
L 620.676542 232.51501 
L 621.018098 232.904333 
L 621.018098 232.53935 
L 621.359654 232.901686 
L 621.359654 232.534435 
L 621.700965 232.938944 
L 621.700965 232.578678 
L 622.042276 232.992832 
L 622.042276 232.585682 
L 622.385055 232.92602 
L 622.385055 232.601014 
L 622.726855 232.983588 
L 622.726855 232.536162 
L 623.068411 232.915907 
L 623.068411 232.506879 
L 623.409966 232.887862 
L 623.409966 232.542407 
L 623.756901 232.948241 
L 623.756901 232.588017 
L 624.098212 233.018264 
L 624.098212 232.660512 
L 624.445391 232.967284 
L 624.445391 232.702864 
L 624.786703 233.081881 
L 624.786703 232.817554 
L 625.128259 233.196083 
L 625.128259 232.884444 
L 625.469814 233.14862 
L 625.469814 232.764487 
L 625.81137 233.063138 
L 625.81137 232.684139 
L 626.152681 233.041413 
L 626.152681 232.743015 
L 626.494237 233.142923 
L 626.494237 232.759714 
L 626.835793 233.118968 
L 626.835793 232.800362 
L 627.177104 233.130451 
L 627.177104 232.744799 
L 627.51866 233.100216 
L 627.51866 232.717803 
L 627.860216 233.024846 
L 627.860216 232.705567 
L 628.202016 233.096029 
L 628.202016 232.757143 
L 628.543572 233.140641 
L 628.543572 232.856898 
L 628.890507 233.162699 
L 628.890507 232.870282 
L 629.232062 233.234519 
L 629.232062 232.956448 
L 629.573618 233.264769 
L 629.573618 232.935759 
L 629.916152 233.238211 
L 629.916152 232.954719 
L 630.263087 233.231064 
L 630.263087 232.935777 
L 630.604642 233.284419 
L 630.604642 232.980605 
L 630.946198 233.2705 
L 630.946198 233.026295 
L 631.287754 233.318761 
L 631.287754 233.070323 
L 631.62931 233.391105 
L 631.62931 233.156461 
L 631.970866 233.40831 
L 631.970866 233.142694 
L 632.312421 233.410824 
L 632.312421 233.136055 
L 632.653733 233.369103 
L 632.653733 233.114581 
L 632.995288 233.400722 
L 632.995288 233.080336 
L 633.336844 233.320575 
L 633.336844 233.060362 
L 633.679622 233.341412 
L 633.679622 233.079477 
L 634.026557 233.411708 
L 634.026557 233.190294 
L 634.368113 233.436814 
L 634.368113 233.203605 
L 634.709669 233.454565 
L 634.709669 233.25535 
L 635.051224 233.494914 
L 635.051224 233.277533 
L 635.393025 233.527816 
L 635.393025 233.27689 
L 635.740204 233.474316 
L 635.740204 233.171899 
L 636.081515 233.425269 
L 636.081515 233.16494 
L 636.423071 233.442617 
L 636.423071 233.224091 
L 636.764627 233.537029 
L 636.764627 233.341416 
L 637.106183 233.577452 
L 637.106183 233.314144 
L 637.447738 233.540233 
L 637.447738 233.282972 
L 637.789294 233.479346 
L 637.789294 233.282947 
L 638.13085 233.546612 
L 638.13085 233.290151 
L 638.472406 233.536812 
L 638.472406 233.360079 
L 638.813962 233.576708 
L 638.813962 233.355414 
L 639.160896 233.617715 
L 639.160896 233.406413 
L 639.502452 233.580801 
L 639.502452 233.309451 
L 639.844252 233.502964 
L 639.844252 233.239544 
L 640.185564 233.454943 
L 640.185564 233.234403 
L 640.527364 233.507499 
L 640.527364 233.283257 
L 640.86892 233.549878 
L 640.86892 233.339225 
L 641.217566 233.569796 
L 641.217566 233.344968 
L 641.559121 233.550539 
L 641.559121 233.339699 
L 641.900677 233.572676 
L 641.900677 233.375413 
L 642.242233 233.583607 
L 642.242233 233.418811 
L 642.584033 233.61321 
L 642.584033 233.418818 
L 642.925589 233.612064 
L 642.925589 233.455994 
L 643.267145 233.657193 
L 643.267145 233.364269 
L 643.608701 233.564814 
L 643.608701 233.355212 
L 643.950257 233.539764 
L 643.950257 233.366861 
L 644.297436 233.664425 
L 644.297436 233.409866 
L 644.658306 233.638385 
L 644.658306 233.468958 
L 645.000107 233.633594 
L 645.000107 233.456029 
L 645.341907 233.689581 
L 645.341907 233.489521 
L 645.683463 233.649181 
L 645.683463 233.512466 
L 646.025018 233.695842 
L 646.025018 233.555987 
L 646.366819 233.753049 
L 646.366819 233.570247 
L 646.708864 233.731521 
L 646.708864 233.558455 
L 647.056043 233.707754 
L 647.056043 233.539847 
L 647.398087 233.73394 
L 647.398087 233.53116 
L 647.739888 233.707434 
L 647.739888 233.462383 
L 648.081688 233.62081 
L 648.081688 233.461147 
L 648.423488 233.673833 
L 648.423488 233.487011 
L 648.765289 233.739136 
L 648.765289 233.601421 
L 649.107333 233.775335 
L 649.107333 233.566764 
L 649.454512 233.772049 
L 649.454512 233.612564 
L 649.796557 233.758487 
L 649.796557 233.577274 
L 650.138358 233.785368 
L 650.138358 233.588974 
L 650.480402 233.740674 
L 650.480402 233.578084 
L 650.822203 233.747046 
L 650.822203 233.581871 
L 651.164003 233.764474 
L 651.164003 233.608236 
L 651.505803 233.78347 
L 651.505803 233.609788 
L 651.847603 233.76476 
L 651.847603 233.611694 
L 652.195027 233.769579 
L 652.195027 233.600267 
L 652.536827 233.768349 
L 652.536827 233.630298 
L 652.878628 233.794147 
L 652.878628 233.6317 
L 653.220428 233.802243 
L 653.220428 233.66349 
L 653.562228 233.792623 
L 653.562228 233.600354 
L 653.904273 233.74675 
L 653.904273 233.574328 
L 654.246318 233.728921 
L 654.246318 233.560092 
L 654.593497 233.754264 
L 654.593497 233.63883 
L 654.935297 233.807537 
L 654.935297 233.627916 
L 655.277097 233.804829 
L 655.277097 233.651347 
L 655.618898 233.797691 
L 655.618898 233.634844 
L 655.960454 233.803157 
L 655.960454 233.649098 
L 656.302254 233.81279 
L 656.302254 233.65922 
L 656.644054 233.811814 
L 656.644054 233.662463 
L 656.985854 233.833919 
L 656.985854 233.68202 
L 657.669699 233.871572 
L 657.669699 233.699286 
L 658.011255 233.836626 
L 658.011255 233.687866 
L 658.3533 233.820517 
L 658.3533 233.647914 
L 658.695345 233.802845 
L 658.695345 233.661765 
L 659.03739 233.811856 
L 659.03739 233.642555 
L 659.379434 233.81316 
L 659.379434 233.707216 
L 659.726613 233.849876 
L 659.726613 233.691976 
L 660.068658 233.864299 
L 660.068658 233.76449 
L 660.410459 233.8737 
L 660.410459 233.72953 
L 660.752503 233.880799 
L 660.752503 233.703057 
L 661.094548 233.807918 
L 661.094548 233.65335 
L 661.436593 233.789048 
L 661.436593 233.656406 
L 661.778393 233.830779 
L 661.778393 233.689195 
L 662.463461 233.842868 
L 662.463461 233.681314 
L 662.805261 233.841268 
L 662.805261 233.697495 
L 663.147306 233.816156 
L 663.147306 233.671301 
L 663.489351 233.834927 
L 663.489351 233.663781 
L 663.831395 233.833766 
L 663.831395 233.731191 
L 664.173196 233.873812 
L 664.173196 233.743466 
L 664.51524 233.899151 
L 664.51524 233.76413 
L 665.204709 233.873879 
L 665.204709 233.747469 
L 665.546754 233.876205 
L 665.546754 233.758374 
L 665.888798 233.883873 
L 665.888798 233.719462 
L 666.230843 233.847274 
L 666.230843 233.712789 
L 666.573132 233.818434 
L 666.573132 233.654933 
L 666.915177 233.815007 
L 666.915177 233.678643 
L 667.599267 233.864943 
L 667.599267 233.752177 
L 667.941067 233.875814 
L 667.941067 233.748169 
L 668.283112 233.878645 
L 668.283112 233.739545 
L 668.625401 233.850448 
L 668.625401 233.732224 
L 668.967446 233.862141 
L 668.967446 233.729288 
L 669.309491 233.869222 
L 669.309491 233.729528 
L 669.651291 233.866871 
L 669.651291 233.723912 
L 670.34027 233.897229 
L 670.34027 233.80285 
L 670.681826 233.939421 
L 670.681826 233.83686 
L 671.364938 233.921094 
L 671.364938 233.813953 
L 671.706738 233.900179 
L 671.706738 233.776851 
L 672.392783 233.859202 
L 672.392783 233.741723 
L 674.435517 233.916417 
L 674.435517 233.777706 
L 674.777317 233.906892 
L 674.777317 233.798939 
L 675.466052 233.923412 
L 675.466052 233.834531 
L 675.807608 233.948973 
L 675.807608 233.831134 
L 676.149653 233.949889 
L 676.149653 233.83707 
L 677.175542 233.811862 
L 677.175542 233.826651 
L 677.51881 233.962602 
L 677.51881 233.850283 
L 677.865744 233.950384 
L 677.865744 233.813896 
L 678.207789 233.917596 
L 678.207789 233.794933 
L 678.891879 233.939904 
L 678.891879 233.804823 
L 679.575968 233.944111 
L 679.575968 233.847848 
L 679.918013 233.960285 
L 679.918013 233.831085 
L 680.607481 233.909575 
L 680.607481 233.821535 
L 681.291571 233.948849 
L 681.291571 233.838575 
L 681.633616 233.932783 
L 681.633616 233.824146 
L 682.31795 233.930691 
L 682.31795 233.831743 
L 682.659995 233.950362 
L 682.659995 233.833336 
L 683.344084 233.939998 
L 683.344084 233.82882 
L 684.027929 233.962703 
L 684.027929 233.874184 
L 684.711774 233.977253 
L 684.711774 233.864261 
L 685.402221 233.992792 
L 685.402221 233.891618 
L 685.744265 234.004038 
L 685.744265 233.875373 
L 686.42811 233.947643 
L 686.42811 233.818128 
L 687.111955 233.959738 
L 687.111955 233.837859 
L 687.453756 233.976037 
L 687.453756 233.872237 
L 688.137601 233.992372 
L 688.137601 233.854458 
L 688.821446 233.967347 
L 688.821446 233.882754 
L 689.163491 234.003725 
L 689.163491 233.860597 
L 689.505535 233.957045 
L 689.505535 233.845728 
L 690.189625 233.985005 
L 690.189625 233.868698 
L 693.630121 233.844961 
L 694.313966 234.04724 
L 694.313966 233.920638 
L 694.656255 234.011492 
L 694.656255 233.904983 
L 694.999523 233.984935 
L 694.999523 233.861023 
L 695.688991 233.941622 
L 695.688991 233.868491 
L 696.374548 234.032321 
L 696.374548 233.959554 
L 696.716592 234.034175 
L 696.716592 233.911669 
L 697.400926 233.951278 
L 697.400926 233.871548 
L 697.743216 233.985738 
L 697.743216 233.868385 
L 698.427305 233.996349 
L 698.427305 233.892153 
L 698.770573 233.999933 
L 698.770573 233.894931 
L 699.454662 234.016024 
L 699.454662 233.913571 
L 700.139241 234.003193 
L 700.139241 233.916228 
L 700.829198 234.000863 
L 700.829198 233.886287 
L 701.514021 234.007607 
L 701.514021 233.912214 
L 701.85631 234.020021 
L 701.85631 233.905273 
L 702.1986 233.990517 
L 702.1986 233.850536 
L 702.883178 233.979549 
L 702.883178 233.88192 
L 703.225467 234.014467 
L 703.225467 233.922806 
L 703.923493 233.996142 
L 703.923493 233.90372 
L 704.613695 234.031694 
L 704.613695 233.965815 
L 704.955984 234.051521 
L 704.955984 233.946011 
L 705.640563 234.006435 
L 705.640563 233.90431 
L 706.330765 233.993104 
L 706.330765 233.873669 
L 707.015343 234.007437 
L 707.015343 233.899778 
L 707.357388 234.01666 
L 707.357388 233.908718 
L 708.041722 233.996319 
L 708.041722 233.884973 
L 708.7263 233.998014 
L 708.7263 233.907426 
L 709.410879 234.024944 
L 709.410879 233.923419 
L 709.753168 234.021645 
L 709.753168 233.929332 
L 710.437502 234.026413 
L 710.437502 233.910829 
L 711.129171 233.985084 
L 711.129171 233.87109 
L 711.813994 233.992932 
L 711.813994 233.913433 
L 712.499062 234.038594 
L 712.499062 233.982015 
L 713.184129 234.052797 
L 713.184129 233.955157 
L 713.869197 234.003981 
L 713.869197 233.926657 
L 714.554264 234.052973 
L 714.554264 233.962626 
L 715.240065 234.044434 
L 715.240065 233.957472 
L 715.930756 234.013028 
L 715.930756 233.915368 
L 716.61998 234.0156 
L 716.61998 233.938457 
L 717.303825 234.031631 
L 717.303825 233.938947 
L 717.98767 234.03484 
L 717.98767 233.95089 
L 718.67176 234.040785 
L 718.67176 233.958545 
L 719.355605 234.059277 
L 719.355605 233.989756 
L 719.697894 234.059022 
L 719.697894 233.96284 
L 720.382473 233.999198 
L 720.382473 233.926755 
L 721.066807 234.015861 
L 721.066807 233.925365 
L 721.756519 234.016694 
L 721.756519 233.915865 
L 722.440854 234.010626 
L 722.440854 233.917752 
L 723.125677 234.019873 
L 723.125677 233.92121 
L 723.810255 233.992142 
L 723.810255 233.913969 
L 724.495078 234.029775 
L 724.495078 233.950664 
L 725.179901 234.038221 
L 725.179901 233.939688 
L 725.86448 234.043845 
L 725.86448 233.967744 
L 726.206769 234.049709 
L 726.206769 233.934619 
L 726.896726 233.974465 
L 726.896726 233.881342 
L 727.581305 234.005463 
L 727.581305 233.927148 
L 728.266861 234.052546 
L 728.266861 233.966453 
L 728.610373 234.05119 
L 728.610373 233.96766 
L 729.637974 234.043421 
L 729.637974 233.957252 
L 730.322797 234.021642 
L 730.322797 233.9431 
L 731.350154 234.064803 
L 731.350154 233.982253 
L 732.04549 234.029075 
L 732.04549 233.934867 
L 732.730313 234.020601 
L 732.730313 233.935469 
L 733.414892 234.016019 
L 733.414892 233.943135 
L 734.099226 234.031785 
L 734.099226 233.9381 
L 734.78356 234.034378 
L 734.78356 233.916688 
L 735.46765 233.995139 
L 735.46765 233.934497 
L 735.809939 234.048961 
L 735.809939 233.967979 
L 736.495984 234.045772 
L 736.495984 233.957424 
L 737.185942 233.999513 
L 737.185942 233.889549 
L 738.212321 234.083009 
L 738.212321 233.984376 
L 738.554365 234.05675 
L 738.554365 233.947324 
L 739.238455 234.007909 
L 739.238455 233.911699 
L 739.922789 234.009342 
L 739.922789 233.942789 
L 740.606879 234.066532 
L 740.606879 233.987713 
L 741.290724 234.035959 
L 741.290724 233.944874 
L 741.979948 234.036679 
L 741.979948 233.945652 
L 742.664282 234.023068 
L 742.664282 233.922273 
L 743.348127 234.013008 
L 743.348127 233.932573 
L 744.032216 234.043942 
L 744.032216 233.970044 
L 744.716795 233.987071 
L 744.716795 233.920918 
L 745.401129 234.023089 
L 745.401129 233.903136 
L 746.427263 234.03872 
L 746.427263 233.946061 
L 747.116731 233.995116 
L 747.116731 233.890716 
L 747.801066 233.964236 
L 747.801066 233.863965 
L 748.4854 233.996139 
L 748.4854 233.915722 
L 748.827444 234.028901 
L 748.827444 233.921089 
L 749.511534 233.995076 
L 749.511534 233.869166 
L 750.195623 233.980223 
L 750.195623 233.857509 
L 750.879713 233.989833 
L 750.879713 233.838791 
L 751.221513 233.963131 
L 751.221513 233.846162 
L 751.905847 233.98271 
L 751.905847 233.8395 
L 752.264762 233.953531 
L 752.264762 233.815288 
L 752.607051 233.911143 
L 752.607051 233.784287 
L 752.949096 233.922981 
L 752.949096 233.792061 
L 753.291141 233.932449 
L 753.291141 233.794404 
L 753.976208 233.931725 
L 753.976208 233.757036 
L 754.318253 233.92299 
L 754.318253 233.790871 
L 754.661765 233.909585 
L 754.661765 233.789866 
L 755.004054 233.963536 
L 755.004054 233.845129 
L 755.346099 233.965565 
L 755.346099 233.837007 
L 755.687899 233.960547 
L 755.687899 233.785879 
L 756.372233 233.934644 
L 756.372233 233.810413 
L 756.714278 233.982091 
L 756.714278 233.839228 
L 757.404969 233.983433 
L 757.404969 233.857974 
L 757.747014 233.997015 
L 757.747014 233.850182 
L 758.089059 233.954891 
L 758.089059 233.824003 
L 758.431103 233.950609 
L 758.431103 233.816723 
L 759.114948 233.986458 
L 759.114948 233.866488 
L 759.798793 234.027987 
L 759.798793 233.908418 
L 760.141083 234.028541 
L 760.141083 233.911241 
L 760.483127 234.002717 
L 760.483127 233.894937 
L 761.167462 233.985733 
L 761.167462 233.84594 
L 761.851796 233.988065 
L 761.851796 233.882129 
L 762.5574 234.038312 
L 762.5574 233.925287 
L 763.241734 234.020797 
L 763.241734 233.905281 
L 763.584757 234.018919 
L 763.584757 233.902754 
L 764.269336 234.010198 
L 764.269336 233.910907 
L 764.955137 234.043784 
L 764.955137 233.954321 
L 765.297426 234.05485 
L 765.297426 233.952004 
L 765.98176 234.037739 
L 765.98176 233.937232 
L 766.66585 234.024645 
L 766.66585 233.922381 
L 767.350428 234.015192 
L 767.350428 233.90223 
L 767.698096 234.006096 
L 767.698096 233.904743 
L 768.382186 233.986722 
L 768.382186 233.873795 
L 769.066764 234.026638 
L 769.066764 233.958326 
L 769.409054 234.054874 
L 769.409054 233.937116 
L 770.093143 234.010148 
L 770.093143 233.927478 
L 770.777477 234.03639 
L 770.777477 233.946072 
L 771.120011 234.037986 
L 771.120011 233.946213 
L 771.80459 234.026699 
L 771.80459 233.945933 
L 772.489168 234.034172 
L 772.489168 233.962238 
L 773.178636 234.046579 
L 773.178636 233.966315 
L 773.862971 234.045442 
L 773.862971 233.947039 
L 774.20526 234.044948 
L 774.20526 233.954212 
L 774.889838 234.042134 
L 774.889838 233.950437 
L 775.574172 234.041687 
L 775.574172 233.974764 
L 776.258751 234.039502 
L 776.258751 233.955261 
L 776.943329 234.033722 
L 776.943329 233.960307 
L 777.627664 234.021323 
L 777.627664 233.956276 
L 778.31811 234.037848 
L 778.31811 233.968685 
L 779.002688 234.088891 
L 779.002688 234.018019 
L 779.687511 234.05851 
L 779.687511 233.971323 
L 780.378447 234.091382 
L 780.378447 234.005904 
L 781.062536 234.079218 
L 781.062536 233.993258 
L 781.747115 234.076504 
L 781.747115 234.00965 
L 782.431449 234.091417 
L 782.431449 234.022932 
L 783.121651 234.053993 
L 783.121651 233.985122 
L 783.806229 234.050103 
L 783.806229 233.972231 
L 784.491052 234.053813 
L 784.491052 233.981267 
L 784.833586 234.073333 
L 784.833586 233.951443 
L 785.518165 234.019675 
L 785.518165 233.943425 
L 786.202743 234.095389 
L 786.202743 234.005091 
L 786.886833 234.058824 
L 786.886833 233.982402 
L 787.571411 234.070063 
L 787.571411 234.009483 
L 788.26088 234.069163 
L 788.26088 233.990236 
L 788.945214 234.091657 
L 788.945214 234.018543 
L 789.629792 234.078349 
L 789.629792 233.998281 
L 790.313882 234.079054 
L 790.313882 233.993798 
L 790.997727 234.059997 
L 790.997727 233.991893 
L 791.681327 234.101445 
L 791.681327 234.001592 
L 792.023372 234.073374 
L 792.023372 233.966211 
L 792.699638 234.059243 
L 792.699638 233.9725 
L 795.05141 234.062353 
L 795.05141 233.979981 
L 796.053584 234.111004 
L 796.053584 234.037141 
L 797.051113 234.120434 
L 797.051113 234.053468 
L 797.714665 234.098704 
L 797.714665 234.022242 
L 798.714394 234.121066 
L 798.714394 234.04383 
L 799.376724 234.100909 
L 799.376724 234.034339 
L 800.040276 234.08722 
L 800.040276 234.00866 
L 801.034137 234.051424 
L 801.034137 233.999948 
L 801.697445 234.10859 
L 801.697445 234.016737 
L 802.359775 234.044044 
L 802.359775 233.967374 
L 803.023816 234.078057 
L 803.023816 234.010893 
L 803.694458 234.092903 
L 803.694458 234.034637 
L 804.365101 234.086219 
L 804.365101 234.028537 
L 805.363363 234.106827 
L 805.363363 234.036829 
L 806.047697 234.079217 
L 806.047697 233.99922 
L 806.713939 234.063354 
L 806.713939 233.994708 
L 807.382625 234.078877 
L 807.382625 234.01237 
L 808.051556 234.084298 
L 808.051556 233.986991 
L 808.72391 234.087811 
L 808.72391 234.000415 
L 809.392352 234.090623 
L 809.392352 234.018787 
L 810.061772 234.087613 
L 810.061772 234.046227 
L 810.730459 234.137645 
L 810.730459 234.069148 
L 811.399145 234.107928 
L 811.399145 234.04184 
L 812.067587 234.094953 
L 812.067587 234.015082 
L 812.737741 234.056976 
L 812.737741 234.003867 
L 813.762897 234.27164 
L 814.466791 234.341321 
L 814.466791 234.341175 
L 816.230558 234.346977 
L 816.230558 234.345238 
" clip-path="url(#pee0af2d9c9)" style="fill: none; stroke: #008000; stroke-width: 1.5; stroke-linecap: square"/>
   </g>
   <g id="patch_3">
    <path d="M 47.72 534.04 
L 47.72 26.88 
" style="fill: none; stroke: #000000; stroke-width: 0.8; stroke-linejoin: miter; stroke-linecap: square"/>
   </g>
   <g id="patch_4">
    <path d="M 853.2 534.04 
L 853.2 26.88 
" style="fill: none; stroke: #000000; stroke-width: 0.8; stroke-linejoin: miter; stroke-linecap: square"/>
   </g>
   <g id="patch_5">
    <path d="M 47.72 534.04 
L 853.2 534.04 
" style="fill: none; stroke: #000000; stroke-width: 0.8; stroke-linejoin: miter; stroke-linecap: square"/>
   </g>
   <g id="patch_6">
    <path d="M 47.72 26.88 
L 853.2 26.88 
" style="fill: none; stroke: #000000; stroke-width: 0.8; stroke-linejoin: miter; stroke-linecap: square"/>
   </g>
   <g id="patch_7">
    <path d="M 635.316156 343.830789 
Q 609.164862 349.664651 583.013568 355.498514 
L 583.884485 359.40255 
Q 577.376705 357.780572 570.868925 356.158594 
Q 576.070329 351.924517 581.271734 347.69044 
L 582.142651 351.594477 
Q 608.293945 345.760614 634.445239 339.926752 
L 635.316156 343.830789 
z
" style="stroke: #000000; stroke-linecap: round"/>
   </g>
   <g id="text_15">
    <!-- Peak: RT=3.30, Area=1.27e+04 -->
    <g style="fill: #ff0000" transform="translate(640.552791 327.335933) scale(0.1 -0.1)">
     <defs>
      <path id="DejaVuSans-50" d="M 1259 4147 
L 1259 2394 
L 2053 2394 
Q 2494 2394 2734 2622 
Q 2975 2850 2975 3272 
Q 2975 3691 2734 3919 
Q 2494 4147 2053 4147 
L 1259 4147 
z
M 628 4666 
L 2053 4666 
Q 2838 4666 3239 4311 
Q 3641 3956 3641 3272 
Q 3641 2581 3239 2228 
Q 2838 1875 2053 1875 
L 1259 1875 
L 1259 0 
L 628 0 
L 628 4666 
z
" transform="scale(0.015625)"/>
      <path id="DejaVuSans-6b" d="M 581 4863 
L 1159 4863 
L 1159 1991 
L 2875 3500 
L 3609 3500 
L 1753 1863 
L 3688 0 
L 2938 0 
L 1159 1709 
L 1159 0 
L 581 0 
L 581 4863 
z
" transform="scale(0.015625)"/>
      <path id="DejaVuSans-3a" d="M 750 794 
L 1409 794 
L 1409 0 
L 750 0 
L 750 794 
z
M 750 3309 
L 1409 3309 
L 1409 2516 
L 750 2516 
L 750 3309 
z
" transform="scale(0.015625)"/>
      <path id="DejaVuSans-3d" d="M 678 2906 
L 4684 2906 
L 4684 2381 
L 678 2381 
L 678 2906 
z
M 678 1631 
L 4684 1631 
L 4684 1100 
L 678 1100 
L 678 1631 
z
" transform="scale(0.015625)"/>
      <path id="DejaVuSans-2c" d="M 750 794 
L 1409 794 
L 1409 256 
L 897 -744 
L 494 -744 
L 750 256 
L 750 794 
z
" transform="scale(0.015625)"/>
      <path id="DejaVuSans-41" d="M 2188 4044 
L 1331 1722 
L 3047 1722 
L 2188 4044 
z
M 1831 4666 
L 2547 4666 
L 4325 0 
L 3669 0 
L 3244 1197 
L 1141 1197 
L 716 0 
L 50 0 
L 1831 4666 
z
" transform="scale(0.015625)"/>
      <path id="DejaVuSans-37" d="M 525 4666 
L 3525 4666 
L 3525 4397 
L 1831 0 
L 1172 0 
L 2766 4134 
L 525 4134 
L 525 4666 
z
" transform="scale(0.015625)"/>
      <path id="DejaVuSans-2b" d="M 2944 4013 
L 2944 2272 
L 4684 2272 
L 4684 1741 
L 2944 1741 
L 2944 0 
L 2419 0 
L 2419 1741 
L 678 1741 
L 678 2272 
L 2419 2272 
L 2419 4013 
L 2944 4013 
z
" transform="scale(0.015625)"/>
     </defs>
     <use xlink:href="#DejaVuSans-50"/>
     <use xlink:href="#DejaVuSans-65" transform="translate(56.677734 0)"/>
     <use xlink:href="#DejaVuSans-61" transform="translate(118.201172 0)"/>
     <use xlink:href="#DejaVuSans-6b" transform="translate(179.480469 0)"/>
     <use xlink:href="#DejaVuSans-3a" transform="translate(237.390625 0)"/>
     <use xlink:href="#DejaVuSans-20" transform="translate(271.082031 0)"/>
     <use xlink:href="#DejaVuSans-52" transform="translate(302.869141 0)"/>
     <use xlink:href="#DejaVuSans-54" transform="translate(365.101562 0)"/>
     <use xlink:href="#DejaVuSans-3d" transform="translate(426.185547 0)"/>
     <use xlink:href="#DejaVuSans-33" transform="translate(509.974609 0)"/>
     <use xlink:href="#DejaVuSans-2e" transform="translate(573.597656 0)"/>
     <use xlink:href="#DejaVuSans-33" transform="translate(605.384766 0)"/>
     <use xlink:href="#DejaVuSans-30" transform="translate(669.007812 0)"/>
     <use xlink:href="#DejaVuSans-2c" transform="translate(732.630859 0)"/>
     <use xlink:href="#DejaVuSans-20" transform="translate(764.417969 0)"/>
     <use xlink:href="#DejaVuSans-41" transform="translate(796.205078 0)"/>
     <use xlink:href="#DejaVuSans-72" transform="translate(864.613281 0)"/>
     <use xlink:href="#DejaVuSans-65" transform="translate(903.476562 0)"/>
     <use xlink:href="#DejaVuSans-61" transform="translate(965 0)"/>
     <use xlink:href="#DejaVuSans-3d" transform="translate(1026.279297 0)"/>
     <use xlink:href="#DejaVuSans-31" transform="translate(1110.068359 0)"/>
     <use xlink:href="#DejaVuSans-2e" transform="translate(1173.691406 0)"/>
     <use xlink:href="#DejaVuSans-32" transform="translate(1205.478516 0)"/>
     <use xlink:href="#DejaVuSans-37" transform="translate(1269.101562 0)"/>
     <use xlink:href="#DejaVuSans-65" transform="translate(1332.724609 0)"/>
     <use xlink:href="#DejaVuSans-2b" transform="translate(1394.248047 0)"/>
     <use xlink:href="#DejaVuSans-30" transform="translate(1478.037109 0)"/>
     <use xlink:href="#DejaVuSans-34" transform="translate(1541.660156 0)"/>
    </g>
    <!-- (39.84% of total) -->
    <g style="fill: #ff0000" transform="translate(640.552791 338.533745) scale(0.1 -0.1)">
     <defs>
      <path id="DejaVuSans-39" d="M 703 97 
L 703 672 
Q 941 559 1184 500 
Q 1428 441 1663 441 
Q 2288 441 2617 861 
Q 2947 1281 2994 2138 
Q 2813 1869 2534 1725 
Q 2256 1581 1919 1581 
Q 1219 1581 811 2004 
Q 403 2428 403 3163 
Q 403 3881 828 4315 
Q 1253 4750 1959 4750 
Q 2769 4750 3195 4129 
Q 3622 3509 3622 2328 
Q 3622 1225 3098 567 
Q 2575 -91 1691 -91 
Q 1453 -91 1209 -44 
Q 966 3 703 97 
z
M 1959 2075 
Q 2384 2075 2632 2365 
Q 2881 2656 2881 3163 
Q 2881 3666 2632 3958 
Q 2384 4250 1959 4250 
Q 1534 4250 1286 3958 
Q 1038 3666 1038 3163 
Q 1038 2656 1286 2365 
Q 1534 2075 1959 2075 
z
" transform="scale(0.015625)"/>
      <path id="DejaVuSans-38" d="M 2034 2216 
Q 1584 2216 1326 1975 
Q 1069 1734 1069 1313 
Q 1069 891 1326 650 
Q 1584 409 2034 409 
Q 2484 409 2743 651 
Q 3003 894 3003 1313 
Q 3003 1734 2745 1975 
Q 2488 2216 2034 2216 
z
M 1403 2484 
Q 997 2584 770 2862 
Q 544 3141 544 3541 
Q 544 4100 942 4425 
Q 1341 4750 2034 4750 
Q 2731 4750 3128 4425 
Q 3525 4100 3525 3541 
Q 3525 3141 3298 2862 
Q 3072 2584 2669 2484 
Q 3125 2378 3379 2068 
Q 3634 1759 3634 1313 
Q 3634 634 3220 271 
Q 2806 -91 2034 -91 
Q 1263 -91 848 271 
Q 434 634 434 1313 
Q 434 1759 690 2068 
Q 947 2378 1403 2484 
z
M 1172 3481 
Q 1172 3119 1398 2916 
Q 1625 2713 2034 2713 
Q 2441 2713 2670 2916 
Q 2900 3119 2900 3481 
Q 2900 3844 2670 4047 
Q 2441 4250 2034 4250 
Q 1625 4250 1398 4047 
Q 1172 3844 1172 3481 
z
" transform="scale(0.015625)"/>
      <path id="DejaVuSans-25" d="M 4653 2053 
Q 4381 2053 4226 1822 
Q 4072 1591 4072 1178 
Q 4072 772 4226 539 
Q 4381 306 4653 306 
Q 4919 306 5073 539 
Q 5228 772 5228 1178 
Q 5228 1588 5073 1820 
Q 4919 2053 4653 2053 
z
M 4653 2450 
Q 5147 2450 5437 2106 
Q 5728 1763 5728 1178 
Q 5728 594 5436 251 
Q 5144 -91 4653 -91 
Q 4153 -91 3862 251 
Q 3572 594 3572 1178 
Q 3572 1766 3864 2108 
Q 4156 2450 4653 2450 
z
M 1428 4353 
Q 1159 4353 1004 4120 
Q 850 3888 850 3481 
Q 850 3069 1003 2837 
Q 1156 2606 1428 2606 
Q 1700 2606 1854 2837 
Q 2009 3069 2009 3481 
Q 2009 3884 1853 4118 
Q 1697 4353 1428 4353 
z
M 4250 4750 
L 4750 4750 
L 1831 -91 
L 1331 -91 
L 4250 4750 
z
M 1428 4750 
Q 1922 4750 2215 4408 
Q 2509 4066 2509 3481 
Q 2509 2891 2217 2550 
Q 1925 2209 1428 2209 
Q 931 2209 642 2551 
Q 353 2894 353 3481 
Q 353 4063 643 4406 
Q 934 4750 1428 4750 
z
" transform="scale(0.015625)"/>
      <path id="DejaVuSans-66" d="M 2375 4863 
L 2375 4384 
L 1825 4384 
Q 1516 4384 1395 4259 
Q 1275 4134 1275 3809 
L 1275 3500 
L 2222 3500 
L 2222 3053 
L 1275 3053 
L 1275 0 
L 697 0 
L 697 3053 
L 147 3053 
L 147 3500 
L 697 3500 
L 697 3744 
Q 697 4328 969 4595 
Q 1241 4863 1831 4863 
L 2375 4863 
z
" transform="scale(0.015625)"/>
     </defs>
     <use xlink:href="#DejaVuSans-28"/>
     <use xlink:href="#DejaVuSans-33" transform="translate(39.013672 0)"/>
     <use xlink:href="#DejaVuSans-39" transform="translate(102.636719 0)"/>
     <use xlink:href="#DejaVuSans-2e" transform="translate(166.259766 0)"/>
     <use xlink:href="#DejaVuSans-38" transform="translate(198.046875 0)"/>
     <use xlink:href="#DejaVuSans-34" transform="translate(261.669922 0)"/>
     <use xlink:href="#DejaVuSans-25" transform="translate(325.292969 0)"/>
     <use xlink:href="#DejaVuSans-20" transform="translate(420.3125 0)"/>
     <use xlink:href="#DejaVuSans-6f" transform="translate(452.099609 0)"/>
     <use xlink:href="#DejaVuSans-66" transform="translate(513.28125 0)"/>
     <use xlink:href="#DejaVuSans-20" transform="translate(548.486328 0)"/>
     <use xlink:href="#DejaVuSans-74" transform="translate(580.273438 0)"/>
     <use xlink:href="#DejaVuSans-6f" transform="translate(619.482422 0)"/>
     <use xlink:href="#DejaVuSans-74" transform="translate(680.664062 0)"/>
     <use xlink:href="#DejaVuSans-61" transform="translate(719.873047 0)"/>
     <use xlink:href="#DejaVuSans-6c" transform="translate(781.152344 0)"/>
     <use xlink:href="#DejaVuSans-29" transform="translate(808.935547 0)"/>
    </g>
   </g>
   <g id="text_16">
    <!-- UV and MS Chromatograms of IrCp4E22, target m/z = 721.2502784 -->
    <g transform="translate(246.528438 20.88) scale(0.12 -0.12)">
     <defs>
      <path id="DejaVuSans-55" d="M 556 4666 
L 1191 4666 
L 1191 1831 
Q 1191 1081 1462 751 
Q 1734 422 2344 422 
Q 2950 422 3222 751 
Q 3494 1081 3494 1831 
L 3494 4666 
L 4128 4666 
L 4128 1753 
Q 4128 841 3676 375 
Q 3225 -91 2344 -91 
Q 1459 -91 1007 375 
Q 556 841 556 1753 
L 556 4666 
z
" transform="scale(0.015625)"/>
      <path id="DejaVuSans-56" d="M 1831 0 
L 50 4666 
L 709 4666 
L 2188 738 
L 3669 4666 
L 4325 4666 
L 2547 0 
L 1831 0 
z
" transform="scale(0.015625)"/>
      <path id="DejaVuSans-4d" d="M 628 4666 
L 1569 4666 
L 2759 1491 
L 3956 4666 
L 4897 4666 
L 4897 0 
L 4281 0 
L 4281 4097 
L 3078 897 
L 2444 897 
L 1241 4097 
L 1241 0 
L 628 0 
L 628 4666 
z
" transform="scale(0.015625)"/>
      <path id="DejaVuSans-53" d="M 3425 4513 
L 3425 3897 
Q 3066 4069 2747 4153 
Q 2428 4238 2131 4238 
Q 1616 4238 1336 4038 
Q 1056 3838 1056 3469 
Q 1056 3159 1242 3001 
Q 1428 2844 1947 2747 
L 2328 2669 
Q 3034 2534 3370 2195 
Q 3706 1856 3706 1288 
Q 3706 609 3251 259 
Q 2797 -91 1919 -91 
Q 1588 -91 1214 -16 
Q 841 59 441 206 
L 441 856 
Q 825 641 1194 531 
Q 1563 422 1919 422 
Q 2459 422 2753 634 
Q 3047 847 3047 1241 
Q 3047 1584 2836 1778 
Q 2625 1972 2144 2069 
L 1759 2144 
Q 1053 2284 737 2584 
Q 422 2884 422 3419 
Q 422 4038 858 4394 
Q 1294 4750 2059 4750 
Q 2388 4750 2728 4690 
Q 3069 4631 3425 4513 
z
" transform="scale(0.015625)"/>
      <path id="DejaVuSans-43" d="M 4122 4306 
L 4122 3641 
Q 3803 3938 3442 4084 
Q 3081 4231 2675 4231 
Q 1875 4231 1450 3742 
Q 1025 3253 1025 2328 
Q 1025 1406 1450 917 
Q 1875 428 2675 428 
Q 3081 428 3442 575 
Q 3803 722 4122 1019 
L 4122 359 
Q 3791 134 3420 21 
Q 3050 -91 2638 -91 
Q 1578 -91 968 557 
Q 359 1206 359 2328 
Q 359 3453 968 4101 
Q 1578 4750 2638 4750 
Q 3056 4750 3426 4639 
Q 3797 4528 4122 4306 
z
" transform="scale(0.015625)"/>
      <path id="DejaVuSans-68" d="M 3513 2113 
L 3513 0 
L 2938 0 
L 2938 2094 
Q 2938 2591 2744 2837 
Q 2550 3084 2163 3084 
Q 1697 3084 1428 2787 
Q 1159 2491 1159 1978 
L 1159 0 
L 581 0 
L 581 4863 
L 1159 4863 
L 1159 2956 
Q 1366 3272 1645 3428 
Q 1925 3584 2291 3584 
Q 2894 3584 3203 3211 
Q 3513 2838 3513 2113 
z
" transform="scale(0.015625)"/>
      <path id="DejaVuSans-67" d="M 2906 1791 
Q 2906 2416 2648 2759 
Q 2391 3103 1925 3103 
Q 1463 3103 1205 2759 
Q 947 2416 947 1791 
Q 947 1169 1205 825 
Q 1463 481 1925 481 
Q 2391 481 2648 825 
Q 2906 1169 2906 1791 
z
M 3481 434 
Q 3481 -459 3084 -895 
Q 2688 -1331 1869 -1331 
Q 1566 -1331 1297 -1286 
Q 1028 -1241 775 -1147 
L 775 -588 
Q 1028 -725 1275 -790 
Q 1522 -856 1778 -856 
Q 2344 -856 2625 -561 
Q 2906 -266 2906 331 
L 2906 616 
Q 2728 306 2450 153 
Q 2172 0 1784 0 
Q 1141 0 747 490 
Q 353 981 353 1791 
Q 353 2603 747 3093 
Q 1141 3584 1784 3584 
Q 2172 3584 2450 3431 
Q 2728 3278 2906 2969 
L 2906 3500 
L 3481 3500 
L 3481 434 
z
" transform="scale(0.015625)"/>
      <path id="DejaVuSans-70" d="M 1159 525 
L 1159 -1331 
L 581 -1331 
L 581 3500 
L 1159 3500 
L 1159 2969 
Q 1341 3281 1617 3432 
Q 1894 3584 2278 3584 
Q 2916 3584 3314 3078 
Q 3713 2572 3713 1747 
Q 3713 922 3314 415 
Q 2916 -91 2278 -91 
Q 1894 -91 1617 61 
Q 1341 213 1159 525 
z
M 3116 1747 
Q 3116 2381 2855 2742 
Q 2594 3103 2138 3103 
Q 1681 3103 1420 2742 
Q 1159 2381 1159 1747 
Q 1159 1113 1420 752 
Q 1681 391 2138 391 
Q 2594 391 2855 752 
Q 3116 1113 3116 1747 
z
" transform="scale(0.015625)"/>
      <path id="DejaVuSans-45" d="M 628 4666 
L 3578 4666 
L 3578 4134 
L 1259 4134 
L 1259 2753 
L 3481 2753 
L 3481 2222 
L 1259 2222 
L 1259 531 
L 3634 531 
L 3634 0 
L 628 0 
L 628 4666 
z
" transform="scale(0.015625)"/>
      <path id="DejaVuSans-2f" d="M 1625 4666 
L 2156 4666 
L 531 -594 
L 0 -594 
L 1625 4666 
z
" transform="scale(0.015625)"/>
     </defs>
     <use xlink:href="#DejaVuSans-55"/>
     <use xlink:href="#DejaVuSans-56" transform="translate(73.193359 0)"/>
     <use xlink:href="#DejaVuSans-20" transform="translate(141.601562 0)"/>
     <use xlink:href="#DejaVuSans-61" transform="translate(173.388672 0)"/>
     <use xlink:href="#DejaVuSans-6e" transform="translate(234.667969 0)"/>
     <use xlink:href="#DejaVuSans-64" transform="translate(298.046875 0)"/>
     <use xlink:href="#DejaVuSans-20" transform="translate(361.523438 0)"/>
     <use xlink:href="#DejaVuSans-4d" transform="translate(393.310547 0)"/>
     <use xlink:href="#DejaVuSans-53" transform="translate(479.589844 0)"/>
     <use xlink:href="#DejaVuSans-20" transform="translate(543.066406 0)"/>
     <use xlink:href="#DejaVuSans-43" transform="translate(574.853516 0)"/>
     <use xlink:href="#DejaVuSans-68" transform="translate(644.677734 0)"/>
     <use xlink:href="#DejaVuSans-72" transform="translate(708.056641 0)"/>
     <use xlink:href="#DejaVuSans-6f" transform="translate(746.919922 0)"/>
     <use xlink:href="#DejaVuSans-6d" transform="translate(808.101562 0)"/>
     <use xlink:href="#DejaVuSans-61" transform="translate(905.513672 0)"/>
     <use xlink:href="#DejaVuSans-74" transform="translate(966.792969 0)"/>
     <use xlink:href="#DejaVuSans-6f" transform="translate(1006.001953 0)"/>
     <use xlink:href="#DejaVuSans-67" transform="translate(1067.183594 0)"/>
     <use xlink:href="#DejaVuSans-72" transform="translate(1130.660156 0)"/>
     <use xlink:href="#DejaVuSans-61" transform="translate(1171.773438 0)"/>
     <use xlink:href="#DejaVuSans-6d" transform="translate(1233.052734 0)"/>
     <use xlink:href="#DejaVuSans-73" transform="translate(1330.464844 0)"/>
     <use xlink:href="#DejaVuSans-20" transform="translate(1382.564453 0)"/>
     <use xlink:href="#DejaVuSans-6f" transform="translate(1414.351562 0)"/>
     <use xlink:href="#DejaVuSans-66" transform="translate(1475.533203 0)"/>
     <use xlink:href="#DejaVuSans-20" transform="translate(1510.738281 0)"/>
     <use xlink:href="#DejaVuSans-49" transform="translate(1542.525391 0)"/>
     <use xlink:href="#DejaVuSans-72" transform="translate(1572.017578 0)"/>
     <use xlink:href="#DejaVuSans-43" transform="translate(1613.130859 0)"/>
     <use xlink:href="#DejaVuSans-70" transform="translate(1682.955078 0)"/>
     <use xlink:href="#DejaVuSans-34" transform="translate(1746.431641 0)"/>
     <use xlink:href="#DejaVuSans-45" transform="translate(1810.054688 0)"/>
     <use xlink:href="#DejaVuSans-32" transform="translate(1873.238281 0)"/>
     <use xlink:href="#DejaVuSans-32" transform="translate(1936.861328 0)"/>
     <use xlink:href="#DejaVuSans-2c" transform="translate(2000.484375 0)"/>
     <use xlink:href="#DejaVuSans-20" transform="translate(2032.271484 0)"/>
     <use xlink:href="#DejaVuSans-74" transform="translate(2064.058594 0)"/>
     <use xlink:href="#DejaVuSans-61" transform="translate(2103.267578 0)"/>
     <use xlink:href="#DejaVuSans-72" transform="translate(2164.546875 0)"/>
     <use xlink:href="#DejaVuSans-67" transform="translate(2203.910156 0)"/>
     <use xlink:href="#DejaVuSans-65" transform="translate(2267.386719 0)"/>
     <use xlink:href="#DejaVuSans-74" transform="translate(2328.910156 0)"/>
     <use xlink:href="#DejaVuSans-20" transform="translate(2368.119141 0)"/>
     <use xlink:href="#DejaVuSans-6d" transform="translate(2399.90625 0)"/>
     <use xlink:href="#DejaVuSans-2f" transform="translate(2497.318359 0)"/>
     <use xlink:href="#DejaVuSans-7a" transform="translate(2531.009766 0)"/>
     <use xlink:href="#DejaVuSans-20" transform="translate(2583.5 0)"/>
     <use xlink:href="#DejaVuSans-3d" transform="translate(2615.287109 0)"/>
     <use xlink:href="#DejaVuSans-20" transform="translate(2699.076172 0)"/>
     <use xlink:href="#DejaVuSans-37" transform="translate(2730.863281 0)"/>
     <use xlink:href="#DejaVuSans-32" transform="translate(2794.486328 0)"/>
     <use xlink:href="#DejaVuSans-31" transform="translate(2858.109375 0)"/>
     <use xlink:href="#DejaVuSans-2e" transform="translate(2921.732422 0)"/>
     <use xlink:href="#DejaVuSans-32" transform="translate(2953.519531 0)"/>
     <use xlink:href="#DejaVuSans-35" transform="translate(3017.142578 0)"/>
     <use xlink:href="#DejaVuSans-30" transform="translate(3080.765625 0)"/>
     <use xlink:href="#DejaVuSans-32" transform="translate(3144.388672 0)"/>
     <use xlink:href="#DejaVuSans-37" transform="translate(3208.011719 0)"/>
     <use xlink:href="#DejaVuSans-38" transform="translate(3271.634766 0)"/>
     <use xlink:href="#DejaVuSans-34" transform="translate(3335.257812 0)"/>
    </g>
   </g>
   <g id="legend_1">
    <g id="patch_8">
     <path d="M 685.971875 64.23625 
L 846.2 64.23625 
Q 848.2 64.23625 848.2 62.23625 
L 848.2 33.88 
Q 848.2 31.88 846.2 31.88 
L 685.971875 31.88 
Q 683.971875 31.88 683.971875 33.88 
L 683.971875 62.23625 
Q 683.971875 64.23625 685.971875 64.23625 
z
" style="fill: #ffffff; opacity: 0.8; stroke: #cccccc; stroke-linejoin: miter"/>
    </g>
    <g id="line2d_15">
     <path d="M 687.971875 39.978437 
L 697.971875 39.978437 
L 707.971875 39.978437 
" style="fill: none; stroke: #0000ff; stroke-width: 1.5; stroke-linecap: square"/>
    </g>
    <g id="text_17">
     <!-- UV Intensity (normalized) -->
     <g transform="translate(715.971875 43.478437) scale(0.1 -0.1)">
      <use xlink:href="#DejaVuSans-55"/>
      <use xlink:href="#DejaVuSans-56" transform="translate(73.193359 0)"/>
      <use xlink:href="#DejaVuSans-20" transform="translate(141.601562 0)"/>
      <use xlink:href="#DejaVuSans-49" transform="translate(173.388672 0)"/>
      <use xlink:href="#DejaVuSans-6e" transform="translate(202.880859 0)"/>
      <use xlink:href="#DejaVuSans-74" transform="translate(266.259766 0)"/>
      <use xlink:href="#DejaVuSans-65" transform="translate(305.46875 0)"/>
      <use xlink:href="#DejaVuSans-6e" transform="translate(366.992188 0)"/>
      <use xlink:href="#DejaVuSans-73" transform="translate(430.371094 0)"/>
      <use xlink:href="#DejaVuSans-69" transform="translate(482.470703 0)"/>
      <use xlink:href="#DejaVuSans-74" transform="translate(510.253906 0)"/>
      <use xlink:href="#DejaVuSans-79" transform="translate(549.462891 0)"/>
      <use xlink:href="#DejaVuSans-20" transform="translate(608.642578 0)"/>
      <use xlink:href="#DejaVuSans-28" transform="translate(640.429688 0)"/>
      <use xlink:href="#DejaVuSans-6e" transform="translate(679.443359 0)"/>
      <use xlink:href="#DejaVuSans-6f" transform="translate(742.822266 0)"/>
      <use xlink:href="#DejaVuSans-72" transform="translate(804.003906 0)"/>
      <use xlink:href="#DejaVuSans-6d" transform="translate(843.367188 0)"/>
      <use xlink:href="#DejaVuSans-61" transform="translate(940.779297 0)"/>
      <use xlink:href="#DejaVuSans-6c" transform="translate(1002.058594 0)"/>
      <use xlink:href="#DejaVuSans-69" transform="translate(1029.841797 0)"/>
      <use xlink:href="#DejaVuSans-7a" transform="translate(1057.625 0)"/>
      <use xlink:href="#DejaVuSans-65" transform="translate(1110.115234 0)"/>
      <use xlink:href="#DejaVuSans-64" transform="translate(1171.638672 0)"/>
      <use xlink:href="#DejaVuSans-29" transform="translate(1235.115234 0)"/>
     </g>
    </g>
    <g id="line2d_16">
     <path d="M 687.971875 54.656562 
L 697.971875 54.656562 
L 707.971875 54.656562 
" style="fill: none; stroke: #008000; stroke-width: 1.5; stroke-linecap: square"/>
    </g>
    <g id="text_18">
     <!-- MS Intensity (normalized) -->
     <g transform="translate(715.971875 58.156562) scale(0.1 -0.1)">
      <use xlink:href="#DejaVuSans-4d"/>
      <use xlink:href="#DejaVuSans-53" transform="translate(86.279297 0)"/>
      <use xlink:href="#DejaVuSans-20" transform="translate(149.755859 0)"/>
      <use xlink:href="#DejaVuSans-49" transform="translate(181.542969 0)"/>
      <use xlink:href="#DejaVuSans-6e" transform="translate(211.035156 0)"/>
      <use xlink:href="#DejaVuSans-74" transform="translate(274.414062 0)"/>
      <use xlink:href="#DejaVuSans-65" transform="translate(313.623047 0)"/>
      <use xlink:href="#DejaVuSans-6e" transform="translate(375.146484 0)"/>
      <use xlink:href="#DejaVuSans-73" transform="translate(438.525391 0)"/>
      <use xlink:href="#DejaVuSans-69" transform="translate(490.625 0)"/>
      <use xlink:href="#DejaVuSans-74" transform="translate(518.408203 0)"/>
      <use xlink:href="#DejaVuSans-79" transform="translate(557.617188 0)"/>
      <use xlink:href="#DejaVuSans-20" transform="translate(616.796875 0)"/>
      <use xlink:href="#DejaVuSans-28" transform="translate(648.583984 0)"/>
      <use xlink:href="#DejaVuSans-6e" transform="translate(687.597656 0)"/>
      <use xlink:href="#DejaVuSans-6f" transform="translate(750.976562 0)"/>
      <use xlink:href="#DejaVuSans-72" transform="translate(812.158203 0)"/>
      <use xlink:href="#DejaVuSans-6d" transform="translate(851.521484 0)"/>
      <use xlink:href="#DejaVuSans-61" transform="translate(948.933594 0)"/>
      <use xlink:href="#DejaVuSans-6c" transform="translate(1010.212891 0)"/>
      <use xlink:href="#DejaVuSans-69" transform="translate(1037.996094 0)"/>
      <use xlink:href="#DejaVuSans-7a" transform="translate(1065.779297 0)"/>
      <use xlink:href="#DejaVuSans-65" transform="translate(1118.269531 0)"/>
      <use xlink:href="#DejaVuSans-64" transform="translate(1179.792969 0)"/>
      <use xlink:href="#DejaVuSans-29" transform="translate(1243.269531 0)"/>
     </g>
    </g>
   </g>
  </g>
 </g>
 <defs>
  <clipPath id="pee0af2d9c9">
   <rect x="47.72" y="26.88" width="805.48" height="507.16"/>
  </clipPath>
 </defs>
</svg>
