<?xml version="1.0" encoding="utf-8" standalone="no"?>
<!DOCTYPE svg PUBLIC "-//W3C//DTD SVG 1.1//EN"
  "http://www.w3.org/Graphics/SVG/1.1/DTD/svg11.dtd">
<svg xmlns:xlink="http://www.w3.org/1999/xlink" width="864pt" height="576pt" viewBox="0 0 864 576" xmlns="http://www.w3.org/2000/svg" version="1.1">
 <metadata>
  <rdf:RDF xmlns:dc="http://purl.org/dc/elements/1.1/" xmlns:cc="http://creativecommons.org/ns#" xmlns:rdf="http://www.w3.org/1999/02/22-rdf-syntax-ns#">
   <cc:Work>
    <dc:type rdf:resource="http://purl.org/dc/dcmitype/StillImage"/>
    <dc:date>2025-02-25T11:09:54.337171</dc:date>
    <dc:format>image/svg+xml</dc:format>
    <dc:creator>
     <cc:Agent>
      <dc:title>Matplotlib v3.10.0, https://matplotlib.org/</dc:title>
     </cc:Agent>
    </dc:creator>
   </cc:Work>
  </rdf:RDF>
 </metadata>
 <defs>
  <style type="text/css">*{stroke-linejoin: round; stroke-linecap: butt}</style>
 </defs>
 <g id="figure_1">
  <g id="patch_1">
   <path d="M 0 576 
L 864 576 
L 864 0 
L 0 0 
z
" style="fill: #ffffff"/>
  </g>
  <g id="axes_1">
   <g id="patch_2">
    <path d="M 47.72 534.04 
L 853.2 534.04 
L 853.2 26.88 
L 47.72 26.88 
z
" style="fill: #ffffff"/>
   </g>
   <g id="matplotlib.axis_1">
    <g id="xtick_1">
     <g id="line2d_1">
      <defs>
       <path id="m94ac06867d" d="M 0 0 
L 0 3.5 
" style="stroke: #000000; stroke-width: 0.8"/>
      </defs>
      <g>
       <use xlink:href="#m94ac06867d" x="83.100486" y="534.04" style="stroke: #000000; stroke-width: 0.8"/>
      </g>
     </g>
     <g id="text_1">
      <!-- 0 -->
      <g transform="translate(79.919236 548.638438) scale(0.1 -0.1)">
       <defs>
        <path id="DejaVuSans-30" d="M 2034 4250 
Q 1547 4250 1301 3770 
Q 1056 3291 1056 2328 
Q 1056 1369 1301 889 
Q 1547 409 2034 409 
Q 2525 409 2770 889 
Q 3016 1369 3016 2328 
Q 3016 3291 2770 3770 
Q 2525 4250 2034 4250 
z
M 2034 4750 
Q 2819 4750 3233 4129 
Q 3647 3509 3647 2328 
Q 3647 1150 3233 529 
Q 2819 -91 2034 -91 
Q 1250 -91 836 529 
Q 422 1150 422 2328 
Q 422 3509 836 4129 
Q 1250 4750 2034 4750 
z
" transform="scale(0.015625)"/>
       </defs>
       <use xlink:href="#DejaVuSans-30"/>
      </g>
     </g>
    </g>
    <g id="xtick_2">
     <g id="line2d_2">
      <g>
       <use xlink:href="#m94ac06867d" x="229.795887" y="534.04" style="stroke: #000000; stroke-width: 0.8"/>
      </g>
     </g>
     <g id="text_2">
      <!-- 1 -->
      <g transform="translate(226.614637 548.638438) scale(0.1 -0.1)">
       <defs>
        <path id="DejaVuSans-31" d="M 794 531 
L 1825 531 
L 1825 4091 
L 703 3866 
L 703 4441 
L 1819 4666 
L 2450 4666 
L 2450 531 
L 3481 531 
L 3481 0 
L 794 0 
L 794 531 
z
" transform="scale(0.015625)"/>
       </defs>
       <use xlink:href="#DejaVuSans-31"/>
      </g>
     </g>
    </g>
    <g id="xtick_3">
     <g id="line2d_3">
      <g>
       <use xlink:href="#m94ac06867d" x="376.491289" y="534.04" style="stroke: #000000; stroke-width: 0.8"/>
      </g>
     </g>
     <g id="text_3">
      <!-- 2 -->
      <g transform="translate(373.310039 548.638438) scale(0.1 -0.1)">
       <defs>
        <path id="DejaVuSans-32" d="M 1228 531 
L 3431 531 
L 3431 0 
L 469 0 
L 469 531 
Q 828 903 1448 1529 
Q 2069 2156 2228 2338 
Q 2531 2678 2651 2914 
Q 2772 3150 2772 3378 
Q 2772 3750 2511 3984 
Q 2250 4219 1831 4219 
Q 1534 4219 1204 4116 
Q 875 4013 500 3803 
L 500 4441 
Q 881 4594 1212 4672 
Q 1544 4750 1819 4750 
Q 2544 4750 2975 4387 
Q 3406 4025 3406 3419 
Q 3406 3131 3298 2873 
Q 3191 2616 2906 2266 
Q 2828 2175 2409 1742 
Q 1991 1309 1228 531 
z
" transform="scale(0.015625)"/>
       </defs>
       <use xlink:href="#DejaVuSans-32"/>
      </g>
     </g>
    </g>
    <g id="xtick_4">
     <g id="line2d_4">
      <g>
       <use xlink:href="#m94ac06867d" x="523.18669" y="534.04" style="stroke: #000000; stroke-width: 0.8"/>
      </g>
     </g>
     <g id="text_4">
      <!-- 3 -->
      <g transform="translate(520.00544 548.638438) scale(0.1 -0.1)">
       <defs>
        <path id="DejaVuSans-33" d="M 2597 2516 
Q 3050 2419 3304 2112 
Q 3559 1806 3559 1356 
Q 3559 666 3084 287 
Q 2609 -91 1734 -91 
Q 1441 -91 1130 -33 
Q 819 25 488 141 
L 488 750 
Q 750 597 1062 519 
Q 1375 441 1716 441 
Q 2309 441 2620 675 
Q 2931 909 2931 1356 
Q 2931 1769 2642 2001 
Q 2353 2234 1838 2234 
L 1294 2234 
L 1294 2753 
L 1863 2753 
Q 2328 2753 2575 2939 
Q 2822 3125 2822 3475 
Q 2822 3834 2567 4026 
Q 2313 4219 1838 4219 
Q 1578 4219 1281 4162 
Q 984 4106 628 3988 
L 628 4550 
Q 988 4650 1302 4700 
Q 1616 4750 1894 4750 
Q 2613 4750 3031 4423 
Q 3450 4097 3450 3541 
Q 3450 3153 3228 2886 
Q 3006 2619 2597 2516 
z
" transform="scale(0.015625)"/>
       </defs>
       <use xlink:href="#DejaVuSans-33"/>
      </g>
     </g>
    </g>
    <g id="xtick_5">
     <g id="line2d_5">
      <g>
       <use xlink:href="#m94ac06867d" x="669.882092" y="534.04" style="stroke: #000000; stroke-width: 0.8"/>
      </g>
     </g>
     <g id="text_5">
      <!-- 4 -->
      <g transform="translate(666.700842 548.638438) scale(0.1 -0.1)">
       <defs>
        <path id="DejaVuSans-34" d="M 2419 4116 
L 825 1625 
L 2419 1625 
L 2419 4116 
z
M 2253 4666 
L 3047 4666 
L 3047 1625 
L 3713 1625 
L 3713 1100 
L 3047 1100 
L 3047 0 
L 2419 0 
L 2419 1100 
L 313 1100 
L 313 1709 
L 2253 4666 
z
" transform="scale(0.015625)"/>
       </defs>
       <use xlink:href="#DejaVuSans-34"/>
      </g>
     </g>
    </g>
    <g id="xtick_6">
     <g id="line2d_6">
      <g>
       <use xlink:href="#m94ac06867d" x="816.577493" y="534.04" style="stroke: #000000; stroke-width: 0.8"/>
      </g>
     </g>
     <g id="text_6">
      <!-- 5 -->
      <g transform="translate(813.396243 548.638438) scale(0.1 -0.1)">
       <defs>
        <path id="DejaVuSans-35" d="M 691 4666 
L 3169 4666 
L 3169 4134 
L 1269 4134 
L 1269 2991 
Q 1406 3038 1543 3061 
Q 1681 3084 1819 3084 
Q 2600 3084 3056 2656 
Q 3513 2228 3513 1497 
Q 3513 744 3044 326 
Q 2575 -91 1722 -91 
Q 1428 -91 1123 -41 
Q 819 9 494 109 
L 494 744 
Q 775 591 1075 516 
Q 1375 441 1709 441 
Q 2250 441 2565 725 
Q 2881 1009 2881 1497 
Q 2881 1984 2565 2268 
Q 2250 2553 1709 2553 
Q 1456 2553 1204 2497 
Q 953 2441 691 2322 
L 691 4666 
z
" transform="scale(0.015625)"/>
       </defs>
       <use xlink:href="#DejaVuSans-35"/>
      </g>
     </g>
    </g>
    <g id="text_7">
     <!-- Retention Time (min) -->
     <g transform="translate(397.61 562.316562) scale(0.1 -0.1)">
      <defs>
       <path id="DejaVuSans-52" d="M 2841 2188 
Q 3044 2119 3236 1894 
Q 3428 1669 3622 1275 
L 4263 0 
L 3584 0 
L 2988 1197 
Q 2756 1666 2539 1819 
Q 2322 1972 1947 1972 
L 1259 1972 
L 1259 0 
L 628 0 
L 628 4666 
L 2053 4666 
Q 2853 4666 3247 4331 
Q 3641 3997 3641 3322 
Q 3641 2881 3436 2590 
Q 3231 2300 2841 2188 
z
M 1259 4147 
L 1259 2491 
L 2053 2491 
Q 2509 2491 2742 2702 
Q 2975 2913 2975 3322 
Q 2975 3731 2742 3939 
Q 2509 4147 2053 4147 
L 1259 4147 
z
" transform="scale(0.015625)"/>
       <path id="DejaVuSans-65" d="M 3597 1894 
L 3597 1613 
L 953 1613 
Q 991 1019 1311 708 
Q 1631 397 2203 397 
Q 2534 397 2845 478 
Q 3156 559 3463 722 
L 3463 178 
Q 3153 47 2828 -22 
Q 2503 -91 2169 -91 
Q 1331 -91 842 396 
Q 353 884 353 1716 
Q 353 2575 817 3079 
Q 1281 3584 2069 3584 
Q 2775 3584 3186 3129 
Q 3597 2675 3597 1894 
z
M 3022 2063 
Q 3016 2534 2758 2815 
Q 2500 3097 2075 3097 
Q 1594 3097 1305 2825 
Q 1016 2553 972 2059 
L 3022 2063 
z
" transform="scale(0.015625)"/>
       <path id="DejaVuSans-74" d="M 1172 4494 
L 1172 3500 
L 2356 3500 
L 2356 3053 
L 1172 3053 
L 1172 1153 
Q 1172 725 1289 603 
Q 1406 481 1766 481 
L 2356 481 
L 2356 0 
L 1766 0 
Q 1100 0 847 248 
Q 594 497 594 1153 
L 594 3053 
L 172 3053 
L 172 3500 
L 594 3500 
L 594 4494 
L 1172 4494 
z
" transform="scale(0.015625)"/>
       <path id="DejaVuSans-6e" d="M 3513 2113 
L 3513 0 
L 2938 0 
L 2938 2094 
Q 2938 2591 2744 2837 
Q 2550 3084 2163 3084 
Q 1697 3084 1428 2787 
Q 1159 2491 1159 1978 
L 1159 0 
L 581 0 
L 581 3500 
L 1159 3500 
L 1159 2956 
Q 1366 3272 1645 3428 
Q 1925 3584 2291 3584 
Q 2894 3584 3203 3211 
Q 3513 2838 3513 2113 
z
" transform="scale(0.015625)"/>
       <path id="DejaVuSans-69" d="M 603 3500 
L 1178 3500 
L 1178 0 
L 603 0 
L 603 3500 
z
M 603 4863 
L 1178 4863 
L 1178 4134 
L 603 4134 
L 603 4863 
z
" transform="scale(0.015625)"/>
       <path id="DejaVuSans-6f" d="M 1959 3097 
Q 1497 3097 1228 2736 
Q 959 2375 959 1747 
Q 959 1119 1226 758 
Q 1494 397 1959 397 
Q 2419 397 2687 759 
Q 2956 1122 2956 1747 
Q 2956 2369 2687 2733 
Q 2419 3097 1959 3097 
z
M 1959 3584 
Q 2709 3584 3137 3096 
Q 3566 2609 3566 1747 
Q 3566 888 3137 398 
Q 2709 -91 1959 -91 
Q 1206 -91 779 398 
Q 353 888 353 1747 
Q 353 2609 779 3096 
Q 1206 3584 1959 3584 
z
" transform="scale(0.015625)"/>
       <path id="DejaVuSans-20" transform="scale(0.015625)"/>
       <path id="DejaVuSans-54" d="M -19 4666 
L 3928 4666 
L 3928 4134 
L 2272 4134 
L 2272 0 
L 1638 0 
L 1638 4134 
L -19 4134 
L -19 4666 
z
" transform="scale(0.015625)"/>
       <path id="DejaVuSans-6d" d="M 3328 2828 
Q 3544 3216 3844 3400 
Q 4144 3584 4550 3584 
Q 5097 3584 5394 3201 
Q 5691 2819 5691 2113 
L 5691 0 
L 5113 0 
L 5113 2094 
Q 5113 2597 4934 2840 
Q 4756 3084 4391 3084 
Q 3944 3084 3684 2787 
Q 3425 2491 3425 1978 
L 3425 0 
L 2847 0 
L 2847 2094 
Q 2847 2600 2669 2842 
Q 2491 3084 2119 3084 
Q 1678 3084 1418 2786 
Q 1159 2488 1159 1978 
L 1159 0 
L 581 0 
L 581 3500 
L 1159 3500 
L 1159 2956 
Q 1356 3278 1631 3431 
Q 1906 3584 2284 3584 
Q 2666 3584 2933 3390 
Q 3200 3197 3328 2828 
z
" transform="scale(0.015625)"/>
       <path id="DejaVuSans-28" d="M 1984 4856 
Q 1566 4138 1362 3434 
Q 1159 2731 1159 2009 
Q 1159 1288 1364 580 
Q 1569 -128 1984 -844 
L 1484 -844 
Q 1016 -109 783 600 
Q 550 1309 550 2009 
Q 550 2706 781 3412 
Q 1013 4119 1484 4856 
L 1984 4856 
z
" transform="scale(0.015625)"/>
       <path id="DejaVuSans-29" d="M 513 4856 
L 1013 4856 
Q 1481 4119 1714 3412 
Q 1947 2706 1947 2009 
Q 1947 1309 1714 600 
Q 1481 -109 1013 -844 
L 513 -844 
Q 928 -128 1133 580 
Q 1338 1288 1338 2009 
Q 1338 2731 1133 3434 
Q 928 4138 513 4856 
z
" transform="scale(0.015625)"/>
      </defs>
      <use xlink:href="#DejaVuSans-52"/>
      <use xlink:href="#DejaVuSans-65" transform="translate(64.982422 0)"/>
      <use xlink:href="#DejaVuSans-74" transform="translate(126.505859 0)"/>
      <use xlink:href="#DejaVuSans-65" transform="translate(165.714844 0)"/>
      <use xlink:href="#DejaVuSans-6e" transform="translate(227.238281 0)"/>
      <use xlink:href="#DejaVuSans-74" transform="translate(290.617188 0)"/>
      <use xlink:href="#DejaVuSans-69" transform="translate(329.826172 0)"/>
      <use xlink:href="#DejaVuSans-6f" transform="translate(357.609375 0)"/>
      <use xlink:href="#DejaVuSans-6e" transform="translate(418.791016 0)"/>
      <use xlink:href="#DejaVuSans-20" transform="translate(482.169922 0)"/>
      <use xlink:href="#DejaVuSans-54" transform="translate(513.957031 0)"/>
      <use xlink:href="#DejaVuSans-69" transform="translate(571.916016 0)"/>
      <use xlink:href="#DejaVuSans-6d" transform="translate(599.699219 0)"/>
      <use xlink:href="#DejaVuSans-65" transform="translate(697.111328 0)"/>
      <use xlink:href="#DejaVuSans-20" transform="translate(758.634766 0)"/>
      <use xlink:href="#DejaVuSans-28" transform="translate(790.421875 0)"/>
      <use xlink:href="#DejaVuSans-6d" transform="translate(829.435547 0)"/>
      <use xlink:href="#DejaVuSans-69" transform="translate(926.847656 0)"/>
      <use xlink:href="#DejaVuSans-6e" transform="translate(954.630859 0)"/>
      <use xlink:href="#DejaVuSans-29" transform="translate(1018.009766 0)"/>
     </g>
    </g>
   </g>
   <g id="matplotlib.axis_2">
    <g id="ytick_1">
     <g id="line2d_7">
      <defs>
       <path id="ma7ffc8c8f9" d="M 0 0 
L -3.5 0 
" style="stroke: #000000; stroke-width: 0.8"/>
      </defs>
      <g>
       <use xlink:href="#ma7ffc8c8f9" x="47.72" y="510.585737" style="stroke: #000000; stroke-width: 0.8"/>
      </g>
     </g>
     <g id="text_8">
      <!-- 0.0 -->
      <g style="fill: #0000ff" transform="translate(24.816875 514.384956) scale(0.1 -0.1)">
       <defs>
        <path id="DejaVuSans-2e" d="M 684 794 
L 1344 794 
L 1344 0 
L 684 0 
L 684 794 
z
" transform="scale(0.015625)"/>
       </defs>
       <use xlink:href="#DejaVuSans-30"/>
       <use xlink:href="#DejaVuSans-2e" transform="translate(63.623047 0)"/>
       <use xlink:href="#DejaVuSans-30" transform="translate(95.410156 0)"/>
      </g>
     </g>
    </g>
    <g id="ytick_2">
     <g id="line2d_8">
      <g>
       <use xlink:href="#ma7ffc8c8f9" x="47.72" y="418.455135" style="stroke: #000000; stroke-width: 0.8"/>
      </g>
     </g>
     <g id="text_9">
      <!-- 0.5 -->
      <g style="fill: #0000ff" transform="translate(24.816875 422.254354) scale(0.1 -0.1)">
       <use xlink:href="#DejaVuSans-30"/>
       <use xlink:href="#DejaVuSans-2e" transform="translate(63.623047 0)"/>
       <use xlink:href="#DejaVuSans-35" transform="translate(95.410156 0)"/>
      </g>
     </g>
    </g>
    <g id="ytick_3">
     <g id="line2d_9">
      <g>
       <use xlink:href="#ma7ffc8c8f9" x="47.72" y="326.324533" style="stroke: #000000; stroke-width: 0.8"/>
      </g>
     </g>
     <g id="text_10">
      <!-- 1.0 -->
      <g style="fill: #0000ff" transform="translate(24.816875 330.123752) scale(0.1 -0.1)">
       <use xlink:href="#DejaVuSans-31"/>
       <use xlink:href="#DejaVuSans-2e" transform="translate(63.623047 0)"/>
       <use xlink:href="#DejaVuSans-30" transform="translate(95.410156 0)"/>
      </g>
     </g>
    </g>
    <g id="ytick_4">
     <g id="line2d_10">
      <g>
       <use xlink:href="#ma7ffc8c8f9" x="47.72" y="234.193931" style="stroke: #000000; stroke-width: 0.8"/>
      </g>
     </g>
     <g id="text_11">
      <!-- 1.5 -->
      <g style="fill: #0000ff" transform="translate(24.816875 237.99315) scale(0.1 -0.1)">
       <use xlink:href="#DejaVuSans-31"/>
       <use xlink:href="#DejaVuSans-2e" transform="translate(63.623047 0)"/>
       <use xlink:href="#DejaVuSans-35" transform="translate(95.410156 0)"/>
      </g>
     </g>
    </g>
    <g id="ytick_5">
     <g id="line2d_11">
      <g>
       <use xlink:href="#ma7ffc8c8f9" x="47.72" y="142.063329" style="stroke: #000000; stroke-width: 0.8"/>
      </g>
     </g>
     <g id="text_12">
      <!-- 2.0 -->
      <g style="fill: #0000ff" transform="translate(24.816875 145.862548) scale(0.1 -0.1)">
       <use xlink:href="#DejaVuSans-32"/>
       <use xlink:href="#DejaVuSans-2e" transform="translate(63.623047 0)"/>
       <use xlink:href="#DejaVuSans-30" transform="translate(95.410156 0)"/>
      </g>
     </g>
    </g>
    <g id="ytick_6">
     <g id="line2d_12">
      <g>
       <use xlink:href="#ma7ffc8c8f9" x="47.72" y="49.932727" style="stroke: #000000; stroke-width: 0.8"/>
      </g>
     </g>
     <g id="text_13">
      <!-- 2.5 -->
      <g style="fill: #0000ff" transform="translate(24.816875 53.731946) scale(0.1 -0.1)">
       <use xlink:href="#DejaVuSans-32"/>
       <use xlink:href="#DejaVuSans-2e" transform="translate(63.623047 0)"/>
       <use xlink:href="#DejaVuSans-35" transform="translate(95.410156 0)"/>
      </g>
     </g>
    </g>
    <g id="text_14">
     <!-- Normalized Intensity -->
     <g style="fill: #0000ff" transform="translate(18.737187 332.167031) rotate(-90) scale(0.1 -0.1)">
      <defs>
       <path id="DejaVuSans-4e" d="M 628 4666 
L 1478 4666 
L 3547 763 
L 3547 4666 
L 4159 4666 
L 4159 0 
L 3309 0 
L 1241 3903 
L 1241 0 
L 628 0 
L 628 4666 
z
" transform="scale(0.015625)"/>
       <path id="DejaVuSans-72" d="M 2631 2963 
Q 2534 3019 2420 3045 
Q 2306 3072 2169 3072 
Q 1681 3072 1420 2755 
Q 1159 2438 1159 1844 
L 1159 0 
L 581 0 
L 581 3500 
L 1159 3500 
L 1159 2956 
Q 1341 3275 1631 3429 
Q 1922 3584 2338 3584 
Q 2397 3584 2469 3576 
Q 2541 3569 2628 3553 
L 2631 2963 
z
" transform="scale(0.015625)"/>
       <path id="DejaVuSans-61" d="M 2194 1759 
Q 1497 1759 1228 1600 
Q 959 1441 959 1056 
Q 959 750 1161 570 
Q 1363 391 1709 391 
Q 2188 391 2477 730 
Q 2766 1069 2766 1631 
L 2766 1759 
L 2194 1759 
z
M 3341 1997 
L 3341 0 
L 2766 0 
L 2766 531 
Q 2569 213 2275 61 
Q 1981 -91 1556 -91 
Q 1019 -91 701 211 
Q 384 513 384 1019 
Q 384 1609 779 1909 
Q 1175 2209 1959 2209 
L 2766 2209 
L 2766 2266 
Q 2766 2663 2505 2880 
Q 2244 3097 1772 3097 
Q 1472 3097 1187 3025 
Q 903 2953 641 2809 
L 641 3341 
Q 956 3463 1253 3523 
Q 1550 3584 1831 3584 
Q 2591 3584 2966 3190 
Q 3341 2797 3341 1997 
z
" transform="scale(0.015625)"/>
       <path id="DejaVuSans-6c" d="M 603 4863 
L 1178 4863 
L 1178 0 
L 603 0 
L 603 4863 
z
" transform="scale(0.015625)"/>
       <path id="DejaVuSans-7a" d="M 353 3500 
L 3084 3500 
L 3084 2975 
L 922 459 
L 3084 459 
L 3084 0 
L 275 0 
L 275 525 
L 2438 3041 
L 353 3041 
L 353 3500 
z
" transform="scale(0.015625)"/>
       <path id="DejaVuSans-64" d="M 2906 2969 
L 2906 4863 
L 3481 4863 
L 3481 0 
L 2906 0 
L 2906 525 
Q 2725 213 2448 61 
Q 2172 -91 1784 -91 
Q 1150 -91 751 415 
Q 353 922 353 1747 
Q 353 2572 751 3078 
Q 1150 3584 1784 3584 
Q 2172 3584 2448 3432 
Q 2725 3281 2906 2969 
z
M 947 1747 
Q 947 1113 1208 752 
Q 1469 391 1925 391 
Q 2381 391 2643 752 
Q 2906 1113 2906 1747 
Q 2906 2381 2643 2742 
Q 2381 3103 1925 3103 
Q 1469 3103 1208 2742 
Q 947 2381 947 1747 
z
" transform="scale(0.015625)"/>
       <path id="DejaVuSans-49" d="M 628 4666 
L 1259 4666 
L 1259 0 
L 628 0 
L 628 4666 
z
" transform="scale(0.015625)"/>
       <path id="DejaVuSans-73" d="M 2834 3397 
L 2834 2853 
Q 2591 2978 2328 3040 
Q 2066 3103 1784 3103 
Q 1356 3103 1142 2972 
Q 928 2841 928 2578 
Q 928 2378 1081 2264 
Q 1234 2150 1697 2047 
L 1894 2003 
Q 2506 1872 2764 1633 
Q 3022 1394 3022 966 
Q 3022 478 2636 193 
Q 2250 -91 1575 -91 
Q 1294 -91 989 -36 
Q 684 19 347 128 
L 347 722 
Q 666 556 975 473 
Q 1284 391 1588 391 
Q 1994 391 2212 530 
Q 2431 669 2431 922 
Q 2431 1156 2273 1281 
Q 2116 1406 1581 1522 
L 1381 1569 
Q 847 1681 609 1914 
Q 372 2147 372 2553 
Q 372 3047 722 3315 
Q 1072 3584 1716 3584 
Q 2034 3584 2315 3537 
Q 2597 3491 2834 3397 
z
" transform="scale(0.015625)"/>
       <path id="DejaVuSans-79" d="M 2059 -325 
Q 1816 -950 1584 -1140 
Q 1353 -1331 966 -1331 
L 506 -1331 
L 506 -850 
L 844 -850 
Q 1081 -850 1212 -737 
Q 1344 -625 1503 -206 
L 1606 56 
L 191 3500 
L 800 3500 
L 1894 763 
L 2988 3500 
L 3597 3500 
L 2059 -325 
z
" transform="scale(0.015625)"/>
      </defs>
      <use xlink:href="#DejaVuSans-4e"/>
      <use xlink:href="#DejaVuSans-6f" transform="translate(74.804688 0)"/>
      <use xlink:href="#DejaVuSans-72" transform="translate(135.986328 0)"/>
      <use xlink:href="#DejaVuSans-6d" transform="translate(175.349609 0)"/>
      <use xlink:href="#DejaVuSans-61" transform="translate(272.761719 0)"/>
      <use xlink:href="#DejaVuSans-6c" transform="translate(334.041016 0)"/>
      <use xlink:href="#DejaVuSans-69" transform="translate(361.824219 0)"/>
      <use xlink:href="#DejaVuSans-7a" transform="translate(389.607422 0)"/>
      <use xlink:href="#DejaVuSans-65" transform="translate(442.097656 0)"/>
      <use xlink:href="#DejaVuSans-64" transform="translate(503.621094 0)"/>
      <use xlink:href="#DejaVuSans-20" transform="translate(567.097656 0)"/>
      <use xlink:href="#DejaVuSans-49" transform="translate(598.884766 0)"/>
      <use xlink:href="#DejaVuSans-6e" transform="translate(628.376953 0)"/>
      <use xlink:href="#DejaVuSans-74" transform="translate(691.755859 0)"/>
      <use xlink:href="#DejaVuSans-65" transform="translate(730.964844 0)"/>
      <use xlink:href="#DejaVuSans-6e" transform="translate(792.488281 0)"/>
      <use xlink:href="#DejaVuSans-73" transform="translate(855.867188 0)"/>
      <use xlink:href="#DejaVuSans-69" transform="translate(907.966797 0)"/>
      <use xlink:href="#DejaVuSans-74" transform="translate(935.75 0)"/>
      <use xlink:href="#DejaVuSans-79" transform="translate(974.958984 0)"/>
     </g>
    </g>
   </g>
   <g id="line2d_13">
    <path d="M 84.332727 510.585737 
L 139.343503 510.50993 
L 140.565964 510.329916 
L 141.788426 510.005937 
L 145.455811 508.676699 
L 146.678273 508.422865 
L 149.123196 508.31102 
L 154.013043 508.364812 
L 161.347813 508.229758 
L 163.792736 508.22505 
L 166.23766 507.962903 
L 169.905045 507.397387 
L 172.349968 507.318893 
L 174.794891 507.595068 
L 178.462277 508.364391 
L 182.129662 509.096281 
L 185.797047 509.62614 
L 189.464432 510.987273 
L 190.686893 510.841305 
L 191.909355 510.274401 
L 193.131817 509.584668 
L 194.354278 509.068144 
L 195.57674 508.85203 
L 196.799202 508.902088 
L 201.689048 509.676671 
L 210.24628 510.20153 
L 215.136127 510.043562 
L 217.58105 509.828095 
L 220.025974 509.526505 
L 221.248435 509.506478 
L 223.693359 509.794361 
L 227.360744 510.306407 
L 231.028129 510.45309 
L 240.807822 510.498521 
L 248.142592 510.512424 
L 260.367209 510.51575 
L 265.257056 510.371192 
L 267.701979 510.055847 
L 271.369364 509.266555 
L 272.591826 509.212252 
L 275.036749 509.465469 
L 278.704134 509.86056 
L 283.593981 510.178641 
L 284.816443 510.177291 
L 286.038904 509.694402 
L 287.261366 507.232074 
L 288.483828 500.563481 
L 289.706289 489.318075 
L 290.928751 477.033531 
L 292.151213 469.158435 
L 293.373674 468.873738 
L 294.596136 475.268665 
L 297.041059 494.154891 
L 298.263521 501.13309 
L 299.485983 505.406898 
L 300.708444 507.562051 
L 301.930906 508.450754 
L 303.153368 508.761168 
L 308.043214 509.230034 
L 310.488138 509.252136 
L 316.600446 509.00375 
L 319.04537 508.828931 
L 321.490293 508.895269 
L 323.935216 508.946693 
L 327.602601 508.575858 
L 330.047525 508.858733 
L 332.492448 509.070138 
L 334.937371 509.208967 
L 338.604756 509.651628 
L 341.04968 509.644212 
L 343.494603 509.491862 
L 345.939526 509.001301 
L 347.161988 508.708644 
L 348.38445 508.578913 
L 349.606912 508.685784 
L 350.829373 508.930699 
L 352.051835 508.825064 
L 353.274297 507.180371 
L 354.496758 502.720347 
L 356.941682 489.332079 
L 358.164143 486.238612 
L 359.386605 487.64481 
L 360.609067 492.282724 
L 361.831528 497.93174 
L 363.05399 502.817734 
L 364.276452 506.166278 
L 365.498913 508.03319 
L 366.721375 508.870829 
L 367.943837 509.167544 
L 376.501068 509.788626 
L 378.945992 509.800585 
L 380.168453 509.656659 
L 382.613377 509.007412 
L 386.280762 508.013518 
L 387.503224 507.776581 
L 389.948147 507.594911 
L 391.170609 507.319589 
L 392.39307 506.654162 
L 393.615532 505.790672 
L 394.837994 505.229191 
L 396.060455 505.338364 
L 397.282917 506.065306 
L 399.72784 507.99615 
L 400.950302 508.700597 
L 402.172764 509.153471 
L 403.395225 509.362085 
L 404.617687 509.327978 
L 408.285072 508.590345 
L 409.507534 508.543735 
L 411.952457 508.883856 
L 414.39738 509.328072 
L 416.842304 509.534831 
L 422.954612 509.732008 
L 431.511844 509.252233 
L 432.734306 508.883877 
L 433.956767 507.528385 
L 435.179229 504.779217 
L 436.401691 501.366628 
L 437.624152 498.838719 
L 438.846614 498.115719 
L 441.291537 499.171984 
L 442.513999 498.984782 
L 443.736461 498.237279 
L 444.958922 496.769194 
L 446.181384 493.193905 
L 447.403846 485.923414 
L 449.848769 465.695708 
L 451.071231 460.853812 
L 452.293693 463.074439 
L 453.516154 470.860296 
L 454.738616 480.730146 
L 455.961078 489.197128 
L 457.183539 491.974138 
L 458.406001 481.360025 
L 459.628463 449.674635 
L 462.073386 351.944645 
L 463.295848 326.324533 
L 464.518309 332.561638 
L 465.740771 363.561733 
L 468.185694 441.668862 
L 469.408156 469.07054 
L 470.630618 485.928673 
L 471.853079 494.854628 
L 473.075541 499.067575 
L 474.298003 501.01296 
L 475.520464 502.06419 
L 476.742926 502.795827 
L 477.965388 503.378097 
L 479.187849 503.832759 
L 480.410311 504.097887 
L 481.632773 504.040629 
L 482.855234 503.583346 
L 484.077696 502.892604 
L 485.300158 502.378932 
L 486.52262 502.425944 
L 487.745081 503.103442 
L 490.190005 504.980424 
L 491.412466 505.340291 
L 492.634928 505.072757 
L 493.85739 504.20941 
L 496.302313 501.573288 
L 497.524775 500.832921 
L 498.747236 501.12296 
L 499.969698 502.390698 
L 502.414621 505.937055 
L 503.637083 507.330618 
L 504.859545 508.258165 
L 506.082006 508.79368 
L 507.304468 509.072072 
L 509.749391 509.305444 
L 517.084161 509.686951 
L 521.974008 509.742653 
L 525.641393 509.477784 
L 528.086317 509.35865 
L 531.753702 509.580442 
L 534.198625 509.644512 
L 539.088472 509.446022 
L 548.868165 509.849195 
L 557.425397 509.81767 
L 563.537705 509.315774 
L 572.094937 509.726738 
L 589.209401 509.489503 
L 602.656479 509.080703 
L 607.546326 508.696876 
L 617.326019 507.706435 
L 619.770942 507.133813 
L 620.993404 506.688712 
L 622.215866 505.981447 
L 623.438328 504.566011 
L 624.660789 501.32371 
L 625.883251 494.450228 
L 627.105713 482.709256 
L 628.328174 467.614291 
L 629.550636 454.038681 
L 630.773098 447.52973 
L 631.995559 450.495306 
L 633.218021 460.932117 
L 635.662944 486.72416 
L 636.885406 495.841577 
L 638.107868 501.505252 
L 639.330329 504.567764 
L 640.552791 506.098891 
L 641.775253 506.90547 
L 642.997714 507.420828 
L 645.442638 508.061255 
L 651.554946 508.941119 
L 655.222331 509.770727 
L 657.667255 510.067055 
L 662.557101 510.304114 
L 669.891871 510.440557 
L 682.116488 510.494843 
L 689.451258 510.524672 
L 691.896182 510.42078 
L 693.118643 510.217854 
L 698.00849 508.849408 
L 699.230952 508.957703 
L 704.120798 510.052794 
L 706.565722 510.288303 
L 712.67803 510.443967 
L 726.125109 510.621522 
L 753.019265 510.574752 
L 756.68665 510.409177 
L 761.576497 510.568154 
L 765.243882 510.58469 
L 767.688806 510.457302 
L 770.133729 510.137283 
L 772.578652 509.778131 
L 773.801114 509.725429 
L 776.246037 509.965891 
L 779.913422 510.483438 
L 783.580807 510.647038 
L 795.805424 510.710987 
L 816.587273 510.733951 
L 816.587273 510.733951 
" clip-path="url(#p278b77aa2f)" style="fill: none; stroke: #0000ff; stroke-width: 1.5; stroke-linecap: square"/>
   </g>
   <g id="line2d_14">
    <path d="M 201.835499 234.166082 
L 290.881075 234.09984 
L 290.881075 234.037014 
L 291.584235 233.97179 
L 291.584235 233.872305 
L 292.279082 233.873266 
L 292.279082 233.771124 
L 292.618193 233.848043 
L 292.618193 233.691877 
L 292.955348 233.774444 
L 292.955348 233.620533 
L 293.291525 233.464818 
L 293.962167 233.465027 
L 293.962167 233.405503 
L 294.296388 233.662402 
L 294.296388 233.416791 
L 294.630854 233.564486 
L 294.630854 233.380034 
L 294.966297 233.573955 
L 294.966297 233.369066 
L 295.306386 233.572126 
L 295.306386 233.402435 
L 295.640607 233.578862 
L 295.640607 233.38609 
L 295.974828 233.576804 
L 295.974828 233.427261 
L 296.311494 233.600804 
L 296.311494 233.451749 
L 296.64816 233.639959 
L 296.64816 233.445252 
L 297.322226 233.696042 
L 297.322226 233.552394 
L 298.678425 233.726242 
L 298.678425 233.585147 
L 299.020469 233.750768 
L 299.020469 233.650592 
L 299.363981 233.777261 
L 299.363981 233.619061 
L 300.411142 233.708183 
L 300.760032 233.85821 
L 300.760032 233.736408 
L 301.108434 233.837829 
L 301.108434 233.722573 
L 302.159262 233.750399 
L 302.159262 233.787197 
L 302.510353 233.923785 
L 302.510353 233.827421 
L 303.214491 233.90418 
L 303.214491 233.820672 
L 304.273876 233.994606 
L 304.273876 233.925768 
L 304.980703 233.988432 
L 304.980703 233.917254 
L 306.049624 234.023075 
L 306.049624 233.978988 
L 306.404138 234.031028 
L 306.404138 233.968402 
L 308.541979 233.968213 
L 309.610166 234.073364 
L 309.610166 234.030769 
L 310.687399 234.069415 
L 310.687399 234.035137 
L 315.352313 234.113137 
L 317.86545 234.127687 
L 317.86545 234.112384 
L 460.230647 234.111081 
L 460.230647 233.937954 
L 460.587851 233.750903 
L 460.587851 232.963262 
L 460.943342 232.436284 
L 460.943342 230.289376 
L 461.295411 229.011805 
L 461.295411 224.237231 
L 461.649192 221.992376 
L 461.649192 213.496465 
L 461.994415 211.779188 
L 461.994415 197.639301 
L 462.334748 197.039688 
L 462.334748 177.796733 
L 462.668236 179.136854 
L 462.668236 157.200149 
L 463.000256 162.116548 
L 463.000256 136.12039 
L 463.33081 147.952956 
L 463.33081 113.077162 
L 463.661119 127.263236 
L 463.661119 92.063839 
L 463.989961 110.538471 
L 463.989961 72.523544 
L 464.318804 101.706587 
L 464.318804 63.313324 
L 464.650824 94.189612 
L 464.650824 50.652257 
L 464.979177 86.063621 
L 464.979177 49.932727 
L 465.307775 86.204668 
L 465.307775 50.702837 
L 465.636128 94.589055 
L 465.636128 54.038459 
L 465.964726 91.470314 
L 465.964726 53.09669 
L 466.293568 91.173964 
L 466.293568 57.356261 
L 466.627545 97.423423 
L 466.627545 66.297461 
L 466.956387 106.850111 
L 466.956387 73.668183 
L 467.284985 109.662277 
L 467.284985 86.594588 
L 467.613582 120.383697 
L 467.613582 94.121729 
L 467.943158 129.382945 
L 467.943158 107.323529 
L 468.272245 134.991504 
L 468.272245 112.206038 
L 468.60182 141.909117 
L 468.60182 117.140112 
L 468.93164 142.490414 
L 468.93164 120.494437 
L 469.261705 145.626723 
L 469.261705 125.278578 
L 469.592503 154.083117 
L 469.592503 135.567724 
L 469.923301 160.015258 
L 469.923301 146.283772 
L 470.254588 169.828672 
L 470.254588 156.547822 
L 470.587343 177.518896 
L 470.587343 164.787122 
L 470.919363 180.977462 
L 470.919363 166.683839 
L 471.251139 181.445202 
L 471.251139 168.178044 
L 471.589028 183.545602 
L 471.589028 172.066835 
L 471.921537 186.99204 
L 471.921537 177.51414 
L 472.255514 191.592887 
L 472.255514 181.619988 
L 472.590468 194.338085 
L 472.590468 184.396914 
L 472.926401 195.28338 
L 472.926401 187.288718 
L 473.2616 198.047248 
L 473.2616 189.703839 
L 473.596799 200.907329 
L 473.596799 193.673119 
L 473.93591 202.709422 
L 473.93591 195.632709 
L 474.27282 204.787641 
L 474.27282 197.388702 
L 474.610464 205.719228 
L 474.610464 198.357066 
L 474.947863 206.131694 
L 474.947863 200.031783 
L 475.305311 208.255994 
L 475.305311 202.180487 
L 475.6454 210.32061 
L 475.6454 205.035058 
L 475.986222 211.453478 
L 475.986222 205.487473 
L 476.327289 211.888663 
L 476.327289 206.393697 
L 476.674224 212.222842 
L 476.674224 207.614994 
L 477.015291 213.879308 
L 477.015291 209.575464 
L 477.356602 215.435864 
L 477.356602 210.925906 
L 477.698891 216.121932 
L 477.698891 212.312439 
L 478.045826 216.972638 
L 478.045826 212.845508 
L 478.39276 217.431176 
L 478.39276 213.847348 
L 478.740184 218.275125 
L 478.740184 214.208054 
L 479.08663 218.734235 
L 479.08663 215.383722 
L 479.432831 219.257071 
L 479.432831 215.76318 
L 479.780254 220.171833 
L 479.780254 217.218767 
L 480.124744 221.200248 
L 480.124744 217.940006 
L 480.472901 221.359989 
L 480.472901 218.150789 
L 480.817635 221.228792 
L 480.817635 218.133291 
L 481.165059 221.689565 
L 481.165059 219.312581 
L 481.51395 222.67617 
L 481.51395 220.199218 
L 481.868708 223.403376 
L 481.868708 220.675869 
L 482.221755 223.332816 
L 482.221755 221.064318 
L 482.571134 223.687918 
L 482.571134 221.422517 
L 482.921003 224.325145 
L 482.921003 222.092778 
L 483.271849 224.594596 
L 483.271849 222.390451 
L 483.622451 224.926736 
L 483.622451 222.619689 
L 483.973053 225.07714 
L 483.973053 223.157028 
L 484.324389 225.556799 
L 484.324389 223.317867 
L 484.675235 225.832744 
L 484.675235 223.917143 
L 485.026571 225.979476 
L 485.026571 224.141258 
L 485.378884 226.276016 
L 485.378884 224.475863 
L 485.729975 226.615416 
L 485.729975 224.848069 
L 486.081066 227.007235 
L 486.081066 225.472932 
L 486.431668 227.418728 
L 486.431668 225.749674 
L 486.787649 227.760531 
L 486.787649 226.167463 
L 487.138007 227.913945 
L 487.138007 226.504169 
L 487.48812 228.331589 
L 487.48812 226.820855 
L 487.838722 228.532102 
L 487.838722 227.129731 
L 488.189079 228.644235 
L 488.189079 227.268029 
L 488.539681 228.841797 
L 488.539681 227.607823 
L 488.890528 229.24271 
L 488.890528 227.975894 
L 489.241374 229.431667 
L 489.241374 228.276155 
L 489.592221 229.561122 
L 489.592221 228.28218 
L 489.946001 229.565487 
L 489.946001 228.490694 
L 490.297826 229.7182 
L 490.297826 228.743402 
L 490.650628 230.05067 
L 490.650628 229.090125 
L 491.003675 230.211276 
L 491.003675 229.051333 
L 491.357455 230.122191 
L 491.357455 229.190479 
L 491.716615 230.23698 
L 491.716615 229.273584 
L 492.070884 230.475031 
L 492.070884 229.567215 
L 492.425887 230.527182 
L 492.425887 229.711084 
L 492.781868 230.727353 
L 492.781868 229.862164 
L 493.137115 230.823195 
L 493.137115 229.920313 
L 493.496274 230.797816 
L 493.496274 230.017439 
L 493.851033 230.899093 
L 493.851033 230.255262 
L 494.205791 231.212276 
L 494.205791 230.444058 
L 494.559816 231.240927 
L 494.559816 230.597163 
L 494.913107 231.257409 
L 494.913107 230.680684 
L 495.266643 231.541552 
L 495.266643 230.922595 
L 495.61969 231.634721 
L 495.61969 231.113546 
L 495.973471 231.776036 
L 495.973471 231.072602 
L 496.326273 231.80208 
L 496.326273 231.252955 
L 496.684943 231.85353 
L 496.684943 231.283869 
L 497.037501 231.995627 
L 497.037501 231.457023 
L 497.38957 232.06255 
L 497.38957 231.523972 
L 497.743351 232.084391 
L 497.743351 231.565062 
L 498.094686 232.067349 
L 498.094686 231.501268 
L 498.445777 232.006854 
L 498.445777 231.468378 
L 498.796868 231.968931 
L 498.796868 231.556052 
L 499.14747 232.102375 
L 499.14747 231.673368 
L 499.495627 232.241295 
L 499.495627 231.827569 
L 499.845985 232.350345 
L 499.845985 231.911684 
L 500.194631 232.413083 
L 500.194631 231.934076 
L 500.54401 232.375229 
L 500.54401 231.923675 
L 500.893146 232.403366 
L 500.893146 232.005805 
L 501.242525 232.493914 
L 501.242525 232.131754 
L 501.598506 232.572087 
L 501.598506 232.20752 
L 501.950086 232.66677 
L 501.950086 232.25742 
L 502.302399 232.645404 
L 502.302399 232.264099 
L 502.655202 232.648515 
L 502.655202 232.26912 
L 503.008738 232.694905 
L 503.008738 232.341828 
L 503.362518 232.75986 
L 503.362518 232.403134 
L 503.721188 232.757456 
L 503.721188 232.431308 
L 504.077414 232.798901 
L 504.077414 232.442549 
L 504.432906 232.823883 
L 504.432906 232.466639 
L 504.789864 232.812329 
L 504.789864 232.457404 
L 505.147557 232.817124 
L 505.147557 232.510275 
L 505.505004 232.873577 
L 505.505004 232.523418 
L 505.864653 232.900465 
L 505.864653 232.577197 
L 506.224056 232.903796 
L 506.224056 232.635564 
L 506.58835 232.975974 
L 506.58835 232.670079 
L 506.948976 232.978415 
L 506.948976 232.645556 
L 507.309847 232.920674 
L 507.309847 232.642326 
L 507.67194 232.972733 
L 507.67194 232.685018 
L 508.033055 233.05217 
L 508.033055 232.750047 
L 508.395393 233.043409 
L 508.395393 232.729116 
L 508.757975 233.070478 
L 508.757975 232.73229 
L 509.120557 233.078833 
L 509.120557 232.799792 
L 509.48534 233.118759 
L 509.48534 232.810741 
L 509.849633 233.141495 
L 509.849633 232.861041 
L 510.212215 233.15624 
L 510.212215 232.878422 
L 510.574798 233.186227 
L 510.574798 232.908107 
L 510.93738 233.177194 
L 510.93738 232.942555 
L 511.299962 233.244788 
L 511.299962 232.957511 
L 511.667923 233.225203 
L 511.667923 232.963731 
L 512.03026 233.229263 
L 512.03026 232.980827 
L 512.393087 233.238151 
L 512.393087 233.022355 
L 512.755669 233.280889 
L 512.755669 233.041785 
L 513.118251 233.272414 
L 513.118251 233.043425 
L 513.480833 233.306607 
L 513.480833 233.079006 
L 513.843416 233.33328 
L 513.843416 233.102289 
L 514.205998 233.364885 
L 514.205998 233.107523 
L 514.572247 233.356962 
L 514.572247 233.120201 
L 514.934829 233.365277 
L 514.934829 233.146422 
L 515.297656 233.405883 
L 515.297656 233.171757 
L 515.660238 233.408694 
L 515.660238 233.207155 
L 516.02282 233.430532 
L 516.02282 233.200314 
L 516.385158 233.442661 
L 516.385158 233.212375 
L 516.753119 233.428931 
L 516.753119 233.202481 
L 517.115701 233.440821 
L 517.115701 233.225814 
L 517.478283 233.451815 
L 517.478283 233.234557 
L 517.84111 233.470966 
L 517.84111 233.244309 
L 518.203692 233.456744 
L 518.203692 233.268353 
L 518.566274 233.483704 
L 518.566274 233.278066 
L 518.928856 233.493068 
L 518.928856 233.308812 
L 519.291194 233.491137 
L 519.291194 233.317332 
L 519.65402 233.528898 
L 519.65402 233.332674 
L 520.016603 233.532496 
L 520.016603 233.352297 
L 520.379185 233.515808 
L 520.379185 233.347693 
L 520.741767 233.547382 
L 520.741767 233.366496 
L 521.104349 233.559446 
L 521.104349 233.394986 
L 521.466687 233.557102 
L 521.466687 233.390748 
L 521.834648 233.569316 
L 521.834648 233.401608 
L 522.197474 233.582 
L 522.197474 233.427434 
L 522.560056 233.592352 
L 522.560056 233.42625 
L 522.922638 233.589917 
L 522.922638 233.442423 
L 523.285221 233.604446 
L 523.285221 233.445736 
L 523.647803 233.622465 
L 523.647803 233.462477 
L 524.010385 233.617892 
L 524.010385 233.479294 
L 524.377612 233.648623 
L 524.377612 233.497723 
L 524.740194 233.668281 
L 524.740194 233.526436 
L 525.102777 233.666493 
L 525.102777 233.521603 
L 525.465359 233.675116 
L 525.465359 233.54025 
L 525.827941 233.677413 
L 525.827941 233.53881 
L 526.190523 233.685288 
L 526.190523 233.548805 
L 526.553105 233.688871 
L 526.553105 233.554479 
L 526.921066 233.696959 
L 526.921066 233.569478 
L 527.283648 233.701361 
L 527.283648 233.574967 
L 527.64623 233.725405 
L 527.64623 233.563042 
L 528.008813 233.707028 
L 528.008813 233.584008 
L 528.37115 233.70843 
L 528.37115 233.568698 
L 528.733732 233.7313 
L 528.733732 233.599135 
L 529.096314 233.73847 
L 529.096314 233.605226 
L 529.458897 233.740138 
L 529.458897 233.605719 
L 529.821723 233.72682 
L 529.821723 233.593006 
L 530.184305 233.7378 
L 530.184305 233.616408 
L 530.909225 233.754343 
L 530.909225 233.636523 
L 531.271807 233.755607 
L 531.271807 233.644101 
L 532.004306 233.774923 
L 532.004306 233.652886 
L 532.367133 233.781132 
L 532.367133 233.664296 
L 533.092297 233.775919 
L 533.092297 233.653197 
L 533.817461 233.784742 
L 533.817461 233.687386 
L 534.545804 233.81161 
L 534.545804 233.697496 
L 535.271213 233.796098 
L 535.271213 233.712603 
L 535.996133 233.834893 
L 535.996133 233.726197 
L 536.721297 233.835397 
L 536.721297 233.73853 
L 537.089258 233.850329 
L 537.089258 233.756214 
L 537.452084 233.8411 
L 537.452084 233.725325 
L 538.178471 233.820787 
L 538.178471 233.731422 
L 538.904369 233.843719 
L 538.904369 233.763816 
L 539.629533 233.860116 
L 539.629533 233.774201 
L 540.354698 233.86371 
L 540.354698 233.795612 
L 541.079862 233.880863 
L 541.079862 233.790402 
L 541.805026 233.860786 
L 541.805026 233.769969 
L 542.535569 233.868614 
L 542.535569 233.786233 
L 543.260733 233.88977 
L 543.260733 233.815132 
L 543.989076 233.908062 
L 543.989076 233.834844 
L 544.71424 233.901402 
L 544.71424 233.825717 
L 545.440872 233.907501 
L 545.440872 233.815136 
L 546.166036 233.900658 
L 546.166036 233.825395 
L 546.8912 233.929371 
L 546.8912 233.840617 
L 547.621743 233.890251 
L 547.621743 233.806601 
L 548.346907 233.906784 
L 548.346907 233.831152 
L 549.072072 233.923741 
L 549.072072 233.857747 
L 549.79748 233.943106 
L 549.79748 233.869336 
L 550.5224 233.940157 
L 550.5224 233.867315 
L 551.247565 233.962946 
L 551.247565 233.888629 
L 551.972973 233.963997 
L 551.972973 233.886969 
L 552.70914 233.952073 
L 552.70914 233.887444 
L 553.434304 233.975122 
L 553.434304 233.910904 
L 554.159468 233.967114 
L 554.159468 233.894296 
L 554.884633 233.968432 
L 554.884633 233.900915 
L 555.609797 233.989172 
L 555.609797 233.924883 
L 556.334717 233.977609 
L 556.334717 233.907086 
L 557.059881 233.98093 
L 557.059881 233.91707 
L 557.790424 233.991372 
L 557.790424 233.926554 
L 558.515344 233.975112 
L 558.515344 233.914941 
L 559.240508 233.970439 
L 559.240508 233.906524 
L 560.329721 233.982987 
L 560.329721 233.928523 
L 561.054641 233.986727 
L 561.054641 233.930708 
L 562.142388 233.996109 
L 562.142388 233.938284 
L 562.876842 233.986626 
L 562.876842 233.934717 
L 563.964589 233.992963 
L 563.964589 233.937061 
L 565.05258 234.004603 
L 565.05258 233.947472 
L 565.7775 233.995128 
L 565.7775 233.942341 
L 566.502664 234.010419 
L 566.502664 233.957007 
L 567.597256 234.008511 
L 567.597256 233.956864 
L 568.685002 234.000772 
L 568.685002 233.95669 
L 569.772749 234.002989 
L 569.772749 233.963367 
L 570.860251 234.009957 
L 570.860251 233.962633 
L 572.310824 234.031565 
L 572.310824 233.969122 
L 573.403704 234.010319 
L 573.403704 233.957528 
L 574.492429 234.012574 
L 574.492429 233.960151 
L 575.580175 234.006446 
L 575.580175 233.954164 
L 576.667922 234.027812 
L 576.667922 233.97723 
L 577.761047 234.028074 
L 577.761047 233.991203 
L 578.848793 234.024329 
L 578.848793 233.98496 
L 579.93654 234.031887 
L 579.93654 233.9898 
L 581.024286 234.048609 
L 581.024286 234.009655 
L 582.11301 234.040922 
L 582.11301 233.995484 
L 583.205647 234.042693 
L 583.205647 234.000075 
L 584.296327 234.049807 
L 584.296327 234.001233 
L 585.021247 234.043413 
L 585.021247 234.003869 
L 587.558344 234.0068 
L 589.014785 234.055478 
L 589.014785 234.022661 
L 590.464624 234.07034 
L 590.464624 234.032396 
L 592.276801 234.077846 
L 592.276801 234.036289 
L 593.372861 234.070491 
L 593.372861 234.0329 
L 595.54762 234.077025 
L 595.54762 234.043519 
L 596.998926 234.083496 
L 596.998926 234.050888 
L 598.091807 234.079992 
L 598.091807 234.031627 
L 599.179309 234.077312 
L 599.179309 234.046096 
L 600.991486 234.085086 
L 600.991486 234.050663 
L 602.441326 234.067552 
L 602.441326 234.038462 
L 603.901678 234.077233 
L 603.901678 234.048674 
L 605.713856 234.083572 
L 605.713856 234.050095 
L 607.526277 234.101132 
L 607.526277 234.068237 
L 609.344078 234.084331 
L 609.344078 234.047666 
L 610.433291 234.037183 
L 627.495678 234.079706 
L 627.495678 234.074794 
L 641.299471 234.076819 
L 642.714592 234.103857 
L 644.506721 234.086771 
L 644.506721 234.09037 
L 645.581509 234.12513 
L 645.581509 234.097739 
L 657.862848 234.117129 
L 657.862848 234.092787 
L 660.043476 234.123986 
L 660.043476 234.10255 
L 674.933303 234.116085 
L 677.471378 234.12943 
L 677.471378 234.112676 
L 679.653472 234.134704 
L 679.653472 234.113616 
L 697.083086 234.121254 
L 697.083086 234.121917 
L 698.533659 234.123938 
L 719.234826 234.13123 
L 719.234826 234.137667 
L 721.053604 234.129756 
L 723.958662 234.132279 
L 723.958662 234.138797 
L 726.140023 234.142859 
L 726.140023 234.127019 
L 742.853519 234.143362 
L 742.853519 234.153613 
L 745.398195 234.132282 
L 754.839022 234.132814 
L 761.022478 234.127766 
L 761.022478 234.130128 
L 767.557024 234.133255 
L 767.557024 234.138304 
L 782.425826 234.127613 
L 788.578231 234.158354 
L 788.578231 234.150167 
L 801.588401 234.155751 
L 801.588401 234.152228 
L 807.251333 234.16178 
L 812.877835 234.171787 
L 812.877835 234.168252 
" clip-path="url(#p278b77aa2f)" style="fill: none; stroke: #008000; stroke-width: 1.5; stroke-linecap: square"/>
   </g>
   <g id="patch_3">
    <path d="M 47.72 534.04 
L 47.72 26.88 
" style="fill: none; stroke: #000000; stroke-width: 0.8; stroke-linejoin: miter; stroke-linecap: square"/>
   </g>
   <g id="patch_4">
    <path d="M 853.2 534.04 
L 853.2 26.88 
" style="fill: none; stroke: #000000; stroke-width: 0.8; stroke-linejoin: miter; stroke-linecap: square"/>
   </g>
   <g id="patch_5">
    <path d="M 47.72 534.04 
L 853.2 534.04 
" style="fill: none; stroke: #000000; stroke-width: 0.8; stroke-linejoin: miter; stroke-linecap: square"/>
   </g>
   <g id="patch_6">
    <path d="M 47.72 26.88 
L 853.2 26.88 
" style="fill: none; stroke: #000000; stroke-width: 0.8; stroke-linejoin: miter; stroke-linecap: square"/>
   </g>
   <g id="patch_7">
    <path d="M 532.628968 319.43141 
Q 506.477674 325.259546 480.32638 331.087682 
L 481.196483 334.9919 
Q 474.689313 333.368504 468.182144 331.745108 
Q 473.384159 327.512177 478.586174 323.279245 
L 479.456277 327.183464 
Q 505.607571 321.355328 531.758865 315.527192 
L 532.628968 319.43141 
z
" style="stroke: #000000; stroke-linecap: round"/>
   </g>
   <g id="text_15">
    <!-- Peak: RT=2.60, Area=2.26e+04 -->
    <g style="fill: #ff0000" transform="translate(537.86601 302.937705) scale(0.1 -0.1)">
     <defs>
      <path id="DejaVuSans-50" d="M 1259 4147 
L 1259 2394 
L 2053 2394 
Q 2494 2394 2734 2622 
Q 2975 2850 2975 3272 
Q 2975 3691 2734 3919 
Q 2494 4147 2053 4147 
L 1259 4147 
z
M 628 4666 
L 2053 4666 
Q 2838 4666 3239 4311 
Q 3641 3956 3641 3272 
Q 3641 2581 3239 2228 
Q 2838 1875 2053 1875 
L 1259 1875 
L 1259 0 
L 628 0 
L 628 4666 
z
" transform="scale(0.015625)"/>
      <path id="DejaVuSans-6b" d="M 581 4863 
L 1159 4863 
L 1159 1991 
L 2875 3500 
L 3609 3500 
L 1753 1863 
L 3688 0 
L 2938 0 
L 1159 1709 
L 1159 0 
L 581 0 
L 581 4863 
z
" transform="scale(0.015625)"/>
      <path id="DejaVuSans-3a" d="M 750 794 
L 1409 794 
L 1409 0 
L 750 0 
L 750 794 
z
M 750 3309 
L 1409 3309 
L 1409 2516 
L 750 2516 
L 750 3309 
z
" transform="scale(0.015625)"/>
      <path id="DejaVuSans-3d" d="M 678 2906 
L 4684 2906 
L 4684 2381 
L 678 2381 
L 678 2906 
z
M 678 1631 
L 4684 1631 
L 4684 1100 
L 678 1100 
L 678 1631 
z
" transform="scale(0.015625)"/>
      <path id="DejaVuSans-36" d="M 2113 2584 
Q 1688 2584 1439 2293 
Q 1191 2003 1191 1497 
Q 1191 994 1439 701 
Q 1688 409 2113 409 
Q 2538 409 2786 701 
Q 3034 994 3034 1497 
Q 3034 2003 2786 2293 
Q 2538 2584 2113 2584 
z
M 3366 4563 
L 3366 3988 
Q 3128 4100 2886 4159 
Q 2644 4219 2406 4219 
Q 1781 4219 1451 3797 
Q 1122 3375 1075 2522 
Q 1259 2794 1537 2939 
Q 1816 3084 2150 3084 
Q 2853 3084 3261 2657 
Q 3669 2231 3669 1497 
Q 3669 778 3244 343 
Q 2819 -91 2113 -91 
Q 1303 -91 875 529 
Q 447 1150 447 2328 
Q 447 3434 972 4092 
Q 1497 4750 2381 4750 
Q 2619 4750 2861 4703 
Q 3103 4656 3366 4563 
z
" transform="scale(0.015625)"/>
      <path id="DejaVuSans-2c" d="M 750 794 
L 1409 794 
L 1409 256 
L 897 -744 
L 494 -744 
L 750 256 
L 750 794 
z
" transform="scale(0.015625)"/>
      <path id="DejaVuSans-41" d="M 2188 4044 
L 1331 1722 
L 3047 1722 
L 2188 4044 
z
M 1831 4666 
L 2547 4666 
L 4325 0 
L 3669 0 
L 3244 1197 
L 1141 1197 
L 716 0 
L 50 0 
L 1831 4666 
z
" transform="scale(0.015625)"/>
      <path id="DejaVuSans-2b" d="M 2944 4013 
L 2944 2272 
L 4684 2272 
L 4684 1741 
L 2944 1741 
L 2944 0 
L 2419 0 
L 2419 1741 
L 678 1741 
L 678 2272 
L 2419 2272 
L 2419 4013 
L 2944 4013 
z
" transform="scale(0.015625)"/>
     </defs>
     <use xlink:href="#DejaVuSans-50"/>
     <use xlink:href="#DejaVuSans-65" transform="translate(56.677734 0)"/>
     <use xlink:href="#DejaVuSans-61" transform="translate(118.201172 0)"/>
     <use xlink:href="#DejaVuSans-6b" transform="translate(179.480469 0)"/>
     <use xlink:href="#DejaVuSans-3a" transform="translate(237.390625 0)"/>
     <use xlink:href="#DejaVuSans-20" transform="translate(271.082031 0)"/>
     <use xlink:href="#DejaVuSans-52" transform="translate(302.869141 0)"/>
     <use xlink:href="#DejaVuSans-54" transform="translate(365.101562 0)"/>
     <use xlink:href="#DejaVuSans-3d" transform="translate(426.185547 0)"/>
     <use xlink:href="#DejaVuSans-32" transform="translate(509.974609 0)"/>
     <use xlink:href="#DejaVuSans-2e" transform="translate(573.597656 0)"/>
     <use xlink:href="#DejaVuSans-36" transform="translate(605.384766 0)"/>
     <use xlink:href="#DejaVuSans-30" transform="translate(669.007812 0)"/>
     <use xlink:href="#DejaVuSans-2c" transform="translate(732.630859 0)"/>
     <use xlink:href="#DejaVuSans-20" transform="translate(764.417969 0)"/>
     <use xlink:href="#DejaVuSans-41" transform="translate(796.205078 0)"/>
     <use xlink:href="#DejaVuSans-72" transform="translate(864.613281 0)"/>
     <use xlink:href="#DejaVuSans-65" transform="translate(903.476562 0)"/>
     <use xlink:href="#DejaVuSans-61" transform="translate(965 0)"/>
     <use xlink:href="#DejaVuSans-3d" transform="translate(1026.279297 0)"/>
     <use xlink:href="#DejaVuSans-32" transform="translate(1110.068359 0)"/>
     <use xlink:href="#DejaVuSans-2e" transform="translate(1173.691406 0)"/>
     <use xlink:href="#DejaVuSans-32" transform="translate(1205.478516 0)"/>
     <use xlink:href="#DejaVuSans-36" transform="translate(1269.101562 0)"/>
     <use xlink:href="#DejaVuSans-65" transform="translate(1332.724609 0)"/>
     <use xlink:href="#DejaVuSans-2b" transform="translate(1394.248047 0)"/>
     <use xlink:href="#DejaVuSans-30" transform="translate(1478.037109 0)"/>
     <use xlink:href="#DejaVuSans-34" transform="translate(1541.660156 0)"/>
    </g>
    <!-- (57.67% of total) -->
    <g style="fill: #ff0000" transform="translate(537.86601 314.135518) scale(0.1 -0.1)">
     <defs>
      <path id="DejaVuSans-37" d="M 525 4666 
L 3525 4666 
L 3525 4397 
L 1831 0 
L 1172 0 
L 2766 4134 
L 525 4134 
L 525 4666 
z
" transform="scale(0.015625)"/>
      <path id="DejaVuSans-25" d="M 4653 2053 
Q 4381 2053 4226 1822 
Q 4072 1591 4072 1178 
Q 4072 772 4226 539 
Q 4381 306 4653 306 
Q 4919 306 5073 539 
Q 5228 772 5228 1178 
Q 5228 1588 5073 1820 
Q 4919 2053 4653 2053 
z
M 4653 2450 
Q 5147 2450 5437 2106 
Q 5728 1763 5728 1178 
Q 5728 594 5436 251 
Q 5144 -91 4653 -91 
Q 4153 -91 3862 251 
Q 3572 594 3572 1178 
Q 3572 1766 3864 2108 
Q 4156 2450 4653 2450 
z
M 1428 4353 
Q 1159 4353 1004 4120 
Q 850 3888 850 3481 
Q 850 3069 1003 2837 
Q 1156 2606 1428 2606 
Q 1700 2606 1854 2837 
Q 2009 3069 2009 3481 
Q 2009 3884 1853 4118 
Q 1697 4353 1428 4353 
z
M 4250 4750 
L 4750 4750 
L 1831 -91 
L 1331 -91 
L 4250 4750 
z
M 1428 4750 
Q 1922 4750 2215 4408 
Q 2509 4066 2509 3481 
Q 2509 2891 2217 2550 
Q 1925 2209 1428 2209 
Q 931 2209 642 2551 
Q 353 2894 353 3481 
Q 353 4063 643 4406 
Q 934 4750 1428 4750 
z
" transform="scale(0.015625)"/>
      <path id="DejaVuSans-66" d="M 2375 4863 
L 2375 4384 
L 1825 4384 
Q 1516 4384 1395 4259 
Q 1275 4134 1275 3809 
L 1275 3500 
L 2222 3500 
L 2222 3053 
L 1275 3053 
L 1275 0 
L 697 0 
L 697 3053 
L 147 3053 
L 147 3500 
L 697 3500 
L 697 3744 
Q 697 4328 969 4595 
Q 1241 4863 1831 4863 
L 2375 4863 
z
" transform="scale(0.015625)"/>
     </defs>
     <use xlink:href="#DejaVuSans-28"/>
     <use xlink:href="#DejaVuSans-35" transform="translate(39.013672 0)"/>
     <use xlink:href="#DejaVuSans-37" transform="translate(102.636719 0)"/>
     <use xlink:href="#DejaVuSans-2e" transform="translate(166.259766 0)"/>
     <use xlink:href="#DejaVuSans-36" transform="translate(198.046875 0)"/>
     <use xlink:href="#DejaVuSans-37" transform="translate(261.669922 0)"/>
     <use xlink:href="#DejaVuSans-25" transform="translate(325.292969 0)"/>
     <use xlink:href="#DejaVuSans-20" transform="translate(420.3125 0)"/>
     <use xlink:href="#DejaVuSans-6f" transform="translate(452.099609 0)"/>
     <use xlink:href="#DejaVuSans-66" transform="translate(513.28125 0)"/>
     <use xlink:href="#DejaVuSans-20" transform="translate(548.486328 0)"/>
     <use xlink:href="#DejaVuSans-74" transform="translate(580.273438 0)"/>
     <use xlink:href="#DejaVuSans-6f" transform="translate(619.482422 0)"/>
     <use xlink:href="#DejaVuSans-74" transform="translate(680.664062 0)"/>
     <use xlink:href="#DejaVuSans-61" transform="translate(719.873047 0)"/>
     <use xlink:href="#DejaVuSans-6c" transform="translate(781.152344 0)"/>
     <use xlink:href="#DejaVuSans-29" transform="translate(808.935547 0)"/>
    </g>
   </g>
   <g id="text_16">
    <!-- UV &amp; MS Chromatograms: IrCp1C10, target m/z=724.1520212 -->
    <g transform="translate(262.222188 20.88) scale(0.12 -0.12)">
     <defs>
      <path id="DejaVuSans-55" d="M 556 4666 
L 1191 4666 
L 1191 1831 
Q 1191 1081 1462 751 
Q 1734 422 2344 422 
Q 2950 422 3222 751 
Q 3494 1081 3494 1831 
L 3494 4666 
L 4128 4666 
L 4128 1753 
Q 4128 841 3676 375 
Q 3225 -91 2344 -91 
Q 1459 -91 1007 375 
Q 556 841 556 1753 
L 556 4666 
z
" transform="scale(0.015625)"/>
      <path id="DejaVuSans-56" d="M 1831 0 
L 50 4666 
L 709 4666 
L 2188 738 
L 3669 4666 
L 4325 4666 
L 2547 0 
L 1831 0 
z
" transform="scale(0.015625)"/>
      <path id="DejaVuSans-26" d="M 1556 2509 
Q 1272 2256 1139 2004 
Q 1006 1753 1006 1478 
Q 1006 1022 1337 719 
Q 1669 416 2169 416 
Q 2466 416 2725 514 
Q 2984 613 3213 813 
L 1556 2509 
z
M 1997 2859 
L 3584 1234 
Q 3769 1513 3872 1830 
Q 3975 2147 3994 2503 
L 4575 2503 
Q 4538 2091 4375 1687 
Q 4213 1284 3922 891 
L 4794 0 
L 4006 0 
L 3559 459 
Q 3234 181 2878 45 
Q 2522 -91 2113 -91 
Q 1359 -91 881 339 
Q 403 769 403 1441 
Q 403 1841 612 2192 
Q 822 2544 1241 2853 
Q 1091 3050 1012 3245 
Q 934 3441 934 3628 
Q 934 4134 1281 4442 
Q 1628 4750 2203 4750 
Q 2463 4750 2720 4694 
Q 2978 4638 3244 4525 
L 3244 3956 
Q 2972 4103 2725 4179 
Q 2478 4256 2266 4256 
Q 1938 4256 1733 4082 
Q 1528 3909 1528 3634 
Q 1528 3475 1620 3314 
Q 1713 3153 1997 2859 
z
" transform="scale(0.015625)"/>
      <path id="DejaVuSans-4d" d="M 628 4666 
L 1569 4666 
L 2759 1491 
L 3956 4666 
L 4897 4666 
L 4897 0 
L 4281 0 
L 4281 4097 
L 3078 897 
L 2444 897 
L 1241 4097 
L 1241 0 
L 628 0 
L 628 4666 
z
" transform="scale(0.015625)"/>
      <path id="DejaVuSans-53" d="M 3425 4513 
L 3425 3897 
Q 3066 4069 2747 4153 
Q 2428 4238 2131 4238 
Q 1616 4238 1336 4038 
Q 1056 3838 1056 3469 
Q 1056 3159 1242 3001 
Q 1428 2844 1947 2747 
L 2328 2669 
Q 3034 2534 3370 2195 
Q 3706 1856 3706 1288 
Q 3706 609 3251 259 
Q 2797 -91 1919 -91 
Q 1588 -91 1214 -16 
Q 841 59 441 206 
L 441 856 
Q 825 641 1194 531 
Q 1563 422 1919 422 
Q 2459 422 2753 634 
Q 3047 847 3047 1241 
Q 3047 1584 2836 1778 
Q 2625 1972 2144 2069 
L 1759 2144 
Q 1053 2284 737 2584 
Q 422 2884 422 3419 
Q 422 4038 858 4394 
Q 1294 4750 2059 4750 
Q 2388 4750 2728 4690 
Q 3069 4631 3425 4513 
z
" transform="scale(0.015625)"/>
      <path id="DejaVuSans-43" d="M 4122 4306 
L 4122 3641 
Q 3803 3938 3442 4084 
Q 3081 4231 2675 4231 
Q 1875 4231 1450 3742 
Q 1025 3253 1025 2328 
Q 1025 1406 1450 917 
Q 1875 428 2675 428 
Q 3081 428 3442 575 
Q 3803 722 4122 1019 
L 4122 359 
Q 3791 134 3420 21 
Q 3050 -91 2638 -91 
Q 1578 -91 968 557 
Q 359 1206 359 2328 
Q 359 3453 968 4101 
Q 1578 4750 2638 4750 
Q 3056 4750 3426 4639 
Q 3797 4528 4122 4306 
z
" transform="scale(0.015625)"/>
      <path id="DejaVuSans-68" d="M 3513 2113 
L 3513 0 
L 2938 0 
L 2938 2094 
Q 2938 2591 2744 2837 
Q 2550 3084 2163 3084 
Q 1697 3084 1428 2787 
Q 1159 2491 1159 1978 
L 1159 0 
L 581 0 
L 581 4863 
L 1159 4863 
L 1159 2956 
Q 1366 3272 1645 3428 
Q 1925 3584 2291 3584 
Q 2894 3584 3203 3211 
Q 3513 2838 3513 2113 
z
" transform="scale(0.015625)"/>
      <path id="DejaVuSans-67" d="M 2906 1791 
Q 2906 2416 2648 2759 
Q 2391 3103 1925 3103 
Q 1463 3103 1205 2759 
Q 947 2416 947 1791 
Q 947 1169 1205 825 
Q 1463 481 1925 481 
Q 2391 481 2648 825 
Q 2906 1169 2906 1791 
z
M 3481 434 
Q 3481 -459 3084 -895 
Q 2688 -1331 1869 -1331 
Q 1566 -1331 1297 -1286 
Q 1028 -1241 775 -1147 
L 775 -588 
Q 1028 -725 1275 -790 
Q 1522 -856 1778 -856 
Q 2344 -856 2625 -561 
Q 2906 -266 2906 331 
L 2906 616 
Q 2728 306 2450 153 
Q 2172 0 1784 0 
Q 1141 0 747 490 
Q 353 981 353 1791 
Q 353 2603 747 3093 
Q 1141 3584 1784 3584 
Q 2172 3584 2450 3431 
Q 2728 3278 2906 2969 
L 2906 3500 
L 3481 3500 
L 3481 434 
z
" transform="scale(0.015625)"/>
      <path id="DejaVuSans-70" d="M 1159 525 
L 1159 -1331 
L 581 -1331 
L 581 3500 
L 1159 3500 
L 1159 2969 
Q 1341 3281 1617 3432 
Q 1894 3584 2278 3584 
Q 2916 3584 3314 3078 
Q 3713 2572 3713 1747 
Q 3713 922 3314 415 
Q 2916 -91 2278 -91 
Q 1894 -91 1617 61 
Q 1341 213 1159 525 
z
M 3116 1747 
Q 3116 2381 2855 2742 
Q 2594 3103 2138 3103 
Q 1681 3103 1420 2742 
Q 1159 2381 1159 1747 
Q 1159 1113 1420 752 
Q 1681 391 2138 391 
Q 2594 391 2855 752 
Q 3116 1113 3116 1747 
z
" transform="scale(0.015625)"/>
      <path id="DejaVuSans-2f" d="M 1625 4666 
L 2156 4666 
L 531 -594 
L 0 -594 
L 1625 4666 
z
" transform="scale(0.015625)"/>
     </defs>
     <use xlink:href="#DejaVuSans-55"/>
     <use xlink:href="#DejaVuSans-56" transform="translate(73.193359 0)"/>
     <use xlink:href="#DejaVuSans-20" transform="translate(141.601562 0)"/>
     <use xlink:href="#DejaVuSans-26" transform="translate(173.388672 0)"/>
     <use xlink:href="#DejaVuSans-20" transform="translate(251.367188 0)"/>
     <use xlink:href="#DejaVuSans-4d" transform="translate(283.154297 0)"/>
     <use xlink:href="#DejaVuSans-53" transform="translate(369.433594 0)"/>
     <use xlink:href="#DejaVuSans-20" transform="translate(432.910156 0)"/>
     <use xlink:href="#DejaVuSans-43" transform="translate(464.697266 0)"/>
     <use xlink:href="#DejaVuSans-68" transform="translate(534.521484 0)"/>
     <use xlink:href="#DejaVuSans-72" transform="translate(597.900391 0)"/>
     <use xlink:href="#DejaVuSans-6f" transform="translate(636.763672 0)"/>
     <use xlink:href="#DejaVuSans-6d" transform="translate(697.945312 0)"/>
     <use xlink:href="#DejaVuSans-61" transform="translate(795.357422 0)"/>
     <use xlink:href="#DejaVuSans-74" transform="translate(856.636719 0)"/>
     <use xlink:href="#DejaVuSans-6f" transform="translate(895.845703 0)"/>
     <use xlink:href="#DejaVuSans-67" transform="translate(957.027344 0)"/>
     <use xlink:href="#DejaVuSans-72" transform="translate(1020.503906 0)"/>
     <use xlink:href="#DejaVuSans-61" transform="translate(1061.617188 0)"/>
     <use xlink:href="#DejaVuSans-6d" transform="translate(1122.896484 0)"/>
     <use xlink:href="#DejaVuSans-73" transform="translate(1220.308594 0)"/>
     <use xlink:href="#DejaVuSans-3a" transform="translate(1272.408203 0)"/>
     <use xlink:href="#DejaVuSans-20" transform="translate(1306.099609 0)"/>
     <use xlink:href="#DejaVuSans-49" transform="translate(1337.886719 0)"/>
     <use xlink:href="#DejaVuSans-72" transform="translate(1367.378906 0)"/>
     <use xlink:href="#DejaVuSans-43" transform="translate(1408.492188 0)"/>
     <use xlink:href="#DejaVuSans-70" transform="translate(1478.316406 0)"/>
     <use xlink:href="#DejaVuSans-31" transform="translate(1541.792969 0)"/>
     <use xlink:href="#DejaVuSans-43" transform="translate(1605.416016 0)"/>
     <use xlink:href="#DejaVuSans-31" transform="translate(1675.240234 0)"/>
     <use xlink:href="#DejaVuSans-30" transform="translate(1738.863281 0)"/>
     <use xlink:href="#DejaVuSans-2c" transform="translate(1802.486328 0)"/>
     <use xlink:href="#DejaVuSans-20" transform="translate(1834.273438 0)"/>
     <use xlink:href="#DejaVuSans-74" transform="translate(1866.060547 0)"/>
     <use xlink:href="#DejaVuSans-61" transform="translate(1905.269531 0)"/>
     <use xlink:href="#DejaVuSans-72" transform="translate(1966.548828 0)"/>
     <use xlink:href="#DejaVuSans-67" transform="translate(2005.912109 0)"/>
     <use xlink:href="#DejaVuSans-65" transform="translate(2069.388672 0)"/>
     <use xlink:href="#DejaVuSans-74" transform="translate(2130.912109 0)"/>
     <use xlink:href="#DejaVuSans-20" transform="translate(2170.121094 0)"/>
     <use xlink:href="#DejaVuSans-6d" transform="translate(2201.908203 0)"/>
     <use xlink:href="#DejaVuSans-2f" transform="translate(2299.320312 0)"/>
     <use xlink:href="#DejaVuSans-7a" transform="translate(2333.011719 0)"/>
     <use xlink:href="#DejaVuSans-3d" transform="translate(2385.501953 0)"/>
     <use xlink:href="#DejaVuSans-37" transform="translate(2469.291016 0)"/>
     <use xlink:href="#DejaVuSans-32" transform="translate(2532.914062 0)"/>
     <use xlink:href="#DejaVuSans-34" transform="translate(2596.537109 0)"/>
     <use xlink:href="#DejaVuSans-2e" transform="translate(2660.160156 0)"/>
     <use xlink:href="#DejaVuSans-31" transform="translate(2691.947266 0)"/>
     <use xlink:href="#DejaVuSans-35" transform="translate(2755.570312 0)"/>
     <use xlink:href="#DejaVuSans-32" transform="translate(2819.193359 0)"/>
     <use xlink:href="#DejaVuSans-30" transform="translate(2882.816406 0)"/>
     <use xlink:href="#DejaVuSans-32" transform="translate(2946.439453 0)"/>
     <use xlink:href="#DejaVuSans-31" transform="translate(3010.0625 0)"/>
     <use xlink:href="#DejaVuSans-32" transform="translate(3073.685547 0)"/>
    </g>
   </g>
   <g id="legend_1">
    <g id="patch_8">
     <path d="M 685.971875 64.23625 
L 846.2 64.23625 
Q 848.2 64.23625 848.2 62.23625 
L 848.2 33.88 
Q 848.2 31.88 846.2 31.88 
L 685.971875 31.88 
Q 683.971875 31.88 683.971875 33.88 
L 683.971875 62.23625 
Q 683.971875 64.23625 685.971875 64.23625 
z
" style="fill: #ffffff; opacity: 0.8; stroke: #cccccc; stroke-linejoin: miter"/>
    </g>
    <g id="line2d_15">
     <path d="M 687.971875 39.978437 
L 697.971875 39.978437 
L 707.971875 39.978437 
" style="fill: none; stroke: #0000ff; stroke-width: 1.5; stroke-linecap: square"/>
    </g>
    <g id="text_17">
     <!-- UV Intensity (normalized) -->
     <g transform="translate(715.971875 43.478437) scale(0.1 -0.1)">
      <use xlink:href="#DejaVuSans-55"/>
      <use xlink:href="#DejaVuSans-56" transform="translate(73.193359 0)"/>
      <use xlink:href="#DejaVuSans-20" transform="translate(141.601562 0)"/>
      <use xlink:href="#DejaVuSans-49" transform="translate(173.388672 0)"/>
      <use xlink:href="#DejaVuSans-6e" transform="translate(202.880859 0)"/>
      <use xlink:href="#DejaVuSans-74" transform="translate(266.259766 0)"/>
      <use xlink:href="#DejaVuSans-65" transform="translate(305.46875 0)"/>
      <use xlink:href="#DejaVuSans-6e" transform="translate(366.992188 0)"/>
      <use xlink:href="#DejaVuSans-73" transform="translate(430.371094 0)"/>
      <use xlink:href="#DejaVuSans-69" transform="translate(482.470703 0)"/>
      <use xlink:href="#DejaVuSans-74" transform="translate(510.253906 0)"/>
      <use xlink:href="#DejaVuSans-79" transform="translate(549.462891 0)"/>
      <use xlink:href="#DejaVuSans-20" transform="translate(608.642578 0)"/>
      <use xlink:href="#DejaVuSans-28" transform="translate(640.429688 0)"/>
      <use xlink:href="#DejaVuSans-6e" transform="translate(679.443359 0)"/>
      <use xlink:href="#DejaVuSans-6f" transform="translate(742.822266 0)"/>
      <use xlink:href="#DejaVuSans-72" transform="translate(804.003906 0)"/>
      <use xlink:href="#DejaVuSans-6d" transform="translate(843.367188 0)"/>
      <use xlink:href="#DejaVuSans-61" transform="translate(940.779297 0)"/>
      <use xlink:href="#DejaVuSans-6c" transform="translate(1002.058594 0)"/>
      <use xlink:href="#DejaVuSans-69" transform="translate(1029.841797 0)"/>
      <use xlink:href="#DejaVuSans-7a" transform="translate(1057.625 0)"/>
      <use xlink:href="#DejaVuSans-65" transform="translate(1110.115234 0)"/>
      <use xlink:href="#DejaVuSans-64" transform="translate(1171.638672 0)"/>
      <use xlink:href="#DejaVuSans-29" transform="translate(1235.115234 0)"/>
     </g>
    </g>
    <g id="line2d_16">
     <path d="M 687.971875 54.656562 
L 697.971875 54.656562 
L 707.971875 54.656562 
" style="fill: none; stroke: #008000; stroke-width: 1.5; stroke-linecap: square"/>
    </g>
    <g id="text_18">
     <!-- MS Intensity (normalized) -->
     <g transform="translate(715.971875 58.156562) scale(0.1 -0.1)">
      <use xlink:href="#DejaVuSans-4d"/>
      <use xlink:href="#DejaVuSans-53" transform="translate(86.279297 0)"/>
      <use xlink:href="#DejaVuSans-20" transform="translate(149.755859 0)"/>
      <use xlink:href="#DejaVuSans-49" transform="translate(181.542969 0)"/>
      <use xlink:href="#DejaVuSans-6e" transform="translate(211.035156 0)"/>
      <use xlink:href="#DejaVuSans-74" transform="translate(274.414062 0)"/>
      <use xlink:href="#DejaVuSans-65" transform="translate(313.623047 0)"/>
      <use xlink:href="#DejaVuSans-6e" transform="translate(375.146484 0)"/>
      <use xlink:href="#DejaVuSans-73" transform="translate(438.525391 0)"/>
      <use xlink:href="#DejaVuSans-69" transform="translate(490.625 0)"/>
      <use xlink:href="#DejaVuSans-74" transform="translate(518.408203 0)"/>
      <use xlink:href="#DejaVuSans-79" transform="translate(557.617188 0)"/>
      <use xlink:href="#DejaVuSans-20" transform="translate(616.796875 0)"/>
      <use xlink:href="#DejaVuSans-28" transform="translate(648.583984 0)"/>
      <use xlink:href="#DejaVuSans-6e" transform="translate(687.597656 0)"/>
      <use xlink:href="#DejaVuSans-6f" transform="translate(750.976562 0)"/>
      <use xlink:href="#DejaVuSans-72" transform="translate(812.158203 0)"/>
      <use xlink:href="#DejaVuSans-6d" transform="translate(851.521484 0)"/>
      <use xlink:href="#DejaVuSans-61" transform="translate(948.933594 0)"/>
      <use xlink:href="#DejaVuSans-6c" transform="translate(1010.212891 0)"/>
      <use xlink:href="#DejaVuSans-69" transform="translate(1037.996094 0)"/>
      <use xlink:href="#DejaVuSans-7a" transform="translate(1065.779297 0)"/>
      <use xlink:href="#DejaVuSans-65" transform="translate(1118.269531 0)"/>
      <use xlink:href="#DejaVuSans-64" transform="translate(1179.792969 0)"/>
      <use xlink:href="#DejaVuSans-29" transform="translate(1243.269531 0)"/>
     </g>
    </g>
   </g>
  </g>
 </g>
 <defs>
  <clipPath id="p278b77aa2f">
   <rect x="47.72" y="26.88" width="805.48" height="507.16"/>
  </clipPath>
 </defs>
</svg>
