<?xml version="1.0" encoding="utf-8" standalone="no"?>
<!DOCTYPE svg PUBLIC "-//W3C//DTD SVG 1.1//EN"
  "http://www.w3.org/Graphics/SVG/1.1/DTD/svg11.dtd">
<svg xmlns:xlink="http://www.w3.org/1999/xlink" width="864pt" height="576pt" viewBox="0 0 864 576" xmlns="http://www.w3.org/2000/svg" version="1.1">
 <metadata>
  <rdf:RDF xmlns:dc="http://purl.org/dc/elements/1.1/" xmlns:cc="http://creativecommons.org/ns#" xmlns:rdf="http://www.w3.org/1999/02/22-rdf-syntax-ns#">
   <cc:Work>
    <dc:type rdf:resource="http://purl.org/dc/dcmitype/StillImage"/>
    <dc:date>2025-03-06T18:42:59.078552</dc:date>
    <dc:format>image/svg+xml</dc:format>
    <dc:creator>
     <cc:Agent>
      <dc:title>Matplotlib v3.10.0, https://matplotlib.org/</dc:title>
     </cc:Agent>
    </dc:creator>
   </cc:Work>
  </rdf:RDF>
 </metadata>
 <defs>
  <style type="text/css">*{stroke-linejoin: round; stroke-linecap: butt}</style>
 </defs>
 <g id="figure_1">
  <g id="patch_1">
   <path d="M 0 576 
L 864 576 
L 864 0 
L 0 0 
z
" style="fill: #ffffff"/>
  </g>
  <g id="axes_1">
   <g id="patch_2">
    <path d="M 47.72 534.04 
L 853.2 534.04 
L 853.2 26.88 
L 47.72 26.88 
z
" style="fill: #ffffff"/>
   </g>
   <g id="matplotlib.axis_1">
    <g id="xtick_1">
     <g id="line2d_1">
      <defs>
       <path id="mbd56911921" d="M 0 0 
L 0 3.5 
" style="stroke: #000000; stroke-width: 0.8"/>
      </defs>
      <g>
       <use xlink:href="#mbd56911921" x="83.599268" y="534.04" style="stroke: #000000; stroke-width: 0.8"/>
      </g>
     </g>
     <g id="text_1">
      <!-- 0 -->
      <g transform="translate(80.418018 548.638438) scale(0.1 -0.1)">
       <defs>
        <path id="DejaVuSans-30" d="M 2034 4250 
Q 1547 4250 1301 3770 
Q 1056 3291 1056 2328 
Q 1056 1369 1301 889 
Q 1547 409 2034 409 
Q 2525 409 2770 889 
Q 3016 1369 3016 2328 
Q 3016 3291 2770 3770 
Q 2525 4250 2034 4250 
z
M 2034 4750 
Q 2819 4750 3233 4129 
Q 3647 3509 3647 2328 
Q 3647 1150 3233 529 
Q 2819 -91 2034 -91 
Q 1250 -91 836 529 
Q 422 1150 422 2328 
Q 422 3509 836 4129 
Q 1250 4750 2034 4750 
z
" transform="scale(0.015625)"/>
       </defs>
       <use xlink:href="#DejaVuSans-30"/>
      </g>
     </g>
    </g>
    <g id="xtick_2">
     <g id="line2d_2">
      <g>
       <use xlink:href="#mbd56911921" x="230.193448" y="534.04" style="stroke: #000000; stroke-width: 0.8"/>
      </g>
     </g>
     <g id="text_2">
      <!-- 1 -->
      <g transform="translate(227.012198 548.638438) scale(0.1 -0.1)">
       <defs>
        <path id="DejaVuSans-31" d="M 794 531 
L 1825 531 
L 1825 4091 
L 703 3866 
L 703 4441 
L 1819 4666 
L 2450 4666 
L 2450 531 
L 3481 531 
L 3481 0 
L 794 0 
L 794 531 
z
" transform="scale(0.015625)"/>
       </defs>
       <use xlink:href="#DejaVuSans-31"/>
      </g>
     </g>
    </g>
    <g id="xtick_3">
     <g id="line2d_3">
      <g>
       <use xlink:href="#mbd56911921" x="376.787629" y="534.04" style="stroke: #000000; stroke-width: 0.8"/>
      </g>
     </g>
     <g id="text_3">
      <!-- 2 -->
      <g transform="translate(373.606379 548.638438) scale(0.1 -0.1)">
       <defs>
        <path id="DejaVuSans-32" d="M 1228 531 
L 3431 531 
L 3431 0 
L 469 0 
L 469 531 
Q 828 903 1448 1529 
Q 2069 2156 2228 2338 
Q 2531 2678 2651 2914 
Q 2772 3150 2772 3378 
Q 2772 3750 2511 3984 
Q 2250 4219 1831 4219 
Q 1534 4219 1204 4116 
Q 875 4013 500 3803 
L 500 4441 
Q 881 4594 1212 4672 
Q 1544 4750 1819 4750 
Q 2544 4750 2975 4387 
Q 3406 4025 3406 3419 
Q 3406 3131 3298 2873 
Q 3191 2616 2906 2266 
Q 2828 2175 2409 1742 
Q 1991 1309 1228 531 
z
" transform="scale(0.015625)"/>
       </defs>
       <use xlink:href="#DejaVuSans-32"/>
      </g>
     </g>
    </g>
    <g id="xtick_4">
     <g id="line2d_4">
      <g>
       <use xlink:href="#mbd56911921" x="523.381809" y="534.04" style="stroke: #000000; stroke-width: 0.8"/>
      </g>
     </g>
     <g id="text_4">
      <!-- 3 -->
      <g transform="translate(520.200559 548.638438) scale(0.1 -0.1)">
       <defs>
        <path id="DejaVuSans-33" d="M 2597 2516 
Q 3050 2419 3304 2112 
Q 3559 1806 3559 1356 
Q 3559 666 3084 287 
Q 2609 -91 1734 -91 
Q 1441 -91 1130 -33 
Q 819 25 488 141 
L 488 750 
Q 750 597 1062 519 
Q 1375 441 1716 441 
Q 2309 441 2620 675 
Q 2931 909 2931 1356 
Q 2931 1769 2642 2001 
Q 2353 2234 1838 2234 
L 1294 2234 
L 1294 2753 
L 1863 2753 
Q 2328 2753 2575 2939 
Q 2822 3125 2822 3475 
Q 2822 3834 2567 4026 
Q 2313 4219 1838 4219 
Q 1578 4219 1281 4162 
Q 984 4106 628 3988 
L 628 4550 
Q 988 4650 1302 4700 
Q 1616 4750 1894 4750 
Q 2613 4750 3031 4423 
Q 3450 4097 3450 3541 
Q 3450 3153 3228 2886 
Q 3006 2619 2597 2516 
z
" transform="scale(0.015625)"/>
       </defs>
       <use xlink:href="#DejaVuSans-33"/>
      </g>
     </g>
    </g>
    <g id="xtick_5">
     <g id="line2d_5">
      <g>
       <use xlink:href="#mbd56911921" x="669.97599" y="534.04" style="stroke: #000000; stroke-width: 0.8"/>
      </g>
     </g>
     <g id="text_5">
      <!-- 4 -->
      <g transform="translate(666.79474 548.638438) scale(0.1 -0.1)">
       <defs>
        <path id="DejaVuSans-34" d="M 2419 4116 
L 825 1625 
L 2419 1625 
L 2419 4116 
z
M 2253 4666 
L 3047 4666 
L 3047 1625 
L 3713 1625 
L 3713 1100 
L 3047 1100 
L 3047 0 
L 2419 0 
L 2419 1100 
L 313 1100 
L 313 1709 
L 2253 4666 
z
" transform="scale(0.015625)"/>
       </defs>
       <use xlink:href="#DejaVuSans-34"/>
      </g>
     </g>
    </g>
    <g id="xtick_6">
     <g id="line2d_6">
      <g>
       <use xlink:href="#mbd56911921" x="816.57017" y="534.04" style="stroke: #000000; stroke-width: 0.8"/>
      </g>
     </g>
     <g id="text_6">
      <!-- 5 -->
      <g transform="translate(813.38892 548.638438) scale(0.1 -0.1)">
       <defs>
        <path id="DejaVuSans-35" d="M 691 4666 
L 3169 4666 
L 3169 4134 
L 1269 4134 
L 1269 2991 
Q 1406 3038 1543 3061 
Q 1681 3084 1819 3084 
Q 2600 3084 3056 2656 
Q 3513 2228 3513 1497 
Q 3513 744 3044 326 
Q 2575 -91 1722 -91 
Q 1428 -91 1123 -41 
Q 819 9 494 109 
L 494 744 
Q 775 591 1075 516 
Q 1375 441 1709 441 
Q 2250 441 2565 725 
Q 2881 1009 2881 1497 
Q 2881 1984 2565 2268 
Q 2250 2553 1709 2553 
Q 1456 2553 1204 2497 
Q 953 2441 691 2322 
L 691 4666 
z
" transform="scale(0.015625)"/>
       </defs>
       <use xlink:href="#DejaVuSans-35"/>
      </g>
     </g>
    </g>
    <g id="text_7">
     <!-- Retention Time (min) -->
     <g transform="translate(397.61 562.316562) scale(0.1 -0.1)">
      <defs>
       <path id="DejaVuSans-52" d="M 2841 2188 
Q 3044 2119 3236 1894 
Q 3428 1669 3622 1275 
L 4263 0 
L 3584 0 
L 2988 1197 
Q 2756 1666 2539 1819 
Q 2322 1972 1947 1972 
L 1259 1972 
L 1259 0 
L 628 0 
L 628 4666 
L 2053 4666 
Q 2853 4666 3247 4331 
Q 3641 3997 3641 3322 
Q 3641 2881 3436 2590 
Q 3231 2300 2841 2188 
z
M 1259 4147 
L 1259 2491 
L 2053 2491 
Q 2509 2491 2742 2702 
Q 2975 2913 2975 3322 
Q 2975 3731 2742 3939 
Q 2509 4147 2053 4147 
L 1259 4147 
z
" transform="scale(0.015625)"/>
       <path id="DejaVuSans-65" d="M 3597 1894 
L 3597 1613 
L 953 1613 
Q 991 1019 1311 708 
Q 1631 397 2203 397 
Q 2534 397 2845 478 
Q 3156 559 3463 722 
L 3463 178 
Q 3153 47 2828 -22 
Q 2503 -91 2169 -91 
Q 1331 -91 842 396 
Q 353 884 353 1716 
Q 353 2575 817 3079 
Q 1281 3584 2069 3584 
Q 2775 3584 3186 3129 
Q 3597 2675 3597 1894 
z
M 3022 2063 
Q 3016 2534 2758 2815 
Q 2500 3097 2075 3097 
Q 1594 3097 1305 2825 
Q 1016 2553 972 2059 
L 3022 2063 
z
" transform="scale(0.015625)"/>
       <path id="DejaVuSans-74" d="M 1172 4494 
L 1172 3500 
L 2356 3500 
L 2356 3053 
L 1172 3053 
L 1172 1153 
Q 1172 725 1289 603 
Q 1406 481 1766 481 
L 2356 481 
L 2356 0 
L 1766 0 
Q 1100 0 847 248 
Q 594 497 594 1153 
L 594 3053 
L 172 3053 
L 172 3500 
L 594 3500 
L 594 4494 
L 1172 4494 
z
" transform="scale(0.015625)"/>
       <path id="DejaVuSans-6e" d="M 3513 2113 
L 3513 0 
L 2938 0 
L 2938 2094 
Q 2938 2591 2744 2837 
Q 2550 3084 2163 3084 
Q 1697 3084 1428 2787 
Q 1159 2491 1159 1978 
L 1159 0 
L 581 0 
L 581 3500 
L 1159 3500 
L 1159 2956 
Q 1366 3272 1645 3428 
Q 1925 3584 2291 3584 
Q 2894 3584 3203 3211 
Q 3513 2838 3513 2113 
z
" transform="scale(0.015625)"/>
       <path id="DejaVuSans-69" d="M 603 3500 
L 1178 3500 
L 1178 0 
L 603 0 
L 603 3500 
z
M 603 4863 
L 1178 4863 
L 1178 4134 
L 603 4134 
L 603 4863 
z
" transform="scale(0.015625)"/>
       <path id="DejaVuSans-6f" d="M 1959 3097 
Q 1497 3097 1228 2736 
Q 959 2375 959 1747 
Q 959 1119 1226 758 
Q 1494 397 1959 397 
Q 2419 397 2687 759 
Q 2956 1122 2956 1747 
Q 2956 2369 2687 2733 
Q 2419 3097 1959 3097 
z
M 1959 3584 
Q 2709 3584 3137 3096 
Q 3566 2609 3566 1747 
Q 3566 888 3137 398 
Q 2709 -91 1959 -91 
Q 1206 -91 779 398 
Q 353 888 353 1747 
Q 353 2609 779 3096 
Q 1206 3584 1959 3584 
z
" transform="scale(0.015625)"/>
       <path id="DejaVuSans-20" transform="scale(0.015625)"/>
       <path id="DejaVuSans-54" d="M -19 4666 
L 3928 4666 
L 3928 4134 
L 2272 4134 
L 2272 0 
L 1638 0 
L 1638 4134 
L -19 4134 
L -19 4666 
z
" transform="scale(0.015625)"/>
       <path id="DejaVuSans-6d" d="M 3328 2828 
Q 3544 3216 3844 3400 
Q 4144 3584 4550 3584 
Q 5097 3584 5394 3201 
Q 5691 2819 5691 2113 
L 5691 0 
L 5113 0 
L 5113 2094 
Q 5113 2597 4934 2840 
Q 4756 3084 4391 3084 
Q 3944 3084 3684 2787 
Q 3425 2491 3425 1978 
L 3425 0 
L 2847 0 
L 2847 2094 
Q 2847 2600 2669 2842 
Q 2491 3084 2119 3084 
Q 1678 3084 1418 2786 
Q 1159 2488 1159 1978 
L 1159 0 
L 581 0 
L 581 3500 
L 1159 3500 
L 1159 2956 
Q 1356 3278 1631 3431 
Q 1906 3584 2284 3584 
Q 2666 3584 2933 3390 
Q 3200 3197 3328 2828 
z
" transform="scale(0.015625)"/>
       <path id="DejaVuSans-28" d="M 1984 4856 
Q 1566 4138 1362 3434 
Q 1159 2731 1159 2009 
Q 1159 1288 1364 580 
Q 1569 -128 1984 -844 
L 1484 -844 
Q 1016 -109 783 600 
Q 550 1309 550 2009 
Q 550 2706 781 3412 
Q 1013 4119 1484 4856 
L 1984 4856 
z
" transform="scale(0.015625)"/>
       <path id="DejaVuSans-29" d="M 513 4856 
L 1013 4856 
Q 1481 4119 1714 3412 
Q 1947 2706 1947 2009 
Q 1947 1309 1714 600 
Q 1481 -109 1013 -844 
L 513 -844 
Q 928 -128 1133 580 
Q 1338 1288 1338 2009 
Q 1338 2731 1133 3434 
Q 928 4138 513 4856 
z
" transform="scale(0.015625)"/>
      </defs>
      <use xlink:href="#DejaVuSans-52"/>
      <use xlink:href="#DejaVuSans-65" transform="translate(64.982422 0)"/>
      <use xlink:href="#DejaVuSans-74" transform="translate(126.505859 0)"/>
      <use xlink:href="#DejaVuSans-65" transform="translate(165.714844 0)"/>
      <use xlink:href="#DejaVuSans-6e" transform="translate(227.238281 0)"/>
      <use xlink:href="#DejaVuSans-74" transform="translate(290.617188 0)"/>
      <use xlink:href="#DejaVuSans-69" transform="translate(329.826172 0)"/>
      <use xlink:href="#DejaVuSans-6f" transform="translate(357.609375 0)"/>
      <use xlink:href="#DejaVuSans-6e" transform="translate(418.791016 0)"/>
      <use xlink:href="#DejaVuSans-20" transform="translate(482.169922 0)"/>
      <use xlink:href="#DejaVuSans-54" transform="translate(513.957031 0)"/>
      <use xlink:href="#DejaVuSans-69" transform="translate(571.916016 0)"/>
      <use xlink:href="#DejaVuSans-6d" transform="translate(599.699219 0)"/>
      <use xlink:href="#DejaVuSans-65" transform="translate(697.111328 0)"/>
      <use xlink:href="#DejaVuSans-20" transform="translate(758.634766 0)"/>
      <use xlink:href="#DejaVuSans-28" transform="translate(790.421875 0)"/>
      <use xlink:href="#DejaVuSans-6d" transform="translate(829.435547 0)"/>
      <use xlink:href="#DejaVuSans-69" transform="translate(926.847656 0)"/>
      <use xlink:href="#DejaVuSans-6e" transform="translate(954.630859 0)"/>
      <use xlink:href="#DejaVuSans-29" transform="translate(1018.009766 0)"/>
     </g>
    </g>
   </g>
   <g id="matplotlib.axis_2">
    <g id="ytick_1">
     <g id="line2d_7">
      <defs>
       <path id="m831a67ba24" d="M 0 0 
L -3.5 0 
" style="stroke: #000000; stroke-width: 0.8"/>
      </defs>
      <g>
       <use xlink:href="#m831a67ba24" x="47.72" y="510.987273" style="stroke: #000000; stroke-width: 0.8"/>
      </g>
     </g>
     <g id="text_8">
      <!-- 0.0 -->
      <g style="fill: #0000ff" transform="translate(24.816875 514.786491) scale(0.1 -0.1)">
       <defs>
        <path id="DejaVuSans-2e" d="M 684 794 
L 1344 794 
L 1344 0 
L 684 0 
L 684 794 
z
" transform="scale(0.015625)"/>
       </defs>
       <use xlink:href="#DejaVuSans-30"/>
       <use xlink:href="#DejaVuSans-2e" transform="translate(63.623047 0)"/>
       <use xlink:href="#DejaVuSans-30" transform="translate(95.410156 0)"/>
      </g>
     </g>
    </g>
    <g id="ytick_2">
     <g id="line2d_8">
      <g>
       <use xlink:href="#m831a67ba24" x="47.72" y="418.776364" style="stroke: #000000; stroke-width: 0.8"/>
      </g>
     </g>
     <g id="text_9">
      <!-- 0.5 -->
      <g style="fill: #0000ff" transform="translate(24.816875 422.575582) scale(0.1 -0.1)">
       <use xlink:href="#DejaVuSans-30"/>
       <use xlink:href="#DejaVuSans-2e" transform="translate(63.623047 0)"/>
       <use xlink:href="#DejaVuSans-35" transform="translate(95.410156 0)"/>
      </g>
     </g>
    </g>
    <g id="ytick_3">
     <g id="line2d_9">
      <g>
       <use xlink:href="#m831a67ba24" x="47.72" y="326.565455" style="stroke: #000000; stroke-width: 0.8"/>
      </g>
     </g>
     <g id="text_10">
      <!-- 1.0 -->
      <g style="fill: #0000ff" transform="translate(24.816875 330.364673) scale(0.1 -0.1)">
       <use xlink:href="#DejaVuSans-31"/>
       <use xlink:href="#DejaVuSans-2e" transform="translate(63.623047 0)"/>
       <use xlink:href="#DejaVuSans-30" transform="translate(95.410156 0)"/>
      </g>
     </g>
    </g>
    <g id="ytick_4">
     <g id="line2d_10">
      <g>
       <use xlink:href="#m831a67ba24" x="47.72" y="234.354545" style="stroke: #000000; stroke-width: 0.8"/>
      </g>
     </g>
     <g id="text_11">
      <!-- 1.5 -->
      <g style="fill: #0000ff" transform="translate(24.816875 238.153764) scale(0.1 -0.1)">
       <use xlink:href="#DejaVuSans-31"/>
       <use xlink:href="#DejaVuSans-2e" transform="translate(63.623047 0)"/>
       <use xlink:href="#DejaVuSans-35" transform="translate(95.410156 0)"/>
      </g>
     </g>
    </g>
    <g id="ytick_5">
     <g id="line2d_11">
      <g>
       <use xlink:href="#m831a67ba24" x="47.72" y="142.143636" style="stroke: #000000; stroke-width: 0.8"/>
      </g>
     </g>
     <g id="text_12">
      <!-- 2.0 -->
      <g style="fill: #0000ff" transform="translate(24.816875 145.942855) scale(0.1 -0.1)">
       <use xlink:href="#DejaVuSans-32"/>
       <use xlink:href="#DejaVuSans-2e" transform="translate(63.623047 0)"/>
       <use xlink:href="#DejaVuSans-30" transform="translate(95.410156 0)"/>
      </g>
     </g>
    </g>
    <g id="ytick_6">
     <g id="line2d_12">
      <g>
       <use xlink:href="#m831a67ba24" x="47.72" y="49.932727" style="stroke: #000000; stroke-width: 0.8"/>
      </g>
     </g>
     <g id="text_13">
      <!-- 2.5 -->
      <g style="fill: #0000ff" transform="translate(24.816875 53.731946) scale(0.1 -0.1)">
       <use xlink:href="#DejaVuSans-32"/>
       <use xlink:href="#DejaVuSans-2e" transform="translate(63.623047 0)"/>
       <use xlink:href="#DejaVuSans-35" transform="translate(95.410156 0)"/>
      </g>
     </g>
    </g>
    <g id="text_14">
     <!-- Normalized Intensity -->
     <g style="fill: #0000ff" transform="translate(18.737187 332.167031) rotate(-90) scale(0.1 -0.1)">
      <defs>
       <path id="DejaVuSans-4e" d="M 628 4666 
L 1478 4666 
L 3547 763 
L 3547 4666 
L 4159 4666 
L 4159 0 
L 3309 0 
L 1241 3903 
L 1241 0 
L 628 0 
L 628 4666 
z
" transform="scale(0.015625)"/>
       <path id="DejaVuSans-72" d="M 2631 2963 
Q 2534 3019 2420 3045 
Q 2306 3072 2169 3072 
Q 1681 3072 1420 2755 
Q 1159 2438 1159 1844 
L 1159 0 
L 581 0 
L 581 3500 
L 1159 3500 
L 1159 2956 
Q 1341 3275 1631 3429 
Q 1922 3584 2338 3584 
Q 2397 3584 2469 3576 
Q 2541 3569 2628 3553 
L 2631 2963 
z
" transform="scale(0.015625)"/>
       <path id="DejaVuSans-61" d="M 2194 1759 
Q 1497 1759 1228 1600 
Q 959 1441 959 1056 
Q 959 750 1161 570 
Q 1363 391 1709 391 
Q 2188 391 2477 730 
Q 2766 1069 2766 1631 
L 2766 1759 
L 2194 1759 
z
M 3341 1997 
L 3341 0 
L 2766 0 
L 2766 531 
Q 2569 213 2275 61 
Q 1981 -91 1556 -91 
Q 1019 -91 701 211 
Q 384 513 384 1019 
Q 384 1609 779 1909 
Q 1175 2209 1959 2209 
L 2766 2209 
L 2766 2266 
Q 2766 2663 2505 2880 
Q 2244 3097 1772 3097 
Q 1472 3097 1187 3025 
Q 903 2953 641 2809 
L 641 3341 
Q 956 3463 1253 3523 
Q 1550 3584 1831 3584 
Q 2591 3584 2966 3190 
Q 3341 2797 3341 1997 
z
" transform="scale(0.015625)"/>
       <path id="DejaVuSans-6c" d="M 603 4863 
L 1178 4863 
L 1178 0 
L 603 0 
L 603 4863 
z
" transform="scale(0.015625)"/>
       <path id="DejaVuSans-7a" d="M 353 3500 
L 3084 3500 
L 3084 2975 
L 922 459 
L 3084 459 
L 3084 0 
L 275 0 
L 275 525 
L 2438 3041 
L 353 3041 
L 353 3500 
z
" transform="scale(0.015625)"/>
       <path id="DejaVuSans-64" d="M 2906 2969 
L 2906 4863 
L 3481 4863 
L 3481 0 
L 2906 0 
L 2906 525 
Q 2725 213 2448 61 
Q 2172 -91 1784 -91 
Q 1150 -91 751 415 
Q 353 922 353 1747 
Q 353 2572 751 3078 
Q 1150 3584 1784 3584 
Q 2172 3584 2448 3432 
Q 2725 3281 2906 2969 
z
M 947 1747 
Q 947 1113 1208 752 
Q 1469 391 1925 391 
Q 2381 391 2643 752 
Q 2906 1113 2906 1747 
Q 2906 2381 2643 2742 
Q 2381 3103 1925 3103 
Q 1469 3103 1208 2742 
Q 947 2381 947 1747 
z
" transform="scale(0.015625)"/>
       <path id="DejaVuSans-49" d="M 628 4666 
L 1259 4666 
L 1259 0 
L 628 0 
L 628 4666 
z
" transform="scale(0.015625)"/>
       <path id="DejaVuSans-73" d="M 2834 3397 
L 2834 2853 
Q 2591 2978 2328 3040 
Q 2066 3103 1784 3103 
Q 1356 3103 1142 2972 
Q 928 2841 928 2578 
Q 928 2378 1081 2264 
Q 1234 2150 1697 2047 
L 1894 2003 
Q 2506 1872 2764 1633 
Q 3022 1394 3022 966 
Q 3022 478 2636 193 
Q 2250 -91 1575 -91 
Q 1294 -91 989 -36 
Q 684 19 347 128 
L 347 722 
Q 666 556 975 473 
Q 1284 391 1588 391 
Q 1994 391 2212 530 
Q 2431 669 2431 922 
Q 2431 1156 2273 1281 
Q 2116 1406 1581 1522 
L 1381 1569 
Q 847 1681 609 1914 
Q 372 2147 372 2553 
Q 372 3047 722 3315 
Q 1072 3584 1716 3584 
Q 2034 3584 2315 3537 
Q 2597 3491 2834 3397 
z
" transform="scale(0.015625)"/>
       <path id="DejaVuSans-79" d="M 2059 -325 
Q 1816 -950 1584 -1140 
Q 1353 -1331 966 -1331 
L 506 -1331 
L 506 -850 
L 844 -850 
Q 1081 -850 1212 -737 
Q 1344 -625 1503 -206 
L 1606 56 
L 191 3500 
L 800 3500 
L 1894 763 
L 2988 3500 
L 3597 3500 
L 2059 -325 
z
" transform="scale(0.015625)"/>
      </defs>
      <use xlink:href="#DejaVuSans-4e"/>
      <use xlink:href="#DejaVuSans-6f" transform="translate(74.804688 0)"/>
      <use xlink:href="#DejaVuSans-72" transform="translate(135.986328 0)"/>
      <use xlink:href="#DejaVuSans-6d" transform="translate(175.349609 0)"/>
      <use xlink:href="#DejaVuSans-61" transform="translate(272.761719 0)"/>
      <use xlink:href="#DejaVuSans-6c" transform="translate(334.041016 0)"/>
      <use xlink:href="#DejaVuSans-69" transform="translate(361.824219 0)"/>
      <use xlink:href="#DejaVuSans-7a" transform="translate(389.607422 0)"/>
      <use xlink:href="#DejaVuSans-65" transform="translate(442.097656 0)"/>
      <use xlink:href="#DejaVuSans-64" transform="translate(503.621094 0)"/>
      <use xlink:href="#DejaVuSans-20" transform="translate(567.097656 0)"/>
      <use xlink:href="#DejaVuSans-49" transform="translate(598.884766 0)"/>
      <use xlink:href="#DejaVuSans-6e" transform="translate(628.376953 0)"/>
      <use xlink:href="#DejaVuSans-74" transform="translate(691.755859 0)"/>
      <use xlink:href="#DejaVuSans-65" transform="translate(730.964844 0)"/>
      <use xlink:href="#DejaVuSans-6e" transform="translate(792.488281 0)"/>
      <use xlink:href="#DejaVuSans-73" transform="translate(855.867188 0)"/>
      <use xlink:href="#DejaVuSans-69" transform="translate(907.966797 0)"/>
      <use xlink:href="#DejaVuSans-74" transform="translate(935.75 0)"/>
      <use xlink:href="#DejaVuSans-79" transform="translate(974.958984 0)"/>
     </g>
    </g>
   </g>
   <g id="line2d_13">
    <path d="M 84.837989 510.987273 
L 89.724461 510.904132 
L 100.719025 510.269881 
L 111.713588 510.249089 
L 123.92977 510.337133 
L 160.578315 510.181912 
L 163.021551 510.159283 
L 164.24317 509.990455 
L 165.464788 509.528719 
L 166.686406 508.720267 
L 169.129642 506.834758 
L 170.35126 506.363988 
L 171.572879 506.418001 
L 172.794497 506.899704 
L 176.459351 508.89666 
L 177.68097 509.344572 
L 180.124206 509.927294 
L 182.567442 510.37807 
L 183.78906 510.503681 
L 185.010679 510.44455 
L 187.453915 509.832902 
L 189.897151 509.137455 
L 191.118769 508.936444 
L 192.340388 508.874969 
L 194.783624 509.06692 
L 198.448478 509.480662 
L 200.891715 509.530759 
L 206.999806 509.116486 
L 213.107896 509.33787 
L 217.994369 509.076537 
L 221.659224 508.18687 
L 222.880842 508.248294 
L 224.10246 508.586636 
L 226.545696 509.538919 
L 227.767315 509.901536 
L 228.988933 510.13075 
L 230.210551 510.245009 
L 231.432169 510.246948 
L 232.653787 510.029871 
L 233.875405 509.310946 
L 235.097024 507.760864 
L 236.318642 505.368095 
L 237.54026 502.694406 
L 238.761878 500.644958 
L 239.983496 499.90163 
L 241.205114 500.541 
L 242.426733 502.107794 
L 244.869969 505.625982 
L 246.091587 506.854295 
L 247.313205 507.647289 
L 248.534823 508.114435 
L 250.97806 508.557368 
L 254.642914 508.886537 
L 259.529387 509.090119 
L 272.967187 509.206215 
L 279.075278 509.116397 
L 285.183369 509.108466 
L 287.626605 508.888184 
L 291.291459 508.097153 
L 292.513078 508.046942 
L 294.956314 508.363136 
L 297.39955 508.718113 
L 298.621168 508.769769 
L 301.064405 508.5309 
L 303.507641 508.235966 
L 305.950877 508.38617 
L 309.615732 508.832461 
L 312.058968 508.934341 
L 314.502205 508.852936 
L 315.723823 508.625622 
L 316.945441 508.17828 
L 319.388677 507.046817 
L 320.610295 506.811508 
L 321.831914 506.936764 
L 326.718386 508.436888 
L 329.161623 508.692152 
L 335.269714 508.844725 
L 340.156186 509.035309 
L 341.377804 508.903882 
L 342.599423 508.416604 
L 343.821041 507.52515 
L 345.042659 506.489283 
L 346.264277 505.743864 
L 347.485895 505.561694 
L 348.707513 505.862266 
L 349.929132 506.283838 
L 351.15075 506.351204 
L 352.372368 505.587288 
L 353.593986 503.563015 
L 354.815604 499.943062 
L 356.037222 494.557128 
L 357.258841 487.478409 
L 359.702077 469.929585 
L 360.923695 460.852656 
L 362.145313 452.64516 
L 363.366931 446.015836 
L 364.58855 441.463732 
L 365.810168 439.225031 
L 367.031786 439.275813 
L 368.253404 441.374218 
L 369.475022 445.124433 
L 370.69664 450.053357 
L 376.804731 477.926453 
L 378.026349 482.292294 
L 379.247968 486.011556 
L 380.469586 489.124441 
L 381.691204 491.711822 
L 382.912822 493.861249 
L 384.13444 495.641585 
L 385.356059 497.091864 
L 386.577677 498.22951 
L 387.799295 499.083904 
L 390.242531 500.260092 
L 395.129004 502.180609 
L 397.57224 502.927573 
L 400.015477 503.467965 
L 402.458713 503.824602 
L 404.901949 503.967938 
L 419.561367 503.858735 
L 420.782985 503.715424 
L 422.004604 503.308955 
L 423.226222 502.381899 
L 424.44784 500.794338 
L 425.669458 498.893777 
L 426.891076 497.456839 
L 428.112694 497.106587 
L 429.334313 497.867273 
L 432.999167 501.954043 
L 434.220785 502.766549 
L 435.442404 503.255107 
L 436.664022 503.522598 
L 439.107258 503.652707 
L 445.215349 503.353275 
L 447.658585 503.568996 
L 448.880203 503.57357 
L 451.32344 503.198485 
L 453.766676 502.65466 
L 454.988294 502.482828 
L 456.209912 502.441169 
L 459.874767 502.741463 
L 461.096385 502.373232 
L 462.318003 501.354153 
L 464.76124 498.206831 
L 465.982858 497.154265 
L 467.204476 496.908047 
L 468.426094 497.333343 
L 472.090949 499.55684 
L 473.312567 500.110459 
L 474.534185 500.492955 
L 475.755803 500.5661 
L 476.977421 500.182779 
L 478.199039 499.297825 
L 479.420658 497.548773 
L 480.642276 493.487178 
L 481.863894 485.126577 
L 483.085512 472.317387 
L 484.30713 458.226378 
L 485.528748 447.654532 
L 486.750367 443.867777 
L 487.971985 446.961087 
L 489.193603 454.576206 
L 491.636839 472.132011 
L 492.858458 478.821265 
L 494.080076 483.704526 
L 495.301694 487.16713 
L 496.523312 489.666036 
L 497.74493 491.538457 
L 498.966548 492.974838 
L 500.188167 494.073283 
L 501.409785 494.893873 
L 502.631403 495.488163 
L 506.296257 496.720061 
L 507.517876 497.013082 
L 508.739494 496.713549 
L 509.961112 495.263256 
L 512.404348 490.238584 
L 513.625966 488.929702 
L 514.847585 489.309627 
L 516.069203 490.966226 
L 518.512439 495.080174 
L 519.734057 496.565993 
L 520.955675 497.527107 
L 522.177294 498.056766 
L 523.398912 498.264062 
L 524.62053 498.182542 
L 525.842148 497.740091 
L 529.507003 495.372954 
L 530.728621 495.474618 
L 531.950239 496.23666 
L 534.393475 498.384959 
L 535.615093 499.171112 
L 536.836712 499.658023 
L 539.279948 500.109103 
L 541.723184 500.29923 
L 542.944803 500.246041 
L 544.166421 499.704763 
L 545.388039 497.909173 
L 546.609657 494.338848 
L 547.831275 489.721049 
L 549.052893 485.695235 
L 550.274512 482.985829 
L 551.49613 480.587371 
L 553.939366 474.146857 
L 555.160984 472.551846 
L 556.382602 473.674858 
L 557.604221 477.034075 
L 560.047457 485.093077 
L 561.269075 487.961645 
L 562.490693 490.020633 
L 566.155548 494.90686 
L 567.377166 496.364209 
L 568.598784 497.564167 
L 569.820402 498.406587 
L 571.04202 498.797978 
L 572.263639 498.644392 
L 573.485257 497.940645 
L 575.928493 495.934327 
L 577.150111 495.40231 
L 578.371729 495.425002 
L 579.593348 495.894505 
L 582.036584 497.277519 
L 583.258202 497.770942 
L 585.701438 498.238734 
L 588.144675 498.808748 
L 589.366293 499.110486 
L 590.587911 499.110169 
L 591.809529 498.510963 
L 593.031148 496.876435 
L 594.252766 491.795064 
L 595.474384 476.39155 
L 596.696002 443.10457 
L 599.139238 349.217011 
L 600.360857 326.565455 
L 601.582475 334.404935 
L 602.804093 364.608375 
L 604.025711 402.230319 
L 605.247329 435.187269 
L 606.468947 458.252136 
L 607.690566 471.863963 
L 608.912184 479.031879 
L 610.133802 482.84006 
L 611.35542 485.333771 
L 612.577038 487.441729 
L 613.798656 489.322082 
L 615.020275 490.736024 
L 616.241893 491.395425 
L 617.463511 491.307001 
L 618.685129 490.901191 
L 619.906747 490.778139 
L 621.128365 491.296028 
L 623.571602 493.495908 
L 624.79322 494.206243 
L 626.014838 494.233977 
L 627.236456 493.716088 
L 629.679693 492.41918 
L 632.122929 491.441151 
L 633.344547 491.084273 
L 634.566165 491.095296 
L 635.787783 491.594662 
L 639.452638 494.067898 
L 644.339111 496.565043 
L 646.782347 497.67095 
L 648.003965 498.086744 
L 649.225583 498.367538 
L 650.447202 498.486155 
L 651.66882 498.426986 
L 654.112056 497.894754 
L 657.776911 496.888142 
L 658.998529 496.715525 
L 660.220147 496.763177 
L 661.441765 497.030503 
L 663.885001 497.786235 
L 665.10662 498.060935 
L 666.328238 498.20493 
L 667.549856 498.216587 
L 669.993092 497.948146 
L 672.436329 497.682226 
L 673.657947 497.723138 
L 676.101183 498.223467 
L 678.544419 498.744599 
L 679.766038 498.821507 
L 680.987656 498.740697 
L 682.209274 498.492794 
L 684.65251 497.766115 
L 685.874128 497.586238 
L 687.095747 497.65961 
L 691.982219 498.723035 
L 695.647074 498.799828 
L 698.09031 498.761995 
L 700.533547 498.506731 
L 701.755165 498.256472 
L 702.976783 497.884593 
L 706.641637 496.502073 
L 711.52811 495.686943 
L 712.749728 495.324301 
L 713.971346 495.155611 
L 715.192965 495.304763 
L 718.857819 496.656381 
L 720.079437 496.836271 
L 721.301055 496.675133 
L 722.522674 496.19405 
L 723.744292 495.58405 
L 724.96591 495.129308 
L 726.187528 495.029075 
L 727.409146 495.28909 
L 731.074001 496.659954 
L 732.295619 496.818153 
L 733.517237 496.71939 
L 735.960473 496.211776 
L 737.182092 496.151656 
L 738.40371 496.308106 
L 740.846946 496.812527 
L 742.068564 496.91755 
L 749.398273 496.95053 
L 757.949601 497.017415 
L 760.392837 496.725028 
L 766.500928 495.540617 
L 768.944164 495.654052 
L 772.609019 496.02303 
L 775.052255 495.858686 
L 778.717109 495.318422 
L 781.160346 495.3848 
L 784.8252 495.702059 
L 787.268437 495.66249 
L 793.376527 495.229782 
L 797.041382 495.262052 
L 799.484618 495.048828 
L 801.927855 494.592705 
L 803.149473 494.138635 
L 804.371091 493.37316 
L 806.814327 491.280786 
L 808.035946 490.583818 
L 809.257564 490.389662 
L 811.7008 490.824093 
L 815.365655 491.585159 
L 816.587273 491.881487 
L 816.587273 491.881487 
" clip-path="url(#pe321443d70)" style="fill: none; stroke: #0000ff; stroke-width: 1.5; stroke-linecap: square"/>
   </g>
   <g id="line2d_14">
    <path d="M 84.332727 234.353768 
L 427.315466 234.172549 
L 427.315466 234.107073 
L 427.996641 234.038167 
L 427.996641 233.939074 
L 428.665599 234.017934 
L 428.665599 233.944478 
L 428.997879 234.026036 
L 428.997879 233.907082 
L 429.330159 234.012389 
L 429.330159 233.880233 
L 429.994719 233.997291 
L 429.994719 233.870353 
L 430.327733 234.006109 
L 430.327733 233.914303 
L 430.999134 234.041518 
L 430.999134 233.932522 
L 431.332391 234.023846 
L 431.332391 233.91037 
L 432.334851 234.04905 
L 432.334851 233.988191 
L 433.007474 234.072483 
L 433.007474 234.019731 
L 433.683518 234.172999 
L 433.683518 234.104639 
L 434.696972 234.186798 
L 434.696972 234.143066 
L 436.068361 234.158492 
L 437.095986 234.212967 
L 437.095986 234.171528 
L 438.123855 234.253264 
L 438.123855 234.229278 
L 439.495244 234.277015 
L 439.495244 234.251428 
L 441.221146 234.276052 
L 452.564848 234.327222 
L 452.564848 234.327902 
L 458.406626 234.343366 
L 493.985767 234.32077 
L 532.361191 234.334933 
L 532.361191 234.330889 
L 556.373562 234.318239 
L 562.971766 234.304794 
L 562.971766 234.313193 
L 566.615121 234.233124 
L 566.615121 234.214701 
L 570.652324 234.215674 
L 574.739614 234.253642 
L 574.739614 234.23527 
L 575.421522 234.124696 
L 576.10294 233.865442 
L 576.10294 233.796457 
L 576.784359 233.368724 
L 576.784359 233.311734 
L 577.470175 232.783922 
L 578.152815 232.26807 
L 578.822507 232.125638 
L 578.822507 232.218699 
L 579.828387 232.276625 
L 579.828387 232.350698 
L 580.167508 232.397723 
L 580.167508 232.513107 
L 580.50443 232.536356 
L 580.50443 232.66469 
L 581.181207 232.874056 
L 581.181207 233.003966 
L 582.20419 233.180398 
L 582.20419 233.235336 
L 583.572158 233.492374 
L 583.572158 233.565381 
L 584.594652 233.609595 
L 584.594652 233.668211 
L 585.617635 233.757634 
L 585.617635 233.736171 
L 586.641596 233.683222 
L 586.641596 233.704231 
L 592.800017 234.003149 
L 592.800017 233.981008 
L 593.83033 233.846657 
L 593.83033 233.698661 
L 594.172383 233.710193 
L 594.172383 233.540389 
L 594.513948 233.569066 
L 594.513948 233.310919 
L 594.855512 233.405604 
L 594.855512 233.074877 
L 595.196832 233.214867 
L 595.196832 232.852704 
L 595.537908 233.063701 
L 595.537908 232.698139 
L 595.878984 232.941965 
L 595.878984 232.603989 
L 596.218838 232.948706 
L 596.218838 232.614413 
L 596.555516 232.927823 
L 596.555516 232.615496 
L 596.893416 232.88449 
L 596.893416 232.4686 
L 597.229116 232.789389 
L 597.229116 232.334666 
L 597.564573 232.55974 
L 597.564573 231.300966 
L 597.899296 231.089213 
L 597.899296 228.559834 
L 598.234752 227.734761 
L 598.234752 222.914034 
L 598.572163 222.366605 
L 598.572163 213.250642 
L 598.902244 211.91896 
L 598.902244 198.453355 
L 599.229638 199.906062 
L 599.229638 180.481412 
L 599.557032 182.839697 
L 599.557032 161.576619 
L 599.883448 166.55331 
L 599.883448 135.403235 
L 600.210109 148.023394 
L 600.210109 119.775511 
L 600.536281 134.246552 
L 600.536281 102.637062 
L 600.862697 124.050259 
L 600.862697 88.161087 
L 601.188869 111.955118 
L 601.188869 75.498251 
L 601.515041 101.535496 
L 601.515041 59.758603 
L 601.841213 90.70566 
L 601.841213 49.932727 
L 602.16763 83.975189 
L 602.16763 51.027547 
L 602.493558 93.883181 
L 602.493558 55.548925 
L 602.81973 94.876757 
L 602.81973 57.852919 
L 603.145902 93.415022 
L 603.145902 59.253467 
L 603.477449 98.89197 
L 603.477449 68.67608 
L 603.803621 109.990209 
L 603.803621 76.498807 
L 604.132725 114.627991 
L 604.132725 81.250912 
L 604.459141 113.9626 
L 604.459141 85.183478 
L 604.785313 121.54427 
L 604.785313 96.113684 
L 605.111485 132.570514 
L 605.111485 111.17418 
L 605.437657 140.529607 
L 605.437657 118.759476 
L 605.764074 144.544191 
L 605.764074 122.559901 
L 606.09049 147.922331 
L 606.09049 127.066397 
L 606.416906 151.695068 
L 606.416906 129.901673 
L 606.743323 154.852696 
L 606.743323 137.281378 
L 607.069984 161.643398 
L 607.069984 142.382982 
L 607.397866 166.561162 
L 607.397866 149.866744 
L 607.724527 170.301266 
L 607.724527 152.587402 
L 608.050943 173.150347 
L 608.050943 155.680594 
L 608.382979 173.063531 
L 608.382979 154.429293 
L 608.709884 171.001895 
L 608.709884 156.520307 
L 609.036789 174.700274 
L 609.036789 161.543503 
L 609.363449 179.555692 
L 609.363449 167.368139 
L 609.690355 182.781348 
L 609.690355 169.151726 
L 610.01726 183.666288 
L 610.01726 171.366157 
L 610.344409 184.269087 
L 610.344409 171.298493 
L 610.671558 185.785596 
L 610.671558 175.867452 
L 610.998463 188.924396 
L 610.998463 179.646837 
L 611.325368 193.564906 
L 611.325368 183.502307 
L 611.652518 194.795017 
L 611.652518 183.90468 
L 611.979667 194.712644 
L 611.979667 185.122884 
L 612.307305 194.985177 
L 612.307305 185.337478 
L 612.634699 196.740972 
L 612.634699 187.189517 
L 612.962337 198.581353 
L 612.962337 190.661824 
L 613.294861 200.462129 
L 613.294861 192.27174 
L 613.622255 202.72835 
L 613.622255 194.490516 
L 613.953069 203.688036 
L 613.953069 195.567871 
L 614.280463 205.139608 
L 614.280463 197.133329 
L 614.608101 205.135705 
L 614.608101 198.372598 
L 614.935739 207.49351 
L 614.935739 200.594635 
L 615.263865 209.060038 
L 615.263865 201.972145 
L 615.591992 209.327145 
L 615.591992 202.598069 
L 615.920119 210.104168 
L 615.920119 204.253513 
L 616.248489 211.592609 
L 616.248489 206.227768 
L 616.57686 212.935932 
L 616.57686 207.267158 
L 616.905231 214.143299 
L 616.905231 209.444863 
L 617.233602 215.892953 
L 617.233602 210.778859 
L 617.562706 216.175754 
L 617.562706 211.218277 
L 617.891566 216.409811 
L 617.891566 211.440744 
L 618.226045 216.710764 
L 618.226045 213.172309 
L 618.554905 218.068241 
L 618.554905 214.694179 
L 618.884253 219.884701 
L 618.884253 216.292702 
L 619.212868 220.672519 
L 619.212868 217.259173 
L 619.542216 221.406209 
L 619.542216 217.373057 
L 619.871076 221.562979 
L 619.871076 218.178394 
L 620.200913 221.893213 
L 620.200913 218.792427 
L 620.530261 223.035015 
L 620.530261 219.866507 
L 620.859854 223.500978 
L 620.859854 220.581353 
L 621.189202 223.806536 
L 621.189202 220.783401 
L 621.51855 224.077021 
L 621.51855 221.705349 
L 621.848143 224.910006 
L 621.848143 222.348572 
L 622.180179 225.465671 
L 622.180179 223.144088 
L 622.510993 225.326791 
L 622.510993 223.221003 
L 622.842051 225.854183 
L 622.842051 223.673832 
L 623.177508 226.242011 
L 623.177508 224.25228 
L 623.508322 226.394185 
L 623.508322 224.373573 
L 623.843045 226.738981 
L 623.843045 224.73641 
L 624.174104 227.042199 
L 624.174104 225.043141 
L 624.504918 227.290411 
L 624.504918 225.384147 
L 624.836465 227.478914 
L 624.836465 225.644786 
L 625.16899 227.754457 
L 625.16899 225.913687 
L 625.502003 227.817966 
L 625.502003 226.283926 
L 625.833061 228.022892 
L 625.833061 226.529148 
L 626.166074 228.310136 
L 626.166074 226.913153 
L 626.497622 228.588584 
L 626.497622 227.134719 
L 626.830879 228.839128 
L 626.830879 227.447579 
L 627.162671 229.003525 
L 627.162671 227.466613 
L 627.495684 229.052219 
L 627.495684 227.745263 
L 627.828208 229.206383 
L 627.828208 227.830278 
L 628.168551 229.392384 
L 628.168551 228.158916 
L 628.50132 229.433599 
L 628.50132 228.081538 
L 628.833844 229.424571 
L 628.833844 228.157408 
L 629.168079 229.347341 
L 629.168079 228.131972 
L 629.500359 229.462208 
L 629.500359 228.298539 
L 629.833128 229.68614 
L 629.833128 228.620927 
L 630.166141 230.042398 
L 630.166141 228.899665 
L 630.499398 230.013584 
L 630.499398 228.820808 
L 630.833389 230.06415 
L 630.833389 228.800305 
L 631.168845 230.1503 
L 631.168845 229.172453 
L 631.502591 230.414307 
L 631.502591 229.224826 
L 631.837803 230.411832 
L 631.837803 229.380948 
L 632.172527 230.504423 
L 632.172527 229.563359 
L 632.507983 230.851138 
L 632.507983 229.926583 
L 632.84515 230.951205 
L 632.84515 230.013958 
L 633.191356 230.925878 
L 633.191356 230.039953 
L 633.52779 230.979691 
L 633.52779 230.158424 
L 633.862758 231.177156 
L 633.862758 230.444429 
L 634.200413 231.323534 
L 634.200413 230.527488 
L 634.536602 231.375206 
L 634.536602 230.731285 
L 634.871081 231.481108 
L 634.871081 230.720736 
L 635.204827 231.613679 
L 635.204827 230.970055 
L 635.537596 231.648471 
L 635.537596 231.003802 
L 635.870854 231.769023 
L 635.870854 231.242362 
L 636.201423 232.004975 
L 636.201423 231.365642 
L 636.531749 232.090696 
L 636.531749 231.56245 
L 636.861586 232.086654 
L 636.861586 231.4445 
L 637.1924 232.09824 
L 637.1924 231.521502 
L 637.523459 232.117883 
L 637.523459 231.534556 
L 637.855006 232.115472 
L 637.855006 231.58578 
L 638.192172 232.193741 
L 638.192172 231.53841 
L 638.523231 232.178525 
L 638.523231 231.662896 
L 638.855022 232.228491 
L 638.855022 231.646097 
L 639.187058 232.324619 
L 639.187058 231.697786 
L 639.520071 232.264546 
L 639.520071 231.776725 
L 639.852351 232.408763 
L 639.852351 231.840565 
L 640.186586 232.520142 
L 640.186586 231.982154 
L 640.520577 232.440098 
L 640.520577 231.807511 
L 640.855056 232.366507 
L 640.855056 231.728846 
L 641.191734 232.319039 
L 641.191734 231.860814 
L 641.529389 232.420174 
L 641.529389 231.851039 
L 641.867044 232.468461 
L 641.867044 231.885484 
L 642.202012 232.393093 
L 642.202012 231.964738 
L 642.536491 232.518841 
L 642.536491 232.012521 
L 642.875856 232.589022 
L 642.875856 232.101292 
L 643.215466 232.56982 
L 643.215466 232.13909 
L 643.550678 232.730768 
L 643.550678 232.245916 
L 643.883447 232.755618 
L 643.883447 232.304562 
L 644.219392 232.740274 
L 644.219392 232.249935 
L 644.552894 232.737186 
L 644.552894 232.340598 
L 644.890305 232.84444 
L 644.890305 232.426073 
L 645.227227 232.886544 
L 645.227227 232.359624 
L 645.565371 232.795844 
L 645.565371 232.32151 
L 645.901316 232.762948 
L 645.901316 232.355651 
L 646.238238 232.836701 
L 646.238238 232.439481 
L 646.577604 232.897151 
L 646.577604 232.494982 
L 646.918191 232.894346 
L 646.918191 232.530127 
L 647.258045 232.918785 
L 647.258045 232.493398 
L 647.598388 232.887167 
L 647.598388 232.493394 
L 647.938975 232.84372 
L 647.938975 232.446676 
L 648.284937 232.857151 
L 648.284937 232.506453 
L 648.625769 232.924754 
L 648.625769 232.599551 
L 648.9666 232.974623 
L 648.9666 232.665886 
L 649.307187 233.004971 
L 649.307187 232.644555 
L 649.648019 233.062919 
L 649.648019 232.745754 
L 649.98885 233.065971 
L 649.98885 232.814535 
L 650.329682 233.171281 
L 650.329682 232.700035 
L 650.671979 233.056866 
L 650.671979 232.740384 
L 651.013299 233.046911 
L 651.013299 232.756579 
L 651.35975 233.197612 
L 651.35975 232.865734 
L 651.700582 233.218344 
L 651.700582 232.89235 
L 652.041902 233.195611 
L 652.041902 232.895586 
L 652.383222 233.216953 
L 652.383222 232.884436 
L 652.724542 233.205443 
L 652.724542 232.9228 
L 653.065862 233.223136 
L 653.065862 232.908678 
L 653.412313 233.208868 
L 653.412313 232.903147 
L 653.753633 233.215286 
L 653.753633 232.931764 
L 654.094953 233.246935 
L 654.094953 232.982022 
L 654.436029 233.267602 
L 654.436029 232.926337 
L 654.777105 233.2397 
L 654.777105 232.960343 
L 655.118181 233.289857 
L 655.118181 233.013574 
L 655.459501 233.333647 
L 655.459501 233.097177 
L 655.800577 233.385262 
L 655.800577 233.106204 
L 656.141897 233.38045 
L 656.141897 233.114224 
L 656.488103 233.325411 
L 656.488103 233.068602 
L 656.829179 233.340807 
L 656.829179 233.11534 
L 657.170255 233.380927 
L 657.170255 233.171203 
L 657.511331 233.436404 
L 657.511331 233.18427 
L 657.852895 233.486338 
L 657.852895 233.239889 
L 658.195926 233.491716 
L 658.195926 233.271074 
L 658.542376 233.528248 
L 658.542376 233.279244 
L 658.883452 233.521264 
L 658.883452 233.26878 
L 659.224772 233.518354 
L 659.224772 233.273456 
L 659.565604 233.516328 
L 659.565604 233.30465 
L 659.90668 233.581213 
L 659.90668 233.331028 
L 660.247755 233.589124 
L 660.247755 233.337004 
L 660.588587 233.541432 
L 660.588587 233.29487 
L 660.929418 233.547482 
L 660.929418 233.299146 
L 661.270494 233.544502 
L 661.270494 233.337655 
L 661.615968 233.542135 
L 661.615968 233.33495 
L 661.957777 233.563037 
L 661.957777 233.382726 
L 662.296165 233.605126 
L 662.296165 233.429793 
L 662.634797 233.626204 
L 662.634797 233.466651 
L 662.970987 233.62509 
L 662.970987 233.487557 
L 663.30742 233.687679 
L 663.30742 233.520652 
L 663.647519 233.668244 
L 663.647519 233.439033 
L 663.983464 233.58355 
L 663.983464 233.319201 
L 664.319409 233.508951 
L 664.319409 233.31233 
L 664.658774 233.563576 
L 664.658774 233.362863 
L 664.999117 233.619852 
L 664.999117 233.438863 
L 665.678826 233.389798 
L 665.678826 233.444182 
L 666.020146 233.461876 
L 666.020146 233.44033 
L 666.361466 233.7267 
L 666.361466 233.524975 
L 666.702542 233.687608 
L 666.702542 233.477608 
L 667.044106 233.650727 
L 667.044106 233.478026 
L 667.385182 233.67764 
L 667.385182 233.46013 
L 667.726746 233.657785 
L 667.726746 233.478566 
L 668.068066 233.657044 
L 668.068066 233.47466 
L 668.410364 233.708057 
L 668.410364 233.52262 
L 668.756815 233.736216 
L 668.756815 233.573011 
L 669.098379 233.767203 
L 669.098379 233.574593 
L 669.44483 233.756533 
L 669.44483 233.55683 
L 669.78615 233.734187 
L 669.78615 233.546543 
L 670.127715 233.722193 
L 670.127715 233.545516 
L 670.469035 233.724151 
L 670.469035 233.517021 
L 670.810599 233.706037 
L 670.810599 233.544477 
L 671.151919 233.729792 
L 671.151919 233.544961 
L 671.493239 233.73597 
L 671.493239 233.57656 
L 671.834559 233.745254 
L 671.834559 233.596892 
L 672.17588 233.795259 
L 672.17588 233.661469 
L 672.5172 233.823485 
L 672.5172 233.681624 
L 672.858276 233.847743 
L 672.858276 233.655511 
L 673.199351 233.795906 
L 673.199351 233.64036 
L 673.540671 233.808597 
L 673.540671 233.666487 
L 673.887122 233.868093 
L 673.887122 233.752428 
L 674.228198 233.894918 
L 674.228198 233.723574 
L 674.569274 233.845804 
L 674.569274 233.680614 
L 674.91035 233.777669 
L 674.91035 233.656649 
L 675.251426 233.821004 
L 675.251426 233.648679 
L 675.592746 233.81574 
L 675.592746 233.715219 
L 675.935287 233.840132 
L 675.935287 233.684696 
L 676.276852 233.860017 
L 676.276852 233.732603 
L 676.623791 233.847233 
L 676.623791 233.703347 
L 676.965111 233.849567 
L 676.965111 233.74795 
L 677.306432 233.865086 
L 677.306432 233.731605 
L 677.647752 233.883834 
L 677.647752 233.735872 
L 677.989072 233.858271 
L 677.989072 233.718167 
L 678.330636 233.854304 
L 678.330636 233.702353 
L 678.672201 233.851402 
L 678.672201 233.655773 
L 679.360705 233.85135 
L 679.360705 233.698425 
L 679.703979 233.895676 
L 679.703979 233.729206 
L 680.045544 233.822638 
L 680.045544 233.683987 
L 680.387353 233.839177 
L 680.387353 233.68727 
L 680.729161 233.840173 
L 680.729161 233.728383 
L 681.070726 233.861151 
L 681.070726 233.718876 
L 681.412779 233.868602 
L 681.412779 233.743248 
L 681.754343 233.867212 
L 681.754343 233.722684 
L 682.096396 233.866533 
L 682.096396 233.733787 
L 682.437961 233.86795 
L 682.437961 233.735368 
L 683.121334 233.924135 
L 683.121334 233.800612 
L 683.463387 233.94586 
L 683.463387 233.83824 
L 683.804952 233.93284 
L 683.804952 233.808118 
L 684.157266 233.944095 
L 684.157266 233.812328 
L 684.84064 233.934574 
L 684.84064 233.780968 
L 685.182448 233.880556 
L 685.182448 233.728993 
L 685.865577 233.85356 
L 685.865577 233.752341 
L 686.207142 233.896081 
L 686.207142 233.782079 
L 686.89027 233.931762 
L 686.89027 233.840225 
L 687.231591 233.942459 
L 687.231591 233.821269 
L 687.573155 233.947969 
L 687.573155 233.82908 
L 688.25604 233.963327 
L 688.25604 233.85082 
L 688.59736 233.96753 
L 688.59736 233.865286 
L 689.285864 233.978506 
L 689.285864 233.843516 
L 689.968993 233.930426 
L 689.968993 233.801741 
L 690.310557 233.933738 
L 690.310557 233.84118 
L 690.652121 233.932934 
L 690.652121 233.805822 
L 690.99393 233.938328 
L 690.99393 233.801049 
L 691.677303 233.973215 
L 691.677303 233.845452 
L 692.018868 233.980458 
L 692.018868 233.859078 
L 692.702485 233.956988 
L 692.702485 233.840665 
L 693.386103 233.97631 
L 693.386103 233.870631 
L 693.727912 233.99256 
L 693.727912 233.899558 
L 694.41666 233.979552 
L 694.41666 233.868926 
L 695.442086 233.847895 
L 696.125704 233.992089 
L 696.125704 233.871835 
L 696.467757 234.001436 
L 696.467757 233.920586 
L 697.151374 234.016757 
L 697.151374 233.899817 
L 697.835236 233.944886 
L 697.835236 233.851262 
L 698.518854 233.988399 
L 698.518854 233.854371 
L 698.860663 233.96294 
L 698.860663 233.857614 
L 699.549411 233.955083 
L 699.549411 233.863709 
L 700.233273 233.979111 
L 700.233273 233.883459 
L 700.917623 233.95737 
L 700.917623 233.874941 
L 701.601241 234.008805 
L 701.601241 233.895109 
L 701.943294 234.002155 
L 701.943294 233.883799 
L 702.627156 234.006164 
L 702.627156 233.899871 
L 702.969209 234.018374 
L 702.969209 233.906945 
L 703.653071 234.000331 
L 703.653071 233.919013 
L 704.336933 234.045526 
L 704.336933 233.933126 
L 705.027391 233.993926 
L 705.027391 233.883574 
L 705.369444 233.998913 
L 705.369444 233.914295 
L 706.053306 234.003653 
L 706.053306 233.883205 
L 706.395359 233.985528 
L 706.395359 233.896443 
L 707.42103 234.036152 
L 707.42103 233.93267 
L 708.104892 234.022062 
L 708.104892 233.910877 
L 708.789975 234.023184 
L 708.789975 233.946793 
L 709.131784 234.054577 
L 709.131784 233.96846 
L 709.826152 234.05788 
L 709.826152 233.989986 
L 710.509525 234.026003 
L 710.509525 233.914765 
L 711.193142 233.999961 
L 711.193142 233.929235 
L 711.876516 234.06984 
L 711.876516 233.984646 
L 712.901209 233.906703 
L 712.901209 233.916228 
L 713.584582 234.032723 
L 713.584582 233.946623 
L 714.614162 234.056908 
L 714.614162 233.991515 
L 715.302422 234.052733 
L 715.302422 233.966562 
L 715.98555 234.073126 
L 715.98555 233.984912 
L 716.668435 234.071907 
L 716.668435 233.975906 
L 717.351075 234.05256 
L 717.351075 233.99672 
L 718.033715 234.089583 
L 718.033715 234.01232 
L 718.7166 234.081865 
L 718.7166 233.991253 
L 719.399729 234.047699 
L 719.399729 233.946868 
L 720.08921 234.061515 
L 720.08921 233.982826 
L 720.772095 234.04502 
L 720.772095 233.968864 
L 721.46011 234.060867 
L 721.46011 233.978095 
L 722.142995 234.080466 
L 722.142995 233.973518 
L 722.825879 234.030246 
L 722.825879 233.955022 
L 723.508764 234.050458 
L 723.508764 233.983678 
L 725.221717 234.061501 
L 725.221717 233.960971 
L 725.904113 234.041435 
L 725.904113 233.950038 
L 726.586753 234.056023 
L 726.586753 233.982838 
L 726.927829 234.078143 
L 726.927829 233.992104 
L 727.60998 234.073922 
L 727.60998 233.980193 
L 728.292621 234.066974 
L 728.292621 233.990737 
L 728.980147 234.055222 
L 728.980147 233.940152 
L 729.662787 234.070596 
L 729.662787 233.988773 
L 730.351291 234.080166 
L 730.351291 234.002543 
L 731.033932 234.078018 
L 731.033932 234.029636 
L 731.716328 234.098222 
L 731.716328 234.043749 
L 732.057648 234.081699 
L 732.057648 233.995127 
L 733.423173 233.961658 
L 734.106057 234.02188 
L 734.106057 233.944899 
L 735.482332 234.045476 
L 735.482332 233.95034 
L 735.823408 234.038601 
L 735.823408 233.933032 
L 736.506292 234.010671 
L 736.506292 233.889277 
L 737.188688 234.01384 
L 737.188688 233.931655 
L 737.871329 234.072039 
L 737.871329 233.9657 
L 738.555435 234.063012 
L 738.555435 233.974163 
L 739.238075 234.052447 
L 739.238075 233.983691 
L 739.927068 234.089172 
L 739.927068 234.023039 
L 740.614839 234.065295 
L 740.614839 233.977666 
L 741.297968 234.032936 
L 741.297968 233.969606 
L 741.981096 234.063646 
L 741.981096 233.979765 
L 742.323394 234.042936 
L 742.323394 233.986624 
L 756.342684 234.0557 
L 756.342684 234.030732 
L 759.760527 234.084618 
L 760.101603 234.146944 
L 760.101603 234.049068 
L 760.784243 234.054499 
L 760.784243 233.978265 
L 761.47348 234.105524 
L 761.47348 234.030451 
L 762.155632 234.10429 
L 762.155632 234.035608 
L 762.838028 234.114368 
L 762.838028 234.049672 
L 763.86663 234.003138 
L 763.86663 234.021995 
L 764.548782 234.126717 
L 764.548782 234.050862 
L 765.573475 234.093149 
L 765.573475 234.029759 
L 766.602078 234.124666 
L 766.602078 234.034363 
L 767.283985 234.061358 
L 767.283985 233.969832 
L 767.965892 234.051909 
L 767.965892 234.006464 
L 768.655374 234.093014 
L 768.655374 234.029299 
L 769.337769 234.071315 
L 769.337769 234.004367 
L 770.020165 234.079064 
L 770.020165 234.018784 
L 770.702317 234.092495 
L 770.702317 234.035199 
L 771.389844 234.090836 
L 771.389844 234.024913 
L 772.414048 234.073073 
L 795.144698 234.04506 
L 795.475023 233.942189 
L 796.463801 234.050725 
L 804.724383 234.109527 
L 804.724383 234.017869 
L 805.716581 234.090636 
L 805.716581 234.060774 
L 806.720751 234.121257 
L 806.720751 234.059306 
L 808.714188 234.066662 
L 808.714188 234.037168 
L 809.377771 234.127405 
L 809.377771 234.088212 
L 810.373878 234.07919 
L 810.373878 234.034616 
L 811.370474 234.070131 
L 811.370474 234.023246 
L 812.371713 233.980924 
L 812.371713 233.939208 
L 813.037006 234.114072 
L 814.061944 234.347799 
L 816.528879 234.348816 
L 816.528879 234.348638 
" clip-path="url(#pe321443d70)" style="fill: none; stroke: #008000; stroke-width: 1.5; stroke-linecap: square"/>
   </g>
   <g id="patch_3">
    <path d="M 47.72 534.04 
L 47.72 26.88 
" style="fill: none; stroke: #000000; stroke-width: 0.8; stroke-linejoin: miter; stroke-linecap: square"/>
   </g>
   <g id="patch_4">
    <path d="M 853.2 534.04 
L 853.2 26.88 
" style="fill: none; stroke: #000000; stroke-width: 0.8; stroke-linejoin: miter; stroke-linecap: square"/>
   </g>
   <g id="patch_5">
    <path d="M 47.72 534.04 
L 853.2 534.04 
" style="fill: none; stroke: #000000; stroke-width: 0.8; stroke-linejoin: miter; stroke-linecap: square"/>
   </g>
   <g id="patch_6">
    <path d="M 47.72 26.88 
L 853.2 26.88 
" style="fill: none; stroke: #000000; stroke-width: 0.8; stroke-linejoin: miter; stroke-linecap: square"/>
   </g>
   <g id="patch_7">
    <path d="M 669.64713 321.259733 
Q 643.517785 327.092724 617.38844 332.925715 
L 618.25993 336.829624 
Q 611.751856 335.208613 605.243781 333.587603 
Q 610.44462 329.35275 615.64546 325.117897 
L 616.51695 329.021806 
Q 642.646295 323.188815 668.77564 317.355824 
L 669.64713 321.259733 
z
" style="stroke: #000000; stroke-linecap: round"/>
   </g>
   <g id="text_15">
    <!-- Peak: RT=3.53, Area=1.19e+04 -->
    <g style="fill: #ff0000" transform="translate(674.879565 304.764941) scale(0.1 -0.1)">
     <defs>
      <path id="DejaVuSans-50" d="M 1259 4147 
L 1259 2394 
L 2053 2394 
Q 2494 2394 2734 2622 
Q 2975 2850 2975 3272 
Q 2975 3691 2734 3919 
Q 2494 4147 2053 4147 
L 1259 4147 
z
M 628 4666 
L 2053 4666 
Q 2838 4666 3239 4311 
Q 3641 3956 3641 3272 
Q 3641 2581 3239 2228 
Q 2838 1875 2053 1875 
L 1259 1875 
L 1259 0 
L 628 0 
L 628 4666 
z
" transform="scale(0.015625)"/>
      <path id="DejaVuSans-6b" d="M 581 4863 
L 1159 4863 
L 1159 1991 
L 2875 3500 
L 3609 3500 
L 1753 1863 
L 3688 0 
L 2938 0 
L 1159 1709 
L 1159 0 
L 581 0 
L 581 4863 
z
" transform="scale(0.015625)"/>
      <path id="DejaVuSans-3a" d="M 750 794 
L 1409 794 
L 1409 0 
L 750 0 
L 750 794 
z
M 750 3309 
L 1409 3309 
L 1409 2516 
L 750 2516 
L 750 3309 
z
" transform="scale(0.015625)"/>
      <path id="DejaVuSans-3d" d="M 678 2906 
L 4684 2906 
L 4684 2381 
L 678 2381 
L 678 2906 
z
M 678 1631 
L 4684 1631 
L 4684 1100 
L 678 1100 
L 678 1631 
z
" transform="scale(0.015625)"/>
      <path id="DejaVuSans-2c" d="M 750 794 
L 1409 794 
L 1409 256 
L 897 -744 
L 494 -744 
L 750 256 
L 750 794 
z
" transform="scale(0.015625)"/>
      <path id="DejaVuSans-41" d="M 2188 4044 
L 1331 1722 
L 3047 1722 
L 2188 4044 
z
M 1831 4666 
L 2547 4666 
L 4325 0 
L 3669 0 
L 3244 1197 
L 1141 1197 
L 716 0 
L 50 0 
L 1831 4666 
z
" transform="scale(0.015625)"/>
      <path id="DejaVuSans-39" d="M 703 97 
L 703 672 
Q 941 559 1184 500 
Q 1428 441 1663 441 
Q 2288 441 2617 861 
Q 2947 1281 2994 2138 
Q 2813 1869 2534 1725 
Q 2256 1581 1919 1581 
Q 1219 1581 811 2004 
Q 403 2428 403 3163 
Q 403 3881 828 4315 
Q 1253 4750 1959 4750 
Q 2769 4750 3195 4129 
Q 3622 3509 3622 2328 
Q 3622 1225 3098 567 
Q 2575 -91 1691 -91 
Q 1453 -91 1209 -44 
Q 966 3 703 97 
z
M 1959 2075 
Q 2384 2075 2632 2365 
Q 2881 2656 2881 3163 
Q 2881 3666 2632 3958 
Q 2384 4250 1959 4250 
Q 1534 4250 1286 3958 
Q 1038 3666 1038 3163 
Q 1038 2656 1286 2365 
Q 1534 2075 1959 2075 
z
" transform="scale(0.015625)"/>
      <path id="DejaVuSans-2b" d="M 2944 4013 
L 2944 2272 
L 4684 2272 
L 4684 1741 
L 2944 1741 
L 2944 0 
L 2419 0 
L 2419 1741 
L 678 1741 
L 678 2272 
L 2419 2272 
L 2419 4013 
L 2944 4013 
z
" transform="scale(0.015625)"/>
     </defs>
     <use xlink:href="#DejaVuSans-50"/>
     <use xlink:href="#DejaVuSans-65" transform="translate(56.677734 0)"/>
     <use xlink:href="#DejaVuSans-61" transform="translate(118.201172 0)"/>
     <use xlink:href="#DejaVuSans-6b" transform="translate(179.480469 0)"/>
     <use xlink:href="#DejaVuSans-3a" transform="translate(237.390625 0)"/>
     <use xlink:href="#DejaVuSans-20" transform="translate(271.082031 0)"/>
     <use xlink:href="#DejaVuSans-52" transform="translate(302.869141 0)"/>
     <use xlink:href="#DejaVuSans-54" transform="translate(365.101562 0)"/>
     <use xlink:href="#DejaVuSans-3d" transform="translate(426.185547 0)"/>
     <use xlink:href="#DejaVuSans-33" transform="translate(509.974609 0)"/>
     <use xlink:href="#DejaVuSans-2e" transform="translate(573.597656 0)"/>
     <use xlink:href="#DejaVuSans-35" transform="translate(605.384766 0)"/>
     <use xlink:href="#DejaVuSans-33" transform="translate(669.007812 0)"/>
     <use xlink:href="#DejaVuSans-2c" transform="translate(732.630859 0)"/>
     <use xlink:href="#DejaVuSans-20" transform="translate(764.417969 0)"/>
     <use xlink:href="#DejaVuSans-41" transform="translate(796.205078 0)"/>
     <use xlink:href="#DejaVuSans-72" transform="translate(864.613281 0)"/>
     <use xlink:href="#DejaVuSans-65" transform="translate(903.476562 0)"/>
     <use xlink:href="#DejaVuSans-61" transform="translate(965 0)"/>
     <use xlink:href="#DejaVuSans-3d" transform="translate(1026.279297 0)"/>
     <use xlink:href="#DejaVuSans-31" transform="translate(1110.068359 0)"/>
     <use xlink:href="#DejaVuSans-2e" transform="translate(1173.691406 0)"/>
     <use xlink:href="#DejaVuSans-31" transform="translate(1205.478516 0)"/>
     <use xlink:href="#DejaVuSans-39" transform="translate(1269.101562 0)"/>
     <use xlink:href="#DejaVuSans-65" transform="translate(1332.724609 0)"/>
     <use xlink:href="#DejaVuSans-2b" transform="translate(1394.248047 0)"/>
     <use xlink:href="#DejaVuSans-30" transform="translate(1478.037109 0)"/>
     <use xlink:href="#DejaVuSans-34" transform="translate(1541.660156 0)"/>
    </g>
    <!-- (23.05% of total) -->
    <g style="fill: #ff0000" transform="translate(674.879565 315.962754) scale(0.1 -0.1)">
     <defs>
      <path id="DejaVuSans-25" d="M 4653 2053 
Q 4381 2053 4226 1822 
Q 4072 1591 4072 1178 
Q 4072 772 4226 539 
Q 4381 306 4653 306 
Q 4919 306 5073 539 
Q 5228 772 5228 1178 
Q 5228 1588 5073 1820 
Q 4919 2053 4653 2053 
z
M 4653 2450 
Q 5147 2450 5437 2106 
Q 5728 1763 5728 1178 
Q 5728 594 5436 251 
Q 5144 -91 4653 -91 
Q 4153 -91 3862 251 
Q 3572 594 3572 1178 
Q 3572 1766 3864 2108 
Q 4156 2450 4653 2450 
z
M 1428 4353 
Q 1159 4353 1004 4120 
Q 850 3888 850 3481 
Q 850 3069 1003 2837 
Q 1156 2606 1428 2606 
Q 1700 2606 1854 2837 
Q 2009 3069 2009 3481 
Q 2009 3884 1853 4118 
Q 1697 4353 1428 4353 
z
M 4250 4750 
L 4750 4750 
L 1831 -91 
L 1331 -91 
L 4250 4750 
z
M 1428 4750 
Q 1922 4750 2215 4408 
Q 2509 4066 2509 3481 
Q 2509 2891 2217 2550 
Q 1925 2209 1428 2209 
Q 931 2209 642 2551 
Q 353 2894 353 3481 
Q 353 4063 643 4406 
Q 934 4750 1428 4750 
z
" transform="scale(0.015625)"/>
      <path id="DejaVuSans-66" d="M 2375 4863 
L 2375 4384 
L 1825 4384 
Q 1516 4384 1395 4259 
Q 1275 4134 1275 3809 
L 1275 3500 
L 2222 3500 
L 2222 3053 
L 1275 3053 
L 1275 0 
L 697 0 
L 697 3053 
L 147 3053 
L 147 3500 
L 697 3500 
L 697 3744 
Q 697 4328 969 4595 
Q 1241 4863 1831 4863 
L 2375 4863 
z
" transform="scale(0.015625)"/>
     </defs>
     <use xlink:href="#DejaVuSans-28"/>
     <use xlink:href="#DejaVuSans-32" transform="translate(39.013672 0)"/>
     <use xlink:href="#DejaVuSans-33" transform="translate(102.636719 0)"/>
     <use xlink:href="#DejaVuSans-2e" transform="translate(166.259766 0)"/>
     <use xlink:href="#DejaVuSans-30" transform="translate(198.046875 0)"/>
     <use xlink:href="#DejaVuSans-35" transform="translate(261.669922 0)"/>
     <use xlink:href="#DejaVuSans-25" transform="translate(325.292969 0)"/>
     <use xlink:href="#DejaVuSans-20" transform="translate(420.3125 0)"/>
     <use xlink:href="#DejaVuSans-6f" transform="translate(452.099609 0)"/>
     <use xlink:href="#DejaVuSans-66" transform="translate(513.28125 0)"/>
     <use xlink:href="#DejaVuSans-20" transform="translate(548.486328 0)"/>
     <use xlink:href="#DejaVuSans-74" transform="translate(580.273438 0)"/>
     <use xlink:href="#DejaVuSans-6f" transform="translate(619.482422 0)"/>
     <use xlink:href="#DejaVuSans-74" transform="translate(680.664062 0)"/>
     <use xlink:href="#DejaVuSans-61" transform="translate(719.873047 0)"/>
     <use xlink:href="#DejaVuSans-6c" transform="translate(781.152344 0)"/>
     <use xlink:href="#DejaVuSans-29" transform="translate(808.935547 0)"/>
    </g>
   </g>
   <g id="text_16">
    <!-- UV &amp; MS Chromatograms: IrCp2O20, target m/z=759.2271482 -->
    <g transform="translate(261.68875 20.88) scale(0.12 -0.12)">
     <defs>
      <path id="DejaVuSans-55" d="M 556 4666 
L 1191 4666 
L 1191 1831 
Q 1191 1081 1462 751 
Q 1734 422 2344 422 
Q 2950 422 3222 751 
Q 3494 1081 3494 1831 
L 3494 4666 
L 4128 4666 
L 4128 1753 
Q 4128 841 3676 375 
Q 3225 -91 2344 -91 
Q 1459 -91 1007 375 
Q 556 841 556 1753 
L 556 4666 
z
" transform="scale(0.015625)"/>
      <path id="DejaVuSans-56" d="M 1831 0 
L 50 4666 
L 709 4666 
L 2188 738 
L 3669 4666 
L 4325 4666 
L 2547 0 
L 1831 0 
z
" transform="scale(0.015625)"/>
      <path id="DejaVuSans-26" d="M 1556 2509 
Q 1272 2256 1139 2004 
Q 1006 1753 1006 1478 
Q 1006 1022 1337 719 
Q 1669 416 2169 416 
Q 2466 416 2725 514 
Q 2984 613 3213 813 
L 1556 2509 
z
M 1997 2859 
L 3584 1234 
Q 3769 1513 3872 1830 
Q 3975 2147 3994 2503 
L 4575 2503 
Q 4538 2091 4375 1687 
Q 4213 1284 3922 891 
L 4794 0 
L 4006 0 
L 3559 459 
Q 3234 181 2878 45 
Q 2522 -91 2113 -91 
Q 1359 -91 881 339 
Q 403 769 403 1441 
Q 403 1841 612 2192 
Q 822 2544 1241 2853 
Q 1091 3050 1012 3245 
Q 934 3441 934 3628 
Q 934 4134 1281 4442 
Q 1628 4750 2203 4750 
Q 2463 4750 2720 4694 
Q 2978 4638 3244 4525 
L 3244 3956 
Q 2972 4103 2725 4179 
Q 2478 4256 2266 4256 
Q 1938 4256 1733 4082 
Q 1528 3909 1528 3634 
Q 1528 3475 1620 3314 
Q 1713 3153 1997 2859 
z
" transform="scale(0.015625)"/>
      <path id="DejaVuSans-4d" d="M 628 4666 
L 1569 4666 
L 2759 1491 
L 3956 4666 
L 4897 4666 
L 4897 0 
L 4281 0 
L 4281 4097 
L 3078 897 
L 2444 897 
L 1241 4097 
L 1241 0 
L 628 0 
L 628 4666 
z
" transform="scale(0.015625)"/>
      <path id="DejaVuSans-53" d="M 3425 4513 
L 3425 3897 
Q 3066 4069 2747 4153 
Q 2428 4238 2131 4238 
Q 1616 4238 1336 4038 
Q 1056 3838 1056 3469 
Q 1056 3159 1242 3001 
Q 1428 2844 1947 2747 
L 2328 2669 
Q 3034 2534 3370 2195 
Q 3706 1856 3706 1288 
Q 3706 609 3251 259 
Q 2797 -91 1919 -91 
Q 1588 -91 1214 -16 
Q 841 59 441 206 
L 441 856 
Q 825 641 1194 531 
Q 1563 422 1919 422 
Q 2459 422 2753 634 
Q 3047 847 3047 1241 
Q 3047 1584 2836 1778 
Q 2625 1972 2144 2069 
L 1759 2144 
Q 1053 2284 737 2584 
Q 422 2884 422 3419 
Q 422 4038 858 4394 
Q 1294 4750 2059 4750 
Q 2388 4750 2728 4690 
Q 3069 4631 3425 4513 
z
" transform="scale(0.015625)"/>
      <path id="DejaVuSans-43" d="M 4122 4306 
L 4122 3641 
Q 3803 3938 3442 4084 
Q 3081 4231 2675 4231 
Q 1875 4231 1450 3742 
Q 1025 3253 1025 2328 
Q 1025 1406 1450 917 
Q 1875 428 2675 428 
Q 3081 428 3442 575 
Q 3803 722 4122 1019 
L 4122 359 
Q 3791 134 3420 21 
Q 3050 -91 2638 -91 
Q 1578 -91 968 557 
Q 359 1206 359 2328 
Q 359 3453 968 4101 
Q 1578 4750 2638 4750 
Q 3056 4750 3426 4639 
Q 3797 4528 4122 4306 
z
" transform="scale(0.015625)"/>
      <path id="DejaVuSans-68" d="M 3513 2113 
L 3513 0 
L 2938 0 
L 2938 2094 
Q 2938 2591 2744 2837 
Q 2550 3084 2163 3084 
Q 1697 3084 1428 2787 
Q 1159 2491 1159 1978 
L 1159 0 
L 581 0 
L 581 4863 
L 1159 4863 
L 1159 2956 
Q 1366 3272 1645 3428 
Q 1925 3584 2291 3584 
Q 2894 3584 3203 3211 
Q 3513 2838 3513 2113 
z
" transform="scale(0.015625)"/>
      <path id="DejaVuSans-67" d="M 2906 1791 
Q 2906 2416 2648 2759 
Q 2391 3103 1925 3103 
Q 1463 3103 1205 2759 
Q 947 2416 947 1791 
Q 947 1169 1205 825 
Q 1463 481 1925 481 
Q 2391 481 2648 825 
Q 2906 1169 2906 1791 
z
M 3481 434 
Q 3481 -459 3084 -895 
Q 2688 -1331 1869 -1331 
Q 1566 -1331 1297 -1286 
Q 1028 -1241 775 -1147 
L 775 -588 
Q 1028 -725 1275 -790 
Q 1522 -856 1778 -856 
Q 2344 -856 2625 -561 
Q 2906 -266 2906 331 
L 2906 616 
Q 2728 306 2450 153 
Q 2172 0 1784 0 
Q 1141 0 747 490 
Q 353 981 353 1791 
Q 353 2603 747 3093 
Q 1141 3584 1784 3584 
Q 2172 3584 2450 3431 
Q 2728 3278 2906 2969 
L 2906 3500 
L 3481 3500 
L 3481 434 
z
" transform="scale(0.015625)"/>
      <path id="DejaVuSans-70" d="M 1159 525 
L 1159 -1331 
L 581 -1331 
L 581 3500 
L 1159 3500 
L 1159 2969 
Q 1341 3281 1617 3432 
Q 1894 3584 2278 3584 
Q 2916 3584 3314 3078 
Q 3713 2572 3713 1747 
Q 3713 922 3314 415 
Q 2916 -91 2278 -91 
Q 1894 -91 1617 61 
Q 1341 213 1159 525 
z
M 3116 1747 
Q 3116 2381 2855 2742 
Q 2594 3103 2138 3103 
Q 1681 3103 1420 2742 
Q 1159 2381 1159 1747 
Q 1159 1113 1420 752 
Q 1681 391 2138 391 
Q 2594 391 2855 752 
Q 3116 1113 3116 1747 
z
" transform="scale(0.015625)"/>
      <path id="DejaVuSans-4f" d="M 2522 4238 
Q 1834 4238 1429 3725 
Q 1025 3213 1025 2328 
Q 1025 1447 1429 934 
Q 1834 422 2522 422 
Q 3209 422 3611 934 
Q 4013 1447 4013 2328 
Q 4013 3213 3611 3725 
Q 3209 4238 2522 4238 
z
M 2522 4750 
Q 3503 4750 4090 4092 
Q 4678 3434 4678 2328 
Q 4678 1225 4090 567 
Q 3503 -91 2522 -91 
Q 1538 -91 948 565 
Q 359 1222 359 2328 
Q 359 3434 948 4092 
Q 1538 4750 2522 4750 
z
" transform="scale(0.015625)"/>
      <path id="DejaVuSans-2f" d="M 1625 4666 
L 2156 4666 
L 531 -594 
L 0 -594 
L 1625 4666 
z
" transform="scale(0.015625)"/>
      <path id="DejaVuSans-37" d="M 525 4666 
L 3525 4666 
L 3525 4397 
L 1831 0 
L 1172 0 
L 2766 4134 
L 525 4134 
L 525 4666 
z
" transform="scale(0.015625)"/>
      <path id="DejaVuSans-38" d="M 2034 2216 
Q 1584 2216 1326 1975 
Q 1069 1734 1069 1313 
Q 1069 891 1326 650 
Q 1584 409 2034 409 
Q 2484 409 2743 651 
Q 3003 894 3003 1313 
Q 3003 1734 2745 1975 
Q 2488 2216 2034 2216 
z
M 1403 2484 
Q 997 2584 770 2862 
Q 544 3141 544 3541 
Q 544 4100 942 4425 
Q 1341 4750 2034 4750 
Q 2731 4750 3128 4425 
Q 3525 4100 3525 3541 
Q 3525 3141 3298 2862 
Q 3072 2584 2669 2484 
Q 3125 2378 3379 2068 
Q 3634 1759 3634 1313 
Q 3634 634 3220 271 
Q 2806 -91 2034 -91 
Q 1263 -91 848 271 
Q 434 634 434 1313 
Q 434 1759 690 2068 
Q 947 2378 1403 2484 
z
M 1172 3481 
Q 1172 3119 1398 2916 
Q 1625 2713 2034 2713 
Q 2441 2713 2670 2916 
Q 2900 3119 2900 3481 
Q 2900 3844 2670 4047 
Q 2441 4250 2034 4250 
Q 1625 4250 1398 4047 
Q 1172 3844 1172 3481 
z
" transform="scale(0.015625)"/>
     </defs>
     <use xlink:href="#DejaVuSans-55"/>
     <use xlink:href="#DejaVuSans-56" transform="translate(73.193359 0)"/>
     <use xlink:href="#DejaVuSans-20" transform="translate(141.601562 0)"/>
     <use xlink:href="#DejaVuSans-26" transform="translate(173.388672 0)"/>
     <use xlink:href="#DejaVuSans-20" transform="translate(251.367188 0)"/>
     <use xlink:href="#DejaVuSans-4d" transform="translate(283.154297 0)"/>
     <use xlink:href="#DejaVuSans-53" transform="translate(369.433594 0)"/>
     <use xlink:href="#DejaVuSans-20" transform="translate(432.910156 0)"/>
     <use xlink:href="#DejaVuSans-43" transform="translate(464.697266 0)"/>
     <use xlink:href="#DejaVuSans-68" transform="translate(534.521484 0)"/>
     <use xlink:href="#DejaVuSans-72" transform="translate(597.900391 0)"/>
     <use xlink:href="#DejaVuSans-6f" transform="translate(636.763672 0)"/>
     <use xlink:href="#DejaVuSans-6d" transform="translate(697.945312 0)"/>
     <use xlink:href="#DejaVuSans-61" transform="translate(795.357422 0)"/>
     <use xlink:href="#DejaVuSans-74" transform="translate(856.636719 0)"/>
     <use xlink:href="#DejaVuSans-6f" transform="translate(895.845703 0)"/>
     <use xlink:href="#DejaVuSans-67" transform="translate(957.027344 0)"/>
     <use xlink:href="#DejaVuSans-72" transform="translate(1020.503906 0)"/>
     <use xlink:href="#DejaVuSans-61" transform="translate(1061.617188 0)"/>
     <use xlink:href="#DejaVuSans-6d" transform="translate(1122.896484 0)"/>
     <use xlink:href="#DejaVuSans-73" transform="translate(1220.308594 0)"/>
     <use xlink:href="#DejaVuSans-3a" transform="translate(1272.408203 0)"/>
     <use xlink:href="#DejaVuSans-20" transform="translate(1306.099609 0)"/>
     <use xlink:href="#DejaVuSans-49" transform="translate(1337.886719 0)"/>
     <use xlink:href="#DejaVuSans-72" transform="translate(1367.378906 0)"/>
     <use xlink:href="#DejaVuSans-43" transform="translate(1408.492188 0)"/>
     <use xlink:href="#DejaVuSans-70" transform="translate(1478.316406 0)"/>
     <use xlink:href="#DejaVuSans-32" transform="translate(1541.792969 0)"/>
     <use xlink:href="#DejaVuSans-4f" transform="translate(1605.416016 0)"/>
     <use xlink:href="#DejaVuSans-32" transform="translate(1684.126953 0)"/>
     <use xlink:href="#DejaVuSans-30" transform="translate(1747.75 0)"/>
     <use xlink:href="#DejaVuSans-2c" transform="translate(1811.373047 0)"/>
     <use xlink:href="#DejaVuSans-20" transform="translate(1843.160156 0)"/>
     <use xlink:href="#DejaVuSans-74" transform="translate(1874.947266 0)"/>
     <use xlink:href="#DejaVuSans-61" transform="translate(1914.15625 0)"/>
     <use xlink:href="#DejaVuSans-72" transform="translate(1975.435547 0)"/>
     <use xlink:href="#DejaVuSans-67" transform="translate(2014.798828 0)"/>
     <use xlink:href="#DejaVuSans-65" transform="translate(2078.275391 0)"/>
     <use xlink:href="#DejaVuSans-74" transform="translate(2139.798828 0)"/>
     <use xlink:href="#DejaVuSans-20" transform="translate(2179.007812 0)"/>
     <use xlink:href="#DejaVuSans-6d" transform="translate(2210.794922 0)"/>
     <use xlink:href="#DejaVuSans-2f" transform="translate(2308.207031 0)"/>
     <use xlink:href="#DejaVuSans-7a" transform="translate(2341.898438 0)"/>
     <use xlink:href="#DejaVuSans-3d" transform="translate(2394.388672 0)"/>
     <use xlink:href="#DejaVuSans-37" transform="translate(2478.177734 0)"/>
     <use xlink:href="#DejaVuSans-35" transform="translate(2541.800781 0)"/>
     <use xlink:href="#DejaVuSans-39" transform="translate(2605.423828 0)"/>
     <use xlink:href="#DejaVuSans-2e" transform="translate(2669.046875 0)"/>
     <use xlink:href="#DejaVuSans-32" transform="translate(2700.833984 0)"/>
     <use xlink:href="#DejaVuSans-32" transform="translate(2764.457031 0)"/>
     <use xlink:href="#DejaVuSans-37" transform="translate(2828.080078 0)"/>
     <use xlink:href="#DejaVuSans-31" transform="translate(2891.703125 0)"/>
     <use xlink:href="#DejaVuSans-34" transform="translate(2955.326172 0)"/>
     <use xlink:href="#DejaVuSans-38" transform="translate(3018.949219 0)"/>
     <use xlink:href="#DejaVuSans-32" transform="translate(3082.572266 0)"/>
    </g>
   </g>
   <g id="legend_1">
    <g id="patch_8">
     <path d="M 685.971875 64.23625 
L 846.2 64.23625 
Q 848.2 64.23625 848.2 62.23625 
L 848.2 33.88 
Q 848.2 31.88 846.2 31.88 
L 685.971875 31.88 
Q 683.971875 31.88 683.971875 33.88 
L 683.971875 62.23625 
Q 683.971875 64.23625 685.971875 64.23625 
z
" style="fill: #ffffff; opacity: 0.8; stroke: #cccccc; stroke-linejoin: miter"/>
    </g>
    <g id="line2d_15">
     <path d="M 687.971875 39.978437 
L 697.971875 39.978437 
L 707.971875 39.978437 
" style="fill: none; stroke: #0000ff; stroke-width: 1.5; stroke-linecap: square"/>
    </g>
    <g id="text_17">
     <!-- UV Intensity (normalized) -->
     <g transform="translate(715.971875 43.478437) scale(0.1 -0.1)">
      <use xlink:href="#DejaVuSans-55"/>
      <use xlink:href="#DejaVuSans-56" transform="translate(73.193359 0)"/>
      <use xlink:href="#DejaVuSans-20" transform="translate(141.601562 0)"/>
      <use xlink:href="#DejaVuSans-49" transform="translate(173.388672 0)"/>
      <use xlink:href="#DejaVuSans-6e" transform="translate(202.880859 0)"/>
      <use xlink:href="#DejaVuSans-74" transform="translate(266.259766 0)"/>
      <use xlink:href="#DejaVuSans-65" transform="translate(305.46875 0)"/>
      <use xlink:href="#DejaVuSans-6e" transform="translate(366.992188 0)"/>
      <use xlink:href="#DejaVuSans-73" transform="translate(430.371094 0)"/>
      <use xlink:href="#DejaVuSans-69" transform="translate(482.470703 0)"/>
      <use xlink:href="#DejaVuSans-74" transform="translate(510.253906 0)"/>
      <use xlink:href="#DejaVuSans-79" transform="translate(549.462891 0)"/>
      <use xlink:href="#DejaVuSans-20" transform="translate(608.642578 0)"/>
      <use xlink:href="#DejaVuSans-28" transform="translate(640.429688 0)"/>
      <use xlink:href="#DejaVuSans-6e" transform="translate(679.443359 0)"/>
      <use xlink:href="#DejaVuSans-6f" transform="translate(742.822266 0)"/>
      <use xlink:href="#DejaVuSans-72" transform="translate(804.003906 0)"/>
      <use xlink:href="#DejaVuSans-6d" transform="translate(843.367188 0)"/>
      <use xlink:href="#DejaVuSans-61" transform="translate(940.779297 0)"/>
      <use xlink:href="#DejaVuSans-6c" transform="translate(1002.058594 0)"/>
      <use xlink:href="#DejaVuSans-69" transform="translate(1029.841797 0)"/>
      <use xlink:href="#DejaVuSans-7a" transform="translate(1057.625 0)"/>
      <use xlink:href="#DejaVuSans-65" transform="translate(1110.115234 0)"/>
      <use xlink:href="#DejaVuSans-64" transform="translate(1171.638672 0)"/>
      <use xlink:href="#DejaVuSans-29" transform="translate(1235.115234 0)"/>
     </g>
    </g>
    <g id="line2d_16">
     <path d="M 687.971875 54.656562 
L 697.971875 54.656562 
L 707.971875 54.656562 
" style="fill: none; stroke: #008000; stroke-width: 1.5; stroke-linecap: square"/>
    </g>
    <g id="text_18">
     <!-- MS Intensity (normalized) -->
     <g transform="translate(715.971875 58.156562) scale(0.1 -0.1)">
      <use xlink:href="#DejaVuSans-4d"/>
      <use xlink:href="#DejaVuSans-53" transform="translate(86.279297 0)"/>
      <use xlink:href="#DejaVuSans-20" transform="translate(149.755859 0)"/>
      <use xlink:href="#DejaVuSans-49" transform="translate(181.542969 0)"/>
      <use xlink:href="#DejaVuSans-6e" transform="translate(211.035156 0)"/>
      <use xlink:href="#DejaVuSans-74" transform="translate(274.414062 0)"/>
      <use xlink:href="#DejaVuSans-65" transform="translate(313.623047 0)"/>
      <use xlink:href="#DejaVuSans-6e" transform="translate(375.146484 0)"/>
      <use xlink:href="#DejaVuSans-73" transform="translate(438.525391 0)"/>
      <use xlink:href="#DejaVuSans-69" transform="translate(490.625 0)"/>
      <use xlink:href="#DejaVuSans-74" transform="translate(518.408203 0)"/>
      <use xlink:href="#DejaVuSans-79" transform="translate(557.617188 0)"/>
      <use xlink:href="#DejaVuSans-20" transform="translate(616.796875 0)"/>
      <use xlink:href="#DejaVuSans-28" transform="translate(648.583984 0)"/>
      <use xlink:href="#DejaVuSans-6e" transform="translate(687.597656 0)"/>
      <use xlink:href="#DejaVuSans-6f" transform="translate(750.976562 0)"/>
      <use xlink:href="#DejaVuSans-72" transform="translate(812.158203 0)"/>
      <use xlink:href="#DejaVuSans-6d" transform="translate(851.521484 0)"/>
      <use xlink:href="#DejaVuSans-61" transform="translate(948.933594 0)"/>
      <use xlink:href="#DejaVuSans-6c" transform="translate(1010.212891 0)"/>
      <use xlink:href="#DejaVuSans-69" transform="translate(1037.996094 0)"/>
      <use xlink:href="#DejaVuSans-7a" transform="translate(1065.779297 0)"/>
      <use xlink:href="#DejaVuSans-65" transform="translate(1118.269531 0)"/>
      <use xlink:href="#DejaVuSans-64" transform="translate(1179.792969 0)"/>
      <use xlink:href="#DejaVuSans-29" transform="translate(1243.269531 0)"/>
     </g>
    </g>
   </g>
  </g>
 </g>
 <defs>
  <clipPath id="pe321443d70">
   <rect x="47.72" y="26.88" width="805.48" height="507.16"/>
  </clipPath>
 </defs>
</svg>
