<?xml version="1.0" encoding="utf-8" standalone="no"?>
<!DOCTYPE svg PUBLIC "-//W3C//DTD SVG 1.1//EN"
  "http://www.w3.org/Graphics/SVG/1.1/DTD/svg11.dtd">
<svg xmlns:xlink="http://www.w3.org/1999/xlink" width="864pt" height="576pt" viewBox="0 0 864 576" xmlns="http://www.w3.org/2000/svg" version="1.1">
 <metadata>
  <rdf:RDF xmlns:dc="http://purl.org/dc/elements/1.1/" xmlns:cc="http://creativecommons.org/ns#" xmlns:rdf="http://www.w3.org/1999/02/22-rdf-syntax-ns#">
   <cc:Work>
    <dc:type rdf:resource="http://purl.org/dc/dcmitype/StillImage"/>
    <dc:date>2025-02-07T17:27:01.412860</dc:date>
    <dc:format>image/svg+xml</dc:format>
    <dc:creator>
     <cc:Agent>
      <dc:title>Matplotlib v3.10.0, https://matplotlib.org/</dc:title>
     </cc:Agent>
    </dc:creator>
   </cc:Work>
  </rdf:RDF>
 </metadata>
 <defs>
  <style type="text/css">*{stroke-linejoin: round; stroke-linecap: butt}</style>
 </defs>
 <g id="figure_1">
  <g id="patch_1">
   <path d="M 0 576 
L 864 576 
L 864 0 
L 0 0 
z
" style="fill: #ffffff"/>
  </g>
  <g id="axes_1">
   <g id="patch_2">
    <path d="M 47.72 534.04 
L 853.2 534.04 
L 853.2 26.88 
L 47.72 26.88 
z
" style="fill: #ffffff"/>
   </g>
   <g id="matplotlib.axis_1">
    <g id="xtick_1">
     <g id="line2d_1">
      <defs>
       <path id="m272e231eb7" d="M 0 0 
L 0 3.5 
" style="stroke: #000000; stroke-width: 0.8"/>
      </defs>
      <g>
       <use xlink:href="#m272e231eb7" x="83.098041" y="534.04" style="stroke: #000000; stroke-width: 0.8"/>
      </g>
     </g>
     <g id="text_1">
      <!-- 0 -->
      <g transform="translate(79.916791 548.638438) scale(0.1 -0.1)">
       <defs>
        <path id="DejaVuSans-30" d="M 2034 4250 
Q 1547 4250 1301 3770 
Q 1056 3291 1056 2328 
Q 1056 1369 1301 889 
Q 1547 409 2034 409 
Q 2525 409 2770 889 
Q 3016 1369 3016 2328 
Q 3016 3291 2770 3770 
Q 2525 4250 2034 4250 
z
M 2034 4750 
Q 2819 4750 3233 4129 
Q 3647 3509 3647 2328 
Q 3647 1150 3233 529 
Q 2819 -91 2034 -91 
Q 1250 -91 836 529 
Q 422 1150 422 2328 
Q 422 3509 836 4129 
Q 1250 4750 2034 4750 
z
" transform="scale(0.015625)"/>
       </defs>
       <use xlink:href="#DejaVuSans-30"/>
      </g>
     </g>
    </g>
    <g id="xtick_2">
     <g id="line2d_2">
      <g>
       <use xlink:href="#m272e231eb7" x="229.793442" y="534.04" style="stroke: #000000; stroke-width: 0.8"/>
      </g>
     </g>
     <g id="text_2">
      <!-- 1 -->
      <g transform="translate(226.612192 548.638438) scale(0.1 -0.1)">
       <defs>
        <path id="DejaVuSans-31" d="M 794 531 
L 1825 531 
L 1825 4091 
L 703 3866 
L 703 4441 
L 1819 4666 
L 2450 4666 
L 2450 531 
L 3481 531 
L 3481 0 
L 794 0 
L 794 531 
z
" transform="scale(0.015625)"/>
       </defs>
       <use xlink:href="#DejaVuSans-31"/>
      </g>
     </g>
    </g>
    <g id="xtick_3">
     <g id="line2d_3">
      <g>
       <use xlink:href="#m272e231eb7" x="376.488844" y="534.04" style="stroke: #000000; stroke-width: 0.8"/>
      </g>
     </g>
     <g id="text_3">
      <!-- 2 -->
      <g transform="translate(373.307594 548.638438) scale(0.1 -0.1)">
       <defs>
        <path id="DejaVuSans-32" d="M 1228 531 
L 3431 531 
L 3431 0 
L 469 0 
L 469 531 
Q 828 903 1448 1529 
Q 2069 2156 2228 2338 
Q 2531 2678 2651 2914 
Q 2772 3150 2772 3378 
Q 2772 3750 2511 3984 
Q 2250 4219 1831 4219 
Q 1534 4219 1204 4116 
Q 875 4013 500 3803 
L 500 4441 
Q 881 4594 1212 4672 
Q 1544 4750 1819 4750 
Q 2544 4750 2975 4387 
Q 3406 4025 3406 3419 
Q 3406 3131 3298 2873 
Q 3191 2616 2906 2266 
Q 2828 2175 2409 1742 
Q 1991 1309 1228 531 
z
" transform="scale(0.015625)"/>
       </defs>
       <use xlink:href="#DejaVuSans-32"/>
      </g>
     </g>
    </g>
    <g id="xtick_4">
     <g id="line2d_4">
      <g>
       <use xlink:href="#m272e231eb7" x="523.184245" y="534.04" style="stroke: #000000; stroke-width: 0.8"/>
      </g>
     </g>
     <g id="text_4">
      <!-- 3 -->
      <g transform="translate(520.002995 548.638438) scale(0.1 -0.1)">
       <defs>
        <path id="DejaVuSans-33" d="M 2597 2516 
Q 3050 2419 3304 2112 
Q 3559 1806 3559 1356 
Q 3559 666 3084 287 
Q 2609 -91 1734 -91 
Q 1441 -91 1130 -33 
Q 819 25 488 141 
L 488 750 
Q 750 597 1062 519 
Q 1375 441 1716 441 
Q 2309 441 2620 675 
Q 2931 909 2931 1356 
Q 2931 1769 2642 2001 
Q 2353 2234 1838 2234 
L 1294 2234 
L 1294 2753 
L 1863 2753 
Q 2328 2753 2575 2939 
Q 2822 3125 2822 3475 
Q 2822 3834 2567 4026 
Q 2313 4219 1838 4219 
Q 1578 4219 1281 4162 
Q 984 4106 628 3988 
L 628 4550 
Q 988 4650 1302 4700 
Q 1616 4750 1894 4750 
Q 2613 4750 3031 4423 
Q 3450 4097 3450 3541 
Q 3450 3153 3228 2886 
Q 3006 2619 2597 2516 
z
" transform="scale(0.015625)"/>
       </defs>
       <use xlink:href="#DejaVuSans-33"/>
      </g>
     </g>
    </g>
    <g id="xtick_5">
     <g id="line2d_5">
      <g>
       <use xlink:href="#m272e231eb7" x="669.879647" y="534.04" style="stroke: #000000; stroke-width: 0.8"/>
      </g>
     </g>
     <g id="text_5">
      <!-- 4 -->
      <g transform="translate(666.698397 548.638438) scale(0.1 -0.1)">
       <defs>
        <path id="DejaVuSans-34" d="M 2419 4116 
L 825 1625 
L 2419 1625 
L 2419 4116 
z
M 2253 4666 
L 3047 4666 
L 3047 1625 
L 3713 1625 
L 3713 1100 
L 3047 1100 
L 3047 0 
L 2419 0 
L 2419 1100 
L 313 1100 
L 313 1709 
L 2253 4666 
z
" transform="scale(0.015625)"/>
       </defs>
       <use xlink:href="#DejaVuSans-34"/>
      </g>
     </g>
    </g>
    <g id="xtick_6">
     <g id="line2d_6">
      <g>
       <use xlink:href="#m272e231eb7" x="816.575048" y="534.04" style="stroke: #000000; stroke-width: 0.8"/>
      </g>
     </g>
     <g id="text_6">
      <!-- 5 -->
      <g transform="translate(813.393798 548.638438) scale(0.1 -0.1)">
       <defs>
        <path id="DejaVuSans-35" d="M 691 4666 
L 3169 4666 
L 3169 4134 
L 1269 4134 
L 1269 2991 
Q 1406 3038 1543 3061 
Q 1681 3084 1819 3084 
Q 2600 3084 3056 2656 
Q 3513 2228 3513 1497 
Q 3513 744 3044 326 
Q 2575 -91 1722 -91 
Q 1428 -91 1123 -41 
Q 819 9 494 109 
L 494 744 
Q 775 591 1075 516 
Q 1375 441 1709 441 
Q 2250 441 2565 725 
Q 2881 1009 2881 1497 
Q 2881 1984 2565 2268 
Q 2250 2553 1709 2553 
Q 1456 2553 1204 2497 
Q 953 2441 691 2322 
L 691 4666 
z
" transform="scale(0.015625)"/>
       </defs>
       <use xlink:href="#DejaVuSans-35"/>
      </g>
     </g>
    </g>
    <g id="text_7">
     <!-- Retention Time (min) -->
     <g transform="translate(397.61 562.316562) scale(0.1 -0.1)">
      <defs>
       <path id="DejaVuSans-52" d="M 2841 2188 
Q 3044 2119 3236 1894 
Q 3428 1669 3622 1275 
L 4263 0 
L 3584 0 
L 2988 1197 
Q 2756 1666 2539 1819 
Q 2322 1972 1947 1972 
L 1259 1972 
L 1259 0 
L 628 0 
L 628 4666 
L 2053 4666 
Q 2853 4666 3247 4331 
Q 3641 3997 3641 3322 
Q 3641 2881 3436 2590 
Q 3231 2300 2841 2188 
z
M 1259 4147 
L 1259 2491 
L 2053 2491 
Q 2509 2491 2742 2702 
Q 2975 2913 2975 3322 
Q 2975 3731 2742 3939 
Q 2509 4147 2053 4147 
L 1259 4147 
z
" transform="scale(0.015625)"/>
       <path id="DejaVuSans-65" d="M 3597 1894 
L 3597 1613 
L 953 1613 
Q 991 1019 1311 708 
Q 1631 397 2203 397 
Q 2534 397 2845 478 
Q 3156 559 3463 722 
L 3463 178 
Q 3153 47 2828 -22 
Q 2503 -91 2169 -91 
Q 1331 -91 842 396 
Q 353 884 353 1716 
Q 353 2575 817 3079 
Q 1281 3584 2069 3584 
Q 2775 3584 3186 3129 
Q 3597 2675 3597 1894 
z
M 3022 2063 
Q 3016 2534 2758 2815 
Q 2500 3097 2075 3097 
Q 1594 3097 1305 2825 
Q 1016 2553 972 2059 
L 3022 2063 
z
" transform="scale(0.015625)"/>
       <path id="DejaVuSans-74" d="M 1172 4494 
L 1172 3500 
L 2356 3500 
L 2356 3053 
L 1172 3053 
L 1172 1153 
Q 1172 725 1289 603 
Q 1406 481 1766 481 
L 2356 481 
L 2356 0 
L 1766 0 
Q 1100 0 847 248 
Q 594 497 594 1153 
L 594 3053 
L 172 3053 
L 172 3500 
L 594 3500 
L 594 4494 
L 1172 4494 
z
" transform="scale(0.015625)"/>
       <path id="DejaVuSans-6e" d="M 3513 2113 
L 3513 0 
L 2938 0 
L 2938 2094 
Q 2938 2591 2744 2837 
Q 2550 3084 2163 3084 
Q 1697 3084 1428 2787 
Q 1159 2491 1159 1978 
L 1159 0 
L 581 0 
L 581 3500 
L 1159 3500 
L 1159 2956 
Q 1366 3272 1645 3428 
Q 1925 3584 2291 3584 
Q 2894 3584 3203 3211 
Q 3513 2838 3513 2113 
z
" transform="scale(0.015625)"/>
       <path id="DejaVuSans-69" d="M 603 3500 
L 1178 3500 
L 1178 0 
L 603 0 
L 603 3500 
z
M 603 4863 
L 1178 4863 
L 1178 4134 
L 603 4134 
L 603 4863 
z
" transform="scale(0.015625)"/>
       <path id="DejaVuSans-6f" d="M 1959 3097 
Q 1497 3097 1228 2736 
Q 959 2375 959 1747 
Q 959 1119 1226 758 
Q 1494 397 1959 397 
Q 2419 397 2687 759 
Q 2956 1122 2956 1747 
Q 2956 2369 2687 2733 
Q 2419 3097 1959 3097 
z
M 1959 3584 
Q 2709 3584 3137 3096 
Q 3566 2609 3566 1747 
Q 3566 888 3137 398 
Q 2709 -91 1959 -91 
Q 1206 -91 779 398 
Q 353 888 353 1747 
Q 353 2609 779 3096 
Q 1206 3584 1959 3584 
z
" transform="scale(0.015625)"/>
       <path id="DejaVuSans-20" transform="scale(0.015625)"/>
       <path id="DejaVuSans-54" d="M -19 4666 
L 3928 4666 
L 3928 4134 
L 2272 4134 
L 2272 0 
L 1638 0 
L 1638 4134 
L -19 4134 
L -19 4666 
z
" transform="scale(0.015625)"/>
       <path id="DejaVuSans-6d" d="M 3328 2828 
Q 3544 3216 3844 3400 
Q 4144 3584 4550 3584 
Q 5097 3584 5394 3201 
Q 5691 2819 5691 2113 
L 5691 0 
L 5113 0 
L 5113 2094 
Q 5113 2597 4934 2840 
Q 4756 3084 4391 3084 
Q 3944 3084 3684 2787 
Q 3425 2491 3425 1978 
L 3425 0 
L 2847 0 
L 2847 2094 
Q 2847 2600 2669 2842 
Q 2491 3084 2119 3084 
Q 1678 3084 1418 2786 
Q 1159 2488 1159 1978 
L 1159 0 
L 581 0 
L 581 3500 
L 1159 3500 
L 1159 2956 
Q 1356 3278 1631 3431 
Q 1906 3584 2284 3584 
Q 2666 3584 2933 3390 
Q 3200 3197 3328 2828 
z
" transform="scale(0.015625)"/>
       <path id="DejaVuSans-28" d="M 1984 4856 
Q 1566 4138 1362 3434 
Q 1159 2731 1159 2009 
Q 1159 1288 1364 580 
Q 1569 -128 1984 -844 
L 1484 -844 
Q 1016 -109 783 600 
Q 550 1309 550 2009 
Q 550 2706 781 3412 
Q 1013 4119 1484 4856 
L 1984 4856 
z
" transform="scale(0.015625)"/>
       <path id="DejaVuSans-29" d="M 513 4856 
L 1013 4856 
Q 1481 4119 1714 3412 
Q 1947 2706 1947 2009 
Q 1947 1309 1714 600 
Q 1481 -109 1013 -844 
L 513 -844 
Q 928 -128 1133 580 
Q 1338 1288 1338 2009 
Q 1338 2731 1133 3434 
Q 928 4138 513 4856 
z
" transform="scale(0.015625)"/>
      </defs>
      <use xlink:href="#DejaVuSans-52"/>
      <use xlink:href="#DejaVuSans-65" transform="translate(64.982422 0)"/>
      <use xlink:href="#DejaVuSans-74" transform="translate(126.505859 0)"/>
      <use xlink:href="#DejaVuSans-65" transform="translate(165.714844 0)"/>
      <use xlink:href="#DejaVuSans-6e" transform="translate(227.238281 0)"/>
      <use xlink:href="#DejaVuSans-74" transform="translate(290.617188 0)"/>
      <use xlink:href="#DejaVuSans-69" transform="translate(329.826172 0)"/>
      <use xlink:href="#DejaVuSans-6f" transform="translate(357.609375 0)"/>
      <use xlink:href="#DejaVuSans-6e" transform="translate(418.791016 0)"/>
      <use xlink:href="#DejaVuSans-20" transform="translate(482.169922 0)"/>
      <use xlink:href="#DejaVuSans-54" transform="translate(513.957031 0)"/>
      <use xlink:href="#DejaVuSans-69" transform="translate(571.916016 0)"/>
      <use xlink:href="#DejaVuSans-6d" transform="translate(599.699219 0)"/>
      <use xlink:href="#DejaVuSans-65" transform="translate(697.111328 0)"/>
      <use xlink:href="#DejaVuSans-20" transform="translate(758.634766 0)"/>
      <use xlink:href="#DejaVuSans-28" transform="translate(790.421875 0)"/>
      <use xlink:href="#DejaVuSans-6d" transform="translate(829.435547 0)"/>
      <use xlink:href="#DejaVuSans-69" transform="translate(926.847656 0)"/>
      <use xlink:href="#DejaVuSans-6e" transform="translate(954.630859 0)"/>
      <use xlink:href="#DejaVuSans-29" transform="translate(1018.009766 0)"/>
     </g>
    </g>
   </g>
   <g id="matplotlib.axis_2">
    <g id="ytick_1">
     <g id="line2d_7">
      <defs>
       <path id="md3179217b1" d="M 0 0 
L -3.5 0 
" style="stroke: #000000; stroke-width: 0.8"/>
      </defs>
      <g>
       <use xlink:href="#md3179217b1" x="47.72" y="510.683277" style="stroke: #000000; stroke-width: 0.8"/>
      </g>
     </g>
     <g id="text_8">
      <!-- 0.0 -->
      <g style="fill: #0000ff" transform="translate(24.816875 514.482495) scale(0.1 -0.1)">
       <defs>
        <path id="DejaVuSans-2e" d="M 684 794 
L 1344 794 
L 1344 0 
L 684 0 
L 684 794 
z
" transform="scale(0.015625)"/>
       </defs>
       <use xlink:href="#DejaVuSans-30"/>
       <use xlink:href="#DejaVuSans-2e" transform="translate(63.623047 0)"/>
       <use xlink:href="#DejaVuSans-30" transform="translate(95.410156 0)"/>
      </g>
     </g>
    </g>
    <g id="ytick_2">
     <g id="line2d_8">
      <g>
       <use xlink:href="#md3179217b1" x="47.72" y="418.533167" style="stroke: #000000; stroke-width: 0.8"/>
      </g>
     </g>
     <g id="text_9">
      <!-- 0.5 -->
      <g style="fill: #0000ff" transform="translate(24.816875 422.332386) scale(0.1 -0.1)">
       <use xlink:href="#DejaVuSans-30"/>
       <use xlink:href="#DejaVuSans-2e" transform="translate(63.623047 0)"/>
       <use xlink:href="#DejaVuSans-35" transform="translate(95.410156 0)"/>
      </g>
     </g>
    </g>
    <g id="ytick_3">
     <g id="line2d_9">
      <g>
       <use xlink:href="#md3179217b1" x="47.72" y="326.383057" style="stroke: #000000; stroke-width: 0.8"/>
      </g>
     </g>
     <g id="text_10">
      <!-- 1.0 -->
      <g style="fill: #0000ff" transform="translate(24.816875 330.182276) scale(0.1 -0.1)">
       <use xlink:href="#DejaVuSans-31"/>
       <use xlink:href="#DejaVuSans-2e" transform="translate(63.623047 0)"/>
       <use xlink:href="#DejaVuSans-30" transform="translate(95.410156 0)"/>
      </g>
     </g>
    </g>
    <g id="ytick_4">
     <g id="line2d_10">
      <g>
       <use xlink:href="#md3179217b1" x="47.72" y="234.232947" style="stroke: #000000; stroke-width: 0.8"/>
      </g>
     </g>
     <g id="text_11">
      <!-- 1.5 -->
      <g style="fill: #0000ff" transform="translate(24.816875 238.032166) scale(0.1 -0.1)">
       <use xlink:href="#DejaVuSans-31"/>
       <use xlink:href="#DejaVuSans-2e" transform="translate(63.623047 0)"/>
       <use xlink:href="#DejaVuSans-35" transform="translate(95.410156 0)"/>
      </g>
     </g>
    </g>
    <g id="ytick_5">
     <g id="line2d_11">
      <g>
       <use xlink:href="#md3179217b1" x="47.72" y="142.082837" style="stroke: #000000; stroke-width: 0.8"/>
      </g>
     </g>
     <g id="text_12">
      <!-- 2.0 -->
      <g style="fill: #0000ff" transform="translate(24.816875 145.882056) scale(0.1 -0.1)">
       <use xlink:href="#DejaVuSans-32"/>
       <use xlink:href="#DejaVuSans-2e" transform="translate(63.623047 0)"/>
       <use xlink:href="#DejaVuSans-30" transform="translate(95.410156 0)"/>
      </g>
     </g>
    </g>
    <g id="ytick_6">
     <g id="line2d_12">
      <g>
       <use xlink:href="#md3179217b1" x="47.72" y="49.932727" style="stroke: #000000; stroke-width: 0.8"/>
      </g>
     </g>
     <g id="text_13">
      <!-- 2.5 -->
      <g style="fill: #0000ff" transform="translate(24.816875 53.731946) scale(0.1 -0.1)">
       <use xlink:href="#DejaVuSans-32"/>
       <use xlink:href="#DejaVuSans-2e" transform="translate(63.623047 0)"/>
       <use xlink:href="#DejaVuSans-35" transform="translate(95.410156 0)"/>
      </g>
     </g>
    </g>
    <g id="text_14">
     <!-- Normalized Intensity -->
     <g style="fill: #0000ff" transform="translate(18.737187 332.167031) rotate(-90) scale(0.1 -0.1)">
      <defs>
       <path id="DejaVuSans-4e" d="M 628 4666 
L 1478 4666 
L 3547 763 
L 3547 4666 
L 4159 4666 
L 4159 0 
L 3309 0 
L 1241 3903 
L 1241 0 
L 628 0 
L 628 4666 
z
" transform="scale(0.015625)"/>
       <path id="DejaVuSans-72" d="M 2631 2963 
Q 2534 3019 2420 3045 
Q 2306 3072 2169 3072 
Q 1681 3072 1420 2755 
Q 1159 2438 1159 1844 
L 1159 0 
L 581 0 
L 581 3500 
L 1159 3500 
L 1159 2956 
Q 1341 3275 1631 3429 
Q 1922 3584 2338 3584 
Q 2397 3584 2469 3576 
Q 2541 3569 2628 3553 
L 2631 2963 
z
" transform="scale(0.015625)"/>
       <path id="DejaVuSans-61" d="M 2194 1759 
Q 1497 1759 1228 1600 
Q 959 1441 959 1056 
Q 959 750 1161 570 
Q 1363 391 1709 391 
Q 2188 391 2477 730 
Q 2766 1069 2766 1631 
L 2766 1759 
L 2194 1759 
z
M 3341 1997 
L 3341 0 
L 2766 0 
L 2766 531 
Q 2569 213 2275 61 
Q 1981 -91 1556 -91 
Q 1019 -91 701 211 
Q 384 513 384 1019 
Q 384 1609 779 1909 
Q 1175 2209 1959 2209 
L 2766 2209 
L 2766 2266 
Q 2766 2663 2505 2880 
Q 2244 3097 1772 3097 
Q 1472 3097 1187 3025 
Q 903 2953 641 2809 
L 641 3341 
Q 956 3463 1253 3523 
Q 1550 3584 1831 3584 
Q 2591 3584 2966 3190 
Q 3341 2797 3341 1997 
z
" transform="scale(0.015625)"/>
       <path id="DejaVuSans-6c" d="M 603 4863 
L 1178 4863 
L 1178 0 
L 603 0 
L 603 4863 
z
" transform="scale(0.015625)"/>
       <path id="DejaVuSans-7a" d="M 353 3500 
L 3084 3500 
L 3084 2975 
L 922 459 
L 3084 459 
L 3084 0 
L 275 0 
L 275 525 
L 2438 3041 
L 353 3041 
L 353 3500 
z
" transform="scale(0.015625)"/>
       <path id="DejaVuSans-64" d="M 2906 2969 
L 2906 4863 
L 3481 4863 
L 3481 0 
L 2906 0 
L 2906 525 
Q 2725 213 2448 61 
Q 2172 -91 1784 -91 
Q 1150 -91 751 415 
Q 353 922 353 1747 
Q 353 2572 751 3078 
Q 1150 3584 1784 3584 
Q 2172 3584 2448 3432 
Q 2725 3281 2906 2969 
z
M 947 1747 
Q 947 1113 1208 752 
Q 1469 391 1925 391 
Q 2381 391 2643 752 
Q 2906 1113 2906 1747 
Q 2906 2381 2643 2742 
Q 2381 3103 1925 3103 
Q 1469 3103 1208 2742 
Q 947 2381 947 1747 
z
" transform="scale(0.015625)"/>
       <path id="DejaVuSans-49" d="M 628 4666 
L 1259 4666 
L 1259 0 
L 628 0 
L 628 4666 
z
" transform="scale(0.015625)"/>
       <path id="DejaVuSans-73" d="M 2834 3397 
L 2834 2853 
Q 2591 2978 2328 3040 
Q 2066 3103 1784 3103 
Q 1356 3103 1142 2972 
Q 928 2841 928 2578 
Q 928 2378 1081 2264 
Q 1234 2150 1697 2047 
L 1894 2003 
Q 2506 1872 2764 1633 
Q 3022 1394 3022 966 
Q 3022 478 2636 193 
Q 2250 -91 1575 -91 
Q 1294 -91 989 -36 
Q 684 19 347 128 
L 347 722 
Q 666 556 975 473 
Q 1284 391 1588 391 
Q 1994 391 2212 530 
Q 2431 669 2431 922 
Q 2431 1156 2273 1281 
Q 2116 1406 1581 1522 
L 1381 1569 
Q 847 1681 609 1914 
Q 372 2147 372 2553 
Q 372 3047 722 3315 
Q 1072 3584 1716 3584 
Q 2034 3584 2315 3537 
Q 2597 3491 2834 3397 
z
" transform="scale(0.015625)"/>
       <path id="DejaVuSans-79" d="M 2059 -325 
Q 1816 -950 1584 -1140 
Q 1353 -1331 966 -1331 
L 506 -1331 
L 506 -850 
L 844 -850 
Q 1081 -850 1212 -737 
Q 1344 -625 1503 -206 
L 1606 56 
L 191 3500 
L 800 3500 
L 1894 763 
L 2988 3500 
L 3597 3500 
L 2059 -325 
z
" transform="scale(0.015625)"/>
      </defs>
      <use xlink:href="#DejaVuSans-4e"/>
      <use xlink:href="#DejaVuSans-6f" transform="translate(74.804688 0)"/>
      <use xlink:href="#DejaVuSans-72" transform="translate(135.986328 0)"/>
      <use xlink:href="#DejaVuSans-6d" transform="translate(175.349609 0)"/>
      <use xlink:href="#DejaVuSans-61" transform="translate(272.761719 0)"/>
      <use xlink:href="#DejaVuSans-6c" transform="translate(334.041016 0)"/>
      <use xlink:href="#DejaVuSans-69" transform="translate(361.824219 0)"/>
      <use xlink:href="#DejaVuSans-7a" transform="translate(389.607422 0)"/>
      <use xlink:href="#DejaVuSans-65" transform="translate(442.097656 0)"/>
      <use xlink:href="#DejaVuSans-64" transform="translate(503.621094 0)"/>
      <use xlink:href="#DejaVuSans-20" transform="translate(567.097656 0)"/>
      <use xlink:href="#DejaVuSans-49" transform="translate(598.884766 0)"/>
      <use xlink:href="#DejaVuSans-6e" transform="translate(628.376953 0)"/>
      <use xlink:href="#DejaVuSans-74" transform="translate(691.755859 0)"/>
      <use xlink:href="#DejaVuSans-65" transform="translate(730.964844 0)"/>
      <use xlink:href="#DejaVuSans-6e" transform="translate(792.488281 0)"/>
      <use xlink:href="#DejaVuSans-73" transform="translate(855.867188 0)"/>
      <use xlink:href="#DejaVuSans-69" transform="translate(907.966797 0)"/>
      <use xlink:href="#DejaVuSans-74" transform="translate(935.75 0)"/>
      <use xlink:href="#DejaVuSans-79" transform="translate(974.958984 0)"/>
     </g>
    </g>
   </g>
   <g id="line2d_13">
    <path d="M 84.332727 510.683277 
L 91.667497 510.602417 
L 101.447191 510.408361 
L 113.671808 510.438936 
L 130.786271 510.537842 
L 161.347813 510.527098 
L 163.792736 510.408791 
L 166.23766 509.94576 
L 168.682583 509.373263 
L 172.349968 508.890832 
L 174.794891 508.712527 
L 177.239815 508.869647 
L 185.797047 510.306166 
L 188.24197 510.7645 
L 189.464432 510.819683 
L 195.57674 510.369154 
L 201.689048 510.64461 
L 223.693359 510.40136 
L 245.697669 510.394748 
L 259.144747 510.209265 
L 265.257056 509.901722 
L 270.146902 509.427592 
L 276.259211 508.538191 
L 283.593981 507.400762 
L 287.261366 507.015421 
L 290.928751 506.834547 
L 293.373674 506.81287 
L 294.596136 506.554806 
L 295.818598 504.744393 
L 297.041059 497.455415 
L 298.263521 478.04397 
L 299.485983 441.900432 
L 301.930906 349.693323 
L 303.153368 326.383057 
L 304.375829 331.266635 
L 305.598291 358.63547 
L 308.043214 430.793056 
L 309.265676 457.520414 
L 310.488138 474.957471 
L 311.710599 485.171408 
L 312.933061 490.917453 
L 314.155523 494.379867 
L 315.377985 496.884651 
L 317.822908 501.06952 
L 319.04537 502.87289 
L 320.267831 504.377325 
L 321.490293 505.546058 
L 322.712755 506.408071 
L 323.935216 507.02994 
L 326.38014 507.836218 
L 330.047525 508.598175 
L 333.71491 509.098014 
L 338.604756 509.47442 
L 344.717065 509.735561 
L 367.943837 510.380036 
L 387.503224 510.193717 
L 393.615532 510.131149 
L 394.837994 509.953728 
L 396.060455 509.490844 
L 397.282917 508.654649 
L 398.505379 507.625779 
L 399.72784 506.802346 
L 400.950302 506.502737 
L 402.172764 506.740268 
L 404.617687 507.699645 
L 405.840149 507.861062 
L 409.507534 507.516088 
L 410.729995 507.704684 
L 416.842304 509.499091 
L 419.287227 509.651345 
L 429.066921 509.651102 
L 442.513999 510.08945 
L 448.626307 509.87418 
L 452.293693 509.761591 
L 459.628463 509.646034 
L 463.295848 509.415895 
L 464.518309 509.025854 
L 465.740771 508.024711 
L 466.963233 506.317469 
L 468.185694 504.402428 
L 469.408156 503.102885 
L 470.630618 502.914906 
L 471.853079 503.70914 
L 474.298003 506.176644 
L 475.520464 507.043052 
L 476.742926 507.503352 
L 477.965388 507.628418 
L 479.187849 507.533907 
L 481.632773 507.055874 
L 485.300158 506.12811 
L 487.745081 505.284606 
L 488.967543 504.674087 
L 490.190005 503.845858 
L 491.412466 502.640415 
L 492.634928 500.591472 
L 493.85739 496.57465 
L 495.079851 488.931875 
L 496.302313 476.875065 
L 497.524775 462.419728 
L 498.747236 450.372899 
L 499.969698 445.461269 
L 501.19216 449.17062 
L 502.414621 459.224856 
L 504.859545 482.924513 
L 506.082006 491.523174 
L 507.304468 497.302066 
L 508.52693 500.957029 
L 509.749391 503.306263 
L 510.971853 504.947881 
L 512.194315 506.20109 
L 513.416776 507.17456 
L 514.639238 507.84311 
L 515.8617 508.133714 
L 517.084161 508.055604 
L 519.529085 507.573404 
L 523.19647 507.544767 
L 524.418932 506.919292 
L 525.641393 506.020173 
L 526.863855 505.367629 
L 528.086317 505.317424 
L 529.308778 505.828232 
L 532.976163 508.068502 
L 535.421087 508.950883 
L 537.86601 509.467655 
L 540.310933 509.591283 
L 542.755857 509.598981 
L 546.423242 509.948215 
L 550.090627 510.207281 
L 556.202935 510.325877 
L 561.092782 510.236012 
L 563.537705 509.816519 
L 565.982629 509.232703 
L 567.20509 509.13106 
L 568.427552 509.213589 
L 574.53986 510.185367 
L 578.207245 510.329341 
L 596.544171 510.424202 
L 612.436172 510.42092 
L 628.328174 510.335374 
L 630.773098 510.079368 
L 633.218021 509.71225 
L 634.440483 509.658718 
L 636.885406 509.883675 
L 640.552791 510.293374 
L 645.442638 510.414238 
L 656.444793 510.505307 
L 658.889716 510.425942 
L 662.557101 509.97552 
L 665.002025 509.807311 
L 667.446948 509.933777 
L 671.114333 510.197144 
L 682.116488 510.42719 
L 696.786028 510.531381 
L 816.587273 510.987273 
L 816.587273 510.987273 
" clip-path="url(#p90b445fa73)" style="fill: none; stroke: #0000ff; stroke-width: 1.5; stroke-linecap: square"/>
   </g>
   <g id="line2d_14">
    <path d="M 91.084628 230.440431 
L 91.810281 231.751587 
L 96.172024 233.477025 
L 134.670765 233.482321 
L 146.931078 233.544874 
L 152.009184 233.354227 
L 159.635144 233.443558 
L 174.858459 232.573698 
L 195.697764 231.821158 
L 227.7045 231.480499 
L 231.078494 230.969569 
L 265.844571 230.681195 
L 273.05465 231.350084 
L 282.183994 231.005535 
L 321.268538 230.61444 
L 321.948716 229.672571 
L 323.308338 228.14183 
L 325.355717 229.073894 
L 325.355717 228.281661 
L 326.048608 228.117063 
L 328.106745 228.29028 
L 329.147304 228.588971 
L 329.492283 228.393407 
L 330.181995 229.291153 
L 330.181995 229.653161 
L 330.527463 229.778092 
L 330.873175 230.528609 
L 331.570223 230.375782 
L 331.91618 230.151026 
L 332.261892 230.120861 
L 333.646452 230.845922 
L 340.245055 231.523662 
L 344.071116 231.775594 
L 346.155413 232.359095 
L 347.89791 232.48444 
L 350.335499 232.415854 
L 351.729105 231.833973 
L 354.519985 231.829323 
L 359.754321 231.541417 
L 360.45088 232.061543 
L 361.148661 232.1247 
L 369.175345 232.239313 
L 374.759061 232.532958 
L 375.803287 232.233594 
L 379.638883 232.363102 
L 380.335931 232.21863 
L 381.38627 231.821767 
L 382.431719 231.835666 
L 385.225044 231.181464 
L 388.365548 231.204839 
L 390.460358 231.703253 
L 392.899414 231.635261 
L 394.646556 231.35741 
L 399.169909 230.874459 
L 407.896818 230.509228 
L 415.779251 230.697244 
L 425.143308 231.178994 
L 428.267186 231.181149 
L 428.614365 231.800041 
L 431.401333 232.083338 
L 437.324894 232.017788 
L 437.67354 232.090826 
L 438.022919 231.959947 
L 438.720212 232.097683 
L 442.223787 232.224605 
L 449.932141 232.771227 
L 452.379265 232.635156 
L 457.624114 232.34151 
L 457.624114 232.542148 
L 457.973983 232.688631 
L 460.776599 232.777808 
L 463.229346 232.533499 
L 463.578481 232.669113 
L 464.283108 232.614713 
L 466.398944 232.684309 
L 466.748324 233.042469 
L 467.09697 231.978313 
L 467.794996 226.372137 
L 468.143642 221.28273 
L 468.491065 212.620375 
L 468.842645 206.769566 
L 469.187868 208.088272 
L 469.187868 201.534485 
L 469.187868 204.91735 
L 469.532114 210.853263 
L 469.532114 208.336753 
L 469.875625 198.397315 
L 469.875625 204.863066 
L 470.216692 192.408824 
L 470.555314 186.106099 
L 470.892469 193.281599 
L 470.892469 190.042656 
L 471.22889 181.982894 
L 471.566779 183.501985 
L 471.902467 184.486053 
L 472.2428 179.836791 
L 472.578244 185.50447 
L 472.916621 196.206712 
L 472.916621 210.066319 
L 473.252309 209.573141 
L 473.590442 211.365246 
L 473.934687 204.796497 
L 474.275509 202.651209 
L 474.614131 197.003711 
L 475.989401 212.876694 
L 476.678136 221.826772 
L 477.022625 225.02254 
L 477.367604 226.150849 
L 477.712583 223.990059 
L 478.057806 225.403555 
L 478.057806 224.165714 
L 478.40474 221.215981 
L 478.750208 223.452635 
L 479.447011 219.878431 
L 479.793701 222.922206 
L 479.793701 216.673675 
L 480.142348 219.156717 
L 480.142348 208.122755 
L 480.488549 193.690023 
L 480.834994 190.81279 
L 480.834994 172.745188 
L 481.181195 168.313856 
L 481.181195 153.098423 
L 481.527886 165.411467 
L 481.527886 135.450193 
L 481.875065 154.551953 
L 481.875065 107.507462 
L 482.22151 128.976278 
L 482.22151 86.134191 
L 482.567956 107.312104 
L 482.567956 57.656099 
L 482.915135 98.832846 
L 482.915135 58.370477 
L 483.261825 49.932727 
L 483.955694 60.521607 
L 483.955694 50.677023 
L 484.308252 102.068297 
L 484.308252 59.421792 
L 484.654943 105.949349 
L 484.654943 68.016195 
L 485.002122 117.707659 
L 485.002122 85.353124 
L 485.348812 131.095278 
L 485.348812 104.351617 
L 485.695746 145.451761 
L 485.695746 119.473148 
L 486.042192 128.664113 
L 486.389127 106.840236 
L 486.737039 140.215393 
L 486.737039 120.952275 
L 487.43042 178.695228 
L 487.43042 155.89543 
L 487.777354 175.274407 
L 487.777354 159.509483 
L 488.124044 161.514102 
L 488.470979 161.001262 
L 488.470979 174.368802 
L 488.817914 175.925768 
L 488.817914 180.966505 
L 489.165093 199.818384 
L 489.165093 189.177576 
L 489.517651 197.503209 
L 489.517651 188.603419 
L 490.212009 193.312437 
L 490.212009 195.635636 
L 490.563833 185.53636 
L 490.911012 193.938231 
L 491.258681 192.483857 
L 491.258681 193.890686 
L 491.606349 197.237134 
L 491.954506 191.23146 
L 492.302174 203.308184 
L 492.302174 195.292511 
L 492.99751 214.158675 
L 492.99751 208.123736 
L 493.345178 216.972189 
L 493.345178 210.733022 
L 493.693091 217.977749 
L 493.693091 214.146196 
L 494.040759 213.861563 
L 494.388427 212.402497 
L 494.388427 214.705803 
L 494.741963 208.566717 
L 495.089631 208.528645 
L 495.089631 214.524994 
L 495.437299 216.546021 
L 495.437299 215.722176 
L 495.785212 219.478229 
L 496.13288 224.570443 
L 496.13288 220.407554 
L 496.480548 216.807608 
L 496.827727 221.60946 
L 496.827727 219.737732 
L 497.174906 219.10952 
L 497.174906 221.645142 
L 497.52233 224.503469 
L 497.52233 222.48551 
L 497.86902 222.522286 
L 498.21571 219.338247 
L 498.21571 221.448907 
L 498.561667 221.289853 
L 498.907868 220.484843 
L 499.597581 224.83786 
L 499.944271 224.836651 
L 499.944271 224.538543 
L 500.287783 225.684182 
L 500.969672 227.020058 
L 501.645204 224.898123 
L 501.981625 224.868681 
L 502.652757 225.74981 
L 502.652757 226.308869 
L 502.988445 228.191988 
L 503.323644 228.190573 
L 503.658843 228.957714 
L 505.010641 228.21122 
L 505.347307 228.490355 
L 505.68275 228.42878 
L 506.018438 228.862031 
L 508.040634 228.914265 
L 509.055767 230.13869 
L 509.394633 229.885187 
L 510.079456 229.583987 
L 510.419056 228.888069 
L 511.4381 228.578687 
L 512.121945 228.098254 
L 513.149791 227.951246 
L 515.21624 229.210922 
L 515.21624 229.72813 
L 516.259 229.97645 
L 516.604223 230.641023 
L 517.297114 228.759857 
L 517.990739 228.468616 
L 518.337674 228.585114 
L 518.684119 228.418891 
L 524.495702 227.957977 
L 525.875372 230.347363 
L 534.290554 230.699097 
L 538.39338 230.451489 
L 540.819477 230.671734 
L 542.203549 231.437841 
L 545.315691 232.031467 
L 549.491376 232.14418 
L 551.237785 231.89515 
L 552.635059 232.247104 
L 553.333084 232.41429 
L 554.032088 232.834447 
L 554.730602 232.51344 
L 557.887243 232.271307 
L 558.941738 231.455139 
L 561.053174 231.850851 
L 565.263821 232.077274 
L 566.673075 232.849431 
L 568.07695 232.885385 
L 573.351383 232.821216 
L 574.405145 232.813133 
L 574.756725 232.386646 
L 575.108061 232.325549 
L 577.223653 232.4205 
L 577.575233 231.977648 
L 578.986198 232.396232 
L 581.099834 232.348906 
L 581.802505 232.844502 
L 583.910763 232.830435 
L 584.261609 232.904199 
L 587.070093 232.916074 
L 588.120676 233.069037 
L 588.825548 232.976822 
L 591.283918 233.001208 
L 593.389975 232.515007 
L 595.852013 232.537928 
L 595.852013 232.513505 
L 599.714992 232.506473 
L 600.426464 232.844479 
L 607.813067 233.047042 
L 608.163424 232.703547 
L 612.022247 232.735094 
L 613.773301 232.368053 
L 614.12317 232.415665 
L 614.473527 232.59181 
L 615.879602 231.748121 
L 616.234361 231.378113 
L 616.584963 231.664777 
L 617.285433 231.552759 
L 617.285433 231.718785 
L 617.635791 232.578506 
L 617.987126 232.842378 
L 618.337484 232.86683 
L 620.094895 232.283615 
L 620.444519 231.336079 
L 622.195573 231.432809 
L 624.637318 231.944705 
L 625.68619 232.711442 
L 628.483671 232.335012 
L 631.276507 231.420314 
L 631.276507 230.950667 
L 632.322201 227.983991 
L 633.019493 226.014049 
L 633.368384 222.506936 
L 633.716785 220.199204 
L 633.716785 221.804538 
L 634.064942 219.938692 
L 634.413099 215.667951 
L 634.413099 218.565525 
L 634.766391 220.053839 
L 634.766391 215.850809 
L 634.766391 217.346167 
L 635.114548 218.314767 
L 635.463928 214.251376 
L 635.81184 215.7512 
L 635.81184 217.10689 
L 635.81184 216.501195 
L 636.159508 216.185485 
L 636.507665 218.579623 
L 636.861201 214.502691 
L 637.209603 216.674352 
L 637.209603 214.905354 
L 637.558004 220.185193 
L 637.558004 220.075215 
L 637.558004 224.209871 
L 637.906406 222.357588 
L 638.254808 222.563283 
L 638.254808 222.467125 
L 638.9521 227.643845 
L 638.9521 230.362945 
L 639.301235 230.589977 
L 639.301235 229.152108 
L 640.002683 226.200285 
L 640.351329 225.851768 
L 641.048866 225.618433 
L 641.397512 227.289341 
L 641.745914 228.095378 
L 642.094315 229.442323 
L 642.442717 230.275636 
L 642.791363 230.680626 
L 643.140009 230.837661 
L 643.140009 231.535841 
L 643.837546 230.801768 
L 644.540706 229.973846 
L 645.588355 229.995066 
L 645.936757 229.586894 
L 647.337942 230.251964 
L 648.036212 231.887995 
L 648.734483 231.134909 
L 650.487004 230.89039 
L 652.933638 230.891212 
L 653.283018 230.853353 
L 653.632886 231.312904 
L 654.337269 231.660454 
L 656.433791 231.978388 
L 658.186067 231.903476 
L 659.240074 232.319694 
L 659.9403 232.164888 
L 661.338551 232.103747 
L 661.338551 231.984332 
L 663.786409 231.785522 
L 664.141412 232.252056 
L 666.942316 232.419498 
L 667.990943 232.811664 
L 669.045439 231.821916 
L 671.492074 231.788338 
L 672.541435 232.739961 
L 675.34185 232.631317 
L 675.690985 232.317953 
L 676.040609 232.379411 
L 678.489444 232.064319 
L 678.844692 232.226721 
L 679.543206 231.964752 
L 679.892586 232.287199 
L 680.242454 231.84889 
L 680.591834 231.93431 
L 681.991553 232.108588 
L 681.991553 232.306269 
L 682.340932 232.333423 
L 683.040669 232.830351 
L 685.143303 232.060899 
L 686.545956 232.057812 
L 687.943229 231.470287 
L 688.292609 232.068773 
L 690.045619 232.104228 
L 690.045619 232.242086 
L 690.395488 232.926983 
L 693.89784 232.523249 
L 695.999985 232.716161 
L 696.349365 231.924926 
L 697.049591 231.978228 
L 698.097974 232.000668 
L 698.801868 231.890351 
L 699.150758 232.320095 
L 699.849517 232.428387 
L 703.00518 231.680705 
L 703.359694 231.292894 
L 703.708829 231.535852 
L 704.057719 231.369068 
L 704.760879 231.626231 
L 706.50631 231.261906 
L 706.855445 231.705766 
L 709.653415 231.644981 
L 710.002795 231.974672 
L 710.002795 231.252358 
L 710.351685 231.417658 
L 711.049467 231.614485 
L 711.398602 231.952954 
L 711.747492 232.033338 
L 712.096383 232.425575 
L 712.096383 232.181763 
L 712.794653 232.037903 
L 713.149167 232.319937 
L 713.498302 231.917479 
L 713.851838 232.02991 
L 715.94567 232.038062 
L 716.294316 232.778375 
L 716.294316 232.725297 
L 717.690367 232.43605 
L 719.091064 232.851121 
L 719.439955 232.366487 
L 720.137736 232.242146 
L 720.137736 232.296304 
L 720.486871 232.336138 
L 721.185141 231.928152 
L 721.533787 231.934293 
L 721.533787 231.808805 
L 722.231079 231.813727 
L 722.231079 231.677401 
L 722.933506 232.103044 
L 724.331757 231.997089 
L 724.683826 231.601129 
L 725.032472 231.506136 
L 725.729764 231.85917 
L 726.078166 231.388381 
L 726.774725 230.919307 
L 726.774725 231.374682 
L 727.471039 231.3342 
L 727.824575 231.757168 
L 727.824575 232.144143 
L 728.521622 232.151677 
L 729.217692 231.901138 
L 729.56536 231.905306 
L 733.741534 232.161697 
L 734.44176 231.433011 
L 734.788694 231.338876 
L 735.135629 231.546675 
L 736.871036 231.544561 
L 737.56466 232.272728 
L 737.56466 232.060641 
L 738.609865 231.836495 
L 738.9568 231.566372 
L 739.303734 231.508977 
L 741.036696 230.796116 
L 741.383142 231.221323 
L 741.729587 231.271276 
L 742.42199 230.430675 
L 742.770147 230.23751 
L 743.472329 230.955321 
L 745.203579 230.914803 
L 745.549536 231.717011 
L 745.895737 231.869599 
L 746.241938 231.828709 
L 746.588384 231.605426 
L 746.588384 231.073954 
L 747.280541 230.76263 
L 747.97221 230.127834 
L 749.361416 229.768496 
L 749.707372 228.916985 
L 750.399286 230.010523 
L 751.091199 230.331852 
L 751.436911 229.848389 
L 751.782623 230.536048 
L 752.128335 230.67891 
L 752.473803 230.226808 
L 752.819271 230.306474 
L 753.164983 230.826858 
L 753.861786 231.24663 
L 753.861786 231.151818 
L 754.207743 231.739219 
L 755.941682 231.906751 
L 756.287883 231.621358 
L 756.633596 231.762789 
L 758.016689 231.236438 
L 758.362401 231.270824 
L 759.751362 231.53035 
L 760.097563 230.713262 
L 760.44352 230.527152 
L 762.520238 231.046904 
L 762.520238 231.006986 
L 762.866194 230.972491 
L 763.905287 232.26073 
L 764.602823 232.299405 
L 764.948535 232.16428 
L 765.298893 231.892796 
L 765.990806 231.913969 
L 766.337496 231.108791 
L 767.721323 230.655634 
L 768.06728 230.814578 
L 768.413725 231.113519 
L 770.149621 231.731369 
L 770.495578 232.219869 
L 770.841779 231.291903 
L 770.841779 231.415897 
L 771.879404 231.132157 
L 772.224872 231.764579 
L 772.224872 231.759681 
L 772.570829 230.627188 
L 772.91703 230.852995 
L 774.650969 230.836404 
L 775.347528 232.066513 
L 775.692996 231.923204 
L 776.384176 230.032698 
L 776.729888 230.097135 
L 777.075355 227.638385 
L 777.766046 227.773427 
L 777.766046 228.764811 
L 777.766046 228.239832 
L 778.111514 229.580736 
L 780.204857 228.760993 
L 780.55008 228.298573 
L 780.895548 228.919198 
L 781.586728 229.236249 
L 781.932196 229.751224 
L 781.932196 229.618042 
L 782.277419 230.629466 
L 782.622886 230.339421 
L 783.314555 230.043813 
L 784.010625 230.342045 
L 784.70156 229.894644 
L 785.051918 230.875894 
L 785.397141 229.55526 
L 786.432566 229.385945 
L 786.777789 229.01497 
L 787.123501 229.402379 
L 787.813948 229.327309 
L 787.813948 230.463007 
L 788.504394 230.408794 
L 788.849617 231.430606 
L 789.884309 231.40759 
L 790.57989 231.139436 
L 791.269602 231.55642 
L 791.614826 231.438972 
L 792.304783 231.434965 
L 793.339963 231.679867 
L 793.339963 230.715039 
L 794.029921 230.392264 
L 794.374411 228.525565 
L 796.10835 228.369025 
L 796.452595 228.614189 
L 796.796841 228.228138 
L 797.485576 230.02207 
L 797.835933 228.869831 
L 798.179934 228.700576 
L 799.554714 228.804561 
L 799.554714 228.997524 
L 801.604782 229.012235 
L 802.616003 228.673076 
L 803.292024 229.28895 
L 804.296888 229.076473 
L 804.969241 229.921672 
L 805.304196 228.811496 
L 808.665721 228.756207 
L 810.687673 228.963365 
L 811.36296 229.292326 
L 812.719404 228.301523 
L 812.719404 226.698367 
L 812.719404 226.698367 
" clip-path="url(#p90b445fa73)" style="fill: none; stroke: #008000; stroke-width: 1.5; stroke-linecap: square"/>
   </g>
   <g id="patch_3">
    <path d="M 47.72 534.04 
L 47.72 26.88 
" style="fill: none; stroke: #000000; stroke-width: 0.8; stroke-linejoin: miter; stroke-linecap: square"/>
   </g>
   <g id="patch_4">
    <path d="M 853.2 534.04 
L 853.2 26.88 
" style="fill: none; stroke: #000000; stroke-width: 0.8; stroke-linejoin: miter; stroke-linecap: square"/>
   </g>
   <g id="patch_5">
    <path d="M 47.72 534.04 
L 853.2 534.04 
" style="fill: none; stroke: #000000; stroke-width: 0.8; stroke-linejoin: miter; stroke-linecap: square"/>
   </g>
   <g id="patch_6">
    <path d="M 47.72 26.88 
L 853.2 26.88 
" style="fill: none; stroke: #000000; stroke-width: 0.8; stroke-linejoin: miter; stroke-linecap: square"/>
   </g>
   <g id="patch_7">
    <path d="M 550.965992 493.630033 
Q 524.814698 499.45956 498.663404 505.289087 
L 499.533705 509.193261 
Q 493.026387 507.57021 486.519069 505.947158 
Q 491.720936 501.713948 496.922803 497.480739 
L 497.793103 501.384913 
Q 523.944397 495.555386 550.095691 489.725859 
L 550.965992 493.630033 
z
" style="stroke: #000000; stroke-linecap: round"/>
   </g>
   <g id="text_15">
    <!-- Peak: RT=2.73, Area=1.05e+04 -->
    <g style="fill: #ff0000" transform="translate(556.202935 477.136049) scale(0.1 -0.1)">
     <defs>
      <path id="DejaVuSans-50" d="M 1259 4147 
L 1259 2394 
L 2053 2394 
Q 2494 2394 2734 2622 
Q 2975 2850 2975 3272 
Q 2975 3691 2734 3919 
Q 2494 4147 2053 4147 
L 1259 4147 
z
M 628 4666 
L 2053 4666 
Q 2838 4666 3239 4311 
Q 3641 3956 3641 3272 
Q 3641 2581 3239 2228 
Q 2838 1875 2053 1875 
L 1259 1875 
L 1259 0 
L 628 0 
L 628 4666 
z
" transform="scale(0.015625)"/>
      <path id="DejaVuSans-6b" d="M 581 4863 
L 1159 4863 
L 1159 1991 
L 2875 3500 
L 3609 3500 
L 1753 1863 
L 3688 0 
L 2938 0 
L 1159 1709 
L 1159 0 
L 581 0 
L 581 4863 
z
" transform="scale(0.015625)"/>
      <path id="DejaVuSans-3a" d="M 750 794 
L 1409 794 
L 1409 0 
L 750 0 
L 750 794 
z
M 750 3309 
L 1409 3309 
L 1409 2516 
L 750 2516 
L 750 3309 
z
" transform="scale(0.015625)"/>
      <path id="DejaVuSans-3d" d="M 678 2906 
L 4684 2906 
L 4684 2381 
L 678 2381 
L 678 2906 
z
M 678 1631 
L 4684 1631 
L 4684 1100 
L 678 1100 
L 678 1631 
z
" transform="scale(0.015625)"/>
      <path id="DejaVuSans-37" d="M 525 4666 
L 3525 4666 
L 3525 4397 
L 1831 0 
L 1172 0 
L 2766 4134 
L 525 4134 
L 525 4666 
z
" transform="scale(0.015625)"/>
      <path id="DejaVuSans-2c" d="M 750 794 
L 1409 794 
L 1409 256 
L 897 -744 
L 494 -744 
L 750 256 
L 750 794 
z
" transform="scale(0.015625)"/>
      <path id="DejaVuSans-41" d="M 2188 4044 
L 1331 1722 
L 3047 1722 
L 2188 4044 
z
M 1831 4666 
L 2547 4666 
L 4325 0 
L 3669 0 
L 3244 1197 
L 1141 1197 
L 716 0 
L 50 0 
L 1831 4666 
z
" transform="scale(0.015625)"/>
      <path id="DejaVuSans-2b" d="M 2944 4013 
L 2944 2272 
L 4684 2272 
L 4684 1741 
L 2944 1741 
L 2944 0 
L 2419 0 
L 2419 1741 
L 678 1741 
L 678 2272 
L 2419 2272 
L 2419 4013 
L 2944 4013 
z
" transform="scale(0.015625)"/>
     </defs>
     <use xlink:href="#DejaVuSans-50"/>
     <use xlink:href="#DejaVuSans-65" transform="translate(56.677734 0)"/>
     <use xlink:href="#DejaVuSans-61" transform="translate(118.201172 0)"/>
     <use xlink:href="#DejaVuSans-6b" transform="translate(179.480469 0)"/>
     <use xlink:href="#DejaVuSans-3a" transform="translate(237.390625 0)"/>
     <use xlink:href="#DejaVuSans-20" transform="translate(271.082031 0)"/>
     <use xlink:href="#DejaVuSans-52" transform="translate(302.869141 0)"/>
     <use xlink:href="#DejaVuSans-54" transform="translate(365.101562 0)"/>
     <use xlink:href="#DejaVuSans-3d" transform="translate(426.185547 0)"/>
     <use xlink:href="#DejaVuSans-32" transform="translate(509.974609 0)"/>
     <use xlink:href="#DejaVuSans-2e" transform="translate(573.597656 0)"/>
     <use xlink:href="#DejaVuSans-37" transform="translate(605.384766 0)"/>
     <use xlink:href="#DejaVuSans-33" transform="translate(669.007812 0)"/>
     <use xlink:href="#DejaVuSans-2c" transform="translate(732.630859 0)"/>
     <use xlink:href="#DejaVuSans-20" transform="translate(764.417969 0)"/>
     <use xlink:href="#DejaVuSans-41" transform="translate(796.205078 0)"/>
     <use xlink:href="#DejaVuSans-72" transform="translate(864.613281 0)"/>
     <use xlink:href="#DejaVuSans-65" transform="translate(903.476562 0)"/>
     <use xlink:href="#DejaVuSans-61" transform="translate(965 0)"/>
     <use xlink:href="#DejaVuSans-3d" transform="translate(1026.279297 0)"/>
     <use xlink:href="#DejaVuSans-31" transform="translate(1110.068359 0)"/>
     <use xlink:href="#DejaVuSans-2e" transform="translate(1173.691406 0)"/>
     <use xlink:href="#DejaVuSans-30" transform="translate(1205.478516 0)"/>
     <use xlink:href="#DejaVuSans-35" transform="translate(1269.101562 0)"/>
     <use xlink:href="#DejaVuSans-65" transform="translate(1332.724609 0)"/>
     <use xlink:href="#DejaVuSans-2b" transform="translate(1394.248047 0)"/>
     <use xlink:href="#DejaVuSans-30" transform="translate(1478.037109 0)"/>
     <use xlink:href="#DejaVuSans-34" transform="translate(1541.660156 0)"/>
    </g>
    <!-- (27.09% of total) -->
    <g style="fill: #ff0000" transform="translate(556.202935 488.333861) scale(0.1 -0.1)">
     <defs>
      <path id="DejaVuSans-39" d="M 703 97 
L 703 672 
Q 941 559 1184 500 
Q 1428 441 1663 441 
Q 2288 441 2617 861 
Q 2947 1281 2994 2138 
Q 2813 1869 2534 1725 
Q 2256 1581 1919 1581 
Q 1219 1581 811 2004 
Q 403 2428 403 3163 
Q 403 3881 828 4315 
Q 1253 4750 1959 4750 
Q 2769 4750 3195 4129 
Q 3622 3509 3622 2328 
Q 3622 1225 3098 567 
Q 2575 -91 1691 -91 
Q 1453 -91 1209 -44 
Q 966 3 703 97 
z
M 1959 2075 
Q 2384 2075 2632 2365 
Q 2881 2656 2881 3163 
Q 2881 3666 2632 3958 
Q 2384 4250 1959 4250 
Q 1534 4250 1286 3958 
Q 1038 3666 1038 3163 
Q 1038 2656 1286 2365 
Q 1534 2075 1959 2075 
z
" transform="scale(0.015625)"/>
      <path id="DejaVuSans-25" d="M 4653 2053 
Q 4381 2053 4226 1822 
Q 4072 1591 4072 1178 
Q 4072 772 4226 539 
Q 4381 306 4653 306 
Q 4919 306 5073 539 
Q 5228 772 5228 1178 
Q 5228 1588 5073 1820 
Q 4919 2053 4653 2053 
z
M 4653 2450 
Q 5147 2450 5437 2106 
Q 5728 1763 5728 1178 
Q 5728 594 5436 251 
Q 5144 -91 4653 -91 
Q 4153 -91 3862 251 
Q 3572 594 3572 1178 
Q 3572 1766 3864 2108 
Q 4156 2450 4653 2450 
z
M 1428 4353 
Q 1159 4353 1004 4120 
Q 850 3888 850 3481 
Q 850 3069 1003 2837 
Q 1156 2606 1428 2606 
Q 1700 2606 1854 2837 
Q 2009 3069 2009 3481 
Q 2009 3884 1853 4118 
Q 1697 4353 1428 4353 
z
M 4250 4750 
L 4750 4750 
L 1831 -91 
L 1331 -91 
L 4250 4750 
z
M 1428 4750 
Q 1922 4750 2215 4408 
Q 2509 4066 2509 3481 
Q 2509 2891 2217 2550 
Q 1925 2209 1428 2209 
Q 931 2209 642 2551 
Q 353 2894 353 3481 
Q 353 4063 643 4406 
Q 934 4750 1428 4750 
z
" transform="scale(0.015625)"/>
      <path id="DejaVuSans-66" d="M 2375 4863 
L 2375 4384 
L 1825 4384 
Q 1516 4384 1395 4259 
Q 1275 4134 1275 3809 
L 1275 3500 
L 2222 3500 
L 2222 3053 
L 1275 3053 
L 1275 0 
L 697 0 
L 697 3053 
L 147 3053 
L 147 3500 
L 697 3500 
L 697 3744 
Q 697 4328 969 4595 
Q 1241 4863 1831 4863 
L 2375 4863 
z
" transform="scale(0.015625)"/>
     </defs>
     <use xlink:href="#DejaVuSans-28"/>
     <use xlink:href="#DejaVuSans-32" transform="translate(39.013672 0)"/>
     <use xlink:href="#DejaVuSans-37" transform="translate(102.636719 0)"/>
     <use xlink:href="#DejaVuSans-2e" transform="translate(166.259766 0)"/>
     <use xlink:href="#DejaVuSans-30" transform="translate(198.046875 0)"/>
     <use xlink:href="#DejaVuSans-39" transform="translate(261.669922 0)"/>
     <use xlink:href="#DejaVuSans-25" transform="translate(325.292969 0)"/>
     <use xlink:href="#DejaVuSans-20" transform="translate(420.3125 0)"/>
     <use xlink:href="#DejaVuSans-6f" transform="translate(452.099609 0)"/>
     <use xlink:href="#DejaVuSans-66" transform="translate(513.28125 0)"/>
     <use xlink:href="#DejaVuSans-20" transform="translate(548.486328 0)"/>
     <use xlink:href="#DejaVuSans-74" transform="translate(580.273438 0)"/>
     <use xlink:href="#DejaVuSans-6f" transform="translate(619.482422 0)"/>
     <use xlink:href="#DejaVuSans-74" transform="translate(680.664062 0)"/>
     <use xlink:href="#DejaVuSans-61" transform="translate(719.873047 0)"/>
     <use xlink:href="#DejaVuSans-6c" transform="translate(781.152344 0)"/>
     <use xlink:href="#DejaVuSans-29" transform="translate(808.935547 0)"/>
    </g>
   </g>
   <g id="text_16">
    <!-- UV and MS Chromatograms of IrCp3M3, target m/z = 829.0255917 -->
    <g transform="translate(248.960313 20.88) scale(0.12 -0.12)">
     <defs>
      <path id="DejaVuSans-55" d="M 556 4666 
L 1191 4666 
L 1191 1831 
Q 1191 1081 1462 751 
Q 1734 422 2344 422 
Q 2950 422 3222 751 
Q 3494 1081 3494 1831 
L 3494 4666 
L 4128 4666 
L 4128 1753 
Q 4128 841 3676 375 
Q 3225 -91 2344 -91 
Q 1459 -91 1007 375 
Q 556 841 556 1753 
L 556 4666 
z
" transform="scale(0.015625)"/>
      <path id="DejaVuSans-56" d="M 1831 0 
L 50 4666 
L 709 4666 
L 2188 738 
L 3669 4666 
L 4325 4666 
L 2547 0 
L 1831 0 
z
" transform="scale(0.015625)"/>
      <path id="DejaVuSans-4d" d="M 628 4666 
L 1569 4666 
L 2759 1491 
L 3956 4666 
L 4897 4666 
L 4897 0 
L 4281 0 
L 4281 4097 
L 3078 897 
L 2444 897 
L 1241 4097 
L 1241 0 
L 628 0 
L 628 4666 
z
" transform="scale(0.015625)"/>
      <path id="DejaVuSans-53" d="M 3425 4513 
L 3425 3897 
Q 3066 4069 2747 4153 
Q 2428 4238 2131 4238 
Q 1616 4238 1336 4038 
Q 1056 3838 1056 3469 
Q 1056 3159 1242 3001 
Q 1428 2844 1947 2747 
L 2328 2669 
Q 3034 2534 3370 2195 
Q 3706 1856 3706 1288 
Q 3706 609 3251 259 
Q 2797 -91 1919 -91 
Q 1588 -91 1214 -16 
Q 841 59 441 206 
L 441 856 
Q 825 641 1194 531 
Q 1563 422 1919 422 
Q 2459 422 2753 634 
Q 3047 847 3047 1241 
Q 3047 1584 2836 1778 
Q 2625 1972 2144 2069 
L 1759 2144 
Q 1053 2284 737 2584 
Q 422 2884 422 3419 
Q 422 4038 858 4394 
Q 1294 4750 2059 4750 
Q 2388 4750 2728 4690 
Q 3069 4631 3425 4513 
z
" transform="scale(0.015625)"/>
      <path id="DejaVuSans-43" d="M 4122 4306 
L 4122 3641 
Q 3803 3938 3442 4084 
Q 3081 4231 2675 4231 
Q 1875 4231 1450 3742 
Q 1025 3253 1025 2328 
Q 1025 1406 1450 917 
Q 1875 428 2675 428 
Q 3081 428 3442 575 
Q 3803 722 4122 1019 
L 4122 359 
Q 3791 134 3420 21 
Q 3050 -91 2638 -91 
Q 1578 -91 968 557 
Q 359 1206 359 2328 
Q 359 3453 968 4101 
Q 1578 4750 2638 4750 
Q 3056 4750 3426 4639 
Q 3797 4528 4122 4306 
z
" transform="scale(0.015625)"/>
      <path id="DejaVuSans-68" d="M 3513 2113 
L 3513 0 
L 2938 0 
L 2938 2094 
Q 2938 2591 2744 2837 
Q 2550 3084 2163 3084 
Q 1697 3084 1428 2787 
Q 1159 2491 1159 1978 
L 1159 0 
L 581 0 
L 581 4863 
L 1159 4863 
L 1159 2956 
Q 1366 3272 1645 3428 
Q 1925 3584 2291 3584 
Q 2894 3584 3203 3211 
Q 3513 2838 3513 2113 
z
" transform="scale(0.015625)"/>
      <path id="DejaVuSans-67" d="M 2906 1791 
Q 2906 2416 2648 2759 
Q 2391 3103 1925 3103 
Q 1463 3103 1205 2759 
Q 947 2416 947 1791 
Q 947 1169 1205 825 
Q 1463 481 1925 481 
Q 2391 481 2648 825 
Q 2906 1169 2906 1791 
z
M 3481 434 
Q 3481 -459 3084 -895 
Q 2688 -1331 1869 -1331 
Q 1566 -1331 1297 -1286 
Q 1028 -1241 775 -1147 
L 775 -588 
Q 1028 -725 1275 -790 
Q 1522 -856 1778 -856 
Q 2344 -856 2625 -561 
Q 2906 -266 2906 331 
L 2906 616 
Q 2728 306 2450 153 
Q 2172 0 1784 0 
Q 1141 0 747 490 
Q 353 981 353 1791 
Q 353 2603 747 3093 
Q 1141 3584 1784 3584 
Q 2172 3584 2450 3431 
Q 2728 3278 2906 2969 
L 2906 3500 
L 3481 3500 
L 3481 434 
z
" transform="scale(0.015625)"/>
      <path id="DejaVuSans-70" d="M 1159 525 
L 1159 -1331 
L 581 -1331 
L 581 3500 
L 1159 3500 
L 1159 2969 
Q 1341 3281 1617 3432 
Q 1894 3584 2278 3584 
Q 2916 3584 3314 3078 
Q 3713 2572 3713 1747 
Q 3713 922 3314 415 
Q 2916 -91 2278 -91 
Q 1894 -91 1617 61 
Q 1341 213 1159 525 
z
M 3116 1747 
Q 3116 2381 2855 2742 
Q 2594 3103 2138 3103 
Q 1681 3103 1420 2742 
Q 1159 2381 1159 1747 
Q 1159 1113 1420 752 
Q 1681 391 2138 391 
Q 2594 391 2855 752 
Q 3116 1113 3116 1747 
z
" transform="scale(0.015625)"/>
      <path id="DejaVuSans-2f" d="M 1625 4666 
L 2156 4666 
L 531 -594 
L 0 -594 
L 1625 4666 
z
" transform="scale(0.015625)"/>
      <path id="DejaVuSans-38" d="M 2034 2216 
Q 1584 2216 1326 1975 
Q 1069 1734 1069 1313 
Q 1069 891 1326 650 
Q 1584 409 2034 409 
Q 2484 409 2743 651 
Q 3003 894 3003 1313 
Q 3003 1734 2745 1975 
Q 2488 2216 2034 2216 
z
M 1403 2484 
Q 997 2584 770 2862 
Q 544 3141 544 3541 
Q 544 4100 942 4425 
Q 1341 4750 2034 4750 
Q 2731 4750 3128 4425 
Q 3525 4100 3525 3541 
Q 3525 3141 3298 2862 
Q 3072 2584 2669 2484 
Q 3125 2378 3379 2068 
Q 3634 1759 3634 1313 
Q 3634 634 3220 271 
Q 2806 -91 2034 -91 
Q 1263 -91 848 271 
Q 434 634 434 1313 
Q 434 1759 690 2068 
Q 947 2378 1403 2484 
z
M 1172 3481 
Q 1172 3119 1398 2916 
Q 1625 2713 2034 2713 
Q 2441 2713 2670 2916 
Q 2900 3119 2900 3481 
Q 2900 3844 2670 4047 
Q 2441 4250 2034 4250 
Q 1625 4250 1398 4047 
Q 1172 3844 1172 3481 
z
" transform="scale(0.015625)"/>
     </defs>
     <use xlink:href="#DejaVuSans-55"/>
     <use xlink:href="#DejaVuSans-56" transform="translate(73.193359 0)"/>
     <use xlink:href="#DejaVuSans-20" transform="translate(141.601562 0)"/>
     <use xlink:href="#DejaVuSans-61" transform="translate(173.388672 0)"/>
     <use xlink:href="#DejaVuSans-6e" transform="translate(234.667969 0)"/>
     <use xlink:href="#DejaVuSans-64" transform="translate(298.046875 0)"/>
     <use xlink:href="#DejaVuSans-20" transform="translate(361.523438 0)"/>
     <use xlink:href="#DejaVuSans-4d" transform="translate(393.310547 0)"/>
     <use xlink:href="#DejaVuSans-53" transform="translate(479.589844 0)"/>
     <use xlink:href="#DejaVuSans-20" transform="translate(543.066406 0)"/>
     <use xlink:href="#DejaVuSans-43" transform="translate(574.853516 0)"/>
     <use xlink:href="#DejaVuSans-68" transform="translate(644.677734 0)"/>
     <use xlink:href="#DejaVuSans-72" transform="translate(708.056641 0)"/>
     <use xlink:href="#DejaVuSans-6f" transform="translate(746.919922 0)"/>
     <use xlink:href="#DejaVuSans-6d" transform="translate(808.101562 0)"/>
     <use xlink:href="#DejaVuSans-61" transform="translate(905.513672 0)"/>
     <use xlink:href="#DejaVuSans-74" transform="translate(966.792969 0)"/>
     <use xlink:href="#DejaVuSans-6f" transform="translate(1006.001953 0)"/>
     <use xlink:href="#DejaVuSans-67" transform="translate(1067.183594 0)"/>
     <use xlink:href="#DejaVuSans-72" transform="translate(1130.660156 0)"/>
     <use xlink:href="#DejaVuSans-61" transform="translate(1171.773438 0)"/>
     <use xlink:href="#DejaVuSans-6d" transform="translate(1233.052734 0)"/>
     <use xlink:href="#DejaVuSans-73" transform="translate(1330.464844 0)"/>
     <use xlink:href="#DejaVuSans-20" transform="translate(1382.564453 0)"/>
     <use xlink:href="#DejaVuSans-6f" transform="translate(1414.351562 0)"/>
     <use xlink:href="#DejaVuSans-66" transform="translate(1475.533203 0)"/>
     <use xlink:href="#DejaVuSans-20" transform="translate(1510.738281 0)"/>
     <use xlink:href="#DejaVuSans-49" transform="translate(1542.525391 0)"/>
     <use xlink:href="#DejaVuSans-72" transform="translate(1572.017578 0)"/>
     <use xlink:href="#DejaVuSans-43" transform="translate(1613.130859 0)"/>
     <use xlink:href="#DejaVuSans-70" transform="translate(1682.955078 0)"/>
     <use xlink:href="#DejaVuSans-33" transform="translate(1746.431641 0)"/>
     <use xlink:href="#DejaVuSans-4d" transform="translate(1810.054688 0)"/>
     <use xlink:href="#DejaVuSans-33" transform="translate(1896.333984 0)"/>
     <use xlink:href="#DejaVuSans-2c" transform="translate(1959.957031 0)"/>
     <use xlink:href="#DejaVuSans-20" transform="translate(1991.744141 0)"/>
     <use xlink:href="#DejaVuSans-74" transform="translate(2023.53125 0)"/>
     <use xlink:href="#DejaVuSans-61" transform="translate(2062.740234 0)"/>
     <use xlink:href="#DejaVuSans-72" transform="translate(2124.019531 0)"/>
     <use xlink:href="#DejaVuSans-67" transform="translate(2163.382812 0)"/>
     <use xlink:href="#DejaVuSans-65" transform="translate(2226.859375 0)"/>
     <use xlink:href="#DejaVuSans-74" transform="translate(2288.382812 0)"/>
     <use xlink:href="#DejaVuSans-20" transform="translate(2327.591797 0)"/>
     <use xlink:href="#DejaVuSans-6d" transform="translate(2359.378906 0)"/>
     <use xlink:href="#DejaVuSans-2f" transform="translate(2456.791016 0)"/>
     <use xlink:href="#DejaVuSans-7a" transform="translate(2490.482422 0)"/>
     <use xlink:href="#DejaVuSans-20" transform="translate(2542.972656 0)"/>
     <use xlink:href="#DejaVuSans-3d" transform="translate(2574.759766 0)"/>
     <use xlink:href="#DejaVuSans-20" transform="translate(2658.548828 0)"/>
     <use xlink:href="#DejaVuSans-38" transform="translate(2690.335938 0)"/>
     <use xlink:href="#DejaVuSans-32" transform="translate(2753.958984 0)"/>
     <use xlink:href="#DejaVuSans-39" transform="translate(2817.582031 0)"/>
     <use xlink:href="#DejaVuSans-2e" transform="translate(2881.205078 0)"/>
     <use xlink:href="#DejaVuSans-30" transform="translate(2912.992188 0)"/>
     <use xlink:href="#DejaVuSans-32" transform="translate(2976.615234 0)"/>
     <use xlink:href="#DejaVuSans-35" transform="translate(3040.238281 0)"/>
     <use xlink:href="#DejaVuSans-35" transform="translate(3103.861328 0)"/>
     <use xlink:href="#DejaVuSans-39" transform="translate(3167.484375 0)"/>
     <use xlink:href="#DejaVuSans-31" transform="translate(3231.107422 0)"/>
     <use xlink:href="#DejaVuSans-37" transform="translate(3294.730469 0)"/>
    </g>
   </g>
   <g id="legend_1">
    <g id="patch_8">
     <path d="M 685.971875 64.23625 
L 846.2 64.23625 
Q 848.2 64.23625 848.2 62.23625 
L 848.2 33.88 
Q 848.2 31.88 846.2 31.88 
L 685.971875 31.88 
Q 683.971875 31.88 683.971875 33.88 
L 683.971875 62.23625 
Q 683.971875 64.23625 685.971875 64.23625 
z
" style="fill: #ffffff; opacity: 0.8; stroke: #cccccc; stroke-linejoin: miter"/>
    </g>
    <g id="line2d_15">
     <path d="M 687.971875 39.978437 
L 697.971875 39.978437 
L 707.971875 39.978437 
" style="fill: none; stroke: #0000ff; stroke-width: 1.5; stroke-linecap: square"/>
    </g>
    <g id="text_17">
     <!-- UV Intensity (normalized) -->
     <g transform="translate(715.971875 43.478437) scale(0.1 -0.1)">
      <use xlink:href="#DejaVuSans-55"/>
      <use xlink:href="#DejaVuSans-56" transform="translate(73.193359 0)"/>
      <use xlink:href="#DejaVuSans-20" transform="translate(141.601562 0)"/>
      <use xlink:href="#DejaVuSans-49" transform="translate(173.388672 0)"/>
      <use xlink:href="#DejaVuSans-6e" transform="translate(202.880859 0)"/>
      <use xlink:href="#DejaVuSans-74" transform="translate(266.259766 0)"/>
      <use xlink:href="#DejaVuSans-65" transform="translate(305.46875 0)"/>
      <use xlink:href="#DejaVuSans-6e" transform="translate(366.992188 0)"/>
      <use xlink:href="#DejaVuSans-73" transform="translate(430.371094 0)"/>
      <use xlink:href="#DejaVuSans-69" transform="translate(482.470703 0)"/>
      <use xlink:href="#DejaVuSans-74" transform="translate(510.253906 0)"/>
      <use xlink:href="#DejaVuSans-79" transform="translate(549.462891 0)"/>
      <use xlink:href="#DejaVuSans-20" transform="translate(608.642578 0)"/>
      <use xlink:href="#DejaVuSans-28" transform="translate(640.429688 0)"/>
      <use xlink:href="#DejaVuSans-6e" transform="translate(679.443359 0)"/>
      <use xlink:href="#DejaVuSans-6f" transform="translate(742.822266 0)"/>
      <use xlink:href="#DejaVuSans-72" transform="translate(804.003906 0)"/>
      <use xlink:href="#DejaVuSans-6d" transform="translate(843.367188 0)"/>
      <use xlink:href="#DejaVuSans-61" transform="translate(940.779297 0)"/>
      <use xlink:href="#DejaVuSans-6c" transform="translate(1002.058594 0)"/>
      <use xlink:href="#DejaVuSans-69" transform="translate(1029.841797 0)"/>
      <use xlink:href="#DejaVuSans-7a" transform="translate(1057.625 0)"/>
      <use xlink:href="#DejaVuSans-65" transform="translate(1110.115234 0)"/>
      <use xlink:href="#DejaVuSans-64" transform="translate(1171.638672 0)"/>
      <use xlink:href="#DejaVuSans-29" transform="translate(1235.115234 0)"/>
     </g>
    </g>
    <g id="line2d_16">
     <path d="M 687.971875 54.656562 
L 697.971875 54.656562 
L 707.971875 54.656562 
" style="fill: none; stroke: #008000; stroke-width: 1.5; stroke-linecap: square"/>
    </g>
    <g id="text_18">
     <!-- MS Intensity (normalized) -->
     <g transform="translate(715.971875 58.156562) scale(0.1 -0.1)">
      <use xlink:href="#DejaVuSans-4d"/>
      <use xlink:href="#DejaVuSans-53" transform="translate(86.279297 0)"/>
      <use xlink:href="#DejaVuSans-20" transform="translate(149.755859 0)"/>
      <use xlink:href="#DejaVuSans-49" transform="translate(181.542969 0)"/>
      <use xlink:href="#DejaVuSans-6e" transform="translate(211.035156 0)"/>
      <use xlink:href="#DejaVuSans-74" transform="translate(274.414062 0)"/>
      <use xlink:href="#DejaVuSans-65" transform="translate(313.623047 0)"/>
      <use xlink:href="#DejaVuSans-6e" transform="translate(375.146484 0)"/>
      <use xlink:href="#DejaVuSans-73" transform="translate(438.525391 0)"/>
      <use xlink:href="#DejaVuSans-69" transform="translate(490.625 0)"/>
      <use xlink:href="#DejaVuSans-74" transform="translate(518.408203 0)"/>
      <use xlink:href="#DejaVuSans-79" transform="translate(557.617188 0)"/>
      <use xlink:href="#DejaVuSans-20" transform="translate(616.796875 0)"/>
      <use xlink:href="#DejaVuSans-28" transform="translate(648.583984 0)"/>
      <use xlink:href="#DejaVuSans-6e" transform="translate(687.597656 0)"/>
      <use xlink:href="#DejaVuSans-6f" transform="translate(750.976562 0)"/>
      <use xlink:href="#DejaVuSans-72" transform="translate(812.158203 0)"/>
      <use xlink:href="#DejaVuSans-6d" transform="translate(851.521484 0)"/>
      <use xlink:href="#DejaVuSans-61" transform="translate(948.933594 0)"/>
      <use xlink:href="#DejaVuSans-6c" transform="translate(1010.212891 0)"/>
      <use xlink:href="#DejaVuSans-69" transform="translate(1037.996094 0)"/>
      <use xlink:href="#DejaVuSans-7a" transform="translate(1065.779297 0)"/>
      <use xlink:href="#DejaVuSans-65" transform="translate(1118.269531 0)"/>
      <use xlink:href="#DejaVuSans-64" transform="translate(1179.792969 0)"/>
      <use xlink:href="#DejaVuSans-29" transform="translate(1243.269531 0)"/>
     </g>
    </g>
   </g>
  </g>
 </g>
 <defs>
  <clipPath id="p90b445fa73">
   <rect x="47.72" y="26.88" width="805.48" height="507.16"/>
  </clipPath>
 </defs>
</svg>
