<?xml version="1.0" encoding="utf-8" standalone="no"?>
<!DOCTYPE svg PUBLIC "-//W3C//DTD SVG 1.1//EN"
  "http://www.w3.org/Graphics/SVG/1.1/DTD/svg11.dtd">
<svg xmlns:xlink="http://www.w3.org/1999/xlink" width="864pt" height="576pt" viewBox="0 0 864 576" xmlns="http://www.w3.org/2000/svg" version="1.1">
 <metadata>
  <rdf:RDF xmlns:dc="http://purl.org/dc/elements/1.1/" xmlns:cc="http://creativecommons.org/ns#" xmlns:rdf="http://www.w3.org/1999/02/22-rdf-syntax-ns#">
   <cc:Work>
    <dc:type rdf:resource="http://purl.org/dc/dcmitype/StillImage"/>
    <dc:date>2025-03-06T18:31:39.781644</dc:date>
    <dc:format>image/svg+xml</dc:format>
    <dc:creator>
     <cc:Agent>
      <dc:title>Matplotlib v3.10.0, https://matplotlib.org/</dc:title>
     </cc:Agent>
    </dc:creator>
   </cc:Work>
  </rdf:RDF>
 </metadata>
 <defs>
  <style type="text/css">*{stroke-linejoin: round; stroke-linecap: butt}</style>
 </defs>
 <g id="figure_1">
  <g id="patch_1">
   <path d="M 0 576 
L 864 576 
L 864 0 
L 0 0 
z
" style="fill: #ffffff"/>
  </g>
  <g id="axes_1">
   <g id="patch_2">
    <path d="M 47.72 534.04 
L 853.2 534.04 
L 853.2 26.88 
L 47.72 26.88 
z
" style="fill: #ffffff"/>
   </g>
   <g id="matplotlib.axis_1">
    <g id="xtick_1">
     <g id="line2d_1">
      <defs>
       <path id="m9de43839d3" d="M 0 0 
L 0 3.5 
" style="stroke: #000000; stroke-width: 0.8"/>
      </defs>
      <g>
       <use xlink:href="#m9de43839d3" x="83.095596" y="534.04" style="stroke: #000000; stroke-width: 0.8"/>
      </g>
     </g>
     <g id="text_1">
      <!-- 0 -->
      <g transform="translate(79.914346 548.638438) scale(0.1 -0.1)">
       <defs>
        <path id="DejaVuSans-30" d="M 2034 4250 
Q 1547 4250 1301 3770 
Q 1056 3291 1056 2328 
Q 1056 1369 1301 889 
Q 1547 409 2034 409 
Q 2525 409 2770 889 
Q 3016 1369 3016 2328 
Q 3016 3291 2770 3770 
Q 2525 4250 2034 4250 
z
M 2034 4750 
Q 2819 4750 3233 4129 
Q 3647 3509 3647 2328 
Q 3647 1150 3233 529 
Q 2819 -91 2034 -91 
Q 1250 -91 836 529 
Q 422 1150 422 2328 
Q 422 3509 836 4129 
Q 1250 4750 2034 4750 
z
" transform="scale(0.015625)"/>
       </defs>
       <use xlink:href="#DejaVuSans-30"/>
      </g>
     </g>
    </g>
    <g id="xtick_2">
     <g id="line2d_2">
      <g>
       <use xlink:href="#m9de43839d3" x="229.790997" y="534.04" style="stroke: #000000; stroke-width: 0.8"/>
      </g>
     </g>
     <g id="text_2">
      <!-- 1 -->
      <g transform="translate(226.609747 548.638438) scale(0.1 -0.1)">
       <defs>
        <path id="DejaVuSans-31" d="M 794 531 
L 1825 531 
L 1825 4091 
L 703 3866 
L 703 4441 
L 1819 4666 
L 2450 4666 
L 2450 531 
L 3481 531 
L 3481 0 
L 794 0 
L 794 531 
z
" transform="scale(0.015625)"/>
       </defs>
       <use xlink:href="#DejaVuSans-31"/>
      </g>
     </g>
    </g>
    <g id="xtick_3">
     <g id="line2d_3">
      <g>
       <use xlink:href="#m9de43839d3" x="376.486399" y="534.04" style="stroke: #000000; stroke-width: 0.8"/>
      </g>
     </g>
     <g id="text_3">
      <!-- 2 -->
      <g transform="translate(373.305149 548.638438) scale(0.1 -0.1)">
       <defs>
        <path id="DejaVuSans-32" d="M 1228 531 
L 3431 531 
L 3431 0 
L 469 0 
L 469 531 
Q 828 903 1448 1529 
Q 2069 2156 2228 2338 
Q 2531 2678 2651 2914 
Q 2772 3150 2772 3378 
Q 2772 3750 2511 3984 
Q 2250 4219 1831 4219 
Q 1534 4219 1204 4116 
Q 875 4013 500 3803 
L 500 4441 
Q 881 4594 1212 4672 
Q 1544 4750 1819 4750 
Q 2544 4750 2975 4387 
Q 3406 4025 3406 3419 
Q 3406 3131 3298 2873 
Q 3191 2616 2906 2266 
Q 2828 2175 2409 1742 
Q 1991 1309 1228 531 
z
" transform="scale(0.015625)"/>
       </defs>
       <use xlink:href="#DejaVuSans-32"/>
      </g>
     </g>
    </g>
    <g id="xtick_4">
     <g id="line2d_4">
      <g>
       <use xlink:href="#m9de43839d3" x="523.1818" y="534.04" style="stroke: #000000; stroke-width: 0.8"/>
      </g>
     </g>
     <g id="text_4">
      <!-- 3 -->
      <g transform="translate(520.00055 548.638438) scale(0.1 -0.1)">
       <defs>
        <path id="DejaVuSans-33" d="M 2597 2516 
Q 3050 2419 3304 2112 
Q 3559 1806 3559 1356 
Q 3559 666 3084 287 
Q 2609 -91 1734 -91 
Q 1441 -91 1130 -33 
Q 819 25 488 141 
L 488 750 
Q 750 597 1062 519 
Q 1375 441 1716 441 
Q 2309 441 2620 675 
Q 2931 909 2931 1356 
Q 2931 1769 2642 2001 
Q 2353 2234 1838 2234 
L 1294 2234 
L 1294 2753 
L 1863 2753 
Q 2328 2753 2575 2939 
Q 2822 3125 2822 3475 
Q 2822 3834 2567 4026 
Q 2313 4219 1838 4219 
Q 1578 4219 1281 4162 
Q 984 4106 628 3988 
L 628 4550 
Q 988 4650 1302 4700 
Q 1616 4750 1894 4750 
Q 2613 4750 3031 4423 
Q 3450 4097 3450 3541 
Q 3450 3153 3228 2886 
Q 3006 2619 2597 2516 
z
" transform="scale(0.015625)"/>
       </defs>
       <use xlink:href="#DejaVuSans-33"/>
      </g>
     </g>
    </g>
    <g id="xtick_5">
     <g id="line2d_5">
      <g>
       <use xlink:href="#m9de43839d3" x="669.877202" y="534.04" style="stroke: #000000; stroke-width: 0.8"/>
      </g>
     </g>
     <g id="text_5">
      <!-- 4 -->
      <g transform="translate(666.695952 548.638438) scale(0.1 -0.1)">
       <defs>
        <path id="DejaVuSans-34" d="M 2419 4116 
L 825 1625 
L 2419 1625 
L 2419 4116 
z
M 2253 4666 
L 3047 4666 
L 3047 1625 
L 3713 1625 
L 3713 1100 
L 3047 1100 
L 3047 0 
L 2419 0 
L 2419 1100 
L 313 1100 
L 313 1709 
L 2253 4666 
z
" transform="scale(0.015625)"/>
       </defs>
       <use xlink:href="#DejaVuSans-34"/>
      </g>
     </g>
    </g>
    <g id="xtick_6">
     <g id="line2d_6">
      <g>
       <use xlink:href="#m9de43839d3" x="816.572603" y="534.04" style="stroke: #000000; stroke-width: 0.8"/>
      </g>
     </g>
     <g id="text_6">
      <!-- 5 -->
      <g transform="translate(813.391353 548.638438) scale(0.1 -0.1)">
       <defs>
        <path id="DejaVuSans-35" d="M 691 4666 
L 3169 4666 
L 3169 4134 
L 1269 4134 
L 1269 2991 
Q 1406 3038 1543 3061 
Q 1681 3084 1819 3084 
Q 2600 3084 3056 2656 
Q 3513 2228 3513 1497 
Q 3513 744 3044 326 
Q 2575 -91 1722 -91 
Q 1428 -91 1123 -41 
Q 819 9 494 109 
L 494 744 
Q 775 591 1075 516 
Q 1375 441 1709 441 
Q 2250 441 2565 725 
Q 2881 1009 2881 1497 
Q 2881 1984 2565 2268 
Q 2250 2553 1709 2553 
Q 1456 2553 1204 2497 
Q 953 2441 691 2322 
L 691 4666 
z
" transform="scale(0.015625)"/>
       </defs>
       <use xlink:href="#DejaVuSans-35"/>
      </g>
     </g>
    </g>
    <g id="text_7">
     <!-- Retention Time (min) -->
     <g transform="translate(397.61 562.316562) scale(0.1 -0.1)">
      <defs>
       <path id="DejaVuSans-52" d="M 2841 2188 
Q 3044 2119 3236 1894 
Q 3428 1669 3622 1275 
L 4263 0 
L 3584 0 
L 2988 1197 
Q 2756 1666 2539 1819 
Q 2322 1972 1947 1972 
L 1259 1972 
L 1259 0 
L 628 0 
L 628 4666 
L 2053 4666 
Q 2853 4666 3247 4331 
Q 3641 3997 3641 3322 
Q 3641 2881 3436 2590 
Q 3231 2300 2841 2188 
z
M 1259 4147 
L 1259 2491 
L 2053 2491 
Q 2509 2491 2742 2702 
Q 2975 2913 2975 3322 
Q 2975 3731 2742 3939 
Q 2509 4147 2053 4147 
L 1259 4147 
z
" transform="scale(0.015625)"/>
       <path id="DejaVuSans-65" d="M 3597 1894 
L 3597 1613 
L 953 1613 
Q 991 1019 1311 708 
Q 1631 397 2203 397 
Q 2534 397 2845 478 
Q 3156 559 3463 722 
L 3463 178 
Q 3153 47 2828 -22 
Q 2503 -91 2169 -91 
Q 1331 -91 842 396 
Q 353 884 353 1716 
Q 353 2575 817 3079 
Q 1281 3584 2069 3584 
Q 2775 3584 3186 3129 
Q 3597 2675 3597 1894 
z
M 3022 2063 
Q 3016 2534 2758 2815 
Q 2500 3097 2075 3097 
Q 1594 3097 1305 2825 
Q 1016 2553 972 2059 
L 3022 2063 
z
" transform="scale(0.015625)"/>
       <path id="DejaVuSans-74" d="M 1172 4494 
L 1172 3500 
L 2356 3500 
L 2356 3053 
L 1172 3053 
L 1172 1153 
Q 1172 725 1289 603 
Q 1406 481 1766 481 
L 2356 481 
L 2356 0 
L 1766 0 
Q 1100 0 847 248 
Q 594 497 594 1153 
L 594 3053 
L 172 3053 
L 172 3500 
L 594 3500 
L 594 4494 
L 1172 4494 
z
" transform="scale(0.015625)"/>
       <path id="DejaVuSans-6e" d="M 3513 2113 
L 3513 0 
L 2938 0 
L 2938 2094 
Q 2938 2591 2744 2837 
Q 2550 3084 2163 3084 
Q 1697 3084 1428 2787 
Q 1159 2491 1159 1978 
L 1159 0 
L 581 0 
L 581 3500 
L 1159 3500 
L 1159 2956 
Q 1366 3272 1645 3428 
Q 1925 3584 2291 3584 
Q 2894 3584 3203 3211 
Q 3513 2838 3513 2113 
z
" transform="scale(0.015625)"/>
       <path id="DejaVuSans-69" d="M 603 3500 
L 1178 3500 
L 1178 0 
L 603 0 
L 603 3500 
z
M 603 4863 
L 1178 4863 
L 1178 4134 
L 603 4134 
L 603 4863 
z
" transform="scale(0.015625)"/>
       <path id="DejaVuSans-6f" d="M 1959 3097 
Q 1497 3097 1228 2736 
Q 959 2375 959 1747 
Q 959 1119 1226 758 
Q 1494 397 1959 397 
Q 2419 397 2687 759 
Q 2956 1122 2956 1747 
Q 2956 2369 2687 2733 
Q 2419 3097 1959 3097 
z
M 1959 3584 
Q 2709 3584 3137 3096 
Q 3566 2609 3566 1747 
Q 3566 888 3137 398 
Q 2709 -91 1959 -91 
Q 1206 -91 779 398 
Q 353 888 353 1747 
Q 353 2609 779 3096 
Q 1206 3584 1959 3584 
z
" transform="scale(0.015625)"/>
       <path id="DejaVuSans-20" transform="scale(0.015625)"/>
       <path id="DejaVuSans-54" d="M -19 4666 
L 3928 4666 
L 3928 4134 
L 2272 4134 
L 2272 0 
L 1638 0 
L 1638 4134 
L -19 4134 
L -19 4666 
z
" transform="scale(0.015625)"/>
       <path id="DejaVuSans-6d" d="M 3328 2828 
Q 3544 3216 3844 3400 
Q 4144 3584 4550 3584 
Q 5097 3584 5394 3201 
Q 5691 2819 5691 2113 
L 5691 0 
L 5113 0 
L 5113 2094 
Q 5113 2597 4934 2840 
Q 4756 3084 4391 3084 
Q 3944 3084 3684 2787 
Q 3425 2491 3425 1978 
L 3425 0 
L 2847 0 
L 2847 2094 
Q 2847 2600 2669 2842 
Q 2491 3084 2119 3084 
Q 1678 3084 1418 2786 
Q 1159 2488 1159 1978 
L 1159 0 
L 581 0 
L 581 3500 
L 1159 3500 
L 1159 2956 
Q 1356 3278 1631 3431 
Q 1906 3584 2284 3584 
Q 2666 3584 2933 3390 
Q 3200 3197 3328 2828 
z
" transform="scale(0.015625)"/>
       <path id="DejaVuSans-28" d="M 1984 4856 
Q 1566 4138 1362 3434 
Q 1159 2731 1159 2009 
Q 1159 1288 1364 580 
Q 1569 -128 1984 -844 
L 1484 -844 
Q 1016 -109 783 600 
Q 550 1309 550 2009 
Q 550 2706 781 3412 
Q 1013 4119 1484 4856 
L 1984 4856 
z
" transform="scale(0.015625)"/>
       <path id="DejaVuSans-29" d="M 513 4856 
L 1013 4856 
Q 1481 4119 1714 3412 
Q 1947 2706 1947 2009 
Q 1947 1309 1714 600 
Q 1481 -109 1013 -844 
L 513 -844 
Q 928 -128 1133 580 
Q 1338 1288 1338 2009 
Q 1338 2731 1133 3434 
Q 928 4138 513 4856 
z
" transform="scale(0.015625)"/>
      </defs>
      <use xlink:href="#DejaVuSans-52"/>
      <use xlink:href="#DejaVuSans-65" transform="translate(64.982422 0)"/>
      <use xlink:href="#DejaVuSans-74" transform="translate(126.505859 0)"/>
      <use xlink:href="#DejaVuSans-65" transform="translate(165.714844 0)"/>
      <use xlink:href="#DejaVuSans-6e" transform="translate(227.238281 0)"/>
      <use xlink:href="#DejaVuSans-74" transform="translate(290.617188 0)"/>
      <use xlink:href="#DejaVuSans-69" transform="translate(329.826172 0)"/>
      <use xlink:href="#DejaVuSans-6f" transform="translate(357.609375 0)"/>
      <use xlink:href="#DejaVuSans-6e" transform="translate(418.791016 0)"/>
      <use xlink:href="#DejaVuSans-20" transform="translate(482.169922 0)"/>
      <use xlink:href="#DejaVuSans-54" transform="translate(513.957031 0)"/>
      <use xlink:href="#DejaVuSans-69" transform="translate(571.916016 0)"/>
      <use xlink:href="#DejaVuSans-6d" transform="translate(599.699219 0)"/>
      <use xlink:href="#DejaVuSans-65" transform="translate(697.111328 0)"/>
      <use xlink:href="#DejaVuSans-20" transform="translate(758.634766 0)"/>
      <use xlink:href="#DejaVuSans-28" transform="translate(790.421875 0)"/>
      <use xlink:href="#DejaVuSans-6d" transform="translate(829.435547 0)"/>
      <use xlink:href="#DejaVuSans-69" transform="translate(926.847656 0)"/>
      <use xlink:href="#DejaVuSans-6e" transform="translate(954.630859 0)"/>
      <use xlink:href="#DejaVuSans-29" transform="translate(1018.009766 0)"/>
     </g>
    </g>
   </g>
   <g id="matplotlib.axis_2">
    <g id="ytick_1">
     <g id="line2d_7">
      <defs>
       <path id="m62f0df6bc2" d="M 0 0 
L -3.5 0 
" style="stroke: #000000; stroke-width: 0.8"/>
      </defs>
      <g>
       <use xlink:href="#m62f0df6bc2" x="47.72" y="510.987273" style="stroke: #000000; stroke-width: 0.8"/>
      </g>
     </g>
     <g id="text_8">
      <!-- 0.0 -->
      <g style="fill: #0000ff" transform="translate(24.816875 514.786491) scale(0.1 -0.1)">
       <defs>
        <path id="DejaVuSans-2e" d="M 684 794 
L 1344 794 
L 1344 0 
L 684 0 
L 684 794 
z
" transform="scale(0.015625)"/>
       </defs>
       <use xlink:href="#DejaVuSans-30"/>
       <use xlink:href="#DejaVuSans-2e" transform="translate(63.623047 0)"/>
       <use xlink:href="#DejaVuSans-30" transform="translate(95.410156 0)"/>
      </g>
     </g>
    </g>
    <g id="ytick_2">
     <g id="line2d_8">
      <g>
       <use xlink:href="#m62f0df6bc2" x="47.72" y="418.776364" style="stroke: #000000; stroke-width: 0.8"/>
      </g>
     </g>
     <g id="text_9">
      <!-- 0.5 -->
      <g style="fill: #0000ff" transform="translate(24.816875 422.575582) scale(0.1 -0.1)">
       <use xlink:href="#DejaVuSans-30"/>
       <use xlink:href="#DejaVuSans-2e" transform="translate(63.623047 0)"/>
       <use xlink:href="#DejaVuSans-35" transform="translate(95.410156 0)"/>
      </g>
     </g>
    </g>
    <g id="ytick_3">
     <g id="line2d_9">
      <g>
       <use xlink:href="#m62f0df6bc2" x="47.72" y="326.565455" style="stroke: #000000; stroke-width: 0.8"/>
      </g>
     </g>
     <g id="text_10">
      <!-- 1.0 -->
      <g style="fill: #0000ff" transform="translate(24.816875 330.364673) scale(0.1 -0.1)">
       <use xlink:href="#DejaVuSans-31"/>
       <use xlink:href="#DejaVuSans-2e" transform="translate(63.623047 0)"/>
       <use xlink:href="#DejaVuSans-30" transform="translate(95.410156 0)"/>
      </g>
     </g>
    </g>
    <g id="ytick_4">
     <g id="line2d_10">
      <g>
       <use xlink:href="#m62f0df6bc2" x="47.72" y="234.354545" style="stroke: #000000; stroke-width: 0.8"/>
      </g>
     </g>
     <g id="text_11">
      <!-- 1.5 -->
      <g style="fill: #0000ff" transform="translate(24.816875 238.153764) scale(0.1 -0.1)">
       <use xlink:href="#DejaVuSans-31"/>
       <use xlink:href="#DejaVuSans-2e" transform="translate(63.623047 0)"/>
       <use xlink:href="#DejaVuSans-35" transform="translate(95.410156 0)"/>
      </g>
     </g>
    </g>
    <g id="ytick_5">
     <g id="line2d_11">
      <g>
       <use xlink:href="#m62f0df6bc2" x="47.72" y="142.143636" style="stroke: #000000; stroke-width: 0.8"/>
      </g>
     </g>
     <g id="text_12">
      <!-- 2.0 -->
      <g style="fill: #0000ff" transform="translate(24.816875 145.942855) scale(0.1 -0.1)">
       <use xlink:href="#DejaVuSans-32"/>
       <use xlink:href="#DejaVuSans-2e" transform="translate(63.623047 0)"/>
       <use xlink:href="#DejaVuSans-30" transform="translate(95.410156 0)"/>
      </g>
     </g>
    </g>
    <g id="ytick_6">
     <g id="line2d_12">
      <g>
       <use xlink:href="#m62f0df6bc2" x="47.72" y="49.932727" style="stroke: #000000; stroke-width: 0.8"/>
      </g>
     </g>
     <g id="text_13">
      <!-- 2.5 -->
      <g style="fill: #0000ff" transform="translate(24.816875 53.731946) scale(0.1 -0.1)">
       <use xlink:href="#DejaVuSans-32"/>
       <use xlink:href="#DejaVuSans-2e" transform="translate(63.623047 0)"/>
       <use xlink:href="#DejaVuSans-35" transform="translate(95.410156 0)"/>
      </g>
     </g>
    </g>
    <g id="text_14">
     <!-- Normalized Intensity -->
     <g style="fill: #0000ff" transform="translate(18.737187 332.167031) rotate(-90) scale(0.1 -0.1)">
      <defs>
       <path id="DejaVuSans-4e" d="M 628 4666 
L 1478 4666 
L 3547 763 
L 3547 4666 
L 4159 4666 
L 4159 0 
L 3309 0 
L 1241 3903 
L 1241 0 
L 628 0 
L 628 4666 
z
" transform="scale(0.015625)"/>
       <path id="DejaVuSans-72" d="M 2631 2963 
Q 2534 3019 2420 3045 
Q 2306 3072 2169 3072 
Q 1681 3072 1420 2755 
Q 1159 2438 1159 1844 
L 1159 0 
L 581 0 
L 581 3500 
L 1159 3500 
L 1159 2956 
Q 1341 3275 1631 3429 
Q 1922 3584 2338 3584 
Q 2397 3584 2469 3576 
Q 2541 3569 2628 3553 
L 2631 2963 
z
" transform="scale(0.015625)"/>
       <path id="DejaVuSans-61" d="M 2194 1759 
Q 1497 1759 1228 1600 
Q 959 1441 959 1056 
Q 959 750 1161 570 
Q 1363 391 1709 391 
Q 2188 391 2477 730 
Q 2766 1069 2766 1631 
L 2766 1759 
L 2194 1759 
z
M 3341 1997 
L 3341 0 
L 2766 0 
L 2766 531 
Q 2569 213 2275 61 
Q 1981 -91 1556 -91 
Q 1019 -91 701 211 
Q 384 513 384 1019 
Q 384 1609 779 1909 
Q 1175 2209 1959 2209 
L 2766 2209 
L 2766 2266 
Q 2766 2663 2505 2880 
Q 2244 3097 1772 3097 
Q 1472 3097 1187 3025 
Q 903 2953 641 2809 
L 641 3341 
Q 956 3463 1253 3523 
Q 1550 3584 1831 3584 
Q 2591 3584 2966 3190 
Q 3341 2797 3341 1997 
z
" transform="scale(0.015625)"/>
       <path id="DejaVuSans-6c" d="M 603 4863 
L 1178 4863 
L 1178 0 
L 603 0 
L 603 4863 
z
" transform="scale(0.015625)"/>
       <path id="DejaVuSans-7a" d="M 353 3500 
L 3084 3500 
L 3084 2975 
L 922 459 
L 3084 459 
L 3084 0 
L 275 0 
L 275 525 
L 2438 3041 
L 353 3041 
L 353 3500 
z
" transform="scale(0.015625)"/>
       <path id="DejaVuSans-64" d="M 2906 2969 
L 2906 4863 
L 3481 4863 
L 3481 0 
L 2906 0 
L 2906 525 
Q 2725 213 2448 61 
Q 2172 -91 1784 -91 
Q 1150 -91 751 415 
Q 353 922 353 1747 
Q 353 2572 751 3078 
Q 1150 3584 1784 3584 
Q 2172 3584 2448 3432 
Q 2725 3281 2906 2969 
z
M 947 1747 
Q 947 1113 1208 752 
Q 1469 391 1925 391 
Q 2381 391 2643 752 
Q 2906 1113 2906 1747 
Q 2906 2381 2643 2742 
Q 2381 3103 1925 3103 
Q 1469 3103 1208 2742 
Q 947 2381 947 1747 
z
" transform="scale(0.015625)"/>
       <path id="DejaVuSans-49" d="M 628 4666 
L 1259 4666 
L 1259 0 
L 628 0 
L 628 4666 
z
" transform="scale(0.015625)"/>
       <path id="DejaVuSans-73" d="M 2834 3397 
L 2834 2853 
Q 2591 2978 2328 3040 
Q 2066 3103 1784 3103 
Q 1356 3103 1142 2972 
Q 928 2841 928 2578 
Q 928 2378 1081 2264 
Q 1234 2150 1697 2047 
L 1894 2003 
Q 2506 1872 2764 1633 
Q 3022 1394 3022 966 
Q 3022 478 2636 193 
Q 2250 -91 1575 -91 
Q 1294 -91 989 -36 
Q 684 19 347 128 
L 347 722 
Q 666 556 975 473 
Q 1284 391 1588 391 
Q 1994 391 2212 530 
Q 2431 669 2431 922 
Q 2431 1156 2273 1281 
Q 2116 1406 1581 1522 
L 1381 1569 
Q 847 1681 609 1914 
Q 372 2147 372 2553 
Q 372 3047 722 3315 
Q 1072 3584 1716 3584 
Q 2034 3584 2315 3537 
Q 2597 3491 2834 3397 
z
" transform="scale(0.015625)"/>
       <path id="DejaVuSans-79" d="M 2059 -325 
Q 1816 -950 1584 -1140 
Q 1353 -1331 966 -1331 
L 506 -1331 
L 506 -850 
L 844 -850 
Q 1081 -850 1212 -737 
Q 1344 -625 1503 -206 
L 1606 56 
L 191 3500 
L 800 3500 
L 1894 763 
L 2988 3500 
L 3597 3500 
L 2059 -325 
z
" transform="scale(0.015625)"/>
      </defs>
      <use xlink:href="#DejaVuSans-4e"/>
      <use xlink:href="#DejaVuSans-6f" transform="translate(74.804688 0)"/>
      <use xlink:href="#DejaVuSans-72" transform="translate(135.986328 0)"/>
      <use xlink:href="#DejaVuSans-6d" transform="translate(175.349609 0)"/>
      <use xlink:href="#DejaVuSans-61" transform="translate(272.761719 0)"/>
      <use xlink:href="#DejaVuSans-6c" transform="translate(334.041016 0)"/>
      <use xlink:href="#DejaVuSans-69" transform="translate(361.824219 0)"/>
      <use xlink:href="#DejaVuSans-7a" transform="translate(389.607422 0)"/>
      <use xlink:href="#DejaVuSans-65" transform="translate(442.097656 0)"/>
      <use xlink:href="#DejaVuSans-64" transform="translate(503.621094 0)"/>
      <use xlink:href="#DejaVuSans-20" transform="translate(567.097656 0)"/>
      <use xlink:href="#DejaVuSans-49" transform="translate(598.884766 0)"/>
      <use xlink:href="#DejaVuSans-6e" transform="translate(628.376953 0)"/>
      <use xlink:href="#DejaVuSans-74" transform="translate(691.755859 0)"/>
      <use xlink:href="#DejaVuSans-65" transform="translate(730.964844 0)"/>
      <use xlink:href="#DejaVuSans-6e" transform="translate(792.488281 0)"/>
      <use xlink:href="#DejaVuSans-73" transform="translate(855.867188 0)"/>
      <use xlink:href="#DejaVuSans-69" transform="translate(907.966797 0)"/>
      <use xlink:href="#DejaVuSans-74" transform="translate(935.75 0)"/>
      <use xlink:href="#DejaVuSans-79" transform="translate(974.958984 0)"/>
     </g>
    </g>
   </g>
   <g id="line2d_13">
    <path d="M 84.332727 510.987273 
L 92.889959 510.887691 
L 101.447191 510.821271 
L 124.673963 510.857964 
L 158.90289 510.680866 
L 163.792736 510.681637 
L 166.23766 510.325929 
L 168.682583 509.770955 
L 169.905045 509.639571 
L 171.127506 509.669474 
L 178.462277 510.576888 
L 183.352123 510.75542 
L 185.797047 510.607615 
L 189.464432 510.306155 
L 193.131817 510.353533 
L 199.244125 510.536976 
L 220.025974 510.266589 
L 227.360744 510.820761 
L 228.583205 510.77413 
L 229.805667 510.583103 
L 231.028129 510.147022 
L 234.695514 507.955838 
L 235.917975 507.662475 
L 237.140437 507.796997 
L 238.362899 508.241175 
L 240.807822 509.329033 
L 242.030284 509.72923 
L 244.475207 510.151451 
L 248.142592 510.325291 
L 260.367209 510.440837 
L 287.261366 510.362449 
L 290.928751 510.201898 
L 299.485983 510.302158 
L 303.153368 510.124037 
L 306.820753 510.263976 
L 311.710599 510.391969 
L 314.155523 510.345005 
L 316.600446 510.090723 
L 319.04537 509.77594 
L 321.490293 509.824445 
L 326.38014 510.268448 
L 332.492448 510.370049 
L 341.04968 510.405942 
L 343.494603 510.013148 
L 345.939526 509.566287 
L 347.161988 509.520522 
L 350.829373 509.727286 
L 352.051835 509.572224 
L 353.274297 509.153973 
L 355.71922 507.752422 
L 360.609067 504.643445 
L 363.05399 502.919572 
L 364.276452 502.172349 
L 366.721375 501.027101 
L 369.166298 500.103037 
L 370.38876 500.017545 
L 371.611222 500.431947 
L 372.833683 501.322314 
L 376.501068 504.798761 
L 377.72353 505.689439 
L 378.945992 506.382611 
L 381.390915 507.334186 
L 383.835839 507.943871 
L 386.280762 508.326706 
L 388.725685 508.476234 
L 392.39307 508.612024 
L 397.282917 508.955607 
L 400.950302 508.937656 
L 402.172764 508.864331 
L 403.395225 508.566228 
L 404.617687 507.138196 
L 405.840149 502.888087 
L 407.06261 494.935153 
L 408.285072 485.180252 
L 409.507534 477.660958 
L 410.729995 475.506975 
L 411.952457 478.862077 
L 415.619842 498.362077 
L 416.842304 502.267443 
L 418.064766 504.55378 
L 419.287227 505.779297 
L 420.509689 506.438788 
L 421.732151 506.841666 
L 424.177074 507.33077 
L 426.621997 507.520931 
L 427.844459 507.524664 
L 429.066921 507.282508 
L 430.289382 506.318733 
L 431.511844 504.22178 
L 432.734306 501.336656 
L 433.956767 498.834048 
L 435.179229 497.836732 
L 436.401691 498.59595 
L 437.624152 500.521272 
L 438.846614 502.758968 
L 440.069076 504.678217 
L 441.291537 506.023784 
L 442.513999 506.833075 
L 443.736461 507.277527 
L 446.181384 507.712115 
L 448.626307 507.973868 
L 451.071231 508.018911 
L 455.961078 507.738935 
L 457.183539 507.590936 
L 458.406001 506.868966 
L 459.628463 503.843935 
L 460.850924 496.124652 
L 463.295848 469.731718 
L 464.518309 460.599097 
L 465.740771 459.28496 
L 466.963233 464.855168 
L 469.408156 483.055473 
L 470.630618 490.40627 
L 471.853079 495.509604 
L 473.075541 498.783347 
L 474.298003 500.877835 
L 475.520464 502.316718 
L 476.742926 503.396514 
L 477.965388 504.232715 
L 479.187849 504.853779 
L 480.410311 505.281312 
L 482.855234 505.76896 
L 486.52262 506.201127 
L 487.745081 505.984167 
L 488.967543 505.227676 
L 491.412466 502.803323 
L 492.634928 502.178258 
L 493.85739 502.321919 
L 495.079851 503.036763 
L 497.524775 504.859888 
L 498.747236 505.555831 
L 499.969698 506.051588 
L 502.414621 506.638113 
L 506.082006 507.153241 
L 508.52693 507.352166 
L 509.749391 507.29396 
L 510.971853 507.004553 
L 514.639238 505.524621 
L 515.8617 505.501474 
L 518.306623 505.923007 
L 519.529085 505.975627 
L 521.974008 505.764105 
L 524.418932 505.391276 
L 526.863855 504.969578 
L 528.086317 504.956721 
L 531.753702 505.41446 
L 534.198625 505.245372 
L 536.643548 505.009136 
L 537.86601 505.070053 
L 539.088472 505.318788 
L 541.533395 506.263368 
L 543.978318 507.16331 
L 545.20078 507.383864 
L 546.423242 507.398053 
L 548.868165 507.016434 
L 552.53555 506.435569 
L 553.758012 506.054626 
L 554.980474 504.232515 
L 556.202935 496.174573 
L 557.425397 473.793644 
L 558.647859 433.143819 
L 559.87032 382.924838 
L 561.092782 342.028087 
L 562.315244 326.565455 
L 563.537705 339.489487 
L 564.760167 371.295006 
L 565.982629 408.233543 
L 567.20509 439.954396 
L 568.427552 462.294054 
L 569.650014 475.956044 
L 570.872475 483.766458 
L 572.094937 488.506071 
L 573.317399 491.951693 
L 574.53986 494.858229 
L 575.762322 497.344581 
L 576.984784 499.291955 
L 578.207245 500.628753 
L 579.429707 501.477165 
L 584.319554 503.941599 
L 585.542015 504.100794 
L 587.986939 503.846814 
L 589.209401 503.954793 
L 590.431862 504.320949 
L 592.876786 505.279863 
L 595.321709 505.938514 
L 603.878941 507.223626 
L 607.546326 507.54418 
L 612.436172 507.759327 
L 614.881096 507.673407 
L 616.103557 507.462833 
L 620.993404 506.094557 
L 622.215866 506.14323 
L 625.883251 506.768811 
L 627.105713 506.812977 
L 628.328174 506.715841 
L 633.218021 505.902432 
L 634.440483 506.060734 
L 639.330329 507.202319 
L 641.775253 507.379158 
L 646.665099 507.303281 
L 650.332484 507.489396 
L 657.667255 507.381977 
L 669.891871 507.754269 
L 676.00418 507.752559 
L 680.894026 507.868214 
L 700.453413 507.6442 
L 704.120798 507.392032 
L 707.788183 507.110783 
L 715.122953 506.923399 
L 718.790338 507.300539 
L 721.235262 507.330468 
L 729.792494 506.957885 
L 739.572187 507.259575 
L 743.239572 507.550332 
L 748.129419 507.590135 
L 760.354036 507.489706 
L 766.466344 507.189295 
L 776.246037 507.281579 
L 779.913422 507.181937 
L 790.915577 507.207094 
L 803.140194 506.9932 
L 809.252503 506.314992 
L 814.142349 506.582225 
L 816.587273 506.756174 
L 816.587273 506.756174 
" clip-path="url(#p6517bbc58c)" style="fill: none; stroke: #0000ff; stroke-width: 1.5; stroke-linecap: square"/>
   </g>
   <g id="line2d_14">
    <path d="M 89.245801 234.352943 
L 89.245801 234.351252 
L 92.759889 234.283008 
L 122.655923 234.352666 
L 247.743825 234.350534 
L 408.351818 234.19012 
L 408.351818 234.07378 
L 408.693374 234.064563 
L 408.693374 233.950151 
L 409.027106 234.004028 
L 409.027106 233.881275 
L 409.687725 233.962669 
L 409.687725 233.854084 
L 410.016078 233.966068 
L 410.016078 233.878556 
L 410.671562 233.786685 
L 410.671562 233.806169 
L 411.986442 233.677369 
L 412.971501 233.944281 
L 412.971501 233.815044 
L 413.298632 233.918675 
L 413.298632 233.772009 
L 413.626252 233.91247 
L 413.626252 233.764532 
L 413.953627 233.895629 
L 413.953627 233.707742 
L 414.936731 233.716679 
L 414.936731 233.745104 
L 415.264595 233.879627 
L 415.264595 233.687065 
L 415.920323 233.82538 
L 415.920323 233.721089 
L 416.253811 233.898768 
L 416.253811 233.77852 
L 416.910273 233.905163 
L 416.910273 233.762091 
L 417.238626 233.886969 
L 417.238626 233.787951 
L 417.896066 233.912602 
L 417.896066 233.749935 
L 418.225397 233.863553 
L 418.225397 233.74124 
L 418.554728 233.840344 
L 418.554728 233.704874 
L 420.211164 233.902206 
L 420.211164 233.806933 
L 420.541473 233.953841 
L 420.541473 233.840296 
L 420.872027 233.975856 
L 420.872027 233.893694 
L 421.208203 233.989353 
L 421.208203 233.855213 
L 421.539491 233.982478 
L 421.539491 233.87523 
L 421.870533 233.950558 
L 421.870533 233.821256 
L 422.20182 233.946614 
L 422.20182 233.814769 
L 422.869284 233.941566 
L 422.869284 233.846562 
L 423.532592 234.018326 
L 423.532592 233.926996 
L 424.197856 234.001436 
L 424.197856 233.876392 
L 424.530121 233.986548 
L 424.530121 233.871215 
L 425.195384 234.00674 
L 425.195384 233.909671 
L 425.863093 234.054487 
L 425.863093 233.941708 
L 426.536914 234.028508 
L 426.536914 233.930895 
L 427.206578 234.047541 
L 427.206578 233.957003 
L 427.542022 234.063511 
L 427.542022 233.9744 
L 428.210953 234.041238 
L 428.210953 233.968548 
L 428.881351 234.079605 
L 428.881351 234.00313 
L 429.552727 234.082569 
L 429.552727 234.003463 
L 430.224103 234.095542 
L 430.224103 234.022126 
L 430.895723 234.079077 
L 430.895723 233.972842 
L 431.579568 234.065724 
L 431.579568 233.974353 
L 432.254367 234.107409 
L 432.254367 234.056295 
L 432.929166 234.160993 
L 432.929166 234.102439 
L 433.604698 234.13992 
L 433.604698 234.034167 
L 434.277541 234.06568 
L 434.277541 233.989797 
L 434.942805 234.098665 
L 434.942805 234.033451 
L 435.602445 234.134358 
L 435.602445 234.042328 
L 436.265997 234.072704 
L 436.265997 234.011557 
L 436.923437 234.094201 
L 436.923437 234.033771 
L 437.912164 234.110681 
L 437.912164 234.04184 
L 438.241007 234.101841 
L 438.241007 234.032644 
L 439.558576 234.016777 
L 440.218461 234.055436 
L 440.218461 233.997027 
L 440.884947 234.138647 
L 440.884947 234.053352 
L 441.554367 234.110079 
L 441.554367 234.028801 
L 442.218897 234.124294 
L 442.218897 234.042057 
L 442.883916 234.102094 
L 442.883916 234.05125 
L 443.550647 234.141244 
L 443.550647 234.063697 
L 444.891932 234.184272 
L 444.891932 234.134984 
L 445.564774 234.155609 
L 445.564774 234.093904 
L 446.586019 234.171993 
L 446.586019 234.108165 
L 447.266197 234.114755 
L 449.997421 234.177597 
L 450.681021 234.2191 
L 450.681021 234.158352 
L 452.055801 234.192651 
L 452.055801 234.151407 
L 453.766514 234.210295 
L 453.766514 234.162442 
L 454.792649 234.188921 
L 454.792649 234.152043 
L 455.818294 234.232671 
L 455.818294 234.199185 
L 457.191363 234.229579 
L 457.191363 234.196899 
L 458.217253 234.231007 
L 458.217253 234.195428 
L 459.243387 234.219209 
L 459.243387 234.182492 
L 460.611566 234.226447 
L 460.611566 234.203602 
L 461.643079 234.233299 
L 461.643079 234.189946 
L 463.345969 234.178232 
L 464.66965 234.203366 
L 466.306037 234.294807 
L 468.928462 234.26404 
L 470.569006 234.286523 
L 473.20121 234.26265 
L 473.20121 234.279206 
L 474.516334 234.301668 
L 474.516334 234.290448 
L 477.157585 234.291867 
L 477.157585 234.271292 
L 479.472439 234.267996 
L 479.472439 234.255395 
L 484.141264 234.268263 
L 486.147079 234.288924 
L 486.147079 234.279283 
L 487.492276 234.27212 
L 487.492276 234.251375 
L 488.839429 234.290001 
L 488.839429 234.266185 
L 490.532783 234.251575 
L 490.532783 234.231611 
L 492.240073 234.264783 
L 492.240073 234.244671 
L 493.905066 234.260961 
L 493.905066 234.218176 
L 499.242333 234.257989 
L 501.621244 234.277121 
L 501.621244 234.2631 
L 512.562276 234.233476 
L 512.562276 234.238708 
L 514.270055 234.250366 
L 514.270055 234.227673 
L 515.615985 234.236269 
L 515.615985 234.216597 
L 516.956047 234.248271 
L 516.956047 234.224335 
L 518.954283 234.235291 
L 518.954283 234.234295 
L 534.735775 234.225798 
L 534.735775 234.218295 
L 536.090262 234.239088 
L 536.090262 234.241448 
L 537.457952 234.222041 
L 537.457952 234.183865 
L 539.135414 234.239301 
L 539.135414 234.18389 
L 540.142723 234.167344 
L 541.474961 234.186771 
L 542.477869 234.215734 
L 542.477869 234.177219 
L 543.478332 234.214009 
L 543.478332 234.18478 
L 544.484662 234.209693 
L 544.484662 234.187765 
L 549.597975 234.233523 
L 549.597975 234.211807 
L 550.622153 234.212164 
L 550.622153 234.183941 
L 551.643887 234.137515 
L 551.643887 234.072822 
L 552.323575 234.014113 
L 552.323575 233.929974 
L 552.661464 233.959175 
L 552.661464 233.827014 
L 552.998619 233.887419 
L 552.998619 233.717713 
L 553.339196 233.756119 
L 553.339196 233.610708 
L 553.682953 233.72774 
L 553.682953 233.56024 
L 554.024264 233.718399 
L 554.024264 233.567665 
L 554.365331 233.710286 
L 554.365331 233.520616 
L 554.706642 233.681419 
L 554.706642 233.502429 
L 555.389509 233.767355 
L 555.389509 233.681221 
L 555.731554 233.867168 
L 555.731554 233.72582 
L 556.072865 233.831272 
L 556.072865 233.718335 
L 556.755732 233.823922 
L 556.755732 233.715827 
L 557.443734 233.866282 
L 557.443734 233.757918 
L 557.78529 233.876728 
L 557.78529 233.791896 
L 558.127823 233.844119 
L 558.127823 233.684324 
L 558.469379 233.679989 
L 558.469379 233.173058 
L 558.815336 232.885328 
L 558.815336 231.534221 
L 559.156158 230.857793 
L 559.156158 227.714756 
L 559.492091 226.584848 
L 559.492091 220.702617 
L 559.821666 219.353388 
L 559.821666 208.952066 
L 560.14953 208.108208 
L 560.14953 193.047073 
L 560.476661 193.79207 
L 560.476661 175.078299 
L 560.803303 178.568586 
L 560.803303 154.755594 
L 561.129945 162.85262 
L 561.129945 134.274099 
L 561.456342 147.985529 
L 561.456342 115.746992 
L 561.782739 133.430183 
L 561.782739 101.669592 
L 562.109137 123.558395 
L 562.109137 82.320554 
L 562.440668 109.951578 
L 562.440668 70.935832 
L 562.766821 99.445442 
L 562.766821 61.748624 
L 563.092974 96.126335 
L 563.092974 54.914323 
L 563.419615 90.380135 
L 563.419615 49.932727 
L 563.745524 87.160125 
L 563.745524 52.174703 
L 564.071677 91.807199 
L 564.071677 54.234965 
L 564.397585 96.987052 
L 564.397585 57.045712 
L 564.723738 94.758883 
L 564.723738 60.14591 
L 565.04989 98.452695 
L 565.04989 60.748606 
L 565.376043 101.245779 
L 565.376043 68.62382 
L 565.70244 104.949139 
L 565.70244 73.43233 
L 566.028593 110.429702 
L 566.028593 80.021668 
L 566.354746 116.280205 
L 566.354746 84.871363 
L 566.684322 118.400701 
L 566.684322 91.952211 
L 567.011208 125.63935 
L 567.011208 95.184883 
L 567.342984 130.009489 
L 567.342984 106.773534 
L 567.669137 133.981695 
L 567.669137 106.731446 
L 567.995534 138.310361 
L 567.995534 111.249857 
L 568.321931 137.988604 
L 568.321931 119.165262 
L 568.648084 147.305336 
L 568.648084 122.825196 
L 568.974481 149.775639 
L 568.974481 126.599228 
L 569.301123 149.920963 
L 569.301123 129.923511 
L 569.627276 155.385387 
L 569.627276 139.452148 
L 569.953673 162.961208 
L 569.953673 143.491264 
L 570.280315 165.83583 
L 570.280315 144.715619 
L 570.606712 162.495722 
L 570.606712 146.12945 
L 570.933354 165.897814 
L 570.933354 146.527023 
L 571.259996 167.942017 
L 571.259996 152.897454 
L 571.586393 170.139161 
L 571.586393 151.235329 
L 571.913035 170.261841 
L 571.913035 152.638725 
L 572.244811 169.531217 
L 572.244811 156.404231 
L 572.571453 174.952298 
L 572.571453 160.663237 
L 572.898094 179.48464 
L 572.898094 166.332356 
L 573.224736 180.815412 
L 573.224736 166.699665 
L 573.551622 182.437225 
L 573.551622 169.189664 
L 573.878264 183.005677 
L 573.878264 172.639735 
L 574.204906 187.65838 
L 574.204906 175.737477 
L 574.53277 189.340632 
L 574.53277 177.832975 
L 574.859412 189.01161 
L 574.859412 178.156346 
L 575.186298 191.895304 
L 575.186298 181.462145 
L 575.516118 193.831586 
L 575.516118 183.765425 
L 575.843005 195.267523 
L 575.843005 183.078932 
L 576.169891 194.194286 
L 576.169891 184.480169 
L 576.496533 194.953971 
L 576.496533 186.371099 
L 576.823419 197.897433 
L 576.823419 189.583073 
L 577.156173 199.891118 
L 577.156173 192.204663 
L 577.483304 201.448518 
L 577.483304 192.698667 
L 577.810679 202.597502 
L 577.810679 193.944348 
L 578.13781 202.352759 
L 578.13781 195.370544 
L 578.465185 204.792049 
L 578.465185 197.145867 
L 578.792316 206.533667 
L 578.792316 198.754259 
L 579.119691 206.039114 
L 579.119691 199.991667 
L 579.447066 207.165438 
L 579.447066 201.00217 
L 579.774686 209.608759 
L 579.774686 204.203854 
L 580.102061 211.27273 
L 580.102061 205.60446 
L 580.429681 212.011336 
L 580.429681 206.386405 
L 580.7573 212.917555 
L 580.7573 206.025173 
L 581.085165 212.720444 
L 581.085165 207.344796 
L 581.412784 214.074302 
L 581.412784 208.168348 
L 581.740893 215.016175 
L 581.740893 209.515822 
L 582.074136 215.372518 
L 582.074136 209.890952 
L 582.402489 215.712925 
L 582.402489 210.778265 
L 582.730354 216.112445 
L 582.730354 211.679523 
L 583.058462 216.91942 
L 583.058462 212.716319 
L 583.386327 217.985625 
L 583.386327 214.392927 
L 583.714435 219.584725 
L 583.714435 215.230758 
L 584.046211 219.757336 
L 584.046211 215.625529 
L 584.374809 219.810127 
L 584.374809 216.01716 
L 584.703162 220.884176 
L 584.703162 216.785714 
L 585.031515 221.068767 
L 585.031515 217.152803 
L 585.359869 220.866968 
L 585.359869 217.68382 
L 585.688222 222.005513 
L 585.688222 218.717999 
L 586.01682 222.653169 
L 586.01682 219.601265 
L 586.345417 222.70443 
L 586.345417 220.066215 
L 586.674015 223.651684 
L 586.674015 220.666414 
L 587.008481 223.728751 
L 587.008481 220.486282 
L 587.337567 223.385291 
L 587.337567 219.927837 
L 587.666409 223.385778 
L 587.666409 220.536714 
L 587.995252 223.881497 
L 587.995252 220.995441 
L 588.324094 224.408602 
L 588.324094 221.045856 
L 588.653669 223.950697 
L 588.653669 220.892065 
L 588.98349 223.605404 
L 588.98349 220.59602 
L 589.312332 223.742864 
L 589.312332 220.74498 
L 589.641418 223.927024 
L 589.641418 221.371051 
L 589.970261 224.73166 
L 589.970261 221.695569 
L 590.299592 225.021371 
L 590.299592 221.854537 
L 590.628434 224.661874 
L 590.628434 221.67059 
L 590.957032 224.878739 
L 590.957032 222.437898 
L 591.285874 225.742989 
L 591.285874 222.879449 
L 591.614716 225.883296 
L 591.614716 222.632493 
L 591.949915 225.150268 
L 591.949915 222.633701 
L 592.280958 225.584301 
L 592.280958 223.217663 
L 592.610289 226.522456 
L 592.610289 224.090434 
L 592.94451 226.635639 
L 592.94451 224.413183 
L 593.273841 226.851479 
L 593.273841 224.620382 
L 593.604395 226.99349 
L 593.604395 224.925415 
L 593.93397 227.364933 
L 593.93397 225.288022 
L 594.26428 227.473313 
L 594.26428 225.622998 
L 594.595078 227.726927 
L 594.595078 225.659568 
L 594.925387 227.740697 
L 594.925387 226.020054 
L 595.255696 228.001679 
L 595.255696 226.230277 
L 595.586494 228.319617 
L 595.586494 226.601325 
L 595.917781 228.384589 
L 595.917781 226.585837 
L 596.249068 228.378565 
L 596.249068 226.7007 
L 596.580355 228.454953 
L 596.580355 227.011385 
L 596.916532 228.84146 
L 596.916532 227.219817 
L 597.248309 228.801077 
L 597.248309 227.374516 
L 597.579596 228.915937 
L 597.579596 227.599879 
L 597.909905 229.294447 
L 597.909905 227.800636 
L 598.241681 229.337537 
L 598.241681 228.01126 
L 598.573212 229.398779 
L 598.573212 228.02189 
L 598.905233 229.554191 
L 598.905233 228.074506 
L 599.237498 229.466694 
L 599.237498 228.288664 
L 599.56903 229.652608 
L 599.56903 228.260803 
L 599.913764 229.76975 
L 599.913764 228.482147 
L 600.246029 229.68347 
L 600.246029 228.649317 
L 600.578294 230.056321 
L 600.578294 228.921511 
L 600.911293 230.253214 
L 600.911293 229.204512 
L 601.243558 230.323304 
L 601.243558 229.222399 
L 601.576067 230.445802 
L 601.576067 229.236141 
L 601.918357 230.319308 
L 601.918357 229.281111 
L 602.252822 230.519408 
L 602.252822 229.440314 
L 602.58631 230.651366 
L 602.58631 229.631827 
L 602.919553 230.785322 
L 602.919553 229.632343 
L 603.252551 230.773209 
L 603.252551 229.515131 
L 603.584572 230.670628 
L 603.584572 229.453001 
L 603.918059 230.549886 
L 603.918059 229.521058 
L 604.250814 230.89404 
L 604.250814 229.800096 
L 604.58479 231.044988 
L 604.58479 230.083047 
L 604.920478 231.008537 
L 604.920478 230.08111 
L 605.254944 231.055174 
L 605.254944 230.108308 
L 605.588431 231.069638 
L 605.588431 230.153328 
L 605.923386 230.984876 
L 605.923386 229.994695 
L 606.257118 230.910174 
L 606.257118 230.08865 
L 606.593784 231.040191 
L 606.593784 230.402677 
L 606.935095 231.424899 
L 606.935095 230.553757 
L 607.271516 231.422282 
L 607.271516 230.518045 
L 607.608916 231.211059 
L 607.608916 230.408533 
L 607.944359 231.285476 
L 607.944359 230.449948 
L 608.279069 231.443564 
L 608.279069 230.535153 
L 608.612557 231.337983 
L 608.612557 230.526505 
L 608.948 231.361286 
L 608.948 230.59505 
L 609.284177 231.514358 
L 609.284177 230.823467 
L 609.621821 231.649071 
L 609.621821 230.999412 
L 609.96191 231.731347 
L 609.96191 230.939887 
L 610.298087 231.69578 
L 610.298087 230.944809 
L 610.63353 231.638139 
L 610.63353 230.966336 
L 610.967996 231.830336 
L 610.967996 231.076058 
L 611.304906 231.807459 
L 611.304906 231.065569 
L 611.644017 231.776334 
L 611.644017 231.136864 
L 611.985573 231.897938 
L 611.985573 231.223559 
L 612.320039 232.027232 
L 612.320039 231.307383 
L 612.655971 231.927992 
L 612.655971 231.261124 
L 612.99337 232.021754 
L 612.99337 231.305092 
L 613.329058 232.03236 
L 613.329058 231.378041 
L 613.666947 232.087463 
L 613.666947 231.317965 
L 614.007036 231.994709 
L 614.007036 231.346449 
L 614.345169 231.961494 
L 614.345169 231.322052 
L 614.684279 232.064532 
L 614.684279 231.550821 
L 615.022412 232.20285 
L 615.022412 231.585663 
L 615.360545 232.200137 
L 615.360545 231.552241 
L 615.700879 232.074737 
L 615.700879 231.509149 
L 616.037545 232.174707 
L 616.037545 231.662138 
L 616.375433 232.319988 
L 616.375433 231.797543 
L 616.715277 232.3833 
L 616.715277 231.841144 
L 617.059033 232.395409 
L 617.059033 231.855001 
L 617.396922 232.446656 
L 617.396922 231.878391 
L 617.738478 232.467638 
L 617.738478 231.929719 
L 618.080522 232.454203 
L 618.080522 231.865777 
L 618.418411 232.477996 
L 618.418411 231.911317 
L 618.754099 232.464388 
L 618.754099 231.970275 
L 619.090765 232.576074 
L 619.090765 232.07289 
L 619.429876 232.652155 
L 619.429876 232.090174 
L 619.770942 232.672455 
L 619.770942 232.128705 
L 620.108831 232.595761 
L 620.108831 232.065251 
L 620.446719 232.643919 
L 620.446719 232.151556 
L 620.789253 232.705659 
L 620.789253 232.238973 
L 621.12763 232.764513 
L 621.12763 232.358085 
L 621.464541 232.826669 
L 621.464541 232.385065 
L 621.805608 232.911507 
L 621.805608 232.466394 
L 622.149853 232.868342 
L 622.149853 232.489993 
L 622.485541 232.942705 
L 622.485541 232.565549 
L 622.819517 233.065975 
L 622.819517 232.701591 
L 623.153494 233.079478 
L 623.153494 232.71239 
L 623.486737 233.070212 
L 623.486737 232.687075 
L 623.820714 233.109711 
L 623.820714 232.786588 
L 624.153957 233.14834 
L 624.153957 232.787353 
L 624.486466 233.130434 
L 624.486466 232.777335 
L 624.81922 233.11609 
L 624.81922 232.752192 
L 625.151485 233.138456 
L 625.151485 232.811306 
L 625.485706 233.125573 
L 625.485706 232.761981 
L 625.819438 233.116199 
L 625.819438 232.787152 
L 626.152437 233.137131 
L 626.152437 232.763976 
L 626.489836 233.122727 
L 626.489836 232.830186 
L 626.824546 233.177928 
L 626.824546 232.813737 
L 627.165124 233.199962 
L 627.165124 232.836331 
L 627.498367 233.107027 
L 627.498367 232.68146 
L 627.832344 233.041689 
L 627.832344 232.72234 
L 628.169743 233.119269 
L 628.169743 232.794946 
L 628.507632 233.213079 
L 628.507632 232.892883 
L 628.844542 233.222029 
L 628.844542 232.882588 
L 629.181452 233.218631 
L 629.181452 232.932793 
L 629.518118 233.240388 
L 629.518118 232.917206 
L 629.853317 233.233578 
L 629.853317 232.885096 
L 630.191939 233.172328 
L 630.191939 232.887743 
L 630.530317 233.192146 
L 630.530317 232.851553 
L 630.87065 233.219919 
L 630.87065 232.903425 
L 631.208294 233.221341 
L 631.208294 232.970998 
L 631.551317 233.324755 
L 631.551317 233.02128 
L 631.893117 233.349236 
L 631.893117 233.01271 
L 632.238585 233.268052 
L 632.238585 232.999867 
L 632.579896 233.327889 
L 632.579896 233.018885 
L 632.920963 233.389059 
L 632.920963 233.146357 
L 633.25934 233.409512 
L 633.25934 233.115992 
L 633.595517 233.412669 
L 633.595517 233.101282 
L 633.929005 233.364073 
L 633.929005 233.11694 
L 634.261514 233.40679 
L 634.261514 233.192326 
L 634.594513 233.464534 
L 634.594513 233.259412 
L 634.931912 233.551381 
L 634.931912 233.258869 
L 635.263444 233.490521 
L 635.263444 233.257046 
L 635.59522 233.461482 
L 635.59522 233.160057 
L 635.928218 233.440539 
L 635.928218 233.209169 
L 636.259995 233.444362 
L 636.259995 233.240784 
L 636.594705 233.537504 
L 636.594705 233.25749 
L 636.930393 233.505987 
L 636.930393 233.274277 
L 637.26877 233.497732 
L 637.26877 233.269355 
L 637.60348 233.553002 
L 637.60348 233.301858 
L 637.939412 233.54895 
L 637.939412 233.281305 
L 638.275589 233.461561 
L 638.275589 233.256726 
L 638.610055 233.497048 
L 638.610055 233.280644 
L 638.947454 233.530235 
L 638.947454 233.316239 
L 639.282409 233.508934 
L 639.282409 233.226532 
L 639.621031 233.454405 
L 639.621031 233.210196 
L 639.960386 233.449252 
L 639.960386 233.226126 
L 640.300964 233.50808 
L 640.300964 233.257897 
L 640.642031 233.486061 
L 640.642031 233.276277 
L 640.983098 233.509239 
L 640.983098 233.297992 
L 641.324409 233.529792 
L 641.324409 233.316287 
L 641.665476 233.55314 
L 641.665476 233.292835 
L 642.006787 233.511215 
L 642.006787 233.29478 
L 642.353233 233.546224 
L 642.353233 233.293957 
L 642.699678 233.587099 
L 642.699678 233.342315 
L 643.04099 233.575022 
L 643.04099 233.305481 
L 643.383523 233.552134 
L 643.383523 233.314069 
L 643.724835 233.562611 
L 643.724835 233.361789 
L 644.066146 233.611652 
L 644.066146 233.389536 
L 644.408191 233.617717 
L 644.408191 233.379553 
L 644.749991 233.572473 
L 644.749991 233.33776 
L 645.091547 233.560536 
L 645.091547 233.317098 
L 645.432858 233.545046 
L 645.432858 233.292705 
L 645.774414 233.532763 
L 645.774414 233.286818 
L 646.11597 233.514662 
L 646.11597 233.316935 
L 646.457281 233.535892 
L 646.457281 233.389913 
L 646.797859 233.649555 
L 646.797859 233.471456 
L 647.13428 233.672034 
L 647.13428 233.53452 
L 647.475836 233.685213 
L 647.475836 233.470398 
L 647.814947 233.667579 
L 647.814947 233.458607 
L 648.154791 233.623379 
L 648.154791 233.409928 
L 648.495125 233.61126 
L 648.495125 233.377057 
L 648.838636 233.589783 
L 648.838636 233.393116 
L 649.179214 233.601765 
L 649.179214 233.434499 
L 649.517836 233.673948 
L 649.517836 233.419789 
L 649.859636 233.634191 
L 649.859636 233.477204 
L 650.200948 233.635288 
L 650.200948 233.453612 
L 650.542748 233.697526 
L 650.542748 233.513302 
L 650.884548 233.686988 
L 650.884548 233.502976 
L 651.226348 233.68037 
L 651.226348 233.457622 
L 651.568149 233.630868 
L 651.568149 233.44953 
L 651.909705 233.63197 
L 651.909705 233.428187 
L 652.252727 233.662061 
L 652.252727 233.487282 
L 652.599906 233.649839 
L 652.599906 233.469962 
L 652.941707 233.653498 
L 652.941707 233.499942 
L 653.283262 233.676661 
L 653.283262 233.532609 
L 653.625063 233.7381 
L 653.625063 233.548608 
L 653.972242 233.706581 
L 653.972242 233.493557 
L 654.313798 233.666389 
L 654.313798 233.4788 
L 654.655353 233.697161 
L 654.655353 233.50825 
L 654.996909 233.709054 
L 654.996909 233.524228 
L 655.338465 233.6944 
L 655.338465 233.50001 
L 655.680021 233.699578 
L 655.680021 233.554079 
L 656.022799 233.725217 
L 656.022799 233.590128 
L 656.364355 233.766371 
L 656.364355 233.586776 
L 656.706155 233.768686 
L 656.706155 233.621754 
L 657.047955 233.741217 
L 657.047955 233.563332 
L 657.389511 233.734881 
L 657.389511 233.549855 
L 657.73669 233.700142 
L 657.73669 233.528225 
L 658.078246 233.713924 
L 658.078246 233.546067 
L 658.419802 233.729128 
L 658.419802 233.536263 
L 658.761602 233.737291 
L 658.761602 233.54067 
L 659.108537 233.706447 
L 659.108537 233.538081 
L 659.450337 233.743198 
L 659.450337 233.550726 
L 659.792137 233.729867 
L 659.792137 233.562242 
L 660.133693 233.72715 
L 660.133693 233.555645 
L 660.475493 233.752808 
L 660.475493 233.630051 
L 660.817049 233.794626 
L 660.817049 233.646287 
L 661.158605 233.815108 
L 661.158605 233.65847 
L 661.50065 233.793757 
L 661.50065 233.6351 
L 661.842939 233.79321 
L 661.842939 233.654618 
L 662.184739 233.811224 
L 662.184739 233.645207 
L 662.52654 233.811771 
L 662.52654 233.634355 
L 662.873963 233.781002 
L 662.873963 233.60238 
L 663.215519 233.786083 
L 663.215519 233.640626 
L 663.557319 233.801775 
L 663.557319 233.618311 
L 663.89912 233.784204 
L 663.89912 233.598338 
L 664.246054 233.721994 
L 664.246054 233.549205 
L 664.587855 233.704591 
L 664.587855 233.567911 
L 664.929899 233.75756 
L 664.929899 233.626042 
L 665.271944 233.784406 
L 665.271944 233.61983 
L 665.613989 233.776841 
L 665.613989 233.613415 
L 665.956034 233.76273 
L 665.956034 233.633672 
L 666.298078 233.820704 
L 666.298078 233.682069 
L 666.640123 233.83363 
L 666.640123 233.687266 
L 666.982168 233.830514 
L 666.982168 233.631737 
L 667.324213 233.763258 
L 667.324213 233.562725 
L 667.666502 233.719342 
L 667.666502 233.56288 
L 668.013681 233.766941 
L 668.013681 233.592492 
L 668.355726 233.798655 
L 668.355726 233.613492 
L 668.698015 233.777756 
L 668.698015 233.604639 
L 669.04006 233.789039 
L 669.04006 233.617207 
L 669.382105 233.798806 
L 669.382105 233.649411 
L 669.724394 233.818894 
L 669.724394 233.635923 
L 670.066683 233.810401 
L 670.066683 233.646962 
L 670.408973 233.793956 
L 670.408973 233.634051 
L 670.751262 233.79268 
L 670.751262 233.621606 
L 671.093551 233.785809 
L 671.093551 233.63247 
L 671.43584 233.778987 
L 671.43584 233.641998 
L 671.77813 233.816358 
L 671.77813 233.679631 
L 672.120419 233.838174 
L 672.120419 233.707437 
L 672.462708 233.849767 
L 672.462708 233.672871 
L 672.805242 233.800434 
L 672.805242 233.589044 
L 673.15291 233.712094 
L 673.15291 233.572382 
L 673.495199 233.734369 
L 673.495199 233.580551 
L 673.837489 233.780603 
L 673.837489 233.653479 
L 674.179778 233.807985 
L 674.179778 233.668733 
L 674.522067 233.838336 
L 674.522067 233.693265 
L 674.864845 233.840894 
L 674.864845 233.682108 
L 675.207379 233.838603 
L 675.207379 233.692779 
L 675.891958 233.887429 
L 675.891958 233.710665 
L 676.234491 233.860862 
L 676.234491 233.725697 
L 676.577025 233.845731 
L 676.577025 233.692878 
L 676.919559 233.856296 
L 676.919559 233.677725 
L 677.604382 233.843587 
L 677.604382 233.697624 
L 677.946671 233.866557 
L 677.946671 233.75715 
L 678.294828 233.887415 
L 678.294828 233.728324 
L 678.637362 233.878867 
L 678.637362 233.733934 
L 678.98014 233.853499 
L 678.98014 233.68116 
L 679.322674 233.840046 
L 679.322674 233.699523 
L 679.665208 233.844576 
L 679.665208 233.699436 
L 680.007742 233.873494 
L 680.007742 233.735122 
L 680.350275 233.870859 
L 680.350275 233.736834 
L 680.692809 233.881075 
L 680.692809 233.733129 
L 681.384478 233.887864 
L 681.384478 233.733008 
L 681.727012 233.870326 
L 681.727012 233.75288 
L 682.06979 233.867137 
L 682.06979 233.735538 
L 682.412324 233.889909 
L 682.412324 233.777459 
L 682.754369 233.887479 
L 682.754369 233.756852 
L 683.097147 233.872396 
L 683.097147 233.742527 
L 683.445059 233.847905 
L 683.445059 233.698398 
L 683.787838 233.841255 
L 683.787838 233.700576 
L 684.130371 233.835489 
L 684.130371 233.678026 
L 684.47315 233.834713 
L 684.47315 233.685114 
L 684.815683 233.836824 
L 684.815683 233.682718 
L 685.158217 233.856882 
L 685.158217 233.735992 
L 685.500751 233.875058 
L 685.500751 233.738883 
L 685.843285 233.8814 
L 685.843285 233.748402 
L 686.185819 233.876479 
L 686.185819 233.72283 
L 686.871375 233.868301 
L 686.871375 233.72381 
L 687.21562 233.881217 
L 687.21562 233.767438 
L 687.558154 233.891887 
L 687.558154 233.76631 
L 687.900932 233.897227 
L 687.900932 233.767906 
L 688.243711 233.89603 
L 688.243711 233.748165 
L 688.591623 233.8693 
L 688.591623 233.742482 
L 688.934157 233.879146 
L 688.934157 233.720826 
L 689.276691 233.859589 
L 689.276691 233.739512 
L 689.962247 233.928878 
L 689.962247 233.802119 
L 690.304781 233.928335 
L 690.304781 233.771316 
L 690.647559 233.897433 
L 690.647559 233.75624 
L 690.990582 233.890962 
L 690.990582 233.739563 
L 691.333116 233.891691 
L 691.333116 233.750109 
L 691.681028 233.886799 
L 691.681028 233.76191 
L 692.023807 233.895562 
L 692.023807 233.755347 
L 692.366585 233.882678 
L 692.366585 233.745395 
L 693.065833 233.894675 
L 693.065833 233.796965 
L 693.409345 233.941125 
L 693.409345 233.82715 
L 693.757257 233.926881 
L 693.757257 233.80657 
L 694.100035 233.915588 
L 694.100035 233.795623 
L 694.442325 233.927423 
L 694.442325 233.805039 
L 694.785103 233.918859 
L 694.785103 233.779309 
L 695.47017 233.908395 
L 695.47017 233.781905 
L 695.812704 233.919993 
L 695.812704 233.770736 
L 696.498016 233.913018 
L 696.498016 233.770022 
L 696.84055 233.920552 
L 696.84055 233.809241 
L 697.183084 233.925506 
L 697.183084 233.802812 
L 697.525618 233.948254 
L 697.525618 233.824836 
L 697.868151 233.945562 
L 697.868151 233.823664 
L 698.210685 233.937026 
L 698.210685 233.800643 
L 698.553219 233.911566 
L 698.553219 233.770297 
L 698.90162 233.888094 
L 698.90162 233.74485 
L 699.244154 233.87573 
L 699.244154 233.735601 
L 699.930933 233.903259 
L 699.930933 233.783558 
L 700.273711 233.925226 
L 700.273711 233.801688 
L 700.61649 233.91415 
L 700.61649 233.783595 
L 701.302046 233.928602 
L 701.302046 233.788082 
L 701.64458 233.927812 
L 701.64458 233.816713 
L 702.334537 233.966662 
L 702.334537 233.84144 
L 702.676827 233.939562 
L 702.676827 233.818888 
L 703.019605 233.943539 
L 703.019605 233.831947 
L 703.704672 233.94867 
L 703.704672 233.837189 
L 704.395119 233.946671 
L 704.395119 233.812022 
L 705.079697 233.927664 
L 705.079697 233.817561 
L 705.422231 233.960015 
L 705.422231 233.860205 
L 705.76452 233.976786 
L 705.76452 233.847762 
L 706.107054 233.951764 
L 706.107054 233.804507 
L 706.791877 233.914682 
L 706.791877 233.809893 
L 707.133922 233.957021 
L 707.133922 233.835748 
L 707.4767 233.937051 
L 707.4767 233.806478 
L 707.818989 233.923826 
L 707.818989 233.790681 
L 708.503323 233.93169 
L 708.503323 233.765478 
L 708.845368 233.905011 
L 708.845368 233.793241 
L 709.193036 233.910257 
L 709.193036 233.76186 
L 709.535326 233.92069 
L 709.535326 233.781722 
L 709.87737 233.916381 
L 709.87737 233.776219 
L 710.562193 233.950429 
L 710.562193 233.81997 
L 710.904483 233.954184 
L 710.904483 233.829334 
L 711.246772 233.924111 
L 711.246772 233.791583 
L 711.93135 233.947876 
L 711.93135 233.843818 
L 712.27364 233.979953 
L 712.27364 233.867052 
L 712.957974 233.973002 
L 712.957974 233.85715 
L 713.300263 233.979174 
L 713.300263 233.862843 
L 713.642552 233.957047 
L 713.642552 233.825941 
L 714.331776 233.933282 
L 714.331776 233.840232 
L 714.674065 233.972436 
L 714.674065 233.864506 
L 715.01611 233.97333 
L 715.01611 233.86858 
L 715.700444 233.960719 
L 715.700444 233.868232 
L 716.384534 234.007131 
L 716.384534 233.890103 
L 717.07009 233.983415 
L 717.07009 233.827568 
L 717.418247 233.936468 
L 717.418247 233.825054 
L 718.102337 233.973163 
L 718.102337 233.846943 
L 718.444626 233.945626 
L 718.444626 233.809162 
L 718.786427 233.91 
L 718.786427 233.75527 
L 719.47565 233.930912 
L 719.47565 233.807373 
L 719.817451 233.966507 
L 719.817451 233.846412 
L 720.159496 233.955363 
L 720.159496 233.81557 
L 720.501296 233.946322 
L 720.501296 233.832399 
L 720.843341 233.957182 
L 720.843341 233.826448 
L 721.185385 233.954481 
L 721.185385 233.841801 
L 721.527186 233.944651 
L 721.527186 233.814375 
L 721.86923 233.952591 
L 721.86923 233.862118 
L 722.211275 233.966727 
L 722.211275 233.834057 
L 722.55821 233.962105 
L 722.55821 233.816886 
L 723.242055 233.949981 
L 723.242055 233.848544 
L 723.5841 233.972349 
L 723.5841 233.847258 
L 724.2677 233.96926 
L 724.2677 233.83685 
L 724.615857 233.960784 
L 724.615857 233.850248 
L 724.957658 233.946505 
L 724.957658 233.828838 
L 725.299702 233.960409 
L 725.299702 233.850372 
L 725.982814 233.946829 
L 725.982814 233.862561 
L 726.666415 233.979477 
L 726.666415 233.890413 
L 727.349771 233.9902 
L 727.349771 233.900142 
L 727.691082 233.999285 
L 727.691082 233.859888 
L 728.032638 233.959762 
L 728.032638 233.824956 
L 728.374682 233.922813 
L 728.374682 233.806827 
L 728.716238 233.949345 
L 728.716238 233.82697 
L 729.057794 233.959579 
L 729.057794 233.856275 
L 729.746284 233.970637 
L 729.746284 233.852728 
L 730.429641 233.962729 
L 730.429641 233.848932 
L 731.112508 233.977368 
L 731.112508 233.87408 
L 731.454063 233.999492 
L 731.454063 233.898234 
L 732.136931 233.99646 
L 732.136931 233.881333 
L 732.819553 233.970274 
L 732.819553 233.88192 
L 733.160864 234.004248 
L 733.160864 233.898583 
L 733.50242 234.005273 
L 733.50242 233.899813 
L 734.190422 233.972419 
L 734.190422 233.901065 
L 734.878668 234.014156 
L 734.878668 233.904679 
L 735.219979 233.97802 
L 735.219979 233.861948 
L 735.561779 233.960293 
L 735.561779 233.843756 
L 736.244891 233.986774 
L 736.244891 233.865999 
L 736.586202 234.002118 
L 736.586202 233.8876 
L 737.269314 233.985634 
L 737.269314 233.878329 
L 737.610869 234.001974 
L 737.610869 233.899861 
L 738.294226 234.011032 
L 738.294226 233.935836 
L 738.983205 234.029974 
L 738.983205 233.951748 
L 739.666806 234.023896 
L 739.666806 233.931853 
L 740.355785 234.023749 
L 740.355785 233.926472 
L 741.03963 234.024822 
L 741.03963 233.929137 
L 741.723231 234.014331 
L 741.723231 233.896908 
L 742.406831 233.998352 
L 742.406831 233.875694 
L 743.090921 234.020167 
L 743.090921 233.87811 
L 743.432721 233.995814 
L 743.432721 233.884624 
L 744.116566 233.997612 
L 744.116566 233.911819 
L 744.805301 234.029049 
L 744.805301 233.939277 
L 745.49428 234.011393 
L 745.49428 233.903208 
L 746.177881 233.968867 
L 746.177881 233.862992 
L 746.861726 233.976464 
L 746.861726 233.870006 
L 747.545327 233.995307 
L 747.545327 233.895833 
L 747.887127 234.012832 
L 747.887127 233.901099 
L 748.570972 234.005898 
L 748.570972 233.878375 
L 748.913995 233.991157 
L 748.913995 233.900391 
L 749.255795 233.983837 
L 749.255795 233.839417 
L 749.59784 233.954457 
L 749.59784 233.85748 
L 750.628864 234.023408 
L 750.628864 233.939493 
L 751.31222 234.040483 
L 751.31222 233.933069 
L 751.65402 234.024388 
L 751.65402 233.901993 
L 752.337621 234.014462 
L 752.337621 233.919696 
L 752.679666 234.040137 
L 752.679666 233.949672 
L 753.363266 234.014625 
L 753.363266 233.930602 
L 754.046867 234.014457 
L 754.046867 233.927122 
L 754.730467 234.016808 
L 754.730467 233.921582 
L 755.419447 233.98888 
L 755.419447 233.900411 
L 756.102803 234.009557 
L 756.102803 233.927361 
L 756.804496 234.011748 
L 756.804496 233.926835 
L 757.489074 233.990117 
L 757.489074 233.910437 
L 758.17243 234.002756 
L 758.17243 233.893825 
L 758.855786 234.007517 
L 758.855786 233.920376 
L 759.197587 234.043152 
L 759.197587 233.932429 
L 759.886811 234.01936 
L 759.886811 233.927429 
L 760.228366 234.027969 
L 760.228366 233.91755 
L 760.917835 234.012844 
L 760.917835 233.902078 
L 761.600946 234.014841 
L 761.600946 233.937998 
L 762.283814 234.07035 
L 762.283814 233.971548 
L 762.966681 234.012728 
L 762.966681 233.912275 
L 763.991592 234.07177 
L 763.991592 233.986248 
L 764.676171 234.015407 
L 764.676171 233.922305 
L 765.359527 234.044714 
L 765.359527 233.959475 
L 766.052907 234.026091 
L 766.052907 233.919852 
L 766.735774 234.014991 
L 766.735774 233.938581 
L 767.418397 234.062416 
L 767.418397 233.974405 
L 768.100775 234.031324 
L 768.100775 233.92955 
L 768.784376 234.019994 
L 768.784376 233.923 
L 769.467243 234.038935 
L 769.467243 233.959042 
L 770.15011 234.066739 
L 770.15011 234.010113 
L 770.838111 234.080385 
L 770.838111 233.980718 
L 771.520978 234.055681 
L 771.520978 233.975965 
L 772.20898 234.060408 
L 772.20898 233.984205 
L 772.891358 234.043838 
L 772.891358 233.964919 
L 773.573981 234.076184 
L 773.573981 234.014107 
L 774.256848 234.09377 
L 774.256848 234.011434 
L 774.939715 234.059534 
L 774.939715 233.973982 
L 775.622582 234.059123 
L 775.622582 233.940559 
L 776.31205 234.018747 
L 776.31205 233.920173 
L 777.000541 234.054078 
L 777.000541 233.965566 
L 777.682919 234.031974 
L 777.682919 233.933194 
L 778.365786 234.025572 
L 778.365786 233.960615 
L 779.048408 234.096408 
L 779.048408 234.007426 
L 779.732498 234.037058 
L 779.732498 233.933479 
L 780.415365 234.032005 
L 780.415365 233.952904 
L 781.103367 234.053731 
L 781.103367 233.952826 
L 781.785745 234.042923 
L 781.785745 233.979493 
L 782.132435 234.081636 
L 782.132435 233.989153 
L 782.814813 234.047647 
L 782.814813 233.961194 
L 783.498902 234.041997 
L 783.498902 233.988656 
L 784.181281 234.069235 
L 784.181281 233.993447 
L 784.863659 234.067132 
L 784.863659 233.981371 
L 785.545548 234.035133 
L 785.545548 233.976265 
L 786.233549 234.107658 
L 786.233549 234.017164 
L 786.915683 234.073235 
L 786.915683 234.004418 
L 787.597816 234.072397 
L 787.597816 233.977196 
L 788.279217 234.040666 
L 788.279217 233.973538 
L 788.957683 234.087003 
L 788.957683 234.009144 
L 789.634682 234.078391 
L 789.634682 233.992755 
L 790.305814 234.054578 
L 790.305814 233.999424 
L 790.975967 234.072491 
L 790.975967 233.978448 
L 791.647099 234.057998 
L 791.647099 233.980511 
L 792.31114 234.100749 
L 792.31114 234.008474 
L 792.980804 234.081334 
L 792.980804 234.015762 
L 793.973688 234.020762 
L 793.973688 234.026437 
L 794.304486 234.11968 
L 794.304486 234.023553 
L 794.96486 234.061133 
L 794.96486 233.9972 
L 795.6245 234.080208 
L 795.6245 234.004041 
L 796.28903 234.079507 
L 796.28903 234.000727 
L 797.278002 234.075592 
L 797.278002 234.006844 
L 797.936664 234.089632 
L 797.936664 234.026753 
L 798.595571 234.12128 
L 798.595571 234.038012 
L 799.254478 234.116629 
L 799.254478 234.030381 
L 799.584053 234.115903 
L 799.584053 234.007491 
L 800.244427 234.075435 
L 800.244427 234.004512 
L 800.902845 234.112332 
L 800.902845 234.044122 
L 801.902574 234.149216 
L 802.561236 234.072454 
L 802.561236 233.975077 
L 803.880028 234.087957 
L 803.880028 233.99361 
L 804.871933 234.09979 
L 804.871933 234.026788 
L 805.533285 234.065274 
L 805.533285 233.980617 
L 806.199771 234.140868 
L 813.500557 234.141682 
L 813.500557 234.171226 
L 814.542094 234.345075 
L 816.304151 234.345222 
L 816.304151 234.345222 
" clip-path="url(#p6517bbc58c)" style="fill: none; stroke: #008000; stroke-width: 1.5; stroke-linecap: square"/>
   </g>
   <g id="patch_3">
    <path d="M 47.72 534.04 
L 47.72 26.88 
" style="fill: none; stroke: #000000; stroke-width: 0.8; stroke-linejoin: miter; stroke-linecap: square"/>
   </g>
   <g id="patch_4">
    <path d="M 853.2 534.04 
L 853.2 26.88 
" style="fill: none; stroke: #000000; stroke-width: 0.8; stroke-linejoin: miter; stroke-linecap: square"/>
   </g>
   <g id="patch_5">
    <path d="M 47.72 534.04 
L 853.2 534.04 
" style="fill: none; stroke: #000000; stroke-width: 0.8; stroke-linejoin: miter; stroke-linecap: square"/>
   </g>
   <g id="patch_6">
    <path d="M 47.72 26.88 
L 853.2 26.88 
" style="fill: none; stroke: #000000; stroke-width: 0.8; stroke-linejoin: miter; stroke-linecap: square"/>
   </g>
   <g id="patch_7">
    <path d="M 631.648771 326.344348 
Q 605.497477 332.178211 579.346183 338.012073 
L 580.2171 341.91611 
Q 573.70932 340.294132 567.20154 338.672154 
Q 572.402944 334.438077 577.604348 330.204 
L 578.475266 334.108036 
Q 604.62656 328.274174 630.777853 322.440312 
L 631.648771 326.344348 
z
" style="stroke: #000000; stroke-linecap: round"/>
   </g>
   <g id="text_15">
    <!-- Peak: RT=3.28, Area=3.17e+04 -->
    <g style="fill: #ff0000" transform="translate(636.885406 309.849492) scale(0.1 -0.1)">
     <defs>
      <path id="DejaVuSans-50" d="M 1259 4147 
L 1259 2394 
L 2053 2394 
Q 2494 2394 2734 2622 
Q 2975 2850 2975 3272 
Q 2975 3691 2734 3919 
Q 2494 4147 2053 4147 
L 1259 4147 
z
M 628 4666 
L 2053 4666 
Q 2838 4666 3239 4311 
Q 3641 3956 3641 3272 
Q 3641 2581 3239 2228 
Q 2838 1875 2053 1875 
L 1259 1875 
L 1259 0 
L 628 0 
L 628 4666 
z
" transform="scale(0.015625)"/>
      <path id="DejaVuSans-6b" d="M 581 4863 
L 1159 4863 
L 1159 1991 
L 2875 3500 
L 3609 3500 
L 1753 1863 
L 3688 0 
L 2938 0 
L 1159 1709 
L 1159 0 
L 581 0 
L 581 4863 
z
" transform="scale(0.015625)"/>
      <path id="DejaVuSans-3a" d="M 750 794 
L 1409 794 
L 1409 0 
L 750 0 
L 750 794 
z
M 750 3309 
L 1409 3309 
L 1409 2516 
L 750 2516 
L 750 3309 
z
" transform="scale(0.015625)"/>
      <path id="DejaVuSans-3d" d="M 678 2906 
L 4684 2906 
L 4684 2381 
L 678 2381 
L 678 2906 
z
M 678 1631 
L 4684 1631 
L 4684 1100 
L 678 1100 
L 678 1631 
z
" transform="scale(0.015625)"/>
      <path id="DejaVuSans-38" d="M 2034 2216 
Q 1584 2216 1326 1975 
Q 1069 1734 1069 1313 
Q 1069 891 1326 650 
Q 1584 409 2034 409 
Q 2484 409 2743 651 
Q 3003 894 3003 1313 
Q 3003 1734 2745 1975 
Q 2488 2216 2034 2216 
z
M 1403 2484 
Q 997 2584 770 2862 
Q 544 3141 544 3541 
Q 544 4100 942 4425 
Q 1341 4750 2034 4750 
Q 2731 4750 3128 4425 
Q 3525 4100 3525 3541 
Q 3525 3141 3298 2862 
Q 3072 2584 2669 2484 
Q 3125 2378 3379 2068 
Q 3634 1759 3634 1313 
Q 3634 634 3220 271 
Q 2806 -91 2034 -91 
Q 1263 -91 848 271 
Q 434 634 434 1313 
Q 434 1759 690 2068 
Q 947 2378 1403 2484 
z
M 1172 3481 
Q 1172 3119 1398 2916 
Q 1625 2713 2034 2713 
Q 2441 2713 2670 2916 
Q 2900 3119 2900 3481 
Q 2900 3844 2670 4047 
Q 2441 4250 2034 4250 
Q 1625 4250 1398 4047 
Q 1172 3844 1172 3481 
z
" transform="scale(0.015625)"/>
      <path id="DejaVuSans-2c" d="M 750 794 
L 1409 794 
L 1409 256 
L 897 -744 
L 494 -744 
L 750 256 
L 750 794 
z
" transform="scale(0.015625)"/>
      <path id="DejaVuSans-41" d="M 2188 4044 
L 1331 1722 
L 3047 1722 
L 2188 4044 
z
M 1831 4666 
L 2547 4666 
L 4325 0 
L 3669 0 
L 3244 1197 
L 1141 1197 
L 716 0 
L 50 0 
L 1831 4666 
z
" transform="scale(0.015625)"/>
      <path id="DejaVuSans-37" d="M 525 4666 
L 3525 4666 
L 3525 4397 
L 1831 0 
L 1172 0 
L 2766 4134 
L 525 4134 
L 525 4666 
z
" transform="scale(0.015625)"/>
      <path id="DejaVuSans-2b" d="M 2944 4013 
L 2944 2272 
L 4684 2272 
L 4684 1741 
L 2944 1741 
L 2944 0 
L 2419 0 
L 2419 1741 
L 678 1741 
L 678 2272 
L 2419 2272 
L 2419 4013 
L 2944 4013 
z
" transform="scale(0.015625)"/>
     </defs>
     <use xlink:href="#DejaVuSans-50"/>
     <use xlink:href="#DejaVuSans-65" transform="translate(56.677734 0)"/>
     <use xlink:href="#DejaVuSans-61" transform="translate(118.201172 0)"/>
     <use xlink:href="#DejaVuSans-6b" transform="translate(179.480469 0)"/>
     <use xlink:href="#DejaVuSans-3a" transform="translate(237.390625 0)"/>
     <use xlink:href="#DejaVuSans-20" transform="translate(271.082031 0)"/>
     <use xlink:href="#DejaVuSans-52" transform="translate(302.869141 0)"/>
     <use xlink:href="#DejaVuSans-54" transform="translate(365.101562 0)"/>
     <use xlink:href="#DejaVuSans-3d" transform="translate(426.185547 0)"/>
     <use xlink:href="#DejaVuSans-33" transform="translate(509.974609 0)"/>
     <use xlink:href="#DejaVuSans-2e" transform="translate(573.597656 0)"/>
     <use xlink:href="#DejaVuSans-32" transform="translate(605.384766 0)"/>
     <use xlink:href="#DejaVuSans-38" transform="translate(669.007812 0)"/>
     <use xlink:href="#DejaVuSans-2c" transform="translate(732.630859 0)"/>
     <use xlink:href="#DejaVuSans-20" transform="translate(764.417969 0)"/>
     <use xlink:href="#DejaVuSans-41" transform="translate(796.205078 0)"/>
     <use xlink:href="#DejaVuSans-72" transform="translate(864.613281 0)"/>
     <use xlink:href="#DejaVuSans-65" transform="translate(903.476562 0)"/>
     <use xlink:href="#DejaVuSans-61" transform="translate(965 0)"/>
     <use xlink:href="#DejaVuSans-3d" transform="translate(1026.279297 0)"/>
     <use xlink:href="#DejaVuSans-33" transform="translate(1110.068359 0)"/>
     <use xlink:href="#DejaVuSans-2e" transform="translate(1173.691406 0)"/>
     <use xlink:href="#DejaVuSans-31" transform="translate(1205.478516 0)"/>
     <use xlink:href="#DejaVuSans-37" transform="translate(1269.101562 0)"/>
     <use xlink:href="#DejaVuSans-65" transform="translate(1332.724609 0)"/>
     <use xlink:href="#DejaVuSans-2b" transform="translate(1394.248047 0)"/>
     <use xlink:href="#DejaVuSans-30" transform="translate(1478.037109 0)"/>
     <use xlink:href="#DejaVuSans-34" transform="translate(1541.660156 0)"/>
    </g>
    <!-- (42.15% of total) -->
    <g style="fill: #ff0000" transform="translate(636.885406 321.047305) scale(0.1 -0.1)">
     <defs>
      <path id="DejaVuSans-25" d="M 4653 2053 
Q 4381 2053 4226 1822 
Q 4072 1591 4072 1178 
Q 4072 772 4226 539 
Q 4381 306 4653 306 
Q 4919 306 5073 539 
Q 5228 772 5228 1178 
Q 5228 1588 5073 1820 
Q 4919 2053 4653 2053 
z
M 4653 2450 
Q 5147 2450 5437 2106 
Q 5728 1763 5728 1178 
Q 5728 594 5436 251 
Q 5144 -91 4653 -91 
Q 4153 -91 3862 251 
Q 3572 594 3572 1178 
Q 3572 1766 3864 2108 
Q 4156 2450 4653 2450 
z
M 1428 4353 
Q 1159 4353 1004 4120 
Q 850 3888 850 3481 
Q 850 3069 1003 2837 
Q 1156 2606 1428 2606 
Q 1700 2606 1854 2837 
Q 2009 3069 2009 3481 
Q 2009 3884 1853 4118 
Q 1697 4353 1428 4353 
z
M 4250 4750 
L 4750 4750 
L 1831 -91 
L 1331 -91 
L 4250 4750 
z
M 1428 4750 
Q 1922 4750 2215 4408 
Q 2509 4066 2509 3481 
Q 2509 2891 2217 2550 
Q 1925 2209 1428 2209 
Q 931 2209 642 2551 
Q 353 2894 353 3481 
Q 353 4063 643 4406 
Q 934 4750 1428 4750 
z
" transform="scale(0.015625)"/>
      <path id="DejaVuSans-66" d="M 2375 4863 
L 2375 4384 
L 1825 4384 
Q 1516 4384 1395 4259 
Q 1275 4134 1275 3809 
L 1275 3500 
L 2222 3500 
L 2222 3053 
L 1275 3053 
L 1275 0 
L 697 0 
L 697 3053 
L 147 3053 
L 147 3500 
L 697 3500 
L 697 3744 
Q 697 4328 969 4595 
Q 1241 4863 1831 4863 
L 2375 4863 
z
" transform="scale(0.015625)"/>
     </defs>
     <use xlink:href="#DejaVuSans-28"/>
     <use xlink:href="#DejaVuSans-34" transform="translate(39.013672 0)"/>
     <use xlink:href="#DejaVuSans-32" transform="translate(102.636719 0)"/>
     <use xlink:href="#DejaVuSans-2e" transform="translate(166.259766 0)"/>
     <use xlink:href="#DejaVuSans-31" transform="translate(198.046875 0)"/>
     <use xlink:href="#DejaVuSans-35" transform="translate(261.669922 0)"/>
     <use xlink:href="#DejaVuSans-25" transform="translate(325.292969 0)"/>
     <use xlink:href="#DejaVuSans-20" transform="translate(420.3125 0)"/>
     <use xlink:href="#DejaVuSans-6f" transform="translate(452.099609 0)"/>
     <use xlink:href="#DejaVuSans-66" transform="translate(513.28125 0)"/>
     <use xlink:href="#DejaVuSans-20" transform="translate(548.486328 0)"/>
     <use xlink:href="#DejaVuSans-74" transform="translate(580.273438 0)"/>
     <use xlink:href="#DejaVuSans-6f" transform="translate(619.482422 0)"/>
     <use xlink:href="#DejaVuSans-74" transform="translate(680.664062 0)"/>
     <use xlink:href="#DejaVuSans-61" transform="translate(719.873047 0)"/>
     <use xlink:href="#DejaVuSans-6c" transform="translate(781.152344 0)"/>
     <use xlink:href="#DejaVuSans-29" transform="translate(808.935547 0)"/>
    </g>
   </g>
   <g id="text_16">
    <!-- UV &amp; MS Chromatograms: IrCp2J21, target m/z=719.2346784 -->
    <g transform="translate(264.641875 20.88) scale(0.12 -0.12)">
     <defs>
      <path id="DejaVuSans-55" d="M 556 4666 
L 1191 4666 
L 1191 1831 
Q 1191 1081 1462 751 
Q 1734 422 2344 422 
Q 2950 422 3222 751 
Q 3494 1081 3494 1831 
L 3494 4666 
L 4128 4666 
L 4128 1753 
Q 4128 841 3676 375 
Q 3225 -91 2344 -91 
Q 1459 -91 1007 375 
Q 556 841 556 1753 
L 556 4666 
z
" transform="scale(0.015625)"/>
      <path id="DejaVuSans-56" d="M 1831 0 
L 50 4666 
L 709 4666 
L 2188 738 
L 3669 4666 
L 4325 4666 
L 2547 0 
L 1831 0 
z
" transform="scale(0.015625)"/>
      <path id="DejaVuSans-26" d="M 1556 2509 
Q 1272 2256 1139 2004 
Q 1006 1753 1006 1478 
Q 1006 1022 1337 719 
Q 1669 416 2169 416 
Q 2466 416 2725 514 
Q 2984 613 3213 813 
L 1556 2509 
z
M 1997 2859 
L 3584 1234 
Q 3769 1513 3872 1830 
Q 3975 2147 3994 2503 
L 4575 2503 
Q 4538 2091 4375 1687 
Q 4213 1284 3922 891 
L 4794 0 
L 4006 0 
L 3559 459 
Q 3234 181 2878 45 
Q 2522 -91 2113 -91 
Q 1359 -91 881 339 
Q 403 769 403 1441 
Q 403 1841 612 2192 
Q 822 2544 1241 2853 
Q 1091 3050 1012 3245 
Q 934 3441 934 3628 
Q 934 4134 1281 4442 
Q 1628 4750 2203 4750 
Q 2463 4750 2720 4694 
Q 2978 4638 3244 4525 
L 3244 3956 
Q 2972 4103 2725 4179 
Q 2478 4256 2266 4256 
Q 1938 4256 1733 4082 
Q 1528 3909 1528 3634 
Q 1528 3475 1620 3314 
Q 1713 3153 1997 2859 
z
" transform="scale(0.015625)"/>
      <path id="DejaVuSans-4d" d="M 628 4666 
L 1569 4666 
L 2759 1491 
L 3956 4666 
L 4897 4666 
L 4897 0 
L 4281 0 
L 4281 4097 
L 3078 897 
L 2444 897 
L 1241 4097 
L 1241 0 
L 628 0 
L 628 4666 
z
" transform="scale(0.015625)"/>
      <path id="DejaVuSans-53" d="M 3425 4513 
L 3425 3897 
Q 3066 4069 2747 4153 
Q 2428 4238 2131 4238 
Q 1616 4238 1336 4038 
Q 1056 3838 1056 3469 
Q 1056 3159 1242 3001 
Q 1428 2844 1947 2747 
L 2328 2669 
Q 3034 2534 3370 2195 
Q 3706 1856 3706 1288 
Q 3706 609 3251 259 
Q 2797 -91 1919 -91 
Q 1588 -91 1214 -16 
Q 841 59 441 206 
L 441 856 
Q 825 641 1194 531 
Q 1563 422 1919 422 
Q 2459 422 2753 634 
Q 3047 847 3047 1241 
Q 3047 1584 2836 1778 
Q 2625 1972 2144 2069 
L 1759 2144 
Q 1053 2284 737 2584 
Q 422 2884 422 3419 
Q 422 4038 858 4394 
Q 1294 4750 2059 4750 
Q 2388 4750 2728 4690 
Q 3069 4631 3425 4513 
z
" transform="scale(0.015625)"/>
      <path id="DejaVuSans-43" d="M 4122 4306 
L 4122 3641 
Q 3803 3938 3442 4084 
Q 3081 4231 2675 4231 
Q 1875 4231 1450 3742 
Q 1025 3253 1025 2328 
Q 1025 1406 1450 917 
Q 1875 428 2675 428 
Q 3081 428 3442 575 
Q 3803 722 4122 1019 
L 4122 359 
Q 3791 134 3420 21 
Q 3050 -91 2638 -91 
Q 1578 -91 968 557 
Q 359 1206 359 2328 
Q 359 3453 968 4101 
Q 1578 4750 2638 4750 
Q 3056 4750 3426 4639 
Q 3797 4528 4122 4306 
z
" transform="scale(0.015625)"/>
      <path id="DejaVuSans-68" d="M 3513 2113 
L 3513 0 
L 2938 0 
L 2938 2094 
Q 2938 2591 2744 2837 
Q 2550 3084 2163 3084 
Q 1697 3084 1428 2787 
Q 1159 2491 1159 1978 
L 1159 0 
L 581 0 
L 581 4863 
L 1159 4863 
L 1159 2956 
Q 1366 3272 1645 3428 
Q 1925 3584 2291 3584 
Q 2894 3584 3203 3211 
Q 3513 2838 3513 2113 
z
" transform="scale(0.015625)"/>
      <path id="DejaVuSans-67" d="M 2906 1791 
Q 2906 2416 2648 2759 
Q 2391 3103 1925 3103 
Q 1463 3103 1205 2759 
Q 947 2416 947 1791 
Q 947 1169 1205 825 
Q 1463 481 1925 481 
Q 2391 481 2648 825 
Q 2906 1169 2906 1791 
z
M 3481 434 
Q 3481 -459 3084 -895 
Q 2688 -1331 1869 -1331 
Q 1566 -1331 1297 -1286 
Q 1028 -1241 775 -1147 
L 775 -588 
Q 1028 -725 1275 -790 
Q 1522 -856 1778 -856 
Q 2344 -856 2625 -561 
Q 2906 -266 2906 331 
L 2906 616 
Q 2728 306 2450 153 
Q 2172 0 1784 0 
Q 1141 0 747 490 
Q 353 981 353 1791 
Q 353 2603 747 3093 
Q 1141 3584 1784 3584 
Q 2172 3584 2450 3431 
Q 2728 3278 2906 2969 
L 2906 3500 
L 3481 3500 
L 3481 434 
z
" transform="scale(0.015625)"/>
      <path id="DejaVuSans-70" d="M 1159 525 
L 1159 -1331 
L 581 -1331 
L 581 3500 
L 1159 3500 
L 1159 2969 
Q 1341 3281 1617 3432 
Q 1894 3584 2278 3584 
Q 2916 3584 3314 3078 
Q 3713 2572 3713 1747 
Q 3713 922 3314 415 
Q 2916 -91 2278 -91 
Q 1894 -91 1617 61 
Q 1341 213 1159 525 
z
M 3116 1747 
Q 3116 2381 2855 2742 
Q 2594 3103 2138 3103 
Q 1681 3103 1420 2742 
Q 1159 2381 1159 1747 
Q 1159 1113 1420 752 
Q 1681 391 2138 391 
Q 2594 391 2855 752 
Q 3116 1113 3116 1747 
z
" transform="scale(0.015625)"/>
      <path id="DejaVuSans-4a" d="M 628 4666 
L 1259 4666 
L 1259 325 
Q 1259 -519 939 -900 
Q 619 -1281 -91 -1281 
L -331 -1281 
L -331 -750 
L -134 -750 
Q 284 -750 456 -515 
Q 628 -281 628 325 
L 628 4666 
z
" transform="scale(0.015625)"/>
      <path id="DejaVuSans-2f" d="M 1625 4666 
L 2156 4666 
L 531 -594 
L 0 -594 
L 1625 4666 
z
" transform="scale(0.015625)"/>
      <path id="DejaVuSans-39" d="M 703 97 
L 703 672 
Q 941 559 1184 500 
Q 1428 441 1663 441 
Q 2288 441 2617 861 
Q 2947 1281 2994 2138 
Q 2813 1869 2534 1725 
Q 2256 1581 1919 1581 
Q 1219 1581 811 2004 
Q 403 2428 403 3163 
Q 403 3881 828 4315 
Q 1253 4750 1959 4750 
Q 2769 4750 3195 4129 
Q 3622 3509 3622 2328 
Q 3622 1225 3098 567 
Q 2575 -91 1691 -91 
Q 1453 -91 1209 -44 
Q 966 3 703 97 
z
M 1959 2075 
Q 2384 2075 2632 2365 
Q 2881 2656 2881 3163 
Q 2881 3666 2632 3958 
Q 2384 4250 1959 4250 
Q 1534 4250 1286 3958 
Q 1038 3666 1038 3163 
Q 1038 2656 1286 2365 
Q 1534 2075 1959 2075 
z
" transform="scale(0.015625)"/>
      <path id="DejaVuSans-36" d="M 2113 2584 
Q 1688 2584 1439 2293 
Q 1191 2003 1191 1497 
Q 1191 994 1439 701 
Q 1688 409 2113 409 
Q 2538 409 2786 701 
Q 3034 994 3034 1497 
Q 3034 2003 2786 2293 
Q 2538 2584 2113 2584 
z
M 3366 4563 
L 3366 3988 
Q 3128 4100 2886 4159 
Q 2644 4219 2406 4219 
Q 1781 4219 1451 3797 
Q 1122 3375 1075 2522 
Q 1259 2794 1537 2939 
Q 1816 3084 2150 3084 
Q 2853 3084 3261 2657 
Q 3669 2231 3669 1497 
Q 3669 778 3244 343 
Q 2819 -91 2113 -91 
Q 1303 -91 875 529 
Q 447 1150 447 2328 
Q 447 3434 972 4092 
Q 1497 4750 2381 4750 
Q 2619 4750 2861 4703 
Q 3103 4656 3366 4563 
z
" transform="scale(0.015625)"/>
     </defs>
     <use xlink:href="#DejaVuSans-55"/>
     <use xlink:href="#DejaVuSans-56" transform="translate(73.193359 0)"/>
     <use xlink:href="#DejaVuSans-20" transform="translate(141.601562 0)"/>
     <use xlink:href="#DejaVuSans-26" transform="translate(173.388672 0)"/>
     <use xlink:href="#DejaVuSans-20" transform="translate(251.367188 0)"/>
     <use xlink:href="#DejaVuSans-4d" transform="translate(283.154297 0)"/>
     <use xlink:href="#DejaVuSans-53" transform="translate(369.433594 0)"/>
     <use xlink:href="#DejaVuSans-20" transform="translate(432.910156 0)"/>
     <use xlink:href="#DejaVuSans-43" transform="translate(464.697266 0)"/>
     <use xlink:href="#DejaVuSans-68" transform="translate(534.521484 0)"/>
     <use xlink:href="#DejaVuSans-72" transform="translate(597.900391 0)"/>
     <use xlink:href="#DejaVuSans-6f" transform="translate(636.763672 0)"/>
     <use xlink:href="#DejaVuSans-6d" transform="translate(697.945312 0)"/>
     <use xlink:href="#DejaVuSans-61" transform="translate(795.357422 0)"/>
     <use xlink:href="#DejaVuSans-74" transform="translate(856.636719 0)"/>
     <use xlink:href="#DejaVuSans-6f" transform="translate(895.845703 0)"/>
     <use xlink:href="#DejaVuSans-67" transform="translate(957.027344 0)"/>
     <use xlink:href="#DejaVuSans-72" transform="translate(1020.503906 0)"/>
     <use xlink:href="#DejaVuSans-61" transform="translate(1061.617188 0)"/>
     <use xlink:href="#DejaVuSans-6d" transform="translate(1122.896484 0)"/>
     <use xlink:href="#DejaVuSans-73" transform="translate(1220.308594 0)"/>
     <use xlink:href="#DejaVuSans-3a" transform="translate(1272.408203 0)"/>
     <use xlink:href="#DejaVuSans-20" transform="translate(1306.099609 0)"/>
     <use xlink:href="#DejaVuSans-49" transform="translate(1337.886719 0)"/>
     <use xlink:href="#DejaVuSans-72" transform="translate(1367.378906 0)"/>
     <use xlink:href="#DejaVuSans-43" transform="translate(1408.492188 0)"/>
     <use xlink:href="#DejaVuSans-70" transform="translate(1478.316406 0)"/>
     <use xlink:href="#DejaVuSans-32" transform="translate(1541.792969 0)"/>
     <use xlink:href="#DejaVuSans-4a" transform="translate(1605.416016 0)"/>
     <use xlink:href="#DejaVuSans-32" transform="translate(1634.908203 0)"/>
     <use xlink:href="#DejaVuSans-31" transform="translate(1698.53125 0)"/>
     <use xlink:href="#DejaVuSans-2c" transform="translate(1762.154297 0)"/>
     <use xlink:href="#DejaVuSans-20" transform="translate(1793.941406 0)"/>
     <use xlink:href="#DejaVuSans-74" transform="translate(1825.728516 0)"/>
     <use xlink:href="#DejaVuSans-61" transform="translate(1864.9375 0)"/>
     <use xlink:href="#DejaVuSans-72" transform="translate(1926.216797 0)"/>
     <use xlink:href="#DejaVuSans-67" transform="translate(1965.580078 0)"/>
     <use xlink:href="#DejaVuSans-65" transform="translate(2029.056641 0)"/>
     <use xlink:href="#DejaVuSans-74" transform="translate(2090.580078 0)"/>
     <use xlink:href="#DejaVuSans-20" transform="translate(2129.789062 0)"/>
     <use xlink:href="#DejaVuSans-6d" transform="translate(2161.576172 0)"/>
     <use xlink:href="#DejaVuSans-2f" transform="translate(2258.988281 0)"/>
     <use xlink:href="#DejaVuSans-7a" transform="translate(2292.679688 0)"/>
     <use xlink:href="#DejaVuSans-3d" transform="translate(2345.169922 0)"/>
     <use xlink:href="#DejaVuSans-37" transform="translate(2428.958984 0)"/>
     <use xlink:href="#DejaVuSans-31" transform="translate(2492.582031 0)"/>
     <use xlink:href="#DejaVuSans-39" transform="translate(2556.205078 0)"/>
     <use xlink:href="#DejaVuSans-2e" transform="translate(2619.828125 0)"/>
     <use xlink:href="#DejaVuSans-32" transform="translate(2651.615234 0)"/>
     <use xlink:href="#DejaVuSans-33" transform="translate(2715.238281 0)"/>
     <use xlink:href="#DejaVuSans-34" transform="translate(2778.861328 0)"/>
     <use xlink:href="#DejaVuSans-36" transform="translate(2842.484375 0)"/>
     <use xlink:href="#DejaVuSans-37" transform="translate(2906.107422 0)"/>
     <use xlink:href="#DejaVuSans-38" transform="translate(2969.730469 0)"/>
     <use xlink:href="#DejaVuSans-34" transform="translate(3033.353516 0)"/>
    </g>
   </g>
   <g id="legend_1">
    <g id="patch_8">
     <path d="M 685.971875 64.23625 
L 846.2 64.23625 
Q 848.2 64.23625 848.2 62.23625 
L 848.2 33.88 
Q 848.2 31.88 846.2 31.88 
L 685.971875 31.88 
Q 683.971875 31.88 683.971875 33.88 
L 683.971875 62.23625 
Q 683.971875 64.23625 685.971875 64.23625 
z
" style="fill: #ffffff; opacity: 0.8; stroke: #cccccc; stroke-linejoin: miter"/>
    </g>
    <g id="line2d_15">
     <path d="M 687.971875 39.978437 
L 697.971875 39.978437 
L 707.971875 39.978437 
" style="fill: none; stroke: #0000ff; stroke-width: 1.5; stroke-linecap: square"/>
    </g>
    <g id="text_17">
     <!-- UV Intensity (normalized) -->
     <g transform="translate(715.971875 43.478437) scale(0.1 -0.1)">
      <use xlink:href="#DejaVuSans-55"/>
      <use xlink:href="#DejaVuSans-56" transform="translate(73.193359 0)"/>
      <use xlink:href="#DejaVuSans-20" transform="translate(141.601562 0)"/>
      <use xlink:href="#DejaVuSans-49" transform="translate(173.388672 0)"/>
      <use xlink:href="#DejaVuSans-6e" transform="translate(202.880859 0)"/>
      <use xlink:href="#DejaVuSans-74" transform="translate(266.259766 0)"/>
      <use xlink:href="#DejaVuSans-65" transform="translate(305.46875 0)"/>
      <use xlink:href="#DejaVuSans-6e" transform="translate(366.992188 0)"/>
      <use xlink:href="#DejaVuSans-73" transform="translate(430.371094 0)"/>
      <use xlink:href="#DejaVuSans-69" transform="translate(482.470703 0)"/>
      <use xlink:href="#DejaVuSans-74" transform="translate(510.253906 0)"/>
      <use xlink:href="#DejaVuSans-79" transform="translate(549.462891 0)"/>
      <use xlink:href="#DejaVuSans-20" transform="translate(608.642578 0)"/>
      <use xlink:href="#DejaVuSans-28" transform="translate(640.429688 0)"/>
      <use xlink:href="#DejaVuSans-6e" transform="translate(679.443359 0)"/>
      <use xlink:href="#DejaVuSans-6f" transform="translate(742.822266 0)"/>
      <use xlink:href="#DejaVuSans-72" transform="translate(804.003906 0)"/>
      <use xlink:href="#DejaVuSans-6d" transform="translate(843.367188 0)"/>
      <use xlink:href="#DejaVuSans-61" transform="translate(940.779297 0)"/>
      <use xlink:href="#DejaVuSans-6c" transform="translate(1002.058594 0)"/>
      <use xlink:href="#DejaVuSans-69" transform="translate(1029.841797 0)"/>
      <use xlink:href="#DejaVuSans-7a" transform="translate(1057.625 0)"/>
      <use xlink:href="#DejaVuSans-65" transform="translate(1110.115234 0)"/>
      <use xlink:href="#DejaVuSans-64" transform="translate(1171.638672 0)"/>
      <use xlink:href="#DejaVuSans-29" transform="translate(1235.115234 0)"/>
     </g>
    </g>
    <g id="line2d_16">
     <path d="M 687.971875 54.656562 
L 697.971875 54.656562 
L 707.971875 54.656562 
" style="fill: none; stroke: #008000; stroke-width: 1.5; stroke-linecap: square"/>
    </g>
    <g id="text_18">
     <!-- MS Intensity (normalized) -->
     <g transform="translate(715.971875 58.156562) scale(0.1 -0.1)">
      <use xlink:href="#DejaVuSans-4d"/>
      <use xlink:href="#DejaVuSans-53" transform="translate(86.279297 0)"/>
      <use xlink:href="#DejaVuSans-20" transform="translate(149.755859 0)"/>
      <use xlink:href="#DejaVuSans-49" transform="translate(181.542969 0)"/>
      <use xlink:href="#DejaVuSans-6e" transform="translate(211.035156 0)"/>
      <use xlink:href="#DejaVuSans-74" transform="translate(274.414062 0)"/>
      <use xlink:href="#DejaVuSans-65" transform="translate(313.623047 0)"/>
      <use xlink:href="#DejaVuSans-6e" transform="translate(375.146484 0)"/>
      <use xlink:href="#DejaVuSans-73" transform="translate(438.525391 0)"/>
      <use xlink:href="#DejaVuSans-69" transform="translate(490.625 0)"/>
      <use xlink:href="#DejaVuSans-74" transform="translate(518.408203 0)"/>
      <use xlink:href="#DejaVuSans-79" transform="translate(557.617188 0)"/>
      <use xlink:href="#DejaVuSans-20" transform="translate(616.796875 0)"/>
      <use xlink:href="#DejaVuSans-28" transform="translate(648.583984 0)"/>
      <use xlink:href="#DejaVuSans-6e" transform="translate(687.597656 0)"/>
      <use xlink:href="#DejaVuSans-6f" transform="translate(750.976562 0)"/>
      <use xlink:href="#DejaVuSans-72" transform="translate(812.158203 0)"/>
      <use xlink:href="#DejaVuSans-6d" transform="translate(851.521484 0)"/>
      <use xlink:href="#DejaVuSans-61" transform="translate(948.933594 0)"/>
      <use xlink:href="#DejaVuSans-6c" transform="translate(1010.212891 0)"/>
      <use xlink:href="#DejaVuSans-69" transform="translate(1037.996094 0)"/>
      <use xlink:href="#DejaVuSans-7a" transform="translate(1065.779297 0)"/>
      <use xlink:href="#DejaVuSans-65" transform="translate(1118.269531 0)"/>
      <use xlink:href="#DejaVuSans-64" transform="translate(1179.792969 0)"/>
      <use xlink:href="#DejaVuSans-29" transform="translate(1243.269531 0)"/>
     </g>
    </g>
   </g>
  </g>
 </g>
 <defs>
  <clipPath id="p6517bbc58c">
   <rect x="47.72" y="26.88" width="805.48" height="507.16"/>
  </clipPath>
 </defs>
</svg>
