<?xml version="1.0" encoding="utf-8" standalone="no"?>
<!DOCTYPE svg PUBLIC "-//W3C//DTD SVG 1.1//EN"
  "http://www.w3.org/Graphics/SVG/1.1/DTD/svg11.dtd">
<svg xmlns:xlink="http://www.w3.org/1999/xlink" width="864pt" height="576pt" viewBox="0 0 864 576" xmlns="http://www.w3.org/2000/svg" version="1.1">
 <metadata>
  <rdf:RDF xmlns:dc="http://purl.org/dc/elements/1.1/" xmlns:cc="http://creativecommons.org/ns#" xmlns:rdf="http://www.w3.org/1999/02/22-rdf-syntax-ns#">
   <cc:Work>
    <dc:type rdf:resource="http://purl.org/dc/dcmitype/StillImage"/>
    <dc:date>2025-02-25T11:14:16.989615</dc:date>
    <dc:format>image/svg+xml</dc:format>
    <dc:creator>
     <cc:Agent>
      <dc:title>Matplotlib v3.10.0, https://matplotlib.org/</dc:title>
     </cc:Agent>
    </dc:creator>
   </cc:Work>
  </rdf:RDF>
 </metadata>
 <defs>
  <style type="text/css">*{stroke-linejoin: round; stroke-linecap: butt}</style>
 </defs>
 <g id="figure_1">
  <g id="patch_1">
   <path d="M 0 576 
L 864 576 
L 864 0 
L 0 0 
z
" style="fill: #ffffff"/>
  </g>
  <g id="axes_1">
   <g id="patch_2">
    <path d="M 47.72 534.04 
L 853.2 534.04 
L 853.2 26.88 
L 47.72 26.88 
z
" style="fill: #ffffff"/>
   </g>
   <g id="matplotlib.axis_1">
    <g id="xtick_1">
     <g id="line2d_1">
      <defs>
       <path id="meab3e23e3e" d="M 0 0 
L 0 3.5 
" style="stroke: #000000; stroke-width: 0.8"/>
      </defs>
      <g>
       <use xlink:href="#meab3e23e3e" x="83.100486" y="534.04" style="stroke: #000000; stroke-width: 0.8"/>
      </g>
     </g>
     <g id="text_1">
      <!-- 0 -->
      <g transform="translate(79.919236 548.638438) scale(0.1 -0.1)">
       <defs>
        <path id="DejaVuSans-30" d="M 2034 4250 
Q 1547 4250 1301 3770 
Q 1056 3291 1056 2328 
Q 1056 1369 1301 889 
Q 1547 409 2034 409 
Q 2525 409 2770 889 
Q 3016 1369 3016 2328 
Q 3016 3291 2770 3770 
Q 2525 4250 2034 4250 
z
M 2034 4750 
Q 2819 4750 3233 4129 
Q 3647 3509 3647 2328 
Q 3647 1150 3233 529 
Q 2819 -91 2034 -91 
Q 1250 -91 836 529 
Q 422 1150 422 2328 
Q 422 3509 836 4129 
Q 1250 4750 2034 4750 
z
" transform="scale(0.015625)"/>
       </defs>
       <use xlink:href="#DejaVuSans-30"/>
      </g>
     </g>
    </g>
    <g id="xtick_2">
     <g id="line2d_2">
      <g>
       <use xlink:href="#meab3e23e3e" x="229.795887" y="534.04" style="stroke: #000000; stroke-width: 0.8"/>
      </g>
     </g>
     <g id="text_2">
      <!-- 1 -->
      <g transform="translate(226.614637 548.638438) scale(0.1 -0.1)">
       <defs>
        <path id="DejaVuSans-31" d="M 794 531 
L 1825 531 
L 1825 4091 
L 703 3866 
L 703 4441 
L 1819 4666 
L 2450 4666 
L 2450 531 
L 3481 531 
L 3481 0 
L 794 0 
L 794 531 
z
" transform="scale(0.015625)"/>
       </defs>
       <use xlink:href="#DejaVuSans-31"/>
      </g>
     </g>
    </g>
    <g id="xtick_3">
     <g id="line2d_3">
      <g>
       <use xlink:href="#meab3e23e3e" x="376.491289" y="534.04" style="stroke: #000000; stroke-width: 0.8"/>
      </g>
     </g>
     <g id="text_3">
      <!-- 2 -->
      <g transform="translate(373.310039 548.638438) scale(0.1 -0.1)">
       <defs>
        <path id="DejaVuSans-32" d="M 1228 531 
L 3431 531 
L 3431 0 
L 469 0 
L 469 531 
Q 828 903 1448 1529 
Q 2069 2156 2228 2338 
Q 2531 2678 2651 2914 
Q 2772 3150 2772 3378 
Q 2772 3750 2511 3984 
Q 2250 4219 1831 4219 
Q 1534 4219 1204 4116 
Q 875 4013 500 3803 
L 500 4441 
Q 881 4594 1212 4672 
Q 1544 4750 1819 4750 
Q 2544 4750 2975 4387 
Q 3406 4025 3406 3419 
Q 3406 3131 3298 2873 
Q 3191 2616 2906 2266 
Q 2828 2175 2409 1742 
Q 1991 1309 1228 531 
z
" transform="scale(0.015625)"/>
       </defs>
       <use xlink:href="#DejaVuSans-32"/>
      </g>
     </g>
    </g>
    <g id="xtick_4">
     <g id="line2d_4">
      <g>
       <use xlink:href="#meab3e23e3e" x="523.18669" y="534.04" style="stroke: #000000; stroke-width: 0.8"/>
      </g>
     </g>
     <g id="text_4">
      <!-- 3 -->
      <g transform="translate(520.00544 548.638438) scale(0.1 -0.1)">
       <defs>
        <path id="DejaVuSans-33" d="M 2597 2516 
Q 3050 2419 3304 2112 
Q 3559 1806 3559 1356 
Q 3559 666 3084 287 
Q 2609 -91 1734 -91 
Q 1441 -91 1130 -33 
Q 819 25 488 141 
L 488 750 
Q 750 597 1062 519 
Q 1375 441 1716 441 
Q 2309 441 2620 675 
Q 2931 909 2931 1356 
Q 2931 1769 2642 2001 
Q 2353 2234 1838 2234 
L 1294 2234 
L 1294 2753 
L 1863 2753 
Q 2328 2753 2575 2939 
Q 2822 3125 2822 3475 
Q 2822 3834 2567 4026 
Q 2313 4219 1838 4219 
Q 1578 4219 1281 4162 
Q 984 4106 628 3988 
L 628 4550 
Q 988 4650 1302 4700 
Q 1616 4750 1894 4750 
Q 2613 4750 3031 4423 
Q 3450 4097 3450 3541 
Q 3450 3153 3228 2886 
Q 3006 2619 2597 2516 
z
" transform="scale(0.015625)"/>
       </defs>
       <use xlink:href="#DejaVuSans-33"/>
      </g>
     </g>
    </g>
    <g id="xtick_5">
     <g id="line2d_5">
      <g>
       <use xlink:href="#meab3e23e3e" x="669.882092" y="534.04" style="stroke: #000000; stroke-width: 0.8"/>
      </g>
     </g>
     <g id="text_5">
      <!-- 4 -->
      <g transform="translate(666.700842 548.638438) scale(0.1 -0.1)">
       <defs>
        <path id="DejaVuSans-34" d="M 2419 4116 
L 825 1625 
L 2419 1625 
L 2419 4116 
z
M 2253 4666 
L 3047 4666 
L 3047 1625 
L 3713 1625 
L 3713 1100 
L 3047 1100 
L 3047 0 
L 2419 0 
L 2419 1100 
L 313 1100 
L 313 1709 
L 2253 4666 
z
" transform="scale(0.015625)"/>
       </defs>
       <use xlink:href="#DejaVuSans-34"/>
      </g>
     </g>
    </g>
    <g id="xtick_6">
     <g id="line2d_6">
      <g>
       <use xlink:href="#meab3e23e3e" x="816.577493" y="534.04" style="stroke: #000000; stroke-width: 0.8"/>
      </g>
     </g>
     <g id="text_6">
      <!-- 5 -->
      <g transform="translate(813.396243 548.638438) scale(0.1 -0.1)">
       <defs>
        <path id="DejaVuSans-35" d="M 691 4666 
L 3169 4666 
L 3169 4134 
L 1269 4134 
L 1269 2991 
Q 1406 3038 1543 3061 
Q 1681 3084 1819 3084 
Q 2600 3084 3056 2656 
Q 3513 2228 3513 1497 
Q 3513 744 3044 326 
Q 2575 -91 1722 -91 
Q 1428 -91 1123 -41 
Q 819 9 494 109 
L 494 744 
Q 775 591 1075 516 
Q 1375 441 1709 441 
Q 2250 441 2565 725 
Q 2881 1009 2881 1497 
Q 2881 1984 2565 2268 
Q 2250 2553 1709 2553 
Q 1456 2553 1204 2497 
Q 953 2441 691 2322 
L 691 4666 
z
" transform="scale(0.015625)"/>
       </defs>
       <use xlink:href="#DejaVuSans-35"/>
      </g>
     </g>
    </g>
    <g id="text_7">
     <!-- Retention Time (min) -->
     <g transform="translate(397.61 562.316562) scale(0.1 -0.1)">
      <defs>
       <path id="DejaVuSans-52" d="M 2841 2188 
Q 3044 2119 3236 1894 
Q 3428 1669 3622 1275 
L 4263 0 
L 3584 0 
L 2988 1197 
Q 2756 1666 2539 1819 
Q 2322 1972 1947 1972 
L 1259 1972 
L 1259 0 
L 628 0 
L 628 4666 
L 2053 4666 
Q 2853 4666 3247 4331 
Q 3641 3997 3641 3322 
Q 3641 2881 3436 2590 
Q 3231 2300 2841 2188 
z
M 1259 4147 
L 1259 2491 
L 2053 2491 
Q 2509 2491 2742 2702 
Q 2975 2913 2975 3322 
Q 2975 3731 2742 3939 
Q 2509 4147 2053 4147 
L 1259 4147 
z
" transform="scale(0.015625)"/>
       <path id="DejaVuSans-65" d="M 3597 1894 
L 3597 1613 
L 953 1613 
Q 991 1019 1311 708 
Q 1631 397 2203 397 
Q 2534 397 2845 478 
Q 3156 559 3463 722 
L 3463 178 
Q 3153 47 2828 -22 
Q 2503 -91 2169 -91 
Q 1331 -91 842 396 
Q 353 884 353 1716 
Q 353 2575 817 3079 
Q 1281 3584 2069 3584 
Q 2775 3584 3186 3129 
Q 3597 2675 3597 1894 
z
M 3022 2063 
Q 3016 2534 2758 2815 
Q 2500 3097 2075 3097 
Q 1594 3097 1305 2825 
Q 1016 2553 972 2059 
L 3022 2063 
z
" transform="scale(0.015625)"/>
       <path id="DejaVuSans-74" d="M 1172 4494 
L 1172 3500 
L 2356 3500 
L 2356 3053 
L 1172 3053 
L 1172 1153 
Q 1172 725 1289 603 
Q 1406 481 1766 481 
L 2356 481 
L 2356 0 
L 1766 0 
Q 1100 0 847 248 
Q 594 497 594 1153 
L 594 3053 
L 172 3053 
L 172 3500 
L 594 3500 
L 594 4494 
L 1172 4494 
z
" transform="scale(0.015625)"/>
       <path id="DejaVuSans-6e" d="M 3513 2113 
L 3513 0 
L 2938 0 
L 2938 2094 
Q 2938 2591 2744 2837 
Q 2550 3084 2163 3084 
Q 1697 3084 1428 2787 
Q 1159 2491 1159 1978 
L 1159 0 
L 581 0 
L 581 3500 
L 1159 3500 
L 1159 2956 
Q 1366 3272 1645 3428 
Q 1925 3584 2291 3584 
Q 2894 3584 3203 3211 
Q 3513 2838 3513 2113 
z
" transform="scale(0.015625)"/>
       <path id="DejaVuSans-69" d="M 603 3500 
L 1178 3500 
L 1178 0 
L 603 0 
L 603 3500 
z
M 603 4863 
L 1178 4863 
L 1178 4134 
L 603 4134 
L 603 4863 
z
" transform="scale(0.015625)"/>
       <path id="DejaVuSans-6f" d="M 1959 3097 
Q 1497 3097 1228 2736 
Q 959 2375 959 1747 
Q 959 1119 1226 758 
Q 1494 397 1959 397 
Q 2419 397 2687 759 
Q 2956 1122 2956 1747 
Q 2956 2369 2687 2733 
Q 2419 3097 1959 3097 
z
M 1959 3584 
Q 2709 3584 3137 3096 
Q 3566 2609 3566 1747 
Q 3566 888 3137 398 
Q 2709 -91 1959 -91 
Q 1206 -91 779 398 
Q 353 888 353 1747 
Q 353 2609 779 3096 
Q 1206 3584 1959 3584 
z
" transform="scale(0.015625)"/>
       <path id="DejaVuSans-20" transform="scale(0.015625)"/>
       <path id="DejaVuSans-54" d="M -19 4666 
L 3928 4666 
L 3928 4134 
L 2272 4134 
L 2272 0 
L 1638 0 
L 1638 4134 
L -19 4134 
L -19 4666 
z
" transform="scale(0.015625)"/>
       <path id="DejaVuSans-6d" d="M 3328 2828 
Q 3544 3216 3844 3400 
Q 4144 3584 4550 3584 
Q 5097 3584 5394 3201 
Q 5691 2819 5691 2113 
L 5691 0 
L 5113 0 
L 5113 2094 
Q 5113 2597 4934 2840 
Q 4756 3084 4391 3084 
Q 3944 3084 3684 2787 
Q 3425 2491 3425 1978 
L 3425 0 
L 2847 0 
L 2847 2094 
Q 2847 2600 2669 2842 
Q 2491 3084 2119 3084 
Q 1678 3084 1418 2786 
Q 1159 2488 1159 1978 
L 1159 0 
L 581 0 
L 581 3500 
L 1159 3500 
L 1159 2956 
Q 1356 3278 1631 3431 
Q 1906 3584 2284 3584 
Q 2666 3584 2933 3390 
Q 3200 3197 3328 2828 
z
" transform="scale(0.015625)"/>
       <path id="DejaVuSans-28" d="M 1984 4856 
Q 1566 4138 1362 3434 
Q 1159 2731 1159 2009 
Q 1159 1288 1364 580 
Q 1569 -128 1984 -844 
L 1484 -844 
Q 1016 -109 783 600 
Q 550 1309 550 2009 
Q 550 2706 781 3412 
Q 1013 4119 1484 4856 
L 1984 4856 
z
" transform="scale(0.015625)"/>
       <path id="DejaVuSans-29" d="M 513 4856 
L 1013 4856 
Q 1481 4119 1714 3412 
Q 1947 2706 1947 2009 
Q 1947 1309 1714 600 
Q 1481 -109 1013 -844 
L 513 -844 
Q 928 -128 1133 580 
Q 1338 1288 1338 2009 
Q 1338 2731 1133 3434 
Q 928 4138 513 4856 
z
" transform="scale(0.015625)"/>
      </defs>
      <use xlink:href="#DejaVuSans-52"/>
      <use xlink:href="#DejaVuSans-65" transform="translate(64.982422 0)"/>
      <use xlink:href="#DejaVuSans-74" transform="translate(126.505859 0)"/>
      <use xlink:href="#DejaVuSans-65" transform="translate(165.714844 0)"/>
      <use xlink:href="#DejaVuSans-6e" transform="translate(227.238281 0)"/>
      <use xlink:href="#DejaVuSans-74" transform="translate(290.617188 0)"/>
      <use xlink:href="#DejaVuSans-69" transform="translate(329.826172 0)"/>
      <use xlink:href="#DejaVuSans-6f" transform="translate(357.609375 0)"/>
      <use xlink:href="#DejaVuSans-6e" transform="translate(418.791016 0)"/>
      <use xlink:href="#DejaVuSans-20" transform="translate(482.169922 0)"/>
      <use xlink:href="#DejaVuSans-54" transform="translate(513.957031 0)"/>
      <use xlink:href="#DejaVuSans-69" transform="translate(571.916016 0)"/>
      <use xlink:href="#DejaVuSans-6d" transform="translate(599.699219 0)"/>
      <use xlink:href="#DejaVuSans-65" transform="translate(697.111328 0)"/>
      <use xlink:href="#DejaVuSans-20" transform="translate(758.634766 0)"/>
      <use xlink:href="#DejaVuSans-28" transform="translate(790.421875 0)"/>
      <use xlink:href="#DejaVuSans-6d" transform="translate(829.435547 0)"/>
      <use xlink:href="#DejaVuSans-69" transform="translate(926.847656 0)"/>
      <use xlink:href="#DejaVuSans-6e" transform="translate(954.630859 0)"/>
      <use xlink:href="#DejaVuSans-29" transform="translate(1018.009766 0)"/>
     </g>
    </g>
   </g>
   <g id="matplotlib.axis_2">
    <g id="ytick_1">
     <g id="line2d_7">
      <defs>
       <path id="m704871acd3" d="M 0 0 
L -3.5 0 
" style="stroke: #000000; stroke-width: 0.8"/>
      </defs>
      <g>
       <use xlink:href="#m704871acd3" x="47.72" y="510.479701" style="stroke: #000000; stroke-width: 0.8"/>
      </g>
     </g>
     <g id="text_8">
      <!-- 0.0 -->
      <g style="fill: #0000ff" transform="translate(24.816875 514.27892) scale(0.1 -0.1)">
       <defs>
        <path id="DejaVuSans-2e" d="M 684 794 
L 1344 794 
L 1344 0 
L 684 0 
L 684 794 
z
" transform="scale(0.015625)"/>
       </defs>
       <use xlink:href="#DejaVuSans-30"/>
       <use xlink:href="#DejaVuSans-2e" transform="translate(63.623047 0)"/>
       <use xlink:href="#DejaVuSans-30" transform="translate(95.410156 0)"/>
      </g>
     </g>
    </g>
    <g id="ytick_2">
     <g id="line2d_8">
      <g>
       <use xlink:href="#m704871acd3" x="47.72" y="418.370306" style="stroke: #000000; stroke-width: 0.8"/>
      </g>
     </g>
     <g id="text_9">
      <!-- 0.5 -->
      <g style="fill: #0000ff" transform="translate(24.816875 422.169525) scale(0.1 -0.1)">
       <use xlink:href="#DejaVuSans-30"/>
       <use xlink:href="#DejaVuSans-2e" transform="translate(63.623047 0)"/>
       <use xlink:href="#DejaVuSans-35" transform="translate(95.410156 0)"/>
      </g>
     </g>
    </g>
    <g id="ytick_3">
     <g id="line2d_9">
      <g>
       <use xlink:href="#m704871acd3" x="47.72" y="326.260911" style="stroke: #000000; stroke-width: 0.8"/>
      </g>
     </g>
     <g id="text_10">
      <!-- 1.0 -->
      <g style="fill: #0000ff" transform="translate(24.816875 330.06013) scale(0.1 -0.1)">
       <use xlink:href="#DejaVuSans-31"/>
       <use xlink:href="#DejaVuSans-2e" transform="translate(63.623047 0)"/>
       <use xlink:href="#DejaVuSans-30" transform="translate(95.410156 0)"/>
      </g>
     </g>
    </g>
    <g id="ytick_4">
     <g id="line2d_10">
      <g>
       <use xlink:href="#m704871acd3" x="47.72" y="234.151517" style="stroke: #000000; stroke-width: 0.8"/>
      </g>
     </g>
     <g id="text_11">
      <!-- 1.5 -->
      <g style="fill: #0000ff" transform="translate(24.816875 237.950735) scale(0.1 -0.1)">
       <use xlink:href="#DejaVuSans-31"/>
       <use xlink:href="#DejaVuSans-2e" transform="translate(63.623047 0)"/>
       <use xlink:href="#DejaVuSans-35" transform="translate(95.410156 0)"/>
      </g>
     </g>
    </g>
    <g id="ytick_5">
     <g id="line2d_11">
      <g>
       <use xlink:href="#m704871acd3" x="47.72" y="142.042122" style="stroke: #000000; stroke-width: 0.8"/>
      </g>
     </g>
     <g id="text_12">
      <!-- 2.0 -->
      <g style="fill: #0000ff" transform="translate(24.816875 145.841341) scale(0.1 -0.1)">
       <use xlink:href="#DejaVuSans-32"/>
       <use xlink:href="#DejaVuSans-2e" transform="translate(63.623047 0)"/>
       <use xlink:href="#DejaVuSans-30" transform="translate(95.410156 0)"/>
      </g>
     </g>
    </g>
    <g id="ytick_6">
     <g id="line2d_12">
      <g>
       <use xlink:href="#m704871acd3" x="47.72" y="49.932727" style="stroke: #000000; stroke-width: 0.8"/>
      </g>
     </g>
     <g id="text_13">
      <!-- 2.5 -->
      <g style="fill: #0000ff" transform="translate(24.816875 53.731946) scale(0.1 -0.1)">
       <use xlink:href="#DejaVuSans-32"/>
       <use xlink:href="#DejaVuSans-2e" transform="translate(63.623047 0)"/>
       <use xlink:href="#DejaVuSans-35" transform="translate(95.410156 0)"/>
      </g>
     </g>
    </g>
    <g id="text_14">
     <!-- Normalized Intensity -->
     <g style="fill: #0000ff" transform="translate(18.737187 332.167031) rotate(-90) scale(0.1 -0.1)">
      <defs>
       <path id="DejaVuSans-4e" d="M 628 4666 
L 1478 4666 
L 3547 763 
L 3547 4666 
L 4159 4666 
L 4159 0 
L 3309 0 
L 1241 3903 
L 1241 0 
L 628 0 
L 628 4666 
z
" transform="scale(0.015625)"/>
       <path id="DejaVuSans-72" d="M 2631 2963 
Q 2534 3019 2420 3045 
Q 2306 3072 2169 3072 
Q 1681 3072 1420 2755 
Q 1159 2438 1159 1844 
L 1159 0 
L 581 0 
L 581 3500 
L 1159 3500 
L 1159 2956 
Q 1341 3275 1631 3429 
Q 1922 3584 2338 3584 
Q 2397 3584 2469 3576 
Q 2541 3569 2628 3553 
L 2631 2963 
z
" transform="scale(0.015625)"/>
       <path id="DejaVuSans-61" d="M 2194 1759 
Q 1497 1759 1228 1600 
Q 959 1441 959 1056 
Q 959 750 1161 570 
Q 1363 391 1709 391 
Q 2188 391 2477 730 
Q 2766 1069 2766 1631 
L 2766 1759 
L 2194 1759 
z
M 3341 1997 
L 3341 0 
L 2766 0 
L 2766 531 
Q 2569 213 2275 61 
Q 1981 -91 1556 -91 
Q 1019 -91 701 211 
Q 384 513 384 1019 
Q 384 1609 779 1909 
Q 1175 2209 1959 2209 
L 2766 2209 
L 2766 2266 
Q 2766 2663 2505 2880 
Q 2244 3097 1772 3097 
Q 1472 3097 1187 3025 
Q 903 2953 641 2809 
L 641 3341 
Q 956 3463 1253 3523 
Q 1550 3584 1831 3584 
Q 2591 3584 2966 3190 
Q 3341 2797 3341 1997 
z
" transform="scale(0.015625)"/>
       <path id="DejaVuSans-6c" d="M 603 4863 
L 1178 4863 
L 1178 0 
L 603 0 
L 603 4863 
z
" transform="scale(0.015625)"/>
       <path id="DejaVuSans-7a" d="M 353 3500 
L 3084 3500 
L 3084 2975 
L 922 459 
L 3084 459 
L 3084 0 
L 275 0 
L 275 525 
L 2438 3041 
L 353 3041 
L 353 3500 
z
" transform="scale(0.015625)"/>
       <path id="DejaVuSans-64" d="M 2906 2969 
L 2906 4863 
L 3481 4863 
L 3481 0 
L 2906 0 
L 2906 525 
Q 2725 213 2448 61 
Q 2172 -91 1784 -91 
Q 1150 -91 751 415 
Q 353 922 353 1747 
Q 353 2572 751 3078 
Q 1150 3584 1784 3584 
Q 2172 3584 2448 3432 
Q 2725 3281 2906 2969 
z
M 947 1747 
Q 947 1113 1208 752 
Q 1469 391 1925 391 
Q 2381 391 2643 752 
Q 2906 1113 2906 1747 
Q 2906 2381 2643 2742 
Q 2381 3103 1925 3103 
Q 1469 3103 1208 2742 
Q 947 2381 947 1747 
z
" transform="scale(0.015625)"/>
       <path id="DejaVuSans-49" d="M 628 4666 
L 1259 4666 
L 1259 0 
L 628 0 
L 628 4666 
z
" transform="scale(0.015625)"/>
       <path id="DejaVuSans-73" d="M 2834 3397 
L 2834 2853 
Q 2591 2978 2328 3040 
Q 2066 3103 1784 3103 
Q 1356 3103 1142 2972 
Q 928 2841 928 2578 
Q 928 2378 1081 2264 
Q 1234 2150 1697 2047 
L 1894 2003 
Q 2506 1872 2764 1633 
Q 3022 1394 3022 966 
Q 3022 478 2636 193 
Q 2250 -91 1575 -91 
Q 1294 -91 989 -36 
Q 684 19 347 128 
L 347 722 
Q 666 556 975 473 
Q 1284 391 1588 391 
Q 1994 391 2212 530 
Q 2431 669 2431 922 
Q 2431 1156 2273 1281 
Q 2116 1406 1581 1522 
L 1381 1569 
Q 847 1681 609 1914 
Q 372 2147 372 2553 
Q 372 3047 722 3315 
Q 1072 3584 1716 3584 
Q 2034 3584 2315 3537 
Q 2597 3491 2834 3397 
z
" transform="scale(0.015625)"/>
       <path id="DejaVuSans-79" d="M 2059 -325 
Q 1816 -950 1584 -1140 
Q 1353 -1331 966 -1331 
L 506 -1331 
L 506 -850 
L 844 -850 
Q 1081 -850 1212 -737 
Q 1344 -625 1503 -206 
L 1606 56 
L 191 3500 
L 800 3500 
L 1894 763 
L 2988 3500 
L 3597 3500 
L 2059 -325 
z
" transform="scale(0.015625)"/>
      </defs>
      <use xlink:href="#DejaVuSans-4e"/>
      <use xlink:href="#DejaVuSans-6f" transform="translate(74.804688 0)"/>
      <use xlink:href="#DejaVuSans-72" transform="translate(135.986328 0)"/>
      <use xlink:href="#DejaVuSans-6d" transform="translate(175.349609 0)"/>
      <use xlink:href="#DejaVuSans-61" transform="translate(272.761719 0)"/>
      <use xlink:href="#DejaVuSans-6c" transform="translate(334.041016 0)"/>
      <use xlink:href="#DejaVuSans-69" transform="translate(361.824219 0)"/>
      <use xlink:href="#DejaVuSans-7a" transform="translate(389.607422 0)"/>
      <use xlink:href="#DejaVuSans-65" transform="translate(442.097656 0)"/>
      <use xlink:href="#DejaVuSans-64" transform="translate(503.621094 0)"/>
      <use xlink:href="#DejaVuSans-20" transform="translate(567.097656 0)"/>
      <use xlink:href="#DejaVuSans-49" transform="translate(598.884766 0)"/>
      <use xlink:href="#DejaVuSans-6e" transform="translate(628.376953 0)"/>
      <use xlink:href="#DejaVuSans-74" transform="translate(691.755859 0)"/>
      <use xlink:href="#DejaVuSans-65" transform="translate(730.964844 0)"/>
      <use xlink:href="#DejaVuSans-6e" transform="translate(792.488281 0)"/>
      <use xlink:href="#DejaVuSans-73" transform="translate(855.867188 0)"/>
      <use xlink:href="#DejaVuSans-69" transform="translate(907.966797 0)"/>
      <use xlink:href="#DejaVuSans-74" transform="translate(935.75 0)"/>
      <use xlink:href="#DejaVuSans-79" transform="translate(974.958984 0)"/>
     </g>
    </g>
   </g>
   <g id="line2d_13">
    <path d="M 84.332727 510.479701 
L 101.447191 510.589361 
L 122.229039 510.734356 
L 139.343503 510.644943 
L 141.788426 510.470242 
L 144.23335 510.068461 
L 145.455811 509.784249 
L 146.678273 509.334024 
L 147.900735 508.492269 
L 149.123196 507.167397 
L 150.345658 505.669909 
L 151.56812 504.581085 
L 152.790581 504.326047 
L 154.013043 504.916835 
L 157.680428 508.341006 
L 158.90289 509.100414 
L 160.125351 509.56727 
L 161.347813 509.818278 
L 162.570275 509.920504 
L 163.792736 509.885772 
L 165.015198 509.692237 
L 167.460121 508.920695 
L 169.905045 508.143734 
L 171.127506 507.92769 
L 172.349968 507.861732 
L 174.794891 508.100279 
L 178.462277 508.918927 
L 180.9072 509.43629 
L 182.129662 509.467765 
L 183.352123 509.064945 
L 185.797047 507.43734 
L 187.019508 507.330945 
L 188.24197 508.016022 
L 189.464432 508.955533 
L 190.686893 509.476384 
L 191.909355 509.341829 
L 194.354278 508.317285 
L 195.57674 508.098221 
L 196.799202 508.194563 
L 201.689048 509.380093 
L 211.468742 509.892292 
L 213.913665 509.608071 
L 216.358589 509.348942 
L 220.025974 509.23745 
L 222.470897 508.922246 
L 224.91582 508.936401 
L 227.360744 509.046368 
L 231.028129 508.969602 
L 233.473052 509.345897 
L 237.140437 510.093328 
L 239.58536 510.314204 
L 244.475207 510.39301 
L 254.254901 510.326331 
L 257.922286 510.115725 
L 259.144747 509.815374 
L 260.367209 508.862682 
L 261.589671 505.302793 
L 262.812132 494.267442 
L 264.034594 469.946132 
L 265.257056 431.55864 
L 266.479517 386.867073 
L 267.701979 348.535533 
L 268.924441 327.059529 
L 270.146902 326.260911 
L 271.369364 343.210623 
L 272.591826 370.97389 
L 275.036749 430.365605 
L 276.259211 453.17603 
L 277.481672 469.783636 
L 278.704134 481.036793 
L 279.926596 488.321497 
L 281.149058 492.989421 
L 282.371519 496.095125 
L 283.593981 498.329965 
L 284.816443 500.070135 
L 286.038904 501.472346 
L 287.261366 502.551058 
L 288.483828 503.058623 
L 289.706289 502.044098 
L 290.928751 497.920901 
L 292.151213 490.126142 
L 293.373674 480.870943 
L 294.596136 474.159769 
L 295.818598 472.769993 
L 297.041059 476.555215 
L 300.708444 496.10844 
L 301.930906 500.080822 
L 303.153368 502.477596 
L 304.375829 503.798211 
L 305.598291 504.509003 
L 308.043214 505.276462 
L 311.710599 506.164198 
L 314.155523 506.569629 
L 316.600446 506.77264 
L 317.822908 506.743876 
L 322.712755 506.240344 
L 323.935216 506.434237 
L 328.825063 507.66254 
L 331.269986 507.949453 
L 337.382295 508.208959 
L 342.272141 508.102736 
L 343.494603 507.953333 
L 344.717065 507.551548 
L 347.161988 506.241119 
L 348.38445 505.881769 
L 349.606912 505.963166 
L 354.496758 507.524776 
L 356.941682 507.684734 
L 358.164143 507.665231 
L 359.386605 507.316038 
L 360.609067 505.0893 
L 361.831528 498.190779 
L 363.05399 485.519685 
L 364.276452 470.734045 
L 365.498913 460.475801 
L 366.721375 459.114631 
L 367.943837 465.906953 
L 370.38876 487.09459 
L 371.611222 494.997781 
L 372.833683 500.113676 
L 374.056145 503.164701 
L 375.278607 504.976035 
L 376.501068 506.116797 
L 377.72353 506.887874 
L 378.945992 507.429425 
L 381.390915 508.11051 
L 385.0583 508.736537 
L 387.503224 508.964798 
L 398.505379 509.441859 
L 403.395225 509.49854 
L 409.507534 509.291412 
L 411.952457 509.171141 
L 414.39738 508.995899 
L 416.842304 509.198202 
L 419.287227 509.525675 
L 421.732151 509.545371 
L 425.399536 509.302038 
L 429.066921 509.474539 
L 435.179229 509.891707 
L 446.181384 509.858228 
L 447.403846 509.616124 
L 448.626307 507.446424 
L 449.848769 499.253302 
L 451.071231 481.446873 
L 452.293693 456.860137 
L 453.516154 435.316269 
L 454.738616 426.12595 
L 455.961078 431.233107 
L 457.183539 445.817761 
L 458.406001 463.272654 
L 459.628463 478.873684 
L 460.850924 490.577811 
L 462.073386 498.284815 
L 463.295848 502.849259 
L 464.518309 505.34769 
L 465.740771 506.67982 
L 466.963233 507.436764 
L 468.185694 507.932885 
L 470.630618 508.58969 
L 473.075541 508.977828 
L 475.520464 509.064198 
L 479.187849 508.908217 
L 481.632773 509.276612 
L 484.077696 509.721429 
L 486.52262 509.949147 
L 493.85739 510.173795 
L 515.8617 510.388771 
L 556.202935 510.414507 
L 561.092782 510.087357 
L 568.427552 510.506245 
L 606.323864 510.515257 
L 611.213711 510.441634 
L 617.326019 510.523976 
L 620.993404 510.37411 
L 625.883251 510.000275 
L 628.328174 510.135547 
L 633.218021 510.580559 
L 639.330329 510.699577 
L 816.587273 510.987273 
L 816.587273 510.987273 
" clip-path="url(#pc01813bca9)" style="fill: none; stroke: #0000ff; stroke-width: 1.5; stroke-linecap: square"/>
   </g>
   <g id="line2d_14">
    <path d="M 188.127303 234.115867 
L 192.319613 234.112436 
L 265.262679 234.086092 
L 265.262679 234.039797 
L 266.674133 233.74815 
L 272.364692 233.759337 
L 273.691063 233.693243 
L 276.69294 233.466924 
L 277.364072 233.416829 
L 277.69976 233.388185 
L 278.034959 233.52864 
L 278.034959 233.467462 
L 279.046179 233.485395 
L 279.386512 233.354991 
L 280.063512 233.546584 
L 280.063512 233.530586 
L 280.409468 233.665842 
L 280.409468 233.663882 
L 281.434136 233.543362 
L 281.775691 233.425995 
L 282.11847 233.451463 
L 282.460514 233.638433 
L 282.460514 233.627909 
L 284.886367 233.712556 
L 286.295132 233.693502 
L 286.646712 233.805972 
L 286.646712 233.686004 
L 287.354029 233.78239 
L 287.354029 233.804636 
L 287.706831 233.845573 
L 288.060122 233.937714 
L 288.060122 233.837664 
L 288.767928 233.901187 
L 288.767928 233.831329 
L 289.123175 233.929557 
L 289.123175 233.857987 
L 294.470222 233.817983 
L 294.470222 233.788161 
L 295.172404 233.708688 
L 296.563566 233.649717 
L 297.254746 233.69426 
L 297.941036 233.634834 
L 298.284058 233.75864 
L 298.284058 233.757369 
L 301.775164 233.859839 
L 302.479791 233.945097 
L 303.540399 233.812382 
L 304.962367 233.984347 
L 304.962367 233.920555 
L 307.837352 233.954944 
L 308.196756 233.90111 
L 308.917764 233.971264 
L 308.917764 233.964864 
L 316.176008 233.957082 
L 316.904839 233.915869 
L 318.355168 233.952654 
L 319.081799 233.950613 
L 319.081799 233.954359 
L 321.262671 234.058327 
L 321.262671 234.025058 
L 327.074742 233.980878 
L 328.162489 234.029565 
L 328.162489 233.994773 
L 330.337004 234.068564 
L 330.337004 234.040923 
L 332.136712 234.058181 
L 333.930307 234.006199 
L 337.922134 234.051504 
L 339.372462 234.017591 
L 341.190752 234.085344 
L 341.190752 234.057211 
L 344.817796 233.994529 
L 346.639264 234.058162 
L 360.072406 233.952256 
L 360.072406 233.927213 
L 363.35985 233.912865 
L 363.35985 233.924227 
L 369.217886 234.084827 
L 380.41319 234.068035 
L 380.41319 234.069055 
L 384.772 234.045428 
L 395.304485 234.091768 
L 395.304485 234.098447 
L 438.521439 234.079191 
L 441.063182 234.088388 
L 447.600907 233.996408 
L 447.600907 233.909434 
L 448.326071 233.889208 
L 448.326071 233.784658 
L 448.688653 233.854834 
L 448.688653 233.741173 
L 449.051235 233.824512 
L 449.051235 233.698287 
L 450.138982 233.653777 
L 450.138982 233.66407 
L 450.867569 233.823623 
L 450.867569 233.733471 
L 451.230151 233.839551 
L 451.230151 233.728635 
L 451.592977 233.805149 
L 451.592977 233.542565 
L 451.955315 233.534129 
L 451.955315 232.645881 
L 452.317897 232.325887 
L 452.317897 229.688199 
L 452.685858 228.7598 
L 452.685858 222.60543 
L 453.046973 221.429772 
L 453.046973 210.314576 
L 453.398798 208.83841 
L 453.398798 193.428176 
L 453.745732 194.969925 
L 453.745732 173.677606 
L 454.088022 179.716281 
L 454.088022 149.446759 
L 454.424443 158.50416 
L 454.424443 125.041272 
L 454.757686 139.644808 
L 454.757686 101.241311 
L 455.09044 125.465238 
L 455.09044 85.830634 
L 455.438108 113.501587 
L 455.438108 70.089114 
L 455.769885 101.166986 
L 455.769885 61.793778 
L 456.100927 98.511898 
L 456.100927 55.909455 
L 456.431236 96.638311 
L 456.431236 56.410586 
L 456.761301 93.429374 
L 456.761301 49.932727 
L 457.092588 92.315945 
L 457.092588 53.6084 
L 457.423386 95.825602 
L 457.423386 62.063762 
L 457.76103 106.793622 
L 457.76103 73.57043 
L 458.092317 115.070254 
L 458.092317 83.347176 
L 458.423849 83.939224 
L 458.755869 84.9176 
L 458.755869 91.760985 
L 459.08789 93.387165 
L 459.08789 105.424638 
L 459.4204 143.777912 
L 459.4204 121.138818 
L 459.754621 150.733511 
L 459.754621 129.666266 
L 460.087619 153.715927 
L 460.087619 136.852515 
L 460.425019 162.95184 
L 460.425019 144.804233 
L 460.760462 167.547433 
L 460.760462 151.41087 
L 461.098106 171.301486 
L 461.098106 155.446672 
L 461.434527 178.635572 
L 461.434527 164.599253 
L 461.769482 183.418098 
L 461.769482 170.357637 
L 462.106881 187.048059 
L 462.106881 173.65667 
L 462.444525 190.904969 
L 462.444525 178.475923 
L 462.788037 192.426391 
L 462.788037 183.168863 
L 463.128126 196.101006 
L 463.128126 185.947321 
L 463.468704 199.538131 
L 463.468704 191.821627 
L 463.811237 202.208432 
L 463.811237 194.267619 
L 464.156216 204.308645 
L 464.156216 196.46336 
L 464.503395 205.299765 
L 464.503395 198.419806 
L 464.846663 206.981686 
L 464.846663 199.851669 
L 465.194575 208.518484 
L 465.194575 201.476982 
L 465.539554 209.672319 
L 465.539554 203.343534 
L 465.8882 211.258788 
L 465.8882 205.139878 
L 466.237579 213.018797 
L 466.237579 207.462078 
L 466.587937 214.709867 
L 466.587937 208.538532 
L 466.938539 215.037181 
L 466.938539 209.79114 
L 467.28963 215.141502 
L 467.28963 210.079584 
L 467.641699 216.544283 
L 467.641699 211.713692 
L 467.99988 217.251657 
L 467.99988 212.961666 
L 468.352683 218.28085 
L 468.352683 213.441493 
L 468.706463 218.626593 
L 468.706463 214.342208 
L 469.06171 219.277896 
L 469.06171 215.094765 
L 469.417447 220.07689 
L 469.417447 216.352226 
L 469.773428 220.882242 
L 469.773428 217.017956 
L 470.134298 221.296713 
L 470.134298 218.104479 
L 470.491257 222.016309 
L 470.491257 218.441893 
L 470.848949 222.556824 
L 470.848949 219.540827 
L 471.207864 222.930741 
L 471.207864 219.991088 
L 471.567757 223.76658 
L 471.567757 220.866242 
L 471.926916 224.210916 
L 471.926916 221.592375 
L 472.286564 224.748024 
L 472.286564 222.009449 
L 472.647435 225.11501 
L 472.647435 222.229929 
L 473.014662 225.044836 
L 473.014662 222.492095 
L 473.375289 225.264993 
L 473.375289 222.841478 
L 473.737871 225.861601 
L 473.737871 223.461764 
L 474.099964 226.060827 
L 474.099964 223.935765 
L 474.462546 226.395785 
L 474.462546 224.207966 
L 474.825128 226.673495 
L 474.825128 224.532827 
L 475.18771 226.819071 
L 475.18771 224.922863 
L 475.550292 227.179684 
L 475.550292 225.358649 
L 475.912875 227.64521 
L 475.912875 226.140479 
L 476.275457 228.149592 
L 476.275457 226.488935 
L 476.638039 228.608446 
L 476.638039 226.798078 
L 477.000621 228.484129 
L 477.000621 226.811899 
L 477.363203 228.677091 
L 477.363203 226.930919 
L 477.725541 228.896791 
L 477.725541 227.43298 
L 478.093502 229.257832 
L 478.093502 227.607986 
L 478.455839 229.311154 
L 478.455839 227.795698 
L 478.818422 229.35453 
L 478.818422 227.932003 
L 479.181004 229.609102 
L 479.181004 228.300106 
L 479.544808 229.883404 
L 479.544808 228.666949 
L 479.91497 230.166437 
L 479.91497 228.96934 
L 480.277552 230.313386 
L 480.277552 229.206586 
L 480.639889 230.488068 
L 480.639889 229.376107 
L 481.002472 230.654767 
L 481.002472 229.406097 
L 481.365054 230.540745 
L 481.365054 229.484023 
L 481.727391 230.67423 
L 481.727391 229.556007 
L 482.089973 230.906819 
L 482.089973 229.974082 
L 482.4528 231.059085 
L 482.4528 230.063907 
L 482.815382 231.184739 
L 482.815382 230.185417 
L 483.183343 231.145189 
L 483.183343 230.240667 
L 483.545925 231.276292 
L 483.545925 230.384179 
L 483.908507 231.414683 
L 483.908507 230.550557 
L 484.27109 231.481302 
L 484.27109 230.515573 
L 484.633672 231.48486 
L 484.633672 230.621501 
L 484.996254 231.534477 
L 484.996254 230.773295 
L 485.358836 231.66912 
L 485.358836 230.912993 
L 485.721418 231.754174 
L 485.721418 231.037419 
L 486.084 231.803562 
L 486.084 231.158092 
L 486.446582 231.871527 
L 486.446582 231.268896 
L 486.809165 232.053553 
L 486.809165 231.39948 
L 487.171747 232.145169 
L 487.171747 231.524798 
L 487.534573 232.210498 
L 487.534573 231.527517 
L 487.897155 232.195007 
L 487.897155 231.560945 
L 488.264872 232.240532 
L 488.264872 231.599978 
L 488.627454 232.244156 
L 488.627454 231.773791 
L 488.990036 232.411252 
L 488.990036 231.799896 
L 489.352618 232.46543 
L 489.352618 231.934725 
L 489.7152 232.472603 
L 489.7152 231.894777 
L 490.08145 232.494733 
L 490.08145 231.886425 
L 490.444032 232.456868 
L 490.444032 231.873636 
L 490.806614 232.445562 
L 490.806614 231.948013 
L 491.169196 232.551261 
L 491.169196 232.023393 
L 491.531778 232.598353 
L 491.531778 232.072957 
L 491.894361 232.605157 
L 491.894361 232.116746 
L 492.256943 232.674352 
L 492.256943 232.179852 
L 492.619525 232.718533 
L 492.619525 232.237682 
L 492.982107 232.735085 
L 492.982107 232.270438 
L 493.350068 232.79643 
L 493.350068 232.384561 
L 493.71265 232.851995 
L 493.71265 232.421244 
L 494.075232 232.899882 
L 494.075232 232.45099 
L 494.437814 232.863312 
L 494.437814 232.474096 
L 494.800397 232.906238 
L 494.800397 232.460253 
L 495.162979 232.901815 
L 495.162979 232.498222 
L 495.525561 232.925446 
L 495.525561 232.508821 
L 495.888143 232.948523 
L 495.888143 232.562387 
L 496.250725 232.991801 
L 496.250725 232.576674 
L 496.613307 233.008869 
L 496.613307 232.656227 
L 496.975889 233.037952 
L 496.975889 232.660946 
L 497.338716 233.076818 
L 497.338716 232.699469 
L 497.701298 233.05377 
L 497.701298 232.696094 
L 498.06388 233.082102 
L 498.06388 232.731984 
L 498.431597 233.100919 
L 498.431597 232.738323 
L 498.794179 233.106221 
L 498.794179 232.758159 
L 499.156761 233.113336 
L 499.156761 232.771059 
L 499.519343 233.131989 
L 499.519343 232.807953 
L 499.88217 233.123021 
L 499.88217 232.818795 
L 500.244507 233.174427 
L 500.244507 232.849221 
L 500.60709 233.187131 
L 500.60709 232.94587 
L 500.969672 233.262316 
L 500.969672 232.937025 
L 501.332254 233.287048 
L 501.332254 232.970704 
L 501.698503 233.256762 
L 501.698503 232.960371 
L 502.061574 233.277686 
L 502.061574 232.95763 
L 502.424401 233.255307 
L 502.424401 232.975084 
L 502.786983 233.256565 
L 502.786983 232.995873 
L 503.149321 233.300876 
L 503.149321 233.05027 
L 503.517282 233.323084 
L 503.517282 233.019618 
L 503.879864 233.271179 
L 503.879864 233.005732 
L 504.242446 233.288418 
L 504.242446 233.043503 
L 504.605517 233.354242 
L 504.605517 233.107494 
L 504.968344 233.390682 
L 504.968344 233.136348 
L 505.330681 233.389683 
L 505.330681 233.13653 
L 505.693264 233.413898 
L 505.693264 233.15454 
L 506.055846 233.417385 
L 506.055846 233.169554 
L 506.418428 233.430508 
L 506.418428 233.191778 
L 506.78101 233.455786 
L 506.78101 233.199585 
L 507.143592 233.451199 
L 507.143592 233.20753 
L 507.50593 233.435462 
L 507.50593 233.208661 
L 507.868512 233.460811 
L 507.868512 233.212771 
L 508.231094 233.455707 
L 508.231094 233.2285 
L 508.599055 233.465788 
L 508.599055 233.273966 
L 508.961393 233.52133 
L 508.961393 233.288583 
L 509.323975 233.535143 
L 509.323975 233.318386 
L 509.686557 233.506919 
L 509.686557 233.312672 
L 510.049139 233.542352 
L 510.049139 233.319582 
L 510.411721 233.534837 
L 510.411721 233.314997 
L 510.774059 233.519775 
L 510.774059 233.31832 
L 511.136396 233.540776 
L 511.136396 233.337039 
L 511.498979 233.560064 
L 511.498979 233.34995 
L 511.864739 233.568108 
L 511.864739 233.382253 
L 512.227321 233.588134 
L 512.227321 233.402932 
L 512.589903 233.603575 
L 512.589903 233.412134 
L 512.952241 233.597431 
L 512.952241 233.400884 
L 513.314823 233.587455 
L 513.314823 233.407776 
L 513.68254 233.595818 
L 513.68254 233.407947 
L 514.045122 233.605213 
L 514.045122 233.435916 
L 514.407704 233.617174 
L 514.407704 233.439057 
L 514.771508 233.627567 
L 514.771508 233.429121 
L 515.134091 233.61082 
L 515.134091 233.428794 
L 515.496428 233.605457 
L 515.496428 233.44092 
L 515.85901 233.644954 
L 515.85901 233.473333 
L 516.221593 233.667037 
L 516.221593 233.502327 
L 516.584664 233.673047 
L 516.584664 233.504311 
L 516.947246 233.672879 
L 516.947246 233.516918 
L 517.309583 233.687092 
L 517.309583 233.522963 
L 517.672166 233.684766 
L 517.672166 233.545621 
L 518.034503 233.694069 
L 518.034503 233.549558 
L 518.397085 233.707198 
L 518.397085 233.575017 
L 518.764802 233.698164 
L 518.764802 233.558456 
L 519.127873 233.703475 
L 519.127873 233.555085 
L 519.4907 233.693333 
L 519.4907 233.560584 
L 519.853037 233.703581 
L 519.853037 233.573698 
L 520.215375 233.732782 
L 520.215375 233.565952 
L 520.577957 233.722613 
L 520.577957 233.591739 
L 520.940295 233.721717 
L 520.940295 233.584897 
L 521.302877 233.756691 
L 521.302877 233.60553 
L 521.668637 233.740894 
L 521.668637 233.61169 
L 522.033175 233.747543 
L 522.033175 233.597706 
L 523.120922 233.602817 
L 523.120922 233.606911 
L 523.483504 233.760662 
L 523.483504 233.628009 
L 523.85122 233.758157 
L 523.85122 233.626725 
L 524.213802 233.772446 
L 524.213802 233.643295 
L 524.576385 233.781471 
L 524.576385 233.649981 
L 525.301549 233.798097 
L 525.301549 233.683899 
L 526.026469 233.831244 
L 526.026469 233.723495 
L 526.389051 233.841726 
L 526.389051 233.731863 
L 526.751633 233.834247 
L 526.751633 233.714178 
L 527.114215 233.83015 
L 527.114215 233.706115 
L 527.839135 233.822102 
L 527.839135 233.713797 
L 528.201717 233.835826 
L 528.201717 233.73049 
L 528.932505 233.848398 
L 528.932505 233.761356 
L 529.659136 233.865636 
L 529.659136 233.753377 
L 530.3843 233.82007 
L 530.3843 233.698778 
L 531.109464 233.837177 
L 531.109464 233.743252 
L 531.475225 233.861028 
L 531.475225 233.765531 
L 532.200145 233.85179 
L 532.200145 233.755475 
L 532.925309 233.85918 
L 532.925309 233.772408 
L 533.650473 233.875059 
L 533.650473 233.792215 
L 534.381016 233.872508 
L 534.381016 233.788034 
L 534.743354 233.88984 
L 534.743354 233.789584 
L 535.468274 233.854719 
L 535.468274 233.754334 
L 536.193438 233.869787 
L 536.193438 233.789027 
L 536.919825 233.902547 
L 536.919825 233.815796 
L 537.644744 233.881646 
L 537.644744 233.804766 
L 538.369664 233.89645 
L 538.369664 233.817578 
L 539.100207 233.908242 
L 539.100207 233.827837 
L 539.825127 233.912795 
L 539.825127 233.845757 
L 540.55347 233.922385 
L 540.55347 233.853543 
L 541.27839 233.939642 
L 541.27839 233.857484 
L 541.640972 233.929341 
L 541.640972 233.860084 
L 542.728474 233.841303 
L 542.728474 233.842968 
L 543.453638 233.902888 
L 543.453638 233.82473 
L 544.185648 233.920582 
L 544.185648 233.854975 
L 544.911057 233.953481 
L 544.911057 233.885401 
L 545.635976 233.960837 
L 545.635976 233.89688 
L 546.36163 233.971397 
L 546.36163 233.902328 
L 547.086794 233.959702 
L 547.086794 233.888406 
L 547.811714 233.950733 
L 547.811714 233.90204 
L 548.536634 233.975772 
L 548.536634 233.918054 
L 549.632204 233.981411 
L 549.632204 233.923928 
L 550.357368 233.980033 
L 550.357368 233.919102 
L 551.08351 233.97875 
L 551.08351 233.922136 
L 551.808674 233.987952 
L 551.808674 233.938553 
L 552.533594 233.984223 
L 552.533594 233.928706 
L 553.621096 233.987486 
L 553.621096 233.934008 
L 554.351395 233.99919 
L 554.351395 233.944606 
L 555.438897 234.005508 
L 555.438897 233.957674 
L 556.163816 233.994921 
L 556.163816 233.939779 
L 557.251318 234.018531 
L 557.251318 233.972688 
L 558.340287 234.011495 
L 558.340287 233.963667 
L 559.065207 233.948024 
L 560.13535 233.871939 
L 564.836449 233.967597 
L 569.309436 233.900585 
L 571.795189 234.035937 
L 571.795189 233.989929 
L 577.544182 233.971451 
L 580.086658 233.993657 
L 580.815001 234.002201 
L 700.313075 234.098092 
L 702.476587 234.08572 
L 718.77029 234.040561 
L 720.583934 234.090359 
L 720.583934 234.089519 
L 720.583934 234.075277 
L 728.19278 234.064109 
L 728.19278 234.081833 
L 812.684931 234.113554 
L 812.684931 234.113554 
" clip-path="url(#pc01813bca9)" style="fill: none; stroke: #008000; stroke-width: 1.5; stroke-linecap: square"/>
   </g>
   <g id="patch_3">
    <path d="M 47.72 534.04 
L 47.72 26.88 
" style="fill: none; stroke: #000000; stroke-width: 0.8; stroke-linejoin: miter; stroke-linecap: square"/>
   </g>
   <g id="patch_4">
    <path d="M 853.2 534.04 
L 853.2 26.88 
" style="fill: none; stroke: #000000; stroke-width: 0.8; stroke-linejoin: miter; stroke-linecap: square"/>
   </g>
   <g id="patch_5">
    <path d="M 47.72 534.04 
L 853.2 534.04 
" style="fill: none; stroke: #000000; stroke-width: 0.8; stroke-linejoin: miter; stroke-linecap: square"/>
   </g>
   <g id="patch_6">
    <path d="M 47.72 26.88 
L 853.2 26.88 
" style="fill: none; stroke: #000000; stroke-width: 0.8; stroke-linejoin: miter; stroke-linecap: square"/>
   </g>
   <g id="patch_7">
    <path d="M 525.29409 432.691471 
Q 499.142796 438.518094 472.991502 444.344718 
L 473.86139 448.248984 
Q 467.354382 446.625214 460.847374 445.001443 
Q 466.04955 440.768814 471.251727 436.536185 
L 472.121614 440.440452 
Q 498.272908 434.613828 524.424202 428.787204 
L 525.29409 432.691471 
z
" style="stroke: #000000; stroke-linecap: round"/>
   </g>
   <g id="text_15">
    <!-- Peak: RT=2.55, Area=5.27e+03 -->
    <g style="fill: #ff0000" transform="translate(530.53124 416.19807) scale(0.1 -0.1)">
     <defs>
      <path id="DejaVuSans-50" d="M 1259 4147 
L 1259 2394 
L 2053 2394 
Q 2494 2394 2734 2622 
Q 2975 2850 2975 3272 
Q 2975 3691 2734 3919 
Q 2494 4147 2053 4147 
L 1259 4147 
z
M 628 4666 
L 2053 4666 
Q 2838 4666 3239 4311 
Q 3641 3956 3641 3272 
Q 3641 2581 3239 2228 
Q 2838 1875 2053 1875 
L 1259 1875 
L 1259 0 
L 628 0 
L 628 4666 
z
" transform="scale(0.015625)"/>
      <path id="DejaVuSans-6b" d="M 581 4863 
L 1159 4863 
L 1159 1991 
L 2875 3500 
L 3609 3500 
L 1753 1863 
L 3688 0 
L 2938 0 
L 1159 1709 
L 1159 0 
L 581 0 
L 581 4863 
z
" transform="scale(0.015625)"/>
      <path id="DejaVuSans-3a" d="M 750 794 
L 1409 794 
L 1409 0 
L 750 0 
L 750 794 
z
M 750 3309 
L 1409 3309 
L 1409 2516 
L 750 2516 
L 750 3309 
z
" transform="scale(0.015625)"/>
      <path id="DejaVuSans-3d" d="M 678 2906 
L 4684 2906 
L 4684 2381 
L 678 2381 
L 678 2906 
z
M 678 1631 
L 4684 1631 
L 4684 1100 
L 678 1100 
L 678 1631 
z
" transform="scale(0.015625)"/>
      <path id="DejaVuSans-2c" d="M 750 794 
L 1409 794 
L 1409 256 
L 897 -744 
L 494 -744 
L 750 256 
L 750 794 
z
" transform="scale(0.015625)"/>
      <path id="DejaVuSans-41" d="M 2188 4044 
L 1331 1722 
L 3047 1722 
L 2188 4044 
z
M 1831 4666 
L 2547 4666 
L 4325 0 
L 3669 0 
L 3244 1197 
L 1141 1197 
L 716 0 
L 50 0 
L 1831 4666 
z
" transform="scale(0.015625)"/>
      <path id="DejaVuSans-37" d="M 525 4666 
L 3525 4666 
L 3525 4397 
L 1831 0 
L 1172 0 
L 2766 4134 
L 525 4134 
L 525 4666 
z
" transform="scale(0.015625)"/>
      <path id="DejaVuSans-2b" d="M 2944 4013 
L 2944 2272 
L 4684 2272 
L 4684 1741 
L 2944 1741 
L 2944 0 
L 2419 0 
L 2419 1741 
L 678 1741 
L 678 2272 
L 2419 2272 
L 2419 4013 
L 2944 4013 
z
" transform="scale(0.015625)"/>
     </defs>
     <use xlink:href="#DejaVuSans-50"/>
     <use xlink:href="#DejaVuSans-65" transform="translate(56.677734 0)"/>
     <use xlink:href="#DejaVuSans-61" transform="translate(118.201172 0)"/>
     <use xlink:href="#DejaVuSans-6b" transform="translate(179.480469 0)"/>
     <use xlink:href="#DejaVuSans-3a" transform="translate(237.390625 0)"/>
     <use xlink:href="#DejaVuSans-20" transform="translate(271.082031 0)"/>
     <use xlink:href="#DejaVuSans-52" transform="translate(302.869141 0)"/>
     <use xlink:href="#DejaVuSans-54" transform="translate(365.101562 0)"/>
     <use xlink:href="#DejaVuSans-3d" transform="translate(426.185547 0)"/>
     <use xlink:href="#DejaVuSans-32" transform="translate(509.974609 0)"/>
     <use xlink:href="#DejaVuSans-2e" transform="translate(573.597656 0)"/>
     <use xlink:href="#DejaVuSans-35" transform="translate(605.384766 0)"/>
     <use xlink:href="#DejaVuSans-35" transform="translate(669.007812 0)"/>
     <use xlink:href="#DejaVuSans-2c" transform="translate(732.630859 0)"/>
     <use xlink:href="#DejaVuSans-20" transform="translate(764.417969 0)"/>
     <use xlink:href="#DejaVuSans-41" transform="translate(796.205078 0)"/>
     <use xlink:href="#DejaVuSans-72" transform="translate(864.613281 0)"/>
     <use xlink:href="#DejaVuSans-65" transform="translate(903.476562 0)"/>
     <use xlink:href="#DejaVuSans-61" transform="translate(965 0)"/>
     <use xlink:href="#DejaVuSans-3d" transform="translate(1026.279297 0)"/>
     <use xlink:href="#DejaVuSans-35" transform="translate(1110.068359 0)"/>
     <use xlink:href="#DejaVuSans-2e" transform="translate(1173.691406 0)"/>
     <use xlink:href="#DejaVuSans-32" transform="translate(1205.478516 0)"/>
     <use xlink:href="#DejaVuSans-37" transform="translate(1269.101562 0)"/>
     <use xlink:href="#DejaVuSans-65" transform="translate(1332.724609 0)"/>
     <use xlink:href="#DejaVuSans-2b" transform="translate(1394.248047 0)"/>
     <use xlink:href="#DejaVuSans-30" transform="translate(1478.037109 0)"/>
     <use xlink:href="#DejaVuSans-33" transform="translate(1541.660156 0)"/>
    </g>
    <!-- (19.80% of total) -->
    <g style="fill: #ff0000" transform="translate(530.53124 427.395882) scale(0.1 -0.1)">
     <defs>
      <path id="DejaVuSans-39" d="M 703 97 
L 703 672 
Q 941 559 1184 500 
Q 1428 441 1663 441 
Q 2288 441 2617 861 
Q 2947 1281 2994 2138 
Q 2813 1869 2534 1725 
Q 2256 1581 1919 1581 
Q 1219 1581 811 2004 
Q 403 2428 403 3163 
Q 403 3881 828 4315 
Q 1253 4750 1959 4750 
Q 2769 4750 3195 4129 
Q 3622 3509 3622 2328 
Q 3622 1225 3098 567 
Q 2575 -91 1691 -91 
Q 1453 -91 1209 -44 
Q 966 3 703 97 
z
M 1959 2075 
Q 2384 2075 2632 2365 
Q 2881 2656 2881 3163 
Q 2881 3666 2632 3958 
Q 2384 4250 1959 4250 
Q 1534 4250 1286 3958 
Q 1038 3666 1038 3163 
Q 1038 2656 1286 2365 
Q 1534 2075 1959 2075 
z
" transform="scale(0.015625)"/>
      <path id="DejaVuSans-38" d="M 2034 2216 
Q 1584 2216 1326 1975 
Q 1069 1734 1069 1313 
Q 1069 891 1326 650 
Q 1584 409 2034 409 
Q 2484 409 2743 651 
Q 3003 894 3003 1313 
Q 3003 1734 2745 1975 
Q 2488 2216 2034 2216 
z
M 1403 2484 
Q 997 2584 770 2862 
Q 544 3141 544 3541 
Q 544 4100 942 4425 
Q 1341 4750 2034 4750 
Q 2731 4750 3128 4425 
Q 3525 4100 3525 3541 
Q 3525 3141 3298 2862 
Q 3072 2584 2669 2484 
Q 3125 2378 3379 2068 
Q 3634 1759 3634 1313 
Q 3634 634 3220 271 
Q 2806 -91 2034 -91 
Q 1263 -91 848 271 
Q 434 634 434 1313 
Q 434 1759 690 2068 
Q 947 2378 1403 2484 
z
M 1172 3481 
Q 1172 3119 1398 2916 
Q 1625 2713 2034 2713 
Q 2441 2713 2670 2916 
Q 2900 3119 2900 3481 
Q 2900 3844 2670 4047 
Q 2441 4250 2034 4250 
Q 1625 4250 1398 4047 
Q 1172 3844 1172 3481 
z
" transform="scale(0.015625)"/>
      <path id="DejaVuSans-25" d="M 4653 2053 
Q 4381 2053 4226 1822 
Q 4072 1591 4072 1178 
Q 4072 772 4226 539 
Q 4381 306 4653 306 
Q 4919 306 5073 539 
Q 5228 772 5228 1178 
Q 5228 1588 5073 1820 
Q 4919 2053 4653 2053 
z
M 4653 2450 
Q 5147 2450 5437 2106 
Q 5728 1763 5728 1178 
Q 5728 594 5436 251 
Q 5144 -91 4653 -91 
Q 4153 -91 3862 251 
Q 3572 594 3572 1178 
Q 3572 1766 3864 2108 
Q 4156 2450 4653 2450 
z
M 1428 4353 
Q 1159 4353 1004 4120 
Q 850 3888 850 3481 
Q 850 3069 1003 2837 
Q 1156 2606 1428 2606 
Q 1700 2606 1854 2837 
Q 2009 3069 2009 3481 
Q 2009 3884 1853 4118 
Q 1697 4353 1428 4353 
z
M 4250 4750 
L 4750 4750 
L 1831 -91 
L 1331 -91 
L 4250 4750 
z
M 1428 4750 
Q 1922 4750 2215 4408 
Q 2509 4066 2509 3481 
Q 2509 2891 2217 2550 
Q 1925 2209 1428 2209 
Q 931 2209 642 2551 
Q 353 2894 353 3481 
Q 353 4063 643 4406 
Q 934 4750 1428 4750 
z
" transform="scale(0.015625)"/>
      <path id="DejaVuSans-66" d="M 2375 4863 
L 2375 4384 
L 1825 4384 
Q 1516 4384 1395 4259 
Q 1275 4134 1275 3809 
L 1275 3500 
L 2222 3500 
L 2222 3053 
L 1275 3053 
L 1275 0 
L 697 0 
L 697 3053 
L 147 3053 
L 147 3500 
L 697 3500 
L 697 3744 
Q 697 4328 969 4595 
Q 1241 4863 1831 4863 
L 2375 4863 
z
" transform="scale(0.015625)"/>
     </defs>
     <use xlink:href="#DejaVuSans-28"/>
     <use xlink:href="#DejaVuSans-31" transform="translate(39.013672 0)"/>
     <use xlink:href="#DejaVuSans-39" transform="translate(102.636719 0)"/>
     <use xlink:href="#DejaVuSans-2e" transform="translate(166.259766 0)"/>
     <use xlink:href="#DejaVuSans-38" transform="translate(198.046875 0)"/>
     <use xlink:href="#DejaVuSans-30" transform="translate(261.669922 0)"/>
     <use xlink:href="#DejaVuSans-25" transform="translate(325.292969 0)"/>
     <use xlink:href="#DejaVuSans-20" transform="translate(420.3125 0)"/>
     <use xlink:href="#DejaVuSans-6f" transform="translate(452.099609 0)"/>
     <use xlink:href="#DejaVuSans-66" transform="translate(513.28125 0)"/>
     <use xlink:href="#DejaVuSans-20" transform="translate(548.486328 0)"/>
     <use xlink:href="#DejaVuSans-74" transform="translate(580.273438 0)"/>
     <use xlink:href="#DejaVuSans-6f" transform="translate(619.482422 0)"/>
     <use xlink:href="#DejaVuSans-74" transform="translate(680.664062 0)"/>
     <use xlink:href="#DejaVuSans-61" transform="translate(719.873047 0)"/>
     <use xlink:href="#DejaVuSans-6c" transform="translate(781.152344 0)"/>
     <use xlink:href="#DejaVuSans-29" transform="translate(808.935547 0)"/>
    </g>
   </g>
   <g id="text_16">
    <!-- UV &amp; MS Chromatograms: IrCp1J24, target m/z=583.2033285 -->
    <g transform="translate(264.641875 20.88) scale(0.12 -0.12)">
     <defs>
      <path id="DejaVuSans-55" d="M 556 4666 
L 1191 4666 
L 1191 1831 
Q 1191 1081 1462 751 
Q 1734 422 2344 422 
Q 2950 422 3222 751 
Q 3494 1081 3494 1831 
L 3494 4666 
L 4128 4666 
L 4128 1753 
Q 4128 841 3676 375 
Q 3225 -91 2344 -91 
Q 1459 -91 1007 375 
Q 556 841 556 1753 
L 556 4666 
z
" transform="scale(0.015625)"/>
      <path id="DejaVuSans-56" d="M 1831 0 
L 50 4666 
L 709 4666 
L 2188 738 
L 3669 4666 
L 4325 4666 
L 2547 0 
L 1831 0 
z
" transform="scale(0.015625)"/>
      <path id="DejaVuSans-26" d="M 1556 2509 
Q 1272 2256 1139 2004 
Q 1006 1753 1006 1478 
Q 1006 1022 1337 719 
Q 1669 416 2169 416 
Q 2466 416 2725 514 
Q 2984 613 3213 813 
L 1556 2509 
z
M 1997 2859 
L 3584 1234 
Q 3769 1513 3872 1830 
Q 3975 2147 3994 2503 
L 4575 2503 
Q 4538 2091 4375 1687 
Q 4213 1284 3922 891 
L 4794 0 
L 4006 0 
L 3559 459 
Q 3234 181 2878 45 
Q 2522 -91 2113 -91 
Q 1359 -91 881 339 
Q 403 769 403 1441 
Q 403 1841 612 2192 
Q 822 2544 1241 2853 
Q 1091 3050 1012 3245 
Q 934 3441 934 3628 
Q 934 4134 1281 4442 
Q 1628 4750 2203 4750 
Q 2463 4750 2720 4694 
Q 2978 4638 3244 4525 
L 3244 3956 
Q 2972 4103 2725 4179 
Q 2478 4256 2266 4256 
Q 1938 4256 1733 4082 
Q 1528 3909 1528 3634 
Q 1528 3475 1620 3314 
Q 1713 3153 1997 2859 
z
" transform="scale(0.015625)"/>
      <path id="DejaVuSans-4d" d="M 628 4666 
L 1569 4666 
L 2759 1491 
L 3956 4666 
L 4897 4666 
L 4897 0 
L 4281 0 
L 4281 4097 
L 3078 897 
L 2444 897 
L 1241 4097 
L 1241 0 
L 628 0 
L 628 4666 
z
" transform="scale(0.015625)"/>
      <path id="DejaVuSans-53" d="M 3425 4513 
L 3425 3897 
Q 3066 4069 2747 4153 
Q 2428 4238 2131 4238 
Q 1616 4238 1336 4038 
Q 1056 3838 1056 3469 
Q 1056 3159 1242 3001 
Q 1428 2844 1947 2747 
L 2328 2669 
Q 3034 2534 3370 2195 
Q 3706 1856 3706 1288 
Q 3706 609 3251 259 
Q 2797 -91 1919 -91 
Q 1588 -91 1214 -16 
Q 841 59 441 206 
L 441 856 
Q 825 641 1194 531 
Q 1563 422 1919 422 
Q 2459 422 2753 634 
Q 3047 847 3047 1241 
Q 3047 1584 2836 1778 
Q 2625 1972 2144 2069 
L 1759 2144 
Q 1053 2284 737 2584 
Q 422 2884 422 3419 
Q 422 4038 858 4394 
Q 1294 4750 2059 4750 
Q 2388 4750 2728 4690 
Q 3069 4631 3425 4513 
z
" transform="scale(0.015625)"/>
      <path id="DejaVuSans-43" d="M 4122 4306 
L 4122 3641 
Q 3803 3938 3442 4084 
Q 3081 4231 2675 4231 
Q 1875 4231 1450 3742 
Q 1025 3253 1025 2328 
Q 1025 1406 1450 917 
Q 1875 428 2675 428 
Q 3081 428 3442 575 
Q 3803 722 4122 1019 
L 4122 359 
Q 3791 134 3420 21 
Q 3050 -91 2638 -91 
Q 1578 -91 968 557 
Q 359 1206 359 2328 
Q 359 3453 968 4101 
Q 1578 4750 2638 4750 
Q 3056 4750 3426 4639 
Q 3797 4528 4122 4306 
z
" transform="scale(0.015625)"/>
      <path id="DejaVuSans-68" d="M 3513 2113 
L 3513 0 
L 2938 0 
L 2938 2094 
Q 2938 2591 2744 2837 
Q 2550 3084 2163 3084 
Q 1697 3084 1428 2787 
Q 1159 2491 1159 1978 
L 1159 0 
L 581 0 
L 581 4863 
L 1159 4863 
L 1159 2956 
Q 1366 3272 1645 3428 
Q 1925 3584 2291 3584 
Q 2894 3584 3203 3211 
Q 3513 2838 3513 2113 
z
" transform="scale(0.015625)"/>
      <path id="DejaVuSans-67" d="M 2906 1791 
Q 2906 2416 2648 2759 
Q 2391 3103 1925 3103 
Q 1463 3103 1205 2759 
Q 947 2416 947 1791 
Q 947 1169 1205 825 
Q 1463 481 1925 481 
Q 2391 481 2648 825 
Q 2906 1169 2906 1791 
z
M 3481 434 
Q 3481 -459 3084 -895 
Q 2688 -1331 1869 -1331 
Q 1566 -1331 1297 -1286 
Q 1028 -1241 775 -1147 
L 775 -588 
Q 1028 -725 1275 -790 
Q 1522 -856 1778 -856 
Q 2344 -856 2625 -561 
Q 2906 -266 2906 331 
L 2906 616 
Q 2728 306 2450 153 
Q 2172 0 1784 0 
Q 1141 0 747 490 
Q 353 981 353 1791 
Q 353 2603 747 3093 
Q 1141 3584 1784 3584 
Q 2172 3584 2450 3431 
Q 2728 3278 2906 2969 
L 2906 3500 
L 3481 3500 
L 3481 434 
z
" transform="scale(0.015625)"/>
      <path id="DejaVuSans-70" d="M 1159 525 
L 1159 -1331 
L 581 -1331 
L 581 3500 
L 1159 3500 
L 1159 2969 
Q 1341 3281 1617 3432 
Q 1894 3584 2278 3584 
Q 2916 3584 3314 3078 
Q 3713 2572 3713 1747 
Q 3713 922 3314 415 
Q 2916 -91 2278 -91 
Q 1894 -91 1617 61 
Q 1341 213 1159 525 
z
M 3116 1747 
Q 3116 2381 2855 2742 
Q 2594 3103 2138 3103 
Q 1681 3103 1420 2742 
Q 1159 2381 1159 1747 
Q 1159 1113 1420 752 
Q 1681 391 2138 391 
Q 2594 391 2855 752 
Q 3116 1113 3116 1747 
z
" transform="scale(0.015625)"/>
      <path id="DejaVuSans-4a" d="M 628 4666 
L 1259 4666 
L 1259 325 
Q 1259 -519 939 -900 
Q 619 -1281 -91 -1281 
L -331 -1281 
L -331 -750 
L -134 -750 
Q 284 -750 456 -515 
Q 628 -281 628 325 
L 628 4666 
z
" transform="scale(0.015625)"/>
      <path id="DejaVuSans-2f" d="M 1625 4666 
L 2156 4666 
L 531 -594 
L 0 -594 
L 1625 4666 
z
" transform="scale(0.015625)"/>
     </defs>
     <use xlink:href="#DejaVuSans-55"/>
     <use xlink:href="#DejaVuSans-56" transform="translate(73.193359 0)"/>
     <use xlink:href="#DejaVuSans-20" transform="translate(141.601562 0)"/>
     <use xlink:href="#DejaVuSans-26" transform="translate(173.388672 0)"/>
     <use xlink:href="#DejaVuSans-20" transform="translate(251.367188 0)"/>
     <use xlink:href="#DejaVuSans-4d" transform="translate(283.154297 0)"/>
     <use xlink:href="#DejaVuSans-53" transform="translate(369.433594 0)"/>
     <use xlink:href="#DejaVuSans-20" transform="translate(432.910156 0)"/>
     <use xlink:href="#DejaVuSans-43" transform="translate(464.697266 0)"/>
     <use xlink:href="#DejaVuSans-68" transform="translate(534.521484 0)"/>
     <use xlink:href="#DejaVuSans-72" transform="translate(597.900391 0)"/>
     <use xlink:href="#DejaVuSans-6f" transform="translate(636.763672 0)"/>
     <use xlink:href="#DejaVuSans-6d" transform="translate(697.945312 0)"/>
     <use xlink:href="#DejaVuSans-61" transform="translate(795.357422 0)"/>
     <use xlink:href="#DejaVuSans-74" transform="translate(856.636719 0)"/>
     <use xlink:href="#DejaVuSans-6f" transform="translate(895.845703 0)"/>
     <use xlink:href="#DejaVuSans-67" transform="translate(957.027344 0)"/>
     <use xlink:href="#DejaVuSans-72" transform="translate(1020.503906 0)"/>
     <use xlink:href="#DejaVuSans-61" transform="translate(1061.617188 0)"/>
     <use xlink:href="#DejaVuSans-6d" transform="translate(1122.896484 0)"/>
     <use xlink:href="#DejaVuSans-73" transform="translate(1220.308594 0)"/>
     <use xlink:href="#DejaVuSans-3a" transform="translate(1272.408203 0)"/>
     <use xlink:href="#DejaVuSans-20" transform="translate(1306.099609 0)"/>
     <use xlink:href="#DejaVuSans-49" transform="translate(1337.886719 0)"/>
     <use xlink:href="#DejaVuSans-72" transform="translate(1367.378906 0)"/>
     <use xlink:href="#DejaVuSans-43" transform="translate(1408.492188 0)"/>
     <use xlink:href="#DejaVuSans-70" transform="translate(1478.316406 0)"/>
     <use xlink:href="#DejaVuSans-31" transform="translate(1541.792969 0)"/>
     <use xlink:href="#DejaVuSans-4a" transform="translate(1605.416016 0)"/>
     <use xlink:href="#DejaVuSans-32" transform="translate(1634.908203 0)"/>
     <use xlink:href="#DejaVuSans-34" transform="translate(1698.53125 0)"/>
     <use xlink:href="#DejaVuSans-2c" transform="translate(1762.154297 0)"/>
     <use xlink:href="#DejaVuSans-20" transform="translate(1793.941406 0)"/>
     <use xlink:href="#DejaVuSans-74" transform="translate(1825.728516 0)"/>
     <use xlink:href="#DejaVuSans-61" transform="translate(1864.9375 0)"/>
     <use xlink:href="#DejaVuSans-72" transform="translate(1926.216797 0)"/>
     <use xlink:href="#DejaVuSans-67" transform="translate(1965.580078 0)"/>
     <use xlink:href="#DejaVuSans-65" transform="translate(2029.056641 0)"/>
     <use xlink:href="#DejaVuSans-74" transform="translate(2090.580078 0)"/>
     <use xlink:href="#DejaVuSans-20" transform="translate(2129.789062 0)"/>
     <use xlink:href="#DejaVuSans-6d" transform="translate(2161.576172 0)"/>
     <use xlink:href="#DejaVuSans-2f" transform="translate(2258.988281 0)"/>
     <use xlink:href="#DejaVuSans-7a" transform="translate(2292.679688 0)"/>
     <use xlink:href="#DejaVuSans-3d" transform="translate(2345.169922 0)"/>
     <use xlink:href="#DejaVuSans-35" transform="translate(2428.958984 0)"/>
     <use xlink:href="#DejaVuSans-38" transform="translate(2492.582031 0)"/>
     <use xlink:href="#DejaVuSans-33" transform="translate(2556.205078 0)"/>
     <use xlink:href="#DejaVuSans-2e" transform="translate(2619.828125 0)"/>
     <use xlink:href="#DejaVuSans-32" transform="translate(2651.615234 0)"/>
     <use xlink:href="#DejaVuSans-30" transform="translate(2715.238281 0)"/>
     <use xlink:href="#DejaVuSans-33" transform="translate(2778.861328 0)"/>
     <use xlink:href="#DejaVuSans-33" transform="translate(2842.484375 0)"/>
     <use xlink:href="#DejaVuSans-32" transform="translate(2906.107422 0)"/>
     <use xlink:href="#DejaVuSans-38" transform="translate(2969.730469 0)"/>
     <use xlink:href="#DejaVuSans-35" transform="translate(3033.353516 0)"/>
    </g>
   </g>
   <g id="legend_1">
    <g id="patch_8">
     <path d="M 685.971875 64.23625 
L 846.2 64.23625 
Q 848.2 64.23625 848.2 62.23625 
L 848.2 33.88 
Q 848.2 31.88 846.2 31.88 
L 685.971875 31.88 
Q 683.971875 31.88 683.971875 33.88 
L 683.971875 62.23625 
Q 683.971875 64.23625 685.971875 64.23625 
z
" style="fill: #ffffff; opacity: 0.8; stroke: #cccccc; stroke-linejoin: miter"/>
    </g>
    <g id="line2d_15">
     <path d="M 687.971875 39.978437 
L 697.971875 39.978437 
L 707.971875 39.978437 
" style="fill: none; stroke: #0000ff; stroke-width: 1.5; stroke-linecap: square"/>
    </g>
    <g id="text_17">
     <!-- UV Intensity (normalized) -->
     <g transform="translate(715.971875 43.478437) scale(0.1 -0.1)">
      <use xlink:href="#DejaVuSans-55"/>
      <use xlink:href="#DejaVuSans-56" transform="translate(73.193359 0)"/>
      <use xlink:href="#DejaVuSans-20" transform="translate(141.601562 0)"/>
      <use xlink:href="#DejaVuSans-49" transform="translate(173.388672 0)"/>
      <use xlink:href="#DejaVuSans-6e" transform="translate(202.880859 0)"/>
      <use xlink:href="#DejaVuSans-74" transform="translate(266.259766 0)"/>
      <use xlink:href="#DejaVuSans-65" transform="translate(305.46875 0)"/>
      <use xlink:href="#DejaVuSans-6e" transform="translate(366.992188 0)"/>
      <use xlink:href="#DejaVuSans-73" transform="translate(430.371094 0)"/>
      <use xlink:href="#DejaVuSans-69" transform="translate(482.470703 0)"/>
      <use xlink:href="#DejaVuSans-74" transform="translate(510.253906 0)"/>
      <use xlink:href="#DejaVuSans-79" transform="translate(549.462891 0)"/>
      <use xlink:href="#DejaVuSans-20" transform="translate(608.642578 0)"/>
      <use xlink:href="#DejaVuSans-28" transform="translate(640.429688 0)"/>
      <use xlink:href="#DejaVuSans-6e" transform="translate(679.443359 0)"/>
      <use xlink:href="#DejaVuSans-6f" transform="translate(742.822266 0)"/>
      <use xlink:href="#DejaVuSans-72" transform="translate(804.003906 0)"/>
      <use xlink:href="#DejaVuSans-6d" transform="translate(843.367188 0)"/>
      <use xlink:href="#DejaVuSans-61" transform="translate(940.779297 0)"/>
      <use xlink:href="#DejaVuSans-6c" transform="translate(1002.058594 0)"/>
      <use xlink:href="#DejaVuSans-69" transform="translate(1029.841797 0)"/>
      <use xlink:href="#DejaVuSans-7a" transform="translate(1057.625 0)"/>
      <use xlink:href="#DejaVuSans-65" transform="translate(1110.115234 0)"/>
      <use xlink:href="#DejaVuSans-64" transform="translate(1171.638672 0)"/>
      <use xlink:href="#DejaVuSans-29" transform="translate(1235.115234 0)"/>
     </g>
    </g>
    <g id="line2d_16">
     <path d="M 687.971875 54.656562 
L 697.971875 54.656562 
L 707.971875 54.656562 
" style="fill: none; stroke: #008000; stroke-width: 1.5; stroke-linecap: square"/>
    </g>
    <g id="text_18">
     <!-- MS Intensity (normalized) -->
     <g transform="translate(715.971875 58.156562) scale(0.1 -0.1)">
      <use xlink:href="#DejaVuSans-4d"/>
      <use xlink:href="#DejaVuSans-53" transform="translate(86.279297 0)"/>
      <use xlink:href="#DejaVuSans-20" transform="translate(149.755859 0)"/>
      <use xlink:href="#DejaVuSans-49" transform="translate(181.542969 0)"/>
      <use xlink:href="#DejaVuSans-6e" transform="translate(211.035156 0)"/>
      <use xlink:href="#DejaVuSans-74" transform="translate(274.414062 0)"/>
      <use xlink:href="#DejaVuSans-65" transform="translate(313.623047 0)"/>
      <use xlink:href="#DejaVuSans-6e" transform="translate(375.146484 0)"/>
      <use xlink:href="#DejaVuSans-73" transform="translate(438.525391 0)"/>
      <use xlink:href="#DejaVuSans-69" transform="translate(490.625 0)"/>
      <use xlink:href="#DejaVuSans-74" transform="translate(518.408203 0)"/>
      <use xlink:href="#DejaVuSans-79" transform="translate(557.617188 0)"/>
      <use xlink:href="#DejaVuSans-20" transform="translate(616.796875 0)"/>
      <use xlink:href="#DejaVuSans-28" transform="translate(648.583984 0)"/>
      <use xlink:href="#DejaVuSans-6e" transform="translate(687.597656 0)"/>
      <use xlink:href="#DejaVuSans-6f" transform="translate(750.976562 0)"/>
      <use xlink:href="#DejaVuSans-72" transform="translate(812.158203 0)"/>
      <use xlink:href="#DejaVuSans-6d" transform="translate(851.521484 0)"/>
      <use xlink:href="#DejaVuSans-61" transform="translate(948.933594 0)"/>
      <use xlink:href="#DejaVuSans-6c" transform="translate(1010.212891 0)"/>
      <use xlink:href="#DejaVuSans-69" transform="translate(1037.996094 0)"/>
      <use xlink:href="#DejaVuSans-7a" transform="translate(1065.779297 0)"/>
      <use xlink:href="#DejaVuSans-65" transform="translate(1118.269531 0)"/>
      <use xlink:href="#DejaVuSans-64" transform="translate(1179.792969 0)"/>
      <use xlink:href="#DejaVuSans-29" transform="translate(1243.269531 0)"/>
     </g>
    </g>
   </g>
  </g>
 </g>
 <defs>
  <clipPath id="pc01813bca9">
   <rect x="47.72" y="26.88" width="805.48" height="507.16"/>
  </clipPath>
 </defs>
</svg>
