<?xml version="1.0" encoding="utf-8" standalone="no"?>
<!DOCTYPE svg PUBLIC "-//W3C//DTD SVG 1.1//EN"
  "http://www.w3.org/Graphics/SVG/1.1/DTD/svg11.dtd">
<svg xmlns:xlink="http://www.w3.org/1999/xlink" width="864pt" height="576pt" viewBox="0 0 864 576" xmlns="http://www.w3.org/2000/svg" version="1.1">
 <metadata>
  <rdf:RDF xmlns:dc="http://purl.org/dc/elements/1.1/" xmlns:cc="http://creativecommons.org/ns#" xmlns:rdf="http://www.w3.org/1999/02/22-rdf-syntax-ns#">
   <cc:Work>
    <dc:type rdf:resource="http://purl.org/dc/dcmitype/StillImage"/>
    <dc:date>2025-03-06T18:37:30.213297</dc:date>
    <dc:format>image/svg+xml</dc:format>
    <dc:creator>
     <cc:Agent>
      <dc:title>Matplotlib v3.10.0, https://matplotlib.org/</dc:title>
     </cc:Agent>
    </dc:creator>
   </cc:Work>
  </rdf:RDF>
 </metadata>
 <defs>
  <style type="text/css">*{stroke-linejoin: round; stroke-linecap: butt}</style>
 </defs>
 <g id="figure_1">
  <g id="patch_1">
   <path d="M 0 576 
L 864 576 
L 864 0 
L 0 0 
z
" style="fill: #ffffff"/>
  </g>
  <g id="axes_1">
   <g id="patch_2">
    <path d="M 47.72 534.04 
L 853.2 534.04 
L 853.2 26.88 
L 47.72 26.88 
z
" style="fill: #ffffff"/>
   </g>
   <g id="matplotlib.axis_1">
    <g id="xtick_1">
     <g id="line2d_1">
      <defs>
       <path id="mb2a3d34599" d="M 0 0 
L 0 3.5 
" style="stroke: #000000; stroke-width: 0.8"/>
      </defs>
      <g>
       <use xlink:href="#mb2a3d34599" x="83.095596" y="534.04" style="stroke: #000000; stroke-width: 0.8"/>
      </g>
     </g>
     <g id="text_1">
      <!-- 0 -->
      <g transform="translate(79.914346 548.638438) scale(0.1 -0.1)">
       <defs>
        <path id="DejaVuSans-30" d="M 2034 4250 
Q 1547 4250 1301 3770 
Q 1056 3291 1056 2328 
Q 1056 1369 1301 889 
Q 1547 409 2034 409 
Q 2525 409 2770 889 
Q 3016 1369 3016 2328 
Q 3016 3291 2770 3770 
Q 2525 4250 2034 4250 
z
M 2034 4750 
Q 2819 4750 3233 4129 
Q 3647 3509 3647 2328 
Q 3647 1150 3233 529 
Q 2819 -91 2034 -91 
Q 1250 -91 836 529 
Q 422 1150 422 2328 
Q 422 3509 836 4129 
Q 1250 4750 2034 4750 
z
" transform="scale(0.015625)"/>
       </defs>
       <use xlink:href="#DejaVuSans-30"/>
      </g>
     </g>
    </g>
    <g id="xtick_2">
     <g id="line2d_2">
      <g>
       <use xlink:href="#mb2a3d34599" x="229.790997" y="534.04" style="stroke: #000000; stroke-width: 0.8"/>
      </g>
     </g>
     <g id="text_2">
      <!-- 1 -->
      <g transform="translate(226.609747 548.638438) scale(0.1 -0.1)">
       <defs>
        <path id="DejaVuSans-31" d="M 794 531 
L 1825 531 
L 1825 4091 
L 703 3866 
L 703 4441 
L 1819 4666 
L 2450 4666 
L 2450 531 
L 3481 531 
L 3481 0 
L 794 0 
L 794 531 
z
" transform="scale(0.015625)"/>
       </defs>
       <use xlink:href="#DejaVuSans-31"/>
      </g>
     </g>
    </g>
    <g id="xtick_3">
     <g id="line2d_3">
      <g>
       <use xlink:href="#mb2a3d34599" x="376.486399" y="534.04" style="stroke: #000000; stroke-width: 0.8"/>
      </g>
     </g>
     <g id="text_3">
      <!-- 2 -->
      <g transform="translate(373.305149 548.638438) scale(0.1 -0.1)">
       <defs>
        <path id="DejaVuSans-32" d="M 1228 531 
L 3431 531 
L 3431 0 
L 469 0 
L 469 531 
Q 828 903 1448 1529 
Q 2069 2156 2228 2338 
Q 2531 2678 2651 2914 
Q 2772 3150 2772 3378 
Q 2772 3750 2511 3984 
Q 2250 4219 1831 4219 
Q 1534 4219 1204 4116 
Q 875 4013 500 3803 
L 500 4441 
Q 881 4594 1212 4672 
Q 1544 4750 1819 4750 
Q 2544 4750 2975 4387 
Q 3406 4025 3406 3419 
Q 3406 3131 3298 2873 
Q 3191 2616 2906 2266 
Q 2828 2175 2409 1742 
Q 1991 1309 1228 531 
z
" transform="scale(0.015625)"/>
       </defs>
       <use xlink:href="#DejaVuSans-32"/>
      </g>
     </g>
    </g>
    <g id="xtick_4">
     <g id="line2d_4">
      <g>
       <use xlink:href="#mb2a3d34599" x="523.1818" y="534.04" style="stroke: #000000; stroke-width: 0.8"/>
      </g>
     </g>
     <g id="text_4">
      <!-- 3 -->
      <g transform="translate(520.00055 548.638438) scale(0.1 -0.1)">
       <defs>
        <path id="DejaVuSans-33" d="M 2597 2516 
Q 3050 2419 3304 2112 
Q 3559 1806 3559 1356 
Q 3559 666 3084 287 
Q 2609 -91 1734 -91 
Q 1441 -91 1130 -33 
Q 819 25 488 141 
L 488 750 
Q 750 597 1062 519 
Q 1375 441 1716 441 
Q 2309 441 2620 675 
Q 2931 909 2931 1356 
Q 2931 1769 2642 2001 
Q 2353 2234 1838 2234 
L 1294 2234 
L 1294 2753 
L 1863 2753 
Q 2328 2753 2575 2939 
Q 2822 3125 2822 3475 
Q 2822 3834 2567 4026 
Q 2313 4219 1838 4219 
Q 1578 4219 1281 4162 
Q 984 4106 628 3988 
L 628 4550 
Q 988 4650 1302 4700 
Q 1616 4750 1894 4750 
Q 2613 4750 3031 4423 
Q 3450 4097 3450 3541 
Q 3450 3153 3228 2886 
Q 3006 2619 2597 2516 
z
" transform="scale(0.015625)"/>
       </defs>
       <use xlink:href="#DejaVuSans-33"/>
      </g>
     </g>
    </g>
    <g id="xtick_5">
     <g id="line2d_5">
      <g>
       <use xlink:href="#mb2a3d34599" x="669.877202" y="534.04" style="stroke: #000000; stroke-width: 0.8"/>
      </g>
     </g>
     <g id="text_5">
      <!-- 4 -->
      <g transform="translate(666.695952 548.638438) scale(0.1 -0.1)">
       <defs>
        <path id="DejaVuSans-34" d="M 2419 4116 
L 825 1625 
L 2419 1625 
L 2419 4116 
z
M 2253 4666 
L 3047 4666 
L 3047 1625 
L 3713 1625 
L 3713 1100 
L 3047 1100 
L 3047 0 
L 2419 0 
L 2419 1100 
L 313 1100 
L 313 1709 
L 2253 4666 
z
" transform="scale(0.015625)"/>
       </defs>
       <use xlink:href="#DejaVuSans-34"/>
      </g>
     </g>
    </g>
    <g id="xtick_6">
     <g id="line2d_6">
      <g>
       <use xlink:href="#mb2a3d34599" x="816.572603" y="534.04" style="stroke: #000000; stroke-width: 0.8"/>
      </g>
     </g>
     <g id="text_6">
      <!-- 5 -->
      <g transform="translate(813.391353 548.638438) scale(0.1 -0.1)">
       <defs>
        <path id="DejaVuSans-35" d="M 691 4666 
L 3169 4666 
L 3169 4134 
L 1269 4134 
L 1269 2991 
Q 1406 3038 1543 3061 
Q 1681 3084 1819 3084 
Q 2600 3084 3056 2656 
Q 3513 2228 3513 1497 
Q 3513 744 3044 326 
Q 2575 -91 1722 -91 
Q 1428 -91 1123 -41 
Q 819 9 494 109 
L 494 744 
Q 775 591 1075 516 
Q 1375 441 1709 441 
Q 2250 441 2565 725 
Q 2881 1009 2881 1497 
Q 2881 1984 2565 2268 
Q 2250 2553 1709 2553 
Q 1456 2553 1204 2497 
Q 953 2441 691 2322 
L 691 4666 
z
" transform="scale(0.015625)"/>
       </defs>
       <use xlink:href="#DejaVuSans-35"/>
      </g>
     </g>
    </g>
    <g id="text_7">
     <!-- Retention Time (min) -->
     <g transform="translate(397.61 562.316562) scale(0.1 -0.1)">
      <defs>
       <path id="DejaVuSans-52" d="M 2841 2188 
Q 3044 2119 3236 1894 
Q 3428 1669 3622 1275 
L 4263 0 
L 3584 0 
L 2988 1197 
Q 2756 1666 2539 1819 
Q 2322 1972 1947 1972 
L 1259 1972 
L 1259 0 
L 628 0 
L 628 4666 
L 2053 4666 
Q 2853 4666 3247 4331 
Q 3641 3997 3641 3322 
Q 3641 2881 3436 2590 
Q 3231 2300 2841 2188 
z
M 1259 4147 
L 1259 2491 
L 2053 2491 
Q 2509 2491 2742 2702 
Q 2975 2913 2975 3322 
Q 2975 3731 2742 3939 
Q 2509 4147 2053 4147 
L 1259 4147 
z
" transform="scale(0.015625)"/>
       <path id="DejaVuSans-65" d="M 3597 1894 
L 3597 1613 
L 953 1613 
Q 991 1019 1311 708 
Q 1631 397 2203 397 
Q 2534 397 2845 478 
Q 3156 559 3463 722 
L 3463 178 
Q 3153 47 2828 -22 
Q 2503 -91 2169 -91 
Q 1331 -91 842 396 
Q 353 884 353 1716 
Q 353 2575 817 3079 
Q 1281 3584 2069 3584 
Q 2775 3584 3186 3129 
Q 3597 2675 3597 1894 
z
M 3022 2063 
Q 3016 2534 2758 2815 
Q 2500 3097 2075 3097 
Q 1594 3097 1305 2825 
Q 1016 2553 972 2059 
L 3022 2063 
z
" transform="scale(0.015625)"/>
       <path id="DejaVuSans-74" d="M 1172 4494 
L 1172 3500 
L 2356 3500 
L 2356 3053 
L 1172 3053 
L 1172 1153 
Q 1172 725 1289 603 
Q 1406 481 1766 481 
L 2356 481 
L 2356 0 
L 1766 0 
Q 1100 0 847 248 
Q 594 497 594 1153 
L 594 3053 
L 172 3053 
L 172 3500 
L 594 3500 
L 594 4494 
L 1172 4494 
z
" transform="scale(0.015625)"/>
       <path id="DejaVuSans-6e" d="M 3513 2113 
L 3513 0 
L 2938 0 
L 2938 2094 
Q 2938 2591 2744 2837 
Q 2550 3084 2163 3084 
Q 1697 3084 1428 2787 
Q 1159 2491 1159 1978 
L 1159 0 
L 581 0 
L 581 3500 
L 1159 3500 
L 1159 2956 
Q 1366 3272 1645 3428 
Q 1925 3584 2291 3584 
Q 2894 3584 3203 3211 
Q 3513 2838 3513 2113 
z
" transform="scale(0.015625)"/>
       <path id="DejaVuSans-69" d="M 603 3500 
L 1178 3500 
L 1178 0 
L 603 0 
L 603 3500 
z
M 603 4863 
L 1178 4863 
L 1178 4134 
L 603 4134 
L 603 4863 
z
" transform="scale(0.015625)"/>
       <path id="DejaVuSans-6f" d="M 1959 3097 
Q 1497 3097 1228 2736 
Q 959 2375 959 1747 
Q 959 1119 1226 758 
Q 1494 397 1959 397 
Q 2419 397 2687 759 
Q 2956 1122 2956 1747 
Q 2956 2369 2687 2733 
Q 2419 3097 1959 3097 
z
M 1959 3584 
Q 2709 3584 3137 3096 
Q 3566 2609 3566 1747 
Q 3566 888 3137 398 
Q 2709 -91 1959 -91 
Q 1206 -91 779 398 
Q 353 888 353 1747 
Q 353 2609 779 3096 
Q 1206 3584 1959 3584 
z
" transform="scale(0.015625)"/>
       <path id="DejaVuSans-20" transform="scale(0.015625)"/>
       <path id="DejaVuSans-54" d="M -19 4666 
L 3928 4666 
L 3928 4134 
L 2272 4134 
L 2272 0 
L 1638 0 
L 1638 4134 
L -19 4134 
L -19 4666 
z
" transform="scale(0.015625)"/>
       <path id="DejaVuSans-6d" d="M 3328 2828 
Q 3544 3216 3844 3400 
Q 4144 3584 4550 3584 
Q 5097 3584 5394 3201 
Q 5691 2819 5691 2113 
L 5691 0 
L 5113 0 
L 5113 2094 
Q 5113 2597 4934 2840 
Q 4756 3084 4391 3084 
Q 3944 3084 3684 2787 
Q 3425 2491 3425 1978 
L 3425 0 
L 2847 0 
L 2847 2094 
Q 2847 2600 2669 2842 
Q 2491 3084 2119 3084 
Q 1678 3084 1418 2786 
Q 1159 2488 1159 1978 
L 1159 0 
L 581 0 
L 581 3500 
L 1159 3500 
L 1159 2956 
Q 1356 3278 1631 3431 
Q 1906 3584 2284 3584 
Q 2666 3584 2933 3390 
Q 3200 3197 3328 2828 
z
" transform="scale(0.015625)"/>
       <path id="DejaVuSans-28" d="M 1984 4856 
Q 1566 4138 1362 3434 
Q 1159 2731 1159 2009 
Q 1159 1288 1364 580 
Q 1569 -128 1984 -844 
L 1484 -844 
Q 1016 -109 783 600 
Q 550 1309 550 2009 
Q 550 2706 781 3412 
Q 1013 4119 1484 4856 
L 1984 4856 
z
" transform="scale(0.015625)"/>
       <path id="DejaVuSans-29" d="M 513 4856 
L 1013 4856 
Q 1481 4119 1714 3412 
Q 1947 2706 1947 2009 
Q 1947 1309 1714 600 
Q 1481 -109 1013 -844 
L 513 -844 
Q 928 -128 1133 580 
Q 1338 1288 1338 2009 
Q 1338 2731 1133 3434 
Q 928 4138 513 4856 
z
" transform="scale(0.015625)"/>
      </defs>
      <use xlink:href="#DejaVuSans-52"/>
      <use xlink:href="#DejaVuSans-65" transform="translate(64.982422 0)"/>
      <use xlink:href="#DejaVuSans-74" transform="translate(126.505859 0)"/>
      <use xlink:href="#DejaVuSans-65" transform="translate(165.714844 0)"/>
      <use xlink:href="#DejaVuSans-6e" transform="translate(227.238281 0)"/>
      <use xlink:href="#DejaVuSans-74" transform="translate(290.617188 0)"/>
      <use xlink:href="#DejaVuSans-69" transform="translate(329.826172 0)"/>
      <use xlink:href="#DejaVuSans-6f" transform="translate(357.609375 0)"/>
      <use xlink:href="#DejaVuSans-6e" transform="translate(418.791016 0)"/>
      <use xlink:href="#DejaVuSans-20" transform="translate(482.169922 0)"/>
      <use xlink:href="#DejaVuSans-54" transform="translate(513.957031 0)"/>
      <use xlink:href="#DejaVuSans-69" transform="translate(571.916016 0)"/>
      <use xlink:href="#DejaVuSans-6d" transform="translate(599.699219 0)"/>
      <use xlink:href="#DejaVuSans-65" transform="translate(697.111328 0)"/>
      <use xlink:href="#DejaVuSans-20" transform="translate(758.634766 0)"/>
      <use xlink:href="#DejaVuSans-28" transform="translate(790.421875 0)"/>
      <use xlink:href="#DejaVuSans-6d" transform="translate(829.435547 0)"/>
      <use xlink:href="#DejaVuSans-69" transform="translate(926.847656 0)"/>
      <use xlink:href="#DejaVuSans-6e" transform="translate(954.630859 0)"/>
      <use xlink:href="#DejaVuSans-29" transform="translate(1018.009766 0)"/>
     </g>
    </g>
   </g>
   <g id="matplotlib.axis_2">
    <g id="ytick_1">
     <g id="line2d_7">
      <defs>
       <path id="mea8131462e" d="M 0 0 
L -3.5 0 
" style="stroke: #000000; stroke-width: 0.8"/>
      </defs>
      <g>
       <use xlink:href="#mea8131462e" x="47.72" y="510.987273" style="stroke: #000000; stroke-width: 0.8"/>
      </g>
     </g>
     <g id="text_8">
      <!-- 0.0 -->
      <g style="fill: #0000ff" transform="translate(24.816875 514.786491) scale(0.1 -0.1)">
       <defs>
        <path id="DejaVuSans-2e" d="M 684 794 
L 1344 794 
L 1344 0 
L 684 0 
L 684 794 
z
" transform="scale(0.015625)"/>
       </defs>
       <use xlink:href="#DejaVuSans-30"/>
       <use xlink:href="#DejaVuSans-2e" transform="translate(63.623047 0)"/>
       <use xlink:href="#DejaVuSans-30" transform="translate(95.410156 0)"/>
      </g>
     </g>
    </g>
    <g id="ytick_2">
     <g id="line2d_8">
      <g>
       <use xlink:href="#mea8131462e" x="47.72" y="418.776364" style="stroke: #000000; stroke-width: 0.8"/>
      </g>
     </g>
     <g id="text_9">
      <!-- 0.5 -->
      <g style="fill: #0000ff" transform="translate(24.816875 422.575582) scale(0.1 -0.1)">
       <use xlink:href="#DejaVuSans-30"/>
       <use xlink:href="#DejaVuSans-2e" transform="translate(63.623047 0)"/>
       <use xlink:href="#DejaVuSans-35" transform="translate(95.410156 0)"/>
      </g>
     </g>
    </g>
    <g id="ytick_3">
     <g id="line2d_9">
      <g>
       <use xlink:href="#mea8131462e" x="47.72" y="326.565455" style="stroke: #000000; stroke-width: 0.8"/>
      </g>
     </g>
     <g id="text_10">
      <!-- 1.0 -->
      <g style="fill: #0000ff" transform="translate(24.816875 330.364673) scale(0.1 -0.1)">
       <use xlink:href="#DejaVuSans-31"/>
       <use xlink:href="#DejaVuSans-2e" transform="translate(63.623047 0)"/>
       <use xlink:href="#DejaVuSans-30" transform="translate(95.410156 0)"/>
      </g>
     </g>
    </g>
    <g id="ytick_4">
     <g id="line2d_10">
      <g>
       <use xlink:href="#mea8131462e" x="47.72" y="234.354545" style="stroke: #000000; stroke-width: 0.8"/>
      </g>
     </g>
     <g id="text_11">
      <!-- 1.5 -->
      <g style="fill: #0000ff" transform="translate(24.816875 238.153764) scale(0.1 -0.1)">
       <use xlink:href="#DejaVuSans-31"/>
       <use xlink:href="#DejaVuSans-2e" transform="translate(63.623047 0)"/>
       <use xlink:href="#DejaVuSans-35" transform="translate(95.410156 0)"/>
      </g>
     </g>
    </g>
    <g id="ytick_5">
     <g id="line2d_11">
      <g>
       <use xlink:href="#mea8131462e" x="47.72" y="142.143636" style="stroke: #000000; stroke-width: 0.8"/>
      </g>
     </g>
     <g id="text_12">
      <!-- 2.0 -->
      <g style="fill: #0000ff" transform="translate(24.816875 145.942855) scale(0.1 -0.1)">
       <use xlink:href="#DejaVuSans-32"/>
       <use xlink:href="#DejaVuSans-2e" transform="translate(63.623047 0)"/>
       <use xlink:href="#DejaVuSans-30" transform="translate(95.410156 0)"/>
      </g>
     </g>
    </g>
    <g id="ytick_6">
     <g id="line2d_12">
      <g>
       <use xlink:href="#mea8131462e" x="47.72" y="49.932727" style="stroke: #000000; stroke-width: 0.8"/>
      </g>
     </g>
     <g id="text_13">
      <!-- 2.5 -->
      <g style="fill: #0000ff" transform="translate(24.816875 53.731946) scale(0.1 -0.1)">
       <use xlink:href="#DejaVuSans-32"/>
       <use xlink:href="#DejaVuSans-2e" transform="translate(63.623047 0)"/>
       <use xlink:href="#DejaVuSans-35" transform="translate(95.410156 0)"/>
      </g>
     </g>
    </g>
    <g id="text_14">
     <!-- Normalized Intensity -->
     <g style="fill: #0000ff" transform="translate(18.737187 332.167031) rotate(-90) scale(0.1 -0.1)">
      <defs>
       <path id="DejaVuSans-4e" d="M 628 4666 
L 1478 4666 
L 3547 763 
L 3547 4666 
L 4159 4666 
L 4159 0 
L 3309 0 
L 1241 3903 
L 1241 0 
L 628 0 
L 628 4666 
z
" transform="scale(0.015625)"/>
       <path id="DejaVuSans-72" d="M 2631 2963 
Q 2534 3019 2420 3045 
Q 2306 3072 2169 3072 
Q 1681 3072 1420 2755 
Q 1159 2438 1159 1844 
L 1159 0 
L 581 0 
L 581 3500 
L 1159 3500 
L 1159 2956 
Q 1341 3275 1631 3429 
Q 1922 3584 2338 3584 
Q 2397 3584 2469 3576 
Q 2541 3569 2628 3553 
L 2631 2963 
z
" transform="scale(0.015625)"/>
       <path id="DejaVuSans-61" d="M 2194 1759 
Q 1497 1759 1228 1600 
Q 959 1441 959 1056 
Q 959 750 1161 570 
Q 1363 391 1709 391 
Q 2188 391 2477 730 
Q 2766 1069 2766 1631 
L 2766 1759 
L 2194 1759 
z
M 3341 1997 
L 3341 0 
L 2766 0 
L 2766 531 
Q 2569 213 2275 61 
Q 1981 -91 1556 -91 
Q 1019 -91 701 211 
Q 384 513 384 1019 
Q 384 1609 779 1909 
Q 1175 2209 1959 2209 
L 2766 2209 
L 2766 2266 
Q 2766 2663 2505 2880 
Q 2244 3097 1772 3097 
Q 1472 3097 1187 3025 
Q 903 2953 641 2809 
L 641 3341 
Q 956 3463 1253 3523 
Q 1550 3584 1831 3584 
Q 2591 3584 2966 3190 
Q 3341 2797 3341 1997 
z
" transform="scale(0.015625)"/>
       <path id="DejaVuSans-6c" d="M 603 4863 
L 1178 4863 
L 1178 0 
L 603 0 
L 603 4863 
z
" transform="scale(0.015625)"/>
       <path id="DejaVuSans-7a" d="M 353 3500 
L 3084 3500 
L 3084 2975 
L 922 459 
L 3084 459 
L 3084 0 
L 275 0 
L 275 525 
L 2438 3041 
L 353 3041 
L 353 3500 
z
" transform="scale(0.015625)"/>
       <path id="DejaVuSans-64" d="M 2906 2969 
L 2906 4863 
L 3481 4863 
L 3481 0 
L 2906 0 
L 2906 525 
Q 2725 213 2448 61 
Q 2172 -91 1784 -91 
Q 1150 -91 751 415 
Q 353 922 353 1747 
Q 353 2572 751 3078 
Q 1150 3584 1784 3584 
Q 2172 3584 2448 3432 
Q 2725 3281 2906 2969 
z
M 947 1747 
Q 947 1113 1208 752 
Q 1469 391 1925 391 
Q 2381 391 2643 752 
Q 2906 1113 2906 1747 
Q 2906 2381 2643 2742 
Q 2381 3103 1925 3103 
Q 1469 3103 1208 2742 
Q 947 2381 947 1747 
z
" transform="scale(0.015625)"/>
       <path id="DejaVuSans-49" d="M 628 4666 
L 1259 4666 
L 1259 0 
L 628 0 
L 628 4666 
z
" transform="scale(0.015625)"/>
       <path id="DejaVuSans-73" d="M 2834 3397 
L 2834 2853 
Q 2591 2978 2328 3040 
Q 2066 3103 1784 3103 
Q 1356 3103 1142 2972 
Q 928 2841 928 2578 
Q 928 2378 1081 2264 
Q 1234 2150 1697 2047 
L 1894 2003 
Q 2506 1872 2764 1633 
Q 3022 1394 3022 966 
Q 3022 478 2636 193 
Q 2250 -91 1575 -91 
Q 1294 -91 989 -36 
Q 684 19 347 128 
L 347 722 
Q 666 556 975 473 
Q 1284 391 1588 391 
Q 1994 391 2212 530 
Q 2431 669 2431 922 
Q 2431 1156 2273 1281 
Q 2116 1406 1581 1522 
L 1381 1569 
Q 847 1681 609 1914 
Q 372 2147 372 2553 
Q 372 3047 722 3315 
Q 1072 3584 1716 3584 
Q 2034 3584 2315 3537 
Q 2597 3491 2834 3397 
z
" transform="scale(0.015625)"/>
       <path id="DejaVuSans-79" d="M 2059 -325 
Q 1816 -950 1584 -1140 
Q 1353 -1331 966 -1331 
L 506 -1331 
L 506 -850 
L 844 -850 
Q 1081 -850 1212 -737 
Q 1344 -625 1503 -206 
L 1606 56 
L 191 3500 
L 800 3500 
L 1894 763 
L 2988 3500 
L 3597 3500 
L 2059 -325 
z
" transform="scale(0.015625)"/>
      </defs>
      <use xlink:href="#DejaVuSans-4e"/>
      <use xlink:href="#DejaVuSans-6f" transform="translate(74.804688 0)"/>
      <use xlink:href="#DejaVuSans-72" transform="translate(135.986328 0)"/>
      <use xlink:href="#DejaVuSans-6d" transform="translate(175.349609 0)"/>
      <use xlink:href="#DejaVuSans-61" transform="translate(272.761719 0)"/>
      <use xlink:href="#DejaVuSans-6c" transform="translate(334.041016 0)"/>
      <use xlink:href="#DejaVuSans-69" transform="translate(361.824219 0)"/>
      <use xlink:href="#DejaVuSans-7a" transform="translate(389.607422 0)"/>
      <use xlink:href="#DejaVuSans-65" transform="translate(442.097656 0)"/>
      <use xlink:href="#DejaVuSans-64" transform="translate(503.621094 0)"/>
      <use xlink:href="#DejaVuSans-20" transform="translate(567.097656 0)"/>
      <use xlink:href="#DejaVuSans-49" transform="translate(598.884766 0)"/>
      <use xlink:href="#DejaVuSans-6e" transform="translate(628.376953 0)"/>
      <use xlink:href="#DejaVuSans-74" transform="translate(691.755859 0)"/>
      <use xlink:href="#DejaVuSans-65" transform="translate(730.964844 0)"/>
      <use xlink:href="#DejaVuSans-6e" transform="translate(792.488281 0)"/>
      <use xlink:href="#DejaVuSans-73" transform="translate(855.867188 0)"/>
      <use xlink:href="#DejaVuSans-69" transform="translate(907.966797 0)"/>
      <use xlink:href="#DejaVuSans-74" transform="translate(935.75 0)"/>
      <use xlink:href="#DejaVuSans-79" transform="translate(974.958984 0)"/>
     </g>
    </g>
   </g>
   <g id="line2d_13">
    <path d="M 84.332727 510.987273 
L 89.222574 510.914218 
L 100.224729 510.366324 
L 111.226884 510.386556 
L 122.229039 510.466077 
L 149.123196 510.369742 
L 156.457966 510.336628 
L 162.570275 510.21297 
L 163.792736 509.982854 
L 165.015198 509.471784 
L 167.460121 507.876041 
L 168.682583 507.320179 
L 169.905045 507.22366 
L 171.127506 507.552439 
L 174.794891 509.129031 
L 177.239815 509.709243 
L 179.684738 510.027647 
L 182.129662 510.167993 
L 184.574585 510.108113 
L 190.686893 509.475698 
L 194.354278 509.834117 
L 196.799202 509.98418 
L 200.466587 509.861824 
L 206.578895 509.306692 
L 209.023818 508.953039 
L 210.24628 508.886907 
L 212.691204 509.122965 
L 215.136127 509.445585 
L 216.358589 509.433628 
L 220.025974 509.07908 
L 221.248435 509.168452 
L 223.693359 509.598969 
L 224.91582 509.647202 
L 226.138282 509.268296 
L 227.360744 508.258304 
L 229.805667 505.007927 
L 231.028129 503.812584 
L 232.25059 503.493565 
L 233.473052 504.038809 
L 237.140437 507.432017 
L 238.362899 508.225294 
L 239.58536 508.738832 
L 240.807822 509.041214 
L 243.252745 509.30864 
L 248.142592 509.460707 
L 255.477362 509.427918 
L 287.261366 508.655937 
L 290.928751 508.350891 
L 294.596136 508.448948 
L 297.041059 508.475908 
L 298.263521 508.347207 
L 303.153368 507.343791 
L 304.375829 507.453219 
L 309.265676 508.339432 
L 311.710599 508.482399 
L 314.155523 508.388467 
L 315.377985 508.160306 
L 319.04537 507.072372 
L 320.267831 507.014648 
L 321.490293 507.187225 
L 325.157678 508.055256 
L 327.602601 508.319111 
L 332.492448 508.407701 
L 336.159833 508.529704 
L 341.04968 508.99531 
L 342.272141 508.821462 
L 345.939526 507.729588 
L 347.161988 507.76809 
L 350.829373 508.654885 
L 352.051835 508.72288 
L 353.274297 508.39239 
L 354.496758 507.223112 
L 355.71922 504.388184 
L 356.941682 498.699442 
L 358.164143 488.88737 
L 359.386605 474.076746 
L 360.609067 454.249343 
L 363.05399 404.71717 
L 364.276452 379.547822 
L 365.498913 357.488088 
L 366.721375 340.597286 
L 367.943837 330.155569 
L 369.166298 326.565455 
L 370.38876 329.4311 
L 371.611222 337.755093 
L 372.833683 350.184407 
L 375.278607 381.563405 
L 377.72353 413.54084 
L 378.945992 427.731503 
L 380.168453 440.205759 
L 381.390915 450.863407 
L 382.613377 459.751439 
L 383.835839 466.963409 
L 385.0583 472.587489 
L 386.280762 476.787239 
L 387.503224 479.911783 
L 389.948147 484.725417 
L 392.39307 489.040666 
L 393.615532 490.914524 
L 394.837994 492.492651 
L 396.060455 493.769071 
L 397.282917 494.783922 
L 398.505379 495.590817 
L 400.950302 496.756126 
L 403.395225 497.545075 
L 405.840149 498.137752 
L 407.06261 498.303804 
L 408.285072 498.296661 
L 410.729995 497.962847 
L 411.952457 497.929376 
L 414.39738 498.014221 
L 415.619842 497.608656 
L 418.064766 496.049356 
L 419.287227 495.73541 
L 420.509689 496.036462 
L 421.732151 496.778565 
L 424.177074 498.445142 
L 425.399536 499.043691 
L 426.621997 499.468839 
L 429.066921 499.987638 
L 431.511844 500.248435 
L 433.956767 500.277062 
L 436.401691 500.119992 
L 437.624152 499.899657 
L 438.846614 498.813046 
L 440.069076 494.613357 
L 441.291537 483.421859 
L 442.513999 462.301801 
L 444.958922 406.06674 
L 446.181384 389.87321 
L 447.403846 389.952233 
L 448.626307 403.769039 
L 451.071231 445.057309 
L 452.293693 461.73811 
L 453.516154 473.420918 
L 454.738616 480.935894 
L 455.961078 485.685823 
L 457.183539 488.842461 
L 458.406001 491.099128 
L 459.628463 492.769421 
L 460.850924 493.93969 
L 462.073386 494.430016 
L 463.295848 493.658935 
L 464.518309 490.983543 
L 466.963233 481.863469 
L 468.185694 478.432793 
L 469.408156 477.161567 
L 470.630618 477.939711 
L 471.853079 480.12264 
L 474.298003 485.73009 
L 475.520464 488.084972 
L 476.742926 489.841402 
L 477.965388 491.001139 
L 479.187849 491.604653 
L 480.410311 491.648894 
L 481.632773 491.118324 
L 482.855234 490.094275 
L 487.745081 484.716498 
L 488.967543 482.904452 
L 490.190005 480.049242 
L 491.412466 474.77029 
L 492.634928 464.322853 
L 493.85739 445.282635 
L 495.079851 416.946711 
L 496.302313 385.073995 
L 497.524775 360.679757 
L 498.747236 353.201626 
L 499.969698 364.353895 
L 501.19216 388.151725 
L 502.414621 415.756418 
L 503.637083 440.275454 
L 504.859545 458.663751 
L 506.082006 471.032583 
L 507.304468 478.980642 
L 508.52693 484.22671 
L 509.749391 487.981838 
L 510.971853 490.894292 
L 512.194315 493.234547 
L 513.416776 495.093696 
L 514.639238 496.513647 
L 515.8617 497.54689 
L 517.084161 498.264595 
L 518.306623 498.738684 
L 519.529085 499.02728 
L 521.974008 499.247478 
L 526.863855 499.345302 
L 528.086317 499.028382 
L 529.308778 498.05204 
L 530.53124 496.252722 
L 531.753702 494.116516 
L 532.976163 492.628847 
L 534.198625 492.521349 
L 535.421087 493.756088 
L 537.86601 497.667945 
L 539.088472 499.213826 
L 540.310933 500.240147 
L 541.533395 500.840485 
L 542.755857 501.161775 
L 545.20078 501.41462 
L 548.868165 501.612982 
L 550.090627 501.495345 
L 551.313088 500.946711 
L 552.53555 499.795977 
L 553.758012 498.25135 
L 554.980474 496.909047 
L 556.202935 496.346356 
L 557.425397 496.698468 
L 561.092782 499.365471 
L 562.315244 499.700097 
L 565.982629 500.013807 
L 568.427552 500.836751 
L 570.872475 501.602495 
L 572.094937 501.778211 
L 574.53986 501.812051 
L 578.207245 501.632258 
L 579.429707 501.485671 
L 580.652169 501.21741 
L 581.87463 500.775771 
L 584.319554 499.616254 
L 585.542015 499.22894 
L 586.764477 499.123492 
L 590.431862 499.474817 
L 591.654324 499.266143 
L 594.099247 498.489183 
L 595.321709 498.31579 
L 596.544171 498.416168 
L 601.434017 499.647874 
L 603.878941 499.67692 
L 606.323864 499.64869 
L 608.768787 500.013119 
L 612.436172 500.80716 
L 614.881096 500.899139 
L 619.770942 500.679283 
L 620.993404 500.527364 
L 622.215866 500.25601 
L 627.105713 498.772874 
L 630.773098 498.03392 
L 633.218021 497.612253 
L 636.885406 497.218299 
L 638.107868 497.272212 
L 640.552791 497.772774 
L 644.220176 498.574582 
L 645.442638 498.732706 
L 646.665099 498.684063 
L 647.887561 498.292777 
L 649.110023 497.549188 
L 650.332484 496.648067 
L 651.554946 495.900453 
L 652.777408 495.536539 
L 653.999869 495.585274 
L 655.222331 495.927732 
L 658.889716 497.37163 
L 660.112178 497.643732 
L 663.779563 498.132002 
L 669.891871 499.551095 
L 672.336795 499.650987 
L 674.781718 499.727172 
L 682.116488 500.639222 
L 689.451258 500.809561 
L 693.118643 500.742444 
L 702.898337 500.334688 
L 710.233107 499.598933 
L 712.67803 499.427803 
L 715.122953 499.545632 
L 718.790338 499.951829 
L 721.235262 499.856102 
L 724.902647 499.462391 
L 727.34757 499.606839 
L 731.014955 500.206844 
L 732.237417 500.280684 
L 734.68234 500.043641 
L 737.127264 499.768828 
L 738.349725 499.815897 
L 745.684495 500.697502 
L 751.796804 500.762152 
L 757.909112 500.882959 
L 759.131574 500.741219 
L 760.354036 500.405393 
L 761.576497 499.778058 
L 762.798959 498.796141 
L 765.243882 496.441031 
L 766.466344 495.828995 
L 767.688806 495.926414 
L 768.911267 496.595934 
L 771.356191 498.319842 
L 772.578652 498.836943 
L 773.801114 498.961726 
L 775.023576 498.705737 
L 777.468499 497.701305 
L 778.690961 497.445685 
L 779.913422 497.550373 
L 781.135884 497.948287 
L 783.580807 498.927053 
L 784.803269 499.247055 
L 787.248192 499.470959 
L 793.360501 499.576596 
L 798.250348 499.713696 
L 803.140194 499.585779 
L 805.585118 499.383273 
L 810.474964 498.678964 
L 812.919888 498.741862 
L 816.587273 499.06524 
L 816.587273 499.06524 
" clip-path="url(#p72f4777252)" style="fill: none; stroke: #0000ff; stroke-width: 1.5; stroke-linecap: square"/>
   </g>
   <g id="line2d_14">
    <path d="M 89.288342 204.204166 
L 89.288342 209.169017 
L 90.996366 208.749967 
L 91.664074 204.429267 
L 92.67016 201.087174 
L 93.343003 199.648782 
L 94.018536 195.915719 
L 95.032201 200.247421 
L 95.703821 205.516276 
L 95.703821 211.294186 
L 96.038531 213.239151 
L 97.046818 219.763643 
L 97.382506 218.871767 
L 97.719661 217.49847 
L 98.056816 218.808677 
L 99.407147 213.493445 
L 100.75161 212.764497 
L 101.425186 213.469748 
L 102.436651 213.087502 
L 103.786004 217.821396 
L 104.797714 218.745707 
L 104.797714 218.248275 
L 107.157065 217.445364 
L 107.157065 217.78217 
L 107.494709 215.4919 
L 108.847485 210.419413 
L 109.519594 210.044693 
L 110.191704 208.464969 
L 110.191704 204.210589 
L 111.203902 203.0761 
L 111.203902 207.961358 
L 112.213655 203.812449 
L 114.579363 204.46138 
L 114.916518 208.308659 
L 119.632775 202.398571 
L 119.971397 194.795585 
L 122.665214 193.727173 
L 127.728894 192.952192 
L 129.416869 201.253667 
L 129.754024 211.101146 
L 129.754024 215.277181 
L 130.089712 217.638961 
L 130.426134 211.112528 
L 130.426134 211.466525 
L 131.779643 208.431749 
L 135.152415 209.085201 
L 136.162169 212.247341 
L 136.835989 208.902139 
L 137.846476 211.546472 
L 138.182409 214.655997 
L 138.518097 213.241068 
L 139.871606 218.480902 
L 140.209006 223.107932 
L 140.546405 222.201236 
L 142.250761 211.899681 
L 143.259781 211.151315 
L 144.271979 194.661921 
L 144.609134 191.204802 
L 144.9458 201.092731 
L 145.280999 199.173537 
L 145.617421 198.774739 
L 147.299039 213.231587 
L 148.651571 214.071911 
L 150.005325 210.497703 
L 152.025076 207.959061 
L 152.698652 201.380992 
L 153.709628 198.427784 
L 155.058003 195.806 
L 156.407601 195.616792 
L 156.745489 199.761853 
L 157.4242 198.497977 
L 158.434198 203.116437 
L 160.126085 213.473156 
L 162.485191 216.14939 
L 164.170233 209.69334 
L 165.857963 208.963526 
L 168.179662 205.649027 
L 169.162522 197.301769 
L 169.824851 168.875849 
L 171.460994 158.856775 
L 172.769761 130.782923 
L 172.769761 95.583382 
L 175.721762 95.055305 
L 175.721762 95.791034 
L 176.053783 87.268661 
L 179.659311 110.757205 
L 179.988153 133.283714 
L 181.951427 152.99937 
L 182.933308 153.842515 
L 186.542748 150.576642 
L 186.542748 145.193147 
L 190.803516 131.437123 
L 191.458267 134.225932 
L 192.767279 134.204082 
L 199.65854 138.568499 
L 200.31329 146.180645 
L 202.606139 177.467317 
L 204.578703 164.035484 
L 204.909501 163.364231 
L 205.564496 168.18314 
L 207.202351 169.031021 
L 208.51283 156.844547 
L 210.811546 173.873935 
L 216.067154 175.703455 
L 217.050991 179.616081 
L 219.024533 183.689458 
L 220.008615 191.37748 
L 220.336479 180.035442 
L 221.648425 186.681643 
L 222.304642 181.525378 
L 223.956432 177.175955 
L 225.269356 154.734271 
L 231.841066 163.941321 
L 232.497772 165.621317 
L 232.82637 159.023172 
L 232.82637 155.128805 
L 233.154723 184.29947 
L 233.492856 184.266752 
L 237.763159 183.322806 
L 237.763159 185.531844 
L 238.754087 194.518244 
L 240.068233 192.538784 
L 241.054515 193.330171 
L 241.712199 190.229416 
L 242.044709 199.874542 
L 244.022652 198.77404 
L 244.351494 199.908513 
L 247.31303 200.742546 
L 248.963842 194.919908 
L 249.951591 189.798539 
L 251.93149 190.191147 
L 252.590397 188.749441 
L 252.919483 182.106139 
L 254.57054 187.561702 
L 255.889332 191.29119 
L 256.54775 187.660267 
L 258.529116 185.319783 
L 260.836634 190.28927 
L 261.824383 188.256611 
L 262.813844 187.329986 
L 264.138503 190.789818 
L 264.138503 189.829243 
L 266.446266 190.853478 
L 266.775598 196.029715 
L 267.764325 200.238159 
L 268.448414 201.342926 
L 269.112455 205.650791 
L 270.431736 208.641949 
L 270.761312 205.192187 
L 274.070026 200.899571 
L 275.721083 197.739397 
L 276.380968 195.003945 
L 277.372873 191.476334 
L 283.012089 197.961718 
L 283.674908 201.658515 
L 284.669258 204.33355 
L 285.000545 206.147376 
L 286.001252 207.723079 
L 292.312822 208.68176 
L 294.976077 204.04434 
L 297.641533 204.004076 
L 297.97991 203.281678 
L 298.976461 202.113966 
L 299.642702 200.253186 
L 301.305984 207.225763 
L 301.638982 207.596318 
L 301.971003 203.935597 
L 303.974617 205.611775 
L 305.304656 201.125807 
L 305.304656 200.541606 
L 306.639339 194.748014 
L 306.639339 201.380851 
L 307.639802 194.137795 
L 308.311912 199.80457 
L 308.977909 199.432055 
L 309.311396 209.073907 
L 310.642901 209.553072 
L 311.974651 211.948121 
L 312.97927 209.33693 
L 313.31178 210.37909 
L 313.977777 209.480181 
L 316.315613 209.396162 
L 316.315613 206.449227 
L 317.986473 210.11319 
L 318.652715 209.436704 
L 319.986421 208.921502 
L 320.653885 204.295626 
L 322.320589 188.037412 
L 323.332543 180.991642 
L 324.33545 180.152929 
L 324.33545 178.912861 
L 324.669427 177.952373 
L 326.00411 195.452034 
L 327.672282 197.59822 
L 334.695079 195.337786 
L 336.366185 186.796164 
L 336.700161 197.225178 
L 337.033893 196.036588 
L 337.701113 200.583737 
L 338.374689 204.143647 
L 338.709155 204.01475 
L 339.376863 204.752108 
L 340.045794 200.840181 
L 345.404088 203.873565 
L 347.409659 204.615739 
L 348.085191 204.998707 
L 349.42232 202.423123 
L 352.430065 203.864089 
L 352.764041 194.294255 
L 353.103396 199.218872 
L 353.439573 197.90024 
L 353.439573 200.530521 
L 353.778929 201.392352 
L 354.447126 210.440407 
L 354.781347 213.375701 
L 355.115568 209.090659 
L 356.452941 206.693656 
L 356.787407 203.798783 
L 357.121628 199.369685 
L 357.788603 195.677859 
L 358.462668 200.713847 
L 360.464083 198.986956 
L 360.794392 196.185502 
L 363.1068 195.400519 
L 364.745632 185.243244 
L 368.04359 177.336586 
L 368.37072 154.790083 
L 369.024493 142.642806 
L 376.553634 126.720417 
L 378.52302 122.211355 
L 378.850395 135.71032 
L 382.453968 147.928342 
L 384.752929 151.327254 
L 385.737255 166.671025 
L 393.639737 159.167212 
L 394.298644 141.327665 
L 394.628219 124.528802 
L 394.628219 127.953662 
L 399.590436 132.940956 
L 400.914117 151.450106 
L 401.24516 181.030376 
L 401.576202 199.244245 
L 403.238017 176.670749 
L 403.238017 167.574988 
L 403.900836 167.932891 
L 403.900836 171.617232 
L 404.563899 191.919824 
L 405.891248 195.27987 
L 405.891248 204.209422 
L 406.223268 201.045236 
L 406.555778 192.851777 
L 406.888043 175.1324 
L 406.888043 165.164438 
L 407.220063 147.777125 
L 407.562108 153.701736 
L 407.895107 170.323455 
L 407.895107 196.62094 
L 408.228105 149.935706 
L 408.893858 134.636077 
L 409.226612 137.13516 
L 409.226612 118.68224 
L 409.226612 145.917765 
L 409.558877 144.688467 
L 409.890898 153.938765 
L 410.55665 118.905847 
L 410.888915 72.838591 
L 411.222159 90.083663 
L 411.889134 81.5682 
L 412.221399 98.685176 
L 412.56051 131.7966 
L 412.893753 151.769448 
L 412.893753 141.533531 
L 413.226996 140.210938 
L 413.559505 132.506125 
L 413.892748 132.762968 
L 414.225013 161.910126 
L 414.558501 169.225066 
L 414.558501 182.308629 
L 414.892477 189.312016 
L 414.892477 169.78342 
L 415.224743 132.913908 
L 415.55823 129.84949 
L 415.55823 136.346909 
L 415.891229 128.107273 
L 416.223738 148.450554 
L 416.561627 184.164368 
L 417.227624 194.410452 
L 418.229798 194.040779 
L 418.563774 201.721614 
L 419.563015 188.297275 
L 419.563015 182.581353 
L 420.561032 180.196838 
L 421.230208 170.540944 
L 421.56394 187.891708 
L 421.56394 185.517791 
L 421.896205 191.448867 
L 422.567581 182.791297 
L 422.567581 179.428482 
L 422.899846 174.695831 
L 423.232845 159.059566 
L 423.567555 161.17602 
L 423.900309 180.933063 
L 424.232818 167.557252 
L 424.897837 181.340871 
L 424.897837 180.52909 
L 425.230591 158.059424 
L 425.564568 153.928965 
L 425.564568 158.657285 
L 425.897077 133.068052 
L 426.566986 146.359484 
L 426.899007 126.303105 
L 427.230783 114.558253 
L 427.230783 83.324844 
L 427.568427 107.034342 
L 427.900692 83.957607 
L 427.900692 102.715804 
L 428.234424 135.128911 
L 428.234424 164.72131 
L 428.234424 152.054287 
L 428.567178 176.876255 
L 428.898954 168.351341 
L 429.231464 169.121022 
L 429.565929 175.034758 
L 429.565929 161.412822 
L 430.566148 160.087393 
L 430.898413 160.950512 
L 430.898413 184.522753 
L 431.563676 175.621695 
L 431.563676 185.042096 
L 432.228451 186.491418 
L 432.228451 187.503435 
L 432.566828 182.662697 
L 432.90056 198.382049 
L 432.90056 184.033597 
L 433.565824 179.005148 
L 433.899067 160.681808 
L 433.899067 165.975755 
L 434.233044 165.110616 
L 434.565553 165.047296 
L 434.897818 150.700748 
L 434.897818 168.761876 
L 435.229594 165.953971 
L 435.229594 170.829076 
L 435.565771 167.101631 
L 435.565771 157.146973 
L 435.897792 146.380738 
L 435.897792 138.197323 
L 436.229813 134.093075 
L 436.562567 141.358603 
L 436.562567 156.140712 
L 436.894832 135.461338 
L 437.226852 140.375386 
L 437.564496 137.088693 
L 437.89725 140.298186 
L 437.89725 145.336375 
L 438.22976 164.683551 
L 438.562269 175.191797 
L 438.562269 184.341548 
L 438.896246 181.87931 
L 438.896246 189.550858 
L 439.229245 185.543853 
L 439.562732 145.934124 
L 439.562732 157.347251 
L 439.894753 161.533568 
L 440.227507 159.380082 
L 440.227507 164.636174 
L 440.560261 204.406854 
L 440.892037 203.299131 
L 441.225769 190.100735 
L 441.558279 190.030183 
L 441.892255 182.893675 
L 442.225987 179.767577 
L 442.225987 181.152805 
L 442.897119 192.739643 
L 442.897119 192.087221 
L 443.228895 184.243302 
L 443.228895 175.581443 
L 443.561404 156.158456 
L 443.894403 149.467058 
L 444.226668 152.007245 
L 444.226668 151.685428 
L 444.565045 151.76644 
L 444.565045 167.269198 
L 444.899022 174.759147 
L 445.565752 178.052659 
L 446.564748 186.867262 
L 446.898969 194.212706 
L 447.231479 183.977093 
L 447.568878 183.982981 
L 447.568878 185.196131 
L 447.90261 186.767799 
L 448.236342 189.81336 
L 448.569096 191.46769 
L 449.568092 187.200698 
L 449.901335 187.819915 
L 450.234578 191.323031 
L 450.568066 180.824404 
L 450.568066 192.50293 
L 450.900575 194.543389 
L 451.234307 195.419258 
L 451.567306 189.569574 
L 451.567306 175.325451 
L 451.900793 172.501881 
L 452.233792 167.037413 
L 452.233792 151.847213 
L 452.573392 154.963048 
L 452.907368 183.092879 
L 453.245012 189.342624 
L 453.5785 164.783657 
L 453.910276 167.559814 
L 453.910276 171.777666 
L 454.243763 171.392062 
L 454.578473 170.612725 
L 455.578203 181.373078 
L 455.91169 186.969103 
L 456.244444 185.09305 
L 456.244444 185.856161 
L 456.576465 183.742258 
L 456.576465 196.060113 
L 456.909219 192.591665 
L 457.580595 178.56714 
L 457.912371 154.128875 
L 458.245614 161.947259 
L 458.245614 157.893533 
L 458.579346 152.591496 
L 458.579346 153.301017 
L 458.913078 162.747671 
L 459.245099 150.352606 
L 459.245099 156.770301 
L 459.578342 155.865328 
L 459.911096 156.265657 
L 460.243361 160.44037 
L 460.243361 171.042794 
L 460.575381 187.444965 
L 460.575381 185.245104 
L 460.908135 183.721164 
L 461.241623 190.013603 
L 461.241623 187.300694 
L 461.908354 175.563862 
L 462.241597 182.36791 
L 462.578752 192.590544 
L 463.582882 173.589783 
L 463.917103 160.934071 
L 464.248879 158.068326 
L 464.248879 159.580602 
L 464.248879 142.257002 
L 464.582611 157.833146 
L 465.247874 165.717918 
L 465.911671 149.852496 
L 466.244914 175.332867 
L 466.578402 149.948215 
L 468.247551 162.297547 
L 468.579327 170.407649 
L 469.241412 176.061833 
L 469.241412 170.85475 
L 470.23234 159.97137 
L 470.562893 160.31374 
L 471.228157 144.067897 
L 471.888531 137.51676 
L 472.886059 135.911788 
L 473.878698 160.527058 
L 474.211697 144.831541 
L 474.875005 148.843887 
L 475.539046 140.595812 
L 475.871311 144.958083 
L 476.202354 154.639689 
L 476.534374 168.978341 
L 476.534374 181.185138 
L 477.198904 190.75877 
L 477.198904 189.941975 
L 477.869791 194.029086 
L 478.202056 197.68641 
L 478.534566 198.289075 
L 478.866587 203.751874 
L 479.531117 188.822687 
L 480.533046 155.983004 
L 480.864578 155.415356 
L 481.199288 151.869925 
L 481.531553 159.717556 
L 481.863818 155.660488 
L 481.863818 190.551986 
L 482.535439 183.810504 
L 482.535439 190.869871 
L 483.863765 196.570562 
L 484.194808 191.766414 
L 484.527562 189.050274 
L 484.860316 190.344676 
L 485.527047 186.34133 
L 485.527047 181.210117 
L 485.859801 184.94408 
L 485.859801 157.782808 
L 486.19231 164.293264 
L 486.19231 167.30832 
L 486.523597 174.606238 
L 486.855863 177.505114 
L 486.855863 198.411227 
L 487.188861 186.963046 
L 487.188861 187.458894 
L 487.526261 187.495253 
L 487.526261 187.692989 
L 487.860237 192.528401 
L 487.860237 192.413357 
L 488.53308 189.454184 
L 489.198833 178.518894 
L 489.530364 179.417329 
L 490.196361 151.779099 
L 490.196361 161.322849 
L 490.861869 139.879471 
L 491.194868 168.637028 
L 491.194868 150.837701 
L 491.527622 156.777675 
L 492.192641 156.922543 
L 492.53053 170.890136 
L 492.53053 165.060312 
L 493.196527 169.857749 
L 493.530014 177.22159 
L 493.863257 173.989614 
L 494.52901 176.475648 
L 494.52901 191.446925 
L 494.861764 182.562148 
L 496.196937 180.852382 
L 496.530913 173.376 
L 496.865379 169.168714 
L 496.865379 184.343468 
L 497.197399 184.642367 
L 497.197399 186.761106 
L 497.535288 195.492377 
L 497.535288 198.77981 
L 497.867797 198.996883 
L 498.199818 192.971517 
L 498.532817 189.785443 
L 498.863859 181.785433 
L 498.863859 177.060301 
L 499.194413 171.530934 
L 499.525455 179.497854 
L 500.515894 191.745528 
L 500.515894 181.471416 
L 500.845714 178.772755 
L 501.17529 176.943717 
L 501.504621 179.411183 
L 501.833708 195.746916 
L 502.498482 192.267969 
L 502.828058 183.474554 
L 503.157634 181.672687 
L 503.817274 169.854347 
L 505.802063 174.411128 
L 505.802063 184.538122 
L 506.461947 177.780678 
L 506.792257 161.161877 
L 507.122566 161.973039 
L 507.458743 149.997979 
L 507.789052 158.450729 
L 508.119606 183.07125 
L 508.781691 189.182155 
L 509.112489 189.149585 
L 509.444754 184.406849 
L 510.106839 154.104224 
L 510.106839 148.718864 
L 510.438615 141.601863 
L 510.769902 157.62567 
L 511.100701 132.194409 
L 511.431988 154.9702 
L 511.431988 153.612587 
L 511.764008 146.090659 
L 512.762759 145.934777 
L 513.095025 178.35522 
L 513.427779 175.883856 
L 514.09671 164.179636 
L 514.429464 179.031559 
L 515.094972 171.484522 
L 515.426259 150.11375 
L 515.426259 163.108198 
L 515.758524 181.649519 
L 515.758524 156.701024 
L 516.092012 163.249563 
L 516.092012 180.446958 
L 516.756542 174.746295 
L 517.090029 173.026192 
L 517.090029 189.961473 
L 517.760427 179.766545 
L 518.42618 182.04076 
L 518.759667 182.668496 
L 518.759667 157.515057 
L 518.759667 170.013381 
L 519.092422 170.568916 
L 519.092422 171.835907 
L 519.424687 164.812587 
L 519.424687 196.048768 
L 519.75793 182.694134 
L 519.75793 184.019761 
L 520.089461 190.981293 
L 520.42246 194.834398 
L 520.755214 187.04385 
L 521.086501 182.693347 
L 521.419011 182.286745 
L 522.089898 181.261348 
L 522.426808 187.548277 
L 522.759318 200.386183 
L 523.091583 184.71472 
L 523.424581 184.749823 
L 523.424581 177.485208 
L 523.756357 153.979777 
L 524.75462 138.21588 
L 525.086396 153.952538 
L 525.74897 152.385918 
L 525.74897 142.979539 
L 526.080257 170.030732 
L 526.743809 192.301537 
L 527.075585 193.907172 
L 527.412985 184.992278 
L 527.74525 200.099084 
L 528.078493 198.186637 
L 528.410513 186.812699 
L 528.743512 184.10915 
L 529.077489 188.771195 
L 529.077489 184.968517 
L 529.410732 186.469717 
L 529.410732 187.184506 
L 529.742997 188.081252 
L 529.742997 195.323879 
L 530.743948 207.936464 
L 530.743948 203.618323 
L 531.075724 204.279891 
L 531.075724 205.946563 
L 531.407989 193.020528 
L 531.407989 168.635172 
L 531.74001 157.703956 
L 532.071542 157.611816 
L 532.740473 153.599565 
L 533.073471 160.173428 
L 533.404514 185.054238 
L 533.735556 195.256971 
L 534.067088 189.535024 
L 534.398131 190.80348 
L 535.059971 189.118361 
L 535.059971 183.288388 
L 535.390525 185.417724 
L 535.721323 176.852711 
L 536.051877 174.92541 
L 537.044516 175.966175 
L 537.044516 182.862382 
L 537.381182 174.636498 
L 537.381182 183.184961 
L 537.712958 162.920219 
L 538.044978 162.608219 
L 538.376755 146.229227 
L 538.376755 159.805489 
L 538.70902 146.1526 
L 539.374772 166.810466 
L 539.710949 180.06293 
L 540.043703 180.846113 
L 540.043703 196.356398 
L 540.710923 197.115042 
L 540.710923 186.66845 
L 541.375453 183.444766 
L 541.375453 173.843879 
L 542.040472 172.09628 
L 542.378361 175.77715 
L 542.378361 178.592673 
L 543.042646 195.653915 
L 543.706932 200.868947 
L 544.040419 178.37174 
L 544.372929 188.591221 
L 545.038682 163.453283 
L 545.702234 161.777415 
L 545.702234 183.759983 
L 546.034499 186.056766 
L 546.698051 198.043244 
L 546.698051 203.589734 
L 547.031294 204.386294 
L 547.369916 202.078536 
L 547.369916 200.869773 
L 547.701692 198.755107 
L 548.033713 166.532682 
L 548.371357 163.398521 
L 548.371357 140.759856 
L 548.7068 95.584021 
L 549.03931 71.787535 
L 549.03931 101.000779 
L 549.37133 82.337881 
L 549.37133 87.05544 
L 549.704573 105.448985 
L 550.037083 49.932727 
L 550.037083 54.065588 
L 550.370082 56.022232 
L 550.703569 61.563504 
L 550.703569 78.260177 
L 551.037057 119.021427 
L 551.370055 103.581109 
L 551.370055 122.592017 
L 551.701587 138.104779 
L 551.701587 118.893495 
L 552.03483 138.701305 
L 552.371985 139.919902 
L 552.371985 130.21659 
L 552.705228 113.410804 
L 552.705228 141.57325 
L 553.036515 157.65299 
L 553.367802 140.224759 
L 553.367802 128.385974 
L 553.367802 144.750428 
L 553.699823 142.486688 
L 553.699823 136.761009 
L 553.699823 162.535687 
L 554.033799 147.149638 
L 554.366064 142.87194 
L 554.698085 145.348881 
L 555.029861 154.885375 
L 555.029861 161.860511 
L 555.361148 181.805671 
L 555.693658 180.2536 
L 555.693658 175.417655 
L 556.027145 163.258877 
L 556.358921 185.852034 
L 556.69192 192.432634 
L 557.365252 159.957837 
L 557.697028 143.901572 
L 557.697028 157.39685 
L 558.029782 157.821814 
L 558.364492 143.717875 
L 558.697735 147.633678 
L 558.697735 162.239529 
L 559.030245 167.160664 
L 559.030245 200.910335 
L 559.361776 198.500296 
L 559.361776 203.446745 
L 559.69453 185.395052 
L 559.69453 169.564582 
L 560.026062 167.739694 
L 560.026062 171.495823 
L 560.689614 174.271113 
L 560.689614 180.237114 
L 561.023591 197.17954 
L 561.023591 184.983483 
L 561.356345 177.473581 
L 561.356345 146.380855 
L 561.356345 157.35389 
L 561.68861 153.717274 
L 562.021853 168.315812 
L 562.021853 175.262222 
L 562.359252 191.41523 
L 562.359252 189.175081 
L 562.693229 191.318846 
L 563.025249 186.395365 
L 563.025249 173.560926 
L 563.357514 178.173164 
L 563.691246 170.15267 
L 564.022778 138.85176 
L 564.022778 142.333589 
L 564.355532 150.397195 
L 564.355532 158.461797 
L 564.686819 159.854138 
L 565.018595 193.698661 
L 565.018595 173.323004 
L 565.349882 156.796001 
L 565.682881 164.530195 
L 565.682881 154.491084 
L 566.021503 162.676492 
L 566.021503 167.755811 
L 566.353279 170.745359 
L 566.353279 170.270721 
L 566.685789 168.259361 
L 567.01732 175.169682 
L 567.01732 148.567605 
L 567.354475 142.032473 
L 567.354475 142.905111 
L 567.687474 155.028328 
L 567.687474 147.716153 
L 567.687474 189.641506 
L 568.019983 197.939501 
L 568.354204 198.582334 
L 568.687447 203.308576 
L 568.687447 178.53142 
L 569.019223 162.08471 
L 569.350755 154.670005 
L 569.684487 136.185 
L 570.016997 142.752636 
L 570.016997 153.661245 
L 570.35024 164.346693 
L 570.682505 169.090119 
L 570.682505 176.372731 
L 571.015748 127.963124 
L 571.349235 143.077593 
L 571.681011 146.009991 
L 571.681011 148.234123 
L 572.013766 149.88863 
L 572.351409 196.170124 
L 572.351409 190.46512 
L 572.683675 195.024769 
L 573.014962 184.676332 
L 573.014962 177.891134 
L 573.347716 166.802077 
L 573.347716 134.859855 
L 573.681203 145.602563 
L 574.014202 145.559274 
L 575.014664 144.517268 
L 575.346441 159.884697 
L 575.679195 152.174149 
L 576.344458 122.638975 
L 576.344458 127.762266 
L 576.679168 145.029188 
L 576.679168 158.822366 
L 577.0107 174.974435 
L 577.0107 193.747236 
L 577.349077 199.510803 
L 577.349077 194.978163 
L 577.681098 171.89175 
L 578.01263 177.943038 
L 578.345384 172.552377 
L 578.678871 172.722297 
L 579.011381 185.524313 
L 579.344624 159.187415 
L 579.6764 169.483081 
L 580.341175 156.703836 
L 580.674173 155.34846 
L 580.674173 175.173233 
L 581.338948 155.381632 
L 581.338948 167.872318 
L 581.671457 137.910533 
L 581.671457 121.632661 
L 582.005434 118.479078 
L 582.342833 116.773307 
L 583.012498 121.438489 
L 583.344518 148.274156 
L 584.008315 153.22133 
L 584.008315 158.700201 
L 584.340825 153.328724 
L 584.673823 157.316811 
L 585.337375 153.029777 
L 586.002884 146.26787 
L 586.336127 146.839739 
L 586.336127 151.462 
L 586.669859 151.937761 
L 587.002368 157.376929 
L 587.002368 171.431595 
L 587.67081 169.348667 
L 588.003075 166.320499 
L 588.003075 147.262432 
L 588.666139 147.027513 
L 588.998159 154.575299 
L 589.329691 158.951883 
L 589.662689 136.584849 
L 590.32673 145.268191 
L 590.665597 154.234424 
L 590.997373 153.018975 
L 591.660681 153.575641 
L 591.992212 161.20923 
L 592.329367 181.736864 
L 592.660899 186.592063 
L 593.657939 185.255906 
L 593.657939 166.77744 
L 593.657939 184.31103 
L 594.654489 175.547761 
L 594.987243 169.655002 
L 595.318775 165.88359 
L 595.650796 169.870492 
L 595.982816 154.981993 
L 595.982816 165.194799 
L 596.647102 173.167437 
L 596.647102 155.584368 
L 596.978389 156.742784 
L 596.978389 163.169026 
L 596.978389 157.852544 
L 597.316522 129.68111 
L 597.316522 151.513861 
L 597.98423 143.880592 
L 598.648272 142.695919 
L 598.985671 149.588995 
L 598.985671 176.535212 
L 599.318914 165.760998 
L 599.318914 176.597961 
L 599.651424 156.391905 
L 599.985156 146.198746 
L 600.649441 140.405302 
L 600.649441 143.447445 
L 600.983173 174.846749 
L 601.314705 185.528595 
L 601.646726 182.187121 
L 601.646726 196.188535 
L 602.314679 184.14343 
L 602.980187 163.929836 
L 602.980187 146.199632 
L 603.644473 157.772329 
L 603.976982 156.95413 
L 603.976982 161.646209 
L 604.308758 167.973448 
L 604.308758 174.85155 
L 604.644446 177.537076 
L 604.976711 157.021128 
L 605.309221 148.062907 
L 605.642219 147.034789 
L 605.642219 156.862436 
L 605.975218 144.811161 
L 606.307239 158.674011 
L 606.307239 170.189942 
L 606.974214 180.094722 
L 606.974214 154.667934 
L 607.316503 165.588372 
L 607.316503 176.817562 
L 607.648523 168.105542 
L 607.9803 166.216389 
L 608.313543 190.68631 
L 608.978562 149.675789 
L 608.978562 157.606804 
L 609.310582 146.794559 
L 609.310582 148.454734 
L 609.975357 169.170345 
L 610.307378 184.075886 
L 610.307378 179.046462 
L 610.307378 189.084774 
L 611.306862 162.738707 
L 611.306862 145.784587 
L 611.640105 129.622215 
L 611.971881 124.488358 
L 611.971881 125.767127 
L 612.310503 134.043512 
L 612.644235 133.432872 
L 612.976256 149.221626 
L 613.643231 163.637132 
L 613.643231 161.570483 
L 613.977452 183.098372 
L 613.977452 170.228917 
L 614.309228 161.856737 
L 614.974736 157.031161 
L 615.307246 160.788268 
L 615.307246 159.182202 
L 615.640978 169.639627 
L 616.30722 186.930989 
L 616.63924 190.123138 
L 616.972239 194.097198 
L 616.972239 164.075901 
L 617.315017 161.734381 
L 617.315017 143.957442 
L 617.648016 108.110319 
L 617.648016 93.575119 
L 618.313279 123.257946 
L 619.312764 122.416416 
L 619.312764 127.4713 
L 619.646007 164.615006 
L 619.979983 157.12081 
L 620.313226 142.625974 
L 620.977512 155.410444 
L 621.309044 138.159679 
L 622.310973 148.707835 
L 622.310973 159.196429 
L 622.642994 161.646818 
L 622.976481 161.859142 
L 622.976481 185.504207 
L 623.308502 180.0416 
L 624.30652 178.910945 
L 624.30652 189.341218 
L 624.971294 179.181412 
L 624.971294 162.928819 
L 625.305515 163.887908 
L 626.301333 154.11279 
L 626.301333 139.159788 
L 626.63482 133.780834 
L 626.63482 145.717382 
L 626.974909 121.592299 
L 627.31182 134.060549 
L 627.643351 140.329409 
L 627.643351 152.667365 
L 627.97635 151.935693 
L 627.97635 163.031574 
L 628.973878 164.037753 
L 629.306633 177.168094 
L 629.638164 180.123158 
L 629.970429 170.582754 
L 630.634959 176.892026 
L 630.634959 170.868052 
L 630.966491 167.358206 
L 630.966491 145.800685 
L 631.300223 155.648846 
L 631.967198 156.507417 
L 632.306554 150.211444 
L 632.638819 138.829159 
L 633.305549 158.771088 
L 633.63757 145.856276 
L 633.63757 158.018249 
L 634.303811 152.497964 
L 634.969809 145.809553 
L 635.635317 122.61771 
L 635.635317 146.830226 
L 636.967311 146.600027 
L 637.306666 137.678863 
L 637.638442 139.120031 
L 638.967992 122.306121 
L 639.301968 120.752941 
L 639.966987 133.85318 
L 640.965494 118.395001 
L 641.298982 147.664806 
L 641.964245 135.639422 
L 642.303601 114.459149 
L 642.635621 132.762028 
L 642.635621 127.986276 
L 642.967886 117.656428 
L 642.967886 122.014279 
L 643.634372 156.690306 
L 643.967126 152.946003 
L 644.300614 163.584593 
L 644.300614 181.135177 
L 644.96979 169.198343 
L 645.3089 170.64485 
L 645.973431 176.520487 
L 646.305696 177.328764 
L 646.637472 146.591528 
L 646.970959 150.287685 
L 647.641846 138.929852 
L 647.975823 112.27395 
L 648.308821 146.730202 
L 648.641331 135.549511 
L 649.306839 135.135726 
L 649.971125 141.407947 
L 649.971125 153.329066 
L 650.303879 133.270904 
L 650.303879 136.77504 
L 650.637122 141.294169 
L 650.637122 141.118299 
L 650.970365 149.959157 
L 651.302141 144.534379 
L 651.302141 163.822427 
L 651.963004 166.569267 
L 651.963004 167.191834 
L 652.299181 145.166325 
L 652.961511 171.682794 
L 652.961511 166.26153 
L 653.292064 164.337073 
L 653.626285 143.45417 
L 653.95635 159.244001 
L 654.28617 152.40148 
L 654.616235 157.497962 
L 654.616235 154.052816 
L 655.604228 159.838413 
L 655.604228 145.050915 
L 655.934048 131.703395 
L 656.263624 131.920695 
L 656.923509 146.988669 
L 657.589017 149.090786 
L 657.918837 158.196858 
L 658.248902 170.496945 
L 659.240807 171.866321 
L 659.570627 174.513921 
L 659.900936 178.3523 
L 659.900936 184.063897 
L 660.231246 185.789891 
L 660.231246 148.092699 
L 660.561799 124.932605 
L 660.561799 127.752653 
L 660.892842 125.199896 
L 661.222907 132.624807 
L 661.553949 157.471974 
L 662.224836 182.353791 
L 662.556612 189.834581 
L 662.556612 185.238584 
L 662.888144 174.155549 
L 663.220164 168.001065 
L 663.220164 168.623503 
L 663.220164 142.484012 
L 663.551941 149.626818 
L 663.882983 147.721872 
L 664.545068 119.407281 
L 664.876356 111.01272 
L 665.538685 131.290518 
L 665.870461 126.3324 
L 665.870461 135.80725 
L 666.20346 91.67978 
L 666.20346 103.021158 
L 666.869457 83.559508 
L 667.207345 88.58452 
L 667.539855 87.603032 
L 667.872609 168.029577 
L 667.872609 160.446659 
L 668.536895 158.564237 
L 669.202158 163.53869 
L 669.202158 170.177488 
L 669.8684 166.306535 
L 669.8684 191.257012 
L 670.535375 134.241837 
L 671.206018 128.066406 
L 671.539994 111.74471 
L 671.872748 128.920095 
L 672.877856 154.426026 
L 673.212322 160.837735 
L 673.547276 157.861409 
L 673.547276 152.076148 
L 673.880764 152.08589 
L 674.213518 159.427481 
L 674.547494 169.27759 
L 674.547494 183.888658 
L 674.882449 186.952555 
L 675.215692 153.641874 
L 675.549424 151.028319 
L 675.882667 152.03044 
L 676.217133 143.992831 
L 676.885575 149.891887 
L 677.224196 180.165038 
L 677.559884 170.854754 
L 677.559884 165.801461 
L 677.559884 179.176228 
L 678.229304 170.202967 
L 678.564014 108.187131 
L 679.232212 111.069875 
L 679.567655 99.761173 
L 679.567655 118.750908 
L 679.902854 161.370795 
L 680.235609 158.978084 
L 680.235609 143.871156 
L 680.57203 139.307738 
L 681.247807 113.125493 
L 681.247807 113.697317 
L 681.916249 105.327947 
L 682.590559 140.453397 
L 682.590559 158.037741 
L 682.92478 173.500711 
L 683.260712 159.981862 
L 683.260712 165.106728 
L 683.595667 157.16279 
L 683.930377 162.979452 
L 683.930377 194.759333 
L 684.26362 169.569378 
L 684.26362 172.462601 
L 684.60053 173.663464 
L 684.60053 176.252657 
L 684.934996 173.750841 
L 684.934996 162.960052 
L 685.269706 166.618525 
L 685.941082 131.823493 
L 685.941082 96.185906 
L 686.276036 91.370915 
L 686.276036 117.590781 
L 686.609524 117.632002 
L 687.285301 175.292909 
L 687.285301 169.795597 
L 687.618788 169.248123 
L 687.956677 142.514851 
L 688.29212 128.188784 
L 688.29212 120.035442 
L 688.62683 113.678866 
L 688.961785 80.753055 
L 688.961785 106.746776 
L 689.296739 113.811527 
L 689.296739 103.615509 
L 689.632671 106.334878 
L 689.967137 149.0638 
L 689.967137 148.547414 
L 690.645359 185.522755 
L 690.982758 165.670684 
L 691.988844 167.687716 
L 691.988844 148.683622 
L 692.667555 163.681384 
L 692.667555 159.724174 
L 693.002998 142.706248 
L 693.339175 159.773274 
L 694.00884 146.985814 
L 694.00884 138.131262 
L 694.34355 137.394349 
L 694.678993 151.497366 
L 695.015659 156.791814 
L 695.015659 171.819827 
L 695.686791 190.399775 
L 695.686791 194.616596 
L 696.020523 189.276317 
L 696.358656 175.548658 
L 696.358656 150.551194 
L 696.694833 146.530039 
L 697.368898 158.014424 
L 698.048831 141.312929 
L 698.048831 155.76325 
L 698.386231 175.472819 
L 699.057851 172.527487 
L 699.057851 171.192196 
L 699.39525 189.603899 
L 699.730938 187.924959 
L 700.068582 190.05672 
L 700.068582 191.503144 
L 700.404026 170.781533 
L 700.740447 169.560796 
L 701.076869 171.170688 
L 701.076869 165.299992 
L 701.414513 169.784165 
L 701.414513 182.195739 
L 702.0876 176.541817 
L 702.0876 176.955111 
L 702.766311 181.31422 
L 702.766311 151.913023 
L 703.102977 156.390468 
L 703.439643 169.129829 
L 703.439643 141.985622 
L 703.776553 164.716112 
L 703.776553 132.089372 
L 704.113464 114.280083 
L 704.453308 118.621792 
L 704.790218 127.860211 
L 704.790218 111.46417 
L 705.126884 141.336069 
L 705.464528 156.331437 
L 705.798749 158.161066 
L 705.798749 166.140892 
L 706.134926 161.073237 
L 706.471103 133.087011 
L 706.807036 127.761968 
L 707.148591 130.514434 
L 707.490392 142.531964 
L 707.82608 149.671447 
L 708.163235 160.207333 
L 708.163235 146.003827 
L 708.847813 150.716545 
L 708.847813 142.385001 
L 709.185457 140.496578 
L 709.185457 162.368392 
L 709.52139 172.119914 
L 709.52139 162.659605 
L 709.857077 172.901901 
L 710.193988 177.278525 
L 710.528942 176.274725 
L 711.19934 206.088926 
L 712.208605 152.352896 
L 712.550894 152.349639 
L 712.550894 143.904482 
L 712.889027 117.3441 
L 713.226671 152.662935 
L 713.566515 174.578625 
L 713.566515 163.022126 
L 714.242781 166.010301 
L 714.92247 190.397731 
L 715.25938 185.801475 
L 715.59678 177.775581 
L 715.93369 186.282118 
L 716.270845 178.763755 
L 716.270845 179.0964 
L 716.606777 165.223477 
L 716.94491 167.870207 
L 716.94491 163.356126 
L 717.281087 171.58669 
L 717.281087 170.200055 
L 717.62191 184.73131 
L 717.959309 188.549569 
L 718.297197 189.980625 
L 718.297197 188.20607 
L 718.632641 187.020345 
L 718.970774 191.652779 
L 719.307684 187.570584 
L 719.307684 165.252565 
L 719.643861 161.624128 
L 719.981261 153.004207 
L 719.981261 141.599384 
L 720.316949 106.162202 
L 720.655081 122.018877 
L 720.655081 131.381837 
L 720.993703 137.299387 
L 721.332325 130.872901 
L 721.67217 164.522993 
L 722.008347 156.437272 
L 722.347946 124.097977 
L 722.692192 112.326226 
L 723.711725 126.349473 
L 723.711725 123.86679 
L 724.386768 157.314344 
L 724.723923 148.703319 
L 725.061078 132.975925 
L 725.398722 90.468441 
L 725.73441 80.017902 
L 726.745875 76.940439 
L 727.084496 80.271417 
L 727.084496 101.755158 
L 727.423363 106.279103 
L 727.767853 131.212798 
L 727.767853 145.226487 
L 728.105496 139.779953 
L 728.105496 165.983081 
L 728.441429 163.298619 
L 728.441429 166.883622 
L 728.778584 186.484989 
L 729.116472 176.520214 
L 729.453138 155.16524 
L 729.453138 157.357528 
L 729.789071 162.05135 
L 730.124759 163.152873 
L 730.464847 168.694532 
L 730.801513 186.105181 
L 731.476312 136.561191 
L 731.811511 135.702147 
L 732.155023 133.509413 
L 732.492911 135.595601 
L 732.492911 169.971928 
L 732.836423 188.079194 
L 733.173089 163.726101 
L 733.509755 162.993348 
L 734.188466 169.087058 
L 734.523909 169.428937 
L 735.531707 170.261247 
L 735.868128 188.746259 
L 736.542438 171.761705 
L 736.542438 159.911063 
L 737.218704 161.342684 
L 737.218704 127.814465 
L 737.558548 123.358181 
L 737.898881 127.916018 
L 738.236281 138.243434 
L 738.57368 134.191351 
L 738.912791 174.218828 
L 739.58759 190.379434 
L 739.923522 177.397755 
L 740.594165 167.425726 
L 740.594165 164.448578 
L 740.932053 163.103004 
L 740.932053 157.093447 
L 741.27092 172.221825 
L 741.611253 141.794939 
L 741.947675 139.319341 
L 742.282874 138.304934 
L 742.617828 144.713875 
L 743.299962 180.172924 
L 743.97256 146.819334 
L 744.642958 144.158983 
L 744.642958 145.392302 
L 744.97889 145.614717 
L 744.97889 153.477814 
L 745.315556 195.57777 
L 745.989622 202.294501 
L 746.324576 192.245206 
L 746.324576 172.427379 
L 746.660753 174.148476 
L 746.660753 162.482158 
L 746.997664 136.697751 
L 747.33433 146.210369 
L 747.668306 143.96055 
L 748.007906 140.871837 
L 748.34555 101.399782 
L 748.680504 125.319651 
L 749.020349 89.166917 
L 749.357504 97.406806 
L 749.69637 100.081481 
L 750.031325 135.404784 
L 750.031325 127.680164 
L 750.368724 156.095141 
L 750.368724 147.62834 
L 751.048657 145.949518 
L 751.383123 160.409073 
L 751.717833 167.716075 
L 752.053276 169.114441 
L 752.391654 186.818155 
L 753.405319 125.054691 
L 753.741007 90.3128 
L 753.741007 94.143131 
L 754.411894 105.150579 
L 754.411894 112.311475 
L 754.747337 127.639519 
L 755.083514 133.891421 
L 755.41798 134.760916 
L 755.75269 144.048771 
L 756.086911 115.601284 
L 756.421865 120.602871 
L 756.756331 158.092675 
L 757.09153 159.648914 
L 757.426484 153.745579 
L 758.10275 201.069277 
L 758.10275 200.009106 
L 758.773148 172.216728 
L 759.442324 172.089274 
L 760.451588 179.124531 
L 760.785076 171.80122 
L 760.785076 160.122315 
L 760.785076 184.104025 
L 761.121252 163.457652 
L 761.458652 159.529683 
L 762.128316 167.348769 
L 762.799203 184.874753 
L 763.140026 179.643762 
L 763.473513 152.675272 
L 763.810424 153.245989 
L 763.810424 154.413107 
L 764.145867 166.604183 
L 764.145867 161.937267 
L 764.819199 143.851876 
L 765.158554 113.27179 
L 765.493998 119.820194 
L 765.493998 110.469896 
L 765.826996 111.211958 
L 765.826996 123.593804 
L 766.161462 148.794023 
L 766.833816 196.088489 
L 767.168037 195.280232 
L 767.168037 193.308329 
L 768.179502 200.137659 
L 768.513723 200.671471 
L 768.848922 196.223645 
L 768.848922 198.547384 
L 769.183876 180.142132 
L 769.518831 179.713497 
L 770.864028 149.050189 
L 771.202894 136.134417 
L 771.536626 132.784199 
L 771.870114 114.656453 
L 772.204824 116.575577 
L 772.204824 135.361864 
L 772.540267 75.722937 
L 772.540267 94.45939 
L 772.875222 115.26655 
L 772.875222 108.426381 
L 773.217511 94.081688 
L 773.554177 152.32326 
L 773.88962 152.399007 
L 774.223597 145.719723 
L 774.895951 166.601112 
L 775.23115 177.164727 
L 775.899103 184.283996 
L 775.899103 181.194732 
L 776.572679 191.283991 
L 777.242833 173.180511 
L 777.580232 168.346946 
L 777.580232 168.732206 
L 778.254542 155.005357 
L 778.254542 155.165367 
L 778.588029 172.778185 
L 778.924451 173.855366 
L 779.257694 161.310745 
L 779.592648 169.794689 
L 780.266714 144.252067 
L 780.938334 144.964114 
L 781.271088 160.449562 
L 781.956156 170.674938 
L 782.623864 167.29687 
L 782.623864 184.200956 
L 783.297196 183.115559 
L 783.297196 166.885956 
L 783.635818 157.117659 
L 784.639948 164.02183 
L 784.639948 147.767081 
L 784.972702 146.040251 
L 785.30619 149.923369 
L 785.30619 164.312252 
L 785.640655 179.58669 
L 785.974387 160.153001 
L 786.30763 168.022941 
L 786.30763 160.796431 
L 786.644785 149.089977 
L 786.980962 144.766531 
L 787.316406 168.445069 
L 787.649649 167.139569 
L 787.982647 163.146391 
L 788.327871 172.514421 
L 788.327871 167.895539 
L 788.994846 126.550748 
L 788.994846 134.612723 
L 789.327355 125.184481 
L 789.327355 102.180586 
L 789.660598 127.236565 
L 790.325617 134.503476 
L 790.657149 107.45848 
L 790.657149 117.093244 
L 790.987947 140.928947 
L 791.31899 107.362299 
L 791.649788 134.963379 
L 791.979853 112.636492 
L 792.969313 110.469807 
L 792.969313 113.712118 
L 793.303779 112.672286 
L 793.961463 108.452127 
L 794.290305 128.566334 
L 794.618903 111.469863 
L 794.947501 125.206948 
L 794.947501 144.842264 
L 795.604696 123.291878 
L 795.933049 142.048521 
L 796.261402 143.930316 
L 796.59 136.946185 
L 796.918842 126.364435 
L 797.246951 133.152071 
L 797.246951 140.314827 
L 797.580194 138.664588 
L 797.580194 121.305936 
L 797.908303 147.098305 
L 798.242035 147.780203 
L 798.570633 127.394507 
L 799.227339 132.566273 
L 799.88429 138.930785 
L 800.212888 118.359294 
L 800.212888 103.378568 
L 800.870083 115.638213 
L 801.198436 119.638186 
L 801.198436 135.12899 
L 801.526789 147.73277 
L 801.855387 169.776288 
L 802.184229 173.700849 
L 802.184229 166.130912 
L 802.513805 141.942422 
L 802.513805 129.510193 
L 802.842158 116.052356 
L 803.17589 111.503592 
L 803.17589 92.569403 
L 803.504488 110.605758 
L 804.491992 126.853964 
L 804.821079 103.733101 
L 805.150899 122.89224 
L 805.48023 116.356202 
L 805.809317 94.468763 
L 806.138159 109.145359 
L 806.801711 95.59088 
L 807.131776 110.588111 
L 807.131776 109.632912 
L 807.461596 132.632287 
L 807.791905 139.213746 
L 808.126371 135.16513 
L 808.126371 130.87057 
L 808.456191 154.788561 
L 808.7865 148.87439 
L 809.116076 139.852007 
L 809.116076 166.574259 
L 809.445652 172.56462 
L 809.775716 172.189324 
L 809.775716 172.192042 
L 810.10627 143.389543 
L 810.10627 133.31064 
L 811.427262 111.271942 
L 812.420634 117.378977 
L 812.750455 104.974046 
L 812.750455 133.472288 
L 813.417919 146.481867 
L 813.417919 146.481867 
" clip-path="url(#p72f4777252)" style="fill: none; stroke: #008000; stroke-width: 1.5; stroke-linecap: square"/>
   </g>
   <g id="patch_3">
    <path d="M 47.72 534.04 
L 47.72 26.88 
" style="fill: none; stroke: #000000; stroke-width: 0.8; stroke-linejoin: miter; stroke-linecap: square"/>
   </g>
   <g id="patch_4">
    <path d="M 853.2 534.04 
L 853.2 26.88 
" style="fill: none; stroke: #000000; stroke-width: 0.8; stroke-linejoin: miter; stroke-linecap: square"/>
   </g>
   <g id="patch_5">
    <path d="M 47.72 534.04 
L 853.2 534.04 
" style="fill: none; stroke: #000000; stroke-width: 0.8; stroke-linejoin: miter; stroke-linecap: square"/>
   </g>
   <g id="patch_6">
    <path d="M 47.72 26.88 
L 853.2 26.88 
" style="fill: none; stroke: #000000; stroke-width: 0.8; stroke-linejoin: miter; stroke-linecap: square"/>
   </g>
   <g id="patch_7">
    <path d="M 618.201692 488.350206 
Q 592.050398 494.184069 565.899105 500.017931 
L 566.770022 503.921968 
Q 560.262242 502.29999 553.754461 500.678012 
Q 558.955866 496.443935 564.15727 492.209858 
L 565.028187 496.113894 
Q 591.179481 490.280032 617.330775 484.446169 
L 618.201692 488.350206 
z
" style="stroke: #000000; stroke-linecap: round"/>
   </g>
   <g id="text_15">
    <!-- Peak: RT=3.18, Area=4.60e+03 -->
    <g style="fill: #ff0000" transform="translate(623.438328 471.85535) scale(0.1 -0.1)">
     <defs>
      <path id="DejaVuSans-50" d="M 1259 4147 
L 1259 2394 
L 2053 2394 
Q 2494 2394 2734 2622 
Q 2975 2850 2975 3272 
Q 2975 3691 2734 3919 
Q 2494 4147 2053 4147 
L 1259 4147 
z
M 628 4666 
L 2053 4666 
Q 2838 4666 3239 4311 
Q 3641 3956 3641 3272 
Q 3641 2581 3239 2228 
Q 2838 1875 2053 1875 
L 1259 1875 
L 1259 0 
L 628 0 
L 628 4666 
z
" transform="scale(0.015625)"/>
      <path id="DejaVuSans-6b" d="M 581 4863 
L 1159 4863 
L 1159 1991 
L 2875 3500 
L 3609 3500 
L 1753 1863 
L 3688 0 
L 2938 0 
L 1159 1709 
L 1159 0 
L 581 0 
L 581 4863 
z
" transform="scale(0.015625)"/>
      <path id="DejaVuSans-3a" d="M 750 794 
L 1409 794 
L 1409 0 
L 750 0 
L 750 794 
z
M 750 3309 
L 1409 3309 
L 1409 2516 
L 750 2516 
L 750 3309 
z
" transform="scale(0.015625)"/>
      <path id="DejaVuSans-3d" d="M 678 2906 
L 4684 2906 
L 4684 2381 
L 678 2381 
L 678 2906 
z
M 678 1631 
L 4684 1631 
L 4684 1100 
L 678 1100 
L 678 1631 
z
" transform="scale(0.015625)"/>
      <path id="DejaVuSans-38" d="M 2034 2216 
Q 1584 2216 1326 1975 
Q 1069 1734 1069 1313 
Q 1069 891 1326 650 
Q 1584 409 2034 409 
Q 2484 409 2743 651 
Q 3003 894 3003 1313 
Q 3003 1734 2745 1975 
Q 2488 2216 2034 2216 
z
M 1403 2484 
Q 997 2584 770 2862 
Q 544 3141 544 3541 
Q 544 4100 942 4425 
Q 1341 4750 2034 4750 
Q 2731 4750 3128 4425 
Q 3525 4100 3525 3541 
Q 3525 3141 3298 2862 
Q 3072 2584 2669 2484 
Q 3125 2378 3379 2068 
Q 3634 1759 3634 1313 
Q 3634 634 3220 271 
Q 2806 -91 2034 -91 
Q 1263 -91 848 271 
Q 434 634 434 1313 
Q 434 1759 690 2068 
Q 947 2378 1403 2484 
z
M 1172 3481 
Q 1172 3119 1398 2916 
Q 1625 2713 2034 2713 
Q 2441 2713 2670 2916 
Q 2900 3119 2900 3481 
Q 2900 3844 2670 4047 
Q 2441 4250 2034 4250 
Q 1625 4250 1398 4047 
Q 1172 3844 1172 3481 
z
" transform="scale(0.015625)"/>
      <path id="DejaVuSans-2c" d="M 750 794 
L 1409 794 
L 1409 256 
L 897 -744 
L 494 -744 
L 750 256 
L 750 794 
z
" transform="scale(0.015625)"/>
      <path id="DejaVuSans-41" d="M 2188 4044 
L 1331 1722 
L 3047 1722 
L 2188 4044 
z
M 1831 4666 
L 2547 4666 
L 4325 0 
L 3669 0 
L 3244 1197 
L 1141 1197 
L 716 0 
L 50 0 
L 1831 4666 
z
" transform="scale(0.015625)"/>
      <path id="DejaVuSans-36" d="M 2113 2584 
Q 1688 2584 1439 2293 
Q 1191 2003 1191 1497 
Q 1191 994 1439 701 
Q 1688 409 2113 409 
Q 2538 409 2786 701 
Q 3034 994 3034 1497 
Q 3034 2003 2786 2293 
Q 2538 2584 2113 2584 
z
M 3366 4563 
L 3366 3988 
Q 3128 4100 2886 4159 
Q 2644 4219 2406 4219 
Q 1781 4219 1451 3797 
Q 1122 3375 1075 2522 
Q 1259 2794 1537 2939 
Q 1816 3084 2150 3084 
Q 2853 3084 3261 2657 
Q 3669 2231 3669 1497 
Q 3669 778 3244 343 
Q 2819 -91 2113 -91 
Q 1303 -91 875 529 
Q 447 1150 447 2328 
Q 447 3434 972 4092 
Q 1497 4750 2381 4750 
Q 2619 4750 2861 4703 
Q 3103 4656 3366 4563 
z
" transform="scale(0.015625)"/>
      <path id="DejaVuSans-2b" d="M 2944 4013 
L 2944 2272 
L 4684 2272 
L 4684 1741 
L 2944 1741 
L 2944 0 
L 2419 0 
L 2419 1741 
L 678 1741 
L 678 2272 
L 2419 2272 
L 2419 4013 
L 2944 4013 
z
" transform="scale(0.015625)"/>
     </defs>
     <use xlink:href="#DejaVuSans-50"/>
     <use xlink:href="#DejaVuSans-65" transform="translate(56.677734 0)"/>
     <use xlink:href="#DejaVuSans-61" transform="translate(118.201172 0)"/>
     <use xlink:href="#DejaVuSans-6b" transform="translate(179.480469 0)"/>
     <use xlink:href="#DejaVuSans-3a" transform="translate(237.390625 0)"/>
     <use xlink:href="#DejaVuSans-20" transform="translate(271.082031 0)"/>
     <use xlink:href="#DejaVuSans-52" transform="translate(302.869141 0)"/>
     <use xlink:href="#DejaVuSans-54" transform="translate(365.101562 0)"/>
     <use xlink:href="#DejaVuSans-3d" transform="translate(426.185547 0)"/>
     <use xlink:href="#DejaVuSans-33" transform="translate(509.974609 0)"/>
     <use xlink:href="#DejaVuSans-2e" transform="translate(573.597656 0)"/>
     <use xlink:href="#DejaVuSans-31" transform="translate(605.384766 0)"/>
     <use xlink:href="#DejaVuSans-38" transform="translate(669.007812 0)"/>
     <use xlink:href="#DejaVuSans-2c" transform="translate(732.630859 0)"/>
     <use xlink:href="#DejaVuSans-20" transform="translate(764.417969 0)"/>
     <use xlink:href="#DejaVuSans-41" transform="translate(796.205078 0)"/>
     <use xlink:href="#DejaVuSans-72" transform="translate(864.613281 0)"/>
     <use xlink:href="#DejaVuSans-65" transform="translate(903.476562 0)"/>
     <use xlink:href="#DejaVuSans-61" transform="translate(965 0)"/>
     <use xlink:href="#DejaVuSans-3d" transform="translate(1026.279297 0)"/>
     <use xlink:href="#DejaVuSans-34" transform="translate(1110.068359 0)"/>
     <use xlink:href="#DejaVuSans-2e" transform="translate(1173.691406 0)"/>
     <use xlink:href="#DejaVuSans-36" transform="translate(1205.478516 0)"/>
     <use xlink:href="#DejaVuSans-30" transform="translate(1269.101562 0)"/>
     <use xlink:href="#DejaVuSans-65" transform="translate(1332.724609 0)"/>
     <use xlink:href="#DejaVuSans-2b" transform="translate(1394.248047 0)"/>
     <use xlink:href="#DejaVuSans-30" transform="translate(1478.037109 0)"/>
     <use xlink:href="#DejaVuSans-33" transform="translate(1541.660156 0)"/>
    </g>
    <!-- (6.07% of total) -->
    <g style="fill: #ff0000" transform="translate(623.438328 483.053163) scale(0.1 -0.1)">
     <defs>
      <path id="DejaVuSans-37" d="M 525 4666 
L 3525 4666 
L 3525 4397 
L 1831 0 
L 1172 0 
L 2766 4134 
L 525 4134 
L 525 4666 
z
" transform="scale(0.015625)"/>
      <path id="DejaVuSans-25" d="M 4653 2053 
Q 4381 2053 4226 1822 
Q 4072 1591 4072 1178 
Q 4072 772 4226 539 
Q 4381 306 4653 306 
Q 4919 306 5073 539 
Q 5228 772 5228 1178 
Q 5228 1588 5073 1820 
Q 4919 2053 4653 2053 
z
M 4653 2450 
Q 5147 2450 5437 2106 
Q 5728 1763 5728 1178 
Q 5728 594 5436 251 
Q 5144 -91 4653 -91 
Q 4153 -91 3862 251 
Q 3572 594 3572 1178 
Q 3572 1766 3864 2108 
Q 4156 2450 4653 2450 
z
M 1428 4353 
Q 1159 4353 1004 4120 
Q 850 3888 850 3481 
Q 850 3069 1003 2837 
Q 1156 2606 1428 2606 
Q 1700 2606 1854 2837 
Q 2009 3069 2009 3481 
Q 2009 3884 1853 4118 
Q 1697 4353 1428 4353 
z
M 4250 4750 
L 4750 4750 
L 1831 -91 
L 1331 -91 
L 4250 4750 
z
M 1428 4750 
Q 1922 4750 2215 4408 
Q 2509 4066 2509 3481 
Q 2509 2891 2217 2550 
Q 1925 2209 1428 2209 
Q 931 2209 642 2551 
Q 353 2894 353 3481 
Q 353 4063 643 4406 
Q 934 4750 1428 4750 
z
" transform="scale(0.015625)"/>
      <path id="DejaVuSans-66" d="M 2375 4863 
L 2375 4384 
L 1825 4384 
Q 1516 4384 1395 4259 
Q 1275 4134 1275 3809 
L 1275 3500 
L 2222 3500 
L 2222 3053 
L 1275 3053 
L 1275 0 
L 697 0 
L 697 3053 
L 147 3053 
L 147 3500 
L 697 3500 
L 697 3744 
Q 697 4328 969 4595 
Q 1241 4863 1831 4863 
L 2375 4863 
z
" transform="scale(0.015625)"/>
     </defs>
     <use xlink:href="#DejaVuSans-28"/>
     <use xlink:href="#DejaVuSans-36" transform="translate(39.013672 0)"/>
     <use xlink:href="#DejaVuSans-2e" transform="translate(102.636719 0)"/>
     <use xlink:href="#DejaVuSans-30" transform="translate(134.423828 0)"/>
     <use xlink:href="#DejaVuSans-37" transform="translate(198.046875 0)"/>
     <use xlink:href="#DejaVuSans-25" transform="translate(261.669922 0)"/>
     <use xlink:href="#DejaVuSans-20" transform="translate(356.689453 0)"/>
     <use xlink:href="#DejaVuSans-6f" transform="translate(388.476562 0)"/>
     <use xlink:href="#DejaVuSans-66" transform="translate(449.658203 0)"/>
     <use xlink:href="#DejaVuSans-20" transform="translate(484.863281 0)"/>
     <use xlink:href="#DejaVuSans-74" transform="translate(516.650391 0)"/>
     <use xlink:href="#DejaVuSans-6f" transform="translate(555.859375 0)"/>
     <use xlink:href="#DejaVuSans-74" transform="translate(617.041016 0)"/>
     <use xlink:href="#DejaVuSans-61" transform="translate(656.25 0)"/>
     <use xlink:href="#DejaVuSans-6c" transform="translate(717.529297 0)"/>
     <use xlink:href="#DejaVuSans-29" transform="translate(745.3125 0)"/>
    </g>
   </g>
   <g id="text_16">
    <!-- UV &amp; MS Chromatograms: IrCp2M10, target m/z=836.0833194 -->
    <g transform="translate(261.235 20.88) scale(0.12 -0.12)">
     <defs>
      <path id="DejaVuSans-55" d="M 556 4666 
L 1191 4666 
L 1191 1831 
Q 1191 1081 1462 751 
Q 1734 422 2344 422 
Q 2950 422 3222 751 
Q 3494 1081 3494 1831 
L 3494 4666 
L 4128 4666 
L 4128 1753 
Q 4128 841 3676 375 
Q 3225 -91 2344 -91 
Q 1459 -91 1007 375 
Q 556 841 556 1753 
L 556 4666 
z
" transform="scale(0.015625)"/>
      <path id="DejaVuSans-56" d="M 1831 0 
L 50 4666 
L 709 4666 
L 2188 738 
L 3669 4666 
L 4325 4666 
L 2547 0 
L 1831 0 
z
" transform="scale(0.015625)"/>
      <path id="DejaVuSans-26" d="M 1556 2509 
Q 1272 2256 1139 2004 
Q 1006 1753 1006 1478 
Q 1006 1022 1337 719 
Q 1669 416 2169 416 
Q 2466 416 2725 514 
Q 2984 613 3213 813 
L 1556 2509 
z
M 1997 2859 
L 3584 1234 
Q 3769 1513 3872 1830 
Q 3975 2147 3994 2503 
L 4575 2503 
Q 4538 2091 4375 1687 
Q 4213 1284 3922 891 
L 4794 0 
L 4006 0 
L 3559 459 
Q 3234 181 2878 45 
Q 2522 -91 2113 -91 
Q 1359 -91 881 339 
Q 403 769 403 1441 
Q 403 1841 612 2192 
Q 822 2544 1241 2853 
Q 1091 3050 1012 3245 
Q 934 3441 934 3628 
Q 934 4134 1281 4442 
Q 1628 4750 2203 4750 
Q 2463 4750 2720 4694 
Q 2978 4638 3244 4525 
L 3244 3956 
Q 2972 4103 2725 4179 
Q 2478 4256 2266 4256 
Q 1938 4256 1733 4082 
Q 1528 3909 1528 3634 
Q 1528 3475 1620 3314 
Q 1713 3153 1997 2859 
z
" transform="scale(0.015625)"/>
      <path id="DejaVuSans-4d" d="M 628 4666 
L 1569 4666 
L 2759 1491 
L 3956 4666 
L 4897 4666 
L 4897 0 
L 4281 0 
L 4281 4097 
L 3078 897 
L 2444 897 
L 1241 4097 
L 1241 0 
L 628 0 
L 628 4666 
z
" transform="scale(0.015625)"/>
      <path id="DejaVuSans-53" d="M 3425 4513 
L 3425 3897 
Q 3066 4069 2747 4153 
Q 2428 4238 2131 4238 
Q 1616 4238 1336 4038 
Q 1056 3838 1056 3469 
Q 1056 3159 1242 3001 
Q 1428 2844 1947 2747 
L 2328 2669 
Q 3034 2534 3370 2195 
Q 3706 1856 3706 1288 
Q 3706 609 3251 259 
Q 2797 -91 1919 -91 
Q 1588 -91 1214 -16 
Q 841 59 441 206 
L 441 856 
Q 825 641 1194 531 
Q 1563 422 1919 422 
Q 2459 422 2753 634 
Q 3047 847 3047 1241 
Q 3047 1584 2836 1778 
Q 2625 1972 2144 2069 
L 1759 2144 
Q 1053 2284 737 2584 
Q 422 2884 422 3419 
Q 422 4038 858 4394 
Q 1294 4750 2059 4750 
Q 2388 4750 2728 4690 
Q 3069 4631 3425 4513 
z
" transform="scale(0.015625)"/>
      <path id="DejaVuSans-43" d="M 4122 4306 
L 4122 3641 
Q 3803 3938 3442 4084 
Q 3081 4231 2675 4231 
Q 1875 4231 1450 3742 
Q 1025 3253 1025 2328 
Q 1025 1406 1450 917 
Q 1875 428 2675 428 
Q 3081 428 3442 575 
Q 3803 722 4122 1019 
L 4122 359 
Q 3791 134 3420 21 
Q 3050 -91 2638 -91 
Q 1578 -91 968 557 
Q 359 1206 359 2328 
Q 359 3453 968 4101 
Q 1578 4750 2638 4750 
Q 3056 4750 3426 4639 
Q 3797 4528 4122 4306 
z
" transform="scale(0.015625)"/>
      <path id="DejaVuSans-68" d="M 3513 2113 
L 3513 0 
L 2938 0 
L 2938 2094 
Q 2938 2591 2744 2837 
Q 2550 3084 2163 3084 
Q 1697 3084 1428 2787 
Q 1159 2491 1159 1978 
L 1159 0 
L 581 0 
L 581 4863 
L 1159 4863 
L 1159 2956 
Q 1366 3272 1645 3428 
Q 1925 3584 2291 3584 
Q 2894 3584 3203 3211 
Q 3513 2838 3513 2113 
z
" transform="scale(0.015625)"/>
      <path id="DejaVuSans-67" d="M 2906 1791 
Q 2906 2416 2648 2759 
Q 2391 3103 1925 3103 
Q 1463 3103 1205 2759 
Q 947 2416 947 1791 
Q 947 1169 1205 825 
Q 1463 481 1925 481 
Q 2391 481 2648 825 
Q 2906 1169 2906 1791 
z
M 3481 434 
Q 3481 -459 3084 -895 
Q 2688 -1331 1869 -1331 
Q 1566 -1331 1297 -1286 
Q 1028 -1241 775 -1147 
L 775 -588 
Q 1028 -725 1275 -790 
Q 1522 -856 1778 -856 
Q 2344 -856 2625 -561 
Q 2906 -266 2906 331 
L 2906 616 
Q 2728 306 2450 153 
Q 2172 0 1784 0 
Q 1141 0 747 490 
Q 353 981 353 1791 
Q 353 2603 747 3093 
Q 1141 3584 1784 3584 
Q 2172 3584 2450 3431 
Q 2728 3278 2906 2969 
L 2906 3500 
L 3481 3500 
L 3481 434 
z
" transform="scale(0.015625)"/>
      <path id="DejaVuSans-70" d="M 1159 525 
L 1159 -1331 
L 581 -1331 
L 581 3500 
L 1159 3500 
L 1159 2969 
Q 1341 3281 1617 3432 
Q 1894 3584 2278 3584 
Q 2916 3584 3314 3078 
Q 3713 2572 3713 1747 
Q 3713 922 3314 415 
Q 2916 -91 2278 -91 
Q 1894 -91 1617 61 
Q 1341 213 1159 525 
z
M 3116 1747 
Q 3116 2381 2855 2742 
Q 2594 3103 2138 3103 
Q 1681 3103 1420 2742 
Q 1159 2381 1159 1747 
Q 1159 1113 1420 752 
Q 1681 391 2138 391 
Q 2594 391 2855 752 
Q 3116 1113 3116 1747 
z
" transform="scale(0.015625)"/>
      <path id="DejaVuSans-2f" d="M 1625 4666 
L 2156 4666 
L 531 -594 
L 0 -594 
L 1625 4666 
z
" transform="scale(0.015625)"/>
      <path id="DejaVuSans-39" d="M 703 97 
L 703 672 
Q 941 559 1184 500 
Q 1428 441 1663 441 
Q 2288 441 2617 861 
Q 2947 1281 2994 2138 
Q 2813 1869 2534 1725 
Q 2256 1581 1919 1581 
Q 1219 1581 811 2004 
Q 403 2428 403 3163 
Q 403 3881 828 4315 
Q 1253 4750 1959 4750 
Q 2769 4750 3195 4129 
Q 3622 3509 3622 2328 
Q 3622 1225 3098 567 
Q 2575 -91 1691 -91 
Q 1453 -91 1209 -44 
Q 966 3 703 97 
z
M 1959 2075 
Q 2384 2075 2632 2365 
Q 2881 2656 2881 3163 
Q 2881 3666 2632 3958 
Q 2384 4250 1959 4250 
Q 1534 4250 1286 3958 
Q 1038 3666 1038 3163 
Q 1038 2656 1286 2365 
Q 1534 2075 1959 2075 
z
" transform="scale(0.015625)"/>
     </defs>
     <use xlink:href="#DejaVuSans-55"/>
     <use xlink:href="#DejaVuSans-56" transform="translate(73.193359 0)"/>
     <use xlink:href="#DejaVuSans-20" transform="translate(141.601562 0)"/>
     <use xlink:href="#DejaVuSans-26" transform="translate(173.388672 0)"/>
     <use xlink:href="#DejaVuSans-20" transform="translate(251.367188 0)"/>
     <use xlink:href="#DejaVuSans-4d" transform="translate(283.154297 0)"/>
     <use xlink:href="#DejaVuSans-53" transform="translate(369.433594 0)"/>
     <use xlink:href="#DejaVuSans-20" transform="translate(432.910156 0)"/>
     <use xlink:href="#DejaVuSans-43" transform="translate(464.697266 0)"/>
     <use xlink:href="#DejaVuSans-68" transform="translate(534.521484 0)"/>
     <use xlink:href="#DejaVuSans-72" transform="translate(597.900391 0)"/>
     <use xlink:href="#DejaVuSans-6f" transform="translate(636.763672 0)"/>
     <use xlink:href="#DejaVuSans-6d" transform="translate(697.945312 0)"/>
     <use xlink:href="#DejaVuSans-61" transform="translate(795.357422 0)"/>
     <use xlink:href="#DejaVuSans-74" transform="translate(856.636719 0)"/>
     <use xlink:href="#DejaVuSans-6f" transform="translate(895.845703 0)"/>
     <use xlink:href="#DejaVuSans-67" transform="translate(957.027344 0)"/>
     <use xlink:href="#DejaVuSans-72" transform="translate(1020.503906 0)"/>
     <use xlink:href="#DejaVuSans-61" transform="translate(1061.617188 0)"/>
     <use xlink:href="#DejaVuSans-6d" transform="translate(1122.896484 0)"/>
     <use xlink:href="#DejaVuSans-73" transform="translate(1220.308594 0)"/>
     <use xlink:href="#DejaVuSans-3a" transform="translate(1272.408203 0)"/>
     <use xlink:href="#DejaVuSans-20" transform="translate(1306.099609 0)"/>
     <use xlink:href="#DejaVuSans-49" transform="translate(1337.886719 0)"/>
     <use xlink:href="#DejaVuSans-72" transform="translate(1367.378906 0)"/>
     <use xlink:href="#DejaVuSans-43" transform="translate(1408.492188 0)"/>
     <use xlink:href="#DejaVuSans-70" transform="translate(1478.316406 0)"/>
     <use xlink:href="#DejaVuSans-32" transform="translate(1541.792969 0)"/>
     <use xlink:href="#DejaVuSans-4d" transform="translate(1605.416016 0)"/>
     <use xlink:href="#DejaVuSans-31" transform="translate(1691.695312 0)"/>
     <use xlink:href="#DejaVuSans-30" transform="translate(1755.318359 0)"/>
     <use xlink:href="#DejaVuSans-2c" transform="translate(1818.941406 0)"/>
     <use xlink:href="#DejaVuSans-20" transform="translate(1850.728516 0)"/>
     <use xlink:href="#DejaVuSans-74" transform="translate(1882.515625 0)"/>
     <use xlink:href="#DejaVuSans-61" transform="translate(1921.724609 0)"/>
     <use xlink:href="#DejaVuSans-72" transform="translate(1983.003906 0)"/>
     <use xlink:href="#DejaVuSans-67" transform="translate(2022.367188 0)"/>
     <use xlink:href="#DejaVuSans-65" transform="translate(2085.84375 0)"/>
     <use xlink:href="#DejaVuSans-74" transform="translate(2147.367188 0)"/>
     <use xlink:href="#DejaVuSans-20" transform="translate(2186.576172 0)"/>
     <use xlink:href="#DejaVuSans-6d" transform="translate(2218.363281 0)"/>
     <use xlink:href="#DejaVuSans-2f" transform="translate(2315.775391 0)"/>
     <use xlink:href="#DejaVuSans-7a" transform="translate(2349.466797 0)"/>
     <use xlink:href="#DejaVuSans-3d" transform="translate(2401.957031 0)"/>
     <use xlink:href="#DejaVuSans-38" transform="translate(2485.746094 0)"/>
     <use xlink:href="#DejaVuSans-33" transform="translate(2549.369141 0)"/>
     <use xlink:href="#DejaVuSans-36" transform="translate(2612.992188 0)"/>
     <use xlink:href="#DejaVuSans-2e" transform="translate(2676.615234 0)"/>
     <use xlink:href="#DejaVuSans-30" transform="translate(2708.402344 0)"/>
     <use xlink:href="#DejaVuSans-38" transform="translate(2772.025391 0)"/>
     <use xlink:href="#DejaVuSans-33" transform="translate(2835.648438 0)"/>
     <use xlink:href="#DejaVuSans-33" transform="translate(2899.271484 0)"/>
     <use xlink:href="#DejaVuSans-31" transform="translate(2962.894531 0)"/>
     <use xlink:href="#DejaVuSans-39" transform="translate(3026.517578 0)"/>
     <use xlink:href="#DejaVuSans-34" transform="translate(3090.140625 0)"/>
    </g>
   </g>
   <g id="legend_1">
    <g id="patch_8">
     <path d="M 685.971875 64.23625 
L 846.2 64.23625 
Q 848.2 64.23625 848.2 62.23625 
L 848.2 33.88 
Q 848.2 31.88 846.2 31.88 
L 685.971875 31.88 
Q 683.971875 31.88 683.971875 33.88 
L 683.971875 62.23625 
Q 683.971875 64.23625 685.971875 64.23625 
z
" style="fill: #ffffff; opacity: 0.8; stroke: #cccccc; stroke-linejoin: miter"/>
    </g>
    <g id="line2d_15">
     <path d="M 687.971875 39.978437 
L 697.971875 39.978437 
L 707.971875 39.978437 
" style="fill: none; stroke: #0000ff; stroke-width: 1.5; stroke-linecap: square"/>
    </g>
    <g id="text_17">
     <!-- UV Intensity (normalized) -->
     <g transform="translate(715.971875 43.478437) scale(0.1 -0.1)">
      <use xlink:href="#DejaVuSans-55"/>
      <use xlink:href="#DejaVuSans-56" transform="translate(73.193359 0)"/>
      <use xlink:href="#DejaVuSans-20" transform="translate(141.601562 0)"/>
      <use xlink:href="#DejaVuSans-49" transform="translate(173.388672 0)"/>
      <use xlink:href="#DejaVuSans-6e" transform="translate(202.880859 0)"/>
      <use xlink:href="#DejaVuSans-74" transform="translate(266.259766 0)"/>
      <use xlink:href="#DejaVuSans-65" transform="translate(305.46875 0)"/>
      <use xlink:href="#DejaVuSans-6e" transform="translate(366.992188 0)"/>
      <use xlink:href="#DejaVuSans-73" transform="translate(430.371094 0)"/>
      <use xlink:href="#DejaVuSans-69" transform="translate(482.470703 0)"/>
      <use xlink:href="#DejaVuSans-74" transform="translate(510.253906 0)"/>
      <use xlink:href="#DejaVuSans-79" transform="translate(549.462891 0)"/>
      <use xlink:href="#DejaVuSans-20" transform="translate(608.642578 0)"/>
      <use xlink:href="#DejaVuSans-28" transform="translate(640.429688 0)"/>
      <use xlink:href="#DejaVuSans-6e" transform="translate(679.443359 0)"/>
      <use xlink:href="#DejaVuSans-6f" transform="translate(742.822266 0)"/>
      <use xlink:href="#DejaVuSans-72" transform="translate(804.003906 0)"/>
      <use xlink:href="#DejaVuSans-6d" transform="translate(843.367188 0)"/>
      <use xlink:href="#DejaVuSans-61" transform="translate(940.779297 0)"/>
      <use xlink:href="#DejaVuSans-6c" transform="translate(1002.058594 0)"/>
      <use xlink:href="#DejaVuSans-69" transform="translate(1029.841797 0)"/>
      <use xlink:href="#DejaVuSans-7a" transform="translate(1057.625 0)"/>
      <use xlink:href="#DejaVuSans-65" transform="translate(1110.115234 0)"/>
      <use xlink:href="#DejaVuSans-64" transform="translate(1171.638672 0)"/>
      <use xlink:href="#DejaVuSans-29" transform="translate(1235.115234 0)"/>
     </g>
    </g>
    <g id="line2d_16">
     <path d="M 687.971875 54.656562 
L 697.971875 54.656562 
L 707.971875 54.656562 
" style="fill: none; stroke: #008000; stroke-width: 1.5; stroke-linecap: square"/>
    </g>
    <g id="text_18">
     <!-- MS Intensity (normalized) -->
     <g transform="translate(715.971875 58.156562) scale(0.1 -0.1)">
      <use xlink:href="#DejaVuSans-4d"/>
      <use xlink:href="#DejaVuSans-53" transform="translate(86.279297 0)"/>
      <use xlink:href="#DejaVuSans-20" transform="translate(149.755859 0)"/>
      <use xlink:href="#DejaVuSans-49" transform="translate(181.542969 0)"/>
      <use xlink:href="#DejaVuSans-6e" transform="translate(211.035156 0)"/>
      <use xlink:href="#DejaVuSans-74" transform="translate(274.414062 0)"/>
      <use xlink:href="#DejaVuSans-65" transform="translate(313.623047 0)"/>
      <use xlink:href="#DejaVuSans-6e" transform="translate(375.146484 0)"/>
      <use xlink:href="#DejaVuSans-73" transform="translate(438.525391 0)"/>
      <use xlink:href="#DejaVuSans-69" transform="translate(490.625 0)"/>
      <use xlink:href="#DejaVuSans-74" transform="translate(518.408203 0)"/>
      <use xlink:href="#DejaVuSans-79" transform="translate(557.617188 0)"/>
      <use xlink:href="#DejaVuSans-20" transform="translate(616.796875 0)"/>
      <use xlink:href="#DejaVuSans-28" transform="translate(648.583984 0)"/>
      <use xlink:href="#DejaVuSans-6e" transform="translate(687.597656 0)"/>
      <use xlink:href="#DejaVuSans-6f" transform="translate(750.976562 0)"/>
      <use xlink:href="#DejaVuSans-72" transform="translate(812.158203 0)"/>
      <use xlink:href="#DejaVuSans-6d" transform="translate(851.521484 0)"/>
      <use xlink:href="#DejaVuSans-61" transform="translate(948.933594 0)"/>
      <use xlink:href="#DejaVuSans-6c" transform="translate(1010.212891 0)"/>
      <use xlink:href="#DejaVuSans-69" transform="translate(1037.996094 0)"/>
      <use xlink:href="#DejaVuSans-7a" transform="translate(1065.779297 0)"/>
      <use xlink:href="#DejaVuSans-65" transform="translate(1118.269531 0)"/>
      <use xlink:href="#DejaVuSans-64" transform="translate(1179.792969 0)"/>
      <use xlink:href="#DejaVuSans-29" transform="translate(1243.269531 0)"/>
     </g>
    </g>
   </g>
  </g>
 </g>
 <defs>
  <clipPath id="p72f4777252">
   <rect x="47.72" y="26.88" width="805.48" height="507.16"/>
  </clipPath>
 </defs>
</svg>
