<?xml version="1.0" encoding="utf-8" standalone="no"?>
<!DOCTYPE svg PUBLIC "-//W3C//DTD SVG 1.1//EN"
  "http://www.w3.org/Graphics/SVG/1.1/DTD/svg11.dtd">
<svg xmlns:xlink="http://www.w3.org/1999/xlink" width="864pt" height="576pt" viewBox="0 0 864 576" xmlns="http://www.w3.org/2000/svg" version="1.1">
 <metadata>
  <rdf:RDF xmlns:dc="http://purl.org/dc/elements/1.1/" xmlns:cc="http://creativecommons.org/ns#" xmlns:rdf="http://www.w3.org/1999/02/22-rdf-syntax-ns#">
   <cc:Work>
    <dc:type rdf:resource="http://purl.org/dc/dcmitype/StillImage"/>
    <dc:date>2024-12-06T16:20:40.437314</dc:date>
    <dc:format>image/svg+xml</dc:format>
    <dc:creator>
     <cc:Agent>
      <dc:title>Matplotlib v3.9.0, https://matplotlib.org/</dc:title>
     </cc:Agent>
    </dc:creator>
   </cc:Work>
  </rdf:RDF>
 </metadata>
 <defs>
  <style type="text/css">*{stroke-linejoin: round; stroke-linecap: butt}</style>
 </defs>
 <g id="figure_1">
  <g id="patch_1">
   <path d="M 0 576 
L 864 576 
L 864 0 
L 0 0 
z
" style="fill: #ffffff"/>
  </g>
  <g id="axes_1">
   <g id="patch_2">
    <path d="M 47.72 534.04 
L 853.2 534.04 
L 853.2 26.88 
L 47.72 26.88 
z
" style="fill: #ffffff"/>
   </g>
   <g id="matplotlib.axis_1">
    <g id="xtick_1">
     <g id="line2d_1">
      <defs>
       <path id="m5e93c51c05" d="M 0 0 
L 0 3.5 
" style="stroke: #000000; stroke-width: 0.8"/>
      </defs>
      <g>
       <use xlink:href="#m5e93c51c05" x="83.451229" y="534.04" style="stroke: #000000; stroke-width: 0.8"/>
      </g>
     </g>
     <g id="text_1">
      <!-- 0 -->
      <g transform="translate(80.269979 548.638438) scale(0.1 -0.1)">
       <defs>
        <path id="DejaVuSans-30" d="M 2034 4250 
Q 1547 4250 1301 3770 
Q 1056 3291 1056 2328 
Q 1056 1369 1301 889 
Q 1547 409 2034 409 
Q 2525 409 2770 889 
Q 3016 1369 3016 2328 
Q 3016 3291 2770 3770 
Q 2525 4250 2034 4250 
z
M 2034 4750 
Q 2819 4750 3233 4129 
Q 3647 3509 3647 2328 
Q 3647 1150 3233 529 
Q 2819 -91 2034 -91 
Q 1250 -91 836 529 
Q 422 1150 422 2328 
Q 422 3509 836 4129 
Q 1250 4750 2034 4750 
z
" transform="scale(0.015625)"/>
       </defs>
       <use xlink:href="#DejaVuSans-30"/>
      </g>
     </g>
    </g>
    <g id="xtick_2">
     <g id="line2d_2">
      <g>
       <use xlink:href="#m5e93c51c05" x="188.183703" y="534.04" style="stroke: #000000; stroke-width: 0.8"/>
      </g>
     </g>
     <g id="text_2">
      <!-- 1 -->
      <g transform="translate(185.002453 548.638438) scale(0.1 -0.1)">
       <defs>
        <path id="DejaVuSans-31" d="M 794 531 
L 1825 531 
L 1825 4091 
L 703 3866 
L 703 4441 
L 1819 4666 
L 2450 4666 
L 2450 531 
L 3481 531 
L 3481 0 
L 794 0 
L 794 531 
z
" transform="scale(0.015625)"/>
       </defs>
       <use xlink:href="#DejaVuSans-31"/>
      </g>
     </g>
    </g>
    <g id="xtick_3">
     <g id="line2d_3">
      <g>
       <use xlink:href="#m5e93c51c05" x="292.916176" y="534.04" style="stroke: #000000; stroke-width: 0.8"/>
      </g>
     </g>
     <g id="text_3">
      <!-- 2 -->
      <g transform="translate(289.734926 548.638438) scale(0.1 -0.1)">
       <defs>
        <path id="DejaVuSans-32" d="M 1228 531 
L 3431 531 
L 3431 0 
L 469 0 
L 469 531 
Q 828 903 1448 1529 
Q 2069 2156 2228 2338 
Q 2531 2678 2651 2914 
Q 2772 3150 2772 3378 
Q 2772 3750 2511 3984 
Q 2250 4219 1831 4219 
Q 1534 4219 1204 4116 
Q 875 4013 500 3803 
L 500 4441 
Q 881 4594 1212 4672 
Q 1544 4750 1819 4750 
Q 2544 4750 2975 4387 
Q 3406 4025 3406 3419 
Q 3406 3131 3298 2873 
Q 3191 2616 2906 2266 
Q 2828 2175 2409 1742 
Q 1991 1309 1228 531 
z
" transform="scale(0.015625)"/>
       </defs>
       <use xlink:href="#DejaVuSans-32"/>
      </g>
     </g>
    </g>
    <g id="xtick_4">
     <g id="line2d_4">
      <g>
       <use xlink:href="#m5e93c51c05" x="397.64865" y="534.04" style="stroke: #000000; stroke-width: 0.8"/>
      </g>
     </g>
     <g id="text_4">
      <!-- 3 -->
      <g transform="translate(394.4674 548.638438) scale(0.1 -0.1)">
       <defs>
        <path id="DejaVuSans-33" d="M 2597 2516 
Q 3050 2419 3304 2112 
Q 3559 1806 3559 1356 
Q 3559 666 3084 287 
Q 2609 -91 1734 -91 
Q 1441 -91 1130 -33 
Q 819 25 488 141 
L 488 750 
Q 750 597 1062 519 
Q 1375 441 1716 441 
Q 2309 441 2620 675 
Q 2931 909 2931 1356 
Q 2931 1769 2642 2001 
Q 2353 2234 1838 2234 
L 1294 2234 
L 1294 2753 
L 1863 2753 
Q 2328 2753 2575 2939 
Q 2822 3125 2822 3475 
Q 2822 3834 2567 4026 
Q 2313 4219 1838 4219 
Q 1578 4219 1281 4162 
Q 984 4106 628 3988 
L 628 4550 
Q 988 4650 1302 4700 
Q 1616 4750 1894 4750 
Q 2613 4750 3031 4423 
Q 3450 4097 3450 3541 
Q 3450 3153 3228 2886 
Q 3006 2619 2597 2516 
z
" transform="scale(0.015625)"/>
       </defs>
       <use xlink:href="#DejaVuSans-33"/>
      </g>
     </g>
    </g>
    <g id="xtick_5">
     <g id="line2d_5">
      <g>
       <use xlink:href="#m5e93c51c05" x="502.381124" y="534.04" style="stroke: #000000; stroke-width: 0.8"/>
      </g>
     </g>
     <g id="text_5">
      <!-- 4 -->
      <g transform="translate(499.199874 548.638438) scale(0.1 -0.1)">
       <defs>
        <path id="DejaVuSans-34" d="M 2419 4116 
L 825 1625 
L 2419 1625 
L 2419 4116 
z
M 2253 4666 
L 3047 4666 
L 3047 1625 
L 3713 1625 
L 3713 1100 
L 3047 1100 
L 3047 0 
L 2419 0 
L 2419 1100 
L 313 1100 
L 313 1709 
L 2253 4666 
z
" transform="scale(0.015625)"/>
       </defs>
       <use xlink:href="#DejaVuSans-34"/>
      </g>
     </g>
    </g>
    <g id="xtick_6">
     <g id="line2d_6">
      <g>
       <use xlink:href="#m5e93c51c05" x="607.113598" y="534.04" style="stroke: #000000; stroke-width: 0.8"/>
      </g>
     </g>
     <g id="text_6">
      <!-- 5 -->
      <g transform="translate(603.932348 548.638438) scale(0.1 -0.1)">
       <defs>
        <path id="DejaVuSans-35" d="M 691 4666 
L 3169 4666 
L 3169 4134 
L 1269 4134 
L 1269 2991 
Q 1406 3038 1543 3061 
Q 1681 3084 1819 3084 
Q 2600 3084 3056 2656 
Q 3513 2228 3513 1497 
Q 3513 744 3044 326 
Q 2575 -91 1722 -91 
Q 1428 -91 1123 -41 
Q 819 9 494 109 
L 494 744 
Q 775 591 1075 516 
Q 1375 441 1709 441 
Q 2250 441 2565 725 
Q 2881 1009 2881 1497 
Q 2881 1984 2565 2268 
Q 2250 2553 1709 2553 
Q 1456 2553 1204 2497 
Q 953 2441 691 2322 
L 691 4666 
z
" transform="scale(0.015625)"/>
       </defs>
       <use xlink:href="#DejaVuSans-35"/>
      </g>
     </g>
    </g>
    <g id="xtick_7">
     <g id="line2d_7">
      <g>
       <use xlink:href="#m5e93c51c05" x="711.846071" y="534.04" style="stroke: #000000; stroke-width: 0.8"/>
      </g>
     </g>
     <g id="text_7">
      <!-- 6 -->
      <g transform="translate(708.664821 548.638438) scale(0.1 -0.1)">
       <defs>
        <path id="DejaVuSans-36" d="M 2113 2584 
Q 1688 2584 1439 2293 
Q 1191 2003 1191 1497 
Q 1191 994 1439 701 
Q 1688 409 2113 409 
Q 2538 409 2786 701 
Q 3034 994 3034 1497 
Q 3034 2003 2786 2293 
Q 2538 2584 2113 2584 
z
M 3366 4563 
L 3366 3988 
Q 3128 4100 2886 4159 
Q 2644 4219 2406 4219 
Q 1781 4219 1451 3797 
Q 1122 3375 1075 2522 
Q 1259 2794 1537 2939 
Q 1816 3084 2150 3084 
Q 2853 3084 3261 2657 
Q 3669 2231 3669 1497 
Q 3669 778 3244 343 
Q 2819 -91 2113 -91 
Q 1303 -91 875 529 
Q 447 1150 447 2328 
Q 447 3434 972 4092 
Q 1497 4750 2381 4750 
Q 2619 4750 2861 4703 
Q 3103 4656 3366 4563 
z
" transform="scale(0.015625)"/>
       </defs>
       <use xlink:href="#DejaVuSans-36"/>
      </g>
     </g>
    </g>
    <g id="xtick_8">
     <g id="line2d_8">
      <g>
       <use xlink:href="#m5e93c51c05" x="816.578545" y="534.04" style="stroke: #000000; stroke-width: 0.8"/>
      </g>
     </g>
     <g id="text_8">
      <!-- 7 -->
      <g transform="translate(813.397295 548.638438) scale(0.1 -0.1)">
       <defs>
        <path id="DejaVuSans-37" d="M 525 4666 
L 3525 4666 
L 3525 4397 
L 1831 0 
L 1172 0 
L 2766 4134 
L 525 4134 
L 525 4666 
z
" transform="scale(0.015625)"/>
       </defs>
       <use xlink:href="#DejaVuSans-37"/>
      </g>
     </g>
    </g>
    <g id="text_9">
     <!-- Retention Time (min) -->
     <g transform="translate(397.61 562.316562) scale(0.1 -0.1)">
      <defs>
       <path id="DejaVuSans-52" d="M 2841 2188 
Q 3044 2119 3236 1894 
Q 3428 1669 3622 1275 
L 4263 0 
L 3584 0 
L 2988 1197 
Q 2756 1666 2539 1819 
Q 2322 1972 1947 1972 
L 1259 1972 
L 1259 0 
L 628 0 
L 628 4666 
L 2053 4666 
Q 2853 4666 3247 4331 
Q 3641 3997 3641 3322 
Q 3641 2881 3436 2590 
Q 3231 2300 2841 2188 
z
M 1259 4147 
L 1259 2491 
L 2053 2491 
Q 2509 2491 2742 2702 
Q 2975 2913 2975 3322 
Q 2975 3731 2742 3939 
Q 2509 4147 2053 4147 
L 1259 4147 
z
" transform="scale(0.015625)"/>
       <path id="DejaVuSans-65" d="M 3597 1894 
L 3597 1613 
L 953 1613 
Q 991 1019 1311 708 
Q 1631 397 2203 397 
Q 2534 397 2845 478 
Q 3156 559 3463 722 
L 3463 178 
Q 3153 47 2828 -22 
Q 2503 -91 2169 -91 
Q 1331 -91 842 396 
Q 353 884 353 1716 
Q 353 2575 817 3079 
Q 1281 3584 2069 3584 
Q 2775 3584 3186 3129 
Q 3597 2675 3597 1894 
z
M 3022 2063 
Q 3016 2534 2758 2815 
Q 2500 3097 2075 3097 
Q 1594 3097 1305 2825 
Q 1016 2553 972 2059 
L 3022 2063 
z
" transform="scale(0.015625)"/>
       <path id="DejaVuSans-74" d="M 1172 4494 
L 1172 3500 
L 2356 3500 
L 2356 3053 
L 1172 3053 
L 1172 1153 
Q 1172 725 1289 603 
Q 1406 481 1766 481 
L 2356 481 
L 2356 0 
L 1766 0 
Q 1100 0 847 248 
Q 594 497 594 1153 
L 594 3053 
L 172 3053 
L 172 3500 
L 594 3500 
L 594 4494 
L 1172 4494 
z
" transform="scale(0.015625)"/>
       <path id="DejaVuSans-6e" d="M 3513 2113 
L 3513 0 
L 2938 0 
L 2938 2094 
Q 2938 2591 2744 2837 
Q 2550 3084 2163 3084 
Q 1697 3084 1428 2787 
Q 1159 2491 1159 1978 
L 1159 0 
L 581 0 
L 581 3500 
L 1159 3500 
L 1159 2956 
Q 1366 3272 1645 3428 
Q 1925 3584 2291 3584 
Q 2894 3584 3203 3211 
Q 3513 2838 3513 2113 
z
" transform="scale(0.015625)"/>
       <path id="DejaVuSans-69" d="M 603 3500 
L 1178 3500 
L 1178 0 
L 603 0 
L 603 3500 
z
M 603 4863 
L 1178 4863 
L 1178 4134 
L 603 4134 
L 603 4863 
z
" transform="scale(0.015625)"/>
       <path id="DejaVuSans-6f" d="M 1959 3097 
Q 1497 3097 1228 2736 
Q 959 2375 959 1747 
Q 959 1119 1226 758 
Q 1494 397 1959 397 
Q 2419 397 2687 759 
Q 2956 1122 2956 1747 
Q 2956 2369 2687 2733 
Q 2419 3097 1959 3097 
z
M 1959 3584 
Q 2709 3584 3137 3096 
Q 3566 2609 3566 1747 
Q 3566 888 3137 398 
Q 2709 -91 1959 -91 
Q 1206 -91 779 398 
Q 353 888 353 1747 
Q 353 2609 779 3096 
Q 1206 3584 1959 3584 
z
" transform="scale(0.015625)"/>
       <path id="DejaVuSans-20" transform="scale(0.015625)"/>
       <path id="DejaVuSans-54" d="M -19 4666 
L 3928 4666 
L 3928 4134 
L 2272 4134 
L 2272 0 
L 1638 0 
L 1638 4134 
L -19 4134 
L -19 4666 
z
" transform="scale(0.015625)"/>
       <path id="DejaVuSans-6d" d="M 3328 2828 
Q 3544 3216 3844 3400 
Q 4144 3584 4550 3584 
Q 5097 3584 5394 3201 
Q 5691 2819 5691 2113 
L 5691 0 
L 5113 0 
L 5113 2094 
Q 5113 2597 4934 2840 
Q 4756 3084 4391 3084 
Q 3944 3084 3684 2787 
Q 3425 2491 3425 1978 
L 3425 0 
L 2847 0 
L 2847 2094 
Q 2847 2600 2669 2842 
Q 2491 3084 2119 3084 
Q 1678 3084 1418 2786 
Q 1159 2488 1159 1978 
L 1159 0 
L 581 0 
L 581 3500 
L 1159 3500 
L 1159 2956 
Q 1356 3278 1631 3431 
Q 1906 3584 2284 3584 
Q 2666 3584 2933 3390 
Q 3200 3197 3328 2828 
z
" transform="scale(0.015625)"/>
       <path id="DejaVuSans-28" d="M 1984 4856 
Q 1566 4138 1362 3434 
Q 1159 2731 1159 2009 
Q 1159 1288 1364 580 
Q 1569 -128 1984 -844 
L 1484 -844 
Q 1016 -109 783 600 
Q 550 1309 550 2009 
Q 550 2706 781 3412 
Q 1013 4119 1484 4856 
L 1984 4856 
z
" transform="scale(0.015625)"/>
       <path id="DejaVuSans-29" d="M 513 4856 
L 1013 4856 
Q 1481 4119 1714 3412 
Q 1947 2706 1947 2009 
Q 1947 1309 1714 600 
Q 1481 -109 1013 -844 
L 513 -844 
Q 928 -128 1133 580 
Q 1338 1288 1338 2009 
Q 1338 2731 1133 3434 
Q 928 4138 513 4856 
z
" transform="scale(0.015625)"/>
      </defs>
      <use xlink:href="#DejaVuSans-52"/>
      <use xlink:href="#DejaVuSans-65" x="64.982422"/>
      <use xlink:href="#DejaVuSans-74" x="126.505859"/>
      <use xlink:href="#DejaVuSans-65" x="165.714844"/>
      <use xlink:href="#DejaVuSans-6e" x="227.238281"/>
      <use xlink:href="#DejaVuSans-74" x="290.617188"/>
      <use xlink:href="#DejaVuSans-69" x="329.826172"/>
      <use xlink:href="#DejaVuSans-6f" x="357.609375"/>
      <use xlink:href="#DejaVuSans-6e" x="418.791016"/>
      <use xlink:href="#DejaVuSans-20" x="482.169922"/>
      <use xlink:href="#DejaVuSans-54" x="513.957031"/>
      <use xlink:href="#DejaVuSans-69" x="571.916016"/>
      <use xlink:href="#DejaVuSans-6d" x="599.699219"/>
      <use xlink:href="#DejaVuSans-65" x="697.111328"/>
      <use xlink:href="#DejaVuSans-20" x="758.634766"/>
      <use xlink:href="#DejaVuSans-28" x="790.421875"/>
      <use xlink:href="#DejaVuSans-6d" x="829.435547"/>
      <use xlink:href="#DejaVuSans-69" x="926.847656"/>
      <use xlink:href="#DejaVuSans-6e" x="954.630859"/>
      <use xlink:href="#DejaVuSans-29" x="1018.009766"/>
     </g>
    </g>
   </g>
   <g id="matplotlib.axis_2">
    <g id="ytick_1">
     <g id="line2d_9">
      <defs>
       <path id="m58f49391aa" d="M 0 0 
L -3.5 0 
" style="stroke: #000000; stroke-width: 0.8"/>
      </defs>
      <g>
       <use xlink:href="#m58f49391aa" x="47.72" y="509.859918" style="stroke: #000000; stroke-width: 0.8"/>
      </g>
     </g>
     <g id="text_10">
      <!-- 0.0 -->
      <g style="fill: #0000ff" transform="translate(24.816875 513.659137) scale(0.1 -0.1)">
       <defs>
        <path id="DejaVuSans-2e" d="M 684 794 
L 1344 794 
L 1344 0 
L 684 0 
L 684 794 
z
" transform="scale(0.015625)"/>
       </defs>
       <use xlink:href="#DejaVuSans-30"/>
       <use xlink:href="#DejaVuSans-2e" x="63.623047"/>
       <use xlink:href="#DejaVuSans-30" x="95.410156"/>
      </g>
     </g>
    </g>
    <g id="ytick_2">
     <g id="line2d_10">
      <g>
       <use xlink:href="#m58f49391aa" x="47.72" y="417.87448" style="stroke: #000000; stroke-width: 0.8"/>
      </g>
     </g>
     <g id="text_11">
      <!-- 0.5 -->
      <g style="fill: #0000ff" transform="translate(24.816875 421.673698) scale(0.1 -0.1)">
       <use xlink:href="#DejaVuSans-30"/>
       <use xlink:href="#DejaVuSans-2e" x="63.623047"/>
       <use xlink:href="#DejaVuSans-35" x="95.410156"/>
      </g>
     </g>
    </g>
    <g id="ytick_3">
     <g id="line2d_11">
      <g>
       <use xlink:href="#m58f49391aa" x="47.72" y="325.889042" style="stroke: #000000; stroke-width: 0.8"/>
      </g>
     </g>
     <g id="text_12">
      <!-- 1.0 -->
      <g style="fill: #0000ff" transform="translate(24.816875 329.68826) scale(0.1 -0.1)">
       <use xlink:href="#DejaVuSans-31"/>
       <use xlink:href="#DejaVuSans-2e" x="63.623047"/>
       <use xlink:href="#DejaVuSans-30" x="95.410156"/>
      </g>
     </g>
    </g>
    <g id="ytick_4">
     <g id="line2d_12">
      <g>
       <use xlink:href="#m58f49391aa" x="47.72" y="233.903603" style="stroke: #000000; stroke-width: 0.8"/>
      </g>
     </g>
     <g id="text_13">
      <!-- 1.5 -->
      <g style="fill: #0000ff" transform="translate(24.816875 237.702822) scale(0.1 -0.1)">
       <use xlink:href="#DejaVuSans-31"/>
       <use xlink:href="#DejaVuSans-2e" x="63.623047"/>
       <use xlink:href="#DejaVuSans-35" x="95.410156"/>
      </g>
     </g>
    </g>
    <g id="ytick_5">
     <g id="line2d_13">
      <g>
       <use xlink:href="#m58f49391aa" x="47.72" y="141.918165" style="stroke: #000000; stroke-width: 0.8"/>
      </g>
     </g>
     <g id="text_14">
      <!-- 2.0 -->
      <g style="fill: #0000ff" transform="translate(24.816875 145.717384) scale(0.1 -0.1)">
       <use xlink:href="#DejaVuSans-32"/>
       <use xlink:href="#DejaVuSans-2e" x="63.623047"/>
       <use xlink:href="#DejaVuSans-30" x="95.410156"/>
      </g>
     </g>
    </g>
    <g id="ytick_6">
     <g id="line2d_14">
      <g>
       <use xlink:href="#m58f49391aa" x="47.72" y="49.932727" style="stroke: #000000; stroke-width: 0.8"/>
      </g>
     </g>
     <g id="text_15">
      <!-- 2.5 -->
      <g style="fill: #0000ff" transform="translate(24.816875 53.731946) scale(0.1 -0.1)">
       <use xlink:href="#DejaVuSans-32"/>
       <use xlink:href="#DejaVuSans-2e" x="63.623047"/>
       <use xlink:href="#DejaVuSans-35" x="95.410156"/>
      </g>
     </g>
    </g>
    <g id="text_16">
     <!-- Normalized Intensity -->
     <g style="fill: #0000ff" transform="translate(18.737187 332.167031) rotate(-90) scale(0.1 -0.1)">
      <defs>
       <path id="DejaVuSans-4e" d="M 628 4666 
L 1478 4666 
L 3547 763 
L 3547 4666 
L 4159 4666 
L 4159 0 
L 3309 0 
L 1241 3903 
L 1241 0 
L 628 0 
L 628 4666 
z
" transform="scale(0.015625)"/>
       <path id="DejaVuSans-72" d="M 2631 2963 
Q 2534 3019 2420 3045 
Q 2306 3072 2169 3072 
Q 1681 3072 1420 2755 
Q 1159 2438 1159 1844 
L 1159 0 
L 581 0 
L 581 3500 
L 1159 3500 
L 1159 2956 
Q 1341 3275 1631 3429 
Q 1922 3584 2338 3584 
Q 2397 3584 2469 3576 
Q 2541 3569 2628 3553 
L 2631 2963 
z
" transform="scale(0.015625)"/>
       <path id="DejaVuSans-61" d="M 2194 1759 
Q 1497 1759 1228 1600 
Q 959 1441 959 1056 
Q 959 750 1161 570 
Q 1363 391 1709 391 
Q 2188 391 2477 730 
Q 2766 1069 2766 1631 
L 2766 1759 
L 2194 1759 
z
M 3341 1997 
L 3341 0 
L 2766 0 
L 2766 531 
Q 2569 213 2275 61 
Q 1981 -91 1556 -91 
Q 1019 -91 701 211 
Q 384 513 384 1019 
Q 384 1609 779 1909 
Q 1175 2209 1959 2209 
L 2766 2209 
L 2766 2266 
Q 2766 2663 2505 2880 
Q 2244 3097 1772 3097 
Q 1472 3097 1187 3025 
Q 903 2953 641 2809 
L 641 3341 
Q 956 3463 1253 3523 
Q 1550 3584 1831 3584 
Q 2591 3584 2966 3190 
Q 3341 2797 3341 1997 
z
" transform="scale(0.015625)"/>
       <path id="DejaVuSans-6c" d="M 603 4863 
L 1178 4863 
L 1178 0 
L 603 0 
L 603 4863 
z
" transform="scale(0.015625)"/>
       <path id="DejaVuSans-7a" d="M 353 3500 
L 3084 3500 
L 3084 2975 
L 922 459 
L 3084 459 
L 3084 0 
L 275 0 
L 275 525 
L 2438 3041 
L 353 3041 
L 353 3500 
z
" transform="scale(0.015625)"/>
       <path id="DejaVuSans-64" d="M 2906 2969 
L 2906 4863 
L 3481 4863 
L 3481 0 
L 2906 0 
L 2906 525 
Q 2725 213 2448 61 
Q 2172 -91 1784 -91 
Q 1150 -91 751 415 
Q 353 922 353 1747 
Q 353 2572 751 3078 
Q 1150 3584 1784 3584 
Q 2172 3584 2448 3432 
Q 2725 3281 2906 2969 
z
M 947 1747 
Q 947 1113 1208 752 
Q 1469 391 1925 391 
Q 2381 391 2643 752 
Q 2906 1113 2906 1747 
Q 2906 2381 2643 2742 
Q 2381 3103 1925 3103 
Q 1469 3103 1208 2742 
Q 947 2381 947 1747 
z
" transform="scale(0.015625)"/>
       <path id="DejaVuSans-49" d="M 628 4666 
L 1259 4666 
L 1259 0 
L 628 0 
L 628 4666 
z
" transform="scale(0.015625)"/>
       <path id="DejaVuSans-73" d="M 2834 3397 
L 2834 2853 
Q 2591 2978 2328 3040 
Q 2066 3103 1784 3103 
Q 1356 3103 1142 2972 
Q 928 2841 928 2578 
Q 928 2378 1081 2264 
Q 1234 2150 1697 2047 
L 1894 2003 
Q 2506 1872 2764 1633 
Q 3022 1394 3022 966 
Q 3022 478 2636 193 
Q 2250 -91 1575 -91 
Q 1294 -91 989 -36 
Q 684 19 347 128 
L 347 722 
Q 666 556 975 473 
Q 1284 391 1588 391 
Q 1994 391 2212 530 
Q 2431 669 2431 922 
Q 2431 1156 2273 1281 
Q 2116 1406 1581 1522 
L 1381 1569 
Q 847 1681 609 1914 
Q 372 2147 372 2553 
Q 372 3047 722 3315 
Q 1072 3584 1716 3584 
Q 2034 3584 2315 3537 
Q 2597 3491 2834 3397 
z
" transform="scale(0.015625)"/>
       <path id="DejaVuSans-79" d="M 2059 -325 
Q 1816 -950 1584 -1140 
Q 1353 -1331 966 -1331 
L 506 -1331 
L 506 -850 
L 844 -850 
Q 1081 -850 1212 -737 
Q 1344 -625 1503 -206 
L 1606 56 
L 191 3500 
L 800 3500 
L 1894 763 
L 2988 3500 
L 3597 3500 
L 2059 -325 
z
" transform="scale(0.015625)"/>
      </defs>
      <use xlink:href="#DejaVuSans-4e"/>
      <use xlink:href="#DejaVuSans-6f" x="74.804688"/>
      <use xlink:href="#DejaVuSans-72" x="135.986328"/>
      <use xlink:href="#DejaVuSans-6d" x="175.349609"/>
      <use xlink:href="#DejaVuSans-61" x="272.761719"/>
      <use xlink:href="#DejaVuSans-6c" x="334.041016"/>
      <use xlink:href="#DejaVuSans-69" x="361.824219"/>
      <use xlink:href="#DejaVuSans-7a" x="389.607422"/>
      <use xlink:href="#DejaVuSans-65" x="442.097656"/>
      <use xlink:href="#DejaVuSans-64" x="503.621094"/>
      <use xlink:href="#DejaVuSans-20" x="567.097656"/>
      <use xlink:href="#DejaVuSans-49" x="598.884766"/>
      <use xlink:href="#DejaVuSans-6e" x="628.376953"/>
      <use xlink:href="#DejaVuSans-74" x="691.755859"/>
      <use xlink:href="#DejaVuSans-65" x="730.964844"/>
      <use xlink:href="#DejaVuSans-6e" x="792.488281"/>
      <use xlink:href="#DejaVuSans-73" x="855.867188"/>
      <use xlink:href="#DejaVuSans-69" x="907.966797"/>
      <use xlink:href="#DejaVuSans-74" x="935.75"/>
      <use xlink:href="#DejaVuSans-79" x="974.958984"/>
     </g>
    </g>
   </g>
   <g id="line2d_15">
    <path d="M 84.332727 509.859918 
L 93.060433 509.753675 
L 107.897534 509.665866 
L 116.62524 509.707335 
L 131.46234 509.604788 
L 133.207882 509.41936 
L 135.826194 508.973826 
L 137.571735 509.082449 
L 139.317276 509.286297 
L 140.190047 509.281731 
L 141.062817 509.140009 
L 143.681129 508.441483 
L 147.172212 508.200684 
L 148.917753 507.906752 
L 149.790523 507.937345 
L 151.536065 508.404574 
L 153.281606 508.874797 
L 156.772688 509.341689 
L 158.518229 510.070227 
L 160.263771 510.817925 
L 161.136541 510.987273 
L 162.009312 510.95452 
L 163.754853 510.411399 
L 165.500394 509.778371 
L 167.245936 509.504225 
L 169.864247 509.529565 
L 174.228101 509.562317 
L 190.810742 509.508331 
L 199.538448 509.609517 
L 219.612172 509.611935 
L 248.413603 509.434345 
L 252.777456 509.467126 
L 258.01408 509.425214 
L 262.377933 509.26849 
L 265.869015 508.906474 
L 268.487327 509.044813 
L 273.723951 509.361488 
L 280.706116 509.396757 
L 286.81551 509.470193 
L 292.052133 509.539361 
L 300.77984 509.427158 
L 312.125858 509.227067 
L 318.235252 509.37613 
L 320.853564 509.290502 
L 321.726334 509.163891 
L 322.599105 508.766892 
L 323.471876 507.514609 
L 324.344646 504.320422 
L 325.217417 498.104364 
L 327.835729 471.656433 
L 328.708499 469.41586 
L 329.58127 472.570257 
L 330.454041 479.264524 
L 332.199582 493.700024 
L 333.072352 498.691669 
L 333.945123 501.984 
L 334.817894 504.031309 
L 335.690664 505.289485 
L 336.563435 506.06116 
L 337.436205 506.533812 
L 341.800059 508.078251 
L 343.5456 508.53962 
L 346.163912 508.86492 
L 349.654994 508.98987 
L 353.146076 508.938044 
L 354.891618 508.691386 
L 356.637159 508.038494 
L 357.50993 507.233898 
L 358.3827 504.050839 
L 359.255471 494.52759 
L 360.128241 476.169883 
L 361.001012 452.889348 
L 361.873783 433.837145 
L 362.746553 425.828052 
L 363.619324 428.333844 
L 364.492094 436.205985 
L 368.855948 480.708849 
L 369.728718 486.467845 
L 370.601489 489.947154 
L 371.474259 491.080408 
L 372.34703 490.172841 
L 373.219801 488.353789 
L 374.092571 487.243168 
L 374.965342 487.307973 
L 375.838112 485.828656 
L 376.710883 477.573662 
L 377.583654 460.275707 
L 378.456424 439.518475 
L 379.329195 425.514937 
L 380.201966 424.677866 
L 381.947507 445.180089 
L 382.820277 443.264697 
L 383.693048 423.741208 
L 384.565819 396.040725 
L 385.438589 377.497331 
L 386.31136 379.048067 
L 387.18413 398.680435 
L 388.056901 425.854263 
L 388.929672 448.633261 
L 389.802442 458.156162 
L 390.675213 451.710976 
L 392.420754 418.089481 
L 393.293525 411.553583 
L 394.166295 417.924747 
L 395.039066 433.406138 
L 396.784607 467.704353 
L 397.657378 479.366928 
L 398.530148 486.805072 
L 399.402919 491.247573 
L 400.27569 493.992254 
L 401.14846 495.946832 
L 402.021231 497.384338 
L 402.894002 496.505453 
L 403.766772 486.645895 
L 404.639543 458.258119 
L 406.385084 358.258278 
L 407.257855 325.889042 
L 408.130625 326.04383 
L 409.003396 353.714536 
L 410.748937 430.630881 
L 411.621708 457.895835 
L 412.494478 474.631668 
L 413.367249 483.82785 
L 414.24002 488.946203 
L 415.11279 492.365209 
L 416.858331 497.718349 
L 417.731102 499.906627 
L 418.603873 501.693648 
L 419.476643 503.076329 
L 420.349414 504.101962 
L 421.222184 504.838626 
L 422.094955 505.355885 
L 422.967726 505.70829 
L 423.840496 505.92057 
L 425.586037 506.002855 
L 427.331579 506.103125 
L 429.07712 506.40122 
L 429.949891 506.428356 
L 433.440973 505.977674 
L 435.186514 505.857509 
L 437.804826 505.930761 
L 439.550367 505.963069 
L 440.423138 506.219113 
L 443.04145 507.430147 
L 444.786991 507.883123 
L 446.532532 507.971231 
L 447.405303 507.740931 
L 448.278073 506.684796 
L 449.150844 502.959777 
L 450.023615 493.638668 
L 450.896385 477.368246 
L 452.641927 439.648434 
L 453.514697 429.186769 
L 454.387468 427.189708 
L 455.260238 432.79255 
L 456.133009 444.03451 
L 457.87855 471.603789 
L 458.751321 482.64843 
L 459.624091 490.421802 
L 460.496862 495.321627 
L 461.369633 498.217067 
L 462.242403 499.944556 
L 463.115174 501.071511 
L 463.987945 501.877253 
L 464.860715 502.475823 
L 466.606256 503.289223 
L 467.479027 503.476173 
L 468.351798 503.451745 
L 470.097339 503.205816 
L 470.970109 503.28798 
L 472.715651 503.850776 
L 474.461192 504.771043 
L 476.206733 505.882127 
L 477.079504 506.112032 
L 477.952274 505.923694 
L 479.697816 504.956126 
L 480.570586 504.826226 
L 481.443357 505.143089 
L 484.061669 507.060509 
L 484.934439 507.456672 
L 485.80721 507.617617 
L 486.67998 507.502489 
L 489.298292 506.379266 
L 490.171063 506.396853 
L 491.043834 506.703445 
L 492.789375 507.563563 
L 493.662145 507.840657 
L 494.534916 507.933611 
L 498.025998 507.661085 
L 504.135393 508.323422 
L 505.008163 508.225404 
L 505.880934 507.887819 
L 507.626475 506.828505 
L 508.499246 506.508354 
L 509.372016 506.51618 
L 510.244787 506.816717 
L 512.863099 508.165965 
L 514.60864 508.645253 
L 517.226952 508.886267 
L 523.336346 509.234294 
L 525.081888 509.150363 
L 525.954658 508.864083 
L 526.827429 508.251481 
L 528.57297 506.533627 
L 529.445741 506.101001 
L 530.318511 506.225553 
L 531.191282 506.775443 
L 532.936823 508.107072 
L 533.809594 508.542495 
L 534.682364 508.777822 
L 536.427906 508.855139 
L 539.046217 508.758196 
L 540.791759 508.884574 
L 543.41007 509.133757 
L 546.901153 509.033802 
L 550.392235 509.055945 
L 554.756088 509.274456 
L 556.50163 509.16326 
L 558.247171 508.728274 
L 559.992712 508.143485 
L 560.865483 507.986546 
L 561.738253 507.989352 
L 563.483795 508.365924 
L 565.229336 508.838984 
L 566.974877 509.099914 
L 568.720418 509.060361 
L 570.465959 508.685558 
L 572.211501 508.380695 
L 573.957042 508.561958 
L 576.575354 509.032388 
L 579.193666 509.25363 
L 584.430289 509.413222 
L 598.394619 509.500938 
L 604.504013 509.532091 
L 611.486178 509.558978 
L 618.468343 509.56478 
L 626.323279 509.586312 
L 632.432673 509.467313 
L 636.796526 509.592196 
L 655.124709 509.552231 
L 661.234103 509.580171 
L 686.544451 509.623818 
L 708.363717 509.648258 
L 816.587273 509.663693 
L 816.587273 509.663693 
" clip-path="url(#p5fdca28939)" style="fill: none; stroke: #0000ff; stroke-width: 1.5; stroke-linecap: square"/>
   </g>
   <g id="line2d_16">
    <path d="M 88.103795 233.878634 
L 90.668518 233.90137 
L 386.842528 233.84754 
L 388.482115 233.776965 
L 388.482115 233.830484 
L 393.467555 233.876218 
L 398.562266 233.782219 
L 398.562266 233.746289 
L 399.295394 233.619562 
L 399.295394 233.512455 
L 399.789033 233.489834 
L 399.789033 233.409412 
L 400.278483 233.532257 
L 400.278483 233.457058 
L 400.770027 233.525261 
L 400.770027 233.446391 
L 401.259826 233.56267 
L 401.259826 233.518802 
L 401.750148 233.5885 
L 401.750148 233.549923 
L 402.485719 233.670793 
L 402.485719 233.632028 
L 403.471427 233.727367 
L 403.471427 233.720025 
L 405.19253 233.640662 
L 405.438652 233.565527 
L 405.438652 233.139309 
L 405.685995 232.789367 
L 405.685995 231.665672 
L 405.932291 230.846219 
L 405.932291 228.035818 
L 406.177539 226.862489 
L 406.177539 220.892993 
L 406.421915 220.097561 
L 406.421915 213.446999 
L 406.659658 212.449461 
L 406.659658 198.62947 
L 406.895306 200.30991 
L 406.895306 184.464056 
L 407.134619 185.977037 
L 407.134619 165.767003 
L 407.368696 174.018474 
L 407.368696 148.913261 
L 407.603472 152.989634 
L 407.603472 116.643565 
L 407.8372 127.879135 
L 407.8372 96.96132 
L 408.070753 112.619224 
L 408.070753 80.400104 
L 408.304307 102.912707 
L 408.304307 69.114563 
L 408.537685 91.763215 
L 408.537685 61.699501 
L 408.771064 91.926302 
L 408.771064 61.207325 
L 409.006538 87.40428 
L 409.006538 50.452616 
L 409.239917 79.382298 
L 409.239917 49.932727 
L 409.473296 86.052447 
L 409.473296 61.079776 
L 409.706674 96.031239 
L 409.706674 68.541303 
L 409.940228 103.567846 
L 409.940228 81.776785 
L 410.173781 116.134674 
L 410.173781 97.832214 
L 410.407509 132.55379 
L 410.407509 107.549481 
L 410.645252 136.066456 
L 410.645252 117.421314 
L 410.87898 145.201389 
L 410.87898 120.190148 
L 411.112708 148.130709 
L 411.112708 130.62862 
L 411.34661 153.710722 
L 411.34661 134.654378 
L 411.580513 160.48032 
L 411.580513 145.425662 
L 411.814765 166.083229 
L 411.814765 152.412223 
L 412.049191 171.298425 
L 412.049191 157.985446 
L 412.286061 174.578259 
L 412.286061 163.738239 
L 412.520661 177.4437 
L 412.520661 169.369774 
L 412.755437 184.528258 
L 412.755437 177.113471 
L 412.990387 189.103579 
L 412.990387 182.108515 
L 413.225162 193.664495 
L 413.225162 181.936272 
L 413.459937 191.493594 
L 413.459937 184.345186 
L 413.695236 193.095063 
L 413.695236 184.482892 
L 413.93036 198.843681 
L 413.93036 192.013113 
L 414.169325 199.062439 
L 414.169325 190.19706 
L 414.404973 200.156544 
L 414.404973 193.222081 
L 414.640796 199.048838 
L 414.640796 192.49182 
L 414.876444 204.075001 
L 414.876444 199.529217 
L 415.112266 206.335458 
L 415.112266 200.018918 
L 415.349136 207.87176 
L 415.349136 200.942364 
L 415.585657 206.385651 
L 415.585657 199.898704 
L 415.821829 208.927681 
L 415.821829 203.933837 
L 416.060794 209.458195 
L 416.060794 204.519256 
L 416.297664 211.899537 
L 416.297664 206.219467 
L 416.534359 211.54057 
L 416.534359 207.246625 
L 416.771578 212.693434 
L 416.771578 207.041855 
L 417.010019 212.558207 
L 417.010019 209.473201 
L 417.247762 215.336721 
L 417.247762 209.62519 
L 417.486552 215.972538 
L 417.486552 213.28928 
L 417.728309 217.079182 
L 417.728309 213.972234 
L 417.966401 219.929309 
L 417.966401 214.9528 
L 418.205889 218.181509 
L 418.205889 215.210325 
L 418.444156 218.951174 
L 418.444156 216.163171 
L 418.682422 220.704987 
L 418.682422 217.546892 
L 418.921561 220.680513 
L 418.921561 218.572627 
L 419.160177 221.913562 
L 419.160177 219.390957 
L 419.400014 222.556159 
L 419.400014 219.407403 
L 419.639328 221.933774 
L 419.639328 219.424621 
L 419.879165 222.571655 
L 419.879165 220.667805 
L 420.120399 223.691314 
L 420.120399 220.853284 
L 420.361283 223.562124 
L 420.361283 221.929154 
L 420.601295 224.423835 
L 420.601295 222.886507 
L 420.842006 225.845887 
L 420.842006 223.67995 
L 421.083763 225.540512 
L 421.083763 222.748338 
L 421.329361 224.672858 
L 421.329361 222.273395 
L 421.571642 224.38239 
L 421.571642 222.383621 
L 421.819683 225.094373 
L 421.819683 223.136945 
L 422.060219 225.832145 
L 422.060219 224.720974 
L 422.301278 226.878692 
L 422.301278 225.632357 
L 422.543908 227.803411 
L 422.543908 226.43162 
L 422.791251 227.965404 
L 422.791251 226.596403 
L 423.035453 228.210071 
L 423.035453 227.044187 
L 423.282447 228.440293 
L 423.282447 227.353311 
L 423.529615 228.860754 
L 423.529615 227.853506 
L 423.775737 229.165297 
L 423.775737 227.951842 
L 424.022905 229.252569 
L 424.022905 228.444727 
L 424.270074 229.608078 
L 424.270074 228.796729 
L 424.517417 230.120352 
L 424.517417 229.309558 
L 424.763713 230.217537 
L 424.763713 229.34736 
L 425.013325 230.111625 
L 425.013325 228.969101 
L 425.260319 229.602508 
L 425.260319 228.49485 
L 425.507139 229.376601 
L 425.507139 228.157151 
L 425.754133 229.179789 
L 425.754133 228.126143 
L 426.000778 229.322281 
L 426.000778 228.244236 
L 426.24847 229.557203 
L 426.24847 228.713438 
L 426.495814 229.924412 
L 426.495814 229.214608 
L 426.743331 230.44452 
L 426.743331 229.828798 
L 426.991547 230.971215 
L 426.991547 230.459658 
L 427.239938 231.253184 
L 427.239938 230.697326 
L 427.486408 231.540019 
L 427.486408 230.96539 
L 427.737068 231.557221 
L 427.737068 230.742377 
L 427.984062 231.173944 
L 427.984062 230.319483 
L 428.230707 230.767284 
L 428.230707 230.018531 
L 428.477527 230.767944 
L 428.477527 230.123127 
L 428.729583 230.97903 
L 428.729583 230.553561 
L 429.225142 231.876158 
L 429.225142 231.454415 
L 429.473183 232.065955 
L 429.473183 231.612258 
L 429.721748 232.073603 
L 429.721748 231.601735 
L 429.969441 231.997432 
L 429.969441 231.376314 
L 430.216958 231.81537 
L 430.216958 231.203699 
L 430.464651 231.628408 
L 430.464651 231.041056 
L 430.712518 231.628549 
L 430.712518 231.050343 
L 430.960908 231.688287 
L 430.960908 231.321142 
L 431.209997 232.008089 
L 431.209997 231.674879 
L 431.458736 232.299282 
L 431.458736 231.995931 
L 431.707127 232.458296 
L 431.707127 231.94323 
L 431.956041 232.296119 
L 431.956041 231.811463 
L 432.207748 232.115912 
L 432.207748 231.678493 
L 432.456139 232.168313 
L 432.456139 231.825405 
L 432.704704 232.314129 
L 432.704704 232.024863 
L 432.953967 232.500535 
L 432.953967 232.25499 
L 433.215449 232.607261 
L 433.215449 232.330284 
L 433.464014 232.671899 
L 433.464014 232.450107 
L 433.713452 232.706487 
L 433.713452 232.486892 
L 433.962192 232.793681 
L 433.962192 232.497093 
L 434.210582 232.69757 
L 434.210582 232.318498 
L 434.458624 232.544009 
L 434.458624 232.196446 
L 434.707189 232.51239 
L 434.707189 232.228768 
L 434.956103 232.644428 
L 434.956103 232.461815 
L 435.205715 232.835544 
L 435.205715 232.651872 
L 435.454629 232.988656 
L 435.454629 232.755081 
L 435.710875 232.97636 
L 435.710875 232.688739 
L 435.959614 232.908189 
L 435.959614 232.681974 
L 436.457443 233.0664 
L 436.457443 232.831347 
L 436.705833 233.066821 
L 436.705833 232.834777 
L 436.9537 232.965601 
L 436.9537 232.723385 
L 437.201567 232.942751 
L 437.201567 232.641371 
L 437.449434 232.861675 
L 437.449434 232.679385 
L 437.697999 232.960169 
L 437.697999 232.746436 
L 437.947262 233.055433 
L 437.947262 232.88213 
L 438.445614 233.210071 
L 438.445614 233.014111 
L 438.694179 233.163137 
L 438.694179 232.952293 
L 438.942221 233.053664 
L 438.942221 232.863045 
L 439.44354 233.172645 
L 439.44354 232.949274 
L 439.692629 233.154834 
L 439.692629 233.017094 
L 439.941019 233.169205 
L 439.941019 233.006231 
L 440.189061 233.250818 
L 440.189061 233.027951 
L 440.4378 233.168077 
L 440.4378 232.95913 
L 440.685842 233.119117 
L 440.685842 232.955146 
L 441.181925 233.255117 
L 441.181925 233.165511 
L 441.679055 233.405921 
L 441.679055 233.299173 
L 441.927096 233.424171 
L 441.927096 233.244127 
L 442.175138 233.321179 
L 442.175138 233.145541 
L 442.423354 233.258059 
L 442.423354 233.066872 
L 442.674712 233.260934 
L 442.674712 233.117431 
L 443.177427 233.369934 
L 443.177427 233.189792 
L 443.426167 233.329881 
L 443.426167 233.178848 
L 444.174655 233.407497 
L 444.174655 233.282371 
L 444.425315 233.387366 
L 444.425315 233.236039 
L 444.924016 233.377387 
L 444.924016 233.281644 
L 445.425335 233.495524 
L 445.425335 233.42281 
L 445.675471 233.536849 
L 445.675471 233.389675 
L 445.925084 233.474031 
L 445.925084 233.345949 
L 446.68003 233.528353 
L 446.68003 233.39985 
L 447.179779 233.495536 
L 447.179779 233.450573 
L 447.431311 233.570199 
L 447.431311 233.477505 
L 447.681971 233.563744 
L 447.681971 233.455852 
L 448.434299 233.558276 
L 448.434299 233.468252 
L 448.685134 233.540734 
L 448.685134 233.442742 
L 448.935444 233.497258 
L 448.935444 233.301865 
L 449.188722 233.3907 
L 449.188722 233.343583 
L 449.688645 233.359248 
L 449.688645 233.436378 
L 450.193107 233.460195 
L 450.693379 233.581591 
L 450.693379 233.516809 
L 451.442216 233.614893 
L 451.442216 233.549207 
L 451.936204 233.619937 
L 451.936204 233.554808 
L 452.426876 233.600764 
L 452.426876 233.541727 
L 453.154243 233.677053 
L 453.154243 233.559584 
L 453.635314 233.606811 
L 453.635314 233.562405 
L 453.872882 233.68987 
L 453.872882 233.615899 
L 454.346273 233.721583 
L 454.346273 233.640709 
L 455.055661 233.573317 
L 455.055661 233.618189 
L 455.291833 233.721415 
L 455.291833 233.673968 
L 456.71794 233.672771 
L 456.71794 233.484193 
L 457.201106 233.550286 
L 457.442863 233.765276 
L 457.442863 233.696254 
L 457.6827 233.760558 
L 457.6827 233.679648 
L 462.060692 233.773564 
L 462.060692 233.716858 
L 462.795391 233.724233 
L 462.795391 233.680761 
L 463.776385 233.694824 
L 463.776385 233.636279 
L 463.776385 233.691304 
L 468.221929 233.753444 
L 468.221929 233.712836 
L 469.702847 233.763246 
L 476.123296 233.765755 
L 476.123296 233.719267 
L 477.361758 233.801403 
L 477.361758 233.774175 
L 479.598145 233.790807 
L 479.598145 233.760641 
L 481.574622 233.824808 
L 481.574622 233.800636 
L 482.564692 233.798966 
L 482.564692 233.770408 
L 483.801234 233.79617 
L 483.801234 233.777168 
L 484.793574 233.815898 
L 484.793574 233.784549 
L 485.784867 233.79473 
L 485.784867 233.759446 
L 486.530562 233.795084 
L 486.530562 233.76072 
L 487.778799 233.799293 
L 487.778799 233.776387 
L 489.523642 233.815585 
L 489.523642 233.78975 
L 490.766118 233.830382 
L 490.766118 233.800759 
L 492.746784 233.816046 
L 492.746784 233.795778 
L 493.740869 233.788333 
L 493.740869 233.768666 
L 494.741239 233.801229 
L 494.741239 233.768525 
L 496.251656 233.789904 
L 496.251656 233.766235 
L 497.503558 233.803419 
L 497.503558 233.779806 
L 499.003327 233.820389 
L 499.003327 233.796173 
L 499.999158 233.792311 
L 499.999158 233.776229 
L 501.002146 233.777398 
L 501.002146 233.762806 
L 502.251256 233.730838 
L 502.251256 233.701797 
L 503.497223 233.704766 
L 503.497223 233.712324 
L 581.69939 233.854393 
L 581.69939 233.842642 
L 583.969816 233.854424 
L 583.969816 233.845547 
L 640.632004 233.875847 
L 640.632004 233.886009 
L 689.355122 233.88101 
L 691.360399 233.882799 
L 718.830505 233.883064 
L 718.830505 233.882072 
L 816.404864 233.900937 
L 816.404864 233.900873 
" clip-path="url(#p5fdca28939)" style="fill: none; stroke: #008000; stroke-width: 1.5; stroke-linecap: square"/>
   </g>
   <g id="patch_3">
    <path d="M 47.72 534.04 
L 47.72 26.88 
" style="fill: none; stroke: #000000; stroke-width: 0.8; stroke-linejoin: miter; stroke-linecap: square"/>
   </g>
   <g id="patch_4">
    <path d="M 853.2 534.04 
L 853.2 26.88 
" style="fill: none; stroke: #000000; stroke-width: 0.8; stroke-linejoin: miter; stroke-linecap: square"/>
   </g>
   <g id="patch_5">
    <path d="M 47.72 534.04 
L 853.2 534.04 
" style="fill: none; stroke: #000000; stroke-width: 0.8; stroke-linejoin: miter; stroke-linecap: square"/>
   </g>
   <g id="patch_6">
    <path d="M 47.72 26.88 
L 853.2 26.88 
" style="fill: none; stroke: #000000; stroke-width: 0.8; stroke-linejoin: miter; stroke-linecap: square"/>
   </g>
   <g id="patch_7">
    <path d="M 457.350814 340.744253 
Q 440.513 345.990941 423.675187 351.23763 
L 424.865161 355.056525 
Q 418.244381 353.977301 411.623601 352.898076 
Q 416.45942 348.248958 421.29524 343.599839 
L 422.485213 347.418735 
Q 439.323027 342.172046 456.16084 336.925357 
L 457.350814 340.744253 
z
" style="stroke: #000000; stroke-linecap: round"/>
   </g>
   <g id="text_17">
    <!-- Peak: RT=3.11, Area=3.76e+04 -->
    <g style="fill: #ff0000" transform="translate(461.369633 324.119636) scale(0.1 -0.1)">
     <defs>
      <path id="DejaVuSans-50" d="M 1259 4147 
L 1259 2394 
L 2053 2394 
Q 2494 2394 2734 2622 
Q 2975 2850 2975 3272 
Q 2975 3691 2734 3919 
Q 2494 4147 2053 4147 
L 1259 4147 
z
M 628 4666 
L 2053 4666 
Q 2838 4666 3239 4311 
Q 3641 3956 3641 3272 
Q 3641 2581 3239 2228 
Q 2838 1875 2053 1875 
L 1259 1875 
L 1259 0 
L 628 0 
L 628 4666 
z
" transform="scale(0.015625)"/>
      <path id="DejaVuSans-6b" d="M 581 4863 
L 1159 4863 
L 1159 1991 
L 2875 3500 
L 3609 3500 
L 1753 1863 
L 3688 0 
L 2938 0 
L 1159 1709 
L 1159 0 
L 581 0 
L 581 4863 
z
" transform="scale(0.015625)"/>
      <path id="DejaVuSans-3a" d="M 750 794 
L 1409 794 
L 1409 0 
L 750 0 
L 750 794 
z
M 750 3309 
L 1409 3309 
L 1409 2516 
L 750 2516 
L 750 3309 
z
" transform="scale(0.015625)"/>
      <path id="DejaVuSans-3d" d="M 678 2906 
L 4684 2906 
L 4684 2381 
L 678 2381 
L 678 2906 
z
M 678 1631 
L 4684 1631 
L 4684 1100 
L 678 1100 
L 678 1631 
z
" transform="scale(0.015625)"/>
      <path id="DejaVuSans-2c" d="M 750 794 
L 1409 794 
L 1409 256 
L 897 -744 
L 494 -744 
L 750 256 
L 750 794 
z
" transform="scale(0.015625)"/>
      <path id="DejaVuSans-41" d="M 2188 4044 
L 1331 1722 
L 3047 1722 
L 2188 4044 
z
M 1831 4666 
L 2547 4666 
L 4325 0 
L 3669 0 
L 3244 1197 
L 1141 1197 
L 716 0 
L 50 0 
L 1831 4666 
z
" transform="scale(0.015625)"/>
      <path id="DejaVuSans-2b" d="M 2944 4013 
L 2944 2272 
L 4684 2272 
L 4684 1741 
L 2944 1741 
L 2944 0 
L 2419 0 
L 2419 1741 
L 678 1741 
L 678 2272 
L 2419 2272 
L 2419 4013 
L 2944 4013 
z
" transform="scale(0.015625)"/>
     </defs>
     <use xlink:href="#DejaVuSans-50"/>
     <use xlink:href="#DejaVuSans-65" x="56.677734"/>
     <use xlink:href="#DejaVuSans-61" x="118.201172"/>
     <use xlink:href="#DejaVuSans-6b" x="179.480469"/>
     <use xlink:href="#DejaVuSans-3a" x="237.390625"/>
     <use xlink:href="#DejaVuSans-20" x="271.082031"/>
     <use xlink:href="#DejaVuSans-52" x="302.869141"/>
     <use xlink:href="#DejaVuSans-54" x="365.101562"/>
     <use xlink:href="#DejaVuSans-3d" x="426.185547"/>
     <use xlink:href="#DejaVuSans-33" x="509.974609"/>
     <use xlink:href="#DejaVuSans-2e" x="573.597656"/>
     <use xlink:href="#DejaVuSans-31" x="605.384766"/>
     <use xlink:href="#DejaVuSans-31" x="669.007812"/>
     <use xlink:href="#DejaVuSans-2c" x="732.630859"/>
     <use xlink:href="#DejaVuSans-20" x="764.417969"/>
     <use xlink:href="#DejaVuSans-41" x="796.205078"/>
     <use xlink:href="#DejaVuSans-72" x="864.613281"/>
     <use xlink:href="#DejaVuSans-65" x="903.476562"/>
     <use xlink:href="#DejaVuSans-61" x="965"/>
     <use xlink:href="#DejaVuSans-3d" x="1026.279297"/>
     <use xlink:href="#DejaVuSans-33" x="1110.068359"/>
     <use xlink:href="#DejaVuSans-2e" x="1173.691406"/>
     <use xlink:href="#DejaVuSans-37" x="1205.478516"/>
     <use xlink:href="#DejaVuSans-36" x="1269.101562"/>
     <use xlink:href="#DejaVuSans-65" x="1332.724609"/>
     <use xlink:href="#DejaVuSans-2b" x="1394.248047"/>
     <use xlink:href="#DejaVuSans-30" x="1478.037109"/>
     <use xlink:href="#DejaVuSans-34" x="1541.660156"/>
    </g>
    <!-- (38.17% of total) -->
    <g style="fill: #ff0000" transform="translate(461.369633 335.317449) scale(0.1 -0.1)">
     <defs>
      <path id="DejaVuSans-38" d="M 2034 2216 
Q 1584 2216 1326 1975 
Q 1069 1734 1069 1313 
Q 1069 891 1326 650 
Q 1584 409 2034 409 
Q 2484 409 2743 651 
Q 3003 894 3003 1313 
Q 3003 1734 2745 1975 
Q 2488 2216 2034 2216 
z
M 1403 2484 
Q 997 2584 770 2862 
Q 544 3141 544 3541 
Q 544 4100 942 4425 
Q 1341 4750 2034 4750 
Q 2731 4750 3128 4425 
Q 3525 4100 3525 3541 
Q 3525 3141 3298 2862 
Q 3072 2584 2669 2484 
Q 3125 2378 3379 2068 
Q 3634 1759 3634 1313 
Q 3634 634 3220 271 
Q 2806 -91 2034 -91 
Q 1263 -91 848 271 
Q 434 634 434 1313 
Q 434 1759 690 2068 
Q 947 2378 1403 2484 
z
M 1172 3481 
Q 1172 3119 1398 2916 
Q 1625 2713 2034 2713 
Q 2441 2713 2670 2916 
Q 2900 3119 2900 3481 
Q 2900 3844 2670 4047 
Q 2441 4250 2034 4250 
Q 1625 4250 1398 4047 
Q 1172 3844 1172 3481 
z
" transform="scale(0.015625)"/>
      <path id="DejaVuSans-25" d="M 4653 2053 
Q 4381 2053 4226 1822 
Q 4072 1591 4072 1178 
Q 4072 772 4226 539 
Q 4381 306 4653 306 
Q 4919 306 5073 539 
Q 5228 772 5228 1178 
Q 5228 1588 5073 1820 
Q 4919 2053 4653 2053 
z
M 4653 2450 
Q 5147 2450 5437 2106 
Q 5728 1763 5728 1178 
Q 5728 594 5436 251 
Q 5144 -91 4653 -91 
Q 4153 -91 3862 251 
Q 3572 594 3572 1178 
Q 3572 1766 3864 2108 
Q 4156 2450 4653 2450 
z
M 1428 4353 
Q 1159 4353 1004 4120 
Q 850 3888 850 3481 
Q 850 3069 1003 2837 
Q 1156 2606 1428 2606 
Q 1700 2606 1854 2837 
Q 2009 3069 2009 3481 
Q 2009 3884 1853 4118 
Q 1697 4353 1428 4353 
z
M 4250 4750 
L 4750 4750 
L 1831 -91 
L 1331 -91 
L 4250 4750 
z
M 1428 4750 
Q 1922 4750 2215 4408 
Q 2509 4066 2509 3481 
Q 2509 2891 2217 2550 
Q 1925 2209 1428 2209 
Q 931 2209 642 2551 
Q 353 2894 353 3481 
Q 353 4063 643 4406 
Q 934 4750 1428 4750 
z
" transform="scale(0.015625)"/>
      <path id="DejaVuSans-66" d="M 2375 4863 
L 2375 4384 
L 1825 4384 
Q 1516 4384 1395 4259 
Q 1275 4134 1275 3809 
L 1275 3500 
L 2222 3500 
L 2222 3053 
L 1275 3053 
L 1275 0 
L 697 0 
L 697 3053 
L 147 3053 
L 147 3500 
L 697 3500 
L 697 3744 
Q 697 4328 969 4595 
Q 1241 4863 1831 4863 
L 2375 4863 
z
" transform="scale(0.015625)"/>
     </defs>
     <use xlink:href="#DejaVuSans-28"/>
     <use xlink:href="#DejaVuSans-33" x="39.013672"/>
     <use xlink:href="#DejaVuSans-38" x="102.636719"/>
     <use xlink:href="#DejaVuSans-2e" x="166.259766"/>
     <use xlink:href="#DejaVuSans-31" x="198.046875"/>
     <use xlink:href="#DejaVuSans-37" x="261.669922"/>
     <use xlink:href="#DejaVuSans-25" x="325.292969"/>
     <use xlink:href="#DejaVuSans-20" x="420.3125"/>
     <use xlink:href="#DejaVuSans-6f" x="452.099609"/>
     <use xlink:href="#DejaVuSans-66" x="513.28125"/>
     <use xlink:href="#DejaVuSans-20" x="548.486328"/>
     <use xlink:href="#DejaVuSans-74" x="580.273438"/>
     <use xlink:href="#DejaVuSans-6f" x="619.482422"/>
     <use xlink:href="#DejaVuSans-74" x="680.664062"/>
     <use xlink:href="#DejaVuSans-61" x="719.873047"/>
     <use xlink:href="#DejaVuSans-6c" x="781.152344"/>
     <use xlink:href="#DejaVuSans-29" x="808.935547"/>
    </g>
   </g>
   <g id="text_18">
    <!-- UV and MS Chromatograms of Ir_ppy_M11Y1_final, target m/z = 781.18 -->
    <g transform="translate(235.469688 20.88) scale(0.12 -0.12)">
     <defs>
      <path id="DejaVuSans-55" d="M 556 4666 
L 1191 4666 
L 1191 1831 
Q 1191 1081 1462 751 
Q 1734 422 2344 422 
Q 2950 422 3222 751 
Q 3494 1081 3494 1831 
L 3494 4666 
L 4128 4666 
L 4128 1753 
Q 4128 841 3676 375 
Q 3225 -91 2344 -91 
Q 1459 -91 1007 375 
Q 556 841 556 1753 
L 556 4666 
z
" transform="scale(0.015625)"/>
      <path id="DejaVuSans-56" d="M 1831 0 
L 50 4666 
L 709 4666 
L 2188 738 
L 3669 4666 
L 4325 4666 
L 2547 0 
L 1831 0 
z
" transform="scale(0.015625)"/>
      <path id="DejaVuSans-4d" d="M 628 4666 
L 1569 4666 
L 2759 1491 
L 3956 4666 
L 4897 4666 
L 4897 0 
L 4281 0 
L 4281 4097 
L 3078 897 
L 2444 897 
L 1241 4097 
L 1241 0 
L 628 0 
L 628 4666 
z
" transform="scale(0.015625)"/>
      <path id="DejaVuSans-53" d="M 3425 4513 
L 3425 3897 
Q 3066 4069 2747 4153 
Q 2428 4238 2131 4238 
Q 1616 4238 1336 4038 
Q 1056 3838 1056 3469 
Q 1056 3159 1242 3001 
Q 1428 2844 1947 2747 
L 2328 2669 
Q 3034 2534 3370 2195 
Q 3706 1856 3706 1288 
Q 3706 609 3251 259 
Q 2797 -91 1919 -91 
Q 1588 -91 1214 -16 
Q 841 59 441 206 
L 441 856 
Q 825 641 1194 531 
Q 1563 422 1919 422 
Q 2459 422 2753 634 
Q 3047 847 3047 1241 
Q 3047 1584 2836 1778 
Q 2625 1972 2144 2069 
L 1759 2144 
Q 1053 2284 737 2584 
Q 422 2884 422 3419 
Q 422 4038 858 4394 
Q 1294 4750 2059 4750 
Q 2388 4750 2728 4690 
Q 3069 4631 3425 4513 
z
" transform="scale(0.015625)"/>
      <path id="DejaVuSans-43" d="M 4122 4306 
L 4122 3641 
Q 3803 3938 3442 4084 
Q 3081 4231 2675 4231 
Q 1875 4231 1450 3742 
Q 1025 3253 1025 2328 
Q 1025 1406 1450 917 
Q 1875 428 2675 428 
Q 3081 428 3442 575 
Q 3803 722 4122 1019 
L 4122 359 
Q 3791 134 3420 21 
Q 3050 -91 2638 -91 
Q 1578 -91 968 557 
Q 359 1206 359 2328 
Q 359 3453 968 4101 
Q 1578 4750 2638 4750 
Q 3056 4750 3426 4639 
Q 3797 4528 4122 4306 
z
" transform="scale(0.015625)"/>
      <path id="DejaVuSans-68" d="M 3513 2113 
L 3513 0 
L 2938 0 
L 2938 2094 
Q 2938 2591 2744 2837 
Q 2550 3084 2163 3084 
Q 1697 3084 1428 2787 
Q 1159 2491 1159 1978 
L 1159 0 
L 581 0 
L 581 4863 
L 1159 4863 
L 1159 2956 
Q 1366 3272 1645 3428 
Q 1925 3584 2291 3584 
Q 2894 3584 3203 3211 
Q 3513 2838 3513 2113 
z
" transform="scale(0.015625)"/>
      <path id="DejaVuSans-67" d="M 2906 1791 
Q 2906 2416 2648 2759 
Q 2391 3103 1925 3103 
Q 1463 3103 1205 2759 
Q 947 2416 947 1791 
Q 947 1169 1205 825 
Q 1463 481 1925 481 
Q 2391 481 2648 825 
Q 2906 1169 2906 1791 
z
M 3481 434 
Q 3481 -459 3084 -895 
Q 2688 -1331 1869 -1331 
Q 1566 -1331 1297 -1286 
Q 1028 -1241 775 -1147 
L 775 -588 
Q 1028 -725 1275 -790 
Q 1522 -856 1778 -856 
Q 2344 -856 2625 -561 
Q 2906 -266 2906 331 
L 2906 616 
Q 2728 306 2450 153 
Q 2172 0 1784 0 
Q 1141 0 747 490 
Q 353 981 353 1791 
Q 353 2603 747 3093 
Q 1141 3584 1784 3584 
Q 2172 3584 2450 3431 
Q 2728 3278 2906 2969 
L 2906 3500 
L 3481 3500 
L 3481 434 
z
" transform="scale(0.015625)"/>
      <path id="DejaVuSans-5f" d="M 3263 -1063 
L 3263 -1509 
L -63 -1509 
L -63 -1063 
L 3263 -1063 
z
" transform="scale(0.015625)"/>
      <path id="DejaVuSans-70" d="M 1159 525 
L 1159 -1331 
L 581 -1331 
L 581 3500 
L 1159 3500 
L 1159 2969 
Q 1341 3281 1617 3432 
Q 1894 3584 2278 3584 
Q 2916 3584 3314 3078 
Q 3713 2572 3713 1747 
Q 3713 922 3314 415 
Q 2916 -91 2278 -91 
Q 1894 -91 1617 61 
Q 1341 213 1159 525 
z
M 3116 1747 
Q 3116 2381 2855 2742 
Q 2594 3103 2138 3103 
Q 1681 3103 1420 2742 
Q 1159 2381 1159 1747 
Q 1159 1113 1420 752 
Q 1681 391 2138 391 
Q 2594 391 2855 752 
Q 3116 1113 3116 1747 
z
" transform="scale(0.015625)"/>
      <path id="DejaVuSans-59" d="M -13 4666 
L 666 4666 
L 1959 2747 
L 3244 4666 
L 3922 4666 
L 2272 2222 
L 2272 0 
L 1638 0 
L 1638 2222 
L -13 4666 
z
" transform="scale(0.015625)"/>
      <path id="DejaVuSans-2f" d="M 1625 4666 
L 2156 4666 
L 531 -594 
L 0 -594 
L 1625 4666 
z
" transform="scale(0.015625)"/>
     </defs>
     <use xlink:href="#DejaVuSans-55"/>
     <use xlink:href="#DejaVuSans-56" x="73.193359"/>
     <use xlink:href="#DejaVuSans-20" x="141.601562"/>
     <use xlink:href="#DejaVuSans-61" x="173.388672"/>
     <use xlink:href="#DejaVuSans-6e" x="234.667969"/>
     <use xlink:href="#DejaVuSans-64" x="298.046875"/>
     <use xlink:href="#DejaVuSans-20" x="361.523438"/>
     <use xlink:href="#DejaVuSans-4d" x="393.310547"/>
     <use xlink:href="#DejaVuSans-53" x="479.589844"/>
     <use xlink:href="#DejaVuSans-20" x="543.066406"/>
     <use xlink:href="#DejaVuSans-43" x="574.853516"/>
     <use xlink:href="#DejaVuSans-68" x="644.677734"/>
     <use xlink:href="#DejaVuSans-72" x="708.056641"/>
     <use xlink:href="#DejaVuSans-6f" x="746.919922"/>
     <use xlink:href="#DejaVuSans-6d" x="808.101562"/>
     <use xlink:href="#DejaVuSans-61" x="905.513672"/>
     <use xlink:href="#DejaVuSans-74" x="966.792969"/>
     <use xlink:href="#DejaVuSans-6f" x="1006.001953"/>
     <use xlink:href="#DejaVuSans-67" x="1067.183594"/>
     <use xlink:href="#DejaVuSans-72" x="1130.660156"/>
     <use xlink:href="#DejaVuSans-61" x="1171.773438"/>
     <use xlink:href="#DejaVuSans-6d" x="1233.052734"/>
     <use xlink:href="#DejaVuSans-73" x="1330.464844"/>
     <use xlink:href="#DejaVuSans-20" x="1382.564453"/>
     <use xlink:href="#DejaVuSans-6f" x="1414.351562"/>
     <use xlink:href="#DejaVuSans-66" x="1475.533203"/>
     <use xlink:href="#DejaVuSans-20" x="1510.738281"/>
     <use xlink:href="#DejaVuSans-49" x="1542.525391"/>
     <use xlink:href="#DejaVuSans-72" x="1572.017578"/>
     <use xlink:href="#DejaVuSans-5f" x="1613.130859"/>
     <use xlink:href="#DejaVuSans-70" x="1663.130859"/>
     <use xlink:href="#DejaVuSans-70" x="1726.607422"/>
     <use xlink:href="#DejaVuSans-79" x="1790.083984"/>
     <use xlink:href="#DejaVuSans-5f" x="1849.263672"/>
     <use xlink:href="#DejaVuSans-4d" x="1899.263672"/>
     <use xlink:href="#DejaVuSans-31" x="1985.542969"/>
     <use xlink:href="#DejaVuSans-31" x="2049.166016"/>
     <use xlink:href="#DejaVuSans-59" x="2112.789062"/>
     <use xlink:href="#DejaVuSans-31" x="2173.873047"/>
     <use xlink:href="#DejaVuSans-5f" x="2237.496094"/>
     <use xlink:href="#DejaVuSans-66" x="2287.496094"/>
     <use xlink:href="#DejaVuSans-69" x="2322.701172"/>
     <use xlink:href="#DejaVuSans-6e" x="2350.484375"/>
     <use xlink:href="#DejaVuSans-61" x="2413.863281"/>
     <use xlink:href="#DejaVuSans-6c" x="2475.142578"/>
     <use xlink:href="#DejaVuSans-2c" x="2502.925781"/>
     <use xlink:href="#DejaVuSans-20" x="2534.712891"/>
     <use xlink:href="#DejaVuSans-74" x="2566.5"/>
     <use xlink:href="#DejaVuSans-61" x="2605.708984"/>
     <use xlink:href="#DejaVuSans-72" x="2666.988281"/>
     <use xlink:href="#DejaVuSans-67" x="2706.351562"/>
     <use xlink:href="#DejaVuSans-65" x="2769.828125"/>
     <use xlink:href="#DejaVuSans-74" x="2831.351562"/>
     <use xlink:href="#DejaVuSans-20" x="2870.560547"/>
     <use xlink:href="#DejaVuSans-6d" x="2902.347656"/>
     <use xlink:href="#DejaVuSans-2f" x="2999.759766"/>
     <use xlink:href="#DejaVuSans-7a" x="3033.451172"/>
     <use xlink:href="#DejaVuSans-20" x="3085.941406"/>
     <use xlink:href="#DejaVuSans-3d" x="3117.728516"/>
     <use xlink:href="#DejaVuSans-20" x="3201.517578"/>
     <use xlink:href="#DejaVuSans-37" x="3233.304688"/>
     <use xlink:href="#DejaVuSans-38" x="3296.927734"/>
     <use xlink:href="#DejaVuSans-31" x="3360.550781"/>
     <use xlink:href="#DejaVuSans-2e" x="3424.173828"/>
     <use xlink:href="#DejaVuSans-31" x="3455.960938"/>
     <use xlink:href="#DejaVuSans-38" x="3519.583984"/>
    </g>
   </g>
   <g id="legend_1">
    <g id="patch_8">
     <path d="M 685.971875 64.23625 
L 846.2 64.23625 
Q 848.2 64.23625 848.2 62.23625 
L 848.2 33.88 
Q 848.2 31.88 846.2 31.88 
L 685.971875 31.88 
Q 683.971875 31.88 683.971875 33.88 
L 683.971875 62.23625 
Q 683.971875 64.23625 685.971875 64.23625 
z
" style="fill: #ffffff; opacity: 0.8; stroke: #cccccc; stroke-linejoin: miter"/>
    </g>
    <g id="line2d_17">
     <path d="M 687.971875 39.978437 
L 697.971875 39.978437 
L 707.971875 39.978437 
" style="fill: none; stroke: #0000ff; stroke-width: 1.5; stroke-linecap: square"/>
    </g>
    <g id="text_19">
     <!-- UV Intensity (normalized) -->
     <g transform="translate(715.971875 43.478437) scale(0.1 -0.1)">
      <use xlink:href="#DejaVuSans-55"/>
      <use xlink:href="#DejaVuSans-56" x="73.193359"/>
      <use xlink:href="#DejaVuSans-20" x="141.601562"/>
      <use xlink:href="#DejaVuSans-49" x="173.388672"/>
      <use xlink:href="#DejaVuSans-6e" x="202.880859"/>
      <use xlink:href="#DejaVuSans-74" x="266.259766"/>
      <use xlink:href="#DejaVuSans-65" x="305.46875"/>
      <use xlink:href="#DejaVuSans-6e" x="366.992188"/>
      <use xlink:href="#DejaVuSans-73" x="430.371094"/>
      <use xlink:href="#DejaVuSans-69" x="482.470703"/>
      <use xlink:href="#DejaVuSans-74" x="510.253906"/>
      <use xlink:href="#DejaVuSans-79" x="549.462891"/>
      <use xlink:href="#DejaVuSans-20" x="608.642578"/>
      <use xlink:href="#DejaVuSans-28" x="640.429688"/>
      <use xlink:href="#DejaVuSans-6e" x="679.443359"/>
      <use xlink:href="#DejaVuSans-6f" x="742.822266"/>
      <use xlink:href="#DejaVuSans-72" x="804.003906"/>
      <use xlink:href="#DejaVuSans-6d" x="843.367188"/>
      <use xlink:href="#DejaVuSans-61" x="940.779297"/>
      <use xlink:href="#DejaVuSans-6c" x="1002.058594"/>
      <use xlink:href="#DejaVuSans-69" x="1029.841797"/>
      <use xlink:href="#DejaVuSans-7a" x="1057.625"/>
      <use xlink:href="#DejaVuSans-65" x="1110.115234"/>
      <use xlink:href="#DejaVuSans-64" x="1171.638672"/>
      <use xlink:href="#DejaVuSans-29" x="1235.115234"/>
     </g>
    </g>
    <g id="line2d_18">
     <path d="M 687.971875 54.656562 
L 697.971875 54.656562 
L 707.971875 54.656562 
" style="fill: none; stroke: #008000; stroke-width: 1.5; stroke-linecap: square"/>
    </g>
    <g id="text_20">
     <!-- MS Intensity (normalized) -->
     <g transform="translate(715.971875 58.156562) scale(0.1 -0.1)">
      <use xlink:href="#DejaVuSans-4d"/>
      <use xlink:href="#DejaVuSans-53" x="86.279297"/>
      <use xlink:href="#DejaVuSans-20" x="149.755859"/>
      <use xlink:href="#DejaVuSans-49" x="181.542969"/>
      <use xlink:href="#DejaVuSans-6e" x="211.035156"/>
      <use xlink:href="#DejaVuSans-74" x="274.414062"/>
      <use xlink:href="#DejaVuSans-65" x="313.623047"/>
      <use xlink:href="#DejaVuSans-6e" x="375.146484"/>
      <use xlink:href="#DejaVuSans-73" x="438.525391"/>
      <use xlink:href="#DejaVuSans-69" x="490.625"/>
      <use xlink:href="#DejaVuSans-74" x="518.408203"/>
      <use xlink:href="#DejaVuSans-79" x="557.617188"/>
      <use xlink:href="#DejaVuSans-20" x="616.796875"/>
      <use xlink:href="#DejaVuSans-28" x="648.583984"/>
      <use xlink:href="#DejaVuSans-6e" x="687.597656"/>
      <use xlink:href="#DejaVuSans-6f" x="750.976562"/>
      <use xlink:href="#DejaVuSans-72" x="812.158203"/>
      <use xlink:href="#DejaVuSans-6d" x="851.521484"/>
      <use xlink:href="#DejaVuSans-61" x="948.933594"/>
      <use xlink:href="#DejaVuSans-6c" x="1010.212891"/>
      <use xlink:href="#DejaVuSans-69" x="1037.996094"/>
      <use xlink:href="#DejaVuSans-7a" x="1065.779297"/>
      <use xlink:href="#DejaVuSans-65" x="1118.269531"/>
      <use xlink:href="#DejaVuSans-64" x="1179.792969"/>
      <use xlink:href="#DejaVuSans-29" x="1243.269531"/>
     </g>
    </g>
   </g>
  </g>
 </g>
 <defs>
  <clipPath id="p5fdca28939">
   <rect x="47.72" y="26.88" width="805.48" height="507.16"/>
  </clipPath>
 </defs>
</svg>
