<?xml version="1.0" encoding="utf-8" standalone="no"?>
<!DOCTYPE svg PUBLIC "-//W3C//DTD SVG 1.1//EN"
  "http://www.w3.org/Graphics/SVG/1.1/DTD/svg11.dtd">
<svg xmlns:xlink="http://www.w3.org/1999/xlink" width="864pt" height="576pt" viewBox="0 0 864 576" xmlns="http://www.w3.org/2000/svg" version="1.1">
 <metadata>
  <rdf:RDF xmlns:dc="http://purl.org/dc/elements/1.1/" xmlns:cc="http://creativecommons.org/ns#" xmlns:rdf="http://www.w3.org/1999/02/22-rdf-syntax-ns#">
   <cc:Work>
    <dc:type rdf:resource="http://purl.org/dc/dcmitype/StillImage"/>
    <dc:date>2024-12-06T16:23:23.387490</dc:date>
    <dc:format>image/svg+xml</dc:format>
    <dc:creator>
     <cc:Agent>
      <dc:title>Matplotlib v3.9.0, https://matplotlib.org/</dc:title>
     </cc:Agent>
    </dc:creator>
   </cc:Work>
  </rdf:RDF>
 </metadata>
 <defs>
  <style type="text/css">*{stroke-linejoin: round; stroke-linecap: butt}</style>
 </defs>
 <g id="figure_1">
  <g id="patch_1">
   <path d="M 0 576 
L 864 576 
L 864 0 
L 0 0 
z
" style="fill: #ffffff"/>
  </g>
  <g id="axes_1">
   <g id="patch_2">
    <path d="M 47.72 534.04 
L 853.2 534.04 
L 853.2 26.88 
L 47.72 26.88 
z
" style="fill: #ffffff"/>
   </g>
   <g id="matplotlib.axis_1">
    <g id="xtick_1">
     <g id="line2d_1">
      <defs>
       <path id="m601da883a3" d="M 0 0 
L 0 3.5 
" style="stroke: #000000; stroke-width: 0.8"/>
      </defs>
      <g>
       <use xlink:href="#m601da883a3" x="83.451229" y="534.04" style="stroke: #000000; stroke-width: 0.8"/>
      </g>
     </g>
     <g id="text_1">
      <!-- 0 -->
      <g transform="translate(80.269979 548.638438) scale(0.1 -0.1)">
       <defs>
        <path id="DejaVuSans-30" d="M 2034 4250 
Q 1547 4250 1301 3770 
Q 1056 3291 1056 2328 
Q 1056 1369 1301 889 
Q 1547 409 2034 409 
Q 2525 409 2770 889 
Q 3016 1369 3016 2328 
Q 3016 3291 2770 3770 
Q 2525 4250 2034 4250 
z
M 2034 4750 
Q 2819 4750 3233 4129 
Q 3647 3509 3647 2328 
Q 3647 1150 3233 529 
Q 2819 -91 2034 -91 
Q 1250 -91 836 529 
Q 422 1150 422 2328 
Q 422 3509 836 4129 
Q 1250 4750 2034 4750 
z
" transform="scale(0.015625)"/>
       </defs>
       <use xlink:href="#DejaVuSans-30"/>
      </g>
     </g>
    </g>
    <g id="xtick_2">
     <g id="line2d_2">
      <g>
       <use xlink:href="#m601da883a3" x="188.183703" y="534.04" style="stroke: #000000; stroke-width: 0.8"/>
      </g>
     </g>
     <g id="text_2">
      <!-- 1 -->
      <g transform="translate(185.002453 548.638438) scale(0.1 -0.1)">
       <defs>
        <path id="DejaVuSans-31" d="M 794 531 
L 1825 531 
L 1825 4091 
L 703 3866 
L 703 4441 
L 1819 4666 
L 2450 4666 
L 2450 531 
L 3481 531 
L 3481 0 
L 794 0 
L 794 531 
z
" transform="scale(0.015625)"/>
       </defs>
       <use xlink:href="#DejaVuSans-31"/>
      </g>
     </g>
    </g>
    <g id="xtick_3">
     <g id="line2d_3">
      <g>
       <use xlink:href="#m601da883a3" x="292.916176" y="534.04" style="stroke: #000000; stroke-width: 0.8"/>
      </g>
     </g>
     <g id="text_3">
      <!-- 2 -->
      <g transform="translate(289.734926 548.638438) scale(0.1 -0.1)">
       <defs>
        <path id="DejaVuSans-32" d="M 1228 531 
L 3431 531 
L 3431 0 
L 469 0 
L 469 531 
Q 828 903 1448 1529 
Q 2069 2156 2228 2338 
Q 2531 2678 2651 2914 
Q 2772 3150 2772 3378 
Q 2772 3750 2511 3984 
Q 2250 4219 1831 4219 
Q 1534 4219 1204 4116 
Q 875 4013 500 3803 
L 500 4441 
Q 881 4594 1212 4672 
Q 1544 4750 1819 4750 
Q 2544 4750 2975 4387 
Q 3406 4025 3406 3419 
Q 3406 3131 3298 2873 
Q 3191 2616 2906 2266 
Q 2828 2175 2409 1742 
Q 1991 1309 1228 531 
z
" transform="scale(0.015625)"/>
       </defs>
       <use xlink:href="#DejaVuSans-32"/>
      </g>
     </g>
    </g>
    <g id="xtick_4">
     <g id="line2d_4">
      <g>
       <use xlink:href="#m601da883a3" x="397.64865" y="534.04" style="stroke: #000000; stroke-width: 0.8"/>
      </g>
     </g>
     <g id="text_4">
      <!-- 3 -->
      <g transform="translate(394.4674 548.638438) scale(0.1 -0.1)">
       <defs>
        <path id="DejaVuSans-33" d="M 2597 2516 
Q 3050 2419 3304 2112 
Q 3559 1806 3559 1356 
Q 3559 666 3084 287 
Q 2609 -91 1734 -91 
Q 1441 -91 1130 -33 
Q 819 25 488 141 
L 488 750 
Q 750 597 1062 519 
Q 1375 441 1716 441 
Q 2309 441 2620 675 
Q 2931 909 2931 1356 
Q 2931 1769 2642 2001 
Q 2353 2234 1838 2234 
L 1294 2234 
L 1294 2753 
L 1863 2753 
Q 2328 2753 2575 2939 
Q 2822 3125 2822 3475 
Q 2822 3834 2567 4026 
Q 2313 4219 1838 4219 
Q 1578 4219 1281 4162 
Q 984 4106 628 3988 
L 628 4550 
Q 988 4650 1302 4700 
Q 1616 4750 1894 4750 
Q 2613 4750 3031 4423 
Q 3450 4097 3450 3541 
Q 3450 3153 3228 2886 
Q 3006 2619 2597 2516 
z
" transform="scale(0.015625)"/>
       </defs>
       <use xlink:href="#DejaVuSans-33"/>
      </g>
     </g>
    </g>
    <g id="xtick_5">
     <g id="line2d_5">
      <g>
       <use xlink:href="#m601da883a3" x="502.381124" y="534.04" style="stroke: #000000; stroke-width: 0.8"/>
      </g>
     </g>
     <g id="text_5">
      <!-- 4 -->
      <g transform="translate(499.199874 548.638438) scale(0.1 -0.1)">
       <defs>
        <path id="DejaVuSans-34" d="M 2419 4116 
L 825 1625 
L 2419 1625 
L 2419 4116 
z
M 2253 4666 
L 3047 4666 
L 3047 1625 
L 3713 1625 
L 3713 1100 
L 3047 1100 
L 3047 0 
L 2419 0 
L 2419 1100 
L 313 1100 
L 313 1709 
L 2253 4666 
z
" transform="scale(0.015625)"/>
       </defs>
       <use xlink:href="#DejaVuSans-34"/>
      </g>
     </g>
    </g>
    <g id="xtick_6">
     <g id="line2d_6">
      <g>
       <use xlink:href="#m601da883a3" x="607.113598" y="534.04" style="stroke: #000000; stroke-width: 0.8"/>
      </g>
     </g>
     <g id="text_6">
      <!-- 5 -->
      <g transform="translate(603.932348 548.638438) scale(0.1 -0.1)">
       <defs>
        <path id="DejaVuSans-35" d="M 691 4666 
L 3169 4666 
L 3169 4134 
L 1269 4134 
L 1269 2991 
Q 1406 3038 1543 3061 
Q 1681 3084 1819 3084 
Q 2600 3084 3056 2656 
Q 3513 2228 3513 1497 
Q 3513 744 3044 326 
Q 2575 -91 1722 -91 
Q 1428 -91 1123 -41 
Q 819 9 494 109 
L 494 744 
Q 775 591 1075 516 
Q 1375 441 1709 441 
Q 2250 441 2565 725 
Q 2881 1009 2881 1497 
Q 2881 1984 2565 2268 
Q 2250 2553 1709 2553 
Q 1456 2553 1204 2497 
Q 953 2441 691 2322 
L 691 4666 
z
" transform="scale(0.015625)"/>
       </defs>
       <use xlink:href="#DejaVuSans-35"/>
      </g>
     </g>
    </g>
    <g id="xtick_7">
     <g id="line2d_7">
      <g>
       <use xlink:href="#m601da883a3" x="711.846071" y="534.04" style="stroke: #000000; stroke-width: 0.8"/>
      </g>
     </g>
     <g id="text_7">
      <!-- 6 -->
      <g transform="translate(708.664821 548.638438) scale(0.1 -0.1)">
       <defs>
        <path id="DejaVuSans-36" d="M 2113 2584 
Q 1688 2584 1439 2293 
Q 1191 2003 1191 1497 
Q 1191 994 1439 701 
Q 1688 409 2113 409 
Q 2538 409 2786 701 
Q 3034 994 3034 1497 
Q 3034 2003 2786 2293 
Q 2538 2584 2113 2584 
z
M 3366 4563 
L 3366 3988 
Q 3128 4100 2886 4159 
Q 2644 4219 2406 4219 
Q 1781 4219 1451 3797 
Q 1122 3375 1075 2522 
Q 1259 2794 1537 2939 
Q 1816 3084 2150 3084 
Q 2853 3084 3261 2657 
Q 3669 2231 3669 1497 
Q 3669 778 3244 343 
Q 2819 -91 2113 -91 
Q 1303 -91 875 529 
Q 447 1150 447 2328 
Q 447 3434 972 4092 
Q 1497 4750 2381 4750 
Q 2619 4750 2861 4703 
Q 3103 4656 3366 4563 
z
" transform="scale(0.015625)"/>
       </defs>
       <use xlink:href="#DejaVuSans-36"/>
      </g>
     </g>
    </g>
    <g id="xtick_8">
     <g id="line2d_8">
      <g>
       <use xlink:href="#m601da883a3" x="816.578545" y="534.04" style="stroke: #000000; stroke-width: 0.8"/>
      </g>
     </g>
     <g id="text_8">
      <!-- 7 -->
      <g transform="translate(813.397295 548.638438) scale(0.1 -0.1)">
       <defs>
        <path id="DejaVuSans-37" d="M 525 4666 
L 3525 4666 
L 3525 4397 
L 1831 0 
L 1172 0 
L 2766 4134 
L 525 4134 
L 525 4666 
z
" transform="scale(0.015625)"/>
       </defs>
       <use xlink:href="#DejaVuSans-37"/>
      </g>
     </g>
    </g>
    <g id="text_9">
     <!-- Retention Time (min) -->
     <g transform="translate(397.61 562.316562) scale(0.1 -0.1)">
      <defs>
       <path id="DejaVuSans-52" d="M 2841 2188 
Q 3044 2119 3236 1894 
Q 3428 1669 3622 1275 
L 4263 0 
L 3584 0 
L 2988 1197 
Q 2756 1666 2539 1819 
Q 2322 1972 1947 1972 
L 1259 1972 
L 1259 0 
L 628 0 
L 628 4666 
L 2053 4666 
Q 2853 4666 3247 4331 
Q 3641 3997 3641 3322 
Q 3641 2881 3436 2590 
Q 3231 2300 2841 2188 
z
M 1259 4147 
L 1259 2491 
L 2053 2491 
Q 2509 2491 2742 2702 
Q 2975 2913 2975 3322 
Q 2975 3731 2742 3939 
Q 2509 4147 2053 4147 
L 1259 4147 
z
" transform="scale(0.015625)"/>
       <path id="DejaVuSans-65" d="M 3597 1894 
L 3597 1613 
L 953 1613 
Q 991 1019 1311 708 
Q 1631 397 2203 397 
Q 2534 397 2845 478 
Q 3156 559 3463 722 
L 3463 178 
Q 3153 47 2828 -22 
Q 2503 -91 2169 -91 
Q 1331 -91 842 396 
Q 353 884 353 1716 
Q 353 2575 817 3079 
Q 1281 3584 2069 3584 
Q 2775 3584 3186 3129 
Q 3597 2675 3597 1894 
z
M 3022 2063 
Q 3016 2534 2758 2815 
Q 2500 3097 2075 3097 
Q 1594 3097 1305 2825 
Q 1016 2553 972 2059 
L 3022 2063 
z
" transform="scale(0.015625)"/>
       <path id="DejaVuSans-74" d="M 1172 4494 
L 1172 3500 
L 2356 3500 
L 2356 3053 
L 1172 3053 
L 1172 1153 
Q 1172 725 1289 603 
Q 1406 481 1766 481 
L 2356 481 
L 2356 0 
L 1766 0 
Q 1100 0 847 248 
Q 594 497 594 1153 
L 594 3053 
L 172 3053 
L 172 3500 
L 594 3500 
L 594 4494 
L 1172 4494 
z
" transform="scale(0.015625)"/>
       <path id="DejaVuSans-6e" d="M 3513 2113 
L 3513 0 
L 2938 0 
L 2938 2094 
Q 2938 2591 2744 2837 
Q 2550 3084 2163 3084 
Q 1697 3084 1428 2787 
Q 1159 2491 1159 1978 
L 1159 0 
L 581 0 
L 581 3500 
L 1159 3500 
L 1159 2956 
Q 1366 3272 1645 3428 
Q 1925 3584 2291 3584 
Q 2894 3584 3203 3211 
Q 3513 2838 3513 2113 
z
" transform="scale(0.015625)"/>
       <path id="DejaVuSans-69" d="M 603 3500 
L 1178 3500 
L 1178 0 
L 603 0 
L 603 3500 
z
M 603 4863 
L 1178 4863 
L 1178 4134 
L 603 4134 
L 603 4863 
z
" transform="scale(0.015625)"/>
       <path id="DejaVuSans-6f" d="M 1959 3097 
Q 1497 3097 1228 2736 
Q 959 2375 959 1747 
Q 959 1119 1226 758 
Q 1494 397 1959 397 
Q 2419 397 2687 759 
Q 2956 1122 2956 1747 
Q 2956 2369 2687 2733 
Q 2419 3097 1959 3097 
z
M 1959 3584 
Q 2709 3584 3137 3096 
Q 3566 2609 3566 1747 
Q 3566 888 3137 398 
Q 2709 -91 1959 -91 
Q 1206 -91 779 398 
Q 353 888 353 1747 
Q 353 2609 779 3096 
Q 1206 3584 1959 3584 
z
" transform="scale(0.015625)"/>
       <path id="DejaVuSans-20" transform="scale(0.015625)"/>
       <path id="DejaVuSans-54" d="M -19 4666 
L 3928 4666 
L 3928 4134 
L 2272 4134 
L 2272 0 
L 1638 0 
L 1638 4134 
L -19 4134 
L -19 4666 
z
" transform="scale(0.015625)"/>
       <path id="DejaVuSans-6d" d="M 3328 2828 
Q 3544 3216 3844 3400 
Q 4144 3584 4550 3584 
Q 5097 3584 5394 3201 
Q 5691 2819 5691 2113 
L 5691 0 
L 5113 0 
L 5113 2094 
Q 5113 2597 4934 2840 
Q 4756 3084 4391 3084 
Q 3944 3084 3684 2787 
Q 3425 2491 3425 1978 
L 3425 0 
L 2847 0 
L 2847 2094 
Q 2847 2600 2669 2842 
Q 2491 3084 2119 3084 
Q 1678 3084 1418 2786 
Q 1159 2488 1159 1978 
L 1159 0 
L 581 0 
L 581 3500 
L 1159 3500 
L 1159 2956 
Q 1356 3278 1631 3431 
Q 1906 3584 2284 3584 
Q 2666 3584 2933 3390 
Q 3200 3197 3328 2828 
z
" transform="scale(0.015625)"/>
       <path id="DejaVuSans-28" d="M 1984 4856 
Q 1566 4138 1362 3434 
Q 1159 2731 1159 2009 
Q 1159 1288 1364 580 
Q 1569 -128 1984 -844 
L 1484 -844 
Q 1016 -109 783 600 
Q 550 1309 550 2009 
Q 550 2706 781 3412 
Q 1013 4119 1484 4856 
L 1984 4856 
z
" transform="scale(0.015625)"/>
       <path id="DejaVuSans-29" d="M 513 4856 
L 1013 4856 
Q 1481 4119 1714 3412 
Q 1947 2706 1947 2009 
Q 1947 1309 1714 600 
Q 1481 -109 1013 -844 
L 513 -844 
Q 928 -128 1133 580 
Q 1338 1288 1338 2009 
Q 1338 2731 1133 3434 
Q 928 4138 513 4856 
z
" transform="scale(0.015625)"/>
      </defs>
      <use xlink:href="#DejaVuSans-52"/>
      <use xlink:href="#DejaVuSans-65" x="64.982422"/>
      <use xlink:href="#DejaVuSans-74" x="126.505859"/>
      <use xlink:href="#DejaVuSans-65" x="165.714844"/>
      <use xlink:href="#DejaVuSans-6e" x="227.238281"/>
      <use xlink:href="#DejaVuSans-74" x="290.617188"/>
      <use xlink:href="#DejaVuSans-69" x="329.826172"/>
      <use xlink:href="#DejaVuSans-6f" x="357.609375"/>
      <use xlink:href="#DejaVuSans-6e" x="418.791016"/>
      <use xlink:href="#DejaVuSans-20" x="482.169922"/>
      <use xlink:href="#DejaVuSans-54" x="513.957031"/>
      <use xlink:href="#DejaVuSans-69" x="571.916016"/>
      <use xlink:href="#DejaVuSans-6d" x="599.699219"/>
      <use xlink:href="#DejaVuSans-65" x="697.111328"/>
      <use xlink:href="#DejaVuSans-20" x="758.634766"/>
      <use xlink:href="#DejaVuSans-28" x="790.421875"/>
      <use xlink:href="#DejaVuSans-6d" x="829.435547"/>
      <use xlink:href="#DejaVuSans-69" x="926.847656"/>
      <use xlink:href="#DejaVuSans-6e" x="954.630859"/>
      <use xlink:href="#DejaVuSans-29" x="1018.009766"/>
     </g>
    </g>
   </g>
   <g id="matplotlib.axis_2">
    <g id="ytick_1">
     <g id="line2d_9">
      <defs>
       <path id="m63457753fc" d="M 0 0 
L -3.5 0 
" style="stroke: #000000; stroke-width: 0.8"/>
      </defs>
      <g>
       <use xlink:href="#m63457753fc" x="47.72" y="510.477284" style="stroke: #000000; stroke-width: 0.8"/>
      </g>
     </g>
     <g id="text_10">
      <!-- 0.0 -->
      <g style="fill: #0000ff" transform="translate(24.816875 514.276503) scale(0.1 -0.1)">
       <defs>
        <path id="DejaVuSans-2e" d="M 684 794 
L 1344 794 
L 1344 0 
L 684 0 
L 684 794 
z
" transform="scale(0.015625)"/>
       </defs>
       <use xlink:href="#DejaVuSans-30"/>
       <use xlink:href="#DejaVuSans-2e" x="63.623047"/>
       <use xlink:href="#DejaVuSans-30" x="95.410156"/>
      </g>
     </g>
    </g>
    <g id="ytick_2">
     <g id="line2d_10">
      <g>
       <use xlink:href="#m63457753fc" x="47.72" y="418.368373" style="stroke: #000000; stroke-width: 0.8"/>
      </g>
     </g>
     <g id="text_11">
      <!-- 0.5 -->
      <g style="fill: #0000ff" transform="translate(24.816875 422.167592) scale(0.1 -0.1)">
       <use xlink:href="#DejaVuSans-30"/>
       <use xlink:href="#DejaVuSans-2e" x="63.623047"/>
       <use xlink:href="#DejaVuSans-35" x="95.410156"/>
      </g>
     </g>
    </g>
    <g id="ytick_3">
     <g id="line2d_11">
      <g>
       <use xlink:href="#m63457753fc" x="47.72" y="326.259462" style="stroke: #000000; stroke-width: 0.8"/>
      </g>
     </g>
     <g id="text_12">
      <!-- 1.0 -->
      <g style="fill: #0000ff" transform="translate(24.816875 330.05868) scale(0.1 -0.1)">
       <use xlink:href="#DejaVuSans-31"/>
       <use xlink:href="#DejaVuSans-2e" x="63.623047"/>
       <use xlink:href="#DejaVuSans-30" x="95.410156"/>
      </g>
     </g>
    </g>
    <g id="ytick_4">
     <g id="line2d_12">
      <g>
       <use xlink:href="#m63457753fc" x="47.72" y="234.15055" style="stroke: #000000; stroke-width: 0.8"/>
      </g>
     </g>
     <g id="text_13">
      <!-- 1.5 -->
      <g style="fill: #0000ff" transform="translate(24.816875 237.949769) scale(0.1 -0.1)">
       <use xlink:href="#DejaVuSans-31"/>
       <use xlink:href="#DejaVuSans-2e" x="63.623047"/>
       <use xlink:href="#DejaVuSans-35" x="95.410156"/>
      </g>
     </g>
    </g>
    <g id="ytick_5">
     <g id="line2d_13">
      <g>
       <use xlink:href="#m63457753fc" x="47.72" y="142.041639" style="stroke: #000000; stroke-width: 0.8"/>
      </g>
     </g>
     <g id="text_14">
      <!-- 2.0 -->
      <g style="fill: #0000ff" transform="translate(24.816875 145.840857) scale(0.1 -0.1)">
       <use xlink:href="#DejaVuSans-32"/>
       <use xlink:href="#DejaVuSans-2e" x="63.623047"/>
       <use xlink:href="#DejaVuSans-30" x="95.410156"/>
      </g>
     </g>
    </g>
    <g id="ytick_6">
     <g id="line2d_14">
      <g>
       <use xlink:href="#m63457753fc" x="47.72" y="49.932727" style="stroke: #000000; stroke-width: 0.8"/>
      </g>
     </g>
     <g id="text_15">
      <!-- 2.5 -->
      <g style="fill: #0000ff" transform="translate(24.816875 53.731946) scale(0.1 -0.1)">
       <use xlink:href="#DejaVuSans-32"/>
       <use xlink:href="#DejaVuSans-2e" x="63.623047"/>
       <use xlink:href="#DejaVuSans-35" x="95.410156"/>
      </g>
     </g>
    </g>
    <g id="text_16">
     <!-- Normalized Intensity -->
     <g style="fill: #0000ff" transform="translate(18.737187 332.167031) rotate(-90) scale(0.1 -0.1)">
      <defs>
       <path id="DejaVuSans-4e" d="M 628 4666 
L 1478 4666 
L 3547 763 
L 3547 4666 
L 4159 4666 
L 4159 0 
L 3309 0 
L 1241 3903 
L 1241 0 
L 628 0 
L 628 4666 
z
" transform="scale(0.015625)"/>
       <path id="DejaVuSans-72" d="M 2631 2963 
Q 2534 3019 2420 3045 
Q 2306 3072 2169 3072 
Q 1681 3072 1420 2755 
Q 1159 2438 1159 1844 
L 1159 0 
L 581 0 
L 581 3500 
L 1159 3500 
L 1159 2956 
Q 1341 3275 1631 3429 
Q 1922 3584 2338 3584 
Q 2397 3584 2469 3576 
Q 2541 3569 2628 3553 
L 2631 2963 
z
" transform="scale(0.015625)"/>
       <path id="DejaVuSans-61" d="M 2194 1759 
Q 1497 1759 1228 1600 
Q 959 1441 959 1056 
Q 959 750 1161 570 
Q 1363 391 1709 391 
Q 2188 391 2477 730 
Q 2766 1069 2766 1631 
L 2766 1759 
L 2194 1759 
z
M 3341 1997 
L 3341 0 
L 2766 0 
L 2766 531 
Q 2569 213 2275 61 
Q 1981 -91 1556 -91 
Q 1019 -91 701 211 
Q 384 513 384 1019 
Q 384 1609 779 1909 
Q 1175 2209 1959 2209 
L 2766 2209 
L 2766 2266 
Q 2766 2663 2505 2880 
Q 2244 3097 1772 3097 
Q 1472 3097 1187 3025 
Q 903 2953 641 2809 
L 641 3341 
Q 956 3463 1253 3523 
Q 1550 3584 1831 3584 
Q 2591 3584 2966 3190 
Q 3341 2797 3341 1997 
z
" transform="scale(0.015625)"/>
       <path id="DejaVuSans-6c" d="M 603 4863 
L 1178 4863 
L 1178 0 
L 603 0 
L 603 4863 
z
" transform="scale(0.015625)"/>
       <path id="DejaVuSans-7a" d="M 353 3500 
L 3084 3500 
L 3084 2975 
L 922 459 
L 3084 459 
L 3084 0 
L 275 0 
L 275 525 
L 2438 3041 
L 353 3041 
L 353 3500 
z
" transform="scale(0.015625)"/>
       <path id="DejaVuSans-64" d="M 2906 2969 
L 2906 4863 
L 3481 4863 
L 3481 0 
L 2906 0 
L 2906 525 
Q 2725 213 2448 61 
Q 2172 -91 1784 -91 
Q 1150 -91 751 415 
Q 353 922 353 1747 
Q 353 2572 751 3078 
Q 1150 3584 1784 3584 
Q 2172 3584 2448 3432 
Q 2725 3281 2906 2969 
z
M 947 1747 
Q 947 1113 1208 752 
Q 1469 391 1925 391 
Q 2381 391 2643 752 
Q 2906 1113 2906 1747 
Q 2906 2381 2643 2742 
Q 2381 3103 1925 3103 
Q 1469 3103 1208 2742 
Q 947 2381 947 1747 
z
" transform="scale(0.015625)"/>
       <path id="DejaVuSans-49" d="M 628 4666 
L 1259 4666 
L 1259 0 
L 628 0 
L 628 4666 
z
" transform="scale(0.015625)"/>
       <path id="DejaVuSans-73" d="M 2834 3397 
L 2834 2853 
Q 2591 2978 2328 3040 
Q 2066 3103 1784 3103 
Q 1356 3103 1142 2972 
Q 928 2841 928 2578 
Q 928 2378 1081 2264 
Q 1234 2150 1697 2047 
L 1894 2003 
Q 2506 1872 2764 1633 
Q 3022 1394 3022 966 
Q 3022 478 2636 193 
Q 2250 -91 1575 -91 
Q 1294 -91 989 -36 
Q 684 19 347 128 
L 347 722 
Q 666 556 975 473 
Q 1284 391 1588 391 
Q 1994 391 2212 530 
Q 2431 669 2431 922 
Q 2431 1156 2273 1281 
Q 2116 1406 1581 1522 
L 1381 1569 
Q 847 1681 609 1914 
Q 372 2147 372 2553 
Q 372 3047 722 3315 
Q 1072 3584 1716 3584 
Q 2034 3584 2315 3537 
Q 2597 3491 2834 3397 
z
" transform="scale(0.015625)"/>
       <path id="DejaVuSans-79" d="M 2059 -325 
Q 1816 -950 1584 -1140 
Q 1353 -1331 966 -1331 
L 506 -1331 
L 506 -850 
L 844 -850 
Q 1081 -850 1212 -737 
Q 1344 -625 1503 -206 
L 1606 56 
L 191 3500 
L 800 3500 
L 1894 763 
L 2988 3500 
L 3597 3500 
L 2059 -325 
z
" transform="scale(0.015625)"/>
      </defs>
      <use xlink:href="#DejaVuSans-4e"/>
      <use xlink:href="#DejaVuSans-6f" x="74.804688"/>
      <use xlink:href="#DejaVuSans-72" x="135.986328"/>
      <use xlink:href="#DejaVuSans-6d" x="175.349609"/>
      <use xlink:href="#DejaVuSans-61" x="272.761719"/>
      <use xlink:href="#DejaVuSans-6c" x="334.041016"/>
      <use xlink:href="#DejaVuSans-69" x="361.824219"/>
      <use xlink:href="#DejaVuSans-7a" x="389.607422"/>
      <use xlink:href="#DejaVuSans-65" x="442.097656"/>
      <use xlink:href="#DejaVuSans-64" x="503.621094"/>
      <use xlink:href="#DejaVuSans-20" x="567.097656"/>
      <use xlink:href="#DejaVuSans-49" x="598.884766"/>
      <use xlink:href="#DejaVuSans-6e" x="628.376953"/>
      <use xlink:href="#DejaVuSans-74" x="691.755859"/>
      <use xlink:href="#DejaVuSans-65" x="730.964844"/>
      <use xlink:href="#DejaVuSans-6e" x="792.488281"/>
      <use xlink:href="#DejaVuSans-73" x="855.867188"/>
      <use xlink:href="#DejaVuSans-69" x="907.966797"/>
      <use xlink:href="#DejaVuSans-74" x="935.75"/>
      <use xlink:href="#DejaVuSans-79" x="974.958984"/>
     </g>
    </g>
   </g>
   <g id="line2d_15">
    <path d="M 84.332727 510.477284 
L 100.915369 510.378918 
L 107.024763 510.355444 
L 123.607405 510.370013 
L 139.317276 510.285471 
L 141.935588 509.991118 
L 143.681129 509.792697 
L 147.172212 509.690797 
L 149.790523 509.524718 
L 151.536065 509.740299 
L 153.281606 509.987615 
L 157.645459 510.359402 
L 160.263771 510.911261 
L 162.009312 510.964958 
L 164.627624 510.532225 
L 166.373165 510.313966 
L 168.991477 510.282596 
L 177.719183 510.344877 
L 262.377933 510.259258 
L 266.741786 509.949822 
L 277.215033 510.265516 
L 298.161528 510.325628 
L 304.270922 510.304912 
L 311.253087 510.289301 
L 318.235252 510.214811 
L 326.090187 510.304234 
L 336.563435 510.235336 
L 354.891618 510.235207 
L 358.3827 509.805921 
L 359.255471 509.467146 
L 360.128241 508.504946 
L 361.001012 506.675321 
L 361.873783 504.403489 
L 362.746553 502.65163 
L 363.619324 502.158857 
L 364.492094 502.930077 
L 366.237636 505.934074 
L 367.110406 506.856969 
L 367.983177 506.316833 
L 368.855948 503.436093 
L 370.601489 493.307691 
L 371.474259 490.47684 
L 372.34703 491.034773 
L 373.219801 494.237337 
L 374.965342 502.336191 
L 375.838112 505.175679 
L 376.710883 506.95 
L 377.583654 507.939651 
L 378.456424 508.466367 
L 380.201966 508.939001 
L 384.565819 509.485325 
L 385.438589 509.522952 
L 386.31136 509.354548 
L 387.18413 508.886497 
L 388.056901 508.116054 
L 388.929672 506.837259 
L 389.802442 504.27112 
L 390.675213 499.566573 
L 392.420754 487.112692 
L 393.293525 483.990134 
L 394.166295 484.790705 
L 395.039066 488.626638 
L 396.784607 498.314881 
L 397.657378 501.80747 
L 398.530148 504.091172 
L 399.402919 505.481214 
L 400.27569 506.345299 
L 402.021231 507.419124 
L 403.766772 508.10418 
L 407.257855 508.89036 
L 409.876166 509.384626 
L 413.367249 509.667495 
L 415.985561 509.73287 
L 420.349414 509.341311 
L 422.967726 509.640033 
L 425.586037 509.885866 
L 426.458808 509.818238 
L 427.331579 508.493405 
L 428.204349 501.633386 
L 429.07712 481.687146 
L 429.949891 443.896503 
L 431.695432 349.478141 
L 432.568202 326.259462 
L 433.440973 331.231216 
L 434.313744 358.418817 
L 436.059285 429.699799 
L 436.932055 455.879775 
L 437.804826 472.803582 
L 438.677597 482.679445 
L 439.550367 488.405259 
L 440.423138 492.19694 
L 442.168679 497.946153 
L 443.04145 500.326525 
L 443.91422 502.314691 
L 444.786991 503.886883 
L 445.659762 505.074149 
L 446.532532 505.933189 
L 447.405303 506.530743 
L 448.278073 506.933397 
L 449.150844 507.188883 
L 450.896385 507.372661 
L 452.641927 507.494237 
L 454.387468 508.004297 
L 457.00578 508.934076 
L 458.751321 509.247275 
L 459.624091 509.271343 
L 460.496862 509.134692 
L 461.369633 508.746215 
L 462.242403 508.062071 
L 463.987945 506.314246 
L 464.860715 505.770964 
L 465.733486 505.736327 
L 466.606256 506.206275 
L 469.224568 508.55514 
L 470.097339 509.057367 
L 470.970109 509.35836 
L 472.715651 509.598822 
L 480.570586 509.996111 
L 495.407687 510.210278 
L 503.262622 510.112213 
L 505.880934 509.85808 
L 507.626475 509.706644 
L 509.372016 509.824192 
L 512.863099 510.146875 
L 518.972493 510.223958 
L 539.046217 510.196413 
L 541.664529 510.167839 
L 546.901153 510.264225 
L 553.883318 510.140663 
L 557.3744 510.194812 
L 568.720418 510.293365 
L 573.084271 510.020542 
L 580.066436 510.297745 
L 589.666913 510.289367 
L 590.539684 510.143978 
L 591.412454 509.800879 
L 592.285225 509.21762 
L 593.157995 508.416795 
L 594.030766 507.3489 
L 594.903537 505.822428 
L 596.649078 501.70675 
L 597.521849 500.413954 
L 598.394619 500.49489 
L 599.26739 501.855513 
L 601.012931 505.851339 
L 601.885702 507.371115 
L 602.758472 508.340361 
L 603.631243 508.878857 
L 605.376784 509.343328 
L 609.740637 509.975493 
L 613.23172 510.176384 
L 621.959426 510.318586 
L 628.941591 510.236514 
L 632.432673 510.245736 
L 637.669297 510.332405 
L 653.379168 510.297484 
L 661.234103 510.345512 
L 733.674064 510.406098 
L 800.877402 510.392131 
L 816.587273 510.392179 
L 816.587273 510.392179 
" clip-path="url(#p821a01c16a)" style="fill: none; stroke: #0000ff; stroke-width: 1.5; stroke-linecap: square"/>
   </g>
   <g id="line2d_16">
    <path d="M 88.600052 234.123323 
L 88.600052 234.134835 
L 92.228858 234.148737 
L 429.436701 234.130079 
L 429.436701 234.118162 
L 429.937672 233.971835 
L 429.937672 233.777682 
L 430.188506 233.489368 
L 430.188506 232.744345 
L 430.435326 232.277027 
L 430.435326 230.24254 
L 430.679876 228.505548 
L 430.679876 223.964551 
L 430.91727 221.89151 
L 430.91727 214.060236 
L 431.152918 212.079391 
L 431.152918 197.458505 
L 431.387169 197.950832 
L 431.387169 184.18536 
L 431.624912 183.4632 
L 431.624912 161.777962 
L 431.858116 170.741888 
L 431.858116 145.77337 
L 431.858116 150.278435 
L 432.09167 150.791669 
L 432.09167 144.217779 
L 432.324699 140.934016 
L 432.324699 121.225449 
L 432.557904 115.751912 
L 432.557904 107.664561 
L 432.790933 103.342716 
L 432.790933 101.213433 
L 433.023963 101.240666 
L 433.023963 61.738716 
L 433.256993 90.416103 
L 433.256993 58.270681 
L 433.490372 86.249517 
L 433.490372 62.158408 
L 433.723227 97.301097 
L 433.723227 55.022953 
L 433.956257 81.900344 
L 433.956257 49.932727 
L 434.190683 79.867727 
L 434.190683 52.55963 
L 434.423713 87.470606 
L 434.423713 52.156827 
L 434.656742 83.695205 
L 434.656742 50.119685 
L 434.889772 77.820526 
L 434.889772 53.125268 
L 435.126642 91.034703 
L 435.126642 60.394422 
L 435.361767 90.376163 
L 435.361767 68.878302 
L 435.594796 97.730769 
L 435.594796 71.110447 
L 435.828001 108.097605 
L 435.828001 77.435211 
L 436.06103 104.233481 
L 436.06103 85.261967 
L 436.29406 116.349817 
L 436.29406 89.677237 
L 436.52709 122.833637 
L 436.52709 101.385431 
L 436.760294 125.398687 
L 436.760294 107.927331 
L 436.993324 138.110962 
L 436.993324 121.536538 
L 437.226703 143.379626 
L 437.226703 120.285501 
L 437.459907 145.207174 
L 437.459907 130.747458 
L 437.693111 154.271394 
L 437.693111 141.858387 
L 437.926316 165.171064 
L 437.926316 145.884541 
L 438.15952 159.820375 
L 438.15952 148.203663 
L 438.393073 165.50147 
L 438.393073 156.088576 
L 438.630118 174.163643 
L 438.630118 163.322474 
L 438.863671 176.92327 
L 438.863671 167.676316 
L 439.09705 178.671597 
L 439.09705 167.165694 
L 439.330429 180.149414 
L 439.330429 169.252101 
L 439.565204 181.166433 
L 439.565204 175.469763 
L 439.798758 187.94391 
L 439.798758 175.881584 
L 440.032486 187.619692 
L 440.032486 178.462162 
L 440.266563 186.559699 
L 440.266563 178.332341 
L 440.500291 190.6106 
L 440.500291 177.647349 
L 440.734193 187.27706 
L 440.734193 182.481215 
L 440.967747 191.30958 
L 440.967747 182.540666 
L 441.201649 195.344557 
L 441.201649 189.371638 
L 441.435726 195.991304 
L 441.435726 192.107409 
L 441.66928 202.320256 
L 441.66928 192.643776 
L 441.905626 199.609165 
L 441.905626 194.745441 
L 442.143194 200.092891 
L 442.143194 193.656121 
L 442.377271 204.253645 
L 442.377271 199.959773 
L 442.611174 205.974318 
L 442.611174 199.818876 
L 442.845425 207.218858 
L 442.845425 199.775029 
L 443.079677 204.620112 
L 443.079677 200.302577 
L 443.313929 207.722946 
L 443.313929 200.439609 
L 443.548355 207.999946 
L 443.548355 204.239389 
L 443.78313 209.282382 
L 443.78313 204.627126 
L 444.017382 212.562997 
L 444.017382 206.843584 
L 444.251808 210.957929 
L 444.251808 206.773017 
L 444.486234 211.600262 
L 444.486234 206.536015 
L 444.721359 212.922502 
L 444.721359 210.026802 
L 444.956483 213.951881 
L 444.956483 210.600971 
L 445.191433 216.277306 
L 445.191433 211.670166 
L 445.426557 214.893892 
L 445.426557 212.409293 
L 445.665347 216.538977 
L 445.665347 213.405288 
L 445.902043 218.700265 
L 445.902043 215.777105 
L 446.137516 218.376861 
L 446.137516 214.439478 
L 446.373164 218.320633 
L 446.373164 216.277634 
L 446.609161 219.532822 
L 446.609161 216.738998 
L 446.84481 221.106133 
L 446.84481 219.211951 
L 447.080109 220.758747 
L 447.080109 217.745772 
L 447.315931 221.84413 
L 447.315931 220.029785 
L 447.552277 221.974651 
L 447.552277 219.64413 
L 447.788275 223.269215 
L 447.788275 220.976075 
L 448.024446 222.916905 
L 448.024446 220.284295 
L 448.261316 223.738401 
L 448.261316 222.2235 
L 448.497837 224.038884 
L 448.497837 221.708082 
L 448.73558 225.127491 
L 448.73558 223.378572 
L 448.976115 224.92355 
L 448.976115 222.979011 
L 449.217873 225.470199 
L 449.217873 222.993274 
L 449.456139 224.900476 
L 449.456139 223.784661 
L 449.693533 225.923349 
L 449.693533 223.965789 
L 449.932672 226.233574 
L 449.932672 224.232502 
L 450.410776 227.442842 
L 450.410776 225.941626 
L 450.64974 227.909835 
L 450.64974 227.061606 
L 450.888705 227.994796 
L 450.888705 226.679967 
L 451.127495 228.221798 
L 451.127495 226.551878 
L 451.367332 227.685676 
L 451.367332 227.098192 
L 451.605599 228.549528 
L 451.605599 227.152969 
L 451.845262 228.708232 
L 451.845262 227.194036 
L 452.323889 229.555729 
L 452.323889 228.488033 
L 452.565646 229.688278 
L 452.565646 228.257254 
L 452.809848 228.871041 
L 452.809848 227.662688 
L 453.049161 229.135059 
L 453.049161 228.623694 
L 453.288475 229.866634 
L 453.288475 228.962511 
L 453.530931 230.081315 
L 453.530931 228.830345 
L 453.771815 229.559299 
L 453.771815 229.023089 
L 454.01078 230.041936 
L 454.01078 229.307247 
L 454.250617 230.36754 
L 454.250617 229.41462 
L 454.734481 230.978885 
L 454.734481 230.62039 
L 454.974668 231.685706 
L 454.974668 230.934419 
L 455.219916 231.444172 
L 455.219916 230.572823 
L 455.463245 231.006803 
L 455.463245 230.071636 
L 455.707097 230.608758 
L 455.707097 229.767501 
L 455.957757 230.556786 
L 455.957757 229.84143 
L 456.200561 230.733579 
L 456.200561 230.006557 
L 456.448952 230.887684 
L 456.448952 230.067559 
L 456.691059 230.799961 
L 456.691059 230.287909 
L 456.935085 231.161543 
L 456.935085 230.334196 
L 457.177541 231.257434 
L 457.177541 230.948922 
L 457.664896 232.248611 
L 457.664896 231.708151 
L 457.910843 232.228425 
L 457.910843 231.721707 
L 458.156964 232.176016 
L 458.156964 231.585566 
L 458.403434 232.172083 
L 458.403434 231.788373 
L 458.64973 232.316807 
L 458.64973 231.919675 
L 458.895852 232.555297 
L 458.895852 232.096071 
L 459.142671 232.51911 
L 459.142671 232.098168 
L 459.388792 232.51468 
L 459.388792 232.076657 
L 459.637707 232.41681 
L 459.637707 231.966275 
L 459.884177 232.372886 
L 459.884177 231.865474 
L 460.133964 232.252694 
L 460.133964 231.732872 
L 460.38026 232.079824 
L 460.38026 231.45307 
L 460.62673 231.871534 
L 460.62673 231.475199 
L 460.87355 232.081314 
L 460.87355 231.65677 
L 461.120195 232.277089 
L 461.120195 231.90956 
L 461.367363 232.323754 
L 461.367363 231.850724 
L 461.614183 232.381213 
L 461.614183 231.957311 
L 461.861701 232.413096 
L 461.861701 232.124926 
L 462.109218 232.641509 
L 462.109218 232.245211 
L 462.35726 232.727164 
L 462.35726 232.468677 
L 462.606174 232.810475 
L 462.606174 232.481974 
L 462.854041 232.902829 
L 462.854041 232.576249 
L 463.101559 232.88524 
L 463.101559 232.544438 
L 463.348553 232.864386 
L 463.348553 232.515136 
L 463.595198 232.820358 
L 463.595198 232.419498 
L 463.846032 232.751309 
L 463.846032 232.372773 
L 464.093026 232.727354 
L 464.093026 232.385361 
L 464.340369 232.802799 
L 464.340369 232.519134 
L 464.587014 232.922633 
L 464.587014 232.596432 
L 464.83331 232.977371 
L 464.83331 232.67943 
L 465.079082 232.993254 
L 465.079082 232.713639 
L 465.32468 233.055185 
L 465.32468 232.79202 
L 465.570278 233.076874 
L 465.570278 232.755312 
L 465.815701 232.999311 
L 465.815701 232.718879 
L 466.061822 232.986632 
L 466.061822 232.722714 
L 466.306372 233.038801 
L 466.306372 232.761909 
L 466.551272 233.050623 
L 466.551272 232.741973 
L 466.798266 233.007961 
L 466.798266 232.76359 
L 467.042642 233.099281 
L 467.042642 232.830102 
L 467.287017 233.134105 
L 467.287017 232.901979 
L 467.535408 233.163196 
L 467.535408 232.84542 
L 467.779958 233.086352 
L 467.779958 232.884859 
L 468.024683 233.12114 
L 468.024683 232.863691 
L 468.269408 233.19006 
L 468.269408 233.03105 
L 468.759905 233.405872 
L 468.759905 233.242818 
L 469.005328 233.471669 
L 469.005328 233.337328 
L 469.2511 233.473522 
L 469.2511 233.287232 
L 469.497047 233.476211 
L 469.497047 233.323042 
L 469.743518 233.489706 
L 469.743518 233.352913 
L 469.989988 233.547736 
L 469.989988 233.375411 
L 470.236284 233.515436 
L 470.236284 233.343464 
L 470.482754 233.508071 
L 470.482754 233.345538 
L 470.729748 233.498042 
L 470.729748 233.346305 
L 470.976742 233.502223 
L 470.976742 233.281907 
L 471.227577 233.431948 
L 471.227577 233.235971 
L 471.475095 233.374814 
L 471.475095 233.234871 
L 471.970828 233.56219 
L 471.970828 233.491776 
L 472.46726 233.704751 
L 472.46726 233.564456 
L 472.715651 233.663264 
L 472.715651 233.497376 
L 472.963518 233.599141 
L 472.963518 233.446721 
L 473.21121 233.576639 
L 473.21121 233.413894 
L 473.458728 233.562149 
L 473.458728 233.407218 
L 473.706769 233.534722 
L 473.706769 233.376705 
L 473.954636 233.540084 
L 473.954636 233.400822 
L 474.451068 233.653703 
L 474.451068 233.584166 
L 474.704171 233.73295 
L 474.704171 233.592161 
L 474.956227 233.710861 
L 474.956227 233.56624 
L 475.204269 233.645093 
L 475.204269 233.520736 
L 475.701224 233.698534 
L 475.701224 233.626274 
L 476.199227 233.795509 
L 476.199227 233.663268 
L 476.447792 233.735303 
L 476.447792 233.601133 
L 476.696008 233.692435 
L 476.696008 233.563691 
L 476.944399 233.68091 
L 476.944399 233.551508 
L 477.441878 233.693745 
L 477.441878 233.599685 
L 477.940928 233.762072 
L 477.940928 233.671061 
L 478.190017 233.777289 
L 478.190017 233.684023 
L 478.692035 233.750127 
L 478.692035 233.654131 
L 479.191958 233.816661 
L 479.191958 233.734331 
L 479.441221 233.82212 
L 479.441221 233.704514 
L 479.690135 233.767639 
L 479.690135 233.627854 
L 480.188662 233.732756 
L 480.188662 233.666182 
L 480.688759 233.840004 
L 480.688759 233.724399 
L 481.186588 233.755225 
L 481.186588 233.652977 
L 481.688256 233.784451 
L 481.688256 233.703812 
L 481.942058 233.807214 
L 481.942058 233.704577 
L 482.192194 233.785933 
L 482.192194 233.667559 
L 482.941729 233.858914 
L 482.941729 233.765758 
L 483.440256 233.808689 
L 483.440256 233.711695 
L 483.938608 233.790975 
L 483.938608 233.740456 
L 484.438531 233.852135 
L 484.438531 233.790124 
L 484.937407 233.815236 
L 484.937407 233.720791 
L 485.938475 233.87611 
L 485.938475 233.788658 
L 486.437001 233.8291 
L 486.437001 233.744642 
L 486.936575 233.86975 
L 486.936575 233.825114 
L 487.436673 233.888628 
L 487.436673 233.80366 
L 488.435646 233.909682 
L 488.435646 233.836921 
L 488.686131 233.906649 
L 488.686131 233.815118 
L 489.690515 233.90257 
L 489.690515 233.824329 
L 490.194104 233.869181 
L 490.194104 233.790132 
L 490.696296 233.846745 
L 490.696296 233.781475 
L 491.447926 233.914689 
L 491.447926 233.865812 
L 492.198509 233.894329 
L 492.198509 233.844967 
L 492.704018 233.927542 
L 492.704018 233.837574 
L 493.707006 233.951778 
L 493.707006 233.888496 
L 494.459683 233.927339 
L 494.459683 233.880376 
L 494.961526 233.92443 
L 494.961526 233.852102 
L 495.7156 233.943692 
L 495.7156 233.873411 
L 496.472641 233.944642 
L 496.472641 233.869353 
L 497.228984 233.924658 
L 497.228984 233.871185 
L 497.981662 233.935094 
L 497.981662 233.896646 
L 498.483854 233.940794 
L 498.483854 233.88172 
L 499.237404 233.968555 
L 499.237404 233.893847 
L 500.246152 233.936124 
L 500.246152 233.902098 
L 522.277326 233.980496 
L 522.277326 233.93798 
L 523.531498 233.96094 
L 523.531498 233.935618 
L 524.288539 233.990309 
L 524.288539 233.959424 
L 525.041566 233.988664 
L 525.041566 233.93463 
L 525.797036 233.997911 
L 525.797036 233.951906 
L 527.049287 233.980137 
L 527.049287 233.934543 
L 528.056115 233.991913 
L 528.056115 233.944553 
L 529.059278 233.970698 
L 529.059278 233.937324 
L 529.813177 234.010725 
L 529.813177 233.963253 
L 531.067698 233.990853 
L 531.067698 233.957746 
L 531.82439 233.987885 
L 531.82439 233.946989 
L 532.831741 234.000297 
L 532.831741 233.972846 
L 533.585466 233.987637 
L 533.585466 233.95439 
L 534.339365 234.002623 
L 534.339365 233.96256 
L 535.345495 234.001096 
L 535.345495 233.9663 
L 536.098871 234.006809 
L 536.098871 233.964994 
L 537.355486 234.002509 
L 537.355486 233.985288 
L 538.109211 233.996204 
L 538.109211 233.966379 
L 538.866252 234.007344 
L 538.866252 233.968151 
L 540.127406 234.03577 
L 540.127406 233.994461 
L 541.131441 234.027877 
L 541.131441 233.9918 
L 541.886911 234.002065 
L 541.886911 233.976401 
L 542.889026 234.029409 
L 542.889026 233.99641 
L 543.89952 234.014433 
L 543.89952 234.008179 
L 552.187874 234.025476 
L 552.187874 233.996507 
L 553.19348 234.01437 
L 553.19348 233.985863 
L 553.961693 234.053285 
L 553.961693 234.018909 
L 556.955121 234.0348 
L 556.955121 233.991862 
L 558.451574 234.036962 
L 558.451574 234.002344 
L 559.953961 234.019639 
L 559.953961 233.993704 
L 560.707511 234.030691 
L 560.707511 233.994791 
L 561.707008 234.025081 
L 561.707008 233.973694 
L 562.960481 234.008579 
L 562.960481 233.961055 
L 563.711762 234.029132 
L 563.711762 233.978944 
L 564.962617 234.000816 
L 564.962617 233.980103 
L 567.468167 234.018513 
L 568.474995 234.054182 
L 568.474995 234.019358 
L 569.728119 234.050368 
L 569.728119 234.011148 
L 571.486752 234.062115 
L 571.486752 234.0235 
L 572.984077 234.04107 
L 572.984077 234.009882 
L 574.230219 234.050548 
L 574.230219 234.015208 
L 575.97576 234.030557 
L 575.97576 234.013698 
L 576.72739 234.060648 
L 576.72739 234.028201 
L 578.731097 234.05335 
L 586.009655 234.058118 
L 587.012643 234.072282 
L 587.012643 234.05362 
L 588.269782 234.064152 
L 588.269782 234.036219 
L 592.275275 233.957169 
L 592.275275 233.817466 
L 592.523317 233.78553 
L 592.523317 233.54667 
L 592.771707 233.526451 
L 592.771707 233.346614 
L 593.020272 233.418698 
L 593.020272 233.211203 
L 593.269885 233.350329 
L 593.269885 233.028769 
L 593.519148 233.037718 
L 593.519148 232.312585 
L 593.765793 232.324446 
L 593.765793 231.441781 
L 594.01174 231.590673 
L 594.01174 230.686915 
L 594.255766 231.254046 
L 594.255766 230.642003 
L 594.499968 231.311231 
L 594.499968 230.307275 
L 594.745914 231.03962 
L 594.745914 230.357375 
L 594.989592 230.712353 
L 594.989592 229.780597 
L 595.233968 230.258667 
L 595.233968 228.587033 
L 595.478693 227.914024 
L 595.478693 224.83404 
L 595.71853 225.588776 
L 595.71853 224.3818 
L 595.956273 225.525552 
L 595.956273 224.450991 
L 596.19419 226.743191 
L 596.19419 223.929043 
L 596.431758 224.83551 
L 596.431758 222.952028 
L 596.669326 224.231567 
L 596.669326 221.025575 
L 596.907767 223.74045 
L 596.907767 222.744662 
L 597.144637 224.022016 
L 597.144637 219.52648 
L 597.381507 223.346371 
L 597.381507 221.454921 
L 597.617853 220.538322 
L 597.617853 214.666548 
L 597.8542 219.312392 
L 597.8542 215.194525 
L 598.090022 214.254989 
L 598.090022 206.833629 
L 598.328812 212.479141 
L 598.328812 207.344903 
L 598.563937 208.800887 
L 598.563937 202.511681 
L 598.798537 211.769641 
L 598.798537 209.255406 
L 599.032964 211.989325 
L 599.032964 206.744643 
L 599.267215 213.508951 
L 599.267215 206.653147 
L 599.50199 208.410087 
L 599.50199 206.150634 
L 599.736417 210.622382 
L 599.736417 202.772944 
L 599.971716 208.486365 
L 599.971716 204.279129 
L 600.206665 206.903273 
L 600.206665 201.838987 
L 600.44179 211.817401 
L 600.44179 211.070429 
L 600.679358 215.369316 
L 600.679358 212.41025 
L 600.915355 220.502873 
L 600.915355 218.584752 
L 601.151003 218.836528 
L 601.151003 214.139617 
L 601.386651 219.277908 
L 601.386651 217.4688 
L 601.623521 218.206938 
L 601.623521 215.891537 
L 601.865628 222.190448 
L 601.865628 221.093694 
L 602.1018 222.269521 
L 602.1018 220.522694 
L 602.339368 224.196054 
L 602.339368 220.526921 
L 602.815377 224.255932 
L 602.815377 220.821177 
L 603.052596 224.930102 
L 603.052596 224.420335 
L 603.290164 225.571914 
L 603.290164 223.704121 
L 603.529478 227.845285 
L 603.529478 225.247621 
L 603.769141 225.89117 
L 603.769141 225.329167 
L 604.007058 227.319999 
L 604.007058 225.067626 
L 604.246197 227.516094 
L 604.246197 225.90046 
L 604.722555 228.513073 
L 604.722555 226.096828 
L 604.961694 227.872278 
L 604.961694 227.307251 
L 605.20031 228.102294 
L 605.20031 226.693521 
L 605.443464 228.97246 
L 605.443464 227.328534 
L 605.68749 227.445492 
L 605.68749 225.861629 
L 605.934484 227.502925 
L 605.934484 225.583256 
L 606.653997 230.856109 
L 606.653997 229.424043 
L 606.8975 229.858248 
L 606.8975 228.147284 
L 607.142224 228.426025 
L 607.142224 227.15422 
L 607.621201 229.88394 
L 607.621201 229.359983 
L 607.862958 230.826729 
L 607.862958 229.873652 
L 608.107858 230.465253 
L 608.107858 229.572609 
L 608.353456 230.165082 
L 608.353456 228.976296 
L 608.596435 229.667617 
L 608.596435 228.846701 
L 609.084488 231.387963 
L 609.325722 232.536286 
L 609.325722 232.151886 
L 609.567654 232.595616 
L 609.567654 232.216185 
L 609.816917 232.499641 
L 609.816917 232.068758 
L 610.063911 232.488689 
L 610.063911 232.206033 
L 610.309684 232.623721 
L 610.309684 232.366584 
L 610.555979 232.8065 
L 610.555979 232.435502 
L 610.801926 232.814599 
L 610.801926 232.600035 
L 611.046651 232.763047 
L 611.046651 232.321133 
L 611.293296 232.722633 
L 611.293296 232.479584 
L 611.539592 232.707816 
L 611.539592 232.471465 
L 611.786062 232.9411 
L 611.786062 232.704276 
L 612.032184 232.954217 
L 612.032184 232.721974 
L 612.27848 233.106376 
L 612.27848 232.844706 
L 612.525823 233.097224 
L 612.525823 232.84777 
L 612.776133 233.020149 
L 612.776133 232.387739 
L 613.021906 232.525251 
L 613.021906 231.819904 
L 613.267503 232.045107 
L 613.267503 231.660721 
L 613.513974 232.212327 
L 613.513974 231.722095 
L 613.760619 232.360684 
L 613.760619 231.882103 
L 614.006216 232.224279 
L 614.006216 231.896619 
L 614.251814 232.480459 
L 614.251814 232.110242 
L 614.49811 232.608283 
L 614.49811 232.384277 
L 614.743882 232.715687 
L 614.743882 232.415325 
L 615.236823 233.011002 
L 615.236823 232.869747 
L 615.484515 233.249021 
L 615.484515 233.135789 
L 615.98182 233.552665 
L 615.98182 233.456026 
L 616.234923 233.599162 
L 616.234923 233.356045 
L 616.48471 233.452411 
L 616.48471 233.183225 
L 616.731181 233.252922 
L 616.731181 233.098637 
L 617.474083 233.677727 
L 617.474083 233.632213 
L 617.723346 233.787395 
L 617.723346 233.67407 
L 617.973133 233.756427 
L 617.973133 233.615201 
L 618.220127 233.639966 
L 618.220127 233.417894 
L 618.46747 233.494867 
L 618.46747 233.301113 
L 618.714115 233.416783 
L 618.714115 233.246092 
L 619.20758 233.52351 
L 619.20758 233.392989 
L 619.701743 233.64311 
L 619.701743 233.525118 
L 620.202713 233.757294 
L 620.943695 233.716746 
L 620.943695 233.619114 
L 621.189817 233.690044 
L 621.189817 233.547218 
L 621.436112 233.656857 
L 621.436112 233.533757 
L 621.929053 233.665975 
L 621.929053 233.549827 
L 622.675621 233.87062 
L 622.675621 233.84166 
L 623.172228 233.884894 
L 623.172228 233.793555 
L 623.915305 233.817011 
L 623.915305 233.736195 
L 624.41034 233.841015 
L 625.405299 233.867604 
L 625.405299 233.783404 
L 626.146106 233.812715 
L 626.898784 233.923162 
L 626.898784 233.837482 
L 627.146651 233.908806 
L 627.146651 233.809623 
L 627.89252 233.951526 
L 628.141958 234.053571 
L 628.141958 234.028007 
L 628.886432 233.896024 
L 628.886432 233.837014 
L 630.623769 234.026167 
L 630.623769 233.970349 
L 633.360428 233.974668 
L 633.859129 234.080459 
L 633.859129 234.049478 
L 634.602905 233.965682 
L 634.602905 233.913627 
L 635.599085 234.085928 
L 635.599085 234.056034 
L 636.591774 233.941062 
L 637.834425 234.070871 
L 637.834425 234.043399 
L 643.783753 234.012201 
L 644.533114 234.100881 
L 644.533114 234.061334 
L 646.768803 234.04958 
L 646.768803 234.02895 
L 648.261066 234.063341 
L 648.261066 234.031881 
L 652.988341 234.067784 
L 652.988341 234.046512 
L 654.731439 234.069337 
L 654.731439 234.049126 
L 656.716992 234.074649 
L 656.716992 234.055993 
L 666.675828 234.07656 
L 666.675828 234.052154 
L 681.134495 234.099816 
L 681.134495 234.109295 
L 683.883374 234.113528 
L 689.623411 234.099166 
L 689.623411 234.07928 
L 692.376304 234.104231 
L 696.622857 234.105777 
L 696.622857 234.083397 
L 703.598738 234.112388 
L 706.329463 234.1225 
L 706.329463 234.106245 
L 721.185764 234.099802 
L 721.185764 234.083505 
L 726.142752 234.11039 
L 736.579518 234.112305 
L 736.579518 234.088927 
L 739.81226 234.120092 
L 739.81226 234.10391 
L 752.524164 234.114267 
L 752.524164 234.098683 
L 762.009959 234.119703 
L 762.009959 234.11169 
L 775.750336 234.114618 
L 775.750336 234.116137 
L 777.998593 234.123553 
L 777.998593 234.118331 
L 791.751188 234.123441 
L 791.751188 234.115014 
L 797.996735 234.11306 
L 806.746784 234.1252 
L 811.987248 234.115302 
L 811.987248 234.115302 
" clip-path="url(#p821a01c16a)" style="fill: none; stroke: #008000; stroke-width: 1.5; stroke-linecap: square"/>
   </g>
   <g id="patch_3">
    <path d="M 47.72 534.04 
L 47.72 26.88 
" style="fill: none; stroke: #000000; stroke-width: 0.8; stroke-linejoin: miter; stroke-linecap: square"/>
   </g>
   <g id="patch_4">
    <path d="M 853.2 534.04 
L 853.2 26.88 
" style="fill: none; stroke: #000000; stroke-width: 0.8; stroke-linejoin: miter; stroke-linecap: square"/>
   </g>
   <g id="patch_5">
    <path d="M 47.72 534.04 
L 853.2 534.04 
" style="fill: none; stroke: #000000; stroke-width: 0.8; stroke-linejoin: miter; stroke-linecap: square"/>
   </g>
   <g id="patch_6">
    <path d="M 47.72 26.88 
L 853.2 26.88 
" style="fill: none; stroke: #000000; stroke-width: 0.8; stroke-linejoin: miter; stroke-linecap: square"/>
   </g>
   <g id="patch_7">
    <path d="M 482.661982 345.425759 
Q 465.824169 350.680388 448.986356 355.935017 
L 450.17797 359.7534 
Q 443.555959 358.677261 436.933948 357.601122 
Q 441.768537 352.949685 446.603126 348.298249 
L 447.794741 352.116633 
Q 464.632554 346.862004 481.470367 341.607375 
L 482.661982 345.425759 
z
" style="stroke: #000000; stroke-linecap: round"/>
   </g>
   <g id="text_17">
    <!-- Peak: RT=3.35, Area=5.13e+04 -->
    <g style="fill: #ff0000" transform="translate(486.67998 328.799222) scale(0.1 -0.1)">
     <defs>
      <path id="DejaVuSans-50" d="M 1259 4147 
L 1259 2394 
L 2053 2394 
Q 2494 2394 2734 2622 
Q 2975 2850 2975 3272 
Q 2975 3691 2734 3919 
Q 2494 4147 2053 4147 
L 1259 4147 
z
M 628 4666 
L 2053 4666 
Q 2838 4666 3239 4311 
Q 3641 3956 3641 3272 
Q 3641 2581 3239 2228 
Q 2838 1875 2053 1875 
L 1259 1875 
L 1259 0 
L 628 0 
L 628 4666 
z
" transform="scale(0.015625)"/>
      <path id="DejaVuSans-6b" d="M 581 4863 
L 1159 4863 
L 1159 1991 
L 2875 3500 
L 3609 3500 
L 1753 1863 
L 3688 0 
L 2938 0 
L 1159 1709 
L 1159 0 
L 581 0 
L 581 4863 
z
" transform="scale(0.015625)"/>
      <path id="DejaVuSans-3a" d="M 750 794 
L 1409 794 
L 1409 0 
L 750 0 
L 750 794 
z
M 750 3309 
L 1409 3309 
L 1409 2516 
L 750 2516 
L 750 3309 
z
" transform="scale(0.015625)"/>
      <path id="DejaVuSans-3d" d="M 678 2906 
L 4684 2906 
L 4684 2381 
L 678 2381 
L 678 2906 
z
M 678 1631 
L 4684 1631 
L 4684 1100 
L 678 1100 
L 678 1631 
z
" transform="scale(0.015625)"/>
      <path id="DejaVuSans-2c" d="M 750 794 
L 1409 794 
L 1409 256 
L 897 -744 
L 494 -744 
L 750 256 
L 750 794 
z
" transform="scale(0.015625)"/>
      <path id="DejaVuSans-41" d="M 2188 4044 
L 1331 1722 
L 3047 1722 
L 2188 4044 
z
M 1831 4666 
L 2547 4666 
L 4325 0 
L 3669 0 
L 3244 1197 
L 1141 1197 
L 716 0 
L 50 0 
L 1831 4666 
z
" transform="scale(0.015625)"/>
      <path id="DejaVuSans-2b" d="M 2944 4013 
L 2944 2272 
L 4684 2272 
L 4684 1741 
L 2944 1741 
L 2944 0 
L 2419 0 
L 2419 1741 
L 678 1741 
L 678 2272 
L 2419 2272 
L 2419 4013 
L 2944 4013 
z
" transform="scale(0.015625)"/>
     </defs>
     <use xlink:href="#DejaVuSans-50"/>
     <use xlink:href="#DejaVuSans-65" x="56.677734"/>
     <use xlink:href="#DejaVuSans-61" x="118.201172"/>
     <use xlink:href="#DejaVuSans-6b" x="179.480469"/>
     <use xlink:href="#DejaVuSans-3a" x="237.390625"/>
     <use xlink:href="#DejaVuSans-20" x="271.082031"/>
     <use xlink:href="#DejaVuSans-52" x="302.869141"/>
     <use xlink:href="#DejaVuSans-54" x="365.101562"/>
     <use xlink:href="#DejaVuSans-3d" x="426.185547"/>
     <use xlink:href="#DejaVuSans-33" x="509.974609"/>
     <use xlink:href="#DejaVuSans-2e" x="573.597656"/>
     <use xlink:href="#DejaVuSans-33" x="605.384766"/>
     <use xlink:href="#DejaVuSans-35" x="669.007812"/>
     <use xlink:href="#DejaVuSans-2c" x="732.630859"/>
     <use xlink:href="#DejaVuSans-20" x="764.417969"/>
     <use xlink:href="#DejaVuSans-41" x="796.205078"/>
     <use xlink:href="#DejaVuSans-72" x="864.613281"/>
     <use xlink:href="#DejaVuSans-65" x="903.476562"/>
     <use xlink:href="#DejaVuSans-61" x="965"/>
     <use xlink:href="#DejaVuSans-3d" x="1026.279297"/>
     <use xlink:href="#DejaVuSans-35" x="1110.068359"/>
     <use xlink:href="#DejaVuSans-2e" x="1173.691406"/>
     <use xlink:href="#DejaVuSans-31" x="1205.478516"/>
     <use xlink:href="#DejaVuSans-33" x="1269.101562"/>
     <use xlink:href="#DejaVuSans-65" x="1332.724609"/>
     <use xlink:href="#DejaVuSans-2b" x="1394.248047"/>
     <use xlink:href="#DejaVuSans-30" x="1478.037109"/>
     <use xlink:href="#DejaVuSans-34" x="1541.660156"/>
    </g>
    <!-- (67.30% of total) -->
    <g style="fill: #ff0000" transform="translate(486.67998 339.997035) scale(0.1 -0.1)">
     <defs>
      <path id="DejaVuSans-25" d="M 4653 2053 
Q 4381 2053 4226 1822 
Q 4072 1591 4072 1178 
Q 4072 772 4226 539 
Q 4381 306 4653 306 
Q 4919 306 5073 539 
Q 5228 772 5228 1178 
Q 5228 1588 5073 1820 
Q 4919 2053 4653 2053 
z
M 4653 2450 
Q 5147 2450 5437 2106 
Q 5728 1763 5728 1178 
Q 5728 594 5436 251 
Q 5144 -91 4653 -91 
Q 4153 -91 3862 251 
Q 3572 594 3572 1178 
Q 3572 1766 3864 2108 
Q 4156 2450 4653 2450 
z
M 1428 4353 
Q 1159 4353 1004 4120 
Q 850 3888 850 3481 
Q 850 3069 1003 2837 
Q 1156 2606 1428 2606 
Q 1700 2606 1854 2837 
Q 2009 3069 2009 3481 
Q 2009 3884 1853 4118 
Q 1697 4353 1428 4353 
z
M 4250 4750 
L 4750 4750 
L 1831 -91 
L 1331 -91 
L 4250 4750 
z
M 1428 4750 
Q 1922 4750 2215 4408 
Q 2509 4066 2509 3481 
Q 2509 2891 2217 2550 
Q 1925 2209 1428 2209 
Q 931 2209 642 2551 
Q 353 2894 353 3481 
Q 353 4063 643 4406 
Q 934 4750 1428 4750 
z
" transform="scale(0.015625)"/>
      <path id="DejaVuSans-66" d="M 2375 4863 
L 2375 4384 
L 1825 4384 
Q 1516 4384 1395 4259 
Q 1275 4134 1275 3809 
L 1275 3500 
L 2222 3500 
L 2222 3053 
L 1275 3053 
L 1275 0 
L 697 0 
L 697 3053 
L 147 3053 
L 147 3500 
L 697 3500 
L 697 3744 
Q 697 4328 969 4595 
Q 1241 4863 1831 4863 
L 2375 4863 
z
" transform="scale(0.015625)"/>
     </defs>
     <use xlink:href="#DejaVuSans-28"/>
     <use xlink:href="#DejaVuSans-36" x="39.013672"/>
     <use xlink:href="#DejaVuSans-37" x="102.636719"/>
     <use xlink:href="#DejaVuSans-2e" x="166.259766"/>
     <use xlink:href="#DejaVuSans-33" x="198.046875"/>
     <use xlink:href="#DejaVuSans-30" x="261.669922"/>
     <use xlink:href="#DejaVuSans-25" x="325.292969"/>
     <use xlink:href="#DejaVuSans-20" x="420.3125"/>
     <use xlink:href="#DejaVuSans-6f" x="452.099609"/>
     <use xlink:href="#DejaVuSans-66" x="513.28125"/>
     <use xlink:href="#DejaVuSans-20" x="548.486328"/>
     <use xlink:href="#DejaVuSans-74" x="580.273438"/>
     <use xlink:href="#DejaVuSans-6f" x="619.482422"/>
     <use xlink:href="#DejaVuSans-74" x="680.664062"/>
     <use xlink:href="#DejaVuSans-61" x="719.873047"/>
     <use xlink:href="#DejaVuSans-6c" x="781.152344"/>
     <use xlink:href="#DejaVuSans-29" x="808.935547"/>
    </g>
   </g>
   <g id="text_18">
    <!-- UV and MS Chromatograms of Ir_ppy_M21Y2_final, target m/z = 791.24 -->
    <g transform="translate(235.469688 20.88) scale(0.12 -0.12)">
     <defs>
      <path id="DejaVuSans-55" d="M 556 4666 
L 1191 4666 
L 1191 1831 
Q 1191 1081 1462 751 
Q 1734 422 2344 422 
Q 2950 422 3222 751 
Q 3494 1081 3494 1831 
L 3494 4666 
L 4128 4666 
L 4128 1753 
Q 4128 841 3676 375 
Q 3225 -91 2344 -91 
Q 1459 -91 1007 375 
Q 556 841 556 1753 
L 556 4666 
z
" transform="scale(0.015625)"/>
      <path id="DejaVuSans-56" d="M 1831 0 
L 50 4666 
L 709 4666 
L 2188 738 
L 3669 4666 
L 4325 4666 
L 2547 0 
L 1831 0 
z
" transform="scale(0.015625)"/>
      <path id="DejaVuSans-4d" d="M 628 4666 
L 1569 4666 
L 2759 1491 
L 3956 4666 
L 4897 4666 
L 4897 0 
L 4281 0 
L 4281 4097 
L 3078 897 
L 2444 897 
L 1241 4097 
L 1241 0 
L 628 0 
L 628 4666 
z
" transform="scale(0.015625)"/>
      <path id="DejaVuSans-53" d="M 3425 4513 
L 3425 3897 
Q 3066 4069 2747 4153 
Q 2428 4238 2131 4238 
Q 1616 4238 1336 4038 
Q 1056 3838 1056 3469 
Q 1056 3159 1242 3001 
Q 1428 2844 1947 2747 
L 2328 2669 
Q 3034 2534 3370 2195 
Q 3706 1856 3706 1288 
Q 3706 609 3251 259 
Q 2797 -91 1919 -91 
Q 1588 -91 1214 -16 
Q 841 59 441 206 
L 441 856 
Q 825 641 1194 531 
Q 1563 422 1919 422 
Q 2459 422 2753 634 
Q 3047 847 3047 1241 
Q 3047 1584 2836 1778 
Q 2625 1972 2144 2069 
L 1759 2144 
Q 1053 2284 737 2584 
Q 422 2884 422 3419 
Q 422 4038 858 4394 
Q 1294 4750 2059 4750 
Q 2388 4750 2728 4690 
Q 3069 4631 3425 4513 
z
" transform="scale(0.015625)"/>
      <path id="DejaVuSans-43" d="M 4122 4306 
L 4122 3641 
Q 3803 3938 3442 4084 
Q 3081 4231 2675 4231 
Q 1875 4231 1450 3742 
Q 1025 3253 1025 2328 
Q 1025 1406 1450 917 
Q 1875 428 2675 428 
Q 3081 428 3442 575 
Q 3803 722 4122 1019 
L 4122 359 
Q 3791 134 3420 21 
Q 3050 -91 2638 -91 
Q 1578 -91 968 557 
Q 359 1206 359 2328 
Q 359 3453 968 4101 
Q 1578 4750 2638 4750 
Q 3056 4750 3426 4639 
Q 3797 4528 4122 4306 
z
" transform="scale(0.015625)"/>
      <path id="DejaVuSans-68" d="M 3513 2113 
L 3513 0 
L 2938 0 
L 2938 2094 
Q 2938 2591 2744 2837 
Q 2550 3084 2163 3084 
Q 1697 3084 1428 2787 
Q 1159 2491 1159 1978 
L 1159 0 
L 581 0 
L 581 4863 
L 1159 4863 
L 1159 2956 
Q 1366 3272 1645 3428 
Q 1925 3584 2291 3584 
Q 2894 3584 3203 3211 
Q 3513 2838 3513 2113 
z
" transform="scale(0.015625)"/>
      <path id="DejaVuSans-67" d="M 2906 1791 
Q 2906 2416 2648 2759 
Q 2391 3103 1925 3103 
Q 1463 3103 1205 2759 
Q 947 2416 947 1791 
Q 947 1169 1205 825 
Q 1463 481 1925 481 
Q 2391 481 2648 825 
Q 2906 1169 2906 1791 
z
M 3481 434 
Q 3481 -459 3084 -895 
Q 2688 -1331 1869 -1331 
Q 1566 -1331 1297 -1286 
Q 1028 -1241 775 -1147 
L 775 -588 
Q 1028 -725 1275 -790 
Q 1522 -856 1778 -856 
Q 2344 -856 2625 -561 
Q 2906 -266 2906 331 
L 2906 616 
Q 2728 306 2450 153 
Q 2172 0 1784 0 
Q 1141 0 747 490 
Q 353 981 353 1791 
Q 353 2603 747 3093 
Q 1141 3584 1784 3584 
Q 2172 3584 2450 3431 
Q 2728 3278 2906 2969 
L 2906 3500 
L 3481 3500 
L 3481 434 
z
" transform="scale(0.015625)"/>
      <path id="DejaVuSans-5f" d="M 3263 -1063 
L 3263 -1509 
L -63 -1509 
L -63 -1063 
L 3263 -1063 
z
" transform="scale(0.015625)"/>
      <path id="DejaVuSans-70" d="M 1159 525 
L 1159 -1331 
L 581 -1331 
L 581 3500 
L 1159 3500 
L 1159 2969 
Q 1341 3281 1617 3432 
Q 1894 3584 2278 3584 
Q 2916 3584 3314 3078 
Q 3713 2572 3713 1747 
Q 3713 922 3314 415 
Q 2916 -91 2278 -91 
Q 1894 -91 1617 61 
Q 1341 213 1159 525 
z
M 3116 1747 
Q 3116 2381 2855 2742 
Q 2594 3103 2138 3103 
Q 1681 3103 1420 2742 
Q 1159 2381 1159 1747 
Q 1159 1113 1420 752 
Q 1681 391 2138 391 
Q 2594 391 2855 752 
Q 3116 1113 3116 1747 
z
" transform="scale(0.015625)"/>
      <path id="DejaVuSans-59" d="M -13 4666 
L 666 4666 
L 1959 2747 
L 3244 4666 
L 3922 4666 
L 2272 2222 
L 2272 0 
L 1638 0 
L 1638 2222 
L -13 4666 
z
" transform="scale(0.015625)"/>
      <path id="DejaVuSans-2f" d="M 1625 4666 
L 2156 4666 
L 531 -594 
L 0 -594 
L 1625 4666 
z
" transform="scale(0.015625)"/>
      <path id="DejaVuSans-39" d="M 703 97 
L 703 672 
Q 941 559 1184 500 
Q 1428 441 1663 441 
Q 2288 441 2617 861 
Q 2947 1281 2994 2138 
Q 2813 1869 2534 1725 
Q 2256 1581 1919 1581 
Q 1219 1581 811 2004 
Q 403 2428 403 3163 
Q 403 3881 828 4315 
Q 1253 4750 1959 4750 
Q 2769 4750 3195 4129 
Q 3622 3509 3622 2328 
Q 3622 1225 3098 567 
Q 2575 -91 1691 -91 
Q 1453 -91 1209 -44 
Q 966 3 703 97 
z
M 1959 2075 
Q 2384 2075 2632 2365 
Q 2881 2656 2881 3163 
Q 2881 3666 2632 3958 
Q 2384 4250 1959 4250 
Q 1534 4250 1286 3958 
Q 1038 3666 1038 3163 
Q 1038 2656 1286 2365 
Q 1534 2075 1959 2075 
z
" transform="scale(0.015625)"/>
     </defs>
     <use xlink:href="#DejaVuSans-55"/>
     <use xlink:href="#DejaVuSans-56" x="73.193359"/>
     <use xlink:href="#DejaVuSans-20" x="141.601562"/>
     <use xlink:href="#DejaVuSans-61" x="173.388672"/>
     <use xlink:href="#DejaVuSans-6e" x="234.667969"/>
     <use xlink:href="#DejaVuSans-64" x="298.046875"/>
     <use xlink:href="#DejaVuSans-20" x="361.523438"/>
     <use xlink:href="#DejaVuSans-4d" x="393.310547"/>
     <use xlink:href="#DejaVuSans-53" x="479.589844"/>
     <use xlink:href="#DejaVuSans-20" x="543.066406"/>
     <use xlink:href="#DejaVuSans-43" x="574.853516"/>
     <use xlink:href="#DejaVuSans-68" x="644.677734"/>
     <use xlink:href="#DejaVuSans-72" x="708.056641"/>
     <use xlink:href="#DejaVuSans-6f" x="746.919922"/>
     <use xlink:href="#DejaVuSans-6d" x="808.101562"/>
     <use xlink:href="#DejaVuSans-61" x="905.513672"/>
     <use xlink:href="#DejaVuSans-74" x="966.792969"/>
     <use xlink:href="#DejaVuSans-6f" x="1006.001953"/>
     <use xlink:href="#DejaVuSans-67" x="1067.183594"/>
     <use xlink:href="#DejaVuSans-72" x="1130.660156"/>
     <use xlink:href="#DejaVuSans-61" x="1171.773438"/>
     <use xlink:href="#DejaVuSans-6d" x="1233.052734"/>
     <use xlink:href="#DejaVuSans-73" x="1330.464844"/>
     <use xlink:href="#DejaVuSans-20" x="1382.564453"/>
     <use xlink:href="#DejaVuSans-6f" x="1414.351562"/>
     <use xlink:href="#DejaVuSans-66" x="1475.533203"/>
     <use xlink:href="#DejaVuSans-20" x="1510.738281"/>
     <use xlink:href="#DejaVuSans-49" x="1542.525391"/>
     <use xlink:href="#DejaVuSans-72" x="1572.017578"/>
     <use xlink:href="#DejaVuSans-5f" x="1613.130859"/>
     <use xlink:href="#DejaVuSans-70" x="1663.130859"/>
     <use xlink:href="#DejaVuSans-70" x="1726.607422"/>
     <use xlink:href="#DejaVuSans-79" x="1790.083984"/>
     <use xlink:href="#DejaVuSans-5f" x="1849.263672"/>
     <use xlink:href="#DejaVuSans-4d" x="1899.263672"/>
     <use xlink:href="#DejaVuSans-32" x="1985.542969"/>
     <use xlink:href="#DejaVuSans-31" x="2049.166016"/>
     <use xlink:href="#DejaVuSans-59" x="2112.789062"/>
     <use xlink:href="#DejaVuSans-32" x="2173.873047"/>
     <use xlink:href="#DejaVuSans-5f" x="2237.496094"/>
     <use xlink:href="#DejaVuSans-66" x="2287.496094"/>
     <use xlink:href="#DejaVuSans-69" x="2322.701172"/>
     <use xlink:href="#DejaVuSans-6e" x="2350.484375"/>
     <use xlink:href="#DejaVuSans-61" x="2413.863281"/>
     <use xlink:href="#DejaVuSans-6c" x="2475.142578"/>
     <use xlink:href="#DejaVuSans-2c" x="2502.925781"/>
     <use xlink:href="#DejaVuSans-20" x="2534.712891"/>
     <use xlink:href="#DejaVuSans-74" x="2566.5"/>
     <use xlink:href="#DejaVuSans-61" x="2605.708984"/>
     <use xlink:href="#DejaVuSans-72" x="2666.988281"/>
     <use xlink:href="#DejaVuSans-67" x="2706.351562"/>
     <use xlink:href="#DejaVuSans-65" x="2769.828125"/>
     <use xlink:href="#DejaVuSans-74" x="2831.351562"/>
     <use xlink:href="#DejaVuSans-20" x="2870.560547"/>
     <use xlink:href="#DejaVuSans-6d" x="2902.347656"/>
     <use xlink:href="#DejaVuSans-2f" x="2999.759766"/>
     <use xlink:href="#DejaVuSans-7a" x="3033.451172"/>
     <use xlink:href="#DejaVuSans-20" x="3085.941406"/>
     <use xlink:href="#DejaVuSans-3d" x="3117.728516"/>
     <use xlink:href="#DejaVuSans-20" x="3201.517578"/>
     <use xlink:href="#DejaVuSans-37" x="3233.304688"/>
     <use xlink:href="#DejaVuSans-39" x="3296.927734"/>
     <use xlink:href="#DejaVuSans-31" x="3360.550781"/>
     <use xlink:href="#DejaVuSans-2e" x="3424.173828"/>
     <use xlink:href="#DejaVuSans-32" x="3455.960938"/>
     <use xlink:href="#DejaVuSans-34" x="3519.583984"/>
    </g>
   </g>
   <g id="legend_1">
    <g id="patch_8">
     <path d="M 685.971875 64.23625 
L 846.2 64.23625 
Q 848.2 64.23625 848.2 62.23625 
L 848.2 33.88 
Q 848.2 31.88 846.2 31.88 
L 685.971875 31.88 
Q 683.971875 31.88 683.971875 33.88 
L 683.971875 62.23625 
Q 683.971875 64.23625 685.971875 64.23625 
z
" style="fill: #ffffff; opacity: 0.8; stroke: #cccccc; stroke-linejoin: miter"/>
    </g>
    <g id="line2d_17">
     <path d="M 687.971875 39.978437 
L 697.971875 39.978437 
L 707.971875 39.978437 
" style="fill: none; stroke: #0000ff; stroke-width: 1.5; stroke-linecap: square"/>
    </g>
    <g id="text_19">
     <!-- UV Intensity (normalized) -->
     <g transform="translate(715.971875 43.478437) scale(0.1 -0.1)">
      <use xlink:href="#DejaVuSans-55"/>
      <use xlink:href="#DejaVuSans-56" x="73.193359"/>
      <use xlink:href="#DejaVuSans-20" x="141.601562"/>
      <use xlink:href="#DejaVuSans-49" x="173.388672"/>
      <use xlink:href="#DejaVuSans-6e" x="202.880859"/>
      <use xlink:href="#DejaVuSans-74" x="266.259766"/>
      <use xlink:href="#DejaVuSans-65" x="305.46875"/>
      <use xlink:href="#DejaVuSans-6e" x="366.992188"/>
      <use xlink:href="#DejaVuSans-73" x="430.371094"/>
      <use xlink:href="#DejaVuSans-69" x="482.470703"/>
      <use xlink:href="#DejaVuSans-74" x="510.253906"/>
      <use xlink:href="#DejaVuSans-79" x="549.462891"/>
      <use xlink:href="#DejaVuSans-20" x="608.642578"/>
      <use xlink:href="#DejaVuSans-28" x="640.429688"/>
      <use xlink:href="#DejaVuSans-6e" x="679.443359"/>
      <use xlink:href="#DejaVuSans-6f" x="742.822266"/>
      <use xlink:href="#DejaVuSans-72" x="804.003906"/>
      <use xlink:href="#DejaVuSans-6d" x="843.367188"/>
      <use xlink:href="#DejaVuSans-61" x="940.779297"/>
      <use xlink:href="#DejaVuSans-6c" x="1002.058594"/>
      <use xlink:href="#DejaVuSans-69" x="1029.841797"/>
      <use xlink:href="#DejaVuSans-7a" x="1057.625"/>
      <use xlink:href="#DejaVuSans-65" x="1110.115234"/>
      <use xlink:href="#DejaVuSans-64" x="1171.638672"/>
      <use xlink:href="#DejaVuSans-29" x="1235.115234"/>
     </g>
    </g>
    <g id="line2d_18">
     <path d="M 687.971875 54.656562 
L 697.971875 54.656562 
L 707.971875 54.656562 
" style="fill: none; stroke: #008000; stroke-width: 1.5; stroke-linecap: square"/>
    </g>
    <g id="text_20">
     <!-- MS Intensity (normalized) -->
     <g transform="translate(715.971875 58.156562) scale(0.1 -0.1)">
      <use xlink:href="#DejaVuSans-4d"/>
      <use xlink:href="#DejaVuSans-53" x="86.279297"/>
      <use xlink:href="#DejaVuSans-20" x="149.755859"/>
      <use xlink:href="#DejaVuSans-49" x="181.542969"/>
      <use xlink:href="#DejaVuSans-6e" x="211.035156"/>
      <use xlink:href="#DejaVuSans-74" x="274.414062"/>
      <use xlink:href="#DejaVuSans-65" x="313.623047"/>
      <use xlink:href="#DejaVuSans-6e" x="375.146484"/>
      <use xlink:href="#DejaVuSans-73" x="438.525391"/>
      <use xlink:href="#DejaVuSans-69" x="490.625"/>
      <use xlink:href="#DejaVuSans-74" x="518.408203"/>
      <use xlink:href="#DejaVuSans-79" x="557.617188"/>
      <use xlink:href="#DejaVuSans-20" x="616.796875"/>
      <use xlink:href="#DejaVuSans-28" x="648.583984"/>
      <use xlink:href="#DejaVuSans-6e" x="687.597656"/>
      <use xlink:href="#DejaVuSans-6f" x="750.976562"/>
      <use xlink:href="#DejaVuSans-72" x="812.158203"/>
      <use xlink:href="#DejaVuSans-6d" x="851.521484"/>
      <use xlink:href="#DejaVuSans-61" x="948.933594"/>
      <use xlink:href="#DejaVuSans-6c" x="1010.212891"/>
      <use xlink:href="#DejaVuSans-69" x="1037.996094"/>
      <use xlink:href="#DejaVuSans-7a" x="1065.779297"/>
      <use xlink:href="#DejaVuSans-65" x="1118.269531"/>
      <use xlink:href="#DejaVuSans-64" x="1179.792969"/>
      <use xlink:href="#DejaVuSans-29" x="1243.269531"/>
     </g>
    </g>
   </g>
  </g>
 </g>
 <defs>
  <clipPath id="p821a01c16a">
   <rect x="47.72" y="26.88" width="805.48" height="507.16"/>
  </clipPath>
 </defs>
</svg>
