<?xml version="1.0" encoding="utf-8" standalone="no"?>
<!DOCTYPE svg PUBLIC "-//W3C//DTD SVG 1.1//EN"
  "http://www.w3.org/Graphics/SVG/1.1/DTD/svg11.dtd">
<svg xmlns:xlink="http://www.w3.org/1999/xlink" width="864pt" height="576pt" viewBox="0 0 864 576" xmlns="http://www.w3.org/2000/svg" version="1.1">
 <metadata>
  <rdf:RDF xmlns:dc="http://purl.org/dc/elements/1.1/" xmlns:cc="http://creativecommons.org/ns#" xmlns:rdf="http://www.w3.org/1999/02/22-rdf-syntax-ns#">
   <cc:Work>
    <dc:type rdf:resource="http://purl.org/dc/dcmitype/StillImage"/>
    <dc:date>2024-12-06T16:27:16.216501</dc:date>
    <dc:format>image/svg+xml</dc:format>
    <dc:creator>
     <cc:Agent>
      <dc:title>Matplotlib v3.9.0, https://matplotlib.org/</dc:title>
     </cc:Agent>
    </dc:creator>
   </cc:Work>
  </rdf:RDF>
 </metadata>
 <defs>
  <style type="text/css">*{stroke-linejoin: round; stroke-linecap: butt}</style>
 </defs>
 <g id="figure_1">
  <g id="patch_1">
   <path d="M 0 576 
L 864 576 
L 864 0 
L 0 0 
z
" style="fill: #ffffff"/>
  </g>
  <g id="axes_1">
   <g id="patch_2">
    <path d="M 47.72 534.04 
L 853.2 534.04 
L 853.2 26.88 
L 47.72 26.88 
z
" style="fill: #ffffff"/>
   </g>
   <g id="matplotlib.axis_1">
    <g id="xtick_1">
     <g id="line2d_1">
      <defs>
       <path id="md8de2d8ab1" d="M 0 0 
L 0 3.5 
" style="stroke: #000000; stroke-width: 0.8"/>
      </defs>
      <g>
       <use xlink:href="#md8de2d8ab1" x="83.449483" y="534.04" style="stroke: #000000; stroke-width: 0.8"/>
      </g>
     </g>
     <g id="text_1">
      <!-- 0 -->
      <g transform="translate(80.268233 548.638438) scale(0.1 -0.1)">
       <defs>
        <path id="DejaVuSans-30" d="M 2034 4250 
Q 1547 4250 1301 3770 
Q 1056 3291 1056 2328 
Q 1056 1369 1301 889 
Q 1547 409 2034 409 
Q 2525 409 2770 889 
Q 3016 1369 3016 2328 
Q 3016 3291 2770 3770 
Q 2525 4250 2034 4250 
z
M 2034 4750 
Q 2819 4750 3233 4129 
Q 3647 3509 3647 2328 
Q 3647 1150 3233 529 
Q 2819 -91 2034 -91 
Q 1250 -91 836 529 
Q 422 1150 422 2328 
Q 422 3509 836 4129 
Q 1250 4750 2034 4750 
z
" transform="scale(0.015625)"/>
       </defs>
       <use xlink:href="#DejaVuSans-30"/>
      </g>
     </g>
    </g>
    <g id="xtick_2">
     <g id="line2d_2">
      <g>
       <use xlink:href="#md8de2d8ab1" x="188.181957" y="534.04" style="stroke: #000000; stroke-width: 0.8"/>
      </g>
     </g>
     <g id="text_2">
      <!-- 1 -->
      <g transform="translate(185.000707 548.638438) scale(0.1 -0.1)">
       <defs>
        <path id="DejaVuSans-31" d="M 794 531 
L 1825 531 
L 1825 4091 
L 703 3866 
L 703 4441 
L 1819 4666 
L 2450 4666 
L 2450 531 
L 3481 531 
L 3481 0 
L 794 0 
L 794 531 
z
" transform="scale(0.015625)"/>
       </defs>
       <use xlink:href="#DejaVuSans-31"/>
      </g>
     </g>
    </g>
    <g id="xtick_3">
     <g id="line2d_3">
      <g>
       <use xlink:href="#md8de2d8ab1" x="292.914431" y="534.04" style="stroke: #000000; stroke-width: 0.8"/>
      </g>
     </g>
     <g id="text_3">
      <!-- 2 -->
      <g transform="translate(289.733181 548.638438) scale(0.1 -0.1)">
       <defs>
        <path id="DejaVuSans-32" d="M 1228 531 
L 3431 531 
L 3431 0 
L 469 0 
L 469 531 
Q 828 903 1448 1529 
Q 2069 2156 2228 2338 
Q 2531 2678 2651 2914 
Q 2772 3150 2772 3378 
Q 2772 3750 2511 3984 
Q 2250 4219 1831 4219 
Q 1534 4219 1204 4116 
Q 875 4013 500 3803 
L 500 4441 
Q 881 4594 1212 4672 
Q 1544 4750 1819 4750 
Q 2544 4750 2975 4387 
Q 3406 4025 3406 3419 
Q 3406 3131 3298 2873 
Q 3191 2616 2906 2266 
Q 2828 2175 2409 1742 
Q 1991 1309 1228 531 
z
" transform="scale(0.015625)"/>
       </defs>
       <use xlink:href="#DejaVuSans-32"/>
      </g>
     </g>
    </g>
    <g id="xtick_4">
     <g id="line2d_4">
      <g>
       <use xlink:href="#md8de2d8ab1" x="397.646905" y="534.04" style="stroke: #000000; stroke-width: 0.8"/>
      </g>
     </g>
     <g id="text_4">
      <!-- 3 -->
      <g transform="translate(394.465655 548.638438) scale(0.1 -0.1)">
       <defs>
        <path id="DejaVuSans-33" d="M 2597 2516 
Q 3050 2419 3304 2112 
Q 3559 1806 3559 1356 
Q 3559 666 3084 287 
Q 2609 -91 1734 -91 
Q 1441 -91 1130 -33 
Q 819 25 488 141 
L 488 750 
Q 750 597 1062 519 
Q 1375 441 1716 441 
Q 2309 441 2620 675 
Q 2931 909 2931 1356 
Q 2931 1769 2642 2001 
Q 2353 2234 1838 2234 
L 1294 2234 
L 1294 2753 
L 1863 2753 
Q 2328 2753 2575 2939 
Q 2822 3125 2822 3475 
Q 2822 3834 2567 4026 
Q 2313 4219 1838 4219 
Q 1578 4219 1281 4162 
Q 984 4106 628 3988 
L 628 4550 
Q 988 4650 1302 4700 
Q 1616 4750 1894 4750 
Q 2613 4750 3031 4423 
Q 3450 4097 3450 3541 
Q 3450 3153 3228 2886 
Q 3006 2619 2597 2516 
z
" transform="scale(0.015625)"/>
       </defs>
       <use xlink:href="#DejaVuSans-33"/>
      </g>
     </g>
    </g>
    <g id="xtick_5">
     <g id="line2d_5">
      <g>
       <use xlink:href="#md8de2d8ab1" x="502.379378" y="534.04" style="stroke: #000000; stroke-width: 0.8"/>
      </g>
     </g>
     <g id="text_5">
      <!-- 4 -->
      <g transform="translate(499.198128 548.638438) scale(0.1 -0.1)">
       <defs>
        <path id="DejaVuSans-34" d="M 2419 4116 
L 825 1625 
L 2419 1625 
L 2419 4116 
z
M 2253 4666 
L 3047 4666 
L 3047 1625 
L 3713 1625 
L 3713 1100 
L 3047 1100 
L 3047 0 
L 2419 0 
L 2419 1100 
L 313 1100 
L 313 1709 
L 2253 4666 
z
" transform="scale(0.015625)"/>
       </defs>
       <use xlink:href="#DejaVuSans-34"/>
      </g>
     </g>
    </g>
    <g id="xtick_6">
     <g id="line2d_6">
      <g>
       <use xlink:href="#md8de2d8ab1" x="607.111852" y="534.04" style="stroke: #000000; stroke-width: 0.8"/>
      </g>
     </g>
     <g id="text_6">
      <!-- 5 -->
      <g transform="translate(603.930602 548.638438) scale(0.1 -0.1)">
       <defs>
        <path id="DejaVuSans-35" d="M 691 4666 
L 3169 4666 
L 3169 4134 
L 1269 4134 
L 1269 2991 
Q 1406 3038 1543 3061 
Q 1681 3084 1819 3084 
Q 2600 3084 3056 2656 
Q 3513 2228 3513 1497 
Q 3513 744 3044 326 
Q 2575 -91 1722 -91 
Q 1428 -91 1123 -41 
Q 819 9 494 109 
L 494 744 
Q 775 591 1075 516 
Q 1375 441 1709 441 
Q 2250 441 2565 725 
Q 2881 1009 2881 1497 
Q 2881 1984 2565 2268 
Q 2250 2553 1709 2553 
Q 1456 2553 1204 2497 
Q 953 2441 691 2322 
L 691 4666 
z
" transform="scale(0.015625)"/>
       </defs>
       <use xlink:href="#DejaVuSans-35"/>
      </g>
     </g>
    </g>
    <g id="xtick_7">
     <g id="line2d_7">
      <g>
       <use xlink:href="#md8de2d8ab1" x="711.844326" y="534.04" style="stroke: #000000; stroke-width: 0.8"/>
      </g>
     </g>
     <g id="text_7">
      <!-- 6 -->
      <g transform="translate(708.663076 548.638438) scale(0.1 -0.1)">
       <defs>
        <path id="DejaVuSans-36" d="M 2113 2584 
Q 1688 2584 1439 2293 
Q 1191 2003 1191 1497 
Q 1191 994 1439 701 
Q 1688 409 2113 409 
Q 2538 409 2786 701 
Q 3034 994 3034 1497 
Q 3034 2003 2786 2293 
Q 2538 2584 2113 2584 
z
M 3366 4563 
L 3366 3988 
Q 3128 4100 2886 4159 
Q 2644 4219 2406 4219 
Q 1781 4219 1451 3797 
Q 1122 3375 1075 2522 
Q 1259 2794 1537 2939 
Q 1816 3084 2150 3084 
Q 2853 3084 3261 2657 
Q 3669 2231 3669 1497 
Q 3669 778 3244 343 
Q 2819 -91 2113 -91 
Q 1303 -91 875 529 
Q 447 1150 447 2328 
Q 447 3434 972 4092 
Q 1497 4750 2381 4750 
Q 2619 4750 2861 4703 
Q 3103 4656 3366 4563 
z
" transform="scale(0.015625)"/>
       </defs>
       <use xlink:href="#DejaVuSans-36"/>
      </g>
     </g>
    </g>
    <g id="xtick_8">
     <g id="line2d_8">
      <g>
       <use xlink:href="#md8de2d8ab1" x="816.576799" y="534.04" style="stroke: #000000; stroke-width: 0.8"/>
      </g>
     </g>
     <g id="text_8">
      <!-- 7 -->
      <g transform="translate(813.395549 548.638438) scale(0.1 -0.1)">
       <defs>
        <path id="DejaVuSans-37" d="M 525 4666 
L 3525 4666 
L 3525 4397 
L 1831 0 
L 1172 0 
L 2766 4134 
L 525 4134 
L 525 4666 
z
" transform="scale(0.015625)"/>
       </defs>
       <use xlink:href="#DejaVuSans-37"/>
      </g>
     </g>
    </g>
    <g id="text_9">
     <!-- Retention Time (min) -->
     <g transform="translate(397.61 562.316562) scale(0.1 -0.1)">
      <defs>
       <path id="DejaVuSans-52" d="M 2841 2188 
Q 3044 2119 3236 1894 
Q 3428 1669 3622 1275 
L 4263 0 
L 3584 0 
L 2988 1197 
Q 2756 1666 2539 1819 
Q 2322 1972 1947 1972 
L 1259 1972 
L 1259 0 
L 628 0 
L 628 4666 
L 2053 4666 
Q 2853 4666 3247 4331 
Q 3641 3997 3641 3322 
Q 3641 2881 3436 2590 
Q 3231 2300 2841 2188 
z
M 1259 4147 
L 1259 2491 
L 2053 2491 
Q 2509 2491 2742 2702 
Q 2975 2913 2975 3322 
Q 2975 3731 2742 3939 
Q 2509 4147 2053 4147 
L 1259 4147 
z
" transform="scale(0.015625)"/>
       <path id="DejaVuSans-65" d="M 3597 1894 
L 3597 1613 
L 953 1613 
Q 991 1019 1311 708 
Q 1631 397 2203 397 
Q 2534 397 2845 478 
Q 3156 559 3463 722 
L 3463 178 
Q 3153 47 2828 -22 
Q 2503 -91 2169 -91 
Q 1331 -91 842 396 
Q 353 884 353 1716 
Q 353 2575 817 3079 
Q 1281 3584 2069 3584 
Q 2775 3584 3186 3129 
Q 3597 2675 3597 1894 
z
M 3022 2063 
Q 3016 2534 2758 2815 
Q 2500 3097 2075 3097 
Q 1594 3097 1305 2825 
Q 1016 2553 972 2059 
L 3022 2063 
z
" transform="scale(0.015625)"/>
       <path id="DejaVuSans-74" d="M 1172 4494 
L 1172 3500 
L 2356 3500 
L 2356 3053 
L 1172 3053 
L 1172 1153 
Q 1172 725 1289 603 
Q 1406 481 1766 481 
L 2356 481 
L 2356 0 
L 1766 0 
Q 1100 0 847 248 
Q 594 497 594 1153 
L 594 3053 
L 172 3053 
L 172 3500 
L 594 3500 
L 594 4494 
L 1172 4494 
z
" transform="scale(0.015625)"/>
       <path id="DejaVuSans-6e" d="M 3513 2113 
L 3513 0 
L 2938 0 
L 2938 2094 
Q 2938 2591 2744 2837 
Q 2550 3084 2163 3084 
Q 1697 3084 1428 2787 
Q 1159 2491 1159 1978 
L 1159 0 
L 581 0 
L 581 3500 
L 1159 3500 
L 1159 2956 
Q 1366 3272 1645 3428 
Q 1925 3584 2291 3584 
Q 2894 3584 3203 3211 
Q 3513 2838 3513 2113 
z
" transform="scale(0.015625)"/>
       <path id="DejaVuSans-69" d="M 603 3500 
L 1178 3500 
L 1178 0 
L 603 0 
L 603 3500 
z
M 603 4863 
L 1178 4863 
L 1178 4134 
L 603 4134 
L 603 4863 
z
" transform="scale(0.015625)"/>
       <path id="DejaVuSans-6f" d="M 1959 3097 
Q 1497 3097 1228 2736 
Q 959 2375 959 1747 
Q 959 1119 1226 758 
Q 1494 397 1959 397 
Q 2419 397 2687 759 
Q 2956 1122 2956 1747 
Q 2956 2369 2687 2733 
Q 2419 3097 1959 3097 
z
M 1959 3584 
Q 2709 3584 3137 3096 
Q 3566 2609 3566 1747 
Q 3566 888 3137 398 
Q 2709 -91 1959 -91 
Q 1206 -91 779 398 
Q 353 888 353 1747 
Q 353 2609 779 3096 
Q 1206 3584 1959 3584 
z
" transform="scale(0.015625)"/>
       <path id="DejaVuSans-20" transform="scale(0.015625)"/>
       <path id="DejaVuSans-54" d="M -19 4666 
L 3928 4666 
L 3928 4134 
L 2272 4134 
L 2272 0 
L 1638 0 
L 1638 4134 
L -19 4134 
L -19 4666 
z
" transform="scale(0.015625)"/>
       <path id="DejaVuSans-6d" d="M 3328 2828 
Q 3544 3216 3844 3400 
Q 4144 3584 4550 3584 
Q 5097 3584 5394 3201 
Q 5691 2819 5691 2113 
L 5691 0 
L 5113 0 
L 5113 2094 
Q 5113 2597 4934 2840 
Q 4756 3084 4391 3084 
Q 3944 3084 3684 2787 
Q 3425 2491 3425 1978 
L 3425 0 
L 2847 0 
L 2847 2094 
Q 2847 2600 2669 2842 
Q 2491 3084 2119 3084 
Q 1678 3084 1418 2786 
Q 1159 2488 1159 1978 
L 1159 0 
L 581 0 
L 581 3500 
L 1159 3500 
L 1159 2956 
Q 1356 3278 1631 3431 
Q 1906 3584 2284 3584 
Q 2666 3584 2933 3390 
Q 3200 3197 3328 2828 
z
" transform="scale(0.015625)"/>
       <path id="DejaVuSans-28" d="M 1984 4856 
Q 1566 4138 1362 3434 
Q 1159 2731 1159 2009 
Q 1159 1288 1364 580 
Q 1569 -128 1984 -844 
L 1484 -844 
Q 1016 -109 783 600 
Q 550 1309 550 2009 
Q 550 2706 781 3412 
Q 1013 4119 1484 4856 
L 1984 4856 
z
" transform="scale(0.015625)"/>
       <path id="DejaVuSans-29" d="M 513 4856 
L 1013 4856 
Q 1481 4119 1714 3412 
Q 1947 2706 1947 2009 
Q 1947 1309 1714 600 
Q 1481 -109 1013 -844 
L 513 -844 
Q 928 -128 1133 580 
Q 1338 1288 1338 2009 
Q 1338 2731 1133 3434 
Q 928 4138 513 4856 
z
" transform="scale(0.015625)"/>
      </defs>
      <use xlink:href="#DejaVuSans-52"/>
      <use xlink:href="#DejaVuSans-65" x="64.982422"/>
      <use xlink:href="#DejaVuSans-74" x="126.505859"/>
      <use xlink:href="#DejaVuSans-65" x="165.714844"/>
      <use xlink:href="#DejaVuSans-6e" x="227.238281"/>
      <use xlink:href="#DejaVuSans-74" x="290.617188"/>
      <use xlink:href="#DejaVuSans-69" x="329.826172"/>
      <use xlink:href="#DejaVuSans-6f" x="357.609375"/>
      <use xlink:href="#DejaVuSans-6e" x="418.791016"/>
      <use xlink:href="#DejaVuSans-20" x="482.169922"/>
      <use xlink:href="#DejaVuSans-54" x="513.957031"/>
      <use xlink:href="#DejaVuSans-69" x="571.916016"/>
      <use xlink:href="#DejaVuSans-6d" x="599.699219"/>
      <use xlink:href="#DejaVuSans-65" x="697.111328"/>
      <use xlink:href="#DejaVuSans-20" x="758.634766"/>
      <use xlink:href="#DejaVuSans-28" x="790.421875"/>
      <use xlink:href="#DejaVuSans-6d" x="829.435547"/>
      <use xlink:href="#DejaVuSans-69" x="926.847656"/>
      <use xlink:href="#DejaVuSans-6e" x="954.630859"/>
      <use xlink:href="#DejaVuSans-29" x="1018.009766"/>
     </g>
    </g>
   </g>
   <g id="matplotlib.axis_2">
    <g id="ytick_1">
     <g id="line2d_9">
      <defs>
       <path id="mb06d9c8d5b" d="M 0 0 
L -3.5 0 
" style="stroke: #000000; stroke-width: 0.8"/>
      </defs>
      <g>
       <use xlink:href="#mb06d9c8d5b" x="47.72" y="510.678115" style="stroke: #000000; stroke-width: 0.8"/>
      </g>
     </g>
     <g id="text_10">
      <!-- 0.0 -->
      <g style="fill: #0000ff" transform="translate(24.816875 514.477333) scale(0.1 -0.1)">
       <defs>
        <path id="DejaVuSans-2e" d="M 684 794 
L 1344 794 
L 1344 0 
L 684 0 
L 684 794 
z
" transform="scale(0.015625)"/>
       </defs>
       <use xlink:href="#DejaVuSans-30"/>
       <use xlink:href="#DejaVuSans-2e" x="63.623047"/>
       <use xlink:href="#DejaVuSans-30" x="95.410156"/>
      </g>
     </g>
    </g>
    <g id="ytick_2">
     <g id="line2d_10">
      <g>
       <use xlink:href="#mb06d9c8d5b" x="47.72" y="418.529037" style="stroke: #000000; stroke-width: 0.8"/>
      </g>
     </g>
     <g id="text_11">
      <!-- 0.5 -->
      <g style="fill: #0000ff" transform="translate(24.816875 422.328256) scale(0.1 -0.1)">
       <use xlink:href="#DejaVuSans-30"/>
       <use xlink:href="#DejaVuSans-2e" x="63.623047"/>
       <use xlink:href="#DejaVuSans-35" x="95.410156"/>
      </g>
     </g>
    </g>
    <g id="ytick_3">
     <g id="line2d_11">
      <g>
       <use xlink:href="#mb06d9c8d5b" x="47.72" y="326.37996" style="stroke: #000000; stroke-width: 0.8"/>
      </g>
     </g>
     <g id="text_12">
      <!-- 1.0 -->
      <g style="fill: #0000ff" transform="translate(24.816875 330.179178) scale(0.1 -0.1)">
       <use xlink:href="#DejaVuSans-31"/>
       <use xlink:href="#DejaVuSans-2e" x="63.623047"/>
       <use xlink:href="#DejaVuSans-30" x="95.410156"/>
      </g>
     </g>
    </g>
    <g id="ytick_4">
     <g id="line2d_12">
      <g>
       <use xlink:href="#mb06d9c8d5b" x="47.72" y="234.230882" style="stroke: #000000; stroke-width: 0.8"/>
      </g>
     </g>
     <g id="text_13">
      <!-- 1.5 -->
      <g style="fill: #0000ff" transform="translate(24.816875 238.030101) scale(0.1 -0.1)">
       <use xlink:href="#DejaVuSans-31"/>
       <use xlink:href="#DejaVuSans-2e" x="63.623047"/>
       <use xlink:href="#DejaVuSans-35" x="95.410156"/>
      </g>
     </g>
    </g>
    <g id="ytick_5">
     <g id="line2d_13">
      <g>
       <use xlink:href="#mb06d9c8d5b" x="47.72" y="142.081805" style="stroke: #000000; stroke-width: 0.8"/>
      </g>
     </g>
     <g id="text_14">
      <!-- 2.0 -->
      <g style="fill: #0000ff" transform="translate(24.816875 145.881023) scale(0.1 -0.1)">
       <use xlink:href="#DejaVuSans-32"/>
       <use xlink:href="#DejaVuSans-2e" x="63.623047"/>
       <use xlink:href="#DejaVuSans-30" x="95.410156"/>
      </g>
     </g>
    </g>
    <g id="ytick_6">
     <g id="line2d_14">
      <g>
       <use xlink:href="#mb06d9c8d5b" x="47.72" y="49.932727" style="stroke: #000000; stroke-width: 0.8"/>
      </g>
     </g>
     <g id="text_15">
      <!-- 2.5 -->
      <g style="fill: #0000ff" transform="translate(24.816875 53.731946) scale(0.1 -0.1)">
       <use xlink:href="#DejaVuSans-32"/>
       <use xlink:href="#DejaVuSans-2e" x="63.623047"/>
       <use xlink:href="#DejaVuSans-35" x="95.410156"/>
      </g>
     </g>
    </g>
    <g id="text_16">
     <!-- Normalized Intensity -->
     <g style="fill: #0000ff" transform="translate(18.737187 332.167031) rotate(-90) scale(0.1 -0.1)">
      <defs>
       <path id="DejaVuSans-4e" d="M 628 4666 
L 1478 4666 
L 3547 763 
L 3547 4666 
L 4159 4666 
L 4159 0 
L 3309 0 
L 1241 3903 
L 1241 0 
L 628 0 
L 628 4666 
z
" transform="scale(0.015625)"/>
       <path id="DejaVuSans-72" d="M 2631 2963 
Q 2534 3019 2420 3045 
Q 2306 3072 2169 3072 
Q 1681 3072 1420 2755 
Q 1159 2438 1159 1844 
L 1159 0 
L 581 0 
L 581 3500 
L 1159 3500 
L 1159 2956 
Q 1341 3275 1631 3429 
Q 1922 3584 2338 3584 
Q 2397 3584 2469 3576 
Q 2541 3569 2628 3553 
L 2631 2963 
z
" transform="scale(0.015625)"/>
       <path id="DejaVuSans-61" d="M 2194 1759 
Q 1497 1759 1228 1600 
Q 959 1441 959 1056 
Q 959 750 1161 570 
Q 1363 391 1709 391 
Q 2188 391 2477 730 
Q 2766 1069 2766 1631 
L 2766 1759 
L 2194 1759 
z
M 3341 1997 
L 3341 0 
L 2766 0 
L 2766 531 
Q 2569 213 2275 61 
Q 1981 -91 1556 -91 
Q 1019 -91 701 211 
Q 384 513 384 1019 
Q 384 1609 779 1909 
Q 1175 2209 1959 2209 
L 2766 2209 
L 2766 2266 
Q 2766 2663 2505 2880 
Q 2244 3097 1772 3097 
Q 1472 3097 1187 3025 
Q 903 2953 641 2809 
L 641 3341 
Q 956 3463 1253 3523 
Q 1550 3584 1831 3584 
Q 2591 3584 2966 3190 
Q 3341 2797 3341 1997 
z
" transform="scale(0.015625)"/>
       <path id="DejaVuSans-6c" d="M 603 4863 
L 1178 4863 
L 1178 0 
L 603 0 
L 603 4863 
z
" transform="scale(0.015625)"/>
       <path id="DejaVuSans-7a" d="M 353 3500 
L 3084 3500 
L 3084 2975 
L 922 459 
L 3084 459 
L 3084 0 
L 275 0 
L 275 525 
L 2438 3041 
L 353 3041 
L 353 3500 
z
" transform="scale(0.015625)"/>
       <path id="DejaVuSans-64" d="M 2906 2969 
L 2906 4863 
L 3481 4863 
L 3481 0 
L 2906 0 
L 2906 525 
Q 2725 213 2448 61 
Q 2172 -91 1784 -91 
Q 1150 -91 751 415 
Q 353 922 353 1747 
Q 353 2572 751 3078 
Q 1150 3584 1784 3584 
Q 2172 3584 2448 3432 
Q 2725 3281 2906 2969 
z
M 947 1747 
Q 947 1113 1208 752 
Q 1469 391 1925 391 
Q 2381 391 2643 752 
Q 2906 1113 2906 1747 
Q 2906 2381 2643 2742 
Q 2381 3103 1925 3103 
Q 1469 3103 1208 2742 
Q 947 2381 947 1747 
z
" transform="scale(0.015625)"/>
       <path id="DejaVuSans-49" d="M 628 4666 
L 1259 4666 
L 1259 0 
L 628 0 
L 628 4666 
z
" transform="scale(0.015625)"/>
       <path id="DejaVuSans-73" d="M 2834 3397 
L 2834 2853 
Q 2591 2978 2328 3040 
Q 2066 3103 1784 3103 
Q 1356 3103 1142 2972 
Q 928 2841 928 2578 
Q 928 2378 1081 2264 
Q 1234 2150 1697 2047 
L 1894 2003 
Q 2506 1872 2764 1633 
Q 3022 1394 3022 966 
Q 3022 478 2636 193 
Q 2250 -91 1575 -91 
Q 1294 -91 989 -36 
Q 684 19 347 128 
L 347 722 
Q 666 556 975 473 
Q 1284 391 1588 391 
Q 1994 391 2212 530 
Q 2431 669 2431 922 
Q 2431 1156 2273 1281 
Q 2116 1406 1581 1522 
L 1381 1569 
Q 847 1681 609 1914 
Q 372 2147 372 2553 
Q 372 3047 722 3315 
Q 1072 3584 1716 3584 
Q 2034 3584 2315 3537 
Q 2597 3491 2834 3397 
z
" transform="scale(0.015625)"/>
       <path id="DejaVuSans-79" d="M 2059 -325 
Q 1816 -950 1584 -1140 
Q 1353 -1331 966 -1331 
L 506 -1331 
L 506 -850 
L 844 -850 
Q 1081 -850 1212 -737 
Q 1344 -625 1503 -206 
L 1606 56 
L 191 3500 
L 800 3500 
L 1894 763 
L 2988 3500 
L 3597 3500 
L 2059 -325 
z
" transform="scale(0.015625)"/>
      </defs>
      <use xlink:href="#DejaVuSans-4e"/>
      <use xlink:href="#DejaVuSans-6f" x="74.804688"/>
      <use xlink:href="#DejaVuSans-72" x="135.986328"/>
      <use xlink:href="#DejaVuSans-6d" x="175.349609"/>
      <use xlink:href="#DejaVuSans-61" x="272.761719"/>
      <use xlink:href="#DejaVuSans-6c" x="334.041016"/>
      <use xlink:href="#DejaVuSans-69" x="361.824219"/>
      <use xlink:href="#DejaVuSans-7a" x="389.607422"/>
      <use xlink:href="#DejaVuSans-65" x="442.097656"/>
      <use xlink:href="#DejaVuSans-64" x="503.621094"/>
      <use xlink:href="#DejaVuSans-20" x="567.097656"/>
      <use xlink:href="#DejaVuSans-49" x="598.884766"/>
      <use xlink:href="#DejaVuSans-6e" x="628.376953"/>
      <use xlink:href="#DejaVuSans-74" x="691.755859"/>
      <use xlink:href="#DejaVuSans-65" x="730.964844"/>
      <use xlink:href="#DejaVuSans-6e" x="792.488281"/>
      <use xlink:href="#DejaVuSans-73" x="855.867188"/>
      <use xlink:href="#DejaVuSans-69" x="907.966797"/>
      <use xlink:href="#DejaVuSans-74" x="935.75"/>
      <use xlink:href="#DejaVuSans-79" x="974.958984"/>
     </g>
    </g>
   </g>
   <g id="line2d_15">
    <path d="M 84.332727 510.678115 
L 139.317276 510.57908 
L 141.935588 510.410431 
L 144.5539 510.251316 
L 148.044982 510.175853 
L 150.663294 510.143361 
L 157.645459 510.586581 
L 160.263771 510.94709 
L 162.009312 510.964948 
L 168.118706 510.526275 
L 183.828577 510.55095 
L 263.250703 510.497203 
L 266.741786 510.360593 
L 285.069969 510.546698 
L 324.344646 510.517794 
L 353.146076 510.461716 
L 354.018847 510.39595 
L 354.891618 510.191506 
L 356.637159 509.328664 
L 357.50993 508.888109 
L 358.3827 508.136408 
L 359.255471 505.752042 
L 360.128241 500.231276 
L 361.873783 484.067497 
L 362.746553 479.998134 
L 363.619324 481.091447 
L 364.492094 486.02229 
L 366.237636 498.009679 
L 367.110406 502.162166 
L 367.983177 504.800473 
L 368.855948 506.359018 
L 369.728718 507.279707 
L 370.601489 507.799485 
L 371.474259 507.957446 
L 372.34703 507.787851 
L 373.219801 507.488392 
L 374.092571 507.344978 
L 374.965342 507.518914 
L 376.710883 508.505398 
L 377.583654 508.992358 
L 378.456424 509.3398 
L 379.329195 509.53378 
L 381.074736 509.552599 
L 383.693048 509.385006 
L 385.438589 509.257091 
L 386.31136 508.953781 
L 388.056901 508.06502 
L 388.929672 507.290436 
L 389.802442 505.407693 
L 390.675213 501.657852 
L 392.420754 491.516664 
L 393.293525 488.840669 
L 394.166295 489.00664 
L 395.039066 491.21674 
L 397.657378 500.158781 
L 398.530148 502.484055 
L 399.402919 504.313773 
L 400.27569 505.673913 
L 401.14846 506.631688 
L 402.021231 507.258718 
L 402.894002 507.608085 
L 403.766772 507.72978 
L 406.385084 507.73407 
L 409.003396 508.263667 
L 409.876166 508.065844 
L 411.621708 507.286329 
L 412.494478 507.249664 
L 413.367249 507.568652 
L 414.24002 508.081491 
L 415.11279 508.446794 
L 415.985561 507.143006 
L 416.858331 499.19418 
L 417.731102 476.692804 
L 418.603873 436.083478 
L 419.476643 385.865967 
L 420.349414 344.049944 
L 421.222184 326.37996 
L 422.094955 336.666723 
L 422.967726 366.675778 
L 424.713267 435.771726 
L 425.586037 459.42073 
L 426.458808 474.355297 
L 427.331579 483.13689 
L 428.204349 488.518842 
L 429.07712 492.376696 
L 430.822661 498.446111 
L 431.695432 500.88796 
L 432.568202 502.867913 
L 433.440973 504.374744 
L 434.313744 505.45972 
L 435.186514 506.223064 
L 436.932055 507.219559 
L 437.804826 507.549815 
L 438.677597 507.733785 
L 440.423138 507.680172 
L 441.295909 507.635119 
L 442.168679 507.716051 
L 443.91422 508.221364 
L 445.659762 508.778381 
L 447.405303 509.122671 
L 450.023615 509.277542 
L 455.260238 509.532385 
L 457.87855 508.902816 
L 458.751321 508.923553 
L 463.115174 509.687119 
L 463.987945 509.579011 
L 464.860715 508.889544 
L 465.733486 507.079824 
L 467.479027 501.352777 
L 468.351798 499.860583 
L 469.224568 500.298222 
L 470.097339 502.179321 
L 471.84288 506.602179 
L 472.715651 508.017114 
L 473.588421 508.819535 
L 474.461192 509.213421 
L 476.206733 509.538561 
L 479.697816 509.95304 
L 481.443357 509.983885 
L 482.316127 509.92989 
L 483.188898 509.696575 
L 484.061669 509.076202 
L 484.934439 507.978772 
L 485.80721 506.664642 
L 486.67998 505.671834 
L 487.552751 505.429826 
L 488.425522 505.962701 
L 491.043834 508.812536 
L 491.916604 509.351036 
L 492.789375 509.651975 
L 494.534916 509.90431 
L 498.898769 510.204891 
L 503.262622 510.213175 
L 506.753705 510.191558 
L 511.990328 510.328275 
L 521.590805 510.347438 
L 525.954658 510.444557 
L 555.628859 510.347661 
L 559.992712 510.411522 
L 566.102106 510.486524 
L 569.593189 510.358569 
L 572.211501 510.223169 
L 575.702583 510.424966 
L 579.193666 510.492216 
L 587.048601 510.530675 
L 600.14016 510.556168 
L 628.941591 510.538138 
L 634.178214 510.573494 
L 648.142544 510.581158 
L 660.361333 510.579377 
L 816.587273 510.612972 
L 816.587273 510.612972 
" clip-path="url(#pda4bf9f784)" style="fill: none; stroke: #0000ff; stroke-width: 1.5; stroke-linecap: square"/>
   </g>
   <g id="line2d_16">
    <path d="M 90.669216 234.205268 
L 103.380422 234.229515 
L 418.302941 234.163715 
L 418.302941 234.078462 
L 418.547317 234.001132 
L 418.547317 233.510359 
L 418.794137 233.070196 
L 418.794137 231.44227 
L 419.038512 230.980326 
L 419.038512 228.617009 
L 419.28027 227.989573 
L 419.28027 222.91976 
L 419.517663 222.26127 
L 419.517663 213.343098 
L 419.753835 211.881064 
L 419.753835 196.642175 
L 419.98861 198.260618 
L 419.98861 182.838256 
L 420.222513 187.725586 
L 420.222513 160.409842 
L 420.456066 170.572292 
L 420.456066 144.898791 
L 420.689445 154.855892 
L 420.689445 124.253857 
L 420.926664 144.438918 
L 420.926664 102.363792 
L 421.159694 122.034595 
L 421.159694 88.703525 
L 421.392898 112.257305 
L 421.392898 70.886441 
L 421.626103 106.328859 
L 421.626103 63.200047 
L 421.859132 93.275629 
L 421.859132 58.122236 
L 422.092162 95.758939 
L 422.092162 51.468711 
L 422.325192 92.854159 
L 422.325192 49.932727 
L 422.558745 85.202041 
L 422.558745 56.254485 
L 422.791775 101.850138 
L 422.791775 53.877887 
L 423.024805 98.067953 
L 423.024805 59.468145 
L 423.258009 92.836241 
L 423.258009 55.823395 
L 423.493134 101.527957 
L 423.493134 64.071729 
L 423.726163 105.185085 
L 423.726163 72.759775 
L 423.959368 111.440646 
L 423.959368 81.959126 
L 424.192397 121.32137 
L 424.192397 82.1165 
L 424.429616 116.615009 
L 424.429616 88.359755 
L 424.662646 120.936505 
L 424.662646 90.790482 
L 424.89585 132.646188 
L 424.89585 112.765773 
L 425.129753 144.053111 
L 425.129753 124.051449 
L 425.362957 155.200668 
L 425.362957 127.330409 
L 425.596336 149.8608 
L 425.596336 132.350289 
L 425.829715 157.95676 
L 425.829715 139.251512 
L 426.063094 166.454505 
L 426.063094 144.433723 
L 426.296647 164.127877 
L 426.296647 148.465582 
L 426.530026 168.933909 
L 426.530026 154.285873 
L 426.763405 176.585014 
L 426.763405 156.526263 
L 426.996958 173.178212 
L 426.996958 160.439253 
L 427.230686 176.374733 
L 427.230686 160.767598 
L 427.464414 180.855173 
L 427.464414 165.12763 
L 427.697968 179.235937 
L 427.697968 167.226721 
L 427.93606 183.150669 
L 427.93606 168.083162 
L 428.169788 184.644166 
L 428.169788 173.762589 
L 428.40369 187.386623 
L 428.40369 174.440737 
L 428.637418 190.989831 
L 428.637418 181.407247 
L 428.871495 192.929603 
L 428.871495 183.098395 
L 429.105572 197.157936 
L 429.105572 184.150737 
L 429.339824 194.563625 
L 429.339824 186.136881 
L 429.573901 196.08468 
L 429.573901 185.641652 
L 429.807978 199.616319 
L 429.807978 190.77695 
L 430.04223 199.977436 
L 430.04223 193.746607 
L 430.278751 205.9517 
L 430.278751 197.463878 
L 430.513002 207.03154 
L 430.513002 200.849636 
L 430.747428 208.184448 
L 430.747428 198.625769 
L 430.982029 207.245133 
L 430.982029 200.247168 
L 431.216804 206.364292 
L 431.216804 198.654111 
L 431.45542 209.16556 
L 431.45542 203.626491 
L 431.690195 209.766919 
L 431.690195 202.187859 
L 431.92497 211.677546 
L 431.92497 205.494884 
L 432.160444 210.774867 
L 432.160444 204.548702 
L 432.395219 212.737934 
L 432.395219 207.235633 
L 432.630344 213.147248 
L 432.630344 208.60575 
L 432.865294 216.288963 
L 432.865294 210.554041 
L 433.100942 215.793851 
L 433.100942 212.246779 
L 433.336415 217.628222 
L 433.336415 211.89091 
L 433.57311 218.094701 
L 433.57311 213.913476 
L 433.808759 217.146351 
L 433.808759 212.427884 
L 434.044232 218.274602 
L 434.044232 215.422009 
L 434.280229 219.574458 
L 434.280229 215.463258 
L 434.516226 220.58539 
L 434.516226 217.619951 
L 434.752573 220.542617 
L 434.752573 216.355868 
L 434.992934 221.064633 
L 434.992934 216.414599 
L 435.229629 219.634741 
L 435.229629 217.410478 
L 435.466325 221.787347 
L 435.466325 218.054597 
L 435.703194 222.948616 
L 435.703194 220.22211 
L 435.939715 222.372021 
L 435.939715 219.168747 
L 436.17676 223.459924 
L 436.17676 221.198248 
L 436.413979 224.006032 
L 436.413979 220.56694 
L 436.653816 224.466639 
L 436.653816 221.208762 
L 436.891384 223.661958 
L 436.891384 221.812755 
L 437.129302 225.80353 
L 437.129302 222.336386 
L 437.368092 225.662703 
L 437.368092 223.83601 
L 437.607056 225.756342 
L 437.607056 223.182913 
L 437.845323 226.426745 
L 437.845323 223.579741 
L 438.084636 225.456198 
L 438.084636 223.642656 
L 438.322903 226.258275 
L 438.322903 223.737624 
L 438.56658 226.599038 
L 438.56658 223.732629 
L 438.806069 225.716359 
L 438.806069 224.165135 
L 439.045557 226.974503 
L 439.045557 225.435458 
L 439.284696 228.223624 
L 439.284696 225.744775 
L 439.527152 227.389648 
L 439.527152 225.077726 
L 439.766814 226.784774 
L 439.766814 225.762329 
L 440.005604 228.315269 
L 440.005604 226.829953 
L 440.246489 229.126409 
L 440.246489 227.083327 
L 440.489643 228.211677 
L 440.489643 226.39465 
L 440.72983 228.13139 
L 440.72983 226.960658 
L 440.969318 228.97224 
L 440.969318 227.903491 
L 441.211599 229.76456 
L 441.211599 228.173372 
L 441.454578 229.496458 
L 441.454578 227.785804 
L 441.69651 229.087474 
L 441.69651 228.245662 
L 441.935824 229.842404 
L 441.935824 228.740175 
L 442.180549 230.595397 
L 442.180549 229.747067 
L 442.425099 230.670564 
L 442.425099 229.533793 
L 442.668951 230.646902 
L 442.668951 229.673413 
L 442.913502 230.556367 
L 442.913502 229.724497 
L 443.157528 230.848624 
L 443.157528 229.631218 
L 443.401904 230.582869 
L 443.401904 229.411882 
L 443.645931 230.278828 
L 443.645931 229.250772 
L 443.890481 230.427911 
L 443.890481 229.250288 
L 444.133984 230.390376 
L 444.133984 229.261271 
L 444.618023 231.191378 
L 444.618023 230.556925 
L 444.860827 231.785993 
L 444.860827 230.998711 
L 445.106076 231.658225 
L 445.106076 230.874511 
L 445.351674 231.640614 
L 445.351674 230.986022 
L 445.597097 231.839871 
L 445.597097 231.178935 
L 445.84636 231.951198 
L 445.84636 231.417217 
L 446.091609 232.119421 
L 446.091609 231.492514 
L 446.336857 232.179421 
L 446.336857 231.624391 
L 446.581931 232.15506 
L 446.581931 231.496778 
L 446.827529 232.137807 
L 446.827529 231.680444 
L 447.072603 232.299088 
L 447.072603 231.600689 
L 447.3182 232.307614 
L 447.3182 231.616576 
L 447.563973 232.098883 
L 447.563973 231.562315 
L 447.809745 232.307587 
L 447.809745 231.69734 
L 448.055517 232.379739 
L 448.055517 231.868028 
L 448.301115 232.436757 
L 448.301115 231.970241 
L 448.546712 232.562636 
L 448.546712 232.10941 
L 448.798768 232.564677 
L 448.798768 231.631597 
L 449.046286 232.017927 
L 449.046286 231.240749 
L 449.291535 231.586277 
L 449.291535 230.878596 
L 449.540623 231.701617 
L 449.540623 231.090458 
L 449.78657 231.816264 
L 449.78657 231.315688 
L 450.032342 232.088656 
L 450.032342 231.533255 
L 450.279336 232.192384 
L 450.279336 231.635373 
L 450.525632 232.216437 
L 450.525632 231.755944 
L 450.771754 232.410749 
L 450.771754 232.04397 
L 451.018399 232.670346 
L 451.018399 232.309734 
L 451.264869 232.816411 
L 451.264869 232.464206 
L 451.511863 232.932315 
L 451.511863 232.579538 
L 451.758159 233.033275 
L 451.758159 232.764859 
L 452.004804 233.154368 
L 452.004804 232.769387 
L 452.255115 233.087902 
L 452.255115 232.585971 
L 452.501236 232.818609 
L 452.501236 232.203065 
L 452.747183 232.546333 
L 452.747183 232.02023 
L 452.993479 232.490178 
L 452.993479 231.991599 
L 453.243091 232.55081 
L 453.243091 232.037173 
L 453.489736 232.557426 
L 453.489736 232.115936 
L 453.737428 232.702688 
L 453.737428 232.420726 
L 453.984597 232.958774 
L 453.984597 232.720215 
L 454.232289 233.193699 
L 454.232289 232.937146 
L 454.480156 233.27387 
L 454.480156 233.014554 
L 454.727848 233.325029 
L 454.727848 233.024221 
L 454.975191 233.238254 
L 454.975191 232.855536 
L 455.222186 233.07163 
L 455.222186 232.660005 
L 455.468831 232.950804 
L 455.468831 232.528004 
L 455.715301 232.875618 
L 455.715301 232.48407 
L 455.961946 232.838971 
L 455.961946 232.422661 
L 456.208416 232.867479 
L 456.208416 232.46914 
L 456.45541 232.892331 
L 456.45541 232.536816 
L 456.70223 232.933272 
L 456.70223 232.585835 
L 457.201804 233.308629 
L 457.201804 233.188503 
L 457.449147 233.566079 
L 457.449147 233.350533 
L 457.699109 233.583613 
L 457.699109 233.209202 
L 457.94523 233.330871 
L 457.94523 232.987129 
L 458.191002 233.15329 
L 458.191002 232.839232 
L 458.4366 233.192217 
L 458.4366 232.898156 
L 458.682023 233.223285 
L 458.682023 232.941688 
L 458.926922 233.244541 
L 458.926922 232.987492 
L 459.171996 233.317335 
L 459.171996 233.055392 
L 459.416896 233.366656 
L 459.416896 233.139835 
L 459.662144 233.407208 
L 459.662144 233.203267 
L 459.907218 233.490273 
L 459.907218 233.322981 
L 460.152467 233.561952 
L 460.152467 233.372655 
L 460.398064 233.614027 
L 460.398064 233.392654 
L 460.64855 233.564466 
L 460.64855 233.289092 
L 460.894322 233.478082 
L 460.894322 233.145693 
L 461.140269 233.351529 
L 461.140269 233.120303 
L 461.38639 233.382655 
L 461.38639 233.144637 
L 461.63286 233.462323 
L 461.63286 233.219651 
L 461.879331 233.473283 
L 461.879331 233.280432 
L 462.12615 233.534447 
L 462.12615 233.354057 
L 462.375064 233.617041 
L 462.375064 233.48304 
L 462.623629 233.708159 
L 462.623629 233.539772 
L 462.871322 233.708459 
L 462.871322 233.52506 
L 463.118665 233.645512 
L 463.118665 233.419614 
L 463.365659 233.545797 
L 463.365659 233.291548 
L 463.612828 233.455742 
L 463.612828 233.231188 
L 463.859647 233.440222 
L 463.859647 233.226606 
L 464.107689 233.495873 
L 464.107689 233.274029 
L 464.607263 233.695626 
L 464.607263 233.547574 
L 464.855304 233.800784 
L 464.855304 233.659617 
L 465.102996 233.747317 
L 465.102996 233.58337 
L 465.350689 233.737645 
L 465.350689 233.5351 
L 465.597857 233.659642 
L 465.597857 233.458013 
L 466.097082 233.390603 
L 466.097082 233.490022 
L 466.346171 233.48548 
L 466.346171 233.578184 
L 466.594387 233.783059 
L 466.594387 233.625032 
L 466.842254 233.721731 
L 466.842254 233.531963 
L 467.089073 233.649343 
L 467.089073 233.49834 
L 467.335543 233.648837 
L 467.335543 233.441247 
L 467.580967 233.663343 
L 468.316712 233.797755 
L 468.316712 233.719034 
L 468.8011 233.994535 
L 468.8011 233.923229 
L 469.04181 234.004964 
L 469.04181 233.859339 
L 469.283218 233.941664 
L 469.283218 233.828116 
L 470.242219 233.890722 
L 470.242219 233.850279 
L 470.720846 233.979159 
L 470.720846 233.864191 
L 471.201394 233.921138 
L 471.442977 233.830269 
L 472.422051 233.954713 
L 472.422051 233.818878 
L 472.90958 233.856501 
L 472.90958 233.72789 
L 473.397285 233.873845 
L 473.397285 233.800403 
L 473.886036 233.998635 
L 473.886036 233.942256 
L 474.376184 233.994491 
L 474.376184 233.923853 
L 474.866681 234.006793 
L 474.866681 233.927586 
L 475.364509 233.989357 
L 475.364509 233.874554 
L 475.609409 233.94027 
L 475.609409 233.822974 
L 476.099731 233.895877 
L 476.099731 233.771726 
L 476.344805 233.889845 
L 476.344805 233.771733 
L 476.835652 233.913812 
L 476.835652 233.832106 
L 477.081424 233.944484 
L 477.081424 233.846354 
L 477.572968 233.913115 
L 477.572968 233.787359 
L 478.064862 233.869155 
L 478.064862 233.750536 
L 478.312554 233.8604 
L 478.312554 233.747794 
L 478.805495 233.859521 
L 478.805495 233.748001 
L 479.303672 233.928415 
L 479.303672 233.868576 
L 479.551888 234.004737 
L 479.551888 233.925437 
L 480.047971 233.962158 
L 480.047971 233.841009 
L 480.29514 233.917732 
L 480.29514 233.797828 
L 480.788953 233.890121 
L 480.788953 233.777701 
L 481.286782 233.912365 
L 481.286782 233.843764 
L 481.783388 233.944684 
L 481.783388 233.847862 
L 482.525592 233.933637 
L 482.525592 233.837943 
L 483.024468 233.915159 
L 483.024468 233.846963 
L 483.520551 233.998538 
L 483.520551 233.939938 
L 484.015412 233.995774 
L 484.015412 233.914253 
L 484.510796 233.925691 
L 484.510796 233.832411 
L 485.005832 233.910394 
L 485.005832 233.833555 
L 485.501566 233.98601 
L 485.501566 233.9449 
L 485.997648 234.030703 
L 485.997648 233.967983 
L 486.494255 233.981547 
L 486.494255 233.883594 
L 486.984927 233.913935 
L 486.984927 233.82099 
L 487.474202 233.904996 
L 487.474202 233.813332 
L 488.206805 234.002502 
L 488.206805 233.972201 
L 488.695557 234.045546 
L 488.695557 233.971287 
L 489.185356 234.025999 
L 489.185356 233.959812 
L 490.172459 233.952591 
L 490.172459 233.966608 
L 490.662433 234.042199 
L 490.662433 233.963179 
L 491.153454 234.004009 
L 491.153454 233.956352 
L 491.645522 234.034793 
L 491.645522 233.974911 
L 492.138812 234.010274 
L 492.138812 233.933109 
L 492.630705 233.962374 
L 492.630705 233.86948 
L 493.123646 233.960301 
L 493.123646 233.875353 
L 493.616761 233.943974 
L 493.616761 233.868498 
L 494.364551 234.03358 
L 494.364551 233.988477 
L 494.860459 234.034039 
L 494.860459 233.959884 
L 495.35567 233.988046 
L 495.35567 233.897118 
L 495.851229 233.943578 
L 495.851229 233.866987 
L 496.348359 234.012582 
L 496.348359 233.963412 
L 496.596749 234.047475 
L 496.596749 233.964005 
L 497.093181 233.972636 
L 497.093181 233.885895 
L 497.846208 234.024298 
L 497.846208 233.946278 
L 498.342989 233.945304 
L 498.342989 233.882458 
L 500.58758 234.025354 
L 500.58758 233.9277 
L 501.34113 233.906128 
L 501.34113 233.917389 
L 501.838784 233.966397 
L 501.838784 233.881567 
L 502.336962 233.984251 
L 502.336962 233.925931 
L 502.836186 234.034258 
L 502.836186 233.932917 
L 503.334538 233.963905 
L 503.334538 233.902137 
L 503.834287 234.034836 
L 503.834287 233.965162 
L 504.33997 233.994157 
L 504.33997 233.941813 
L 504.83937 234.017827 
L 504.83937 233.944475 
L 505.337023 233.996778 
L 505.337023 233.92641 
L 505.836423 234.014265 
L 505.836423 233.955204 
L 506.334251 234.016031 
L 506.334251 233.933762 
L 506.830683 233.992078 
L 506.830683 233.926907 
L 508.579715 234.048856 
L 508.579715 233.965944 
L 509.077718 233.986289 
L 509.077718 233.920868 
L 509.576594 234.027964 
L 509.576594 233.978724 
L 510.076342 234.035979 
L 510.076342 233.949077 
L 510.574694 233.977819 
L 510.574694 233.910286 
L 511.078981 234.015617 
L 511.078981 233.936372 
L 511.836197 234.040178 
L 511.836197 233.960415 
L 512.83709 234.052465 
L 512.83709 233.976388 
L 513.838333 234.04257 
L 513.838333 233.967552 
L 514.842194 234.053561 
L 514.842194 233.978211 
L 515.592427 234.052598 
L 515.592427 234.001897 
L 516.091827 234.029242 
L 516.091827 233.972419 
L 516.843107 234.053459 
L 516.843107 233.978122 
L 517.592643 233.992128 
L 531.618765 233.995104 
L 531.618765 234.046784 
L 555.449243 234.115081 
L 555.449243 234.047721 
L 556.196509 234.006925 
L 556.196509 234.043479 
L 556.695734 234.127866 
L 556.695734 234.087975 
L 557.697674 234.129701 
L 557.697674 234.084243 
L 559.19692 234.088501 
L 559.19692 234.046185 
L 559.948026 234.071319 
L 559.948026 234.05859 
L 560.700704 234.08083 
L 561.200627 234.109954 
L 561.200627 234.06454 
L 562.697777 234.095645 
L 562.697777 234.054746 
L 563.698147 234.12261 
L 563.698147 234.06628 
L 564.704102 234.099122 
L 564.704102 234.058571 
L 565.707614 234.086693 
L 565.707614 234.051743 
L 566.707111 234.118263 
L 566.707111 234.074311 
L 567.714812 234.091495 
L 574.450681 234.086583 
L 575.200391 234.118475 
L 575.200391 234.073861 
L 576.692829 234.148055 
L 576.692829 234.104839 
L 579.191396 234.145864 
L 579.191396 234.112553 
L 580.68942 234.104079 
L 580.68942 234.066246 
L 590.703764 234.115976 
L 591.456093 234.140948 
L 591.456093 234.111781 
L 592.460303 234.148811 
L 592.460303 234.127605 
L 608.713561 234.133302 
L 608.713561 234.102971 
L 609.962495 234.147027 
L 609.962495 234.11484 
L 613.954199 234.171909 
L 613.954199 234.161863 
L 614.700593 234.125708 
L 614.700593 234.134503 
L 615.449081 234.17156 
L 615.449081 234.141398 
L 618.194642 234.137831 
L 618.194642 234.131622 
L 623.660805 234.149416 
L 623.660805 234.156427 
L 812.999836 234.199337 
L 812.999836 234.199337 
" clip-path="url(#pda4bf9f784)" style="fill: none; stroke: #008000; stroke-width: 1.5; stroke-linecap: square"/>
   </g>
   <g id="patch_3">
    <path d="M 47.72 534.04 
L 47.72 26.88 
" style="fill: none; stroke: #000000; stroke-width: 0.8; stroke-linejoin: miter; stroke-linecap: square"/>
   </g>
   <g id="patch_4">
    <path d="M 853.2 534.04 
L 853.2 26.88 
" style="fill: none; stroke: #000000; stroke-width: 0.8; stroke-linejoin: miter; stroke-linecap: square"/>
   </g>
   <g id="patch_5">
    <path d="M 47.72 534.04 
L 853.2 534.04 
" style="fill: none; stroke: #000000; stroke-width: 0.8; stroke-linejoin: miter; stroke-linecap: square"/>
   </g>
   <g id="patch_6">
    <path d="M 47.72 26.88 
L 853.2 26.88 
" style="fill: none; stroke: #000000; stroke-width: 0.8; stroke-linejoin: miter; stroke-linecap: square"/>
   </g>
   <g id="patch_7">
    <path d="M 470.44346 323.666256 
Q 453.605647 328.923468 436.767834 334.18068 
L 437.959982 337.998897 
Q 431.337571 336.923761 424.71516 335.848626 
Q 429.549348 331.196436 434.383537 326.544246 
L 435.575685 330.362463 
Q 452.413498 325.105251 469.251312 319.848039 
L 470.44346 323.666256 
z
" style="stroke: #000000; stroke-linecap: round"/>
   </g>
   <g id="text_17">
    <!-- Peak: RT=3.23, Area=8.48e+04 -->
    <g style="fill: #ff0000" transform="translate(474.461192 307.039095) scale(0.1 -0.1)">
     <defs>
      <path id="DejaVuSans-50" d="M 1259 4147 
L 1259 2394 
L 2053 2394 
Q 2494 2394 2734 2622 
Q 2975 2850 2975 3272 
Q 2975 3691 2734 3919 
Q 2494 4147 2053 4147 
L 1259 4147 
z
M 628 4666 
L 2053 4666 
Q 2838 4666 3239 4311 
Q 3641 3956 3641 3272 
Q 3641 2581 3239 2228 
Q 2838 1875 2053 1875 
L 1259 1875 
L 1259 0 
L 628 0 
L 628 4666 
z
" transform="scale(0.015625)"/>
      <path id="DejaVuSans-6b" d="M 581 4863 
L 1159 4863 
L 1159 1991 
L 2875 3500 
L 3609 3500 
L 1753 1863 
L 3688 0 
L 2938 0 
L 1159 1709 
L 1159 0 
L 581 0 
L 581 4863 
z
" transform="scale(0.015625)"/>
      <path id="DejaVuSans-3a" d="M 750 794 
L 1409 794 
L 1409 0 
L 750 0 
L 750 794 
z
M 750 3309 
L 1409 3309 
L 1409 2516 
L 750 2516 
L 750 3309 
z
" transform="scale(0.015625)"/>
      <path id="DejaVuSans-3d" d="M 678 2906 
L 4684 2906 
L 4684 2381 
L 678 2381 
L 678 2906 
z
M 678 1631 
L 4684 1631 
L 4684 1100 
L 678 1100 
L 678 1631 
z
" transform="scale(0.015625)"/>
      <path id="DejaVuSans-2c" d="M 750 794 
L 1409 794 
L 1409 256 
L 897 -744 
L 494 -744 
L 750 256 
L 750 794 
z
" transform="scale(0.015625)"/>
      <path id="DejaVuSans-41" d="M 2188 4044 
L 1331 1722 
L 3047 1722 
L 2188 4044 
z
M 1831 4666 
L 2547 4666 
L 4325 0 
L 3669 0 
L 3244 1197 
L 1141 1197 
L 716 0 
L 50 0 
L 1831 4666 
z
" transform="scale(0.015625)"/>
      <path id="DejaVuSans-38" d="M 2034 2216 
Q 1584 2216 1326 1975 
Q 1069 1734 1069 1313 
Q 1069 891 1326 650 
Q 1584 409 2034 409 
Q 2484 409 2743 651 
Q 3003 894 3003 1313 
Q 3003 1734 2745 1975 
Q 2488 2216 2034 2216 
z
M 1403 2484 
Q 997 2584 770 2862 
Q 544 3141 544 3541 
Q 544 4100 942 4425 
Q 1341 4750 2034 4750 
Q 2731 4750 3128 4425 
Q 3525 4100 3525 3541 
Q 3525 3141 3298 2862 
Q 3072 2584 2669 2484 
Q 3125 2378 3379 2068 
Q 3634 1759 3634 1313 
Q 3634 634 3220 271 
Q 2806 -91 2034 -91 
Q 1263 -91 848 271 
Q 434 634 434 1313 
Q 434 1759 690 2068 
Q 947 2378 1403 2484 
z
M 1172 3481 
Q 1172 3119 1398 2916 
Q 1625 2713 2034 2713 
Q 2441 2713 2670 2916 
Q 2900 3119 2900 3481 
Q 2900 3844 2670 4047 
Q 2441 4250 2034 4250 
Q 1625 4250 1398 4047 
Q 1172 3844 1172 3481 
z
" transform="scale(0.015625)"/>
      <path id="DejaVuSans-2b" d="M 2944 4013 
L 2944 2272 
L 4684 2272 
L 4684 1741 
L 2944 1741 
L 2944 0 
L 2419 0 
L 2419 1741 
L 678 1741 
L 678 2272 
L 2419 2272 
L 2419 4013 
L 2944 4013 
z
" transform="scale(0.015625)"/>
     </defs>
     <use xlink:href="#DejaVuSans-50"/>
     <use xlink:href="#DejaVuSans-65" x="56.677734"/>
     <use xlink:href="#DejaVuSans-61" x="118.201172"/>
     <use xlink:href="#DejaVuSans-6b" x="179.480469"/>
     <use xlink:href="#DejaVuSans-3a" x="237.390625"/>
     <use xlink:href="#DejaVuSans-20" x="271.082031"/>
     <use xlink:href="#DejaVuSans-52" x="302.869141"/>
     <use xlink:href="#DejaVuSans-54" x="365.101562"/>
     <use xlink:href="#DejaVuSans-3d" x="426.185547"/>
     <use xlink:href="#DejaVuSans-33" x="509.974609"/>
     <use xlink:href="#DejaVuSans-2e" x="573.597656"/>
     <use xlink:href="#DejaVuSans-32" x="605.384766"/>
     <use xlink:href="#DejaVuSans-33" x="669.007812"/>
     <use xlink:href="#DejaVuSans-2c" x="732.630859"/>
     <use xlink:href="#DejaVuSans-20" x="764.417969"/>
     <use xlink:href="#DejaVuSans-41" x="796.205078"/>
     <use xlink:href="#DejaVuSans-72" x="864.613281"/>
     <use xlink:href="#DejaVuSans-65" x="903.476562"/>
     <use xlink:href="#DejaVuSans-61" x="965"/>
     <use xlink:href="#DejaVuSans-3d" x="1026.279297"/>
     <use xlink:href="#DejaVuSans-38" x="1110.068359"/>
     <use xlink:href="#DejaVuSans-2e" x="1173.691406"/>
     <use xlink:href="#DejaVuSans-34" x="1205.478516"/>
     <use xlink:href="#DejaVuSans-38" x="1269.101562"/>
     <use xlink:href="#DejaVuSans-65" x="1332.724609"/>
     <use xlink:href="#DejaVuSans-2b" x="1394.248047"/>
     <use xlink:href="#DejaVuSans-30" x="1478.037109"/>
     <use xlink:href="#DejaVuSans-34" x="1541.660156"/>
    </g>
    <!-- (67.55% of total) -->
    <g style="fill: #ff0000" transform="translate(474.461192 318.236907) scale(0.1 -0.1)">
     <defs>
      <path id="DejaVuSans-25" d="M 4653 2053 
Q 4381 2053 4226 1822 
Q 4072 1591 4072 1178 
Q 4072 772 4226 539 
Q 4381 306 4653 306 
Q 4919 306 5073 539 
Q 5228 772 5228 1178 
Q 5228 1588 5073 1820 
Q 4919 2053 4653 2053 
z
M 4653 2450 
Q 5147 2450 5437 2106 
Q 5728 1763 5728 1178 
Q 5728 594 5436 251 
Q 5144 -91 4653 -91 
Q 4153 -91 3862 251 
Q 3572 594 3572 1178 
Q 3572 1766 3864 2108 
Q 4156 2450 4653 2450 
z
M 1428 4353 
Q 1159 4353 1004 4120 
Q 850 3888 850 3481 
Q 850 3069 1003 2837 
Q 1156 2606 1428 2606 
Q 1700 2606 1854 2837 
Q 2009 3069 2009 3481 
Q 2009 3884 1853 4118 
Q 1697 4353 1428 4353 
z
M 4250 4750 
L 4750 4750 
L 1831 -91 
L 1331 -91 
L 4250 4750 
z
M 1428 4750 
Q 1922 4750 2215 4408 
Q 2509 4066 2509 3481 
Q 2509 2891 2217 2550 
Q 1925 2209 1428 2209 
Q 931 2209 642 2551 
Q 353 2894 353 3481 
Q 353 4063 643 4406 
Q 934 4750 1428 4750 
z
" transform="scale(0.015625)"/>
      <path id="DejaVuSans-66" d="M 2375 4863 
L 2375 4384 
L 1825 4384 
Q 1516 4384 1395 4259 
Q 1275 4134 1275 3809 
L 1275 3500 
L 2222 3500 
L 2222 3053 
L 1275 3053 
L 1275 0 
L 697 0 
L 697 3053 
L 147 3053 
L 147 3500 
L 697 3500 
L 697 3744 
Q 697 4328 969 4595 
Q 1241 4863 1831 4863 
L 2375 4863 
z
" transform="scale(0.015625)"/>
     </defs>
     <use xlink:href="#DejaVuSans-28"/>
     <use xlink:href="#DejaVuSans-36" x="39.013672"/>
     <use xlink:href="#DejaVuSans-37" x="102.636719"/>
     <use xlink:href="#DejaVuSans-2e" x="166.259766"/>
     <use xlink:href="#DejaVuSans-35" x="198.046875"/>
     <use xlink:href="#DejaVuSans-35" x="261.669922"/>
     <use xlink:href="#DejaVuSans-25" x="325.292969"/>
     <use xlink:href="#DejaVuSans-20" x="420.3125"/>
     <use xlink:href="#DejaVuSans-6f" x="452.099609"/>
     <use xlink:href="#DejaVuSans-66" x="513.28125"/>
     <use xlink:href="#DejaVuSans-20" x="548.486328"/>
     <use xlink:href="#DejaVuSans-74" x="580.273438"/>
     <use xlink:href="#DejaVuSans-6f" x="619.482422"/>
     <use xlink:href="#DejaVuSans-74" x="680.664062"/>
     <use xlink:href="#DejaVuSans-61" x="719.873047"/>
     <use xlink:href="#DejaVuSans-6c" x="781.152344"/>
     <use xlink:href="#DejaVuSans-29" x="808.935547"/>
    </g>
   </g>
   <g id="text_18">
    <!-- UV and MS Chromatograms of Ir_ppy_M20Y4_final, target m/z = 849.09 -->
    <g transform="translate(235.469688 20.88) scale(0.12 -0.12)">
     <defs>
      <path id="DejaVuSans-55" d="M 556 4666 
L 1191 4666 
L 1191 1831 
Q 1191 1081 1462 751 
Q 1734 422 2344 422 
Q 2950 422 3222 751 
Q 3494 1081 3494 1831 
L 3494 4666 
L 4128 4666 
L 4128 1753 
Q 4128 841 3676 375 
Q 3225 -91 2344 -91 
Q 1459 -91 1007 375 
Q 556 841 556 1753 
L 556 4666 
z
" transform="scale(0.015625)"/>
      <path id="DejaVuSans-56" d="M 1831 0 
L 50 4666 
L 709 4666 
L 2188 738 
L 3669 4666 
L 4325 4666 
L 2547 0 
L 1831 0 
z
" transform="scale(0.015625)"/>
      <path id="DejaVuSans-4d" d="M 628 4666 
L 1569 4666 
L 2759 1491 
L 3956 4666 
L 4897 4666 
L 4897 0 
L 4281 0 
L 4281 4097 
L 3078 897 
L 2444 897 
L 1241 4097 
L 1241 0 
L 628 0 
L 628 4666 
z
" transform="scale(0.015625)"/>
      <path id="DejaVuSans-53" d="M 3425 4513 
L 3425 3897 
Q 3066 4069 2747 4153 
Q 2428 4238 2131 4238 
Q 1616 4238 1336 4038 
Q 1056 3838 1056 3469 
Q 1056 3159 1242 3001 
Q 1428 2844 1947 2747 
L 2328 2669 
Q 3034 2534 3370 2195 
Q 3706 1856 3706 1288 
Q 3706 609 3251 259 
Q 2797 -91 1919 -91 
Q 1588 -91 1214 -16 
Q 841 59 441 206 
L 441 856 
Q 825 641 1194 531 
Q 1563 422 1919 422 
Q 2459 422 2753 634 
Q 3047 847 3047 1241 
Q 3047 1584 2836 1778 
Q 2625 1972 2144 2069 
L 1759 2144 
Q 1053 2284 737 2584 
Q 422 2884 422 3419 
Q 422 4038 858 4394 
Q 1294 4750 2059 4750 
Q 2388 4750 2728 4690 
Q 3069 4631 3425 4513 
z
" transform="scale(0.015625)"/>
      <path id="DejaVuSans-43" d="M 4122 4306 
L 4122 3641 
Q 3803 3938 3442 4084 
Q 3081 4231 2675 4231 
Q 1875 4231 1450 3742 
Q 1025 3253 1025 2328 
Q 1025 1406 1450 917 
Q 1875 428 2675 428 
Q 3081 428 3442 575 
Q 3803 722 4122 1019 
L 4122 359 
Q 3791 134 3420 21 
Q 3050 -91 2638 -91 
Q 1578 -91 968 557 
Q 359 1206 359 2328 
Q 359 3453 968 4101 
Q 1578 4750 2638 4750 
Q 3056 4750 3426 4639 
Q 3797 4528 4122 4306 
z
" transform="scale(0.015625)"/>
      <path id="DejaVuSans-68" d="M 3513 2113 
L 3513 0 
L 2938 0 
L 2938 2094 
Q 2938 2591 2744 2837 
Q 2550 3084 2163 3084 
Q 1697 3084 1428 2787 
Q 1159 2491 1159 1978 
L 1159 0 
L 581 0 
L 581 4863 
L 1159 4863 
L 1159 2956 
Q 1366 3272 1645 3428 
Q 1925 3584 2291 3584 
Q 2894 3584 3203 3211 
Q 3513 2838 3513 2113 
z
" transform="scale(0.015625)"/>
      <path id="DejaVuSans-67" d="M 2906 1791 
Q 2906 2416 2648 2759 
Q 2391 3103 1925 3103 
Q 1463 3103 1205 2759 
Q 947 2416 947 1791 
Q 947 1169 1205 825 
Q 1463 481 1925 481 
Q 2391 481 2648 825 
Q 2906 1169 2906 1791 
z
M 3481 434 
Q 3481 -459 3084 -895 
Q 2688 -1331 1869 -1331 
Q 1566 -1331 1297 -1286 
Q 1028 -1241 775 -1147 
L 775 -588 
Q 1028 -725 1275 -790 
Q 1522 -856 1778 -856 
Q 2344 -856 2625 -561 
Q 2906 -266 2906 331 
L 2906 616 
Q 2728 306 2450 153 
Q 2172 0 1784 0 
Q 1141 0 747 490 
Q 353 981 353 1791 
Q 353 2603 747 3093 
Q 1141 3584 1784 3584 
Q 2172 3584 2450 3431 
Q 2728 3278 2906 2969 
L 2906 3500 
L 3481 3500 
L 3481 434 
z
" transform="scale(0.015625)"/>
      <path id="DejaVuSans-5f" d="M 3263 -1063 
L 3263 -1509 
L -63 -1509 
L -63 -1063 
L 3263 -1063 
z
" transform="scale(0.015625)"/>
      <path id="DejaVuSans-70" d="M 1159 525 
L 1159 -1331 
L 581 -1331 
L 581 3500 
L 1159 3500 
L 1159 2969 
Q 1341 3281 1617 3432 
Q 1894 3584 2278 3584 
Q 2916 3584 3314 3078 
Q 3713 2572 3713 1747 
Q 3713 922 3314 415 
Q 2916 -91 2278 -91 
Q 1894 -91 1617 61 
Q 1341 213 1159 525 
z
M 3116 1747 
Q 3116 2381 2855 2742 
Q 2594 3103 2138 3103 
Q 1681 3103 1420 2742 
Q 1159 2381 1159 1747 
Q 1159 1113 1420 752 
Q 1681 391 2138 391 
Q 2594 391 2855 752 
Q 3116 1113 3116 1747 
z
" transform="scale(0.015625)"/>
      <path id="DejaVuSans-59" d="M -13 4666 
L 666 4666 
L 1959 2747 
L 3244 4666 
L 3922 4666 
L 2272 2222 
L 2272 0 
L 1638 0 
L 1638 2222 
L -13 4666 
z
" transform="scale(0.015625)"/>
      <path id="DejaVuSans-2f" d="M 1625 4666 
L 2156 4666 
L 531 -594 
L 0 -594 
L 1625 4666 
z
" transform="scale(0.015625)"/>
      <path id="DejaVuSans-39" d="M 703 97 
L 703 672 
Q 941 559 1184 500 
Q 1428 441 1663 441 
Q 2288 441 2617 861 
Q 2947 1281 2994 2138 
Q 2813 1869 2534 1725 
Q 2256 1581 1919 1581 
Q 1219 1581 811 2004 
Q 403 2428 403 3163 
Q 403 3881 828 4315 
Q 1253 4750 1959 4750 
Q 2769 4750 3195 4129 
Q 3622 3509 3622 2328 
Q 3622 1225 3098 567 
Q 2575 -91 1691 -91 
Q 1453 -91 1209 -44 
Q 966 3 703 97 
z
M 1959 2075 
Q 2384 2075 2632 2365 
Q 2881 2656 2881 3163 
Q 2881 3666 2632 3958 
Q 2384 4250 1959 4250 
Q 1534 4250 1286 3958 
Q 1038 3666 1038 3163 
Q 1038 2656 1286 2365 
Q 1534 2075 1959 2075 
z
" transform="scale(0.015625)"/>
     </defs>
     <use xlink:href="#DejaVuSans-55"/>
     <use xlink:href="#DejaVuSans-56" x="73.193359"/>
     <use xlink:href="#DejaVuSans-20" x="141.601562"/>
     <use xlink:href="#DejaVuSans-61" x="173.388672"/>
     <use xlink:href="#DejaVuSans-6e" x="234.667969"/>
     <use xlink:href="#DejaVuSans-64" x="298.046875"/>
     <use xlink:href="#DejaVuSans-20" x="361.523438"/>
     <use xlink:href="#DejaVuSans-4d" x="393.310547"/>
     <use xlink:href="#DejaVuSans-53" x="479.589844"/>
     <use xlink:href="#DejaVuSans-20" x="543.066406"/>
     <use xlink:href="#DejaVuSans-43" x="574.853516"/>
     <use xlink:href="#DejaVuSans-68" x="644.677734"/>
     <use xlink:href="#DejaVuSans-72" x="708.056641"/>
     <use xlink:href="#DejaVuSans-6f" x="746.919922"/>
     <use xlink:href="#DejaVuSans-6d" x="808.101562"/>
     <use xlink:href="#DejaVuSans-61" x="905.513672"/>
     <use xlink:href="#DejaVuSans-74" x="966.792969"/>
     <use xlink:href="#DejaVuSans-6f" x="1006.001953"/>
     <use xlink:href="#DejaVuSans-67" x="1067.183594"/>
     <use xlink:href="#DejaVuSans-72" x="1130.660156"/>
     <use xlink:href="#DejaVuSans-61" x="1171.773438"/>
     <use xlink:href="#DejaVuSans-6d" x="1233.052734"/>
     <use xlink:href="#DejaVuSans-73" x="1330.464844"/>
     <use xlink:href="#DejaVuSans-20" x="1382.564453"/>
     <use xlink:href="#DejaVuSans-6f" x="1414.351562"/>
     <use xlink:href="#DejaVuSans-66" x="1475.533203"/>
     <use xlink:href="#DejaVuSans-20" x="1510.738281"/>
     <use xlink:href="#DejaVuSans-49" x="1542.525391"/>
     <use xlink:href="#DejaVuSans-72" x="1572.017578"/>
     <use xlink:href="#DejaVuSans-5f" x="1613.130859"/>
     <use xlink:href="#DejaVuSans-70" x="1663.130859"/>
     <use xlink:href="#DejaVuSans-70" x="1726.607422"/>
     <use xlink:href="#DejaVuSans-79" x="1790.083984"/>
     <use xlink:href="#DejaVuSans-5f" x="1849.263672"/>
     <use xlink:href="#DejaVuSans-4d" x="1899.263672"/>
     <use xlink:href="#DejaVuSans-32" x="1985.542969"/>
     <use xlink:href="#DejaVuSans-30" x="2049.166016"/>
     <use xlink:href="#DejaVuSans-59" x="2112.789062"/>
     <use xlink:href="#DejaVuSans-34" x="2173.873047"/>
     <use xlink:href="#DejaVuSans-5f" x="2237.496094"/>
     <use xlink:href="#DejaVuSans-66" x="2287.496094"/>
     <use xlink:href="#DejaVuSans-69" x="2322.701172"/>
     <use xlink:href="#DejaVuSans-6e" x="2350.484375"/>
     <use xlink:href="#DejaVuSans-61" x="2413.863281"/>
     <use xlink:href="#DejaVuSans-6c" x="2475.142578"/>
     <use xlink:href="#DejaVuSans-2c" x="2502.925781"/>
     <use xlink:href="#DejaVuSans-20" x="2534.712891"/>
     <use xlink:href="#DejaVuSans-74" x="2566.5"/>
     <use xlink:href="#DejaVuSans-61" x="2605.708984"/>
     <use xlink:href="#DejaVuSans-72" x="2666.988281"/>
     <use xlink:href="#DejaVuSans-67" x="2706.351562"/>
     <use xlink:href="#DejaVuSans-65" x="2769.828125"/>
     <use xlink:href="#DejaVuSans-74" x="2831.351562"/>
     <use xlink:href="#DejaVuSans-20" x="2870.560547"/>
     <use xlink:href="#DejaVuSans-6d" x="2902.347656"/>
     <use xlink:href="#DejaVuSans-2f" x="2999.759766"/>
     <use xlink:href="#DejaVuSans-7a" x="3033.451172"/>
     <use xlink:href="#DejaVuSans-20" x="3085.941406"/>
     <use xlink:href="#DejaVuSans-3d" x="3117.728516"/>
     <use xlink:href="#DejaVuSans-20" x="3201.517578"/>
     <use xlink:href="#DejaVuSans-38" x="3233.304688"/>
     <use xlink:href="#DejaVuSans-34" x="3296.927734"/>
     <use xlink:href="#DejaVuSans-39" x="3360.550781"/>
     <use xlink:href="#DejaVuSans-2e" x="3424.173828"/>
     <use xlink:href="#DejaVuSans-30" x="3455.960938"/>
     <use xlink:href="#DejaVuSans-39" x="3519.583984"/>
    </g>
   </g>
   <g id="legend_1">
    <g id="patch_8">
     <path d="M 685.971875 64.23625 
L 846.2 64.23625 
Q 848.2 64.23625 848.2 62.23625 
L 848.2 33.88 
Q 848.2 31.88 846.2 31.88 
L 685.971875 31.88 
Q 683.971875 31.88 683.971875 33.88 
L 683.971875 62.23625 
Q 683.971875 64.23625 685.971875 64.23625 
z
" style="fill: #ffffff; opacity: 0.8; stroke: #cccccc; stroke-linejoin: miter"/>
    </g>
    <g id="line2d_17">
     <path d="M 687.971875 39.978437 
L 697.971875 39.978437 
L 707.971875 39.978437 
" style="fill: none; stroke: #0000ff; stroke-width: 1.5; stroke-linecap: square"/>
    </g>
    <g id="text_19">
     <!-- UV Intensity (normalized) -->
     <g transform="translate(715.971875 43.478437) scale(0.1 -0.1)">
      <use xlink:href="#DejaVuSans-55"/>
      <use xlink:href="#DejaVuSans-56" x="73.193359"/>
      <use xlink:href="#DejaVuSans-20" x="141.601562"/>
      <use xlink:href="#DejaVuSans-49" x="173.388672"/>
      <use xlink:href="#DejaVuSans-6e" x="202.880859"/>
      <use xlink:href="#DejaVuSans-74" x="266.259766"/>
      <use xlink:href="#DejaVuSans-65" x="305.46875"/>
      <use xlink:href="#DejaVuSans-6e" x="366.992188"/>
      <use xlink:href="#DejaVuSans-73" x="430.371094"/>
      <use xlink:href="#DejaVuSans-69" x="482.470703"/>
      <use xlink:href="#DejaVuSans-74" x="510.253906"/>
      <use xlink:href="#DejaVuSans-79" x="549.462891"/>
      <use xlink:href="#DejaVuSans-20" x="608.642578"/>
      <use xlink:href="#DejaVuSans-28" x="640.429688"/>
      <use xlink:href="#DejaVuSans-6e" x="679.443359"/>
      <use xlink:href="#DejaVuSans-6f" x="742.822266"/>
      <use xlink:href="#DejaVuSans-72" x="804.003906"/>
      <use xlink:href="#DejaVuSans-6d" x="843.367188"/>
      <use xlink:href="#DejaVuSans-61" x="940.779297"/>
      <use xlink:href="#DejaVuSans-6c" x="1002.058594"/>
      <use xlink:href="#DejaVuSans-69" x="1029.841797"/>
      <use xlink:href="#DejaVuSans-7a" x="1057.625"/>
      <use xlink:href="#DejaVuSans-65" x="1110.115234"/>
      <use xlink:href="#DejaVuSans-64" x="1171.638672"/>
      <use xlink:href="#DejaVuSans-29" x="1235.115234"/>
     </g>
    </g>
    <g id="line2d_18">
     <path d="M 687.971875 54.656562 
L 697.971875 54.656562 
L 707.971875 54.656562 
" style="fill: none; stroke: #008000; stroke-width: 1.5; stroke-linecap: square"/>
    </g>
    <g id="text_20">
     <!-- MS Intensity (normalized) -->
     <g transform="translate(715.971875 58.156562) scale(0.1 -0.1)">
      <use xlink:href="#DejaVuSans-4d"/>
      <use xlink:href="#DejaVuSans-53" x="86.279297"/>
      <use xlink:href="#DejaVuSans-20" x="149.755859"/>
      <use xlink:href="#DejaVuSans-49" x="181.542969"/>
      <use xlink:href="#DejaVuSans-6e" x="211.035156"/>
      <use xlink:href="#DejaVuSans-74" x="274.414062"/>
      <use xlink:href="#DejaVuSans-65" x="313.623047"/>
      <use xlink:href="#DejaVuSans-6e" x="375.146484"/>
      <use xlink:href="#DejaVuSans-73" x="438.525391"/>
      <use xlink:href="#DejaVuSans-69" x="490.625"/>
      <use xlink:href="#DejaVuSans-74" x="518.408203"/>
      <use xlink:href="#DejaVuSans-79" x="557.617188"/>
      <use xlink:href="#DejaVuSans-20" x="616.796875"/>
      <use xlink:href="#DejaVuSans-28" x="648.583984"/>
      <use xlink:href="#DejaVuSans-6e" x="687.597656"/>
      <use xlink:href="#DejaVuSans-6f" x="750.976562"/>
      <use xlink:href="#DejaVuSans-72" x="812.158203"/>
      <use xlink:href="#DejaVuSans-6d" x="851.521484"/>
      <use xlink:href="#DejaVuSans-61" x="948.933594"/>
      <use xlink:href="#DejaVuSans-6c" x="1010.212891"/>
      <use xlink:href="#DejaVuSans-69" x="1037.996094"/>
      <use xlink:href="#DejaVuSans-7a" x="1065.779297"/>
      <use xlink:href="#DejaVuSans-65" x="1118.269531"/>
      <use xlink:href="#DejaVuSans-64" x="1179.792969"/>
      <use xlink:href="#DejaVuSans-29" x="1243.269531"/>
     </g>
    </g>
   </g>
  </g>
 </g>
 <defs>
  <clipPath id="pda4bf9f784">
   <rect x="47.72" y="26.88" width="805.48" height="507.16"/>
  </clipPath>
 </defs>
</svg>
