<?xml version="1.0" encoding="utf-8" standalone="no"?>
<!DOCTYPE svg PUBLIC "-//W3C//DTD SVG 1.1//EN"
  "http://www.w3.org/Graphics/SVG/1.1/DTD/svg11.dtd">
<svg xmlns:xlink="http://www.w3.org/1999/xlink" width="864pt" height="576pt" viewBox="0 0 864 576" xmlns="http://www.w3.org/2000/svg" version="1.1">
 <metadata>
  <rdf:RDF xmlns:dc="http://purl.org/dc/elements/1.1/" xmlns:cc="http://creativecommons.org/ns#" xmlns:rdf="http://www.w3.org/1999/02/22-rdf-syntax-ns#">
   <cc:Work>
    <dc:type rdf:resource="http://purl.org/dc/dcmitype/StillImage"/>
    <dc:date>2024-12-06T16:20:22.824955</dc:date>
    <dc:format>image/svg+xml</dc:format>
    <dc:creator>
     <cc:Agent>
      <dc:title>Matplotlib v3.9.0, https://matplotlib.org/</dc:title>
     </cc:Agent>
    </dc:creator>
   </cc:Work>
  </rdf:RDF>
 </metadata>
 <defs>
  <style type="text/css">*{stroke-linejoin: round; stroke-linecap: butt}</style>
 </defs>
 <g id="figure_1">
  <g id="patch_1">
   <path d="M 0 576 
L 864 576 
L 864 0 
L 0 0 
z
" style="fill: #ffffff"/>
  </g>
  <g id="axes_1">
   <g id="patch_2">
    <path d="M 47.72 534.04 
L 853.2 534.04 
L 853.2 26.88 
L 47.72 26.88 
z
" style="fill: #ffffff"/>
   </g>
   <g id="matplotlib.axis_1">
    <g id="xtick_1">
     <g id="line2d_1">
      <defs>
       <path id="mfaef421e5f" d="M 0 0 
L 0 3.5 
" style="stroke: #000000; stroke-width: 0.8"/>
      </defs>
      <g>
       <use xlink:href="#mfaef421e5f" x="83.449483" y="534.04" style="stroke: #000000; stroke-width: 0.8"/>
      </g>
     </g>
     <g id="text_1">
      <!-- 0 -->
      <g transform="translate(80.268233 548.638438) scale(0.1 -0.1)">
       <defs>
        <path id="DejaVuSans-30" d="M 2034 4250 
Q 1547 4250 1301 3770 
Q 1056 3291 1056 2328 
Q 1056 1369 1301 889 
Q 1547 409 2034 409 
Q 2525 409 2770 889 
Q 3016 1369 3016 2328 
Q 3016 3291 2770 3770 
Q 2525 4250 2034 4250 
z
M 2034 4750 
Q 2819 4750 3233 4129 
Q 3647 3509 3647 2328 
Q 3647 1150 3233 529 
Q 2819 -91 2034 -91 
Q 1250 -91 836 529 
Q 422 1150 422 2328 
Q 422 3509 836 4129 
Q 1250 4750 2034 4750 
z
" transform="scale(0.015625)"/>
       </defs>
       <use xlink:href="#DejaVuSans-30"/>
      </g>
     </g>
    </g>
    <g id="xtick_2">
     <g id="line2d_2">
      <g>
       <use xlink:href="#mfaef421e5f" x="188.181957" y="534.04" style="stroke: #000000; stroke-width: 0.8"/>
      </g>
     </g>
     <g id="text_2">
      <!-- 1 -->
      <g transform="translate(185.000707 548.638438) scale(0.1 -0.1)">
       <defs>
        <path id="DejaVuSans-31" d="M 794 531 
L 1825 531 
L 1825 4091 
L 703 3866 
L 703 4441 
L 1819 4666 
L 2450 4666 
L 2450 531 
L 3481 531 
L 3481 0 
L 794 0 
L 794 531 
z
" transform="scale(0.015625)"/>
       </defs>
       <use xlink:href="#DejaVuSans-31"/>
      </g>
     </g>
    </g>
    <g id="xtick_3">
     <g id="line2d_3">
      <g>
       <use xlink:href="#mfaef421e5f" x="292.914431" y="534.04" style="stroke: #000000; stroke-width: 0.8"/>
      </g>
     </g>
     <g id="text_3">
      <!-- 2 -->
      <g transform="translate(289.733181 548.638438) scale(0.1 -0.1)">
       <defs>
        <path id="DejaVuSans-32" d="M 1228 531 
L 3431 531 
L 3431 0 
L 469 0 
L 469 531 
Q 828 903 1448 1529 
Q 2069 2156 2228 2338 
Q 2531 2678 2651 2914 
Q 2772 3150 2772 3378 
Q 2772 3750 2511 3984 
Q 2250 4219 1831 4219 
Q 1534 4219 1204 4116 
Q 875 4013 500 3803 
L 500 4441 
Q 881 4594 1212 4672 
Q 1544 4750 1819 4750 
Q 2544 4750 2975 4387 
Q 3406 4025 3406 3419 
Q 3406 3131 3298 2873 
Q 3191 2616 2906 2266 
Q 2828 2175 2409 1742 
Q 1991 1309 1228 531 
z
" transform="scale(0.015625)"/>
       </defs>
       <use xlink:href="#DejaVuSans-32"/>
      </g>
     </g>
    </g>
    <g id="xtick_4">
     <g id="line2d_4">
      <g>
       <use xlink:href="#mfaef421e5f" x="397.646905" y="534.04" style="stroke: #000000; stroke-width: 0.8"/>
      </g>
     </g>
     <g id="text_4">
      <!-- 3 -->
      <g transform="translate(394.465655 548.638438) scale(0.1 -0.1)">
       <defs>
        <path id="DejaVuSans-33" d="M 2597 2516 
Q 3050 2419 3304 2112 
Q 3559 1806 3559 1356 
Q 3559 666 3084 287 
Q 2609 -91 1734 -91 
Q 1441 -91 1130 -33 
Q 819 25 488 141 
L 488 750 
Q 750 597 1062 519 
Q 1375 441 1716 441 
Q 2309 441 2620 675 
Q 2931 909 2931 1356 
Q 2931 1769 2642 2001 
Q 2353 2234 1838 2234 
L 1294 2234 
L 1294 2753 
L 1863 2753 
Q 2328 2753 2575 2939 
Q 2822 3125 2822 3475 
Q 2822 3834 2567 4026 
Q 2313 4219 1838 4219 
Q 1578 4219 1281 4162 
Q 984 4106 628 3988 
L 628 4550 
Q 988 4650 1302 4700 
Q 1616 4750 1894 4750 
Q 2613 4750 3031 4423 
Q 3450 4097 3450 3541 
Q 3450 3153 3228 2886 
Q 3006 2619 2597 2516 
z
" transform="scale(0.015625)"/>
       </defs>
       <use xlink:href="#DejaVuSans-33"/>
      </g>
     </g>
    </g>
    <g id="xtick_5">
     <g id="line2d_5">
      <g>
       <use xlink:href="#mfaef421e5f" x="502.379378" y="534.04" style="stroke: #000000; stroke-width: 0.8"/>
      </g>
     </g>
     <g id="text_5">
      <!-- 4 -->
      <g transform="translate(499.198128 548.638438) scale(0.1 -0.1)">
       <defs>
        <path id="DejaVuSans-34" d="M 2419 4116 
L 825 1625 
L 2419 1625 
L 2419 4116 
z
M 2253 4666 
L 3047 4666 
L 3047 1625 
L 3713 1625 
L 3713 1100 
L 3047 1100 
L 3047 0 
L 2419 0 
L 2419 1100 
L 313 1100 
L 313 1709 
L 2253 4666 
z
" transform="scale(0.015625)"/>
       </defs>
       <use xlink:href="#DejaVuSans-34"/>
      </g>
     </g>
    </g>
    <g id="xtick_6">
     <g id="line2d_6">
      <g>
       <use xlink:href="#mfaef421e5f" x="607.111852" y="534.04" style="stroke: #000000; stroke-width: 0.8"/>
      </g>
     </g>
     <g id="text_6">
      <!-- 5 -->
      <g transform="translate(603.930602 548.638438) scale(0.1 -0.1)">
       <defs>
        <path id="DejaVuSans-35" d="M 691 4666 
L 3169 4666 
L 3169 4134 
L 1269 4134 
L 1269 2991 
Q 1406 3038 1543 3061 
Q 1681 3084 1819 3084 
Q 2600 3084 3056 2656 
Q 3513 2228 3513 1497 
Q 3513 744 3044 326 
Q 2575 -91 1722 -91 
Q 1428 -91 1123 -41 
Q 819 9 494 109 
L 494 744 
Q 775 591 1075 516 
Q 1375 441 1709 441 
Q 2250 441 2565 725 
Q 2881 1009 2881 1497 
Q 2881 1984 2565 2268 
Q 2250 2553 1709 2553 
Q 1456 2553 1204 2497 
Q 953 2441 691 2322 
L 691 4666 
z
" transform="scale(0.015625)"/>
       </defs>
       <use xlink:href="#DejaVuSans-35"/>
      </g>
     </g>
    </g>
    <g id="xtick_7">
     <g id="line2d_7">
      <g>
       <use xlink:href="#mfaef421e5f" x="711.844326" y="534.04" style="stroke: #000000; stroke-width: 0.8"/>
      </g>
     </g>
     <g id="text_7">
      <!-- 6 -->
      <g transform="translate(708.663076 548.638438) scale(0.1 -0.1)">
       <defs>
        <path id="DejaVuSans-36" d="M 2113 2584 
Q 1688 2584 1439 2293 
Q 1191 2003 1191 1497 
Q 1191 994 1439 701 
Q 1688 409 2113 409 
Q 2538 409 2786 701 
Q 3034 994 3034 1497 
Q 3034 2003 2786 2293 
Q 2538 2584 2113 2584 
z
M 3366 4563 
L 3366 3988 
Q 3128 4100 2886 4159 
Q 2644 4219 2406 4219 
Q 1781 4219 1451 3797 
Q 1122 3375 1075 2522 
Q 1259 2794 1537 2939 
Q 1816 3084 2150 3084 
Q 2853 3084 3261 2657 
Q 3669 2231 3669 1497 
Q 3669 778 3244 343 
Q 2819 -91 2113 -91 
Q 1303 -91 875 529 
Q 447 1150 447 2328 
Q 447 3434 972 4092 
Q 1497 4750 2381 4750 
Q 2619 4750 2861 4703 
Q 3103 4656 3366 4563 
z
" transform="scale(0.015625)"/>
       </defs>
       <use xlink:href="#DejaVuSans-36"/>
      </g>
     </g>
    </g>
    <g id="xtick_8">
     <g id="line2d_8">
      <g>
       <use xlink:href="#mfaef421e5f" x="816.576799" y="534.04" style="stroke: #000000; stroke-width: 0.8"/>
      </g>
     </g>
     <g id="text_8">
      <!-- 7 -->
      <g transform="translate(813.395549 548.638438) scale(0.1 -0.1)">
       <defs>
        <path id="DejaVuSans-37" d="M 525 4666 
L 3525 4666 
L 3525 4397 
L 1831 0 
L 1172 0 
L 2766 4134 
L 525 4134 
L 525 4666 
z
" transform="scale(0.015625)"/>
       </defs>
       <use xlink:href="#DejaVuSans-37"/>
      </g>
     </g>
    </g>
    <g id="text_9">
     <!-- Retention Time (min) -->
     <g transform="translate(397.61 562.316562) scale(0.1 -0.1)">
      <defs>
       <path id="DejaVuSans-52" d="M 2841 2188 
Q 3044 2119 3236 1894 
Q 3428 1669 3622 1275 
L 4263 0 
L 3584 0 
L 2988 1197 
Q 2756 1666 2539 1819 
Q 2322 1972 1947 1972 
L 1259 1972 
L 1259 0 
L 628 0 
L 628 4666 
L 2053 4666 
Q 2853 4666 3247 4331 
Q 3641 3997 3641 3322 
Q 3641 2881 3436 2590 
Q 3231 2300 2841 2188 
z
M 1259 4147 
L 1259 2491 
L 2053 2491 
Q 2509 2491 2742 2702 
Q 2975 2913 2975 3322 
Q 2975 3731 2742 3939 
Q 2509 4147 2053 4147 
L 1259 4147 
z
" transform="scale(0.015625)"/>
       <path id="DejaVuSans-65" d="M 3597 1894 
L 3597 1613 
L 953 1613 
Q 991 1019 1311 708 
Q 1631 397 2203 397 
Q 2534 397 2845 478 
Q 3156 559 3463 722 
L 3463 178 
Q 3153 47 2828 -22 
Q 2503 -91 2169 -91 
Q 1331 -91 842 396 
Q 353 884 353 1716 
Q 353 2575 817 3079 
Q 1281 3584 2069 3584 
Q 2775 3584 3186 3129 
Q 3597 2675 3597 1894 
z
M 3022 2063 
Q 3016 2534 2758 2815 
Q 2500 3097 2075 3097 
Q 1594 3097 1305 2825 
Q 1016 2553 972 2059 
L 3022 2063 
z
" transform="scale(0.015625)"/>
       <path id="DejaVuSans-74" d="M 1172 4494 
L 1172 3500 
L 2356 3500 
L 2356 3053 
L 1172 3053 
L 1172 1153 
Q 1172 725 1289 603 
Q 1406 481 1766 481 
L 2356 481 
L 2356 0 
L 1766 0 
Q 1100 0 847 248 
Q 594 497 594 1153 
L 594 3053 
L 172 3053 
L 172 3500 
L 594 3500 
L 594 4494 
L 1172 4494 
z
" transform="scale(0.015625)"/>
       <path id="DejaVuSans-6e" d="M 3513 2113 
L 3513 0 
L 2938 0 
L 2938 2094 
Q 2938 2591 2744 2837 
Q 2550 3084 2163 3084 
Q 1697 3084 1428 2787 
Q 1159 2491 1159 1978 
L 1159 0 
L 581 0 
L 581 3500 
L 1159 3500 
L 1159 2956 
Q 1366 3272 1645 3428 
Q 1925 3584 2291 3584 
Q 2894 3584 3203 3211 
Q 3513 2838 3513 2113 
z
" transform="scale(0.015625)"/>
       <path id="DejaVuSans-69" d="M 603 3500 
L 1178 3500 
L 1178 0 
L 603 0 
L 603 3500 
z
M 603 4863 
L 1178 4863 
L 1178 4134 
L 603 4134 
L 603 4863 
z
" transform="scale(0.015625)"/>
       <path id="DejaVuSans-6f" d="M 1959 3097 
Q 1497 3097 1228 2736 
Q 959 2375 959 1747 
Q 959 1119 1226 758 
Q 1494 397 1959 397 
Q 2419 397 2687 759 
Q 2956 1122 2956 1747 
Q 2956 2369 2687 2733 
Q 2419 3097 1959 3097 
z
M 1959 3584 
Q 2709 3584 3137 3096 
Q 3566 2609 3566 1747 
Q 3566 888 3137 398 
Q 2709 -91 1959 -91 
Q 1206 -91 779 398 
Q 353 888 353 1747 
Q 353 2609 779 3096 
Q 1206 3584 1959 3584 
z
" transform="scale(0.015625)"/>
       <path id="DejaVuSans-20" transform="scale(0.015625)"/>
       <path id="DejaVuSans-54" d="M -19 4666 
L 3928 4666 
L 3928 4134 
L 2272 4134 
L 2272 0 
L 1638 0 
L 1638 4134 
L -19 4134 
L -19 4666 
z
" transform="scale(0.015625)"/>
       <path id="DejaVuSans-6d" d="M 3328 2828 
Q 3544 3216 3844 3400 
Q 4144 3584 4550 3584 
Q 5097 3584 5394 3201 
Q 5691 2819 5691 2113 
L 5691 0 
L 5113 0 
L 5113 2094 
Q 5113 2597 4934 2840 
Q 4756 3084 4391 3084 
Q 3944 3084 3684 2787 
Q 3425 2491 3425 1978 
L 3425 0 
L 2847 0 
L 2847 2094 
Q 2847 2600 2669 2842 
Q 2491 3084 2119 3084 
Q 1678 3084 1418 2786 
Q 1159 2488 1159 1978 
L 1159 0 
L 581 0 
L 581 3500 
L 1159 3500 
L 1159 2956 
Q 1356 3278 1631 3431 
Q 1906 3584 2284 3584 
Q 2666 3584 2933 3390 
Q 3200 3197 3328 2828 
z
" transform="scale(0.015625)"/>
       <path id="DejaVuSans-28" d="M 1984 4856 
Q 1566 4138 1362 3434 
Q 1159 2731 1159 2009 
Q 1159 1288 1364 580 
Q 1569 -128 1984 -844 
L 1484 -844 
Q 1016 -109 783 600 
Q 550 1309 550 2009 
Q 550 2706 781 3412 
Q 1013 4119 1484 4856 
L 1984 4856 
z
" transform="scale(0.015625)"/>
       <path id="DejaVuSans-29" d="M 513 4856 
L 1013 4856 
Q 1481 4119 1714 3412 
Q 1947 2706 1947 2009 
Q 1947 1309 1714 600 
Q 1481 -109 1013 -844 
L 513 -844 
Q 928 -128 1133 580 
Q 1338 1288 1338 2009 
Q 1338 2731 1133 3434 
Q 928 4138 513 4856 
z
" transform="scale(0.015625)"/>
      </defs>
      <use xlink:href="#DejaVuSans-52"/>
      <use xlink:href="#DejaVuSans-65" x="64.982422"/>
      <use xlink:href="#DejaVuSans-74" x="126.505859"/>
      <use xlink:href="#DejaVuSans-65" x="165.714844"/>
      <use xlink:href="#DejaVuSans-6e" x="227.238281"/>
      <use xlink:href="#DejaVuSans-74" x="290.617188"/>
      <use xlink:href="#DejaVuSans-69" x="329.826172"/>
      <use xlink:href="#DejaVuSans-6f" x="357.609375"/>
      <use xlink:href="#DejaVuSans-6e" x="418.791016"/>
      <use xlink:href="#DejaVuSans-20" x="482.169922"/>
      <use xlink:href="#DejaVuSans-54" x="513.957031"/>
      <use xlink:href="#DejaVuSans-69" x="571.916016"/>
      <use xlink:href="#DejaVuSans-6d" x="599.699219"/>
      <use xlink:href="#DejaVuSans-65" x="697.111328"/>
      <use xlink:href="#DejaVuSans-20" x="758.634766"/>
      <use xlink:href="#DejaVuSans-28" x="790.421875"/>
      <use xlink:href="#DejaVuSans-6d" x="829.435547"/>
      <use xlink:href="#DejaVuSans-69" x="926.847656"/>
      <use xlink:href="#DejaVuSans-6e" x="954.630859"/>
      <use xlink:href="#DejaVuSans-29" x="1018.009766"/>
     </g>
    </g>
   </g>
   <g id="matplotlib.axis_2">
    <g id="ytick_1">
     <g id="line2d_9">
      <defs>
       <path id="m70c654f157" d="M 0 0 
L -3.5 0 
" style="stroke: #000000; stroke-width: 0.8"/>
      </defs>
      <g>
       <use xlink:href="#m70c654f157" x="47.72" y="510.710901" style="stroke: #000000; stroke-width: 0.8"/>
      </g>
     </g>
     <g id="text_10">
      <!-- 0.0 -->
      <g style="fill: #0000ff" transform="translate(24.816875 514.51012) scale(0.1 -0.1)">
       <defs>
        <path id="DejaVuSans-2e" d="M 684 794 
L 1344 794 
L 1344 0 
L 684 0 
L 684 794 
z
" transform="scale(0.015625)"/>
       </defs>
       <use xlink:href="#DejaVuSans-30"/>
       <use xlink:href="#DejaVuSans-2e" x="63.623047"/>
       <use xlink:href="#DejaVuSans-30" x="95.410156"/>
      </g>
     </g>
    </g>
    <g id="ytick_2">
     <g id="line2d_10">
      <g>
       <use xlink:href="#m70c654f157" x="47.72" y="418.555267" style="stroke: #000000; stroke-width: 0.8"/>
      </g>
     </g>
     <g id="text_11">
      <!-- 0.5 -->
      <g style="fill: #0000ff" transform="translate(24.816875 422.354485) scale(0.1 -0.1)">
       <use xlink:href="#DejaVuSans-30"/>
       <use xlink:href="#DejaVuSans-2e" x="63.623047"/>
       <use xlink:href="#DejaVuSans-35" x="95.410156"/>
      </g>
     </g>
    </g>
    <g id="ytick_3">
     <g id="line2d_11">
      <g>
       <use xlink:href="#m70c654f157" x="47.72" y="326.399632" style="stroke: #000000; stroke-width: 0.8"/>
      </g>
     </g>
     <g id="text_12">
      <!-- 1.0 -->
      <g style="fill: #0000ff" transform="translate(24.816875 330.19885) scale(0.1 -0.1)">
       <use xlink:href="#DejaVuSans-31"/>
       <use xlink:href="#DejaVuSans-2e" x="63.623047"/>
       <use xlink:href="#DejaVuSans-30" x="95.410156"/>
      </g>
     </g>
    </g>
    <g id="ytick_4">
     <g id="line2d_12">
      <g>
       <use xlink:href="#m70c654f157" x="47.72" y="234.243997" style="stroke: #000000; stroke-width: 0.8"/>
      </g>
     </g>
     <g id="text_13">
      <!-- 1.5 -->
      <g style="fill: #0000ff" transform="translate(24.816875 238.043216) scale(0.1 -0.1)">
       <use xlink:href="#DejaVuSans-31"/>
       <use xlink:href="#DejaVuSans-2e" x="63.623047"/>
       <use xlink:href="#DejaVuSans-35" x="95.410156"/>
      </g>
     </g>
    </g>
    <g id="ytick_5">
     <g id="line2d_13">
      <g>
       <use xlink:href="#m70c654f157" x="47.72" y="142.088362" style="stroke: #000000; stroke-width: 0.8"/>
      </g>
     </g>
     <g id="text_14">
      <!-- 2.0 -->
      <g style="fill: #0000ff" transform="translate(24.816875 145.887581) scale(0.1 -0.1)">
       <use xlink:href="#DejaVuSans-32"/>
       <use xlink:href="#DejaVuSans-2e" x="63.623047"/>
       <use xlink:href="#DejaVuSans-30" x="95.410156"/>
      </g>
     </g>
    </g>
    <g id="ytick_6">
     <g id="line2d_14">
      <g>
       <use xlink:href="#m70c654f157" x="47.72" y="49.932727" style="stroke: #000000; stroke-width: 0.8"/>
      </g>
     </g>
     <g id="text_15">
      <!-- 2.5 -->
      <g style="fill: #0000ff" transform="translate(24.816875 53.731946) scale(0.1 -0.1)">
       <use xlink:href="#DejaVuSans-32"/>
       <use xlink:href="#DejaVuSans-2e" x="63.623047"/>
       <use xlink:href="#DejaVuSans-35" x="95.410156"/>
      </g>
     </g>
    </g>
    <g id="text_16">
     <!-- Normalized Intensity -->
     <g style="fill: #0000ff" transform="translate(18.737187 332.167031) rotate(-90) scale(0.1 -0.1)">
      <defs>
       <path id="DejaVuSans-4e" d="M 628 4666 
L 1478 4666 
L 3547 763 
L 3547 4666 
L 4159 4666 
L 4159 0 
L 3309 0 
L 1241 3903 
L 1241 0 
L 628 0 
L 628 4666 
z
" transform="scale(0.015625)"/>
       <path id="DejaVuSans-72" d="M 2631 2963 
Q 2534 3019 2420 3045 
Q 2306 3072 2169 3072 
Q 1681 3072 1420 2755 
Q 1159 2438 1159 1844 
L 1159 0 
L 581 0 
L 581 3500 
L 1159 3500 
L 1159 2956 
Q 1341 3275 1631 3429 
Q 1922 3584 2338 3584 
Q 2397 3584 2469 3576 
Q 2541 3569 2628 3553 
L 2631 2963 
z
" transform="scale(0.015625)"/>
       <path id="DejaVuSans-61" d="M 2194 1759 
Q 1497 1759 1228 1600 
Q 959 1441 959 1056 
Q 959 750 1161 570 
Q 1363 391 1709 391 
Q 2188 391 2477 730 
Q 2766 1069 2766 1631 
L 2766 1759 
L 2194 1759 
z
M 3341 1997 
L 3341 0 
L 2766 0 
L 2766 531 
Q 2569 213 2275 61 
Q 1981 -91 1556 -91 
Q 1019 -91 701 211 
Q 384 513 384 1019 
Q 384 1609 779 1909 
Q 1175 2209 1959 2209 
L 2766 2209 
L 2766 2266 
Q 2766 2663 2505 2880 
Q 2244 3097 1772 3097 
Q 1472 3097 1187 3025 
Q 903 2953 641 2809 
L 641 3341 
Q 956 3463 1253 3523 
Q 1550 3584 1831 3584 
Q 2591 3584 2966 3190 
Q 3341 2797 3341 1997 
z
" transform="scale(0.015625)"/>
       <path id="DejaVuSans-6c" d="M 603 4863 
L 1178 4863 
L 1178 0 
L 603 0 
L 603 4863 
z
" transform="scale(0.015625)"/>
       <path id="DejaVuSans-7a" d="M 353 3500 
L 3084 3500 
L 3084 2975 
L 922 459 
L 3084 459 
L 3084 0 
L 275 0 
L 275 525 
L 2438 3041 
L 353 3041 
L 353 3500 
z
" transform="scale(0.015625)"/>
       <path id="DejaVuSans-64" d="M 2906 2969 
L 2906 4863 
L 3481 4863 
L 3481 0 
L 2906 0 
L 2906 525 
Q 2725 213 2448 61 
Q 2172 -91 1784 -91 
Q 1150 -91 751 415 
Q 353 922 353 1747 
Q 353 2572 751 3078 
Q 1150 3584 1784 3584 
Q 2172 3584 2448 3432 
Q 2725 3281 2906 2969 
z
M 947 1747 
Q 947 1113 1208 752 
Q 1469 391 1925 391 
Q 2381 391 2643 752 
Q 2906 1113 2906 1747 
Q 2906 2381 2643 2742 
Q 2381 3103 1925 3103 
Q 1469 3103 1208 2742 
Q 947 2381 947 1747 
z
" transform="scale(0.015625)"/>
       <path id="DejaVuSans-49" d="M 628 4666 
L 1259 4666 
L 1259 0 
L 628 0 
L 628 4666 
z
" transform="scale(0.015625)"/>
       <path id="DejaVuSans-73" d="M 2834 3397 
L 2834 2853 
Q 2591 2978 2328 3040 
Q 2066 3103 1784 3103 
Q 1356 3103 1142 2972 
Q 928 2841 928 2578 
Q 928 2378 1081 2264 
Q 1234 2150 1697 2047 
L 1894 2003 
Q 2506 1872 2764 1633 
Q 3022 1394 3022 966 
Q 3022 478 2636 193 
Q 2250 -91 1575 -91 
Q 1294 -91 989 -36 
Q 684 19 347 128 
L 347 722 
Q 666 556 975 473 
Q 1284 391 1588 391 
Q 1994 391 2212 530 
Q 2431 669 2431 922 
Q 2431 1156 2273 1281 
Q 2116 1406 1581 1522 
L 1381 1569 
Q 847 1681 609 1914 
Q 372 2147 372 2553 
Q 372 3047 722 3315 
Q 1072 3584 1716 3584 
Q 2034 3584 2315 3537 
Q 2597 3491 2834 3397 
z
" transform="scale(0.015625)"/>
       <path id="DejaVuSans-79" d="M 2059 -325 
Q 1816 -950 1584 -1140 
Q 1353 -1331 966 -1331 
L 506 -1331 
L 506 -850 
L 844 -850 
Q 1081 -850 1212 -737 
Q 1344 -625 1503 -206 
L 1606 56 
L 191 3500 
L 800 3500 
L 1894 763 
L 2988 3500 
L 3597 3500 
L 2059 -325 
z
" transform="scale(0.015625)"/>
      </defs>
      <use xlink:href="#DejaVuSans-4e"/>
      <use xlink:href="#DejaVuSans-6f" x="74.804688"/>
      <use xlink:href="#DejaVuSans-72" x="135.986328"/>
      <use xlink:href="#DejaVuSans-6d" x="175.349609"/>
      <use xlink:href="#DejaVuSans-61" x="272.761719"/>
      <use xlink:href="#DejaVuSans-6c" x="334.041016"/>
      <use xlink:href="#DejaVuSans-69" x="361.824219"/>
      <use xlink:href="#DejaVuSans-7a" x="389.607422"/>
      <use xlink:href="#DejaVuSans-65" x="442.097656"/>
      <use xlink:href="#DejaVuSans-64" x="503.621094"/>
      <use xlink:href="#DejaVuSans-20" x="567.097656"/>
      <use xlink:href="#DejaVuSans-49" x="598.884766"/>
      <use xlink:href="#DejaVuSans-6e" x="628.376953"/>
      <use xlink:href="#DejaVuSans-74" x="691.755859"/>
      <use xlink:href="#DejaVuSans-65" x="730.964844"/>
      <use xlink:href="#DejaVuSans-6e" x="792.488281"/>
      <use xlink:href="#DejaVuSans-73" x="855.867188"/>
      <use xlink:href="#DejaVuSans-69" x="907.966797"/>
      <use xlink:href="#DejaVuSans-74" x="935.75"/>
      <use xlink:href="#DejaVuSans-79" x="974.958984"/>
     </g>
    </g>
   </g>
   <g id="line2d_15">
    <path d="M 84.332727 510.710901 
L 140.190047 510.625539 
L 148.044982 510.262987 
L 150.663294 510.283028 
L 154.154376 510.480473 
L 156.772688 510.560864 
L 162.009312 510.983431 
L 169.864247 510.640837 
L 183.828577 510.649379 
L 195.174595 510.664554 
L 260.632391 510.665128 
L 283.324427 510.660135 
L 327.835729 510.644675 
L 336.563435 510.516603 
L 340.054517 510.387104 
L 347.036682 510.601478 
L 354.891618 510.558894 
L 357.50993 510.392199 
L 358.3827 510.16223 
L 359.255471 509.407028 
L 360.128241 507.703733 
L 361.873783 502.688902 
L 362.746553 501.243443 
L 363.619324 501.112571 
L 364.492094 501.874057 
L 368.855948 507.369421 
L 369.728718 508.017765 
L 370.601489 508.397145 
L 371.474259 508.504503 
L 373.219801 508.15277 
L 374.092571 508.011979 
L 375.838112 508.089178 
L 376.710883 507.672446 
L 377.583654 506.404764 
L 378.456424 504.532565 
L 379.329195 502.946549 
L 380.201966 502.464688 
L 381.074736 503.223786 
L 383.693048 507.768848 
L 384.565819 508.683984 
L 385.438589 509.204867 
L 386.31136 509.460216 
L 387.18413 509.560291 
L 388.056901 509.462084 
L 388.929672 508.731009 
L 389.802442 506.512516 
L 390.675213 502.234946 
L 392.420754 491.752574 
L 393.293525 489.548416 
L 394.166295 490.572959 
L 395.039066 493.888206 
L 396.784607 501.62129 
L 397.657378 504.29056 
L 398.530148 505.981897 
L 399.402919 506.615242 
L 400.27569 504.194743 
L 401.14846 492.807463 
L 402.021231 465.272749 
L 404.639543 336.890177 
L 405.512313 326.399632 
L 406.385084 341.72734 
L 409.003396 439.66235 
L 409.876166 461.481127 
L 410.748937 475.251682 
L 411.621708 483.542296 
L 412.494478 488.873393 
L 413.367249 492.865486 
L 414.24002 496.231508 
L 415.11279 499.137713 
L 415.985561 501.561349 
L 416.858331 503.486785 
L 417.731102 504.95524 
L 418.603873 506.046399 
L 419.476643 506.848842 
L 420.349414 507.44038 
L 422.094955 508.200727 
L 422.967726 508.398199 
L 423.840496 508.439094 
L 426.458808 508.087861 
L 427.331579 508.175192 
L 429.949891 508.948996 
L 431.695432 509.382705 
L 433.440973 509.542101 
L 436.932055 509.581946 
L 442.168679 509.922243 
L 444.786991 510.142657 
L 446.532532 510.142203 
L 448.278073 509.905014 
L 449.150844 509.504768 
L 450.023615 508.566553 
L 450.896385 506.898381 
L 454.387468 498.224303 
L 455.260238 497.523216 
L 456.133009 498.284704 
L 457.00578 500.280584 
L 458.751321 505.148681 
L 459.624091 506.915211 
L 460.496862 508.048578 
L 461.369633 508.689513 
L 462.242403 509.027799 
L 463.987945 509.351651 
L 468.351798 509.89463 
L 477.079504 510.353707 
L 521.590805 510.614546 
L 525.954658 510.536369 
L 529.445741 510.097952 
L 531.191282 510.233715 
L 533.809594 510.50096 
L 536.427906 510.473474 
L 539.046217 510.474585 
L 543.41007 510.572306 
L 548.646694 510.512972 
L 554.756088 510.606572 
L 558.247171 510.496193 
L 561.738253 510.316727 
L 569.593189 510.525128 
L 573.084271 510.386273 
L 580.066436 510.600677 
L 816.587273 510.674518 
L 816.587273 510.674518 
" clip-path="url(#pfc1bdc805a)" style="fill: none; stroke: #0000ff; stroke-width: 1.5; stroke-linecap: square"/>
   </g>
   <g id="line2d_16">
    <path d="M 88.623791 234.23752 
L 88.623791 234.242533 
L 244.653532 234.243129 
L 402.476294 234.171172 
L 402.476294 234.000271 
L 402.723113 233.813036 
L 402.723113 233.210209 
L 402.969234 232.816288 
L 402.969234 231.015912 
L 403.213785 229.922822 
L 403.213785 224.435723 
L 403.453622 223.056805 
L 403.453622 214.778485 
L 403.688572 212.826931 
L 403.688572 198.220369 
L 403.922649 198.701283 
L 403.922649 184.365888 
L 404.156551 187.676584 
L 404.156551 167.686729 
L 404.389756 172.006501 
L 404.389756 144.707613 
L 404.6268 153.454143 
L 404.6268 124.969644 
L 404.860005 137.950348 
L 404.860005 103.721978 
L 405.093034 120.305074 
L 405.093034 90.688584 
L 405.326064 114.293381 
L 405.326064 83.256844 
L 405.559094 113.809744 
L 405.559094 84.264466 
L 405.792124 109.671953 
L 405.792124 70.835189 
L 406.025153 100.715327 
L 406.025153 65.053621 
L 406.260103 97.631505 
L 406.260103 54.866968 
L 406.493133 85.652159 
L 406.493133 51.582271 
L 406.726163 84.646353 
L 406.726163 49.932727 
L 406.959192 87.24435 
L 406.959192 54.391058 
L 407.192048 89.254769 
L 407.192048 58.740909 
L 407.425077 92.675725 
L 407.425077 66.362957 
L 407.65898 103.382075 
L 407.65898 63.999591 
L 407.892359 99.377895 
L 407.892359 72.677855 
L 408.129229 102.068679 
L 408.129229 70.164598 
L 408.362259 105.780206 
L 408.362259 77.66633 
L 408.595114 109.557698 
L 408.595114 86.793901 
L 408.828318 120.908049 
L 408.828318 98.188935 
L 409.061348 130.729458 
L 409.061348 101.469125 
L 409.294378 131.325831 
L 409.294378 110.604571 
L 409.527582 141.28339 
L 409.527582 119.81433 
L 409.760612 149.376163 
L 409.760612 122.235434 
L 409.993816 148.515269 
L 409.993816 128.854148 
L 410.22702 151.678832 
L 410.22702 134.786058 
L 410.460225 161.88245 
L 410.460225 138.131916 
L 410.693603 157.932006 
L 410.693603 144.653698 
L 410.926982 164.443049 
L 410.926982 149.020204 
L 411.160187 172.261805 
L 411.160187 155.698023 
L 411.393565 171.849779 
L 411.393565 158.57268 
L 411.630784 176.049755 
L 411.630784 161.738217 
L 411.864338 180.794325 
L 411.864338 164.82582 
L 412.097717 178.155309 
L 412.097717 166.702912 
L 412.331096 183.467087 
L 412.331096 168.801156 
L 412.564649 184.749071 
L 412.564649 174.885859 
L 412.798202 187.017458 
L 412.798202 176.77302 
L 413.032803 190.007506 
L 413.032803 179.056438 
L 413.266357 189.906893 
L 413.266357 181.237169 
L 413.500085 190.14455 
L 413.500085 182.399762 
L 413.735907 194.786253 
L 413.735907 185.837843 
L 413.969635 196.090795 
L 413.969635 189.737638 
L 414.203363 199.905278 
L 414.203363 189.403636 
L 414.437266 198.859954 
L 414.437266 190.795233 
L 414.671168 198.495199 
L 414.671168 189.312202 
L 414.905071 199.250671 
L 414.905071 192.990156 
L 415.144035 201.049036 
L 415.144035 193.466627 
L 415.378112 202.790344 
L 415.378112 196.130927 
L 415.612189 203.673002 
L 415.612189 198.774145 
L 415.846092 208.632071 
L 415.846092 201.907769 
L 416.080169 210.227916 
L 416.080169 205.143417 
L 416.314421 210.538242 
L 416.314421 205.454184 
L 416.549021 212.398444 
L 416.549021 205.618652 
L 416.783622 211.386738 
L 416.783622 206.422817 
L 417.017874 211.807743 
L 417.017874 206.445062 
L 417.252649 213.353262 
L 417.252649 209.419256 
L 417.487599 214.893712 
L 417.487599 210.809197 
L 417.722374 217.60098 
L 417.722374 212.649517 
L 417.95715 217.2549 
L 417.95715 214.13315 
L 418.192099 217.857457 
L 418.192099 213.733642 
L 418.427398 219.343376 
L 418.427398 215.950671 
L 418.666887 219.548438 
L 418.666887 216.271623 
L 418.90236 220.780904 
L 418.90236 217.812869 
L 419.138008 220.729412 
L 419.138008 216.997973 
L 419.373831 221.42338 
L 419.373831 219.197073 
L 419.609479 222.07871 
L 419.609479 218.869844 
L 419.848094 222.906482 
L 419.848094 220.695717 
L 420.08479 223.185586 
L 420.08479 220.407563 
L 420.321136 224.2026 
L 420.321136 221.869378 
L 420.557482 224.242627 
L 420.557482 221.258772 
L 420.794178 224.306996 
L 420.794178 221.771086 
L 421.030873 224.421929 
L 421.030873 222.371116 
L 421.268092 225.412793 
L 421.268092 222.834015 
L 421.505137 225.612565 
L 421.505137 223.876485 
L 421.742181 226.034221 
L 421.742181 223.542369 
L 421.980098 226.324571 
L 421.980098 225.078775 
L 422.221332 226.881607 
L 422.221332 225.115051 
L 422.459249 227.617262 
L 422.459249 225.521475 
L 422.69769 226.868919 
L 422.69769 225.336342 
L 422.935957 226.974147 
L 422.935957 225.318625 
L 423.175096 227.467432 
L 423.175096 226.169989 
L 423.413188 227.948933 
L 423.413188 227.102938 
L 423.652327 229.0044 
L 423.652327 227.050092 
L 423.891117 228.492715 
L 423.891117 227.234031 
L 424.129383 228.560725 
L 424.129383 227.281222 
L 424.369221 229.203544 
L 424.369221 227.638021 
L 424.609233 228.919019 
L 424.609233 227.916392 
L 424.848721 229.33548 
L 424.848721 228.483224 
L 425.088035 229.983917 
L 425.088035 228.397153 
L 425.329094 229.464268 
L 425.329094 228.05092 
L 425.569106 229.032749 
L 425.569106 228.1857 
L 425.812609 229.742721 
L 425.812609 228.847455 
L 426.052795 230.215788 
L 426.052795 229.035886 
L 426.293505 230.054119 
L 426.293505 228.730412 
L 426.534914 229.648358 
L 426.534914 229.045717 
L 426.776322 230.433498 
L 426.776322 229.629331 
L 427.016858 230.977537 
L 427.016858 229.918487 
L 427.25879 230.614517 
L 427.25879 229.590365 
L 427.498976 230.494268 
L 427.498976 229.960589 
L 427.74021 231.093226 
L 427.74021 230.465302 
L 427.981444 231.367836 
L 427.981444 230.460349 
L 428.223376 231.030566 
L 428.223376 230.177016 
L 428.46426 231.006563 
L 428.46426 230.495806 
L 428.703749 231.467506 
L 428.703749 230.785293 
L 428.945506 231.70869 
L 428.945506 231.016151 
L 429.19058 231.523138 
L 429.19058 230.718114 
L 429.438098 231.491162 
L 429.438098 230.688111 
L 429.681601 231.175823 
L 429.681601 230.498525 
L 429.924057 231.272018 
L 429.924057 230.452017 
L 430.409317 231.832748 
L 430.409317 231.422794 
L 430.652645 232.306829 
L 430.652645 231.769852 
L 430.897545 232.232567 
L 430.897545 231.705907 
L 431.143317 232.192638 
L 431.143317 231.687631 
L 431.389438 232.257916 
L 431.389438 231.827805 
L 431.635036 232.39375 
L 431.635036 231.783932 
L 431.88011 232.309106 
L 431.88011 231.858771 
L 432.12658 232.322397 
L 432.12658 231.863756 
L 432.372353 232.505386 
L 432.372353 232.046893 
L 432.619696 232.535324 
L 432.619696 232.121617 
L 432.866341 232.570094 
L 432.866341 232.159683 
L 433.116826 232.646618 
L 433.116826 232.171612 
L 433.363122 232.617445 
L 433.363122 232.249903 
L 433.608196 232.66237 
L 433.608196 232.21555 
L 433.855015 232.696552 
L 433.855015 232.253851 
L 434.102184 232.624311 
L 434.102184 232.174626 
L 434.349527 232.548549 
L 434.349527 232.027572 
L 434.596347 232.459526 
L 434.596347 231.938681 
L 434.842294 232.330561 
L 434.842294 231.867033 
L 435.088764 232.376657 
L 435.088764 231.845984 
L 435.335933 232.364903 
L 435.335933 231.987004 
L 435.582752 232.478381 
L 435.582752 232.04901 
L 435.830095 232.615763 
L 435.830095 232.239794 
L 436.08058 232.715234 
L 436.08058 232.460972 
L 436.328622 232.954555 
L 436.328622 232.694427 
L 436.575616 233.136339 
L 436.575616 232.854849 
L 436.826625 233.156188 
L 436.826625 232.730834 
L 437.073619 232.960948 
L 437.073619 232.497471 
L 437.320264 232.760791 
L 437.320264 232.340597 
L 437.566909 232.728572 
L 437.566909 232.386946 
L 437.813554 232.816324 
L 437.813554 232.497574 
L 438.060722 232.931641 
L 438.060722 232.630478 
L 438.308066 233.002281 
L 438.308066 232.748449 
L 438.555932 233.088994 
L 438.555932 232.896754 
L 438.804323 233.226459 
L 438.804323 233.035633 
L 439.052539 233.364965 
L 439.052539 233.174677 
L 439.300406 233.386929 
L 439.300406 233.166207 
L 439.548622 233.381699 
L 439.548622 233.06516 
L 439.796489 233.231422 
L 439.796489 232.919948 
L 440.043483 233.118175 
L 440.043483 232.849159 
L 440.290651 233.124401 
L 440.290651 232.853374 
L 440.542009 233.184206 
L 440.542009 232.98962 
L 441.037918 233.43747 
L 441.037918 233.24695 
L 441.28561 233.488039 
L 441.28561 233.256767 
L 441.533477 233.443936 
L 441.533477 233.214739 
L 441.780994 233.386996 
L 441.780994 233.123208 
L 442.029036 233.313906 
L 442.029036 233.048518 
L 442.276205 233.267694 
L 442.276205 233.002832 
L 442.523722 233.247579 
L 442.523722 233.042362 
L 442.771764 233.331923 
L 442.771764 233.155063 
L 443.269417 233.58603 
L 443.269417 233.422973 
L 443.518506 233.617191 
L 443.518506 233.387076 
L 443.766897 233.511756 
L 443.766897 233.250427 
L 444.015287 233.390423 
L 444.015287 233.166341 
L 444.526207 233.481288 
L 444.526207 233.321029 
L 444.775296 233.55328 
L 444.775296 233.419384 
L 445.274346 233.682021 
L 445.274346 233.496532 
L 445.523959 233.615285 
L 445.523959 233.40986 
L 445.772873 233.51398 
L 445.772873 233.368391 
L 446.272796 233.649976 
L 446.272796 233.559291 
L 446.523106 233.721173 
L 446.523106 233.553879 
L 446.77237 233.667899 
L 446.77237 233.476616 
L 447.022855 233.584871 
L 447.022855 233.448347 
L 447.523301 233.72796 
L 447.523301 233.594353 
L 447.776929 233.728703 
L 447.776929 233.584334 
L 448.276852 233.727778 
L 448.276852 233.590146 
L 448.526289 233.735437 
L 448.526289 233.563915 
L 448.776251 233.686807 
L 448.776251 233.505576 
L 449.025689 233.655978 
L 449.025689 233.512721 
L 449.525088 233.78361 
L 449.525088 233.665431 
L 449.774701 233.812912 
L 449.774701 233.665198 
L 450.023964 233.766242 
L 450.023964 233.594722 
L 450.272529 233.714251 
L 450.272529 233.555316 
L 450.520919 233.6873 
L 450.520919 233.53809 
L 451.022762 233.815673 
L 451.022762 233.694501 
L 451.275691 233.842923 
L 451.275691 233.693419 
L 451.523558 233.75929 
L 451.523558 233.630848 
L 452.020339 233.826819 
L 452.020339 233.746582 
L 452.268032 233.868718 
L 452.268032 233.765903 
L 452.760623 233.870566 
L 452.760623 233.776172 
L 453.005872 233.887609 
L 453.005872 233.804027 
L 453.25112 233.873808 
L 453.25112 233.737866 
L 453.49602 233.836083 
L 453.49602 233.695958 
L 453.740047 233.758334 
L 453.740047 233.608454 
L 453.982851 233.741001 
L 453.982851 233.602768 
L 454.463748 233.83289 
L 454.463748 233.753522 
L 454.704109 233.894199 
L 454.704109 233.75542 
L 454.947961 233.844412 
L 454.947961 233.717105 
L 455.67079 233.948314 
L 455.67079 233.874323 
L 455.912198 233.969194 
L 455.912198 233.847591 
L 456.395888 233.891503 
L 456.395888 233.853436 
L 456.876784 233.99213 
L 456.876784 233.88859 
L 457.596994 233.903297 
L 457.596994 233.942641 
L 458.077891 233.975358 
L 458.077891 233.927876 
L 458.562977 234.006429 
L 458.562977 233.914066 
L 459.048412 233.937754 
L 459.048412 233.848698 
L 459.535418 233.939212 
L 459.535418 233.854309 
L 460.022948 233.981522 
L 460.022948 233.918977 
L 460.512223 234.004036 
L 460.512223 233.935984 
L 461.003942 234.017044 
L 461.003942 233.965652 
L 461.738815 234.020242 
L 461.738815 233.977339 
L 462.479099 234.027346 
L 462.479099 233.989322 
L 462.970643 234.049082 
L 462.970643 234.000131 
L 463.709356 234.034558 
L 463.709356 233.991472 
L 464.202122 234.046272 
L 464.202122 233.998618 
L 464.941708 234.035742 
L 464.941708 233.97204 
L 465.434125 234.004097 
L 465.434125 233.952321 
L 465.930906 234.002849 
L 465.930906 233.932594 
L 466.675031 233.99915 
L 466.675031 233.955185 
L 467.417584 234.06207 
L 467.417584 233.998597 
L 467.912794 233.997685 
L 467.912794 233.935529 
L 468.406782 233.985758 
L 468.406782 233.92787 
L 468.902341 233.984709 
L 468.902341 233.941575 
L 469.650655 234.062084 
L 469.650655 233.996305 
L 470.146214 234.005914 
L 470.146214 233.949228 
L 470.892957 234.029868 
L 470.892957 233.984295 
L 471.390087 234.032546 
L 471.390087 233.965734 
L 472.135433 234.023033 
L 472.135433 233.973893 
L 472.634308 234.049383 
L 472.634308 233.999598 
L 473.385938 234.048177 
L 473.385938 234.002503 
L 473.887432 234.065448 
L 473.887432 233.997896 
L 474.635921 234.057169 
L 474.635921 234.002602 
L 475.38406 234.042332 
L 475.38406 233.994278 
L 475.883459 234.0467 
L 475.883459 233.989872 
L 476.637533 234.039401 
L 476.637533 233.988498 
L 477.387766 234.035924 
L 477.387766 233.988051 
L 477.888038 233.996677 
L 477.888038 233.942949 
L 478.639319 234.039791 
L 478.639319 233.987581 
L 479.392171 234.035492 
L 479.392171 233.986909 
L 480.399349 234.054494 
L 480.399349 234.000871 
L 481.402162 234.071772 
L 481.402162 234.014096 
L 482.15065 234.059753 
L 482.15065 234.01568 
L 482.898964 234.06149 
L 482.898964 234.018935 
L 483.651466 234.060302 
L 483.651466 234.013447 
L 484.400653 234.061112 
L 484.400653 234.017752 
L 485.150712 234.05853 
L 485.150712 234.017494 
L 485.899898 234.068485 
L 485.899898 234.016252 
L 486.652226 234.060719 
L 486.652226 234.01412 
L 487.661149 234.0598 
L 487.661149 234.016769 
L 488.162294 234.065369 
L 488.162294 234.015331 
L 488.914273 234.060573 
L 488.914273 234.01382 
L 489.91761 234.082885 
L 489.91761 234.034546 
L 490.675175 234.069655 
L 490.675175 234.029197 
L 491.428725 234.074641 
L 491.428725 234.016404 
L 492.433983 234.075115 
L 492.433983 234.026321 
L 493.187358 234.05035 
L 493.187358 234.011557 
L 493.941781 234.053962 
L 493.941781 234.018783 
L 494.699695 234.094607 
L 494.699695 234.055456 
L 495.709316 234.050421 
L 496.462866 234.060924 
L 496.462866 234.026744 
L 497.216766 234.089092 
L 497.216766 234.040913 
L 497.974854 234.053299 
L 497.974854 234.00835 
L 498.730324 234.085237 
L 498.730324 234.037931 
L 499.485271 234.091425 
L 499.485271 234.043744 
L 500.239519 234.085738 
L 500.239519 234.046128 
L 500.742759 234.075514 
L 500.742759 234.031635 
L 501.751682 234.079534 
L 501.751682 234.028426 
L 502.50593 234.086229 
L 502.50593 234.046611 
L 503.516249 234.098091 
L 503.516249 234.054393 
L 504.270498 234.080218 
L 504.270498 234.03564 
L 505.028761 234.084172 
L 505.028761 234.038911 
L 506.035589 234.080687 
L 506.035589 234.043437 
L 506.792456 234.09234 
L 506.792456 234.05124 
L 507.546529 234.077622 
L 507.546529 234.032789 
L 508.305316 234.081461 
L 508.305316 234.048095 
L 509.059565 234.067522 
L 509.059565 234.030296 
L 509.817653 234.072905 
L 509.817653 234.033247 
L 510.574345 234.09626 
L 510.574345 234.05875 
L 511.329466 234.088798 
L 511.329466 234.04858 
L 512.341008 234.095073 
L 512.341008 234.054458 
L 513.348185 234.098642 
L 513.348185 234.064658 
L 514.355886 234.089541 
L 514.355886 234.043342 
L 515.3683 234.10229 
L 515.3683 234.061983 
L 516.123944 234.086135 
L 516.123944 234.048638 
L 517.134264 234.099075 
L 517.134264 234.06266 
L 518.14179 234.112235 
L 518.14179 234.07435 
L 519.152808 234.107348 
L 519.152808 234.066948 
L 520.16173 234.110633 
L 520.16173 234.076083 
L 521.169082 234.105247 
L 521.169082 234.068478 
L 522.176783 234.110161 
L 522.176783 234.073949 
L 523.441079 234.11101 
L 523.441079 234.068197 
L 524.706247 234.114932 
L 524.706247 234.086937 
L 525.71517 234.114884 
L 525.71517 234.072703 
L 526.726886 234.118498 
L 526.726886 234.09137 
L 527.734761 234.1232 
L 527.734761 234.091012 
L 534.738571 234.03159 
L 536.244275 234.074513 
L 536.244275 234.045133 
L 537.759404 234.089641 
L 537.759404 234.08809 
L 580.807768 234.168516 
L 580.807768 234.146582 
L 582.822122 234.172703 
L 582.822122 234.15059 
L 584.576391 234.161482 
L 584.576391 234.144626 
L 586.087157 234.167055 
L 586.087157 234.152993 
L 587.858532 234.180646 
L 587.858532 234.164448 
L 590.879017 234.179357 
L 590.879017 234.155826 
L 592.384372 234.186447 
L 592.384372 234.167993 
L 592.384372 234.181093 
L 597.416069 234.07758 
L 597.416069 234.028481 
L 598.16927 234.076642 
L 598.16927 234.03113 
L 598.918805 234.074106 
L 598.918805 234.033667 
L 599.669912 234.111953 
L 599.669912 234.084211 
L 600.926527 234.142402 
L 600.926527 234.119735 
L 601.928642 234.158707 
L 601.928642 234.132269 
L 603.182464 234.162484 
L 603.182464 234.137691 
L 604.941446 234.173494 
L 604.941446 234.155154 
L 606.444706 234.181282 
L 606.444706 234.159628 
L 608.698724 234.178733 
L 608.698724 234.1653 
L 610.456134 234.184888 
L 610.456134 234.16221 
L 612.962383 234.185903 
L 612.962383 234.172245 
L 615.220066 234.194265 
L 615.220066 234.170606 
L 617.221678 234.186151 
L 617.221678 234.169285 
L 619.4736 234.19642 
L 619.4736 234.18522 
L 620.973544 234.191247 
L 620.973544 234.180189 
L 623.460417 234.193253 
L 623.460417 234.174029 
L 626.203011 234.200143 
L 626.203011 234.18665 
L 629.465951 234.191635 
L 629.465951 234.181665 
L 632.716847 234.194822 
L 632.716847 234.182501 
L 635.467646 234.207793 
L 635.467646 234.195961 
L 641.45363 234.196418 
L 641.45363 234.181558 
L 643.954642 234.194937 
L 643.954642 234.186516 
L 646.206913 234.197136 
L 646.206913 234.185746 
L 648.200147 234.187325 
L 648.200147 234.176809 
L 650.443517 234.210537 
L 650.443517 234.197914 
L 654.931303 234.204898 
L 654.931303 234.193132 
L 657.918273 234.203448 
L 657.918273 234.188583 
L 660.40567 234.211894 
L 660.40567 234.198694 
L 663.638063 234.201884 
L 663.638063 234.187416 
L 666.383275 234.21428 
L 666.383275 234.203089 
L 670.128334 234.201969 
L 670.128334 234.192648 
L 673.125603 234.206947 
L 673.125603 234.198674 
L 675.626789 234.197942 
L 675.626789 234.187585 
L 678.630516 234.186668 
L 816.40434 234.241911 
L 816.40434 234.241911 
" clip-path="url(#pfc1bdc805a)" style="fill: none; stroke: #008000; stroke-width: 1.5; stroke-linecap: square"/>
   </g>
   <g id="patch_3">
    <path d="M 47.72 534.04 
L 47.72 26.88 
" style="fill: none; stroke: #000000; stroke-width: 0.8; stroke-linejoin: miter; stroke-linecap: square"/>
   </g>
   <g id="patch_4">
    <path d="M 853.2 534.04 
L 853.2 26.88 
" style="fill: none; stroke: #000000; stroke-width: 0.8; stroke-linejoin: miter; stroke-linecap: square"/>
   </g>
   <g id="patch_5">
    <path d="M 47.72 534.04 
L 853.2 534.04 
" style="fill: none; stroke: #000000; stroke-width: 0.8; stroke-linejoin: miter; stroke-linecap: square"/>
   </g>
   <g id="patch_6">
    <path d="M 47.72 26.88 
L 853.2 26.88 
" style="fill: none; stroke: #000000; stroke-width: 0.8; stroke-linejoin: miter; stroke-linecap: square"/>
   </g>
   <g id="patch_7">
    <path d="M 454.733633 328.725663 
Q 437.89582 333.983297 421.058006 339.24093 
L 422.250242 343.05912 
Q 415.627765 341.984149 409.005289 340.909177 
Q 413.839412 336.256864 418.673535 331.604551 
L 419.865771 335.422741 
Q 436.703584 330.165107 453.541397 324.907473 
L 454.733633 328.725663 
z
" style="stroke: #000000; stroke-linecap: round"/>
   </g>
   <g id="text_17">
    <!-- Peak: RT=3.08, Area=1.05e+05 -->
    <g style="fill: #ff0000" transform="translate(458.751321 312.0984) scale(0.1 -0.1)">
     <defs>
      <path id="DejaVuSans-50" d="M 1259 4147 
L 1259 2394 
L 2053 2394 
Q 2494 2394 2734 2622 
Q 2975 2850 2975 3272 
Q 2975 3691 2734 3919 
Q 2494 4147 2053 4147 
L 1259 4147 
z
M 628 4666 
L 2053 4666 
Q 2838 4666 3239 4311 
Q 3641 3956 3641 3272 
Q 3641 2581 3239 2228 
Q 2838 1875 2053 1875 
L 1259 1875 
L 1259 0 
L 628 0 
L 628 4666 
z
" transform="scale(0.015625)"/>
      <path id="DejaVuSans-6b" d="M 581 4863 
L 1159 4863 
L 1159 1991 
L 2875 3500 
L 3609 3500 
L 1753 1863 
L 3688 0 
L 2938 0 
L 1159 1709 
L 1159 0 
L 581 0 
L 581 4863 
z
" transform="scale(0.015625)"/>
      <path id="DejaVuSans-3a" d="M 750 794 
L 1409 794 
L 1409 0 
L 750 0 
L 750 794 
z
M 750 3309 
L 1409 3309 
L 1409 2516 
L 750 2516 
L 750 3309 
z
" transform="scale(0.015625)"/>
      <path id="DejaVuSans-3d" d="M 678 2906 
L 4684 2906 
L 4684 2381 
L 678 2381 
L 678 2906 
z
M 678 1631 
L 4684 1631 
L 4684 1100 
L 678 1100 
L 678 1631 
z
" transform="scale(0.015625)"/>
      <path id="DejaVuSans-38" d="M 2034 2216 
Q 1584 2216 1326 1975 
Q 1069 1734 1069 1313 
Q 1069 891 1326 650 
Q 1584 409 2034 409 
Q 2484 409 2743 651 
Q 3003 894 3003 1313 
Q 3003 1734 2745 1975 
Q 2488 2216 2034 2216 
z
M 1403 2484 
Q 997 2584 770 2862 
Q 544 3141 544 3541 
Q 544 4100 942 4425 
Q 1341 4750 2034 4750 
Q 2731 4750 3128 4425 
Q 3525 4100 3525 3541 
Q 3525 3141 3298 2862 
Q 3072 2584 2669 2484 
Q 3125 2378 3379 2068 
Q 3634 1759 3634 1313 
Q 3634 634 3220 271 
Q 2806 -91 2034 -91 
Q 1263 -91 848 271 
Q 434 634 434 1313 
Q 434 1759 690 2068 
Q 947 2378 1403 2484 
z
M 1172 3481 
Q 1172 3119 1398 2916 
Q 1625 2713 2034 2713 
Q 2441 2713 2670 2916 
Q 2900 3119 2900 3481 
Q 2900 3844 2670 4047 
Q 2441 4250 2034 4250 
Q 1625 4250 1398 4047 
Q 1172 3844 1172 3481 
z
" transform="scale(0.015625)"/>
      <path id="DejaVuSans-2c" d="M 750 794 
L 1409 794 
L 1409 256 
L 897 -744 
L 494 -744 
L 750 256 
L 750 794 
z
" transform="scale(0.015625)"/>
      <path id="DejaVuSans-41" d="M 2188 4044 
L 1331 1722 
L 3047 1722 
L 2188 4044 
z
M 1831 4666 
L 2547 4666 
L 4325 0 
L 3669 0 
L 3244 1197 
L 1141 1197 
L 716 0 
L 50 0 
L 1831 4666 
z
" transform="scale(0.015625)"/>
      <path id="DejaVuSans-2b" d="M 2944 4013 
L 2944 2272 
L 4684 2272 
L 4684 1741 
L 2944 1741 
L 2944 0 
L 2419 0 
L 2419 1741 
L 678 1741 
L 678 2272 
L 2419 2272 
L 2419 4013 
L 2944 4013 
z
" transform="scale(0.015625)"/>
     </defs>
     <use xlink:href="#DejaVuSans-50"/>
     <use xlink:href="#DejaVuSans-65" x="56.677734"/>
     <use xlink:href="#DejaVuSans-61" x="118.201172"/>
     <use xlink:href="#DejaVuSans-6b" x="179.480469"/>
     <use xlink:href="#DejaVuSans-3a" x="237.390625"/>
     <use xlink:href="#DejaVuSans-20" x="271.082031"/>
     <use xlink:href="#DejaVuSans-52" x="302.869141"/>
     <use xlink:href="#DejaVuSans-54" x="365.101562"/>
     <use xlink:href="#DejaVuSans-3d" x="426.185547"/>
     <use xlink:href="#DejaVuSans-33" x="509.974609"/>
     <use xlink:href="#DejaVuSans-2e" x="573.597656"/>
     <use xlink:href="#DejaVuSans-30" x="605.384766"/>
     <use xlink:href="#DejaVuSans-38" x="669.007812"/>
     <use xlink:href="#DejaVuSans-2c" x="732.630859"/>
     <use xlink:href="#DejaVuSans-20" x="764.417969"/>
     <use xlink:href="#DejaVuSans-41" x="796.205078"/>
     <use xlink:href="#DejaVuSans-72" x="864.613281"/>
     <use xlink:href="#DejaVuSans-65" x="903.476562"/>
     <use xlink:href="#DejaVuSans-61" x="965"/>
     <use xlink:href="#DejaVuSans-3d" x="1026.279297"/>
     <use xlink:href="#DejaVuSans-31" x="1110.068359"/>
     <use xlink:href="#DejaVuSans-2e" x="1173.691406"/>
     <use xlink:href="#DejaVuSans-30" x="1205.478516"/>
     <use xlink:href="#DejaVuSans-35" x="1269.101562"/>
     <use xlink:href="#DejaVuSans-65" x="1332.724609"/>
     <use xlink:href="#DejaVuSans-2b" x="1394.248047"/>
     <use xlink:href="#DejaVuSans-30" x="1478.037109"/>
     <use xlink:href="#DejaVuSans-35" x="1541.660156"/>
    </g>
    <!-- (81.10% of total) -->
    <g style="fill: #ff0000" transform="translate(458.751321 323.296213) scale(0.1 -0.1)">
     <defs>
      <path id="DejaVuSans-25" d="M 4653 2053 
Q 4381 2053 4226 1822 
Q 4072 1591 4072 1178 
Q 4072 772 4226 539 
Q 4381 306 4653 306 
Q 4919 306 5073 539 
Q 5228 772 5228 1178 
Q 5228 1588 5073 1820 
Q 4919 2053 4653 2053 
z
M 4653 2450 
Q 5147 2450 5437 2106 
Q 5728 1763 5728 1178 
Q 5728 594 5436 251 
Q 5144 -91 4653 -91 
Q 4153 -91 3862 251 
Q 3572 594 3572 1178 
Q 3572 1766 3864 2108 
Q 4156 2450 4653 2450 
z
M 1428 4353 
Q 1159 4353 1004 4120 
Q 850 3888 850 3481 
Q 850 3069 1003 2837 
Q 1156 2606 1428 2606 
Q 1700 2606 1854 2837 
Q 2009 3069 2009 3481 
Q 2009 3884 1853 4118 
Q 1697 4353 1428 4353 
z
M 4250 4750 
L 4750 4750 
L 1831 -91 
L 1331 -91 
L 4250 4750 
z
M 1428 4750 
Q 1922 4750 2215 4408 
Q 2509 4066 2509 3481 
Q 2509 2891 2217 2550 
Q 1925 2209 1428 2209 
Q 931 2209 642 2551 
Q 353 2894 353 3481 
Q 353 4063 643 4406 
Q 934 4750 1428 4750 
z
" transform="scale(0.015625)"/>
      <path id="DejaVuSans-66" d="M 2375 4863 
L 2375 4384 
L 1825 4384 
Q 1516 4384 1395 4259 
Q 1275 4134 1275 3809 
L 1275 3500 
L 2222 3500 
L 2222 3053 
L 1275 3053 
L 1275 0 
L 697 0 
L 697 3053 
L 147 3053 
L 147 3500 
L 697 3500 
L 697 3744 
Q 697 4328 969 4595 
Q 1241 4863 1831 4863 
L 2375 4863 
z
" transform="scale(0.015625)"/>
     </defs>
     <use xlink:href="#DejaVuSans-28"/>
     <use xlink:href="#DejaVuSans-38" x="39.013672"/>
     <use xlink:href="#DejaVuSans-31" x="102.636719"/>
     <use xlink:href="#DejaVuSans-2e" x="166.259766"/>
     <use xlink:href="#DejaVuSans-31" x="198.046875"/>
     <use xlink:href="#DejaVuSans-30" x="261.669922"/>
     <use xlink:href="#DejaVuSans-25" x="325.292969"/>
     <use xlink:href="#DejaVuSans-20" x="420.3125"/>
     <use xlink:href="#DejaVuSans-6f" x="452.099609"/>
     <use xlink:href="#DejaVuSans-66" x="513.28125"/>
     <use xlink:href="#DejaVuSans-20" x="548.486328"/>
     <use xlink:href="#DejaVuSans-74" x="580.273438"/>
     <use xlink:href="#DejaVuSans-6f" x="619.482422"/>
     <use xlink:href="#DejaVuSans-74" x="680.664062"/>
     <use xlink:href="#DejaVuSans-61" x="719.873047"/>
     <use xlink:href="#DejaVuSans-6c" x="781.152344"/>
     <use xlink:href="#DejaVuSans-29" x="808.935547"/>
    </g>
   </g>
   <g id="text_18">
    <!-- UV and MS Chromatograms of Ir_ppy_M8Y1_final, target m/z = 723.18 -->
    <g transform="translate(239.287188 20.88) scale(0.12 -0.12)">
     <defs>
      <path id="DejaVuSans-55" d="M 556 4666 
L 1191 4666 
L 1191 1831 
Q 1191 1081 1462 751 
Q 1734 422 2344 422 
Q 2950 422 3222 751 
Q 3494 1081 3494 1831 
L 3494 4666 
L 4128 4666 
L 4128 1753 
Q 4128 841 3676 375 
Q 3225 -91 2344 -91 
Q 1459 -91 1007 375 
Q 556 841 556 1753 
L 556 4666 
z
" transform="scale(0.015625)"/>
      <path id="DejaVuSans-56" d="M 1831 0 
L 50 4666 
L 709 4666 
L 2188 738 
L 3669 4666 
L 4325 4666 
L 2547 0 
L 1831 0 
z
" transform="scale(0.015625)"/>
      <path id="DejaVuSans-4d" d="M 628 4666 
L 1569 4666 
L 2759 1491 
L 3956 4666 
L 4897 4666 
L 4897 0 
L 4281 0 
L 4281 4097 
L 3078 897 
L 2444 897 
L 1241 4097 
L 1241 0 
L 628 0 
L 628 4666 
z
" transform="scale(0.015625)"/>
      <path id="DejaVuSans-53" d="M 3425 4513 
L 3425 3897 
Q 3066 4069 2747 4153 
Q 2428 4238 2131 4238 
Q 1616 4238 1336 4038 
Q 1056 3838 1056 3469 
Q 1056 3159 1242 3001 
Q 1428 2844 1947 2747 
L 2328 2669 
Q 3034 2534 3370 2195 
Q 3706 1856 3706 1288 
Q 3706 609 3251 259 
Q 2797 -91 1919 -91 
Q 1588 -91 1214 -16 
Q 841 59 441 206 
L 441 856 
Q 825 641 1194 531 
Q 1563 422 1919 422 
Q 2459 422 2753 634 
Q 3047 847 3047 1241 
Q 3047 1584 2836 1778 
Q 2625 1972 2144 2069 
L 1759 2144 
Q 1053 2284 737 2584 
Q 422 2884 422 3419 
Q 422 4038 858 4394 
Q 1294 4750 2059 4750 
Q 2388 4750 2728 4690 
Q 3069 4631 3425 4513 
z
" transform="scale(0.015625)"/>
      <path id="DejaVuSans-43" d="M 4122 4306 
L 4122 3641 
Q 3803 3938 3442 4084 
Q 3081 4231 2675 4231 
Q 1875 4231 1450 3742 
Q 1025 3253 1025 2328 
Q 1025 1406 1450 917 
Q 1875 428 2675 428 
Q 3081 428 3442 575 
Q 3803 722 4122 1019 
L 4122 359 
Q 3791 134 3420 21 
Q 3050 -91 2638 -91 
Q 1578 -91 968 557 
Q 359 1206 359 2328 
Q 359 3453 968 4101 
Q 1578 4750 2638 4750 
Q 3056 4750 3426 4639 
Q 3797 4528 4122 4306 
z
" transform="scale(0.015625)"/>
      <path id="DejaVuSans-68" d="M 3513 2113 
L 3513 0 
L 2938 0 
L 2938 2094 
Q 2938 2591 2744 2837 
Q 2550 3084 2163 3084 
Q 1697 3084 1428 2787 
Q 1159 2491 1159 1978 
L 1159 0 
L 581 0 
L 581 4863 
L 1159 4863 
L 1159 2956 
Q 1366 3272 1645 3428 
Q 1925 3584 2291 3584 
Q 2894 3584 3203 3211 
Q 3513 2838 3513 2113 
z
" transform="scale(0.015625)"/>
      <path id="DejaVuSans-67" d="M 2906 1791 
Q 2906 2416 2648 2759 
Q 2391 3103 1925 3103 
Q 1463 3103 1205 2759 
Q 947 2416 947 1791 
Q 947 1169 1205 825 
Q 1463 481 1925 481 
Q 2391 481 2648 825 
Q 2906 1169 2906 1791 
z
M 3481 434 
Q 3481 -459 3084 -895 
Q 2688 -1331 1869 -1331 
Q 1566 -1331 1297 -1286 
Q 1028 -1241 775 -1147 
L 775 -588 
Q 1028 -725 1275 -790 
Q 1522 -856 1778 -856 
Q 2344 -856 2625 -561 
Q 2906 -266 2906 331 
L 2906 616 
Q 2728 306 2450 153 
Q 2172 0 1784 0 
Q 1141 0 747 490 
Q 353 981 353 1791 
Q 353 2603 747 3093 
Q 1141 3584 1784 3584 
Q 2172 3584 2450 3431 
Q 2728 3278 2906 2969 
L 2906 3500 
L 3481 3500 
L 3481 434 
z
" transform="scale(0.015625)"/>
      <path id="DejaVuSans-5f" d="M 3263 -1063 
L 3263 -1509 
L -63 -1509 
L -63 -1063 
L 3263 -1063 
z
" transform="scale(0.015625)"/>
      <path id="DejaVuSans-70" d="M 1159 525 
L 1159 -1331 
L 581 -1331 
L 581 3500 
L 1159 3500 
L 1159 2969 
Q 1341 3281 1617 3432 
Q 1894 3584 2278 3584 
Q 2916 3584 3314 3078 
Q 3713 2572 3713 1747 
Q 3713 922 3314 415 
Q 2916 -91 2278 -91 
Q 1894 -91 1617 61 
Q 1341 213 1159 525 
z
M 3116 1747 
Q 3116 2381 2855 2742 
Q 2594 3103 2138 3103 
Q 1681 3103 1420 2742 
Q 1159 2381 1159 1747 
Q 1159 1113 1420 752 
Q 1681 391 2138 391 
Q 2594 391 2855 752 
Q 3116 1113 3116 1747 
z
" transform="scale(0.015625)"/>
      <path id="DejaVuSans-59" d="M -13 4666 
L 666 4666 
L 1959 2747 
L 3244 4666 
L 3922 4666 
L 2272 2222 
L 2272 0 
L 1638 0 
L 1638 2222 
L -13 4666 
z
" transform="scale(0.015625)"/>
      <path id="DejaVuSans-2f" d="M 1625 4666 
L 2156 4666 
L 531 -594 
L 0 -594 
L 1625 4666 
z
" transform="scale(0.015625)"/>
     </defs>
     <use xlink:href="#DejaVuSans-55"/>
     <use xlink:href="#DejaVuSans-56" x="73.193359"/>
     <use xlink:href="#DejaVuSans-20" x="141.601562"/>
     <use xlink:href="#DejaVuSans-61" x="173.388672"/>
     <use xlink:href="#DejaVuSans-6e" x="234.667969"/>
     <use xlink:href="#DejaVuSans-64" x="298.046875"/>
     <use xlink:href="#DejaVuSans-20" x="361.523438"/>
     <use xlink:href="#DejaVuSans-4d" x="393.310547"/>
     <use xlink:href="#DejaVuSans-53" x="479.589844"/>
     <use xlink:href="#DejaVuSans-20" x="543.066406"/>
     <use xlink:href="#DejaVuSans-43" x="574.853516"/>
     <use xlink:href="#DejaVuSans-68" x="644.677734"/>
     <use xlink:href="#DejaVuSans-72" x="708.056641"/>
     <use xlink:href="#DejaVuSans-6f" x="746.919922"/>
     <use xlink:href="#DejaVuSans-6d" x="808.101562"/>
     <use xlink:href="#DejaVuSans-61" x="905.513672"/>
     <use xlink:href="#DejaVuSans-74" x="966.792969"/>
     <use xlink:href="#DejaVuSans-6f" x="1006.001953"/>
     <use xlink:href="#DejaVuSans-67" x="1067.183594"/>
     <use xlink:href="#DejaVuSans-72" x="1130.660156"/>
     <use xlink:href="#DejaVuSans-61" x="1171.773438"/>
     <use xlink:href="#DejaVuSans-6d" x="1233.052734"/>
     <use xlink:href="#DejaVuSans-73" x="1330.464844"/>
     <use xlink:href="#DejaVuSans-20" x="1382.564453"/>
     <use xlink:href="#DejaVuSans-6f" x="1414.351562"/>
     <use xlink:href="#DejaVuSans-66" x="1475.533203"/>
     <use xlink:href="#DejaVuSans-20" x="1510.738281"/>
     <use xlink:href="#DejaVuSans-49" x="1542.525391"/>
     <use xlink:href="#DejaVuSans-72" x="1572.017578"/>
     <use xlink:href="#DejaVuSans-5f" x="1613.130859"/>
     <use xlink:href="#DejaVuSans-70" x="1663.130859"/>
     <use xlink:href="#DejaVuSans-70" x="1726.607422"/>
     <use xlink:href="#DejaVuSans-79" x="1790.083984"/>
     <use xlink:href="#DejaVuSans-5f" x="1849.263672"/>
     <use xlink:href="#DejaVuSans-4d" x="1899.263672"/>
     <use xlink:href="#DejaVuSans-38" x="1985.542969"/>
     <use xlink:href="#DejaVuSans-59" x="2049.166016"/>
     <use xlink:href="#DejaVuSans-31" x="2110.25"/>
     <use xlink:href="#DejaVuSans-5f" x="2173.873047"/>
     <use xlink:href="#DejaVuSans-66" x="2223.873047"/>
     <use xlink:href="#DejaVuSans-69" x="2259.078125"/>
     <use xlink:href="#DejaVuSans-6e" x="2286.861328"/>
     <use xlink:href="#DejaVuSans-61" x="2350.240234"/>
     <use xlink:href="#DejaVuSans-6c" x="2411.519531"/>
     <use xlink:href="#DejaVuSans-2c" x="2439.302734"/>
     <use xlink:href="#DejaVuSans-20" x="2471.089844"/>
     <use xlink:href="#DejaVuSans-74" x="2502.876953"/>
     <use xlink:href="#DejaVuSans-61" x="2542.085938"/>
     <use xlink:href="#DejaVuSans-72" x="2603.365234"/>
     <use xlink:href="#DejaVuSans-67" x="2642.728516"/>
     <use xlink:href="#DejaVuSans-65" x="2706.205078"/>
     <use xlink:href="#DejaVuSans-74" x="2767.728516"/>
     <use xlink:href="#DejaVuSans-20" x="2806.9375"/>
     <use xlink:href="#DejaVuSans-6d" x="2838.724609"/>
     <use xlink:href="#DejaVuSans-2f" x="2936.136719"/>
     <use xlink:href="#DejaVuSans-7a" x="2969.828125"/>
     <use xlink:href="#DejaVuSans-20" x="3022.318359"/>
     <use xlink:href="#DejaVuSans-3d" x="3054.105469"/>
     <use xlink:href="#DejaVuSans-20" x="3137.894531"/>
     <use xlink:href="#DejaVuSans-37" x="3169.681641"/>
     <use xlink:href="#DejaVuSans-32" x="3233.304688"/>
     <use xlink:href="#DejaVuSans-33" x="3296.927734"/>
     <use xlink:href="#DejaVuSans-2e" x="3360.550781"/>
     <use xlink:href="#DejaVuSans-31" x="3392.337891"/>
     <use xlink:href="#DejaVuSans-38" x="3455.960938"/>
    </g>
   </g>
   <g id="legend_1">
    <g id="patch_8">
     <path d="M 685.971875 64.23625 
L 846.2 64.23625 
Q 848.2 64.23625 848.2 62.23625 
L 848.2 33.88 
Q 848.2 31.88 846.2 31.88 
L 685.971875 31.88 
Q 683.971875 31.88 683.971875 33.88 
L 683.971875 62.23625 
Q 683.971875 64.23625 685.971875 64.23625 
z
" style="fill: #ffffff; opacity: 0.8; stroke: #cccccc; stroke-linejoin: miter"/>
    </g>
    <g id="line2d_17">
     <path d="M 687.971875 39.978437 
L 697.971875 39.978437 
L 707.971875 39.978437 
" style="fill: none; stroke: #0000ff; stroke-width: 1.5; stroke-linecap: square"/>
    </g>
    <g id="text_19">
     <!-- UV Intensity (normalized) -->
     <g transform="translate(715.971875 43.478437) scale(0.1 -0.1)">
      <use xlink:href="#DejaVuSans-55"/>
      <use xlink:href="#DejaVuSans-56" x="73.193359"/>
      <use xlink:href="#DejaVuSans-20" x="141.601562"/>
      <use xlink:href="#DejaVuSans-49" x="173.388672"/>
      <use xlink:href="#DejaVuSans-6e" x="202.880859"/>
      <use xlink:href="#DejaVuSans-74" x="266.259766"/>
      <use xlink:href="#DejaVuSans-65" x="305.46875"/>
      <use xlink:href="#DejaVuSans-6e" x="366.992188"/>
      <use xlink:href="#DejaVuSans-73" x="430.371094"/>
      <use xlink:href="#DejaVuSans-69" x="482.470703"/>
      <use xlink:href="#DejaVuSans-74" x="510.253906"/>
      <use xlink:href="#DejaVuSans-79" x="549.462891"/>
      <use xlink:href="#DejaVuSans-20" x="608.642578"/>
      <use xlink:href="#DejaVuSans-28" x="640.429688"/>
      <use xlink:href="#DejaVuSans-6e" x="679.443359"/>
      <use xlink:href="#DejaVuSans-6f" x="742.822266"/>
      <use xlink:href="#DejaVuSans-72" x="804.003906"/>
      <use xlink:href="#DejaVuSans-6d" x="843.367188"/>
      <use xlink:href="#DejaVuSans-61" x="940.779297"/>
      <use xlink:href="#DejaVuSans-6c" x="1002.058594"/>
      <use xlink:href="#DejaVuSans-69" x="1029.841797"/>
      <use xlink:href="#DejaVuSans-7a" x="1057.625"/>
      <use xlink:href="#DejaVuSans-65" x="1110.115234"/>
      <use xlink:href="#DejaVuSans-64" x="1171.638672"/>
      <use xlink:href="#DejaVuSans-29" x="1235.115234"/>
     </g>
    </g>
    <g id="line2d_18">
     <path d="M 687.971875 54.656562 
L 697.971875 54.656562 
L 707.971875 54.656562 
" style="fill: none; stroke: #008000; stroke-width: 1.5; stroke-linecap: square"/>
    </g>
    <g id="text_20">
     <!-- MS Intensity (normalized) -->
     <g transform="translate(715.971875 58.156562) scale(0.1 -0.1)">
      <use xlink:href="#DejaVuSans-4d"/>
      <use xlink:href="#DejaVuSans-53" x="86.279297"/>
      <use xlink:href="#DejaVuSans-20" x="149.755859"/>
      <use xlink:href="#DejaVuSans-49" x="181.542969"/>
      <use xlink:href="#DejaVuSans-6e" x="211.035156"/>
      <use xlink:href="#DejaVuSans-74" x="274.414062"/>
      <use xlink:href="#DejaVuSans-65" x="313.623047"/>
      <use xlink:href="#DejaVuSans-6e" x="375.146484"/>
      <use xlink:href="#DejaVuSans-73" x="438.525391"/>
      <use xlink:href="#DejaVuSans-69" x="490.625"/>
      <use xlink:href="#DejaVuSans-74" x="518.408203"/>
      <use xlink:href="#DejaVuSans-79" x="557.617188"/>
      <use xlink:href="#DejaVuSans-20" x="616.796875"/>
      <use xlink:href="#DejaVuSans-28" x="648.583984"/>
      <use xlink:href="#DejaVuSans-6e" x="687.597656"/>
      <use xlink:href="#DejaVuSans-6f" x="750.976562"/>
      <use xlink:href="#DejaVuSans-72" x="812.158203"/>
      <use xlink:href="#DejaVuSans-6d" x="851.521484"/>
      <use xlink:href="#DejaVuSans-61" x="948.933594"/>
      <use xlink:href="#DejaVuSans-6c" x="1010.212891"/>
      <use xlink:href="#DejaVuSans-69" x="1037.996094"/>
      <use xlink:href="#DejaVuSans-7a" x="1065.779297"/>
      <use xlink:href="#DejaVuSans-65" x="1118.269531"/>
      <use xlink:href="#DejaVuSans-64" x="1179.792969"/>
      <use xlink:href="#DejaVuSans-29" x="1243.269531"/>
     </g>
    </g>
   </g>
  </g>
 </g>
 <defs>
  <clipPath id="pfc1bdc805a">
   <rect x="47.72" y="26.88" width="805.48" height="507.16"/>
  </clipPath>
 </defs>
</svg>
