<?xml version="1.0" encoding="utf-8" standalone="no"?>
<!DOCTYPE svg PUBLIC "-//W3C//DTD SVG 1.1//EN"
  "http://www.w3.org/Graphics/SVG/1.1/DTD/svg11.dtd">
<svg xmlns:xlink="http://www.w3.org/1999/xlink" width="864pt" height="576pt" viewBox="0 0 864 576" xmlns="http://www.w3.org/2000/svg" version="1.1">
 <metadata>
  <rdf:RDF xmlns:dc="http://purl.org/dc/elements/1.1/" xmlns:cc="http://creativecommons.org/ns#" xmlns:rdf="http://www.w3.org/1999/02/22-rdf-syntax-ns#">
   <cc:Work>
    <dc:type rdf:resource="http://purl.org/dc/dcmitype/StillImage"/>
    <dc:date>2024-12-10T10:26:18.173826</dc:date>
    <dc:format>image/svg+xml</dc:format>
    <dc:creator>
     <cc:Agent>
      <dc:title>Matplotlib v3.9.0, https://matplotlib.org/</dc:title>
     </cc:Agent>
    </dc:creator>
   </cc:Work>
  </rdf:RDF>
 </metadata>
 <defs>
  <style type="text/css">*{stroke-linejoin: round; stroke-linecap: butt}</style>
 </defs>
 <g id="figure_1">
  <g id="patch_1">
   <path d="M 0 576 
L 864 576 
L 864 0 
L 0 0 
z
" style="fill: #ffffff"/>
  </g>
  <g id="axes_1">
   <g id="patch_2">
    <path d="M 47.72 534.04 
L 853.2 534.04 
L 853.2 26.88 
L 47.72 26.88 
z
" style="fill: #ffffff"/>
   </g>
   <g id="matplotlib.axis_1">
    <g id="xtick_1">
     <g id="line2d_1">
      <defs>
       <path id="m9f1cc239e1" d="M 0 0 
L 0 3.5 
" style="stroke: #000000; stroke-width: 0.8"/>
      </defs>
      <g>
       <use xlink:href="#m9f1cc239e1" x="83.447738" y="534.04" style="stroke: #000000; stroke-width: 0.8"/>
      </g>
     </g>
     <g id="text_1">
      <!-- 0 -->
      <g transform="translate(80.266488 548.638438) scale(0.1 -0.1)">
       <defs>
        <path id="DejaVuSans-30" d="M 2034 4250 
Q 1547 4250 1301 3770 
Q 1056 3291 1056 2328 
Q 1056 1369 1301 889 
Q 1547 409 2034 409 
Q 2525 409 2770 889 
Q 3016 1369 3016 2328 
Q 3016 3291 2770 3770 
Q 2525 4250 2034 4250 
z
M 2034 4750 
Q 2819 4750 3233 4129 
Q 3647 3509 3647 2328 
Q 3647 1150 3233 529 
Q 2819 -91 2034 -91 
Q 1250 -91 836 529 
Q 422 1150 422 2328 
Q 422 3509 836 4129 
Q 1250 4750 2034 4750 
z
" transform="scale(0.015625)"/>
       </defs>
       <use xlink:href="#DejaVuSans-30"/>
      </g>
     </g>
    </g>
    <g id="xtick_2">
     <g id="line2d_2">
      <g>
       <use xlink:href="#m9f1cc239e1" x="188.180212" y="534.04" style="stroke: #000000; stroke-width: 0.8"/>
      </g>
     </g>
     <g id="text_2">
      <!-- 1 -->
      <g transform="translate(184.998962 548.638438) scale(0.1 -0.1)">
       <defs>
        <path id="DejaVuSans-31" d="M 794 531 
L 1825 531 
L 1825 4091 
L 703 3866 
L 703 4441 
L 1819 4666 
L 2450 4666 
L 2450 531 
L 3481 531 
L 3481 0 
L 794 0 
L 794 531 
z
" transform="scale(0.015625)"/>
       </defs>
       <use xlink:href="#DejaVuSans-31"/>
      </g>
     </g>
    </g>
    <g id="xtick_3">
     <g id="line2d_3">
      <g>
       <use xlink:href="#m9f1cc239e1" x="292.912685" y="534.04" style="stroke: #000000; stroke-width: 0.8"/>
      </g>
     </g>
     <g id="text_3">
      <!-- 2 -->
      <g transform="translate(289.731435 548.638438) scale(0.1 -0.1)">
       <defs>
        <path id="DejaVuSans-32" d="M 1228 531 
L 3431 531 
L 3431 0 
L 469 0 
L 469 531 
Q 828 903 1448 1529 
Q 2069 2156 2228 2338 
Q 2531 2678 2651 2914 
Q 2772 3150 2772 3378 
Q 2772 3750 2511 3984 
Q 2250 4219 1831 4219 
Q 1534 4219 1204 4116 
Q 875 4013 500 3803 
L 500 4441 
Q 881 4594 1212 4672 
Q 1544 4750 1819 4750 
Q 2544 4750 2975 4387 
Q 3406 4025 3406 3419 
Q 3406 3131 3298 2873 
Q 3191 2616 2906 2266 
Q 2828 2175 2409 1742 
Q 1991 1309 1228 531 
z
" transform="scale(0.015625)"/>
       </defs>
       <use xlink:href="#DejaVuSans-32"/>
      </g>
     </g>
    </g>
    <g id="xtick_4">
     <g id="line2d_4">
      <g>
       <use xlink:href="#m9f1cc239e1" x="397.645159" y="534.04" style="stroke: #000000; stroke-width: 0.8"/>
      </g>
     </g>
     <g id="text_4">
      <!-- 3 -->
      <g transform="translate(394.463909 548.638438) scale(0.1 -0.1)">
       <defs>
        <path id="DejaVuSans-33" d="M 2597 2516 
Q 3050 2419 3304 2112 
Q 3559 1806 3559 1356 
Q 3559 666 3084 287 
Q 2609 -91 1734 -91 
Q 1441 -91 1130 -33 
Q 819 25 488 141 
L 488 750 
Q 750 597 1062 519 
Q 1375 441 1716 441 
Q 2309 441 2620 675 
Q 2931 909 2931 1356 
Q 2931 1769 2642 2001 
Q 2353 2234 1838 2234 
L 1294 2234 
L 1294 2753 
L 1863 2753 
Q 2328 2753 2575 2939 
Q 2822 3125 2822 3475 
Q 2822 3834 2567 4026 
Q 2313 4219 1838 4219 
Q 1578 4219 1281 4162 
Q 984 4106 628 3988 
L 628 4550 
Q 988 4650 1302 4700 
Q 1616 4750 1894 4750 
Q 2613 4750 3031 4423 
Q 3450 4097 3450 3541 
Q 3450 3153 3228 2886 
Q 3006 2619 2597 2516 
z
" transform="scale(0.015625)"/>
       </defs>
       <use xlink:href="#DejaVuSans-33"/>
      </g>
     </g>
    </g>
    <g id="xtick_5">
     <g id="line2d_5">
      <g>
       <use xlink:href="#m9f1cc239e1" x="502.377633" y="534.04" style="stroke: #000000; stroke-width: 0.8"/>
      </g>
     </g>
     <g id="text_5">
      <!-- 4 -->
      <g transform="translate(499.196383 548.638438) scale(0.1 -0.1)">
       <defs>
        <path id="DejaVuSans-34" d="M 2419 4116 
L 825 1625 
L 2419 1625 
L 2419 4116 
z
M 2253 4666 
L 3047 4666 
L 3047 1625 
L 3713 1625 
L 3713 1100 
L 3047 1100 
L 3047 0 
L 2419 0 
L 2419 1100 
L 313 1100 
L 313 1709 
L 2253 4666 
z
" transform="scale(0.015625)"/>
       </defs>
       <use xlink:href="#DejaVuSans-34"/>
      </g>
     </g>
    </g>
    <g id="xtick_6">
     <g id="line2d_6">
      <g>
       <use xlink:href="#m9f1cc239e1" x="607.110106" y="534.04" style="stroke: #000000; stroke-width: 0.8"/>
      </g>
     </g>
     <g id="text_6">
      <!-- 5 -->
      <g transform="translate(603.928856 548.638438) scale(0.1 -0.1)">
       <defs>
        <path id="DejaVuSans-35" d="M 691 4666 
L 3169 4666 
L 3169 4134 
L 1269 4134 
L 1269 2991 
Q 1406 3038 1543 3061 
Q 1681 3084 1819 3084 
Q 2600 3084 3056 2656 
Q 3513 2228 3513 1497 
Q 3513 744 3044 326 
Q 2575 -91 1722 -91 
Q 1428 -91 1123 -41 
Q 819 9 494 109 
L 494 744 
Q 775 591 1075 516 
Q 1375 441 1709 441 
Q 2250 441 2565 725 
Q 2881 1009 2881 1497 
Q 2881 1984 2565 2268 
Q 2250 2553 1709 2553 
Q 1456 2553 1204 2497 
Q 953 2441 691 2322 
L 691 4666 
z
" transform="scale(0.015625)"/>
       </defs>
       <use xlink:href="#DejaVuSans-35"/>
      </g>
     </g>
    </g>
    <g id="xtick_7">
     <g id="line2d_7">
      <g>
       <use xlink:href="#m9f1cc239e1" x="711.84258" y="534.04" style="stroke: #000000; stroke-width: 0.8"/>
      </g>
     </g>
     <g id="text_7">
      <!-- 6 -->
      <g transform="translate(708.66133 548.638438) scale(0.1 -0.1)">
       <defs>
        <path id="DejaVuSans-36" d="M 2113 2584 
Q 1688 2584 1439 2293 
Q 1191 2003 1191 1497 
Q 1191 994 1439 701 
Q 1688 409 2113 409 
Q 2538 409 2786 701 
Q 3034 994 3034 1497 
Q 3034 2003 2786 2293 
Q 2538 2584 2113 2584 
z
M 3366 4563 
L 3366 3988 
Q 3128 4100 2886 4159 
Q 2644 4219 2406 4219 
Q 1781 4219 1451 3797 
Q 1122 3375 1075 2522 
Q 1259 2794 1537 2939 
Q 1816 3084 2150 3084 
Q 2853 3084 3261 2657 
Q 3669 2231 3669 1497 
Q 3669 778 3244 343 
Q 2819 -91 2113 -91 
Q 1303 -91 875 529 
Q 447 1150 447 2328 
Q 447 3434 972 4092 
Q 1497 4750 2381 4750 
Q 2619 4750 2861 4703 
Q 3103 4656 3366 4563 
z
" transform="scale(0.015625)"/>
       </defs>
       <use xlink:href="#DejaVuSans-36"/>
      </g>
     </g>
    </g>
    <g id="xtick_8">
     <g id="line2d_8">
      <g>
       <use xlink:href="#m9f1cc239e1" x="816.575054" y="534.04" style="stroke: #000000; stroke-width: 0.8"/>
      </g>
     </g>
     <g id="text_8">
      <!-- 7 -->
      <g transform="translate(813.393804 548.638438) scale(0.1 -0.1)">
       <defs>
        <path id="DejaVuSans-37" d="M 525 4666 
L 3525 4666 
L 3525 4397 
L 1831 0 
L 1172 0 
L 2766 4134 
L 525 4134 
L 525 4666 
z
" transform="scale(0.015625)"/>
       </defs>
       <use xlink:href="#DejaVuSans-37"/>
      </g>
     </g>
    </g>
    <g id="text_9">
     <!-- Retention Time (min) -->
     <g transform="translate(397.61 562.316562) scale(0.1 -0.1)">
      <defs>
       <path id="DejaVuSans-52" d="M 2841 2188 
Q 3044 2119 3236 1894 
Q 3428 1669 3622 1275 
L 4263 0 
L 3584 0 
L 2988 1197 
Q 2756 1666 2539 1819 
Q 2322 1972 1947 1972 
L 1259 1972 
L 1259 0 
L 628 0 
L 628 4666 
L 2053 4666 
Q 2853 4666 3247 4331 
Q 3641 3997 3641 3322 
Q 3641 2881 3436 2590 
Q 3231 2300 2841 2188 
z
M 1259 4147 
L 1259 2491 
L 2053 2491 
Q 2509 2491 2742 2702 
Q 2975 2913 2975 3322 
Q 2975 3731 2742 3939 
Q 2509 4147 2053 4147 
L 1259 4147 
z
" transform="scale(0.015625)"/>
       <path id="DejaVuSans-65" d="M 3597 1894 
L 3597 1613 
L 953 1613 
Q 991 1019 1311 708 
Q 1631 397 2203 397 
Q 2534 397 2845 478 
Q 3156 559 3463 722 
L 3463 178 
Q 3153 47 2828 -22 
Q 2503 -91 2169 -91 
Q 1331 -91 842 396 
Q 353 884 353 1716 
Q 353 2575 817 3079 
Q 1281 3584 2069 3584 
Q 2775 3584 3186 3129 
Q 3597 2675 3597 1894 
z
M 3022 2063 
Q 3016 2534 2758 2815 
Q 2500 3097 2075 3097 
Q 1594 3097 1305 2825 
Q 1016 2553 972 2059 
L 3022 2063 
z
" transform="scale(0.015625)"/>
       <path id="DejaVuSans-74" d="M 1172 4494 
L 1172 3500 
L 2356 3500 
L 2356 3053 
L 1172 3053 
L 1172 1153 
Q 1172 725 1289 603 
Q 1406 481 1766 481 
L 2356 481 
L 2356 0 
L 1766 0 
Q 1100 0 847 248 
Q 594 497 594 1153 
L 594 3053 
L 172 3053 
L 172 3500 
L 594 3500 
L 594 4494 
L 1172 4494 
z
" transform="scale(0.015625)"/>
       <path id="DejaVuSans-6e" d="M 3513 2113 
L 3513 0 
L 2938 0 
L 2938 2094 
Q 2938 2591 2744 2837 
Q 2550 3084 2163 3084 
Q 1697 3084 1428 2787 
Q 1159 2491 1159 1978 
L 1159 0 
L 581 0 
L 581 3500 
L 1159 3500 
L 1159 2956 
Q 1366 3272 1645 3428 
Q 1925 3584 2291 3584 
Q 2894 3584 3203 3211 
Q 3513 2838 3513 2113 
z
" transform="scale(0.015625)"/>
       <path id="DejaVuSans-69" d="M 603 3500 
L 1178 3500 
L 1178 0 
L 603 0 
L 603 3500 
z
M 603 4863 
L 1178 4863 
L 1178 4134 
L 603 4134 
L 603 4863 
z
" transform="scale(0.015625)"/>
       <path id="DejaVuSans-6f" d="M 1959 3097 
Q 1497 3097 1228 2736 
Q 959 2375 959 1747 
Q 959 1119 1226 758 
Q 1494 397 1959 397 
Q 2419 397 2687 759 
Q 2956 1122 2956 1747 
Q 2956 2369 2687 2733 
Q 2419 3097 1959 3097 
z
M 1959 3584 
Q 2709 3584 3137 3096 
Q 3566 2609 3566 1747 
Q 3566 888 3137 398 
Q 2709 -91 1959 -91 
Q 1206 -91 779 398 
Q 353 888 353 1747 
Q 353 2609 779 3096 
Q 1206 3584 1959 3584 
z
" transform="scale(0.015625)"/>
       <path id="DejaVuSans-20" transform="scale(0.015625)"/>
       <path id="DejaVuSans-54" d="M -19 4666 
L 3928 4666 
L 3928 4134 
L 2272 4134 
L 2272 0 
L 1638 0 
L 1638 4134 
L -19 4134 
L -19 4666 
z
" transform="scale(0.015625)"/>
       <path id="DejaVuSans-6d" d="M 3328 2828 
Q 3544 3216 3844 3400 
Q 4144 3584 4550 3584 
Q 5097 3584 5394 3201 
Q 5691 2819 5691 2113 
L 5691 0 
L 5113 0 
L 5113 2094 
Q 5113 2597 4934 2840 
Q 4756 3084 4391 3084 
Q 3944 3084 3684 2787 
Q 3425 2491 3425 1978 
L 3425 0 
L 2847 0 
L 2847 2094 
Q 2847 2600 2669 2842 
Q 2491 3084 2119 3084 
Q 1678 3084 1418 2786 
Q 1159 2488 1159 1978 
L 1159 0 
L 581 0 
L 581 3500 
L 1159 3500 
L 1159 2956 
Q 1356 3278 1631 3431 
Q 1906 3584 2284 3584 
Q 2666 3584 2933 3390 
Q 3200 3197 3328 2828 
z
" transform="scale(0.015625)"/>
       <path id="DejaVuSans-28" d="M 1984 4856 
Q 1566 4138 1362 3434 
Q 1159 2731 1159 2009 
Q 1159 1288 1364 580 
Q 1569 -128 1984 -844 
L 1484 -844 
Q 1016 -109 783 600 
Q 550 1309 550 2009 
Q 550 2706 781 3412 
Q 1013 4119 1484 4856 
L 1984 4856 
z
" transform="scale(0.015625)"/>
       <path id="DejaVuSans-29" d="M 513 4856 
L 1013 4856 
Q 1481 4119 1714 3412 
Q 1947 2706 1947 2009 
Q 1947 1309 1714 600 
Q 1481 -109 1013 -844 
L 513 -844 
Q 928 -128 1133 580 
Q 1338 1288 1338 2009 
Q 1338 2731 1133 3434 
Q 928 4138 513 4856 
z
" transform="scale(0.015625)"/>
      </defs>
      <use xlink:href="#DejaVuSans-52"/>
      <use xlink:href="#DejaVuSans-65" x="64.982422"/>
      <use xlink:href="#DejaVuSans-74" x="126.505859"/>
      <use xlink:href="#DejaVuSans-65" x="165.714844"/>
      <use xlink:href="#DejaVuSans-6e" x="227.238281"/>
      <use xlink:href="#DejaVuSans-74" x="290.617188"/>
      <use xlink:href="#DejaVuSans-69" x="329.826172"/>
      <use xlink:href="#DejaVuSans-6f" x="357.609375"/>
      <use xlink:href="#DejaVuSans-6e" x="418.791016"/>
      <use xlink:href="#DejaVuSans-20" x="482.169922"/>
      <use xlink:href="#DejaVuSans-54" x="513.957031"/>
      <use xlink:href="#DejaVuSans-69" x="571.916016"/>
      <use xlink:href="#DejaVuSans-6d" x="599.699219"/>
      <use xlink:href="#DejaVuSans-65" x="697.111328"/>
      <use xlink:href="#DejaVuSans-20" x="758.634766"/>
      <use xlink:href="#DejaVuSans-28" x="790.421875"/>
      <use xlink:href="#DejaVuSans-6d" x="829.435547"/>
      <use xlink:href="#DejaVuSans-69" x="926.847656"/>
      <use xlink:href="#DejaVuSans-6e" x="954.630859"/>
      <use xlink:href="#DejaVuSans-29" x="1018.009766"/>
     </g>
    </g>
   </g>
   <g id="matplotlib.axis_2">
    <g id="ytick_1">
     <g id="line2d_9">
      <defs>
       <path id="m6c28d00d06" d="M 0 0 
L -3.5 0 
" style="stroke: #000000; stroke-width: 0.8"/>
      </defs>
      <g>
       <use xlink:href="#m6c28d00d06" x="47.72" y="508.202767" style="stroke: #000000; stroke-width: 0.8"/>
      </g>
     </g>
     <g id="text_10">
      <!-- 0.0 -->
      <g style="fill: #0000ff" transform="translate(24.816875 512.001986) scale(0.1 -0.1)">
       <defs>
        <path id="DejaVuSans-2e" d="M 684 794 
L 1344 794 
L 1344 0 
L 684 0 
L 684 794 
z
" transform="scale(0.015625)"/>
       </defs>
       <use xlink:href="#DejaVuSans-30"/>
       <use xlink:href="#DejaVuSans-2e" x="63.623047"/>
       <use xlink:href="#DejaVuSans-30" x="95.410156"/>
      </g>
     </g>
    </g>
    <g id="ytick_2">
     <g id="line2d_10">
      <g>
       <use xlink:href="#m6c28d00d06" x="47.72" y="416.548759" style="stroke: #000000; stroke-width: 0.8"/>
      </g>
     </g>
     <g id="text_11">
      <!-- 0.5 -->
      <g style="fill: #0000ff" transform="translate(24.816875 420.347978) scale(0.1 -0.1)">
       <use xlink:href="#DejaVuSans-30"/>
       <use xlink:href="#DejaVuSans-2e" x="63.623047"/>
       <use xlink:href="#DejaVuSans-35" x="95.410156"/>
      </g>
     </g>
    </g>
    <g id="ytick_3">
     <g id="line2d_11">
      <g>
       <use xlink:href="#m6c28d00d06" x="47.72" y="324.894751" style="stroke: #000000; stroke-width: 0.8"/>
      </g>
     </g>
     <g id="text_12">
      <!-- 1.0 -->
      <g style="fill: #0000ff" transform="translate(24.816875 328.69397) scale(0.1 -0.1)">
       <use xlink:href="#DejaVuSans-31"/>
       <use xlink:href="#DejaVuSans-2e" x="63.623047"/>
       <use xlink:href="#DejaVuSans-30" x="95.410156"/>
      </g>
     </g>
    </g>
    <g id="ytick_4">
     <g id="line2d_12">
      <g>
       <use xlink:href="#m6c28d00d06" x="47.72" y="233.240743" style="stroke: #000000; stroke-width: 0.8"/>
      </g>
     </g>
     <g id="text_13">
      <!-- 1.5 -->
      <g style="fill: #0000ff" transform="translate(24.816875 237.039962) scale(0.1 -0.1)">
       <use xlink:href="#DejaVuSans-31"/>
       <use xlink:href="#DejaVuSans-2e" x="63.623047"/>
       <use xlink:href="#DejaVuSans-35" x="95.410156"/>
      </g>
     </g>
    </g>
    <g id="ytick_5">
     <g id="line2d_13">
      <g>
       <use xlink:href="#m6c28d00d06" x="47.72" y="141.586735" style="stroke: #000000; stroke-width: 0.8"/>
      </g>
     </g>
     <g id="text_14">
      <!-- 2.0 -->
      <g style="fill: #0000ff" transform="translate(24.816875 145.385954) scale(0.1 -0.1)">
       <use xlink:href="#DejaVuSans-32"/>
       <use xlink:href="#DejaVuSans-2e" x="63.623047"/>
       <use xlink:href="#DejaVuSans-30" x="95.410156"/>
      </g>
     </g>
    </g>
    <g id="ytick_6">
     <g id="line2d_14">
      <g>
       <use xlink:href="#m6c28d00d06" x="47.72" y="49.932727" style="stroke: #000000; stroke-width: 0.8"/>
      </g>
     </g>
     <g id="text_15">
      <!-- 2.5 -->
      <g style="fill: #0000ff" transform="translate(24.816875 53.731946) scale(0.1 -0.1)">
       <use xlink:href="#DejaVuSans-32"/>
       <use xlink:href="#DejaVuSans-2e" x="63.623047"/>
       <use xlink:href="#DejaVuSans-35" x="95.410156"/>
      </g>
     </g>
    </g>
    <g id="text_16">
     <!-- Normalized Intensity -->
     <g style="fill: #0000ff" transform="translate(18.737187 332.167031) rotate(-90) scale(0.1 -0.1)">
      <defs>
       <path id="DejaVuSans-4e" d="M 628 4666 
L 1478 4666 
L 3547 763 
L 3547 4666 
L 4159 4666 
L 4159 0 
L 3309 0 
L 1241 3903 
L 1241 0 
L 628 0 
L 628 4666 
z
" transform="scale(0.015625)"/>
       <path id="DejaVuSans-72" d="M 2631 2963 
Q 2534 3019 2420 3045 
Q 2306 3072 2169 3072 
Q 1681 3072 1420 2755 
Q 1159 2438 1159 1844 
L 1159 0 
L 581 0 
L 581 3500 
L 1159 3500 
L 1159 2956 
Q 1341 3275 1631 3429 
Q 1922 3584 2338 3584 
Q 2397 3584 2469 3576 
Q 2541 3569 2628 3553 
L 2631 2963 
z
" transform="scale(0.015625)"/>
       <path id="DejaVuSans-61" d="M 2194 1759 
Q 1497 1759 1228 1600 
Q 959 1441 959 1056 
Q 959 750 1161 570 
Q 1363 391 1709 391 
Q 2188 391 2477 730 
Q 2766 1069 2766 1631 
L 2766 1759 
L 2194 1759 
z
M 3341 1997 
L 3341 0 
L 2766 0 
L 2766 531 
Q 2569 213 2275 61 
Q 1981 -91 1556 -91 
Q 1019 -91 701 211 
Q 384 513 384 1019 
Q 384 1609 779 1909 
Q 1175 2209 1959 2209 
L 2766 2209 
L 2766 2266 
Q 2766 2663 2505 2880 
Q 2244 3097 1772 3097 
Q 1472 3097 1187 3025 
Q 903 2953 641 2809 
L 641 3341 
Q 956 3463 1253 3523 
Q 1550 3584 1831 3584 
Q 2591 3584 2966 3190 
Q 3341 2797 3341 1997 
z
" transform="scale(0.015625)"/>
       <path id="DejaVuSans-6c" d="M 603 4863 
L 1178 4863 
L 1178 0 
L 603 0 
L 603 4863 
z
" transform="scale(0.015625)"/>
       <path id="DejaVuSans-7a" d="M 353 3500 
L 3084 3500 
L 3084 2975 
L 922 459 
L 3084 459 
L 3084 0 
L 275 0 
L 275 525 
L 2438 3041 
L 353 3041 
L 353 3500 
z
" transform="scale(0.015625)"/>
       <path id="DejaVuSans-64" d="M 2906 2969 
L 2906 4863 
L 3481 4863 
L 3481 0 
L 2906 0 
L 2906 525 
Q 2725 213 2448 61 
Q 2172 -91 1784 -91 
Q 1150 -91 751 415 
Q 353 922 353 1747 
Q 353 2572 751 3078 
Q 1150 3584 1784 3584 
Q 2172 3584 2448 3432 
Q 2725 3281 2906 2969 
z
M 947 1747 
Q 947 1113 1208 752 
Q 1469 391 1925 391 
Q 2381 391 2643 752 
Q 2906 1113 2906 1747 
Q 2906 2381 2643 2742 
Q 2381 3103 1925 3103 
Q 1469 3103 1208 2742 
Q 947 2381 947 1747 
z
" transform="scale(0.015625)"/>
       <path id="DejaVuSans-49" d="M 628 4666 
L 1259 4666 
L 1259 0 
L 628 0 
L 628 4666 
z
" transform="scale(0.015625)"/>
       <path id="DejaVuSans-73" d="M 2834 3397 
L 2834 2853 
Q 2591 2978 2328 3040 
Q 2066 3103 1784 3103 
Q 1356 3103 1142 2972 
Q 928 2841 928 2578 
Q 928 2378 1081 2264 
Q 1234 2150 1697 2047 
L 1894 2003 
Q 2506 1872 2764 1633 
Q 3022 1394 3022 966 
Q 3022 478 2636 193 
Q 2250 -91 1575 -91 
Q 1294 -91 989 -36 
Q 684 19 347 128 
L 347 722 
Q 666 556 975 473 
Q 1284 391 1588 391 
Q 1994 391 2212 530 
Q 2431 669 2431 922 
Q 2431 1156 2273 1281 
Q 2116 1406 1581 1522 
L 1381 1569 
Q 847 1681 609 1914 
Q 372 2147 372 2553 
Q 372 3047 722 3315 
Q 1072 3584 1716 3584 
Q 2034 3584 2315 3537 
Q 2597 3491 2834 3397 
z
" transform="scale(0.015625)"/>
       <path id="DejaVuSans-79" d="M 2059 -325 
Q 1816 -950 1584 -1140 
Q 1353 -1331 966 -1331 
L 506 -1331 
L 506 -850 
L 844 -850 
Q 1081 -850 1212 -737 
Q 1344 -625 1503 -206 
L 1606 56 
L 191 3500 
L 800 3500 
L 1894 763 
L 2988 3500 
L 3597 3500 
L 2059 -325 
z
" transform="scale(0.015625)"/>
      </defs>
      <use xlink:href="#DejaVuSans-4e"/>
      <use xlink:href="#DejaVuSans-6f" x="74.804688"/>
      <use xlink:href="#DejaVuSans-72" x="135.986328"/>
      <use xlink:href="#DejaVuSans-6d" x="175.349609"/>
      <use xlink:href="#DejaVuSans-61" x="272.761719"/>
      <use xlink:href="#DejaVuSans-6c" x="334.041016"/>
      <use xlink:href="#DejaVuSans-69" x="361.824219"/>
      <use xlink:href="#DejaVuSans-7a" x="389.607422"/>
      <use xlink:href="#DejaVuSans-65" x="442.097656"/>
      <use xlink:href="#DejaVuSans-64" x="503.621094"/>
      <use xlink:href="#DejaVuSans-20" x="567.097656"/>
      <use xlink:href="#DejaVuSans-49" x="598.884766"/>
      <use xlink:href="#DejaVuSans-6e" x="628.376953"/>
      <use xlink:href="#DejaVuSans-74" x="691.755859"/>
      <use xlink:href="#DejaVuSans-65" x="730.964844"/>
      <use xlink:href="#DejaVuSans-6e" x="792.488281"/>
      <use xlink:href="#DejaVuSans-73" x="855.867188"/>
      <use xlink:href="#DejaVuSans-69" x="907.966797"/>
      <use xlink:href="#DejaVuSans-74" x="935.75"/>
      <use xlink:href="#DejaVuSans-79" x="974.958984"/>
     </g>
    </g>
   </g>
   <g id="line2d_15">
    <path d="M 84.332727 508.202767 
L 91.314892 508.090324 
L 100.915369 507.868916 
L 106.151993 507.928339 
L 112.261387 508.024331 
L 133.207882 507.935614 
L 134.953423 508.120227 
L 137.571735 508.83774 
L 138.444505 508.838508 
L 139.317276 508.470566 
L 140.190047 507.736949 
L 142.808358 504.927262 
L 143.681129 504.481531 
L 144.5539 504.527305 
L 145.42667 505.000934 
L 147.172212 506.359862 
L 148.044982 506.837267 
L 148.917753 506.35299 
L 149.790523 501.230281 
L 150.663294 484.922806 
L 152.408835 424.162451 
L 153.281606 406.076386 
L 154.154376 409.287621 
L 155.027147 429.030889 
L 155.899918 454.454121 
L 156.772688 476.491621 
L 157.645459 491.256321 
L 158.518229 499.22314 
L 159.391 502.791235 
L 160.263771 504.275961 
L 161.136541 505.053719 
L 162.009312 505.616284 
L 162.882083 505.988738 
L 163.754853 506.103619 
L 164.627624 505.977199 
L 167.245936 505.28445 
L 168.991477 505.253771 
L 170.737018 505.487016 
L 177.719183 506.785399 
L 182.083036 507.073821 
L 186.446889 507.183667 
L 191.683513 506.972755 
L 196.047366 507.190268 
L 206.520613 507.035919 
L 208.266155 506.821988 
L 211.757237 505.993915 
L 213.502778 506.073436 
L 216.12109 506.392452 
L 234.449273 507.147562 
L 238.813126 507.147207 
L 245.795291 507.023357 
L 248.413603 506.406161 
L 249.286373 506.395463 
L 251.904685 506.848203 
L 253.650226 507.010849 
L 255.395768 506.876701 
L 259.759621 506.249105 
L 261.505162 506.189075 
L 264.123474 506.494471 
L 266.741786 506.777458 
L 270.232868 506.873059 
L 272.85118 506.764153 
L 273.723951 506.66029 
L 274.596721 506.43432 
L 275.469492 505.95869 
L 276.342262 505.156536 
L 278.087804 503.260249 
L 278.960574 502.813645 
L 279.833345 502.915521 
L 280.706116 503.424274 
L 282.451657 504.687965 
L 283.324427 505.118544 
L 284.197198 505.371606 
L 293.797675 506.754645 
L 298.161528 507.016749 
L 302.525381 506.91026 
L 307.762005 506.648352 
L 310.380316 506.761586 
L 312.998628 506.889193 
L 321.726334 506.83734 
L 322.599105 506.558719 
L 323.471876 505.734401 
L 324.344646 504.166758 
L 326.090187 500.238491 
L 326.962958 499.183376 
L 327.835729 499.165414 
L 328.708499 499.962319 
L 331.326811 503.505815 
L 332.199582 504.422524 
L 333.072352 505.15678 
L 333.945123 505.724403 
L 334.817894 506.1408 
L 336.563435 506.616914 
L 339.181747 506.876042 
L 344.41837 507.028698 
L 347.036682 506.894959 
L 348.782223 506.666258 
L 350.527765 506.126619 
L 352.273306 505.606551 
L 353.146076 505.604489 
L 354.891618 506.05538 
L 356.637159 506.486156 
L 357.50993 506.551017 
L 358.3827 506.338117 
L 359.255471 505.400117 
L 360.128241 503.339093 
L 361.873783 497.907738 
L 362.746553 496.665921 
L 363.619324 497.018411 
L 364.492094 498.492969 
L 366.237636 502.052919 
L 367.110406 503.304341 
L 367.983177 504.100826 
L 368.855948 504.556371 
L 370.601489 504.983384 
L 371.474259 505.091112 
L 372.34703 505.080413 
L 373.219801 504.847211 
L 375.838112 503.332262 
L 376.710883 503.280258 
L 377.583654 503.586132 
L 379.329195 504.517331 
L 380.201966 504.382951 
L 381.074736 502.040183 
L 381.947507 495.097981 
L 383.693048 470.001787 
L 384.565819 461.346161 
L 385.438589 460.314141 
L 386.31136 465.740795 
L 388.056901 482.533478 
L 388.929672 489.289042 
L 389.802442 494.182854 
L 390.675213 497.564915 
L 391.547984 499.893249 
L 392.420754 501.527305 
L 393.293525 502.66835 
L 394.166295 503.329055 
L 395.039066 503.408765 
L 395.911837 502.942187 
L 396.784607 502.262438 
L 397.657378 501.808895 
L 398.530148 501.812212 
L 399.402919 502.232079 
L 402.021231 504.33184 
L 402.894002 504.751716 
L 403.766772 504.768779 
L 404.639543 504.328839 
L 408.130625 501.044357 
L 409.003396 497.510171 
L 409.876166 484.114383 
L 410.748937 452.514082 
L 412.494478 354.383413 
L 413.367249 324.894751 
L 414.24002 325.753524 
L 415.11279 351.555799 
L 416.858331 421.105056 
L 417.731102 442.27147 
L 418.603873 449.504415 
L 419.476643 447.021757 
L 420.349414 442.572926 
L 421.222184 442.718583 
L 422.094955 449.436665 
L 424.713267 482.092824 
L 425.586037 488.76559 
L 426.458808 492.606293 
L 427.331579 494.571154 
L 429.07712 496.615336 
L 432.568202 500.682258 
L 433.440973 501.355338 
L 434.313744 501.810689 
L 436.059285 502.302313 
L 437.804826 502.77229 
L 441.295909 504.004202 
L 442.168679 504.191248 
L 443.04145 504.238385 
L 444.786991 503.872782 
L 445.659762 503.66631 
L 446.532532 503.632151 
L 447.405303 503.826532 
L 449.150844 504.429247 
L 450.023615 504.344989 
L 450.896385 503.787989 
L 451.769156 502.948402 
L 452.641927 502.263097 
L 453.514697 502.106851 
L 454.387468 502.542958 
L 457.00578 504.9507 
L 457.87855 505.470639 
L 459.624091 506.061205 
L 462.242403 506.531426 
L 464.860715 506.751816 
L 466.606256 506.742241 
L 467.479027 506.547854 
L 468.351798 505.936471 
L 469.224568 504.526014 
L 470.097339 502.159886 
L 470.970109 499.319143 
L 471.84288 497.006991 
L 472.715651 496.076674 
L 473.588421 496.678973 
L 474.461192 498.294024 
L 475.333963 500.15731 
L 476.206733 501.674609 
L 477.079504 502.59271 
L 477.952274 502.915991 
L 478.825045 502.736412 
L 479.697816 502.164913 
L 481.443357 500.633569 
L 482.316127 500.203925 
L 483.188898 500.231913 
L 484.061669 500.672189 
L 488.425522 504.144138 
L 489.298292 504.544962 
L 490.171063 504.324162 
L 491.043834 503.184896 
L 492.789375 499.66204 
L 493.662145 498.941373 
L 494.534916 499.449399 
L 495.407687 500.799864 
L 496.280457 502.372498 
L 497.153228 503.709333 
L 498.025998 504.645007 
L 498.898769 505.224056 
L 500.64431 505.799385 
L 505.008163 506.768248 
L 506.753705 506.949974 
L 509.372016 506.957497 
L 511.117558 506.91835 
L 512.863099 507.122584 
L 515.481411 507.601294 
L 517.226952 507.723072 
L 522.463576 507.619103 
L 528.57297 507.539736 
L 534.682364 507.902332 
L 538.173447 507.796921 
L 542.5373 507.494485 
L 547.773924 507.696181 
L 554.756088 508.0236 
L 556.50163 507.884423 
L 558.247171 507.45509 
L 562.611024 505.886524 
L 563.483795 505.827318 
L 564.356565 505.908326 
L 566.102106 506.384904 
L 568.720418 507.238372 
L 570.465959 507.565435 
L 572.211501 507.671081 
L 574.829813 507.57118 
L 578.320895 507.268259 
L 580.939207 507.378184 
L 592.285225 508.181024 
L 597.521849 508.430217 
L 609.740637 508.671804 
L 632.432673 508.717397 
L 635.050985 508.456197 
L 637.669297 508.163237 
L 639.414838 508.241271 
L 643.778691 508.632761 
L 648.142544 508.712591 
L 687.417222 508.745985 
L 708.363717 508.752078 
L 720.582505 508.808451 
L 727.56467 508.981483 
L 731.928523 509.29305 
L 736.292376 509.823402 
L 744.147312 510.839446 
L 747.638394 510.987273 
L 751.129477 510.848136 
L 755.49333 510.403346 
L 763.348265 509.55727 
L 767.712118 509.295224 
L 774.694283 509.135718 
L 800.004631 508.800964 
L 805.241255 508.425089 
L 807.859567 508.47557 
L 813.968961 508.70971 
L 816.587273 508.736654 
L 816.587273 508.736654 
" clip-path="url(#p09f203ff48)" style="fill: none; stroke: #0000ff; stroke-width: 1.5; stroke-linecap: square"/>
   </g>
   <g id="line2d_16">
    <path d="M 89.363377 233.235363 
L 326.767457 233.07103 
L 327.253591 232.796897 
L 327.253591 232.74041 
L 327.494475 232.753472 
L 327.494475 232.618977 
L 327.739549 232.590309 
L 327.739549 232.336304 
L 327.978165 232.280164 
L 327.978165 231.959547 
L 328.217304 232.230145 
L 328.217304 231.728332 
L 328.456443 232.085172 
L 328.456443 231.588781 
L 328.697851 232.038049 
L 328.697851 231.789581 
L 328.938213 231.791403 
L 328.938213 231.969234 
L 329.660343 231.935792 
L 329.901402 232.262684 
L 329.901402 232.010091 
L 330.144382 232.024911 
L 330.144382 232.139048 
L 330.38579 232.186499 
L 330.38579 231.93335 
L 330.629118 232.215611 
L 330.629118 232.016252 
L 330.871574 232.406716 
L 331.116299 232.308018 
L 331.365038 232.57748 
L 331.365038 232.441891 
L 331.85379 232.68291 
L 332.343763 232.760927 
L 332.343763 232.807943 
L 333.079335 232.883039 
L 333.079335 232.875929 
L 333.079335 232.958346 
L 345.94921 233.216314 
L 345.94921 233.205756 
L 348.696168 233.058077 
L 348.696168 233.019114 
L 348.696168 233.046436 
L 349.191727 233.057009 
L 349.191727 233.054676 
L 349.691476 232.909216 
L 350.187035 232.771793 
L 350.68207 232.714435 
L 350.68207 232.717574 
L 350.68207 232.829019 
L 351.176931 232.54861 
L 351.424624 232.336748 
L 351.672316 232.301224 
L 351.672316 232.158425 
L 352.167002 232.406793 
L 352.167002 232.39026 
L 352.414171 232.491285 
L 352.414171 232.313515 
L 352.908159 232.363342 
L 352.908159 232.321896 
L 353.155153 232.376522 
L 354.392742 231.36077 
L 354.639038 231.481035 
L 354.639038 231.763584 
L 354.888825 232.000081 
L 354.888825 232.202 
L 355.13547 232.491139 
L 355.629109 232.129202 
L 356.617783 231.925391 
L 357.364177 232.618345 
L 357.611695 232.482169 
L 358.106905 232.579258 
L 358.354422 232.787136 
L 358.354422 232.906073 
L 359.593582 232.793848 
L 359.593582 232.847782 
L 359.593582 232.831897 
L 360.337008 232.987315 
L 361.084798 232.966712 
L 362.807298 233.068595 
L 362.807298 233.066676 
L 363.531349 233.142059 
L 363.531349 233.1687 
L 366.917 233.134229 
L 366.917 233.152869 
L 370.602885 233.197476 
L 370.602885 233.194713 
L 371.838728 233.198381 
L 375.046859 233.216616 
L 375.046859 233.211698 
L 383.671054 233.218316 
L 383.671054 233.219757 
L 390.06183 233.146631 
L 390.06183 233.14534 
L 392.194532 232.885785 
L 393.148645 232.933216 
L 393.148645 233.038507 
L 393.38726 233.084321 
L 393.38726 233.007099 
L 393.868855 233.032916 
L 400.597742 233.120882 
L 400.597742 233.083569 
L 401.564597 233.010099 
L 401.564597 232.948725 
L 401.806529 232.993303 
L 401.806529 232.912228 
L 403.50721 232.825818 
L 403.50721 232.902402 
L 405.471293 233.091346 
L 405.471293 233.075364 
L 406.209657 233.099572 
L 406.209657 233.10741 
L 406.209657 233.125103 
L 410.629367 233.181412 
L 411.119865 233.033319 
L 411.119865 232.613498 
L 411.365113 232.378014 
L 411.365113 231.068458 
L 411.610013 230.770739 
L 411.610013 226.970286 
L 411.858403 226.288533 
L 411.858403 220.733939 
L 412.098066 218.483884 
L 412.098066 209.886829 
L 412.335634 207.36519 
L 412.335634 198.573156 
L 412.571457 195.701796 
L 412.571457 185.496992 
L 412.806581 180.509834 
L 412.806581 158.923846 
L 413.040833 162.709619 
L 413.040833 135.948558 
L 413.27491 143.298557 
L 413.27491 113.935103 
L 413.508463 127.479502 
L 413.508463 93.816271 
L 413.508463 110.628412 
L 413.742017 108.463759 
L 413.742017 95.699655 
L 413.975395 92.934934 
L 413.975395 86.343169 
L 414.208774 85.216959 
L 414.208774 78.260709 
L 414.442153 110.880871 
L 414.442153 70.963559 
L 414.675532 108.469436 
L 414.675532 72.111751 
L 414.908736 107.951597 
L 414.908736 71.466053 
L 415.142115 106.651058 
L 415.142115 71.2754 
L 415.37916 72.719693 
L 415.37916 75.844916 
L 415.614633 79.146285 
L 415.614633 49.932727 
L 415.614633 87.911984 
L 415.848012 88.838995 
L 415.848012 89.812695 
L 416.081391 90.529292 
L 416.081391 96.388001 
L 416.31477 98.097331 
L 416.31477 108.525532 
L 416.548149 139.566601 
L 416.548149 112.975804 
L 416.781702 115.511528 
L 416.781702 115.478987 
L 416.781702 118.50991 
L 417.015256 119.900921 
L 417.015256 127.918818 
L 417.015256 126.929924 
L 417.248809 155.625116 
L 417.248809 131.259013 
L 417.482362 155.802802 
L 417.482362 137.565353 
L 417.482362 137.62822 
L 417.715916 162.514093 
L 417.715916 145.508673 
L 417.715916 146.190619 
L 417.949818 167.715945 
L 417.949818 150.662502 
L 418.183546 150.906572 
L 418.183546 151.629347 
L 418.183546 150.437236 
L 418.417274 151.761197 
L 418.417274 152.972031 
L 418.651177 154.288493 
L 418.651177 157.556139 
L 418.888919 159.79719 
L 418.888919 142.803139 
L 419.122822 161.198244 
L 419.122822 144.840848 
L 419.122822 161.450728 
L 419.356725 161.273522 
L 419.356725 164.040649 
L 419.356725 163.491972 
L 419.590802 181.085028 
L 419.590802 170.209222 
L 419.590802 170.719632 
L 419.824879 186.415814 
L 419.824879 172.303127 
L 420.05913 185.509104 
L 420.05913 172.759365 
L 420.293556 188.505587 
L 420.293556 177.668113 
L 420.527808 191.217445 
L 420.527808 180.768106 
L 420.76206 181.217748 
L 420.76206 183.365964 
L 420.996486 184.469361 
L 420.996486 171.96908 
L 421.230912 184.172687 
L 421.230912 172.768581 
L 421.230912 182.949725 
L 421.465338 183.093453 
L 421.465338 183.358061 
L 421.465338 182.762656 
L 421.700288 194.592957 
L 421.700288 184.832794 
L 421.936634 197.847131 
L 421.936634 187.912819 
L 422.171235 198.840455 
L 422.171235 191.049764 
L 422.409327 190.712447 
L 422.409327 193.245087 
L 422.644102 193.561156 
L 422.644102 194.251833 
L 422.878528 203.115954 
L 422.878528 195.016282 
L 423.113129 203.644566 
L 423.113129 195.285332 
L 423.347905 195.419097 
L 423.347905 195.219729 
L 423.582854 195.972265 
L 423.582854 188.897904 
L 423.582854 197.321733 
L 423.817804 197.877263 
L 423.817804 199.478859 
L 424.052929 199.712627 
L 424.052929 202.35129 
L 424.288053 202.442457 
L 424.288053 203.765705 
L 424.288053 203.701485 
L 424.523352 209.933656 
L 424.523352 204.74103 
L 424.758651 205.100727 
L 424.758651 205.936763 
L 424.994299 206.617078 
L 424.994299 200.063129 
L 425.229773 206.067012 
L 425.229773 199.991386 
L 425.229773 206.154512 
L 425.46577 206.474098 
L 425.46577 207.856495 
L 425.46577 207.763076 
L 425.701592 214.143399 
L 425.701592 208.464026 
L 425.940906 214.288412 
L 425.940906 208.946804 
L 426.177601 214.522668 
L 426.177601 209.11227 
L 426.414297 209.088774 
L 426.414297 209.58244 
L 426.650469 209.771549 
L 426.650469 205.470916 
L 426.650469 211.306337 
L 426.88664 211.482498 
L 426.88664 212.088132 
L 426.88664 212.050662 
L 427.12351 216.855386 
L 427.12351 212.215368 
L 427.359682 217.090781 
L 427.359682 213.294846 
L 427.596203 218.842873 
L 427.596203 213.888705 
L 427.835342 218.104419 
L 427.835342 213.092506 
L 428.072037 218.466408 
L 428.072037 214.607643 
L 428.308907 218.916476 
L 428.308907 215.289518 
L 428.546825 215.308265 
L 428.546825 216.203401 
L 428.78352 216.66871 
L 428.78352 213.096533 
L 428.78352 217.026563 
L 429.020914 217.59533 
L 429.020914 217.416453 
L 429.258831 221.426228 
L 429.258831 218.063318 
L 429.499715 221.41472 
L 429.499715 218.192629 
L 429.737458 221.682568 
L 429.737458 218.638715 
L 429.974852 218.81619 
L 430.212595 218.692586 
L 430.212595 218.481383 
L 430.450512 218.579335 
L 430.450512 219.201497 
L 430.688953 219.357017 
L 430.688953 220.013864 
L 430.688953 219.908595 
L 430.926695 222.950242 
L 430.926695 219.997398 
L 431.165485 220.093599 
L 431.165485 220.305323 
L 431.403752 220.547894 
L 431.403752 217.872694 
L 431.403752 221.053294 
L 431.642542 221.130512 
L 431.642542 221.014741 
L 431.881157 223.720034 
L 431.881157 220.953328 
L 432.120995 223.996735 
L 432.120995 221.532239 
L 432.359959 221.974206 
L 432.359959 221.961222 
L 432.598924 221.998477 
L 432.598924 222.153308 
L 432.837889 221.768266 
L 432.837889 222.126434 
L 433.079821 222.643198 
L 433.079821 219.829703 
L 433.079821 222.322941 
L 433.319134 222.777558 
L 433.319134 222.685951 
L 433.319134 222.238014 
L 433.558448 225.042379 
L 433.558448 222.952751 
L 433.799507 225.806463 
L 433.799507 223.627925 
L 434.03917 225.936214 
L 434.03917 223.63706 
L 434.279182 226.289612 
L 434.279182 223.673454 
L 434.520067 225.965006 
L 434.520067 223.714661 
L 434.759904 226.151307 
L 434.759904 224.458434 
L 435.000614 226.557301 
L 435.000614 224.770961 
L 435.242022 226.918741 
L 435.242022 224.80968 
L 435.483605 226.822111 
L 435.483605 224.355102 
L 435.724316 226.532397 
L 435.724316 224.587614 
L 435.966073 226.663305 
L 435.966073 224.987421 
L 436.206783 226.867327 
L 436.206783 225.023413 
L 436.446795 225.306527 
L 436.691171 225.738839 
L 436.691171 225.582376 
L 436.933452 227.358556 
L 436.933452 225.790606 
L 437.175209 225.53447 
L 437.175209 226.027516 
L 437.416792 226.027937 
L 437.416792 226.227674 
L 437.416792 226.155477 
L 437.658375 227.785251 
L 437.658375 226.383728 
L 437.658375 226.439217 
L 437.902576 227.984344 
L 437.902576 226.63393 
L 438.145381 226.593927 
L 438.145381 226.662862 
L 438.387662 225.150863 
L 438.387662 225.195411 
L 438.630642 226.758084 
L 438.630642 225.491062 
L 438.630642 226.909287 
L 438.873272 228.511726 
L 438.873272 227.247771 
L 439.115902 227.324438 
L 439.115902 227.477682 
L 439.358532 227.802592 
L 439.358532 226.475787 
L 439.358532 227.69409 
L 439.602384 227.696468 
L 439.602384 227.682484 
L 439.602384 227.478058 
L 439.847458 228.918106 
L 439.847458 227.768682 
L 440.08974 229.009005 
L 440.08974 227.682435 
L 440.338654 228.884528 
L 440.338654 227.729194 
L 440.581633 226.422488 
L 440.581633 227.625259 
L 440.826882 227.727899 
L 440.826882 226.468739 
L 441.071607 227.969877 
L 441.315808 228.172356 
L 441.315808 226.856735 
L 441.315808 228.076834 
L 441.561231 228.149624 
L 441.561231 228.135761 
L 441.561231 227.964732 
L 441.806654 229.482406 
L 441.806654 228.396535 
L 442.050855 229.626749 
L 442.050855 228.738053 
L 442.29558 228.540567 
L 442.29558 228.508143 
L 442.540305 228.675414 
L 442.540305 228.581214 
L 442.540305 228.514718 
L 442.784681 229.773548 
L 442.784681 228.746527 
L 443.030453 228.592359 
L 443.030453 228.629681 
L 443.275527 228.752461 
L 443.275527 227.732362 
L 443.275527 228.849549 
L 443.525139 228.894751 
L 443.525139 228.729268 
L 443.770737 229.737935 
L 443.770737 228.815721 
L 444.020175 228.797822 
L 444.020175 228.878499 
L 444.020175 228.933738 
L 444.265772 229.056151 
L 444.265772 229.027025 
L 444.511195 230.120335 
L 444.511195 229.227204 
L 444.756793 230.289693 
L 444.756793 229.346576 
L 445.002565 230.23633 
L 445.002565 229.52138 
L 445.984258 229.551461 
L 445.984258 228.579177 
L 446.229506 229.729379 
L 446.229506 228.87267 
L 446.229506 229.905362 
L 446.47458 229.891988 
L 446.47458 230.056239 
L 446.47458 229.89804 
L 446.71948 230.709811 
L 446.71948 229.967966 
L 447.209453 230.06152 
L 447.209453 230.151446 
L 447.703267 230.272933 
L 447.703267 229.496096 
L 447.948341 230.220124 
L 447.948341 229.465555 
L 448.19324 230.443043 
L 448.19324 229.677034 
L 448.19324 230.393275 
L 448.43814 230.354115 
L 448.43814 230.185444 
L 448.683039 230.055854 
L 448.683039 230.05738 
L 448.927938 230.167991 
L 448.927938 230.134795 
L 449.424021 230.187202 
L 449.424021 230.420763 
L 449.66927 230.433854 
L 449.66927 230.424872 
L 449.917486 230.594668 
L 449.917486 229.920365 
L 450.162734 230.649565 
L 450.162734 229.945907 
L 450.162734 230.538065 
L 450.408157 230.428415 
L 450.408157 230.443057 
L 450.653755 230.452634 
L 450.653755 230.602634 
L 451.395436 230.760043 
L 451.395436 230.184611 
L 451.395436 230.77365 
L 452.132054 231.146856 
L 452.132054 230.46898 
L 452.132054 230.987647 
L 452.623075 230.868472 
L 452.623075 230.921962 
L 452.880193 230.387191 
L 453.125441 230.497445 
L 453.125441 230.405081 
L 453.370515 231.132977 
L 453.615589 231.080502 
L 453.615589 231.234187 
L 453.860489 231.194239 
L 454.105563 231.626279 
L 454.105563 231.143268 
L 454.350462 230.62539 
L 454.595362 231.109437 
L 454.595362 230.68429 
L 454.595362 230.707482 
L 455.088826 231.762739 
L 455.088826 231.249745 
L 455.333726 231.825877 
L 455.333726 231.375444 
L 456.068948 231.538419 
L 456.314196 231.552271 
L 456.314196 231.066436 
L 456.314196 231.484554 
L 456.559619 231.390878 
L 456.559619 231.334781 
L 456.805042 231.786501 
L 456.805042 231.409436 
L 457.050465 231.551327 
L 457.050465 231.571903 
L 457.790749 231.65307 
L 457.790749 231.204063 
L 458.036347 231.636613 
L 458.036347 231.272232 
L 458.036347 231.552088 
L 458.281945 231.643214 
L 458.281945 231.578561 
L 458.527892 232.010529 
L 458.527892 231.584353 
L 458.777679 231.990345 
L 458.777679 231.533138 
L 459.023625 231.944569 
L 459.023625 231.67992 
L 459.023625 231.696833 
L 459.269921 232.096894 
L 459.269921 231.816718 
L 459.761815 231.717243 
L 460.007936 232.03601 
L 460.007936 231.600942 
L 460.254057 232.019217 
L 460.254057 231.748014 
L 460.500179 232.223056 
L 460.500179 231.864592 
L 460.746474 232.161142 
L 460.746474 231.832805 
L 461.239939 231.864106 
L 461.239939 231.569501 
L 461.239939 231.90482 
L 461.485886 231.941269 
L 461.485886 231.920966 
L 461.732182 232.250649 
L 461.732182 231.782858 
L 461.978652 232.171165 
L 461.978652 231.902384 
L 462.225122 231.884244 
L 462.225122 231.997768 
L 462.475608 232.057774 
L 462.475608 231.744296 
L 462.723125 232.03747 
L 462.723125 231.721029 
L 462.723125 232.007461 
L 462.96977 231.95458 
L 463.216241 232.278756 
L 463.216241 231.983295 
L 463.462711 232.311853 
L 463.462711 232.026737 
L 463.955827 231.969055 
L 463.955827 231.946957 
L 464.450164 232.024251 
L 464.450164 232.11791 
L 464.946945 232.130194 
L 464.946945 231.915112 
L 465.193415 232.163263 
L 465.193415 231.843721 
L 465.44006 232.155726 
L 465.44006 231.852999 
L 465.68688 232.083472 
L 465.68688 231.86356 
L 466.678696 232.106574 
L 466.925516 231.853788 
L 466.925516 232.099575 
L 467.172161 232.179615 
L 467.419155 232.451258 
L 467.419155 232.23131 
L 467.665974 231.961727 
L 467.665974 232.1891 
L 467.913492 232.257588 
L 467.913492 232.016157 
L 467.913492 232.248703 
L 468.160312 232.480691 
L 468.160312 232.22521 
L 468.654474 232.147729 
L 468.654474 232.199659 
L 469.148463 232.341509 
L 469.148463 232.290624 
L 469.395457 232.531553 
L 469.395457 232.294266 
L 470.387448 232.367403 
L 470.387448 232.129535 
L 470.387448 232.35148 
L 471.128081 232.29615 
L 471.128081 232.077311 
L 471.37525 232.301705 
L 471.37525 232.13657 
L 471.37525 232.351263 
L 471.873776 232.454699 
L 471.873776 232.239757 
L 472.12077 232.217774 
L 472.12077 232.32594 
L 472.368113 232.318739 
L 472.615457 232.520834 
L 472.615457 232.299994 
L 472.862974 232.522912 
L 472.862974 232.290749 
L 473.110492 232.516824 
L 473.110492 232.315997 
L 473.357835 232.55845 
L 473.357835 232.345172 
L 473.608495 232.146402 
L 473.855489 232.379719 
L 473.855489 232.20068 
L 474.102832 232.501509 
L 474.59717 232.514443 
L 474.59717 232.331908 
L 474.59717 232.471528 
L 475.091507 232.598458 
L 475.091507 232.409921 
L 475.586542 232.443562 
L 475.586542 232.456368 
L 475.833536 232.678828 
L 475.833536 232.466312 
L 476.08088 232.642301 
L 476.08088 232.486118 
L 476.575042 232.485709 
L 476.575042 232.304858 
L 476.822036 232.458707 
L 476.822036 232.292041 
L 477.06903 232.484942 
L 477.06903 232.292085 
L 477.06903 232.453406 
L 477.815598 232.467261 
L 477.815598 232.329578 
L 477.815598 232.491522 
L 478.556406 232.503134 
L 478.556406 232.308986 
L 478.8034 232.511746 
L 478.8034 232.33651 
L 479.05022 232.562296 
L 479.05022 232.384425 
L 479.296865 232.56645 
L 479.296865 232.402087 
L 479.543335 232.574016 
L 479.543335 232.418374 
L 479.78998 232.608977 
L 479.78998 232.44923 
L 480.039942 232.604312 
L 480.039942 232.417693 
L 480.286587 232.557562 
L 480.286587 232.401606 
L 480.533057 232.585146 
L 480.533057 232.38788 
L 480.779877 232.574323 
L 481.523477 232.564837 
L 481.523477 232.392727 
L 481.769948 232.577768 
L 481.769948 232.357886 
L 481.769948 232.500804 
L 482.508486 232.546601 
L 482.754607 232.676159 
L 482.754607 232.509569 
L 483.985738 232.402198 
L 484.232033 232.578512 
L 484.232033 232.415224 
L 484.478155 232.567244 
L 484.478155 232.414102 
L 484.728291 232.572557 
L 484.728291 232.39259 
L 484.974587 232.569797 
L 484.974587 232.408221 
L 485.221232 232.565326 
L 485.221232 232.393624 
L 485.221232 232.543277 
L 487.690474 232.570719 
L 487.690474 232.432251 
L 487.690474 232.591381 
L 489.666602 232.630793 
L 489.666602 232.601563 
L 489.913596 232.619328 
L 489.913596 232.461949 
L 490.160415 232.655065 
L 490.160415 232.517135 
L 490.407235 232.68352 
L 490.407235 232.552401 
L 490.900874 232.748496 
L 490.900874 232.586433 
L 491.147519 232.722217 
L 491.147519 232.58112 
L 491.147519 232.659773 
L 491.394164 232.616132 
L 491.640809 232.760273 
L 491.640809 232.612139 
L 491.887628 232.766173 
L 491.887628 232.673562 
L 492.631054 232.735008 
L 492.631054 232.588756 
L 492.87735 232.692261 
L 492.87735 232.521876 
L 492.87735 232.635926 
L 493.123471 232.517569 
L 493.614492 232.742757 
L 493.614492 232.662759 
L 493.862184 232.766542 
L 493.862184 232.641259 
L 494.352507 232.786365 
L 494.352507 232.653256 
L 494.598628 232.76032 
L 494.598628 232.621498 
L 494.843528 232.571195 
L 495.088253 232.703717 
L 495.088253 232.544023 
L 495.088253 232.618277 
L 495.333327 232.645148 
L 495.826966 232.312623 
L 496.562362 232.756809 
L 497.544753 232.787192 
L 497.544753 232.641751 
L 497.7907 232.745394 
L 497.7907 232.611909 
L 498.282418 232.74607 
L 498.282418 232.589179 
L 498.528714 232.720951 
L 498.528714 232.568622 
L 498.528714 232.691147 
L 499.766478 232.724468 
L 499.766478 232.583094 
L 500.012948 232.717914 
L 500.012948 232.681386 
L 502.72517 232.821907 
L 502.72517 232.705767 
L 503.469992 232.740414 
L 503.716812 232.847274 
L 503.716812 232.734167 
L 505.199824 232.748218 
L 505.199824 232.632389 
L 505.446992 232.773626 
L 505.446992 232.623017 
L 505.446992 232.72587 
L 506.688072 232.666717 
L 506.939605 232.794867 
L 506.939605 232.682962 
L 507.434989 232.78461 
L 507.434989 232.762948 
L 507.682682 232.860905 
L 507.682682 232.742028 
L 507.930374 232.618093 
L 507.930374 232.712428 
L 509.912087 232.752844 
L 509.912087 232.647839 
L 510.407646 232.771779 
L 510.407646 232.663658 
L 510.659353 232.775079 
L 510.659353 232.757057 
L 510.907045 232.629009 
L 511.402954 232.765903 
L 511.402954 232.664088 
L 511.650471 232.79289 
L 511.650471 232.682412 
L 512.145856 232.765599 
L 512.145856 232.667961 
L 512.641066 232.753819 
L 512.641066 232.61684 
L 513.139593 232.613011 
L 513.139593 232.638494 
L 513.386936 232.795579 
L 514.129838 232.758668 
L 514.129838 232.795129 
L 514.381196 232.825743 
L 514.381196 232.69468 
L 514.876232 232.804656 
L 514.876232 232.773246 
L 516.363433 232.78561 
L 516.363433 232.824556 
L 516.858817 232.836591 
L 516.858817 232.730697 
L 517.3549 232.797732 
L 517.3549 232.700583 
L 517.3549 232.803783 
L 518.847687 232.807159 
L 518.847687 232.696813 
L 519.343595 232.799692 
L 519.343595 232.686598 
L 519.84282 232.814069 
L 520.090512 232.697671 
L 520.090512 232.792796 
L 521.829944 232.811825 
L 521.829944 232.699491 
L 522.077986 232.79475 
L 522.077986 232.657155 
L 522.574068 232.753918 
L 522.574068 232.662515 
L 522.822808 232.809382 
L 522.822808 232.800084 
L 523.814625 232.825131 
L 523.814625 232.719736 
L 523.814625 232.819835 
L 524.806965 232.826221 
L 524.806965 232.728749 
L 525.055006 232.820847 
L 525.055006 232.797695 
L 526.051885 232.797325 
L 526.051885 232.845274 
L 528.28897 232.826631 
L 528.28897 232.704127 
L 528.785577 232.854243 
L 528.785577 232.731802 
L 529.033793 232.846305 
L 529.033793 232.756434 
L 529.534065 232.871625 
L 529.534065 232.776982 
L 529.534065 232.852935 
L 530.279062 232.824514 
L 530.279062 232.724823 
L 530.279062 232.82078 
L 533.263239 232.837989 
L 533.263239 232.848683 
L 534.008411 232.857998 
L 534.008411 232.723964 
L 534.008411 232.795115 
L 538.733416 232.713056 
L 538.981632 232.829451 
L 538.981632 232.716681 
L 539.477541 232.858503 
L 540.721064 232.754271 
L 541.216972 232.844193 
L 541.216972 232.764601 
L 541.716197 232.810152 
L 541.716197 232.712694 
L 542.459798 232.94951 
L 542.459798 232.863855 
L 545.433153 232.806004 
L 545.433153 232.814719 
L 546.91599 232.844869 
L 546.91599 232.755789 
L 547.409978 232.850066 
L 547.409978 232.845642 
L 547.660987 232.938057 
L 547.660987 232.847641 
L 548.154626 232.871964 
L 548.40162 232.789825 
L 548.648789 232.859016 
L 548.648789 232.76409 
L 550.380715 232.865685 
L 550.380715 232.78149 
L 550.874703 232.891614 
L 550.874703 232.809145 
L 551.865298 232.786721 
L 552.358588 232.880891 
L 552.358588 232.813104 
L 552.852052 232.87269 
L 552.852052 232.783021 
L 553.345342 232.844631 
L 553.345342 232.793732 
L 553.345342 232.875634 
L 554.331398 232.890808 
L 554.331398 232.827563 
L 554.824165 232.847857 
L 554.824165 232.790985 
L 555.81825 232.802219 
L 555.81825 232.732089 
L 556.310842 232.790653 
L 556.310842 232.73997 
L 557.542845 232.749933 
L 557.542845 232.662677 
L 558.035786 232.708615 
L 558.035786 232.650198 
L 558.779037 232.692734 
L 558.779037 232.682595 
L 559.518449 232.740935 
L 559.518449 232.671091 
L 560.997097 232.620628 
L 560.997097 232.534432 
L 562.229274 232.561126 
L 562.72623 232.454655 
L 563.222836 232.467291 
L 563.222836 232.490297 
L 564.208892 232.597105 
L 564.208892 232.574764 
L 565.442117 232.71907 
L 566.186591 232.694898 
L 566.186591 232.665623 
L 566.926875 232.714028 
L 566.926875 232.698243 
L 567.915724 232.678754 
L 571.133978 232.801542 
L 571.133978 232.796978 
L 572.616466 232.751574 
L 573.357972 232.838822 
L 573.357972 232.796007 
L 573.855975 232.842947 
L 573.855975 232.782012 
L 574.103144 232.856421 
L 574.103144 232.773134 
L 575.09112 232.829885 
L 575.09112 232.806261 
L 575.09112 232.901608 
L 575.832451 232.912508 
L 575.832451 232.88578 
L 576.824443 232.83144 
L 577.071611 232.900081 
L 577.071611 232.823846 
L 578.311295 232.880234 
L 578.311295 232.830431 
L 578.805283 232.844619 
L 578.805283 232.789413 
L 579.54644 232.863213 
L 579.54644 232.814961 
L 580.535812 232.821494 
L 580.535812 232.800298 
L 582.515954 232.865571 
L 582.515954 232.813181 
L 583.009593 232.848182 
L 583.009593 232.813166 
L 583.754241 232.879818 
L 583.754241 232.839775 
L 584.494874 232.909051 
L 584.494874 232.846451 
L 585.485818 232.913696 
L 585.485818 232.852753 
L 585.979283 232.899071 
L 585.979283 232.8113 
L 585.979283 232.886473 
L 592.401303 232.852096 
L 592.401303 232.898526 
L 593.879079 232.910423 
L 593.879079 232.862508 
L 594.617966 232.907198 
L 594.617966 232.83468 
L 595.356156 232.937985 
L 595.356156 232.936226 
L 597.085638 232.887801 
L 597.577008 232.939992 
L 597.577008 232.89396 
L 598.806043 232.960637 
L 598.806043 232.911526 
L 599.792972 232.904375 
L 599.792972 232.841782 
L 600.775886 232.93337 
L 600.775886 232.886027 
L 601.512505 232.904979 
L 601.512505 232.868323 
L 603.236227 232.90816 
L 603.236227 232.862432 
L 603.972147 232.948743 
L 603.972147 232.942968 
L 605.44294 232.907136 
L 605.933088 232.933914 
L 605.933088 232.908614 
L 608.879562 232.967485 
L 608.879562 232.921762 
L 609.369186 232.960026 
L 609.369186 232.921284 
L 609.858985 232.973772 
L 609.858985 232.894686 
L 612.30955 232.898755 
L 612.30955 232.854897 
L 612.30955 232.940307 
L 613.04355 232.9164 
L 613.04355 232.919333 
L 614.022624 232.93001 
L 614.022624 232.915446 
L 614.760465 232.922455 
L 614.760465 232.873617 
L 615.250089 232.962973 
L 615.250089 232.923918 
L 615.987406 232.955334 
L 615.987406 232.936014 
L 617.211204 232.997077 
L 617.211204 232.928027 
L 619.66369 232.978014 
L 619.66369 232.911503 
L 620.399086 232.845004 
L 620.399086 232.881468 
L 621.13361 233.000384 
L 621.13361 232.978458 
L 622.85419 232.945037 
L 622.85419 232.915872 
L 623.832741 232.932761 
L 623.832741 232.89686 
L 624.56709 232.900765 
L 635.096544 232.958953 
L 635.096544 232.934556 
L 636.326452 232.997778 
L 636.326452 232.980326 
L 637.301686 233.001741 
L 637.301686 232.968043 
L 638.762704 232.937345 
L 639.249361 233.014145 
L 639.249361 233.011756 
L 641.209953 232.958455 
L 641.209953 233.011683 
L 645.12206 232.950399 
L 645.12206 232.95138 
L 645.12206 232.995483 
L 645.610462 232.978727 
L 647.076891 232.998865 
L 647.076891 232.976896 
L 650.991617 232.944891 
L 650.991617 232.961928 
L 651.236167 233.022443 
L 651.236167 232.931943 
L 655.147227 233.043591 
L 655.147227 232.985703 
L 655.147227 233.003826 
L 659.065792 232.974447 
L 660.040328 233.057473 
L 661.508328 233.011415 
L 662.978772 233.01658 
L 662.978772 233.005816 
L 663.712597 232.961918 
L 663.712597 233.026378 
L 667.383296 233.022755 
L 667.383296 233.052002 
L 669.09445 233.004976 
L 669.09445 232.991242 
L 671.299941 233.013671 
L 671.299941 233.006842 
L 672.034814 233.015413 
L 672.034814 233.053389 
L 673.016332 233.042516 
L 673.016332 233.024618 
L 689.151417 233.082248 
L 689.151417 233.095141 
L 690.617148 233.049253 
L 690.617148 233.024287 
L 691.844962 233.053165 
L 691.844962 233.040862 
L 692.581056 233.047756 
L 694.295003 233.065208 
L 694.295003 233.035969 
L 697.976001 233.025861 
L 697.976001 233.053029 
L 700.184634 232.999858 
L 700.184634 233.031067 
L 702.137371 233.056619 
L 702.137371 233.034042 
L 706.30712 232.998862 
L 706.30712 233.046123 
L 708.758907 233.066698 
L 710.472679 233.022533 
L 710.472679 233.028446 
L 711.941378 233.015644 
L 711.941378 233.007798 
L 716.749646 233.034143 
L 716.749646 233.01363 
L 723.735476 233.066871 
L 723.735476 233.037964 
L 725.444536 233.086353 
L 725.444536 233.060675 
L 731.29751 233.103237 
L 731.29751 233.089108 
L 732.279551 233.066513 
L 732.279551 233.094312 
L 737.406381 233.056155 
L 737.406381 233.07996 
L 740.340635 233.074453 
L 740.340635 233.098623 
L 745.73331 233.115418 
L 745.73331 233.114807 
L 746.71221 233.098173 
L 746.71221 233.099712 
L 750.622921 233.107176 
L 750.622921 233.120901 
L 768.007813 233.108361 
L 768.744606 233.101608 
L 816.473463 233.237804 
L 816.473463 233.237804 
" clip-path="url(#p09f203ff48)" style="fill: none; stroke: #008000; stroke-width: 1.5; stroke-linecap: square"/>
   </g>
   <g id="patch_3">
    <path d="M 47.72 534.04 
L 47.72 26.88 
" style="fill: none; stroke: #000000; stroke-width: 0.8; stroke-linejoin: miter; stroke-linecap: square"/>
   </g>
   <g id="patch_4">
    <path d="M 853.2 534.04 
L 853.2 26.88 
" style="fill: none; stroke: #000000; stroke-width: 0.8; stroke-linejoin: miter; stroke-linecap: square"/>
   </g>
   <g id="patch_5">
    <path d="M 47.72 534.04 
L 853.2 534.04 
" style="fill: none; stroke: #000000; stroke-width: 0.8; stroke-linejoin: miter; stroke-linecap: square"/>
   </g>
   <g id="patch_6">
    <path d="M 47.72 26.88 
L 853.2 26.88 
" style="fill: none; stroke: #000000; stroke-width: 0.8; stroke-linejoin: miter; stroke-linecap: square"/>
   </g>
   <g id="patch_7">
    <path d="M 464.330774 375.085281 
Q 447.495716 380.309802 430.660657 385.534322 
L 431.846222 389.354588 
Q 425.225994 388.267939 418.605766 387.18129 
Q 423.447646 382.53754 428.289527 377.893789 
L 429.475092 381.714055 
Q 446.31015 376.489535 463.145209 371.265015 
L 464.330774 375.085281 
z
" style="stroke: #000000; stroke-linecap: round"/>
   </g>
   <g id="text_17">
    <!-- Peak: RT=3.18, Area=1.81e+04 -->
    <g style="fill: #ff0000" transform="translate(468.351798 358.465819) scale(0.1 -0.1)">
     <defs>
      <path id="DejaVuSans-50" d="M 1259 4147 
L 1259 2394 
L 2053 2394 
Q 2494 2394 2734 2622 
Q 2975 2850 2975 3272 
Q 2975 3691 2734 3919 
Q 2494 4147 2053 4147 
L 1259 4147 
z
M 628 4666 
L 2053 4666 
Q 2838 4666 3239 4311 
Q 3641 3956 3641 3272 
Q 3641 2581 3239 2228 
Q 2838 1875 2053 1875 
L 1259 1875 
L 1259 0 
L 628 0 
L 628 4666 
z
" transform="scale(0.015625)"/>
      <path id="DejaVuSans-6b" d="M 581 4863 
L 1159 4863 
L 1159 1991 
L 2875 3500 
L 3609 3500 
L 1753 1863 
L 3688 0 
L 2938 0 
L 1159 1709 
L 1159 0 
L 581 0 
L 581 4863 
z
" transform="scale(0.015625)"/>
      <path id="DejaVuSans-3a" d="M 750 794 
L 1409 794 
L 1409 0 
L 750 0 
L 750 794 
z
M 750 3309 
L 1409 3309 
L 1409 2516 
L 750 2516 
L 750 3309 
z
" transform="scale(0.015625)"/>
      <path id="DejaVuSans-3d" d="M 678 2906 
L 4684 2906 
L 4684 2381 
L 678 2381 
L 678 2906 
z
M 678 1631 
L 4684 1631 
L 4684 1100 
L 678 1100 
L 678 1631 
z
" transform="scale(0.015625)"/>
      <path id="DejaVuSans-38" d="M 2034 2216 
Q 1584 2216 1326 1975 
Q 1069 1734 1069 1313 
Q 1069 891 1326 650 
Q 1584 409 2034 409 
Q 2484 409 2743 651 
Q 3003 894 3003 1313 
Q 3003 1734 2745 1975 
Q 2488 2216 2034 2216 
z
M 1403 2484 
Q 997 2584 770 2862 
Q 544 3141 544 3541 
Q 544 4100 942 4425 
Q 1341 4750 2034 4750 
Q 2731 4750 3128 4425 
Q 3525 4100 3525 3541 
Q 3525 3141 3298 2862 
Q 3072 2584 2669 2484 
Q 3125 2378 3379 2068 
Q 3634 1759 3634 1313 
Q 3634 634 3220 271 
Q 2806 -91 2034 -91 
Q 1263 -91 848 271 
Q 434 634 434 1313 
Q 434 1759 690 2068 
Q 947 2378 1403 2484 
z
M 1172 3481 
Q 1172 3119 1398 2916 
Q 1625 2713 2034 2713 
Q 2441 2713 2670 2916 
Q 2900 3119 2900 3481 
Q 2900 3844 2670 4047 
Q 2441 4250 2034 4250 
Q 1625 4250 1398 4047 
Q 1172 3844 1172 3481 
z
" transform="scale(0.015625)"/>
      <path id="DejaVuSans-2c" d="M 750 794 
L 1409 794 
L 1409 256 
L 897 -744 
L 494 -744 
L 750 256 
L 750 794 
z
" transform="scale(0.015625)"/>
      <path id="DejaVuSans-41" d="M 2188 4044 
L 1331 1722 
L 3047 1722 
L 2188 4044 
z
M 1831 4666 
L 2547 4666 
L 4325 0 
L 3669 0 
L 3244 1197 
L 1141 1197 
L 716 0 
L 50 0 
L 1831 4666 
z
" transform="scale(0.015625)"/>
      <path id="DejaVuSans-2b" d="M 2944 4013 
L 2944 2272 
L 4684 2272 
L 4684 1741 
L 2944 1741 
L 2944 0 
L 2419 0 
L 2419 1741 
L 678 1741 
L 678 2272 
L 2419 2272 
L 2419 4013 
L 2944 4013 
z
" transform="scale(0.015625)"/>
     </defs>
     <use xlink:href="#DejaVuSans-50"/>
     <use xlink:href="#DejaVuSans-65" x="56.677734"/>
     <use xlink:href="#DejaVuSans-61" x="118.201172"/>
     <use xlink:href="#DejaVuSans-6b" x="179.480469"/>
     <use xlink:href="#DejaVuSans-3a" x="237.390625"/>
     <use xlink:href="#DejaVuSans-20" x="271.082031"/>
     <use xlink:href="#DejaVuSans-52" x="302.869141"/>
     <use xlink:href="#DejaVuSans-54" x="365.101562"/>
     <use xlink:href="#DejaVuSans-3d" x="426.185547"/>
     <use xlink:href="#DejaVuSans-33" x="509.974609"/>
     <use xlink:href="#DejaVuSans-2e" x="573.597656"/>
     <use xlink:href="#DejaVuSans-31" x="605.384766"/>
     <use xlink:href="#DejaVuSans-38" x="669.007812"/>
     <use xlink:href="#DejaVuSans-2c" x="732.630859"/>
     <use xlink:href="#DejaVuSans-20" x="764.417969"/>
     <use xlink:href="#DejaVuSans-41" x="796.205078"/>
     <use xlink:href="#DejaVuSans-72" x="864.613281"/>
     <use xlink:href="#DejaVuSans-65" x="903.476562"/>
     <use xlink:href="#DejaVuSans-61" x="965"/>
     <use xlink:href="#DejaVuSans-3d" x="1026.279297"/>
     <use xlink:href="#DejaVuSans-31" x="1110.068359"/>
     <use xlink:href="#DejaVuSans-2e" x="1173.691406"/>
     <use xlink:href="#DejaVuSans-38" x="1205.478516"/>
     <use xlink:href="#DejaVuSans-31" x="1269.101562"/>
     <use xlink:href="#DejaVuSans-65" x="1332.724609"/>
     <use xlink:href="#DejaVuSans-2b" x="1394.248047"/>
     <use xlink:href="#DejaVuSans-30" x="1478.037109"/>
     <use xlink:href="#DejaVuSans-34" x="1541.660156"/>
    </g>
    <!-- (50.07% of total) -->
    <g style="fill: #ff0000" transform="translate(468.351798 369.663632) scale(0.1 -0.1)">
     <defs>
      <path id="DejaVuSans-25" d="M 4653 2053 
Q 4381 2053 4226 1822 
Q 4072 1591 4072 1178 
Q 4072 772 4226 539 
Q 4381 306 4653 306 
Q 4919 306 5073 539 
Q 5228 772 5228 1178 
Q 5228 1588 5073 1820 
Q 4919 2053 4653 2053 
z
M 4653 2450 
Q 5147 2450 5437 2106 
Q 5728 1763 5728 1178 
Q 5728 594 5436 251 
Q 5144 -91 4653 -91 
Q 4153 -91 3862 251 
Q 3572 594 3572 1178 
Q 3572 1766 3864 2108 
Q 4156 2450 4653 2450 
z
M 1428 4353 
Q 1159 4353 1004 4120 
Q 850 3888 850 3481 
Q 850 3069 1003 2837 
Q 1156 2606 1428 2606 
Q 1700 2606 1854 2837 
Q 2009 3069 2009 3481 
Q 2009 3884 1853 4118 
Q 1697 4353 1428 4353 
z
M 4250 4750 
L 4750 4750 
L 1831 -91 
L 1331 -91 
L 4250 4750 
z
M 1428 4750 
Q 1922 4750 2215 4408 
Q 2509 4066 2509 3481 
Q 2509 2891 2217 2550 
Q 1925 2209 1428 2209 
Q 931 2209 642 2551 
Q 353 2894 353 3481 
Q 353 4063 643 4406 
Q 934 4750 1428 4750 
z
" transform="scale(0.015625)"/>
      <path id="DejaVuSans-66" d="M 2375 4863 
L 2375 4384 
L 1825 4384 
Q 1516 4384 1395 4259 
Q 1275 4134 1275 3809 
L 1275 3500 
L 2222 3500 
L 2222 3053 
L 1275 3053 
L 1275 0 
L 697 0 
L 697 3053 
L 147 3053 
L 147 3500 
L 697 3500 
L 697 3744 
Q 697 4328 969 4595 
Q 1241 4863 1831 4863 
L 2375 4863 
z
" transform="scale(0.015625)"/>
     </defs>
     <use xlink:href="#DejaVuSans-28"/>
     <use xlink:href="#DejaVuSans-35" x="39.013672"/>
     <use xlink:href="#DejaVuSans-30" x="102.636719"/>
     <use xlink:href="#DejaVuSans-2e" x="166.259766"/>
     <use xlink:href="#DejaVuSans-30" x="198.046875"/>
     <use xlink:href="#DejaVuSans-37" x="261.669922"/>
     <use xlink:href="#DejaVuSans-25" x="325.292969"/>
     <use xlink:href="#DejaVuSans-20" x="420.3125"/>
     <use xlink:href="#DejaVuSans-6f" x="452.099609"/>
     <use xlink:href="#DejaVuSans-66" x="513.28125"/>
     <use xlink:href="#DejaVuSans-20" x="548.486328"/>
     <use xlink:href="#DejaVuSans-74" x="580.273438"/>
     <use xlink:href="#DejaVuSans-6f" x="619.482422"/>
     <use xlink:href="#DejaVuSans-74" x="680.664062"/>
     <use xlink:href="#DejaVuSans-61" x="719.873047"/>
     <use xlink:href="#DejaVuSans-6c" x="781.152344"/>
     <use xlink:href="#DejaVuSans-29" x="808.935547"/>
    </g>
   </g>
   <g id="text_18">
    <!-- UV and MS Chromatograms of ReM6Y3BeMeIm_MeOH, target m/z = 722.15 -->
    <g transform="translate(223.631875 20.88) scale(0.12 -0.12)">
     <defs>
      <path id="DejaVuSans-55" d="M 556 4666 
L 1191 4666 
L 1191 1831 
Q 1191 1081 1462 751 
Q 1734 422 2344 422 
Q 2950 422 3222 751 
Q 3494 1081 3494 1831 
L 3494 4666 
L 4128 4666 
L 4128 1753 
Q 4128 841 3676 375 
Q 3225 -91 2344 -91 
Q 1459 -91 1007 375 
Q 556 841 556 1753 
L 556 4666 
z
" transform="scale(0.015625)"/>
      <path id="DejaVuSans-56" d="M 1831 0 
L 50 4666 
L 709 4666 
L 2188 738 
L 3669 4666 
L 4325 4666 
L 2547 0 
L 1831 0 
z
" transform="scale(0.015625)"/>
      <path id="DejaVuSans-4d" d="M 628 4666 
L 1569 4666 
L 2759 1491 
L 3956 4666 
L 4897 4666 
L 4897 0 
L 4281 0 
L 4281 4097 
L 3078 897 
L 2444 897 
L 1241 4097 
L 1241 0 
L 628 0 
L 628 4666 
z
" transform="scale(0.015625)"/>
      <path id="DejaVuSans-53" d="M 3425 4513 
L 3425 3897 
Q 3066 4069 2747 4153 
Q 2428 4238 2131 4238 
Q 1616 4238 1336 4038 
Q 1056 3838 1056 3469 
Q 1056 3159 1242 3001 
Q 1428 2844 1947 2747 
L 2328 2669 
Q 3034 2534 3370 2195 
Q 3706 1856 3706 1288 
Q 3706 609 3251 259 
Q 2797 -91 1919 -91 
Q 1588 -91 1214 -16 
Q 841 59 441 206 
L 441 856 
Q 825 641 1194 531 
Q 1563 422 1919 422 
Q 2459 422 2753 634 
Q 3047 847 3047 1241 
Q 3047 1584 2836 1778 
Q 2625 1972 2144 2069 
L 1759 2144 
Q 1053 2284 737 2584 
Q 422 2884 422 3419 
Q 422 4038 858 4394 
Q 1294 4750 2059 4750 
Q 2388 4750 2728 4690 
Q 3069 4631 3425 4513 
z
" transform="scale(0.015625)"/>
      <path id="DejaVuSans-43" d="M 4122 4306 
L 4122 3641 
Q 3803 3938 3442 4084 
Q 3081 4231 2675 4231 
Q 1875 4231 1450 3742 
Q 1025 3253 1025 2328 
Q 1025 1406 1450 917 
Q 1875 428 2675 428 
Q 3081 428 3442 575 
Q 3803 722 4122 1019 
L 4122 359 
Q 3791 134 3420 21 
Q 3050 -91 2638 -91 
Q 1578 -91 968 557 
Q 359 1206 359 2328 
Q 359 3453 968 4101 
Q 1578 4750 2638 4750 
Q 3056 4750 3426 4639 
Q 3797 4528 4122 4306 
z
" transform="scale(0.015625)"/>
      <path id="DejaVuSans-68" d="M 3513 2113 
L 3513 0 
L 2938 0 
L 2938 2094 
Q 2938 2591 2744 2837 
Q 2550 3084 2163 3084 
Q 1697 3084 1428 2787 
Q 1159 2491 1159 1978 
L 1159 0 
L 581 0 
L 581 4863 
L 1159 4863 
L 1159 2956 
Q 1366 3272 1645 3428 
Q 1925 3584 2291 3584 
Q 2894 3584 3203 3211 
Q 3513 2838 3513 2113 
z
" transform="scale(0.015625)"/>
      <path id="DejaVuSans-67" d="M 2906 1791 
Q 2906 2416 2648 2759 
Q 2391 3103 1925 3103 
Q 1463 3103 1205 2759 
Q 947 2416 947 1791 
Q 947 1169 1205 825 
Q 1463 481 1925 481 
Q 2391 481 2648 825 
Q 2906 1169 2906 1791 
z
M 3481 434 
Q 3481 -459 3084 -895 
Q 2688 -1331 1869 -1331 
Q 1566 -1331 1297 -1286 
Q 1028 -1241 775 -1147 
L 775 -588 
Q 1028 -725 1275 -790 
Q 1522 -856 1778 -856 
Q 2344 -856 2625 -561 
Q 2906 -266 2906 331 
L 2906 616 
Q 2728 306 2450 153 
Q 2172 0 1784 0 
Q 1141 0 747 490 
Q 353 981 353 1791 
Q 353 2603 747 3093 
Q 1141 3584 1784 3584 
Q 2172 3584 2450 3431 
Q 2728 3278 2906 2969 
L 2906 3500 
L 3481 3500 
L 3481 434 
z
" transform="scale(0.015625)"/>
      <path id="DejaVuSans-59" d="M -13 4666 
L 666 4666 
L 1959 2747 
L 3244 4666 
L 3922 4666 
L 2272 2222 
L 2272 0 
L 1638 0 
L 1638 2222 
L -13 4666 
z
" transform="scale(0.015625)"/>
      <path id="DejaVuSans-42" d="M 1259 2228 
L 1259 519 
L 2272 519 
Q 2781 519 3026 730 
Q 3272 941 3272 1375 
Q 3272 1813 3026 2020 
Q 2781 2228 2272 2228 
L 1259 2228 
z
M 1259 4147 
L 1259 2741 
L 2194 2741 
Q 2656 2741 2882 2914 
Q 3109 3088 3109 3444 
Q 3109 3797 2882 3972 
Q 2656 4147 2194 4147 
L 1259 4147 
z
M 628 4666 
L 2241 4666 
Q 2963 4666 3353 4366 
Q 3744 4066 3744 3513 
Q 3744 3084 3544 2831 
Q 3344 2578 2956 2516 
Q 3422 2416 3680 2098 
Q 3938 1781 3938 1306 
Q 3938 681 3513 340 
Q 3088 0 2303 0 
L 628 0 
L 628 4666 
z
" transform="scale(0.015625)"/>
      <path id="DejaVuSans-5f" d="M 3263 -1063 
L 3263 -1509 
L -63 -1509 
L -63 -1063 
L 3263 -1063 
z
" transform="scale(0.015625)"/>
      <path id="DejaVuSans-4f" d="M 2522 4238 
Q 1834 4238 1429 3725 
Q 1025 3213 1025 2328 
Q 1025 1447 1429 934 
Q 1834 422 2522 422 
Q 3209 422 3611 934 
Q 4013 1447 4013 2328 
Q 4013 3213 3611 3725 
Q 3209 4238 2522 4238 
z
M 2522 4750 
Q 3503 4750 4090 4092 
Q 4678 3434 4678 2328 
Q 4678 1225 4090 567 
Q 3503 -91 2522 -91 
Q 1538 -91 948 565 
Q 359 1222 359 2328 
Q 359 3434 948 4092 
Q 1538 4750 2522 4750 
z
" transform="scale(0.015625)"/>
      <path id="DejaVuSans-48" d="M 628 4666 
L 1259 4666 
L 1259 2753 
L 3553 2753 
L 3553 4666 
L 4184 4666 
L 4184 0 
L 3553 0 
L 3553 2222 
L 1259 2222 
L 1259 0 
L 628 0 
L 628 4666 
z
" transform="scale(0.015625)"/>
      <path id="DejaVuSans-2f" d="M 1625 4666 
L 2156 4666 
L 531 -594 
L 0 -594 
L 1625 4666 
z
" transform="scale(0.015625)"/>
     </defs>
     <use xlink:href="#DejaVuSans-55"/>
     <use xlink:href="#DejaVuSans-56" x="73.193359"/>
     <use xlink:href="#DejaVuSans-20" x="141.601562"/>
     <use xlink:href="#DejaVuSans-61" x="173.388672"/>
     <use xlink:href="#DejaVuSans-6e" x="234.667969"/>
     <use xlink:href="#DejaVuSans-64" x="298.046875"/>
     <use xlink:href="#DejaVuSans-20" x="361.523438"/>
     <use xlink:href="#DejaVuSans-4d" x="393.310547"/>
     <use xlink:href="#DejaVuSans-53" x="479.589844"/>
     <use xlink:href="#DejaVuSans-20" x="543.066406"/>
     <use xlink:href="#DejaVuSans-43" x="574.853516"/>
     <use xlink:href="#DejaVuSans-68" x="644.677734"/>
     <use xlink:href="#DejaVuSans-72" x="708.056641"/>
     <use xlink:href="#DejaVuSans-6f" x="746.919922"/>
     <use xlink:href="#DejaVuSans-6d" x="808.101562"/>
     <use xlink:href="#DejaVuSans-61" x="905.513672"/>
     <use xlink:href="#DejaVuSans-74" x="966.792969"/>
     <use xlink:href="#DejaVuSans-6f" x="1006.001953"/>
     <use xlink:href="#DejaVuSans-67" x="1067.183594"/>
     <use xlink:href="#DejaVuSans-72" x="1130.660156"/>
     <use xlink:href="#DejaVuSans-61" x="1171.773438"/>
     <use xlink:href="#DejaVuSans-6d" x="1233.052734"/>
     <use xlink:href="#DejaVuSans-73" x="1330.464844"/>
     <use xlink:href="#DejaVuSans-20" x="1382.564453"/>
     <use xlink:href="#DejaVuSans-6f" x="1414.351562"/>
     <use xlink:href="#DejaVuSans-66" x="1475.533203"/>
     <use xlink:href="#DejaVuSans-20" x="1510.738281"/>
     <use xlink:href="#DejaVuSans-52" x="1542.525391"/>
     <use xlink:href="#DejaVuSans-65" x="1607.507812"/>
     <use xlink:href="#DejaVuSans-4d" x="1669.03125"/>
     <use xlink:href="#DejaVuSans-36" x="1755.310547"/>
     <use xlink:href="#DejaVuSans-59" x="1818.933594"/>
     <use xlink:href="#DejaVuSans-33" x="1880.017578"/>
     <use xlink:href="#DejaVuSans-42" x="1943.640625"/>
     <use xlink:href="#DejaVuSans-65" x="2012.244141"/>
     <use xlink:href="#DejaVuSans-4d" x="2073.767578"/>
     <use xlink:href="#DejaVuSans-65" x="2160.046875"/>
     <use xlink:href="#DejaVuSans-49" x="2221.570312"/>
     <use xlink:href="#DejaVuSans-6d" x="2251.0625"/>
     <use xlink:href="#DejaVuSans-5f" x="2348.474609"/>
     <use xlink:href="#DejaVuSans-4d" x="2398.474609"/>
     <use xlink:href="#DejaVuSans-65" x="2484.753906"/>
     <use xlink:href="#DejaVuSans-4f" x="2546.277344"/>
     <use xlink:href="#DejaVuSans-48" x="2624.988281"/>
     <use xlink:href="#DejaVuSans-2c" x="2700.183594"/>
     <use xlink:href="#DejaVuSans-20" x="2731.970703"/>
     <use xlink:href="#DejaVuSans-74" x="2763.757812"/>
     <use xlink:href="#DejaVuSans-61" x="2802.966797"/>
     <use xlink:href="#DejaVuSans-72" x="2864.246094"/>
     <use xlink:href="#DejaVuSans-67" x="2903.609375"/>
     <use xlink:href="#DejaVuSans-65" x="2967.085938"/>
     <use xlink:href="#DejaVuSans-74" x="3028.609375"/>
     <use xlink:href="#DejaVuSans-20" x="3067.818359"/>
     <use xlink:href="#DejaVuSans-6d" x="3099.605469"/>
     <use xlink:href="#DejaVuSans-2f" x="3197.017578"/>
     <use xlink:href="#DejaVuSans-7a" x="3230.708984"/>
     <use xlink:href="#DejaVuSans-20" x="3283.199219"/>
     <use xlink:href="#DejaVuSans-3d" x="3314.986328"/>
     <use xlink:href="#DejaVuSans-20" x="3398.775391"/>
     <use xlink:href="#DejaVuSans-37" x="3430.5625"/>
     <use xlink:href="#DejaVuSans-32" x="3494.185547"/>
     <use xlink:href="#DejaVuSans-32" x="3557.808594"/>
     <use xlink:href="#DejaVuSans-2e" x="3621.431641"/>
     <use xlink:href="#DejaVuSans-31" x="3653.21875"/>
     <use xlink:href="#DejaVuSans-35" x="3716.841797"/>
    </g>
   </g>
   <g id="legend_1">
    <g id="patch_8">
     <path d="M 685.971875 64.23625 
L 846.2 64.23625 
Q 848.2 64.23625 848.2 62.23625 
L 848.2 33.88 
Q 848.2 31.88 846.2 31.88 
L 685.971875 31.88 
Q 683.971875 31.88 683.971875 33.88 
L 683.971875 62.23625 
Q 683.971875 64.23625 685.971875 64.23625 
z
" style="fill: #ffffff; opacity: 0.8; stroke: #cccccc; stroke-linejoin: miter"/>
    </g>
    <g id="line2d_17">
     <path d="M 687.971875 39.978437 
L 697.971875 39.978437 
L 707.971875 39.978437 
" style="fill: none; stroke: #0000ff; stroke-width: 1.5; stroke-linecap: square"/>
    </g>
    <g id="text_19">
     <!-- UV Intensity (normalized) -->
     <g transform="translate(715.971875 43.478437) scale(0.1 -0.1)">
      <use xlink:href="#DejaVuSans-55"/>
      <use xlink:href="#DejaVuSans-56" x="73.193359"/>
      <use xlink:href="#DejaVuSans-20" x="141.601562"/>
      <use xlink:href="#DejaVuSans-49" x="173.388672"/>
      <use xlink:href="#DejaVuSans-6e" x="202.880859"/>
      <use xlink:href="#DejaVuSans-74" x="266.259766"/>
      <use xlink:href="#DejaVuSans-65" x="305.46875"/>
      <use xlink:href="#DejaVuSans-6e" x="366.992188"/>
      <use xlink:href="#DejaVuSans-73" x="430.371094"/>
      <use xlink:href="#DejaVuSans-69" x="482.470703"/>
      <use xlink:href="#DejaVuSans-74" x="510.253906"/>
      <use xlink:href="#DejaVuSans-79" x="549.462891"/>
      <use xlink:href="#DejaVuSans-20" x="608.642578"/>
      <use xlink:href="#DejaVuSans-28" x="640.429688"/>
      <use xlink:href="#DejaVuSans-6e" x="679.443359"/>
      <use xlink:href="#DejaVuSans-6f" x="742.822266"/>
      <use xlink:href="#DejaVuSans-72" x="804.003906"/>
      <use xlink:href="#DejaVuSans-6d" x="843.367188"/>
      <use xlink:href="#DejaVuSans-61" x="940.779297"/>
      <use xlink:href="#DejaVuSans-6c" x="1002.058594"/>
      <use xlink:href="#DejaVuSans-69" x="1029.841797"/>
      <use xlink:href="#DejaVuSans-7a" x="1057.625"/>
      <use xlink:href="#DejaVuSans-65" x="1110.115234"/>
      <use xlink:href="#DejaVuSans-64" x="1171.638672"/>
      <use xlink:href="#DejaVuSans-29" x="1235.115234"/>
     </g>
    </g>
    <g id="line2d_18">
     <path d="M 687.971875 54.656562 
L 697.971875 54.656562 
L 707.971875 54.656562 
" style="fill: none; stroke: #008000; stroke-width: 1.5; stroke-linecap: square"/>
    </g>
    <g id="text_20">
     <!-- MS Intensity (normalized) -->
     <g transform="translate(715.971875 58.156562) scale(0.1 -0.1)">
      <use xlink:href="#DejaVuSans-4d"/>
      <use xlink:href="#DejaVuSans-53" x="86.279297"/>
      <use xlink:href="#DejaVuSans-20" x="149.755859"/>
      <use xlink:href="#DejaVuSans-49" x="181.542969"/>
      <use xlink:href="#DejaVuSans-6e" x="211.035156"/>
      <use xlink:href="#DejaVuSans-74" x="274.414062"/>
      <use xlink:href="#DejaVuSans-65" x="313.623047"/>
      <use xlink:href="#DejaVuSans-6e" x="375.146484"/>
      <use xlink:href="#DejaVuSans-73" x="438.525391"/>
      <use xlink:href="#DejaVuSans-69" x="490.625"/>
      <use xlink:href="#DejaVuSans-74" x="518.408203"/>
      <use xlink:href="#DejaVuSans-79" x="557.617188"/>
      <use xlink:href="#DejaVuSans-20" x="616.796875"/>
      <use xlink:href="#DejaVuSans-28" x="648.583984"/>
      <use xlink:href="#DejaVuSans-6e" x="687.597656"/>
      <use xlink:href="#DejaVuSans-6f" x="750.976562"/>
      <use xlink:href="#DejaVuSans-72" x="812.158203"/>
      <use xlink:href="#DejaVuSans-6d" x="851.521484"/>
      <use xlink:href="#DejaVuSans-61" x="948.933594"/>
      <use xlink:href="#DejaVuSans-6c" x="1010.212891"/>
      <use xlink:href="#DejaVuSans-69" x="1037.996094"/>
      <use xlink:href="#DejaVuSans-7a" x="1065.779297"/>
      <use xlink:href="#DejaVuSans-65" x="1118.269531"/>
      <use xlink:href="#DejaVuSans-64" x="1179.792969"/>
      <use xlink:href="#DejaVuSans-29" x="1243.269531"/>
     </g>
    </g>
   </g>
  </g>
 </g>
 <defs>
  <clipPath id="p09f203ff48">
   <rect x="47.72" y="26.88" width="805.48" height="507.16"/>
  </clipPath>
 </defs>
</svg>
