<?xml version="1.0" encoding="utf-8" standalone="no"?>
<!DOCTYPE svg PUBLIC "-//W3C//DTD SVG 1.1//EN"
  "http://www.w3.org/Graphics/SVG/1.1/DTD/svg11.dtd">
<svg xmlns:xlink="http://www.w3.org/1999/xlink" width="864pt" height="576pt" viewBox="0 0 864 576" xmlns="http://www.w3.org/2000/svg" version="1.1">
 <metadata>
  <rdf:RDF xmlns:dc="http://purl.org/dc/elements/1.1/" xmlns:cc="http://creativecommons.org/ns#" xmlns:rdf="http://www.w3.org/1999/02/22-rdf-syntax-ns#">
   <cc:Work>
    <dc:type rdf:resource="http://purl.org/dc/dcmitype/StillImage"/>
    <dc:date>2024-12-10T10:23:41.392198</dc:date>
    <dc:format>image/svg+xml</dc:format>
    <dc:creator>
     <cc:Agent>
      <dc:title>Matplotlib v3.9.0, https://matplotlib.org/</dc:title>
     </cc:Agent>
    </dc:creator>
   </cc:Work>
  </rdf:RDF>
 </metadata>
 <defs>
  <style type="text/css">*{stroke-linejoin: round; stroke-linecap: butt}</style>
 </defs>
 <g id="figure_1">
  <g id="patch_1">
   <path d="M 0 576 
L 864 576 
L 864 0 
L 0 0 
z
" style="fill: #ffffff"/>
  </g>
  <g id="axes_1">
   <g id="patch_2">
    <path d="M 47.72 534.04 
L 853.2 534.04 
L 853.2 26.88 
L 47.72 26.88 
z
" style="fill: #ffffff"/>
   </g>
   <g id="matplotlib.axis_1">
    <g id="xtick_1">
     <g id="line2d_1">
      <defs>
       <path id="md3ebddcdca" d="M 0 0 
L 0 3.5 
" style="stroke: #000000; stroke-width: 0.8"/>
      </defs>
      <g>
       <use xlink:href="#md3ebddcdca" x="83.451229" y="534.04" style="stroke: #000000; stroke-width: 0.8"/>
      </g>
     </g>
     <g id="text_1">
      <!-- 0 -->
      <g transform="translate(80.269979 548.638438) scale(0.1 -0.1)">
       <defs>
        <path id="DejaVuSans-30" d="M 2034 4250 
Q 1547 4250 1301 3770 
Q 1056 3291 1056 2328 
Q 1056 1369 1301 889 
Q 1547 409 2034 409 
Q 2525 409 2770 889 
Q 3016 1369 3016 2328 
Q 3016 3291 2770 3770 
Q 2525 4250 2034 4250 
z
M 2034 4750 
Q 2819 4750 3233 4129 
Q 3647 3509 3647 2328 
Q 3647 1150 3233 529 
Q 2819 -91 2034 -91 
Q 1250 -91 836 529 
Q 422 1150 422 2328 
Q 422 3509 836 4129 
Q 1250 4750 2034 4750 
z
" transform="scale(0.015625)"/>
       </defs>
       <use xlink:href="#DejaVuSans-30"/>
      </g>
     </g>
    </g>
    <g id="xtick_2">
     <g id="line2d_2">
      <g>
       <use xlink:href="#md3ebddcdca" x="188.183703" y="534.04" style="stroke: #000000; stroke-width: 0.8"/>
      </g>
     </g>
     <g id="text_2">
      <!-- 1 -->
      <g transform="translate(185.002453 548.638438) scale(0.1 -0.1)">
       <defs>
        <path id="DejaVuSans-31" d="M 794 531 
L 1825 531 
L 1825 4091 
L 703 3866 
L 703 4441 
L 1819 4666 
L 2450 4666 
L 2450 531 
L 3481 531 
L 3481 0 
L 794 0 
L 794 531 
z
" transform="scale(0.015625)"/>
       </defs>
       <use xlink:href="#DejaVuSans-31"/>
      </g>
     </g>
    </g>
    <g id="xtick_3">
     <g id="line2d_3">
      <g>
       <use xlink:href="#md3ebddcdca" x="292.916176" y="534.04" style="stroke: #000000; stroke-width: 0.8"/>
      </g>
     </g>
     <g id="text_3">
      <!-- 2 -->
      <g transform="translate(289.734926 548.638438) scale(0.1 -0.1)">
       <defs>
        <path id="DejaVuSans-32" d="M 1228 531 
L 3431 531 
L 3431 0 
L 469 0 
L 469 531 
Q 828 903 1448 1529 
Q 2069 2156 2228 2338 
Q 2531 2678 2651 2914 
Q 2772 3150 2772 3378 
Q 2772 3750 2511 3984 
Q 2250 4219 1831 4219 
Q 1534 4219 1204 4116 
Q 875 4013 500 3803 
L 500 4441 
Q 881 4594 1212 4672 
Q 1544 4750 1819 4750 
Q 2544 4750 2975 4387 
Q 3406 4025 3406 3419 
Q 3406 3131 3298 2873 
Q 3191 2616 2906 2266 
Q 2828 2175 2409 1742 
Q 1991 1309 1228 531 
z
" transform="scale(0.015625)"/>
       </defs>
       <use xlink:href="#DejaVuSans-32"/>
      </g>
     </g>
    </g>
    <g id="xtick_4">
     <g id="line2d_4">
      <g>
       <use xlink:href="#md3ebddcdca" x="397.64865" y="534.04" style="stroke: #000000; stroke-width: 0.8"/>
      </g>
     </g>
     <g id="text_4">
      <!-- 3 -->
      <g transform="translate(394.4674 548.638438) scale(0.1 -0.1)">
       <defs>
        <path id="DejaVuSans-33" d="M 2597 2516 
Q 3050 2419 3304 2112 
Q 3559 1806 3559 1356 
Q 3559 666 3084 287 
Q 2609 -91 1734 -91 
Q 1441 -91 1130 -33 
Q 819 25 488 141 
L 488 750 
Q 750 597 1062 519 
Q 1375 441 1716 441 
Q 2309 441 2620 675 
Q 2931 909 2931 1356 
Q 2931 1769 2642 2001 
Q 2353 2234 1838 2234 
L 1294 2234 
L 1294 2753 
L 1863 2753 
Q 2328 2753 2575 2939 
Q 2822 3125 2822 3475 
Q 2822 3834 2567 4026 
Q 2313 4219 1838 4219 
Q 1578 4219 1281 4162 
Q 984 4106 628 3988 
L 628 4550 
Q 988 4650 1302 4700 
Q 1616 4750 1894 4750 
Q 2613 4750 3031 4423 
Q 3450 4097 3450 3541 
Q 3450 3153 3228 2886 
Q 3006 2619 2597 2516 
z
" transform="scale(0.015625)"/>
       </defs>
       <use xlink:href="#DejaVuSans-33"/>
      </g>
     </g>
    </g>
    <g id="xtick_5">
     <g id="line2d_5">
      <g>
       <use xlink:href="#md3ebddcdca" x="502.381124" y="534.04" style="stroke: #000000; stroke-width: 0.8"/>
      </g>
     </g>
     <g id="text_5">
      <!-- 4 -->
      <g transform="translate(499.199874 548.638438) scale(0.1 -0.1)">
       <defs>
        <path id="DejaVuSans-34" d="M 2419 4116 
L 825 1625 
L 2419 1625 
L 2419 4116 
z
M 2253 4666 
L 3047 4666 
L 3047 1625 
L 3713 1625 
L 3713 1100 
L 3047 1100 
L 3047 0 
L 2419 0 
L 2419 1100 
L 313 1100 
L 313 1709 
L 2253 4666 
z
" transform="scale(0.015625)"/>
       </defs>
       <use xlink:href="#DejaVuSans-34"/>
      </g>
     </g>
    </g>
    <g id="xtick_6">
     <g id="line2d_6">
      <g>
       <use xlink:href="#md3ebddcdca" x="607.113598" y="534.04" style="stroke: #000000; stroke-width: 0.8"/>
      </g>
     </g>
     <g id="text_6">
      <!-- 5 -->
      <g transform="translate(603.932348 548.638438) scale(0.1 -0.1)">
       <defs>
        <path id="DejaVuSans-35" d="M 691 4666 
L 3169 4666 
L 3169 4134 
L 1269 4134 
L 1269 2991 
Q 1406 3038 1543 3061 
Q 1681 3084 1819 3084 
Q 2600 3084 3056 2656 
Q 3513 2228 3513 1497 
Q 3513 744 3044 326 
Q 2575 -91 1722 -91 
Q 1428 -91 1123 -41 
Q 819 9 494 109 
L 494 744 
Q 775 591 1075 516 
Q 1375 441 1709 441 
Q 2250 441 2565 725 
Q 2881 1009 2881 1497 
Q 2881 1984 2565 2268 
Q 2250 2553 1709 2553 
Q 1456 2553 1204 2497 
Q 953 2441 691 2322 
L 691 4666 
z
" transform="scale(0.015625)"/>
       </defs>
       <use xlink:href="#DejaVuSans-35"/>
      </g>
     </g>
    </g>
    <g id="xtick_7">
     <g id="line2d_7">
      <g>
       <use xlink:href="#md3ebddcdca" x="711.846071" y="534.04" style="stroke: #000000; stroke-width: 0.8"/>
      </g>
     </g>
     <g id="text_7">
      <!-- 6 -->
      <g transform="translate(708.664821 548.638438) scale(0.1 -0.1)">
       <defs>
        <path id="DejaVuSans-36" d="M 2113 2584 
Q 1688 2584 1439 2293 
Q 1191 2003 1191 1497 
Q 1191 994 1439 701 
Q 1688 409 2113 409 
Q 2538 409 2786 701 
Q 3034 994 3034 1497 
Q 3034 2003 2786 2293 
Q 2538 2584 2113 2584 
z
M 3366 4563 
L 3366 3988 
Q 3128 4100 2886 4159 
Q 2644 4219 2406 4219 
Q 1781 4219 1451 3797 
Q 1122 3375 1075 2522 
Q 1259 2794 1537 2939 
Q 1816 3084 2150 3084 
Q 2853 3084 3261 2657 
Q 3669 2231 3669 1497 
Q 3669 778 3244 343 
Q 2819 -91 2113 -91 
Q 1303 -91 875 529 
Q 447 1150 447 2328 
Q 447 3434 972 4092 
Q 1497 4750 2381 4750 
Q 2619 4750 2861 4703 
Q 3103 4656 3366 4563 
z
" transform="scale(0.015625)"/>
       </defs>
       <use xlink:href="#DejaVuSans-36"/>
      </g>
     </g>
    </g>
    <g id="xtick_8">
     <g id="line2d_8">
      <g>
       <use xlink:href="#md3ebddcdca" x="816.578545" y="534.04" style="stroke: #000000; stroke-width: 0.8"/>
      </g>
     </g>
     <g id="text_8">
      <!-- 7 -->
      <g transform="translate(813.397295 548.638438) scale(0.1 -0.1)">
       <defs>
        <path id="DejaVuSans-37" d="M 525 4666 
L 3525 4666 
L 3525 4397 
L 1831 0 
L 1172 0 
L 2766 4134 
L 525 4134 
L 525 4666 
z
" transform="scale(0.015625)"/>
       </defs>
       <use xlink:href="#DejaVuSans-37"/>
      </g>
     </g>
    </g>
    <g id="text_9">
     <!-- Retention Time (min) -->
     <g transform="translate(397.61 562.316562) scale(0.1 -0.1)">
      <defs>
       <path id="DejaVuSans-52" d="M 2841 2188 
Q 3044 2119 3236 1894 
Q 3428 1669 3622 1275 
L 4263 0 
L 3584 0 
L 2988 1197 
Q 2756 1666 2539 1819 
Q 2322 1972 1947 1972 
L 1259 1972 
L 1259 0 
L 628 0 
L 628 4666 
L 2053 4666 
Q 2853 4666 3247 4331 
Q 3641 3997 3641 3322 
Q 3641 2881 3436 2590 
Q 3231 2300 2841 2188 
z
M 1259 4147 
L 1259 2491 
L 2053 2491 
Q 2509 2491 2742 2702 
Q 2975 2913 2975 3322 
Q 2975 3731 2742 3939 
Q 2509 4147 2053 4147 
L 1259 4147 
z
" transform="scale(0.015625)"/>
       <path id="DejaVuSans-65" d="M 3597 1894 
L 3597 1613 
L 953 1613 
Q 991 1019 1311 708 
Q 1631 397 2203 397 
Q 2534 397 2845 478 
Q 3156 559 3463 722 
L 3463 178 
Q 3153 47 2828 -22 
Q 2503 -91 2169 -91 
Q 1331 -91 842 396 
Q 353 884 353 1716 
Q 353 2575 817 3079 
Q 1281 3584 2069 3584 
Q 2775 3584 3186 3129 
Q 3597 2675 3597 1894 
z
M 3022 2063 
Q 3016 2534 2758 2815 
Q 2500 3097 2075 3097 
Q 1594 3097 1305 2825 
Q 1016 2553 972 2059 
L 3022 2063 
z
" transform="scale(0.015625)"/>
       <path id="DejaVuSans-74" d="M 1172 4494 
L 1172 3500 
L 2356 3500 
L 2356 3053 
L 1172 3053 
L 1172 1153 
Q 1172 725 1289 603 
Q 1406 481 1766 481 
L 2356 481 
L 2356 0 
L 1766 0 
Q 1100 0 847 248 
Q 594 497 594 1153 
L 594 3053 
L 172 3053 
L 172 3500 
L 594 3500 
L 594 4494 
L 1172 4494 
z
" transform="scale(0.015625)"/>
       <path id="DejaVuSans-6e" d="M 3513 2113 
L 3513 0 
L 2938 0 
L 2938 2094 
Q 2938 2591 2744 2837 
Q 2550 3084 2163 3084 
Q 1697 3084 1428 2787 
Q 1159 2491 1159 1978 
L 1159 0 
L 581 0 
L 581 3500 
L 1159 3500 
L 1159 2956 
Q 1366 3272 1645 3428 
Q 1925 3584 2291 3584 
Q 2894 3584 3203 3211 
Q 3513 2838 3513 2113 
z
" transform="scale(0.015625)"/>
       <path id="DejaVuSans-69" d="M 603 3500 
L 1178 3500 
L 1178 0 
L 603 0 
L 603 3500 
z
M 603 4863 
L 1178 4863 
L 1178 4134 
L 603 4134 
L 603 4863 
z
" transform="scale(0.015625)"/>
       <path id="DejaVuSans-6f" d="M 1959 3097 
Q 1497 3097 1228 2736 
Q 959 2375 959 1747 
Q 959 1119 1226 758 
Q 1494 397 1959 397 
Q 2419 397 2687 759 
Q 2956 1122 2956 1747 
Q 2956 2369 2687 2733 
Q 2419 3097 1959 3097 
z
M 1959 3584 
Q 2709 3584 3137 3096 
Q 3566 2609 3566 1747 
Q 3566 888 3137 398 
Q 2709 -91 1959 -91 
Q 1206 -91 779 398 
Q 353 888 353 1747 
Q 353 2609 779 3096 
Q 1206 3584 1959 3584 
z
" transform="scale(0.015625)"/>
       <path id="DejaVuSans-20" transform="scale(0.015625)"/>
       <path id="DejaVuSans-54" d="M -19 4666 
L 3928 4666 
L 3928 4134 
L 2272 4134 
L 2272 0 
L 1638 0 
L 1638 4134 
L -19 4134 
L -19 4666 
z
" transform="scale(0.015625)"/>
       <path id="DejaVuSans-6d" d="M 3328 2828 
Q 3544 3216 3844 3400 
Q 4144 3584 4550 3584 
Q 5097 3584 5394 3201 
Q 5691 2819 5691 2113 
L 5691 0 
L 5113 0 
L 5113 2094 
Q 5113 2597 4934 2840 
Q 4756 3084 4391 3084 
Q 3944 3084 3684 2787 
Q 3425 2491 3425 1978 
L 3425 0 
L 2847 0 
L 2847 2094 
Q 2847 2600 2669 2842 
Q 2491 3084 2119 3084 
Q 1678 3084 1418 2786 
Q 1159 2488 1159 1978 
L 1159 0 
L 581 0 
L 581 3500 
L 1159 3500 
L 1159 2956 
Q 1356 3278 1631 3431 
Q 1906 3584 2284 3584 
Q 2666 3584 2933 3390 
Q 3200 3197 3328 2828 
z
" transform="scale(0.015625)"/>
       <path id="DejaVuSans-28" d="M 1984 4856 
Q 1566 4138 1362 3434 
Q 1159 2731 1159 2009 
Q 1159 1288 1364 580 
Q 1569 -128 1984 -844 
L 1484 -844 
Q 1016 -109 783 600 
Q 550 1309 550 2009 
Q 550 2706 781 3412 
Q 1013 4119 1484 4856 
L 1984 4856 
z
" transform="scale(0.015625)"/>
       <path id="DejaVuSans-29" d="M 513 4856 
L 1013 4856 
Q 1481 4119 1714 3412 
Q 1947 2706 1947 2009 
Q 1947 1309 1714 600 
Q 1481 -109 1013 -844 
L 513 -844 
Q 928 -128 1133 580 
Q 1338 1288 1338 2009 
Q 1338 2731 1133 3434 
Q 928 4138 513 4856 
z
" transform="scale(0.015625)"/>
      </defs>
      <use xlink:href="#DejaVuSans-52"/>
      <use xlink:href="#DejaVuSans-65" x="64.982422"/>
      <use xlink:href="#DejaVuSans-74" x="126.505859"/>
      <use xlink:href="#DejaVuSans-65" x="165.714844"/>
      <use xlink:href="#DejaVuSans-6e" x="227.238281"/>
      <use xlink:href="#DejaVuSans-74" x="290.617188"/>
      <use xlink:href="#DejaVuSans-69" x="329.826172"/>
      <use xlink:href="#DejaVuSans-6f" x="357.609375"/>
      <use xlink:href="#DejaVuSans-6e" x="418.791016"/>
      <use xlink:href="#DejaVuSans-20" x="482.169922"/>
      <use xlink:href="#DejaVuSans-54" x="513.957031"/>
      <use xlink:href="#DejaVuSans-69" x="571.916016"/>
      <use xlink:href="#DejaVuSans-6d" x="599.699219"/>
      <use xlink:href="#DejaVuSans-65" x="697.111328"/>
      <use xlink:href="#DejaVuSans-20" x="758.634766"/>
      <use xlink:href="#DejaVuSans-28" x="790.421875"/>
      <use xlink:href="#DejaVuSans-6d" x="829.435547"/>
      <use xlink:href="#DejaVuSans-69" x="926.847656"/>
      <use xlink:href="#DejaVuSans-6e" x="954.630859"/>
      <use xlink:href="#DejaVuSans-29" x="1018.009766"/>
     </g>
    </g>
   </g>
   <g id="matplotlib.axis_2">
    <g id="ytick_1">
     <g id="line2d_9">
      <defs>
       <path id="m021fd0a761" d="M 0 0 
L -3.5 0 
" style="stroke: #000000; stroke-width: 0.8"/>
      </defs>
      <g>
       <use xlink:href="#m021fd0a761" x="47.72" y="505.63172" style="stroke: #000000; stroke-width: 0.8"/>
      </g>
     </g>
     <g id="text_10">
      <!-- 0.0 -->
      <g style="fill: #0000ff" transform="translate(24.816875 509.430939) scale(0.1 -0.1)">
       <defs>
        <path id="DejaVuSans-2e" d="M 684 794 
L 1344 794 
L 1344 0 
L 684 0 
L 684 794 
z
" transform="scale(0.015625)"/>
       </defs>
       <use xlink:href="#DejaVuSans-30"/>
       <use xlink:href="#DejaVuSans-2e" x="63.623047"/>
       <use xlink:href="#DejaVuSans-30" x="95.410156"/>
      </g>
     </g>
    </g>
    <g id="ytick_2">
     <g id="line2d_10">
      <g>
       <use xlink:href="#m021fd0a761" x="47.72" y="414.491922" style="stroke: #000000; stroke-width: 0.8"/>
      </g>
     </g>
     <g id="text_11">
      <!-- 0.5 -->
      <g style="fill: #0000ff" transform="translate(24.816875 418.291141) scale(0.1 -0.1)">
       <use xlink:href="#DejaVuSans-30"/>
       <use xlink:href="#DejaVuSans-2e" x="63.623047"/>
       <use xlink:href="#DejaVuSans-35" x="95.410156"/>
      </g>
     </g>
    </g>
    <g id="ytick_3">
     <g id="line2d_11">
      <g>
       <use xlink:href="#m021fd0a761" x="47.72" y="323.352123" style="stroke: #000000; stroke-width: 0.8"/>
      </g>
     </g>
     <g id="text_12">
      <!-- 1.0 -->
      <g style="fill: #0000ff" transform="translate(24.816875 327.151342) scale(0.1 -0.1)">
       <use xlink:href="#DejaVuSans-31"/>
       <use xlink:href="#DejaVuSans-2e" x="63.623047"/>
       <use xlink:href="#DejaVuSans-30" x="95.410156"/>
      </g>
     </g>
    </g>
    <g id="ytick_4">
     <g id="line2d_12">
      <g>
       <use xlink:href="#m021fd0a761" x="47.72" y="232.212325" style="stroke: #000000; stroke-width: 0.8"/>
      </g>
     </g>
     <g id="text_13">
      <!-- 1.5 -->
      <g style="fill: #0000ff" transform="translate(24.816875 236.011543) scale(0.1 -0.1)">
       <use xlink:href="#DejaVuSans-31"/>
       <use xlink:href="#DejaVuSans-2e" x="63.623047"/>
       <use xlink:href="#DejaVuSans-35" x="95.410156"/>
      </g>
     </g>
    </g>
    <g id="ytick_5">
     <g id="line2d_13">
      <g>
       <use xlink:href="#m021fd0a761" x="47.72" y="141.072526" style="stroke: #000000; stroke-width: 0.8"/>
      </g>
     </g>
     <g id="text_14">
      <!-- 2.0 -->
      <g style="fill: #0000ff" transform="translate(24.816875 144.871745) scale(0.1 -0.1)">
       <use xlink:href="#DejaVuSans-32"/>
       <use xlink:href="#DejaVuSans-2e" x="63.623047"/>
       <use xlink:href="#DejaVuSans-30" x="95.410156"/>
      </g>
     </g>
    </g>
    <g id="ytick_6">
     <g id="line2d_14">
      <g>
       <use xlink:href="#m021fd0a761" x="47.72" y="49.932727" style="stroke: #000000; stroke-width: 0.8"/>
      </g>
     </g>
     <g id="text_15">
      <!-- 2.5 -->
      <g style="fill: #0000ff" transform="translate(24.816875 53.731946) scale(0.1 -0.1)">
       <use xlink:href="#DejaVuSans-32"/>
       <use xlink:href="#DejaVuSans-2e" x="63.623047"/>
       <use xlink:href="#DejaVuSans-35" x="95.410156"/>
      </g>
     </g>
    </g>
    <g id="text_16">
     <!-- Normalized Intensity -->
     <g style="fill: #0000ff" transform="translate(18.737187 332.167031) rotate(-90) scale(0.1 -0.1)">
      <defs>
       <path id="DejaVuSans-4e" d="M 628 4666 
L 1478 4666 
L 3547 763 
L 3547 4666 
L 4159 4666 
L 4159 0 
L 3309 0 
L 1241 3903 
L 1241 0 
L 628 0 
L 628 4666 
z
" transform="scale(0.015625)"/>
       <path id="DejaVuSans-72" d="M 2631 2963 
Q 2534 3019 2420 3045 
Q 2306 3072 2169 3072 
Q 1681 3072 1420 2755 
Q 1159 2438 1159 1844 
L 1159 0 
L 581 0 
L 581 3500 
L 1159 3500 
L 1159 2956 
Q 1341 3275 1631 3429 
Q 1922 3584 2338 3584 
Q 2397 3584 2469 3576 
Q 2541 3569 2628 3553 
L 2631 2963 
z
" transform="scale(0.015625)"/>
       <path id="DejaVuSans-61" d="M 2194 1759 
Q 1497 1759 1228 1600 
Q 959 1441 959 1056 
Q 959 750 1161 570 
Q 1363 391 1709 391 
Q 2188 391 2477 730 
Q 2766 1069 2766 1631 
L 2766 1759 
L 2194 1759 
z
M 3341 1997 
L 3341 0 
L 2766 0 
L 2766 531 
Q 2569 213 2275 61 
Q 1981 -91 1556 -91 
Q 1019 -91 701 211 
Q 384 513 384 1019 
Q 384 1609 779 1909 
Q 1175 2209 1959 2209 
L 2766 2209 
L 2766 2266 
Q 2766 2663 2505 2880 
Q 2244 3097 1772 3097 
Q 1472 3097 1187 3025 
Q 903 2953 641 2809 
L 641 3341 
Q 956 3463 1253 3523 
Q 1550 3584 1831 3584 
Q 2591 3584 2966 3190 
Q 3341 2797 3341 1997 
z
" transform="scale(0.015625)"/>
       <path id="DejaVuSans-6c" d="M 603 4863 
L 1178 4863 
L 1178 0 
L 603 0 
L 603 4863 
z
" transform="scale(0.015625)"/>
       <path id="DejaVuSans-7a" d="M 353 3500 
L 3084 3500 
L 3084 2975 
L 922 459 
L 3084 459 
L 3084 0 
L 275 0 
L 275 525 
L 2438 3041 
L 353 3041 
L 353 3500 
z
" transform="scale(0.015625)"/>
       <path id="DejaVuSans-64" d="M 2906 2969 
L 2906 4863 
L 3481 4863 
L 3481 0 
L 2906 0 
L 2906 525 
Q 2725 213 2448 61 
Q 2172 -91 1784 -91 
Q 1150 -91 751 415 
Q 353 922 353 1747 
Q 353 2572 751 3078 
Q 1150 3584 1784 3584 
Q 2172 3584 2448 3432 
Q 2725 3281 2906 2969 
z
M 947 1747 
Q 947 1113 1208 752 
Q 1469 391 1925 391 
Q 2381 391 2643 752 
Q 2906 1113 2906 1747 
Q 2906 2381 2643 2742 
Q 2381 3103 1925 3103 
Q 1469 3103 1208 2742 
Q 947 2381 947 1747 
z
" transform="scale(0.015625)"/>
       <path id="DejaVuSans-49" d="M 628 4666 
L 1259 4666 
L 1259 0 
L 628 0 
L 628 4666 
z
" transform="scale(0.015625)"/>
       <path id="DejaVuSans-73" d="M 2834 3397 
L 2834 2853 
Q 2591 2978 2328 3040 
Q 2066 3103 1784 3103 
Q 1356 3103 1142 2972 
Q 928 2841 928 2578 
Q 928 2378 1081 2264 
Q 1234 2150 1697 2047 
L 1894 2003 
Q 2506 1872 2764 1633 
Q 3022 1394 3022 966 
Q 3022 478 2636 193 
Q 2250 -91 1575 -91 
Q 1294 -91 989 -36 
Q 684 19 347 128 
L 347 722 
Q 666 556 975 473 
Q 1284 391 1588 391 
Q 1994 391 2212 530 
Q 2431 669 2431 922 
Q 2431 1156 2273 1281 
Q 2116 1406 1581 1522 
L 1381 1569 
Q 847 1681 609 1914 
Q 372 2147 372 2553 
Q 372 3047 722 3315 
Q 1072 3584 1716 3584 
Q 2034 3584 2315 3537 
Q 2597 3491 2834 3397 
z
" transform="scale(0.015625)"/>
       <path id="DejaVuSans-79" d="M 2059 -325 
Q 1816 -950 1584 -1140 
Q 1353 -1331 966 -1331 
L 506 -1331 
L 506 -850 
L 844 -850 
Q 1081 -850 1212 -737 
Q 1344 -625 1503 -206 
L 1606 56 
L 191 3500 
L 800 3500 
L 1894 763 
L 2988 3500 
L 3597 3500 
L 2059 -325 
z
" transform="scale(0.015625)"/>
      </defs>
      <use xlink:href="#DejaVuSans-4e"/>
      <use xlink:href="#DejaVuSans-6f" x="74.804688"/>
      <use xlink:href="#DejaVuSans-72" x="135.986328"/>
      <use xlink:href="#DejaVuSans-6d" x="175.349609"/>
      <use xlink:href="#DejaVuSans-61" x="272.761719"/>
      <use xlink:href="#DejaVuSans-6c" x="334.041016"/>
      <use xlink:href="#DejaVuSans-69" x="361.824219"/>
      <use xlink:href="#DejaVuSans-7a" x="389.607422"/>
      <use xlink:href="#DejaVuSans-65" x="442.097656"/>
      <use xlink:href="#DejaVuSans-64" x="503.621094"/>
      <use xlink:href="#DejaVuSans-20" x="567.097656"/>
      <use xlink:href="#DejaVuSans-49" x="598.884766"/>
      <use xlink:href="#DejaVuSans-6e" x="628.376953"/>
      <use xlink:href="#DejaVuSans-74" x="691.755859"/>
      <use xlink:href="#DejaVuSans-65" x="730.964844"/>
      <use xlink:href="#DejaVuSans-6e" x="792.488281"/>
      <use xlink:href="#DejaVuSans-73" x="855.867188"/>
      <use xlink:href="#DejaVuSans-69" x="907.966797"/>
      <use xlink:href="#DejaVuSans-74" x="935.75"/>
      <use xlink:href="#DejaVuSans-79" x="974.958984"/>
     </g>
    </g>
   </g>
   <g id="line2d_15">
    <path d="M 84.332727 505.63172 
L 90.442122 505.54159 
L 104.406451 505.138879 
L 118.370781 505.601012 
L 125.352946 505.584218 
L 133.207882 505.443353 
L 134.080652 505.548388 
L 134.953423 505.794182 
L 135.826194 506.238356 
L 137.571735 507.320263 
L 138.444505 507.301174 
L 139.317276 506.483762 
L 140.190047 504.885827 
L 141.935588 500.663269 
L 142.808358 498.951028 
L 143.681129 498.089451 
L 144.5539 498.266905 
L 145.42667 499.308249 
L 147.172212 502.084597 
L 148.044982 502.673009 
L 148.917753 499.112271 
L 149.790523 481.491208 
L 150.663294 440.102766 
L 151.536065 382.596792 
L 152.408835 335.7959 
L 153.281606 323.352123 
L 154.154376 347.056549 
L 155.899918 435.022675 
L 156.772688 468.398785 
L 157.645459 488.185816 
L 158.518229 497.427984 
L 159.391 500.722055 
L 160.263771 501.674222 
L 162.009312 502.639687 
L 162.882083 502.974888 
L 163.754853 502.92479 
L 164.627624 502.466382 
L 166.373165 501.121852 
L 167.245936 500.664823 
L 168.118706 500.45945 
L 168.991477 500.46141 
L 170.737018 500.850471 
L 173.35533 501.914366 
L 175.100871 502.582772 
L 176.846412 503.050962 
L 179.464724 503.467165 
L 183.828577 503.891985 
L 185.574119 503.969843 
L 186.446889 503.901379 
L 187.31966 503.671407 
L 189.065201 502.720494 
L 189.937972 502.251721 
L 190.810742 502.003543 
L 191.683513 502.027277 
L 193.429054 502.589147 
L 195.174595 503.172191 
L 196.920137 503.462997 
L 199.538448 503.572164 
L 204.775072 503.757388 
L 209.138925 503.927461 
L 213.502778 503.908531 
L 216.12109 503.94987 
L 221.357714 503.659258 
L 225.721567 503.976217 
L 229.212649 504.291058 
L 238.813126 504.605156 
L 244.04975 504.540419 
L 247.540832 504.694263 
L 251.904685 504.795466 
L 255.395768 504.871223 
L 257.141309 504.673938 
L 258.01408 504.347001 
L 260.632391 502.864944 
L 261.505162 502.661796 
L 262.377933 502.68477 
L 264.123474 503.127107 
L 266.741786 503.883102 
L 268.487327 504.172867 
L 270.232868 504.273805 
L 273.723951 504.161459 
L 278.960574 503.966117 
L 283.324427 503.921669 
L 285.942739 503.725214 
L 287.68828 503.924848 
L 290.306592 504.363565 
L 293.797675 504.569273 
L 297.288757 504.612149 
L 301.65261 504.399324 
L 308.634775 504.893844 
L 312.125858 504.975675 
L 314.744169 504.804984 
L 319.108023 504.232377 
L 320.853564 504.059885 
L 323.471876 503.507233 
L 324.344646 503.0724 
L 325.217417 502.126696 
L 326.090187 500.272442 
L 326.962958 496.914976 
L 327.835729 491.376089 
L 329.58127 476.394324 
L 330.454041 471.932717 
L 331.326811 472.244679 
L 332.199582 476.74676 
L 333.945123 489.639355 
L 334.817894 494.549356 
L 335.690664 497.749499 
L 336.563435 499.593228 
L 337.436205 500.599344 
L 338.308976 501.184188 
L 340.054517 501.906843 
L 344.41837 503.199315 
L 346.163912 503.501352 
L 347.036682 503.505838 
L 347.909453 503.369087 
L 348.782223 503.070546 
L 350.527765 502.051946 
L 352.273306 500.928664 
L 353.146076 500.477427 
L 354.018847 500.226635 
L 354.891618 500.315618 
L 355.764388 500.760269 
L 357.50993 501.925032 
L 358.3827 502.224367 
L 359.255471 502.298817 
L 360.128241 502.214955 
L 361.001012 501.859217 
L 361.873783 500.93843 
L 363.619324 497.645912 
L 364.492094 496.487472 
L 365.364865 496.352487 
L 366.237636 497.160876 
L 368.855948 501.060417 
L 369.728718 501.893828 
L 370.601489 502.427003 
L 371.474259 502.739848 
L 372.34703 502.885092 
L 373.219801 502.864326 
L 374.092571 502.644561 
L 374.965342 502.16627 
L 375.838112 501.354544 
L 377.583654 499.112907 
L 378.456424 498.408547 
L 380.201966 497.965397 
L 381.074736 496.661765 
L 382.820277 491.487975 
L 383.693048 490.144487 
L 384.565819 490.651121 
L 387.18413 495.673891 
L 388.056901 496.456586 
L 390.675213 498.33173 
L 391.547984 498.538534 
L 393.293525 498.26588 
L 394.166295 498.546816 
L 396.784607 500.550464 
L 397.657378 500.537167 
L 398.530148 499.926858 
L 399.402919 498.861744 
L 401.14846 496.536669 
L 402.021231 495.94522 
L 402.894002 496.068285 
L 403.766772 496.899259 
L 405.512313 499.437919 
L 406.385084 499.550512 
L 407.257855 494.784431 
L 408.130625 478.366186 
L 409.003396 446.342375 
L 409.876166 405.455427 
L 410.748937 371.394911 
L 411.621708 357.44914 
L 412.494478 366.033938 
L 413.367249 389.804532 
L 414.24002 418.151179 
L 415.11279 442.880544 
L 415.985561 460.483966 
L 416.858331 471.433871 
L 417.731102 478.081206 
L 418.603873 482.702043 
L 420.349414 490.035673 
L 421.222184 492.965088 
L 422.094955 495.16445 
L 422.967726 496.537835 
L 423.840496 497.130078 
L 424.713267 497.12773 
L 427.331579 496.266294 
L 428.204349 496.343675 
L 429.07712 496.751366 
L 429.949891 497.456256 
L 431.695432 499.164329 
L 432.568202 499.806813 
L 433.440973 500.15713 
L 434.313744 500.213197 
L 435.186514 500.034842 
L 436.932055 499.298872 
L 438.677597 498.561667 
L 439.550367 498.329064 
L 440.423138 498.261695 
L 441.295909 498.395762 
L 444.786991 499.665418 
L 447.405303 500.707963 
L 448.278073 500.795287 
L 449.150844 500.584863 
L 451.769156 499.468292 
L 452.641927 499.361632 
L 453.514697 499.475285 
L 454.387468 499.813523 
L 457.00578 501.36272 
L 457.87855 501.696985 
L 458.751321 501.862431 
L 460.496862 501.85256 
L 462.242403 501.740267 
L 463.115174 501.786851 
L 465.733486 502.394264 
L 466.606256 502.310137 
L 469.224568 501.122541 
L 470.097339 501.068434 
L 470.970109 501.17158 
L 471.84288 501.159819 
L 472.715651 500.79933 
L 474.461192 499.340689 
L 475.333963 498.945024 
L 476.206733 499.106143 
L 477.952274 500.065551 
L 478.825045 499.783203 
L 479.697816 498.383277 
L 480.570586 495.862965 
L 482.316127 489.704092 
L 483.188898 487.6086 
L 484.061669 486.843176 
L 484.934439 487.411651 
L 485.80721 488.989843 
L 488.425522 495.226433 
L 489.298292 496.790427 
L 490.171063 497.869633 
L 491.043834 498.18389 
L 491.916604 497.343433 
L 492.789375 495.369364 
L 493.662145 493.084162 
L 494.534916 491.67825 
L 495.407687 491.813729 
L 496.280457 493.238572 
L 498.025998 496.976746 
L 498.898769 498.359596 
L 499.77154 499.373817 
L 500.64431 500.146128 
L 502.389852 501.272183 
L 504.135393 502.039797 
L 505.880934 502.495096 
L 509.372016 502.98958 
L 511.117558 503.398736 
L 511.990328 503.315157 
L 512.863099 502.775625 
L 514.60864 500.816089 
L 515.481411 500.23889 
L 516.354181 500.3144 
L 517.226952 500.91602 
L 518.972493 502.51339 
L 519.845264 503.130374 
L 520.718034 503.574972 
L 521.590805 503.859545 
L 522.463576 503.974787 
L 523.336346 503.907648 
L 525.954658 503.243921 
L 526.827429 503.177347 
L 528.57297 503.367516 
L 535.555135 504.795696 
L 537.300676 504.884043 
L 539.046217 504.740494 
L 541.664529 504.249418 
L 543.41007 504.222877 
L 547.773924 504.519158 
L 552.137777 504.53189 
L 554.756088 504.786284 
L 556.50163 504.581493 
L 557.3744 504.273752 
L 558.247171 503.759437 
L 559.119941 503.013155 
L 561.738253 500.143338 
L 562.611024 499.454747 
L 563.483795 499.100757 
L 564.356565 499.109816 
L 565.229336 499.447966 
L 566.102106 500.039451 
L 569.593189 503.009234 
L 570.465959 503.531637 
L 571.33873 503.91035 
L 573.084271 504.297309 
L 573.957042 504.324221 
L 574.829813 504.216149 
L 575.702583 503.940776 
L 578.320895 502.669548 
L 579.193666 502.507846 
L 580.066436 502.552434 
L 596.649078 505.858072 
L 601.012931 506.319269 
L 605.376784 506.500573 
L 615.850031 506.499001 
L 617.595573 506.363805 
L 620.213884 505.827169 
L 621.959426 505.493681 
L 623.704967 505.464473 
L 625.450508 505.742795 
L 628.06882 506.257287 
L 630.687132 506.475427 
L 632.432673 506.463896 
L 634.178214 506.212239 
L 637.669297 505.378792 
L 638.542067 505.411602 
L 640.287609 505.795224 
L 642.90592 506.418724 
L 644.651462 506.61608 
L 647.269774 506.635257 
L 652.506397 506.547652 
L 657.743021 506.677321 
L 663.852415 506.884477 
L 671.707351 506.661269 
L 678.689516 506.142133 
L 680.435057 505.512152 
L 683.053369 504.311277 
L 683.926139 504.076926 
L 684.79891 504.006061 
L 685.671681 504.103079 
L 687.417222 504.661577 
L 690.035534 505.623792 
L 691.781075 505.990373 
L 694.399387 506.223629 
L 698.76324 506.343409 
L 702.254322 506.222816 
L 705.745405 505.908859 
L 711.854799 505.228268 
L 713.60034 505.392372 
L 720.582505 506.486022 
L 728.437441 507.085912 
L 731.055753 507.583893 
L 735.419606 508.744135 
L 740.656229 510.068604 
L 744.147312 510.716456 
L 746.765624 510.961438 
L 749.383935 510.93887 
L 751.129477 510.730671 
L 752.875018 510.308041 
L 754.620559 509.63499 
L 758.111642 508.123813 
L 759.857183 507.734806 
L 761.602724 507.648454 
L 765.093806 507.645275 
L 773.821513 507.147877 
L 783.421989 507.224976 
L 798.25909 507.099156 
L 800.877402 506.658814 
L 804.368484 505.884949 
L 806.114025 505.751324 
L 807.859567 505.88283 
L 813.968961 506.690759 
L 816.587273 506.789172 
L 816.587273 506.789172 
" clip-path="url(#pe5b0c0ec32)" style="fill: none; stroke: #0000ff; stroke-width: 1.5; stroke-linecap: square"/>
   </g>
   <g id="line2d_16">
    <path d="M 89.370359 232.205586 
L 109.275464 232.206234 
L 328.718623 232.016643 
L 329.212786 231.959059 
L 329.212786 231.845309 
L 329.459082 231.911477 
L 329.459082 231.806319 
L 330.187845 231.92546 
L 330.187845 231.855383 
L 330.900899 231.813044 
L 330.900899 231.844986 
L 331.609938 231.873847 
L 333.031332 231.833238 
L 333.031332 231.92926 
L 333.26698 232.021748 
L 333.739847 232.128415 
L 333.739847 232.115653 
L 335.164034 232.058879 
L 336.838008 232.134676 
L 357.048234 232.193079 
L 408.823605 232.075284 
L 408.823605 231.935619 
L 409.071472 231.848693 
L 409.071472 231.26712 
L 409.32283 231.04449 
L 409.32283 229.996785 
L 409.569999 229.541719 
L 409.569999 226.236124 
L 409.816469 224.803453 
L 409.816469 220.085711 
L 410.062067 218.15958 
L 410.062067 212.074037 
L 410.301904 209.453899 
L 410.301904 196.008918 
L 410.539298 196.489049 
L 410.539298 179.089122 
L 410.774946 181.504734 
L 410.774946 159.437076 
L 411.01007 165.30783 
L 411.01007 135.514706 
L 411.01007 146.363812 
L 411.244845 142.585482 
L 411.244845 129.355085 
L 411.479271 127.15965 
L 411.479271 118.743526 
L 411.713523 115.924429 
L 411.713523 74.186819 
L 411.713523 101.159278 
L 411.947775 99.576625 
L 411.947775 92.90454 
L 412.183946 131.366906 
L 412.183946 92.403069 
L 412.417674 92.016507 
L 412.417674 87.841531 
L 412.651752 87.451711 
L 412.651752 49.932727 
L 412.651752 85.807753 
L 412.889669 84.68354 
L 412.889669 89.470016 
L 412.889669 87.260135 
L 413.123571 125.453022 
L 413.123571 91.004211 
L 413.123571 91.326024 
L 413.357299 127.949544 
L 413.357299 98.086446 
L 413.591202 99.963873 
L 413.591202 111.125614 
L 413.825104 112.366658 
L 413.825104 115.083463 
L 414.059356 116.755287 
L 414.059356 122.849028 
L 414.293433 126.15881 
L 414.293433 136.160697 
L 414.52751 163.229224 
L 414.52751 140.435653 
L 414.761762 139.374739 
L 414.761762 141.069968 
L 414.996363 141.512035 
L 414.996363 119.425108 
L 415.230963 145.989951 
L 415.230963 127.468089 
L 415.230963 150.276323 
L 415.465564 152.135732 
L 415.465564 155.823538 
L 415.700514 156.097274 
L 415.700514 157.368209 
L 415.935638 158.81183 
L 415.935638 139.377921 
L 416.170763 160.265573 
L 416.170763 143.651576 
L 416.170763 163.902615 
L 416.409553 164.599749 
L 416.409553 169.280421 
L 416.644852 186.450369 
L 416.644852 170.801957 
L 416.880151 171.336752 
L 416.880151 173.424465 
L 417.115973 173.68823 
L 417.115973 175.299928 
L 417.351272 175.334362 
L 417.351272 175.717997 
L 417.589713 177.03976 
L 417.589713 165.230174 
L 417.825361 180.798991 
L 417.825361 169.233269 
L 417.825361 184.16361 
L 418.061184 184.206235 
L 418.061184 185.032871 
L 418.296832 184.897601 
L 418.296832 184.957792 
L 418.296832 185.079487 
L 418.532829 185.584172 
L 418.532829 187.555323 
L 418.768826 188.11744 
L 418.768826 190.006931 
L 419.004823 190.826684 
L 419.004823 180.39916 
L 419.240821 191.145116 
L 419.240821 181.027883 
L 419.477341 192.543474 
L 419.477341 182.66631 
L 419.713862 193.938879 
L 419.713862 185.261644 
L 419.713862 195.191897 
L 419.954572 195.562823 
L 419.954572 196.349695 
L 420.191093 196.43247 
L 420.191093 197.70367 
L 420.428138 198.283875 
L 420.428138 190.235949 
L 420.665357 200.213235 
L 420.665357 192.482325 
L 420.903449 200.821856 
L 420.903449 194.073538 
L 421.140493 202.803199 
L 421.140493 196.268866 
L 421.140493 204.157182 
L 421.377538 204.504383 
L 421.377538 204.793427 
L 421.615106 204.74484 
L 421.615106 204.930284 
L 421.853372 205.564417 
L 421.853372 199.402006 
L 422.091813 207.099505 
L 422.091813 201.273616 
L 422.091813 208.082751 
L 422.330429 208.214685 
L 422.330429 208.906242 
L 422.330429 208.535591 
L 422.56852 214.956848 
L 422.56852 209.687872 
L 422.806612 215.890494 
L 422.806612 210.994529 
L 423.045577 211.121483 
L 423.045577 212.427504 
L 423.285065 213.539722 
L 423.285065 208.119796 
L 423.285065 213.553695 
L 423.52787 213.545445 
L 423.52787 213.388796 
L 423.76666 212.890988 
L 423.76666 213.975271 
L 424.006323 214.268594 
L 424.006323 210.107981 
L 424.246684 214.983087 
L 424.246684 210.908083 
L 424.487394 215.664129 
L 424.487394 211.767775 
L 424.487394 216.116466 
L 424.730548 216.315011 
L 424.730548 216.916693 
L 425.211968 217.992268 
L 425.453376 217.71221 
L 425.453376 218.201859 
L 425.695308 218.521615 
L 425.695308 215.378133 
L 425.936193 219.113824 
L 425.936193 215.764421 
L 426.176903 219.691409 
L 426.176903 216.787216 
L 426.418312 220.006254 
L 426.418312 217.230056 
L 426.418312 220.540218 
L 426.661465 220.731232 
L 426.661465 221.485813 
L 426.904968 224.439602 
L 426.904968 221.88691 
L 427.150741 221.653933 
L 427.150741 221.720383 
L 427.395466 221.89011 
L 427.395466 219.278191 
L 427.395466 222.049428 
L 427.641587 222.54484 
L 427.641587 222.385221 
L 427.886312 225.438003 
L 427.886312 222.953463 
L 428.128593 225.515722 
L 428.128593 223.577025 
L 428.373492 223.420475 
L 428.373492 223.73506 
L 428.617693 224.072215 
L 428.617693 222.259953 
L 428.863291 224.444711 
L 428.863291 222.502733 
L 429.108016 224.7443 
L 429.108016 222.84514 
L 429.356756 224.85722 
L 429.356756 223.052278 
L 429.356756 224.936555 
L 429.602179 225.10359 
L 429.602179 225.440127 
L 429.602179 225.429881 
L 429.847427 227.406828 
L 429.847427 225.820537 
L 430.338099 225.811673 
L 430.338099 224.381229 
L 430.583697 226.2076 
L 430.583697 224.721692 
L 430.833134 226.493676 
L 430.833134 225.188169 
L 431.078907 226.665273 
L 431.078907 225.328269 
L 431.324679 226.986792 
L 431.324679 225.348734 
L 431.570451 226.902879 
L 431.570451 225.587621 
L 431.816747 227.009566 
L 431.816747 225.7172 
L 432.062694 227.410735 
L 432.062694 225.846479 
L 432.308815 227.346053 
L 432.308815 225.907146 
L 432.308815 227.041062 
L 432.801407 227.058688 
L 432.801407 227.242759 
L 433.047877 227.358425 
L 433.047877 226.127154 
L 433.294348 227.580759 
L 433.294348 226.369235 
L 433.541167 227.773764 
L 433.541167 226.604615 
L 433.788859 227.876175 
L 433.788859 226.772467 
L 434.035504 228.016309 
L 434.035504 226.76778 
L 434.282673 228.094297 
L 434.282673 227.097841 
L 434.533158 228.309813 
L 434.533158 227.214394 
L 434.780327 228.411901 
L 434.780327 227.282895 
L 435.02767 228.381147 
L 435.02767 227.249566 
L 435.02767 228.329645 
L 435.522182 228.39454 
L 435.522182 228.582301 
L 435.769525 228.737922 
L 435.769525 227.842615 
L 436.016868 229.013357 
L 436.016868 228.111604 
L 436.267528 229.030621 
L 436.267528 228.168915 
L 436.515395 229.156311 
L 436.515395 228.102714 
L 436.515395 228.946515 
L 436.763087 228.992518 
L 436.763087 228.918852 
L 437.010779 228.777757 
L 437.010779 228.805965 
L 437.258646 228.852725 
L 437.258646 229.032338 
L 437.506513 229.207738 
L 437.75438 229.376915 
L 437.75438 228.536218 
L 437.75438 229.264299 
L 438.502344 229.500336 
L 438.502344 228.784122 
L 438.750386 229.537754 
L 438.750386 228.779542 
L 438.998427 229.594097 
L 438.998427 228.832362 
L 439.246818 229.516804 
L 439.246818 228.903367 
L 439.246818 229.644098 
L 439.991466 229.673997 
L 439.991466 228.914556 
L 439.991466 229.586456 
L 440.487199 229.618217 
L 440.487199 229.810348 
L 440.735066 229.927523 
L 440.735066 229.320881 
L 440.735066 229.921167 
L 440.982758 229.969218 
L 440.982758 230.084998 
L 441.477968 230.105796 
L 441.477968 229.590205 
L 441.725486 230.15652 
L 441.725486 229.55311 
L 441.976495 230.250927 
L 441.976495 229.738532 
L 442.223489 230.298263 
L 442.223489 229.758575 
L 442.470309 230.399998 
L 442.470309 229.874561 
L 442.716954 230.392183 
L 442.716954 229.975673 
L 442.963424 230.546884 
L 442.963424 230.021794 
L 443.210244 230.525649 
L 443.210244 230.028241 
L 443.210244 230.411818 
L 443.954368 230.537603 
L 443.954368 230.027282 
L 443.954368 230.506307 
L 444.696747 230.596494 
L 444.696747 230.156756 
L 444.696747 230.601441 
L 445.439125 230.6713 
L 445.439125 230.354986 
L 445.692054 230.760958 
L 445.692054 230.321056 
L 445.939397 230.774777 
L 445.939397 230.34657 
L 446.186566 230.719988 
L 446.186566 230.257242 
L 446.433909 230.679762 
L 446.433909 230.251592 
L 446.681252 230.706516 
L 446.681252 230.274775 
L 446.928421 230.763644 
L 446.928421 230.366028 
L 447.17559 230.809447 
L 447.17559 230.389301 
L 447.422758 230.803031 
L 447.422758 230.451668 
L 447.670451 230.8979 
L 447.670451 230.495633 
L 447.917445 230.924555 
L 447.917445 230.548624 
L 448.164613 230.871507 
L 448.164613 230.551581 
L 448.411782 230.953559 
L 448.411782 230.59139 
L 448.411782 230.946544 
L 449.153637 230.981332 
L 449.153637 230.688517 
L 449.404646 231.006393 
L 449.404646 230.738516 
L 449.651989 231.116075 
L 449.651989 230.798339 
L 449.899507 231.112115 
L 449.899507 230.810729 
L 449.899507 231.105288 
L 450.393669 231.156557 
L 450.393669 231.192212 
L 450.640838 231.211234 
L 450.640838 230.888174 
L 450.888007 231.153372 
L 450.888007 230.789999 
L 451.632655 230.685928 
L 451.632655 230.773981 
L 451.879474 231.132626 
L 451.879474 230.898918 
L 452.126294 231.219038 
L 452.126294 230.960718 
L 452.372764 231.207069 
L 452.372764 230.947765 
L 452.619933 231.242231 
L 452.619933 230.972058 
L 452.866927 231.210406 
L 452.866927 230.908849 
L 453.117412 231.152558 
L 453.117412 230.914599 
L 453.364231 231.178287 
L 453.364231 230.905172 
L 453.611226 231.229409 
L 453.611226 230.927835 
L 453.85822 231.173452 
L 453.85822 230.925249 
L 454.105388 231.25048 
L 454.105388 231.0029 
L 454.352557 231.29729 
L 454.352557 230.981234 
L 454.612992 231.237237 
L 454.612992 230.995932 
L 454.612992 231.223488 
L 454.860335 231.320588 
L 454.860335 231.291302 
L 455.107329 231.516142 
L 455.107329 231.303202 
L 455.601841 231.255619 
L 455.601841 231.065388 
L 455.849184 231.282691 
L 455.849184 231.014582 
L 456.096527 231.279027 
L 456.096527 231.073962 
L 456.34387 230.993199 
L 456.34387 231.004908 
L 456.591388 231.285382 
L 456.591388 231.11885 
L 457.090962 231.404851 
L 457.090962 231.188484 
L 457.341796 231.364137 
L 457.341796 231.163277 
L 457.589663 231.347211 
L 457.589663 231.168208 
L 457.589663 231.371145 
L 458.334136 231.445228 
L 458.334136 231.270885 
L 458.334136 231.450875 
L 460.072521 231.325537 
L 460.324752 231.529281 
L 460.324752 231.348811 
L 460.573142 231.537483 
L 460.573142 231.383287 
L 460.821009 231.531098 
L 460.821009 231.334499 
L 461.069574 231.535223 
L 461.069574 231.336649 
L 461.318488 231.51073 
L 461.318488 231.356563 
L 461.566879 231.555349 
L 461.566879 231.345233 
L 462.560441 231.623656 
L 462.560441 231.472925 
L 463.305787 231.383324 
L 463.305787 231.552972 
L 464.055148 231.640162 
L 464.055148 231.495129 
L 464.055148 231.621938 
L 464.305982 231.605504 
L 464.305982 231.622838 
L 464.5535 231.735588 
L 464.5535 231.606649 
L 465.04871 231.656023 
L 465.04871 231.552332 
L 465.543745 231.719827 
L 465.543745 231.585978 
L 465.791089 231.709642 
L 465.791089 231.561319 
L 466.038606 231.691394 
L 466.038606 231.538716 
L 466.286299 231.698162 
L 466.286299 231.556411 
L 466.533816 231.705274 
L 466.533816 231.557833 
L 466.781509 231.692641 
L 466.781509 231.567839 
L 467.029026 231.698952 
L 467.029026 231.522819 
L 467.276719 231.674683 
L 467.276719 231.566454 
L 467.777165 231.729524 
L 467.777165 231.590862 
L 468.025207 231.705399 
L 468.025207 231.587878 
L 468.520941 231.730655 
L 469.760275 231.595069 
L 470.503177 231.415216 
L 470.503177 231.541523 
L 470.750695 231.636608 
L 470.998736 231.775253 
L 470.998736 231.643806 
L 471.501976 231.652569 
L 471.501976 231.540987 
L 471.750541 231.692126 
L 471.750541 231.547859 
L 471.750541 231.683177 
L 472.495712 231.693868 
L 472.495712 231.694849 
L 472.99197 231.668056 
L 472.99197 231.59034 
L 472.99197 231.71199 
L 473.736792 231.728887 
L 474.727911 231.786333 
L 474.727911 231.677151 
L 475.226612 231.593895 
L 475.473955 231.592303 
L 475.473955 231.598866 
L 475.721298 231.772283 
L 475.721298 231.668744 
L 476.215461 231.792822 
L 476.215461 231.736506 
L 476.462804 231.85807 
L 476.462804 231.768056 
L 477.451129 231.72317 
L 477.698473 231.84546 
L 477.698473 231.756938 
L 478.197174 231.841171 
L 478.197174 231.733436 
L 478.692035 231.832066 
L 478.692035 231.729147 
L 478.692035 231.81184 
L 481.668183 231.833825 
L 481.668183 231.853876 
L 482.662617 231.867191 
L 482.662617 231.775219 
L 483.157827 231.869264 
L 483.157827 231.805588 
L 483.652514 231.845336 
L 483.652514 231.778212 
L 484.148597 231.895141 
L 484.148597 231.783809 
L 484.644156 231.830345 
L 484.644156 231.766689 
L 484.644156 231.856093 
L 485.386709 231.847219 
L 485.386709 231.764287 
L 485.884537 231.893546 
L 485.884537 231.81996 
L 486.630756 231.769662 
L 486.877925 231.88345 
L 486.877925 231.824268 
L 487.373135 231.82053 
L 487.373135 231.827328 
L 487.868345 231.918365 
L 487.868345 231.914388 
L 490.114857 231.780044 
L 490.114857 231.809821 
L 490.362898 231.920725 
L 490.362898 231.818251 
L 490.858981 231.881033 
L 492.351244 231.914074 
L 492.351244 231.937696 
L 494.089628 231.842928 
L 494.336797 231.774359 
L 494.830436 231.89846 
L 494.830436 231.879868 
L 495.323028 231.909277 
L 495.323028 231.830786 
L 496.55154 231.854758 
L 496.55154 231.843354 
L 496.797137 231.768344 
L 497.785987 231.962957 
L 497.785987 231.928199 
L 498.772392 231.977659 
L 498.772392 231.975026 
L 500.754105 231.971076 
L 500.754105 231.93103 
L 501.253504 231.921298 
L 501.253504 231.939455 
L 515.693669 231.965265 
L 515.941012 232.030968 
L 516.188355 231.953098 
L 516.682518 231.968506 
L 516.682518 231.913594 
L 517.176331 232.02861 
L 518.411825 231.931389 
L 518.411825 231.97159 
L 518.910527 232.018274 
L 518.910527 231.969631 
L 519.656222 232.001584 
L 519.656222 231.944439 
L 520.399473 232.03966 
L 520.399473 231.979983 
L 521.390591 232.020092 
L 521.390591 232.018336 
L 524.873819 231.97708 
L 525.371124 232.01149 
L 525.371124 231.96874 
L 526.121008 231.97162 
L 528.61015 231.952604 
L 528.61015 231.942199 
L 529.10728 231.959963 
L 530.356564 231.981994 
L 531.102957 231.996268 
L 533.347374 231.998115 
L 533.600303 232.017963 
L 533.600303 231.988079 
L 534.098655 231.916669 
L 534.098655 231.923071 
L 535.344797 232.011377 
L 535.344797 231.969226 
L 535.593537 232.04393 
L 535.593537 232.010642 
L 536.09154 231.986367 
L 536.09154 232.006035 
L 541.326767 232.002329 
L 541.326767 231.903988 
L 541.823199 231.926038 
L 541.823199 231.864544 
L 542.56837 232.004691 
L 542.56837 231.989325 
L 543.312495 231.949645 
L 543.312495 231.892107 
L 544.062205 231.996844 
L 544.062205 231.958996 
L 544.558287 231.952871 
L 544.558287 231.996726 
L 545.054196 232.002585 
L 545.054196 231.97848 
L 545.551151 231.928922 
L 545.799367 231.868328 
L 546.542444 231.955197 
L 554.716116 231.974902 
L 554.716116 231.954304 
L 555.707059 231.983129 
L 555.707059 232.007778 
L 556.447343 232.017507 
L 556.447343 231.998133 
L 556.941331 232.00535 
L 560.401343 232.054888 
L 560.401343 232.041941 
L 561.143024 231.974413 
L 561.143024 231.991268 
L 563.867988 232.060972 
L 563.867988 232.029436 
L 565.10418 232.052746 
L 565.10418 232.016565 
L 566.839423 232.044569 
L 566.839423 232.029527 
L 572.051784 232.053625 
L 572.051784 232.022969 
L 572.547343 231.982373 
L 572.547343 232.019226 
L 573.542127 232.071058 
L 573.542127 232.035568 
L 574.532896 232.053273 
L 597.560949 232.02383 
L 597.560949 232.053547 
L 598.299313 232.020857 
L 598.299313 231.983489 
L 599.283623 232.004863 
L 608.872929 232.064562 
L 608.872929 232.05763 
L 609.608674 232.044502 
L 609.608674 232.045636 
L 612.55637 232.081454 
L 612.55637 232.051378 
L 623.356906 232.097973 
L 623.356906 232.084834 
L 623.847054 232.029802 
L 623.847054 232.059195 
L 626.302856 232.099527 
L 626.302856 232.080199 
L 634.898076 232.087976 
L 634.898076 232.107464 
L 637.350037 232.092006 
L 639.551863 232.06084 
L 639.551863 232.087634 
L 657.219882 232.106578 
L 657.219882 232.100455 
L 658.449441 232.062444 
L 658.449441 232.128274 
L 659.433403 232.105641 
L 659.433403 232.085452 
L 660.658598 232.09973 
L 663.113179 232.128567 
L 663.113179 232.107376 
L 675.641452 232.096982 
L 678.101617 232.113155 
L 678.101617 232.125601 
L 687.701221 232.118156 
L 688.936366 232.125728 
L 694.353828 232.144909 
L 695.091668 232.101365 
L 696.325766 232.149889 
L 696.325766 232.12612 
L 696.325766 232.138342 
L 704.695287 232.111687 
L 705.678376 232.14786 
L 705.678376 232.161552 
L 708.143429 232.133611 
L 708.143429 232.157049 
L 710.112923 232.147364 
L 710.112923 232.134923 
L 710.112923 232.129385 
L 711.585113 232.119937 
L 714.758332 232.155237 
L 714.758332 232.174203 
L 715.477495 232.121255 
L 715.477495 232.122161 
L 716.433877 232.159683 
L 716.433877 232.149393 
L 720.516 232.124514 
L 720.516 232.149327 
L 722.448838 232.11325 
L 724.148297 232.1078 
L 724.148297 232.083798 
L 733.467392 232.134805 
L 733.467392 232.132066 
L 737.398177 232.107471 
L 739.365925 232.148021 
L 740.838813 232.148806 
L 789.360844 232.175841 
L 789.360844 232.179429 
L 794.783543 232.158608 
L 796.260096 232.158103 
L 800.695167 232.145262 
L 800.695167 232.165975 
L 802.421857 232.130442 
L 802.421857 232.137143 
L 802.421857 232.151946 
L 809.313428 232.172067 
L 811.286762 232.155533 
L 811.286762 232.169545 
L 812.528889 232.176712 
L 816.414639 232.191938 
L 816.414639 232.191938 
" clip-path="url(#pe5b0c0ec32)" style="fill: none; stroke: #008000; stroke-width: 1.5; stroke-linecap: square"/>
   </g>
   <g id="patch_3">
    <path d="M 47.72 534.04 
L 47.72 26.88 
" style="fill: none; stroke: #000000; stroke-width: 0.8; stroke-linejoin: miter; stroke-linecap: square"/>
   </g>
   <g id="patch_4">
    <path d="M 853.2 534.04 
L 853.2 26.88 
" style="fill: none; stroke: #000000; stroke-width: 0.8; stroke-linejoin: miter; stroke-linecap: square"/>
   </g>
   <g id="patch_5">
    <path d="M 47.72 534.04 
L 853.2 534.04 
" style="fill: none; stroke: #000000; stroke-width: 0.8; stroke-linejoin: miter; stroke-linecap: square"/>
   </g>
   <g id="patch_6">
    <path d="M 47.72 26.88 
L 853.2 26.88 
" style="fill: none; stroke: #000000; stroke-width: 0.8; stroke-linejoin: miter; stroke-linecap: square"/>
   </g>
   <g id="patch_7">
    <path d="M 460.836267 353.219626 
Q 444.003963 358.410234 427.171659 363.600843 
L 428.350375 367.423228 
Q 421.732529 366.324584 415.114683 365.225941 
Q 419.964455 360.591006 424.814227 355.956072 
L 425.992943 359.778458 
Q 442.825247 354.587849 459.657551 349.397241 
L 460.836267 353.219626 
z
" style="stroke: #000000; stroke-linecap: round"/>
   </g>
   <g id="text_17">
    <!-- Peak: RT=3.14, Area=6.14e+03 -->
    <g style="fill: #ff0000" transform="translate(464.860715 336.608166) scale(0.1 -0.1)">
     <defs>
      <path id="DejaVuSans-50" d="M 1259 4147 
L 1259 2394 
L 2053 2394 
Q 2494 2394 2734 2622 
Q 2975 2850 2975 3272 
Q 2975 3691 2734 3919 
Q 2494 4147 2053 4147 
L 1259 4147 
z
M 628 4666 
L 2053 4666 
Q 2838 4666 3239 4311 
Q 3641 3956 3641 3272 
Q 3641 2581 3239 2228 
Q 2838 1875 2053 1875 
L 1259 1875 
L 1259 0 
L 628 0 
L 628 4666 
z
" transform="scale(0.015625)"/>
      <path id="DejaVuSans-6b" d="M 581 4863 
L 1159 4863 
L 1159 1991 
L 2875 3500 
L 3609 3500 
L 1753 1863 
L 3688 0 
L 2938 0 
L 1159 1709 
L 1159 0 
L 581 0 
L 581 4863 
z
" transform="scale(0.015625)"/>
      <path id="DejaVuSans-3a" d="M 750 794 
L 1409 794 
L 1409 0 
L 750 0 
L 750 794 
z
M 750 3309 
L 1409 3309 
L 1409 2516 
L 750 2516 
L 750 3309 
z
" transform="scale(0.015625)"/>
      <path id="DejaVuSans-3d" d="M 678 2906 
L 4684 2906 
L 4684 2381 
L 678 2381 
L 678 2906 
z
M 678 1631 
L 4684 1631 
L 4684 1100 
L 678 1100 
L 678 1631 
z
" transform="scale(0.015625)"/>
      <path id="DejaVuSans-2c" d="M 750 794 
L 1409 794 
L 1409 256 
L 897 -744 
L 494 -744 
L 750 256 
L 750 794 
z
" transform="scale(0.015625)"/>
      <path id="DejaVuSans-41" d="M 2188 4044 
L 1331 1722 
L 3047 1722 
L 2188 4044 
z
M 1831 4666 
L 2547 4666 
L 4325 0 
L 3669 0 
L 3244 1197 
L 1141 1197 
L 716 0 
L 50 0 
L 1831 4666 
z
" transform="scale(0.015625)"/>
      <path id="DejaVuSans-2b" d="M 2944 4013 
L 2944 2272 
L 4684 2272 
L 4684 1741 
L 2944 1741 
L 2944 0 
L 2419 0 
L 2419 1741 
L 678 1741 
L 678 2272 
L 2419 2272 
L 2419 4013 
L 2944 4013 
z
" transform="scale(0.015625)"/>
     </defs>
     <use xlink:href="#DejaVuSans-50"/>
     <use xlink:href="#DejaVuSans-65" x="56.677734"/>
     <use xlink:href="#DejaVuSans-61" x="118.201172"/>
     <use xlink:href="#DejaVuSans-6b" x="179.480469"/>
     <use xlink:href="#DejaVuSans-3a" x="237.390625"/>
     <use xlink:href="#DejaVuSans-20" x="271.082031"/>
     <use xlink:href="#DejaVuSans-52" x="302.869141"/>
     <use xlink:href="#DejaVuSans-54" x="365.101562"/>
     <use xlink:href="#DejaVuSans-3d" x="426.185547"/>
     <use xlink:href="#DejaVuSans-33" x="509.974609"/>
     <use xlink:href="#DejaVuSans-2e" x="573.597656"/>
     <use xlink:href="#DejaVuSans-31" x="605.384766"/>
     <use xlink:href="#DejaVuSans-34" x="669.007812"/>
     <use xlink:href="#DejaVuSans-2c" x="732.630859"/>
     <use xlink:href="#DejaVuSans-20" x="764.417969"/>
     <use xlink:href="#DejaVuSans-41" x="796.205078"/>
     <use xlink:href="#DejaVuSans-72" x="864.613281"/>
     <use xlink:href="#DejaVuSans-65" x="903.476562"/>
     <use xlink:href="#DejaVuSans-61" x="965"/>
     <use xlink:href="#DejaVuSans-3d" x="1026.279297"/>
     <use xlink:href="#DejaVuSans-36" x="1110.068359"/>
     <use xlink:href="#DejaVuSans-2e" x="1173.691406"/>
     <use xlink:href="#DejaVuSans-31" x="1205.478516"/>
     <use xlink:href="#DejaVuSans-34" x="1269.101562"/>
     <use xlink:href="#DejaVuSans-65" x="1332.724609"/>
     <use xlink:href="#DejaVuSans-2b" x="1394.248047"/>
     <use xlink:href="#DejaVuSans-30" x="1478.037109"/>
     <use xlink:href="#DejaVuSans-33" x="1541.660156"/>
    </g>
    <!-- (34.29% of total) -->
    <g style="fill: #ff0000" transform="translate(464.860715 347.805978) scale(0.1 -0.1)">
     <defs>
      <path id="DejaVuSans-39" d="M 703 97 
L 703 672 
Q 941 559 1184 500 
Q 1428 441 1663 441 
Q 2288 441 2617 861 
Q 2947 1281 2994 2138 
Q 2813 1869 2534 1725 
Q 2256 1581 1919 1581 
Q 1219 1581 811 2004 
Q 403 2428 403 3163 
Q 403 3881 828 4315 
Q 1253 4750 1959 4750 
Q 2769 4750 3195 4129 
Q 3622 3509 3622 2328 
Q 3622 1225 3098 567 
Q 2575 -91 1691 -91 
Q 1453 -91 1209 -44 
Q 966 3 703 97 
z
M 1959 2075 
Q 2384 2075 2632 2365 
Q 2881 2656 2881 3163 
Q 2881 3666 2632 3958 
Q 2384 4250 1959 4250 
Q 1534 4250 1286 3958 
Q 1038 3666 1038 3163 
Q 1038 2656 1286 2365 
Q 1534 2075 1959 2075 
z
" transform="scale(0.015625)"/>
      <path id="DejaVuSans-25" d="M 4653 2053 
Q 4381 2053 4226 1822 
Q 4072 1591 4072 1178 
Q 4072 772 4226 539 
Q 4381 306 4653 306 
Q 4919 306 5073 539 
Q 5228 772 5228 1178 
Q 5228 1588 5073 1820 
Q 4919 2053 4653 2053 
z
M 4653 2450 
Q 5147 2450 5437 2106 
Q 5728 1763 5728 1178 
Q 5728 594 5436 251 
Q 5144 -91 4653 -91 
Q 4153 -91 3862 251 
Q 3572 594 3572 1178 
Q 3572 1766 3864 2108 
Q 4156 2450 4653 2450 
z
M 1428 4353 
Q 1159 4353 1004 4120 
Q 850 3888 850 3481 
Q 850 3069 1003 2837 
Q 1156 2606 1428 2606 
Q 1700 2606 1854 2837 
Q 2009 3069 2009 3481 
Q 2009 3884 1853 4118 
Q 1697 4353 1428 4353 
z
M 4250 4750 
L 4750 4750 
L 1831 -91 
L 1331 -91 
L 4250 4750 
z
M 1428 4750 
Q 1922 4750 2215 4408 
Q 2509 4066 2509 3481 
Q 2509 2891 2217 2550 
Q 1925 2209 1428 2209 
Q 931 2209 642 2551 
Q 353 2894 353 3481 
Q 353 4063 643 4406 
Q 934 4750 1428 4750 
z
" transform="scale(0.015625)"/>
      <path id="DejaVuSans-66" d="M 2375 4863 
L 2375 4384 
L 1825 4384 
Q 1516 4384 1395 4259 
Q 1275 4134 1275 3809 
L 1275 3500 
L 2222 3500 
L 2222 3053 
L 1275 3053 
L 1275 0 
L 697 0 
L 697 3053 
L 147 3053 
L 147 3500 
L 697 3500 
L 697 3744 
Q 697 4328 969 4595 
Q 1241 4863 1831 4863 
L 2375 4863 
z
" transform="scale(0.015625)"/>
     </defs>
     <use xlink:href="#DejaVuSans-28"/>
     <use xlink:href="#DejaVuSans-33" x="39.013672"/>
     <use xlink:href="#DejaVuSans-34" x="102.636719"/>
     <use xlink:href="#DejaVuSans-2e" x="166.259766"/>
     <use xlink:href="#DejaVuSans-32" x="198.046875"/>
     <use xlink:href="#DejaVuSans-39" x="261.669922"/>
     <use xlink:href="#DejaVuSans-25" x="325.292969"/>
     <use xlink:href="#DejaVuSans-20" x="420.3125"/>
     <use xlink:href="#DejaVuSans-6f" x="452.099609"/>
     <use xlink:href="#DejaVuSans-66" x="513.28125"/>
     <use xlink:href="#DejaVuSans-20" x="548.486328"/>
     <use xlink:href="#DejaVuSans-74" x="580.273438"/>
     <use xlink:href="#DejaVuSans-6f" x="619.482422"/>
     <use xlink:href="#DejaVuSans-74" x="680.664062"/>
     <use xlink:href="#DejaVuSans-61" x="719.873047"/>
     <use xlink:href="#DejaVuSans-6c" x="781.152344"/>
     <use xlink:href="#DejaVuSans-29" x="808.935547"/>
    </g>
   </g>
   <g id="text_18">
    <!-- UV and MS Chromatograms of ReM1Y2BeMeIm_MeOH, target m/z = 631.15 -->
    <g transform="translate(223.631875 20.88) scale(0.12 -0.12)">
     <defs>
      <path id="DejaVuSans-55" d="M 556 4666 
L 1191 4666 
L 1191 1831 
Q 1191 1081 1462 751 
Q 1734 422 2344 422 
Q 2950 422 3222 751 
Q 3494 1081 3494 1831 
L 3494 4666 
L 4128 4666 
L 4128 1753 
Q 4128 841 3676 375 
Q 3225 -91 2344 -91 
Q 1459 -91 1007 375 
Q 556 841 556 1753 
L 556 4666 
z
" transform="scale(0.015625)"/>
      <path id="DejaVuSans-56" d="M 1831 0 
L 50 4666 
L 709 4666 
L 2188 738 
L 3669 4666 
L 4325 4666 
L 2547 0 
L 1831 0 
z
" transform="scale(0.015625)"/>
      <path id="DejaVuSans-4d" d="M 628 4666 
L 1569 4666 
L 2759 1491 
L 3956 4666 
L 4897 4666 
L 4897 0 
L 4281 0 
L 4281 4097 
L 3078 897 
L 2444 897 
L 1241 4097 
L 1241 0 
L 628 0 
L 628 4666 
z
" transform="scale(0.015625)"/>
      <path id="DejaVuSans-53" d="M 3425 4513 
L 3425 3897 
Q 3066 4069 2747 4153 
Q 2428 4238 2131 4238 
Q 1616 4238 1336 4038 
Q 1056 3838 1056 3469 
Q 1056 3159 1242 3001 
Q 1428 2844 1947 2747 
L 2328 2669 
Q 3034 2534 3370 2195 
Q 3706 1856 3706 1288 
Q 3706 609 3251 259 
Q 2797 -91 1919 -91 
Q 1588 -91 1214 -16 
Q 841 59 441 206 
L 441 856 
Q 825 641 1194 531 
Q 1563 422 1919 422 
Q 2459 422 2753 634 
Q 3047 847 3047 1241 
Q 3047 1584 2836 1778 
Q 2625 1972 2144 2069 
L 1759 2144 
Q 1053 2284 737 2584 
Q 422 2884 422 3419 
Q 422 4038 858 4394 
Q 1294 4750 2059 4750 
Q 2388 4750 2728 4690 
Q 3069 4631 3425 4513 
z
" transform="scale(0.015625)"/>
      <path id="DejaVuSans-43" d="M 4122 4306 
L 4122 3641 
Q 3803 3938 3442 4084 
Q 3081 4231 2675 4231 
Q 1875 4231 1450 3742 
Q 1025 3253 1025 2328 
Q 1025 1406 1450 917 
Q 1875 428 2675 428 
Q 3081 428 3442 575 
Q 3803 722 4122 1019 
L 4122 359 
Q 3791 134 3420 21 
Q 3050 -91 2638 -91 
Q 1578 -91 968 557 
Q 359 1206 359 2328 
Q 359 3453 968 4101 
Q 1578 4750 2638 4750 
Q 3056 4750 3426 4639 
Q 3797 4528 4122 4306 
z
" transform="scale(0.015625)"/>
      <path id="DejaVuSans-68" d="M 3513 2113 
L 3513 0 
L 2938 0 
L 2938 2094 
Q 2938 2591 2744 2837 
Q 2550 3084 2163 3084 
Q 1697 3084 1428 2787 
Q 1159 2491 1159 1978 
L 1159 0 
L 581 0 
L 581 4863 
L 1159 4863 
L 1159 2956 
Q 1366 3272 1645 3428 
Q 1925 3584 2291 3584 
Q 2894 3584 3203 3211 
Q 3513 2838 3513 2113 
z
" transform="scale(0.015625)"/>
      <path id="DejaVuSans-67" d="M 2906 1791 
Q 2906 2416 2648 2759 
Q 2391 3103 1925 3103 
Q 1463 3103 1205 2759 
Q 947 2416 947 1791 
Q 947 1169 1205 825 
Q 1463 481 1925 481 
Q 2391 481 2648 825 
Q 2906 1169 2906 1791 
z
M 3481 434 
Q 3481 -459 3084 -895 
Q 2688 -1331 1869 -1331 
Q 1566 -1331 1297 -1286 
Q 1028 -1241 775 -1147 
L 775 -588 
Q 1028 -725 1275 -790 
Q 1522 -856 1778 -856 
Q 2344 -856 2625 -561 
Q 2906 -266 2906 331 
L 2906 616 
Q 2728 306 2450 153 
Q 2172 0 1784 0 
Q 1141 0 747 490 
Q 353 981 353 1791 
Q 353 2603 747 3093 
Q 1141 3584 1784 3584 
Q 2172 3584 2450 3431 
Q 2728 3278 2906 2969 
L 2906 3500 
L 3481 3500 
L 3481 434 
z
" transform="scale(0.015625)"/>
      <path id="DejaVuSans-59" d="M -13 4666 
L 666 4666 
L 1959 2747 
L 3244 4666 
L 3922 4666 
L 2272 2222 
L 2272 0 
L 1638 0 
L 1638 2222 
L -13 4666 
z
" transform="scale(0.015625)"/>
      <path id="DejaVuSans-42" d="M 1259 2228 
L 1259 519 
L 2272 519 
Q 2781 519 3026 730 
Q 3272 941 3272 1375 
Q 3272 1813 3026 2020 
Q 2781 2228 2272 2228 
L 1259 2228 
z
M 1259 4147 
L 1259 2741 
L 2194 2741 
Q 2656 2741 2882 2914 
Q 3109 3088 3109 3444 
Q 3109 3797 2882 3972 
Q 2656 4147 2194 4147 
L 1259 4147 
z
M 628 4666 
L 2241 4666 
Q 2963 4666 3353 4366 
Q 3744 4066 3744 3513 
Q 3744 3084 3544 2831 
Q 3344 2578 2956 2516 
Q 3422 2416 3680 2098 
Q 3938 1781 3938 1306 
Q 3938 681 3513 340 
Q 3088 0 2303 0 
L 628 0 
L 628 4666 
z
" transform="scale(0.015625)"/>
      <path id="DejaVuSans-5f" d="M 3263 -1063 
L 3263 -1509 
L -63 -1509 
L -63 -1063 
L 3263 -1063 
z
" transform="scale(0.015625)"/>
      <path id="DejaVuSans-4f" d="M 2522 4238 
Q 1834 4238 1429 3725 
Q 1025 3213 1025 2328 
Q 1025 1447 1429 934 
Q 1834 422 2522 422 
Q 3209 422 3611 934 
Q 4013 1447 4013 2328 
Q 4013 3213 3611 3725 
Q 3209 4238 2522 4238 
z
M 2522 4750 
Q 3503 4750 4090 4092 
Q 4678 3434 4678 2328 
Q 4678 1225 4090 567 
Q 3503 -91 2522 -91 
Q 1538 -91 948 565 
Q 359 1222 359 2328 
Q 359 3434 948 4092 
Q 1538 4750 2522 4750 
z
" transform="scale(0.015625)"/>
      <path id="DejaVuSans-48" d="M 628 4666 
L 1259 4666 
L 1259 2753 
L 3553 2753 
L 3553 4666 
L 4184 4666 
L 4184 0 
L 3553 0 
L 3553 2222 
L 1259 2222 
L 1259 0 
L 628 0 
L 628 4666 
z
" transform="scale(0.015625)"/>
      <path id="DejaVuSans-2f" d="M 1625 4666 
L 2156 4666 
L 531 -594 
L 0 -594 
L 1625 4666 
z
" transform="scale(0.015625)"/>
     </defs>
     <use xlink:href="#DejaVuSans-55"/>
     <use xlink:href="#DejaVuSans-56" x="73.193359"/>
     <use xlink:href="#DejaVuSans-20" x="141.601562"/>
     <use xlink:href="#DejaVuSans-61" x="173.388672"/>
     <use xlink:href="#DejaVuSans-6e" x="234.667969"/>
     <use xlink:href="#DejaVuSans-64" x="298.046875"/>
     <use xlink:href="#DejaVuSans-20" x="361.523438"/>
     <use xlink:href="#DejaVuSans-4d" x="393.310547"/>
     <use xlink:href="#DejaVuSans-53" x="479.589844"/>
     <use xlink:href="#DejaVuSans-20" x="543.066406"/>
     <use xlink:href="#DejaVuSans-43" x="574.853516"/>
     <use xlink:href="#DejaVuSans-68" x="644.677734"/>
     <use xlink:href="#DejaVuSans-72" x="708.056641"/>
     <use xlink:href="#DejaVuSans-6f" x="746.919922"/>
     <use xlink:href="#DejaVuSans-6d" x="808.101562"/>
     <use xlink:href="#DejaVuSans-61" x="905.513672"/>
     <use xlink:href="#DejaVuSans-74" x="966.792969"/>
     <use xlink:href="#DejaVuSans-6f" x="1006.001953"/>
     <use xlink:href="#DejaVuSans-67" x="1067.183594"/>
     <use xlink:href="#DejaVuSans-72" x="1130.660156"/>
     <use xlink:href="#DejaVuSans-61" x="1171.773438"/>
     <use xlink:href="#DejaVuSans-6d" x="1233.052734"/>
     <use xlink:href="#DejaVuSans-73" x="1330.464844"/>
     <use xlink:href="#DejaVuSans-20" x="1382.564453"/>
     <use xlink:href="#DejaVuSans-6f" x="1414.351562"/>
     <use xlink:href="#DejaVuSans-66" x="1475.533203"/>
     <use xlink:href="#DejaVuSans-20" x="1510.738281"/>
     <use xlink:href="#DejaVuSans-52" x="1542.525391"/>
     <use xlink:href="#DejaVuSans-65" x="1607.507812"/>
     <use xlink:href="#DejaVuSans-4d" x="1669.03125"/>
     <use xlink:href="#DejaVuSans-31" x="1755.310547"/>
     <use xlink:href="#DejaVuSans-59" x="1818.933594"/>
     <use xlink:href="#DejaVuSans-32" x="1880.017578"/>
     <use xlink:href="#DejaVuSans-42" x="1943.640625"/>
     <use xlink:href="#DejaVuSans-65" x="2012.244141"/>
     <use xlink:href="#DejaVuSans-4d" x="2073.767578"/>
     <use xlink:href="#DejaVuSans-65" x="2160.046875"/>
     <use xlink:href="#DejaVuSans-49" x="2221.570312"/>
     <use xlink:href="#DejaVuSans-6d" x="2251.0625"/>
     <use xlink:href="#DejaVuSans-5f" x="2348.474609"/>
     <use xlink:href="#DejaVuSans-4d" x="2398.474609"/>
     <use xlink:href="#DejaVuSans-65" x="2484.753906"/>
     <use xlink:href="#DejaVuSans-4f" x="2546.277344"/>
     <use xlink:href="#DejaVuSans-48" x="2624.988281"/>
     <use xlink:href="#DejaVuSans-2c" x="2700.183594"/>
     <use xlink:href="#DejaVuSans-20" x="2731.970703"/>
     <use xlink:href="#DejaVuSans-74" x="2763.757812"/>
     <use xlink:href="#DejaVuSans-61" x="2802.966797"/>
     <use xlink:href="#DejaVuSans-72" x="2864.246094"/>
     <use xlink:href="#DejaVuSans-67" x="2903.609375"/>
     <use xlink:href="#DejaVuSans-65" x="2967.085938"/>
     <use xlink:href="#DejaVuSans-74" x="3028.609375"/>
     <use xlink:href="#DejaVuSans-20" x="3067.818359"/>
     <use xlink:href="#DejaVuSans-6d" x="3099.605469"/>
     <use xlink:href="#DejaVuSans-2f" x="3197.017578"/>
     <use xlink:href="#DejaVuSans-7a" x="3230.708984"/>
     <use xlink:href="#DejaVuSans-20" x="3283.199219"/>
     <use xlink:href="#DejaVuSans-3d" x="3314.986328"/>
     <use xlink:href="#DejaVuSans-20" x="3398.775391"/>
     <use xlink:href="#DejaVuSans-36" x="3430.5625"/>
     <use xlink:href="#DejaVuSans-33" x="3494.185547"/>
     <use xlink:href="#DejaVuSans-31" x="3557.808594"/>
     <use xlink:href="#DejaVuSans-2e" x="3621.431641"/>
     <use xlink:href="#DejaVuSans-31" x="3653.21875"/>
     <use xlink:href="#DejaVuSans-35" x="3716.841797"/>
    </g>
   </g>
   <g id="legend_1">
    <g id="patch_8">
     <path d="M 685.971875 64.23625 
L 846.2 64.23625 
Q 848.2 64.23625 848.2 62.23625 
L 848.2 33.88 
Q 848.2 31.88 846.2 31.88 
L 685.971875 31.88 
Q 683.971875 31.88 683.971875 33.88 
L 683.971875 62.23625 
Q 683.971875 64.23625 685.971875 64.23625 
z
" style="fill: #ffffff; opacity: 0.8; stroke: #cccccc; stroke-linejoin: miter"/>
    </g>
    <g id="line2d_17">
     <path d="M 687.971875 39.978437 
L 697.971875 39.978437 
L 707.971875 39.978437 
" style="fill: none; stroke: #0000ff; stroke-width: 1.5; stroke-linecap: square"/>
    </g>
    <g id="text_19">
     <!-- UV Intensity (normalized) -->
     <g transform="translate(715.971875 43.478437) scale(0.1 -0.1)">
      <use xlink:href="#DejaVuSans-55"/>
      <use xlink:href="#DejaVuSans-56" x="73.193359"/>
      <use xlink:href="#DejaVuSans-20" x="141.601562"/>
      <use xlink:href="#DejaVuSans-49" x="173.388672"/>
      <use xlink:href="#DejaVuSans-6e" x="202.880859"/>
      <use xlink:href="#DejaVuSans-74" x="266.259766"/>
      <use xlink:href="#DejaVuSans-65" x="305.46875"/>
      <use xlink:href="#DejaVuSans-6e" x="366.992188"/>
      <use xlink:href="#DejaVuSans-73" x="430.371094"/>
      <use xlink:href="#DejaVuSans-69" x="482.470703"/>
      <use xlink:href="#DejaVuSans-74" x="510.253906"/>
      <use xlink:href="#DejaVuSans-79" x="549.462891"/>
      <use xlink:href="#DejaVuSans-20" x="608.642578"/>
      <use xlink:href="#DejaVuSans-28" x="640.429688"/>
      <use xlink:href="#DejaVuSans-6e" x="679.443359"/>
      <use xlink:href="#DejaVuSans-6f" x="742.822266"/>
      <use xlink:href="#DejaVuSans-72" x="804.003906"/>
      <use xlink:href="#DejaVuSans-6d" x="843.367188"/>
      <use xlink:href="#DejaVuSans-61" x="940.779297"/>
      <use xlink:href="#DejaVuSans-6c" x="1002.058594"/>
      <use xlink:href="#DejaVuSans-69" x="1029.841797"/>
      <use xlink:href="#DejaVuSans-7a" x="1057.625"/>
      <use xlink:href="#DejaVuSans-65" x="1110.115234"/>
      <use xlink:href="#DejaVuSans-64" x="1171.638672"/>
      <use xlink:href="#DejaVuSans-29" x="1235.115234"/>
     </g>
    </g>
    <g id="line2d_18">
     <path d="M 687.971875 54.656562 
L 697.971875 54.656562 
L 707.971875 54.656562 
" style="fill: none; stroke: #008000; stroke-width: 1.5; stroke-linecap: square"/>
    </g>
    <g id="text_20">
     <!-- MS Intensity (normalized) -->
     <g transform="translate(715.971875 58.156562) scale(0.1 -0.1)">
      <use xlink:href="#DejaVuSans-4d"/>
      <use xlink:href="#DejaVuSans-53" x="86.279297"/>
      <use xlink:href="#DejaVuSans-20" x="149.755859"/>
      <use xlink:href="#DejaVuSans-49" x="181.542969"/>
      <use xlink:href="#DejaVuSans-6e" x="211.035156"/>
      <use xlink:href="#DejaVuSans-74" x="274.414062"/>
      <use xlink:href="#DejaVuSans-65" x="313.623047"/>
      <use xlink:href="#DejaVuSans-6e" x="375.146484"/>
      <use xlink:href="#DejaVuSans-73" x="438.525391"/>
      <use xlink:href="#DejaVuSans-69" x="490.625"/>
      <use xlink:href="#DejaVuSans-74" x="518.408203"/>
      <use xlink:href="#DejaVuSans-79" x="557.617188"/>
      <use xlink:href="#DejaVuSans-20" x="616.796875"/>
      <use xlink:href="#DejaVuSans-28" x="648.583984"/>
      <use xlink:href="#DejaVuSans-6e" x="687.597656"/>
      <use xlink:href="#DejaVuSans-6f" x="750.976562"/>
      <use xlink:href="#DejaVuSans-72" x="812.158203"/>
      <use xlink:href="#DejaVuSans-6d" x="851.521484"/>
      <use xlink:href="#DejaVuSans-61" x="948.933594"/>
      <use xlink:href="#DejaVuSans-6c" x="1010.212891"/>
      <use xlink:href="#DejaVuSans-69" x="1037.996094"/>
      <use xlink:href="#DejaVuSans-7a" x="1065.779297"/>
      <use xlink:href="#DejaVuSans-65" x="1118.269531"/>
      <use xlink:href="#DejaVuSans-64" x="1179.792969"/>
      <use xlink:href="#DejaVuSans-29" x="1243.269531"/>
     </g>
    </g>
   </g>
  </g>
 </g>
 <defs>
  <clipPath id="pe5b0c0ec32">
   <rect x="47.72" y="26.88" width="805.48" height="507.16"/>
  </clipPath>
 </defs>
</svg>
