<?xml version="1.0" encoding="utf-8" standalone="no"?>
<!DOCTYPE svg PUBLIC "-//W3C//DTD SVG 1.1//EN"
  "http://www.w3.org/Graphics/SVG/1.1/DTD/svg11.dtd">
<svg xmlns:xlink="http://www.w3.org/1999/xlink" width="864pt" height="576pt" viewBox="0 0 864 576" xmlns="http://www.w3.org/2000/svg" version="1.1">
 <metadata>
  <rdf:RDF xmlns:dc="http://purl.org/dc/elements/1.1/" xmlns:cc="http://creativecommons.org/ns#" xmlns:rdf="http://www.w3.org/1999/02/22-rdf-syntax-ns#">
   <cc:Work>
    <dc:type rdf:resource="http://purl.org/dc/dcmitype/StillImage"/>
    <dc:date>2024-12-10T10:21:44.266279</dc:date>
    <dc:format>image/svg+xml</dc:format>
    <dc:creator>
     <cc:Agent>
      <dc:title>Matplotlib v3.9.0, https://matplotlib.org/</dc:title>
     </cc:Agent>
    </dc:creator>
   </cc:Work>
  </rdf:RDF>
 </metadata>
 <defs>
  <style type="text/css">*{stroke-linejoin: round; stroke-linecap: butt}</style>
 </defs>
 <g id="figure_1">
  <g id="patch_1">
   <path d="M 0 576 
L 864 576 
L 864 0 
L 0 0 
z
" style="fill: #ffffff"/>
  </g>
  <g id="axes_1">
   <g id="patch_2">
    <path d="M 47.72 534.04 
L 853.2 534.04 
L 853.2 26.88 
L 47.72 26.88 
z
" style="fill: #ffffff"/>
   </g>
   <g id="matplotlib.axis_1">
    <g id="xtick_1">
     <g id="line2d_1">
      <defs>
       <path id="mc3cc4862ff" d="M 0 0 
L 0 3.5 
" style="stroke: #000000; stroke-width: 0.8"/>
      </defs>
      <g>
       <use xlink:href="#mc3cc4862ff" x="83.447738" y="534.04" style="stroke: #000000; stroke-width: 0.8"/>
      </g>
     </g>
     <g id="text_1">
      <!-- 0 -->
      <g transform="translate(80.266488 548.638438) scale(0.1 -0.1)">
       <defs>
        <path id="DejaVuSans-30" d="M 2034 4250 
Q 1547 4250 1301 3770 
Q 1056 3291 1056 2328 
Q 1056 1369 1301 889 
Q 1547 409 2034 409 
Q 2525 409 2770 889 
Q 3016 1369 3016 2328 
Q 3016 3291 2770 3770 
Q 2525 4250 2034 4250 
z
M 2034 4750 
Q 2819 4750 3233 4129 
Q 3647 3509 3647 2328 
Q 3647 1150 3233 529 
Q 2819 -91 2034 -91 
Q 1250 -91 836 529 
Q 422 1150 422 2328 
Q 422 3509 836 4129 
Q 1250 4750 2034 4750 
z
" transform="scale(0.015625)"/>
       </defs>
       <use xlink:href="#DejaVuSans-30"/>
      </g>
     </g>
    </g>
    <g id="xtick_2">
     <g id="line2d_2">
      <g>
       <use xlink:href="#mc3cc4862ff" x="188.180212" y="534.04" style="stroke: #000000; stroke-width: 0.8"/>
      </g>
     </g>
     <g id="text_2">
      <!-- 1 -->
      <g transform="translate(184.998962 548.638438) scale(0.1 -0.1)">
       <defs>
        <path id="DejaVuSans-31" d="M 794 531 
L 1825 531 
L 1825 4091 
L 703 3866 
L 703 4441 
L 1819 4666 
L 2450 4666 
L 2450 531 
L 3481 531 
L 3481 0 
L 794 0 
L 794 531 
z
" transform="scale(0.015625)"/>
       </defs>
       <use xlink:href="#DejaVuSans-31"/>
      </g>
     </g>
    </g>
    <g id="xtick_3">
     <g id="line2d_3">
      <g>
       <use xlink:href="#mc3cc4862ff" x="292.912685" y="534.04" style="stroke: #000000; stroke-width: 0.8"/>
      </g>
     </g>
     <g id="text_3">
      <!-- 2 -->
      <g transform="translate(289.731435 548.638438) scale(0.1 -0.1)">
       <defs>
        <path id="DejaVuSans-32" d="M 1228 531 
L 3431 531 
L 3431 0 
L 469 0 
L 469 531 
Q 828 903 1448 1529 
Q 2069 2156 2228 2338 
Q 2531 2678 2651 2914 
Q 2772 3150 2772 3378 
Q 2772 3750 2511 3984 
Q 2250 4219 1831 4219 
Q 1534 4219 1204 4116 
Q 875 4013 500 3803 
L 500 4441 
Q 881 4594 1212 4672 
Q 1544 4750 1819 4750 
Q 2544 4750 2975 4387 
Q 3406 4025 3406 3419 
Q 3406 3131 3298 2873 
Q 3191 2616 2906 2266 
Q 2828 2175 2409 1742 
Q 1991 1309 1228 531 
z
" transform="scale(0.015625)"/>
       </defs>
       <use xlink:href="#DejaVuSans-32"/>
      </g>
     </g>
    </g>
    <g id="xtick_4">
     <g id="line2d_4">
      <g>
       <use xlink:href="#mc3cc4862ff" x="397.645159" y="534.04" style="stroke: #000000; stroke-width: 0.8"/>
      </g>
     </g>
     <g id="text_4">
      <!-- 3 -->
      <g transform="translate(394.463909 548.638438) scale(0.1 -0.1)">
       <defs>
        <path id="DejaVuSans-33" d="M 2597 2516 
Q 3050 2419 3304 2112 
Q 3559 1806 3559 1356 
Q 3559 666 3084 287 
Q 2609 -91 1734 -91 
Q 1441 -91 1130 -33 
Q 819 25 488 141 
L 488 750 
Q 750 597 1062 519 
Q 1375 441 1716 441 
Q 2309 441 2620 675 
Q 2931 909 2931 1356 
Q 2931 1769 2642 2001 
Q 2353 2234 1838 2234 
L 1294 2234 
L 1294 2753 
L 1863 2753 
Q 2328 2753 2575 2939 
Q 2822 3125 2822 3475 
Q 2822 3834 2567 4026 
Q 2313 4219 1838 4219 
Q 1578 4219 1281 4162 
Q 984 4106 628 3988 
L 628 4550 
Q 988 4650 1302 4700 
Q 1616 4750 1894 4750 
Q 2613 4750 3031 4423 
Q 3450 4097 3450 3541 
Q 3450 3153 3228 2886 
Q 3006 2619 2597 2516 
z
" transform="scale(0.015625)"/>
       </defs>
       <use xlink:href="#DejaVuSans-33"/>
      </g>
     </g>
    </g>
    <g id="xtick_5">
     <g id="line2d_5">
      <g>
       <use xlink:href="#mc3cc4862ff" x="502.377633" y="534.04" style="stroke: #000000; stroke-width: 0.8"/>
      </g>
     </g>
     <g id="text_5">
      <!-- 4 -->
      <g transform="translate(499.196383 548.638438) scale(0.1 -0.1)">
       <defs>
        <path id="DejaVuSans-34" d="M 2419 4116 
L 825 1625 
L 2419 1625 
L 2419 4116 
z
M 2253 4666 
L 3047 4666 
L 3047 1625 
L 3713 1625 
L 3713 1100 
L 3047 1100 
L 3047 0 
L 2419 0 
L 2419 1100 
L 313 1100 
L 313 1709 
L 2253 4666 
z
" transform="scale(0.015625)"/>
       </defs>
       <use xlink:href="#DejaVuSans-34"/>
      </g>
     </g>
    </g>
    <g id="xtick_6">
     <g id="line2d_6">
      <g>
       <use xlink:href="#mc3cc4862ff" x="607.110106" y="534.04" style="stroke: #000000; stroke-width: 0.8"/>
      </g>
     </g>
     <g id="text_6">
      <!-- 5 -->
      <g transform="translate(603.928856 548.638438) scale(0.1 -0.1)">
       <defs>
        <path id="DejaVuSans-35" d="M 691 4666 
L 3169 4666 
L 3169 4134 
L 1269 4134 
L 1269 2991 
Q 1406 3038 1543 3061 
Q 1681 3084 1819 3084 
Q 2600 3084 3056 2656 
Q 3513 2228 3513 1497 
Q 3513 744 3044 326 
Q 2575 -91 1722 -91 
Q 1428 -91 1123 -41 
Q 819 9 494 109 
L 494 744 
Q 775 591 1075 516 
Q 1375 441 1709 441 
Q 2250 441 2565 725 
Q 2881 1009 2881 1497 
Q 2881 1984 2565 2268 
Q 2250 2553 1709 2553 
Q 1456 2553 1204 2497 
Q 953 2441 691 2322 
L 691 4666 
z
" transform="scale(0.015625)"/>
       </defs>
       <use xlink:href="#DejaVuSans-35"/>
      </g>
     </g>
    </g>
    <g id="xtick_7">
     <g id="line2d_7">
      <g>
       <use xlink:href="#mc3cc4862ff" x="711.84258" y="534.04" style="stroke: #000000; stroke-width: 0.8"/>
      </g>
     </g>
     <g id="text_7">
      <!-- 6 -->
      <g transform="translate(708.66133 548.638438) scale(0.1 -0.1)">
       <defs>
        <path id="DejaVuSans-36" d="M 2113 2584 
Q 1688 2584 1439 2293 
Q 1191 2003 1191 1497 
Q 1191 994 1439 701 
Q 1688 409 2113 409 
Q 2538 409 2786 701 
Q 3034 994 3034 1497 
Q 3034 2003 2786 2293 
Q 2538 2584 2113 2584 
z
M 3366 4563 
L 3366 3988 
Q 3128 4100 2886 4159 
Q 2644 4219 2406 4219 
Q 1781 4219 1451 3797 
Q 1122 3375 1075 2522 
Q 1259 2794 1537 2939 
Q 1816 3084 2150 3084 
Q 2853 3084 3261 2657 
Q 3669 2231 3669 1497 
Q 3669 778 3244 343 
Q 2819 -91 2113 -91 
Q 1303 -91 875 529 
Q 447 1150 447 2328 
Q 447 3434 972 4092 
Q 1497 4750 2381 4750 
Q 2619 4750 2861 4703 
Q 3103 4656 3366 4563 
z
" transform="scale(0.015625)"/>
       </defs>
       <use xlink:href="#DejaVuSans-36"/>
      </g>
     </g>
    </g>
    <g id="xtick_8">
     <g id="line2d_8">
      <g>
       <use xlink:href="#mc3cc4862ff" x="816.575054" y="534.04" style="stroke: #000000; stroke-width: 0.8"/>
      </g>
     </g>
     <g id="text_8">
      <!-- 7 -->
      <g transform="translate(813.393804 548.638438) scale(0.1 -0.1)">
       <defs>
        <path id="DejaVuSans-37" d="M 525 4666 
L 3525 4666 
L 3525 4397 
L 1831 0 
L 1172 0 
L 2766 4134 
L 525 4134 
L 525 4666 
z
" transform="scale(0.015625)"/>
       </defs>
       <use xlink:href="#DejaVuSans-37"/>
      </g>
     </g>
    </g>
    <g id="text_9">
     <!-- Retention Time (min) -->
     <g transform="translate(397.61 562.316562) scale(0.1 -0.1)">
      <defs>
       <path id="DejaVuSans-52" d="M 2841 2188 
Q 3044 2119 3236 1894 
Q 3428 1669 3622 1275 
L 4263 0 
L 3584 0 
L 2988 1197 
Q 2756 1666 2539 1819 
Q 2322 1972 1947 1972 
L 1259 1972 
L 1259 0 
L 628 0 
L 628 4666 
L 2053 4666 
Q 2853 4666 3247 4331 
Q 3641 3997 3641 3322 
Q 3641 2881 3436 2590 
Q 3231 2300 2841 2188 
z
M 1259 4147 
L 1259 2491 
L 2053 2491 
Q 2509 2491 2742 2702 
Q 2975 2913 2975 3322 
Q 2975 3731 2742 3939 
Q 2509 4147 2053 4147 
L 1259 4147 
z
" transform="scale(0.015625)"/>
       <path id="DejaVuSans-65" d="M 3597 1894 
L 3597 1613 
L 953 1613 
Q 991 1019 1311 708 
Q 1631 397 2203 397 
Q 2534 397 2845 478 
Q 3156 559 3463 722 
L 3463 178 
Q 3153 47 2828 -22 
Q 2503 -91 2169 -91 
Q 1331 -91 842 396 
Q 353 884 353 1716 
Q 353 2575 817 3079 
Q 1281 3584 2069 3584 
Q 2775 3584 3186 3129 
Q 3597 2675 3597 1894 
z
M 3022 2063 
Q 3016 2534 2758 2815 
Q 2500 3097 2075 3097 
Q 1594 3097 1305 2825 
Q 1016 2553 972 2059 
L 3022 2063 
z
" transform="scale(0.015625)"/>
       <path id="DejaVuSans-74" d="M 1172 4494 
L 1172 3500 
L 2356 3500 
L 2356 3053 
L 1172 3053 
L 1172 1153 
Q 1172 725 1289 603 
Q 1406 481 1766 481 
L 2356 481 
L 2356 0 
L 1766 0 
Q 1100 0 847 248 
Q 594 497 594 1153 
L 594 3053 
L 172 3053 
L 172 3500 
L 594 3500 
L 594 4494 
L 1172 4494 
z
" transform="scale(0.015625)"/>
       <path id="DejaVuSans-6e" d="M 3513 2113 
L 3513 0 
L 2938 0 
L 2938 2094 
Q 2938 2591 2744 2837 
Q 2550 3084 2163 3084 
Q 1697 3084 1428 2787 
Q 1159 2491 1159 1978 
L 1159 0 
L 581 0 
L 581 3500 
L 1159 3500 
L 1159 2956 
Q 1366 3272 1645 3428 
Q 1925 3584 2291 3584 
Q 2894 3584 3203 3211 
Q 3513 2838 3513 2113 
z
" transform="scale(0.015625)"/>
       <path id="DejaVuSans-69" d="M 603 3500 
L 1178 3500 
L 1178 0 
L 603 0 
L 603 3500 
z
M 603 4863 
L 1178 4863 
L 1178 4134 
L 603 4134 
L 603 4863 
z
" transform="scale(0.015625)"/>
       <path id="DejaVuSans-6f" d="M 1959 3097 
Q 1497 3097 1228 2736 
Q 959 2375 959 1747 
Q 959 1119 1226 758 
Q 1494 397 1959 397 
Q 2419 397 2687 759 
Q 2956 1122 2956 1747 
Q 2956 2369 2687 2733 
Q 2419 3097 1959 3097 
z
M 1959 3584 
Q 2709 3584 3137 3096 
Q 3566 2609 3566 1747 
Q 3566 888 3137 398 
Q 2709 -91 1959 -91 
Q 1206 -91 779 398 
Q 353 888 353 1747 
Q 353 2609 779 3096 
Q 1206 3584 1959 3584 
z
" transform="scale(0.015625)"/>
       <path id="DejaVuSans-20" transform="scale(0.015625)"/>
       <path id="DejaVuSans-54" d="M -19 4666 
L 3928 4666 
L 3928 4134 
L 2272 4134 
L 2272 0 
L 1638 0 
L 1638 4134 
L -19 4134 
L -19 4666 
z
" transform="scale(0.015625)"/>
       <path id="DejaVuSans-6d" d="M 3328 2828 
Q 3544 3216 3844 3400 
Q 4144 3584 4550 3584 
Q 5097 3584 5394 3201 
Q 5691 2819 5691 2113 
L 5691 0 
L 5113 0 
L 5113 2094 
Q 5113 2597 4934 2840 
Q 4756 3084 4391 3084 
Q 3944 3084 3684 2787 
Q 3425 2491 3425 1978 
L 3425 0 
L 2847 0 
L 2847 2094 
Q 2847 2600 2669 2842 
Q 2491 3084 2119 3084 
Q 1678 3084 1418 2786 
Q 1159 2488 1159 1978 
L 1159 0 
L 581 0 
L 581 3500 
L 1159 3500 
L 1159 2956 
Q 1356 3278 1631 3431 
Q 1906 3584 2284 3584 
Q 2666 3584 2933 3390 
Q 3200 3197 3328 2828 
z
" transform="scale(0.015625)"/>
       <path id="DejaVuSans-28" d="M 1984 4856 
Q 1566 4138 1362 3434 
Q 1159 2731 1159 2009 
Q 1159 1288 1364 580 
Q 1569 -128 1984 -844 
L 1484 -844 
Q 1016 -109 783 600 
Q 550 1309 550 2009 
Q 550 2706 781 3412 
Q 1013 4119 1484 4856 
L 1984 4856 
z
" transform="scale(0.015625)"/>
       <path id="DejaVuSans-29" d="M 513 4856 
L 1013 4856 
Q 1481 4119 1714 3412 
Q 1947 2706 1947 2009 
Q 1947 1309 1714 600 
Q 1481 -109 1013 -844 
L 513 -844 
Q 928 -128 1133 580 
Q 1338 1288 1338 2009 
Q 1338 2731 1133 3434 
Q 928 4138 513 4856 
z
" transform="scale(0.015625)"/>
      </defs>
      <use xlink:href="#DejaVuSans-52"/>
      <use xlink:href="#DejaVuSans-65" x="64.982422"/>
      <use xlink:href="#DejaVuSans-74" x="126.505859"/>
      <use xlink:href="#DejaVuSans-65" x="165.714844"/>
      <use xlink:href="#DejaVuSans-6e" x="227.238281"/>
      <use xlink:href="#DejaVuSans-74" x="290.617188"/>
      <use xlink:href="#DejaVuSans-69" x="329.826172"/>
      <use xlink:href="#DejaVuSans-6f" x="357.609375"/>
      <use xlink:href="#DejaVuSans-6e" x="418.791016"/>
      <use xlink:href="#DejaVuSans-20" x="482.169922"/>
      <use xlink:href="#DejaVuSans-54" x="513.957031"/>
      <use xlink:href="#DejaVuSans-69" x="571.916016"/>
      <use xlink:href="#DejaVuSans-6d" x="599.699219"/>
      <use xlink:href="#DejaVuSans-65" x="697.111328"/>
      <use xlink:href="#DejaVuSans-20" x="758.634766"/>
      <use xlink:href="#DejaVuSans-28" x="790.421875"/>
      <use xlink:href="#DejaVuSans-6d" x="829.435547"/>
      <use xlink:href="#DejaVuSans-69" x="926.847656"/>
      <use xlink:href="#DejaVuSans-6e" x="954.630859"/>
      <use xlink:href="#DejaVuSans-29" x="1018.009766"/>
     </g>
    </g>
   </g>
   <g id="matplotlib.axis_2">
    <g id="ytick_1">
     <g id="line2d_9">
      <defs>
       <path id="m513716182e" d="M 0 0 
L -3.5 0 
" style="stroke: #000000; stroke-width: 0.8"/>
      </defs>
      <g>
       <use xlink:href="#m513716182e" x="47.72" y="510.060806" style="stroke: #000000; stroke-width: 0.8"/>
      </g>
     </g>
     <g id="text_10">
      <!-- 0.0 -->
      <g style="fill: #0000ff" transform="translate(24.816875 513.860025) scale(0.1 -0.1)">
       <defs>
        <path id="DejaVuSans-2e" d="M 684 794 
L 1344 794 
L 1344 0 
L 684 0 
L 684 794 
z
" transform="scale(0.015625)"/>
       </defs>
       <use xlink:href="#DejaVuSans-30"/>
       <use xlink:href="#DejaVuSans-2e" x="63.623047"/>
       <use xlink:href="#DejaVuSans-30" x="95.410156"/>
      </g>
     </g>
    </g>
    <g id="ytick_2">
     <g id="line2d_10">
      <g>
       <use xlink:href="#m513716182e" x="47.72" y="418.03519" style="stroke: #000000; stroke-width: 0.8"/>
      </g>
     </g>
     <g id="text_11">
      <!-- 0.5 -->
      <g style="fill: #0000ff" transform="translate(24.816875 421.834409) scale(0.1 -0.1)">
       <use xlink:href="#DejaVuSans-30"/>
       <use xlink:href="#DejaVuSans-2e" x="63.623047"/>
       <use xlink:href="#DejaVuSans-35" x="95.410156"/>
      </g>
     </g>
    </g>
    <g id="ytick_3">
     <g id="line2d_11">
      <g>
       <use xlink:href="#m513716182e" x="47.72" y="326.009575" style="stroke: #000000; stroke-width: 0.8"/>
      </g>
     </g>
     <g id="text_12">
      <!-- 1.0 -->
      <g style="fill: #0000ff" transform="translate(24.816875 329.808793) scale(0.1 -0.1)">
       <use xlink:href="#DejaVuSans-31"/>
       <use xlink:href="#DejaVuSans-2e" x="63.623047"/>
       <use xlink:href="#DejaVuSans-30" x="95.410156"/>
      </g>
     </g>
    </g>
    <g id="ytick_4">
     <g id="line2d_12">
      <g>
       <use xlink:href="#m513716182e" x="47.72" y="233.983959" style="stroke: #000000; stroke-width: 0.8"/>
      </g>
     </g>
     <g id="text_13">
      <!-- 1.5 -->
      <g style="fill: #0000ff" transform="translate(24.816875 237.783178) scale(0.1 -0.1)">
       <use xlink:href="#DejaVuSans-31"/>
       <use xlink:href="#DejaVuSans-2e" x="63.623047"/>
       <use xlink:href="#DejaVuSans-35" x="95.410156"/>
      </g>
     </g>
    </g>
    <g id="ytick_5">
     <g id="line2d_13">
      <g>
       <use xlink:href="#m513716182e" x="47.72" y="141.958343" style="stroke: #000000; stroke-width: 0.8"/>
      </g>
     </g>
     <g id="text_14">
      <!-- 2.0 -->
      <g style="fill: #0000ff" transform="translate(24.816875 145.757562) scale(0.1 -0.1)">
       <use xlink:href="#DejaVuSans-32"/>
       <use xlink:href="#DejaVuSans-2e" x="63.623047"/>
       <use xlink:href="#DejaVuSans-30" x="95.410156"/>
      </g>
     </g>
    </g>
    <g id="ytick_6">
     <g id="line2d_14">
      <g>
       <use xlink:href="#m513716182e" x="47.72" y="49.932727" style="stroke: #000000; stroke-width: 0.8"/>
      </g>
     </g>
     <g id="text_15">
      <!-- 2.5 -->
      <g style="fill: #0000ff" transform="translate(24.816875 53.731946) scale(0.1 -0.1)">
       <use xlink:href="#DejaVuSans-32"/>
       <use xlink:href="#DejaVuSans-2e" x="63.623047"/>
       <use xlink:href="#DejaVuSans-35" x="95.410156"/>
      </g>
     </g>
    </g>
    <g id="text_16">
     <!-- Normalized Intensity -->
     <g style="fill: #0000ff" transform="translate(18.737187 332.167031) rotate(-90) scale(0.1 -0.1)">
      <defs>
       <path id="DejaVuSans-4e" d="M 628 4666 
L 1478 4666 
L 3547 763 
L 3547 4666 
L 4159 4666 
L 4159 0 
L 3309 0 
L 1241 3903 
L 1241 0 
L 628 0 
L 628 4666 
z
" transform="scale(0.015625)"/>
       <path id="DejaVuSans-72" d="M 2631 2963 
Q 2534 3019 2420 3045 
Q 2306 3072 2169 3072 
Q 1681 3072 1420 2755 
Q 1159 2438 1159 1844 
L 1159 0 
L 581 0 
L 581 3500 
L 1159 3500 
L 1159 2956 
Q 1341 3275 1631 3429 
Q 1922 3584 2338 3584 
Q 2397 3584 2469 3576 
Q 2541 3569 2628 3553 
L 2631 2963 
z
" transform="scale(0.015625)"/>
       <path id="DejaVuSans-61" d="M 2194 1759 
Q 1497 1759 1228 1600 
Q 959 1441 959 1056 
Q 959 750 1161 570 
Q 1363 391 1709 391 
Q 2188 391 2477 730 
Q 2766 1069 2766 1631 
L 2766 1759 
L 2194 1759 
z
M 3341 1997 
L 3341 0 
L 2766 0 
L 2766 531 
Q 2569 213 2275 61 
Q 1981 -91 1556 -91 
Q 1019 -91 701 211 
Q 384 513 384 1019 
Q 384 1609 779 1909 
Q 1175 2209 1959 2209 
L 2766 2209 
L 2766 2266 
Q 2766 2663 2505 2880 
Q 2244 3097 1772 3097 
Q 1472 3097 1187 3025 
Q 903 2953 641 2809 
L 641 3341 
Q 956 3463 1253 3523 
Q 1550 3584 1831 3584 
Q 2591 3584 2966 3190 
Q 3341 2797 3341 1997 
z
" transform="scale(0.015625)"/>
       <path id="DejaVuSans-6c" d="M 603 4863 
L 1178 4863 
L 1178 0 
L 603 0 
L 603 4863 
z
" transform="scale(0.015625)"/>
       <path id="DejaVuSans-7a" d="M 353 3500 
L 3084 3500 
L 3084 2975 
L 922 459 
L 3084 459 
L 3084 0 
L 275 0 
L 275 525 
L 2438 3041 
L 353 3041 
L 353 3500 
z
" transform="scale(0.015625)"/>
       <path id="DejaVuSans-64" d="M 2906 2969 
L 2906 4863 
L 3481 4863 
L 3481 0 
L 2906 0 
L 2906 525 
Q 2725 213 2448 61 
Q 2172 -91 1784 -91 
Q 1150 -91 751 415 
Q 353 922 353 1747 
Q 353 2572 751 3078 
Q 1150 3584 1784 3584 
Q 2172 3584 2448 3432 
Q 2725 3281 2906 2969 
z
M 947 1747 
Q 947 1113 1208 752 
Q 1469 391 1925 391 
Q 2381 391 2643 752 
Q 2906 1113 2906 1747 
Q 2906 2381 2643 2742 
Q 2381 3103 1925 3103 
Q 1469 3103 1208 2742 
Q 947 2381 947 1747 
z
" transform="scale(0.015625)"/>
       <path id="DejaVuSans-49" d="M 628 4666 
L 1259 4666 
L 1259 0 
L 628 0 
L 628 4666 
z
" transform="scale(0.015625)"/>
       <path id="DejaVuSans-73" d="M 2834 3397 
L 2834 2853 
Q 2591 2978 2328 3040 
Q 2066 3103 1784 3103 
Q 1356 3103 1142 2972 
Q 928 2841 928 2578 
Q 928 2378 1081 2264 
Q 1234 2150 1697 2047 
L 1894 2003 
Q 2506 1872 2764 1633 
Q 3022 1394 3022 966 
Q 3022 478 2636 193 
Q 2250 -91 1575 -91 
Q 1294 -91 989 -36 
Q 684 19 347 128 
L 347 722 
Q 666 556 975 473 
Q 1284 391 1588 391 
Q 1994 391 2212 530 
Q 2431 669 2431 922 
Q 2431 1156 2273 1281 
Q 2116 1406 1581 1522 
L 1381 1569 
Q 847 1681 609 1914 
Q 372 2147 372 2553 
Q 372 3047 722 3315 
Q 1072 3584 1716 3584 
Q 2034 3584 2315 3537 
Q 2597 3491 2834 3397 
z
" transform="scale(0.015625)"/>
       <path id="DejaVuSans-79" d="M 2059 -325 
Q 1816 -950 1584 -1140 
Q 1353 -1331 966 -1331 
L 506 -1331 
L 506 -850 
L 844 -850 
Q 1081 -850 1212 -737 
Q 1344 -625 1503 -206 
L 1606 56 
L 191 3500 
L 800 3500 
L 1894 763 
L 2988 3500 
L 3597 3500 
L 2059 -325 
z
" transform="scale(0.015625)"/>
      </defs>
      <use xlink:href="#DejaVuSans-4e"/>
      <use xlink:href="#DejaVuSans-6f" x="74.804688"/>
      <use xlink:href="#DejaVuSans-72" x="135.986328"/>
      <use xlink:href="#DejaVuSans-6d" x="175.349609"/>
      <use xlink:href="#DejaVuSans-61" x="272.761719"/>
      <use xlink:href="#DejaVuSans-6c" x="334.041016"/>
      <use xlink:href="#DejaVuSans-69" x="361.824219"/>
      <use xlink:href="#DejaVuSans-7a" x="389.607422"/>
      <use xlink:href="#DejaVuSans-65" x="442.097656"/>
      <use xlink:href="#DejaVuSans-64" x="503.621094"/>
      <use xlink:href="#DejaVuSans-20" x="567.097656"/>
      <use xlink:href="#DejaVuSans-49" x="598.884766"/>
      <use xlink:href="#DejaVuSans-6e" x="628.376953"/>
      <use xlink:href="#DejaVuSans-74" x="691.755859"/>
      <use xlink:href="#DejaVuSans-65" x="730.964844"/>
      <use xlink:href="#DejaVuSans-6e" x="792.488281"/>
      <use xlink:href="#DejaVuSans-73" x="855.867188"/>
      <use xlink:href="#DejaVuSans-69" x="907.966797"/>
      <use xlink:href="#DejaVuSans-74" x="935.75"/>
      <use xlink:href="#DejaVuSans-79" x="974.958984"/>
     </g>
    </g>
   </g>
   <g id="line2d_15">
    <path d="M 84.332727 510.060806 
L 94.805975 509.954569 
L 105.279222 509.905142 
L 116.62524 510.005011 
L 134.953423 510.017771 
L 138.444505 510.287834 
L 139.317276 510.138108 
L 141.062817 509.421304 
L 142.808358 508.66444 
L 143.681129 508.501111 
L 144.5539 508.529151 
L 147.172212 509.15732 
L 148.044982 508.716909 
L 148.917753 505.379781 
L 149.790523 495.980356 
L 151.536065 466.08186 
L 152.408835 459.386844 
L 153.281606 463.261322 
L 154.154376 474.339257 
L 155.027147 487.107087 
L 155.899918 497.496683 
L 156.772688 504.060315 
L 157.645459 507.301813 
L 158.518229 508.484058 
L 159.391 508.756414 
L 161.136541 508.906301 
L 162.882083 509.183528 
L 164.627624 509.195899 
L 168.991477 508.855789 
L 172.482559 508.895498 
L 182.083036 509.515982 
L 187.31966 509.581975 
L 189.937972 509.340177 
L 191.683513 509.21479 
L 194.301825 509.33164 
L 198.665678 509.536685 
L 208.266155 509.621116 
L 218.739402 509.410075 
L 221.357714 509.214738 
L 223.976026 509.34894 
L 227.467108 509.535421 
L 250.159144 509.711798 
L 255.395768 509.595905 
L 258.01408 509.330024 
L 260.632391 508.823175 
L 262.377933 508.755159 
L 265.869015 509.127763 
L 268.487327 509.294804 
L 271.978409 509.274604 
L 279.833345 509.020709 
L 287.68828 509.227604 
L 292.052133 509.353892 
L 309.507546 509.574327 
L 317.362481 509.465292 
L 322.599105 509.103418 
L 324.344646 508.821892 
L 326.962958 507.89963 
L 327.835729 507.884631 
L 328.708499 508.090895 
L 331.326811 509.055531 
L 333.072352 509.400243 
L 335.690664 509.567393 
L 338.308976 509.589065 
L 339.181747 509.449143 
L 340.054517 508.907145 
L 340.927288 507.669446 
L 342.672829 504.122208 
L 343.5456 503.224569 
L 344.41837 503.408802 
L 345.291141 504.35 
L 346.163912 505.487731 
L 347.036682 506.395301 
L 347.909453 506.929141 
L 348.782223 507.159638 
L 351.400535 507.412624 
L 353.146076 507.96469 
L 354.891618 508.62914 
L 356.637159 509.045898 
L 358.3827 509.19854 
L 360.128241 509.12691 
L 361.001012 508.859223 
L 361.873783 507.949708 
L 362.746553 505.294129 
L 363.619324 499.470102 
L 365.364865 480.288772 
L 366.237636 473.373949 
L 367.110406 472.215459 
L 367.983177 476.414851 
L 369.728718 489.724724 
L 370.601489 494.027091 
L 371.474259 496.208286 
L 373.219801 498.577028 
L 374.092571 500.2209 
L 375.838112 503.963113 
L 376.710883 505.410576 
L 377.583654 506.336254 
L 378.456424 506.623613 
L 379.329195 506.141973 
L 380.201966 504.966035 
L 381.074736 503.557571 
L 381.947507 502.518344 
L 382.820277 502.161425 
L 383.693048 502.4026 
L 384.565819 502.98805 
L 386.31136 504.542434 
L 388.056901 506.23684 
L 388.929672 506.950317 
L 389.802442 507.291255 
L 390.675213 506.386298 
L 391.547984 501.318174 
L 392.420754 486.051046 
L 393.293525 454.731539 
L 395.039066 362.480335 
L 395.911837 331.377219 
L 396.784607 326.009575 
L 397.657378 344.542992 
L 400.27569 439.530194 
L 401.14846 459.928462 
L 402.021231 473.093052 
L 402.894002 481.384938 
L 403.766772 487.00221 
L 404.639543 491.331508 
L 405.512313 494.969315 
L 406.385084 498.039772 
L 407.257855 500.503373 
L 408.130625 502.325255 
L 409.003396 503.527857 
L 409.876166 504.20523 
L 410.748937 504.527965 
L 412.494478 504.919672 
L 414.24002 505.615594 
L 415.985561 506.30344 
L 419.476643 507.160343 
L 422.967726 507.879025 
L 424.713267 507.959213 
L 426.458808 507.743534 
L 427.331579 507.552779 
L 429.07712 506.831371 
L 429.949891 506.44233 
L 430.822661 506.2784 
L 431.695432 506.444386 
L 433.440973 507.42473 
L 434.313744 507.914117 
L 435.186514 508.258882 
L 436.059285 508.440695 
L 436.932055 508.476158 
L 438.677597 508.180056 
L 440.423138 507.666807 
L 441.295909 507.508163 
L 443.04145 507.534552 
L 446.532532 508.117064 
L 447.405303 508.036368 
L 448.278073 507.739904 
L 450.896385 506.481843 
L 453.514697 505.448121 
L 455.260238 504.39683 
L 456.133009 504.108795 
L 457.00578 504.320552 
L 457.87855 505.018454 
L 459.624091 506.845051 
L 460.496862 507.502193 
L 461.369633 507.895743 
L 463.115174 508.203326 
L 468.351798 508.680058 
L 471.84288 508.649612 
L 472.715651 508.263312 
L 473.588421 507.183225 
L 475.333963 503.437894 
L 476.206733 502.17362 
L 477.079504 502.094728 
L 477.952274 503.068065 
L 479.697816 506.015128 
L 480.570586 507.129448 
L 481.443357 507.817628 
L 482.316127 508.139228 
L 483.188898 508.210979 
L 484.934439 508.023168 
L 486.67998 507.519597 
L 490.171063 505.82384 
L 491.043834 505.666324 
L 492.789375 505.71016 
L 494.534916 506.077908 
L 500.64431 508.180618 
L 503.262622 508.700833 
L 505.880934 508.978134 
L 513.73587 509.357096 
L 518.099723 509.473974 
L 522.463576 509.635717 
L 530.318511 509.493506 
L 533.809594 509.313227 
L 550.392235 509.650944 
L 556.50163 509.575323 
L 562.611024 509.481518 
L 564.356565 509.140914 
L 566.974877 508.498842 
L 568.720418 508.357777 
L 570.465959 508.54657 
L 574.829813 509.250921 
L 576.575354 509.191811 
L 578.320895 509.013772 
L 580.066436 509.072092 
L 582.684748 509.246186 
L 591.412454 509.245687 
L 607.995096 509.985884 
L 620.213884 510.073894 
L 626.323279 509.993105 
L 630.687132 509.941818 
L 635.050985 509.959821 
L 641.160379 509.770071 
L 646.397003 509.853479 
L 652.506397 510.034385 
L 675.198433 510.146871 
L 686.544451 510.045858 
L 690.908304 509.885885 
L 713.60034 510.053954 
L 720.582505 510.051805 
L 735.419606 510.48287 
L 746.765624 510.986281 
L 752.002247 510.88856 
L 763.348265 510.366239 
L 767.712118 510.240244 
L 803.495714 510.089129 
L 808.732337 510.024828 
L 816.587273 510.125124 
L 816.587273 510.125124 
" clip-path="url(#p9e929e47df)" style="fill: none; stroke: #0000ff; stroke-width: 1.5; stroke-linecap: square"/>
   </g>
   <g id="line2d_16">
    <path d="M 89.640918 233.981533 
L 187.888008 233.980042 
L 393.377311 233.9072 
L 393.622559 233.847291 
L 393.622559 233.567689 
L 393.86711 233.347354 
L 393.86711 232.12175 
L 394.111136 231.309925 
L 394.111136 228.500467 
L 394.358305 227.308499 
L 394.358305 222.109482 
L 394.596571 220.588119 
L 394.596571 213.787038 
L 394.832568 212.886994 
L 394.832568 201.22763 
L 394.832568 202.544326 
L 395.067169 200.230776 
L 395.067169 189.564043 
L 395.301072 186.019366 
L 395.301072 175.738865 
L 395.534625 171.728081 
L 395.534625 147.339107 
L 395.768877 156.709841 
L 395.768877 129.630048 
L 396.002256 142.304686 
L 396.002256 111.417849 
L 396.23546 128.518466 
L 396.23546 96.107708 
L 396.468664 117.702986 
L 396.468664 85.379487 
L 396.701869 110.783065 
L 396.701869 78.01621 
L 396.701869 104.721134 
L 396.935073 104.140062 
L 396.935073 100.279333 
L 397.168103 98.938434 
L 397.168103 89.081731 
L 397.401307 90.760592 
L 397.401307 51.707076 
L 397.634511 85.00286 
L 397.634511 49.932727 
L 397.872254 89.395744 
L 397.872254 53.103027 
L 397.872254 89.898306 
L 398.105458 90.253564 
L 398.105458 94.95072 
L 398.338488 97.305055 
L 398.338488 104.290411 
L 399.052763 108.232264 
L 399.052763 79.067807 
L 399.285968 111.860422 
L 399.285968 79.548252 
L 399.518998 111.502431 
L 399.518998 79.906287 
L 399.752202 110.537712 
L 399.752202 84.868958 
L 399.986453 118.639075 
L 399.986453 95.90197 
L 400.219658 130.10381 
L 400.219658 103.443393 
L 400.452862 132.767377 
L 400.452862 107.269661 
L 400.686241 135.476403 
L 400.686241 110.898905 
L 400.919445 138.848687 
L 400.919445 112.417859 
L 401.15265 140.067827 
L 401.15265 114.950995 
L 401.389869 140.882884 
L 401.389869 121.043628 
L 401.389869 147.380508 
L 401.623073 147.729383 
L 401.623073 149.991225 
L 401.856452 151.620006 
L 401.856452 153.723153 
L 402.089831 155.923286 
L 402.089831 136.074943 
L 402.323384 158.060405 
L 402.323384 140.243454 
L 402.556763 160.067631 
L 402.556763 144.361939 
L 402.790316 166.214465 
L 402.790316 149.635958 
L 403.024044 168.333008 
L 403.024044 152.073453 
L 403.257423 168.417849 
L 403.257423 151.369837 
L 403.490977 168.63439 
L 403.490977 153.710454 
L 403.490977 170.007693 
L 403.72453 170.764746 
L 403.72453 174.365121 
L 403.958083 174.982671 
L 403.958083 177.962893 
L 404.191986 179.887725 
L 404.191986 164.334788 
L 404.425714 178.210757 
L 404.425714 164.717055 
L 404.659267 178.51527 
L 404.659267 166.484405 
L 404.896836 183.270595 
L 404.896836 171.604297 
L 405.130563 186.112217 
L 405.130563 174.450064 
L 405.367783 187.192154 
L 405.367783 175.416496 
L 405.601511 188.151343 
L 405.601511 176.969801 
L 405.835413 189.074295 
L 405.835413 177.836439 
L 406.06949 190.072419 
L 406.06949 180.508104 
L 406.303742 192.284405 
L 406.303742 183.311002 
L 406.303742 194.871684 
L 406.537993 194.903398 
L 406.537993 195.679249 
L 406.77207 196.544325 
L 406.77207 197.202668 
L 407.006322 197.9988 
L 407.006322 189.247672 
L 407.240399 199.082209 
L 407.240399 191.483673 
L 407.475873 200.708318 
L 407.475873 193.078698 
L 407.710473 202.508483 
L 407.710473 195.243925 
L 407.945074 203.121545 
L 407.945074 195.767386 
L 408.179675 204.048303 
L 408.179675 197.389107 
L 408.417941 206.094432 
L 408.417941 198.486598 
L 408.652542 207.443335 
L 408.652542 201.326791 
L 408.887317 208.580061 
L 408.887317 201.302715 
L 409.122093 210.330512 
L 409.122093 203.111841 
L 409.357217 209.782975 
L 409.357217 204.371336 
L 409.591992 211.520144 
L 409.591992 205.530504 
L 409.827291 212.085631 
L 409.827291 207.163188 
L 409.827291 212.863682 
L 410.062416 212.799471 
L 410.062416 213.192409 
L 410.297715 213.531935 
L 410.297715 213.825761 
L 410.533014 214.626733 
L 410.533014 210.078489 
L 410.533014 215.280841 
L 410.768487 215.310578 
L 410.768487 215.2909 
L 411.004135 214.941258 
L 411.004135 215.7536 
L 411.239609 215.982304 
L 411.239609 216.581193 
L 411.475257 216.745409 
L 411.711079 217.206914 
L 411.711079 213.310554 
L 411.95336 218.022091 
L 411.95336 214.666427 
L 412.189532 218.932354 
L 412.189532 214.969081 
L 412.425704 219.125985 
L 412.425704 215.624953 
L 412.662225 219.753118 
L 412.662225 216.515837 
L 412.89892 220.671047 
L 412.89892 217.369594 
L 413.135266 221.312739 
L 413.135266 217.699279 
L 413.371438 221.113705 
L 413.371438 218.161125 
L 413.608134 221.589446 
L 413.608134 218.257831 
L 413.84448 221.743424 
L 413.84448 218.949334 
L 414.081001 221.971606 
L 414.081001 219.430077 
L 414.317347 222.731425 
L 414.317347 219.505164 
L 414.554217 222.507411 
L 414.554217 219.809524 
L 414.790912 222.865931 
L 414.790912 220.076609 
L 415.027608 223.353664 
L 415.027608 220.596617 
L 415.264652 223.358455 
L 415.264652 220.414819 
L 415.505711 223.203558 
L 415.505711 220.860364 
L 415.742581 223.621301 
L 415.742581 221.027092 
L 415.98015 223.558236 
L 415.98015 221.41603 
L 416.217718 223.770018 
L 416.217718 221.253673 
L 416.45546 224.030453 
L 416.45546 221.930314 
L 416.694076 224.177704 
L 416.694076 222.313288 
L 416.931295 224.971592 
L 416.931295 222.742818 
L 417.169212 225.104421 
L 417.169212 223.095283 
L 417.407653 225.149831 
L 417.407653 223.220262 
L 417.645221 225.484182 
L 417.645221 223.398585 
L 417.883837 225.654778 
L 417.883837 223.569304 
L 418.122627 225.538161 
L 418.122627 223.499868 
L 418.360893 225.611648 
L 418.360893 223.931205 
L 418.601603 226.098446 
L 418.601603 224.089829 
L 418.840044 226.210582 
L 418.840044 224.116538 
L 419.081802 225.760866 
L 419.081802 223.860782 
L 419.32129 225.940673 
L 419.32129 224.158384 
L 419.559731 226.387426 
L 419.559731 224.863348 
L 419.798346 226.812682 
L 419.798346 225.191507 
L 420.036264 227.155142 
L 420.036264 225.383319 
L 420.275577 226.955715 
L 420.275577 225.359789 
L 420.514193 227.115378 
L 420.514193 225.361241 
L 420.75403 227.17352 
L 420.75403 225.811854 
L 420.992471 227.603093 
L 420.992471 226.014818 
L 421.231959 227.958092 
L 421.231959 226.25323 
L 421.47232 227.808752 
L 421.47232 226.208406 
L 421.712332 227.897667 
L 421.712332 226.287398 
L 421.951646 227.985739 
L 421.951646 226.482249 
L 422.192182 228.05112 
L 422.192182 226.713358 
L 422.432194 228.151966 
L 422.432194 226.700892 
L 422.675697 228.184564 
L 422.675697 226.870619 
L 422.91501 228.193576 
L 422.91501 227.030832 
L 423.154848 228.591188 
L 423.154848 227.419965 
L 423.396954 228.886001 
L 423.396954 227.676234 
L 423.637141 229.10671 
L 423.637141 227.702114 
L 423.8782 229.048402 
L 423.8782 227.789213 
L 424.118561 229.155136 
L 424.118561 227.766183 
L 424.36154 229.255173 
L 424.36154 227.803419 
L 424.60225 229.073285 
L 424.60225 227.74815 
L 424.842437 229.029046 
L 424.842437 227.840379 
L 425.082623 229.374766 
L 425.082623 228.084863 
L 425.323857 229.372859 
L 425.323857 228.291634 
L 425.564567 229.507934 
L 425.564567 228.225344 
L 425.804928 229.55976 
L 425.804928 228.314212 
L 426.045464 229.448393 
L 426.045464 228.363318 
L 426.291585 229.659288 
L 426.291585 228.430216 
L 426.533692 229.708053 
L 426.533692 228.44738 
L 426.775973 229.678992 
L 426.775973 228.463367 
L 427.017032 229.666767 
L 427.017032 228.634883 
L 427.25879 229.844161 
L 427.25879 228.791888 
L 427.500023 229.87526 
L 427.500023 228.874913 
L 427.743003 230.008807 
L 427.743003 229.162388 
L 427.986157 230.1071 
L 427.986157 229.137098 
L 428.227041 230.239351 
L 428.227041 229.167561 
L 428.468973 230.23942 
L 428.468973 229.298828 
L 428.709509 230.439981 
L 428.709509 229.399045 
L 428.952139 230.544982 
L 428.952139 229.453234 
L 429.194944 230.568337 
L 429.194944 229.621036 
L 429.439145 230.617559 
L 429.439145 229.589853 
L 429.683172 230.625388 
L 429.683172 229.751702 
L 429.934355 230.65601 
L 429.934355 229.907213 
L 430.178382 230.871724 
L 430.178382 230.004049 
L 430.420838 230.827916 
L 430.420838 230.086776 
L 430.663293 230.906266 
L 430.663293 230.148765 
L 430.904178 231.015486 
L 430.904178 230.267078 
L 431.148554 231.078223 
L 431.148554 230.312205 
L 431.391533 231.145862 
L 431.391533 230.369665 
L 431.63364 231.186867 
L 431.63364 230.260264 
L 431.876444 231.03532 
L 431.876444 230.236944 
L 432.117155 231.136744 
L 432.117155 230.338016 
L 432.360134 231.280369 
L 432.360134 230.492681 
L 432.602415 231.265579 
L 432.602415 230.466713 
L 432.846616 231.202398 
L 432.846616 230.394561 
L 433.088897 231.258071 
L 433.088897 230.491859 
L 433.3324 231.203445 
L 433.3324 230.373185 
L 433.579918 231.132822 
L 433.579918 230.366484 
L 433.824643 231.126885 
L 433.824643 230.472567 
L 434.069019 231.388132 
L 434.069019 230.675464 
L 434.313569 231.445889 
L 434.313569 230.705579 
L 434.558119 231.405659 
L 434.558119 230.577255 
L 434.802844 231.304428 
L 434.802844 230.560155 
L 435.047569 231.307599 
L 435.047569 230.645619 
L 435.292294 231.423387 
L 435.292294 230.839941 
L 435.537193 231.49242 
L 435.537193 230.765268 
L 435.782093 231.449692 
L 435.782093 230.7982 
L 436.026992 231.477128 
L 436.026992 230.802793 
L 436.272066 231.584588 
L 436.272066 230.906207 
L 436.517315 231.577391 
L 436.517315 230.982205 
L 436.76204 231.723944 
L 436.76204 231.126878 
L 437.006939 231.745458 
L 437.006939 231.034645 
L 437.254981 231.599246 
L 437.254981 231.042529 
L 437.500229 231.675754 
L 437.500229 231.058129 
L 437.745478 231.798595 
L 437.745478 231.210377 
L 437.990901 231.77396 
L 437.990901 231.142019 
L 438.235975 231.868614 
L 438.235975 231.248685 
L 438.481747 231.835235 
L 438.481747 231.263341 
L 438.727345 231.882282 
L 438.727345 231.249252 
L 438.972942 231.844386 
L 438.972942 231.374594 
L 439.21854 232.01424 
L 439.21854 231.405576 
L 439.464138 232.030586 
L 439.464138 231.481424 
L 439.709735 231.953155 
L 439.709735 231.431633 
L 439.955333 232.062874 
L 439.955333 231.519448 
L 440.200931 232.103342 
L 440.200931 231.643822 
L 440.449845 232.121597 
L 440.449845 231.629824 
L 440.695791 232.15313 
L 440.695791 231.702396 
L 440.94488 232.204314 
L 440.94488 231.747585 
L 441.190129 232.246236 
L 441.190129 231.846999 
L 441.435203 232.357517 
L 441.435203 231.888905 
L 441.680277 232.375841 
L 441.680277 231.971117 
L 441.925525 232.443983 
L 441.925525 231.96497 
L 442.170425 232.433672 
L 442.170425 232.094578 
L 442.415499 232.523917 
L 442.415499 232.054166 
L 442.660573 232.489877 
L 442.660573 232.122327 
L 442.905472 232.488022 
L 442.905472 232.059312 
L 443.150721 232.526864 
L 443.150721 232.136909 
L 443.396144 232.486929 
L 443.396144 232.07185 
L 443.641218 232.498113 
L 443.641218 232.088441 
L 443.886641 232.508904 
L 443.886641 232.151531 
L 444.132064 232.557711 
L 444.132064 232.18817 
L 444.377487 232.566309 
L 444.377487 232.211961 
L 444.626576 232.609247 
L 444.626576 232.256222 
L 444.872173 232.656274 
L 444.872173 232.238737 
L 445.117771 232.588079 
L 445.117771 232.205098 
L 445.363194 232.603407 
L 445.363194 232.195483 
L 445.608792 232.627218 
L 445.608792 232.267441 
L 445.854389 232.686894 
L 445.854389 232.286852 
L 446.099987 232.685138 
L 446.099987 232.250603 
L 446.345585 232.654106 
L 446.345585 232.258309 
L 446.591532 232.620618 
L 446.591532 232.28763 
L 446.838526 232.750935 
L 446.838526 232.337329 
L 447.084647 232.719982 
L 447.084647 232.417415 
L 447.330419 232.72451 
L 447.330419 232.367773 
L 447.576191 232.776761 
L 447.576191 232.404845 
L 447.822313 232.746558 
L 447.822313 232.394376 
L 448.068434 232.751971 
L 448.068434 232.395843 
L 448.320839 232.719651 
L 448.320839 232.341725 
L 448.568182 232.693677 
L 448.568182 232.310039 
L 448.814304 232.669306 
L 448.814304 232.324657 
L 449.0606 232.680071 
L 449.0606 232.341361 
L 449.306546 232.731816 
L 449.306546 232.347266 
L 449.552493 232.728578 
L 449.552493 232.405383 
L 449.797916 232.757101 
L 449.797916 232.391188 
L 450.043339 232.757054 
L 450.043339 232.458315 
L 450.288413 232.77929 
L 450.288413 232.506931 
L 450.533313 232.839951 
L 450.533313 232.518527 
L 450.778038 232.822992 
L 450.778038 232.577533 
L 451.022588 232.856434 
L 451.022588 232.593615 
L 451.265218 232.925244 
L 451.265218 232.648971 
L 451.506976 232.900021 
L 451.506976 232.621213 
L 451.749431 232.935994 
L 451.749431 232.636832 
L 451.994331 232.90189 
L 451.994331 232.616969 
L 452.235215 232.927257 
L 452.235215 232.607208 
L 452.478544 232.892653 
L 452.478544 232.592336 
L 452.723094 232.877863 
L 452.723094 232.583168 
L 452.966772 232.866191 
L 452.966772 232.600265 
L 453.210275 232.916418 
L 453.210275 232.625247 
L 453.45273 232.925409 
L 453.45273 232.695772 
L 453.69571 232.995286 
L 453.69571 232.744691 
L 453.937467 233.041955 
L 453.937467 232.75014 
L 454.178352 232.997271 
L 454.178352 232.716229 
L 454.418888 232.974059 
L 454.418888 232.701681 
L 454.65855 232.981165 
L 454.65855 232.711985 
L 454.899784 232.988925 
L 454.899784 232.728478 
L 455.139796 232.993856 
L 455.139796 232.73354 
L 455.379983 233.007117 
L 455.379983 232.752614 
L 455.624184 233.00755 
L 455.624184 232.798479 
L 455.865592 233.065939 
L 455.865592 232.822563 
L 456.109095 233.096995 
L 456.109095 232.824437 
L 456.349456 233.061584 
L 456.349456 232.796798 
L 456.590515 233.067182 
L 456.590515 232.784846 
L 456.8314 233.102018 
L 456.8314 232.81158 
L 457.072634 233.082493 
L 457.072634 232.786116 
L 457.316311 233.04761 
L 457.316311 232.747212 
L 457.560164 233.048217 
L 457.560164 232.767076 
L 457.802096 233.032916 
L 457.802096 232.807846 
L 458.046122 233.099614 
L 458.046122 232.798746 
L 458.2898 233.070907 
L 458.2898 232.854033 
L 458.534176 233.07124 
L 458.534176 232.835789 
L 458.778377 233.125558 
L 458.778377 232.892698 
L 459.022578 233.110057 
L 459.022578 232.890509 
L 459.270968 233.129077 
L 459.270968 232.867109 
L 459.516042 233.101685 
L 459.516042 232.82231 
L 459.760593 233.082044 
L 459.760593 232.794332 
L 460.005318 233.048589 
L 460.005318 232.820552 
L 460.250217 233.07607 
L 460.250217 232.779807 
L 460.494942 233.071936 
L 460.494942 232.868456 
L 460.739841 233.109562 
L 460.739841 232.941294 
L 460.985265 233.223698 
L 460.985265 232.971349 
L 461.230513 233.193658 
L 461.230513 232.936845 
L 461.475936 233.139384 
L 461.475936 232.917551 
L 461.721185 233.164492 
L 461.721185 232.918546 
L 461.966782 233.194053 
L 461.966782 232.961101 
L 462.21238 233.180162 
L 462.21238 232.957139 
L 462.457803 233.227445 
L 462.457803 232.993366 
L 462.703226 233.235795 
L 462.703226 232.987943 
L 462.952489 233.223287 
L 462.952489 232.994096 
L 463.201229 233.207754 
L 463.201229 232.974551 
L 463.446478 233.217538 
L 463.446478 232.948953 
L 463.692075 233.16158 
L 463.692075 232.936104 
L 463.937847 233.152431 
L 463.937847 232.909574 
L 464.183445 233.168894 
L 464.183445 232.954898 
L 464.429217 233.173036 
L 464.429217 232.931802 
L 464.675164 233.174457 
L 464.675164 232.984333 
L 464.920936 233.190292 
L 464.920936 233.016737 
L 465.166709 233.292318 
L 465.166709 233.110963 
L 465.412481 233.306305 
L 465.412481 233.080924 
L 465.658427 233.257969 
L 465.658427 233.003603 
L 465.9042 233.179099 
L 465.9042 232.999546 
L 466.395919 233.325019 
L 466.395919 233.128983 
L 466.645706 233.315224 
L 466.645706 233.112251 
L 466.891827 233.279313 
L 466.891827 233.047128 
L 467.137948 233.273641 
L 467.137948 233.042188 
L 467.384942 233.261498 
L 467.384942 233.073604 
L 467.631064 233.317956 
L 467.631064 233.103828 
L 467.877185 233.329857 
L 467.877185 233.101399 
L 468.123655 233.294494 
L 468.123655 233.089461 
L 468.370126 233.284586 
L 468.370126 233.109829 
L 468.616771 233.331224 
L 468.616771 233.14613 
L 468.863416 233.338672 
L 468.863416 233.128598 
L 469.110584 233.31517 
L 469.110584 233.107832 
L 469.35688 233.295035 
L 469.35688 233.085737 
L 469.607191 233.302025 
L 469.607191 233.099423 
L 469.853661 233.323155 
L 469.853661 233.126279 
L 470.099957 233.32988 
L 470.099957 233.150371 
L 470.350093 233.337603 
L 470.350093 233.13518 
L 470.596738 233.32179 
L 470.596738 233.11742 
L 470.843034 233.319838 
L 470.843034 233.13156 
L 471.089504 233.294552 
L 471.089504 233.10331 
L 471.3358 233.303985 
L 471.3358 233.113943 
L 471.582096 233.322595 
L 471.582096 233.171535 
L 471.828392 233.363941 
L 471.828392 233.170247 
L 472.074862 233.352236 
L 472.074862 233.138204 
L 472.321507 233.320673 
L 472.321507 233.165277 
L 472.569025 233.363556 
L 472.569025 233.17493 
L 472.81567 233.378595 
L 472.81567 233.168962 
L 473.062315 233.333806 
L 473.062315 233.152168 
L 473.30896 233.325171 
L 473.30896 233.143365 
L 473.555431 233.346203 
L 473.555431 233.168882 
L 473.801901 233.360067 
L 473.801901 233.199648 
L 474.052561 233.37581 
L 474.052561 233.180686 
L 474.299206 233.353386 
L 474.299206 233.174894 
L 474.545676 233.356251 
L 474.545676 233.195336 
L 474.792321 233.399837 
L 474.792321 233.20155 
L 475.038966 233.376751 
L 475.038966 233.1918 
L 475.285087 233.351016 
L 475.285087 233.176047 
L 475.531034 233.381749 
L 475.531034 233.150473 
L 475.776981 233.328387 
L 475.776981 233.172328 
L 476.023102 233.344939 
L 476.023102 233.158691 
L 476.268002 233.39237 
L 476.268002 233.211199 
L 476.512552 233.38428 
L 476.512552 233.22377 
L 476.758673 233.393213 
L 476.758673 233.232815 
L 477.96554 233.409696 
L 477.96554 233.198453 
L 478.204854 233.367714 
L 478.204854 233.207989 
L 478.443819 233.323758 
L 478.443819 233.171547 
L 478.683307 233.393919 
L 478.683307 233.23804 
L 478.922272 233.393581 
L 478.922272 233.231414 
L 479.162109 233.411587 
L 479.162109 233.23184 
L 479.402295 233.389478 
L 479.402295 233.224017 
L 479.642831 233.4121 
L 479.642831 233.23787 
L 479.885287 233.408229 
L 479.885287 233.268704 
L 480.126695 233.443106 
L 480.126695 233.293259 
L 480.368976 233.465164 
L 480.368976 233.333951 
L 480.613003 233.470662 
L 480.613003 233.298597 
L 480.85703 233.443146 
L 480.85703 233.298796 
L 481.10158 233.436706 
L 481.10158 233.284 
L 481.350319 233.462237 
L 481.350319 233.303341 
L 481.595044 233.459806 
L 481.595044 233.28406 
L 481.84326 233.451242 
L 481.84326 233.290629 
L 482.08816 233.454606 
L 482.08816 233.275781 
L 482.333234 233.44717 
L 482.333234 233.28855 
L 482.578482 233.441049 
L 482.578482 233.290291 
L 482.823905 233.456362 
L 482.823905 233.321031 
L 483.068979 233.479977 
L 483.068979 233.333656 
L 483.314402 233.481438 
L 483.314402 233.340989 
L 483.559826 233.480609 
L 483.559826 233.297733 
L 483.559826 233.434245 
L 484.788163 233.452999 
L 484.788163 233.294116 
L 485.037775 233.454306 
L 485.037775 233.26445 
L 485.283198 233.427713 
L 485.283198 233.266628 
L 485.774394 233.470827 
L 485.774394 233.313375 
L 486.019817 233.473944 
L 486.019817 233.353533 
L 486.265414 233.473287 
L 486.265414 233.323405 
L 486.511187 233.48871 
L 486.511187 233.342565 
L 486.757133 233.471268 
L 486.757133 233.330855 
L 487.249201 233.49193 
L 487.249201 233.34395 
L 487.495148 233.492936 
L 487.495148 233.356205 
L 487.741619 233.463132 
L 487.741619 233.325471 
L 487.987565 233.479137 
L 487.987565 233.34097 
L 488.233687 233.491952 
L 488.233687 233.357159 
L 488.479459 233.489626 
L 488.479459 233.34847 
L 488.729246 233.478029 
L 488.729246 233.349569 
L 488.975716 233.495352 
L 488.975716 233.345919 
L 489.22463 233.477274 
L 489.22463 233.357241 
L 489.961773 233.368484 
L 490.453317 233.537129 
L 490.453317 233.418752 
L 490.698915 233.562818 
L 490.698915 233.445417 
L 490.944861 233.568274 
L 490.944861 233.433561 
L 491.191681 233.548641 
L 491.191681 233.414107 
L 491.683225 233.538103 
L 491.683225 233.387064 
L 491.929172 233.512915 
L 491.929172 233.358338 
L 492.424557 233.486941 
L 492.424557 233.358278 
L 492.670329 233.507508 
L 492.670329 233.376902 
L 493.164317 233.526215 
L 493.164317 233.404331 
L 493.65656 233.553035 
L 493.65656 233.403596 
L 494.149151 233.542215 
L 494.149151 233.401428 
L 494.395447 233.53177 
L 494.395447 233.390083 
L 494.641743 233.501155 
L 494.641743 233.337856 
L 495.134684 233.514544 
L 495.134684 233.369536 
L 495.381329 233.537532 
L 495.381329 233.39082 
L 495.628148 233.503909 
L 495.628148 233.338822 
L 495.874793 233.475281 
L 495.874793 233.323907 
L 496.125104 233.46604 
L 496.125104 233.33064 
L 496.371749 233.507029 
L 496.371749 233.376241 
L 496.619441 233.522305 
L 496.619441 233.359792 
L 496.869228 233.498578 
L 496.869228 233.344799 
L 497.362693 233.512394 
L 497.362693 233.387096 
L 497.609687 233.540054 
L 497.609687 233.412493 
L 497.856506 233.536827 
L 497.856506 233.411136 
L 498.351716 233.552702 
L 498.351716 233.392693 
L 498.598536 233.539204 
L 498.598536 233.398988 
L 498.845705 233.517684 
L 498.845705 233.372632 
L 499.092524 233.526508 
L 499.092524 233.392124 
L 499.339693 233.540957 
L 499.339693 233.386964 
L 499.586687 233.511051 
L 499.586687 233.390298 
L 499.838568 233.499047 
L 499.838568 233.376859 
L 500.33308 233.526719 
L 500.33308 233.408111 
L 500.580249 233.511568 
L 500.580249 233.379061 
L 500.827418 233.515719 
L 500.827418 233.385503 
L 501.321929 233.545183 
L 501.321929 233.432748 
L 501.569098 233.54477 
L 501.569098 233.4071 
L 501.816267 233.512583 
L 501.816267 233.375961 
L 502.06361 233.481221 
L 502.06361 233.329944 
L 502.557773 233.487551 
L 502.557773 233.351135 
L 502.804941 233.514623 
L 502.804941 233.380116 
L 503.05211 233.516802 
L 503.05211 233.374392 
L 503.550287 233.547066 
L 503.550287 233.407451 
L 503.800947 233.544293 
L 503.800947 233.429058 
L 504.047418 233.533538 
L 504.047418 233.408018 
L 504.540184 233.596753 
L 504.540184 233.489069 
L 504.786654 233.616331 
L 504.786654 233.506708 
L 505.278722 233.608993 
L 505.278722 233.527717 
L 506.016563 233.512207 
L 506.262509 233.637048 
L 506.262509 233.508334 
L 506.754752 233.576217 
L 506.754752 233.470119 
L 507.000699 233.594006 
L 507.000699 233.480556 
L 507.251184 233.59176 
L 507.251184 233.48475 
L 507.74395 233.564406 
L 507.74395 233.453661 
L 508.23724 233.598812 
L 508.23724 233.509301 
L 508.730705 233.605559 
L 508.730705 233.479238 
L 509.224518 233.588016 
L 509.224518 233.445238 
L 509.718332 233.554355 
L 509.718332 233.426344 
L 509.9655 233.573209 
L 509.9655 233.454785 
L 510.459663 233.578916 
L 510.459663 233.477543 
L 510.710672 233.610661 
L 510.710672 233.496377 
L 511.207977 233.576698 
L 511.207977 233.450081 
L 511.454971 233.585962 
L 511.454971 233.4734 
L 511.70179 233.585132 
L 511.70179 233.46188 
L 512.19508 233.585295 
L 512.19508 233.468758 
L 512.442074 233.597384 
L 512.442074 233.479506 
L 512.689243 233.587228 
L 512.689243 233.444946 
L 513.183406 233.548176 
L 513.183406 233.424601 
L 513.677743 233.57709 
L 513.677743 233.477188 
L 514.172604 233.600208 
L 514.172604 233.472289 
L 514.419947 233.574377 
L 514.419947 233.469626 
L 515.165817 233.422405 
L 515.165817 233.440409 
L 515.660678 233.584557 
L 515.660678 233.496043 
L 516.155539 233.626247 
L 516.155539 233.511271 
L 516.650051 233.579702 
L 516.650051 233.488247 
L 517.144562 233.626935 
L 517.144562 233.503766 
L 517.39208 233.593658 
L 517.39208 233.451131 
L 517.890083 233.560576 
L 517.890083 233.448543 
L 518.388784 233.588945 
L 518.388784 233.475337 
L 518.883645 233.570934 
L 518.883645 233.449479 
L 519.378681 233.598976 
L 519.378681 233.489551 
L 519.626198 233.614904 
L 519.626198 233.505248 
L 519.873542 233.61453 
L 519.873542 233.485078 
L 520.120536 233.597484 
L 520.120536 233.482507 
L 520.615571 233.604153 
L 520.615571 233.491261 
L 521.110956 233.596132 
L 521.110956 233.45235 
L 521.605642 233.558453 
L 521.605642 233.428536 
L 522.10574 233.588915 
L 522.10574 233.480425 
L 522.60095 233.608734 
L 522.60095 233.502486 
L 523.096334 233.621061 
L 523.096334 233.479728 
L 523.591544 233.620123 
L 523.591544 233.517356 
L 523.839586 233.655313 
L 523.839586 233.541641 
L 524.335145 233.61873 
L 524.335145 233.507529 
L 524.602213 233.621092 
L 524.602213 233.497623 
L 525.097597 233.593912 
L 525.097597 233.47245 
L 525.596648 233.579716 
L 525.596648 233.481206 
L 526.091683 233.606637 
L 526.091683 233.492072 
L 526.339026 233.588688 
L 526.339026 233.449462 
L 526.834236 233.578622 
L 526.834236 233.462772 
L 527.081929 233.598556 
L 527.081929 233.489883 
L 527.576266 233.62586 
L 527.576266 233.528054 
L 527.823784 233.62877 
L 527.823784 233.516585 
L 528.078109 233.607342 
L 528.078109 233.482937 
L 528.573319 233.603692 
L 528.573319 233.524741 
L 529.068529 233.622203 
L 529.068529 233.513016 
L 529.567579 233.611388 
L 529.567579 233.537037 
L 529.815272 233.644873 
L 529.815272 233.552633 
L 532.545298 233.548254 
L 533.044523 233.624714 
L 533.044523 233.547883 
L 533.539733 233.625698 
L 533.539733 233.538731 
L 534.034943 233.657928 
L 534.034943 233.567198 
L 534.530153 233.671163 
L 534.530153 233.56383 
L 534.778718 233.653937 
L 534.778718 233.535001 
L 535.274452 233.597366 
L 535.274452 233.492836 
L 535.769836 233.605579 
L 535.769836 233.496603 
L 536.26557 233.641655 
L 536.26557 233.530783 
L 536.513262 233.641142 
L 536.513262 233.515803 
L 537.012313 233.605215 
L 537.012313 233.493722 
L 537.511363 233.632875 
L 537.511363 233.55002 
L 537.758881 233.664619 
L 537.758881 233.534723 
L 550.371813 233.679435 
L 550.371813 233.603922 
L 550.864579 233.694649 
L 550.864579 233.588919 
L 551.356996 233.677586 
L 551.356996 233.61257 
L 552.099375 233.575398 
L 552.591966 233.672019 
L 552.591966 233.599232 
L 553.084209 233.71091 
L 553.084209 233.653188 
L 553.576801 233.697949 
L 553.576801 233.617843 
L 554.069218 233.692421 
L 554.069218 233.612975 
L 554.561111 233.721453 
L 554.561111 233.659657 
L 555.05318 233.726862 
L 555.05318 233.647407 
L 555.549262 233.728404 
L 555.549262 233.651579 
L 556.041156 233.725912 
L 556.041156 233.649991 
L 591.818293 233.776342 
L 591.818293 233.72866 
L 592.561544 233.791065 
L 592.561544 233.74515 
L 593.054659 233.798844 
L 593.054659 233.757856 
L 593.550917 233.802221 
L 593.550917 233.746594 
L 594.289455 233.802012 
L 594.289455 233.741301 
L 595.027819 233.788379 
L 595.027819 233.734002 
L 595.766532 233.806362 
L 595.766532 233.747685 
L 602.904574 233.79123 
L 602.904574 233.733867 
L 603.398737 233.802647 
L 603.398737 233.757685 
L 603.889234 233.831238 
L 603.889234 233.790612 
L 610.538873 233.783284 
L 611.032163 233.834764 
L 611.032163 233.780473 
L 611.766338 233.830412 
L 611.766338 233.770524 
L 612.255787 233.816824 
L 612.255787 233.75652 
L 617.892315 233.805213 
L 617.892315 233.767327 
L 618.385779 233.812174 
L 618.385779 233.765155 
L 623.534078 233.766168 
L 623.534078 233.773672 
L 624.268428 233.827756 
L 624.268428 233.781589 
L 628.436606 233.827136 
L 628.436606 233.771411 
L 629.420567 233.847052 
L 629.420567 233.800866 
L 629.910715 233.806961 
L 629.910715 233.778361 
L 632.853523 233.810894 
L 633.587872 233.829942 
L 633.587872 233.777025 
L 634.321872 233.85014 
L 634.321872 233.806279 
L 635.547242 233.846662 
L 635.547242 233.813324 
L 636.284908 233.839118 
L 636.284908 233.789143 
L 637.021526 233.80003 
L 639.944784 233.841144 
L 639.944784 233.80118 
L 642.151323 233.80241 
L 643.128302 233.823824 
L 643.128302 233.80451 
L 644.109297 233.858867 
L 644.109297 233.835737 
L 644.842424 233.831256 
L 644.842424 233.812304 
L 647.781217 233.823916 
L 648.519057 233.786654 
L 649.008682 233.7842 
L 649.008682 233.833375 
L 649.497782 233.849784 
L 651.214173 233.815179 
L 652.193073 233.834862 
L 652.193073 233.807511 
L 652.927247 233.783062 
L 653.913653 233.780733 
L 655.144957 233.82141 
L 655.879307 233.831336 
L 655.879307 233.790144 
L 656.859602 233.854733 
L 656.859602 233.825453 
L 658.083576 233.851443 
L 658.083576 233.813393 
L 659.067188 233.798457 
L 659.067188 233.822516 
L 659.801189 233.84867 
L 659.801189 233.815957 
L 662.755168 233.824679 
L 663.489692 233.836524 
L 663.489692 233.800186 
L 665.448887 233.807842 
L 666.186727 233.795183 
L 666.186727 233.800866 
L 666.921251 233.853273 
L 666.921251 233.829311 
L 667.655251 233.860547 
L 667.655251 233.829022 
L 668.389601 233.849507 
L 668.389601 233.848953 
L 669.12395 233.790669 
L 669.12395 233.804972 
L 669.617589 233.829657 
L 672.068503 233.860494 
L 672.068503 233.82023 
L 675.991083 233.812481 
L 676.729797 233.833369 
L 676.729797 233.800646 
L 677.46851 233.843594 
L 677.46851 233.816928 
L 678.694403 233.805154 
L 678.694403 233.810707 
L 679.1849 233.880021 
L 679.1849 233.841511 
L 682.6203 233.807197 
L 682.6203 233.81483 
L 683.356046 233.852623 
L 683.356046 233.825468 
L 684.58962 233.845578 
L 684.58962 233.830392 
L 686.060587 233.835485 
L 687.532951 233.883295 
L 687.532951 233.844686 
L 688.763558 233.873215 
L 689.499478 233.850399 
L 690.484836 233.865759 
L 690.484836 233.84025 
L 691.716315 233.868973 
L 691.716315 233.841026 
L 695.648321 233.879035 
L 695.648321 233.858788 
L 696.633505 233.870687 
L 696.633505 233.847391 
L 698.352863 233.885964 
L 698.352863 233.862974 
L 699.338396 233.848965 
L 709.167364 233.889389 
L 709.167364 233.864073 
L 711.377044 233.868577 
L 712.845568 233.878624 
L 712.845568 233.870691 
L 724.162785 233.877917 
L 724.162785 233.896055 
L 725.140812 233.897164 
L 727.337401 233.876141 
L 728.318569 233.895258 
L 728.318569 233.875624 
L 730.281605 233.907274 
L 730.281605 233.891778 
L 732.490238 233.89913 
L 735.190416 233.915231 
L 736.174378 233.884077 
L 736.174378 233.85893 
L 737.891467 233.917287 
L 737.891467 233.909672 
L 744.276133 233.896561 
L 744.276133 233.900924 
L 745.257127 233.896262 
L 752.385219 233.894677 
L 754.353666 233.91939 
L 754.353666 233.900715 
L 756.07058 233.924323 
L 756.07058 233.903473 
L 756.07058 233.918425 
L 805.281577 233.934742 
L 805.281577 233.945849 
L 809.464766 233.908957 
L 816.031143 233.982743 
L 816.031143 233.982743 
" clip-path="url(#p9e929e47df)" style="fill: none; stroke: #008000; stroke-width: 1.5; stroke-linecap: square"/>
   </g>
   <g id="patch_3">
    <path d="M 47.72 534.04 
L 47.72 26.88 
" style="fill: none; stroke: #000000; stroke-width: 0.8; stroke-linejoin: miter; stroke-linecap: square"/>
   </g>
   <g id="patch_4">
    <path d="M 853.2 534.04 
L 853.2 26.88 
" style="fill: none; stroke: #000000; stroke-width: 0.8; stroke-linejoin: miter; stroke-linecap: square"/>
   </g>
   <g id="patch_5">
    <path d="M 47.72 534.04 
L 853.2 534.04 
" style="fill: none; stroke: #000000; stroke-width: 0.8; stroke-linejoin: miter; stroke-linecap: square"/>
   </g>
   <g id="patch_6">
    <path d="M 47.72 26.88 
L 853.2 26.88 
" style="fill: none; stroke: #000000; stroke-width: 0.8; stroke-linejoin: miter; stroke-linecap: square"/>
   </g>
   <g id="patch_7">
    <path d="M 446.005063 331.565298 
Q 429.167249 336.81457 412.329436 342.063843 
L 413.519944 345.882572 
Q 406.898763 344.804351 400.277583 343.72613 
Q 405.113002 339.076258 409.948421 334.426385 
L 411.138928 338.245114 
Q 427.976742 332.995841 444.814555 327.746569 
L 446.005063 331.565298 
z
" style="stroke: #000000; stroke-linecap: round"/>
   </g>
   <g id="text_17">
    <!-- Peak: RT=3.00, Area=4.03e+04 -->
    <g style="fill: #ff0000" transform="translate(450.023615 314.940057) scale(0.1 -0.1)">
     <defs>
      <path id="DejaVuSans-50" d="M 1259 4147 
L 1259 2394 
L 2053 2394 
Q 2494 2394 2734 2622 
Q 2975 2850 2975 3272 
Q 2975 3691 2734 3919 
Q 2494 4147 2053 4147 
L 1259 4147 
z
M 628 4666 
L 2053 4666 
Q 2838 4666 3239 4311 
Q 3641 3956 3641 3272 
Q 3641 2581 3239 2228 
Q 2838 1875 2053 1875 
L 1259 1875 
L 1259 0 
L 628 0 
L 628 4666 
z
" transform="scale(0.015625)"/>
      <path id="DejaVuSans-6b" d="M 581 4863 
L 1159 4863 
L 1159 1991 
L 2875 3500 
L 3609 3500 
L 1753 1863 
L 3688 0 
L 2938 0 
L 1159 1709 
L 1159 0 
L 581 0 
L 581 4863 
z
" transform="scale(0.015625)"/>
      <path id="DejaVuSans-3a" d="M 750 794 
L 1409 794 
L 1409 0 
L 750 0 
L 750 794 
z
M 750 3309 
L 1409 3309 
L 1409 2516 
L 750 2516 
L 750 3309 
z
" transform="scale(0.015625)"/>
      <path id="DejaVuSans-3d" d="M 678 2906 
L 4684 2906 
L 4684 2381 
L 678 2381 
L 678 2906 
z
M 678 1631 
L 4684 1631 
L 4684 1100 
L 678 1100 
L 678 1631 
z
" transform="scale(0.015625)"/>
      <path id="DejaVuSans-2c" d="M 750 794 
L 1409 794 
L 1409 256 
L 897 -744 
L 494 -744 
L 750 256 
L 750 794 
z
" transform="scale(0.015625)"/>
      <path id="DejaVuSans-41" d="M 2188 4044 
L 1331 1722 
L 3047 1722 
L 2188 4044 
z
M 1831 4666 
L 2547 4666 
L 4325 0 
L 3669 0 
L 3244 1197 
L 1141 1197 
L 716 0 
L 50 0 
L 1831 4666 
z
" transform="scale(0.015625)"/>
      <path id="DejaVuSans-2b" d="M 2944 4013 
L 2944 2272 
L 4684 2272 
L 4684 1741 
L 2944 1741 
L 2944 0 
L 2419 0 
L 2419 1741 
L 678 1741 
L 678 2272 
L 2419 2272 
L 2419 4013 
L 2944 4013 
z
" transform="scale(0.015625)"/>
     </defs>
     <use xlink:href="#DejaVuSans-50"/>
     <use xlink:href="#DejaVuSans-65" x="56.677734"/>
     <use xlink:href="#DejaVuSans-61" x="118.201172"/>
     <use xlink:href="#DejaVuSans-6b" x="179.480469"/>
     <use xlink:href="#DejaVuSans-3a" x="237.390625"/>
     <use xlink:href="#DejaVuSans-20" x="271.082031"/>
     <use xlink:href="#DejaVuSans-52" x="302.869141"/>
     <use xlink:href="#DejaVuSans-54" x="365.101562"/>
     <use xlink:href="#DejaVuSans-3d" x="426.185547"/>
     <use xlink:href="#DejaVuSans-33" x="509.974609"/>
     <use xlink:href="#DejaVuSans-2e" x="573.597656"/>
     <use xlink:href="#DejaVuSans-30" x="605.384766"/>
     <use xlink:href="#DejaVuSans-30" x="669.007812"/>
     <use xlink:href="#DejaVuSans-2c" x="732.630859"/>
     <use xlink:href="#DejaVuSans-20" x="764.417969"/>
     <use xlink:href="#DejaVuSans-41" x="796.205078"/>
     <use xlink:href="#DejaVuSans-72" x="864.613281"/>
     <use xlink:href="#DejaVuSans-65" x="903.476562"/>
     <use xlink:href="#DejaVuSans-61" x="965"/>
     <use xlink:href="#DejaVuSans-3d" x="1026.279297"/>
     <use xlink:href="#DejaVuSans-34" x="1110.068359"/>
     <use xlink:href="#DejaVuSans-2e" x="1173.691406"/>
     <use xlink:href="#DejaVuSans-30" x="1205.478516"/>
     <use xlink:href="#DejaVuSans-33" x="1269.101562"/>
     <use xlink:href="#DejaVuSans-65" x="1332.724609"/>
     <use xlink:href="#DejaVuSans-2b" x="1394.248047"/>
     <use xlink:href="#DejaVuSans-30" x="1478.037109"/>
     <use xlink:href="#DejaVuSans-34" x="1541.660156"/>
    </g>
    <!-- (56.68% of total) -->
    <g style="fill: #ff0000" transform="translate(450.023615 326.137869) scale(0.1 -0.1)">
     <defs>
      <path id="DejaVuSans-38" d="M 2034 2216 
Q 1584 2216 1326 1975 
Q 1069 1734 1069 1313 
Q 1069 891 1326 650 
Q 1584 409 2034 409 
Q 2484 409 2743 651 
Q 3003 894 3003 1313 
Q 3003 1734 2745 1975 
Q 2488 2216 2034 2216 
z
M 1403 2484 
Q 997 2584 770 2862 
Q 544 3141 544 3541 
Q 544 4100 942 4425 
Q 1341 4750 2034 4750 
Q 2731 4750 3128 4425 
Q 3525 4100 3525 3541 
Q 3525 3141 3298 2862 
Q 3072 2584 2669 2484 
Q 3125 2378 3379 2068 
Q 3634 1759 3634 1313 
Q 3634 634 3220 271 
Q 2806 -91 2034 -91 
Q 1263 -91 848 271 
Q 434 634 434 1313 
Q 434 1759 690 2068 
Q 947 2378 1403 2484 
z
M 1172 3481 
Q 1172 3119 1398 2916 
Q 1625 2713 2034 2713 
Q 2441 2713 2670 2916 
Q 2900 3119 2900 3481 
Q 2900 3844 2670 4047 
Q 2441 4250 2034 4250 
Q 1625 4250 1398 4047 
Q 1172 3844 1172 3481 
z
" transform="scale(0.015625)"/>
      <path id="DejaVuSans-25" d="M 4653 2053 
Q 4381 2053 4226 1822 
Q 4072 1591 4072 1178 
Q 4072 772 4226 539 
Q 4381 306 4653 306 
Q 4919 306 5073 539 
Q 5228 772 5228 1178 
Q 5228 1588 5073 1820 
Q 4919 2053 4653 2053 
z
M 4653 2450 
Q 5147 2450 5437 2106 
Q 5728 1763 5728 1178 
Q 5728 594 5436 251 
Q 5144 -91 4653 -91 
Q 4153 -91 3862 251 
Q 3572 594 3572 1178 
Q 3572 1766 3864 2108 
Q 4156 2450 4653 2450 
z
M 1428 4353 
Q 1159 4353 1004 4120 
Q 850 3888 850 3481 
Q 850 3069 1003 2837 
Q 1156 2606 1428 2606 
Q 1700 2606 1854 2837 
Q 2009 3069 2009 3481 
Q 2009 3884 1853 4118 
Q 1697 4353 1428 4353 
z
M 4250 4750 
L 4750 4750 
L 1831 -91 
L 1331 -91 
L 4250 4750 
z
M 1428 4750 
Q 1922 4750 2215 4408 
Q 2509 4066 2509 3481 
Q 2509 2891 2217 2550 
Q 1925 2209 1428 2209 
Q 931 2209 642 2551 
Q 353 2894 353 3481 
Q 353 4063 643 4406 
Q 934 4750 1428 4750 
z
" transform="scale(0.015625)"/>
      <path id="DejaVuSans-66" d="M 2375 4863 
L 2375 4384 
L 1825 4384 
Q 1516 4384 1395 4259 
Q 1275 4134 1275 3809 
L 1275 3500 
L 2222 3500 
L 2222 3053 
L 1275 3053 
L 1275 0 
L 697 0 
L 697 3053 
L 147 3053 
L 147 3500 
L 697 3500 
L 697 3744 
Q 697 4328 969 4595 
Q 1241 4863 1831 4863 
L 2375 4863 
z
" transform="scale(0.015625)"/>
     </defs>
     <use xlink:href="#DejaVuSans-28"/>
     <use xlink:href="#DejaVuSans-35" x="39.013672"/>
     <use xlink:href="#DejaVuSans-36" x="102.636719"/>
     <use xlink:href="#DejaVuSans-2e" x="166.259766"/>
     <use xlink:href="#DejaVuSans-36" x="198.046875"/>
     <use xlink:href="#DejaVuSans-38" x="261.669922"/>
     <use xlink:href="#DejaVuSans-25" x="325.292969"/>
     <use xlink:href="#DejaVuSans-20" x="420.3125"/>
     <use xlink:href="#DejaVuSans-6f" x="452.099609"/>
     <use xlink:href="#DejaVuSans-66" x="513.28125"/>
     <use xlink:href="#DejaVuSans-20" x="548.486328"/>
     <use xlink:href="#DejaVuSans-74" x="580.273438"/>
     <use xlink:href="#DejaVuSans-6f" x="619.482422"/>
     <use xlink:href="#DejaVuSans-74" x="680.664062"/>
     <use xlink:href="#DejaVuSans-61" x="719.873047"/>
     <use xlink:href="#DejaVuSans-6c" x="781.152344"/>
     <use xlink:href="#DejaVuSans-29" x="808.935547"/>
    </g>
   </g>
   <g id="text_18">
    <!-- UV and MS Chromatograms of ReM4Y1BeMeIm_MeOH, target m/z = 639.11 -->
    <g transform="translate(223.631875 20.88) scale(0.12 -0.12)">
     <defs>
      <path id="DejaVuSans-55" d="M 556 4666 
L 1191 4666 
L 1191 1831 
Q 1191 1081 1462 751 
Q 1734 422 2344 422 
Q 2950 422 3222 751 
Q 3494 1081 3494 1831 
L 3494 4666 
L 4128 4666 
L 4128 1753 
Q 4128 841 3676 375 
Q 3225 -91 2344 -91 
Q 1459 -91 1007 375 
Q 556 841 556 1753 
L 556 4666 
z
" transform="scale(0.015625)"/>
      <path id="DejaVuSans-56" d="M 1831 0 
L 50 4666 
L 709 4666 
L 2188 738 
L 3669 4666 
L 4325 4666 
L 2547 0 
L 1831 0 
z
" transform="scale(0.015625)"/>
      <path id="DejaVuSans-4d" d="M 628 4666 
L 1569 4666 
L 2759 1491 
L 3956 4666 
L 4897 4666 
L 4897 0 
L 4281 0 
L 4281 4097 
L 3078 897 
L 2444 897 
L 1241 4097 
L 1241 0 
L 628 0 
L 628 4666 
z
" transform="scale(0.015625)"/>
      <path id="DejaVuSans-53" d="M 3425 4513 
L 3425 3897 
Q 3066 4069 2747 4153 
Q 2428 4238 2131 4238 
Q 1616 4238 1336 4038 
Q 1056 3838 1056 3469 
Q 1056 3159 1242 3001 
Q 1428 2844 1947 2747 
L 2328 2669 
Q 3034 2534 3370 2195 
Q 3706 1856 3706 1288 
Q 3706 609 3251 259 
Q 2797 -91 1919 -91 
Q 1588 -91 1214 -16 
Q 841 59 441 206 
L 441 856 
Q 825 641 1194 531 
Q 1563 422 1919 422 
Q 2459 422 2753 634 
Q 3047 847 3047 1241 
Q 3047 1584 2836 1778 
Q 2625 1972 2144 2069 
L 1759 2144 
Q 1053 2284 737 2584 
Q 422 2884 422 3419 
Q 422 4038 858 4394 
Q 1294 4750 2059 4750 
Q 2388 4750 2728 4690 
Q 3069 4631 3425 4513 
z
" transform="scale(0.015625)"/>
      <path id="DejaVuSans-43" d="M 4122 4306 
L 4122 3641 
Q 3803 3938 3442 4084 
Q 3081 4231 2675 4231 
Q 1875 4231 1450 3742 
Q 1025 3253 1025 2328 
Q 1025 1406 1450 917 
Q 1875 428 2675 428 
Q 3081 428 3442 575 
Q 3803 722 4122 1019 
L 4122 359 
Q 3791 134 3420 21 
Q 3050 -91 2638 -91 
Q 1578 -91 968 557 
Q 359 1206 359 2328 
Q 359 3453 968 4101 
Q 1578 4750 2638 4750 
Q 3056 4750 3426 4639 
Q 3797 4528 4122 4306 
z
" transform="scale(0.015625)"/>
      <path id="DejaVuSans-68" d="M 3513 2113 
L 3513 0 
L 2938 0 
L 2938 2094 
Q 2938 2591 2744 2837 
Q 2550 3084 2163 3084 
Q 1697 3084 1428 2787 
Q 1159 2491 1159 1978 
L 1159 0 
L 581 0 
L 581 4863 
L 1159 4863 
L 1159 2956 
Q 1366 3272 1645 3428 
Q 1925 3584 2291 3584 
Q 2894 3584 3203 3211 
Q 3513 2838 3513 2113 
z
" transform="scale(0.015625)"/>
      <path id="DejaVuSans-67" d="M 2906 1791 
Q 2906 2416 2648 2759 
Q 2391 3103 1925 3103 
Q 1463 3103 1205 2759 
Q 947 2416 947 1791 
Q 947 1169 1205 825 
Q 1463 481 1925 481 
Q 2391 481 2648 825 
Q 2906 1169 2906 1791 
z
M 3481 434 
Q 3481 -459 3084 -895 
Q 2688 -1331 1869 -1331 
Q 1566 -1331 1297 -1286 
Q 1028 -1241 775 -1147 
L 775 -588 
Q 1028 -725 1275 -790 
Q 1522 -856 1778 -856 
Q 2344 -856 2625 -561 
Q 2906 -266 2906 331 
L 2906 616 
Q 2728 306 2450 153 
Q 2172 0 1784 0 
Q 1141 0 747 490 
Q 353 981 353 1791 
Q 353 2603 747 3093 
Q 1141 3584 1784 3584 
Q 2172 3584 2450 3431 
Q 2728 3278 2906 2969 
L 2906 3500 
L 3481 3500 
L 3481 434 
z
" transform="scale(0.015625)"/>
      <path id="DejaVuSans-59" d="M -13 4666 
L 666 4666 
L 1959 2747 
L 3244 4666 
L 3922 4666 
L 2272 2222 
L 2272 0 
L 1638 0 
L 1638 2222 
L -13 4666 
z
" transform="scale(0.015625)"/>
      <path id="DejaVuSans-42" d="M 1259 2228 
L 1259 519 
L 2272 519 
Q 2781 519 3026 730 
Q 3272 941 3272 1375 
Q 3272 1813 3026 2020 
Q 2781 2228 2272 2228 
L 1259 2228 
z
M 1259 4147 
L 1259 2741 
L 2194 2741 
Q 2656 2741 2882 2914 
Q 3109 3088 3109 3444 
Q 3109 3797 2882 3972 
Q 2656 4147 2194 4147 
L 1259 4147 
z
M 628 4666 
L 2241 4666 
Q 2963 4666 3353 4366 
Q 3744 4066 3744 3513 
Q 3744 3084 3544 2831 
Q 3344 2578 2956 2516 
Q 3422 2416 3680 2098 
Q 3938 1781 3938 1306 
Q 3938 681 3513 340 
Q 3088 0 2303 0 
L 628 0 
L 628 4666 
z
" transform="scale(0.015625)"/>
      <path id="DejaVuSans-5f" d="M 3263 -1063 
L 3263 -1509 
L -63 -1509 
L -63 -1063 
L 3263 -1063 
z
" transform="scale(0.015625)"/>
      <path id="DejaVuSans-4f" d="M 2522 4238 
Q 1834 4238 1429 3725 
Q 1025 3213 1025 2328 
Q 1025 1447 1429 934 
Q 1834 422 2522 422 
Q 3209 422 3611 934 
Q 4013 1447 4013 2328 
Q 4013 3213 3611 3725 
Q 3209 4238 2522 4238 
z
M 2522 4750 
Q 3503 4750 4090 4092 
Q 4678 3434 4678 2328 
Q 4678 1225 4090 567 
Q 3503 -91 2522 -91 
Q 1538 -91 948 565 
Q 359 1222 359 2328 
Q 359 3434 948 4092 
Q 1538 4750 2522 4750 
z
" transform="scale(0.015625)"/>
      <path id="DejaVuSans-48" d="M 628 4666 
L 1259 4666 
L 1259 2753 
L 3553 2753 
L 3553 4666 
L 4184 4666 
L 4184 0 
L 3553 0 
L 3553 2222 
L 1259 2222 
L 1259 0 
L 628 0 
L 628 4666 
z
" transform="scale(0.015625)"/>
      <path id="DejaVuSans-2f" d="M 1625 4666 
L 2156 4666 
L 531 -594 
L 0 -594 
L 1625 4666 
z
" transform="scale(0.015625)"/>
      <path id="DejaVuSans-39" d="M 703 97 
L 703 672 
Q 941 559 1184 500 
Q 1428 441 1663 441 
Q 2288 441 2617 861 
Q 2947 1281 2994 2138 
Q 2813 1869 2534 1725 
Q 2256 1581 1919 1581 
Q 1219 1581 811 2004 
Q 403 2428 403 3163 
Q 403 3881 828 4315 
Q 1253 4750 1959 4750 
Q 2769 4750 3195 4129 
Q 3622 3509 3622 2328 
Q 3622 1225 3098 567 
Q 2575 -91 1691 -91 
Q 1453 -91 1209 -44 
Q 966 3 703 97 
z
M 1959 2075 
Q 2384 2075 2632 2365 
Q 2881 2656 2881 3163 
Q 2881 3666 2632 3958 
Q 2384 4250 1959 4250 
Q 1534 4250 1286 3958 
Q 1038 3666 1038 3163 
Q 1038 2656 1286 2365 
Q 1534 2075 1959 2075 
z
" transform="scale(0.015625)"/>
     </defs>
     <use xlink:href="#DejaVuSans-55"/>
     <use xlink:href="#DejaVuSans-56" x="73.193359"/>
     <use xlink:href="#DejaVuSans-20" x="141.601562"/>
     <use xlink:href="#DejaVuSans-61" x="173.388672"/>
     <use xlink:href="#DejaVuSans-6e" x="234.667969"/>
     <use xlink:href="#DejaVuSans-64" x="298.046875"/>
     <use xlink:href="#DejaVuSans-20" x="361.523438"/>
     <use xlink:href="#DejaVuSans-4d" x="393.310547"/>
     <use xlink:href="#DejaVuSans-53" x="479.589844"/>
     <use xlink:href="#DejaVuSans-20" x="543.066406"/>
     <use xlink:href="#DejaVuSans-43" x="574.853516"/>
     <use xlink:href="#DejaVuSans-68" x="644.677734"/>
     <use xlink:href="#DejaVuSans-72" x="708.056641"/>
     <use xlink:href="#DejaVuSans-6f" x="746.919922"/>
     <use xlink:href="#DejaVuSans-6d" x="808.101562"/>
     <use xlink:href="#DejaVuSans-61" x="905.513672"/>
     <use xlink:href="#DejaVuSans-74" x="966.792969"/>
     <use xlink:href="#DejaVuSans-6f" x="1006.001953"/>
     <use xlink:href="#DejaVuSans-67" x="1067.183594"/>
     <use xlink:href="#DejaVuSans-72" x="1130.660156"/>
     <use xlink:href="#DejaVuSans-61" x="1171.773438"/>
     <use xlink:href="#DejaVuSans-6d" x="1233.052734"/>
     <use xlink:href="#DejaVuSans-73" x="1330.464844"/>
     <use xlink:href="#DejaVuSans-20" x="1382.564453"/>
     <use xlink:href="#DejaVuSans-6f" x="1414.351562"/>
     <use xlink:href="#DejaVuSans-66" x="1475.533203"/>
     <use xlink:href="#DejaVuSans-20" x="1510.738281"/>
     <use xlink:href="#DejaVuSans-52" x="1542.525391"/>
     <use xlink:href="#DejaVuSans-65" x="1607.507812"/>
     <use xlink:href="#DejaVuSans-4d" x="1669.03125"/>
     <use xlink:href="#DejaVuSans-34" x="1755.310547"/>
     <use xlink:href="#DejaVuSans-59" x="1818.933594"/>
     <use xlink:href="#DejaVuSans-31" x="1880.017578"/>
     <use xlink:href="#DejaVuSans-42" x="1943.640625"/>
     <use xlink:href="#DejaVuSans-65" x="2012.244141"/>
     <use xlink:href="#DejaVuSans-4d" x="2073.767578"/>
     <use xlink:href="#DejaVuSans-65" x="2160.046875"/>
     <use xlink:href="#DejaVuSans-49" x="2221.570312"/>
     <use xlink:href="#DejaVuSans-6d" x="2251.0625"/>
     <use xlink:href="#DejaVuSans-5f" x="2348.474609"/>
     <use xlink:href="#DejaVuSans-4d" x="2398.474609"/>
     <use xlink:href="#DejaVuSans-65" x="2484.753906"/>
     <use xlink:href="#DejaVuSans-4f" x="2546.277344"/>
     <use xlink:href="#DejaVuSans-48" x="2624.988281"/>
     <use xlink:href="#DejaVuSans-2c" x="2700.183594"/>
     <use xlink:href="#DejaVuSans-20" x="2731.970703"/>
     <use xlink:href="#DejaVuSans-74" x="2763.757812"/>
     <use xlink:href="#DejaVuSans-61" x="2802.966797"/>
     <use xlink:href="#DejaVuSans-72" x="2864.246094"/>
     <use xlink:href="#DejaVuSans-67" x="2903.609375"/>
     <use xlink:href="#DejaVuSans-65" x="2967.085938"/>
     <use xlink:href="#DejaVuSans-74" x="3028.609375"/>
     <use xlink:href="#DejaVuSans-20" x="3067.818359"/>
     <use xlink:href="#DejaVuSans-6d" x="3099.605469"/>
     <use xlink:href="#DejaVuSans-2f" x="3197.017578"/>
     <use xlink:href="#DejaVuSans-7a" x="3230.708984"/>
     <use xlink:href="#DejaVuSans-20" x="3283.199219"/>
     <use xlink:href="#DejaVuSans-3d" x="3314.986328"/>
     <use xlink:href="#DejaVuSans-20" x="3398.775391"/>
     <use xlink:href="#DejaVuSans-36" x="3430.5625"/>
     <use xlink:href="#DejaVuSans-33" x="3494.185547"/>
     <use xlink:href="#DejaVuSans-39" x="3557.808594"/>
     <use xlink:href="#DejaVuSans-2e" x="3621.431641"/>
     <use xlink:href="#DejaVuSans-31" x="3653.21875"/>
     <use xlink:href="#DejaVuSans-31" x="3716.841797"/>
    </g>
   </g>
   <g id="legend_1">
    <g id="patch_8">
     <path d="M 685.971875 64.23625 
L 846.2 64.23625 
Q 848.2 64.23625 848.2 62.23625 
L 848.2 33.88 
Q 848.2 31.88 846.2 31.88 
L 685.971875 31.88 
Q 683.971875 31.88 683.971875 33.88 
L 683.971875 62.23625 
Q 683.971875 64.23625 685.971875 64.23625 
z
" style="fill: #ffffff; opacity: 0.8; stroke: #cccccc; stroke-linejoin: miter"/>
    </g>
    <g id="line2d_17">
     <path d="M 687.971875 39.978437 
L 697.971875 39.978437 
L 707.971875 39.978437 
" style="fill: none; stroke: #0000ff; stroke-width: 1.5; stroke-linecap: square"/>
    </g>
    <g id="text_19">
     <!-- UV Intensity (normalized) -->
     <g transform="translate(715.971875 43.478437) scale(0.1 -0.1)">
      <use xlink:href="#DejaVuSans-55"/>
      <use xlink:href="#DejaVuSans-56" x="73.193359"/>
      <use xlink:href="#DejaVuSans-20" x="141.601562"/>
      <use xlink:href="#DejaVuSans-49" x="173.388672"/>
      <use xlink:href="#DejaVuSans-6e" x="202.880859"/>
      <use xlink:href="#DejaVuSans-74" x="266.259766"/>
      <use xlink:href="#DejaVuSans-65" x="305.46875"/>
      <use xlink:href="#DejaVuSans-6e" x="366.992188"/>
      <use xlink:href="#DejaVuSans-73" x="430.371094"/>
      <use xlink:href="#DejaVuSans-69" x="482.470703"/>
      <use xlink:href="#DejaVuSans-74" x="510.253906"/>
      <use xlink:href="#DejaVuSans-79" x="549.462891"/>
      <use xlink:href="#DejaVuSans-20" x="608.642578"/>
      <use xlink:href="#DejaVuSans-28" x="640.429688"/>
      <use xlink:href="#DejaVuSans-6e" x="679.443359"/>
      <use xlink:href="#DejaVuSans-6f" x="742.822266"/>
      <use xlink:href="#DejaVuSans-72" x="804.003906"/>
      <use xlink:href="#DejaVuSans-6d" x="843.367188"/>
      <use xlink:href="#DejaVuSans-61" x="940.779297"/>
      <use xlink:href="#DejaVuSans-6c" x="1002.058594"/>
      <use xlink:href="#DejaVuSans-69" x="1029.841797"/>
      <use xlink:href="#DejaVuSans-7a" x="1057.625"/>
      <use xlink:href="#DejaVuSans-65" x="1110.115234"/>
      <use xlink:href="#DejaVuSans-64" x="1171.638672"/>
      <use xlink:href="#DejaVuSans-29" x="1235.115234"/>
     </g>
    </g>
    <g id="line2d_18">
     <path d="M 687.971875 54.656562 
L 697.971875 54.656562 
L 707.971875 54.656562 
" style="fill: none; stroke: #008000; stroke-width: 1.5; stroke-linecap: square"/>
    </g>
    <g id="text_20">
     <!-- MS Intensity (normalized) -->
     <g transform="translate(715.971875 58.156562) scale(0.1 -0.1)">
      <use xlink:href="#DejaVuSans-4d"/>
      <use xlink:href="#DejaVuSans-53" x="86.279297"/>
      <use xlink:href="#DejaVuSans-20" x="149.755859"/>
      <use xlink:href="#DejaVuSans-49" x="181.542969"/>
      <use xlink:href="#DejaVuSans-6e" x="211.035156"/>
      <use xlink:href="#DejaVuSans-74" x="274.414062"/>
      <use xlink:href="#DejaVuSans-65" x="313.623047"/>
      <use xlink:href="#DejaVuSans-6e" x="375.146484"/>
      <use xlink:href="#DejaVuSans-73" x="438.525391"/>
      <use xlink:href="#DejaVuSans-69" x="490.625"/>
      <use xlink:href="#DejaVuSans-74" x="518.408203"/>
      <use xlink:href="#DejaVuSans-79" x="557.617188"/>
      <use xlink:href="#DejaVuSans-20" x="616.796875"/>
      <use xlink:href="#DejaVuSans-28" x="648.583984"/>
      <use xlink:href="#DejaVuSans-6e" x="687.597656"/>
      <use xlink:href="#DejaVuSans-6f" x="750.976562"/>
      <use xlink:href="#DejaVuSans-72" x="812.158203"/>
      <use xlink:href="#DejaVuSans-6d" x="851.521484"/>
      <use xlink:href="#DejaVuSans-61" x="948.933594"/>
      <use xlink:href="#DejaVuSans-6c" x="1010.212891"/>
      <use xlink:href="#DejaVuSans-69" x="1037.996094"/>
      <use xlink:href="#DejaVuSans-7a" x="1065.779297"/>
      <use xlink:href="#DejaVuSans-65" x="1118.269531"/>
      <use xlink:href="#DejaVuSans-64" x="1179.792969"/>
      <use xlink:href="#DejaVuSans-29" x="1243.269531"/>
     </g>
    </g>
   </g>
  </g>
 </g>
 <defs>
  <clipPath id="p9e929e47df">
   <rect x="47.72" y="26.88" width="805.48" height="507.16"/>
  </clipPath>
 </defs>
</svg>
