<?xml version="1.0" encoding="utf-8" standalone="no"?>
<!DOCTYPE svg PUBLIC "-//W3C//DTD SVG 1.1//EN"
  "http://www.w3.org/Graphics/SVG/1.1/DTD/svg11.dtd">
<svg xmlns:xlink="http://www.w3.org/1999/xlink" width="864pt" height="576pt" viewBox="0 0 864 576" xmlns="http://www.w3.org/2000/svg" version="1.1">
 <metadata>
  <rdf:RDF xmlns:dc="http://purl.org/dc/elements/1.1/" xmlns:cc="http://creativecommons.org/ns#" xmlns:rdf="http://www.w3.org/1999/02/22-rdf-syntax-ns#">
   <cc:Work>
    <dc:type rdf:resource="http://purl.org/dc/dcmitype/StillImage"/>
    <dc:date>2024-12-09T14:40:06.381555</dc:date>
    <dc:format>image/svg+xml</dc:format>
    <dc:creator>
     <cc:Agent>
      <dc:title>Matplotlib v3.9.0, https://matplotlib.org/</dc:title>
     </cc:Agent>
    </dc:creator>
   </cc:Work>
  </rdf:RDF>
 </metadata>
 <defs>
  <style type="text/css">*{stroke-linejoin: round; stroke-linecap: butt}</style>
 </defs>
 <g id="figure_1">
  <g id="patch_1">
   <path d="M 0 576 
L 864 576 
L 864 0 
L 0 0 
z
" style="fill: #ffffff"/>
  </g>
  <g id="axes_1">
   <g id="patch_2">
    <path d="M 47.72 534.04 
L 853.2 534.04 
L 853.2 26.88 
L 47.72 26.88 
z
" style="fill: #ffffff"/>
   </g>
   <g id="matplotlib.axis_1">
    <g id="xtick_1">
     <g id="line2d_1">
      <defs>
       <path id="m2465225947" d="M 0 0 
L 0 3.5 
" style="stroke: #000000; stroke-width: 0.8"/>
      </defs>
      <g>
       <use xlink:href="#m2465225947" x="83.449483" y="534.04" style="stroke: #000000; stroke-width: 0.8"/>
      </g>
     </g>
     <g id="text_1">
      <!-- 0 -->
      <g transform="translate(80.268233 548.638438) scale(0.1 -0.1)">
       <defs>
        <path id="DejaVuSans-30" d="M 2034 4250 
Q 1547 4250 1301 3770 
Q 1056 3291 1056 2328 
Q 1056 1369 1301 889 
Q 1547 409 2034 409 
Q 2525 409 2770 889 
Q 3016 1369 3016 2328 
Q 3016 3291 2770 3770 
Q 2525 4250 2034 4250 
z
M 2034 4750 
Q 2819 4750 3233 4129 
Q 3647 3509 3647 2328 
Q 3647 1150 3233 529 
Q 2819 -91 2034 -91 
Q 1250 -91 836 529 
Q 422 1150 422 2328 
Q 422 3509 836 4129 
Q 1250 4750 2034 4750 
z
" transform="scale(0.015625)"/>
       </defs>
       <use xlink:href="#DejaVuSans-30"/>
      </g>
     </g>
    </g>
    <g id="xtick_2">
     <g id="line2d_2">
      <g>
       <use xlink:href="#m2465225947" x="188.181957" y="534.04" style="stroke: #000000; stroke-width: 0.8"/>
      </g>
     </g>
     <g id="text_2">
      <!-- 1 -->
      <g transform="translate(185.000707 548.638438) scale(0.1 -0.1)">
       <defs>
        <path id="DejaVuSans-31" d="M 794 531 
L 1825 531 
L 1825 4091 
L 703 3866 
L 703 4441 
L 1819 4666 
L 2450 4666 
L 2450 531 
L 3481 531 
L 3481 0 
L 794 0 
L 794 531 
z
" transform="scale(0.015625)"/>
       </defs>
       <use xlink:href="#DejaVuSans-31"/>
      </g>
     </g>
    </g>
    <g id="xtick_3">
     <g id="line2d_3">
      <g>
       <use xlink:href="#m2465225947" x="292.914431" y="534.04" style="stroke: #000000; stroke-width: 0.8"/>
      </g>
     </g>
     <g id="text_3">
      <!-- 2 -->
      <g transform="translate(289.733181 548.638438) scale(0.1 -0.1)">
       <defs>
        <path id="DejaVuSans-32" d="M 1228 531 
L 3431 531 
L 3431 0 
L 469 0 
L 469 531 
Q 828 903 1448 1529 
Q 2069 2156 2228 2338 
Q 2531 2678 2651 2914 
Q 2772 3150 2772 3378 
Q 2772 3750 2511 3984 
Q 2250 4219 1831 4219 
Q 1534 4219 1204 4116 
Q 875 4013 500 3803 
L 500 4441 
Q 881 4594 1212 4672 
Q 1544 4750 1819 4750 
Q 2544 4750 2975 4387 
Q 3406 4025 3406 3419 
Q 3406 3131 3298 2873 
Q 3191 2616 2906 2266 
Q 2828 2175 2409 1742 
Q 1991 1309 1228 531 
z
" transform="scale(0.015625)"/>
       </defs>
       <use xlink:href="#DejaVuSans-32"/>
      </g>
     </g>
    </g>
    <g id="xtick_4">
     <g id="line2d_4">
      <g>
       <use xlink:href="#m2465225947" x="397.646905" y="534.04" style="stroke: #000000; stroke-width: 0.8"/>
      </g>
     </g>
     <g id="text_4">
      <!-- 3 -->
      <g transform="translate(394.465655 548.638438) scale(0.1 -0.1)">
       <defs>
        <path id="DejaVuSans-33" d="M 2597 2516 
Q 3050 2419 3304 2112 
Q 3559 1806 3559 1356 
Q 3559 666 3084 287 
Q 2609 -91 1734 -91 
Q 1441 -91 1130 -33 
Q 819 25 488 141 
L 488 750 
Q 750 597 1062 519 
Q 1375 441 1716 441 
Q 2309 441 2620 675 
Q 2931 909 2931 1356 
Q 2931 1769 2642 2001 
Q 2353 2234 1838 2234 
L 1294 2234 
L 1294 2753 
L 1863 2753 
Q 2328 2753 2575 2939 
Q 2822 3125 2822 3475 
Q 2822 3834 2567 4026 
Q 2313 4219 1838 4219 
Q 1578 4219 1281 4162 
Q 984 4106 628 3988 
L 628 4550 
Q 988 4650 1302 4700 
Q 1616 4750 1894 4750 
Q 2613 4750 3031 4423 
Q 3450 4097 3450 3541 
Q 3450 3153 3228 2886 
Q 3006 2619 2597 2516 
z
" transform="scale(0.015625)"/>
       </defs>
       <use xlink:href="#DejaVuSans-33"/>
      </g>
     </g>
    </g>
    <g id="xtick_5">
     <g id="line2d_5">
      <g>
       <use xlink:href="#m2465225947" x="502.379378" y="534.04" style="stroke: #000000; stroke-width: 0.8"/>
      </g>
     </g>
     <g id="text_5">
      <!-- 4 -->
      <g transform="translate(499.198128 548.638438) scale(0.1 -0.1)">
       <defs>
        <path id="DejaVuSans-34" d="M 2419 4116 
L 825 1625 
L 2419 1625 
L 2419 4116 
z
M 2253 4666 
L 3047 4666 
L 3047 1625 
L 3713 1625 
L 3713 1100 
L 3047 1100 
L 3047 0 
L 2419 0 
L 2419 1100 
L 313 1100 
L 313 1709 
L 2253 4666 
z
" transform="scale(0.015625)"/>
       </defs>
       <use xlink:href="#DejaVuSans-34"/>
      </g>
     </g>
    </g>
    <g id="xtick_6">
     <g id="line2d_6">
      <g>
       <use xlink:href="#m2465225947" x="607.111852" y="534.04" style="stroke: #000000; stroke-width: 0.8"/>
      </g>
     </g>
     <g id="text_6">
      <!-- 5 -->
      <g transform="translate(603.930602 548.638438) scale(0.1 -0.1)">
       <defs>
        <path id="DejaVuSans-35" d="M 691 4666 
L 3169 4666 
L 3169 4134 
L 1269 4134 
L 1269 2991 
Q 1406 3038 1543 3061 
Q 1681 3084 1819 3084 
Q 2600 3084 3056 2656 
Q 3513 2228 3513 1497 
Q 3513 744 3044 326 
Q 2575 -91 1722 -91 
Q 1428 -91 1123 -41 
Q 819 9 494 109 
L 494 744 
Q 775 591 1075 516 
Q 1375 441 1709 441 
Q 2250 441 2565 725 
Q 2881 1009 2881 1497 
Q 2881 1984 2565 2268 
Q 2250 2553 1709 2553 
Q 1456 2553 1204 2497 
Q 953 2441 691 2322 
L 691 4666 
z
" transform="scale(0.015625)"/>
       </defs>
       <use xlink:href="#DejaVuSans-35"/>
      </g>
     </g>
    </g>
    <g id="xtick_7">
     <g id="line2d_7">
      <g>
       <use xlink:href="#m2465225947" x="711.844326" y="534.04" style="stroke: #000000; stroke-width: 0.8"/>
      </g>
     </g>
     <g id="text_7">
      <!-- 6 -->
      <g transform="translate(708.663076 548.638438) scale(0.1 -0.1)">
       <defs>
        <path id="DejaVuSans-36" d="M 2113 2584 
Q 1688 2584 1439 2293 
Q 1191 2003 1191 1497 
Q 1191 994 1439 701 
Q 1688 409 2113 409 
Q 2538 409 2786 701 
Q 3034 994 3034 1497 
Q 3034 2003 2786 2293 
Q 2538 2584 2113 2584 
z
M 3366 4563 
L 3366 3988 
Q 3128 4100 2886 4159 
Q 2644 4219 2406 4219 
Q 1781 4219 1451 3797 
Q 1122 3375 1075 2522 
Q 1259 2794 1537 2939 
Q 1816 3084 2150 3084 
Q 2853 3084 3261 2657 
Q 3669 2231 3669 1497 
Q 3669 778 3244 343 
Q 2819 -91 2113 -91 
Q 1303 -91 875 529 
Q 447 1150 447 2328 
Q 447 3434 972 4092 
Q 1497 4750 2381 4750 
Q 2619 4750 2861 4703 
Q 3103 4656 3366 4563 
z
" transform="scale(0.015625)"/>
       </defs>
       <use xlink:href="#DejaVuSans-36"/>
      </g>
     </g>
    </g>
    <g id="xtick_8">
     <g id="line2d_8">
      <g>
       <use xlink:href="#m2465225947" x="816.576799" y="534.04" style="stroke: #000000; stroke-width: 0.8"/>
      </g>
     </g>
     <g id="text_8">
      <!-- 7 -->
      <g transform="translate(813.395549 548.638438) scale(0.1 -0.1)">
       <defs>
        <path id="DejaVuSans-37" d="M 525 4666 
L 3525 4666 
L 3525 4397 
L 1831 0 
L 1172 0 
L 2766 4134 
L 525 4134 
L 525 4666 
z
" transform="scale(0.015625)"/>
       </defs>
       <use xlink:href="#DejaVuSans-37"/>
      </g>
     </g>
    </g>
    <g id="text_9">
     <!-- Retention Time (min) -->
     <g transform="translate(397.61 562.316562) scale(0.1 -0.1)">
      <defs>
       <path id="DejaVuSans-52" d="M 2841 2188 
Q 3044 2119 3236 1894 
Q 3428 1669 3622 1275 
L 4263 0 
L 3584 0 
L 2988 1197 
Q 2756 1666 2539 1819 
Q 2322 1972 1947 1972 
L 1259 1972 
L 1259 0 
L 628 0 
L 628 4666 
L 2053 4666 
Q 2853 4666 3247 4331 
Q 3641 3997 3641 3322 
Q 3641 2881 3436 2590 
Q 3231 2300 2841 2188 
z
M 1259 4147 
L 1259 2491 
L 2053 2491 
Q 2509 2491 2742 2702 
Q 2975 2913 2975 3322 
Q 2975 3731 2742 3939 
Q 2509 4147 2053 4147 
L 1259 4147 
z
" transform="scale(0.015625)"/>
       <path id="DejaVuSans-65" d="M 3597 1894 
L 3597 1613 
L 953 1613 
Q 991 1019 1311 708 
Q 1631 397 2203 397 
Q 2534 397 2845 478 
Q 3156 559 3463 722 
L 3463 178 
Q 3153 47 2828 -22 
Q 2503 -91 2169 -91 
Q 1331 -91 842 396 
Q 353 884 353 1716 
Q 353 2575 817 3079 
Q 1281 3584 2069 3584 
Q 2775 3584 3186 3129 
Q 3597 2675 3597 1894 
z
M 3022 2063 
Q 3016 2534 2758 2815 
Q 2500 3097 2075 3097 
Q 1594 3097 1305 2825 
Q 1016 2553 972 2059 
L 3022 2063 
z
" transform="scale(0.015625)"/>
       <path id="DejaVuSans-74" d="M 1172 4494 
L 1172 3500 
L 2356 3500 
L 2356 3053 
L 1172 3053 
L 1172 1153 
Q 1172 725 1289 603 
Q 1406 481 1766 481 
L 2356 481 
L 2356 0 
L 1766 0 
Q 1100 0 847 248 
Q 594 497 594 1153 
L 594 3053 
L 172 3053 
L 172 3500 
L 594 3500 
L 594 4494 
L 1172 4494 
z
" transform="scale(0.015625)"/>
       <path id="DejaVuSans-6e" d="M 3513 2113 
L 3513 0 
L 2938 0 
L 2938 2094 
Q 2938 2591 2744 2837 
Q 2550 3084 2163 3084 
Q 1697 3084 1428 2787 
Q 1159 2491 1159 1978 
L 1159 0 
L 581 0 
L 581 3500 
L 1159 3500 
L 1159 2956 
Q 1366 3272 1645 3428 
Q 1925 3584 2291 3584 
Q 2894 3584 3203 3211 
Q 3513 2838 3513 2113 
z
" transform="scale(0.015625)"/>
       <path id="DejaVuSans-69" d="M 603 3500 
L 1178 3500 
L 1178 0 
L 603 0 
L 603 3500 
z
M 603 4863 
L 1178 4863 
L 1178 4134 
L 603 4134 
L 603 4863 
z
" transform="scale(0.015625)"/>
       <path id="DejaVuSans-6f" d="M 1959 3097 
Q 1497 3097 1228 2736 
Q 959 2375 959 1747 
Q 959 1119 1226 758 
Q 1494 397 1959 397 
Q 2419 397 2687 759 
Q 2956 1122 2956 1747 
Q 2956 2369 2687 2733 
Q 2419 3097 1959 3097 
z
M 1959 3584 
Q 2709 3584 3137 3096 
Q 3566 2609 3566 1747 
Q 3566 888 3137 398 
Q 2709 -91 1959 -91 
Q 1206 -91 779 398 
Q 353 888 353 1747 
Q 353 2609 779 3096 
Q 1206 3584 1959 3584 
z
" transform="scale(0.015625)"/>
       <path id="DejaVuSans-20" transform="scale(0.015625)"/>
       <path id="DejaVuSans-54" d="M -19 4666 
L 3928 4666 
L 3928 4134 
L 2272 4134 
L 2272 0 
L 1638 0 
L 1638 4134 
L -19 4134 
L -19 4666 
z
" transform="scale(0.015625)"/>
       <path id="DejaVuSans-6d" d="M 3328 2828 
Q 3544 3216 3844 3400 
Q 4144 3584 4550 3584 
Q 5097 3584 5394 3201 
Q 5691 2819 5691 2113 
L 5691 0 
L 5113 0 
L 5113 2094 
Q 5113 2597 4934 2840 
Q 4756 3084 4391 3084 
Q 3944 3084 3684 2787 
Q 3425 2491 3425 1978 
L 3425 0 
L 2847 0 
L 2847 2094 
Q 2847 2600 2669 2842 
Q 2491 3084 2119 3084 
Q 1678 3084 1418 2786 
Q 1159 2488 1159 1978 
L 1159 0 
L 581 0 
L 581 3500 
L 1159 3500 
L 1159 2956 
Q 1356 3278 1631 3431 
Q 1906 3584 2284 3584 
Q 2666 3584 2933 3390 
Q 3200 3197 3328 2828 
z
" transform="scale(0.015625)"/>
       <path id="DejaVuSans-28" d="M 1984 4856 
Q 1566 4138 1362 3434 
Q 1159 2731 1159 2009 
Q 1159 1288 1364 580 
Q 1569 -128 1984 -844 
L 1484 -844 
Q 1016 -109 783 600 
Q 550 1309 550 2009 
Q 550 2706 781 3412 
Q 1013 4119 1484 4856 
L 1984 4856 
z
" transform="scale(0.015625)"/>
       <path id="DejaVuSans-29" d="M 513 4856 
L 1013 4856 
Q 1481 4119 1714 3412 
Q 1947 2706 1947 2009 
Q 1947 1309 1714 600 
Q 1481 -109 1013 -844 
L 513 -844 
Q 928 -128 1133 580 
Q 1338 1288 1338 2009 
Q 1338 2731 1133 3434 
Q 928 4138 513 4856 
z
" transform="scale(0.015625)"/>
      </defs>
      <use xlink:href="#DejaVuSans-52"/>
      <use xlink:href="#DejaVuSans-65" x="64.982422"/>
      <use xlink:href="#DejaVuSans-74" x="126.505859"/>
      <use xlink:href="#DejaVuSans-65" x="165.714844"/>
      <use xlink:href="#DejaVuSans-6e" x="227.238281"/>
      <use xlink:href="#DejaVuSans-74" x="290.617188"/>
      <use xlink:href="#DejaVuSans-69" x="329.826172"/>
      <use xlink:href="#DejaVuSans-6f" x="357.609375"/>
      <use xlink:href="#DejaVuSans-6e" x="418.791016"/>
      <use xlink:href="#DejaVuSans-20" x="482.169922"/>
      <use xlink:href="#DejaVuSans-54" x="513.957031"/>
      <use xlink:href="#DejaVuSans-69" x="571.916016"/>
      <use xlink:href="#DejaVuSans-6d" x="599.699219"/>
      <use xlink:href="#DejaVuSans-65" x="697.111328"/>
      <use xlink:href="#DejaVuSans-20" x="758.634766"/>
      <use xlink:href="#DejaVuSans-28" x="790.421875"/>
      <use xlink:href="#DejaVuSans-6d" x="829.435547"/>
      <use xlink:href="#DejaVuSans-69" x="926.847656"/>
      <use xlink:href="#DejaVuSans-6e" x="954.630859"/>
      <use xlink:href="#DejaVuSans-29" x="1018.009766"/>
     </g>
    </g>
   </g>
   <g id="matplotlib.axis_2">
    <g id="ytick_1">
     <g id="line2d_9">
      <defs>
       <path id="ma80a455df1" d="M 0 0 
L -3.5 0 
" style="stroke: #000000; stroke-width: 0.8"/>
      </defs>
      <g>
       <use xlink:href="#ma80a455df1" x="47.72" y="508.000915" style="stroke: #000000; stroke-width: 0.8"/>
      </g>
     </g>
     <g id="text_10">
      <!-- 0.0 -->
      <g style="fill: #0000ff" transform="translate(24.816875 511.800134) scale(0.1 -0.1)">
       <defs>
        <path id="DejaVuSans-2e" d="M 684 794 
L 1344 794 
L 1344 0 
L 684 0 
L 684 794 
z
" transform="scale(0.015625)"/>
       </defs>
       <use xlink:href="#DejaVuSans-30"/>
       <use xlink:href="#DejaVuSans-2e" x="63.623047"/>
       <use xlink:href="#DejaVuSans-30" x="95.410156"/>
      </g>
     </g>
    </g>
    <g id="ytick_2">
     <g id="line2d_10">
      <g>
       <use xlink:href="#ma80a455df1" x="47.72" y="416.387278" style="stroke: #000000; stroke-width: 0.8"/>
      </g>
     </g>
     <g id="text_11">
      <!-- 0.5 -->
      <g style="fill: #0000ff" transform="translate(24.816875 420.186496) scale(0.1 -0.1)">
       <use xlink:href="#DejaVuSans-30"/>
       <use xlink:href="#DejaVuSans-2e" x="63.623047"/>
       <use xlink:href="#DejaVuSans-35" x="95.410156"/>
      </g>
     </g>
    </g>
    <g id="ytick_3">
     <g id="line2d_11">
      <g>
       <use xlink:href="#ma80a455df1" x="47.72" y="324.77364" style="stroke: #000000; stroke-width: 0.8"/>
      </g>
     </g>
     <g id="text_12">
      <!-- 1.0 -->
      <g style="fill: #0000ff" transform="translate(24.816875 328.572859) scale(0.1 -0.1)">
       <use xlink:href="#DejaVuSans-31"/>
       <use xlink:href="#DejaVuSans-2e" x="63.623047"/>
       <use xlink:href="#DejaVuSans-30" x="95.410156"/>
      </g>
     </g>
    </g>
    <g id="ytick_4">
     <g id="line2d_12">
      <g>
       <use xlink:href="#ma80a455df1" x="47.72" y="233.160002" style="stroke: #000000; stroke-width: 0.8"/>
      </g>
     </g>
     <g id="text_13">
      <!-- 1.5 -->
      <g style="fill: #0000ff" transform="translate(24.816875 236.959221) scale(0.1 -0.1)">
       <use xlink:href="#DejaVuSans-31"/>
       <use xlink:href="#DejaVuSans-2e" x="63.623047"/>
       <use xlink:href="#DejaVuSans-35" x="95.410156"/>
      </g>
     </g>
    </g>
    <g id="ytick_5">
     <g id="line2d_13">
      <g>
       <use xlink:href="#ma80a455df1" x="47.72" y="141.546365" style="stroke: #000000; stroke-width: 0.8"/>
      </g>
     </g>
     <g id="text_14">
      <!-- 2.0 -->
      <g style="fill: #0000ff" transform="translate(24.816875 145.345584) scale(0.1 -0.1)">
       <use xlink:href="#DejaVuSans-32"/>
       <use xlink:href="#DejaVuSans-2e" x="63.623047"/>
       <use xlink:href="#DejaVuSans-30" x="95.410156"/>
      </g>
     </g>
    </g>
    <g id="ytick_6">
     <g id="line2d_14">
      <g>
       <use xlink:href="#ma80a455df1" x="47.72" y="49.932727" style="stroke: #000000; stroke-width: 0.8"/>
      </g>
     </g>
     <g id="text_15">
      <!-- 2.5 -->
      <g style="fill: #0000ff" transform="translate(24.816875 53.731946) scale(0.1 -0.1)">
       <use xlink:href="#DejaVuSans-32"/>
       <use xlink:href="#DejaVuSans-2e" x="63.623047"/>
       <use xlink:href="#DejaVuSans-35" x="95.410156"/>
      </g>
     </g>
    </g>
    <g id="text_16">
     <!-- Normalized Intensity -->
     <g style="fill: #0000ff" transform="translate(18.737187 332.167031) rotate(-90) scale(0.1 -0.1)">
      <defs>
       <path id="DejaVuSans-4e" d="M 628 4666 
L 1478 4666 
L 3547 763 
L 3547 4666 
L 4159 4666 
L 4159 0 
L 3309 0 
L 1241 3903 
L 1241 0 
L 628 0 
L 628 4666 
z
" transform="scale(0.015625)"/>
       <path id="DejaVuSans-72" d="M 2631 2963 
Q 2534 3019 2420 3045 
Q 2306 3072 2169 3072 
Q 1681 3072 1420 2755 
Q 1159 2438 1159 1844 
L 1159 0 
L 581 0 
L 581 3500 
L 1159 3500 
L 1159 2956 
Q 1341 3275 1631 3429 
Q 1922 3584 2338 3584 
Q 2397 3584 2469 3576 
Q 2541 3569 2628 3553 
L 2631 2963 
z
" transform="scale(0.015625)"/>
       <path id="DejaVuSans-61" d="M 2194 1759 
Q 1497 1759 1228 1600 
Q 959 1441 959 1056 
Q 959 750 1161 570 
Q 1363 391 1709 391 
Q 2188 391 2477 730 
Q 2766 1069 2766 1631 
L 2766 1759 
L 2194 1759 
z
M 3341 1997 
L 3341 0 
L 2766 0 
L 2766 531 
Q 2569 213 2275 61 
Q 1981 -91 1556 -91 
Q 1019 -91 701 211 
Q 384 513 384 1019 
Q 384 1609 779 1909 
Q 1175 2209 1959 2209 
L 2766 2209 
L 2766 2266 
Q 2766 2663 2505 2880 
Q 2244 3097 1772 3097 
Q 1472 3097 1187 3025 
Q 903 2953 641 2809 
L 641 3341 
Q 956 3463 1253 3523 
Q 1550 3584 1831 3584 
Q 2591 3584 2966 3190 
Q 3341 2797 3341 1997 
z
" transform="scale(0.015625)"/>
       <path id="DejaVuSans-6c" d="M 603 4863 
L 1178 4863 
L 1178 0 
L 603 0 
L 603 4863 
z
" transform="scale(0.015625)"/>
       <path id="DejaVuSans-7a" d="M 353 3500 
L 3084 3500 
L 3084 2975 
L 922 459 
L 3084 459 
L 3084 0 
L 275 0 
L 275 525 
L 2438 3041 
L 353 3041 
L 353 3500 
z
" transform="scale(0.015625)"/>
       <path id="DejaVuSans-64" d="M 2906 2969 
L 2906 4863 
L 3481 4863 
L 3481 0 
L 2906 0 
L 2906 525 
Q 2725 213 2448 61 
Q 2172 -91 1784 -91 
Q 1150 -91 751 415 
Q 353 922 353 1747 
Q 353 2572 751 3078 
Q 1150 3584 1784 3584 
Q 2172 3584 2448 3432 
Q 2725 3281 2906 2969 
z
M 947 1747 
Q 947 1113 1208 752 
Q 1469 391 1925 391 
Q 2381 391 2643 752 
Q 2906 1113 2906 1747 
Q 2906 2381 2643 2742 
Q 2381 3103 1925 3103 
Q 1469 3103 1208 2742 
Q 947 2381 947 1747 
z
" transform="scale(0.015625)"/>
       <path id="DejaVuSans-49" d="M 628 4666 
L 1259 4666 
L 1259 0 
L 628 0 
L 628 4666 
z
" transform="scale(0.015625)"/>
       <path id="DejaVuSans-73" d="M 2834 3397 
L 2834 2853 
Q 2591 2978 2328 3040 
Q 2066 3103 1784 3103 
Q 1356 3103 1142 2972 
Q 928 2841 928 2578 
Q 928 2378 1081 2264 
Q 1234 2150 1697 2047 
L 1894 2003 
Q 2506 1872 2764 1633 
Q 3022 1394 3022 966 
Q 3022 478 2636 193 
Q 2250 -91 1575 -91 
Q 1294 -91 989 -36 
Q 684 19 347 128 
L 347 722 
Q 666 556 975 473 
Q 1284 391 1588 391 
Q 1994 391 2212 530 
Q 2431 669 2431 922 
Q 2431 1156 2273 1281 
Q 2116 1406 1581 1522 
L 1381 1569 
Q 847 1681 609 1914 
Q 372 2147 372 2553 
Q 372 3047 722 3315 
Q 1072 3584 1716 3584 
Q 2034 3584 2315 3537 
Q 2597 3491 2834 3397 
z
" transform="scale(0.015625)"/>
       <path id="DejaVuSans-79" d="M 2059 -325 
Q 1816 -950 1584 -1140 
Q 1353 -1331 966 -1331 
L 506 -1331 
L 506 -850 
L 844 -850 
Q 1081 -850 1212 -737 
Q 1344 -625 1503 -206 
L 1606 56 
L 191 3500 
L 800 3500 
L 1894 763 
L 2988 3500 
L 3597 3500 
L 2059 -325 
z
" transform="scale(0.015625)"/>
      </defs>
      <use xlink:href="#DejaVuSans-4e"/>
      <use xlink:href="#DejaVuSans-6f" x="74.804688"/>
      <use xlink:href="#DejaVuSans-72" x="135.986328"/>
      <use xlink:href="#DejaVuSans-6d" x="175.349609"/>
      <use xlink:href="#DejaVuSans-61" x="272.761719"/>
      <use xlink:href="#DejaVuSans-6c" x="334.041016"/>
      <use xlink:href="#DejaVuSans-69" x="361.824219"/>
      <use xlink:href="#DejaVuSans-7a" x="389.607422"/>
      <use xlink:href="#DejaVuSans-65" x="442.097656"/>
      <use xlink:href="#DejaVuSans-64" x="503.621094"/>
      <use xlink:href="#DejaVuSans-20" x="567.097656"/>
      <use xlink:href="#DejaVuSans-49" x="598.884766"/>
      <use xlink:href="#DejaVuSans-6e" x="628.376953"/>
      <use xlink:href="#DejaVuSans-74" x="691.755859"/>
      <use xlink:href="#DejaVuSans-65" x="730.964844"/>
      <use xlink:href="#DejaVuSans-6e" x="792.488281"/>
      <use xlink:href="#DejaVuSans-73" x="855.867188"/>
      <use xlink:href="#DejaVuSans-69" x="907.966797"/>
      <use xlink:href="#DejaVuSans-74" x="935.75"/>
      <use xlink:href="#DejaVuSans-79" x="974.958984"/>
     </g>
    </g>
   </g>
   <g id="line2d_15">
    <path d="M 84.332727 508.000915 
L 88.69658 507.921794 
L 101.78814 507.149929 
L 105.279222 507.210787 
L 113.134158 507.547854 
L 121.861864 507.523066 
L 127.098487 507.357647 
L 127.971258 507.154195 
L 128.844029 506.737252 
L 130.58957 505.540536 
L 131.46234 505.160692 
L 132.335111 505.098031 
L 133.207882 505.308163 
L 134.953423 506.108166 
L 137.571735 507.351799 
L 138.444505 507.380454 
L 139.317276 506.94016 
L 140.190047 506.00471 
L 141.935588 503.205308 
L 142.808358 501.821673 
L 143.681129 500.823991 
L 144.5539 500.442271 
L 145.42667 500.743889 
L 147.172212 502.530654 
L 148.044982 502.929863 
L 148.917753 501.942215 
L 149.790523 499.352302 
L 150.663294 496.160436 
L 151.536065 493.985723 
L 152.408835 493.808807 
L 153.281606 495.450084 
L 155.899918 503.246419 
L 156.772688 505.303919 
L 157.645459 507.03297 
L 158.518229 508.502883 
L 159.391 509.708954 
L 160.263771 510.570606 
L 161.136541 510.987273 
L 162.009312 510.908648 
L 162.882083 510.378554 
L 164.627624 508.565633 
L 165.500394 507.660635 
L 166.373165 506.954786 
L 167.245936 506.50252 
L 168.118706 506.278752 
L 169.864247 506.222337 
L 174.228101 506.281996 
L 180.337495 506.226557 
L 194.301825 506.677743 
L 199.538448 506.581123 
L 215.248319 506.027331 
L 217.866631 505.700806 
L 220.484943 505.114152 
L 223.103255 504.509747 
L 224.848796 504.328388 
L 231.830961 503.973065 
L 237.940355 503.139229 
L 243.176979 501.902182 
L 244.04975 501.505886 
L 244.92252 500.812895 
L 247.540832 497.642138 
L 248.413603 497.292951 
L 249.286373 497.53899 
L 251.904685 499.302295 
L 252.777456 499.006662 
L 253.650226 497.547445 
L 255.395768 492.688912 
L 256.268538 491.428904 
L 257.141309 491.82929 
L 258.01408 493.548393 
L 259.759621 497.926886 
L 260.632391 499.484018 
L 261.505162 500.391895 
L 262.377933 500.758115 
L 264.123474 500.739156 
L 267.614556 500.607633 
L 268.487327 500.175974 
L 270.232868 499.146465 
L 271.105639 499.035388 
L 271.978409 499.340711 
L 272.85118 499.966107 
L 274.596721 501.47085 
L 275.469492 502.061993 
L 276.342262 502.457695 
L 277.215033 502.659101 
L 278.960574 502.64511 
L 280.706116 502.564815 
L 285.942739 502.889649 
L 287.68828 503.057296 
L 290.306592 503.528346 
L 291.179363 503.512152 
L 292.052133 503.339251 
L 292.924904 503.024914 
L 294.670445 502.067256 
L 295.543216 501.539006 
L 296.415987 501.154224 
L 297.288757 501.039603 
L 298.161528 501.214267 
L 301.65261 502.720054 
L 302.525381 502.834309 
L 305.143693 502.916833 
L 306.889234 503.405233 
L 308.634775 503.847178 
L 310.380316 503.933287 
L 313.871399 503.867846 
L 316.489711 503.749809 
L 318.235252 503.892964 
L 320.853564 504.149113 
L 321.726334 504.070112 
L 322.599105 503.868263 
L 323.471876 503.541097 
L 324.344646 503.013812 
L 325.217417 502.149332 
L 326.962958 499.756919 
L 327.835729 499.064008 
L 328.708499 499.178595 
L 329.58127 500.012132 
L 331.326811 502.416773 
L 332.199582 503.397815 
L 333.072352 504.087404 
L 333.945123 504.509163 
L 334.817894 504.709957 
L 335.690664 504.711668 
L 336.563435 504.50852 
L 339.181747 503.446558 
L 340.054517 503.436531 
L 340.927288 503.677395 
L 343.5456 504.847698 
L 344.41837 505.074149 
L 346.163912 505.153884 
L 347.036682 504.998101 
L 347.909453 503.613047 
L 348.782223 496.347009 
L 349.654994 474.745353 
L 350.527765 434.078648 
L 351.400535 382.908308 
L 352.273306 340.913833 
L 353.146076 324.77364 
L 354.018847 337.163294 
L 354.891618 368.192498 
L 355.764388 404.296308 
L 356.637159 435.619111 
L 357.50993 458.191838 
L 358.3827 472.393949 
L 359.255471 480.538935 
L 360.128241 485.195483 
L 361.001012 488.358717 
L 362.746553 493.526899 
L 363.619324 495.179768 
L 364.492094 495.67123 
L 366.237636 494.74842 
L 367.110406 494.902303 
L 367.983177 495.929021 
L 370.601489 500.835011 
L 371.474259 502.05028 
L 372.34703 502.943975 
L 373.219801 503.601567 
L 374.965342 504.522132 
L 376.710883 505.126641 
L 378.456424 505.486252 
L 381.074736 505.823556 
L 383.693048 505.89608 
L 386.31136 505.983297 
L 391.547984 506.19036 
L 395.039066 506.347395 
L 397.657378 506.520402 
L 398.530148 506.411992 
L 401.14846 505.790154 
L 402.021231 505.850688 
L 406.385084 506.908296 
L 415.985561 507.001248 
L 420.349414 507.090595 
L 424.713267 507.119291 
L 425.586037 506.990772 
L 426.458808 506.636131 
L 427.331579 505.988234 
L 429.07712 504.360567 
L 429.949891 503.916252 
L 430.822661 503.926013 
L 431.695432 504.312732 
L 434.313744 506.0339 
L 436.059285 506.718728 
L 437.804826 507.039574 
L 441.295909 507.308272 
L 446.532532 507.409875 
L 450.023615 507.302344 
L 452.641927 507.197368 
L 473.588421 507.535393 
L 500.64431 507.541107 
L 508.499246 507.452913 
L 511.117558 507.437134 
L 516.354181 507.591187 
L 532.936823 507.489283 
L 544.282841 507.533223 
L 634.178214 507.541273 
L 676.071204 507.548879 
L 700.508781 507.549064 
L 734.546835 507.436844 
L 743.274541 507.436633 
L 761.602724 507.616462 
L 785.167531 507.543435 
L 816.587273 507.543815 
L 816.587273 507.543815 
" clip-path="url(#pa0329d701a)" style="fill: none; stroke: #0000ff; stroke-width: 1.5; stroke-linecap: square"/>
   </g>
   <g id="line2d_16">
    <path d="M 87.301369 233.134005 
L 122.012155 233.154534 
L 134.909261 233.067277 
L 136.94526 232.958033 
L 136.94526 232.98549 
L 139.511555 232.9423 
L 139.511555 232.97907 
L 140.276102 233.006005 
L 142.835414 233.133978 
L 150.744287 233.067403 
L 150.744287 233.044942 
L 151.219947 232.866173 
L 151.933001 232.574375 
L 152.413024 232.443769 
L 152.413024 232.326037 
L 153.366963 232.188322 
L 153.366963 232.264924 
L 153.604705 232.279679 
L 153.604705 232.191689 
L 154.079318 232.0268 
L 154.079318 231.972648 
L 154.554454 232.173528 
L 155.269079 232.531102 
L 155.269079 232.456491 
L 155.985798 232.455859 
L 155.985798 232.497339 
L 155.985798 232.549619 
L 156.698852 232.536974 
L 156.698852 232.552559 
L 159.803297 232.927537 
L 159.803297 232.915625 
L 162.906869 233.10203 
L 162.906869 233.101913 
L 253.58023 232.978604 
L 253.58023 232.965544 
L 260.325874 232.893602 
L 262.580939 232.993657 
L 262.580939 232.9736 
L 268.146074 233.053118 
L 268.146074 233.052444 
L 274.95927 233.106156 
L 274.95927 233.098619 
L 282.309221 233.044255 
L 282.309221 233.052206 
L 286.115897 233.093455 
L 286.115897 233.091752 
L 289.675928 233.118444 
L 289.675928 233.126639 
L 291.20415 233.115844 
L 291.20415 233.114852 
L 295.529775 233.133432 
L 301.331954 233.117507 
L 301.331954 233.123487 
L 332.634571 233.103892 
L 332.634571 233.11268 
L 343.068892 233.128899 
L 343.068892 233.127019 
L 350.493377 232.951128 
L 350.493377 232.787492 
L 350.749099 232.354567 
L 350.749099 231.746138 
L 351.00325 230.373416 
L 351.00325 228.24579 
L 351.255655 225.625782 
L 351.255655 221.95873 
L 351.502824 217.542136 
L 351.502824 212.398293 
L 351.747723 207.770387 
L 351.747723 199.76014 
L 351.989655 191.047451 
L 351.989655 180.619669 
L 352.232111 174.409796 
L 352.232111 162.465454 
L 352.469679 156.402537 
L 352.469679 143.502446 
L 352.704978 139.698586 
L 352.704978 123.691591 
L 352.940626 123.440645 
L 352.940626 109.885529 
L 353.175227 110.657202 
L 353.175227 92.908057 
L 353.410002 90.495604 
L 353.410002 70.218453 
L 353.644429 76.451122 
L 353.644429 65.628571 
L 353.879204 75.558848 
L 353.879204 69.634137 
L 354.11363 80.114414 
L 354.11363 63.568212 
L 354.347882 68.15198 
L 354.347882 50.820951 
L 354.581959 61.839498 
L 354.581959 49.932727 
L 355.050811 94.16829 
L 355.050811 85.364186 
L 355.285237 101.441441 
L 355.285237 84.267184 
L 355.519663 91.656923 
L 355.519663 81.772469 
L 355.99288 107.907725 
L 355.99288 98.747029 
L 356.227655 112.514345 
L 356.227655 102.642458 
L 356.932854 146.018014 
L 356.932854 134.996299 
L 357.168327 141.636404 
L 357.168327 136.81996 
L 357.639972 157.823939 
L 357.639972 149.400282 
L 357.875446 155.309627 
L 357.875446 149.724387 
L 358.111792 157.238826 
L 358.111792 153.055701 
L 358.347789 162.991598 
L 358.347789 157.793343 
L 358.823275 169.87544 
L 358.823275 165.947916 
L 359.05997 175.214366 
L 359.05997 170.87942 
L 359.300855 174.500658 
L 359.300855 170.355069 
L 359.53755 178.360476 
L 359.53755 174.816641 
L 360.011814 185.871956 
L 360.011814 180.741614 
L 360.249557 187.485948 
L 360.249557 186.003549 
L 360.487648 188.984257 
L 360.487648 186.205863 
L 360.726264 193.129146 
L 360.726264 190.258735 
L 360.965228 193.030118 
L 360.965228 191.554719 
L 361.203146 197.029008 
L 361.203146 194.749412 
L 361.44211 198.611019 
L 361.44211 196.609764 
L 361.681424 200.318901 
L 361.681424 198.13345 
L 361.920738 201.497809 
L 361.920738 198.731203 
L 362.401809 205.65688 
L 362.401809 203.862387 
L 362.641472 207.835021 
L 362.641472 205.755388 
L 362.901208 206.882718 
L 362.901208 204.746858 
L 363.142791 207.816377 
L 363.142791 205.980247 
L 363.628226 211.295142 
L 363.628226 209.494216 
L 363.871031 211.515427 
L 363.871031 209.985636 
L 364.606427 215.692648 
L 364.606427 214.55922 
L 364.850803 216.14346 
L 364.850803 214.527738 
L 365.096575 216.179268 
L 365.096575 215.290793 
L 365.586374 219.027127 
L 365.586374 218.340605 
L 366.079315 220.906257 
L 366.079315 219.931895 
L 366.326135 220.654512 
L 366.326135 219.303145 
L 366.57662 220.45631 
L 366.57662 219.646869 
L 366.824138 220.599217 
L 366.824138 219.839581 
L 367.070957 221.087269 
L 367.070957 219.807151 
L 367.3183 220.51872 
L 367.3183 219.748759 
L 367.565469 221.253118 
L 367.565469 220.612711 
L 368.059632 222.752525 
L 368.059632 222.078135 
L 368.306975 223.358657 
L 368.306975 222.7167 
L 368.554667 223.956761 
L 368.554667 223.31932 
L 368.802534 224.103221 
L 368.802534 223.678927 
L 369.050575 224.897739 
L 369.050575 224.429306 
L 369.298966 225.285735 
L 369.298966 224.983436 
L 369.547356 225.680463 
L 369.547356 225.055614 
L 369.81198 225.642567 
L 369.81198 225.240805 
L 370.06456 225.92278 
L 370.06456 225.509177 
L 370.312776 226.158578 
L 370.312776 225.547202 
L 370.561341 226.114729 
L 370.561341 225.645703 
L 370.809732 226.031762 
L 370.809732 225.562628 
L 371.058122 226.386665 
L 371.058122 225.88355 
L 371.555776 227.158879 
L 371.555776 226.792062 
L 371.804865 227.403855 
L 371.804865 226.828893 
L 372.054303 227.281076 
L 372.054303 226.79244 
L 372.30409 227.251987 
L 372.30409 227.004748 
L 372.554051 227.688351 
L 372.554051 227.336642 
L 373.056418 228.276665 
L 373.056418 228.064076 
L 373.3083 228.645947 
L 373.3083 228.33805 
L 373.56437 228.81603 
L 373.56437 228.386153 
L 373.815205 228.742934 
L 373.815205 228.545427 
L 374.318793 229.339532 
L 374.318793 229.116625 
L 374.5705 229.379083 
L 374.5705 229.077538 
L 374.821858 229.330847 
L 374.821858 228.985009 
L 375.073565 229.298911 
L 375.073565 229.063026 
L 375.579249 229.770131 
L 375.579249 229.601588 
L 375.832003 229.81515 
L 375.832003 229.451323 
L 376.084408 229.780581 
L 376.084408 229.560503 
L 376.338559 229.74926 
L 376.338559 229.643807 
L 376.592884 230.079148 
L 376.592884 229.793966 
L 377.106074 230.270781 
L 377.106074 229.985617 
L 377.359875 230.314979 
L 377.359875 230.07172 
L 377.613328 230.331489 
L 377.613328 230.158283 
L 377.867653 230.445047 
L 377.867653 230.211506 
L 378.122153 230.493944 
L 378.122153 230.328723 
L 378.37578 230.562112 
L 378.37578 230.358467 
L 378.629407 230.595037 
L 378.629407 230.33527 
L 378.88478 230.550024 
L 378.88478 230.395373 
L 379.140153 230.656116 
L 379.140153 230.44499 
L 379.39378 230.710553 
L 379.39378 230.523567 
L 379.649153 230.756333 
L 379.649153 230.60432 
L 379.904351 230.888686 
L 379.904351 230.724374 
L 380.158676 230.928447 
L 380.158676 230.725801 
L 380.414572 230.948743 
L 380.414572 230.770479 
L 380.928809 231.134254 
L 380.928809 230.919583 
L 381.184007 231.090926 
L 381.184007 230.896026 
L 381.439031 231.054728 
L 381.439031 230.907279 
L 381.951347 231.260014 
L 381.951347 231.065853 
L 382.207243 231.256871 
L 382.207243 231.126806 
L 382.463314 231.268521 
L 382.463314 231.086877 
L 382.719734 231.298636 
L 382.719734 231.161613 
L 382.976678 231.295877 
L 382.976678 231.168554 
L 383.233447 231.370114 
L 383.233447 231.257957 
L 383.747509 231.453343 
L 383.747509 231.318939 
L 384.00358 231.428489 
L 384.00358 231.271661 
L 384.265935 231.376487 
L 384.265935 231.186722 
L 384.78244 231.393049 
L 384.78244 231.30621 
L 385.038162 231.541833 
L 385.038162 231.46588 
L 385.29528 231.593166 
L 385.29528 231.473731 
L 385.551002 231.557511 
L 385.551002 231.381439 
L 386.317993 231.66589 
L 386.317993 231.539984 
L 386.573889 231.681704 
L 386.573889 231.547113 
L 387.343847 231.712599 
L 387.343847 231.588456 
L 387.599395 231.743661 
L 387.599395 231.60336 
L 388.117646 231.79998 
L 388.117646 231.667747 
L 388.37651 231.779369 
L 388.37651 231.64391 
L 388.890397 231.762931 
L 388.890397 231.678795 
L 389.14769 231.826335 
L 389.14769 231.710262 
L 389.663497 231.854348 
L 389.663497 231.774742 
L 390.178781 231.980822 
L 390.178781 231.898451 
L 390.43555 231.985268 
L 390.43555 231.852344 
L 390.95223 231.895205 
L 390.95223 231.808992 
L 391.470481 231.982743 
L 391.470481 231.864214 
L 391.985416 231.917055 
L 391.985416 231.811495 
L 392.501747 231.942074 
L 392.501747 231.862316 
L 392.761833 231.999314 
L 392.761833 231.907068 
L 393.019649 231.996914 
L 393.019649 231.898526 
L 393.278513 231.966381 
L 393.278513 231.830538 
L 393.795542 232.020277 
L 393.795542 231.964515 
L 394.053533 232.10276 
L 394.053533 232.00669 
L 395.091956 232.142333 
L 395.091956 232.044905 
L 395.608811 232.132552 
L 395.608811 232.066395 
L 396.383307 232.216005 
L 396.383307 232.150242 
L 397.163041 232.285372 
L 397.163041 232.180585 
L 397.680594 232.179818 
L 397.680594 232.092613 
L 398.198147 232.227249 
L 398.198147 232.133914 
L 398.720238 232.195475 
L 398.720238 232.137078 
L 399.238489 232.30986 
L 399.238489 232.258577 
L 399.756566 232.289189 
L 399.756566 232.238778 
L 400.533157 232.280762 
L 400.533157 232.224099 
L 401.050361 232.337315 
L 401.050361 232.268805 
L 401.566692 232.40052 
L 401.566692 232.339841 
L 402.081278 232.368333 
L 402.081278 232.311814 
L 403.113591 232.439233 
L 403.113591 232.347921 
L 403.631144 232.365483 
L 403.631144 232.311715 
L 404.407211 232.439449 
L 404.407211 232.405629 
L 404.925637 232.454303 
L 404.925637 232.411948 
L 405.701006 232.462635 
L 405.701006 232.414748 
L 406.222923 232.470554 
L 406.222923 232.413896 
L 407.000038 232.435414 
L 407.000038 232.376914 
L 408.036366 232.508356 
L 408.036366 232.455478 
L 408.555141 232.481575 
L 408.555141 232.413871 
L 409.332256 232.52076 
L 409.332256 232.463102 
L 410.116702 232.577578 
L 410.116702 232.50458 
L 410.634953 232.518022 
L 410.634953 232.488267 
L 411.412068 232.5745 
L 411.412068 232.539806 
L 412.189009 232.539006 
L 412.189009 232.491982 
L 413.228827 232.630542 
L 413.228827 232.578223 
L 414.265854 232.628239 
L 414.265854 232.614592 
L 415.043143 232.653708 
L 415.043143 232.599051 
L 416.338509 232.683488 
L 416.338509 232.629433 
L 417.640508 232.656737 
L 417.640508 232.615381 
L 418.676662 232.681382 
L 418.676662 232.65396 
L 419.712989 232.690691 
L 419.712989 232.660719 
L 420.493945 232.688424 
L 420.493945 232.663076 
L 421.529749 232.717331 
L 421.529749 232.665639 
L 423.083979 232.744558 
L 423.083979 232.717607 
L 424.382836 232.768613 
L 424.382836 232.733212 
L 425.421258 232.744474 
L 425.421258 232.71478 
L 426.716275 232.782481 
L 426.716275 232.754726 
L 428.791899 232.790401 
L 428.791899 232.763526 
L 429.829448 232.815892 
L 429.829448 232.790602 
L 430.865427 232.825766 
L 430.865427 232.788594 
L 432.164284 232.811897 
L 432.164284 232.77918 
L 433.462618 232.792944 
L 433.462618 232.767116 
L 434.757635 232.842909 
L 434.757635 232.809698 
L 436.056492 232.842205 
L 436.056492 232.815049 
L 437.869935 232.859881 
L 437.869935 232.833468 
L 438.913768 232.844575 
L 438.913768 232.820401 
L 439.949747 232.856417 
L 439.949747 232.814028 
L 442.802834 232.885759 
L 442.802834 232.859603 
L 444.615753 232.87263 
L 444.615753 232.830556 
L 446.176791 232.871341 
L 446.176791 232.841152 
L 446.953731 232.89305 
L 446.953731 232.863295 
L 449.548129 232.901151 
L 449.548129 232.881693 
L 450.584108 232.910058 
L 450.584108 232.887329 
L 451.879125 232.903595 
L 451.879125 232.877381 
L 453.699201 232.918052 
L 453.699201 232.903588 
L 454.994043 232.922827 
L 454.994043 232.896997 
L 456.810803 232.929845 
L 456.810803 232.905621 
L 458.624071 232.927349 
L 458.624071 232.914312 
L 460.703185 232.945894 
L 460.703185 232.914822 
L 462.25724 232.950896 
L 462.25724 232.937891 
L 464.851813 232.95245 
L 464.851813 232.918444 
L 467.707518 232.976039 
L 467.707518 232.962441 
L 469.520612 232.980838 
L 469.520612 232.971204 
L 471.337197 232.969967 
L 471.337197 232.946706 
L 473.150116 232.987228 
L 473.150116 232.965478 
L 484.046657 233.003547 
L 484.046657 232.97989 
L 487.935199 232.999736 
L 487.935199 232.992216 
L 505.315902 233.037166 
L 505.315902 233.031026 
L 509.468196 233.060038 
L 509.468196 233.049713 
L 514.136122 233.056435 
L 514.136122 233.048357 
L 517.769466 233.067644 
L 517.769466 233.052183 
L 558.742905 233.074271 
L 558.742905 233.065118 
L 572.23524 233.065454 
L 572.23524 233.062974 
L 585.724084 233.09377 
L 585.724084 233.086284 
L 591.947637 233.110386 
L 676.977663 233.12777 
L 676.977663 233.129065 
L 680.311822 233.120711 
L 688.287549 233.111933 
L 688.287549 233.111787 
L 732.748404 233.114913 
L 732.748404 233.110584 
L 744.015 233.117255 
L 744.015 233.125469 
L 811.94937 233.138665 
L 811.94937 233.138665 
" clip-path="url(#pa0329d701a)" style="fill: none; stroke: #008000; stroke-width: 1.5; stroke-linecap: square"/>
   </g>
   <g id="patch_3">
    <path d="M 47.72 534.04 
L 47.72 26.88 
" style="fill: none; stroke: #000000; stroke-width: 0.8; stroke-linejoin: miter; stroke-linecap: square"/>
   </g>
   <g id="patch_4">
    <path d="M 853.2 534.04 
L 853.2 26.88 
" style="fill: none; stroke: #000000; stroke-width: 0.8; stroke-linejoin: miter; stroke-linecap: square"/>
   </g>
   <g id="patch_5">
    <path d="M 47.72 534.04 
L 853.2 534.04 
" style="fill: none; stroke: #000000; stroke-width: 0.8; stroke-linejoin: miter; stroke-linecap: square"/>
   </g>
   <g id="patch_6">
    <path d="M 47.72 26.88 
L 853.2 26.88 
" style="fill: none; stroke: #000000; stroke-width: 0.8; stroke-linejoin: miter; stroke-linecap: square"/>
   </g>
   <g id="patch_7">
    <path d="M 403.236563 355.290792 
Q 386.401504 360.512716 369.566445 365.734641 
L 370.751473 369.555074 
Q 364.131648 368.467416 357.511823 367.379759 
Q 362.354106 362.736767 367.19639 358.093774 
L 368.381418 361.914208 
Q 385.216476 356.692283 402.051535 351.470359 
L 403.236563 355.290792 
z
" style="stroke: #000000; stroke-linecap: round"/>
   </g>
   <g id="text_17">
    <!-- Peak: RT=2.59, Area=1.35e+04 -->
    <g style="fill: #ff0000" transform="translate(407.257855 338.671958) scale(0.1 -0.1)">
     <defs>
      <path id="DejaVuSans-50" d="M 1259 4147 
L 1259 2394 
L 2053 2394 
Q 2494 2394 2734 2622 
Q 2975 2850 2975 3272 
Q 2975 3691 2734 3919 
Q 2494 4147 2053 4147 
L 1259 4147 
z
M 628 4666 
L 2053 4666 
Q 2838 4666 3239 4311 
Q 3641 3956 3641 3272 
Q 3641 2581 3239 2228 
Q 2838 1875 2053 1875 
L 1259 1875 
L 1259 0 
L 628 0 
L 628 4666 
z
" transform="scale(0.015625)"/>
      <path id="DejaVuSans-6b" d="M 581 4863 
L 1159 4863 
L 1159 1991 
L 2875 3500 
L 3609 3500 
L 1753 1863 
L 3688 0 
L 2938 0 
L 1159 1709 
L 1159 0 
L 581 0 
L 581 4863 
z
" transform="scale(0.015625)"/>
      <path id="DejaVuSans-3a" d="M 750 794 
L 1409 794 
L 1409 0 
L 750 0 
L 750 794 
z
M 750 3309 
L 1409 3309 
L 1409 2516 
L 750 2516 
L 750 3309 
z
" transform="scale(0.015625)"/>
      <path id="DejaVuSans-3d" d="M 678 2906 
L 4684 2906 
L 4684 2381 
L 678 2381 
L 678 2906 
z
M 678 1631 
L 4684 1631 
L 4684 1100 
L 678 1100 
L 678 1631 
z
" transform="scale(0.015625)"/>
      <path id="DejaVuSans-39" d="M 703 97 
L 703 672 
Q 941 559 1184 500 
Q 1428 441 1663 441 
Q 2288 441 2617 861 
Q 2947 1281 2994 2138 
Q 2813 1869 2534 1725 
Q 2256 1581 1919 1581 
Q 1219 1581 811 2004 
Q 403 2428 403 3163 
Q 403 3881 828 4315 
Q 1253 4750 1959 4750 
Q 2769 4750 3195 4129 
Q 3622 3509 3622 2328 
Q 3622 1225 3098 567 
Q 2575 -91 1691 -91 
Q 1453 -91 1209 -44 
Q 966 3 703 97 
z
M 1959 2075 
Q 2384 2075 2632 2365 
Q 2881 2656 2881 3163 
Q 2881 3666 2632 3958 
Q 2384 4250 1959 4250 
Q 1534 4250 1286 3958 
Q 1038 3666 1038 3163 
Q 1038 2656 1286 2365 
Q 1534 2075 1959 2075 
z
" transform="scale(0.015625)"/>
      <path id="DejaVuSans-2c" d="M 750 794 
L 1409 794 
L 1409 256 
L 897 -744 
L 494 -744 
L 750 256 
L 750 794 
z
" transform="scale(0.015625)"/>
      <path id="DejaVuSans-41" d="M 2188 4044 
L 1331 1722 
L 3047 1722 
L 2188 4044 
z
M 1831 4666 
L 2547 4666 
L 4325 0 
L 3669 0 
L 3244 1197 
L 1141 1197 
L 716 0 
L 50 0 
L 1831 4666 
z
" transform="scale(0.015625)"/>
      <path id="DejaVuSans-2b" d="M 2944 4013 
L 2944 2272 
L 4684 2272 
L 4684 1741 
L 2944 1741 
L 2944 0 
L 2419 0 
L 2419 1741 
L 678 1741 
L 678 2272 
L 2419 2272 
L 2419 4013 
L 2944 4013 
z
" transform="scale(0.015625)"/>
     </defs>
     <use xlink:href="#DejaVuSans-50"/>
     <use xlink:href="#DejaVuSans-65" x="56.677734"/>
     <use xlink:href="#DejaVuSans-61" x="118.201172"/>
     <use xlink:href="#DejaVuSans-6b" x="179.480469"/>
     <use xlink:href="#DejaVuSans-3a" x="237.390625"/>
     <use xlink:href="#DejaVuSans-20" x="271.082031"/>
     <use xlink:href="#DejaVuSans-52" x="302.869141"/>
     <use xlink:href="#DejaVuSans-54" x="365.101562"/>
     <use xlink:href="#DejaVuSans-3d" x="426.185547"/>
     <use xlink:href="#DejaVuSans-32" x="509.974609"/>
     <use xlink:href="#DejaVuSans-2e" x="573.597656"/>
     <use xlink:href="#DejaVuSans-35" x="605.384766"/>
     <use xlink:href="#DejaVuSans-39" x="669.007812"/>
     <use xlink:href="#DejaVuSans-2c" x="732.630859"/>
     <use xlink:href="#DejaVuSans-20" x="764.417969"/>
     <use xlink:href="#DejaVuSans-41" x="796.205078"/>
     <use xlink:href="#DejaVuSans-72" x="864.613281"/>
     <use xlink:href="#DejaVuSans-65" x="903.476562"/>
     <use xlink:href="#DejaVuSans-61" x="965"/>
     <use xlink:href="#DejaVuSans-3d" x="1026.279297"/>
     <use xlink:href="#DejaVuSans-31" x="1110.068359"/>
     <use xlink:href="#DejaVuSans-2e" x="1173.691406"/>
     <use xlink:href="#DejaVuSans-33" x="1205.478516"/>
     <use xlink:href="#DejaVuSans-35" x="1269.101562"/>
     <use xlink:href="#DejaVuSans-65" x="1332.724609"/>
     <use xlink:href="#DejaVuSans-2b" x="1394.248047"/>
     <use xlink:href="#DejaVuSans-30" x="1478.037109"/>
     <use xlink:href="#DejaVuSans-34" x="1541.660156"/>
    </g>
    <!-- (50.51% of total) -->
    <g style="fill: #ff0000" transform="translate(407.257855 349.86977) scale(0.1 -0.1)">
     <defs>
      <path id="DejaVuSans-25" d="M 4653 2053 
Q 4381 2053 4226 1822 
Q 4072 1591 4072 1178 
Q 4072 772 4226 539 
Q 4381 306 4653 306 
Q 4919 306 5073 539 
Q 5228 772 5228 1178 
Q 5228 1588 5073 1820 
Q 4919 2053 4653 2053 
z
M 4653 2450 
Q 5147 2450 5437 2106 
Q 5728 1763 5728 1178 
Q 5728 594 5436 251 
Q 5144 -91 4653 -91 
Q 4153 -91 3862 251 
Q 3572 594 3572 1178 
Q 3572 1766 3864 2108 
Q 4156 2450 4653 2450 
z
M 1428 4353 
Q 1159 4353 1004 4120 
Q 850 3888 850 3481 
Q 850 3069 1003 2837 
Q 1156 2606 1428 2606 
Q 1700 2606 1854 2837 
Q 2009 3069 2009 3481 
Q 2009 3884 1853 4118 
Q 1697 4353 1428 4353 
z
M 4250 4750 
L 4750 4750 
L 1831 -91 
L 1331 -91 
L 4250 4750 
z
M 1428 4750 
Q 1922 4750 2215 4408 
Q 2509 4066 2509 3481 
Q 2509 2891 2217 2550 
Q 1925 2209 1428 2209 
Q 931 2209 642 2551 
Q 353 2894 353 3481 
Q 353 4063 643 4406 
Q 934 4750 1428 4750 
z
" transform="scale(0.015625)"/>
      <path id="DejaVuSans-66" d="M 2375 4863 
L 2375 4384 
L 1825 4384 
Q 1516 4384 1395 4259 
Q 1275 4134 1275 3809 
L 1275 3500 
L 2222 3500 
L 2222 3053 
L 1275 3053 
L 1275 0 
L 697 0 
L 697 3053 
L 147 3053 
L 147 3500 
L 697 3500 
L 697 3744 
Q 697 4328 969 4595 
Q 1241 4863 1831 4863 
L 2375 4863 
z
" transform="scale(0.015625)"/>
     </defs>
     <use xlink:href="#DejaVuSans-28"/>
     <use xlink:href="#DejaVuSans-35" x="39.013672"/>
     <use xlink:href="#DejaVuSans-30" x="102.636719"/>
     <use xlink:href="#DejaVuSans-2e" x="166.259766"/>
     <use xlink:href="#DejaVuSans-35" x="198.046875"/>
     <use xlink:href="#DejaVuSans-31" x="261.669922"/>
     <use xlink:href="#DejaVuSans-25" x="325.292969"/>
     <use xlink:href="#DejaVuSans-20" x="420.3125"/>
     <use xlink:href="#DejaVuSans-6f" x="452.099609"/>
     <use xlink:href="#DejaVuSans-66" x="513.28125"/>
     <use xlink:href="#DejaVuSans-20" x="548.486328"/>
     <use xlink:href="#DejaVuSans-74" x="580.273438"/>
     <use xlink:href="#DejaVuSans-6f" x="619.482422"/>
     <use xlink:href="#DejaVuSans-74" x="680.664062"/>
     <use xlink:href="#DejaVuSans-61" x="719.873047"/>
     <use xlink:href="#DejaVuSans-6c" x="781.152344"/>
     <use xlink:href="#DejaVuSans-29" x="808.935547"/>
    </g>
   </g>
   <g id="text_18">
    <!-- UV and MS Chromatograms of Ru_p_cymene_M3Y4, target m/z = 577.02 -->
    <g transform="translate(232.226875 20.88) scale(0.12 -0.12)">
     <defs>
      <path id="DejaVuSans-55" d="M 556 4666 
L 1191 4666 
L 1191 1831 
Q 1191 1081 1462 751 
Q 1734 422 2344 422 
Q 2950 422 3222 751 
Q 3494 1081 3494 1831 
L 3494 4666 
L 4128 4666 
L 4128 1753 
Q 4128 841 3676 375 
Q 3225 -91 2344 -91 
Q 1459 -91 1007 375 
Q 556 841 556 1753 
L 556 4666 
z
" transform="scale(0.015625)"/>
      <path id="DejaVuSans-56" d="M 1831 0 
L 50 4666 
L 709 4666 
L 2188 738 
L 3669 4666 
L 4325 4666 
L 2547 0 
L 1831 0 
z
" transform="scale(0.015625)"/>
      <path id="DejaVuSans-4d" d="M 628 4666 
L 1569 4666 
L 2759 1491 
L 3956 4666 
L 4897 4666 
L 4897 0 
L 4281 0 
L 4281 4097 
L 3078 897 
L 2444 897 
L 1241 4097 
L 1241 0 
L 628 0 
L 628 4666 
z
" transform="scale(0.015625)"/>
      <path id="DejaVuSans-53" d="M 3425 4513 
L 3425 3897 
Q 3066 4069 2747 4153 
Q 2428 4238 2131 4238 
Q 1616 4238 1336 4038 
Q 1056 3838 1056 3469 
Q 1056 3159 1242 3001 
Q 1428 2844 1947 2747 
L 2328 2669 
Q 3034 2534 3370 2195 
Q 3706 1856 3706 1288 
Q 3706 609 3251 259 
Q 2797 -91 1919 -91 
Q 1588 -91 1214 -16 
Q 841 59 441 206 
L 441 856 
Q 825 641 1194 531 
Q 1563 422 1919 422 
Q 2459 422 2753 634 
Q 3047 847 3047 1241 
Q 3047 1584 2836 1778 
Q 2625 1972 2144 2069 
L 1759 2144 
Q 1053 2284 737 2584 
Q 422 2884 422 3419 
Q 422 4038 858 4394 
Q 1294 4750 2059 4750 
Q 2388 4750 2728 4690 
Q 3069 4631 3425 4513 
z
" transform="scale(0.015625)"/>
      <path id="DejaVuSans-43" d="M 4122 4306 
L 4122 3641 
Q 3803 3938 3442 4084 
Q 3081 4231 2675 4231 
Q 1875 4231 1450 3742 
Q 1025 3253 1025 2328 
Q 1025 1406 1450 917 
Q 1875 428 2675 428 
Q 3081 428 3442 575 
Q 3803 722 4122 1019 
L 4122 359 
Q 3791 134 3420 21 
Q 3050 -91 2638 -91 
Q 1578 -91 968 557 
Q 359 1206 359 2328 
Q 359 3453 968 4101 
Q 1578 4750 2638 4750 
Q 3056 4750 3426 4639 
Q 3797 4528 4122 4306 
z
" transform="scale(0.015625)"/>
      <path id="DejaVuSans-68" d="M 3513 2113 
L 3513 0 
L 2938 0 
L 2938 2094 
Q 2938 2591 2744 2837 
Q 2550 3084 2163 3084 
Q 1697 3084 1428 2787 
Q 1159 2491 1159 1978 
L 1159 0 
L 581 0 
L 581 4863 
L 1159 4863 
L 1159 2956 
Q 1366 3272 1645 3428 
Q 1925 3584 2291 3584 
Q 2894 3584 3203 3211 
Q 3513 2838 3513 2113 
z
" transform="scale(0.015625)"/>
      <path id="DejaVuSans-67" d="M 2906 1791 
Q 2906 2416 2648 2759 
Q 2391 3103 1925 3103 
Q 1463 3103 1205 2759 
Q 947 2416 947 1791 
Q 947 1169 1205 825 
Q 1463 481 1925 481 
Q 2391 481 2648 825 
Q 2906 1169 2906 1791 
z
M 3481 434 
Q 3481 -459 3084 -895 
Q 2688 -1331 1869 -1331 
Q 1566 -1331 1297 -1286 
Q 1028 -1241 775 -1147 
L 775 -588 
Q 1028 -725 1275 -790 
Q 1522 -856 1778 -856 
Q 2344 -856 2625 -561 
Q 2906 -266 2906 331 
L 2906 616 
Q 2728 306 2450 153 
Q 2172 0 1784 0 
Q 1141 0 747 490 
Q 353 981 353 1791 
Q 353 2603 747 3093 
Q 1141 3584 1784 3584 
Q 2172 3584 2450 3431 
Q 2728 3278 2906 2969 
L 2906 3500 
L 3481 3500 
L 3481 434 
z
" transform="scale(0.015625)"/>
      <path id="DejaVuSans-75" d="M 544 1381 
L 544 3500 
L 1119 3500 
L 1119 1403 
Q 1119 906 1312 657 
Q 1506 409 1894 409 
Q 2359 409 2629 706 
Q 2900 1003 2900 1516 
L 2900 3500 
L 3475 3500 
L 3475 0 
L 2900 0 
L 2900 538 
Q 2691 219 2414 64 
Q 2138 -91 1772 -91 
Q 1169 -91 856 284 
Q 544 659 544 1381 
z
M 1991 3584 
L 1991 3584 
z
" transform="scale(0.015625)"/>
      <path id="DejaVuSans-5f" d="M 3263 -1063 
L 3263 -1509 
L -63 -1509 
L -63 -1063 
L 3263 -1063 
z
" transform="scale(0.015625)"/>
      <path id="DejaVuSans-70" d="M 1159 525 
L 1159 -1331 
L 581 -1331 
L 581 3500 
L 1159 3500 
L 1159 2969 
Q 1341 3281 1617 3432 
Q 1894 3584 2278 3584 
Q 2916 3584 3314 3078 
Q 3713 2572 3713 1747 
Q 3713 922 3314 415 
Q 2916 -91 2278 -91 
Q 1894 -91 1617 61 
Q 1341 213 1159 525 
z
M 3116 1747 
Q 3116 2381 2855 2742 
Q 2594 3103 2138 3103 
Q 1681 3103 1420 2742 
Q 1159 2381 1159 1747 
Q 1159 1113 1420 752 
Q 1681 391 2138 391 
Q 2594 391 2855 752 
Q 3116 1113 3116 1747 
z
" transform="scale(0.015625)"/>
      <path id="DejaVuSans-63" d="M 3122 3366 
L 3122 2828 
Q 2878 2963 2633 3030 
Q 2388 3097 2138 3097 
Q 1578 3097 1268 2742 
Q 959 2388 959 1747 
Q 959 1106 1268 751 
Q 1578 397 2138 397 
Q 2388 397 2633 464 
Q 2878 531 3122 666 
L 3122 134 
Q 2881 22 2623 -34 
Q 2366 -91 2075 -91 
Q 1284 -91 818 406 
Q 353 903 353 1747 
Q 353 2603 823 3093 
Q 1294 3584 2113 3584 
Q 2378 3584 2631 3529 
Q 2884 3475 3122 3366 
z
" transform="scale(0.015625)"/>
      <path id="DejaVuSans-59" d="M -13 4666 
L 666 4666 
L 1959 2747 
L 3244 4666 
L 3922 4666 
L 2272 2222 
L 2272 0 
L 1638 0 
L 1638 2222 
L -13 4666 
z
" transform="scale(0.015625)"/>
      <path id="DejaVuSans-2f" d="M 1625 4666 
L 2156 4666 
L 531 -594 
L 0 -594 
L 1625 4666 
z
" transform="scale(0.015625)"/>
     </defs>
     <use xlink:href="#DejaVuSans-55"/>
     <use xlink:href="#DejaVuSans-56" x="73.193359"/>
     <use xlink:href="#DejaVuSans-20" x="141.601562"/>
     <use xlink:href="#DejaVuSans-61" x="173.388672"/>
     <use xlink:href="#DejaVuSans-6e" x="234.667969"/>
     <use xlink:href="#DejaVuSans-64" x="298.046875"/>
     <use xlink:href="#DejaVuSans-20" x="361.523438"/>
     <use xlink:href="#DejaVuSans-4d" x="393.310547"/>
     <use xlink:href="#DejaVuSans-53" x="479.589844"/>
     <use xlink:href="#DejaVuSans-20" x="543.066406"/>
     <use xlink:href="#DejaVuSans-43" x="574.853516"/>
     <use xlink:href="#DejaVuSans-68" x="644.677734"/>
     <use xlink:href="#DejaVuSans-72" x="708.056641"/>
     <use xlink:href="#DejaVuSans-6f" x="746.919922"/>
     <use xlink:href="#DejaVuSans-6d" x="808.101562"/>
     <use xlink:href="#DejaVuSans-61" x="905.513672"/>
     <use xlink:href="#DejaVuSans-74" x="966.792969"/>
     <use xlink:href="#DejaVuSans-6f" x="1006.001953"/>
     <use xlink:href="#DejaVuSans-67" x="1067.183594"/>
     <use xlink:href="#DejaVuSans-72" x="1130.660156"/>
     <use xlink:href="#DejaVuSans-61" x="1171.773438"/>
     <use xlink:href="#DejaVuSans-6d" x="1233.052734"/>
     <use xlink:href="#DejaVuSans-73" x="1330.464844"/>
     <use xlink:href="#DejaVuSans-20" x="1382.564453"/>
     <use xlink:href="#DejaVuSans-6f" x="1414.351562"/>
     <use xlink:href="#DejaVuSans-66" x="1475.533203"/>
     <use xlink:href="#DejaVuSans-20" x="1510.738281"/>
     <use xlink:href="#DejaVuSans-52" x="1542.525391"/>
     <use xlink:href="#DejaVuSans-75" x="1607.507812"/>
     <use xlink:href="#DejaVuSans-5f" x="1670.886719"/>
     <use xlink:href="#DejaVuSans-70" x="1720.886719"/>
     <use xlink:href="#DejaVuSans-5f" x="1784.363281"/>
     <use xlink:href="#DejaVuSans-63" x="1834.363281"/>
     <use xlink:href="#DejaVuSans-79" x="1889.34375"/>
     <use xlink:href="#DejaVuSans-6d" x="1948.523438"/>
     <use xlink:href="#DejaVuSans-65" x="2045.935547"/>
     <use xlink:href="#DejaVuSans-6e" x="2107.458984"/>
     <use xlink:href="#DejaVuSans-65" x="2170.837891"/>
     <use xlink:href="#DejaVuSans-5f" x="2232.361328"/>
     <use xlink:href="#DejaVuSans-4d" x="2282.361328"/>
     <use xlink:href="#DejaVuSans-33" x="2368.640625"/>
     <use xlink:href="#DejaVuSans-59" x="2432.263672"/>
     <use xlink:href="#DejaVuSans-34" x="2493.347656"/>
     <use xlink:href="#DejaVuSans-2c" x="2556.970703"/>
     <use xlink:href="#DejaVuSans-20" x="2588.757812"/>
     <use xlink:href="#DejaVuSans-74" x="2620.544922"/>
     <use xlink:href="#DejaVuSans-61" x="2659.753906"/>
     <use xlink:href="#DejaVuSans-72" x="2721.033203"/>
     <use xlink:href="#DejaVuSans-67" x="2760.396484"/>
     <use xlink:href="#DejaVuSans-65" x="2823.873047"/>
     <use xlink:href="#DejaVuSans-74" x="2885.396484"/>
     <use xlink:href="#DejaVuSans-20" x="2924.605469"/>
     <use xlink:href="#DejaVuSans-6d" x="2956.392578"/>
     <use xlink:href="#DejaVuSans-2f" x="3053.804688"/>
     <use xlink:href="#DejaVuSans-7a" x="3087.496094"/>
     <use xlink:href="#DejaVuSans-20" x="3139.986328"/>
     <use xlink:href="#DejaVuSans-3d" x="3171.773438"/>
     <use xlink:href="#DejaVuSans-20" x="3255.5625"/>
     <use xlink:href="#DejaVuSans-35" x="3287.349609"/>
     <use xlink:href="#DejaVuSans-37" x="3350.972656"/>
     <use xlink:href="#DejaVuSans-37" x="3414.595703"/>
     <use xlink:href="#DejaVuSans-2e" x="3478.21875"/>
     <use xlink:href="#DejaVuSans-30" x="3510.005859"/>
     <use xlink:href="#DejaVuSans-32" x="3573.628906"/>
    </g>
   </g>
   <g id="legend_1">
    <g id="patch_8">
     <path d="M 685.971875 64.23625 
L 846.2 64.23625 
Q 848.2 64.23625 848.2 62.23625 
L 848.2 33.88 
Q 848.2 31.88 846.2 31.88 
L 685.971875 31.88 
Q 683.971875 31.88 683.971875 33.88 
L 683.971875 62.23625 
Q 683.971875 64.23625 685.971875 64.23625 
z
" style="fill: #ffffff; opacity: 0.8; stroke: #cccccc; stroke-linejoin: miter"/>
    </g>
    <g id="line2d_17">
     <path d="M 687.971875 39.978437 
L 697.971875 39.978437 
L 707.971875 39.978437 
" style="fill: none; stroke: #0000ff; stroke-width: 1.5; stroke-linecap: square"/>
    </g>
    <g id="text_19">
     <!-- UV Intensity (normalized) -->
     <g transform="translate(715.971875 43.478437) scale(0.1 -0.1)">
      <use xlink:href="#DejaVuSans-55"/>
      <use xlink:href="#DejaVuSans-56" x="73.193359"/>
      <use xlink:href="#DejaVuSans-20" x="141.601562"/>
      <use xlink:href="#DejaVuSans-49" x="173.388672"/>
      <use xlink:href="#DejaVuSans-6e" x="202.880859"/>
      <use xlink:href="#DejaVuSans-74" x="266.259766"/>
      <use xlink:href="#DejaVuSans-65" x="305.46875"/>
      <use xlink:href="#DejaVuSans-6e" x="366.992188"/>
      <use xlink:href="#DejaVuSans-73" x="430.371094"/>
      <use xlink:href="#DejaVuSans-69" x="482.470703"/>
      <use xlink:href="#DejaVuSans-74" x="510.253906"/>
      <use xlink:href="#DejaVuSans-79" x="549.462891"/>
      <use xlink:href="#DejaVuSans-20" x="608.642578"/>
      <use xlink:href="#DejaVuSans-28" x="640.429688"/>
      <use xlink:href="#DejaVuSans-6e" x="679.443359"/>
      <use xlink:href="#DejaVuSans-6f" x="742.822266"/>
      <use xlink:href="#DejaVuSans-72" x="804.003906"/>
      <use xlink:href="#DejaVuSans-6d" x="843.367188"/>
      <use xlink:href="#DejaVuSans-61" x="940.779297"/>
      <use xlink:href="#DejaVuSans-6c" x="1002.058594"/>
      <use xlink:href="#DejaVuSans-69" x="1029.841797"/>
      <use xlink:href="#DejaVuSans-7a" x="1057.625"/>
      <use xlink:href="#DejaVuSans-65" x="1110.115234"/>
      <use xlink:href="#DejaVuSans-64" x="1171.638672"/>
      <use xlink:href="#DejaVuSans-29" x="1235.115234"/>
     </g>
    </g>
    <g id="line2d_18">
     <path d="M 687.971875 54.656562 
L 697.971875 54.656562 
L 707.971875 54.656562 
" style="fill: none; stroke: #008000; stroke-width: 1.5; stroke-linecap: square"/>
    </g>
    <g id="text_20">
     <!-- MS Intensity (normalized) -->
     <g transform="translate(715.971875 58.156562) scale(0.1 -0.1)">
      <use xlink:href="#DejaVuSans-4d"/>
      <use xlink:href="#DejaVuSans-53" x="86.279297"/>
      <use xlink:href="#DejaVuSans-20" x="149.755859"/>
      <use xlink:href="#DejaVuSans-49" x="181.542969"/>
      <use xlink:href="#DejaVuSans-6e" x="211.035156"/>
      <use xlink:href="#DejaVuSans-74" x="274.414062"/>
      <use xlink:href="#DejaVuSans-65" x="313.623047"/>
      <use xlink:href="#DejaVuSans-6e" x="375.146484"/>
      <use xlink:href="#DejaVuSans-73" x="438.525391"/>
      <use xlink:href="#DejaVuSans-69" x="490.625"/>
      <use xlink:href="#DejaVuSans-74" x="518.408203"/>
      <use xlink:href="#DejaVuSans-79" x="557.617188"/>
      <use xlink:href="#DejaVuSans-20" x="616.796875"/>
      <use xlink:href="#DejaVuSans-28" x="648.583984"/>
      <use xlink:href="#DejaVuSans-6e" x="687.597656"/>
      <use xlink:href="#DejaVuSans-6f" x="750.976562"/>
      <use xlink:href="#DejaVuSans-72" x="812.158203"/>
      <use xlink:href="#DejaVuSans-6d" x="851.521484"/>
      <use xlink:href="#DejaVuSans-61" x="948.933594"/>
      <use xlink:href="#DejaVuSans-6c" x="1010.212891"/>
      <use xlink:href="#DejaVuSans-69" x="1037.996094"/>
      <use xlink:href="#DejaVuSans-7a" x="1065.779297"/>
      <use xlink:href="#DejaVuSans-65" x="1118.269531"/>
      <use xlink:href="#DejaVuSans-64" x="1179.792969"/>
      <use xlink:href="#DejaVuSans-29" x="1243.269531"/>
     </g>
    </g>
   </g>
  </g>
 </g>
 <defs>
  <clipPath id="pa0329d701a">
   <rect x="47.72" y="26.88" width="805.48" height="507.16"/>
  </clipPath>
 </defs>
</svg>
