<?xml version="1.0" encoding="utf-8" standalone="no"?>
<!DOCTYPE svg PUBLIC "-//W3C//DTD SVG 1.1//EN"
  "http://www.w3.org/Graphics/SVG/1.1/DTD/svg11.dtd">
<svg xmlns:xlink="http://www.w3.org/1999/xlink" width="864pt" height="576pt" viewBox="0 0 864 576" xmlns="http://www.w3.org/2000/svg" version="1.1">
 <metadata>
  <rdf:RDF xmlns:dc="http://purl.org/dc/elements/1.1/" xmlns:cc="http://creativecommons.org/ns#" xmlns:rdf="http://www.w3.org/1999/02/22-rdf-syntax-ns#">
   <cc:Work>
    <dc:type rdf:resource="http://purl.org/dc/dcmitype/StillImage"/>
    <dc:date>2024-12-09T14:35:10.700289</dc:date>
    <dc:format>image/svg+xml</dc:format>
    <dc:creator>
     <cc:Agent>
      <dc:title>Matplotlib v3.9.0, https://matplotlib.org/</dc:title>
     </cc:Agent>
    </dc:creator>
   </cc:Work>
  </rdf:RDF>
 </metadata>
 <defs>
  <style type="text/css">*{stroke-linejoin: round; stroke-linecap: butt}</style>
 </defs>
 <g id="figure_1">
  <g id="patch_1">
   <path d="M 0 576 
L 864 576 
L 864 0 
L 0 0 
z
" style="fill: #ffffff"/>
  </g>
  <g id="axes_1">
   <g id="patch_2">
    <path d="M 47.72 534.04 
L 853.2 534.04 
L 853.2 26.88 
L 47.72 26.88 
z
" style="fill: #ffffff"/>
   </g>
   <g id="matplotlib.axis_1">
    <g id="xtick_1">
     <g id="line2d_1">
      <defs>
       <path id="mf26cb9ba50" d="M 0 0 
L 0 3.5 
" style="stroke: #000000; stroke-width: 0.8"/>
      </defs>
      <g>
       <use xlink:href="#mf26cb9ba50" x="83.445992" y="534.04" style="stroke: #000000; stroke-width: 0.8"/>
      </g>
     </g>
     <g id="text_1">
      <!-- 0 -->
      <g transform="translate(80.264742 548.638438) scale(0.1 -0.1)">
       <defs>
        <path id="DejaVuSans-30" d="M 2034 4250 
Q 1547 4250 1301 3770 
Q 1056 3291 1056 2328 
Q 1056 1369 1301 889 
Q 1547 409 2034 409 
Q 2525 409 2770 889 
Q 3016 1369 3016 2328 
Q 3016 3291 2770 3770 
Q 2525 4250 2034 4250 
z
M 2034 4750 
Q 2819 4750 3233 4129 
Q 3647 3509 3647 2328 
Q 3647 1150 3233 529 
Q 2819 -91 2034 -91 
Q 1250 -91 836 529 
Q 422 1150 422 2328 
Q 422 3509 836 4129 
Q 1250 4750 2034 4750 
z
" transform="scale(0.015625)"/>
       </defs>
       <use xlink:href="#DejaVuSans-30"/>
      </g>
     </g>
    </g>
    <g id="xtick_2">
     <g id="line2d_2">
      <g>
       <use xlink:href="#mf26cb9ba50" x="188.178466" y="534.04" style="stroke: #000000; stroke-width: 0.8"/>
      </g>
     </g>
     <g id="text_2">
      <!-- 1 -->
      <g transform="translate(184.997216 548.638438) scale(0.1 -0.1)">
       <defs>
        <path id="DejaVuSans-31" d="M 794 531 
L 1825 531 
L 1825 4091 
L 703 3866 
L 703 4441 
L 1819 4666 
L 2450 4666 
L 2450 531 
L 3481 531 
L 3481 0 
L 794 0 
L 794 531 
z
" transform="scale(0.015625)"/>
       </defs>
       <use xlink:href="#DejaVuSans-31"/>
      </g>
     </g>
    </g>
    <g id="xtick_3">
     <g id="line2d_3">
      <g>
       <use xlink:href="#mf26cb9ba50" x="292.91094" y="534.04" style="stroke: #000000; stroke-width: 0.8"/>
      </g>
     </g>
     <g id="text_3">
      <!-- 2 -->
      <g transform="translate(289.72969 548.638438) scale(0.1 -0.1)">
       <defs>
        <path id="DejaVuSans-32" d="M 1228 531 
L 3431 531 
L 3431 0 
L 469 0 
L 469 531 
Q 828 903 1448 1529 
Q 2069 2156 2228 2338 
Q 2531 2678 2651 2914 
Q 2772 3150 2772 3378 
Q 2772 3750 2511 3984 
Q 2250 4219 1831 4219 
Q 1534 4219 1204 4116 
Q 875 4013 500 3803 
L 500 4441 
Q 881 4594 1212 4672 
Q 1544 4750 1819 4750 
Q 2544 4750 2975 4387 
Q 3406 4025 3406 3419 
Q 3406 3131 3298 2873 
Q 3191 2616 2906 2266 
Q 2828 2175 2409 1742 
Q 1991 1309 1228 531 
z
" transform="scale(0.015625)"/>
       </defs>
       <use xlink:href="#DejaVuSans-32"/>
      </g>
     </g>
    </g>
    <g id="xtick_4">
     <g id="line2d_4">
      <g>
       <use xlink:href="#mf26cb9ba50" x="397.643414" y="534.04" style="stroke: #000000; stroke-width: 0.8"/>
      </g>
     </g>
     <g id="text_4">
      <!-- 3 -->
      <g transform="translate(394.462164 548.638438) scale(0.1 -0.1)">
       <defs>
        <path id="DejaVuSans-33" d="M 2597 2516 
Q 3050 2419 3304 2112 
Q 3559 1806 3559 1356 
Q 3559 666 3084 287 
Q 2609 -91 1734 -91 
Q 1441 -91 1130 -33 
Q 819 25 488 141 
L 488 750 
Q 750 597 1062 519 
Q 1375 441 1716 441 
Q 2309 441 2620 675 
Q 2931 909 2931 1356 
Q 2931 1769 2642 2001 
Q 2353 2234 1838 2234 
L 1294 2234 
L 1294 2753 
L 1863 2753 
Q 2328 2753 2575 2939 
Q 2822 3125 2822 3475 
Q 2822 3834 2567 4026 
Q 2313 4219 1838 4219 
Q 1578 4219 1281 4162 
Q 984 4106 628 3988 
L 628 4550 
Q 988 4650 1302 4700 
Q 1616 4750 1894 4750 
Q 2613 4750 3031 4423 
Q 3450 4097 3450 3541 
Q 3450 3153 3228 2886 
Q 3006 2619 2597 2516 
z
" transform="scale(0.015625)"/>
       </defs>
       <use xlink:href="#DejaVuSans-33"/>
      </g>
     </g>
    </g>
    <g id="xtick_5">
     <g id="line2d_5">
      <g>
       <use xlink:href="#mf26cb9ba50" x="502.375887" y="534.04" style="stroke: #000000; stroke-width: 0.8"/>
      </g>
     </g>
     <g id="text_5">
      <!-- 4 -->
      <g transform="translate(499.194637 548.638438) scale(0.1 -0.1)">
       <defs>
        <path id="DejaVuSans-34" d="M 2419 4116 
L 825 1625 
L 2419 1625 
L 2419 4116 
z
M 2253 4666 
L 3047 4666 
L 3047 1625 
L 3713 1625 
L 3713 1100 
L 3047 1100 
L 3047 0 
L 2419 0 
L 2419 1100 
L 313 1100 
L 313 1709 
L 2253 4666 
z
" transform="scale(0.015625)"/>
       </defs>
       <use xlink:href="#DejaVuSans-34"/>
      </g>
     </g>
    </g>
    <g id="xtick_6">
     <g id="line2d_6">
      <g>
       <use xlink:href="#mf26cb9ba50" x="607.108361" y="534.04" style="stroke: #000000; stroke-width: 0.8"/>
      </g>
     </g>
     <g id="text_6">
      <!-- 5 -->
      <g transform="translate(603.927111 548.638438) scale(0.1 -0.1)">
       <defs>
        <path id="DejaVuSans-35" d="M 691 4666 
L 3169 4666 
L 3169 4134 
L 1269 4134 
L 1269 2991 
Q 1406 3038 1543 3061 
Q 1681 3084 1819 3084 
Q 2600 3084 3056 2656 
Q 3513 2228 3513 1497 
Q 3513 744 3044 326 
Q 2575 -91 1722 -91 
Q 1428 -91 1123 -41 
Q 819 9 494 109 
L 494 744 
Q 775 591 1075 516 
Q 1375 441 1709 441 
Q 2250 441 2565 725 
Q 2881 1009 2881 1497 
Q 2881 1984 2565 2268 
Q 2250 2553 1709 2553 
Q 1456 2553 1204 2497 
Q 953 2441 691 2322 
L 691 4666 
z
" transform="scale(0.015625)"/>
       </defs>
       <use xlink:href="#DejaVuSans-35"/>
      </g>
     </g>
    </g>
    <g id="xtick_7">
     <g id="line2d_7">
      <g>
       <use xlink:href="#mf26cb9ba50" x="711.840835" y="534.04" style="stroke: #000000; stroke-width: 0.8"/>
      </g>
     </g>
     <g id="text_7">
      <!-- 6 -->
      <g transform="translate(708.659585 548.638438) scale(0.1 -0.1)">
       <defs>
        <path id="DejaVuSans-36" d="M 2113 2584 
Q 1688 2584 1439 2293 
Q 1191 2003 1191 1497 
Q 1191 994 1439 701 
Q 1688 409 2113 409 
Q 2538 409 2786 701 
Q 3034 994 3034 1497 
Q 3034 2003 2786 2293 
Q 2538 2584 2113 2584 
z
M 3366 4563 
L 3366 3988 
Q 3128 4100 2886 4159 
Q 2644 4219 2406 4219 
Q 1781 4219 1451 3797 
Q 1122 3375 1075 2522 
Q 1259 2794 1537 2939 
Q 1816 3084 2150 3084 
Q 2853 3084 3261 2657 
Q 3669 2231 3669 1497 
Q 3669 778 3244 343 
Q 2819 -91 2113 -91 
Q 1303 -91 875 529 
Q 447 1150 447 2328 
Q 447 3434 972 4092 
Q 1497 4750 2381 4750 
Q 2619 4750 2861 4703 
Q 3103 4656 3366 4563 
z
" transform="scale(0.015625)"/>
       </defs>
       <use xlink:href="#DejaVuSans-36"/>
      </g>
     </g>
    </g>
    <g id="xtick_8">
     <g id="line2d_8">
      <g>
       <use xlink:href="#mf26cb9ba50" x="816.573308" y="534.04" style="stroke: #000000; stroke-width: 0.8"/>
      </g>
     </g>
     <g id="text_8">
      <!-- 7 -->
      <g transform="translate(813.392058 548.638438) scale(0.1 -0.1)">
       <defs>
        <path id="DejaVuSans-37" d="M 525 4666 
L 3525 4666 
L 3525 4397 
L 1831 0 
L 1172 0 
L 2766 4134 
L 525 4134 
L 525 4666 
z
" transform="scale(0.015625)"/>
       </defs>
       <use xlink:href="#DejaVuSans-37"/>
      </g>
     </g>
    </g>
    <g id="text_9">
     <!-- Retention Time (min) -->
     <g transform="translate(397.61 562.316562) scale(0.1 -0.1)">
      <defs>
       <path id="DejaVuSans-52" d="M 2841 2188 
Q 3044 2119 3236 1894 
Q 3428 1669 3622 1275 
L 4263 0 
L 3584 0 
L 2988 1197 
Q 2756 1666 2539 1819 
Q 2322 1972 1947 1972 
L 1259 1972 
L 1259 0 
L 628 0 
L 628 4666 
L 2053 4666 
Q 2853 4666 3247 4331 
Q 3641 3997 3641 3322 
Q 3641 2881 3436 2590 
Q 3231 2300 2841 2188 
z
M 1259 4147 
L 1259 2491 
L 2053 2491 
Q 2509 2491 2742 2702 
Q 2975 2913 2975 3322 
Q 2975 3731 2742 3939 
Q 2509 4147 2053 4147 
L 1259 4147 
z
" transform="scale(0.015625)"/>
       <path id="DejaVuSans-65" d="M 3597 1894 
L 3597 1613 
L 953 1613 
Q 991 1019 1311 708 
Q 1631 397 2203 397 
Q 2534 397 2845 478 
Q 3156 559 3463 722 
L 3463 178 
Q 3153 47 2828 -22 
Q 2503 -91 2169 -91 
Q 1331 -91 842 396 
Q 353 884 353 1716 
Q 353 2575 817 3079 
Q 1281 3584 2069 3584 
Q 2775 3584 3186 3129 
Q 3597 2675 3597 1894 
z
M 3022 2063 
Q 3016 2534 2758 2815 
Q 2500 3097 2075 3097 
Q 1594 3097 1305 2825 
Q 1016 2553 972 2059 
L 3022 2063 
z
" transform="scale(0.015625)"/>
       <path id="DejaVuSans-74" d="M 1172 4494 
L 1172 3500 
L 2356 3500 
L 2356 3053 
L 1172 3053 
L 1172 1153 
Q 1172 725 1289 603 
Q 1406 481 1766 481 
L 2356 481 
L 2356 0 
L 1766 0 
Q 1100 0 847 248 
Q 594 497 594 1153 
L 594 3053 
L 172 3053 
L 172 3500 
L 594 3500 
L 594 4494 
L 1172 4494 
z
" transform="scale(0.015625)"/>
       <path id="DejaVuSans-6e" d="M 3513 2113 
L 3513 0 
L 2938 0 
L 2938 2094 
Q 2938 2591 2744 2837 
Q 2550 3084 2163 3084 
Q 1697 3084 1428 2787 
Q 1159 2491 1159 1978 
L 1159 0 
L 581 0 
L 581 3500 
L 1159 3500 
L 1159 2956 
Q 1366 3272 1645 3428 
Q 1925 3584 2291 3584 
Q 2894 3584 3203 3211 
Q 3513 2838 3513 2113 
z
" transform="scale(0.015625)"/>
       <path id="DejaVuSans-69" d="M 603 3500 
L 1178 3500 
L 1178 0 
L 603 0 
L 603 3500 
z
M 603 4863 
L 1178 4863 
L 1178 4134 
L 603 4134 
L 603 4863 
z
" transform="scale(0.015625)"/>
       <path id="DejaVuSans-6f" d="M 1959 3097 
Q 1497 3097 1228 2736 
Q 959 2375 959 1747 
Q 959 1119 1226 758 
Q 1494 397 1959 397 
Q 2419 397 2687 759 
Q 2956 1122 2956 1747 
Q 2956 2369 2687 2733 
Q 2419 3097 1959 3097 
z
M 1959 3584 
Q 2709 3584 3137 3096 
Q 3566 2609 3566 1747 
Q 3566 888 3137 398 
Q 2709 -91 1959 -91 
Q 1206 -91 779 398 
Q 353 888 353 1747 
Q 353 2609 779 3096 
Q 1206 3584 1959 3584 
z
" transform="scale(0.015625)"/>
       <path id="DejaVuSans-20" transform="scale(0.015625)"/>
       <path id="DejaVuSans-54" d="M -19 4666 
L 3928 4666 
L 3928 4134 
L 2272 4134 
L 2272 0 
L 1638 0 
L 1638 4134 
L -19 4134 
L -19 4666 
z
" transform="scale(0.015625)"/>
       <path id="DejaVuSans-6d" d="M 3328 2828 
Q 3544 3216 3844 3400 
Q 4144 3584 4550 3584 
Q 5097 3584 5394 3201 
Q 5691 2819 5691 2113 
L 5691 0 
L 5113 0 
L 5113 2094 
Q 5113 2597 4934 2840 
Q 4756 3084 4391 3084 
Q 3944 3084 3684 2787 
Q 3425 2491 3425 1978 
L 3425 0 
L 2847 0 
L 2847 2094 
Q 2847 2600 2669 2842 
Q 2491 3084 2119 3084 
Q 1678 3084 1418 2786 
Q 1159 2488 1159 1978 
L 1159 0 
L 581 0 
L 581 3500 
L 1159 3500 
L 1159 2956 
Q 1356 3278 1631 3431 
Q 1906 3584 2284 3584 
Q 2666 3584 2933 3390 
Q 3200 3197 3328 2828 
z
" transform="scale(0.015625)"/>
       <path id="DejaVuSans-28" d="M 1984 4856 
Q 1566 4138 1362 3434 
Q 1159 2731 1159 2009 
Q 1159 1288 1364 580 
Q 1569 -128 1984 -844 
L 1484 -844 
Q 1016 -109 783 600 
Q 550 1309 550 2009 
Q 550 2706 781 3412 
Q 1013 4119 1484 4856 
L 1984 4856 
z
" transform="scale(0.015625)"/>
       <path id="DejaVuSans-29" d="M 513 4856 
L 1013 4856 
Q 1481 4119 1714 3412 
Q 1947 2706 1947 2009 
Q 1947 1309 1714 600 
Q 1481 -109 1013 -844 
L 513 -844 
Q 928 -128 1133 580 
Q 1338 1288 1338 2009 
Q 1338 2731 1133 3434 
Q 928 4138 513 4856 
z
" transform="scale(0.015625)"/>
      </defs>
      <use xlink:href="#DejaVuSans-52"/>
      <use xlink:href="#DejaVuSans-65" x="64.982422"/>
      <use xlink:href="#DejaVuSans-74" x="126.505859"/>
      <use xlink:href="#DejaVuSans-65" x="165.714844"/>
      <use xlink:href="#DejaVuSans-6e" x="227.238281"/>
      <use xlink:href="#DejaVuSans-74" x="290.617188"/>
      <use xlink:href="#DejaVuSans-69" x="329.826172"/>
      <use xlink:href="#DejaVuSans-6f" x="357.609375"/>
      <use xlink:href="#DejaVuSans-6e" x="418.791016"/>
      <use xlink:href="#DejaVuSans-20" x="482.169922"/>
      <use xlink:href="#DejaVuSans-54" x="513.957031"/>
      <use xlink:href="#DejaVuSans-69" x="571.916016"/>
      <use xlink:href="#DejaVuSans-6d" x="599.699219"/>
      <use xlink:href="#DejaVuSans-65" x="697.111328"/>
      <use xlink:href="#DejaVuSans-20" x="758.634766"/>
      <use xlink:href="#DejaVuSans-28" x="790.421875"/>
      <use xlink:href="#DejaVuSans-6d" x="829.435547"/>
      <use xlink:href="#DejaVuSans-69" x="926.847656"/>
      <use xlink:href="#DejaVuSans-6e" x="954.630859"/>
      <use xlink:href="#DejaVuSans-29" x="1018.009766"/>
     </g>
    </g>
   </g>
   <g id="matplotlib.axis_2">
    <g id="ytick_1">
     <g id="line2d_9">
      <defs>
       <path id="m6a0e392115" d="M 0 0 
L -3.5 0 
" style="stroke: #000000; stroke-width: 0.8"/>
      </defs>
      <g>
       <use xlink:href="#m6a0e392115" x="47.72" y="508.404243" style="stroke: #000000; stroke-width: 0.8"/>
      </g>
     </g>
     <g id="text_10">
      <!-- 0.0 -->
      <g style="fill: #0000ff" transform="translate(24.816875 512.203462) scale(0.1 -0.1)">
       <defs>
        <path id="DejaVuSans-2e" d="M 684 794 
L 1344 794 
L 1344 0 
L 684 0 
L 684 794 
z
" transform="scale(0.015625)"/>
       </defs>
       <use xlink:href="#DejaVuSans-30"/>
       <use xlink:href="#DejaVuSans-2e" x="63.623047"/>
       <use xlink:href="#DejaVuSans-30" x="95.410156"/>
      </g>
     </g>
    </g>
    <g id="ytick_2">
     <g id="line2d_10">
      <g>
       <use xlink:href="#m6a0e392115" x="47.72" y="416.70994" style="stroke: #000000; stroke-width: 0.8"/>
      </g>
     </g>
     <g id="text_11">
      <!-- 0.5 -->
      <g style="fill: #0000ff" transform="translate(24.816875 420.509158) scale(0.1 -0.1)">
       <use xlink:href="#DejaVuSans-30"/>
       <use xlink:href="#DejaVuSans-2e" x="63.623047"/>
       <use xlink:href="#DejaVuSans-35" x="95.410156"/>
      </g>
     </g>
    </g>
    <g id="ytick_3">
     <g id="line2d_11">
      <g>
       <use xlink:href="#m6a0e392115" x="47.72" y="325.015637" style="stroke: #000000; stroke-width: 0.8"/>
      </g>
     </g>
     <g id="text_12">
      <!-- 1.0 -->
      <g style="fill: #0000ff" transform="translate(24.816875 328.814855) scale(0.1 -0.1)">
       <use xlink:href="#DejaVuSans-31"/>
       <use xlink:href="#DejaVuSans-2e" x="63.623047"/>
       <use xlink:href="#DejaVuSans-30" x="95.410156"/>
      </g>
     </g>
    </g>
    <g id="ytick_4">
     <g id="line2d_12">
      <g>
       <use xlink:href="#m6a0e392115" x="47.72" y="233.321334" style="stroke: #000000; stroke-width: 0.8"/>
      </g>
     </g>
     <g id="text_13">
      <!-- 1.5 -->
      <g style="fill: #0000ff" transform="translate(24.816875 237.120552) scale(0.1 -0.1)">
       <use xlink:href="#DejaVuSans-31"/>
       <use xlink:href="#DejaVuSans-2e" x="63.623047"/>
       <use xlink:href="#DejaVuSans-35" x="95.410156"/>
      </g>
     </g>
    </g>
    <g id="ytick_5">
     <g id="line2d_13">
      <g>
       <use xlink:href="#m6a0e392115" x="47.72" y="141.62703" style="stroke: #000000; stroke-width: 0.8"/>
      </g>
     </g>
     <g id="text_14">
      <!-- 2.0 -->
      <g style="fill: #0000ff" transform="translate(24.816875 145.426249) scale(0.1 -0.1)">
       <use xlink:href="#DejaVuSans-32"/>
       <use xlink:href="#DejaVuSans-2e" x="63.623047"/>
       <use xlink:href="#DejaVuSans-30" x="95.410156"/>
      </g>
     </g>
    </g>
    <g id="ytick_6">
     <g id="line2d_14">
      <g>
       <use xlink:href="#m6a0e392115" x="47.72" y="49.932727" style="stroke: #000000; stroke-width: 0.8"/>
      </g>
     </g>
     <g id="text_15">
      <!-- 2.5 -->
      <g style="fill: #0000ff" transform="translate(24.816875 53.731946) scale(0.1 -0.1)">
       <use xlink:href="#DejaVuSans-32"/>
       <use xlink:href="#DejaVuSans-2e" x="63.623047"/>
       <use xlink:href="#DejaVuSans-35" x="95.410156"/>
      </g>
     </g>
    </g>
    <g id="text_16">
     <!-- Normalized Intensity -->
     <g style="fill: #0000ff" transform="translate(18.737187 332.167031) rotate(-90) scale(0.1 -0.1)">
      <defs>
       <path id="DejaVuSans-4e" d="M 628 4666 
L 1478 4666 
L 3547 763 
L 3547 4666 
L 4159 4666 
L 4159 0 
L 3309 0 
L 1241 3903 
L 1241 0 
L 628 0 
L 628 4666 
z
" transform="scale(0.015625)"/>
       <path id="DejaVuSans-72" d="M 2631 2963 
Q 2534 3019 2420 3045 
Q 2306 3072 2169 3072 
Q 1681 3072 1420 2755 
Q 1159 2438 1159 1844 
L 1159 0 
L 581 0 
L 581 3500 
L 1159 3500 
L 1159 2956 
Q 1341 3275 1631 3429 
Q 1922 3584 2338 3584 
Q 2397 3584 2469 3576 
Q 2541 3569 2628 3553 
L 2631 2963 
z
" transform="scale(0.015625)"/>
       <path id="DejaVuSans-61" d="M 2194 1759 
Q 1497 1759 1228 1600 
Q 959 1441 959 1056 
Q 959 750 1161 570 
Q 1363 391 1709 391 
Q 2188 391 2477 730 
Q 2766 1069 2766 1631 
L 2766 1759 
L 2194 1759 
z
M 3341 1997 
L 3341 0 
L 2766 0 
L 2766 531 
Q 2569 213 2275 61 
Q 1981 -91 1556 -91 
Q 1019 -91 701 211 
Q 384 513 384 1019 
Q 384 1609 779 1909 
Q 1175 2209 1959 2209 
L 2766 2209 
L 2766 2266 
Q 2766 2663 2505 2880 
Q 2244 3097 1772 3097 
Q 1472 3097 1187 3025 
Q 903 2953 641 2809 
L 641 3341 
Q 956 3463 1253 3523 
Q 1550 3584 1831 3584 
Q 2591 3584 2966 3190 
Q 3341 2797 3341 1997 
z
" transform="scale(0.015625)"/>
       <path id="DejaVuSans-6c" d="M 603 4863 
L 1178 4863 
L 1178 0 
L 603 0 
L 603 4863 
z
" transform="scale(0.015625)"/>
       <path id="DejaVuSans-7a" d="M 353 3500 
L 3084 3500 
L 3084 2975 
L 922 459 
L 3084 459 
L 3084 0 
L 275 0 
L 275 525 
L 2438 3041 
L 353 3041 
L 353 3500 
z
" transform="scale(0.015625)"/>
       <path id="DejaVuSans-64" d="M 2906 2969 
L 2906 4863 
L 3481 4863 
L 3481 0 
L 2906 0 
L 2906 525 
Q 2725 213 2448 61 
Q 2172 -91 1784 -91 
Q 1150 -91 751 415 
Q 353 922 353 1747 
Q 353 2572 751 3078 
Q 1150 3584 1784 3584 
Q 2172 3584 2448 3432 
Q 2725 3281 2906 2969 
z
M 947 1747 
Q 947 1113 1208 752 
Q 1469 391 1925 391 
Q 2381 391 2643 752 
Q 2906 1113 2906 1747 
Q 2906 2381 2643 2742 
Q 2381 3103 1925 3103 
Q 1469 3103 1208 2742 
Q 947 2381 947 1747 
z
" transform="scale(0.015625)"/>
       <path id="DejaVuSans-49" d="M 628 4666 
L 1259 4666 
L 1259 0 
L 628 0 
L 628 4666 
z
" transform="scale(0.015625)"/>
       <path id="DejaVuSans-73" d="M 2834 3397 
L 2834 2853 
Q 2591 2978 2328 3040 
Q 2066 3103 1784 3103 
Q 1356 3103 1142 2972 
Q 928 2841 928 2578 
Q 928 2378 1081 2264 
Q 1234 2150 1697 2047 
L 1894 2003 
Q 2506 1872 2764 1633 
Q 3022 1394 3022 966 
Q 3022 478 2636 193 
Q 2250 -91 1575 -91 
Q 1294 -91 989 -36 
Q 684 19 347 128 
L 347 722 
Q 666 556 975 473 
Q 1284 391 1588 391 
Q 1994 391 2212 530 
Q 2431 669 2431 922 
Q 2431 1156 2273 1281 
Q 2116 1406 1581 1522 
L 1381 1569 
Q 847 1681 609 1914 
Q 372 2147 372 2553 
Q 372 3047 722 3315 
Q 1072 3584 1716 3584 
Q 2034 3584 2315 3537 
Q 2597 3491 2834 3397 
z
" transform="scale(0.015625)"/>
       <path id="DejaVuSans-79" d="M 2059 -325 
Q 1816 -950 1584 -1140 
Q 1353 -1331 966 -1331 
L 506 -1331 
L 506 -850 
L 844 -850 
Q 1081 -850 1212 -737 
Q 1344 -625 1503 -206 
L 1606 56 
L 191 3500 
L 800 3500 
L 1894 763 
L 2988 3500 
L 3597 3500 
L 2059 -325 
z
" transform="scale(0.015625)"/>
      </defs>
      <use xlink:href="#DejaVuSans-4e"/>
      <use xlink:href="#DejaVuSans-6f" x="74.804688"/>
      <use xlink:href="#DejaVuSans-72" x="135.986328"/>
      <use xlink:href="#DejaVuSans-6d" x="175.349609"/>
      <use xlink:href="#DejaVuSans-61" x="272.761719"/>
      <use xlink:href="#DejaVuSans-6c" x="334.041016"/>
      <use xlink:href="#DejaVuSans-69" x="361.824219"/>
      <use xlink:href="#DejaVuSans-7a" x="389.607422"/>
      <use xlink:href="#DejaVuSans-65" x="442.097656"/>
      <use xlink:href="#DejaVuSans-64" x="503.621094"/>
      <use xlink:href="#DejaVuSans-20" x="567.097656"/>
      <use xlink:href="#DejaVuSans-49" x="598.884766"/>
      <use xlink:href="#DejaVuSans-6e" x="628.376953"/>
      <use xlink:href="#DejaVuSans-74" x="691.755859"/>
      <use xlink:href="#DejaVuSans-65" x="730.964844"/>
      <use xlink:href="#DejaVuSans-6e" x="792.488281"/>
      <use xlink:href="#DejaVuSans-73" x="855.867188"/>
      <use xlink:href="#DejaVuSans-69" x="907.966797"/>
      <use xlink:href="#DejaVuSans-74" x="935.75"/>
      <use xlink:href="#DejaVuSans-79" x="974.958984"/>
     </g>
    </g>
   </g>
   <g id="line2d_15">
    <path d="M 84.332727 508.404244 
L 90.442122 508.297582 
L 101.78814 507.71705 
L 105.279222 507.801454 
L 113.134158 508.109124 
L 122.734634 508.077369 
L 127.098487 507.884476 
L 127.971258 507.700516 
L 128.844029 507.368595 
L 131.46234 506.081106 
L 132.335111 505.921707 
L 134.080652 506.076834 
L 136.698964 506.613386 
L 137.571735 506.817731 
L 138.444505 506.856855 
L 139.317276 506.546054 
L 140.190047 505.792985 
L 141.935588 503.348367 
L 142.808358 502.126915 
L 143.681129 501.168118 
L 144.5539 500.554659 
L 145.42667 500.352699 
L 146.299441 500.500042 
L 147.172212 500.516514 
L 148.044982 499.579198 
L 148.917753 497.285058 
L 149.790523 494.346746 
L 150.663294 492.237053 
L 151.536065 492.062421 
L 152.408835 493.840086 
L 155.027147 502.456232 
L 155.899918 504.573241 
L 156.772688 506.236363 
L 157.645459 507.585556 
L 159.391 509.708529 
L 160.263771 510.474934 
L 161.136541 510.929854 
L 162.009312 510.987273 
L 162.882083 510.637641 
L 163.754853 509.970127 
L 165.500394 508.343683 
L 166.373165 507.703379 
L 167.245936 507.28919 
L 168.118706 507.086988 
L 169.864247 507.065614 
L 175.100871 507.34614 
L 197.792907 507.654871 
L 210.884466 507.355518 
L 215.248319 507.099387 
L 217.866631 506.722731 
L 223.976026 505.563284 
L 225.721567 505.665537 
L 231.830961 506.342374 
L 234.449273 506.40521 
L 237.067585 506.181106 
L 240.558667 505.750456 
L 242.304208 505.706116 
L 244.92252 505.805312 
L 245.795291 505.686971 
L 246.668062 505.395265 
L 248.413603 504.595585 
L 249.286373 504.355822 
L 250.159144 504.309425 
L 254.522997 504.748887 
L 258.01408 504.753222 
L 261.505162 504.800252 
L 264.123474 504.710349 
L 265.869015 504.639291 
L 269.360098 504.761643 
L 272.85118 504.423846 
L 274.596721 504.708343 
L 277.215033 505.339169 
L 278.960574 505.406125 
L 282.451657 505.291629 
L 285.942739 505.454863 
L 286.81551 505.347863 
L 288.561051 504.806669 
L 290.306592 504.23001 
L 291.179363 504.102059 
L 293.797675 504.156408 
L 294.670445 503.88275 
L 296.415987 503.084833 
L 297.288757 503.034757 
L 298.161528 503.323712 
L 300.77984 504.78103 
L 301.65261 505.061295 
L 303.398151 505.241561 
L 305.143693 505.310542 
L 310.380316 505.975637 
L 312.125858 505.919453 
L 313.871399 505.626137 
L 315.61694 505.269598 
L 316.489711 505.233872 
L 319.108023 505.54502 
L 319.980793 504.537003 
L 320.853564 500.459671 
L 321.726334 491.069878 
L 322.599105 476.269372 
L 323.471876 458.119698 
L 324.344646 436.768251 
L 325.217417 408.961145 
L 326.962958 342.096258 
L 327.835729 325.015637 
L 328.708499 330.414265 
L 329.58127 354.947029 
L 331.326811 421.571089 
L 332.199582 447.732383 
L 333.072352 465.745578 
L 333.945123 477.151311 
L 334.817894 484.382922 
L 335.690664 489.396712 
L 336.563435 493.262105 
L 337.436205 496.372558 
L 338.308976 498.814495 
L 339.181747 500.630415 
L 340.054517 501.91842 
L 340.927288 502.819079 
L 341.800059 503.469092 
L 343.5456 504.383953 
L 345.291141 505.033989 
L 347.036682 505.494964 
L 348.782223 505.749575 
L 350.527765 505.730764 
L 352.273306 505.696553 
L 354.018847 505.95608 
L 356.637159 506.45836 
L 363.619324 507.103062 
L 365.364865 507.137443 
L 366.237636 507.022419 
L 368.855948 506.35187 
L 369.728718 506.348763 
L 371.474259 506.771624 
L 373.219801 507.245052 
L 374.965342 507.471645 
L 380.201966 507.682039 
L 408.130625 508.181469 
L 414.24002 508.010925 
L 422.094955 507.93438 
L 423.840496 507.69324 
L 425.586037 507.462679 
L 427.331579 507.624226 
L 429.949891 507.984389 
L 434.313744 508.146584 
L 444.786991 508.309471 
L 450.896385 508.227854 
L 455.260238 508.261002 
L 474.461192 508.370184 
L 501.517081 508.328704 
L 522.463576 508.326978 
L 534.682364 508.308034 
L 566.974877 508.288948 
L 594.030766 508.277536 
L 730.182982 508.34055 
L 743.274541 508.360587 
L 769.45766 508.265243 
L 816.587273 508.280888 
L 816.587273 508.280888 
" clip-path="url(#p5713a24357)" style="fill: none; stroke: #0000ff; stroke-width: 1.5; stroke-linecap: square"/>
   </g>
   <g id="line2d_16">
    <path d="M 87.320221 233.222325 
L 87.320221 233.236771 
L 91.185373 233.289548 
L 146.298219 233.291317 
L 152.454917 233.171289 
L 154.819253 233.130325 
L 157.42395 233.244871 
L 157.42395 233.234339 
L 160.982934 233.145866 
L 160.982934 233.068128 
L 162.168331 233.105101 
L 163.59758 233.144909 
L 165.736741 233.250866 
L 193.49713 233.281506 
L 249.003421 233.199173 
L 249.003421 233.18496 
L 251.023711 233.140186 
L 251.023711 233.086073 
L 257.085452 233.206397 
L 257.085452 233.192821 
L 262.90753 233.23538 
L 262.90753 233.229513 
L 265.686082 233.253585 
L 265.686082 233.251119 
L 267.201561 233.253742 
L 267.201561 233.262024 
L 269.982732 233.259141 
L 272.759539 233.271747 
L 279.558946 233.280862 
L 279.558946 233.270003 
L 291.95578 233.091717 
L 291.95578 233.069011 
L 293.974323 233.084573 
L 293.974323 233.070331 
L 297.764068 233.026405 
L 297.764068 232.984068 
L 310.173819 233.265289 
L 310.173819 233.241477 
L 314.751501 233.250153 
L 314.751501 233.265104 
L 318.043591 233.225607 
L 318.043591 233.244951 
L 320.321523 233.249736 
L 321.593324 233.147604 
L 321.847475 233.08708 
L 321.847475 232.949121 
L 322.100229 232.772202 
L 322.100229 232.498903 
L 322.353333 232.213898 
L 322.353333 231.765668 
L 322.60696 231.097111 
L 322.60696 230.010515 
L 322.858492 228.578893 
L 322.858492 226.06955 
L 323.11212 224.440376 
L 323.11212 221.666941 
L 323.361907 219.875835 
L 323.361907 216.356148 
L 323.610472 215.587823 
L 323.610472 211.696975 
L 323.857466 210.625597 
L 323.857466 205.12754 
L 324.103587 203.148849 
L 324.103587 197.548058 
L 324.350057 194.652814 
L 324.350057 186.389773 
L 324.593386 183.208386 
L 324.593386 171.801522 
L 324.835143 172.004523 
L 324.835143 165.504388 
L 325.074108 164.581094 
L 325.074108 152.773066 
L 325.31412 159.89123 
L 325.31412 149.996716 
L 325.553084 148.636566 
L 325.553084 138.217673 
L 325.791002 149.131164 
L 325.791002 139.424568 
L 326.029966 143.468521 
L 326.029966 136.052902 
L 326.268582 145.688789 
L 326.268582 139.84232 
L 326.506324 147.169845 
L 326.506324 138.56975 
L 326.748431 146.499176 
L 326.748431 135.323176 
L 326.986872 141.215277 
L 326.986872 134.051926 
L 327.225487 138.026819 
L 327.225487 123.907813 
L 327.462357 130.341618 
L 327.462357 119.177731 
L 327.699053 114.066121 
L 327.699053 100.156133 
L 327.935574 106.521504 
L 327.935574 87.25004 
L 328.17192 90.48887 
L 328.17192 81.022514 
L 328.408092 86.911909 
L 328.408092 66.410738 
L 328.645834 83.51179 
L 328.645834 67.165091 
L 328.881308 75.05642 
L 328.881308 56.254632 
L 329.116258 74.131425 
L 329.116258 49.932727 
L 329.587903 78.158924 
L 329.587903 58.215291 
L 329.823551 84.676109 
L 329.823551 72.510234 
L 330.059723 86.850328 
L 330.059723 82.492639 
L 330.300433 112.118939 
L 330.300433 102.955819 
L 330.535732 117.013384 
L 330.535732 104.332039 
L 330.771904 116.654109 
L 330.771904 100.413458 
L 331.24512 121.960203 
L 331.24512 110.498486 
L 331.48199 132.356007 
L 331.48199 126.602371 
L 331.719558 134.156457 
L 331.719558 123.810611 
L 331.956952 144.791796 
L 331.956952 137.734701 
L 332.194345 145.388847 
L 332.194345 139.347702 
L 332.431215 158.105441 
L 332.431215 151.786921 
L 332.669132 157.466856 
L 332.669132 149.515328 
L 332.907748 163.764475 
L 332.907748 159.885608 
L 333.146538 163.048421 
L 333.146538 157.966447 
L 333.386201 170.543707 
L 333.386201 165.740396 
L 333.626213 169.45474 
L 333.626213 166.487405 
L 333.868668 174.355143 
L 333.868668 166.436781 
L 334.348343 179.365003 
L 334.348343 174.224351 
L 334.589402 182.519851 
L 334.589402 176.598108 
L 335.070124 188.890012 
L 335.070124 183.636016 
L 335.314849 189.784304 
L 335.314849 184.063198 
L 336.040994 198.505759 
L 336.040994 193.299398 
L 336.285894 195.489694 
L 336.285894 192.36105 
L 336.774122 200.714747 
L 336.774122 200.428465 
L 337.018148 206.695765 
L 337.018148 205.951341 
L 337.26427 210.076767 
L 337.26427 208.291372 
L 337.513882 210.873522 
L 337.513882 208.503407 
L 337.759654 211.722267 
L 337.759654 210.033413 
L 338.00595 212.657924 
L 338.00595 211.329049 
L 338.252246 214.675767 
L 338.252246 213.006274 
L 338.499065 215.237064 
L 338.499065 214.125663 
L 338.746932 216.539531 
L 338.746932 215.053598 
L 338.994101 217.174982 
L 338.994101 216.14292 
L 339.24127 217.83667 
L 339.24127 216.389195 
L 339.488438 217.912725 
L 339.488438 216.003122 
L 339.983474 218.979621 
L 339.983474 218.13901 
L 340.230992 220.67273 
L 340.230992 219.427706 
L 340.479207 220.771867 
L 340.479207 219.515786 
L 340.727074 221.290447 
L 340.727074 220.107339 
L 340.975639 221.568723 
L 340.975639 220.410502 
L 341.229965 221.39289 
L 341.229965 219.459436 
L 341.477308 220.364408 
L 341.477308 218.850304 
L 341.725 219.809328 
L 341.725 218.834671 
L 341.972518 220.57726 
L 341.972518 219.450497 
L 342.220385 220.767513 
L 342.220385 219.730826 
L 342.468252 220.886442 
L 342.468252 220.063504 
L 342.716119 221.459337 
L 342.716119 220.479557 
L 342.964684 221.715078 
L 342.964684 220.916789 
L 343.213772 222.053008 
L 343.213772 221.233618 
L 343.712473 223.906717 
L 343.712473 223.506151 
L 343.962086 224.913524 
L 343.962086 224.364516 
L 344.212396 225.545884 
L 344.212396 224.888235 
L 344.463056 225.652758 
L 344.463056 224.910599 
L 344.716509 225.571552 
L 344.716509 224.571583 
L 344.966121 225.272031 
L 344.966121 224.543661 
L 345.468139 226.684338 
L 345.468139 226.433325 
L 345.719322 227.2797 
L 345.719322 226.325365 
L 345.969284 226.683535 
L 345.969284 225.833446 
L 346.219245 226.393408 
L 346.219245 225.751456 
L 346.720565 227.428692 
L 346.720565 227.095026 
L 346.972446 227.942707 
L 346.972446 227.365393 
L 347.224153 227.888627 
L 347.224153 227.078202 
L 347.474813 227.565646 
L 347.474813 227.114943 
L 347.978751 228.47266 
L 347.978751 228.184405 
L 348.234298 228.843185 
L 348.234298 228.291196 
L 348.485656 228.808625 
L 348.485656 228.478699 
L 348.741901 229.001542 
L 348.741901 228.538036 
L 348.993783 229.112475 
L 348.993783 228.671734 
L 349.244617 229.193133 
L 349.244617 228.75741 
L 349.49807 229.356566 
L 349.49807 229.103586 
L 349.750999 229.591779 
L 349.750999 229.161989 
L 350.002008 229.627636 
L 350.002008 229.259485 
L 350.254064 229.717281 
L 350.254064 229.474787 
L 350.506818 230.026098 
L 350.506818 229.767092 
L 350.759573 230.089606 
L 350.759573 229.621932 
L 351.011105 230.0034 
L 351.011105 229.604799 
L 351.515566 230.518334 
L 351.515566 230.262948 
L 351.77251 230.624489 
L 351.77251 230.260095 
L 352.024043 230.547427 
L 352.024043 230.329047 
L 352.277321 230.693387 
L 352.277321 230.552735 
L 352.529551 230.833288 
L 352.529551 230.437849 
L 352.78056 230.626157 
L 352.78056 230.308958 
L 353.032442 230.570072 
L 353.032442 230.371008 
L 353.536554 230.996804 
L 353.536554 230.755106 
L 353.787563 231.020334 
L 353.787563 230.708573 
L 354.038572 230.894037 
L 354.038572 230.685066 
L 354.542335 231.199406 
L 354.542335 230.96864 
L 354.795264 231.237073 
L 354.795264 231.002571 
L 355.046622 231.170302 
L 355.046622 230.863508 
L 355.555273 231.279383 
L 355.555273 231.137457 
L 355.807329 231.43918 
L 355.807329 231.174932 
L 356.05921 231.276106 
L 356.05921 231.042793 
L 356.314932 231.275564 
L 356.314932 231.136213 
L 356.568036 231.339508 
L 356.568036 231.116496 
L 356.820266 231.34939 
L 356.820266 231.115869 
L 357.326997 231.421762 
L 357.326997 231.267465 
L 357.580973 231.479522 
L 357.580973 231.26846 
L 357.833204 231.433282 
L 357.833204 231.247435 
L 358.341156 231.501035 
L 358.341156 231.250231 
L 358.594609 231.388837 
L 358.594609 231.184836 
L 359.105529 231.465751 
L 359.105529 231.363607 
L 359.358109 231.624645 
L 359.358109 231.442247 
L 359.611038 231.583086 
L 359.611038 231.391783 
L 359.871996 231.574497 
L 359.871996 231.431014 
L 360.380298 231.796636 
L 360.380298 231.632959 
L 360.634448 231.744548 
L 360.634448 231.555003 
L 361.141528 231.819379 
L 361.141528 231.707303 
L 361.395679 231.872103 
L 361.395679 231.711556 
L 361.649306 231.858434 
L 361.649306 231.698952 
L 361.904504 231.897969 
L 361.904504 231.746695 
L 362.158306 231.864816 
L 362.158306 231.667773 
L 362.419439 231.824509 
L 362.419439 231.651852 
L 362.927915 231.895952 
L 362.927915 231.757922 
L 363.183811 231.927119 
L 363.183811 231.788439 
L 363.438137 231.960465 
L 363.438137 231.843535 
L 363.693858 231.935135 
L 363.693858 231.717027 
L 363.948009 231.853787 
L 363.948009 231.736502 
L 364.458755 231.904522 
L 364.458755 231.781995 
L 365.224349 232.077788 
L 365.224349 231.975503 
L 365.480769 232.043265 
L 365.480769 231.877897 
L 365.735967 232.028155 
L 365.735967 231.886573 
L 365.995704 231.976553 
L 365.995704 231.856246 
L 366.250204 232.045042 
L 366.250204 231.902734 
L 366.505925 231.994969 
L 366.505925 231.847172 
L 367.016671 232.029335 
L 367.016671 231.942851 
L 367.273964 232.114662 
L 367.273964 231.99331 
L 367.52986 232.113051 
L 367.52986 231.987381 
L 368.042002 232.118892 
L 368.042002 232.058623 
L 368.553271 232.206287 
L 368.553271 232.094114 
L 369.067682 232.197463 
L 369.067682 232.078907 
L 369.322356 232.211308 
L 369.322356 232.103753 
L 370.093187 232.176011 
L 370.093187 232.073798 
L 370.347513 232.238628 
L 370.347513 232.121838 
L 370.858607 232.2971 
L 370.858607 232.156472 
L 371.113107 232.271017 
L 371.113107 232.182117 
L 371.369527 232.257119 
L 371.369527 232.110118 
L 371.879923 232.240261 
L 371.879923 232.141556 
L 372.135645 232.286115 
L 372.135645 232.182399 
L 372.648485 232.291416 
L 372.648485 232.15412 
L 373.165514 232.278609 
L 373.165514 232.199887 
L 373.678703 232.345489 
L 373.678703 232.237797 
L 374.192591 232.374689 
L 374.192591 232.275424 
L 374.449709 232.368857 
L 374.449709 232.236587 
L 374.706478 232.361022 
L 374.706478 232.266894 
L 375.221064 232.40438 
L 375.221064 232.322358 
L 375.737569 232.407355 
L 375.737569 232.318818 
L 376.512066 232.395908 
L 376.512066 232.343839 
L 377.02927 232.397426 
L 377.02927 232.323319 
L 377.800974 232.475841 
L 377.800974 232.4084 
L 378.057568 232.511344 
L 378.057568 232.415206 
L 378.315559 232.47949 
L 378.315559 232.361591 
L 378.82997 232.398374 
L 378.82997 232.328904 
L 379.343508 232.482066 
L 379.343508 232.395494 
L 379.858967 232.496178 
L 379.858967 232.382719 
L 380.116085 232.487055 
L 380.116085 232.409309 
L 380.636605 232.489348 
L 380.636605 232.381609 
L 381.408309 232.475011 
L 381.408309 232.41644 
L 381.667522 232.509952 
L 381.667522 232.423009 
L 382.442542 232.514067 
L 382.442542 232.458883 
L 382.69966 232.559057 
L 382.69966 232.458849 
L 383.472412 232.596278 
L 383.472412 232.51818 
L 383.992408 232.580145 
L 383.992408 232.510841 
L 384.507518 232.546962 
L 384.507518 232.46694 
L 385.539656 232.573072 
L 385.539656 232.49342 
L 386.056685 232.60991 
L 386.056685 232.555937 
L 386.573191 232.590884 
L 386.573191 232.489356 
L 387.609868 232.599067 
L 387.609868 232.55282 
L 387.869255 232.623428 
L 387.869255 232.522375 
L 388.389078 232.575196 
L 388.389078 232.506385 
L 389.164971 232.69533 
L 389.164971 232.655614 
L 389.681651 232.64475 
L 389.681651 232.551331 
L 391.239023 232.676022 
L 391.239023 232.610982 
L 392.01509 232.720424 
L 392.01509 232.629864 
L 392.532992 232.651349 
L 392.532992 232.577041 
L 393.309409 232.731935 
L 393.309409 232.676005 
L 393.827311 232.723155 
L 393.827311 232.638162 
L 394.345388 232.668889 
L 394.345388 232.609849 
L 394.866956 232.761007 
L 394.866956 232.719488 
L 395.387301 232.742121 
L 395.387301 232.67998 
L 396.164067 232.749502 
L 396.164067 232.690309 
L 396.940309 232.765694 
L 396.940309 232.705153 
L 397.458037 232.74351 
L 397.458037 232.687576 
L 398.756894 232.799907 
L 398.756894 232.750254 
L 399.274796 232.766607 
L 399.274796 232.688927 
L 400.3106 232.799372 
L 400.3106 232.73616 
L 401.087192 232.833416 
L 401.087192 232.765793 
L 402.129454 232.766157 
L 402.129454 232.748621 
L 402.647706 232.814243 
L 402.647706 232.786588 
L 403.942374 232.841062 
L 403.942374 232.767792 
L 404.719139 232.833044 
L 404.719139 232.785845 
L 405.49608 232.813538 
L 405.49608 232.766577 
L 406.537295 232.809621 
L 406.537295 232.766829 
L 407.314061 232.86166 
L 407.314061 232.820574 
L 408.608903 232.861258 
L 408.608903 232.810983 
L 409.392652 232.862696 
L 409.392652 232.811763 
L 409.910728 232.843857 
L 409.910728 232.773448 
L 411.205571 232.862899 
L 411.205571 232.803739 
L 412.241375 232.924356 
L 412.241375 232.881455 
L 413.02233 232.894865 
L 413.02233 232.845392 
L 413.79927 232.904444 
L 413.79927 232.840075 
L 415.352977 232.922284 
L 415.352977 232.874875 
L 416.391748 232.908149 
L 416.391748 232.854433 
L 417.172529 232.944661 
L 417.172529 232.909154 
L 418.467371 232.942423 
L 418.467371 232.899956 
L 420.543867 232.94118 
L 420.543867 232.907273 
L 421.83871 232.930554 
L 421.83871 232.901294 
L 422.619141 232.956975 
L 422.619141 232.926869 
L 424.4359 232.969743 
L 424.4359 232.93069 
L 438.411576 233.024174 
L 438.411576 232.989227 
L 439.965457 233.052281 
L 439.965457 233.029507 
L 441.001261 233.03748 
L 441.001261 233.00995 
L 442.040906 233.081126 
L 442.040906 233.053665 
L 442.822035 233.032052 
L 442.822035 232.994066 
L 448.004896 233.084305 
L 448.004896 233.055575 
L 449.040875 233.072572 
L 449.040875 233.025857 
L 450.860951 233.086704 
L 450.860951 233.06694 
L 451.637891 233.102215 
L 451.637891 233.070023 
L 452.937447 233.089342 
L 452.937447 233.055275 
L 455.526608 233.090327 
L 455.526608 233.078916 
L 457.083805 233.112072 
L 457.083805 233.097928 
L 459.419689 233.081984 
L 459.419689 233.061591 
L 460.459333 233.114964 
L 460.459333 233.102134 
L 461.235924 233.110682 
L 461.235924 233.086407 
L 462.530767 233.098311 
L 462.530767 233.080989 
L 464.865254 233.123482 
L 464.865254 233.09475 
L 466.679918 233.153363 
L 466.679918 233.133121 
L 468.496503 233.135931 
L 468.496503 233.121799 
L 470.309248 233.140868 
L 470.309248 233.109604 
L 472.644782 233.148686 
L 472.644782 233.134011 
L 474.723372 233.15763 
L 474.723372 233.154662 
L 490.79876 233.184 
L 490.79876 233.169266 
L 492.872463 233.203088 
L 492.872463 233.186828 
L 507.657546 233.20784 
L 510.768799 233.19488 
L 510.768799 233.179548 
L 518.29435 233.224006 
L 518.29435 233.210697 
L 526.33379 233.2363 
L 526.33379 233.220989 
L 531.780053 233.226043 
L 531.780053 233.216724 
L 535.927284 233.23922 
L 535.927284 233.222428 
L 538.006748 233.250276 
L 538.006748 233.264384 
L 540.598004 233.247037 
L 547.589245 233.242082 
L 547.589245 233.23673 
L 549.138239 233.247365 
L 549.138239 233.231023 
L 588.244995 233.248964 
L 588.244995 233.265114 
L 589.538965 233.258655 
L 589.538965 233.248213 
L 609.62194 233.241546 
L 610.898804 233.241643 
L 610.898804 233.237163 
L 614.475418 233.247003 
L 614.475418 233.266789 
L 618.306532 233.280374 
L 618.306532 233.264263 
L 619.32715 233.249354 
L 619.32715 233.279228 
L 620.854673 233.232862 
L 625.94886 233.287703 
L 625.94886 233.284655 
L 636.413729 233.271545 
L 636.413729 233.279747 
L 656.778086 233.261352 
L 656.778086 233.248781 
L 665.69431 233.279041 
L 665.69431 233.259324 
L 671.589701 233.288614 
L 671.589701 233.278606 
L 684.651412 233.273781 
L 684.651412 233.264814 
L 695.404993 233.268788 
L 697.449196 233.269719 
L 697.449196 233.261381 
L 702.049396 233.274198 
L 708.932938 233.297428 
L 712.428384 233.299968 
L 746.13269 233.285118 
L 746.13269 233.290968 
L 748.68729 233.288858 
L 752.530448 233.236741 
L 752.530448 233.274313 
L 788.447752 233.291388 
L 788.447752 233.296139 
L 811.789478 233.277061 
L 811.789478 233.277061 
" clip-path="url(#p5713a24357)" style="fill: none; stroke: #008000; stroke-width: 1.5; stroke-linecap: square"/>
   </g>
   <g id="patch_3">
    <path d="M 47.72 534.04 
L 47.72 26.88 
" style="fill: none; stroke: #000000; stroke-width: 0.8; stroke-linejoin: miter; stroke-linecap: square"/>
   </g>
   <g id="patch_4">
    <path d="M 853.2 534.04 
L 853.2 26.88 
" style="fill: none; stroke: #000000; stroke-width: 0.8; stroke-linejoin: miter; stroke-linecap: square"/>
   </g>
   <g id="patch_5">
    <path d="M 47.72 534.04 
L 853.2 534.04 
" style="fill: none; stroke: #000000; stroke-width: 0.8; stroke-linejoin: miter; stroke-linecap: square"/>
   </g>
   <g id="patch_6">
    <path d="M 47.72 26.88 
L 853.2 26.88 
" style="fill: none; stroke: #000000; stroke-width: 0.8; stroke-linejoin: miter; stroke-linecap: square"/>
   </g>
   <g id="patch_7">
    <path d="M 377.053981 317.497681 
Q 360.218922 322.724792 343.383864 327.951903 
L 344.569965 331.772003 
Q 337.949335 330.686361 331.328704 329.600719 
Q 336.170183 324.956211 341.011661 320.311703 
L 342.197762 324.131803 
Q 359.032821 318.904692 375.86788 313.677581 
L 377.053981 317.497681 
z
" style="stroke: #000000; stroke-linecap: round"/>
   </g>
   <g id="text_17">
    <!-- Peak: RT=2.34, Area=1.63e+04 -->
    <g style="fill: #ff0000" transform="translate(381.074736 300.877592) scale(0.1 -0.1)">
     <defs>
      <path id="DejaVuSans-50" d="M 1259 4147 
L 1259 2394 
L 2053 2394 
Q 2494 2394 2734 2622 
Q 2975 2850 2975 3272 
Q 2975 3691 2734 3919 
Q 2494 4147 2053 4147 
L 1259 4147 
z
M 628 4666 
L 2053 4666 
Q 2838 4666 3239 4311 
Q 3641 3956 3641 3272 
Q 3641 2581 3239 2228 
Q 2838 1875 2053 1875 
L 1259 1875 
L 1259 0 
L 628 0 
L 628 4666 
z
" transform="scale(0.015625)"/>
      <path id="DejaVuSans-6b" d="M 581 4863 
L 1159 4863 
L 1159 1991 
L 2875 3500 
L 3609 3500 
L 1753 1863 
L 3688 0 
L 2938 0 
L 1159 1709 
L 1159 0 
L 581 0 
L 581 4863 
z
" transform="scale(0.015625)"/>
      <path id="DejaVuSans-3a" d="M 750 794 
L 1409 794 
L 1409 0 
L 750 0 
L 750 794 
z
M 750 3309 
L 1409 3309 
L 1409 2516 
L 750 2516 
L 750 3309 
z
" transform="scale(0.015625)"/>
      <path id="DejaVuSans-3d" d="M 678 2906 
L 4684 2906 
L 4684 2381 
L 678 2381 
L 678 2906 
z
M 678 1631 
L 4684 1631 
L 4684 1100 
L 678 1100 
L 678 1631 
z
" transform="scale(0.015625)"/>
      <path id="DejaVuSans-2c" d="M 750 794 
L 1409 794 
L 1409 256 
L 897 -744 
L 494 -744 
L 750 256 
L 750 794 
z
" transform="scale(0.015625)"/>
      <path id="DejaVuSans-41" d="M 2188 4044 
L 1331 1722 
L 3047 1722 
L 2188 4044 
z
M 1831 4666 
L 2547 4666 
L 4325 0 
L 3669 0 
L 3244 1197 
L 1141 1197 
L 716 0 
L 50 0 
L 1831 4666 
z
" transform="scale(0.015625)"/>
      <path id="DejaVuSans-2b" d="M 2944 4013 
L 2944 2272 
L 4684 2272 
L 4684 1741 
L 2944 1741 
L 2944 0 
L 2419 0 
L 2419 1741 
L 678 1741 
L 678 2272 
L 2419 2272 
L 2419 4013 
L 2944 4013 
z
" transform="scale(0.015625)"/>
     </defs>
     <use xlink:href="#DejaVuSans-50"/>
     <use xlink:href="#DejaVuSans-65" x="56.677734"/>
     <use xlink:href="#DejaVuSans-61" x="118.201172"/>
     <use xlink:href="#DejaVuSans-6b" x="179.480469"/>
     <use xlink:href="#DejaVuSans-3a" x="237.390625"/>
     <use xlink:href="#DejaVuSans-20" x="271.082031"/>
     <use xlink:href="#DejaVuSans-52" x="302.869141"/>
     <use xlink:href="#DejaVuSans-54" x="365.101562"/>
     <use xlink:href="#DejaVuSans-3d" x="426.185547"/>
     <use xlink:href="#DejaVuSans-32" x="509.974609"/>
     <use xlink:href="#DejaVuSans-2e" x="573.597656"/>
     <use xlink:href="#DejaVuSans-33" x="605.384766"/>
     <use xlink:href="#DejaVuSans-34" x="669.007812"/>
     <use xlink:href="#DejaVuSans-2c" x="732.630859"/>
     <use xlink:href="#DejaVuSans-20" x="764.417969"/>
     <use xlink:href="#DejaVuSans-41" x="796.205078"/>
     <use xlink:href="#DejaVuSans-72" x="864.613281"/>
     <use xlink:href="#DejaVuSans-65" x="903.476562"/>
     <use xlink:href="#DejaVuSans-61" x="965"/>
     <use xlink:href="#DejaVuSans-3d" x="1026.279297"/>
     <use xlink:href="#DejaVuSans-31" x="1110.068359"/>
     <use xlink:href="#DejaVuSans-2e" x="1173.691406"/>
     <use xlink:href="#DejaVuSans-36" x="1205.478516"/>
     <use xlink:href="#DejaVuSans-33" x="1269.101562"/>
     <use xlink:href="#DejaVuSans-65" x="1332.724609"/>
     <use xlink:href="#DejaVuSans-2b" x="1394.248047"/>
     <use xlink:href="#DejaVuSans-30" x="1478.037109"/>
     <use xlink:href="#DejaVuSans-34" x="1541.660156"/>
    </g>
    <!-- (68.87% of total) -->
    <g style="fill: #ff0000" transform="translate(381.074736 312.075405) scale(0.1 -0.1)">
     <defs>
      <path id="DejaVuSans-38" d="M 2034 2216 
Q 1584 2216 1326 1975 
Q 1069 1734 1069 1313 
Q 1069 891 1326 650 
Q 1584 409 2034 409 
Q 2484 409 2743 651 
Q 3003 894 3003 1313 
Q 3003 1734 2745 1975 
Q 2488 2216 2034 2216 
z
M 1403 2484 
Q 997 2584 770 2862 
Q 544 3141 544 3541 
Q 544 4100 942 4425 
Q 1341 4750 2034 4750 
Q 2731 4750 3128 4425 
Q 3525 4100 3525 3541 
Q 3525 3141 3298 2862 
Q 3072 2584 2669 2484 
Q 3125 2378 3379 2068 
Q 3634 1759 3634 1313 
Q 3634 634 3220 271 
Q 2806 -91 2034 -91 
Q 1263 -91 848 271 
Q 434 634 434 1313 
Q 434 1759 690 2068 
Q 947 2378 1403 2484 
z
M 1172 3481 
Q 1172 3119 1398 2916 
Q 1625 2713 2034 2713 
Q 2441 2713 2670 2916 
Q 2900 3119 2900 3481 
Q 2900 3844 2670 4047 
Q 2441 4250 2034 4250 
Q 1625 4250 1398 4047 
Q 1172 3844 1172 3481 
z
" transform="scale(0.015625)"/>
      <path id="DejaVuSans-25" d="M 4653 2053 
Q 4381 2053 4226 1822 
Q 4072 1591 4072 1178 
Q 4072 772 4226 539 
Q 4381 306 4653 306 
Q 4919 306 5073 539 
Q 5228 772 5228 1178 
Q 5228 1588 5073 1820 
Q 4919 2053 4653 2053 
z
M 4653 2450 
Q 5147 2450 5437 2106 
Q 5728 1763 5728 1178 
Q 5728 594 5436 251 
Q 5144 -91 4653 -91 
Q 4153 -91 3862 251 
Q 3572 594 3572 1178 
Q 3572 1766 3864 2108 
Q 4156 2450 4653 2450 
z
M 1428 4353 
Q 1159 4353 1004 4120 
Q 850 3888 850 3481 
Q 850 3069 1003 2837 
Q 1156 2606 1428 2606 
Q 1700 2606 1854 2837 
Q 2009 3069 2009 3481 
Q 2009 3884 1853 4118 
Q 1697 4353 1428 4353 
z
M 4250 4750 
L 4750 4750 
L 1831 -91 
L 1331 -91 
L 4250 4750 
z
M 1428 4750 
Q 1922 4750 2215 4408 
Q 2509 4066 2509 3481 
Q 2509 2891 2217 2550 
Q 1925 2209 1428 2209 
Q 931 2209 642 2551 
Q 353 2894 353 3481 
Q 353 4063 643 4406 
Q 934 4750 1428 4750 
z
" transform="scale(0.015625)"/>
      <path id="DejaVuSans-66" d="M 2375 4863 
L 2375 4384 
L 1825 4384 
Q 1516 4384 1395 4259 
Q 1275 4134 1275 3809 
L 1275 3500 
L 2222 3500 
L 2222 3053 
L 1275 3053 
L 1275 0 
L 697 0 
L 697 3053 
L 147 3053 
L 147 3500 
L 697 3500 
L 697 3744 
Q 697 4328 969 4595 
Q 1241 4863 1831 4863 
L 2375 4863 
z
" transform="scale(0.015625)"/>
     </defs>
     <use xlink:href="#DejaVuSans-28"/>
     <use xlink:href="#DejaVuSans-36" x="39.013672"/>
     <use xlink:href="#DejaVuSans-38" x="102.636719"/>
     <use xlink:href="#DejaVuSans-2e" x="166.259766"/>
     <use xlink:href="#DejaVuSans-38" x="198.046875"/>
     <use xlink:href="#DejaVuSans-37" x="261.669922"/>
     <use xlink:href="#DejaVuSans-25" x="325.292969"/>
     <use xlink:href="#DejaVuSans-20" x="420.3125"/>
     <use xlink:href="#DejaVuSans-6f" x="452.099609"/>
     <use xlink:href="#DejaVuSans-66" x="513.28125"/>
     <use xlink:href="#DejaVuSans-20" x="548.486328"/>
     <use xlink:href="#DejaVuSans-74" x="580.273438"/>
     <use xlink:href="#DejaVuSans-6f" x="619.482422"/>
     <use xlink:href="#DejaVuSans-74" x="680.664062"/>
     <use xlink:href="#DejaVuSans-61" x="719.873047"/>
     <use xlink:href="#DejaVuSans-6c" x="781.152344"/>
     <use xlink:href="#DejaVuSans-29" x="808.935547"/>
    </g>
   </g>
   <g id="text_18">
    <!-- UV and MS Chromatograms of Ru_p_cymene_M11Y1, target m/z = 551.07 -->
    <g transform="translate(228.409375 20.88) scale(0.12 -0.12)">
     <defs>
      <path id="DejaVuSans-55" d="M 556 4666 
L 1191 4666 
L 1191 1831 
Q 1191 1081 1462 751 
Q 1734 422 2344 422 
Q 2950 422 3222 751 
Q 3494 1081 3494 1831 
L 3494 4666 
L 4128 4666 
L 4128 1753 
Q 4128 841 3676 375 
Q 3225 -91 2344 -91 
Q 1459 -91 1007 375 
Q 556 841 556 1753 
L 556 4666 
z
" transform="scale(0.015625)"/>
      <path id="DejaVuSans-56" d="M 1831 0 
L 50 4666 
L 709 4666 
L 2188 738 
L 3669 4666 
L 4325 4666 
L 2547 0 
L 1831 0 
z
" transform="scale(0.015625)"/>
      <path id="DejaVuSans-4d" d="M 628 4666 
L 1569 4666 
L 2759 1491 
L 3956 4666 
L 4897 4666 
L 4897 0 
L 4281 0 
L 4281 4097 
L 3078 897 
L 2444 897 
L 1241 4097 
L 1241 0 
L 628 0 
L 628 4666 
z
" transform="scale(0.015625)"/>
      <path id="DejaVuSans-53" d="M 3425 4513 
L 3425 3897 
Q 3066 4069 2747 4153 
Q 2428 4238 2131 4238 
Q 1616 4238 1336 4038 
Q 1056 3838 1056 3469 
Q 1056 3159 1242 3001 
Q 1428 2844 1947 2747 
L 2328 2669 
Q 3034 2534 3370 2195 
Q 3706 1856 3706 1288 
Q 3706 609 3251 259 
Q 2797 -91 1919 -91 
Q 1588 -91 1214 -16 
Q 841 59 441 206 
L 441 856 
Q 825 641 1194 531 
Q 1563 422 1919 422 
Q 2459 422 2753 634 
Q 3047 847 3047 1241 
Q 3047 1584 2836 1778 
Q 2625 1972 2144 2069 
L 1759 2144 
Q 1053 2284 737 2584 
Q 422 2884 422 3419 
Q 422 4038 858 4394 
Q 1294 4750 2059 4750 
Q 2388 4750 2728 4690 
Q 3069 4631 3425 4513 
z
" transform="scale(0.015625)"/>
      <path id="DejaVuSans-43" d="M 4122 4306 
L 4122 3641 
Q 3803 3938 3442 4084 
Q 3081 4231 2675 4231 
Q 1875 4231 1450 3742 
Q 1025 3253 1025 2328 
Q 1025 1406 1450 917 
Q 1875 428 2675 428 
Q 3081 428 3442 575 
Q 3803 722 4122 1019 
L 4122 359 
Q 3791 134 3420 21 
Q 3050 -91 2638 -91 
Q 1578 -91 968 557 
Q 359 1206 359 2328 
Q 359 3453 968 4101 
Q 1578 4750 2638 4750 
Q 3056 4750 3426 4639 
Q 3797 4528 4122 4306 
z
" transform="scale(0.015625)"/>
      <path id="DejaVuSans-68" d="M 3513 2113 
L 3513 0 
L 2938 0 
L 2938 2094 
Q 2938 2591 2744 2837 
Q 2550 3084 2163 3084 
Q 1697 3084 1428 2787 
Q 1159 2491 1159 1978 
L 1159 0 
L 581 0 
L 581 4863 
L 1159 4863 
L 1159 2956 
Q 1366 3272 1645 3428 
Q 1925 3584 2291 3584 
Q 2894 3584 3203 3211 
Q 3513 2838 3513 2113 
z
" transform="scale(0.015625)"/>
      <path id="DejaVuSans-67" d="M 2906 1791 
Q 2906 2416 2648 2759 
Q 2391 3103 1925 3103 
Q 1463 3103 1205 2759 
Q 947 2416 947 1791 
Q 947 1169 1205 825 
Q 1463 481 1925 481 
Q 2391 481 2648 825 
Q 2906 1169 2906 1791 
z
M 3481 434 
Q 3481 -459 3084 -895 
Q 2688 -1331 1869 -1331 
Q 1566 -1331 1297 -1286 
Q 1028 -1241 775 -1147 
L 775 -588 
Q 1028 -725 1275 -790 
Q 1522 -856 1778 -856 
Q 2344 -856 2625 -561 
Q 2906 -266 2906 331 
L 2906 616 
Q 2728 306 2450 153 
Q 2172 0 1784 0 
Q 1141 0 747 490 
Q 353 981 353 1791 
Q 353 2603 747 3093 
Q 1141 3584 1784 3584 
Q 2172 3584 2450 3431 
Q 2728 3278 2906 2969 
L 2906 3500 
L 3481 3500 
L 3481 434 
z
" transform="scale(0.015625)"/>
      <path id="DejaVuSans-75" d="M 544 1381 
L 544 3500 
L 1119 3500 
L 1119 1403 
Q 1119 906 1312 657 
Q 1506 409 1894 409 
Q 2359 409 2629 706 
Q 2900 1003 2900 1516 
L 2900 3500 
L 3475 3500 
L 3475 0 
L 2900 0 
L 2900 538 
Q 2691 219 2414 64 
Q 2138 -91 1772 -91 
Q 1169 -91 856 284 
Q 544 659 544 1381 
z
M 1991 3584 
L 1991 3584 
z
" transform="scale(0.015625)"/>
      <path id="DejaVuSans-5f" d="M 3263 -1063 
L 3263 -1509 
L -63 -1509 
L -63 -1063 
L 3263 -1063 
z
" transform="scale(0.015625)"/>
      <path id="DejaVuSans-70" d="M 1159 525 
L 1159 -1331 
L 581 -1331 
L 581 3500 
L 1159 3500 
L 1159 2969 
Q 1341 3281 1617 3432 
Q 1894 3584 2278 3584 
Q 2916 3584 3314 3078 
Q 3713 2572 3713 1747 
Q 3713 922 3314 415 
Q 2916 -91 2278 -91 
Q 1894 -91 1617 61 
Q 1341 213 1159 525 
z
M 3116 1747 
Q 3116 2381 2855 2742 
Q 2594 3103 2138 3103 
Q 1681 3103 1420 2742 
Q 1159 2381 1159 1747 
Q 1159 1113 1420 752 
Q 1681 391 2138 391 
Q 2594 391 2855 752 
Q 3116 1113 3116 1747 
z
" transform="scale(0.015625)"/>
      <path id="DejaVuSans-63" d="M 3122 3366 
L 3122 2828 
Q 2878 2963 2633 3030 
Q 2388 3097 2138 3097 
Q 1578 3097 1268 2742 
Q 959 2388 959 1747 
Q 959 1106 1268 751 
Q 1578 397 2138 397 
Q 2388 397 2633 464 
Q 2878 531 3122 666 
L 3122 134 
Q 2881 22 2623 -34 
Q 2366 -91 2075 -91 
Q 1284 -91 818 406 
Q 353 903 353 1747 
Q 353 2603 823 3093 
Q 1294 3584 2113 3584 
Q 2378 3584 2631 3529 
Q 2884 3475 3122 3366 
z
" transform="scale(0.015625)"/>
      <path id="DejaVuSans-59" d="M -13 4666 
L 666 4666 
L 1959 2747 
L 3244 4666 
L 3922 4666 
L 2272 2222 
L 2272 0 
L 1638 0 
L 1638 2222 
L -13 4666 
z
" transform="scale(0.015625)"/>
      <path id="DejaVuSans-2f" d="M 1625 4666 
L 2156 4666 
L 531 -594 
L 0 -594 
L 1625 4666 
z
" transform="scale(0.015625)"/>
     </defs>
     <use xlink:href="#DejaVuSans-55"/>
     <use xlink:href="#DejaVuSans-56" x="73.193359"/>
     <use xlink:href="#DejaVuSans-20" x="141.601562"/>
     <use xlink:href="#DejaVuSans-61" x="173.388672"/>
     <use xlink:href="#DejaVuSans-6e" x="234.667969"/>
     <use xlink:href="#DejaVuSans-64" x="298.046875"/>
     <use xlink:href="#DejaVuSans-20" x="361.523438"/>
     <use xlink:href="#DejaVuSans-4d" x="393.310547"/>
     <use xlink:href="#DejaVuSans-53" x="479.589844"/>
     <use xlink:href="#DejaVuSans-20" x="543.066406"/>
     <use xlink:href="#DejaVuSans-43" x="574.853516"/>
     <use xlink:href="#DejaVuSans-68" x="644.677734"/>
     <use xlink:href="#DejaVuSans-72" x="708.056641"/>
     <use xlink:href="#DejaVuSans-6f" x="746.919922"/>
     <use xlink:href="#DejaVuSans-6d" x="808.101562"/>
     <use xlink:href="#DejaVuSans-61" x="905.513672"/>
     <use xlink:href="#DejaVuSans-74" x="966.792969"/>
     <use xlink:href="#DejaVuSans-6f" x="1006.001953"/>
     <use xlink:href="#DejaVuSans-67" x="1067.183594"/>
     <use xlink:href="#DejaVuSans-72" x="1130.660156"/>
     <use xlink:href="#DejaVuSans-61" x="1171.773438"/>
     <use xlink:href="#DejaVuSans-6d" x="1233.052734"/>
     <use xlink:href="#DejaVuSans-73" x="1330.464844"/>
     <use xlink:href="#DejaVuSans-20" x="1382.564453"/>
     <use xlink:href="#DejaVuSans-6f" x="1414.351562"/>
     <use xlink:href="#DejaVuSans-66" x="1475.533203"/>
     <use xlink:href="#DejaVuSans-20" x="1510.738281"/>
     <use xlink:href="#DejaVuSans-52" x="1542.525391"/>
     <use xlink:href="#DejaVuSans-75" x="1607.507812"/>
     <use xlink:href="#DejaVuSans-5f" x="1670.886719"/>
     <use xlink:href="#DejaVuSans-70" x="1720.886719"/>
     <use xlink:href="#DejaVuSans-5f" x="1784.363281"/>
     <use xlink:href="#DejaVuSans-63" x="1834.363281"/>
     <use xlink:href="#DejaVuSans-79" x="1889.34375"/>
     <use xlink:href="#DejaVuSans-6d" x="1948.523438"/>
     <use xlink:href="#DejaVuSans-65" x="2045.935547"/>
     <use xlink:href="#DejaVuSans-6e" x="2107.458984"/>
     <use xlink:href="#DejaVuSans-65" x="2170.837891"/>
     <use xlink:href="#DejaVuSans-5f" x="2232.361328"/>
     <use xlink:href="#DejaVuSans-4d" x="2282.361328"/>
     <use xlink:href="#DejaVuSans-31" x="2368.640625"/>
     <use xlink:href="#DejaVuSans-31" x="2432.263672"/>
     <use xlink:href="#DejaVuSans-59" x="2495.886719"/>
     <use xlink:href="#DejaVuSans-31" x="2556.970703"/>
     <use xlink:href="#DejaVuSans-2c" x="2620.59375"/>
     <use xlink:href="#DejaVuSans-20" x="2652.380859"/>
     <use xlink:href="#DejaVuSans-74" x="2684.167969"/>
     <use xlink:href="#DejaVuSans-61" x="2723.376953"/>
     <use xlink:href="#DejaVuSans-72" x="2784.65625"/>
     <use xlink:href="#DejaVuSans-67" x="2824.019531"/>
     <use xlink:href="#DejaVuSans-65" x="2887.496094"/>
     <use xlink:href="#DejaVuSans-74" x="2949.019531"/>
     <use xlink:href="#DejaVuSans-20" x="2988.228516"/>
     <use xlink:href="#DejaVuSans-6d" x="3020.015625"/>
     <use xlink:href="#DejaVuSans-2f" x="3117.427734"/>
     <use xlink:href="#DejaVuSans-7a" x="3151.119141"/>
     <use xlink:href="#DejaVuSans-20" x="3203.609375"/>
     <use xlink:href="#DejaVuSans-3d" x="3235.396484"/>
     <use xlink:href="#DejaVuSans-20" x="3319.185547"/>
     <use xlink:href="#DejaVuSans-35" x="3350.972656"/>
     <use xlink:href="#DejaVuSans-35" x="3414.595703"/>
     <use xlink:href="#DejaVuSans-31" x="3478.21875"/>
     <use xlink:href="#DejaVuSans-2e" x="3541.841797"/>
     <use xlink:href="#DejaVuSans-30" x="3573.628906"/>
     <use xlink:href="#DejaVuSans-37" x="3637.251953"/>
    </g>
   </g>
   <g id="legend_1">
    <g id="patch_8">
     <path d="M 685.971875 64.23625 
L 846.2 64.23625 
Q 848.2 64.23625 848.2 62.23625 
L 848.2 33.88 
Q 848.2 31.88 846.2 31.88 
L 685.971875 31.88 
Q 683.971875 31.88 683.971875 33.88 
L 683.971875 62.23625 
Q 683.971875 64.23625 685.971875 64.23625 
z
" style="fill: #ffffff; opacity: 0.8; stroke: #cccccc; stroke-linejoin: miter"/>
    </g>
    <g id="line2d_17">
     <path d="M 687.971875 39.978437 
L 697.971875 39.978437 
L 707.971875 39.978437 
" style="fill: none; stroke: #0000ff; stroke-width: 1.5; stroke-linecap: square"/>
    </g>
    <g id="text_19">
     <!-- UV Intensity (normalized) -->
     <g transform="translate(715.971875 43.478437) scale(0.1 -0.1)">
      <use xlink:href="#DejaVuSans-55"/>
      <use xlink:href="#DejaVuSans-56" x="73.193359"/>
      <use xlink:href="#DejaVuSans-20" x="141.601562"/>
      <use xlink:href="#DejaVuSans-49" x="173.388672"/>
      <use xlink:href="#DejaVuSans-6e" x="202.880859"/>
      <use xlink:href="#DejaVuSans-74" x="266.259766"/>
      <use xlink:href="#DejaVuSans-65" x="305.46875"/>
      <use xlink:href="#DejaVuSans-6e" x="366.992188"/>
      <use xlink:href="#DejaVuSans-73" x="430.371094"/>
      <use xlink:href="#DejaVuSans-69" x="482.470703"/>
      <use xlink:href="#DejaVuSans-74" x="510.253906"/>
      <use xlink:href="#DejaVuSans-79" x="549.462891"/>
      <use xlink:href="#DejaVuSans-20" x="608.642578"/>
      <use xlink:href="#DejaVuSans-28" x="640.429688"/>
      <use xlink:href="#DejaVuSans-6e" x="679.443359"/>
      <use xlink:href="#DejaVuSans-6f" x="742.822266"/>
      <use xlink:href="#DejaVuSans-72" x="804.003906"/>
      <use xlink:href="#DejaVuSans-6d" x="843.367188"/>
      <use xlink:href="#DejaVuSans-61" x="940.779297"/>
      <use xlink:href="#DejaVuSans-6c" x="1002.058594"/>
      <use xlink:href="#DejaVuSans-69" x="1029.841797"/>
      <use xlink:href="#DejaVuSans-7a" x="1057.625"/>
      <use xlink:href="#DejaVuSans-65" x="1110.115234"/>
      <use xlink:href="#DejaVuSans-64" x="1171.638672"/>
      <use xlink:href="#DejaVuSans-29" x="1235.115234"/>
     </g>
    </g>
    <g id="line2d_18">
     <path d="M 687.971875 54.656562 
L 697.971875 54.656562 
L 707.971875 54.656562 
" style="fill: none; stroke: #008000; stroke-width: 1.5; stroke-linecap: square"/>
    </g>
    <g id="text_20">
     <!-- MS Intensity (normalized) -->
     <g transform="translate(715.971875 58.156562) scale(0.1 -0.1)">
      <use xlink:href="#DejaVuSans-4d"/>
      <use xlink:href="#DejaVuSans-53" x="86.279297"/>
      <use xlink:href="#DejaVuSans-20" x="149.755859"/>
      <use xlink:href="#DejaVuSans-49" x="181.542969"/>
      <use xlink:href="#DejaVuSans-6e" x="211.035156"/>
      <use xlink:href="#DejaVuSans-74" x="274.414062"/>
      <use xlink:href="#DejaVuSans-65" x="313.623047"/>
      <use xlink:href="#DejaVuSans-6e" x="375.146484"/>
      <use xlink:href="#DejaVuSans-73" x="438.525391"/>
      <use xlink:href="#DejaVuSans-69" x="490.625"/>
      <use xlink:href="#DejaVuSans-74" x="518.408203"/>
      <use xlink:href="#DejaVuSans-79" x="557.617188"/>
      <use xlink:href="#DejaVuSans-20" x="616.796875"/>
      <use xlink:href="#DejaVuSans-28" x="648.583984"/>
      <use xlink:href="#DejaVuSans-6e" x="687.597656"/>
      <use xlink:href="#DejaVuSans-6f" x="750.976562"/>
      <use xlink:href="#DejaVuSans-72" x="812.158203"/>
      <use xlink:href="#DejaVuSans-6d" x="851.521484"/>
      <use xlink:href="#DejaVuSans-61" x="948.933594"/>
      <use xlink:href="#DejaVuSans-6c" x="1010.212891"/>
      <use xlink:href="#DejaVuSans-69" x="1037.996094"/>
      <use xlink:href="#DejaVuSans-7a" x="1065.779297"/>
      <use xlink:href="#DejaVuSans-65" x="1118.269531"/>
      <use xlink:href="#DejaVuSans-64" x="1179.792969"/>
      <use xlink:href="#DejaVuSans-29" x="1243.269531"/>
     </g>
    </g>
   </g>
  </g>
 </g>
 <defs>
  <clipPath id="p5713a24357">
   <rect x="47.72" y="26.88" width="805.48" height="507.16"/>
  </clipPath>
 </defs>
</svg>
