<?xml version="1.0" encoding="utf-8" standalone="no"?>
<!DOCTYPE svg PUBLIC "-//W3C//DTD SVG 1.1//EN"
  "http://www.w3.org/Graphics/SVG/1.1/DTD/svg11.dtd">
<svg xmlns:xlink="http://www.w3.org/1999/xlink" width="864pt" height="576pt" viewBox="0 0 864 576" xmlns="http://www.w3.org/2000/svg" version="1.1">
 <metadata>
  <rdf:RDF xmlns:dc="http://purl.org/dc/elements/1.1/" xmlns:cc="http://creativecommons.org/ns#" xmlns:rdf="http://www.w3.org/1999/02/22-rdf-syntax-ns#">
   <cc:Work>
    <dc:type rdf:resource="http://purl.org/dc/dcmitype/StillImage"/>
    <dc:date>2024-12-09T14:39:34.415052</dc:date>
    <dc:format>image/svg+xml</dc:format>
    <dc:creator>
     <cc:Agent>
      <dc:title>Matplotlib v3.9.0, https://matplotlib.org/</dc:title>
     </cc:Agent>
    </dc:creator>
   </cc:Work>
  </rdf:RDF>
 </metadata>
 <defs>
  <style type="text/css">*{stroke-linejoin: round; stroke-linecap: butt}</style>
 </defs>
 <g id="figure_1">
  <g id="patch_1">
   <path d="M 0 576 
L 864 576 
L 864 0 
L 0 0 
z
" style="fill: #ffffff"/>
  </g>
  <g id="axes_1">
   <g id="patch_2">
    <path d="M 47.72 534.04 
L 853.2 534.04 
L 853.2 26.88 
L 47.72 26.88 
z
" style="fill: #ffffff"/>
   </g>
   <g id="matplotlib.axis_1">
    <g id="xtick_1">
     <g id="line2d_1">
      <defs>
       <path id="mfe25eb0bc3" d="M 0 0 
L 0 3.5 
" style="stroke: #000000; stroke-width: 0.8"/>
      </defs>
      <g>
       <use xlink:href="#mfe25eb0bc3" x="83.452974" y="534.04" style="stroke: #000000; stroke-width: 0.8"/>
      </g>
     </g>
     <g id="text_1">
      <!-- 0 -->
      <g transform="translate(80.271724 548.638438) scale(0.1 -0.1)">
       <defs>
        <path id="DejaVuSans-30" d="M 2034 4250 
Q 1547 4250 1301 3770 
Q 1056 3291 1056 2328 
Q 1056 1369 1301 889 
Q 1547 409 2034 409 
Q 2525 409 2770 889 
Q 3016 1369 3016 2328 
Q 3016 3291 2770 3770 
Q 2525 4250 2034 4250 
z
M 2034 4750 
Q 2819 4750 3233 4129 
Q 3647 3509 3647 2328 
Q 3647 1150 3233 529 
Q 2819 -91 2034 -91 
Q 1250 -91 836 529 
Q 422 1150 422 2328 
Q 422 3509 836 4129 
Q 1250 4750 2034 4750 
z
" transform="scale(0.015625)"/>
       </defs>
       <use xlink:href="#DejaVuSans-30"/>
      </g>
     </g>
    </g>
    <g id="xtick_2">
     <g id="line2d_2">
      <g>
       <use xlink:href="#mfe25eb0bc3" x="188.185448" y="534.04" style="stroke: #000000; stroke-width: 0.8"/>
      </g>
     </g>
     <g id="text_2">
      <!-- 1 -->
      <g transform="translate(185.004198 548.638438) scale(0.1 -0.1)">
       <defs>
        <path id="DejaVuSans-31" d="M 794 531 
L 1825 531 
L 1825 4091 
L 703 3866 
L 703 4441 
L 1819 4666 
L 2450 4666 
L 2450 531 
L 3481 531 
L 3481 0 
L 794 0 
L 794 531 
z
" transform="scale(0.015625)"/>
       </defs>
       <use xlink:href="#DejaVuSans-31"/>
      </g>
     </g>
    </g>
    <g id="xtick_3">
     <g id="line2d_3">
      <g>
       <use xlink:href="#mfe25eb0bc3" x="292.917922" y="534.04" style="stroke: #000000; stroke-width: 0.8"/>
      </g>
     </g>
     <g id="text_3">
      <!-- 2 -->
      <g transform="translate(289.736672 548.638438) scale(0.1 -0.1)">
       <defs>
        <path id="DejaVuSans-32" d="M 1228 531 
L 3431 531 
L 3431 0 
L 469 0 
L 469 531 
Q 828 903 1448 1529 
Q 2069 2156 2228 2338 
Q 2531 2678 2651 2914 
Q 2772 3150 2772 3378 
Q 2772 3750 2511 3984 
Q 2250 4219 1831 4219 
Q 1534 4219 1204 4116 
Q 875 4013 500 3803 
L 500 4441 
Q 881 4594 1212 4672 
Q 1544 4750 1819 4750 
Q 2544 4750 2975 4387 
Q 3406 4025 3406 3419 
Q 3406 3131 3298 2873 
Q 3191 2616 2906 2266 
Q 2828 2175 2409 1742 
Q 1991 1309 1228 531 
z
" transform="scale(0.015625)"/>
       </defs>
       <use xlink:href="#DejaVuSans-32"/>
      </g>
     </g>
    </g>
    <g id="xtick_4">
     <g id="line2d_4">
      <g>
       <use xlink:href="#mfe25eb0bc3" x="397.650396" y="534.04" style="stroke: #000000; stroke-width: 0.8"/>
      </g>
     </g>
     <g id="text_4">
      <!-- 3 -->
      <g transform="translate(394.469146 548.638438) scale(0.1 -0.1)">
       <defs>
        <path id="DejaVuSans-33" d="M 2597 2516 
Q 3050 2419 3304 2112 
Q 3559 1806 3559 1356 
Q 3559 666 3084 287 
Q 2609 -91 1734 -91 
Q 1441 -91 1130 -33 
Q 819 25 488 141 
L 488 750 
Q 750 597 1062 519 
Q 1375 441 1716 441 
Q 2309 441 2620 675 
Q 2931 909 2931 1356 
Q 2931 1769 2642 2001 
Q 2353 2234 1838 2234 
L 1294 2234 
L 1294 2753 
L 1863 2753 
Q 2328 2753 2575 2939 
Q 2822 3125 2822 3475 
Q 2822 3834 2567 4026 
Q 2313 4219 1838 4219 
Q 1578 4219 1281 4162 
Q 984 4106 628 3988 
L 628 4550 
Q 988 4650 1302 4700 
Q 1616 4750 1894 4750 
Q 2613 4750 3031 4423 
Q 3450 4097 3450 3541 
Q 3450 3153 3228 2886 
Q 3006 2619 2597 2516 
z
" transform="scale(0.015625)"/>
       </defs>
       <use xlink:href="#DejaVuSans-33"/>
      </g>
     </g>
    </g>
    <g id="xtick_5">
     <g id="line2d_5">
      <g>
       <use xlink:href="#mfe25eb0bc3" x="502.382869" y="534.04" style="stroke: #000000; stroke-width: 0.8"/>
      </g>
     </g>
     <g id="text_5">
      <!-- 4 -->
      <g transform="translate(499.201619 548.638438) scale(0.1 -0.1)">
       <defs>
        <path id="DejaVuSans-34" d="M 2419 4116 
L 825 1625 
L 2419 1625 
L 2419 4116 
z
M 2253 4666 
L 3047 4666 
L 3047 1625 
L 3713 1625 
L 3713 1100 
L 3047 1100 
L 3047 0 
L 2419 0 
L 2419 1100 
L 313 1100 
L 313 1709 
L 2253 4666 
z
" transform="scale(0.015625)"/>
       </defs>
       <use xlink:href="#DejaVuSans-34"/>
      </g>
     </g>
    </g>
    <g id="xtick_6">
     <g id="line2d_6">
      <g>
       <use xlink:href="#mfe25eb0bc3" x="607.115343" y="534.04" style="stroke: #000000; stroke-width: 0.8"/>
      </g>
     </g>
     <g id="text_6">
      <!-- 5 -->
      <g transform="translate(603.934093 548.638438) scale(0.1 -0.1)">
       <defs>
        <path id="DejaVuSans-35" d="M 691 4666 
L 3169 4666 
L 3169 4134 
L 1269 4134 
L 1269 2991 
Q 1406 3038 1543 3061 
Q 1681 3084 1819 3084 
Q 2600 3084 3056 2656 
Q 3513 2228 3513 1497 
Q 3513 744 3044 326 
Q 2575 -91 1722 -91 
Q 1428 -91 1123 -41 
Q 819 9 494 109 
L 494 744 
Q 775 591 1075 516 
Q 1375 441 1709 441 
Q 2250 441 2565 725 
Q 2881 1009 2881 1497 
Q 2881 1984 2565 2268 
Q 2250 2553 1709 2553 
Q 1456 2553 1204 2497 
Q 953 2441 691 2322 
L 691 4666 
z
" transform="scale(0.015625)"/>
       </defs>
       <use xlink:href="#DejaVuSans-35"/>
      </g>
     </g>
    </g>
    <g id="xtick_7">
     <g id="line2d_7">
      <g>
       <use xlink:href="#mfe25eb0bc3" x="711.847817" y="534.04" style="stroke: #000000; stroke-width: 0.8"/>
      </g>
     </g>
     <g id="text_7">
      <!-- 6 -->
      <g transform="translate(708.666567 548.638438) scale(0.1 -0.1)">
       <defs>
        <path id="DejaVuSans-36" d="M 2113 2584 
Q 1688 2584 1439 2293 
Q 1191 2003 1191 1497 
Q 1191 994 1439 701 
Q 1688 409 2113 409 
Q 2538 409 2786 701 
Q 3034 994 3034 1497 
Q 3034 2003 2786 2293 
Q 2538 2584 2113 2584 
z
M 3366 4563 
L 3366 3988 
Q 3128 4100 2886 4159 
Q 2644 4219 2406 4219 
Q 1781 4219 1451 3797 
Q 1122 3375 1075 2522 
Q 1259 2794 1537 2939 
Q 1816 3084 2150 3084 
Q 2853 3084 3261 2657 
Q 3669 2231 3669 1497 
Q 3669 778 3244 343 
Q 2819 -91 2113 -91 
Q 1303 -91 875 529 
Q 447 1150 447 2328 
Q 447 3434 972 4092 
Q 1497 4750 2381 4750 
Q 2619 4750 2861 4703 
Q 3103 4656 3366 4563 
z
" transform="scale(0.015625)"/>
       </defs>
       <use xlink:href="#DejaVuSans-36"/>
      </g>
     </g>
    </g>
    <g id="xtick_8">
     <g id="line2d_8">
      <g>
       <use xlink:href="#mfe25eb0bc3" x="816.580291" y="534.04" style="stroke: #000000; stroke-width: 0.8"/>
      </g>
     </g>
     <g id="text_8">
      <!-- 7 -->
      <g transform="translate(813.399041 548.638438) scale(0.1 -0.1)">
       <defs>
        <path id="DejaVuSans-37" d="M 525 4666 
L 3525 4666 
L 3525 4397 
L 1831 0 
L 1172 0 
L 2766 4134 
L 525 4134 
L 525 4666 
z
" transform="scale(0.015625)"/>
       </defs>
       <use xlink:href="#DejaVuSans-37"/>
      </g>
     </g>
    </g>
    <g id="text_9">
     <!-- Retention Time (min) -->
     <g transform="translate(397.61 562.316562) scale(0.1 -0.1)">
      <defs>
       <path id="DejaVuSans-52" d="M 2841 2188 
Q 3044 2119 3236 1894 
Q 3428 1669 3622 1275 
L 4263 0 
L 3584 0 
L 2988 1197 
Q 2756 1666 2539 1819 
Q 2322 1972 1947 1972 
L 1259 1972 
L 1259 0 
L 628 0 
L 628 4666 
L 2053 4666 
Q 2853 4666 3247 4331 
Q 3641 3997 3641 3322 
Q 3641 2881 3436 2590 
Q 3231 2300 2841 2188 
z
M 1259 4147 
L 1259 2491 
L 2053 2491 
Q 2509 2491 2742 2702 
Q 2975 2913 2975 3322 
Q 2975 3731 2742 3939 
Q 2509 4147 2053 4147 
L 1259 4147 
z
" transform="scale(0.015625)"/>
       <path id="DejaVuSans-65" d="M 3597 1894 
L 3597 1613 
L 953 1613 
Q 991 1019 1311 708 
Q 1631 397 2203 397 
Q 2534 397 2845 478 
Q 3156 559 3463 722 
L 3463 178 
Q 3153 47 2828 -22 
Q 2503 -91 2169 -91 
Q 1331 -91 842 396 
Q 353 884 353 1716 
Q 353 2575 817 3079 
Q 1281 3584 2069 3584 
Q 2775 3584 3186 3129 
Q 3597 2675 3597 1894 
z
M 3022 2063 
Q 3016 2534 2758 2815 
Q 2500 3097 2075 3097 
Q 1594 3097 1305 2825 
Q 1016 2553 972 2059 
L 3022 2063 
z
" transform="scale(0.015625)"/>
       <path id="DejaVuSans-74" d="M 1172 4494 
L 1172 3500 
L 2356 3500 
L 2356 3053 
L 1172 3053 
L 1172 1153 
Q 1172 725 1289 603 
Q 1406 481 1766 481 
L 2356 481 
L 2356 0 
L 1766 0 
Q 1100 0 847 248 
Q 594 497 594 1153 
L 594 3053 
L 172 3053 
L 172 3500 
L 594 3500 
L 594 4494 
L 1172 4494 
z
" transform="scale(0.015625)"/>
       <path id="DejaVuSans-6e" d="M 3513 2113 
L 3513 0 
L 2938 0 
L 2938 2094 
Q 2938 2591 2744 2837 
Q 2550 3084 2163 3084 
Q 1697 3084 1428 2787 
Q 1159 2491 1159 1978 
L 1159 0 
L 581 0 
L 581 3500 
L 1159 3500 
L 1159 2956 
Q 1366 3272 1645 3428 
Q 1925 3584 2291 3584 
Q 2894 3584 3203 3211 
Q 3513 2838 3513 2113 
z
" transform="scale(0.015625)"/>
       <path id="DejaVuSans-69" d="M 603 3500 
L 1178 3500 
L 1178 0 
L 603 0 
L 603 3500 
z
M 603 4863 
L 1178 4863 
L 1178 4134 
L 603 4134 
L 603 4863 
z
" transform="scale(0.015625)"/>
       <path id="DejaVuSans-6f" d="M 1959 3097 
Q 1497 3097 1228 2736 
Q 959 2375 959 1747 
Q 959 1119 1226 758 
Q 1494 397 1959 397 
Q 2419 397 2687 759 
Q 2956 1122 2956 1747 
Q 2956 2369 2687 2733 
Q 2419 3097 1959 3097 
z
M 1959 3584 
Q 2709 3584 3137 3096 
Q 3566 2609 3566 1747 
Q 3566 888 3137 398 
Q 2709 -91 1959 -91 
Q 1206 -91 779 398 
Q 353 888 353 1747 
Q 353 2609 779 3096 
Q 1206 3584 1959 3584 
z
" transform="scale(0.015625)"/>
       <path id="DejaVuSans-20" transform="scale(0.015625)"/>
       <path id="DejaVuSans-54" d="M -19 4666 
L 3928 4666 
L 3928 4134 
L 2272 4134 
L 2272 0 
L 1638 0 
L 1638 4134 
L -19 4134 
L -19 4666 
z
" transform="scale(0.015625)"/>
       <path id="DejaVuSans-6d" d="M 3328 2828 
Q 3544 3216 3844 3400 
Q 4144 3584 4550 3584 
Q 5097 3584 5394 3201 
Q 5691 2819 5691 2113 
L 5691 0 
L 5113 0 
L 5113 2094 
Q 5113 2597 4934 2840 
Q 4756 3084 4391 3084 
Q 3944 3084 3684 2787 
Q 3425 2491 3425 1978 
L 3425 0 
L 2847 0 
L 2847 2094 
Q 2847 2600 2669 2842 
Q 2491 3084 2119 3084 
Q 1678 3084 1418 2786 
Q 1159 2488 1159 1978 
L 1159 0 
L 581 0 
L 581 3500 
L 1159 3500 
L 1159 2956 
Q 1356 3278 1631 3431 
Q 1906 3584 2284 3584 
Q 2666 3584 2933 3390 
Q 3200 3197 3328 2828 
z
" transform="scale(0.015625)"/>
       <path id="DejaVuSans-28" d="M 1984 4856 
Q 1566 4138 1362 3434 
Q 1159 2731 1159 2009 
Q 1159 1288 1364 580 
Q 1569 -128 1984 -844 
L 1484 -844 
Q 1016 -109 783 600 
Q 550 1309 550 2009 
Q 550 2706 781 3412 
Q 1013 4119 1484 4856 
L 1984 4856 
z
" transform="scale(0.015625)"/>
       <path id="DejaVuSans-29" d="M 513 4856 
L 1013 4856 
Q 1481 4119 1714 3412 
Q 1947 2706 1947 2009 
Q 1947 1309 1714 600 
Q 1481 -109 1013 -844 
L 513 -844 
Q 928 -128 1133 580 
Q 1338 1288 1338 2009 
Q 1338 2731 1133 3434 
Q 928 4138 513 4856 
z
" transform="scale(0.015625)"/>
      </defs>
      <use xlink:href="#DejaVuSans-52"/>
      <use xlink:href="#DejaVuSans-65" x="64.982422"/>
      <use xlink:href="#DejaVuSans-74" x="126.505859"/>
      <use xlink:href="#DejaVuSans-65" x="165.714844"/>
      <use xlink:href="#DejaVuSans-6e" x="227.238281"/>
      <use xlink:href="#DejaVuSans-74" x="290.617188"/>
      <use xlink:href="#DejaVuSans-69" x="329.826172"/>
      <use xlink:href="#DejaVuSans-6f" x="357.609375"/>
      <use xlink:href="#DejaVuSans-6e" x="418.791016"/>
      <use xlink:href="#DejaVuSans-20" x="482.169922"/>
      <use xlink:href="#DejaVuSans-54" x="513.957031"/>
      <use xlink:href="#DejaVuSans-69" x="571.916016"/>
      <use xlink:href="#DejaVuSans-6d" x="599.699219"/>
      <use xlink:href="#DejaVuSans-65" x="697.111328"/>
      <use xlink:href="#DejaVuSans-20" x="758.634766"/>
      <use xlink:href="#DejaVuSans-28" x="790.421875"/>
      <use xlink:href="#DejaVuSans-6d" x="829.435547"/>
      <use xlink:href="#DejaVuSans-69" x="926.847656"/>
      <use xlink:href="#DejaVuSans-6e" x="954.630859"/>
      <use xlink:href="#DejaVuSans-29" x="1018.009766"/>
     </g>
    </g>
   </g>
   <g id="matplotlib.axis_2">
    <g id="ytick_1">
     <g id="line2d_9">
      <defs>
       <path id="mf4629b8cd7" d="M 0 0 
L -3.5 0 
" style="stroke: #000000; stroke-width: 0.8"/>
      </defs>
      <g>
       <use xlink:href="#mf4629b8cd7" x="47.72" y="506.782099" style="stroke: #000000; stroke-width: 0.8"/>
      </g>
     </g>
     <g id="text_10">
      <!-- 0.0 -->
      <g style="fill: #0000ff" transform="translate(24.816875 510.581318) scale(0.1 -0.1)">
       <defs>
        <path id="DejaVuSans-2e" d="M 684 794 
L 1344 794 
L 1344 0 
L 684 0 
L 684 794 
z
" transform="scale(0.015625)"/>
       </defs>
       <use xlink:href="#DejaVuSans-30"/>
       <use xlink:href="#DejaVuSans-2e" x="63.623047"/>
       <use xlink:href="#DejaVuSans-30" x="95.410156"/>
      </g>
     </g>
    </g>
    <g id="ytick_2">
     <g id="line2d_10">
      <g>
       <use xlink:href="#mf4629b8cd7" x="47.72" y="415.412225" style="stroke: #000000; stroke-width: 0.8"/>
      </g>
     </g>
     <g id="text_11">
      <!-- 0.5 -->
      <g style="fill: #0000ff" transform="translate(24.816875 419.211444) scale(0.1 -0.1)">
       <use xlink:href="#DejaVuSans-30"/>
       <use xlink:href="#DejaVuSans-2e" x="63.623047"/>
       <use xlink:href="#DejaVuSans-35" x="95.410156"/>
      </g>
     </g>
    </g>
    <g id="ytick_3">
     <g id="line2d_11">
      <g>
       <use xlink:href="#mf4629b8cd7" x="47.72" y="324.042351" style="stroke: #000000; stroke-width: 0.8"/>
      </g>
     </g>
     <g id="text_12">
      <!-- 1.0 -->
      <g style="fill: #0000ff" transform="translate(24.816875 327.841569) scale(0.1 -0.1)">
       <use xlink:href="#DejaVuSans-31"/>
       <use xlink:href="#DejaVuSans-2e" x="63.623047"/>
       <use xlink:href="#DejaVuSans-30" x="95.410156"/>
      </g>
     </g>
    </g>
    <g id="ytick_4">
     <g id="line2d_12">
      <g>
       <use xlink:href="#mf4629b8cd7" x="47.72" y="232.672476" style="stroke: #000000; stroke-width: 0.8"/>
      </g>
     </g>
     <g id="text_13">
      <!-- 1.5 -->
      <g style="fill: #0000ff" transform="translate(24.816875 236.471695) scale(0.1 -0.1)">
       <use xlink:href="#DejaVuSans-31"/>
       <use xlink:href="#DejaVuSans-2e" x="63.623047"/>
       <use xlink:href="#DejaVuSans-35" x="95.410156"/>
      </g>
     </g>
    </g>
    <g id="ytick_5">
     <g id="line2d_13">
      <g>
       <use xlink:href="#mf4629b8cd7" x="47.72" y="141.302602" style="stroke: #000000; stroke-width: 0.8"/>
      </g>
     </g>
     <g id="text_14">
      <!-- 2.0 -->
      <g style="fill: #0000ff" transform="translate(24.816875 145.10182) scale(0.1 -0.1)">
       <use xlink:href="#DejaVuSans-32"/>
       <use xlink:href="#DejaVuSans-2e" x="63.623047"/>
       <use xlink:href="#DejaVuSans-30" x="95.410156"/>
      </g>
     </g>
    </g>
    <g id="ytick_6">
     <g id="line2d_14">
      <g>
       <use xlink:href="#mf4629b8cd7" x="47.72" y="49.932727" style="stroke: #000000; stroke-width: 0.8"/>
      </g>
     </g>
     <g id="text_15">
      <!-- 2.5 -->
      <g style="fill: #0000ff" transform="translate(24.816875 53.731946) scale(0.1 -0.1)">
       <use xlink:href="#DejaVuSans-32"/>
       <use xlink:href="#DejaVuSans-2e" x="63.623047"/>
       <use xlink:href="#DejaVuSans-35" x="95.410156"/>
      </g>
     </g>
    </g>
    <g id="text_16">
     <!-- Normalized Intensity -->
     <g style="fill: #0000ff" transform="translate(18.737187 332.167031) rotate(-90) scale(0.1 -0.1)">
      <defs>
       <path id="DejaVuSans-4e" d="M 628 4666 
L 1478 4666 
L 3547 763 
L 3547 4666 
L 4159 4666 
L 4159 0 
L 3309 0 
L 1241 3903 
L 1241 0 
L 628 0 
L 628 4666 
z
" transform="scale(0.015625)"/>
       <path id="DejaVuSans-72" d="M 2631 2963 
Q 2534 3019 2420 3045 
Q 2306 3072 2169 3072 
Q 1681 3072 1420 2755 
Q 1159 2438 1159 1844 
L 1159 0 
L 581 0 
L 581 3500 
L 1159 3500 
L 1159 2956 
Q 1341 3275 1631 3429 
Q 1922 3584 2338 3584 
Q 2397 3584 2469 3576 
Q 2541 3569 2628 3553 
L 2631 2963 
z
" transform="scale(0.015625)"/>
       <path id="DejaVuSans-61" d="M 2194 1759 
Q 1497 1759 1228 1600 
Q 959 1441 959 1056 
Q 959 750 1161 570 
Q 1363 391 1709 391 
Q 2188 391 2477 730 
Q 2766 1069 2766 1631 
L 2766 1759 
L 2194 1759 
z
M 3341 1997 
L 3341 0 
L 2766 0 
L 2766 531 
Q 2569 213 2275 61 
Q 1981 -91 1556 -91 
Q 1019 -91 701 211 
Q 384 513 384 1019 
Q 384 1609 779 1909 
Q 1175 2209 1959 2209 
L 2766 2209 
L 2766 2266 
Q 2766 2663 2505 2880 
Q 2244 3097 1772 3097 
Q 1472 3097 1187 3025 
Q 903 2953 641 2809 
L 641 3341 
Q 956 3463 1253 3523 
Q 1550 3584 1831 3584 
Q 2591 3584 2966 3190 
Q 3341 2797 3341 1997 
z
" transform="scale(0.015625)"/>
       <path id="DejaVuSans-6c" d="M 603 4863 
L 1178 4863 
L 1178 0 
L 603 0 
L 603 4863 
z
" transform="scale(0.015625)"/>
       <path id="DejaVuSans-7a" d="M 353 3500 
L 3084 3500 
L 3084 2975 
L 922 459 
L 3084 459 
L 3084 0 
L 275 0 
L 275 525 
L 2438 3041 
L 353 3041 
L 353 3500 
z
" transform="scale(0.015625)"/>
       <path id="DejaVuSans-64" d="M 2906 2969 
L 2906 4863 
L 3481 4863 
L 3481 0 
L 2906 0 
L 2906 525 
Q 2725 213 2448 61 
Q 2172 -91 1784 -91 
Q 1150 -91 751 415 
Q 353 922 353 1747 
Q 353 2572 751 3078 
Q 1150 3584 1784 3584 
Q 2172 3584 2448 3432 
Q 2725 3281 2906 2969 
z
M 947 1747 
Q 947 1113 1208 752 
Q 1469 391 1925 391 
Q 2381 391 2643 752 
Q 2906 1113 2906 1747 
Q 2906 2381 2643 2742 
Q 2381 3103 1925 3103 
Q 1469 3103 1208 2742 
Q 947 2381 947 1747 
z
" transform="scale(0.015625)"/>
       <path id="DejaVuSans-49" d="M 628 4666 
L 1259 4666 
L 1259 0 
L 628 0 
L 628 4666 
z
" transform="scale(0.015625)"/>
       <path id="DejaVuSans-73" d="M 2834 3397 
L 2834 2853 
Q 2591 2978 2328 3040 
Q 2066 3103 1784 3103 
Q 1356 3103 1142 2972 
Q 928 2841 928 2578 
Q 928 2378 1081 2264 
Q 1234 2150 1697 2047 
L 1894 2003 
Q 2506 1872 2764 1633 
Q 3022 1394 3022 966 
Q 3022 478 2636 193 
Q 2250 -91 1575 -91 
Q 1294 -91 989 -36 
Q 684 19 347 128 
L 347 722 
Q 666 556 975 473 
Q 1284 391 1588 391 
Q 1994 391 2212 530 
Q 2431 669 2431 922 
Q 2431 1156 2273 1281 
Q 2116 1406 1581 1522 
L 1381 1569 
Q 847 1681 609 1914 
Q 372 2147 372 2553 
Q 372 3047 722 3315 
Q 1072 3584 1716 3584 
Q 2034 3584 2315 3537 
Q 2597 3491 2834 3397 
z
" transform="scale(0.015625)"/>
       <path id="DejaVuSans-79" d="M 2059 -325 
Q 1816 -950 1584 -1140 
Q 1353 -1331 966 -1331 
L 506 -1331 
L 506 -850 
L 844 -850 
Q 1081 -850 1212 -737 
Q 1344 -625 1503 -206 
L 1606 56 
L 191 3500 
L 800 3500 
L 1894 763 
L 2988 3500 
L 3597 3500 
L 2059 -325 
z
" transform="scale(0.015625)"/>
      </defs>
      <use xlink:href="#DejaVuSans-4e"/>
      <use xlink:href="#DejaVuSans-6f" x="74.804688"/>
      <use xlink:href="#DejaVuSans-72" x="135.986328"/>
      <use xlink:href="#DejaVuSans-6d" x="175.349609"/>
      <use xlink:href="#DejaVuSans-61" x="272.761719"/>
      <use xlink:href="#DejaVuSans-6c" x="334.041016"/>
      <use xlink:href="#DejaVuSans-69" x="361.824219"/>
      <use xlink:href="#DejaVuSans-7a" x="389.607422"/>
      <use xlink:href="#DejaVuSans-65" x="442.097656"/>
      <use xlink:href="#DejaVuSans-64" x="503.621094"/>
      <use xlink:href="#DejaVuSans-20" x="567.097656"/>
      <use xlink:href="#DejaVuSans-49" x="598.884766"/>
      <use xlink:href="#DejaVuSans-6e" x="628.376953"/>
      <use xlink:href="#DejaVuSans-74" x="691.755859"/>
      <use xlink:href="#DejaVuSans-65" x="730.964844"/>
      <use xlink:href="#DejaVuSans-6e" x="792.488281"/>
      <use xlink:href="#DejaVuSans-73" x="855.867188"/>
      <use xlink:href="#DejaVuSans-69" x="907.966797"/>
      <use xlink:href="#DejaVuSans-74" x="935.75"/>
      <use xlink:href="#DejaVuSans-79" x="974.958984"/>
     </g>
    </g>
   </g>
   <g id="line2d_15">
    <path d="M 84.332727 506.782099 
L 88.69658 506.673628 
L 100.915369 505.759757 
L 103.533681 505.744388 
L 107.897534 506.027947 
L 112.261387 506.243548 
L 118.370781 506.248472 
L 126.225717 506.074444 
L 127.971258 505.830455 
L 131.46234 504.835085 
L 132.335111 504.864345 
L 135.826194 505.551906 
L 137.571735 506.033158 
L 138.444505 506.04956 
L 139.317276 505.605596 
L 140.190047 504.597394 
L 141.062817 503.095996 
L 142.808358 499.57725 
L 143.681129 498.255877 
L 144.5539 497.672278 
L 145.42667 497.944315 
L 147.172212 499.838761 
L 148.044982 499.864861 
L 148.917753 498.117149 
L 150.663294 491.669386 
L 151.536065 490.196783 
L 152.408835 491.024965 
L 153.281606 493.516031 
L 155.027147 499.567132 
L 155.899918 502.098737 
L 157.645459 506.08558 
L 159.391 509.184492 
L 160.263771 510.306043 
L 161.136541 510.945471 
L 162.009312 510.987273 
L 162.882083 510.435297 
L 163.754853 509.432707 
L 165.500394 507.046382 
L 166.373165 506.115351 
L 167.245936 505.514023 
L 168.118706 505.219258 
L 169.864247 505.167429 
L 174.228101 505.382642 
L 184.701348 505.485441 
L 195.174595 505.62555 
L 202.15676 505.509611 
L 208.266155 505.247547 
L 210.884466 504.874265 
L 214.375549 504.3347 
L 216.993861 503.951677 
L 218.739402 503.495709 
L 222.230484 502.378033 
L 223.103255 502.258865 
L 224.848796 502.36513 
L 233.576502 504.035351 
L 235.322044 504.065643 
L 237.940355 503.820286 
L 241.431438 503.473725 
L 243.176979 503.285895 
L 244.92252 502.877956 
L 246.668062 502.212272 
L 249.286373 501.091071 
L 251.031915 500.611656 
L 254.522997 499.909516 
L 255.395768 499.479506 
L 257.141309 498.19266 
L 258.88685 496.456305 
L 260.632391 494.324405 
L 261.505162 493.4551 
L 262.377933 492.942403 
L 263.250703 492.66077 
L 264.123474 492.021599 
L 264.996244 490.297509 
L 266.741786 484.683779 
L 267.614556 483.318233 
L 268.487327 484.02719 
L 269.360098 486.379041 
L 271.105639 492.130501 
L 271.978409 494.21285 
L 272.85118 495.651774 
L 273.723951 496.658586 
L 275.469492 498.034094 
L 278.087804 499.618551 
L 279.833345 500.485259 
L 280.706116 500.695407 
L 281.578886 500.647187 
L 282.451657 500.345783 
L 285.069969 498.905932 
L 285.942739 498.070212 
L 286.81551 496.763452 
L 287.68828 495.19477 
L 288.561051 493.870694 
L 289.433822 493.160451 
L 290.306592 493.079989 
L 291.179363 493.493718 
L 292.052133 494.313886 
L 293.797675 496.721975 
L 294.670445 497.921759 
L 295.543216 498.879672 
L 296.415987 499.409124 
L 297.288757 499.259927 
L 298.161528 498.254671 
L 299.034298 496.4211 
L 300.77984 491.420687 
L 301.65261 489.50199 
L 302.525381 488.889908 
L 303.398151 489.604123 
L 305.143693 492.373121 
L 306.016463 493.344219 
L 306.889234 493.871361 
L 307.762005 493.950012 
L 309.507546 493.447922 
L 310.380316 493.696768 
L 311.253087 494.605073 
L 313.871399 498.532121 
L 314.744169 499.396629 
L 316.489711 500.604113 
L 318.235252 501.54133 
L 319.108023 501.867783 
L 319.980793 502.05487 
L 321.726334 502.052104 
L 324.344646 501.823819 
L 326.962958 501.665628 
L 330.454041 501.108062 
L 331.326811 501.293739 
L 334.817894 502.712791 
L 336.563435 502.930665 
L 339.181747 503.088802 
L 341.800059 503.458352 
L 342.672829 503.465641 
L 343.5456 503.009341 
L 344.41837 499.520206 
L 345.291141 485.947241 
L 346.163912 454.103084 
L 347.909453 354.987777 
L 348.782223 324.417998 
L 349.654994 324.042351 
L 350.527765 349.027842 
L 352.273306 420.865969 
L 353.146076 447.067181 
L 354.018847 462.623618 
L 354.891618 469.376267 
L 355.764388 470.614902 
L 356.637159 469.998344 
L 357.50993 470.581749 
L 358.3827 473.774532 
L 359.255471 479.131119 
L 361.001012 490.619997 
L 361.873783 494.694669 
L 362.746553 497.401205 
L 363.619324 499.083233 
L 364.492094 500.149487 
L 366.237636 501.518409 
L 367.983177 502.51229 
L 369.728718 503.202561 
L 371.474259 503.617308 
L 379.329195 504.871844 
L 382.820277 505.065359 
L 392.420754 505.315295 
L 395.039066 504.766118 
L 395.911837 504.750582 
L 397.657378 505.030975 
L 400.27569 505.470866 
L 403.766772 505.699807 
L 407.257855 505.841705 
L 424.713267 505.824774 
L 425.586037 505.642219 
L 426.458808 505.147069 
L 427.331579 504.242815 
L 429.07712 501.942873 
L 429.949891 501.314934 
L 430.822661 501.354173 
L 431.695432 501.948979 
L 433.440973 503.677984 
L 434.313744 504.371621 
L 435.186514 504.852515 
L 436.932055 505.341143 
L 439.550367 505.646556 
L 441.295909 505.667451 
L 443.91422 505.378862 
L 446.532532 505.050077 
L 448.278073 505.058606 
L 453.514697 505.634177 
L 456.133009 505.845203 
L 463.115174 506.039289 
L 469.224568 506.124658 
L 477.079504 506.188667 
L 484.061669 506.130327 
L 505.008163 506.215349 
L 511.990328 506.170865 
L 515.481411 506.27979 
L 531.191282 506.130061 
L 539.918988 506.153949 
L 542.5373 505.842089 
L 544.282841 505.702645 
L 546.901153 505.887645 
L 549.519465 506.084584 
L 555.628859 506.178343 
L 565.229336 506.197857 
L 632.432673 506.242766 
L 649.015315 506.2219 
L 677.816745 506.262313 
L 733.674064 506.130721 
L 740.656229 506.100426 
L 766.839348 506.261584 
L 816.587273 506.230805 
L 816.587273 506.230805 
" clip-path="url(#p296c408eeb)" style="fill: none; stroke: #0000ff; stroke-width: 1.5; stroke-linecap: square"/>
   </g>
   <g id="line2d_16">
    <path d="M 87.044076 232.633159 
L 90.367587 232.651342 
L 135.994464 232.667676 
L 251.714596 232.547165 
L 251.714596 232.535141 
L 256.012467 232.548623 
L 256.012467 232.539797 
L 259.791215 232.535122 
L 259.791215 232.505398 
L 264.024502 232.408743 
L 266.25478 232.395309 
L 266.25478 232.360519 
L 269.936126 232.368007 
L 269.936126 232.317174 
L 270.424005 232.346035 
L 270.424005 232.35911 
L 271.413203 232.469476 
L 271.413203 232.458526 
L 276.880238 232.529752 
L 276.880238 232.534181 
L 280.891841 232.537925 
L 280.891841 232.528822 
L 284.17468 232.576394 
L 284.17468 232.571374 
L 288.714659 232.588267 
L 291.215496 232.583 
L 291.215496 232.597988 
L 296.973862 232.643021 
L 301.74076 232.622059 
L 301.74076 232.638243 
L 309.437724 232.625086 
L 309.437724 232.619272 
L 317.688898 232.643796 
L 317.688898 232.64798 
L 346.377217 232.548108 
L 346.635906 232.361456 
L 346.635906 232.098617 
L 346.889708 231.509835 
L 346.889708 230.559935 
L 347.141415 229.187246 
L 347.141415 227.390332 
L 347.390678 225.063308 
L 347.390678 222.024092 
L 347.638894 218.686072 
L 347.638894 213.6149 
L 347.884317 207.378382 
L 347.884317 197.368202 
L 348.124678 192.156274 
L 348.124678 181.818273 
L 348.362944 174.025099 
L 348.362944 159.564166 
L 348.600687 157.868229 
L 348.600687 142.432572 
L 348.840175 136.623977 
L 348.840175 117.274518 
L 349.075125 120.179853 
L 349.075125 101.756219 
L 349.309901 106.949488 
L 349.309901 91.240702 
L 349.544327 95.925904 
L 349.544327 74.021274 
L 349.778404 81.299074 
L 349.778404 58.075916 
L 350.013005 70.519555 
L 350.013005 60.726206 
L 350.247431 77.159206 
L 350.247431 59.766244 
L 350.481333 72.945864 
L 350.481333 49.932727 
L 350.71541 68.290977 
L 350.71541 57.622174 
L 351.184088 93.628465 
L 351.184088 74.794291 
L 351.418514 88.13068 
L 351.418514 75.293516 
L 351.65329 89.523297 
L 351.65329 80.776047 
L 352.122317 106.302415 
L 352.122317 97.246758 
L 352.360757 112.676373 
L 352.360757 108.765569 
L 352.595184 120.468778 
L 352.595184 112.525754 
L 353.065782 137.61311 
L 353.065782 134.105646 
L 353.300906 143.294594 
L 353.300906 136.069008 
L 354.009247 161.86076 
L 354.009247 152.510365 
L 354.245418 159.113372 
L 354.245418 155.357033 
L 354.481939 165.33716 
L 354.481939 160.219136 
L 354.717587 169.73669 
L 354.717587 165.331526 
L 355.190454 178.539462 
L 355.190454 173.246675 
L 355.426975 179.426089 
L 355.426975 174.907102 
L 355.664892 178.923864 
L 355.664892 174.016454 
L 355.906301 181.960897 
L 355.906301 177.926169 
L 356.144393 182.891956 
L 356.144393 179.626158 
L 356.381786 187.373463 
L 356.381786 183.750098 
L 356.620227 188.190126 
L 356.620227 184.562741 
L 356.858668 191.10469 
L 356.858668 188.476914 
L 357.098156 192.552778 
L 357.098156 190.096404 
L 357.336248 196.16368 
L 357.336248 193.86714 
L 357.574689 197.438872 
L 357.574689 194.922376 
L 357.814527 200.369211 
L 357.814527 198.17966 
L 358.054189 200.85974 
L 358.054189 199.212123 
L 358.292979 204.701707 
L 358.292979 202.745999 
L 358.532468 205.76473 
L 358.532468 204.297367 
L 358.771432 208.067361 
L 358.771432 205.744706 
L 359.249536 211.034296 
L 359.249536 208.206837 
L 359.493039 211.444083 
L 359.493039 209.782127 
L 359.732004 211.353184 
L 359.732004 209.315497 
L 359.970444 212.994139 
L 359.970444 211.211106 
L 360.210631 213.346092 
L 360.210631 211.950693 
L 360.452388 214.411828 
L 360.452388 212.017197 
L 360.693797 214.045751 
L 360.693797 213.071315 
L 360.933983 214.542238 
L 360.933983 213.518761 
L 361.173995 216.035443 
L 361.173995 214.864913 
L 361.902759 218.408882 
L 361.902759 216.338915 
L 362.147658 217.739481 
L 362.147658 216.049541 
L 362.880262 221.184513 
L 362.880262 220.413429 
L 363.129874 221.870376 
L 363.129874 221.128037 
L 363.375995 222.641524 
L 363.375995 221.849666 
L 363.622466 222.942843 
L 363.622466 221.934824 
L 363.869111 223.01508 
L 363.869111 222.112237 
L 364.11593 223.174552 
L 364.11593 222.156634 
L 364.362924 223.084945 
L 364.362924 222.43401 
L 364.609919 223.015984 
L 364.609919 222.094671 
L 364.856563 223.002446 
L 364.856563 222.044432 
L 365.350377 223.55851 
L 365.350377 222.88056 
L 365.597197 224.047549 
L 365.597197 223.190506 
L 365.844365 224.308293 
L 365.844365 223.704669 
L 366.091534 224.807835 
L 366.091534 224.214958 
L 366.34167 225.269915 
L 366.34167 224.429406 
L 366.589362 225.224462 
L 366.589362 224.522104 
L 366.841942 225.269893 
L 366.841942 224.366539 
L 367.089983 225.1406 
L 367.089983 224.378765 
L 367.338199 225.052243 
L 367.338199 224.238429 
L 367.586415 225.143804 
L 367.586415 224.652466 
L 367.834806 225.522838 
L 367.834806 224.920241 
L 368.083022 225.92451 
L 368.083022 225.392821 
L 368.332285 226.113313 
L 368.332285 225.518455 
L 368.581199 226.431082 
L 368.581199 226.016382 
L 369.08025 227.44285 
L 369.08025 227.116077 
L 369.33056 227.730035 
L 369.33056 227.32439 
L 369.581045 227.932471 
L 369.581045 227.426034 
L 369.831181 227.801628 
L 369.831181 227.36716 
L 370.080794 227.882922 
L 370.080794 227.297287 
L 370.334596 227.779176 
L 370.334596 227.294049 
L 370.585081 227.834387 
L 370.585081 227.420814 
L 370.836788 228.10858 
L 370.836788 227.814389 
L 371.087971 228.454121 
L 371.087971 228.063106 
L 371.338805 228.630193 
L 371.338805 228.104031 
L 371.589989 228.552755 
L 371.589989 228.201423 
L 371.840998 228.609352 
L 371.840998 228.142791 
L 372.093228 228.734316 
L 372.093228 228.448543 
L 372.599959 229.214474 
L 372.599959 228.810429 
L 372.851841 229.187926 
L 372.851841 228.856628 
L 373.104246 229.23235 
L 373.104246 228.917057 
L 373.357698 229.332616 
L 373.357698 229.000584 
L 373.610453 229.366574 
L 373.610453 229.079349 
L 373.866698 229.415546 
L 373.866698 229.10551 
L 374.122769 229.478076 
L 374.122769 229.188111 
L 374.375349 229.512571 
L 374.375349 229.2467 
L 374.627929 229.57162 
L 374.627929 229.26704 
L 374.881207 229.635056 
L 374.881207 229.420627 
L 375.135707 229.76655 
L 375.135707 229.560231 
L 375.389334 229.935803 
L 375.389334 229.637979 
L 375.642961 229.93963 
L 375.642961 229.724474 
L 375.897461 230.033941 
L 375.897461 229.843641 
L 376.151786 230.152773 
L 376.151786 229.875495 
L 376.405413 230.158424 
L 376.405413 229.92977 
L 376.659215 230.188685 
L 376.659215 230.027966 
L 376.914762 230.323346 
L 376.914762 230.060964 
L 377.169088 230.356468 
L 377.169088 230.110434 
L 377.427428 230.314673 
L 377.427428 230.119849 
L 377.6828 230.391378 
L 377.6828 230.09308 
L 377.937126 230.365573 
L 377.937126 230.170704 
L 378.193022 230.393321 
L 378.193022 230.206814 
L 378.447871 230.490232 
L 378.447871 230.27302 
L 378.703593 230.525086 
L 378.703593 230.350268 
L 378.959315 230.602422 
L 378.959315 230.409358 
L 379.214338 230.591819 
L 379.214338 230.284701 
L 379.470235 230.497118 
L 379.470235 230.266558 
L 379.981504 230.699725 
L 379.981504 230.49449 
L 380.237749 230.752476 
L 380.237749 230.574973 
L 380.493471 230.790661 
L 380.493471 230.643538 
L 380.75216 230.865824 
L 380.75216 230.624538 
L 381.012246 230.846409 
L 381.012246 230.654393 
L 381.269015 230.824148 
L 381.269015 230.654463 
L 381.524911 230.903586 
L 381.524911 230.699885 
L 381.781855 230.896338 
L 381.781855 230.738295 
L 382.037751 230.924539 
L 382.037751 230.779609 
L 382.294346 230.998268 
L 382.294346 230.855991 
L 382.551813 231.02555 
L 382.551813 230.841529 
L 382.808931 230.986425 
L 382.808931 230.817562 
L 383.323168 231.092351 
L 383.323168 230.958614 
L 383.581159 231.111417 
L 383.581159 230.972239 
L 383.838975 231.071606 
L 383.838975 230.904428 
L 384.097315 231.087514 
L 384.097315 230.965374 
L 384.354084 231.098015 
L 384.354084 230.964494 
L 384.615392 231.125014 
L 384.615392 230.93657 
L 385.131549 231.202763 
L 385.131549 231.101444 
L 385.388667 231.291806 
L 385.388667 231.121806 
L 385.647705 231.266619 
L 385.647705 231.13051 
L 385.905871 231.26961 
L 385.905871 231.136116 
L 386.164734 231.302182 
L 386.164734 231.146574 
L 386.681938 231.329352 
L 386.681938 231.197359 
L 386.940453 231.355113 
L 386.940453 231.254645 
L 387.20176 231.36427 
L 387.20176 231.238802 
L 387.460799 231.377704 
L 387.460799 231.245595 
L 387.718964 231.365127 
L 387.718964 231.231984 
L 387.978003 231.361547 
L 387.978003 231.206075 
L 388.240183 231.360116 
L 388.240183 231.22737 
L 388.756689 231.508907 
L 388.756689 231.386191 
L 389.01468 231.553718 
L 389.01468 231.440668 
L 389.531709 231.527099 
L 389.531709 231.377162 
L 389.790747 231.483507 
L 389.790747 231.356036 
L 390.567513 231.581314 
L 390.567513 231.466431 
L 390.825853 231.57994 
L 390.825853 231.4852 
L 391.34393 231.552762 
L 391.34393 231.455073 
L 391.865672 231.568357 
L 391.865672 231.480819 
L 392.384098 231.622495 
L 392.384098 231.534493 
L 392.902174 231.639875 
L 392.902174 231.541547 
L 393.420076 231.646977 
L 393.420076 231.524036 
L 393.938153 231.675618 
L 393.938153 231.574895 
L 394.45623 231.719905 
L 394.45623 231.649134 
L 394.977448 231.788914 
L 394.977448 231.704788 
L 395.499191 231.776746 
L 395.499191 231.696042 
L 396.016045 231.778296 
L 396.016045 231.693672 
L 396.532726 231.81435 
L 396.532726 231.747229 
L 397.048882 231.835618 
L 397.048882 231.751715 
L 397.565388 231.869163 
L 397.565388 231.782955 
L 398.082068 231.861245 
L 398.082068 231.783494 
L 398.600145 231.92792 
L 398.600145 231.849239 
L 399.122061 231.919361 
L 399.122061 231.841817 
L 399.639964 231.927535 
L 399.639964 231.840953 
L 400.158215 231.887129 
L 400.158215 231.827839 
L 400.675942 231.979284 
L 400.675942 231.90498 
L 401.194019 232.000493 
L 401.194019 231.926974 
L 401.711921 231.994232 
L 401.711921 231.911985 
L 402.492003 232.000406 
L 402.492003 231.93846 
L 403.013746 232.022607 
L 403.013746 231.961329 
L 403.791035 232.053131 
L 403.791035 232.011117 
L 404.56815 232.065908 
L 404.56815 232.00938 
L 405.086576 232.068427 
L 405.086576 232.015369 
L 405.863865 232.089038 
L 405.863865 232.034491 
L 406.385608 232.112503 
L 406.385608 232.066493 
L 406.903859 232.112228 
L 406.903859 232.067609 
L 407.682021 232.125129 
L 407.682021 232.085634 
L 408.458962 232.154291 
L 408.458962 232.095845 
L 409.235902 232.141347 
L 409.235902 232.098307 
L 410.278688 232.181415 
L 410.278688 232.137282 
L 410.796765 232.202155 
L 410.796765 232.126357 
L 412.091782 232.225875 
L 412.091782 232.173252 
L 413.127761 232.245158 
L 413.127761 232.20659 
L 413.908541 232.227502 
L 413.908541 232.172901 
L 414.685482 232.239538 
L 414.685482 232.195331 
L 416.239712 232.251581 
L 416.239712 232.205097 
L 417.797433 232.290466 
L 417.797433 232.244303 
L 419.354455 232.308947 
L 419.354455 232.284014 
L 420.13157 232.298742 
L 420.13157 232.259486 
L 421.430253 232.353995 
L 421.430253 232.32421 
L 422.208241 232.310968 
L 422.208241 232.236571 
L 423.762471 232.353673 
L 423.762471 232.316196 
L 424.802115 232.355128 
L 424.802115 232.310909 
L 425.582197 232.358287 
L 425.582197 232.313031 
L 426.359138 232.350534 
L 426.359138 232.304601 
L 427.654329 232.349989 
L 427.654329 232.315485 
L 428.694323 232.377517 
L 428.694323 232.342505 
L 429.730476 232.366281 
L 429.730476 232.334633 
L 431.025493 232.369736 
L 431.025493 232.345042 
L 432.32435 232.373273 
L 432.32435 232.349038 
L 434.917701 232.411113 
L 434.917701 232.382038 
L 436.216384 232.399281 
L 436.216384 232.379492 
L 437.51175 232.406815 
L 437.51175 232.387263 
L 438.547903 232.421354 
L 438.547903 232.399905 
L 443.738793 232.436535 
L 443.738793 232.409518 
L 445.033811 232.425833 
L 445.033811 232.39485 
L 446.069964 232.448094 
L 446.069964 232.420136 
L 447.632049 232.45667 
L 447.632049 232.435485 
L 449.444968 232.459394 
L 449.444968 232.431573 
L 450.744 232.438627 
L 450.744 232.418214 
L 452.29788 232.479332 
L 452.29788 232.459007 
L 454.635684 232.479222 
L 454.635684 232.453607 
L 455.931574 232.480727 
L 455.931574 232.459066 
L 457.748158 232.489191 
L 457.748158 232.465384 
L 459.56387 232.489857 
L 459.56387 232.465277 
L 462.675647 232.489723 
L 462.675647 232.475106 
L 463.970664 232.498638 
L 463.970664 232.48492 
L 468.125575 232.521758 
L 468.125575 232.503571 
L 469.679456 232.496024 
L 469.679456 232.485593 
L 470.975521 232.519576 
L 470.975521 232.499315 
L 472.792454 232.524227 
L 472.792454 232.510516 
L 475.126243 232.518645 
L 475.126243 232.495376 
L 477.201866 232.526836 
L 477.201866 232.506445 
L 479.536353 232.530051 
L 479.536353 232.516463 
L 485.241131 232.52982 
L 485.241131 232.518356 
L 487.57684 232.532012 
L 487.57684 232.520438 
L 489.652463 232.55045 
L 489.652463 232.538413 
L 491.987124 232.540069 
L 491.987124 232.52526 
L 493.803883 232.553376 
L 493.803883 232.545887 
L 497.699408 232.547188 
L 497.699408 232.538981 
L 498.994425 232.543336 
L 498.994425 232.53695 
L 501.848385 232.564135 
L 501.848385 232.551007 
L 507.294822 232.565827 
L 507.294822 232.557318 
L 511.975142 232.579869 
L 511.975142 232.573183 
L 516.903678 232.595385 
L 516.903678 232.579745 
L 521.310646 232.590626 
L 521.310646 232.579819 
L 527.021707 232.589365 
L 527.021707 232.581259 
L 532.727882 232.597851 
L 532.727882 232.589106 
L 539.217106 232.594928 
L 539.217106 232.585593 
L 547.766418 232.597253 
L 547.766418 232.584314 
L 589.253918 232.620933 
L 589.253918 232.625608 
L 603.445517 232.617765 
L 603.445517 232.612263 
L 606.271025 232.61068 
L 606.271025 232.608671 
L 609.603438 232.617176 
L 609.603438 232.605388 
L 651.194623 232.586698 
L 651.194623 232.583246 
L 655.772479 232.536082 
L 655.772479 232.552427 
L 657.046725 232.54915 
L 657.046725 232.568095 
L 658.313813 232.542669 
L 658.313813 232.567476 
L 662.893066 232.553244 
L 662.893066 232.563803 
L 665.190198 232.534899 
L 665.190198 232.553276 
L 683.120921 232.613044 
L 683.120921 232.608764 
L 685.425036 232.613859 
L 685.425036 232.61802 
L 707.190015 232.641409 
L 707.190015 232.64109 
L 711.204585 232.636104 
L 721.233068 232.649903 
L 726.296709 232.645079 
L 726.296709 232.651474 
L 731.629337 232.643157 
L 731.629337 232.64925 
L 793.138196 232.654625 
L 793.138196 232.655061 
L 803.413673 232.644351 
L 806.753068 232.647203 
L 806.753068 232.648396 
L 811.887403 232.638043 
L 811.887403 232.638043 
" clip-path="url(#p296c408eeb)" style="fill: none; stroke: #008000; stroke-width: 1.5; stroke-linecap: square"/>
   </g>
   <g id="patch_3">
    <path d="M 47.72 534.04 
L 47.72 26.88 
" style="fill: none; stroke: #000000; stroke-width: 0.8; stroke-linejoin: miter; stroke-linecap: square"/>
   </g>
   <g id="patch_4">
    <path d="M 853.2 534.04 
L 853.2 26.88 
" style="fill: none; stroke: #000000; stroke-width: 0.8; stroke-linejoin: miter; stroke-linecap: square"/>
   </g>
   <g id="patch_5">
    <path d="M 47.72 534.04 
L 853.2 534.04 
" style="fill: none; stroke: #000000; stroke-width: 0.8; stroke-linejoin: miter; stroke-linecap: square"/>
   </g>
   <g id="patch_6">
    <path d="M 47.72 26.88 
L 853.2 26.88 
" style="fill: none; stroke: #000000; stroke-width: 0.8; stroke-linejoin: miter; stroke-linecap: square"/>
   </g>
   <g id="patch_7">
    <path d="M 398.871087 336.171095 
Q 382.036028 341.377347 365.200969 346.583598 
L 366.382751 350.405036 
Q 359.76536 349.311289 353.147969 348.217542 
Q 357.992687 343.579131 362.837406 338.940721 
L 364.019187 342.762159 
Q 380.854246 337.555908 397.689305 332.349657 
L 398.871087 336.171095 
z
" style="stroke: #000000; stroke-linecap: round"/>
   </g>
   <g id="text_17">
    <!-- Peak: RT=2.55, Area=1.08e+04 -->
    <g style="fill: #ff0000" transform="translate(402.894002 319.556054) scale(0.1 -0.1)">
     <defs>
      <path id="DejaVuSans-50" d="M 1259 4147 
L 1259 2394 
L 2053 2394 
Q 2494 2394 2734 2622 
Q 2975 2850 2975 3272 
Q 2975 3691 2734 3919 
Q 2494 4147 2053 4147 
L 1259 4147 
z
M 628 4666 
L 2053 4666 
Q 2838 4666 3239 4311 
Q 3641 3956 3641 3272 
Q 3641 2581 3239 2228 
Q 2838 1875 2053 1875 
L 1259 1875 
L 1259 0 
L 628 0 
L 628 4666 
z
" transform="scale(0.015625)"/>
      <path id="DejaVuSans-6b" d="M 581 4863 
L 1159 4863 
L 1159 1991 
L 2875 3500 
L 3609 3500 
L 1753 1863 
L 3688 0 
L 2938 0 
L 1159 1709 
L 1159 0 
L 581 0 
L 581 4863 
z
" transform="scale(0.015625)"/>
      <path id="DejaVuSans-3a" d="M 750 794 
L 1409 794 
L 1409 0 
L 750 0 
L 750 794 
z
M 750 3309 
L 1409 3309 
L 1409 2516 
L 750 2516 
L 750 3309 
z
" transform="scale(0.015625)"/>
      <path id="DejaVuSans-3d" d="M 678 2906 
L 4684 2906 
L 4684 2381 
L 678 2381 
L 678 2906 
z
M 678 1631 
L 4684 1631 
L 4684 1100 
L 678 1100 
L 678 1631 
z
" transform="scale(0.015625)"/>
      <path id="DejaVuSans-2c" d="M 750 794 
L 1409 794 
L 1409 256 
L 897 -744 
L 494 -744 
L 750 256 
L 750 794 
z
" transform="scale(0.015625)"/>
      <path id="DejaVuSans-41" d="M 2188 4044 
L 1331 1722 
L 3047 1722 
L 2188 4044 
z
M 1831 4666 
L 2547 4666 
L 4325 0 
L 3669 0 
L 3244 1197 
L 1141 1197 
L 716 0 
L 50 0 
L 1831 4666 
z
" transform="scale(0.015625)"/>
      <path id="DejaVuSans-38" d="M 2034 2216 
Q 1584 2216 1326 1975 
Q 1069 1734 1069 1313 
Q 1069 891 1326 650 
Q 1584 409 2034 409 
Q 2484 409 2743 651 
Q 3003 894 3003 1313 
Q 3003 1734 2745 1975 
Q 2488 2216 2034 2216 
z
M 1403 2484 
Q 997 2584 770 2862 
Q 544 3141 544 3541 
Q 544 4100 942 4425 
Q 1341 4750 2034 4750 
Q 2731 4750 3128 4425 
Q 3525 4100 3525 3541 
Q 3525 3141 3298 2862 
Q 3072 2584 2669 2484 
Q 3125 2378 3379 2068 
Q 3634 1759 3634 1313 
Q 3634 634 3220 271 
Q 2806 -91 2034 -91 
Q 1263 -91 848 271 
Q 434 634 434 1313 
Q 434 1759 690 2068 
Q 947 2378 1403 2484 
z
M 1172 3481 
Q 1172 3119 1398 2916 
Q 1625 2713 2034 2713 
Q 2441 2713 2670 2916 
Q 2900 3119 2900 3481 
Q 2900 3844 2670 4047 
Q 2441 4250 2034 4250 
Q 1625 4250 1398 4047 
Q 1172 3844 1172 3481 
z
" transform="scale(0.015625)"/>
      <path id="DejaVuSans-2b" d="M 2944 4013 
L 2944 2272 
L 4684 2272 
L 4684 1741 
L 2944 1741 
L 2944 0 
L 2419 0 
L 2419 1741 
L 678 1741 
L 678 2272 
L 2419 2272 
L 2419 4013 
L 2944 4013 
z
" transform="scale(0.015625)"/>
     </defs>
     <use xlink:href="#DejaVuSans-50"/>
     <use xlink:href="#DejaVuSans-65" x="56.677734"/>
     <use xlink:href="#DejaVuSans-61" x="118.201172"/>
     <use xlink:href="#DejaVuSans-6b" x="179.480469"/>
     <use xlink:href="#DejaVuSans-3a" x="237.390625"/>
     <use xlink:href="#DejaVuSans-20" x="271.082031"/>
     <use xlink:href="#DejaVuSans-52" x="302.869141"/>
     <use xlink:href="#DejaVuSans-54" x="365.101562"/>
     <use xlink:href="#DejaVuSans-3d" x="426.185547"/>
     <use xlink:href="#DejaVuSans-32" x="509.974609"/>
     <use xlink:href="#DejaVuSans-2e" x="573.597656"/>
     <use xlink:href="#DejaVuSans-35" x="605.384766"/>
     <use xlink:href="#DejaVuSans-35" x="669.007812"/>
     <use xlink:href="#DejaVuSans-2c" x="732.630859"/>
     <use xlink:href="#DejaVuSans-20" x="764.417969"/>
     <use xlink:href="#DejaVuSans-41" x="796.205078"/>
     <use xlink:href="#DejaVuSans-72" x="864.613281"/>
     <use xlink:href="#DejaVuSans-65" x="903.476562"/>
     <use xlink:href="#DejaVuSans-61" x="965"/>
     <use xlink:href="#DejaVuSans-3d" x="1026.279297"/>
     <use xlink:href="#DejaVuSans-31" x="1110.068359"/>
     <use xlink:href="#DejaVuSans-2e" x="1173.691406"/>
     <use xlink:href="#DejaVuSans-30" x="1205.478516"/>
     <use xlink:href="#DejaVuSans-38" x="1269.101562"/>
     <use xlink:href="#DejaVuSans-65" x="1332.724609"/>
     <use xlink:href="#DejaVuSans-2b" x="1394.248047"/>
     <use xlink:href="#DejaVuSans-30" x="1478.037109"/>
     <use xlink:href="#DejaVuSans-34" x="1541.660156"/>
    </g>
    <!-- (46.73% of total) -->
    <g style="fill: #ff0000" transform="translate(402.894002 330.753867) scale(0.1 -0.1)">
     <defs>
      <path id="DejaVuSans-25" d="M 4653 2053 
Q 4381 2053 4226 1822 
Q 4072 1591 4072 1178 
Q 4072 772 4226 539 
Q 4381 306 4653 306 
Q 4919 306 5073 539 
Q 5228 772 5228 1178 
Q 5228 1588 5073 1820 
Q 4919 2053 4653 2053 
z
M 4653 2450 
Q 5147 2450 5437 2106 
Q 5728 1763 5728 1178 
Q 5728 594 5436 251 
Q 5144 -91 4653 -91 
Q 4153 -91 3862 251 
Q 3572 594 3572 1178 
Q 3572 1766 3864 2108 
Q 4156 2450 4653 2450 
z
M 1428 4353 
Q 1159 4353 1004 4120 
Q 850 3888 850 3481 
Q 850 3069 1003 2837 
Q 1156 2606 1428 2606 
Q 1700 2606 1854 2837 
Q 2009 3069 2009 3481 
Q 2009 3884 1853 4118 
Q 1697 4353 1428 4353 
z
M 4250 4750 
L 4750 4750 
L 1831 -91 
L 1331 -91 
L 4250 4750 
z
M 1428 4750 
Q 1922 4750 2215 4408 
Q 2509 4066 2509 3481 
Q 2509 2891 2217 2550 
Q 1925 2209 1428 2209 
Q 931 2209 642 2551 
Q 353 2894 353 3481 
Q 353 4063 643 4406 
Q 934 4750 1428 4750 
z
" transform="scale(0.015625)"/>
      <path id="DejaVuSans-66" d="M 2375 4863 
L 2375 4384 
L 1825 4384 
Q 1516 4384 1395 4259 
Q 1275 4134 1275 3809 
L 1275 3500 
L 2222 3500 
L 2222 3053 
L 1275 3053 
L 1275 0 
L 697 0 
L 697 3053 
L 147 3053 
L 147 3500 
L 697 3500 
L 697 3744 
Q 697 4328 969 4595 
Q 1241 4863 1831 4863 
L 2375 4863 
z
" transform="scale(0.015625)"/>
     </defs>
     <use xlink:href="#DejaVuSans-28"/>
     <use xlink:href="#DejaVuSans-34" x="39.013672"/>
     <use xlink:href="#DejaVuSans-36" x="102.636719"/>
     <use xlink:href="#DejaVuSans-2e" x="166.259766"/>
     <use xlink:href="#DejaVuSans-37" x="198.046875"/>
     <use xlink:href="#DejaVuSans-33" x="261.669922"/>
     <use xlink:href="#DejaVuSans-25" x="325.292969"/>
     <use xlink:href="#DejaVuSans-20" x="420.3125"/>
     <use xlink:href="#DejaVuSans-6f" x="452.099609"/>
     <use xlink:href="#DejaVuSans-66" x="513.28125"/>
     <use xlink:href="#DejaVuSans-20" x="548.486328"/>
     <use xlink:href="#DejaVuSans-74" x="580.273438"/>
     <use xlink:href="#DejaVuSans-6f" x="619.482422"/>
     <use xlink:href="#DejaVuSans-74" x="680.664062"/>
     <use xlink:href="#DejaVuSans-61" x="719.873047"/>
     <use xlink:href="#DejaVuSans-6c" x="781.152344"/>
     <use xlink:href="#DejaVuSans-29" x="808.935547"/>
    </g>
   </g>
   <g id="text_18">
    <!-- UV and MS Chromatograms of Ru_p_cymene_M20Y3, target m/z = 571.08 -->
    <g transform="translate(228.409375 20.88) scale(0.12 -0.12)">
     <defs>
      <path id="DejaVuSans-55" d="M 556 4666 
L 1191 4666 
L 1191 1831 
Q 1191 1081 1462 751 
Q 1734 422 2344 422 
Q 2950 422 3222 751 
Q 3494 1081 3494 1831 
L 3494 4666 
L 4128 4666 
L 4128 1753 
Q 4128 841 3676 375 
Q 3225 -91 2344 -91 
Q 1459 -91 1007 375 
Q 556 841 556 1753 
L 556 4666 
z
" transform="scale(0.015625)"/>
      <path id="DejaVuSans-56" d="M 1831 0 
L 50 4666 
L 709 4666 
L 2188 738 
L 3669 4666 
L 4325 4666 
L 2547 0 
L 1831 0 
z
" transform="scale(0.015625)"/>
      <path id="DejaVuSans-4d" d="M 628 4666 
L 1569 4666 
L 2759 1491 
L 3956 4666 
L 4897 4666 
L 4897 0 
L 4281 0 
L 4281 4097 
L 3078 897 
L 2444 897 
L 1241 4097 
L 1241 0 
L 628 0 
L 628 4666 
z
" transform="scale(0.015625)"/>
      <path id="DejaVuSans-53" d="M 3425 4513 
L 3425 3897 
Q 3066 4069 2747 4153 
Q 2428 4238 2131 4238 
Q 1616 4238 1336 4038 
Q 1056 3838 1056 3469 
Q 1056 3159 1242 3001 
Q 1428 2844 1947 2747 
L 2328 2669 
Q 3034 2534 3370 2195 
Q 3706 1856 3706 1288 
Q 3706 609 3251 259 
Q 2797 -91 1919 -91 
Q 1588 -91 1214 -16 
Q 841 59 441 206 
L 441 856 
Q 825 641 1194 531 
Q 1563 422 1919 422 
Q 2459 422 2753 634 
Q 3047 847 3047 1241 
Q 3047 1584 2836 1778 
Q 2625 1972 2144 2069 
L 1759 2144 
Q 1053 2284 737 2584 
Q 422 2884 422 3419 
Q 422 4038 858 4394 
Q 1294 4750 2059 4750 
Q 2388 4750 2728 4690 
Q 3069 4631 3425 4513 
z
" transform="scale(0.015625)"/>
      <path id="DejaVuSans-43" d="M 4122 4306 
L 4122 3641 
Q 3803 3938 3442 4084 
Q 3081 4231 2675 4231 
Q 1875 4231 1450 3742 
Q 1025 3253 1025 2328 
Q 1025 1406 1450 917 
Q 1875 428 2675 428 
Q 3081 428 3442 575 
Q 3803 722 4122 1019 
L 4122 359 
Q 3791 134 3420 21 
Q 3050 -91 2638 -91 
Q 1578 -91 968 557 
Q 359 1206 359 2328 
Q 359 3453 968 4101 
Q 1578 4750 2638 4750 
Q 3056 4750 3426 4639 
Q 3797 4528 4122 4306 
z
" transform="scale(0.015625)"/>
      <path id="DejaVuSans-68" d="M 3513 2113 
L 3513 0 
L 2938 0 
L 2938 2094 
Q 2938 2591 2744 2837 
Q 2550 3084 2163 3084 
Q 1697 3084 1428 2787 
Q 1159 2491 1159 1978 
L 1159 0 
L 581 0 
L 581 4863 
L 1159 4863 
L 1159 2956 
Q 1366 3272 1645 3428 
Q 1925 3584 2291 3584 
Q 2894 3584 3203 3211 
Q 3513 2838 3513 2113 
z
" transform="scale(0.015625)"/>
      <path id="DejaVuSans-67" d="M 2906 1791 
Q 2906 2416 2648 2759 
Q 2391 3103 1925 3103 
Q 1463 3103 1205 2759 
Q 947 2416 947 1791 
Q 947 1169 1205 825 
Q 1463 481 1925 481 
Q 2391 481 2648 825 
Q 2906 1169 2906 1791 
z
M 3481 434 
Q 3481 -459 3084 -895 
Q 2688 -1331 1869 -1331 
Q 1566 -1331 1297 -1286 
Q 1028 -1241 775 -1147 
L 775 -588 
Q 1028 -725 1275 -790 
Q 1522 -856 1778 -856 
Q 2344 -856 2625 -561 
Q 2906 -266 2906 331 
L 2906 616 
Q 2728 306 2450 153 
Q 2172 0 1784 0 
Q 1141 0 747 490 
Q 353 981 353 1791 
Q 353 2603 747 3093 
Q 1141 3584 1784 3584 
Q 2172 3584 2450 3431 
Q 2728 3278 2906 2969 
L 2906 3500 
L 3481 3500 
L 3481 434 
z
" transform="scale(0.015625)"/>
      <path id="DejaVuSans-75" d="M 544 1381 
L 544 3500 
L 1119 3500 
L 1119 1403 
Q 1119 906 1312 657 
Q 1506 409 1894 409 
Q 2359 409 2629 706 
Q 2900 1003 2900 1516 
L 2900 3500 
L 3475 3500 
L 3475 0 
L 2900 0 
L 2900 538 
Q 2691 219 2414 64 
Q 2138 -91 1772 -91 
Q 1169 -91 856 284 
Q 544 659 544 1381 
z
M 1991 3584 
L 1991 3584 
z
" transform="scale(0.015625)"/>
      <path id="DejaVuSans-5f" d="M 3263 -1063 
L 3263 -1509 
L -63 -1509 
L -63 -1063 
L 3263 -1063 
z
" transform="scale(0.015625)"/>
      <path id="DejaVuSans-70" d="M 1159 525 
L 1159 -1331 
L 581 -1331 
L 581 3500 
L 1159 3500 
L 1159 2969 
Q 1341 3281 1617 3432 
Q 1894 3584 2278 3584 
Q 2916 3584 3314 3078 
Q 3713 2572 3713 1747 
Q 3713 922 3314 415 
Q 2916 -91 2278 -91 
Q 1894 -91 1617 61 
Q 1341 213 1159 525 
z
M 3116 1747 
Q 3116 2381 2855 2742 
Q 2594 3103 2138 3103 
Q 1681 3103 1420 2742 
Q 1159 2381 1159 1747 
Q 1159 1113 1420 752 
Q 1681 391 2138 391 
Q 2594 391 2855 752 
Q 3116 1113 3116 1747 
z
" transform="scale(0.015625)"/>
      <path id="DejaVuSans-63" d="M 3122 3366 
L 3122 2828 
Q 2878 2963 2633 3030 
Q 2388 3097 2138 3097 
Q 1578 3097 1268 2742 
Q 959 2388 959 1747 
Q 959 1106 1268 751 
Q 1578 397 2138 397 
Q 2388 397 2633 464 
Q 2878 531 3122 666 
L 3122 134 
Q 2881 22 2623 -34 
Q 2366 -91 2075 -91 
Q 1284 -91 818 406 
Q 353 903 353 1747 
Q 353 2603 823 3093 
Q 1294 3584 2113 3584 
Q 2378 3584 2631 3529 
Q 2884 3475 3122 3366 
z
" transform="scale(0.015625)"/>
      <path id="DejaVuSans-59" d="M -13 4666 
L 666 4666 
L 1959 2747 
L 3244 4666 
L 3922 4666 
L 2272 2222 
L 2272 0 
L 1638 0 
L 1638 2222 
L -13 4666 
z
" transform="scale(0.015625)"/>
      <path id="DejaVuSans-2f" d="M 1625 4666 
L 2156 4666 
L 531 -594 
L 0 -594 
L 1625 4666 
z
" transform="scale(0.015625)"/>
     </defs>
     <use xlink:href="#DejaVuSans-55"/>
     <use xlink:href="#DejaVuSans-56" x="73.193359"/>
     <use xlink:href="#DejaVuSans-20" x="141.601562"/>
     <use xlink:href="#DejaVuSans-61" x="173.388672"/>
     <use xlink:href="#DejaVuSans-6e" x="234.667969"/>
     <use xlink:href="#DejaVuSans-64" x="298.046875"/>
     <use xlink:href="#DejaVuSans-20" x="361.523438"/>
     <use xlink:href="#DejaVuSans-4d" x="393.310547"/>
     <use xlink:href="#DejaVuSans-53" x="479.589844"/>
     <use xlink:href="#DejaVuSans-20" x="543.066406"/>
     <use xlink:href="#DejaVuSans-43" x="574.853516"/>
     <use xlink:href="#DejaVuSans-68" x="644.677734"/>
     <use xlink:href="#DejaVuSans-72" x="708.056641"/>
     <use xlink:href="#DejaVuSans-6f" x="746.919922"/>
     <use xlink:href="#DejaVuSans-6d" x="808.101562"/>
     <use xlink:href="#DejaVuSans-61" x="905.513672"/>
     <use xlink:href="#DejaVuSans-74" x="966.792969"/>
     <use xlink:href="#DejaVuSans-6f" x="1006.001953"/>
     <use xlink:href="#DejaVuSans-67" x="1067.183594"/>
     <use xlink:href="#DejaVuSans-72" x="1130.660156"/>
     <use xlink:href="#DejaVuSans-61" x="1171.773438"/>
     <use xlink:href="#DejaVuSans-6d" x="1233.052734"/>
     <use xlink:href="#DejaVuSans-73" x="1330.464844"/>
     <use xlink:href="#DejaVuSans-20" x="1382.564453"/>
     <use xlink:href="#DejaVuSans-6f" x="1414.351562"/>
     <use xlink:href="#DejaVuSans-66" x="1475.533203"/>
     <use xlink:href="#DejaVuSans-20" x="1510.738281"/>
     <use xlink:href="#DejaVuSans-52" x="1542.525391"/>
     <use xlink:href="#DejaVuSans-75" x="1607.507812"/>
     <use xlink:href="#DejaVuSans-5f" x="1670.886719"/>
     <use xlink:href="#DejaVuSans-70" x="1720.886719"/>
     <use xlink:href="#DejaVuSans-5f" x="1784.363281"/>
     <use xlink:href="#DejaVuSans-63" x="1834.363281"/>
     <use xlink:href="#DejaVuSans-79" x="1889.34375"/>
     <use xlink:href="#DejaVuSans-6d" x="1948.523438"/>
     <use xlink:href="#DejaVuSans-65" x="2045.935547"/>
     <use xlink:href="#DejaVuSans-6e" x="2107.458984"/>
     <use xlink:href="#DejaVuSans-65" x="2170.837891"/>
     <use xlink:href="#DejaVuSans-5f" x="2232.361328"/>
     <use xlink:href="#DejaVuSans-4d" x="2282.361328"/>
     <use xlink:href="#DejaVuSans-32" x="2368.640625"/>
     <use xlink:href="#DejaVuSans-30" x="2432.263672"/>
     <use xlink:href="#DejaVuSans-59" x="2495.886719"/>
     <use xlink:href="#DejaVuSans-33" x="2556.970703"/>
     <use xlink:href="#DejaVuSans-2c" x="2620.59375"/>
     <use xlink:href="#DejaVuSans-20" x="2652.380859"/>
     <use xlink:href="#DejaVuSans-74" x="2684.167969"/>
     <use xlink:href="#DejaVuSans-61" x="2723.376953"/>
     <use xlink:href="#DejaVuSans-72" x="2784.65625"/>
     <use xlink:href="#DejaVuSans-67" x="2824.019531"/>
     <use xlink:href="#DejaVuSans-65" x="2887.496094"/>
     <use xlink:href="#DejaVuSans-74" x="2949.019531"/>
     <use xlink:href="#DejaVuSans-20" x="2988.228516"/>
     <use xlink:href="#DejaVuSans-6d" x="3020.015625"/>
     <use xlink:href="#DejaVuSans-2f" x="3117.427734"/>
     <use xlink:href="#DejaVuSans-7a" x="3151.119141"/>
     <use xlink:href="#DejaVuSans-20" x="3203.609375"/>
     <use xlink:href="#DejaVuSans-3d" x="3235.396484"/>
     <use xlink:href="#DejaVuSans-20" x="3319.185547"/>
     <use xlink:href="#DejaVuSans-35" x="3350.972656"/>
     <use xlink:href="#DejaVuSans-37" x="3414.595703"/>
     <use xlink:href="#DejaVuSans-31" x="3478.21875"/>
     <use xlink:href="#DejaVuSans-2e" x="3541.841797"/>
     <use xlink:href="#DejaVuSans-30" x="3573.628906"/>
     <use xlink:href="#DejaVuSans-38" x="3637.251953"/>
    </g>
   </g>
   <g id="legend_1">
    <g id="patch_8">
     <path d="M 685.971875 64.23625 
L 846.2 64.23625 
Q 848.2 64.23625 848.2 62.23625 
L 848.2 33.88 
Q 848.2 31.88 846.2 31.88 
L 685.971875 31.88 
Q 683.971875 31.88 683.971875 33.88 
L 683.971875 62.23625 
Q 683.971875 64.23625 685.971875 64.23625 
z
" style="fill: #ffffff; opacity: 0.8; stroke: #cccccc; stroke-linejoin: miter"/>
    </g>
    <g id="line2d_17">
     <path d="M 687.971875 39.978437 
L 697.971875 39.978437 
L 707.971875 39.978437 
" style="fill: none; stroke: #0000ff; stroke-width: 1.5; stroke-linecap: square"/>
    </g>
    <g id="text_19">
     <!-- UV Intensity (normalized) -->
     <g transform="translate(715.971875 43.478437) scale(0.1 -0.1)">
      <use xlink:href="#DejaVuSans-55"/>
      <use xlink:href="#DejaVuSans-56" x="73.193359"/>
      <use xlink:href="#DejaVuSans-20" x="141.601562"/>
      <use xlink:href="#DejaVuSans-49" x="173.388672"/>
      <use xlink:href="#DejaVuSans-6e" x="202.880859"/>
      <use xlink:href="#DejaVuSans-74" x="266.259766"/>
      <use xlink:href="#DejaVuSans-65" x="305.46875"/>
      <use xlink:href="#DejaVuSans-6e" x="366.992188"/>
      <use xlink:href="#DejaVuSans-73" x="430.371094"/>
      <use xlink:href="#DejaVuSans-69" x="482.470703"/>
      <use xlink:href="#DejaVuSans-74" x="510.253906"/>
      <use xlink:href="#DejaVuSans-79" x="549.462891"/>
      <use xlink:href="#DejaVuSans-20" x="608.642578"/>
      <use xlink:href="#DejaVuSans-28" x="640.429688"/>
      <use xlink:href="#DejaVuSans-6e" x="679.443359"/>
      <use xlink:href="#DejaVuSans-6f" x="742.822266"/>
      <use xlink:href="#DejaVuSans-72" x="804.003906"/>
      <use xlink:href="#DejaVuSans-6d" x="843.367188"/>
      <use xlink:href="#DejaVuSans-61" x="940.779297"/>
      <use xlink:href="#DejaVuSans-6c" x="1002.058594"/>
      <use xlink:href="#DejaVuSans-69" x="1029.841797"/>
      <use xlink:href="#DejaVuSans-7a" x="1057.625"/>
      <use xlink:href="#DejaVuSans-65" x="1110.115234"/>
      <use xlink:href="#DejaVuSans-64" x="1171.638672"/>
      <use xlink:href="#DejaVuSans-29" x="1235.115234"/>
     </g>
    </g>
    <g id="line2d_18">
     <path d="M 687.971875 54.656562 
L 697.971875 54.656562 
L 707.971875 54.656562 
" style="fill: none; stroke: #008000; stroke-width: 1.5; stroke-linecap: square"/>
    </g>
    <g id="text_20">
     <!-- MS Intensity (normalized) -->
     <g transform="translate(715.971875 58.156562) scale(0.1 -0.1)">
      <use xlink:href="#DejaVuSans-4d"/>
      <use xlink:href="#DejaVuSans-53" x="86.279297"/>
      <use xlink:href="#DejaVuSans-20" x="149.755859"/>
      <use xlink:href="#DejaVuSans-49" x="181.542969"/>
      <use xlink:href="#DejaVuSans-6e" x="211.035156"/>
      <use xlink:href="#DejaVuSans-74" x="274.414062"/>
      <use xlink:href="#DejaVuSans-65" x="313.623047"/>
      <use xlink:href="#DejaVuSans-6e" x="375.146484"/>
      <use xlink:href="#DejaVuSans-73" x="438.525391"/>
      <use xlink:href="#DejaVuSans-69" x="490.625"/>
      <use xlink:href="#DejaVuSans-74" x="518.408203"/>
      <use xlink:href="#DejaVuSans-79" x="557.617188"/>
      <use xlink:href="#DejaVuSans-20" x="616.796875"/>
      <use xlink:href="#DejaVuSans-28" x="648.583984"/>
      <use xlink:href="#DejaVuSans-6e" x="687.597656"/>
      <use xlink:href="#DejaVuSans-6f" x="750.976562"/>
      <use xlink:href="#DejaVuSans-72" x="812.158203"/>
      <use xlink:href="#DejaVuSans-6d" x="851.521484"/>
      <use xlink:href="#DejaVuSans-61" x="948.933594"/>
      <use xlink:href="#DejaVuSans-6c" x="1010.212891"/>
      <use xlink:href="#DejaVuSans-69" x="1037.996094"/>
      <use xlink:href="#DejaVuSans-7a" x="1065.779297"/>
      <use xlink:href="#DejaVuSans-65" x="1118.269531"/>
      <use xlink:href="#DejaVuSans-64" x="1179.792969"/>
      <use xlink:href="#DejaVuSans-29" x="1243.269531"/>
     </g>
    </g>
   </g>
  </g>
 </g>
 <defs>
  <clipPath id="p296c408eeb">
   <rect x="47.72" y="26.88" width="805.48" height="507.16"/>
  </clipPath>
 </defs>
</svg>
