<?xml version="1.0" encoding="utf-8" standalone="no"?>
<!DOCTYPE svg PUBLIC "-//W3C//DTD SVG 1.1//EN"
  "http://www.w3.org/Graphics/SVG/1.1/DTD/svg11.dtd">
<svg xmlns:xlink="http://www.w3.org/1999/xlink" width="864pt" height="576pt" viewBox="0 0 864 576" xmlns="http://www.w3.org/2000/svg" version="1.1">
 <metadata>
  <rdf:RDF xmlns:dc="http://purl.org/dc/elements/1.1/" xmlns:cc="http://creativecommons.org/ns#" xmlns:rdf="http://www.w3.org/1999/02/22-rdf-syntax-ns#">
   <cc:Work>
    <dc:type rdf:resource="http://purl.org/dc/dcmitype/StillImage"/>
    <dc:date>2024-12-09T14:36:27.485364</dc:date>
    <dc:format>image/svg+xml</dc:format>
    <dc:creator>
     <cc:Agent>
      <dc:title>Matplotlib v3.9.0, https://matplotlib.org/</dc:title>
     </cc:Agent>
    </dc:creator>
   </cc:Work>
  </rdf:RDF>
 </metadata>
 <defs>
  <style type="text/css">*{stroke-linejoin: round; stroke-linecap: butt}</style>
 </defs>
 <g id="figure_1">
  <g id="patch_1">
   <path d="M 0 576 
L 864 576 
L 864 0 
L 0 0 
z
" style="fill: #ffffff"/>
  </g>
  <g id="axes_1">
   <g id="patch_2">
    <path d="M 47.72 534.04 
L 853.2 534.04 
L 853.2 26.88 
L 47.72 26.88 
z
" style="fill: #ffffff"/>
   </g>
   <g id="matplotlib.axis_1">
    <g id="xtick_1">
     <g id="line2d_1">
      <defs>
       <path id="m6841ab654e" d="M 0 0 
L 0 3.5 
" style="stroke: #000000; stroke-width: 0.8"/>
      </defs>
      <g>
       <use xlink:href="#m6841ab654e" x="83.449483" y="534.04" style="stroke: #000000; stroke-width: 0.8"/>
      </g>
     </g>
     <g id="text_1">
      <!-- 0 -->
      <g transform="translate(80.268233 548.638438) scale(0.1 -0.1)">
       <defs>
        <path id="DejaVuSans-30" d="M 2034 4250 
Q 1547 4250 1301 3770 
Q 1056 3291 1056 2328 
Q 1056 1369 1301 889 
Q 1547 409 2034 409 
Q 2525 409 2770 889 
Q 3016 1369 3016 2328 
Q 3016 3291 2770 3770 
Q 2525 4250 2034 4250 
z
M 2034 4750 
Q 2819 4750 3233 4129 
Q 3647 3509 3647 2328 
Q 3647 1150 3233 529 
Q 2819 -91 2034 -91 
Q 1250 -91 836 529 
Q 422 1150 422 2328 
Q 422 3509 836 4129 
Q 1250 4750 2034 4750 
z
" transform="scale(0.015625)"/>
       </defs>
       <use xlink:href="#DejaVuSans-30"/>
      </g>
     </g>
    </g>
    <g id="xtick_2">
     <g id="line2d_2">
      <g>
       <use xlink:href="#m6841ab654e" x="188.181957" y="534.04" style="stroke: #000000; stroke-width: 0.8"/>
      </g>
     </g>
     <g id="text_2">
      <!-- 1 -->
      <g transform="translate(185.000707 548.638438) scale(0.1 -0.1)">
       <defs>
        <path id="DejaVuSans-31" d="M 794 531 
L 1825 531 
L 1825 4091 
L 703 3866 
L 703 4441 
L 1819 4666 
L 2450 4666 
L 2450 531 
L 3481 531 
L 3481 0 
L 794 0 
L 794 531 
z
" transform="scale(0.015625)"/>
       </defs>
       <use xlink:href="#DejaVuSans-31"/>
      </g>
     </g>
    </g>
    <g id="xtick_3">
     <g id="line2d_3">
      <g>
       <use xlink:href="#m6841ab654e" x="292.914431" y="534.04" style="stroke: #000000; stroke-width: 0.8"/>
      </g>
     </g>
     <g id="text_3">
      <!-- 2 -->
      <g transform="translate(289.733181 548.638438) scale(0.1 -0.1)">
       <defs>
        <path id="DejaVuSans-32" d="M 1228 531 
L 3431 531 
L 3431 0 
L 469 0 
L 469 531 
Q 828 903 1448 1529 
Q 2069 2156 2228 2338 
Q 2531 2678 2651 2914 
Q 2772 3150 2772 3378 
Q 2772 3750 2511 3984 
Q 2250 4219 1831 4219 
Q 1534 4219 1204 4116 
Q 875 4013 500 3803 
L 500 4441 
Q 881 4594 1212 4672 
Q 1544 4750 1819 4750 
Q 2544 4750 2975 4387 
Q 3406 4025 3406 3419 
Q 3406 3131 3298 2873 
Q 3191 2616 2906 2266 
Q 2828 2175 2409 1742 
Q 1991 1309 1228 531 
z
" transform="scale(0.015625)"/>
       </defs>
       <use xlink:href="#DejaVuSans-32"/>
      </g>
     </g>
    </g>
    <g id="xtick_4">
     <g id="line2d_4">
      <g>
       <use xlink:href="#m6841ab654e" x="397.646905" y="534.04" style="stroke: #000000; stroke-width: 0.8"/>
      </g>
     </g>
     <g id="text_4">
      <!-- 3 -->
      <g transform="translate(394.465655 548.638438) scale(0.1 -0.1)">
       <defs>
        <path id="DejaVuSans-33" d="M 2597 2516 
Q 3050 2419 3304 2112 
Q 3559 1806 3559 1356 
Q 3559 666 3084 287 
Q 2609 -91 1734 -91 
Q 1441 -91 1130 -33 
Q 819 25 488 141 
L 488 750 
Q 750 597 1062 519 
Q 1375 441 1716 441 
Q 2309 441 2620 675 
Q 2931 909 2931 1356 
Q 2931 1769 2642 2001 
Q 2353 2234 1838 2234 
L 1294 2234 
L 1294 2753 
L 1863 2753 
Q 2328 2753 2575 2939 
Q 2822 3125 2822 3475 
Q 2822 3834 2567 4026 
Q 2313 4219 1838 4219 
Q 1578 4219 1281 4162 
Q 984 4106 628 3988 
L 628 4550 
Q 988 4650 1302 4700 
Q 1616 4750 1894 4750 
Q 2613 4750 3031 4423 
Q 3450 4097 3450 3541 
Q 3450 3153 3228 2886 
Q 3006 2619 2597 2516 
z
" transform="scale(0.015625)"/>
       </defs>
       <use xlink:href="#DejaVuSans-33"/>
      </g>
     </g>
    </g>
    <g id="xtick_5">
     <g id="line2d_5">
      <g>
       <use xlink:href="#m6841ab654e" x="502.379378" y="534.04" style="stroke: #000000; stroke-width: 0.8"/>
      </g>
     </g>
     <g id="text_5">
      <!-- 4 -->
      <g transform="translate(499.198128 548.638438) scale(0.1 -0.1)">
       <defs>
        <path id="DejaVuSans-34" d="M 2419 4116 
L 825 1625 
L 2419 1625 
L 2419 4116 
z
M 2253 4666 
L 3047 4666 
L 3047 1625 
L 3713 1625 
L 3713 1100 
L 3047 1100 
L 3047 0 
L 2419 0 
L 2419 1100 
L 313 1100 
L 313 1709 
L 2253 4666 
z
" transform="scale(0.015625)"/>
       </defs>
       <use xlink:href="#DejaVuSans-34"/>
      </g>
     </g>
    </g>
    <g id="xtick_6">
     <g id="line2d_6">
      <g>
       <use xlink:href="#m6841ab654e" x="607.111852" y="534.04" style="stroke: #000000; stroke-width: 0.8"/>
      </g>
     </g>
     <g id="text_6">
      <!-- 5 -->
      <g transform="translate(603.930602 548.638438) scale(0.1 -0.1)">
       <defs>
        <path id="DejaVuSans-35" d="M 691 4666 
L 3169 4666 
L 3169 4134 
L 1269 4134 
L 1269 2991 
Q 1406 3038 1543 3061 
Q 1681 3084 1819 3084 
Q 2600 3084 3056 2656 
Q 3513 2228 3513 1497 
Q 3513 744 3044 326 
Q 2575 -91 1722 -91 
Q 1428 -91 1123 -41 
Q 819 9 494 109 
L 494 744 
Q 775 591 1075 516 
Q 1375 441 1709 441 
Q 2250 441 2565 725 
Q 2881 1009 2881 1497 
Q 2881 1984 2565 2268 
Q 2250 2553 1709 2553 
Q 1456 2553 1204 2497 
Q 953 2441 691 2322 
L 691 4666 
z
" transform="scale(0.015625)"/>
       </defs>
       <use xlink:href="#DejaVuSans-35"/>
      </g>
     </g>
    </g>
    <g id="xtick_7">
     <g id="line2d_7">
      <g>
       <use xlink:href="#m6841ab654e" x="711.844326" y="534.04" style="stroke: #000000; stroke-width: 0.8"/>
      </g>
     </g>
     <g id="text_7">
      <!-- 6 -->
      <g transform="translate(708.663076 548.638438) scale(0.1 -0.1)">
       <defs>
        <path id="DejaVuSans-36" d="M 2113 2584 
Q 1688 2584 1439 2293 
Q 1191 2003 1191 1497 
Q 1191 994 1439 701 
Q 1688 409 2113 409 
Q 2538 409 2786 701 
Q 3034 994 3034 1497 
Q 3034 2003 2786 2293 
Q 2538 2584 2113 2584 
z
M 3366 4563 
L 3366 3988 
Q 3128 4100 2886 4159 
Q 2644 4219 2406 4219 
Q 1781 4219 1451 3797 
Q 1122 3375 1075 2522 
Q 1259 2794 1537 2939 
Q 1816 3084 2150 3084 
Q 2853 3084 3261 2657 
Q 3669 2231 3669 1497 
Q 3669 778 3244 343 
Q 2819 -91 2113 -91 
Q 1303 -91 875 529 
Q 447 1150 447 2328 
Q 447 3434 972 4092 
Q 1497 4750 2381 4750 
Q 2619 4750 2861 4703 
Q 3103 4656 3366 4563 
z
" transform="scale(0.015625)"/>
       </defs>
       <use xlink:href="#DejaVuSans-36"/>
      </g>
     </g>
    </g>
    <g id="xtick_8">
     <g id="line2d_8">
      <g>
       <use xlink:href="#m6841ab654e" x="816.576799" y="534.04" style="stroke: #000000; stroke-width: 0.8"/>
      </g>
     </g>
     <g id="text_8">
      <!-- 7 -->
      <g transform="translate(813.395549 548.638438) scale(0.1 -0.1)">
       <defs>
        <path id="DejaVuSans-37" d="M 525 4666 
L 3525 4666 
L 3525 4397 
L 1831 0 
L 1172 0 
L 2766 4134 
L 525 4134 
L 525 4666 
z
" transform="scale(0.015625)"/>
       </defs>
       <use xlink:href="#DejaVuSans-37"/>
      </g>
     </g>
    </g>
    <g id="text_9">
     <!-- Retention Time (min) -->
     <g transform="translate(397.61 562.316562) scale(0.1 -0.1)">
      <defs>
       <path id="DejaVuSans-52" d="M 2841 2188 
Q 3044 2119 3236 1894 
Q 3428 1669 3622 1275 
L 4263 0 
L 3584 0 
L 2988 1197 
Q 2756 1666 2539 1819 
Q 2322 1972 1947 1972 
L 1259 1972 
L 1259 0 
L 628 0 
L 628 4666 
L 2053 4666 
Q 2853 4666 3247 4331 
Q 3641 3997 3641 3322 
Q 3641 2881 3436 2590 
Q 3231 2300 2841 2188 
z
M 1259 4147 
L 1259 2491 
L 2053 2491 
Q 2509 2491 2742 2702 
Q 2975 2913 2975 3322 
Q 2975 3731 2742 3939 
Q 2509 4147 2053 4147 
L 1259 4147 
z
" transform="scale(0.015625)"/>
       <path id="DejaVuSans-65" d="M 3597 1894 
L 3597 1613 
L 953 1613 
Q 991 1019 1311 708 
Q 1631 397 2203 397 
Q 2534 397 2845 478 
Q 3156 559 3463 722 
L 3463 178 
Q 3153 47 2828 -22 
Q 2503 -91 2169 -91 
Q 1331 -91 842 396 
Q 353 884 353 1716 
Q 353 2575 817 3079 
Q 1281 3584 2069 3584 
Q 2775 3584 3186 3129 
Q 3597 2675 3597 1894 
z
M 3022 2063 
Q 3016 2534 2758 2815 
Q 2500 3097 2075 3097 
Q 1594 3097 1305 2825 
Q 1016 2553 972 2059 
L 3022 2063 
z
" transform="scale(0.015625)"/>
       <path id="DejaVuSans-74" d="M 1172 4494 
L 1172 3500 
L 2356 3500 
L 2356 3053 
L 1172 3053 
L 1172 1153 
Q 1172 725 1289 603 
Q 1406 481 1766 481 
L 2356 481 
L 2356 0 
L 1766 0 
Q 1100 0 847 248 
Q 594 497 594 1153 
L 594 3053 
L 172 3053 
L 172 3500 
L 594 3500 
L 594 4494 
L 1172 4494 
z
" transform="scale(0.015625)"/>
       <path id="DejaVuSans-6e" d="M 3513 2113 
L 3513 0 
L 2938 0 
L 2938 2094 
Q 2938 2591 2744 2837 
Q 2550 3084 2163 3084 
Q 1697 3084 1428 2787 
Q 1159 2491 1159 1978 
L 1159 0 
L 581 0 
L 581 3500 
L 1159 3500 
L 1159 2956 
Q 1366 3272 1645 3428 
Q 1925 3584 2291 3584 
Q 2894 3584 3203 3211 
Q 3513 2838 3513 2113 
z
" transform="scale(0.015625)"/>
       <path id="DejaVuSans-69" d="M 603 3500 
L 1178 3500 
L 1178 0 
L 603 0 
L 603 3500 
z
M 603 4863 
L 1178 4863 
L 1178 4134 
L 603 4134 
L 603 4863 
z
" transform="scale(0.015625)"/>
       <path id="DejaVuSans-6f" d="M 1959 3097 
Q 1497 3097 1228 2736 
Q 959 2375 959 1747 
Q 959 1119 1226 758 
Q 1494 397 1959 397 
Q 2419 397 2687 759 
Q 2956 1122 2956 1747 
Q 2956 2369 2687 2733 
Q 2419 3097 1959 3097 
z
M 1959 3584 
Q 2709 3584 3137 3096 
Q 3566 2609 3566 1747 
Q 3566 888 3137 398 
Q 2709 -91 1959 -91 
Q 1206 -91 779 398 
Q 353 888 353 1747 
Q 353 2609 779 3096 
Q 1206 3584 1959 3584 
z
" transform="scale(0.015625)"/>
       <path id="DejaVuSans-20" transform="scale(0.015625)"/>
       <path id="DejaVuSans-54" d="M -19 4666 
L 3928 4666 
L 3928 4134 
L 2272 4134 
L 2272 0 
L 1638 0 
L 1638 4134 
L -19 4134 
L -19 4666 
z
" transform="scale(0.015625)"/>
       <path id="DejaVuSans-6d" d="M 3328 2828 
Q 3544 3216 3844 3400 
Q 4144 3584 4550 3584 
Q 5097 3584 5394 3201 
Q 5691 2819 5691 2113 
L 5691 0 
L 5113 0 
L 5113 2094 
Q 5113 2597 4934 2840 
Q 4756 3084 4391 3084 
Q 3944 3084 3684 2787 
Q 3425 2491 3425 1978 
L 3425 0 
L 2847 0 
L 2847 2094 
Q 2847 2600 2669 2842 
Q 2491 3084 2119 3084 
Q 1678 3084 1418 2786 
Q 1159 2488 1159 1978 
L 1159 0 
L 581 0 
L 581 3500 
L 1159 3500 
L 1159 2956 
Q 1356 3278 1631 3431 
Q 1906 3584 2284 3584 
Q 2666 3584 2933 3390 
Q 3200 3197 3328 2828 
z
" transform="scale(0.015625)"/>
       <path id="DejaVuSans-28" d="M 1984 4856 
Q 1566 4138 1362 3434 
Q 1159 2731 1159 2009 
Q 1159 1288 1364 580 
Q 1569 -128 1984 -844 
L 1484 -844 
Q 1016 -109 783 600 
Q 550 1309 550 2009 
Q 550 2706 781 3412 
Q 1013 4119 1484 4856 
L 1984 4856 
z
" transform="scale(0.015625)"/>
       <path id="DejaVuSans-29" d="M 513 4856 
L 1013 4856 
Q 1481 4119 1714 3412 
Q 1947 2706 1947 2009 
Q 1947 1309 1714 600 
Q 1481 -109 1013 -844 
L 513 -844 
Q 928 -128 1133 580 
Q 1338 1288 1338 2009 
Q 1338 2731 1133 3434 
Q 928 4138 513 4856 
z
" transform="scale(0.015625)"/>
      </defs>
      <use xlink:href="#DejaVuSans-52"/>
      <use xlink:href="#DejaVuSans-65" x="64.982422"/>
      <use xlink:href="#DejaVuSans-74" x="126.505859"/>
      <use xlink:href="#DejaVuSans-65" x="165.714844"/>
      <use xlink:href="#DejaVuSans-6e" x="227.238281"/>
      <use xlink:href="#DejaVuSans-74" x="290.617188"/>
      <use xlink:href="#DejaVuSans-69" x="329.826172"/>
      <use xlink:href="#DejaVuSans-6f" x="357.609375"/>
      <use xlink:href="#DejaVuSans-6e" x="418.791016"/>
      <use xlink:href="#DejaVuSans-20" x="482.169922"/>
      <use xlink:href="#DejaVuSans-54" x="513.957031"/>
      <use xlink:href="#DejaVuSans-69" x="571.916016"/>
      <use xlink:href="#DejaVuSans-6d" x="599.699219"/>
      <use xlink:href="#DejaVuSans-65" x="697.111328"/>
      <use xlink:href="#DejaVuSans-20" x="758.634766"/>
      <use xlink:href="#DejaVuSans-28" x="790.421875"/>
      <use xlink:href="#DejaVuSans-6d" x="829.435547"/>
      <use xlink:href="#DejaVuSans-69" x="926.847656"/>
      <use xlink:href="#DejaVuSans-6e" x="954.630859"/>
      <use xlink:href="#DejaVuSans-29" x="1018.009766"/>
     </g>
    </g>
   </g>
   <g id="matplotlib.axis_2">
    <g id="ytick_1">
     <g id="line2d_9">
      <defs>
       <path id="m3f86c9c272" d="M 0 0 
L -3.5 0 
" style="stroke: #000000; stroke-width: 0.8"/>
      </defs>
      <g>
       <use xlink:href="#m3f86c9c272" x="47.72" y="507.093913" style="stroke: #000000; stroke-width: 0.8"/>
      </g>
     </g>
     <g id="text_10">
      <!-- 0.0 -->
      <g style="fill: #0000ff" transform="translate(24.816875 510.893132) scale(0.1 -0.1)">
       <defs>
        <path id="DejaVuSans-2e" d="M 684 794 
L 1344 794 
L 1344 0 
L 684 0 
L 684 794 
z
" transform="scale(0.015625)"/>
       </defs>
       <use xlink:href="#DejaVuSans-30"/>
       <use xlink:href="#DejaVuSans-2e" x="63.623047"/>
       <use xlink:href="#DejaVuSans-30" x="95.410156"/>
      </g>
     </g>
    </g>
    <g id="ytick_2">
     <g id="line2d_10">
      <g>
       <use xlink:href="#m3f86c9c272" x="47.72" y="415.661676" style="stroke: #000000; stroke-width: 0.8"/>
      </g>
     </g>
     <g id="text_11">
      <!-- 0.5 -->
      <g style="fill: #0000ff" transform="translate(24.816875 419.460895) scale(0.1 -0.1)">
       <use xlink:href="#DejaVuSans-30"/>
       <use xlink:href="#DejaVuSans-2e" x="63.623047"/>
       <use xlink:href="#DejaVuSans-35" x="95.410156"/>
      </g>
     </g>
    </g>
    <g id="ytick_3">
     <g id="line2d_11">
      <g>
       <use xlink:href="#m3f86c9c272" x="47.72" y="324.229439" style="stroke: #000000; stroke-width: 0.8"/>
      </g>
     </g>
     <g id="text_12">
      <!-- 1.0 -->
      <g style="fill: #0000ff" transform="translate(24.816875 328.028657) scale(0.1 -0.1)">
       <use xlink:href="#DejaVuSans-31"/>
       <use xlink:href="#DejaVuSans-2e" x="63.623047"/>
       <use xlink:href="#DejaVuSans-30" x="95.410156"/>
      </g>
     </g>
    </g>
    <g id="ytick_4">
     <g id="line2d_12">
      <g>
       <use xlink:href="#m3f86c9c272" x="47.72" y="232.797202" style="stroke: #000000; stroke-width: 0.8"/>
      </g>
     </g>
     <g id="text_13">
      <!-- 1.5 -->
      <g style="fill: #0000ff" transform="translate(24.816875 236.59642) scale(0.1 -0.1)">
       <use xlink:href="#DejaVuSans-31"/>
       <use xlink:href="#DejaVuSans-2e" x="63.623047"/>
       <use xlink:href="#DejaVuSans-35" x="95.410156"/>
      </g>
     </g>
    </g>
    <g id="ytick_5">
     <g id="line2d_13">
      <g>
       <use xlink:href="#m3f86c9c272" x="47.72" y="141.364964" style="stroke: #000000; stroke-width: 0.8"/>
      </g>
     </g>
     <g id="text_14">
      <!-- 2.0 -->
      <g style="fill: #0000ff" transform="translate(24.816875 145.164183) scale(0.1 -0.1)">
       <use xlink:href="#DejaVuSans-32"/>
       <use xlink:href="#DejaVuSans-2e" x="63.623047"/>
       <use xlink:href="#DejaVuSans-30" x="95.410156"/>
      </g>
     </g>
    </g>
    <g id="ytick_6">
     <g id="line2d_14">
      <g>
       <use xlink:href="#m3f86c9c272" x="47.72" y="49.932727" style="stroke: #000000; stroke-width: 0.8"/>
      </g>
     </g>
     <g id="text_15">
      <!-- 2.5 -->
      <g style="fill: #0000ff" transform="translate(24.816875 53.731946) scale(0.1 -0.1)">
       <use xlink:href="#DejaVuSans-32"/>
       <use xlink:href="#DejaVuSans-2e" x="63.623047"/>
       <use xlink:href="#DejaVuSans-35" x="95.410156"/>
      </g>
     </g>
    </g>
    <g id="text_16">
     <!-- Normalized Intensity -->
     <g style="fill: #0000ff" transform="translate(18.737187 332.167031) rotate(-90) scale(0.1 -0.1)">
      <defs>
       <path id="DejaVuSans-4e" d="M 628 4666 
L 1478 4666 
L 3547 763 
L 3547 4666 
L 4159 4666 
L 4159 0 
L 3309 0 
L 1241 3903 
L 1241 0 
L 628 0 
L 628 4666 
z
" transform="scale(0.015625)"/>
       <path id="DejaVuSans-72" d="M 2631 2963 
Q 2534 3019 2420 3045 
Q 2306 3072 2169 3072 
Q 1681 3072 1420 2755 
Q 1159 2438 1159 1844 
L 1159 0 
L 581 0 
L 581 3500 
L 1159 3500 
L 1159 2956 
Q 1341 3275 1631 3429 
Q 1922 3584 2338 3584 
Q 2397 3584 2469 3576 
Q 2541 3569 2628 3553 
L 2631 2963 
z
" transform="scale(0.015625)"/>
       <path id="DejaVuSans-61" d="M 2194 1759 
Q 1497 1759 1228 1600 
Q 959 1441 959 1056 
Q 959 750 1161 570 
Q 1363 391 1709 391 
Q 2188 391 2477 730 
Q 2766 1069 2766 1631 
L 2766 1759 
L 2194 1759 
z
M 3341 1997 
L 3341 0 
L 2766 0 
L 2766 531 
Q 2569 213 2275 61 
Q 1981 -91 1556 -91 
Q 1019 -91 701 211 
Q 384 513 384 1019 
Q 384 1609 779 1909 
Q 1175 2209 1959 2209 
L 2766 2209 
L 2766 2266 
Q 2766 2663 2505 2880 
Q 2244 3097 1772 3097 
Q 1472 3097 1187 3025 
Q 903 2953 641 2809 
L 641 3341 
Q 956 3463 1253 3523 
Q 1550 3584 1831 3584 
Q 2591 3584 2966 3190 
Q 3341 2797 3341 1997 
z
" transform="scale(0.015625)"/>
       <path id="DejaVuSans-6c" d="M 603 4863 
L 1178 4863 
L 1178 0 
L 603 0 
L 603 4863 
z
" transform="scale(0.015625)"/>
       <path id="DejaVuSans-7a" d="M 353 3500 
L 3084 3500 
L 3084 2975 
L 922 459 
L 3084 459 
L 3084 0 
L 275 0 
L 275 525 
L 2438 3041 
L 353 3041 
L 353 3500 
z
" transform="scale(0.015625)"/>
       <path id="DejaVuSans-64" d="M 2906 2969 
L 2906 4863 
L 3481 4863 
L 3481 0 
L 2906 0 
L 2906 525 
Q 2725 213 2448 61 
Q 2172 -91 1784 -91 
Q 1150 -91 751 415 
Q 353 922 353 1747 
Q 353 2572 751 3078 
Q 1150 3584 1784 3584 
Q 2172 3584 2448 3432 
Q 2725 3281 2906 2969 
z
M 947 1747 
Q 947 1113 1208 752 
Q 1469 391 1925 391 
Q 2381 391 2643 752 
Q 2906 1113 2906 1747 
Q 2906 2381 2643 2742 
Q 2381 3103 1925 3103 
Q 1469 3103 1208 2742 
Q 947 2381 947 1747 
z
" transform="scale(0.015625)"/>
       <path id="DejaVuSans-49" d="M 628 4666 
L 1259 4666 
L 1259 0 
L 628 0 
L 628 4666 
z
" transform="scale(0.015625)"/>
       <path id="DejaVuSans-73" d="M 2834 3397 
L 2834 2853 
Q 2591 2978 2328 3040 
Q 2066 3103 1784 3103 
Q 1356 3103 1142 2972 
Q 928 2841 928 2578 
Q 928 2378 1081 2264 
Q 1234 2150 1697 2047 
L 1894 2003 
Q 2506 1872 2764 1633 
Q 3022 1394 3022 966 
Q 3022 478 2636 193 
Q 2250 -91 1575 -91 
Q 1294 -91 989 -36 
Q 684 19 347 128 
L 347 722 
Q 666 556 975 473 
Q 1284 391 1588 391 
Q 1994 391 2212 530 
Q 2431 669 2431 922 
Q 2431 1156 2273 1281 
Q 2116 1406 1581 1522 
L 1381 1569 
Q 847 1681 609 1914 
Q 372 2147 372 2553 
Q 372 3047 722 3315 
Q 1072 3584 1716 3584 
Q 2034 3584 2315 3537 
Q 2597 3491 2834 3397 
z
" transform="scale(0.015625)"/>
       <path id="DejaVuSans-79" d="M 2059 -325 
Q 1816 -950 1584 -1140 
Q 1353 -1331 966 -1331 
L 506 -1331 
L 506 -850 
L 844 -850 
Q 1081 -850 1212 -737 
Q 1344 -625 1503 -206 
L 1606 56 
L 191 3500 
L 800 3500 
L 1894 763 
L 2988 3500 
L 3597 3500 
L 2059 -325 
z
" transform="scale(0.015625)"/>
      </defs>
      <use xlink:href="#DejaVuSans-4e"/>
      <use xlink:href="#DejaVuSans-6f" x="74.804688"/>
      <use xlink:href="#DejaVuSans-72" x="135.986328"/>
      <use xlink:href="#DejaVuSans-6d" x="175.349609"/>
      <use xlink:href="#DejaVuSans-61" x="272.761719"/>
      <use xlink:href="#DejaVuSans-6c" x="334.041016"/>
      <use xlink:href="#DejaVuSans-69" x="361.824219"/>
      <use xlink:href="#DejaVuSans-7a" x="389.607422"/>
      <use xlink:href="#DejaVuSans-65" x="442.097656"/>
      <use xlink:href="#DejaVuSans-64" x="503.621094"/>
      <use xlink:href="#DejaVuSans-20" x="567.097656"/>
      <use xlink:href="#DejaVuSans-49" x="598.884766"/>
      <use xlink:href="#DejaVuSans-6e" x="628.376953"/>
      <use xlink:href="#DejaVuSans-74" x="691.755859"/>
      <use xlink:href="#DejaVuSans-65" x="730.964844"/>
      <use xlink:href="#DejaVuSans-6e" x="792.488281"/>
      <use xlink:href="#DejaVuSans-73" x="855.867188"/>
      <use xlink:href="#DejaVuSans-69" x="907.966797"/>
      <use xlink:href="#DejaVuSans-74" x="935.75"/>
      <use xlink:href="#DejaVuSans-79" x="974.958984"/>
     </g>
    </g>
   </g>
   <g id="line2d_15">
    <path d="M 84.332727 507.093913 
L 88.69658 507.021381 
L 102.66091 506.312461 
L 106.151993 506.487446 
L 111.388616 506.788418 
L 116.62524 506.821829 
L 127.098487 506.656061 
L 127.971258 506.505356 
L 131.46234 505.454236 
L 132.335111 505.464646 
L 134.953423 505.958769 
L 136.698964 506.476215 
L 137.571735 506.765138 
L 138.444505 506.826582 
L 139.317276 506.431146 
L 140.190047 505.488311 
L 141.935588 502.495544 
L 142.808358 501.001626 
L 143.681129 499.870342 
L 144.5539 499.285935 
L 145.42667 499.347056 
L 147.172212 500.55765 
L 148.044982 500.376448 
L 148.917753 498.913162 
L 149.790523 496.654383 
L 150.663294 494.807601 
L 151.536065 494.344228 
L 152.408835 495.370101 
L 154.154376 499.519574 
L 155.899918 503.5221 
L 157.645459 506.770727 
L 159.391 509.361864 
L 160.263771 510.326112 
L 161.136541 510.908216 
L 162.009312 510.987273 
L 162.882083 510.537605 
L 163.754853 509.664615 
L 165.500394 507.508045 
L 166.373165 506.650411 
L 167.245936 506.091495 
L 168.118706 505.814817 
L 169.864247 505.771148 
L 174.228101 506.044119 
L 200.411219 506.28567 
L 215.248319 506.113001 
L 216.993861 505.927779 
L 218.739402 505.578294 
L 223.103255 504.480293 
L 224.848796 504.38127 
L 229.212649 504.608184 
L 235.322044 504.887717 
L 240.558667 504.512348 
L 241.431438 504.335877 
L 242.304208 503.879255 
L 243.176979 503.066045 
L 244.92252 501.18553 
L 245.795291 500.73821 
L 246.668062 500.776065 
L 247.540832 501.159009 
L 249.286373 502.156114 
L 251.031915 502.824385 
L 252.777456 503.250399 
L 253.650226 503.371448 
L 254.522997 503.337674 
L 255.395768 503.100293 
L 258.01408 502.072903 
L 260.632391 501.479754 
L 261.505162 501.451675 
L 262.377933 501.659159 
L 264.123474 502.632264 
L 265.869015 503.637144 
L 266.741786 503.975215 
L 268.487327 504.277322 
L 271.105639 504.253847 
L 273.723951 504.263171 
L 278.087804 504.631968 
L 282.451657 504.532132 
L 289.433822 504.794026 
L 291.179363 504.662632 
L 295.543216 504.014646 
L 297.288757 503.470209 
L 298.161528 503.330925 
L 300.77984 503.177475 
L 302.525381 502.691155 
L 303.398151 502.670814 
L 304.270922 502.913069 
L 307.762005 504.665588 
L 309.507546 505.075179 
L 311.253087 505.168459 
L 312.998628 505.025485 
L 315.61694 504.760916 
L 317.362481 504.926375 
L 320.853564 505.490467 
L 322.599105 505.591762 
L 323.471876 505.576603 
L 324.344646 505.295224 
L 325.217417 503.625118 
L 326.090187 498.083984 
L 326.962958 486.101762 
L 327.835729 466.572671 
L 328.708499 438.981583 
L 331.326811 334.506715 
L 332.199582 324.229439 
L 333.072352 336.765518 
L 333.945123 365.189668 
L 335.690664 428.24709 
L 336.563435 450.131223 
L 337.436205 464.017616 
L 338.308976 471.921793 
L 339.181747 476.675723 
L 340.927288 484.891496 
L 342.672829 493.388443 
L 343.5456 496.577378 
L 344.41837 498.816921 
L 345.291141 500.305372 
L 346.163912 501.323009 
L 347.909453 502.716447 
L 349.654994 503.719876 
L 351.400535 504.425373 
L 353.146076 504.878034 
L 355.764388 505.267453 
L 361.001012 505.777411 
L 367.110406 506.028217 
L 367.983177 505.963018 
L 368.855948 505.772033 
L 371.474259 504.909589 
L 372.34703 504.932316 
L 374.092571 505.48051 
L 375.838112 506.045293 
L 377.583654 506.32072 
L 381.074736 506.488092 
L 384.565819 506.48183 
L 388.056901 506.495299 
L 395.039066 506.717568 
L 424.713267 506.881404 
L 426.458808 506.748283 
L 429.949891 506.029229 
L 431.695432 506.150976 
L 435.186514 506.709702 
L 438.677597 506.874476 
L 444.786991 506.984903 
L 450.023615 506.841901 
L 452.641927 506.770308 
L 464.860715 506.975287 
L 488.425522 506.967111 
L 524.209117 506.899355 
L 532.064052 506.905288 
L 546.901153 506.948777 
L 586.175831 506.90325 
L 733.674064 506.833345 
L 743.274541 506.844716 
L 761.602724 506.969051 
L 782.549219 506.89893 
L 813.09619 506.909035 
L 816.587273 506.917255 
L 816.587273 506.917255 
" clip-path="url(#pdc136321f6)" style="fill: none; stroke: #0000ff; stroke-width: 1.5; stroke-linecap: square"/>
   </g>
   <g id="line2d_16">
    <path d="M 87.040585 232.748395 
L 90.109072 232.774702 
L 149.674445 232.782657 
L 150.151152 232.620964 
L 150.864555 232.496548 
L 150.864555 232.498898 
L 151.338295 232.55379 
L 151.338295 232.493681 
L 151.812035 232.427439 
L 151.812035 232.367025 
L 152.285949 232.391591 
L 152.285949 232.300447 
L 152.527183 232.348591 
L 152.527183 232.296629 
L 153.237095 232.184168 
L 153.47379 232.26821 
L 153.47379 232.163062 
L 153.948926 232.039007 
L 153.948926 231.914093 
L 155.13572 232.005206 
L 155.13572 231.935519 
L 155.37259 232.055567 
L 155.37259 231.945044 
L 156.324957 232.092428 
L 156.801664 232.230595 
L 156.801664 232.147556 
L 157.27715 232.156756 
L 159.41666 232.326464 
L 159.41666 232.235402 
L 159.658068 232.276853 
L 159.658068 232.191485 
L 160.13495 232.265015 
L 160.13495 232.260987 
L 161.085222 232.547947 
L 161.085222 232.514793 
L 161.561581 232.505816 
L 161.561581 232.467504 
L 162.753611 232.622575 
L 162.753611 232.606647 
L 164.190017 232.700052 
L 164.190017 232.70992 
L 167.780769 232.774885 
L 174.04028 232.772843 
L 245.574655 232.685035 
L 245.574655 232.670597 
L 247.338524 232.626972 
L 247.338524 232.609403 
L 250.873245 232.685233 
L 250.873245 232.668481 
L 257.997846 232.744187 
L 257.997846 232.740975 
L 266.354101 232.765433 
L 266.354101 232.766368 
L 296.617247 232.735889 
L 296.617247 232.733722 
L 304.755659 232.735098 
L 310.360941 232.772356 
L 310.360941 232.76383 
L 326.858051 232.749942 
L 326.858051 232.729844 
L 327.116217 232.579597 
L 327.37316 232.414918 
L 327.37316 232.123618 
L 327.630977 231.689795 
L 327.630977 231.019022 
L 327.884604 230.248014 
L 327.884604 228.934044 
L 328.1405 227.67975 
L 328.1405 225.672442 
L 328.388716 223.597641 
L 328.388716 220.594817 
L 328.635012 218.61778 
L 328.635012 214.376321 
L 328.879562 213.171333 
L 328.879562 209.906996 
L 329.121494 206.649361 
L 329.121494 198.395906 
L 329.360808 197.001674 
L 329.360808 188.867556 
L 329.599947 185.027074 
L 329.599947 176.124425 
L 329.83769 179.520164 
L 329.83769 172.36655 
L 330.075258 169.865655 
L 330.075258 161.885976 
L 330.311779 167.555585 
L 330.311779 158.132581 
L 330.548823 158.912425 
L 330.548823 153.045288 
L 330.786566 158.299658 
L 330.786566 151.536544 
L 331.021865 156.312064 
L 331.021865 149.200497 
L 331.257164 151.937367 
L 331.257164 135.930713 
L 331.492114 139.104135 
L 331.492114 129.370221 
L 331.731078 130.062108 
L 331.731078 116.344384 
L 331.966552 125.331619 
L 331.966552 109.964993 
L 332.201327 112.976739 
L 332.201327 100.610757 
L 332.435579 101.629328 
L 332.435579 82.001968 
L 332.670005 85.252345 
L 332.670005 61.412079 
L 332.904431 71.178051 
L 332.904431 63.411807 
L 333.139905 74.359924 
L 333.139905 54.096568 
L 333.373807 69.245481 
L 333.373807 49.932727 
L 333.842311 83.720961 
L 333.842311 72.280258 
L 334.076213 87.041668 
L 334.076213 61.873922 
L 334.310639 72.692815 
L 334.310639 61.20129 
L 334.778968 93.643694 
L 334.778968 77.239595 
L 335.01322 91.822499 
L 335.01322 75.929432 
L 335.487134 102.228772 
L 335.487134 90.45344 
L 335.721735 112.427004 
L 335.721735 107.415955 
L 336.191111 135.123782 
L 336.191111 119.428044 
L 336.425886 129.957653 
L 336.425886 124.972752 
L 336.89631 149.135545 
L 336.89631 138.273776 
L 337.131783 148.129677 
L 337.131783 144.175995 
L 337.367955 151.790367 
L 337.367955 144.926119 
L 337.605523 159.600454 
L 337.605523 154.691545 
L 337.841171 161.167447 
L 337.841171 156.620607 
L 338.07647 166.752165 
L 338.07647 157.801439 
L 338.312118 164.854716 
L 338.312118 161.333255 
L 338.548464 169.093437 
L 338.548464 164.285547 
L 338.788302 175.658641 
L 338.788302 171.219035 
L 339.025172 176.88573 
L 339.025172 170.807375 
L 339.262042 181.102736 
L 339.262042 178.331516 
L 339.49961 182.887955 
L 339.49961 177.431588 
L 339.737003 187.192661 
L 339.737003 183.169323 
L 339.974222 185.739079 
L 339.974222 181.380033 
L 340.211965 190.449235 
L 340.211965 188.159295 
L 340.44901 191.97243 
L 340.44901 189.432364 
L 340.686578 198.097599 
L 340.686578 196.040032 
L 340.924844 199.15729 
L 340.924844 196.416745 
L 341.162238 202.761819 
L 341.162238 200.150988 
L 341.400504 202.345491 
L 341.400504 199.17683 
L 341.639992 204.858338 
L 341.639992 202.124438 
L 341.878782 203.992894 
L 341.878782 201.00853 
L 342.118794 206.115549 
L 342.118794 203.728547 
L 342.603531 210.130514 
L 342.603531 206.880847 
L 342.843194 209.598871 
L 342.843194 207.997953 
L 343.084079 210.442849 
L 343.084079 209.262843 
L 343.325312 212.736265 
L 343.325312 210.114326 
L 343.566721 212.44161 
L 343.566721 210.701576 
L 344.051108 215.907079 
L 344.051108 213.309692 
L 344.296532 214.871433 
L 344.296532 212.038347 
L 344.541431 213.558945 
L 344.541431 212.659891 
L 345.028437 218.934256 
L 345.028437 218.24992 
L 345.273162 220.042473 
L 345.273162 219.098756 
L 345.519109 220.444126 
L 345.519109 218.678536 
L 345.76523 219.145962 
L 345.76523 217.257951 
L 346.01397 218.351143 
L 346.01397 217.09571 
L 346.260091 218.519161 
L 346.260091 217.541929 
L 346.506212 219.532134 
L 346.506212 218.205856 
L 346.751112 219.763675 
L 346.751112 218.972935 
L 346.997408 220.718175 
L 346.997408 219.842488 
L 347.243354 221.859962 
L 347.243354 221.327384 
L 347.489825 222.79112 
L 347.489825 222.17547 
L 347.736644 223.546923 
L 347.736644 222.740974 
L 347.983987 223.865305 
L 347.983987 223.200261 
L 348.231331 224.475255 
L 348.231331 223.949142 
L 348.479197 225.072262 
L 348.479197 224.34477 
L 348.727239 225.357305 
L 348.727239 224.591815 
L 348.975106 225.41978 
L 348.975106 224.676613 
L 349.223671 225.574649 
L 349.223671 224.980152 
L 349.47241 225.89628 
L 349.47241 225.241679 
L 349.72499 226.103416 
L 349.72499 225.295624 
L 349.972508 225.963427 
L 349.972508 225.146138 
L 350.220549 225.782136 
L 350.220549 224.899831 
L 350.46894 225.669719 
L 350.46894 224.841254 
L 350.717156 225.573058 
L 350.717156 224.810963 
L 350.965546 225.746841 
L 350.965546 224.941745 
L 351.214286 225.797291 
L 351.214286 225.243347 
L 351.716304 227.008522 
L 351.716304 226.823101 
L 351.966963 227.711991 
L 351.966963 227.448041 
L 352.217798 228.034311 
L 352.217798 227.393664 
L 352.467759 227.785818 
L 352.467759 227.134842 
L 352.717721 227.342655 
L 352.717721 226.761731 
L 352.968031 227.356025 
L 352.968031 226.966103 
L 353.474064 228.148934 
L 353.474064 227.786046 
L 353.725073 228.283654 
L 353.725073 227.761333 
L 353.975907 228.23795 
L 353.975907 227.850656 
L 354.226741 228.403984 
L 354.226741 228.08525 
L 354.478274 228.742972 
L 354.478274 228.540061 
L 354.731028 229.051464 
L 354.731028 228.726802 
L 354.983433 229.21423 
L 354.983433 228.746942 
L 355.234966 229.077089 
L 355.234966 228.69274 
L 355.487895 229.136665 
L 355.487895 228.873502 
L 355.740998 229.348661 
L 355.740998 228.974533 
L 355.994276 229.386401 
L 355.994276 229.063956 
L 356.246507 229.393829 
L 356.246507 229.093799 
L 356.499959 229.588614 
L 356.499959 229.3527 
L 356.758998 229.651319 
L 356.758998 229.230397 
L 357.012101 229.690488 
L 357.012101 229.424899 
L 357.265903 229.673743 
L 357.265903 229.323472 
L 357.520752 229.756472 
L 357.520752 229.393382 
L 358.028704 229.895205 
L 358.028704 229.614112 
L 358.282332 229.862907 
L 358.282332 229.509286 
L 358.791855 229.945278 
L 358.791855 229.748618 
L 359.047926 230.159901 
L 359.047926 230.014797 
L 359.303124 230.254951 
L 359.303124 230.010164 
L 359.556577 230.362953 
L 359.556577 230.129797 
L 359.810553 230.383724 
L 359.810553 230.190411 
L 360.065926 230.50757 
L 360.065926 230.22959 
L 360.323218 230.515787 
L 360.323218 230.332908 
L 360.579464 230.593196 
L 360.579464 230.362349 
L 360.832916 230.669196 
L 360.832916 230.441719 
L 361.088638 230.651272 
L 361.088638 230.425627 
L 361.34436 230.658135 
L 361.34436 230.386676 
L 361.599209 230.624558 
L 361.599209 230.419378 
L 361.85528 230.614562 
L 361.85528 230.393388 
L 362.110478 230.674523 
L 362.110478 230.469811 
L 362.366723 230.708226 
L 362.366723 230.545926 
L 362.62262 230.816595 
L 362.62262 230.588233 
L 362.877643 230.784631 
L 362.877643 230.600572 
L 363.134936 230.819964 
L 363.134936 230.609876 
L 363.390309 230.845831 
L 363.390309 230.672703 
L 363.647776 230.821595 
L 363.647776 230.617022 
L 363.907164 230.827366 
L 363.907164 230.657633 
L 364.420876 230.924347 
L 364.420876 230.720086 
L 364.67782 230.915083 
L 364.67782 230.747886 
L 365.190835 231.069638 
L 365.190835 230.910137 
L 365.451444 231.097534 
L 365.451444 230.886125 
L 365.707515 231.087948 
L 365.707515 230.942457 
L 365.965331 231.125801 
L 365.965331 230.986373 
L 366.221751 231.221513 
L 366.221751 231.07604 
L 366.479742 231.223325 
L 366.479742 231.026142 
L 366.737035 231.154068 
L 366.737035 230.967253 
L 366.994851 231.107938 
L 366.994851 230.974227 
L 367.251621 231.181968 
L 367.251621 231.07904 
L 367.514325 231.247159 
L 367.514325 231.074517 
L 367.771792 231.205767 
L 367.771792 231.030534 
L 368.029783 231.185349 
L 368.029783 231.055333 
L 368.545939 231.328801 
L 368.545939 231.166114 
L 368.803756 231.324877 
L 368.803756 231.151881 
L 369.061398 231.319461 
L 369.061398 231.188647 
L 369.576682 231.407138 
L 369.576682 231.283685 
L 369.835196 231.416781 
L 369.835196 231.29636 
L 370.09214 231.420157 
L 370.09214 231.2629 
L 370.351178 231.381776 
L 370.351178 231.249473 
L 370.607773 231.422962 
L 370.607773 231.284835 
L 370.866636 231.433678 
L 370.866636 231.288692 
L 371.127071 231.43205 
L 371.127071 231.288791 
L 371.639911 231.495237 
L 371.639911 231.387417 
L 371.89668 231.505343 
L 371.89668 231.351319 
L 372.151704 231.489216 
L 372.151704 231.330851 
L 372.407775 231.453331 
L 372.407775 231.323528 
L 372.665068 231.522028 
L 372.665068 231.41339 
L 372.922011 231.552262 
L 372.922011 231.401891 
L 373.177209 231.577372 
L 373.177209 231.455876 
L 373.432931 231.564486 
L 373.432931 231.441731 
L 373.688304 231.590882 
L 373.688304 231.447376 
L 374.20062 231.640801 
L 374.20062 231.537373 
L 374.455469 231.666752 
L 374.455469 231.523555 
L 374.716951 231.608385 
L 374.716951 231.469385 
L 375.23049 231.61285 
L 375.23049 231.504149 
L 375.745948 231.674696 
L 375.745948 231.553719 
L 376.26193 231.690452 
L 376.26193 231.593657 
L 376.777563 231.707186 
L 376.777563 231.569415 
L 377.294243 231.700483 
L 377.294243 231.598404 
L 377.553281 231.721768 
L 377.553281 231.604549 
L 378.070136 231.720069 
L 378.070136 231.636262 
L 378.332142 231.765835 
L 378.332142 231.646235 
L 378.852139 231.740396 
L 378.852139 231.64409 
L 379.369517 231.848045 
L 379.369517 231.730918 
L 379.628381 231.849085 
L 379.628381 231.741657 
L 380.145759 231.83621 
L 380.145759 231.752038 
L 380.663661 231.865422 
L 380.663661 231.782002 
L 381.181563 231.876736 
L 381.181563 231.801213 
L 381.699465 231.916431 
L 381.699465 231.806419 
L 382.221382 231.875072 
L 382.221382 231.748239 
L 382.739284 231.85689 
L 382.739284 231.771591 
L 383.257186 231.924604 
L 383.257186 231.837964 
L 383.775263 231.937562 
L 383.775263 231.850778 
L 384.034301 231.948536 
L 384.034301 231.85586 
L 384.551854 231.91441 
L 384.551854 231.848845 
L 385.069756 231.982268 
L 385.069756 231.884155 
L 385.594641 232.001373 
L 385.594641 231.942695 
L 385.853679 232.044633 
L 385.853679 231.935448 
L 386.371756 231.999417 
L 386.371756 231.916419 
L 386.889658 231.99127 
L 386.889658 231.925853 
L 387.40756 232.037745 
L 387.40756 231.973728 
L 387.926509 232.041381 
L 387.926509 231.971612 
L 388.70345 232.074619 
L 388.70345 232.004231 
L 388.962313 232.074047 
L 388.962313 231.966671 
L 390.002307 232.090201 
L 390.002307 232.026171 
L 390.779073 232.093069 
L 390.779073 232.046814 
L 391.297847 232.120764 
L 391.297847 232.052499 
L 391.815575 232.124555 
L 391.815575 232.058364 
L 392.335921 232.145087 
L 392.335921 232.078901 
L 392.858536 232.148147 
L 392.858536 232.074401 
L 393.635476 232.190354 
L 393.635476 232.10208 
L 394.153378 232.153001 
L 394.153378 232.08217 
L 394.67128 232.171667 
L 394.67128 232.099952 
L 395.448395 232.209638 
L 395.448395 232.138375 
L 395.966297 232.18004 
L 395.966297 232.112056 
L 396.747427 232.207239 
L 396.747427 232.161046 
L 397.266377 232.226241 
L 397.266377 232.165238 
L 398.043142 232.241474 
L 398.043142 232.200242 
L 398.564361 232.247165 
L 398.564361 232.190256 
L 399.341301 232.26361 
L 399.341301 232.198429 
L 399.859204 232.242639 
L 399.859204 232.169066 
L 400.639984 232.258489 
L 400.639984 232.209908 
L 401.41675 232.243491 
L 401.41675 232.199152 
L 402.193341 232.269187 
L 402.193341 232.230382 
L 402.971329 232.295173 
L 402.971329 232.244095 
L 403.751935 232.308173 
L 403.751935 232.258487 
L 404.532192 232.325764 
L 404.532192 232.27898 
L 405.308958 232.350861 
L 405.308958 232.298545 
L 405.82686 232.367148 
L 405.82686 232.300111 
L 406.6038 232.34719 
L 406.6038 232.30125 
L 407.384232 232.358943 
L 407.384232 232.299494 
L 408.161347 232.361945 
L 408.161347 232.32123 
L 409.196976 232.372488 
L 409.196976 232.32334 
L 409.973917 232.38869 
L 409.973917 232.342675 
L 411.013387 232.406582 
L 411.013387 232.359759 
L 412.312244 232.371501 
L 412.312244 232.338253 
L 413.089184 232.411942 
L 413.089184 232.346165 
L 414.384027 232.409053 
L 414.384027 232.368534 
L 415.423671 232.431851 
L 415.423671 232.408262 
L 416.200437 232.409742 
L 416.200437 232.357515 
L 417.496327 232.45335 
L 417.496327 232.411337 
L 418.796755 232.428064 
L 418.796755 232.389474 
L 419.832734 232.435891 
L 419.832734 232.401311 
L 421.127227 232.466655 
L 421.127227 232.435189 
L 422.425561 232.457841 
L 422.425561 232.426297 
L 423.461365 232.454066 
L 423.461365 232.423512 
L 424.497169 232.461895 
L 424.497169 232.445945 
L 425.27376 232.467479 
L 425.27376 232.443213 
L 426.316197 232.487948 
L 426.316197 232.459328 
L 427.093138 232.514397 
L 427.093138 232.476311 
L 427.870078 232.491604 
L 427.870078 232.447586 
L 428.905708 232.528242 
L 428.905708 232.499342 
L 429.945178 232.510847 
L 429.945178 232.481128 
L 432.534513 232.524193 
L 432.534513 232.48846 
L 433.318261 232.518558 
L 433.318261 232.483895 
L 434.612929 232.533748 
L 434.612929 232.502291 
L 435.907946 232.546537 
L 435.907946 232.519724 
L 436.166985 232.428324 
L 436.166985 232.224544 
L 436.688727 232.285245 
L 436.947591 232.493125 
L 436.947591 232.479559 
L 437.984442 232.57538 
L 437.984442 232.553742 
L 439.796838 232.554384 
L 439.796838 232.529875 
L 441.357526 232.564512 
L 441.357526 232.537817 
L 444.21009 232.555034 
L 444.21009 232.526269 
L 445.246068 232.562991 
L 445.246068 232.533907 
L 446.799775 232.563517 
L 446.799775 232.541317 
L 447.058813 232.421468 
L 447.058813 232.140171 
L 447.580555 232.254136 
L 447.842561 232.530152 
L 447.842561 232.498746 
L 449.396442 232.599398 
L 449.396442 232.576403 
L 450.953988 232.57936 
L 450.953988 232.56302 
L 452.249703 232.595566 
L 452.249703 232.570403 
L 454.062273 232.601857 
L 454.062273 232.587198 
L 455.363924 232.609627 
L 455.363924 232.591636 
L 456.91763 232.6104 
L 456.91763 232.587817 
L 458.734738 232.607799 
L 458.734738 232.588486 
L 460.029406 232.613818 
L 460.029406 232.602678 
L 461.845642 232.611722 
L 461.845642 232.592599 
L 463.920392 232.631403 
L 463.920392 232.614296 
L 465.995317 232.636716 
L 465.995317 232.613645 
L 468.325789 232.644518 
L 468.325789 232.619284 
L 470.401412 232.638417 
L 470.401412 232.624063 
L 472.477035 232.637254 
L 472.477035 232.611221 
L 475.329599 232.665209 
L 475.329599 232.6397 
L 478.183384 232.650419 
L 478.183384 232.63735 
L 479.481194 232.654722 
L 479.481194 232.646223 
L 481.03874 232.653002 
L 481.03874 232.641957 
L 482.851659 232.664135 
L 482.851659 232.64627 
L 484.409206 232.664778 
L 484.409206 232.649233 
L 486.222125 232.667861 
L 486.222125 232.658731 
L 488.043946 232.674645 
L 488.043946 232.663048 
L 490.374768 232.682034 
L 490.374768 232.670472 
L 492.968293 232.681041 
L 492.968293 232.66748 
L 496.346439 232.685965 
L 496.346439 232.67836 
L 497.90032 232.683192 
L 497.90032 232.670038 
L 501.795844 232.690757 
L 501.795844 232.682391 
L 505.162469 232.697234 
L 505.162469 232.685146 
L 508.537648 232.708436 
L 508.537648 232.698907 
L 512.426888 232.716491 
L 512.426888 232.707806 
L 515.28207 232.703064 
L 515.28207 232.691165 
L 518.65271 232.705042 
L 518.65271 232.692178 
L 533.955521 232.720112 
L 533.955521 232.710153 
L 536.553061 232.72895 
L 536.553061 232.71832 
L 544.072329 232.716326 
L 544.072329 232.70537 
L 547.179741 232.714985 
L 547.179741 232.695819 
L 550.547589 232.696058 
L 550.547589 232.687448 
L 623.32025 232.743067 
L 623.32025 232.727301 
L 626.881503 232.749445 
L 626.881503 232.742176 
L 644.197621 232.745447 
L 649.029454 232.755477 
L 649.029454 232.753538 
L 656.143931 232.742792 
L 663.017697 232.72795 
L 663.017697 232.730147 
L 667.108199 232.761306 
L 667.108199 232.752166 
L 671.462277 232.754889 
L 671.462277 232.747784 
L 709.055475 232.753 
L 709.055475 232.744146 
L 728.925145 232.764294 
L 728.925145 232.757189 
L 731.457925 232.760064 
L 738.580955 232.753313 
L 738.580955 232.755433 
L 741.386564 232.763893 
L 741.386564 232.757566 
L 748.263473 232.773199 
L 748.263473 232.76588 
L 757.735827 232.767859 
L 757.735827 232.768407 
L 762.599254 232.754658 
L 767.222319 232.761828 
L 767.222319 232.759641 
L 779.038586 232.754357 
L 779.038586 232.748131 
L 779.038586 232.754272 
L 785.961228 232.76798 
L 785.961228 232.756127 
L 792.629894 232.765197 
L 811.876406 232.755888 
L 811.876406 232.751827 
" clip-path="url(#pdc136321f6)" style="fill: none; stroke: #008000; stroke-width: 1.5; stroke-linecap: square"/>
   </g>
   <g id="patch_3">
    <path d="M 47.72 534.04 
L 47.72 26.88 
" style="fill: none; stroke: #000000; stroke-width: 0.8; stroke-linejoin: miter; stroke-linecap: square"/>
   </g>
   <g id="patch_4">
    <path d="M 853.2 534.04 
L 853.2 26.88 
" style="fill: none; stroke: #000000; stroke-width: 0.8; stroke-linejoin: miter; stroke-linecap: square"/>
   </g>
   <g id="patch_5">
    <path d="M 47.72 534.04 
L 853.2 534.04 
" style="fill: none; stroke: #000000; stroke-width: 0.8; stroke-linejoin: miter; stroke-linecap: square"/>
   </g>
   <g id="patch_6">
    <path d="M 47.72 26.88 
L 853.2 26.88 
" style="fill: none; stroke: #000000; stroke-width: 0.8; stroke-linejoin: miter; stroke-linecap: square"/>
   </g>
   <g id="patch_7">
    <path d="M 381.41609 323.897269 
Q 364.581031 329.10753 347.745972 334.317791 
L 348.928585 338.138972 
Q 342.310571 337.046783 335.692557 335.954594 
Q 340.536652 331.315011 345.380747 326.675428 
L 346.56336 330.49661 
Q 363.398418 325.286349 380.233477 320.076088 
L 381.41609 323.897269 
z
" style="stroke: #000000; stroke-linecap: round"/>
   </g>
   <g id="text_17">
    <!-- Peak: RT=2.38, Area=1.20e+04 -->
    <g style="fill: #ff0000" transform="translate(385.438589 307.281258) scale(0.1 -0.1)">
     <defs>
      <path id="DejaVuSans-50" d="M 1259 4147 
L 1259 2394 
L 2053 2394 
Q 2494 2394 2734 2622 
Q 2975 2850 2975 3272 
Q 2975 3691 2734 3919 
Q 2494 4147 2053 4147 
L 1259 4147 
z
M 628 4666 
L 2053 4666 
Q 2838 4666 3239 4311 
Q 3641 3956 3641 3272 
Q 3641 2581 3239 2228 
Q 2838 1875 2053 1875 
L 1259 1875 
L 1259 0 
L 628 0 
L 628 4666 
z
" transform="scale(0.015625)"/>
      <path id="DejaVuSans-6b" d="M 581 4863 
L 1159 4863 
L 1159 1991 
L 2875 3500 
L 3609 3500 
L 1753 1863 
L 3688 0 
L 2938 0 
L 1159 1709 
L 1159 0 
L 581 0 
L 581 4863 
z
" transform="scale(0.015625)"/>
      <path id="DejaVuSans-3a" d="M 750 794 
L 1409 794 
L 1409 0 
L 750 0 
L 750 794 
z
M 750 3309 
L 1409 3309 
L 1409 2516 
L 750 2516 
L 750 3309 
z
" transform="scale(0.015625)"/>
      <path id="DejaVuSans-3d" d="M 678 2906 
L 4684 2906 
L 4684 2381 
L 678 2381 
L 678 2906 
z
M 678 1631 
L 4684 1631 
L 4684 1100 
L 678 1100 
L 678 1631 
z
" transform="scale(0.015625)"/>
      <path id="DejaVuSans-38" d="M 2034 2216 
Q 1584 2216 1326 1975 
Q 1069 1734 1069 1313 
Q 1069 891 1326 650 
Q 1584 409 2034 409 
Q 2484 409 2743 651 
Q 3003 894 3003 1313 
Q 3003 1734 2745 1975 
Q 2488 2216 2034 2216 
z
M 1403 2484 
Q 997 2584 770 2862 
Q 544 3141 544 3541 
Q 544 4100 942 4425 
Q 1341 4750 2034 4750 
Q 2731 4750 3128 4425 
Q 3525 4100 3525 3541 
Q 3525 3141 3298 2862 
Q 3072 2584 2669 2484 
Q 3125 2378 3379 2068 
Q 3634 1759 3634 1313 
Q 3634 634 3220 271 
Q 2806 -91 2034 -91 
Q 1263 -91 848 271 
Q 434 634 434 1313 
Q 434 1759 690 2068 
Q 947 2378 1403 2484 
z
M 1172 3481 
Q 1172 3119 1398 2916 
Q 1625 2713 2034 2713 
Q 2441 2713 2670 2916 
Q 2900 3119 2900 3481 
Q 2900 3844 2670 4047 
Q 2441 4250 2034 4250 
Q 1625 4250 1398 4047 
Q 1172 3844 1172 3481 
z
" transform="scale(0.015625)"/>
      <path id="DejaVuSans-2c" d="M 750 794 
L 1409 794 
L 1409 256 
L 897 -744 
L 494 -744 
L 750 256 
L 750 794 
z
" transform="scale(0.015625)"/>
      <path id="DejaVuSans-41" d="M 2188 4044 
L 1331 1722 
L 3047 1722 
L 2188 4044 
z
M 1831 4666 
L 2547 4666 
L 4325 0 
L 3669 0 
L 3244 1197 
L 1141 1197 
L 716 0 
L 50 0 
L 1831 4666 
z
" transform="scale(0.015625)"/>
      <path id="DejaVuSans-2b" d="M 2944 4013 
L 2944 2272 
L 4684 2272 
L 4684 1741 
L 2944 1741 
L 2944 0 
L 2419 0 
L 2419 1741 
L 678 1741 
L 678 2272 
L 2419 2272 
L 2419 4013 
L 2944 4013 
z
" transform="scale(0.015625)"/>
     </defs>
     <use xlink:href="#DejaVuSans-50"/>
     <use xlink:href="#DejaVuSans-65" x="56.677734"/>
     <use xlink:href="#DejaVuSans-61" x="118.201172"/>
     <use xlink:href="#DejaVuSans-6b" x="179.480469"/>
     <use xlink:href="#DejaVuSans-3a" x="237.390625"/>
     <use xlink:href="#DejaVuSans-20" x="271.082031"/>
     <use xlink:href="#DejaVuSans-52" x="302.869141"/>
     <use xlink:href="#DejaVuSans-54" x="365.101562"/>
     <use xlink:href="#DejaVuSans-3d" x="426.185547"/>
     <use xlink:href="#DejaVuSans-32" x="509.974609"/>
     <use xlink:href="#DejaVuSans-2e" x="573.597656"/>
     <use xlink:href="#DejaVuSans-33" x="605.384766"/>
     <use xlink:href="#DejaVuSans-38" x="669.007812"/>
     <use xlink:href="#DejaVuSans-2c" x="732.630859"/>
     <use xlink:href="#DejaVuSans-20" x="764.417969"/>
     <use xlink:href="#DejaVuSans-41" x="796.205078"/>
     <use xlink:href="#DejaVuSans-72" x="864.613281"/>
     <use xlink:href="#DejaVuSans-65" x="903.476562"/>
     <use xlink:href="#DejaVuSans-61" x="965"/>
     <use xlink:href="#DejaVuSans-3d" x="1026.279297"/>
     <use xlink:href="#DejaVuSans-31" x="1110.068359"/>
     <use xlink:href="#DejaVuSans-2e" x="1173.691406"/>
     <use xlink:href="#DejaVuSans-32" x="1205.478516"/>
     <use xlink:href="#DejaVuSans-30" x="1269.101562"/>
     <use xlink:href="#DejaVuSans-65" x="1332.724609"/>
     <use xlink:href="#DejaVuSans-2b" x="1394.248047"/>
     <use xlink:href="#DejaVuSans-30" x="1478.037109"/>
     <use xlink:href="#DejaVuSans-34" x="1541.660156"/>
    </g>
    <!-- (69.20% of total) -->
    <g style="fill: #ff0000" transform="translate(385.438589 318.47907) scale(0.1 -0.1)">
     <defs>
      <path id="DejaVuSans-39" d="M 703 97 
L 703 672 
Q 941 559 1184 500 
Q 1428 441 1663 441 
Q 2288 441 2617 861 
Q 2947 1281 2994 2138 
Q 2813 1869 2534 1725 
Q 2256 1581 1919 1581 
Q 1219 1581 811 2004 
Q 403 2428 403 3163 
Q 403 3881 828 4315 
Q 1253 4750 1959 4750 
Q 2769 4750 3195 4129 
Q 3622 3509 3622 2328 
Q 3622 1225 3098 567 
Q 2575 -91 1691 -91 
Q 1453 -91 1209 -44 
Q 966 3 703 97 
z
M 1959 2075 
Q 2384 2075 2632 2365 
Q 2881 2656 2881 3163 
Q 2881 3666 2632 3958 
Q 2384 4250 1959 4250 
Q 1534 4250 1286 3958 
Q 1038 3666 1038 3163 
Q 1038 2656 1286 2365 
Q 1534 2075 1959 2075 
z
" transform="scale(0.015625)"/>
      <path id="DejaVuSans-25" d="M 4653 2053 
Q 4381 2053 4226 1822 
Q 4072 1591 4072 1178 
Q 4072 772 4226 539 
Q 4381 306 4653 306 
Q 4919 306 5073 539 
Q 5228 772 5228 1178 
Q 5228 1588 5073 1820 
Q 4919 2053 4653 2053 
z
M 4653 2450 
Q 5147 2450 5437 2106 
Q 5728 1763 5728 1178 
Q 5728 594 5436 251 
Q 5144 -91 4653 -91 
Q 4153 -91 3862 251 
Q 3572 594 3572 1178 
Q 3572 1766 3864 2108 
Q 4156 2450 4653 2450 
z
M 1428 4353 
Q 1159 4353 1004 4120 
Q 850 3888 850 3481 
Q 850 3069 1003 2837 
Q 1156 2606 1428 2606 
Q 1700 2606 1854 2837 
Q 2009 3069 2009 3481 
Q 2009 3884 1853 4118 
Q 1697 4353 1428 4353 
z
M 4250 4750 
L 4750 4750 
L 1831 -91 
L 1331 -91 
L 4250 4750 
z
M 1428 4750 
Q 1922 4750 2215 4408 
Q 2509 4066 2509 3481 
Q 2509 2891 2217 2550 
Q 1925 2209 1428 2209 
Q 931 2209 642 2551 
Q 353 2894 353 3481 
Q 353 4063 643 4406 
Q 934 4750 1428 4750 
z
" transform="scale(0.015625)"/>
      <path id="DejaVuSans-66" d="M 2375 4863 
L 2375 4384 
L 1825 4384 
Q 1516 4384 1395 4259 
Q 1275 4134 1275 3809 
L 1275 3500 
L 2222 3500 
L 2222 3053 
L 1275 3053 
L 1275 0 
L 697 0 
L 697 3053 
L 147 3053 
L 147 3500 
L 697 3500 
L 697 3744 
Q 697 4328 969 4595 
Q 1241 4863 1831 4863 
L 2375 4863 
z
" transform="scale(0.015625)"/>
     </defs>
     <use xlink:href="#DejaVuSans-28"/>
     <use xlink:href="#DejaVuSans-36" x="39.013672"/>
     <use xlink:href="#DejaVuSans-39" x="102.636719"/>
     <use xlink:href="#DejaVuSans-2e" x="166.259766"/>
     <use xlink:href="#DejaVuSans-32" x="198.046875"/>
     <use xlink:href="#DejaVuSans-30" x="261.669922"/>
     <use xlink:href="#DejaVuSans-25" x="325.292969"/>
     <use xlink:href="#DejaVuSans-20" x="420.3125"/>
     <use xlink:href="#DejaVuSans-6f" x="452.099609"/>
     <use xlink:href="#DejaVuSans-66" x="513.28125"/>
     <use xlink:href="#DejaVuSans-20" x="548.486328"/>
     <use xlink:href="#DejaVuSans-74" x="580.273438"/>
     <use xlink:href="#DejaVuSans-6f" x="619.482422"/>
     <use xlink:href="#DejaVuSans-74" x="680.664062"/>
     <use xlink:href="#DejaVuSans-61" x="719.873047"/>
     <use xlink:href="#DejaVuSans-6c" x="781.152344"/>
     <use xlink:href="#DejaVuSans-29" x="808.935547"/>
    </g>
   </g>
   <g id="text_18">
    <!-- UV and MS Chromatograms of Ru_p_cymene_M4Y2, target m/z = 521.1 -->
    <g transform="translate(236.044375 20.88) scale(0.12 -0.12)">
     <defs>
      <path id="DejaVuSans-55" d="M 556 4666 
L 1191 4666 
L 1191 1831 
Q 1191 1081 1462 751 
Q 1734 422 2344 422 
Q 2950 422 3222 751 
Q 3494 1081 3494 1831 
L 3494 4666 
L 4128 4666 
L 4128 1753 
Q 4128 841 3676 375 
Q 3225 -91 2344 -91 
Q 1459 -91 1007 375 
Q 556 841 556 1753 
L 556 4666 
z
" transform="scale(0.015625)"/>
      <path id="DejaVuSans-56" d="M 1831 0 
L 50 4666 
L 709 4666 
L 2188 738 
L 3669 4666 
L 4325 4666 
L 2547 0 
L 1831 0 
z
" transform="scale(0.015625)"/>
      <path id="DejaVuSans-4d" d="M 628 4666 
L 1569 4666 
L 2759 1491 
L 3956 4666 
L 4897 4666 
L 4897 0 
L 4281 0 
L 4281 4097 
L 3078 897 
L 2444 897 
L 1241 4097 
L 1241 0 
L 628 0 
L 628 4666 
z
" transform="scale(0.015625)"/>
      <path id="DejaVuSans-53" d="M 3425 4513 
L 3425 3897 
Q 3066 4069 2747 4153 
Q 2428 4238 2131 4238 
Q 1616 4238 1336 4038 
Q 1056 3838 1056 3469 
Q 1056 3159 1242 3001 
Q 1428 2844 1947 2747 
L 2328 2669 
Q 3034 2534 3370 2195 
Q 3706 1856 3706 1288 
Q 3706 609 3251 259 
Q 2797 -91 1919 -91 
Q 1588 -91 1214 -16 
Q 841 59 441 206 
L 441 856 
Q 825 641 1194 531 
Q 1563 422 1919 422 
Q 2459 422 2753 634 
Q 3047 847 3047 1241 
Q 3047 1584 2836 1778 
Q 2625 1972 2144 2069 
L 1759 2144 
Q 1053 2284 737 2584 
Q 422 2884 422 3419 
Q 422 4038 858 4394 
Q 1294 4750 2059 4750 
Q 2388 4750 2728 4690 
Q 3069 4631 3425 4513 
z
" transform="scale(0.015625)"/>
      <path id="DejaVuSans-43" d="M 4122 4306 
L 4122 3641 
Q 3803 3938 3442 4084 
Q 3081 4231 2675 4231 
Q 1875 4231 1450 3742 
Q 1025 3253 1025 2328 
Q 1025 1406 1450 917 
Q 1875 428 2675 428 
Q 3081 428 3442 575 
Q 3803 722 4122 1019 
L 4122 359 
Q 3791 134 3420 21 
Q 3050 -91 2638 -91 
Q 1578 -91 968 557 
Q 359 1206 359 2328 
Q 359 3453 968 4101 
Q 1578 4750 2638 4750 
Q 3056 4750 3426 4639 
Q 3797 4528 4122 4306 
z
" transform="scale(0.015625)"/>
      <path id="DejaVuSans-68" d="M 3513 2113 
L 3513 0 
L 2938 0 
L 2938 2094 
Q 2938 2591 2744 2837 
Q 2550 3084 2163 3084 
Q 1697 3084 1428 2787 
Q 1159 2491 1159 1978 
L 1159 0 
L 581 0 
L 581 4863 
L 1159 4863 
L 1159 2956 
Q 1366 3272 1645 3428 
Q 1925 3584 2291 3584 
Q 2894 3584 3203 3211 
Q 3513 2838 3513 2113 
z
" transform="scale(0.015625)"/>
      <path id="DejaVuSans-67" d="M 2906 1791 
Q 2906 2416 2648 2759 
Q 2391 3103 1925 3103 
Q 1463 3103 1205 2759 
Q 947 2416 947 1791 
Q 947 1169 1205 825 
Q 1463 481 1925 481 
Q 2391 481 2648 825 
Q 2906 1169 2906 1791 
z
M 3481 434 
Q 3481 -459 3084 -895 
Q 2688 -1331 1869 -1331 
Q 1566 -1331 1297 -1286 
Q 1028 -1241 775 -1147 
L 775 -588 
Q 1028 -725 1275 -790 
Q 1522 -856 1778 -856 
Q 2344 -856 2625 -561 
Q 2906 -266 2906 331 
L 2906 616 
Q 2728 306 2450 153 
Q 2172 0 1784 0 
Q 1141 0 747 490 
Q 353 981 353 1791 
Q 353 2603 747 3093 
Q 1141 3584 1784 3584 
Q 2172 3584 2450 3431 
Q 2728 3278 2906 2969 
L 2906 3500 
L 3481 3500 
L 3481 434 
z
" transform="scale(0.015625)"/>
      <path id="DejaVuSans-75" d="M 544 1381 
L 544 3500 
L 1119 3500 
L 1119 1403 
Q 1119 906 1312 657 
Q 1506 409 1894 409 
Q 2359 409 2629 706 
Q 2900 1003 2900 1516 
L 2900 3500 
L 3475 3500 
L 3475 0 
L 2900 0 
L 2900 538 
Q 2691 219 2414 64 
Q 2138 -91 1772 -91 
Q 1169 -91 856 284 
Q 544 659 544 1381 
z
M 1991 3584 
L 1991 3584 
z
" transform="scale(0.015625)"/>
      <path id="DejaVuSans-5f" d="M 3263 -1063 
L 3263 -1509 
L -63 -1509 
L -63 -1063 
L 3263 -1063 
z
" transform="scale(0.015625)"/>
      <path id="DejaVuSans-70" d="M 1159 525 
L 1159 -1331 
L 581 -1331 
L 581 3500 
L 1159 3500 
L 1159 2969 
Q 1341 3281 1617 3432 
Q 1894 3584 2278 3584 
Q 2916 3584 3314 3078 
Q 3713 2572 3713 1747 
Q 3713 922 3314 415 
Q 2916 -91 2278 -91 
Q 1894 -91 1617 61 
Q 1341 213 1159 525 
z
M 3116 1747 
Q 3116 2381 2855 2742 
Q 2594 3103 2138 3103 
Q 1681 3103 1420 2742 
Q 1159 2381 1159 1747 
Q 1159 1113 1420 752 
Q 1681 391 2138 391 
Q 2594 391 2855 752 
Q 3116 1113 3116 1747 
z
" transform="scale(0.015625)"/>
      <path id="DejaVuSans-63" d="M 3122 3366 
L 3122 2828 
Q 2878 2963 2633 3030 
Q 2388 3097 2138 3097 
Q 1578 3097 1268 2742 
Q 959 2388 959 1747 
Q 959 1106 1268 751 
Q 1578 397 2138 397 
Q 2388 397 2633 464 
Q 2878 531 3122 666 
L 3122 134 
Q 2881 22 2623 -34 
Q 2366 -91 2075 -91 
Q 1284 -91 818 406 
Q 353 903 353 1747 
Q 353 2603 823 3093 
Q 1294 3584 2113 3584 
Q 2378 3584 2631 3529 
Q 2884 3475 3122 3366 
z
" transform="scale(0.015625)"/>
      <path id="DejaVuSans-59" d="M -13 4666 
L 666 4666 
L 1959 2747 
L 3244 4666 
L 3922 4666 
L 2272 2222 
L 2272 0 
L 1638 0 
L 1638 2222 
L -13 4666 
z
" transform="scale(0.015625)"/>
      <path id="DejaVuSans-2f" d="M 1625 4666 
L 2156 4666 
L 531 -594 
L 0 -594 
L 1625 4666 
z
" transform="scale(0.015625)"/>
     </defs>
     <use xlink:href="#DejaVuSans-55"/>
     <use xlink:href="#DejaVuSans-56" x="73.193359"/>
     <use xlink:href="#DejaVuSans-20" x="141.601562"/>
     <use xlink:href="#DejaVuSans-61" x="173.388672"/>
     <use xlink:href="#DejaVuSans-6e" x="234.667969"/>
     <use xlink:href="#DejaVuSans-64" x="298.046875"/>
     <use xlink:href="#DejaVuSans-20" x="361.523438"/>
     <use xlink:href="#DejaVuSans-4d" x="393.310547"/>
     <use xlink:href="#DejaVuSans-53" x="479.589844"/>
     <use xlink:href="#DejaVuSans-20" x="543.066406"/>
     <use xlink:href="#DejaVuSans-43" x="574.853516"/>
     <use xlink:href="#DejaVuSans-68" x="644.677734"/>
     <use xlink:href="#DejaVuSans-72" x="708.056641"/>
     <use xlink:href="#DejaVuSans-6f" x="746.919922"/>
     <use xlink:href="#DejaVuSans-6d" x="808.101562"/>
     <use xlink:href="#DejaVuSans-61" x="905.513672"/>
     <use xlink:href="#DejaVuSans-74" x="966.792969"/>
     <use xlink:href="#DejaVuSans-6f" x="1006.001953"/>
     <use xlink:href="#DejaVuSans-67" x="1067.183594"/>
     <use xlink:href="#DejaVuSans-72" x="1130.660156"/>
     <use xlink:href="#DejaVuSans-61" x="1171.773438"/>
     <use xlink:href="#DejaVuSans-6d" x="1233.052734"/>
     <use xlink:href="#DejaVuSans-73" x="1330.464844"/>
     <use xlink:href="#DejaVuSans-20" x="1382.564453"/>
     <use xlink:href="#DejaVuSans-6f" x="1414.351562"/>
     <use xlink:href="#DejaVuSans-66" x="1475.533203"/>
     <use xlink:href="#DejaVuSans-20" x="1510.738281"/>
     <use xlink:href="#DejaVuSans-52" x="1542.525391"/>
     <use xlink:href="#DejaVuSans-75" x="1607.507812"/>
     <use xlink:href="#DejaVuSans-5f" x="1670.886719"/>
     <use xlink:href="#DejaVuSans-70" x="1720.886719"/>
     <use xlink:href="#DejaVuSans-5f" x="1784.363281"/>
     <use xlink:href="#DejaVuSans-63" x="1834.363281"/>
     <use xlink:href="#DejaVuSans-79" x="1889.34375"/>
     <use xlink:href="#DejaVuSans-6d" x="1948.523438"/>
     <use xlink:href="#DejaVuSans-65" x="2045.935547"/>
     <use xlink:href="#DejaVuSans-6e" x="2107.458984"/>
     <use xlink:href="#DejaVuSans-65" x="2170.837891"/>
     <use xlink:href="#DejaVuSans-5f" x="2232.361328"/>
     <use xlink:href="#DejaVuSans-4d" x="2282.361328"/>
     <use xlink:href="#DejaVuSans-34" x="2368.640625"/>
     <use xlink:href="#DejaVuSans-59" x="2432.263672"/>
     <use xlink:href="#DejaVuSans-32" x="2493.347656"/>
     <use xlink:href="#DejaVuSans-2c" x="2556.970703"/>
     <use xlink:href="#DejaVuSans-20" x="2588.757812"/>
     <use xlink:href="#DejaVuSans-74" x="2620.544922"/>
     <use xlink:href="#DejaVuSans-61" x="2659.753906"/>
     <use xlink:href="#DejaVuSans-72" x="2721.033203"/>
     <use xlink:href="#DejaVuSans-67" x="2760.396484"/>
     <use xlink:href="#DejaVuSans-65" x="2823.873047"/>
     <use xlink:href="#DejaVuSans-74" x="2885.396484"/>
     <use xlink:href="#DejaVuSans-20" x="2924.605469"/>
     <use xlink:href="#DejaVuSans-6d" x="2956.392578"/>
     <use xlink:href="#DejaVuSans-2f" x="3053.804688"/>
     <use xlink:href="#DejaVuSans-7a" x="3087.496094"/>
     <use xlink:href="#DejaVuSans-20" x="3139.986328"/>
     <use xlink:href="#DejaVuSans-3d" x="3171.773438"/>
     <use xlink:href="#DejaVuSans-20" x="3255.5625"/>
     <use xlink:href="#DejaVuSans-35" x="3287.349609"/>
     <use xlink:href="#DejaVuSans-32" x="3350.972656"/>
     <use xlink:href="#DejaVuSans-31" x="3414.595703"/>
     <use xlink:href="#DejaVuSans-2e" x="3478.21875"/>
     <use xlink:href="#DejaVuSans-31" x="3510.005859"/>
    </g>
   </g>
   <g id="legend_1">
    <g id="patch_8">
     <path d="M 685.971875 64.23625 
L 846.2 64.23625 
Q 848.2 64.23625 848.2 62.23625 
L 848.2 33.88 
Q 848.2 31.88 846.2 31.88 
L 685.971875 31.88 
Q 683.971875 31.88 683.971875 33.88 
L 683.971875 62.23625 
Q 683.971875 64.23625 685.971875 64.23625 
z
" style="fill: #ffffff; opacity: 0.8; stroke: #cccccc; stroke-linejoin: miter"/>
    </g>
    <g id="line2d_17">
     <path d="M 687.971875 39.978437 
L 697.971875 39.978437 
L 707.971875 39.978437 
" style="fill: none; stroke: #0000ff; stroke-width: 1.5; stroke-linecap: square"/>
    </g>
    <g id="text_19">
     <!-- UV Intensity (normalized) -->
     <g transform="translate(715.971875 43.478437) scale(0.1 -0.1)">
      <use xlink:href="#DejaVuSans-55"/>
      <use xlink:href="#DejaVuSans-56" x="73.193359"/>
      <use xlink:href="#DejaVuSans-20" x="141.601562"/>
      <use xlink:href="#DejaVuSans-49" x="173.388672"/>
      <use xlink:href="#DejaVuSans-6e" x="202.880859"/>
      <use xlink:href="#DejaVuSans-74" x="266.259766"/>
      <use xlink:href="#DejaVuSans-65" x="305.46875"/>
      <use xlink:href="#DejaVuSans-6e" x="366.992188"/>
      <use xlink:href="#DejaVuSans-73" x="430.371094"/>
      <use xlink:href="#DejaVuSans-69" x="482.470703"/>
      <use xlink:href="#DejaVuSans-74" x="510.253906"/>
      <use xlink:href="#DejaVuSans-79" x="549.462891"/>
      <use xlink:href="#DejaVuSans-20" x="608.642578"/>
      <use xlink:href="#DejaVuSans-28" x="640.429688"/>
      <use xlink:href="#DejaVuSans-6e" x="679.443359"/>
      <use xlink:href="#DejaVuSans-6f" x="742.822266"/>
      <use xlink:href="#DejaVuSans-72" x="804.003906"/>
      <use xlink:href="#DejaVuSans-6d" x="843.367188"/>
      <use xlink:href="#DejaVuSans-61" x="940.779297"/>
      <use xlink:href="#DejaVuSans-6c" x="1002.058594"/>
      <use xlink:href="#DejaVuSans-69" x="1029.841797"/>
      <use xlink:href="#DejaVuSans-7a" x="1057.625"/>
      <use xlink:href="#DejaVuSans-65" x="1110.115234"/>
      <use xlink:href="#DejaVuSans-64" x="1171.638672"/>
      <use xlink:href="#DejaVuSans-29" x="1235.115234"/>
     </g>
    </g>
    <g id="line2d_18">
     <path d="M 687.971875 54.656562 
L 697.971875 54.656562 
L 707.971875 54.656562 
" style="fill: none; stroke: #008000; stroke-width: 1.5; stroke-linecap: square"/>
    </g>
    <g id="text_20">
     <!-- MS Intensity (normalized) -->
     <g transform="translate(715.971875 58.156562) scale(0.1 -0.1)">
      <use xlink:href="#DejaVuSans-4d"/>
      <use xlink:href="#DejaVuSans-53" x="86.279297"/>
      <use xlink:href="#DejaVuSans-20" x="149.755859"/>
      <use xlink:href="#DejaVuSans-49" x="181.542969"/>
      <use xlink:href="#DejaVuSans-6e" x="211.035156"/>
      <use xlink:href="#DejaVuSans-74" x="274.414062"/>
      <use xlink:href="#DejaVuSans-65" x="313.623047"/>
      <use xlink:href="#DejaVuSans-6e" x="375.146484"/>
      <use xlink:href="#DejaVuSans-73" x="438.525391"/>
      <use xlink:href="#DejaVuSans-69" x="490.625"/>
      <use xlink:href="#DejaVuSans-74" x="518.408203"/>
      <use xlink:href="#DejaVuSans-79" x="557.617188"/>
      <use xlink:href="#DejaVuSans-20" x="616.796875"/>
      <use xlink:href="#DejaVuSans-28" x="648.583984"/>
      <use xlink:href="#DejaVuSans-6e" x="687.597656"/>
      <use xlink:href="#DejaVuSans-6f" x="750.976562"/>
      <use xlink:href="#DejaVuSans-72" x="812.158203"/>
      <use xlink:href="#DejaVuSans-6d" x="851.521484"/>
      <use xlink:href="#DejaVuSans-61" x="948.933594"/>
      <use xlink:href="#DejaVuSans-6c" x="1010.212891"/>
      <use xlink:href="#DejaVuSans-69" x="1037.996094"/>
      <use xlink:href="#DejaVuSans-7a" x="1065.779297"/>
      <use xlink:href="#DejaVuSans-65" x="1118.269531"/>
      <use xlink:href="#DejaVuSans-64" x="1179.792969"/>
      <use xlink:href="#DejaVuSans-29" x="1243.269531"/>
     </g>
    </g>
   </g>
  </g>
 </g>
 <defs>
  <clipPath id="pdc136321f6">
   <rect x="47.72" y="26.88" width="805.48" height="507.16"/>
  </clipPath>
 </defs>
</svg>
